<?xml version="1.0" encoding="UTF-8" standalone="no"?>
<!DOCTYPE svg PUBLIC "-//W3C//DTD SVG 1.1//EN"
 "http://www.w3.org/Graphics/SVG/1.1/DTD/svg11.dtd">
<!-- Generated by graphviz version 2.43.0 (0)
 -->
<!-- Title: src/physics/bounding/AABB.h Pages: 1 -->
<svg width="2870pt" height="632pt"
 viewBox="0.00 0.00 2870.00 632.00" xmlns="http://www.w3.org/2000/svg" xmlns:xlink="http://www.w3.org/1999/xlink">
<g id="graph0" class="graph" transform="scale(1 1) rotate(0) translate(4 628)">
<title>src/physics/bounding/AABB.h</title>
<!-- Node1 -->
<g id="Node000001" class="node">
<title>Node1</title>
<g id="a_Node000001"><a xlink:title=" ">
<polygon fill="#999999" stroke="#666666" points="2007.5,-624 1888.5,-624 1888.5,-594 2007.5,-594 2007.5,-624"/>
<text text-anchor="start" x="1896.5" y="-612" font-family="Helvetica,sans-Serif" font-size="10.00">src/physics/bounding</text>
<text text-anchor="middle" x="1948" y="-601" font-family="Helvetica,sans-Serif" font-size="10.00">/AABB.h</text>
</a>
</g>
</g>
<!-- Node2 -->
<g id="Node000002" class="node">
<title>Node2</title>
<g id="a_Node000002"><a xlink:href="Mesh_8h.html" target="_top" xlink:title=" ">
<polygon fill="white" stroke="#666666" points="1944,-558 1806,-558 1806,-528 1944,-528 1944,-558"/>
<text text-anchor="start" x="1814" y="-546" font-family="Helvetica,sans-Serif" font-size="10.00">src/graphics/components</text>
<text text-anchor="middle" x="1875" y="-535" font-family="Helvetica,sans-Serif" font-size="10.00">/Mesh.h</text>
</a>
</g>
</g>
<!-- Node1&#45;&gt;Node2 -->
<g id="edge1_Node000001_Node000002" class="edge">
<title>Node1&#45;&gt;Node2</title>
<g id="a_edge1_Node000001_Node000002"><a xlink:title=" ">
<path fill="none" stroke="#63b8ff" d="M1924.28,-587.2C1913.44,-577.7 1900.88,-566.69 1891.16,-558.16"/>
<polygon fill="#63b8ff" stroke="#63b8ff" points="1921.97,-589.84 1931.8,-593.8 1926.59,-584.57 1921.97,-589.84"/>
</a>
</g>
</g>
<!-- Node36 -->
<g id="Node000036" class="node">
<title>Node36</title>
<g id="a_Node000036"><a xlink:href="AABB_8cpp.html" target="_top" xlink:title=" ">
<polygon fill="white" stroke="#666666" points="2081.5,-558 1962.5,-558 1962.5,-528 2081.5,-528 2081.5,-558"/>
<text text-anchor="start" x="1970.5" y="-546" font-family="Helvetica,sans-Serif" font-size="10.00">src/physics/bounding</text>
<text text-anchor="middle" x="2022" y="-535" font-family="Helvetica,sans-Serif" font-size="10.00">/AABB.cpp</text>
</a>
</g>
</g>
<!-- Node1&#45;&gt;Node36 -->
<g id="edge65_Node000001_Node000036" class="edge">
<title>Node1&#45;&gt;Node36</title>
<g id="a_edge65_Node000001_Node000036"><a xlink:title=" ">
<path fill="none" stroke="#63b8ff" d="M1972.05,-587.2C1983.03,-577.7 1995.76,-566.69 2005.62,-558.16"/>
<polygon fill="#63b8ff" stroke="#63b8ff" points="1969.7,-584.61 1964.42,-593.8 1974.28,-589.9 1969.7,-584.61"/>
</a>
</g>
</g>
<!-- Node3 -->
<g id="Node000003" class="node">
<title>Node3</title>
<g id="a_Node000003"><a xlink:href="Mesh_8cpp.html" target="_top" xlink:title=" ">
<polygon fill="white" stroke="#666666" points="1722,-492 1584,-492 1584,-462 1722,-462 1722,-492"/>
<text text-anchor="start" x="1592" y="-480" font-family="Helvetica,sans-Serif" font-size="10.00">src/graphics/components</text>
<text text-anchor="middle" x="1653" y="-469" font-family="Helvetica,sans-Serif" font-size="10.00">/Mesh.cpp</text>
</a>
</g>
</g>
<!-- Node2&#45;&gt;Node3 -->
<g id="edge2_Node000002_Node000003" class="edge">
<title>Node2&#45;&gt;Node3</title>
<g id="a_edge2_Node000002_Node000003"><a xlink:title=" ">
<path fill="none" stroke="#63b8ff" d="M1816.45,-525.12C1780.66,-514.8 1735.41,-501.76 1701.61,-492.01"/>
<polygon fill="#63b8ff" stroke="#63b8ff" points="1815.7,-528.55 1826.28,-527.95 1817.64,-521.82 1815.7,-528.55"/>
</a>
</g>
</g>
<!-- Node4 -->
<g id="Node000004" class="node">
<title>Node4</title>
<g id="a_Node000004"><a xlink:href="IDrawable_8h.html" target="_top" xlink:title=" ">
<polygon fill="white" stroke="#666666" points="1901.5,-486.5 1740.5,-486.5 1740.5,-467.5 1901.5,-467.5 1901.5,-486.5"/>
<text text-anchor="middle" x="1821" y="-474.5" font-family="Helvetica,sans-Serif" font-size="10.00">src/graphics/core/IDrawable.h</text>
</a>
</g>
</g>
<!-- Node2&#45;&gt;Node4 -->
<g id="edge3_Node000002_Node000004" class="edge">
<title>Node2&#45;&gt;Node4</title>
<g id="a_edge3_Node000002_Node000004"><a xlink:title=" ">
<path fill="none" stroke="#63b8ff" d="M1856.39,-519.94C1846.8,-508.58 1835.65,-495.36 1828.46,-486.84"/>
<polygon fill="#63b8ff" stroke="#63b8ff" points="1853.89,-522.41 1863.02,-527.8 1859.24,-517.9 1853.89,-522.41"/>
</a>
</g>
</g>
<!-- Node13 -->
<g id="Node000013" class="node">
<title>Node13</title>
<g id="a_Node000013"><a xlink:href="SceneObject_8h.html" target="_top" xlink:title=" ">
<polygon fill="white" stroke="#666666" points="1660,-156.5 1488,-156.5 1488,-137.5 1660,-137.5 1660,-156.5"/>
<text text-anchor="middle" x="1574" y="-144.5" font-family="Helvetica,sans-Serif" font-size="10.00">src/graphics/core/SceneObject.h</text>
</a>
</g>
</g>
<!-- Node2&#45;&gt;Node13 -->
<g id="edge64_Node000002_Node000013" class="edge">
<title>Node2&#45;&gt;Node13</title>
<g id="a_edge64_Node000002_Node000013"><a xlink:title=" ">
<path fill="none" stroke="#63b8ff" d="M1915.34,-523.11C1953.83,-501.96 2006,-463.76 2006,-412 2006,-412 2006,-412 2006,-278 2006,-233.29 1983.65,-220.47 1945,-198 1898.09,-170.72 1754.5,-157.76 1660.33,-152.04"/>
<polygon fill="#63b8ff" stroke="#63b8ff" points="1913.57,-520.08 1906.38,-527.86 1916.85,-526.27 1913.57,-520.08"/>
</a>
</g>
</g>
<!-- Node34 -->
<g id="Node000034" class="node">
<title>Node34</title>
<g id="a_Node000034"><a xlink:href="ResourceManager_8h.html" target="_top" xlink:title=" ">
<polygon fill="white" stroke="#666666" points="1416.5,-294 1269.5,-294 1269.5,-264 1416.5,-264 1416.5,-294"/>
<text text-anchor="start" x="1277.5" y="-282" font-family="Helvetica,sans-Serif" font-size="10.00">src/graphics/core/Resource</text>
<text text-anchor="middle" x="1343" y="-271" font-family="Helvetica,sans-Serif" font-size="10.00">Manager.h</text>
</a>
</g>
</g>
<!-- Node2&#45;&gt;Node34 -->
<g id="edge53_Node000002_Node000034" class="edge">
<title>Node2&#45;&gt;Node34</title>
<g id="a_edge53_Node000002_Node000034"><a xlink:title=" ">
<path fill="none" stroke="#63b8ff" d="M1896.27,-520.02C1909.96,-503.14 1922.97,-479.79 1910,-462 1850.95,-381.03 1556.14,-318.32 1416.54,-292.65"/>
<polygon fill="#63b8ff" stroke="#63b8ff" points="1893.5,-517.88 1889.61,-527.73 1898.8,-522.45 1893.5,-517.88"/>
</a>
</g>
</g>
<!-- Node5 -->
<g id="Node000005" class="node">
<title>Node5</title>
<g id="a_Node000005"><a xlink:href="IHandle_8h.html" target="_top" xlink:title="Interface for interactive manipulation handles on gizmos.">
<polygon fill="white" stroke="#666666" points="485,-426 347,-426 347,-396 485,-396 485,-426"/>
<text text-anchor="start" x="355" y="-414" font-family="Helvetica,sans-Serif" font-size="10.00">src/graphics/components</text>
<text text-anchor="middle" x="416" y="-403" font-family="Helvetica,sans-Serif" font-size="10.00">/IHandle.h</text>
</a>
</g>
</g>
<!-- Node4&#45;&gt;Node5 -->
<g id="edge4_Node000004_Node000005" class="edge">
<title>Node4&#45;&gt;Node5</title>
<g id="a_edge4_Node000004_Node000005"><a xlink:title=" ">
<path fill="none" stroke="#63b8ff" d="M1762.99,-465.96C1752.38,-464.41 1741.38,-463 1731,-462 1256.29,-416.21 681.39,-411.85 485.34,-411.8"/>
<polygon fill="#63b8ff" stroke="#63b8ff" points="1762.61,-469.44 1773.02,-467.48 1763.66,-462.52 1762.61,-469.44"/>
</a>
</g>
</g>
<!-- Node4&#45;&gt;Node13 -->
<g id="edge52_Node000004_Node000013" class="edge">
<title>Node4&#45;&gt;Node13</title>
<g id="a_edge52_Node000004_Node000013"><a xlink:title=" ">
<path fill="none" stroke="#63b8ff" d="M1854.62,-463.62C1898.01,-445.2 1968,-406.18 1968,-346 1968,-346 1968,-346 1968,-278 1968,-234.08 1947.54,-220.79 1910,-198 1869.17,-173.21 1745.46,-159.77 1660.12,-153.25"/>
<polygon fill="#63b8ff" stroke="#63b8ff" points="1853.2,-460.41 1845.27,-467.44 1855.85,-466.89 1853.2,-460.41"/>
</a>
</g>
</g>
<!-- Node6 -->
<g id="Node000006" class="node">
<title>Node6</title>
<g id="a_Node000006"><a xlink:href="Gizmo_8h.html" target="_top" xlink:title="Interactive 3D manipulation gizmo for scene objects.">
<polygon fill="white" stroke="#666666" points="485,-360 347,-360 347,-330 485,-330 485,-360"/>
<text text-anchor="start" x="355" y="-348" font-family="Helvetica,sans-Serif" font-size="10.00">src/graphics/components</text>
<text text-anchor="middle" x="416" y="-337" font-family="Helvetica,sans-Serif" font-size="10.00">/Gizmo.h</text>
</a>
</g>
</g>
<!-- Node5&#45;&gt;Node6 -->
<g id="edge5_Node000005_Node000006" class="edge">
<title>Node5&#45;&gt;Node6</title>
<g id="a_edge5_Node000005_Node000006"><a xlink:title=" ">
<path fill="none" stroke="#63b8ff" d="M416,-385.54C416,-376.96 416,-367.61 416,-360.16"/>
<polygon fill="#63b8ff" stroke="#63b8ff" points="412.5,-385.8 416,-395.8 419.5,-385.8 412.5,-385.8"/>
</a>
</g>
</g>
<!-- Node15 -->
<g id="Node000015" class="node">
<title>Node15</title>
<g id="a_Node000015"><a xlink:href="ScaleHandle_8h.html" target="_top" xlink:title=" ">
<polygon fill="white" stroke="#666666" points="2814,-96 2676,-96 2676,-66 2814,-66 2814,-96"/>
<text text-anchor="start" x="2684" y="-84" font-family="Helvetica,sans-Serif" font-size="10.00">src/graphics/components</text>
<text text-anchor="middle" x="2745" y="-73" font-family="Helvetica,sans-Serif" font-size="10.00">/ScaleHandle.h</text>
</a>
</g>
</g>
<!-- Node5&#45;&gt;Node15 -->
<g id="edge48_Node000005_Node000015" class="edge">
<title>Node5&#45;&gt;Node15</title>
<g id="a_edge48_Node000005_Node000015"><a xlink:title=" ">
<path fill="none" stroke="#63b8ff" d="M495.08,-402.21C718.15,-379.84 1371.21,-311.6 1910,-228 2195.03,-183.77 2533.07,-121.69 2675.87,-95.01"/>
<polygon fill="#63b8ff" stroke="#63b8ff" points="494.7,-398.73 485.1,-403.21 495.4,-405.7 494.7,-398.73"/>
</a>
</g>
</g>
<!-- Node32 -->
<g id="Node000032" class="node">
<title>Node32</title>
<g id="a_Node000032"><a xlink:href="RotateHandle_8h.html" target="_top" xlink:title=" ">
<polygon fill="white" stroke="#666666" points="332,-162 194,-162 194,-132 332,-132 332,-162"/>
<text text-anchor="start" x="202" y="-150" font-family="Helvetica,sans-Serif" font-size="10.00">src/graphics/components</text>
<text text-anchor="middle" x="263" y="-139" font-family="Helvetica,sans-Serif" font-size="10.00">/RotateHandle.h</text>
</a>
</g>
</g>
<!-- Node5&#45;&gt;Node32 -->
<g id="edge45_Node000005_Node000032" class="edge">
<title>Node5&#45;&gt;Node32</title>
<g id="a_edge45_Node000005_Node000032"><a xlink:title=" ">
<path fill="none" stroke="#63b8ff" d="M375.19,-390.76C361.84,-382.81 347.91,-372.49 338,-360 288.15,-297.13 270.01,-198.59 264.79,-162.16"/>
<polygon fill="#63b8ff" stroke="#63b8ff" points="373.85,-394.02 384.28,-395.88 377.29,-387.92 373.85,-394.02"/>
</a>
</g>
</g>
<!-- Node33 -->
<g id="Node000033" class="node">
<title>Node33</title>
<g id="a_Node000033"><a xlink:href="TranslateHandle_8h.html" target="_top" xlink:title=" ">
<polygon fill="white" stroke="#666666" points="138,-162 0,-162 0,-132 138,-132 138,-162"/>
<text text-anchor="start" x="8" y="-150" font-family="Helvetica,sans-Serif" font-size="10.00">src/graphics/components</text>
<text text-anchor="middle" x="69" y="-139" font-family="Helvetica,sans-Serif" font-size="10.00">/TranslateHandle.h</text>
</a>
</g>
</g>
<!-- Node5&#45;&gt;Node33 -->
<g id="edge49_Node000005_Node000033" class="edge">
<title>Node5&#45;&gt;Node33</title>
<g id="a_edge49_Node000005_Node000033"><a xlink:title=" ">
<path fill="none" stroke="#63b8ff" d="M373.64,-391.65C355.34,-383.02 334.03,-371.98 316,-360 219.51,-295.89 119.17,-198.51 83.01,-162.26"/>
<polygon fill="#63b8ff" stroke="#63b8ff" points="372.36,-394.92 382.91,-395.94 375.3,-388.57 372.36,-394.92"/>
</a>
</g>
</g>
<!-- Node7 -->
<g id="Node000007" class="node">
<title>Node7</title>
<g id="a_Node000007"><a xlink:href="Gizmo_8cpp.html" target="_top" xlink:title=" ">
<polygon fill="white" stroke="#666666" points="610,-30 472,-30 472,0 610,0 610,-30"/>
<text text-anchor="start" x="480" y="-18" font-family="Helvetica,sans-Serif" font-size="10.00">src/graphics/components</text>
<text text-anchor="middle" x="541" y="-7" font-family="Helvetica,sans-Serif" font-size="10.00">/Gizmo.cpp</text>
</a>
</g>
</g>
<!-- Node6&#45;&gt;Node7 -->
<g id="edge6_Node000006_Node000007" class="edge">
<title>Node6&#45;&gt;Node7</title>
<g id="a_edge6_Node000006_Node000007"><a xlink:title=" ">
<path fill="none" stroke="#63b8ff" d="M382.74,-324.8C333.9,-295.21 242.4,-234.26 185,-162 157.11,-126.89 124.4,-99.67 154,-66 174.6,-42.56 366.02,-26.96 471.7,-20.06"/>
<polygon fill="#63b8ff" stroke="#63b8ff" points="380.96,-327.82 391.34,-329.95 384.56,-321.81 380.96,-327.82"/>
</a>
</g>
</g>
<!-- Node8 -->
<g id="Node000008" class="node">
<title>Node8</title>
<g id="a_Node000008"><a xlink:href="Scene_8h.html" target="_top" xlink:title=" ">
<polygon fill="white" stroke="#666666" points="584,-288.5 444,-288.5 444,-269.5 584,-269.5 584,-288.5"/>
<text text-anchor="middle" x="514" y="-276.5" font-family="Helvetica,sans-Serif" font-size="10.00">src/graphics/core/Scene.h</text>
</a>
</g>
</g>
<!-- Node6&#45;&gt;Node8 -->
<g id="edge7_Node000006_Node000008" class="edge">
<title>Node6&#45;&gt;Node8</title>
<g id="a_edge7_Node000006_Node000008"><a xlink:title=" ">
<path fill="none" stroke="#63b8ff" d="M446.32,-324.2C464.56,-312.29 486.85,-297.73 500.74,-288.66"/>
<polygon fill="#63b8ff" stroke="#63b8ff" points="444.21,-321.4 437.75,-329.8 448.04,-327.26 444.21,-321.4"/>
</a>
</g>
</g>
<!-- Node31 -->
<g id="Node000031" class="node">
<title>Node31</title>
<g id="a_Node000031"><a xlink:href="OpenGLWindow_8cpp.html" target="_top" xlink:title=" ">
<polygon fill="white" stroke="#666666" points="542,-156.5 400,-156.5 400,-137.5 542,-137.5 542,-156.5"/>
<text text-anchor="middle" x="471" y="-144.5" font-family="Helvetica,sans-Serif" font-size="10.00">src/ui/OpenGLWindow.cpp</text>
</a>
</g>
</g>
<!-- Node6&#45;&gt;Node31 -->
<g id="edge44_Node000006_Node000031" class="edge">
<title>Node6&#45;&gt;Node31</title>
<g id="a_edge44_Node000006_Node000031"><a xlink:title=" ">
<path fill="none" stroke="#63b8ff" d="M421.32,-319.69C424.92,-303.78 429.92,-282.57 435,-264 446.07,-223.53 461.68,-175.88 468.09,-156.67"/>
<polygon fill="#63b8ff" stroke="#63b8ff" points="417.84,-319.24 419.08,-329.76 424.67,-320.77 417.84,-319.24"/>
</a>
</g>
</g>
<!-- Node9 -->
<g id="Node000009" class="node">
<title>Node9</title>
<g id="a_Node000009"><a xlink:href="Scene_8cpp.html" target="_top" xlink:title=" ">
<polygon fill="white" stroke="#666666" points="2658,-90.5 2506,-90.5 2506,-71.5 2658,-71.5 2658,-90.5"/>
<text text-anchor="middle" x="2582" y="-78.5" font-family="Helvetica,sans-Serif" font-size="10.00">src/graphics/core/Scene.cpp</text>
</a>
</g>
</g>
<!-- Node8&#45;&gt;Node9 -->
<g id="edge8_Node000008_Node000009" class="edge">
<title>Node8&#45;&gt;Node9</title>
<g id="a_edge8_Node000008_Node000009"><a xlink:title=" ">
<path fill="none" stroke="#63b8ff" d="M594.25,-271.72C705.6,-262.85 913.25,-245.74 1090,-228 1347.7,-202.13 1412.49,-197.85 1669,-162 1749.76,-150.71 1768.95,-140.94 1850,-132 2136.26,-100.41 2210.72,-127.45 2497,-96 2509.64,-94.61 2523.25,-92.6 2535.8,-90.54"/>
<polygon fill="#63b8ff" stroke="#63b8ff" points="593.79,-268.24 584.1,-272.53 594.35,-275.22 593.79,-268.24"/>
</a>
</g>
</g>
<!-- Node10 -->
<g id="Node000010" class="node">
<title>Node10</title>
<g id="a_Node000010"><a xlink:href="SceneManager_8h.html" target="_top" xlink:title=" ">
<polygon fill="white" stroke="#666666" points="1081,-222.5 899,-222.5 899,-203.5 1081,-203.5 1081,-222.5"/>
<text text-anchor="middle" x="990" y="-210.5" font-family="Helvetica,sans-Serif" font-size="10.00">src/graphics/core/SceneManager.h</text>
</a>
</g>
</g>
<!-- Node8&#45;&gt;Node10 -->
<g id="edge9_Node000008_Node000010" class="edge">
<title>Node8&#45;&gt;Node10</title>
<g id="a_edge9_Node000008_Node000010"><a xlink:title=" ">
<path fill="none" stroke="#63b8ff" d="M587.88,-268.07C680.85,-255.57 838.97,-234.31 926.68,-222.51"/>
<polygon fill="#63b8ff" stroke="#63b8ff" points="587.15,-264.63 577.7,-269.44 588.08,-271.57 587.15,-264.63"/>
</a>
</g>
</g>
<!-- Node12 -->
<g id="Node000012" class="node">
<title>Node12</title>
<g id="a_Node000012"><a xlink:href="SceneObject_8cpp.html" target="_top" xlink:title=" ">
<polygon fill="white" stroke="#666666" points="512.5,-90.5 329.5,-90.5 329.5,-71.5 512.5,-71.5 512.5,-90.5"/>
<text text-anchor="middle" x="421" y="-78.5" font-family="Helvetica,sans-Serif" font-size="10.00">src/graphics/core/SceneObject.cpp</text>
</a>
</g>
</g>
<!-- Node8&#45;&gt;Node12 -->
<g id="edge42_Node000008_Node000012" class="edge">
<title>Node8&#45;&gt;Node12</title>
<g id="a_edge42_Node000008_Node000012"><a xlink:title=" ">
<path fill="none" stroke="#63b8ff" d="M489.99,-264.06C460.27,-245.25 411.13,-208.65 391,-162 379.95,-136.4 401.31,-105.25 413.44,-90.52"/>
<polygon fill="#63b8ff" stroke="#63b8ff" points="488.18,-267.06 498.53,-269.32 491.85,-261.1 488.18,-267.06"/>
</a>
</g>
</g>
<!-- Node8&#45;&gt;Node31 -->
<g id="edge43_Node000008_Node000031" class="edge">
<title>Node8&#45;&gt;Node31</title>
<g id="a_edge43_Node000008_Node000031"><a xlink:title=" ">
<path fill="none" stroke="#63b8ff" d="M507.92,-259.61C498.52,-231.19 480.82,-177.69 473.89,-156.73"/>
<polygon fill="#63b8ff" stroke="#63b8ff" points="504.72,-261.08 511.18,-269.47 511.36,-258.88 504.72,-261.08"/>
</a>
</g>
</g>
<!-- Node10&#45;&gt;Node7 -->
<g id="edge10_Node000010_Node000007" class="edge">
<title>Node10&#45;&gt;Node7</title>
<g id="a_edge10_Node000010_Node000007"><a xlink:title=" ">
<path fill="none" stroke="#63b8ff" d="M888.46,-208.23C822.74,-202.95 736.43,-190.61 665,-162 643.37,-153.34 641.65,-144.53 622,-132 595.13,-114.87 579,-121.58 560,-96 545.44,-76.41 541.86,-47.29 541.08,-30.12"/>
<polygon fill="#63b8ff" stroke="#63b8ff" points="888.59,-211.75 898.82,-209.01 889.12,-204.77 888.59,-211.75"/>
</a>
</g>
</g>
<!-- Node11 -->
<g id="Node000011" class="node">
<title>Node11</title>
<g id="a_Node000011"><a xlink:href="SceneManager_8cpp.html" target="_top" xlink:title=" ">
<polygon fill="white" stroke="#666666" points="1400,-90.5 1206,-90.5 1206,-71.5 1400,-71.5 1400,-90.5"/>
<text text-anchor="middle" x="1303" y="-78.5" font-family="Helvetica,sans-Serif" font-size="10.00">src/graphics/core/SceneManager.cpp</text>
</a>
</g>
</g>
<!-- Node10&#45;&gt;Node11 -->
<g id="edge11_Node000010_Node000011" class="edge">
<title>Node10&#45;&gt;Node11</title>
<g id="a_edge11_Node000010_Node000011"><a xlink:title=" ">
<path fill="none" stroke="#63b8ff" d="M1012.3,-197.91C1046.65,-176.28 1109.72,-136.88 1121,-132 1166.26,-112.42 1221.21,-98.59 1258.81,-90.5"/>
<polygon fill="#63b8ff" stroke="#63b8ff" points="1010.43,-194.95 1003.84,-203.24 1014.17,-200.87 1010.43,-194.95"/>
</a>
</g>
</g>
<!-- Node10&#45;&gt;Node12 -->
<g id="edge12_Node000010_Node000012" class="edge">
<title>Node10&#45;&gt;Node12</title>
<g id="a_edge12_Node000010_Node000012"><a xlink:title=" ">
<path fill="none" stroke="#63b8ff" d="M888.7,-209.11C815.48,-204.35 715.23,-192.26 632,-162 608.36,-153.4 606.89,-142.44 584,-132 542.66,-113.14 492.3,-98.92 458.59,-90.56"/>
<polygon fill="#63b8ff" stroke="#63b8ff" points="888.65,-212.61 898.84,-209.73 889.08,-205.63 888.65,-212.61"/>
</a>
</g>
</g>
<!-- Node10&#45;&gt;Node13 -->
<g id="edge13_Node000010_Node000013" class="edge">
<title>Node10&#45;&gt;Node13</title>
<g id="a_edge13_Node000010_Node000013"><a xlink:title=" ">
<path fill="none" stroke="#63b8ff" d="M1077.91,-202.37C1191.57,-189.91 1387.74,-168.41 1496.22,-156.52"/>
<polygon fill="#63b8ff" stroke="#63b8ff" points="1077.41,-198.9 1067.85,-203.47 1078.17,-205.86 1077.41,-198.9"/>
</a>
</g>
</g>
<!-- Node24 -->
<g id="Node000024" class="node">
<title>Node24</title>
<g id="a_Node000024"><a xlink:href="GlobalsInspectorWidget_8cpp.html" target="_top" xlink:title=" ">
<polygon fill="white" stroke="#666666" points="1030.5,-96 899.5,-96 899.5,-66 1030.5,-66 1030.5,-96"/>
<text text-anchor="start" x="907.5" y="-84" font-family="Helvetica,sans-Serif" font-size="10.00">src/ui/inspector/Globals</text>
<text text-anchor="middle" x="965" y="-73" font-family="Helvetica,sans-Serif" font-size="10.00">InspectorWidget.cpp</text>
</a>
</g>
</g>
<!-- Node10&#45;&gt;Node24 -->
<g id="edge40_Node000010_Node000024" class="edge">
<title>Node10&#45;&gt;Node24</title>
<g id="a_edge40_Node000010_Node000024"><a xlink:title=" ">
<path fill="none" stroke="#63b8ff" d="M986.41,-193.32C981.35,-167 972.23,-119.61 967.71,-96.07"/>
<polygon fill="#63b8ff" stroke="#63b8ff" points="983.03,-194.31 988.36,-203.47 989.91,-192.99 983.03,-194.31"/>
</a>
</g>
</g>
<!-- Node25 -->
<g id="Node000025" class="node">
<title>Node25</title>
<g id="a_Node000025"><a xlink:href="InspectorWidget_8cpp.html" target="_top" xlink:title=" ">
<polygon fill="white" stroke="#666666" points="1187.5,-96 1048.5,-96 1048.5,-66 1187.5,-66 1187.5,-96"/>
<text text-anchor="start" x="1056.5" y="-84" font-family="Helvetica,sans-Serif" font-size="10.00">src/ui/inspector/Inspector</text>
<text text-anchor="middle" x="1118" y="-73" font-family="Helvetica,sans-Serif" font-size="10.00">Widget.cpp</text>
</a>
</g>
</g>
<!-- Node10&#45;&gt;Node25 -->
<g id="edge41_Node000010_Node000025" class="edge">
<title>Node10&#45;&gt;Node25</title>
<g id="a_edge41_Node000010_Node000025"><a xlink:title=" ">
<path fill="none" stroke="#63b8ff" d="M1005.69,-196.07C1030.92,-170.44 1080.13,-120.46 1104.15,-96.07"/>
<polygon fill="#63b8ff" stroke="#63b8ff" points="1002.92,-193.89 998.4,-203.47 1007.91,-198.8 1002.92,-193.89"/>
</a>
</g>
</g>
<!-- Node28 -->
<g id="Node000028" class="node">
<title>Node28</title>
<g id="a_Node000028"><a xlink:href="SceneSerializer_8h.html" target="_top" xlink:title=" ">
<polygon fill="white" stroke="#666666" points="1315.5,-156.5 1130.5,-156.5 1130.5,-137.5 1315.5,-137.5 1315.5,-156.5"/>
<text text-anchor="middle" x="1223" y="-144.5" font-family="Helvetica,sans-Serif" font-size="10.00">src/graphics/core/SceneSerializer.h</text>
</a>
</g>
</g>
<!-- Node10&#45;&gt;Node28 -->
<g id="edge33_Node000010_Node000028" class="edge">
<title>Node10&#45;&gt;Node28</title>
<g id="a_edge33_Node000010_Node000028"><a xlink:title=" ">
<path fill="none" stroke="#63b8ff" d="M1031.35,-200.64C1077.25,-188.03 1150.31,-167.97 1191.7,-156.6"/>
<polygon fill="#63b8ff" stroke="#63b8ff" points="1030.14,-197.34 1021.42,-203.37 1031.99,-204.09 1030.14,-197.34"/>
</a>
</g>
</g>
<!-- Node29 -->
<g id="Node000029" class="node">
<title>Node29</title>
<g id="a_Node000029"><a xlink:href="MainWindow_8h.html" target="_top" xlink:title=" ">
<polygon fill="white" stroke="#666666" points="791.5,-156.5 674.5,-156.5 674.5,-137.5 791.5,-137.5 791.5,-156.5"/>
<text text-anchor="middle" x="733" y="-144.5" font-family="Helvetica,sans-Serif" font-size="10.00">src/ui/MainWindow.h</text>
</a>
</g>
</g>
<!-- Node10&#45;&gt;Node29 -->
<g id="edge36_Node000010_Node000029" class="edge">
<title>Node10&#45;&gt;Node29</title>
<g id="a_edge36_Node000010_Node000029"><a xlink:title=" ">
<path fill="none" stroke="#63b8ff" d="M945.6,-200.94C894.93,-188.32 813.15,-167.96 767.19,-156.51"/>
<polygon fill="#63b8ff" stroke="#63b8ff" points="945.06,-204.41 955.61,-203.44 946.75,-197.62 945.06,-204.41"/>
</a>
</g>
</g>
<!-- Node10&#45;&gt;Node31 -->
<g id="edge39_Node000010_Node000031" class="edge">
<title>Node10&#45;&gt;Node31</title>
<g id="a_edge39_Node000010_Node000031"><a xlink:title=" ">
<path fill="none" stroke="#63b8ff" d="M910.65,-202.21C809.46,-189.74 636.14,-168.36 540.12,-156.52"/>
<polygon fill="#63b8ff" stroke="#63b8ff" points="910.46,-205.72 920.81,-203.47 911.32,-198.77 910.46,-205.72"/>
</a>
</g>
</g>
<!-- Node13&#45;&gt;Node7 -->
<g id="edge14_Node000013_Node000007" class="edge">
<title>Node13&#45;&gt;Node7</title>
<g id="a_edge14_Node000013_Node000007"><a xlink:title=" ">
<path fill="none" stroke="#63b8ff" d="M1594.5,-131.11C1615.62,-114.05 1642.97,-85.87 1624,-66 1588.94,-29.29 843.76,-18.94 610.3,-16.6"/>
<polygon fill="#63b8ff" stroke="#63b8ff" points="1592.3,-128.39 1586.54,-137.28 1596.59,-133.92 1592.3,-128.39"/>
</a>
</g>
</g>
<!-- Node13&#45;&gt;Node9 -->
<g id="edge21_Node000013_Node000009" class="edge">
<title>Node13&#45;&gt;Node9</title>
<g id="a_edge21_Node000013_Node000009"><a xlink:title=" ">
<path fill="none" stroke="#63b8ff" d="M1637.81,-136.14C1649.81,-134.55 1662.27,-133.08 1674,-132 2038.6,-98.58 2132.83,-133.82 2497,-96 2509.79,-94.67 2523.58,-92.66 2536.26,-90.56"/>
<polygon fill="#63b8ff" stroke="#63b8ff" points="1637.3,-132.68 1627.86,-137.5 1638.25,-139.61 1637.3,-132.68"/>
</a>
</g>
</g>
<!-- Node13&#45;&gt;Node11 -->
<g id="edge22_Node000013_Node000011" class="edge">
<title>Node13&#45;&gt;Node11</title>
<g id="a_edge22_Node000013_Node000011"><a xlink:title=" ">
<path fill="none" stroke="#63b8ff" d="M1527.85,-135.1C1474.47,-122.49 1387.72,-102.01 1339.05,-90.51"/>
<polygon fill="#63b8ff" stroke="#63b8ff" points="1527.2,-138.54 1537.73,-137.44 1528.81,-131.73 1527.2,-138.54"/>
</a>
</g>
</g>
<!-- Node13&#45;&gt;Node12 -->
<g id="edge23_Node000013_Node000012" class="edge">
<title>Node13&#45;&gt;Node12</title>
<g id="a_edge23_Node000013_Node000012"><a xlink:title=" ">
<path fill="none" stroke="#63b8ff" d="M1477.76,-140.41C1431.3,-137.76 1374.76,-134.62 1324,-132 984.52,-114.5 899.01,-121.04 560,-96 539.92,-94.52 518.25,-92.52 498.14,-90.51"/>
<polygon fill="#63b8ff" stroke="#63b8ff" points="1477.63,-143.91 1487.81,-140.98 1478.03,-136.92 1477.63,-143.91"/>
</a>
</g>
</g>
<!-- Node14 -->
<g id="Node000014" class="node">
<title>Node14</title>
<g id="a_Node000014"><a xlink:href="RotateHandle_8cpp.html" target="_top" xlink:title=" ">
<polygon fill="white" stroke="#666666" points="843,-96 705,-96 705,-66 843,-66 843,-96"/>
<text text-anchor="start" x="713" y="-84" font-family="Helvetica,sans-Serif" font-size="10.00">src/graphics/components</text>
<text text-anchor="middle" x="774" y="-73" font-family="Helvetica,sans-Serif" font-size="10.00">/RotateHandle.cpp</text>
</a>
</g>
</g>
<!-- Node13&#45;&gt;Node14 -->
<g id="edge15_Node000013_Node000014" class="edge">
<title>Node13&#45;&gt;Node14</title>
<g id="a_edge15_Node000013_Node000014"><a xlink:title=" ">
<path fill="none" stroke="#63b8ff" d="M1477.65,-140.39C1345.13,-132.35 1099.21,-116.26 890,-96 874.86,-94.53 858.63,-92.72 843.26,-90.9"/>
<polygon fill="#63b8ff" stroke="#63b8ff" points="1477.58,-143.9 1487.78,-141.01 1478.01,-136.91 1477.58,-143.9"/>
</a>
</g>
</g>
<!-- Node13&#45;&gt;Node15 -->
<g id="edge16_Node000013_Node000015" class="edge">
<title>Node13&#45;&gt;Node15</title>
<g id="a_edge16_Node000013_Node000015"><a xlink:title=" ">
<path fill="none" stroke="#63b8ff" d="M1670.15,-143.23C1899.79,-136.35 2475.3,-117.49 2667,-96 2669.87,-95.68 2672.8,-95.31 2675.75,-94.92"/>
<polygon fill="#63b8ff" stroke="#63b8ff" points="1670.03,-139.73 1660.14,-143.53 1670.24,-146.73 1670.03,-139.73"/>
</a>
</g>
</g>
<!-- Node17 -->
<g id="Node000017" class="node">
<title>Node17</title>
<g id="a_Node000017"><a xlink:href="TranslateHandle_8cpp.html" target="_top" xlink:title=" ">
<polygon fill="white" stroke="#666666" points="311,-96 173,-96 173,-66 311,-66 311,-96"/>
<text text-anchor="start" x="181" y="-84" font-family="Helvetica,sans-Serif" font-size="10.00">src/graphics/components</text>
<text text-anchor="middle" x="242" y="-73" font-family="Helvetica,sans-Serif" font-size="10.00">/TranslateHandle.cpp</text>
</a>
</g>
</g>
<!-- Node13&#45;&gt;Node17 -->
<g id="edge19_Node000013_Node000017" class="edge">
<title>Node13&#45;&gt;Node17</title>
<g id="a_edge19_Node000013_Node000017"><a xlink:title=" ">
<path fill="none" stroke="#63b8ff" d="M1477.77,-140.16C1431.32,-137.45 1374.77,-134.33 1324,-132 877.96,-111.52 763.97,-143.56 320,-96 317.13,-95.69 314.2,-95.34 311.25,-94.95"/>
<polygon fill="#63b8ff" stroke="#63b8ff" points="1477.64,-143.66 1487.82,-140.75 1478.05,-136.67 1477.64,-143.66"/>
</a>
</g>
</g>
<!-- Node18 -->
<g id="Node000018" class="node">
<title>Node18</title>
<g id="a_Node000018"><a xlink:href="Camera_8cpp.html" target="_top" xlink:title=" ">
<polygon fill="white" stroke="#666666" points="2143.5,-90.5 1982.5,-90.5 1982.5,-71.5 2143.5,-71.5 2143.5,-90.5"/>
<text text-anchor="middle" x="2063" y="-78.5" font-family="Helvetica,sans-Serif" font-size="10.00">src/graphics/core/Camera.cpp</text>
</a>
</g>
</g>
<!-- Node13&#45;&gt;Node18 -->
<g id="edge20_Node000013_Node000018" class="edge">
<title>Node13&#45;&gt;Node18</title>
<g id="a_edge20_Node000013_Node000018"><a xlink:title=" ">
<path fill="none" stroke="#63b8ff" d="M1643.58,-136.08C1653.77,-134.68 1664.16,-133.28 1674,-132 1806.73,-114.72 1840.41,-114.29 1973,-96 1985.06,-94.34 1998.01,-92.41 2010.22,-90.52"/>
<polygon fill="#63b8ff" stroke="#63b8ff" points="1642.89,-132.65 1633.46,-137.48 1643.85,-139.58 1642.89,-132.65"/>
</a>
</g>
</g>
<!-- Node19 -->
<g id="Node000019" class="node">
<title>Node19</title>
<g id="a_Node000019"><a xlink:href="SceneSerializer_8cpp.html" target="_top" xlink:title=" ">
<polygon fill="white" stroke="#666666" points="1615.5,-90.5 1418.5,-90.5 1418.5,-71.5 1615.5,-71.5 1615.5,-90.5"/>
<text text-anchor="middle" x="1517" y="-78.5" font-family="Helvetica,sans-Serif" font-size="10.00">src/graphics/core/SceneSerializer.cpp</text>
</a>
</g>
</g>
<!-- Node13&#45;&gt;Node19 -->
<g id="edge24_Node000013_Node000019" class="edge">
<title>Node13&#45;&gt;Node19</title>
<g id="a_edge24_Node000013_Node000019"><a xlink:title=" ">
<path fill="none" stroke="#63b8ff" d="M1559.41,-129.62C1548.44,-117.31 1533.83,-100.89 1524.93,-90.91"/>
<polygon fill="#63b8ff" stroke="#63b8ff" points="1557.05,-132.23 1566.31,-137.37 1562.28,-127.57 1557.05,-132.23"/>
</a>
</g>
</g>
<!-- Node20 -->
<g id="Node000020" class="node">
<title>Node20</title>
<g id="a_Node000020"><a xlink:href="HierarchyWidget_8h.html" target="_top" xlink:title=" ">
<polygon fill="white" stroke="#666666" points="2487.5,-90.5 2350.5,-90.5 2350.5,-71.5 2487.5,-71.5 2487.5,-90.5"/>
<text text-anchor="middle" x="2419" y="-78.5" font-family="Helvetica,sans-Serif" font-size="10.00">src/ui/HierarchyWidget.h</text>
</a>
</g>
</g>
<!-- Node13&#45;&gt;Node20 -->
<g id="edge25_Node000013_Node000020" class="edge">
<title>Node13&#45;&gt;Node20</title>
<g id="a_edge25_Node000013_Node000020"><a xlink:title=" ">
<path fill="none" stroke="#63b8ff" d="M1638.8,-136.11C1650.5,-134.56 1662.6,-133.1 1674,-132 1969.49,-103.39 2046.11,-130.29 2341,-96 2352.75,-94.63 2365.41,-92.61 2377.04,-90.51"/>
<polygon fill="#63b8ff" stroke="#63b8ff" points="1638.09,-132.67 1628.66,-137.49 1639.04,-139.61 1638.09,-132.67"/>
</a>
</g>
</g>
<!-- Node23 -->
<g id="Node000023" class="node">
<title>Node23</title>
<g id="a_Node000023"><a xlink:href="ForcesInspectorWidget_8cpp.html" target="_top" xlink:title=" ">
<polygon fill="white" stroke="#666666" points="2332,-96 2162,-96 2162,-66 2332,-66 2332,-96"/>
<text text-anchor="start" x="2170" y="-84" font-family="Helvetica,sans-Serif" font-size="10.00">src/ui/inspector/ForcesInspector</text>
<text text-anchor="middle" x="2247" y="-73" font-family="Helvetica,sans-Serif" font-size="10.00">Widget.cpp</text>
</a>
</g>
</g>
<!-- Node13&#45;&gt;Node23 -->
<g id="edge28_Node000013_Node000023" class="edge">
<title>Node13&#45;&gt;Node23</title>
<g id="a_edge28_Node000013_Node000023"><a xlink:title=" ">
<path fill="none" stroke="#63b8ff" d="M1640.41,-136.1C1651.61,-134.6 1663.12,-133.17 1674,-132 1886.27,-109.19 1940.83,-119.74 2153,-96 2155.95,-95.67 2158.95,-95.32 2161.98,-94.95"/>
<polygon fill="#63b8ff" stroke="#63b8ff" points="1639.68,-132.66 1630.25,-137.48 1640.63,-139.6 1639.68,-132.66"/>
</a>
</g>
</g>
<!-- Node13&#45;&gt;Node24 -->
<g id="edge29_Node000013_Node000024" class="edge">
<title>Node13&#45;&gt;Node24</title>
<g id="a_edge29_Node000013_Node000024"><a xlink:title=" ">
<path fill="none" stroke="#63b8ff" d="M1477.37,-139.71C1369.98,-132.08 1191.57,-117.51 1039,-96 1036.28,-95.62 1033.51,-95.2 1030.71,-94.76"/>
<polygon fill="#63b8ff" stroke="#63b8ff" points="1477.31,-143.21 1487.54,-140.43 1477.81,-136.23 1477.31,-143.21"/>
</a>
</g>
</g>
<!-- Node13&#45;&gt;Node25 -->
<g id="edge30_Node000013_Node000025" class="edge">
<title>Node13&#45;&gt;Node25</title>
<g id="a_edge30_Node000013_Node000025"><a xlink:title=" ">
<path fill="none" stroke="#63b8ff" d="M1492.6,-136.24C1416.15,-126.83 1298.63,-111.74 1197,-96 1193.97,-95.53 1190.88,-95.04 1187.76,-94.53"/>
<polygon fill="#63b8ff" stroke="#63b8ff" points="1492.29,-139.73 1502.65,-137.48 1493.15,-132.78 1492.29,-139.73"/>
</a>
</g>
</g>
<!-- Node26 -->
<g id="Node000026" class="node">
<title>Node26</title>
<g id="a_Node000026"><a xlink:href="PhysicsInspectorWidget_8cpp.html" target="_top" xlink:title=" ">
<polygon fill="white" stroke="#666666" points="1803.5,-96 1672.5,-96 1672.5,-66 1803.5,-66 1803.5,-96"/>
<text text-anchor="start" x="1680.5" y="-84" font-family="Helvetica,sans-Serif" font-size="10.00">src/ui/inspector/Physics</text>
<text text-anchor="middle" x="1738" y="-73" font-family="Helvetica,sans-Serif" font-size="10.00">InspectorWidget.cpp</text>
</a>
</g>
</g>
<!-- Node13&#45;&gt;Node26 -->
<g id="edge31_Node000013_Node000026" class="edge">
<title>Node13&#45;&gt;Node26</title>
<g id="a_edge31_Node000013_Node000026"><a xlink:title=" ">
<path fill="none" stroke="#63b8ff" d="M1605.66,-133.65C1633.18,-122.9 1673.05,-107.35 1701.83,-96.12"/>
<polygon fill="#63b8ff" stroke="#63b8ff" points="1604.16,-130.47 1596.12,-137.37 1606.71,-136.99 1604.16,-130.47"/>
</a>
</g>
</g>
<!-- Node27 -->
<g id="Node000027" class="node">
<title>Node27</title>
<g id="a_Node000027"><a xlink:href="TransformInspectorWidget_8cpp.html" target="_top" xlink:title=" ">
<polygon fill="white" stroke="#666666" points="1964.5,-96 1821.5,-96 1821.5,-66 1964.5,-66 1964.5,-96"/>
<text text-anchor="start" x="1829.5" y="-84" font-family="Helvetica,sans-Serif" font-size="10.00">src/ui/inspector/Transform</text>
<text text-anchor="middle" x="1893" y="-73" font-family="Helvetica,sans-Serif" font-size="10.00">InspectorWidget.cpp</text>
</a>
</g>
</g>
<!-- Node13&#45;&gt;Node27 -->
<g id="edge32_Node000013_Node000027" class="edge">
<title>Node13&#45;&gt;Node27</title>
<g id="a_edge32_Node000013_Node000027"><a xlink:title=" ">
<path fill="none" stroke="#63b8ff" d="M1626.68,-135.43C1680.36,-124.66 1763.91,-107.9 1823.1,-96.02"/>
<polygon fill="#63b8ff" stroke="#63b8ff" points="1625.81,-132.04 1616.69,-137.44 1627.18,-138.9 1625.81,-132.04"/>
</a>
</g>
</g>
<!-- Node15&#45;&gt;Node7 -->
<g id="edge17_Node000015_Node000007" class="edge">
<title>Node15&#45;&gt;Node7</title>
<g id="a_edge17_Node000015_Node000007"><a xlink:title=" ">
<path fill="none" stroke="#63b8ff" d="M2665.77,-66.07C2416.39,-44.35 947.47,-21.91 610.05,-16.99"/>
<polygon fill="#63b8ff" stroke="#63b8ff" points="2665.47,-69.55 2675.76,-67 2666.13,-62.58 2665.47,-69.55"/>
</a>
</g>
</g>
<!-- Node16 -->
<g id="Node000016" class="node">
<title>Node16</title>
<g id="a_Node000016"><a xlink:href="ScaleHandle_8cpp.html" target="_top" xlink:title=" ">
<polygon fill="white" stroke="#666666" points="2862,-30 2724,-30 2724,0 2862,0 2862,-30"/>
<text text-anchor="start" x="2732" y="-18" font-family="Helvetica,sans-Serif" font-size="10.00">src/graphics/components</text>
<text text-anchor="middle" x="2793" y="-7" font-family="Helvetica,sans-Serif" font-size="10.00">/ScaleHandle.cpp</text>
</a>
</g>
</g>
<!-- Node15&#45;&gt;Node16 -->
<g id="edge18_Node000015_Node000016" class="edge">
<title>Node15&#45;&gt;Node16</title>
<g id="a_edge18_Node000015_Node000016"><a xlink:title=" ">
<path fill="none" stroke="#63b8ff" d="M2761.86,-57.53C2768.68,-48.43 2776.35,-38.19 2782.38,-30.16"/>
<polygon fill="#63b8ff" stroke="#63b8ff" points="2758.85,-55.7 2755.65,-65.8 2764.45,-59.9 2758.85,-55.7"/>
</a>
</g>
</g>
<!-- Node21 -->
<g id="Node000021" class="node">
<title>Node21</title>
<g id="a_Node000021"><a xlink:href="HierarchyWidget_8cpp.html" target="_top" xlink:title=" ">
<polygon fill="white" stroke="#666666" points="2493,-24.5 2345,-24.5 2345,-5.5 2493,-5.5 2493,-24.5"/>
<text text-anchor="middle" x="2419" y="-12.5" font-family="Helvetica,sans-Serif" font-size="10.00">src/ui/HierarchyWidget.cpp</text>
</a>
</g>
</g>
<!-- Node20&#45;&gt;Node21 -->
<g id="edge26_Node000020_Node000021" class="edge">
<title>Node20&#45;&gt;Node21</title>
<g id="a_edge26_Node000020_Node000021"><a xlink:title=" ">
<path fill="none" stroke="#63b8ff" d="M2419,-61.08C2419,-49.13 2419,-34.22 2419,-24.91"/>
<polygon fill="#63b8ff" stroke="#63b8ff" points="2415.5,-61.37 2419,-71.37 2422.5,-61.37 2415.5,-61.37"/>
</a>
</g>
</g>
<!-- Node22 -->
<g id="Node000022" class="node">
<title>Node22</title>
<g id="a_Node000022"><a xlink:href="MainWindow_8cpp.html" target="_top" xlink:title=" ">
<polygon fill="white" stroke="#666666" points="1542,-24.5 1414,-24.5 1414,-5.5 1542,-5.5 1542,-24.5"/>
<text text-anchor="middle" x="1478" y="-12.5" font-family="Helvetica,sans-Serif" font-size="10.00">src/ui/MainWindow.cpp</text>
</a>
</g>
</g>
<!-- Node20&#45;&gt;Node22 -->
<g id="edge27_Node000020_Node000022" class="edge">
<title>Node20&#45;&gt;Node22</title>
<g id="a_edge27_Node000020_Node000022"><a xlink:title=" ">
<path fill="none" stroke="#63b8ff" d="M2366.72,-69.73C2358.15,-68.3 2349.35,-66.99 2341,-66 2043.67,-30.83 1685.65,-20.11 1542.11,-17.09"/>
<polygon fill="#63b8ff" stroke="#63b8ff" points="2366.18,-73.19 2376.63,-71.44 2367.38,-66.29 2366.18,-73.19"/>
</a>
</g>
</g>
<!-- Node28&#45;&gt;Node11 -->
<g id="edge34_Node000028_Node000011" class="edge">
<title>Node28&#45;&gt;Node11</title>
<g id="a_edge34_Node000028_Node000011"><a xlink:title=" ">
<path fill="none" stroke="#63b8ff" d="M1241.77,-130.99C1257.43,-118.46 1279.2,-101.04 1292.13,-90.7"/>
<polygon fill="#63b8ff" stroke="#63b8ff" points="1239.41,-128.39 1233.79,-137.37 1243.78,-133.85 1239.41,-128.39"/>
</a>
</g>
</g>
<!-- Node28&#45;&gt;Node19 -->
<g id="edge35_Node000028_Node000019" class="edge">
<title>Node28&#45;&gt;Node19</title>
<g id="a_edge35_Node000028_Node000019"><a xlink:title=" ">
<path fill="none" stroke="#63b8ff" d="M1272.35,-135.26C1330.19,-122.67 1424.87,-102.06 1477.89,-90.51"/>
<polygon fill="#63b8ff" stroke="#63b8ff" points="1271.37,-131.89 1262.35,-137.44 1272.86,-138.73 1271.37,-131.89"/>
</a>
</g>
</g>
<!-- Node29&#45;&gt;Node22 -->
<g id="edge38_Node000029_Node000022" class="edge">
<title>Node29&#45;&gt;Node22</title>
<g id="a_edge38_Node000029_Node000022"><a xlink:title=" ">
<path fill="none" stroke="#63b8ff" d="M715.94,-130.04C699.25,-112.54 678.66,-84.49 696,-66 720.43,-39.96 1231,-22.99 1413.69,-17.74"/>
<polygon fill="#63b8ff" stroke="#63b8ff" points="713.64,-132.69 723.19,-137.27 718.58,-127.73 713.64,-132.69"/>
</a>
</g>
</g>
<!-- Node30 -->
<g id="Node000030" class="node">
<title>Node30</title>
<g id="a_Node000030"><a xlink:href="main_8cpp.html" target="_top" xlink:title=" ">
<polygon fill="white" stroke="#666666" points="648.5,-90.5 569.5,-90.5 569.5,-71.5 648.5,-71.5 648.5,-90.5"/>
<text text-anchor="middle" x="609" y="-78.5" font-family="Helvetica,sans-Serif" font-size="10.00">src/main.cpp</text>
</a>
</g>
</g>
<!-- Node29&#45;&gt;Node30 -->
<g id="edge37_Node000029_Node000030" class="edge">
<title>Node29&#45;&gt;Node30</title>
<g id="a_edge37_Node000029_Node000030"><a xlink:title=" ">
<path fill="none" stroke="#63b8ff" d="M707.22,-132.69C682.79,-120.09 646.81,-101.51 625.85,-90.7"/>
<polygon fill="#63b8ff" stroke="#63b8ff" points="705.79,-135.89 716.28,-137.37 709,-129.67 705.79,-135.89"/>
</a>
</g>
</g>
<!-- Node32&#45;&gt;Node7 -->
<g id="edge46_Node000032_Node000007" class="edge">
<title>Node32&#45;&gt;Node7</title>
<g id="a_edge46_Node000032_Node000007"><a xlink:title=" ">
<path fill="none" stroke="#63b8ff" d="M212.27,-127.9C178.05,-112.95 142.7,-90.31 164,-66 183.93,-43.25 368.5,-27.45 471.8,-20.31"/>
<polygon fill="#63b8ff" stroke="#63b8ff" points="211.27,-131.27 221.85,-131.91 213.97,-124.82 211.27,-131.27"/>
</a>
</g>
</g>
<!-- Node32&#45;&gt;Node14 -->
<g id="edge47_Node000032_Node000014" class="edge">
<title>Node32&#45;&gt;Node14</title>
<g id="a_edge47_Node000032_Node000014"><a xlink:title=" ">
<path fill="none" stroke="#63b8ff" d="M342.16,-136.09C441.47,-123.65 610.15,-102.52 704.62,-90.69"/>
<polygon fill="#63b8ff" stroke="#63b8ff" points="341.67,-132.62 332.18,-137.34 342.54,-139.57 341.67,-132.62"/>
</a>
</g>
</g>
<!-- Node33&#45;&gt;Node7 -->
<g id="edge50_Node000033_Node000007" class="edge">
<title>Node33&#45;&gt;Node7</title>
<g id="a_edge50_Node000033_Node000007"><a xlink:title=" ">
<path fill="none" stroke="#63b8ff" d="M69.5,-121.75C71.25,-103.54 76.79,-79.52 93,-66 121.47,-42.25 353.27,-26.26 471.78,-19.56"/>
<polygon fill="#63b8ff" stroke="#63b8ff" points="65.99,-121.72 68.84,-131.92 72.97,-122.17 65.99,-121.72"/>
</a>
</g>
</g>
<!-- Node33&#45;&gt;Node17 -->
<g id="edge51_Node000033_Node000017" class="edge">
<title>Node33&#45;&gt;Node17</title>
<g id="a_edge51_Node000033_Node000017"><a xlink:title=" ">
<path fill="none" stroke="#63b8ff" d="M116.42,-128.46C144.02,-118.25 178.34,-105.55 204.12,-96.01"/>
<polygon fill="#63b8ff" stroke="#63b8ff" points="115.13,-125.2 106.97,-131.95 117.56,-131.77 115.13,-125.2"/>
</a>
</g>
</g>
<!-- Node34&#45;&gt;Node7 -->
<g id="edge54_Node000034_Node000007" class="edge">
<title>Node34&#45;&gt;Node7</title>
<g id="a_edge54_Node000034_Node000007"><a xlink:title=" ">
<path fill="none" stroke="#63b8ff" d="M1258.84,-273.91C1135.43,-267.14 917,-251.93 890,-228 834.65,-178.95 906.12,-116.4 852,-66 817.84,-34.18 690.89,-22.56 610.13,-18.35"/>
<polygon fill="#63b8ff" stroke="#63b8ff" points="1258.84,-277.41 1269.02,-274.46 1259.22,-270.42 1258.84,-277.41"/>
</a>
</g>
</g>
<!-- Node34&#45;&gt;Node9 -->
<g id="edge58_Node000034_Node000009" class="edge">
<title>Node34&#45;&gt;Node9</title>
<g id="a_edge58_Node000034_Node000009"><a xlink:title=" ">
<path fill="none" stroke="#63b8ff" d="M1406.71,-261.5C1527.42,-230.89 1798.16,-165.42 2030,-132 2236.04,-102.3 2290.33,-120.94 2497,-96 2509.32,-94.51 2522.59,-92.52 2534.9,-90.5"/>
<polygon fill="#63b8ff" stroke="#63b8ff" points="1405.72,-258.14 1396.89,-264 1407.44,-264.92 1405.72,-258.14"/>
</a>
</g>
</g>
<!-- Node34&#45;&gt;Node10 -->
<g id="edge60_Node000034_Node000010" class="edge">
<title>Node34&#45;&gt;Node10</title>
<g id="a_edge60_Node000034_Node000010"><a xlink:title=" ">
<path fill="none" stroke="#63b8ff" d="M1259.39,-262.84C1189.95,-250.25 1093.7,-232.8 1037.03,-222.53"/>
<polygon fill="#63b8ff" stroke="#63b8ff" points="1258.97,-266.32 1269.43,-264.66 1260.21,-259.43 1258.97,-266.32"/>
</a>
</g>
</g>
<!-- Node34&#45;&gt;Node11 -->
<g id="edge59_Node000034_Node000011" class="edge">
<title>Node34&#45;&gt;Node11</title>
<g id="a_edge59_Node000034_Node000011"><a xlink:title=" ">
<path fill="none" stroke="#63b8ff" d="M1341.82,-253.51C1339.95,-224.19 1335.28,-173.8 1324,-132 1319.93,-116.91 1312.31,-100.37 1307.45,-90.6"/>
<polygon fill="#63b8ff" stroke="#63b8ff" points="1338.33,-253.88 1342.41,-263.66 1345.32,-253.47 1338.33,-253.88"/>
</a>
</g>
</g>
<!-- Node34&#45;&gt;Node12 -->
<g id="edge61_Node000034_Node000012" class="edge">
<title>Node34&#45;&gt;Node12</title>
<g id="a_edge61_Node000034_Node000012"><a xlink:title=" ">
<path fill="none" stroke="#63b8ff" d="M1259.15,-273.84C1157.97,-267.88 983,-254.57 835,-228 721.47,-207.62 685.37,-217.04 584,-162 566.58,-152.54 567.87,-142.4 551,-132 519.71,-112.71 479.75,-98.7 452.44,-90.5"/>
<polygon fill="#63b8ff" stroke="#63b8ff" points="1259.12,-277.34 1269.31,-274.43 1259.53,-270.36 1259.12,-277.34"/>
</a>
</g>
</g>
<!-- Node34&#45;&gt;Node14 -->
<g id="edge55_Node000034_Node000014" class="edge">
<title>Node34&#45;&gt;Node14</title>
<g id="a_edge55_Node000034_Node000014"><a xlink:title=" ">
<path fill="none" stroke="#63b8ff" d="M1258.8,-278.44C1137.56,-277.57 921.28,-269.95 857,-228 850.71,-223.9 800.8,-131.86 781.54,-96.06"/>
<polygon fill="#63b8ff" stroke="#63b8ff" points="1259.14,-281.94 1269.16,-278.5 1259.18,-274.94 1259.14,-281.94"/>
</a>
</g>
</g>
<!-- Node34&#45;&gt;Node16 -->
<g id="edge56_Node000034_Node000016" class="edge">
<title>Node34&#45;&gt;Node16</title>
<g id="a_edge56_Node000034_Node000016"><a xlink:title=" ">
<path fill="none" stroke="#63b8ff" d="M1426.63,-272.09C1537.37,-263.92 1738.66,-247.92 1910,-228 2317.25,-180.64 2554.63,-405.96 2823,-96 2839.6,-76.82 2820.64,-47.57 2806.22,-30.26"/>
<polygon fill="#63b8ff" stroke="#63b8ff" points="1426.25,-268.61 1416.53,-272.83 1426.76,-275.59 1426.25,-268.61"/>
</a>
</g>
</g>
<!-- Node34&#45;&gt;Node19 -->
<g id="edge62_Node000034_Node000019" class="edge">
<title>Node34&#45;&gt;Node19</title>
<g id="a_edge62_Node000034_Node000019"><a xlink:title=" ">
<path fill="none" stroke="#63b8ff" d="M1362.27,-256.29C1400.3,-213.46 1483.51,-119.73 1509.25,-90.73"/>
<polygon fill="#63b8ff" stroke="#63b8ff" points="1359.54,-254.1 1355.51,-263.9 1364.77,-258.75 1359.54,-254.1"/>
</a>
</g>
</g>
<!-- Node34&#45;&gt;Node31 -->
<g id="edge63_Node000034_Node000031" class="edge">
<title>Node34&#45;&gt;Node31</title>
<g id="a_edge63_Node000034_Node000031"><a xlink:title=" ">
<path fill="none" stroke="#63b8ff" d="M1259.21,-275.88C1069.61,-270.63 619.21,-255.42 556,-228 519.56,-212.19 489.09,-173.7 476.81,-156.52"/>
<polygon fill="#63b8ff" stroke="#63b8ff" points="1259.31,-279.39 1269.41,-276.16 1259.51,-272.39 1259.31,-279.39"/>
</a>
</g>
</g>
<!-- Node35 -->
<g id="Node000035" class="node">
<title>Node35</title>
<g id="a_Node000035"><a xlink:href="ResourceManager_8cpp.html" target="_top" xlink:title=" ">
<polygon fill="white" stroke="#666666" points="1901.5,-228 1754.5,-228 1754.5,-198 1901.5,-198 1901.5,-228"/>
<text text-anchor="start" x="1762.5" y="-216" font-family="Helvetica,sans-Serif" font-size="10.00">src/graphics/core/Resource</text>
<text text-anchor="middle" x="1828" y="-205" font-family="Helvetica,sans-Serif" font-size="10.00">Manager.cpp</text>
</a>
</g>
</g>
<!-- Node34&#45;&gt;Node35 -->
<g id="edge57_Node000034_Node000035" class="edge">
<title>Node34&#45;&gt;Node35</title>
<g id="a_edge57_Node000034_Node000035"><a xlink:title=" ">
<path fill="none" stroke="#63b8ff" d="M1426.7,-268.26C1507.12,-258.71 1632,-243.39 1740,-228 1744.59,-227.35 1749.32,-226.65 1754.08,-225.94"/>
<polygon fill="#63b8ff" stroke="#63b8ff" points="1426.15,-264.8 1416.63,-269.45 1426.97,-271.75 1426.15,-264.8"/>
</a>
</g>
</g>
</g>
</svg>
