<?xml version="1.0" encoding="UTF-8" standalone="no"?>
<!DOCTYPE svg PUBLIC "-//W3C//DTD SVG 1.1//EN"
 "http://www.w3.org/Graphics/SVG/1.1/DTD/svg11.dtd">
<!-- Generated by graphviz version 2.43.0 (0)
 -->
<!-- Title: src/physics/bounding/AABB.cpp Pages: 1 -->
<svg width="631pt" height="258pt"
 viewBox="0.00 0.00 631.00 258.00" xmlns="http://www.w3.org/2000/svg" xmlns:xlink="http://www.w3.org/1999/xlink">
<g id="graph0" class="graph" transform="scale(1 1) rotate(0) translate(4 254)">
<title>src/physics/bounding/AABB.cpp</title>
<!-- Node1 -->
<g id="Node000001" class="node">
<title>Node1</title>
<g id="a_Node000001"><a xlink:title=" ">
<polygon fill="#999999" stroke="#666666" points="382.5,-250 263.5,-250 263.5,-220 382.5,-220 382.5,-250"/>
<text text-anchor="start" x="271.5" y="-238" font-family="Helvetica,sans-Serif" font-size="10.00">src/physics/bounding</text>
<text text-anchor="middle" x="323" y="-227" font-family="Helvetica,sans-Serif" font-size="10.00">/AABB.cpp</text>
</a>
</g>
</g>
<!-- Node2 -->
<g id="Node000002" class="node">
<title>Node2</title>
<g id="a_Node000002"><a xlink:href="AABB_8h.html" target="_top" xlink:title=" ">
<polygon fill="white" stroke="#666666" points="176.5,-184 123.5,-184 123.5,-165 176.5,-165 176.5,-184"/>
<text text-anchor="middle" x="150" y="-172" font-family="Helvetica,sans-Serif" font-size="10.00">AABB.h</text>
</a>
</g>
</g>
<!-- Node1&#45;&gt;Node2 -->
<g id="edge1_Node000001_Node000002" class="edge">
<title>Node1&#45;&gt;Node2</title>
<g id="a_edge1_Node000001_Node000002"><a xlink:title=" ">
<path fill="none" stroke="#63b8ff" d="M281.56,-219.99C252.09,-210.02 212.94,-196.78 185.03,-187.35"/>
<polygon fill="#63b8ff" stroke="#63b8ff" points="185.89,-183.94 175.3,-184.05 183.65,-190.57 185.89,-183.94"/>
</a>
</g>
</g>
<!-- Node5 -->
<g id="Node000005" class="node">
<title>Node5</title>
<g id="a_Node000005"><a xlink:title=" ">
<polygon fill="#e0e0e0" stroke="#999999" points="318,-74 260,-74 260,-55 318,-55 318,-74"/>
<text text-anchor="middle" x="289" y="-62" font-family="Helvetica,sans-Serif" font-size="10.00">memory</text>
</a>
</g>
</g>
<!-- Node1&#45;&gt;Node5 -->
<g id="edge11_Node000001_Node000005" class="edge">
<title>Node1&#45;&gt;Node5</title>
<g id="a_edge11_Node000001_Node000005"><a xlink:title=" ">
<path fill="none" stroke="#63b8ff" d="M306.97,-219.99C297.73,-210.81 286.99,-197.95 282,-184 269.96,-150.33 277.46,-107.86 283.54,-83.99"/>
<polygon fill="#63b8ff" stroke="#63b8ff" points="286.97,-84.73 286.24,-74.16 280.22,-82.87 286.97,-84.73"/>
</a>
</g>
</g>
<!-- Node9 -->
<g id="Node000009" class="node">
<title>Node9</title>
<g id="a_Node000009"><a xlink:title=" ">
<polygon fill="#e0e0e0" stroke="#999999" points="355,-184 291,-184 291,-165 355,-165 355,-184"/>
<text text-anchor="middle" x="323" y="-172" font-family="Helvetica,sans-Serif" font-size="10.00">algorithm</text>
</a>
</g>
</g>
<!-- Node1&#45;&gt;Node9 -->
<g id="edge9_Node000001_Node000009" class="edge">
<title>Node1&#45;&gt;Node9</title>
<g id="a_edge9_Node000001_Node000009"><a xlink:title=" ">
<path fill="none" stroke="#63b8ff" d="M323,-219.84C323,-212.21 323,-202.7 323,-194.45"/>
<polygon fill="#63b8ff" stroke="#63b8ff" points="326.5,-194.27 323,-184.27 319.5,-194.27 326.5,-194.27"/>
</a>
</g>
</g>
<!-- Node10 -->
<g id="Node000010" class="node">
<title>Node10</title>
<g id="a_Node000010"><a xlink:title=" ">
<polygon fill="#e0e0e0" stroke="#999999" points="433,-184 373,-184 373,-165 433,-165 433,-184"/>
<text text-anchor="middle" x="403" y="-172" font-family="Helvetica,sans-Serif" font-size="10.00">iostream</text>
</a>
</g>
</g>
<!-- Node1&#45;&gt;Node10 -->
<g id="edge10_Node000001_Node000010" class="edge">
<title>Node1&#45;&gt;Node10</title>
<g id="a_edge10_Node000001_Node000010"><a xlink:title=" ">
<path fill="none" stroke="#63b8ff" d="M342.37,-219.84C354.57,-210.91 370.31,-199.41 382.69,-190.35"/>
<polygon fill="#63b8ff" stroke="#63b8ff" points="385.01,-192.99 391.01,-184.27 380.87,-187.34 385.01,-192.99"/>
</a>
</g>
</g>
<!-- Node11 -->
<g id="Node000011" class="node">
<title>Node11</title>
<g id="a_Node000011"><a xlink:title=" ">
<polygon fill="#e0e0e0" stroke="#999999" points="623,-184 451,-184 451,-165 623,-165 623,-184"/>
<text text-anchor="middle" x="537" y="-172" font-family="Helvetica,sans-Serif" font-size="10.00">glm/gtx/matrix_decompose.hpp</text>
</a>
</g>
</g>
<!-- Node1&#45;&gt;Node11 -->
<g id="edge12_Node000001_Node000011" class="edge">
<title>Node1&#45;&gt;Node11</title>
<g id="a_edge12_Node000001_Node000011"><a xlink:title=" ">
<path fill="none" stroke="#63b8ff" d="M374.26,-219.99C411.51,-209.8 461.27,-196.2 495.92,-186.73"/>
<polygon fill="#63b8ff" stroke="#63b8ff" points="496.99,-190.07 505.71,-184.05 495.14,-183.31 496.99,-190.07"/>
</a>
</g>
</g>
<!-- Node3 -->
<g id="Node000003" class="node">
<title>Node3</title>
<g id="a_Node000003"><a xlink:title=" ">
<polygon fill="#e0e0e0" stroke="#999999" points="78,-74 0,-74 0,-55 78,-55 78,-74"/>
<text text-anchor="middle" x="39" y="-62" font-family="Helvetica,sans-Serif" font-size="10.00">glm/glm.hpp</text>
</a>
</g>
</g>
<!-- Node2&#45;&gt;Node3 -->
<g id="edge2_Node000002_Node000003" class="edge">
<title>Node2&#45;&gt;Node3</title>
<g id="a_edge2_Node000002_Node000003"><a xlink:title=" ">
<path fill="none" stroke="#63b8ff" d="M140.92,-164.66C122.12,-146.38 78.76,-104.18 55.1,-81.17"/>
<polygon fill="#63b8ff" stroke="#63b8ff" points="57.51,-78.62 47.9,-74.16 52.63,-83.64 57.51,-78.62"/>
</a>
</g>
</g>
<!-- Node4 -->
<g id="Node000004" class="node">
<title>Node4</title>
<g id="a_Node000004"><a xlink:href="ICollider_8h.html" target="_top" xlink:title="Abstract interface for collision detection shapes.">
<polygon fill="white" stroke="#666666" points="182.5,-129 117.5,-129 117.5,-110 182.5,-110 182.5,-129"/>
<text text-anchor="middle" x="150" y="-117" font-family="Helvetica,sans-Serif" font-size="10.00">ICollider.h</text>
</a>
</g>
</g>
<!-- Node2&#45;&gt;Node4 -->
<g id="edge3_Node000002_Node000004" class="edge">
<title>Node2&#45;&gt;Node4</title>
<g id="a_edge3_Node000002_Node000004"><a xlink:title=" ">
<path fill="none" stroke="#63b8ff" d="M150,-164.75C150,-157.8 150,-147.85 150,-139.13"/>
<polygon fill="#63b8ff" stroke="#63b8ff" points="153.5,-139.09 150,-129.09 146.5,-139.09 153.5,-139.09"/>
</a>
</g>
</g>
<!-- Node4&#45;&gt;Node3 -->
<g id="edge4_Node000004_Node000003" class="edge">
<title>Node4&#45;&gt;Node3</title>
<g id="a_edge4_Node000004_Node000003"><a xlink:title=" ">
<path fill="none" stroke="#63b8ff" d="M132.17,-109.98C114.39,-101.5 86.85,-88.35 66.32,-78.54"/>
<polygon fill="#63b8ff" stroke="#63b8ff" points="67.69,-75.32 57.16,-74.17 64.67,-81.64 67.69,-75.32"/>
</a>
</g>
</g>
<!-- Node4&#45;&gt;Node5 -->
<g id="edge5_Node000004_Node000005" class="edge">
<title>Node4&#45;&gt;Node5</title>
<g id="a_edge5_Node000004_Node000005"><a xlink:title=" ">
<path fill="none" stroke="#63b8ff" d="M172.33,-109.98C195.2,-101.27 230.96,-87.63 256.86,-77.75"/>
<polygon fill="#63b8ff" stroke="#63b8ff" points="258.16,-81 266.26,-74.17 255.67,-74.46 258.16,-81"/>
</a>
</g>
</g>
<!-- Node6 -->
<g id="Node000006" class="node">
<title>Node6</title>
<g id="a_Node000006"><a xlink:title=" ">
<polygon fill="#e0e0e0" stroke="#999999" points="152,-74 96,-74 96,-55 152,-55 152,-74"/>
<text text-anchor="middle" x="124" y="-62" font-family="Helvetica,sans-Serif" font-size="10.00">optional</text>
</a>
</g>
</g>
<!-- Node4&#45;&gt;Node6 -->
<g id="edge6_Node000004_Node000006" class="edge">
<title>Node4&#45;&gt;Node6</title>
<g id="a_edge6_Node000004_Node000006"><a xlink:title=" ">
<path fill="none" stroke="#63b8ff" d="M145.71,-109.75C142.19,-102.57 137.09,-92.18 132.72,-83.27"/>
<polygon fill="#63b8ff" stroke="#63b8ff" points="135.76,-81.53 128.21,-74.09 129.48,-84.61 135.76,-81.53"/>
</a>
</g>
</g>
<!-- Node7 -->
<g id="Node000007" class="node">
<title>Node7</title>
<g id="a_Node000007"><a xlink:href="Ray_8h.html" target="_top" xlink:title=" ">
<polygon fill="white" stroke="#666666" points="241.5,-74 170.5,-74 170.5,-55 241.5,-55 241.5,-74"/>
<text text-anchor="middle" x="206" y="-62" font-family="Helvetica,sans-Serif" font-size="10.00">math/Ray.h</text>
</a>
</g>
</g>
<!-- Node4&#45;&gt;Node7 -->
<g id="edge7_Node000004_Node000007" class="edge">
<title>Node4&#45;&gt;Node7</title>
<g id="a_edge7_Node000004_Node000007"><a xlink:title=" ">
<path fill="none" stroke="#63b8ff" d="M159,-109.98C167.19,-102.23 179.51,-90.58 189.47,-81.14"/>
<polygon fill="#63b8ff" stroke="#63b8ff" points="191.98,-83.59 196.84,-74.17 187.17,-78.5 191.98,-83.59"/>
</a>
</g>
</g>
<!-- Node8 -->
<g id="Node000008" class="node">
<title>Node8</title>
<g id="a_Node000008"><a xlink:title=" ">
<polygon fill="#e0e0e0" stroke="#999999" points="247.5,-19 164.5,-19 164.5,0 247.5,0 247.5,-19"/>
<text text-anchor="middle" x="206" y="-7" font-family="Helvetica,sans-Serif" font-size="10.00">glm/vec3.hpp</text>
</a>
</g>
</g>
<!-- Node7&#45;&gt;Node8 -->
<g id="edge8_Node000007_Node000008" class="edge">
<title>Node7&#45;&gt;Node8</title>
<g id="a_edge8_Node000007_Node000008"><a xlink:title=" ">
<path fill="none" stroke="#63b8ff" d="M206,-54.75C206,-47.8 206,-37.85 206,-29.13"/>
<polygon fill="#63b8ff" stroke="#63b8ff" points="209.5,-29.09 206,-19.09 202.5,-29.09 209.5,-29.09"/>
</a>
</g>
</g>
</g>
</svg>
