<?xml version="1.0" encoding="UTF-8" standalone="no"?>
<!DOCTYPE svg PUBLIC "-//W3C//DTD SVG 1.1//EN"
 "http://www.w3.org/Graphics/SVG/1.1/DTD/svg11.dtd">
<!-- Generated by graphviz version 2.43.0 (0)
 -->
<!-- Title: src/physics/spatial/BVH.cpp Pages: 1 -->
<!--zoomable 324 -->

<svg id="main" version="1.1" xmlns="http://www.w3.org/2000/svg" xmlns:xlink="http://www.w3.org/1999/xlink" xml:space="preserve" onload="init(evt)">
<style type="text/css"><![CDATA[
.node, .edge {opacity: 0.7;}
.node.selected, .edge.selected {opacity: 1;}
.edge:hover path { stroke: red; }
.edge:hover polygon { stroke: red; fill: red; }
]]></style>

<defs>
  <circle id="rim" cx="0" cy="0" r="7"/>
  <circle id="rim2" cx="0" cy="0" r="3.5"/>
  <g id="zoomPlus">
    <use xlink:href="#rim" fill="#404040"><set attributeName="fill" to="#808080" begin="zoomplus.mouseover" end="zoomplus.mouseout"/></use>
    <path d="M-4,0h8M0,-4v8" fill="none" stroke="white" stroke-width="1.5" pointer-events="none"/>
  </g>
  <g id="zoomMin">
    <use xlink:href="#rim" fill="#404040"><set attributeName="fill" to="#808080" begin="zoomminus.mouseover" end="zoomminus.mouseout"/></use>
    <path d="M-4,0h8" fill="none" stroke="white" stroke-width="1.5" pointer-events="none"/>
  </g>
  <g id="arrowUp" transform="translate(30 24)">
    <use xlink:href="#rim"/>
    <path pointer-events="none" fill="none" stroke="white" stroke-width="1.5" d="M0,-3.0v7 M-2.5,-0.5L0,-3.0L2.5,-0.5"/>
  </g>
  <g id="arrowRight" transform="rotate(90) translate(36 -43)">
    <use xlink:href="#rim"/>
    <path pointer-events="none" fill="none" stroke="white" stroke-width="1.5" d="M0,-3.0v7 M-2.5,-0.5L0,-3.0L2.5,-0.5"/>
  </g>
  <g id="arrowDown" transform="rotate(180) translate(-30 -48)">
    <use xlink:href="#rim"/>
    <path pointer-events="none" fill="none" stroke="white" stroke-width="1.5" d="M0,-3.0v7 M-2.5,-0.5L0,-3.0L2.5,-0.5"/>
  </g>
  <g id="arrowLeft" transform="rotate(270) translate(-36 17)">
    <use xlink:href="#rim"/>
    <path pointer-events="none" fill="none" stroke="white" stroke-width="1.5" d="M0,-3.0v7 M-2.5,-0.5L0,-3.0L2.5,-0.5"/>
  </g>
  <g id="resetDef">
    <use xlink:href="#rim2" fill="#404040"><set attributeName="fill" to="#808080" begin="reset.mouseover" end="reset.mouseout"/></use>
  </g>
</defs>
<script type="application/ecmascript">
var viewWidth = 732;
var viewHeight = 324;
var sectionId = 'dynsection-0';
</script>
<script type="application/ecmascript" xlink:href="svg.min.js"/>
<svg id="graph" class="graph">
<g id="viewport">
<title>src/physics/spatial/BVH.cpp</title>
<!-- Node1 -->
<g id="Node000001" class="node">
<title>Node1</title>
<g id="a_Node000001"><a xlink:title=" ">
<polygon fill="#999999" stroke="#666666" points="505.5,-316 398.5,-316 398.5,-286 505.5,-286 505.5,-316"/>
<text text-anchor="start" x="406.5" y="-304" font-family="Helvetica,sans-Serif" font-size="10.00">src/physics/spatial</text>
<text text-anchor="middle" x="452" y="-293" font-family="Helvetica,sans-Serif" font-size="10.00">/BVH.cpp</text>
</a>
</g>
</g>
<!-- Node2 -->
<g id="Node000002" class="node">
<title>Node2</title>
<g id="a_Node000002"><a xlink:title=" ">
<polygon fill="#e0e0e0" stroke="#999999" points="292,-244.5 228,-244.5 228,-225.5 292,-225.5 292,-244.5"/>
<text text-anchor="middle" x="260" y="-232.5" font-family="Helvetica,sans-Serif" font-size="10.00">algorithm</text>
</a>
</g>
</g>
<!-- Node1&#45;&gt;Node2 -->
<g id="edge1_Node000001_Node000002" class="edge">
<title>Node1&#45;&gt;Node2</title>
<g id="a_edge1_Node000001_Node000002"><a xlink:title=" ">
<path fill="none" stroke="#63b8ff" d="M409.33,-285.99C379.07,-276.02 337.51,-262.28 301,-250 298.91,-249.3 296.77,-248.57 294.61,-247.84"/>
<polygon fill="#63b8ff" stroke="#63b8ff" points="295.73,-244.53 285.14,-244.63 293.48,-251.16 295.73,-244.53"/>
</a>
</g>
</g>
<!-- Node3 -->
<g id="Node000003" class="node">
<title>Node3</title>
<g id="a_Node000003"><a xlink:title=" ">
<polygon fill="#e0e0e0" stroke="#999999" points="471.5,-244.5 310.5,-244.5 310.5,-225.5 471.5,-225.5 471.5,-244.5"/>
<text text-anchor="middle" x="391" y="-232.5" font-family="Helvetica,sans-Serif" font-size="10.00">glm/gtx/component_wise.hpp</text>
</a>
</g>
</g>
<!-- Node1&#45;&gt;Node3 -->
<g id="edge2_Node000001_Node000003" class="edge">
<title>Node1&#45;&gt;Node3</title>
<g id="a_edge2_Node000001_Node000003"><a xlink:title=" ">
<path fill="none" stroke="#63b8ff" d="M438.46,-285.8C428.95,-275.82 416.22,-262.46 406.33,-252.09"/>
<polygon fill="#63b8ff" stroke="#63b8ff" points="408.86,-249.67 399.43,-244.84 403.8,-254.5 408.86,-249.67"/>
</a>
</g>
</g>
<!-- Node4 -->
<g id="Node000004" class="node">
<title>Node4</title>
<g id="a_Node000004"><a xlink:href="BVH_8h.html" target="_top" xlink:title=" ">
<polygon fill="white" stroke="#666666" points="536.5,-244.5 489.5,-244.5 489.5,-225.5 536.5,-225.5 536.5,-244.5"/>
<text text-anchor="middle" x="513" y="-232.5" font-family="Helvetica,sans-Serif" font-size="10.00">BVH.h</text>
</a>
</g>
</g>
<!-- Node1&#45;&gt;Node4 -->
<g id="edge3_Node000001_Node000004" class="edge">
<title>Node1&#45;&gt;Node4</title>
<g id="a_edge3_Node000001_Node000004"><a xlink:title=" ">
<path fill="none" stroke="#63b8ff" d="M465.54,-285.8C475.05,-275.82 487.78,-262.46 497.67,-252.09"/>
<polygon fill="#63b8ff" stroke="#63b8ff" points="500.2,-254.5 504.57,-244.84 495.14,-249.67 500.2,-254.5"/>
</a>
</g>
</g>
<!-- Node20 -->
<g id="Node000020" class="node">
<title>Node20</title>
<g id="a_Node000020"><a xlink:href="Axis_8h.html" target="_top" xlink:title=" ">
<polygon fill="white" stroke="#666666" points="693.5,-250 554.5,-250 554.5,-220 693.5,-220 693.5,-250"/>
<text text-anchor="start" x="562.5" y="-238" font-family="Helvetica,sans-Serif" font-size="10.00">../../graphics/components</text>
<text text-anchor="middle" x="624" y="-227" font-family="Helvetica,sans-Serif" font-size="10.00">/Axis.h</text>
</a>
</g>
</g>
<!-- Node1&#45;&gt;Node20 -->
<g id="edge22_Node000001_Node000020" class="edge">
<title>Node1&#45;&gt;Node20</title>
<g id="a_edge22_Node000001_Node000020"><a xlink:title=" ">
<path fill="none" stroke="#63b8ff" d="M489.75,-285.95C515.4,-276.41 549.52,-263.71 576.95,-253.51"/>
<polygon fill="#63b8ff" stroke="#63b8ff" points="578.19,-256.78 586.34,-250.01 575.75,-250.22 578.19,-256.78"/>
</a>
</g>
</g>
<!-- Node5 -->
<g id="Node000005" class="node">
<title>Node5</title>
<g id="a_Node000005"><a xlink:title=" ">
<polygon fill="#e0e0e0" stroke="#999999" points="318,-74 240,-74 240,-55 318,-55 318,-74"/>
<text text-anchor="middle" x="279" y="-62" font-family="Helvetica,sans-Serif" font-size="10.00">glm/glm.hpp</text>
</a>
</g>
</g>
<!-- Node4&#45;&gt;Node5 -->
<g id="edge4_Node000004_Node000005" class="edge">
<title>Node4&#45;&gt;Node5</title>
<g id="a_edge4_Node000004_Node000005"><a xlink:title=" ">
<path fill="none" stroke="#63b8ff" d="M532.76,-225.44C582.47,-203.7 709.5,-146.84 720,-129 724.28,-121.72 725.66,-116.26 720,-110 694.13,-81.38 438.19,-70.29 328.5,-66.83"/>
<polygon fill="#63b8ff" stroke="#63b8ff" points="328.45,-63.33 318.35,-66.52 328.24,-70.33 328.45,-63.33"/>
</a>
</g>
</g>
<!-- Node6 -->
<g id="Node000006" class="node">
<title>Node6</title>
<g id="a_Node000006"><a xlink:href="AABB_8h.html" target="_top" xlink:title=" ">
<polygon fill="white" stroke="#666666" points="296,-184 186,-184 186,-165 296,-165 296,-184"/>
<text text-anchor="middle" x="241" y="-172" font-family="Helvetica,sans-Serif" font-size="10.00">../bounding/AABB.h</text>
</a>
</g>
</g>
<!-- Node4&#45;&gt;Node6 -->
<g id="edge5_Node000004_Node000006" class="edge">
<title>Node4&#45;&gt;Node6</title>
<g id="a_edge5_Node000004_Node000006"><a xlink:title=" ">
<path fill="none" stroke="#63b8ff" d="M495.33,-225.41C490.74,-223.42 485.75,-221.46 481,-220 423.13,-202.23 355.12,-190.44 306.31,-183.48"/>
<polygon fill="#63b8ff" stroke="#63b8ff" points="306.58,-179.99 296.19,-182.07 305.61,-186.92 306.58,-179.99"/>
</a>
</g>
</g>
<!-- Node12 -->
<g id="Node000012" class="node">
<title>Node12</title>
<g id="a_Node000012"><a xlink:href="NodeIndex_8h.html" target="_top" xlink:title=" ">
<polygon fill="white" stroke="#666666" points="612,-184 534,-184 534,-165 612,-165 612,-184"/>
<text text-anchor="middle" x="573" y="-172" font-family="Helvetica,sans-Serif" font-size="10.00">NodeIndex.h</text>
</a>
</g>
</g>
<!-- Node4&#45;&gt;Node12 -->
<g id="edge13_Node000004_Node000012" class="edge">
<title>Node4&#45;&gt;Node12</title>
<g id="a_edge13_Node000004_Node000012"><a xlink:title=" ">
<path fill="none" stroke="#63b8ff" d="M521.85,-225.37C530.98,-216.47 545.42,-202.39 556.64,-191.45"/>
<polygon fill="#63b8ff" stroke="#63b8ff" points="559.39,-193.65 564.11,-184.17 554.51,-188.64 559.39,-193.65"/>
</a>
</g>
</g>
<!-- Node13 -->
<g id="Node000013" class="node">
<title>Node13</title>
<g id="a_Node000013"><a xlink:href="PhysicsBody_8h.html" target="_top" xlink:title=" ">
<polygon fill="white" stroke="#666666" points="515.5,-184 390.5,-184 390.5,-165 515.5,-165 515.5,-184"/>
<text text-anchor="middle" x="453" y="-172" font-family="Helvetica,sans-Serif" font-size="10.00">physics/PhysicsBody.h</text>
</a>
</g>
</g>
<!-- Node4&#45;&gt;Node13 -->
<g id="edge14_Node000004_Node000013" class="edge">
<title>Node4&#45;&gt;Node13</title>
<g id="a_edge14_Node000004_Node000013"><a xlink:title=" ">
<path fill="none" stroke="#63b8ff" d="M504.15,-225.37C495.02,-216.47 480.58,-202.39 469.36,-191.45"/>
<polygon fill="#63b8ff" stroke="#63b8ff" points="471.49,-188.64 461.89,-184.17 466.61,-193.65 471.49,-188.64"/>
</a>
</g>
</g>
<!-- Node6&#45;&gt;Node5 -->
<g id="edge6_Node000006_Node000005" class="edge">
<title>Node6&#45;&gt;Node5</title>
<g id="a_edge6_Node000006_Node000005"><a xlink:title=" ">
<path fill="none" stroke="#63b8ff" d="M244.11,-164.66C250.32,-147.01 264.37,-107.09 272.62,-83.64"/>
<polygon fill="#63b8ff" stroke="#63b8ff" points="275.94,-84.75 275.95,-74.16 269.33,-82.43 275.94,-84.75"/>
</a>
</g>
</g>
<!-- Node7 -->
<g id="Node000007" class="node">
<title>Node7</title>
<g id="a_Node000007"><a xlink:href="ICollider_8h.html" target="_top" xlink:title="Abstract interface for collision detection shapes.">
<polygon fill="white" stroke="#666666" points="212.5,-129 147.5,-129 147.5,-110 212.5,-110 212.5,-129"/>
<text text-anchor="middle" x="180" y="-117" font-family="Helvetica,sans-Serif" font-size="10.00">ICollider.h</text>
</a>
</g>
</g>
<!-- Node6&#45;&gt;Node7 -->
<g id="edge7_Node000006_Node000007" class="edge">
<title>Node6&#45;&gt;Node7</title>
<g id="a_edge7_Node000006_Node000007"><a xlink:title=" ">
<path fill="none" stroke="#63b8ff" d="M231.2,-164.98C222.18,-157.15 208.59,-145.34 197.68,-135.86"/>
<polygon fill="#63b8ff" stroke="#63b8ff" points="199.82,-133.09 189.98,-129.17 195.23,-138.37 199.82,-133.09"/>
</a>
</g>
</g>
<!-- Node7&#45;&gt;Node5 -->
<g id="edge8_Node000007_Node000005" class="edge">
<title>Node7&#45;&gt;Node5</title>
<g id="a_edge8_Node000007_Node000005"><a xlink:title=" ">
<path fill="none" stroke="#63b8ff" d="M195.91,-109.98C211.55,-101.61 235.66,-88.7 253.88,-78.95"/>
<polygon fill="#63b8ff" stroke="#63b8ff" points="255.64,-81.98 262.8,-74.17 252.34,-75.8 255.64,-81.98"/>
</a>
</g>
</g>
<!-- Node8 -->
<g id="Node000008" class="node">
<title>Node8</title>
<g id="a_Node000008"><a xlink:title=" ">
<polygon fill="#e0e0e0" stroke="#999999" points="58,-74 0,-74 0,-55 58,-55 58,-74"/>
<text text-anchor="middle" x="29" y="-62" font-family="Helvetica,sans-Serif" font-size="10.00">memory</text>
</a>
</g>
</g>
<!-- Node7&#45;&gt;Node8 -->
<g id="edge9_Node000007_Node000008" class="edge">
<title>Node7&#45;&gt;Node8</title>
<g id="a_edge9_Node000007_Node000008"><a xlink:title=" ">
<path fill="none" stroke="#63b8ff" d="M155.74,-109.98C130.68,-101.19 91.37,-87.39 63.17,-77.49"/>
<polygon fill="#63b8ff" stroke="#63b8ff" points="64.3,-74.18 53.7,-74.17 61.98,-80.78 64.3,-74.18"/>
</a>
</g>
</g>
<!-- Node9 -->
<g id="Node000009" class="node">
<title>Node9</title>
<g id="a_Node000009"><a xlink:title=" ">
<polygon fill="#e0e0e0" stroke="#999999" points="132,-74 76,-74 76,-55 132,-55 132,-74"/>
<text text-anchor="middle" x="104" y="-62" font-family="Helvetica,sans-Serif" font-size="10.00">optional</text>
</a>
</g>
</g>
<!-- Node7&#45;&gt;Node9 -->
<g id="edge10_Node000007_Node000009" class="edge">
<title>Node7&#45;&gt;Node9</title>
<g id="a_edge10_Node000007_Node000009"><a xlink:title=" ">
<path fill="none" stroke="#63b8ff" d="M167.79,-109.98C156.22,-101.92 138.62,-89.65 124.84,-80.03"/>
<polygon fill="#63b8ff" stroke="#63b8ff" points="126.64,-77.02 116.43,-74.17 122.63,-82.76 126.64,-77.02"/>
</a>
</g>
</g>
<!-- Node10 -->
<g id="Node000010" class="node">
<title>Node10</title>
<g id="a_Node000010"><a xlink:href="Ray_8h.html" target="_top" xlink:title=" ">
<polygon fill="white" stroke="#666666" points="221.5,-74 150.5,-74 150.5,-55 221.5,-55 221.5,-74"/>
<text text-anchor="middle" x="186" y="-62" font-family="Helvetica,sans-Serif" font-size="10.00">math/Ray.h</text>
</a>
</g>
</g>
<!-- Node7&#45;&gt;Node10 -->
<g id="edge11_Node000007_Node000010" class="edge">
<title>Node7&#45;&gt;Node10</title>
<g id="a_edge11_Node000007_Node000010"><a xlink:title=" ">
<path fill="none" stroke="#63b8ff" d="M180.99,-109.75C181.78,-102.8 182.9,-92.85 183.89,-84.13"/>
<polygon fill="#63b8ff" stroke="#63b8ff" points="187.38,-84.42 185.03,-74.09 180.42,-83.63 187.38,-84.42"/>
</a>
</g>
</g>
<!-- Node11 -->
<g id="Node000011" class="node">
<title>Node11</title>
<g id="a_Node000011"><a xlink:title=" ">
<polygon fill="#e0e0e0" stroke="#999999" points="227.5,-19 144.5,-19 144.5,0 227.5,0 227.5,-19"/>
<text text-anchor="middle" x="186" y="-7" font-family="Helvetica,sans-Serif" font-size="10.00">glm/vec3.hpp</text>
</a>
</g>
</g>
<!-- Node10&#45;&gt;Node11 -->
<g id="edge12_Node000010_Node000011" class="edge">
<title>Node10&#45;&gt;Node11</title>
<g id="a_edge12_Node000010_Node000011"><a xlink:title=" ">
<path fill="none" stroke="#63b8ff" d="M186,-54.75C186,-47.8 186,-37.85 186,-29.13"/>
<polygon fill="#63b8ff" stroke="#63b8ff" points="189.5,-29.09 186,-19.09 182.5,-29.09 189.5,-29.09"/>
</a>
</g>
</g>
<!-- Node13&#45;&gt;Node5 -->
<g id="edge17_Node000013_Node000005" class="edge">
<title>Node13&#45;&gt;Node5</title>
<g id="a_edge17_Node000013_Node000005"><a xlink:title=" ">
<path fill="none" stroke="#63b8ff" d="M390.4,-169.49C358.93,-164.34 322.39,-153.12 298,-129 286.12,-117.25 281.6,-98.41 279.92,-84.29"/>
<polygon fill="#63b8ff" stroke="#63b8ff" points="283.4,-83.89 279.09,-74.21 276.42,-84.46 283.4,-83.89"/>
</a>
</g>
</g>
<!-- Node14 -->
<g id="Node000014" class="node">
<title>Node14</title>
<g id="a_Node000014"><a xlink:title=" ">
<polygon fill="#e0e0e0" stroke="#999999" points="649,-129 599,-129 599,-110 649,-110 649,-129"/>
<text text-anchor="middle" x="624" y="-117" font-family="Helvetica,sans-Serif" font-size="10.00">atomic</text>
</a>
</g>
</g>
<!-- Node13&#45;&gt;Node14 -->
<g id="edge15_Node000013_Node000014" class="edge">
<title>Node13&#45;&gt;Node14</title>
<g id="a_edge15_Node000013_Node000014"><a xlink:title=" ">
<path fill="none" stroke="#63b8ff" d="M480.47,-164.98C509.95,-155.85 556.85,-141.31 588.96,-131.36"/>
<polygon fill="#63b8ff" stroke="#63b8ff" points="590.31,-134.61 598.82,-128.3 588.24,-127.92 590.31,-134.61"/>
</a>
</g>
</g>
<!-- Node15 -->
<g id="Node000015" class="node">
<title>Node15</title>
<g id="a_Node000015"><a xlink:title=" ">
<polygon fill="#e0e0e0" stroke="#999999" points="711,-129 667,-129 667,-110 711,-110 711,-129"/>
<text text-anchor="middle" x="689" y="-117" font-family="Helvetica,sans-Serif" font-size="10.00">string</text>
</a>
</g>
</g>
<!-- Node13&#45;&gt;Node15 -->
<g id="edge16_Node000013_Node000015" class="edge">
<title>Node13&#45;&gt;Node15</title>
<g id="a_edge16_Node000013_Node000015"><a xlink:title=" ">
<path fill="none" stroke="#63b8ff" d="M495.56,-164.96C535.01,-156.88 595.58,-144.1 656.85,-129.18"/>
<polygon fill="#63b8ff" stroke="#63b8ff" points="657.81,-132.55 666.69,-126.77 656.14,-125.75 657.81,-132.55"/>
</a>
</g>
</g>
<!-- Node16 -->
<g id="Node000016" class="node">
<title>Node16</title>
<g id="a_Node000016"><a xlink:title=" ">
<polygon fill="#e0e0e0" stroke="#999999" points="354.5,-129 307.5,-129 307.5,-110 354.5,-110 354.5,-129"/>
<text text-anchor="middle" x="331" y="-117" font-family="Helvetica,sans-Serif" font-size="10.00">vector</text>
</a>
</g>
</g>
<!-- Node13&#45;&gt;Node16 -->
<g id="edge18_Node000013_Node000016" class="edge">
<title>Node13&#45;&gt;Node16</title>
<g id="a_edge18_Node000013_Node000016"><a xlink:title=" ">
<path fill="none" stroke="#63b8ff" d="M433.4,-164.98C413.68,-156.42 383.05,-143.11 360.42,-133.28"/>
<polygon fill="#63b8ff" stroke="#63b8ff" points="361.52,-129.94 350.96,-129.17 358.74,-136.37 361.52,-129.94"/>
</a>
</g>
</g>
<!-- Node17 -->
<g id="Node000017" class="node">
<title>Node17</title>
<g id="a_Node000017"><a xlink:title=" ">
<polygon fill="#e0e0e0" stroke="#999999" points="411,-129 373,-129 373,-110 411,-110 411,-129"/>
<text text-anchor="middle" x="392" y="-117" font-family="Helvetica,sans-Serif" font-size="10.00">map</text>
</a>
</g>
</g>
<!-- Node13&#45;&gt;Node17 -->
<g id="edge19_Node000013_Node000017" class="edge">
<title>Node13&#45;&gt;Node17</title>
<g id="a_edge19_Node000013_Node000017"><a xlink:title=" ">
<path fill="none" stroke="#63b8ff" d="M443.2,-164.98C434.18,-157.15 420.59,-145.34 409.68,-135.86"/>
<polygon fill="#63b8ff" stroke="#63b8ff" points="411.82,-133.09 401.98,-129.17 407.23,-138.37 411.82,-133.09"/>
</a>
</g>
</g>
<!-- Node18 -->
<g id="Node000018" class="node">
<title>Node18</title>
<g id="a_Node000018"><a xlink:title=" ">
<polygon fill="#e0e0e0" stroke="#999999" points="477,-129 429,-129 429,-110 477,-110 477,-129"/>
<text text-anchor="middle" x="453" y="-117" font-family="Helvetica,sans-Serif" font-size="10.00">mutex</text>
</a>
</g>
</g>
<!-- Node13&#45;&gt;Node18 -->
<g id="edge20_Node000013_Node000018" class="edge">
<title>Node13&#45;&gt;Node18</title>
<g id="a_edge20_Node000013_Node000018"><a xlink:title=" ">
<path fill="none" stroke="#63b8ff" d="M453,-164.75C453,-157.8 453,-147.85 453,-139.13"/>
<polygon fill="#63b8ff" stroke="#63b8ff" points="456.5,-139.09 453,-129.09 449.5,-139.09 456.5,-139.09"/>
</a>
</g>
</g>
<!-- Node19 -->
<g id="Node000019" class="node">
<title>Node19</title>
<g id="a_Node000019"><a xlink:title=" ">
<polygon fill="#e0e0e0" stroke="#999999" points="581,-129 495,-129 495,-110 581,-110 581,-129"/>
<text text-anchor="middle" x="538" y="-117" font-family="Helvetica,sans-Serif" font-size="10.00">unordered_set</text>
</a>
</g>
</g>
<!-- Node13&#45;&gt;Node19 -->
<g id="edge21_Node000013_Node000019" class="edge">
<title>Node13&#45;&gt;Node19</title>
<g id="a_edge21_Node000013_Node000019"><a xlink:title=" ">
<path fill="none" stroke="#63b8ff" d="M466.66,-164.98C479.84,-156.77 500.03,-144.18 515.57,-134.49"/>
<polygon fill="#63b8ff" stroke="#63b8ff" points="517.46,-137.43 524.09,-129.17 513.76,-131.49 517.46,-137.43"/>
</a>
</g>
</g>
</g>
</svg>

<g id="navigator" transform="translate(0 0)" fill="#404254">
  <rect fill="#f2f5e9" fill-opacity="0.5" stroke="#606060" stroke-width=".5" x="0" y="0" width="60" height="60"/>
  <use id="zoomplus" xlink:href="#zoomPlus" x="17" y="9" onmousedown="handleZoom(evt,'in')"/>
  <use id="zoomminus" xlink:href="#zoomMin" x="42" y="9" onmousedown="handleZoom(evt,'out')"/>
  <use id="reset" xlink:href="#resetDef" x="30" y="36" onmousedown="handleReset()"/>
   <use id="arrowup" xlink:href="#arrowUp" x="0" y="0" onmousedown="handlePan(0,-1)"/>
  <use id="arrowright" xlink:href="#arrowRight" x="0" y="0" onmousedown="handlePan(1,0)"/>
  <use id="arrowdown" xlink:href="#arrowDown" x="0" y="0" onmousedown="handlePan(0,1)"/>
  <use id="arrowleft" xlink:href="#arrowLeft" x="0" y="0" onmousedown="handlePan(-1,0)"/>
</g>
<svg viewBox="0 0 15 15" width="100%" height="30px" preserveAspectRatio="xMaxYMin meet">
 <g id="arrow_out" transform="scale(0.3 0.3)">
  <a xlink:href="BVH_8cpp__incl_org.svg" target="_base">
   <rect id="button" ry="5" rx="5" y="6" x="6" height="38" width="38"
        fill="#f2f5e9" fill-opacity="0.5" stroke="#606060" stroke-width="1.0"/>
   <path id="arrow"
     d="M 11.500037,31.436501 C 11.940474,20.09759 22.043105,11.32322 32.158766,21.979434 L 37.068811,17.246167 C 37.068811,17.246167 37.088388,32 37.088388,32 L 22.160133,31.978069 C 22.160133,31.978069 26.997745,27.140456 26.997745,27.140456 C 18.528582,18.264221 13.291696,25.230495 11.500037,31.436501 z"
     style="fill:#404040;"/>
  </a>
 </g>
</svg>

<style type='text/css'>
<![CDATA[
[data-mouse-over-selected='false'] { opacity: 0.7; }
[data-mouse-over-selected='true']  { opacity: 1.0; }
]]>
</style>
<script type="application/ecmascript"><![CDATA[
document.addEventListener('DOMContentLoaded', (event) => {
  highlightEdges();
  highlightAdjacentNodes();
});
]]></script>
</svg>
