<?xml version="1.0" encoding="UTF-8" standalone="no"?>
<!DOCTYPE svg PUBLIC "-//W3C//DTD SVG 1.1//EN"
 "http://www.w3.org/Graphics/SVG/1.1/DTD/svg11.dtd">
<!-- Generated by graphviz version 2.43.0 (0)
 -->
<!-- Title: src/physics/spatial/BVH.cpp Pages: 1 -->
<svg width="721pt" height="324pt"
 viewBox="0.00 0.00 721.00 324.00" xmlns="http://www.w3.org/2000/svg" xmlns:xlink="http://www.w3.org/1999/xlink">
<g id="graph0" class="graph" transform="scale(1 1) rotate(0) translate(4 320)">
<title>src/physics/spatial/BVH.cpp</title>
<!-- Node1 -->
<g id="Node000001" class="node">
<title>Node1</title>
<g id="a_Node000001"><a xlink:title=" ">
<polygon fill="#999999" stroke="#666666" points="277.5,-316 170.5,-316 170.5,-286 277.5,-286 277.5,-316"/>
<text text-anchor="start" x="178.5" y="-304" font-family="Helvetica,sans-Serif" font-size="10.00">src/physics/spatial</text>
<text text-anchor="middle" x="224" y="-293" font-family="Helvetica,sans-Serif" font-size="10.00">/BVH.cpp</text>
</a>
</g>
</g>
<!-- Node2 -->
<g id="Node000002" class="node">
<title>Node2</title>
<g id="a_Node000002"><a xlink:title=" ">
<polygon fill="#e0e0e0" stroke="#999999" points="64,-244.5 0,-244.5 0,-225.5 64,-225.5 64,-244.5"/>
<text text-anchor="middle" x="32" y="-232.5" font-family="Helvetica,sans-Serif" font-size="10.00">algorithm</text>
</a>
</g>
</g>
<!-- Node1&#45;&gt;Node2 -->
<g id="edge1_Node000001_Node000002" class="edge">
<title>Node1&#45;&gt;Node2</title>
<g id="a_edge1_Node000001_Node000002"><a xlink:title=" ">
<path fill="none" stroke="#63b8ff" d="M181.33,-285.99C151.07,-276.02 109.51,-262.28 73,-250 70.91,-249.3 68.77,-248.57 66.61,-247.84"/>
<polygon fill="#63b8ff" stroke="#63b8ff" points="67.73,-244.53 57.14,-244.63 65.48,-251.16 67.73,-244.53"/>
</a>
</g>
</g>
<!-- Node3 -->
<g id="Node000003" class="node">
<title>Node3</title>
<g id="a_Node000003"><a xlink:title=" ">
<polygon fill="#e0e0e0" stroke="#999999" points="243.5,-244.5 82.5,-244.5 82.5,-225.5 243.5,-225.5 243.5,-244.5"/>
<text text-anchor="middle" x="163" y="-232.5" font-family="Helvetica,sans-Serif" font-size="10.00">glm/gtx/component_wise.hpp</text>
</a>
</g>
</g>
<!-- Node1&#45;&gt;Node3 -->
<g id="edge2_Node000001_Node000003" class="edge">
<title>Node1&#45;&gt;Node3</title>
<g id="a_edge2_Node000001_Node000003"><a xlink:title=" ">
<path fill="none" stroke="#63b8ff" d="M210.46,-285.8C200.95,-275.82 188.22,-262.46 178.33,-252.09"/>
<polygon fill="#63b8ff" stroke="#63b8ff" points="180.86,-249.67 171.43,-244.84 175.8,-254.5 180.86,-249.67"/>
</a>
</g>
</g>
<!-- Node4 -->
<g id="Node000004" class="node">
<title>Node4</title>
<g id="a_Node000004"><a xlink:href="BVH_8h.html" target="_top" xlink:title=" ">
<polygon fill="white" stroke="#666666" points="308.5,-244.5 261.5,-244.5 261.5,-225.5 308.5,-225.5 308.5,-244.5"/>
<text text-anchor="middle" x="285" y="-232.5" font-family="Helvetica,sans-Serif" font-size="10.00">BVH.h</text>
</a>
</g>
</g>
<!-- Node1&#45;&gt;Node4 -->
<g id="edge3_Node000001_Node000004" class="edge">
<title>Node1&#45;&gt;Node4</title>
<g id="a_edge3_Node000001_Node000004"><a xlink:title=" ">
<path fill="none" stroke="#63b8ff" d="M237.54,-285.8C247.05,-275.82 259.78,-262.46 269.67,-252.09"/>
<polygon fill="#63b8ff" stroke="#63b8ff" points="272.2,-254.5 276.57,-244.84 267.14,-249.67 272.2,-254.5"/>
</a>
</g>
</g>
<!-- Node21 -->
<g id="Node000021" class="node">
<title>Node21</title>
<g id="a_Node000021"><a xlink:href="Axis_8h.html" target="_top" xlink:title=" ">
<polygon fill="white" stroke="#666666" points="465.5,-250 326.5,-250 326.5,-220 465.5,-220 465.5,-250"/>
<text text-anchor="start" x="334.5" y="-238" font-family="Helvetica,sans-Serif" font-size="10.00">../../graphics/components</text>
<text text-anchor="middle" x="396" y="-227" font-family="Helvetica,sans-Serif" font-size="10.00">/Axis.h</text>
</a>
</g>
</g>
<!-- Node1&#45;&gt;Node21 -->
<g id="edge23_Node000001_Node000021" class="edge">
<title>Node1&#45;&gt;Node21</title>
<g id="a_edge23_Node000001_Node000021"><a xlink:title=" ">
<path fill="none" stroke="#63b8ff" d="M261.75,-285.95C287.4,-276.41 321.52,-263.71 348.95,-253.51"/>
<polygon fill="#63b8ff" stroke="#63b8ff" points="350.19,-256.78 358.34,-250.01 347.75,-250.22 350.19,-256.78"/>
</a>
</g>
</g>
<!-- Node5 -->
<g id="Node000005" class="node">
<title>Node5</title>
<g id="a_Node000005"><a xlink:title=" ">
<polygon fill="#e0e0e0" stroke="#999999" points="135,-74 57,-74 57,-55 135,-55 135,-74"/>
<text text-anchor="middle" x="96" y="-62" font-family="Helvetica,sans-Serif" font-size="10.00">glm/glm.hpp</text>
</a>
</g>
</g>
<!-- Node4&#45;&gt;Node5 -->
<g id="edge4_Node000004_Node000005" class="edge">
<title>Node4&#45;&gt;Node5</title>
<g id="a_edge4_Node000004_Node000005"><a xlink:title=" ">
<path fill="none" stroke="#63b8ff" d="M265.95,-225.49C261.42,-223.58 256.57,-221.64 252,-220 199.2,-201.01 173.58,-220.54 131,-184 101.79,-158.93 96.33,-110.78 95.68,-84.23"/>
<polygon fill="#63b8ff" stroke="#63b8ff" points="99.18,-83.99 95.65,-74 92.18,-84.01 99.18,-83.99"/>
</a>
</g>
</g>
<!-- Node6 -->
<g id="Node000006" class="node">
<title>Node6</title>
<g id="a_Node000006"><a xlink:href="AABB_8h.html" target="_top" xlink:title=" ">
<polygon fill="white" stroke="#666666" points="250,-184 140,-184 140,-165 250,-165 250,-184"/>
<text text-anchor="middle" x="195" y="-172" font-family="Helvetica,sans-Serif" font-size="10.00">../bounding/AABB.h</text>
</a>
</g>
</g>
<!-- Node4&#45;&gt;Node6 -->
<g id="edge5_Node000004_Node000006" class="edge">
<title>Node4&#45;&gt;Node6</title>
<g id="a_edge5_Node000004_Node000006"><a xlink:title=" ">
<path fill="none" stroke="#63b8ff" d="M271.72,-225.37C257.36,-216.04 234.24,-201.01 217.13,-189.88"/>
<polygon fill="#63b8ff" stroke="#63b8ff" points="218.63,-186.68 208.33,-184.17 214.81,-192.55 218.63,-186.68"/>
</a>
</g>
</g>
<!-- Node12 -->
<g id="Node000012" class="node">
<title>Node12</title>
<g id="a_Node000012"><a xlink:href="NodeIndex_8h.html" target="_top" xlink:title=" ">
<polygon fill="white" stroke="#666666" points="566,-184 488,-184 488,-165 566,-165 566,-184"/>
<text text-anchor="middle" x="527" y="-172" font-family="Helvetica,sans-Serif" font-size="10.00">NodeIndex.h</text>
</a>
</g>
</g>
<!-- Node4&#45;&gt;Node12 -->
<g id="edge13_Node000004_Node000012" class="edge">
<title>Node4&#45;&gt;Node12</title>
<g id="a_edge13_Node000004_Node000012"><a xlink:title=" ">
<path fill="none" stroke="#63b8ff" d="M303.61,-225.37C308.25,-223.43 313.25,-221.5 318,-220 347.19,-210.79 425.57,-194.97 477.61,-184.88"/>
<polygon fill="#63b8ff" stroke="#63b8ff" points="478.49,-188.28 487.65,-182.94 477.17,-181.4 478.49,-188.28"/>
</a>
</g>
</g>
<!-- Node13 -->
<g id="Node000013" class="node">
<title>Node13</title>
<g id="a_Node000013"><a xlink:href="PhysicsBody_8h.html" target="_top" xlink:title=" ">
<polygon fill="white" stroke="#666666" points="469.5,-184 344.5,-184 344.5,-165 469.5,-165 469.5,-184"/>
<text text-anchor="middle" x="407" y="-172" font-family="Helvetica,sans-Serif" font-size="10.00">physics/PhysicsBody.h</text>
</a>
</g>
</g>
<!-- Node4&#45;&gt;Node13 -->
<g id="edge14_Node000004_Node000013" class="edge">
<title>Node4&#45;&gt;Node13</title>
<g id="a_edge14_Node000004_Node000013"><a xlink:title=" ">
<path fill="none" stroke="#63b8ff" d="M302.74,-225.49C323.07,-215.75 356.61,-199.66 380.14,-188.38"/>
<polygon fill="#63b8ff" stroke="#63b8ff" points="381.74,-191.5 389.24,-184.02 378.71,-185.18 381.74,-191.5"/>
</a>
</g>
</g>
<!-- Node6&#45;&gt;Node5 -->
<g id="edge6_Node000006_Node000005" class="edge">
<title>Node6&#45;&gt;Node5</title>
<g id="a_edge6_Node000006_Node000005"><a xlink:title=" ">
<path fill="none" stroke="#63b8ff" d="M172.54,-164.99C156,-157.69 134.02,-145.7 120,-129 109.23,-116.17 103.02,-98 99.62,-84.38"/>
<polygon fill="#63b8ff" stroke="#63b8ff" points="102.96,-83.25 97.4,-74.23 96.12,-84.75 102.96,-83.25"/>
</a>
</g>
</g>
<!-- Node7 -->
<g id="Node000007" class="node">
<title>Node7</title>
<g id="a_Node000007"><a xlink:href="ICollider_8h.html" target="_top" xlink:title="Abstract interface for collision detection shapes.">
<polygon fill="white" stroke="#666666" points="227.5,-129 162.5,-129 162.5,-110 227.5,-110 227.5,-129"/>
<text text-anchor="middle" x="195" y="-117" font-family="Helvetica,sans-Serif" font-size="10.00">ICollider.h</text>
</a>
</g>
</g>
<!-- Node6&#45;&gt;Node7 -->
<g id="edge7_Node000006_Node000007" class="edge">
<title>Node6&#45;&gt;Node7</title>
<g id="a_edge7_Node000006_Node000007"><a xlink:title=" ">
<path fill="none" stroke="#63b8ff" d="M195,-164.75C195,-157.8 195,-147.85 195,-139.13"/>
<polygon fill="#63b8ff" stroke="#63b8ff" points="198.5,-139.09 195,-129.09 191.5,-139.09 198.5,-139.09"/>
</a>
</g>
</g>
<!-- Node7&#45;&gt;Node5 -->
<g id="edge8_Node000007_Node000005" class="edge">
<title>Node7&#45;&gt;Node5</title>
<g id="a_edge8_Node000007_Node000005"><a xlink:title=" ">
<path fill="none" stroke="#63b8ff" d="M179.09,-109.98C163.45,-101.61 139.34,-88.7 121.12,-78.95"/>
<polygon fill="#63b8ff" stroke="#63b8ff" points="122.66,-75.8 112.2,-74.17 119.36,-81.98 122.66,-75.8"/>
</a>
</g>
</g>
<!-- Node8 -->
<g id="Node000008" class="node">
<title>Node8</title>
<g id="a_Node000008"><a xlink:title=" ">
<polygon fill="#e0e0e0" stroke="#999999" points="211,-74 153,-74 153,-55 211,-55 211,-74"/>
<text text-anchor="middle" x="182" y="-62" font-family="Helvetica,sans-Serif" font-size="10.00">memory</text>
</a>
</g>
</g>
<!-- Node7&#45;&gt;Node8 -->
<g id="edge9_Node000007_Node000008" class="edge">
<title>Node7&#45;&gt;Node8</title>
<g id="a_edge9_Node000007_Node000008"><a xlink:title=" ">
<path fill="none" stroke="#63b8ff" d="M192.85,-109.75C191.13,-102.72 188.65,-92.62 186.5,-83.84"/>
<polygon fill="#63b8ff" stroke="#63b8ff" points="189.89,-82.97 184.11,-74.09 183.09,-84.63 189.89,-82.97"/>
</a>
</g>
</g>
<!-- Node9 -->
<g id="Node000009" class="node">
<title>Node9</title>
<g id="a_Node000009"><a xlink:title=" ">
<polygon fill="#e0e0e0" stroke="#999999" points="285,-74 229,-74 229,-55 285,-55 285,-74"/>
<text text-anchor="middle" x="257" y="-62" font-family="Helvetica,sans-Serif" font-size="10.00">optional</text>
</a>
</g>
</g>
<!-- Node7&#45;&gt;Node9 -->
<g id="edge10_Node000007_Node000009" class="edge">
<title>Node7&#45;&gt;Node9</title>
<g id="a_edge10_Node000007_Node000009"><a xlink:title=" ">
<path fill="none" stroke="#63b8ff" d="M204.96,-109.98C214.13,-102.15 227.94,-90.34 239.03,-80.86"/>
<polygon fill="#63b8ff" stroke="#63b8ff" points="241.53,-83.33 246.86,-74.17 236.98,-78.01 241.53,-83.33"/>
</a>
</g>
</g>
<!-- Node10 -->
<g id="Node000010" class="node">
<title>Node10</title>
<g id="a_Node000010"><a xlink:href="Ray_8h.html" target="_top" xlink:title=" ">
<polygon fill="white" stroke="#666666" points="374.5,-74 303.5,-74 303.5,-55 374.5,-55 374.5,-74"/>
<text text-anchor="middle" x="339" y="-62" font-family="Helvetica,sans-Serif" font-size="10.00">math/Ray.h</text>
</a>
</g>
</g>
<!-- Node7&#45;&gt;Node10 -->
<g id="edge11_Node000007_Node000010" class="edge">
<title>Node7&#45;&gt;Node10</title>
<g id="a_edge11_Node000007_Node000010"><a xlink:title=" ">
<path fill="none" stroke="#63b8ff" d="M218.14,-109.98C241.82,-101.27 278.87,-87.63 305.71,-77.75"/>
<polygon fill="#63b8ff" stroke="#63b8ff" points="307.27,-80.91 315.44,-74.17 304.85,-74.34 307.27,-80.91"/>
</a>
</g>
</g>
<!-- Node11 -->
<g id="Node000011" class="node">
<title>Node11</title>
<g id="a_Node000011"><a xlink:title=" ">
<polygon fill="#e0e0e0" stroke="#999999" points="380.5,-19 297.5,-19 297.5,0 380.5,0 380.5,-19"/>
<text text-anchor="middle" x="339" y="-7" font-family="Helvetica,sans-Serif" font-size="10.00">glm/vec3.hpp</text>
</a>
</g>
</g>
<!-- Node10&#45;&gt;Node11 -->
<g id="edge12_Node000010_Node000011" class="edge">
<title>Node10&#45;&gt;Node11</title>
<g id="a_edge12_Node000010_Node000011"><a xlink:title=" ">
<path fill="none" stroke="#63b8ff" d="M339,-54.75C339,-47.8 339,-37.85 339,-29.13"/>
<polygon fill="#63b8ff" stroke="#63b8ff" points="342.5,-29.09 339,-19.09 335.5,-29.09 342.5,-29.09"/>
</a>
</g>
</g>
<!-- Node13&#45;&gt;Node5 -->
<g id="edge18_Node000013_Node000005" class="edge">
<title>Node13&#45;&gt;Node5</title>
<g id="a_edge18_Node000013_Node000005"><a xlink:title=" ">
<path fill="none" stroke="#63b8ff" d="M344.5,-173.76C290.64,-171.47 212.41,-161.95 153,-129 133.23,-118.04 116.78,-97.59 106.71,-82.85"/>
<polygon fill="#63b8ff" stroke="#63b8ff" points="109.44,-80.62 101.05,-74.15 103.57,-84.44 109.44,-80.62"/>
</a>
</g>
</g>
<!-- Node14 -->
<g id="Node000014" class="node">
<title>Node14</title>
<g id="a_Node000014"><a xlink:title=" ">
<polygon fill="#e0e0e0" stroke="#999999" points="400,-129 350,-129 350,-110 400,-110 400,-129"/>
<text text-anchor="middle" x="375" y="-117" font-family="Helvetica,sans-Serif" font-size="10.00">atomic</text>
</a>
</g>
</g>
<!-- Node13&#45;&gt;Node14 -->
<g id="edge15_Node000013_Node000014" class="edge">
<title>Node13&#45;&gt;Node14</title>
<g id="a_edge15_Node000013_Node000014"><a xlink:title=" ">
<path fill="none" stroke="#63b8ff" d="M401.72,-164.75C397.29,-157.42 390.84,-146.73 385.38,-137.7"/>
<polygon fill="#63b8ff" stroke="#63b8ff" points="388.35,-135.84 380.19,-129.09 382.36,-139.46 388.35,-135.84"/>
</a>
</g>
</g>
<!-- Node15 -->
<g id="Node000015" class="node">
<title>Node15</title>
<g id="a_Node000015"><a xlink:title=" ">
<polygon fill="#e0e0e0" stroke="#999999" points="462,-129 418,-129 418,-110 462,-110 462,-129"/>
<text text-anchor="middle" x="440" y="-117" font-family="Helvetica,sans-Serif" font-size="10.00">string</text>
</a>
</g>
</g>
<!-- Node13&#45;&gt;Node15 -->
<g id="edge16_Node000013_Node000015" class="edge">
<title>Node13&#45;&gt;Node15</title>
<g id="a_edge16_Node000013_Node000015"><a xlink:title=" ">
<path fill="none" stroke="#63b8ff" d="M412.45,-164.75C417.01,-157.42 423.67,-146.73 429.29,-137.7"/>
<polygon fill="#63b8ff" stroke="#63b8ff" points="432.34,-139.43 434.65,-129.09 426.4,-135.73 432.34,-139.43"/>
</a>
</g>
</g>
<!-- Node16 -->
<g id="Node000016" class="node">
<title>Node16</title>
<g id="a_Node000016"><a xlink:title=" ">
<polygon fill="#e0e0e0" stroke="#999999" points="525.5,-129 480.5,-129 480.5,-110 525.5,-110 525.5,-129"/>
<text text-anchor="middle" x="503" y="-117" font-family="Helvetica,sans-Serif" font-size="10.00">utility</text>
</a>
</g>
</g>
<!-- Node13&#45;&gt;Node16 -->
<g id="edge17_Node000013_Node000016" class="edge">
<title>Node13&#45;&gt;Node16</title>
<g id="a_edge17_Node000013_Node000016"><a xlink:title=" ">
<path fill="none" stroke="#63b8ff" d="M422.42,-164.98C437.45,-156.69 460.54,-143.94 478.16,-134.22"/>
<polygon fill="#63b8ff" stroke="#63b8ff" points="480.23,-137.07 487.3,-129.17 476.85,-130.94 480.23,-137.07"/>
</a>
</g>
</g>
<!-- Node17 -->
<g id="Node000017" class="node">
<title>Node17</title>
<g id="a_Node000017"><a xlink:title=" ">
<polygon fill="#e0e0e0" stroke="#999999" points="590.5,-129 543.5,-129 543.5,-110 590.5,-110 590.5,-129"/>
<text text-anchor="middle" x="567" y="-117" font-family="Helvetica,sans-Serif" font-size="10.00">vector</text>
</a>
</g>
</g>
<!-- Node13&#45;&gt;Node17 -->
<g id="edge19_Node000013_Node000017" class="edge">
<title>Node13&#45;&gt;Node17</title>
<g id="a_edge19_Node000013_Node000017"><a xlink:title=" ">
<path fill="none" stroke="#63b8ff" d="M432.71,-164.98C460.17,-155.89 503.79,-141.44 533.82,-131.49"/>
<polygon fill="#63b8ff" stroke="#63b8ff" points="535.05,-134.77 543.44,-128.3 532.85,-128.13 535.05,-134.77"/>
</a>
</g>
</g>
<!-- Node18 -->
<g id="Node000018" class="node">
<title>Node18</title>
<g id="a_Node000018"><a xlink:title=" ">
<polygon fill="#e0e0e0" stroke="#999999" points="647,-129 609,-129 609,-110 647,-110 647,-129"/>
<text text-anchor="middle" x="628" y="-117" font-family="Helvetica,sans-Serif" font-size="10.00">map</text>
</a>
</g>
</g>
<!-- Node13&#45;&gt;Node18 -->
<g id="edge20_Node000013_Node000018" class="edge">
<title>Node13&#45;&gt;Node18</title>
<g id="a_edge20_Node000013_Node000018"><a xlink:title=" ">
<path fill="none" stroke="#63b8ff" d="M447.86,-164.92C484.92,-156.96 541.26,-144.38 598.78,-129.19"/>
<polygon fill="#63b8ff" stroke="#63b8ff" points="600.01,-132.48 608.77,-126.53 598.21,-125.72 600.01,-132.48"/>
</a>
</g>
</g>
<!-- Node19 -->
<g id="Node000019" class="node">
<title>Node19</title>
<g id="a_Node000019"><a xlink:title=" ">
<polygon fill="#e0e0e0" stroke="#999999" points="713,-129 665,-129 665,-110 713,-110 713,-129"/>
<text text-anchor="middle" x="689" y="-117" font-family="Helvetica,sans-Serif" font-size="10.00">mutex</text>
</a>
</g>
</g>
<!-- Node13&#45;&gt;Node19 -->
<g id="edge21_Node000013_Node000019" class="edge">
<title>Node13&#45;&gt;Node19</title>
<g id="a_edge21_Node000013_Node000019"><a xlink:title=" ">
<path fill="none" stroke="#63b8ff" d="M461.64,-164.95C509.97,-157.11 582.61,-144.67 654.73,-129.14"/>
<polygon fill="#63b8ff" stroke="#63b8ff" points="655.87,-132.48 664.9,-126.93 654.38,-125.64 655.87,-132.48"/>
</a>
</g>
</g>
<!-- Node20 -->
<g id="Node000020" class="node">
<title>Node20</title>
<g id="a_Node000020"><a xlink:title=" ">
<polygon fill="#e0e0e0" stroke="#999999" points="332,-129 246,-129 246,-110 332,-110 332,-129"/>
<text text-anchor="middle" x="289" y="-117" font-family="Helvetica,sans-Serif" font-size="10.00">unordered_set</text>
</a>
</g>
</g>
<!-- Node13&#45;&gt;Node20 -->
<g id="edge22_Node000013_Node000020" class="edge">
<title>Node13&#45;&gt;Node20</title>
<g id="a_edge22_Node000013_Node000020"><a xlink:title=" ">
<path fill="none" stroke="#63b8ff" d="M388.04,-164.98C368.97,-156.42 339.34,-143.11 317.45,-133.28"/>
<polygon fill="#63b8ff" stroke="#63b8ff" points="318.86,-130.07 308.3,-129.17 315.99,-136.46 318.86,-130.07"/>
</a>
</g>
</g>
</g>
</svg>
