<?xml version="1.0" encoding="UTF-8" standalone="no"?>
<!DOCTYPE svg PUBLIC "-//W3C//DTD SVG 1.1//EN"
 "http://www.w3.org/Graphics/SVG/1.1/DTD/svg11.dtd">
<!-- Generated by graphviz version 2.43.0 (0)
 -->
<!-- Title: src/ui/settings/CameraTab.h Pages: 1 -->
<svg width="172pt" height="82pt"
 viewBox="0.00 0.00 171.50 82.00" xmlns="http://www.w3.org/2000/svg" xmlns:xlink="http://www.w3.org/1999/xlink">
<g id="graph0" class="graph" transform="scale(1 1) rotate(0) translate(4 78)">
<title>src/ui/settings/CameraTab.h</title>
<!-- Node1 -->
<g id="Node000001" class="node">
<title>Node1</title>
<g id="a_Node000001"><a xlink:title=" ">
<polygon fill="#999999" stroke="#666666" points="152,-74 0,-74 0,-55 152,-55 152,-74"/>
<text text-anchor="middle" x="76" y="-62" font-family="Helvetica,sans-Serif" font-size="10.00">src/ui/settings/CameraTab.h</text>
</a>
</g>
</g>
<!-- Node2 -->
<g id="Node000002" class="node">
<title>Node2</title>
<g id="a_Node000002"><a xlink:title=" ">
<polygon fill="#e0e0e0" stroke="#999999" points="60.5,-19 1.5,-19 1.5,0 60.5,0 60.5,-19"/>
<text text-anchor="middle" x="31" y="-7" font-family="Helvetica,sans-Serif" font-size="10.00">QWidget</text>
</a>
</g>
</g>
<!-- Node1&#45;&gt;Node2 -->
<g id="edge1_Node000001_Node000002" class="edge">
<title>Node1&#45;&gt;Node2</title>
<g id="a_edge1_Node000001_Node000002"><a xlink:title=" ">
<path fill="none" stroke="#63b8ff" d="M68.57,-54.75C62.15,-47.18 52.69,-36.05 44.88,-26.84"/>
<polygon fill="#63b8ff" stroke="#63b8ff" points="47.43,-24.45 38.29,-19.09 42.1,-28.98 47.43,-24.45"/>
</a>
</g>
</g>
<!-- Node3 -->
<g id="Node000003" class="node">
<title>Node3</title>
<g id="a_Node000003"><a xlink:href="ISettingsTab_8h.html" target="_top" xlink:title=" ">
<polygon fill="white" stroke="#666666" points="163.5,-19 78.5,-19 78.5,0 163.5,0 163.5,-19"/>
<text text-anchor="middle" x="121" y="-7" font-family="Helvetica,sans-Serif" font-size="10.00">ISettingsTab.h</text>
</a>
</g>
</g>
<!-- Node1&#45;&gt;Node3 -->
<g id="edge2_Node000001_Node000003" class="edge">
<title>Node1&#45;&gt;Node3</title>
<g id="a_edge2_Node000001_Node000003"><a xlink:title=" ">
<path fill="none" stroke="#63b8ff" d="M83.43,-54.75C89.85,-47.18 99.31,-36.05 107.12,-26.84"/>
<polygon fill="#63b8ff" stroke="#63b8ff" points="109.9,-28.98 113.71,-19.09 104.57,-24.45 109.9,-28.98"/>
</a>
</g>
</g>
</g>
</svg>
