<?xml version="1.0" encoding="UTF-8" standalone="no"?>
<!DOCTYPE svg PUBLIC "-//W3C//DTD SVG 1.1//EN"
 "http://www.w3.org/Graphics/SVG/1.1/DTD/svg11.dtd">
<!-- Generated by graphviz version 2.43.0 (0)
 -->
<!-- Title: src/ui/settings/CameraSettingsGroup.cpp Pages: 1 -->
<svg width="256pt" height="203pt"
 viewBox="0.00 0.00 256.00 203.00" xmlns="http://www.w3.org/2000/svg" xmlns:xlink="http://www.w3.org/1999/xlink">

<svg id="main" version="1.1" xmlns="http://www.w3.org/2000/svg" xmlns:xlink="http://www.w3.org/1999/xlink" xml:space="preserve" onload="init(evt)">
<style type="text/css"><![CDATA[
.node, .edge {opacity: 0.7;}
.node.selected, .edge.selected {opacity: 1;}
.edge:hover path { stroke: red; }
.edge:hover polygon { stroke: red; fill: red; }
]]></style>
<script type="application/ecmascript" xlink:href="svg.min.js"/>
<svg id="graph" class="graph">
<g id="graph0" class="graph" transform="scale(1 1) rotate(0) translate(4 199)">
<title>src/ui/settings/CameraSettingsGroup.cpp</title>
<!-- Node1 -->
<g id="Node000001" class="node">
<title>Node1</title>
<g id="a_Node000001"><a xlink:title=" ">
<polygon fill="#999999" stroke="#666666" points="198,-195 32,-195 32,-165 198,-165 198,-195"/>
<text text-anchor="start" x="40" y="-183" font-family="Helvetica,sans-Serif" font-size="10.00">src/ui/settings/CameraSettings</text>
<text text-anchor="middle" x="115" y="-172" font-family="Helvetica,sans-Serif" font-size="10.00">Group.cpp</text>
</a>
</g>
</g>
<!-- Node2 -->
<g id="Node000002" class="node">
<title>Node2</title>
<g id="a_Node000002"><a xlink:href="CameraSettingsGroup_8h.html" target="_top" xlink:title=" ">
<polygon fill="white" stroke="#666666" points="181.5,-129 48.5,-129 48.5,-110 181.5,-110 181.5,-129"/>
<text text-anchor="middle" x="115" y="-117" font-family="Helvetica,sans-Serif" font-size="10.00">CameraSettingsGroup.h</text>
</a>
</g>
</g>
<!-- Node1&#45;&gt;Node2 -->
<g id="edge1_Node000001_Node000002" class="edge">
<title>Node1&#45;&gt;Node2</title>
<g id="a_edge1_Node000001_Node000002"><a xlink:title=" ">
<path fill="none" stroke="#63b8ff" d="M115,-164.84C115,-157.21 115,-147.7 115,-139.45"/>
<polygon fill="#63b8ff" stroke="#63b8ff" points="118.5,-139.27 115,-129.27 111.5,-139.27 118.5,-139.27"/>
</a>
</g>
</g>
<!-- Node3 -->
<g id="Node000003" class="node">
<title>Node3</title>
<g id="a_Node000003"><a xlink:href="ISettingsGroup_8h.html" target="_top" xlink:title=" ">
<polygon fill="white" stroke="#666666" points="98,-74 0,-74 0,-55 98,-55 98,-74"/>
<text text-anchor="middle" x="49" y="-62" font-family="Helvetica,sans-Serif" font-size="10.00">ISettingsGroup.h</text>
</a>
</g>
</g>
<!-- Node2&#45;&gt;Node3 -->
<g id="edge2_Node000002_Node000003" class="edge">
<title>Node2&#45;&gt;Node3</title>
<g id="a_edge2_Node000002_Node000003"><a xlink:title=" ">
<path fill="none" stroke="#63b8ff" d="M104.4,-109.98C94.54,-102.07 79.65,-90.11 67.78,-80.58"/>
<polygon fill="#63b8ff" stroke="#63b8ff" points="69.79,-77.7 59.8,-74.17 65.4,-83.16 69.79,-77.7"/>
</a>
</g>
</g>
<!-- Node5 -->
<g id="Node000005" class="node">
<title>Node5</title>
<g id="a_Node000005"><a xlink:href="Camera_8h.html" target="_top" xlink:title=" ">
<polygon fill="white" stroke="#666666" points="248,-74 116,-74 116,-55 248,-55 248,-74"/>
<text text-anchor="middle" x="182" y="-62" font-family="Helvetica,sans-Serif" font-size="10.00">graphics/core/Camera.h</text>
</a>
</g>
</g>
<!-- Node2&#45;&gt;Node5 -->
<g id="edge4_Node000002_Node000005" class="edge">
<title>Node2&#45;&gt;Node5</title>
<g id="a_edge4_Node000002_Node000005"><a xlink:title=" ">
<path fill="none" stroke="#63b8ff" d="M125.76,-109.98C135.77,-102.07 150.89,-90.11 162.93,-80.58"/>
<polygon fill="#63b8ff" stroke="#63b8ff" points="165.37,-83.12 171.04,-74.17 161.03,-77.63 165.37,-83.12"/>
</a>
</g>
</g>
<!-- Node4 -->
<g id="Node000004" class="node">
<title>Node4</title>
<g id="a_Node000004"><a xlink:title=" ">
<polygon fill="#e0e0e0" stroke="#999999" points="81,-19 17,-19 17,0 81,0 81,-19"/>
<text text-anchor="middle" x="49" y="-7" font-family="Helvetica,sans-Serif" font-size="10.00">QSettings</text>
</a>
</g>
</g>
<!-- Node3&#45;&gt;Node4 -->
<g id="edge3_Node000003_Node000004" class="edge">
<title>Node3&#45;&gt;Node4</title>
<g id="a_edge3_Node000003_Node000004"><a xlink:title=" ">
<path fill="none" stroke="#63b8ff" d="M49,-54.75C49,-47.8 49,-37.85 49,-29.13"/>
<polygon fill="#63b8ff" stroke="#63b8ff" points="52.5,-29.09 49,-19.09 45.5,-29.09 52.5,-29.09"/>
</a>
</g>
</g>
<!-- Node6 -->
<g id="Node000006" class="node">
<title>Node6</title>
<g id="a_Node000006"><a xlink:title=" ">
<polygon fill="#e0e0e0" stroke="#999999" points="221,-19 143,-19 143,0 221,0 221,-19"/>
<text text-anchor="middle" x="182" y="-7" font-family="Helvetica,sans-Serif" font-size="10.00">glm/glm.hpp</text>
</a>
</g>
</g>
<!-- Node5&#45;&gt;Node6 -->
<g id="edge5_Node000005_Node000006" class="edge">
<title>Node5&#45;&gt;Node6</title>
<g id="a_edge5_Node000005_Node000006"><a xlink:title=" ">
<path fill="none" stroke="#63b8ff" d="M182,-54.75C182,-47.8 182,-37.85 182,-29.13"/>
<polygon fill="#63b8ff" stroke="#63b8ff" points="185.5,-29.09 182,-19.09 178.5,-29.09 185.5,-29.09"/>
</a>
</g>
</g>
</g>
</svg>
</svg>

<style type='text/css'>
<![CDATA[
[data-mouse-over-selected='false'] { opacity: 0.7; }
[data-mouse-over-selected='true']  { opacity: 1.0; }
]]>
</style>
<script type="application/ecmascript"><![CDATA[
document.addEventListener('DOMContentLoaded', (event) => {
  highlightEdges();
  highlightAdjacentNodes();
});
]]></script>
</svg>
