<?xml version="1.0" encoding="UTF-8" standalone="no"?>
<!DOCTYPE svg PUBLIC "-//W3C//DTD SVG 1.1//EN"
 "http://www.w3.org/Graphics/SVG/1.1/DTD/svg11.dtd">
<!-- Generated by graphviz version 2.43.0 (0)
 -->
<!-- Title: src/ui/settings/CameraTab.cpp Pages: 1 -->
<svg width="777pt" height="203pt"
 viewBox="0.00 0.00 776.50 203.00" xmlns="http://www.w3.org/2000/svg" xmlns:xlink="http://www.w3.org/1999/xlink">
<g id="graph0" class="graph" transform="scale(1 1) rotate(0) translate(4 199)">
<title>src/ui/settings/CameraTab.cpp</title>
<!-- Node1 -->
<g id="Node000001" class="node">
<title>Node1</title>
<g id="a_Node000001"><a xlink:title=" ">
<polygon fill="#999999" stroke="#666666" points="346,-195 183,-195 183,-176 346,-176 346,-195"/>
<text text-anchor="middle" x="264.5" y="-183" font-family="Helvetica,sans-Serif" font-size="10.00">src/ui/settings/CameraTab.cpp</text>
</a>
</g>
</g>
<!-- Node2 -->
<g id="Node000002" class="node">
<title>Node2</title>
<g id="a_Node000002"><a xlink:href="CameraTab_8h.html" target="_top" xlink:title=" ">
<polygon fill="white" stroke="#666666" points="97.5,-134.5 17.5,-134.5 17.5,-115.5 97.5,-115.5 97.5,-134.5"/>
<text text-anchor="middle" x="57.5" y="-122.5" font-family="Helvetica,sans-Serif" font-size="10.00">CameraTab.h</text>
</a>
</g>
</g>
<!-- Node1&#45;&gt;Node2 -->
<g id="edge1_Node000001_Node000002" class="edge">
<title>Node1&#45;&gt;Node2</title>
<g id="a_edge1_Node000001_Node000002"><a xlink:title=" ">
<path fill="none" stroke="#63b8ff" d="M233.91,-175.92C202.07,-166.98 150.78,-152.56 106.5,-140 103.39,-139.12 100.18,-138.2 96.94,-137.28"/>
<polygon fill="#63b8ff" stroke="#63b8ff" points="97.87,-133.91 87.29,-134.53 95.95,-140.64 97.87,-133.91"/>
</a>
</g>
</g>
<!-- Node5 -->
<g id="Node000005" class="node">
<title>Node5</title>
<g id="a_Node000005"><a xlink:title=" ">
<polygon fill="#e0e0e0" stroke="#999999" points="197.5,-134.5 115.5,-134.5 115.5,-115.5 197.5,-115.5 197.5,-134.5"/>
<text text-anchor="middle" x="156.5" y="-122.5" font-family="Helvetica,sans-Serif" font-size="10.00">QFormLayout</text>
</a>
</g>
</g>
<!-- Node1&#45;&gt;Node5 -->
<g id="edge4_Node000001_Node000005" class="edge">
<title>Node1&#45;&gt;Node5</title>
<g id="a_edge4_Node000001_Node000005"><a xlink:title=" ">
<path fill="none" stroke="#63b8ff" d="M248.56,-175.87C230.86,-166.28 202.04,-150.67 181.36,-139.47"/>
<polygon fill="#63b8ff" stroke="#63b8ff" points="182.96,-136.35 172.5,-134.67 179.63,-142.51 182.96,-136.35"/>
</a>
</g>
</g>
<!-- Node6 -->
<g id="Node000006" class="node">
<title>Node6</title>
<g id="a_Node000006"><a xlink:title=" ">
<polygon fill="#e0e0e0" stroke="#999999" points="313.5,-134.5 215.5,-134.5 215.5,-115.5 313.5,-115.5 313.5,-134.5"/>
<text text-anchor="middle" x="264.5" y="-122.5" font-family="Helvetica,sans-Serif" font-size="10.00">QDoubleSpinBox</text>
</a>
</g>
</g>
<!-- Node1&#45;&gt;Node6 -->
<g id="edge5_Node000001_Node000006" class="edge">
<title>Node1&#45;&gt;Node6</title>
<g id="a_edge5_Node000001_Node000006"><a xlink:title=" ">
<path fill="none" stroke="#63b8ff" d="M264.5,-175.87C264.5,-167.75 264.5,-155.31 264.5,-144.89"/>
<polygon fill="#63b8ff" stroke="#63b8ff" points="268,-144.67 264.5,-134.67 261,-144.67 268,-144.67"/>
</a>
</g>
</g>
<!-- Node7 -->
<g id="Node000007" class="node">
<title>Node7</title>
<g id="a_Node000007"><a xlink:href="AppSettings_8h.html" target="_top" xlink:title=" ">
<polygon fill="white" stroke="#666666" points="427.5,-134.5 331.5,-134.5 331.5,-115.5 427.5,-115.5 427.5,-134.5"/>
<text text-anchor="middle" x="379.5" y="-122.5" font-family="Helvetica,sans-Serif" font-size="10.00">ui/AppSettings.h</text>
</a>
</g>
</g>
<!-- Node1&#45;&gt;Node7 -->
<g id="edge6_Node000001_Node000007" class="edge">
<title>Node1&#45;&gt;Node7</title>
<g id="a_edge6_Node000001_Node000007"><a xlink:title=" ">
<path fill="none" stroke="#63b8ff" d="M281.47,-175.87C300.41,-166.23 331.29,-150.53 353.33,-139.31"/>
<polygon fill="#63b8ff" stroke="#63b8ff" points="355.14,-142.32 362.46,-134.67 351.96,-136.08 355.14,-142.32"/>
</a>
</g>
</g>
<!-- Node13 -->
<g id="Node000013" class="node">
<title>Node13</title>
<g id="a_Node000013"><a xlink:href="CameraSettingsGroup_8h.html" target="_top" xlink:title=" ">
<polygon fill="white" stroke="#666666" points="623,-140 474,-140 474,-110 623,-110 623,-140"/>
<text text-anchor="start" x="482" y="-128" font-family="Helvetica,sans-Serif" font-size="10.00">ui/settings/CameraSettings</text>
<text text-anchor="middle" x="548.5" y="-117" font-family="Helvetica,sans-Serif" font-size="10.00">Group.h</text>
</a>
</g>
</g>
<!-- Node1&#45;&gt;Node13 -->
<g id="edge13_Node000001_Node000013" class="edge">
<title>Node1&#45;&gt;Node13</title>
<g id="a_edge13_Node000001_Node000013"><a xlink:title=" ">
<path fill="none" stroke="#63b8ff" d="M305.8,-175.99C348.79,-167.14 417.17,-153.05 470.4,-142.09"/>
<polygon fill="#63b8ff" stroke="#63b8ff" points="471.41,-145.45 480.5,-140.01 470,-138.6 471.41,-145.45"/>
</a>
</g>
</g>
<!-- Node3 -->
<g id="Node000003" class="node">
<title>Node3</title>
<g id="a_Node000003"><a xlink:title=" ">
<polygon fill="#e0e0e0" stroke="#999999" points="59,-74 0,-74 0,-55 59,-55 59,-74"/>
<text text-anchor="middle" x="29.5" y="-62" font-family="Helvetica,sans-Serif" font-size="10.00">QWidget</text>
</a>
</g>
</g>
<!-- Node2&#45;&gt;Node3 -->
<g id="edge2_Node000002_Node000003" class="edge">
<title>Node2&#45;&gt;Node3</title>
<g id="a_edge2_Node000002_Node000003"><a xlink:title=" ">
<path fill="none" stroke="#63b8ff" d="M53.37,-115.37C49.36,-106.99 43.15,-94.01 38.06,-83.39"/>
<polygon fill="#63b8ff" stroke="#63b8ff" points="41.12,-81.68 33.65,-74.17 34.81,-84.7 41.12,-81.68"/>
</a>
</g>
</g>
<!-- Node4 -->
<g id="Node000004" class="node">
<title>Node4</title>
<g id="a_Node000004"><a xlink:href="ISettingsTab_8h.html" target="_top" xlink:title=" ">
<polygon fill="white" stroke="#666666" points="162,-74 77,-74 77,-55 162,-55 162,-74"/>
<text text-anchor="middle" x="119.5" y="-62" font-family="Helvetica,sans-Serif" font-size="10.00">ISettingsTab.h</text>
</a>
</g>
</g>
<!-- Node2&#45;&gt;Node4 -->
<g id="edge3_Node000002_Node000004" class="edge">
<title>Node2&#45;&gt;Node4</title>
<g id="a_edge3_Node000002_Node000004"><a xlink:title=" ">
<path fill="none" stroke="#63b8ff" d="M66.65,-115.37C76.17,-106.38 91.3,-92.11 102.93,-81.14"/>
<polygon fill="#63b8ff" stroke="#63b8ff" points="105.44,-83.58 110.31,-74.17 100.64,-78.48 105.44,-83.58"/>
</a>
</g>
</g>
<!-- Node8 -->
<g id="Node000008" class="node">
<title>Node8</title>
<g id="a_Node000008"><a xlink:title=" ">
<polygon fill="#e0e0e0" stroke="#999999" points="418.5,-19 354.5,-19 354.5,0 418.5,0 418.5,-19"/>
<text text-anchor="middle" x="386.5" y="-7" font-family="Helvetica,sans-Serif" font-size="10.00">QSettings</text>
</a>
</g>
</g>
<!-- Node7&#45;&gt;Node8 -->
<g id="edge7_Node000007_Node000008" class="edge">
<title>Node7&#45;&gt;Node8</title>
<g id="a_edge7_Node000007_Node000008"><a xlink:title=" ">
<path fill="none" stroke="#63b8ff" d="M351.1,-115.46C313.15,-103.77 249.91,-83.18 243.5,-74 238.67,-67.07 238.49,-61.8 243.5,-55 266.38,-23.92 310.8,-13.92 344.1,-11"/>
<polygon fill="#63b8ff" stroke="#63b8ff" points="344.74,-14.47 354.47,-10.29 344.25,-7.49 344.74,-14.47"/>
</a>
</g>
</g>
<!-- Node9 -->
<g id="Node000009" class="node">
<title>Node9</title>
<g id="a_Node000009"><a xlink:title=" ">
<polygon fill="#e0e0e0" stroke="#999999" points="300,-74 253,-74 253,-55 300,-55 300,-74"/>
<text text-anchor="middle" x="276.5" y="-62" font-family="Helvetica,sans-Serif" font-size="10.00">vector</text>
</a>
</g>
</g>
<!-- Node7&#45;&gt;Node9 -->
<g id="edge8_Node000007_Node000009" class="edge">
<title>Node7&#45;&gt;Node9</title>
<g id="a_edge8_Node000007_Node000009"><a xlink:title=" ">
<path fill="none" stroke="#63b8ff" d="M364.3,-115.37C347.49,-105.82 320.18,-90.31 300.48,-79.12"/>
<polygon fill="#63b8ff" stroke="#63b8ff" points="302.18,-76.06 291.76,-74.17 298.73,-82.15 302.18,-76.06"/>
</a>
</g>
</g>
<!-- Node10 -->
<g id="Node000010" class="node">
<title>Node10</title>
<g id="a_Node000010"><a xlink:title=" ">
<polygon fill="#e0e0e0" stroke="#999999" points="376.5,-74 318.5,-74 318.5,-55 376.5,-55 376.5,-74"/>
<text text-anchor="middle" x="347.5" y="-62" font-family="Helvetica,sans-Serif" font-size="10.00">memory</text>
</a>
</g>
</g>
<!-- Node7&#45;&gt;Node10 -->
<g id="edge9_Node000007_Node000010" class="edge">
<title>Node7&#45;&gt;Node10</title>
<g id="a_edge9_Node000007_Node000010"><a xlink:title=" ">
<path fill="none" stroke="#63b8ff" d="M374.78,-115.37C370.15,-106.9 362.95,-93.74 357.11,-83.07"/>
<polygon fill="#63b8ff" stroke="#63b8ff" points="360.11,-81.26 352.24,-74.17 353.97,-84.62 360.11,-81.26"/>
</a>
</g>
</g>
<!-- Node11 -->
<g id="Node000011" class="node">
<title>Node11</title>
<g id="a_Node000011"><a xlink:title=" ">
<polygon fill="#e0e0e0" stroke="#999999" points="460,-74 395,-74 395,-55 460,-55 460,-74"/>
<text text-anchor="middle" x="427.5" y="-62" font-family="Helvetica,sans-Serif" font-size="10.00">stdexcept</text>
</a>
</g>
</g>
<!-- Node7&#45;&gt;Node11 -->
<g id="edge10_Node000007_Node000011" class="edge">
<title>Node7&#45;&gt;Node11</title>
<g id="a_edge10_Node000007_Node000011"><a xlink:title=" ">
<path fill="none" stroke="#63b8ff" d="M386.58,-115.37C393.74,-106.64 404.99,-92.93 413.89,-82.09"/>
<polygon fill="#63b8ff" stroke="#63b8ff" points="416.75,-84.12 420.39,-74.17 411.34,-79.68 416.75,-84.12"/>
</a>
</g>
</g>
<!-- Node12 -->
<g id="Node000012" class="node">
<title>Node12</title>
<g id="a_Node000012"><a xlink:href="ISettingsGroup_8h.html" target="_top" xlink:title=" ">
<polygon fill="white" stroke="#666666" points="618.5,-74 478.5,-74 478.5,-55 618.5,-55 618.5,-74"/>
<text text-anchor="middle" x="548.5" y="-62" font-family="Helvetica,sans-Serif" font-size="10.00">settings/ISettingsGroup.h</text>
</a>
</g>
</g>
<!-- Node7&#45;&gt;Node12 -->
<g id="edge11_Node000007_Node000012" class="edge">
<title>Node7&#45;&gt;Node12</title>
<g id="a_edge11_Node000007_Node000012"><a xlink:title=" ">
<path fill="none" stroke="#63b8ff" d="M404.07,-115.49C433.11,-105.44 481.6,-88.66 514.3,-77.34"/>
<polygon fill="#63b8ff" stroke="#63b8ff" points="515.59,-80.6 523.9,-74.02 513.3,-73.98 515.59,-80.6"/>
</a>
</g>
</g>
<!-- Node12&#45;&gt;Node8 -->
<g id="edge12_Node000012_Node000008" class="edge">
<title>Node12&#45;&gt;Node8</title>
<g id="a_edge12_Node000012_Node000008"><a xlink:title=" ">
<path fill="none" stroke="#63b8ff" d="M522.47,-54.98C495.39,-46.13 452.79,-32.19 422.49,-22.28"/>
<polygon fill="#63b8ff" stroke="#63b8ff" points="423.32,-18.87 412.73,-19.08 421.15,-25.52 423.32,-18.87"/>
</a>
</g>
</g>
<!-- Node13&#45;&gt;Node12 -->
<g id="edge14_Node000013_Node000012" class="edge">
<title>Node13&#45;&gt;Node12</title>
<g id="a_edge14_Node000013_Node000012"><a xlink:title=" ">
<path fill="none" stroke="#63b8ff" d="M548.5,-109.84C548.5,-102.21 548.5,-92.7 548.5,-84.45"/>
<polygon fill="#63b8ff" stroke="#63b8ff" points="552,-84.27 548.5,-74.27 545,-84.27 552,-84.27"/>
</a>
</g>
</g>
<!-- Node14 -->
<g id="Node000014" class="node">
<title>Node14</title>
<g id="a_Node000014"><a xlink:href="Camera_8h.html" target="_top" xlink:title=" ">
<polygon fill="white" stroke="#666666" points="768.5,-74 636.5,-74 636.5,-55 768.5,-55 768.5,-74"/>
<text text-anchor="middle" x="702.5" y="-62" font-family="Helvetica,sans-Serif" font-size="10.00">graphics/core/Camera.h</text>
</a>
</g>
</g>
<!-- Node13&#45;&gt;Node14 -->
<g id="edge15_Node000013_Node000014" class="edge">
<title>Node13&#45;&gt;Node14</title>
<g id="a_edge15_Node000013_Node000014"><a xlink:title=" ">
<path fill="none" stroke="#63b8ff" d="M585.39,-109.99C611.2,-100.18 645.35,-87.21 670.1,-77.81"/>
<polygon fill="#63b8ff" stroke="#63b8ff" points="671.65,-80.96 679.76,-74.14 669.17,-74.42 671.65,-80.96"/>
</a>
</g>
</g>
<!-- Node15 -->
<g id="Node000015" class="node">
<title>Node15</title>
<g id="a_Node000015"><a xlink:title=" ">
<polygon fill="#e0e0e0" stroke="#999999" points="741.5,-19 663.5,-19 663.5,0 741.5,0 741.5,-19"/>
<text text-anchor="middle" x="702.5" y="-7" font-family="Helvetica,sans-Serif" font-size="10.00">glm/glm.hpp</text>
</a>
</g>
</g>
<!-- Node14&#45;&gt;Node15 -->
<g id="edge16_Node000014_Node000015" class="edge">
<title>Node14&#45;&gt;Node15</title>
<g id="a_edge16_Node000014_Node000015"><a xlink:title=" ">
<path fill="none" stroke="#63b8ff" d="M702.5,-54.75C702.5,-47.8 702.5,-37.85 702.5,-29.13"/>
<polygon fill="#63b8ff" stroke="#63b8ff" points="706,-29.09 702.5,-19.09 699,-29.09 706,-29.09"/>
</a>
</g>
</g>
</g>
</svg>
