<?xml version="1.0" encoding="UTF-8" standalone="no"?>
<!DOCTYPE svg PUBLIC "-//W3C//DTD SVG 1.1//EN"
 "http://www.w3.org/Graphics/SVG/1.1/DTD/svg11.dtd">
<!-- Generated by graphviz version 2.43.0 (0)
 -->
<!-- Title: Physics::RigidBody::resolveCollisionWithPointMass Pages: 1 -->
<svg width="357pt" height="402pt"
 viewBox="0.00 0.00 357.00 402.00" xmlns="http://www.w3.org/2000/svg" xmlns:xlink="http://www.w3.org/1999/xlink">

<svg id="main" version="1.1" xmlns="http://www.w3.org/2000/svg" xmlns:xlink="http://www.w3.org/1999/xlink" xml:space="preserve" onload="init(evt)">
<style type="text/css"><![CDATA[
.node, .edge {opacity: 0.7;}
.node.selected, .edge.selected {opacity: 1;}
.edge:hover path { stroke: red; }
.edge:hover polygon { stroke: red; fill: red; }
]]></style>
<script type="application/ecmascript" xlink:href="svg.min.js"/>
<svg id="graph" class="graph">
<g id="graph0" class="graph" transform="scale(1 1) rotate(0) translate(4 398)">
<title>Physics::RigidBody::resolveCollisionWithPointMass</title>
<!-- Node1 -->
<g id="Node000001" class="node">
<title>Node1</title>
<g id="a_Node000001"><a xlink:title=" ">
<polygon fill="#999999" stroke="#666666" points="173,-212 0,-212 0,-182 173,-182 173,-212"/>
<text text-anchor="start" x="8" y="-200" font-family="Helvetica,sans-Serif" font-size="10.00">Physics::RigidBody</text>
<text text-anchor="middle" x="86.5" y="-189" font-family="Helvetica,sans-Serif" font-size="10.00">::resolveCollisionWithPointMass</text>
</a>
</g>
</g>
<!-- Node2 -->
<g id="Node000002" class="node">
<title>Node2</title>
<g id="a_Node000002"><a xlink:href="classPhysics_1_1PointMass.html#aad903165a31093747ecd85f644a84bd3" target="_top" xlink:title=" ">
<polygon fill="white" stroke="#666666" points="334,-394 224,-394 224,-364 334,-364 334,-394"/>
<text text-anchor="start" x="232" y="-382" font-family="Helvetica,sans-Serif" font-size="10.00">Physics::PointMass</text>
<text text-anchor="middle" x="279" y="-371" font-family="Helvetica,sans-Serif" font-size="10.00">::applyImpulse</text>
</a>
</g>
</g>
<!-- Node1&#45;&gt;Node2 -->
<g id="edge1_Node000001_Node000002" class="edge">
<title>Node1&#45;&gt;Node2</title>
<g id="a_edge1_Node000001_Node000002"><a xlink:title=" ">
<path fill="none" stroke="#63b8ff" d="M95.33,-212.43C112,-243.78 154,-315.32 209,-355 211.07,-356.49 213.24,-357.9 215.48,-359.23"/>
<polygon fill="#63b8ff" stroke="#63b8ff" points="213.96,-362.38 224.43,-363.94 217.22,-356.18 213.96,-362.38"/>
</a>
</g>
</g>
<!-- Node3 -->
<g id="Node000003" class="node">
<title>Node3</title>
<g id="a_Node000003"><a xlink:href="classICollider.html#a764e71a6134a33f339affd6eea363841" target="_top" xlink:title=" ">
<polygon fill="white" stroke="#666666" points="340,-345.5 218,-345.5 218,-326.5 340,-326.5 340,-345.5"/>
<text text-anchor="middle" x="279" y="-333.5" font-family="Helvetica,sans-Serif" font-size="10.00">ICollider::closestPoint</text>
</a>
</g>
</g>
<!-- Node1&#45;&gt;Node3 -->
<g id="edge2_Node000001_Node000003" class="edge">
<title>Node1&#45;&gt;Node3</title>
<g id="a_edge2_Node000001_Node000003"><a xlink:title=" ">
<path fill="none" stroke="#63b8ff" d="M98.76,-212.41C118.29,-238.02 161,-289.26 209,-317 212.86,-319.23 216.99,-321.2 221.24,-322.96"/>
<polygon fill="#63b8ff" stroke="#63b8ff" points="220.08,-326.26 230.67,-326.44 222.51,-319.69 220.08,-326.26"/>
</a>
</g>
</g>
<!-- Node4 -->
<g id="Node000004" class="node">
<title>Node4</title>
<g id="a_Node000004"><a xlink:href="classPhysics_1_1PhysicsBody.html#a6fb25efd74ad88f01f5c481bd516bad8" target="_top" xlink:title=" ">
<polygon fill="white" stroke="#666666" points="339.5,-308 218.5,-308 218.5,-278 339.5,-278 339.5,-308"/>
<text text-anchor="start" x="226.5" y="-296" font-family="Helvetica,sans-Serif" font-size="10.00">Physics::PhysicsBody</text>
<text text-anchor="middle" x="279" y="-285" font-family="Helvetica,sans-Serif" font-size="10.00">::getAllForces</text>
</a>
</g>
</g>
<!-- Node1&#45;&gt;Node4 -->
<g id="edge3_Node000001_Node000004" class="edge">
<title>Node1&#45;&gt;Node4</title>
<g id="a_edge3_Node000001_Node000004"><a xlink:title=" ">
<path fill="none" stroke="#63b8ff" d="M110.04,-212.23C133.89,-227.88 172.98,-252.27 209,-269 212.99,-270.85 217.17,-272.65 221.4,-274.36"/>
<polygon fill="#63b8ff" stroke="#63b8ff" points="220.14,-277.62 230.73,-277.97 222.67,-271.1 220.14,-277.62"/>
</a>
</g>
</g>
<!-- Node5 -->
<g id="Node000005" class="node">
<title>Node5</title>
<g id="a_Node000005"><a xlink:href="classPhysics_1_1PhysicsBody.html#a0c44730bee1088e28f85b4579f506c7d" target="_top" xlink:title=" ">
<polygon fill="white" stroke="#666666" points="339.5,-260 218.5,-260 218.5,-230 339.5,-230 339.5,-260"/>
<text text-anchor="start" x="226.5" y="-248" font-family="Helvetica,sans-Serif" font-size="10.00">Physics::PhysicsBody</text>
<text text-anchor="middle" x="279" y="-237" font-family="Helvetica,sans-Serif" font-size="10.00">::getMass</text>
</a>
</g>
</g>
<!-- Node1&#45;&gt;Node5 -->
<g id="edge4_Node000001_Node000005" class="edge">
<title>Node1&#45;&gt;Node5</title>
<g id="a_edge4_Node000001_Node000005"><a xlink:title=" ">
<path fill="none" stroke="#63b8ff" d="M147.25,-212.06C166.76,-216.97 188.58,-222.47 208.72,-227.54"/>
<polygon fill="#63b8ff" stroke="#63b8ff" points="207.91,-230.95 218.46,-230 209.62,-224.16 207.91,-230.95"/>
</a>
</g>
</g>
<!-- Node6 -->
<g id="Node000006" class="node">
<title>Node6</title>
<g id="a_Node000006"><a xlink:href="classPhysics_1_1PhysicsBody.html#ac4112265c85a99f20fb69008db8e8754" target="_top" xlink:title=" ">
<polygon fill="white" stroke="#666666" points="339.5,-212 218.5,-212 218.5,-182 339.5,-182 339.5,-212"/>
<text text-anchor="start" x="226.5" y="-200" font-family="Helvetica,sans-Serif" font-size="10.00">Physics::PhysicsBody</text>
<text text-anchor="middle" x="279" y="-189" font-family="Helvetica,sans-Serif" font-size="10.00">::getPosition</text>
</a>
</g>
</g>
<!-- Node1&#45;&gt;Node6 -->
<g id="edge5_Node000001_Node000006" class="edge">
<title>Node1&#45;&gt;Node6</title>
<g id="a_edge5_Node000001_Node000006"><a xlink:title=" ">
<path fill="none" stroke="#63b8ff" d="M173.28,-197C184.92,-197 196.76,-197 208.08,-197"/>
<polygon fill="#63b8ff" stroke="#63b8ff" points="208.31,-200.5 218.31,-197 208.31,-193.5 208.31,-200.5"/>
</a>
</g>
</g>
<!-- Node7 -->
<g id="Node000007" class="node">
<title>Node7</title>
<g id="a_Node000007"><a xlink:href="classICollider.html#ab469b9bbe9a4c245a59b4bc1539095dd" target="_top" xlink:title=" ">
<polygon fill="white" stroke="#666666" points="349,-163.5 209,-163.5 209,-144.5 349,-144.5 349,-163.5"/>
<text text-anchor="middle" x="279" y="-151.5" font-family="Helvetica,sans-Serif" font-size="10.00">ICollider::getTransformed</text>
</a>
</g>
</g>
<!-- Node1&#45;&gt;Node7 -->
<g id="edge6_Node000001_Node000007" class="edge">
<title>Node1&#45;&gt;Node7</title>
<g id="a_edge6_Node000001_Node000007"><a xlink:title=" ">
<path fill="none" stroke="#63b8ff" d="M154.13,-181.96C177.67,-176.65 203.78,-170.75 225.94,-165.75"/>
<polygon fill="#63b8ff" stroke="#63b8ff" points="226.83,-169.14 235.81,-163.52 225.29,-162.31 226.83,-169.14"/>
</a>
</g>
</g>
<!-- Node8 -->
<g id="Node000008" class="node">
<title>Node8</title>
<g id="a_Node000008"><a xlink:href="classPhysics_1_1PhysicsBody.html#a4bbf491e193cf2e29954c38a92865e29" target="_top" xlink:title=" ">
<polygon fill="white" stroke="#666666" points="339.5,-126 218.5,-126 218.5,-96 339.5,-96 339.5,-126"/>
<text text-anchor="start" x="226.5" y="-114" font-family="Helvetica,sans-Serif" font-size="10.00">Physics::PhysicsBody</text>
<text text-anchor="middle" x="279" y="-103" font-family="Helvetica,sans-Serif" font-size="10.00">::getVelocity</text>
</a>
</g>
</g>
<!-- Node1&#45;&gt;Node8 -->
<g id="edge7_Node000001_Node000008" class="edge">
<title>Node1&#45;&gt;Node8</title>
<g id="a_edge7_Node000001_Node000008"><a xlink:title=" ">
<path fill="none" stroke="#63b8ff" d="M115.53,-181.74C139.87,-168.78 176.26,-150.09 209,-136 213.97,-133.86 219.2,-131.74 224.45,-129.69"/>
<polygon fill="#63b8ff" stroke="#63b8ff" points="225.79,-132.93 233.89,-126.1 223.3,-126.39 225.79,-132.93"/>
</a>
</g>
</g>
<!-- Node9 -->
<g id="Node000009" class="node">
<title>Node9</title>
<g id="a_Node000009"><a xlink:href="classPhysics_1_1PhysicsBody.html#acb13769923f966df84e223a540ace45d" target="_top" xlink:title=" ">
<polygon fill="white" stroke="#666666" points="339.5,-78 218.5,-78 218.5,-48 339.5,-48 339.5,-78"/>
<text text-anchor="start" x="226.5" y="-66" font-family="Helvetica,sans-Serif" font-size="10.00">Physics::PhysicsBody</text>
<text text-anchor="middle" x="279" y="-55" font-family="Helvetica,sans-Serif" font-size="10.00">::setForce</text>
</a>
</g>
</g>
<!-- Node1&#45;&gt;Node9 -->
<g id="edge8_Node000001_Node000009" class="edge">
<title>Node1&#45;&gt;Node9</title>
<g id="a_edge8_Node000001_Node000009"><a xlink:title=" ">
<path fill="none" stroke="#63b8ff" d="M100.58,-181.75C121.37,-158.36 164.21,-113.56 209,-87 211.84,-85.32 214.81,-83.73 217.86,-82.23"/>
<polygon fill="#63b8ff" stroke="#63b8ff" points="219.52,-85.33 227.19,-78.02 216.64,-78.95 219.52,-85.33"/>
</a>
</g>
</g>
<!-- Node10 -->
<g id="Node000010" class="node">
<title>Node10</title>
<g id="a_Node000010"><a xlink:href="classPhysics_1_1PhysicsBody.html#a1aedc823891235ff429c55e0740ab423" target="_top" xlink:title=" ">
<polygon fill="white" stroke="#666666" points="339.5,-30 218.5,-30 218.5,0 339.5,0 339.5,-30"/>
<text text-anchor="start" x="226.5" y="-18" font-family="Helvetica,sans-Serif" font-size="10.00">Physics::PhysicsBody</text>
<text text-anchor="middle" x="279" y="-7" font-family="Helvetica,sans-Serif" font-size="10.00">::setPosition</text>
</a>
</g>
</g>
<!-- Node1&#45;&gt;Node10 -->
<g id="edge9_Node000001_Node000010" class="edge">
<title>Node1&#45;&gt;Node10</title>
<g id="a_edge9_Node000001_Node000010"><a xlink:title=" ">
<path fill="none" stroke="#63b8ff" d="M95.33,-181.57C112,-150.22 154,-78.68 209,-39 211.07,-37.51 213.24,-36.1 215.48,-34.77"/>
<polygon fill="#63b8ff" stroke="#63b8ff" points="217.22,-37.82 224.43,-30.06 213.96,-31.62 217.22,-37.82"/>
</a>
</g>
</g>
</g>
</svg>
</svg>

<style type='text/css'>
<![CDATA[
[data-mouse-over-selected='false'] { opacity: 0.7; }
[data-mouse-over-selected='true']  { opacity: 1.0; }
]]>
</style>
<script type="application/ecmascript"><![CDATA[
document.addEventListener('DOMContentLoaded', (event) => {
  highlightEdges();
  highlightAdjacentNodes();
});
]]></script>
</svg>
