<?xml version="1.0" encoding="UTF-8" standalone="no"?>
<!DOCTYPE svg PUBLIC "-//W3C//DTD SVG 1.1//EN"
 "http://www.w3.org/Graphics/SVG/1.1/DTD/svg11.dtd">
<!-- Generated by graphviz version 2.43.0 (0)
 -->
<!-- Title: SceneManager::setSelectFor Pages: 1 -->
<svg width="1340pt" height="363pt"
 viewBox="0.00 0.00 1340.00 363.00" xmlns="http://www.w3.org/2000/svg" xmlns:xlink="http://www.w3.org/1999/xlink">
<g id="graph0" class="graph" transform="scale(1 1) rotate(0) translate(4 359)">
<title>SceneManager::setSelectFor</title>
<!-- Node1 -->
<g id="Node000001" class="node">
<title>Node1</title>
<g id="a_Node000001"><a xlink:title=" ">
<polygon fill="#999999" stroke="#666666" points="1332,-239.5 1177,-239.5 1177,-220.5 1332,-220.5 1332,-239.5"/>
<text text-anchor="middle" x="1254.5" y="-227.5" font-family="Helvetica,sans-Serif" font-size="10.00">SceneManager::setSelectFor</text>
</a>
</g>
</g>
<!-- Node2 -->
<g id="Node000002" class="node">
<title>Node2</title>
<g id="a_Node000002"><a xlink:href="classSceneManager.html#ac517c77baec7191a36898308818ebb5f" target="_top" xlink:title=" ">
<polygon fill="white" stroke="#666666" points="1141,-307 981,-307 981,-277 1141,-277 1141,-307"/>
<text text-anchor="start" x="989" y="-295" font-family="Helvetica,sans-Serif" font-size="10.00">SceneManager::handleMouse</text>
<text text-anchor="middle" x="1061" y="-284" font-family="Helvetica,sans-Serif" font-size="10.00">Button</text>
</a>
</g>
</g>
<!-- Node1&#45;&gt;Node2 -->
<g id="edge1_Node000001_Node000002" class="edge">
<title>Node1&#45;&gt;Node2</title>
<g id="a_edge1_Node000001_Node000002"><a xlink:title=" ">
<path fill="none" stroke="#63b8ff" d="M1214.11,-242.75C1183.51,-252.66 1141,-266.42 1108.69,-276.88"/>
<polygon fill="#63b8ff" stroke="#63b8ff" points="1215.56,-245.96 1224,-239.55 1213.41,-239.3 1215.56,-245.96"/>
</a>
</g>
</g>
<!-- Node5 -->
<g id="Node000005" class="node">
<title>Node5</title>
<g id="a_Node000005"><a xlink:href="classSceneSerializer.html#a490f2bd87e7c9459ee47be974653b433" target="_top" xlink:title=" ">
<polygon fill="white" stroke="#666666" points="731,-167.5 567,-167.5 567,-148.5 731,-148.5 731,-167.5"/>
<text text-anchor="middle" x="649" y="-155.5" font-family="Helvetica,sans-Serif" font-size="10.00">SceneSerializer::loadFromJson</text>
</a>
</g>
</g>
<!-- Node1&#45;&gt;Node5 -->
<g id="edge4_Node000001_Node000005" class="edge">
<title>Node1&#45;&gt;Node5</title>
<g id="a_edge4_Node000001_Node000005"><a xlink:title=" ">
<path fill="none" stroke="#63b8ff" d="M1166.7,-236.14C1068.35,-240.87 903.94,-242.01 767,-210 729.12,-201.14 688.36,-180.1 666.35,-167.66"/>
<polygon fill="#63b8ff" stroke="#63b8ff" points="1167.08,-239.62 1176.89,-235.62 1166.72,-232.63 1167.08,-239.62"/>
</a>
</g>
</g>
<!-- Node9 -->
<g id="Node000009" class="node">
<title>Node9</title>
<g id="a_Node000009"><a xlink:href="classSceneManager.html#a8774b3322c2d86c6f1f2e0a8a9896af1" target="_top" xlink:title=" ">
<polygon fill="white" stroke="#666666" points="1135.5,-201.5 986.5,-201.5 986.5,-182.5 1135.5,-182.5 1135.5,-201.5"/>
<text text-anchor="middle" x="1061" y="-189.5" font-family="Helvetica,sans-Serif" font-size="10.00">SceneManager::resetScene</text>
</a>
</g>
</g>
<!-- Node1&#45;&gt;Node9 -->
<g id="edge8_Node000001_Node000009" class="edge">
<title>Node1&#45;&gt;Node9</title>
<g id="a_edge8_Node000001_Node000009"><a xlink:title=" ">
<path fill="none" stroke="#63b8ff" d="M1195.35,-218.46C1168.04,-213.04 1135.87,-206.66 1109.98,-201.52"/>
<polygon fill="#63b8ff" stroke="#63b8ff" points="1194.69,-221.9 1205.18,-220.41 1196.05,-215.03 1194.69,-221.9"/>
</a>
</g>
</g>
<!-- Node12 -->
<g id="Node000012" class="node">
<title>Node12</title>
<g id="a_Node000012"><a xlink:href="classSceneManager.html#a63d3a08f13b314ed1d871f598f26534d" target="_top" xlink:title=" ">
<polygon fill="white" stroke="#666666" points="1138.5,-88.5 983.5,-88.5 983.5,-69.5 1138.5,-69.5 1138.5,-88.5"/>
<text text-anchor="middle" x="1061" y="-76.5" font-family="Helvetica,sans-Serif" font-size="10.00">SceneManager::selectObject</text>
</a>
</g>
</g>
<!-- Node1&#45;&gt;Node12 -->
<g id="edge12_Node000001_Node000012" class="edge">
<title>Node1&#45;&gt;Node12</title>
<g id="a_edge12_Node000001_Node000012"><a xlink:title=" ">
<path fill="none" stroke="#63b8ff" d="M1233.06,-213.88C1193.31,-182.54 1106.66,-114.22 1074.42,-88.79"/>
<polygon fill="#63b8ff" stroke="#63b8ff" points="1231.21,-216.88 1241.23,-220.32 1235.54,-211.38 1231.21,-216.88"/>
</a>
</g>
</g>
<!-- Node3 -->
<g id="Node000003" class="node">
<title>Node3</title>
<g id="a_Node000003"><a xlink:href="classOpenGLWindow.html#a3db5152769ffded2ba4de8b6563c205a" target="_top" xlink:title=" ">
<polygon fill="white" stroke="#666666" points="935,-307 777,-307 777,-277 935,-277 935,-307"/>
<text text-anchor="start" x="785" y="-295" font-family="Helvetica,sans-Serif" font-size="10.00">OpenGLWindow::mousePress</text>
<text text-anchor="middle" x="856" y="-284" font-family="Helvetica,sans-Serif" font-size="10.00">Event</text>
</a>
</g>
</g>
<!-- Node2&#45;&gt;Node3 -->
<g id="edge2_Node000002_Node000003" class="edge">
<title>Node2&#45;&gt;Node3</title>
<g id="a_edge2_Node000002_Node000003"><a xlink:title=" ">
<path fill="none" stroke="#63b8ff" d="M970.63,-292C958.82,-292 946.79,-292 935.18,-292"/>
<polygon fill="#63b8ff" stroke="#63b8ff" points="970.93,-295.5 980.93,-292 970.93,-288.5 970.93,-295.5"/>
</a>
</g>
</g>
<!-- Node4 -->
<g id="Node000004" class="node">
<title>Node4</title>
<g id="a_Node000004"><a xlink:href="classOpenGLWindow.html#a2a95d17daeae3447ca23d4e99c913b73" target="_top" xlink:title=" ">
<polygon fill="white" stroke="#666666" points="941,-355 771,-355 771,-325 941,-325 941,-355"/>
<text text-anchor="start" x="779" y="-343" font-family="Helvetica,sans-Serif" font-size="10.00">OpenGLWindow::mouseRelease</text>
<text text-anchor="middle" x="856" y="-332" font-family="Helvetica,sans-Serif" font-size="10.00">Event</text>
</a>
</g>
</g>
<!-- Node2&#45;&gt;Node4 -->
<g id="edge3_Node000002_Node000004" class="edge">
<title>Node2&#45;&gt;Node4</title>
<g id="a_edge3_Node000002_Node000004"><a xlink:title=" ">
<path fill="none" stroke="#63b8ff" d="M986.53,-309.37C964.89,-314.49 941.4,-320.04 920.45,-325"/>
<polygon fill="#63b8ff" stroke="#63b8ff" points="987.4,-312.76 996.33,-307.06 985.79,-305.95 987.4,-312.76"/>
</a>
</g>
</g>
<!-- Node6 -->
<g id="Node000006" class="node">
<title>Node6</title>
<g id="a_Node000006"><a xlink:href="classSceneManager.html#a7b7b0a022dcce523178e8414fb8e4463" target="_top" xlink:title=" ">
<polygon fill="white" stroke="#666666" points="531,-167.5 386,-167.5 386,-148.5 531,-148.5 531,-167.5"/>
<text text-anchor="middle" x="458.5" y="-155.5" font-family="Helvetica,sans-Serif" font-size="10.00">SceneManager::loadScene</text>
</a>
</g>
</g>
<!-- Node5&#45;&gt;Node6 -->
<g id="edge5_Node000005_Node000006" class="edge">
<title>Node5&#45;&gt;Node6</title>
<g id="a_edge5_Node000005_Node000006"><a xlink:title=" ">
<path fill="none" stroke="#63b8ff" d="M556.9,-158C548.29,-158 539.65,-158 531.26,-158"/>
<polygon fill="#63b8ff" stroke="#63b8ff" points="556.97,-161.5 566.97,-158 556.97,-154.5 556.97,-161.5"/>
</a>
</g>
</g>
<!-- Node7 -->
<g id="Node000007" class="node">
<title>Node7</title>
<g id="a_Node000007"><a xlink:href="classSceneManager.html#a59f13c06bf3f19d5e543502a0ddd0467" target="_top" xlink:title=" ">
<polygon fill="white" stroke="#666666" points="350,-167.5 172,-167.5 172,-148.5 350,-148.5 350,-167.5"/>
<text text-anchor="middle" x="261" y="-155.5" font-family="Helvetica,sans-Serif" font-size="10.00">SceneManager::processHeldKeys</text>
</a>
</g>
</g>
<!-- Node6&#45;&gt;Node7 -->
<g id="edge6_Node000006_Node000007" class="edge">
<title>Node6&#45;&gt;Node7</title>
<g id="a_edge6_Node000006_Node000007"><a xlink:title=" ">
<path fill="none" stroke="#63b8ff" d="M375.68,-158C367.3,-158 358.75,-158 350.3,-158"/>
<polygon fill="#63b8ff" stroke="#63b8ff" points="375.81,-161.5 385.81,-158 375.81,-154.5 375.81,-161.5"/>
</a>
</g>
</g>
<!-- Node8 -->
<g id="Node000008" class="node">
<title>Node8</title>
<g id="a_Node000008"><a xlink:href="classOpenGLWindow.html#aea9ee69010d8451ab00cd488a8c6717d" target="_top" xlink:title=" ">
<polygon fill="white" stroke="#666666" points="136,-167.5 0,-167.5 0,-148.5 136,-148.5 136,-167.5"/>
<text text-anchor="middle" x="68" y="-155.5" font-family="Helvetica,sans-Serif" font-size="10.00">OpenGLWindow::paintGL</text>
</a>
</g>
</g>
<!-- Node7&#45;&gt;Node8 -->
<g id="edge7_Node000007_Node000008" class="edge">
<title>Node7&#45;&gt;Node8</title>
<g id="a_edge7_Node000007_Node000008"><a xlink:title=" ">
<path fill="none" stroke="#63b8ff" d="M161.6,-158C152.94,-158 144.32,-158 136,-158"/>
<polygon fill="#63b8ff" stroke="#63b8ff" points="161.77,-161.5 171.77,-158 161.77,-154.5 161.77,-161.5"/>
</a>
</g>
</g>
<!-- Node9&#45;&gt;Node5 -->
<g id="edge10_Node000009_Node000005" class="edge">
<title>Node9&#45;&gt;Node5</title>
<g id="a_edge10_Node000009_Node000005"><a xlink:title=" ">
<path fill="none" stroke="#63b8ff" d="M976.45,-198.23C917.59,-201.11 837.1,-201.98 767,-192 734.54,-187.38 698.5,-175.89 675.11,-167.54"/>
<polygon fill="#63b8ff" stroke="#63b8ff" points="976.64,-201.73 986.45,-197.71 976.28,-194.74 976.64,-201.73"/>
</a>
</g>
</g>
<!-- Node10 -->
<g id="Node000010" class="node">
<title>Node10</title>
<g id="a_Node000010"><a xlink:href="classSceneManager.html#acfea563d3849e3c8c09fc3febe9ae1e2" target="_top" xlink:title=" ">
<polygon fill="white" stroke="#666666" points="934.5,-182.5 777.5,-182.5 777.5,-163.5 934.5,-163.5 934.5,-182.5"/>
<text text-anchor="middle" x="856" y="-170.5" font-family="Helvetica,sans-Serif" font-size="10.00">SceneManager::defaultSetup</text>
</a>
</g>
</g>
<!-- Node9&#45;&gt;Node10 -->
<g id="edge9_Node000009_Node000010" class="edge">
<title>Node9&#45;&gt;Node10</title>
<g id="a_edge9_Node000009_Node000010"><a xlink:title=" ">
<path fill="none" stroke="#63b8ff" d="M976.07,-184.14C962.4,-182.86 948.29,-181.54 934.77,-180.28"/>
<polygon fill="#63b8ff" stroke="#63b8ff" points="976.14,-187.67 986.43,-185.11 976.8,-180.7 976.14,-187.67"/>
</a>
</g>
</g>
<!-- Node11 -->
<g id="Node000011" class="node">
<title>Node11</title>
<g id="a_Node000011"><a xlink:href="classSceneManager.html#ad9d648b5fb5a92c4612c640fc7cb47fb" target="_top" xlink:title=" ">
<polygon fill="white" stroke="#666666" points="929,-145.5 783,-145.5 783,-126.5 929,-126.5 929,-145.5"/>
<text text-anchor="middle" x="856" y="-133.5" font-family="Helvetica,sans-Serif" font-size="10.00">SceneManager::loadPreset</text>
</a>
</g>
</g>
<!-- Node9&#45;&gt;Node11 -->
<g id="edge11_Node000009_Node000011" class="edge">
<title>Node9&#45;&gt;Node11</title>
<g id="a_edge11_Node000009_Node000011"><a xlink:title=" ">
<path fill="none" stroke="#63b8ff" d="M1023.33,-179.18C1000.88,-171.59 971.47,-162.1 945,-155 932.17,-151.56 918.16,-148.31 905.16,-145.5"/>
<polygon fill="#63b8ff" stroke="#63b8ff" points="1022.21,-182.5 1032.81,-182.41 1024.47,-175.87 1022.21,-182.5"/>
</a>
</g>
</g>
<!-- Node12&#45;&gt;Node5 -->
<g id="edge15_Node000012_Node000005" class="edge">
<title>Node12&#45;&gt;Node5</title>
<g id="a_edge15_Node000012_Node000005"><a xlink:title=" ">
<path fill="none" stroke="#63b8ff" d="M973.38,-86.01C914.62,-91.86 835.47,-101.9 767,-118 733.77,-125.81 696.69,-139.35 673.35,-148.49"/>
<polygon fill="#63b8ff" stroke="#63b8ff" points="973.76,-89.49 983.37,-85.03 973.08,-82.52 973.76,-89.49"/>
</a>
</g>
</g>
<!-- Node13 -->
<g id="Node000013" class="node">
<title>Node13</title>
<g id="a_Node000013"><a xlink:href="classSceneManager.html#a2c5088464b489b31f23e0791e2b9c0b0" target="_top" xlink:title=" ">
<polygon fill="white" stroke="#666666" points="932,-29.5 780,-29.5 780,-10.5 932,-10.5 932,-29.5"/>
<text text-anchor="middle" x="856" y="-17.5" font-family="Helvetica,sans-Serif" font-size="10.00">SceneManager::focusObject</text>
</a>
</g>
</g>
<!-- Node12&#45;&gt;Node13 -->
<g id="edge13_Node000012_Node000013" class="edge">
<title>Node12&#45;&gt;Node13</title>
<g id="a_edge13_Node000012_Node000013"><a xlink:title=" ">
<path fill="none" stroke="#63b8ff" d="M1023.75,-66.14C1001.23,-58.38 971.61,-48.56 945,-41 930.5,-36.88 914.49,-32.9 900.16,-29.53"/>
<polygon fill="#63b8ff" stroke="#63b8ff" points="1022.65,-69.47 1033.25,-69.44 1024.95,-62.86 1022.65,-69.47"/>
</a>
</g>
</g>
<!-- Node15 -->
<g id="Node000015" class="node">
<title>Node15</title>
<g id="a_Node000015"><a xlink:href="classSceneManager.html#ab469d1eea307d05b27433cb74231b4eb" target="_top" xlink:title=" ">
<polygon fill="white" stroke="#666666" points="945,-69.5 767,-69.5 767,-50.5 945,-50.5 945,-69.5"/>
<text text-anchor="middle" x="856" y="-57.5" font-family="Helvetica,sans-Serif" font-size="10.00">SceneManager::setCameraTarget</text>
</a>
</g>
</g>
<!-- Node12&#45;&gt;Node15 -->
<g id="edge16_Node000012_Node000015" class="edge">
<title>Node12&#45;&gt;Node15</title>
<g id="a_edge16_Node000012_Node000015"><a xlink:title=" ">
<path fill="none" stroke="#63b8ff" d="M973.23,-70.88C963.91,-70.01 954.42,-69.12 945.09,-68.24"/>
<polygon fill="#63b8ff" stroke="#63b8ff" points="972.97,-74.37 983.25,-71.82 973.62,-67.4 972.97,-74.37"/>
</a>
</g>
</g>
<!-- Node14 -->
<g id="Node000014" class="node">
<title>Node14</title>
<g id="a_Node000014"><a xlink:href="namespaceScenePresets_1_1Astronomy.html#a0b0e571c83bcdb2d16710b9425375b5f" target="_top" xlink:title=" ">
<polygon fill="white" stroke="#666666" points="719.5,-30 578.5,-30 578.5,0 719.5,0 719.5,-30"/>
<text text-anchor="start" x="586.5" y="-18" font-family="Helvetica,sans-Serif" font-size="10.00">ScenePresets::Astronomy</text>
<text text-anchor="middle" x="649" y="-7" font-family="Helvetica,sans-Serif" font-size="10.00">::createRealSolarSystem</text>
</a>
</g>
</g>
<!-- Node13&#45;&gt;Node14 -->
<g id="edge14_Node000013_Node000014" class="edge">
<title>Node13&#45;&gt;Node14</title>
<g id="a_edge14_Node000013_Node000014"><a xlink:title=" ">
<path fill="none" stroke="#63b8ff" d="M769.58,-17.92C752.97,-17.51 735.75,-17.09 719.72,-16.7"/>
<polygon fill="#63b8ff" stroke="#63b8ff" points="769.75,-21.42 779.83,-18.17 769.92,-14.42 769.75,-21.42"/>
</a>
</g>
</g>
<!-- Node15&#45;&gt;Node5 -->
<g id="edge17_Node000015_Node000005" class="edge">
<title>Node15&#45;&gt;Node5</title>
<g id="a_edge17_Node000015_Node000005"><a xlink:title=" ">
<path fill="none" stroke="#63b8ff" d="M800.1,-72.26C788.94,-75.5 777.42,-79.41 767,-84 726.09,-102.03 682.87,-132.92 662.28,-148.47"/>
<polygon fill="#63b8ff" stroke="#63b8ff" points="801.09,-75.62 809.79,-69.58 799.22,-68.87 801.09,-75.62"/>
</a>
</g>
</g>
<!-- Node16 -->
<g id="Node000016" class="node">
<title>Node16</title>
<g id="a_Node000016"><a xlink:href="classGlobalsInspectorWidget.html#ac983b68fcff61ff889660f3d93221072" target="_top" xlink:title=" ">
<polygon fill="white" stroke="#666666" points="715.5,-78 582.5,-78 582.5,-48 715.5,-48 715.5,-78"/>
<text text-anchor="start" x="590.5" y="-66" font-family="Helvetica,sans-Serif" font-size="10.00">GlobalsInspectorWidget</text>
<text text-anchor="middle" x="649" y="-55" font-family="Helvetica,sans-Serif" font-size="10.00">::runSolver</text>
</a>
</g>
</g>
<!-- Node15&#45;&gt;Node16 -->
<g id="edge18_Node000015_Node000016" class="edge">
<title>Node15&#45;&gt;Node16</title>
<g id="a_edge18_Node000015_Node000016"><a xlink:title=" ">
<path fill="none" stroke="#63b8ff" d="M756.78,-61.44C742.87,-61.64 728.85,-61.85 715.76,-62.04"/>
<polygon fill="#63b8ff" stroke="#63b8ff" points="756.92,-64.94 766.87,-61.29 756.82,-57.94 756.92,-64.94"/>
</a>
</g>
</g>
</g>
</svg>
