<?xml version="1.0" encoding="UTF-8" standalone="no"?>
<!DOCTYPE svg PUBLIC "-//W3C//DTD SVG 1.1//EN"
 "http://www.w3.org/Graphics/SVG/1.1/DTD/svg11.dtd">
<!-- Generated by graphviz version 2.43.0 (0)
 -->
<!-- Title: SceneObject::getName Pages: 1 -->
<svg width="1502pt" height="188pt"
 viewBox="0.00 0.00 1502.00 188.29" xmlns="http://www.w3.org/2000/svg" xmlns:xlink="http://www.w3.org/1999/xlink">
<g id="graph0" class="graph" transform="scale(1 1) rotate(0) translate(4 184.29)">
<title>SceneObject::getName</title>
<!-- Node1 -->
<g id="Node000001" class="node">
<title>Node1</title>
<g id="a_Node000001"><a xlink:title=" ">
<polygon fill="#999999" stroke="#666666" points="1494,-104.29 1366,-104.29 1366,-85.29 1494,-85.29 1494,-104.29"/>
<text text-anchor="middle" x="1430" y="-92.29" font-family="Helvetica,sans-Serif" font-size="10.00">SceneObject::getName</text>
</a>
</g>
</g>
<!-- Node2 -->
<g id="Node000002" class="node">
<title>Node2</title>
<g id="a_Node000002"><a xlink:href="classHierarchyWidget.html#a32c08e80fc612430e0db40bf377fb5aa" target="_top" xlink:title=" ">
<polygon fill="white" stroke="#666666" points="1328.5,-160.29 1174.5,-160.29 1174.5,-141.29 1328.5,-141.29 1328.5,-160.29"/>
<text text-anchor="middle" x="1251.5" y="-148.29" font-family="Helvetica,sans-Serif" font-size="10.00">HierarchyWidget::addObject</text>
</a>
</g>
</g>
<!-- Node1&#45;&gt;Node2 -->
<g id="edge1_Node000001_Node000002" class="edge">
<title>Node1&#45;&gt;Node2</title>
<g id="a_edge1_Node000001_Node000002"><a xlink:title=" ">
<path fill="none" stroke="#63b8ff" d="M1397.04,-108.35C1377.84,-116.17 1352.78,-125.8 1330,-132.79 1319.83,-135.9 1308.77,-138.77 1298.27,-141.26"/>
<polygon fill="#63b8ff" stroke="#63b8ff" points="1398.59,-111.49 1406.51,-104.45 1395.93,-105.02 1398.59,-111.49"/>
</a>
</g>
</g>
<!-- Node3 -->
<g id="Node000003" class="node">
<title>Node3</title>
<g id="a_Node000003"><a xlink:href="classSceneManager.html#a4543114007c5bb40ddab62cd9f2ac613" target="_top" xlink:title=" ">
<polygon fill="white" stroke="#666666" points="1330,-123.29 1173,-123.29 1173,-104.29 1330,-104.29 1330,-123.29"/>
<text text-anchor="middle" x="1251.5" y="-111.29" font-family="Helvetica,sans-Serif" font-size="10.00">SceneManager::deleteObject</text>
</a>
</g>
</g>
<!-- Node1&#45;&gt;Node3 -->
<g id="edge2_Node000001_Node000003" class="edge">
<title>Node1&#45;&gt;Node3</title>
<g id="a_edge2_Node000001_Node000003"><a xlink:title=" ">
<path fill="none" stroke="#63b8ff" d="M1355.61,-102.69C1347.17,-103.59 1338.56,-104.52 1330.07,-105.44"/>
<polygon fill="#63b8ff" stroke="#63b8ff" points="1356.21,-106.14 1365.78,-101.59 1355.46,-99.18 1356.21,-106.14"/>
</a>
</g>
</g>
<!-- Node12 -->
<g id="Node000012" class="node">
<title>Node12</title>
<g id="a_Node000012"><a xlink:href="classSceneSerializer.html#a56e278bcdda1f03f192797122dd6d0c0" target="_top" xlink:title=" ">
<polygon fill="white" stroke="#666666" points="1327.5,-28.29 1175.5,-28.29 1175.5,-9.29 1327.5,-9.29 1327.5,-28.29"/>
<text text-anchor="middle" x="1251.5" y="-16.29" font-family="Helvetica,sans-Serif" font-size="10.00">SceneSerializer::saveToJson</text>
</a>
</g>
</g>
<!-- Node1&#45;&gt;Node12 -->
<g id="edge11_Node000001_Node000012" class="edge">
<title>Node1&#45;&gt;Node12</title>
<g id="a_edge11_Node000001_Node000012"><a xlink:title=" ">
<path fill="none" stroke="#63b8ff" d="M1397.26,-81.12C1361.89,-65.89 1305.61,-41.65 1274.67,-28.33"/>
<polygon fill="#63b8ff" stroke="#63b8ff" points="1396.08,-84.42 1406.65,-85.16 1398.85,-77.99 1396.08,-84.42"/>
</a>
</g>
</g>
<!-- Node14 -->
<g id="Node000014" class="node">
<title>Node14</title>
<g id="a_Node000014"><a xlink:href="classSceneManager.html#aad894e90cf7ad353aab707f966c9711d" target="_top" xlink:title=" ">
<polygon fill="white" stroke="#666666" points="1134.5,-85.29 964.5,-85.29 964.5,-66.29 1134.5,-66.29 1134.5,-85.29"/>
<text text-anchor="middle" x="1049.5" y="-73.29" font-family="Helvetica,sans-Serif" font-size="10.00">SceneManager::setObjectName</text>
</a>
</g>
</g>
<!-- Node1&#45;&gt;Node14 -->
<g id="edge14_Node000001_Node000014" class="edge">
<title>Node1&#45;&gt;Node14</title>
<g id="a_edge14_Node000001_Node000014"><a xlink:title=" ">
<path fill="none" stroke="#63b8ff" d="M1355.35,-91.09C1292.07,-87.91 1200.83,-83.33 1134.68,-80.01"/>
<polygon fill="#63b8ff" stroke="#63b8ff" points="1355.48,-94.6 1365.65,-91.61 1355.84,-87.61 1355.48,-94.6"/>
</a>
</g>
</g>
<!-- Node4 -->
<g id="Node000004" class="node">
<title>Node4</title>
<g id="a_Node000004"><a xlink:href="classSceneManager.html#a53736fa499987ffff612d3ee7c85442c" target="_top" xlink:title=" ">
<polygon fill="white" stroke="#666666" points="1137,-161.29 962,-161.29 962,-142.29 1137,-142.29 1137,-161.29"/>
<text text-anchor="middle" x="1049.5" y="-149.29" font-family="Helvetica,sans-Serif" font-size="10.00">SceneManager::deleteAllObjects</text>
</a>
</g>
</g>
<!-- Node3&#45;&gt;Node4 -->
<g id="edge3_Node000003_Node000004" class="edge">
<title>Node3&#45;&gt;Node4</title>
<g id="a_edge3_Node000003_Node000004"><a xlink:title=" ">
<path fill="none" stroke="#63b8ff" d="M1190.4,-125.2C1161.79,-130.64 1127.96,-137.07 1100.73,-142.24"/>
<polygon fill="#63b8ff" stroke="#63b8ff" points="1191.12,-128.63 1200.29,-123.33 1189.81,-121.75 1191.12,-128.63"/>
</a>
</g>
</g>
<!-- Node5 -->
<g id="Node000005" class="node">
<title>Node5</title>
<g id="a_Node000005"><a xlink:href="classSceneManager.html#a8774b3322c2d86c6f1f2e0a8a9896af1" target="_top" xlink:title=" ">
<polygon fill="white" stroke="#666666" points="922,-180.29 773,-180.29 773,-161.29 922,-161.29 922,-180.29"/>
<text text-anchor="middle" x="847.5" y="-168.29" font-family="Helvetica,sans-Serif" font-size="10.00">SceneManager::resetScene</text>
</a>
</g>
</g>
<!-- Node4&#45;&gt;Node5 -->
<g id="edge4_Node000004_Node000005" class="edge">
<title>Node4&#45;&gt;Node5</title>
<g id="a_edge4_Node000004_Node000005"><a xlink:title=" ">
<path fill="none" stroke="#63b8ff" d="M951.92,-160.96C941.87,-161.92 931.77,-162.88 922.03,-163.8"/>
<polygon fill="#63b8ff" stroke="#63b8ff" points="952.32,-164.44 961.94,-160.01 951.65,-157.47 952.32,-164.44"/>
</a>
</g>
</g>
<!-- Node6 -->
<g id="Node000006" class="node">
<title>Node6</title>
<g id="a_Node000006"><a xlink:href="classSceneManager.html#acfea563d3849e3c8c09fc3febe9ae1e2" target="_top" xlink:title=" ">
<polygon fill="white" stroke="#666666" points="729.5,-104.29 572.5,-104.29 572.5,-85.29 729.5,-85.29 729.5,-104.29"/>
<text text-anchor="middle" x="651" y="-92.29" font-family="Helvetica,sans-Serif" font-size="10.00">SceneManager::defaultSetup</text>
</a>
</g>
</g>
<!-- Node5&#45;&gt;Node6 -->
<g id="edge5_Node000005_Node000006" class="edge">
<title>Node5&#45;&gt;Node6</title>
<g id="a_edge5_Node000005_Node000006"><a xlink:title=" ">
<path fill="none" stroke="#63b8ff" d="M821.17,-156.3C798.61,-143.9 764.42,-126.26 733,-114.79 721.84,-110.71 709.52,-107.19 697.93,-104.3"/>
<polygon fill="#63b8ff" stroke="#63b8ff" points="819.64,-159.46 830.08,-161.27 823.05,-153.34 819.64,-159.46"/>
</a>
</g>
</g>
<!-- Node7 -->
<g id="Node000007" class="node">
<title>Node7</title>
<g id="a_Node000007"><a xlink:href="classSceneSerializer.html#a490f2bd87e7c9459ee47be974653b433" target="_top" xlink:title=" ">
<polygon fill="white" stroke="#666666" points="733,-142.29 569,-142.29 569,-123.29 733,-123.29 733,-142.29"/>
<text text-anchor="middle" x="651" y="-130.29" font-family="Helvetica,sans-Serif" font-size="10.00">SceneSerializer::loadFromJson</text>
</a>
</g>
</g>
<!-- Node5&#45;&gt;Node7 -->
<g id="edge6_Node000005_Node000007" class="edge">
<title>Node5&#45;&gt;Node7</title>
<g id="a_edge6_Node000005_Node000007"><a xlink:title=" ">
<path fill="none" stroke="#63b8ff" d="M787.69,-159.3C759.94,-153.87 727.21,-147.48 700.85,-142.33"/>
<polygon fill="#63b8ff" stroke="#63b8ff" points="787.18,-162.76 797.67,-161.25 788.53,-155.89 787.18,-162.76"/>
</a>
</g>
</g>
<!-- Node11 -->
<g id="Node000011" class="node">
<title>Node11</title>
<g id="a_Node000011"><a xlink:href="classSceneManager.html#ad9d648b5fb5a92c4612c640fc7cb47fb" target="_top" xlink:title=" ">
<polygon fill="white" stroke="#666666" points="724,-180.29 578,-180.29 578,-161.29 724,-161.29 724,-180.29"/>
<text text-anchor="middle" x="651" y="-168.29" font-family="Helvetica,sans-Serif" font-size="10.00">SceneManager::loadPreset</text>
</a>
</g>
</g>
<!-- Node5&#45;&gt;Node11 -->
<g id="edge10_Node000005_Node000011" class="edge">
<title>Node5&#45;&gt;Node11</title>
<g id="a_edge10_Node000005_Node000011"><a xlink:title=" ">
<path fill="none" stroke="#63b8ff" d="M762.72,-170.79C749.83,-170.79 736.63,-170.79 724.03,-170.79"/>
<polygon fill="#63b8ff" stroke="#63b8ff" points="762.97,-174.29 772.97,-170.79 762.97,-167.29 762.97,-174.29"/>
</a>
</g>
</g>
<!-- Node8 -->
<g id="Node000008" class="node">
<title>Node8</title>
<g id="a_Node000008"><a xlink:href="classSceneManager.html#a7b7b0a022dcce523178e8414fb8e4463" target="_top" xlink:title=" ">
<polygon fill="white" stroke="#666666" points="532,-113.29 387,-113.29 387,-94.29 532,-94.29 532,-113.29"/>
<text text-anchor="middle" x="459.5" y="-101.29" font-family="Helvetica,sans-Serif" font-size="10.00">SceneManager::loadScene</text>
</a>
</g>
</g>
<!-- Node7&#45;&gt;Node8 -->
<g id="edge7_Node000007_Node000008" class="edge">
<title>Node7&#45;&gt;Node8</title>
<g id="a_edge7_Node000007_Node000008"><a xlink:title=" ">
<path fill="none" stroke="#63b8ff" d="M577.77,-121.73C559.68,-118.96 540.42,-116.02 522.85,-113.33"/>
<polygon fill="#63b8ff" stroke="#63b8ff" points="577.27,-125.2 587.69,-123.25 578.33,-118.28 577.27,-125.2"/>
</a>
</g>
</g>
<!-- Node9 -->
<g id="Node000009" class="node">
<title>Node9</title>
<g id="a_Node000009"><a xlink:href="classSceneManager.html#a59f13c06bf3f19d5e543502a0ddd0467" target="_top" xlink:title=" ">
<polygon fill="white" stroke="#666666" points="350,-65.29 172,-65.29 172,-46.29 350,-46.29 350,-65.29"/>
<text text-anchor="middle" x="261" y="-53.29" font-family="Helvetica,sans-Serif" font-size="10.00">SceneManager::processHeldKeys</text>
</a>
</g>
</g>
<!-- Node8&#45;&gt;Node9 -->
<g id="edge8_Node000008_Node000009" class="edge">
<title>Node8&#45;&gt;Node9</title>
<g id="a_edge8_Node000008_Node000009"><a xlink:title=" ">
<path fill="none" stroke="#63b8ff" d="M409.19,-91.74C375.8,-83.58 332.26,-72.95 301.22,-65.37"/>
<polygon fill="#63b8ff" stroke="#63b8ff" points="408.66,-95.21 419.21,-94.19 410.32,-88.41 408.66,-95.21"/>
</a>
</g>
</g>
<!-- Node10 -->
<g id="Node000010" class="node">
<title>Node10</title>
<g id="a_Node000010"><a xlink:href="classOpenGLWindow.html#aea9ee69010d8451ab00cd488a8c6717d" target="_top" xlink:title=" ">
<polygon fill="white" stroke="#666666" points="136,-65.29 0,-65.29 0,-46.29 136,-46.29 136,-65.29"/>
<text text-anchor="middle" x="68" y="-53.29" font-family="Helvetica,sans-Serif" font-size="10.00">OpenGLWindow::paintGL</text>
</a>
</g>
</g>
<!-- Node9&#45;&gt;Node10 -->
<g id="edge9_Node000009_Node000010" class="edge">
<title>Node9&#45;&gt;Node10</title>
<g id="a_edge9_Node000009_Node000010"><a xlink:title=" ">
<path fill="none" stroke="#63b8ff" d="M161.6,-55.79C152.94,-55.79 144.32,-55.79 136,-55.79"/>
<polygon fill="#63b8ff" stroke="#63b8ff" points="161.77,-59.29 171.77,-55.79 161.77,-52.29 161.77,-59.29"/>
</a>
</g>
</g>
<!-- Node13 -->
<g id="Node000013" class="node">
<title>Node13</title>
<g id="a_Node000013"><a xlink:href="classSceneManager.html#a1a46a8c9e99b6b27404a2f870f38749c" target="_top" xlink:title=" ">
<polygon fill="white" stroke="#666666" points="533,-47.29 386,-47.29 386,-28.29 533,-28.29 533,-47.29"/>
<text text-anchor="middle" x="459.5" y="-35.29" font-family="Helvetica,sans-Serif" font-size="10.00">SceneManager::saveScene</text>
</a>
</g>
</g>
<!-- Node12&#45;&gt;Node13 -->
<g id="edge12_Node000012_Node000013" class="edge">
<title>Node12&#45;&gt;Node13</title>
<g id="a_edge12_Node000012_Node000013"><a xlink:title=" ">
<path fill="none" stroke="#63b8ff" d="M1165.1,-11.83C1035.7,-2.72 782.43,9.54 569,-13.79 543.88,-16.53 516.05,-22.75 494.87,-28.17"/>
<polygon fill="#63b8ff" stroke="#63b8ff" points="1165.11,-15.34 1175.34,-12.56 1165.61,-8.36 1165.11,-15.34"/>
</a>
</g>
</g>
<!-- Node13&#45;&gt;Node9 -->
<g id="edge13_Node000013_Node000009" class="edge">
<title>Node13&#45;&gt;Node9</title>
<g id="a_edge13_Node000013_Node000009"><a xlink:title=" ">
<path fill="none" stroke="#63b8ff" d="M375.73,-45.37C367.32,-46.14 358.76,-46.92 350.3,-47.7"/>
<polygon fill="#63b8ff" stroke="#63b8ff" points="376.25,-48.83 385.89,-44.44 375.61,-41.86 376.25,-48.83"/>
</a>
</g>
</g>
<!-- Node14&#45;&gt;Node6 -->
<g id="edge20_Node000014_Node000006" class="edge">
<title>Node14&#45;&gt;Node6</title>
<g id="a_edge20_Node000014_Node000006"><a xlink:title=" ">
<path fill="none" stroke="#63b8ff" d="M954.04,-80.31C885.49,-83.6 793.87,-87.99 729.57,-91.07"/>
<polygon fill="#63b8ff" stroke="#63b8ff" points="954.59,-83.79 964.41,-79.82 954.26,-76.8 954.59,-83.79"/>
</a>
</g>
</g>
<!-- Node14&#45;&gt;Node7 -->
<g id="edge21_Node000014_Node000007" class="edge">
<title>Node14&#45;&gt;Node7</title>
<g id="a_edge21_Node000014_Node000007"><a xlink:title=" ">
<path fill="none" stroke="#63b8ff" d="M991.63,-87.22C971.01,-91.17 947.5,-95.44 926,-98.79 861.35,-108.86 787.74,-117.85 733.11,-124.06"/>
<polygon fill="#63b8ff" stroke="#63b8ff" points="992.34,-90.65 1001.5,-85.32 991.02,-83.78 992.34,-90.65"/>
</a>
</g>
</g>
<!-- Node15 -->
<g id="Node000015" class="node">
<title>Node15</title>
<g id="a_Node000015"><a xlink:href="classSceneManager.html#a1daee617aa556b8af8a7202d3f8f28c8" target="_top" xlink:title=" ">
<polygon fill="white" stroke="#666666" points="926,-66.29 769,-66.29 769,-47.29 926,-47.29 926,-66.29"/>
<text text-anchor="middle" x="847.5" y="-54.29" font-family="Helvetica,sans-Serif" font-size="10.00">SceneManager::createObject</text>
</a>
</g>
</g>
<!-- Node14&#45;&gt;Node15 -->
<g id="edge15_Node000014_Node000015" class="edge">
<title>Node14&#45;&gt;Node15</title>
<g id="a_edge15_Node000014_Node000015"><a xlink:title=" ">
<path fill="none" stroke="#63b8ff" d="M954.17,-66.82C944.82,-65.94 935.42,-65.04 926.27,-64.17"/>
<polygon fill="#63b8ff" stroke="#63b8ff" points="953.98,-70.32 964.26,-67.78 954.64,-63.35 953.98,-70.32"/>
</a>
</g>
</g>
<!-- Node16 -->
<g id="Node000016" class="node">
<title>Node16</title>
<g id="a_Node000016"><a xlink:href="namespaceScenePresets_1_1Astronomy.html#a0b0e571c83bcdb2d16710b9425375b5f" target="_top" xlink:title=" ">
<polygon fill="white" stroke="#666666" points="721.5,-52.79 580.5,-52.79 580.5,-22.79 721.5,-22.79 721.5,-52.79"/>
<text text-anchor="start" x="588.5" y="-40.79" font-family="Helvetica,sans-Serif" font-size="10.00">ScenePresets::Astronomy</text>
<text text-anchor="middle" x="651" y="-29.79" font-family="Helvetica,sans-Serif" font-size="10.00">::createRealSolarSystem</text>
</a>
</g>
</g>
<!-- Node14&#45;&gt;Node16 -->
<g id="edge19_Node000014_Node000016" class="edge">
<title>Node14&#45;&gt;Node16</title>
<g id="a_edge19_Node000014_Node000016"><a xlink:title=" ">
<path fill="none" stroke="#63b8ff" d="M1015.6,-62.61C991.29,-53.62 957.15,-42.51 926,-37.79 857.1,-27.34 777.32,-28.85 721.69,-32.05"/>
<polygon fill="#63b8ff" stroke="#63b8ff" points="1014.46,-65.93 1025.06,-66.19 1016.94,-59.38 1014.46,-65.93"/>
</a>
</g>
</g>
<!-- Node15&#45;&gt;Node6 -->
<g id="edge17_Node000015_Node000006" class="edge">
<title>Node15&#45;&gt;Node6</title>
<g id="a_edge17_Node000015_Node000006"><a xlink:title=" ">
<path fill="none" stroke="#63b8ff" d="M787.69,-68.28C759.94,-73.7 727.21,-80.09 700.85,-85.24"/>
<polygon fill="#63b8ff" stroke="#63b8ff" points="788.53,-71.68 797.67,-66.33 787.18,-64.81 788.53,-71.68"/>
</a>
</g>
</g>
<!-- Node15&#45;&gt;Node7 -->
<g id="edge18_Node000015_Node000007" class="edge">
<title>Node15&#45;&gt;Node7</title>
<g id="a_edge18_Node000015_Node000007"><a xlink:title=" ">
<path fill="none" stroke="#63b8ff" d="M821.62,-71.43C799.12,-84.14 764.74,-102.27 733,-113.79 722.82,-117.48 711.65,-120.64 700.94,-123.26"/>
<polygon fill="#63b8ff" stroke="#63b8ff" points="823.56,-74.35 830.5,-66.34 820.08,-68.28 823.56,-74.35"/>
</a>
</g>
</g>
<!-- Node15&#45;&gt;Node16 -->
<g id="edge16_Node000015_Node000016" class="edge">
<title>Node15&#45;&gt;Node16</title>
<g id="a_edge16_Node000015_Node000016"><a xlink:title=" ">
<path fill="none" stroke="#63b8ff" d="M758.5,-48.19C746.17,-46.99 733.65,-45.76 721.72,-44.6"/>
<polygon fill="#63b8ff" stroke="#63b8ff" points="758.5,-51.71 768.79,-49.19 759.18,-44.74 758.5,-51.71"/>
</a>
</g>
</g>
</g>
</svg>
