<?xml version="1.0" encoding="UTF-8" standalone="no"?>
<!DOCTYPE svg PUBLIC "-//W3C//DTD SVG 1.1//EN"
 "http://www.w3.org/Graphics/SVG/1.1/DTD/svg11.dtd">
<!-- Generated by graphviz version 2.43.0 (0)
 -->
<!-- Title: SceneSerializer::saveToJson Pages: 1 -->
<svg width="598pt" height="880pt"
 viewBox="0.00 0.00 598.00 879.72" xmlns="http://www.w3.org/2000/svg" xmlns:xlink="http://www.w3.org/1999/xlink">
<g id="graph0" class="graph" transform="scale(1 1) rotate(0) translate(4 875.72)">
<title>SceneSerializer::saveToJson</title>
<!-- Node1 -->
<g id="Node000001" class="node">
<title>Node1</title>
<g id="a_Node000001"><a xlink:title=" ">
<polygon fill="#999999" stroke="#666666" points="152,-430 0,-430 0,-411 152,-411 152,-430"/>
<text text-anchor="middle" x="76" y="-418" font-family="Helvetica,sans-Serif" font-size="10.00">SceneSerializer::saveToJson</text>
</a>
</g>
</g>
<!-- Node2 -->
<g id="Node000002" class="node">
<title>Node2</title>
<g id="a_Node000002"><a xlink:href="classScene.html#a8ec1e638529f69f716e791ba3ac4d2f7" target="_top" xlink:title=" ">
<polygon fill="white" stroke="#666666" points="561.5,-854 455.5,-854 455.5,-835 561.5,-835 561.5,-854"/>
<text text-anchor="middle" x="508.5" y="-842" font-family="Helvetica,sans-Serif" font-size="10.00">Scene::getCamera</text>
</a>
</g>
</g>
<!-- Node1&#45;&gt;Node2 -->
<g id="edge1_Node000001_Node000002" class="edge">
<title>Node1&#45;&gt;Node2</title>
<g id="a_edge1_Node000001_Node000002"><a xlink:title=" ">
<path fill="none" stroke="#63b8ff" d="M78.14,-430.21C84.97,-486.8 122.52,-773.54 188,-826.5 267.3,-890.64 397.16,-872.05 464.29,-856.39"/>
<polygon fill="#63b8ff" stroke="#63b8ff" points="465.22,-859.77 474.12,-854.02 463.58,-852.97 465.22,-859.77"/>
</a>
</g>
</g>
<!-- Node3 -->
<g id="Node000003" class="node">
<title>Node3</title>
<g id="a_Node000003"><a xlink:href="classSceneManager.html#a30fc32723c50bf9707a44ac398e5ecb9" target="_top" xlink:title=" ">
<polygon fill="white" stroke="#666666" points="379,-817 200,-817 200,-798 379,-798 379,-817"/>
<text text-anchor="middle" x="289.5" y="-805" font-family="Helvetica,sans-Serif" font-size="10.00">SceneManager::getCameraTarget</text>
</a>
</g>
</g>
<!-- Node1&#45;&gt;Node3 -->
<g id="edge2_Node000001_Node000003" class="edge">
<title>Node1&#45;&gt;Node3</title>
<g id="a_edge2_Node000001_Node000003"><a xlink:title=" ">
<path fill="none" stroke="#63b8ff" d="M76.6,-430.01C75.2,-477.13 75.61,-687.44 188,-788.5 189.53,-789.88 191.14,-791.17 192.8,-792.39"/>
<polygon fill="#63b8ff" stroke="#63b8ff" points="191.2,-795.52 201.55,-797.8 194.89,-789.56 191.2,-795.52"/>
</a>
</g>
</g>
<!-- Node5 -->
<g id="Node000005" class="node">
<title>Node5</title>
<g id="a_Node000005"><a xlink:href="classSceneObject.html#a2ed12216f0ee45423035ddfdb0c9044b" target="_top" xlink:title=" ">
<polygon fill="white" stroke="#666666" points="359.5,-779.5 219.5,-779.5 219.5,-749.5 359.5,-749.5 359.5,-779.5"/>
<text text-anchor="start" x="227.5" y="-767.5" font-family="Helvetica,sans-Serif" font-size="10.00">SceneObject::getCreation</text>
<text text-anchor="middle" x="289.5" y="-756.5" font-family="Helvetica,sans-Serif" font-size="10.00">Options</text>
</a>
</g>
</g>
<!-- Node1&#45;&gt;Node5 -->
<g id="edge5_Node000001_Node000005" class="edge">
<title>Node1&#45;&gt;Node5</title>
<g id="a_edge5_Node000001_Node000005"><a xlink:title=" ">
<path fill="none" stroke="#63b8ff" d="M77.19,-430.11C78.6,-473.4 90.35,-652.11 188,-740.5 194.36,-746.25 201.84,-750.7 209.82,-754.12"/>
<polygon fill="#63b8ff" stroke="#63b8ff" points="208.77,-757.46 219.36,-757.68 211.21,-750.9 208.77,-757.46"/>
</a>
</g>
</g>
<!-- Node6 -->
<g id="Node000006" class="node">
<title>Node6</title>
<g id="a_Node000006"><a xlink:href="classSceneManager.html#ad73f1ee3bdfe2567544871845707ce0f" target="_top" xlink:title=" ">
<polygon fill="white" stroke="#666666" points="391,-731 188,-731 188,-712 391,-712 391,-731"/>
<text text-anchor="middle" x="289.5" y="-719" font-family="Helvetica,sans-Serif" font-size="10.00">SceneManager::getGlobalAcceleration</text>
</a>
</g>
</g>
<!-- Node1&#45;&gt;Node6 -->
<g id="edge6_Node000001_Node000006" class="edge">
<title>Node1&#45;&gt;Node6</title>
<g id="a_edge6_Node000001_Node000006"><a xlink:title=" ">
<path fill="none" stroke="#63b8ff" d="M77.59,-430.16C80.62,-470.65 98.01,-628.03 188,-702.5 189.83,-704.02 191.75,-705.43 193.74,-706.74"/>
<polygon fill="#63b8ff" stroke="#63b8ff" points="192.42,-710.02 202.86,-711.87 195.86,-703.92 192.42,-710.02"/>
</a>
</g>
</g>
<!-- Node7 -->
<g id="Node000007" class="node">
<title>Node7</title>
<g id="a_Node000007"><a xlink:href="classPhysics_1_1PhysicsBody.html#a9b4cbc6f8c2f9834cfd5b251c9b27062" target="_top" xlink:title=" ">
<polygon fill="white" stroke="#666666" points="350,-693.5 229,-693.5 229,-663.5 350,-663.5 350,-693.5"/>
<text text-anchor="start" x="237" y="-681.5" font-family="Helvetica,sans-Serif" font-size="10.00">Physics::PhysicsBody</text>
<text text-anchor="middle" x="289.5" y="-670.5" font-family="Helvetica,sans-Serif" font-size="10.00">::getIsStatic</text>
</a>
</g>
</g>
<!-- Node1&#45;&gt;Node7 -->
<g id="edge7_Node000001_Node000007" class="edge">
<title>Node1&#45;&gt;Node7</title>
<g id="a_edge7_Node000001_Node000007"><a xlink:title=" ">
<path fill="none" stroke="#63b8ff" d="M78.58,-430.36C84.9,-466.49 111.85,-592.78 188,-654.5 197,-661.79 207.85,-666.94 219.06,-670.55"/>
<polygon fill="#63b8ff" stroke="#63b8ff" points="218.38,-673.99 228.95,-673.34 220.28,-667.26 218.38,-673.99"/>
</a>
</g>
</g>
<!-- Node8 -->
<g id="Node000008" class="node">
<title>Node8</title>
<g id="a_Node000008"><a xlink:href="classPhysics_1_1PhysicsBody.html#a04c6bf672135128ea6ebc6028c1a8a97" target="_top" xlink:title=" ">
<polygon fill="white" stroke="#666666" points="350,-645.5 229,-645.5 229,-615.5 350,-615.5 350,-645.5"/>
<text text-anchor="start" x="237" y="-633.5" font-family="Helvetica,sans-Serif" font-size="10.00">Physics::PhysicsBody</text>
<text text-anchor="middle" x="289.5" y="-622.5" font-family="Helvetica,sans-Serif" font-size="10.00">::getMass</text>
</a>
</g>
</g>
<!-- Node1&#45;&gt;Node8 -->
<g id="edge8_Node000001_Node000008" class="edge">
<title>Node1&#45;&gt;Node8</title>
<g id="a_edge8_Node000001_Node000008"><a xlink:title=" ">
<path fill="none" stroke="#63b8ff" d="M79.75,-430.03C89.15,-460.89 123.15,-558.86 188,-606.5 197.17,-613.24 207.96,-618.11 219.01,-621.62"/>
<polygon fill="#63b8ff" stroke="#63b8ff" points="218.18,-625.03 228.76,-624.38 220.09,-618.29 218.18,-625.03"/>
</a>
</g>
</g>
<!-- Node9 -->
<g id="Node000009" class="node">
<title>Node9</title>
<g id="a_Node000009"><a xlink:href="classSceneObject.html#a67fffede336f82183a5b5d2c9d6c8239" target="_top" xlink:title=" ">
<polygon fill="white" stroke="#666666" points="367,-597 212,-597 212,-578 367,-578 367,-597"/>
<text text-anchor="middle" x="289.5" y="-585" font-family="Helvetica,sans-Serif" font-size="10.00">SceneObject::getMeshName</text>
</a>
</g>
</g>
<!-- Node1&#45;&gt;Node9 -->
<g id="edge9_Node000001_Node000009" class="edge">
<title>Node1&#45;&gt;Node9</title>
<g id="a_edge9_Node000001_Node000009"><a xlink:title=" ">
<path fill="none" stroke="#63b8ff" d="M81.05,-430.14C92.96,-457.17 130.66,-534.04 188,-569.5 192.46,-572.26 197.22,-574.61 202.17,-576.63"/>
<polygon fill="#63b8ff" stroke="#63b8ff" points="201.27,-580.03 211.87,-580.11 203.63,-573.44 201.27,-580.03"/>
</a>
</g>
</g>
<!-- Node10 -->
<g id="Node000010" class="node">
<title>Node10</title>
<g id="a_Node000010"><a xlink:href="classSceneObject.html#abebc043e3253d66da477f862a950775d" target="_top" xlink:title=" ">
<polygon fill="white" stroke="#666666" points="353.5,-560 225.5,-560 225.5,-541 353.5,-541 353.5,-560"/>
<text text-anchor="middle" x="289.5" y="-548" font-family="Helvetica,sans-Serif" font-size="10.00">SceneObject::getName</text>
</a>
</g>
</g>
<!-- Node1&#45;&gt;Node10 -->
<g id="edge10_Node000001_Node000010" class="edge">
<title>Node1&#45;&gt;Node10</title>
<g id="a_edge10_Node000001_Node000010"><a xlink:title=" ">
<path fill="none" stroke="#63b8ff" d="M83.42,-430.25C98.64,-452.46 139.28,-506.92 188,-532.5 196.5,-536.97 205.91,-540.35 215.45,-542.9"/>
<polygon fill="#63b8ff" stroke="#63b8ff" points="214.88,-546.36 225.42,-545.28 216.5,-539.55 214.88,-546.36"/>
</a>
</g>
</g>
<!-- Node11 -->
<g id="Node000011" class="node">
<title>Node11</title>
<g id="a_Node000011"><a xlink:href="classSceneManager.html#a48e7f142395f016ab391145e686f373e" target="_top" xlink:title=" ">
<polygon fill="white" stroke="#666666" points="372,-523 207,-523 207,-504 372,-504 372,-523"/>
<text text-anchor="middle" x="289.5" y="-511" font-family="Helvetica,sans-Serif" font-size="10.00">SceneManager::getObjectByID</text>
</a>
</g>
</g>
<!-- Node1&#45;&gt;Node11 -->
<g id="edge11_Node000001_Node000011" class="edge">
<title>Node1&#45;&gt;Node11</title>
<g id="a_edge11_Node000001_Node000011"><a xlink:title=" ">
<path fill="none" stroke="#63b8ff" d="M87.76,-430.08C106.62,-446.31 147.49,-479.05 188,-495.5 193.42,-497.7 199.11,-499.63 204.91,-501.33"/>
<polygon fill="#63b8ff" stroke="#63b8ff" points="204.19,-504.76 214.76,-503.97 206,-498 204.19,-504.76"/>
</a>
</g>
</g>
<!-- Node12 -->
<g id="Node000012" class="node">
<title>Node12</title>
<g id="a_Node000012"><a xlink:href="classSceneObject.html#ad77f12eb793b32da2ef40f0042cb1de8" target="_top" xlink:title="Gets the unique identifier for this object.">
<polygon fill="white" stroke="#666666" points="360,-486 219,-486 219,-467 360,-467 360,-486"/>
<text text-anchor="middle" x="289.5" y="-474" font-family="Helvetica,sans-Serif" font-size="10.00">SceneObject::getObjectID</text>
</a>
</g>
</g>
<!-- Node1&#45;&gt;Node12 -->
<g id="edge12_Node000001_Node000012" class="edge">
<title>Node1&#45;&gt;Node12</title>
<g id="a_edge12_Node000001_Node000012"><a xlink:title=" ">
<path fill="none" stroke="#63b8ff" d="M101.36,-430.04C123.63,-438.48 157.63,-450.63 188,-458.5 197.23,-460.89 207.02,-463.07 216.73,-465.03"/>
<polygon fill="#63b8ff" stroke="#63b8ff" points="216.31,-468.51 226.79,-466.98 217.64,-461.64 216.31,-468.51"/>
</a>
</g>
</g>
<!-- Node13 -->
<g id="Node000013" class="node">
<title>Node13</title>
<g id="a_Node000013"><a xlink:href="classSceneManager.html#af96b87421832797ab531895ec04bee09" target="_top" xlink:title=" ">
<polygon fill="white" stroke="#666666" points="363,-449 216,-449 216,-430 363,-430 363,-449"/>
<text text-anchor="middle" x="289.5" y="-437" font-family="Helvetica,sans-Serif" font-size="10.00">SceneManager::getObjects</text>
</a>
</g>
</g>
<!-- Node1&#45;&gt;Node13 -->
<g id="edge13_Node000001_Node000013" class="edge">
<title>Node1&#45;&gt;Node13</title>
<g id="a_edge13_Node000001_Node000013"><a xlink:title=" ">
<path fill="none" stroke="#63b8ff" d="M152.16,-427.25C169.43,-428.8 187.89,-430.46 205.47,-432.04"/>
<polygon fill="#63b8ff" stroke="#63b8ff" points="205.44,-435.55 215.71,-432.96 206.06,-428.58 205.44,-435.55"/>
</a>
</g>
</g>
<!-- Node14 -->
<g id="Node000014" class="node">
<title>Node14</title>
<g id="a_Node000014"><a xlink:href="classSceneObject.html#ab3595ced6ccce80d1e864bbf28e1988a" target="_top" xlink:title=" ">
<polygon fill="white" stroke="#666666" points="370,-412 209,-412 209,-393 370,-393 370,-412"/>
<text text-anchor="middle" x="289.5" y="-400" font-family="Helvetica,sans-Serif" font-size="10.00">SceneObject::getPhysicsBody</text>
</a>
</g>
</g>
<!-- Node1&#45;&gt;Node14 -->
<g id="edge14_Node000001_Node000014" class="edge">
<title>Node1&#45;&gt;Node14</title>
<g id="a_edge14_Node000001_Node000014"><a xlink:title=" ">
<path fill="none" stroke="#63b8ff" d="M152.16,-414.1C167.26,-412.82 183.27,-411.46 198.8,-410.13"/>
<polygon fill="#63b8ff" stroke="#63b8ff" points="199.26,-413.61 208.92,-409.27 198.66,-406.63 199.26,-413.61"/>
</a>
</g>
</g>
<!-- Node15 -->
<g id="Node000015" class="node">
<title>Node15</title>
<g id="a_Node000015"><a xlink:href="classSceneObject.html#a3d1aa613dd4f4ee6947754a355a48cc9" target="_top" xlink:title=" ">
<polygon fill="white" stroke="#666666" points="358.5,-375 220.5,-375 220.5,-356 358.5,-356 358.5,-375"/>
<text text-anchor="middle" x="289.5" y="-363" font-family="Helvetica,sans-Serif" font-size="10.00">SceneObject::getPosition</text>
</a>
</g>
</g>
<!-- Node1&#45;&gt;Node15 -->
<g id="edge15_Node000001_Node000015" class="edge">
<title>Node1&#45;&gt;Node15</title>
<g id="a_edge15_Node000001_Node000015"><a xlink:title=" ">
<path fill="none" stroke="#63b8ff" d="M103.19,-410.97C125.51,-403.09 158.56,-392.03 188,-384.5 198.67,-381.77 210.07,-379.25 221.21,-377"/>
<polygon fill="#63b8ff" stroke="#63b8ff" points="222.22,-380.37 231.35,-375 220.87,-373.5 222.22,-380.37"/>
</a>
</g>
</g>
<!-- Node16 -->
<g id="Node000016" class="node">
<title>Node16</title>
<g id="a_Node000016"><a xlink:href="classSceneObject.html#a3783915337e9b271e66b49ce82abe8f4" target="_top" xlink:title=" ">
<polygon fill="white" stroke="#666666" points="359.5,-338 219.5,-338 219.5,-319 359.5,-319 359.5,-338"/>
<text text-anchor="middle" x="289.5" y="-326" font-family="Helvetica,sans-Serif" font-size="10.00">SceneObject::getRotation</text>
</a>
</g>
</g>
<!-- Node1&#45;&gt;Node16 -->
<g id="edge16_Node000001_Node000016" class="edge">
<title>Node1&#45;&gt;Node16</title>
<g id="a_edge16_Node000001_Node000016"><a xlink:title=" ">
<path fill="none" stroke="#63b8ff" d="M88.13,-410.97C107.22,-395.17 148.01,-363.67 188,-347.5 194.79,-344.75 202,-342.4 209.32,-340.38"/>
<polygon fill="#63b8ff" stroke="#63b8ff" points="210.51,-343.69 219.34,-337.83 208.79,-336.91 210.51,-343.69"/>
</a>
</g>
</g>
<!-- Node17 -->
<g id="Node000017" class="node">
<title>Node17</title>
<g id="a_Node000017"><a xlink:href="classSceneObject.html#a43bf76c6717d9210f576852aee2297c7" target="_top" xlink:title=" ">
<polygon fill="white" stroke="#666666" points="352,-301 227,-301 227,-282 352,-282 352,-301"/>
<text text-anchor="middle" x="289.5" y="-289" font-family="Helvetica,sans-Serif" font-size="10.00">SceneObject::getScale</text>
</a>
</g>
</g>
<!-- Node1&#45;&gt;Node17 -->
<g id="edge17_Node000001_Node000017" class="edge">
<title>Node1&#45;&gt;Node17</title>
<g id="a_edge17_Node000001_Node000017"><a xlink:title=" ">
<path fill="none" stroke="#63b8ff" d="M83.48,-410.96C98.83,-389.21 139.73,-335.87 188,-310.5 196.9,-305.82 206.78,-302.28 216.77,-299.61"/>
<polygon fill="#63b8ff" stroke="#63b8ff" points="217.86,-302.95 226.77,-297.22 216.23,-296.14 217.86,-302.95"/>
</a>
</g>
</g>
<!-- Node18 -->
<g id="Node000018" class="node">
<title>Node18</title>
<g id="a_Node000018"><a xlink:href="classSceneObject.html#a80f6133afc5bdf8f4d5d560995c9718a" target="_top" xlink:title="Gets the shader used to render this object.">
<polygon fill="white" stroke="#666666" points="356,-264 223,-264 223,-245 356,-245 356,-264"/>
<text text-anchor="middle" x="289.5" y="-252" font-family="Helvetica,sans-Serif" font-size="10.00">SceneObject::getShader</text>
</a>
</g>
</g>
<!-- Node1&#45;&gt;Node18 -->
<g id="edge18_Node000001_Node000018" class="edge">
<title>Node1&#45;&gt;Node18</title>
<g id="a_edge18_Node000001_Node000018"><a xlink:title=" ">
<path fill="none" stroke="#63b8ff" d="M81.28,-410.63C93.53,-383.7 131.48,-308.58 188,-273.5 195.7,-268.72 204.33,-265.09 213.2,-262.35"/>
<polygon fill="#63b8ff" stroke="#63b8ff" points="214.17,-265.71 222.9,-259.7 212.33,-258.96 214.17,-265.71"/>
</a>
</g>
</g>
<!-- Node19 -->
<g id="Node000019" class="node">
<title>Node19</title>
<g id="a_Node000019"><a xlink:href="classResourceManager.html#ab447c164418daff9c741b03b4bf33310" target="_top" xlink:title=" ">
<polygon fill="white" stroke="#666666" points="384,-227 195,-227 195,-208 384,-208 384,-227"/>
<text text-anchor="middle" x="289.5" y="-215" font-family="Helvetica,sans-Serif" font-size="10.00">ResourceManager::getShaderName</text>
</a>
</g>
</g>
<!-- Node1&#45;&gt;Node19 -->
<g id="edge19_Node000001_Node000019" class="edge">
<title>Node1&#45;&gt;Node19</title>
<g id="a_edge19_Node000001_Node000019"><a xlink:title=" ">
<path fill="none" stroke="#63b8ff" d="M79.69,-410.95C88.92,-380.03 122.44,-282.07 188,-236.5 190.73,-234.6 193.61,-232.88 196.58,-231.31"/>
<polygon fill="#63b8ff" stroke="#63b8ff" points="198.16,-234.44 205.79,-227.09 195.24,-228.08 198.16,-234.44"/>
</a>
</g>
</g>
<!-- Node20 -->
<g id="Node000020" class="node">
<title>Node20</title>
<g id="a_Node000020"><a xlink:href="classSceneManager.html#ae085a7aade1b9a2adcb7d9f1b2660790" target="_top" xlink:title=" ">
<polygon fill="white" stroke="#666666" points="369,-190 210,-190 210,-171 369,-171 369,-190"/>
<text text-anchor="middle" x="289.5" y="-178" font-family="Helvetica,sans-Serif" font-size="10.00">SceneManager::getSimSpeed</text>
</a>
</g>
</g>
<!-- Node1&#45;&gt;Node20 -->
<g id="edge20_Node000001_Node000020" class="edge">
<title>Node1&#45;&gt;Node20</title>
<g id="a_edge20_Node000001_Node000020"><a xlink:title=" ">
<path fill="none" stroke="#63b8ff" d="M78.64,-411C85.18,-376.19 112.78,-254.76 188,-198.5 191.88,-195.6 196.07,-193.11 200.47,-190.99"/>
<polygon fill="#63b8ff" stroke="#63b8ff" points="201.87,-194.19 209.75,-187.11 199.17,-187.74 201.87,-194.19"/>
</a>
</g>
</g>
<!-- Node22 -->
<g id="Node000022" class="node">
<title>Node22</title>
<g id="a_Node000022"><a xlink:href="classPhysics_1_1PhysicsBody.html#a5589f3d686ebb04f47fa42376b9939b5" target="_top" xlink:title=" ">
<polygon fill="white" stroke="#666666" points="353.5,-152.5 225.5,-152.5 225.5,-122.5 353.5,-122.5 353.5,-152.5"/>
<text text-anchor="start" x="233.5" y="-140.5" font-family="Helvetica,sans-Serif" font-size="10.00">Physics::PhysicsBody</text>
<text text-anchor="middle" x="289.5" y="-129.5" font-family="Helvetica,sans-Serif" font-size="10.00">::getThermalProperties</text>
</a>
</g>
</g>
<!-- Node1&#45;&gt;Node22 -->
<g id="edge22_Node000001_Node000022" class="edge">
<title>Node1&#45;&gt;Node22</title>
<g id="a_edge22_Node000001_Node000022"><a xlink:title=" ">
<path fill="none" stroke="#63b8ff" d="M78.05,-410.95C82.77,-372.93 105.51,-231.01 188,-161.5 196,-154.76 205.58,-149.84 215.6,-146.27"/>
<polygon fill="#63b8ff" stroke="#63b8ff" points="216.8,-149.56 225.3,-143.24 214.71,-142.88 216.8,-149.56"/>
</a>
</g>
</g>
<!-- Node23 -->
<g id="Node000023" class="node">
<title>Node23</title>
<g id="a_Node000023"><a xlink:href="classPhysics_1_1PhysicsBody.html#a4bbf491e193cf2e29954c38a92865e29" target="_top" xlink:title=" ">
<polygon fill="white" stroke="#666666" points="350,-104.5 229,-104.5 229,-74.5 350,-74.5 350,-104.5"/>
<text text-anchor="start" x="237" y="-92.5" font-family="Helvetica,sans-Serif" font-size="10.00">Physics::PhysicsBody</text>
<text text-anchor="middle" x="289.5" y="-81.5" font-family="Helvetica,sans-Serif" font-size="10.00">::getVelocity</text>
</a>
</g>
</g>
<!-- Node1&#45;&gt;Node23 -->
<g id="edge23_Node000001_Node000023" class="edge">
<title>Node1&#45;&gt;Node23</title>
<g id="a_edge23_Node000001_Node000023"><a xlink:title=" ">
<path fill="none" stroke="#63b8ff" d="M77.35,-410.99C79.41,-368.93 93.54,-197.89 188,-113.5 196.83,-105.61 207.79,-100.19 219.19,-96.5"/>
<polygon fill="#63b8ff" stroke="#63b8ff" points="220.16,-99.86 228.84,-93.78 218.27,-93.12 220.16,-99.86"/>
</a>
</g>
</g>
<!-- Node24 -->
<g id="Node000024" class="node">
<title>Node24</title>
<g id="a_Node000024"><a xlink:href="namespaceJsonUtils.html#a6871183dbbf50d7d3fa9370da6559025" target="_top" xlink:title=" ">
<polygon fill="white" stroke="#666666" points="356.5,-56 222.5,-56 222.5,-37 356.5,-37 356.5,-56"/>
<text text-anchor="middle" x="289.5" y="-44" font-family="Helvetica,sans-Serif" font-size="10.00">JsonUtils::thermalToJson</text>
</a>
</g>
</g>
<!-- Node1&#45;&gt;Node24 -->
<g id="edge24_Node000001_Node000024" class="edge">
<title>Node1&#45;&gt;Node24</title>
<g id="a_edge24_Node000001_Node000024"><a xlink:title=" ">
<path fill="none" stroke="#63b8ff" d="M76.72,-410.71C75.96,-364.02 79.23,-162.31 188,-65.5 195.14,-59.15 203.71,-54.63 212.81,-51.45"/>
<polygon fill="#63b8ff" stroke="#63b8ff" points="213.84,-54.79 222.44,-48.6 211.86,-48.08 213.84,-54.79"/>
</a>
</g>
</g>
<!-- Node25 -->
<g id="Node000025" class="node">
<title>Node25</title>
<g id="a_Node000025"><a xlink:href="namespaceJsonUtils.html#aa9bf373a72d131da0b8d71ade1295533" target="_top" xlink:title=" ">
<polygon fill="white" stroke="#666666" points="349,-19 230,-19 230,0 349,0 349,-19"/>
<text text-anchor="middle" x="289.5" y="-7" font-family="Helvetica,sans-Serif" font-size="10.00">JsonUtils::vec3ToJson</text>
</a>
</g>
</g>
<!-- Node1&#45;&gt;Node25 -->
<g id="edge25_Node000001_Node000025" class="edge">
<title>Node1&#45;&gt;Node25</title>
<g id="a_edge25_Node000001_Node000025"><a xlink:title=" ">
<path fill="none" stroke="#63b8ff" d="M78.33,-410.86C86.13,-355.85 127.59,-82.26 188,-27.5 196.93,-19.41 208.2,-14.34 219.94,-11.27"/>
<polygon fill="#63b8ff" stroke="#63b8ff" points="220.83,-14.66 229.87,-9.14 219.36,-7.82 220.83,-14.66"/>
</a>
</g>
</g>
<!-- Node3&#45;&gt;Node2 -->
<g id="edge3_Node000003_Node000002" class="edge">
<title>Node3&#45;&gt;Node2</title>
<g id="a_edge3_Node000003_Node000002"><a xlink:title=" ">
<path fill="none" stroke="#63b8ff" d="M346.38,-817.03C376.64,-822.19 414.09,-828.57 445.28,-833.89"/>
<polygon fill="#63b8ff" stroke="#63b8ff" points="444.72,-837.35 455.16,-835.58 445.89,-830.45 444.72,-837.35"/>
</a>
</g>
</g>
<!-- Node4 -->
<g id="Node000004" class="node">
<title>Node4</title>
<g id="a_Node000004"><a xlink:href="classCamera.html#a962f895654dc24f21502b5141368c4d3" target="_top" xlink:title=" ">
<polygon fill="white" stroke="#666666" points="562,-817 455,-817 455,-798 562,-798 562,-817"/>
<text text-anchor="middle" x="508.5" y="-805" font-family="Helvetica,sans-Serif" font-size="10.00">Camera::getTarget</text>
</a>
</g>
</g>
<!-- Node3&#45;&gt;Node4 -->
<g id="edge4_Node000003_Node000004" class="edge">
<title>Node3&#45;&gt;Node4</title>
<g id="a_edge4_Node000003_Node000004"><a xlink:title=" ">
<path fill="none" stroke="#63b8ff" d="M379.08,-807.5C401.13,-807.5 424.32,-807.5 444.84,-807.5"/>
<polygon fill="#63b8ff" stroke="#63b8ff" points="444.99,-811 454.99,-807.5 444.99,-804 444.99,-811"/>
</a>
</g>
</g>
<!-- Node21 -->
<g id="Node000021" class="node">
<title>Node21</title>
<g id="a_Node000021"><a xlink:href="classOpenGLWindow.html#aeabd921e42871e7ecb6d2297580d5b81" target="_top" xlink:title=" ">
<polygon fill="white" stroke="#666666" points="590,-190 427,-190 427,-171 590,-171 590,-190"/>
<text text-anchor="middle" x="508.5" y="-178" font-family="Helvetica,sans-Serif" font-size="10.00">OpenGLWindow::getSimSpeed</text>
</a>
</g>
</g>
<!-- Node20&#45;&gt;Node21 -->
<g id="edge21_Node000020_Node000021" class="edge">
<title>Node20&#45;&gt;Node21</title>
<g id="a_edge21_Node000020_Node000021"><a xlink:title=" ">
<path fill="none" stroke="#63b8ff" d="M369.15,-180.5C384.57,-180.5 400.87,-180.5 416.65,-180.5"/>
<polygon fill="#63b8ff" stroke="#63b8ff" points="416.93,-184 426.93,-180.5 416.93,-177 416.93,-184"/>
</a>
</g>
</g>
</g>
</svg>
