<?xml version="1.0" encoding="UTF-8" standalone="no"?>
<!DOCTYPE svg PUBLIC "-//W3C//DTD SVG 1.1//EN"
 "http://www.w3.org/Graphics/SVG/1.1/DTD/svg11.dtd">
<!-- Generated by graphviz version 2.43.0 (0)
 -->
<!-- Title: Scene::draw Pages: 1 -->
<svg width="467pt" height="175pt"
 viewBox="0.00 0.00 467.00 175.00" xmlns="http://www.w3.org/2000/svg" xmlns:xlink="http://www.w3.org/1999/xlink">
<g id="graph0" class="graph" transform="scale(1 1) rotate(0) translate(4 171)">
<title>Scene::draw</title>
<!-- Node1 -->
<g id="Node000001" class="node">
<title>Node1</title>
<g id="a_Node000001"><a xlink:title=" ">
<polygon fill="#999999" stroke="#666666" points="76,-93 0,-93 0,-74 76,-74 76,-93"/>
<text text-anchor="middle" x="38" y="-81" font-family="Helvetica,sans-Serif" font-size="10.00">Scene::draw</text>
</a>
</g>
</g>
<!-- Node2 -->
<g id="Node000002" class="node">
<title>Node2</title>
<g id="a_Node000002"><a xlink:href="classCamera.html#a1a29e1564468a5b612eb141c9d44170d" target="_top" xlink:title=" ">
<polygon fill="white" stroke="#666666" points="262,-167 135,-167 135,-148 262,-148 262,-167"/>
<text text-anchor="middle" x="198.5" y="-155" font-family="Helvetica,sans-Serif" font-size="10.00">Camera::getProjMatrix</text>
</a>
</g>
</g>
<!-- Node1&#45;&gt;Node2 -->
<g id="edge1_Node000001_Node000002" class="edge">
<title>Node1&#45;&gt;Node2</title>
<g id="a_edge1_Node000001_Node000002"><a xlink:title=" ">
<path fill="none" stroke="#63b8ff" d="M48.45,-93.05C61.53,-105.69 86.46,-127.76 112,-139.5 116.42,-141.53 121.07,-143.34 125.83,-144.94"/>
<polygon fill="#63b8ff" stroke="#63b8ff" points="125.12,-148.38 135.71,-147.96 127.17,-141.69 125.12,-148.38"/>
</a>
</g>
</g>
<!-- Node3 -->
<g id="Node000003" class="node">
<title>Node3</title>
<g id="a_Node000003"><a xlink:href="classCamera.html#a2f90e661a78172675ca06ea69667b531" target="_top" xlink:title=" ">
<polygon fill="white" stroke="#666666" points="264.5,-130 132.5,-130 132.5,-111 264.5,-111 264.5,-130"/>
<text text-anchor="middle" x="198.5" y="-118" font-family="Helvetica,sans-Serif" font-size="10.00">Camera::getViewMatrix</text>
</a>
</g>
</g>
<!-- Node1&#45;&gt;Node3 -->
<g id="edge2_Node000001_Node000003" class="edge">
<title>Node1&#45;&gt;Node3</title>
<g id="a_edge2_Node000001_Node000003"><a xlink:title=" ">
<path fill="none" stroke="#63b8ff" d="M74.19,-93.02C86.16,-96.16 99.63,-99.59 112,-102.5 121.21,-104.67 131,-106.84 140.55,-108.9"/>
<polygon fill="#63b8ff" stroke="#63b8ff" points="139.86,-112.33 150.37,-110.99 141.32,-105.49 139.86,-112.33"/>
</a>
</g>
</g>
<!-- Node4 -->
<g id="Node000004" class="node">
<title>Node4</title>
<g id="a_Node000004"><a xlink:href="classSceneObject.html#ac01ac7731712baaeb3173a2a7e3f151a" target="_top" xlink:title=" ">
<polygon fill="white" stroke="#666666" points="285,-93 112,-93 112,-74 285,-74 285,-93"/>
<text text-anchor="middle" x="198.5" y="-81" font-family="Helvetica,sans-Serif" font-size="10.00">SceneObject::setPhysicsPosMap</text>
</a>
</g>
</g>
<!-- Node1&#45;&gt;Node4 -->
<g id="edge3_Node000001_Node000004" class="edge">
<title>Node1&#45;&gt;Node4</title>
<g id="a_edge3_Node000001_Node000004"><a xlink:title=" ">
<path fill="none" stroke="#63b8ff" d="M76.16,-83.5C84.01,-83.5 92.63,-83.5 101.54,-83.5"/>
<polygon fill="#63b8ff" stroke="#63b8ff" points="101.71,-87 111.71,-83.5 101.71,-80 101.71,-87"/>
</a>
</g>
</g>
<!-- Node5 -->
<g id="Node000005" class="node">
<title>Node5</title>
<g id="a_Node000005"><a xlink:href="classCamera.html#a42cda7239981a5618660d04bd5893556" target="_top" xlink:title=" ">
<polygon fill="white" stroke="#666666" points="246,-56 151,-56 151,-37 246,-37 246,-56"/>
<text text-anchor="middle" x="198.5" y="-44" font-family="Helvetica,sans-Serif" font-size="10.00">Camera::update</text>
</a>
</g>
</g>
<!-- Node1&#45;&gt;Node5 -->
<g id="edge4_Node000001_Node000005" class="edge">
<title>Node1&#45;&gt;Node5</title>
<g id="a_edge4_Node000001_Node000005"><a xlink:title=" ">
<path fill="none" stroke="#63b8ff" d="M76.1,-74.18C87.59,-71.34 100.31,-68.24 112,-65.5 122.21,-63.11 133.12,-60.62 143.62,-58.27"/>
<polygon fill="#63b8ff" stroke="#63b8ff" points="144.52,-61.66 153.52,-56.07 143,-54.83 144.52,-61.66"/>
</a>
</g>
</g>
<!-- Node7 -->
<g id="Node000007" class="node">
<title>Node7</title>
<g id="a_Node000007"><a xlink:href="classUniformBuffer.html#ab8c80840cb69d51f92ef35365deb47ef" target="_top" xlink:title=" ">
<polygon fill="white" stroke="#666666" points="273,-19 124,-19 124,0 273,0 273,-19"/>
<text text-anchor="middle" x="198.5" y="-7" font-family="Helvetica,sans-Serif" font-size="10.00">UniformBuffer::updateData</text>
</a>
</g>
</g>
<!-- Node1&#45;&gt;Node7 -->
<g id="edge6_Node000001_Node000007" class="edge">
<title>Node1&#45;&gt;Node7</title>
<g id="a_edge6_Node000001_Node000007"><a xlink:title=" ">
<path fill="none" stroke="#63b8ff" d="M48.95,-73.75C62.21,-61.32 86.93,-40.06 112,-28.5 117.4,-26.01 123.14,-23.84 128.99,-21.95"/>
<polygon fill="#63b8ff" stroke="#63b8ff" points="130.31,-25.21 138.91,-19.02 128.33,-18.49 130.31,-25.21"/>
</a>
</g>
</g>
<!-- Node6 -->
<g id="Node000006" class="node">
<title>Node6</title>
<g id="a_Node000006"><a xlink:href="classSceneObject.html#a3d1aa613dd4f4ee6947754a355a48cc9" target="_top" xlink:title=" ">
<polygon fill="white" stroke="#666666" points="459,-56 321,-56 321,-37 459,-37 459,-56"/>
<text text-anchor="middle" x="390" y="-44" font-family="Helvetica,sans-Serif" font-size="10.00">SceneObject::getPosition</text>
</a>
</g>
</g>
<!-- Node5&#45;&gt;Node6 -->
<g id="edge5_Node000005_Node000006" class="edge">
<title>Node5&#45;&gt;Node6</title>
<g id="a_edge5_Node000005_Node000006"><a xlink:title=" ">
<path fill="none" stroke="#63b8ff" d="M246.34,-46.5C265.74,-46.5 288.77,-46.5 310.61,-46.5"/>
<polygon fill="#63b8ff" stroke="#63b8ff" points="310.87,-50 320.87,-46.5 310.87,-43 310.87,-50"/>
</a>
</g>
</g>
</g>
</svg>
