<?xml version="1.0" encoding="UTF-8" standalone="no"?>
<!DOCTYPE svg PUBLIC "-//W3C//DTD SVG 1.1//EN"
 "http://www.w3.org/Graphics/SVG/1.1/DTD/svg11.dtd">
<!-- Generated by graphviz version 2.43.0 (0)
 -->
<!-- Title: ScaleHandle::getModelMatrix Pages: 1 -->
<svg width="369pt" height="101pt"
 viewBox="0.00 0.00 369.00 101.00" xmlns="http://www.w3.org/2000/svg" xmlns:xlink="http://www.w3.org/1999/xlink">

<svg id="main" version="1.1" xmlns="http://www.w3.org/2000/svg" xmlns:xlink="http://www.w3.org/1999/xlink" xml:space="preserve" onload="init(evt)">
<style type="text/css"><![CDATA[
.node, .edge {opacity: 0.7;}
.node.selected, .edge.selected {opacity: 1;}
.edge:hover path { stroke: red; }
.edge:hover polygon { stroke: red; fill: red; }
]]></style>
<script type="application/ecmascript" xlink:href="svg.min.js"/>
<svg id="graph" class="graph">
<g id="graph0" class="graph" transform="scale(1 1) rotate(0) translate(4 97)">
<title>ScaleHandle::getModelMatrix</title>
<!-- Node1 -->
<g id="Node000001" class="node">
<title>Node1</title>
<g id="a_Node000001"><a xlink:title=" ">
<polygon fill="#999999" stroke="#666666" points="161,-56 0,-56 0,-37 161,-37 161,-56"/>
<text text-anchor="middle" x="80.5" y="-44" font-family="Helvetica,sans-Serif" font-size="10.00">ScaleHandle::getModelMatrix</text>
</a>
</g>
</g>
<!-- Node2 -->
<g id="Node000002" class="node">
<title>Node2</title>
<g id="a_Node000002"><a xlink:href="IHandle_8h.html#a964bf79581c06e837f1d55438f924d2e" target="_top" xlink:title=" ">
<polygon fill="white" stroke="#666666" points="304.5,-93 253.5,-93 253.5,-74 304.5,-74 304.5,-93"/>
<text text-anchor="middle" x="279" y="-81" font-family="Helvetica,sans-Serif" font-size="10.00">axisDir</text>
</a>
</g>
</g>
<!-- Node1&#45;&gt;Node2 -->
<g id="edge1_Node000001_Node000002" class="edge">
<title>Node1&#45;&gt;Node2</title>
<g id="a_edge1_Node000001_Node000002"><a xlink:title=" ">
<path fill="none" stroke="#63b8ff" d="M132.1,-56.03C167.04,-62.61 212.59,-71.18 243.43,-76.99"/>
<polygon fill="#63b8ff" stroke="#63b8ff" points="242.82,-80.44 253.29,-78.85 244.11,-73.56 242.82,-80.44"/>
</a>
</g>
</g>
<!-- Node3 -->
<g id="Node000003" class="node">
<title>Node3</title>
<g id="a_Node000003"><a xlink:href="classSceneObject.html#a3d1aa613dd4f4ee6947754a355a48cc9" target="_top" xlink:title=" ">
<polygon fill="white" stroke="#666666" points="348,-56 210,-56 210,-37 348,-37 348,-56"/>
<text text-anchor="middle" x="279" y="-44" font-family="Helvetica,sans-Serif" font-size="10.00">SceneObject::getPosition</text>
</a>
</g>
</g>
<!-- Node1&#45;&gt;Node3 -->
<g id="edge2_Node000001_Node000003" class="edge">
<title>Node1&#45;&gt;Node3</title>
<g id="a_edge2_Node000001_Node000003"><a xlink:title=" ">
<path fill="none" stroke="#63b8ff" d="M161.14,-46.5C173.9,-46.5 187.09,-46.5 199.82,-46.5"/>
<polygon fill="#63b8ff" stroke="#63b8ff" points="199.91,-50 209.91,-46.5 199.91,-43 199.91,-50"/>
</a>
</g>
</g>
<!-- Node4 -->
<g id="Node000004" class="node">
<title>Node4</title>
<g id="a_Node000004"><a xlink:href="classSceneObject.html#a7ba00c8012e21f9833880b89e311aedf" target="_top" xlink:title=" ">
<polygon fill="white" stroke="#666666" points="361,-19 197,-19 197,0 361,0 361,-19"/>
<text text-anchor="middle" x="279" y="-7" font-family="Helvetica,sans-Serif" font-size="10.00">SceneObject::getRotationQuat</text>
</a>
</g>
</g>
<!-- Node1&#45;&gt;Node4 -->
<g id="edge3_Node000001_Node000004" class="edge">
<title>Node1&#45;&gt;Node4</title>
<g id="a_edge3_Node000001_Node000004"><a xlink:title=" ">
<path fill="none" stroke="#63b8ff" d="M132.1,-36.97C158.13,-32.07 190.05,-26.06 217.38,-20.91"/>
<polygon fill="#63b8ff" stroke="#63b8ff" points="218.05,-24.35 227.23,-19.06 216.75,-17.47 218.05,-24.35"/>
</a>
</g>
</g>
</g>
</svg>
</svg>

<style type='text/css'>
<![CDATA[
[data-mouse-over-selected='false'] { opacity: 0.7; }
[data-mouse-over-selected='true']  { opacity: 1.0; }
]]>
</style>
<script type="application/ecmascript"><![CDATA[
document.addEventListener('DOMContentLoaded', (event) => {
  highlightEdges();
  highlightAdjacentNodes();
});
]]></script>
</svg>
