<?xml version="1.0" encoding="UTF-8" standalone="no"?>
<!DOCTYPE svg PUBLIC "-//W3C//DTD SVG 1.1//EN"
 "http://www.w3.org/Graphics/SVG/1.1/DTD/svg11.dtd">
<!-- Generated by graphviz version 2.43.0 (0)
 -->
<!-- Title: ResourceManager::getMesh Pages: 1 -->
<svg width="340pt" height="138pt"
 viewBox="0.00 0.00 340.00 138.00" xmlns="http://www.w3.org/2000/svg" xmlns:xlink="http://www.w3.org/1999/xlink">

<svg id="main" version="1.1" xmlns="http://www.w3.org/2000/svg" xmlns:xlink="http://www.w3.org/1999/xlink" xml:space="preserve" onload="init(evt)">
<style type="text/css"><![CDATA[
.node, .edge {opacity: 0.7;}
.node.selected, .edge.selected {opacity: 1;}
.edge:hover path { stroke: red; }
.edge:hover polygon { stroke: red; fill: red; }
]]></style>
<script type="application/ecmascript" xlink:href="svg.min.js"/>
<svg id="graph" class="graph">
<g id="graph0" class="graph" transform="scale(1 1) rotate(0) translate(4 134)">
<title>ResourceManager::getMesh</title>
<!-- Node1 -->
<g id="Node000001" class="node">
<title>Node1</title>
<g id="a_Node000001"><a xlink:title=" ">
<polygon fill="#999999" stroke="#666666" points="332,-74 180,-74 180,-55 332,-55 332,-74"/>
<text text-anchor="middle" x="256" y="-62" font-family="Helvetica,sans-Serif" font-size="10.00">ResourceManager::getMesh</text>
</a>
</g>
</g>
<!-- Node2 -->
<g id="Node000002" class="node">
<title>Node2</title>
<g id="a_Node000002"><a xlink:href="classColliders.html#a4dedfd413ebcf7c07823b11d4f031ae3" target="_top" xlink:title=" ">
<polygon fill="white" stroke="#666666" points="126,-130 18,-130 18,-111 126,-111 126,-130"/>
<text text-anchor="middle" x="72" y="-118" font-family="Helvetica,sans-Serif" font-size="10.00">Colliders::Colliders</text>
</a>
</g>
</g>
<!-- Node1&#45;&gt;Node2 -->
<g id="edge1_Node000001_Node000002" class="edge">
<title>Node1&#45;&gt;Node2</title>
<g id="a_edge1_Node000001_Node000002"><a xlink:title=" ">
<path fill="none" stroke="#63b8ff" d="M219.72,-77.4C198.02,-85.13 169.57,-94.9 144,-102.5 134.01,-105.47 123.13,-108.39 112.96,-110.98"/>
<polygon fill="#63b8ff" stroke="#63b8ff" points="220.94,-80.68 229.18,-74.01 218.58,-74.09 220.94,-80.68"/>
</a>
</g>
</g>
<!-- Node3 -->
<g id="Node000003" class="node">
<title>Node3</title>
<g id="a_Node000003"><a xlink:href="classForces.html#a945a76ef36ff7ae831e85542658beafe" target="_top" xlink:title="Performs custom rendering for this object.">
<polygon fill="white" stroke="#666666" points="111,-93 33,-93 33,-74 111,-74 111,-93"/>
<text text-anchor="middle" x="72" y="-81" font-family="Helvetica,sans-Serif" font-size="10.00">Forces::draw</text>
</a>
</g>
</g>
<!-- Node1&#45;&gt;Node3 -->
<g id="edge2_Node000001_Node000003" class="edge">
<title>Node1&#45;&gt;Node3</title>
<g id="a_edge2_Node000001_Node000003"><a xlink:title=" ">
<path fill="none" stroke="#63b8ff" d="M169.86,-73.39C149.25,-75.54 128.24,-77.73 111.07,-79.53"/>
<polygon fill="#63b8ff" stroke="#63b8ff" points="170.34,-76.86 179.92,-72.34 169.61,-69.9 170.34,-76.86"/>
</a>
</g>
</g>
<!-- Node4 -->
<g id="Node000004" class="node">
<title>Node4</title>
<g id="a_Node000004"><a xlink:href="classGizmo.html#a1e13702675ff2136fb680b6cd08ce4f1" target="_top" xlink:title="Constructs a gizmo for the specified target object.">
<polygon fill="white" stroke="#666666" points="115,-56 29,-56 29,-37 115,-37 115,-56"/>
<text text-anchor="middle" x="72" y="-44" font-family="Helvetica,sans-Serif" font-size="10.00">Gizmo::Gizmo</text>
</a>
</g>
</g>
<!-- Node1&#45;&gt;Node4 -->
<g id="edge3_Node000001_Node000004" class="edge">
<title>Node1&#45;&gt;Node4</title>
<g id="a_edge3_Node000001_Node000004"><a xlink:title=" ">
<path fill="none" stroke="#63b8ff" d="M169.74,-56.07C150.75,-54.19 131.43,-52.28 115.1,-50.66"/>
<polygon fill="#63b8ff" stroke="#63b8ff" points="169.63,-59.57 179.92,-57.07 170.32,-52.61 169.63,-59.57"/>
</a>
</g>
</g>
<!-- Node5 -->
<g id="Node000005" class="node">
<title>Node5</title>
<g id="a_Node000005"><a xlink:href="classSceneObject.html#a71b5ba2106108265edb221540f4ec1ae" target="_top" xlink:title=" ">
<polygon fill="white" stroke="#666666" points="144,-19 0,-19 0,0 144,0 144,-19"/>
<text text-anchor="middle" x="72" y="-7" font-family="Helvetica,sans-Serif" font-size="10.00">SceneObject::SceneObject</text>
</a>
</g>
</g>
<!-- Node1&#45;&gt;Node5 -->
<g id="edge4_Node000001_Node000005" class="edge">
<title>Node1&#45;&gt;Node5</title>
<g id="a_edge4_Node000001_Node000005"><a xlink:title=" ">
<path fill="none" stroke="#63b8ff" d="M217.16,-51.69C195.77,-44.58 168.49,-35.74 144,-28.5 133.11,-25.28 121.21,-22 110.32,-19.1"/>
<polygon fill="#63b8ff" stroke="#63b8ff" points="216.25,-55.07 226.84,-54.92 218.46,-48.43 216.25,-55.07"/>
</a>
</g>
</g>
</g>
</svg>
</svg>

<style type='text/css'>
<![CDATA[
[data-mouse-over-selected='false'] { opacity: 0.7; }
[data-mouse-over-selected='true']  { opacity: 1.0; }
]]>
</style>
<script type="application/ecmascript"><![CDATA[
document.addEventListener('DOMContentLoaded', (event) => {
  highlightEdges();
  highlightAdjacentNodes();
});
]]></script>
</svg>
