<?xml version="1.0" encoding="UTF-8" standalone="no"?>
<!DOCTYPE svg PUBLIC "-//W3C//DTD SVG 1.1//EN"
 "http://www.w3.org/Graphics/SVG/1.1/DTD/svg11.dtd">
<!-- Generated by graphviz version 2.43.0 (0)
 -->
<!-- Title: OpenGLWindow::paintGL Pages: 1 -->
<svg width="1442pt" height="720pt"
 viewBox="0.00 0.00 1442.00 720.00" xmlns="http://www.w3.org/2000/svg" xmlns:xlink="http://www.w3.org/1999/xlink">
<g id="graph0" class="graph" transform="scale(1 1) rotate(0) translate(4 716)">
<title>OpenGLWindow::paintGL</title>
<!-- Node1 -->
<g id="Node000001" class="node">
<title>Node1</title>
<g id="a_Node000001"><a xlink:title=" ">
<polygon fill="#999999" stroke="#666666" points="136,-208 0,-208 0,-189 136,-189 136,-208"/>
<text text-anchor="middle" x="68" y="-196" font-family="Helvetica,sans-Serif" font-size="10.00">OpenGLWindow::paintGL</text>
</a>
</g>
</g>
<!-- Node2 -->
<g id="Node000002" class="node">
<title>Node2</title>
<g id="a_Node000002"><a xlink:href="classScene.html#af5512c90d05801f27028975d6a898e6b" target="_top" xlink:title=" ">
<polygon fill="white" stroke="#666666" points="299,-441 223,-441 223,-422 299,-422 299,-441"/>
<text text-anchor="middle" x="261" y="-429" font-family="Helvetica,sans-Serif" font-size="10.00">Scene::draw</text>
</a>
</g>
</g>
<!-- Node1&#45;&gt;Node2 -->
<g id="edge1_Node000001_Node000002" class="edge">
<title>Node1&#45;&gt;Node2</title>
<g id="a_edge1_Node000001_Node000002"><a xlink:title=" ">
<path fill="none" stroke="#63b8ff" d="M76.96,-208.22C106.15,-243.82 207.51,-367.47 245.49,-413.8"/>
<polygon fill="#63b8ff" stroke="#63b8ff" points="242.96,-416.23 252,-421.75 248.37,-411.79 242.96,-416.23"/>
</a>
</g>
</g>
<!-- Node10 -->
<g id="Node000010" class="node">
<title>Node10</title>
<g id="a_Node000010"><a xlink:href="classSceneManager.html#a59f13c06bf3f19d5e543502a0ddd0467" target="_top" xlink:title=" ">
<polygon fill="white" stroke="#666666" points="350,-208 172,-208 172,-189 350,-189 350,-208"/>
<text text-anchor="middle" x="261" y="-196" font-family="Helvetica,sans-Serif" font-size="10.00">SceneManager::processHeldKeys</text>
</a>
</g>
</g>
<!-- Node1&#45;&gt;Node10 -->
<g id="edge9_Node000001_Node000010" class="edge">
<title>Node1&#45;&gt;Node10</title>
<g id="a_edge9_Node000001_Node000010"><a xlink:title=" ">
<path fill="none" stroke="#63b8ff" d="M136.07,-198.5C144.41,-198.5 153.08,-198.5 161.77,-198.5"/>
<polygon fill="#63b8ff" stroke="#63b8ff" points="161.97,-202 171.97,-198.5 161.97,-195 161.97,-202"/>
</a>
</g>
</g>
<!-- Node53 -->
<g id="Node000053" class="node">
<title>Node53</title>
<g id="a_Node000053"><a xlink:href="classSceneManager.html#a9525363a1d77757f3be7e4f09c1500c9" target="_top" xlink:title=" ">
<polygon fill="white" stroke="#666666" points="340,-100.5 182,-100.5 182,-70.5 340,-70.5 340,-100.5"/>
<text text-anchor="start" x="190" y="-88.5" font-family="Helvetica,sans-Serif" font-size="10.00">SceneManager::updateHover</text>
<text text-anchor="middle" x="261" y="-77.5" font-family="Helvetica,sans-Serif" font-size="10.00">State</text>
</a>
</g>
</g>
<!-- Node1&#45;&gt;Node53 -->
<g id="edge48_Node000001_Node000053" class="edge">
<title>Node1&#45;&gt;Node53</title>
<g id="a_edge48_Node000001_Node000053"><a xlink:title=" ">
<path fill="none" stroke="#63b8ff" d="M85.28,-188.87C116.3,-170.52 184.43,-130.21 225.85,-105.7"/>
<polygon fill="#63b8ff" stroke="#63b8ff" points="227.69,-108.68 234.52,-100.58 224.13,-102.66 227.69,-108.68"/>
</a>
</g>
</g>
<!-- Node3 -->
<g id="Node000003" class="node">
<title>Node3</title>
<g id="a_Node000003"><a xlink:href="classCamera.html#a1a29e1564468a5b612eb141c9d44170d" target="_top" xlink:title=" ">
<polygon fill="white" stroke="#666666" points="536,-552 409,-552 409,-533 536,-533 536,-552"/>
<text text-anchor="middle" x="472.5" y="-540" font-family="Helvetica,sans-Serif" font-size="10.00">Camera::getProjMatrix</text>
</a>
</g>
</g>
<!-- Node2&#45;&gt;Node3 -->
<g id="edge2_Node000002_Node000003" class="edge">
<title>Node2&#45;&gt;Node3</title>
<g id="a_edge2_Node000002_Node000003"><a xlink:title=" ">
<path fill="none" stroke="#63b8ff" d="M271.63,-441.14C291.28,-460.22 338.2,-502.84 386,-524.5 390.43,-526.51 395.09,-528.3 399.86,-529.89"/>
<polygon fill="#63b8ff" stroke="#63b8ff" points="399.16,-533.33 409.74,-532.88 401.19,-526.63 399.16,-533.33"/>
</a>
</g>
</g>
<!-- Node4 -->
<g id="Node000004" class="node">
<title>Node4</title>
<g id="a_Node000004"><a xlink:href="classCamera.html#a2f90e661a78172675ca06ea69667b531" target="_top" xlink:title=" ">
<polygon fill="white" stroke="#666666" points="538.5,-515 406.5,-515 406.5,-496 538.5,-496 538.5,-515"/>
<text text-anchor="middle" x="472.5" y="-503" font-family="Helvetica,sans-Serif" font-size="10.00">Camera::getViewMatrix</text>
</a>
</g>
</g>
<!-- Node2&#45;&gt;Node4 -->
<g id="edge3_Node000002_Node000004" class="edge">
<title>Node2&#45;&gt;Node4</title>
<g id="a_edge3_Node000002_Node000004"><a xlink:title=" ">
<path fill="none" stroke="#63b8ff" d="M279.99,-441.13C303.69,-453.45 346.93,-474.74 386,-487.5 392.84,-489.74 400.08,-491.76 407.34,-493.58"/>
<polygon fill="#63b8ff" stroke="#63b8ff" points="406.67,-497.02 417.21,-495.92 408.29,-490.21 406.67,-497.02"/>
</a>
</g>
</g>
<!-- Node5 -->
<g id="Node000005" class="node">
<title>Node5</title>
<g id="a_Node000005"><a xlink:href="classSceneObject.html#ac01ac7731712baaeb3173a2a7e3f151a" target="_top" xlink:title=" ">
<polygon fill="white" stroke="#666666" points="559,-478 386,-478 386,-459 559,-459 559,-478"/>
<text text-anchor="middle" x="472.5" y="-466" font-family="Helvetica,sans-Serif" font-size="10.00">SceneObject::setPhysicsPosMap</text>
</a>
</g>
</g>
<!-- Node2&#45;&gt;Node5 -->
<g id="edge4_Node000002_Node000005" class="edge">
<title>Node2&#45;&gt;Node5</title>
<g id="a_edge4_Node000002_Node000005"><a xlink:title=" ">
<path fill="none" stroke="#63b8ff" d="M299.45,-438.12C329.34,-443.4 371.9,-450.91 407.21,-457.15"/>
<polygon fill="#63b8ff" stroke="#63b8ff" points="406.98,-460.66 417.44,-458.96 408.2,-453.77 406.98,-460.66"/>
</a>
</g>
</g>
<!-- Node6 -->
<g id="Node000006" class="node">
<title>Node6</title>
<g id="a_Node000006"><a xlink:href="classCamera.html#a42cda7239981a5618660d04bd5893556" target="_top" xlink:title=" ">
<polygon fill="white" stroke="#666666" points="520,-441 425,-441 425,-422 520,-422 520,-441"/>
<text text-anchor="middle" x="472.5" y="-429" font-family="Helvetica,sans-Serif" font-size="10.00">Camera::update</text>
</a>
</g>
</g>
<!-- Node2&#45;&gt;Node6 -->
<g id="edge5_Node000002_Node000006" class="edge">
<title>Node2&#45;&gt;Node6</title>
<g id="a_edge5_Node000002_Node000006"><a xlink:title=" ">
<path fill="none" stroke="#63b8ff" d="M299.45,-431.5C331.51,-431.5 378.16,-431.5 414.79,-431.5"/>
<polygon fill="#63b8ff" stroke="#63b8ff" points="414.84,-435 424.84,-431.5 414.84,-428 414.84,-435"/>
</a>
</g>
</g>
<!-- Node8 -->
<g id="Node000008" class="node">
<title>Node8</title>
<g id="a_Node000008"><a xlink:href="classUniformBuffer.html#ab8c80840cb69d51f92ef35365deb47ef" target="_top" xlink:title=" ">
<polygon fill="white" stroke="#666666" points="547,-404 398,-404 398,-385 547,-385 547,-404"/>
<text text-anchor="middle" x="472.5" y="-392" font-family="Helvetica,sans-Serif" font-size="10.00">UniformBuffer::updateData</text>
</a>
</g>
</g>
<!-- Node2&#45;&gt;Node8 -->
<g id="edge7_Node000002_Node000008" class="edge">
<title>Node2&#45;&gt;Node8</title>
<g id="a_edge7_Node000002_Node000008"><a xlink:title=" ">
<path fill="none" stroke="#63b8ff" d="M299.45,-424.89C329.34,-419.61 371.9,-412.09 407.21,-405.86"/>
<polygon fill="#63b8ff" stroke="#63b8ff" points="408.2,-409.24 417.44,-404.05 406.98,-402.34 408.2,-409.24"/>
</a>
</g>
</g>
<!-- Node9 -->
<g id="Node000009" class="node">
<title>Node9</title>
<g id="a_Node000009"><a xlink:href="classShader.html#a3c7896754f0e1fca8bde860cfef63832" target="_top" xlink:title=" ">
<polygon fill="white" stroke="#666666" points="509.5,-367 435.5,-367 435.5,-348 509.5,-348 509.5,-367"/>
<text text-anchor="middle" x="472.5" y="-355" font-family="Helvetica,sans-Serif" font-size="10.00">Shader::use</text>
</a>
</g>
</g>
<!-- Node2&#45;&gt;Node9 -->
<g id="edge8_Node000002_Node000009" class="edge">
<title>Node2&#45;&gt;Node9</title>
<g id="a_edge8_Node000002_Node000009"><a xlink:title=" ">
<path fill="none" stroke="#63b8ff" d="M280.45,-421.93C304.28,-409.88 347.3,-389.24 386,-376.5 398.54,-372.38 412.4,-368.86 425.25,-366.02"/>
<polygon fill="#63b8ff" stroke="#63b8ff" points="426.24,-369.39 435.29,-363.89 424.79,-362.54 426.24,-369.39"/>
</a>
</g>
</g>
<!-- Node7 -->
<g id="Node000007" class="node">
<title>Node7</title>
<g id="a_Node000007"><a xlink:href="classSceneObject.html#a3d1aa613dd4f4ee6947754a355a48cc9" target="_top" xlink:title=" ">
<polygon fill="white" stroke="#666666" points="746,-471 608,-471 608,-452 746,-452 746,-471"/>
<text text-anchor="middle" x="677" y="-459" font-family="Helvetica,sans-Serif" font-size="10.00">SceneObject::getPosition</text>
</a>
</g>
</g>
<!-- Node6&#45;&gt;Node7 -->
<g id="edge6_Node000006_Node000007" class="edge">
<title>Node6&#45;&gt;Node7</title>
<g id="a_edge6_Node000006_Node000007"><a xlink:title=" ">
<path fill="none" stroke="#63b8ff" d="M520.21,-438.42C544.24,-441.98 574.11,-446.41 601.25,-450.43"/>
<polygon fill="#63b8ff" stroke="#63b8ff" points="601.09,-453.94 611.5,-451.95 602.12,-447.02 601.09,-453.94"/>
</a>
</g>
</g>
<!-- Node11 -->
<g id="Node000011" class="node">
<title>Node11</title>
<g id="a_Node000011"><a xlink:href="classScene.html#a8ec1e638529f69f716e791ba3ac4d2f7" target="_top" xlink:title=" ">
<polygon fill="white" stroke="#666666" points="525.5,-282 419.5,-282 419.5,-263 525.5,-263 525.5,-282"/>
<text text-anchor="middle" x="472.5" y="-270" font-family="Helvetica,sans-Serif" font-size="10.00">Scene::getCamera</text>
</a>
</g>
</g>
<!-- Node10&#45;&gt;Node11 -->
<g id="edge10_Node000010_Node000011" class="edge">
<title>Node10&#45;&gt;Node11</title>
<g id="a_edge10_Node000010_Node000011"><a xlink:title=" ">
<path fill="none" stroke="#63b8ff" d="M279.99,-208.13C303.69,-220.45 346.93,-241.74 386,-254.5 393.59,-256.98 401.66,-259.2 409.71,-261.16"/>
<polygon fill="#63b8ff" stroke="#63b8ff" points="408.95,-264.58 419.48,-263.43 410.53,-257.76 408.95,-264.58"/>
</a>
</g>
</g>
<!-- Node12 -->
<g id="Node000012" class="node">
<title>Node12</title>
<g id="a_Node000012"><a xlink:href="classSceneManager.html#a7b7b0a022dcce523178e8414fb8e4463" target="_top" xlink:title=" ">
<polygon fill="white" stroke="#666666" points="545,-245 400,-245 400,-226 545,-226 545,-245"/>
<text text-anchor="middle" x="472.5" y="-233" font-family="Helvetica,sans-Serif" font-size="10.00">SceneManager::loadScene</text>
</a>
</g>
</g>
<!-- Node10&#45;&gt;Node12 -->
<g id="edge11_Node000010_Node000012" class="edge">
<title>Node10&#45;&gt;Node12</title>
<g id="a_edge11_Node000010_Node000012"><a xlink:title=" ">
<path fill="none" stroke="#63b8ff" d="M315.95,-208.03C343.82,-212.95 378.03,-218.99 407.25,-224.16"/>
<polygon fill="#63b8ff" stroke="#63b8ff" points="406.91,-227.65 417.37,-225.94 408.13,-220.76 406.91,-227.65"/>
</a>
</g>
</g>
<!-- Node42 -->
<g id="Node000042" class="node">
<title>Node42</title>
<g id="a_Node000042"><a xlink:href="classCamera.html#a3374b86bbff4f043d1f0051e074b0391" target="_top" xlink:title=" ">
<polygon fill="white" stroke="#666666" points="544.5,-208 400.5,-208 400.5,-189 544.5,-189 544.5,-208"/>
<text text-anchor="middle" x="472.5" y="-196" font-family="Helvetica,sans-Serif" font-size="10.00">Camera::processKeyboard</text>
</a>
</g>
</g>
<!-- Node10&#45;&gt;Node42 -->
<g id="edge37_Node000010_Node000042" class="edge">
<title>Node10&#45;&gt;Node42</title>
<g id="a_edge37_Node000010_Node000042"><a xlink:title=" ">
<path fill="none" stroke="#63b8ff" d="M350.24,-198.5C363.39,-198.5 376.89,-198.5 389.89,-198.5"/>
<polygon fill="#63b8ff" stroke="#63b8ff" points="390.2,-202 400.2,-198.5 390.2,-195 390.2,-202"/>
</a>
</g>
</g>
<!-- Node43 -->
<g id="Node000043" class="node">
<title>Node43</title>
<g id="a_Node000043"><a xlink:href="classSceneManager.html#a1a46a8c9e99b6b27404a2f870f38749c" target="_top" xlink:title=" ">
<polygon fill="white" stroke="#666666" points="546,-171 399,-171 399,-152 546,-152 546,-171"/>
<text text-anchor="middle" x="472.5" y="-159" font-family="Helvetica,sans-Serif" font-size="10.00">SceneManager::saveScene</text>
</a>
</g>
</g>
<!-- Node10&#45;&gt;Node43 -->
<g id="edge38_Node000010_Node000043" class="edge">
<title>Node10&#45;&gt;Node43</title>
<g id="a_edge38_Node000010_Node000043"><a xlink:title=" ">
<path fill="none" stroke="#63b8ff" d="M315.95,-188.97C343.82,-184.05 378.03,-178.01 407.25,-172.85"/>
<polygon fill="#63b8ff" stroke="#63b8ff" points="408.13,-176.25 417.37,-171.06 406.91,-169.36 408.13,-176.25"/>
</a>
</g>
</g>
<!-- Node52 -->
<g id="Node000052" class="node">
<title>Node52</title>
<g id="a_Node000052"><a xlink:href="classSceneManager.html#a490d6eddd6ef23ffd8f283582a2d7d88" target="_top" xlink:title=" ">
<polygon fill="white" stroke="#666666" points="755,-132 599,-132 599,-113 755,-113 755,-132"/>
<text text-anchor="middle" x="677" y="-120" font-family="Helvetica,sans-Serif" font-size="10.00">SceneManager::setGizmoFor</text>
</a>
</g>
</g>
<!-- Node10&#45;&gt;Node52 -->
<g id="edge46_Node000010_Node000052" class="edge">
<title>Node10&#45;&gt;Node52</title>
<g id="a_edge46_Node000010_Node000052"><a xlink:title=" ">
<path fill="none" stroke="#63b8ff" d="M278.58,-188.91C301.76,-176.03 345.56,-153.61 386,-143.5 452.64,-126.85 530.38,-121.97 588.58,-121.05"/>
<polygon fill="#63b8ff" stroke="#63b8ff" points="588.89,-124.54 598.85,-120.92 588.81,-117.54 588.89,-124.54"/>
</a>
</g>
</g>
<!-- Node13 -->
<g id="Node000013" class="node">
<title>Node13</title>
<g id="a_Node000013"><a xlink:href="classSceneSerializer.html#a490f2bd87e7c9459ee47be974653b433" target="_top" xlink:title=" ">
<polygon fill="white" stroke="#666666" points="759,-434 595,-434 595,-415 759,-415 759,-434"/>
<text text-anchor="middle" x="677" y="-422" font-family="Helvetica,sans-Serif" font-size="10.00">SceneSerializer::loadFromJson</text>
</a>
</g>
</g>
<!-- Node12&#45;&gt;Node13 -->
<g id="edge12_Node000012_Node000013" class="edge">
<title>Node12&#45;&gt;Node13</title>
<g id="a_edge12_Node000012_Node000013"><a xlink:title=" ">
<path fill="none" stroke="#63b8ff" d="M540.44,-245.15C547.01,-247.61 553.33,-250.68 559,-254.5 616.07,-292.99 653.38,-369.46 668.44,-405.22"/>
<polygon fill="#63b8ff" stroke="#63b8ff" points="665.38,-406.99 672.4,-414.93 671.86,-404.35 665.38,-406.99"/>
</a>
</g>
</g>
<!-- Node14 -->
<g id="Node000014" class="node">
<title>Node14</title>
<g id="a_Node000014"><a xlink:href="structRigidBodyOptions.html#a6cf379ca7435acbcab6561601a2ab331" target="_top" xlink:title=" ">
<polygon fill="white" stroke="#666666" points="960.5,-640 832.5,-640 832.5,-621 960.5,-621 960.5,-640"/>
<text text-anchor="middle" x="896.5" y="-628" font-family="Helvetica,sans-Serif" font-size="10.00">RigidBodyOptions::Box</text>
</a>
</g>
</g>
<!-- Node13&#45;&gt;Node14 -->
<g id="edge13_Node000013_Node000014" class="edge">
<title>Node13&#45;&gt;Node14</title>
<g id="a_edge13_Node000013_Node000014"><a xlink:title=" ">
<path fill="none" stroke="#63b8ff" d="M746.2,-434.05C750.91,-436.57 755.26,-439.69 759,-443.5 812.74,-498.36 739.82,-559.09 795,-612.5 802.67,-619.93 812.3,-624.86 822.54,-628.05"/>
<polygon fill="#63b8ff" stroke="#63b8ff" points="821.94,-631.51 832.5,-630.61 823.68,-624.73 821.94,-631.51"/>
</a>
</g>
</g>
<!-- Node15 -->
<g id="Node000015" class="node">
<title>Node15</title>
<g id="a_Node000015"><a xlink:href="classSceneManager.html#a1daee617aa556b8af8a7202d3f8f28c8" target="_top" xlink:title=" ">
<polygon fill="white" stroke="#666666" points="975,-603 818,-603 818,-584 975,-584 975,-603"/>
<text text-anchor="middle" x="896.5" y="-591" font-family="Helvetica,sans-Serif" font-size="10.00">SceneManager::createObject</text>
</a>
</g>
</g>
<!-- Node13&#45;&gt;Node15 -->
<g id="edge14_Node000013_Node000015" class="edge">
<title>Node13&#45;&gt;Node15</title>
<g id="a_edge14_Node000013_Node000015"><a xlink:title=" ">
<path fill="none" stroke="#63b8ff" d="M745.53,-434.13C750.45,-436.63 755.03,-439.72 759,-443.5 801.16,-483.69 752.92,-529.23 795,-569.5 799.09,-573.42 803.7,-576.73 808.64,-579.53"/>
<polygon fill="#63b8ff" stroke="#63b8ff" points="807.32,-582.79 817.84,-584.04 810.4,-576.5 807.32,-582.79"/>
</a>
</g>
</g>
<!-- Node21 -->
<g id="Node000021" class="node">
<title>Node21</title>
<g id="a_Node000021"><a xlink:href="classSceneManager.html#aad894e90cf7ad353aab707f966c9711d" target="_top" xlink:title=" ">
<polygon fill="white" stroke="#666666" points="1211.5,-564 1041.5,-564 1041.5,-545 1211.5,-545 1211.5,-564"/>
<text text-anchor="middle" x="1126.5" y="-552" font-family="Helvetica,sans-Serif" font-size="10.00">SceneManager::setObjectName</text>
</a>
</g>
</g>
<!-- Node13&#45;&gt;Node21 -->
<g id="edge30_Node000013_Node000021" class="edge">
<title>Node13&#45;&gt;Node21</title>
<g id="a_edge30_Node000013_Node000021"><a xlink:title=" ">
<path fill="none" stroke="#63b8ff" d="M744.38,-434.16C749.67,-436.64 754.64,-439.71 759,-443.5 792.44,-472.59 759.13,-510.46 795,-536.5 831.42,-562.94 947,-563.77 1031.23,-560.42"/>
<polygon fill="#63b8ff" stroke="#63b8ff" points="1031.5,-563.91 1041.34,-560 1031.21,-556.92 1031.5,-563.91"/>
</a>
</g>
</g>
<!-- Node26 -->
<g id="Node000026" class="node">
<title>Node26</title>
<g id="a_Node000026"><a xlink:href="classSceneManager.html#a53736fa499987ffff612d3ee7c85442c" target="_top" xlink:title=" ">
<polygon fill="white" stroke="#666666" points="984,-527 809,-527 809,-508 984,-508 984,-527"/>
<text text-anchor="middle" x="896.5" y="-515" font-family="Helvetica,sans-Serif" font-size="10.00">SceneManager::deleteAllObjects</text>
</a>
</g>
</g>
<!-- Node13&#45;&gt;Node26 -->
<g id="edge24_Node000013_Node000026" class="edge">
<title>Node13&#45;&gt;Node26</title>
<g id="a_edge24_Node000013_Node000026"><a xlink:title=" ">
<path fill="none" stroke="#63b8ff" d="M741.14,-434.14C747.48,-436.6 753.57,-439.67 759,-443.5 783.17,-460.57 770.39,-483.08 795,-499.5 797.27,-501.02 799.63,-502.42 802.07,-503.71"/>
<polygon fill="#63b8ff" stroke="#63b8ff" points="800.61,-506.89 811.16,-507.92 803.55,-500.54 800.61,-506.89"/>
</a>
</g>
</g>
<!-- Node30 -->
<g id="Node000030" class="node">
<title>Node30</title>
<g id="a_Node000030"><a xlink:href="classResourceManager.html#a3899655c6a1e40089930df4fbc9f1be9" target="_top" xlink:title=" ">
<polygon fill="white" stroke="#666666" points="976.5,-490 816.5,-490 816.5,-471 976.5,-471 976.5,-490"/>
<text text-anchor="middle" x="896.5" y="-478" font-family="Helvetica,sans-Serif" font-size="10.00">ResourceManager::getShader</text>
</a>
</g>
</g>
<!-- Node13&#45;&gt;Node30 -->
<g id="edge26_Node000013_Node000030" class="edge">
<title>Node13&#45;&gt;Node30</title>
<g id="a_edge26_Node000013_Node000030"><a xlink:title=" ">
<path fill="none" stroke="#63b8ff" d="M727.86,-434.08C738.29,-436.68 749.12,-439.81 759,-443.5 775.94,-449.84 777.89,-456.62 795,-462.5 801.8,-464.84 808.97,-466.89 816.21,-468.69"/>
<polygon fill="#63b8ff" stroke="#63b8ff" points="815.59,-472.13 826.12,-470.98 817.17,-465.31 815.59,-472.13"/>
</a>
</g>
</g>
<!-- Node31 -->
<g id="Node000031" class="node">
<title>Node31</title>
<g id="a_Node000031"><a xlink:href="namespaceJsonUtils.html#ab8da6e319ea5969afbe6ddd6620add30" target="_top" xlink:title=" ">
<polygon fill="white" stroke="#666666" points="956,-453 837,-453 837,-434 956,-434 956,-453"/>
<text text-anchor="middle" x="896.5" y="-441" font-family="Helvetica,sans-Serif" font-size="10.00">JsonUtils::jsonToVec3</text>
</a>
</g>
</g>
<!-- Node13&#45;&gt;Node31 -->
<g id="edge27_Node000013_Node000031" class="edge">
<title>Node13&#45;&gt;Node31</title>
<g id="a_edge27_Node000013_Node000031"><a xlink:title=" ">
<path fill="none" stroke="#63b8ff" d="M759.3,-431.6C781.49,-433.54 805.3,-435.62 826.72,-437.49"/>
<polygon fill="#63b8ff" stroke="#63b8ff" points="826.43,-440.98 836.7,-438.37 827.04,-434.01 826.43,-440.98"/>
</a>
</g>
</g>
<!-- Node32 -->
<g id="Node000032" class="node">
<title>Node32</title>
<g id="a_Node000032"><a xlink:href="classSceneManager.html#a8dafcb538b1cfbf727b82644ad5815ad" target="_top" xlink:title=" ">
<polygon fill="white" stroke="#666666" points="997.5,-416 795.5,-416 795.5,-397 997.5,-397 997.5,-416"/>
<text text-anchor="middle" x="896.5" y="-404" font-family="Helvetica,sans-Serif" font-size="10.00">SceneManager::setGlobalAcceleration</text>
</a>
</g>
</g>
<!-- Node13&#45;&gt;Node32 -->
<g id="edge28_Node000013_Node000032" class="edge">
<title>Node13&#45;&gt;Node32</title>
<g id="a_edge28_Node000013_Node000032"><a xlink:title=" ">
<path fill="none" stroke="#63b8ff" d="M759.3,-417.77C767.71,-417.08 776.36,-416.36 785.02,-415.65"/>
<polygon fill="#63b8ff" stroke="#63b8ff" points="785.5,-419.12 795.18,-414.8 784.93,-412.14 785.5,-419.12"/>
</a>
</g>
</g>
<!-- Node33 -->
<g id="Node000033" class="node">
<title>Node33</title>
<g id="a_Node000033"><a xlink:href="classSceneManager.html#a357678fb063589b2ed1dc9a5f0b55ae2" target="_top" xlink:title=" ">
<polygon fill="white" stroke="#666666" points="983,-378.5 810,-378.5 810,-348.5 983,-348.5 983,-378.5"/>
<text text-anchor="start" x="818" y="-366.5" font-family="Helvetica,sans-Serif" font-size="10.00">SceneManager::setGravitational</text>
<text text-anchor="middle" x="896.5" y="-355.5" font-family="Helvetica,sans-Serif" font-size="10.00">Constant</text>
</a>
</g>
</g>
<!-- Node13&#45;&gt;Node33 -->
<g id="edge29_Node000013_Node000033" class="edge">
<title>Node13&#45;&gt;Node33</title>
<g id="a_edge29_Node000013_Node000033"><a xlink:title=" ">
<path fill="none" stroke="#63b8ff" d="M707.68,-414.88C731.25,-407.35 765.11,-396.81 795,-388.5 804.06,-385.98 813.62,-383.45 823.09,-381.01"/>
<polygon fill="#63b8ff" stroke="#63b8ff" points="824.08,-384.37 832.9,-378.51 822.35,-377.59 824.08,-384.37"/>
</a>
</g>
</g>
<!-- Node34 -->
<g id="Node000034" class="node">
<title>Node34</title>
<g id="a_Node000034"><a xlink:href="classSceneManager.html#af40d0ff3e76f89bbf5504f1694814179" target="_top" xlink:title=" ">
<polygon fill="#fff0f0" stroke="red" points="974,-330 819,-330 819,-311 974,-311 974,-330"/>
<text text-anchor="middle" x="896.5" y="-318" font-family="Helvetica,sans-Serif" font-size="10.00">SceneManager::setSelectFor</text>
</a>
</g>
</g>
<!-- Node13&#45;&gt;Node34 -->
<g id="edge31_Node000013_Node000034" class="edge">
<title>Node13&#45;&gt;Node34</title>
<g id="a_edge31_Node000013_Node000034"><a xlink:title=" ">
<path fill="none" stroke="#63b8ff" d="M687.98,-414.8C707.06,-396.87 750.74,-358.61 795,-339.5 801.08,-336.88 807.52,-334.61 814.09,-332.66"/>
<polygon fill="#63b8ff" stroke="#63b8ff" points="815.05,-336.03 823.77,-330.02 813.2,-329.28 815.05,-336.03"/>
</a>
</g>
</g>
<!-- Node40 -->
<g id="Node000040" class="node">
<title>Node40</title>
<g id="a_Node000040"><a xlink:href="classSceneManager.html#a64f4064d9201d062a24f750763c1f703" target="_top" xlink:title=" ">
<polygon fill="#fff0f0" stroke="red" points="975.5,-293 817.5,-293 817.5,-274 975.5,-274 975.5,-293"/>
<text text-anchor="middle" x="896.5" y="-281" font-family="Helvetica,sans-Serif" font-size="10.00">SceneManager::setSimSpeed</text>
</a>
</g>
</g>
<!-- Node13&#45;&gt;Node40 -->
<g id="edge36_Node000013_Node000040" class="edge">
<title>Node13&#45;&gt;Node40</title>
<g id="a_edge36_Node000013_Node000040"><a xlink:title=" ">
<path fill="none" stroke="#63b8ff" d="M684.01,-414.98C699.32,-391.56 742.36,-331.02 795,-302.5 799.26,-300.19 803.76,-298.16 808.4,-296.37"/>
<polygon fill="#63b8ff" stroke="#63b8ff" points="809.76,-299.6 818.07,-293.03 807.47,-292.98 809.76,-299.6"/>
</a>
</g>
</g>
<!-- Node16 -->
<g id="Node000016" class="node">
<title>Node16</title>
<g id="a_Node000016"><a xlink:href="classSceneManager.html#ad0d1661e5869720d7a07b1912d75318d" target="_top" xlink:title=" ">
<polygon fill="#fff0f0" stroke="red" points="1206,-712 1047,-712 1047,-693 1206,-693 1206,-712"/>
<text text-anchor="middle" x="1126.5" y="-700" font-family="Helvetica,sans-Serif" font-size="10.00">SceneManager::addDrawable</text>
</a>
</g>
</g>
<!-- Node15&#45;&gt;Node16 -->
<g id="edge15_Node000015_Node000016" class="edge">
<title>Node15&#45;&gt;Node16</title>
<g id="a_edge15_Node000015_Node000016"><a xlink:title=" ">
<path fill="none" stroke="#63b8ff" d="M975,-600.48C983.25,-603.4 991.13,-607.31 998,-612.5 1026.55,-634.07 1005.53,-662.83 1034,-684.5 1035.64,-685.75 1037.35,-686.92 1039.11,-688.02"/>
<polygon fill="#63b8ff" stroke="#63b8ff" points="1037.82,-691.3 1048.29,-692.89 1041.1,-685.11 1037.82,-691.3"/>
</a>
</g>
</g>
<!-- Node18 -->
<g id="Node000018" class="node">
<title>Node18</title>
<g id="a_Node000018"><a xlink:href="classSceneManager.html#a31d525542db0b239ba61dd36a3d92d43" target="_top" xlink:title=" ">
<polygon fill="white" stroke="#666666" points="1203,-675 1050,-675 1050,-656 1203,-656 1203,-675"/>
<text text-anchor="middle" x="1126.5" y="-663" font-family="Helvetica,sans-Serif" font-size="10.00">SceneManager::addPickable</text>
</a>
</g>
</g>
<!-- Node15&#45;&gt;Node18 -->
<g id="edge16_Node000015_Node000018" class="edge">
<title>Node15&#45;&gt;Node18</title>
<g id="a_edge16_Node000015_Node000018"><a xlink:title=" ">
<path fill="none" stroke="#63b8ff" d="M974.01,-603.05C982.35,-605.52 990.52,-608.61 998,-612.5 1017.8,-622.79 1014.24,-637.14 1034,-647.5 1037.53,-649.35 1041.22,-651.01 1045.02,-652.5"/>
<polygon fill="#63b8ff" stroke="#63b8ff" points="1044.04,-655.87 1054.64,-655.87 1046.36,-649.26 1044.04,-655.87"/>
</a>
</g>
</g>
<!-- Node19 -->
<g id="Node000019" class="node">
<title>Node19</title>
<g id="a_Node000019"><a xlink:href="classSceneManager.html#ab6a7ecbff438f2dbee8a0f31795456f9" target="_top" xlink:title=" ">
<polygon fill="white" stroke="#666666" points="1219,-638 1034,-638 1034,-619 1219,-619 1219,-638"/>
<text text-anchor="middle" x="1126.5" y="-626" font-family="Helvetica,sans-Serif" font-size="10.00">SceneManager::makeUniqueName</text>
</a>
</g>
</g>
<!-- Node15&#45;&gt;Node19 -->
<g id="edge17_Node000015_Node000019" class="edge">
<title>Node15&#45;&gt;Node19</title>
<g id="a_edge17_Node000015_Node000019"><a xlink:title=" ">
<path fill="none" stroke="#63b8ff" d="M959.5,-603.02C988.53,-607.48 1023.28,-612.81 1053.46,-617.44"/>
<polygon fill="#63b8ff" stroke="#63b8ff" points="1053.1,-620.93 1063.51,-618.99 1054.16,-614.01 1053.1,-620.93"/>
</a>
</g>
</g>
<!-- Node20 -->
<g id="Node000020" class="node">
<title>Node20</title>
<g id="a_Node000020"><a xlink:href="classSceneManager.html#a76592c383a85fda664a79fa155ead19e" target="_top" xlink:title=" ">
<polygon fill="white" stroke="#666666" points="1204,-601 1049,-601 1049,-582 1204,-582 1204,-601"/>
<text text-anchor="middle" x="1126.5" y="-589" font-family="Helvetica,sans-Serif" font-size="10.00">SceneManager::objectAdded</text>
</a>
</g>
</g>
<!-- Node15&#45;&gt;Node20 -->
<g id="edge18_Node000015_Node000020" class="edge">
<title>Node15&#45;&gt;Node20</title>
<g id="a_edge18_Node000015_Node000020"><a xlink:title=" ">
<path fill="none" stroke="#63b8ff" d="M975.01,-592.82C995.53,-592.64 1017.82,-592.45 1038.8,-592.26"/>
<polygon fill="#63b8ff" stroke="#63b8ff" points="1039.01,-595.76 1048.98,-592.17 1038.95,-588.76 1039.01,-595.76"/>
</a>
</g>
</g>
<!-- Node15&#45;&gt;Node21 -->
<g id="edge19_Node000015_Node000021" class="edge">
<title>Node15&#45;&gt;Node21</title>
<g id="a_edge19_Node000015_Node000021"><a xlink:title=" ">
<path fill="none" stroke="#63b8ff" d="M953.28,-583.96C985.41,-578.46 1025.99,-571.52 1059.69,-565.76"/>
<polygon fill="#63b8ff" stroke="#63b8ff" points="1060.64,-569.15 1069.91,-564.01 1059.46,-562.25 1060.64,-569.15"/>
</a>
</g>
</g>
<!-- Node22 -->
<g id="Node000022" class="node">
<title>Node22</title>
<g id="a_Node000022"><a xlink:href="classSceneObject.html#abebc043e3253d66da477f862a950775d" target="_top" xlink:title=" ">
<polygon fill="white" stroke="#666666" points="1408.5,-619 1280.5,-619 1280.5,-600 1408.5,-600 1408.5,-619"/>
<text text-anchor="middle" x="1344.5" y="-607" font-family="Helvetica,sans-Serif" font-size="10.00">SceneObject::getName</text>
</a>
</g>
</g>
<!-- Node21&#45;&gt;Node22 -->
<g id="edge20_Node000021_Node000022" class="edge">
<title>Node21&#45;&gt;Node22</title>
<g id="a_edge20_Node000021_Node000022"><a xlink:title=" ">
<path fill="none" stroke="#63b8ff" d="M1184.74,-564.01C1196.23,-566.58 1208.12,-569.72 1219,-573.5 1235.9,-579.37 1238.09,-585.67 1255,-591.5 1261.47,-593.74 1268.31,-595.73 1275.21,-597.5"/>
<polygon fill="#63b8ff" stroke="#63b8ff" points="1274.77,-601 1285.31,-599.94 1276.41,-594.19 1274.77,-601"/>
</a>
</g>
</g>
<!-- Node23 -->
<g id="Node000023" class="node">
<title>Node23</title>
<g id="a_Node000023"><a xlink:href="classSceneManager.html#a624cd344feba3357d2ec95bab7229a6f" target="_top" xlink:title=" ">
<polygon fill="white" stroke="#666666" points="1428,-582 1261,-582 1261,-563 1428,-563 1428,-582"/>
<text text-anchor="middle" x="1344.5" y="-570" font-family="Helvetica,sans-Serif" font-size="10.00">SceneManager::isNameUnique</text>
</a>
</g>
</g>
<!-- Node21&#45;&gt;Node23 -->
<g id="edge21_Node000021_Node000023" class="edge">
<title>Node21&#45;&gt;Node23</title>
<g id="a_edge21_Node000021_Node000023"><a xlink:title=" ">
<path fill="none" stroke="#63b8ff" d="M1211.63,-561.51C1224.34,-562.57 1237.52,-563.67 1250.41,-564.74"/>
<polygon fill="#63b8ff" stroke="#63b8ff" points="1250.41,-568.26 1260.66,-565.6 1250.99,-561.28 1250.41,-568.26"/>
</a>
</g>
</g>
<!-- Node24 -->
<g id="Node000024" class="node">
<title>Node24</title>
<g id="a_Node000024"><a xlink:href="classSceneManager.html#a76dba0a09f8b2a1dc376236f904a9c3a" target="_top" xlink:title=" ">
<polygon fill="white" stroke="#666666" points="1430,-545 1259,-545 1259,-526 1430,-526 1430,-545"/>
<text text-anchor="middle" x="1344.5" y="-533" font-family="Helvetica,sans-Serif" font-size="10.00">SceneManager::objectRenamed</text>
</a>
</g>
</g>
<!-- Node21&#45;&gt;Node24 -->
<g id="edge22_Node000021_Node000024" class="edge">
<title>Node21&#45;&gt;Node24</title>
<g id="a_edge22_Node000021_Node000024"><a xlink:title=" ">
<path fill="none" stroke="#63b8ff" d="M1211.63,-547.1C1223.75,-546.04 1236.3,-544.93 1248.61,-543.85"/>
<polygon fill="#63b8ff" stroke="#63b8ff" points="1249.23,-547.31 1258.89,-542.95 1248.62,-540.34 1249.23,-547.31"/>
</a>
</g>
</g>
<!-- Node25 -->
<g id="Node000025" class="node">
<title>Node25</title>
<g id="a_Node000025"><a xlink:href="classSceneObject.html#ad8ac9406b35bee3cd4fad75db013d9c4" target="_top" xlink:title=" ">
<polygon fill="white" stroke="#666666" points="1408.5,-508 1280.5,-508 1280.5,-489 1408.5,-489 1408.5,-508"/>
<text text-anchor="middle" x="1344.5" y="-496" font-family="Helvetica,sans-Serif" font-size="10.00">SceneObject::setName</text>
</a>
</g>
</g>
<!-- Node21&#45;&gt;Node25 -->
<g id="edge23_Node000021_Node000025" class="edge">
<title>Node21&#45;&gt;Node25</title>
<g id="a_edge23_Node000021_Node000025"><a xlink:title=" ">
<path fill="none" stroke="#63b8ff" d="M1189.2,-544.92C1199.29,-542.63 1209.54,-539.85 1219,-536.5 1236.06,-530.47 1238,-523.68 1255,-517.5 1262.27,-514.86 1270.02,-512.53 1277.78,-510.5"/>
<polygon fill="#63b8ff" stroke="#63b8ff" points="1278.74,-513.87 1287.61,-508.07 1277.06,-507.07 1278.74,-513.87"/>
</a>
</g>
</g>
<!-- Node27 -->
<g id="Node000027" class="node">
<title>Node27</title>
<g id="a_Node000027"><a xlink:href="classSceneManager.html#a4543114007c5bb40ddab62cd9f2ac613" target="_top" xlink:title=" ">
<polygon fill="#fff0f0" stroke="red" points="1205,-527 1048,-527 1048,-508 1205,-508 1205,-527"/>
<text text-anchor="middle" x="1126.5" y="-515" font-family="Helvetica,sans-Serif" font-size="10.00">SceneManager::deleteObject</text>
</a>
</g>
</g>
<!-- Node26&#45;&gt;Node27 -->
<g id="edge25_Node000026_Node000027" class="edge">
<title>Node26&#45;&gt;Node27</title>
<g id="a_edge25_Node000026_Node000027"><a xlink:title=" ">
<path fill="none" stroke="#63b8ff" d="M984.02,-517.5C1001.5,-517.5 1019.9,-517.5 1037.43,-517.5"/>
<polygon fill="#63b8ff" stroke="#63b8ff" points="1037.64,-521 1047.64,-517.5 1037.64,-514 1037.64,-521"/>
</a>
</g>
</g>
<!-- Node35 -->
<g id="Node000035" class="node">
<title>Node35</title>
<g id="a_Node000035"><a xlink:href="classSceneManager.html#a99992b526976863d1dab7dc88cc6ec2a" target="_top" xlink:title=" ">
<polygon fill="white" stroke="#666666" points="1207,-159.5 1046,-159.5 1046,-129.5 1207,-129.5 1207,-159.5"/>
<text text-anchor="start" x="1054" y="-147.5" font-family="Helvetica,sans-Serif" font-size="10.00">SceneManager::deleteCurrent</text>
<text text-anchor="middle" x="1126.5" y="-136.5" font-family="Helvetica,sans-Serif" font-size="10.00">Gizmo</text>
</a>
</g>
</g>
<!-- Node34&#45;&gt;Node35 -->
<g id="edge32_Node000034_Node000035" class="edge">
<title>Node34&#45;&gt;Node35</title>
<g id="a_edge32_Node000034_Node000035"><a xlink:title=" ">
<path fill="none" stroke="#63b8ff" d="M974.23,-312.75C982.57,-310.18 990.68,-306.84 998,-302.5 1052.89,-270 1093.9,-204.49 1113.21,-168.88"/>
<polygon fill="#63b8ff" stroke="#63b8ff" points="1116.5,-170.16 1118.08,-159.68 1110.31,-166.89 1116.5,-170.16"/>
</a>
</g>
</g>
<!-- Node38 -->
<g id="Node000038" class="node">
<title>Node38</title>
<g id="a_Node000038"><a xlink:href="classSceneObject.html#ad77f12eb793b32da2ef40f0042cb1de8" target="_top" xlink:title="Gets the unique identifier for this object.">
<polygon fill="white" stroke="#666666" points="1197,-330 1056,-330 1056,-311 1197,-311 1197,-330"/>
<text text-anchor="middle" x="1126.5" y="-318" font-family="Helvetica,sans-Serif" font-size="10.00">SceneObject::getObjectID</text>
</a>
</g>
</g>
<!-- Node34&#45;&gt;Node38 -->
<g id="edge35_Node000034_Node000038" class="edge">
<title>Node34&#45;&gt;Node38</title>
<g id="a_edge35_Node000034_Node000038"><a xlink:title=" ">
<path fill="none" stroke="#63b8ff" d="M974.05,-320.5C997.04,-320.5 1022.32,-320.5 1045.52,-320.5"/>
<polygon fill="#63b8ff" stroke="#63b8ff" points="1045.67,-324 1055.67,-320.5 1045.67,-317 1045.67,-324"/>
</a>
</g>
</g>
<!-- Node36 -->
<g id="Node000036" class="node">
<title>Node36</title>
<g id="a_Node000036"><a xlink:href="classSceneManager.html#ab7c34393bb10361069b0ea73ec2797f8" target="_top" xlink:title=" ">
<polygon fill="#fff0f0" stroke="red" points="1434,-173 1255,-173 1255,-154 1434,-154 1434,-173"/>
<text text-anchor="middle" x="1344.5" y="-161" font-family="Helvetica,sans-Serif" font-size="10.00">SceneManager::removeDrawable</text>
</a>
</g>
</g>
<!-- Node35&#45;&gt;Node36 -->
<g id="edge33_Node000035_Node000036" class="edge">
<title>Node35&#45;&gt;Node36</title>
<g id="a_edge33_Node000035_Node000036"><a xlink:title=" ">
<path fill="none" stroke="#63b8ff" d="M1207.01,-151.5C1219.25,-152.57 1232.02,-153.7 1244.63,-154.81"/>
<polygon fill="#63b8ff" stroke="#63b8ff" points="1244.42,-158.3 1254.69,-155.69 1245.03,-151.33 1244.42,-158.3"/>
</a>
</g>
</g>
<!-- Node37 -->
<g id="Node000037" class="node">
<title>Node37</title>
<g id="a_Node000037"><a xlink:href="classSceneManager.html#a1c647e38474ee02d5dd8510bc2313c38" target="_top" xlink:title=" ">
<polygon fill="white" stroke="#666666" points="1431,-136 1258,-136 1258,-117 1431,-117 1431,-136"/>
<text text-anchor="middle" x="1344.5" y="-124" font-family="Helvetica,sans-Serif" font-size="10.00">SceneManager::removePickable</text>
</a>
</g>
</g>
<!-- Node35&#45;&gt;Node37 -->
<g id="edge34_Node000035_Node000037" class="edge">
<title>Node35&#45;&gt;Node37</title>
<g id="a_edge34_Node000035_Node000037"><a xlink:title=" ">
<path fill="none" stroke="#63b8ff" d="M1207.01,-137.88C1220.24,-136.77 1234.08,-135.62 1247.66,-134.49"/>
<polygon fill="#63b8ff" stroke="#63b8ff" points="1248.31,-137.95 1257.98,-133.63 1247.73,-130.97 1248.31,-137.95"/>
</a>
</g>
</g>
<!-- Node44 -->
<g id="Node000044" class="node">
<title>Node44</title>
<g id="a_Node000044"><a xlink:href="classSceneSerializer.html#a56e278bcdda1f03f192797122dd6d0c0" target="_top" xlink:title=" ">
<polygon fill="white" stroke="#666666" points="753,-170 601,-170 601,-151 753,-151 753,-170"/>
<text text-anchor="middle" x="677" y="-158" font-family="Helvetica,sans-Serif" font-size="10.00">SceneSerializer::saveToJson</text>
</a>
</g>
</g>
<!-- Node43&#45;&gt;Node44 -->
<g id="edge39_Node000043_Node000044" class="edge">
<title>Node43&#45;&gt;Node44</title>
<g id="a_edge39_Node000043_Node000044"><a xlink:title=" ">
<path fill="none" stroke="#63b8ff" d="M546.04,-161.14C560.51,-161.07 575.84,-161 590.7,-160.92"/>
<polygon fill="#63b8ff" stroke="#63b8ff" points="590.92,-164.42 600.9,-160.87 590.88,-157.42 590.92,-164.42"/>
</a>
</g>
</g>
<!-- Node45 -->
<g id="Node000045" class="node">
<title>Node45</title>
<g id="a_Node000045"><a xlink:href="classSceneManager.html#ad73f1ee3bdfe2567544871845707ce0f" target="_top" xlink:title=" ">
<polygon fill="white" stroke="#666666" points="998,-256 795,-256 795,-237 998,-237 998,-256"/>
<text text-anchor="middle" x="896.5" y="-244" font-family="Helvetica,sans-Serif" font-size="10.00">SceneManager::getGlobalAcceleration</text>
</a>
</g>
</g>
<!-- Node44&#45;&gt;Node45 -->
<g id="edge40_Node000044_Node000045" class="edge">
<title>Node44&#45;&gt;Node45</title>
<g id="a_edge40_Node000044_Node000045"><a xlink:title=" ">
<path fill="none" stroke="#63b8ff" d="M691.31,-170.12C712.29,-184.81 754.81,-212.68 795,-227.5 802.46,-230.26 810.39,-232.63 818.39,-234.67"/>
<polygon fill="#63b8ff" stroke="#63b8ff" points="817.62,-238.08 828.16,-236.99 819.24,-231.27 817.62,-238.08"/>
</a>
</g>
</g>
<!-- Node46 -->
<g id="Node000046" class="node">
<title>Node46</title>
<g id="a_Node000046"><a xlink:href="classSceneManager.html#a5117d2cabac5d1f95994f47f530b377b" target="_top" xlink:title=" ">
<polygon fill="white" stroke="#666666" points="983.5,-218.5 809.5,-218.5 809.5,-188.5 983.5,-188.5 983.5,-218.5"/>
<text text-anchor="start" x="817.5" y="-206.5" font-family="Helvetica,sans-Serif" font-size="10.00">SceneManager::getGravitational</text>
<text text-anchor="middle" x="896.5" y="-195.5" font-family="Helvetica,sans-Serif" font-size="10.00">Constant</text>
</a>
</g>
</g>
<!-- Node44&#45;&gt;Node46 -->
<g id="edge41_Node000044_Node000046" class="edge">
<title>Node44&#45;&gt;Node46</title>
<g id="a_edge41_Node000044_Node000046"><a xlink:title=" ">
<path fill="none" stroke="#63b8ff" d="M726.27,-170.05C750.79,-174.89 781.32,-180.93 809.67,-186.53"/>
<polygon fill="#63b8ff" stroke="#63b8ff" points="809.11,-189.99 819.6,-188.5 810.46,-183.12 809.11,-189.99"/>
</a>
</g>
</g>
<!-- Node47 -->
<g id="Node000047" class="node">
<title>Node47</title>
<g id="a_Node000047"><a xlink:href="classSceneManager.html#ad8688edec501c8e945dff1a85c7e33c7" target="_top" xlink:title=" ">
<polygon fill="white" stroke="#666666" points="970,-170 823,-170 823,-151 970,-151 970,-170"/>
<text text-anchor="middle" x="896.5" y="-158" font-family="Helvetica,sans-Serif" font-size="10.00">SceneManager::getObjects</text>
</a>
</g>
</g>
<!-- Node44&#45;&gt;Node47 -->
<g id="edge42_Node000044_Node000047" class="edge">
<title>Node44&#45;&gt;Node47</title>
<g id="a_edge42_Node000044_Node000047"><a xlink:title=" ">
<path fill="none" stroke="#63b8ff" d="M753.16,-160.5C772.4,-160.5 793.19,-160.5 812.79,-160.5"/>
<polygon fill="#63b8ff" stroke="#63b8ff" points="812.91,-164 822.91,-160.5 812.91,-157 812.91,-164"/>
</a>
</g>
</g>
<!-- Node48 -->
<g id="Node000048" class="node">
<title>Node48</title>
<g id="a_Node000048"><a xlink:href="classResourceManager.html#ab447c164418daff9c741b03b4bf33310" target="_top" xlink:title=" ">
<polygon fill="white" stroke="#666666" points="991,-133 802,-133 802,-114 991,-114 991,-133"/>
<text text-anchor="middle" x="896.5" y="-121" font-family="Helvetica,sans-Serif" font-size="10.00">ResourceManager::getShaderName</text>
</a>
</g>
</g>
<!-- Node44&#45;&gt;Node48 -->
<g id="edge43_Node000044_Node000048" class="edge">
<title>Node44&#45;&gt;Node48</title>
<g id="a_edge43_Node000044_Node000048"><a xlink:title=" ">
<path fill="none" stroke="#63b8ff" d="M734.01,-150.97C763.07,-146.03 798.77,-139.96 829.2,-134.78"/>
<polygon fill="#63b8ff" stroke="#63b8ff" points="830.03,-138.19 839.3,-133.06 828.86,-131.29 830.03,-138.19"/>
</a>
</g>
</g>
<!-- Node49 -->
<g id="Node000049" class="node">
<title>Node49</title>
<g id="a_Node000049"><a xlink:href="classSceneManager.html#ae085a7aade1b9a2adcb7d9f1b2660790" target="_top" xlink:title=" ">
<polygon fill="#fff0f0" stroke="red" points="976,-96 817,-96 817,-77 976,-77 976,-96"/>
<text text-anchor="middle" x="896.5" y="-84" font-family="Helvetica,sans-Serif" font-size="10.00">SceneManager::getSimSpeed</text>
</a>
</g>
</g>
<!-- Node44&#45;&gt;Node49 -->
<g id="edge44_Node000044_Node000049" class="edge">
<title>Node44&#45;&gt;Node49</title>
<g id="a_edge44_Node000044_Node000049"><a xlink:title=" ">
<path fill="none" stroke="#63b8ff" d="M736.55,-150.9C744.36,-148.45 752.06,-145.37 759,-141.5 778.77,-130.5 774.99,-116.07 795,-105.5 799.5,-103.13 804.24,-101.04 809.13,-99.22"/>
<polygon fill="#63b8ff" stroke="#63b8ff" points="810.31,-102.52 818.67,-96.02 808.08,-95.88 810.31,-102.52"/>
</a>
</g>
</g>
<!-- Node51 -->
<g id="Node000051" class="node">
<title>Node51</title>
<g id="a_Node000051"><a xlink:href="namespaceJsonUtils.html#aa9bf373a72d131da0b8d71ade1295533" target="_top" xlink:title=" ">
<polygon fill="white" stroke="#666666" points="956,-59 837,-59 837,-40 956,-40 956,-59"/>
<text text-anchor="middle" x="896.5" y="-47" font-family="Helvetica,sans-Serif" font-size="10.00">JsonUtils::vec3ToJson</text>
</a>
</g>
</g>
<!-- Node44&#45;&gt;Node51 -->
<g id="edge45_Node000044_Node000051" class="edge">
<title>Node44&#45;&gt;Node51</title>
<g id="a_edge45_Node000044_Node000051"><a xlink:title=" ">
<path fill="none" stroke="#63b8ff" d="M742.81,-150.96C748.62,-148.47 754.14,-145.37 759,-141.5 787.32,-119 766.2,-90.39 795,-68.5 804.3,-61.44 815.44,-56.75 826.88,-53.68"/>
<polygon fill="#63b8ff" stroke="#63b8ff" points="827.99,-57.02 836.97,-51.39 826.44,-50.2 827.99,-57.02"/>
</a>
</g>
</g>
<!-- Node52&#45;&gt;Node35 -->
<g id="edge47_Node000052_Node000035" class="edge">
<title>Node52&#45;&gt;Node35</title>
<g id="a_edge47_Node000052_Node000035"><a xlink:title=" ">
<path fill="none" stroke="#63b8ff" d="M744.83,-112.95C749.9,-110.68 754.7,-107.89 759,-104.5 787.71,-81.84 763.99,-49.9 795,-30.5 871.49,17.35 913.71,1.68 998,-30.5 1045.51,-48.65 1086.52,-93.54 1108.46,-121.27"/>
<polygon fill="#63b8ff" stroke="#63b8ff" points="1105.76,-123.5 1114.64,-129.28 1111.3,-119.22 1105.76,-123.5"/>
</a>
</g>
</g>
<!-- Node54 -->
<g id="Node000054" class="node">
<title>Node54</title>
<g id="a_Node000054"><a xlink:href="namespaceMath.html#aec8403064a88272999c2c143ef03a9fd" target="_top" xlink:title="Finds the first object intersected by a ray.">
<polygon fill="white" stroke="#666666" points="523,-95 422,-95 422,-76 523,-76 523,-95"/>
<text text-anchor="middle" x="472.5" y="-83" font-family="Helvetica,sans-Serif" font-size="10.00">Math::findFirstHit</text>
</a>
</g>
</g>
<!-- Node53&#45;&gt;Node54 -->
<g id="edge49_Node000053_Node000054" class="edge">
<title>Node53&#45;&gt;Node54</title>
<g id="a_edge49_Node000053_Node000054"><a xlink:title=" ">
<path fill="none" stroke="#63b8ff" d="M340.01,-85.5C363.61,-85.5 389.15,-85.5 411.39,-85.5"/>
<polygon fill="#63b8ff" stroke="#63b8ff" points="411.69,-89 421.69,-85.5 411.69,-82 411.69,-89"/>
</a>
</g>
</g>
<!-- Node56 -->
<g id="Node000056" class="node">
<title>Node56</title>
<g id="a_Node000056"><a xlink:href="classIPickable.html#a633ac40ae443d7a7935a34d145514bea" target="_top" xlink:title="Gets the unique identifier for this object.">
<polygon fill="white" stroke="#666666" points="534.5,-58 410.5,-58 410.5,-39 534.5,-39 534.5,-58"/>
<text text-anchor="middle" x="472.5" y="-46" font-family="Helvetica,sans-Serif" font-size="10.00">IPickable::getObjectID</text>
</a>
</g>
</g>
<!-- Node53&#45;&gt;Node56 -->
<g id="edge51_Node000053_Node000056" class="edge">
<title>Node53&#45;&gt;Node56</title>
<g id="a_edge51_Node000053_Node000056"><a xlink:title=" ">
<path fill="none" stroke="#63b8ff" d="M340.01,-71.73C362.31,-67.79 386.33,-63.54 407.67,-59.78"/>
<polygon fill="#63b8ff" stroke="#63b8ff" points="408.35,-63.21 417.59,-58.02 407.13,-56.32 408.35,-63.21"/>
</a>
</g>
</g>
<!-- Node55 -->
<g id="Node000055" class="node">
<title>Node55</title>
<g id="a_Node000055"><a xlink:href="classIPickable.html#a69ded211af3ca1009ddbafd14aef8bb7" target="_top" xlink:title="Tests if a ray intersects this object&#39;s geometry.">
<polygon fill="white" stroke="#666666" points="743.5,-95 610.5,-95 610.5,-76 743.5,-76 743.5,-95"/>
<text text-anchor="middle" x="677" y="-83" font-family="Helvetica,sans-Serif" font-size="10.00">IPickable::intersectsRay</text>
</a>
</g>
</g>
<!-- Node54&#45;&gt;Node55 -->
<g id="edge50_Node000054_Node000055" class="edge">
<title>Node54&#45;&gt;Node55</title>
<g id="a_edge50_Node000054_Node000055"><a xlink:title=" ">
<path fill="none" stroke="#63b8ff" d="M523.04,-85.5C546.19,-85.5 574.28,-85.5 600.03,-85.5"/>
<polygon fill="#63b8ff" stroke="#63b8ff" points="600.15,-89 610.15,-85.5 600.15,-82 600.15,-89"/>
</a>
</g>
</g>
</g>
</svg>
