<?xml version="1.0" encoding="UTF-8" standalone="no"?>
<!DOCTYPE svg PUBLIC "-//W3C//DTD SVG 1.1//EN"
 "http://www.w3.org/Graphics/SVG/1.1/DTD/svg11.dtd">
<!-- Generated by graphviz version 2.43.0 (0)
 -->
<!-- Title: SceneSerializer::loadFromJson Pages: 1 -->
<!--zoomable 471 -->

<svg id="main" version="1.1" xmlns="http://www.w3.org/2000/svg" xmlns:xlink="http://www.w3.org/1999/xlink" xml:space="preserve" onload="init(evt)">
<style type="text/css"><![CDATA[
.node, .edge {opacity: 0.7;}
.node.selected, .edge.selected {opacity: 1;}
.edge:hover path { stroke: red; }
.edge:hover polygon { stroke: red; fill: red; }
]]></style>

<defs>
  <circle id="rim" cx="0" cy="0" r="7"/>
  <circle id="rim2" cx="0" cy="0" r="3.5"/>
  <g id="zoomPlus">
    <use xlink:href="#rim" fill="#404040"><set attributeName="fill" to="#808080" begin="zoomplus.mouseover" end="zoomplus.mouseout"/></use>
    <path d="M-4,0h8M0,-4v8" fill="none" stroke="white" stroke-width="1.5" pointer-events="none"/>
  </g>
  <g id="zoomMin">
    <use xlink:href="#rim" fill="#404040"><set attributeName="fill" to="#808080" begin="zoomminus.mouseover" end="zoomminus.mouseout"/></use>
    <path d="M-4,0h8" fill="none" stroke="white" stroke-width="1.5" pointer-events="none"/>
  </g>
  <g id="arrowUp" transform="translate(30 24)">
    <use xlink:href="#rim"/>
    <path pointer-events="none" fill="none" stroke="white" stroke-width="1.5" d="M0,-3.0v7 M-2.5,-0.5L0,-3.0L2.5,-0.5"/>
  </g>
  <g id="arrowRight" transform="rotate(90) translate(36 -43)">
    <use xlink:href="#rim"/>
    <path pointer-events="none" fill="none" stroke="white" stroke-width="1.5" d="M0,-3.0v7 M-2.5,-0.5L0,-3.0L2.5,-0.5"/>
  </g>
  <g id="arrowDown" transform="rotate(180) translate(-30 -48)">
    <use xlink:href="#rim"/>
    <path pointer-events="none" fill="none" stroke="white" stroke-width="1.5" d="M0,-3.0v7 M-2.5,-0.5L0,-3.0L2.5,-0.5"/>
  </g>
  <g id="arrowLeft" transform="rotate(270) translate(-36 17)">
    <use xlink:href="#rim"/>
    <path pointer-events="none" fill="none" stroke="white" stroke-width="1.5" d="M0,-3.0v7 M-2.5,-0.5L0,-3.0L2.5,-0.5"/>
  </g>
  <g id="resetDef">
    <use xlink:href="#rim2" fill="#404040"><set attributeName="fill" to="#808080" begin="reset.mouseover" end="reset.mouseout"/></use>
  </g>
</defs>
<script type="application/ecmascript">
var viewWidth = 1018;
var viewHeight = 471;
var sectionId = 'dynsection-0';
</script>
<script type="application/ecmascript" xlink:href="svg.min.js"/>
<svg id="graph" class="graph">
<g id="viewport">
<title>SceneSerializer::loadFromJson</title>
<!-- Node1 -->
<g id="Node000001" class="node">
<title>Node1</title>
<g id="a_Node000001"><a xlink:title=" ">
<polygon fill="#999999" stroke="#666666" points="164,-221 0,-221 0,-202 164,-202 164,-221"/>
<text text-anchor="middle" x="82" y="-209" font-family="Helvetica,sans-Serif" font-size="10.00">SceneSerializer::loadFromJson</text>
</a>
</g>
</g>
<!-- Node2 -->
<g id="Node000002" class="node">
<title>Node2</title>
<g id="a_Node000002"><a xlink:href="structRigidBodyOptions.html#a6cf379ca7435acbcab6561601a2ab331" target="_top" xlink:title=" ">
<polygon fill="white" stroke="#666666" points="365,-390 237,-390 237,-371 365,-371 365,-390"/>
<text text-anchor="middle" x="301" y="-378" font-family="Helvetica,sans-Serif" font-size="10.00">RigidBodyOptions::Box</text>
</a>
</g>
</g>
<!-- Node1&#45;&gt;Node2 -->
<g id="edge1_Node000001_Node000002" class="edge">
<title>Node1&#45;&gt;Node2</title>
<g id="a_edge1_Node000001_Node000002"><a xlink:title=" ">
<path fill="none" stroke="#63b8ff" d="M87.39,-221.27C100.25,-248.66 140.72,-326.58 200,-362.5 208.23,-367.49 217.49,-371.17 226.97,-373.87"/>
<polygon fill="#63b8ff" stroke="#63b8ff" points="226.35,-377.32 236.9,-376.34 228.05,-370.53 226.35,-377.32"/>
</a>
</g>
</g>
<!-- Node3 -->
<g id="Node000003" class="node">
<title>Node3</title>
<g id="a_Node000003"><a xlink:href="classSceneManager.html#a1daee617aa556b8af8a7202d3f8f28c8" target="_top" xlink:title=" ">
<polygon fill="white" stroke="#666666" points="379.5,-353 222.5,-353 222.5,-334 379.5,-334 379.5,-353"/>
<text text-anchor="middle" x="301" y="-341" font-family="Helvetica,sans-Serif" font-size="10.00">SceneManager::createObject</text>
</a>
</g>
</g>
<!-- Node1&#45;&gt;Node3 -->
<g id="edge2_Node000001_Node000003" class="edge">
<title>Node1&#45;&gt;Node3</title>
<g id="a_edge2_Node000001_Node000003"><a xlink:title=" ">
<path fill="none" stroke="#63b8ff" d="M90.35,-221C107.25,-242.19 151.23,-293.46 200,-319.5 208.86,-324.23 218.65,-328.04 228.54,-331.11"/>
<polygon fill="#63b8ff" stroke="#63b8ff" points="227.86,-334.55 238.43,-333.93 229.78,-327.82 227.86,-334.55"/>
</a>
</g>
</g>
<!-- Node9 -->
<g id="Node000009" class="node">
<title>Node9</title>
<g id="a_Node000009"><a xlink:href="classSceneManager.html#aad894e90cf7ad353aab707f966c9711d" target="_top" xlink:title=" ">
<polygon fill="white" stroke="#666666" points="615.5,-315 445.5,-315 445.5,-296 615.5,-296 615.5,-315"/>
<text text-anchor="middle" x="530.5" y="-303" font-family="Helvetica,sans-Serif" font-size="10.00">SceneManager::setObjectName</text>
</a>
</g>
</g>
<!-- Node1&#45;&gt;Node9 -->
<g id="edge21_Node000001_Node000009" class="edge">
<title>Node1&#45;&gt;Node9</title>
<g id="a_edge21_Node000001_Node000009"><a xlink:title=" ">
<path fill="none" stroke="#63b8ff" d="M93.63,-221.06C113.07,-237.89 156.4,-272.35 200,-286.5 276.46,-311.32 368.08,-314.64 435.28,-312.57"/>
<polygon fill="#63b8ff" stroke="#63b8ff" points="435.56,-316.06 445.43,-312.21 435.31,-309.07 435.56,-316.06"/>
</a>
</g>
</g>
<!-- Node14 -->
<g id="Node000014" class="node">
<title>Node14</title>
<g id="a_Node000014"><a xlink:href="classSceneManager.html#a53736fa499987ffff612d3ee7c85442c" target="_top" xlink:title=" ">
<polygon fill="white" stroke="#666666" points="388.5,-277 213.5,-277 213.5,-258 388.5,-258 388.5,-277"/>
<text text-anchor="middle" x="301" y="-265" font-family="Helvetica,sans-Serif" font-size="10.00">SceneManager::deleteAllObjects</text>
</a>
</g>
</g>
<!-- Node1&#45;&gt;Node14 -->
<g id="edge13_Node000001_Node000014" class="edge">
<title>Node1&#45;&gt;Node14</title>
<g id="a_edge13_Node000001_Node000014"><a xlink:title=" ">
<path fill="none" stroke="#63b8ff" d="M109.19,-221.14C132.71,-229.52 168.31,-241.54 200,-249.5 209.5,-251.88 219.57,-254.08 229.54,-256.06"/>
<polygon fill="#63b8ff" stroke="#63b8ff" points="228.95,-259.51 239.43,-257.96 230.27,-252.64 228.95,-259.51"/>
</a>
</g>
</g>
<!-- Node18 -->
<g id="Node000018" class="node">
<title>Node18</title>
<g id="a_Node000018"><a xlink:href="classResourceManager.html#a3899655c6a1e40089930df4fbc9f1be9" target="_top" xlink:title=" ">
<polygon fill="white" stroke="#666666" points="381,-240 221,-240 221,-221 381,-221 381,-240"/>
<text text-anchor="middle" x="301" y="-228" font-family="Helvetica,sans-Serif" font-size="10.00">ResourceManager::getShader</text>
</a>
</g>
</g>
<!-- Node1&#45;&gt;Node18 -->
<g id="edge17_Node000001_Node000018" class="edge">
<title>Node1&#45;&gt;Node18</title>
<g id="a_edge17_Node000001_Node000018"><a xlink:title=" ">
<path fill="none" stroke="#63b8ff" d="M164.11,-218.6C179.32,-219.93 195.29,-221.33 210.73,-222.68"/>
<polygon fill="#63b8ff" stroke="#63b8ff" points="210.52,-226.18 220.79,-223.56 211.13,-219.21 210.52,-226.18"/>
</a>
</g>
</g>
<!-- Node19 -->
<g id="Node000019" class="node">
<title>Node19</title>
<g id="a_Node000019"><a xlink:href="namespaceJsonUtils.html#ab8da6e319ea5969afbe6ddd6620add30" target="_top" xlink:title=" ">
<polygon fill="white" stroke="#666666" points="360.5,-203 241.5,-203 241.5,-184 360.5,-184 360.5,-203"/>
<text text-anchor="middle" x="301" y="-191" font-family="Helvetica,sans-Serif" font-size="10.00">JsonUtils::jsonToVec3</text>
</a>
</g>
</g>
<!-- Node1&#45;&gt;Node19 -->
<g id="edge18_Node000001_Node000019" class="edge">
<title>Node1&#45;&gt;Node19</title>
<g id="a_edge18_Node000001_Node000019"><a xlink:title=" ">
<path fill="none" stroke="#63b8ff" d="M164.11,-204.77C186.15,-202.94 209.8,-200.98 231.09,-199.22"/>
<polygon fill="#63b8ff" stroke="#63b8ff" points="231.66,-202.68 241.33,-198.37 231.08,-195.71 231.66,-202.68"/>
</a>
</g>
</g>
<!-- Node20 -->
<g id="Node000020" class="node">
<title>Node20</title>
<g id="a_Node000020"><a xlink:href="classSceneManager.html#a8dafcb538b1cfbf727b82644ad5815ad" target="_top" xlink:title=" ">
<polygon fill="white" stroke="#666666" points="402,-166 200,-166 200,-147 402,-147 402,-166"/>
<text text-anchor="middle" x="301" y="-154" font-family="Helvetica,sans-Serif" font-size="10.00">SceneManager::setGlobalAcceleration</text>
</a>
</g>
</g>
<!-- Node1&#45;&gt;Node20 -->
<g id="edge19_Node000001_Node000020" class="edge">
<title>Node1&#45;&gt;Node20</title>
<g id="a_edge19_Node000001_Node000020"><a xlink:title=" ">
<path fill="none" stroke="#63b8ff" d="M111.12,-201.89C134.67,-194.07 169.27,-183.12 200,-175.5 210.94,-172.79 222.65,-170.24 234.05,-167.96"/>
<polygon fill="#63b8ff" stroke="#63b8ff" points="234.82,-171.37 243.96,-166.02 233.48,-164.5 234.82,-171.37"/>
</a>
</g>
</g>
<!-- Node21 -->
<g id="Node000021" class="node">
<title>Node21</title>
<g id="a_Node000021"><a xlink:href="classSceneManager.html#a357678fb063589b2ed1dc9a5f0b55ae2" target="_top" xlink:title=" ">
<polygon fill="white" stroke="#666666" points="387.5,-128.5 214.5,-128.5 214.5,-98.5 387.5,-98.5 387.5,-128.5"/>
<text text-anchor="start" x="222.5" y="-116.5" font-family="Helvetica,sans-Serif" font-size="10.00">SceneManager::setGravitational</text>
<text text-anchor="middle" x="301" y="-105.5" font-family="Helvetica,sans-Serif" font-size="10.00">Constant</text>
</a>
</g>
</g>
<!-- Node1&#45;&gt;Node21 -->
<g id="edge20_Node000001_Node000021" class="edge">
<title>Node1&#45;&gt;Node21</title>
<g id="a_edge20_Node000001_Node000021"><a xlink:title=" ">
<path fill="none" stroke="#63b8ff" d="M95.6,-201.76C116.28,-186.22 159.23,-155.81 200,-138.5 205.89,-136 212.09,-133.71 218.39,-131.62"/>
<polygon fill="#63b8ff" stroke="#63b8ff" points="219.86,-134.83 228.35,-128.5 217.76,-128.15 219.86,-134.83"/>
</a>
</g>
</g>
<!-- Node22 -->
<g id="Node000022" class="node">
<title>Node22</title>
<g id="a_Node000022"><a xlink:href="classSceneManager.html#af40d0ff3e76f89bbf5504f1694814179" target="_top" xlink:title=" ">
<polygon fill="white" stroke="#666666" points="378.5,-80 223.5,-80 223.5,-61 378.5,-61 378.5,-80"/>
<text text-anchor="middle" x="301" y="-68" font-family="Helvetica,sans-Serif" font-size="10.00">SceneManager::setSelectFor</text>
</a>
</g>
</g>
<!-- Node1&#45;&gt;Node22 -->
<g id="edge22_Node000001_Node000022" class="edge">
<title>Node1&#45;&gt;Node22</title>
<g id="a_edge22_Node000001_Node000022"><a xlink:title=" ">
<path fill="none" stroke="#63b8ff" d="M89.01,-201.98C104.33,-178.57 147.38,-118.05 200,-89.5 204.45,-87.09 209.15,-84.98 214,-83.13"/>
<polygon fill="#63b8ff" stroke="#63b8ff" points="215.14,-86.44 223.47,-79.89 212.88,-79.81 215.14,-86.44"/>
</a>
</g>
</g>
<!-- Node28 -->
<g id="Node000028" class="node">
<title>Node28</title>
<g id="a_Node000028"><a xlink:href="classSceneManager.html#a64f4064d9201d062a24f750763c1f703" target="_top" xlink:title=" ">
<polygon fill="white" stroke="#666666" points="380,-35 222,-35 222,-16 380,-16 380,-35"/>
<text text-anchor="middle" x="301" y="-23" font-family="Helvetica,sans-Serif" font-size="10.00">SceneManager::setSimSpeed</text>
</a>
</g>
</g>
<!-- Node1&#45;&gt;Node28 -->
<g id="edge29_Node000001_Node000028" class="edge">
<title>Node1&#45;&gt;Node28</title>
<g id="a_edge29_Node000001_Node000028"><a xlink:title=" ">
<path fill="none" stroke="#63b8ff" d="M87.22,-201.88C99.92,-174.1 140.6,-93.14 200,-52.5 208.86,-46.44 219.03,-41.73 229.42,-38.08"/>
<polygon fill="#63b8ff" stroke="#63b8ff" points="230.53,-41.4 238.98,-35.02 228.39,-34.74 230.53,-41.4"/>
</a>
</g>
</g>
<!-- Node4 -->
<g id="Node000004" class="node">
<title>Node4</title>
<g id="a_Node000004"><a xlink:href="classSceneManager.html#ad0d1661e5869720d7a07b1912d75318d" target="_top" xlink:title=" ">
<polygon fill="white" stroke="#666666" points="610,-463 451,-463 451,-444 610,-444 610,-463"/>
<text text-anchor="middle" x="530.5" y="-451" font-family="Helvetica,sans-Serif" font-size="10.00">SceneManager::addDrawable</text>
</a>
</g>
</g>
<!-- Node3&#45;&gt;Node4 -->
<g id="edge3_Node000003_Node000004" class="edge">
<title>Node3&#45;&gt;Node4</title>
<g id="a_edge3_Node000003_Node000004"><a xlink:title=" ">
<path fill="none" stroke="#63b8ff" d="M379.65,-350.67C387.67,-353.57 395.32,-357.42 402,-362.5 430.79,-384.4 409.28,-413.51 438,-435.5 439.64,-436.75 441.34,-437.93 443.1,-439.03"/>
<polygon fill="#63b8ff" stroke="#63b8ff" points="441.8,-442.3 452.27,-443.92 445.09,-436.13 441.8,-442.3"/>
</a>
</g>
</g>
<!-- Node6 -->
<g id="Node000006" class="node">
<title>Node6</title>
<g id="a_Node000006"><a xlink:href="classSceneManager.html#a31d525542db0b239ba61dd36a3d92d43" target="_top" xlink:title=" ">
<polygon fill="white" stroke="#666666" points="607,-426 454,-426 454,-407 607,-407 607,-426"/>
<text text-anchor="middle" x="530.5" y="-414" font-family="Helvetica,sans-Serif" font-size="10.00">SceneManager::addPickable</text>
</a>
</g>
</g>
<!-- Node3&#45;&gt;Node6 -->
<g id="edge5_Node000003_Node000006" class="edge">
<title>Node3&#45;&gt;Node6</title>
<g id="a_edge5_Node000003_Node000006"><a xlink:title=" ">
<path fill="none" stroke="#63b8ff" d="M378.45,-353.05C386.64,-355.52 394.66,-358.62 402,-362.5 422,-373.08 418.03,-387.85 438,-398.5 441.52,-400.37 445.2,-402.05 448.99,-403.56"/>
<polygon fill="#63b8ff" stroke="#63b8ff" points="448,-406.92 458.59,-406.96 450.33,-400.32 448,-406.92"/>
</a>
</g>
</g>
<!-- Node7 -->
<g id="Node000007" class="node">
<title>Node7</title>
<g id="a_Node000007"><a xlink:href="classSceneManager.html#ab6a7ecbff438f2dbee8a0f31795456f9" target="_top" xlink:title=" ">
<polygon fill="white" stroke="#666666" points="623,-389 438,-389 438,-370 623,-370 623,-389"/>
<text text-anchor="middle" x="530.5" y="-377" font-family="Helvetica,sans-Serif" font-size="10.00">SceneManager::makeUniqueName</text>
</a>
</g>
</g>
<!-- Node3&#45;&gt;Node7 -->
<g id="edge6_Node000003_Node000007" class="edge">
<title>Node3&#45;&gt;Node7</title>
<g id="a_edge6_Node000003_Node000007"><a xlink:title=" ">
<path fill="none" stroke="#63b8ff" d="M362.07,-353.01C391.89,-357.72 428.09,-363.45 459.19,-368.37"/>
<polygon fill="#63b8ff" stroke="#63b8ff" points="458.67,-371.83 469.09,-369.94 459.76,-364.92 458.67,-371.83"/>
</a>
</g>
</g>
<!-- Node8 -->
<g id="Node000008" class="node">
<title>Node8</title>
<g id="a_Node000008"><a xlink:href="classSceneManager.html#a76592c383a85fda664a79fa155ead19e" target="_top" xlink:title=" ">
<polygon fill="white" stroke="#666666" points="608,-352 453,-352 453,-333 608,-333 608,-352"/>
<text text-anchor="middle" x="530.5" y="-340" font-family="Helvetica,sans-Serif" font-size="10.00">SceneManager::objectAdded</text>
</a>
</g>
</g>
<!-- Node3&#45;&gt;Node8 -->
<g id="edge7_Node000003_Node000008" class="edge">
<title>Node3&#45;&gt;Node8</title>
<g id="a_edge7_Node000003_Node000008"><a xlink:title=" ">
<path fill="none" stroke="#63b8ff" d="M379.66,-343.16C400.01,-343.07 422.08,-342.97 442.87,-342.88"/>
<polygon fill="#63b8ff" stroke="#63b8ff" points="442.98,-346.38 452.96,-342.84 442.95,-339.38 442.98,-346.38"/>
</a>
</g>
</g>
<!-- Node3&#45;&gt;Node9 -->
<g id="edge8_Node000003_Node000009" class="edge">
<title>Node3&#45;&gt;Node9</title>
<g id="a_edge8_Node000003_Node000009"><a xlink:title=" ">
<path fill="none" stroke="#63b8ff" d="M359.11,-333.96C390.49,-328.72 429.57,-322.19 462.39,-316.71"/>
<polygon fill="#63b8ff" stroke="#63b8ff" points="463.08,-320.14 472.36,-315.04 461.92,-313.24 463.08,-320.14"/>
</a>
</g>
</g>
<!-- Node5 -->
<g id="Node000005" class="node">
<title>Node5</title>
<g id="a_Node000005"><a xlink:href="classScene.html#aa2773ce73d9158e1e3a9c97d26a7e727" target="_top" xlink:title=" ">
<polygon fill="white" stroke="#666666" points="806.5,-463 690.5,-463 690.5,-444 806.5,-444 806.5,-463"/>
<text text-anchor="middle" x="748.5" y="-451" font-family="Helvetica,sans-Serif" font-size="10.00">Scene::addDrawable</text>
</a>
</g>
</g>
<!-- Node4&#45;&gt;Node5 -->
<g id="edge4_Node000004_Node000005" class="edge">
<title>Node4&#45;&gt;Node5</title>
<g id="a_edge4_Node000004_Node000005"><a xlink:title=" ">
<path fill="none" stroke="#63b8ff" d="M610.09,-453.5C633.1,-453.5 658.05,-453.5 680.28,-453.5"/>
<polygon fill="#63b8ff" stroke="#63b8ff" points="680.29,-457 690.29,-453.5 680.29,-450 680.29,-457"/>
</a>
</g>
</g>
<!-- Node10 -->
<g id="Node000010" class="node">
<title>Node10</title>
<g id="a_Node000010"><a xlink:href="classSceneObject.html#abebc043e3253d66da477f862a950775d" target="_top" xlink:title=" ">
<polygon fill="white" stroke="#666666" points="812.5,-389 684.5,-389 684.5,-370 812.5,-370 812.5,-389"/>
<text text-anchor="middle" x="748.5" y="-377" font-family="Helvetica,sans-Serif" font-size="10.00">SceneObject::getName</text>
</a>
</g>
</g>
<!-- Node9&#45;&gt;Node10 -->
<g id="edge9_Node000009_Node000010" class="edge">
<title>Node9&#45;&gt;Node10</title>
<g id="a_edge9_Node000009_Node000010"><a xlink:title=" ">
<path fill="none" stroke="#63b8ff" d="M600.08,-315.03C608.06,-317.49 615.89,-320.6 623,-324.5 643.11,-335.54 638.86,-350.5 659,-361.5 663.9,-364.18 669.15,-366.46 674.56,-368.4"/>
<polygon fill="#63b8ff" stroke="#63b8ff" points="673.84,-371.84 684.43,-371.55 675.96,-365.17 673.84,-371.84"/>
</a>
</g>
</g>
<!-- Node11 -->
<g id="Node000011" class="node">
<title>Node11</title>
<g id="a_Node000011"><a xlink:href="classSceneManager.html#a624cd344feba3357d2ec95bab7229a6f" target="_top" xlink:title=" ">
<polygon fill="white" stroke="#666666" points="832,-352 665,-352 665,-333 832,-333 832,-352"/>
<text text-anchor="middle" x="748.5" y="-340" font-family="Helvetica,sans-Serif" font-size="10.00">SceneManager::isNameUnique</text>
</a>
</g>
</g>
<!-- Node9&#45;&gt;Node11 -->
<g id="edge10_Node000009_Node000011" class="edge">
<title>Node9&#45;&gt;Node11</title>
<g id="a_edge10_Node000009_Node000011"><a xlink:title=" ">
<path fill="none" stroke="#63b8ff" d="M587.13,-315.03C615.99,-319.97 651.43,-326.04 681.66,-331.22"/>
<polygon fill="#63b8ff" stroke="#63b8ff" points="681.24,-334.7 691.69,-332.94 682.42,-327.8 681.24,-334.7"/>
</a>
</g>
</g>
<!-- Node12 -->
<g id="Node000012" class="node">
<title>Node12</title>
<g id="a_Node000012"><a xlink:href="classSceneManager.html#a76dba0a09f8b2a1dc376236f904a9c3a" target="_top" xlink:title=" ">
<polygon fill="white" stroke="#666666" points="834,-315 663,-315 663,-296 834,-296 834,-315"/>
<text text-anchor="middle" x="748.5" y="-303" font-family="Helvetica,sans-Serif" font-size="10.00">SceneManager::objectRenamed</text>
</a>
</g>
</g>
<!-- Node9&#45;&gt;Node12 -->
<g id="edge11_Node000009_Node000012" class="edge">
<title>Node9&#45;&gt;Node12</title>
<g id="a_edge11_Node000009_Node000012"><a xlink:title=" ">
<path fill="none" stroke="#63b8ff" d="M615.63,-305.5C627.75,-305.5 640.3,-305.5 652.61,-305.5"/>
<polygon fill="#63b8ff" stroke="#63b8ff" points="652.89,-309 662.89,-305.5 652.89,-302 652.89,-309"/>
</a>
</g>
</g>
<!-- Node13 -->
<g id="Node000013" class="node">
<title>Node13</title>
<g id="a_Node000013"><a xlink:href="classSceneObject.html#ad8ac9406b35bee3cd4fad75db013d9c4" target="_top" xlink:title=" ">
<polygon fill="white" stroke="#666666" points="812.5,-278 684.5,-278 684.5,-259 812.5,-259 812.5,-278"/>
<text text-anchor="middle" x="748.5" y="-266" font-family="Helvetica,sans-Serif" font-size="10.00">SceneObject::setName</text>
</a>
</g>
</g>
<!-- Node9&#45;&gt;Node13 -->
<g id="edge12_Node000009_Node000013" class="edge">
<title>Node9&#45;&gt;Node13</title>
<g id="a_edge12_Node000009_Node000013"><a xlink:title=" ">
<path fill="none" stroke="#63b8ff" d="M587.13,-295.97C615.99,-291.03 651.43,-284.96 681.66,-279.78"/>
<polygon fill="#63b8ff" stroke="#63b8ff" points="682.42,-283.2 691.69,-278.06 681.24,-276.3 682.42,-283.2"/>
</a>
</g>
</g>
<!-- Node15 -->
<g id="Node000015" class="node">
<title>Node15</title>
<g id="a_Node000015"><a xlink:href="classSceneManager.html#a4543114007c5bb40ddab62cd9f2ac613" target="_top" xlink:title=" ">
<polygon fill="white" stroke="#666666" points="609,-241 452,-241 452,-222 609,-222 609,-241"/>
<text text-anchor="middle" x="530.5" y="-229" font-family="Helvetica,sans-Serif" font-size="10.00">SceneManager::deleteObject</text>
</a>
</g>
</g>
<!-- Node14&#45;&gt;Node15 -->
<g id="edge14_Node000014_Node000015" class="edge">
<title>Node14&#45;&gt;Node15</title>
<g id="a_edge14_Node000014_Node000015"><a xlink:title=" ">
<path fill="none" stroke="#63b8ff" d="M362.07,-257.99C391.89,-253.28 428.09,-247.55 459.19,-242.63"/>
<polygon fill="#63b8ff" stroke="#63b8ff" points="459.76,-246.08 469.09,-241.06 458.67,-239.17 459.76,-246.08"/>
</a>
</g>
</g>
<!-- Node16 -->
<g id="Node000016" class="node">
<title>Node16</title>
<g id="a_Node000016"><a xlink:href="classSceneManager.html#a1ecbf10d22d2ff153407cd139bf89632" target="_top" xlink:title=" ">
<polygon fill="white" stroke="#666666" points="834,-241 663,-241 663,-222 834,-222 834,-241"/>
<text text-anchor="middle" x="748.5" y="-229" font-family="Helvetica,sans-Serif" font-size="10.00">SceneManager::objectRemoved</text>
</a>
</g>
</g>
<!-- Node15&#45;&gt;Node16 -->
<g id="edge15_Node000015_Node000016" class="edge">
<title>Node15&#45;&gt;Node16</title>
<g id="a_edge15_Node000015_Node000016"><a xlink:title=" ">
<path fill="none" stroke="#63b8ff" d="M609.18,-231.5C623.33,-231.5 638.23,-231.5 652.81,-231.5"/>
<polygon fill="#63b8ff" stroke="#63b8ff" points="652.84,-235 662.84,-231.5 652.84,-228 652.84,-235"/>
</a>
</g>
</g>
<!-- Node17 -->
<g id="Node000017" class="node">
<title>Node17</title>
<g id="a_Node000017"><a xlink:href="classScene.html#a398bf0981ca0b3f5ade648b1d95513cc" target="_top" xlink:title=" ">
<polygon fill="white" stroke="#666666" points="1010,-184 874,-184 874,-165 1010,-165 1010,-184"/>
<text text-anchor="middle" x="942" y="-172" font-family="Helvetica,sans-Serif" font-size="10.00">Scene::removeDrawable</text>
</a>
</g>
</g>
<!-- Node15&#45;&gt;Node17 -->
<g id="edge16_Node000015_Node000017" class="edge">
<title>Node15&#45;&gt;Node17</title>
<g id="a_edge16_Node000015_Node000017"><a xlink:title=" ">
<path fill="none" stroke="#63b8ff" d="M598.66,-221.98C618.12,-219.23 639.41,-216.24 659,-213.5 728.26,-203.82 807.12,-192.93 863.8,-185.12"/>
<polygon fill="#63b8ff" stroke="#63b8ff" points="864.33,-188.58 873.76,-183.75 863.37,-181.64 864.33,-188.58"/>
</a>
</g>
</g>
<!-- Node23 -->
<g id="Node000023" class="node">
<title>Node23</title>
<g id="a_Node000023"><a xlink:href="classSceneManager.html#a99992b526976863d1dab7dc88cc6ec2a" target="_top" xlink:title=" ">
<polygon fill="white" stroke="#666666" points="611,-141.5 450,-141.5 450,-111.5 611,-111.5 611,-141.5"/>
<text text-anchor="start" x="458" y="-129.5" font-family="Helvetica,sans-Serif" font-size="10.00">SceneManager::deleteCurrent</text>
<text text-anchor="middle" x="530.5" y="-118.5" font-family="Helvetica,sans-Serif" font-size="10.00">Gizmo</text>
</a>
</g>
</g>
<!-- Node22&#45;&gt;Node23 -->
<g id="edge23_Node000022_Node000023" class="edge">
<title>Node22&#45;&gt;Node23</title>
<g id="a_edge23_Node000022_Node000023"><a xlink:title=" ">
<path fill="none" stroke="#63b8ff" d="M360.52,-80.01C374.23,-82.68 388.71,-85.86 402,-89.5 418.41,-93.99 421.76,-97.45 438,-102.5 444.79,-104.61 451.91,-106.7 459.04,-108.7"/>
<polygon fill="#63b8ff" stroke="#63b8ff" points="458.17,-112.1 468.74,-111.38 460.04,-105.35 458.17,-112.1"/>
</a>
</g>
</g>
<!-- Node26 -->
<g id="Node000026" class="node">
<title>Node26</title>
<g id="a_Node000026"><a xlink:href="classSceneObject.html#ad77f12eb793b32da2ef40f0042cb1de8" target="_top" xlink:title="Gets the unique identifier for this object.">
<polygon fill="white" stroke="#666666" points="601,-93 460,-93 460,-74 601,-74 601,-93"/>
<text text-anchor="middle" x="530.5" y="-81" font-family="Helvetica,sans-Serif" font-size="10.00">SceneObject::getObjectID</text>
</a>
</g>
</g>
<!-- Node22&#45;&gt;Node26 -->
<g id="edge27_Node000022_Node000026" class="edge">
<title>Node22&#45;&gt;Node26</title>
<g id="a_edge27_Node000022_Node000026"><a xlink:title=" ">
<path fill="none" stroke="#63b8ff" d="M378.7,-74.88C401.51,-76.19 426.56,-77.62 449.57,-78.93"/>
<polygon fill="#63b8ff" stroke="#63b8ff" points="449.45,-82.43 459.64,-79.51 449.85,-75.44 449.45,-82.43"/>
</a>
</g>
</g>
<!-- Node27 -->
<g id="Node000027" class="node">
<title>Node27</title>
<g id="a_Node000027"><a xlink:href="classSceneManager.html#a25bec2896954b4f0c3bed8ef736993d3" target="_top" xlink:title=" ">
<polygon fill="white" stroke="#666666" points="609.5,-56 451.5,-56 451.5,-37 609.5,-37 609.5,-56"/>
<text text-anchor="middle" x="530.5" y="-44" font-family="Helvetica,sans-Serif" font-size="10.00">SceneManager::selectedItem</text>
</a>
</g>
</g>
<!-- Node22&#45;&gt;Node27 -->
<g id="edge28_Node000022_Node000027" class="edge">
<title>Node22&#45;&gt;Node27</title>
<g id="a_edge28_Node000022_Node000027"><a xlink:title=" ">
<path fill="none" stroke="#63b8ff" d="M378.7,-62.41C398.77,-60.29 420.56,-57.99 441.18,-55.82"/>
<polygon fill="#63b8ff" stroke="#63b8ff" points="441.61,-59.29 451.19,-54.76 440.88,-52.33 441.61,-59.29"/>
</a>
</g>
</g>
<!-- Node24 -->
<g id="Node000024" class="node">
<title>Node24</title>
<g id="a_Node000024"><a xlink:href="classSceneManager.html#ab7c34393bb10361069b0ea73ec2797f8" target="_top" xlink:title=" ">
<polygon fill="white" stroke="#666666" points="838,-165 659,-165 659,-146 838,-146 838,-165"/>
<text text-anchor="middle" x="748.5" y="-153" font-family="Helvetica,sans-Serif" font-size="10.00">SceneManager::removeDrawable</text>
</a>
</g>
</g>
<!-- Node23&#45;&gt;Node24 -->
<g id="edge24_Node000023_Node000024" class="edge">
<title>Node23&#45;&gt;Node24</title>
<g id="a_edge24_Node000023_Node000024"><a xlink:title=" ">
<path fill="none" stroke="#63b8ff" d="M611.01,-137.17C629.18,-139.61 648.5,-142.21 666.72,-144.66"/>
<polygon fill="#63b8ff" stroke="#63b8ff" points="666.34,-148.14 676.72,-146 667.27,-141.2 666.34,-148.14"/>
</a>
</g>
</g>
<!-- Node25 -->
<g id="Node000025" class="node">
<title>Node25</title>
<g id="a_Node000025"><a xlink:href="classSceneManager.html#a1c647e38474ee02d5dd8510bc2313c38" target="_top" xlink:title=" ">
<polygon fill="white" stroke="#666666" points="835,-128 662,-128 662,-109 835,-109 835,-128"/>
<text text-anchor="middle" x="748.5" y="-116" font-family="Helvetica,sans-Serif" font-size="10.00">SceneManager::removePickable</text>
</a>
</g>
</g>
<!-- Node23&#45;&gt;Node25 -->
<g id="edge26_Node000023_Node000025" class="edge">
<title>Node23&#45;&gt;Node25</title>
<g id="a_edge26_Node000023_Node000025"><a xlink:title=" ">
<path fill="none" stroke="#63b8ff" d="M611.01,-123.56C624.24,-123.07 638.08,-122.55 651.66,-122.05"/>
<polygon fill="#63b8ff" stroke="#63b8ff" points="652.12,-125.54 661.98,-121.67 651.86,-118.54 652.12,-125.54"/>
</a>
</g>
</g>
<!-- Node24&#45;&gt;Node17 -->
<g id="edge25_Node000024_Node000017" class="edge">
<title>Node24&#45;&gt;Node17</title>
<g id="a_edge25_Node000024_Node000017"><a xlink:title=" ">
<path fill="none" stroke="#63b8ff" d="M838.24,-164.3C846.73,-165.15 855.29,-166 863.65,-166.83"/>
<polygon fill="#63b8ff" stroke="#63b8ff" points="863.45,-170.32 873.74,-167.83 864.14,-163.36 863.45,-170.32"/>
</a>
</g>
</g>
<!-- Node29 -->
<g id="Node000029" class="node">
<title>Node29</title>
<g id="a_Node000029"><a xlink:href="classOpenGLWindow.html#ad664443240cdd277b10bacbf1608478b" target="_top" xlink:title=" ">
<polygon fill="white" stroke="#666666" points="611.5,-19 449.5,-19 449.5,0 611.5,0 611.5,-19"/>
<text text-anchor="middle" x="530.5" y="-7" font-family="Helvetica,sans-Serif" font-size="10.00">OpenGLWindow::setSimSpeed</text>
</a>
</g>
</g>
<!-- Node28&#45;&gt;Node29 -->
<g id="edge30_Node000028_Node000029" class="edge">
<title>Node28&#45;&gt;Node29</title>
<g id="a_edge30_Node000028_Node000029"><a xlink:title=" ">
<path fill="none" stroke="#63b8ff" d="M380.29,-19.99C399.23,-18.66 419.62,-17.23 439.06,-15.86"/>
<polygon fill="#63b8ff" stroke="#63b8ff" points="439.4,-19.35 449.13,-15.15 438.91,-12.36 439.4,-19.35"/>
</a>
</g>
</g>
</g>
</svg>

<g id="navigator" transform="translate(0 0)" fill="#404254">
  <rect fill="#f2f5e9" fill-opacity="0.5" stroke="#606060" stroke-width=".5" x="0" y="0" width="60" height="60"/>
  <use id="zoomplus" xlink:href="#zoomPlus" x="17" y="9" onmousedown="handleZoom(evt,'in')"/>
  <use id="zoomminus" xlink:href="#zoomMin" x="42" y="9" onmousedown="handleZoom(evt,'out')"/>
  <use id="reset" xlink:href="#resetDef" x="30" y="36" onmousedown="handleReset()"/>
   <use id="arrowup" xlink:href="#arrowUp" x="0" y="0" onmousedown="handlePan(0,-1)"/>
  <use id="arrowright" xlink:href="#arrowRight" x="0" y="0" onmousedown="handlePan(1,0)"/>
  <use id="arrowdown" xlink:href="#arrowDown" x="0" y="0" onmousedown="handlePan(0,1)"/>
  <use id="arrowleft" xlink:href="#arrowLeft" x="0" y="0" onmousedown="handlePan(-1,0)"/>
</g>
<svg viewBox="0 0 15 15" width="100%" height="30px" preserveAspectRatio="xMaxYMin meet">
 <g id="arrow_out" transform="scale(0.3 0.3)">
  <a xlink:href="classSceneSerializer_a490f2bd87e7c9459ee47be974653b433_cgraph_org.svg" target="_base">
   <rect id="button" ry="5" rx="5" y="6" x="6" height="38" width="38"
        fill="#f2f5e9" fill-opacity="0.5" stroke="#606060" stroke-width="1.0"/>
   <path id="arrow"
     d="M 11.500037,31.436501 C 11.940474,20.09759 22.043105,11.32322 32.158766,21.979434 L 37.068811,17.246167 C 37.068811,17.246167 37.088388,32 37.088388,32 L 22.160133,31.978069 C 22.160133,31.978069 26.997745,27.140456 26.997745,27.140456 C 18.528582,18.264221 13.291696,25.230495 11.500037,31.436501 z"
     style="fill:#404040;"/>
  </a>
 </g>
</svg>

<style type='text/css'>
<![CDATA[
[data-mouse-over-selected='false'] { opacity: 0.7; }
[data-mouse-over-selected='true']  { opacity: 1.0; }
]]>
</style>
<script type="application/ecmascript"><![CDATA[
document.addEventListener('DOMContentLoaded', (event) => {
  highlightEdges();
  highlightAdjacentNodes();
});
]]></script>
</svg>
