<?xml version="1.0" encoding="UTF-8" standalone="no"?>
<!DOCTYPE svg PUBLIC "-//W3C//DTD SVG 1.1//EN"
 "http://www.w3.org/Graphics/SVG/1.1/DTD/svg11.dtd">
<!-- Generated by graphviz version 2.43.0 (0)
 -->
<!-- Title: ResourceManager::getShader Pages: 1 -->
<svg width="935pt" height="224pt"
 viewBox="0.00 0.00 935.00 224.00" xmlns="http://www.w3.org/2000/svg" xmlns:xlink="http://www.w3.org/1999/xlink">
<g id="graph0" class="graph" transform="scale(1 1) rotate(0) translate(4 220)">
<title>ResourceManager::getShader</title>
<!-- Node1 -->
<g id="Node000001" class="node">
<title>Node1</title>
<g id="a_Node000001"><a xlink:title=" ">
<polygon fill="#999999" stroke="#666666" points="927,-111 767,-111 767,-92 927,-92 927,-111"/>
<text text-anchor="middle" x="847" y="-99" font-family="Helvetica,sans-Serif" font-size="10.00">ResourceManager::getShader</text>
</a>
</g>
</g>
<!-- Node2 -->
<g id="Node000002" class="node">
<title>Node2</title>
<g id="a_Node000002"><a xlink:href="classColliders.html#a4dedfd413ebcf7c07823b11d4f031ae3" target="_top" xlink:title=" ">
<polygon fill="white" stroke="#666666" points="703,-216 595,-216 595,-197 703,-197 703,-216"/>
<text text-anchor="middle" x="649" y="-204" font-family="Helvetica,sans-Serif" font-size="10.00">Colliders::Colliders</text>
</a>
</g>
</g>
<!-- Node1&#45;&gt;Node2 -->
<g id="edge1_Node000001_Node000002" class="edge">
<title>Node1&#45;&gt;Node2</title>
<g id="a_edge1_Node000001_Node000002"><a xlink:title=" ">
<path fill="none" stroke="#63b8ff" d="M828.6,-118.2C807.3,-137.73 769.3,-169.64 731,-187.5 722.36,-191.53 712.79,-194.74 703.35,-197.29"/>
<polygon fill="#63b8ff" stroke="#63b8ff" points="831.24,-120.53 836.17,-111.15 826.47,-115.41 831.24,-120.53"/>
</a>
</g>
</g>
<!-- Node3 -->
<g id="Node000003" class="node">
<title>Node3</title>
<g id="a_Node000003"><a xlink:href="namespaceScenePresets_1_1Astronomy.html#a0b0e571c83bcdb2d16710b9425375b5f" target="_top" xlink:title=" ">
<polygon fill="white" stroke="#666666" points="719.5,-178.5 578.5,-178.5 578.5,-148.5 719.5,-148.5 719.5,-178.5"/>
<text text-anchor="start" x="586.5" y="-166.5" font-family="Helvetica,sans-Serif" font-size="10.00">ScenePresets::Astronomy</text>
<text text-anchor="middle" x="649" y="-155.5" font-family="Helvetica,sans-Serif" font-size="10.00">::createRealSolarSystem</text>
</a>
</g>
</g>
<!-- Node1&#45;&gt;Node3 -->
<g id="edge2_Node000001_Node000003" class="edge">
<title>Node1&#45;&gt;Node3</title>
<g id="a_edge2_Node000001_Node000003"><a xlink:title=" ">
<path fill="none" stroke="#63b8ff" d="M808.24,-114.3C785.85,-121.82 756.87,-131.4 731,-139.5 721.62,-142.44 711.61,-145.48 701.93,-148.38"/>
<polygon fill="#63b8ff" stroke="#63b8ff" points="809.36,-117.62 817.72,-111.12 807.13,-110.99 809.36,-117.62"/>
</a>
</g>
</g>
<!-- Node4 -->
<g id="Node000004" class="node">
<title>Node4</title>
<g id="a_Node000004"><a xlink:href="classSceneManager.html#acfea563d3849e3c8c09fc3febe9ae1e2" target="_top" xlink:title=" ">
<polygon fill="white" stroke="#666666" points="727.5,-130 570.5,-130 570.5,-111 727.5,-111 727.5,-130"/>
<text text-anchor="middle" x="649" y="-118" font-family="Helvetica,sans-Serif" font-size="10.00">SceneManager::defaultSetup</text>
</a>
</g>
</g>
<!-- Node1&#45;&gt;Node4 -->
<g id="edge3_Node000001_Node000004" class="edge">
<title>Node1&#45;&gt;Node4</title>
<g id="a_edge3_Node000001_Node000004"><a xlink:title=" ">
<path fill="none" stroke="#63b8ff" d="M756.74,-110.15C747,-111.1 737.13,-112.05 727.54,-112.98"/>
<polygon fill="#63b8ff" stroke="#63b8ff" points="757.23,-113.62 766.84,-109.17 756.55,-106.65 757.23,-113.62"/>
</a>
</g>
</g>
<!-- Node5 -->
<g id="Node000005" class="node">
<title>Node5</title>
<g id="a_Node000005"><a xlink:href="classForces.html#a6a6b71b7bec4ce113d18dda8b49ecae9" target="_top" xlink:title=" ">
<polygon fill="white" stroke="#666666" points="692,-93 606,-93 606,-74 692,-74 692,-93"/>
<text text-anchor="middle" x="649" y="-81" font-family="Helvetica,sans-Serif" font-size="10.00">Forces::Forces</text>
</a>
</g>
</g>
<!-- Node1&#45;&gt;Node5 -->
<g id="edge4_Node000001_Node000005" class="edge">
<title>Node1&#45;&gt;Node5</title>
<g id="a_edge4_Node000001_Node000005"><a xlink:title=" ">
<path fill="none" stroke="#63b8ff" d="M756.87,-93.31C734.27,-91.24 711.04,-89.11 692.03,-87.36"/>
<polygon fill="#63b8ff" stroke="#63b8ff" points="756.57,-96.8 766.84,-94.23 757.21,-89.83 756.57,-96.8"/>
</a>
</g>
</g>
<!-- Node6 -->
<g id="Node000006" class="node">
<title>Node6</title>
<g id="a_Node000006"><a xlink:href="classSceneSerializer.html#a490f2bd87e7c9459ee47be974653b433" target="_top" xlink:title=" ">
<polygon fill="white" stroke="#666666" points="731,-56 567,-56 567,-37 731,-37 731,-56"/>
<text text-anchor="middle" x="649" y="-44" font-family="Helvetica,sans-Serif" font-size="10.00">SceneSerializer::loadFromJson</text>
</a>
</g>
</g>
<!-- Node1&#45;&gt;Node6 -->
<g id="edge5_Node000001_Node000006" class="edge">
<title>Node1&#45;&gt;Node6</title>
<g id="a_edge5_Node000001_Node000006"><a xlink:title=" ">
<path fill="none" stroke="#63b8ff" d="M807.6,-88.71C785.35,-81.49 756.72,-72.53 731,-65.5 718.88,-62.19 705.64,-58.93 693.45,-56.08"/>
<polygon fill="#63b8ff" stroke="#63b8ff" points="806.75,-92.11 817.34,-91.89 808.92,-85.46 806.75,-92.11"/>
</a>
</g>
</g>
<!-- Node10 -->
<g id="Node000010" class="node">
<title>Node10</title>
<g id="a_Node000010"><a xlink:href="classPathTraces.html#ab72826a85fe8abb427f57c54c2aefe66" target="_top" xlink:title=" ">
<polygon fill="white" stroke="#666666" points="712,-19 586,-19 586,0 712,0 712,-19"/>
<text text-anchor="middle" x="649" y="-7" font-family="Helvetica,sans-Serif" font-size="10.00">PathTraces::PathTraces</text>
</a>
</g>
</g>
<!-- Node1&#45;&gt;Node10 -->
<g id="edge9_Node000001_Node000010" class="edge">
<title>Node1&#45;&gt;Node10</title>
<g id="a_edge9_Node000001_Node000010"><a xlink:title=" ">
<path fill="none" stroke="#63b8ff" d="M825.76,-85.66C803.66,-69.1 766.64,-43.48 731,-28.5 721.95,-24.69 711.99,-21.57 702.24,-19.03"/>
<polygon fill="#63b8ff" stroke="#63b8ff" points="823.93,-88.66 834,-91.93 828.17,-83.09 823.93,-88.66"/>
</a>
</g>
</g>
<!-- Node7 -->
<g id="Node000007" class="node">
<title>Node7</title>
<g id="a_Node000007"><a xlink:href="classSceneManager.html#a7b7b0a022dcce523178e8414fb8e4463" target="_top" xlink:title=" ">
<polygon fill="white" stroke="#666666" points="531,-56 386,-56 386,-37 531,-37 531,-56"/>
<text text-anchor="middle" x="458.5" y="-44" font-family="Helvetica,sans-Serif" font-size="10.00">SceneManager::loadScene</text>
</a>
</g>
</g>
<!-- Node6&#45;&gt;Node7 -->
<g id="edge6_Node000006_Node000007" class="edge">
<title>Node6&#45;&gt;Node7</title>
<g id="a_edge6_Node000006_Node000007"><a xlink:title=" ">
<path fill="none" stroke="#63b8ff" d="M556.9,-46.5C548.29,-46.5 539.65,-46.5 531.26,-46.5"/>
<polygon fill="#63b8ff" stroke="#63b8ff" points="556.97,-50 566.97,-46.5 556.97,-43 556.97,-50"/>
</a>
</g>
</g>
<!-- Node8 -->
<g id="Node000008" class="node">
<title>Node8</title>
<g id="a_Node000008"><a xlink:href="classSceneManager.html#a59f13c06bf3f19d5e543502a0ddd0467" target="_top" xlink:title=" ">
<polygon fill="white" stroke="#666666" points="350,-56 172,-56 172,-37 350,-37 350,-56"/>
<text text-anchor="middle" x="261" y="-44" font-family="Helvetica,sans-Serif" font-size="10.00">SceneManager::processHeldKeys</text>
</a>
</g>
</g>
<!-- Node7&#45;&gt;Node8 -->
<g id="edge7_Node000007_Node000008" class="edge">
<title>Node7&#45;&gt;Node8</title>
<g id="a_edge7_Node000007_Node000008"><a xlink:title=" ">
<path fill="none" stroke="#63b8ff" d="M375.68,-46.5C367.3,-46.5 358.75,-46.5 350.3,-46.5"/>
<polygon fill="#63b8ff" stroke="#63b8ff" points="375.81,-50 385.81,-46.5 375.81,-43 375.81,-50"/>
</a>
</g>
</g>
<!-- Node9 -->
<g id="Node000009" class="node">
<title>Node9</title>
<g id="a_Node000009"><a xlink:href="classOpenGLWindow.html#aea9ee69010d8451ab00cd488a8c6717d" target="_top" xlink:title=" ">
<polygon fill="white" stroke="#666666" points="136,-56 0,-56 0,-37 136,-37 136,-56"/>
<text text-anchor="middle" x="68" y="-44" font-family="Helvetica,sans-Serif" font-size="10.00">OpenGLWindow::paintGL</text>
</a>
</g>
</g>
<!-- Node8&#45;&gt;Node9 -->
<g id="edge8_Node000008_Node000009" class="edge">
<title>Node8&#45;&gt;Node9</title>
<g id="a_edge8_Node000008_Node000009"><a xlink:title=" ">
<path fill="none" stroke="#63b8ff" d="M161.6,-46.5C152.94,-46.5 144.32,-46.5 136,-46.5"/>
<polygon fill="#63b8ff" stroke="#63b8ff" points="161.77,-50 171.77,-46.5 161.77,-43 161.77,-50"/>
</a>
</g>
</g>
</g>
</svg>
