<?xml version="1.0" encoding="UTF-8" standalone="no"?>
<!DOCTYPE svg PUBLIC "-//W3C//DTD SVG 1.1//EN"
 "http://www.w3.org/Graphics/SVG/1.1/DTD/svg11.dtd">
<!-- Generated by graphviz version 2.43.0 (0)
 -->
<!-- Title: SceneManager::resetScene Pages: 1 -->
<svg width="1208pt" height="506pt"
 viewBox="0.00 0.00 1208.00 505.50" xmlns="http://www.w3.org/2000/svg" xmlns:xlink="http://www.w3.org/1999/xlink">
<g id="graph0" class="graph" transform="scale(1 1) rotate(0) translate(4 501.5)">
<title>SceneManager::resetScene</title>
<!-- Node1 -->
<g id="Node000001" class="node">
<title>Node1</title>
<g id="a_Node000001"><a xlink:title=" ">
<polygon fill="#999999" stroke="#666666" points="149,-194.5 0,-194.5 0,-175.5 149,-175.5 149,-194.5"/>
<text text-anchor="middle" x="74.5" y="-182.5" font-family="Helvetica,sans-Serif" font-size="10.00">SceneManager::resetScene</text>
</a>
</g>
</g>
<!-- Node2 -->
<g id="Node000002" class="node">
<title>Node2</title>
<g id="a_Node000002"><a xlink:href="classSceneManager.html#a53736fa499987ffff612d3ee7c85442c" target="_top" xlink:title=" ">
<polygon fill="white" stroke="#666666" points="373.5,-337.5 198.5,-337.5 198.5,-318.5 373.5,-318.5 373.5,-337.5"/>
<text text-anchor="middle" x="286" y="-325.5" font-family="Helvetica,sans-Serif" font-size="10.00">SceneManager::deleteAllObjects</text>
</a>
</g>
</g>
<!-- Node1&#45;&gt;Node2 -->
<g id="edge1_Node000001_Node000002" class="edge">
<title>Node1&#45;&gt;Node2</title>
<g id="a_edge1_Node000001_Node000002"><a xlink:title=" ">
<path fill="none" stroke="#63b8ff" d="M81.53,-194.82C96.2,-217.79 136.1,-275.27 185,-304 192.91,-308.65 201.68,-312.4 210.64,-315.42"/>
<polygon fill="#63b8ff" stroke="#63b8ff" points="209.82,-318.83 220.41,-318.43 211.88,-312.14 209.82,-318.83"/>
</a>
</g>
</g>
<!-- Node6 -->
<g id="Node000006" class="node">
<title>Node6</title>
<g id="a_Node000006"><a xlink:href="classScene.html#a8ec1e638529f69f716e791ba3ac4d2f7" target="_top" xlink:title=" ">
<polygon fill="white" stroke="#666666" points="991.5,-497.5 885.5,-497.5 885.5,-478.5 991.5,-478.5 991.5,-497.5"/>
<text text-anchor="middle" x="938.5" y="-485.5" font-family="Helvetica,sans-Serif" font-size="10.00">Scene::getCamera</text>
</a>
</g>
</g>
<!-- Node1&#45;&gt;Node6 -->
<g id="edge17_Node000001_Node000006" class="edge">
<title>Node1&#45;&gt;Node6</title>
<g id="a_edge17_Node000001_Node000006"><a xlink:title=" ">
<path fill="none" stroke="#63b8ff" d="M79.3,-194.68C90.79,-222.66 127.88,-304.35 185,-347 397.74,-505.85 736.64,-502.65 875.29,-493.58"/>
<polygon fill="#63b8ff" stroke="#63b8ff" points="875.58,-497.06 885.32,-492.89 875.1,-490.08 875.58,-497.06"/>
</a>
</g>
</g>
<!-- Node16 -->
<g id="Node000016" class="node">
<title>Node16</title>
<g id="a_Node000016"><a xlink:href="classOpenGLWindow.html#a4fefe361052fe6919478923cd07b31a8" target="_top" xlink:title=" ">
<polygon fill="white" stroke="#666666" points="365,-262 207,-262 207,-232 365,-232 365,-262"/>
<text text-anchor="start" x="215" y="-250" font-family="Helvetica,sans-Serif" font-size="10.00">OpenGLWindow::resetRender</text>
<text text-anchor="middle" x="286" y="-239" font-family="Helvetica,sans-Serif" font-size="10.00">Clock</text>
</a>
</g>
</g>
<!-- Node1&#45;&gt;Node16 -->
<g id="edge18_Node000001_Node000016" class="edge">
<title>Node1&#45;&gt;Node16</title>
<g id="a_edge18_Node000001_Node000016"><a xlink:title=" ">
<path fill="none" stroke="#63b8ff" d="M100.93,-194.63C122.98,-202.78 155.84,-214.46 185,-223 192.61,-225.23 200.6,-227.41 208.59,-229.48"/>
<polygon fill="#63b8ff" stroke="#63b8ff" points="207.77,-232.89 218.33,-231.97 209.5,-226.1 207.77,-232.89"/>
</a>
</g>
</g>
<!-- Node17 -->
<g id="Node000017" class="node">
<title>Node17</title>
<g id="a_Node000017"><a xlink:href="classCamera.html#a91d49a4fc2bbae5fb02ff3f3d52ac883" target="_top" xlink:title=" ">
<polygon fill="white" stroke="#666666" points="341,-213.5 231,-213.5 231,-194.5 341,-194.5 341,-213.5"/>
<text text-anchor="middle" x="286" y="-201.5" font-family="Helvetica,sans-Serif" font-size="10.00">Camera::resetView</text>
</a>
</g>
</g>
<!-- Node1&#45;&gt;Node17 -->
<g id="edge19_Node000001_Node000017" class="edge">
<title>Node1&#45;&gt;Node17</title>
<g id="a_edge19_Node000001_Node000017"><a xlink:title=" ">
<path fill="none" stroke="#63b8ff" d="M149.07,-191.67C172.38,-193.79 197.96,-196.11 220.57,-198.16"/>
<polygon fill="#63b8ff" stroke="#63b8ff" points="220.46,-201.66 230.74,-199.08 221.1,-194.69 220.46,-201.66"/>
</a>
</g>
</g>
<!-- Node20 -->
<g id="Node000020" class="node">
<title>Node20</title>
<g id="a_Node000020"><a xlink:href="classSceneManager.html#a8dafcb538b1cfbf727b82644ad5815ad" target="_top" xlink:title=" ">
<polygon fill="white" stroke="#666666" points="387,-176.5 185,-176.5 185,-157.5 387,-157.5 387,-176.5"/>
<text text-anchor="middle" x="286" y="-164.5" font-family="Helvetica,sans-Serif" font-size="10.00">SceneManager::setGlobalAcceleration</text>
</a>
</g>
</g>
<!-- Node1&#45;&gt;Node20 -->
<g id="edge22_Node000001_Node000020" class="edge">
<title>Node1&#45;&gt;Node20</title>
<g id="a_edge22_Node000001_Node000020"><a xlink:title=" ">
<path fill="none" stroke="#63b8ff" d="M149.07,-178.68C157.37,-177.97 165.96,-177.23 174.61,-176.48"/>
<polygon fill="#63b8ff" stroke="#63b8ff" points="175.1,-179.96 184.76,-175.61 174.5,-172.98 175.1,-179.96"/>
</a>
</g>
</g>
<!-- Node21 -->
<g id="Node000021" class="node">
<title>Node21</title>
<g id="a_Node000021"><a xlink:href="classSceneObject.html#ac01ac7731712baaeb3173a2a7e3f151a" target="_top" xlink:title=" ">
<polygon fill="white" stroke="#666666" points="372.5,-139.5 199.5,-139.5 199.5,-120.5 372.5,-120.5 372.5,-139.5"/>
<text text-anchor="middle" x="286" y="-127.5" font-family="Helvetica,sans-Serif" font-size="10.00">SceneObject::setPhysicsPosMap</text>
</a>
</g>
</g>
<!-- Node1&#45;&gt;Node21 -->
<g id="edge23_Node000001_Node000021" class="edge">
<title>Node1&#45;&gt;Node21</title>
<g id="a_edge23_Node000001_Node000021"><a xlink:title=" ">
<path fill="none" stroke="#63b8ff" d="M101.32,-175.45C123.34,-167.57 155.94,-156.5 185,-149 195.55,-146.28 206.81,-143.76 217.84,-141.52"/>
<polygon fill="#63b8ff" stroke="#63b8ff" points="218.74,-144.91 227.87,-139.53 217.38,-138.04 218.74,-144.91"/>
</a>
</g>
</g>
<!-- Node22 -->
<g id="Node000022" class="node">
<title>Node22</title>
<g id="a_Node000022"><a xlink:href="classSceneObject.html#acabdda3760407bdba426ac3d4488159f" target="_top" xlink:title=" ">
<polygon fill="white" stroke="#666666" points="367,-102.5 205,-102.5 205,-83.5 367,-83.5 367,-102.5"/>
<text text-anchor="middle" x="286" y="-90.5" font-family="Helvetica,sans-Serif" font-size="10.00">SceneObject::setRenderOrigin</text>
</a>
</g>
</g>
<!-- Node1&#45;&gt;Node22 -->
<g id="edge24_Node000001_Node000022" class="edge">
<title>Node1&#45;&gt;Node22</title>
<g id="a_edge24_Node000001_Node000022"><a xlink:title=" ">
<path fill="none" stroke="#63b8ff" d="M86.46,-175.47C105.25,-159.66 145.45,-128.16 185,-112 191.37,-109.4 198.13,-107.14 204.99,-105.2"/>
<polygon fill="#63b8ff" stroke="#63b8ff" points="206.31,-108.47 215.1,-102.56 204.54,-101.7 206.31,-108.47"/>
</a>
</g>
</g>
<!-- Node23 -->
<g id="Node000023" class="node">
<title>Node23</title>
<g id="a_Node000023"><a xlink:href="classSceneManager.html#af40d0ff3e76f89bbf5504f1694814179" target="_top" xlink:title=" ">
<polygon fill="white" stroke="#666666" points="588,-259.5 433,-259.5 433,-240.5 588,-240.5 588,-259.5"/>
<text text-anchor="middle" x="510.5" y="-247.5" font-family="Helvetica,sans-Serif" font-size="10.00">SceneManager::setSelectFor</text>
</a>
</g>
</g>
<!-- Node1&#45;&gt;Node23 -->
<g id="edge25_Node000001_Node000023" class="edge">
<title>Node1&#45;&gt;Node23</title>
<g id="a_edge25_Node000001_Node000023"><a xlink:title=" ">
<path fill="none" stroke="#63b8ff" d="M83.6,-194.7C100.24,-213.76 140.45,-255.6 185,-271 282.8,-304.81 406.91,-279.44 469.51,-262.3"/>
<polygon fill="#63b8ff" stroke="#63b8ff" points="470.7,-265.6 479.38,-259.53 468.81,-258.86 470.7,-265.6"/>
</a>
</g>
</g>
<!-- Node25 -->
<g id="Node000025" class="node">
<title>Node25</title>
<g id="a_Node000025"><a xlink:href="classSceneManager.html#a64f4064d9201d062a24f750763c1f703" target="_top" xlink:title=" ">
<polygon fill="white" stroke="#666666" points="365,-65.5 207,-65.5 207,-46.5 365,-46.5 365,-65.5"/>
<text text-anchor="middle" x="286" y="-53.5" font-family="Helvetica,sans-Serif" font-size="10.00">SceneManager::setSimSpeed</text>
</a>
</g>
</g>
<!-- Node1&#45;&gt;Node25 -->
<g id="edge29_Node000001_Node000025" class="edge">
<title>Node1&#45;&gt;Node25</title>
<g id="a_edge29_Node000001_Node000025"><a xlink:title=" ">
<path fill="none" stroke="#63b8ff" d="M81.87,-175.46C96.94,-153.72 137.15,-100.38 185,-75 189.47,-72.63 194.19,-70.55 199.05,-68.73"/>
<polygon fill="#63b8ff" stroke="#63b8ff" points="200.19,-72.04 208.55,-65.53 197.95,-65.41 200.19,-72.04"/>
</a>
</g>
</g>
<!-- Node27 -->
<g id="Node000027" class="node">
<title>Node27</title>
<g id="a_Node000027"><a xlink:href="classSceneManager.html#a22428540d6ea2d04bd9f9b720e9346dd" target="_top" xlink:title=" ">
<polygon fill="white" stroke="#666666" points="370,-27.5 202,-27.5 202,-8.5 370,-8.5 370,-27.5"/>
<text text-anchor="middle" x="286" y="-15.5" font-family="Helvetica,sans-Serif" font-size="10.00">SceneManager::stopSimulation</text>
</a>
</g>
</g>
<!-- Node1&#45;&gt;Node27 -->
<g id="edge31_Node000001_Node000027" class="edge">
<title>Node1&#45;&gt;Node27</title>
<g id="a_edge31_Node000001_Node000027"><a xlink:title=" ">
<path fill="none" stroke="#63b8ff" d="M79.5,-175.46C91.24,-148.69 128.43,-72.53 185,-37 188.36,-34.89 191.89,-33.01 195.55,-31.33"/>
<polygon fill="#63b8ff" stroke="#63b8ff" points="196.91,-34.55 204.86,-27.54 194.27,-28.06 196.91,-34.55"/>
</a>
</g>
</g>
<!-- Node3 -->
<g id="Node000003" class="node">
<title>Node3</title>
<g id="a_Node000003"><a xlink:href="classSceneManager.html#a4543114007c5bb40ddab62cd9f2ac613" target="_top" xlink:title=" ">
<polygon fill="white" stroke="#666666" points="589,-337.5 432,-337.5 432,-318.5 589,-318.5 589,-337.5"/>
<text text-anchor="middle" x="510.5" y="-325.5" font-family="Helvetica,sans-Serif" font-size="10.00">SceneManager::deleteObject</text>
</a>
</g>
</g>
<!-- Node2&#45;&gt;Node3 -->
<g id="edge2_Node000002_Node000003" class="edge">
<title>Node2&#45;&gt;Node3</title>
<g id="a_edge2_Node000002_Node000003"><a xlink:title=" ">
<path fill="none" stroke="#63b8ff" d="M373.66,-328C389.38,-328 405.78,-328 421.53,-328"/>
<polygon fill="#63b8ff" stroke="#63b8ff" points="421.78,-331.5 431.78,-328 421.78,-324.5 421.78,-331.5"/>
</a>
</g>
</g>
<!-- Node4 -->
<g id="Node000004" class="node">
<title>Node4</title>
<g id="a_Node000004"><a xlink:href="classSceneManager.html#ad143244bc503acbe2371b662ea0dcd0c" target="_top" xlink:title=" ">
<polygon fill="white" stroke="#666666" points="802,-405 645,-405 645,-375 802,-375 802,-405"/>
<text text-anchor="start" x="653" y="-393" font-family="Helvetica,sans-Serif" font-size="10.00">SceneManager::clearCamera</text>
<text text-anchor="middle" x="723.5" y="-382" font-family="Helvetica,sans-Serif" font-size="10.00">Target</text>
</a>
</g>
</g>
<!-- Node3&#45;&gt;Node4 -->
<g id="edge3_Node000003_Node000004" class="edge">
<title>Node3&#45;&gt;Node4</title>
<g id="a_edge3_Node000003_Node000004"><a xlink:title=" ">
<path fill="none" stroke="#63b8ff" d="M541.11,-337.51C565.87,-345.39 602.14,-356.74 634,-366 641.12,-368.07 648.58,-370.18 656.02,-372.25"/>
<polygon fill="#63b8ff" stroke="#63b8ff" points="655.19,-375.65 665.76,-374.94 657.05,-368.9 655.19,-375.65"/>
</a>
</g>
</g>
<!-- Node7 -->
<g id="Node000007" class="node">
<title>Node7</title>
<g id="a_Node000007"><a xlink:href="classSceneManager.html#a99992b526976863d1dab7dc88cc6ec2a" target="_top" xlink:title=" ">
<polygon fill="white" stroke="#666666" points="804,-243 643,-243 643,-213 804,-213 804,-243"/>
<text text-anchor="start" x="651" y="-231" font-family="Helvetica,sans-Serif" font-size="10.00">SceneManager::deleteCurrent</text>
<text text-anchor="middle" x="723.5" y="-220" font-family="Helvetica,sans-Serif" font-size="10.00">Gizmo</text>
</a>
</g>
</g>
<!-- Node3&#45;&gt;Node7 -->
<g id="edge6_Node000003_Node000007" class="edge">
<title>Node3&#45;&gt;Node7</title>
<g id="a_edge6_Node000003_Node000007"><a xlink:title=" ">
<path fill="none" stroke="#63b8ff" d="M524.44,-318.41C546.09,-302.76 591.51,-271.59 634,-253 639.44,-250.62 645.16,-248.41 650.97,-246.36"/>
<polygon fill="#63b8ff" stroke="#63b8ff" points="652.42,-249.56 660.8,-243.07 650.2,-242.93 652.42,-249.56"/>
</a>
</g>
</g>
<!-- Node9 -->
<g id="Node000009" class="node">
<title>Node9</title>
<g id="a_Node000009"><a xlink:href="classScene.html#a398bf0981ca0b3f5ade648b1d95513cc" target="_top" xlink:title=" ">
<polygon fill="white" stroke="#666666" points="1200,-296.5 1064,-296.5 1064,-277.5 1200,-277.5 1200,-296.5"/>
<text text-anchor="middle" x="1132" y="-284.5" font-family="Helvetica,sans-Serif" font-size="10.00">Scene::removeDrawable</text>
</a>
</g>
</g>
<!-- Node3&#45;&gt;Node9 -->
<g id="edge16_Node000003_Node000009" class="edge">
<title>Node3&#45;&gt;Node9</title>
<g id="a_edge16_Node000003_Node000009"><a xlink:title=" ">
<path fill="none" stroke="#63b8ff" d="M589.02,-322.87C708.11,-314.99 934.74,-299.99 1053.7,-292.12"/>
<polygon fill="#63b8ff" stroke="#63b8ff" points="1054.07,-295.6 1063.82,-291.45 1053.61,-288.61 1054.07,-295.6"/>
</a>
</g>
</g>
<!-- Node11 -->
<g id="Node000011" class="node">
<title>Node11</title>
<g id="a_Node000011"><a xlink:href="classSceneManager.html#a30fc32723c50bf9707a44ac398e5ecb9" target="_top" xlink:title=" ">
<polygon fill="white" stroke="#666666" points="813,-479.5 634,-479.5 634,-460.5 813,-460.5 813,-479.5"/>
<text text-anchor="middle" x="723.5" y="-467.5" font-family="Helvetica,sans-Serif" font-size="10.00">SceneManager::getCameraTarget</text>
</a>
</g>
</g>
<!-- Node3&#45;&gt;Node11 -->
<g id="edge10_Node000003_Node000011" class="edge">
<title>Node3&#45;&gt;Node11</title>
<g id="a_edge10_Node000003_Node000011"><a xlink:title=" ">
<path fill="none" stroke="#63b8ff" d="M517.89,-337.63C534.16,-361.32 579.71,-422.62 634,-452 637.47,-453.88 641.11,-455.56 644.86,-457.07"/>
<polygon fill="#63b8ff" stroke="#63b8ff" points="643.76,-460.39 654.35,-460.46 646.11,-453.8 643.76,-460.39"/>
</a>
</g>
</g>
<!-- Node13 -->
<g id="Node000013" class="node">
<title>Node13</title>
<g id="a_Node000013"><a xlink:href="classSceneObject.html#abebc043e3253d66da477f862a950775d" target="_top" xlink:title=" ">
<polygon fill="white" stroke="#666666" points="787.5,-356.5 659.5,-356.5 659.5,-337.5 787.5,-337.5 787.5,-356.5"/>
<text text-anchor="middle" x="723.5" y="-344.5" font-family="Helvetica,sans-Serif" font-size="10.00">SceneObject::getName</text>
</a>
</g>
</g>
<!-- Node3&#45;&gt;Node13 -->
<g id="edge13_Node000003_Node000013" class="edge">
<title>Node3&#45;&gt;Node13</title>
<g id="a_edge13_Node000003_Node000013"><a xlink:title=" ">
<path fill="none" stroke="#63b8ff" d="M589.17,-334.99C608.88,-336.77 629.99,-338.67 649.46,-340.42"/>
<polygon fill="#63b8ff" stroke="#63b8ff" points="649.21,-343.91 659.48,-341.33 649.84,-336.94 649.21,-343.91"/>
</a>
</g>
</g>
<!-- Node14 -->
<g id="Node000014" class="node">
<title>Node14</title>
<g id="a_Node000014"><a xlink:href="classSceneObject.html#ad77f12eb793b32da2ef40f0042cb1de8" target="_top" xlink:title="Gets the unique identifier for this object.">
<polygon fill="white" stroke="#666666" points="794,-280.5 653,-280.5 653,-261.5 794,-261.5 794,-280.5"/>
<text text-anchor="middle" x="723.5" y="-268.5" font-family="Helvetica,sans-Serif" font-size="10.00">SceneObject::getObjectID</text>
</a>
</g>
</g>
<!-- Node3&#45;&gt;Node14 -->
<g id="edge14_Node000003_Node000014" class="edge">
<title>Node3&#45;&gt;Node14</title>
<g id="a_edge14_Node000003_Node000014"><a xlink:title=" ">
<path fill="none" stroke="#63b8ff" d="M546.82,-318.46C582.57,-308.8 638.01,-293.82 677.03,-283.28"/>
<polygon fill="#63b8ff" stroke="#63b8ff" points="678.33,-286.56 687.07,-280.57 676.5,-279.8 678.33,-286.56"/>
</a>
</g>
</g>
<!-- Node15 -->
<g id="Node000015" class="node">
<title>Node15</title>
<g id="a_Node000015"><a xlink:href="classSceneManager.html#a1ecbf10d22d2ff153407cd139bf89632" target="_top" xlink:title=" ">
<polygon fill="white" stroke="#666666" points="809,-442.5 638,-442.5 638,-423.5 809,-423.5 809,-442.5"/>
<text text-anchor="middle" x="723.5" y="-430.5" font-family="Helvetica,sans-Serif" font-size="10.00">SceneManager::objectRemoved</text>
</a>
</g>
</g>
<!-- Node3&#45;&gt;Node15 -->
<g id="edge15_Node000003_Node000015" class="edge">
<title>Node3&#45;&gt;Node15</title>
<g id="a_edge15_Node000003_Node000015"><a xlink:title=" ">
<path fill="none" stroke="#63b8ff" d="M522.07,-337.69C542.23,-355.64 588.28,-394.03 634,-414 639.76,-416.52 645.89,-418.71 652.12,-420.62"/>
<polygon fill="#63b8ff" stroke="#63b8ff" points="651.4,-424.06 661.97,-423.4 653.3,-417.32 651.4,-424.06"/>
</a>
</g>
</g>
<!-- Node5 -->
<g id="Node000005" class="node">
<title>Node5</title>
<g id="a_Node000005"><a xlink:href="classCamera.html#a2c2eb9907441db681f3fbd34694d415e" target="_top" xlink:title=" ">
<polygon fill="white" stroke="#666666" points="996,-399.5 881,-399.5 881,-380.5 996,-380.5 996,-399.5"/>
<text text-anchor="middle" x="938.5" y="-387.5" font-family="Helvetica,sans-Serif" font-size="10.00">Camera::clearTarget</text>
</a>
</g>
</g>
<!-- Node4&#45;&gt;Node5 -->
<g id="edge4_Node000004_Node000005" class="edge">
<title>Node4&#45;&gt;Node5</title>
<g id="a_edge4_Node000004_Node000005"><a xlink:title=" ">
<path fill="none" stroke="#63b8ff" d="M802,-390C824.49,-390 848.84,-390 870.62,-390"/>
<polygon fill="#63b8ff" stroke="#63b8ff" points="870.76,-393.5 880.76,-390 870.76,-386.5 870.76,-393.5"/>
</a>
</g>
</g>
<!-- Node4&#45;&gt;Node6 -->
<g id="edge5_Node000004_Node000006" class="edge">
<title>Node4&#45;&gt;Node6</title>
<g id="a_edge5_Node000004_Node000006"><a xlink:title=" ">
<path fill="none" stroke="#63b8ff" d="M795.75,-405.08C801.87,-407.85 807.72,-411.13 813,-415 836.55,-432.29 824.82,-453.6 849,-470 856.9,-475.36 866.04,-479.18 875.39,-481.9"/>
<polygon fill="#63b8ff" stroke="#63b8ff" points="874.62,-485.32 885.17,-484.36 876.32,-478.53 874.62,-485.32"/>
</a>
</g>
</g>
<!-- Node8 -->
<g id="Node000008" class="node">
<title>Node8</title>
<g id="a_Node000008"><a xlink:href="classSceneManager.html#ab7c34393bb10361069b0ea73ec2797f8" target="_top" xlink:title=" ">
<polygon fill="white" stroke="#666666" points="1028,-277.5 849,-277.5 849,-258.5 1028,-258.5 1028,-277.5"/>
<text text-anchor="middle" x="938.5" y="-265.5" font-family="Helvetica,sans-Serif" font-size="10.00">SceneManager::removeDrawable</text>
</a>
</g>
</g>
<!-- Node7&#45;&gt;Node8 -->
<g id="edge7_Node000007_Node000008" class="edge">
<title>Node7&#45;&gt;Node8</title>
<g id="a_edge7_Node000007_Node000008"><a xlink:title=" ">
<path fill="none" stroke="#63b8ff" d="M804.12,-242.95C828.09,-247.45 854.02,-252.32 876.58,-256.56"/>
<polygon fill="#63b8ff" stroke="#63b8ff" points="876.21,-260.05 886.69,-258.46 877.51,-253.17 876.21,-260.05"/>
</a>
</g>
</g>
<!-- Node10 -->
<g id="Node000010" class="node">
<title>Node10</title>
<g id="a_Node000010"><a xlink:href="classSceneManager.html#a1c647e38474ee02d5dd8510bc2313c38" target="_top" xlink:title=" ">
<polygon fill="white" stroke="#666666" points="1025,-237.5 852,-237.5 852,-218.5 1025,-218.5 1025,-237.5"/>
<text text-anchor="middle" x="938.5" y="-225.5" font-family="Helvetica,sans-Serif" font-size="10.00">SceneManager::removePickable</text>
</a>
</g>
</g>
<!-- Node7&#45;&gt;Node10 -->
<g id="edge9_Node000007_Node000010" class="edge">
<title>Node7&#45;&gt;Node10</title>
<g id="a_edge9_Node000007_Node000010"><a xlink:title=" ">
<path fill="none" stroke="#63b8ff" d="M804.12,-228C816.42,-228 829.24,-228 841.86,-228"/>
<polygon fill="#63b8ff" stroke="#63b8ff" points="841.92,-231.5 851.92,-228 841.92,-224.5 841.92,-231.5"/>
</a>
</g>
</g>
<!-- Node8&#45;&gt;Node9 -->
<g id="edge8_Node000008_Node000009" class="edge">
<title>Node8&#45;&gt;Node9</title>
<g id="a_edge8_Node000008_Node000009"><a xlink:title=" ">
<path fill="none" stroke="#63b8ff" d="M1028.24,-276.8C1036.73,-277.65 1045.29,-278.5 1053.65,-279.33"/>
<polygon fill="#63b8ff" stroke="#63b8ff" points="1053.45,-282.82 1063.74,-280.33 1054.14,-275.86 1053.45,-282.82"/>
</a>
</g>
</g>
<!-- Node11&#45;&gt;Node6 -->
<g id="edge11_Node000011_Node000006" class="edge">
<title>Node11&#45;&gt;Node6</title>
<g id="a_edge11_Node000011_Node000006"><a xlink:title=" ">
<path fill="none" stroke="#63b8ff" d="M813.29,-477.5C834.09,-479.26 855.82,-481.1 875.19,-482.73"/>
<polygon fill="#63b8ff" stroke="#63b8ff" points="875.12,-486.24 885.38,-483.6 875.71,-479.27 875.12,-486.24"/>
</a>
</g>
</g>
<!-- Node12 -->
<g id="Node000012" class="node">
<title>Node12</title>
<g id="a_Node000012"><a xlink:href="classCamera.html#a962f895654dc24f21502b5141368c4d3" target="_top" xlink:title=" ">
<polygon fill="white" stroke="#666666" points="992,-460.5 885,-460.5 885,-441.5 992,-441.5 992,-460.5"/>
<text text-anchor="middle" x="938.5" y="-448.5" font-family="Helvetica,sans-Serif" font-size="10.00">Camera::getTarget</text>
</a>
</g>
</g>
<!-- Node11&#45;&gt;Node12 -->
<g id="edge12_Node000011_Node000012" class="edge">
<title>Node11&#45;&gt;Node12</title>
<g id="a_edge12_Node000011_Node000012"><a xlink:title=" ">
<path fill="none" stroke="#63b8ff" d="M813.29,-462.08C833.9,-460.24 855.42,-458.32 874.64,-456.61"/>
<polygon fill="#63b8ff" stroke="#63b8ff" points="875.12,-460.08 884.77,-455.7 874.5,-453.11 875.12,-460.08"/>
</a>
</g>
</g>
<!-- Node18 -->
<g id="Node000018" class="node">
<title>Node18</title>
<g id="a_Node000018"><a xlink:href="classCamera.html#a275ffd6ebff6f8cabc93d3ed55ff38a2" target="_top" xlink:title=" ">
<polygon fill="white" stroke="#666666" points="560.5,-195.5 460.5,-195.5 460.5,-176.5 560.5,-176.5 560.5,-195.5"/>
<text text-anchor="middle" x="510.5" y="-183.5" font-family="Helvetica,sans-Serif" font-size="10.00">Camera::setView</text>
</a>
</g>
</g>
<!-- Node17&#45;&gt;Node18 -->
<g id="edge20_Node000017_Node000018" class="edge">
<title>Node17&#45;&gt;Node18</title>
<g id="a_edge20_Node000017_Node000018"><a xlink:title=" ">
<path fill="none" stroke="#63b8ff" d="M341.15,-199.62C374.14,-196.95 416.32,-193.54 450.21,-190.8"/>
<polygon fill="#63b8ff" stroke="#63b8ff" points="450.75,-194.26 460.44,-189.97 450.19,-187.29 450.75,-194.26"/>
</a>
</g>
</g>
<!-- Node19 -->
<g id="Node000019" class="node">
<title>Node19</title>
<g id="a_Node000019"><a xlink:href="classCamera.html#af99955c976c3bbeec08714d7724bab89" target="_top" xlink:title=" ">
<polygon fill="white" stroke="#666666" points="782.5,-157.5 664.5,-157.5 664.5,-138.5 782.5,-138.5 782.5,-157.5"/>
<text text-anchor="middle" x="723.5" y="-145.5" font-family="Helvetica,sans-Serif" font-size="10.00">Camera::resetMouse</text>
</a>
</g>
</g>
<!-- Node18&#45;&gt;Node19 -->
<g id="edge21_Node000018_Node000019" class="edge">
<title>Node18&#45;&gt;Node19</title>
<g id="a_edge21_Node000018_Node000019"><a xlink:title=" ">
<path fill="none" stroke="#63b8ff" d="M560.7,-177.14C590.15,-171.84 627.88,-165.04 659.49,-159.35"/>
<polygon fill="#63b8ff" stroke="#63b8ff" points="660.3,-162.76 669.52,-157.54 659.06,-155.87 660.3,-162.76"/>
</a>
</g>
</g>
<!-- Node23&#45;&gt;Node7 -->
<g id="edge26_Node000023_Node000007" class="edge">
<title>Node23&#45;&gt;Node7</title>
<g id="a_edge26_Node000023_Node000007"><a xlink:title=" ">
<path fill="none" stroke="#63b8ff" d="M588.27,-242C602.73,-240.49 617.96,-238.9 632.78,-237.36"/>
<polygon fill="#63b8ff" stroke="#63b8ff" points="633.36,-240.81 642.95,-236.29 632.64,-233.85 633.36,-240.81"/>
</a>
</g>
</g>
<!-- Node23&#45;&gt;Node14 -->
<g id="edge27_Node000023_Node000014" class="edge">
<title>Node23&#45;&gt;Node14</title>
<g id="a_edge27_Node000023_Node000014"><a xlink:title=" ">
<path fill="none" stroke="#63b8ff" d="M588.27,-257.64C605.9,-259.4 624.69,-261.27 642.46,-263.03"/>
<polygon fill="#63b8ff" stroke="#63b8ff" points="642.49,-266.55 652.79,-264.06 643.18,-259.59 642.49,-266.55"/>
</a>
</g>
</g>
<!-- Node24 -->
<g id="Node000024" class="node">
<title>Node24</title>
<g id="a_Node000024"><a xlink:href="classSceneManager.html#a25bec2896954b4f0c3bed8ef736993d3" target="_top" xlink:title=" ">
<polygon fill="white" stroke="#666666" points="802.5,-194.5 644.5,-194.5 644.5,-175.5 802.5,-175.5 802.5,-194.5"/>
<text text-anchor="middle" x="723.5" y="-182.5" font-family="Helvetica,sans-Serif" font-size="10.00">SceneManager::selectedItem</text>
</a>
</g>
</g>
<!-- Node23&#45;&gt;Node24 -->
<g id="edge28_Node000023_Node000024" class="edge">
<title>Node23&#45;&gt;Node24</title>
<g id="a_edge28_Node000023_Node000024"><a xlink:title=" ">
<path fill="none" stroke="#63b8ff" d="M534.19,-240.33C558.52,-230.22 598.47,-214.42 634,-204 642.86,-201.4 652.31,-198.99 661.62,-196.83"/>
<polygon fill="#63b8ff" stroke="#63b8ff" points="662.64,-200.19 671.63,-194.58 661.11,-193.36 662.64,-200.19"/>
</a>
</g>
</g>
<!-- Node26 -->
<g id="Node000026" class="node">
<title>Node26</title>
<g id="a_Node000026"><a xlink:href="classOpenGLWindow.html#ad664443240cdd277b10bacbf1608478b" target="_top" xlink:title=" ">
<polygon fill="white" stroke="#666666" points="591.5,-67.5 429.5,-67.5 429.5,-48.5 591.5,-48.5 591.5,-67.5"/>
<text text-anchor="middle" x="510.5" y="-55.5" font-family="Helvetica,sans-Serif" font-size="10.00">OpenGLWindow::setSimSpeed</text>
</a>
</g>
</g>
<!-- Node25&#45;&gt;Node26 -->
<g id="edge30_Node000025_Node000026" class="edge">
<title>Node25&#45;&gt;Node26</title>
<g id="a_edge30_Node000025_Node000026"><a xlink:title=" ">
<path fill="none" stroke="#63b8ff" d="M365.13,-56.7C382.59,-56.86 401.24,-57.03 419.15,-57.19"/>
<polygon fill="#63b8ff" stroke="#63b8ff" points="419.27,-60.69 429.3,-57.28 419.33,-53.69 419.27,-60.69"/>
</a>
</g>
</g>
<!-- Node28 -->
<g id="Node000028" class="node">
<title>Node28</title>
<g id="a_Node000028"><a xlink:href="classOpenGLWindow.html#a4d24be49081a2f432fcd016ee9bf1f0f" target="_top" xlink:title=" ">
<polygon fill="white" stroke="#666666" points="598,-30 423,-30 423,0 598,0 598,-30"/>
<text text-anchor="start" x="431" y="-18" font-family="Helvetica,sans-Serif" font-size="10.00">OpenGLWindow::setRenderClock</text>
<text text-anchor="middle" x="510.5" y="-7" font-family="Helvetica,sans-Serif" font-size="10.00">Running</text>
</a>
</g>
</g>
<!-- Node27&#45;&gt;Node28 -->
<g id="edge32_Node000027_Node000028" class="edge">
<title>Node27&#45;&gt;Node28</title>
<g id="a_edge32_Node000027_Node000028"><a xlink:title=" ">
<path fill="none" stroke="#63b8ff" d="M370.17,-16.88C383.97,-16.69 398.4,-16.5 412.51,-16.31"/>
<polygon fill="#63b8ff" stroke="#63b8ff" points="412.77,-19.8 422.72,-16.17 412.67,-12.81 412.77,-19.8"/>
</a>
</g>
</g>
</g>
</svg>
