<?xml version="1.0" encoding="UTF-8" standalone="no"?>
<!DOCTYPE svg PUBLIC "-//W3C//DTD SVG 1.1//EN"
 "http://www.w3.org/Graphics/SVG/1.1/DTD/svg11.dtd">
<!-- Generated by graphviz version 2.43.0 (0)
 -->
<!-- Title: TranslateHandle::draw Pages: 1 -->
<svg width="490pt" height="150pt"
 viewBox="0.00 0.00 490.00 150.00" xmlns="http://www.w3.org/2000/svg" xmlns:xlink="http://www.w3.org/1999/xlink">

<svg id="main" version="1.1" xmlns="http://www.w3.org/2000/svg" xmlns:xlink="http://www.w3.org/1999/xlink" xml:space="preserve" onload="init(evt)">
<style type="text/css"><![CDATA[
.node, .edge {opacity: 0.7;}
.node.selected, .edge.selected {opacity: 1;}
.edge:hover path { stroke: red; }
.edge:hover polygon { stroke: red; fill: red; }
]]></style>
<script type="application/ecmascript" xlink:href="svg.min.js"/>
<svg id="graph" class="graph">
<g id="graph0" class="graph" transform="scale(1 1) rotate(0) translate(4 146)">
<title>TranslateHandle::draw</title>
<!-- Node1 -->
<g id="Node000001" class="node">
<title>Node1</title>
<g id="a_Node000001"><a xlink:title=" ">
<polygon fill="#999999" stroke="#666666" points="125,-77 0,-77 0,-58 125,-58 125,-77"/>
<text text-anchor="middle" x="62.5" y="-65" font-family="Helvetica,sans-Serif" font-size="10.00">TranslateHandle::draw</text>
</a>
</g>
</g>
<!-- Node2 -->
<g id="Node000002" class="node">
<title>Node2</title>
<g id="a_Node000002"><a xlink:href="classMesh.html#a79b998580025a501675a517e9fc1283f" target="_top" xlink:title=" ">
<polygon fill="white" stroke="#666666" points="271,-142 198,-142 198,-123 271,-123 271,-142"/>
<text text-anchor="middle" x="234.5" y="-130" font-family="Helvetica,sans-Serif" font-size="10.00">Mesh::draw</text>
</a>
</g>
</g>
<!-- Node1&#45;&gt;Node2 -->
<g id="edge1_Node000001_Node000002" class="edge">
<title>Node1&#45;&gt;Node2</title>
<g id="a_edge1_Node000001_Node000002"><a xlink:title=" ">
<path fill="none" stroke="#63b8ff" d="M81.4,-77.18C100.64,-87.28 132.33,-103.08 161,-113.5 169.53,-116.6 178.79,-119.42 187.76,-121.89"/>
<polygon fill="#63b8ff" stroke="#63b8ff" points="187.14,-125.34 197.7,-124.51 188.92,-118.57 187.14,-125.34"/>
</a>
</g>
</g>
<!-- Node3 -->
<g id="Node000003" class="node">
<title>Node3</title>
<g id="a_Node000003"><a xlink:href="classTranslateHandle.html#ac8493751122288436b9d557609582ca5" target="_top" xlink:title=" ">
<polygon fill="white" stroke="#666666" points="308,-104.5 161,-104.5 161,-74.5 308,-74.5 308,-104.5"/>
<text text-anchor="start" x="169" y="-92.5" font-family="Helvetica,sans-Serif" font-size="10.00">TranslateHandle::getModel</text>
<text text-anchor="middle" x="234.5" y="-81.5" font-family="Helvetica,sans-Serif" font-size="10.00">Matrix</text>
</a>
</g>
</g>
<!-- Node1&#45;&gt;Node3 -->
<g id="edge2_Node000001_Node000003" class="edge">
<title>Node1&#45;&gt;Node3</title>
<g id="a_edge2_Node000001_Node000003"><a xlink:title=" ">
<path fill="none" stroke="#63b8ff" d="M125.35,-75.5C133.61,-76.57 142.18,-77.68 150.72,-78.79"/>
<polygon fill="#63b8ff" stroke="#63b8ff" points="150.35,-82.27 160.72,-80.08 151.25,-75.33 150.35,-82.27"/>
</a>
</g>
</g>
<!-- Node6 -->
<g id="Node000006" class="node">
<title>Node6</title>
<g id="a_Node000006"><a xlink:href="classShader.html#a8e711c96f3e1722cbfb88fde9478977c" target="_top" xlink:title=" ">
<polygon fill="white" stroke="#666666" points="282.5,-56 186.5,-56 186.5,-37 282.5,-37 282.5,-56"/>
<text text-anchor="middle" x="234.5" y="-44" font-family="Helvetica,sans-Serif" font-size="10.00">Shader::setMat4</text>
</a>
</g>
</g>
<!-- Node1&#45;&gt;Node6 -->
<g id="edge5_Node000001_Node000006" class="edge">
<title>Node1&#45;&gt;Node6</title>
<g id="a_edge5_Node000001_Node000006"><a xlink:title=" ">
<path fill="none" stroke="#63b8ff" d="M125.35,-59.86C142.02,-57.8 159.97,-55.58 176.37,-53.56"/>
<polygon fill="#63b8ff" stroke="#63b8ff" points="176.86,-57.02 186.35,-52.32 176,-50.08 176.86,-57.02"/>
</a>
</g>
</g>
<!-- Node7 -->
<g id="Node000007" class="node">
<title>Node7</title>
<g id="a_Node000007"><a xlink:href="classShader.html#a3c7896754f0e1fca8bde860cfef63832" target="_top" xlink:title=" ">
<polygon fill="white" stroke="#666666" points="271.5,-19 197.5,-19 197.5,0 271.5,0 271.5,-19"/>
<text text-anchor="middle" x="234.5" y="-7" font-family="Helvetica,sans-Serif" font-size="10.00">Shader::use</text>
</a>
</g>
</g>
<!-- Node1&#45;&gt;Node7 -->
<g id="edge6_Node000001_Node000007" class="edge">
<title>Node1&#45;&gt;Node7</title>
<g id="a_edge6_Node000001_Node000007"><a xlink:title=" ">
<path fill="none" stroke="#63b8ff" d="M84.47,-57.85C103.99,-49.12 134.05,-36.32 161,-27.5 169.51,-24.72 178.7,-22.12 187.58,-19.82"/>
<polygon fill="#63b8ff" stroke="#63b8ff" points="188.59,-23.18 197.44,-17.36 186.88,-16.39 188.59,-23.18"/>
</a>
</g>
</g>
<!-- Node4 -->
<g id="Node000004" class="node">
<title>Node4</title>
<g id="a_Node000004"><a xlink:href="IHandle_8h.html#a964bf79581c06e837f1d55438f924d2e" target="_top" xlink:title=" ">
<polygon fill="white" stroke="#666666" points="438.5,-117 387.5,-117 387.5,-98 438.5,-98 438.5,-117"/>
<text text-anchor="middle" x="413" y="-105" font-family="Helvetica,sans-Serif" font-size="10.00">axisDir</text>
</a>
</g>
</g>
<!-- Node3&#45;&gt;Node4 -->
<g id="edge3_Node000003_Node000004" class="edge">
<title>Node3&#45;&gt;Node4</title>
<g id="a_edge3_Node000003_Node000004"><a xlink:title=" ">
<path fill="none" stroke="#63b8ff" d="M308.05,-96.9C331.91,-99.33 357.35,-101.93 377.09,-103.94"/>
<polygon fill="#63b8ff" stroke="#63b8ff" points="376.83,-107.43 387.14,-104.96 377.54,-100.47 376.83,-107.43"/>
</a>
</g>
</g>
<!-- Node5 -->
<g id="Node000005" class="node">
<title>Node5</title>
<g id="a_Node000005"><a xlink:href="classSceneObject.html#a3d1aa613dd4f4ee6947754a355a48cc9" target="_top" xlink:title=" ">
<polygon fill="white" stroke="#666666" points="482,-80 344,-80 344,-61 482,-61 482,-80"/>
<text text-anchor="middle" x="413" y="-68" font-family="Helvetica,sans-Serif" font-size="10.00">SceneObject::getPosition</text>
</a>
</g>
</g>
<!-- Node3&#45;&gt;Node5 -->
<g id="edge4_Node000003_Node000005" class="edge">
<title>Node3&#45;&gt;Node5</title>
<g id="a_edge4_Node000003_Node000005"><a xlink:title=" ">
<path fill="none" stroke="#63b8ff" d="M308.05,-81.69C316.6,-80.77 325.34,-79.83 333.95,-78.9"/>
<polygon fill="#63b8ff" stroke="#63b8ff" points="334.42,-82.37 343.99,-77.82 333.67,-75.41 334.42,-82.37"/>
</a>
</g>
</g>
</g>
</svg>
</svg>

<style type='text/css'>
<![CDATA[
[data-mouse-over-selected='false'] { opacity: 0.7; }
[data-mouse-over-selected='true']  { opacity: 1.0; }
]]>
</style>
<script type="application/ecmascript"><![CDATA[
document.addEventListener('DOMContentLoaded', (event) => {
  highlightEdges();
  highlightAdjacentNodes();
});
]]></script>
</svg>
