<?xml version="1.0" encoding="UTF-8" standalone="no"?>
<!DOCTYPE svg PUBLIC "-//W3C//DTD SVG 1.1//EN"
 "http://www.w3.org/Graphics/SVG/1.1/DTD/svg11.dtd">
<!-- Generated by graphviz version 2.43.0 (0)
 -->
<!-- Title: Physics::PointMass::applyImpulse Pages: 1 -->
<svg width="536pt" height="102pt"
 viewBox="0.00 0.00 536.00 101.50" xmlns="http://www.w3.org/2000/svg" xmlns:xlink="http://www.w3.org/1999/xlink">
<g id="graph0" class="graph" transform="scale(1 1) rotate(0) translate(4 97.5)">
<title>Physics::PointMass::applyImpulse</title>
<!-- Node1 -->
<g id="Node000001" class="node">
<title>Node1</title>
<g id="a_Node000001"><a xlink:title=" ">
<polygon fill="#999999" stroke="#666666" points="528,-69.5 418,-69.5 418,-39.5 528,-39.5 528,-69.5"/>
<text text-anchor="start" x="426" y="-57.5" font-family="Helvetica,sans-Serif" font-size="10.00">Physics::PointMass</text>
<text text-anchor="middle" x="473" y="-46.5" font-family="Helvetica,sans-Serif" font-size="10.00">::applyImpulse</text>
</a>
</g>
</g>
<!-- Node2 -->
<g id="Node000002" class="node">
<title>Node2</title>
<g id="a_Node000002"><a xlink:href="classPhysics_1_1PointMass.html#aa94536ea681b33ed376700aae820cef0" target="_top" xlink:title=" ">
<polygon fill="white" stroke="#666666" points="382,-93.5 209,-93.5 209,-63.5 382,-63.5 382,-93.5"/>
<text text-anchor="start" x="217" y="-81.5" font-family="Helvetica,sans-Serif" font-size="10.00">Physics::PointMass</text>
<text text-anchor="middle" x="295.5" y="-70.5" font-family="Helvetica,sans-Serif" font-size="10.00">::resolveCollisionWithPointMass</text>
</a>
</g>
</g>
<!-- Node1&#45;&gt;Node2 -->
<g id="edge1_Node000001_Node000002" class="edge">
<title>Node1&#45;&gt;Node2</title>
<g id="a_edge1_Node000001_Node000002"><a xlink:title=" ">
<path fill="none" stroke="#63b8ff" d="M407.84,-63.27C399.44,-64.42 390.73,-65.61 382.05,-66.8"/>
<polygon fill="#63b8ff" stroke="#63b8ff" points="408.48,-66.72 417.91,-61.9 407.53,-59.78 408.48,-66.72"/>
</a>
</g>
</g>
<!-- Node3 -->
<g id="Node000003" class="node">
<title>Node3</title>
<g id="a_Node000003"><a xlink:href="classPhysics_1_1RigidBody.html#a4e7d7e2da6c0011c98745c15903a2b15" target="_top" xlink:title=" ">
<polygon fill="white" stroke="#666666" points="382,-45.5 209,-45.5 209,-15.5 382,-15.5 382,-45.5"/>
<text text-anchor="start" x="217" y="-33.5" font-family="Helvetica,sans-Serif" font-size="10.00">Physics::RigidBody</text>
<text text-anchor="middle" x="295.5" y="-22.5" font-family="Helvetica,sans-Serif" font-size="10.00">::resolveCollisionWithPointMass</text>
</a>
</g>
</g>
<!-- Node1&#45;&gt;Node3 -->
<g id="edge2_Node000001_Node000003" class="edge">
<title>Node1&#45;&gt;Node3</title>
<g id="a_edge2_Node000001_Node000003"><a xlink:title=" ">
<path fill="none" stroke="#63b8ff" d="M407.84,-45.73C399.44,-44.58 390.73,-43.39 382.05,-42.2"/>
<polygon fill="#63b8ff" stroke="#63b8ff" points="407.53,-49.22 417.91,-47.1 408.48,-42.28 407.53,-49.22"/>
</a>
</g>
</g>
<!-- Node4 -->
<g id="Node000004" class="node">
<title>Node4</title>
<g id="a_Node000004"><a xlink:href="classPhysics_1_1PointMass.html#a6876155fbb7a943c6d2e06f4c6707959" target="_top" xlink:title=" ">
<polygon fill="white" stroke="#666666" points="173,-67.5 0,-67.5 0,-37.5 173,-37.5 173,-67.5"/>
<text text-anchor="start" x="8" y="-55.5" font-family="Helvetica,sans-Serif" font-size="10.00">Physics::PointMass</text>
<text text-anchor="middle" x="86.5" y="-44.5" font-family="Helvetica,sans-Serif" font-size="10.00">::resolveCollisionWithRigidBody</text>
</a>
</g>
</g>
<!-- Node3&#45;&gt;Node4 -->
<g id="edge3_Node000003_Node000004" class="edge">
<title>Node3&#45;&gt;Node4</title>
<g id="a_edge3_Node000003_Node000004"><a xlink:title=" ">
<path fill="none" stroke="#63b8ff" d="M198.8,-40.67C190.24,-41.58 181.6,-42.5 173.12,-43.4"/>
<polygon fill="#63b8ff" stroke="#63b8ff" points="199.24,-44.14 208.81,-39.61 198.5,-37.18 199.24,-44.14"/>
</a>
</g>
</g>
<!-- Node5 -->
<g id="Node000005" class="node">
<title>Node5</title>
<g id="a_Node000005"><a xlink:href="PhysicsTests_8cpp.html#aae14e19948f282c097b0e8761991c0e1" target="_top" xlink:title=" ">
<polygon fill="white" stroke="#666666" points="107,-19 66,-19 66,0 107,0 107,-19"/>
<text text-anchor="middle" x="86.5" y="-7" font-family="Helvetica,sans-Serif" font-size="10.00">TEST</text>
</a>
</g>
</g>
<!-- Node3&#45;&gt;Node5 -->
<g id="edge4_Node000003_Node000005" class="edge">
<title>Node3&#45;&gt;Node5</title>
<g id="a_edge4_Node000003_Node000005"><a xlink:title=" ">
<path fill="none" stroke="#63b8ff" d="M198.68,-20.78C164.29,-17.29 128.76,-13.69 107.4,-11.52"/>
<polygon fill="#63b8ff" stroke="#63b8ff" points="198.51,-24.28 208.81,-21.81 199.22,-17.32 198.51,-24.28"/>
</a>
</g>
</g>
</g>
</svg>
