<?xml version="1.0" encoding="UTF-8" standalone="no"?>
<!DOCTYPE svg PUBLIC "-//W3C//DTD SVG 1.1//EN"
 "http://www.w3.org/Graphics/SVG/1.1/DTD/svg11.dtd">
<!-- Generated by graphviz version 2.43.0 (0)
 -->
<!-- Title: TranslateHandle::onDrag Pages: 1 -->
<svg width="318pt" height="64pt"
 viewBox="0.00 0.00 318.00 64.00" xmlns="http://www.w3.org/2000/svg" xmlns:xlink="http://www.w3.org/1999/xlink">
<g id="graph0" class="graph" transform="scale(1 1) rotate(0) translate(4 60)">
<title>TranslateHandle::onDrag</title>
<!-- Node1 -->
<g id="Node000001" class="node">
<title>Node1</title>
<g id="a_Node000001"><a xlink:title=" ">
<polygon fill="#999999" stroke="#666666" points="137,-37 0,-37 0,-18 137,-18 137,-37"/>
<text text-anchor="middle" x="68.5" y="-25" font-family="Helvetica,sans-Serif" font-size="10.00">TranslateHandle::onDrag</text>
</a>
</g>
</g>
<!-- Node2 -->
<g id="Node000002" class="node">
<title>Node2</title>
<g id="a_Node000002"><a xlink:href="IHandle_8h.html#a964bf79581c06e837f1d55438f924d2e" target="_top" xlink:title=" ">
<polygon fill="white" stroke="#666666" points="267,-56 216,-56 216,-37 267,-37 267,-56"/>
<text text-anchor="middle" x="241.5" y="-44" font-family="Helvetica,sans-Serif" font-size="10.00">axisDir</text>
</a>
</g>
</g>
<!-- Node1&#45;&gt;Node2 -->
<g id="edge1_Node000001_Node000002" class="edge">
<title>Node1&#45;&gt;Node2</title>
<g id="a_edge1_Node000001_Node000002"><a xlink:title=" ">
<path fill="none" stroke="#63b8ff" d="M137.08,-35.01C160.67,-37.63 186.15,-40.46 205.92,-42.66"/>
<polygon fill="#63b8ff" stroke="#63b8ff" points="205.66,-46.15 215.98,-43.78 206.43,-39.19 205.66,-46.15"/>
</a>
</g>
</g>
<!-- Node3 -->
<g id="Node000003" class="node">
<title>Node3</title>
<g id="a_Node000003"><a xlink:href="classSceneObject.html#af36a3463b19299b7d7cca2b476c36870" target="_top" xlink:title=" ">
<polygon fill="white" stroke="#666666" points="310,-19 173,-19 173,0 310,0 310,-19"/>
<text text-anchor="middle" x="241.5" y="-7" font-family="Helvetica,sans-Serif" font-size="10.00">SceneObject::setPosition</text>
</a>
</g>
</g>
<!-- Node1&#45;&gt;Node3 -->
<g id="edge2_Node000001_Node000003" class="edge">
<title>Node1&#45;&gt;Node3</title>
<g id="a_edge2_Node000001_Node000003"><a xlink:title=" ">
<path fill="none" stroke="#63b8ff" d="M137.08,-20.39C145.54,-19.5 154.24,-18.58 162.83,-17.68"/>
<polygon fill="#63b8ff" stroke="#63b8ff" points="163.27,-21.15 172.85,-16.62 162.54,-14.19 163.27,-21.15"/>
</a>
</g>
</g>
</g>
</svg>
