<?xml version="1.0" encoding="UTF-8" standalone="no"?>
<!DOCTYPE svg PUBLIC "-//W3C//DTD SVG 1.1//EN"
 "http://www.w3.org/Graphics/SVG/1.1/DTD/svg11.dtd">
<!-- Generated by graphviz version 2.43.0 (0)
 -->
<!-- Title: Forces::Forces Pages: 1 -->
<svg width="295pt" height="64pt"
 viewBox="0.00 0.00 295.00 64.00" xmlns="http://www.w3.org/2000/svg" xmlns:xlink="http://www.w3.org/1999/xlink">
<g id="graph0" class="graph" transform="scale(1 1) rotate(0) translate(4 60)">
<title>Forces::Forces</title>
<!-- Node1 -->
<g id="Node000001" class="node">
<title>Node1</title>
<g id="a_Node000001"><a xlink:title=" ">
<polygon fill="#999999" stroke="#666666" points="86,-37 0,-37 0,-18 86,-18 86,-37"/>
<text text-anchor="middle" x="43" y="-25" font-family="Helvetica,sans-Serif" font-size="10.00">Forces::Forces</text>
</a>
</g>
</g>
<!-- Node2 -->
<g id="Node000002" class="node">
<title>Node2</title>
<g id="a_Node000002"><a xlink:href="classResourceManager.html#a3899655c6a1e40089930df4fbc9f1be9" target="_top" xlink:title=" ">
<polygon fill="white" stroke="#666666" points="284.5,-56 124.5,-56 124.5,-37 284.5,-37 284.5,-56"/>
<text text-anchor="middle" x="204.5" y="-44" font-family="Helvetica,sans-Serif" font-size="10.00">ResourceManager::getShader</text>
</a>
</g>
</g>
<!-- Node1&#45;&gt;Node2 -->
<g id="edge1_Node000001_Node000002" class="edge">
<title>Node1&#45;&gt;Node2</title>
<g id="a_edge1_Node000001_Node000002"><a xlink:title=" ">
<path fill="none" stroke="#63b8ff" d="M86.32,-32.54C95.02,-33.58 104.49,-34.71 114.15,-35.86"/>
<polygon fill="#63b8ff" stroke="#63b8ff" points="113.91,-39.35 124.26,-37.06 114.74,-32.4 113.91,-39.35"/>
</a>
</g>
</g>
<!-- Node3 -->
<g id="Node000003" class="node">
<title>Node3</title>
<g id="a_Node000003"><a xlink:href="classResourceManager.html#aaca89be477446964ea277c1c6fba9905" target="_top" xlink:title=" ">
<polygon fill="white" stroke="#666666" points="287,-19 122,-19 122,0 287,0 287,-19"/>
<text text-anchor="middle" x="204.5" y="-7" font-family="Helvetica,sans-Serif" font-size="10.00">ResourceManager::loadShader</text>
</a>
</g>
</g>
<!-- Node1&#45;&gt;Node3 -->
<g id="edge2_Node000001_Node000003" class="edge">
<title>Node1&#45;&gt;Node3</title>
<g id="a_edge2_Node000001_Node000003"><a xlink:title=" ">
<path fill="none" stroke="#63b8ff" d="M86.32,-22.72C94.3,-21.82 102.93,-20.85 111.76,-19.85"/>
<polygon fill="#63b8ff" stroke="#63b8ff" points="112.24,-23.32 121.78,-18.72 111.45,-16.37 112.24,-23.32"/>
</a>
</g>
</g>
</g>
</svg>
