<?xml version="1.0" encoding="UTF-8" standalone="no"?>
<!DOCTYPE svg PUBLIC "-//W3C//DTD SVG 1.1//EN"
 "http://www.w3.org/Graphics/SVG/1.1/DTD/svg11.dtd">
<!-- Generated by graphviz version 2.43.0 (0)
 -->
<!-- Title: Scene::removeDrawable Pages: 1 -->
<!--zoomable 146 -->

<svg id="main" version="1.1" xmlns="http://www.w3.org/2000/svg" xmlns:xlink="http://www.w3.org/1999/xlink" xml:space="preserve" onload="init(evt)">
<style type="text/css"><![CDATA[
.node, .edge {opacity: 0.7;}
.node.selected, .edge.selected {opacity: 1;}
.edge:hover path { stroke: red; }
.edge:hover polygon { stroke: red; fill: red; }
]]></style>

<defs>
  <circle id="rim" cx="0" cy="0" r="7"/>
  <circle id="rim2" cx="0" cy="0" r="3.5"/>
  <g id="zoomPlus">
    <use xlink:href="#rim" fill="#404040"><set attributeName="fill" to="#808080" begin="zoomplus.mouseover" end="zoomplus.mouseout"/></use>
    <path d="M-4,0h8M0,-4v8" fill="none" stroke="white" stroke-width="1.5" pointer-events="none"/>
  </g>
  <g id="zoomMin">
    <use xlink:href="#rim" fill="#404040"><set attributeName="fill" to="#808080" begin="zoomminus.mouseover" end="zoomminus.mouseout"/></use>
    <path d="M-4,0h8" fill="none" stroke="white" stroke-width="1.5" pointer-events="none"/>
  </g>
  <g id="arrowUp" transform="translate(30 24)">
    <use xlink:href="#rim"/>
    <path pointer-events="none" fill="none" stroke="white" stroke-width="1.5" d="M0,-3.0v7 M-2.5,-0.5L0,-3.0L2.5,-0.5"/>
  </g>
  <g id="arrowRight" transform="rotate(90) translate(36 -43)">
    <use xlink:href="#rim"/>
    <path pointer-events="none" fill="none" stroke="white" stroke-width="1.5" d="M0,-3.0v7 M-2.5,-0.5L0,-3.0L2.5,-0.5"/>
  </g>
  <g id="arrowDown" transform="rotate(180) translate(-30 -48)">
    <use xlink:href="#rim"/>
    <path pointer-events="none" fill="none" stroke="white" stroke-width="1.5" d="M0,-3.0v7 M-2.5,-0.5L0,-3.0L2.5,-0.5"/>
  </g>
  <g id="arrowLeft" transform="rotate(270) translate(-36 17)">
    <use xlink:href="#rim"/>
    <path pointer-events="none" fill="none" stroke="white" stroke-width="1.5" d="M0,-3.0v7 M-2.5,-0.5L0,-3.0L2.5,-0.5"/>
  </g>
  <g id="resetDef">
    <use xlink:href="#rim2" fill="#404040"><set attributeName="fill" to="#808080" begin="reset.mouseover" end="reset.mouseout"/></use>
  </g>
</defs>
<script type="application/ecmascript">
var viewWidth = 1554;
var viewHeight = 146;
var sectionId = 'dynsection-7';
</script>
<script type="application/ecmascript" xlink:href="svg.min.js"/>
<svg id="graph" class="graph">
<g id="viewport">
<title>Scene::removeDrawable</title>
<!-- Node1 -->
<g id="Node000001" class="node">
<title>Node1</title>
<g id="a_Node000001"><a xlink:title=" ">
<polygon fill="#999999" stroke="#666666" points="1546,-112.59 1410,-112.59 1410,-93.59 1546,-93.59 1546,-112.59"/>
<text text-anchor="middle" x="1478" y="-100.59" font-family="Helvetica,sans-Serif" font-size="10.00">Scene::removeDrawable</text>
</a>
</g>
</g>
<!-- Node2 -->
<g id="Node000002" class="node">
<title>Node2</title>
<g id="a_Node000002"><a xlink:href="classSceneManager.html#a4543114007c5bb40ddab62cd9f2ac613" target="_top" xlink:title=" ">
<polygon fill="white" stroke="#666666" points="1363,-132.59 1206,-132.59 1206,-113.59 1363,-113.59 1363,-132.59"/>
<text text-anchor="middle" x="1284.5" y="-120.59" font-family="Helvetica,sans-Serif" font-size="10.00">SceneManager::deleteObject</text>
</a>
</g>
</g>
<!-- Node1&#45;&gt;Node2 -->
<g id="edge1_Node000001_Node000002" class="edge">
<title>Node1&#45;&gt;Node2</title>
<g id="a_edge1_Node000001_Node000002"><a xlink:title=" ">
<path fill="none" stroke="#63b8ff" d="M1399.72,-111.16C1387.64,-112.42 1375.15,-113.73 1363.07,-114.99"/>
<polygon fill="#63b8ff" stroke="#63b8ff" points="1400.17,-114.63 1409.75,-110.11 1399.44,-107.67 1400.17,-114.63"/>
</a>
</g>
</g>
<!-- Node8 -->
<g id="Node000008" class="node">
<title>Node8</title>
<g id="a_Node000008"><a xlink:href="classSceneManager.html#ab7c34393bb10361069b0ea73ec2797f8" target="_top" xlink:title=" ">
<polygon fill="white" stroke="#666666" points="1374,-94.59 1195,-94.59 1195,-75.59 1374,-75.59 1374,-94.59"/>
<text text-anchor="middle" x="1284.5" y="-82.59" font-family="Helvetica,sans-Serif" font-size="10.00">SceneManager::removeDrawable</text>
</a>
</g>
</g>
<!-- Node1&#45;&gt;Node8 -->
<g id="edge7_Node000001_Node000008" class="edge">
<title>Node1&#45;&gt;Node8</title>
<g id="a_edge7_Node000001_Node000008"><a xlink:title=" ">
<path fill="none" stroke="#63b8ff" d="M1399.62,-95.82C1391.22,-95.03 1382.62,-94.22 1374.1,-93.42"/>
<polygon fill="#63b8ff" stroke="#63b8ff" points="1399.47,-99.32 1409.75,-96.77 1400.12,-92.35 1399.47,-99.32"/>
</a>
</g>
</g>
<!-- Node3 -->
<g id="Node000003" class="node">
<title>Node3</title>
<g id="a_Node000003"><a xlink:href="classSceneManager.html#a53736fa499987ffff612d3ee7c85442c" target="_top" xlink:title=" ">
<polygon fill="white" stroke="#666666" points="1159,-134.59 984,-134.59 984,-115.59 1159,-115.59 1159,-134.59"/>
<text text-anchor="middle" x="1071.5" y="-122.59" font-family="Helvetica,sans-Serif" font-size="10.00">SceneManager::deleteAllObjects</text>
</a>
</g>
</g>
<!-- Node2&#45;&gt;Node3 -->
<g id="edge2_Node000002_Node000003" class="edge">
<title>Node2&#45;&gt;Node3</title>
<g id="a_edge2_Node000002_Node000003"><a xlink:title=" ">
<path fill="none" stroke="#63b8ff" d="M1195.78,-123.92C1183.71,-124.04 1171.31,-124.15 1159.26,-124.27"/>
<polygon fill="#63b8ff" stroke="#63b8ff" points="1195.86,-127.42 1205.83,-123.83 1195.8,-120.42 1195.86,-127.42"/>
</a>
</g>
</g>
<!-- Node4 -->
<g id="Node000004" class="node">
<title>Node4</title>
<g id="a_Node000004"><a xlink:href="classSceneSerializer.html#a490f2bd87e7c9459ee47be974653b433" target="_top" xlink:title=" ">
<polygon fill="white" stroke="#666666" points="756,-134.59 592,-134.59 592,-115.59 756,-115.59 756,-134.59"/>
<text text-anchor="middle" x="674" y="-122.59" font-family="Helvetica,sans-Serif" font-size="10.00">SceneSerializer::loadFromJson</text>
</a>
</g>
</g>
<!-- Node3&#45;&gt;Node4 -->
<g id="edge3_Node000003_Node000004" class="edge">
<title>Node3&#45;&gt;Node4</title>
<g id="a_edge3_Node000003_Node000004"><a xlink:title=" ">
<path fill="none" stroke="#63b8ff" d="M973.6,-125.09C906.88,-125.09 819.25,-125.09 756.2,-125.09"/>
<polygon fill="#63b8ff" stroke="#63b8ff" points="973.71,-128.59 983.71,-125.09 973.71,-121.59 973.71,-128.59"/>
</a>
</g>
</g>
<!-- Node5 -->
<g id="Node000005" class="node">
<title>Node5</title>
<g id="a_Node000005"><a xlink:href="classSceneManager.html#a7b7b0a022dcce523178e8414fb8e4463" target="_top" xlink:title=" ">
<polygon fill="white" stroke="#666666" points="543.5,-137.59 398.5,-137.59 398.5,-118.59 543.5,-118.59 543.5,-137.59"/>
<text text-anchor="middle" x="471" y="-125.59" font-family="Helvetica,sans-Serif" font-size="10.00">SceneManager::loadScene</text>
</a>
</g>
</g>
<!-- Node4&#45;&gt;Node5 -->
<g id="edge4_Node000004_Node000005" class="edge">
<title>Node4&#45;&gt;Node5</title>
<g id="a_edge4_Node000004_Node000005"><a xlink:title=" ">
<path fill="none" stroke="#63b8ff" d="M581.68,-126.45C568.97,-126.64 556.05,-126.84 543.77,-127.02"/>
<polygon fill="#63b8ff" stroke="#63b8ff" points="581.88,-129.95 591.82,-126.3 581.77,-122.95 581.88,-129.95"/>
</a>
</g>
</g>
<!-- Node6 -->
<g id="Node000006" class="node">
<title>Node6</title>
<g id="a_Node000006"><a xlink:href="classSceneManager.html#a59f13c06bf3f19d5e543502a0ddd0467" target="_top" xlink:title=" ">
<polygon fill="white" stroke="#666666" points="350,-70.59 172,-70.59 172,-51.59 350,-51.59 350,-70.59"/>
<text text-anchor="middle" x="261" y="-58.59" font-family="Helvetica,sans-Serif" font-size="10.00">SceneManager::processHeldKeys</text>
</a>
</g>
</g>
<!-- Node5&#45;&gt;Node6 -->
<g id="edge5_Node000005_Node000006" class="edge">
<title>Node5&#45;&gt;Node6</title>
<g id="a_edge5_Node000005_Node000006"><a xlink:title=" ">
<path fill="none" stroke="#63b8ff" d="M412.25,-116.21C403.4,-114.05 394.42,-111.66 386,-109.09 349.57,-97.98 308.59,-81.25 284.05,-70.76"/>
<polygon fill="#63b8ff" stroke="#63b8ff" points="411.61,-119.65 422.15,-118.54 413.22,-112.84 411.61,-119.65"/>
</a>
</g>
</g>
<!-- Node7 -->
<g id="Node000007" class="node">
<title>Node7</title>
<g id="a_Node000007"><a xlink:href="classOpenGLWindow.html#aea9ee69010d8451ab00cd488a8c6717d" target="_top" xlink:title=" ">
<polygon fill="white" stroke="#666666" points="136,-70.59 0,-70.59 0,-51.59 136,-51.59 136,-70.59"/>
<text text-anchor="middle" x="68" y="-58.59" font-family="Helvetica,sans-Serif" font-size="10.00">OpenGLWindow::paintGL</text>
</a>
</g>
</g>
<!-- Node6&#45;&gt;Node7 -->
<g id="edge6_Node000006_Node000007" class="edge">
<title>Node6&#45;&gt;Node7</title>
<g id="a_edge6_Node000006_Node000007"><a xlink:title=" ">
<path fill="none" stroke="#63b8ff" d="M161.6,-61.09C152.94,-61.09 144.32,-61.09 136,-61.09"/>
<polygon fill="#63b8ff" stroke="#63b8ff" points="161.77,-64.59 171.77,-61.09 161.77,-57.59 161.77,-64.59"/>
</a>
</g>
</g>
<!-- Node9 -->
<g id="Node000009" class="node">
<title>Node9</title>
<g id="a_Node000009"><a xlink:href="classSceneManager.html#a99992b526976863d1dab7dc88cc6ec2a" target="_top" xlink:title=" ">
<polygon fill="white" stroke="#666666" points="1152,-97.09 991,-97.09 991,-67.09 1152,-67.09 1152,-97.09"/>
<text text-anchor="start" x="999" y="-85.09" font-family="Helvetica,sans-Serif" font-size="10.00">SceneManager::deleteCurrent</text>
<text text-anchor="middle" x="1071.5" y="-74.09" font-family="Helvetica,sans-Serif" font-size="10.00">Gizmo</text>
</a>
</g>
</g>
<!-- Node8&#45;&gt;Node9 -->
<g id="edge8_Node000008_Node000009" class="edge">
<title>Node8&#45;&gt;Node9</title>
<g id="a_edge8_Node000008_Node000009"><a xlink:title=" ">
<path fill="none" stroke="#63b8ff" d="M1184.89,-83.69C1173.9,-83.53 1162.82,-83.37 1152.11,-83.22"/>
<polygon fill="#63b8ff" stroke="#63b8ff" points="1184.89,-87.19 1194.93,-83.83 1184.98,-80.19 1184.89,-87.19"/>
</a>
</g>
</g>
<!-- Node10 -->
<g id="Node000010" class="node">
<title>Node10</title>
<g id="a_Node000010"><a xlink:href="classSceneManager.html#a490d6eddd6ef23ffd8f283582a2d7d88" target="_top" xlink:title=" ">
<polygon fill="white" stroke="#666666" points="948,-46.59 792,-46.59 792,-27.59 948,-27.59 948,-46.59"/>
<text text-anchor="middle" x="870" y="-34.59" font-family="Helvetica,sans-Serif" font-size="10.00">SceneManager::setGizmoFor</text>
</a>
</g>
</g>
<!-- Node9&#45;&gt;Node10 -->
<g id="edge9_Node000009_Node000010" class="edge">
<title>Node9&#45;&gt;Node10</title>
<g id="a_edge9_Node000009_Node000010"><a xlink:title=" ">
<path fill="none" stroke="#63b8ff" d="M993.84,-64.8C966.47,-58.62 936.64,-51.9 913.24,-46.62"/>
<polygon fill="#63b8ff" stroke="#63b8ff" points="993.27,-68.26 1003.79,-67.04 994.81,-61.43 993.27,-68.26"/>
</a>
</g>
</g>
<!-- Node12 -->
<g id="Node000012" class="node">
<title>Node12</title>
<g id="a_Node000012"><a xlink:href="classSceneManager.html#af40d0ff3e76f89bbf5504f1694814179" target="_top" xlink:title=" ">
<polygon fill="white" stroke="#666666" points="947.5,-91.59 792.5,-91.59 792.5,-72.59 947.5,-72.59 947.5,-91.59"/>
<text text-anchor="middle" x="870" y="-79.59" font-family="Helvetica,sans-Serif" font-size="10.00">SceneManager::setSelectFor</text>
</a>
</g>
</g>
<!-- Node9&#45;&gt;Node12 -->
<g id="edge12_Node000009_Node000012" class="edge">
<title>Node9&#45;&gt;Node12</title>
<g id="a_edge12_Node000009_Node000012"><a xlink:title=" ">
<path fill="none" stroke="#63b8ff" d="M980.72,-82.09C969.68,-82.09 958.48,-82.09 947.66,-82.09"/>
<polygon fill="#63b8ff" stroke="#63b8ff" points="980.79,-85.59 990.79,-82.09 980.79,-78.59 980.79,-85.59"/>
</a>
</g>
</g>
<!-- Node10&#45;&gt;Node6 -->
<g id="edge11_Node000010_Node000006" class="edge">
<title>Node10&#45;&gt;Node6</title>
<g id="a_edge11_Node000010_Node000006"><a xlink:title=" ">
<path fill="none" stroke="#63b8ff" d="M811.78,-25.71C720.76,-9.51 537.78,15.26 386,-13.09 346.74,-20.42 303.92,-39.77 280.27,-51.54"/>
<polygon fill="#63b8ff" stroke="#63b8ff" points="811.42,-29.2 821.88,-27.54 812.67,-22.31 811.42,-29.2"/>
</a>
</g>
</g>
<!-- Node11 -->
<g id="Node000011" class="node">
<title>Node11</title>
<g id="a_Node000011"><a xlink:href="classSceneObject.html#aadeb8322098fb37c845f73d2073994c6" target="_top" xlink:title=" ">
<polygon fill="white" stroke="#666666" points="744,-46.59 604,-46.59 604,-27.59 744,-27.59 744,-46.59"/>
<text text-anchor="middle" x="674" y="-34.59" font-family="Helvetica,sans-Serif" font-size="10.00">SceneObject::handleClick</text>
</a>
</g>
</g>
<!-- Node10&#45;&gt;Node11 -->
<g id="edge10_Node000010_Node000011" class="edge">
<title>Node10&#45;&gt;Node11</title>
<g id="a_edge10_Node000010_Node000011"><a xlink:title=" ">
<path fill="none" stroke="#63b8ff" d="M781.73,-37.09C769.12,-37.09 756.3,-37.09 744.12,-37.09"/>
<polygon fill="#63b8ff" stroke="#63b8ff" points="781.77,-40.59 791.77,-37.09 781.77,-33.59 781.77,-40.59"/>
</a>
</g>
</g>
<!-- Node12&#45;&gt;Node4 -->
<g id="edge16_Node000012_Node000004" class="edge">
<title>Node12&#45;&gt;Node4</title>
<g id="a_edge16_Node000012_Node000004"><a xlink:title=" ">
<path fill="none" stroke="#63b8ff" d="M815.82,-93.88C785.03,-100.7 746.79,-109.18 717.93,-115.57"/>
<polygon fill="#63b8ff" stroke="#63b8ff" points="816.94,-97.21 825.95,-91.63 815.42,-90.38 816.94,-97.21"/>
</a>
</g>
</g>
<!-- Node13 -->
<g id="Node000013" class="node">
<title>Node13</title>
<g id="a_Node000013"><a xlink:href="classSceneManager.html#ac517c77baec7191a36898308818ebb5f" target="_top" xlink:title=" ">
<polygon fill="white" stroke="#666666" points="754,-97.09 594,-97.09 594,-67.09 754,-67.09 754,-97.09"/>
<text text-anchor="start" x="602" y="-85.09" font-family="Helvetica,sans-Serif" font-size="10.00">SceneManager::handleMouse</text>
<text text-anchor="middle" x="674" y="-74.09" font-family="Helvetica,sans-Serif" font-size="10.00">Button</text>
</a>
</g>
</g>
<!-- Node12&#45;&gt;Node13 -->
<g id="edge13_Node000012_Node000013" class="edge">
<title>Node12&#45;&gt;Node13</title>
<g id="a_edge13_Node000012_Node000013"><a xlink:title=" ">
<path fill="none" stroke="#63b8ff" d="M782.28,-82.09C772.97,-82.09 763.52,-82.09 754.3,-82.09"/>
<polygon fill="#63b8ff" stroke="#63b8ff" points="782.33,-85.59 792.33,-82.09 782.33,-78.59 782.33,-85.59"/>
</a>
</g>
</g>
<!-- Node14 -->
<g id="Node000014" class="node">
<title>Node14</title>
<g id="a_Node000014"><a xlink:href="classOpenGLWindow.html#a3db5152769ffded2ba4de8b6563c205a" target="_top" xlink:title=" ">
<polygon fill="white" stroke="#666666" points="550,-100.09 392,-100.09 392,-70.09 550,-70.09 550,-100.09"/>
<text text-anchor="start" x="400" y="-88.09" font-family="Helvetica,sans-Serif" font-size="10.00">OpenGLWindow::mousePress</text>
<text text-anchor="middle" x="471" y="-77.09" font-family="Helvetica,sans-Serif" font-size="10.00">Event</text>
</a>
</g>
</g>
<!-- Node13&#45;&gt;Node14 -->
<g id="edge14_Node000013_Node000014" class="edge">
<title>Node13&#45;&gt;Node14</title>
<g id="a_edge14_Node000013_Node000014"><a xlink:title=" ">
<path fill="none" stroke="#63b8ff" d="M583.64,-83.42C572.46,-83.59 561.09,-83.76 550.09,-83.92"/>
<polygon fill="#63b8ff" stroke="#63b8ff" points="583.9,-86.92 593.85,-83.27 583.8,-79.92 583.9,-86.92"/>
</a>
</g>
</g>
<!-- Node15 -->
<g id="Node000015" class="node">
<title>Node15</title>
<g id="a_Node000015"><a xlink:href="classOpenGLWindow.html#a2a95d17daeae3447ca23d4e99c913b73" target="_top" xlink:title=" ">
<polygon fill="white" stroke="#666666" points="556,-52.09 386,-52.09 386,-22.09 556,-22.09 556,-52.09"/>
<text text-anchor="start" x="394" y="-40.09" font-family="Helvetica,sans-Serif" font-size="10.00">OpenGLWindow::mouseRelease</text>
<text text-anchor="middle" x="471" y="-29.09" font-family="Helvetica,sans-Serif" font-size="10.00">Event</text>
</a>
</g>
</g>
<!-- Node13&#45;&gt;Node15 -->
<g id="edge15_Node000013_Node000015" class="edge">
<title>Node13&#45;&gt;Node15</title>
<g id="a_edge15_Node000013_Node000015"><a xlink:title=" ">
<path fill="none" stroke="#63b8ff" d="M595.84,-64.82C577.16,-60.63 557.33,-56.19 539.15,-52.12"/>
<polygon fill="#63b8ff" stroke="#63b8ff" points="595.27,-68.27 605.79,-67.04 596.8,-61.44 595.27,-68.27"/>
</a>
</g>
</g>
</g>
</svg>

<g id="navigator" transform="translate(0 0)" fill="#404254">
  <rect fill="#f2f5e9" fill-opacity="0.5" stroke="#606060" stroke-width=".5" x="0" y="0" width="60" height="60"/>
  <use id="zoomplus" xlink:href="#zoomPlus" x="17" y="9" onmousedown="handleZoom(evt,'in')"/>
  <use id="zoomminus" xlink:href="#zoomMin" x="42" y="9" onmousedown="handleZoom(evt,'out')"/>
  <use id="reset" xlink:href="#resetDef" x="30" y="36" onmousedown="handleReset()"/>
   <use id="arrowup" xlink:href="#arrowUp" x="0" y="0" onmousedown="handlePan(0,-1)"/>
  <use id="arrowright" xlink:href="#arrowRight" x="0" y="0" onmousedown="handlePan(1,0)"/>
  <use id="arrowdown" xlink:href="#arrowDown" x="0" y="0" onmousedown="handlePan(0,1)"/>
  <use id="arrowleft" xlink:href="#arrowLeft" x="0" y="0" onmousedown="handlePan(-1,0)"/>
</g>
<svg viewBox="0 0 15 15" width="100%" height="30px" preserveAspectRatio="xMaxYMin meet">
 <g id="arrow_out" transform="scale(0.3 0.3)">
  <a xlink:href="classScene_a398bf0981ca0b3f5ade648b1d95513cc_icgraph_org.svg" target="_base">
   <rect id="button" ry="5" rx="5" y="6" x="6" height="38" width="38"
        fill="#f2f5e9" fill-opacity="0.5" stroke="#606060" stroke-width="1.0"/>
   <path id="arrow"
     d="M 11.500037,31.436501 C 11.940474,20.09759 22.043105,11.32322 32.158766,21.979434 L 37.068811,17.246167 C 37.068811,17.246167 37.088388,32 37.088388,32 L 22.160133,31.978069 C 22.160133,31.978069 26.997745,27.140456 26.997745,27.140456 C 18.528582,18.264221 13.291696,25.230495 11.500037,31.436501 z"
     style="fill:#404040;"/>
  </a>
 </g>
</svg>

<style type='text/css'>
<![CDATA[
[data-mouse-over-selected='false'] { opacity: 0.7; }
[data-mouse-over-selected='true']  { opacity: 1.0; }
]]>
</style>
<script type="application/ecmascript"><![CDATA[
document.addEventListener('DOMContentLoaded', (event) => {
  highlightEdges();
  highlightAdjacentNodes();
});
]]></script>
</svg>
