<?xml version="1.0" encoding="UTF-8" standalone="no"?>
<!DOCTYPE svg PUBLIC "-//W3C//DTD SVG 1.1//EN"
 "http://www.w3.org/Graphics/SVG/1.1/DTD/svg11.dtd">
<!-- Generated by graphviz version 2.43.0 (0)
 -->
<!-- Title: SceneManager::selectObject Pages: 1 -->
<svg width="939pt" height="125pt"
 viewBox="0.00 0.00 939.00 125.00" xmlns="http://www.w3.org/2000/svg" xmlns:xlink="http://www.w3.org/1999/xlink">
<g id="graph0" class="graph" transform="scale(1 1) rotate(0) translate(4 121)">
<title>SceneManager::selectObject</title>
<!-- Node1 -->
<g id="Node000001" class="node">
<title>Node1</title>
<g id="a_Node000001"><a xlink:title=" ">
<polygon fill="#999999" stroke="#666666" points="155,-79 0,-79 0,-60 155,-60 155,-79"/>
<text text-anchor="middle" x="77.5" y="-67" font-family="Helvetica,sans-Serif" font-size="10.00">SceneManager::selectObject</text>
</a>
</g>
</g>
<!-- Node2 -->
<g id="Node000002" class="node">
<title>Node2</title>
<g id="a_Node000002"><a xlink:href="classSceneManager.html#a25bec2896954b4f0c3bed8ef736993d3" target="_top" xlink:title=" ">
<polygon fill="white" stroke="#666666" points="542.5,-117 384.5,-117 384.5,-98 542.5,-98 542.5,-117"/>
<text text-anchor="middle" x="463.5" y="-105" font-family="Helvetica,sans-Serif" font-size="10.00">SceneManager::selectedItem</text>
</a>
</g>
</g>
<!-- Node1&#45;&gt;Node2 -->
<g id="edge1_Node000001_Node000002" class="edge">
<title>Node1&#45;&gt;Node2</title>
<g id="a_edge1_Node000001_Node000002"><a xlink:title=" ">
<path fill="none" stroke="#63b8ff" d="M128.47,-79.01C147.93,-82.44 170.45,-86.05 191,-88.5 252.05,-95.77 321.18,-100.56 374.4,-103.51"/>
<polygon fill="#63b8ff" stroke="#63b8ff" points="374.31,-107.01 384.49,-104.06 374.69,-100.02 374.31,-107.01"/>
</a>
</g>
</g>
<!-- Node3 -->
<g id="Node000003" class="node">
<title>Node3</title>
<g id="a_Node000003"><a xlink:href="classSceneManager.html#a490d6eddd6ef23ffd8f283582a2d7d88" target="_top" xlink:title=" ">
<polygon fill="white" stroke="#666666" points="347,-40 191,-40 191,-21 347,-21 347,-40"/>
<text text-anchor="middle" x="269" y="-28" font-family="Helvetica,sans-Serif" font-size="10.00">SceneManager::setGizmoFor</text>
</a>
</g>
</g>
<!-- Node1&#45;&gt;Node3 -->
<g id="edge2_Node000001_Node000003" class="edge">
<title>Node1&#45;&gt;Node3</title>
<g id="a_edge2_Node000001_Node000003"><a xlink:title=" ">
<path fill="none" stroke="#63b8ff" d="M124.86,-59.96C151.11,-54.56 184.13,-47.76 211.85,-42.06"/>
<polygon fill="#63b8ff" stroke="#63b8ff" points="212.7,-45.45 221.79,-40.01 211.29,-38.6 212.7,-45.45"/>
</a>
</g>
</g>
<!-- Node8 -->
<g id="Node000008" class="node">
<title>Node8</title>
<g id="a_Node000008"><a xlink:href="classSceneManager.html#af40d0ff3e76f89bbf5504f1694814179" target="_top" xlink:title=" ">
<polygon fill="white" stroke="#666666" points="346.5,-79 191.5,-79 191.5,-60 346.5,-60 346.5,-79"/>
<text text-anchor="middle" x="269" y="-67" font-family="Helvetica,sans-Serif" font-size="10.00">SceneManager::setSelectFor</text>
</a>
</g>
</g>
<!-- Node1&#45;&gt;Node8 -->
<g id="edge7_Node000001_Node000008" class="edge">
<title>Node1&#45;&gt;Node8</title>
<g id="a_edge7_Node000001_Node000008"><a xlink:title=" ">
<path fill="none" stroke="#63b8ff" d="M155.03,-69.5C163.67,-69.5 172.52,-69.5 181.27,-69.5"/>
<polygon fill="#63b8ff" stroke="#63b8ff" points="181.49,-73 191.49,-69.5 181.49,-66 181.49,-73"/>
</a>
</g>
</g>
<!-- Node4 -->
<g id="Node000004" class="node">
<title>Node4</title>
<g id="a_Node000004"><a xlink:href="classSceneManager.html#a99992b526976863d1dab7dc88cc6ec2a" target="_top" xlink:title=" ">
<polygon fill="white" stroke="#666666" points="544,-42.5 383,-42.5 383,-12.5 544,-12.5 544,-42.5"/>
<text text-anchor="start" x="391" y="-30.5" font-family="Helvetica,sans-Serif" font-size="10.00">SceneManager::deleteCurrent</text>
<text text-anchor="middle" x="463.5" y="-19.5" font-family="Helvetica,sans-Serif" font-size="10.00">Gizmo</text>
</a>
</g>
</g>
<!-- Node3&#45;&gt;Node4 -->
<g id="edge3_Node000003_Node000004" class="edge">
<title>Node3&#45;&gt;Node4</title>
<g id="a_edge3_Node000003_Node000004"><a xlink:title=" ">
<path fill="none" stroke="#63b8ff" d="M347.19,-29.3C355.52,-29.17 364.04,-29.03 372.51,-28.9"/>
<polygon fill="#63b8ff" stroke="#63b8ff" points="372.83,-32.4 382.78,-28.74 372.73,-25.4 372.83,-32.4"/>
</a>
</g>
</g>
<!-- Node5 -->
<g id="Node000005" class="node">
<title>Node5</title>
<g id="a_Node000005"><a xlink:href="classSceneManager.html#ab7c34393bb10361069b0ea73ec2797f8" target="_top" xlink:title=" ">
<polygon fill="white" stroke="#666666" points="759,-56 580,-56 580,-37 759,-37 759,-56"/>
<text text-anchor="middle" x="669.5" y="-44" font-family="Helvetica,sans-Serif" font-size="10.00">SceneManager::removeDrawable</text>
</a>
</g>
</g>
<!-- Node4&#45;&gt;Node5 -->
<g id="edge4_Node000004_Node000005" class="edge">
<title>Node4&#45;&gt;Node5</title>
<g id="a_edge4_Node000004_Node000005"><a xlink:title=" ">
<path fill="none" stroke="#63b8ff" d="M544.25,-34.93C552.6,-35.71 561.16,-36.5 569.7,-37.3"/>
<polygon fill="#63b8ff" stroke="#63b8ff" points="569.4,-40.79 579.69,-38.23 570.05,-33.82 569.4,-40.79"/>
</a>
</g>
</g>
<!-- Node7 -->
<g id="Node000007" class="node">
<title>Node7</title>
<g id="a_Node000007"><a xlink:href="classSceneManager.html#a1c647e38474ee02d5dd8510bc2313c38" target="_top" xlink:title=" ">
<polygon fill="white" stroke="#666666" points="756,-19 583,-19 583,0 756,0 756,-19"/>
<text text-anchor="middle" x="669.5" y="-7" font-family="Helvetica,sans-Serif" font-size="10.00">SceneManager::removePickable</text>
</a>
</g>
</g>
<!-- Node4&#45;&gt;Node7 -->
<g id="edge6_Node000004_Node000007" class="edge">
<title>Node4&#45;&gt;Node7</title>
<g id="a_edge6_Node000004_Node000007"><a xlink:title=" ">
<path fill="none" stroke="#63b8ff" d="M544.25,-20.46C553.52,-19.65 563.05,-18.8 572.52,-17.97"/>
<polygon fill="#63b8ff" stroke="#63b8ff" points="573.09,-21.43 582.74,-17.07 572.47,-14.46 573.09,-21.43"/>
</a>
</g>
</g>
<!-- Node6 -->
<g id="Node000006" class="node">
<title>Node6</title>
<g id="a_Node000006"><a xlink:href="classScene.html#a398bf0981ca0b3f5ade648b1d95513cc" target="_top" xlink:title=" ">
<polygon fill="white" stroke="#666666" points="931,-56 795,-56 795,-37 931,-37 931,-56"/>
<text text-anchor="middle" x="863" y="-44" font-family="Helvetica,sans-Serif" font-size="10.00">Scene::removeDrawable</text>
</a>
</g>
</g>
<!-- Node5&#45;&gt;Node6 -->
<g id="edge5_Node000005_Node000006" class="edge">
<title>Node5&#45;&gt;Node6</title>
<g id="a_edge5_Node000005_Node000006"><a xlink:title=" ">
<path fill="none" stroke="#63b8ff" d="M759.24,-46.5C767.73,-46.5 776.29,-46.5 784.65,-46.5"/>
<polygon fill="#63b8ff" stroke="#63b8ff" points="784.74,-50 794.74,-46.5 784.74,-43 784.74,-50"/>
</a>
</g>
</g>
<!-- Node8&#45;&gt;Node2 -->
<g id="edge10_Node000008_Node000002" class="edge">
<title>Node8&#45;&gt;Node2</title>
<g id="a_edge10_Node000008_Node000002"><a xlink:title=" ">
<path fill="none" stroke="#63b8ff" d="M318.58,-79.09C344.66,-84.24 377.01,-90.62 404.42,-96.03"/>
<polygon fill="#63b8ff" stroke="#63b8ff" points="403.78,-99.48 414.27,-97.98 405.14,-92.61 403.78,-99.48"/>
</a>
</g>
</g>
<!-- Node8&#45;&gt;Node4 -->
<g id="edge8_Node000008_Node000004" class="edge">
<title>Node8&#45;&gt;Node4</title>
<g id="a_edge8_Node000008_Node000004"><a xlink:title=" ">
<path fill="none" stroke="#63b8ff" d="M313.68,-59.97C334.45,-55.44 359.92,-49.88 383.89,-44.65"/>
<polygon fill="#63b8ff" stroke="#63b8ff" points="384.67,-48.06 393.69,-42.51 383.18,-41.22 384.67,-48.06"/>
</a>
</g>
</g>
<!-- Node9 -->
<g id="Node000009" class="node">
<title>Node9</title>
<g id="a_Node000009"><a xlink:href="classSceneObject.html#ad77f12eb793b32da2ef40f0042cb1de8" target="_top" xlink:title="Gets the unique identifier for this object.">
<polygon fill="white" stroke="#666666" points="534,-80 393,-80 393,-61 534,-61 534,-80"/>
<text text-anchor="middle" x="463.5" y="-68" font-family="Helvetica,sans-Serif" font-size="10.00">SceneObject::getObjectID</text>
</a>
</g>
</g>
<!-- Node8&#45;&gt;Node9 -->
<g id="edge9_Node000008_Node000009" class="edge">
<title>Node8&#45;&gt;Node9</title>
<g id="a_edge9_Node000008_Node000009"><a xlink:title=" ">
<path fill="none" stroke="#63b8ff" d="M346.63,-69.9C358.47,-69.96 370.73,-70.02 382.64,-70.09"/>
<polygon fill="#63b8ff" stroke="#63b8ff" points="382.97,-73.59 392.99,-70.14 383.01,-66.59 382.97,-73.59"/>
</a>
</g>
</g>
</g>
</svg>
