<?xml version="1.0" encoding="UTF-8" standalone="no"?>
<!DOCTYPE svg PUBLIC "-//W3C//DTD SVG 1.1//EN"
 "http://www.w3.org/Graphics/SVG/1.1/DTD/svg11.dtd">
<!-- Generated by graphviz version 2.43.0 (0)
 -->
<!-- Title: Physics::PointMass::PointMass Pages: 1 -->
<svg width="432pt" height="134pt"
 viewBox="0.00 0.00 432.00 134.00" xmlns="http://www.w3.org/2000/svg" xmlns:xlink="http://www.w3.org/1999/xlink">
<g id="graph0" class="graph" transform="scale(1 1) rotate(0) translate(4 130)">
<title>Physics::PointMass::PointMass</title>
<!-- Node1 -->
<g id="Node000001" class="node">
<title>Node1</title>
<g id="a_Node000001"><a xlink:title=" ">
<polygon fill="#999999" stroke="#666666" points="110,-78 0,-78 0,-48 110,-48 110,-78"/>
<text text-anchor="start" x="8" y="-66" font-family="Helvetica,sans-Serif" font-size="10.00">Physics::PointMass</text>
<text text-anchor="middle" x="55" y="-55" font-family="Helvetica,sans-Serif" font-size="10.00">::PointMass</text>
</a>
</g>
</g>
<!-- Node2 -->
<g id="Node000002" class="node">
<title>Node2</title>
<g id="a_Node000002"><a xlink:href="classPhysics_1_1PhysicsBody.html#afdcc5254d170bb6939cb988bf64613dc" target="_top" xlink:title=" ">
<polygon fill="white" stroke="#666666" points="267,-126 146,-126 146,-96 267,-96 267,-126"/>
<text text-anchor="start" x="154" y="-114" font-family="Helvetica,sans-Serif" font-size="10.00">Physics::PhysicsBody</text>
<text text-anchor="middle" x="206.5" y="-103" font-family="Helvetica,sans-Serif" font-size="10.00">::setIsStatic</text>
</a>
</g>
</g>
<!-- Node1&#45;&gt;Node2 -->
<g id="edge1_Node000001_Node000002" class="edge">
<title>Node1&#45;&gt;Node2</title>
<g id="a_edge1_Node000001_Node000002"><a xlink:title=" ">
<path fill="none" stroke="#63b8ff" d="M102.89,-78.06C117.5,-82.75 133.77,-87.97 148.97,-92.85"/>
<polygon fill="#63b8ff" stroke="#63b8ff" points="148.18,-96.27 158.77,-96 150.32,-89.61 148.18,-96.27"/>
</a>
</g>
</g>
<!-- Node3 -->
<g id="Node000003" class="node">
<title>Node3</title>
<g id="a_Node000003"><a xlink:href="classPhysics_1_1PointMass.html#a10a817a2d309d9aac378f50d58ae9908" target="_top" xlink:title=" ">
<polygon fill="white" stroke="#666666" points="261.5,-78 151.5,-78 151.5,-48 261.5,-48 261.5,-78"/>
<text text-anchor="start" x="159.5" y="-66" font-family="Helvetica,sans-Serif" font-size="10.00">Physics::PointMass</text>
<text text-anchor="middle" x="206.5" y="-55" font-family="Helvetica,sans-Serif" font-size="10.00">::setMass</text>
</a>
</g>
</g>
<!-- Node1&#45;&gt;Node3 -->
<g id="edge2_Node000001_Node000003" class="edge">
<title>Node1&#45;&gt;Node3</title>
<g id="a_edge2_Node000001_Node000003"><a xlink:title=" ">
<path fill="none" stroke="#63b8ff" d="M110.4,-63C120.41,-63 130.96,-63 141.24,-63"/>
<polygon fill="#63b8ff" stroke="#63b8ff" points="141.4,-66.5 151.39,-63 141.39,-59.5 141.4,-66.5"/>
</a>
</g>
</g>
<!-- Node5 -->
<g id="Node000005" class="node">
<title>Node5</title>
<g id="a_Node000005"><a xlink:href="classPhysics_1_1PhysicsBody.html#a1aedc823891235ff429c55e0740ab423" target="_top" xlink:title=" ">
<polygon fill="white" stroke="#666666" points="267,-30 146,-30 146,0 267,0 267,-30"/>
<text text-anchor="start" x="154" y="-18" font-family="Helvetica,sans-Serif" font-size="10.00">Physics::PhysicsBody</text>
<text text-anchor="middle" x="206.5" y="-7" font-family="Helvetica,sans-Serif" font-size="10.00">::setPosition</text>
</a>
</g>
</g>
<!-- Node1&#45;&gt;Node5 -->
<g id="edge4_Node000001_Node000005" class="edge">
<title>Node1&#45;&gt;Node5</title>
<g id="a_edge4_Node000001_Node000005"><a xlink:title=" ">
<path fill="none" stroke="#63b8ff" d="M102.89,-47.94C117.5,-43.25 133.77,-38.03 148.97,-33.15"/>
<polygon fill="#63b8ff" stroke="#63b8ff" points="150.32,-36.39 158.77,-30 148.18,-29.73 150.32,-36.39"/>
</a>
</g>
</g>
<!-- Node4 -->
<g id="Node000004" class="node">
<title>Node4</title>
<g id="a_Node000004"><a xlink:href="classPhysics_1_1PhysicsBody.html#ad1b530c4f77272396b438354b2322634" target="_top" xlink:title=" ">
<polygon fill="white" stroke="#666666" points="424,-78 303,-78 303,-48 424,-48 424,-78"/>
<text text-anchor="start" x="311" y="-66" font-family="Helvetica,sans-Serif" font-size="10.00">Physics::PhysicsBody</text>
<text text-anchor="middle" x="363.5" y="-55" font-family="Helvetica,sans-Serif" font-size="10.00">::setMass</text>
</a>
</g>
</g>
<!-- Node3&#45;&gt;Node4 -->
<g id="edge3_Node000003_Node000004" class="edge">
<title>Node3&#45;&gt;Node4</title>
<g id="a_edge3_Node000003_Node000004"><a xlink:title=" ">
<path fill="none" stroke="#63b8ff" d="M261.71,-63C271.66,-63 282.18,-63 292.52,-63"/>
<polygon fill="#63b8ff" stroke="#63b8ff" points="292.77,-66.5 302.77,-63 292.77,-59.5 292.77,-66.5"/>
</a>
</g>
</g>
</g>
</svg>
