<?xml version="1.0" encoding="UTF-8" standalone="no"?>
<!DOCTYPE svg PUBLIC "-//W3C//DTD SVG 1.1//EN"
 "http://www.w3.org/Graphics/SVG/1.1/DTD/svg11.dtd">
<!-- Generated by graphviz version 2.43.0 (0)
 -->
<!-- Title: SceneManager::setGizmoFor Pages: 1 -->
<svg width="1336pt" height="200pt"
 viewBox="0.00 0.00 1336.00 199.50" xmlns="http://www.w3.org/2000/svg" xmlns:xlink="http://www.w3.org/1999/xlink">
<g id="graph0" class="graph" transform="scale(1 1) rotate(0) translate(4 195.5)">
<title>SceneManager::setGizmoFor</title>
<!-- Node1 -->
<g id="Node000001" class="node">
<title>Node1</title>
<g id="a_Node000001"><a xlink:title=" ">
<polygon fill="#999999" stroke="#666666" points="1328,-153.5 1172,-153.5 1172,-134.5 1328,-134.5 1328,-153.5"/>
<text text-anchor="middle" x="1250" y="-141.5" font-family="Helvetica,sans-Serif" font-size="10.00">SceneManager::setGizmoFor</text>
</a>
</g>
</g>
<!-- Node2 -->
<g id="Node000002" class="node">
<title>Node2</title>
<g id="a_Node000002"><a xlink:href="classSceneObject.html#a51694b249daac83a466e6acdb08c5554" target="_top" xlink:title="Handles a mouse click on this object.">
<polygon fill="white" stroke="#666666" points="1128.5,-191.5 988.5,-191.5 988.5,-172.5 1128.5,-172.5 1128.5,-191.5"/>
<text text-anchor="middle" x="1058.5" y="-179.5" font-family="Helvetica,sans-Serif" font-size="10.00">SceneObject::handleClick</text>
</a>
</g>
</g>
<!-- Node1&#45;&gt;Node2 -->
<g id="edge1_Node000001_Node000002" class="edge">
<title>Node1&#45;&gt;Node2</title>
<g id="a_edge1_Node000001_Node000002"><a xlink:title=" ">
<path fill="none" stroke="#63b8ff" d="M1191.11,-155.61C1164.15,-161.01 1132.49,-167.36 1106.97,-172.48"/>
<polygon fill="#63b8ff" stroke="#63b8ff" points="1192.06,-158.99 1201.18,-153.59 1190.69,-152.12 1192.06,-158.99"/>
</a>
</g>
</g>
<!-- Node3 -->
<g id="Node000003" class="node">
<title>Node3</title>
<g id="a_Node000003"><a xlink:href="classSceneManager.html#a59f13c06bf3f19d5e543502a0ddd0467" target="_top" xlink:title=" ">
<polygon fill="white" stroke="#666666" points="350,-110.5 172,-110.5 172,-91.5 350,-91.5 350,-110.5"/>
<text text-anchor="middle" x="261" y="-98.5" font-family="Helvetica,sans-Serif" font-size="10.00">SceneManager::processHeldKeys</text>
</a>
</g>
</g>
<!-- Node1&#45;&gt;Node3 -->
<g id="edge2_Node000001_Node000003" class="edge">
<title>Node1&#45;&gt;Node3</title>
<g id="a_edge2_Node000001_Node000003"><a xlink:title=" ">
<path fill="none" stroke="#63b8ff" d="M1161.2,-144C1081.75,-144 961.54,-144 857,-144 857,-144 857,-144 648,-144 527.98,-144 388.25,-123.21 314.24,-110.54"/>
<polygon fill="#63b8ff" stroke="#63b8ff" points="1161.65,-147.5 1171.65,-144 1161.65,-140.5 1161.65,-147.5"/>
</a>
</g>
</g>
<!-- Node5 -->
<g id="Node000005" class="node">
<title>Node5</title>
<g id="a_Node000005"><a xlink:href="classSceneManager.html#a63d3a08f13b314ed1d871f598f26534d" target="_top" xlink:title=" ">
<polygon fill="white" stroke="#666666" points="1136,-91.5 981,-91.5 981,-72.5 1136,-72.5 1136,-91.5"/>
<text text-anchor="middle" x="1058.5" y="-79.5" font-family="Helvetica,sans-Serif" font-size="10.00">SceneManager::selectObject</text>
</a>
</g>
</g>
<!-- Node1&#45;&gt;Node5 -->
<g id="edge4_Node000001_Node000005" class="edge">
<title>Node1&#45;&gt;Node5</title>
<g id="a_edge4_Node000001_Node000005"><a xlink:title=" ">
<path fill="none" stroke="#63b8ff" d="M1210.12,-131.28C1174.09,-119.49 1121.29,-102.22 1088.73,-91.56"/>
<polygon fill="#63b8ff" stroke="#63b8ff" points="1209.21,-134.67 1219.81,-134.45 1211.39,-128.01 1209.21,-134.67"/>
</a>
</g>
</g>
<!-- Node4 -->
<g id="Node000004" class="node">
<title>Node4</title>
<g id="a_Node000004"><a xlink:href="classOpenGLWindow.html#aea9ee69010d8451ab00cd488a8c6717d" target="_top" xlink:title=" ">
<polygon fill="white" stroke="#666666" points="136,-110.5 0,-110.5 0,-91.5 136,-91.5 136,-110.5"/>
<text text-anchor="middle" x="68" y="-98.5" font-family="Helvetica,sans-Serif" font-size="10.00">OpenGLWindow::paintGL</text>
</a>
</g>
</g>
<!-- Node3&#45;&gt;Node4 -->
<g id="edge3_Node000003_Node000004" class="edge">
<title>Node3&#45;&gt;Node4</title>
<g id="a_edge3_Node000003_Node000004"><a xlink:title=" ">
<path fill="none" stroke="#63b8ff" d="M161.6,-101C152.94,-101 144.32,-101 136,-101"/>
<polygon fill="#63b8ff" stroke="#63b8ff" points="161.77,-104.5 171.77,-101 161.77,-97.5 161.77,-104.5"/>
</a>
</g>
</g>
<!-- Node6 -->
<g id="Node000006" class="node">
<title>Node6</title>
<g id="a_Node000006"><a xlink:href="classSceneManager.html#a2c5088464b489b31f23e0791e2b9c0b0" target="_top" xlink:title=" ">
<polygon fill="white" stroke="#666666" points="932,-110.5 780,-110.5 780,-91.5 932,-91.5 932,-110.5"/>
<text text-anchor="middle" x="856" y="-98.5" font-family="Helvetica,sans-Serif" font-size="10.00">SceneManager::focusObject</text>
</a>
</g>
</g>
<!-- Node5&#45;&gt;Node6 -->
<g id="edge5_Node000005_Node000006" class="edge">
<title>Node5&#45;&gt;Node6</title>
<g id="a_edge5_Node000005_Node000006"><a xlink:title=" ">
<path fill="none" stroke="#63b8ff" d="M970.67,-90.23C957.89,-91.44 944.81,-92.68 932.29,-93.87"/>
<polygon fill="#63b8ff" stroke="#63b8ff" points="971.22,-93.69 980.84,-89.26 970.56,-86.72 971.22,-93.69"/>
</a>
</g>
</g>
<!-- Node8 -->
<g id="Node000008" class="node">
<title>Node8</title>
<g id="a_Node000008"><a xlink:href="classSceneSerializer.html#a490f2bd87e7c9459ee47be974653b433" target="_top" xlink:title=" ">
<polygon fill="white" stroke="#666666" points="731,-67.5 567,-67.5 567,-48.5 731,-48.5 731,-67.5"/>
<text text-anchor="middle" x="649" y="-55.5" font-family="Helvetica,sans-Serif" font-size="10.00">SceneSerializer::loadFromJson</text>
</a>
</g>
</g>
<!-- Node5&#45;&gt;Node8 -->
<g id="edge7_Node000005_Node000008" class="edge">
<title>Node5&#45;&gt;Node8</title>
<g id="a_edge7_Node000005_Node000008"><a xlink:title=" ">
<path fill="none" stroke="#63b8ff" d="M970.61,-76.88C899.77,-72.71 800.45,-66.86 731.19,-62.78"/>
<polygon fill="#63b8ff" stroke="#63b8ff" points="970.66,-80.39 980.85,-77.49 971.08,-73.4 970.66,-80.39"/>
</a>
</g>
</g>
<!-- Node10 -->
<g id="Node000010" class="node">
<title>Node10</title>
<g id="a_Node000010"><a xlink:href="classSceneManager.html#ab469d1eea307d05b27433cb74231b4eb" target="_top" xlink:title=" ">
<polygon fill="white" stroke="#666666" points="945,-34.5 767,-34.5 767,-15.5 945,-15.5 945,-34.5"/>
<text text-anchor="middle" x="856" y="-22.5" font-family="Helvetica,sans-Serif" font-size="10.00">SceneManager::setCameraTarget</text>
</a>
</g>
</g>
<!-- Node5&#45;&gt;Node10 -->
<g id="edge10_Node000005_Node000010" class="edge">
<title>Node5&#45;&gt;Node10</title>
<g id="a_edge10_Node000005_Node000010"><a xlink:title=" ">
<path fill="none" stroke="#63b8ff" d="M1015.88,-69.59C994.69,-63.32 968.5,-55.65 945,-49 927.78,-44.13 908.62,-38.88 892.58,-34.54"/>
<polygon fill="#63b8ff" stroke="#63b8ff" points="1014.96,-72.96 1025.54,-72.45 1016.95,-66.25 1014.96,-72.96"/>
</a>
</g>
</g>
<!-- Node7 -->
<g id="Node000007" class="node">
<title>Node7</title>
<g id="a_Node000007"><a xlink:href="namespaceScenePresets_1_1Astronomy.html#a0b0e571c83bcdb2d16710b9425375b5f" target="_top" xlink:title=" ">
<polygon fill="white" stroke="#666666" points="719.5,-116 578.5,-116 578.5,-86 719.5,-86 719.5,-116"/>
<text text-anchor="start" x="586.5" y="-104" font-family="Helvetica,sans-Serif" font-size="10.00">ScenePresets::Astronomy</text>
<text text-anchor="middle" x="649" y="-93" font-family="Helvetica,sans-Serif" font-size="10.00">::createRealSolarSystem</text>
</a>
</g>
</g>
<!-- Node6&#45;&gt;Node7 -->
<g id="edge6_Node000006_Node000007" class="edge">
<title>Node6&#45;&gt;Node7</title>
<g id="a_edge6_Node000006_Node000007"><a xlink:title=" ">
<path fill="none" stroke="#63b8ff" d="M769.58,-101C752.97,-101 735.75,-101 719.72,-101"/>
<polygon fill="#63b8ff" stroke="#63b8ff" points="769.83,-104.5 779.83,-101 769.83,-97.5 769.83,-104.5"/>
</a>
</g>
</g>
<!-- Node9 -->
<g id="Node000009" class="node">
<title>Node9</title>
<g id="a_Node000009"><a xlink:href="classSceneManager.html#a7b7b0a022dcce523178e8414fb8e4463" target="_top" xlink:title=" ">
<polygon fill="white" stroke="#666666" points="531,-91.5 386,-91.5 386,-72.5 531,-72.5 531,-91.5"/>
<text text-anchor="middle" x="458.5" y="-79.5" font-family="Helvetica,sans-Serif" font-size="10.00">SceneManager::loadScene</text>
</a>
</g>
</g>
<!-- Node8&#45;&gt;Node9 -->
<g id="edge8_Node000008_Node000009" class="edge">
<title>Node8&#45;&gt;Node9</title>
<g id="a_edge8_Node000008_Node000009"><a xlink:title=" ">
<path fill="none" stroke="#63b8ff" d="M563.06,-68.81C552.39,-70.17 541.55,-71.55 531.11,-72.88"/>
<polygon fill="#63b8ff" stroke="#63b8ff" points="563.75,-72.25 573.23,-67.52 562.87,-65.31 563.75,-72.25"/>
</a>
</g>
</g>
<!-- Node9&#45;&gt;Node3 -->
<g id="edge9_Node000009_Node000003" class="edge">
<title>Node9&#45;&gt;Node3</title>
<g id="a_edge9_Node000009_Node000003"><a xlink:title=" ">
<path fill="none" stroke="#63b8ff" d="M375.68,-89.95C367.3,-90.77 358.75,-91.6 350.3,-92.42"/>
<polygon fill="#63b8ff" stroke="#63b8ff" points="376.2,-93.42 385.81,-88.97 375.52,-86.45 376.2,-93.42"/>
</a>
</g>
</g>
<!-- Node10&#45;&gt;Node8 -->
<g id="edge11_Node000010_Node000008" class="edge">
<title>Node10&#45;&gt;Node8</title>
<g id="a_edge11_Node000010_Node000008"><a xlink:title=" ">
<path fill="none" stroke="#63b8ff" d="M785.89,-36.12C761.04,-40.12 733.26,-44.6 709.31,-48.45"/>
<polygon fill="#63b8ff" stroke="#63b8ff" points="786.66,-39.55 795.98,-34.5 785.55,-32.63 786.66,-39.55"/>
</a>
</g>
</g>
<!-- Node11 -->
<g id="Node000011" class="node">
<title>Node11</title>
<g id="a_Node000011"><a xlink:href="classGlobalsInspectorWidget.html#ac983b68fcff61ff889660f3d93221072" target="_top" xlink:title=" ">
<polygon fill="white" stroke="#666666" points="715.5,-30 582.5,-30 582.5,0 715.5,0 715.5,-30"/>
<text text-anchor="start" x="590.5" y="-18" font-family="Helvetica,sans-Serif" font-size="10.00">GlobalsInspectorWidget</text>
<text text-anchor="middle" x="649" y="-7" font-family="Helvetica,sans-Serif" font-size="10.00">::runSolver</text>
</a>
</g>
</g>
<!-- Node10&#45;&gt;Node11 -->
<g id="edge12_Node000010_Node000011" class="edge">
<title>Node10&#45;&gt;Node11</title>
<g id="a_edge12_Node000010_Node000011"><a xlink:title=" ">
<path fill="none" stroke="#63b8ff" d="M756.78,-20.21C742.87,-19.53 728.85,-18.85 715.76,-18.21"/>
<polygon fill="#63b8ff" stroke="#63b8ff" points="756.71,-23.71 766.87,-20.7 757.05,-16.72 756.71,-23.71"/>
</a>
</g>
</g>
</g>
</svg>
