<?xml version="1.0" encoding="UTF-8" standalone="no"?>
<!DOCTYPE svg PUBLIC "-//W3C//DTD SVG 1.1//EN"
 "http://www.w3.org/Graphics/SVG/1.1/DTD/svg11.dtd">
<!-- Generated by graphviz version 2.43.0 (0)
 -->
<!-- Title: SceneManager::saveScene Pages: 1 -->
<svg width="781pt" height="224pt"
 viewBox="0.00 0.00 781.00 224.00" xmlns="http://www.w3.org/2000/svg" xmlns:xlink="http://www.w3.org/1999/xlink">
<g id="graph0" class="graph" transform="scale(1 1) rotate(0) translate(4 220)">
<title>SceneManager::saveScene</title>
<!-- Node1 -->
<g id="Node000001" class="node">
<title>Node1</title>
<g id="a_Node000001"><a xlink:title=" ">
<polygon fill="#999999" stroke="#666666" points="147,-111 0,-111 0,-92 147,-92 147,-111"/>
<text text-anchor="middle" x="73.5" y="-99" font-family="Helvetica,sans-Serif" font-size="10.00">SceneManager::saveScene</text>
</a>
</g>
</g>
<!-- Node2 -->
<g id="Node000002" class="node">
<title>Node2</title>
<g id="a_Node000002"><a xlink:href="classSceneSerializer.html#a56e278bcdda1f03f192797122dd6d0c0" target="_top" xlink:title=" ">
<polygon fill="white" stroke="#666666" points="335,-111 183,-111 183,-92 335,-92 335,-111"/>
<text text-anchor="middle" x="259" y="-99" font-family="Helvetica,sans-Serif" font-size="10.00">SceneSerializer::saveToJson</text>
</a>
</g>
</g>
<!-- Node1&#45;&gt;Node2 -->
<g id="edge1_Node000001_Node000002" class="edge">
<title>Node1&#45;&gt;Node2</title>
<g id="a_edge1_Node000001_Node000002"><a xlink:title=" ">
<path fill="none" stroke="#63b8ff" d="M147.02,-101.5C155.52,-101.5 164.25,-101.5 172.89,-101.5"/>
<polygon fill="#63b8ff" stroke="#63b8ff" points="172.99,-105 182.99,-101.5 172.99,-98 172.99,-105"/>
</a>
</g>
</g>
<!-- Node3 -->
<g id="Node000003" class="node">
<title>Node3</title>
<g id="a_Node000003"><a xlink:href="classSceneManager.html#ad73f1ee3bdfe2567544871845707ce0f" target="_top" xlink:title=" ">
<polygon fill="white" stroke="#666666" points="574,-216 371,-216 371,-197 574,-197 574,-216"/>
<text text-anchor="middle" x="472.5" y="-204" font-family="Helvetica,sans-Serif" font-size="10.00">SceneManager::getGlobalAcceleration</text>
</a>
</g>
</g>
<!-- Node2&#45;&gt;Node3 -->
<g id="edge2_Node000002_Node000003" class="edge">
<title>Node2&#45;&gt;Node3</title>
<g id="a_edge2_Node000002_Node000003"><a xlink:title=" ">
<path fill="none" stroke="#63b8ff" d="M269.06,-111.05C286.79,-129.11 328.1,-168.19 371,-187.5 376.68,-190.06 382.7,-192.27 388.85,-194.19"/>
<polygon fill="#63b8ff" stroke="#63b8ff" points="388.02,-197.59 398.59,-196.96 389.93,-190.86 388.02,-197.59"/>
</a>
</g>
</g>
<!-- Node4 -->
<g id="Node000004" class="node">
<title>Node4</title>
<g id="a_Node000004"><a xlink:href="classSceneManager.html#a5117d2cabac5d1f95994f47f530b377b" target="_top" xlink:title=" ">
<polygon fill="white" stroke="#666666" points="559.5,-178.5 385.5,-178.5 385.5,-148.5 559.5,-148.5 559.5,-178.5"/>
<text text-anchor="start" x="393.5" y="-166.5" font-family="Helvetica,sans-Serif" font-size="10.00">SceneManager::getGravitational</text>
<text text-anchor="middle" x="472.5" y="-155.5" font-family="Helvetica,sans-Serif" font-size="10.00">Constant</text>
</a>
</g>
</g>
<!-- Node2&#45;&gt;Node4 -->
<g id="edge3_Node000002_Node000004" class="edge">
<title>Node2&#45;&gt;Node4</title>
<g id="a_edge3_Node000002_Node000004"><a xlink:title=" ">
<path fill="none" stroke="#63b8ff" d="M285.79,-111.11C308.15,-119.26 341.46,-130.94 371,-139.5 378.66,-141.72 386.68,-143.89 394.72,-145.96"/>
<polygon fill="#63b8ff" stroke="#63b8ff" points="393.95,-149.38 404.5,-148.44 395.67,-142.59 393.95,-149.38"/>
</a>
</g>
</g>
<!-- Node5 -->
<g id="Node000005" class="node">
<title>Node5</title>
<g id="a_Node000005"><a xlink:href="classSceneManager.html#ad8688edec501c8e945dff1a85c7e33c7" target="_top" xlink:title=" ">
<polygon fill="white" stroke="#666666" points="546,-130 399,-130 399,-111 546,-111 546,-130"/>
<text text-anchor="middle" x="472.5" y="-118" font-family="Helvetica,sans-Serif" font-size="10.00">SceneManager::getObjects</text>
</a>
</g>
</g>
<!-- Node2&#45;&gt;Node5 -->
<g id="edge4_Node000002_Node000005" class="edge">
<title>Node2&#45;&gt;Node5</title>
<g id="a_edge4_Node000002_Node000005"><a xlink:title=" ">
<path fill="none" stroke="#63b8ff" d="M335.16,-108.25C352.43,-109.8 370.89,-111.46 388.47,-113.04"/>
<polygon fill="#63b8ff" stroke="#63b8ff" points="388.44,-116.55 398.71,-113.96 389.06,-109.58 388.44,-116.55"/>
</a>
</g>
</g>
<!-- Node6 -->
<g id="Node000006" class="node">
<title>Node6</title>
<g id="a_Node000006"><a xlink:href="classResourceManager.html#ab447c164418daff9c741b03b4bf33310" target="_top" xlink:title=" ">
<polygon fill="white" stroke="#666666" points="567,-93 378,-93 378,-74 567,-74 567,-93"/>
<text text-anchor="middle" x="472.5" y="-81" font-family="Helvetica,sans-Serif" font-size="10.00">ResourceManager::getShaderName</text>
</a>
</g>
</g>
<!-- Node2&#45;&gt;Node6 -->
<g id="edge5_Node000002_Node000006" class="edge">
<title>Node2&#45;&gt;Node6</title>
<g id="a_edge5_Node000002_Node000006"><a xlink:title=" ">
<path fill="none" stroke="#63b8ff" d="M335.16,-95.1C345.71,-94.21 356.7,-93.27 367.66,-92.34"/>
<polygon fill="#63b8ff" stroke="#63b8ff" points="368.04,-95.82 377.7,-91.48 367.44,-88.84 368.04,-95.82"/>
</a>
</g>
</g>
<!-- Node7 -->
<g id="Node000007" class="node">
<title>Node7</title>
<g id="a_Node000007"><a xlink:href="classSceneManager.html#ae085a7aade1b9a2adcb7d9f1b2660790" target="_top" xlink:title=" ">
<polygon fill="white" stroke="#666666" points="552,-56 393,-56 393,-37 552,-37 552,-56"/>
<text text-anchor="middle" x="472.5" y="-44" font-family="Helvetica,sans-Serif" font-size="10.00">SceneManager::getSimSpeed</text>
</a>
</g>
</g>
<!-- Node2&#45;&gt;Node7 -->
<g id="edge6_Node000002_Node000007" class="edge">
<title>Node2&#45;&gt;Node7</title>
<g id="a_edge6_Node000002_Node000007"><a xlink:title=" ">
<path fill="none" stroke="#63b8ff" d="M286.19,-91.97C308.51,-84.09 341.56,-73.03 371,-65.5 381.67,-62.77 393.07,-60.25 404.21,-58"/>
<polygon fill="#63b8ff" stroke="#63b8ff" points="405.22,-61.37 414.35,-56 403.87,-54.5 405.22,-61.37"/>
</a>
</g>
</g>
<!-- Node9 -->
<g id="Node000009" class="node">
<title>Node9</title>
<g id="a_Node000009"><a xlink:href="namespaceJsonUtils.html#aa9bf373a72d131da0b8d71ade1295533" target="_top" xlink:title=" ">
<polygon fill="white" stroke="#666666" points="532,-19 413,-19 413,0 532,0 532,-19"/>
<text text-anchor="middle" x="472.5" y="-7" font-family="Helvetica,sans-Serif" font-size="10.00">JsonUtils::vec3ToJson</text>
</a>
</g>
</g>
<!-- Node2&#45;&gt;Node9 -->
<g id="edge8_Node000002_Node000009" class="edge">
<title>Node2&#45;&gt;Node9</title>
<g id="a_edge8_Node000002_Node000009"><a xlink:title=" ">
<path fill="none" stroke="#63b8ff" d="M271.13,-91.97C290.22,-76.17 331.01,-44.67 371,-28.5 381.08,-24.42 392.09,-21.21 403.01,-18.68"/>
<polygon fill="#63b8ff" stroke="#63b8ff" points="403.94,-22.06 412.98,-16.54 402.47,-15.21 403.94,-22.06"/>
</a>
</g>
</g>
<!-- Node8 -->
<g id="Node000008" class="node">
<title>Node8</title>
<g id="a_Node000008"><a xlink:href="classOpenGLWindow.html#aeabd921e42871e7ecb6d2297580d5b81" target="_top" xlink:title=" ">
<polygon fill="white" stroke="#666666" points="773,-56 610,-56 610,-37 773,-37 773,-56"/>
<text text-anchor="middle" x="691.5" y="-44" font-family="Helvetica,sans-Serif" font-size="10.00">OpenGLWindow::getSimSpeed</text>
</a>
</g>
</g>
<!-- Node7&#45;&gt;Node8 -->
<g id="edge7_Node000007_Node000008" class="edge">
<title>Node7&#45;&gt;Node8</title>
<g id="a_edge7_Node000007_Node000008"><a xlink:title=" ">
<path fill="none" stroke="#63b8ff" d="M552.15,-46.5C567.57,-46.5 583.87,-46.5 599.65,-46.5"/>
<polygon fill="#63b8ff" stroke="#63b8ff" points="599.93,-50 609.93,-46.5 599.93,-43 599.93,-50"/>
</a>
</g>
</g>
</g>
</svg>
