<?xml version="1.0" encoding="UTF-8" standalone="no"?>
<!DOCTYPE svg PUBLIC "-//W3C//DTD SVG 1.1//EN"
 "http://www.w3.org/Graphics/SVG/1.1/DTD/svg11.dtd">
<!-- Generated by graphviz version 2.43.0 (0)
 -->
<!-- Title: Physics::PhysicsBody::setThermalProperty Pages: 1 -->
<!--zoomable 301 -->

<svg id="main" version="1.1" xmlns="http://www.w3.org/2000/svg" xmlns:xlink="http://www.w3.org/1999/xlink" xml:space="preserve" onload="init(evt)">
<style type="text/css"><![CDATA[
.node, .edge {opacity: 0.7;}
.node.selected, .edge.selected {opacity: 1;}
.edge:hover path { stroke: red; }
.edge:hover polygon { stroke: red; fill: red; }
]]></style>

<defs>
  <circle id="rim" cx="0" cy="0" r="7"/>
  <circle id="rim2" cx="0" cy="0" r="3.5"/>
  <g id="zoomPlus">
    <use xlink:href="#rim" fill="#404040"><set attributeName="fill" to="#808080" begin="zoomplus.mouseover" end="zoomplus.mouseout"/></use>
    <path d="M-4,0h8M0,-4v8" fill="none" stroke="white" stroke-width="1.5" pointer-events="none"/>
  </g>
  <g id="zoomMin">
    <use xlink:href="#rim" fill="#404040"><set attributeName="fill" to="#808080" begin="zoomminus.mouseover" end="zoomminus.mouseout"/></use>
    <path d="M-4,0h8" fill="none" stroke="white" stroke-width="1.5" pointer-events="none"/>
  </g>
  <g id="arrowUp" transform="translate(30 24)">
    <use xlink:href="#rim"/>
    <path pointer-events="none" fill="none" stroke="white" stroke-width="1.5" d="M0,-3.0v7 M-2.5,-0.5L0,-3.0L2.5,-0.5"/>
  </g>
  <g id="arrowRight" transform="rotate(90) translate(36 -43)">
    <use xlink:href="#rim"/>
    <path pointer-events="none" fill="none" stroke="white" stroke-width="1.5" d="M0,-3.0v7 M-2.5,-0.5L0,-3.0L2.5,-0.5"/>
  </g>
  <g id="arrowDown" transform="rotate(180) translate(-30 -48)">
    <use xlink:href="#rim"/>
    <path pointer-events="none" fill="none" stroke="white" stroke-width="1.5" d="M0,-3.0v7 M-2.5,-0.5L0,-3.0L2.5,-0.5"/>
  </g>
  <g id="arrowLeft" transform="rotate(270) translate(-36 17)">
    <use xlink:href="#rim"/>
    <path pointer-events="none" fill="none" stroke="white" stroke-width="1.5" d="M0,-3.0v7 M-2.5,-0.5L0,-3.0L2.5,-0.5"/>
  </g>
  <g id="resetDef">
    <use xlink:href="#rim2" fill="#404040"><set attributeName="fill" to="#808080" begin="reset.mouseover" end="reset.mouseout"/></use>
  </g>
</defs>
<script type="application/ecmascript">
var viewWidth = 924;
var viewHeight = 301;
var sectionId = 'dynsection-20';
</script>
<script type="application/ecmascript" xlink:href="svg.min.js"/>
<svg id="graph" class="graph">
<g id="viewport">
<title>Physics::PhysicsBody::setThermalProperty</title>
<!-- Node1 -->
<g id="Node000001" class="node">
<title>Node1</title>
<g id="a_Node000001"><a xlink:title=" ">
<polygon fill="#999999" stroke="#666666" points="916,-166.24 795,-166.24 795,-136.24 916,-136.24 916,-166.24"/>
<text text-anchor="start" x="803" y="-154.24" font-family="Helvetica,sans-Serif" font-size="10.00">Physics::PhysicsBody</text>
<text text-anchor="middle" x="855.5" y="-143.24" font-family="Helvetica,sans-Serif" font-size="10.00">::setThermalProperty</text>
</a>
</g>
</g>
<!-- Node2 -->
<g id="Node000002" class="node">
<title>Node2</title>
<g id="a_Node000002"><a xlink:href="namespaceScenePresets_1_1Astronomy.html#a0b0e571c83bcdb2d16710b9425375b5f" target="_top" xlink:title=" ">
<polygon fill="white" stroke="#666666" points="747.5,-231.24 606.5,-231.24 606.5,-201.24 747.5,-201.24 747.5,-231.24"/>
<text text-anchor="start" x="614.5" y="-219.24" font-family="Helvetica,sans-Serif" font-size="10.00">ScenePresets::Astronomy</text>
<text text-anchor="middle" x="677" y="-208.24" font-family="Helvetica,sans-Serif" font-size="10.00">::createRealSolarSystem</text>
</a>
</g>
</g>
<!-- Node1&#45;&gt;Node2 -->
<g id="edge1_Node000001_Node000002" class="edge">
<title>Node1&#45;&gt;Node2</title>
<g id="a_edge1_Node000001_Node000002"><a xlink:title=" ">
<path fill="none" stroke="#63b8ff" d="M812.77,-170.42C796.21,-177.7 776.87,-185.78 759,-192.24 750.45,-195.33 741.29,-198.33 732.31,-201.11"/>
<polygon fill="#63b8ff" stroke="#63b8ff" points="814.45,-173.5 822.17,-166.25 811.61,-167.1 814.45,-173.5"/>
</a>
</g>
</g>
<!-- Node3 -->
<g id="Node000003" class="node">
<title>Node3</title>
<g id="a_Node000003"><a xlink:href="classSceneSerializer.html#a490f2bd87e7c9459ee47be974653b433" target="_top" xlink:title=" ">
<polygon fill="white" stroke="#666666" points="759,-182.74 595,-182.74 595,-163.74 759,-163.74 759,-182.74"/>
<text text-anchor="middle" x="677" y="-170.74" font-family="Helvetica,sans-Serif" font-size="10.00">SceneSerializer::loadFromJson</text>
</a>
</g>
</g>
<!-- Node1&#45;&gt;Node3 -->
<g id="edge2_Node000001_Node000003" class="edge">
<title>Node1&#45;&gt;Node3</title>
<g id="a_edge2_Node000001_Node000003"><a xlink:title=" ">
<path fill="none" stroke="#63b8ff" d="M784.53,-159.96C774.59,-161.2 764.33,-162.48 754.28,-163.73"/>
<polygon fill="#63b8ff" stroke="#63b8ff" points="785.25,-163.4 794.75,-158.69 784.39,-156.45 785.25,-163.4"/>
</a>
</g>
</g>
<!-- Node7 -->
<g id="Node000007" class="node">
<title>Node7</title>
<g id="a_Node000007"><a xlink:href="classPhysics_1_1PointMass.html#ace083146035c884b09da82466fdfbf86" target="_top" xlink:title=" ">
<polygon fill="white" stroke="#666666" points="736.5,-145.24 617.5,-145.24 617.5,-115.24 736.5,-115.24 736.5,-145.24"/>
<text text-anchor="start" x="625.5" y="-133.24" font-family="Helvetica,sans-Serif" font-size="10.00">Physics::PointMass</text>
<text text-anchor="middle" x="677" y="-122.24" font-family="Helvetica,sans-Serif" font-size="10.00">::setThermalProperty</text>
</a>
</g>
</g>
<!-- Node1&#45;&gt;Node7 -->
<g id="edge6_Node000001_Node000007" class="edge">
<title>Node1&#45;&gt;Node7</title>
<g id="a_edge6_Node000001_Node000007"><a xlink:title=" ">
<path fill="none" stroke="#63b8ff" d="M784.5,-142.91C768.7,-141.03 752.08,-139.06 736.79,-137.24"/>
<polygon fill="#63b8ff" stroke="#63b8ff" points="784.4,-146.43 794.75,-144.13 785.23,-139.48 784.4,-146.43"/>
</a>
</g>
</g>
<!-- Node11 -->
<g id="Node000011" class="node">
<title>Node11</title>
<g id="a_Node000011"><a xlink:href="PhysicsTests_8cpp.html#aae14e19948f282c097b0e8761991c0e1" target="_top" xlink:title=" ">
<polygon fill="white" stroke="#666666" points="281.5,-158.74 240.5,-158.74 240.5,-139.74 281.5,-139.74 281.5,-158.74"/>
<text text-anchor="middle" x="261" y="-146.74" font-family="Helvetica,sans-Serif" font-size="10.00">TEST</text>
</a>
</g>
</g>
<!-- Node1&#45;&gt;Node11 -->
<g id="edge15_Node000001_Node000011" class="edge">
<title>Node1&#45;&gt;Node11</title>
<g id="a_edge15_Node000001_Node000011"><a xlink:title=" ">
<path fill="none" stroke="#63b8ff" d="M821.85,-130.83C769.03,-99.15 660.49,-39.58 559,-18.24 483.76,-2.42 456.63,12.15 386,-18.24 326.46,-43.87 282.13,-113.7 267.35,-139.5"/>
<polygon fill="#63b8ff" stroke="#63b8ff" points="820.08,-133.85 830.45,-136.03 823.71,-127.86 820.08,-133.85"/>
</a>
</g>
</g>
<!-- Node4 -->
<g id="Node000004" class="node">
<title>Node4</title>
<g id="a_Node000004"><a xlink:href="classSceneManager.html#a7b7b0a022dcce523178e8414fb8e4463" target="_top" xlink:title=" ">
<polygon fill="white" stroke="#666666" points="545,-292.74 400,-292.74 400,-273.74 545,-273.74 545,-292.74"/>
<text text-anchor="middle" x="472.5" y="-280.74" font-family="Helvetica,sans-Serif" font-size="10.00">SceneManager::loadScene</text>
</a>
</g>
</g>
<!-- Node3&#45;&gt;Node4 -->
<g id="edge3_Node000003_Node000004" class="edge">
<title>Node3&#45;&gt;Node4</title>
<g id="a_edge3_Node000003_Node000004"><a xlink:title=" ">
<path fill="none" stroke="#63b8ff" d="M602.24,-187.31C599.71,-188.8 597.28,-190.44 595,-192.24 566.93,-214.43 587.2,-242.22 559,-264.24 554.09,-268.08 548.55,-271.17 542.73,-273.67"/>
<polygon fill="#63b8ff" stroke="#63b8ff" points="603.84,-190.43 611.21,-182.82 600.7,-184.17 603.84,-190.43"/>
</a>
</g>
</g>
<!-- Node5 -->
<g id="Node000005" class="node">
<title>Node5</title>
<g id="a_Node000005"><a xlink:href="classSceneManager.html#a59f13c06bf3f19d5e543502a0ddd0467" target="_top" xlink:title=" ">
<polygon fill="white" stroke="#666666" points="350,-292.74 172,-292.74 172,-273.74 350,-273.74 350,-292.74"/>
<text text-anchor="middle" x="261" y="-280.74" font-family="Helvetica,sans-Serif" font-size="10.00">SceneManager::processHeldKeys</text>
</a>
</g>
</g>
<!-- Node4&#45;&gt;Node5 -->
<g id="edge4_Node000004_Node000005" class="edge">
<title>Node4&#45;&gt;Node5</title>
<g id="a_edge4_Node000004_Node000005"><a xlink:title=" ">
<path fill="none" stroke="#63b8ff" d="M389.72,-283.24C376.77,-283.24 363.33,-283.24 350.24,-283.24"/>
<polygon fill="#63b8ff" stroke="#63b8ff" points="389.99,-286.74 399.99,-283.24 389.99,-279.74 389.99,-286.74"/>
</a>
</g>
</g>
<!-- Node6 -->
<g id="Node000006" class="node">
<title>Node6</title>
<g id="a_Node000006"><a xlink:href="classOpenGLWindow.html#aea9ee69010d8451ab00cd488a8c6717d" target="_top" xlink:title=" ">
<polygon fill="white" stroke="#666666" points="136,-292.74 0,-292.74 0,-273.74 136,-273.74 136,-292.74"/>
<text text-anchor="middle" x="68" y="-280.74" font-family="Helvetica,sans-Serif" font-size="10.00">OpenGLWindow::paintGL</text>
</a>
</g>
</g>
<!-- Node5&#45;&gt;Node6 -->
<g id="edge5_Node000005_Node000006" class="edge">
<title>Node5&#45;&gt;Node6</title>
<g id="a_edge5_Node000005_Node000006"><a xlink:title=" ">
<path fill="none" stroke="#63b8ff" d="M161.6,-283.24C152.94,-283.24 144.32,-283.24 136,-283.24"/>
<polygon fill="#63b8ff" stroke="#63b8ff" points="161.77,-286.74 171.77,-283.24 161.77,-279.74 161.77,-286.74"/>
</a>
</g>
</g>
<!-- Node8 -->
<g id="Node000008" class="node">
<title>Node8</title>
<g id="a_Node000008"><a xlink:href="classPhysics_1_1PointMass.html#aa94536ea681b33ed376700aae820cef0" target="_top" xlink:title=" ">
<polygon fill="white" stroke="#666666" points="559,-255.24 386,-255.24 386,-225.24 559,-225.24 559,-255.24"/>
<text text-anchor="start" x="394" y="-243.24" font-family="Helvetica,sans-Serif" font-size="10.00">Physics::PointMass</text>
<text text-anchor="middle" x="472.5" y="-232.24" font-family="Helvetica,sans-Serif" font-size="10.00">::resolveCollisionWithPointMass</text>
</a>
</g>
</g>
<!-- Node7&#45;&gt;Node8 -->
<g id="edge7_Node000007_Node000008" class="edge">
<title>Node7&#45;&gt;Node8</title>
<g id="a_edge7_Node000007_Node000008"><a xlink:title=" ">
<path fill="none" stroke="#63b8ff" d="M608.04,-145.98C603.41,-148.36 599,-151.09 595,-154.24 569.95,-173.94 584.19,-196.73 559,-216.24 554.61,-219.64 549.77,-222.56 544.68,-225.06"/>
<polygon fill="#63b8ff" stroke="#63b8ff" points="609.51,-149.16 617.17,-141.83 606.62,-142.78 609.51,-149.16"/>
</a>
</g>
</g>
<!-- Node9 -->
<g id="Node000009" class="node">
<title>Node9</title>
<g id="a_Node000009"><a xlink:href="classPhysics_1_1RigidBody.html#a4e7d7e2da6c0011c98745c15903a2b15" target="_top" xlink:title=" ">
<polygon fill="white" stroke="#666666" points="559,-207.24 386,-207.24 386,-177.24 559,-177.24 559,-207.24"/>
<text text-anchor="start" x="394" y="-195.24" font-family="Helvetica,sans-Serif" font-size="10.00">Physics::RigidBody</text>
<text text-anchor="middle" x="472.5" y="-184.24" font-family="Helvetica,sans-Serif" font-size="10.00">::resolveCollisionWithPointMass</text>
</a>
</g>
</g>
<!-- Node7&#45;&gt;Node9 -->
<g id="edge8_Node000007_Node000009" class="edge">
<title>Node7&#45;&gt;Node9</title>
<g id="a_edge8_Node000007_Node000009"><a xlink:title=" ">
<path fill="none" stroke="#63b8ff" d="M614.8,-148.27C608.11,-150.27 601.41,-152.29 595,-154.24 570.58,-161.68 543.46,-170.14 521.05,-177.19"/>
<polygon fill="#63b8ff" stroke="#63b8ff" points="615.96,-151.57 624.55,-145.36 613.96,-144.87 615.96,-151.57"/>
</a>
</g>
</g>
<!-- Node7&#45;&gt;Node11 -->
<g id="edge14_Node000007_Node000011" class="edge">
<title>Node7&#45;&gt;Node11</title>
<g id="a_edge14_Node000007_Node000011"><a xlink:title=" ">
<path fill="none" stroke="#63b8ff" d="M606.85,-133.42C510.13,-137.85 339.79,-145.67 281.9,-148.33"/>
<polygon fill="#63b8ff" stroke="#63b8ff" points="607.29,-136.9 617.12,-132.94 606.97,-129.91 607.29,-136.9"/>
</a>
</g>
</g>
<!-- Node12 -->
<g id="Node000012" class="node">
<title>Node12</title>
<g id="a_Node000012"><a xlink:href="PhysicsTests_8cpp.html#adf77e4c378263518bc0385482a700b33" target="_top" xlink:title=" ">
<polygon fill="white" stroke="#666666" points="493,-120.74 452,-120.74 452,-101.74 493,-101.74 493,-120.74"/>
<text text-anchor="middle" x="472.5" y="-108.74" font-family="Helvetica,sans-Serif" font-size="10.00">TEST</text>
</a>
</g>
</g>
<!-- Node7&#45;&gt;Node12 -->
<g id="edge11_Node000007_Node000012" class="edge">
<title>Node7&#45;&gt;Node12</title>
<g id="a_edge11_Node000007_Node000012"><a xlink:title=" ">
<path fill="none" stroke="#63b8ff" d="M607.43,-123.81C567.37,-120.05 519.68,-115.58 493.38,-113.11"/>
<polygon fill="#63b8ff" stroke="#63b8ff" points="607.15,-127.3 617.43,-124.75 607.8,-120.33 607.15,-127.3"/>
</a>
</g>
</g>
<!-- Node13 -->
<g id="Node000013" class="node">
<title>Node13</title>
<g id="a_Node000013"><a xlink:href="PhysicsTests_8cpp.html#a6bd5358388f351202a6a8ed4c3367b32" target="_top" xlink:title=" ">
<polygon fill="white" stroke="#666666" points="493,-83.74 452,-83.74 452,-64.74 493,-64.74 493,-83.74"/>
<text text-anchor="middle" x="472.5" y="-71.74" font-family="Helvetica,sans-Serif" font-size="10.00">TEST</text>
</a>
</g>
</g>
<!-- Node7&#45;&gt;Node13 -->
<g id="edge12_Node000007_Node000013" class="edge">
<title>Node7&#45;&gt;Node13</title>
<g id="a_edge12_Node000007_Node000013"><a xlink:title=" ">
<path fill="none" stroke="#63b8ff" d="M623.68,-111.93C603.59,-105.25 580.37,-97.94 559,-92.24 536.72,-86.3 510.76,-81.07 493.34,-77.8"/>
<polygon fill="#63b8ff" stroke="#63b8ff" points="622.67,-115.28 633.26,-115.15 624.9,-108.65 622.67,-115.28"/>
</a>
</g>
</g>
<!-- Node14 -->
<g id="Node000014" class="node">
<title>Node14</title>
<g id="a_Node000014"><a xlink:href="PhysicsTests_8cpp.html#a0c08826252388d8a395a642f81cb5962" target="_top" xlink:title=" ">
<polygon fill="white" stroke="#666666" points="493,-46.74 452,-46.74 452,-27.74 493,-27.74 493,-46.74"/>
<text text-anchor="middle" x="472.5" y="-34.74" font-family="Helvetica,sans-Serif" font-size="10.00">TEST</text>
</a>
</g>
</g>
<!-- Node7&#45;&gt;Node14 -->
<g id="edge13_Node000007_Node000014" class="edge">
<title>Node7&#45;&gt;Node14</title>
<g id="a_edge13_Node000007_Node000014"><a xlink:title=" ">
<path fill="none" stroke="#63b8ff" d="M649.19,-109.02C626.43,-92.03 592.26,-68.87 559,-55.24 537.38,-46.39 510.83,-41.67 493.11,-39.32"/>
<polygon fill="#63b8ff" stroke="#63b8ff" points="647.24,-111.94 657.33,-115.2 651.48,-106.36 647.24,-111.94"/>
</a>
</g>
</g>
<!-- Node10 -->
<g id="Node000010" class="node">
<title>Node10</title>
<g id="a_Node000010"><a xlink:href="classPhysics_1_1PointMass.html#a6876155fbb7a943c6d2e06f4c6707959" target="_top" xlink:title=" ">
<polygon fill="white" stroke="#666666" points="347.5,-207.24 174.5,-207.24 174.5,-177.24 347.5,-177.24 347.5,-207.24"/>
<text text-anchor="start" x="182.5" y="-195.24" font-family="Helvetica,sans-Serif" font-size="10.00">Physics::PointMass</text>
<text text-anchor="middle" x="261" y="-184.24" font-family="Helvetica,sans-Serif" font-size="10.00">::resolveCollisionWithRigidBody</text>
</a>
</g>
</g>
<!-- Node9&#45;&gt;Node10 -->
<g id="edge9_Node000009_Node000010" class="edge">
<title>Node9&#45;&gt;Node10</title>
<g id="a_edge9_Node000009_Node000010"><a xlink:title=" ">
<path fill="none" stroke="#63b8ff" d="M375.82,-192.24C366.4,-192.24 356.89,-192.24 347.58,-192.24"/>
<polygon fill="#63b8ff" stroke="#63b8ff" points="375.99,-195.74 385.99,-192.24 375.99,-188.74 375.99,-195.74"/>
</a>
</g>
</g>
<!-- Node9&#45;&gt;Node11 -->
<g id="edge10_Node000009_Node000011" class="edge">
<title>Node9&#45;&gt;Node11</title>
<g id="a_edge10_Node000009_Node000011"><a xlink:title=" ">
<path fill="none" stroke="#63b8ff" d="M388.43,-175.19C349.49,-167.2 306.36,-158.35 281.88,-153.32"/>
<polygon fill="#63b8ff" stroke="#63b8ff" points="387.73,-178.62 398.23,-177.2 389.14,-171.76 387.73,-178.62"/>
</a>
</g>
</g>
</g>
</svg>

<g id="navigator" transform="translate(0 0)" fill="#404254">
  <rect fill="#f2f5e9" fill-opacity="0.5" stroke="#606060" stroke-width=".5" x="0" y="0" width="60" height="60"/>
  <use id="zoomplus" xlink:href="#zoomPlus" x="17" y="9" onmousedown="handleZoom(evt,'in')"/>
  <use id="zoomminus" xlink:href="#zoomMin" x="42" y="9" onmousedown="handleZoom(evt,'out')"/>
  <use id="reset" xlink:href="#resetDef" x="30" y="36" onmousedown="handleReset()"/>
   <use id="arrowup" xlink:href="#arrowUp" x="0" y="0" onmousedown="handlePan(0,-1)"/>
  <use id="arrowright" xlink:href="#arrowRight" x="0" y="0" onmousedown="handlePan(1,0)"/>
  <use id="arrowdown" xlink:href="#arrowDown" x="0" y="0" onmousedown="handlePan(0,1)"/>
  <use id="arrowleft" xlink:href="#arrowLeft" x="0" y="0" onmousedown="handlePan(-1,0)"/>
</g>
<svg viewBox="0 0 15 15" width="100%" height="30px" preserveAspectRatio="xMaxYMin meet">
 <g id="arrow_out" transform="scale(0.3 0.3)">
  <a xlink:href="classPhysics_1_1PhysicsBody_ad76815a1ef3d53f6c2901afa5277554f_icgraph_org.svg" target="_base">
   <rect id="button" ry="5" rx="5" y="6" x="6" height="38" width="38"
        fill="#f2f5e9" fill-opacity="0.5" stroke="#606060" stroke-width="1.0"/>
   <path id="arrow"
     d="M 11.500037,31.436501 C 11.940474,20.09759 22.043105,11.32322 32.158766,21.979434 L 37.068811,17.246167 C 37.068811,17.246167 37.088388,32 37.088388,32 L 22.160133,31.978069 C 22.160133,31.978069 26.997745,27.140456 26.997745,27.140456 C 18.528582,18.264221 13.291696,25.230495 11.500037,31.436501 z"
     style="fill:#404040;"/>
  </a>
 </g>
</svg>

<style type='text/css'>
<![CDATA[
[data-mouse-over-selected='false'] { opacity: 0.7; }
[data-mouse-over-selected='true']  { opacity: 1.0; }
]]>
</style>
<script type="application/ecmascript"><![CDATA[
document.addEventListener('DOMContentLoaded', (event) => {
  highlightEdges();
  highlightAdjacentNodes();
});
]]></script>
</svg>
