<?xml version="1.0" encoding="UTF-8" standalone="no"?>
<!DOCTYPE svg PUBLIC "-//W3C//DTD SVG 1.1//EN"
 "http://www.w3.org/Graphics/SVG/1.1/DTD/svg11.dtd">
<!-- Generated by graphviz version 2.43.0 (0)
 -->
<!-- Title: MainWindow::MainWindow Pages: 1 -->
<svg width="347pt" height="138pt"
 viewBox="0.00 0.00 347.00 138.00" xmlns="http://www.w3.org/2000/svg" xmlns:xlink="http://www.w3.org/1999/xlink">

<svg id="main" version="1.1" xmlns="http://www.w3.org/2000/svg" xmlns:xlink="http://www.w3.org/1999/xlink" xml:space="preserve" onload="init(evt)">
<style type="text/css"><![CDATA[
.node, .edge {opacity: 0.7;}
.node.selected, .edge.selected {opacity: 1;}
.edge:hover path { stroke: red; }
.edge:hover polygon { stroke: red; fill: red; }
]]></style>
<script type="application/ecmascript" xlink:href="svg.min.js"/>
<svg id="graph" class="graph">
<g id="graph0" class="graph" transform="scale(1 1) rotate(0) translate(4 134)">
<title>MainWindow::MainWindow</title>
<!-- Node1 -->
<g id="Node000001" class="node">
<title>Node1</title>
<g id="a_Node000001"><a xlink:title=" ">
<polygon fill="#999999" stroke="#666666" points="148,-74 0,-74 0,-55 148,-55 148,-74"/>
<text text-anchor="middle" x="74" y="-62" font-family="Helvetica,sans-Serif" font-size="10.00">MainWindow::MainWindow</text>
</a>
</g>
</g>
<!-- Node2 -->
<g id="Node000002" class="node">
<title>Node2</title>
<g id="a_Node000002"><a xlink:href="classOpenGLWindow.html#aa081ce2299c65f77ec2a3f663361b174" target="_top" xlink:title=" ">
<polygon fill="white" stroke="#666666" points="339,-130 184,-130 184,-111 339,-111 339,-130"/>
<text text-anchor="middle" x="261.5" y="-118" font-family="Helvetica,sans-Serif" font-size="10.00">OpenGLWindow::fpsUpdated</text>
</a>
</g>
</g>
<!-- Node1&#45;&gt;Node2 -->
<g id="edge1_Node000001_Node000002" class="edge">
<title>Node1&#45;&gt;Node2</title>
<g id="a_edge1_Node000001_Node000002"><a xlink:title=" ">
<path fill="none" stroke="#63b8ff" d="M99.87,-74C121.81,-82.19 154.75,-93.99 184,-102.5 191.2,-104.59 198.83,-106.62 206.37,-108.51"/>
<polygon fill="#63b8ff" stroke="#63b8ff" points="205.66,-111.94 216.2,-110.9 207.32,-105.13 205.66,-111.94"/>
</a>
</g>
</g>
<!-- Node3 -->
<g id="Node000003" class="node">
<title>Node3</title>
<g id="a_Node000003"><a xlink:href="classAppSettings.html#a1a7b7175ec4769346b50d6c5735cfca9" target="_top" xlink:title=" ">
<polygon fill="white" stroke="#666666" points="330.5,-93 192.5,-93 192.5,-74 330.5,-74 330.5,-93"/>
<text text-anchor="middle" x="261.5" y="-81" font-family="Helvetica,sans-Serif" font-size="10.00">AppSettings::getInstance</text>
</a>
</g>
</g>
<!-- Node1&#45;&gt;Node3 -->
<g id="edge2_Node000001_Node000003" class="edge">
<title>Node1&#45;&gt;Node3</title>
<g id="a_edge2_Node000001_Node000003"><a xlink:title=" ">
<path fill="none" stroke="#63b8ff" d="M148.05,-71.98C159.23,-73.13 170.8,-74.31 182.09,-75.47"/>
<polygon fill="#63b8ff" stroke="#63b8ff" points="182.05,-78.98 192.36,-76.52 182.77,-72.02 182.05,-78.98"/>
</a>
</g>
</g>
<!-- Node4 -->
<g id="Node000004" class="node">
<title>Node4</title>
<g id="a_Node000004"><a xlink:href="classOpenGLWindow.html#ac4e6f99f1a4dbda0da5e8d293b817094" target="_top" xlink:title=" ">
<polygon fill="white" stroke="#666666" points="339,-56 184,-56 184,-37 339,-37 339,-56"/>
<text text-anchor="middle" x="261.5" y="-44" font-family="Helvetica,sans-Serif" font-size="10.00">OpenGLWindow::glInitialized</text>
</a>
</g>
</g>
<!-- Node1&#45;&gt;Node4 -->
<g id="edge3_Node000001_Node000004" class="edge">
<title>Node1&#45;&gt;Node4</title>
<g id="a_edge3_Node000001_Node000004"><a xlink:title=" ">
<path fill="none" stroke="#63b8ff" d="M148.05,-57.41C156.5,-56.59 165.18,-55.75 173.8,-54.91"/>
<polygon fill="#63b8ff" stroke="#63b8ff" points="174.24,-58.39 183.86,-53.94 173.56,-51.42 174.24,-58.39"/>
</a>
</g>
</g>
<!-- Node5 -->
<g id="Node000005" class="node">
<title>Node5</title>
<g id="a_Node000005"><a xlink:href="classAppSettings.html#a56d651b4b01e68f25a89a6d25fe66be0" target="_top" xlink:title=" ">
<polygon fill="white" stroke="#666666" points="335.5,-19 187.5,-19 187.5,0 335.5,0 335.5,-19"/>
<text text-anchor="middle" x="261.5" y="-7" font-family="Helvetica,sans-Serif" font-size="10.00">AppSettings::registerGroup</text>
</a>
</g>
</g>
<!-- Node1&#45;&gt;Node5 -->
<g id="edge4_Node000001_Node000005" class="edge">
<title>Node1&#45;&gt;Node5</title>
<g id="a_edge4_Node000001_Node000005"><a xlink:title=" ">
<path fill="none" stroke="#63b8ff" d="M102.15,-54.9C124.09,-47.29 155.86,-36.63 184,-28.5 192.22,-26.13 200.99,-23.78 209.55,-21.58"/>
<polygon fill="#63b8ff" stroke="#63b8ff" points="210.61,-24.93 219.45,-19.09 208.9,-18.14 210.61,-24.93"/>
</a>
</g>
</g>
</g>
</svg>
</svg>

<style type='text/css'>
<![CDATA[
[data-mouse-over-selected='false'] { opacity: 0.7; }
[data-mouse-over-selected='true']  { opacity: 1.0; }
]]>
</style>
<script type="application/ecmascript"><![CDATA[
document.addEventListener('DOMContentLoaded', (event) => {
  highlightEdges();
  highlightAdjacentNodes();
});
]]></script>
</svg>
