<?xml version="1.0" encoding="UTF-8" standalone="no"?>
<!DOCTYPE svg PUBLIC "-//W3C//DTD SVG 1.1//EN"
 "http://www.w3.org/Graphics/SVG/1.1/DTD/svg11.dtd">
<!-- Generated by graphviz version 2.43.0 (0)
 -->
<!-- Title: Physics::RigidBody::resolveCollisionWithPointMass Pages: 1 -->
<svg width="338pt" height="326pt"
 viewBox="0.00 0.00 338.00 326.00" xmlns="http://www.w3.org/2000/svg" xmlns:xlink="http://www.w3.org/1999/xlink">

<svg id="main" version="1.1" xmlns="http://www.w3.org/2000/svg" xmlns:xlink="http://www.w3.org/1999/xlink" xml:space="preserve" onload="init(evt)">
<style type="text/css"><![CDATA[
.node, .edge {opacity: 0.7;}
.node.selected, .edge.selected {opacity: 1;}
.edge:hover path { stroke: red; }
.edge:hover polygon { stroke: red; fill: red; }
]]></style>
<script type="application/ecmascript" xlink:href="svg.min.js"/>
<svg id="graph" class="graph">
<g id="graph0" class="graph" transform="scale(1 1) rotate(0) translate(4 322)">
<title>Physics::RigidBody::resolveCollisionWithPointMass</title>
<!-- Node1 -->
<g id="Node000001" class="node">
<title>Node1</title>
<g id="a_Node000001"><a xlink:title=" ">
<polygon fill="#999999" stroke="#666666" points="173,-174 0,-174 0,-144 173,-144 173,-174"/>
<text text-anchor="start" x="8" y="-162" font-family="Helvetica,sans-Serif" font-size="10.00">Physics::RigidBody</text>
<text text-anchor="middle" x="86.5" y="-151" font-family="Helvetica,sans-Serif" font-size="10.00">::resolveCollisionWithPointMass</text>
</a>
</g>
</g>
<!-- Node2 -->
<g id="Node000002" class="node">
<title>Node2</title>
<g id="a_Node000002"><a xlink:href="classPhysics_1_1PointMass.html#aad903165a31093747ecd85f644a84bd3" target="_top" xlink:title=" ">
<polygon fill="white" stroke="#666666" points="324.5,-318 214.5,-318 214.5,-288 324.5,-288 324.5,-318"/>
<text text-anchor="start" x="222.5" y="-306" font-family="Helvetica,sans-Serif" font-size="10.00">Physics::PointMass</text>
<text text-anchor="middle" x="269.5" y="-295" font-family="Helvetica,sans-Serif" font-size="10.00">::applyImpulse</text>
</a>
</g>
</g>
<!-- Node1&#45;&gt;Node2 -->
<g id="edge1_Node000001_Node000002" class="edge">
<title>Node1&#45;&gt;Node2</title>
<g id="a_edge1_Node000001_Node000002"><a xlink:title=" ">
<path fill="none" stroke="#63b8ff" d="M99.45,-174.22C119.66,-199.09 162.91,-248.72 209,-279 211.28,-280.5 213.66,-281.93 216.12,-283.29"/>
<polygon fill="#63b8ff" stroke="#63b8ff" points="214.72,-286.5 225.21,-287.92 217.89,-280.27 214.72,-286.5"/>
</a>
</g>
</g>
<!-- Node3 -->
<g id="Node000003" class="node">
<title>Node3</title>
<g id="a_Node000003"><a xlink:href="classPhysics_1_1PhysicsBody.html#a6fb25efd74ad88f01f5c481bd516bad8" target="_top" xlink:title=" ">
<polygon fill="white" stroke="#666666" points="330,-270 209,-270 209,-240 330,-240 330,-270"/>
<text text-anchor="start" x="217" y="-258" font-family="Helvetica,sans-Serif" font-size="10.00">Physics::PhysicsBody</text>
<text text-anchor="middle" x="269.5" y="-247" font-family="Helvetica,sans-Serif" font-size="10.00">::getAllForces</text>
</a>
</g>
</g>
<!-- Node1&#45;&gt;Node3 -->
<g id="edge2_Node000001_Node000003" class="edge">
<title>Node1&#45;&gt;Node3</title>
<g id="a_edge2_Node000001_Node000003"><a xlink:title=" ">
<path fill="none" stroke="#63b8ff" d="M110.66,-174.16C134.68,-189.54 173.61,-213.5 209,-231 212.34,-232.65 215.83,-234.28 219.36,-235.87"/>
<polygon fill="#63b8ff" stroke="#63b8ff" points="218.2,-239.18 228.76,-239.95 220.98,-232.76 218.2,-239.18"/>
</a>
</g>
</g>
<!-- Node4 -->
<g id="Node000004" class="node">
<title>Node4</title>
<g id="a_Node000004"><a xlink:href="classPhysics_1_1PhysicsBody.html#a0c44730bee1088e28f85b4579f506c7d" target="_top" xlink:title=" ">
<polygon fill="white" stroke="#666666" points="330,-222 209,-222 209,-192 330,-192 330,-222"/>
<text text-anchor="start" x="217" y="-210" font-family="Helvetica,sans-Serif" font-size="10.00">Physics::PhysicsBody</text>
<text text-anchor="middle" x="269.5" y="-199" font-family="Helvetica,sans-Serif" font-size="10.00">::getMass</text>
</a>
</g>
</g>
<!-- Node1&#45;&gt;Node4 -->
<g id="edge3_Node000001_Node000004" class="edge">
<title>Node1&#45;&gt;Node4</title>
<g id="a_edge3_Node000001_Node000004"><a xlink:title=" ">
<path fill="none" stroke="#63b8ff" d="M144.27,-174.06C162.64,-178.93 183.16,-184.37 202.16,-189.41"/>
<polygon fill="#63b8ff" stroke="#63b8ff" points="201.37,-192.82 211.93,-192 203.16,-186.05 201.37,-192.82"/>
</a>
</g>
</g>
<!-- Node5 -->
<g id="Node000005" class="node">
<title>Node5</title>
<g id="a_Node000005"><a xlink:href="classPhysics_1_1PhysicsBody.html#ac4112265c85a99f20fb69008db8e8754" target="_top" xlink:title=" ">
<polygon fill="white" stroke="#666666" points="330,-174 209,-174 209,-144 330,-144 330,-174"/>
<text text-anchor="start" x="217" y="-162" font-family="Helvetica,sans-Serif" font-size="10.00">Physics::PhysicsBody</text>
<text text-anchor="middle" x="269.5" y="-151" font-family="Helvetica,sans-Serif" font-size="10.00">::getPosition</text>
</a>
</g>
</g>
<!-- Node1&#45;&gt;Node5 -->
<g id="edge4_Node000001_Node000005" class="edge">
<title>Node1&#45;&gt;Node5</title>
<g id="a_edge4_Node000001_Node000005"><a xlink:title=" ">
<path fill="none" stroke="#63b8ff" d="M173.23,-159C181.8,-159 190.44,-159 198.82,-159"/>
<polygon fill="#63b8ff" stroke="#63b8ff" points="198.89,-162.5 208.89,-159 198.89,-155.5 198.89,-162.5"/>
</a>
</g>
</g>
<!-- Node6 -->
<g id="Node000006" class="node">
<title>Node6</title>
<g id="a_Node000006"><a xlink:href="classPhysics_1_1PhysicsBody.html#a4bbf491e193cf2e29954c38a92865e29" target="_top" xlink:title=" ">
<polygon fill="white" stroke="#666666" points="330,-126 209,-126 209,-96 330,-96 330,-126"/>
<text text-anchor="start" x="217" y="-114" font-family="Helvetica,sans-Serif" font-size="10.00">Physics::PhysicsBody</text>
<text text-anchor="middle" x="269.5" y="-103" font-family="Helvetica,sans-Serif" font-size="10.00">::getVelocity</text>
</a>
</g>
</g>
<!-- Node1&#45;&gt;Node6 -->
<g id="edge5_Node000001_Node000006" class="edge">
<title>Node1&#45;&gt;Node6</title>
<g id="a_edge5_Node000001_Node000006"><a xlink:title=" ">
<path fill="none" stroke="#63b8ff" d="M144.27,-143.94C162.64,-139.07 183.16,-133.63 202.16,-128.59"/>
<polygon fill="#63b8ff" stroke="#63b8ff" points="203.16,-131.95 211.93,-126 201.37,-125.18 203.16,-131.95"/>
</a>
</g>
</g>
<!-- Node7 -->
<g id="Node000007" class="node">
<title>Node7</title>
<g id="a_Node000007"><a xlink:href="classPhysics_1_1PhysicsBody.html#acb13769923f966df84e223a540ace45d" target="_top" xlink:title=" ">
<polygon fill="white" stroke="#666666" points="330,-78 209,-78 209,-48 330,-48 330,-78"/>
<text text-anchor="start" x="217" y="-66" font-family="Helvetica,sans-Serif" font-size="10.00">Physics::PhysicsBody</text>
<text text-anchor="middle" x="269.5" y="-55" font-family="Helvetica,sans-Serif" font-size="10.00">::setForce</text>
</a>
</g>
</g>
<!-- Node1&#45;&gt;Node7 -->
<g id="edge6_Node000001_Node000007" class="edge">
<title>Node1&#45;&gt;Node7</title>
<g id="a_edge6_Node000001_Node000007"><a xlink:title=" ">
<path fill="none" stroke="#63b8ff" d="M110.66,-143.84C134.68,-128.46 173.61,-104.5 209,-87 212.34,-85.35 215.83,-83.72 219.36,-82.13"/>
<polygon fill="#63b8ff" stroke="#63b8ff" points="220.98,-85.24 228.76,-78.05 218.2,-78.82 220.98,-85.24"/>
</a>
</g>
</g>
<!-- Node8 -->
<g id="Node000008" class="node">
<title>Node8</title>
<g id="a_Node000008"><a xlink:href="classPhysics_1_1PhysicsBody.html#a1aedc823891235ff429c55e0740ab423" target="_top" xlink:title=" ">
<polygon fill="white" stroke="#666666" points="330,-30 209,-30 209,0 330,0 330,-30"/>
<text text-anchor="start" x="217" y="-18" font-family="Helvetica,sans-Serif" font-size="10.00">Physics::PhysicsBody</text>
<text text-anchor="middle" x="269.5" y="-7" font-family="Helvetica,sans-Serif" font-size="10.00">::setPosition</text>
</a>
</g>
</g>
<!-- Node1&#45;&gt;Node8 -->
<g id="edge7_Node000001_Node000008" class="edge">
<title>Node1&#45;&gt;Node8</title>
<g id="a_edge7_Node000001_Node000008"><a xlink:title=" ">
<path fill="none" stroke="#63b8ff" d="M99.45,-143.78C119.66,-118.91 162.91,-69.28 209,-39 211.28,-37.5 213.66,-36.07 216.12,-34.71"/>
<polygon fill="#63b8ff" stroke="#63b8ff" points="217.89,-37.73 225.21,-30.08 214.72,-31.5 217.89,-37.73"/>
</a>
</g>
</g>
</g>
</svg>
</svg>

<style type='text/css'>
<![CDATA[
[data-mouse-over-selected='false'] { opacity: 0.7; }
[data-mouse-over-selected='true']  { opacity: 1.0; }
]]>
</style>
<script type="application/ecmascript"><![CDATA[
document.addEventListener('DOMContentLoaded', (event) => {
  highlightEdges();
  highlightAdjacentNodes();
});
]]></script>
</svg>
