<?xml version="1.0" encoding="UTF-8" standalone="no"?>
<!DOCTYPE svg PUBLIC "-//W3C//DTD SVG 1.1//EN"
 "http://www.w3.org/Graphics/SVG/1.1/DTD/svg11.dtd">
<!-- Generated by graphviz version 2.43.0 (0)
 -->
<!-- Title: ICustomDrawable Pages: 1 -->
<svg width="286pt" height="137pt"
 viewBox="0.00 0.00 285.50 137.00" xmlns="http://www.w3.org/2000/svg" xmlns:xlink="http://www.w3.org/1999/xlink">
<g id="graph0" class="graph" transform="scale(1 1) rotate(0) translate(4 133)">
<title>ICustomDrawable</title>
<!-- Node1 -->
<g id="Node000001" class="node">
<title>Node1</title>
<g id="a_Node000001"><a xlink:title="Interface for objects with specialized rendering requirements.">
<polygon fill="#999999" stroke="#666666" points="186.5,-74 82.5,-74 82.5,-55 186.5,-55 186.5,-74"/>
<text text-anchor="middle" x="134.5" y="-62" font-family="Helvetica,sans-Serif" font-size="10.00">ICustomDrawable</text>
</a>
</g>
</g>
<!-- Node3 -->
<g id="Node000003" class="node">
<title>Node3</title>
<g id="a_Node000003"><a xlink:href="classColliders.html" target="_top" xlink:title=" ">
<polygon fill="white" stroke="#666666" points="59,-19 0,-19 0,0 59,0 59,-19"/>
<text text-anchor="middle" x="29.5" y="-7" font-family="Helvetica,sans-Serif" font-size="10.00">Colliders</text>
</a>
</g>
</g>
<!-- Node1&#45;&gt;Node3 -->
<g id="edge2_Node000001_Node000003" class="edge">
<title>Node1&#45;&gt;Node3</title>
<g id="a_edge2_Node000001_Node000003"><a xlink:title=" ">
<path fill="none" stroke="#63b8ff" d="M108.48,-50.37C89.2,-40.63 63.45,-27.64 46.68,-19.17"/>
<polygon fill="#63b8ff" stroke="#63b8ff" points="107.13,-53.6 117.63,-54.98 110.28,-47.35 107.13,-53.6"/>
</a>
</g>
</g>
<!-- Node4 -->
<g id="Node000004" class="node">
<title>Node4</title>
<g id="a_Node000004"><a xlink:href="classForces.html" target="_top" xlink:title=" ">
<polygon fill="white" stroke="#666666" points="125.5,-19 77.5,-19 77.5,0 125.5,0 125.5,-19"/>
<text text-anchor="middle" x="101.5" y="-7" font-family="Helvetica,sans-Serif" font-size="10.00">Forces</text>
</a>
</g>
</g>
<!-- Node1&#45;&gt;Node4 -->
<g id="edge3_Node000001_Node000004" class="edge">
<title>Node1&#45;&gt;Node4</title>
<g id="a_edge3_Node000001_Node000004"><a xlink:title=" ">
<path fill="none" stroke="#63b8ff" d="M123.67,-46.1C118.03,-37.04 111.38,-26.37 106.85,-19.09"/>
<polygon fill="#63b8ff" stroke="#63b8ff" points="120.79,-48.11 129.05,-54.75 126.74,-44.41 120.79,-48.11"/>
</a>
</g>
</g>
<!-- Node5 -->
<g id="Node000005" class="node">
<title>Node5</title>
<g id="a_Node000005"><a xlink:href="classGizmo.html" target="_top" xlink:title="Interactive 3D manipulation widget for transforming scene objects.">
<polygon fill="white" stroke="#666666" points="191.5,-19 143.5,-19 143.5,0 191.5,0 191.5,-19"/>
<text text-anchor="middle" x="167.5" y="-7" font-family="Helvetica,sans-Serif" font-size="10.00">Gizmo</text>
</a>
</g>
</g>
<!-- Node1&#45;&gt;Node5 -->
<g id="edge4_Node000001_Node000005" class="edge">
<title>Node1&#45;&gt;Node5</title>
<g id="a_edge4_Node000001_Node000005"><a xlink:title=" ">
<path fill="none" stroke="#63b8ff" d="M145.33,-46.1C150.97,-37.04 157.62,-26.37 162.15,-19.09"/>
<polygon fill="#63b8ff" stroke="#63b8ff" points="142.26,-44.41 139.95,-54.75 148.21,-48.11 142.26,-44.41"/>
</a>
</g>
</g>
<!-- Node6 -->
<g id="Node000006" class="node">
<title>Node6</title>
<g id="a_Node000006"><a xlink:href="classPathTraces.html" target="_top" xlink:title=" ">
<polygon fill="white" stroke="#666666" points="277.5,-19 209.5,-19 209.5,0 277.5,0 277.5,-19"/>
<text text-anchor="middle" x="243.5" y="-7" font-family="Helvetica,sans-Serif" font-size="10.00">PathTraces</text>
</a>
</g>
</g>
<!-- Node1&#45;&gt;Node6 -->
<g id="edge5_Node000001_Node000006" class="edge">
<title>Node1&#45;&gt;Node6</title>
<g id="a_edge5_Node000001_Node000006"><a xlink:title=" ">
<path fill="none" stroke="#63b8ff" d="M161.23,-50.5C181.29,-40.75 208.18,-27.68 225.67,-19.17"/>
<polygon fill="#63b8ff" stroke="#63b8ff" points="159.48,-47.46 152.01,-54.98 162.54,-53.76 159.48,-47.46"/>
</a>
</g>
</g>
<!-- Node2 -->
<g id="Node000002" class="node">
<title>Node2</title>
<g id="a_Node000002"><a xlink:href="classIDrawable.html" target="_top" xlink:title="Base interface for all renderable objects in the scene.">
<polygon fill="white" stroke="#666666" points="167.5,-129 101.5,-129 101.5,-110 167.5,-110 167.5,-129"/>
<text text-anchor="middle" x="134.5" y="-117" font-family="Helvetica,sans-Serif" font-size="10.00">IDrawable</text>
</a>
</g>
</g>
<!-- Node2&#45;&gt;Node1 -->
<g id="edge1_Node000001_Node000002" class="edge">
<title>Node2&#45;&gt;Node1</title>
<g id="a_edge1_Node000001_Node000002"><a xlink:title=" ">
<path fill="none" stroke="#63b8ff" d="M134.5,-99.66C134.5,-90.93 134.5,-80.99 134.5,-74.09"/>
<polygon fill="#63b8ff" stroke="#63b8ff" points="131,-99.75 134.5,-109.75 138,-99.75 131,-99.75"/>
</a>
</g>
</g>
</g>
</svg>
