<?xml version="1.0" encoding="UTF-8" standalone="no"?>
<!DOCTYPE svg PUBLIC "-//W3C//DTD SVG 1.1//EN"
 "http://www.w3.org/Graphics/SVG/1.1/DTD/svg11.dtd">
<!-- Generated by graphviz version 2.43.0 (0)
 -->
<!-- Title: Shader::setMat4 Pages: 1 -->
<svg width="265pt" height="101pt"
 viewBox="0.00 0.00 265.00 101.00" xmlns="http://www.w3.org/2000/svg" xmlns:xlink="http://www.w3.org/1999/xlink">
<g id="graph0" class="graph" transform="scale(1 1) rotate(0) translate(4 97)">
<title>Shader::setMat4</title>
<!-- Node1 -->
<g id="Node000001" class="node">
<title>Node1</title>
<g id="a_Node000001"><a xlink:title=" ">
<polygon fill="#999999" stroke="#666666" points="257,-56 161,-56 161,-37 257,-37 257,-56"/>
<text text-anchor="middle" x="209" y="-44" font-family="Helvetica,sans-Serif" font-size="10.00">Shader::setMat4</text>
</a>
</g>
</g>
<!-- Node2 -->
<g id="Node000002" class="node">
<title>Node2</title>
<g id="a_Node000002"><a xlink:href="classRotateHandle.html#a7bfbb1db24b606d863fb9fc11819fc0d" target="_top" xlink:title=" ">
<polygon fill="white" stroke="#666666" points="119,-93 6,-93 6,-74 119,-74 119,-93"/>
<text text-anchor="middle" x="62.5" y="-81" font-family="Helvetica,sans-Serif" font-size="10.00">RotateHandle::draw</text>
</a>
</g>
</g>
<!-- Node1&#45;&gt;Node2 -->
<g id="edge1_Node000001_Node000002" class="edge">
<title>Node1&#45;&gt;Node2</title>
<g id="a_edge1_Node000001_Node000002"><a xlink:title=" ">
<path fill="none" stroke="#63b8ff" d="M160.89,-58.56C141.42,-63.55 119.16,-69.25 100.84,-73.94"/>
<polygon fill="#63b8ff" stroke="#63b8ff" points="161.97,-61.9 170.79,-56.03 160.23,-55.12 161.97,-61.9"/>
</a>
</g>
</g>
<!-- Node3 -->
<g id="Node000003" class="node">
<title>Node3</title>
<g id="a_Node000003"><a xlink:href="classTranslateHandle.html#a8f0a581aaebf3055c43d8834e8fdc750" target="_top" xlink:title=" ">
<polygon fill="white" stroke="#666666" points="125,-56 0,-56 0,-37 125,-37 125,-56"/>
<text text-anchor="middle" x="62.5" y="-44" font-family="Helvetica,sans-Serif" font-size="10.00">TranslateHandle::draw</text>
</a>
</g>
</g>
<!-- Node1&#45;&gt;Node3 -->
<g id="edge2_Node000001_Node000003" class="edge">
<title>Node1&#45;&gt;Node3</title>
<g id="a_edge2_Node000001_Node000003"><a xlink:title=" ">
<path fill="none" stroke="#63b8ff" d="M150.63,-46.5C142.25,-46.5 133.59,-46.5 125.13,-46.5"/>
<polygon fill="#63b8ff" stroke="#63b8ff" points="150.69,-50 160.69,-46.5 150.69,-43 150.69,-50"/>
</a>
</g>
</g>
<!-- Node4 -->
<g id="Node000004" class="node">
<title>Node4</title>
<g id="a_Node000004"><a xlink:href="classSceneObject.html#aa90d1b00df6c34bb573c159017eab844" target="_top" xlink:title=" ">
<polygon fill="white" stroke="#666666" points="116,-19 9,-19 9,0 116,0 116,-19"/>
<text text-anchor="middle" x="62.5" y="-7" font-family="Helvetica,sans-Serif" font-size="10.00">SceneObject::draw</text>
</a>
</g>
</g>
<!-- Node1&#45;&gt;Node4 -->
<g id="edge3_Node000001_Node000004" class="edge">
<title>Node1&#45;&gt;Node4</title>
<g id="a_edge3_Node000001_Node000004"><a xlink:title=" ">
<path fill="none" stroke="#63b8ff" d="M160.89,-34.44C141.42,-29.45 119.16,-23.75 100.84,-19.06"/>
<polygon fill="#63b8ff" stroke="#63b8ff" points="160.23,-37.88 170.79,-36.97 161.97,-31.1 160.23,-37.88"/>
</a>
</g>
</g>
</g>
</svg>
