<?xml version="1.0" encoding="UTF-8" standalone="no"?>
<!DOCTYPE svg PUBLIC "-//W3C//DTD SVG 1.1//EN"
 "http://www.w3.org/Graphics/SVG/1.1/DTD/svg11.dtd">
<!-- Generated by graphviz version 2.43.0 (0)
 -->
<!-- Title: SceneObject::getRotationQuat Pages: 1 -->
<svg width="512pt" height="101pt"
 viewBox="0.00 0.00 512.00 101.00" xmlns="http://www.w3.org/2000/svg" xmlns:xlink="http://www.w3.org/1999/xlink">
<g id="graph0" class="graph" transform="scale(1 1) rotate(0) translate(4 97)">
<title>SceneObject::getRotationQuat</title>
<!-- Node1 -->
<g id="Node000001" class="node">
<title>Node1</title>
<g id="a_Node000001"><a xlink:title=" ">
<polygon fill="#999999" stroke="#666666" points="504,-56 340,-56 340,-37 504,-37 504,-56"/>
<text text-anchor="middle" x="422" y="-44" font-family="Helvetica,sans-Serif" font-size="10.00">SceneObject::getRotationQuat</text>
</a>
</g>
</g>
<!-- Node2 -->
<g id="Node000002" class="node">
<title>Node2</title>
<g id="a_Node000002"><a xlink:href="classScaleHandle.html#ae2d8a999110797881a5f7d00cb1bc4e2" target="_top" xlink:title=" ">
<polygon fill="white" stroke="#666666" points="304,-93 143,-93 143,-74 304,-74 304,-93"/>
<text text-anchor="middle" x="223.5" y="-81" font-family="Helvetica,sans-Serif" font-size="10.00">ScaleHandle::getModelMatrix</text>
</a>
</g>
</g>
<!-- Node1&#45;&gt;Node2 -->
<g id="edge1_Node000001_Node000002" class="edge">
<title>Node1&#45;&gt;Node2</title>
<g id="a_edge1_Node000001_Node000002"><a xlink:title=" ">
<path fill="none" stroke="#63b8ff" d="M360.56,-57.88C333.24,-63.02 301.33,-69.03 275.27,-73.94"/>
<polygon fill="#63b8ff" stroke="#63b8ff" points="361.22,-61.32 370.4,-56.03 359.92,-54.44 361.22,-61.32"/>
</a>
</g>
</g>
<!-- Node4 -->
<g id="Node000004" class="node">
<title>Node4</title>
<g id="a_Node000004"><a xlink:href="classScaleHandle.html#a2a4525153790045bfa5fcae08d793dda" target="_top" xlink:title=" ">
<polygon fill="white" stroke="#666666" points="283,-56 164,-56 164,-37 283,-37 283,-56"/>
<text text-anchor="middle" x="223.5" y="-44" font-family="Helvetica,sans-Serif" font-size="10.00">ScaleHandle::onDrag</text>
</a>
</g>
</g>
<!-- Node1&#45;&gt;Node4 -->
<g id="edge3_Node000001_Node000004" class="edge">
<title>Node1&#45;&gt;Node4</title>
<g id="a_edge3_Node000001_Node000004"><a xlink:title=" ">
<path fill="none" stroke="#63b8ff" d="M329.61,-46.5C313.82,-46.5 297.79,-46.5 283.17,-46.5"/>
<polygon fill="#63b8ff" stroke="#63b8ff" points="329.94,-50 339.94,-46.5 329.94,-43 329.94,-50"/>
</a>
</g>
</g>
<!-- Node5 -->
<g id="Node000005" class="node">
<title>Node5</title>
<g id="a_Node000005"><a xlink:href="classRotateHandle.html#a4aabaa2e05ebb7938e4ebd7f18cad242" target="_top" xlink:title=" ">
<polygon fill="white" stroke="#666666" points="300,-19 147,-19 147,0 300,0 300,-19"/>
<text text-anchor="middle" x="223.5" y="-7" font-family="Helvetica,sans-Serif" font-size="10.00">RotateHandle::setDragState</text>
</a>
</g>
</g>
<!-- Node1&#45;&gt;Node5 -->
<g id="edge4_Node000001_Node000005" class="edge">
<title>Node1&#45;&gt;Node5</title>
<g id="a_edge4_Node000001_Node000005"><a xlink:title=" ">
<path fill="none" stroke="#63b8ff" d="M360.56,-35.12C333.24,-29.98 301.33,-23.97 275.27,-19.06"/>
<polygon fill="#63b8ff" stroke="#63b8ff" points="359.92,-38.56 370.4,-36.97 361.22,-31.68 359.92,-38.56"/>
</a>
</g>
</g>
<!-- Node3 -->
<g id="Node000003" class="node">
<title>Node3</title>
<g id="a_Node000003"><a xlink:href="classScaleHandle.html#a98b28d2f8f7b2ad87d4d8a6ce412b888" target="_top" xlink:title=" ">
<polygon fill="white" stroke="#666666" points="107,-93 0,-93 0,-74 107,-74 107,-93"/>
<text text-anchor="middle" x="53.5" y="-81" font-family="Helvetica,sans-Serif" font-size="10.00">ScaleHandle::draw</text>
</a>
</g>
</g>
<!-- Node2&#45;&gt;Node3 -->
<g id="edge2_Node000002_Node000003" class="edge">
<title>Node2&#45;&gt;Node3</title>
<g id="a_edge2_Node000002_Node000003"><a xlink:title=" ">
<path fill="none" stroke="#63b8ff" d="M132.76,-83.5C124.11,-83.5 115.54,-83.5 107.43,-83.5"/>
<polygon fill="#63b8ff" stroke="#63b8ff" points="132.93,-87 142.93,-83.5 132.93,-80 132.93,-87"/>
</a>
</g>
</g>
</g>
</svg>
