<?xml version="1.0" encoding="UTF-8" standalone="no"?>
<!DOCTYPE svg PUBLIC "-//W3C//DTD SVG 1.1//EN"
 "http://www.w3.org/Graphics/SVG/1.1/DTD/svg11.dtd">
<!-- Generated by graphviz version 2.43.0 (0)
 -->
<!-- Title: ScaleHandle::draw Pages: 1 -->
<svg width="512pt" height="101pt"
 viewBox="0.00 0.00 512.00 101.00" xmlns="http://www.w3.org/2000/svg" xmlns:xlink="http://www.w3.org/1999/xlink">
<g id="graph0" class="graph" transform="scale(1 1) rotate(0) translate(4 97)">
<title>ScaleHandle::draw</title>
<!-- Node1 -->
<g id="Node000001" class="node">
<title>Node1</title>
<g id="a_Node000001"><a xlink:title=" ">
<polygon fill="#999999" stroke="#666666" points="107,-56 0,-56 0,-37 107,-37 107,-56"/>
<text text-anchor="middle" x="53.5" y="-44" font-family="Helvetica,sans-Serif" font-size="10.00">ScaleHandle::draw</text>
</a>
</g>
</g>
<!-- Node2 -->
<g id="Node000002" class="node">
<title>Node2</title>
<g id="a_Node000002"><a xlink:href="classMesh.html#a194205a979361c68cef87f323eb145b4" target="_top" xlink:title=" ">
<polygon fill="white" stroke="#666666" points="283.5,-93 163.5,-93 163.5,-74 283.5,-74 283.5,-93"/>
<text text-anchor="middle" x="223.5" y="-81" font-family="Helvetica,sans-Serif" font-size="10.00">Mesh::drawInstanced</text>
</a>
</g>
</g>
<!-- Node1&#45;&gt;Node2 -->
<g id="edge1_Node000001_Node000002" class="edge">
<title>Node1&#45;&gt;Node2</title>
<g id="a_edge1_Node000001_Node000002"><a xlink:title=" ">
<path fill="none" stroke="#63b8ff" d="M97.76,-56.03C119.53,-60.82 146.11,-66.68 169.13,-71.75"/>
<polygon fill="#63b8ff" stroke="#63b8ff" points="168.57,-75.21 179.09,-73.94 170.08,-68.37 168.57,-75.21"/>
</a>
</g>
</g>
<!-- Node3 -->
<g id="Node000003" class="node">
<title>Node3</title>
<g id="a_Node000003"><a xlink:href="classScaleHandle.html#ae2d8a999110797881a5f7d00cb1bc4e2" target="_top" xlink:title=" ">
<polygon fill="white" stroke="#666666" points="304,-56 143,-56 143,-37 304,-37 304,-56"/>
<text text-anchor="middle" x="223.5" y="-44" font-family="Helvetica,sans-Serif" font-size="10.00">ScaleHandle::getModelMatrix</text>
</a>
</g>
</g>
<!-- Node1&#45;&gt;Node3 -->
<g id="edge2_Node000001_Node000003" class="edge">
<title>Node1&#45;&gt;Node3</title>
<g id="a_edge2_Node000001_Node000003"><a xlink:title=" ">
<path fill="none" stroke="#63b8ff" d="M107.2,-46.5C115.36,-46.5 123.98,-46.5 132.68,-46.5"/>
<polygon fill="#63b8ff" stroke="#63b8ff" points="132.92,-50 142.92,-46.5 132.92,-43 132.92,-50"/>
</a>
</g>
</g>
<!-- Node7 -->
<g id="Node000007" class="node">
<title>Node7</title>
<g id="a_Node000007"><a xlink:href="classShader.html#a3c7896754f0e1fca8bde860cfef63832" target="_top" xlink:title=" ">
<polygon fill="white" stroke="#666666" points="260.5,-19 186.5,-19 186.5,0 260.5,0 260.5,-19"/>
<text text-anchor="middle" x="223.5" y="-7" font-family="Helvetica,sans-Serif" font-size="10.00">Shader::use</text>
</a>
</g>
</g>
<!-- Node1&#45;&gt;Node7 -->
<g id="edge6_Node000001_Node000007" class="edge">
<title>Node1&#45;&gt;Node7</title>
<g id="a_edge6_Node000001_Node000007"><a xlink:title=" ">
<path fill="none" stroke="#63b8ff" d="M97.76,-36.97C121.95,-31.65 152.07,-25.01 176.66,-19.6"/>
<polygon fill="#63b8ff" stroke="#63b8ff" points="177.46,-23 186.47,-17.43 175.96,-16.17 177.46,-23"/>
</a>
</g>
</g>
<!-- Node4 -->
<g id="Node000004" class="node">
<title>Node4</title>
<g id="a_Node000004"><a xlink:href="IHandle_8h.html#a964bf79581c06e837f1d55438f924d2e" target="_top" xlink:title=" ">
<polygon fill="white" stroke="#666666" points="447.5,-93 396.5,-93 396.5,-74 447.5,-74 447.5,-93"/>
<text text-anchor="middle" x="422" y="-81" font-family="Helvetica,sans-Serif" font-size="10.00">axisDir</text>
</a>
</g>
</g>
<!-- Node3&#45;&gt;Node4 -->
<g id="edge3_Node000003_Node000004" class="edge">
<title>Node3&#45;&gt;Node4</title>
<g id="a_edge3_Node000003_Node000004"><a xlink:title=" ">
<path fill="none" stroke="#63b8ff" d="M275.1,-56.03C310.04,-62.61 355.59,-71.18 386.43,-76.99"/>
<polygon fill="#63b8ff" stroke="#63b8ff" points="385.82,-80.44 396.29,-78.85 387.11,-73.56 385.82,-80.44"/>
</a>
</g>
</g>
<!-- Node5 -->
<g id="Node000005" class="node">
<title>Node5</title>
<g id="a_Node000005"><a xlink:href="classSceneObject.html#a3d1aa613dd4f4ee6947754a355a48cc9" target="_top" xlink:title=" ">
<polygon fill="white" stroke="#666666" points="491,-56 353,-56 353,-37 491,-37 491,-56"/>
<text text-anchor="middle" x="422" y="-44" font-family="Helvetica,sans-Serif" font-size="10.00">SceneObject::getPosition</text>
</a>
</g>
</g>
<!-- Node3&#45;&gt;Node5 -->
<g id="edge4_Node000003_Node000005" class="edge">
<title>Node3&#45;&gt;Node5</title>
<g id="a_edge4_Node000003_Node000005"><a xlink:title=" ">
<path fill="none" stroke="#63b8ff" d="M304.14,-46.5C316.9,-46.5 330.09,-46.5 342.82,-46.5"/>
<polygon fill="#63b8ff" stroke="#63b8ff" points="342.91,-50 352.91,-46.5 342.91,-43 342.91,-50"/>
</a>
</g>
</g>
<!-- Node6 -->
<g id="Node000006" class="node">
<title>Node6</title>
<g id="a_Node000006"><a xlink:href="classSceneObject.html#a7ba00c8012e21f9833880b89e311aedf" target="_top" xlink:title=" ">
<polygon fill="white" stroke="#666666" points="504,-19 340,-19 340,0 504,0 504,-19"/>
<text text-anchor="middle" x="422" y="-7" font-family="Helvetica,sans-Serif" font-size="10.00">SceneObject::getRotationQuat</text>
</a>
</g>
</g>
<!-- Node3&#45;&gt;Node6 -->
<g id="edge5_Node000003_Node000006" class="edge">
<title>Node3&#45;&gt;Node6</title>
<g id="a_edge5_Node000003_Node000006"><a xlink:title=" ">
<path fill="none" stroke="#63b8ff" d="M275.1,-36.97C301.13,-32.07 333.05,-26.06 360.38,-20.91"/>
<polygon fill="#63b8ff" stroke="#63b8ff" points="361.05,-24.35 370.23,-19.06 359.75,-17.47 361.05,-24.35"/>
</a>
</g>
</g>
</g>
</svg>
