<?xml version="1.0" encoding="UTF-8" standalone="no"?>
<!DOCTYPE svg PUBLIC "-//W3C//DTD SVG 1.1//EN"
 "http://www.w3.org/Graphics/SVG/1.1/DTD/svg11.dtd">
<!-- Generated by graphviz version 2.43.0 (0)
 -->
<!-- Title: Mesh::draw Pages: 1 -->
<svg width="242pt" height="101pt"
 viewBox="0.00 0.00 242.00 101.00" xmlns="http://www.w3.org/2000/svg" xmlns:xlink="http://www.w3.org/1999/xlink">
<g id="graph0" class="graph" transform="scale(1 1) rotate(0) translate(4 97)">
<title>Mesh::draw</title>
<!-- Node1 -->
<g id="Node000001" class="node">
<title>Node1</title>
<g id="a_Node000001"><a xlink:title=" ">
<polygon fill="#999999" stroke="#666666" points="234,-56 161,-56 161,-37 234,-37 234,-56"/>
<text text-anchor="middle" x="197.5" y="-44" font-family="Helvetica,sans-Serif" font-size="10.00">Mesh::draw</text>
</a>
</g>
</g>
<!-- Node2 -->
<g id="Node000002" class="node">
<title>Node2</title>
<g id="a_Node000002"><a xlink:href="classRotateHandle.html#a7bfbb1db24b606d863fb9fc11819fc0d" target="_top" xlink:title=" ">
<polygon fill="white" stroke="#666666" points="119,-93 6,-93 6,-74 119,-74 119,-93"/>
<text text-anchor="middle" x="62.5" y="-81" font-family="Helvetica,sans-Serif" font-size="10.00">RotateHandle::draw</text>
</a>
</g>
</g>
<!-- Node1&#45;&gt;Node2 -->
<g id="edge1_Node000001_Node000002" class="edge">
<title>Node1&#45;&gt;Node2</title>
<g id="a_edge1_Node000001_Node000002"><a xlink:title=" ">
<path fill="none" stroke="#63b8ff" d="M152.19,-58.83C134.58,-63.73 114.62,-69.28 98.1,-73.88"/>
<polygon fill="#63b8ff" stroke="#63b8ff" points="153.55,-62.08 162.25,-56.03 151.68,-55.34 153.55,-62.08"/>
</a>
</g>
</g>
<!-- Node3 -->
<g id="Node000003" class="node">
<title>Node3</title>
<g id="a_Node000003"><a xlink:href="classTranslateHandle.html#a8f0a581aaebf3055c43d8834e8fdc750" target="_top" xlink:title=" ">
<polygon fill="white" stroke="#666666" points="125,-56 0,-56 0,-37 125,-37 125,-56"/>
<text text-anchor="middle" x="62.5" y="-44" font-family="Helvetica,sans-Serif" font-size="10.00">TranslateHandle::draw</text>
</a>
</g>
</g>
<!-- Node1&#45;&gt;Node3 -->
<g id="edge2_Node000001_Node000003" class="edge">
<title>Node1&#45;&gt;Node3</title>
<g id="a_edge2_Node000001_Node000003"><a xlink:title=" ">
<path fill="none" stroke="#63b8ff" d="M150.72,-46.5C142.48,-46.5 133.77,-46.5 125.17,-46.5"/>
<polygon fill="#63b8ff" stroke="#63b8ff" points="150.86,-50 160.86,-46.5 150.86,-43 150.86,-50"/>
</a>
</g>
</g>
<!-- Node4 -->
<g id="Node000004" class="node">
<title>Node4</title>
<g id="a_Node000004"><a xlink:href="classSceneObject.html#aa90d1b00df6c34bb573c159017eab844" target="_top" xlink:title=" ">
<polygon fill="white" stroke="#666666" points="116,-19 9,-19 9,0 116,0 116,-19"/>
<text text-anchor="middle" x="62.5" y="-7" font-family="Helvetica,sans-Serif" font-size="10.00">SceneObject::draw</text>
</a>
</g>
</g>
<!-- Node1&#45;&gt;Node4 -->
<g id="edge3_Node000001_Node000004" class="edge">
<title>Node1&#45;&gt;Node4</title>
<g id="a_edge3_Node000001_Node000004"><a xlink:title=" ">
<path fill="none" stroke="#63b8ff" d="M152.19,-34.17C134.58,-29.27 114.62,-23.72 98.1,-19.12"/>
<polygon fill="#63b8ff" stroke="#63b8ff" points="151.68,-37.66 162.25,-36.97 153.55,-30.92 151.68,-37.66"/>
</a>
</g>
</g>
</g>
</svg>
