<?xml version="1.0" encoding="UTF-8" standalone="no"?>
<!DOCTYPE svg PUBLIC "-//W3C//DTD SVG 1.1//EN"
 "http://www.w3.org/Graphics/SVG/1.1/DTD/svg11.dtd">
<!-- Generated by graphviz version 2.43.0 (0)
 -->
<!-- Title: SceneManager::removeFromPhysicsSystem Pages: 1 -->
<svg width="1336pt" height="64pt"
 viewBox="0.00 0.00 1336.00 64.00" xmlns="http://www.w3.org/2000/svg" xmlns:xlink="http://www.w3.org/1999/xlink">
<g id="graph0" class="graph" transform="scale(1 1) rotate(0) translate(4 60)">
<title>SceneManager::removeFromPhysicsSystem</title>
<!-- Node1 -->
<g id="Node000001" class="node">
<title>Node1</title>
<g id="a_Node000001"><a xlink:title=" ">
<polygon fill="#999999" stroke="#666666" points="1328,-42.5 1171,-42.5 1171,-12.5 1328,-12.5 1328,-42.5"/>
<text text-anchor="start" x="1179" y="-30.5" font-family="Helvetica,sans-Serif" font-size="10.00">SceneManager::removeFrom</text>
<text text-anchor="middle" x="1249.5" y="-19.5" font-family="Helvetica,sans-Serif" font-size="10.00">PhysicsSystem</text>
</a>
</g>
</g>
<!-- Node2 -->
<g id="Node000002" class="node">
<title>Node2</title>
<g id="a_Node000002"><a xlink:href="classSceneManager.html#a4543114007c5bb40ddab62cd9f2ac613" target="_top" xlink:title=" ">
<polygon fill="white" stroke="#666666" points="1135,-56 978,-56 978,-37 1135,-37 1135,-56"/>
<text text-anchor="middle" x="1056.5" y="-44" font-family="Helvetica,sans-Serif" font-size="10.00">SceneManager::deleteObject</text>
</a>
</g>
</g>
<!-- Node1&#45;&gt;Node2 -->
<g id="edge1_Node000001_Node000002" class="edge">
<title>Node1&#45;&gt;Node2</title>
<g id="a_edge1_Node000001_Node000002"><a xlink:title=" ">
<path fill="none" stroke="#63b8ff" d="M1160.81,-36.22C1152.24,-37.08 1143.58,-37.94 1135.12,-38.78"/>
<polygon fill="#63b8ff" stroke="#63b8ff" points="1161.21,-39.7 1170.81,-35.23 1160.52,-32.74 1161.21,-39.7"/>
</a>
</g>
</g>
<!-- Node8 -->
<g id="Node000008" class="node">
<title>Node8</title>
<g id="a_Node000008"><a xlink:href="classSceneObject.html#ab258d6b94e982d5ae71ad4d7652381f4" target="_top" xlink:title=" ">
<polygon fill="white" stroke="#666666" points="1132.5,-19 980.5,-19 980.5,0 1132.5,0 1132.5,-19"/>
<text text-anchor="middle" x="1056.5" y="-7" font-family="Helvetica,sans-Serif" font-size="10.00">SceneObject::~SceneObject</text>
</a>
</g>
</g>
<!-- Node1&#45;&gt;Node8 -->
<g id="edge7_Node000001_Node000008" class="edge">
<title>Node1&#45;&gt;Node8</title>
<g id="a_edge7_Node000001_Node000008"><a xlink:title=" ">
<path fill="none" stroke="#63b8ff" d="M1160.7,-19.23C1151.33,-18.34 1141.85,-17.45 1132.65,-16.58"/>
<polygon fill="#63b8ff" stroke="#63b8ff" points="1160.53,-22.72 1170.81,-20.18 1161.19,-15.76 1160.53,-22.72"/>
</a>
</g>
</g>
<!-- Node3 -->
<g id="Node000003" class="node">
<title>Node3</title>
<g id="a_Node000003"><a xlink:href="classSceneManager.html#a53736fa499987ffff612d3ee7c85442c" target="_top" xlink:title=" ">
<polygon fill="white" stroke="#666666" points="942,-56 767,-56 767,-37 942,-37 942,-56"/>
<text text-anchor="middle" x="854.5" y="-44" font-family="Helvetica,sans-Serif" font-size="10.00">SceneManager::deleteAllObjects</text>
</a>
</g>
</g>
<!-- Node2&#45;&gt;Node3 -->
<g id="edge2_Node000002_Node000003" class="edge">
<title>Node2&#45;&gt;Node3</title>
<g id="a_edge2_Node000002_Node000003"><a xlink:title=" ">
<path fill="none" stroke="#63b8ff" d="M967.89,-46.5C959.31,-46.5 950.6,-46.5 942.03,-46.5"/>
<polygon fill="#63b8ff" stroke="#63b8ff" points="967.89,-50 977.89,-46.5 967.89,-43 967.89,-50"/>
</a>
</g>
</g>
<!-- Node4 -->
<g id="Node000004" class="node">
<title>Node4</title>
<g id="a_Node000004"><a xlink:href="classSceneSerializer.html#a490f2bd87e7c9459ee47be974653b433" target="_top" xlink:title=" ">
<polygon fill="white" stroke="#666666" points="731,-56 567,-56 567,-37 731,-37 731,-56"/>
<text text-anchor="middle" x="649" y="-44" font-family="Helvetica,sans-Serif" font-size="10.00">SceneSerializer::loadFromJson</text>
</a>
</g>
</g>
<!-- Node3&#45;&gt;Node4 -->
<g id="edge3_Node000003_Node000004" class="edge">
<title>Node3&#45;&gt;Node4</title>
<g id="a_edge3_Node000003_Node000004"><a xlink:title=" ">
<path fill="none" stroke="#63b8ff" d="M756.81,-46.5C748.18,-46.5 739.5,-46.5 731.03,-46.5"/>
<polygon fill="#63b8ff" stroke="#63b8ff" points="756.9,-50 766.9,-46.5 756.9,-43 756.9,-50"/>
</a>
</g>
</g>
<!-- Node5 -->
<g id="Node000005" class="node">
<title>Node5</title>
<g id="a_Node000005"><a xlink:href="classSceneManager.html#a7b7b0a022dcce523178e8414fb8e4463" target="_top" xlink:title=" ">
<polygon fill="white" stroke="#666666" points="531,-56 386,-56 386,-37 531,-37 531,-56"/>
<text text-anchor="middle" x="458.5" y="-44" font-family="Helvetica,sans-Serif" font-size="10.00">SceneManager::loadScene</text>
</a>
</g>
</g>
<!-- Node4&#45;&gt;Node5 -->
<g id="edge4_Node000004_Node000005" class="edge">
<title>Node4&#45;&gt;Node5</title>
<g id="a_edge4_Node000004_Node000005"><a xlink:title=" ">
<path fill="none" stroke="#63b8ff" d="M556.9,-46.5C548.29,-46.5 539.65,-46.5 531.26,-46.5"/>
<polygon fill="#63b8ff" stroke="#63b8ff" points="556.97,-50 566.97,-46.5 556.97,-43 556.97,-50"/>
</a>
</g>
</g>
<!-- Node6 -->
<g id="Node000006" class="node">
<title>Node6</title>
<g id="a_Node000006"><a xlink:href="classSceneManager.html#a59f13c06bf3f19d5e543502a0ddd0467" target="_top" xlink:title=" ">
<polygon fill="white" stroke="#666666" points="350,-56 172,-56 172,-37 350,-37 350,-56"/>
<text text-anchor="middle" x="261" y="-44" font-family="Helvetica,sans-Serif" font-size="10.00">SceneManager::processHeldKeys</text>
</a>
</g>
</g>
<!-- Node5&#45;&gt;Node6 -->
<g id="edge5_Node000005_Node000006" class="edge">
<title>Node5&#45;&gt;Node6</title>
<g id="a_edge5_Node000005_Node000006"><a xlink:title=" ">
<path fill="none" stroke="#63b8ff" d="M375.68,-46.5C367.3,-46.5 358.75,-46.5 350.3,-46.5"/>
<polygon fill="#63b8ff" stroke="#63b8ff" points="375.81,-50 385.81,-46.5 375.81,-43 375.81,-50"/>
</a>
</g>
</g>
<!-- Node7 -->
<g id="Node000007" class="node">
<title>Node7</title>
<g id="a_Node000007"><a xlink:href="classOpenGLWindow.html#aea9ee69010d8451ab00cd488a8c6717d" target="_top" xlink:title=" ">
<polygon fill="white" stroke="#666666" points="136,-56 0,-56 0,-37 136,-37 136,-56"/>
<text text-anchor="middle" x="68" y="-44" font-family="Helvetica,sans-Serif" font-size="10.00">OpenGLWindow::paintGL</text>
</a>
</g>
</g>
<!-- Node6&#45;&gt;Node7 -->
<g id="edge6_Node000006_Node000007" class="edge">
<title>Node6&#45;&gt;Node7</title>
<g id="a_edge6_Node000006_Node000007"><a xlink:title=" ">
<path fill="none" stroke="#63b8ff" d="M161.6,-46.5C152.94,-46.5 144.32,-46.5 136,-46.5"/>
<polygon fill="#63b8ff" stroke="#63b8ff" points="161.77,-50 171.77,-46.5 161.77,-43 161.77,-50"/>
</a>
</g>
</g>
</g>
</svg>
