<?xml version="1.0" encoding="UTF-8" standalone="no"?>
<!DOCTYPE svg PUBLIC "-//W3C//DTD SVG 1.1//EN"
 "http://www.w3.org/Graphics/SVG/1.1/DTD/svg11.dtd">
<!-- Generated by graphviz version 2.43.0 (0)
 -->
<!-- Title: SceneObject::getObjectID Pages: 1 -->
<!--zoomable 540 -->

<svg id="main" version="1.1" xmlns="http://www.w3.org/2000/svg" xmlns:xlink="http://www.w3.org/1999/xlink" xml:space="preserve" onload="init(evt)">
<style type="text/css"><![CDATA[
.node, .edge {opacity: 0.7;}
.node.selected, .edge.selected {opacity: 1;}
.edge:hover path { stroke: red; }
.edge:hover polygon { stroke: red; fill: red; }
]]></style>

<defs>
  <circle id="rim" cx="0" cy="0" r="7"/>
  <circle id="rim2" cx="0" cy="0" r="3.5"/>
  <g id="zoomPlus">
    <use xlink:href="#rim" fill="#404040"><set attributeName="fill" to="#808080" begin="zoomplus.mouseover" end="zoomplus.mouseout"/></use>
    <path d="M-4,0h8M0,-4v8" fill="none" stroke="white" stroke-width="1.5" pointer-events="none"/>
  </g>
  <g id="zoomMin">
    <use xlink:href="#rim" fill="#404040"><set attributeName="fill" to="#808080" begin="zoomminus.mouseover" end="zoomminus.mouseout"/></use>
    <path d="M-4,0h8" fill="none" stroke="white" stroke-width="1.5" pointer-events="none"/>
  </g>
  <g id="arrowUp" transform="translate(30 24)">
    <use xlink:href="#rim"/>
    <path pointer-events="none" fill="none" stroke="white" stroke-width="1.5" d="M0,-3.0v7 M-2.5,-0.5L0,-3.0L2.5,-0.5"/>
  </g>
  <g id="arrowRight" transform="rotate(90) translate(36 -43)">
    <use xlink:href="#rim"/>
    <path pointer-events="none" fill="none" stroke="white" stroke-width="1.5" d="M0,-3.0v7 M-2.5,-0.5L0,-3.0L2.5,-0.5"/>
  </g>
  <g id="arrowDown" transform="rotate(180) translate(-30 -48)">
    <use xlink:href="#rim"/>
    <path pointer-events="none" fill="none" stroke="white" stroke-width="1.5" d="M0,-3.0v7 M-2.5,-0.5L0,-3.0L2.5,-0.5"/>
  </g>
  <g id="arrowLeft" transform="rotate(270) translate(-36 17)">
    <use xlink:href="#rim"/>
    <path pointer-events="none" fill="none" stroke="white" stroke-width="1.5" d="M0,-3.0v7 M-2.5,-0.5L0,-3.0L2.5,-0.5"/>
  </g>
  <g id="resetDef">
    <use xlink:href="#rim2" fill="#404040"><set attributeName="fill" to="#808080" begin="reset.mouseover" end="reset.mouseout"/></use>
  </g>
</defs>
<script type="application/ecmascript">
var viewWidth = 1549;
var viewHeight = 540;
var sectionId = 'dynsection-11';
</script>
<script type="application/ecmascript" xlink:href="svg.min.js"/>
<svg id="graph" class="graph">
<g id="viewport">
<title>SceneObject::getObjectID</title>
<!-- Node1 -->
<g id="Node000001" class="node">
<title>Node1</title>
<g id="a_Node000001"><a xlink:title="Gets the unique identifier for this object.">
<polygon fill="#999999" stroke="#666666" points="1541,-167 1400,-167 1400,-148 1541,-148 1541,-167"/>
<text text-anchor="middle" x="1470.5" y="-155" font-family="Helvetica,sans-Serif" font-size="10.00">SceneObject::getObjectID</text>
</a>
</g>
</g>
<!-- Node2 -->
<g id="Node000002" class="node">
<title>Node2</title>
<g id="a_Node000002"><a xlink:href="classSceneManager.html#a1daee617aa556b8af8a7202d3f8f28c8" target="_top" xlink:title=" ">
<polygon fill="white" stroke="#666666" points="936.5,-529 779.5,-529 779.5,-510 936.5,-510 936.5,-529"/>
<text text-anchor="middle" x="858" y="-517" font-family="Helvetica,sans-Serif" font-size="10.00">SceneManager::createObject</text>
</a>
</g>
</g>
<!-- Node1&#45;&gt;Node2 -->
<g id="edge1_Node000001_Node000002" class="edge">
<title>Node1&#45;&gt;Node2</title>
<g id="a_edge1_Node000001_Node000002"><a xlink:title=" ">
<path fill="none" stroke="#63b8ff" d="M1467.37,-177.28C1461.04,-226.24 1437.94,-354.09 1364,-423.5 1247.37,-532.99 1046.48,-536.22 936.51,-528.31"/>
<polygon fill="#63b8ff" stroke="#63b8ff" points="1470.87,-177.45 1468.58,-167.1 1463.92,-176.62 1470.87,-177.45"/>
</a>
</g>
</g>
<!-- Node9 -->
<g id="Node000009" class="node">
<title>Node9</title>
<g id="a_Node000009"><a xlink:href="classSceneManager.html#a926214cf6f1ad40c275720b9db4346a7" target="_top" xlink:title=" ">
<polygon fill="white" stroke="#666666" points="1364,-130 1194,-130 1194,-111 1364,-111 1364,-130"/>
<text text-anchor="middle" x="1279" y="-118" font-family="Helvetica,sans-Serif" font-size="10.00">SceneManager::createPrimitive</text>
</a>
</g>
</g>
<!-- Node1&#45;&gt;Node9 -->
<g id="edge8_Node000001_Node000009" class="edge">
<title>Node1&#45;&gt;Node9</title>
<g id="a_edge8_Node000001_Node000009"><a xlink:title=" ">
<path fill="none" stroke="#63b8ff" d="M1410.87,-146.05C1384.6,-140.92 1353.98,-134.94 1328.96,-130.06"/>
<polygon fill="#63b8ff" stroke="#63b8ff" points="1410.21,-149.49 1420.7,-147.97 1411.56,-142.62 1410.21,-149.49"/>
</a>
</g>
</g>
<!-- Node10 -->
<g id="Node000010" class="node">
<title>Node10</title>
<g id="a_Node000010"><a xlink:href="classSceneManager.html#a4543114007c5bb40ddab62cd9f2ac613" target="_top" xlink:title=" ">
<polygon fill="white" stroke="#666666" points="1357.5,-414 1200.5,-414 1200.5,-395 1357.5,-395 1357.5,-414"/>
<text text-anchor="middle" x="1279" y="-402" font-family="Helvetica,sans-Serif" font-size="10.00">SceneManager::deleteObject</text>
</a>
</g>
</g>
<!-- Node1&#45;&gt;Node10 -->
<g id="edge9_Node000001_Node000010" class="edge">
<title>Node1&#45;&gt;Node10</title>
<g id="a_edge9_Node000001_Node000010"><a xlink:title=" ">
<path fill="none" stroke="#63b8ff" d="M1464.47,-176.89C1453.11,-217.25 1421.8,-311.12 1364,-366.5 1350.13,-379.79 1330.81,-388.97 1314.19,-394.97"/>
<polygon fill="#63b8ff" stroke="#63b8ff" points="1467.86,-177.78 1467.1,-167.21 1461.1,-175.95 1467.86,-177.78"/>
</a>
</g>
</g>
<!-- Node14 -->
<g id="Node000014" class="node">
<title>Node14</title>
<g id="a_Node000014"><a xlink:href="classColliders.html#a95c816477110bbd72fbe67333e6f7da6" target="_top" xlink:title="Performs custom rendering for this object.">
<polygon fill="white" stroke="#666666" points="1323.5,-93 1234.5,-93 1234.5,-74 1323.5,-74 1323.5,-93"/>
<text text-anchor="middle" x="1279" y="-81" font-family="Helvetica,sans-Serif" font-size="10.00">Colliders::draw</text>
</a>
</g>
</g>
<!-- Node1&#45;&gt;Node14 -->
<g id="edge15_Node000001_Node000014" class="edge">
<title>Node1&#45;&gt;Node14</title>
<g id="a_edge15_Node000001_Node000014"><a xlink:title=" ">
<path fill="none" stroke="#63b8ff" d="M1445.55,-142.73C1424.68,-130.42 1393.26,-113.23 1364,-102.5 1351.23,-97.82 1336.92,-94.06 1323.78,-91.17"/>
<polygon fill="#63b8ff" stroke="#63b8ff" points="1443.97,-145.86 1454.35,-147.99 1447.57,-139.85 1443.97,-145.86"/>
</a>
</g>
</g>
<!-- Node15 -->
<g id="Node000015" class="node">
<title>Node15</title>
<g id="a_Node000015"><a xlink:href="classForces.html#a945a76ef36ff7ae831e85542658beafe" target="_top" xlink:title="Performs custom rendering for this object.">
<polygon fill="white" stroke="#666666" points="1318,-56 1240,-56 1240,-37 1318,-37 1318,-56"/>
<text text-anchor="middle" x="1279" y="-44" font-family="Helvetica,sans-Serif" font-size="10.00">Forces::draw</text>
</a>
</g>
</g>
<!-- Node1&#45;&gt;Node15 -->
<g id="edge16_Node000001_Node000015" class="edge">
<title>Node1&#45;&gt;Node15</title>
<g id="a_edge16_Node000001_Node000015"><a xlink:title=" ">
<path fill="none" stroke="#63b8ff" d="M1455.04,-140.19C1436.3,-118.95 1401.54,-83.42 1364,-64.5 1349.88,-57.39 1333.05,-53.08 1318.18,-50.47"/>
<polygon fill="#63b8ff" stroke="#63b8ff" points="1452.44,-142.54 1461.63,-147.83 1457.74,-137.97 1452.44,-142.54"/>
</a>
</g>
</g>
<!-- Node16 -->
<g id="Node000016" class="node">
<title>Node16</title>
<g id="a_Node000016"><a xlink:href="classSceneObject.html#a55121847afa67b03afa5a4a27922bde0" target="_top" xlink:title="Gets the complete per&#45;instance data for GPU upload.">
<polygon fill="white" stroke="#666666" points="1361,-19 1197,-19 1197,0 1361,0 1361,-19"/>
<text text-anchor="middle" x="1279" y="-7" font-family="Helvetica,sans-Serif" font-size="10.00">SceneObject::getInstanceData</text>
</a>
</g>
</g>
<!-- Node1&#45;&gt;Node16 -->
<g id="edge17_Node000001_Node000016" class="edge">
<title>Node1&#45;&gt;Node16</title>
<g id="a_edge17_Node000001_Node000016"><a xlink:title=" ">
<path fill="none" stroke="#63b8ff" d="M1459.82,-138.78C1443.91,-110.01 1409.44,-55.36 1364,-27.5 1358.41,-24.07 1352.25,-21.29 1345.9,-19.03"/>
<polygon fill="#63b8ff" stroke="#63b8ff" points="1456.84,-140.63 1464.66,-147.79 1463.01,-137.32 1456.84,-140.63"/>
</a>
</g>
</g>
<!-- Node18 -->
<g id="Node000018" class="node">
<title>Node18</title>
<g id="a_Node000018"><a xlink:href="classGlobalsInspectorWidget.html#ac983b68fcff61ff889660f3d93221072" target="_top" xlink:title=" ">
<polygon fill="white" stroke="#666666" points="717.5,-238.5 584.5,-238.5 584.5,-208.5 717.5,-208.5 717.5,-238.5"/>
<text text-anchor="start" x="592.5" y="-226.5" font-family="Helvetica,sans-Serif" font-size="10.00">GlobalsInspectorWidget</text>
<text text-anchor="middle" x="651" y="-215.5" font-family="Helvetica,sans-Serif" font-size="10.00">::runSolver</text>
</a>
</g>
</g>
<!-- Node1&#45;&gt;Node18 -->
<g id="edge19_Node000001_Node000018" class="edge">
<title>Node1&#45;&gt;Node18</title>
<g id="a_edge19_Node000001_Node000018"><a xlink:title=" ">
<path fill="none" stroke="#63b8ff" d="M1413.03,-168.88C1397.22,-171.74 1379.99,-174.54 1364,-176.5 1100.95,-208.7 1033.42,-197.79 769,-215.5 752.34,-216.62 734.35,-217.84 717.59,-218.98"/>
<polygon fill="#63b8ff" stroke="#63b8ff" points="1413.99,-172.26 1423.19,-167.01 1412.72,-165.38 1413.99,-172.26"/>
</a>
</g>
</g>
<!-- Node19 -->
<g id="Node000019" class="node">
<title>Node19</title>
<g id="a_Node000019"><a xlink:href="classSceneSerializer.html#a56e278bcdda1f03f192797122dd6d0c0" target="_top" xlink:title=" ">
<polygon fill="white" stroke="#666666" points="1355,-167 1203,-167 1203,-148 1355,-148 1355,-167"/>
<text text-anchor="middle" x="1279" y="-155" font-family="Helvetica,sans-Serif" font-size="10.00">SceneSerializer::saveToJson</text>
</a>
</g>
</g>
<!-- Node1&#45;&gt;Node19 -->
<g id="edge20_Node000001_Node000019" class="edge">
<title>Node1&#45;&gt;Node19</title>
<g id="a_edge20_Node000001_Node000019"><a xlink:title=" ">
<path fill="none" stroke="#63b8ff" d="M1389.73,-157.5C1378.23,-157.5 1366.43,-157.5 1355.02,-157.5"/>
<polygon fill="#63b8ff" stroke="#63b8ff" points="1389.74,-161 1399.74,-157.5 1389.74,-154 1389.74,-161"/>
</a>
</g>
</g>
<!-- Node21 -->
<g id="Node000021" class="node">
<title>Node21</title>
<g id="a_Node000021"><a xlink:href="classSceneManager.html#af40d0ff3e76f89bbf5504f1694814179" target="_top" xlink:title=" ">
<polygon fill="white" stroke="#666666" points="1356.5,-357 1201.5,-357 1201.5,-338 1356.5,-338 1356.5,-357"/>
<text text-anchor="middle" x="1279" y="-345" font-family="Helvetica,sans-Serif" font-size="10.00">SceneManager::setSelectFor</text>
</a>
</g>
</g>
<!-- Node1&#45;&gt;Node21 -->
<g id="edge23_Node000001_Node000021" class="edge">
<title>Node1&#45;&gt;Node21</title>
<g id="a_edge23_Node000001_Node000021"><a xlink:title=" ">
<path fill="none" stroke="#63b8ff" d="M1452.47,-174.58C1413.81,-213.34 1320.43,-306.96 1289.87,-337.61"/>
<polygon fill="#63b8ff" stroke="#63b8ff" points="1455.26,-176.74 1459.84,-167.18 1450.3,-171.79 1455.26,-176.74"/>
</a>
</g>
</g>
<!-- Node3 -->
<g id="Node000003" class="node">
<title>Node3</title>
<g id="a_Node000003"><a xlink:href="namespaceScenePresets_1_1Astronomy.html#a0b0e571c83bcdb2d16710b9425375b5f" target="_top" xlink:title=" ">
<polygon fill="white" stroke="#666666" points="721.5,-467.5 580.5,-467.5 580.5,-437.5 721.5,-437.5 721.5,-467.5"/>
<text text-anchor="start" x="588.5" y="-455.5" font-family="Helvetica,sans-Serif" font-size="10.00">ScenePresets::Astronomy</text>
<text text-anchor="middle" x="651" y="-444.5" font-family="Helvetica,sans-Serif" font-size="10.00">::createRealSolarSystem</text>
</a>
</g>
</g>
<!-- Node2&#45;&gt;Node3 -->
<g id="edge2_Node000002_Node000003" class="edge">
<title>Node2&#45;&gt;Node3</title>
<g id="a_edge2_Node000002_Node000003"><a xlink:title=" ">
<path fill="none" stroke="#63b8ff" d="M795.41,-507.66C786.49,-505.52 777.46,-503.13 769,-500.5 739.64,-491.39 707.4,-477.89 684.22,-467.52"/>
<polygon fill="#63b8ff" stroke="#63b8ff" points="794.89,-511.13 805.42,-509.96 796.46,-504.31 794.89,-511.13"/>
</a>
</g>
</g>
<!-- Node4 -->
<g id="Node000004" class="node">
<title>Node4</title>
<g id="a_Node000004"><a xlink:href="classSceneManager.html#acfea563d3849e3c8c09fc3febe9ae1e2" target="_top" xlink:title=" ">
<polygon fill="white" stroke="#666666" points="729.5,-517 572.5,-517 572.5,-498 729.5,-498 729.5,-517"/>
<text text-anchor="middle" x="651" y="-505" font-family="Helvetica,sans-Serif" font-size="10.00">SceneManager::defaultSetup</text>
</a>
</g>
</g>
<!-- Node2&#45;&gt;Node4 -->
<g id="edge3_Node000002_Node000004" class="edge">
<title>Node2&#45;&gt;Node4</title>
<g id="a_edge3_Node000002_Node000004"><a xlink:title=" ">
<path fill="none" stroke="#63b8ff" d="M769.45,-514.38C756.21,-513.6 742.63,-512.8 729.61,-512.04"/>
<polygon fill="#63b8ff" stroke="#63b8ff" points="769.31,-517.87 779.5,-514.96 769.72,-510.88 769.31,-517.87"/>
</a>
</g>
</g>
<!-- Node5 -->
<g id="Node000005" class="node">
<title>Node5</title>
<g id="a_Node000005"><a xlink:href="classSceneSerializer.html#a490f2bd87e7c9459ee47be974653b433" target="_top" xlink:title=" ">
<polygon fill="white" stroke="#666666" points="733,-290 569,-290 569,-271 733,-271 733,-290"/>
<text text-anchor="middle" x="651" y="-278" font-family="Helvetica,sans-Serif" font-size="10.00">SceneSerializer::loadFromJson</text>
</a>
</g>
</g>
<!-- Node2&#45;&gt;Node5 -->
<g id="edge4_Node000002_Node000005" class="edge">
<title>Node2&#45;&gt;Node5</title>
<g id="a_edge4_Node000002_Node000005"><a xlink:title=" ">
<path fill="none" stroke="#63b8ff" d="M773.69,-504.46C772.05,-503.23 770.49,-501.91 769,-500.5 724.59,-458.33 762.74,-421.03 733,-367.5 714.86,-334.85 681.88,-304.88 664.11,-290.12"/>
<polygon fill="#63b8ff" stroke="#63b8ff" points="772.02,-507.55 782.35,-509.89 775.74,-501.61 772.02,-507.55"/>
</a>
</g>
</g>
<!-- Node6 -->
<g id="Node000006" class="node">
<title>Node6</title>
<g id="a_Node000006"><a xlink:href="classSceneManager.html#a7b7b0a022dcce523178e8414fb8e4463" target="_top" xlink:title=" ">
<polygon fill="white" stroke="#666666" points="532,-261 387,-261 387,-242 532,-242 532,-261"/>
<text text-anchor="middle" x="459.5" y="-249" font-family="Helvetica,sans-Serif" font-size="10.00">SceneManager::loadScene</text>
</a>
</g>
</g>
<!-- Node5&#45;&gt;Node6 -->
<g id="edge5_Node000005_Node000006" class="edge">
<title>Node5&#45;&gt;Node6</title>
<g id="a_edge5_Node000005_Node000006"><a xlink:title=" ">
<path fill="none" stroke="#63b8ff" d="M577.77,-269.45C559.68,-266.68 540.42,-263.73 522.85,-261.04"/>
<polygon fill="#63b8ff" stroke="#63b8ff" points="577.27,-272.91 587.69,-270.96 578.33,-265.99 577.27,-272.91"/>
</a>
</g>
</g>
<!-- Node7 -->
<g id="Node000007" class="node">
<title>Node7</title>
<g id="a_Node000007"><a xlink:href="classSceneManager.html#a59f13c06bf3f19d5e543502a0ddd0467" target="_top" xlink:title=" ">
<polygon fill="white" stroke="#666666" points="350,-223 172,-223 172,-204 350,-204 350,-223"/>
<text text-anchor="middle" x="261" y="-211" font-family="Helvetica,sans-Serif" font-size="10.00">SceneManager::processHeldKeys</text>
</a>
</g>
</g>
<!-- Node6&#45;&gt;Node7 -->
<g id="edge6_Node000006_Node000007" class="edge">
<title>Node6&#45;&gt;Node7</title>
<g id="a_edge6_Node000006_Node000007"><a xlink:title=" ">
<path fill="none" stroke="#63b8ff" d="M399.09,-240.01C371.05,-234.59 337.98,-228.19 311.35,-223.04"/>
<polygon fill="#63b8ff" stroke="#63b8ff" points="398.69,-243.5 409.17,-241.96 400.01,-236.62 398.69,-243.5"/>
</a>
</g>
</g>
<!-- Node8 -->
<g id="Node000008" class="node">
<title>Node8</title>
<g id="a_Node000008"><a xlink:href="classOpenGLWindow.html#aea9ee69010d8451ab00cd488a8c6717d" target="_top" xlink:title=" ">
<polygon fill="white" stroke="#666666" points="136,-223 0,-223 0,-204 136,-204 136,-223"/>
<text text-anchor="middle" x="68" y="-211" font-family="Helvetica,sans-Serif" font-size="10.00">OpenGLWindow::paintGL</text>
</a>
</g>
</g>
<!-- Node7&#45;&gt;Node8 -->
<g id="edge7_Node000007_Node000008" class="edge">
<title>Node7&#45;&gt;Node8</title>
<g id="a_edge7_Node000007_Node000008"><a xlink:title=" ">
<path fill="none" stroke="#63b8ff" d="M161.6,-213.5C152.94,-213.5 144.32,-213.5 136,-213.5"/>
<polygon fill="#63b8ff" stroke="#63b8ff" points="161.77,-217 171.77,-213.5 161.77,-210 161.77,-217"/>
</a>
</g>
</g>
<!-- Node11 -->
<g id="Node000011" class="node">
<title>Node11</title>
<g id="a_Node000011"><a xlink:href="classSceneManager.html#a53736fa499987ffff612d3ee7c85442c" target="_top" xlink:title=" ">
<polygon fill="white" stroke="#666666" points="1158,-433 983,-433 983,-414 1158,-414 1158,-433"/>
<text text-anchor="middle" x="1070.5" y="-421" font-family="Helvetica,sans-Serif" font-size="10.00">SceneManager::deleteAllObjects</text>
</a>
</g>
</g>
<!-- Node10&#45;&gt;Node11 -->
<g id="edge10_Node000010_Node000011" class="edge">
<title>Node10&#45;&gt;Node11</title>
<g id="a_edge10_Node000010_Node000011"><a xlink:title=" ">
<path fill="none" stroke="#63b8ff" d="M1190.16,-412.58C1179.57,-413.56 1168.77,-414.55 1158.2,-415.52"/>
<polygon fill="#63b8ff" stroke="#63b8ff" points="1190.59,-416.06 1200.23,-411.66 1189.95,-409.09 1190.59,-416.06"/>
</a>
</g>
</g>
<!-- Node12 -->
<g id="Node000012" class="node">
<title>Node12</title>
<g id="a_Node000012"><a xlink:href="classSceneManager.html#a8774b3322c2d86c6f1f2e0a8a9896af1" target="_top" xlink:title=" ">
<polygon fill="white" stroke="#666666" points="932.5,-395 783.5,-395 783.5,-376 932.5,-376 932.5,-395"/>
<text text-anchor="middle" x="858" y="-383" font-family="Helvetica,sans-Serif" font-size="10.00">SceneManager::resetScene</text>
</a>
</g>
</g>
<!-- Node11&#45;&gt;Node12 -->
<g id="edge11_Node000011_Node000012" class="edge">
<title>Node11&#45;&gt;Node12</title>
<g id="a_edge11_Node000011_Node000012"><a xlink:title=" ">
<path fill="none" stroke="#63b8ff" d="M1006.64,-412.15C976.44,-406.7 940.65,-400.24 911.87,-395.04"/>
<polygon fill="#63b8ff" stroke="#63b8ff" points="1006.19,-415.63 1016.65,-413.96 1007.43,-408.74 1006.19,-415.63"/>
</a>
</g>
</g>
<!-- Node12&#45;&gt;Node4 -->
<g id="edge12_Node000012_Node000004" class="edge">
<title>Node12&#45;&gt;Node4</title>
<g id="a_edge12_Node000012_Node000004"><a xlink:title=" ">
<path fill="none" stroke="#63b8ff" d="M776.31,-399.58C773.76,-401.07 771.32,-402.7 769,-404.5 740.73,-426.43 759.51,-452.47 733,-476.5 722.07,-486.41 707.63,-493.28 693.98,-497.98"/>
<polygon fill="#63b8ff" stroke="#63b8ff" points="777.95,-402.68 785.32,-395.07 774.81,-396.42 777.95,-402.68"/>
</a>
</g>
</g>
<!-- Node12&#45;&gt;Node5 -->
<g id="edge13_Node000012_Node000005" class="edge">
<title>Node12&#45;&gt;Node5</title>
<g id="a_edge13_Node000012_Node000005"><a xlink:title=" ">
<path fill="none" stroke="#63b8ff" d="M800.54,-373.16C789.83,-369.97 778.89,-366.11 769,-361.5 726.67,-341.79 683.07,-307.03 663.15,-290.19"/>
<polygon fill="#63b8ff" stroke="#63b8ff" points="799.7,-376.56 810.28,-375.9 801.6,-369.82 799.7,-376.56"/>
</a>
</g>
</g>
<!-- Node13 -->
<g id="Node000013" class="node">
<title>Node13</title>
<g id="a_Node000013"><a xlink:href="classSceneManager.html#ad9d648b5fb5a92c4612c640fc7cb47fb" target="_top" xlink:title=" ">
<polygon fill="white" stroke="#666666" points="724,-395 578,-395 578,-376 724,-376 724,-395"/>
<text text-anchor="middle" x="651" y="-383" font-family="Helvetica,sans-Serif" font-size="10.00">SceneManager::loadPreset</text>
</a>
</g>
</g>
<!-- Node12&#45;&gt;Node13 -->
<g id="edge14_Node000012_Node000013" class="edge">
<title>Node12&#45;&gt;Node13</title>
<g id="a_edge14_Node000012_Node000013"><a xlink:title=" ">
<path fill="none" stroke="#63b8ff" d="M773.22,-385.5C756.9,-385.5 739.93,-385.5 724.04,-385.5"/>
<polygon fill="#63b8ff" stroke="#63b8ff" points="773.28,-389 783.28,-385.5 773.28,-382 773.28,-389"/>
</a>
</g>
</g>
<!-- Node17 -->
<g id="Node000017" class="node">
<title>Node17</title>
<g id="a_Node000017"><a xlink:href="classScene.html#af5512c90d05801f27028975d6a898e6b" target="_top" xlink:title=" ">
<polygon fill="white" stroke="#666666" points="1108.5,-19 1032.5,-19 1032.5,0 1108.5,0 1108.5,-19"/>
<text text-anchor="middle" x="1070.5" y="-7" font-family="Helvetica,sans-Serif" font-size="10.00">Scene::draw</text>
</a>
</g>
</g>
<!-- Node16&#45;&gt;Node17 -->
<g id="edge18_Node000016_Node000017" class="edge">
<title>Node16&#45;&gt;Node17</title>
<g id="a_edge18_Node000016_Node000017"><a xlink:title=" ">
<path fill="none" stroke="#63b8ff" d="M1186.89,-9.5C1159.31,-9.5 1130.55,-9.5 1108.65,-9.5"/>
<polygon fill="#63b8ff" stroke="#63b8ff" points="1186.98,-13 1196.98,-9.5 1186.98,-6 1186.98,-13"/>
</a>
</g>
</g>
<!-- Node20 -->
<g id="Node000020" class="node">
<title>Node20</title>
<g id="a_Node000020"><a xlink:href="classSceneManager.html#a1a46a8c9e99b6b27404a2f870f38749c" target="_top" xlink:title=" ">
<polygon fill="white" stroke="#666666" points="533,-205 386,-205 386,-186 533,-186 533,-205"/>
<text text-anchor="middle" x="459.5" y="-193" font-family="Helvetica,sans-Serif" font-size="10.00">SceneManager::saveScene</text>
</a>
</g>
</g>
<!-- Node19&#45;&gt;Node20 -->
<g id="edge21_Node000019_Node000020" class="edge">
<title>Node19&#45;&gt;Node20</title>
<g id="a_edge21_Node000019_Node000020"><a xlink:title=" ">
<path fill="none" stroke="#63b8ff" d="M1192.56,-161.47C1031.18,-168.97 684.21,-185.1 533.2,-192.12"/>
<polygon fill="#63b8ff" stroke="#63b8ff" points="1193.09,-164.95 1202.92,-160.99 1192.77,-157.96 1193.09,-164.95"/>
</a>
</g>
</g>
<!-- Node20&#45;&gt;Node7 -->
<g id="edge22_Node000020_Node000007" class="edge">
<title>Node20&#45;&gt;Node7</title>
<g id="a_edge22_Node000020_Node000007"><a xlink:title=" ">
<path fill="none" stroke="#63b8ff" d="M375.73,-203.08C367.32,-203.85 358.76,-204.64 350.3,-205.41"/>
<polygon fill="#63b8ff" stroke="#63b8ff" points="376.25,-206.55 385.89,-202.15 375.61,-199.58 376.25,-206.55"/>
</a>
</g>
</g>
<!-- Node21&#45;&gt;Node5 -->
<g id="edge27_Node000021_Node000005" class="edge">
<title>Node21&#45;&gt;Node5</title>
<g id="a_edge27_Node000021_Node000005"><a xlink:title=" ">
<path fill="none" stroke="#63b8ff" d="M1190.79,-353.44C1088.49,-358.3 914.39,-359.99 769,-328.5 732.09,-320.51 691.96,-301.59 669.6,-290.03"/>
<polygon fill="#63b8ff" stroke="#63b8ff" points="1191.26,-356.92 1201.07,-352.93 1190.91,-349.93 1191.26,-356.92"/>
</a>
</g>
</g>
<!-- Node21&#45;&gt;Node12 -->
<g id="edge28_Node000021_Node000012" class="edge">
<title>Node21&#45;&gt;Node12</title>
<g id="a_edge28_Node000021_Node000012"><a xlink:title=" ">
<path fill="none" stroke="#63b8ff" d="M1191.06,-358.02C1179.94,-359.25 1168.71,-360.45 1158,-361.5 1081.3,-369.05 993.35,-375.89 932.79,-380.32"/>
<polygon fill="#63b8ff" stroke="#63b8ff" points="1191.68,-361.47 1201.23,-356.87 1190.9,-354.51 1191.68,-361.47"/>
</a>
</g>
</g>
<!-- Node22 -->
<g id="Node000022" class="node">
<title>Node22</title>
<g id="a_Node000022"><a xlink:href="classSceneManager.html#ac517c77baec7191a36898308818ebb5f" target="_top" xlink:title=" ">
<polygon fill="white" stroke="#666666" points="1150.5,-481.5 990.5,-481.5 990.5,-451.5 1150.5,-451.5 1150.5,-481.5"/>
<text text-anchor="start" x="998.5" y="-469.5" font-family="Helvetica,sans-Serif" font-size="10.00">SceneManager::handleMouse</text>
<text text-anchor="middle" x="1070.5" y="-458.5" font-family="Helvetica,sans-Serif" font-size="10.00">Button</text>
</a>
</g>
</g>
<!-- Node21&#45;&gt;Node22 -->
<g id="edge24_Node000021_Node000022" class="edge">
<title>Node21&#45;&gt;Node22</title>
<g id="a_edge24_Node000021_Node000022"><a xlink:title=" ">
<path fill="none" stroke="#63b8ff" d="M1237.73,-360.77C1222.89,-366.98 1206.63,-375.49 1194,-386.5 1171.7,-405.94 1181.82,-424.95 1158,-442.5 1153.36,-445.92 1148.25,-448.85 1142.91,-451.37"/>
<polygon fill="#63b8ff" stroke="#63b8ff" points="1239.22,-363.94 1247.23,-357.01 1236.65,-357.43 1239.22,-363.94"/>
</a>
</g>
</g>
<!-- Node25 -->
<g id="Node000025" class="node">
<title>Node25</title>
<g id="a_Node000025"><a xlink:href="classSceneManager.html#a63d3a08f13b314ed1d871f598f26534d" target="_top" xlink:title=" ">
<polygon fill="white" stroke="#666666" points="1148,-300 993,-300 993,-281 1148,-281 1148,-300"/>
<text text-anchor="middle" x="1070.5" y="-288" font-family="Helvetica,sans-Serif" font-size="10.00">SceneManager::selectObject</text>
</a>
</g>
</g>
<!-- Node21&#45;&gt;Node25 -->
<g id="edge29_Node000021_Node000025" class="edge">
<title>Node21&#45;&gt;Node25</title>
<g id="a_edge29_Node000021_Node000025"><a xlink:title=" ">
<path fill="none" stroke="#63b8ff" d="M1233.62,-335.25C1195.47,-324.72 1141.21,-309.74 1106.18,-300.07"/>
<polygon fill="#63b8ff" stroke="#63b8ff" points="1232.87,-338.67 1243.44,-337.96 1234.73,-331.92 1232.87,-338.67"/>
</a>
</g>
</g>
<!-- Node23 -->
<g id="Node000023" class="node">
<title>Node23</title>
<g id="a_Node000023"><a xlink:href="classOpenGLWindow.html#a3db5152769ffded2ba4de8b6563c205a" target="_top" xlink:title=" ">
<polygon fill="white" stroke="#666666" points="937,-491.5 779,-491.5 779,-461.5 937,-461.5 937,-491.5"/>
<text text-anchor="start" x="787" y="-479.5" font-family="Helvetica,sans-Serif" font-size="10.00">OpenGLWindow::mousePress</text>
<text text-anchor="middle" x="858" y="-468.5" font-family="Helvetica,sans-Serif" font-size="10.00">Event</text>
</a>
</g>
</g>
<!-- Node22&#45;&gt;Node23 -->
<g id="edge25_Node000022_Node000023" class="edge">
<title>Node22&#45;&gt;Node23</title>
<g id="a_edge25_Node000022_Node000023"><a xlink:title=" ">
<path fill="none" stroke="#63b8ff" d="M979.94,-470.75C965.72,-471.43 951.1,-472.12 937.16,-472.79"/>
<polygon fill="#63b8ff" stroke="#63b8ff" points="980.4,-474.24 990.22,-470.27 980.06,-467.24 980.4,-474.24"/>
</a>
</g>
</g>
<!-- Node24 -->
<g id="Node000024" class="node">
<title>Node24</title>
<g id="a_Node000024"><a xlink:href="classOpenGLWindow.html#a2a95d17daeae3447ca23d4e99c913b73" target="_top" xlink:title=" ">
<polygon fill="white" stroke="#666666" points="943,-443.5 773,-443.5 773,-413.5 943,-413.5 943,-443.5"/>
<text text-anchor="start" x="781" y="-431.5" font-family="Helvetica,sans-Serif" font-size="10.00">OpenGLWindow::mouseRelease</text>
<text text-anchor="middle" x="858" y="-420.5" font-family="Helvetica,sans-Serif" font-size="10.00">Event</text>
</a>
</g>
</g>
<!-- Node22&#45;&gt;Node24 -->
<g id="edge26_Node000022_Node000024" class="edge">
<title>Node22&#45;&gt;Node24</title>
<g id="a_edge26_Node000022_Node000024"><a xlink:title=" ">
<path fill="none" stroke="#63b8ff" d="M980.24,-450.39C967.7,-448.12 954.85,-445.8 942.42,-443.56"/>
<polygon fill="#63b8ff" stroke="#63b8ff" points="979.76,-453.86 990.22,-452.19 981,-446.97 979.76,-453.86"/>
</a>
</g>
</g>
<!-- Node25&#45;&gt;Node5 -->
<g id="edge32_Node000025_Node000005" class="edge">
<title>Node25&#45;&gt;Node5</title>
<g id="a_edge32_Node000025_Node000005"><a xlink:title=" ">
<path fill="none" stroke="#63b8ff" d="M982.77,-288.42C909.34,-286.66 804.86,-284.16 733.08,-282.44"/>
<polygon fill="#63b8ff" stroke="#63b8ff" points="982.84,-291.93 992.92,-288.67 983.01,-284.93 982.84,-291.93"/>
</a>
</g>
</g>
<!-- Node26 -->
<g id="Node000026" class="node">
<title>Node26</title>
<g id="a_Node000026"><a xlink:href="classSceneManager.html#a2c5088464b489b31f23e0791e2b9c0b0" target="_top" xlink:title=" ">
<polygon fill="white" stroke="#666666" points="934,-319 782,-319 782,-300 934,-300 934,-319"/>
<text text-anchor="middle" x="858" y="-307" font-family="Helvetica,sans-Serif" font-size="10.00">SceneManager::focusObject</text>
</a>
</g>
</g>
<!-- Node25&#45;&gt;Node26 -->
<g id="edge30_Node000025_Node000026" class="edge">
<title>Node25&#45;&gt;Node26</title>
<g id="a_edge30_Node000025_Node000026"><a xlink:title=" ">
<path fill="none" stroke="#63b8ff" d="M982.92,-298.31C966.73,-299.78 949.93,-301.29 934.13,-302.72"/>
<polygon fill="#63b8ff" stroke="#63b8ff" points="983.26,-301.8 992.91,-297.41 982.64,-294.83 983.26,-301.8"/>
</a>
</g>
</g>
<!-- Node27 -->
<g id="Node000027" class="node">
<title>Node27</title>
<g id="a_Node000027"><a xlink:href="classSceneManager.html#ab469d1eea307d05b27433cb74231b4eb" target="_top" xlink:title=" ">
<polygon fill="white" stroke="#666666" points="947,-243 769,-243 769,-224 947,-224 947,-243"/>
<text text-anchor="middle" x="858" y="-231" font-family="Helvetica,sans-Serif" font-size="10.00">SceneManager::setCameraTarget</text>
</a>
</g>
</g>
<!-- Node25&#45;&gt;Node27 -->
<g id="edge33_Node000025_Node000027" class="edge">
<title>Node25&#45;&gt;Node27</title>
<g id="a_edge33_Node000025_Node000027"><a xlink:title=" ">
<path fill="none" stroke="#63b8ff" d="M1024.26,-278.25C985.37,-267.72 930.06,-252.74 894.35,-243.07"/>
<polygon fill="#63b8ff" stroke="#63b8ff" points="1023.7,-281.72 1034.27,-280.96 1025.53,-274.97 1023.7,-281.72"/>
</a>
</g>
</g>
<!-- Node26&#45;&gt;Node3 -->
<g id="edge31_Node000026_Node000003" class="edge">
<title>Node26&#45;&gt;Node3</title>
<g id="a_edge31_Node000026_Node000003"><a xlink:title=" ">
<path fill="none" stroke="#63b8ff" d="M831.2,-324.46C813.09,-335.44 788.69,-351.22 769,-367.5 751.32,-382.12 751.03,-390.31 733,-404.5 717.08,-417.04 697.57,-428.69 681.7,-437.38"/>
<polygon fill="#63b8ff" stroke="#63b8ff" points="833.24,-327.31 840.03,-319.18 829.65,-321.3 833.24,-327.31"/>
</a>
</g>
</g>
<!-- Node27&#45;&gt;Node5 -->
<g id="edge34_Node000027_Node000005" class="edge">
<title>Node27&#45;&gt;Node5</title>
<g id="a_edge34_Node000027_Node000005"><a xlink:title=" ">
<path fill="none" stroke="#63b8ff" d="M805.61,-245.28C771.07,-253.2 726.11,-263.51 693.77,-270.92"/>
<polygon fill="#63b8ff" stroke="#63b8ff" points="806.55,-248.66 815.52,-243.01 804.99,-241.83 806.55,-248.66"/>
</a>
</g>
</g>
<!-- Node27&#45;&gt;Node18 -->
<g id="edge35_Node000027_Node000018" class="edge">
<title>Node27&#45;&gt;Node18</title>
<g id="a_edge35_Node000027_Node000018"><a xlink:title=" ">
<path fill="none" stroke="#63b8ff" d="M758.78,-228.71C744.87,-228.03 730.85,-227.35 717.76,-226.71"/>
<polygon fill="#63b8ff" stroke="#63b8ff" points="758.71,-232.21 768.87,-229.2 759.05,-225.22 758.71,-232.21"/>
</a>
</g>
</g>
</g>
</svg>

<g id="navigator" transform="translate(0 0)" fill="#404254">
  <rect fill="#f2f5e9" fill-opacity="0.5" stroke="#606060" stroke-width=".5" x="0" y="0" width="60" height="60"/>
  <use id="zoomplus" xlink:href="#zoomPlus" x="17" y="9" onmousedown="handleZoom(evt,'in')"/>
  <use id="zoomminus" xlink:href="#zoomMin" x="42" y="9" onmousedown="handleZoom(evt,'out')"/>
  <use id="reset" xlink:href="#resetDef" x="30" y="36" onmousedown="handleReset()"/>
   <use id="arrowup" xlink:href="#arrowUp" x="0" y="0" onmousedown="handlePan(0,-1)"/>
  <use id="arrowright" xlink:href="#arrowRight" x="0" y="0" onmousedown="handlePan(1,0)"/>
  <use id="arrowdown" xlink:href="#arrowDown" x="0" y="0" onmousedown="handlePan(0,1)"/>
  <use id="arrowleft" xlink:href="#arrowLeft" x="0" y="0" onmousedown="handlePan(-1,0)"/>
</g>
<svg viewBox="0 0 15 15" width="100%" height="30px" preserveAspectRatio="xMaxYMin meet">
 <g id="arrow_out" transform="scale(0.3 0.3)">
  <a xlink:href="classSceneObject_ad77f12eb793b32da2ef40f0042cb1de8_icgraph_org.svg" target="_base">
   <rect id="button" ry="5" rx="5" y="6" x="6" height="38" width="38"
        fill="#f2f5e9" fill-opacity="0.5" stroke="#606060" stroke-width="1.0"/>
   <path id="arrow"
     d="M 11.500037,31.436501 C 11.940474,20.09759 22.043105,11.32322 32.158766,21.979434 L 37.068811,17.246167 C 37.068811,17.246167 37.088388,32 37.088388,32 L 22.160133,31.978069 C 22.160133,31.978069 26.997745,27.140456 26.997745,27.140456 C 18.528582,18.264221 13.291696,25.230495 11.500037,31.436501 z"
     style="fill:#404040;"/>
  </a>
 </g>
</svg>

<style type='text/css'>
<![CDATA[
[data-mouse-over-selected='false'] { opacity: 0.7; }
[data-mouse-over-selected='true']  { opacity: 1.0; }
]]>
</style>
<script type="application/ecmascript"><![CDATA[
document.addEventListener('DOMContentLoaded', (event) => {
  highlightEdges();
  highlightAdjacentNodes();
});
]]></script>
</svg>
