<?xml version="1.0" encoding="UTF-8" standalone="no"?>
<!DOCTYPE svg PUBLIC "-//W3C//DTD SVG 1.1//EN"
 "http://www.w3.org/Graphics/SVG/1.1/DTD/svg11.dtd">
<!-- Generated by graphviz version 2.43.0 (0)
 -->
<!-- Title: SceneManager::deleteAllObjects Pages: 1 -->
<svg width="583pt" height="64pt"
 viewBox="0.00 0.00 583.00 64.00" xmlns="http://www.w3.org/2000/svg" xmlns:xlink="http://www.w3.org/1999/xlink">
<g id="graph0" class="graph" transform="scale(1 1) rotate(0) translate(4 60)">
<title>SceneManager::deleteAllObjects</title>
<!-- Node1 -->
<g id="Node000001" class="node">
<title>Node1</title>
<g id="a_Node000001"><a xlink:title=" ">
<polygon fill="#999999" stroke="#666666" points="175,-37 0,-37 0,-18 175,-18 175,-37"/>
<text text-anchor="middle" x="87.5" y="-25" font-family="Helvetica,sans-Serif" font-size="10.00">SceneManager::deleteAllObjects</text>
</a>
</g>
</g>
<!-- Node2 -->
<g id="Node000002" class="node">
<title>Node2</title>
<g id="a_Node000002"><a xlink:href="classSceneManager.html#a4543114007c5bb40ddab62cd9f2ac613" target="_top" xlink:title=" ">
<polygon fill="white" stroke="#666666" points="368,-37 211,-37 211,-18 368,-18 368,-37"/>
<text text-anchor="middle" x="289.5" y="-25" font-family="Helvetica,sans-Serif" font-size="10.00">SceneManager::deleteObject</text>
</a>
</g>
</g>
<!-- Node1&#45;&gt;Node2 -->
<g id="edge1_Node000001_Node000002" class="edge">
<title>Node1&#45;&gt;Node2</title>
<g id="a_edge1_Node000001_Node000002"><a xlink:title=" ">
<path fill="none" stroke="#63b8ff" d="M175.06,-27.5C183.63,-27.5 192.34,-27.5 200.93,-27.5"/>
<polygon fill="#63b8ff" stroke="#63b8ff" points="200.93,-31 210.93,-27.5 200.93,-24 200.93,-31"/>
</a>
</g>
</g>
<!-- Node3 -->
<g id="Node000003" class="node">
<title>Node3</title>
<g id="a_Node000003"><a xlink:href="classSceneManager.html#a1ecbf10d22d2ff153407cd139bf89632" target="_top" xlink:title=" ">
<polygon fill="white" stroke="#666666" points="575,-56 404,-56 404,-37 575,-37 575,-56"/>
<text text-anchor="middle" x="489.5" y="-44" font-family="Helvetica,sans-Serif" font-size="10.00">SceneManager::objectRemoved</text>
</a>
</g>
</g>
<!-- Node2&#45;&gt;Node3 -->
<g id="edge2_Node000002_Node000003" class="edge">
<title>Node2&#45;&gt;Node3</title>
<g id="a_edge2_Node000002_Node000003"><a xlink:title=" ">
<path fill="none" stroke="#63b8ff" d="M368.19,-34.95C376.6,-35.76 385.22,-36.59 393.8,-37.41"/>
<polygon fill="#63b8ff" stroke="#63b8ff" points="393.55,-40.91 403.84,-38.38 394.22,-33.94 393.55,-40.91"/>
</a>
</g>
</g>
<!-- Node4 -->
<g id="Node000004" class="node">
<title>Node4</title>
<g id="a_Node000004"><a xlink:href="classScene.html#a398bf0981ca0b3f5ade648b1d95513cc" target="_top" xlink:title=" ">
<polygon fill="white" stroke="#666666" points="557.5,-19 421.5,-19 421.5,0 557.5,0 557.5,-19"/>
<text text-anchor="middle" x="489.5" y="-7" font-family="Helvetica,sans-Serif" font-size="10.00">Scene::removeDrawable</text>
</a>
</g>
</g>
<!-- Node2&#45;&gt;Node4 -->
<g id="edge3_Node000002_Node000004" class="edge">
<title>Node2&#45;&gt;Node4</title>
<g id="a_edge3_Node000002_Node000004"><a xlink:title=" ">
<path fill="none" stroke="#63b8ff" d="M368.19,-20.44C382.31,-19.15 397.04,-17.81 411.15,-16.53"/>
<polygon fill="#63b8ff" stroke="#63b8ff" points="411.66,-20 421.3,-15.61 411.03,-13.03 411.66,-20"/>
</a>
</g>
</g>
</g>
</svg>
