<?xml version="1.0" encoding="UTF-8" standalone="no"?>
<!DOCTYPE svg PUBLIC "-//W3C//DTD SVG 1.1//EN"
 "http://www.w3.org/Graphics/SVG/1.1/DTD/svg11.dtd">
<!-- Generated by graphviz version 2.43.0 (0)
 -->
<!-- Title: SceneManager::deleteAllObjects Pages: 1 -->
<svg width="978pt" height="325pt"
 viewBox="0.00 0.00 978.00 325.00" xmlns="http://www.w3.org/2000/svg" xmlns:xlink="http://www.w3.org/1999/xlink">
<g id="graph0" class="graph" transform="scale(1 1) rotate(0) translate(4 321)">
<title>SceneManager::deleteAllObjects</title>
<!-- Node1 -->
<g id="Node000001" class="node">
<title>Node1</title>
<g id="a_Node000001"><a xlink:title=" ">
<polygon fill="#999999" stroke="#666666" points="175,-131 0,-131 0,-112 175,-112 175,-131"/>
<text text-anchor="middle" x="87.5" y="-119" font-family="Helvetica,sans-Serif" font-size="10.00">SceneManager::deleteAllObjects</text>
</a>
</g>
</g>
<!-- Node2 -->
<g id="Node000002" class="node">
<title>Node2</title>
<g id="a_Node000002"><a xlink:href="classSceneManager.html#a4543114007c5bb40ddab62cd9f2ac613" target="_top" xlink:title=" ">
<polygon fill="white" stroke="#666666" points="368,-131 211,-131 211,-112 368,-112 368,-131"/>
<text text-anchor="middle" x="289.5" y="-119" font-family="Helvetica,sans-Serif" font-size="10.00">SceneManager::deleteObject</text>
</a>
</g>
</g>
<!-- Node1&#45;&gt;Node2 -->
<g id="edge1_Node000001_Node000002" class="edge">
<title>Node1&#45;&gt;Node2</title>
<g id="a_edge1_Node000001_Node000002"><a xlink:title=" ">
<path fill="none" stroke="#63b8ff" d="M175.06,-121.5C183.63,-121.5 192.34,-121.5 200.93,-121.5"/>
<polygon fill="#63b8ff" stroke="#63b8ff" points="200.93,-125 210.93,-121.5 200.93,-118 200.93,-125"/>
</a>
</g>
</g>
<!-- Node3 -->
<g id="Node000003" class="node">
<title>Node3</title>
<g id="a_Node000003"><a xlink:href="classSceneManager.html#ad143244bc503acbe2371b662ea0dcd0c" target="_top" xlink:title=" ">
<polygon fill="white" stroke="#666666" points="572,-217.5 415,-217.5 415,-187.5 572,-187.5 572,-217.5"/>
<text text-anchor="start" x="423" y="-205.5" font-family="Helvetica,sans-Serif" font-size="10.00">SceneManager::clearCamera</text>
<text text-anchor="middle" x="493.5" y="-194.5" font-family="Helvetica,sans-Serif" font-size="10.00">Target</text>
</a>
</g>
</g>
<!-- Node2&#45;&gt;Node3 -->
<g id="edge2_Node000002_Node000003" class="edge">
<title>Node2&#45;&gt;Node3</title>
<g id="a_edge2_Node000002_Node000003"><a xlink:title=" ">
<path fill="none" stroke="#63b8ff" d="M307.37,-131.04C329.16,-143.09 368.52,-163.87 404,-177.5 410.31,-179.92 416.95,-182.23 423.64,-184.39"/>
<polygon fill="#63b8ff" stroke="#63b8ff" points="422.86,-187.81 433.45,-187.45 424.95,-181.13 422.86,-187.81"/>
</a>
</g>
</g>
<!-- Node6 -->
<g id="Node000006" class="node">
<title>Node6</title>
<g id="a_Node000006"><a xlink:href="classSceneManager.html#a99992b526976863d1dab7dc88cc6ec2a" target="_top" xlink:title=" ">
<polygon fill="white" stroke="#666666" points="574,-285.5 413,-285.5 413,-255.5 574,-255.5 574,-285.5"/>
<text text-anchor="start" x="421" y="-273.5" font-family="Helvetica,sans-Serif" font-size="10.00">SceneManager::deleteCurrent</text>
<text text-anchor="middle" x="493.5" y="-262.5" font-family="Helvetica,sans-Serif" font-size="10.00">Gizmo</text>
</a>
</g>
</g>
<!-- Node2&#45;&gt;Node6 -->
<g id="edge5_Node000002_Node000006" class="edge">
<title>Node2&#45;&gt;Node6</title>
<g id="a_edge5_Node000002_Node000006"><a xlink:title=" ">
<path fill="none" stroke="#63b8ff" d="M299.15,-131.18C317.17,-150.95 360.69,-196.62 404,-226.5 417.32,-235.69 432.85,-244.08 447.14,-251.02"/>
<polygon fill="#63b8ff" stroke="#63b8ff" points="445.78,-254.25 456.31,-255.36 448.77,-247.92 445.78,-254.25"/>
</a>
</g>
</g>
<!-- Node8 -->
<g id="Node000008" class="node">
<title>Node8</title>
<g id="a_Node000008"><a xlink:href="classScene.html#a398bf0981ca0b3f5ade648b1d95513cc" target="_top" xlink:title=" ">
<polygon fill="white" stroke="#666666" points="970,-224 834,-224 834,-205 970,-205 970,-224"/>
<text text-anchor="middle" x="902" y="-212" font-family="Helvetica,sans-Serif" font-size="10.00">Scene::removeDrawable</text>
</a>
</g>
</g>
<!-- Node2&#45;&gt;Node8 -->
<g id="edge15_Node000002_Node000008" class="edge">
<title>Node2&#45;&gt;Node8</title>
<g id="a_edge15_Node000002_Node000008"><a xlink:title=" ">
<path fill="none" stroke="#63b8ff" d="M358.02,-111.97C457.43,-100.59 647.66,-88.97 798,-140.5 832.63,-152.37 865.72,-180.03 884.67,-197.97"/>
<polygon fill="#63b8ff" stroke="#63b8ff" points="882.27,-200.52 891.88,-204.99 887.15,-195.5 882.27,-200.52"/>
</a>
</g>
</g>
<!-- Node10 -->
<g id="Node000010" class="node">
<title>Node10</title>
<g id="a_Node000010"><a xlink:href="classSceneManager.html#a30fc32723c50bf9707a44ac398e5ecb9" target="_top" xlink:title=" ">
<polygon fill="white" stroke="#666666" points="583,-169 404,-169 404,-150 583,-150 583,-169"/>
<text text-anchor="middle" x="493.5" y="-157" font-family="Helvetica,sans-Serif" font-size="10.00">SceneManager::getCameraTarget</text>
</a>
</g>
</g>
<!-- Node2&#45;&gt;Node10 -->
<g id="edge9_Node000002_Node000010" class="edge">
<title>Node2&#45;&gt;Node10</title>
<g id="a_edge9_Node000002_Node000010"><a xlink:title=" ">
<path fill="none" stroke="#63b8ff" d="M341.21,-131.04C368.71,-136.21 402.88,-142.64 431.78,-148.08"/>
<polygon fill="#63b8ff" stroke="#63b8ff" points="431.29,-151.55 441.77,-149.96 432.59,-144.67 431.29,-151.55"/>
</a>
</g>
</g>
<!-- Node12 -->
<g id="Node000012" class="node">
<title>Node12</title>
<g id="a_Node000012"><a xlink:href="classSceneObject.html#abebc043e3253d66da477f862a950775d" target="_top" xlink:title=" ">
<polygon fill="white" stroke="#666666" points="557.5,-93 429.5,-93 429.5,-74 557.5,-74 557.5,-93"/>
<text text-anchor="middle" x="493.5" y="-81" font-family="Helvetica,sans-Serif" font-size="10.00">SceneObject::getName</text>
</a>
</g>
</g>
<!-- Node2&#45;&gt;Node12 -->
<g id="edge12_Node000002_Node000012" class="edge">
<title>Node2&#45;&gt;Node12</title>
<g id="a_edge12_Node000002_Node000012"><a xlink:title=" ">
<path fill="none" stroke="#63b8ff" d="M341.21,-111.96C368.71,-106.79 402.88,-100.36 431.78,-94.92"/>
<polygon fill="#63b8ff" stroke="#63b8ff" points="432.59,-98.33 441.77,-93.04 431.29,-91.45 432.59,-98.33"/>
</a>
</g>
</g>
<!-- Node13 -->
<g id="Node000013" class="node">
<title>Node13</title>
<g id="a_Node000013"><a xlink:href="classSceneObject.html#ad77f12eb793b32da2ef40f0042cb1de8" target="_top" xlink:title="Gets the unique identifier for this object.">
<polygon fill="white" stroke="#666666" points="564,-56 423,-56 423,-37 564,-37 564,-56"/>
<text text-anchor="middle" x="493.5" y="-44" font-family="Helvetica,sans-Serif" font-size="10.00">SceneObject::getObjectID</text>
</a>
</g>
</g>
<!-- Node2&#45;&gt;Node13 -->
<g id="edge13_Node000002_Node000013" class="edge">
<title>Node2&#45;&gt;Node13</title>
<g id="a_edge13_Node000002_Node000013"><a xlink:title=" ">
<path fill="none" stroke="#63b8ff" d="M306.08,-112C327.43,-99.37 367.32,-77.19 404,-64.5 410.47,-62.26 417.31,-60.26 424.2,-58.49"/>
<polygon fill="#63b8ff" stroke="#63b8ff" points="425.41,-61.8 434.3,-56.04 423.76,-54.99 425.41,-61.8"/>
</a>
</g>
</g>
<!-- Node14 -->
<g id="Node000014" class="node">
<title>Node14</title>
<g id="a_Node000014"><a xlink:href="classSceneManager.html#a1ecbf10d22d2ff153407cd139bf89632" target="_top" xlink:title=" ">
<polygon fill="white" stroke="#666666" points="579,-19 408,-19 408,0 579,0 579,-19"/>
<text text-anchor="middle" x="493.5" y="-7" font-family="Helvetica,sans-Serif" font-size="10.00">SceneManager::objectRemoved</text>
</a>
</g>
</g>
<!-- Node2&#45;&gt;Node14 -->
<g id="edge14_Node000002_Node000014" class="edge">
<title>Node2&#45;&gt;Node14</title>
<g id="a_edge14_Node000002_Node000014"><a xlink:title=" ">
<path fill="none" stroke="#63b8ff" d="M298.83,-112C316.26,-92.74 358.76,-49.14 404,-27.5 408.28,-25.45 412.79,-23.64 417.41,-22.03"/>
<polygon fill="#63b8ff" stroke="#63b8ff" points="418.53,-25.34 427.01,-19 416.43,-18.67 418.53,-25.34"/>
</a>
</g>
</g>
<!-- Node4 -->
<g id="Node000004" class="node">
<title>Node4</title>
<g id="a_Node000004"><a xlink:href="classCamera.html#a2c2eb9907441db681f3fbd34694d415e" target="_top" xlink:title=" ">
<polygon fill="white" stroke="#666666" points="766,-243 651,-243 651,-224 766,-224 766,-243"/>
<text text-anchor="middle" x="708.5" y="-231" font-family="Helvetica,sans-Serif" font-size="10.00">Camera::clearTarget</text>
</a>
</g>
</g>
<!-- Node3&#45;&gt;Node4 -->
<g id="edge3_Node000003_Node000004" class="edge">
<title>Node3&#45;&gt;Node4</title>
<g id="a_edge3_Node000003_Node000004"><a xlink:title=" ">
<path fill="none" stroke="#63b8ff" d="M572,-213.78C594.49,-217.05 618.84,-220.6 640.62,-223.77"/>
<polygon fill="#63b8ff" stroke="#63b8ff" points="640.36,-227.26 650.76,-225.24 641.37,-220.34 640.36,-227.26"/>
</a>
</g>
</g>
<!-- Node5 -->
<g id="Node000005" class="node">
<title>Node5</title>
<g id="a_Node000005"><a xlink:href="classScene.html#a8ec1e638529f69f716e791ba3ac4d2f7" target="_top" xlink:title=" ">
<polygon fill="white" stroke="#666666" points="761.5,-206 655.5,-206 655.5,-187 761.5,-187 761.5,-206"/>
<text text-anchor="middle" x="708.5" y="-194" font-family="Helvetica,sans-Serif" font-size="10.00">Scene::getCamera</text>
</a>
</g>
</g>
<!-- Node3&#45;&gt;Node5 -->
<g id="edge4_Node000003_Node000005" class="edge">
<title>Node3&#45;&gt;Node5</title>
<g id="a_edge4_Node000003_Node000005"><a xlink:title=" ">
<path fill="none" stroke="#63b8ff" d="M572,-200.32C596.03,-199.64 622.2,-198.9 645.08,-198.26"/>
<polygon fill="#63b8ff" stroke="#63b8ff" points="645.44,-201.75 655.33,-197.97 645.24,-194.75 645.44,-201.75"/>
</a>
</g>
</g>
<!-- Node7 -->
<g id="Node000007" class="node">
<title>Node7</title>
<g id="a_Node000007"><a xlink:href="classSceneManager.html#ab7c34393bb10361069b0ea73ec2797f8" target="_top" xlink:title=" ">
<polygon fill="white" stroke="#666666" points="798,-317 619,-317 619,-298 798,-298 798,-317"/>
<text text-anchor="middle" x="708.5" y="-305" font-family="Helvetica,sans-Serif" font-size="10.00">SceneManager::removeDrawable</text>
</a>
</g>
</g>
<!-- Node6&#45;&gt;Node7 -->
<g id="edge6_Node000006_Node000007" class="edge">
<title>Node6&#45;&gt;Node7</title>
<g id="a_edge6_Node000006_Node000007"><a xlink:title=" ">
<path fill="none" stroke="#63b8ff" d="M574.12,-284.33C596.66,-288.25 620.92,-292.46 642.49,-296.21"/>
<polygon fill="#63b8ff" stroke="#63b8ff" points="642.07,-299.69 652.52,-297.95 643.27,-292.79 642.07,-299.69"/>
</a>
</g>
</g>
<!-- Node9 -->
<g id="Node000009" class="node">
<title>Node9</title>
<g id="a_Node000009"><a xlink:href="classSceneManager.html#a1c647e38474ee02d5dd8510bc2313c38" target="_top" xlink:title=" ">
<polygon fill="white" stroke="#666666" points="795,-280 622,-280 622,-261 795,-261 795,-280"/>
<text text-anchor="middle" x="708.5" y="-268" font-family="Helvetica,sans-Serif" font-size="10.00">SceneManager::removePickable</text>
</a>
</g>
</g>
<!-- Node6&#45;&gt;Node9 -->
<g id="edge8_Node000006_Node000009" class="edge">
<title>Node6&#45;&gt;Node9</title>
<g id="a_edge8_Node000006_Node000009"><a xlink:title=" ">
<path fill="none" stroke="#63b8ff" d="M574.12,-270.5C586.42,-270.5 599.24,-270.5 611.86,-270.5"/>
<polygon fill="#63b8ff" stroke="#63b8ff" points="611.92,-274 621.92,-270.5 611.92,-267 611.92,-274"/>
</a>
</g>
</g>
<!-- Node7&#45;&gt;Node8 -->
<g id="edge7_Node000007_Node000008" class="edge">
<title>Node7&#45;&gt;Node8</title>
<g id="a_edge7_Node000007_Node000008"><a xlink:title=" ">
<path fill="none" stroke="#63b8ff" d="M773.38,-297.94C781.83,-295.69 790.25,-292.91 798,-289.5 831.3,-274.83 864.33,-248.04 883.69,-230.77"/>
<polygon fill="#63b8ff" stroke="#63b8ff" points="886.08,-233.34 891.11,-224.01 881.36,-228.16 886.08,-233.34"/>
</a>
</g>
</g>
<!-- Node10&#45;&gt;Node5 -->
<g id="edge10_Node000010_Node000005" class="edge">
<title>Node10&#45;&gt;Node5</title>
<g id="a_edge10_Node000010_Node000005"><a xlink:title=" ">
<path fill="none" stroke="#63b8ff" d="M549.35,-169.03C578.7,-174.13 614.95,-180.42 645.34,-185.7"/>
<polygon fill="#63b8ff" stroke="#63b8ff" points="644.95,-189.19 655.4,-187.45 646.15,-182.29 644.95,-189.19"/>
</a>
</g>
</g>
<!-- Node11 -->
<g id="Node000011" class="node">
<title>Node11</title>
<g id="a_Node000011"><a xlink:href="classCamera.html#a962f895654dc24f21502b5141368c4d3" target="_top" xlink:title=" ">
<polygon fill="white" stroke="#666666" points="762,-169 655,-169 655,-150 762,-150 762,-169"/>
<text text-anchor="middle" x="708.5" y="-157" font-family="Helvetica,sans-Serif" font-size="10.00">Camera::getTarget</text>
</a>
</g>
</g>
<!-- Node10&#45;&gt;Node11 -->
<g id="edge11_Node000010_Node000011" class="edge">
<title>Node10&#45;&gt;Node11</title>
<g id="a_edge11_Node000010_Node000011"><a xlink:title=" ">
<path fill="none" stroke="#63b8ff" d="M583.29,-159.5C603.9,-159.5 625.42,-159.5 644.64,-159.5"/>
<polygon fill="#63b8ff" stroke="#63b8ff" points="644.77,-163 654.77,-159.5 644.77,-156 644.77,-163"/>
</a>
</g>
</g>
</g>
</svg>
