<?xml version="1.0" encoding="UTF-8" standalone="no"?>
<!DOCTYPE svg PUBLIC "-//W3C//DTD SVG 1.1//EN"
 "http://www.w3.org/Graphics/SVG/1.1/DTD/svg11.dtd">
<!-- Generated by graphviz version 2.43.0 (0)
 -->
<!-- Title: HierarchyWidget::HierarchyWidget Pages: 1 -->
<svg width="600pt" height="314pt"
 viewBox="0.00 0.00 600.00 313.50" xmlns="http://www.w3.org/2000/svg" xmlns:xlink="http://www.w3.org/1999/xlink">
<g id="graph0" class="graph" transform="scale(1 1) rotate(0) translate(4 309.5)">
<title>HierarchyWidget::HierarchyWidget</title>
<!-- Node1 -->
<g id="Node000001" class="node">
<title>Node1</title>
<g id="a_Node000001"><a xlink:title=" ">
<polygon fill="#999999" stroke="#666666" points="152,-196 0,-196 0,-166 152,-166 152,-196"/>
<text text-anchor="start" x="8" y="-184" font-family="Helvetica,sans-Serif" font-size="10.00">HierarchyWidget::Hierarchy</text>
<text text-anchor="middle" x="76" y="-173" font-family="Helvetica,sans-Serif" font-size="10.00">Widget</text>
</a>
</g>
</g>
<!-- Node2 -->
<g id="Node000002" class="node">
<title>Node2</title>
<g id="a_Node000002"><a xlink:href="structRigidBodyOptions.html#a90089d71868e5168a80a88d31656b49e" target="_top" xlink:title=" ">
<polygon fill="white" stroke="#666666" points="349.5,-305.5 221.5,-305.5 221.5,-286.5 349.5,-286.5 349.5,-305.5"/>
<text text-anchor="middle" x="285.5" y="-293.5" font-family="Helvetica,sans-Serif" font-size="10.00">RigidBodyOptions::Box</text>
</a>
</g>
</g>
<!-- Node1&#45;&gt;Node2 -->
<g id="edge1_Node000001_Node000002" class="edge">
<title>Node1&#45;&gt;Node2</title>
<g id="a_edge1_Node000001_Node000002"><a xlink:title=" ">
<path fill="none" stroke="#63b8ff" d="M89.64,-196.04C108.65,-217.6 146.78,-256.9 188,-277 195.45,-280.63 203.54,-283.57 211.76,-285.94"/>
<polygon fill="#63b8ff" stroke="#63b8ff" points="210.88,-289.33 221.44,-288.48 212.65,-282.56 210.88,-289.33"/>
</a>
</g>
</g>
<!-- Node3 -->
<g id="Node000003" class="node">
<title>Node3</title>
<g id="a_Node000003"><a xlink:href="classHierarchyWidget.html#afd0c8738b4b1e5b1cf5b6cae6c501d16" target="_top" xlink:title=" ">
<polygon fill="white" stroke="#666666" points="369,-268 202,-268 202,-238 369,-238 369,-268"/>
<text text-anchor="start" x="210" y="-256" font-family="Helvetica,sans-Serif" font-size="10.00">HierarchyWidget::createObject</text>
<text text-anchor="middle" x="285.5" y="-245" font-family="Helvetica,sans-Serif" font-size="10.00">Requested</text>
</a>
</g>
</g>
<!-- Node1&#45;&gt;Node3 -->
<g id="edge2_Node000001_Node000003" class="edge">
<title>Node1&#45;&gt;Node3</title>
<g id="a_edge2_Node000001_Node000003"><a xlink:title=" ">
<path fill="none" stroke="#63b8ff" d="M108.04,-196.06C130,-206.31 160.35,-219.66 188,-229 194.43,-231.17 201.16,-233.24 207.94,-235.19"/>
<polygon fill="#63b8ff" stroke="#63b8ff" points="207.33,-238.65 217.9,-237.96 209.2,-231.91 207.33,-238.65"/>
</a>
</g>
</g>
<!-- Node4 -->
<g id="Node000004" class="node">
<title>Node4</title>
<g id="a_Node000004"><a xlink:href="classHierarchyWidget.html#a5c332b22891dade6203e0b509c1520e3" target="_top" xlink:title=" ">
<polygon fill="white" stroke="#666666" points="586.5,-126 424.5,-126 424.5,-96 586.5,-96 586.5,-126"/>
<text text-anchor="start" x="432.5" y="-114" font-family="Helvetica,sans-Serif" font-size="10.00">HierarchyWidget::focusObject</text>
<text text-anchor="middle" x="505.5" y="-103" font-family="Helvetica,sans-Serif" font-size="10.00">Requested</text>
</a>
</g>
</g>
<!-- Node1&#45;&gt;Node4 -->
<g id="edge3_Node000001_Node000004" class="edge">
<title>Node1&#45;&gt;Node4</title>
<g id="a_edge3_Node000001_Node000004"><a xlink:title=" ">
<path fill="none" stroke="#63b8ff" d="M104.83,-165.81C126.74,-154.64 158.42,-140.2 188,-133 262.8,-114.79 350.27,-109.91 414.28,-109.23"/>
<polygon fill="#63b8ff" stroke="#63b8ff" points="414.37,-112.73 424.34,-109.15 414.32,-105.73 414.37,-112.73"/>
</a>
</g>
</g>
<!-- Node5 -->
<g id="Node000005" class="node">
<title>Node5</title>
<g id="a_Node000005"><a xlink:href="classHierarchyWidget.html#ad4014093232abbe73804a49bd6d58569" target="_top" xlink:title=" ">
<polygon fill="white" stroke="#666666" points="369.5,-220 201.5,-220 201.5,-190 369.5,-190 369.5,-220"/>
<text text-anchor="start" x="209.5" y="-208" font-family="Helvetica,sans-Serif" font-size="10.00">HierarchyWidget::onItemName</text>
<text text-anchor="middle" x="285.5" y="-197" font-family="Helvetica,sans-Serif" font-size="10.00">Changed</text>
</a>
</g>
</g>
<!-- Node1&#45;&gt;Node5 -->
<g id="edge4_Node000001_Node000005" class="edge">
<title>Node1&#45;&gt;Node5</title>
<g id="a_edge4_Node000001_Node000005"><a xlink:title=" ">
<path fill="none" stroke="#63b8ff" d="M152.21,-189.7C164.96,-191.17 178.34,-192.72 191.48,-194.24"/>
<polygon fill="#63b8ff" stroke="#63b8ff" points="191.14,-197.73 201.48,-195.4 191.95,-190.77 191.14,-197.73"/>
</a>
</g>
</g>
<!-- Node7 -->
<g id="Node000007" class="node">
<title>Node7</title>
<g id="a_Node000007"><a xlink:href="classHierarchyWidget.html#ab078125f6163a25ab432c526697c6acd" target="_top" xlink:title=" ">
<polygon fill="white" stroke="#666666" points="377.5,-172 193.5,-172 193.5,-142 377.5,-142 377.5,-172"/>
<text text-anchor="start" x="201.5" y="-160" font-family="Helvetica,sans-Serif" font-size="10.00">HierarchyWidget::onItemSelection</text>
<text text-anchor="middle" x="285.5" y="-149" font-family="Helvetica,sans-Serif" font-size="10.00">Changed</text>
</a>
</g>
</g>
<!-- Node1&#45;&gt;Node7 -->
<g id="edge6_Node000001_Node000007" class="edge">
<title>Node1&#45;&gt;Node7</title>
<g id="a_edge6_Node000001_Node000007"><a xlink:title=" ">
<path fill="none" stroke="#63b8ff" d="M152.21,-172.3C162.31,-171.13 172.81,-169.92 183.28,-168.71"/>
<polygon fill="#63b8ff" stroke="#63b8ff" points="183.76,-172.18 193.29,-167.55 182.95,-165.22 183.76,-172.18"/>
</a>
</g>
</g>
<!-- Node9 -->
<g id="Node000009" class="node">
<title>Node9</title>
<g id="a_Node000009"><a xlink:href="classHierarchyWidget.html#aac181269e489e83bab657f2a8fa99ebd" target="_top" xlink:title=" ">
<polygon fill="white" stroke="#666666" points="383,-78.5 188,-78.5 188,-59.5 383,-59.5 383,-78.5"/>
<text text-anchor="middle" x="285.5" y="-66.5" font-family="Helvetica,sans-Serif" font-size="10.00">HierarchyWidget::showContextMenu</text>
</a>
</g>
</g>
<!-- Node1&#45;&gt;Node9 -->
<g id="edge8_Node000001_Node000009" class="edge">
<title>Node1&#45;&gt;Node9</title>
<g id="a_edge8_Node000001_Node000009"><a xlink:title=" ">
<path fill="none" stroke="#63b8ff" d="M93.43,-165.75C114.08,-147.33 151.26,-116.52 188,-98 201.45,-91.22 216.78,-85.72 231.19,-81.4"/>
<polygon fill="#63b8ff" stroke="#63b8ff" points="232.33,-84.71 240.99,-78.6 230.41,-77.98 232.33,-84.71"/>
</a>
</g>
</g>
<!-- Node6 -->
<g id="Node000006" class="node">
<title>Node6</title>
<g id="a_Node000006"><a xlink:href="classHierarchyWidget.html#a03ebbe8f052f3154d5420a4fbc62fad6" target="_top" xlink:title=" ">
<polygon fill="white" stroke="#666666" points="592,-222 419,-222 419,-192 592,-192 592,-222"/>
<text text-anchor="start" x="427" y="-210" font-family="Helvetica,sans-Serif" font-size="10.00">HierarchyWidget::renameObject</text>
<text text-anchor="middle" x="505.5" y="-199" font-family="Helvetica,sans-Serif" font-size="10.00">Requested</text>
</a>
</g>
</g>
<!-- Node5&#45;&gt;Node6 -->
<g id="edge5_Node000005_Node000006" class="edge">
<title>Node5&#45;&gt;Node6</title>
<g id="a_edge5_Node000005_Node000006"><a xlink:title=" ">
<path fill="none" stroke="#63b8ff" d="M369.54,-205.76C382.26,-205.88 395.48,-206 408.46,-206.12"/>
<polygon fill="#63b8ff" stroke="#63b8ff" points="408.77,-209.62 418.8,-206.21 408.83,-202.62 408.77,-209.62"/>
</a>
</g>
</g>
<!-- Node8 -->
<g id="Node000008" class="node">
<title>Node8</title>
<g id="a_Node000008"><a xlink:href="classHierarchyWidget.html#abd2eefa0f824d84eb87ef74aff7a5db0" target="_top" xlink:title=" ">
<polygon fill="white" stroke="#666666" points="580,-174 431,-174 431,-144 580,-144 580,-174"/>
<text text-anchor="start" x="439" y="-162" font-family="Helvetica,sans-Serif" font-size="10.00">HierarchyWidget::selection</text>
<text text-anchor="middle" x="505.5" y="-151" font-family="Helvetica,sans-Serif" font-size="10.00">Changed</text>
</a>
</g>
</g>
<!-- Node7&#45;&gt;Node8 -->
<g id="edge7_Node000007_Node000008" class="edge">
<title>Node7&#45;&gt;Node8</title>
<g id="a_edge7_Node000007_Node000008"><a xlink:title=" ">
<path fill="none" stroke="#63b8ff" d="M377.69,-157.84C391.96,-157.97 406.65,-158.1 420.74,-158.23"/>
<polygon fill="#63b8ff" stroke="#63b8ff" points="420.85,-161.73 430.89,-158.32 420.92,-154.73 420.85,-161.73"/>
</a>
</g>
</g>
<!-- Node9&#45;&gt;Node4 -->
<g id="edge10_Node000009_Node000004" class="edge">
<title>Node9&#45;&gt;Node4</title>
<g id="a_edge10_Node000009_Node000004"><a xlink:title=" ">
<path fill="none" stroke="#63b8ff" d="M335.97,-78.53C359.8,-83.12 389.11,-88.77 416.56,-94.06"/>
<polygon fill="#63b8ff" stroke="#63b8ff" points="416.1,-97.53 426.58,-95.99 417.42,-90.66 416.1,-97.53"/>
</a>
</g>
</g>
<!-- Node10 -->
<g id="Node000010" class="node">
<title>Node10</title>
<g id="a_Node000010"><a xlink:href="classHierarchyWidget.html#a762380c3ee89098876ae12f098b58ed1" target="_top" xlink:title=" ">
<polygon fill="white" stroke="#666666" points="589,-30 422,-30 422,0 589,0 589,-30"/>
<text text-anchor="start" x="430" y="-18" font-family="Helvetica,sans-Serif" font-size="10.00">HierarchyWidget::clearCamera</text>
<text text-anchor="middle" x="505.5" y="-7" font-family="Helvetica,sans-Serif" font-size="10.00">FollowRequested</text>
</a>
</g>
</g>
<!-- Node9&#45;&gt;Node10 -->
<g id="edge9_Node000009_Node000010" class="edge">
<title>Node9&#45;&gt;Node10</title>
<g id="a_edge9_Node000009_Node000010"><a xlink:title=" ">
<path fill="none" stroke="#63b8ff" d="M324.97,-59.47C355.03,-52.03 397.62,-41.47 433.78,-32.52"/>
<polygon fill="#63b8ff" stroke="#63b8ff" points="434.92,-35.84 443.79,-30.04 433.24,-29.05 434.92,-35.84"/>
</a>
</g>
</g>
<!-- Node11 -->
<g id="Node000011" class="node">
<title>Node11</title>
<g id="a_Node000011"><a xlink:href="classHierarchyWidget.html#ab652f8ef6c669533e6504ffda40cf29e" target="_top" xlink:title=" ">
<polygon fill="white" stroke="#666666" points="588.5,-78 422.5,-78 422.5,-48 588.5,-48 588.5,-78"/>
<text text-anchor="start" x="430.5" y="-66" font-family="Helvetica,sans-Serif" font-size="10.00">HierarchyWidget::followObject</text>
<text text-anchor="middle" x="505.5" y="-55" font-family="Helvetica,sans-Serif" font-size="10.00">Requested</text>
</a>
</g>
</g>
<!-- Node9&#45;&gt;Node11 -->
<g id="edge11_Node000009_Node000011" class="edge">
<title>Node9&#45;&gt;Node11</title>
<g id="a_edge11_Node000009_Node000011"><a xlink:title=" ">
<path fill="none" stroke="#63b8ff" d="M383.07,-66.34C392.79,-66.07 402.64,-65.8 412.32,-65.54"/>
<polygon fill="#63b8ff" stroke="#63b8ff" points="412.42,-69.04 422.32,-65.26 412.23,-62.04 412.42,-69.04"/>
</a>
</g>
</g>
</g>
</svg>
