<?xml version="1.0" encoding="UTF-8" standalone="no"?>
<!DOCTYPE svg PUBLIC "-//W3C//DTD SVG 1.1//EN"
 "http://www.w3.org/Graphics/SVG/1.1/DTD/svg11.dtd">
<!-- Generated by graphviz version 2.43.0 (0)
 -->
<!-- Title: AppSettings::getInstance Pages: 1 -->
<!--zoomable 272 -->

<svg id="main" version="1.1" xmlns="http://www.w3.org/2000/svg" xmlns:xlink="http://www.w3.org/1999/xlink" xml:space="preserve" onload="init(evt)">
<style type="text/css"><![CDATA[
.node, .edge {opacity: 0.7;}
.node.selected, .edge.selected {opacity: 1;}
.edge:hover path { stroke: red; }
.edge:hover polygon { stroke: red; fill: red; }
]]></style>

<defs>
  <circle id="rim" cx="0" cy="0" r="7"/>
  <circle id="rim2" cx="0" cy="0" r="3.5"/>
  <g id="zoomPlus">
    <use xlink:href="#rim" fill="#404040"><set attributeName="fill" to="#808080" begin="zoomplus.mouseover" end="zoomplus.mouseout"/></use>
    <path d="M-4,0h8M0,-4v8" fill="none" stroke="white" stroke-width="1.5" pointer-events="none"/>
  </g>
  <g id="zoomMin">
    <use xlink:href="#rim" fill="#404040"><set attributeName="fill" to="#808080" begin="zoomminus.mouseover" end="zoomminus.mouseout"/></use>
    <path d="M-4,0h8" fill="none" stroke="white" stroke-width="1.5" pointer-events="none"/>
  </g>
  <g id="arrowUp" transform="translate(30 24)">
    <use xlink:href="#rim"/>
    <path pointer-events="none" fill="none" stroke="white" stroke-width="1.5" d="M0,-3.0v7 M-2.5,-0.5L0,-3.0L2.5,-0.5"/>
  </g>
  <g id="arrowRight" transform="rotate(90) translate(36 -43)">
    <use xlink:href="#rim"/>
    <path pointer-events="none" fill="none" stroke="white" stroke-width="1.5" d="M0,-3.0v7 M-2.5,-0.5L0,-3.0L2.5,-0.5"/>
  </g>
  <g id="arrowDown" transform="rotate(180) translate(-30 -48)">
    <use xlink:href="#rim"/>
    <path pointer-events="none" fill="none" stroke="white" stroke-width="1.5" d="M0,-3.0v7 M-2.5,-0.5L0,-3.0L2.5,-0.5"/>
  </g>
  <g id="arrowLeft" transform="rotate(270) translate(-36 17)">
    <use xlink:href="#rim"/>
    <path pointer-events="none" fill="none" stroke="white" stroke-width="1.5" d="M0,-3.0v7 M-2.5,-0.5L0,-3.0L2.5,-0.5"/>
  </g>
  <g id="resetDef">
    <use xlink:href="#rim2" fill="#404040"><set attributeName="fill" to="#808080" begin="reset.mouseover" end="reset.mouseout"/></use>
  </g>
</defs>
<script type="application/ecmascript">
var viewWidth = 517;
var viewHeight = 272;
var sectionId = 'dynsection-1';
</script>
<script type="application/ecmascript" xlink:href="svg.min.js"/>
<svg id="graph" class="graph">
<g id="viewport">
<title>AppSettings::getInstance</title>
<!-- Node1 -->
<g id="Node000001" class="node">
<title>Node1</title>
<g id="a_Node000001"><a xlink:title=" ">
<polygon fill="#999999" stroke="#666666" points="509,-141.5 371,-141.5 371,-122.5 509,-122.5 509,-141.5"/>
<text text-anchor="middle" x="440" y="-129.5" font-family="Helvetica,sans-Serif" font-size="10.00">AppSettings::getInstance</text>
</a>
</g>
</g>
<!-- Node2 -->
<g id="Node000002" class="node">
<title>Node2</title>
<g id="a_Node000002"><a xlink:href="classSceneManager.html#af2a17ef84ef7682d13ab8c36e3c9fdd3" target="_top" xlink:title=" ">
<polygon fill="white" stroke="#666666" points="335,-264 182,-264 182,-234 335,-234 335,-264"/>
<text text-anchor="start" x="190" y="-252" font-family="Helvetica,sans-Serif" font-size="10.00">SceneManager::applyDebug</text>
<text text-anchor="middle" x="258.5" y="-241" font-family="Helvetica,sans-Serif" font-size="10.00">Settings</text>
</a>
</g>
</g>
<!-- Node1&#45;&gt;Node2 -->
<g id="edge1_Node000001_Node000002" class="edge">
<title>Node1&#45;&gt;Node2</title>
<g id="a_edge1_Node000001_Node000002"><a xlink:title=" ">
<path fill="none" stroke="#63b8ff" d="M423.95,-149.34C405.09,-170.07 370.87,-204.53 335,-225 329.15,-228.34 322.77,-231.28 316.28,-233.85"/>
<polygon fill="#63b8ff" stroke="#63b8ff" points="426.79,-151.41 430.84,-141.62 421.57,-146.75 426.79,-151.41"/>
</a>
</g>
</g>
<!-- Node4 -->
<g id="Node000004" class="node">
<title>Node4</title>
<g id="a_Node000004"><a xlink:href="classCameraTab.html#a63ebb65c808178f3e6a77da39f2d585d" target="_top" xlink:title=" ">
<polygon fill="white" stroke="#666666" points="324.5,-215.5 192.5,-215.5 192.5,-196.5 324.5,-196.5 324.5,-215.5"/>
<text text-anchor="middle" x="258.5" y="-203.5" font-family="Helvetica,sans-Serif" font-size="10.00">CameraTab::CameraTab</text>
</a>
</g>
</g>
<!-- Node1&#45;&gt;Node4 -->
<g id="edge3_Node000001_Node000004" class="edge">
<title>Node1&#45;&gt;Node4</title>
<g id="a_edge3_Node000001_Node000004"><a xlink:title=" ">
<path fill="none" stroke="#63b8ff" d="M415.42,-147C394.88,-159.5 363.92,-176.98 335,-188 326.44,-191.26 317.1,-194.06 308,-196.41"/>
<polygon fill="#63b8ff" stroke="#63b8ff" points="417.42,-149.88 424.09,-141.65 413.74,-143.92 417.42,-149.88"/>
</a>
</g>
</g>
<!-- Node5 -->
<g id="Node000005" class="node">
<title>Node5</title>
<g id="a_Node000005"><a xlink:href="classDebugTab.html#a5a296109274b1d3f5ec756f453ee5fd3" target="_top" xlink:title=" ">
<polygon fill="white" stroke="#666666" points="318,-178.5 199,-178.5 199,-159.5 318,-159.5 318,-178.5"/>
<text text-anchor="middle" x="258.5" y="-166.5" font-family="Helvetica,sans-Serif" font-size="10.00">DebugTab::DebugTab</text>
</a>
</g>
</g>
<!-- Node1&#45;&gt;Node5 -->
<g id="edge4_Node000001_Node000005" class="edge">
<title>Node1&#45;&gt;Node5</title>
<g id="a_edge4_Node000001_Node000005"><a xlink:title=" ">
<path fill="none" stroke="#63b8ff" d="M382.8,-143.58C358.07,-148.68 329.37,-154.6 305.88,-159.44"/>
<polygon fill="#63b8ff" stroke="#63b8ff" points="383.69,-146.98 392.77,-141.53 382.27,-140.12 383.69,-146.98"/>
</a>
</g>
</g>
<!-- Node6 -->
<g id="Node000006" class="node">
<title>Node6</title>
<g id="a_Node000006"><a xlink:href="classMainWindow.html#a996c5a2b6f77944776856f08ec30858d" target="_top" xlink:title=" ">
<polygon fill="white" stroke="#666666" points="332.5,-141.5 184.5,-141.5 184.5,-122.5 332.5,-122.5 332.5,-141.5"/>
<text text-anchor="middle" x="258.5" y="-129.5" font-family="Helvetica,sans-Serif" font-size="10.00">MainWindow::MainWindow</text>
</a>
</g>
</g>
<!-- Node1&#45;&gt;Node6 -->
<g id="edge5_Node000001_Node000006" class="edge">
<title>Node1&#45;&gt;Node6</title>
<g id="a_edge5_Node000001_Node000006"><a xlink:title=" ">
<path fill="none" stroke="#63b8ff" d="M360.82,-132C351.46,-132 341.94,-132 332.66,-132"/>
<polygon fill="#63b8ff" stroke="#63b8ff" points="360.88,-135.5 370.88,-132 360.88,-128.5 360.88,-135.5"/>
</a>
</g>
</g>
<!-- Node7 -->
<g id="Node000007" class="node">
<title>Node7</title>
<g id="a_Node000007"><a xlink:href="classCameraTab.html#aa8249e4d8beac24b7d5d2563d096c087" target="_top" xlink:title=" ">
<polygon fill="white" stroke="#666666" points="328.5,-104.5 188.5,-104.5 188.5,-85.5 328.5,-85.5 328.5,-104.5"/>
<text text-anchor="middle" x="258.5" y="-92.5" font-family="Helvetica,sans-Serif" font-size="10.00">CameraTab::saveSettings</text>
</a>
</g>
</g>
<!-- Node1&#45;&gt;Node7 -->
<g id="edge6_Node000001_Node000007" class="edge">
<title>Node1&#45;&gt;Node7</title>
<g id="a_edge6_Node000001_Node000007"><a xlink:title=" ">
<path fill="none" stroke="#63b8ff" d="M382.8,-120.42C358.07,-115.32 329.37,-109.4 305.88,-104.56"/>
<polygon fill="#63b8ff" stroke="#63b8ff" points="382.27,-123.88 392.77,-122.47 383.69,-117.02 382.27,-123.88"/>
</a>
</g>
</g>
<!-- Node8 -->
<g id="Node000008" class="node">
<title>Node8</title>
<g id="a_Node000008"><a xlink:href="classDebugTab.html#a24ab458421934b598a97fd01a13e0a95" target="_top" xlink:title=" ">
<polygon fill="white" stroke="#666666" points="325.5,-67.5 191.5,-67.5 191.5,-48.5 325.5,-48.5 325.5,-67.5"/>
<text text-anchor="middle" x="258.5" y="-55.5" font-family="Helvetica,sans-Serif" font-size="10.00">DebugTab::saveSettings</text>
</a>
</g>
</g>
<!-- Node1&#45;&gt;Node8 -->
<g id="edge7_Node000001_Node000008" class="edge">
<title>Node1&#45;&gt;Node8</title>
<g id="a_edge7_Node000001_Node000008"><a xlink:title=" ">
<path fill="none" stroke="#63b8ff" d="M415,-117.17C394.4,-104.98 363.61,-87.98 335,-77 325.41,-73.32 314.86,-70.15 304.76,-67.51"/>
<polygon fill="#63b8ff" stroke="#63b8ff" points="413.32,-120.25 423.7,-122.4 416.92,-114.25 413.32,-120.25"/>
</a>
</g>
</g>
<!-- Node9 -->
<g id="Node000009" class="node">
<title>Node9</title>
<g id="a_Node000009"><a xlink:href="classSettingsDialog.html#ac5ab03e7361d2d6fe1232ee8ce1f0c26" target="_top" xlink:title=" ">
<polygon fill="white" stroke="#666666" points="325.5,-30 191.5,-30 191.5,0 325.5,0 325.5,-30"/>
<text text-anchor="start" x="199.5" y="-18" font-family="Helvetica,sans-Serif" font-size="10.00">SettingsDialog::Settings</text>
<text text-anchor="middle" x="258.5" y="-7" font-family="Helvetica,sans-Serif" font-size="10.00">Dialog</text>
</a>
</g>
</g>
<!-- Node1&#45;&gt;Node9 -->
<g id="edge8_Node000001_Node000009" class="edge">
<title>Node1&#45;&gt;Node9</title>
<g id="a_edge8_Node000001_Node000009"><a xlink:title=" ">
<path fill="none" stroke="#63b8ff" d="M423.58,-114.61C404.58,-94.15 370.45,-60.39 335,-40 328.42,-36.21 321.18,-32.9 313.87,-30.03"/>
<polygon fill="#63b8ff" stroke="#63b8ff" points="421.21,-117.21 430.53,-122.24 426.38,-112.49 421.21,-117.21"/>
</a>
</g>
</g>
<!-- Node3 -->
<g id="Node000003" class="node">
<title>Node3</title>
<g id="a_Node000003"><a xlink:href="classSceneManager.html#ad9d648b5fb5a92c4612c640fc7cb47fb" target="_top" xlink:title=" ">
<polygon fill="white" stroke="#666666" points="146,-258.5 0,-258.5 0,-239.5 146,-239.5 146,-258.5"/>
<text text-anchor="middle" x="73" y="-246.5" font-family="Helvetica,sans-Serif" font-size="10.00">SceneManager::loadPreset</text>
</a>
</g>
</g>
<!-- Node2&#45;&gt;Node3 -->
<g id="edge2_Node000002_Node000003" class="edge">
<title>Node2&#45;&gt;Node3</title>
<g id="a_edge2_Node000002_Node000003"><a xlink:title=" ">
<path fill="none" stroke="#63b8ff" d="M171.54,-249C163.09,-249 154.57,-249 146.28,-249"/>
<polygon fill="#63b8ff" stroke="#63b8ff" points="171.8,-252.5 181.8,-249 171.8,-245.5 171.8,-252.5"/>
</a>
</g>
</g>
</g>
</svg>

<g id="navigator" transform="translate(0 0)" fill="#404254">
  <rect fill="#f2f5e9" fill-opacity="0.5" stroke="#606060" stroke-width=".5" x="0" y="0" width="60" height="60"/>
  <use id="zoomplus" xlink:href="#zoomPlus" x="17" y="9" onmousedown="handleZoom(evt,'in')"/>
  <use id="zoomminus" xlink:href="#zoomMin" x="42" y="9" onmousedown="handleZoom(evt,'out')"/>
  <use id="reset" xlink:href="#resetDef" x="30" y="36" onmousedown="handleReset()"/>
   <use id="arrowup" xlink:href="#arrowUp" x="0" y="0" onmousedown="handlePan(0,-1)"/>
  <use id="arrowright" xlink:href="#arrowRight" x="0" y="0" onmousedown="handlePan(1,0)"/>
  <use id="arrowdown" xlink:href="#arrowDown" x="0" y="0" onmousedown="handlePan(0,1)"/>
  <use id="arrowleft" xlink:href="#arrowLeft" x="0" y="0" onmousedown="handlePan(-1,0)"/>
</g>
<svg viewBox="0 0 15 15" width="100%" height="30px" preserveAspectRatio="xMaxYMin meet">
 <g id="arrow_out" transform="scale(0.3 0.3)">
  <a xlink:href="classAppSettings_a1a7b7175ec4769346b50d6c5735cfca9_icgraph_org.svg" target="_base">
   <rect id="button" ry="5" rx="5" y="6" x="6" height="38" width="38"
        fill="#f2f5e9" fill-opacity="0.5" stroke="#606060" stroke-width="1.0"/>
   <path id="arrow"
     d="M 11.500037,31.436501 C 11.940474,20.09759 22.043105,11.32322 32.158766,21.979434 L 37.068811,17.246167 C 37.068811,17.246167 37.088388,32 37.088388,32 L 22.160133,31.978069 C 22.160133,31.978069 26.997745,27.140456 26.997745,27.140456 C 18.528582,18.264221 13.291696,25.230495 11.500037,31.436501 z"
     style="fill:#404040;"/>
  </a>
 </g>
</svg>

<style type='text/css'>
<![CDATA[
[data-mouse-over-selected='false'] { opacity: 0.7; }
[data-mouse-over-selected='true']  { opacity: 1.0; }
]]>
</style>
<script type="application/ecmascript"><![CDATA[
document.addEventListener('DOMContentLoaded', (event) => {
  highlightEdges();
  highlightAdjacentNodes();
});
]]></script>
</svg>
