<?xml version="1.0" encoding="UTF-8" standalone="no"?>
<!DOCTYPE svg PUBLIC "-//W3C//DTD SVG 1.1//EN"
 "http://www.w3.org/Graphics/SVG/1.1/DTD/svg11.dtd">
<!-- Generated by graphviz version 2.43.0 (0)
 -->
<!-- Title: InspectorWidget::InspectorWidget Pages: 1 -->
<!--zoomable 182 -->

<svg id="main" version="1.1" xmlns="http://www.w3.org/2000/svg" xmlns:xlink="http://www.w3.org/1999/xlink" xml:space="preserve" onload="init(evt)">
<style type="text/css"><![CDATA[
.node, .edge {opacity: 0.7;}
.node.selected, .edge.selected {opacity: 1;}
.edge:hover path { stroke: red; }
.edge:hover polygon { stroke: red; fill: red; }
]]></style>

<defs>
  <circle id="rim" cx="0" cy="0" r="7"/>
  <circle id="rim2" cx="0" cy="0" r="3.5"/>
  <g id="zoomPlus">
    <use xlink:href="#rim" fill="#404040"><set attributeName="fill" to="#808080" begin="zoomplus.mouseover" end="zoomplus.mouseout"/></use>
    <path d="M-4,0h8M0,-4v8" fill="none" stroke="white" stroke-width="1.5" pointer-events="none"/>
  </g>
  <g id="zoomMin">
    <use xlink:href="#rim" fill="#404040"><set attributeName="fill" to="#808080" begin="zoomminus.mouseover" end="zoomminus.mouseout"/></use>
    <path d="M-4,0h8" fill="none" stroke="white" stroke-width="1.5" pointer-events="none"/>
  </g>
  <g id="arrowUp" transform="translate(30 24)">
    <use xlink:href="#rim"/>
    <path pointer-events="none" fill="none" stroke="white" stroke-width="1.5" d="M0,-3.0v7 M-2.5,-0.5L0,-3.0L2.5,-0.5"/>
  </g>
  <g id="arrowRight" transform="rotate(90) translate(36 -43)">
    <use xlink:href="#rim"/>
    <path pointer-events="none" fill="none" stroke="white" stroke-width="1.5" d="M0,-3.0v7 M-2.5,-0.5L0,-3.0L2.5,-0.5"/>
  </g>
  <g id="arrowDown" transform="rotate(180) translate(-30 -48)">
    <use xlink:href="#rim"/>
    <path pointer-events="none" fill="none" stroke="white" stroke-width="1.5" d="M0,-3.0v7 M-2.5,-0.5L0,-3.0L2.5,-0.5"/>
  </g>
  <g id="arrowLeft" transform="rotate(270) translate(-36 17)">
    <use xlink:href="#rim"/>
    <path pointer-events="none" fill="none" stroke="white" stroke-width="1.5" d="M0,-3.0v7 M-2.5,-0.5L0,-3.0L2.5,-0.5"/>
  </g>
  <g id="resetDef">
    <use xlink:href="#rim2" fill="#404040"><set attributeName="fill" to="#808080" begin="reset.mouseover" end="reset.mouseout"/></use>
  </g>
</defs>
<script type="application/ecmascript">
var viewWidth = 539;
var viewHeight = 182;
var sectionId = 'dynsection-2';
</script>
<script type="application/ecmascript" xlink:href="svg.min.js"/>
<svg id="graph" class="graph">
<g id="viewport">
<title>InspectorWidget::InspectorWidget</title>
<!-- Node1 -->
<g id="Node000001" class="node">
<title>Node1</title>
<g id="a_Node000001"><a xlink:title=" ">
<polygon fill="#999999" stroke="#666666" points="147,-123 0,-123 0,-93 147,-93 147,-123"/>
<text text-anchor="start" x="8" y="-111" font-family="Helvetica,sans-Serif" font-size="10.00">InspectorWidget::Inspector</text>
<text text-anchor="middle" x="73.5" y="-100" font-family="Helvetica,sans-Serif" font-size="10.00">Widget</text>
</a>
</g>
</g>
<!-- Node2 -->
<g id="Node000002" class="node">
<title>Node2</title>
<g id="a_Node000002"><a xlink:href="classGlobalsInspectorWidget.html#ae37cdb28488cb59cfe346dee4050541c" target="_top" xlink:title=" ">
<polygon fill="white" stroke="#666666" points="333,-145 200,-145 200,-115 333,-115 333,-145"/>
<text text-anchor="start" x="208" y="-133" font-family="Helvetica,sans-Serif" font-size="10.00">GlobalsInspectorWidget</text>
<text text-anchor="middle" x="266.5" y="-122" font-family="Helvetica,sans-Serif" font-size="10.00">::solveRequested</text>
</a>
</g>
</g>
<!-- Node1&#45;&gt;Node2 -->
<g id="edge1_Node000001_Node000002" class="edge">
<title>Node1&#45;&gt;Node2</title>
<g id="a_edge1_Node000001_Node000002"><a xlink:title=" ">
<path fill="none" stroke="#63b8ff" d="M147.25,-116.38C161.17,-117.98 175.76,-119.66 189.77,-121.28"/>
<polygon fill="#63b8ff" stroke="#63b8ff" points="189.5,-124.77 199.84,-122.44 190.31,-117.82 189.5,-124.77"/>
</a>
</g>
</g>
<!-- Node3 -->
<g id="Node000003" class="node">
<title>Node3</title>
<g id="a_Node000003"><a xlink:href="classInspectorWidget.html#a60d8f6bb53f54ec1d1ed6302225d37d7" target="_top" xlink:title=" ">
<polygon fill="white" stroke="#666666" points="350,-96.5 183,-96.5 183,-77.5 350,-77.5 350,-96.5"/>
<text text-anchor="middle" x="266.5" y="-84.5" font-family="Helvetica,sans-Serif" font-size="10.00">InspectorWidget::unloadObject</text>
</a>
</g>
</g>
<!-- Node1&#45;&gt;Node3 -->
<g id="edge2_Node000001_Node000003" class="edge">
<title>Node1&#45;&gt;Node3</title>
<g id="a_edge2_Node000001_Node000003"><a xlink:title=" ">
<path fill="none" stroke="#63b8ff" d="M147.25,-100C155.59,-99.08 164.17,-98.14 172.72,-97.2"/>
<polygon fill="#63b8ff" stroke="#63b8ff" points="173.17,-100.67 182.73,-96.1 172.41,-93.71 173.17,-100.67"/>
</a>
</g>
</g>
<!-- Node4 -->
<g id="Node000004" class="node">
<title>Node4</title>
<g id="a_Node000004"><a xlink:href="classForcesInspectorWidget.html#afd2b8ecce7fbadc0ce142673c84bacef" target="_top" xlink:title="Unloads the current object and clears section state.">
<polygon fill="white" stroke="#666666" points="522.5,-174 394.5,-174 394.5,-144 522.5,-144 522.5,-174"/>
<text text-anchor="start" x="402.5" y="-162" font-family="Helvetica,sans-Serif" font-size="10.00">ForcesInspectorWidget</text>
<text text-anchor="middle" x="458.5" y="-151" font-family="Helvetica,sans-Serif" font-size="10.00">::unload</text>
</a>
</g>
</g>
<!-- Node3&#45;&gt;Node4 -->
<g id="edge3_Node000003_Node000004" class="edge">
<title>Node3&#45;&gt;Node4</title>
<g id="a_edge3_Node000003_Node000004"><a xlink:title=" ">
<path fill="none" stroke="#63b8ff" d="M324.58,-96.58C333.32,-99.06 342.07,-102.15 350,-106 368.48,-114.98 367.98,-125.13 386,-135 389.23,-136.77 392.62,-138.44 396.09,-140.01"/>
<polygon fill="#63b8ff" stroke="#63b8ff" points="394.83,-143.28 405.41,-143.95 397.56,-136.83 394.83,-143.28"/>
</a>
</g>
</g>
<!-- Node5 -->
<g id="Node000005" class="node">
<title>Node5</title>
<g id="a_Node000005"><a xlink:href="classPhysicsInspectorWidget.html#a8ebf43727a4990146b5ecc042932b7d2" target="_top" xlink:title="Unloads the current object and clears section state.">
<polygon fill="white" stroke="#666666" points="525,-126 392,-126 392,-96 525,-96 525,-126"/>
<text text-anchor="start" x="400" y="-114" font-family="Helvetica,sans-Serif" font-size="10.00">PhysicsInspectorWidget</text>
<text text-anchor="middle" x="458.5" y="-103" font-family="Helvetica,sans-Serif" font-size="10.00">::unload</text>
</a>
</g>
</g>
<!-- Node3&#45;&gt;Node5 -->
<g id="edge4_Node000003_Node000005" class="edge">
<title>Node3&#45;&gt;Node5</title>
<g id="a_edge4_Node000003_Node000005"><a xlink:title=" ">
<path fill="none" stroke="#63b8ff" d="M342.87,-96.52C355.62,-98.13 368.87,-99.8 381.63,-101.42"/>
<polygon fill="#63b8ff" stroke="#63b8ff" points="381.39,-104.91 391.75,-102.69 382.27,-97.97 381.39,-104.91"/>
</a>
</g>
</g>
<!-- Node6 -->
<g id="Node000006" class="node">
<title>Node6</title>
<g id="a_Node000006"><a xlink:href="classThermalInspectorWidget.html#a00f383263c5c19873b08dcb321fd6740" target="_top" xlink:title="Unloads the current object and clears section state.">
<polygon fill="white" stroke="#666666" points="527,-78 390,-78 390,-48 527,-48 527,-78"/>
<text text-anchor="start" x="398" y="-66" font-family="Helvetica,sans-Serif" font-size="10.00">ThermalInspectorWidget</text>
<text text-anchor="middle" x="458.5" y="-55" font-family="Helvetica,sans-Serif" font-size="10.00">::unload</text>
</a>
</g>
</g>
<!-- Node3&#45;&gt;Node6 -->
<g id="edge5_Node000003_Node000006" class="edge">
<title>Node3&#45;&gt;Node6</title>
<g id="a_edge5_Node000003_Node000006"><a xlink:title=" ">
<path fill="none" stroke="#63b8ff" d="M342.87,-77.48C355.01,-75.95 367.6,-74.36 379.79,-72.82"/>
<polygon fill="#63b8ff" stroke="#63b8ff" points="380.44,-76.26 389.92,-71.54 379.56,-69.32 380.44,-76.26"/>
</a>
</g>
</g>
<!-- Node7 -->
<g id="Node000007" class="node">
<title>Node7</title>
<g id="a_Node000007"><a xlink:href="classTransformInspectorWidget.html#a614c03aefcee9f1e4ecb08bf83f0d836" target="_top" xlink:title="Unloads the current object and clears section state.">
<polygon fill="white" stroke="#666666" points="531,-30 386,-30 386,0 531,0 531,-30"/>
<text text-anchor="start" x="394" y="-18" font-family="Helvetica,sans-Serif" font-size="10.00">TransformInspectorWidget</text>
<text text-anchor="middle" x="458.5" y="-7" font-family="Helvetica,sans-Serif" font-size="10.00">::unload</text>
</a>
</g>
</g>
<!-- Node3&#45;&gt;Node7 -->
<g id="edge6_Node000003_Node000007" class="edge">
<title>Node3&#45;&gt;Node7</title>
<g id="a_edge6_Node000003_Node000007"><a xlink:title=" ">
<path fill="none" stroke="#63b8ff" d="M290.06,-77.38C313.78,-67.38 352.28,-51.48 386,-39 391.07,-37.13 396.36,-35.23 401.67,-33.37"/>
<polygon fill="#63b8ff" stroke="#63b8ff" points="402.89,-36.65 411.2,-30.08 400.61,-30.04 402.89,-36.65"/>
</a>
</g>
</g>
</g>
</svg>

<g id="navigator" transform="translate(0 0)" fill="#404254">
  <rect fill="#f2f5e9" fill-opacity="0.5" stroke="#606060" stroke-width=".5" x="0" y="0" width="60" height="60"/>
  <use id="zoomplus" xlink:href="#zoomPlus" x="17" y="9" onmousedown="handleZoom(evt,'in')"/>
  <use id="zoomminus" xlink:href="#zoomMin" x="42" y="9" onmousedown="handleZoom(evt,'out')"/>
  <use id="reset" xlink:href="#resetDef" x="30" y="36" onmousedown="handleReset()"/>
   <use id="arrowup" xlink:href="#arrowUp" x="0" y="0" onmousedown="handlePan(0,-1)"/>
  <use id="arrowright" xlink:href="#arrowRight" x="0" y="0" onmousedown="handlePan(1,0)"/>
  <use id="arrowdown" xlink:href="#arrowDown" x="0" y="0" onmousedown="handlePan(0,1)"/>
  <use id="arrowleft" xlink:href="#arrowLeft" x="0" y="0" onmousedown="handlePan(-1,0)"/>
</g>
<svg viewBox="0 0 15 15" width="100%" height="30px" preserveAspectRatio="xMaxYMin meet">
 <g id="arrow_out" transform="scale(0.3 0.3)">
  <a xlink:href="classInspectorWidget_aab967d88cba80582b0b20c3b133ae6fe_cgraph_org.svg" target="_base">
   <rect id="button" ry="5" rx="5" y="6" x="6" height="38" width="38"
        fill="#f2f5e9" fill-opacity="0.5" stroke="#606060" stroke-width="1.0"/>
   <path id="arrow"
     d="M 11.500037,31.436501 C 11.940474,20.09759 22.043105,11.32322 32.158766,21.979434 L 37.068811,17.246167 C 37.068811,17.246167 37.088388,32 37.088388,32 L 22.160133,31.978069 C 22.160133,31.978069 26.997745,27.140456 26.997745,27.140456 C 18.528582,18.264221 13.291696,25.230495 11.500037,31.436501 z"
     style="fill:#404040;"/>
  </a>
 </g>
</svg>

<style type='text/css'>
<![CDATA[
[data-mouse-over-selected='false'] { opacity: 0.7; }
[data-mouse-over-selected='true']  { opacity: 1.0; }
]]>
</style>
<script type="application/ecmascript"><![CDATA[
document.addEventListener('DOMContentLoaded', (event) => {
  highlightEdges();
  highlightAdjacentNodes();
});
]]></script>
</svg>
