<?xml version="1.0" encoding="UTF-8" standalone="no"?>
<!DOCTYPE svg PUBLIC "-//W3C//DTD SVG 1.1//EN"
 "http://www.w3.org/Graphics/SVG/1.1/DTD/svg11.dtd">
<!-- Generated by graphviz version 2.43.0 (0)
 -->
<!-- Title: SceneManager::processHeldKeys Pages: 1 -->
<!--zoomable 520 -->

<svg id="main" version="1.1" xmlns="http://www.w3.org/2000/svg" xmlns:xlink="http://www.w3.org/1999/xlink" xml:space="preserve" onload="init(evt)">
<style type="text/css"><![CDATA[
.node, .edge {opacity: 0.7;}
.node.selected, .edge.selected {opacity: 1;}
.edge:hover path { stroke: red; }
.edge:hover polygon { stroke: red; fill: red; }
]]></style>

<defs>
  <circle id="rim" cx="0" cy="0" r="7"/>
  <circle id="rim2" cx="0" cy="0" r="3.5"/>
  <g id="zoomPlus">
    <use xlink:href="#rim" fill="#404040"><set attributeName="fill" to="#808080" begin="zoomplus.mouseover" end="zoomplus.mouseout"/></use>
    <path d="M-4,0h8M0,-4v8" fill="none" stroke="white" stroke-width="1.5" pointer-events="none"/>
  </g>
  <g id="zoomMin">
    <use xlink:href="#rim" fill="#404040"><set attributeName="fill" to="#808080" begin="zoomminus.mouseover" end="zoomminus.mouseout"/></use>
    <path d="M-4,0h8" fill="none" stroke="white" stroke-width="1.5" pointer-events="none"/>
  </g>
  <g id="arrowUp" transform="translate(30 24)">
    <use xlink:href="#rim"/>
    <path pointer-events="none" fill="none" stroke="white" stroke-width="1.5" d="M0,-3.0v7 M-2.5,-0.5L0,-3.0L2.5,-0.5"/>
  </g>
  <g id="arrowRight" transform="rotate(90) translate(36 -43)">
    <use xlink:href="#rim"/>
    <path pointer-events="none" fill="none" stroke="white" stroke-width="1.5" d="M0,-3.0v7 M-2.5,-0.5L0,-3.0L2.5,-0.5"/>
  </g>
  <g id="arrowDown" transform="rotate(180) translate(-30 -48)">
    <use xlink:href="#rim"/>
    <path pointer-events="none" fill="none" stroke="white" stroke-width="1.5" d="M0,-3.0v7 M-2.5,-0.5L0,-3.0L2.5,-0.5"/>
  </g>
  <g id="arrowLeft" transform="rotate(270) translate(-36 17)">
    <use xlink:href="#rim"/>
    <path pointer-events="none" fill="none" stroke="white" stroke-width="1.5" d="M0,-3.0v7 M-2.5,-0.5L0,-3.0L2.5,-0.5"/>
  </g>
  <g id="resetDef">
    <use xlink:href="#rim2" fill="#404040"><set attributeName="fill" to="#808080" begin="reset.mouseover" end="reset.mouseout"/></use>
  </g>
</defs>
<script type="application/ecmascript">
var viewWidth = 1425;
var viewHeight = 520;
var sectionId = 'dynsection-31';
</script>
<script type="application/ecmascript" xlink:href="svg.min.js"/>
<svg id="graph" class="graph">
<g id="viewport">
<title>SceneManager::processHeldKeys</title>
<!-- Node1 -->
<g id="Node000001" class="node">
<title>Node1</title>
<g id="a_Node000001"><a xlink:title=" ">
<polygon fill="#999999" stroke="#666666" points="178,-167 0,-167 0,-148 178,-148 178,-167"/>
<text text-anchor="middle" x="89" y="-155" font-family="Helvetica,sans-Serif" font-size="10.00">SceneManager::processHeldKeys</text>
</a>
</g>
</g>
<!-- Node2 -->
<g id="Node000002" class="node">
<title>Node2</title>
<g id="a_Node000002"><a xlink:href="classScene.html#a8ec1e638529f69f716e791ba3ac4d2f7" target="_top" xlink:title=" ">
<polygon fill="white" stroke="#666666" points="345,-241 239,-241 239,-222 345,-222 345,-241"/>
<text text-anchor="middle" x="292" y="-229" font-family="Helvetica,sans-Serif" font-size="10.00">Scene::getCamera</text>
</a>
</g>
</g>
<!-- Node1&#45;&gt;Node2 -->
<g id="edge1_Node000001_Node000002" class="edge">
<title>Node1&#45;&gt;Node2</title>
<g id="a_edge1_Node000001_Node000002"><a xlink:title=" ">
<path fill="none" stroke="#63b8ff" d="M108.45,-167.2C132.28,-179.42 175.3,-200.38 214,-213.5 220.38,-215.66 227.14,-217.66 233.9,-219.47"/>
<polygon fill="#63b8ff" stroke="#63b8ff" points="233.21,-222.9 243.76,-221.99 234.94,-216.12 233.21,-222.9"/>
</a>
</g>
</g>
<!-- Node3 -->
<g id="Node000003" class="node">
<title>Node3</title>
<g id="a_Node000003"><a xlink:href="classSceneManager.html#a7b7b0a022dcce523178e8414fb8e4463" target="_top" xlink:title=" ">
<polygon fill="white" stroke="#666666" points="364.5,-204 219.5,-204 219.5,-185 364.5,-185 364.5,-204"/>
<text text-anchor="middle" x="292" y="-192" font-family="Helvetica,sans-Serif" font-size="10.00">SceneManager::loadScene</text>
</a>
</g>
</g>
<!-- Node1&#45;&gt;Node3 -->
<g id="edge2_Node000001_Node000003" class="edge">
<title>Node1&#45;&gt;Node3</title>
<g id="a_edge2_Node000001_Node000003"><a xlink:title=" ">
<path fill="none" stroke="#63b8ff" d="M141.76,-167.03C168.39,-171.93 201.03,-177.94 228.99,-183.09"/>
<polygon fill="#63b8ff" stroke="#63b8ff" points="228.6,-186.57 239.06,-184.94 229.86,-179.69 228.6,-186.57"/>
</a>
</g>
</g>
<!-- Node33 -->
<g id="Node000033" class="node">
<title>Node33</title>
<g id="a_Node000033"><a xlink:href="classCamera.html#a3374b86bbff4f043d1f0051e074b0391" target="_top" xlink:title=" ">
<polygon fill="white" stroke="#666666" points="364,-130 220,-130 220,-111 364,-111 364,-130"/>
<text text-anchor="middle" x="292" y="-118" font-family="Helvetica,sans-Serif" font-size="10.00">Camera::processKeyboard</text>
</a>
</g>
</g>
<!-- Node1&#45;&gt;Node33 -->
<g id="edge33_Node000001_Node000033" class="edge">
<title>Node1&#45;&gt;Node33</title>
<g id="a_edge33_Node000001_Node000033"><a xlink:title=" ">
<path fill="none" stroke="#63b8ff" d="M141.76,-147.97C168.39,-143.07 201.03,-137.06 228.99,-131.91"/>
<polygon fill="#63b8ff" stroke="#63b8ff" points="229.86,-135.31 239.06,-130.06 228.6,-128.43 229.86,-135.31"/>
</a>
</g>
</g>
<!-- Node34 -->
<g id="Node000034" class="node">
<title>Node34</title>
<g id="a_Node000034"><a xlink:href="classSceneManager.html#a1a46a8c9e99b6b27404a2f870f38749c" target="_top" xlink:title=" ">
<polygon fill="white" stroke="#666666" points="365.5,-93 218.5,-93 218.5,-74 365.5,-74 365.5,-93"/>
<text text-anchor="middle" x="292" y="-81" font-family="Helvetica,sans-Serif" font-size="10.00">SceneManager::saveScene</text>
</a>
</g>
</g>
<!-- Node1&#45;&gt;Node34 -->
<g id="edge34_Node000001_Node000034" class="edge">
<title>Node1&#45;&gt;Node34</title>
<g id="a_edge34_Node000001_Node000034"><a xlink:title=" ">
<path fill="none" stroke="#63b8ff" d="M108.91,-147.86C132.87,-135.93 175.68,-115.61 214,-102.5 221.33,-99.99 229.15,-97.67 236.9,-95.57"/>
<polygon fill="#63b8ff" stroke="#63b8ff" points="237.84,-98.94 246.64,-93.04 236.08,-92.17 237.84,-98.94"/>
</a>
</g>
</g>
<!-- Node41 -->
<g id="Node000041" class="node">
<title>Node41</title>
<g id="a_Node000041"><a xlink:href="classSceneManager.html#a490d6eddd6ef23ffd8f283582a2d7d88" target="_top" xlink:title=" ">
<polygon fill="white" stroke="#666666" points="370,-167 214,-167 214,-148 370,-148 370,-167"/>
<text text-anchor="middle" x="292" y="-155" font-family="Helvetica,sans-Serif" font-size="10.00">SceneManager::setGizmoFor</text>
</a>
</g>
</g>
<!-- Node1&#45;&gt;Node41 -->
<g id="edge41_Node000001_Node000041" class="edge">
<title>Node1&#45;&gt;Node41</title>
<g id="a_edge41_Node000001_Node000041"><a xlink:title=" ">
<path fill="none" stroke="#63b8ff" d="M178.16,-157.5C186.64,-157.5 195.23,-157.5 203.69,-157.5"/>
<polygon fill="#63b8ff" stroke="#63b8ff" points="203.94,-161 213.94,-157.5 203.94,-154 203.94,-161"/>
</a>
</g>
</g>
<!-- Node4 -->
<g id="Node000004" class="node">
<title>Node4</title>
<g id="a_Node000004"><a xlink:href="classSceneSerializer.html#a490f2bd87e7c9459ee47be974653b433" target="_top" xlink:title=" ">
<polygon fill="white" stroke="#666666" points="570,-319 406,-319 406,-300 570,-300 570,-319"/>
<text text-anchor="middle" x="488" y="-307" font-family="Helvetica,sans-Serif" font-size="10.00">SceneSerializer::loadFromJson</text>
</a>
</g>
</g>
<!-- Node3&#45;&gt;Node4 -->
<g id="edge3_Node000003_Node000004" class="edge">
<title>Node3&#45;&gt;Node4</title>
<g id="a_edge3_Node000003_Node000004"><a xlink:title=" ">
<path fill="none" stroke="#63b8ff" d="M345.49,-204.11C353.92,-206.59 362.37,-209.68 370,-213.5 410.83,-233.96 450.14,-270.88 471.18,-292.49"/>
<polygon fill="#63b8ff" stroke="#63b8ff" points="468.88,-295.14 478.32,-299.95 473.94,-290.31 468.88,-295.14"/>
</a>
</g>
</g>
<!-- Node5 -->
<g id="Node000005" class="node">
<title>Node5</title>
<g id="a_Node000005"><a xlink:href="classSceneManager.html#a1daee617aa556b8af8a7202d3f8f28c8" target="_top" xlink:title=" ">
<polygon fill="white" stroke="#666666" points="786,-347 629,-347 629,-328 786,-328 786,-347"/>
<text text-anchor="middle" x="707.5" y="-335" font-family="Helvetica,sans-Serif" font-size="10.00">SceneManager::createObject</text>
</a>
</g>
</g>
<!-- Node4&#45;&gt;Node5 -->
<g id="edge4_Node000004_Node000005" class="edge">
<title>Node4&#45;&gt;Node5</title>
<g id="a_edge4_Node000004_Node000005"><a xlink:title=" ">
<path fill="none" stroke="#63b8ff" d="M562.94,-319.02C582.03,-321.48 602.71,-324.14 622.28,-326.66"/>
<polygon fill="#63b8ff" stroke="#63b8ff" points="622.03,-330.15 632.4,-327.96 622.92,-323.21 622.03,-330.15"/>
</a>
</g>
</g>
<!-- Node16 -->
<g id="Node000016" class="node">
<title>Node16</title>
<g id="a_Node000016"><a xlink:href="classSceneManager.html#a53736fa499987ffff612d3ee7c85442c" target="_top" xlink:title=" ">
<polygon fill="white" stroke="#666666" points="795,-292 620,-292 620,-273 795,-273 795,-292"/>
<text text-anchor="middle" x="707.5" y="-280" font-family="Helvetica,sans-Serif" font-size="10.00">SceneManager::deleteAllObjects</text>
</a>
</g>
</g>
<!-- Node4&#45;&gt;Node16 -->
<g id="edge15_Node000004_Node000016" class="edge">
<title>Node4&#45;&gt;Node16</title>
<g id="a_edge15_Node000004_Node000016"><a xlink:title=" ">
<path fill="none" stroke="#63b8ff" d="M565.68,-299.98C583.06,-297.82 601.64,-295.52 619.42,-293.31"/>
<polygon fill="#63b8ff" stroke="#63b8ff" points="620.28,-296.73 629.78,-292.02 619.42,-289.78 620.28,-296.73"/>
</a>
</g>
</g>
<!-- Node22 -->
<g id="Node000022" class="node">
<title>Node22</title>
<g id="a_Node000022"><a xlink:href="classResourceManager.html#a3899655c6a1e40089930df4fbc9f1be9" target="_top" xlink:title=" ">
<polygon fill="white" stroke="#666666" points="787.5,-208 627.5,-208 627.5,-189 787.5,-189 787.5,-208"/>
<text text-anchor="middle" x="707.5" y="-196" font-family="Helvetica,sans-Serif" font-size="10.00">ResourceManager::getShader</text>
</a>
</g>
</g>
<!-- Node4&#45;&gt;Node22 -->
<g id="edge21_Node000004_Node000022" class="edge">
<title>Node4&#45;&gt;Node22</title>
<g id="a_edge21_Node000004_Node000022"><a xlink:title=" ">
<path fill="none" stroke="#63b8ff" d="M497.95,-299.87C516.25,-280.82 560.13,-238.35 606,-217.5 611.62,-214.94 617.57,-212.73 623.66,-210.82"/>
<polygon fill="#63b8ff" stroke="#63b8ff" points="624.66,-214.17 633.3,-208.05 622.72,-207.44 624.66,-214.17"/>
</a>
</g>
</g>
<!-- Node23 -->
<g id="Node000023" class="node">
<title>Node23</title>
<g id="a_Node000023"><a xlink:href="namespaceJsonUtils.html#ab8da6e319ea5969afbe6ddd6620add30" target="_top" xlink:title=" ">
<polygon fill="white" stroke="#666666" points="767,-458 648,-458 648,-439 767,-439 767,-458"/>
<text text-anchor="middle" x="707.5" y="-446" font-family="Helvetica,sans-Serif" font-size="10.00">JsonUtils::jsonToVec3</text>
</a>
</g>
</g>
<!-- Node4&#45;&gt;Node23 -->
<g id="edge22_Node000004_Node000023" class="edge">
<title>Node4&#45;&gt;Node23</title>
<g id="a_edge22_Node000004_Node000023"><a xlink:title=" ">
<path fill="none" stroke="#63b8ff" d="M495.24,-319.32C510.76,-342.86 553.65,-402.6 606,-430.5 615.76,-435.7 626.73,-439.44 637.75,-442.11"/>
<polygon fill="#63b8ff" stroke="#63b8ff" points="637.33,-445.6 647.84,-444.28 638.8,-438.76 637.33,-445.6"/>
</a>
</g>
</g>
<!-- Node24 -->
<g id="Node000024" class="node">
<title>Node24</title>
<g id="a_Node000024"><a xlink:href="classSceneManager.html#a8dafcb538b1cfbf727b82644ad5815ad" target="_top" xlink:title=" ">
<polygon fill="white" stroke="#666666" points="808.5,-421 606.5,-421 606.5,-402 808.5,-402 808.5,-421"/>
<text text-anchor="middle" x="707.5" y="-409" font-family="Helvetica,sans-Serif" font-size="10.00">SceneManager::setGlobalAcceleration</text>
</a>
</g>
</g>
<!-- Node4&#45;&gt;Node24 -->
<g id="edge23_Node000004_Node000024" class="edge">
<title>Node4&#45;&gt;Node24</title>
<g id="a_edge23_Node000004_Node000024"><a xlink:title=" ">
<path fill="none" stroke="#63b8ff" d="M498.99,-319.12C518.08,-336.9 561.78,-374.81 606,-393.5 611.1,-395.66 616.46,-397.56 621.92,-399.23"/>
<polygon fill="#63b8ff" stroke="#63b8ff" points="621.29,-402.68 631.86,-402 623.17,-395.94 621.29,-402.68"/>
</a>
</g>
</g>
<!-- Node25 -->
<g id="Node000025" class="node">
<title>Node25</title>
<g id="a_Node000025"><a xlink:href="classSceneManager.html#af40d0ff3e76f89bbf5504f1694814179" target="_top" xlink:title=" ">
<polygon fill="white" stroke="#666666" points="785,-245 630,-245 630,-226 785,-226 785,-245"/>
<text text-anchor="middle" x="707.5" y="-233" font-family="Helvetica,sans-Serif" font-size="10.00">SceneManager::setSelectFor</text>
</a>
</g>
</g>
<!-- Node4&#45;&gt;Node25 -->
<g id="edge24_Node000004_Node000025" class="edge">
<title>Node4&#45;&gt;Node25</title>
<g id="a_edge24_Node000004_Node000025"><a xlink:title=" ">
<path fill="none" stroke="#63b8ff" d="M512.09,-299.94C535.54,-290.39 572.99,-275.59 606,-264.5 623.7,-258.55 643.39,-252.71 660.63,-247.84"/>
<polygon fill="#63b8ff" stroke="#63b8ff" points="661.76,-251.15 670.45,-245.09 659.88,-244.41 661.76,-251.15"/>
</a>
</g>
</g>
<!-- Node31 -->
<g id="Node000031" class="node">
<title>Node31</title>
<g id="a_Node000031"><a xlink:href="classSceneManager.html#a64f4064d9201d062a24f750763c1f703" target="_top" xlink:title=" ">
<polygon fill="white" stroke="#666666" points="786.5,-384 628.5,-384 628.5,-365 786.5,-365 786.5,-384"/>
<text text-anchor="middle" x="707.5" y="-372" font-family="Helvetica,sans-Serif" font-size="10.00">SceneManager::setSimSpeed</text>
</a>
</g>
</g>
<!-- Node4&#45;&gt;Node31 -->
<g id="edge31_Node000004_Node000031" class="edge">
<title>Node4&#45;&gt;Node31</title>
<g id="a_edge31_Node000004_Node000031"><a xlink:title=" ">
<path fill="none" stroke="#63b8ff" d="M509.26,-319.12C532.25,-329.69 571.07,-346.47 606,-356.5 614.36,-358.9 623.2,-361.04 632.03,-362.93"/>
<polygon fill="#63b8ff" stroke="#63b8ff" points="631.48,-366.39 641.98,-364.97 632.89,-359.53 631.48,-366.39"/>
</a>
</g>
</g>
<!-- Node6 -->
<g id="Node000006" class="node">
<title>Node6</title>
<g id="a_Node000006"><a xlink:href="classSceneManager.html#ad0d1661e5869720d7a07b1912d75318d" target="_top" xlink:title=" ">
<polygon fill="white" stroke="#666666" points="1017,-356 858,-356 858,-337 1017,-337 1017,-356"/>
<text text-anchor="middle" x="937.5" y="-344" font-family="Helvetica,sans-Serif" font-size="10.00">SceneManager::addDrawable</text>
</a>
</g>
</g>
<!-- Node5&#45;&gt;Node6 -->
<g id="edge5_Node000005_Node000006" class="edge">
<title>Node5&#45;&gt;Node6</title>
<g id="a_edge5_Node000005_Node000006"><a xlink:title=" ">
<path fill="none" stroke="#63b8ff" d="M786.01,-340.56C805.78,-341.34 827.18,-342.18 847.48,-342.99"/>
<polygon fill="#63b8ff" stroke="#63b8ff" points="847.52,-346.49 857.65,-343.39 847.8,-339.5 847.52,-346.49"/>
</a>
</g>
</g>
<!-- Node8 -->
<g id="Node000008" class="node">
<title>Node8</title>
<g id="a_Node000008"><a xlink:href="classSceneManager.html#a31d525542db0b239ba61dd36a3d92d43" target="_top" xlink:title=" ">
<polygon fill="white" stroke="#666666" points="1014,-319 861,-319 861,-300 1014,-300 1014,-319"/>
<text text-anchor="middle" x="937.5" y="-307" font-family="Helvetica,sans-Serif" font-size="10.00">SceneManager::addPickable</text>
</a>
</g>
</g>
<!-- Node5&#45;&gt;Node8 -->
<g id="edge7_Node000005_Node000008" class="edge">
<title>Node5&#45;&gt;Node8</title>
<g id="a_edge7_Node000005_Node000008"><a xlink:title=" ">
<path fill="none" stroke="#63b8ff" d="M786.01,-327.98C806.85,-325.42 829.51,-322.64 850.77,-320.03"/>
<polygon fill="#63b8ff" stroke="#63b8ff" points="851.25,-323.5 860.75,-318.8 850.4,-316.55 851.25,-323.5"/>
</a>
</g>
</g>
<!-- Node9 -->
<g id="Node000009" class="node">
<title>Node9</title>
<g id="a_Node000009"><a xlink:href="classSceneManager.html#ab6a7ecbff438f2dbee8a0f31795456f9" target="_top" xlink:title=" ">
<polygon fill="white" stroke="#666666" points="1030,-467 845,-467 845,-448 1030,-448 1030,-467"/>
<text text-anchor="middle" x="937.5" y="-455" font-family="Helvetica,sans-Serif" font-size="10.00">SceneManager::makeUniqueName</text>
</a>
</g>
</g>
<!-- Node5&#45;&gt;Node9 -->
<g id="edge8_Node000005_Node000009" class="edge">
<title>Node5&#45;&gt;Node9</title>
<g id="a_edge8_Node000005_Node000009"><a xlink:title=" ">
<path fill="none" stroke="#63b8ff" d="M786.03,-344.02C794.33,-347.02 802.2,-351.07 809,-356.5 840.41,-381.6 813.68,-414.28 845,-439.5 846.56,-440.76 848.18,-441.93 849.86,-443.04"/>
<polygon fill="#63b8ff" stroke="#63b8ff" points="848.21,-446.12 858.64,-447.95 851.62,-440.01 848.21,-446.12"/>
</a>
</g>
</g>
<!-- Node10 -->
<g id="Node000010" class="node">
<title>Node10</title>
<g id="a_Node000010"><a xlink:href="classSceneManager.html#a76592c383a85fda664a79fa155ead19e" target="_top" xlink:title=" ">
<polygon fill="white" stroke="#666666" points="1015,-393 860,-393 860,-374 1015,-374 1015,-393"/>
<text text-anchor="middle" x="937.5" y="-381" font-family="Helvetica,sans-Serif" font-size="10.00">SceneManager::objectAdded</text>
</a>
</g>
</g>
<!-- Node5&#45;&gt;Node10 -->
<g id="edge9_Node000005_Node000010" class="edge">
<title>Node5&#45;&gt;Node10</title>
<g id="a_edge9_Node000005_Node000010"><a xlink:title=" ">
<path fill="none" stroke="#63b8ff" d="M762.08,-347.03C777.28,-349.9 793.82,-353.17 809,-356.5 825.11,-360.03 828.9,-361.91 845,-365.5 854.84,-367.7 865.3,-369.89 875.5,-371.95"/>
<polygon fill="#63b8ff" stroke="#63b8ff" points="875.09,-375.44 885.59,-373.96 876.46,-368.57 875.09,-375.44"/>
</a>
</g>
</g>
<!-- Node11 -->
<g id="Node000011" class="node">
<title>Node11</title>
<g id="a_Node000011"><a xlink:href="classSceneManager.html#aad894e90cf7ad353aab707f966c9711d" target="_top" xlink:title=" ">
<polygon fill="white" stroke="#666666" points="1022.5,-430 852.5,-430 852.5,-411 1022.5,-411 1022.5,-430"/>
<text text-anchor="middle" x="937.5" y="-418" font-family="Helvetica,sans-Serif" font-size="10.00">SceneManager::setObjectName</text>
</a>
</g>
</g>
<!-- Node5&#45;&gt;Node11 -->
<g id="edge10_Node000005_Node000011" class="edge">
<title>Node5&#45;&gt;Node11</title>
<g id="a_edge10_Node000005_Node000011"><a xlink:title=" ">
<path fill="none" stroke="#63b8ff" d="M786.09,-346.22C794.14,-348.85 801.95,-352.21 809,-356.5 831.18,-370 822.87,-388.92 845,-402.5 847.67,-404.14 850.47,-405.64 853.35,-407"/>
<polygon fill="#63b8ff" stroke="#63b8ff" points="852.21,-410.32 862.79,-410.92 854.89,-403.85 852.21,-410.32"/>
</a>
</g>
</g>
<!-- Node7 -->
<g id="Node000007" class="node">
<title>Node7</title>
<g id="a_Node000007"><a xlink:href="classScene.html#a178d4cac84f5cc922f6224356e27bc25" target="_top" xlink:title=" ">
<polygon fill="white" stroke="#666666" points="1213.5,-364 1097.5,-364 1097.5,-345 1213.5,-345 1213.5,-364"/>
<text text-anchor="middle" x="1155.5" y="-352" font-family="Helvetica,sans-Serif" font-size="10.00">Scene::addDrawable</text>
</a>
</g>
</g>
<!-- Node6&#45;&gt;Node7 -->
<g id="edge6_Node000006_Node000007" class="edge">
<title>Node6&#45;&gt;Node7</title>
<g id="a_edge6_Node000006_Node000007"><a xlink:title=" ">
<path fill="none" stroke="#63b8ff" d="M1017.09,-349.41C1040.1,-350.26 1065.05,-351.19 1087.28,-352.01"/>
<polygon fill="#63b8ff" stroke="#63b8ff" points="1087.17,-355.51 1097.29,-352.38 1087.43,-348.51 1087.17,-355.51"/>
</a>
</g>
</g>
<!-- Node12 -->
<g id="Node000012" class="node">
<title>Node12</title>
<g id="a_Node000012"><a xlink:href="classSceneObject.html#abebc043e3253d66da477f862a950775d" target="_top" xlink:title=" ">
<polygon fill="white" stroke="#666666" points="1219.5,-512 1091.5,-512 1091.5,-493 1219.5,-493 1219.5,-512"/>
<text text-anchor="middle" x="1155.5" y="-500" font-family="Helvetica,sans-Serif" font-size="10.00">SceneObject::getName</text>
</a>
</g>
</g>
<!-- Node11&#45;&gt;Node12 -->
<g id="edge11_Node000011_Node000012" class="edge">
<title>Node11&#45;&gt;Node12</title>
<g id="a_edge11_Node000011_Node000012"><a xlink:title=" ">
<path fill="none" stroke="#63b8ff" d="M1009.36,-430C1016.61,-432.48 1023.64,-435.6 1030,-439.5 1051.83,-452.9 1044.14,-471.15 1066,-484.5 1070.97,-487.54 1076.36,-490.07 1081.95,-492.19"/>
<polygon fill="#63b8ff" stroke="#63b8ff" points="1080.9,-495.53 1091.5,-495.36 1083.11,-488.88 1080.9,-495.53"/>
</a>
</g>
</g>
<!-- Node13 -->
<g id="Node000013" class="node">
<title>Node13</title>
<g id="a_Node000013"><a xlink:href="classSceneManager.html#a624cd344feba3357d2ec95bab7229a6f" target="_top" xlink:title=" ">
<polygon fill="white" stroke="#666666" points="1239,-475 1072,-475 1072,-456 1239,-456 1239,-475"/>
<text text-anchor="middle" x="1155.5" y="-463" font-family="Helvetica,sans-Serif" font-size="10.00">SceneManager::isNameUnique</text>
</a>
</g>
</g>
<!-- Node11&#45;&gt;Node13 -->
<g id="edge12_Node000011_Node000013" class="edge">
<title>Node11&#45;&gt;Node13</title>
<g id="a_edge12_Node000011_Node000013"><a xlink:title=" ">
<path fill="none" stroke="#63b8ff" d="M985.07,-430.04C999.49,-433.03 1015.41,-436.36 1030,-439.5 1046.02,-442.94 1049.97,-444.09 1066,-447.5 1075.89,-449.6 1086.42,-451.79 1096.63,-453.89"/>
<polygon fill="#63b8ff" stroke="#63b8ff" points="1096.2,-457.37 1106.7,-455.94 1097.6,-450.51 1096.2,-457.37"/>
</a>
</g>
</g>
<!-- Node14 -->
<g id="Node000014" class="node">
<title>Node14</title>
<g id="a_Node000014"><a xlink:href="classSceneManager.html#a76dba0a09f8b2a1dc376236f904a9c3a" target="_top" xlink:title=" ">
<polygon fill="white" stroke="#666666" points="1241,-438 1070,-438 1070,-419 1241,-419 1241,-438"/>
<text text-anchor="middle" x="1155.5" y="-426" font-family="Helvetica,sans-Serif" font-size="10.00">SceneManager::objectRenamed</text>
</a>
</g>
</g>
<!-- Node11&#45;&gt;Node14 -->
<g id="edge13_Node000011_Node000014" class="edge">
<title>Node11&#45;&gt;Node14</title>
<g id="a_edge13_Node000011_Node000014"><a xlink:title=" ">
<path fill="none" stroke="#63b8ff" d="M1022.63,-423.62C1034.75,-424.06 1047.3,-424.53 1059.61,-424.99"/>
<polygon fill="#63b8ff" stroke="#63b8ff" points="1059.77,-428.49 1069.89,-425.37 1060.03,-421.5 1059.77,-428.49"/>
</a>
</g>
</g>
<!-- Node15 -->
<g id="Node000015" class="node">
<title>Node15</title>
<g id="a_Node000015"><a xlink:href="classSceneObject.html#ad8ac9406b35bee3cd4fad75db013d9c4" target="_top" xlink:title=" ">
<polygon fill="white" stroke="#666666" points="1219.5,-401 1091.5,-401 1091.5,-382 1219.5,-382 1219.5,-401"/>
<text text-anchor="middle" x="1155.5" y="-389" font-family="Helvetica,sans-Serif" font-size="10.00">SceneObject::setName</text>
</a>
</g>
</g>
<!-- Node11&#45;&gt;Node15 -->
<g id="edge14_Node000011_Node000015" class="edge">
<title>Node11&#45;&gt;Node15</title>
<g id="a_edge14_Node000011_Node000015"><a xlink:title=" ">
<path fill="none" stroke="#63b8ff" d="M1009.53,-410.96C1032.55,-407.87 1058.13,-404.44 1081.32,-401.33"/>
<polygon fill="#63b8ff" stroke="#63b8ff" points="1081.99,-404.77 1091.43,-399.97 1081.06,-397.83 1081.99,-404.77"/>
</a>
</g>
</g>
<!-- Node17 -->
<g id="Node000017" class="node">
<title>Node17</title>
<g id="a_Node000017"><a xlink:href="classSceneManager.html#a4543114007c5bb40ddab62cd9f2ac613" target="_top" xlink:title=" ">
<polygon fill="white" stroke="#666666" points="1016,-282 859,-282 859,-263 1016,-263 1016,-282"/>
<text text-anchor="middle" x="937.5" y="-270" font-family="Helvetica,sans-Serif" font-size="10.00">SceneManager::deleteObject</text>
</a>
</g>
</g>
<!-- Node16&#45;&gt;Node17 -->
<g id="edge16_Node000016_Node000017" class="edge">
<title>Node16&#45;&gt;Node17</title>
<g id="a_edge16_Node000016_Node000017"><a xlink:title=" ">
<path fill="none" stroke="#63b8ff" d="M795.02,-278.71C812.5,-277.94 830.9,-277.13 848.43,-276.36"/>
<polygon fill="#63b8ff" stroke="#63b8ff" points="848.81,-279.85 858.64,-275.91 848.5,-272.86 848.81,-279.85"/>
</a>
</g>
</g>
<!-- Node18 -->
<g id="Node000018" class="node">
<title>Node18</title>
<g id="a_Node000018"><a xlink:href="classSceneObject.html#ab3595ced6ccce80d1e864bbf28e1988a" target="_top" xlink:title=" ">
<polygon fill="white" stroke="#666666" points="1236,-278 1075,-278 1075,-259 1236,-259 1236,-278"/>
<text text-anchor="middle" x="1155.5" y="-266" font-family="Helvetica,sans-Serif" font-size="10.00">SceneObject::getPhysicsBody</text>
</a>
</g>
</g>
<!-- Node17&#45;&gt;Node18 -->
<g id="edge17_Node000017_Node000018" class="edge">
<title>Node17&#45;&gt;Node18</title>
<g id="a_edge17_Node000017_Node000018"><a xlink:title=" ">
<path fill="none" stroke="#63b8ff" d="M1016.18,-271.06C1032,-270.77 1048.77,-270.46 1064.97,-270.16"/>
<polygon fill="#63b8ff" stroke="#63b8ff" points="1065.04,-273.66 1074.97,-269.97 1064.91,-266.66 1065.04,-273.66"/>
</a>
</g>
</g>
<!-- Node19 -->
<g id="Node000019" class="node">
<title>Node19</title>
<g id="a_Node000019"><a xlink:href="classSceneManager.html#a1ecbf10d22d2ff153407cd139bf89632" target="_top" xlink:title=" ">
<polygon fill="white" stroke="#666666" points="1241,-241 1070,-241 1070,-222 1241,-222 1241,-241"/>
<text text-anchor="middle" x="1155.5" y="-229" font-family="Helvetica,sans-Serif" font-size="10.00">SceneManager::objectRemoved</text>
</a>
</g>
</g>
<!-- Node17&#45;&gt;Node19 -->
<g id="edge18_Node000017_Node000019" class="edge">
<title>Node17&#45;&gt;Node19</title>
<g id="a_edge18_Node000017_Node000019"><a xlink:title=" ">
<path fill="none" stroke="#63b8ff" d="M988.6,-262.99C1020.11,-257.01 1060.96,-249.26 1094.23,-242.94"/>
<polygon fill="#63b8ff" stroke="#63b8ff" points="1095.13,-246.33 1104.3,-241.03 1093.82,-239.45 1095.13,-246.33"/>
</a>
</g>
</g>
<!-- Node20 -->
<g id="Node000020" class="node">
<title>Node20</title>
<g id="a_Node000020"><a xlink:href="classScene.html#a63e2ea26e06305a24d92ed004809197b" target="_top" xlink:title=" ">
<polygon fill="white" stroke="#666666" points="1417,-165 1281,-165 1281,-146 1417,-146 1417,-165"/>
<text text-anchor="middle" x="1349" y="-153" font-family="Helvetica,sans-Serif" font-size="10.00">Scene::removeDrawable</text>
</a>
</g>
</g>
<!-- Node17&#45;&gt;Node20 -->
<g id="edge19_Node000017_Node000020" class="edge">
<title>Node17&#45;&gt;Node20</title>
<g id="a_edge19_Node000017_Node000020"><a xlink:title=" ">
<path fill="none" stroke="#63b8ff" d="M1011.06,-262.91C1017.68,-260.66 1024.11,-257.89 1030,-254.5 1051.02,-242.4 1045.03,-225.69 1066,-213.5 1075.6,-207.92 1207.68,-182.15 1287.62,-166.91"/>
<polygon fill="#63b8ff" stroke="#63b8ff" points="1288.41,-170.32 1297.58,-165.01 1287.1,-163.44 1288.41,-170.32"/>
</a>
</g>
</g>
<!-- Node21 -->
<g id="Node000021" class="node">
<title>Node21</title>
<g id="a_Node000021"><a xlink:href="classSceneManager.html#a950d9257e6d737616480fb2b3c00ce62" target="_top" xlink:title=" ">
<polygon fill="white" stroke="#666666" points="1234,-326.5 1077,-326.5 1077,-296.5 1234,-296.5 1234,-326.5"/>
<text text-anchor="start" x="1085" y="-314.5" font-family="Helvetica,sans-Serif" font-size="10.00">SceneManager::removeFrom</text>
<text text-anchor="middle" x="1155.5" y="-303.5" font-family="Helvetica,sans-Serif" font-size="10.00">PhysicsSystem</text>
</a>
</g>
</g>
<!-- Node17&#45;&gt;Node21 -->
<g id="edge20_Node000017_Node000021" class="edge">
<title>Node17&#45;&gt;Node21</title>
<g id="a_edge20_Node000017_Node000021"><a xlink:title=" ">
<path fill="none" stroke="#63b8ff" d="M991.34,-282.04C1014.05,-286.14 1041.22,-291.05 1066.8,-295.67"/>
<polygon fill="#63b8ff" stroke="#63b8ff" points="1066.43,-299.16 1076.89,-297.49 1067.67,-292.27 1066.43,-299.16"/>
</a>
</g>
</g>
<!-- Node26 -->
<g id="Node000026" class="node">
<title>Node26</title>
<g id="a_Node000026"><a xlink:href="classSceneManager.html#a99992b526976863d1dab7dc88cc6ec2a" target="_top" xlink:title=" ">
<polygon fill="white" stroke="#666666" points="1018,-170.5 857,-170.5 857,-140.5 1018,-140.5 1018,-170.5"/>
<text text-anchor="start" x="865" y="-158.5" font-family="Helvetica,sans-Serif" font-size="10.00">SceneManager::deleteCurrent</text>
<text text-anchor="middle" x="937.5" y="-147.5" font-family="Helvetica,sans-Serif" font-size="10.00">Gizmo</text>
</a>
</g>
</g>
<!-- Node25&#45;&gt;Node26 -->
<g id="edge25_Node000025_Node000026" class="edge">
<title>Node25&#45;&gt;Node26</title>
<g id="a_edge25_Node000025_Node000026"><a xlink:title=" ">
<path fill="none" stroke="#63b8ff" d="M785.11,-226.99C793.43,-224.55 801.56,-221.45 809,-217.5 829.26,-206.74 825.24,-192.16 845,-180.5 848.67,-178.34 852.53,-176.35 856.51,-174.54"/>
<polygon fill="#63b8ff" stroke="#63b8ff" points="858.09,-177.67 865.97,-170.6 855.4,-171.21 858.09,-177.67"/>
</a>
</g>
</g>
<!-- Node29 -->
<g id="Node000029" class="node">
<title>Node29</title>
<g id="a_Node000029"><a xlink:href="classSceneObject.html#ad77f12eb793b32da2ef40f0042cb1de8" target="_top" xlink:title=" ">
<polygon fill="white" stroke="#666666" points="1008,-208 867,-208 867,-189 1008,-189 1008,-208"/>
<text text-anchor="middle" x="937.5" y="-196" font-family="Helvetica,sans-Serif" font-size="10.00">SceneObject::getObjectID</text>
</a>
</g>
</g>
<!-- Node25&#45;&gt;Node29 -->
<g id="edge29_Node000025_Node000029" class="edge">
<title>Node25&#45;&gt;Node29</title>
<g id="a_edge29_Node000025_Node000029"><a xlink:title=" ">
<path fill="none" stroke="#63b8ff" d="M767.22,-225.97C797.81,-221.01 835.42,-214.9 867.41,-209.71"/>
<polygon fill="#63b8ff" stroke="#63b8ff" points="868.28,-213.12 877.59,-208.06 867.16,-206.21 868.28,-213.12"/>
</a>
</g>
</g>
<!-- Node30 -->
<g id="Node000030" class="node">
<title>Node30</title>
<g id="a_Node000030"><a xlink:href="classSceneManager.html#a25bec2896954b4f0c3bed8ef736993d3" target="_top" xlink:title=" ">
<polygon fill="white" stroke="#666666" points="1016.5,-245 858.5,-245 858.5,-226 1016.5,-226 1016.5,-245"/>
<text text-anchor="middle" x="937.5" y="-233" font-family="Helvetica,sans-Serif" font-size="10.00">SceneManager::selectedItem</text>
</a>
</g>
</g>
<!-- Node25&#45;&gt;Node30 -->
<g id="edge30_Node000025_Node000030" class="edge">
<title>Node25&#45;&gt;Node30</title>
<g id="a_edge30_Node000025_Node000030"><a xlink:title=" ">
<path fill="none" stroke="#63b8ff" d="M785.05,-235.5C805.29,-235.5 827.29,-235.5 848.1,-235.5"/>
<polygon fill="#63b8ff" stroke="#63b8ff" points="848.2,-239 858.2,-235.5 848.2,-232 848.2,-239"/>
</a>
</g>
</g>
<!-- Node27 -->
<g id="Node000027" class="node">
<title>Node27</title>
<g id="a_Node000027"><a xlink:href="classSceneManager.html#ab7c34393bb10361069b0ea73ec2797f8" target="_top" xlink:title=" ">
<polygon fill="white" stroke="#666666" points="1245,-128 1066,-128 1066,-109 1245,-109 1245,-128"/>
<text text-anchor="middle" x="1155.5" y="-116" font-family="Helvetica,sans-Serif" font-size="10.00">SceneManager::removeDrawable</text>
</a>
</g>
</g>
<!-- Node26&#45;&gt;Node27 -->
<g id="edge26_Node000026_Node000027" class="edge">
<title>Node26&#45;&gt;Node27</title>
<g id="a_edge26_Node000026_Node000027"><a xlink:title=" ">
<path fill="none" stroke="#63b8ff" d="M1018.01,-141.88C1041.27,-137.9 1066.43,-133.59 1088.74,-129.76"/>
<polygon fill="#63b8ff" stroke="#63b8ff" points="1089.51,-133.18 1098.77,-128.05 1088.32,-126.28 1089.51,-133.18"/>
</a>
</g>
</g>
<!-- Node28 -->
<g id="Node000028" class="node">
<title>Node28</title>
<g id="a_Node000028"><a xlink:href="classSceneManager.html#a1c647e38474ee02d5dd8510bc2313c38" target="_top" xlink:title=" ">
<polygon fill="white" stroke="#666666" points="1242,-165 1069,-165 1069,-146 1242,-146 1242,-165"/>
<text text-anchor="middle" x="1155.5" y="-153" font-family="Helvetica,sans-Serif" font-size="10.00">SceneManager::removePickable</text>
</a>
</g>
</g>
<!-- Node26&#45;&gt;Node28 -->
<g id="edge28_Node000026_Node000028" class="edge">
<title>Node26&#45;&gt;Node28</title>
<g id="a_edge28_Node000026_Node000028"><a xlink:title=" ">
<path fill="none" stroke="#63b8ff" d="M1018.01,-155.5C1031.24,-155.5 1045.08,-155.5 1058.66,-155.5"/>
<polygon fill="#63b8ff" stroke="#63b8ff" points="1058.98,-159 1068.98,-155.5 1058.98,-152 1058.98,-159"/>
</a>
</g>
</g>
<!-- Node27&#45;&gt;Node20 -->
<g id="edge27_Node000027_Node000020" class="edge">
<title>Node27&#45;&gt;Node20</title>
<g id="a_edge27_Node000027_Node000020"><a xlink:title=" ">
<path fill="none" stroke="#63b8ff" d="M1205.82,-128.03C1231.07,-132.91 1262.01,-138.89 1288.57,-144.02"/>
<polygon fill="#63b8ff" stroke="#63b8ff" points="1288.04,-147.48 1298.52,-145.94 1289.36,-140.61 1288.04,-147.48"/>
</a>
</g>
</g>
<!-- Node32 -->
<g id="Node000032" class="node">
<title>Node32</title>
<g id="a_Node000032"><a xlink:href="classOpenGLWindow.html#ad664443240cdd277b10bacbf1608478b" target="_top" xlink:title=" ">
<polygon fill="white" stroke="#666666" points="1018.5,-504 856.5,-504 856.5,-485 1018.5,-485 1018.5,-504"/>
<text text-anchor="middle" x="937.5" y="-492" font-family="Helvetica,sans-Serif" font-size="10.00">OpenGLWindow::setSimSpeed</text>
</a>
</g>
</g>
<!-- Node31&#45;&gt;Node32 -->
<g id="edge32_Node000031_Node000032" class="edge">
<title>Node31&#45;&gt;Node32</title>
<g id="a_edge32_Node000031_Node000032"><a xlink:title=" ">
<path fill="none" stroke="#63b8ff" d="M786.54,-381.21C794.65,-384.19 802.34,-388.18 809,-393.5 840.41,-418.6 813.68,-451.28 845,-476.5 846.56,-477.76 848.18,-478.93 849.86,-480.04"/>
<polygon fill="#63b8ff" stroke="#63b8ff" points="848.21,-483.12 858.64,-484.95 851.62,-477.01 848.21,-483.12"/>
</a>
</g>
</g>
<!-- Node35 -->
<g id="Node000035" class="node">
<title>Node35</title>
<g id="a_Node000035"><a xlink:href="classSceneSerializer.html#a56e278bcdda1f03f192797122dd6d0c0" target="_top" xlink:title=" ">
<polygon fill="white" stroke="#666666" points="564,-93 412,-93 412,-74 564,-74 564,-93"/>
<text text-anchor="middle" x="488" y="-81" font-family="Helvetica,sans-Serif" font-size="10.00">SceneSerializer::saveToJson</text>
</a>
</g>
</g>
<!-- Node34&#45;&gt;Node35 -->
<g id="edge35_Node000034_Node000035" class="edge">
<title>Node34&#45;&gt;Node35</title>
<g id="a_edge35_Node000034_Node000035"><a xlink:title=" ">
<path fill="none" stroke="#63b8ff" d="M365.51,-83.5C377.37,-83.5 389.75,-83.5 401.87,-83.5"/>
<polygon fill="#63b8ff" stroke="#63b8ff" points="401.98,-87 411.98,-83.5 401.98,-80 401.98,-87"/>
</a>
</g>
</g>
<!-- Node36 -->
<g id="Node000036" class="node">
<title>Node36</title>
<g id="a_Node000036"><a xlink:href="classSceneManager.html#ad73f1ee3bdfe2567544871845707ce0f" target="_top" xlink:title=" ">
<polygon fill="white" stroke="#666666" points="809,-130 606,-130 606,-111 809,-111 809,-130"/>
<text text-anchor="middle" x="707.5" y="-118" font-family="Helvetica,sans-Serif" font-size="10.00">SceneManager::getGlobalAcceleration</text>
</a>
</g>
</g>
<!-- Node35&#45;&gt;Node36 -->
<g id="edge36_Node000035_Node000036" class="edge">
<title>Node35&#45;&gt;Node36</title>
<g id="a_edge36_Node000035_Node000036"><a xlink:title=" ">
<path fill="none" stroke="#63b8ff" d="M545.01,-93.03C574.07,-97.97 609.77,-104.04 640.2,-109.22"/>
<polygon fill="#63b8ff" stroke="#63b8ff" points="639.86,-112.71 650.3,-110.94 641.03,-105.81 639.86,-112.71"/>
</a>
</g>
</g>
<!-- Node37 -->
<g id="Node000037" class="node">
<title>Node37</title>
<g id="a_Node000037"><a xlink:href="classSceneManager.html#ad8688edec501c8e945dff1a85c7e33c7" target="_top" xlink:title=" ">
<polygon fill="white" stroke="#666666" points="781,-93 634,-93 634,-74 781,-74 781,-93"/>
<text text-anchor="middle" x="707.5" y="-81" font-family="Helvetica,sans-Serif" font-size="10.00">SceneManager::getObjects</text>
</a>
</g>
</g>
<!-- Node35&#45;&gt;Node37 -->
<g id="edge37_Node000035_Node000037" class="edge">
<title>Node35&#45;&gt;Node37</title>
<g id="a_edge37_Node000035_Node000037"><a xlink:title=" ">
<path fill="none" stroke="#63b8ff" d="M564.16,-83.5C583.4,-83.5 604.19,-83.5 623.79,-83.5"/>
<polygon fill="#63b8ff" stroke="#63b8ff" points="623.91,-87 633.91,-83.5 623.91,-80 623.91,-87"/>
</a>
</g>
</g>
<!-- Node38 -->
<g id="Node000038" class="node">
<title>Node38</title>
<g id="a_Node000038"><a xlink:href="classSceneManager.html#ae085a7aade1b9a2adcb7d9f1b2660790" target="_top" xlink:title=" ">
<polygon fill="white" stroke="#666666" points="787,-56 628,-56 628,-37 787,-37 787,-56"/>
<text text-anchor="middle" x="707.5" y="-44" font-family="Helvetica,sans-Serif" font-size="10.00">SceneManager::getSimSpeed</text>
</a>
</g>
</g>
<!-- Node35&#45;&gt;Node38 -->
<g id="edge38_Node000035_Node000038" class="edge">
<title>Node35&#45;&gt;Node38</title>
<g id="a_edge38_Node000035_Node000038"><a xlink:title=" ">
<path fill="none" stroke="#63b8ff" d="M545.01,-73.97C574.07,-69.03 609.77,-62.96 640.2,-57.78"/>
<polygon fill="#63b8ff" stroke="#63b8ff" points="641.03,-61.19 650.3,-56.06 639.86,-54.29 641.03,-61.19"/>
</a>
</g>
</g>
<!-- Node40 -->
<g id="Node000040" class="node">
<title>Node40</title>
<g id="a_Node000040"><a xlink:href="namespaceJsonUtils.html#aa9bf373a72d131da0b8d71ade1295533" target="_top" xlink:title=" ">
<polygon fill="white" stroke="#666666" points="767,-19 648,-19 648,0 767,0 767,-19"/>
<text text-anchor="middle" x="707.5" y="-7" font-family="Helvetica,sans-Serif" font-size="10.00">JsonUtils::vec3ToJson</text>
</a>
</g>
</g>
<!-- Node35&#45;&gt;Node40 -->
<g id="edge40_Node000035_Node000040" class="edge">
<title>Node35&#45;&gt;Node40</title>
<g id="a_edge40_Node000035_Node000040"><a xlink:title=" ">
<path fill="none" stroke="#63b8ff" d="M505.46,-73.86C527.59,-61.32 568.49,-39.59 606,-27.5 616.2,-24.21 627.2,-21.47 638.04,-19.2"/>
<polygon fill="#63b8ff" stroke="#63b8ff" points="638.79,-22.62 647.92,-17.25 637.43,-15.76 638.79,-22.62"/>
</a>
</g>
</g>
<!-- Node39 -->
<g id="Node000039" class="node">
<title>Node39</title>
<g id="a_Node000039"><a xlink:href="classOpenGLWindow.html#aeabd921e42871e7ecb6d2297580d5b81" target="_top" xlink:title=" ">
<polygon fill="white" stroke="#666666" points="1019,-56 856,-56 856,-37 1019,-37 1019,-56"/>
<text text-anchor="middle" x="937.5" y="-44" font-family="Helvetica,sans-Serif" font-size="10.00">OpenGLWindow::getSimSpeed</text>
</a>
</g>
</g>
<!-- Node38&#45;&gt;Node39 -->
<g id="edge39_Node000038_Node000039" class="edge">
<title>Node38&#45;&gt;Node39</title>
<g id="a_edge39_Node000038_Node000039"><a xlink:title=" ">
<path fill="none" stroke="#63b8ff" d="M787.28,-46.5C806.14,-46.5 826.41,-46.5 845.76,-46.5"/>
<polygon fill="#63b8ff" stroke="#63b8ff" points="845.78,-50 855.78,-46.5 845.78,-43 845.78,-50"/>
</a>
</g>
</g>
<!-- Node41&#45;&gt;Node26 -->
<g id="edge42_Node000041_Node000026" class="edge">
<title>Node41&#45;&gt;Node26</title>
<g id="a_edge42_Node000041_Node000026"><a xlink:title=" ">
<path fill="none" stroke="#63b8ff" d="M370.3,-157.26C490.03,-156.89 719.73,-156.17 846.67,-155.78"/>
<polygon fill="#63b8ff" stroke="#63b8ff" points="846.76,-159.28 856.75,-155.75 846.74,-152.28 846.76,-159.28"/>
</a>
</g>
</g>
<!-- Node42 -->
<g id="Node000042" class="node">
<title>Node42</title>
<g id="a_Node000042"><a xlink:href="classResourceManager.html#a9b2c679ed1e80b8e4e4d318b3d8da426" target="_top" xlink:title=" ">
<polygon fill="white" stroke="#666666" points="564,-130 412,-130 412,-111 564,-111 564,-130"/>
<text text-anchor="middle" x="488" y="-118" font-family="Helvetica,sans-Serif" font-size="10.00">ResourceManager::getMesh</text>
</a>
</g>
</g>
<!-- Node41&#45;&gt;Node42 -->
<g id="edge43_Node000041_Node000042" class="edge">
<title>Node41&#45;&gt;Node42</title>
<g id="a_edge43_Node000041_Node000042"><a xlink:title=" ">
<path fill="none" stroke="#63b8ff" d="M342.96,-147.97C368.54,-143.09 399.89,-137.11 426.8,-131.98"/>
<polygon fill="#63b8ff" stroke="#63b8ff" points="427.71,-135.37 436.87,-130.06 426.39,-128.5 427.71,-135.37"/>
</a>
</g>
</g>
</g>
</svg>

<g id="navigator" transform="translate(0 0)" fill="#404254">
  <rect fill="#f2f5e9" fill-opacity="0.5" stroke="#606060" stroke-width=".5" x="0" y="0" width="60" height="60"/>
  <use id="zoomplus" xlink:href="#zoomPlus" x="17" y="9" onmousedown="handleZoom(evt,'in')"/>
  <use id="zoomminus" xlink:href="#zoomMin" x="42" y="9" onmousedown="handleZoom(evt,'out')"/>
  <use id="reset" xlink:href="#resetDef" x="30" y="36" onmousedown="handleReset()"/>
   <use id="arrowup" xlink:href="#arrowUp" x="0" y="0" onmousedown="handlePan(0,-1)"/>
  <use id="arrowright" xlink:href="#arrowRight" x="0" y="0" onmousedown="handlePan(1,0)"/>
  <use id="arrowdown" xlink:href="#arrowDown" x="0" y="0" onmousedown="handlePan(0,1)"/>
  <use id="arrowleft" xlink:href="#arrowLeft" x="0" y="0" onmousedown="handlePan(-1,0)"/>
</g>
<svg viewBox="0 0 15 15" width="100%" height="30px" preserveAspectRatio="xMaxYMin meet">
 <g id="arrow_out" transform="scale(0.3 0.3)">
  <a xlink:href="classSceneManager_a59f13c06bf3f19d5e543502a0ddd0467_cgraph_org.svg" target="_base">
   <rect id="button" ry="5" rx="5" y="6" x="6" height="38" width="38"
        fill="#f2f5e9" fill-opacity="0.5" stroke="#606060" stroke-width="1.0"/>
   <path id="arrow"
     d="M 11.500037,31.436501 C 11.940474,20.09759 22.043105,11.32322 32.158766,21.979434 L 37.068811,17.246167 C 37.068811,17.246167 37.088388,32 37.088388,32 L 22.160133,31.978069 C 22.160133,31.978069 26.997745,27.140456 26.997745,27.140456 C 18.528582,18.264221 13.291696,25.230495 11.500037,31.436501 z"
     style="fill:#404040;"/>
  </a>
 </g>
</svg>

<style type='text/css'>
<![CDATA[
[data-mouse-over-selected='false'] { opacity: 0.7; }
[data-mouse-over-selected='true']  { opacity: 1.0; }
]]>
</style>
<script type="application/ecmascript"><![CDATA[
document.addEventListener('DOMContentLoaded', (event) => {
  highlightEdges();
  highlightAdjacentNodes();
});
]]></script>
</svg>
