<?xml version="1.0" encoding="UTF-8" standalone="no"?>
<!DOCTYPE svg PUBLIC "-//W3C//DTD SVG 1.1//EN"
 "http://www.w3.org/Graphics/SVG/1.1/DTD/svg11.dtd">
<!-- Generated by graphviz version 2.43.0 (0)
 -->
<!-- Title: AppSettings::getGroup Pages: 1 -->
<svg width="505pt" height="187pt"
 viewBox="0.00 0.00 505.00 186.50" xmlns="http://www.w3.org/2000/svg" xmlns:xlink="http://www.w3.org/1999/xlink">
<g id="graph0" class="graph" transform="scale(1 1) rotate(0) translate(4 182.5)">
<title>AppSettings::getGroup</title>
<!-- Node1 -->
<g id="Node000001" class="node">
<title>Node1</title>
<g id="a_Node000001"><a xlink:title=" ">
<polygon fill="#999999" stroke="#666666" points="497,-93 371,-93 371,-74 497,-74 497,-93"/>
<text text-anchor="middle" x="434" y="-81" font-family="Helvetica,sans-Serif" font-size="10.00">AppSettings::getGroup</text>
</a>
</g>
</g>
<!-- Node2 -->
<g id="Node000002" class="node">
<title>Node2</title>
<g id="a_Node000002"><a xlink:href="classSceneManager.html#af2a17ef84ef7682d13ab8c36e3c9fdd3" target="_top" xlink:title=" ">
<polygon fill="white" stroke="#666666" points="335,-178.5 182,-178.5 182,-148.5 335,-148.5 335,-178.5"/>
<text text-anchor="start" x="190" y="-166.5" font-family="Helvetica,sans-Serif" font-size="10.00">SceneManager::applyDebug</text>
<text text-anchor="middle" x="258.5" y="-155.5" font-family="Helvetica,sans-Serif" font-size="10.00">Settings</text>
</a>
</g>
</g>
<!-- Node1&#45;&gt;Node2 -->
<g id="edge1_Node000001_Node000002" class="edge">
<title>Node1&#45;&gt;Node2</title>
<g id="a_edge1_Node000001_Node000002"><a xlink:title=" ">
<path fill="none" stroke="#63b8ff" d="M410.1,-98.44C390.68,-110.64 361.8,-127.74 335,-139.5 327.69,-142.71 319.82,-145.69 312.02,-148.39"/>
<polygon fill="#63b8ff" stroke="#63b8ff" points="412.01,-101.37 418.57,-93.05 408.25,-95.47 412.01,-101.37"/>
</a>
</g>
</g>
<!-- Node4 -->
<g id="Node000004" class="node">
<title>Node4</title>
<g id="a_Node000004"><a xlink:href="classCameraTab.html#a63ebb65c808178f3e6a77da39f2d585d" target="_top" xlink:title=" ">
<polygon fill="white" stroke="#666666" points="324.5,-130 192.5,-130 192.5,-111 324.5,-111 324.5,-130"/>
<text text-anchor="middle" x="258.5" y="-118" font-family="Helvetica,sans-Serif" font-size="10.00">CameraTab::CameraTab</text>
</a>
</g>
</g>
<!-- Node1&#45;&gt;Node4 -->
<g id="edge3_Node000001_Node000004" class="edge">
<title>Node1&#45;&gt;Node4</title>
<g id="a_edge3_Node000001_Node000004"><a xlink:title=" ">
<path fill="none" stroke="#63b8ff" d="M378.36,-95.15C354.53,-100.23 326.93,-106.12 304.33,-110.94"/>
<polygon fill="#63b8ff" stroke="#63b8ff" points="379.27,-98.54 388.32,-93.03 377.81,-91.69 379.27,-98.54"/>
</a>
</g>
</g>
<!-- Node5 -->
<g id="Node000005" class="node">
<title>Node5</title>
<g id="a_Node000005"><a xlink:href="classDebugTab.html#a5a296109274b1d3f5ec756f453ee5fd3" target="_top" xlink:title=" ">
<polygon fill="white" stroke="#666666" points="318,-93 199,-93 199,-74 318,-74 318,-93"/>
<text text-anchor="middle" x="258.5" y="-81" font-family="Helvetica,sans-Serif" font-size="10.00">DebugTab::DebugTab</text>
</a>
</g>
</g>
<!-- Node1&#45;&gt;Node5 -->
<g id="edge4_Node000001_Node000005" class="edge">
<title>Node1&#45;&gt;Node5</title>
<g id="a_edge4_Node000001_Node000005"><a xlink:title=" ">
<path fill="none" stroke="#63b8ff" d="M360.63,-83.5C346.43,-83.5 331.7,-83.5 318.03,-83.5"/>
<polygon fill="#63b8ff" stroke="#63b8ff" points="360.85,-87 370.85,-83.5 360.85,-80 360.85,-87"/>
</a>
</g>
</g>
<!-- Node6 -->
<g id="Node000006" class="node">
<title>Node6</title>
<g id="a_Node000006"><a xlink:href="classCameraTab.html#aa8249e4d8beac24b7d5d2563d096c087" target="_top" xlink:title=" ">
<polygon fill="white" stroke="#666666" points="328.5,-56 188.5,-56 188.5,-37 328.5,-37 328.5,-56"/>
<text text-anchor="middle" x="258.5" y="-44" font-family="Helvetica,sans-Serif" font-size="10.00">CameraTab::saveSettings</text>
</a>
</g>
</g>
<!-- Node1&#45;&gt;Node6 -->
<g id="edge5_Node000001_Node000006" class="edge">
<title>Node1&#45;&gt;Node6</title>
<g id="a_edge5_Node000001_Node000006"><a xlink:title=" ">
<path fill="none" stroke="#63b8ff" d="M378.36,-71.85C354.53,-66.77 326.93,-60.88 304.33,-56.06"/>
<polygon fill="#63b8ff" stroke="#63b8ff" points="377.81,-75.31 388.32,-73.97 379.27,-68.46 377.81,-75.31"/>
</a>
</g>
</g>
<!-- Node7 -->
<g id="Node000007" class="node">
<title>Node7</title>
<g id="a_Node000007"><a xlink:href="classDebugTab.html#a24ab458421934b598a97fd01a13e0a95" target="_top" xlink:title=" ">
<polygon fill="white" stroke="#666666" points="325.5,-19 191.5,-19 191.5,0 325.5,0 325.5,-19"/>
<text text-anchor="middle" x="258.5" y="-7" font-family="Helvetica,sans-Serif" font-size="10.00">DebugTab::saveSettings</text>
</a>
</g>
</g>
<!-- Node1&#45;&gt;Node7 -->
<g id="edge6_Node000001_Node000007" class="edge">
<title>Node1&#45;&gt;Node7</title>
<g id="a_edge6_Node000001_Node000007"><a xlink:title=" ">
<path fill="none" stroke="#63b8ff" d="M410.24,-68.43C390.91,-56.2 362.07,-39.28 335,-28.5 325.71,-24.8 315.48,-21.65 305.63,-19.04"/>
<polygon fill="#63b8ff" stroke="#63b8ff" points="408.36,-71.38 418.66,-73.84 412.14,-65.49 408.36,-71.38"/>
</a>
</g>
</g>
<!-- Node3 -->
<g id="Node000003" class="node">
<title>Node3</title>
<g id="a_Node000003"><a xlink:href="classSceneManager.html#ad9d648b5fb5a92c4612c640fc7cb47fb" target="_top" xlink:title=" ">
<polygon fill="white" stroke="#666666" points="146,-173 0,-173 0,-154 146,-154 146,-173"/>
<text text-anchor="middle" x="73" y="-161" font-family="Helvetica,sans-Serif" font-size="10.00">SceneManager::loadPreset</text>
</a>
</g>
</g>
<!-- Node2&#45;&gt;Node3 -->
<g id="edge2_Node000002_Node000003" class="edge">
<title>Node2&#45;&gt;Node3</title>
<g id="a_edge2_Node000002_Node000003"><a xlink:title=" ">
<path fill="none" stroke="#63b8ff" d="M171.54,-163.5C163.09,-163.5 154.57,-163.5 146.28,-163.5"/>
<polygon fill="#63b8ff" stroke="#63b8ff" points="171.8,-167 181.8,-163.5 171.8,-160 171.8,-167"/>
</a>
</g>
</g>
</g>
</svg>
