<?xml version="1.0" encoding="UTF-8" standalone="no"?>
<!DOCTYPE svg PUBLIC "-//W3C//DTD SVG 1.1//EN"
 "http://www.w3.org/Graphics/SVG/1.1/DTD/svg11.dtd">
<!-- Generated by graphviz version 2.43.0 (0)
 -->
<!-- Title: Physics::RigidBody::resolveCollisionWithPointMass Pages: 1 -->
<!--zoomable 566 -->

<svg id="main" version="1.1" xmlns="http://www.w3.org/2000/svg" xmlns:xlink="http://www.w3.org/1999/xlink" xml:space="preserve" onload="init(evt)">
<style type="text/css"><![CDATA[
.node, .edge {opacity: 0.7;}
.node.selected, .edge.selected {opacity: 1;}
.edge:hover path { stroke: red; }
.edge:hover polygon { stroke: red; fill: red; }
]]></style>

<defs>
  <circle id="rim" cx="0" cy="0" r="7"/>
  <circle id="rim2" cx="0" cy="0" r="3.5"/>
  <g id="zoomPlus">
    <use xlink:href="#rim" fill="#404040"><set attributeName="fill" to="#808080" begin="zoomplus.mouseover" end="zoomplus.mouseout"/></use>
    <path d="M-4,0h8M0,-4v8" fill="none" stroke="white" stroke-width="1.5" pointer-events="none"/>
  </g>
  <g id="zoomMin">
    <use xlink:href="#rim" fill="#404040"><set attributeName="fill" to="#808080" begin="zoomminus.mouseover" end="zoomminus.mouseout"/></use>
    <path d="M-4,0h8" fill="none" stroke="white" stroke-width="1.5" pointer-events="none"/>
  </g>
  <g id="arrowUp" transform="translate(30 24)">
    <use xlink:href="#rim"/>
    <path pointer-events="none" fill="none" stroke="white" stroke-width="1.5" d="M0,-3.0v7 M-2.5,-0.5L0,-3.0L2.5,-0.5"/>
  </g>
  <g id="arrowRight" transform="rotate(90) translate(36 -43)">
    <use xlink:href="#rim"/>
    <path pointer-events="none" fill="none" stroke="white" stroke-width="1.5" d="M0,-3.0v7 M-2.5,-0.5L0,-3.0L2.5,-0.5"/>
  </g>
  <g id="arrowDown" transform="rotate(180) translate(-30 -48)">
    <use xlink:href="#rim"/>
    <path pointer-events="none" fill="none" stroke="white" stroke-width="1.5" d="M0,-3.0v7 M-2.5,-0.5L0,-3.0L2.5,-0.5"/>
  </g>
  <g id="arrowLeft" transform="rotate(270) translate(-36 17)">
    <use xlink:href="#rim"/>
    <path pointer-events="none" fill="none" stroke="white" stroke-width="1.5" d="M0,-3.0v7 M-2.5,-0.5L0,-3.0L2.5,-0.5"/>
  </g>
  <g id="resetDef">
    <use xlink:href="#rim2" fill="#404040"><set attributeName="fill" to="#808080" begin="reset.mouseover" end="reset.mouseout"/></use>
  </g>
</defs>
<script type="application/ecmascript">
var viewWidth = 1223;
var viewHeight = 566;
var sectionId = 'dynsection-8';
</script>
<script type="application/ecmascript" xlink:href="svg.min.js"/>
<svg id="graph" class="graph">
<g id="viewport">
<title>Physics::RigidBody::resolveCollisionWithPointMass</title>
<!-- Node1 -->
<g id="Node000001" class="node">
<title>Node1</title>
<g id="a_Node000001"><a xlink:title=" ">
<polygon fill="#999999" stroke="#666666" points="173,-304 0,-304 0,-274 173,-274 173,-304"/>
<text text-anchor="start" x="8" y="-292" font-family="Helvetica,sans-Serif" font-size="10.00">Physics::RigidBody</text>
<text text-anchor="middle" x="86.5" y="-281" font-family="Helvetica,sans-Serif" font-size="10.00">::resolveCollisionWithPointMass</text>
</a>
</g>
</g>
<!-- Node2 -->
<g id="Node000002" class="node">
<title>Node2</title>
<g id="a_Node000002"><a xlink:href="namespacePhysics_1_1Thermal.html#a4bee0e40f8969cbb2cf1ec826d54834a" target="_top" xlink:title=" ">
<polygon fill="white" stroke="#666666" points="397,-40 209,-40 209,-10 397,-10 397,-40"/>
<text text-anchor="start" x="217" y="-28" font-family="Helvetica,sans-Serif" font-size="10.00">Physics::Thermal::applyConductive</text>
<text text-anchor="middle" x="303" y="-17" font-family="Helvetica,sans-Serif" font-size="10.00">Exchange</text>
</a>
</g>
</g>
<!-- Node1&#45;&gt;Node2 -->
<g id="edge1_Node000001_Node000002" class="edge">
<title>Node1&#45;&gt;Node2</title>
<g id="a_edge1_Node000001_Node000002"><a xlink:title=" ">
<path fill="none" stroke="#63b8ff" d="M90.59,-273.89C100.09,-231.43 132.94,-110.17 209,-49 210.61,-47.71 212.28,-46.48 214,-45.32"/>
<polygon fill="#63b8ff" stroke="#63b8ff" points="216.14,-48.13 223,-40.06 212.6,-42.09 216.14,-48.13"/>
</a>
</g>
</g>
<!-- Node3 -->
<g id="Node000003" class="node">
<title>Node3</title>
<g id="a_Node000003"><a xlink:href="namespacePhysics_1_1Thermal.html#a9206d38ee4d0cbd18666c936706e8611" target="_top" xlink:title=" ">
<polygon fill="white" stroke="#666666" points="606,-181 433,-181 433,-151 606,-151 606,-181"/>
<text text-anchor="start" x="441" y="-169" font-family="Helvetica,sans-Serif" font-size="10.00">Physics::Thermal::applyThermal</text>
<text text-anchor="middle" x="519.5" y="-158" font-family="Helvetica,sans-Serif" font-size="10.00">Energy</text>
</a>
</g>
</g>
<!-- Node1&#45;&gt;Node3 -->
<g id="edge17_Node000001_Node000003" class="edge">
<title>Node1&#45;&gt;Node3</title>
<g id="a_edge17_Node000001_Node000003"><a xlink:title=" ">
<path fill="none" stroke="#63b8ff" d="M91.61,-304.18C102.86,-342.34 138.16,-442 209,-481 282.19,-521.3 328.1,-528.27 397,-481 495.71,-413.27 514.25,-253.12 517.71,-191.12"/>
<polygon fill="#63b8ff" stroke="#63b8ff" points="521.21,-191.21 518.19,-181.06 514.22,-190.88 521.21,-191.21"/>
</a>
</g>
</g>
<!-- Node12 -->
<g id="Node000012" class="node">
<title>Node12</title>
<g id="a_Node000012"><a xlink:href="classPhysics_1_1PointMass.html#aad903165a31093747ecd85f644a84bd3" target="_top" xlink:title=" ">
<polygon fill="white" stroke="#666666" points="358,-472 248,-472 248,-442 358,-442 358,-472"/>
<text text-anchor="start" x="256" y="-460" font-family="Helvetica,sans-Serif" font-size="10.00">Physics::PointMass</text>
<text text-anchor="middle" x="303" y="-449" font-family="Helvetica,sans-Serif" font-size="10.00">::applyImpulse</text>
</a>
</g>
</g>
<!-- Node1&#45;&gt;Node12 -->
<g id="edge16_Node000001_Node000012" class="edge">
<title>Node1&#45;&gt;Node12</title>
<g id="a_edge16_Node000001_Node000012"><a xlink:title=" ">
<path fill="none" stroke="#63b8ff" d="M95.97,-304.3C113.2,-333.94 155.28,-399.23 209,-433 217.77,-438.52 227.77,-442.77 237.87,-446.04"/>
<polygon fill="#63b8ff" stroke="#63b8ff" points="236.97,-449.43 247.56,-448.9 238.95,-442.71 236.97,-449.43"/>
</a>
</g>
</g>
<!-- Node13 -->
<g id="Node000013" class="node">
<title>Node13</title>
<g id="a_Node000013"><a xlink:href="classPhysics_1_1PhysicsBody.html#a6fb25efd74ad88f01f5c481bd516bad8" target="_top" xlink:title=" ">
<polygon fill="white" stroke="#666666" points="363.5,-424 242.5,-424 242.5,-394 363.5,-394 363.5,-424"/>
<text text-anchor="start" x="250.5" y="-412" font-family="Helvetica,sans-Serif" font-size="10.00">Physics::PhysicsBody</text>
<text text-anchor="middle" x="303" y="-401" font-family="Helvetica,sans-Serif" font-size="10.00">::getAllForces</text>
</a>
</g>
</g>
<!-- Node1&#45;&gt;Node13 -->
<g id="edge18_Node000001_Node000013" class="edge">
<title>Node1&#45;&gt;Node13</title>
<g id="a_edge18_Node000001_Node000013"><a xlink:title=" ">
<path fill="none" stroke="#63b8ff" d="M102.16,-304.03C123.67,-325.2 165.89,-363.61 209,-385 216.41,-388.68 224.44,-391.83 232.57,-394.52"/>
<polygon fill="#63b8ff" stroke="#63b8ff" points="231.54,-397.87 242.12,-397.48 233.6,-391.18 231.54,-397.87"/>
</a>
</g>
</g>
<!-- Node14 -->
<g id="Node000014" class="node">
<title>Node14</title>
<g id="a_Node000014"><a xlink:href="classPhysics_1_1PhysicsBody.html#a04c6bf672135128ea6ebc6028c1a8a97" target="_top" xlink:title=" ">
<polygon fill="white" stroke="#666666" points="363.5,-376 242.5,-376 242.5,-346 363.5,-346 363.5,-376"/>
<text text-anchor="start" x="250.5" y="-364" font-family="Helvetica,sans-Serif" font-size="10.00">Physics::PhysicsBody</text>
<text text-anchor="middle" x="303" y="-353" font-family="Helvetica,sans-Serif" font-size="10.00">::getMass</text>
</a>
</g>
</g>
<!-- Node1&#45;&gt;Node14 -->
<g id="edge19_Node000001_Node000014" class="edge">
<title>Node1&#45;&gt;Node14</title>
<g id="a_edge19_Node000001_Node000014"><a xlink:title=" ">
<path fill="none" stroke="#63b8ff" d="M122.17,-304.02C146.25,-314.13 179.24,-327.32 209,-337 216.55,-339.46 224.52,-341.83 232.47,-344.07"/>
<polygon fill="#63b8ff" stroke="#63b8ff" points="231.58,-347.45 242.15,-346.72 233.43,-340.7 231.58,-347.45"/>
</a>
</g>
</g>
<!-- Node15 -->
<g id="Node000015" class="node">
<title>Node15</title>
<g id="a_Node000015"><a xlink:href="classPhysics_1_1PhysicsBody.html#ac4112265c85a99f20fb69008db8e8754" target="_top" xlink:title=" ">
<polygon fill="white" stroke="#666666" points="363.5,-328 242.5,-328 242.5,-298 363.5,-298 363.5,-328"/>
<text text-anchor="start" x="250.5" y="-316" font-family="Helvetica,sans-Serif" font-size="10.00">Physics::PhysicsBody</text>
<text text-anchor="middle" x="303" y="-305" font-family="Helvetica,sans-Serif" font-size="10.00">::getPosition</text>
</a>
</g>
</g>
<!-- Node1&#45;&gt;Node15 -->
<g id="edge20_Node000001_Node000015" class="edge">
<title>Node1&#45;&gt;Node15</title>
<g id="a_edge20_Node000001_Node000015"><a xlink:title=" ">
<path fill="none" stroke="#63b8ff" d="M173.2,-298.59C192.88,-300.79 213.58,-303.11 232.48,-305.22"/>
<polygon fill="#63b8ff" stroke="#63b8ff" points="232.16,-308.71 242.48,-306.34 232.93,-301.75 232.16,-308.71"/>
</a>
</g>
</g>
<!-- Node16 -->
<g id="Node000016" class="node">
<title>Node16</title>
<g id="a_Node000016"><a xlink:href="classPhysics_1_1PhysicsBody.html#a4a3f602f251373d49eaaefeacaf3cb5b" target="_top" xlink:title=" ">
<polygon fill="white" stroke="#666666" points="363.5,-280 242.5,-280 242.5,-250 363.5,-250 363.5,-280"/>
<text text-anchor="start" x="250.5" y="-268" font-family="Helvetica,sans-Serif" font-size="10.00">Physics::PhysicsBody</text>
<text text-anchor="middle" x="303" y="-257" font-family="Helvetica,sans-Serif" font-size="10.00">::getSurfaceArea</text>
</a>
</g>
</g>
<!-- Node1&#45;&gt;Node16 -->
<g id="edge21_Node000001_Node000016" class="edge">
<title>Node1&#45;&gt;Node16</title>
<g id="a_edge21_Node000001_Node000016"><a xlink:title=" ">
<path fill="none" stroke="#63b8ff" d="M173.2,-279.41C192.88,-277.21 213.58,-274.89 232.48,-272.78"/>
<polygon fill="#63b8ff" stroke="#63b8ff" points="232.93,-276.25 242.48,-271.66 232.16,-269.29 232.93,-276.25"/>
</a>
</g>
</g>
<!-- Node17 -->
<g id="Node000017" class="node">
<title>Node17</title>
<g id="a_Node000017"><a xlink:href="classPhysics_1_1PhysicsBody.html#a5589f3d686ebb04f47fa42376b9939b5" target="_top" xlink:title=" ">
<polygon fill="white" stroke="#666666" points="367,-232 239,-232 239,-202 367,-202 367,-232"/>
<text text-anchor="start" x="247" y="-220" font-family="Helvetica,sans-Serif" font-size="10.00">Physics::PhysicsBody</text>
<text text-anchor="middle" x="303" y="-209" font-family="Helvetica,sans-Serif" font-size="10.00">::getThermalProperties</text>
</a>
</g>
</g>
<!-- Node1&#45;&gt;Node17 -->
<g id="edge22_Node000001_Node000017" class="edge">
<title>Node1&#45;&gt;Node17</title>
<g id="a_edge22_Node000001_Node000017"><a xlink:title=" ">
<path fill="none" stroke="#63b8ff" d="M122.17,-273.98C146.25,-263.87 179.24,-250.68 209,-241 215.5,-238.89 222.3,-236.83 229.14,-234.88"/>
<polygon fill="#63b8ff" stroke="#63b8ff" points="230.47,-238.14 239.16,-232.09 228.59,-231.4 230.47,-238.14"/>
</a>
</g>
</g>
<!-- Node18 -->
<g id="Node000018" class="node">
<title>Node18</title>
<g id="a_Node000018"><a xlink:href="classPhysics_1_1PhysicsBody.html#a4bbf491e193cf2e29954c38a92865e29" target="_top" xlink:title=" ">
<polygon fill="white" stroke="#666666" points="363.5,-184 242.5,-184 242.5,-154 363.5,-154 363.5,-184"/>
<text text-anchor="start" x="250.5" y="-172" font-family="Helvetica,sans-Serif" font-size="10.00">Physics::PhysicsBody</text>
<text text-anchor="middle" x="303" y="-161" font-family="Helvetica,sans-Serif" font-size="10.00">::getVelocity</text>
</a>
</g>
</g>
<!-- Node1&#45;&gt;Node18 -->
<g id="edge23_Node000001_Node000018" class="edge">
<title>Node1&#45;&gt;Node18</title>
<g id="a_edge23_Node000001_Node000018"><a xlink:title=" ">
<path fill="none" stroke="#63b8ff" d="M102.16,-273.97C123.67,-252.8 165.89,-214.39 209,-193 216.41,-189.32 224.44,-186.17 232.57,-183.48"/>
<polygon fill="#63b8ff" stroke="#63b8ff" points="233.6,-186.82 242.12,-180.52 231.54,-180.13 233.6,-186.82"/>
</a>
</g>
</g>
<!-- Node19 -->
<g id="Node000019" class="node">
<title>Node19</title>
<g id="a_Node000019"><a xlink:href="classPhysics_1_1PhysicsBody.html#acb13769923f966df84e223a540ace45d" target="_top" xlink:title=" ">
<polygon fill="white" stroke="#666666" points="363.5,-136 242.5,-136 242.5,-106 363.5,-106 363.5,-136"/>
<text text-anchor="start" x="250.5" y="-124" font-family="Helvetica,sans-Serif" font-size="10.00">Physics::PhysicsBody</text>
<text text-anchor="middle" x="303" y="-113" font-family="Helvetica,sans-Serif" font-size="10.00">::setForce</text>
</a>
</g>
</g>
<!-- Node1&#45;&gt;Node19 -->
<g id="edge24_Node000001_Node000019" class="edge">
<title>Node1&#45;&gt;Node19</title>
<g id="a_edge24_Node000001_Node000019"><a xlink:title=" ">
<path fill="none" stroke="#63b8ff" d="M95.97,-273.7C113.2,-244.06 155.28,-178.77 209,-145 216.2,-140.47 224.23,-136.79 232.47,-133.81"/>
<polygon fill="#63b8ff" stroke="#63b8ff" points="233.79,-137.06 242.2,-130.61 231.6,-130.41 233.79,-137.06"/>
</a>
</g>
</g>
<!-- Node20 -->
<g id="Node000020" class="node">
<title>Node20</title>
<g id="a_Node000020"><a xlink:href="classPhysics_1_1PhysicsBody.html#a1aedc823891235ff429c55e0740ab423" target="_top" xlink:title=" ">
<polygon fill="white" stroke="#666666" points="363.5,-88 242.5,-88 242.5,-58 363.5,-58 363.5,-88"/>
<text text-anchor="start" x="250.5" y="-76" font-family="Helvetica,sans-Serif" font-size="10.00">Physics::PhysicsBody</text>
<text text-anchor="middle" x="303" y="-65" font-family="Helvetica,sans-Serif" font-size="10.00">::setPosition</text>
</a>
</g>
</g>
<!-- Node1&#45;&gt;Node20 -->
<g id="edge25_Node000001_Node000020" class="edge">
<title>Node1&#45;&gt;Node20</title>
<g id="a_edge25_Node000001_Node000020"><a xlink:title=" ">
<path fill="none" stroke="#63b8ff" d="M92.64,-273.78C105.8,-237.25 144.28,-144.15 209,-97 216.15,-91.79 224.33,-87.71 232.8,-84.52"/>
<polygon fill="#63b8ff" stroke="#63b8ff" points="234.09,-87.78 242.46,-81.27 231.86,-81.14 234.09,-87.78"/>
</a>
</g>
</g>
<!-- Node21 -->
<g id="Node000021" class="node">
<title>Node21</title>
<g id="a_Node000021"><a xlink:href="classPhysics_1_1PointMass.html#ace083146035c884b09da82466fdfbf86" target="_top" xlink:title=" ">
<polygon fill="white" stroke="#666666" points="362.5,-558 243.5,-558 243.5,-528 362.5,-528 362.5,-558"/>
<text text-anchor="start" x="251.5" y="-546" font-family="Helvetica,sans-Serif" font-size="10.00">Physics::PointMass</text>
<text text-anchor="middle" x="303" y="-535" font-family="Helvetica,sans-Serif" font-size="10.00">::setThermalProperty</text>
</a>
</g>
</g>
<!-- Node1&#45;&gt;Node21 -->
<g id="edge26_Node000001_Node000021" class="edge">
<title>Node1&#45;&gt;Node21</title>
<g id="a_edge26_Node000001_Node000021"><a xlink:title=" ">
<path fill="none" stroke="#63b8ff" d="M91.35,-304.15C102.41,-344.53 138.07,-455.58 209,-514 216.36,-520.06 225,-524.86 233.98,-528.66"/>
<polygon fill="#63b8ff" stroke="#63b8ff" points="232.85,-531.98 243.44,-532.27 235.34,-525.44 232.85,-531.98"/>
</a>
</g>
</g>
<!-- Node2&#45;&gt;Node3 -->
<g id="edge2_Node000002_Node000003" class="edge">
<title>Node2&#45;&gt;Node3</title>
<g id="a_edge2_Node000002_Node000003"><a xlink:title=" ">
<path fill="none" stroke="#63b8ff" d="M381.65,-40.18C387.07,-42.68 392.26,-45.6 397,-49 420.75,-66.02 412.84,-82.85 433,-104 447.94,-119.68 467.3,-134.09 483.82,-145.06"/>
<polygon fill="#63b8ff" stroke="#63b8ff" points="482.36,-148.29 492.65,-150.79 486.17,-142.41 482.36,-148.29"/>
</a>
</g>
</g>
<!-- Node8 -->
<g id="Node000008" class="node">
<title>Node8</title>
<g id="a_Node000008"><a xlink:href="namespacePhysics_1_1Thermal.html#a7eaf74772f10f3ceb9740038659283ab" target="_top" xlink:title=" ">
<polygon fill="white" stroke="#666666" points="812,-99.5 642,-99.5 642,-80.5 812,-80.5 812,-99.5"/>
<text text-anchor="middle" x="727" y="-87.5" font-family="Helvetica,sans-Serif" font-size="10.00">Physics::Thermal::heatCapacity</text>
</a>
</g>
</g>
<!-- Node2&#45;&gt;Node8 -->
<g id="edge15_Node000002_Node000008" class="edge">
<title>Node2&#45;&gt;Node8</title>
<g id="a_edge15_Node000002_Node000008"><a xlink:title=" ">
<path fill="none" stroke="#63b8ff" d="M372.33,-40.14C380.77,-42.74 389.17,-45.68 397,-49 414.27,-56.31 415.12,-65.34 433,-71 497.18,-91.32 573.12,-95.73 631.61,-95.24"/>
<polygon fill="#63b8ff" stroke="#63b8ff" points="632,-98.74 641.95,-95.1 631.9,-91.74 632,-98.74"/>
</a>
</g>
</g>
<!-- Node10 -->
<g id="Node000010" class="node">
<title>Node10</title>
<g id="a_Node000010"><a xlink:href="namespacePhysics_1_1Thermal.html#a0ce41054a8cc415549dd5d4bd925d61c" target="_top" xlink:title=" ">
<polygon fill="white" stroke="#666666" points="599,-62 440,-62 440,-32 599,-32 599,-62"/>
<text text-anchor="start" x="448" y="-50" font-family="Helvetica,sans-Serif" font-size="10.00">Physics::Thermal::conductive</text>
<text text-anchor="middle" x="519.5" y="-39" font-family="Helvetica,sans-Serif" font-size="10.00">HeatRate</text>
</a>
</g>
</g>
<!-- Node2&#45;&gt;Node10 -->
<g id="edge12_Node000002_Node000010" class="edge">
<title>Node2&#45;&gt;Node10</title>
<g id="a_edge12_Node000002_Node000010"><a xlink:title=" ">
<path fill="none" stroke="#63b8ff" d="M397.15,-34.55C407.94,-35.66 418.93,-36.79 429.67,-37.89"/>
<polygon fill="#63b8ff" stroke="#63b8ff" points="429.56,-41.4 439.87,-38.94 430.28,-34.43 429.56,-41.4"/>
</a>
</g>
</g>
<!-- Node11 -->
<g id="Node000011" class="node">
<title>Node11</title>
<g id="a_Node000011"><a xlink:href="namespacePhysics_1_1Thermal.html#a0dd6c0c38070754508e9ebd0632abba5" target="_top" xlink:title=" ">
<polygon fill="white" stroke="#666666" points="801.5,-30 652.5,-30 652.5,0 801.5,0 801.5,-30"/>
<text text-anchor="start" x="660.5" y="-18" font-family="Helvetica,sans-Serif" font-size="10.00">Physics::Thermal::effective</text>
<text text-anchor="middle" x="727" y="-7" font-family="Helvetica,sans-Serif" font-size="10.00">Conductivity</text>
</a>
</g>
</g>
<!-- Node2&#45;&gt;Node11 -->
<g id="edge13_Node000002_Node000011" class="edge">
<title>Node2&#45;&gt;Node11</title>
<g id="a_edge13_Node000002_Node000011"><a xlink:title=" ">
<path fill="none" stroke="#63b8ff" d="M397.13,-22.79C470.35,-21.06 571.46,-18.66 642.17,-16.99"/>
<polygon fill="#63b8ff" stroke="#63b8ff" points="642.46,-20.48 652.37,-16.74 642.29,-13.48 642.46,-20.48"/>
</a>
</g>
</g>
<!-- Node4 -->
<g id="Node000004" class="node">
<title>Node4</title>
<g id="a_Node000004"><a xlink:href="namespacePhysics_1_1Thermal.html#a8c4fd2a57a4a0cf669179578fba97ae4" target="_top" xlink:title=" ">
<polygon fill="white" stroke="#666666" points="1014.5,-105 878.5,-105 878.5,-75 1014.5,-75 1014.5,-105"/>
<text text-anchor="start" x="886.5" y="-93" font-family="Helvetica,sans-Serif" font-size="10.00">Physics::Thermal::active</text>
<text text-anchor="middle" x="946.5" y="-82" font-family="Helvetica,sans-Serif" font-size="10.00">ThermalMass</text>
</a>
</g>
</g>
<!-- Node3&#45;&gt;Node4 -->
<g id="edge3_Node000003_Node000004" class="edge">
<title>Node3&#45;&gt;Node4</title>
<g id="a_edge3_Node000003_Node000004"><a xlink:title=" ">
<path fill="none" stroke="#63b8ff" d="M603.17,-151C616.16,-148.65 629.45,-146.25 642,-144 718.97,-130.18 806.95,-114.55 868.29,-103.67"/>
<polygon fill="#63b8ff" stroke="#63b8ff" points="869.05,-107.09 878.28,-101.9 867.83,-100.2 869.05,-107.09"/>
</a>
</g>
</g>
<!-- Node5 -->
<g id="Node000005" class="node">
<title>Node5</title>
<g id="a_Node000005"><a xlink:href="namespacePhysics_1_1Thermal.html#acb06d086dbc037d7c8cd9303133a4d1b" target="_top" xlink:title=" ">
<polygon fill="white" stroke="#666666" points="1045,-261.5 848,-261.5 848,-242.5 1045,-242.5 1045,-261.5"/>
<text text-anchor="middle" x="946.5" y="-249.5" font-family="Helvetica,sans-Serif" font-size="10.00">Physics::Thermal::clampTemperature</text>
</a>
</g>
</g>
<!-- Node3&#45;&gt;Node5 -->
<g id="edge4_Node000003_Node000005" class="edge">
<title>Node3&#45;&gt;Node5</title>
<g id="a_edge4_Node000003_Node000005"><a xlink:title=" ">
<path fill="none" stroke="#63b8ff" d="M541.18,-181.17C564.4,-197.27 603.84,-221.89 642,-233 705.25,-251.41 778.95,-256.39 837.88,-256.65"/>
<polygon fill="#63b8ff" stroke="#63b8ff" points="837.96,-260.15 847.96,-256.65 837.96,-253.15 837.96,-260.15"/>
</a>
</g>
</g>
<!-- Node6 -->
<g id="Node000006" class="node">
<title>Node6</title>
<g id="a_Node000006"><a xlink:href="namespacePhysics_1_1Thermal.html#a8cd40c02db6cde184d3bc886e57bab2b" target="_top" xlink:title=" ">
<polygon fill="white" stroke="#666666" points="1021,-153 872,-153 872,-123 1021,-123 1021,-153"/>
<text text-anchor="start" x="880" y="-141" font-family="Helvetica,sans-Serif" font-size="10.00">Physics::Thermal::effective</text>
<text text-anchor="middle" x="946.5" y="-130" font-family="Helvetica,sans-Serif" font-size="10.00">SpecificHeat</text>
</a>
</g>
</g>
<!-- Node3&#45;&gt;Node6 -->
<g id="edge5_Node000003_Node000006" class="edge">
<title>Node3&#45;&gt;Node6</title>
<g id="a_edge5_Node000003_Node000006"><a xlink:title=" ">
<path fill="none" stroke="#63b8ff" d="M606.25,-160.35C680.7,-155.45 787.87,-148.38 861.74,-143.52"/>
<polygon fill="#63b8ff" stroke="#63b8ff" points="862.18,-147 871.93,-142.85 861.72,-140.01 862.18,-147"/>
</a>
</g>
</g>
<!-- Node3&#45;&gt;Node8 -->
<g id="edge7_Node000003_Node000008" class="edge">
<title>Node3&#45;&gt;Node8</title>
<g id="a_edge7_Node000003_Node000008"><a xlink:title=" ">
<path fill="none" stroke="#63b8ff" d="M552.55,-150.97C576.79,-139.92 611.08,-124.98 642,-114 653.84,-109.8 666.8,-105.8 678.93,-102.32"/>
<polygon fill="#63b8ff" stroke="#63b8ff" points="680.2,-105.6 688.88,-99.52 678.31,-98.86 680.2,-105.6"/>
</a>
</g>
</g>
<!-- Node9 -->
<g id="Node000009" class="node">
<title>Node9</title>
<g id="a_Node000009"><a xlink:href="namespacePhysics_1_1Thermal.html#a06108fe540610d537e7250d1e0472d63" target="_top" xlink:title=" ">
<polygon fill="white" stroke="#666666" points="798.5,-224 655.5,-224 655.5,-194 798.5,-194 798.5,-224"/>
<text text-anchor="start" x="663.5" y="-212" font-family="Helvetica,sans-Serif" font-size="10.00">Physics::Thermal::specific</text>
<text text-anchor="middle" x="727" y="-201" font-family="Helvetica,sans-Serif" font-size="10.00">EntropyChange</text>
</a>
</g>
</g>
<!-- Node3&#45;&gt;Node9 -->
<g id="edge10_Node000003_Node000009" class="edge">
<title>Node3&#45;&gt;Node9</title>
<g id="a_edge10_Node000003_Node000009"><a xlink:title=" ">
<path fill="none" stroke="#63b8ff" d="M592.37,-181.04C609.4,-184.6 627.68,-188.43 645.08,-192.07"/>
<polygon fill="#63b8ff" stroke="#63b8ff" points="644.7,-195.56 655.21,-194.19 646.14,-188.71 644.7,-195.56"/>
</a>
</g>
</g>
<!-- Node7 -->
<g id="Node000007" class="node">
<title>Node7</title>
<g id="a_Node000007"><a xlink:href="namespacePhysics_1_1Thermal.html#aeaaf21f50b58c0fec885f95c14537076" target="_top" xlink:title=" ">
<polygon fill="white" stroke="#666666" points="1215,-96 1081,-96 1081,-66 1215,-66 1215,-96"/>
<text text-anchor="start" x="1089" y="-84" font-family="Helvetica,sans-Serif" font-size="10.00">Physics::Thermal::linear</text>
<text text-anchor="middle" x="1148" y="-73" font-family="Helvetica,sans-Serif" font-size="10.00">TemperatureFactor</text>
</a>
</g>
</g>
<!-- Node6&#45;&gt;Node7 -->
<g id="edge6_Node000006_Node000007" class="edge">
<title>Node6&#45;&gt;Node7</title>
<g id="a_edge6_Node000006_Node000007"><a xlink:title=" ">
<path fill="none" stroke="#63b8ff" d="M1011.4,-122.97C1022.63,-120.13 1034.19,-117.08 1045,-114 1060.64,-109.55 1077.48,-104.3 1092.89,-99.3"/>
<polygon fill="#63b8ff" stroke="#63b8ff" points="1094.36,-102.5 1102.78,-96.07 1092.18,-95.85 1094.36,-102.5"/>
</a>
</g>
</g>
<!-- Node8&#45;&gt;Node4 -->
<g id="edge8_Node000008_Node000004" class="edge">
<title>Node8&#45;&gt;Node4</title>
<g id="a_edge8_Node000008_Node000004"><a xlink:title=" ">
<path fill="none" stroke="#63b8ff" d="M812.09,-90C830.56,-90 850.04,-90 868.23,-90"/>
<polygon fill="#63b8ff" stroke="#63b8ff" points="868.48,-93.5 878.48,-90 868.48,-86.5 868.48,-93.5"/>
</a>
</g>
</g>
<!-- Node8&#45;&gt;Node6 -->
<g id="edge9_Node000008_Node000006" class="edge">
<title>Node8&#45;&gt;Node6</title>
<g id="a_edge9_Node000008_Node000006"><a xlink:title=" ">
<path fill="none" stroke="#63b8ff" d="M771.23,-99.54C798.74,-105.61 835.16,-113.65 867.59,-120.81"/>
<polygon fill="#63b8ff" stroke="#63b8ff" points="867,-124.26 877.52,-123 868.5,-117.42 867,-124.26"/>
</a>
</g>
</g>
<!-- Node9&#45;&gt;Node5 -->
<g id="edge11_Node000009_Node000005" class="edge">
<title>Node9&#45;&gt;Node5</title>
<g id="a_edge11_Node000009_Node000005"><a xlink:title=" ">
<path fill="none" stroke="#63b8ff" d="M798.62,-222.96C827.21,-228.61 859.84,-235.06 887.07,-240.45"/>
<polygon fill="#63b8ff" stroke="#63b8ff" points="886.73,-243.95 897.22,-242.45 888.09,-237.08 886.73,-243.95"/>
</a>
</g>
</g>
<!-- Node11&#45;&gt;Node7 -->
<g id="edge14_Node000011_Node000007" class="edge">
<title>Node11&#45;&gt;Node7</title>
<g id="a_edge14_Node000011_Node000007"><a xlink:title=" ">
<path fill="none" stroke="#63b8ff" d="M801.94,-26.65C877.49,-38.55 994.25,-56.94 1070.66,-68.97"/>
<polygon fill="#63b8ff" stroke="#63b8ff" points="1070.27,-72.46 1080.69,-70.56 1071.36,-65.54 1070.27,-72.46"/>
</a>
</g>
</g>
<!-- Node22 -->
<g id="Node000022" class="node">
<title>Node22</title>
<g id="a_Node000022"><a xlink:href="classPhysics_1_1PhysicsBody.html#ad76815a1ef3d53f6c2901afa5277554f" target="_top" xlink:title=" ">
<polygon fill="white" stroke="#666666" points="580,-494 459,-494 459,-464 580,-464 580,-494"/>
<text text-anchor="start" x="467" y="-482" font-family="Helvetica,sans-Serif" font-size="10.00">Physics::PhysicsBody</text>
<text text-anchor="middle" x="519.5" y="-471" font-family="Helvetica,sans-Serif" font-size="10.00">::setThermalProperty</text>
</a>
</g>
</g>
<!-- Node21&#45;&gt;Node22 -->
<g id="edge27_Node000021_Node000022" class="edge">
<title>Node21&#45;&gt;Node22</title>
<g id="a_edge27_Node000021_Node000022"><a xlink:title=" ">
<path fill="none" stroke="#63b8ff" d="M354.29,-527.99C385.38,-518.72 425.45,-506.76 458.23,-496.98"/>
<polygon fill="#63b8ff" stroke="#63b8ff" points="459.57,-500.23 468.15,-494.02 457.57,-493.53 459.57,-500.23"/>
</a>
</g>
</g>
<!-- Node22&#45;&gt;Node5 -->
<g id="edge28_Node000022_Node000005" class="edge">
<title>Node22&#45;&gt;Node5</title>
<g id="a_edge28_Node000022_Node000005"><a xlink:title=" ">
<path fill="none" stroke="#63b8ff" d="M548.71,-463.93C626.41,-422.43 842.74,-306.88 918.71,-266.31"/>
<polygon fill="#63b8ff" stroke="#63b8ff" points="920.5,-269.32 927.67,-261.52 917.2,-263.15 920.5,-269.32"/>
</a>
</g>
</g>
</g>
</svg>

<g id="navigator" transform="translate(0 0)" fill="#404254">
  <rect fill="#f2f5e9" fill-opacity="0.5" stroke="#606060" stroke-width=".5" x="0" y="0" width="60" height="60"/>
  <use id="zoomplus" xlink:href="#zoomPlus" x="17" y="9" onmousedown="handleZoom(evt,'in')"/>
  <use id="zoomminus" xlink:href="#zoomMin" x="42" y="9" onmousedown="handleZoom(evt,'out')"/>
  <use id="reset" xlink:href="#resetDef" x="30" y="36" onmousedown="handleReset()"/>
   <use id="arrowup" xlink:href="#arrowUp" x="0" y="0" onmousedown="handlePan(0,-1)"/>
  <use id="arrowright" xlink:href="#arrowRight" x="0" y="0" onmousedown="handlePan(1,0)"/>
  <use id="arrowdown" xlink:href="#arrowDown" x="0" y="0" onmousedown="handlePan(0,1)"/>
  <use id="arrowleft" xlink:href="#arrowLeft" x="0" y="0" onmousedown="handlePan(-1,0)"/>
</g>
<svg viewBox="0 0 15 15" width="100%" height="30px" preserveAspectRatio="xMaxYMin meet">
 <g id="arrow_out" transform="scale(0.3 0.3)">
  <a xlink:href="classPhysics_1_1RigidBody_a4e7d7e2da6c0011c98745c15903a2b15_cgraph_org.svg" target="_base">
   <rect id="button" ry="5" rx="5" y="6" x="6" height="38" width="38"
        fill="#f2f5e9" fill-opacity="0.5" stroke="#606060" stroke-width="1.0"/>
   <path id="arrow"
     d="M 11.500037,31.436501 C 11.940474,20.09759 22.043105,11.32322 32.158766,21.979434 L 37.068811,17.246167 C 37.068811,17.246167 37.088388,32 37.088388,32 L 22.160133,31.978069 C 22.160133,31.978069 26.997745,27.140456 26.997745,27.140456 C 18.528582,18.264221 13.291696,25.230495 11.500037,31.436501 z"
     style="fill:#404040;"/>
  </a>
 </g>
</svg>

<style type='text/css'>
<![CDATA[
[data-mouse-over-selected='false'] { opacity: 0.7; }
[data-mouse-over-selected='true']  { opacity: 1.0; }
]]>
</style>
<script type="application/ecmascript"><![CDATA[
document.addEventListener('DOMContentLoaded', (event) => {
  highlightEdges();
  highlightAdjacentNodes();
});
]]></script>
</svg>
