<?xml version="1.0" encoding="UTF-8" standalone="no"?>
<!DOCTYPE svg PUBLIC "-//W3C//DTD SVG 1.1//EN"
 "http://www.w3.org/Graphics/SVG/1.1/DTD/svg11.dtd">
<!-- Generated by graphviz version 2.43.0 (0)
 -->
<!-- Title: Scene::Scene Pages: 1 -->
<svg width="694pt" height="70pt"
 viewBox="0.00 0.00 694.00 69.50" xmlns="http://www.w3.org/2000/svg" xmlns:xlink="http://www.w3.org/1999/xlink">
<g id="graph0" class="graph" transform="scale(1 1) rotate(0) translate(4 65.5)">
<title>Scene::Scene</title>
<!-- Node1 -->
<g id="Node000001" class="node">
<title>Node1</title>
<g id="a_Node000001"><a xlink:title=" ">
<polygon fill="#999999" stroke="#666666" points="81,-37 0,-37 0,-18 81,-18 81,-37"/>
<text text-anchor="middle" x="40.5" y="-25" font-family="Helvetica,sans-Serif" font-size="10.00">Scene::Scene</text>
</a>
</g>
</g>
<!-- Node2 -->
<g id="Node000002" class="node">
<title>Node2</title>
<g id="a_Node000002"><a xlink:href="classResourceManager.html#a81648e0e89015da30462d9d7baa4358f" target="_top" xlink:title=" ">
<polygon fill="white" stroke="#666666" points="298,-56 117,-56 117,-37 298,-37 298,-56"/>
<text text-anchor="middle" x="207.5" y="-44" font-family="Helvetica,sans-Serif" font-size="10.00">ResourceManager::loadPrimitives</text>
</a>
</g>
</g>
<!-- Node1&#45;&gt;Node2 -->
<g id="edge1_Node000001_Node000002" class="edge">
<title>Node1&#45;&gt;Node2</title>
<g id="a_edge1_Node000001_Node000002"><a xlink:title=" ">
<path fill="none" stroke="#63b8ff" d="M81.02,-32.05C91.05,-33.21 102.25,-34.5 113.73,-35.82"/>
<polygon fill="#63b8ff" stroke="#63b8ff" points="113.52,-39.32 123.86,-36.98 114.32,-32.36 113.52,-39.32"/>
</a>
</g>
</g>
<!-- Node5 -->
<g id="Node000005" class="node">
<title>Node5</title>
<g id="a_Node000005"><a xlink:href="classResourceManager.html#aaca89be477446964ea277c1c6fba9905" target="_top" xlink:title=" ">
<polygon fill="white" stroke="#666666" points="290,-19 125,-19 125,0 290,0 290,-19"/>
<text text-anchor="middle" x="207.5" y="-7" font-family="Helvetica,sans-Serif" font-size="10.00">ResourceManager::loadShader</text>
</a>
</g>
</g>
<!-- Node1&#45;&gt;Node5 -->
<g id="edge4_Node000001_Node000005" class="edge">
<title>Node1&#45;&gt;Node5</title>
<g id="a_edge4_Node000001_Node000005"><a xlink:title=" ">
<path fill="none" stroke="#63b8ff" d="M81.02,-23.19C91.37,-22.06 102.98,-20.79 114.84,-19.5"/>
<polygon fill="#63b8ff" stroke="#63b8ff" points="115.28,-22.97 124.84,-18.41 114.52,-16.01 115.28,-22.97"/>
</a>
</g>
</g>
<!-- Node3 -->
<g id="Node000003" class="node">
<title>Node3</title>
<g id="a_Node000003"><a xlink:href="classResourceManager.html#ade18da84a312b63ee6a5dc8689587b6a" target="_top" xlink:title=" ">
<polygon fill="white" stroke="#666666" points="492,-61.5 334,-61.5 334,-31.5 492,-31.5 492,-61.5"/>
<text text-anchor="start" x="342" y="-49.5" font-family="Helvetica,sans-Serif" font-size="10.00">ResourceManager::loadMesh</text>
<text text-anchor="middle" x="413" y="-38.5" font-family="Helvetica,sans-Serif" font-size="10.00">FromOBJ</text>
</a>
</g>
</g>
<!-- Node2&#45;&gt;Node3 -->
<g id="edge2_Node000002_Node000003" class="edge">
<title>Node2&#45;&gt;Node3</title>
<g id="a_edge2_Node000002_Node000003"><a xlink:title=" ">
<path fill="none" stroke="#63b8ff" d="M298.05,-46.5C306.54,-46.5 315.15,-46.5 323.63,-46.5"/>
<polygon fill="#63b8ff" stroke="#63b8ff" points="323.89,-50 333.89,-46.5 323.89,-43 323.89,-50"/>
</a>
</g>
</g>
<!-- Node4 -->
<g id="Node000004" class="node">
<title>Node4</title>
<g id="a_Node000004"><a xlink:href="classResourceManager.html#a345b2a05be8376003dac0543803fe380" target="_top" xlink:title=" ">
<polygon fill="white" stroke="#666666" points="686,-56 528,-56 528,-37 686,-37 686,-56"/>
<text text-anchor="middle" x="607" y="-44" font-family="Helvetica,sans-Serif" font-size="10.00">ResourceManager::loadMesh</text>
</a>
</g>
</g>
<!-- Node3&#45;&gt;Node4 -->
<g id="edge3_Node000003_Node000004" class="edge">
<title>Node3&#45;&gt;Node4</title>
<g id="a_edge3_Node000003_Node000004"><a xlink:title=" ">
<path fill="none" stroke="#63b8ff" d="M492.09,-46.5C500.6,-46.5 509.3,-46.5 517.92,-46.5"/>
<polygon fill="#63b8ff" stroke="#63b8ff" points="517.98,-50 527.98,-46.5 517.98,-43 517.98,-50"/>
</a>
</g>
</g>
</g>
</svg>
