<?xml version="1.0" encoding="UTF-8" standalone="no"?>
<!DOCTYPE svg PUBLIC "-//W3C//DTD SVG 1.1//EN"
 "http://www.w3.org/Graphics/SVG/1.1/DTD/svg11.dtd">
<!-- Generated by graphviz version 2.43.0 (0)
 -->
<!-- Title: Physics::PhysicsBody::getPosition Pages: 1 -->
<svg width="547pt" height="453pt"
 viewBox="0.00 0.00 547.00 452.50" xmlns="http://www.w3.org/2000/svg" xmlns:xlink="http://www.w3.org/1999/xlink">
<g id="graph0" class="graph" transform="scale(1 1) rotate(0) translate(4 448.5)">
<title>Physics::PhysicsBody::getPosition</title>
<!-- Node1 -->
<g id="Node000001" class="node">
<title>Node1</title>
<g id="a_Node000001"><a xlink:title=" ">
<polygon fill="#999999" stroke="#666666" points="539,-209.5 418,-209.5 418,-179.5 539,-179.5 539,-209.5"/>
<text text-anchor="start" x="426" y="-197.5" font-family="Helvetica,sans-Serif" font-size="10.00">Physics::PhysicsBody</text>
<text text-anchor="middle" x="478.5" y="-186.5" font-family="Helvetica,sans-Serif" font-size="10.00">::getPosition</text>
</a>
</g>
</g>
<!-- Node2 -->
<g id="Node000002" class="node">
<title>Node2</title>
<g id="a_Node000002"><a xlink:href="classPhysics_1_1PointMass.html#adb853a2e4fe9b535b6b080ee3a70e43b" target="_top" xlink:title=" ">
<polygon fill="white" stroke="#666666" points="362,-444.5 229,-444.5 229,-414.5 362,-414.5 362,-444.5"/>
<text text-anchor="start" x="237" y="-432.5" font-family="Helvetica,sans-Serif" font-size="10.00">Physics::PointMass</text>
<text text-anchor="middle" x="295.5" y="-421.5" font-family="Helvetica,sans-Serif" font-size="10.00">::collidesWithPointMass</text>
</a>
</g>
</g>
<!-- Node1&#45;&gt;Node2 -->
<g id="edge1_Node000001_Node000002" class="edge">
<title>Node1&#45;&gt;Node2</title>
<g id="a_edge1_Node000001_Node000002"><a xlink:title=" ">
<path fill="none" stroke="#63b8ff" d="M473.26,-219.52C464.45,-263.75 439.9,-355.76 382,-405.5 376.15,-410.52 369.33,-414.5 362.13,-417.65"/>
<polygon fill="#63b8ff" stroke="#63b8ff" points="476.72,-220.08 475.13,-209.61 469.84,-218.79 476.72,-220.08"/>
</a>
</g>
</g>
<!-- Node3 -->
<g id="Node000003" class="node">
<title>Node3</title>
<g id="a_Node000003"><a xlink:href="classPhysics_1_1RigidBody.html#a33bcd981d85932f3cdd4e3690a0c39c5" target="_top" xlink:title=" ">
<polygon fill="white" stroke="#666666" points="362,-396.5 229,-396.5 229,-366.5 362,-366.5 362,-396.5"/>
<text text-anchor="start" x="237" y="-384.5" font-family="Helvetica,sans-Serif" font-size="10.00">Physics::RigidBody</text>
<text text-anchor="middle" x="295.5" y="-373.5" font-family="Helvetica,sans-Serif" font-size="10.00">::collidesWithPointMass</text>
</a>
</g>
</g>
<!-- Node1&#45;&gt;Node3 -->
<g id="edge2_Node000001_Node000003" class="edge">
<title>Node1&#45;&gt;Node3</title>
<g id="a_edge2_Node000001_Node000003"><a xlink:title=" ">
<path fill="none" stroke="#63b8ff" d="M469.65,-219.41C457.03,-255.35 428.79,-321.39 382,-357.5 376.02,-362.12 369.2,-365.84 362.07,-368.85"/>
<polygon fill="#63b8ff" stroke="#63b8ff" points="473.04,-220.29 472.93,-209.7 466.41,-218.05 473.04,-220.29"/>
</a>
</g>
</g>
<!-- Node5 -->
<g id="Node000005" class="node">
<title>Node5</title>
<g id="a_Node000005"><a xlink:href="classPhysics_1_1PointMass.html#a32dbe49764fdd24798577d9db54baff3" target="_top" xlink:title=" ">
<polygon fill="white" stroke="#666666" points="382,-348.5 209,-348.5 209,-318.5 382,-318.5 382,-348.5"/>
<text text-anchor="start" x="217" y="-336.5" font-family="Helvetica,sans-Serif" font-size="10.00">Physics::PointMass</text>
<text text-anchor="middle" x="295.5" y="-325.5" font-family="Helvetica,sans-Serif" font-size="10.00">::resolveCollisionWithPointMass</text>
</a>
</g>
</g>
<!-- Node1&#45;&gt;Node5 -->
<g id="edge4_Node000001_Node000005" class="edge">
<title>Node1&#45;&gt;Node5</title>
<g id="a_edge4_Node000001_Node000005"><a xlink:title=" ">
<path fill="none" stroke="#63b8ff" d="M463.9,-218.27C447.7,-244.46 418.22,-285.99 382,-309.5 376.7,-312.94 370.9,-315.9 364.9,-318.43"/>
<polygon fill="#63b8ff" stroke="#63b8ff" points="466.9,-220.07 469.07,-209.7 460.91,-216.46 466.9,-220.07"/>
</a>
</g>
</g>
<!-- Node6 -->
<g id="Node000006" class="node">
<title>Node6</title>
<g id="a_Node000006"><a xlink:href="classPhysics_1_1RigidBody.html#ab4b4ea01aa74880550e9e1d91e6ed10d" target="_top" xlink:title=" ">
<polygon fill="white" stroke="#666666" points="382,-300.5 209,-300.5 209,-270.5 382,-270.5 382,-300.5"/>
<text text-anchor="start" x="217" y="-288.5" font-family="Helvetica,sans-Serif" font-size="10.00">Physics::RigidBody</text>
<text text-anchor="middle" x="295.5" y="-277.5" font-family="Helvetica,sans-Serif" font-size="10.00">::resolveCollisionWithPointMass</text>
</a>
</g>
</g>
<!-- Node1&#45;&gt;Node6 -->
<g id="edge5_Node000001_Node000006" class="edge">
<title>Node1&#45;&gt;Node6</title>
<g id="a_edge5_Node000001_Node000006"><a xlink:title=" ">
<path fill="none" stroke="#63b8ff" d="M452.08,-215.94C433.64,-230.56 407.55,-249.39 382,-261.5 374.9,-264.87 367.23,-267.85 359.5,-270.46"/>
<polygon fill="#63b8ff" stroke="#63b8ff" points="454.4,-218.57 459.98,-209.56 450,-213.12 454.4,-218.57"/>
</a>
</g>
</g>
<!-- Node8 -->
<g id="Node000008" class="node">
<title>Node8</title>
<g id="a_Node000008"><a xlink:href="classGlobalsInspectorWidget.html#ac983b68fcff61ff889660f3d93221072" target="_top" xlink:title=" ">
<polygon fill="white" stroke="#666666" points="362,-252.5 229,-252.5 229,-222.5 362,-222.5 362,-252.5"/>
<text text-anchor="start" x="237" y="-240.5" font-family="Helvetica,sans-Serif" font-size="10.00">GlobalsInspectorWidget</text>
<text text-anchor="middle" x="295.5" y="-229.5" font-family="Helvetica,sans-Serif" font-size="10.00">::runSolver</text>
</a>
</g>
</g>
<!-- Node1&#45;&gt;Node8 -->
<g id="edge7_Node000001_Node000008" class="edge">
<title>Node1&#45;&gt;Node8</title>
<g id="a_edge7_Node000001_Node000008"><a xlink:title=" ">
<path fill="none" stroke="#63b8ff" d="M408.21,-210.96C392.29,-214.74 375.44,-218.75 359.79,-222.46"/>
<polygon fill="#63b8ff" stroke="#63b8ff" points="409.06,-214.36 417.98,-208.64 407.44,-207.55 409.06,-214.36"/>
</a>
</g>
</g>
<!-- Node9 -->
<g id="Node000009" class="node">
<title>Node9</title>
<g id="a_Node000009"><a xlink:href="PhysicsTests_8cpp.html#a370cb716ace9dbfe84f482760aea0d00" target="_top" xlink:title=" ">
<polygon fill="white" stroke="#666666" points="316,-204 275,-204 275,-185 316,-185 316,-204"/>
<text text-anchor="middle" x="295.5" y="-192" font-family="Helvetica,sans-Serif" font-size="10.00">TEST</text>
</a>
</g>
</g>
<!-- Node1&#45;&gt;Node9 -->
<g id="edge8_Node000001_Node000009" class="edge">
<title>Node1&#45;&gt;Node9</title>
<g id="a_edge8_Node000001_Node000009"><a xlink:title=" ">
<path fill="none" stroke="#63b8ff" d="M407.91,-194.5C374.96,-194.5 338.11,-194.5 316.13,-194.5"/>
<polygon fill="#63b8ff" stroke="#63b8ff" points="407.98,-198 417.98,-194.5 407.98,-191 407.98,-198"/>
</a>
</g>
</g>
<!-- Node10 -->
<g id="Node000010" class="node">
<title>Node10</title>
<g id="a_Node000010"><a xlink:href="PhysicsTests_8cpp.html#a7c2a98ae0fe61e18c53dbbfc3dd2678d" target="_top" xlink:title=" ">
<polygon fill="white" stroke="#666666" points="316,-167 275,-167 275,-148 316,-148 316,-167"/>
<text text-anchor="middle" x="295.5" y="-155" font-family="Helvetica,sans-Serif" font-size="10.00">TEST</text>
</a>
</g>
</g>
<!-- Node1&#45;&gt;Node10 -->
<g id="edge9_Node000001_Node000010" class="edge">
<title>Node1&#45;&gt;Node10</title>
<g id="a_edge9_Node000001_Node000010"><a xlink:title=" ">
<path fill="none" stroke="#63b8ff" d="M407.91,-180.27C374.96,-173.54 338.11,-166.01 316.13,-161.51"/>
<polygon fill="#63b8ff" stroke="#63b8ff" points="407.48,-183.76 417.98,-182.33 408.89,-176.9 407.48,-183.76"/>
</a>
</g>
</g>
<!-- Node11 -->
<g id="Node000011" class="node">
<title>Node11</title>
<g id="a_Node000011"><a xlink:href="PhysicsTests_8cpp.html#a6ef196198e91ed8297633a5002dd70e9" target="_top" xlink:title=" ">
<polygon fill="white" stroke="#666666" points="316,-130 275,-130 275,-111 316,-111 316,-130"/>
<text text-anchor="middle" x="295.5" y="-118" font-family="Helvetica,sans-Serif" font-size="10.00">TEST</text>
</a>
</g>
</g>
<!-- Node1&#45;&gt;Node11 -->
<g id="edge10_Node000001_Node000011" class="edge">
<title>Node1&#45;&gt;Node11</title>
<g id="a_edge10_Node000001_Node000011"><a xlink:title=" ">
<path fill="none" stroke="#63b8ff" d="M448.07,-173.88C429.8,-161.95 405.42,-147.55 382,-138.5 360.21,-130.08 333.7,-125.27 316.03,-122.78"/>
<polygon fill="#63b8ff" stroke="#63b8ff" points="446.25,-176.87 456.51,-179.5 450.13,-171.04 446.25,-176.87"/>
</a>
</g>
</g>
<!-- Node12 -->
<g id="Node000012" class="node">
<title>Node12</title>
<g id="a_Node000012"><a xlink:href="PhysicsTests_8cpp.html#aaf9917cd74087c265f26822275a0cf9a" target="_top" xlink:title=" ">
<polygon fill="white" stroke="#666666" points="316,-93 275,-93 275,-74 316,-74 316,-93"/>
<text text-anchor="middle" x="295.5" y="-81" font-family="Helvetica,sans-Serif" font-size="10.00">TEST</text>
</a>
</g>
</g>
<!-- Node1&#45;&gt;Node12 -->
<g id="edge11_Node000001_Node000012" class="edge">
<title>Node1&#45;&gt;Node12</title>
<g id="a_edge11_Node000001_Node000012"><a xlink:title=" ">
<path fill="none" stroke="#63b8ff" d="M460.13,-171.26C442.77,-149.76 414.09,-118.61 382,-101.5 361.25,-90.44 334.29,-86.17 316.24,-84.53"/>
<polygon fill="#63b8ff" stroke="#63b8ff" points="457.49,-173.57 466.43,-179.26 462.99,-169.24 457.49,-173.57"/>
</a>
</g>
</g>
<!-- Node13 -->
<g id="Node000013" class="node">
<title>Node13</title>
<g id="a_Node000013"><a xlink:href="PhysicsTests_8cpp.html#a556d37407360d92575b9fde9164b643a" target="_top" xlink:title=" ">
<polygon fill="white" stroke="#666666" points="316,-56 275,-56 275,-37 316,-37 316,-56"/>
<text text-anchor="middle" x="295.5" y="-44" font-family="Helvetica,sans-Serif" font-size="10.00">TEST</text>
</a>
</g>
</g>
<!-- Node1&#45;&gt;Node13 -->
<g id="edge12_Node000001_Node000013" class="edge">
<title>Node1&#45;&gt;Node13</title>
<g id="a_edge12_Node000001_Node000013"><a xlink:title=" ">
<path fill="none" stroke="#63b8ff" d="M466.38,-169.91C451.55,-140.07 422.4,-90.53 382,-64.5 362.11,-51.68 334.71,-47.8 316.34,-46.73"/>
<polygon fill="#63b8ff" stroke="#63b8ff" points="463.36,-171.72 470.85,-179.22 469.67,-168.69 463.36,-171.72"/>
</a>
</g>
</g>
<!-- Node14 -->
<g id="Node000014" class="node">
<title>Node14</title>
<g id="a_Node000014"><a xlink:href="PhysicsTests_8cpp.html#a11092ab830efde715171fcf7ecf7a74c" target="_top" xlink:title=" ">
<polygon fill="white" stroke="#666666" points="316,-19 275,-19 275,0 316,0 316,-19"/>
<text text-anchor="middle" x="295.5" y="-7" font-family="Helvetica,sans-Serif" font-size="10.00">TEST</text>
</a>
</g>
</g>
<!-- Node1&#45;&gt;Node14 -->
<g id="edge13_Node000001_Node000014" class="edge">
<title>Node1&#45;&gt;Node14</title>
<g id="a_edge13_Node000001_Node000014"><a xlink:title=" ">
<path fill="none" stroke="#63b8ff" d="M470.41,-169.42C458.55,-132.27 431.02,-63.2 382,-27.5 362.75,-13.48 334.95,-9.89 316.33,-9.2"/>
<polygon fill="#63b8ff" stroke="#63b8ff" points="467.2,-170.88 473.47,-179.42 473.89,-168.83 467.2,-170.88"/>
</a>
</g>
</g>
<!-- Node4 -->
<g id="Node000004" class="node">
<title>Node4</title>
<g id="a_Node000004"><a xlink:href="classPhysics_1_1PointMass.html#a255dc33b6adda680f6451125f51873be" target="_top" xlink:title=" ">
<polygon fill="white" stroke="#666666" points="152.5,-396.5 20.5,-396.5 20.5,-366.5 152.5,-366.5 152.5,-396.5"/>
<text text-anchor="start" x="28.5" y="-384.5" font-family="Helvetica,sans-Serif" font-size="10.00">Physics::PointMass</text>
<text text-anchor="middle" x="86.5" y="-373.5" font-family="Helvetica,sans-Serif" font-size="10.00">::collidesWithRigidBody</text>
</a>
</g>
</g>
<!-- Node3&#45;&gt;Node4 -->
<g id="edge3_Node000003_Node000004" class="edge">
<title>Node3&#45;&gt;Node4</title>
<g id="a_edge3_Node000003_Node000004"><a xlink:title=" ">
<path fill="none" stroke="#63b8ff" d="M218.6,-381.5C197,-381.5 173.67,-381.5 152.75,-381.5"/>
<polygon fill="#63b8ff" stroke="#63b8ff" points="218.72,-385 228.72,-381.5 218.72,-378 218.72,-385"/>
</a>
</g>
</g>
<!-- Node7 -->
<g id="Node000007" class="node">
<title>Node7</title>
<g id="a_Node000007"><a xlink:href="classPhysics_1_1PointMass.html#a2a9325bac8ed95540eeb66438de1045d" target="_top" xlink:title=" ">
<polygon fill="white" stroke="#666666" points="173,-300.5 0,-300.5 0,-270.5 173,-270.5 173,-300.5"/>
<text text-anchor="start" x="8" y="-288.5" font-family="Helvetica,sans-Serif" font-size="10.00">Physics::PointMass</text>
<text text-anchor="middle" x="86.5" y="-277.5" font-family="Helvetica,sans-Serif" font-size="10.00">::resolveCollisionWithRigidBody</text>
</a>
</g>
</g>
<!-- Node6&#45;&gt;Node7 -->
<g id="edge6_Node000006_Node000007" class="edge">
<title>Node6&#45;&gt;Node7</title>
<g id="a_edge6_Node000006_Node000007"><a xlink:title=" ">
<path fill="none" stroke="#63b8ff" d="M198.8,-285.5C190.24,-285.5 181.6,-285.5 173.12,-285.5"/>
<polygon fill="#63b8ff" stroke="#63b8ff" points="198.81,-289 208.81,-285.5 198.81,-282 198.81,-289"/>
</a>
</g>
</g>
</g>
</svg>
