<?xml version="1.0" encoding="UTF-8" standalone="no"?>
<!DOCTYPE svg PUBLIC "-//W3C//DTD SVG 1.1//EN"
 "http://www.w3.org/Graphics/SVG/1.1/DTD/svg11.dtd">
<!-- Generated by graphviz version 2.43.0 (0)
 -->
<!-- Title: SceneObject::setName Pages: 1 -->
<svg width="1302pt" height="64pt"
 viewBox="0.00 0.00 1302.00 64.00" xmlns="http://www.w3.org/2000/svg" xmlns:xlink="http://www.w3.org/1999/xlink">
<g id="graph0" class="graph" transform="scale(1 1) rotate(0) translate(4 60)">
<title>SceneObject::setName</title>
<!-- Node1 -->
<g id="Node000001" class="node">
<title>Node1</title>
<g id="a_Node000001"><a xlink:title=" ">
<polygon fill="#999999" stroke="#666666" points="1294,-38 1166,-38 1166,-19 1294,-19 1294,-38"/>
<text text-anchor="middle" x="1230" y="-26" font-family="Helvetica,sans-Serif" font-size="10.00">SceneObject::setName</text>
</a>
</g>
</g>
<!-- Node2 -->
<g id="Node000002" class="node">
<title>Node2</title>
<g id="a_Node000002"><a xlink:href="classSceneManager.html#aad894e90cf7ad353aab707f966c9711d" target="_top" xlink:title=" ">
<polygon fill="white" stroke="#666666" points="1130,-38 960,-38 960,-19 1130,-19 1130,-38"/>
<text text-anchor="middle" x="1045" y="-26" font-family="Helvetica,sans-Serif" font-size="10.00">SceneManager::setObjectName</text>
</a>
</g>
</g>
<!-- Node1&#45;&gt;Node2 -->
<g id="edge1_Node000001_Node000002" class="edge">
<title>Node1&#45;&gt;Node2</title>
<g id="a_edge1_Node000001_Node000002"><a xlink:title=" ">
<path fill="none" stroke="#63b8ff" d="M1155.68,-28.5C1147.3,-28.5 1138.72,-28.5 1130.22,-28.5"/>
<polygon fill="#63b8ff" stroke="#63b8ff" points="1155.77,-32 1165.77,-28.5 1155.77,-25 1155.77,-32"/>
</a>
</g>
</g>
<!-- Node3 -->
<g id="Node000003" class="node">
<title>Node3</title>
<g id="a_Node000003"><a xlink:href="classSceneManager.html#a1daee617aa556b8af8a7202d3f8f28c8" target="_top" xlink:title=" ">
<polygon fill="white" stroke="#666666" points="924,-19 767,-19 767,0 924,0 924,-19"/>
<text text-anchor="middle" x="845.5" y="-7" font-family="Helvetica,sans-Serif" font-size="10.00">SceneManager::createObject</text>
</a>
</g>
</g>
<!-- Node2&#45;&gt;Node3 -->
<g id="edge2_Node000002_Node000003" class="edge">
<title>Node2&#45;&gt;Node3</title>
<g id="a_edge2_Node000002_Node000003"><a xlink:title=" ">
<path fill="none" stroke="#63b8ff" d="M949.89,-19.45C941.29,-18.62 932.64,-17.79 924.2,-16.98"/>
<polygon fill="#63b8ff" stroke="#63b8ff" points="949.67,-22.94 959.96,-20.41 950.34,-15.97 949.67,-22.94"/>
</a>
</g>
</g>
<!-- Node4 -->
<g id="Node000004" class="node">
<title>Node4</title>
<g id="a_Node000004"><a xlink:href="classSceneManager.html#acfea563d3849e3c8c09fc3febe9ae1e2" target="_top" xlink:title=" ">
<polygon fill="white" stroke="#666666" points="727.5,-56 570.5,-56 570.5,-37 727.5,-37 727.5,-56"/>
<text text-anchor="middle" x="649" y="-44" font-family="Helvetica,sans-Serif" font-size="10.00">SceneManager::defaultSetup</text>
</a>
</g>
</g>
<!-- Node2&#45;&gt;Node4 -->
<g id="edge8_Node000002_Node000004" class="edge">
<title>Node2&#45;&gt;Node4</title>
<g id="a_edge8_Node000002_Node000004"><a xlink:title=" ">
<path fill="none" stroke="#63b8ff" d="M949.69,-32.81C881.78,-35.91 791.28,-40.05 727.56,-42.96"/>
<polygon fill="#63b8ff" stroke="#63b8ff" points="950.13,-36.29 959.96,-32.34 949.81,-29.3 950.13,-36.29"/>
</a>
</g>
</g>
<!-- Node3&#45;&gt;Node4 -->
<g id="edge3_Node000003_Node000004" class="edge">
<title>Node3&#45;&gt;Node4</title>
<g id="a_edge3_Node000003_Node000004"><a xlink:title=" ">
<path fill="none" stroke="#63b8ff" d="M784.32,-20.95C757.36,-26.08 725.93,-32.06 700.26,-36.94"/>
<polygon fill="#63b8ff" stroke="#63b8ff" points="785.24,-24.34 794.41,-19.03 783.93,-17.46 785.24,-24.34"/>
</a>
</g>
</g>
<!-- Node5 -->
<g id="Node000005" class="node">
<title>Node5</title>
<g id="a_Node000005"><a xlink:href="classSceneSerializer.html#a490f2bd87e7c9459ee47be974653b433" target="_top" xlink:title=" ">
<polygon fill="white" stroke="#666666" points="731,-19 567,-19 567,0 731,0 731,-19"/>
<text text-anchor="middle" x="649" y="-7" font-family="Helvetica,sans-Serif" font-size="10.00">SceneSerializer::loadFromJson</text>
</a>
</g>
</g>
<!-- Node3&#45;&gt;Node5 -->
<g id="edge4_Node000003_Node000005" class="edge">
<title>Node3&#45;&gt;Node5</title>
<g id="a_edge4_Node000003_Node000005"><a xlink:title=" ">
<path fill="none" stroke="#63b8ff" d="M756.52,-9.5C748.05,-9.5 739.49,-9.5 731.09,-9.5"/>
<polygon fill="#63b8ff" stroke="#63b8ff" points="756.79,-13 766.79,-9.5 756.79,-6 756.79,-13"/>
</a>
</g>
</g>
<!-- Node6 -->
<g id="Node000006" class="node">
<title>Node6</title>
<g id="a_Node000006"><a xlink:href="classSceneManager.html#a7b7b0a022dcce523178e8414fb8e4463" target="_top" xlink:title=" ">
<polygon fill="white" stroke="#666666" points="531,-19 386,-19 386,0 531,0 531,-19"/>
<text text-anchor="middle" x="458.5" y="-7" font-family="Helvetica,sans-Serif" font-size="10.00">SceneManager::loadScene</text>
</a>
</g>
</g>
<!-- Node5&#45;&gt;Node6 -->
<g id="edge5_Node000005_Node000006" class="edge">
<title>Node5&#45;&gt;Node6</title>
<g id="a_edge5_Node000005_Node000006"><a xlink:title=" ">
<path fill="none" stroke="#63b8ff" d="M556.9,-9.5C548.29,-9.5 539.65,-9.5 531.26,-9.5"/>
<polygon fill="#63b8ff" stroke="#63b8ff" points="556.97,-13 566.97,-9.5 556.97,-6 556.97,-13"/>
</a>
</g>
</g>
<!-- Node7 -->
<g id="Node000007" class="node">
<title>Node7</title>
<g id="a_Node000007"><a xlink:href="classSceneManager.html#a59f13c06bf3f19d5e543502a0ddd0467" target="_top" xlink:title=" ">
<polygon fill="white" stroke="#666666" points="350,-19 172,-19 172,0 350,0 350,-19"/>
<text text-anchor="middle" x="261" y="-7" font-family="Helvetica,sans-Serif" font-size="10.00">SceneManager::processHeldKeys</text>
</a>
</g>
</g>
<!-- Node6&#45;&gt;Node7 -->
<g id="edge6_Node000006_Node000007" class="edge">
<title>Node6&#45;&gt;Node7</title>
<g id="a_edge6_Node000006_Node000007"><a xlink:title=" ">
<path fill="none" stroke="#63b8ff" d="M375.68,-9.5C367.3,-9.5 358.75,-9.5 350.3,-9.5"/>
<polygon fill="#63b8ff" stroke="#63b8ff" points="375.81,-13 385.81,-9.5 375.81,-6 375.81,-13"/>
</a>
</g>
</g>
<!-- Node8 -->
<g id="Node000008" class="node">
<title>Node8</title>
<g id="a_Node000008"><a xlink:href="classOpenGLWindow.html#aea9ee69010d8451ab00cd488a8c6717d" target="_top" xlink:title=" ">
<polygon fill="white" stroke="#666666" points="136,-19 0,-19 0,0 136,0 136,-19"/>
<text text-anchor="middle" x="68" y="-7" font-family="Helvetica,sans-Serif" font-size="10.00">OpenGLWindow::paintGL</text>
</a>
</g>
</g>
<!-- Node7&#45;&gt;Node8 -->
<g id="edge7_Node000007_Node000008" class="edge">
<title>Node7&#45;&gt;Node8</title>
<g id="a_edge7_Node000007_Node000008"><a xlink:title=" ">
<path fill="none" stroke="#63b8ff" d="M161.6,-9.5C152.94,-9.5 144.32,-9.5 136,-9.5"/>
<polygon fill="#63b8ff" stroke="#63b8ff" points="161.77,-13 171.77,-9.5 161.77,-6 161.77,-13"/>
</a>
</g>
</g>
</g>
</svg>
