<?xml version="1.0" encoding="UTF-8" standalone="no"?>
<!DOCTYPE svg PUBLIC "-//W3C//DTD SVG 1.1//EN"
 "http://www.w3.org/Graphics/SVG/1.1/DTD/svg11.dtd">
<!-- Generated by graphviz version 2.43.0 (0)
 -->
<!-- Title: Camera::resetView Pages: 1 -->
<svg width="408pt" height="27pt"
 viewBox="0.00 0.00 408.00 27.00" xmlns="http://www.w3.org/2000/svg" xmlns:xlink="http://www.w3.org/1999/xlink">
<g id="graph0" class="graph" transform="scale(1 1) rotate(0) translate(4 23)">
<title>Camera::resetView</title>
<!-- Node1 -->
<g id="Node000001" class="node">
<title>Node1</title>
<g id="a_Node000001"><a xlink:title=" ">
<polygon fill="#999999" stroke="#666666" points="110,-19 0,-19 0,0 110,0 110,-19"/>
<text text-anchor="middle" x="55" y="-7" font-family="Helvetica,sans-Serif" font-size="10.00">Camera::resetView</text>
</a>
</g>
</g>
<!-- Node2 -->
<g id="Node000002" class="node">
<title>Node2</title>
<g id="a_Node000002"><a xlink:href="classCamera.html#a275ffd6ebff6f8cabc93d3ed55ff38a2" target="_top" xlink:title=" ">
<polygon fill="white" stroke="#666666" points="246,-19 146,-19 146,0 246,0 246,-19"/>
<text text-anchor="middle" x="196" y="-7" font-family="Helvetica,sans-Serif" font-size="10.00">Camera::setView</text>
</a>
</g>
</g>
<!-- Node1&#45;&gt;Node2 -->
<g id="edge1_Node000001_Node000002" class="edge">
<title>Node1&#45;&gt;Node2</title>
<g id="a_edge1_Node000001_Node000002"><a xlink:title=" ">
<path fill="none" stroke="#63b8ff" d="M110.14,-9.5C118.48,-9.5 127.14,-9.5 135.6,-9.5"/>
<polygon fill="#63b8ff" stroke="#63b8ff" points="135.77,-13 145.77,-9.5 135.77,-6 135.77,-13"/>
</a>
</g>
</g>
<!-- Node3 -->
<g id="Node000003" class="node">
<title>Node3</title>
<g id="a_Node000003"><a xlink:href="classCamera.html#af99955c976c3bbeec08714d7724bab89" target="_top" xlink:title=" ">
<polygon fill="white" stroke="#666666" points="400,-19 282,-19 282,0 400,0 400,-19"/>
<text text-anchor="middle" x="341" y="-7" font-family="Helvetica,sans-Serif" font-size="10.00">Camera::resetMouse</text>
</a>
</g>
</g>
<!-- Node2&#45;&gt;Node3 -->
<g id="edge2_Node000002_Node000003" class="edge">
<title>Node2&#45;&gt;Node3</title>
<g id="a_edge2_Node000002_Node000003"><a xlink:title=" ">
<path fill="none" stroke="#63b8ff" d="M246.21,-9.5C254.46,-9.5 263.14,-9.5 271.76,-9.5"/>
<polygon fill="#63b8ff" stroke="#63b8ff" points="271.83,-13 281.83,-9.5 271.83,-6 271.83,-13"/>
</a>
</g>
</g>
</g>
</svg>
