<?xml version="1.0" encoding="UTF-8" standalone="no"?>
<!DOCTYPE svg PUBLIC "-//W3C//DTD SVG 1.1//EN"
 "http://www.w3.org/Graphics/SVG/1.1/DTD/svg11.dtd">
<!-- Generated by graphviz version 2.43.0 (0)
 -->
<!-- Title: Gizmo::Gizmo Pages: 1 -->
<svg width="447pt" height="175pt"
 viewBox="0.00 0.00 447.00 175.00" xmlns="http://www.w3.org/2000/svg" xmlns:xlink="http://www.w3.org/1999/xlink">
<g id="graph0" class="graph" transform="scale(1 1) rotate(0) translate(4 171)">
<title>Gizmo::Gizmo</title>
<!-- Node1 -->
<g id="Node000001" class="node">
<title>Node1</title>
<g id="a_Node000001"><a xlink:title=" ">
<polygon fill="#999999" stroke="#666666" points="86,-93 0,-93 0,-74 86,-74 86,-93"/>
<text text-anchor="middle" x="43" y="-81" font-family="Helvetica,sans-Serif" font-size="10.00">Gizmo::Gizmo</text>
</a>
</g>
</g>
<!-- Node2 -->
<g id="Node000002" class="node">
<title>Node2</title>
<g id="a_Node000002"><a xlink:href="classSceneManager.html#ad0d1661e5869720d7a07b1912d75318d" target="_top" xlink:title=" ">
<polygon fill="white" stroke="#666666" points="284,-167 125,-167 125,-148 284,-148 284,-167"/>
<text text-anchor="middle" x="204.5" y="-155" font-family="Helvetica,sans-Serif" font-size="10.00">SceneManager::addDrawable</text>
</a>
</g>
</g>
<!-- Node1&#45;&gt;Node2 -->
<g id="edge1_Node000001_Node000002" class="edge">
<title>Node1&#45;&gt;Node2</title>
<g id="a_edge1_Node000001_Node000002"><a xlink:title=" ">
<path fill="none" stroke="#63b8ff" d="M54.73,-93.42C69,-106.05 95.51,-127.67 122,-139.5 126.6,-141.55 131.44,-143.38 136.39,-145"/>
<polygon fill="#63b8ff" stroke="#63b8ff" points="135.41,-148.36 145.99,-147.89 137.42,-141.66 135.41,-148.36"/>
</a>
</g>
</g>
<!-- Node4 -->
<g id="Node000004" class="node">
<title>Node4</title>
<g id="a_Node000004"><a xlink:href="classSceneManager.html#a31d525542db0b239ba61dd36a3d92d43" target="_top" xlink:title=" ">
<polygon fill="white" stroke="#666666" points="281,-130 128,-130 128,-111 281,-111 281,-130"/>
<text text-anchor="middle" x="204.5" y="-118" font-family="Helvetica,sans-Serif" font-size="10.00">SceneManager::addPickable</text>
</a>
</g>
</g>
<!-- Node1&#45;&gt;Node4 -->
<g id="edge3_Node000001_Node000004" class="edge">
<title>Node1&#45;&gt;Node4</title>
<g id="a_edge3_Node000001_Node000004"><a xlink:title=" ">
<path fill="none" stroke="#63b8ff" d="M82.44,-93.04C95.04,-96.12 109.1,-99.51 122,-102.5 130.91,-104.57 140.39,-106.71 149.61,-108.77"/>
<polygon fill="#63b8ff" stroke="#63b8ff" points="148.95,-112.21 159.47,-110.96 150.47,-105.38 148.95,-112.21"/>
</a>
</g>
</g>
<!-- Node5 -->
<g id="Node000005" class="node">
<title>Node5</title>
<g id="a_Node000005"><a xlink:href="classScene.html#a5d266d10bd4db4e9881ad23f1bd338d1" target="_top" xlink:title=" ">
<polygon fill="white" stroke="#666666" points="271,-93 138,-93 138,-74 271,-74 271,-93"/>
<text text-anchor="middle" x="204.5" y="-81" font-family="Helvetica,sans-Serif" font-size="10.00">Scene::allocateObjectID</text>
</a>
</g>
</g>
<!-- Node1&#45;&gt;Node5 -->
<g id="edge4_Node000001_Node000005" class="edge">
<title>Node1&#45;&gt;Node5</title>
<g id="a_edge4_Node000001_Node000005"><a xlink:title=" ">
<path fill="none" stroke="#63b8ff" d="M86.32,-83.5C99.02,-83.5 113.36,-83.5 127.54,-83.5"/>
<polygon fill="#63b8ff" stroke="#63b8ff" points="127.81,-87 137.81,-83.5 127.81,-80 127.81,-87"/>
</a>
</g>
</g>
<!-- Node6 -->
<g id="Node000006" class="node">
<title>Node6</title>
<g id="a_Node000006"><a xlink:href="classResourceManager.html#a9b2c679ed1e80b8e4e4d318b3d8da426" target="_top" xlink:title=" ">
<polygon fill="white" stroke="#666666" points="280.5,-56 128.5,-56 128.5,-37 280.5,-37 280.5,-56"/>
<text text-anchor="middle" x="204.5" y="-44" font-family="Helvetica,sans-Serif" font-size="10.00">ResourceManager::getMesh</text>
</a>
</g>
</g>
<!-- Node1&#45;&gt;Node6 -->
<g id="edge5_Node000001_Node000006" class="edge">
<title>Node1&#45;&gt;Node6</title>
<g id="a_edge5_Node000001_Node000006"><a xlink:title=" ">
<path fill="none" stroke="#63b8ff" d="M85.08,-73.97C105.65,-69.2 130.75,-63.38 152.54,-58.32"/>
<polygon fill="#63b8ff" stroke="#63b8ff" points="153.34,-61.73 162.29,-56.06 151.75,-54.91 153.34,-61.73"/>
</a>
</g>
</g>
<!-- Node7 -->
<g id="Node000007" class="node">
<title>Node7</title>
<g id="a_Node000007"><a xlink:href="classResourceManager.html#aaca89be477446964ea277c1c6fba9905" target="_top" xlink:title=" ">
<polygon fill="white" stroke="#666666" points="287,-19 122,-19 122,0 287,0 287,-19"/>
<text text-anchor="middle" x="204.5" y="-7" font-family="Helvetica,sans-Serif" font-size="10.00">ResourceManager::loadShader</text>
</a>
</g>
</g>
<!-- Node1&#45;&gt;Node7 -->
<g id="edge6_Node000001_Node000007" class="edge">
<title>Node1&#45;&gt;Node7</title>
<g id="a_edge6_Node000001_Node000007"><a xlink:title=" ">
<path fill="none" stroke="#63b8ff" d="M54.78,-73.82C69.11,-61.47 95.69,-40.3 122,-28.5 127.44,-26.06 133.22,-23.92 139.1,-22.04"/>
<polygon fill="#63b8ff" stroke="#63b8ff" points="140.45,-25.29 149.05,-19.11 138.47,-18.57 140.45,-25.29"/>
</a>
</g>
</g>
<!-- Node3 -->
<g id="Node000003" class="node">
<title>Node3</title>
<g id="a_Node000003"><a xlink:href="classScene.html#aa2773ce73d9158e1e3a9c97d26a7e727" target="_top" xlink:title=" ">
<polygon fill="white" stroke="#666666" points="439,-167 323,-167 323,-148 439,-148 439,-167"/>
<text text-anchor="middle" x="381" y="-155" font-family="Helvetica,sans-Serif" font-size="10.00">Scene::addDrawable</text>
</a>
</g>
</g>
<!-- Node2&#45;&gt;Node3 -->
<g id="edge2_Node000002_Node000003" class="edge">
<title>Node2&#45;&gt;Node3</title>
<g id="a_edge2_Node000002_Node000003"><a xlink:title=" ">
<path fill="none" stroke="#63b8ff" d="M284.07,-157.5C293.64,-157.5 303.35,-157.5 312.73,-157.5"/>
<polygon fill="#63b8ff" stroke="#63b8ff" points="312.76,-161 322.76,-157.5 312.76,-154 312.76,-161"/>
</a>
</g>
</g>
</g>
</svg>
