<?xml version="1.0" encoding="UTF-8" standalone="no"?>
<!DOCTYPE svg PUBLIC "-//W3C//DTD SVG 1.1//EN"
 "http://www.w3.org/Graphics/SVG/1.1/DTD/svg11.dtd">
<!-- Generated by graphviz version 2.43.0 (0)
 -->
<!-- Title: Physics::PhysicsBody::getPosition Pages: 1 -->
<!--zoomable 676 -->

<svg id="main" version="1.1" xmlns="http://www.w3.org/2000/svg" xmlns:xlink="http://www.w3.org/1999/xlink" xml:space="preserve" onload="init(evt)">
<style type="text/css"><![CDATA[
.node, .edge {opacity: 0.7;}
.node.selected, .edge.selected {opacity: 1;}
.edge:hover path { stroke: red; }
.edge:hover polygon { stroke: red; fill: red; }
]]></style>

<defs>
  <circle id="rim" cx="0" cy="0" r="7"/>
  <circle id="rim2" cx="0" cy="0" r="3.5"/>
  <g id="zoomPlus">
    <use xlink:href="#rim" fill="#404040"><set attributeName="fill" to="#808080" begin="zoomplus.mouseover" end="zoomplus.mouseout"/></use>
    <path d="M-4,0h8M0,-4v8" fill="none" stroke="white" stroke-width="1.5" pointer-events="none"/>
  </g>
  <g id="zoomMin">
    <use xlink:href="#rim" fill="#404040"><set attributeName="fill" to="#808080" begin="zoomminus.mouseover" end="zoomminus.mouseout"/></use>
    <path d="M-4,0h8" fill="none" stroke="white" stroke-width="1.5" pointer-events="none"/>
  </g>
  <g id="arrowUp" transform="translate(30 24)">
    <use xlink:href="#rim"/>
    <path pointer-events="none" fill="none" stroke="white" stroke-width="1.5" d="M0,-3.0v7 M-2.5,-0.5L0,-3.0L2.5,-0.5"/>
  </g>
  <g id="arrowRight" transform="rotate(90) translate(36 -43)">
    <use xlink:href="#rim"/>
    <path pointer-events="none" fill="none" stroke="white" stroke-width="1.5" d="M0,-3.0v7 M-2.5,-0.5L0,-3.0L2.5,-0.5"/>
  </g>
  <g id="arrowDown" transform="rotate(180) translate(-30 -48)">
    <use xlink:href="#rim"/>
    <path pointer-events="none" fill="none" stroke="white" stroke-width="1.5" d="M0,-3.0v7 M-2.5,-0.5L0,-3.0L2.5,-0.5"/>
  </g>
  <g id="arrowLeft" transform="rotate(270) translate(-36 17)">
    <use xlink:href="#rim"/>
    <path pointer-events="none" fill="none" stroke="white" stroke-width="1.5" d="M0,-3.0v7 M-2.5,-0.5L0,-3.0L2.5,-0.5"/>
  </g>
  <g id="resetDef">
    <use xlink:href="#rim2" fill="#404040"><set attributeName="fill" to="#808080" begin="reset.mouseover" end="reset.mouseout"/></use>
  </g>
</defs>
<script type="application/ecmascript">
var viewWidth = 547;
var viewHeight = 676;
var sectionId = 'dynsection-8';
</script>
<script type="application/ecmascript" xlink:href="svg.min.js"/>
<svg id="graph" class="graph">
<g id="viewport">
<title>Physics::PhysicsBody::getPosition</title>
<!-- Node1 -->
<g id="Node000001" class="node">
<title>Node1</title>
<g id="a_Node000001"><a xlink:title=" ">
<polygon fill="#999999" stroke="#666666" points="539,-320.5 418,-320.5 418,-290.5 539,-290.5 539,-320.5"/>
<text text-anchor="start" x="426" y="-308.5" font-family="Helvetica,sans-Serif" font-size="10.00">Physics::PhysicsBody</text>
<text text-anchor="middle" x="478.5" y="-297.5" font-family="Helvetica,sans-Serif" font-size="10.00">::getPosition</text>
</a>
</g>
</g>
<!-- Node2 -->
<g id="Node000002" class="node">
<title>Node2</title>
<g id="a_Node000002"><a xlink:href="classOctree.html#a3ce4d26b06d82c7de15eaca20d537440" target="_top" xlink:title=" ">
<polygon fill="white" stroke="#666666" points="335,-668 256,-668 256,-649 335,-649 335,-668"/>
<text text-anchor="middle" x="295.5" y="-656" font-family="Helvetica,sans-Serif" font-size="10.00">Octree::build</text>
</a>
</g>
</g>
<!-- Node1&#45;&gt;Node2 -->
<g id="edge1_Node000001_Node000002" class="edge">
<title>Node1&#45;&gt;Node2</title>
<g id="a_edge1_Node000001_Node000002"><a xlink:title=" ">
<path fill="none" stroke="#63b8ff" d="M478.36,-330.59C479.04,-392.76 471.66,-555.05 382,-639.5 369.49,-651.28 351.37,-656.36 335.02,-658.37"/>
<polygon fill="#63b8ff" stroke="#63b8ff" points="481.86,-330.44 478.17,-320.51 474.86,-330.57 481.86,-330.44"/>
</a>
</g>
</g>
<!-- Node3 -->
<g id="Node000003" class="node">
<title>Node3</title>
<g id="a_Node000003"><a xlink:href="classPhysics_1_1PointMass.html#adb853a2e4fe9b535b6b080ee3a70e43b" target="_top" xlink:title=" ">
<polygon fill="white" stroke="#666666" points="362,-630.5 229,-630.5 229,-600.5 362,-600.5 362,-630.5"/>
<text text-anchor="start" x="237" y="-618.5" font-family="Helvetica,sans-Serif" font-size="10.00">Physics::PointMass</text>
<text text-anchor="middle" x="295.5" y="-607.5" font-family="Helvetica,sans-Serif" font-size="10.00">::collidesWithPointMass</text>
</a>
</g>
</g>
<!-- Node1&#45;&gt;Node3 -->
<g id="edge2_Node000001_Node000003" class="edge">
<title>Node1&#45;&gt;Node3</title>
<g id="a_edge2_Node000001_Node000003"><a xlink:title=" ">
<path fill="none" stroke="#63b8ff" d="M476.63,-330.85C473.33,-386.39 457.51,-519.57 382,-591.5 376.31,-596.92 369.49,-601.14 362.22,-604.41"/>
<polygon fill="#63b8ff" stroke="#63b8ff" points="480.13,-330.99 477.14,-320.82 473.14,-330.63 480.13,-330.99"/>
</a>
</g>
</g>
<!-- Node4 -->
<g id="Node000004" class="node">
<title>Node4</title>
<g id="a_Node000004"><a xlink:href="classPhysics_1_1RigidBody.html#a33bcd981d85932f3cdd4e3690a0c39c5" target="_top" xlink:title=" ">
<polygon fill="white" stroke="#666666" points="362,-582.5 229,-582.5 229,-552.5 362,-552.5 362,-582.5"/>
<text text-anchor="start" x="237" y="-570.5" font-family="Helvetica,sans-Serif" font-size="10.00">Physics::RigidBody</text>
<text text-anchor="middle" x="295.5" y="-559.5" font-family="Helvetica,sans-Serif" font-size="10.00">::collidesWithPointMass</text>
</a>
</g>
</g>
<!-- Node1&#45;&gt;Node4 -->
<g id="edge3_Node000001_Node000004" class="edge">
<title>Node1&#45;&gt;Node4</title>
<g id="a_edge3_Node000001_Node000004"><a xlink:title=" ">
<path fill="none" stroke="#63b8ff" d="M474.7,-330.59C467.94,-379.05 446.23,-485.86 382,-543.5 376.26,-548.65 369.51,-552.7 362.34,-555.89"/>
<polygon fill="#63b8ff" stroke="#63b8ff" points="478.18,-331 475.99,-320.64 471.24,-330.1 478.18,-331"/>
</a>
</g>
</g>
<!-- Node6 -->
<g id="Node000006" class="node">
<title>Node6</title>
<g id="a_Node000006"><a xlink:href="classOctree.html#a9e4033c3835eabfc49b01f566ded0923" target="_top" xlink:title=" ">
<polygon fill="white" stroke="#666666" points="357.5,-534 233.5,-534 233.5,-515 357.5,-515 357.5,-534"/>
<text text-anchor="middle" x="295.5" y="-522" font-family="Helvetica,sans-Serif" font-size="10.00">Octree::computeForce</text>
</a>
</g>
</g>
<!-- Node1&#45;&gt;Node6 -->
<g id="edge5_Node000001_Node000006" class="edge">
<title>Node1&#45;&gt;Node6</title>
<g id="a_edge5_Node000001_Node000006"><a xlink:title=" ">
<path fill="none" stroke="#63b8ff" d="M473.02,-330.64C463.95,-373.73 439.21,-461.42 382,-506.5 374.85,-512.13 366.36,-516.11 357.54,-518.91"/>
<polygon fill="#63b8ff" stroke="#63b8ff" points="476.48,-331.18 474.99,-320.69 469.61,-329.82 476.48,-331.18"/>
</a>
</g>
</g>
<!-- Node7 -->
<g id="Node000007" class="node">
<title>Node7</title>
<g id="a_Node000007"><a xlink:href="classOctree.html#a2a87e28ce9c64242a6e4c8cb0aaac2a1" target="_top" xlink:title=" ">
<polygon fill="white" stroke="#666666" points="356,-497 235,-497 235,-478 356,-478 356,-497"/>
<text text-anchor="middle" x="295.5" y="-485" font-family="Helvetica,sans-Serif" font-size="10.00">Octree::computeHeat</text>
</a>
</g>
</g>
<!-- Node1&#45;&gt;Node7 -->
<g id="edge6_Node000001_Node000007" class="edge">
<title>Node1&#45;&gt;Node7</title>
<g id="a_edge6_Node000001_Node000007"><a xlink:title=" ">
<path fill="none" stroke="#63b8ff" d="M469.91,-330.75C457.61,-367.12 429.77,-433.69 382,-468.5 374.38,-474.05 365.44,-478.03 356.26,-480.87"/>
<polygon fill="#63b8ff" stroke="#63b8ff" points="473.34,-331.51 473.1,-320.92 466.68,-329.35 473.34,-331.51"/>
</a>
</g>
</g>
<!-- Node8 -->
<g id="Node000008" class="node">
<title>Node8</title>
<g id="a_Node000008"><a xlink:href="classPhysics_1_1PointMass.html#aa94536ea681b33ed376700aae820cef0" target="_top" xlink:title=" ">
<polygon fill="white" stroke="#666666" points="382,-459.5 209,-459.5 209,-429.5 382,-429.5 382,-459.5"/>
<text text-anchor="start" x="217" y="-447.5" font-family="Helvetica,sans-Serif" font-size="10.00">Physics::PointMass</text>
<text text-anchor="middle" x="295.5" y="-436.5" font-family="Helvetica,sans-Serif" font-size="10.00">::resolveCollisionWithPointMass</text>
</a>
</g>
</g>
<!-- Node1&#45;&gt;Node8 -->
<g id="edge7_Node000001_Node000008" class="edge">
<title>Node1&#45;&gt;Node8</title>
<g id="a_edge7_Node000001_Node000008"><a xlink:title=" ">
<path fill="none" stroke="#63b8ff" d="M463.9,-329.27C447.7,-355.46 418.22,-396.99 382,-420.5 376.7,-423.94 370.9,-426.9 364.9,-429.43"/>
<polygon fill="#63b8ff" stroke="#63b8ff" points="466.9,-331.07 469.07,-320.7 460.91,-327.46 466.9,-331.07"/>
</a>
</g>
</g>
<!-- Node9 -->
<g id="Node000009" class="node">
<title>Node9</title>
<g id="a_Node000009"><a xlink:href="classPhysics_1_1RigidBody.html#a4e7d7e2da6c0011c98745c15903a2b15" target="_top" xlink:title=" ">
<polygon fill="white" stroke="#666666" points="382,-411.5 209,-411.5 209,-381.5 382,-381.5 382,-411.5"/>
<text text-anchor="start" x="217" y="-399.5" font-family="Helvetica,sans-Serif" font-size="10.00">Physics::RigidBody</text>
<text text-anchor="middle" x="295.5" y="-388.5" font-family="Helvetica,sans-Serif" font-size="10.00">::resolveCollisionWithPointMass</text>
</a>
</g>
</g>
<!-- Node1&#45;&gt;Node9 -->
<g id="edge8_Node000001_Node000009" class="edge">
<title>Node1&#45;&gt;Node9</title>
<g id="a_edge8_Node000001_Node000009"><a xlink:title=" ">
<path fill="none" stroke="#63b8ff" d="M452.08,-326.94C433.64,-341.56 407.55,-360.39 382,-372.5 374.9,-375.87 367.23,-378.85 359.5,-381.46"/>
<polygon fill="#63b8ff" stroke="#63b8ff" points="454.4,-329.57 459.98,-320.56 450,-324.12 454.4,-329.57"/>
</a>
</g>
</g>
<!-- Node12 -->
<g id="Node000012" class="node">
<title>Node12</title>
<g id="a_Node000012"><a xlink:href="classGlobalsInspectorWidget.html#ac983b68fcff61ff889660f3d93221072" target="_top" xlink:title=" ">
<polygon fill="white" stroke="#666666" points="362,-363.5 229,-363.5 229,-333.5 362,-333.5 362,-363.5"/>
<text text-anchor="start" x="237" y="-351.5" font-family="Helvetica,sans-Serif" font-size="10.00">GlobalsInspectorWidget</text>
<text text-anchor="middle" x="295.5" y="-340.5" font-family="Helvetica,sans-Serif" font-size="10.00">::runSolver</text>
</a>
</g>
</g>
<!-- Node1&#45;&gt;Node12 -->
<g id="edge11_Node000001_Node000012" class="edge">
<title>Node1&#45;&gt;Node12</title>
<g id="a_edge11_Node000001_Node000012"><a xlink:title=" ">
<path fill="none" stroke="#63b8ff" d="M408.21,-321.96C392.29,-325.74 375.44,-329.75 359.79,-333.46"/>
<polygon fill="#63b8ff" stroke="#63b8ff" points="409.06,-325.36 417.98,-319.64 407.44,-318.55 409.06,-325.36"/>
</a>
</g>
</g>
<!-- Node13 -->
<g id="Node000013" class="node">
<title>Node13</title>
<g id="a_Node000013"><a xlink:href="PhysicsTests_8cpp.html#a370cb716ace9dbfe84f482760aea0d00" target="_top" xlink:title=" ">
<polygon fill="white" stroke="#666666" points="316,-315 275,-315 275,-296 316,-296 316,-315"/>
<text text-anchor="middle" x="295.5" y="-303" font-family="Helvetica,sans-Serif" font-size="10.00">TEST</text>
</a>
</g>
</g>
<!-- Node1&#45;&gt;Node13 -->
<g id="edge12_Node000001_Node000013" class="edge">
<title>Node1&#45;&gt;Node13</title>
<g id="a_edge12_Node000001_Node000013"><a xlink:title=" ">
<path fill="none" stroke="#63b8ff" d="M407.91,-305.5C374.96,-305.5 338.11,-305.5 316.13,-305.5"/>
<polygon fill="#63b8ff" stroke="#63b8ff" points="407.98,-309 417.98,-305.5 407.98,-302 407.98,-309"/>
</a>
</g>
</g>
<!-- Node14 -->
<g id="Node000014" class="node">
<title>Node14</title>
<g id="a_Node000014"><a xlink:href="PhysicsTests_8cpp.html#a7c2a98ae0fe61e18c53dbbfc3dd2678d" target="_top" xlink:title=" ">
<polygon fill="white" stroke="#666666" points="316,-278 275,-278 275,-259 316,-259 316,-278"/>
<text text-anchor="middle" x="295.5" y="-266" font-family="Helvetica,sans-Serif" font-size="10.00">TEST</text>
</a>
</g>
</g>
<!-- Node1&#45;&gt;Node14 -->
<g id="edge13_Node000001_Node000014" class="edge">
<title>Node1&#45;&gt;Node14</title>
<g id="a_edge13_Node000001_Node000014"><a xlink:title=" ">
<path fill="none" stroke="#63b8ff" d="M407.91,-291.27C374.96,-284.54 338.11,-277.01 316.13,-272.51"/>
<polygon fill="#63b8ff" stroke="#63b8ff" points="407.48,-294.76 417.98,-293.33 408.89,-287.9 407.48,-294.76"/>
</a>
</g>
</g>
<!-- Node15 -->
<g id="Node000015" class="node">
<title>Node15</title>
<g id="a_Node000015"><a xlink:href="PhysicsTests_8cpp.html#a6ef196198e91ed8297633a5002dd70e9" target="_top" xlink:title=" ">
<polygon fill="white" stroke="#666666" points="316,-241 275,-241 275,-222 316,-222 316,-241"/>
<text text-anchor="middle" x="295.5" y="-229" font-family="Helvetica,sans-Serif" font-size="10.00">TEST</text>
</a>
</g>
</g>
<!-- Node1&#45;&gt;Node15 -->
<g id="edge14_Node000001_Node000015" class="edge">
<title>Node1&#45;&gt;Node15</title>
<g id="a_edge14_Node000001_Node000015"><a xlink:title=" ">
<path fill="none" stroke="#63b8ff" d="M448.07,-284.88C429.8,-272.95 405.42,-258.55 382,-249.5 360.21,-241.08 333.7,-236.27 316.03,-233.78"/>
<polygon fill="#63b8ff" stroke="#63b8ff" points="446.25,-287.87 456.51,-290.5 450.13,-282.04 446.25,-287.87"/>
</a>
</g>
</g>
<!-- Node16 -->
<g id="Node000016" class="node">
<title>Node16</title>
<g id="a_Node000016"><a xlink:href="PhysicsTests_8cpp.html#aaf9917cd74087c265f26822275a0cf9a" target="_top" xlink:title=" ">
<polygon fill="white" stroke="#666666" points="316,-204 275,-204 275,-185 316,-185 316,-204"/>
<text text-anchor="middle" x="295.5" y="-192" font-family="Helvetica,sans-Serif" font-size="10.00">TEST</text>
</a>
</g>
</g>
<!-- Node1&#45;&gt;Node16 -->
<g id="edge15_Node000001_Node000016" class="edge">
<title>Node1&#45;&gt;Node16</title>
<g id="a_edge15_Node000001_Node000016"><a xlink:title=" ">
<path fill="none" stroke="#63b8ff" d="M460.13,-282.26C442.77,-260.76 414.09,-229.61 382,-212.5 361.25,-201.44 334.29,-197.17 316.24,-195.53"/>
<polygon fill="#63b8ff" stroke="#63b8ff" points="457.49,-284.57 466.43,-290.26 462.99,-280.24 457.49,-284.57"/>
</a>
</g>
</g>
<!-- Node17 -->
<g id="Node000017" class="node">
<title>Node17</title>
<g id="a_Node000017"><a xlink:href="PhysicsTests_8cpp.html#a556d37407360d92575b9fde9164b643a" target="_top" xlink:title=" ">
<polygon fill="white" stroke="#666666" points="316,-167 275,-167 275,-148 316,-148 316,-167"/>
<text text-anchor="middle" x="295.5" y="-155" font-family="Helvetica,sans-Serif" font-size="10.00">TEST</text>
</a>
</g>
</g>
<!-- Node1&#45;&gt;Node17 -->
<g id="edge16_Node000001_Node000017" class="edge">
<title>Node1&#45;&gt;Node17</title>
<g id="a_edge16_Node000001_Node000017"><a xlink:title=" ">
<path fill="none" stroke="#63b8ff" d="M466.38,-280.91C451.55,-251.07 422.4,-201.53 382,-175.5 362.11,-162.68 334.71,-158.8 316.34,-157.73"/>
<polygon fill="#63b8ff" stroke="#63b8ff" points="463.36,-282.72 470.85,-290.22 469.67,-279.69 463.36,-282.72"/>
</a>
</g>
</g>
<!-- Node18 -->
<g id="Node000018" class="node">
<title>Node18</title>
<g id="a_Node000018"><a xlink:href="PhysicsTests_8cpp.html#a11092ab830efde715171fcf7ecf7a74c" target="_top" xlink:title=" ">
<polygon fill="white" stroke="#666666" points="316,-130 275,-130 275,-111 316,-111 316,-130"/>
<text text-anchor="middle" x="295.5" y="-118" font-family="Helvetica,sans-Serif" font-size="10.00">TEST</text>
</a>
</g>
</g>
<!-- Node1&#45;&gt;Node18 -->
<g id="edge17_Node000001_Node000018" class="edge">
<title>Node1&#45;&gt;Node18</title>
<g id="a_edge17_Node000001_Node000018"><a xlink:title=" ">
<path fill="none" stroke="#63b8ff" d="M470.41,-280.42C458.55,-243.27 431.02,-174.2 382,-138.5 362.75,-124.48 334.95,-120.89 316.33,-120.2"/>
<polygon fill="#63b8ff" stroke="#63b8ff" points="467.2,-281.88 473.47,-290.42 473.89,-279.83 467.2,-281.88"/>
</a>
</g>
</g>
<!-- Node19 -->
<g id="Node000019" class="node">
<title>Node19</title>
<g id="a_Node000019"><a xlink:href="PhysicsTests_8cpp.html#a42065a0a58764ccebb0d254d063654f0" target="_top" xlink:title=" ">
<polygon fill="white" stroke="#666666" points="316,-93 275,-93 275,-74 316,-74 316,-93"/>
<text text-anchor="middle" x="295.5" y="-81" font-family="Helvetica,sans-Serif" font-size="10.00">TEST</text>
</a>
</g>
</g>
<!-- Node1&#45;&gt;Node19 -->
<g id="edge18_Node000001_Node000019" class="edge">
<title>Node1&#45;&gt;Node19</title>
<g id="a_edge18_Node000001_Node000019"><a xlink:title=" ">
<path fill="none" stroke="#63b8ff" d="M473.2,-280.32C464.37,-236.71 439.92,-147.41 382,-101.5 363.22,-86.61 335.05,-83.25 316.24,-82.85"/>
<polygon fill="#63b8ff" stroke="#63b8ff" points="469.81,-281.2 475.12,-290.37 476.68,-279.89 469.81,-281.2"/>
</a>
</g>
</g>
<!-- Node20 -->
<g id="Node000020" class="node">
<title>Node20</title>
<g id="a_Node000020"><a xlink:href="PhysicsTests_8cpp.html#a23bf395ec0488453124b5076abfebd57" target="_top" xlink:title=" ">
<polygon fill="white" stroke="#666666" points="316,-56 275,-56 275,-37 316,-37 316,-56"/>
<text text-anchor="middle" x="295.5" y="-44" font-family="Helvetica,sans-Serif" font-size="10.00">TEST</text>
</a>
</g>
</g>
<!-- Node1&#45;&gt;Node20 -->
<g id="edge19_Node000001_Node000020" class="edge">
<title>Node1&#45;&gt;Node20</title>
<g id="a_edge19_Node000001_Node000020"><a xlink:title=" ">
<path fill="none" stroke="#63b8ff" d="M475.18,-280.08C469.24,-230.51 448.86,-120.87 382,-64.5 363.56,-48.95 335.04,-45.77 316.08,-45.6"/>
<polygon fill="#63b8ff" stroke="#63b8ff" points="471.73,-280.68 476.3,-290.24 478.69,-279.92 471.73,-280.68"/>
</a>
</g>
</g>
<!-- Node21 -->
<g id="Node000021" class="node">
<title>Node21</title>
<g id="a_Node000021"><a xlink:href="PhysicsTests_8cpp.html#a0c08826252388d8a395a642f81cb5962" target="_top" xlink:title=" ">
<polygon fill="white" stroke="#666666" points="316,-19 275,-19 275,0 316,0 316,-19"/>
<text text-anchor="middle" x="295.5" y="-7" font-family="Helvetica,sans-Serif" font-size="10.00">TEST</text>
</a>
</g>
</g>
<!-- Node1&#45;&gt;Node21 -->
<g id="edge20_Node000001_Node000021" class="edge">
<title>Node1&#45;&gt;Node21</title>
<g id="a_edge20_Node000001_Node000021"><a xlink:title=" ">
<path fill="none" stroke="#63b8ff" d="M476.71,-280.13C473.57,-225.17 458.03,-94.68 382,-27.5 363.93,-11.53 335.32,-8.45 316.24,-8.42"/>
<polygon fill="#63b8ff" stroke="#63b8ff" points="473.23,-280.55 477.2,-290.37 480.22,-280.21 473.23,-280.55"/>
</a>
</g>
</g>
<!-- Node5 -->
<g id="Node000005" class="node">
<title>Node5</title>
<g id="a_Node000005"><a xlink:href="classPhysics_1_1PointMass.html#a255dc33b6adda680f6451125f51873be" target="_top" xlink:title=" ">
<polygon fill="white" stroke="#666666" points="152.5,-582.5 20.5,-582.5 20.5,-552.5 152.5,-552.5 152.5,-582.5"/>
<text text-anchor="start" x="28.5" y="-570.5" font-family="Helvetica,sans-Serif" font-size="10.00">Physics::PointMass</text>
<text text-anchor="middle" x="86.5" y="-559.5" font-family="Helvetica,sans-Serif" font-size="10.00">::collidesWithRigidBody</text>
</a>
</g>
</g>
<!-- Node4&#45;&gt;Node5 -->
<g id="edge4_Node000004_Node000005" class="edge">
<title>Node4&#45;&gt;Node5</title>
<g id="a_edge4_Node000004_Node000005"><a xlink:title=" ">
<path fill="none" stroke="#63b8ff" d="M218.6,-567.5C197,-567.5 173.67,-567.5 152.75,-567.5"/>
<polygon fill="#63b8ff" stroke="#63b8ff" points="218.72,-571 228.72,-567.5 218.72,-564 218.72,-571"/>
</a>
</g>
</g>
<!-- Node10 -->
<g id="Node000010" class="node">
<title>Node10</title>
<g id="a_Node000010"><a xlink:href="classPhysics_1_1PointMass.html#a6876155fbb7a943c6d2e06f4c6707959" target="_top" xlink:title=" ">
<polygon fill="white" stroke="#666666" points="173,-432.5 0,-432.5 0,-402.5 173,-402.5 173,-432.5"/>
<text text-anchor="start" x="8" y="-420.5" font-family="Helvetica,sans-Serif" font-size="10.00">Physics::PointMass</text>
<text text-anchor="middle" x="86.5" y="-409.5" font-family="Helvetica,sans-Serif" font-size="10.00">::resolveCollisionWithRigidBody</text>
</a>
</g>
</g>
<!-- Node9&#45;&gt;Node10 -->
<g id="edge9_Node000009_Node000010" class="edge">
<title>Node9&#45;&gt;Node10</title>
<g id="a_edge9_Node000009_Node000010"><a xlink:title=" ">
<path fill="none" stroke="#63b8ff" d="M198.8,-406.21C190.24,-407.08 181.6,-407.95 173.12,-408.81"/>
<polygon fill="#63b8ff" stroke="#63b8ff" points="199.22,-409.68 208.81,-405.19 198.51,-402.72 199.22,-409.68"/>
</a>
</g>
</g>
<!-- Node11 -->
<g id="Node000011" class="node">
<title>Node11</title>
<g id="a_Node000011"><a xlink:href="PhysicsTests_8cpp.html#aae14e19948f282c097b0e8761991c0e1" target="_top" xlink:title=" ">
<polygon fill="white" stroke="#666666" points="107,-384 66,-384 66,-365 107,-365 107,-384"/>
<text text-anchor="middle" x="86.5" y="-372" font-family="Helvetica,sans-Serif" font-size="10.00">TEST</text>
</a>
</g>
</g>
<!-- Node9&#45;&gt;Node11 -->
<g id="edge10_Node000009_Node000011" class="edge">
<title>Node9&#45;&gt;Node11</title>
<g id="a_edge10_Node000009_Node000011"><a xlink:title=" ">
<path fill="none" stroke="#63b8ff" d="M198.68,-386.32C164.29,-382.66 128.76,-378.89 107.4,-376.62"/>
<polygon fill="#63b8ff" stroke="#63b8ff" points="198.5,-389.82 208.81,-387.39 199.24,-382.86 198.5,-389.82"/>
</a>
</g>
</g>
</g>
</svg>

<g id="navigator" transform="translate(0 0)" fill="#404254">
  <rect fill="#f2f5e9" fill-opacity="0.5" stroke="#606060" stroke-width=".5" x="0" y="0" width="60" height="60"/>
  <use id="zoomplus" xlink:href="#zoomPlus" x="17" y="9" onmousedown="handleZoom(evt,'in')"/>
  <use id="zoomminus" xlink:href="#zoomMin" x="42" y="9" onmousedown="handleZoom(evt,'out')"/>
  <use id="reset" xlink:href="#resetDef" x="30" y="36" onmousedown="handleReset()"/>
   <use id="arrowup" xlink:href="#arrowUp" x="0" y="0" onmousedown="handlePan(0,-1)"/>
  <use id="arrowright" xlink:href="#arrowRight" x="0" y="0" onmousedown="handlePan(1,0)"/>
  <use id="arrowdown" xlink:href="#arrowDown" x="0" y="0" onmousedown="handlePan(0,1)"/>
  <use id="arrowleft" xlink:href="#arrowLeft" x="0" y="0" onmousedown="handlePan(-1,0)"/>
</g>
<svg viewBox="0 0 15 15" width="100%" height="30px" preserveAspectRatio="xMaxYMin meet">
 <g id="arrow_out" transform="scale(0.3 0.3)">
  <a xlink:href="classPhysics_1_1PhysicsBody_ac4112265c85a99f20fb69008db8e8754_icgraph_org.svg" target="_base">
   <rect id="button" ry="5" rx="5" y="6" x="6" height="38" width="38"
        fill="#f2f5e9" fill-opacity="0.5" stroke="#606060" stroke-width="1.0"/>
   <path id="arrow"
     d="M 11.500037,31.436501 C 11.940474,20.09759 22.043105,11.32322 32.158766,21.979434 L 37.068811,17.246167 C 37.068811,17.246167 37.088388,32 37.088388,32 L 22.160133,31.978069 C 22.160133,31.978069 26.997745,27.140456 26.997745,27.140456 C 18.528582,18.264221 13.291696,25.230495 11.500037,31.436501 z"
     style="fill:#404040;"/>
  </a>
 </g>
</svg>

<style type='text/css'>
<![CDATA[
[data-mouse-over-selected='false'] { opacity: 0.7; }
[data-mouse-over-selected='true']  { opacity: 1.0; }
]]>
</style>
<script type="application/ecmascript"><![CDATA[
document.addEventListener('DOMContentLoaded', (event) => {
  highlightEdges();
  highlightAdjacentNodes();
});
]]></script>
</svg>
