<?xml version="1.0" encoding="UTF-8" standalone="no"?>
<!DOCTYPE svg PUBLIC "-//W3C//DTD SVG 1.1//EN"
 "http://www.w3.org/Graphics/SVG/1.1/DTD/svg11.dtd">
<!-- Generated by graphviz version 2.43.0 (0)
 -->
<!-- Title: Scene::getCamera Pages: 1 -->
<!--zoomable 493 -->

<svg id="main" version="1.1" xmlns="http://www.w3.org/2000/svg" xmlns:xlink="http://www.w3.org/1999/xlink" xml:space="preserve" onload="init(evt)">
<style type="text/css"><![CDATA[
.node, .edge {opacity: 0.7;}
.node.selected, .edge.selected {opacity: 1;}
.edge:hover path { stroke: red; }
.edge:hover polygon { stroke: red; fill: red; }
]]></style>

<defs>
  <circle id="rim" cx="0" cy="0" r="7"/>
  <circle id="rim2" cx="0" cy="0" r="3.5"/>
  <g id="zoomPlus">
    <use xlink:href="#rim" fill="#404040"><set attributeName="fill" to="#808080" begin="zoomplus.mouseover" end="zoomplus.mouseout"/></use>
    <path d="M-4,0h8M0,-4v8" fill="none" stroke="white" stroke-width="1.5" pointer-events="none"/>
  </g>
  <g id="zoomMin">
    <use xlink:href="#rim" fill="#404040"><set attributeName="fill" to="#808080" begin="zoomminus.mouseover" end="zoomminus.mouseout"/></use>
    <path d="M-4,0h8" fill="none" stroke="white" stroke-width="1.5" pointer-events="none"/>
  </g>
  <g id="arrowUp" transform="translate(30 24)">
    <use xlink:href="#rim"/>
    <path pointer-events="none" fill="none" stroke="white" stroke-width="1.5" d="M0,-3.0v7 M-2.5,-0.5L0,-3.0L2.5,-0.5"/>
  </g>
  <g id="arrowRight" transform="rotate(90) translate(36 -43)">
    <use xlink:href="#rim"/>
    <path pointer-events="none" fill="none" stroke="white" stroke-width="1.5" d="M0,-3.0v7 M-2.5,-0.5L0,-3.0L2.5,-0.5"/>
  </g>
  <g id="arrowDown" transform="rotate(180) translate(-30 -48)">
    <use xlink:href="#rim"/>
    <path pointer-events="none" fill="none" stroke="white" stroke-width="1.5" d="M0,-3.0v7 M-2.5,-0.5L0,-3.0L2.5,-0.5"/>
  </g>
  <g id="arrowLeft" transform="rotate(270) translate(-36 17)">
    <use xlink:href="#rim"/>
    <path pointer-events="none" fill="none" stroke="white" stroke-width="1.5" d="M0,-3.0v7 M-2.5,-0.5L0,-3.0L2.5,-0.5"/>
  </g>
  <g id="resetDef">
    <use xlink:href="#rim2" fill="#404040"><set attributeName="fill" to="#808080" begin="reset.mouseover" end="reset.mouseout"/></use>
  </g>
</defs>
<script type="application/ecmascript">
var viewWidth = 1707;
var viewHeight = 493;
var sectionId = 'dynsection-4';
</script>
<script type="application/ecmascript" xlink:href="svg.min.js"/>
<svg id="graph" class="graph">
<g id="viewport">
<title>Scene::getCamera</title>
<!-- Node1 -->
<g id="Node000001" class="node">
<title>Node1</title>
<g id="a_Node000001"><a xlink:title=" ">
<polygon fill="#999999" stroke="#666666" points="1699,-268.5 1593,-268.5 1593,-249.5 1699,-249.5 1699,-268.5"/>
<text text-anchor="middle" x="1646" y="-256.5" font-family="Helvetica,sans-Serif" font-size="10.00">Scene::getCamera</text>
</a>
</g>
</g>
<!-- Node2 -->
<g id="Node000002" class="node">
<title>Node2</title>
<g id="a_Node000002"><a xlink:href="classSceneManager.html#ad143244bc503acbe2371b662ea0dcd0c" target="_top" xlink:title=" ">
<polygon fill="white" stroke="#666666" points="1541.5,-412 1384.5,-412 1384.5,-382 1541.5,-382 1541.5,-412"/>
<text text-anchor="start" x="1392.5" y="-400" font-family="Helvetica,sans-Serif" font-size="10.00">SceneManager::clearCamera</text>
<text text-anchor="middle" x="1463" y="-389" font-family="Helvetica,sans-Serif" font-size="10.00">Target</text>
</a>
</g>
</g>
<!-- Node1&#45;&gt;Node2 -->
<g id="edge1_Node000001_Node000002" class="edge">
<title>Node1&#45;&gt;Node2</title>
<g id="a_edge1_Node000001_Node000002"><a xlink:title=" ">
<path fill="none" stroke="#63b8ff" d="M1635.69,-277.72C1622.01,-303.24 1594.04,-348.58 1557,-373 1551.85,-376.4 1546.24,-379.31 1540.43,-381.82"/>
<polygon fill="#63b8ff" stroke="#63b8ff" points="1638.87,-279.18 1640.37,-268.69 1632.66,-275.96 1638.87,-279.18"/>
</a>
</g>
</g>
<!-- Node5 -->
<g id="Node000005" class="node">
<title>Node5</title>
<g id="a_Node000005"><a xlink:href="classSceneManager.html#a8774b3322c2d86c6f1f2e0a8a9896af1" target="_top" xlink:title=" ">
<polygon fill="white" stroke="#666666" points="916,-394.5 767,-394.5 767,-375.5 916,-375.5 916,-394.5"/>
<text text-anchor="middle" x="841.5" y="-382.5" font-family="Helvetica,sans-Serif" font-size="10.00">SceneManager::resetScene</text>
</a>
</g>
</g>
<!-- Node1&#45;&gt;Node5 -->
<g id="edge24_Node000001_Node000005" class="edge">
<title>Node1&#45;&gt;Node5</title>
<g id="a_edge24_Node000001_Node000005"><a xlink:title=" ">
<path fill="none" stroke="#63b8ff" d="M1641.06,-278.82C1632.74,-314.72 1609.62,-389.7 1557,-421 1320.82,-561.48 959.19,-432.25 865.37,-394.58"/>
<polygon fill="#63b8ff" stroke="#63b8ff" points="1644.57,-279.15 1643.26,-268.64 1637.73,-277.67 1644.57,-279.15"/>
</a>
</g>
</g>
<!-- Node7 -->
<g id="Node000007" class="node">
<title>Node7</title>
<g id="a_Node000007"><a xlink:href="classSceneSerializer.html#a490f2bd87e7c9459ee47be974653b433" target="_top" xlink:title=" ">
<polygon fill="white" stroke="#666666" points="731,-249.5 567,-249.5 567,-230.5 731,-230.5 731,-249.5"/>
<text text-anchor="middle" x="649" y="-237.5" font-family="Helvetica,sans-Serif" font-size="10.00">SceneSerializer::loadFromJson</text>
</a>
</g>
</g>
<!-- Node1&#45;&gt;Node7 -->
<g id="edge22_Node000001_Node000007" class="edge">
<title>Node1&#45;&gt;Node7</title>
<g id="a_edge22_Node000001_Node000007"><a xlink:title=" ">
<path fill="none" stroke="#63b8ff" d="M1582.7,-254.16C1504.73,-248.53 1367.07,-240 1249,-240 1249,-240 1249,-240 1038.5,-240 932.27,-240 809.7,-240 731.11,-240"/>
<polygon fill="#63b8ff" stroke="#63b8ff" points="1582.6,-257.66 1592.83,-254.9 1583.11,-250.68 1582.6,-257.66"/>
</a>
</g>
</g>
<!-- Node9 -->
<g id="Node000009" class="node">
<title>Node9</title>
<g id="a_Node000009"><a xlink:href="classSceneManager.html#a59f13c06bf3f19d5e543502a0ddd0467" target="_top" xlink:title=" ">
<polygon fill="white" stroke="#666666" points="350,-287.5 172,-287.5 172,-268.5 350,-268.5 350,-287.5"/>
<text text-anchor="middle" x="261" y="-275.5" font-family="Helvetica,sans-Serif" font-size="10.00">SceneManager::processHeldKeys</text>
</a>
</g>
</g>
<!-- Node1&#45;&gt;Node9 -->
<g id="edge23_Node000001_Node000009" class="edge">
<title>Node1&#45;&gt;Node9</title>
<g id="a_edge23_Node000001_Node000009"><a xlink:title=" ">
<path fill="none" stroke="#63b8ff" d="M1601.45,-271.1C1587.35,-274.69 1571.59,-278.36 1557,-281 1421.43,-305.54 1386.77,-316 1249,-316 1249,-316 1249,-316 648,-316 532.01,-316 397.35,-298.8 321.66,-287.54"/>
<polygon fill="#63b8ff" stroke="#63b8ff" points="1602.58,-274.42 1611.38,-268.51 1600.82,-267.64 1602.58,-274.42"/>
</a>
</g>
</g>
<!-- Node12 -->
<g id="Node000012" class="node">
<title>Node12</title>
<g id="a_Node000012"><a xlink:href="classSceneManager.html#a2c5088464b489b31f23e0791e2b9c0b0" target="_top" xlink:title=" ">
<polygon fill="white" stroke="#666666" points="1539,-159.5 1387,-159.5 1387,-140.5 1539,-140.5 1539,-159.5"/>
<text text-anchor="middle" x="1463" y="-147.5" font-family="Helvetica,sans-Serif" font-size="10.00">SceneManager::focusObject</text>
</a>
</g>
</g>
<!-- Node1&#45;&gt;Node12 -->
<g id="edge11_Node000001_Node000012" class="edge">
<title>Node1&#45;&gt;Node12</title>
<g id="a_edge11_Node000001_Node000012"><a xlink:title=" ">
<path fill="none" stroke="#63b8ff" d="M1628.81,-242.05C1612.13,-225.39 1584.71,-200.17 1557,-184 1538.88,-173.43 1516.91,-165.21 1498.88,-159.51"/>
<polygon fill="#63b8ff" stroke="#63b8ff" points="1626.59,-244.78 1636.09,-249.46 1631.58,-239.88 1626.59,-244.78"/>
</a>
</g>
</g>
<!-- Node14 -->
<g id="Node000014" class="node">
<title>Node14</title>
<g id="a_Node000014"><a xlink:href="classSceneManager.html#a30fc32723c50bf9707a44ac398e5ecb9" target="_top" xlink:title=" ">
<polygon fill="white" stroke="#666666" points="1552.5,-363.5 1373.5,-363.5 1373.5,-344.5 1552.5,-344.5 1552.5,-363.5"/>
<text text-anchor="middle" x="1463" y="-351.5" font-family="Helvetica,sans-Serif" font-size="10.00">SceneManager::getCameraTarget</text>
</a>
</g>
</g>
<!-- Node1&#45;&gt;Node14 -->
<g id="edge13_Node000001_Node000014" class="edge">
<title>Node1&#45;&gt;Node14</title>
<g id="a_edge13_Node000001_Node000014"><a xlink:title=" ">
<path fill="none" stroke="#63b8ff" d="M1628.41,-276.09C1611.78,-292.25 1584.73,-316.06 1557,-330 1544.63,-336.22 1530.51,-340.92 1517.07,-344.45"/>
<polygon fill="#63b8ff" stroke="#63b8ff" points="1631.07,-278.37 1635.69,-268.84 1626.13,-273.41 1631.07,-278.37"/>
</a>
</g>
</g>
<!-- Node15 -->
<g id="Node000015" class="node">
<title>Node15</title>
<g id="a_Node000015"><a xlink:href="classSceneSerializer.html#a56e278bcdda1f03f192797122dd6d0c0" target="_top" xlink:title=" ">
<polygon fill="white" stroke="#666666" points="1324,-287.5 1172,-287.5 1172,-268.5 1324,-268.5 1324,-287.5"/>
<text text-anchor="middle" x="1248" y="-275.5" font-family="Helvetica,sans-Serif" font-size="10.00">SceneSerializer::saveToJson</text>
</a>
</g>
</g>
<!-- Node1&#45;&gt;Node15 -->
<g id="edge25_Node000001_Node000015" class="edge">
<title>Node1&#45;&gt;Node15</title>
<g id="a_edge25_Node000001_Node000015"><a xlink:title=" ">
<path fill="none" stroke="#63b8ff" d="M1582.83,-261.98C1512.88,-265.34 1399.26,-270.79 1324.33,-274.39"/>
<polygon fill="#63b8ff" stroke="#63b8ff" points="1583,-265.48 1592.82,-261.5 1582.67,-258.49 1583,-265.48"/>
</a>
</g>
</g>
<!-- Node17 -->
<g id="Node000017" class="node">
<title>Node17</title>
<g id="a_Node000017"><a xlink:href="classSceneManager.html#ac517c77baec7191a36898308818ebb5f" target="_top" xlink:title=" ">
<polygon fill="white" stroke="#666666" points="1543,-93 1383,-93 1383,-63 1543,-63 1543,-93"/>
<text text-anchor="start" x="1391" y="-81" font-family="Helvetica,sans-Serif" font-size="10.00">SceneManager::handleMouse</text>
<text text-anchor="middle" x="1463" y="-70" font-family="Helvetica,sans-Serif" font-size="10.00">Button</text>
</a>
</g>
</g>
<!-- Node1&#45;&gt;Node17 -->
<g id="edge18_Node000001_Node000017" class="edge">
<title>Node1&#45;&gt;Node17</title>
<g id="a_edge18_Node000001_Node000017"><a xlink:title=" ">
<path fill="none" stroke="#63b8ff" d="M1635.51,-240.33C1621.29,-213.75 1592.3,-164.59 1557,-132 1539.58,-115.92 1516.55,-102.5 1497.77,-93.06"/>
<polygon fill="#63b8ff" stroke="#63b8ff" points="1632.48,-242.1 1640.22,-249.34 1638.68,-238.85 1632.48,-242.1"/>
</a>
</g>
</g>
<!-- Node20 -->
<g id="Node000020" class="node">
<title>Node20</title>
<g id="a_Node000020"><a xlink:href="classSceneManager.html#a77aa3589238abfa1c416fda908520bf7" target="_top" xlink:title=" ">
<polygon fill="white" stroke="#666666" points="1557,-44.5 1369,-44.5 1369,-25.5 1557,-25.5 1557,-44.5"/>
<text text-anchor="middle" x="1463" y="-32.5" font-family="Helvetica,sans-Serif" font-size="10.00">SceneManager::isCameraFollowing</text>
</a>
</g>
</g>
<!-- Node1&#45;&gt;Node20 -->
<g id="edge21_Node000001_Node000020" class="edge">
<title>Node1&#45;&gt;Node20</title>
<g id="a_edge21_Node000001_Node000020"><a xlink:title=" ">
<path fill="none" stroke="#63b8ff" d="M1642.6,-239.31C1636.47,-198.03 1616.3,-102.29 1557,-54 1552.4,-50.25 1547.25,-47.19 1541.81,-44.68"/>
<polygon fill="#63b8ff" stroke="#63b8ff" points="1639.16,-239.98 1643.98,-249.42 1646.1,-239.04 1639.16,-239.98"/>
</a>
</g>
</g>
<!-- Node21 -->
<g id="Node000021" class="node">
<title>Node21</title>
<g id="a_Node000021"><a xlink:href="classSceneManager.html#ab469d1eea307d05b27433cb74231b4eb" target="_top" xlink:title=" ">
<polygon fill="white" stroke="#666666" points="1552,-211.5 1374,-211.5 1374,-192.5 1552,-192.5 1552,-211.5"/>
<text text-anchor="middle" x="1463" y="-199.5" font-family="Helvetica,sans-Serif" font-size="10.00">SceneManager::setCameraTarget</text>
</a>
</g>
</g>
<!-- Node1&#45;&gt;Node21 -->
<g id="edge26_Node000001_Node000021" class="edge">
<title>Node1&#45;&gt;Node21</title>
<g id="a_edge26_Node000001_Node000021"><a xlink:title=" ">
<path fill="none" stroke="#63b8ff" d="M1612.04,-245.69C1595.64,-239.31 1575.43,-231.81 1557,-226 1540.14,-220.68 1521.3,-215.65 1505.01,-211.58"/>
<polygon fill="#63b8ff" stroke="#63b8ff" points="1611.12,-249.09 1621.71,-249.49 1613.68,-242.57 1611.12,-249.09"/>
</a>
</g>
</g>
<!-- Node3 -->
<g id="Node000003" class="node">
<title>Node3</title>
<g id="a_Node000003"><a xlink:href="classSceneManager.html#a4543114007c5bb40ddab62cd9f2ac613" target="_top" xlink:title=" ">
<polygon fill="white" stroke="#666666" points="1326.5,-394.5 1169.5,-394.5 1169.5,-375.5 1326.5,-375.5 1326.5,-394.5"/>
<text text-anchor="middle" x="1248" y="-382.5" font-family="Helvetica,sans-Serif" font-size="10.00">SceneManager::deleteObject</text>
</a>
</g>
</g>
<!-- Node2&#45;&gt;Node3 -->
<g id="edge2_Node000002_Node000003" class="edge">
<title>Node2&#45;&gt;Node3</title>
<g id="a_edge2_Node000002_Node000003"><a xlink:title=" ">
<path fill="none" stroke="#63b8ff" d="M1374.26,-392.06C1358.52,-391.17 1342.23,-390.25 1326.8,-389.38"/>
<polygon fill="#63b8ff" stroke="#63b8ff" points="1374.32,-395.57 1384.5,-392.63 1374.71,-388.58 1374.32,-395.57"/>
</a>
</g>
</g>
<!-- Node4 -->
<g id="Node000004" class="node">
<title>Node4</title>
<g id="a_Node000004"><a xlink:href="classSceneManager.html#a53736fa499987ffff612d3ee7c85442c" target="_top" xlink:title=" ">
<polygon fill="white" stroke="#666666" points="1127,-394.5 952,-394.5 952,-375.5 1127,-375.5 1127,-394.5"/>
<text text-anchor="middle" x="1039.5" y="-382.5" font-family="Helvetica,sans-Serif" font-size="10.00">SceneManager::deleteAllObjects</text>
</a>
</g>
</g>
<!-- Node3&#45;&gt;Node4 -->
<g id="edge3_Node000003_Node000004" class="edge">
<title>Node3&#45;&gt;Node4</title>
<g id="a_edge3_Node000003_Node000004"><a xlink:title=" ">
<path fill="none" stroke="#63b8ff" d="M1159.16,-385C1148.57,-385 1137.77,-385 1127.2,-385"/>
<polygon fill="#63b8ff" stroke="#63b8ff" points="1159.23,-388.5 1169.23,-385 1159.23,-381.5 1159.23,-388.5"/>
</a>
</g>
</g>
<!-- Node4&#45;&gt;Node5 -->
<g id="edge4_Node000004_Node000005" class="edge">
<title>Node4&#45;&gt;Node5</title>
<g id="a_edge4_Node000004_Node000005"><a xlink:title=" ">
<path fill="none" stroke="#63b8ff" d="M941.8,-385C933.12,-385 924.43,-385 916,-385"/>
<polygon fill="#63b8ff" stroke="#63b8ff" points="941.96,-388.5 951.96,-385 941.96,-381.5 941.96,-388.5"/>
</a>
</g>
</g>
<!-- Node6 -->
<g id="Node000006" class="node">
<title>Node6</title>
<g id="a_Node000006"><a xlink:href="classSceneManager.html#acfea563d3849e3c8c09fc3febe9ae1e2" target="_top" xlink:title=" ">
<polygon fill="white" stroke="#666666" points="727.5,-412.5 570.5,-412.5 570.5,-393.5 727.5,-393.5 727.5,-412.5"/>
<text text-anchor="middle" x="649" y="-400.5" font-family="Helvetica,sans-Serif" font-size="10.00">SceneManager::defaultSetup</text>
</a>
</g>
</g>
<!-- Node5&#45;&gt;Node6 -->
<g id="edge5_Node000005_Node000006" class="edge">
<title>Node5&#45;&gt;Node6</title>
<g id="a_edge5_Node000005_Node000006"><a xlink:title=" ">
<path fill="none" stroke="#63b8ff" d="M756.79,-392.91C747.07,-393.83 737.19,-394.76 727.56,-395.67"/>
<polygon fill="#63b8ff" stroke="#63b8ff" points="757.22,-396.38 766.85,-391.96 756.56,-389.42 757.22,-396.38"/>
</a>
</g>
</g>
<!-- Node5&#45;&gt;Node7 -->
<g id="edge6_Node000005_Node000007" class="edge">
<title>Node5&#45;&gt;Node7</title>
<g id="a_edge6_Node000005_Node000007"><a xlink:title=" ">
<path fill="none" stroke="#63b8ff" d="M819.87,-369.3C780.37,-339.23 695.13,-274.35 662.8,-249.74"/>
<polygon fill="#63b8ff" stroke="#63b8ff" points="817.92,-372.21 828,-375.49 822.16,-366.64 817.92,-372.21"/>
</a>
</g>
</g>
<!-- Node11 -->
<g id="Node000011" class="node">
<title>Node11</title>
<g id="a_Node000011"><a xlink:href="classSceneManager.html#ad9d648b5fb5a92c4612c640fc7cb47fb" target="_top" xlink:title=" ">
<polygon fill="white" stroke="#666666" points="722,-375.5 576,-375.5 576,-356.5 722,-356.5 722,-375.5"/>
<text text-anchor="middle" x="649" y="-363.5" font-family="Helvetica,sans-Serif" font-size="10.00">SceneManager::loadPreset</text>
</a>
</g>
</g>
<!-- Node5&#45;&gt;Node11 -->
<g id="edge10_Node000005_Node000011" class="edge">
<title>Node5&#45;&gt;Node11</title>
<g id="a_edge10_Node000005_Node000011"><a xlink:title=" ">
<path fill="none" stroke="#63b8ff" d="M756.79,-376.65C745.26,-375.5 733.5,-374.33 722.2,-373.2"/>
<polygon fill="#63b8ff" stroke="#63b8ff" points="756.55,-380.14 766.85,-377.65 757.24,-373.18 756.55,-380.14"/>
</a>
</g>
</g>
<!-- Node8 -->
<g id="Node000008" class="node">
<title>Node8</title>
<g id="a_Node000008"><a xlink:href="classSceneManager.html#a7b7b0a022dcce523178e8414fb8e4463" target="_top" xlink:title=" ">
<polygon fill="white" stroke="#666666" points="531,-249.5 386,-249.5 386,-230.5 531,-230.5 531,-249.5"/>
<text text-anchor="middle" x="458.5" y="-237.5" font-family="Helvetica,sans-Serif" font-size="10.00">SceneManager::loadScene</text>
</a>
</g>
</g>
<!-- Node7&#45;&gt;Node8 -->
<g id="edge7_Node000007_Node000008" class="edge">
<title>Node7&#45;&gt;Node8</title>
<g id="a_edge7_Node000007_Node000008"><a xlink:title=" ">
<path fill="none" stroke="#63b8ff" d="M556.9,-240C548.29,-240 539.65,-240 531.26,-240"/>
<polygon fill="#63b8ff" stroke="#63b8ff" points="556.97,-243.5 566.97,-240 556.97,-236.5 556.97,-243.5"/>
</a>
</g>
</g>
<!-- Node8&#45;&gt;Node9 -->
<g id="edge8_Node000008_Node000009" class="edge">
<title>Node8&#45;&gt;Node9</title>
<g id="a_edge8_Node000008_Node000009"><a xlink:title=" ">
<path fill="none" stroke="#63b8ff" d="M398.39,-251.49C370.5,-256.91 337.6,-263.31 311.1,-268.46"/>
<polygon fill="#63b8ff" stroke="#63b8ff" points="399.27,-254.88 408.42,-249.54 397.94,-248.01 399.27,-254.88"/>
</a>
</g>
</g>
<!-- Node10 -->
<g id="Node000010" class="node">
<title>Node10</title>
<g id="a_Node000010"><a xlink:href="classOpenGLWindow.html#aea9ee69010d8451ab00cd488a8c6717d" target="_top" xlink:title=" ">
<polygon fill="white" stroke="#666666" points="136,-287.5 0,-287.5 0,-268.5 136,-268.5 136,-287.5"/>
<text text-anchor="middle" x="68" y="-275.5" font-family="Helvetica,sans-Serif" font-size="10.00">OpenGLWindow::paintGL</text>
</a>
</g>
</g>
<!-- Node9&#45;&gt;Node10 -->
<g id="edge9_Node000009_Node000010" class="edge">
<title>Node9&#45;&gt;Node10</title>
<g id="a_edge9_Node000009_Node000010"><a xlink:title=" ">
<path fill="none" stroke="#63b8ff" d="M161.6,-278C152.94,-278 144.32,-278 136,-278"/>
<polygon fill="#63b8ff" stroke="#63b8ff" points="161.77,-281.5 171.77,-278 161.77,-274.5 161.77,-281.5"/>
</a>
</g>
</g>
<!-- Node13 -->
<g id="Node000013" class="node">
<title>Node13</title>
<g id="a_Node000013"><a xlink:href="namespaceScenePresets_1_1Astronomy.html#a0b0e571c83bcdb2d16710b9425375b5f" target="_top" xlink:title=" ">
<polygon fill="white" stroke="#666666" points="1318.5,-126 1177.5,-126 1177.5,-96 1318.5,-96 1318.5,-126"/>
<text text-anchor="start" x="1185.5" y="-114" font-family="Helvetica,sans-Serif" font-size="10.00">ScenePresets::Astronomy</text>
<text text-anchor="middle" x="1248" y="-103" font-family="Helvetica,sans-Serif" font-size="10.00">::createRealSolarSystem</text>
</a>
</g>
</g>
<!-- Node12&#45;&gt;Node13 -->
<g id="edge12_Node000012_Node000013" class="edge">
<title>Node12&#45;&gt;Node13</title>
<g id="a_edge12_Node000012_Node000013"><a xlink:title=" ">
<path fill="none" stroke="#63b8ff" d="M1399.98,-138.65C1374.51,-133.98 1344.89,-128.56 1318.66,-123.76"/>
<polygon fill="#63b8ff" stroke="#63b8ff" points="1399.43,-142.1 1409.89,-140.46 1400.69,-135.22 1399.43,-142.1"/>
</a>
</g>
</g>
<!-- Node14&#45;&gt;Node3 -->
<g id="edge14_Node000014_Node000003" class="edge">
<title>Node14&#45;&gt;Node3</title>
<g id="a_edge14_Node000014_Node000003"><a xlink:title=" ">
<path fill="none" stroke="#63b8ff" d="M1386.71,-364.96C1363.18,-368.38 1337.41,-372.13 1314.6,-375.45"/>
<polygon fill="#63b8ff" stroke="#63b8ff" points="1387.25,-368.42 1396.65,-363.51 1386.25,-361.49 1387.25,-368.42"/>
</a>
</g>
</g>
<!-- Node14&#45;&gt;Node15 -->
<g id="edge15_Node000014_Node000015" class="edge">
<title>Node14&#45;&gt;Node15</title>
<g id="a_edge15_Node000014_Node000015"><a xlink:title=" ">
<path fill="none" stroke="#63b8ff" d="M1425.6,-341.01C1383.05,-325.83 1313.65,-301.07 1275.76,-287.55"/>
<polygon fill="#63b8ff" stroke="#63b8ff" points="1424.43,-344.31 1435.02,-344.37 1426.78,-337.72 1424.43,-344.31"/>
</a>
</g>
</g>
<!-- Node16 -->
<g id="Node000016" class="node">
<title>Node16</title>
<g id="a_Node000016"><a xlink:href="classSceneManager.html#a1a46a8c9e99b6b27404a2f870f38749c" target="_top" xlink:title=" ">
<polygon fill="white" stroke="#666666" points="915,-287.5 768,-287.5 768,-268.5 915,-268.5 915,-287.5"/>
<text text-anchor="middle" x="841.5" y="-275.5" font-family="Helvetica,sans-Serif" font-size="10.00">SceneManager::saveScene</text>
</a>
</g>
</g>
<!-- Node15&#45;&gt;Node16 -->
<g id="edge16_Node000015_Node000016" class="edge">
<title>Node15&#45;&gt;Node16</title>
<g id="a_edge16_Node000015_Node000016"><a xlink:title=" ">
<path fill="none" stroke="#63b8ff" d="M1161.76,-278C1088.64,-278 984.43,-278 915.19,-278"/>
<polygon fill="#63b8ff" stroke="#63b8ff" points="1161.86,-281.5 1171.86,-278 1161.86,-274.5 1161.86,-281.5"/>
</a>
</g>
</g>
<!-- Node16&#45;&gt;Node9 -->
<g id="edge17_Node000016_Node000009" class="edge">
<title>Node16&#45;&gt;Node9</title>
<g id="a_edge17_Node000016_Node000009"><a xlink:title=" ">
<path fill="none" stroke="#63b8ff" d="M757.61,-278C649.53,-278 461.23,-278 350.46,-278"/>
<polygon fill="#63b8ff" stroke="#63b8ff" points="757.82,-281.5 767.82,-278 757.82,-274.5 757.82,-281.5"/>
</a>
</g>
</g>
<!-- Node18 -->
<g id="Node000018" class="node">
<title>Node18</title>
<g id="a_Node000018"><a xlink:href="classOpenGLWindow.html#a3db5152769ffded2ba4de8b6563c205a" target="_top" xlink:title=" ">
<polygon fill="white" stroke="#666666" points="1327,-78 1169,-78 1169,-48 1327,-48 1327,-78"/>
<text text-anchor="start" x="1177" y="-66" font-family="Helvetica,sans-Serif" font-size="10.00">OpenGLWindow::mousePress</text>
<text text-anchor="middle" x="1248" y="-55" font-family="Helvetica,sans-Serif" font-size="10.00">Event</text>
</a>
</g>
</g>
<!-- Node17&#45;&gt;Node18 -->
<g id="edge19_Node000017_Node000018" class="edge">
<title>Node17&#45;&gt;Node18</title>
<g id="a_edge19_Node000017_Node000018"><a xlink:title=" ">
<path fill="none" stroke="#63b8ff" d="M1372.63,-71.71C1357.53,-70.64 1341.96,-69.55 1327.17,-68.51"/>
<polygon fill="#63b8ff" stroke="#63b8ff" points="1372.77,-75.22 1382.99,-72.44 1373.26,-68.24 1372.77,-75.22"/>
</a>
</g>
</g>
<!-- Node19 -->
<g id="Node000019" class="node">
<title>Node19</title>
<g id="a_Node000019"><a xlink:href="classOpenGLWindow.html#a2a95d17daeae3447ca23d4e99c913b73" target="_top" xlink:title=" ">
<polygon fill="white" stroke="#666666" points="1333,-30 1163,-30 1163,0 1333,0 1333,-30"/>
<text text-anchor="start" x="1171" y="-18" font-family="Helvetica,sans-Serif" font-size="10.00">OpenGLWindow::mouseRelease</text>
<text text-anchor="middle" x="1248" y="-7" font-family="Helvetica,sans-Serif" font-size="10.00">Event</text>
</a>
</g>
</g>
<!-- Node17&#45;&gt;Node19 -->
<g id="edge20_Node000017_Node000019" class="edge">
<title>Node17&#45;&gt;Node19</title>
<g id="a_edge20_Node000017_Node000019"><a xlink:title=" ">
<path fill="none" stroke="#63b8ff" d="M1388.76,-60.15C1382.04,-58.2 1375.37,-56.14 1369,-54 1352.57,-48.49 1349.36,-44.72 1333,-39 1324.12,-35.89 1314.62,-32.89 1305.31,-30.11"/>
<polygon fill="#63b8ff" stroke="#63b8ff" points="1388.04,-63.58 1398.61,-62.93 1389.94,-56.85 1388.04,-63.58"/>
</a>
</g>
</g>
<!-- Node21&#45;&gt;Node7 -->
<g id="edge27_Node000021_Node000007" class="edge">
<title>Node21&#45;&gt;Node7</title>
<g id="a_edge27_Node000021_Node000007"><a xlink:title=" ">
<path fill="none" stroke="#63b8ff" d="M1363.52,-202.78C1228.71,-204.45 979.2,-209.67 767,-226 752.21,-227.14 736.42,-228.75 721.37,-230.49"/>
<polygon fill="#63b8ff" stroke="#63b8ff" points="1363.87,-206.28 1373.82,-202.66 1363.78,-199.28 1363.87,-206.28"/>
</a>
</g>
</g>
<!-- Node22 -->
<g id="Node000022" class="node">
<title>Node22</title>
<g id="a_Node000022"><a xlink:href="classGlobalsInspectorWidget.html#ac983b68fcff61ff889660f3d93221072" target="_top" xlink:title=" ">
<polygon fill="white" stroke="#666666" points="1314.5,-174 1181.5,-174 1181.5,-144 1314.5,-144 1314.5,-174"/>
<text text-anchor="start" x="1189.5" y="-162" font-family="Helvetica,sans-Serif" font-size="10.00">GlobalsInspectorWidget</text>
<text text-anchor="middle" x="1248" y="-151" font-family="Helvetica,sans-Serif" font-size="10.00">::runSolver</text>
</a>
</g>
</g>
<!-- Node21&#45;&gt;Node22 -->
<g id="edge28_Node000021_Node000022" class="edge">
<title>Node21&#45;&gt;Node22</title>
<g id="a_edge28_Node000021_Node000022"><a xlink:title=" ">
<path fill="none" stroke="#63b8ff" d="M1404.78,-190.45C1377.02,-184.84 1343.52,-178.08 1314.72,-172.27"/>
<polygon fill="#63b8ff" stroke="#63b8ff" points="1404.23,-193.91 1414.73,-192.46 1405.62,-187.05 1404.23,-193.91"/>
</a>
</g>
</g>
</g>
</svg>

<g id="navigator" transform="translate(0 0)" fill="#404254">
  <rect fill="#f2f5e9" fill-opacity="0.5" stroke="#606060" stroke-width=".5" x="0" y="0" width="60" height="60"/>
  <use id="zoomplus" xlink:href="#zoomPlus" x="17" y="9" onmousedown="handleZoom(evt,'in')"/>
  <use id="zoomminus" xlink:href="#zoomMin" x="42" y="9" onmousedown="handleZoom(evt,'out')"/>
  <use id="reset" xlink:href="#resetDef" x="30" y="36" onmousedown="handleReset()"/>
   <use id="arrowup" xlink:href="#arrowUp" x="0" y="0" onmousedown="handlePan(0,-1)"/>
  <use id="arrowright" xlink:href="#arrowRight" x="0" y="0" onmousedown="handlePan(1,0)"/>
  <use id="arrowdown" xlink:href="#arrowDown" x="0" y="0" onmousedown="handlePan(0,1)"/>
  <use id="arrowleft" xlink:href="#arrowLeft" x="0" y="0" onmousedown="handlePan(-1,0)"/>
</g>
<svg viewBox="0 0 15 15" width="100%" height="30px" preserveAspectRatio="xMaxYMin meet">
 <g id="arrow_out" transform="scale(0.3 0.3)">
  <a xlink:href="classScene_a8ec1e638529f69f716e791ba3ac4d2f7_icgraph_org.svg" target="_base">
   <rect id="button" ry="5" rx="5" y="6" x="6" height="38" width="38"
        fill="#f2f5e9" fill-opacity="0.5" stroke="#606060" stroke-width="1.0"/>
   <path id="arrow"
     d="M 11.500037,31.436501 C 11.940474,20.09759 22.043105,11.32322 32.158766,21.979434 L 37.068811,17.246167 C 37.068811,17.246167 37.088388,32 37.088388,32 L 22.160133,31.978069 C 22.160133,31.978069 26.997745,27.140456 26.997745,27.140456 C 18.528582,18.264221 13.291696,25.230495 11.500037,31.436501 z"
     style="fill:#404040;"/>
  </a>
 </g>
</svg>

<style type='text/css'>
<![CDATA[
[data-mouse-over-selected='false'] { opacity: 0.7; }
[data-mouse-over-selected='true']  { opacity: 1.0; }
]]>
</style>
<script type="application/ecmascript"><![CDATA[
document.addEventListener('DOMContentLoaded', (event) => {
  highlightEdges();
  highlightAdjacentNodes();
});
]]></script>
</svg>
