<?xml version="1.0" encoding="UTF-8" standalone="no"?>
<!DOCTYPE svg PUBLIC "-//W3C//DTD SVG 1.1//EN"
 "http://www.w3.org/Graphics/SVG/1.1/DTD/svg11.dtd">
<!-- Generated by graphviz version 2.43.0 (0)
 -->
<!-- Title: Physics::PhysicsBody::getPosition Pages: 1 -->
<svg width="547pt" height="528pt"
 viewBox="0.00 0.00 547.00 528.00" xmlns="http://www.w3.org/2000/svg" xmlns:xlink="http://www.w3.org/1999/xlink">
<g id="graph0" class="graph" transform="scale(1 1) rotate(0) translate(4 524)">
<title>Physics::PhysicsBody::getPosition</title>
<!-- Node1 -->
<g id="Node000001" class="node">
<title>Node1</title>
<g id="a_Node000001"><a xlink:title=" ">
<polygon fill="#999999" stroke="#666666" points="539,-252.5 418,-252.5 418,-222.5 539,-222.5 539,-252.5"/>
<text text-anchor="start" x="426" y="-240.5" font-family="Helvetica,sans-Serif" font-size="10.00">Physics::PhysicsBody</text>
<text text-anchor="middle" x="478.5" y="-229.5" font-family="Helvetica,sans-Serif" font-size="10.00">::getPosition</text>
</a>
</g>
</g>
<!-- Node2 -->
<g id="Node000002" class="node">
<title>Node2</title>
<g id="a_Node000002"><a xlink:href="classOctree.html#a3ce4d26b06d82c7de15eaca20d537440" target="_top" xlink:title=" ">
<polygon fill="white" stroke="#666666" points="335,-520 256,-520 256,-501 335,-501 335,-520"/>
<text text-anchor="middle" x="295.5" y="-508" font-family="Helvetica,sans-Serif" font-size="10.00">Octree::build</text>
</a>
</g>
</g>
<!-- Node1&#45;&gt;Node2 -->
<g id="edge1_Node000001_Node000002" class="edge">
<title>Node1&#45;&gt;Node2</title>
<g id="a_edge1_Node000001_Node000002"><a xlink:title=" ">
<path fill="none" stroke="#63b8ff" d="M475.72,-262.76C470.69,-314.1 451.77,-430.93 382,-491.5 369.14,-502.66 351.17,-507.7 335.02,-509.83"/>
<polygon fill="#63b8ff" stroke="#63b8ff" points="479.23,-262.83 476.62,-252.56 472.25,-262.21 479.23,-262.83"/>
</a>
</g>
</g>
<!-- Node3 -->
<g id="Node000003" class="node">
<title>Node3</title>
<g id="a_Node000003"><a xlink:href="classPhysics_1_1PointMass.html#adb853a2e4fe9b535b6b080ee3a70e43b" target="_top" xlink:title=" ">
<polygon fill="white" stroke="#666666" points="362,-482.5 229,-482.5 229,-452.5 362,-452.5 362,-482.5"/>
<text text-anchor="start" x="237" y="-470.5" font-family="Helvetica,sans-Serif" font-size="10.00">Physics::PointMass</text>
<text text-anchor="middle" x="295.5" y="-459.5" font-family="Helvetica,sans-Serif" font-size="10.00">::collidesWithPointMass</text>
</a>
</g>
</g>
<!-- Node1&#45;&gt;Node3 -->
<g id="edge2_Node000001_Node000003" class="edge">
<title>Node1&#45;&gt;Node3</title>
<g id="a_edge2_Node000001_Node000003"><a xlink:title=" ">
<path fill="none" stroke="#63b8ff" d="M472.96,-262.53C463.75,-305.96 438.73,-395.21 382,-443.5 376.13,-448.5 369.29,-452.46 362.09,-455.6"/>
<polygon fill="#63b8ff" stroke="#63b8ff" points="476.43,-263.03 474.97,-252.53 469.56,-261.65 476.43,-263.03"/>
</a>
</g>
</g>
<!-- Node4 -->
<g id="Node000004" class="node">
<title>Node4</title>
<g id="a_Node000004"><a xlink:href="classPhysics_1_1RigidBody.html#a33bcd981d85932f3cdd4e3690a0c39c5" target="_top" xlink:title=" ">
<polygon fill="white" stroke="#666666" points="362,-434.5 229,-434.5 229,-404.5 362,-404.5 362,-434.5"/>
<text text-anchor="start" x="237" y="-422.5" font-family="Helvetica,sans-Serif" font-size="10.00">Physics::RigidBody</text>
<text text-anchor="middle" x="295.5" y="-411.5" font-family="Helvetica,sans-Serif" font-size="10.00">::collidesWithPointMass</text>
</a>
</g>
</g>
<!-- Node1&#45;&gt;Node4 -->
<g id="edge3_Node000001_Node000004" class="edge">
<title>Node1&#45;&gt;Node4</title>
<g id="a_edge3_Node000001_Node000004"><a xlink:title=" ">
<path fill="none" stroke="#63b8ff" d="M469.24,-262.18C456.25,-297.14 427.74,-360.7 382,-395.5 375.99,-400.07 369.14,-403.78 362.01,-406.77"/>
<polygon fill="#63b8ff" stroke="#63b8ff" points="472.55,-263.31 472.63,-252.72 465.96,-260.95 472.55,-263.31"/>
</a>
</g>
</g>
<!-- Node6 -->
<g id="Node000006" class="node">
<title>Node6</title>
<g id="a_Node000006"><a xlink:href="classOctree.html#a907f8c5112a8844426641f06cec637cd" target="_top" xlink:title=" ">
<polygon fill="white" stroke="#666666" points="357.5,-386 233.5,-386 233.5,-367 357.5,-367 357.5,-386"/>
<text text-anchor="middle" x="295.5" y="-374" font-family="Helvetica,sans-Serif" font-size="10.00">Octree::computeForce</text>
</a>
</g>
</g>
<!-- Node1&#45;&gt;Node6 -->
<g id="edge5_Node000001_Node000006" class="edge">
<title>Node1&#45;&gt;Node6</title>
<g id="a_edge5_Node000001_Node000006"><a xlink:title=" ">
<path fill="none" stroke="#63b8ff" d="M464.9,-261.8C449.27,-289.43 419.97,-333.77 382,-357.5 374.65,-362.09 366.33,-365.58 357.85,-368.23"/>
<polygon fill="#63b8ff" stroke="#63b8ff" points="468.1,-263.24 469.85,-252.79 461.97,-259.87 468.1,-263.24"/>
</a>
</g>
</g>
<!-- Node7 -->
<g id="Node000007" class="node">
<title>Node7</title>
<g id="a_Node000007"><a xlink:href="classPhysics_1_1PointMass.html#a32dbe49764fdd24798577d9db54baff3" target="_top" xlink:title=" ">
<polygon fill="white" stroke="#666666" points="382,-348.5 209,-348.5 209,-318.5 382,-318.5 382,-348.5"/>
<text text-anchor="start" x="217" y="-336.5" font-family="Helvetica,sans-Serif" font-size="10.00">Physics::PointMass</text>
<text text-anchor="middle" x="295.5" y="-325.5" font-family="Helvetica,sans-Serif" font-size="10.00">::resolveCollisionWithPointMass</text>
</a>
</g>
</g>
<!-- Node1&#45;&gt;Node7 -->
<g id="edge6_Node000001_Node000007" class="edge">
<title>Node1&#45;&gt;Node7</title>
<g id="a_edge6_Node000001_Node000007"><a xlink:title=" ">
<path fill="none" stroke="#63b8ff" d="M453.69,-259.47C435.32,-275.38 408.62,-296.31 382,-309.5 375.23,-312.85 367.92,-315.8 360.52,-318.38"/>
<polygon fill="#63b8ff" stroke="#63b8ff" points="456.34,-261.8 461.52,-252.56 451.7,-256.56 456.34,-261.8"/>
</a>
</g>
</g>
<!-- Node8 -->
<g id="Node000008" class="node">
<title>Node8</title>
<g id="a_Node000008"><a xlink:href="classPhysics_1_1RigidBody.html#ab4b4ea01aa74880550e9e1d91e6ed10d" target="_top" xlink:title=" ">
<polygon fill="white" stroke="#666666" points="382,-300.5 209,-300.5 209,-270.5 382,-270.5 382,-300.5"/>
<text text-anchor="start" x="217" y="-288.5" font-family="Helvetica,sans-Serif" font-size="10.00">Physics::RigidBody</text>
<text text-anchor="middle" x="295.5" y="-277.5" font-family="Helvetica,sans-Serif" font-size="10.00">::resolveCollisionWithPointMass</text>
</a>
</g>
</g>
<!-- Node1&#45;&gt;Node8 -->
<g id="edge7_Node000001_Node000008" class="edge">
<title>Node1&#45;&gt;Node8</title>
<g id="a_edge7_Node000001_Node000008"><a xlink:title=" ">
<path fill="none" stroke="#63b8ff" d="M410.95,-255.15C391.94,-260.19 371.42,-265.63 353.07,-270.5"/>
<polygon fill="#63b8ff" stroke="#63b8ff" points="411.96,-258.5 420.73,-252.56 410.16,-251.74 411.96,-258.5"/>
</a>
</g>
</g>
<!-- Node10 -->
<g id="Node000010" class="node">
<title>Node10</title>
<g id="a_Node000010"><a xlink:href="classGlobalsInspectorWidget.html#ac983b68fcff61ff889660f3d93221072" target="_top" xlink:title=" ">
<polygon fill="white" stroke="#666666" points="362,-252.5 229,-252.5 229,-222.5 362,-222.5 362,-252.5"/>
<text text-anchor="start" x="237" y="-240.5" font-family="Helvetica,sans-Serif" font-size="10.00">GlobalsInspectorWidget</text>
<text text-anchor="middle" x="295.5" y="-229.5" font-family="Helvetica,sans-Serif" font-size="10.00">::runSolver</text>
</a>
</g>
</g>
<!-- Node1&#45;&gt;Node10 -->
<g id="edge9_Node000001_Node000010" class="edge">
<title>Node1&#45;&gt;Node10</title>
<g id="a_edge9_Node000001_Node000010"><a xlink:title=" ">
<path fill="none" stroke="#63b8ff" d="M407.79,-237.5C392.84,-237.5 377.1,-237.5 362.3,-237.5"/>
<polygon fill="#63b8ff" stroke="#63b8ff" points="407.98,-241 417.98,-237.5 407.98,-234 407.98,-241"/>
</a>
</g>
</g>
<!-- Node11 -->
<g id="Node000011" class="node">
<title>Node11</title>
<g id="a_Node000011"><a xlink:href="PhysicsTests_8cpp.html#a370cb716ace9dbfe84f482760aea0d00" target="_top" xlink:title=" ">
<polygon fill="white" stroke="#666666" points="316,-204 275,-204 275,-185 316,-185 316,-204"/>
<text text-anchor="middle" x="295.5" y="-192" font-family="Helvetica,sans-Serif" font-size="10.00">TEST</text>
</a>
</g>
</g>
<!-- Node1&#45;&gt;Node11 -->
<g id="edge10_Node000001_Node000011" class="edge">
<title>Node1&#45;&gt;Node11</title>
<g id="a_edge10_Node000001_Node000011"><a xlink:title=" ">
<path fill="none" stroke="#63b8ff" d="M408.96,-220.03C399.9,-217.8 390.74,-215.57 382,-213.5 359.51,-208.18 333.58,-202.48 316.23,-198.72"/>
<polygon fill="#63b8ff" stroke="#63b8ff" points="408.17,-223.44 418.72,-222.46 409.86,-216.65 408.17,-223.44"/>
</a>
</g>
</g>
<!-- Node12 -->
<g id="Node000012" class="node">
<title>Node12</title>
<g id="a_Node000012"><a xlink:href="PhysicsTests_8cpp.html#a7c2a98ae0fe61e18c53dbbfc3dd2678d" target="_top" xlink:title=" ">
<polygon fill="white" stroke="#666666" points="316,-167 275,-167 275,-148 316,-148 316,-167"/>
<text text-anchor="middle" x="295.5" y="-155" font-family="Helvetica,sans-Serif" font-size="10.00">TEST</text>
</a>
</g>
</g>
<!-- Node1&#45;&gt;Node12 -->
<g id="edge11_Node000001_Node000012" class="edge">
<title>Node1&#45;&gt;Node12</title>
<g id="a_edge11_Node000001_Node000012"><a xlink:title=" ">
<path fill="none" stroke="#63b8ff" d="M450.51,-216.1C432.17,-202.56 406.81,-185.75 382,-175.5 360.41,-166.58 333.85,-161.88 316.12,-159.55"/>
<polygon fill="#63b8ff" stroke="#63b8ff" points="448.83,-219.22 458.92,-222.44 453.04,-213.63 448.83,-219.22"/>
</a>
</g>
</g>
<!-- Node13 -->
<g id="Node000013" class="node">
<title>Node13</title>
<g id="a_Node000013"><a xlink:href="PhysicsTests_8cpp.html#a6ef196198e91ed8297633a5002dd70e9" target="_top" xlink:title=" ">
<polygon fill="white" stroke="#666666" points="316,-130 275,-130 275,-111 316,-111 316,-130"/>
<text text-anchor="middle" x="295.5" y="-118" font-family="Helvetica,sans-Serif" font-size="10.00">TEST</text>
</a>
</g>
</g>
<!-- Node1&#45;&gt;Node13 -->
<g id="edge12_Node000001_Node000013" class="edge">
<title>Node1&#45;&gt;Node13</title>
<g id="a_edge12_Node000001_Node000013"><a xlink:title=" ">
<path fill="none" stroke="#63b8ff" d="M461.55,-214.19C444.56,-191.26 415.54,-157.06 382,-138.5 361.43,-127.12 334.42,-122.92 316.32,-121.38"/>
<polygon fill="#63b8ff" stroke="#63b8ff" points="458.76,-216.32 467.45,-222.38 464.44,-212.22 458.76,-216.32"/>
</a>
</g>
</g>
<!-- Node14 -->
<g id="Node000014" class="node">
<title>Node14</title>
<g id="a_Node000014"><a xlink:href="PhysicsTests_8cpp.html#aaf9917cd74087c265f26822275a0cf9a" target="_top" xlink:title=" ">
<polygon fill="white" stroke="#666666" points="316,-93 275,-93 275,-74 316,-74 316,-93"/>
<text text-anchor="middle" x="295.5" y="-81" font-family="Helvetica,sans-Serif" font-size="10.00">TEST</text>
</a>
</g>
</g>
<!-- Node1&#45;&gt;Node14 -->
<g id="edge13_Node000001_Node000014" class="edge">
<title>Node1&#45;&gt;Node14</title>
<g id="a_edge13_Node000001_Node000014"><a xlink:title=" ">
<path fill="none" stroke="#63b8ff" d="M467.32,-213.17C453.02,-182.13 423.94,-129.16 382,-101.5 362.12,-88.39 334.47,-84.59 316.05,-83.61"/>
<polygon fill="#63b8ff" stroke="#63b8ff" points="464.17,-214.71 471.44,-222.41 470.57,-211.86 464.17,-214.71"/>
</a>
</g>
</g>
<!-- Node15 -->
<g id="Node000015" class="node">
<title>Node15</title>
<g id="a_Node000015"><a xlink:href="PhysicsTests_8cpp.html#a556d37407360d92575b9fde9164b643a" target="_top" xlink:title=" ">
<polygon fill="white" stroke="#666666" points="316,-56 275,-56 275,-37 316,-37 316,-56"/>
<text text-anchor="middle" x="295.5" y="-44" font-family="Helvetica,sans-Serif" font-size="10.00">TEST</text>
</a>
</g>
</g>
<!-- Node1&#45;&gt;Node15 -->
<g id="edge14_Node000001_Node000015" class="edge">
<title>Node1&#45;&gt;Node15</title>
<g id="a_edge14_Node000001_Node000015"><a xlink:title=" ">
<path fill="none" stroke="#63b8ff" d="M470.99,-212.6C459.66,-174.41 432.55,-101.89 382,-64.5 362.73,-50.25 334.68,-46.73 316.03,-46.13"/>
<polygon fill="#63b8ff" stroke="#63b8ff" points="467.68,-213.74 473.78,-222.4 474.41,-211.82 467.68,-213.74"/>
</a>
</g>
</g>
<!-- Node16 -->
<g id="Node000016" class="node">
<title>Node16</title>
<g id="a_Node000016"><a xlink:href="PhysicsTests_8cpp.html#a11092ab830efde715171fcf7ecf7a74c" target="_top" xlink:title=" ">
<polygon fill="white" stroke="#666666" points="316,-19 275,-19 275,0 316,0 316,-19"/>
<text text-anchor="middle" x="295.5" y="-7" font-family="Helvetica,sans-Serif" font-size="10.00">TEST</text>
</a>
</g>
</g>
<!-- Node1&#45;&gt;Node16 -->
<g id="edge15_Node000001_Node000016" class="edge">
<title>Node1&#45;&gt;Node16</title>
<g id="a_edge15_Node000001_Node000016"><a xlink:title=" ">
<path fill="none" stroke="#63b8ff" d="M473.55,-212.21C465.18,-167.57 441.33,-75.06 382,-27.5 363.3,-12.51 335.11,-9.17 316.27,-8.8"/>
<polygon fill="#63b8ff" stroke="#63b8ff" points="470.13,-212.98 475.31,-222.22 477.02,-211.76 470.13,-212.98"/>
</a>
</g>
</g>
<!-- Node5 -->
<g id="Node000005" class="node">
<title>Node5</title>
<g id="a_Node000005"><a xlink:href="classPhysics_1_1PointMass.html#a255dc33b6adda680f6451125f51873be" target="_top" xlink:title=" ">
<polygon fill="white" stroke="#666666" points="152.5,-434.5 20.5,-434.5 20.5,-404.5 152.5,-404.5 152.5,-434.5"/>
<text text-anchor="start" x="28.5" y="-422.5" font-family="Helvetica,sans-Serif" font-size="10.00">Physics::PointMass</text>
<text text-anchor="middle" x="86.5" y="-411.5" font-family="Helvetica,sans-Serif" font-size="10.00">::collidesWithRigidBody</text>
</a>
</g>
</g>
<!-- Node4&#45;&gt;Node5 -->
<g id="edge4_Node000004_Node000005" class="edge">
<title>Node4&#45;&gt;Node5</title>
<g id="a_edge4_Node000004_Node000005"><a xlink:title=" ">
<path fill="none" stroke="#63b8ff" d="M218.6,-419.5C197,-419.5 173.67,-419.5 152.75,-419.5"/>
<polygon fill="#63b8ff" stroke="#63b8ff" points="218.72,-423 228.72,-419.5 218.72,-416 218.72,-423"/>
</a>
</g>
</g>
<!-- Node9 -->
<g id="Node000009" class="node">
<title>Node9</title>
<g id="a_Node000009"><a xlink:href="classPhysics_1_1PointMass.html#a2a9325bac8ed95540eeb66438de1045d" target="_top" xlink:title=" ">
<polygon fill="white" stroke="#666666" points="173,-300.5 0,-300.5 0,-270.5 173,-270.5 173,-300.5"/>
<text text-anchor="start" x="8" y="-288.5" font-family="Helvetica,sans-Serif" font-size="10.00">Physics::PointMass</text>
<text text-anchor="middle" x="86.5" y="-277.5" font-family="Helvetica,sans-Serif" font-size="10.00">::resolveCollisionWithRigidBody</text>
</a>
</g>
</g>
<!-- Node8&#45;&gt;Node9 -->
<g id="edge8_Node000008_Node000009" class="edge">
<title>Node8&#45;&gt;Node9</title>
<g id="a_edge8_Node000008_Node000009"><a xlink:title=" ">
<path fill="none" stroke="#63b8ff" d="M198.8,-285.5C190.24,-285.5 181.6,-285.5 173.12,-285.5"/>
<polygon fill="#63b8ff" stroke="#63b8ff" points="198.81,-289 208.81,-285.5 198.81,-282 198.81,-289"/>
</a>
</g>
</g>
</g>
</svg>
