<?xml version="1.0" encoding="UTF-8" standalone="no"?>
<!DOCTYPE svg PUBLIC "-//W3C//DTD SVG 1.1//EN"
 "http://www.w3.org/Graphics/SVG/1.1/DTD/svg11.dtd">
<!-- Generated by graphviz version 2.43.0 (0)
 -->
<!-- Title: SceneManager::removeDrawable Pages: 1 -->
<!--zoomable 372 -->

<svg id="main" version="1.1" xmlns="http://www.w3.org/2000/svg" xmlns:xlink="http://www.w3.org/1999/xlink" xml:space="preserve" onload="init(evt)">
<style type="text/css"><![CDATA[
.node, .edge {opacity: 0.7;}
.node.selected, .edge.selected {opacity: 1;}
.edge:hover path { stroke: red; }
.edge:hover polygon { stroke: red; fill: red; }
]]></style>

<defs>
  <circle id="rim" cx="0" cy="0" r="7"/>
  <circle id="rim2" cx="0" cy="0" r="3.5"/>
  <g id="zoomPlus">
    <use xlink:href="#rim" fill="#404040"><set attributeName="fill" to="#808080" begin="zoomplus.mouseover" end="zoomplus.mouseout"/></use>
    <path d="M-4,0h8M0,-4v8" fill="none" stroke="white" stroke-width="1.5" pointer-events="none"/>
  </g>
  <g id="zoomMin">
    <use xlink:href="#rim" fill="#404040"><set attributeName="fill" to="#808080" begin="zoomminus.mouseover" end="zoomminus.mouseout"/></use>
    <path d="M-4,0h8" fill="none" stroke="white" stroke-width="1.5" pointer-events="none"/>
  </g>
  <g id="arrowUp" transform="translate(30 24)">
    <use xlink:href="#rim"/>
    <path pointer-events="none" fill="none" stroke="white" stroke-width="1.5" d="M0,-3.0v7 M-2.5,-0.5L0,-3.0L2.5,-0.5"/>
  </g>
  <g id="arrowRight" transform="rotate(90) translate(36 -43)">
    <use xlink:href="#rim"/>
    <path pointer-events="none" fill="none" stroke="white" stroke-width="1.5" d="M0,-3.0v7 M-2.5,-0.5L0,-3.0L2.5,-0.5"/>
  </g>
  <g id="arrowDown" transform="rotate(180) translate(-30 -48)">
    <use xlink:href="#rim"/>
    <path pointer-events="none" fill="none" stroke="white" stroke-width="1.5" d="M0,-3.0v7 M-2.5,-0.5L0,-3.0L2.5,-0.5"/>
  </g>
  <g id="arrowLeft" transform="rotate(270) translate(-36 17)">
    <use xlink:href="#rim"/>
    <path pointer-events="none" fill="none" stroke="white" stroke-width="1.5" d="M0,-3.0v7 M-2.5,-0.5L0,-3.0L2.5,-0.5"/>
  </g>
  <g id="resetDef">
    <use xlink:href="#rim2" fill="#404040"><set attributeName="fill" to="#808080" begin="reset.mouseover" end="reset.mouseout"/></use>
  </g>
</defs>
<script type="application/ecmascript">
var viewWidth = 1769;
var viewHeight = 372;
var sectionId = 'dynsection-44';
</script>
<script type="application/ecmascript" xlink:href="svg.min.js"/>
<svg id="graph" class="graph">
<g id="viewport">
<title>SceneManager::removeDrawable</title>
<!-- Node1 -->
<g id="Node000001" class="node">
<title>Node1</title>
<g id="a_Node000001"><a xlink:title=" ">
<polygon fill="#999999" stroke="#666666" points="1761,-220 1582,-220 1582,-201 1761,-201 1761,-220"/>
<text text-anchor="middle" x="1671.5" y="-208" font-family="Helvetica,sans-Serif" font-size="10.00">SceneManager::removeDrawable</text>
</a>
</g>
</g>
<!-- Node2 -->
<g id="Node000002" class="node">
<title>Node2</title>
<g id="a_Node000002"><a xlink:href="classSceneManager.html#a99992b526976863d1dab7dc88cc6ec2a" target="_top" xlink:title=" ">
<polygon fill="white" stroke="#666666" points="1546,-225.5 1385,-225.5 1385,-195.5 1546,-195.5 1546,-225.5"/>
<text text-anchor="start" x="1393" y="-213.5" font-family="Helvetica,sans-Serif" font-size="10.00">SceneManager::deleteCurrent</text>
<text text-anchor="middle" x="1465.5" y="-202.5" font-family="Helvetica,sans-Serif" font-size="10.00">Gizmo</text>
</a>
</g>
</g>
<!-- Node1&#45;&gt;Node2 -->
<g id="edge1_Node000001_Node000002" class="edge">
<title>Node1&#45;&gt;Node2</title>
<g id="a_edge1_Node000001_Node000002"><a xlink:title=" ">
<path fill="none" stroke="#63b8ff" d="M1571.8,-210.5C1563.16,-210.5 1554.48,-210.5 1546.03,-210.5"/>
<polygon fill="#63b8ff" stroke="#63b8ff" points="1571.91,-214 1581.91,-210.5 1571.91,-207 1571.91,-214"/>
</a>
</g>
</g>
<!-- Node3 -->
<g id="Node000003" class="node">
<title>Node3</title>
<g id="a_Node000003"><a xlink:href="classSceneManager.html#a4543114007c5bb40ddab62cd9f2ac613" target="_top" xlink:title=" ">
<polygon fill="white" stroke="#666666" points="1349,-276 1192,-276 1192,-257 1349,-257 1349,-276"/>
<text text-anchor="middle" x="1270.5" y="-264" font-family="Helvetica,sans-Serif" font-size="10.00">SceneManager::deleteObject</text>
</a>
</g>
</g>
<!-- Node2&#45;&gt;Node3 -->
<g id="edge2_Node000002_Node000003" class="edge">
<title>Node2&#45;&gt;Node3</title>
<g id="a_edge2_Node000002_Node000003"><a xlink:title=" ">
<path fill="none" stroke="#63b8ff" d="M1402.84,-228.39C1370.1,-237.89 1331.18,-249.18 1304.24,-257"/>
<polygon fill="#63b8ff" stroke="#63b8ff" points="1404.15,-231.66 1412.78,-225.51 1402.2,-224.93 1404.15,-231.66"/>
</a>
</g>
</g>
<!-- Node12 -->
<g id="Node000012" class="node">
<title>Node12</title>
<g id="a_Node000012"><a xlink:href="classSceneManager.html#a490d6eddd6ef23ffd8f283582a2d7d88" target="_top" xlink:title=" ">
<polygon fill="white" stroke="#666666" points="1348.5,-96 1192.5,-96 1192.5,-77 1348.5,-77 1348.5,-96"/>
<text text-anchor="middle" x="1270.5" y="-84" font-family="Helvetica,sans-Serif" font-size="10.00">SceneManager::setGizmoFor</text>
</a>
</g>
</g>
<!-- Node2&#45;&gt;Node12 -->
<g id="edge11_Node000002_Node000012" class="edge">
<title>Node2&#45;&gt;Node12</title>
<g id="a_edge11_Node000002_Node000012"><a xlink:title=" ">
<path fill="none" stroke="#63b8ff" d="M1432.3,-189.81C1390.06,-162.67 1317.65,-116.15 1286.48,-96.13"/>
<polygon fill="#63b8ff" stroke="#63b8ff" points="1430.53,-192.83 1440.83,-195.3 1434.31,-186.95 1430.53,-192.83"/>
</a>
</g>
</g>
<!-- Node19 -->
<g id="Node000019" class="node">
<title>Node19</title>
<g id="a_Node000019"><a xlink:href="classSceneManager.html#af40d0ff3e76f89bbf5504f1694814179" target="_top" xlink:title=" ">
<polygon fill="white" stroke="#666666" points="1348,-220 1193,-220 1193,-201 1348,-201 1348,-220"/>
<text text-anchor="middle" x="1270.5" y="-208" font-family="Helvetica,sans-Serif" font-size="10.00">SceneManager::setSelectFor</text>
</a>
</g>
</g>
<!-- Node2&#45;&gt;Node19 -->
<g id="edge21_Node000002_Node000019" class="edge">
<title>Node2&#45;&gt;Node19</title>
<g id="a_edge21_Node000002_Node000019"><a xlink:title=" ">
<path fill="none" stroke="#63b8ff" d="M1374.85,-210.5C1365.92,-210.5 1356.92,-210.5 1348.14,-210.5"/>
<polygon fill="#63b8ff" stroke="#63b8ff" points="1374.89,-214 1384.89,-210.5 1374.89,-207 1374.89,-214"/>
</a>
</g>
</g>
<!-- Node4 -->
<g id="Node000004" class="node">
<title>Node4</title>
<g id="a_Node000004"><a xlink:href="classSceneManager.html#a53736fa499987ffff612d3ee7c85442c" target="_top" xlink:title=" ">
<polygon fill="white" stroke="#666666" points="1156,-286 981,-286 981,-267 1156,-267 1156,-286"/>
<text text-anchor="middle" x="1068.5" y="-274" font-family="Helvetica,sans-Serif" font-size="10.00">SceneManager::deleteAllObjects</text>
</a>
</g>
</g>
<!-- Node3&#45;&gt;Node4 -->
<g id="edge3_Node000003_Node000004" class="edge">
<title>Node3&#45;&gt;Node4</title>
<g id="a_edge3_Node000003_Node000004"><a xlink:title=" ">
<path fill="none" stroke="#63b8ff" d="M1181.89,-270.88C1173.31,-271.31 1164.6,-271.74 1156.03,-272.17"/>
<polygon fill="#63b8ff" stroke="#63b8ff" points="1182.08,-274.38 1191.89,-270.38 1181.73,-267.38 1182.08,-274.38"/>
</a>
</g>
</g>
<!-- Node5 -->
<g id="Node000005" class="node">
<title>Node5</title>
<g id="a_Node000005"><a xlink:href="classSceneManager.html#a8774b3322c2d86c6f1f2e0a8a9896af1" target="_top" xlink:title=" ">
<polygon fill="white" stroke="#666666" points="930.5,-248 781.5,-248 781.5,-229 930.5,-229 930.5,-248"/>
<text text-anchor="middle" x="856" y="-236" font-family="Helvetica,sans-Serif" font-size="10.00">SceneManager::resetScene</text>
</a>
</g>
</g>
<!-- Node4&#45;&gt;Node5 -->
<g id="edge4_Node000004_Node000005" class="edge">
<title>Node4&#45;&gt;Node5</title>
<g id="a_edge4_Node000004_Node000005"><a xlink:title=" ">
<path fill="none" stroke="#63b8ff" d="M1004.64,-265.15C974.44,-259.7 938.65,-253.24 909.87,-248.04"/>
<polygon fill="#63b8ff" stroke="#63b8ff" points="1004.19,-268.63 1014.65,-266.96 1005.43,-261.74 1004.19,-268.63"/>
</a>
</g>
</g>
<!-- Node6 -->
<g id="Node000006" class="node">
<title>Node6</title>
<g id="a_Node000006"><a xlink:href="classSceneManager.html#acfea563d3849e3c8c09fc3febe9ae1e2" target="_top" xlink:title=" ">
<polygon fill="white" stroke="#666666" points="727.5,-274 570.5,-274 570.5,-255 727.5,-255 727.5,-274"/>
<text text-anchor="middle" x="649" y="-262" font-family="Helvetica,sans-Serif" font-size="10.00">SceneManager::defaultSetup</text>
</a>
</g>
</g>
<!-- Node5&#45;&gt;Node6 -->
<g id="edge5_Node000005_Node000006" class="edge">
<title>Node5&#45;&gt;Node6</title>
<g id="a_edge5_Node000005_Node000006"><a xlink:title=" ">
<path fill="none" stroke="#63b8ff" d="M771.33,-249.11C756.03,-251.05 740.16,-253.06 725.13,-254.97"/>
<polygon fill="#63b8ff" stroke="#63b8ff" points="771.8,-252.58 781.28,-247.85 770.92,-245.64 771.8,-252.58"/>
</a>
</g>
</g>
<!-- Node7 -->
<g id="Node000007" class="node">
<title>Node7</title>
<g id="a_Node000007"><a xlink:href="classSceneSerializer.html#a490f2bd87e7c9459ee47be974653b433" target="_top" xlink:title=" ">
<polygon fill="white" stroke="#666666" points="731,-191 567,-191 567,-172 731,-172 731,-191"/>
<text text-anchor="middle" x="649" y="-179" font-family="Helvetica,sans-Serif" font-size="10.00">SceneSerializer::loadFromJson</text>
</a>
</g>
</g>
<!-- Node5&#45;&gt;Node7 -->
<g id="edge6_Node000005_Node000007" class="edge">
<title>Node5&#45;&gt;Node7</title>
<g id="a_edge6_Node000005_Node000007"><a xlink:title=" ">
<path fill="none" stroke="#63b8ff" d="M810.09,-226.33C796.26,-222.56 781,-218.38 767,-214.5 738.83,-206.69 706.9,-197.67 683.52,-191.04"/>
<polygon fill="#63b8ff" stroke="#63b8ff" points="809.3,-229.74 819.87,-228.99 811.14,-222.99 809.3,-229.74"/>
</a>
</g>
</g>
<!-- Node11 -->
<g id="Node000011" class="node">
<title>Node11</title>
<g id="a_Node000011"><a xlink:href="classSceneManager.html#ad9d648b5fb5a92c4612c640fc7cb47fb" target="_top" xlink:title=" ">
<polygon fill="white" stroke="#666666" points="722,-237 576,-237 576,-218 722,-218 722,-237"/>
<text text-anchor="middle" x="649" y="-225" font-family="Helvetica,sans-Serif" font-size="10.00">SceneManager::loadPreset</text>
</a>
</g>
</g>
<!-- Node5&#45;&gt;Node11 -->
<g id="edge10_Node000005_Node000011" class="edge">
<title>Node5&#45;&gt;Node11</title>
<g id="a_edge10_Node000005_Node000011"><a xlink:title=" ">
<path fill="none" stroke="#63b8ff" d="M771.22,-234C754.9,-233.13 737.93,-232.22 722.04,-231.37"/>
<polygon fill="#63b8ff" stroke="#63b8ff" points="771.11,-237.5 781.28,-234.54 771.48,-230.51 771.11,-237.5"/>
</a>
</g>
</g>
<!-- Node8 -->
<g id="Node000008" class="node">
<title>Node8</title>
<g id="a_Node000008"><a xlink:href="classSceneManager.html#a7b7b0a022dcce523178e8414fb8e4463" target="_top" xlink:title=" ">
<polygon fill="white" stroke="#666666" points="531,-143 386,-143 386,-124 531,-124 531,-143"/>
<text text-anchor="middle" x="458.5" y="-131" font-family="Helvetica,sans-Serif" font-size="10.00">SceneManager::loadScene</text>
</a>
</g>
</g>
<!-- Node7&#45;&gt;Node8 -->
<g id="edge7_Node000007_Node000008" class="edge">
<title>Node7&#45;&gt;Node8</title>
<g id="a_edge7_Node000007_Node000008"><a xlink:title=" ">
<path fill="none" stroke="#63b8ff" d="M596.32,-169.65C586.57,-167.33 576.46,-164.88 567,-162.5 542.45,-156.31 514.87,-148.86 493.8,-143.06"/>
<polygon fill="#63b8ff" stroke="#63b8ff" points="595.78,-173.11 606.31,-172 597.38,-166.3 595.78,-173.11"/>
</a>
</g>
</g>
<!-- Node9 -->
<g id="Node000009" class="node">
<title>Node9</title>
<g id="a_Node000009"><a xlink:href="classSceneManager.html#a59f13c06bf3f19d5e543502a0ddd0467" target="_top" xlink:title=" ">
<polygon fill="white" stroke="#666666" points="350,-76 172,-76 172,-57 350,-57 350,-76"/>
<text text-anchor="middle" x="261" y="-64" font-family="Helvetica,sans-Serif" font-size="10.00">SceneManager::processHeldKeys</text>
</a>
</g>
</g>
<!-- Node8&#45;&gt;Node9 -->
<g id="edge8_Node000008_Node000009" class="edge">
<title>Node8&#45;&gt;Node9</title>
<g id="a_edge8_Node000008_Node000009"><a xlink:title=" ">
<path fill="none" stroke="#63b8ff" d="M419.81,-120.58C381.81,-107.56 324.05,-87.77 289.96,-76.08"/>
<polygon fill="#63b8ff" stroke="#63b8ff" points="418.9,-123.97 429.49,-123.9 421.16,-117.35 418.9,-123.97"/>
</a>
</g>
</g>
<!-- Node10 -->
<g id="Node000010" class="node">
<title>Node10</title>
<g id="a_Node000010"><a xlink:href="classOpenGLWindow.html#aea9ee69010d8451ab00cd488a8c6717d" target="_top" xlink:title=" ">
<polygon fill="white" stroke="#666666" points="136,-76 0,-76 0,-57 136,-57 136,-76"/>
<text text-anchor="middle" x="68" y="-64" font-family="Helvetica,sans-Serif" font-size="10.00">OpenGLWindow::paintGL</text>
</a>
</g>
</g>
<!-- Node9&#45;&gt;Node10 -->
<g id="edge9_Node000009_Node000010" class="edge">
<title>Node9&#45;&gt;Node10</title>
<g id="a_edge9_Node000009_Node000010"><a xlink:title=" ">
<path fill="none" stroke="#63b8ff" d="M161.6,-66.5C152.94,-66.5 144.32,-66.5 136,-66.5"/>
<polygon fill="#63b8ff" stroke="#63b8ff" points="161.77,-70 171.77,-66.5 161.77,-63 161.77,-70"/>
</a>
</g>
</g>
<!-- Node12&#45;&gt;Node9 -->
<g id="edge13_Node000012_Node000009" class="edge">
<title>Node12&#45;&gt;Node9</title>
<g id="a_edge13_Node000012_Node000009"><a xlink:title=" ">
<path fill="none" stroke="#63b8ff" d="M1197.49,-75.54C1115.32,-64.01 976.81,-47.5 857,-47.5 857,-47.5 857,-47.5 648,-47.5 545.68,-47.5 428.29,-54.24 350.09,-59.69"/>
<polygon fill="#63b8ff" stroke="#63b8ff" points="1197.08,-79.02 1207.48,-76.96 1198.07,-72.09 1197.08,-79.02"/>
</a>
</g>
</g>
<!-- Node13 -->
<g id="Node000013" class="node">
<title>Node13</title>
<g id="a_Node000013"><a xlink:href="classSceneObject.html#a51694b249daac83a466e6acdb08c5554" target="_top" xlink:title="Handles a mouse click on this object.">
<polygon fill="white" stroke="#666666" points="1138.5,-19 998.5,-19 998.5,0 1138.5,0 1138.5,-19"/>
<text text-anchor="middle" x="1068.5" y="-7" font-family="Helvetica,sans-Serif" font-size="10.00">SceneObject::handleClick</text>
</a>
</g>
</g>
<!-- Node12&#45;&gt;Node13 -->
<g id="edge12_Node000012_Node000013" class="edge">
<title>Node12&#45;&gt;Node13</title>
<g id="a_edge12_Node000012_Node000013"><a xlink:title=" ">
<path fill="none" stroke="#63b8ff" d="M1242.41,-72.29C1219.75,-60.78 1186.35,-44.71 1156,-33.5 1140.94,-27.94 1124,-22.97 1109.12,-19.01"/>
<polygon fill="#63b8ff" stroke="#63b8ff" points="1240.93,-75.46 1251.42,-76.91 1244.12,-69.23 1240.93,-75.46"/>
</a>
</g>
</g>
<!-- Node14 -->
<g id="Node000014" class="node">
<title>Node14</title>
<g id="a_Node000014"><a xlink:href="classSceneManager.html#a63d3a08f13b314ed1d871f598f26534d" target="_top" xlink:title=" ">
<polygon fill="white" stroke="#666666" points="1146,-134 991,-134 991,-115 1146,-115 1146,-134"/>
<text text-anchor="middle" x="1068.5" y="-122" font-family="Helvetica,sans-Serif" font-size="10.00">SceneManager::selectObject</text>
</a>
</g>
</g>
<!-- Node12&#45;&gt;Node14 -->
<g id="edge14_Node000012_Node000014" class="edge">
<title>Node12&#45;&gt;Node14</title>
<g id="a_edge14_Node000012_Node000014"><a xlink:title=" ">
<path fill="none" stroke="#63b8ff" d="M1209.4,-97.92C1180.79,-103.36 1146.96,-109.78 1119.73,-114.96"/>
<polygon fill="#63b8ff" stroke="#63b8ff" points="1210.12,-101.35 1219.29,-96.04 1208.81,-94.47 1210.12,-101.35"/>
</a>
</g>
</g>
<!-- Node14&#45;&gt;Node7 -->
<g id="edge17_Node000014_Node000007" class="edge">
<title>Node14&#45;&gt;Node7</title>
<g id="a_edge17_Node000014_Node000007"><a xlink:title=" ">
<path fill="none" stroke="#63b8ff" d="M994.02,-135.47C977.88,-137.83 960.87,-140.29 945,-142.5 869.92,-152.98 783.98,-164.26 724.3,-171.98"/>
<polygon fill="#63b8ff" stroke="#63b8ff" points="994.56,-138.93 1003.95,-134.02 993.54,-132.01 994.56,-138.93"/>
</a>
</g>
</g>
<!-- Node15 -->
<g id="Node000015" class="node">
<title>Node15</title>
<g id="a_Node000015"><a xlink:href="classSceneManager.html#a2c5088464b489b31f23e0791e2b9c0b0" target="_top" xlink:title=" ">
<polygon fill="white" stroke="#666666" points="932,-97 780,-97 780,-78 932,-78 932,-97"/>
<text text-anchor="middle" x="856" y="-85" font-family="Helvetica,sans-Serif" font-size="10.00">SceneManager::focusObject</text>
</a>
</g>
</g>
<!-- Node14&#45;&gt;Node15 -->
<g id="edge15_Node000014_Node000015" class="edge">
<title>Node14&#45;&gt;Node15</title>
<g id="a_edge15_Node000014_Node000015"><a xlink:title=" ">
<path fill="none" stroke="#63b8ff" d="M1003.14,-113.19C973.79,-108.03 939.42,-101.99 911.39,-97.06"/>
<polygon fill="#63b8ff" stroke="#63b8ff" points="1002.84,-116.69 1013.29,-114.97 1004.05,-109.79 1002.84,-116.69"/>
</a>
</g>
</g>
<!-- Node17 -->
<g id="Node000017" class="node">
<title>Node17</title>
<g id="a_Node000017"><a xlink:href="classSceneManager.html#ab469d1eea307d05b27433cb74231b4eb" target="_top" xlink:title=" ">
<polygon fill="white" stroke="#666666" points="945,-134 767,-134 767,-115 945,-115 945,-134"/>
<text text-anchor="middle" x="856" y="-122" font-family="Helvetica,sans-Serif" font-size="10.00">SceneManager::setCameraTarget</text>
</a>
</g>
</g>
<!-- Node14&#45;&gt;Node17 -->
<g id="edge18_Node000014_Node000017" class="edge">
<title>Node14&#45;&gt;Node17</title>
<g id="a_edge18_Node000014_Node000017"><a xlink:title=" ">
<path fill="none" stroke="#63b8ff" d="M980.73,-124.5C969.04,-124.5 957.03,-124.5 945.32,-124.5"/>
<polygon fill="#63b8ff" stroke="#63b8ff" points="980.91,-128 990.91,-124.5 980.91,-121 980.91,-128"/>
</a>
</g>
</g>
<!-- Node16 -->
<g id="Node000016" class="node">
<title>Node16</title>
<g id="a_Node000016"><a xlink:href="namespaceScenePresets_1_1Astronomy.html#a0b0e571c83bcdb2d16710b9425375b5f" target="_top" xlink:title=" ">
<polygon fill="white" stroke="#666666" points="719.5,-105.5 578.5,-105.5 578.5,-75.5 719.5,-75.5 719.5,-105.5"/>
<text text-anchor="start" x="586.5" y="-93.5" font-family="Helvetica,sans-Serif" font-size="10.00">ScenePresets::Astronomy</text>
<text text-anchor="middle" x="649" y="-82.5" font-family="Helvetica,sans-Serif" font-size="10.00">::createRealSolarSystem</text>
</a>
</g>
</g>
<!-- Node15&#45;&gt;Node16 -->
<g id="edge16_Node000015_Node000016" class="edge">
<title>Node15&#45;&gt;Node16</title>
<g id="a_edge16_Node000015_Node000016"><a xlink:title=" ">
<path fill="none" stroke="#63b8ff" d="M769.58,-88.75C752.97,-88.99 735.75,-89.25 719.72,-89.48"/>
<polygon fill="#63b8ff" stroke="#63b8ff" points="769.88,-92.25 779.83,-88.6 769.78,-85.25 769.88,-92.25"/>
</a>
</g>
</g>
<!-- Node17&#45;&gt;Node7 -->
<g id="edge19_Node000017_Node000007" class="edge">
<title>Node17&#45;&gt;Node7</title>
<g id="a_edge19_Node000017_Node000007"><a xlink:title=" ">
<path fill="none" stroke="#63b8ff" d="M806.89,-136.64C793.87,-140.2 779.82,-144.27 767,-148.5 750.7,-153.88 747.4,-157.42 731,-162.5 719.69,-166.01 707.31,-169.22 695.71,-171.96"/>
<polygon fill="#63b8ff" stroke="#63b8ff" points="807.87,-140 816.62,-134.03 806.06,-133.24 807.87,-140"/>
</a>
</g>
</g>
<!-- Node18 -->
<g id="Node000018" class="node">
<title>Node18</title>
<g id="a_Node000018"><a xlink:href="classGlobalsInspectorWidget.html#ac983b68fcff61ff889660f3d93221072" target="_top" xlink:title=" ">
<polygon fill="white" stroke="#666666" points="715.5,-153.5 582.5,-153.5 582.5,-123.5 715.5,-123.5 715.5,-153.5"/>
<text text-anchor="start" x="590.5" y="-141.5" font-family="Helvetica,sans-Serif" font-size="10.00">GlobalsInspectorWidget</text>
<text text-anchor="middle" x="649" y="-130.5" font-family="Helvetica,sans-Serif" font-size="10.00">::runSolver</text>
</a>
</g>
</g>
<!-- Node17&#45;&gt;Node18 -->
<g id="edge20_Node000017_Node000018" class="edge">
<title>Node17&#45;&gt;Node18</title>
<g id="a_edge20_Node000017_Node000018"><a xlink:title=" ">
<path fill="none" stroke="#63b8ff" d="M756.78,-131.21C742.87,-132.16 728.85,-133.11 715.76,-134.01"/>
<polygon fill="#63b8ff" stroke="#63b8ff" points="757.13,-134.69 766.87,-130.52 756.66,-127.71 757.13,-134.69"/>
</a>
</g>
</g>
<!-- Node19&#45;&gt;Node5 -->
<g id="edge26_Node000019_Node000005" class="edge">
<title>Node19&#45;&gt;Node5</title>
<g id="a_edge26_Node000019_Node000005"><a xlink:title=" ">
<path fill="none" stroke="#63b8ff" d="M1182.56,-216.4C1107.87,-221.47 1001.38,-228.7 930.78,-233.49"/>
<polygon fill="#63b8ff" stroke="#63b8ff" points="1183.14,-219.87 1192.88,-215.7 1182.66,-212.89 1183.14,-219.87"/>
</a>
</g>
</g>
<!-- Node19&#45;&gt;Node7 -->
<g id="edge25_Node000019_Node000007" class="edge">
<title>Node19&#45;&gt;Node7</title>
<g id="a_edge25_Node000019_Node000007"><a xlink:title=" ">
<path fill="none" stroke="#63b8ff" d="M1182.68,-206.44C1062.81,-200.82 848.21,-190.78 731.32,-185.31"/>
<polygon fill="#63b8ff" stroke="#63b8ff" points="1182.76,-209.94 1192.92,-206.91 1183.09,-202.95 1182.76,-209.94"/>
</a>
</g>
</g>
<!-- Node19&#45;&gt;Node14 -->
<g id="edge27_Node000019_Node000014" class="edge">
<title>Node19&#45;&gt;Node14</title>
<g id="a_edge27_Node000019_Node000014"><a xlink:title=" ">
<path fill="none" stroke="#63b8ff" d="M1238.14,-197.02C1197.44,-179.51 1127.42,-149.41 1091.77,-134.07"/>
<polygon fill="#63b8ff" stroke="#63b8ff" points="1236.76,-200.23 1247.33,-200.97 1239.53,-193.8 1236.76,-200.23"/>
</a>
</g>
</g>
<!-- Node20 -->
<g id="Node000020" class="node">
<title>Node20</title>
<g id="a_Node000020"><a xlink:href="classSceneManager.html#ac517c77baec7191a36898308818ebb5f" target="_top" xlink:title=" ">
<polygon fill="white" stroke="#666666" points="1148.5,-334.5 988.5,-334.5 988.5,-304.5 1148.5,-304.5 1148.5,-334.5"/>
<text text-anchor="start" x="996.5" y="-322.5" font-family="Helvetica,sans-Serif" font-size="10.00">SceneManager::handleMouse</text>
<text text-anchor="middle" x="1068.5" y="-311.5" font-family="Helvetica,sans-Serif" font-size="10.00">Button</text>
</a>
</g>
</g>
<!-- Node19&#45;&gt;Node20 -->
<g id="edge22_Node000019_Node000020" class="edge">
<title>Node19&#45;&gt;Node20</title>
<g id="a_edge22_Node000019_Node000020"><a xlink:title=" ">
<path fill="none" stroke="#63b8ff" d="M1232.01,-224.13C1218.57,-230.07 1203.84,-237.9 1192,-247.5 1171.56,-264.07 1177.73,-279.66 1156,-294.5 1150.32,-298.38 1144.04,-301.66 1137.53,-304.44"/>
<polygon fill="#63b8ff" stroke="#63b8ff" points="1233.64,-227.24 1241.5,-220.13 1230.93,-220.79 1233.64,-227.24"/>
</a>
</g>
</g>
<!-- Node21 -->
<g id="Node000021" class="node">
<title>Node21</title>
<g id="a_Node000021"><a xlink:href="classOpenGLWindow.html#a3db5152769ffded2ba4de8b6563c205a" target="_top" xlink:title=" ">
<polygon fill="white" stroke="#666666" points="935,-363.5 777,-363.5 777,-333.5 935,-333.5 935,-363.5"/>
<text text-anchor="start" x="785" y="-351.5" font-family="Helvetica,sans-Serif" font-size="10.00">OpenGLWindow::mousePress</text>
<text text-anchor="middle" x="856" y="-340.5" font-family="Helvetica,sans-Serif" font-size="10.00">Event</text>
</a>
</g>
</g>
<!-- Node20&#45;&gt;Node21 -->
<g id="edge23_Node000020_Node000021" class="edge">
<title>Node20&#45;&gt;Node21</title>
<g id="a_edge23_Node000020_Node000021"><a xlink:title=" ">
<path fill="none" stroke="#63b8ff" d="M977.94,-331.84C963.72,-333.8 949.1,-335.81 935.16,-337.73"/>
<polygon fill="#63b8ff" stroke="#63b8ff" points="978.79,-335.25 988.22,-330.42 977.83,-328.32 978.79,-335.25"/>
</a>
</g>
</g>
<!-- Node22 -->
<g id="Node000022" class="node">
<title>Node22</title>
<g id="a_Node000022"><a xlink:href="classOpenGLWindow.html#a2a95d17daeae3447ca23d4e99c913b73" target="_top" xlink:title=" ">
<polygon fill="white" stroke="#666666" points="941,-315.5 771,-315.5 771,-285.5 941,-285.5 941,-315.5"/>
<text text-anchor="start" x="779" y="-303.5" font-family="Helvetica,sans-Serif" font-size="10.00">OpenGLWindow::mouseRelease</text>
<text text-anchor="middle" x="856" y="-292.5" font-family="Helvetica,sans-Serif" font-size="10.00">Event</text>
</a>
</g>
</g>
<!-- Node20&#45;&gt;Node22 -->
<g id="edge24_Node000020_Node000022" class="edge">
<title>Node20&#45;&gt;Node22</title>
<g id="a_edge24_Node000020_Node000022"><a xlink:title=" ">
<path fill="none" stroke="#63b8ff" d="M978.02,-311.42C965.79,-310.32 953.26,-309.19 941.13,-308.09"/>
<polygon fill="#63b8ff" stroke="#63b8ff" points="977.94,-314.93 988.22,-312.34 978.57,-307.96 977.94,-314.93"/>
</a>
</g>
</g>
</g>
</svg>

<g id="navigator" transform="translate(0 0)" fill="#404254">
  <rect fill="#f2f5e9" fill-opacity="0.5" stroke="#606060" stroke-width=".5" x="0" y="0" width="60" height="60"/>
  <use id="zoomplus" xlink:href="#zoomPlus" x="17" y="9" onmousedown="handleZoom(evt,'in')"/>
  <use id="zoomminus" xlink:href="#zoomMin" x="42" y="9" onmousedown="handleZoom(evt,'out')"/>
  <use id="reset" xlink:href="#resetDef" x="30" y="36" onmousedown="handleReset()"/>
   <use id="arrowup" xlink:href="#arrowUp" x="0" y="0" onmousedown="handlePan(0,-1)"/>
  <use id="arrowright" xlink:href="#arrowRight" x="0" y="0" onmousedown="handlePan(1,0)"/>
  <use id="arrowdown" xlink:href="#arrowDown" x="0" y="0" onmousedown="handlePan(0,1)"/>
  <use id="arrowleft" xlink:href="#arrowLeft" x="0" y="0" onmousedown="handlePan(-1,0)"/>
</g>
<svg viewBox="0 0 15 15" width="100%" height="30px" preserveAspectRatio="xMaxYMin meet">
 <g id="arrow_out" transform="scale(0.3 0.3)">
  <a xlink:href="classSceneManager_ab7c34393bb10361069b0ea73ec2797f8_icgraph_org.svg" target="_base">
   <rect id="button" ry="5" rx="5" y="6" x="6" height="38" width="38"
        fill="#f2f5e9" fill-opacity="0.5" stroke="#606060" stroke-width="1.0"/>
   <path id="arrow"
     d="M 11.500037,31.436501 C 11.940474,20.09759 22.043105,11.32322 32.158766,21.979434 L 37.068811,17.246167 C 37.068811,17.246167 37.088388,32 37.088388,32 L 22.160133,31.978069 C 22.160133,31.978069 26.997745,27.140456 26.997745,27.140456 C 18.528582,18.264221 13.291696,25.230495 11.500037,31.436501 z"
     style="fill:#404040;"/>
  </a>
 </g>
</svg>

<style type='text/css'>
<![CDATA[
[data-mouse-over-selected='false'] { opacity: 0.7; }
[data-mouse-over-selected='true']  { opacity: 1.0; }
]]>
</style>
<script type="application/ecmascript"><![CDATA[
document.addEventListener('DOMContentLoaded', (event) => {
  highlightEdges();
  highlightAdjacentNodes();
});
]]></script>
</svg>
