<?xml version="1.0" encoding="UTF-8" standalone="no"?>
<!DOCTYPE svg PUBLIC "-//W3C//DTD SVG 1.1//EN"
 "http://www.w3.org/Graphics/SVG/1.1/DTD/svg11.dtd">
<!-- Generated by graphviz version 2.43.0 (0)
 -->
<!-- Title: SceneObject::handleClick Pages: 1 -->
<svg width="924pt" height="88pt"
 viewBox="0.00 0.00 924.00 88.00" xmlns="http://www.w3.org/2000/svg" xmlns:xlink="http://www.w3.org/1999/xlink">
<g id="graph0" class="graph" transform="scale(1 1) rotate(0) translate(4 84)">
<title>SceneObject::handleClick</title>
<!-- Node1 -->
<g id="Node000001" class="node">
<title>Node1</title>
<g id="a_Node000001"><a xlink:title=" ">
<polygon fill="#999999" stroke="#666666" points="140,-40 0,-40 0,-21 140,-21 140,-40"/>
<text text-anchor="middle" x="70" y="-28" font-family="Helvetica,sans-Serif" font-size="10.00">SceneObject::handleClick</text>
</a>
</g>
</g>
<!-- Node2 -->
<g id="Node000002" class="node">
<title>Node2</title>
<g id="a_Node000002"><a xlink:href="classSceneManager.html#a490d6eddd6ef23ffd8f283582a2d7d88" target="_top" xlink:title=" ">
<polygon fill="white" stroke="#666666" points="332,-40 176,-40 176,-21 332,-21 332,-40"/>
<text text-anchor="middle" x="254" y="-28" font-family="Helvetica,sans-Serif" font-size="10.00">SceneManager::setGizmoFor</text>
</a>
</g>
</g>
<!-- Node1&#45;&gt;Node2 -->
<g id="edge1_Node000001_Node000002" class="edge">
<title>Node1&#45;&gt;Node2</title>
<g id="a_edge1_Node000001_Node000002"><a xlink:title=" ">
<path fill="none" stroke="#63b8ff" d="M140.07,-30.5C148.45,-30.5 157.1,-30.5 165.7,-30.5"/>
<polygon fill="#63b8ff" stroke="#63b8ff" points="165.76,-34 175.76,-30.5 165.76,-27 165.76,-34"/>
</a>
</g>
</g>
<!-- Node3 -->
<g id="Node000003" class="node">
<title>Node3</title>
<g id="a_Node000003"><a xlink:href="classSceneManager.html#a99992b526976863d1dab7dc88cc6ec2a" target="_top" xlink:title=" ">
<polygon fill="white" stroke="#666666" points="529,-67.5 368,-67.5 368,-37.5 529,-37.5 529,-67.5"/>
<text text-anchor="start" x="376" y="-55.5" font-family="Helvetica,sans-Serif" font-size="10.00">SceneManager::deleteCurrent</text>
<text text-anchor="middle" x="448.5" y="-44.5" font-family="Helvetica,sans-Serif" font-size="10.00">Gizmo</text>
</a>
</g>
</g>
<!-- Node2&#45;&gt;Node3 -->
<g id="edge2_Node000002_Node000003" class="edge">
<title>Node2&#45;&gt;Node3</title>
<g id="a_edge2_Node000002_Node000003"><a xlink:title=" ">
<path fill="none" stroke="#63b8ff" d="M332.19,-39.32C340.61,-40.28 349.23,-41.27 357.79,-42.25"/>
<polygon fill="#63b8ff" stroke="#63b8ff" points="357.45,-45.73 367.78,-43.39 358.24,-38.78 357.45,-45.73"/>
</a>
</g>
</g>
<!-- Node7 -->
<g id="Node000007" class="node">
<title>Node7</title>
<g id="a_Node000007"><a xlink:href="classResourceManager.html#a9b2c679ed1e80b8e4e4d318b3d8da426" target="_top" xlink:title=" ">
<polygon fill="white" stroke="#666666" points="524.5,-19 372.5,-19 372.5,0 524.5,0 524.5,-19"/>
<text text-anchor="middle" x="448.5" y="-7" font-family="Helvetica,sans-Serif" font-size="10.00">ResourceManager::getMesh</text>
</a>
</g>
</g>
<!-- Node2&#45;&gt;Node7 -->
<g id="edge6_Node000002_Node000007" class="edge">
<title>Node2&#45;&gt;Node7</title>
<g id="a_edge6_Node000002_Node000007"><a xlink:title=" ">
<path fill="none" stroke="#63b8ff" d="M332.19,-22.08C342.15,-20.99 352.4,-19.87 362.48,-18.78"/>
<polygon fill="#63b8ff" stroke="#63b8ff" points="362.93,-22.25 372.49,-17.68 362.17,-15.29 362.93,-22.25"/>
</a>
</g>
</g>
<!-- Node4 -->
<g id="Node000004" class="node">
<title>Node4</title>
<g id="a_Node000004"><a xlink:href="classSceneManager.html#ab7c34393bb10361069b0ea73ec2797f8" target="_top" xlink:title=" ">
<polygon fill="white" stroke="#666666" points="744,-80 565,-80 565,-61 744,-61 744,-80"/>
<text text-anchor="middle" x="654.5" y="-68" font-family="Helvetica,sans-Serif" font-size="10.00">SceneManager::removeDrawable</text>
</a>
</g>
</g>
<!-- Node3&#45;&gt;Node4 -->
<g id="edge3_Node000003_Node000004" class="edge">
<title>Node3&#45;&gt;Node4</title>
<g id="a_edge3_Node000003_Node000004"><a xlink:title=" ">
<path fill="none" stroke="#63b8ff" d="M529.25,-59.54C537.6,-60.27 546.16,-61.03 554.7,-61.78"/>
<polygon fill="#63b8ff" stroke="#63b8ff" points="554.42,-65.27 564.69,-62.66 555.03,-58.3 554.42,-65.27"/>
</a>
</g>
</g>
<!-- Node6 -->
<g id="Node000006" class="node">
<title>Node6</title>
<g id="a_Node000006"><a xlink:href="classSceneManager.html#a1c647e38474ee02d5dd8510bc2313c38" target="_top" xlink:title=" ">
<polygon fill="white" stroke="#666666" points="741,-43 568,-43 568,-24 741,-24 741,-43"/>
<text text-anchor="middle" x="654.5" y="-31" font-family="Helvetica,sans-Serif" font-size="10.00">SceneManager::removePickable</text>
</a>
</g>
</g>
<!-- Node3&#45;&gt;Node6 -->
<g id="edge5_Node000003_Node000006" class="edge">
<title>Node3&#45;&gt;Node6</title>
<g id="a_edge5_Node000003_Node000006"><a xlink:title=" ">
<path fill="none" stroke="#63b8ff" d="M529.25,-45.07C538.52,-44.21 548.05,-43.32 557.52,-42.44"/>
<polygon fill="#63b8ff" stroke="#63b8ff" points="558.11,-45.9 567.74,-41.49 557.46,-38.93 558.11,-45.9"/>
</a>
</g>
</g>
<!-- Node5 -->
<g id="Node000005" class="node">
<title>Node5</title>
<g id="a_Node000005"><a xlink:href="classScene.html#a63e2ea26e06305a24d92ed004809197b" target="_top" xlink:title=" ">
<polygon fill="white" stroke="#666666" points="916,-80 780,-80 780,-61 916,-61 916,-80"/>
<text text-anchor="middle" x="848" y="-68" font-family="Helvetica,sans-Serif" font-size="10.00">Scene::removeDrawable</text>
</a>
</g>
</g>
<!-- Node4&#45;&gt;Node5 -->
<g id="edge4_Node000004_Node000005" class="edge">
<title>Node4&#45;&gt;Node5</title>
<g id="a_edge4_Node000004_Node000005"><a xlink:title=" ">
<path fill="none" stroke="#63b8ff" d="M744.24,-70.5C752.73,-70.5 761.29,-70.5 769.65,-70.5"/>
<polygon fill="#63b8ff" stroke="#63b8ff" points="769.74,-74 779.74,-70.5 769.74,-67 769.74,-74"/>
</a>
</g>
</g>
</g>
</svg>
