<?xml version="1.0" encoding="UTF-8" standalone="no"?>
<!DOCTYPE svg PUBLIC "-//W3C//DTD SVG 1.1//EN"
 "http://www.w3.org/Graphics/SVG/1.1/DTD/svg11.dtd">
<!-- Generated by graphviz version 2.43.0 (0)
 -->
<!-- Title: SceneManager::setSelectFor Pages: 1 -->
<svg width="747pt" height="125pt"
 viewBox="0.00 0.00 747.00 125.00" xmlns="http://www.w3.org/2000/svg" xmlns:xlink="http://www.w3.org/1999/xlink">
<g id="graph0" class="graph" transform="scale(1 1) rotate(0) translate(4 121)">
<title>SceneManager::setSelectFor</title>
<!-- Node1 -->
<g id="Node000001" class="node">
<title>Node1</title>
<g id="a_Node000001"><a xlink:title=" ">
<polygon fill="#999999" stroke="#666666" points="155,-56 0,-56 0,-37 155,-37 155,-56"/>
<text text-anchor="middle" x="77.5" y="-44" font-family="Helvetica,sans-Serif" font-size="10.00">SceneManager::setSelectFor</text>
</a>
</g>
</g>
<!-- Node2 -->
<g id="Node000002" class="node">
<title>Node2</title>
<g id="a_Node000002"><a xlink:href="classSceneManager.html#a99992b526976863d1dab7dc88cc6ec2a" target="_top" xlink:title=" ">
<polygon fill="white" stroke="#666666" points="352,-104.5 191,-104.5 191,-74.5 352,-74.5 352,-104.5"/>
<text text-anchor="start" x="199" y="-92.5" font-family="Helvetica,sans-Serif" font-size="10.00">SceneManager::deleteCurrent</text>
<text text-anchor="middle" x="271.5" y="-81.5" font-family="Helvetica,sans-Serif" font-size="10.00">Gizmo</text>
</a>
</g>
</g>
<!-- Node1&#45;&gt;Node2 -->
<g id="edge1_Node000001_Node000002" class="edge">
<title>Node1&#45;&gt;Node2</title>
<g id="a_edge1_Node000001_Node000002"><a xlink:title=" ">
<path fill="none" stroke="#63b8ff" d="M121.11,-56.04C142.38,-60.81 168.77,-66.72 193.42,-72.24"/>
<polygon fill="#63b8ff" stroke="#63b8ff" points="192.97,-75.72 203.5,-74.49 194.5,-68.89 192.97,-75.72"/>
</a>
</g>
</g>
<!-- Node6 -->
<g id="Node000006" class="node">
<title>Node6</title>
<g id="a_Node000006"><a xlink:href="classSceneObject.html#ad77f12eb793b32da2ef40f0042cb1de8" target="_top" xlink:title=" ">
<polygon fill="white" stroke="#666666" points="342,-56 201,-56 201,-37 342,-37 342,-56"/>
<text text-anchor="middle" x="271.5" y="-44" font-family="Helvetica,sans-Serif" font-size="10.00">SceneObject::getObjectID</text>
</a>
</g>
</g>
<!-- Node1&#45;&gt;Node6 -->
<g id="edge5_Node000001_Node000006" class="edge">
<title>Node1&#45;&gt;Node6</title>
<g id="a_edge5_Node000001_Node000006"><a xlink:title=" ">
<path fill="none" stroke="#63b8ff" d="M155.21,-46.5C166.84,-46.5 178.87,-46.5 190.57,-46.5"/>
<polygon fill="#63b8ff" stroke="#63b8ff" points="190.75,-50 200.75,-46.5 190.75,-43 190.75,-50"/>
</a>
</g>
</g>
<!-- Node7 -->
<g id="Node000007" class="node">
<title>Node7</title>
<g id="a_Node000007"><a xlink:href="classSceneManager.html#a25bec2896954b4f0c3bed8ef736993d3" target="_top" xlink:title=" ">
<polygon fill="white" stroke="#666666" points="350.5,-19 192.5,-19 192.5,0 350.5,0 350.5,-19"/>
<text text-anchor="middle" x="271.5" y="-7" font-family="Helvetica,sans-Serif" font-size="10.00">SceneManager::selectedItem</text>
</a>
</g>
</g>
<!-- Node1&#45;&gt;Node7 -->
<g id="edge6_Node000001_Node000007" class="edge">
<title>Node1&#45;&gt;Node7</title>
<g id="a_edge6_Node000001_Node000007"><a xlink:title=" ">
<path fill="none" stroke="#63b8ff" d="M127.94,-36.97C153.27,-32.09 184.29,-26.11 210.92,-20.98"/>
<polygon fill="#63b8ff" stroke="#63b8ff" points="211.73,-24.39 220.89,-19.06 210.41,-17.52 211.73,-24.39"/>
</a>
</g>
</g>
<!-- Node3 -->
<g id="Node000003" class="node">
<title>Node3</title>
<g id="a_Node000003"><a xlink:href="classSceneManager.html#ab7c34393bb10361069b0ea73ec2797f8" target="_top" xlink:title=" ">
<polygon fill="white" stroke="#666666" points="567,-117 388,-117 388,-98 567,-98 567,-117"/>
<text text-anchor="middle" x="477.5" y="-105" font-family="Helvetica,sans-Serif" font-size="10.00">SceneManager::removeDrawable</text>
</a>
</g>
</g>
<!-- Node2&#45;&gt;Node3 -->
<g id="edge2_Node000002_Node000003" class="edge">
<title>Node2&#45;&gt;Node3</title>
<g id="a_edge2_Node000002_Node000003"><a xlink:title=" ">
<path fill="none" stroke="#63b8ff" d="M352.25,-96.54C360.6,-97.27 369.16,-98.03 377.7,-98.78"/>
<polygon fill="#63b8ff" stroke="#63b8ff" points="377.42,-102.27 387.69,-99.66 378.03,-95.3 377.42,-102.27"/>
</a>
</g>
</g>
<!-- Node5 -->
<g id="Node000005" class="node">
<title>Node5</title>
<g id="a_Node000005"><a xlink:href="classSceneManager.html#a1c647e38474ee02d5dd8510bc2313c38" target="_top" xlink:title=" ">
<polygon fill="white" stroke="#666666" points="564,-80 391,-80 391,-61 564,-61 564,-80"/>
<text text-anchor="middle" x="477.5" y="-68" font-family="Helvetica,sans-Serif" font-size="10.00">SceneManager::removePickable</text>
</a>
</g>
</g>
<!-- Node2&#45;&gt;Node5 -->
<g id="edge4_Node000002_Node000005" class="edge">
<title>Node2&#45;&gt;Node5</title>
<g id="a_edge4_Node000002_Node000005"><a xlink:title=" ">
<path fill="none" stroke="#63b8ff" d="M352.25,-82.07C361.52,-81.21 371.05,-80.32 380.52,-79.44"/>
<polygon fill="#63b8ff" stroke="#63b8ff" points="381.11,-82.9 390.74,-78.49 380.46,-75.93 381.11,-82.9"/>
</a>
</g>
</g>
<!-- Node4 -->
<g id="Node000004" class="node">
<title>Node4</title>
<g id="a_Node000004"><a xlink:href="classScene.html#a398bf0981ca0b3f5ade648b1d95513cc" target="_top" xlink:title=" ">
<polygon fill="white" stroke="#666666" points="739,-117 603,-117 603,-98 739,-98 739,-117"/>
<text text-anchor="middle" x="671" y="-105" font-family="Helvetica,sans-Serif" font-size="10.00">Scene::removeDrawable</text>
</a>
</g>
</g>
<!-- Node3&#45;&gt;Node4 -->
<g id="edge3_Node000003_Node000004" class="edge">
<title>Node3&#45;&gt;Node4</title>
<g id="a_edge3_Node000003_Node000004"><a xlink:title=" ">
<path fill="none" stroke="#63b8ff" d="M567.24,-107.5C575.73,-107.5 584.29,-107.5 592.65,-107.5"/>
<polygon fill="#63b8ff" stroke="#63b8ff" points="592.74,-111 602.74,-107.5 592.74,-104 592.74,-111"/>
</a>
</g>
</g>
</g>
</svg>
