<?xml version="1.0" encoding="UTF-8" standalone="no"?>
<!DOCTYPE svg PUBLIC "-//W3C//DTD SVG 1.1//EN"
 "http://www.w3.org/Graphics/SVG/1.1/DTD/svg11.dtd">
<!-- Generated by graphviz version 2.43.0 (0)
 -->
<!-- Title: SceneManager::processHeldKeys Pages: 1 -->
<!--zoomable 572 -->

<svg id="main" version="1.1" xmlns="http://www.w3.org/2000/svg" xmlns:xlink="http://www.w3.org/1999/xlink" xml:space="preserve" onload="init(evt)">
<style type="text/css"><![CDATA[
.node, .edge {opacity: 0.7;}
.node.selected, .edge.selected {opacity: 1;}
.edge:hover path { stroke: red; }
.edge:hover polygon { stroke: red; fill: red; }
]]></style>

<defs>
  <circle id="rim" cx="0" cy="0" r="7"/>
  <circle id="rim2" cx="0" cy="0" r="3.5"/>
  <g id="zoomPlus">
    <use xlink:href="#rim" fill="#404040"><set attributeName="fill" to="#808080" begin="zoomplus.mouseover" end="zoomplus.mouseout"/></use>
    <path d="M-4,0h8M0,-4v8" fill="none" stroke="white" stroke-width="1.5" pointer-events="none"/>
  </g>
  <g id="zoomMin">
    <use xlink:href="#rim" fill="#404040"><set attributeName="fill" to="#808080" begin="zoomminus.mouseover" end="zoomminus.mouseout"/></use>
    <path d="M-4,0h8" fill="none" stroke="white" stroke-width="1.5" pointer-events="none"/>
  </g>
  <g id="arrowUp" transform="translate(30 24)">
    <use xlink:href="#rim"/>
    <path pointer-events="none" fill="none" stroke="white" stroke-width="1.5" d="M0,-3.0v7 M-2.5,-0.5L0,-3.0L2.5,-0.5"/>
  </g>
  <g id="arrowRight" transform="rotate(90) translate(36 -43)">
    <use xlink:href="#rim"/>
    <path pointer-events="none" fill="none" stroke="white" stroke-width="1.5" d="M0,-3.0v7 M-2.5,-0.5L0,-3.0L2.5,-0.5"/>
  </g>
  <g id="arrowDown" transform="rotate(180) translate(-30 -48)">
    <use xlink:href="#rim"/>
    <path pointer-events="none" fill="none" stroke="white" stroke-width="1.5" d="M0,-3.0v7 M-2.5,-0.5L0,-3.0L2.5,-0.5"/>
  </g>
  <g id="arrowLeft" transform="rotate(270) translate(-36 17)">
    <use xlink:href="#rim"/>
    <path pointer-events="none" fill="none" stroke="white" stroke-width="1.5" d="M0,-3.0v7 M-2.5,-0.5L0,-3.0L2.5,-0.5"/>
  </g>
  <g id="resetDef">
    <use xlink:href="#rim2" fill="#404040"><set attributeName="fill" to="#808080" begin="reset.mouseover" end="reset.mouseout"/></use>
  </g>
</defs>
<script type="application/ecmascript">
var viewWidth = 1416;
var viewHeight = 572;
var sectionId = 'dynsection-32';
</script>
<script type="application/ecmascript" xlink:href="svg.min.js"/>
<svg id="graph" class="graph">
<g id="viewport">
<title>SceneManager::processHeldKeys</title>
<!-- Node1 -->
<g id="Node000001" class="node">
<title>Node1</title>
<g id="a_Node000001"><a xlink:title=" ">
<polygon fill="#999999" stroke="#666666" points="178,-217 0,-217 0,-198 178,-198 178,-217"/>
<text text-anchor="middle" x="89" y="-205" font-family="Helvetica,sans-Serif" font-size="10.00">SceneManager::processHeldKeys</text>
</a>
</g>
</g>
<!-- Node2 -->
<g id="Node000002" class="node">
<title>Node2</title>
<g id="a_Node000002"><a xlink:href="classScene.html#a8ec1e638529f69f716e791ba3ac4d2f7" target="_top" xlink:title=" ">
<polygon fill="white" stroke="#666666" points="340.5,-292 234.5,-292 234.5,-273 340.5,-273 340.5,-292"/>
<text text-anchor="middle" x="287.5" y="-280" font-family="Helvetica,sans-Serif" font-size="10.00">Scene::getCamera</text>
</a>
</g>
</g>
<!-- Node1&#45;&gt;Node2 -->
<g id="edge1_Node000001_Node000002" class="edge">
<title>Node1&#45;&gt;Node2</title>
<g id="a_edge1_Node000001_Node000002"><a xlink:title=" ">
<path fill="none" stroke="#63b8ff" d="M108.04,-217.1C131.79,-229.43 175.09,-250.86 214,-264.5 219.94,-266.58 226.24,-268.52 232.54,-270.3"/>
<polygon fill="#63b8ff" stroke="#63b8ff" points="231.84,-273.74 242.4,-272.96 233.66,-266.98 231.84,-273.74"/>
</a>
</g>
</g>
<!-- Node3 -->
<g id="Node000003" class="node">
<title>Node3</title>
<g id="a_Node000003"><a xlink:href="classSceneManager.html#a7b7b0a022dcce523178e8414fb8e4463" target="_top" xlink:title=" ">
<polygon fill="white" stroke="#666666" points="360,-255 215,-255 215,-236 360,-236 360,-255"/>
<text text-anchor="middle" x="287.5" y="-243" font-family="Helvetica,sans-Serif" font-size="10.00">SceneManager::loadScene</text>
</a>
</g>
</g>
<!-- Node1&#45;&gt;Node3 -->
<g id="edge2_Node000001_Node000003" class="edge">
<title>Node1&#45;&gt;Node3</title>
<g id="a_edge2_Node000001_Node000003"><a xlink:title=" ">
<path fill="none" stroke="#63b8ff" d="M139.33,-217.04C165.96,-222.19 199.03,-228.58 227.07,-234.01"/>
<polygon fill="#63b8ff" stroke="#63b8ff" points="226.67,-237.49 237.15,-235.96 227.99,-230.62 226.67,-237.49"/>
</a>
</g>
</g>
<!-- Node35 -->
<g id="Node000035" class="node">
<title>Node35</title>
<g id="a_Node000035"><a xlink:href="classCamera.html#a3374b86bbff4f043d1f0051e074b0391" target="_top" xlink:title=" ">
<polygon fill="white" stroke="#666666" points="359.5,-179 215.5,-179 215.5,-160 359.5,-160 359.5,-179"/>
<text text-anchor="middle" x="287.5" y="-167" font-family="Helvetica,sans-Serif" font-size="10.00">Camera::processKeyboard</text>
</a>
</g>
</g>
<!-- Node1&#45;&gt;Node35 -->
<g id="edge35_Node000001_Node000035" class="edge">
<title>Node1&#45;&gt;Node35</title>
<g id="a_edge35_Node000001_Node000035"><a xlink:title=" ">
<path fill="none" stroke="#63b8ff" d="M139.33,-197.96C165.96,-192.81 199.03,-186.42 227.07,-180.99"/>
<polygon fill="#63b8ff" stroke="#63b8ff" points="227.99,-184.38 237.15,-179.04 226.67,-177.51 227.99,-184.38"/>
</a>
</g>
</g>
<!-- Node36 -->
<g id="Node000036" class="node">
<title>Node36</title>
<g id="a_Node000036"><a xlink:href="classSceneManager.html#a1a46a8c9e99b6b27404a2f870f38749c" target="_top" xlink:title=" ">
<polygon fill="white" stroke="#666666" points="361,-118 214,-118 214,-99 361,-99 361,-118"/>
<text text-anchor="middle" x="287.5" y="-106" font-family="Helvetica,sans-Serif" font-size="10.00">SceneManager::saveScene</text>
</a>
</g>
</g>
<!-- Node1&#45;&gt;Node36 -->
<g id="edge36_Node000001_Node000036" class="edge">
<title>Node1&#45;&gt;Node36</title>
<g id="a_edge36_Node000001_Node000036"><a xlink:title=" ">
<path fill="none" stroke="#63b8ff" d="M109.2,-197.83C144.07,-180.26 217.93,-143.05 258.45,-122.63"/>
<polygon fill="#63b8ff" stroke="#63b8ff" points="260.16,-125.69 267.51,-118.07 257.01,-119.44 260.16,-125.69"/>
</a>
</g>
</g>
<!-- Node44 -->
<g id="Node000044" class="node">
<title>Node44</title>
<g id="a_Node000044"><a xlink:href="classSceneManager.html#a490d6eddd6ef23ffd8f283582a2d7d88" target="_top" xlink:title=" ">
<polygon fill="white" stroke="#666666" points="557,-217 401,-217 401,-198 557,-198 557,-217"/>
<text text-anchor="middle" x="479" y="-205" font-family="Helvetica,sans-Serif" font-size="10.00">SceneManager::setGizmoFor</text>
</a>
</g>
</g>
<!-- Node1&#45;&gt;Node44 -->
<g id="edge44_Node000001_Node000044" class="edge">
<title>Node1&#45;&gt;Node44</title>
<g id="a_edge44_Node000001_Node000044"><a xlink:title=" ">
<path fill="none" stroke="#63b8ff" d="M178.04,-207.5C241.58,-207.5 326.99,-207.5 390.43,-207.5"/>
<polygon fill="#63b8ff" stroke="#63b8ff" points="390.81,-211 400.81,-207.5 390.81,-204 390.81,-211"/>
</a>
</g>
</g>
<!-- Node4 -->
<g id="Node000004" class="node">
<title>Node4</title>
<g id="a_Node000004"><a xlink:href="classSceneSerializer.html#a490f2bd87e7c9459ee47be974653b433" target="_top" xlink:title=" ">
<polygon fill="white" stroke="#666666" points="561,-384 397,-384 397,-365 561,-365 561,-384"/>
<text text-anchor="middle" x="479" y="-372" font-family="Helvetica,sans-Serif" font-size="10.00">SceneSerializer::loadFromJson</text>
</a>
</g>
</g>
<!-- Node3&#45;&gt;Node4 -->
<g id="edge3_Node000003_Node000004" class="edge">
<title>Node3&#45;&gt;Node4</title>
<g id="a_edge3_Node000003_Node000004"><a xlink:title=" ">
<path fill="none" stroke="#63b8ff" d="M338.52,-255.09C346.3,-257.57 354.06,-260.66 361,-264.5 404.45,-288.55 444.08,-332.38 464.17,-356.83"/>
<polygon fill="#63b8ff" stroke="#63b8ff" points="461.66,-359.29 470.66,-364.89 467.11,-354.9 461.66,-359.29"/>
</a>
</g>
</g>
<!-- Node5 -->
<g id="Node000005" class="node">
<title>Node5</title>
<g id="a_Node000005"><a xlink:href="structRigidBodyOptions.html#a8a6ec7f2434036026c0f7dccf9082738" target="_top" xlink:title=" ">
<polygon fill="white" stroke="#666666" points="762.5,-477 634.5,-477 634.5,-458 762.5,-458 762.5,-477"/>
<text text-anchor="middle" x="698.5" y="-465" font-family="Helvetica,sans-Serif" font-size="10.00">RigidBodyOptions::Box</text>
</a>
</g>
</g>
<!-- Node4&#45;&gt;Node5 -->
<g id="edge4_Node000004_Node000005" class="edge">
<title>Node4&#45;&gt;Node5</title>
<g id="a_edge4_Node000004_Node000005"><a xlink:title=" ">
<path fill="none" stroke="#63b8ff" d="M491.44,-384.06C511.47,-400.26 554.77,-432.94 597,-449.5 605.7,-452.91 615.07,-455.68 624.48,-457.92"/>
<polygon fill="#63b8ff" stroke="#63b8ff" points="623.74,-461.35 634.26,-460.08 625.25,-454.51 623.74,-461.35"/>
</a>
</g>
</g>
<!-- Node6 -->
<g id="Node000006" class="node">
<title>Node6</title>
<g id="a_Node000006"><a xlink:href="classSceneManager.html#a1daee617aa556b8af8a7202d3f8f28c8" target="_top" xlink:title=" ">
<polygon fill="white" stroke="#666666" points="777,-403 620,-403 620,-384 777,-384 777,-403"/>
<text text-anchor="middle" x="698.5" y="-391" font-family="Helvetica,sans-Serif" font-size="10.00">SceneManager::createObject</text>
</a>
</g>
</g>
<!-- Node4&#45;&gt;Node6 -->
<g id="edge5_Node000004_Node000006" class="edge">
<title>Node4&#45;&gt;Node6</title>
<g id="a_edge5_Node000004_Node000006"><a xlink:title=" ">
<path fill="none" stroke="#63b8ff" d="M561.3,-381.6C577.04,-382.98 593.59,-384.42 609.53,-385.82"/>
<polygon fill="#63b8ff" stroke="#63b8ff" points="609.64,-389.34 619.9,-386.72 610.25,-382.36 609.64,-389.34"/>
</a>
</g>
</g>
<!-- Node17 -->
<g id="Node000017" class="node">
<title>Node17</title>
<g id="a_Node000017"><a xlink:href="classSceneManager.html#a53736fa499987ffff612d3ee7c85442c" target="_top" xlink:title=" ">
<polygon fill="white" stroke="#666666" points="786,-366 611,-366 611,-347 786,-347 786,-366"/>
<text text-anchor="middle" x="698.5" y="-354" font-family="Helvetica,sans-Serif" font-size="10.00">SceneManager::deleteAllObjects</text>
</a>
</g>
</g>
<!-- Node4&#45;&gt;Node17 -->
<g id="edge16_Node000004_Node000017" class="edge">
<title>Node4&#45;&gt;Node17</title>
<g id="a_edge16_Node000004_Node000017"><a xlink:title=" ">
<path fill="none" stroke="#63b8ff" d="M561.3,-367.77C574.18,-366.71 587.62,-365.59 600.81,-364.5"/>
<polygon fill="#63b8ff" stroke="#63b8ff" points="601.16,-367.98 610.84,-363.67 600.59,-361.01 601.16,-367.98"/>
</a>
</g>
</g>
<!-- Node23 -->
<g id="Node000023" class="node">
<title>Node23</title>
<g id="a_Node000023"><a xlink:href="classResourceManager.html#a3899655c6a1e40089930df4fbc9f1be9" target="_top" xlink:title=" ">
<polygon fill="white" stroke="#666666" points="778.5,-292 618.5,-292 618.5,-273 778.5,-273 778.5,-292"/>
<text text-anchor="middle" x="698.5" y="-280" font-family="Helvetica,sans-Serif" font-size="10.00">ResourceManager::getShader</text>
</a>
</g>
</g>
<!-- Node4&#45;&gt;Node23 -->
<g id="edge22_Node000004_Node000023" class="edge">
<title>Node4&#45;&gt;Node23</title>
<g id="a_edge22_Node000004_Node000023"><a xlink:title=" ">
<path fill="none" stroke="#63b8ff" d="M491.83,-365C512.09,-349.23 555.3,-317.79 597,-301.5 603.9,-298.81 611.22,-296.48 618.64,-294.49"/>
<polygon fill="#63b8ff" stroke="#63b8ff" points="619.57,-297.86 628.43,-292.04 617.88,-291.07 619.57,-297.86"/>
</a>
</g>
</g>
<!-- Node24 -->
<g id="Node000024" class="node">
<title>Node24</title>
<g id="a_Node000024"><a xlink:href="namespaceJsonUtils.html#ab8da6e319ea5969afbe6ddd6620add30" target="_top" xlink:title=" ">
<polygon fill="white" stroke="#666666" points="758,-255 639,-255 639,-236 758,-236 758,-255"/>
<text text-anchor="middle" x="698.5" y="-243" font-family="Helvetica,sans-Serif" font-size="10.00">JsonUtils::jsonToVec3</text>
</a>
</g>
</g>
<!-- Node4&#45;&gt;Node24 -->
<g id="edge23_Node000004_Node000024" class="edge">
<title>Node4&#45;&gt;Node24</title>
<g id="a_edge23_Node000004_Node000024"><a xlink:title=" ">
<path fill="none" stroke="#63b8ff" d="M486.96,-364.97C503.41,-343.23 547.06,-289.91 597,-264.5 606.81,-259.51 617.77,-255.82 628.74,-253.09"/>
<polygon fill="#63b8ff" stroke="#63b8ff" points="629.79,-256.44 638.79,-250.85 628.27,-249.61 629.79,-256.44"/>
</a>
</g>
</g>
<!-- Node25 -->
<g id="Node000025" class="node">
<title>Node25</title>
<g id="a_Node000025"><a xlink:href="classSceneManager.html#a8dafcb538b1cfbf727b82644ad5815ad" target="_top" xlink:title=" ">
<polygon fill="white" stroke="#666666" points="799.5,-563 597.5,-563 597.5,-544 799.5,-544 799.5,-563"/>
<text text-anchor="middle" x="698.5" y="-551" font-family="Helvetica,sans-Serif" font-size="10.00">SceneManager::setGlobalAcceleration</text>
</a>
</g>
</g>
<!-- Node4&#45;&gt;Node25 -->
<g id="edge24_Node000004_Node000025" class="edge">
<title>Node4&#45;&gt;Node25</title>
<g id="a_edge24_Node000004_Node000025"><a xlink:title=" ">
<path fill="none" stroke="#63b8ff" d="M483.88,-384C495.93,-412.18 535.6,-495.74 597,-534.5 600.23,-536.54 603.63,-538.37 607.14,-540.01"/>
<polygon fill="#63b8ff" stroke="#63b8ff" points="606.1,-543.37 616.68,-543.94 608.76,-536.9 606.1,-543.37"/>
</a>
</g>
</g>
<!-- Node26 -->
<g id="Node000026" class="node">
<title>Node26</title>
<g id="a_Node000026"><a xlink:href="classSceneManager.html#a357678fb063589b2ed1dc9a5f0b55ae2" target="_top" xlink:title=" ">
<polygon fill="white" stroke="#666666" points="785,-525.5 612,-525.5 612,-495.5 785,-495.5 785,-525.5"/>
<text text-anchor="start" x="620" y="-513.5" font-family="Helvetica,sans-Serif" font-size="10.00">SceneManager::setGravitational</text>
<text text-anchor="middle" x="698.5" y="-502.5" font-family="Helvetica,sans-Serif" font-size="10.00">Constant</text>
</a>
</g>
</g>
<!-- Node4&#45;&gt;Node26 -->
<g id="edge25_Node000004_Node000026" class="edge">
<title>Node4&#45;&gt;Node26</title>
<g id="a_edge25_Node000004_Node000026"><a xlink:title=" ">
<path fill="none" stroke="#63b8ff" d="M487.01,-384.04C503.55,-405.83 547.37,-459.45 597,-486.5 600.45,-488.38 604.04,-490.11 607.72,-491.71"/>
<polygon fill="#63b8ff" stroke="#63b8ff" points="606.46,-494.97 617.05,-495.41 609.05,-488.47 606.46,-494.97"/>
</a>
</g>
</g>
<!-- Node27 -->
<g id="Node000027" class="node">
<title>Node27</title>
<g id="a_Node000027"><a xlink:href="classSceneManager.html#af40d0ff3e76f89bbf5504f1694814179" target="_top" xlink:title=" ">
<polygon fill="white" stroke="#666666" points="776,-329 621,-329 621,-310 776,-310 776,-329"/>
<text text-anchor="middle" x="698.5" y="-317" font-family="Helvetica,sans-Serif" font-size="10.00">SceneManager::setSelectFor</text>
</a>
</g>
</g>
<!-- Node4&#45;&gt;Node27 -->
<g id="edge26_Node000004_Node000027" class="edge">
<title>Node4&#45;&gt;Node27</title>
<g id="a_edge26_Node000004_Node000027"><a xlink:title=" ">
<path fill="none" stroke="#63b8ff" d="M508.12,-364.88C531.67,-357.06 566.26,-346.11 597,-338.5 608,-335.78 619.76,-333.23 631.22,-330.94"/>
<polygon fill="#63b8ff" stroke="#63b8ff" points="632.03,-334.35 641.18,-329 630.7,-327.48 632.03,-334.35"/>
</a>
</g>
</g>
<!-- Node33 -->
<g id="Node000033" class="node">
<title>Node33</title>
<g id="a_Node000033"><a xlink:href="classSceneManager.html#a64f4064d9201d062a24f750763c1f703" target="_top" xlink:title=" ">
<polygon fill="white" stroke="#666666" points="777.5,-440 619.5,-440 619.5,-421 777.5,-421 777.5,-440"/>
<text text-anchor="middle" x="698.5" y="-428" font-family="Helvetica,sans-Serif" font-size="10.00">SceneManager::setSimSpeed</text>
</a>
</g>
</g>
<!-- Node4&#45;&gt;Node33 -->
<g id="edge33_Node000004_Node000033" class="edge">
<title>Node4&#45;&gt;Node33</title>
<g id="a_edge33_Node000004_Node000033"><a xlink:title=" ">
<path fill="none" stroke="#63b8ff" d="M506.19,-384.15C529.7,-392.53 565.3,-404.55 597,-412.5 606.54,-414.89 616.67,-417.09 626.68,-419.07"/>
<polygon fill="#63b8ff" stroke="#63b8ff" points="626.15,-422.53 636.63,-420.98 627.47,-415.66 626.15,-422.53"/>
</a>
</g>
</g>
<!-- Node7 -->
<g id="Node000007" class="node">
<title>Node7</title>
<g id="a_Node000007"><a xlink:href="classSceneManager.html#ad0d1661e5869720d7a07b1912d75318d" target="_top" xlink:title=" ">
<polygon fill="white" stroke="#666666" points="1008,-412 849,-412 849,-393 1008,-393 1008,-412"/>
<text text-anchor="middle" x="928.5" y="-400" font-family="Helvetica,sans-Serif" font-size="10.00">SceneManager::addDrawable</text>
</a>
</g>
</g>
<!-- Node6&#45;&gt;Node7 -->
<g id="edge6_Node000006_Node000007" class="edge">
<title>Node6&#45;&gt;Node7</title>
<g id="a_edge6_Node000006_Node000007"><a xlink:title=" ">
<path fill="none" stroke="#63b8ff" d="M777.01,-396.56C796.78,-397.34 818.18,-398.18 838.48,-398.99"/>
<polygon fill="#63b8ff" stroke="#63b8ff" points="838.52,-402.49 848.65,-399.39 838.8,-395.5 838.52,-402.49"/>
</a>
</g>
</g>
<!-- Node9 -->
<g id="Node000009" class="node">
<title>Node9</title>
<g id="a_Node000009"><a xlink:href="classSceneManager.html#a31d525542db0b239ba61dd36a3d92d43" target="_top" xlink:title=" ">
<polygon fill="white" stroke="#666666" points="1005,-375 852,-375 852,-356 1005,-356 1005,-375"/>
<text text-anchor="middle" x="928.5" y="-363" font-family="Helvetica,sans-Serif" font-size="10.00">SceneManager::addPickable</text>
</a>
</g>
</g>
<!-- Node6&#45;&gt;Node9 -->
<g id="edge8_Node000006_Node000009" class="edge">
<title>Node6&#45;&gt;Node9</title>
<g id="a_edge8_Node000006_Node000009"><a xlink:title=" ">
<path fill="none" stroke="#63b8ff" d="M777.01,-383.98C797.85,-381.42 820.51,-378.64 841.77,-376.03"/>
<polygon fill="#63b8ff" stroke="#63b8ff" points="842.25,-379.5 851.75,-374.8 841.4,-372.55 842.25,-379.5"/>
</a>
</g>
</g>
<!-- Node10 -->
<g id="Node000010" class="node">
<title>Node10</title>
<g id="a_Node000010"><a xlink:href="classSceneManager.html#ab6a7ecbff438f2dbee8a0f31795456f9" target="_top" xlink:title=" ">
<polygon fill="white" stroke="#666666" points="1021,-523 836,-523 836,-504 1021,-504 1021,-523"/>
<text text-anchor="middle" x="928.5" y="-511" font-family="Helvetica,sans-Serif" font-size="10.00">SceneManager::makeUniqueName</text>
</a>
</g>
</g>
<!-- Node6&#45;&gt;Node10 -->
<g id="edge9_Node000006_Node000010" class="edge">
<title>Node6&#45;&gt;Node10</title>
<g id="a_edge9_Node000006_Node000010"><a xlink:title=" ">
<path fill="none" stroke="#63b8ff" d="M777.03,-400.02C785.33,-403.02 793.2,-407.07 800,-412.5 831.41,-437.6 804.68,-470.28 836,-495.5 837.56,-496.76 839.18,-497.93 840.86,-499.04"/>
<polygon fill="#63b8ff" stroke="#63b8ff" points="839.21,-502.12 849.64,-503.95 842.62,-496.01 839.21,-502.12"/>
</a>
</g>
</g>
<!-- Node11 -->
<g id="Node000011" class="node">
<title>Node11</title>
<g id="a_Node000011"><a xlink:href="classSceneManager.html#a76592c383a85fda664a79fa155ead19e" target="_top" xlink:title=" ">
<polygon fill="white" stroke="#666666" points="1006,-449 851,-449 851,-430 1006,-430 1006,-449"/>
<text text-anchor="middle" x="928.5" y="-437" font-family="Helvetica,sans-Serif" font-size="10.00">SceneManager::objectAdded</text>
</a>
</g>
</g>
<!-- Node6&#45;&gt;Node11 -->
<g id="edge10_Node000006_Node000011" class="edge">
<title>Node6&#45;&gt;Node11</title>
<g id="a_edge10_Node000006_Node000011"><a xlink:title=" ">
<path fill="none" stroke="#63b8ff" d="M753.08,-403.03C768.28,-405.9 784.82,-409.17 800,-412.5 816.11,-416.03 819.9,-417.91 836,-421.5 845.84,-423.7 856.3,-425.89 866.5,-427.95"/>
<polygon fill="#63b8ff" stroke="#63b8ff" points="866.09,-431.44 876.59,-429.96 867.46,-424.57 866.09,-431.44"/>
</a>
</g>
</g>
<!-- Node12 -->
<g id="Node000012" class="node">
<title>Node12</title>
<g id="a_Node000012"><a xlink:href="classSceneManager.html#aad894e90cf7ad353aab707f966c9711d" target="_top" xlink:title=" ">
<polygon fill="white" stroke="#666666" points="1013.5,-486 843.5,-486 843.5,-467 1013.5,-467 1013.5,-486"/>
<text text-anchor="middle" x="928.5" y="-474" font-family="Helvetica,sans-Serif" font-size="10.00">SceneManager::setObjectName</text>
</a>
</g>
</g>
<!-- Node6&#45;&gt;Node12 -->
<g id="edge11_Node000006_Node000012" class="edge">
<title>Node6&#45;&gt;Node12</title>
<g id="a_edge11_Node000006_Node000012"><a xlink:title=" ">
<path fill="none" stroke="#63b8ff" d="M777.09,-402.22C785.14,-404.85 792.95,-408.21 800,-412.5 822.18,-426 813.87,-444.92 836,-458.5 838.67,-460.14 841.47,-461.64 844.35,-463"/>
<polygon fill="#63b8ff" stroke="#63b8ff" points="843.21,-466.32 853.79,-466.92 845.89,-459.85 843.21,-466.32"/>
</a>
</g>
</g>
<!-- Node8 -->
<g id="Node000008" class="node">
<title>Node8</title>
<g id="a_Node000008"><a xlink:href="classScene.html#aa2773ce73d9158e1e3a9c97d26a7e727" target="_top" xlink:title=" ">
<polygon fill="white" stroke="#666666" points="1204.5,-416 1088.5,-416 1088.5,-397 1204.5,-397 1204.5,-416"/>
<text text-anchor="middle" x="1146.5" y="-404" font-family="Helvetica,sans-Serif" font-size="10.00">Scene::addDrawable</text>
</a>
</g>
</g>
<!-- Node7&#45;&gt;Node8 -->
<g id="edge7_Node000007_Node000008" class="edge">
<title>Node7&#45;&gt;Node8</title>
<g id="a_edge7_Node000007_Node000008"><a xlink:title=" ">
<path fill="none" stroke="#63b8ff" d="M1008.09,-403.96C1031.1,-404.38 1056.05,-404.84 1078.28,-405.26"/>
<polygon fill="#63b8ff" stroke="#63b8ff" points="1078.23,-408.75 1088.29,-405.44 1078.36,-401.76 1078.23,-408.75"/>
</a>
</g>
</g>
<!-- Node13 -->
<g id="Node000013" class="node">
<title>Node13</title>
<g id="a_Node000013"><a xlink:href="classSceneObject.html#abebc043e3253d66da477f862a950775d" target="_top" xlink:title=" ">
<polygon fill="white" stroke="#666666" points="1210.5,-564 1082.5,-564 1082.5,-545 1210.5,-545 1210.5,-564"/>
<text text-anchor="middle" x="1146.5" y="-552" font-family="Helvetica,sans-Serif" font-size="10.00">SceneObject::getName</text>
</a>
</g>
</g>
<!-- Node12&#45;&gt;Node13 -->
<g id="edge12_Node000012_Node000013" class="edge">
<title>Node12&#45;&gt;Node13</title>
<g id="a_edge12_Node000012_Node000013"><a xlink:title=" ">
<path fill="none" stroke="#63b8ff" d="M999.71,-486.14C1007.16,-488.59 1014.41,-491.66 1021,-495.5 1041.95,-507.71 1036.02,-524.34 1057,-536.5 1061.83,-539.3 1067.03,-541.67 1072.41,-543.68"/>
<polygon fill="#63b8ff" stroke="#63b8ff" points="1071.63,-547.11 1082.22,-546.91 1073.82,-540.46 1071.63,-547.11"/>
</a>
</g>
</g>
<!-- Node14 -->
<g id="Node000014" class="node">
<title>Node14</title>
<g id="a_Node000014"><a xlink:href="classSceneManager.html#a624cd344feba3357d2ec95bab7229a6f" target="_top" xlink:title=" ">
<polygon fill="white" stroke="#666666" points="1230,-527 1063,-527 1063,-508 1230,-508 1230,-527"/>
<text text-anchor="middle" x="1146.5" y="-515" font-family="Helvetica,sans-Serif" font-size="10.00">SceneManager::isNameUnique</text>
</a>
</g>
</g>
<!-- Node12&#45;&gt;Node14 -->
<g id="edge13_Node000012_Node000014" class="edge">
<title>Node12&#45;&gt;Node14</title>
<g id="a_edge13_Node000012_Node000014"><a xlink:title=" ">
<path fill="none" stroke="#63b8ff" d="M979.6,-486.01C1011.11,-491.99 1051.96,-499.74 1085.23,-506.06"/>
<polygon fill="#63b8ff" stroke="#63b8ff" points="1084.82,-509.55 1095.3,-507.97 1086.13,-502.67 1084.82,-509.55"/>
</a>
</g>
</g>
<!-- Node15 -->
<g id="Node000015" class="node">
<title>Node15</title>
<g id="a_Node000015"><a xlink:href="classSceneManager.html#a76dba0a09f8b2a1dc376236f904a9c3a" target="_top" xlink:title=" ">
<polygon fill="white" stroke="#666666" points="1232,-490 1061,-490 1061,-471 1232,-471 1232,-490"/>
<text text-anchor="middle" x="1146.5" y="-478" font-family="Helvetica,sans-Serif" font-size="10.00">SceneManager::objectRenamed</text>
</a>
</g>
</g>
<!-- Node12&#45;&gt;Node15 -->
<g id="edge14_Node000012_Node000015" class="edge">
<title>Node12&#45;&gt;Node15</title>
<g id="a_edge14_Node000012_Node000015"><a xlink:title=" ">
<path fill="none" stroke="#63b8ff" d="M1013.63,-478.06C1025.75,-478.28 1038.3,-478.51 1050.61,-478.74"/>
<polygon fill="#63b8ff" stroke="#63b8ff" points="1050.83,-482.25 1060.89,-478.93 1050.96,-475.25 1050.83,-482.25"/>
</a>
</g>
</g>
<!-- Node16 -->
<g id="Node000016" class="node">
<title>Node16</title>
<g id="a_Node000016"><a xlink:href="classSceneObject.html#ad8ac9406b35bee3cd4fad75db013d9c4" target="_top" xlink:title=" ">
<polygon fill="white" stroke="#666666" points="1210.5,-453 1082.5,-453 1082.5,-434 1210.5,-434 1210.5,-453"/>
<text text-anchor="middle" x="1146.5" y="-441" font-family="Helvetica,sans-Serif" font-size="10.00">SceneObject::setName</text>
</a>
</g>
</g>
<!-- Node12&#45;&gt;Node16 -->
<g id="edge15_Node000012_Node000016" class="edge">
<title>Node12&#45;&gt;Node16</title>
<g id="a_edge15_Node000012_Node000016"><a xlink:title=" ">
<path fill="none" stroke="#63b8ff" d="M991.69,-467C1017.1,-463.12 1046.68,-458.6 1073.06,-454.57"/>
<polygon fill="#63b8ff" stroke="#63b8ff" points="1073.65,-458.02 1083,-453.05 1072.59,-451.1 1073.65,-458.02"/>
</a>
</g>
</g>
<!-- Node18 -->
<g id="Node000018" class="node">
<title>Node18</title>
<g id="a_Node000018"><a xlink:href="classSceneManager.html#a4543114007c5bb40ddab62cd9f2ac613" target="_top" xlink:title=" ">
<polygon fill="white" stroke="#666666" points="1007,-338 850,-338 850,-319 1007,-319 1007,-338"/>
<text text-anchor="middle" x="928.5" y="-326" font-family="Helvetica,sans-Serif" font-size="10.00">SceneManager::deleteObject</text>
</a>
</g>
</g>
<!-- Node17&#45;&gt;Node18 -->
<g id="edge17_Node000017_Node000018" class="edge">
<title>Node17&#45;&gt;Node18</title>
<g id="a_edge17_Node000017_Node000018"><a xlink:title=" ">
<path fill="none" stroke="#63b8ff" d="M777.01,-346.98C797.2,-344.5 819.1,-341.81 839.78,-339.27"/>
<polygon fill="#63b8ff" stroke="#63b8ff" points="840.32,-342.73 849.82,-338.04 839.47,-335.78 840.32,-342.73"/>
</a>
</g>
</g>
<!-- Node19 -->
<g id="Node000019" class="node">
<title>Node19</title>
<g id="a_Node000019"><a xlink:href="classSceneObject.html#ab3595ced6ccce80d1e864bbf28e1988a" target="_top" xlink:title=" ">
<polygon fill="white" stroke="#666666" points="1227,-330 1066,-330 1066,-311 1227,-311 1227,-330"/>
<text text-anchor="middle" x="1146.5" y="-318" font-family="Helvetica,sans-Serif" font-size="10.00">SceneObject::getPhysicsBody</text>
</a>
</g>
</g>
<!-- Node18&#45;&gt;Node19 -->
<g id="edge18_Node000018_Node000019" class="edge">
<title>Node18&#45;&gt;Node19</title>
<g id="a_edge18_Node000018_Node000019"><a xlink:title=" ">
<path fill="none" stroke="#63b8ff" d="M1007.18,-325.62C1023,-325.04 1039.77,-324.42 1055.97,-323.82"/>
<polygon fill="#63b8ff" stroke="#63b8ff" points="1056.11,-327.31 1065.97,-323.45 1055.85,-320.32 1056.11,-327.31"/>
</a>
</g>
</g>
<!-- Node20 -->
<g id="Node000020" class="node">
<title>Node20</title>
<g id="a_Node000020"><a xlink:href="classSceneManager.html#a1ecbf10d22d2ff153407cd139bf89632" target="_top" xlink:title=" ">
<polygon fill="white" stroke="#666666" points="1232,-293 1061,-293 1061,-274 1232,-274 1232,-293"/>
<text text-anchor="middle" x="1146.5" y="-281" font-family="Helvetica,sans-Serif" font-size="10.00">SceneManager::objectRemoved</text>
</a>
</g>
</g>
<!-- Node18&#45;&gt;Node20 -->
<g id="edge19_Node000018_Node000020" class="edge">
<title>Node18&#45;&gt;Node20</title>
<g id="a_edge19_Node000018_Node000020"><a xlink:title=" ">
<path fill="none" stroke="#63b8ff" d="M979.41,-318.91C992.92,-316.25 1007.53,-313.32 1021,-310.5 1037.04,-307.14 1040.99,-306 1057,-302.5 1067.93,-300.11 1079.63,-297.58 1090.82,-295.17"/>
<polygon fill="#63b8ff" stroke="#63b8ff" points="1091.88,-298.53 1100.92,-293.01 1090.41,-291.68 1091.88,-298.53"/>
</a>
</g>
</g>
<!-- Node21 -->
<g id="Node000021" class="node">
<title>Node21</title>
<g id="a_Node000021"><a xlink:href="classScene.html#a398bf0981ca0b3f5ade648b1d95513cc" target="_top" xlink:title=" ">
<polygon fill="white" stroke="#666666" points="1408,-217 1272,-217 1272,-198 1408,-198 1408,-217"/>
<text text-anchor="middle" x="1340" y="-205" font-family="Helvetica,sans-Serif" font-size="10.00">Scene::removeDrawable</text>
</a>
</g>
</g>
<!-- Node18&#45;&gt;Node21 -->
<g id="edge20_Node000018_Node000021" class="edge">
<title>Node18&#45;&gt;Node21</title>
<g id="a_edge20_Node000018_Node000021"><a xlink:title=" ">
<path fill="none" stroke="#63b8ff" d="M1003.17,-318.85C1009.42,-316.61 1015.46,-313.86 1021,-310.5 1042.9,-297.22 1035.16,-278.88 1057,-265.5 1066.45,-259.71 1198.24,-234.09 1278.26,-218.91"/>
<polygon fill="#63b8ff" stroke="#63b8ff" points="1279.06,-222.32 1288.23,-217.02 1277.76,-215.44 1279.06,-222.32"/>
</a>
</g>
</g>
<!-- Node22 -->
<g id="Node000022" class="node">
<title>Node22</title>
<g id="a_Node000022"><a xlink:href="classSceneManager.html#a950d9257e6d737616480fb2b3c00ce62" target="_top" xlink:title=" ">
<polygon fill="white" stroke="#666666" points="1225,-378.5 1068,-378.5 1068,-348.5 1225,-348.5 1225,-378.5"/>
<text text-anchor="start" x="1076" y="-366.5" font-family="Helvetica,sans-Serif" font-size="10.00">SceneManager::removeFrom</text>
<text text-anchor="middle" x="1146.5" y="-355.5" font-family="Helvetica,sans-Serif" font-size="10.00">PhysicsSystem</text>
</a>
</g>
</g>
<!-- Node18&#45;&gt;Node22 -->
<g id="edge21_Node000018_Node000022" class="edge">
<title>Node18&#45;&gt;Node22</title>
<g id="a_edge21_Node000018_Node000022"><a xlink:title=" ">
<path fill="none" stroke="#63b8ff" d="M988.24,-338.02C1009.66,-341.49 1034.38,-345.49 1057.78,-349.29"/>
<polygon fill="#63b8ff" stroke="#63b8ff" points="1057.28,-352.75 1067.71,-350.9 1058.4,-345.84 1057.28,-352.75"/>
</a>
</g>
</g>
<!-- Node28 -->
<g id="Node000028" class="node">
<title>Node28</title>
<g id="a_Node000028"><a xlink:href="classSceneManager.html#a99992b526976863d1dab7dc88cc6ec2a" target="_top" xlink:title=" ">
<polygon fill="white" stroke="#666666" points="1009,-222.5 848,-222.5 848,-192.5 1009,-192.5 1009,-222.5"/>
<text text-anchor="start" x="856" y="-210.5" font-family="Helvetica,sans-Serif" font-size="10.00">SceneManager::deleteCurrent</text>
<text text-anchor="middle" x="928.5" y="-199.5" font-family="Helvetica,sans-Serif" font-size="10.00">Gizmo</text>
</a>
</g>
</g>
<!-- Node27&#45;&gt;Node28 -->
<g id="edge27_Node000027_Node000028" class="edge">
<title>Node27&#45;&gt;Node28</title>
<g id="a_edge27_Node000027_Node000028"><a xlink:title=" ">
<path fill="none" stroke="#63b8ff" d="M776.25,-313.23C784.73,-310.41 792.86,-306.61 800,-301.5 826.86,-282.28 810.45,-257.42 836,-236.5 840.35,-232.94 845.15,-229.81 850.19,-227.07"/>
<polygon fill="#63b8ff" stroke="#63b8ff" points="852.05,-230.05 859.5,-222.53 848.98,-223.76 852.05,-230.05"/>
</a>
</g>
</g>
<!-- Node31 -->
<g id="Node000031" class="node">
<title>Node31</title>
<g id="a_Node000031"><a xlink:href="classSceneObject.html#ad77f12eb793b32da2ef40f0042cb1de8" target="_top" xlink:title="Gets the unique identifier for this object.">
<polygon fill="white" stroke="#666666" points="999,-264 858,-264 858,-245 999,-245 999,-264"/>
<text text-anchor="middle" x="928.5" y="-252" font-family="Helvetica,sans-Serif" font-size="10.00">SceneObject::getObjectID</text>
</a>
</g>
</g>
<!-- Node27&#45;&gt;Node31 -->
<g id="edge31_Node000027_Node000031" class="edge">
<title>Node27&#45;&gt;Node31</title>
<g id="a_edge31_Node000027_Node000031"><a xlink:title=" ">
<path fill="none" stroke="#63b8ff" d="M775.6,-309.95C784.01,-307.7 792.31,-304.93 800,-301.5 818.52,-293.25 817.6,-282 836,-273.5 841.38,-271.01 847.08,-268.85 852.91,-266.97"/>
<polygon fill="#63b8ff" stroke="#63b8ff" points="854.2,-270.24 862.81,-264.06 852.23,-263.52 854.2,-270.24"/>
</a>
</g>
</g>
<!-- Node32 -->
<g id="Node000032" class="node">
<title>Node32</title>
<g id="a_Node000032"><a xlink:href="classSceneManager.html#a25bec2896954b4f0c3bed8ef736993d3" target="_top" xlink:title=" ">
<polygon fill="white" stroke="#666666" points="1007.5,-301 849.5,-301 849.5,-282 1007.5,-282 1007.5,-301"/>
<text text-anchor="middle" x="928.5" y="-289" font-family="Helvetica,sans-Serif" font-size="10.00">SceneManager::selectedItem</text>
</a>
</g>
</g>
<!-- Node27&#45;&gt;Node32 -->
<g id="edge32_Node000027_Node000032" class="edge">
<title>Node27&#45;&gt;Node32</title>
<g id="a_edge32_Node000027_Node000032"><a xlink:title=" ">
<path fill="none" stroke="#63b8ff" d="M776.05,-310.1C796.51,-307.59 818.78,-304.85 839.78,-302.27"/>
<polygon fill="#63b8ff" stroke="#63b8ff" points="840.48,-305.71 849.98,-301.02 839.63,-298.76 840.48,-305.71"/>
</a>
</g>
</g>
<!-- Node29 -->
<g id="Node000029" class="node">
<title>Node29</title>
<g id="a_Node000029"><a xlink:href="classSceneManager.html#ab7c34393bb10361069b0ea73ec2797f8" target="_top" xlink:title=" ">
<polygon fill="white" stroke="#666666" points="1236,-180 1057,-180 1057,-161 1236,-161 1236,-180"/>
<text text-anchor="middle" x="1146.5" y="-168" font-family="Helvetica,sans-Serif" font-size="10.00">SceneManager::removeDrawable</text>
</a>
</g>
</g>
<!-- Node28&#45;&gt;Node29 -->
<g id="edge28_Node000028_Node000029" class="edge">
<title>Node28&#45;&gt;Node29</title>
<g id="a_edge28_Node000028_Node000029"><a xlink:title=" ">
<path fill="none" stroke="#63b8ff" d="M1009.01,-193.88C1032.27,-189.9 1057.43,-185.59 1079.74,-181.76"/>
<polygon fill="#63b8ff" stroke="#63b8ff" points="1080.51,-185.18 1089.77,-180.05 1079.32,-178.28 1080.51,-185.18"/>
</a>
</g>
</g>
<!-- Node30 -->
<g id="Node000030" class="node">
<title>Node30</title>
<g id="a_Node000030"><a xlink:href="classSceneManager.html#a1c647e38474ee02d5dd8510bc2313c38" target="_top" xlink:title=" ">
<polygon fill="white" stroke="#666666" points="1233,-217 1060,-217 1060,-198 1233,-198 1233,-217"/>
<text text-anchor="middle" x="1146.5" y="-205" font-family="Helvetica,sans-Serif" font-size="10.00">SceneManager::removePickable</text>
</a>
</g>
</g>
<!-- Node28&#45;&gt;Node30 -->
<g id="edge30_Node000028_Node000030" class="edge">
<title>Node28&#45;&gt;Node30</title>
<g id="a_edge30_Node000028_Node000030"><a xlink:title=" ">
<path fill="none" stroke="#63b8ff" d="M1009.01,-207.5C1022.24,-207.5 1036.08,-207.5 1049.66,-207.5"/>
<polygon fill="#63b8ff" stroke="#63b8ff" points="1049.98,-211 1059.98,-207.5 1049.98,-204 1049.98,-211"/>
</a>
</g>
</g>
<!-- Node29&#45;&gt;Node21 -->
<g id="edge29_Node000029_Node000021" class="edge">
<title>Node29&#45;&gt;Node21</title>
<g id="a_edge29_Node000029_Node000021"><a xlink:title=" ">
<path fill="none" stroke="#63b8ff" d="M1196.82,-180.03C1222.07,-184.91 1253.01,-190.89 1279.57,-196.02"/>
<polygon fill="#63b8ff" stroke="#63b8ff" points="1279.04,-199.48 1289.52,-197.94 1280.36,-192.61 1279.04,-199.48"/>
</a>
</g>
</g>
<!-- Node34 -->
<g id="Node000034" class="node">
<title>Node34</title>
<g id="a_Node000034"><a xlink:href="classOpenGLWindow.html#ad664443240cdd277b10bacbf1608478b" target="_top" xlink:title=" ">
<polygon fill="white" stroke="#666666" points="1009.5,-560 847.5,-560 847.5,-541 1009.5,-541 1009.5,-560"/>
<text text-anchor="middle" x="928.5" y="-548" font-family="Helvetica,sans-Serif" font-size="10.00">OpenGLWindow::setSimSpeed</text>
</a>
</g>
</g>
<!-- Node33&#45;&gt;Node34 -->
<g id="edge34_Node000033_Node000034" class="edge">
<title>Node33&#45;&gt;Node34</title>
<g id="a_edge34_Node000033_Node000034"><a xlink:title=" ">
<path fill="none" stroke="#63b8ff" d="M777.54,-437.21C785.65,-440.19 793.34,-444.18 800,-449.5 831.41,-474.6 804.68,-507.28 836,-532.5 837.56,-533.76 839.18,-534.93 840.86,-536.04"/>
<polygon fill="#63b8ff" stroke="#63b8ff" points="839.21,-539.12 849.64,-540.95 842.62,-533.01 839.21,-539.12"/>
</a>
</g>
</g>
<!-- Node37 -->
<g id="Node000037" class="node">
<title>Node37</title>
<g id="a_Node000037"><a xlink:href="classSceneSerializer.html#a56e278bcdda1f03f192797122dd6d0c0" target="_top" xlink:title=" ">
<polygon fill="white" stroke="#666666" points="555,-105 403,-105 403,-86 555,-86 555,-105"/>
<text text-anchor="middle" x="479" y="-93" font-family="Helvetica,sans-Serif" font-size="10.00">SceneSerializer::saveToJson</text>
</a>
</g>
</g>
<!-- Node36&#45;&gt;Node37 -->
<g id="edge37_Node000036_Node000037" class="edge">
<title>Node36&#45;&gt;Node37</title>
<g id="a_edge37_Node000036_Node000037"><a xlink:title=" ">
<path fill="none" stroke="#63b8ff" d="M361.22,-103.51C371.59,-102.8 382.32,-102.06 392.89,-101.34"/>
<polygon fill="#63b8ff" stroke="#63b8ff" points="393.22,-104.82 402.96,-100.65 392.74,-97.84 393.22,-104.82"/>
</a>
</g>
</g>
<!-- Node38 -->
<g id="Node000038" class="node">
<title>Node38</title>
<g id="a_Node000038"><a xlink:href="classSceneManager.html#ad73f1ee3bdfe2567544871845707ce0f" target="_top" xlink:title=" ">
<polygon fill="white" stroke="#666666" points="800,-179 597,-179 597,-160 800,-160 800,-179"/>
<text text-anchor="middle" x="698.5" y="-167" font-family="Helvetica,sans-Serif" font-size="10.00">SceneManager::getGlobalAcceleration</text>
</a>
</g>
</g>
<!-- Node37&#45;&gt;Node38 -->
<g id="edge38_Node000037_Node000038" class="edge">
<title>Node37&#45;&gt;Node38</title>
<g id="a_edge38_Node000037_Node000038"><a xlink:title=" ">
<path fill="none" stroke="#63b8ff" d="M496.89,-105.11C519.15,-117.38 559.85,-138.47 597,-150.5 605.62,-153.29 614.8,-155.73 623.97,-157.83"/>
<polygon fill="#63b8ff" stroke="#63b8ff" points="623.38,-161.29 633.89,-159.99 624.87,-154.45 623.38,-161.29"/>
</a>
</g>
</g>
<!-- Node39 -->
<g id="Node000039" class="node">
<title>Node39</title>
<g id="a_Node000039"><a xlink:href="classSceneManager.html#a5117d2cabac5d1f95994f47f530b377b" target="_top" xlink:title=" ">
<polygon fill="white" stroke="#666666" points="785.5,-141.5 611.5,-141.5 611.5,-111.5 785.5,-111.5 785.5,-141.5"/>
<text text-anchor="start" x="619.5" y="-129.5" font-family="Helvetica,sans-Serif" font-size="10.00">SceneManager::getGravitational</text>
<text text-anchor="middle" x="698.5" y="-118.5" font-family="Helvetica,sans-Serif" font-size="10.00">Constant</text>
</a>
</g>
</g>
<!-- Node37&#45;&gt;Node39 -->
<g id="edge39_Node000037_Node000039" class="edge">
<title>Node37&#45;&gt;Node39</title>
<g id="a_edge39_Node000037_Node000039"><a xlink:title=" ">
<path fill="none" stroke="#63b8ff" d="M546.74,-105.01C563.91,-107.46 582.74,-110.14 601.09,-112.76"/>
<polygon fill="#63b8ff" stroke="#63b8ff" points="600.83,-116.26 611.22,-114.2 601.81,-109.33 600.83,-116.26"/>
</a>
</g>
</g>
<!-- Node40 -->
<g id="Node000040" class="node">
<title>Node40</title>
<g id="a_Node000040"><a xlink:href="classSceneManager.html#ad8688edec501c8e945dff1a85c7e33c7" target="_top" xlink:title=" ">
<polygon fill="white" stroke="#666666" points="772,-93 625,-93 625,-74 772,-74 772,-93"/>
<text text-anchor="middle" x="698.5" y="-81" font-family="Helvetica,sans-Serif" font-size="10.00">SceneManager::getObjects</text>
</a>
</g>
</g>
<!-- Node37&#45;&gt;Node40 -->
<g id="edge40_Node000037_Node000040" class="edge">
<title>Node37&#45;&gt;Node40</title>
<g id="a_edge40_Node000037_Node000040"><a xlink:title=" ">
<path fill="none" stroke="#63b8ff" d="M555.16,-91.35C574.4,-90.29 595.19,-89.14 614.79,-88.06"/>
<polygon fill="#63b8ff" stroke="#63b8ff" points="615.12,-91.55 624.91,-87.5 614.73,-84.56 615.12,-91.55"/>
</a>
</g>
</g>
<!-- Node41 -->
<g id="Node000041" class="node">
<title>Node41</title>
<g id="a_Node000041"><a xlink:href="classSceneManager.html#ae085a7aade1b9a2adcb7d9f1b2660790" target="_top" xlink:title=" ">
<polygon fill="white" stroke="#666666" points="778,-56 619,-56 619,-37 778,-37 778,-56"/>
<text text-anchor="middle" x="698.5" y="-44" font-family="Helvetica,sans-Serif" font-size="10.00">SceneManager::getSimSpeed</text>
</a>
</g>
</g>
<!-- Node37&#45;&gt;Node41 -->
<g id="edge41_Node000037_Node000041" class="edge">
<title>Node37&#45;&gt;Node41</title>
<g id="a_edge41_Node000037_Node000041"><a xlink:title=" ">
<path fill="none" stroke="#63b8ff" d="M514.67,-85.99C537.88,-79.77 569.16,-71.69 597,-65.5 608.78,-62.88 621.39,-60.31 633.56,-57.95"/>
<polygon fill="#63b8ff" stroke="#63b8ff" points="634.48,-61.34 643.65,-56.02 633.17,-54.46 634.48,-61.34"/>
</a>
</g>
</g>
<!-- Node43 -->
<g id="Node000043" class="node">
<title>Node43</title>
<g id="a_Node000043"><a xlink:href="namespaceJsonUtils.html#aa9bf373a72d131da0b8d71ade1295533" target="_top" xlink:title=" ">
<polygon fill="white" stroke="#666666" points="758,-19 639,-19 639,0 758,0 758,-19"/>
<text text-anchor="middle" x="698.5" y="-7" font-family="Helvetica,sans-Serif" font-size="10.00">JsonUtils::vec3ToJson</text>
</a>
</g>
</g>
<!-- Node37&#45;&gt;Node43 -->
<g id="edge43_Node000037_Node000043" class="edge">
<title>Node37&#45;&gt;Node43</title>
<g id="a_edge43_Node000037_Node000043"><a xlink:title=" ">
<path fill="none" stroke="#63b8ff" d="M493.31,-85.88C514.29,-71.19 556.81,-43.33 597,-28.5 607.14,-24.76 618.14,-21.72 629.02,-19.27"/>
<polygon fill="#63b8ff" stroke="#63b8ff" points="629.88,-22.66 638.94,-17.17 628.44,-15.81 629.88,-22.66"/>
</a>
</g>
</g>
<!-- Node42 -->
<g id="Node000042" class="node">
<title>Node42</title>
<g id="a_Node000042"><a xlink:href="classOpenGLWindow.html#aeabd921e42871e7ecb6d2297580d5b81" target="_top" xlink:title=" ">
<polygon fill="white" stroke="#666666" points="1010,-56 847,-56 847,-37 1010,-37 1010,-56"/>
<text text-anchor="middle" x="928.5" y="-44" font-family="Helvetica,sans-Serif" font-size="10.00">OpenGLWindow::getSimSpeed</text>
</a>
</g>
</g>
<!-- Node41&#45;&gt;Node42 -->
<g id="edge42_Node000041_Node000042" class="edge">
<title>Node41&#45;&gt;Node42</title>
<g id="a_edge42_Node000041_Node000042"><a xlink:title=" ">
<path fill="none" stroke="#63b8ff" d="M778.28,-46.5C797.14,-46.5 817.41,-46.5 836.76,-46.5"/>
<polygon fill="#63b8ff" stroke="#63b8ff" points="836.78,-50 846.78,-46.5 836.78,-43 836.78,-50"/>
</a>
</g>
</g>
<!-- Node44&#45;&gt;Node28 -->
<g id="edge45_Node000044_Node000028" class="edge">
<title>Node44&#45;&gt;Node28</title>
<g id="a_edge45_Node000044_Node000028"><a xlink:title=" ">
<path fill="none" stroke="#63b8ff" d="M557.18,-207.5C635.19,-207.5 755.63,-207.5 837.83,-207.5"/>
<polygon fill="#63b8ff" stroke="#63b8ff" points="837.91,-211 847.91,-207.5 837.91,-204 837.91,-211"/>
</a>
</g>
</g>
</g>
</svg>

<g id="navigator" transform="translate(0 0)" fill="#404254">
  <rect fill="#f2f5e9" fill-opacity="0.5" stroke="#606060" stroke-width=".5" x="0" y="0" width="60" height="60"/>
  <use id="zoomplus" xlink:href="#zoomPlus" x="17" y="9" onmousedown="handleZoom(evt,'in')"/>
  <use id="zoomminus" xlink:href="#zoomMin" x="42" y="9" onmousedown="handleZoom(evt,'out')"/>
  <use id="reset" xlink:href="#resetDef" x="30" y="36" onmousedown="handleReset()"/>
   <use id="arrowup" xlink:href="#arrowUp" x="0" y="0" onmousedown="handlePan(0,-1)"/>
  <use id="arrowright" xlink:href="#arrowRight" x="0" y="0" onmousedown="handlePan(1,0)"/>
  <use id="arrowdown" xlink:href="#arrowDown" x="0" y="0" onmousedown="handlePan(0,1)"/>
  <use id="arrowleft" xlink:href="#arrowLeft" x="0" y="0" onmousedown="handlePan(-1,0)"/>
</g>
<svg viewBox="0 0 15 15" width="100%" height="30px" preserveAspectRatio="xMaxYMin meet">
 <g id="arrow_out" transform="scale(0.3 0.3)">
  <a xlink:href="classSceneManager_a59f13c06bf3f19d5e543502a0ddd0467_cgraph_org.svg" target="_base">
   <rect id="button" ry="5" rx="5" y="6" x="6" height="38" width="38"
        fill="#f2f5e9" fill-opacity="0.5" stroke="#606060" stroke-width="1.0"/>
   <path id="arrow"
     d="M 11.500037,31.436501 C 11.940474,20.09759 22.043105,11.32322 32.158766,21.979434 L 37.068811,17.246167 C 37.068811,17.246167 37.088388,32 37.088388,32 L 22.160133,31.978069 C 22.160133,31.978069 26.997745,27.140456 26.997745,27.140456 C 18.528582,18.264221 13.291696,25.230495 11.500037,31.436501 z"
     style="fill:#404040;"/>
  </a>
 </g>
</svg>

<style type='text/css'>
<![CDATA[
[data-mouse-over-selected='false'] { opacity: 0.7; }
[data-mouse-over-selected='true']  { opacity: 1.0; }
]]>
</style>
<script type="application/ecmascript"><![CDATA[
document.addEventListener('DOMContentLoaded', (event) => {
  highlightEdges();
  highlightAdjacentNodes();
});
]]></script>
</svg>
