<?xml version="1.0" encoding="UTF-8" standalone="no"?>
<!DOCTYPE svg PUBLIC "-//W3C//DTD SVG 1.1//EN"
 "http://www.w3.org/Graphics/SVG/1.1/DTD/svg11.dtd">
<!-- Generated by graphviz version 2.43.0 (0)
 -->
<!-- Title: HierarchyWidget::focusObjectRequested Pages: 1 -->
<svg width="589pt" height="52pt"
 viewBox="0.00 0.00 589.00 51.50" xmlns="http://www.w3.org/2000/svg" xmlns:xlink="http://www.w3.org/1999/xlink">
<g id="graph0" class="graph" transform="scale(1 1) rotate(0) translate(4 47.5)">
<title>HierarchyWidget::focusObjectRequested</title>
<!-- Node1 -->
<g id="Node000001" class="node">
<title>Node1</title>
<g id="a_Node000001"><a xlink:title=" ">
<polygon fill="#999999" stroke="#666666" points="581,-43.5 419,-43.5 419,-13.5 581,-13.5 581,-43.5"/>
<text text-anchor="start" x="427" y="-31.5" font-family="Helvetica,sans-Serif" font-size="10.00">HierarchyWidget::focusObject</text>
<text text-anchor="middle" x="500" y="-20.5" font-family="Helvetica,sans-Serif" font-size="10.00">Requested</text>
</a>
</g>
</g>
<!-- Node2 -->
<g id="Node000002" class="node">
<title>Node2</title>
<g id="a_Node000002"><a xlink:href="classHierarchyWidget.html#aafc71a3e28240b106dc550909901dd61" target="_top" xlink:title=" ">
<polygon fill="white" stroke="#666666" points="152,-43.5 0,-43.5 0,-13.5 152,-13.5 152,-43.5"/>
<text text-anchor="start" x="8" y="-31.5" font-family="Helvetica,sans-Serif" font-size="10.00">HierarchyWidget::Hierarchy</text>
<text text-anchor="middle" x="76" y="-20.5" font-family="Helvetica,sans-Serif" font-size="10.00">Widget</text>
</a>
</g>
</g>
<!-- Node1&#45;&gt;Node2 -->
<g id="edge1_Node000001_Node000002" class="edge">
<title>Node1&#45;&gt;Node2</title>
<g id="a_edge1_Node000001_Node000002"><a xlink:title=" ">
<path fill="none" stroke="#63b8ff" d="M408.53,-28.5C332.08,-28.5 223.85,-28.5 152.11,-28.5"/>
<polygon fill="#63b8ff" stroke="#63b8ff" points="408.63,-32 418.63,-28.5 408.63,-25 408.63,-32"/>
</a>
</g>
</g>
<!-- Node3 -->
<g id="Node000003" class="node">
<title>Node3</title>
<g id="a_Node000003"><a xlink:href="classHierarchyWidget.html#aac181269e489e83bab657f2a8fa99ebd" target="_top" xlink:title=" ">
<polygon fill="white" stroke="#666666" points="383,-19 188,-19 188,0 383,0 383,-19"/>
<text text-anchor="middle" x="285.5" y="-7" font-family="Helvetica,sans-Serif" font-size="10.00">HierarchyWidget::showContextMenu</text>
</a>
</g>
</g>
<!-- Node1&#45;&gt;Node3 -->
<g id="edge2_Node000001_Node000003" class="edge">
<title>Node1&#45;&gt;Node3</title>
<g id="a_edge2_Node000001_Node000003"><a xlink:title=" ">
<path fill="none" stroke="#63b8ff" d="M408.77,-20.43C400.34,-19.68 391.77,-18.91 383.29,-18.15"/>
<polygon fill="#63b8ff" stroke="#63b8ff" points="408.69,-23.94 418.97,-21.34 409.32,-16.97 408.69,-23.94"/>
</a>
</g>
</g>
<!-- Node3&#45;&gt;Node2 -->
<g id="edge3_Node000003_Node000002" class="edge">
<title>Node3&#45;&gt;Node2</title>
<g id="a_edge3_Node000003_Node000002"><a xlink:title=" ">
<path fill="none" stroke="#63b8ff" d="M177.65,-19.28C169.05,-20.07 160.49,-20.86 152.18,-21.62"/>
<polygon fill="#63b8ff" stroke="#63b8ff" points="178.1,-22.76 187.74,-18.36 177.46,-15.79 178.1,-22.76"/>
</a>
</g>
</g>
</g>
</svg>
