<?xml version="1.0" encoding="UTF-8" standalone="no"?>
<!DOCTYPE svg PUBLIC "-//W3C//DTD SVG 1.1//EN"
 "http://www.w3.org/Graphics/SVG/1.1/DTD/svg11.dtd">
<!-- Generated by graphviz version 2.43.0 (0)
 -->
<!-- Title: SceneManager::selectedItem Pages: 1 -->
<svg width="1149pt" height="124pt"
 viewBox="0.00 0.00 1149.00 123.50" xmlns="http://www.w3.org/2000/svg" xmlns:xlink="http://www.w3.org/1999/xlink">
<g id="graph0" class="graph" transform="scale(1 1) rotate(0) translate(4 119.5)">
<title>SceneManager::selectedItem</title>
<!-- Node1 -->
<g id="Node000001" class="node">
<title>Node1</title>
<g id="a_Node000001"><a xlink:title=" ">
<polygon fill="#999999" stroke="#666666" points="1141,-43 983,-43 983,-24 1141,-24 1141,-43"/>
<text text-anchor="middle" x="1062" y="-31" font-family="Helvetica,sans-Serif" font-size="10.00">SceneManager::selectedItem</text>
</a>
</g>
</g>
<!-- Node2 -->
<g id="Node000002" class="node">
<title>Node2</title>
<g id="a_Node000002"><a xlink:href="classSceneManager.html#ac517c77baec7191a36898308818ebb5f" target="_top" xlink:title=" ">
<polygon fill="white" stroke="#666666" points="754,-67.5 594,-67.5 594,-37.5 754,-37.5 754,-67.5"/>
<text text-anchor="start" x="602" y="-55.5" font-family="Helvetica,sans-Serif" font-size="10.00">SceneManager::handleMouse</text>
<text text-anchor="middle" x="674" y="-44.5" font-family="Helvetica,sans-Serif" font-size="10.00">Button</text>
</a>
</g>
</g>
<!-- Node1&#45;&gt;Node2 -->
<g id="edge1_Node000001_Node000002" class="edge">
<title>Node1&#45;&gt;Node2</title>
<g id="a_edge1_Node000001_Node000002"><a xlink:title=" ">
<path fill="none" stroke="#63b8ff" d="M972.54,-37.85C906.77,-41.09 817.8,-45.47 754.32,-48.6"/>
<polygon fill="#63b8ff" stroke="#63b8ff" points="973.07,-41.33 982.89,-37.34 972.73,-34.34 973.07,-41.33"/>
</a>
</g>
</g>
<!-- Node5 -->
<g id="Node000005" class="node">
<title>Node5</title>
<g id="a_Node000005"><a xlink:href="classSceneManager.html#af40d0ff3e76f89bbf5504f1694814179" target="_top" xlink:title=" ">
<polygon fill="white" stroke="#666666" points="947,-24 792,-24 792,-5 947,-5 947,-24"/>
<text text-anchor="middle" x="869.5" y="-12" font-family="Helvetica,sans-Serif" font-size="10.00">SceneManager::setSelectFor</text>
</a>
</g>
</g>
<!-- Node1&#45;&gt;Node5 -->
<g id="edge4_Node000001_Node000005" class="edge">
<title>Node1&#45;&gt;Node5</title>
<g id="a_edge4_Node000001_Node000005"><a xlink:title=" ">
<path fill="none" stroke="#63b8ff" d="M972.93,-24.72C964.33,-23.86 955.65,-22.99 947.18,-22.15"/>
<polygon fill="#63b8ff" stroke="#63b8ff" points="972.67,-28.21 982.97,-25.72 973.36,-21.24 972.67,-28.21"/>
</a>
</g>
</g>
<!-- Node3 -->
<g id="Node000003" class="node">
<title>Node3</title>
<g id="a_Node000003"><a xlink:href="classOpenGLWindow.html#a3db5152769ffded2ba4de8b6563c205a" target="_top" xlink:title=" ">
<polygon fill="white" stroke="#666666" points="550,-115.5 392,-115.5 392,-85.5 550,-85.5 550,-115.5"/>
<text text-anchor="start" x="400" y="-103.5" font-family="Helvetica,sans-Serif" font-size="10.00">OpenGLWindow::mousePress</text>
<text text-anchor="middle" x="471" y="-92.5" font-family="Helvetica,sans-Serif" font-size="10.00">Event</text>
</a>
</g>
</g>
<!-- Node2&#45;&gt;Node3 -->
<g id="edge2_Node000002_Node000003" class="edge">
<title>Node2&#45;&gt;Node3</title>
<g id="a_edge2_Node000002_Node000003"><a xlink:title=" ">
<path fill="none" stroke="#63b8ff" d="M599.96,-69.94C578.62,-75.04 555.48,-80.57 534.82,-85.5"/>
<polygon fill="#63b8ff" stroke="#63b8ff" points="601.04,-73.28 609.95,-67.56 599.41,-66.47 601.04,-73.28"/>
</a>
</g>
</g>
<!-- Node4 -->
<g id="Node000004" class="node">
<title>Node4</title>
<g id="a_Node000004"><a xlink:href="classOpenGLWindow.html#a2a95d17daeae3447ca23d4e99c913b73" target="_top" xlink:title=" ">
<polygon fill="white" stroke="#666666" points="556,-67.5 386,-67.5 386,-37.5 556,-37.5 556,-67.5"/>
<text text-anchor="start" x="394" y="-55.5" font-family="Helvetica,sans-Serif" font-size="10.00">OpenGLWindow::mouseRelease</text>
<text text-anchor="middle" x="471" y="-44.5" font-family="Helvetica,sans-Serif" font-size="10.00">Event</text>
</a>
</g>
</g>
<!-- Node2&#45;&gt;Node4 -->
<g id="edge3_Node000002_Node000004" class="edge">
<title>Node2&#45;&gt;Node4</title>
<g id="a_edge3_Node000002_Node000004"><a xlink:title=" ">
<path fill="none" stroke="#63b8ff" d="M583.58,-52.5C574.42,-52.5 565.14,-52.5 556.05,-52.5"/>
<polygon fill="#63b8ff" stroke="#63b8ff" points="583.85,-56 593.85,-52.5 583.85,-49 583.85,-56"/>
</a>
</g>
</g>
<!-- Node5&#45;&gt;Node2 -->
<g id="edge5_Node000005_Node000002" class="edge">
<title>Node5&#45;&gt;Node2</title>
<g id="a_edge5_Node000005_Node000002"><a xlink:title=" ">
<path fill="none" stroke="#63b8ff" d="M809.75,-26.04C791.46,-29.63 771.01,-33.64 751.68,-37.44"/>
<polygon fill="#63b8ff" stroke="#63b8ff" points="810.53,-29.45 819.67,-24.09 809.18,-22.58 810.53,-29.45"/>
</a>
</g>
</g>
<!-- Node6 -->
<g id="Node000006" class="node">
<title>Node6</title>
<g id="a_Node000006"><a xlink:href="classSceneSerializer.html#a490f2bd87e7c9459ee47be974653b433" target="_top" xlink:title=" ">
<polygon fill="white" stroke="#666666" points="756,-19 592,-19 592,0 756,0 756,-19"/>
<text text-anchor="middle" x="674" y="-7" font-family="Helvetica,sans-Serif" font-size="10.00">SceneSerializer::loadFromJson</text>
</a>
</g>
</g>
<!-- Node5&#45;&gt;Node6 -->
<g id="edge6_Node000005_Node000006" class="edge">
<title>Node5&#45;&gt;Node6</title>
<g id="a_edge6_Node000005_Node000006"><a xlink:title=" ">
<path fill="none" stroke="#63b8ff" d="M781.5,-12.25C773.05,-12.03 764.5,-11.81 756.11,-11.6"/>
<polygon fill="#63b8ff" stroke="#63b8ff" points="781.66,-15.76 791.75,-12.52 781.84,-8.76 781.66,-15.76"/>
</a>
</g>
</g>
<!-- Node7 -->
<g id="Node000007" class="node">
<title>Node7</title>
<g id="a_Node000007"><a xlink:href="classSceneManager.html#a7b7b0a022dcce523178e8414fb8e4463" target="_top" xlink:title=" ">
<polygon fill="white" stroke="#666666" points="543.5,-19 398.5,-19 398.5,0 543.5,0 543.5,-19"/>
<text text-anchor="middle" x="471" y="-7" font-family="Helvetica,sans-Serif" font-size="10.00">SceneManager::loadScene</text>
</a>
</g>
</g>
<!-- Node6&#45;&gt;Node7 -->
<g id="edge7_Node000006_Node000007" class="edge">
<title>Node6&#45;&gt;Node7</title>
<g id="a_edge7_Node000006_Node000007"><a xlink:title=" ">
<path fill="none" stroke="#63b8ff" d="M581.68,-9.5C568.97,-9.5 556.05,-9.5 543.77,-9.5"/>
<polygon fill="#63b8ff" stroke="#63b8ff" points="581.83,-13 591.82,-9.5 581.82,-6 581.83,-13"/>
</a>
</g>
</g>
<!-- Node8 -->
<g id="Node000008" class="node">
<title>Node8</title>
<g id="a_Node000008"><a xlink:href="classSceneManager.html#a59f13c06bf3f19d5e543502a0ddd0467" target="_top" xlink:title=" ">
<polygon fill="white" stroke="#666666" points="350,-19 172,-19 172,0 350,0 350,-19"/>
<text text-anchor="middle" x="261" y="-7" font-family="Helvetica,sans-Serif" font-size="10.00">SceneManager::processHeldKeys</text>
</a>
</g>
</g>
<!-- Node7&#45;&gt;Node8 -->
<g id="edge8_Node000007_Node000008" class="edge">
<title>Node7&#45;&gt;Node8</title>
<g id="a_edge8_Node000007_Node000008"><a xlink:title=" ">
<path fill="none" stroke="#63b8ff" d="M388.1,-9.5C375.68,-9.5 362.81,-9.5 350.26,-9.5"/>
<polygon fill="#63b8ff" stroke="#63b8ff" points="388.42,-13 398.42,-9.5 388.42,-6 388.42,-13"/>
</a>
</g>
</g>
<!-- Node9 -->
<g id="Node000009" class="node">
<title>Node9</title>
<g id="a_Node000009"><a xlink:href="classOpenGLWindow.html#aea9ee69010d8451ab00cd488a8c6717d" target="_top" xlink:title=" ">
<polygon fill="white" stroke="#666666" points="136,-19 0,-19 0,0 136,0 136,-19"/>
<text text-anchor="middle" x="68" y="-7" font-family="Helvetica,sans-Serif" font-size="10.00">OpenGLWindow::paintGL</text>
</a>
</g>
</g>
<!-- Node8&#45;&gt;Node9 -->
<g id="edge9_Node000008_Node000009" class="edge">
<title>Node8&#45;&gt;Node9</title>
<g id="a_edge9_Node000008_Node000009"><a xlink:title=" ">
<path fill="none" stroke="#63b8ff" d="M161.6,-9.5C152.94,-9.5 144.32,-9.5 136,-9.5"/>
<polygon fill="#63b8ff" stroke="#63b8ff" points="161.77,-13 171.77,-9.5 161.77,-6 161.77,-13"/>
</a>
</g>
</g>
</g>
</svg>
