<?xml version="1.0" encoding="UTF-8" standalone="no"?>
<!DOCTYPE svg PUBLIC "-//W3C//DTD SVG 1.1//EN"
 "http://www.w3.org/Graphics/SVG/1.1/DTD/svg11.dtd">
<!-- Generated by graphviz version 2.43.0 (0)
 -->
<!-- Title: SceneManager::focusObject Pages: 1 -->
<!--zoomable 176 -->

<svg id="main" version="1.1" xmlns="http://www.w3.org/2000/svg" xmlns:xlink="http://www.w3.org/1999/xlink" xml:space="preserve" onload="init(evt)">
<style type="text/css"><![CDATA[
.node, .edge {opacity: 0.7;}
.node.selected, .edge.selected {opacity: 1;}
.edge:hover path { stroke: red; }
.edge:hover polygon { stroke: red; fill: red; }
]]></style>

<defs>
  <circle id="rim" cx="0" cy="0" r="7"/>
  <circle id="rim2" cx="0" cy="0" r="3.5"/>
  <g id="zoomPlus">
    <use xlink:href="#rim" fill="#404040"><set attributeName="fill" to="#808080" begin="zoomplus.mouseover" end="zoomplus.mouseout"/></use>
    <path d="M-4,0h8M0,-4v8" fill="none" stroke="white" stroke-width="1.5" pointer-events="none"/>
  </g>
  <g id="zoomMin">
    <use xlink:href="#rim" fill="#404040"><set attributeName="fill" to="#808080" begin="zoomminus.mouseover" end="zoomminus.mouseout"/></use>
    <path d="M-4,0h8" fill="none" stroke="white" stroke-width="1.5" pointer-events="none"/>
  </g>
  <g id="arrowUp" transform="translate(30 24)">
    <use xlink:href="#rim"/>
    <path pointer-events="none" fill="none" stroke="white" stroke-width="1.5" d="M0,-3.0v7 M-2.5,-0.5L0,-3.0L2.5,-0.5"/>
  </g>
  <g id="arrowRight" transform="rotate(90) translate(36 -43)">
    <use xlink:href="#rim"/>
    <path pointer-events="none" fill="none" stroke="white" stroke-width="1.5" d="M0,-3.0v7 M-2.5,-0.5L0,-3.0L2.5,-0.5"/>
  </g>
  <g id="arrowDown" transform="rotate(180) translate(-30 -48)">
    <use xlink:href="#rim"/>
    <path pointer-events="none" fill="none" stroke="white" stroke-width="1.5" d="M0,-3.0v7 M-2.5,-0.5L0,-3.0L2.5,-0.5"/>
  </g>
  <g id="arrowLeft" transform="rotate(270) translate(-36 17)">
    <use xlink:href="#rim"/>
    <path pointer-events="none" fill="none" stroke="white" stroke-width="1.5" d="M0,-3.0v7 M-2.5,-0.5L0,-3.0L2.5,-0.5"/>
  </g>
  <g id="resetDef">
    <use xlink:href="#rim2" fill="#404040"><set attributeName="fill" to="#808080" begin="reset.mouseover" end="reset.mouseout"/></use>
  </g>
</defs>
<script type="application/ecmascript">
var viewWidth = 1127;
var viewHeight = 176;
var sectionId = 'dynsection-21';
</script>
<script type="application/ecmascript" xlink:href="svg.min.js"/>
<svg id="graph" class="graph">
<g id="viewport">
<title>SceneManager::focusObject</title>
<!-- Node1 -->
<g id="Node000001" class="node">
<title>Node1</title>
<g id="a_Node000001"><a xlink:title=" ">
<polygon fill="#999999" stroke="#666666" points="152,-94 0,-94 0,-75 152,-75 152,-94"/>
<text text-anchor="middle" x="76" y="-82" font-family="Helvetica,sans-Serif" font-size="10.00">SceneManager::focusObject</text>
</a>
</g>
</g>
<!-- Node2 -->
<g id="Node000002" class="node">
<title>Node2</title>
<g id="a_Node000002"><a xlink:href="classCamera.html#abcac84fa9ef337ffaa121fff4f9c52f4" target="_top" xlink:title=" ">
<polygon fill="white" stroke="#666666" points="316,-131 215,-131 215,-112 316,-112 316,-131"/>
<text text-anchor="middle" x="265.5" y="-119" font-family="Helvetica,sans-Serif" font-size="10.00">Camera::focusOn</text>
</a>
</g>
</g>
<!-- Node1&#45;&gt;Node2 -->
<g id="edge1_Node000001_Node000002" class="edge">
<title>Node1&#45;&gt;Node2</title>
<g id="a_edge1_Node000001_Node000002"><a xlink:title=" ">
<path fill="none" stroke="#63b8ff" d="M125.29,-94.03C149.9,-98.89 180.04,-104.83 205.97,-109.95"/>
<polygon fill="#63b8ff" stroke="#63b8ff" points="205.56,-113.44 216.05,-111.94 206.92,-106.57 205.56,-113.44"/>
</a>
</g>
</g>
<!-- Node5 -->
<g id="Node000005" class="node">
<title>Node5</title>
<g id="a_Node000005"><a xlink:href="classScene.html#a8ec1e638529f69f716e791ba3ac4d2f7" target="_top" xlink:title=" ">
<polygon fill="white" stroke="#666666" points="318.5,-94 212.5,-94 212.5,-75 318.5,-75 318.5,-94"/>
<text text-anchor="middle" x="265.5" y="-82" font-family="Helvetica,sans-Serif" font-size="10.00">Scene::getCamera</text>
</a>
</g>
</g>
<!-- Node1&#45;&gt;Node5 -->
<g id="edge4_Node000001_Node000005" class="edge">
<title>Node1&#45;&gt;Node5</title>
<g id="a_edge4_Node000001_Node000005"><a xlink:title=" ">
<path fill="none" stroke="#63b8ff" d="M152.18,-84.5C168.73,-84.5 186.08,-84.5 202.06,-84.5"/>
<polygon fill="#63b8ff" stroke="#63b8ff" points="202.34,-88 212.34,-84.5 202.34,-81 202.34,-88"/>
</a>
</g>
</g>
<!-- Node6 -->
<g id="Node000006" class="node">
<title>Node6</title>
<g id="a_Node000006"><a xlink:href="classSceneManager.html#a63d3a08f13b314ed1d871f598f26534d" target="_top" xlink:title=" ">
<polygon fill="white" stroke="#666666" points="343,-57 188,-57 188,-38 343,-38 343,-57"/>
<text text-anchor="middle" x="265.5" y="-45" font-family="Helvetica,sans-Serif" font-size="10.00">SceneManager::selectObject</text>
</a>
</g>
</g>
<!-- Node1&#45;&gt;Node6 -->
<g id="edge5_Node000001_Node000006" class="edge">
<title>Node1&#45;&gt;Node6</title>
<g id="a_edge5_Node000001_Node000006"><a xlink:title=" ">
<path fill="none" stroke="#63b8ff" d="M125.29,-74.97C149.9,-70.11 180.04,-64.17 205.97,-59.05"/>
<polygon fill="#63b8ff" stroke="#63b8ff" points="206.92,-62.43 216.05,-57.06 205.56,-55.56 206.92,-62.43"/>
</a>
</g>
</g>
<!-- Node3 -->
<g id="Node000003" class="node">
<title>Node3</title>
<g id="a_Node000003"><a xlink:href="classSceneObject.html#a3d1aa613dd4f4ee6947754a355a48cc9" target="_top" xlink:title=" ">
<polygon fill="white" stroke="#666666" points="526,-131 388,-131 388,-112 526,-112 526,-131"/>
<text text-anchor="middle" x="457" y="-119" font-family="Helvetica,sans-Serif" font-size="10.00">SceneObject::getPosition</text>
</a>
</g>
</g>
<!-- Node2&#45;&gt;Node3 -->
<g id="edge2_Node000002_Node000003" class="edge">
<title>Node2&#45;&gt;Node3</title>
<g id="a_edge2_Node000002_Node000003"><a xlink:title=" ">
<path fill="none" stroke="#63b8ff" d="M316.29,-121.5C335.04,-121.5 356.85,-121.5 377.59,-121.5"/>
<polygon fill="#63b8ff" stroke="#63b8ff" points="377.67,-125 387.67,-121.5 377.67,-118 377.67,-125"/>
</a>
</g>
</g>
<!-- Node4 -->
<g id="Node000004" class="node">
<title>Node4</title>
<g id="a_Node000004"><a xlink:href="classSceneObject.html#a43bf76c6717d9210f576852aee2297c7" target="_top" xlink:title=" ">
<polygon fill="white" stroke="#666666" points="519.5,-168 394.5,-168 394.5,-149 519.5,-149 519.5,-168"/>
<text text-anchor="middle" x="457" y="-156" font-family="Helvetica,sans-Serif" font-size="10.00">SceneObject::getScale</text>
</a>
</g>
</g>
<!-- Node2&#45;&gt;Node4 -->
<g id="edge3_Node000002_Node000004" class="edge">
<title>Node2&#45;&gt;Node4</title>
<g id="a_edge3_Node000002_Node000004"><a xlink:title=" ">
<path fill="none" stroke="#63b8ff" d="M315.3,-131.03C340.29,-135.91 370.91,-141.89 397.19,-147.02"/>
<polygon fill="#63b8ff" stroke="#63b8ff" points="396.55,-150.46 407.04,-148.94 397.89,-143.59 396.55,-150.46"/>
</a>
</g>
</g>
<!-- Node7 -->
<g id="Node000007" class="node">
<title>Node7</title>
<g id="a_Node000007"><a xlink:href="classSceneManager.html#a25bec2896954b4f0c3bed8ef736993d3" target="_top" xlink:title=" ">
<polygon fill="white" stroke="#666666" points="730.5,-19 572.5,-19 572.5,0 730.5,0 730.5,-19"/>
<text text-anchor="middle" x="651.5" y="-7" font-family="Helvetica,sans-Serif" font-size="10.00">SceneManager::selectedItem</text>
</a>
</g>
</g>
<!-- Node6&#45;&gt;Node7 -->
<g id="edge6_Node000006_Node000007" class="edge">
<title>Node6&#45;&gt;Node7</title>
<g id="a_edge6_Node000006_Node000007"><a xlink:title=" ">
<path fill="none" stroke="#63b8ff" d="M316.47,-37.99C335.93,-34.56 358.45,-30.95 379,-28.5 440.05,-21.23 509.18,-16.44 562.4,-13.49"/>
<polygon fill="#63b8ff" stroke="#63b8ff" points="562.69,-16.98 572.49,-12.94 562.31,-9.99 562.69,-16.98"/>
</a>
</g>
</g>
<!-- Node8 -->
<g id="Node000008" class="node">
<title>Node8</title>
<g id="a_Node000008"><a xlink:href="classSceneManager.html#a490d6eddd6ef23ffd8f283582a2d7d88" target="_top" xlink:title=" ">
<polygon fill="white" stroke="#666666" points="535,-94 379,-94 379,-75 535,-75 535,-94"/>
<text text-anchor="middle" x="457" y="-82" font-family="Helvetica,sans-Serif" font-size="10.00">SceneManager::setGizmoFor</text>
</a>
</g>
</g>
<!-- Node6&#45;&gt;Node8 -->
<g id="edge7_Node000006_Node000008" class="edge">
<title>Node6&#45;&gt;Node8</title>
<g id="a_edge7_Node000006_Node000008"><a xlink:title=" ">
<path fill="none" stroke="#63b8ff" d="M315.3,-57.03C340.29,-61.91 370.91,-67.89 397.19,-73.02"/>
<polygon fill="#63b8ff" stroke="#63b8ff" points="396.55,-76.46 407.04,-74.94 397.89,-69.59 396.55,-76.46"/>
</a>
</g>
</g>
<!-- Node13 -->
<g id="Node000013" class="node">
<title>Node13</title>
<g id="a_Node000013"><a xlink:href="classSceneManager.html#af40d0ff3e76f89bbf5504f1694814179" target="_top" xlink:title=" ">
<polygon fill="white" stroke="#666666" points="534.5,-57 379.5,-57 379.5,-38 534.5,-38 534.5,-57"/>
<text text-anchor="middle" x="457" y="-45" font-family="Helvetica,sans-Serif" font-size="10.00">SceneManager::setSelectFor</text>
</a>
</g>
</g>
<!-- Node6&#45;&gt;Node13 -->
<g id="edge12_Node000006_Node000013" class="edge">
<title>Node6&#45;&gt;Node13</title>
<g id="a_edge12_Node000006_Node000013"><a xlink:title=" ">
<path fill="none" stroke="#63b8ff" d="M343.03,-47.5C351.67,-47.5 360.52,-47.5 369.27,-47.5"/>
<polygon fill="#63b8ff" stroke="#63b8ff" points="369.49,-51 379.49,-47.5 369.49,-44 369.49,-51"/>
</a>
</g>
</g>
<!-- Node9 -->
<g id="Node000009" class="node">
<title>Node9</title>
<g id="a_Node000009"><a xlink:href="classSceneManager.html#a99992b526976863d1dab7dc88cc6ec2a" target="_top" xlink:title=" ">
<polygon fill="white" stroke="#666666" points="732,-104.5 571,-104.5 571,-74.5 732,-74.5 732,-104.5"/>
<text text-anchor="start" x="579" y="-92.5" font-family="Helvetica,sans-Serif" font-size="10.00">SceneManager::deleteCurrent</text>
<text text-anchor="middle" x="651.5" y="-81.5" font-family="Helvetica,sans-Serif" font-size="10.00">Gizmo</text>
</a>
</g>
</g>
<!-- Node8&#45;&gt;Node9 -->
<g id="edge8_Node000008_Node000009" class="edge">
<title>Node8&#45;&gt;Node9</title>
<g id="a_edge8_Node000008_Node000009"><a xlink:title=" ">
<path fill="none" stroke="#63b8ff" d="M535.19,-86.5C543.52,-86.72 552.04,-86.94 560.51,-87.16"/>
<polygon fill="#63b8ff" stroke="#63b8ff" points="560.69,-90.67 570.78,-87.43 560.87,-83.67 560.69,-90.67"/>
</a>
</g>
</g>
<!-- Node10 -->
<g id="Node000010" class="node">
<title>Node10</title>
<g id="a_Node000010"><a xlink:href="classSceneManager.html#ab7c34393bb10361069b0ea73ec2797f8" target="_top" xlink:title=" ">
<polygon fill="white" stroke="#666666" points="947,-118 768,-118 768,-99 947,-99 947,-118"/>
<text text-anchor="middle" x="857.5" y="-106" font-family="Helvetica,sans-Serif" font-size="10.00">SceneManager::removeDrawable</text>
</a>
</g>
</g>
<!-- Node9&#45;&gt;Node10 -->
<g id="edge9_Node000009_Node000010" class="edge">
<title>Node9&#45;&gt;Node10</title>
<g id="a_edge9_Node000009_Node000010"><a xlink:title=" ">
<path fill="none" stroke="#63b8ff" d="M732.25,-96.93C740.6,-97.71 749.16,-98.5 757.7,-99.3"/>
<polygon fill="#63b8ff" stroke="#63b8ff" points="757.4,-102.79 767.69,-100.23 758.05,-95.82 757.4,-102.79"/>
</a>
</g>
</g>
<!-- Node12 -->
<g id="Node000012" class="node">
<title>Node12</title>
<g id="a_Node000012"><a xlink:href="classSceneManager.html#a1c647e38474ee02d5dd8510bc2313c38" target="_top" xlink:title=" ">
<polygon fill="white" stroke="#666666" points="944,-81 771,-81 771,-62 944,-62 944,-81"/>
<text text-anchor="middle" x="857.5" y="-69" font-family="Helvetica,sans-Serif" font-size="10.00">SceneManager::removePickable</text>
</a>
</g>
</g>
<!-- Node9&#45;&gt;Node12 -->
<g id="edge11_Node000009_Node000012" class="edge">
<title>Node9&#45;&gt;Node12</title>
<g id="a_edge11_Node000009_Node000012"><a xlink:title=" ">
<path fill="none" stroke="#63b8ff" d="M732.25,-82.46C741.52,-81.65 751.05,-80.8 760.52,-79.97"/>
<polygon fill="#63b8ff" stroke="#63b8ff" points="761.09,-83.43 770.74,-79.07 760.47,-76.46 761.09,-83.43"/>
</a>
</g>
</g>
<!-- Node11 -->
<g id="Node000011" class="node">
<title>Node11</title>
<g id="a_Node000011"><a xlink:href="classScene.html#a398bf0981ca0b3f5ade648b1d95513cc" target="_top" xlink:title=" ">
<polygon fill="white" stroke="#666666" points="1119,-118 983,-118 983,-99 1119,-99 1119,-118"/>
<text text-anchor="middle" x="1051" y="-106" font-family="Helvetica,sans-Serif" font-size="10.00">Scene::removeDrawable</text>
</a>
</g>
</g>
<!-- Node10&#45;&gt;Node11 -->
<g id="edge10_Node000010_Node000011" class="edge">
<title>Node10&#45;&gt;Node11</title>
<g id="a_edge10_Node000010_Node000011"><a xlink:title=" ">
<path fill="none" stroke="#63b8ff" d="M947.24,-108.5C955.73,-108.5 964.29,-108.5 972.65,-108.5"/>
<polygon fill="#63b8ff" stroke="#63b8ff" points="972.74,-112 982.74,-108.5 972.74,-105 972.74,-112"/>
</a>
</g>
</g>
<!-- Node13&#45;&gt;Node7 -->
<g id="edge15_Node000013_Node000007" class="edge">
<title>Node13&#45;&gt;Node7</title>
<g id="a_edge15_Node000013_Node000007"><a xlink:title=" ">
<path fill="none" stroke="#63b8ff" d="M506.58,-37.91C532.66,-32.76 565.01,-26.38 592.42,-20.97"/>
<polygon fill="#63b8ff" stroke="#63b8ff" points="593.14,-24.39 602.27,-19.02 591.78,-17.52 593.14,-24.39"/>
</a>
</g>
</g>
<!-- Node13&#45;&gt;Node9 -->
<g id="edge13_Node000013_Node000009" class="edge">
<title>Node13&#45;&gt;Node9</title>
<g id="a_edge13_Node000013_Node000009"><a xlink:title=" ">
<path fill="none" stroke="#63b8ff" d="M501.68,-57.03C522.45,-61.56 547.92,-67.12 571.89,-72.35"/>
<polygon fill="#63b8ff" stroke="#63b8ff" points="571.18,-75.78 581.69,-74.49 572.67,-68.94 571.18,-75.78"/>
</a>
</g>
</g>
<!-- Node14 -->
<g id="Node000014" class="node">
<title>Node14</title>
<g id="a_Node000014"><a xlink:href="classSceneObject.html#ad77f12eb793b32da2ef40f0042cb1de8" target="_top" xlink:title="Gets the unique identifier for this object.">
<polygon fill="white" stroke="#666666" points="722,-56 581,-56 581,-37 722,-37 722,-56"/>
<text text-anchor="middle" x="651.5" y="-44" font-family="Helvetica,sans-Serif" font-size="10.00">SceneObject::getObjectID</text>
</a>
</g>
</g>
<!-- Node13&#45;&gt;Node14 -->
<g id="edge14_Node000013_Node000014" class="edge">
<title>Node13&#45;&gt;Node14</title>
<g id="a_edge14_Node000013_Node000014"><a xlink:title=" ">
<path fill="none" stroke="#63b8ff" d="M534.63,-47.1C546.47,-47.04 558.73,-46.98 570.64,-46.91"/>
<polygon fill="#63b8ff" stroke="#63b8ff" points="571.01,-50.41 580.99,-46.86 570.97,-43.41 571.01,-50.41"/>
</a>
</g>
</g>
</g>
</svg>

<g id="navigator" transform="translate(0 0)" fill="#404254">
  <rect fill="#f2f5e9" fill-opacity="0.5" stroke="#606060" stroke-width=".5" x="0" y="0" width="60" height="60"/>
  <use id="zoomplus" xlink:href="#zoomPlus" x="17" y="9" onmousedown="handleZoom(evt,'in')"/>
  <use id="zoomminus" xlink:href="#zoomMin" x="42" y="9" onmousedown="handleZoom(evt,'out')"/>
  <use id="reset" xlink:href="#resetDef" x="30" y="36" onmousedown="handleReset()"/>
   <use id="arrowup" xlink:href="#arrowUp" x="0" y="0" onmousedown="handlePan(0,-1)"/>
  <use id="arrowright" xlink:href="#arrowRight" x="0" y="0" onmousedown="handlePan(1,0)"/>
  <use id="arrowdown" xlink:href="#arrowDown" x="0" y="0" onmousedown="handlePan(0,1)"/>
  <use id="arrowleft" xlink:href="#arrowLeft" x="0" y="0" onmousedown="handlePan(-1,0)"/>
</g>
<svg viewBox="0 0 15 15" width="100%" height="30px" preserveAspectRatio="xMaxYMin meet">
 <g id="arrow_out" transform="scale(0.3 0.3)">
  <a xlink:href="classSceneManager_a2c5088464b489b31f23e0791e2b9c0b0_cgraph_org.svg" target="_base">
   <rect id="button" ry="5" rx="5" y="6" x="6" height="38" width="38"
        fill="#f2f5e9" fill-opacity="0.5" stroke="#606060" stroke-width="1.0"/>
   <path id="arrow"
     d="M 11.500037,31.436501 C 11.940474,20.09759 22.043105,11.32322 32.158766,21.979434 L 37.068811,17.246167 C 37.068811,17.246167 37.088388,32 37.088388,32 L 22.160133,31.978069 C 22.160133,31.978069 26.997745,27.140456 26.997745,27.140456 C 18.528582,18.264221 13.291696,25.230495 11.500037,31.436501 z"
     style="fill:#404040;"/>
  </a>
 </g>
</svg>

<style type='text/css'>
<![CDATA[
[data-mouse-over-selected='false'] { opacity: 0.7; }
[data-mouse-over-selected='true']  { opacity: 1.0; }
]]>
</style>
<script type="application/ecmascript"><![CDATA[
document.addEventListener('DOMContentLoaded', (event) => {
  highlightEdges();
  highlightAdjacentNodes();
});
]]></script>
</svg>
