<?xml version="1.0" encoding="UTF-8" standalone="no"?>
<!DOCTYPE svg PUBLIC "-//W3C//DTD SVG 1.1//EN"
 "http://www.w3.org/Graphics/SVG/1.1/DTD/svg11.dtd">
<!-- Generated by graphviz version 2.43.0 (0)
 -->
<!-- Title: SceneManager::removePickable Pages: 1 -->
<!--zoomable 336 -->

<svg id="main" version="1.1" xmlns="http://www.w3.org/2000/svg" xmlns:xlink="http://www.w3.org/1999/xlink" xml:space="preserve" onload="init(evt)">
<style type="text/css"><![CDATA[
.node, .edge {opacity: 0.7;}
.node.selected, .edge.selected {opacity: 1;}
.edge:hover path { stroke: red; }
.edge:hover polygon { stroke: red; fill: red; }
]]></style>

<defs>
  <circle id="rim" cx="0" cy="0" r="7"/>
  <circle id="rim2" cx="0" cy="0" r="3.5"/>
  <g id="zoomPlus">
    <use xlink:href="#rim" fill="#404040"><set attributeName="fill" to="#808080" begin="zoomplus.mouseover" end="zoomplus.mouseout"/></use>
    <path d="M-4,0h8M0,-4v8" fill="none" stroke="white" stroke-width="1.5" pointer-events="none"/>
  </g>
  <g id="zoomMin">
    <use xlink:href="#rim" fill="#404040"><set attributeName="fill" to="#808080" begin="zoomminus.mouseover" end="zoomminus.mouseout"/></use>
    <path d="M-4,0h8" fill="none" stroke="white" stroke-width="1.5" pointer-events="none"/>
  </g>
  <g id="arrowUp" transform="translate(30 24)">
    <use xlink:href="#rim"/>
    <path pointer-events="none" fill="none" stroke="white" stroke-width="1.5" d="M0,-3.0v7 M-2.5,-0.5L0,-3.0L2.5,-0.5"/>
  </g>
  <g id="arrowRight" transform="rotate(90) translate(36 -43)">
    <use xlink:href="#rim"/>
    <path pointer-events="none" fill="none" stroke="white" stroke-width="1.5" d="M0,-3.0v7 M-2.5,-0.5L0,-3.0L2.5,-0.5"/>
  </g>
  <g id="arrowDown" transform="rotate(180) translate(-30 -48)">
    <use xlink:href="#rim"/>
    <path pointer-events="none" fill="none" stroke="white" stroke-width="1.5" d="M0,-3.0v7 M-2.5,-0.5L0,-3.0L2.5,-0.5"/>
  </g>
  <g id="arrowLeft" transform="rotate(270) translate(-36 17)">
    <use xlink:href="#rim"/>
    <path pointer-events="none" fill="none" stroke="white" stroke-width="1.5" d="M0,-3.0v7 M-2.5,-0.5L0,-3.0L2.5,-0.5"/>
  </g>
  <g id="resetDef">
    <use xlink:href="#rim2" fill="#404040"><set attributeName="fill" to="#808080" begin="reset.mouseover" end="reset.mouseout"/></use>
  </g>
</defs>
<script type="application/ecmascript">
var viewWidth = 1763;
var viewHeight = 336;
var sectionId = 'dynsection-46';
</script>
<script type="application/ecmascript" xlink:href="svg.min.js"/>
<svg id="graph" class="graph">
<g id="viewport">
<title>SceneManager::removePickable</title>
<!-- Node1 -->
<g id="Node000001" class="node">
<title>Node1</title>
<g id="a_Node000001"><a xlink:title=" ">
<polygon fill="#999999" stroke="#666666" points="1755,-270.5 1582,-270.5 1582,-251.5 1755,-251.5 1755,-270.5"/>
<text text-anchor="middle" x="1668.5" y="-258.5" font-family="Helvetica,sans-Serif" font-size="10.00">SceneManager::removePickable</text>
</a>
</g>
</g>
<!-- Node2 -->
<g id="Node000002" class="node">
<title>Node2</title>
<g id="a_Node000002"><a xlink:href="classSceneManager.html#acfea563d3849e3c8c09fc3febe9ae1e2" target="_top" xlink:title=" ">
<polygon fill="white" stroke="#666666" points="727.5,-288.5 570.5,-288.5 570.5,-269.5 727.5,-269.5 727.5,-288.5"/>
<text text-anchor="middle" x="649" y="-276.5" font-family="Helvetica,sans-Serif" font-size="10.00">SceneManager::defaultSetup</text>
</a>
</g>
</g>
<!-- Node1&#45;&gt;Node2 -->
<g id="edge1_Node000001_Node000002" class="edge">
<title>Node1&#45;&gt;Node2</title>
<g id="a_edge1_Node000001_Node000002"><a xlink:title=" ">
<path fill="none" stroke="#63b8ff" d="M1624.52,-273.14C1552.25,-292.45 1401.53,-328 1271.5,-328 1271.5,-328 1271.5,-328 1067.5,-328 933.68,-328 899.17,-329.93 767,-309 737.38,-304.31 704.35,-295.5 680.95,-288.63"/>
<polygon fill="#63b8ff" stroke="#63b8ff" points="1625.44,-276.52 1634.18,-270.53 1623.62,-269.76 1625.44,-276.52"/>
</a>
</g>
</g>
<!-- Node3 -->
<g id="Node000003" class="node">
<title>Node3</title>
<g id="a_Node000003"><a xlink:href="classSceneManager.html#a99992b526976863d1dab7dc88cc6ec2a" target="_top" xlink:title=" ">
<polygon fill="white" stroke="#666666" points="1546,-228 1385,-228 1385,-198 1546,-198 1546,-228"/>
<text text-anchor="start" x="1393" y="-216" font-family="Helvetica,sans-Serif" font-size="10.00">SceneManager::deleteCurrent</text>
<text text-anchor="middle" x="1465.5" y="-205" font-family="Helvetica,sans-Serif" font-size="10.00">Gizmo</text>
</a>
</g>
</g>
<!-- Node1&#45;&gt;Node3 -->
<g id="edge2_Node000001_Node000003" class="edge">
<title>Node1&#45;&gt;Node3</title>
<g id="a_edge2_Node000001_Node000003"><a xlink:title=" ">
<path fill="none" stroke="#63b8ff" d="M1617.45,-249.05C1590.86,-242.7 1557.9,-234.83 1529.58,-228.06"/>
<polygon fill="#63b8ff" stroke="#63b8ff" points="1616.77,-252.48 1627.31,-251.4 1618.39,-245.67 1616.77,-252.48"/>
</a>
</g>
</g>
<!-- Node4 -->
<g id="Node000004" class="node">
<title>Node4</title>
<g id="a_Node000004"><a xlink:href="classSceneManager.html#a4543114007c5bb40ddab62cd9f2ac613" target="_top" xlink:title=" ">
<polygon fill="white" stroke="#666666" points="1349,-241.5 1192,-241.5 1192,-222.5 1349,-222.5 1349,-241.5"/>
<text text-anchor="middle" x="1270.5" y="-229.5" font-family="Helvetica,sans-Serif" font-size="10.00">SceneManager::deleteObject</text>
</a>
</g>
</g>
<!-- Node3&#45;&gt;Node4 -->
<g id="edge3_Node000003_Node000004" class="edge">
<title>Node3&#45;&gt;Node4</title>
<g id="a_edge3_Node000003_Node000004"><a xlink:title=" ">
<path fill="none" stroke="#63b8ff" d="M1374.83,-221.83C1366.22,-222.67 1357.54,-223.53 1349.07,-224.36"/>
<polygon fill="#63b8ff" stroke="#63b8ff" points="1375.28,-225.3 1384.89,-220.84 1374.59,-218.33 1375.28,-225.3"/>
</a>
</g>
</g>
<!-- Node12 -->
<g id="Node000012" class="node">
<title>Node12</title>
<g id="a_Node000012"><a xlink:href="classSceneManager.html#a490d6eddd6ef23ffd8f283582a2d7d88" target="_top" xlink:title=" ">
<polygon fill="white" stroke="#666666" points="1348.5,-90.5 1192.5,-90.5 1192.5,-71.5 1348.5,-71.5 1348.5,-90.5"/>
<text text-anchor="middle" x="1270.5" y="-78.5" font-family="Helvetica,sans-Serif" font-size="10.00">SceneManager::setGizmoFor</text>
</a>
</g>
</g>
<!-- Node3&#45;&gt;Node12 -->
<g id="edge12_Node000003_Node000012" class="edge">
<title>Node3&#45;&gt;Node12</title>
<g id="a_edge12_Node000003_Node000012"><a xlink:title=" ">
<path fill="none" stroke="#63b8ff" d="M1433.85,-192.03C1391.52,-163.09 1316.89,-112.04 1285.76,-90.75"/>
<polygon fill="#63b8ff" stroke="#63b8ff" points="1432.13,-195.1 1442.36,-197.86 1436.08,-189.32 1432.13,-195.1"/>
</a>
</g>
</g>
<!-- Node19 -->
<g id="Node000019" class="node">
<title>Node19</title>
<g id="a_Node000019"><a xlink:href="classSceneManager.html#af40d0ff3e76f89bbf5504f1694814179" target="_top" xlink:title=" ">
<polygon fill="white" stroke="#666666" points="1348,-203.5 1193,-203.5 1193,-184.5 1348,-184.5 1348,-203.5"/>
<text text-anchor="middle" x="1270.5" y="-191.5" font-family="Helvetica,sans-Serif" font-size="10.00">SceneManager::setSelectFor</text>
</a>
</g>
</g>
<!-- Node3&#45;&gt;Node19 -->
<g id="edge22_Node000003_Node000019" class="edge">
<title>Node3&#45;&gt;Node19</title>
<g id="a_edge22_Node000003_Node000019"><a xlink:title=" ">
<path fill="none" stroke="#63b8ff" d="M1374.85,-204.17C1365.92,-203.3 1356.92,-202.41 1348.14,-201.54"/>
<polygon fill="#63b8ff" stroke="#63b8ff" points="1374.59,-207.67 1384.89,-205.16 1375.28,-200.7 1374.59,-207.67"/>
</a>
</g>
</g>
<!-- Node5 -->
<g id="Node000005" class="node">
<title>Node5</title>
<g id="a_Node000005"><a xlink:href="classSceneManager.html#a53736fa499987ffff612d3ee7c85442c" target="_top" xlink:title=" ">
<polygon fill="white" stroke="#666666" points="1156,-241.5 981,-241.5 981,-222.5 1156,-222.5 1156,-241.5"/>
<text text-anchor="middle" x="1068.5" y="-229.5" font-family="Helvetica,sans-Serif" font-size="10.00">SceneManager::deleteAllObjects</text>
</a>
</g>
</g>
<!-- Node4&#45;&gt;Node5 -->
<g id="edge4_Node000004_Node000005" class="edge">
<title>Node4&#45;&gt;Node5</title>
<g id="a_edge4_Node000004_Node000005"><a xlink:title=" ">
<path fill="none" stroke="#63b8ff" d="M1181.89,-232C1173.31,-232 1164.6,-232 1156.03,-232"/>
<polygon fill="#63b8ff" stroke="#63b8ff" points="1181.89,-235.5 1191.89,-232 1181.89,-228.5 1181.89,-235.5"/>
</a>
</g>
</g>
<!-- Node6 -->
<g id="Node000006" class="node">
<title>Node6</title>
<g id="a_Node000006"><a xlink:href="classSceneManager.html#a8774b3322c2d86c6f1f2e0a8a9896af1" target="_top" xlink:title=" ">
<polygon fill="white" stroke="#666666" points="930.5,-203.5 781.5,-203.5 781.5,-184.5 930.5,-184.5 930.5,-203.5"/>
<text text-anchor="middle" x="856" y="-191.5" font-family="Helvetica,sans-Serif" font-size="10.00">SceneManager::resetScene</text>
</a>
</g>
</g>
<!-- Node5&#45;&gt;Node6 -->
<g id="edge5_Node000005_Node000006" class="edge">
<title>Node5&#45;&gt;Node6</title>
<g id="a_edge5_Node000005_Node000006"><a xlink:title=" ">
<path fill="none" stroke="#63b8ff" d="M1004.64,-220.65C974.44,-215.2 938.65,-208.74 909.87,-203.54"/>
<polygon fill="#63b8ff" stroke="#63b8ff" points="1004.19,-224.13 1014.65,-222.46 1005.43,-217.24 1004.19,-224.13"/>
</a>
</g>
</g>
<!-- Node6&#45;&gt;Node2 -->
<g id="edge6_Node000006_Node000002" class="edge">
<title>Node6&#45;&gt;Node2</title>
<g id="a_edge6_Node000006_Node000002"><a xlink:title=" ">
<path fill="none" stroke="#63b8ff" d="M788.42,-206.13C781.1,-208.12 773.83,-210.4 767,-213 727.32,-228.08 684.93,-255.07 663.73,-269.42"/>
<polygon fill="#63b8ff" stroke="#63b8ff" points="789.58,-209.45 798.4,-203.58 787.85,-202.66 789.58,-209.45"/>
</a>
</g>
</g>
<!-- Node7 -->
<g id="Node000007" class="node">
<title>Node7</title>
<g id="a_Node000007"><a xlink:href="classSceneSerializer.html#a490f2bd87e7c9459ee47be974653b433" target="_top" xlink:title=" ">
<polygon fill="white" stroke="#666666" points="731,-143.5 567,-143.5 567,-124.5 731,-124.5 731,-143.5"/>
<text text-anchor="middle" x="649" y="-131.5" font-family="Helvetica,sans-Serif" font-size="10.00">SceneSerializer::loadFromJson</text>
</a>
</g>
</g>
<!-- Node6&#45;&gt;Node7 -->
<g id="edge7_Node000006_Node000007" class="edge">
<title>Node6&#45;&gt;Node7</title>
<g id="a_edge7_Node000006_Node000007"><a xlink:title=" ">
<path fill="none" stroke="#63b8ff" d="M809.3,-181.84C795.67,-178.13 780.71,-173.98 767,-170 737.4,-161.41 703.8,-151 680.22,-143.59"/>
<polygon fill="#63b8ff" stroke="#63b8ff" points="808.39,-185.22 818.96,-184.45 810.22,-178.46 808.39,-185.22"/>
</a>
</g>
</g>
<!-- Node11 -->
<g id="Node000011" class="node">
<title>Node11</title>
<g id="a_Node000011"><a xlink:href="classSceneManager.html#ad9d648b5fb5a92c4612c640fc7cb47fb" target="_top" xlink:title=" ">
<polygon fill="white" stroke="#666666" points="722,-203.5 576,-203.5 576,-184.5 722,-184.5 722,-203.5"/>
<text text-anchor="middle" x="649" y="-191.5" font-family="Helvetica,sans-Serif" font-size="10.00">SceneManager::loadPreset</text>
</a>
</g>
</g>
<!-- Node6&#45;&gt;Node11 -->
<g id="edge11_Node000006_Node000011" class="edge">
<title>Node6&#45;&gt;Node11</title>
<g id="a_edge11_Node000006_Node000011"><a xlink:title=" ">
<path fill="none" stroke="#63b8ff" d="M771.22,-194C754.9,-194 737.93,-194 722.04,-194"/>
<polygon fill="#63b8ff" stroke="#63b8ff" points="771.28,-197.5 781.28,-194 771.28,-190.5 771.28,-197.5"/>
</a>
</g>
</g>
<!-- Node8 -->
<g id="Node000008" class="node">
<title>Node8</title>
<g id="a_Node000008"><a xlink:href="classSceneManager.html#a7b7b0a022dcce523178e8414fb8e4463" target="_top" xlink:title=" ">
<polygon fill="white" stroke="#666666" points="531,-95.5 386,-95.5 386,-76.5 531,-76.5 531,-95.5"/>
<text text-anchor="middle" x="458.5" y="-83.5" font-family="Helvetica,sans-Serif" font-size="10.00">SceneManager::loadScene</text>
</a>
</g>
</g>
<!-- Node7&#45;&gt;Node8 -->
<g id="edge8_Node000007_Node000008" class="edge">
<title>Node7&#45;&gt;Node8</title>
<g id="a_edge8_Node000007_Node000008"><a xlink:title=" ">
<path fill="none" stroke="#63b8ff" d="M596.32,-122.15C586.57,-119.83 576.46,-117.38 567,-115 542.45,-108.81 514.87,-101.36 493.8,-95.56"/>
<polygon fill="#63b8ff" stroke="#63b8ff" points="595.78,-125.61 606.31,-124.5 597.38,-118.8 595.78,-125.61"/>
</a>
</g>
</g>
<!-- Node9 -->
<g id="Node000009" class="node">
<title>Node9</title>
<g id="a_Node000009"><a xlink:href="classSceneManager.html#a59f13c06bf3f19d5e543502a0ddd0467" target="_top" xlink:title=" ">
<polygon fill="white" stroke="#666666" points="350,-28.5 172,-28.5 172,-9.5 350,-9.5 350,-28.5"/>
<text text-anchor="middle" x="261" y="-16.5" font-family="Helvetica,sans-Serif" font-size="10.00">SceneManager::processHeldKeys</text>
</a>
</g>
</g>
<!-- Node8&#45;&gt;Node9 -->
<g id="edge9_Node000008_Node000009" class="edge">
<title>Node8&#45;&gt;Node9</title>
<g id="a_edge9_Node000008_Node000009"><a xlink:title=" ">
<path fill="none" stroke="#63b8ff" d="M419.81,-73.08C381.81,-60.06 324.05,-40.27 289.96,-28.58"/>
<polygon fill="#63b8ff" stroke="#63b8ff" points="418.9,-76.47 429.49,-76.4 421.16,-69.85 418.9,-76.47"/>
</a>
</g>
</g>
<!-- Node10 -->
<g id="Node000010" class="node">
<title>Node10</title>
<g id="a_Node000010"><a xlink:href="classOpenGLWindow.html#aea9ee69010d8451ab00cd488a8c6717d" target="_top" xlink:title=" ">
<polygon fill="white" stroke="#666666" points="136,-28.5 0,-28.5 0,-9.5 136,-9.5 136,-28.5"/>
<text text-anchor="middle" x="68" y="-16.5" font-family="Helvetica,sans-Serif" font-size="10.00">OpenGLWindow::paintGL</text>
</a>
</g>
</g>
<!-- Node9&#45;&gt;Node10 -->
<g id="edge10_Node000009_Node000010" class="edge">
<title>Node9&#45;&gt;Node10</title>
<g id="a_edge10_Node000009_Node000010"><a xlink:title=" ">
<path fill="none" stroke="#63b8ff" d="M161.6,-19C152.94,-19 144.32,-19 136,-19"/>
<polygon fill="#63b8ff" stroke="#63b8ff" points="161.77,-22.5 171.77,-19 161.77,-15.5 161.77,-22.5"/>
</a>
</g>
</g>
<!-- Node12&#45;&gt;Node9 -->
<g id="edge14_Node000012_Node000009" class="edge">
<title>Node12&#45;&gt;Node9</title>
<g id="a_edge14_Node000012_Node000009"><a xlink:title=" ">
<path fill="none" stroke="#63b8ff" d="M1235.7,-67.9C1213.37,-59.69 1183.3,-49.48 1156,-43 1025.37,-12.01 991.26,0 857,0 857,0 857,0 648,0 545.68,0 428.29,-6.74 350.09,-12.19"/>
<polygon fill="#63b8ff" stroke="#63b8ff" points="1234.48,-71.18 1245.07,-71.39 1236.93,-64.62 1234.48,-71.18"/>
</a>
</g>
</g>
<!-- Node13 -->
<g id="Node000013" class="node">
<title>Node13</title>
<g id="a_Node000013"><a xlink:href="classSceneObject.html#a51694b249daac83a466e6acdb08c5554" target="_top" xlink:title="Handles a mouse click on this object.">
<polygon fill="white" stroke="#666666" points="1138.5,-71.5 998.5,-71.5 998.5,-52.5 1138.5,-52.5 1138.5,-71.5"/>
<text text-anchor="middle" x="1068.5" y="-59.5" font-family="Helvetica,sans-Serif" font-size="10.00">SceneObject::handleClick</text>
</a>
</g>
</g>
<!-- Node12&#45;&gt;Node13 -->
<g id="edge13_Node000012_Node000013" class="edge">
<title>Node12&#45;&gt;Node13</title>
<g id="a_edge13_Node000012_Node000013"><a xlink:title=" ">
<path fill="none" stroke="#63b8ff" d="M1182.4,-72.73C1167.77,-71.34 1152.76,-69.91 1138.65,-68.57"/>
<polygon fill="#63b8ff" stroke="#63b8ff" points="1182.17,-76.22 1192.46,-73.68 1182.84,-69.25 1182.17,-76.22"/>
</a>
</g>
</g>
<!-- Node14 -->
<g id="Node000014" class="node">
<title>Node14</title>
<g id="a_Node000014"><a xlink:href="classSceneManager.html#a63d3a08f13b314ed1d871f598f26534d" target="_top" xlink:title=" ">
<polygon fill="white" stroke="#666666" points="1146,-108.5 991,-108.5 991,-89.5 1146,-89.5 1146,-108.5"/>
<text text-anchor="middle" x="1068.5" y="-96.5" font-family="Helvetica,sans-Serif" font-size="10.00">SceneManager::selectObject</text>
</a>
</g>
</g>
<!-- Node12&#45;&gt;Node14 -->
<g id="edge15_Node000012_Node000014" class="edge">
<title>Node12&#45;&gt;Node14</title>
<g id="a_edge15_Node000012_Node000014"><a xlink:title=" ">
<path fill="none" stroke="#63b8ff" d="M1182.4,-88.84C1170.34,-89.92 1158.02,-91.03 1146.17,-92.1"/>
<polygon fill="#63b8ff" stroke="#63b8ff" points="1182.81,-92.32 1192.46,-87.93 1182.19,-85.34 1182.81,-92.32"/>
</a>
</g>
</g>
<!-- Node14&#45;&gt;Node7 -->
<g id="edge18_Node000014_Node000007" class="edge">
<title>Node14&#45;&gt;Node7</title>
<g id="a_edge18_Node000014_Node000007"><a xlink:title=" ">
<path fill="none" stroke="#63b8ff" d="M980.77,-106.27C907.34,-112.43 802.86,-121.19 731.08,-127.2"/>
<polygon fill="#63b8ff" stroke="#63b8ff" points="981.25,-109.74 990.92,-105.42 980.67,-102.77 981.25,-109.74"/>
</a>
</g>
</g>
<!-- Node15 -->
<g id="Node000015" class="node">
<title>Node15</title>
<g id="a_Node000015"><a xlink:href="classSceneManager.html#a2c5088464b489b31f23e0791e2b9c0b0" target="_top" xlink:title=" ">
<polygon fill="white" stroke="#666666" points="932,-52.5 780,-52.5 780,-33.5 932,-33.5 932,-52.5"/>
<text text-anchor="middle" x="856" y="-40.5" font-family="Helvetica,sans-Serif" font-size="10.00">SceneManager::focusObject</text>
</a>
</g>
</g>
<!-- Node14&#45;&gt;Node15 -->
<g id="edge16_Node000014_Node000015" class="edge">
<title>Node14&#45;&gt;Node15</title>
<g id="a_edge16_Node000014_Node000015"><a xlink:title=" ">
<path fill="none" stroke="#63b8ff" d="M999.58,-86.92C993.22,-85.18 986.94,-83.21 981,-81 963.85,-74.62 962.17,-67.35 945,-61 935.93,-57.64 926.1,-54.86 916.39,-52.56"/>
<polygon fill="#63b8ff" stroke="#63b8ff" points="999.03,-90.39 1009.58,-89.48 1000.76,-83.61 999.03,-90.39"/>
</a>
</g>
</g>
<!-- Node17 -->
<g id="Node000017" class="node">
<title>Node17</title>
<g id="a_Node000017"><a xlink:href="classSceneManager.html#ab469d1eea307d05b27433cb74231b4eb" target="_top" xlink:title=" ">
<polygon fill="white" stroke="#666666" points="945,-89.5 767,-89.5 767,-70.5 945,-70.5 945,-89.5"/>
<text text-anchor="middle" x="856" y="-77.5" font-family="Helvetica,sans-Serif" font-size="10.00">SceneManager::setCameraTarget</text>
</a>
</g>
</g>
<!-- Node14&#45;&gt;Node17 -->
<g id="edge19_Node000014_Node000017" class="edge">
<title>Node14&#45;&gt;Node17</title>
<g id="a_edge19_Node000014_Node000017"><a xlink:title=" ">
<path fill="none" stroke="#63b8ff" d="M980.73,-91.17C969.04,-90.11 957.03,-89.03 945.32,-87.97"/>
<polygon fill="#63b8ff" stroke="#63b8ff" points="980.64,-94.67 990.91,-92.09 981.26,-87.7 980.64,-94.67"/>
</a>
</g>
</g>
<!-- Node16 -->
<g id="Node000016" class="node">
<title>Node16</title>
<g id="a_Node000016"><a xlink:href="namespaceScenePresets_1_1Astronomy.html#a0b0e571c83bcdb2d16710b9425375b5f" target="_top" xlink:title=" ">
<polygon fill="white" stroke="#666666" points="719.5,-58 578.5,-58 578.5,-28 719.5,-28 719.5,-58"/>
<text text-anchor="start" x="586.5" y="-46" font-family="Helvetica,sans-Serif" font-size="10.00">ScenePresets::Astronomy</text>
<text text-anchor="middle" x="649" y="-35" font-family="Helvetica,sans-Serif" font-size="10.00">::createRealSolarSystem</text>
</a>
</g>
</g>
<!-- Node15&#45;&gt;Node16 -->
<g id="edge17_Node000015_Node000016" class="edge">
<title>Node15&#45;&gt;Node16</title>
<g id="a_edge17_Node000015_Node000016"><a xlink:title=" ">
<path fill="none" stroke="#63b8ff" d="M769.58,-43C752.97,-43 735.75,-43 719.72,-43"/>
<polygon fill="#63b8ff" stroke="#63b8ff" points="769.83,-46.5 779.83,-43 769.83,-39.5 769.83,-46.5"/>
</a>
</g>
</g>
<!-- Node17&#45;&gt;Node7 -->
<g id="edge20_Node000017_Node000007" class="edge">
<title>Node17&#45;&gt;Node7</title>
<g id="a_edge20_Node000017_Node000007"><a xlink:title=" ">
<path fill="none" stroke="#63b8ff" d="M809.31,-92.18C795.67,-95.89 780.71,-100.04 767,-104 750.93,-108.65 747.15,-110.64 731,-115 718.73,-118.31 705.32,-121.59 693.01,-124.47"/>
<polygon fill="#63b8ff" stroke="#63b8ff" points="810.23,-95.56 818.97,-89.56 808.4,-88.8 810.23,-95.56"/>
</a>
</g>
</g>
<!-- Node18 -->
<g id="Node000018" class="node">
<title>Node18</title>
<g id="a_Node000018"><a xlink:href="classGlobalsInspectorWidget.html#ac983b68fcff61ff889660f3d93221072" target="_top" xlink:title=" ">
<polygon fill="white" stroke="#666666" points="715.5,-106 582.5,-106 582.5,-76 715.5,-76 715.5,-106"/>
<text text-anchor="start" x="590.5" y="-94" font-family="Helvetica,sans-Serif" font-size="10.00">GlobalsInspectorWidget</text>
<text text-anchor="middle" x="649" y="-83" font-family="Helvetica,sans-Serif" font-size="10.00">::runSolver</text>
</a>
</g>
</g>
<!-- Node17&#45;&gt;Node18 -->
<g id="edge21_Node000017_Node000018" class="edge">
<title>Node17&#45;&gt;Node18</title>
<g id="a_edge21_Node000017_Node000018"><a xlink:title=" ">
<path fill="none" stroke="#63b8ff" d="M756.78,-85.27C742.87,-86.02 728.85,-86.77 715.76,-87.47"/>
<polygon fill="#63b8ff" stroke="#63b8ff" points="757.07,-88.76 766.87,-84.73 756.7,-81.77 757.07,-88.76"/>
</a>
</g>
</g>
<!-- Node19&#45;&gt;Node6 -->
<g id="edge27_Node000019_Node000006" class="edge">
<title>Node19&#45;&gt;Node6</title>
<g id="a_edge27_Node000019_Node000006"><a xlink:title=" ">
<path fill="none" stroke="#63b8ff" d="M1182.56,-194C1107.87,-194 1001.38,-194 930.78,-194"/>
<polygon fill="#63b8ff" stroke="#63b8ff" points="1182.88,-197.5 1192.88,-194 1182.88,-190.5 1182.88,-197.5"/>
</a>
</g>
</g>
<!-- Node19&#45;&gt;Node7 -->
<g id="edge26_Node000019_Node000007" class="edge">
<title>Node19&#45;&gt;Node7</title>
<g id="a_edge26_Node000019_Node000007"><a xlink:title=" ">
<path fill="none" stroke="#63b8ff" d="M1182.68,-185.59C1062.81,-173.98 848.21,-153.2 731.32,-141.88"/>
<polygon fill="#63b8ff" stroke="#63b8ff" points="1182.62,-189.1 1192.92,-186.58 1183.3,-182.13 1182.62,-189.1"/>
</a>
</g>
</g>
<!-- Node19&#45;&gt;Node14 -->
<g id="edge28_Node000019_Node000014" class="edge">
<title>Node19&#45;&gt;Node14</title>
<g id="a_edge28_Node000019_Node000014"><a xlink:title=" ">
<path fill="none" stroke="#63b8ff" d="M1239.96,-179.97C1198.71,-160.38 1124.94,-125.33 1089.53,-108.52"/>
<polygon fill="#63b8ff" stroke="#63b8ff" points="1238.69,-183.24 1249.22,-184.37 1241.69,-176.92 1238.69,-183.24"/>
</a>
</g>
</g>
<!-- Node20 -->
<g id="Node000020" class="node">
<title>Node20</title>
<g id="a_Node000020"><a xlink:href="classSceneManager.html#ac517c77baec7191a36898308818ebb5f" target="_top" xlink:title=" ">
<polygon fill="white" stroke="#666666" points="1148.5,-290 988.5,-290 988.5,-260 1148.5,-260 1148.5,-290"/>
<text text-anchor="start" x="996.5" y="-278" font-family="Helvetica,sans-Serif" font-size="10.00">SceneManager::handleMouse</text>
<text text-anchor="middle" x="1068.5" y="-267" font-family="Helvetica,sans-Serif" font-size="10.00">Button</text>
</a>
</g>
</g>
<!-- Node19&#45;&gt;Node20 -->
<g id="edge23_Node000019_Node000020" class="edge">
<title>Node19&#45;&gt;Node20</title>
<g id="a_edge23_Node000019_Node000020"><a xlink:title=" ">
<path fill="none" stroke="#63b8ff" d="M1206.46,-207.08C1201.43,-209.07 1196.54,-211.36 1192,-214 1172.16,-225.52 1175.74,-239.3 1156,-251 1150.23,-254.42 1143.97,-257.36 1137.52,-259.9"/>
<polygon fill="#63b8ff" stroke="#63b8ff" points="1208.02,-210.24 1216.27,-203.6 1205.68,-203.64 1208.02,-210.24"/>
</a>
</g>
</g>
<!-- Node21 -->
<g id="Node000021" class="node">
<title>Node21</title>
<g id="a_Node000021"><a xlink:href="classOpenGLWindow.html#a3db5152769ffded2ba4de8b6563c205a" target="_top" xlink:title=" ">
<polygon fill="white" stroke="#666666" points="935,-300 777,-300 777,-270 935,-270 935,-300"/>
<text text-anchor="start" x="785" y="-288" font-family="Helvetica,sans-Serif" font-size="10.00">OpenGLWindow::mousePress</text>
<text text-anchor="middle" x="856" y="-277" font-family="Helvetica,sans-Serif" font-size="10.00">Event</text>
</a>
</g>
</g>
<!-- Node20&#45;&gt;Node21 -->
<g id="edge24_Node000020_Node000021" class="edge">
<title>Node20&#45;&gt;Node21</title>
<g id="a_edge24_Node000020_Node000021"><a xlink:title=" ">
<path fill="none" stroke="#63b8ff" d="M977.94,-279.25C963.72,-279.93 949.1,-280.62 935.16,-281.29"/>
<polygon fill="#63b8ff" stroke="#63b8ff" points="978.4,-282.74 988.22,-278.77 978.06,-275.74 978.4,-282.74"/>
</a>
</g>
</g>
<!-- Node22 -->
<g id="Node000022" class="node">
<title>Node22</title>
<g id="a_Node000022"><a xlink:href="classOpenGLWindow.html#a2a95d17daeae3447ca23d4e99c913b73" target="_top" xlink:title=" ">
<polygon fill="white" stroke="#666666" points="941,-252 771,-252 771,-222 941,-222 941,-252"/>
<text text-anchor="start" x="779" y="-240" font-family="Helvetica,sans-Serif" font-size="10.00">OpenGLWindow::mouseRelease</text>
<text text-anchor="middle" x="856" y="-229" font-family="Helvetica,sans-Serif" font-size="10.00">Event</text>
</a>
</g>
</g>
<!-- Node20&#45;&gt;Node22 -->
<g id="edge25_Node000020_Node000022" class="edge">
<title>Node20&#45;&gt;Node22</title>
<g id="a_edge25_Node000020_Node000022"><a xlink:title=" ">
<path fill="none" stroke="#63b8ff" d="M978.24,-258.89C965.7,-256.62 952.85,-254.3 940.42,-252.06"/>
<polygon fill="#63b8ff" stroke="#63b8ff" points="977.76,-262.36 988.22,-260.69 979,-255.47 977.76,-262.36"/>
</a>
</g>
</g>
</g>
</svg>

<g id="navigator" transform="translate(0 0)" fill="#404254">
  <rect fill="#f2f5e9" fill-opacity="0.5" stroke="#606060" stroke-width=".5" x="0" y="0" width="60" height="60"/>
  <use id="zoomplus" xlink:href="#zoomPlus" x="17" y="9" onmousedown="handleZoom(evt,'in')"/>
  <use id="zoomminus" xlink:href="#zoomMin" x="42" y="9" onmousedown="handleZoom(evt,'out')"/>
  <use id="reset" xlink:href="#resetDef" x="30" y="36" onmousedown="handleReset()"/>
   <use id="arrowup" xlink:href="#arrowUp" x="0" y="0" onmousedown="handlePan(0,-1)"/>
  <use id="arrowright" xlink:href="#arrowRight" x="0" y="0" onmousedown="handlePan(1,0)"/>
  <use id="arrowdown" xlink:href="#arrowDown" x="0" y="0" onmousedown="handlePan(0,1)"/>
  <use id="arrowleft" xlink:href="#arrowLeft" x="0" y="0" onmousedown="handlePan(-1,0)"/>
</g>
<svg viewBox="0 0 15 15" width="100%" height="30px" preserveAspectRatio="xMaxYMin meet">
 <g id="arrow_out" transform="scale(0.3 0.3)">
  <a xlink:href="classSceneManager_a1c647e38474ee02d5dd8510bc2313c38_icgraph_org.svg" target="_base">
   <rect id="button" ry="5" rx="5" y="6" x="6" height="38" width="38"
        fill="#f2f5e9" fill-opacity="0.5" stroke="#606060" stroke-width="1.0"/>
   <path id="arrow"
     d="M 11.500037,31.436501 C 11.940474,20.09759 22.043105,11.32322 32.158766,21.979434 L 37.068811,17.246167 C 37.068811,17.246167 37.088388,32 37.088388,32 L 22.160133,31.978069 C 22.160133,31.978069 26.997745,27.140456 26.997745,27.140456 C 18.528582,18.264221 13.291696,25.230495 11.500037,31.436501 z"
     style="fill:#404040;"/>
  </a>
 </g>
</svg>

<style type='text/css'>
<![CDATA[
[data-mouse-over-selected='false'] { opacity: 0.7; }
[data-mouse-over-selected='true']  { opacity: 1.0; }
]]>
</style>
<script type="application/ecmascript"><![CDATA[
document.addEventListener('DOMContentLoaded', (event) => {
  highlightEdges();
  highlightAdjacentNodes();
});
]]></script>
</svg>
