<?xml version="1.0" encoding="UTF-8" standalone="no"?>
<!DOCTYPE svg PUBLIC "-//W3C//DTD SVG 1.1//EN"
 "http://www.w3.org/Graphics/SVG/1.1/DTD/svg11.dtd">
<!-- Generated by graphviz version 2.43.0 (0)
 -->
<!-- Title: SceneSerializer::loadFromJson Pages: 1 -->
<!--zoomable 508 -->

<svg id="main" version="1.1" xmlns="http://www.w3.org/2000/svg" xmlns:xlink="http://www.w3.org/1999/xlink" xml:space="preserve" onload="init(evt)">
<style type="text/css"><![CDATA[
.node, .edge {opacity: 0.7;}
.node.selected, .edge.selected {opacity: 1;}
.edge:hover path { stroke: red; }
.edge:hover polygon { stroke: red; fill: red; }
]]></style>

<defs>
  <circle id="rim" cx="0" cy="0" r="7"/>
  <circle id="rim2" cx="0" cy="0" r="3.5"/>
  <g id="zoomPlus">
    <use xlink:href="#rim" fill="#404040"><set attributeName="fill" to="#808080" begin="zoomplus.mouseover" end="zoomplus.mouseout"/></use>
    <path d="M-4,0h8M0,-4v8" fill="none" stroke="white" stroke-width="1.5" pointer-events="none"/>
  </g>
  <g id="zoomMin">
    <use xlink:href="#rim" fill="#404040"><set attributeName="fill" to="#808080" begin="zoomminus.mouseover" end="zoomminus.mouseout"/></use>
    <path d="M-4,0h8" fill="none" stroke="white" stroke-width="1.5" pointer-events="none"/>
  </g>
  <g id="arrowUp" transform="translate(30 24)">
    <use xlink:href="#rim"/>
    <path pointer-events="none" fill="none" stroke="white" stroke-width="1.5" d="M0,-3.0v7 M-2.5,-0.5L0,-3.0L2.5,-0.5"/>
  </g>
  <g id="arrowRight" transform="rotate(90) translate(36 -43)">
    <use xlink:href="#rim"/>
    <path pointer-events="none" fill="none" stroke="white" stroke-width="1.5" d="M0,-3.0v7 M-2.5,-0.5L0,-3.0L2.5,-0.5"/>
  </g>
  <g id="arrowDown" transform="rotate(180) translate(-30 -48)">
    <use xlink:href="#rim"/>
    <path pointer-events="none" fill="none" stroke="white" stroke-width="1.5" d="M0,-3.0v7 M-2.5,-0.5L0,-3.0L2.5,-0.5"/>
  </g>
  <g id="arrowLeft" transform="rotate(270) translate(-36 17)">
    <use xlink:href="#rim"/>
    <path pointer-events="none" fill="none" stroke="white" stroke-width="1.5" d="M0,-3.0v7 M-2.5,-0.5L0,-3.0L2.5,-0.5"/>
  </g>
  <g id="resetDef">
    <use xlink:href="#rim2" fill="#404040"><set attributeName="fill" to="#808080" begin="reset.mouseover" end="reset.mouseout"/></use>
  </g>
</defs>
<script type="application/ecmascript">
var viewWidth = 1018;
var viewHeight = 508;
var sectionId = 'dynsection-0';
</script>
<script type="application/ecmascript" xlink:href="svg.min.js"/>
<svg id="graph" class="graph">
<g id="viewport">
<title>SceneSerializer::loadFromJson</title>
<!-- Node1 -->
<g id="Node000001" class="node">
<title>Node1</title>
<g id="a_Node000001"><a xlink:title=" ">
<polygon fill="#999999" stroke="#666666" points="164,-216 0,-216 0,-197 164,-197 164,-216"/>
<text text-anchor="middle" x="82" y="-204" font-family="Helvetica,sans-Serif" font-size="10.00">SceneSerializer::loadFromJson</text>
</a>
</g>
</g>
<!-- Node2 -->
<g id="Node000002" class="node">
<title>Node2</title>
<g id="a_Node000002"><a xlink:href="structRigidBodyOptions.html#a8a6ec7f2434036026c0f7dccf9082738" target="_top" xlink:title=" ">
<polygon fill="white" stroke="#666666" points="365,-426 237,-426 237,-407 365,-407 365,-426"/>
<text text-anchor="middle" x="301" y="-414" font-family="Helvetica,sans-Serif" font-size="10.00">RigidBodyOptions::Box</text>
</a>
</g>
</g>
<!-- Node1&#45;&gt;Node2 -->
<g id="edge1_Node000001_Node000002" class="edge">
<title>Node1&#45;&gt;Node2</title>
<g id="a_edge1_Node000001_Node000002"><a xlink:title=" ">
<path fill="none" stroke="#63b8ff" d="M85.71,-216.05C95.3,-247.88 130.77,-351.06 200,-398.5 208.13,-404.07 217.48,-408.07 227.12,-410.91"/>
<polygon fill="#63b8ff" stroke="#63b8ff" points="226.27,-414.31 236.83,-413.39 228,-407.53 226.27,-414.31"/>
</a>
</g>
</g>
<!-- Node3 -->
<g id="Node000003" class="node">
<title>Node3</title>
<g id="a_Node000003"><a xlink:href="classSceneManager.html#a1daee617aa556b8af8a7202d3f8f28c8" target="_top" xlink:title=" ">
<polygon fill="white" stroke="#666666" points="379.5,-389 222.5,-389 222.5,-370 379.5,-370 379.5,-389"/>
<text text-anchor="middle" x="301" y="-377" font-family="Helvetica,sans-Serif" font-size="10.00">SceneManager::createObject</text>
</a>
</g>
</g>
<!-- Node1&#45;&gt;Node3 -->
<g id="edge2_Node000001_Node000003" class="edge">
<title>Node1&#45;&gt;Node3</title>
<g id="a_edge2_Node000001_Node000003"><a xlink:title=" ">
<path fill="none" stroke="#63b8ff" d="M94.98,-216.05C130.54,-244.4 235.83,-328.34 280.07,-363.61"/>
<polygon fill="#63b8ff" stroke="#63b8ff" points="278.06,-366.48 288.06,-369.98 282.42,-361.01 278.06,-366.48"/>
</a>
</g>
</g>
<!-- Node14 -->
<g id="Node000014" class="node">
<title>Node14</title>
<g id="a_Node000014"><a xlink:href="classSceneManager.html#a53736fa499987ffff612d3ee7c85442c" target="_top" xlink:title=" ">
<polygon fill="white" stroke="#666666" points="388.5,-290 213.5,-290 213.5,-271 388.5,-271 388.5,-290"/>
<text text-anchor="middle" x="301" y="-278" font-family="Helvetica,sans-Serif" font-size="10.00">SceneManager::deleteAllObjects</text>
</a>
</g>
</g>
<!-- Node1&#45;&gt;Node14 -->
<g id="edge13_Node000001_Node000014" class="edge">
<title>Node1&#45;&gt;Node14</title>
<g id="a_edge13_Node000001_Node000014"><a xlink:title=" ">
<path fill="none" stroke="#63b8ff" d="M99.46,-216.14C121.59,-228.67 162.5,-250.39 200,-262.5 207.38,-264.88 215.17,-266.98 223.01,-268.81"/>
<polygon fill="#63b8ff" stroke="#63b8ff" points="222.44,-272.27 232.95,-271 223.94,-265.43 222.44,-272.27"/>
</a>
</g>
</g>
<!-- Node20 -->
<g id="Node000020" class="node">
<title>Node20</title>
<g id="a_Node000020"><a xlink:href="classResourceManager.html#a3899655c6a1e40089930df4fbc9f1be9" target="_top" xlink:title=" ">
<polygon fill="white" stroke="#666666" points="381,-253 221,-253 221,-234 381,-234 381,-253"/>
<text text-anchor="middle" x="301" y="-241" font-family="Helvetica,sans-Serif" font-size="10.00">ResourceManager::getShader</text>
</a>
</g>
</g>
<!-- Node1&#45;&gt;Node20 -->
<g id="edge19_Node000001_Node000020" class="edge">
<title>Node1&#45;&gt;Node20</title>
<g id="a_edge19_Node000001_Node000020"><a xlink:title=" ">
<path fill="none" stroke="#63b8ff" d="M138.88,-216.03C167.88,-220.97 203.49,-227.04 233.85,-232.22"/>
<polygon fill="#63b8ff" stroke="#63b8ff" points="233.48,-235.71 243.93,-233.94 234.66,-228.81 233.48,-235.71"/>
</a>
</g>
</g>
<!-- Node21 -->
<g id="Node000021" class="node">
<title>Node21</title>
<g id="a_Node000021"><a xlink:href="namespaceJsonUtils.html#ab8da6e319ea5969afbe6ddd6620add30" target="_top" xlink:title=" ">
<polygon fill="white" stroke="#666666" points="360.5,-216 241.5,-216 241.5,-197 360.5,-197 360.5,-216"/>
<text text-anchor="middle" x="301" y="-204" font-family="Helvetica,sans-Serif" font-size="10.00">JsonUtils::jsonToVec3</text>
</a>
</g>
</g>
<!-- Node1&#45;&gt;Node21 -->
<g id="edge20_Node000001_Node000021" class="edge">
<title>Node1&#45;&gt;Node21</title>
<g id="a_edge20_Node000001_Node000021"><a xlink:title=" ">
<path fill="none" stroke="#63b8ff" d="M164.11,-206.5C186.15,-206.5 209.8,-206.5 231.09,-206.5"/>
<polygon fill="#63b8ff" stroke="#63b8ff" points="231.33,-210 241.33,-206.5 231.33,-203 231.33,-210"/>
</a>
</g>
</g>
<!-- Node22 -->
<g id="Node000022" class="node">
<title>Node22</title>
<g id="a_Node000022"><a xlink:href="classSceneManager.html#a8dafcb538b1cfbf727b82644ad5815ad" target="_top" xlink:title=" ">
<polygon fill="white" stroke="#666666" points="402,-179 200,-179 200,-160 402,-160 402,-179"/>
<text text-anchor="middle" x="301" y="-167" font-family="Helvetica,sans-Serif" font-size="10.00">SceneManager::setGlobalAcceleration</text>
</a>
</g>
</g>
<!-- Node1&#45;&gt;Node22 -->
<g id="edge21_Node000001_Node000022" class="edge">
<title>Node1&#45;&gt;Node22</title>
<g id="a_edge21_Node000001_Node000022"><a xlink:title=" ">
<path fill="none" stroke="#63b8ff" d="M138.88,-196.97C167.88,-192.03 203.49,-185.96 233.85,-180.78"/>
<polygon fill="#63b8ff" stroke="#63b8ff" points="234.66,-184.19 243.93,-179.06 233.48,-177.29 234.66,-184.19"/>
</a>
</g>
</g>
<!-- Node23 -->
<g id="Node000023" class="node">
<title>Node23</title>
<g id="a_Node000023"><a xlink:href="classSceneManager.html#a357678fb063589b2ed1dc9a5f0b55ae2" target="_top" xlink:title=" ">
<polygon fill="white" stroke="#666666" points="387.5,-141.5 214.5,-141.5 214.5,-111.5 387.5,-111.5 387.5,-141.5"/>
<text text-anchor="start" x="222.5" y="-129.5" font-family="Helvetica,sans-Serif" font-size="10.00">SceneManager::setGravitational</text>
<text text-anchor="middle" x="301" y="-118.5" font-family="Helvetica,sans-Serif" font-size="10.00">Constant</text>
</a>
</g>
</g>
<!-- Node1&#45;&gt;Node23 -->
<g id="edge22_Node000001_Node000023" class="edge">
<title>Node1&#45;&gt;Node23</title>
<g id="a_edge22_Node000001_Node000023"><a xlink:title=" ">
<path fill="none" stroke="#63b8ff" d="M100.78,-196.81C123.32,-184.83 163.63,-164.45 200,-151.5 207.23,-148.92 214.85,-146.51 222.51,-144.28"/>
<polygon fill="#63b8ff" stroke="#63b8ff" points="223.55,-147.62 232.23,-141.54 221.65,-140.88 223.55,-147.62"/>
</a>
</g>
</g>
<!-- Node24 -->
<g id="Node000024" class="node">
<title>Node24</title>
<g id="a_Node000024"><a xlink:href="classSceneManager.html#af40d0ff3e76f89bbf5504f1694814179" target="_top" xlink:title=" ">
<polygon fill="white" stroke="#666666" points="378.5,-93 223.5,-93 223.5,-74 378.5,-74 378.5,-93"/>
<text text-anchor="middle" x="301" y="-81" font-family="Helvetica,sans-Serif" font-size="10.00">SceneManager::setSelectFor</text>
</a>
</g>
</g>
<!-- Node1&#45;&gt;Node24 -->
<g id="edge23_Node000001_Node000024" class="edge">
<title>Node1&#45;&gt;Node24</title>
<g id="a_edge23_Node000001_Node000024"><a xlink:title=" ">
<path fill="none" stroke="#63b8ff" d="M90.6,-196.88C107.69,-175.97 151.47,-126.37 200,-102.5 204.96,-100.06 210.19,-97.94 215.56,-96.08"/>
<polygon fill="#63b8ff" stroke="#63b8ff" points="216.85,-99.35 225.36,-93.03 214.77,-92.67 216.85,-99.35"/>
</a>
</g>
</g>
<!-- Node30 -->
<g id="Node000030" class="node">
<title>Node30</title>
<g id="a_Node000030"><a xlink:href="classSceneManager.html#a64f4064d9201d062a24f750763c1f703" target="_top" xlink:title=" ">
<polygon fill="white" stroke="#666666" points="380,-38 222,-38 222,-19 380,-19 380,-38"/>
<text text-anchor="middle" x="301" y="-26" font-family="Helvetica,sans-Serif" font-size="10.00">SceneManager::setSimSpeed</text>
</a>
</g>
</g>
<!-- Node1&#45;&gt;Node30 -->
<g id="edge30_Node000001_Node000030" class="edge">
<title>Node1&#45;&gt;Node30</title>
<g id="a_edge30_Node000001_Node000030"><a xlink:title=" ">
<path fill="none" stroke="#63b8ff" d="M88.53,-196.8C103.35,-171.6 146.53,-103.37 200,-65.5 215.03,-54.86 233.48,-46.9 250.42,-41.14"/>
<polygon fill="#63b8ff" stroke="#63b8ff" points="251.73,-44.4 260.18,-38.01 249.59,-37.73 251.73,-44.4"/>
</a>
</g>
</g>
<!-- Node4 -->
<g id="Node000004" class="node">
<title>Node4</title>
<g id="a_Node000004"><a xlink:href="classSceneManager.html#ad0d1661e5869720d7a07b1912d75318d" target="_top" xlink:title=" ">
<polygon fill="white" stroke="#666666" points="610,-500 451,-500 451,-481 610,-481 610,-500"/>
<text text-anchor="middle" x="530.5" y="-488" font-family="Helvetica,sans-Serif" font-size="10.00">SceneManager::addDrawable</text>
</a>
</g>
</g>
<!-- Node3&#45;&gt;Node4 -->
<g id="edge3_Node000003_Node000004" class="edge">
<title>Node3&#45;&gt;Node4</title>
<g id="a_edge3_Node000003_Node000004"><a xlink:title=" ">
<path fill="none" stroke="#63b8ff" d="M379.68,-386.63C387.7,-389.54 395.33,-393.4 402,-398.5 431.05,-420.72 409.02,-450.19 438,-472.5 439.64,-473.76 441.34,-474.94 443.09,-476.04"/>
<polygon fill="#63b8ff" stroke="#63b8ff" points="441.78,-479.31 452.25,-480.94 445.09,-473.14 441.78,-479.31"/>
</a>
</g>
</g>
<!-- Node6 -->
<g id="Node000006" class="node">
<title>Node6</title>
<g id="a_Node000006"><a xlink:href="classSceneManager.html#a31d525542db0b239ba61dd36a3d92d43" target="_top" xlink:title=" ">
<polygon fill="white" stroke="#666666" points="607,-463 454,-463 454,-444 607,-444 607,-463"/>
<text text-anchor="middle" x="530.5" y="-451" font-family="Helvetica,sans-Serif" font-size="10.00">SceneManager::addPickable</text>
</a>
</g>
</g>
<!-- Node3&#45;&gt;Node6 -->
<g id="edge5_Node000003_Node000006" class="edge">
<title>Node3&#45;&gt;Node6</title>
<g id="a_edge5_Node000003_Node000006"><a xlink:title=" ">
<path fill="none" stroke="#63b8ff" d="M378.76,-389.03C386.86,-391.5 394.76,-394.61 402,-398.5 422.21,-409.37 417.83,-424.57 438,-435.5 441.33,-437.3 444.81,-438.93 448.39,-440.39"/>
<polygon fill="#63b8ff" stroke="#63b8ff" points="447.47,-443.78 458.06,-443.9 449.86,-437.2 447.47,-443.78"/>
</a>
</g>
</g>
<!-- Node7 -->
<g id="Node000007" class="node">
<title>Node7</title>
<g id="a_Node000007"><a xlink:href="classSceneManager.html#ab6a7ecbff438f2dbee8a0f31795456f9" target="_top" xlink:title=" ">
<polygon fill="white" stroke="#666666" points="623,-426 438,-426 438,-407 623,-407 623,-426"/>
<text text-anchor="middle" x="530.5" y="-414" font-family="Helvetica,sans-Serif" font-size="10.00">SceneManager::makeUniqueName</text>
</a>
</g>
</g>
<!-- Node3&#45;&gt;Node7 -->
<g id="edge6_Node000003_Node000007" class="edge">
<title>Node3&#45;&gt;Node7</title>
<g id="a_edge6_Node000003_Node000007"><a xlink:title=" ">
<path fill="none" stroke="#63b8ff" d="M360.59,-389.03C391.12,-393.99 428.64,-400.1 460.57,-405.29"/>
<polygon fill="#63b8ff" stroke="#63b8ff" points="460.28,-408.79 470.72,-406.94 461.41,-401.88 460.28,-408.79"/>
</a>
</g>
</g>
<!-- Node8 -->
<g id="Node000008" class="node">
<title>Node8</title>
<g id="a_Node000008"><a xlink:href="classSceneManager.html#a76592c383a85fda664a79fa155ead19e" target="_top" xlink:title=" ">
<polygon fill="white" stroke="#666666" points="608,-389 453,-389 453,-370 608,-370 608,-389"/>
<text text-anchor="middle" x="530.5" y="-377" font-family="Helvetica,sans-Serif" font-size="10.00">SceneManager::objectAdded</text>
</a>
</g>
</g>
<!-- Node3&#45;&gt;Node8 -->
<g id="edge7_Node000003_Node000008" class="edge">
<title>Node3&#45;&gt;Node8</title>
<g id="a_edge7_Node000003_Node000008"><a xlink:title=" ">
<path fill="none" stroke="#63b8ff" d="M379.66,-379.5C400.01,-379.5 422.08,-379.5 442.87,-379.5"/>
<polygon fill="#63b8ff" stroke="#63b8ff" points="442.96,-383 452.96,-379.5 442.96,-376 442.96,-383"/>
</a>
</g>
</g>
<!-- Node9 -->
<g id="Node000009" class="node">
<title>Node9</title>
<g id="a_Node000009"><a xlink:href="classSceneManager.html#aad894e90cf7ad353aab707f966c9711d" target="_top" xlink:title=" ">
<polygon fill="white" stroke="#666666" points="615.5,-352 445.5,-352 445.5,-333 615.5,-333 615.5,-352"/>
<text text-anchor="middle" x="530.5" y="-340" font-family="Helvetica,sans-Serif" font-size="10.00">SceneManager::setObjectName</text>
</a>
</g>
</g>
<!-- Node3&#45;&gt;Node9 -->
<g id="edge8_Node000003_Node000009" class="edge">
<title>Node3&#45;&gt;Node9</title>
<g id="a_edge8_Node000003_Node000009"><a xlink:title=" ">
<path fill="none" stroke="#63b8ff" d="M360.59,-369.97C391.12,-365.01 428.64,-358.9 460.57,-353.71"/>
<polygon fill="#63b8ff" stroke="#63b8ff" points="461.41,-357.12 470.72,-352.06 460.28,-350.21 461.41,-357.12"/>
</a>
</g>
</g>
<!-- Node5 -->
<g id="Node000005" class="node">
<title>Node5</title>
<g id="a_Node000005"><a xlink:href="classScene.html#aa2773ce73d9158e1e3a9c97d26a7e727" target="_top" xlink:title=" ">
<polygon fill="white" stroke="#666666" points="806.5,-500 690.5,-500 690.5,-481 806.5,-481 806.5,-500"/>
<text text-anchor="middle" x="748.5" y="-488" font-family="Helvetica,sans-Serif" font-size="10.00">Scene::addDrawable</text>
</a>
</g>
</g>
<!-- Node4&#45;&gt;Node5 -->
<g id="edge4_Node000004_Node000005" class="edge">
<title>Node4&#45;&gt;Node5</title>
<g id="a_edge4_Node000004_Node000005"><a xlink:title=" ">
<path fill="none" stroke="#63b8ff" d="M610.09,-490.5C633.1,-490.5 658.05,-490.5 680.28,-490.5"/>
<polygon fill="#63b8ff" stroke="#63b8ff" points="680.29,-494 690.29,-490.5 680.29,-487 680.29,-494"/>
</a>
</g>
</g>
<!-- Node10 -->
<g id="Node000010" class="node">
<title>Node10</title>
<g id="a_Node000010"><a xlink:href="classSceneObject.html#abebc043e3253d66da477f862a950775d" target="_top" xlink:title=" ">
<polygon fill="white" stroke="#666666" points="812.5,-445 684.5,-445 684.5,-426 812.5,-426 812.5,-445"/>
<text text-anchor="middle" x="748.5" y="-433" font-family="Helvetica,sans-Serif" font-size="10.00">SceneObject::getName</text>
</a>
</g>
</g>
<!-- Node9&#45;&gt;Node10 -->
<g id="edge9_Node000009_Node000010" class="edge">
<title>Node9&#45;&gt;Node10</title>
<g id="a_edge9_Node000009_Node000010"><a xlink:title=" ">
<path fill="none" stroke="#63b8ff" d="M604.65,-352.04C611.15,-354.54 617.38,-357.64 623,-361.5 647.38,-378.26 634.58,-400.79 659,-417.5 663.89,-420.85 669.27,-423.6 674.88,-425.86"/>
<polygon fill="#63b8ff" stroke="#63b8ff" points="673.9,-429.22 684.5,-429.21 676.21,-422.61 673.9,-429.22"/>
</a>
</g>
</g>
<!-- Node11 -->
<g id="Node000011" class="node">
<title>Node11</title>
<g id="a_Node000011"><a xlink:href="classSceneManager.html#a624cd344feba3357d2ec95bab7229a6f" target="_top" xlink:title=" ">
<polygon fill="white" stroke="#666666" points="832,-408 665,-408 665,-389 832,-389 832,-408"/>
<text text-anchor="middle" x="748.5" y="-396" font-family="Helvetica,sans-Serif" font-size="10.00">SceneManager::isNameUnique</text>
</a>
</g>
</g>
<!-- Node9&#45;&gt;Node11 -->
<g id="edge10_Node000009_Node000011" class="edge">
<title>Node9&#45;&gt;Node11</title>
<g id="a_edge10_Node000009_Node000011"><a xlink:title=" ">
<path fill="none" stroke="#63b8ff" d="M589.78,-352.04C600.96,-354.59 612.47,-357.71 623,-361.5 640.02,-367.62 641.96,-374.41 659,-380.5 665.25,-382.73 671.85,-384.72 678.52,-386.48"/>
<polygon fill="#63b8ff" stroke="#63b8ff" points="677.75,-389.9 688.3,-388.9 679.44,-383.1 677.75,-389.9"/>
</a>
</g>
</g>
<!-- Node12 -->
<g id="Node000012" class="node">
<title>Node12</title>
<g id="a_Node000012"><a xlink:href="classSceneManager.html#a76dba0a09f8b2a1dc376236f904a9c3a" target="_top" xlink:title=" ">
<polygon fill="white" stroke="#666666" points="834,-371 663,-371 663,-352 834,-352 834,-371"/>
<text text-anchor="middle" x="748.5" y="-359" font-family="Helvetica,sans-Serif" font-size="10.00">SceneManager::objectRenamed</text>
</a>
</g>
</g>
<!-- Node9&#45;&gt;Node12 -->
<g id="edge11_Node000009_Node000012" class="edge">
<title>Node9&#45;&gt;Node12</title>
<g id="a_edge11_Node000009_Node000012"><a xlink:title=" ">
<path fill="none" stroke="#63b8ff" d="M615.63,-349.9C627.75,-350.97 640.3,-352.07 652.61,-353.15"/>
<polygon fill="#63b8ff" stroke="#63b8ff" points="652.62,-356.67 662.89,-354.06 653.23,-349.69 652.62,-356.67"/>
</a>
</g>
</g>
<!-- Node13 -->
<g id="Node000013" class="node">
<title>Node13</title>
<g id="a_Node000013"><a xlink:href="classSceneObject.html#ad8ac9406b35bee3cd4fad75db013d9c4" target="_top" xlink:title=" ">
<polygon fill="white" stroke="#666666" points="812.5,-334 684.5,-334 684.5,-315 812.5,-315 812.5,-334"/>
<text text-anchor="middle" x="748.5" y="-322" font-family="Helvetica,sans-Serif" font-size="10.00">SceneObject::setName</text>
</a>
</g>
</g>
<!-- Node9&#45;&gt;Node13 -->
<g id="edge12_Node000009_Node000013" class="edge">
<title>Node9&#45;&gt;Node13</title>
<g id="a_edge12_Node000009_Node000013"><a xlink:title=" ">
<path fill="none" stroke="#63b8ff" d="M615.63,-335.49C635.01,-333.87 655.47,-332.17 674.34,-330.6"/>
<polygon fill="#63b8ff" stroke="#63b8ff" points="674.67,-334.08 684.34,-329.76 674.08,-327.11 674.67,-334.08"/>
</a>
</g>
</g>
<!-- Node15 -->
<g id="Node000015" class="node">
<title>Node15</title>
<g id="a_Node000015"><a xlink:href="classSceneManager.html#a4543114007c5bb40ddab62cd9f2ac613" target="_top" xlink:title=" ">
<polygon fill="white" stroke="#666666" points="609,-260 452,-260 452,-241 609,-241 609,-260"/>
<text text-anchor="middle" x="530.5" y="-248" font-family="Helvetica,sans-Serif" font-size="10.00">SceneManager::deleteObject</text>
</a>
</g>
</g>
<!-- Node14&#45;&gt;Node15 -->
<g id="edge14_Node000014_Node000015" class="edge">
<title>Node14&#45;&gt;Node15</title>
<g id="a_edge14_Node000014_Node000015"><a xlink:title=" ">
<path fill="none" stroke="#63b8ff" d="M374.3,-270.97C397.52,-267.9 423.41,-264.49 447.3,-261.34"/>
<polygon fill="#63b8ff" stroke="#63b8ff" points="447.94,-264.79 457.39,-260.01 447.02,-257.85 447.94,-264.79"/>
</a>
</g>
</g>
<!-- Node16 -->
<g id="Node000016" class="node">
<title>Node16</title>
<g id="a_Node000016"><a xlink:href="classSceneObject.html#ab3595ced6ccce80d1e864bbf28e1988a" target="_top" xlink:title=" ">
<polygon fill="white" stroke="#666666" points="829,-297 668,-297 668,-278 829,-278 829,-297"/>
<text text-anchor="middle" x="748.5" y="-285" font-family="Helvetica,sans-Serif" font-size="10.00">SceneObject::getPhysicsBody</text>
</a>
</g>
</g>
<!-- Node15&#45;&gt;Node16 -->
<g id="edge15_Node000015_Node000016" class="edge">
<title>Node15&#45;&gt;Node16</title>
<g id="a_edge15_Node000015_Node000016"><a xlink:title=" ">
<path fill="none" stroke="#63b8ff" d="M587.13,-260.03C615.99,-264.97 651.43,-271.04 681.66,-276.22"/>
<polygon fill="#63b8ff" stroke="#63b8ff" points="681.24,-279.7 691.69,-277.94 682.42,-272.8 681.24,-279.7"/>
</a>
</g>
</g>
<!-- Node17 -->
<g id="Node000017" class="node">
<title>Node17</title>
<g id="a_Node000017"><a xlink:href="classSceneManager.html#a1ecbf10d22d2ff153407cd139bf89632" target="_top" xlink:title=" ">
<polygon fill="white" stroke="#666666" points="834,-260 663,-260 663,-241 834,-241 834,-260"/>
<text text-anchor="middle" x="748.5" y="-248" font-family="Helvetica,sans-Serif" font-size="10.00">SceneManager::objectRemoved</text>
</a>
</g>
</g>
<!-- Node15&#45;&gt;Node17 -->
<g id="edge16_Node000015_Node000017" class="edge">
<title>Node15&#45;&gt;Node17</title>
<g id="a_edge16_Node000015_Node000017"><a xlink:title=" ">
<path fill="none" stroke="#63b8ff" d="M609.18,-250.5C623.33,-250.5 638.23,-250.5 652.81,-250.5"/>
<polygon fill="#63b8ff" stroke="#63b8ff" points="652.84,-254 662.84,-250.5 652.84,-247 652.84,-254"/>
</a>
</g>
</g>
<!-- Node18 -->
<g id="Node000018" class="node">
<title>Node18</title>
<g id="a_Node000018"><a xlink:href="classScene.html#a398bf0981ca0b3f5ade648b1d95513cc" target="_top" xlink:title=" ">
<polygon fill="white" stroke="#666666" points="1010,-179 874,-179 874,-160 1010,-160 1010,-179"/>
<text text-anchor="middle" x="942" y="-167" font-family="Helvetica,sans-Serif" font-size="10.00">Scene::removeDrawable</text>
</a>
</g>
</g>
<!-- Node15&#45;&gt;Node18 -->
<g id="edge17_Node000015_Node000018" class="edge">
<title>Node15&#45;&gt;Node18</title>
<g id="a_edge17_Node000015_Node000018"><a xlink:title=" ">
<path fill="none" stroke="#63b8ff" d="M586.74,-241C648.22,-230.25 750.46,-211.83 838,-193.5 855.73,-189.79 875.09,-185.37 892.19,-181.35"/>
<polygon fill="#63b8ff" stroke="#63b8ff" points="893.04,-184.74 901.96,-179.03 891.43,-177.93 893.04,-184.74"/>
</a>
</g>
</g>
<!-- Node19 -->
<g id="Node000019" class="node">
<title>Node19</title>
<g id="a_Node000019"><a xlink:href="classSceneManager.html#a950d9257e6d737616480fb2b3c00ce62" target="_top" xlink:title=" ">
<polygon fill="white" stroke="#666666" points="827,-184.5 670,-184.5 670,-154.5 827,-154.5 827,-184.5"/>
<text text-anchor="start" x="678" y="-172.5" font-family="Helvetica,sans-Serif" font-size="10.00">SceneManager::removeFrom</text>
<text text-anchor="middle" x="748.5" y="-161.5" font-family="Helvetica,sans-Serif" font-size="10.00">PhysicsSystem</text>
</a>
</g>
</g>
<!-- Node15&#45;&gt;Node19 -->
<g id="edge18_Node000015_Node000019" class="edge">
<title>Node15&#45;&gt;Node19</title>
<g id="a_edge18_Node000015_Node000019"><a xlink:title=" ">
<path fill="none" stroke="#63b8ff" d="M553.88,-240.81C579.2,-229.98 621.75,-212.18 659,-198.5 668.89,-194.87 679.48,-191.2 689.78,-187.76"/>
<polygon fill="#63b8ff" stroke="#63b8ff" points="691.13,-191 699.52,-184.54 688.93,-184.36 691.13,-191"/>
</a>
</g>
</g>
<!-- Node25 -->
<g id="Node000025" class="node">
<title>Node25</title>
<g id="a_Node000025"><a xlink:href="classSceneManager.html#a99992b526976863d1dab7dc88cc6ec2a" target="_top" xlink:title=" ">
<polygon fill="white" stroke="#666666" points="611,-141.5 450,-141.5 450,-111.5 611,-111.5 611,-141.5"/>
<text text-anchor="start" x="458" y="-129.5" font-family="Helvetica,sans-Serif" font-size="10.00">SceneManager::deleteCurrent</text>
<text text-anchor="middle" x="530.5" y="-118.5" font-family="Helvetica,sans-Serif" font-size="10.00">Gizmo</text>
</a>
</g>
</g>
<!-- Node24&#45;&gt;Node25 -->
<g id="edge24_Node000024_Node000025" class="edge">
<title>Node24&#45;&gt;Node25</title>
<g id="a_edge24_Node000024_Node000025"><a xlink:title=" ">
<path fill="none" stroke="#63b8ff" d="M352.49,-93.04C378.25,-97.91 410.35,-103.98 440.11,-109.61"/>
<polygon fill="#63b8ff" stroke="#63b8ff" points="439.63,-113.08 450.11,-111.49 440.93,-106.2 439.63,-113.08"/>
</a>
</g>
</g>
<!-- Node28 -->
<g id="Node000028" class="node">
<title>Node28</title>
<g id="a_Node000028"><a xlink:href="classSceneObject.html#ad77f12eb793b32da2ef40f0042cb1de8" target="_top" xlink:title="Gets the unique identifier for this object.">
<polygon fill="white" stroke="#666666" points="601,-93 460,-93 460,-74 601,-74 601,-93"/>
<text text-anchor="middle" x="530.5" y="-81" font-family="Helvetica,sans-Serif" font-size="10.00">SceneObject::getObjectID</text>
</a>
</g>
</g>
<!-- Node24&#45;&gt;Node28 -->
<g id="edge28_Node000024_Node000028" class="edge">
<title>Node24&#45;&gt;Node28</title>
<g id="a_edge28_Node000024_Node000028"><a xlink:title=" ">
<path fill="none" stroke="#63b8ff" d="M378.7,-83.5C401.51,-83.5 426.56,-83.5 449.57,-83.5"/>
<polygon fill="#63b8ff" stroke="#63b8ff" points="449.64,-87 459.64,-83.5 449.64,-80 449.64,-87"/>
</a>
</g>
</g>
<!-- Node29 -->
<g id="Node000029" class="node">
<title>Node29</title>
<g id="a_Node000029"><a xlink:href="classSceneManager.html#a25bec2896954b4f0c3bed8ef736993d3" target="_top" xlink:title=" ">
<polygon fill="white" stroke="#666666" points="609.5,-56 451.5,-56 451.5,-37 609.5,-37 609.5,-56"/>
<text text-anchor="middle" x="530.5" y="-44" font-family="Helvetica,sans-Serif" font-size="10.00">SceneManager::selectedItem</text>
</a>
</g>
</g>
<!-- Node24&#45;&gt;Node29 -->
<g id="edge29_Node000024_Node000029" class="edge">
<title>Node24&#45;&gt;Node29</title>
<g id="a_edge29_Node000024_Node000029"><a xlink:title=" ">
<path fill="none" stroke="#63b8ff" d="M360.59,-73.97C391.12,-69.01 428.64,-62.9 460.57,-57.71"/>
<polygon fill="#63b8ff" stroke="#63b8ff" points="461.41,-61.12 470.72,-56.06 460.28,-54.21 461.41,-61.12"/>
</a>
</g>
</g>
<!-- Node26 -->
<g id="Node000026" class="node">
<title>Node26</title>
<g id="a_Node000026"><a xlink:href="classSceneManager.html#ab7c34393bb10361069b0ea73ec2797f8" target="_top" xlink:title=" ">
<polygon fill="white" stroke="#666666" points="838,-136 659,-136 659,-117 838,-117 838,-136"/>
<text text-anchor="middle" x="748.5" y="-124" font-family="Helvetica,sans-Serif" font-size="10.00">SceneManager::removeDrawable</text>
</a>
</g>
</g>
<!-- Node25&#45;&gt;Node26 -->
<g id="edge25_Node000025_Node000026" class="edge">
<title>Node25&#45;&gt;Node26</title>
<g id="a_edge25_Node000025_Node000026"><a xlink:title=" ">
<path fill="none" stroke="#63b8ff" d="M611.01,-126.5C623.25,-126.5 636.02,-126.5 648.63,-126.5"/>
<polygon fill="#63b8ff" stroke="#63b8ff" points="648.69,-130 658.69,-126.5 648.69,-123 648.69,-130"/>
</a>
</g>
</g>
<!-- Node27 -->
<g id="Node000027" class="node">
<title>Node27</title>
<g id="a_Node000027"><a xlink:href="classSceneManager.html#a1c647e38474ee02d5dd8510bc2313c38" target="_top" xlink:title=" ">
<polygon fill="white" stroke="#666666" points="835,-99 662,-99 662,-80 835,-80 835,-99"/>
<text text-anchor="middle" x="748.5" y="-87" font-family="Helvetica,sans-Serif" font-size="10.00">SceneManager::removePickable</text>
</a>
</g>
</g>
<!-- Node25&#45;&gt;Node27 -->
<g id="edge27_Node000025_Node000027" class="edge">
<title>Node25&#45;&gt;Node27</title>
<g id="a_edge27_Node000025_Node000027"><a xlink:title=" ">
<path fill="none" stroke="#63b8ff" d="M611.01,-112.88C634.27,-108.9 659.43,-104.59 681.74,-100.76"/>
<polygon fill="#63b8ff" stroke="#63b8ff" points="682.51,-104.18 691.77,-99.05 681.32,-97.28 682.51,-104.18"/>
</a>
</g>
</g>
<!-- Node26&#45;&gt;Node18 -->
<g id="edge26_Node000026_Node000018" class="edge">
<title>Node26&#45;&gt;Node18</title>
<g id="a_edge26_Node000026_Node000018"><a xlink:title=" ">
<path fill="none" stroke="#63b8ff" d="M794.56,-136.01C808.49,-139 823.89,-142.34 838,-145.5 855.21,-149.35 874.01,-153.69 890.78,-157.61"/>
<polygon fill="#63b8ff" stroke="#63b8ff" points="890.39,-161.12 900.93,-159.99 891.99,-154.3 890.39,-161.12"/>
</a>
</g>
</g>
<!-- Node31 -->
<g id="Node000031" class="node">
<title>Node31</title>
<g id="a_Node000031"><a xlink:href="classOpenGLWindow.html#ad664443240cdd277b10bacbf1608478b" target="_top" xlink:title=" ">
<polygon fill="white" stroke="#666666" points="611.5,-19 449.5,-19 449.5,0 611.5,0 611.5,-19"/>
<text text-anchor="middle" x="530.5" y="-7" font-family="Helvetica,sans-Serif" font-size="10.00">OpenGLWindow::setSimSpeed</text>
</a>
</g>
</g>
<!-- Node30&#45;&gt;Node31 -->
<g id="edge31_Node000030_Node000031" class="edge">
<title>Node30&#45;&gt;Node31</title>
<g id="a_edge31_Node000030_Node000031"><a xlink:title=" ">
<path fill="none" stroke="#63b8ff" d="M380.29,-21.96C399.23,-20.38 419.62,-18.68 439.06,-17.05"/>
<polygon fill="#63b8ff" stroke="#63b8ff" points="439.46,-20.53 449.13,-16.21 438.87,-13.56 439.46,-20.53"/>
</a>
</g>
</g>
</g>
</svg>

<g id="navigator" transform="translate(0 0)" fill="#404254">
  <rect fill="#f2f5e9" fill-opacity="0.5" stroke="#606060" stroke-width=".5" x="0" y="0" width="60" height="60"/>
  <use id="zoomplus" xlink:href="#zoomPlus" x="17" y="9" onmousedown="handleZoom(evt,'in')"/>
  <use id="zoomminus" xlink:href="#zoomMin" x="42" y="9" onmousedown="handleZoom(evt,'out')"/>
  <use id="reset" xlink:href="#resetDef" x="30" y="36" onmousedown="handleReset()"/>
   <use id="arrowup" xlink:href="#arrowUp" x="0" y="0" onmousedown="handlePan(0,-1)"/>
  <use id="arrowright" xlink:href="#arrowRight" x="0" y="0" onmousedown="handlePan(1,0)"/>
  <use id="arrowdown" xlink:href="#arrowDown" x="0" y="0" onmousedown="handlePan(0,1)"/>
  <use id="arrowleft" xlink:href="#arrowLeft" x="0" y="0" onmousedown="handlePan(-1,0)"/>
</g>
<svg viewBox="0 0 15 15" width="100%" height="30px" preserveAspectRatio="xMaxYMin meet">
 <g id="arrow_out" transform="scale(0.3 0.3)">
  <a xlink:href="classSceneSerializer_a490f2bd87e7c9459ee47be974653b433_cgraph_org.svg" target="_base">
   <rect id="button" ry="5" rx="5" y="6" x="6" height="38" width="38"
        fill="#f2f5e9" fill-opacity="0.5" stroke="#606060" stroke-width="1.0"/>
   <path id="arrow"
     d="M 11.500037,31.436501 C 11.940474,20.09759 22.043105,11.32322 32.158766,21.979434 L 37.068811,17.246167 C 37.068811,17.246167 37.088388,32 37.088388,32 L 22.160133,31.978069 C 22.160133,31.978069 26.997745,27.140456 26.997745,27.140456 C 18.528582,18.264221 13.291696,25.230495 11.500037,31.436501 z"
     style="fill:#404040;"/>
  </a>
 </g>
</svg>

<style type='text/css'>
<![CDATA[
[data-mouse-over-selected='false'] { opacity: 0.7; }
[data-mouse-over-selected='true']  { opacity: 1.0; }
]]>
</style>
<script type="application/ecmascript"><![CDATA[
document.addEventListener('DOMContentLoaded', (event) => {
  highlightEdges();
  highlightAdjacentNodes();
});
]]></script>
</svg>
