<?xml version="1.0" encoding="UTF-8" standalone="no"?>
<!DOCTYPE svg PUBLIC "-//W3C//DTD SVG 1.1//EN"
 "http://www.w3.org/Graphics/SVG/1.1/DTD/svg11.dtd">
<!-- Generated by graphviz version 2.43.0 (0)
 -->
<!-- Title: Physics::PointMass::resolveCollisionWithRigidBody Pages: 1 -->
<svg width="566pt" height="402pt"
 viewBox="0.00 0.00 566.00 402.00" xmlns="http://www.w3.org/2000/svg" xmlns:xlink="http://www.w3.org/1999/xlink">
<g id="graph0" class="graph" transform="scale(1 1) rotate(0) translate(4 398)">
<title>Physics::PointMass::resolveCollisionWithRigidBody</title>
<!-- Node1 -->
<g id="Node000001" class="node">
<title>Node1</title>
<g id="a_Node000001"><a xlink:title=" ">
<polygon fill="#999999" stroke="#666666" points="173,-212 0,-212 0,-182 173,-182 173,-212"/>
<text text-anchor="start" x="8" y="-200" font-family="Helvetica,sans-Serif" font-size="10.00">Physics::PointMass</text>
<text text-anchor="middle" x="86.5" y="-189" font-family="Helvetica,sans-Serif" font-size="10.00">::resolveCollisionWithRigidBody</text>
</a>
</g>
</g>
<!-- Node2 -->
<g id="Node000002" class="node">
<title>Node2</title>
<g id="a_Node000002"><a xlink:href="classPhysics_1_1RigidBody.html#ab4b4ea01aa74880550e9e1d91e6ed10d" target="_top" xlink:title=" ">
<polygon fill="white" stroke="#666666" points="382,-212 209,-212 209,-182 382,-182 382,-212"/>
<text text-anchor="start" x="217" y="-200" font-family="Helvetica,sans-Serif" font-size="10.00">Physics::RigidBody</text>
<text text-anchor="middle" x="295.5" y="-189" font-family="Helvetica,sans-Serif" font-size="10.00">::resolveCollisionWithPointMass</text>
</a>
</g>
</g>
<!-- Node1&#45;&gt;Node2 -->
<g id="edge1_Node000001_Node000002" class="edge">
<title>Node1&#45;&gt;Node2</title>
<g id="a_edge1_Node000001_Node000002"><a xlink:title=" ">
<path fill="none" stroke="#63b8ff" d="M173.19,-197C181.66,-197 190.3,-197 198.87,-197"/>
<polygon fill="#63b8ff" stroke="#63b8ff" points="198.88,-200.5 208.88,-197 198.88,-193.5 198.88,-200.5"/>
</a>
</g>
</g>
<!-- Node3 -->
<g id="Node000003" class="node">
<title>Node3</title>
<g id="a_Node000003"><a xlink:href="classPhysics_1_1PointMass.html#aad903165a31093747ecd85f644a84bd3" target="_top" xlink:title=" ">
<polygon fill="white" stroke="#666666" points="543,-394 433,-394 433,-364 543,-364 543,-394"/>
<text text-anchor="start" x="441" y="-382" font-family="Helvetica,sans-Serif" font-size="10.00">Physics::PointMass</text>
<text text-anchor="middle" x="488" y="-371" font-family="Helvetica,sans-Serif" font-size="10.00">::applyImpulse</text>
</a>
</g>
</g>
<!-- Node2&#45;&gt;Node3 -->
<g id="edge2_Node000002_Node000003" class="edge">
<title>Node2&#45;&gt;Node3</title>
<g id="a_edge2_Node000002_Node000003"><a xlink:title=" ">
<path fill="none" stroke="#63b8ff" d="M304.33,-212.43C321,-243.78 363,-315.32 418,-355 420.07,-356.49 422.24,-357.9 424.48,-359.23"/>
<polygon fill="#63b8ff" stroke="#63b8ff" points="422.96,-362.38 433.43,-363.94 426.22,-356.18 422.96,-362.38"/>
</a>
</g>
</g>
<!-- Node4 -->
<g id="Node000004" class="node">
<title>Node4</title>
<g id="a_Node000004"><a xlink:href="classICollider.html#a764e71a6134a33f339affd6eea363841" target="_top" xlink:title=" ">
<polygon fill="white" stroke="#666666" points="549,-345.5 427,-345.5 427,-326.5 549,-326.5 549,-345.5"/>
<text text-anchor="middle" x="488" y="-333.5" font-family="Helvetica,sans-Serif" font-size="10.00">ICollider::closestPoint</text>
</a>
</g>
</g>
<!-- Node2&#45;&gt;Node4 -->
<g id="edge3_Node000002_Node000004" class="edge">
<title>Node2&#45;&gt;Node4</title>
<g id="a_edge3_Node000002_Node000004"><a xlink:title=" ">
<path fill="none" stroke="#63b8ff" d="M307.76,-212.41C327.29,-238.02 370,-289.26 418,-317 421.86,-319.23 425.99,-321.2 430.24,-322.96"/>
<polygon fill="#63b8ff" stroke="#63b8ff" points="429.08,-326.26 439.67,-326.44 431.51,-319.69 429.08,-326.26"/>
</a>
</g>
</g>
<!-- Node5 -->
<g id="Node000005" class="node">
<title>Node5</title>
<g id="a_Node000005"><a xlink:href="classPhysics_1_1PhysicsBody.html#a6fb25efd74ad88f01f5c481bd516bad8" target="_top" xlink:title=" ">
<polygon fill="white" stroke="#666666" points="548.5,-308 427.5,-308 427.5,-278 548.5,-278 548.5,-308"/>
<text text-anchor="start" x="435.5" y="-296" font-family="Helvetica,sans-Serif" font-size="10.00">Physics::PhysicsBody</text>
<text text-anchor="middle" x="488" y="-285" font-family="Helvetica,sans-Serif" font-size="10.00">::getAllForces</text>
</a>
</g>
</g>
<!-- Node2&#45;&gt;Node5 -->
<g id="edge4_Node000002_Node000005" class="edge">
<title>Node2&#45;&gt;Node5</title>
<g id="a_edge4_Node000002_Node000005"><a xlink:title=" ">
<path fill="none" stroke="#63b8ff" d="M319.04,-212.23C342.89,-227.88 381.98,-252.27 418,-269 421.99,-270.85 426.17,-272.65 430.4,-274.36"/>
<polygon fill="#63b8ff" stroke="#63b8ff" points="429.14,-277.62 439.73,-277.97 431.67,-271.1 429.14,-277.62"/>
</a>
</g>
</g>
<!-- Node6 -->
<g id="Node000006" class="node">
<title>Node6</title>
<g id="a_Node000006"><a xlink:href="classPhysics_1_1PhysicsBody.html#a0c44730bee1088e28f85b4579f506c7d" target="_top" xlink:title=" ">
<polygon fill="white" stroke="#666666" points="548.5,-260 427.5,-260 427.5,-230 548.5,-230 548.5,-260"/>
<text text-anchor="start" x="435.5" y="-248" font-family="Helvetica,sans-Serif" font-size="10.00">Physics::PhysicsBody</text>
<text text-anchor="middle" x="488" y="-237" font-family="Helvetica,sans-Serif" font-size="10.00">::getMass</text>
</a>
</g>
</g>
<!-- Node2&#45;&gt;Node6 -->
<g id="edge5_Node000002_Node000006" class="edge">
<title>Node2&#45;&gt;Node6</title>
<g id="a_edge5_Node000002_Node000006"><a xlink:title=" ">
<path fill="none" stroke="#63b8ff" d="M356.25,-212.06C375.76,-216.97 397.58,-222.47 417.72,-227.54"/>
<polygon fill="#63b8ff" stroke="#63b8ff" points="416.91,-230.95 427.46,-230 418.62,-224.16 416.91,-230.95"/>
</a>
</g>
</g>
<!-- Node7 -->
<g id="Node000007" class="node">
<title>Node7</title>
<g id="a_Node000007"><a xlink:href="classPhysics_1_1PhysicsBody.html#ac4112265c85a99f20fb69008db8e8754" target="_top" xlink:title=" ">
<polygon fill="white" stroke="#666666" points="548.5,-212 427.5,-212 427.5,-182 548.5,-182 548.5,-212"/>
<text text-anchor="start" x="435.5" y="-200" font-family="Helvetica,sans-Serif" font-size="10.00">Physics::PhysicsBody</text>
<text text-anchor="middle" x="488" y="-189" font-family="Helvetica,sans-Serif" font-size="10.00">::getPosition</text>
</a>
</g>
</g>
<!-- Node2&#45;&gt;Node7 -->
<g id="edge6_Node000002_Node000007" class="edge">
<title>Node2&#45;&gt;Node7</title>
<g id="a_edge6_Node000002_Node000007"><a xlink:title=" ">
<path fill="none" stroke="#63b8ff" d="M382.28,-197C393.92,-197 405.76,-197 417.08,-197"/>
<polygon fill="#63b8ff" stroke="#63b8ff" points="417.31,-200.5 427.31,-197 417.31,-193.5 417.31,-200.5"/>
</a>
</g>
</g>
<!-- Node8 -->
<g id="Node000008" class="node">
<title>Node8</title>
<g id="a_Node000008"><a xlink:href="classICollider.html#ab469b9bbe9a4c245a59b4bc1539095dd" target="_top" xlink:title=" ">
<polygon fill="white" stroke="#666666" points="558,-163.5 418,-163.5 418,-144.5 558,-144.5 558,-163.5"/>
<text text-anchor="middle" x="488" y="-151.5" font-family="Helvetica,sans-Serif" font-size="10.00">ICollider::getTransformed</text>
</a>
</g>
</g>
<!-- Node2&#45;&gt;Node8 -->
<g id="edge7_Node000002_Node000008" class="edge">
<title>Node2&#45;&gt;Node8</title>
<g id="a_edge7_Node000002_Node000008"><a xlink:title=" ">
<path fill="none" stroke="#63b8ff" d="M363.13,-181.96C386.67,-176.65 412.78,-170.75 434.94,-165.75"/>
<polygon fill="#63b8ff" stroke="#63b8ff" points="435.83,-169.14 444.81,-163.52 434.29,-162.31 435.83,-169.14"/>
</a>
</g>
</g>
<!-- Node9 -->
<g id="Node000009" class="node">
<title>Node9</title>
<g id="a_Node000009"><a xlink:href="classPhysics_1_1PhysicsBody.html#a4bbf491e193cf2e29954c38a92865e29" target="_top" xlink:title=" ">
<polygon fill="white" stroke="#666666" points="548.5,-126 427.5,-126 427.5,-96 548.5,-96 548.5,-126"/>
<text text-anchor="start" x="435.5" y="-114" font-family="Helvetica,sans-Serif" font-size="10.00">Physics::PhysicsBody</text>
<text text-anchor="middle" x="488" y="-103" font-family="Helvetica,sans-Serif" font-size="10.00">::getVelocity</text>
</a>
</g>
</g>
<!-- Node2&#45;&gt;Node9 -->
<g id="edge8_Node000002_Node000009" class="edge">
<title>Node2&#45;&gt;Node9</title>
<g id="a_edge8_Node000002_Node000009"><a xlink:title=" ">
<path fill="none" stroke="#63b8ff" d="M324.53,-181.74C348.87,-168.78 385.26,-150.09 418,-136 422.97,-133.86 428.2,-131.74 433.45,-129.69"/>
<polygon fill="#63b8ff" stroke="#63b8ff" points="434.79,-132.93 442.89,-126.1 432.3,-126.39 434.79,-132.93"/>
</a>
</g>
</g>
<!-- Node10 -->
<g id="Node000010" class="node">
<title>Node10</title>
<g id="a_Node000010"><a xlink:href="classPhysics_1_1PhysicsBody.html#acb13769923f966df84e223a540ace45d" target="_top" xlink:title=" ">
<polygon fill="white" stroke="#666666" points="548.5,-78 427.5,-78 427.5,-48 548.5,-48 548.5,-78"/>
<text text-anchor="start" x="435.5" y="-66" font-family="Helvetica,sans-Serif" font-size="10.00">Physics::PhysicsBody</text>
<text text-anchor="middle" x="488" y="-55" font-family="Helvetica,sans-Serif" font-size="10.00">::setForce</text>
</a>
</g>
</g>
<!-- Node2&#45;&gt;Node10 -->
<g id="edge9_Node000002_Node000010" class="edge">
<title>Node2&#45;&gt;Node10</title>
<g id="a_edge9_Node000002_Node000010"><a xlink:title=" ">
<path fill="none" stroke="#63b8ff" d="M309.58,-181.75C330.37,-158.36 373.21,-113.56 418,-87 420.84,-85.32 423.81,-83.73 426.86,-82.23"/>
<polygon fill="#63b8ff" stroke="#63b8ff" points="428.52,-85.33 436.19,-78.02 425.64,-78.95 428.52,-85.33"/>
</a>
</g>
</g>
<!-- Node11 -->
<g id="Node000011" class="node">
<title>Node11</title>
<g id="a_Node000011"><a xlink:href="classPhysics_1_1PhysicsBody.html#a1aedc823891235ff429c55e0740ab423" target="_top" xlink:title=" ">
<polygon fill="white" stroke="#666666" points="548.5,-30 427.5,-30 427.5,0 548.5,0 548.5,-30"/>
<text text-anchor="start" x="435.5" y="-18" font-family="Helvetica,sans-Serif" font-size="10.00">Physics::PhysicsBody</text>
<text text-anchor="middle" x="488" y="-7" font-family="Helvetica,sans-Serif" font-size="10.00">::setPosition</text>
</a>
</g>
</g>
<!-- Node2&#45;&gt;Node11 -->
<g id="edge10_Node000002_Node000011" class="edge">
<title>Node2&#45;&gt;Node11</title>
<g id="a_edge10_Node000002_Node000011"><a xlink:title=" ">
<path fill="none" stroke="#63b8ff" d="M304.33,-181.57C321,-150.22 363,-78.68 418,-39 420.07,-37.51 422.24,-36.1 424.48,-34.77"/>
<polygon fill="#63b8ff" stroke="#63b8ff" points="426.22,-37.82 433.43,-30.06 422.96,-31.62 426.22,-37.82"/>
</a>
</g>
</g>
</g>
</svg>
