<?xml version="1.0" encoding="UTF-8" standalone="no"?>
<!DOCTYPE svg PUBLIC "-//W3C//DTD SVG 1.1//EN"
 "http://www.w3.org/Graphics/SVG/1.1/DTD/svg11.dtd">
<!-- Generated by graphviz version 2.43.0 (0)
 -->
<!-- Title: SceneManager::createObject Pages: 1 -->
<!--zoomable 230 -->

<svg id="main" version="1.1" xmlns="http://www.w3.org/2000/svg" xmlns:xlink="http://www.w3.org/1999/xlink" xml:space="preserve" onload="init(evt)">
<style type="text/css"><![CDATA[
.node, .edge {opacity: 0.7;}
.node.selected, .edge.selected {opacity: 1;}
.edge:hover path { stroke: red; }
.edge:hover polygon { stroke: red; fill: red; }
]]></style>

<defs>
  <circle id="rim" cx="0" cy="0" r="7"/>
  <circle id="rim2" cx="0" cy="0" r="3.5"/>
  <g id="zoomPlus">
    <use xlink:href="#rim" fill="#404040"><set attributeName="fill" to="#808080" begin="zoomplus.mouseover" end="zoomplus.mouseout"/></use>
    <path d="M-4,0h8M0,-4v8" fill="none" stroke="white" stroke-width="1.5" pointer-events="none"/>
  </g>
  <g id="zoomMin">
    <use xlink:href="#rim" fill="#404040"><set attributeName="fill" to="#808080" begin="zoomminus.mouseover" end="zoomminus.mouseout"/></use>
    <path d="M-4,0h8" fill="none" stroke="white" stroke-width="1.5" pointer-events="none"/>
  </g>
  <g id="arrowUp" transform="translate(30 24)">
    <use xlink:href="#rim"/>
    <path pointer-events="none" fill="none" stroke="white" stroke-width="1.5" d="M0,-3.0v7 M-2.5,-0.5L0,-3.0L2.5,-0.5"/>
  </g>
  <g id="arrowRight" transform="rotate(90) translate(36 -43)">
    <use xlink:href="#rim"/>
    <path pointer-events="none" fill="none" stroke="white" stroke-width="1.5" d="M0,-3.0v7 M-2.5,-0.5L0,-3.0L2.5,-0.5"/>
  </g>
  <g id="arrowDown" transform="rotate(180) translate(-30 -48)">
    <use xlink:href="#rim"/>
    <path pointer-events="none" fill="none" stroke="white" stroke-width="1.5" d="M0,-3.0v7 M-2.5,-0.5L0,-3.0L2.5,-0.5"/>
  </g>
  <g id="arrowLeft" transform="rotate(270) translate(-36 17)">
    <use xlink:href="#rim"/>
    <path pointer-events="none" fill="none" stroke="white" stroke-width="1.5" d="M0,-3.0v7 M-2.5,-0.5L0,-3.0L2.5,-0.5"/>
  </g>
  <g id="resetDef">
    <use xlink:href="#rim2" fill="#404040"><set attributeName="fill" to="#808080" begin="reset.mouseover" end="reset.mouseout"/></use>
  </g>
</defs>
<script type="application/ecmascript">
var viewWidth = 593;
var viewHeight = 230;
var sectionId = 'dynsection-8';
</script>
<script type="application/ecmascript" xlink:href="svg.min.js"/>
<svg id="graph" class="graph">
<g id="viewport">
<title>SceneManager::createObject</title>
<!-- Node1 -->
<g id="Node000001" class="node">
<title>Node1</title>
<g id="a_Node000001"><a xlink:title=" ">
<polygon fill="#999999" stroke="#666666" points="157,-148 0,-148 0,-129 157,-129 157,-148"/>
<text text-anchor="middle" x="78.5" y="-136" font-family="Helvetica,sans-Serif" font-size="10.00">SceneManager::createObject</text>
</a>
</g>
</g>
<!-- Node2 -->
<g id="Node000002" class="node">
<title>Node2</title>
<g id="a_Node000002"><a xlink:href="classSceneManager.html#ad0d1661e5869720d7a07b1912d75318d" target="_top" xlink:title=" ">
<polygon fill="white" stroke="#666666" points="365,-222 206,-222 206,-203 365,-203 365,-222"/>
<text text-anchor="middle" x="285.5" y="-210" font-family="Helvetica,sans-Serif" font-size="10.00">SceneManager::addDrawable</text>
</a>
</g>
</g>
<!-- Node1&#45;&gt;Node2 -->
<g id="edge1_Node000001_Node000002" class="edge">
<title>Node1&#45;&gt;Node2</title>
<g id="a_edge1_Node000001_Node000002"><a xlink:title=" ">
<path fill="none" stroke="#63b8ff" d="M95.46,-148.07C116.91,-160.53 156.58,-182.17 193,-194.5 199.75,-196.78 206.88,-198.81 214.06,-200.61"/>
<polygon fill="#63b8ff" stroke="#63b8ff" points="213.32,-204.03 223.86,-202.92 214.93,-197.22 213.32,-204.03"/>
</a>
</g>
</g>
<!-- Node4 -->
<g id="Node000004" class="node">
<title>Node4</title>
<g id="a_Node000004"><a xlink:href="classSceneManager.html#a31d525542db0b239ba61dd36a3d92d43" target="_top" xlink:title=" ">
<polygon fill="white" stroke="#666666" points="362,-185 209,-185 209,-166 362,-166 362,-185"/>
<text text-anchor="middle" x="285.5" y="-173" font-family="Helvetica,sans-Serif" font-size="10.00">SceneManager::addPickable</text>
</a>
</g>
</g>
<!-- Node1&#45;&gt;Node4 -->
<g id="edge3_Node000001_Node000004" class="edge">
<title>Node1&#45;&gt;Node4</title>
<g id="a_edge3_Node000001_Node000004"><a xlink:title=" ">
<path fill="none" stroke="#63b8ff" d="M132.29,-148.03C159.57,-152.95 193.03,-158.99 221.63,-164.15"/>
<polygon fill="#63b8ff" stroke="#63b8ff" points="221.07,-167.61 231.53,-165.94 222.31,-160.72 221.07,-167.61"/>
</a>
</g>
</g>
<!-- Node5 -->
<g id="Node000005" class="node">
<title>Node5</title>
<g id="a_Node000005"><a xlink:href="classSceneManager.html#ab6a7ecbff438f2dbee8a0f31795456f9" target="_top" xlink:title=" ">
<polygon fill="white" stroke="#666666" points="378,-148 193,-148 193,-129 378,-129 378,-148"/>
<text text-anchor="middle" x="285.5" y="-136" font-family="Helvetica,sans-Serif" font-size="10.00">SceneManager::makeUniqueName</text>
</a>
</g>
</g>
<!-- Node1&#45;&gt;Node5 -->
<g id="edge4_Node000001_Node000005" class="edge">
<title>Node1&#45;&gt;Node5</title>
<g id="a_edge4_Node000001_Node000005"><a xlink:title=" ">
<path fill="none" stroke="#63b8ff" d="M157,-138.5C165.4,-138.5 174.03,-138.5 182.65,-138.5"/>
<polygon fill="#63b8ff" stroke="#63b8ff" points="182.76,-142 192.76,-138.5 182.76,-135 182.76,-142"/>
</a>
</g>
</g>
<!-- Node6 -->
<g id="Node000006" class="node">
<title>Node6</title>
<g id="a_Node000006"><a xlink:href="classSceneManager.html#a76592c383a85fda664a79fa155ead19e" target="_top" xlink:title=" ">
<polygon fill="white" stroke="#666666" points="363,-111 208,-111 208,-92 363,-92 363,-111"/>
<text text-anchor="middle" x="285.5" y="-99" font-family="Helvetica,sans-Serif" font-size="10.00">SceneManager::objectAdded</text>
</a>
</g>
</g>
<!-- Node1&#45;&gt;Node6 -->
<g id="edge5_Node000001_Node000006" class="edge">
<title>Node1&#45;&gt;Node6</title>
<g id="a_edge5_Node000001_Node000006"><a xlink:title=" ">
<path fill="none" stroke="#63b8ff" d="M132.29,-128.97C159.57,-124.05 193.03,-118.01 221.63,-112.85"/>
<polygon fill="#63b8ff" stroke="#63b8ff" points="222.31,-116.28 231.53,-111.06 221.07,-109.39 222.31,-116.28"/>
</a>
</g>
</g>
<!-- Node7 -->
<g id="Node000007" class="node">
<title>Node7</title>
<g id="a_Node000007"><a xlink:href="classSceneManager.html#aad894e90cf7ad353aab707f966c9711d" target="_top" xlink:title=" ">
<polygon fill="white" stroke="#666666" points="370.5,-74 200.5,-74 200.5,-55 370.5,-55 370.5,-74"/>
<text text-anchor="middle" x="285.5" y="-62" font-family="Helvetica,sans-Serif" font-size="10.00">SceneManager::setObjectName</text>
</a>
</g>
</g>
<!-- Node1&#45;&gt;Node7 -->
<g id="edge6_Node000001_Node000007" class="edge">
<title>Node1&#45;&gt;Node7</title>
<g id="a_edge6_Node000001_Node000007"><a xlink:title=" ">
<path fill="none" stroke="#63b8ff" d="M95.87,-128.96C117.46,-116.77 156.93,-95.77 193,-83.5 200.95,-80.8 209.42,-78.41 217.88,-76.32"/>
<polygon fill="#63b8ff" stroke="#63b8ff" points="218.84,-79.69 227.78,-74 217.25,-72.87 218.84,-79.69"/>
</a>
</g>
</g>
<!-- Node3 -->
<g id="Node000003" class="node">
<title>Node3</title>
<g id="a_Node000003"><a xlink:href="classScene.html#a178d4cac84f5cc922f6224356e27bc25" target="_top" xlink:title=" ">
<polygon fill="white" stroke="#666666" points="557.5,-222 441.5,-222 441.5,-203 557.5,-203 557.5,-222"/>
<text text-anchor="middle" x="499.5" y="-210" font-family="Helvetica,sans-Serif" font-size="10.00">Scene::addDrawable</text>
</a>
</g>
</g>
<!-- Node2&#45;&gt;Node3 -->
<g id="edge2_Node000002_Node000003" class="edge">
<title>Node2&#45;&gt;Node3</title>
<g id="a_edge2_Node000002_Node000003"><a xlink:title=" ">
<path fill="none" stroke="#63b8ff" d="M365.14,-212.5C386.81,-212.5 410.12,-212.5 431.09,-212.5"/>
<polygon fill="#63b8ff" stroke="#63b8ff" points="431.19,-216 441.19,-212.5 431.19,-209 431.19,-216"/>
</a>
</g>
</g>
<!-- Node8 -->
<g id="Node000008" class="node">
<title>Node8</title>
<g id="a_Node000008"><a xlink:href="classSceneObject.html#abebc043e3253d66da477f862a950775d" target="_top" xlink:title=" ">
<polygon fill="white" stroke="#666666" points="563.5,-130 435.5,-130 435.5,-111 563.5,-111 563.5,-130"/>
<text text-anchor="middle" x="499.5" y="-118" font-family="Helvetica,sans-Serif" font-size="10.00">SceneObject::getName</text>
</a>
</g>
</g>
<!-- Node7&#45;&gt;Node8 -->
<g id="edge7_Node000007_Node000008" class="edge">
<title>Node7&#45;&gt;Node8</title>
<g id="a_edge7_Node000007_Node000008"><a xlink:title=" ">
<path fill="none" stroke="#63b8ff" d="M344.78,-74.04C355.96,-76.59 367.47,-79.71 378,-83.5 395.02,-89.62 396.99,-96.33 414,-102.5 420.02,-104.68 426.37,-106.63 432.79,-108.38"/>
<polygon fill="#63b8ff" stroke="#63b8ff" points="432.33,-111.87 442.88,-110.94 434.05,-105.09 432.33,-111.87"/>
</a>
</g>
</g>
<!-- Node9 -->
<g id="Node000009" class="node">
<title>Node9</title>
<g id="a_Node000009"><a xlink:href="classSceneManager.html#a624cd344feba3357d2ec95bab7229a6f" target="_top" xlink:title=" ">
<polygon fill="white" stroke="#666666" points="583,-93 416,-93 416,-74 583,-74 583,-93"/>
<text text-anchor="middle" x="499.5" y="-81" font-family="Helvetica,sans-Serif" font-size="10.00">SceneManager::isNameUnique</text>
</a>
</g>
</g>
<!-- Node7&#45;&gt;Node9 -->
<g id="edge8_Node000007_Node000009" class="edge">
<title>Node7&#45;&gt;Node9</title>
<g id="a_edge8_Node000007_Node000009"><a xlink:title=" ">
<path fill="none" stroke="#63b8ff" d="M370.59,-72.04C382.13,-73.07 394.02,-74.14 405.7,-75.18"/>
<polygon fill="#63b8ff" stroke="#63b8ff" points="405.62,-78.69 415.89,-76.1 406.25,-71.72 405.62,-78.69"/>
</a>
</g>
</g>
<!-- Node10 -->
<g id="Node000010" class="node">
<title>Node10</title>
<g id="a_Node000010"><a xlink:href="classSceneManager.html#a76dba0a09f8b2a1dc376236f904a9c3a" target="_top" xlink:title=" ">
<polygon fill="white" stroke="#666666" points="585,-56 414,-56 414,-37 585,-37 585,-56"/>
<text text-anchor="middle" x="499.5" y="-44" font-family="Helvetica,sans-Serif" font-size="10.00">SceneManager::objectRenamed</text>
</a>
</g>
</g>
<!-- Node7&#45;&gt;Node10 -->
<g id="edge9_Node000007_Node000010" class="edge">
<title>Node7&#45;&gt;Node10</title>
<g id="a_edge9_Node000007_Node000010"><a xlink:title=" ">
<path fill="none" stroke="#63b8ff" d="M370.59,-57.36C381.48,-56.44 392.69,-55.48 403.73,-54.55"/>
<polygon fill="#63b8ff" stroke="#63b8ff" points="404.15,-58.02 413.82,-53.69 403.55,-51.05 404.15,-58.02"/>
</a>
</g>
</g>
<!-- Node11 -->
<g id="Node000011" class="node">
<title>Node11</title>
<g id="a_Node000011"><a xlink:href="classSceneObject.html#ad8ac9406b35bee3cd4fad75db013d9c4" target="_top" xlink:title=" ">
<polygon fill="white" stroke="#666666" points="563.5,-19 435.5,-19 435.5,0 563.5,0 563.5,-19"/>
<text text-anchor="middle" x="499.5" y="-7" font-family="Helvetica,sans-Serif" font-size="10.00">SceneObject::setName</text>
</a>
</g>
</g>
<!-- Node7&#45;&gt;Node11 -->
<g id="edge10_Node000007_Node000011" class="edge">
<title>Node7&#45;&gt;Node11</title>
<g id="a_edge10_Node000007_Node000011"><a xlink:title=" ">
<path fill="none" stroke="#63b8ff" d="M318.33,-55C344.05,-47.44 381.22,-36.81 414,-28.5 423.73,-26.03 434.13,-23.56 444.19,-21.26"/>
<polygon fill="#63b8ff" stroke="#63b8ff" points="445.12,-24.63 454.1,-19.01 443.57,-17.81 445.12,-24.63"/>
</a>
</g>
</g>
</g>
</svg>

<g id="navigator" transform="translate(0 0)" fill="#404254">
  <rect fill="#f2f5e9" fill-opacity="0.5" stroke="#606060" stroke-width=".5" x="0" y="0" width="60" height="60"/>
  <use id="zoomplus" xlink:href="#zoomPlus" x="17" y="9" onmousedown="handleZoom(evt,'in')"/>
  <use id="zoomminus" xlink:href="#zoomMin" x="42" y="9" onmousedown="handleZoom(evt,'out')"/>
  <use id="reset" xlink:href="#resetDef" x="30" y="36" onmousedown="handleReset()"/>
   <use id="arrowup" xlink:href="#arrowUp" x="0" y="0" onmousedown="handlePan(0,-1)"/>
  <use id="arrowright" xlink:href="#arrowRight" x="0" y="0" onmousedown="handlePan(1,0)"/>
  <use id="arrowdown" xlink:href="#arrowDown" x="0" y="0" onmousedown="handlePan(0,1)"/>
  <use id="arrowleft" xlink:href="#arrowLeft" x="0" y="0" onmousedown="handlePan(-1,0)"/>
</g>
<svg viewBox="0 0 15 15" width="100%" height="30px" preserveAspectRatio="xMaxYMin meet">
 <g id="arrow_out" transform="scale(0.3 0.3)">
  <a xlink:href="classSceneManager_a1daee617aa556b8af8a7202d3f8f28c8_cgraph_org.svg" target="_base">
   <rect id="button" ry="5" rx="5" y="6" x="6" height="38" width="38"
        fill="#f2f5e9" fill-opacity="0.5" stroke="#606060" stroke-width="1.0"/>
   <path id="arrow"
     d="M 11.500037,31.436501 C 11.940474,20.09759 22.043105,11.32322 32.158766,21.979434 L 37.068811,17.246167 C 37.068811,17.246167 37.088388,32 37.088388,32 L 22.160133,31.978069 C 22.160133,31.978069 26.997745,27.140456 26.997745,27.140456 C 18.528582,18.264221 13.291696,25.230495 11.500037,31.436501 z"
     style="fill:#404040;"/>
  </a>
 </g>
</svg>

<style type='text/css'>
<![CDATA[
[data-mouse-over-selected='false'] { opacity: 0.7; }
[data-mouse-over-selected='true']  { opacity: 1.0; }
]]>
</style>
<script type="application/ecmascript"><![CDATA[
document.addEventListener('DOMContentLoaded', (event) => {
  highlightEdges();
  highlightAdjacentNodes();
});
]]></script>
</svg>
