<?xml version="1.0" encoding="UTF-8" standalone="no"?>
<!DOCTYPE svg PUBLIC "-//W3C//DTD SVG 1.1//EN"
 "http://www.w3.org/Graphics/SVG/1.1/DTD/svg11.dtd">
<!-- Generated by graphviz version 2.43.0 (0)
 -->
<!-- Title: Physics::PhysicsBody::getSurfaceArea Pages: 1 -->
<svg width="547pt" height="161pt"
 viewBox="0.00 0.00 547.00 161.00" xmlns="http://www.w3.org/2000/svg" xmlns:xlink="http://www.w3.org/1999/xlink">
<g id="graph0" class="graph" transform="scale(1 1) rotate(0) translate(4 157)">
<title>Physics::PhysicsBody::getSurfaceArea</title>
<!-- Node1 -->
<g id="Node000001" class="node">
<title>Node1</title>
<g id="a_Node000001"><a xlink:title=" ">
<polygon fill="#999999" stroke="#666666" points="539,-91.5 418,-91.5 418,-61.5 539,-61.5 539,-91.5"/>
<text text-anchor="start" x="426" y="-79.5" font-family="Helvetica,sans-Serif" font-size="10.00">Physics::PhysicsBody</text>
<text text-anchor="middle" x="478.5" y="-68.5" font-family="Helvetica,sans-Serif" font-size="10.00">::getSurfaceArea</text>
</a>
</g>
</g>
<!-- Node2 -->
<g id="Node000002" class="node">
<title>Node2</title>
<g id="a_Node000002"><a xlink:href="classOctree.html#a2a87e28ce9c64242a6e4c8cb0aaac2a1" target="_top" xlink:title=" ">
<polygon fill="white" stroke="#666666" points="356,-153 235,-153 235,-134 356,-134 356,-153"/>
<text text-anchor="middle" x="295.5" y="-141" font-family="Helvetica,sans-Serif" font-size="10.00">Octree::computeHeat</text>
</a>
</g>
</g>
<!-- Node1&#45;&gt;Node2 -->
<g id="edge1_Node000001_Node000002" class="edge">
<title>Node1&#45;&gt;Node2</title>
<g id="a_edge1_Node000001_Node000002"><a xlink:title=" ">
<path fill="none" stroke="#63b8ff" d="M443.07,-96.4C425.3,-106 402.99,-117.02 382,-124.5 371.54,-128.22 360.1,-131.37 349.08,-133.96"/>
<polygon fill="#63b8ff" stroke="#63b8ff" points="444.84,-99.42 451.92,-91.54 441.47,-93.29 444.84,-99.42"/>
</a>
</g>
</g>
<!-- Node3 -->
<g id="Node000003" class="node">
<title>Node3</title>
<g id="a_Node000003"><a xlink:href="classPhysics_1_1PointMass.html#aa94536ea681b33ed376700aae820cef0" target="_top" xlink:title=" ">
<polygon fill="white" stroke="#666666" points="382,-115.5 209,-115.5 209,-85.5 382,-85.5 382,-115.5"/>
<text text-anchor="start" x="217" y="-103.5" font-family="Helvetica,sans-Serif" font-size="10.00">Physics::PointMass</text>
<text text-anchor="middle" x="295.5" y="-92.5" font-family="Helvetica,sans-Serif" font-size="10.00">::resolveCollisionWithPointMass</text>
</a>
</g>
</g>
<!-- Node1&#45;&gt;Node3 -->
<g id="edge2_Node000001_Node000003" class="edge">
<title>Node1&#45;&gt;Node3</title>
<g id="a_edge2_Node000001_Node000003"><a xlink:title=" ">
<path fill="none" stroke="#63b8ff" d="M407.9,-85.73C399.51,-86.84 390.87,-87.99 382.28,-89.13"/>
<polygon fill="#63b8ff" stroke="#63b8ff" points="408.53,-89.18 417.98,-84.39 407.61,-82.24 408.53,-89.18"/>
</a>
</g>
</g>
<!-- Node4 -->
<g id="Node000004" class="node">
<title>Node4</title>
<g id="a_Node000004"><a xlink:href="classPhysics_1_1RigidBody.html#a4e7d7e2da6c0011c98745c15903a2b15" target="_top" xlink:title=" ">
<polygon fill="white" stroke="#666666" points="382,-67.5 209,-67.5 209,-37.5 382,-37.5 382,-67.5"/>
<text text-anchor="start" x="217" y="-55.5" font-family="Helvetica,sans-Serif" font-size="10.00">Physics::RigidBody</text>
<text text-anchor="middle" x="295.5" y="-44.5" font-family="Helvetica,sans-Serif" font-size="10.00">::resolveCollisionWithPointMass</text>
</a>
</g>
</g>
<!-- Node1&#45;&gt;Node4 -->
<g id="edge3_Node000001_Node000004" class="edge">
<title>Node1&#45;&gt;Node4</title>
<g id="a_edge3_Node000001_Node000004"><a xlink:title=" ">
<path fill="none" stroke="#63b8ff" d="M407.9,-67.27C399.51,-66.16 390.87,-65.01 382.28,-63.87"/>
<polygon fill="#63b8ff" stroke="#63b8ff" points="407.61,-70.76 417.98,-68.61 408.53,-63.82 407.61,-70.76"/>
</a>
</g>
</g>
<!-- Node7 -->
<g id="Node000007" class="node">
<title>Node7</title>
<g id="a_Node000007"><a xlink:href="PhysicsTests_8cpp.html#ac15ef44b6edc28d27a67cd4139765a7f" target="_top" xlink:title=" ">
<polygon fill="white" stroke="#666666" points="316,-19 275,-19 275,0 316,0 316,-19"/>
<text text-anchor="middle" x="295.5" y="-7" font-family="Helvetica,sans-Serif" font-size="10.00">TEST</text>
</a>
</g>
</g>
<!-- Node1&#45;&gt;Node7 -->
<g id="edge6_Node000001_Node000007" class="edge">
<title>Node1&#45;&gt;Node7</title>
<g id="a_edge6_Node000001_Node000007"><a xlink:title=" ">
<path fill="none" stroke="#63b8ff" d="M443.07,-56.6C425.3,-47 402.99,-35.98 382,-28.5 360.08,-20.69 333.82,-15.43 316.24,-12.46"/>
<polygon fill="#63b8ff" stroke="#63b8ff" points="441.47,-59.71 451.92,-61.46 444.84,-53.58 441.47,-59.71"/>
</a>
</g>
</g>
<!-- Node5 -->
<g id="Node000005" class="node">
<title>Node5</title>
<g id="a_Node000005"><a xlink:href="classPhysics_1_1PointMass.html#a6876155fbb7a943c6d2e06f4c6707959" target="_top" xlink:title=" ">
<polygon fill="white" stroke="#666666" points="173,-89.5 0,-89.5 0,-59.5 173,-59.5 173,-89.5"/>
<text text-anchor="start" x="8" y="-77.5" font-family="Helvetica,sans-Serif" font-size="10.00">Physics::PointMass</text>
<text text-anchor="middle" x="86.5" y="-66.5" font-family="Helvetica,sans-Serif" font-size="10.00">::resolveCollisionWithRigidBody</text>
</a>
</g>
</g>
<!-- Node4&#45;&gt;Node5 -->
<g id="edge4_Node000004_Node000005" class="edge">
<title>Node4&#45;&gt;Node5</title>
<g id="a_edge4_Node000004_Node000005"><a xlink:title=" ">
<path fill="none" stroke="#63b8ff" d="M198.8,-62.67C190.24,-63.58 181.6,-64.5 173.12,-65.4"/>
<polygon fill="#63b8ff" stroke="#63b8ff" points="199.24,-66.14 208.81,-61.61 198.5,-59.18 199.24,-66.14"/>
</a>
</g>
</g>
<!-- Node6 -->
<g id="Node000006" class="node">
<title>Node6</title>
<g id="a_Node000006"><a xlink:href="PhysicsTests_8cpp.html#aae14e19948f282c097b0e8761991c0e1" target="_top" xlink:title=" ">
<polygon fill="white" stroke="#666666" points="107,-41 66,-41 66,-22 107,-22 107,-41"/>
<text text-anchor="middle" x="86.5" y="-29" font-family="Helvetica,sans-Serif" font-size="10.00">TEST</text>
</a>
</g>
</g>
<!-- Node4&#45;&gt;Node6 -->
<g id="edge5_Node000004_Node000006" class="edge">
<title>Node4&#45;&gt;Node6</title>
<g id="a_edge5_Node000004_Node000006"><a xlink:title=" ">
<path fill="none" stroke="#63b8ff" d="M198.68,-42.78C164.29,-39.29 128.76,-35.69 107.4,-33.52"/>
<polygon fill="#63b8ff" stroke="#63b8ff" points="198.51,-46.28 208.81,-43.81 199.22,-39.32 198.51,-46.28"/>
</a>
</g>
</g>
</g>
</svg>
