<?xml version="1.0" encoding="UTF-8" standalone="no"?>
<!DOCTYPE svg PUBLIC "-//W3C//DTD SVG 1.1//EN"
 "http://www.w3.org/Graphics/SVG/1.1/DTD/svg11.dtd">
<!-- Generated by graphviz version 2.43.0 (0)
 -->
<!-- Title: SceneManager::applyDebugSettings Pages: 1 -->
<svg width="335pt" height="64pt"
 viewBox="0.00 0.00 335.00 64.00" xmlns="http://www.w3.org/2000/svg" xmlns:xlink="http://www.w3.org/1999/xlink">
<g id="graph0" class="graph" transform="scale(1 1) rotate(0) translate(4 60)">
<title>SceneManager::applyDebugSettings</title>
<!-- Node1 -->
<g id="Node000001" class="node">
<title>Node1</title>
<g id="a_Node000001"><a xlink:title=" ">
<polygon fill="#999999" stroke="#666666" points="153,-42.5 0,-42.5 0,-12.5 153,-12.5 153,-42.5"/>
<text text-anchor="start" x="8" y="-30.5" font-family="Helvetica,sans-Serif" font-size="10.00">SceneManager::applyDebug</text>
<text text-anchor="middle" x="76.5" y="-19.5" font-family="Helvetica,sans-Serif" font-size="10.00">Settings</text>
</a>
</g>
</g>
<!-- Node2 -->
<g id="Node000002" class="node">
<title>Node2</title>
<g id="a_Node000002"><a xlink:href="classAppSettings.html#a33dabfd8f02c3afa68e0b587c202519f" target="_top" xlink:title=" ">
<polygon fill="white" stroke="#666666" points="321,-56 195,-56 195,-37 321,-37 321,-56"/>
<text text-anchor="middle" x="258" y="-44" font-family="Helvetica,sans-Serif" font-size="10.00">AppSettings::getGroup</text>
</a>
</g>
</g>
<!-- Node1&#45;&gt;Node2 -->
<g id="edge1_Node000001_Node000002" class="edge">
<title>Node1&#45;&gt;Node2</title>
<g id="a_edge1_Node000001_Node000002"><a xlink:title=" ">
<path fill="none" stroke="#63b8ff" d="M153.1,-35.5C163.52,-36.61 174.2,-37.74 184.56,-38.83"/>
<polygon fill="#63b8ff" stroke="#63b8ff" points="184.48,-42.34 194.8,-39.92 185.22,-35.38 184.48,-42.34"/>
</a>
</g>
</g>
<!-- Node3 -->
<g id="Node000003" class="node">
<title>Node3</title>
<g id="a_Node000003"><a xlink:href="classAppSettings.html#a1a7b7175ec4769346b50d6c5735cfca9" target="_top" xlink:title=" ">
<polygon fill="white" stroke="#666666" points="327,-19 189,-19 189,0 327,0 327,-19"/>
<text text-anchor="middle" x="258" y="-7" font-family="Helvetica,sans-Serif" font-size="10.00">AppSettings::getInstance</text>
</a>
</g>
</g>
<!-- Node1&#45;&gt;Node3 -->
<g id="edge2_Node000001_Node000003" class="edge">
<title>Node1&#45;&gt;Node3</title>
<g id="a_edge2_Node000001_Node000003"><a xlink:title=" ">
<path fill="none" stroke="#63b8ff" d="M153.1,-19.92C161.64,-19.06 170.36,-18.19 178.93,-17.33"/>
<polygon fill="#63b8ff" stroke="#63b8ff" points="179.3,-20.81 188.9,-16.33 178.6,-13.84 179.3,-20.81"/>
</a>
</g>
</g>
</g>
</svg>
