<?xml version="1.0" encoding="UTF-8" standalone="no"?>
<!DOCTYPE svg PUBLIC "-//W3C//DTD SVG 1.1//EN"
 "http://www.w3.org/Graphics/SVG/1.1/DTD/svg11.dtd">
<!-- Generated by graphviz version 2.43.0 (0)
 -->
<!-- Title: SceneManager::updateHoverState Pages: 1 -->
<svg width="326pt" height="64pt"
 viewBox="0.00 0.00 326.00 64.00" xmlns="http://www.w3.org/2000/svg" xmlns:xlink="http://www.w3.org/1999/xlink">
<g id="graph0" class="graph" transform="scale(1 1) rotate(0) translate(4 60)">
<title>SceneManager::updateHoverState</title>
<!-- Node1 -->
<g id="Node000001" class="node">
<title>Node1</title>
<g id="a_Node000001"><a xlink:title=" ">
<polygon fill="#999999" stroke="#666666" points="158,-42.5 0,-42.5 0,-12.5 158,-12.5 158,-42.5"/>
<text text-anchor="start" x="8" y="-30.5" font-family="Helvetica,sans-Serif" font-size="10.00">SceneManager::updateHover</text>
<text text-anchor="middle" x="79" y="-19.5" font-family="Helvetica,sans-Serif" font-size="10.00">State</text>
</a>
</g>
</g>
<!-- Node2 -->
<g id="Node000002" class="node">
<title>Node2</title>
<g id="a_Node000002"><a xlink:href="namespaceMath.html#aec8403064a88272999c2c143ef03a9fd" target="_top" xlink:title="Finds the first object intersected by a ray.">
<polygon fill="white" stroke="#666666" points="306.5,-56 205.5,-56 205.5,-37 306.5,-37 306.5,-56"/>
<text text-anchor="middle" x="256" y="-44" font-family="Helvetica,sans-Serif" font-size="10.00">Math::findFirstHit</text>
</a>
</g>
</g>
<!-- Node1&#45;&gt;Node2 -->
<g id="edge1_Node000001_Node000002" class="edge">
<title>Node1&#45;&gt;Node2</title>
<g id="a_edge1_Node000001_Node000002"><a xlink:title=" ">
<path fill="none" stroke="#63b8ff" d="M158.03,-35.97C170.44,-37.32 183.1,-38.69 195.01,-39.99"/>
<polygon fill="#63b8ff" stroke="#63b8ff" points="194.93,-43.5 205.25,-41.1 195.69,-36.54 194.93,-43.5"/>
</a>
</g>
</g>
<!-- Node3 -->
<g id="Node000003" class="node">
<title>Node3</title>
<g id="a_Node000003"><a xlink:href="classIPickable.html#a633ac40ae443d7a7935a34d145514bea" target="_top" xlink:title=" ">
<polygon fill="white" stroke="#666666" points="318,-19 194,-19 194,0 318,0 318,-19"/>
<text text-anchor="middle" x="256" y="-7" font-family="Helvetica,sans-Serif" font-size="10.00">IPickable::getObjectID</text>
</a>
</g>
</g>
<!-- Node1&#45;&gt;Node3 -->
<g id="edge2_Node000001_Node000003" class="edge">
<title>Node1&#45;&gt;Node3</title>
<g id="a_edge2_Node000001_Node000003"><a xlink:title=" ">
<path fill="none" stroke="#63b8ff" d="M158.03,-19.47C166.59,-18.59 175.26,-17.7 183.73,-16.83"/>
<polygon fill="#63b8ff" stroke="#63b8ff" points="184.34,-20.29 193.93,-15.78 183.62,-13.32 184.34,-20.29"/>
</a>
</g>
</g>
</g>
</svg>
