<?xml version="1.0" encoding="UTF-8" standalone="no"?>
<!DOCTYPE svg PUBLIC "-//W3C//DTD SVG 1.1//EN"
 "http://www.w3.org/Graphics/SVG/1.1/DTD/svg11.dtd">
<!-- Generated by graphviz version 2.43.0 (0)
 -->
<!-- Title: Physics::PhysicsBody::setPosition Pages: 1 -->
<svg width="547pt" height="453pt"
 viewBox="0.00 0.00 547.00 452.50" xmlns="http://www.w3.org/2000/svg" xmlns:xlink="http://www.w3.org/1999/xlink">
<g id="graph0" class="graph" transform="scale(1 1) rotate(0) translate(4 448.5)">
<title>Physics::PhysicsBody::setPosition</title>
<!-- Node1 -->
<g id="Node000001" class="node">
<title>Node1</title>
<g id="a_Node000001"><a xlink:title=" ">
<polygon fill="#999999" stroke="#666666" points="539,-209.5 418,-209.5 418,-179.5 539,-179.5 539,-209.5"/>
<text text-anchor="start" x="426" y="-197.5" font-family="Helvetica,sans-Serif" font-size="10.00">Physics::PhysicsBody</text>
<text text-anchor="middle" x="478.5" y="-186.5" font-family="Helvetica,sans-Serif" font-size="10.00">::setPosition</text>
</a>
</g>
</g>
<!-- Node2 -->
<g id="Node000002" class="node">
<title>Node2</title>
<g id="a_Node000002"><a xlink:href="classPhysics_1_1PointMass.html#a44c4e9fc77a451b14a8efe8fe176aa4d" target="_top" xlink:title=" ">
<polygon fill="white" stroke="#666666" points="350.5,-444.5 240.5,-444.5 240.5,-414.5 350.5,-414.5 350.5,-444.5"/>
<text text-anchor="start" x="248.5" y="-432.5" font-family="Helvetica,sans-Serif" font-size="10.00">Physics::PointMass</text>
<text text-anchor="middle" x="295.5" y="-421.5" font-family="Helvetica,sans-Serif" font-size="10.00">::PointMass</text>
</a>
</g>
</g>
<!-- Node1&#45;&gt;Node2 -->
<g id="edge1_Node000001_Node000002" class="edge">
<title>Node1&#45;&gt;Node2</title>
<g id="a_edge1_Node000001_Node000002"><a xlink:title=" ">
<path fill="none" stroke="#63b8ff" d="M473.26,-219.52C464.45,-263.75 439.9,-355.76 382,-405.5 373.11,-413.14 361.97,-418.35 350.69,-421.91"/>
<polygon fill="#63b8ff" stroke="#63b8ff" points="476.72,-220.08 475.13,-209.61 469.84,-218.79 476.72,-220.08"/>
</a>
</g>
</g>
<!-- Node3 -->
<g id="Node000003" class="node">
<title>Node3</title>
<g id="a_Node000003"><a xlink:href="classPhysics_1_1PointMass.html#a5d7f792526843305cf64ee77b63da775" target="_top" xlink:title=" ">
<polygon fill="white" stroke="#666666" points="350.5,-396.5 240.5,-396.5 240.5,-366.5 350.5,-366.5 350.5,-396.5"/>
<text text-anchor="start" x="248.5" y="-384.5" font-family="Helvetica,sans-Serif" font-size="10.00">Physics::PointMass</text>
<text text-anchor="middle" x="295.5" y="-373.5" font-family="Helvetica,sans-Serif" font-size="10.00">::PointMass</text>
</a>
</g>
</g>
<!-- Node1&#45;&gt;Node3 -->
<g id="edge2_Node000001_Node000003" class="edge">
<title>Node1&#45;&gt;Node3</title>
<g id="a_edge2_Node000001_Node000003"><a xlink:title=" ">
<path fill="none" stroke="#63b8ff" d="M469.65,-219.41C457.03,-255.35 428.79,-321.39 382,-357.5 372.85,-364.56 361.72,-369.55 350.56,-373.07"/>
<polygon fill="#63b8ff" stroke="#63b8ff" points="473.04,-220.29 472.93,-209.7 466.41,-218.05 473.04,-220.29"/>
</a>
</g>
</g>
<!-- Node4 -->
<g id="Node000004" class="node">
<title>Node4</title>
<g id="a_Node000004"><a xlink:href="classPhysics_1_1RigidBody.html#ab4b4ea01aa74880550e9e1d91e6ed10d" target="_top" xlink:title=" ">
<polygon fill="white" stroke="#666666" points="382,-348.5 209,-348.5 209,-318.5 382,-318.5 382,-348.5"/>
<text text-anchor="start" x="217" y="-336.5" font-family="Helvetica,sans-Serif" font-size="10.00">Physics::RigidBody</text>
<text text-anchor="middle" x="295.5" y="-325.5" font-family="Helvetica,sans-Serif" font-size="10.00">::resolveCollisionWithPointMass</text>
</a>
</g>
</g>
<!-- Node1&#45;&gt;Node4 -->
<g id="edge3_Node000001_Node000004" class="edge">
<title>Node1&#45;&gt;Node4</title>
<g id="a_edge3_Node000001_Node000004"><a xlink:title=" ">
<path fill="none" stroke="#63b8ff" d="M463.9,-218.27C447.7,-244.46 418.22,-285.99 382,-309.5 376.7,-312.94 370.9,-315.9 364.9,-318.43"/>
<polygon fill="#63b8ff" stroke="#63b8ff" points="466.9,-220.07 469.07,-209.7 460.91,-216.46 466.9,-220.07"/>
</a>
</g>
</g>
<!-- Node6 -->
<g id="Node000006" class="node">
<title>Node6</title>
<g id="a_Node000006"><a xlink:href="classPhysics_1_1RigidBody.html#ad5f1fb880fb0f3fbe254efec5d9d13a3" target="_top" xlink:title=" ">
<polygon fill="white" stroke="#666666" points="350,-300.5 241,-300.5 241,-270.5 350,-270.5 350,-300.5"/>
<text text-anchor="start" x="249" y="-288.5" font-family="Helvetica,sans-Serif" font-size="10.00">Physics::RigidBody</text>
<text text-anchor="middle" x="295.5" y="-277.5" font-family="Helvetica,sans-Serif" font-size="10.00">::RigidBody</text>
</a>
</g>
</g>
<!-- Node1&#45;&gt;Node6 -->
<g id="edge5_Node000001_Node000006" class="edge">
<title>Node1&#45;&gt;Node6</title>
<g id="a_edge5_Node000001_Node000006"><a xlink:title=" ">
<path fill="none" stroke="#63b8ff" d="M452.08,-215.94C433.64,-230.56 407.55,-249.39 382,-261.5 372.11,-266.19 361.13,-270.12 350.42,-273.36"/>
<polygon fill="#63b8ff" stroke="#63b8ff" points="454.4,-218.57 459.98,-209.56 450,-213.12 454.4,-218.57"/>
</a>
</g>
</g>
<!-- Node7 -->
<g id="Node000007" class="node">
<title>Node7</title>
<g id="a_Node000007"><a xlink:href="classPhysics_1_1RigidBody.html#a388c9abfe024fbfe9d21799d3c0eb8fe" target="_top" xlink:title=" ">
<polygon fill="white" stroke="#666666" points="350,-252.5 241,-252.5 241,-222.5 350,-222.5 350,-252.5"/>
<text text-anchor="start" x="249" y="-240.5" font-family="Helvetica,sans-Serif" font-size="10.00">Physics::RigidBody</text>
<text text-anchor="middle" x="295.5" y="-229.5" font-family="Helvetica,sans-Serif" font-size="10.00">::RigidBody</text>
</a>
</g>
</g>
<!-- Node1&#45;&gt;Node7 -->
<g id="edge6_Node000001_Node000007" class="edge">
<title>Node1&#45;&gt;Node7</title>
<g id="a_edge6_Node000001_Node000007"><a xlink:title=" ">
<path fill="none" stroke="#63b8ff" d="M408.09,-210.99C388.91,-215.55 368.39,-220.42 350.25,-224.73"/>
<polygon fill="#63b8ff" stroke="#63b8ff" points="409.06,-214.36 417.98,-208.64 407.44,-207.55 409.06,-214.36"/>
</a>
</g>
</g>
<!-- Node8 -->
<g id="Node000008" class="node">
<title>Node8</title>
<g id="a_Node000008"><a xlink:href="PhysicsTests_8cpp.html#a370cb716ace9dbfe84f482760aea0d00" target="_top" xlink:title=" ">
<polygon fill="white" stroke="#666666" points="316,-204 275,-204 275,-185 316,-185 316,-204"/>
<text text-anchor="middle" x="295.5" y="-192" font-family="Helvetica,sans-Serif" font-size="10.00">TEST</text>
</a>
</g>
</g>
<!-- Node1&#45;&gt;Node8 -->
<g id="edge7_Node000001_Node000008" class="edge">
<title>Node1&#45;&gt;Node8</title>
<g id="a_edge7_Node000001_Node000008"><a xlink:title=" ">
<path fill="none" stroke="#63b8ff" d="M407.91,-194.5C374.96,-194.5 338.11,-194.5 316.13,-194.5"/>
<polygon fill="#63b8ff" stroke="#63b8ff" points="407.98,-198 417.98,-194.5 407.98,-191 407.98,-198"/>
</a>
</g>
</g>
<!-- Node9 -->
<g id="Node000009" class="node">
<title>Node9</title>
<g id="a_Node000009"><a xlink:href="PhysicsTests_8cpp.html#a7c2a98ae0fe61e18c53dbbfc3dd2678d" target="_top" xlink:title=" ">
<polygon fill="white" stroke="#666666" points="316,-167 275,-167 275,-148 316,-148 316,-167"/>
<text text-anchor="middle" x="295.5" y="-155" font-family="Helvetica,sans-Serif" font-size="10.00">TEST</text>
</a>
</g>
</g>
<!-- Node1&#45;&gt;Node9 -->
<g id="edge8_Node000001_Node000009" class="edge">
<title>Node1&#45;&gt;Node9</title>
<g id="a_edge8_Node000001_Node000009"><a xlink:title=" ">
<path fill="none" stroke="#63b8ff" d="M407.91,-180.27C374.96,-173.54 338.11,-166.01 316.13,-161.51"/>
<polygon fill="#63b8ff" stroke="#63b8ff" points="407.48,-183.76 417.98,-182.33 408.89,-176.9 407.48,-183.76"/>
</a>
</g>
</g>
<!-- Node10 -->
<g id="Node000010" class="node">
<title>Node10</title>
<g id="a_Node000010"><a xlink:href="PhysicsTests_8cpp.html#a6ef196198e91ed8297633a5002dd70e9" target="_top" xlink:title=" ">
<polygon fill="white" stroke="#666666" points="316,-130 275,-130 275,-111 316,-111 316,-130"/>
<text text-anchor="middle" x="295.5" y="-118" font-family="Helvetica,sans-Serif" font-size="10.00">TEST</text>
</a>
</g>
</g>
<!-- Node1&#45;&gt;Node10 -->
<g id="edge9_Node000001_Node000010" class="edge">
<title>Node1&#45;&gt;Node10</title>
<g id="a_edge9_Node000001_Node000010"><a xlink:title=" ">
<path fill="none" stroke="#63b8ff" d="M447.26,-173.9C429.04,-162.31 404.99,-148.43 382,-139.5 360.17,-131.02 333.67,-125.87 316.01,-123.11"/>
<polygon fill="#63b8ff" stroke="#63b8ff" points="445.4,-176.87 455.7,-179.37 449.21,-170.99 445.4,-176.87"/>
</a>
</g>
</g>
<!-- Node11 -->
<g id="Node000011" class="node">
<title>Node11</title>
<g id="a_Node000011"><a xlink:href="PhysicsTests_8cpp.html#aaf9917cd74087c265f26822275a0cf9a" target="_top" xlink:title=" ">
<polygon fill="white" stroke="#666666" points="316,-93 275,-93 275,-74 316,-74 316,-93"/>
<text text-anchor="middle" x="295.5" y="-81" font-family="Helvetica,sans-Serif" font-size="10.00">TEST</text>
</a>
</g>
</g>
<!-- Node1&#45;&gt;Node11 -->
<g id="edge10_Node000001_Node000011" class="edge">
<title>Node1&#45;&gt;Node11</title>
<g id="a_edge10_Node000001_Node000011"><a xlink:title=" ">
<path fill="none" stroke="#63b8ff" d="M460.03,-171.59C442.6,-150.38 413.87,-119.61 382,-102.5 361.23,-91.35 334.27,-86.74 316.23,-84.83"/>
<polygon fill="#63b8ff" stroke="#63b8ff" points="457.37,-173.87 466.36,-179.48 462.83,-169.49 457.37,-173.87"/>
</a>
</g>
</g>
<!-- Node12 -->
<g id="Node000012" class="node">
<title>Node12</title>
<g id="a_Node000012"><a xlink:href="PhysicsTests_8cpp.html#a556d37407360d92575b9fde9164b643a" target="_top" xlink:title=" ">
<polygon fill="white" stroke="#666666" points="316,-56 275,-56 275,-37 316,-37 316,-56"/>
<text text-anchor="middle" x="295.5" y="-44" font-family="Helvetica,sans-Serif" font-size="10.00">TEST</text>
</a>
</g>
</g>
<!-- Node1&#45;&gt;Node12 -->
<g id="edge11_Node000001_Node000012" class="edge">
<title>Node1&#45;&gt;Node12</title>
<g id="a_edge11_Node000001_Node000012"><a xlink:title=" ">
<path fill="none" stroke="#63b8ff" d="M466.28,-170.18C451.35,-140.64 422.1,-91.55 382,-65.5 362.11,-52.58 334.71,-48.35 316.34,-47.02"/>
<polygon fill="#63b8ff" stroke="#63b8ff" points="463.25,-171.94 470.79,-179.38 469.53,-168.86 463.25,-171.94"/>
</a>
</g>
</g>
<!-- Node13 -->
<g id="Node000013" class="node">
<title>Node13</title>
<g id="a_Node000013"><a xlink:href="PhysicsTests_8cpp.html#a11092ab830efde715171fcf7ecf7a74c" target="_top" xlink:title=" ">
<polygon fill="white" stroke="#666666" points="316,-19 275,-19 275,0 316,0 316,-19"/>
<text text-anchor="middle" x="295.5" y="-7" font-family="Helvetica,sans-Serif" font-size="10.00">TEST</text>
</a>
</g>
</g>
<!-- Node1&#45;&gt;Node13 -->
<g id="edge12_Node000001_Node000013" class="edge">
<title>Node1&#45;&gt;Node13</title>
<g id="a_edge12_Node000001_Node000013"><a xlink:title=" ">
<path fill="none" stroke="#63b8ff" d="M470.22,-169.35C458.19,-132.45 430.53,-64.16 382,-28.5 362.76,-14.36 334.96,-10.42 316.34,-9.48"/>
<polygon fill="#63b8ff" stroke="#63b8ff" points="467.01,-170.8 473.33,-179.3 473.69,-168.71 467.01,-170.8"/>
</a>
</g>
</g>
<!-- Node5 -->
<g id="Node000005" class="node">
<title>Node5</title>
<g id="a_Node000005"><a xlink:href="classPhysics_1_1PointMass.html#a2a9325bac8ed95540eeb66438de1045d" target="_top" xlink:title=" ">
<polygon fill="white" stroke="#666666" points="173,-348.5 0,-348.5 0,-318.5 173,-318.5 173,-348.5"/>
<text text-anchor="start" x="8" y="-336.5" font-family="Helvetica,sans-Serif" font-size="10.00">Physics::PointMass</text>
<text text-anchor="middle" x="86.5" y="-325.5" font-family="Helvetica,sans-Serif" font-size="10.00">::resolveCollisionWithRigidBody</text>
</a>
</g>
</g>
<!-- Node4&#45;&gt;Node5 -->
<g id="edge4_Node000004_Node000005" class="edge">
<title>Node4&#45;&gt;Node5</title>
<g id="a_edge4_Node000004_Node000005"><a xlink:title=" ">
<path fill="none" stroke="#63b8ff" d="M198.8,-333.5C190.24,-333.5 181.6,-333.5 173.12,-333.5"/>
<polygon fill="#63b8ff" stroke="#63b8ff" points="198.81,-337 208.81,-333.5 198.81,-330 198.81,-337"/>
</a>
</g>
</g>
</g>
</svg>
