<?xml version="1.0" encoding="UTF-8" standalone="no"?>
<!DOCTYPE svg PUBLIC "-//W3C//DTD SVG 1.1//EN"
 "http://www.w3.org/Graphics/SVG/1.1/DTD/svg11.dtd">
<!-- Generated by graphviz version 2.43.0 (0)
 -->
<!-- Title: Gizmo::rayIntersection Pages: 1 -->
<svg width="298pt" height="161pt"
 viewBox="0.00 0.00 298.00 160.50" xmlns="http://www.w3.org/2000/svg" xmlns:xlink="http://www.w3.org/1999/xlink">

<svg id="main" version="1.1" xmlns="http://www.w3.org/2000/svg" xmlns:xlink="http://www.w3.org/1999/xlink" xml:space="preserve" onload="init(evt)">
<style type="text/css"><![CDATA[
.node, .edge {opacity: 0.7;}
.node.selected, .edge.selected {opacity: 1;}
.edge:hover path { stroke: red; }
.edge:hover polygon { stroke: red; fill: red; }
]]></style>
<script type="application/ecmascript" xlink:href="svg.min.js"/>
<svg id="graph" class="graph">
<g id="graph0" class="graph" transform="scale(1 1) rotate(0) translate(4 156.5)">
<title>Gizmo::rayIntersection</title>
<!-- Node1 -->
<g id="Node000001" class="node">
<title>Node1</title>
<g id="a_Node000001"><a xlink:title=" ">
<polygon fill="#999999" stroke="#666666" points="128,-93.5 0,-93.5 0,-74.5 128,-74.5 128,-93.5"/>
<text text-anchor="middle" x="64" y="-81.5" font-family="Helvetica,sans-Serif" font-size="10.00">Gizmo::rayIntersection</text>
</a>
</g>
</g>
<!-- Node2 -->
<g id="Node000002" class="node">
<title>Node2</title>
<g id="a_Node000002"><a xlink:href="classMesh.html#ac43fb0ac6de4d28096bba83517801882" target="_top" xlink:title=" ">
<polygon fill="white" stroke="#666666" points="285.5,-152.5 168.5,-152.5 168.5,-133.5 285.5,-133.5 285.5,-152.5"/>
<text text-anchor="middle" x="227" y="-140.5" font-family="Helvetica,sans-Serif" font-size="10.00">Mesh::getLocalAABB</text>
</a>
</g>
</g>
<!-- Node1&#45;&gt;Node2 -->
<g id="edge1_Node000001_Node000002" class="edge">
<title>Node1&#45;&gt;Node2</title>
<g id="a_edge1_Node000001_Node000002"><a xlink:title=" ">
<path fill="none" stroke="#63b8ff" d="M86.37,-93.65C106.24,-102.43 136.79,-115.45 164,-125 169.49,-126.93 175.3,-128.81 181.07,-130.59"/>
<polygon fill="#63b8ff" stroke="#63b8ff" points="180.12,-133.96 190.7,-133.48 182.13,-127.25 180.12,-133.96"/>
</a>
</g>
</g>
<!-- Node3 -->
<g id="Node000003" class="node">
<title>Node3</title>
<g id="a_Node000003"><a xlink:href="classGizmo.html#a63eeba073594314973e400bcf2c74e81" target="_top" xlink:title=" ">
<polygon fill="white" stroke="#666666" points="275,-115.5 179,-115.5 179,-96.5 275,-96.5 275,-115.5"/>
<text text-anchor="middle" x="227" y="-103.5" font-family="Helvetica,sans-Serif" font-size="10.00">Gizmo::getMesh</text>
</a>
</g>
</g>
<!-- Node1&#45;&gt;Node3 -->
<g id="edge2_Node000001_Node000003" class="edge">
<title>Node1&#45;&gt;Node3</title>
<g id="a_edge2_Node000001_Node000003"><a xlink:title=" ">
<path fill="none" stroke="#63b8ff" d="M128.17,-92.63C141.65,-94.47 155.81,-96.41 169.04,-98.22"/>
<polygon fill="#63b8ff" stroke="#63b8ff" points="168.56,-101.68 178.95,-99.57 169.51,-94.75 168.56,-101.68"/>
</a>
</g>
</g>
<!-- Node4 -->
<g id="Node000004" class="node">
<title>Node4</title>
<g id="a_Node000004"><a xlink:href="classPhysics_1_1Bounding_1_1AABB.html#ac5683636e700d34754fd07d4d5bda297" target="_top" xlink:title=" ">
<polygon fill="white" stroke="#666666" points="290,-78 164,-78 164,-48 290,-48 290,-78"/>
<text text-anchor="start" x="172" y="-66" font-family="Helvetica,sans-Serif" font-size="10.00">Physics::Bounding::</text>
<text text-anchor="middle" x="227" y="-55" font-family="Helvetica,sans-Serif" font-size="10.00">AABB::getTransformed</text>
</a>
</g>
</g>
<!-- Node1&#45;&gt;Node4 -->
<g id="edge3_Node000001_Node000004" class="edge">
<title>Node1&#45;&gt;Node4</title>
<g id="a_edge3_Node000001_Node000004"><a xlink:title=" ">
<path fill="none" stroke="#63b8ff" d="M128.17,-75.76C136.59,-74.66 145.28,-73.53 153.84,-72.41"/>
<polygon fill="#63b8ff" stroke="#63b8ff" points="154.34,-75.88 163.8,-71.11 153.44,-68.94 154.34,-75.88"/>
</a>
</g>
</g>
<!-- Node5 -->
<g id="Node000005" class="node">
<title>Node5</title>
<g id="a_Node000005"><a xlink:href="classPhysics_1_1Bounding_1_1AABB.html#afed969477344f038c64a5683857a63c0" target="_top" xlink:title=" ">
<polygon fill="white" stroke="#666666" points="282.5,-30 171.5,-30 171.5,0 282.5,0 282.5,-30"/>
<text text-anchor="start" x="179.5" y="-18" font-family="Helvetica,sans-Serif" font-size="10.00">Physics::Bounding::</text>
<text text-anchor="middle" x="227" y="-7" font-family="Helvetica,sans-Serif" font-size="10.00">AABB::intersectRay</text>
</a>
</g>
</g>
<!-- Node1&#45;&gt;Node5 -->
<g id="edge4_Node000001_Node000005" class="edge">
<title>Node1&#45;&gt;Node5</title>
<g id="a_edge4_Node000001_Node000005"><a xlink:title=" ">
<path fill="none" stroke="#63b8ff" d="M85.33,-74.35C105.24,-64.99 136.5,-50.56 164,-39 168.12,-37.27 172.41,-35.51 176.73,-33.77"/>
<polygon fill="#63b8ff" stroke="#63b8ff" points="178.17,-36.97 186.17,-30.03 175.59,-30.46 178.17,-36.97"/>
</a>
</g>
</g>
</g>
</svg>
</svg>

<style type='text/css'>
<![CDATA[
[data-mouse-over-selected='false'] { opacity: 0.7; }
[data-mouse-over-selected='true']  { opacity: 1.0; }
]]>
</style>
<script type="application/ecmascript"><![CDATA[
document.addEventListener('DOMContentLoaded', (event) => {
  highlightEdges();
  highlightAdjacentNodes();
});
]]></script>
</svg>
