<?xml version="1.0" encoding="UTF-8" standalone="no"?>
<!DOCTYPE svg PUBLIC "-//W3C//DTD SVG 1.1//EN"
 "http://www.w3.org/Graphics/SVG/1.1/DTD/svg11.dtd">
<!-- Generated by graphviz version 2.43.0 (0)
 -->
<!-- Title: SceneManager::processHeldKeys Pages: 1 -->
<!--zoomable 651 -->

<svg id="main" version="1.1" xmlns="http://www.w3.org/2000/svg" xmlns:xlink="http://www.w3.org/1999/xlink" xml:space="preserve" onload="init(evt)">
<style type="text/css"><![CDATA[
.node, .edge {opacity: 0.7;}
.node.selected, .edge.selected {opacity: 1;}
.edge:hover path { stroke: red; }
.edge:hover polygon { stroke: red; fill: red; }
]]></style>

<defs>
  <circle id="rim" cx="0" cy="0" r="7"/>
  <circle id="rim2" cx="0" cy="0" r="3.5"/>
  <g id="zoomPlus">
    <use xlink:href="#rim" fill="#404040"><set attributeName="fill" to="#808080" begin="zoomplus.mouseover" end="zoomplus.mouseout"/></use>
    <path d="M-4,0h8M0,-4v8" fill="none" stroke="white" stroke-width="1.5" pointer-events="none"/>
  </g>
  <g id="zoomMin">
    <use xlink:href="#rim" fill="#404040"><set attributeName="fill" to="#808080" begin="zoomminus.mouseover" end="zoomminus.mouseout"/></use>
    <path d="M-4,0h8" fill="none" stroke="white" stroke-width="1.5" pointer-events="none"/>
  </g>
  <g id="arrowUp" transform="translate(30 24)">
    <use xlink:href="#rim"/>
    <path pointer-events="none" fill="none" stroke="white" stroke-width="1.5" d="M0,-3.0v7 M-2.5,-0.5L0,-3.0L2.5,-0.5"/>
  </g>
  <g id="arrowRight" transform="rotate(90) translate(36 -43)">
    <use xlink:href="#rim"/>
    <path pointer-events="none" fill="none" stroke="white" stroke-width="1.5" d="M0,-3.0v7 M-2.5,-0.5L0,-3.0L2.5,-0.5"/>
  </g>
  <g id="arrowDown" transform="rotate(180) translate(-30 -48)">
    <use xlink:href="#rim"/>
    <path pointer-events="none" fill="none" stroke="white" stroke-width="1.5" d="M0,-3.0v7 M-2.5,-0.5L0,-3.0L2.5,-0.5"/>
  </g>
  <g id="arrowLeft" transform="rotate(270) translate(-36 17)">
    <use xlink:href="#rim"/>
    <path pointer-events="none" fill="none" stroke="white" stroke-width="1.5" d="M0,-3.0v7 M-2.5,-0.5L0,-3.0L2.5,-0.5"/>
  </g>
  <g id="resetDef">
    <use xlink:href="#rim2" fill="#404040"><set attributeName="fill" to="#808080" begin="reset.mouseover" end="reset.mouseout"/></use>
  </g>
</defs>
<script type="application/ecmascript">
var viewWidth = 1416;
var viewHeight = 651;
var sectionId = 'dynsection-32';
</script>
<script type="application/ecmascript" xlink:href="svg.min.js"/>
<svg id="graph" class="graph">
<g id="viewport">
<title>SceneManager::processHeldKeys</title>
<!-- Node1 -->
<g id="Node000001" class="node">
<title>Node1</title>
<g id="a_Node000001"><a xlink:title=" ">
<polygon fill="#999999" stroke="#666666" points="178,-423 0,-423 0,-404 178,-404 178,-423"/>
<text text-anchor="middle" x="89" y="-411" font-family="Helvetica,sans-Serif" font-size="10.00">SceneManager::processHeldKeys</text>
</a>
</g>
</g>
<!-- Node2 -->
<g id="Node000002" class="node">
<title>Node2</title>
<g id="a_Node000002"><a xlink:href="classScene.html#a8ec1e638529f69f716e791ba3ac4d2f7" target="_top" xlink:title=" ">
<polygon fill="white" stroke="#666666" points="340.5,-499 234.5,-499 234.5,-480 340.5,-480 340.5,-499"/>
<text text-anchor="middle" x="287.5" y="-487" font-family="Helvetica,sans-Serif" font-size="10.00">Scene::getCamera</text>
</a>
</g>
</g>
<!-- Node1&#45;&gt;Node2 -->
<g id="edge1_Node000001_Node000002" class="edge">
<title>Node1&#45;&gt;Node2</title>
<g id="a_edge1_Node000001_Node000002"><a xlink:title=" ">
<path fill="none" stroke="#63b8ff" d="M111.3,-423.03C135.85,-433.86 177.49,-451.83 214,-465.5 224.35,-469.38 235.65,-473.27 246.18,-476.77"/>
<polygon fill="#63b8ff" stroke="#63b8ff" points="245.39,-480.19 255.98,-479.98 247.57,-473.54 245.39,-480.19"/>
</a>
</g>
</g>
<!-- Node3 -->
<g id="Node000003" class="node">
<title>Node3</title>
<g id="a_Node000003"><a xlink:href="classSceneManager.html#a7b7b0a022dcce523178e8414fb8e4463" target="_top" xlink:title=" ">
<polygon fill="white" stroke="#666666" points="360,-423 215,-423 215,-404 360,-404 360,-423"/>
<text text-anchor="middle" x="287.5" y="-411" font-family="Helvetica,sans-Serif" font-size="10.00">SceneManager::loadScene</text>
</a>
</g>
</g>
<!-- Node1&#45;&gt;Node3 -->
<g id="edge2_Node000001_Node000003" class="edge">
<title>Node1&#45;&gt;Node3</title>
<g id="a_edge2_Node000001_Node000003"><a xlink:title=" ">
<path fill="none" stroke="#63b8ff" d="M178.19,-413.5C186.99,-413.5 195.9,-413.5 204.63,-413.5"/>
<polygon fill="#63b8ff" stroke="#63b8ff" points="204.78,-417 214.78,-413.5 204.78,-410 204.78,-417"/>
</a>
</g>
</g>
<!-- Node33 -->
<g id="Node000033" class="node">
<title>Node33</title>
<g id="a_Node000033"><a xlink:href="classCamera.html#a3374b86bbff4f043d1f0051e074b0391" target="_top" xlink:title=" ">
<polygon fill="white" stroke="#666666" points="359.5,-386 215.5,-386 215.5,-367 359.5,-367 359.5,-386"/>
<text text-anchor="middle" x="287.5" y="-374" font-family="Helvetica,sans-Serif" font-size="10.00">Camera::processKeyboard</text>
</a>
</g>
</g>
<!-- Node1&#45;&gt;Node33 -->
<g id="edge34_Node000001_Node000033" class="edge">
<title>Node1&#45;&gt;Node33</title>
<g id="a_edge34_Node000001_Node000033"><a xlink:title=" ">
<path fill="none" stroke="#63b8ff" d="M140.6,-403.97C166.63,-399.07 198.55,-393.06 225.88,-387.91"/>
<polygon fill="#63b8ff" stroke="#63b8ff" points="226.55,-391.35 235.73,-386.06 225.25,-384.47 226.55,-391.35"/>
</a>
</g>
</g>
<!-- Node34 -->
<g id="Node000034" class="node">
<title>Node34</title>
<g id="a_Node000034"><a xlink:href="classSceneManager.html#a1a46a8c9e99b6b27404a2f870f38749c" target="_top" xlink:title=" ">
<polygon fill="white" stroke="#666666" points="361,-250 214,-250 214,-231 361,-231 361,-250"/>
<text text-anchor="middle" x="287.5" y="-238" font-family="Helvetica,sans-Serif" font-size="10.00">SceneManager::saveScene</text>
</a>
</g>
</g>
<!-- Node1&#45;&gt;Node34 -->
<g id="edge35_Node000001_Node000034" class="edge">
<title>Node1&#45;&gt;Node34</title>
<g id="a_edge35_Node000001_Node000034"><a xlink:title=" ">
<path fill="none" stroke="#63b8ff" d="M100.84,-403.95C132.91,-375.72 227.55,-292.4 267.91,-256.86"/>
<polygon fill="#63b8ff" stroke="#63b8ff" points="270.25,-259.47 275.45,-250.23 265.63,-254.21 270.25,-259.47"/>
</a>
</g>
</g>
<!-- Node43 -->
<g id="Node000043" class="node">
<title>Node43</title>
<g id="a_Node000043"><a xlink:href="classSceneManager.html#a490d6eddd6ef23ffd8f283582a2d7d88" target="_top" xlink:title=" ">
<polygon fill="white" stroke="#666666" points="557,-549 401,-549 401,-530 557,-530 557,-549"/>
<text text-anchor="middle" x="479" y="-537" font-family="Helvetica,sans-Serif" font-size="10.00">SceneManager::setGizmoFor</text>
</a>
</g>
</g>
<!-- Node1&#45;&gt;Node43 -->
<g id="edge44_Node000001_Node000043" class="edge">
<title>Node1&#45;&gt;Node43</title>
<g id="a_edge44_Node000001_Node000043"><a xlink:title=" ">
<path fill="none" stroke="#63b8ff" d="M144.16,-423C211.43,-435.16 322.07,-456.46 361,-471.5 396.41,-485.18 433.72,-508.67 456.43,-524.15"/>
<polygon fill="#63b8ff" stroke="#63b8ff" points="454.45,-527.03 464.67,-529.84 458.44,-521.28 454.45,-527.03"/>
</a>
</g>
</g>
<!-- Node4 -->
<g id="Node000004" class="node">
<title>Node4</title>
<g id="a_Node000004"><a xlink:href="classSceneSerializer.html#a490f2bd87e7c9459ee47be974653b433" target="_top" xlink:title=" ">
<polygon fill="white" stroke="#666666" points="561,-423 397,-423 397,-404 561,-404 561,-423"/>
<text text-anchor="middle" x="479" y="-411" font-family="Helvetica,sans-Serif" font-size="10.00">SceneSerializer::loadFromJson</text>
</a>
</g>
</g>
<!-- Node3&#45;&gt;Node4 -->
<g id="edge3_Node000003_Node000004" class="edge">
<title>Node3&#45;&gt;Node4</title>
<g id="a_edge3_Node000003_Node000004"><a xlink:title=" ">
<path fill="none" stroke="#63b8ff" d="M360.14,-413.5C368.82,-413.5 377.78,-413.5 386.7,-413.5"/>
<polygon fill="#63b8ff" stroke="#63b8ff" points="386.73,-417 396.73,-413.5 386.73,-410 386.73,-417"/>
</a>
</g>
</g>
<!-- Node5 -->
<g id="Node000005" class="node">
<title>Node5</title>
<g id="a_Node000005"><a xlink:href="structRigidBodyOptions.html#a6cf379ca7435acbcab6561601a2ab331" target="_top" xlink:title=" ">
<polygon fill="white" stroke="#666666" points="762.5,-365 634.5,-365 634.5,-346 762.5,-346 762.5,-365"/>
<text text-anchor="middle" x="698.5" y="-353" font-family="Helvetica,sans-Serif" font-size="10.00">RigidBodyOptions::Box</text>
</a>
</g>
</g>
<!-- Node4&#45;&gt;Node5 -->
<g id="edge4_Node000004_Node000005" class="edge">
<title>Node4&#45;&gt;Node5</title>
<g id="a_edge4_Node000004_Node000005"><a xlink:title=" ">
<path fill="none" stroke="#63b8ff" d="M505.27,-403.98C528.76,-395.38 564.88,-382.85 597,-374.5 607.53,-371.76 618.77,-369.25 629.78,-367.01"/>
<polygon fill="#63b8ff" stroke="#63b8ff" points="630.67,-370.4 639.8,-365.03 629.32,-363.53 630.67,-370.4"/>
</a>
</g>
</g>
<!-- Node6 -->
<g id="Node000006" class="node">
<title>Node6</title>
<g id="a_Node000006"><a xlink:href="classSceneManager.html#a1daee617aa556b8af8a7202d3f8f28c8" target="_top" xlink:title=" ">
<polygon fill="white" stroke="#666666" points="777,-291 620,-291 620,-272 777,-272 777,-291"/>
<text text-anchor="middle" x="698.5" y="-279" font-family="Helvetica,sans-Serif" font-size="10.00">SceneManager::createObject</text>
</a>
</g>
</g>
<!-- Node4&#45;&gt;Node6 -->
<g id="edge5_Node000004_Node000006" class="edge">
<title>Node4&#45;&gt;Node6</title>
<g id="a_edge5_Node000004_Node000006"><a xlink:title=" ">
<path fill="none" stroke="#63b8ff" d="M486.9,-403.71C503.21,-381.37 546.59,-326.58 597,-300.5 601.57,-298.14 606.38,-296.07 611.34,-294.25"/>
<polygon fill="#63b8ff" stroke="#63b8ff" points="612.6,-297.52 621,-291.07 610.41,-290.87 612.6,-297.52"/>
</a>
</g>
</g>
<!-- Node12 -->
<g id="Node000012" class="node">
<title>Node12</title>
<g id="a_Node000012"><a xlink:href="classSceneManager.html#aad894e90cf7ad353aab707f966c9711d" target="_top" xlink:title=" ">
<polygon fill="white" stroke="#666666" points="1013.5,-217 843.5,-217 843.5,-198 1013.5,-198 1013.5,-217"/>
<text text-anchor="middle" x="928.5" y="-205" font-family="Helvetica,sans-Serif" font-size="10.00">SceneManager::setObjectName</text>
</a>
</g>
</g>
<!-- Node4&#45;&gt;Node12 -->
<g id="edge24_Node000004_Node000012" class="edge">
<title>Node4&#45;&gt;Node12</title>
<g id="a_edge24_Node000004_Node000012"><a xlink:title=" ">
<path fill="none" stroke="#63b8ff" d="M484.39,-403.77C497.25,-376.47 537.73,-298.88 597,-263.5 617.98,-250.98 753.69,-230.78 844.55,-218.37"/>
<polygon fill="#63b8ff" stroke="#63b8ff" points="845.14,-221.82 854.58,-217.01 844.2,-214.89 845.14,-221.82"/>
</a>
</g>
</g>
<!-- Node17 -->
<g id="Node000017" class="node">
<title>Node17</title>
<g id="a_Node000017"><a xlink:href="classSceneManager.html#a53736fa499987ffff612d3ee7c85442c" target="_top" xlink:title=" ">
<polygon fill="white" stroke="#666666" points="786,-402 611,-402 611,-383 786,-383 786,-402"/>
<text text-anchor="middle" x="698.5" y="-390" font-family="Helvetica,sans-Serif" font-size="10.00">SceneManager::deleteAllObjects</text>
</a>
</g>
</g>
<!-- Node4&#45;&gt;Node17 -->
<g id="edge16_Node000004_Node000017" class="edge">
<title>Node4&#45;&gt;Node17</title>
<g id="a_edge16_Node000004_Node000017"><a xlink:title=" ">
<path fill="none" stroke="#63b8ff" d="M561.3,-405.65C574.18,-404.41 587.62,-403.11 600.81,-401.84"/>
<polygon fill="#63b8ff" stroke="#63b8ff" points="601.22,-405.31 610.84,-400.87 600.55,-398.34 601.22,-405.31"/>
</a>
</g>
</g>
<!-- Node21 -->
<g id="Node000021" class="node">
<title>Node21</title>
<g id="a_Node000021"><a xlink:href="classResourceManager.html#a3899655c6a1e40089930df4fbc9f1be9" target="_top" xlink:title=" ">
<polygon fill="white" stroke="#666666" points="778.5,-562 618.5,-562 618.5,-543 778.5,-543 778.5,-562"/>
<text text-anchor="middle" x="698.5" y="-550" font-family="Helvetica,sans-Serif" font-size="10.00">ResourceManager::getShader</text>
</a>
</g>
</g>
<!-- Node4&#45;&gt;Node21 -->
<g id="edge20_Node000004_Node000021" class="edge">
<title>Node4&#45;&gt;Node21</title>
<g id="a_edge20_Node000004_Node000021"><a xlink:title=" ">
<path fill="none" stroke="#63b8ff" d="M486.24,-423.32C501.76,-446.86 544.65,-506.6 597,-534.5 600.74,-536.49 604.66,-538.27 608.69,-539.86"/>
<polygon fill="#63b8ff" stroke="#63b8ff" points="607.67,-543.21 618.26,-543.22 609.99,-536.6 607.67,-543.21"/>
</a>
</g>
</g>
<!-- Node22 -->
<g id="Node000022" class="node">
<title>Node22</title>
<g id="a_Node000022"><a xlink:href="namespaceJsonUtils.html#ab8da6e319ea5969afbe6ddd6620add30" target="_top" xlink:title=" ">
<polygon fill="white" stroke="#666666" points="758,-525 639,-525 639,-506 758,-506 758,-525"/>
<text text-anchor="middle" x="698.5" y="-513" font-family="Helvetica,sans-Serif" font-size="10.00">JsonUtils::jsonToVec3</text>
</a>
</g>
</g>
<!-- Node4&#45;&gt;Node22 -->
<g id="edge21_Node000004_Node000022" class="edge">
<title>Node4&#45;&gt;Node22</title>
<g id="a_edge21_Node000004_Node000022"><a xlink:title=" ">
<path fill="none" stroke="#63b8ff" d="M489.99,-423.12C509.08,-440.9 552.78,-478.81 597,-497.5 607,-501.73 617.97,-504.96 628.87,-507.44"/>
<polygon fill="#63b8ff" stroke="#63b8ff" points="628.33,-510.9 638.83,-509.5 629.75,-504.05 628.33,-510.9"/>
</a>
</g>
</g>
<!-- Node23 -->
<g id="Node000023" class="node">
<title>Node23</title>
<g id="a_Node000023"><a xlink:href="classSceneManager.html#a8dafcb538b1cfbf727b82644ad5815ad" target="_top" xlink:title=" ">
<polygon fill="white" stroke="#666666" points="799.5,-488 597.5,-488 597.5,-469 799.5,-469 799.5,-488"/>
<text text-anchor="middle" x="698.5" y="-476" font-family="Helvetica,sans-Serif" font-size="10.00">SceneManager::setGlobalAcceleration</text>
</a>
</g>
</g>
<!-- Node4&#45;&gt;Node23 -->
<g id="edge22_Node000004_Node000023" class="edge">
<title>Node4&#45;&gt;Node23</title>
<g id="a_edge22_Node000004_Node000023"><a xlink:title=" ">
<path fill="none" stroke="#63b8ff" d="M500.72,-423.02C523.8,-433.3 562.4,-449.52 597,-459.5 606.6,-462.27 616.83,-464.74 626.95,-466.9"/>
<polygon fill="#63b8ff" stroke="#63b8ff" points="626.51,-470.39 637.01,-468.97 627.92,-463.53 626.51,-470.39"/>
</a>
</g>
</g>
<!-- Node24 -->
<g id="Node000024" class="node">
<title>Node24</title>
<g id="a_Node000024"><a xlink:href="classSceneManager.html#a357678fb063589b2ed1dc9a5f0b55ae2" target="_top" xlink:title=" ">
<polygon fill="white" stroke="#666666" points="785,-450.5 612,-450.5 612,-420.5 785,-420.5 785,-450.5"/>
<text text-anchor="start" x="620" y="-438.5" font-family="Helvetica,sans-Serif" font-size="10.00">SceneManager::setGravitational</text>
<text text-anchor="middle" x="698.5" y="-427.5" font-family="Helvetica,sans-Serif" font-size="10.00">Constant</text>
</a>
</g>
</g>
<!-- Node4&#45;&gt;Node24 -->
<g id="edge23_Node000004_Node000024" class="edge">
<title>Node4&#45;&gt;Node24</title>
<g id="a_edge23_Node000004_Node000024"><a xlink:title=" ">
<path fill="none" stroke="#63b8ff" d="M561.3,-421.72C574.47,-423.06 588.22,-424.45 601.7,-425.81"/>
<polygon fill="#63b8ff" stroke="#63b8ff" points="601.64,-429.32 611.94,-426.85 602.34,-422.36 601.64,-429.32"/>
</a>
</g>
</g>
<!-- Node25 -->
<g id="Node000025" class="node">
<title>Node25</title>
<g id="a_Node000025"><a xlink:href="classSceneManager.html#af40d0ff3e76f89bbf5504f1694814179" target="_top" xlink:title=" ">
<polygon fill="white" stroke="#666666" points="776,-599 621,-599 621,-580 776,-580 776,-599"/>
<text text-anchor="middle" x="698.5" y="-587" font-family="Helvetica,sans-Serif" font-size="10.00">SceneManager::setSelectFor</text>
</a>
</g>
</g>
<!-- Node4&#45;&gt;Node25 -->
<g id="edge25_Node000004_Node000025" class="edge">
<title>Node4&#45;&gt;Node25</title>
<g id="a_edge25_Node000004_Node000025"><a xlink:title=" ">
<path fill="none" stroke="#63b8ff" d="M487.44,-423.28C501.78,-442.18 534.21,-485.05 561,-521.5 577.22,-543.57 573.83,-556.91 597,-571.5 601.43,-574.29 606.18,-576.68 611.11,-578.72"/>
<polygon fill="#63b8ff" stroke="#63b8ff" points="610.2,-582.11 620.79,-582.22 612.58,-575.53 610.2,-582.11"/>
</a>
</g>
</g>
<!-- Node31 -->
<g id="Node000031" class="node">
<title>Node31</title>
<g id="a_Node000031"><a xlink:href="classSceneManager.html#a64f4064d9201d062a24f750763c1f703" target="_top" xlink:title=" ">
<polygon fill="white" stroke="#666666" points="777.5,-328 619.5,-328 619.5,-309 777.5,-309 777.5,-328"/>
<text text-anchor="middle" x="698.5" y="-316" font-family="Helvetica,sans-Serif" font-size="10.00">SceneManager::setSimSpeed</text>
</a>
</g>
</g>
<!-- Node4&#45;&gt;Node31 -->
<g id="edge32_Node000004_Node000031" class="edge">
<title>Node4&#45;&gt;Node31</title>
<g id="a_edge32_Node000004_Node000031"><a xlink:title=" ">
<path fill="none" stroke="#63b8ff" d="M491.43,-403.85C511.45,-387.49 554.74,-354.45 597,-337.5 603.68,-334.82 610.77,-332.51 617.97,-330.52"/>
<polygon fill="#63b8ff" stroke="#63b8ff" points="619,-333.87 627.83,-328.01 617.27,-327.09 619,-333.87"/>
</a>
</g>
</g>
<!-- Node7 -->
<g id="Node000007" class="node">
<title>Node7</title>
<g id="a_Node000007"><a xlink:href="classSceneManager.html#ad0d1661e5869720d7a07b1912d75318d" target="_top" xlink:title=" ">
<polygon fill="white" stroke="#666666" points="1008,-291 849,-291 849,-272 1008,-272 1008,-291"/>
<text text-anchor="middle" x="928.5" y="-279" font-family="Helvetica,sans-Serif" font-size="10.00">SceneManager::addDrawable</text>
</a>
</g>
</g>
<!-- Node6&#45;&gt;Node7 -->
<g id="edge6_Node000006_Node000007" class="edge">
<title>Node6&#45;&gt;Node7</title>
<g id="a_edge6_Node000006_Node000007"><a xlink:title=" ">
<path fill="none" stroke="#63b8ff" d="M777.01,-281.5C796.78,-281.5 818.18,-281.5 838.48,-281.5"/>
<polygon fill="#63b8ff" stroke="#63b8ff" points="838.65,-285 848.65,-281.5 838.65,-278 838.65,-285"/>
</a>
</g>
</g>
<!-- Node9 -->
<g id="Node000009" class="node">
<title>Node9</title>
<g id="a_Node000009"><a xlink:href="classSceneManager.html#a31d525542db0b239ba61dd36a3d92d43" target="_top" xlink:title=" ">
<polygon fill="white" stroke="#666666" points="1005,-254 852,-254 852,-235 1005,-235 1005,-254"/>
<text text-anchor="middle" x="928.5" y="-242" font-family="Helvetica,sans-Serif" font-size="10.00">SceneManager::addPickable</text>
</a>
</g>
</g>
<!-- Node6&#45;&gt;Node9 -->
<g id="edge8_Node000006_Node000009" class="edge">
<title>Node6&#45;&gt;Node9</title>
<g id="a_edge8_Node000006_Node000009"><a xlink:title=" ">
<path fill="none" stroke="#63b8ff" d="M758.22,-271.97C788.81,-267.01 826.42,-260.9 858.41,-255.71"/>
<polygon fill="#63b8ff" stroke="#63b8ff" points="859.28,-259.12 868.59,-254.06 858.16,-252.21 859.28,-259.12"/>
</a>
</g>
</g>
<!-- Node10 -->
<g id="Node000010" class="node">
<title>Node10</title>
<g id="a_Node000010"><a xlink:href="classSceneManager.html#ab6a7ecbff438f2dbee8a0f31795456f9" target="_top" xlink:title=" ">
<polygon fill="white" stroke="#666666" points="1021,-365 836,-365 836,-346 1021,-346 1021,-365"/>
<text text-anchor="middle" x="928.5" y="-353" font-family="Helvetica,sans-Serif" font-size="10.00">SceneManager::makeUniqueName</text>
</a>
</g>
</g>
<!-- Node6&#45;&gt;Node10 -->
<g id="edge9_Node000006_Node000010" class="edge">
<title>Node6&#45;&gt;Node10</title>
<g id="a_edge9_Node000006_Node000010"><a xlink:title=" ">
<path fill="none" stroke="#63b8ff" d="M776.91,-291.08C784.95,-293.54 792.8,-296.63 800,-300.5 820.21,-311.36 815.83,-326.57 836,-337.5 839.33,-339.3 842.81,-340.93 846.39,-342.39"/>
<polygon fill="#63b8ff" stroke="#63b8ff" points="845.47,-345.78 856.06,-345.9 847.86,-339.2 845.47,-345.78"/>
</a>
</g>
</g>
<!-- Node11 -->
<g id="Node000011" class="node">
<title>Node11</title>
<g id="a_Node000011"><a xlink:href="classSceneManager.html#a76592c383a85fda664a79fa155ead19e" target="_top" xlink:title=" ">
<polygon fill="white" stroke="#666666" points="1006,-328 851,-328 851,-309 1006,-309 1006,-328"/>
<text text-anchor="middle" x="928.5" y="-316" font-family="Helvetica,sans-Serif" font-size="10.00">SceneManager::objectAdded</text>
</a>
</g>
</g>
<!-- Node6&#45;&gt;Node11 -->
<g id="edge10_Node000006_Node000011" class="edge">
<title>Node6&#45;&gt;Node11</title>
<g id="a_edge10_Node000006_Node000011"><a xlink:title=" ">
<path fill="none" stroke="#63b8ff" d="M758.22,-291.03C788.81,-295.99 826.42,-302.1 858.41,-307.29"/>
<polygon fill="#63b8ff" stroke="#63b8ff" points="858.16,-310.79 868.59,-308.94 859.28,-303.88 858.16,-310.79"/>
</a>
</g>
</g>
<!-- Node6&#45;&gt;Node12 -->
<g id="edge11_Node000006_Node000012" class="edge">
<title>Node6&#45;&gt;Node12</title>
<g id="a_edge11_Node000006_Node000012"><a xlink:title=" ">
<path fill="none" stroke="#63b8ff" d="M759.89,-272C773.53,-268.53 787.62,-263.83 800,-257.5 818.8,-247.89 817.06,-235.83 836,-226.5 840.91,-224.08 846.12,-221.97 851.46,-220.12"/>
<polygon fill="#63b8ff" stroke="#63b8ff" points="852.67,-223.41 861.18,-217.09 850.59,-216.73 852.67,-223.41"/>
</a>
</g>
</g>
<!-- Node8 -->
<g id="Node000008" class="node">
<title>Node8</title>
<g id="a_Node000008"><a xlink:href="classScene.html#aa2773ce73d9158e1e3a9c97d26a7e727" target="_top" xlink:title=" ">
<polygon fill="white" stroke="#666666" points="1204.5,-291 1088.5,-291 1088.5,-272 1204.5,-272 1204.5,-291"/>
<text text-anchor="middle" x="1146.5" y="-279" font-family="Helvetica,sans-Serif" font-size="10.00">Scene::addDrawable</text>
</a>
</g>
</g>
<!-- Node7&#45;&gt;Node8 -->
<g id="edge7_Node000007_Node000008" class="edge">
<title>Node7&#45;&gt;Node8</title>
<g id="a_edge7_Node000007_Node000008"><a xlink:title=" ">
<path fill="none" stroke="#63b8ff" d="M1008.09,-281.5C1031.1,-281.5 1056.05,-281.5 1078.28,-281.5"/>
<polygon fill="#63b8ff" stroke="#63b8ff" points="1078.29,-285 1088.29,-281.5 1078.29,-278 1078.29,-285"/>
</a>
</g>
</g>
<!-- Node13 -->
<g id="Node000013" class="node">
<title>Node13</title>
<g id="a_Node000013"><a xlink:href="classSceneObject.html#abebc043e3253d66da477f862a950775d" target="_top" xlink:title=" ">
<polygon fill="white" stroke="#666666" points="1210.5,-217 1082.5,-217 1082.5,-198 1210.5,-198 1210.5,-217"/>
<text text-anchor="middle" x="1146.5" y="-205" font-family="Helvetica,sans-Serif" font-size="10.00">SceneObject::getName</text>
</a>
</g>
</g>
<!-- Node12&#45;&gt;Node13 -->
<g id="edge12_Node000012_Node000013" class="edge">
<title>Node12&#45;&gt;Node13</title>
<g id="a_edge12_Node000012_Node000013"><a xlink:title=" ">
<path fill="none" stroke="#63b8ff" d="M1013.63,-207.5C1033.01,-207.5 1053.47,-207.5 1072.34,-207.5"/>
<polygon fill="#63b8ff" stroke="#63b8ff" points="1072.34,-211 1082.34,-207.5 1072.34,-204 1072.34,-211"/>
</a>
</g>
</g>
<!-- Node14 -->
<g id="Node000014" class="node">
<title>Node14</title>
<g id="a_Node000014"><a xlink:href="classSceneManager.html#a624cd344feba3357d2ec95bab7229a6f" target="_top" xlink:title=" ">
<polygon fill="white" stroke="#666666" points="1230,-180 1063,-180 1063,-161 1230,-161 1230,-180"/>
<text text-anchor="middle" x="1146.5" y="-168" font-family="Helvetica,sans-Serif" font-size="10.00">SceneManager::isNameUnique</text>
</a>
</g>
</g>
<!-- Node12&#45;&gt;Node14 -->
<g id="edge13_Node000012_Node000014" class="edge">
<title>Node12&#45;&gt;Node14</title>
<g id="a_edge13_Node000012_Node000014"><a xlink:title=" ">
<path fill="none" stroke="#63b8ff" d="M985.13,-197.97C1013.99,-193.03 1049.43,-186.96 1079.66,-181.78"/>
<polygon fill="#63b8ff" stroke="#63b8ff" points="1080.42,-185.2 1089.69,-180.06 1079.24,-178.3 1080.42,-185.2"/>
</a>
</g>
</g>
<!-- Node15 -->
<g id="Node000015" class="node">
<title>Node15</title>
<g id="a_Node000015"><a xlink:href="classSceneManager.html#a76dba0a09f8b2a1dc376236f904a9c3a" target="_top" xlink:title=" ">
<polygon fill="white" stroke="#666666" points="1232,-143 1061,-143 1061,-124 1232,-124 1232,-143"/>
<text text-anchor="middle" x="1146.5" y="-131" font-family="Helvetica,sans-Serif" font-size="10.00">SceneManager::objectRenamed</text>
</a>
</g>
</g>
<!-- Node12&#45;&gt;Node15 -->
<g id="edge14_Node000012_Node000015" class="edge">
<title>Node12&#45;&gt;Node15</title>
<g id="a_edge14_Node000012_Node000015"><a xlink:title=" ">
<path fill="none" stroke="#63b8ff" d="M948.49,-197.91C973.01,-185.85 1017.27,-165.2 1057,-152.5 1065.27,-149.86 1074.08,-147.47 1082.83,-145.35"/>
<polygon fill="#63b8ff" stroke="#63b8ff" points="1083.69,-148.75 1092.64,-143.08 1082.11,-141.93 1083.69,-148.75"/>
</a>
</g>
</g>
<!-- Node16 -->
<g id="Node000016" class="node">
<title>Node16</title>
<g id="a_Node000016"><a xlink:href="classSceneObject.html#ad8ac9406b35bee3cd4fad75db013d9c4" target="_top" xlink:title=" ">
<polygon fill="white" stroke="#666666" points="1210.5,-254 1082.5,-254 1082.5,-235 1210.5,-235 1210.5,-254"/>
<text text-anchor="middle" x="1146.5" y="-242" font-family="Helvetica,sans-Serif" font-size="10.00">SceneObject::setName</text>
</a>
</g>
</g>
<!-- Node12&#45;&gt;Node16 -->
<g id="edge15_Node000012_Node000016" class="edge">
<title>Node12&#45;&gt;Node16</title>
<g id="a_edge15_Node000012_Node000016"><a xlink:title=" ">
<path fill="none" stroke="#63b8ff" d="M985.13,-217.03C1013.99,-221.97 1049.43,-228.04 1079.66,-233.22"/>
<polygon fill="#63b8ff" stroke="#63b8ff" points="1079.24,-236.7 1089.69,-234.94 1080.42,-229.8 1079.24,-236.7"/>
</a>
</g>
</g>
<!-- Node18 -->
<g id="Node000018" class="node">
<title>Node18</title>
<g id="a_Node000018"><a xlink:href="classSceneManager.html#a4543114007c5bb40ddab62cd9f2ac613" target="_top" xlink:title=" ">
<polygon fill="white" stroke="#666666" points="1007,-480 850,-480 850,-461 1007,-461 1007,-480"/>
<text text-anchor="middle" x="928.5" y="-468" font-family="Helvetica,sans-Serif" font-size="10.00">SceneManager::deleteObject</text>
</a>
</g>
</g>
<!-- Node17&#45;&gt;Node18 -->
<g id="edge17_Node000017_Node000018" class="edge">
<title>Node17&#45;&gt;Node18</title>
<g id="a_edge17_Node000017_Node000018"><a xlink:title=" ">
<path fill="none" stroke="#63b8ff" d="M762.82,-402.01C775.29,-404.57 788.16,-407.71 800,-411.5 836.45,-423.18 876.13,-442.72 901.38,-456.08"/>
<polygon fill="#63b8ff" stroke="#63b8ff" points="899.85,-459.23 910.31,-460.88 903.16,-453.06 899.85,-459.23"/>
</a>
</g>
</g>
<!-- Node19 -->
<g id="Node000019" class="node">
<title>Node19</title>
<g id="a_Node000019"><a xlink:href="classSceneManager.html#a1ecbf10d22d2ff153407cd139bf89632" target="_top" xlink:title=" ">
<polygon fill="white" stroke="#666666" points="1232,-518 1061,-518 1061,-499 1232,-499 1232,-518"/>
<text text-anchor="middle" x="1146.5" y="-506" font-family="Helvetica,sans-Serif" font-size="10.00">SceneManager::objectRemoved</text>
</a>
</g>
</g>
<!-- Node18&#45;&gt;Node19 -->
<g id="edge18_Node000018_Node000019" class="edge">
<title>Node18&#45;&gt;Node19</title>
<g id="a_edge18_Node000018_Node000019"><a xlink:title=" ">
<path fill="none" stroke="#63b8ff" d="M983.73,-480.04C1013.38,-485.26 1050.3,-491.75 1081.38,-497.22"/>
<polygon fill="#63b8ff" stroke="#63b8ff" points="1080.8,-500.67 1091.25,-498.96 1082.01,-493.78 1080.8,-500.67"/>
</a>
</g>
</g>
<!-- Node20 -->
<g id="Node000020" class="node">
<title>Node20</title>
<g id="a_Node000020"><a xlink:href="classScene.html#a398bf0981ca0b3f5ade648b1d95513cc" target="_top" xlink:title=" ">
<polygon fill="white" stroke="#666666" points="1408,-558 1272,-558 1272,-539 1408,-539 1408,-558"/>
<text text-anchor="middle" x="1340" y="-546" font-family="Helvetica,sans-Serif" font-size="10.00">Scene::removeDrawable</text>
</a>
</g>
</g>
<!-- Node18&#45;&gt;Node20 -->
<g id="edge19_Node000018_Node000020" class="edge">
<title>Node18&#45;&gt;Node20</title>
<g id="a_edge19_Node000018_Node000020"><a xlink:title=" ">
<path fill="none" stroke="#63b8ff" d="M1007.05,-466.16C1070.04,-464.85 1160.48,-468.05 1236,-490.5 1266.71,-499.63 1298.26,-519.19 1318.21,-533.07"/>
<polygon fill="#63b8ff" stroke="#63b8ff" points="1316.34,-536.03 1326.52,-538.98 1320.4,-530.33 1316.34,-536.03"/>
</a>
</g>
</g>
<!-- Node26 -->
<g id="Node000026" class="node">
<title>Node26</title>
<g id="a_Node000026"><a xlink:href="classSceneManager.html#a99992b526976863d1dab7dc88cc6ec2a" target="_top" xlink:title=" ">
<polygon fill="white" stroke="#666666" points="1009,-642.5 848,-642.5 848,-612.5 1009,-612.5 1009,-642.5"/>
<text text-anchor="start" x="856" y="-630.5" font-family="Helvetica,sans-Serif" font-size="10.00">SceneManager::deleteCurrent</text>
<text text-anchor="middle" x="928.5" y="-619.5" font-family="Helvetica,sans-Serif" font-size="10.00">Gizmo</text>
</a>
</g>
</g>
<!-- Node25&#45;&gt;Node26 -->
<g id="edge26_Node000025_Node000026" class="edge">
<title>Node25&#45;&gt;Node26</title>
<g id="a_edge26_Node000025_Node000026"><a xlink:title=" ">
<path fill="none" stroke="#63b8ff" d="M756.74,-599.04C781.29,-603.13 810.56,-608.01 837.88,-612.56"/>
<polygon fill="#63b8ff" stroke="#63b8ff" points="837.4,-616.03 847.84,-614.22 838.55,-609.13 837.4,-616.03"/>
</a>
</g>
</g>
<!-- Node29 -->
<g id="Node000029" class="node">
<title>Node29</title>
<g id="a_Node000029"><a xlink:href="classSceneObject.html#ad77f12eb793b32da2ef40f0042cb1de8" target="_top" xlink:title="Gets the unique identifier for this object.">
<polygon fill="white" stroke="#666666" points="999,-557 858,-557 858,-538 999,-538 999,-557"/>
<text text-anchor="middle" x="928.5" y="-545" font-family="Helvetica,sans-Serif" font-size="10.00">SceneObject::getObjectID</text>
</a>
</g>
</g>
<!-- Node25&#45;&gt;Node29 -->
<g id="edge30_Node000025_Node000029" class="edge">
<title>Node25&#45;&gt;Node29</title>
<g id="a_edge30_Node000025_Node000029"><a xlink:title=" ">
<path fill="none" stroke="#63b8ff" d="M753.24,-579.97C768.37,-577.26 784.83,-574.29 800,-571.5 822.09,-567.44 846.31,-562.91 867.66,-558.88"/>
<polygon fill="#63b8ff" stroke="#63b8ff" points="868.39,-562.3 877.56,-557.01 867.09,-555.42 868.39,-562.3"/>
</a>
</g>
</g>
<!-- Node30 -->
<g id="Node000030" class="node">
<title>Node30</title>
<g id="a_Node000030"><a xlink:href="classSceneManager.html#a25bec2896954b4f0c3bed8ef736993d3" target="_top" xlink:title=" ">
<polygon fill="white" stroke="#666666" points="1007.5,-594 849.5,-594 849.5,-575 1007.5,-575 1007.5,-594"/>
<text text-anchor="middle" x="928.5" y="-582" font-family="Helvetica,sans-Serif" font-size="10.00">SceneManager::selectedItem</text>
</a>
</g>
</g>
<!-- Node25&#45;&gt;Node30 -->
<g id="edge31_Node000025_Node000030" class="edge">
<title>Node25&#45;&gt;Node30</title>
<g id="a_edge31_Node000025_Node000030"><a xlink:title=" ">
<path fill="none" stroke="#63b8ff" d="M776.05,-587.82C796.29,-587.38 818.29,-586.89 839.1,-586.44"/>
<polygon fill="#63b8ff" stroke="#63b8ff" points="839.28,-589.94 849.2,-586.22 839.13,-582.94 839.28,-589.94"/>
</a>
</g>
</g>
<!-- Node27 -->
<g id="Node000027" class="node">
<title>Node27</title>
<g id="a_Node000027"><a xlink:href="classSceneManager.html#ab7c34393bb10361069b0ea73ec2797f8" target="_top" xlink:title=" ">
<polygon fill="white" stroke="#666666" points="1236,-637 1057,-637 1057,-618 1236,-618 1236,-637"/>
<text text-anchor="middle" x="1146.5" y="-625" font-family="Helvetica,sans-Serif" font-size="10.00">SceneManager::removeDrawable</text>
</a>
</g>
</g>
<!-- Node26&#45;&gt;Node27 -->
<g id="edge27_Node000026_Node000027" class="edge">
<title>Node26&#45;&gt;Node27</title>
<g id="a_edge27_Node000026_Node000027"><a xlink:title=" ">
<path fill="none" stroke="#63b8ff" d="M1009.01,-627.5C1021.25,-627.5 1034.02,-627.5 1046.63,-627.5"/>
<polygon fill="#63b8ff" stroke="#63b8ff" points="1046.69,-631 1056.69,-627.5 1046.69,-624 1046.69,-631"/>
</a>
</g>
</g>
<!-- Node28 -->
<g id="Node000028" class="node">
<title>Node28</title>
<g id="a_Node000028"><a xlink:href="classSceneManager.html#a1c647e38474ee02d5dd8510bc2313c38" target="_top" xlink:title=" ">
<polygon fill="white" stroke="#666666" points="1233,-600 1060,-600 1060,-581 1233,-581 1233,-600"/>
<text text-anchor="middle" x="1146.5" y="-588" font-family="Helvetica,sans-Serif" font-size="10.00">SceneManager::removePickable</text>
</a>
</g>
</g>
<!-- Node26&#45;&gt;Node28 -->
<g id="edge29_Node000026_Node000028" class="edge">
<title>Node26&#45;&gt;Node28</title>
<g id="a_edge29_Node000026_Node000028"><a xlink:title=" ">
<path fill="none" stroke="#63b8ff" d="M1009.01,-613.88C1032.27,-609.9 1057.43,-605.59 1079.74,-601.76"/>
<polygon fill="#63b8ff" stroke="#63b8ff" points="1080.51,-605.18 1089.77,-600.05 1079.32,-598.28 1080.51,-605.18"/>
</a>
</g>
</g>
<!-- Node27&#45;&gt;Node20 -->
<g id="edge28_Node000027_Node000020" class="edge">
<title>Node27&#45;&gt;Node20</title>
<g id="a_edge28_Node000027_Node000020"><a xlink:title=" ">
<path fill="none" stroke="#63b8ff" d="M1208.26,-617.95C1217.7,-615.67 1227.22,-612.88 1236,-609.5 1266.1,-597.9 1297.57,-577.94 1317.68,-564.02"/>
<polygon fill="#63b8ff" stroke="#63b8ff" points="1319.92,-566.73 1326.07,-558.11 1315.88,-561.01 1319.92,-566.73"/>
</a>
</g>
</g>
<!-- Node32 -->
<g id="Node000032" class="node">
<title>Node32</title>
<g id="a_Node000032"><a xlink:href="classOpenGLWindow.html#ad664443240cdd277b10bacbf1608478b" target="_top" xlink:title=" ">
<polygon fill="white" stroke="#666666" points="1009.5,-402 847.5,-402 847.5,-383 1009.5,-383 1009.5,-402"/>
<text text-anchor="middle" x="928.5" y="-390" font-family="Helvetica,sans-Serif" font-size="10.00">OpenGLWindow::setSimSpeed</text>
</a>
</g>
</g>
<!-- Node31&#45;&gt;Node32 -->
<g id="edge33_Node000031_Node000032" class="edge">
<title>Node31&#45;&gt;Node32</title>
<g id="a_edge33_Node000031_Node000032"><a xlink:title=" ">
<path fill="none" stroke="#63b8ff" d="M776.91,-328.08C784.95,-330.54 792.8,-333.63 800,-337.5 820.21,-348.36 815.83,-363.57 836,-374.5 839.33,-376.3 842.81,-377.93 846.39,-379.39"/>
<polygon fill="#63b8ff" stroke="#63b8ff" points="845.47,-382.78 856.06,-382.9 847.86,-376.2 845.47,-382.78"/>
</a>
</g>
</g>
<!-- Node35 -->
<g id="Node000035" class="node">
<title>Node35</title>
<g id="a_Node000035"><a xlink:href="classSceneSerializer.html#a56e278bcdda1f03f192797122dd6d0c0" target="_top" xlink:title=" ">
<polygon fill="white" stroke="#666666" points="555,-130 403,-130 403,-111 555,-111 555,-130"/>
<text text-anchor="middle" x="479" y="-118" font-family="Helvetica,sans-Serif" font-size="10.00">SceneSerializer::saveToJson</text>
</a>
</g>
</g>
<!-- Node34&#45;&gt;Node35 -->
<g id="edge36_Node000034_Node000035" class="edge">
<title>Node34&#45;&gt;Node35</title>
<g id="a_edge36_Node000034_Node000035"><a xlink:title=" ">
<path fill="none" stroke="#63b8ff" d="M303.69,-230.88C336.54,-210.08 414.41,-160.77 454,-135.7"/>
<polygon fill="#63b8ff" stroke="#63b8ff" points="456.16,-138.47 462.74,-130.16 452.42,-132.56 456.16,-138.47"/>
</a>
</g>
</g>
<!-- Node36 -->
<g id="Node000036" class="node">
<title>Node36</title>
<g id="a_Node000036"><a xlink:href="classSceneManager.html#ad73f1ee3bdfe2567544871845707ce0f" target="_top" xlink:title=" ">
<polygon fill="white" stroke="#666666" points="800,-19 597,-19 597,0 800,0 800,-19"/>
<text text-anchor="middle" x="698.5" y="-7" font-family="Helvetica,sans-Serif" font-size="10.00">SceneManager::getGlobalAcceleration</text>
</a>
</g>
</g>
<!-- Node35&#45;&gt;Node36 -->
<g id="edge37_Node000035_Node000036" class="edge">
<title>Node35&#45;&gt;Node36</title>
<g id="a_edge37_Node000035_Node000036"><a xlink:title=" ">
<path fill="none" stroke="#63b8ff" d="M488.95,-110.87C507.25,-91.82 551.13,-49.35 597,-28.5 602.62,-25.94 608.57,-23.73 614.66,-21.82"/>
<polygon fill="#63b8ff" stroke="#63b8ff" points="615.66,-25.17 624.3,-19.05 613.72,-18.44 615.66,-25.17"/>
</a>
</g>
</g>
<!-- Node37 -->
<g id="Node000037" class="node">
<title>Node37</title>
<g id="a_Node000037"><a xlink:href="classSceneManager.html#a5117d2cabac5d1f95994f47f530b377b" target="_top" xlink:title=" ">
<polygon fill="white" stroke="#666666" points="785.5,-215.5 611.5,-215.5 611.5,-185.5 785.5,-185.5 785.5,-215.5"/>
<text text-anchor="start" x="619.5" y="-203.5" font-family="Helvetica,sans-Serif" font-size="10.00">SceneManager::getGravitational</text>
<text text-anchor="middle" x="698.5" y="-192.5" font-family="Helvetica,sans-Serif" font-size="10.00">Constant</text>
</a>
</g>
</g>
<!-- Node35&#45;&gt;Node37 -->
<g id="edge38_Node000035_Node000037" class="edge">
<title>Node35&#45;&gt;Node37</title>
<g id="a_edge38_Node000035_Node000037"><a xlink:title=" ">
<path fill="none" stroke="#63b8ff" d="M496.95,-130.03C519.29,-142.25 560.06,-163.42 597,-176.5 603.25,-178.71 609.79,-180.79 616.4,-182.72"/>
<polygon fill="#63b8ff" stroke="#63b8ff" points="615.55,-186.11 626.12,-185.44 617.44,-179.37 615.55,-186.11"/>
</a>
</g>
</g>
<!-- Node38 -->
<g id="Node000038" class="node">
<title>Node38</title>
<g id="a_Node000038"><a xlink:href="classSceneManager.html#ad8688edec501c8e945dff1a85c7e33c7" target="_top" xlink:title=" ">
<polygon fill="white" stroke="#666666" points="772,-167 625,-167 625,-148 772,-148 772,-167"/>
<text text-anchor="middle" x="698.5" y="-155" font-family="Helvetica,sans-Serif" font-size="10.00">SceneManager::getObjects</text>
</a>
</g>
</g>
<!-- Node35&#45;&gt;Node38 -->
<g id="edge39_Node000035_Node000038" class="edge">
<title>Node35&#45;&gt;Node38</title>
<g id="a_edge39_Node000035_Node000038"><a xlink:title=" ">
<path fill="none" stroke="#63b8ff" d="M536.01,-130.03C565.07,-134.97 600.77,-141.04 631.2,-146.22"/>
<polygon fill="#63b8ff" stroke="#63b8ff" points="630.86,-149.71 641.3,-147.94 632.03,-142.81 630.86,-149.71"/>
</a>
</g>
</g>
<!-- Node39 -->
<g id="Node000039" class="node">
<title>Node39</title>
<g id="a_Node000039"><a xlink:href="classResourceManager.html#ab447c164418daff9c741b03b4bf33310" target="_top" xlink:title=" ">
<polygon fill="white" stroke="#666666" points="793,-130 604,-130 604,-111 793,-111 793,-130"/>
<text text-anchor="middle" x="698.5" y="-118" font-family="Helvetica,sans-Serif" font-size="10.00">ResourceManager::getShaderName</text>
</a>
</g>
</g>
<!-- Node35&#45;&gt;Node39 -->
<g id="edge40_Node000035_Node000039" class="edge">
<title>Node35&#45;&gt;Node39</title>
<g id="a_edge40_Node000035_Node000039"><a xlink:title=" ">
<path fill="none" stroke="#63b8ff" d="M555.16,-120.5C567.56,-120.5 580.61,-120.5 593.56,-120.5"/>
<polygon fill="#63b8ff" stroke="#63b8ff" points="593.92,-124 603.92,-120.5 593.92,-117 593.92,-124"/>
</a>
</g>
</g>
<!-- Node40 -->
<g id="Node000040" class="node">
<title>Node40</title>
<g id="a_Node000040"><a xlink:href="classSceneManager.html#ae085a7aade1b9a2adcb7d9f1b2660790" target="_top" xlink:title=" ">
<polygon fill="white" stroke="#666666" points="778,-93 619,-93 619,-74 778,-74 778,-93"/>
<text text-anchor="middle" x="698.5" y="-81" font-family="Helvetica,sans-Serif" font-size="10.00">SceneManager::getSimSpeed</text>
</a>
</g>
</g>
<!-- Node35&#45;&gt;Node40 -->
<g id="edge41_Node000035_Node000040" class="edge">
<title>Node35&#45;&gt;Node40</title>
<g id="a_edge41_Node000035_Node000040"><a xlink:title=" ">
<path fill="none" stroke="#63b8ff" d="M536.01,-110.97C565.07,-106.03 600.77,-99.96 631.2,-94.78"/>
<polygon fill="#63b8ff" stroke="#63b8ff" points="632.03,-98.19 641.3,-93.06 630.86,-91.29 632.03,-98.19"/>
</a>
</g>
</g>
<!-- Node42 -->
<g id="Node000042" class="node">
<title>Node42</title>
<g id="a_Node000042"><a xlink:href="namespaceJsonUtils.html#aa9bf373a72d131da0b8d71ade1295533" target="_top" xlink:title=" ">
<polygon fill="white" stroke="#666666" points="758,-56 639,-56 639,-37 758,-37 758,-56"/>
<text text-anchor="middle" x="698.5" y="-44" font-family="Helvetica,sans-Serif" font-size="10.00">JsonUtils::vec3ToJson</text>
</a>
</g>
</g>
<!-- Node35&#45;&gt;Node42 -->
<g id="edge43_Node000035_Node000042" class="edge">
<title>Node35&#45;&gt;Node42</title>
<g id="a_edge43_Node000035_Node000042"><a xlink:title=" ">
<path fill="none" stroke="#63b8ff" d="M496.89,-110.89C519.15,-98.62 559.85,-77.53 597,-65.5 607.22,-62.19 618.22,-59.39 629.06,-57.03"/>
<polygon fill="#63b8ff" stroke="#63b8ff" points="629.86,-60.44 638.94,-54.99 628.44,-53.58 629.86,-60.44"/>
</a>
</g>
</g>
<!-- Node41 -->
<g id="Node000041" class="node">
<title>Node41</title>
<g id="a_Node000041"><a xlink:href="classOpenGLWindow.html#aeabd921e42871e7ecb6d2297580d5b81" target="_top" xlink:title=" ">
<polygon fill="white" stroke="#666666" points="1010,-93 847,-93 847,-74 1010,-74 1010,-93"/>
<text text-anchor="middle" x="928.5" y="-81" font-family="Helvetica,sans-Serif" font-size="10.00">OpenGLWindow::getSimSpeed</text>
</a>
</g>
</g>
<!-- Node40&#45;&gt;Node41 -->
<g id="edge42_Node000040_Node000041" class="edge">
<title>Node40&#45;&gt;Node41</title>
<g id="a_edge42_Node000040_Node000041"><a xlink:title=" ">
<path fill="none" stroke="#63b8ff" d="M778.28,-83.5C797.14,-83.5 817.41,-83.5 836.76,-83.5"/>
<polygon fill="#63b8ff" stroke="#63b8ff" points="836.78,-87 846.78,-83.5 836.78,-80 836.78,-87"/>
</a>
</g>
</g>
<!-- Node43&#45;&gt;Node26 -->
<g id="edge45_Node000043_Node000026" class="edge">
<title>Node43&#45;&gt;Node26</title>
<g id="a_edge45_Node000043_Node000026"><a xlink:title=" ">
<path fill="none" stroke="#63b8ff" d="M491.72,-549.04C511.83,-564.77 554.81,-595.67 597,-608.5 675.85,-632.47 770.05,-635.55 837.68,-633.62"/>
<polygon fill="#63b8ff" stroke="#63b8ff" points="838,-637.11 847.88,-633.29 837.77,-630.12 838,-637.11"/>
</a>
</g>
</g>
</g>
</svg>

<g id="navigator" transform="translate(0 0)" fill="#404254">
  <rect fill="#f2f5e9" fill-opacity="0.5" stroke="#606060" stroke-width=".5" x="0" y="0" width="60" height="60"/>
  <use id="zoomplus" xlink:href="#zoomPlus" x="17" y="9" onmousedown="handleZoom(evt,'in')"/>
  <use id="zoomminus" xlink:href="#zoomMin" x="42" y="9" onmousedown="handleZoom(evt,'out')"/>
  <use id="reset" xlink:href="#resetDef" x="30" y="36" onmousedown="handleReset()"/>
   <use id="arrowup" xlink:href="#arrowUp" x="0" y="0" onmousedown="handlePan(0,-1)"/>
  <use id="arrowright" xlink:href="#arrowRight" x="0" y="0" onmousedown="handlePan(1,0)"/>
  <use id="arrowdown" xlink:href="#arrowDown" x="0" y="0" onmousedown="handlePan(0,1)"/>
  <use id="arrowleft" xlink:href="#arrowLeft" x="0" y="0" onmousedown="handlePan(-1,0)"/>
</g>
<svg viewBox="0 0 15 15" width="100%" height="30px" preserveAspectRatio="xMaxYMin meet">
 <g id="arrow_out" transform="scale(0.3 0.3)">
  <a xlink:href="classSceneManager_a59f13c06bf3f19d5e543502a0ddd0467_cgraph_org.svg" target="_base">
   <rect id="button" ry="5" rx="5" y="6" x="6" height="38" width="38"
        fill="#f2f5e9" fill-opacity="0.5" stroke="#606060" stroke-width="1.0"/>
   <path id="arrow"
     d="M 11.500037,31.436501 C 11.940474,20.09759 22.043105,11.32322 32.158766,21.979434 L 37.068811,17.246167 C 37.068811,17.246167 37.088388,32 37.088388,32 L 22.160133,31.978069 C 22.160133,31.978069 26.997745,27.140456 26.997745,27.140456 C 18.528582,18.264221 13.291696,25.230495 11.500037,31.436501 z"
     style="fill:#404040;"/>
  </a>
 </g>
</svg>

<style type='text/css'>
<![CDATA[
[data-mouse-over-selected='false'] { opacity: 0.7; }
[data-mouse-over-selected='true']  { opacity: 1.0; }
]]>
</style>
<script type="application/ecmascript"><![CDATA[
document.addEventListener('DOMContentLoaded', (event) => {
  highlightEdges();
  highlightAdjacentNodes();
});
]]></script>
</svg>
