<?xml version="1.0" encoding="UTF-8" standalone="no"?>
<!DOCTYPE svg PUBLIC "-//W3C//DTD SVG 1.1//EN"
 "http://www.w3.org/Graphics/SVG/1.1/DTD/svg11.dtd">
<!-- Generated by graphviz version 2.43.0 (0)
 -->
<!-- Title: SceneObject::getPosition Pages: 1 -->
<svg width="682pt" height="236pt"
 viewBox="0.00 0.00 682.00 236.00" xmlns="http://www.w3.org/2000/svg" xmlns:xlink="http://www.w3.org/1999/xlink">
<g id="graph0" class="graph" transform="scale(1 1) rotate(0) translate(4 232)">
<title>SceneObject::getPosition</title>
<!-- Node1 -->
<g id="Node000001" class="node">
<title>Node1</title>
<g id="a_Node000001"><a xlink:title=" ">
<polygon fill="#999999" stroke="#666666" points="674,-126 536,-126 536,-107 674,-107 674,-126"/>
<text text-anchor="middle" x="605" y="-114" font-family="Helvetica,sans-Serif" font-size="10.00">SceneObject::getPosition</text>
</a>
</g>
</g>
<!-- Node2 -->
<g id="Node000002" class="node">
<title>Node2</title>
<g id="a_Node000002"><a xlink:href="classRotateHandle.html#a24a91d11a8e31dbdcae31b9d6fd29317" target="_top" xlink:title=" ">
<polygon fill="white" stroke="#666666" points="500,-228 333,-228 333,-209 500,-209 500,-228"/>
<text text-anchor="middle" x="416.5" y="-216" font-family="Helvetica,sans-Serif" font-size="10.00">RotateHandle::getModelMatrix</text>
</a>
</g>
</g>
<!-- Node1&#45;&gt;Node2 -->
<g id="edge1_Node000001_Node000002" class="edge">
<title>Node1&#45;&gt;Node2</title>
<g id="a_edge1_Node000001_Node000002"><a xlink:title=" ">
<path fill="none" stroke="#63b8ff" d="M588.3,-133.22C569.26,-152.46 535.32,-183.57 500,-200.5 492.86,-203.92 485.06,-206.7 477.2,-208.96"/>
<polygon fill="#63b8ff" stroke="#63b8ff" points="590.84,-135.63 595.28,-126.01 585.81,-130.76 590.84,-135.63"/>
</a>
</g>
</g>
<!-- Node4 -->
<g id="Node000004" class="node">
<title>Node4</title>
<g id="a_Node000004"><a xlink:href="classScaleHandle.html#ae2d8a999110797881a5f7d00cb1bc4e2" target="_top" xlink:title=" ">
<polygon fill="white" stroke="#666666" points="497,-191 336,-191 336,-172 497,-172 497,-191"/>
<text text-anchor="middle" x="416.5" y="-179" font-family="Helvetica,sans-Serif" font-size="10.00">ScaleHandle::getModelMatrix</text>
</a>
</g>
</g>
<!-- Node1&#45;&gt;Node4 -->
<g id="edge3_Node000001_Node000004" class="edge">
<title>Node1&#45;&gt;Node4</title>
<g id="a_edge3_Node000001_Node000004"><a xlink:title=" ">
<path fill="none" stroke="#63b8ff" d="M576.14,-130.56C555.52,-140.54 526.52,-153.67 500,-162.5 489.12,-166.12 477.21,-169.3 465.91,-171.97"/>
<polygon fill="#63b8ff" stroke="#63b8ff" points="577.82,-133.63 585.26,-126.09 574.74,-127.35 577.82,-133.63"/>
</a>
</g>
</g>
<!-- Node6 -->
<g id="Node000006" class="node">
<title>Node6</title>
<g id="a_Node000006"><a xlink:href="classTranslateHandle.html#ac8493751122288436b9d557609582ca5" target="_top" xlink:title=" ">
<polygon fill="white" stroke="#666666" points="490,-153.5 343,-153.5 343,-123.5 490,-123.5 490,-153.5"/>
<text text-anchor="start" x="351" y="-141.5" font-family="Helvetica,sans-Serif" font-size="10.00">TranslateHandle::getModel</text>
<text text-anchor="middle" x="416.5" y="-130.5" font-family="Helvetica,sans-Serif" font-size="10.00">Matrix</text>
</a>
</g>
</g>
<!-- Node1&#45;&gt;Node6 -->
<g id="edge5_Node000001_Node000006" class="edge">
<title>Node1&#45;&gt;Node6</title>
<g id="a_edge5_Node000001_Node000006"><a xlink:title=" ">
<path fill="none" stroke="#63b8ff" d="M525.64,-125.74C513.88,-127.13 501.79,-128.56 490.15,-129.93"/>
<polygon fill="#63b8ff" stroke="#63b8ff" points="526.36,-129.18 535.88,-124.54 525.54,-122.23 526.36,-129.18"/>
</a>
</g>
</g>
<!-- Node8 -->
<g id="Node000008" class="node">
<title>Node8</title>
<g id="a_Node000008"><a xlink:href="classRotateHandle.html#a815a3c0245a0a3df6f34f967813c5440" target="_top" xlink:title=" ">
<polygon fill="white" stroke="#666666" points="479,-105 354,-105 354,-86 479,-86 479,-105"/>
<text text-anchor="middle" x="416.5" y="-93" font-family="Helvetica,sans-Serif" font-size="10.00">RotateHandle::onDrag</text>
</a>
</g>
</g>
<!-- Node1&#45;&gt;Node8 -->
<g id="edge7_Node000001_Node000008" class="edge">
<title>Node1&#45;&gt;Node8</title>
<g id="a_edge7_Node000001_Node000008"><a xlink:title=" ">
<path fill="none" stroke="#63b8ff" d="M525.77,-107.69C510.24,-105.94 494.14,-104.13 479.26,-102.45"/>
<polygon fill="#63b8ff" stroke="#63b8ff" points="525.55,-111.19 535.88,-108.83 526.33,-104.23 525.55,-111.19"/>
</a>
</g>
</g>
<!-- Node9 -->
<g id="Node000009" class="node">
<title>Node9</title>
<g id="a_Node000009"><a xlink:href="classTranslateHandle.html#aa3852bb3b391559231be88952a48e030" target="_top" xlink:title=" ">
<polygon fill="white" stroke="#666666" points="486.5,-67.5 346.5,-67.5 346.5,-37.5 486.5,-37.5 486.5,-67.5"/>
<text text-anchor="start" x="354.5" y="-55.5" font-family="Helvetica,sans-Serif" font-size="10.00">TranslateHandle::setDrag</text>
<text text-anchor="middle" x="416.5" y="-44.5" font-family="Helvetica,sans-Serif" font-size="10.00">State</text>
</a>
</g>
</g>
<!-- Node1&#45;&gt;Node9 -->
<g id="edge8_Node000001_Node000009" class="edge">
<title>Node1&#45;&gt;Node9</title>
<g id="a_edge8_Node000001_Node000009"><a xlink:title=" ">
<path fill="none" stroke="#63b8ff" d="M570.36,-103.26C550.1,-95.44 523.7,-85.53 500,-77.5 490.08,-74.14 479.41,-70.75 469.15,-67.59"/>
<polygon fill="#63b8ff" stroke="#63b8ff" points="569.19,-106.56 579.78,-106.91 571.73,-100.03 569.19,-106.56"/>
</a>
</g>
</g>
<!-- Node10 -->
<g id="Node000010" class="node">
<title>Node10</title>
<g id="a_Node000010"><a xlink:href="classCamera.html#a42cda7239981a5618660d04bd5893556" target="_top" xlink:title=" ">
<polygon fill="white" stroke="#666666" points="464,-19 369,-19 369,0 464,0 464,-19"/>
<text text-anchor="middle" x="416.5" y="-7" font-family="Helvetica,sans-Serif" font-size="10.00">Camera::update</text>
</a>
</g>
</g>
<!-- Node1&#45;&gt;Node10 -->
<g id="edge9_Node000001_Node000010" class="edge">
<title>Node1&#45;&gt;Node10</title>
<g id="a_edge9_Node000001_Node000010"><a xlink:title=" ">
<path fill="none" stroke="#63b8ff" d="M588.72,-99.34C569.87,-79.26 535.87,-46.47 500,-28.5 488.96,-22.97 476.28,-19.03 464.23,-16.22"/>
<polygon fill="#63b8ff" stroke="#63b8ff" points="586.28,-101.85 595.62,-106.85 591.43,-97.12 586.28,-101.85"/>
</a>
</g>
</g>
<!-- Node3 -->
<g id="Node000003" class="node">
<title>Node3</title>
<g id="a_Node000003"><a xlink:href="classRotateHandle.html#a7bfbb1db24b606d863fb9fc11819fc0d" target="_top" xlink:title=" ">
<polygon fill="white" stroke="#666666" points="291,-228 178,-228 178,-209 291,-209 291,-228"/>
<text text-anchor="middle" x="234.5" y="-216" font-family="Helvetica,sans-Serif" font-size="10.00">RotateHandle::draw</text>
</a>
</g>
</g>
<!-- Node2&#45;&gt;Node3 -->
<g id="edge2_Node000002_Node000003" class="edge">
<title>Node2&#45;&gt;Node3</title>
<g id="a_edge2_Node000002_Node000003"><a xlink:title=" ">
<path fill="none" stroke="#63b8ff" d="M322.58,-218.5C311.84,-218.5 301.15,-218.5 291.13,-218.5"/>
<polygon fill="#63b8ff" stroke="#63b8ff" points="322.88,-222 332.88,-218.5 322.88,-215 322.88,-222"/>
</a>
</g>
</g>
<!-- Node5 -->
<g id="Node000005" class="node">
<title>Node5</title>
<g id="a_Node000005"><a xlink:href="classScaleHandle.html#a98b28d2f8f7b2ad87d4d8a6ce412b888" target="_top" xlink:title=" ">
<polygon fill="white" stroke="#666666" points="288,-191 181,-191 181,-172 288,-172 288,-191"/>
<text text-anchor="middle" x="234.5" y="-179" font-family="Helvetica,sans-Serif" font-size="10.00">ScaleHandle::draw</text>
</a>
</g>
</g>
<!-- Node4&#45;&gt;Node5 -->
<g id="edge4_Node000004_Node000005" class="edge">
<title>Node4&#45;&gt;Node5</title>
<g id="a_edge4_Node000004_Node000005"><a xlink:title=" ">
<path fill="none" stroke="#63b8ff" d="M325.49,-181.5C312.65,-181.5 299.81,-181.5 288.02,-181.5"/>
<polygon fill="#63b8ff" stroke="#63b8ff" points="325.76,-185 335.76,-181.5 325.76,-178 325.76,-185"/>
</a>
</g>
</g>
<!-- Node7 -->
<g id="Node000007" class="node">
<title>Node7</title>
<g id="a_Node000007"><a xlink:href="classTranslateHandle.html#a8f0a581aaebf3055c43d8834e8fdc750" target="_top" xlink:title=" ">
<polygon fill="white" stroke="#666666" points="297,-148 172,-148 172,-129 297,-129 297,-148"/>
<text text-anchor="middle" x="234.5" y="-136" font-family="Helvetica,sans-Serif" font-size="10.00">TranslateHandle::draw</text>
</a>
</g>
</g>
<!-- Node6&#45;&gt;Node7 -->
<g id="edge6_Node000006_Node000007" class="edge">
<title>Node6&#45;&gt;Node7</title>
<g id="a_edge6_Node000006_Node000007"><a xlink:title=" ">
<path fill="none" stroke="#63b8ff" d="M332.8,-138.5C320.82,-138.5 308.67,-138.5 297.2,-138.5"/>
<polygon fill="#63b8ff" stroke="#63b8ff" points="332.81,-142 342.81,-138.5 332.81,-135 332.81,-142"/>
</a>
</g>
</g>
<!-- Node11 -->
<g id="Node000011" class="node">
<title>Node11</title>
<g id="a_Node000011"><a xlink:href="classScene.html#af5512c90d05801f27028975d6a898e6b" target="_top" xlink:title=" ">
<polygon fill="white" stroke="#666666" points="272.5,-19 196.5,-19 196.5,0 272.5,0 272.5,-19"/>
<text text-anchor="middle" x="234.5" y="-7" font-family="Helvetica,sans-Serif" font-size="10.00">Scene::draw</text>
</a>
</g>
</g>
<!-- Node10&#45;&gt;Node11 -->
<g id="edge10_Node000010_Node000011" class="edge">
<title>Node10&#45;&gt;Node11</title>
<g id="a_edge10_Node000010_Node000011"><a xlink:title=" ">
<path fill="none" stroke="#63b8ff" d="M358.59,-9.5C330.54,-9.5 297.51,-9.5 272.73,-9.5"/>
<polygon fill="#63b8ff" stroke="#63b8ff" points="358.68,-13 368.68,-9.5 358.68,-6 358.68,-13"/>
</a>
</g>
</g>
<!-- Node12 -->
<g id="Node000012" class="node">
<title>Node12</title>
<g id="a_Node000012"><a xlink:href="classOpenGLWindow.html#aea9ee69010d8451ab00cd488a8c6717d" target="_top" xlink:title=" ">
<polygon fill="white" stroke="#666666" points="136,-19 0,-19 0,0 136,0 136,-19"/>
<text text-anchor="middle" x="68" y="-7" font-family="Helvetica,sans-Serif" font-size="10.00">OpenGLWindow::paintGL</text>
</a>
</g>
</g>
<!-- Node11&#45;&gt;Node12 -->
<g id="edge11_Node000011_Node000012" class="edge">
<title>Node11&#45;&gt;Node12</title>
<g id="a_edge11_Node000011_Node000012"><a xlink:title=" ">
<path fill="none" stroke="#63b8ff" d="M185.81,-9.5C170.34,-9.5 152.87,-9.5 136.24,-9.5"/>
<polygon fill="#63b8ff" stroke="#63b8ff" points="186.17,-13 196.17,-9.5 186.17,-6 186.17,-13"/>
</a>
</g>
</g>
</g>
</svg>
