<?xml version="1.0" encoding="UTF-8" standalone="no"?>
<!DOCTYPE svg PUBLIC "-//W3C//DTD SVG 1.1//EN"
 "http://www.w3.org/Graphics/SVG/1.1/DTD/svg11.dtd">
<!-- Generated by graphviz version 2.43.0 (0)
 -->
<!-- Title: SceneManager::resetScene Pages: 1 -->
<svg width="924pt" height="101pt"
 viewBox="0.00 0.00 924.00 101.00" xmlns="http://www.w3.org/2000/svg" xmlns:xlink="http://www.w3.org/1999/xlink">
<g id="graph0" class="graph" transform="scale(1 1) rotate(0) translate(4 97)">
<title>SceneManager::resetScene</title>
<!-- Node1 -->
<g id="Node000001" class="node">
<title>Node1</title>
<g id="a_Node000001"><a xlink:title=" ">
<polygon fill="#999999" stroke="#666666" points="916,-56 767,-56 767,-37 916,-37 916,-56"/>
<text text-anchor="middle" x="841.5" y="-44" font-family="Helvetica,sans-Serif" font-size="10.00">SceneManager::resetScene</text>
</a>
</g>
</g>
<!-- Node2 -->
<g id="Node000002" class="node">
<title>Node2</title>
<g id="a_Node000002"><a xlink:href="classSceneManager.html#acfea563d3849e3c8c09fc3febe9ae1e2" target="_top" xlink:title=" ">
<polygon fill="white" stroke="#666666" points="727.5,-93 570.5,-93 570.5,-74 727.5,-74 727.5,-93"/>
<text text-anchor="middle" x="649" y="-81" font-family="Helvetica,sans-Serif" font-size="10.00">SceneManager::defaultSetup</text>
</a>
</g>
</g>
<!-- Node1&#45;&gt;Node2 -->
<g id="edge1_Node000001_Node000002" class="edge">
<title>Node1&#45;&gt;Node2</title>
<g id="a_edge1_Node000001_Node000002"><a xlink:title=" ">
<path fill="none" stroke="#63b8ff" d="M781.56,-57.95C755.15,-63.08 724.37,-69.06 699.22,-73.94"/>
<polygon fill="#63b8ff" stroke="#63b8ff" points="782.29,-61.37 791.44,-56.03 780.96,-54.5 782.29,-61.37"/>
</a>
</g>
</g>
<!-- Node3 -->
<g id="Node000003" class="node">
<title>Node3</title>
<g id="a_Node000003"><a xlink:href="classSceneSerializer.html#a490f2bd87e7c9459ee47be974653b433" target="_top" xlink:title=" ">
<polygon fill="white" stroke="#666666" points="731,-56 567,-56 567,-37 731,-37 731,-56"/>
<text text-anchor="middle" x="649" y="-44" font-family="Helvetica,sans-Serif" font-size="10.00">SceneSerializer::loadFromJson</text>
</a>
</g>
</g>
<!-- Node1&#45;&gt;Node3 -->
<g id="edge2_Node000001_Node000003" class="edge">
<title>Node1&#45;&gt;Node3</title>
<g id="a_edge2_Node000001_Node000003"><a xlink:title=" ">
<path fill="none" stroke="#63b8ff" d="M756.58,-46.5C748.1,-46.5 739.5,-46.5 731.05,-46.5"/>
<polygon fill="#63b8ff" stroke="#63b8ff" points="756.85,-50 766.85,-46.5 756.85,-43 756.85,-50"/>
</a>
</g>
</g>
<!-- Node7 -->
<g id="Node000007" class="node">
<title>Node7</title>
<g id="a_Node000007"><a xlink:href="classSceneManager.html#ad9d648b5fb5a92c4612c640fc7cb47fb" target="_top" xlink:title=" ">
<polygon fill="white" stroke="#666666" points="722,-19 576,-19 576,0 722,0 722,-19"/>
<text text-anchor="middle" x="649" y="-7" font-family="Helvetica,sans-Serif" font-size="10.00">SceneManager::loadPreset</text>
</a>
</g>
</g>
<!-- Node1&#45;&gt;Node7 -->
<g id="edge6_Node000001_Node000007" class="edge">
<title>Node1&#45;&gt;Node7</title>
<g id="a_edge6_Node000001_Node000007"><a xlink:title=" ">
<path fill="none" stroke="#63b8ff" d="M781.56,-35.05C755.15,-29.92 724.37,-23.94 699.22,-19.06"/>
<polygon fill="#63b8ff" stroke="#63b8ff" points="780.96,-38.5 791.44,-36.97 782.29,-31.63 780.96,-38.5"/>
</a>
</g>
</g>
<!-- Node4 -->
<g id="Node000004" class="node">
<title>Node4</title>
<g id="a_Node000004"><a xlink:href="classSceneManager.html#a7b7b0a022dcce523178e8414fb8e4463" target="_top" xlink:title=" ">
<polygon fill="white" stroke="#666666" points="531,-56 386,-56 386,-37 531,-37 531,-56"/>
<text text-anchor="middle" x="458.5" y="-44" font-family="Helvetica,sans-Serif" font-size="10.00">SceneManager::loadScene</text>
</a>
</g>
</g>
<!-- Node3&#45;&gt;Node4 -->
<g id="edge3_Node000003_Node000004" class="edge">
<title>Node3&#45;&gt;Node4</title>
<g id="a_edge3_Node000003_Node000004"><a xlink:title=" ">
<path fill="none" stroke="#63b8ff" d="M556.9,-46.5C548.29,-46.5 539.65,-46.5 531.26,-46.5"/>
<polygon fill="#63b8ff" stroke="#63b8ff" points="556.97,-50 566.97,-46.5 556.97,-43 556.97,-50"/>
</a>
</g>
</g>
<!-- Node5 -->
<g id="Node000005" class="node">
<title>Node5</title>
<g id="a_Node000005"><a xlink:href="classSceneManager.html#a59f13c06bf3f19d5e543502a0ddd0467" target="_top" xlink:title=" ">
<polygon fill="white" stroke="#666666" points="350,-56 172,-56 172,-37 350,-37 350,-56"/>
<text text-anchor="middle" x="261" y="-44" font-family="Helvetica,sans-Serif" font-size="10.00">SceneManager::processHeldKeys</text>
</a>
</g>
</g>
<!-- Node4&#45;&gt;Node5 -->
<g id="edge4_Node000004_Node000005" class="edge">
<title>Node4&#45;&gt;Node5</title>
<g id="a_edge4_Node000004_Node000005"><a xlink:title=" ">
<path fill="none" stroke="#63b8ff" d="M375.68,-46.5C367.3,-46.5 358.75,-46.5 350.3,-46.5"/>
<polygon fill="#63b8ff" stroke="#63b8ff" points="375.81,-50 385.81,-46.5 375.81,-43 375.81,-50"/>
</a>
</g>
</g>
<!-- Node6 -->
<g id="Node000006" class="node">
<title>Node6</title>
<g id="a_Node000006"><a xlink:href="classOpenGLWindow.html#aea9ee69010d8451ab00cd488a8c6717d" target="_top" xlink:title=" ">
<polygon fill="white" stroke="#666666" points="136,-56 0,-56 0,-37 136,-37 136,-56"/>
<text text-anchor="middle" x="68" y="-44" font-family="Helvetica,sans-Serif" font-size="10.00">OpenGLWindow::paintGL</text>
</a>
</g>
</g>
<!-- Node5&#45;&gt;Node6 -->
<g id="edge5_Node000005_Node000006" class="edge">
<title>Node5&#45;&gt;Node6</title>
<g id="a_edge5_Node000005_Node000006"><a xlink:title=" ">
<path fill="none" stroke="#63b8ff" d="M161.6,-46.5C152.94,-46.5 144.32,-46.5 136,-46.5"/>
<polygon fill="#63b8ff" stroke="#63b8ff" points="161.77,-50 171.77,-46.5 161.77,-43 161.77,-50"/>
</a>
</g>
</g>
</g>
</svg>
