<?xml version="1.0" encoding="UTF-8" standalone="no"?>
<!DOCTYPE svg PUBLIC "-//W3C//DTD SVG 1.1//EN"
 "http://www.w3.org/Graphics/SVG/1.1/DTD/svg11.dtd">
<!-- Generated by graphviz version 2.43.0 (0)
 -->
<!-- Title: Physics::PhysicsBody::getThermalProperties Pages: 1 -->
<svg width="940pt" height="347pt"
 viewBox="0.00 0.00 940.00 347.00" xmlns="http://www.w3.org/2000/svg" xmlns:xlink="http://www.w3.org/1999/xlink">
<g id="graph0" class="graph" transform="scale(1 1) rotate(0) translate(4 343)">
<title>Physics::PhysicsBody::getThermalProperties</title>
<!-- Node1 -->
<g id="Node000001" class="node">
<title>Node1</title>
<g id="a_Node000001"><a xlink:title=" ">
<polygon fill="#999999" stroke="#666666" points="932,-173.5 804,-173.5 804,-143.5 932,-143.5 932,-173.5"/>
<text text-anchor="start" x="812" y="-161.5" font-family="Helvetica,sans-Serif" font-size="10.00">Physics::PhysicsBody</text>
<text text-anchor="middle" x="868" y="-150.5" font-family="Helvetica,sans-Serif" font-size="10.00">::getThermalProperties</text>
</a>
</g>
</g>
<!-- Node2 -->
<g id="Node000002" class="node">
<title>Node2</title>
<g id="a_Node000002"><a xlink:href="classOctree.html#a2a87e28ce9c64242a6e4c8cb0aaac2a1" target="_top" xlink:title=" ">
<polygon fill="white" stroke="#666666" points="742,-339 621,-339 621,-320 742,-320 742,-339"/>
<text text-anchor="middle" x="681.5" y="-327" font-family="Helvetica,sans-Serif" font-size="10.00">Octree::computeHeat</text>
</a>
</g>
</g>
<!-- Node1&#45;&gt;Node2 -->
<g id="edge1_Node000001_Node000002" class="edge">
<title>Node1&#45;&gt;Node2</title>
<g id="a_edge1_Node000001_Node000002"><a xlink:title=" ">
<path fill="none" stroke="#63b8ff" d="M858.08,-183.27C844.32,-217.73 814.55,-279.51 768,-311.5 760.25,-316.83 751.24,-320.63 742.03,-323.33"/>
<polygon fill="#63b8ff" stroke="#63b8ff" points="861.51,-184.1 861.83,-173.51 854.98,-181.59 861.51,-184.1"/>
</a>
</g>
</g>
<!-- Node3 -->
<g id="Node000003" class="node">
<title>Node3</title>
<g id="a_Node000003"><a xlink:href="classSceneSerializer.html#a490f2bd87e7c9459ee47be974653b433" target="_top" xlink:title=" ">
<polygon fill="white" stroke="#666666" points="763.5,-302 599.5,-302 599.5,-283 763.5,-283 763.5,-302"/>
<text text-anchor="middle" x="681.5" y="-290" font-family="Helvetica,sans-Serif" font-size="10.00">SceneSerializer::loadFromJson</text>
</a>
</g>
</g>
<!-- Node1&#45;&gt;Node3 -->
<g id="edge2_Node000001_Node000003" class="edge">
<title>Node1&#45;&gt;Node3</title>
<g id="a_edge2_Node000001_Node000003"><a xlink:title=" ">
<path fill="none" stroke="#63b8ff" d="M853.19,-182.21C836.48,-208.71 805.81,-250.87 768,-273.5 761.48,-277.4 754.24,-280.51 746.82,-282.98"/>
<polygon fill="#63b8ff" stroke="#63b8ff" points="856.26,-183.9 858.51,-173.55 850.3,-180.24 856.26,-183.9"/>
</a>
</g>
</g>
<!-- Node7 -->
<g id="Node000007" class="node">
<title>Node7</title>
<g id="a_Node000007"><a xlink:href="classPhysics_1_1PointMass.html#aa94536ea681b33ed376700aae820cef0" target="_top" xlink:title=" ">
<polygon fill="white" stroke="#666666" points="768,-264.5 595,-264.5 595,-234.5 768,-234.5 768,-264.5"/>
<text text-anchor="start" x="603" y="-252.5" font-family="Helvetica,sans-Serif" font-size="10.00">Physics::PointMass</text>
<text text-anchor="middle" x="681.5" y="-241.5" font-family="Helvetica,sans-Serif" font-size="10.00">::resolveCollisionWithPointMass</text>
</a>
</g>
</g>
<!-- Node1&#45;&gt;Node7 -->
<g id="edge6_Node000001_Node000007" class="edge">
<title>Node1&#45;&gt;Node7</title>
<g id="a_edge6_Node000001_Node000007"><a xlink:title=" ">
<path fill="none" stroke="#63b8ff" d="M840.78,-179.7C821.59,-194.32 794.4,-213.25 768,-225.5 760.73,-228.87 752.88,-231.87 745,-234.49"/>
<polygon fill="#63b8ff" stroke="#63b8ff" points="842.98,-182.42 848.74,-173.52 838.69,-176.88 842.98,-182.42"/>
</a>
</g>
</g>
<!-- Node8 -->
<g id="Node000008" class="node">
<title>Node8</title>
<g id="a_Node000008"><a xlink:href="classPhysics_1_1RigidBody.html#a4e7d7e2da6c0011c98745c15903a2b15" target="_top" xlink:title=" ">
<polygon fill="white" stroke="#666666" points="768,-216.5 595,-216.5 595,-186.5 768,-186.5 768,-216.5"/>
<text text-anchor="start" x="603" y="-204.5" font-family="Helvetica,sans-Serif" font-size="10.00">Physics::RigidBody</text>
<text text-anchor="middle" x="681.5" y="-193.5" font-family="Helvetica,sans-Serif" font-size="10.00">::resolveCollisionWithPointMass</text>
</a>
</g>
</g>
<!-- Node1&#45;&gt;Node8 -->
<g id="edge7_Node000001_Node000008" class="edge">
<title>Node1&#45;&gt;Node8</title>
<g id="a_edge7_Node000001_Node000008"><a xlink:title=" ">
<path fill="none" stroke="#63b8ff" d="M793.72,-175.58C778.25,-179.19 762.03,-182.97 746.91,-186.49"/>
<polygon fill="#63b8ff" stroke="#63b8ff" points="794.82,-178.92 803.76,-173.24 793.23,-172.1 794.82,-178.92"/>
</a>
</g>
</g>
<!-- Node10 -->
<g id="Node000010" class="node">
<title>Node10</title>
<g id="a_Node000010"><a xlink:href="PhysicsTests_8cpp.html#aae14e19948f282c097b0e8761991c0e1" target="_top" xlink:title=" ">
<polygon fill="white" stroke="#666666" points="493,-168 452,-168 452,-149 493,-149 493,-168"/>
<text text-anchor="middle" x="472.5" y="-156" font-family="Helvetica,sans-Serif" font-size="10.00">TEST</text>
</a>
</g>
</g>
<!-- Node1&#45;&gt;Node10 -->
<g id="edge16_Node000001_Node000010" class="edge">
<title>Node1&#45;&gt;Node10</title>
<g id="a_edge16_Node000001_Node000010"><a xlink:title=" ">
<path fill="none" stroke="#63b8ff" d="M793.64,-158.5C701.09,-158.5 547.48,-158.5 493.22,-158.5"/>
<polygon fill="#63b8ff" stroke="#63b8ff" points="793.78,-162 803.78,-158.5 793.78,-155 793.78,-162"/>
</a>
</g>
</g>
<!-- Node11 -->
<g id="Node000011" class="node">
<title>Node11</title>
<g id="a_Node000011"><a xlink:href="classSceneSerializer.html#a56e278bcdda1f03f192797122dd6d0c0" target="_top" xlink:title=" ">
<polygon fill="white" stroke="#666666" points="757.5,-130 605.5,-130 605.5,-111 757.5,-111 757.5,-130"/>
<text text-anchor="middle" x="681.5" y="-118" font-family="Helvetica,sans-Serif" font-size="10.00">SceneSerializer::saveToJson</text>
</a>
</g>
</g>
<!-- Node1&#45;&gt;Node11 -->
<g id="edge10_Node000001_Node000011" class="edge">
<title>Node1&#45;&gt;Node11</title>
<g id="a_edge10_Node000001_Node000011"><a xlink:title=" ">
<path fill="none" stroke="#63b8ff" d="M793.81,-143.43C771.88,-138.91 748.44,-134.08 728.76,-130.03"/>
<polygon fill="#63b8ff" stroke="#63b8ff" points="793.26,-146.89 803.76,-145.48 794.68,-140.03 793.26,-146.89"/>
</a>
</g>
</g>
<!-- Node13 -->
<g id="Node000013" class="node">
<title>Node13</title>
<g id="a_Node000013"><a xlink:href="PhysicsTests_8cpp.html#adf77e4c378263518bc0385482a700b33" target="_top" xlink:title=" ">
<polygon fill="white" stroke="#666666" points="702,-93 661,-93 661,-74 702,-74 702,-93"/>
<text text-anchor="middle" x="681.5" y="-81" font-family="Helvetica,sans-Serif" font-size="10.00">TEST</text>
</a>
</g>
</g>
<!-- Node1&#45;&gt;Node13 -->
<g id="edge13_Node000001_Node000013" class="edge">
<title>Node1&#45;&gt;Node13</title>
<g id="a_edge13_Node000001_Node000013"><a xlink:title=" ">
<path fill="none" stroke="#63b8ff" d="M836.69,-137.69C817.71,-125.53 792.31,-110.79 768,-101.5 746.18,-93.16 719.67,-88.34 702.01,-85.82"/>
<polygon fill="#63b8ff" stroke="#63b8ff" points="834.91,-140.71 845.2,-143.25 838.74,-134.85 834.91,-140.71"/>
</a>
</g>
</g>
<!-- Node14 -->
<g id="Node000014" class="node">
<title>Node14</title>
<g id="a_Node000014"><a xlink:href="PhysicsTests_8cpp.html#a6bd5358388f351202a6a8ed4c3367b32" target="_top" xlink:title=" ">
<polygon fill="white" stroke="#666666" points="702,-56 661,-56 661,-37 702,-37 702,-56"/>
<text text-anchor="middle" x="681.5" y="-44" font-family="Helvetica,sans-Serif" font-size="10.00">TEST</text>
</a>
</g>
</g>
<!-- Node1&#45;&gt;Node14 -->
<g id="edge14_Node000001_Node000014" class="edge">
<title>Node1&#45;&gt;Node14</title>
<g id="a_edge14_Node000001_Node000014"><a xlink:title=" ">
<path fill="none" stroke="#63b8ff" d="M849.41,-135.67C831.37,-113.93 801.31,-81.99 768,-64.5 747.18,-53.57 720.23,-49.28 702.2,-47.59"/>
<polygon fill="#63b8ff" stroke="#63b8ff" points="846.7,-137.89 855.71,-143.46 852.14,-133.48 846.7,-137.89"/>
</a>
</g>
</g>
<!-- Node15 -->
<g id="Node000015" class="node">
<title>Node15</title>
<g id="a_Node000015"><a xlink:href="PhysicsTests_8cpp.html#a0c08826252388d8a395a642f81cb5962" target="_top" xlink:title=" ">
<polygon fill="white" stroke="#666666" points="702,-19 661,-19 661,0 702,0 702,-19"/>
<text text-anchor="middle" x="681.5" y="-7" font-family="Helvetica,sans-Serif" font-size="10.00">TEST</text>
</a>
</g>
</g>
<!-- Node1&#45;&gt;Node15 -->
<g id="edge15_Node000001_Node000015" class="edge">
<title>Node1&#45;&gt;Node15</title>
<g id="a_edge15_Node000001_Node000015"><a xlink:title=" ">
<path fill="none" stroke="#63b8ff" d="M855.48,-134.11C839.98,-104.08 809.48,-53.83 768,-27.5 748.02,-14.82 720.64,-10.91 702.3,-9.79"/>
<polygon fill="#63b8ff" stroke="#63b8ff" points="852.38,-135.72 859.98,-143.1 858.63,-132.59 852.38,-135.72"/>
</a>
</g>
</g>
<!-- Node4 -->
<g id="Node000004" class="node">
<title>Node4</title>
<g id="a_Node000004"><a xlink:href="classSceneManager.html#a7b7b0a022dcce523178e8414fb8e4463" target="_top" xlink:title=" ">
<polygon fill="white" stroke="#666666" points="545,-278 400,-278 400,-259 545,-259 545,-278"/>
<text text-anchor="middle" x="472.5" y="-266" font-family="Helvetica,sans-Serif" font-size="10.00">SceneManager::loadScene</text>
</a>
</g>
</g>
<!-- Node3&#45;&gt;Node4 -->
<g id="edge3_Node000003_Node000004" class="edge">
<title>Node3&#45;&gt;Node4</title>
<g id="a_edge3_Node000003_Node000004"><a xlink:title=" ">
<path fill="none" stroke="#63b8ff" d="M589.13,-281.91C574.37,-280.2 559.28,-278.45 545.08,-276.8"/>
<polygon fill="#63b8ff" stroke="#63b8ff" points="588.95,-285.41 599.28,-283.08 589.75,-278.45 588.95,-285.41"/>
</a>
</g>
</g>
<!-- Node5 -->
<g id="Node000005" class="node">
<title>Node5</title>
<g id="a_Node000005"><a xlink:href="classSceneManager.html#a59f13c06bf3f19d5e543502a0ddd0467" target="_top" xlink:title=" ">
<polygon fill="white" stroke="#666666" points="350,-192 172,-192 172,-173 350,-173 350,-192"/>
<text text-anchor="middle" x="261" y="-180" font-family="Helvetica,sans-Serif" font-size="10.00">SceneManager::processHeldKeys</text>
</a>
</g>
</g>
<!-- Node4&#45;&gt;Node5 -->
<g id="edge4_Node000004_Node000005" class="edge">
<title>Node4&#45;&gt;Node5</title>
<g id="a_edge4_Node000004_Node000005"><a xlink:title=" ">
<path fill="none" stroke="#63b8ff" d="M438.92,-255.13C396.33,-237.64 322.75,-207.44 285.32,-192.07"/>
<polygon fill="#63b8ff" stroke="#63b8ff" points="437.7,-258.41 448.28,-258.97 440.36,-251.93 437.7,-258.41"/>
</a>
</g>
</g>
<!-- Node6 -->
<g id="Node000006" class="node">
<title>Node6</title>
<g id="a_Node000006"><a xlink:href="classOpenGLWindow.html#aea9ee69010d8451ab00cd488a8c6717d" target="_top" xlink:title=" ">
<polygon fill="white" stroke="#666666" points="136,-192 0,-192 0,-173 136,-173 136,-192"/>
<text text-anchor="middle" x="68" y="-180" font-family="Helvetica,sans-Serif" font-size="10.00">OpenGLWindow::paintGL</text>
</a>
</g>
</g>
<!-- Node5&#45;&gt;Node6 -->
<g id="edge5_Node000005_Node000006" class="edge">
<title>Node5&#45;&gt;Node6</title>
<g id="a_edge5_Node000005_Node000006"><a xlink:title=" ">
<path fill="none" stroke="#63b8ff" d="M161.6,-182.5C152.94,-182.5 144.32,-182.5 136,-182.5"/>
<polygon fill="#63b8ff" stroke="#63b8ff" points="161.77,-186 171.77,-182.5 161.77,-179 161.77,-186"/>
</a>
</g>
</g>
<!-- Node9 -->
<g id="Node000009" class="node">
<title>Node9</title>
<g id="a_Node000009"><a xlink:href="classPhysics_1_1PointMass.html#a6876155fbb7a943c6d2e06f4c6707959" target="_top" xlink:title=" ">
<polygon fill="white" stroke="#666666" points="559,-216.5 386,-216.5 386,-186.5 559,-186.5 559,-216.5"/>
<text text-anchor="start" x="394" y="-204.5" font-family="Helvetica,sans-Serif" font-size="10.00">Physics::PointMass</text>
<text text-anchor="middle" x="472.5" y="-193.5" font-family="Helvetica,sans-Serif" font-size="10.00">::resolveCollisionWithRigidBody</text>
</a>
</g>
</g>
<!-- Node8&#45;&gt;Node9 -->
<g id="edge8_Node000008_Node000009" class="edge">
<title>Node8&#45;&gt;Node9</title>
<g id="a_edge8_Node000008_Node000009"><a xlink:title=" ">
<path fill="none" stroke="#63b8ff" d="M584.8,-201.5C576.24,-201.5 567.6,-201.5 559.12,-201.5"/>
<polygon fill="#63b8ff" stroke="#63b8ff" points="584.81,-205 594.81,-201.5 584.81,-198 584.81,-205"/>
</a>
</g>
</g>
<!-- Node8&#45;&gt;Node10 -->
<g id="edge9_Node000008_Node000010" class="edge">
<title>Node8&#45;&gt;Node10</title>
<g id="a_edge9_Node000008_Node000010"><a xlink:title=" ">
<path fill="none" stroke="#63b8ff" d="M597.93,-184.35C559.58,-176.38 517.23,-167.58 493.14,-162.58"/>
<polygon fill="#63b8ff" stroke="#63b8ff" points="597.6,-187.85 608.1,-186.46 599.02,-181 597.6,-187.85"/>
</a>
</g>
</g>
<!-- Node12 -->
<g id="Node000012" class="node">
<title>Node12</title>
<g id="a_Node000012"><a xlink:href="classSceneManager.html#a1a46a8c9e99b6b27404a2f870f38749c" target="_top" xlink:title=" ">
<polygon fill="white" stroke="#666666" points="546,-131 399,-131 399,-112 546,-112 546,-131"/>
<text text-anchor="middle" x="472.5" y="-119" font-family="Helvetica,sans-Serif" font-size="10.00">SceneManager::saveScene</text>
</a>
</g>
</g>
<!-- Node11&#45;&gt;Node12 -->
<g id="edge11_Node000011_Node000012" class="edge">
<title>Node11&#45;&gt;Node12</title>
<g id="a_edge11_Node000011_Node000012"><a xlink:title=" ">
<path fill="none" stroke="#63b8ff" d="M595.4,-120.91C579.06,-120.99 562.09,-121.07 546.19,-121.15"/>
<polygon fill="#63b8ff" stroke="#63b8ff" points="595.49,-124.41 605.48,-120.86 595.46,-117.41 595.49,-124.41"/>
</a>
</g>
</g>
<!-- Node12&#45;&gt;Node5 -->
<g id="edge12_Node000012_Node000005" class="edge">
<title>Node12&#45;&gt;Node5</title>
<g id="a_edge12_Node000012_Node000005"><a xlink:title=" ">
<path fill="none" stroke="#63b8ff" d="M411.17,-133.2C402.68,-135.14 394.09,-137.26 386,-139.5 351.09,-149.19 311.71,-163.43 286.88,-172.83"/>
<polygon fill="#63b8ff" stroke="#63b8ff" points="412.05,-136.59 421.06,-131.01 410.54,-129.76 412.05,-136.59"/>
</a>
</g>
</g>
</g>
</svg>
