<?xml version="1.0" encoding="UTF-8" standalone="no"?>
<!DOCTYPE svg PUBLIC "-//W3C//DTD SVG 1.1//EN"
 "http://www.w3.org/Graphics/SVG/1.1/DTD/svg11.dtd">
<!-- Generated by graphviz version 2.43.0 (0)
 -->
<!-- Title: SceneSerializer::saveToJson Pages: 1 -->
<!--zoomable 224 -->

<svg id="main" version="1.1" xmlns="http://www.w3.org/2000/svg" xmlns:xlink="http://www.w3.org/1999/xlink" xml:space="preserve" onload="init(evt)">
<style type="text/css"><![CDATA[
.node, .edge {opacity: 0.7;}
.node.selected, .edge.selected {opacity: 1;}
.edge:hover path { stroke: red; }
.edge:hover polygon { stroke: red; fill: red; }
]]></style>

<defs>
  <circle id="rim" cx="0" cy="0" r="7"/>
  <circle id="rim2" cx="0" cy="0" r="3.5"/>
  <g id="zoomPlus">
    <use xlink:href="#rim" fill="#404040"><set attributeName="fill" to="#808080" begin="zoomplus.mouseover" end="zoomplus.mouseout"/></use>
    <path d="M-4,0h8M0,-4v8" fill="none" stroke="white" stroke-width="1.5" pointer-events="none"/>
  </g>
  <g id="zoomMin">
    <use xlink:href="#rim" fill="#404040"><set attributeName="fill" to="#808080" begin="zoomminus.mouseover" end="zoomminus.mouseout"/></use>
    <path d="M-4,0h8" fill="none" stroke="white" stroke-width="1.5" pointer-events="none"/>
  </g>
  <g id="arrowUp" transform="translate(30 24)">
    <use xlink:href="#rim"/>
    <path pointer-events="none" fill="none" stroke="white" stroke-width="1.5" d="M0,-3.0v7 M-2.5,-0.5L0,-3.0L2.5,-0.5"/>
  </g>
  <g id="arrowRight" transform="rotate(90) translate(36 -43)">
    <use xlink:href="#rim"/>
    <path pointer-events="none" fill="none" stroke="white" stroke-width="1.5" d="M0,-3.0v7 M-2.5,-0.5L0,-3.0L2.5,-0.5"/>
  </g>
  <g id="arrowDown" transform="rotate(180) translate(-30 -48)">
    <use xlink:href="#rim"/>
    <path pointer-events="none" fill="none" stroke="white" stroke-width="1.5" d="M0,-3.0v7 M-2.5,-0.5L0,-3.0L2.5,-0.5"/>
  </g>
  <g id="arrowLeft" transform="rotate(270) translate(-36 17)">
    <use xlink:href="#rim"/>
    <path pointer-events="none" fill="none" stroke="white" stroke-width="1.5" d="M0,-3.0v7 M-2.5,-0.5L0,-3.0L2.5,-0.5"/>
  </g>
  <g id="resetDef">
    <use xlink:href="#rim2" fill="#404040"><set attributeName="fill" to="#808080" begin="reset.mouseover" end="reset.mouseout"/></use>
  </g>
</defs>
<script type="application/ecmascript">
var viewWidth = 598;
var viewHeight = 224;
var sectionId = 'dynsection-2';
</script>
<script type="application/ecmascript" xlink:href="svg.min.js"/>
<svg id="graph" class="graph">
<g id="viewport">
<title>SceneSerializer::saveToJson</title>
<!-- Node1 -->
<g id="Node000001" class="node">
<title>Node1</title>
<g id="a_Node000001"><a xlink:title=" ">
<polygon fill="#999999" stroke="#666666" points="152,-111 0,-111 0,-92 152,-92 152,-111"/>
<text text-anchor="middle" x="76" y="-99" font-family="Helvetica,sans-Serif" font-size="10.00">SceneSerializer::saveToJson</text>
</a>
</g>
</g>
<!-- Node2 -->
<g id="Node000002" class="node">
<title>Node2</title>
<g id="a_Node000002"><a xlink:href="classSceneManager.html#ad73f1ee3bdfe2567544871845707ce0f" target="_top" xlink:title=" ">
<polygon fill="white" stroke="#666666" points="391,-216 188,-216 188,-197 391,-197 391,-216"/>
<text text-anchor="middle" x="289.5" y="-204" font-family="Helvetica,sans-Serif" font-size="10.00">SceneManager::getGlobalAcceleration</text>
</a>
</g>
</g>
<!-- Node1&#45;&gt;Node2 -->
<g id="edge1_Node000001_Node000002" class="edge">
<title>Node1&#45;&gt;Node2</title>
<g id="a_edge1_Node000001_Node000002"><a xlink:title=" ">
<path fill="none" stroke="#63b8ff" d="M86.06,-111.05C103.79,-129.11 145.1,-168.19 188,-187.5 193.68,-190.06 199.7,-192.27 205.85,-194.19"/>
<polygon fill="#63b8ff" stroke="#63b8ff" points="205.02,-197.59 215.59,-196.96 206.93,-190.86 205.02,-197.59"/>
</a>
</g>
</g>
<!-- Node3 -->
<g id="Node000003" class="node">
<title>Node3</title>
<g id="a_Node000003"><a xlink:href="classSceneManager.html#a5117d2cabac5d1f95994f47f530b377b" target="_top" xlink:title=" ">
<polygon fill="white" stroke="#666666" points="376.5,-178.5 202.5,-178.5 202.5,-148.5 376.5,-148.5 376.5,-178.5"/>
<text text-anchor="start" x="210.5" y="-166.5" font-family="Helvetica,sans-Serif" font-size="10.00">SceneManager::getGravitational</text>
<text text-anchor="middle" x="289.5" y="-155.5" font-family="Helvetica,sans-Serif" font-size="10.00">Constant</text>
</a>
</g>
</g>
<!-- Node1&#45;&gt;Node3 -->
<g id="edge2_Node000001_Node000003" class="edge">
<title>Node1&#45;&gt;Node3</title>
<g id="a_edge2_Node000001_Node000003"><a xlink:title=" ">
<path fill="none" stroke="#63b8ff" d="M102.79,-111.11C125.15,-119.26 158.46,-130.94 188,-139.5 195.66,-141.72 203.68,-143.89 211.72,-145.96"/>
<polygon fill="#63b8ff" stroke="#63b8ff" points="210.95,-149.38 221.5,-148.44 212.67,-142.59 210.95,-149.38"/>
</a>
</g>
</g>
<!-- Node4 -->
<g id="Node000004" class="node">
<title>Node4</title>
<g id="a_Node000004"><a xlink:href="classSceneManager.html#ad8688edec501c8e945dff1a85c7e33c7" target="_top" xlink:title=" ">
<polygon fill="white" stroke="#666666" points="363,-130 216,-130 216,-111 363,-111 363,-130"/>
<text text-anchor="middle" x="289.5" y="-118" font-family="Helvetica,sans-Serif" font-size="10.00">SceneManager::getObjects</text>
</a>
</g>
</g>
<!-- Node1&#45;&gt;Node4 -->
<g id="edge3_Node000001_Node000004" class="edge">
<title>Node1&#45;&gt;Node4</title>
<g id="a_edge3_Node000001_Node000004"><a xlink:title=" ">
<path fill="none" stroke="#63b8ff" d="M152.16,-108.25C169.43,-109.8 187.89,-111.46 205.47,-113.04"/>
<polygon fill="#63b8ff" stroke="#63b8ff" points="205.44,-116.55 215.71,-113.96 206.06,-109.58 205.44,-116.55"/>
</a>
</g>
</g>
<!-- Node5 -->
<g id="Node000005" class="node">
<title>Node5</title>
<g id="a_Node000005"><a xlink:href="classResourceManager.html#ab447c164418daff9c741b03b4bf33310" target="_top" xlink:title=" ">
<polygon fill="white" stroke="#666666" points="384,-93 195,-93 195,-74 384,-74 384,-93"/>
<text text-anchor="middle" x="289.5" y="-81" font-family="Helvetica,sans-Serif" font-size="10.00">ResourceManager::getShaderName</text>
</a>
</g>
</g>
<!-- Node1&#45;&gt;Node5 -->
<g id="edge4_Node000001_Node000005" class="edge">
<title>Node1&#45;&gt;Node5</title>
<g id="a_edge4_Node000001_Node000005"><a xlink:title=" ">
<path fill="none" stroke="#63b8ff" d="M152.16,-95.1C162.71,-94.21 173.7,-93.27 184.66,-92.34"/>
<polygon fill="#63b8ff" stroke="#63b8ff" points="185.04,-95.82 194.7,-91.48 184.44,-88.84 185.04,-95.82"/>
</a>
</g>
</g>
<!-- Node6 -->
<g id="Node000006" class="node">
<title>Node6</title>
<g id="a_Node000006"><a xlink:href="classSceneManager.html#ae085a7aade1b9a2adcb7d9f1b2660790" target="_top" xlink:title=" ">
<polygon fill="white" stroke="#666666" points="369,-56 210,-56 210,-37 369,-37 369,-56"/>
<text text-anchor="middle" x="289.5" y="-44" font-family="Helvetica,sans-Serif" font-size="10.00">SceneManager::getSimSpeed</text>
</a>
</g>
</g>
<!-- Node1&#45;&gt;Node6 -->
<g id="edge5_Node000001_Node000006" class="edge">
<title>Node1&#45;&gt;Node6</title>
<g id="a_edge5_Node000001_Node000006"><a xlink:title=" ">
<path fill="none" stroke="#63b8ff" d="M103.19,-91.97C125.51,-84.09 158.56,-73.03 188,-65.5 198.67,-62.77 210.07,-60.25 221.21,-58"/>
<polygon fill="#63b8ff" stroke="#63b8ff" points="222.22,-61.37 231.35,-56 220.87,-54.5 222.22,-61.37"/>
</a>
</g>
</g>
<!-- Node8 -->
<g id="Node000008" class="node">
<title>Node8</title>
<g id="a_Node000008"><a xlink:href="namespaceJsonUtils.html#aa9bf373a72d131da0b8d71ade1295533" target="_top" xlink:title=" ">
<polygon fill="white" stroke="#666666" points="349,-19 230,-19 230,0 349,0 349,-19"/>
<text text-anchor="middle" x="289.5" y="-7" font-family="Helvetica,sans-Serif" font-size="10.00">JsonUtils::vec3ToJson</text>
</a>
</g>
</g>
<!-- Node1&#45;&gt;Node8 -->
<g id="edge7_Node000001_Node000008" class="edge">
<title>Node1&#45;&gt;Node8</title>
<g id="a_edge7_Node000001_Node000008"><a xlink:title=" ">
<path fill="none" stroke="#63b8ff" d="M88.13,-91.97C107.22,-76.17 148.01,-44.67 188,-28.5 198.08,-24.42 209.09,-21.21 220.01,-18.68"/>
<polygon fill="#63b8ff" stroke="#63b8ff" points="220.94,-22.06 229.98,-16.54 219.47,-15.21 220.94,-22.06"/>
</a>
</g>
</g>
<!-- Node7 -->
<g id="Node000007" class="node">
<title>Node7</title>
<g id="a_Node000007"><a xlink:href="classOpenGLWindow.html#aeabd921e42871e7ecb6d2297580d5b81" target="_top" xlink:title=" ">
<polygon fill="white" stroke="#666666" points="590,-56 427,-56 427,-37 590,-37 590,-56"/>
<text text-anchor="middle" x="508.5" y="-44" font-family="Helvetica,sans-Serif" font-size="10.00">OpenGLWindow::getSimSpeed</text>
</a>
</g>
</g>
<!-- Node6&#45;&gt;Node7 -->
<g id="edge6_Node000006_Node000007" class="edge">
<title>Node6&#45;&gt;Node7</title>
<g id="a_edge6_Node000006_Node000007"><a xlink:title=" ">
<path fill="none" stroke="#63b8ff" d="M369.15,-46.5C384.57,-46.5 400.87,-46.5 416.65,-46.5"/>
<polygon fill="#63b8ff" stroke="#63b8ff" points="416.93,-50 426.93,-46.5 416.93,-43 416.93,-50"/>
</a>
</g>
</g>
</g>
</svg>

<g id="navigator" transform="translate(0 0)" fill="#404254">
  <rect fill="#f2f5e9" fill-opacity="0.5" stroke="#606060" stroke-width=".5" x="0" y="0" width="60" height="60"/>
  <use id="zoomplus" xlink:href="#zoomPlus" x="17" y="9" onmousedown="handleZoom(evt,'in')"/>
  <use id="zoomminus" xlink:href="#zoomMin" x="42" y="9" onmousedown="handleZoom(evt,'out')"/>
  <use id="reset" xlink:href="#resetDef" x="30" y="36" onmousedown="handleReset()"/>
   <use id="arrowup" xlink:href="#arrowUp" x="0" y="0" onmousedown="handlePan(0,-1)"/>
  <use id="arrowright" xlink:href="#arrowRight" x="0" y="0" onmousedown="handlePan(1,0)"/>
  <use id="arrowdown" xlink:href="#arrowDown" x="0" y="0" onmousedown="handlePan(0,1)"/>
  <use id="arrowleft" xlink:href="#arrowLeft" x="0" y="0" onmousedown="handlePan(-1,0)"/>
</g>
<svg viewBox="0 0 15 15" width="100%" height="30px" preserveAspectRatio="xMaxYMin meet">
 <g id="arrow_out" transform="scale(0.3 0.3)">
  <a xlink:href="classSceneSerializer_a56e278bcdda1f03f192797122dd6d0c0_cgraph_org.svg" target="_base">
   <rect id="button" ry="5" rx="5" y="6" x="6" height="38" width="38"
        fill="#f2f5e9" fill-opacity="0.5" stroke="#606060" stroke-width="1.0"/>
   <path id="arrow"
     d="M 11.500037,31.436501 C 11.940474,20.09759 22.043105,11.32322 32.158766,21.979434 L 37.068811,17.246167 C 37.068811,17.246167 37.088388,32 37.088388,32 L 22.160133,31.978069 C 22.160133,31.978069 26.997745,27.140456 26.997745,27.140456 C 18.528582,18.264221 13.291696,25.230495 11.500037,31.436501 z"
     style="fill:#404040;"/>
  </a>
 </g>
</svg>

<style type='text/css'>
<![CDATA[
[data-mouse-over-selected='false'] { opacity: 0.7; }
[data-mouse-over-selected='true']  { opacity: 1.0; }
]]>
</style>
<script type="application/ecmascript"><![CDATA[
document.addEventListener('DOMContentLoaded', (event) => {
  highlightEdges();
  highlightAdjacentNodes();
});
]]></script>
</svg>
