<?xml version="1.0" encoding="UTF-8" standalone="no"?>
<!DOCTYPE svg PUBLIC "-//W3C//DTD SVG 1.1//EN"
 "http://www.w3.org/Graphics/SVG/1.1/DTD/svg11.dtd">
<!-- Generated by graphviz version 2.43.0 (0)
 -->
<!-- Title: OpenGLWindow::mouseReleaseEvent Pages: 1 -->
<!--zoomable 409 -->

<svg id="main" version="1.1" xmlns="http://www.w3.org/2000/svg" xmlns:xlink="http://www.w3.org/1999/xlink" xml:space="preserve" onload="init(evt)">
<style type="text/css"><![CDATA[
.node, .edge {opacity: 0.7;}
.node.selected, .edge.selected {opacity: 1;}
.edge:hover path { stroke: red; }
.edge:hover polygon { stroke: red; fill: red; }
]]></style>

<defs>
  <circle id="rim" cx="0" cy="0" r="7"/>
  <circle id="rim2" cx="0" cy="0" r="3.5"/>
  <g id="zoomPlus">
    <use xlink:href="#rim" fill="#404040"><set attributeName="fill" to="#808080" begin="zoomplus.mouseover" end="zoomplus.mouseout"/></use>
    <path d="M-4,0h8M0,-4v8" fill="none" stroke="white" stroke-width="1.5" pointer-events="none"/>
  </g>
  <g id="zoomMin">
    <use xlink:href="#rim" fill="#404040"><set attributeName="fill" to="#808080" begin="zoomminus.mouseover" end="zoomminus.mouseout"/></use>
    <path d="M-4,0h8" fill="none" stroke="white" stroke-width="1.5" pointer-events="none"/>
  </g>
  <g id="arrowUp" transform="translate(30 24)">
    <use xlink:href="#rim"/>
    <path pointer-events="none" fill="none" stroke="white" stroke-width="1.5" d="M0,-3.0v7 M-2.5,-0.5L0,-3.0L2.5,-0.5"/>
  </g>
  <g id="arrowRight" transform="rotate(90) translate(36 -43)">
    <use xlink:href="#rim"/>
    <path pointer-events="none" fill="none" stroke="white" stroke-width="1.5" d="M0,-3.0v7 M-2.5,-0.5L0,-3.0L2.5,-0.5"/>
  </g>
  <g id="arrowDown" transform="rotate(180) translate(-30 -48)">
    <use xlink:href="#rim"/>
    <path pointer-events="none" fill="none" stroke="white" stroke-width="1.5" d="M0,-3.0v7 M-2.5,-0.5L0,-3.0L2.5,-0.5"/>
  </g>
  <g id="arrowLeft" transform="rotate(270) translate(-36 17)">
    <use xlink:href="#rim"/>
    <path pointer-events="none" fill="none" stroke="white" stroke-width="1.5" d="M0,-3.0v7 M-2.5,-0.5L0,-3.0L2.5,-0.5"/>
  </g>
  <g id="resetDef">
    <use xlink:href="#rim2" fill="#404040"><set attributeName="fill" to="#808080" begin="reset.mouseover" end="reset.mouseout"/></use>
  </g>
</defs>
<script type="application/ecmascript">
var viewWidth = 1184;
var viewHeight = 409;
var sectionId = 'dynsection-9';
</script>
<script type="application/ecmascript" xlink:href="svg.min.js"/>
<svg id="graph" class="graph">
<g id="viewport">
<title>OpenGLWindow::mouseReleaseEvent</title>
<!-- Node1 -->
<g id="Node000001" class="node">
<title>Node1</title>
<g id="a_Node000001"><a xlink:title=" ">
<polygon fill="#999999" stroke="#666666" points="170,-227.5 0,-227.5 0,-197.5 170,-197.5 170,-227.5"/>
<text text-anchor="start" x="8" y="-215.5" font-family="Helvetica,sans-Serif" font-size="10.00">OpenGLWindow::mouseRelease</text>
<text text-anchor="middle" x="85" y="-204.5" font-family="Helvetica,sans-Serif" font-size="10.00">Event</text>
</a>
</g>
</g>
<!-- Node2 -->
<g id="Node000002" class="node">
<title>Node2</title>
<g id="a_Node000002"><a xlink:href="classSceneManager.html#ac517c77baec7191a36898308818ebb5f" target="_top" xlink:title=" ">
<polygon fill="white" stroke="#666666" points="366,-227.5 206,-227.5 206,-197.5 366,-197.5 366,-227.5"/>
<text text-anchor="start" x="214" y="-215.5" font-family="Helvetica,sans-Serif" font-size="10.00">SceneManager::handleMouse</text>
<text text-anchor="middle" x="286" y="-204.5" font-family="Helvetica,sans-Serif" font-size="10.00">Button</text>
</a>
</g>
</g>
<!-- Node1&#45;&gt;Node2 -->
<g id="edge1_Node000001_Node000002" class="edge">
<title>Node1&#45;&gt;Node2</title>
<g id="a_edge1_Node000001_Node000002"><a xlink:title=" ">
<path fill="none" stroke="#63b8ff" d="M170.11,-212.5C178.64,-212.5 187.34,-212.5 195.93,-212.5"/>
<polygon fill="#63b8ff" stroke="#63b8ff" points="195.95,-216 205.95,-212.5 195.95,-209 195.95,-216"/>
</a>
</g>
</g>
<!-- Node3 -->
<g id="Node000003" class="node">
<title>Node3</title>
<g id="a_Node000003"><a xlink:href="classSceneManager.html#a12c57c5dbb78e8d6365adb723ea0aef3" target="_top" xlink:title=" ">
<polygon fill="white" stroke="#666666" points="576,-400.5 418,-400.5 418,-370.5 576,-370.5 576,-400.5"/>
<text text-anchor="start" x="426" y="-388.5" font-family="Helvetica,sans-Serif" font-size="10.00">SceneManager::contextMenu</text>
<text text-anchor="middle" x="497" y="-377.5" font-family="Helvetica,sans-Serif" font-size="10.00">Requested</text>
</a>
</g>
</g>
<!-- Node2&#45;&gt;Node3 -->
<g id="edge2_Node000002_Node000003" class="edge">
<title>Node2&#45;&gt;Node3</title>
<g id="a_edge2_Node000002_Node000003"><a xlink:title=" ">
<path fill="none" stroke="#63b8ff" d="M294.41,-227.88C309.9,-258.36 348.76,-326.49 402,-361.5 404.44,-363.11 406.98,-364.6 409.6,-366"/>
<polygon fill="#63b8ff" stroke="#63b8ff" points="408.22,-369.22 418.75,-370.38 411.24,-362.91 408.22,-369.22"/>
</a>
</g>
</g>
<!-- Node4 -->
<g id="Node000004" class="node">
<title>Node4</title>
<g id="a_Node000004"><a xlink:href="namespaceMath.html#aec8403064a88272999c2c143ef03a9fd" target="_top" xlink:title="Finds the first object intersected by a ray.">
<polygon fill="white" stroke="#666666" points="547.5,-352 446.5,-352 446.5,-333 547.5,-333 547.5,-352"/>
<text text-anchor="middle" x="497" y="-340" font-family="Helvetica,sans-Serif" font-size="10.00">Math::findFirstHit</text>
</a>
</g>
</g>
<!-- Node2&#45;&gt;Node4 -->
<g id="edge3_Node000002_Node000004" class="edge">
<title>Node2&#45;&gt;Node4</title>
<g id="a_edge3_Node000002_Node000004"><a xlink:title=" ">
<path fill="none" stroke="#63b8ff" d="M297.78,-227.67C316.16,-252.27 356.04,-300.53 402,-324.5 412.59,-330.02 424.64,-333.86 436.5,-336.53"/>
<polygon fill="#63b8ff" stroke="#63b8ff" points="435.89,-339.98 446.38,-338.51 437.26,-333.11 435.89,-339.98"/>
</a>
</g>
</g>
<!-- Node6 -->
<g id="Node000006" class="node">
<title>Node6</title>
<g id="a_Node000006"><a xlink:href="classScene.html#a8ec1e638529f69f716e791ba3ac4d2f7" target="_top" xlink:title=" ">
<polygon fill="white" stroke="#666666" points="550,-315 444,-315 444,-296 550,-296 550,-315"/>
<text text-anchor="middle" x="497" y="-303" font-family="Helvetica,sans-Serif" font-size="10.00">Scene::getCamera</text>
</a>
</g>
</g>
<!-- Node2&#45;&gt;Node6 -->
<g id="edge5_Node000002_Node000006" class="edge">
<title>Node2&#45;&gt;Node6</title>
<g id="a_edge5_Node000002_Node000006"><a xlink:title=" ">
<path fill="none" stroke="#63b8ff" d="M305.26,-227.68C326.94,-244.9 364.87,-272.51 402,-287.5 412.03,-291.55 423.03,-294.7 433.87,-297.15"/>
<polygon fill="#63b8ff" stroke="#63b8ff" points="433.23,-300.59 443.74,-299.21 434.66,-293.74 433.23,-300.59"/>
</a>
</g>
</g>
<!-- Node7 -->
<g id="Node000007" class="node">
<title>Node7</title>
<g id="a_Node000007"><a xlink:href="classIPickable.html#a633ac40ae443d7a7935a34d145514bea" target="_top" xlink:title="Gets the unique identifier for this object.">
<polygon fill="white" stroke="#666666" points="559,-278 435,-278 435,-259 559,-259 559,-278"/>
<text text-anchor="middle" x="497" y="-266" font-family="Helvetica,sans-Serif" font-size="10.00">IPickable::getObjectID</text>
</a>
</g>
</g>
<!-- Node2&#45;&gt;Node7 -->
<g id="edge6_Node000002_Node000007" class="edge">
<title>Node2&#45;&gt;Node7</title>
<g id="a_edge6_Node000002_Node000007"><a xlink:title=" ">
<path fill="none" stroke="#63b8ff" d="M328.13,-227.53C349.89,-235.12 377.17,-244.05 402,-250.5 410.86,-252.8 420.26,-254.95 429.55,-256.89"/>
<polygon fill="#63b8ff" stroke="#63b8ff" points="429.07,-260.37 439.57,-258.93 430.46,-253.51 429.07,-260.37"/>
</a>
</g>
</g>
<!-- Node8 -->
<g id="Node000008" class="node">
<title>Node8</title>
<g id="a_Node000008"><a xlink:href="classIPickable.html#aabf11fe38a2332ac844b5b51093c7cd2" target="_top" xlink:title="Handles a mouse click on this object.">
<polygon fill="white" stroke="#666666" points="558.5,-241 435.5,-241 435.5,-222 558.5,-222 558.5,-241"/>
<text text-anchor="middle" x="497" y="-229" font-family="Helvetica,sans-Serif" font-size="10.00">IPickable::handleClick</text>
</a>
</g>
</g>
<!-- Node2&#45;&gt;Node8 -->
<g id="edge7_Node000002_Node000008" class="edge">
<title>Node2&#45;&gt;Node8</title>
<g id="a_edge7_Node000002_Node000008"><a xlink:title=" ">
<path fill="none" stroke="#63b8ff" d="M366.01,-219.68C385.51,-221.46 406.27,-223.34 425.35,-225.08"/>
<polygon fill="#63b8ff" stroke="#63b8ff" points="425.17,-228.58 435.45,-226 425.81,-221.6 425.17,-228.58"/>
</a>
</g>
</g>
<!-- Node9 -->
<g id="Node000009" class="node">
<title>Node9</title>
<g id="a_Node000009"><a xlink:href="classOpenGLWindow.html#abafa9b00fb8edd30f4b4d3e1b5e8f949" target="_top" xlink:title=" ">
<polygon fill="white" stroke="#666666" points="588.5,-204 405.5,-204 405.5,-185 588.5,-185 588.5,-204"/>
<text text-anchor="middle" x="497" y="-192" font-family="Helvetica,sans-Serif" font-size="10.00">OpenGLWindow::isMouseCaptured</text>
</a>
</g>
</g>
<!-- Node2&#45;&gt;Node9 -->
<g id="edge8_Node000002_Node000009" class="edge">
<title>Node2&#45;&gt;Node9</title>
<g id="a_edge8_Node000002_Node000009"><a xlink:title=" ">
<path fill="none" stroke="#63b8ff" d="M366.01,-205.69C375.54,-204.87 385.36,-204.03 395.14,-203.19"/>
<polygon fill="#63b8ff" stroke="#63b8ff" points="395.64,-206.66 405.31,-202.31 395.04,-199.68 395.64,-206.66"/>
</a>
</g>
</g>
<!-- Node10 -->
<g id="Node000010" class="node">
<title>Node10</title>
<g id="a_Node000010"><a xlink:href="classCamera.html#af99955c976c3bbeec08714d7724bab89" target="_top" xlink:title=" ">
<polygon fill="white" stroke="#666666" points="556,-167 438,-167 438,-148 556,-148 556,-167"/>
<text text-anchor="middle" x="497" y="-155" font-family="Helvetica,sans-Serif" font-size="10.00">Camera::resetMouse</text>
</a>
</g>
</g>
<!-- Node2&#45;&gt;Node10 -->
<g id="edge9_Node000002_Node000010" class="edge">
<title>Node2&#45;&gt;Node10</title>
<g id="a_edge9_Node000002_Node000010"><a xlink:title=" ">
<path fill="none" stroke="#63b8ff" d="M331.2,-197.48C352.46,-190.56 378.39,-182.56 402,-176.5 412.14,-173.89 422.98,-171.42 433.55,-169.18"/>
<polygon fill="#63b8ff" stroke="#63b8ff" points="434.49,-172.55 443.57,-167.09 433.07,-165.7 434.49,-172.55"/>
</a>
</g>
</g>
<!-- Node11 -->
<g id="Node000011" class="node">
<title>Node11</title>
<g id="a_Node000011"><a xlink:href="classSceneManager.html#a25bec2896954b4f0c3bed8ef736993d3" target="_top" xlink:title=" ">
<polygon fill="white" stroke="#666666" points="787.5,-121 629.5,-121 629.5,-102 787.5,-102 787.5,-121"/>
<text text-anchor="middle" x="708.5" y="-109" font-family="Helvetica,sans-Serif" font-size="10.00">SceneManager::selectedItem</text>
</a>
</g>
</g>
<!-- Node2&#45;&gt;Node11 -->
<g id="edge10_Node000002_Node000011" class="edge">
<title>Node2&#45;&gt;Node11</title>
<g id="a_edge10_Node000002_Node000011"><a xlink:title=" ">
<path fill="none" stroke="#63b8ff" d="M304.71,-197.4C326.17,-180.08 364.17,-152.39 402,-139.5 472.44,-115.49 556.99,-109.35 619.27,-108.72"/>
<polygon fill="#63b8ff" stroke="#63b8ff" points="619.48,-112.22 629.46,-108.67 619.44,-105.22 619.48,-112.22"/>
</a>
</g>
</g>
<!-- Node12 -->
<g id="Node000012" class="node">
<title>Node12</title>
<g id="a_Node000012"><a xlink:href="classOpenGLWindow.html#a7ecf04635ece36551edb2a0be6fddfbe" target="_top" xlink:title=" ">
<polygon fill="white" stroke="#666666" points="592,-91 402,-91 402,-72 592,-72 592,-91"/>
<text text-anchor="middle" x="497" y="-79" font-family="Helvetica,sans-Serif" font-size="10.00">OpenGLWindow::setMouseCaptured</text>
</a>
</g>
</g>
<!-- Node2&#45;&gt;Node12 -->
<g id="edge11_Node000002_Node000012" class="edge">
<title>Node2&#45;&gt;Node12</title>
<g id="a_edge11_Node000002_Node000012"><a xlink:title=" ">
<path fill="none" stroke="#63b8ff" d="M299.03,-197.19C318.25,-173.81 358.2,-129.41 402,-105.5 410.65,-100.78 420.25,-96.96 429.92,-93.88"/>
<polygon fill="#63b8ff" stroke="#63b8ff" points="430.98,-97.22 439.59,-91.04 429.01,-90.51 430.98,-97.22"/>
</a>
</g>
</g>
<!-- Node13 -->
<g id="Node000013" class="node">
<title>Node13</title>
<g id="a_Node000013"><a xlink:href="classSceneManager.html#af40d0ff3e76f89bbf5504f1694814179" target="_top" xlink:title=" ">
<polygon fill="white" stroke="#666666" points="574.5,-54 419.5,-54 419.5,-35 574.5,-35 574.5,-54"/>
<text text-anchor="middle" x="497" y="-42" font-family="Helvetica,sans-Serif" font-size="10.00">SceneManager::setSelectFor</text>
</a>
</g>
</g>
<!-- Node2&#45;&gt;Node13 -->
<g id="edge12_Node000002_Node000013" class="edge">
<title>Node2&#45;&gt;Node13</title>
<g id="a_edge12_Node000002_Node000013"><a xlink:title=" ">
<path fill="none" stroke="#63b8ff" d="M293.97,-197.21C308.93,-166.26 347.27,-96.28 402,-62.5 404.67,-60.85 407.46,-59.35 410.33,-57.98"/>
<polygon fill="#63b8ff" stroke="#63b8ff" points="411.89,-61.12 419.77,-54.04 409.19,-54.66 411.89,-61.12"/>
</a>
</g>
</g>
<!-- Node5 -->
<g id="Node000005" class="node">
<title>Node5</title>
<g id="a_Node000005"><a xlink:href="classIPickable.html#a69ded211af3ca1009ddbafd14aef8bb7" target="_top" xlink:title="Tests if a ray intersects this object&#39;s geometry.">
<polygon fill="white" stroke="#666666" points="775,-352 642,-352 642,-333 775,-333 775,-352"/>
<text text-anchor="middle" x="708.5" y="-340" font-family="Helvetica,sans-Serif" font-size="10.00">IPickable::intersectsRay</text>
</a>
</g>
</g>
<!-- Node4&#45;&gt;Node5 -->
<g id="edge4_Node000004_Node000005" class="edge">
<title>Node4&#45;&gt;Node5</title>
<g id="a_edge4_Node000004_Node000005"><a xlink:title=" ">
<path fill="none" stroke="#63b8ff" d="M547.65,-342.5C572.76,-342.5 603.77,-342.5 631.78,-342.5"/>
<polygon fill="#63b8ff" stroke="#63b8ff" points="631.95,-346 641.95,-342.5 631.95,-339 631.95,-346"/>
</a>
</g>
</g>
<!-- Node13&#45;&gt;Node11 -->
<g id="edge18_Node000013_Node000011" class="edge">
<title>Node13&#45;&gt;Node11</title>
<g id="a_edge18_Node000013_Node000011"><a xlink:title=" ">
<path fill="none" stroke="#63b8ff" d="M558.14,-54.05C569.49,-56.4 581.19,-59.21 592,-62.5 600.52,-65.09 645.31,-84.38 676.54,-97.97"/>
<polygon fill="#63b8ff" stroke="#63b8ff" points="675.18,-101.19 685.74,-101.97 677.97,-94.77 675.18,-101.19"/>
</a>
</g>
</g>
<!-- Node14 -->
<g id="Node000014" class="node">
<title>Node14</title>
<g id="a_Node000014"><a xlink:href="classSceneManager.html#a99992b526976863d1dab7dc88cc6ec2a" target="_top" xlink:title=" ">
<polygon fill="white" stroke="#666666" points="789,-67.5 628,-67.5 628,-37.5 789,-37.5 789,-67.5"/>
<text text-anchor="start" x="636" y="-55.5" font-family="Helvetica,sans-Serif" font-size="10.00">SceneManager::deleteCurrent</text>
<text text-anchor="middle" x="708.5" y="-44.5" font-family="Helvetica,sans-Serif" font-size="10.00">Gizmo</text>
</a>
</g>
</g>
<!-- Node13&#45;&gt;Node14 -->
<g id="edge13_Node000013_Node000014" class="edge">
<title>Node13&#45;&gt;Node14</title>
<g id="a_edge13_Node000013_Node000014"><a xlink:title=" ">
<path fill="none" stroke="#63b8ff" d="M574.52,-47.42C588.44,-47.95 603.08,-48.51 617.35,-49.06"/>
<polygon fill="#63b8ff" stroke="#63b8ff" points="617.54,-52.57 627.66,-49.45 617.81,-45.57 617.54,-52.57"/>
</a>
</g>
</g>
<!-- Node18 -->
<g id="Node000018" class="node">
<title>Node18</title>
<g id="a_Node000018"><a xlink:href="classSceneObject.html#ad77f12eb793b32da2ef40f0042cb1de8" target="_top" xlink:title=" ">
<polygon fill="white" stroke="#666666" points="779,-19 638,-19 638,0 779,0 779,-19"/>
<text text-anchor="middle" x="708.5" y="-7" font-family="Helvetica,sans-Serif" font-size="10.00">SceneObject::getObjectID</text>
</a>
</g>
</g>
<!-- Node13&#45;&gt;Node18 -->
<g id="edge17_Node000013_Node000018" class="edge">
<title>Node13&#45;&gt;Node18</title>
<g id="a_edge17_Node000013_Node000018"><a xlink:title=" ">
<path fill="none" stroke="#63b8ff" d="M554.97,-34.98C581.41,-30.57 613.02,-25.28 640.58,-20.68"/>
<polygon fill="#63b8ff" stroke="#63b8ff" points="641.25,-24.12 650.54,-19.02 640.1,-17.21 641.25,-24.12"/>
</a>
</g>
</g>
<!-- Node15 -->
<g id="Node000015" class="node">
<title>Node15</title>
<g id="a_Node000015"><a xlink:href="classSceneManager.html#ab7c34393bb10361069b0ea73ec2797f8" target="_top" xlink:title=" ">
<polygon fill="white" stroke="#666666" points="1004,-80 825,-80 825,-61 1004,-61 1004,-80"/>
<text text-anchor="middle" x="914.5" y="-68" font-family="Helvetica,sans-Serif" font-size="10.00">SceneManager::removeDrawable</text>
</a>
</g>
</g>
<!-- Node14&#45;&gt;Node15 -->
<g id="edge14_Node000014_Node000015" class="edge">
<title>Node14&#45;&gt;Node15</title>
<g id="a_edge14_Node000014_Node000015"><a xlink:title=" ">
<path fill="none" stroke="#63b8ff" d="M789.25,-59.54C797.6,-60.27 806.16,-61.03 814.7,-61.78"/>
<polygon fill="#63b8ff" stroke="#63b8ff" points="814.42,-65.27 824.69,-62.66 815.03,-58.3 814.42,-65.27"/>
</a>
</g>
</g>
<!-- Node17 -->
<g id="Node000017" class="node">
<title>Node17</title>
<g id="a_Node000017"><a xlink:href="classSceneManager.html#a1c647e38474ee02d5dd8510bc2313c38" target="_top" xlink:title=" ">
<polygon fill="white" stroke="#666666" points="1001,-43 828,-43 828,-24 1001,-24 1001,-43"/>
<text text-anchor="middle" x="914.5" y="-31" font-family="Helvetica,sans-Serif" font-size="10.00">SceneManager::removePickable</text>
</a>
</g>
</g>
<!-- Node14&#45;&gt;Node17 -->
<g id="edge16_Node000014_Node000017" class="edge">
<title>Node14&#45;&gt;Node17</title>
<g id="a_edge16_Node000014_Node000017"><a xlink:title=" ">
<path fill="none" stroke="#63b8ff" d="M789.25,-45.07C798.52,-44.21 808.05,-43.32 817.52,-42.44"/>
<polygon fill="#63b8ff" stroke="#63b8ff" points="818.11,-45.9 827.74,-41.49 817.46,-38.93 818.11,-45.9"/>
</a>
</g>
</g>
<!-- Node16 -->
<g id="Node000016" class="node">
<title>Node16</title>
<g id="a_Node000016"><a xlink:href="classScene.html#a398bf0981ca0b3f5ade648b1d95513cc" target="_top" xlink:title=" ">
<polygon fill="white" stroke="#666666" points="1176,-80 1040,-80 1040,-61 1176,-61 1176,-80"/>
<text text-anchor="middle" x="1108" y="-68" font-family="Helvetica,sans-Serif" font-size="10.00">Scene::removeDrawable</text>
</a>
</g>
</g>
<!-- Node15&#45;&gt;Node16 -->
<g id="edge15_Node000015_Node000016" class="edge">
<title>Node15&#45;&gt;Node16</title>
<g id="a_edge15_Node000015_Node000016"><a xlink:title=" ">
<path fill="none" stroke="#63b8ff" d="M1004.24,-70.5C1012.73,-70.5 1021.29,-70.5 1029.65,-70.5"/>
<polygon fill="#63b8ff" stroke="#63b8ff" points="1029.74,-74 1039.74,-70.5 1029.74,-67 1029.74,-74"/>
</a>
</g>
</g>
</g>
</svg>

<g id="navigator" transform="translate(0 0)" fill="#404254">
  <rect fill="#f2f5e9" fill-opacity="0.5" stroke="#606060" stroke-width=".5" x="0" y="0" width="60" height="60"/>
  <use id="zoomplus" xlink:href="#zoomPlus" x="17" y="9" onmousedown="handleZoom(evt,'in')"/>
  <use id="zoomminus" xlink:href="#zoomMin" x="42" y="9" onmousedown="handleZoom(evt,'out')"/>
  <use id="reset" xlink:href="#resetDef" x="30" y="36" onmousedown="handleReset()"/>
   <use id="arrowup" xlink:href="#arrowUp" x="0" y="0" onmousedown="handlePan(0,-1)"/>
  <use id="arrowright" xlink:href="#arrowRight" x="0" y="0" onmousedown="handlePan(1,0)"/>
  <use id="arrowdown" xlink:href="#arrowDown" x="0" y="0" onmousedown="handlePan(0,1)"/>
  <use id="arrowleft" xlink:href="#arrowLeft" x="0" y="0" onmousedown="handlePan(-1,0)"/>
</g>
<svg viewBox="0 0 15 15" width="100%" height="30px" preserveAspectRatio="xMaxYMin meet">
 <g id="arrow_out" transform="scale(0.3 0.3)">
  <a xlink:href="classOpenGLWindow_a2a95d17daeae3447ca23d4e99c913b73_cgraph_org.svg" target="_base">
   <rect id="button" ry="5" rx="5" y="6" x="6" height="38" width="38"
        fill="#f2f5e9" fill-opacity="0.5" stroke="#606060" stroke-width="1.0"/>
   <path id="arrow"
     d="M 11.500037,31.436501 C 11.940474,20.09759 22.043105,11.32322 32.158766,21.979434 L 37.068811,17.246167 C 37.068811,17.246167 37.088388,32 37.088388,32 L 22.160133,31.978069 C 22.160133,31.978069 26.997745,27.140456 26.997745,27.140456 C 18.528582,18.264221 13.291696,25.230495 11.500037,31.436501 z"
     style="fill:#404040;"/>
  </a>
 </g>
</svg>

<style type='text/css'>
<![CDATA[
[data-mouse-over-selected='false'] { opacity: 0.7; }
[data-mouse-over-selected='true']  { opacity: 1.0; }
]]>
</style>
<script type="application/ecmascript"><![CDATA[
document.addEventListener('DOMContentLoaded', (event) => {
  highlightEdges();
  highlightAdjacentNodes();
});
]]></script>
</svg>
