<?xml version="1.0" encoding="UTF-8" standalone="no"?>
<!DOCTYPE svg PUBLIC "-//W3C//DTD SVG 1.1//EN"
 "http://www.w3.org/Graphics/SVG/1.1/DTD/svg11.dtd">
<!-- Generated by graphviz version 2.43.0 (0)
 -->
<!-- Title: SceneManager::selectedItem Pages: 1 -->
<svg width="1534pt" height="350pt"
 viewBox="0.00 0.00 1534.00 349.50" xmlns="http://www.w3.org/2000/svg" xmlns:xlink="http://www.w3.org/1999/xlink">
<g id="graph0" class="graph" transform="scale(1 1) rotate(0) translate(4 345.5)">
<title>SceneManager::selectedItem</title>
<!-- Node1 -->
<g id="Node000001" class="node">
<title>Node1</title>
<g id="a_Node000001"><a xlink:title=" ">
<polygon fill="#999999" stroke="#666666" points="1526,-218 1368,-218 1368,-199 1526,-199 1526,-218"/>
<text text-anchor="middle" x="1447" y="-206" font-family="Helvetica,sans-Serif" font-size="10.00">SceneManager::selectedItem</text>
</a>
</g>
</g>
<!-- Node2 -->
<g id="Node000002" class="node">
<title>Node2</title>
<g id="a_Node000002"><a xlink:href="classSceneManager.html#ac517c77baec7191a36898308818ebb5f" target="_top" xlink:title=" ">
<polygon fill="white" stroke="#666666" points="1141,-274.5 981,-274.5 981,-244.5 1141,-244.5 1141,-274.5"/>
<text text-anchor="start" x="989" y="-262.5" font-family="Helvetica,sans-Serif" font-size="10.00">SceneManager::handleMouse</text>
<text text-anchor="middle" x="1061" y="-251.5" font-family="Helvetica,sans-Serif" font-size="10.00">Button</text>
</a>
</g>
</g>
<!-- Node1&#45;&gt;Node2 -->
<g id="edge1_Node000001_Node000002" class="edge">
<title>Node1&#45;&gt;Node2</title>
<g id="a_edge1_Node000001_Node000002"><a xlink:title=" ">
<path fill="none" stroke="#63b8ff" d="M1364.29,-219.35C1298.37,-228.11 1206.22,-240.35 1141.03,-249"/>
<polygon fill="#63b8ff" stroke="#63b8ff" points="1364.77,-222.82 1374.22,-218.03 1363.85,-215.88 1364.77,-222.82"/>
</a>
</g>
</g>
<!-- Node5 -->
<g id="Node000005" class="node">
<title>Node5</title>
<g id="a_Node000005"><a xlink:href="classSceneManager.html#a63d3a08f13b314ed1d871f598f26534d" target="_top" xlink:title=" ">
<polygon fill="white" stroke="#666666" points="1138.5,-208 983.5,-208 983.5,-189 1138.5,-189 1138.5,-208"/>
<text text-anchor="middle" x="1061" y="-196" font-family="Helvetica,sans-Serif" font-size="10.00">SceneManager::selectObject</text>
</a>
</g>
</g>
<!-- Node1&#45;&gt;Node5 -->
<g id="edge4_Node000001_Node000005" class="edge">
<title>Node1&#45;&gt;Node5</title>
<g id="a_edge4_Node000001_Node000005"><a xlink:title=" ">
<path fill="none" stroke="#63b8ff" d="M1357.83,-206.2C1291.67,-204.48 1201.97,-202.15 1138.75,-200.5"/>
<polygon fill="#63b8ff" stroke="#63b8ff" points="1357.74,-209.7 1367.83,-206.46 1357.92,-202.71 1357.74,-209.7"/>
</a>
</g>
</g>
<!-- Node14 -->
<g id="Node000014" class="node">
<title>Node14</title>
<g id="a_Node000014"><a xlink:href="classSceneManager.html#af40d0ff3e76f89bbf5504f1694814179" target="_top" xlink:title=" ">
<polygon fill="white" stroke="#666666" points="1332,-180 1177,-180 1177,-161 1332,-161 1332,-180"/>
<text text-anchor="middle" x="1254.5" y="-168" font-family="Helvetica,sans-Serif" font-size="10.00">SceneManager::setSelectFor</text>
</a>
</g>
</g>
<!-- Node1&#45;&gt;Node14 -->
<g id="edge14_Node000001_Node000014" class="edge">
<title>Node1&#45;&gt;Node14</title>
<g id="a_edge14_Node000001_Node000014"><a xlink:title=" ">
<path fill="none" stroke="#63b8ff" d="M1387.8,-196.89C1360.71,-191.49 1328.87,-185.14 1303.23,-180.02"/>
<polygon fill="#63b8ff" stroke="#63b8ff" points="1387.44,-200.39 1397.93,-198.91 1388.81,-193.52 1387.44,-200.39"/>
</a>
</g>
</g>
<!-- Node3 -->
<g id="Node000003" class="node">
<title>Node3</title>
<g id="a_Node000003"><a xlink:href="classOpenGLWindow.html#a3db5152769ffded2ba4de8b6563c205a" target="_top" xlink:title=" ">
<polygon fill="white" stroke="#666666" points="935,-293.5 777,-293.5 777,-263.5 935,-263.5 935,-293.5"/>
<text text-anchor="start" x="785" y="-281.5" font-family="Helvetica,sans-Serif" font-size="10.00">OpenGLWindow::mousePress</text>
<text text-anchor="middle" x="856" y="-270.5" font-family="Helvetica,sans-Serif" font-size="10.00">Event</text>
</a>
</g>
</g>
<!-- Node2&#45;&gt;Node3 -->
<g id="edge2_Node000002_Node000003" class="edge">
<title>Node2&#45;&gt;Node3</title>
<g id="a_edge2_Node000002_Node000003"><a xlink:title=" ">
<path fill="none" stroke="#63b8ff" d="M970.63,-267.86C958.82,-268.97 946.79,-270.1 935.18,-271.18"/>
<polygon fill="#63b8ff" stroke="#63b8ff" points="971.3,-271.32 980.93,-266.9 970.65,-264.35 971.3,-271.32"/>
</a>
</g>
</g>
<!-- Node4 -->
<g id="Node000004" class="node">
<title>Node4</title>
<g id="a_Node000004"><a xlink:href="classOpenGLWindow.html#a2a95d17daeae3447ca23d4e99c913b73" target="_top" xlink:title=" ">
<polygon fill="white" stroke="#666666" points="941,-341.5 771,-341.5 771,-311.5 941,-311.5 941,-341.5"/>
<text text-anchor="start" x="779" y="-329.5" font-family="Helvetica,sans-Serif" font-size="10.00">OpenGLWindow::mouseRelease</text>
<text text-anchor="middle" x="856" y="-318.5" font-family="Helvetica,sans-Serif" font-size="10.00">Event</text>
</a>
</g>
</g>
<!-- Node2&#45;&gt;Node4 -->
<g id="edge3_Node000002_Node000004" class="edge">
<title>Node2&#45;&gt;Node4</title>
<g id="a_edge3_Node000002_Node000004"><a xlink:title=" ">
<path fill="none" stroke="#63b8ff" d="M1012.99,-278.19C992.29,-286.13 967.59,-295.21 945,-302.5 935.51,-305.56 925.35,-308.57 915.44,-311.37"/>
<polygon fill="#63b8ff" stroke="#63b8ff" points="1014.43,-281.38 1022.5,-274.52 1011.91,-274.86 1014.43,-281.38"/>
</a>
</g>
</g>
<!-- Node6 -->
<g id="Node000006" class="node">
<title>Node6</title>
<g id="a_Node000006"><a xlink:href="classSceneManager.html#a2c5088464b489b31f23e0791e2b9c0b0" target="_top" xlink:title=" ">
<polygon fill="white" stroke="#666666" points="932,-245 780,-245 780,-226 932,-226 932,-245"/>
<text text-anchor="middle" x="856" y="-233" font-family="Helvetica,sans-Serif" font-size="10.00">SceneManager::focusObject</text>
</a>
</g>
</g>
<!-- Node5&#45;&gt;Node6 -->
<g id="edge5_Node000005_Node000006" class="edge">
<title>Node5&#45;&gt;Node6</title>
<g id="a_edge5_Node000005_Node000006"><a xlink:title=" ">
<path fill="none" stroke="#63b8ff" d="M997.56,-209.88C969.34,-215.02 936.37,-221.03 909.45,-225.94"/>
<polygon fill="#63b8ff" stroke="#63b8ff" points="998.51,-213.26 1007.72,-208.03 997.26,-206.38 998.51,-213.26"/>
</a>
</g>
</g>
<!-- Node8 -->
<g id="Node000008" class="node">
<title>Node8</title>
<g id="a_Node000008"><a xlink:href="classSceneSerializer.html#a490f2bd87e7c9459ee47be974653b433" target="_top" xlink:title=" ">
<polygon fill="white" stroke="#666666" points="731,-148 567,-148 567,-129 731,-129 731,-148"/>
<text text-anchor="middle" x="649" y="-136" font-family="Helvetica,sans-Serif" font-size="10.00">SceneSerializer::loadFromJson</text>
</a>
</g>
</g>
<!-- Node5&#45;&gt;Node8 -->
<g id="edge7_Node000005_Node000008" class="edge">
<title>Node5&#45;&gt;Node8</title>
<g id="a_edge7_Node000005_Node000008"><a xlink:title=" ">
<path fill="none" stroke="#63b8ff" d="M989.91,-187.37C975.09,-185.06 959.53,-182.67 945,-180.5 867.62,-168.94 778.7,-156.38 718.88,-148.03"/>
<polygon fill="#63b8ff" stroke="#63b8ff" points="989.62,-190.87 1000.04,-188.95 990.7,-183.95 989.62,-190.87"/>
</a>
</g>
</g>
<!-- Node12 -->
<g id="Node000012" class="node">
<title>Node12</title>
<g id="a_Node000012"><a xlink:href="classSceneManager.html#ab469d1eea307d05b27433cb74231b4eb" target="_top" xlink:title=" ">
<polygon fill="white" stroke="#666666" points="945,-208 767,-208 767,-189 945,-189 945,-208"/>
<text text-anchor="middle" x="856" y="-196" font-family="Helvetica,sans-Serif" font-size="10.00">SceneManager::setCameraTarget</text>
</a>
</g>
</g>
<!-- Node5&#45;&gt;Node12 -->
<g id="edge11_Node000005_Node000012" class="edge">
<title>Node5&#45;&gt;Node12</title>
<g id="a_edge11_Node000005_Node000012"><a xlink:title=" ">
<path fill="none" stroke="#63b8ff" d="M973.23,-198.5C963.91,-198.5 954.42,-198.5 945.09,-198.5"/>
<polygon fill="#63b8ff" stroke="#63b8ff" points="973.25,-202 983.25,-198.5 973.25,-195 973.25,-202"/>
</a>
</g>
</g>
<!-- Node7 -->
<g id="Node000007" class="node">
<title>Node7</title>
<g id="a_Node000007"><a xlink:href="namespaceScenePresets_1_1Astronomy.html#a0b0e571c83bcdb2d16710b9425375b5f" target="_top" xlink:title=" ">
<polygon fill="white" stroke="#666666" points="719.5,-255.5 578.5,-255.5 578.5,-225.5 719.5,-225.5 719.5,-255.5"/>
<text text-anchor="start" x="586.5" y="-243.5" font-family="Helvetica,sans-Serif" font-size="10.00">ScenePresets::Astronomy</text>
<text text-anchor="middle" x="649" y="-232.5" font-family="Helvetica,sans-Serif" font-size="10.00">::createRealSolarSystem</text>
</a>
</g>
</g>
<!-- Node6&#45;&gt;Node7 -->
<g id="edge6_Node000006_Node000007" class="edge">
<title>Node6&#45;&gt;Node7</title>
<g id="a_edge6_Node000006_Node000007"><a xlink:title=" ">
<path fill="none" stroke="#63b8ff" d="M769.58,-237.58C752.97,-237.99 735.75,-238.41 719.72,-238.8"/>
<polygon fill="#63b8ff" stroke="#63b8ff" points="769.92,-241.08 779.83,-237.33 769.75,-234.08 769.92,-241.08"/>
</a>
</g>
</g>
<!-- Node9 -->
<g id="Node000009" class="node">
<title>Node9</title>
<g id="a_Node000009"><a xlink:href="classSceneManager.html#a7b7b0a022dcce523178e8414fb8e4463" target="_top" xlink:title=" ">
<polygon fill="white" stroke="#666666" points="531,-148 386,-148 386,-129 531,-129 531,-148"/>
<text text-anchor="middle" x="458.5" y="-136" font-family="Helvetica,sans-Serif" font-size="10.00">SceneManager::loadScene</text>
</a>
</g>
</g>
<!-- Node8&#45;&gt;Node9 -->
<g id="edge8_Node000008_Node000009" class="edge">
<title>Node8&#45;&gt;Node9</title>
<g id="a_edge8_Node000008_Node000009"><a xlink:title=" ">
<path fill="none" stroke="#63b8ff" d="M556.9,-138.5C548.29,-138.5 539.65,-138.5 531.26,-138.5"/>
<polygon fill="#63b8ff" stroke="#63b8ff" points="556.97,-142 566.97,-138.5 556.97,-135 556.97,-142"/>
</a>
</g>
</g>
<!-- Node10 -->
<g id="Node000010" class="node">
<title>Node10</title>
<g id="a_Node000010"><a xlink:href="classSceneManager.html#a59f13c06bf3f19d5e543502a0ddd0467" target="_top" xlink:title=" ">
<polygon fill="white" stroke="#666666" points="350,-148 172,-148 172,-129 350,-129 350,-148"/>
<text text-anchor="middle" x="261" y="-136" font-family="Helvetica,sans-Serif" font-size="10.00">SceneManager::processHeldKeys</text>
</a>
</g>
</g>
<!-- Node9&#45;&gt;Node10 -->
<g id="edge9_Node000009_Node000010" class="edge">
<title>Node9&#45;&gt;Node10</title>
<g id="a_edge9_Node000009_Node000010"><a xlink:title=" ">
<path fill="none" stroke="#63b8ff" d="M375.68,-138.5C367.3,-138.5 358.75,-138.5 350.3,-138.5"/>
<polygon fill="#63b8ff" stroke="#63b8ff" points="375.81,-142 385.81,-138.5 375.81,-135 375.81,-142"/>
</a>
</g>
</g>
<!-- Node11 -->
<g id="Node000011" class="node">
<title>Node11</title>
<g id="a_Node000011"><a xlink:href="classOpenGLWindow.html#aea9ee69010d8451ab00cd488a8c6717d" target="_top" xlink:title=" ">
<polygon fill="white" stroke="#666666" points="136,-148 0,-148 0,-129 136,-129 136,-148"/>
<text text-anchor="middle" x="68" y="-136" font-family="Helvetica,sans-Serif" font-size="10.00">OpenGLWindow::paintGL</text>
</a>
</g>
</g>
<!-- Node10&#45;&gt;Node11 -->
<g id="edge10_Node000010_Node000011" class="edge">
<title>Node10&#45;&gt;Node11</title>
<g id="a_edge10_Node000010_Node000011"><a xlink:title=" ">
<path fill="none" stroke="#63b8ff" d="M161.6,-138.5C152.94,-138.5 144.32,-138.5 136,-138.5"/>
<polygon fill="#63b8ff" stroke="#63b8ff" points="161.77,-142 171.77,-138.5 161.77,-135 161.77,-142"/>
</a>
</g>
</g>
<!-- Node12&#45;&gt;Node8 -->
<g id="edge12_Node000012_Node000008" class="edge">
<title>Node12&#45;&gt;Node8</title>
<g id="a_edge12_Node000012_Node000008"><a xlink:title=" ">
<path fill="none" stroke="#63b8ff" d="M809.3,-186.34C795.67,-182.63 780.71,-178.48 767,-174.5 737.4,-165.91 703.8,-155.5 680.22,-148.09"/>
<polygon fill="#63b8ff" stroke="#63b8ff" points="808.39,-189.72 818.96,-188.95 810.22,-182.96 808.39,-189.72"/>
</a>
</g>
</g>
<!-- Node13 -->
<g id="Node000013" class="node">
<title>Node13</title>
<g id="a_Node000013"><a xlink:href="classGlobalsInspectorWidget.html#ac983b68fcff61ff889660f3d93221072" target="_top" xlink:title=" ">
<polygon fill="white" stroke="#666666" points="715.5,-207.5 582.5,-207.5 582.5,-177.5 715.5,-177.5 715.5,-207.5"/>
<text text-anchor="start" x="590.5" y="-195.5" font-family="Helvetica,sans-Serif" font-size="10.00">GlobalsInspectorWidget</text>
<text text-anchor="middle" x="649" y="-184.5" font-family="Helvetica,sans-Serif" font-size="10.00">::runSolver</text>
</a>
</g>
</g>
<!-- Node12&#45;&gt;Node13 -->
<g id="edge13_Node000012_Node000013" class="edge">
<title>Node12&#45;&gt;Node13</title>
<g id="a_edge13_Node000012_Node000013"><a xlink:title=" ">
<path fill="none" stroke="#63b8ff" d="M756.78,-195.63C742.87,-195.22 728.85,-194.81 715.76,-194.42"/>
<polygon fill="#63b8ff" stroke="#63b8ff" points="756.77,-199.13 766.87,-195.92 756.98,-192.13 756.77,-199.13"/>
</a>
</g>
</g>
<!-- Node14&#45;&gt;Node2 -->
<g id="edge15_Node000014_Node000002" class="edge">
<title>Node14&#45;&gt;Node2</title>
<g id="a_edge15_Node000014_Node000002"><a xlink:title=" ">
<path fill="none" stroke="#63b8ff" d="M1223.76,-184.32C1188.7,-200.62 1130.63,-227.61 1094.43,-244.43"/>
<polygon fill="#63b8ff" stroke="#63b8ff" points="1225.41,-187.41 1233.01,-180.02 1222.46,-181.07 1225.41,-187.41"/>
</a>
</g>
</g>
<!-- Node14&#45;&gt;Node5 -->
<g id="edge21_Node000014_Node000005" class="edge">
<title>Node14&#45;&gt;Node5</title>
<g id="a_edge21_Node000014_Node000005"><a xlink:title=" ">
<path fill="none" stroke="#63b8ff" d="M1178.07,-181.53C1161.27,-183.99 1143.6,-186.57 1127.25,-188.96"/>
<polygon fill="#63b8ff" stroke="#63b8ff" points="1179.01,-184.93 1188.4,-180.02 1178,-178 1179.01,-184.93"/>
</a>
</g>
</g>
<!-- Node14&#45;&gt;Node8 -->
<g id="edge16_Node000014_Node000008" class="edge">
<title>Node14&#45;&gt;Node8</title>
<g id="a_edge16_Node000014_Node000008"><a xlink:title=" ">
<path fill="none" stroke="#63b8ff" d="M1166.72,-164.75C1104.91,-160.75 1019.87,-155.45 945,-151.5 872.69,-147.68 790.37,-144.12 731.09,-141.69"/>
<polygon fill="#63b8ff" stroke="#63b8ff" points="1166.61,-168.25 1176.82,-165.4 1167.07,-161.26 1166.61,-168.25"/>
</a>
</g>
</g>
<!-- Node15 -->
<g id="Node000015" class="node">
<title>Node15</title>
<g id="a_Node000015"><a xlink:href="classSceneManager.html#a8774b3322c2d86c6f1f2e0a8a9896af1" target="_top" xlink:title=" ">
<polygon fill="white" stroke="#666666" points="1135.5,-75 986.5,-75 986.5,-56 1135.5,-56 1135.5,-75"/>
<text text-anchor="middle" x="1061" y="-63" font-family="Helvetica,sans-Serif" font-size="10.00">SceneManager::resetScene</text>
</a>
</g>
</g>
<!-- Node14&#45;&gt;Node15 -->
<g id="edge17_Node000014_Node000015" class="edge">
<title>Node14&#45;&gt;Node15</title>
<g id="a_edge17_Node000014_Node000015"><a xlink:title=" ">
<path fill="none" stroke="#63b8ff" d="M1226.93,-155.8C1204.14,-143.22 1170.44,-124.62 1141,-108.5 1119.91,-96.95 1095.6,-83.73 1079.59,-75.04"/>
<polygon fill="#63b8ff" stroke="#63b8ff" points="1225.53,-159.03 1235.98,-160.81 1228.92,-152.91 1225.53,-159.03"/>
</a>
</g>
</g>
<!-- Node15&#45;&gt;Node8 -->
<g id="edge19_Node000015_Node000008" class="edge">
<title>Node15&#45;&gt;Node8</title>
<g id="a_edge19_Node000015_Node000008"><a xlink:title=" ">
<path fill="none" stroke="#63b8ff" d="M976.49,-75.38C917.65,-82.92 837.16,-94.4 767,-108.5 738.53,-114.22 706.62,-122.53 683.32,-128.96"/>
<polygon fill="#63b8ff" stroke="#63b8ff" points="977,-78.84 986.48,-74.11 976.12,-71.9 977,-78.84"/>
</a>
</g>
</g>
<!-- Node16 -->
<g id="Node000016" class="node">
<title>Node16</title>
<g id="a_Node000016"><a xlink:href="classSceneManager.html#acfea563d3849e3c8c09fc3febe9ae1e2" target="_top" xlink:title=" ">
<polygon fill="white" stroke="#666666" points="934.5,-56 777.5,-56 777.5,-37 934.5,-37 934.5,-56"/>
<text text-anchor="middle" x="856" y="-44" font-family="Helvetica,sans-Serif" font-size="10.00">SceneManager::defaultSetup</text>
</a>
</g>
</g>
<!-- Node15&#45;&gt;Node16 -->
<g id="edge18_Node000015_Node000016" class="edge">
<title>Node15&#45;&gt;Node16</title>
<g id="a_edge18_Node000015_Node000016"><a xlink:title=" ">
<path fill="none" stroke="#63b8ff" d="M976.07,-57.64C962.4,-56.36 948.29,-55.04 934.77,-53.78"/>
<polygon fill="#63b8ff" stroke="#63b8ff" points="976.14,-61.17 986.43,-58.61 976.8,-54.2 976.14,-61.17"/>
</a>
</g>
</g>
<!-- Node17 -->
<g id="Node000017" class="node">
<title>Node17</title>
<g id="a_Node000017"><a xlink:href="classSceneManager.html#ad9d648b5fb5a92c4612c640fc7cb47fb" target="_top" xlink:title=" ">
<polygon fill="white" stroke="#666666" points="929,-19 783,-19 783,0 929,0 929,-19"/>
<text text-anchor="middle" x="856" y="-7" font-family="Helvetica,sans-Serif" font-size="10.00">SceneManager::loadPreset</text>
</a>
</g>
</g>
<!-- Node15&#45;&gt;Node17 -->
<g id="edge20_Node000015_Node000017" class="edge">
<title>Node15&#45;&gt;Node17</title>
<g id="a_edge20_Node000015_Node000017"><a xlink:title=" ">
<path fill="none" stroke="#63b8ff" d="M1024.28,-52.49C1001.74,-44.59 971.9,-34.67 945,-27.5 933.4,-24.41 920.81,-21.55 908.89,-19.06"/>
<polygon fill="#63b8ff" stroke="#63b8ff" points="1023.18,-55.82 1033.77,-55.86 1025.52,-49.22 1023.18,-55.82"/>
</a>
</g>
</g>
</g>
</svg>
