<?xml version="1.0" encoding="UTF-8" standalone="no"?>
<!DOCTYPE svg PUBLIC "-//W3C//DTD SVG 1.1//EN"
 "http://www.w3.org/Graphics/SVG/1.1/DTD/svg11.dtd">
<!-- Generated by graphviz version 2.43.0 (0)
 -->
<!-- Title: Physics::PhysicsBody::getMass Pages: 1 -->
<svg width="547pt" height="298pt"
 viewBox="0.00 0.00 547.00 297.50" xmlns="http://www.w3.org/2000/svg" xmlns:xlink="http://www.w3.org/1999/xlink">
<g id="graph0" class="graph" transform="scale(1 1) rotate(0) translate(4 293.5)">
<title>Physics::PhysicsBody::getMass</title>
<!-- Node1 -->
<g id="Node000001" class="node">
<title>Node1</title>
<g id="a_Node000001"><a xlink:title=" ">
<polygon fill="#999999" stroke="#666666" points="539,-114 418,-114 418,-84 539,-84 539,-114"/>
<text text-anchor="start" x="426" y="-102" font-family="Helvetica,sans-Serif" font-size="10.00">Physics::PhysicsBody</text>
<text text-anchor="middle" x="478.5" y="-91" font-family="Helvetica,sans-Serif" font-size="10.00">::getMass</text>
</a>
</g>
</g>
<!-- Node2 -->
<g id="Node000002" class="node">
<title>Node2</title>
<g id="a_Node000002"><a xlink:href="classPhysics_1_1PhysicsSystem.html#a350570f0421c2bc6e762027b04c9775e" target="_top" xlink:title=" ">
<polygon fill="white" stroke="#666666" points="362,-181 229,-181 229,-151 362,-151 362,-181"/>
<text text-anchor="start" x="237" y="-169" font-family="Helvetica,sans-Serif" font-size="10.00">Physics::PhysicsSystem</text>
<text text-anchor="middle" x="295.5" y="-158" font-family="Helvetica,sans-Serif" font-size="10.00">::addBody</text>
</a>
</g>
</g>
<!-- Node1&#45;&gt;Node2 -->
<g id="edge1_Node000001_Node000002" class="edge">
<title>Node1&#45;&gt;Node2</title>
<g id="a_edge1_Node000001_Node000002"><a xlink:title=" ">
<path fill="none" stroke="#63b8ff" d="M435.35,-118.28C418.87,-125.51 399.71,-133.53 382,-140 371.51,-143.83 360.15,-147.57 349.25,-150.96"/>
<polygon fill="#63b8ff" stroke="#63b8ff" points="436.99,-121.39 444.71,-114.14 434.15,-114.99 436.99,-121.39"/>
</a>
</g>
</g>
<!-- Node10 -->
<g id="Node000010" class="node">
<title>Node10</title>
<g id="a_Node000010"><a xlink:href="classOctree.html#a041f0e7b806a25e0cd9f7aeb2242852b" target="_top" xlink:title=" ">
<polygon fill="white" stroke="#666666" points="357.5,-130.5 233.5,-130.5 233.5,-111.5 357.5,-111.5 357.5,-130.5"/>
<text text-anchor="middle" x="295.5" y="-118.5" font-family="Helvetica,sans-Serif" font-size="10.00">Octree::computeForce</text>
</a>
</g>
</g>
<!-- Node1&#45;&gt;Node10 -->
<g id="edge9_Node000001_Node000010" class="edge">
<title>Node1&#45;&gt;Node10</title>
<g id="a_edge9_Node000001_Node000010"><a xlink:title=" ">
<path fill="none" stroke="#63b8ff" d="M407.83,-107.47C391.27,-109.48 373.74,-111.61 357.6,-113.57"/>
<polygon fill="#63b8ff" stroke="#63b8ff" points="408.48,-110.92 417.98,-106.23 407.63,-103.97 408.48,-110.92"/>
</a>
</g>
</g>
<!-- Node11 -->
<g id="Node000011" class="node">
<title>Node11</title>
<g id="a_Node000011"><a xlink:href="classPhysics_1_1PointMass.html#a32dbe49764fdd24798577d9db54baff3" target="_top" xlink:title=" ">
<polygon fill="white" stroke="#666666" points="382,-93 209,-93 209,-63 382,-63 382,-93"/>
<text text-anchor="start" x="217" y="-81" font-family="Helvetica,sans-Serif" font-size="10.00">Physics::PointMass</text>
<text text-anchor="middle" x="295.5" y="-70" font-family="Helvetica,sans-Serif" font-size="10.00">::resolveCollisionWithPointMass</text>
</a>
</g>
</g>
<!-- Node1&#45;&gt;Node11 -->
<g id="edge10_Node000001_Node000011" class="edge">
<title>Node1&#45;&gt;Node11</title>
<g id="a_edge10_Node000001_Node000011"><a xlink:title=" ">
<path fill="none" stroke="#63b8ff" d="M407.9,-90.92C399.51,-89.95 390.87,-88.95 382.28,-87.95"/>
<polygon fill="#63b8ff" stroke="#63b8ff" points="407.65,-94.42 417.98,-92.09 408.45,-87.47 407.65,-94.42"/>
</a>
</g>
</g>
<!-- Node12 -->
<g id="Node000012" class="node">
<title>Node12</title>
<g id="a_Node000012"><a xlink:href="classPhysics_1_1RigidBody.html#ab4b4ea01aa74880550e9e1d91e6ed10d" target="_top" xlink:title=" ">
<polygon fill="white" stroke="#666666" points="382,-40 209,-40 209,-10 382,-10 382,-40"/>
<text text-anchor="start" x="217" y="-28" font-family="Helvetica,sans-Serif" font-size="10.00">Physics::RigidBody</text>
<text text-anchor="middle" x="295.5" y="-17" font-family="Helvetica,sans-Serif" font-size="10.00">::resolveCollisionWithPointMass</text>
</a>
</g>
</g>
<!-- Node1&#45;&gt;Node12 -->
<g id="edge11_Node000001_Node000012" class="edge">
<title>Node1&#45;&gt;Node12</title>
<g id="a_edge11_Node000001_Node000012"><a xlink:title=" ">
<path fill="none" stroke="#63b8ff" d="M438.62,-79.46C421.46,-71.15 400.93,-61.64 382,-54 369.79,-49.07 356.39,-44.25 343.89,-40.01"/>
<polygon fill="#63b8ff" stroke="#63b8ff" points="437.26,-82.68 447.78,-83.93 440.33,-76.4 437.26,-82.68"/>
</a>
</g>
</g>
<!-- Node3 -->
<g id="Node000003" class="node">
<title>Node3</title>
<g id="a_Node000003"><a xlink:href="PhysicsTests_8cpp.html#a370cb716ace9dbfe84f482760aea0d00" target="_top" xlink:title=" ">
<polygon fill="white" stroke="#666666" points="107,-289.5 66,-289.5 66,-270.5 107,-270.5 107,-289.5"/>
<text text-anchor="middle" x="86.5" y="-277.5" font-family="Helvetica,sans-Serif" font-size="10.00">TEST</text>
</a>
</g>
</g>
<!-- Node2&#45;&gt;Node3 -->
<g id="edge2_Node000002_Node000003" class="edge">
<title>Node2&#45;&gt;Node3</title>
<g id="a_edge2_Node000002_Node000003"><a xlink:title=" ">
<path fill="none" stroke="#63b8ff" d="M272.84,-188.34C250.06,-210.48 212.15,-243.66 173,-262 151.85,-271.91 125.2,-276.41 107.33,-278.42"/>
<polygon fill="#63b8ff" stroke="#63b8ff" points="275.32,-190.81 279.96,-181.29 270.39,-185.83 275.32,-190.81"/>
</a>
</g>
</g>
<!-- Node4 -->
<g id="Node000004" class="node">
<title>Node4</title>
<g id="a_Node000004"><a xlink:href="PhysicsTests_8cpp.html#a7c2a98ae0fe61e18c53dbbfc3dd2678d" target="_top" xlink:title=" ">
<polygon fill="white" stroke="#666666" points="107,-252.5 66,-252.5 66,-233.5 107,-233.5 107,-252.5"/>
<text text-anchor="middle" x="86.5" y="-240.5" font-family="Helvetica,sans-Serif" font-size="10.00">TEST</text>
</a>
</g>
</g>
<!-- Node2&#45;&gt;Node4 -->
<g id="edge3_Node000002_Node000004" class="edge">
<title>Node2&#45;&gt;Node4</title>
<g id="a_edge3_Node000002_Node000004"><a xlink:title=" ">
<path fill="none" stroke="#63b8ff" d="M259.3,-185.94C235.55,-198.68 203.16,-214.68 173,-225 151.04,-232.52 124.79,-237.48 107.22,-240.25"/>
<polygon fill="#63b8ff" stroke="#63b8ff" points="261.16,-188.92 268.28,-181.07 257.82,-182.77 261.16,-188.92"/>
</a>
</g>
</g>
<!-- Node5 -->
<g id="Node000005" class="node">
<title>Node5</title>
<g id="a_Node000005"><a xlink:href="PhysicsTests_8cpp.html#a6ef196198e91ed8297633a5002dd70e9" target="_top" xlink:title=" ">
<polygon fill="white" stroke="#666666" points="107,-215.5 66,-215.5 66,-196.5 107,-196.5 107,-215.5"/>
<text text-anchor="middle" x="86.5" y="-203.5" font-family="Helvetica,sans-Serif" font-size="10.00">TEST</text>
</a>
</g>
</g>
<!-- Node2&#45;&gt;Node5 -->
<g id="edge4_Node000002_Node000005" class="edge">
<title>Node2&#45;&gt;Node5</title>
<g id="a_edge4_Node000002_Node000005"><a xlink:title=" ">
<path fill="none" stroke="#63b8ff" d="M218.68,-180.65C178.63,-188.39 132.6,-197.28 107.1,-202.21"/>
<polygon fill="#63b8ff" stroke="#63b8ff" points="219.57,-184.04 228.72,-178.71 218.24,-177.17 219.57,-184.04"/>
</a>
</g>
</g>
<!-- Node6 -->
<g id="Node000006" class="node">
<title>Node6</title>
<g id="a_Node000006"><a xlink:href="PhysicsTests_8cpp.html#aaf9917cd74087c265f26822275a0cf9a" target="_top" xlink:title=" ">
<polygon fill="white" stroke="#666666" points="107,-178.5 66,-178.5 66,-159.5 107,-159.5 107,-178.5"/>
<text text-anchor="middle" x="86.5" y="-166.5" font-family="Helvetica,sans-Serif" font-size="10.00">TEST</text>
</a>
</g>
</g>
<!-- Node2&#45;&gt;Node6 -->
<g id="edge5_Node000002_Node000006" class="edge">
<title>Node2&#45;&gt;Node6</title>
<g id="a_edge5_Node000002_Node000006"><a xlink:title=" ">
<path fill="none" stroke="#63b8ff" d="M218.68,-167.1C178.63,-167.68 132.6,-168.35 107.1,-168.72"/>
<polygon fill="#63b8ff" stroke="#63b8ff" points="218.77,-170.6 228.72,-166.95 218.67,-163.6 218.77,-170.6"/>
</a>
</g>
</g>
<!-- Node7 -->
<g id="Node000007" class="node">
<title>Node7</title>
<g id="a_Node000007"><a xlink:href="PhysicsTests_8cpp.html#a556d37407360d92575b9fde9164b643a" target="_top" xlink:title=" ">
<polygon fill="white" stroke="#666666" points="107,-141.5 66,-141.5 66,-122.5 107,-122.5 107,-141.5"/>
<text text-anchor="middle" x="86.5" y="-129.5" font-family="Helvetica,sans-Serif" font-size="10.00">TEST</text>
</a>
</g>
</g>
<!-- Node2&#45;&gt;Node7 -->
<g id="edge6_Node000002_Node000007" class="edge">
<title>Node2&#45;&gt;Node7</title>
<g id="a_edge6_Node000002_Node000007"><a xlink:title=" ">
<path fill="none" stroke="#63b8ff" d="M218.68,-153.55C178.63,-146.97 132.6,-139.41 107.1,-135.22"/>
<polygon fill="#63b8ff" stroke="#63b8ff" points="218.28,-157.03 228.72,-155.2 219.42,-150.12 218.28,-157.03"/>
</a>
</g>
</g>
<!-- Node8 -->
<g id="Node000008" class="node">
<title>Node8</title>
<g id="a_Node000008"><a xlink:href="PhysicsTests_8cpp.html#a11092ab830efde715171fcf7ecf7a74c" target="_top" xlink:title=" ">
<polygon fill="white" stroke="#666666" points="107,-104.5 66,-104.5 66,-85.5 107,-85.5 107,-104.5"/>
<text text-anchor="middle" x="86.5" y="-92.5" font-family="Helvetica,sans-Serif" font-size="10.00">TEST</text>
</a>
</g>
</g>
<!-- Node2&#45;&gt;Node8 -->
<g id="edge7_Node000002_Node000008" class="edge">
<title>Node2&#45;&gt;Node8</title>
<g id="a_edge7_Node000002_Node000008"><a xlink:title=" ">
<path fill="none" stroke="#63b8ff" d="M225.78,-147.32C220.01,-145.09 214.34,-142.65 209,-140 191.32,-131.23 191,-122.09 173,-114 151.64,-104.41 125.04,-99.48 107.23,-97.08"/>
<polygon fill="#63b8ff" stroke="#63b8ff" points="224.96,-150.75 235.55,-150.89 227.36,-144.17 224.96,-150.75"/>
</a>
</g>
</g>
<!-- Node9 -->
<g id="Node000009" class="node">
<title>Node9</title>
<g id="a_Node000009"><a xlink:href="PhysicsTests_8cpp.html#ada313be6c07af4495c59c8be0af48e0c" target="_top" xlink:title=" ">
<polygon fill="white" stroke="#666666" points="107,-67.5 66,-67.5 66,-48.5 107,-48.5 107,-67.5"/>
<text text-anchor="middle" x="86.5" y="-55.5" font-family="Helvetica,sans-Serif" font-size="10.00">TEST</text>
</a>
</g>
</g>
<!-- Node2&#45;&gt;Node9 -->
<g id="edge8_Node000002_Node000009" class="edge">
<title>Node2&#45;&gt;Node9</title>
<g id="a_edge8_Node000002_Node000009"><a xlink:title=" ">
<path fill="none" stroke="#63b8ff" d="M219.74,-147.21C215.96,-145.06 212.34,-142.67 209,-140 183.79,-119.89 198.96,-96.13 173,-77 153.78,-62.84 125.98,-58.9 107.35,-57.97"/>
<polygon fill="#63b8ff" stroke="#63b8ff" points="218.35,-150.43 228.85,-151.79 221.49,-144.17 218.35,-150.43"/>
</a>
</g>
</g>
<!-- Node13 -->
<g id="Node000013" class="node">
<title>Node13</title>
<g id="a_Node000013"><a xlink:href="classPhysics_1_1PointMass.html#a2a9325bac8ed95540eeb66438de1045d" target="_top" xlink:title=" ">
<polygon fill="white" stroke="#666666" points="173,-30 0,-30 0,0 173,0 173,-30"/>
<text text-anchor="start" x="8" y="-18" font-family="Helvetica,sans-Serif" font-size="10.00">Physics::PointMass</text>
<text text-anchor="middle" x="86.5" y="-7" font-family="Helvetica,sans-Serif" font-size="10.00">::resolveCollisionWithRigidBody</text>
</a>
</g>
</g>
<!-- Node12&#45;&gt;Node13 -->
<g id="edge12_Node000012_Node000013" class="edge">
<title>Node12&#45;&gt;Node13</title>
<g id="a_edge12_Node000012_Node000013"><a xlink:title=" ">
<path fill="none" stroke="#63b8ff" d="M198.8,-20.38C190.24,-19.96 181.6,-19.55 173.12,-19.14"/>
<polygon fill="#63b8ff" stroke="#63b8ff" points="198.65,-23.87 208.81,-20.86 198.99,-16.88 198.65,-23.87"/>
</a>
</g>
</g>
</g>
</svg>
