<?xml version="1.0" encoding="UTF-8" standalone="no"?>
<!DOCTYPE svg PUBLIC "-//W3C//DTD SVG 1.1//EN"
 "http://www.w3.org/Graphics/SVG/1.1/DTD/svg11.dtd">
<!-- Generated by graphviz version 2.43.0 (0)
 -->
<!-- Title: Scene::draw Pages: 1 -->
<!--zoomable 582 -->

<svg id="main" version="1.1" xmlns="http://www.w3.org/2000/svg" xmlns:xlink="http://www.w3.org/1999/xlink" xml:space="preserve" onload="init(evt)">
<style type="text/css"><![CDATA[
.node, .edge {opacity: 0.7;}
.node.selected, .edge.selected {opacity: 1;}
.edge:hover path { stroke: red; }
.edge:hover polygon { stroke: red; fill: red; }
]]></style>

<defs>
  <circle id="rim" cx="0" cy="0" r="7"/>
  <circle id="rim2" cx="0" cy="0" r="3.5"/>
  <g id="zoomPlus">
    <use xlink:href="#rim" fill="#404040"><set attributeName="fill" to="#808080" begin="zoomplus.mouseover" end="zoomplus.mouseout"/></use>
    <path d="M-4,0h8M0,-4v8" fill="none" stroke="white" stroke-width="1.5" pointer-events="none"/>
  </g>
  <g id="zoomMin">
    <use xlink:href="#rim" fill="#404040"><set attributeName="fill" to="#808080" begin="zoomminus.mouseover" end="zoomminus.mouseout"/></use>
    <path d="M-4,0h8" fill="none" stroke="white" stroke-width="1.5" pointer-events="none"/>
  </g>
  <g id="arrowUp" transform="translate(30 24)">
    <use xlink:href="#rim"/>
    <path pointer-events="none" fill="none" stroke="white" stroke-width="1.5" d="M0,-3.0v7 M-2.5,-0.5L0,-3.0L2.5,-0.5"/>
  </g>
  <g id="arrowRight" transform="rotate(90) translate(36 -43)">
    <use xlink:href="#rim"/>
    <path pointer-events="none" fill="none" stroke="white" stroke-width="1.5" d="M0,-3.0v7 M-2.5,-0.5L0,-3.0L2.5,-0.5"/>
  </g>
  <g id="arrowDown" transform="rotate(180) translate(-30 -48)">
    <use xlink:href="#rim"/>
    <path pointer-events="none" fill="none" stroke="white" stroke-width="1.5" d="M0,-3.0v7 M-2.5,-0.5L0,-3.0L2.5,-0.5"/>
  </g>
  <g id="arrowLeft" transform="rotate(270) translate(-36 17)">
    <use xlink:href="#rim"/>
    <path pointer-events="none" fill="none" stroke="white" stroke-width="1.5" d="M0,-3.0v7 M-2.5,-0.5L0,-3.0L2.5,-0.5"/>
  </g>
  <g id="resetDef">
    <use xlink:href="#rim2" fill="#404040"><set attributeName="fill" to="#808080" begin="reset.mouseover" end="reset.mouseout"/></use>
  </g>
</defs>
<script type="application/ecmascript">
var viewWidth = 470;
var viewHeight = 582;
var sectionId = 'dynsection-2';
</script>
<script type="application/ecmascript" xlink:href="svg.min.js"/>
<svg id="graph" class="graph">
<g id="viewport">
<title>Scene::draw</title>
<!-- Node1 -->
<g id="Node000001" class="node">
<title>Node1</title>
<g id="a_Node000001"><a xlink:title=" ">
<polygon fill="#999999" stroke="#666666" points="76,-296 0,-296 0,-277 76,-277 76,-296"/>
<text text-anchor="middle" x="38" y="-284" font-family="Helvetica,sans-Serif" font-size="10.00">Scene::draw</text>
</a>
</g>
</g>
<!-- Node2 -->
<g id="Node000002" class="node">
<title>Node2</title>
<g id="a_Node000002"><a xlink:href="classSceneObject.html#a55121847afa67b03afa5a4a27922bde0" target="_top" xlink:title="Gets the complete per&#45;instance data for GPU upload.">
<polygon fill="white" stroke="#666666" points="280.5,-574 116.5,-574 116.5,-555 280.5,-555 280.5,-574"/>
<text text-anchor="middle" x="198.5" y="-562" font-family="Helvetica,sans-Serif" font-size="10.00">SceneObject::getInstanceData</text>
</a>
</g>
</g>
<!-- Node1&#45;&gt;Node2 -->
<g id="edge1_Node000001_Node000002" class="edge">
<title>Node1&#45;&gt;Node2</title>
<g id="a_edge1_Node000001_Node000002"><a xlink:title=" ">
<path fill="none" stroke="#63b8ff" d="M38.47,-296.04C36.91,-334.02 36.52,-475.86 112,-546.5 113,-547.43 114.03,-548.32 115.09,-549.17"/>
<polygon fill="#63b8ff" stroke="#63b8ff" points="113.53,-552.33 123.81,-554.89 117.37,-546.48 113.53,-552.33"/>
</a>
</g>
</g>
<!-- Node4 -->
<g id="Node000004" class="node">
<title>Node4</title>
<g id="a_Node000004"><a xlink:href="classSceneObject.html#ae86730acbd0a398e2a4d2473a2f52b8e" target="_top" xlink:title="Gets the mesh geometry for this object.">
<polygon fill="white" stroke="#666666" points="261,-537 136,-537 136,-518 261,-518 261,-537"/>
<text text-anchor="middle" x="198.5" y="-525" font-family="Helvetica,sans-Serif" font-size="10.00">SceneObject::getMesh</text>
</a>
</g>
</g>
<!-- Node1&#45;&gt;Node4 -->
<g id="edge3_Node000001_Node000004" class="edge">
<title>Node1&#45;&gt;Node4</title>
<g id="a_edge3_Node000001_Node000004"><a xlink:title=" ">
<path fill="none" stroke="#63b8ff" d="M38.98,-296.34C39.49,-331.29 46.18,-450.49 112,-509.5 116.24,-513.3 121.06,-516.37 126.22,-518.84"/>
<polygon fill="#63b8ff" stroke="#63b8ff" points="125.22,-522.21 135.8,-522.69 127.83,-515.72 125.22,-522.21"/>
</a>
</g>
</g>
<!-- Node5 -->
<g id="Node000005" class="node">
<title>Node5</title>
<g id="a_Node000005"><a xlink:href="classSceneObject.html#ab3595ced6ccce80d1e864bbf28e1988a" target="_top" xlink:title=" ">
<polygon fill="white" stroke="#666666" points="279,-500 118,-500 118,-481 279,-481 279,-500"/>
<text text-anchor="middle" x="198.5" y="-488" font-family="Helvetica,sans-Serif" font-size="10.00">SceneObject::getPhysicsBody</text>
</a>
</g>
</g>
<!-- Node1&#45;&gt;Node5 -->
<g id="edge4_Node000001_Node000005" class="edge">
<title>Node1&#45;&gt;Node5</title>
<g id="a_edge4_Node000001_Node000005"><a xlink:title=" ">
<path fill="none" stroke="#63b8ff" d="M39.67,-296.01C42.39,-326.79 55.32,-424.55 112,-472.5 113.35,-473.65 114.76,-474.72 116.22,-475.74"/>
<polygon fill="#63b8ff" stroke="#63b8ff" points="114.61,-478.85 125.01,-480.88 118.14,-472.81 114.61,-478.85"/>
</a>
</g>
</g>
<!-- Node6 -->
<g id="Node000006" class="node">
<title>Node6</title>
<g id="a_Node000006"><a xlink:href="classCamera.html#a1a29e1564468a5b612eb141c9d44170d" target="_top" xlink:title=" ">
<polygon fill="white" stroke="#666666" points="262,-463 135,-463 135,-444 262,-444 262,-463"/>
<text text-anchor="middle" x="198.5" y="-451" font-family="Helvetica,sans-Serif" font-size="10.00">Camera::getProjMatrix</text>
</a>
</g>
</g>
<!-- Node1&#45;&gt;Node6 -->
<g id="edge5_Node000001_Node000006" class="edge">
<title>Node1&#45;&gt;Node6</title>
<g id="a_edge5_Node000001_Node000006"><a xlink:title=" ">
<path fill="none" stroke="#63b8ff" d="M40.75,-296.37C46.08,-323.34 64.72,-398.7 112,-435.5 116.09,-438.68 120.6,-441.33 125.36,-443.54"/>
<polygon fill="#63b8ff" stroke="#63b8ff" points="124.17,-446.83 134.76,-447.26 126.75,-440.33 124.17,-446.83"/>
</a>
</g>
</g>
<!-- Node7 -->
<g id="Node000007" class="node">
<title>Node7</title>
<g id="a_Node000007"><a xlink:href="classSceneObject.html#a444efd8e0b34552d07e6dad15aaeba00" target="_top" xlink:title=" ">
<polygon fill="white" stroke="#666666" points="280,-426 117,-426 117,-407 280,-407 280,-426"/>
<text text-anchor="middle" x="198.5" y="-414" font-family="Helvetica,sans-Serif" font-size="10.00">SceneObject::getRenderOrigin</text>
</a>
</g>
</g>
<!-- Node1&#45;&gt;Node7 -->
<g id="edge6_Node000001_Node000007" class="edge">
<title>Node1&#45;&gt;Node7</title>
<g id="a_edge6_Node000001_Node000007"><a xlink:title=" ">
<path fill="none" stroke="#63b8ff" d="M42.33,-296.14C50.46,-318.13 73.5,-372.15 112,-398.5 114.14,-399.96 116.37,-401.31 118.67,-402.55"/>
<polygon fill="#63b8ff" stroke="#63b8ff" points="117.33,-405.79 127.87,-406.83 120.28,-399.44 117.33,-405.79"/>
</a>
</g>
</g>
<!-- Node8 -->
<g id="Node000008" class="node">
<title>Node8</title>
<g id="a_Node000008"><a xlink:href="classCamera.html#a716b2c31725fbfc7283417df06047bb9" target="_top" xlink:title=" ">
<polygon fill="white" stroke="#666666" points="282,-389 115,-389 115,-370 282,-370 282,-389"/>
<text text-anchor="middle" x="198.5" y="-377" font-family="Helvetica,sans-Serif" font-size="10.00">Camera::getRenderViewMatrix</text>
</a>
</g>
</g>
<!-- Node1&#45;&gt;Node8 -->
<g id="edge7_Node000001_Node000008" class="edge">
<title>Node1&#45;&gt;Node8</title>
<g id="a_edge7_Node000001_Node000008"><a xlink:title=" ">
<path fill="none" stroke="#63b8ff" d="M45.38,-296.08C56.73,-312.3 82.07,-345.03 112,-361.5 115.32,-363.33 118.8,-364.97 122.39,-366.44"/>
<polygon fill="#63b8ff" stroke="#63b8ff" points="121.48,-369.84 132.08,-369.97 123.88,-363.26 121.48,-369.84"/>
</a>
</g>
</g>
<!-- Node9 -->
<g id="Node000009" class="node">
<title>Node9</title>
<g id="a_Node000009"><a xlink:href="classSceneObject.html#a80f6133afc5bdf8f4d5d560995c9718a" target="_top" xlink:title="Gets the shader used to render this object.">
<polygon fill="white" stroke="#666666" points="265,-352 132,-352 132,-333 265,-333 265,-352"/>
<text text-anchor="middle" x="198.5" y="-340" font-family="Helvetica,sans-Serif" font-size="10.00">SceneObject::getShader</text>
</a>
</g>
</g>
<!-- Node1&#45;&gt;Node9 -->
<g id="edge8_Node000001_Node000009" class="edge">
<title>Node1&#45;&gt;Node9</title>
<g id="a_edge8_Node000001_Node000009"><a xlink:title=" ">
<path fill="none" stroke="#63b8ff" d="M54.39,-296.09C68.79,-304.68 91.15,-317.04 112,-324.5 118.24,-326.73 124.83,-328.73 131.49,-330.5"/>
<polygon fill="#63b8ff" stroke="#63b8ff" points="130.69,-333.91 141.24,-332.94 132.39,-327.12 130.69,-333.91"/>
</a>
</g>
</g>
<!-- Node10 -->
<g id="Node000010" class="node">
<title>Node10</title>
<g id="a_Node000010"><a xlink:href="classCamera.html#a962f895654dc24f21502b5141368c4d3" target="_top" xlink:title=" ">
<polygon fill="white" stroke="#666666" points="252,-315 145,-315 145,-296 252,-296 252,-315"/>
<text text-anchor="middle" x="198.5" y="-303" font-family="Helvetica,sans-Serif" font-size="10.00">Camera::getTarget</text>
</a>
</g>
</g>
<!-- Node1&#45;&gt;Node10 -->
<g id="edge9_Node000001_Node000010" class="edge">
<title>Node1&#45;&gt;Node10</title>
<g id="a_edge9_Node000001_Node000010"><a xlink:title=" ">
<path fill="none" stroke="#63b8ff" d="M76.16,-290.95C93.69,-293.06 115.1,-295.62 135.02,-298.01"/>
<polygon fill="#63b8ff" stroke="#63b8ff" points="134.62,-301.49 144.97,-299.2 135.46,-294.54 134.62,-301.49"/>
</a>
</g>
</g>
<!-- Node11 -->
<g id="Node000011" class="node">
<title>Node11</title>
<g id="a_Node000011"><a xlink:href="classCamera.html#a2f90e661a78172675ca06ea69667b531" target="_top" xlink:title=" ">
<polygon fill="white" stroke="#666666" points="264.5,-278 132.5,-278 132.5,-259 264.5,-259 264.5,-278"/>
<text text-anchor="middle" x="198.5" y="-266" font-family="Helvetica,sans-Serif" font-size="10.00">Camera::getViewMatrix</text>
</a>
</g>
</g>
<!-- Node1&#45;&gt;Node11 -->
<g id="edge10_Node000001_Node000011" class="edge">
<title>Node1&#45;&gt;Node11</title>
<g id="a_edge10_Node000001_Node000011"><a xlink:title=" ">
<path fill="none" stroke="#63b8ff" d="M76.16,-282.28C90.03,-280.71 106.32,-278.86 122.38,-277.03"/>
<polygon fill="#63b8ff" stroke="#63b8ff" points="122.78,-280.51 132.33,-275.9 121.99,-273.55 122.78,-280.51"/>
</a>
</g>
</g>
<!-- Node12 -->
<g id="Node000012" class="node">
<title>Node12</title>
<g id="a_Node000012"><a xlink:href="classCamera.html#aaa52da46bef8a559e3cf79c8334f753e" target="_top" xlink:title=" ">
<polygon fill="white" stroke="#666666" points="252.5,-241 144.5,-241 144.5,-222 252.5,-222 252.5,-241"/>
<text text-anchor="middle" x="198.5" y="-229" font-family="Helvetica,sans-Serif" font-size="10.00">Camera::hasTarget</text>
</a>
</g>
</g>
<!-- Node1&#45;&gt;Node12 -->
<g id="edge11_Node000001_Node000012" class="edge">
<title>Node1&#45;&gt;Node12</title>
<g id="a_edge11_Node000001_Node000012"><a xlink:title=" ">
<path fill="none" stroke="#63b8ff" d="M55.61,-276.87C70.09,-268.84 91.87,-257.58 112,-250.5 119.36,-247.91 127.21,-245.59 135.05,-243.55"/>
<polygon fill="#63b8ff" stroke="#63b8ff" points="136.08,-246.9 144.94,-241.1 134.4,-240.1 136.08,-246.9"/>
</a>
</g>
</g>
<!-- Node13 -->
<g id="Node000013" class="node">
<title>Node13</title>
<g id="a_Node000013"><a xlink:href="classCamera.html#a3365648721a971862141153e5730754a" target="_top" xlink:title=" ">
<polygon fill="white" stroke="#666666" points="261,-204 136,-204 136,-185 261,-185 261,-204"/>
<text text-anchor="middle" x="198.5" y="-192" font-family="Helvetica,sans-Serif" font-size="10.00">Camera::setClipRange</text>
</a>
</g>
</g>
<!-- Node1&#45;&gt;Node13 -->
<g id="edge12_Node000001_Node000013" class="edge">
<title>Node1&#45;&gt;Node13</title>
<g id="a_edge12_Node000001_Node000013"><a xlink:title=" ">
<path fill="none" stroke="#63b8ff" d="M45.65,-276.96C57.21,-261.15 82.62,-229.63 112,-213.5 116.47,-211.05 121.23,-208.91 126.14,-207.05"/>
<polygon fill="#63b8ff" stroke="#63b8ff" points="127.36,-210.33 135.7,-203.8 125.11,-203.7 127.36,-210.33"/>
</a>
</g>
</g>
<!-- Node14 -->
<g id="Node000014" class="node">
<title>Node14</title>
<g id="a_Node000014"><a xlink:href="classSceneObject.html#ac01ac7731712baaeb3173a2a7e3f151a" target="_top" xlink:title=" ">
<polygon fill="white" stroke="#666666" points="285,-167 112,-167 112,-148 285,-148 285,-167"/>
<text text-anchor="middle" x="198.5" y="-155" font-family="Helvetica,sans-Serif" font-size="10.00">SceneObject::setPhysicsPosMap</text>
</a>
</g>
</g>
<!-- Node1&#45;&gt;Node14 -->
<g id="edge13_Node000001_Node000014" class="edge">
<title>Node1&#45;&gt;Node14</title>
<g id="a_edge13_Node000001_Node000014"><a xlink:title=" ">
<path fill="none" stroke="#63b8ff" d="M42.53,-276.74C50.91,-254.99 74.21,-202.45 112,-176.5 114.91,-174.5 117.99,-172.71 121.2,-171.1"/>
<polygon fill="#63b8ff" stroke="#63b8ff" points="122.73,-174.26 130.49,-167.05 119.93,-167.84 122.73,-174.26"/>
</a>
</g>
</g>
<!-- Node15 -->
<g id="Node000015" class="node">
<title>Node15</title>
<g id="a_Node000015"><a xlink:href="classSceneObject.html#acabdda3760407bdba426ac3d4488159f" target="_top" xlink:title=" ">
<polygon fill="white" stroke="#666666" points="279.5,-130 117.5,-130 117.5,-111 279.5,-111 279.5,-130"/>
<text text-anchor="middle" x="198.5" y="-118" font-family="Helvetica,sans-Serif" font-size="10.00">SceneObject::setRenderOrigin</text>
</a>
</g>
</g>
<!-- Node1&#45;&gt;Node15 -->
<g id="edge14_Node000001_Node000015" class="edge">
<title>Node1&#45;&gt;Node15</title>
<g id="a_edge14_Node000001_Node000015"><a xlink:title=" ">
<path fill="none" stroke="#63b8ff" d="M40.82,-276.79C46.31,-250.24 65.33,-176.04 112,-139.5 114.3,-137.7 116.74,-136.06 119.28,-134.57"/>
<polygon fill="#63b8ff" stroke="#63b8ff" points="120.9,-137.68 128.26,-130.06 117.76,-131.42 120.9,-137.68"/>
</a>
</g>
</g>
<!-- Node16 -->
<g id="Node000016" class="node">
<title>Node16</title>
<g id="a_Node000016"><a xlink:href="classCamera.html#a2c9b1877741ae1f8777b91446af61ac0" target="_top" xlink:title=" ">
<polygon fill="white" stroke="#666666" points="246,-93 151,-93 151,-74 246,-74 246,-93"/>
<text text-anchor="middle" x="198.5" y="-81" font-family="Helvetica,sans-Serif" font-size="10.00">Camera::update</text>
</a>
</g>
</g>
<!-- Node1&#45;&gt;Node16 -->
<g id="edge15_Node000001_Node000016" class="edge">
<title>Node1&#45;&gt;Node16</title>
<g id="a_edge15_Node000001_Node000016"><a xlink:title=" ">
<path fill="none" stroke="#63b8ff" d="M39.77,-276.69C42.75,-245.83 56.29,-149.99 112,-102.5 120.16,-95.55 130.3,-90.98 140.72,-88.02"/>
<polygon fill="#63b8ff" stroke="#63b8ff" points="141.82,-91.36 150.74,-85.64 140.2,-84.55 141.82,-91.36"/>
</a>
</g>
</g>
<!-- Node18 -->
<g id="Node000018" class="node">
<title>Node18</title>
<g id="a_Node000018"><a xlink:href="classUniformBuffer.html#ab8c80840cb69d51f92ef35365deb47ef" target="_top" xlink:title=" ">
<polygon fill="white" stroke="#666666" points="273,-56 124,-56 124,-37 273,-37 273,-56"/>
<text text-anchor="middle" x="198.5" y="-44" font-family="Helvetica,sans-Serif" font-size="10.00">UniformBuffer::updateData</text>
</a>
</g>
</g>
<!-- Node1&#45;&gt;Node18 -->
<g id="edge17_Node000001_Node000018" class="edge">
<title>Node1&#45;&gt;Node18</title>
<g id="a_edge17_Node000001_Node000018"><a xlink:title=" ">
<path fill="none" stroke="#63b8ff" d="M39.04,-276.77C39.73,-242.21 46.97,-124.31 112,-65.5 113.7,-63.97 115.49,-62.55 117.36,-61.24"/>
<polygon fill="#63b8ff" stroke="#63b8ff" points="119.17,-64.23 126,-56.14 115.61,-58.2 119.17,-64.23"/>
</a>
</g>
</g>
<!-- Node19 -->
<g id="Node000019" class="node">
<title>Node19</title>
<g id="a_Node000019"><a xlink:href="classShader.html#a3c7896754f0e1fca8bde860cfef63832" target="_top" xlink:title=" ">
<polygon fill="white" stroke="#666666" points="235.5,-19 161.5,-19 161.5,0 235.5,0 235.5,-19"/>
<text text-anchor="middle" x="198.5" y="-7" font-family="Helvetica,sans-Serif" font-size="10.00">Shader::use</text>
</a>
</g>
</g>
<!-- Node1&#45;&gt;Node19 -->
<g id="edge18_Node000001_Node000019" class="edge">
<title>Node1&#45;&gt;Node19</title>
<g id="a_edge18_Node000001_Node000019"><a xlink:title=" ">
<path fill="none" stroke="#63b8ff" d="M38.51,-276.8C37.15,-238.82 37.55,-98.82 112,-28.5 122.5,-18.59 136.97,-13.41 151.02,-10.83"/>
<polygon fill="#63b8ff" stroke="#63b8ff" points="151.72,-14.26 161.12,-9.37 150.72,-7.33 151.72,-14.26"/>
</a>
</g>
</g>
<!-- Node3 -->
<g id="Node000003" class="node">
<title>Node3</title>
<g id="a_Node000003"><a xlink:href="classSceneObject.html#ad77f12eb793b32da2ef40f0042cb1de8" target="_top" xlink:title="Gets the unique identifier for this object.">
<polygon fill="white" stroke="#666666" points="462,-574 321,-574 321,-555 462,-555 462,-574"/>
<text text-anchor="middle" x="391.5" y="-562" font-family="Helvetica,sans-Serif" font-size="10.00">SceneObject::getObjectID</text>
</a>
</g>
</g>
<!-- Node2&#45;&gt;Node3 -->
<g id="edge2_Node000002_Node000003" class="edge">
<title>Node2&#45;&gt;Node3</title>
<g id="a_edge2_Node000002_Node000003"><a xlink:title=" ">
<path fill="none" stroke="#63b8ff" d="M280.5,-564.5C290.46,-564.5 300.64,-564.5 310.58,-564.5"/>
<polygon fill="#63b8ff" stroke="#63b8ff" points="310.84,-568 320.84,-564.5 310.84,-561 310.84,-568"/>
</a>
</g>
</g>
<!-- Node17 -->
<g id="Node000017" class="node">
<title>Node17</title>
<g id="a_Node000017"><a xlink:href="classSceneObject.html#a3d1aa613dd4f4ee6947754a355a48cc9" target="_top" xlink:title=" ">
<polygon fill="white" stroke="#666666" points="460.5,-93 322.5,-93 322.5,-74 460.5,-74 460.5,-93"/>
<text text-anchor="middle" x="391.5" y="-81" font-family="Helvetica,sans-Serif" font-size="10.00">SceneObject::getPosition</text>
</a>
</g>
</g>
<!-- Node16&#45;&gt;Node17 -->
<g id="edge16_Node000016_Node000017" class="edge">
<title>Node16&#45;&gt;Node17</title>
<g id="a_edge16_Node000016_Node000017"><a xlink:title=" ">
<path fill="none" stroke="#63b8ff" d="M246.22,-83.5C266.05,-83.5 289.71,-83.5 312.07,-83.5"/>
<polygon fill="#63b8ff" stroke="#63b8ff" points="312.24,-87 322.24,-83.5 312.24,-80 312.24,-87"/>
</a>
</g>
</g>
</g>
</svg>

<g id="navigator" transform="translate(0 0)" fill="#404254">
  <rect fill="#f2f5e9" fill-opacity="0.5" stroke="#606060" stroke-width=".5" x="0" y="0" width="60" height="60"/>
  <use id="zoomplus" xlink:href="#zoomPlus" x="17" y="9" onmousedown="handleZoom(evt,'in')"/>
  <use id="zoomminus" xlink:href="#zoomMin" x="42" y="9" onmousedown="handleZoom(evt,'out')"/>
  <use id="reset" xlink:href="#resetDef" x="30" y="36" onmousedown="handleReset()"/>
   <use id="arrowup" xlink:href="#arrowUp" x="0" y="0" onmousedown="handlePan(0,-1)"/>
  <use id="arrowright" xlink:href="#arrowRight" x="0" y="0" onmousedown="handlePan(1,0)"/>
  <use id="arrowdown" xlink:href="#arrowDown" x="0" y="0" onmousedown="handlePan(0,1)"/>
  <use id="arrowleft" xlink:href="#arrowLeft" x="0" y="0" onmousedown="handlePan(-1,0)"/>
</g>
<svg viewBox="0 0 15 15" width="100%" height="30px" preserveAspectRatio="xMaxYMin meet">
 <g id="arrow_out" transform="scale(0.3 0.3)">
  <a xlink:href="classScene_af5512c90d05801f27028975d6a898e6b_cgraph_org.svg" target="_base">
   <rect id="button" ry="5" rx="5" y="6" x="6" height="38" width="38"
        fill="#f2f5e9" fill-opacity="0.5" stroke="#606060" stroke-width="1.0"/>
   <path id="arrow"
     d="M 11.500037,31.436501 C 11.940474,20.09759 22.043105,11.32322 32.158766,21.979434 L 37.068811,17.246167 C 37.068811,17.246167 37.088388,32 37.088388,32 L 22.160133,31.978069 C 22.160133,31.978069 26.997745,27.140456 26.997745,27.140456 C 18.528582,18.264221 13.291696,25.230495 11.500037,31.436501 z"
     style="fill:#404040;"/>
  </a>
 </g>
</svg>

<style type='text/css'>
<![CDATA[
[data-mouse-over-selected='false'] { opacity: 0.7; }
[data-mouse-over-selected='true']  { opacity: 1.0; }
]]>
</style>
<script type="application/ecmascript"><![CDATA[
document.addEventListener('DOMContentLoaded', (event) => {
  highlightEdges();
  highlightAdjacentNodes();
});
]]></script>
</svg>
