<?xml version="1.0" encoding="UTF-8" standalone="no"?>
<!DOCTYPE svg PUBLIC "-//W3C//DTD SVG 1.1//EN"
 "http://www.w3.org/Graphics/SVG/1.1/DTD/svg11.dtd">
<!-- Generated by graphviz version 2.43.0 (0)
 -->
<!-- Title: OpenGLWindow::mousePressEvent Pages: 1 -->
<!--zoomable 409 -->

<svg id="main" version="1.1" xmlns="http://www.w3.org/2000/svg" xmlns:xlink="http://www.w3.org/1999/xlink" xml:space="preserve" onload="init(evt)">
<style type="text/css"><![CDATA[
.node, .edge {opacity: 0.7;}
.node.selected, .edge.selected {opacity: 1;}
.edge:hover path { stroke: red; }
.edge:hover polygon { stroke: red; fill: red; }
]]></style>

<defs>
  <circle id="rim" cx="0" cy="0" r="7"/>
  <circle id="rim2" cx="0" cy="0" r="3.5"/>
  <g id="zoomPlus">
    <use xlink:href="#rim" fill="#404040"><set attributeName="fill" to="#808080" begin="zoomplus.mouseover" end="zoomplus.mouseout"/></use>
    <path d="M-4,0h8M0,-4v8" fill="none" stroke="white" stroke-width="1.5" pointer-events="none"/>
  </g>
  <g id="zoomMin">
    <use xlink:href="#rim" fill="#404040"><set attributeName="fill" to="#808080" begin="zoomminus.mouseover" end="zoomminus.mouseout"/></use>
    <path d="M-4,0h8" fill="none" stroke="white" stroke-width="1.5" pointer-events="none"/>
  </g>
  <g id="arrowUp" transform="translate(30 24)">
    <use xlink:href="#rim"/>
    <path pointer-events="none" fill="none" stroke="white" stroke-width="1.5" d="M0,-3.0v7 M-2.5,-0.5L0,-3.0L2.5,-0.5"/>
  </g>
  <g id="arrowRight" transform="rotate(90) translate(36 -43)">
    <use xlink:href="#rim"/>
    <path pointer-events="none" fill="none" stroke="white" stroke-width="1.5" d="M0,-3.0v7 M-2.5,-0.5L0,-3.0L2.5,-0.5"/>
  </g>
  <g id="arrowDown" transform="rotate(180) translate(-30 -48)">
    <use xlink:href="#rim"/>
    <path pointer-events="none" fill="none" stroke="white" stroke-width="1.5" d="M0,-3.0v7 M-2.5,-0.5L0,-3.0L2.5,-0.5"/>
  </g>
  <g id="arrowLeft" transform="rotate(270) translate(-36 17)">
    <use xlink:href="#rim"/>
    <path pointer-events="none" fill="none" stroke="white" stroke-width="1.5" d="M0,-3.0v7 M-2.5,-0.5L0,-3.0L2.5,-0.5"/>
  </g>
  <g id="resetDef">
    <use xlink:href="#rim2" fill="#404040"><set attributeName="fill" to="#808080" begin="reset.mouseover" end="reset.mouseout"/></use>
  </g>
</defs>
<script type="application/ecmascript">
var viewWidth = 1172;
var viewHeight = 409;
var sectionId = 'dynsection-8';
</script>
<script type="application/ecmascript" xlink:href="svg.min.js"/>
<svg id="graph" class="graph">
<g id="viewport">
<title>OpenGLWindow::mousePressEvent</title>
<!-- Node1 -->
<g id="Node000001" class="node">
<title>Node1</title>
<g id="a_Node000001"><a xlink:title=" ">
<polygon fill="#999999" stroke="#666666" points="158,-227.5 0,-227.5 0,-197.5 158,-197.5 158,-227.5"/>
<text text-anchor="start" x="8" y="-215.5" font-family="Helvetica,sans-Serif" font-size="10.00">OpenGLWindow::mousePress</text>
<text text-anchor="middle" x="79" y="-204.5" font-family="Helvetica,sans-Serif" font-size="10.00">Event</text>
</a>
</g>
</g>
<!-- Node2 -->
<g id="Node000002" class="node">
<title>Node2</title>
<g id="a_Node000002"><a xlink:href="classSceneManager.html#ac517c77baec7191a36898308818ebb5f" target="_top" xlink:title=" ">
<polygon fill="white" stroke="#666666" points="354,-227.5 194,-227.5 194,-197.5 354,-197.5 354,-227.5"/>
<text text-anchor="start" x="202" y="-215.5" font-family="Helvetica,sans-Serif" font-size="10.00">SceneManager::handleMouse</text>
<text text-anchor="middle" x="274" y="-204.5" font-family="Helvetica,sans-Serif" font-size="10.00">Button</text>
</a>
</g>
</g>
<!-- Node1&#45;&gt;Node2 -->
<g id="edge1_Node000001_Node000002" class="edge">
<title>Node1&#45;&gt;Node2</title>
<g id="a_edge1_Node000001_Node000002"><a xlink:title=" ">
<path fill="none" stroke="#63b8ff" d="M158.22,-212.5C166.54,-212.5 175.05,-212.5 183.49,-212.5"/>
<polygon fill="#63b8ff" stroke="#63b8ff" points="183.73,-216 193.72,-212.5 183.72,-209 183.73,-216"/>
</a>
</g>
</g>
<!-- Node3 -->
<g id="Node000003" class="node">
<title>Node3</title>
<g id="a_Node000003"><a xlink:href="classSceneManager.html#a12c57c5dbb78e8d6365adb723ea0aef3" target="_top" xlink:title=" ">
<polygon fill="white" stroke="#666666" points="564,-400.5 406,-400.5 406,-370.5 564,-370.5 564,-400.5"/>
<text text-anchor="start" x="414" y="-388.5" font-family="Helvetica,sans-Serif" font-size="10.00">SceneManager::contextMenu</text>
<text text-anchor="middle" x="485" y="-377.5" font-family="Helvetica,sans-Serif" font-size="10.00">Requested</text>
</a>
</g>
</g>
<!-- Node2&#45;&gt;Node3 -->
<g id="edge2_Node000002_Node000003" class="edge">
<title>Node2&#45;&gt;Node3</title>
<g id="a_edge2_Node000002_Node000003"><a xlink:title=" ">
<path fill="none" stroke="#63b8ff" d="M282.41,-227.88C297.9,-258.36 336.76,-326.49 390,-361.5 392.44,-363.11 394.98,-364.6 397.6,-366"/>
<polygon fill="#63b8ff" stroke="#63b8ff" points="396.22,-369.22 406.75,-370.38 399.24,-362.91 396.22,-369.22"/>
</a>
</g>
</g>
<!-- Node4 -->
<g id="Node000004" class="node">
<title>Node4</title>
<g id="a_Node000004"><a xlink:href="namespaceMathUtils.html#a7d6217935b41ba3779f018f833a0c119" target="_top" xlink:title="Finds the first object intersected by a ray.">
<polygon fill="white" stroke="#666666" points="546.5,-352 423.5,-352 423.5,-333 546.5,-333 546.5,-352"/>
<text text-anchor="middle" x="485" y="-340" font-family="Helvetica,sans-Serif" font-size="10.00">MathUtils::findFirstHit</text>
</a>
</g>
</g>
<!-- Node2&#45;&gt;Node4 -->
<g id="edge3_Node000002_Node000004" class="edge">
<title>Node2&#45;&gt;Node4</title>
<g id="a_edge3_Node000002_Node000004"><a xlink:title=" ">
<path fill="none" stroke="#63b8ff" d="M285.78,-227.67C304.16,-252.27 344.04,-300.53 390,-324.5 397.23,-328.27 405.14,-331.25 413.2,-333.62"/>
<polygon fill="#63b8ff" stroke="#63b8ff" points="412.52,-337.06 423.08,-336.2 414.29,-330.29 412.52,-337.06"/>
</a>
</g>
</g>
<!-- Node5 -->
<g id="Node000005" class="node">
<title>Node5</title>
<g id="a_Node000005"><a xlink:href="classScene.html#a8ec1e638529f69f716e791ba3ac4d2f7" target="_top" xlink:title=" ">
<polygon fill="white" stroke="#666666" points="538,-315 432,-315 432,-296 538,-296 538,-315"/>
<text text-anchor="middle" x="485" y="-303" font-family="Helvetica,sans-Serif" font-size="10.00">Scene::getCamera</text>
</a>
</g>
</g>
<!-- Node2&#45;&gt;Node5 -->
<g id="edge4_Node000002_Node000005" class="edge">
<title>Node2&#45;&gt;Node5</title>
<g id="a_edge4_Node000002_Node000005"><a xlink:title=" ">
<path fill="none" stroke="#63b8ff" d="M293.26,-227.68C314.94,-244.9 352.87,-272.51 390,-287.5 400.03,-291.55 411.03,-294.7 421.87,-297.15"/>
<polygon fill="#63b8ff" stroke="#63b8ff" points="421.23,-300.59 431.74,-299.21 422.66,-293.74 421.23,-300.59"/>
</a>
</g>
</g>
<!-- Node6 -->
<g id="Node000006" class="node">
<title>Node6</title>
<g id="a_Node000006"><a xlink:href="classIPickable.html#a633ac40ae443d7a7935a34d145514bea" target="_top" xlink:title=" ">
<polygon fill="white" stroke="#666666" points="547,-278 423,-278 423,-259 547,-259 547,-278"/>
<text text-anchor="middle" x="485" y="-266" font-family="Helvetica,sans-Serif" font-size="10.00">IPickable::getObjectID</text>
</a>
</g>
</g>
<!-- Node2&#45;&gt;Node6 -->
<g id="edge5_Node000002_Node000006" class="edge">
<title>Node2&#45;&gt;Node6</title>
<g id="a_edge5_Node000002_Node000006"><a xlink:title=" ">
<path fill="none" stroke="#63b8ff" d="M316.13,-227.53C337.89,-235.12 365.17,-244.05 390,-250.5 398.86,-252.8 408.26,-254.95 417.55,-256.89"/>
<polygon fill="#63b8ff" stroke="#63b8ff" points="417.07,-260.37 427.57,-258.93 418.46,-253.51 417.07,-260.37"/>
</a>
</g>
</g>
<!-- Node7 -->
<g id="Node000007" class="node">
<title>Node7</title>
<g id="a_Node000007"><a xlink:href="classIPickable.html#a3c0aa273e2f597a766c999219338a865" target="_top" xlink:title=" ">
<polygon fill="white" stroke="#666666" points="546.5,-241 423.5,-241 423.5,-222 546.5,-222 546.5,-241"/>
<text text-anchor="middle" x="485" y="-229" font-family="Helvetica,sans-Serif" font-size="10.00">IPickable::handleClick</text>
</a>
</g>
</g>
<!-- Node2&#45;&gt;Node7 -->
<g id="edge6_Node000002_Node000007" class="edge">
<title>Node2&#45;&gt;Node7</title>
<g id="a_edge6_Node000002_Node000007"><a xlink:title=" ">
<path fill="none" stroke="#63b8ff" d="M354.01,-219.68C373.51,-221.46 394.27,-223.34 413.35,-225.08"/>
<polygon fill="#63b8ff" stroke="#63b8ff" points="413.17,-228.58 423.45,-226 413.81,-221.6 413.17,-228.58"/>
</a>
</g>
</g>
<!-- Node8 -->
<g id="Node000008" class="node">
<title>Node8</title>
<g id="a_Node000008"><a xlink:href="classOpenGLWindow.html#abafa9b00fb8edd30f4b4d3e1b5e8f949" target="_top" xlink:title=" ">
<polygon fill="white" stroke="#666666" points="576.5,-204 393.5,-204 393.5,-185 576.5,-185 576.5,-204"/>
<text text-anchor="middle" x="485" y="-192" font-family="Helvetica,sans-Serif" font-size="10.00">OpenGLWindow::isMouseCaptured</text>
</a>
</g>
</g>
<!-- Node2&#45;&gt;Node8 -->
<g id="edge7_Node000002_Node000008" class="edge">
<title>Node2&#45;&gt;Node8</title>
<g id="a_edge7_Node000002_Node000008"><a xlink:title=" ">
<path fill="none" stroke="#63b8ff" d="M354.01,-205.69C363.54,-204.87 373.36,-204.03 383.14,-203.19"/>
<polygon fill="#63b8ff" stroke="#63b8ff" points="383.64,-206.66 393.31,-202.31 383.04,-199.68 383.64,-206.66"/>
</a>
</g>
</g>
<!-- Node9 -->
<g id="Node000009" class="node">
<title>Node9</title>
<g id="a_Node000009"><a xlink:href="classCamera.html#af99955c976c3bbeec08714d7724bab89" target="_top" xlink:title=" ">
<polygon fill="white" stroke="#666666" points="544,-167 426,-167 426,-148 544,-148 544,-167"/>
<text text-anchor="middle" x="485" y="-155" font-family="Helvetica,sans-Serif" font-size="10.00">Camera::resetMouse</text>
</a>
</g>
</g>
<!-- Node2&#45;&gt;Node9 -->
<g id="edge8_Node000002_Node000009" class="edge">
<title>Node2&#45;&gt;Node9</title>
<g id="a_edge8_Node000002_Node000009"><a xlink:title=" ">
<path fill="none" stroke="#63b8ff" d="M319.2,-197.48C340.46,-190.56 366.39,-182.56 390,-176.5 400.14,-173.89 410.98,-171.42 421.55,-169.18"/>
<polygon fill="#63b8ff" stroke="#63b8ff" points="422.49,-172.55 431.57,-167.09 421.07,-165.7 422.49,-172.55"/>
</a>
</g>
</g>
<!-- Node10 -->
<g id="Node000010" class="node">
<title>Node10</title>
<g id="a_Node000010"><a xlink:href="classSceneManager.html#a25bec2896954b4f0c3bed8ef736993d3" target="_top" xlink:title=" ">
<polygon fill="white" stroke="#666666" points="775.5,-121 617.5,-121 617.5,-102 775.5,-102 775.5,-121"/>
<text text-anchor="middle" x="696.5" y="-109" font-family="Helvetica,sans-Serif" font-size="10.00">SceneManager::selectedItem</text>
</a>
</g>
</g>
<!-- Node2&#45;&gt;Node10 -->
<g id="edge9_Node000002_Node000010" class="edge">
<title>Node2&#45;&gt;Node10</title>
<g id="a_edge9_Node000002_Node000010"><a xlink:title=" ">
<path fill="none" stroke="#63b8ff" d="M292.71,-197.4C314.17,-180.08 352.17,-152.39 390,-139.5 460.44,-115.49 544.99,-109.35 607.27,-108.72"/>
<polygon fill="#63b8ff" stroke="#63b8ff" points="607.48,-112.22 617.46,-108.67 607.44,-105.22 607.48,-112.22"/>
</a>
</g>
</g>
<!-- Node11 -->
<g id="Node000011" class="node">
<title>Node11</title>
<g id="a_Node000011"><a xlink:href="classOpenGLWindow.html#a7ecf04635ece36551edb2a0be6fddfbe" target="_top" xlink:title=" ">
<polygon fill="white" stroke="#666666" points="580,-91 390,-91 390,-72 580,-72 580,-91"/>
<text text-anchor="middle" x="485" y="-79" font-family="Helvetica,sans-Serif" font-size="10.00">OpenGLWindow::setMouseCaptured</text>
</a>
</g>
</g>
<!-- Node2&#45;&gt;Node11 -->
<g id="edge10_Node000002_Node000011" class="edge">
<title>Node2&#45;&gt;Node11</title>
<g id="a_edge10_Node000002_Node000011"><a xlink:title=" ">
<path fill="none" stroke="#63b8ff" d="M287.03,-197.19C306.25,-173.81 346.2,-129.41 390,-105.5 398.65,-100.78 408.25,-96.96 417.92,-93.88"/>
<polygon fill="#63b8ff" stroke="#63b8ff" points="418.98,-97.22 427.59,-91.04 417.01,-90.51 418.98,-97.22"/>
</a>
</g>
</g>
<!-- Node12 -->
<g id="Node000012" class="node">
<title>Node12</title>
<g id="a_Node000012"><a xlink:href="classSceneManager.html#af40d0ff3e76f89bbf5504f1694814179" target="_top" xlink:title=" ">
<polygon fill="white" stroke="#666666" points="562.5,-54 407.5,-54 407.5,-35 562.5,-35 562.5,-54"/>
<text text-anchor="middle" x="485" y="-42" font-family="Helvetica,sans-Serif" font-size="10.00">SceneManager::setSelectFor</text>
</a>
</g>
</g>
<!-- Node2&#45;&gt;Node12 -->
<g id="edge11_Node000002_Node000012" class="edge">
<title>Node2&#45;&gt;Node12</title>
<g id="a_edge11_Node000002_Node000012"><a xlink:title=" ">
<path fill="none" stroke="#63b8ff" d="M281.97,-197.21C296.93,-166.26 335.27,-96.28 390,-62.5 392.67,-60.85 395.46,-59.35 398.33,-57.98"/>
<polygon fill="#63b8ff" stroke="#63b8ff" points="399.89,-61.12 407.77,-54.04 397.19,-54.66 399.89,-61.12"/>
</a>
</g>
</g>
<!-- Node12&#45;&gt;Node10 -->
<g id="edge17_Node000012_Node000010" class="edge">
<title>Node12&#45;&gt;Node10</title>
<g id="a_edge17_Node000012_Node000010"><a xlink:title=" ">
<path fill="none" stroke="#63b8ff" d="M546.14,-54.05C557.49,-56.4 569.19,-59.21 580,-62.5 588.52,-65.09 633.31,-84.38 664.54,-97.97"/>
<polygon fill="#63b8ff" stroke="#63b8ff" points="663.18,-101.19 673.74,-101.97 665.97,-94.77 663.18,-101.19"/>
</a>
</g>
</g>
<!-- Node13 -->
<g id="Node000013" class="node">
<title>Node13</title>
<g id="a_Node000013"><a xlink:href="classSceneManager.html#a99992b526976863d1dab7dc88cc6ec2a" target="_top" xlink:title=" ">
<polygon fill="white" stroke="#666666" points="777,-67.5 616,-67.5 616,-37.5 777,-37.5 777,-67.5"/>
<text text-anchor="start" x="624" y="-55.5" font-family="Helvetica,sans-Serif" font-size="10.00">SceneManager::deleteCurrent</text>
<text text-anchor="middle" x="696.5" y="-44.5" font-family="Helvetica,sans-Serif" font-size="10.00">Gizmo</text>
</a>
</g>
</g>
<!-- Node12&#45;&gt;Node13 -->
<g id="edge12_Node000012_Node000013" class="edge">
<title>Node12&#45;&gt;Node13</title>
<g id="a_edge12_Node000012_Node000013"><a xlink:title=" ">
<path fill="none" stroke="#63b8ff" d="M562.52,-47.42C576.44,-47.95 591.08,-48.51 605.35,-49.06"/>
<polygon fill="#63b8ff" stroke="#63b8ff" points="605.54,-52.57 615.66,-49.45 605.81,-45.57 605.54,-52.57"/>
</a>
</g>
</g>
<!-- Node17 -->
<g id="Node000017" class="node">
<title>Node17</title>
<g id="a_Node000017"><a xlink:href="classSceneObject.html#ad77f12eb793b32da2ef40f0042cb1de8" target="_top" xlink:title=" ">
<polygon fill="white" stroke="#666666" points="767,-19 626,-19 626,0 767,0 767,-19"/>
<text text-anchor="middle" x="696.5" y="-7" font-family="Helvetica,sans-Serif" font-size="10.00">SceneObject::getObjectID</text>
</a>
</g>
</g>
<!-- Node12&#45;&gt;Node17 -->
<g id="edge16_Node000012_Node000017" class="edge">
<title>Node12&#45;&gt;Node17</title>
<g id="a_edge16_Node000012_Node000017"><a xlink:title=" ">
<path fill="none" stroke="#63b8ff" d="M542.97,-34.98C569.41,-30.57 601.02,-25.28 628.58,-20.68"/>
<polygon fill="#63b8ff" stroke="#63b8ff" points="629.25,-24.12 638.54,-19.02 628.1,-17.21 629.25,-24.12"/>
</a>
</g>
</g>
<!-- Node14 -->
<g id="Node000014" class="node">
<title>Node14</title>
<g id="a_Node000014"><a xlink:href="classSceneManager.html#ab7c34393bb10361069b0ea73ec2797f8" target="_top" xlink:title=" ">
<polygon fill="white" stroke="#666666" points="992,-80 813,-80 813,-61 992,-61 992,-80"/>
<text text-anchor="middle" x="902.5" y="-68" font-family="Helvetica,sans-Serif" font-size="10.00">SceneManager::removeDrawable</text>
</a>
</g>
</g>
<!-- Node13&#45;&gt;Node14 -->
<g id="edge13_Node000013_Node000014" class="edge">
<title>Node13&#45;&gt;Node14</title>
<g id="a_edge13_Node000013_Node000014"><a xlink:title=" ">
<path fill="none" stroke="#63b8ff" d="M777.25,-59.54C785.6,-60.27 794.16,-61.03 802.7,-61.78"/>
<polygon fill="#63b8ff" stroke="#63b8ff" points="802.42,-65.27 812.69,-62.66 803.03,-58.3 802.42,-65.27"/>
</a>
</g>
</g>
<!-- Node16 -->
<g id="Node000016" class="node">
<title>Node16</title>
<g id="a_Node000016"><a xlink:href="classSceneManager.html#a1c647e38474ee02d5dd8510bc2313c38" target="_top" xlink:title=" ">
<polygon fill="white" stroke="#666666" points="989,-43 816,-43 816,-24 989,-24 989,-43"/>
<text text-anchor="middle" x="902.5" y="-31" font-family="Helvetica,sans-Serif" font-size="10.00">SceneManager::removePickable</text>
</a>
</g>
</g>
<!-- Node13&#45;&gt;Node16 -->
<g id="edge15_Node000013_Node000016" class="edge">
<title>Node13&#45;&gt;Node16</title>
<g id="a_edge15_Node000013_Node000016"><a xlink:title=" ">
<path fill="none" stroke="#63b8ff" d="M777.25,-45.07C786.52,-44.21 796.05,-43.32 805.52,-42.44"/>
<polygon fill="#63b8ff" stroke="#63b8ff" points="806.11,-45.9 815.74,-41.49 805.46,-38.93 806.11,-45.9"/>
</a>
</g>
</g>
<!-- Node15 -->
<g id="Node000015" class="node">
<title>Node15</title>
<g id="a_Node000015"><a xlink:href="classScene.html#a63e2ea26e06305a24d92ed004809197b" target="_top" xlink:title=" ">
<polygon fill="white" stroke="#666666" points="1164,-80 1028,-80 1028,-61 1164,-61 1164,-80"/>
<text text-anchor="middle" x="1096" y="-68" font-family="Helvetica,sans-Serif" font-size="10.00">Scene::removeDrawable</text>
</a>
</g>
</g>
<!-- Node14&#45;&gt;Node15 -->
<g id="edge14_Node000014_Node000015" class="edge">
<title>Node14&#45;&gt;Node15</title>
<g id="a_edge14_Node000014_Node000015"><a xlink:title=" ">
<path fill="none" stroke="#63b8ff" d="M992.24,-70.5C1000.73,-70.5 1009.29,-70.5 1017.65,-70.5"/>
<polygon fill="#63b8ff" stroke="#63b8ff" points="1017.74,-74 1027.74,-70.5 1017.74,-67 1017.74,-74"/>
</a>
</g>
</g>
</g>
</svg>

<g id="navigator" transform="translate(0 0)" fill="#404254">
  <rect fill="#f2f5e9" fill-opacity="0.5" stroke="#606060" stroke-width=".5" x="0" y="0" width="60" height="60"/>
  <use id="zoomplus" xlink:href="#zoomPlus" x="17" y="9" onmousedown="handleZoom(evt,'in')"/>
  <use id="zoomminus" xlink:href="#zoomMin" x="42" y="9" onmousedown="handleZoom(evt,'out')"/>
  <use id="reset" xlink:href="#resetDef" x="30" y="36" onmousedown="handleReset()"/>
   <use id="arrowup" xlink:href="#arrowUp" x="0" y="0" onmousedown="handlePan(0,-1)"/>
  <use id="arrowright" xlink:href="#arrowRight" x="0" y="0" onmousedown="handlePan(1,0)"/>
  <use id="arrowdown" xlink:href="#arrowDown" x="0" y="0" onmousedown="handlePan(0,1)"/>
  <use id="arrowleft" xlink:href="#arrowLeft" x="0" y="0" onmousedown="handlePan(-1,0)"/>
</g>
<svg viewBox="0 0 15 15" width="100%" height="30px" preserveAspectRatio="xMaxYMin meet">
 <g id="arrow_out" transform="scale(0.3 0.3)">
  <a xlink:href="classOpenGLWindow_a3db5152769ffded2ba4de8b6563c205a_cgraph_org.svg" target="_base">
   <rect id="button" ry="5" rx="5" y="6" x="6" height="38" width="38"
        fill="#f2f5e9" fill-opacity="0.5" stroke="#606060" stroke-width="1.0"/>
   <path id="arrow"
     d="M 11.500037,31.436501 C 11.940474,20.09759 22.043105,11.32322 32.158766,21.979434 L 37.068811,17.246167 C 37.068811,17.246167 37.088388,32 37.088388,32 L 22.160133,31.978069 C 22.160133,31.978069 26.997745,27.140456 26.997745,27.140456 C 18.528582,18.264221 13.291696,25.230495 11.500037,31.436501 z"
     style="fill:#404040;"/>
  </a>
 </g>
</svg>

<style type='text/css'>
<![CDATA[
[data-mouse-over-selected='false'] { opacity: 0.7; }
[data-mouse-over-selected='true']  { opacity: 1.0; }
]]>
</style>
<script type="application/ecmascript"><![CDATA[
document.addEventListener('DOMContentLoaded', (event) => {
  highlightEdges();
  highlightAdjacentNodes();
});
]]></script>
</svg>
