<?xml version="1.0" encoding="UTF-8" standalone="no"?>
<!DOCTYPE svg PUBLIC "-//W3C//DTD SVG 1.1//EN"
 "http://www.w3.org/Graphics/SVG/1.1/DTD/svg11.dtd">
<!-- Generated by graphviz version 2.43.0 (0)
 -->
<!-- Title: SceneManager::addPickable Pages: 1 -->
<svg width="1134pt" height="150pt"
 viewBox="0.00 0.00 1134.00 149.50" xmlns="http://www.w3.org/2000/svg" xmlns:xlink="http://www.w3.org/1999/xlink">
<g id="graph0" class="graph" transform="scale(1 1) rotate(0) translate(4 145.5)">
<title>SceneManager::addPickable</title>
<!-- Node1 -->
<g id="Node000001" class="node">
<title>Node1</title>
<g id="a_Node000001"><a xlink:title=" ">
<polygon fill="#999999" stroke="#666666" points="1126,-56 973,-56 973,-37 1126,-37 1126,-56"/>
<text text-anchor="middle" x="1049.5" y="-44" font-family="Helvetica,sans-Serif" font-size="10.00">SceneManager::addPickable</text>
</a>
</g>
</g>
<!-- Node2 -->
<g id="Node000002" class="node">
<title>Node2</title>
<g id="a_Node000002"><a xlink:href="classSceneManager.html#a1daee617aa556b8af8a7202d3f8f28c8" target="_top" xlink:title=" ">
<polygon fill="white" stroke="#666666" points="930.5,-93 773.5,-93 773.5,-74 930.5,-74 930.5,-93"/>
<text text-anchor="middle" x="852" y="-81" font-family="Helvetica,sans-Serif" font-size="10.00">SceneManager::createObject</text>
</a>
</g>
</g>
<!-- Node1&#45;&gt;Node2 -->
<g id="edge1_Node000001_Node000002" class="edge">
<title>Node1&#45;&gt;Node2</title>
<g id="a_edge1_Node000001_Node000002"><a xlink:title=" ">
<path fill="none" stroke="#63b8ff" d="M988.01,-57.95C960.91,-63.08 929.32,-69.06 903.51,-73.94"/>
<polygon fill="#63b8ff" stroke="#63b8ff" points="988.98,-61.33 998.15,-56.03 987.68,-54.45 988.98,-61.33"/>
</a>
</g>
</g>
<!-- Node9 -->
<g id="Node000009" class="node">
<title>Node9</title>
<g id="a_Node000009"><a xlink:href="classSceneManager.html#a926214cf6f1ad40c275720b9db4346a7" target="_top" xlink:title=" ">
<polygon fill="white" stroke="#666666" points="937,-56 767,-56 767,-37 937,-37 937,-56"/>
<text text-anchor="middle" x="852" y="-44" font-family="Helvetica,sans-Serif" font-size="10.00">SceneManager::createPrimitive</text>
</a>
</g>
</g>
<!-- Node1&#45;&gt;Node9 -->
<g id="edge8_Node000001_Node000009" class="edge">
<title>Node1&#45;&gt;Node9</title>
<g id="a_edge8_Node000001_Node000009"><a xlink:title=" ">
<path fill="none" stroke="#63b8ff" d="M962.66,-46.5C954.2,-46.5 945.61,-46.5 937.16,-46.5"/>
<polygon fill="#63b8ff" stroke="#63b8ff" points="962.91,-50 972.91,-46.5 962.91,-43 962.91,-50"/>
</a>
</g>
</g>
<!-- Node10 -->
<g id="Node000010" class="node">
<title>Node10</title>
<g id="a_Node000010"><a xlink:href="classGizmo.html#a1e13702675ff2136fb680b6cd08ce4f1" target="_top" xlink:title="Constructs a gizmo for the specified target object.">
<polygon fill="white" stroke="#666666" points="895,-19 809,-19 809,0 895,0 895,-19"/>
<text text-anchor="middle" x="852" y="-7" font-family="Helvetica,sans-Serif" font-size="10.00">Gizmo::Gizmo</text>
</a>
</g>
</g>
<!-- Node1&#45;&gt;Node10 -->
<g id="edge9_Node000001_Node000010" class="edge">
<title>Node1&#45;&gt;Node10</title>
<g id="a_edge9_Node000001_Node000010"><a xlink:title=" ">
<path fill="none" stroke="#63b8ff" d="M988.18,-35.08C958.07,-29.39 922.39,-22.63 895.24,-17.49"/>
<polygon fill="#63b8ff" stroke="#63b8ff" points="987.68,-38.55 998.15,-36.97 988.98,-31.67 987.68,-38.55"/>
</a>
</g>
</g>
<!-- Node3 -->
<g id="Node000003" class="node">
<title>Node3</title>
<g id="a_Node000003"><a xlink:href="namespaceScenePresets_1_1Astronomy.html#a0b0e571c83bcdb2d16710b9425375b5f" target="_top" xlink:title=" ">
<polygon fill="white" stroke="#666666" points="719.5,-141.5 578.5,-141.5 578.5,-111.5 719.5,-111.5 719.5,-141.5"/>
<text text-anchor="start" x="586.5" y="-129.5" font-family="Helvetica,sans-Serif" font-size="10.00">ScenePresets::Astronomy</text>
<text text-anchor="middle" x="649" y="-118.5" font-family="Helvetica,sans-Serif" font-size="10.00">::createRealSolarSystem</text>
</a>
</g>
</g>
<!-- Node2&#45;&gt;Node3 -->
<g id="edge2_Node000002_Node000003" class="edge">
<title>Node2&#45;&gt;Node3</title>
<g id="a_edge2_Node000002_Node000003"><a xlink:title=" ">
<path fill="none" stroke="#63b8ff" d="M796.54,-95.15C772.89,-100.21 744.9,-106.2 719.75,-111.58"/>
<polygon fill="#63b8ff" stroke="#63b8ff" points="797.35,-98.56 806.39,-93.04 795.88,-91.71 797.35,-98.56"/>
</a>
</g>
</g>
<!-- Node4 -->
<g id="Node000004" class="node">
<title>Node4</title>
<g id="a_Node000004"><a xlink:href="classSceneManager.html#acfea563d3849e3c8c09fc3febe9ae1e2" target="_top" xlink:title=" ">
<polygon fill="white" stroke="#666666" points="727.5,-93 570.5,-93 570.5,-74 727.5,-74 727.5,-93"/>
<text text-anchor="middle" x="649" y="-81" font-family="Helvetica,sans-Serif" font-size="10.00">SceneManager::defaultSetup</text>
</a>
</g>
</g>
<!-- Node2&#45;&gt;Node4 -->
<g id="edge3_Node000002_Node000004" class="edge">
<title>Node2&#45;&gt;Node4</title>
<g id="a_edge3_Node000002_Node000004"><a xlink:title=" ">
<path fill="none" stroke="#63b8ff" d="M762.98,-83.5C751.17,-83.5 739.12,-83.5 727.51,-83.5"/>
<polygon fill="#63b8ff" stroke="#63b8ff" points="763.29,-87 773.29,-83.5 763.29,-80 763.29,-87"/>
</a>
</g>
</g>
<!-- Node5 -->
<g id="Node000005" class="node">
<title>Node5</title>
<g id="a_Node000005"><a xlink:href="classSceneSerializer.html#a490f2bd87e7c9459ee47be974653b433" target="_top" xlink:title=" ">
<polygon fill="white" stroke="#666666" points="731,-56 567,-56 567,-37 731,-37 731,-56"/>
<text text-anchor="middle" x="649" y="-44" font-family="Helvetica,sans-Serif" font-size="10.00">SceneSerializer::loadFromJson</text>
</a>
</g>
</g>
<!-- Node2&#45;&gt;Node5 -->
<g id="edge4_Node000002_Node000005" class="edge">
<title>Node2&#45;&gt;Node5</title>
<g id="a_edge4_Node000002_Node000005"><a xlink:title=" ">
<path fill="none" stroke="#63b8ff" d="M789.18,-72.12C761.23,-66.98 728.59,-60.97 701.94,-56.06"/>
<polygon fill="#63b8ff" stroke="#63b8ff" points="788.77,-75.6 799.24,-73.97 790.04,-68.72 788.77,-75.6"/>
</a>
</g>
</g>
<!-- Node6 -->
<g id="Node000006" class="node">
<title>Node6</title>
<g id="a_Node000006"><a xlink:href="classSceneManager.html#a7b7b0a022dcce523178e8414fb8e4463" target="_top" xlink:title=" ">
<polygon fill="white" stroke="#666666" points="531,-56 386,-56 386,-37 531,-37 531,-56"/>
<text text-anchor="middle" x="458.5" y="-44" font-family="Helvetica,sans-Serif" font-size="10.00">SceneManager::loadScene</text>
</a>
</g>
</g>
<!-- Node5&#45;&gt;Node6 -->
<g id="edge5_Node000005_Node000006" class="edge">
<title>Node5&#45;&gt;Node6</title>
<g id="a_edge5_Node000005_Node000006"><a xlink:title=" ">
<path fill="none" stroke="#63b8ff" d="M556.9,-46.5C548.29,-46.5 539.65,-46.5 531.26,-46.5"/>
<polygon fill="#63b8ff" stroke="#63b8ff" points="556.97,-50 566.97,-46.5 556.97,-43 556.97,-50"/>
</a>
</g>
</g>
<!-- Node7 -->
<g id="Node000007" class="node">
<title>Node7</title>
<g id="a_Node000007"><a xlink:href="classSceneManager.html#a59f13c06bf3f19d5e543502a0ddd0467" target="_top" xlink:title=" ">
<polygon fill="white" stroke="#666666" points="350,-56 172,-56 172,-37 350,-37 350,-56"/>
<text text-anchor="middle" x="261" y="-44" font-family="Helvetica,sans-Serif" font-size="10.00">SceneManager::processHeldKeys</text>
</a>
</g>
</g>
<!-- Node6&#45;&gt;Node7 -->
<g id="edge6_Node000006_Node000007" class="edge">
<title>Node6&#45;&gt;Node7</title>
<g id="a_edge6_Node000006_Node000007"><a xlink:title=" ">
<path fill="none" stroke="#63b8ff" d="M375.68,-46.5C367.3,-46.5 358.75,-46.5 350.3,-46.5"/>
<polygon fill="#63b8ff" stroke="#63b8ff" points="375.81,-50 385.81,-46.5 375.81,-43 375.81,-50"/>
</a>
</g>
</g>
<!-- Node8 -->
<g id="Node000008" class="node">
<title>Node8</title>
<g id="a_Node000008"><a xlink:href="classOpenGLWindow.html#aea9ee69010d8451ab00cd488a8c6717d" target="_top" xlink:title=" ">
<polygon fill="white" stroke="#666666" points="136,-56 0,-56 0,-37 136,-37 136,-56"/>
<text text-anchor="middle" x="68" y="-44" font-family="Helvetica,sans-Serif" font-size="10.00">OpenGLWindow::paintGL</text>
</a>
</g>
</g>
<!-- Node7&#45;&gt;Node8 -->
<g id="edge7_Node000007_Node000008" class="edge">
<title>Node7&#45;&gt;Node8</title>
<g id="a_edge7_Node000007_Node000008"><a xlink:title=" ">
<path fill="none" stroke="#63b8ff" d="M161.6,-46.5C152.94,-46.5 144.32,-46.5 136,-46.5"/>
<polygon fill="#63b8ff" stroke="#63b8ff" points="161.77,-50 171.77,-46.5 161.77,-43 161.77,-50"/>
</a>
</g>
</g>
</g>
</svg>
