<?xml version="1.0" encoding="UTF-8" standalone="no"?>
<!DOCTYPE svg PUBLIC "-//W3C//DTD SVG 1.1//EN"
 "http://www.w3.org/Graphics/SVG/1.1/DTD/svg11.dtd">
<!-- Generated by graphviz version 2.43.0 (0)
 -->
<!-- Title: Scene::addDrawable Pages: 1 -->
<svg width="1292pt" height="119pt"
 viewBox="0.00 0.00 1292.00 119.00" xmlns="http://www.w3.org/2000/svg" xmlns:xlink="http://www.w3.org/1999/xlink">
<g id="graph0" class="graph" transform="scale(1 1) rotate(0) translate(4 115)">
<title>Scene::addDrawable</title>
<!-- Node1 -->
<g id="Node000001" class="node">
<title>Node1</title>
<g id="a_Node000001"><a xlink:title=" ">
<polygon fill="#999999" stroke="#666666" points="1284,-56 1168,-56 1168,-37 1284,-37 1284,-56"/>
<text text-anchor="middle" x="1226" y="-44" font-family="Helvetica,sans-Serif" font-size="10.00">Scene::addDrawable</text>
</a>
</g>
</g>
<!-- Node2 -->
<g id="Node000002" class="node">
<title>Node2</title>
<g id="a_Node000002"><a xlink:href="classSceneManager.html#ad0d1661e5869720d7a07b1912d75318d" target="_top" xlink:title=" ">
<polygon fill="white" stroke="#666666" points="1132,-56 973,-56 973,-37 1132,-37 1132,-56"/>
<text text-anchor="middle" x="1052.5" y="-44" font-family="Helvetica,sans-Serif" font-size="10.00">SceneManager::addDrawable</text>
</a>
</g>
</g>
<!-- Node1&#45;&gt;Node2 -->
<g id="edge1_Node000001_Node000002" class="edge">
<title>Node1&#45;&gt;Node2</title>
<g id="a_edge1_Node000001_Node000002"><a xlink:title=" ">
<path fill="none" stroke="#63b8ff" d="M1157.75,-46.5C1149.32,-46.5 1140.63,-46.5 1132.04,-46.5"/>
<polygon fill="#63b8ff" stroke="#63b8ff" points="1157.89,-50 1167.89,-46.5 1157.89,-43 1157.89,-50"/>
</a>
</g>
</g>
<!-- Node3 -->
<g id="Node000003" class="node">
<title>Node3</title>
<g id="a_Node000003"><a xlink:href="classSceneManager.html#a1daee617aa556b8af8a7202d3f8f28c8" target="_top" xlink:title=" ">
<polygon fill="white" stroke="#666666" points="930.5,-93 773.5,-93 773.5,-74 930.5,-74 930.5,-93"/>
<text text-anchor="middle" x="852" y="-81" font-family="Helvetica,sans-Serif" font-size="10.00">SceneManager::createObject</text>
</a>
</g>
</g>
<!-- Node2&#45;&gt;Node3 -->
<g id="edge2_Node000002_Node000003" class="edge">
<title>Node2&#45;&gt;Node3</title>
<g id="a_edge2_Node000002_Node000003"><a xlink:title=" ">
<path fill="none" stroke="#63b8ff" d="M990.44,-57.88C962.85,-63.02 930.61,-69.03 904.29,-73.94"/>
<polygon fill="#63b8ff" stroke="#63b8ff" points="991.19,-61.3 1000.38,-56.03 989.91,-54.42 991.19,-61.3"/>
</a>
</g>
</g>
<!-- Node9 -->
<g id="Node000009" class="node">
<title>Node9</title>
<g id="a_Node000009"><a xlink:href="classSceneManager.html#a926214cf6f1ad40c275720b9db4346a7" target="_top" xlink:title=" ">
<polygon fill="white" stroke="#666666" points="937,-56 767,-56 767,-37 937,-37 937,-56"/>
<text text-anchor="middle" x="852" y="-44" font-family="Helvetica,sans-Serif" font-size="10.00">SceneManager::createPrimitive</text>
</a>
</g>
</g>
<!-- Node2&#45;&gt;Node9 -->
<g id="edge8_Node000002_Node000009" class="edge">
<title>Node2&#45;&gt;Node9</title>
<g id="a_edge8_Node000002_Node000009"><a xlink:title=" ">
<path fill="none" stroke="#63b8ff" d="M962.54,-46.5C954.11,-46.5 945.58,-46.5 937.19,-46.5"/>
<polygon fill="#63b8ff" stroke="#63b8ff" points="962.76,-50 972.76,-46.5 962.76,-43 962.76,-50"/>
</a>
</g>
</g>
<!-- Node10 -->
<g id="Node000010" class="node">
<title>Node10</title>
<g id="a_Node000010"><a xlink:href="classGizmo.html#a1e13702675ff2136fb680b6cd08ce4f1" target="_top" xlink:title="Constructs a gizmo for the specified target object.">
<polygon fill="white" stroke="#666666" points="895,-19 809,-19 809,0 895,0 895,-19"/>
<text text-anchor="middle" x="852" y="-7" font-family="Helvetica,sans-Serif" font-size="10.00">Gizmo::Gizmo</text>
</a>
</g>
</g>
<!-- Node2&#45;&gt;Node10 -->
<g id="edge9_Node000002_Node000010" class="edge">
<title>Node2&#45;&gt;Node10</title>
<g id="a_edge9_Node000002_Node000010"><a xlink:title=" ">
<path fill="none" stroke="#63b8ff" d="M990.18,-35.07C959.39,-29.33 922.86,-22.52 895.24,-17.37"/>
<polygon fill="#63b8ff" stroke="#63b8ff" points="989.91,-38.58 1000.38,-36.97 991.19,-31.7 989.91,-38.58"/>
</a>
</g>
</g>
<!-- Node4 -->
<g id="Node000004" class="node">
<title>Node4</title>
<g id="a_Node000004"><a xlink:href="classSceneManager.html#acfea563d3849e3c8c09fc3febe9ae1e2" target="_top" xlink:title=" ">
<polygon fill="white" stroke="#666666" points="727.5,-111 570.5,-111 570.5,-92 727.5,-92 727.5,-111"/>
<text text-anchor="middle" x="649" y="-99" font-family="Helvetica,sans-Serif" font-size="10.00">SceneManager::defaultSetup</text>
</a>
</g>
</g>
<!-- Node3&#45;&gt;Node4 -->
<g id="edge3_Node000003_Node000004" class="edge">
<title>Node3&#45;&gt;Node4</title>
<g id="a_edge3_Node000003_Node000004"><a xlink:title=" ">
<path fill="none" stroke="#63b8ff" d="M762.98,-91.38C751.17,-92.44 739.12,-93.52 727.51,-94.56"/>
<polygon fill="#63b8ff" stroke="#63b8ff" points="763.64,-94.84 773.29,-90.46 763.02,-87.87 763.64,-94.84"/>
</a>
</g>
</g>
<!-- Node5 -->
<g id="Node000005" class="node">
<title>Node5</title>
<g id="a_Node000005"><a xlink:href="classSceneSerializer.html#a490f2bd87e7c9459ee47be974653b433" target="_top" xlink:title=" ">
<polygon fill="white" stroke="#666666" points="731,-74 567,-74 567,-55 731,-55 731,-74"/>
<text text-anchor="middle" x="649" y="-62" font-family="Helvetica,sans-Serif" font-size="10.00">SceneSerializer::loadFromJson</text>
</a>
</g>
</g>
<!-- Node3&#45;&gt;Node5 -->
<g id="edge4_Node000003_Node000005" class="edge">
<title>Node3&#45;&gt;Node5</title>
<g id="a_edge4_Node000003_Node000005"><a xlink:title=" ">
<path fill="none" stroke="#63b8ff" d="M763.16,-75.2C752.53,-74.19 741.7,-73.17 731.16,-72.17"/>
<polygon fill="#63b8ff" stroke="#63b8ff" points="763,-78.7 773.29,-76.15 763.66,-71.73 763,-78.7"/>
</a>
</g>
</g>
<!-- Node6 -->
<g id="Node000006" class="node">
<title>Node6</title>
<g id="a_Node000006"><a xlink:href="classSceneManager.html#a7b7b0a022dcce523178e8414fb8e4463" target="_top" xlink:title=" ">
<polygon fill="white" stroke="#666666" points="531,-74 386,-74 386,-55 531,-55 531,-74"/>
<text text-anchor="middle" x="458.5" y="-62" font-family="Helvetica,sans-Serif" font-size="10.00">SceneManager::loadScene</text>
</a>
</g>
</g>
<!-- Node5&#45;&gt;Node6 -->
<g id="edge5_Node000005_Node000006" class="edge">
<title>Node5&#45;&gt;Node6</title>
<g id="a_edge5_Node000005_Node000006"><a xlink:title=" ">
<path fill="none" stroke="#63b8ff" d="M556.9,-64.5C548.29,-64.5 539.65,-64.5 531.26,-64.5"/>
<polygon fill="#63b8ff" stroke="#63b8ff" points="556.97,-68 566.97,-64.5 556.97,-61 556.97,-68"/>
</a>
</g>
</g>
<!-- Node7 -->
<g id="Node000007" class="node">
<title>Node7</title>
<g id="a_Node000007"><a xlink:href="classSceneManager.html#a59f13c06bf3f19d5e543502a0ddd0467" target="_top" xlink:title=" ">
<polygon fill="white" stroke="#666666" points="350,-74 172,-74 172,-55 350,-55 350,-74"/>
<text text-anchor="middle" x="261" y="-62" font-family="Helvetica,sans-Serif" font-size="10.00">SceneManager::processHeldKeys</text>
</a>
</g>
</g>
<!-- Node6&#45;&gt;Node7 -->
<g id="edge6_Node000006_Node000007" class="edge">
<title>Node6&#45;&gt;Node7</title>
<g id="a_edge6_Node000006_Node000007"><a xlink:title=" ">
<path fill="none" stroke="#63b8ff" d="M375.68,-64.5C367.3,-64.5 358.75,-64.5 350.3,-64.5"/>
<polygon fill="#63b8ff" stroke="#63b8ff" points="375.81,-68 385.81,-64.5 375.81,-61 375.81,-68"/>
</a>
</g>
</g>
<!-- Node8 -->
<g id="Node000008" class="node">
<title>Node8</title>
<g id="a_Node000008"><a xlink:href="classOpenGLWindow.html#aea9ee69010d8451ab00cd488a8c6717d" target="_top" xlink:title=" ">
<polygon fill="white" stroke="#666666" points="136,-74 0,-74 0,-55 136,-55 136,-74"/>
<text text-anchor="middle" x="68" y="-62" font-family="Helvetica,sans-Serif" font-size="10.00">OpenGLWindow::paintGL</text>
</a>
</g>
</g>
<!-- Node7&#45;&gt;Node8 -->
<g id="edge7_Node000007_Node000008" class="edge">
<title>Node7&#45;&gt;Node8</title>
<g id="a_edge7_Node000007_Node000008"><a xlink:title=" ">
<path fill="none" stroke="#63b8ff" d="M161.6,-64.5C152.94,-64.5 144.32,-64.5 136,-64.5"/>
<polygon fill="#63b8ff" stroke="#63b8ff" points="161.77,-68 171.77,-64.5 161.77,-61 161.77,-68"/>
</a>
</g>
</g>
</g>
</svg>
