<?xml version="1.0" encoding="UTF-8" standalone="no"?>
<!DOCTYPE svg PUBLIC "-//W3C//DTD SVG 1.1//EN"
 "http://www.w3.org/Graphics/SVG/1.1/DTD/svg11.dtd">
<!-- Generated by graphviz version 2.43.0 (0)
 -->
<!-- Title: SceneManager::getObjects Pages: 1 -->
<!--zoomable 187 -->

<svg id="main" version="1.1" xmlns="http://www.w3.org/2000/svg" xmlns:xlink="http://www.w3.org/1999/xlink" xml:space="preserve" onload="init(evt)">
<style type="text/css"><![CDATA[
.node, .edge {opacity: 0.7;}
.node.selected, .edge.selected {opacity: 1;}
.edge:hover path { stroke: red; }
.edge:hover polygon { stroke: red; fill: red; }
]]></style>

<defs>
  <circle id="rim" cx="0" cy="0" r="7"/>
  <circle id="rim2" cx="0" cy="0" r="3.5"/>
  <g id="zoomPlus">
    <use xlink:href="#rim" fill="#404040"><set attributeName="fill" to="#808080" begin="zoomplus.mouseover" end="zoomplus.mouseout"/></use>
    <path d="M-4,0h8M0,-4v8" fill="none" stroke="white" stroke-width="1.5" pointer-events="none"/>
  </g>
  <g id="zoomMin">
    <use xlink:href="#rim" fill="#404040"><set attributeName="fill" to="#808080" begin="zoomminus.mouseover" end="zoomminus.mouseout"/></use>
    <path d="M-4,0h8" fill="none" stroke="white" stroke-width="1.5" pointer-events="none"/>
  </g>
  <g id="arrowUp" transform="translate(30 24)">
    <use xlink:href="#rim"/>
    <path pointer-events="none" fill="none" stroke="white" stroke-width="1.5" d="M0,-3.0v7 M-2.5,-0.5L0,-3.0L2.5,-0.5"/>
  </g>
  <g id="arrowRight" transform="rotate(90) translate(36 -43)">
    <use xlink:href="#rim"/>
    <path pointer-events="none" fill="none" stroke="white" stroke-width="1.5" d="M0,-3.0v7 M-2.5,-0.5L0,-3.0L2.5,-0.5"/>
  </g>
  <g id="arrowDown" transform="rotate(180) translate(-30 -48)">
    <use xlink:href="#rim"/>
    <path pointer-events="none" fill="none" stroke="white" stroke-width="1.5" d="M0,-3.0v7 M-2.5,-0.5L0,-3.0L2.5,-0.5"/>
  </g>
  <g id="arrowLeft" transform="rotate(270) translate(-36 17)">
    <use xlink:href="#rim"/>
    <path pointer-events="none" fill="none" stroke="white" stroke-width="1.5" d="M0,-3.0v7 M-2.5,-0.5L0,-3.0L2.5,-0.5"/>
  </g>
  <g id="resetDef">
    <use xlink:href="#rim2" fill="#404040"><set attributeName="fill" to="#808080" begin="reset.mouseover" end="reset.mouseout"/></use>
  </g>
</defs>
<script type="application/ecmascript">
var viewWidth = 912;
var viewHeight = 187;
var sectionId = 'dynsection-27';
</script>
<script type="application/ecmascript" xlink:href="svg.min.js"/>
<svg id="graph" class="graph">
<g id="viewport">
<title>SceneManager::getObjects</title>
<!-- Node1 -->
<g id="Node000001" class="node">
<title>Node1</title>
<g id="a_Node000001"><a xlink:title=" ">
<polygon fill="#999999" stroke="#666666" points="904,-105 757,-105 757,-86 904,-86 904,-105"/>
<text text-anchor="middle" x="830.5" y="-93" font-family="Helvetica,sans-Serif" font-size="10.00">SceneManager::getObjects</text>
</a>
</g>
</g>
<!-- Node2 -->
<g id="Node000002" class="node">
<title>Node2</title>
<g id="a_Node000002"><a xlink:href="classColliders.html#a95c816477110bbd72fbe67333e6f7da6" target="_top" xlink:title="Performs custom rendering for this object.">
<polygon fill="white" stroke="#666666" points="689.5,-179 600.5,-179 600.5,-160 689.5,-160 689.5,-179"/>
<text text-anchor="middle" x="645" y="-167" font-family="Helvetica,sans-Serif" font-size="10.00">Colliders::draw</text>
</a>
</g>
</g>
<!-- Node1&#45;&gt;Node2 -->
<g id="edge1_Node000001_Node000002" class="edge">
<title>Node1&#45;&gt;Node2</title>
<g id="a_edge1_Node000001_Node000002"><a xlink:title=" ">
<path fill="none" stroke="#63b8ff" d="M805.1,-110.26C783.6,-122.73 751.11,-140.3 721,-151.5 711.08,-155.19 700.15,-158.31 689.76,-160.87"/>
<polygon fill="#63b8ff" stroke="#63b8ff" points="807.03,-113.19 813.88,-105.1 803.48,-107.15 807.03,-113.19"/>
</a>
</g>
</g>
<!-- Node3 -->
<g id="Node000003" class="node">
<title>Node3</title>
<g id="a_Node000003"><a xlink:href="classForces.html#a945a76ef36ff7ae831e85542658beafe" target="_top" xlink:title="Performs custom rendering for this object.">
<polygon fill="white" stroke="#666666" points="684,-142 606,-142 606,-123 684,-123 684,-142"/>
<text text-anchor="middle" x="645" y="-130" font-family="Helvetica,sans-Serif" font-size="10.00">Forces::draw</text>
</a>
</g>
</g>
<!-- Node1&#45;&gt;Node3 -->
<g id="edge2_Node000001_Node000003" class="edge">
<title>Node1&#45;&gt;Node3</title>
<g id="a_edge2_Node000001_Node000003"><a xlink:title=" ">
<path fill="none" stroke="#63b8ff" d="M772.34,-107.03C743.63,-112.81 709.64,-119.67 684.15,-124.81"/>
<polygon fill="#63b8ff" stroke="#63b8ff" points="773.13,-110.44 782.24,-105.03 771.75,-103.57 773.13,-110.44"/>
</a>
</g>
</g>
<!-- Node4 -->
<g id="Node000004" class="node">
<title>Node4</title>
<g id="a_Node000004"><a xlink:href="classPathTraces.html#add22141d373bc627ccefeecd691f4dd5" target="_top" xlink:title="Performs custom rendering for this object.">
<polygon fill="white" stroke="#666666" points="694,-105 596,-105 596,-86 694,-86 694,-105"/>
<text text-anchor="middle" x="645" y="-93" font-family="Helvetica,sans-Serif" font-size="10.00">PathTraces::draw</text>
</a>
</g>
</g>
<!-- Node1&#45;&gt;Node4 -->
<g id="edge3_Node000001_Node000004" class="edge">
<title>Node1&#45;&gt;Node4</title>
<g id="a_edge3_Node000001_Node000004"><a xlink:title=" ">
<path fill="none" stroke="#63b8ff" d="M746.73,-95.5C728.7,-95.5 710.2,-95.5 694.05,-95.5"/>
<polygon fill="#63b8ff" stroke="#63b8ff" points="746.98,-99 756.98,-95.5 746.98,-92 746.98,-99"/>
</a>
</g>
</g>
<!-- Node5 -->
<g id="Node000005" class="node">
<title>Node5</title>
<g id="a_Node000005"><a xlink:href="classGlobalsInspectorWidget.html#ac983b68fcff61ff889660f3d93221072" target="_top" xlink:title=" ">
<polygon fill="white" stroke="#666666" points="711.5,-67.5 578.5,-67.5 578.5,-37.5 711.5,-37.5 711.5,-67.5"/>
<text text-anchor="start" x="586.5" y="-55.5" font-family="Helvetica,sans-Serif" font-size="10.00">GlobalsInspectorWidget</text>
<text text-anchor="middle" x="645" y="-44.5" font-family="Helvetica,sans-Serif" font-size="10.00">::runSolver</text>
</a>
</g>
</g>
<!-- Node1&#45;&gt;Node5 -->
<g id="edge4_Node000001_Node000005" class="edge">
<title>Node1&#45;&gt;Node5</title>
<g id="a_edge4_Node000001_Node000005"><a xlink:title=" ">
<path fill="none" stroke="#63b8ff" d="M778.96,-83.66C757.66,-78.66 732.61,-72.8 710.04,-67.51"/>
<polygon fill="#63b8ff" stroke="#63b8ff" points="778.24,-87.08 788.78,-85.96 779.84,-80.27 778.24,-87.08"/>
</a>
</g>
</g>
<!-- Node6 -->
<g id="Node000006" class="node">
<title>Node6</title>
<g id="a_Node000006"><a xlink:href="classSceneSerializer.html#a56e278bcdda1f03f192797122dd6d0c0" target="_top" xlink:title=" ">
<polygon fill="white" stroke="#666666" points="721,-19 569,-19 569,0 721,0 721,-19"/>
<text text-anchor="middle" x="645" y="-7" font-family="Helvetica,sans-Serif" font-size="10.00">SceneSerializer::saveToJson</text>
</a>
</g>
</g>
<!-- Node1&#45;&gt;Node6 -->
<g id="edge5_Node000001_Node000006" class="edge">
<title>Node1&#45;&gt;Node6</title>
<g id="a_edge5_Node000001_Node000006"><a xlink:title=" ">
<path fill="none" stroke="#63b8ff" d="M808.63,-79.92C787.52,-64.82 753.46,-42.25 721,-28.5 712.22,-24.78 702.54,-21.66 693.14,-19.1"/>
<polygon fill="#63b8ff" stroke="#63b8ff" points="806.7,-82.84 816.84,-85.88 810.81,-77.17 806.7,-82.84"/>
</a>
</g>
</g>
<!-- Node7 -->
<g id="Node000007" class="node">
<title>Node7</title>
<g id="a_Node000007"><a xlink:href="classSceneManager.html#a1a46a8c9e99b6b27404a2f870f38749c" target="_top" xlink:title=" ">
<polygon fill="white" stroke="#666666" points="533,-19 386,-19 386,0 533,0 533,-19"/>
<text text-anchor="middle" x="459.5" y="-7" font-family="Helvetica,sans-Serif" font-size="10.00">SceneManager::saveScene</text>
</a>
</g>
</g>
<!-- Node6&#45;&gt;Node7 -->
<g id="edge6_Node000006_Node000007" class="edge">
<title>Node6&#45;&gt;Node7</title>
<g id="a_edge6_Node000006_Node000007"><a xlink:title=" ">
<path fill="none" stroke="#63b8ff" d="M558.82,-9.5C550.25,-9.5 541.6,-9.5 533.18,-9.5"/>
<polygon fill="#63b8ff" stroke="#63b8ff" points="558.83,-13 568.83,-9.5 558.83,-6 558.83,-13"/>
</a>
</g>
</g>
<!-- Node8 -->
<g id="Node000008" class="node">
<title>Node8</title>
<g id="a_Node000008"><a xlink:href="classSceneManager.html#a59f13c06bf3f19d5e543502a0ddd0467" target="_top" xlink:title=" ">
<polygon fill="white" stroke="#666666" points="350,-19 172,-19 172,0 350,0 350,-19"/>
<text text-anchor="middle" x="261" y="-7" font-family="Helvetica,sans-Serif" font-size="10.00">SceneManager::processHeldKeys</text>
</a>
</g>
</g>
<!-- Node7&#45;&gt;Node8 -->
<g id="edge7_Node000007_Node000008" class="edge">
<title>Node7&#45;&gt;Node8</title>
<g id="a_edge7_Node000007_Node000008"><a xlink:title=" ">
<path fill="none" stroke="#63b8ff" d="M375.73,-9.5C367.32,-9.5 358.76,-9.5 350.3,-9.5"/>
<polygon fill="#63b8ff" stroke="#63b8ff" points="375.89,-13 385.89,-9.5 375.89,-6 375.89,-13"/>
</a>
</g>
</g>
<!-- Node9 -->
<g id="Node000009" class="node">
<title>Node9</title>
<g id="a_Node000009"><a xlink:href="classOpenGLWindow.html#aea9ee69010d8451ab00cd488a8c6717d" target="_top" xlink:title=" ">
<polygon fill="white" stroke="#666666" points="136,-19 0,-19 0,0 136,0 136,-19"/>
<text text-anchor="middle" x="68" y="-7" font-family="Helvetica,sans-Serif" font-size="10.00">OpenGLWindow::paintGL</text>
</a>
</g>
</g>
<!-- Node8&#45;&gt;Node9 -->
<g id="edge8_Node000008_Node000009" class="edge">
<title>Node8&#45;&gt;Node9</title>
<g id="a_edge8_Node000008_Node000009"><a xlink:title=" ">
<path fill="none" stroke="#63b8ff" d="M161.6,-9.5C152.94,-9.5 144.32,-9.5 136,-9.5"/>
<polygon fill="#63b8ff" stroke="#63b8ff" points="161.77,-13 171.77,-9.5 161.77,-6 161.77,-13"/>
</a>
</g>
</g>
</g>
</svg>

<g id="navigator" transform="translate(0 0)" fill="#404254">
  <rect fill="#f2f5e9" fill-opacity="0.5" stroke="#606060" stroke-width=".5" x="0" y="0" width="60" height="60"/>
  <use id="zoomplus" xlink:href="#zoomPlus" x="17" y="9" onmousedown="handleZoom(evt,'in')"/>
  <use id="zoomminus" xlink:href="#zoomMin" x="42" y="9" onmousedown="handleZoom(evt,'out')"/>
  <use id="reset" xlink:href="#resetDef" x="30" y="36" onmousedown="handleReset()"/>
   <use id="arrowup" xlink:href="#arrowUp" x="0" y="0" onmousedown="handlePan(0,-1)"/>
  <use id="arrowright" xlink:href="#arrowRight" x="0" y="0" onmousedown="handlePan(1,0)"/>
  <use id="arrowdown" xlink:href="#arrowDown" x="0" y="0" onmousedown="handlePan(0,1)"/>
  <use id="arrowleft" xlink:href="#arrowLeft" x="0" y="0" onmousedown="handlePan(-1,0)"/>
</g>
<svg viewBox="0 0 15 15" width="100%" height="30px" preserveAspectRatio="xMaxYMin meet">
 <g id="arrow_out" transform="scale(0.3 0.3)">
  <a xlink:href="classSceneManager_af96b87421832797ab531895ec04bee09_icgraph_org.svg" target="_base">
   <rect id="button" ry="5" rx="5" y="6" x="6" height="38" width="38"
        fill="#f2f5e9" fill-opacity="0.5" stroke="#606060" stroke-width="1.0"/>
   <path id="arrow"
     d="M 11.500037,31.436501 C 11.940474,20.09759 22.043105,11.32322 32.158766,21.979434 L 37.068811,17.246167 C 37.068811,17.246167 37.088388,32 37.088388,32 L 22.160133,31.978069 C 22.160133,31.978069 26.997745,27.140456 26.997745,27.140456 C 18.528582,18.264221 13.291696,25.230495 11.500037,31.436501 z"
     style="fill:#404040;"/>
  </a>
 </g>
</svg>

<style type='text/css'>
<![CDATA[
[data-mouse-over-selected='false'] { opacity: 0.7; }
[data-mouse-over-selected='true']  { opacity: 1.0; }
]]>
</style>
<script type="application/ecmascript"><![CDATA[
document.addEventListener('DOMContentLoaded', (event) => {
  highlightEdges();
  highlightAdjacentNodes();
});
]]></script>
</svg>
