<?xml version="1.0" encoding="UTF-8" standalone="no"?>
<!DOCTYPE svg PUBLIC "-//W3C//DTD SVG 1.1//EN"
 "http://www.w3.org/Graphics/SVG/1.1/DTD/svg11.dtd">
<!-- Generated by graphviz version 2.43.0 (0)
 -->
<!-- Title: FrameGraphWidget::FrameGraphWidget Pages: 1 -->
<svg width="584pt" height="64pt"
 viewBox="0.00 0.00 584.00 64.00" xmlns="http://www.w3.org/2000/svg" xmlns:xlink="http://www.w3.org/1999/xlink">
<g id="graph0" class="graph" transform="scale(1 1) rotate(0) translate(4 60)">
<title>FrameGraphWidget::FrameGraphWidget</title>
<!-- Node1 -->
<g id="Node000001" class="node">
<title>Node1</title>
<g id="a_Node000001"><a xlink:title=" ">
<polygon fill="#999999" stroke="#666666" points="177,-43.5 0,-43.5 0,-13.5 177,-13.5 177,-43.5"/>
<text text-anchor="start" x="8" y="-31.5" font-family="Helvetica,sans-Serif" font-size="10.00">FrameGraphWidget::FrameGraph</text>
<text text-anchor="middle" x="88.5" y="-20.5" font-family="Helvetica,sans-Serif" font-size="10.00">Widget</text>
</a>
</g>
</g>
<!-- Node2 -->
<g id="Node000002" class="node">
<title>Node2</title>
<g id="a_Node000002"><a xlink:href="Metric_8h.html#ab746e1ae92860da7517511330ec101e3" target="_top" xlink:title=" ">
<polygon fill="white" stroke="#666666" points="531,-56 457,-56 457,-37 531,-37 531,-56"/>
<text text-anchor="middle" x="494" y="-44" font-family="Helvetica,sans-Serif" font-size="10.00">metricLabel</text>
</a>
</g>
</g>
<!-- Node1&#45;&gt;Node2 -->
<g id="edge1_Node000001_Node000002" class="edge">
<title>Node1&#45;&gt;Node2</title>
<g id="a_edge1_Node000001_Node000002"><a xlink:title=" ">
<path fill="none" stroke="#63b8ff" d="M177.05,-32.41C260,-36.11 381.34,-41.52 446.89,-44.44"/>
<polygon fill="#63b8ff" stroke="#63b8ff" points="446.77,-47.94 456.91,-44.89 447.08,-40.95 446.77,-47.94"/>
</a>
</g>
</g>
<!-- Node3 -->
<g id="Node000003" class="node">
<title>Node3</title>
<g id="a_Node000003"><a xlink:href="classFrameGraphWidget.html#abcef1aa6ff7bbf2541a343e0317864de" target="_top" xlink:title=" ">
<polygon fill="white" stroke="#666666" points="376,-19 213,-19 213,0 376,0 376,-19"/>
<text text-anchor="middle" x="294.5" y="-7" font-family="Helvetica,sans-Serif" font-size="10.00">FrameGraphWidget::setMetric</text>
</a>
</g>
</g>
<!-- Node1&#45;&gt;Node3 -->
<g id="edge2_Node000001_Node000003" class="edge">
<title>Node1&#45;&gt;Node3</title>
<g id="a_edge2_Node000001_Node000003"><a xlink:title=" ">
<path fill="none" stroke="#63b8ff" d="M177.2,-20.33C185.74,-19.54 194.41,-18.73 202.98,-17.93"/>
<polygon fill="#63b8ff" stroke="#63b8ff" points="203.33,-21.41 212.97,-17 202.68,-14.44 203.33,-21.41"/>
</a>
</g>
</g>
<!-- Node3&#45;&gt;Node2 -->
<g id="edge3_Node000003_Node000002" class="edge">
<title>Node3&#45;&gt;Node2</title>
<g id="a_edge3_Node000003_Node000002"><a xlink:title=" ">
<path fill="none" stroke="#63b8ff" d="M346.36,-19.03C377.47,-24.86 416.96,-32.25 447.11,-37.9"/>
<polygon fill="#63b8ff" stroke="#63b8ff" points="446.48,-41.35 456.96,-39.75 447.77,-34.47 446.48,-41.35"/>
</a>
</g>
</g>
<!-- Node4 -->
<g id="Node000004" class="node">
<title>Node4</title>
<g id="a_Node000004"><a xlink:href="classFrameGraphCanvas.html#ad7d262482869ac8989b2a5514b6fb329" target="_top" xlink:title=" ">
<polygon fill="white" stroke="#666666" points="576,-19 412,-19 412,0 576,0 576,-19"/>
<text text-anchor="middle" x="494" y="-7" font-family="Helvetica,sans-Serif" font-size="10.00">FrameGraphCanvas::setMetric</text>
</a>
</g>
</g>
<!-- Node3&#45;&gt;Node4 -->
<g id="edge4_Node000003_Node000004" class="edge">
<title>Node3&#45;&gt;Node4</title>
<g id="a_edge4_Node000003_Node000004"><a xlink:title=" ">
<path fill="none" stroke="#63b8ff" d="M376.12,-9.5C384.46,-9.5 392.98,-9.5 401.43,-9.5"/>
<polygon fill="#63b8ff" stroke="#63b8ff" points="401.68,-13 411.68,-9.5 401.68,-6 401.68,-13"/>
</a>
</g>
</g>
</g>
</svg>
