<?xml version="1.0" encoding="UTF-8" standalone="no"?>
<!DOCTYPE svg PUBLIC "-//W3C//DTD SVG 1.1//EN"
 "http://www.w3.org/Graphics/SVG/1.1/DTD/svg11.dtd">
<!-- Generated by graphviz version 2.43.0 (0)
 -->
<!-- Title: SceneObject::getPhysicsBody Pages: 1 -->
<svg width="938pt" height="335pt"
 viewBox="0.00 0.00 938.00 334.50" xmlns="http://www.w3.org/2000/svg" xmlns:xlink="http://www.w3.org/1999/xlink">
<g id="graph0" class="graph" transform="scale(1 1) rotate(0) translate(4 330.5)">
<title>SceneObject::getPhysicsBody</title>
<!-- Node1 -->
<g id="Node000001" class="node">
<title>Node1</title>
<g id="a_Node000001"><a xlink:title=" ">
<polygon fill="#999999" stroke="#666666" points="930,-167 769,-167 769,-148 930,-148 930,-167"/>
<text text-anchor="middle" x="849.5" y="-155" font-family="Helvetica,sans-Serif" font-size="10.00">SceneObject::getPhysicsBody</text>
</a>
</g>
</g>
<!-- Node2 -->
<g id="Node000002" class="node">
<title>Node2</title>
<g id="a_Node000002"><a xlink:href="namespaceScenePresets_1_1Astronomy.html#a0b0e571c83bcdb2d16710b9425375b5f" target="_top" xlink:title=" ">
<polygon fill="white" stroke="#666666" points="721.5,-326.5 580.5,-326.5 580.5,-296.5 721.5,-296.5 721.5,-326.5"/>
<text text-anchor="start" x="588.5" y="-314.5" font-family="Helvetica,sans-Serif" font-size="10.00">ScenePresets::Astronomy</text>
<text text-anchor="middle" x="651" y="-303.5" font-family="Helvetica,sans-Serif" font-size="10.00">::createRealSolarSystem</text>
</a>
</g>
</g>
<!-- Node1&#45;&gt;Node2 -->
<g id="edge1_Node000001_Node000002" class="edge">
<title>Node1&#45;&gt;Node2</title>
<g id="a_edge1_Node000001_Node000002"><a xlink:title=" ">
<path fill="none" stroke="#63b8ff" d="M837.14,-175.82C818.73,-204 779.7,-257.82 733,-287.5 727.68,-290.88 721.86,-293.81 715.86,-296.33"/>
<polygon fill="#63b8ff" stroke="#63b8ff" points="840.14,-177.63 842.57,-167.32 834.24,-173.86 840.14,-177.63"/>
</a>
</g>
</g>
<!-- Node3 -->
<g id="Node000003" class="node">
<title>Node3</title>
<g id="a_Node000003"><a xlink:href="classSceneManager.html#acfea563d3849e3c8c09fc3febe9ae1e2" target="_top" xlink:title=" ">
<polygon fill="white" stroke="#666666" points="729.5,-278 572.5,-278 572.5,-259 729.5,-259 729.5,-278"/>
<text text-anchor="middle" x="651" y="-266" font-family="Helvetica,sans-Serif" font-size="10.00">SceneManager::defaultSetup</text>
</a>
</g>
</g>
<!-- Node1&#45;&gt;Node3 -->
<g id="edge2_Node000001_Node000003" class="edge">
<title>Node1&#45;&gt;Node3</title>
<g id="a_edge2_Node000001_Node000003"><a xlink:title=" ">
<path fill="none" stroke="#63b8ff" d="M832.57,-174.43C811.73,-195.55 773.12,-231.21 733,-250.5 725.86,-253.93 718.05,-256.72 710.19,-258.99"/>
<polygon fill="#63b8ff" stroke="#63b8ff" points="835.22,-176.74 839.66,-167.12 830.19,-171.87 835.22,-176.74"/>
</a>
</g>
</g>
<!-- Node4 -->
<g id="Node000004" class="node">
<title>Node4</title>
<g id="a_Node000004"><a xlink:href="classColliders.html#a95c816477110bbd72fbe67333e6f7da6" target="_top" xlink:title="Performs custom rendering for this object.">
<polygon fill="white" stroke="#666666" points="695.5,-241 606.5,-241 606.5,-222 695.5,-222 695.5,-241"/>
<text text-anchor="middle" x="651" y="-229" font-family="Helvetica,sans-Serif" font-size="10.00">Colliders::draw</text>
</a>
</g>
</g>
<!-- Node1&#45;&gt;Node4 -->
<g id="edge3_Node000001_Node000004" class="edge">
<title>Node1&#45;&gt;Node4</title>
<g id="a_edge3_Node000001_Node000004"><a xlink:title=" ">
<path fill="none" stroke="#63b8ff" d="M823.06,-171.97C800.13,-184.49 765.18,-202.29 733,-213.5 721.16,-217.62 708.02,-221.02 695.82,-223.71"/>
<polygon fill="#63b8ff" stroke="#63b8ff" points="824.76,-175.04 831.81,-167.13 821.37,-168.91 824.76,-175.04"/>
</a>
</g>
</g>
<!-- Node5 -->
<g id="Node000005" class="node">
<title>Node5</title>
<g id="a_Node000005"><a xlink:href="classForces.html#a945a76ef36ff7ae831e85542658beafe" target="_top" xlink:title="Performs custom rendering for this object.">
<polygon fill="white" stroke="#666666" points="690,-204 612,-204 612,-185 690,-185 690,-204"/>
<text text-anchor="middle" x="651" y="-192" font-family="Helvetica,sans-Serif" font-size="10.00">Forces::draw</text>
</a>
</g>
</g>
<!-- Node1&#45;&gt;Node5 -->
<g id="edge4_Node000001_Node000005" class="edge">
<title>Node1&#45;&gt;Node5</title>
<g id="a_edge4_Node000001_Node000005"><a xlink:title=" ">
<path fill="none" stroke="#63b8ff" d="M787.77,-168.93C755.86,-174.94 717.73,-182.12 690.02,-187.34"/>
<polygon fill="#63b8ff" stroke="#63b8ff" points="788.72,-172.32 797.9,-167.03 787.42,-165.44 788.72,-172.32"/>
</a>
</g>
</g>
<!-- Node6 -->
<g id="Node000006" class="node">
<title>Node6</title>
<g id="a_Node000006"><a xlink:href="classPathTraces.html#add22141d373bc627ccefeecd691f4dd5" target="_top" xlink:title="Performs custom rendering for this object.">
<polygon fill="white" stroke="#666666" points="700,-167 602,-167 602,-148 700,-148 700,-167"/>
<text text-anchor="middle" x="651" y="-155" font-family="Helvetica,sans-Serif" font-size="10.00">PathTraces::draw</text>
</a>
</g>
</g>
<!-- Node1&#45;&gt;Node6 -->
<g id="edge5_Node000001_Node000006" class="edge">
<title>Node1&#45;&gt;Node6</title>
<g id="a_edge5_Node000001_Node000006"><a xlink:title=" ">
<path fill="none" stroke="#63b8ff" d="M758.68,-157.5C738.49,-157.5 717.82,-157.5 700.12,-157.5"/>
<polygon fill="#63b8ff" stroke="#63b8ff" points="758.86,-161 768.86,-157.5 758.86,-154 758.86,-161"/>
</a>
</g>
</g>
<!-- Node7 -->
<g id="Node000007" class="node">
<title>Node7</title>
<g id="a_Node000007"><a xlink:href="classScene.html#af5512c90d05801f27028975d6a898e6b" target="_top" xlink:title=" ">
<polygon fill="white" stroke="#666666" points="689,-130 613,-130 613,-111 689,-111 689,-130"/>
<text text-anchor="middle" x="651" y="-118" font-family="Helvetica,sans-Serif" font-size="10.00">Scene::draw</text>
</a>
</g>
</g>
<!-- Node1&#45;&gt;Node7 -->
<g id="edge6_Node000001_Node000007" class="edge">
<title>Node1&#45;&gt;Node7</title>
<g id="a_edge6_Node000001_Node000007"><a xlink:title=" ">
<path fill="none" stroke="#63b8ff" d="M787.67,-146.05C755.42,-139.97 716.85,-132.71 689.09,-127.48"/>
<polygon fill="#63b8ff" stroke="#63b8ff" points="787.42,-149.56 797.9,-147.97 788.72,-142.68 787.42,-149.56"/>
</a>
</g>
</g>
<!-- Node8 -->
<g id="Node000008" class="node">
<title>Node8</title>
<g id="a_Node000008"><a xlink:href="classSceneSerializer.html#a490f2bd87e7c9459ee47be974653b433" target="_top" xlink:title=" ">
<polygon fill="white" stroke="#666666" points="733,-93 569,-93 569,-74 733,-74 733,-93"/>
<text text-anchor="middle" x="651" y="-81" font-family="Helvetica,sans-Serif" font-size="10.00">SceneSerializer::loadFromJson</text>
</a>
</g>
</g>
<!-- Node1&#45;&gt;Node8 -->
<g id="edge7_Node000001_Node000008" class="edge">
<title>Node1&#45;&gt;Node8</title>
<g id="a_edge7_Node000001_Node000008"><a xlink:title=" ">
<path fill="none" stroke="#63b8ff" d="M822.29,-143.03C799.31,-130.83 764.72,-113.63 733,-102.5 722.64,-98.87 711.29,-95.72 700.46,-93.08"/>
<polygon fill="#63b8ff" stroke="#63b8ff" points="820.92,-146.26 831.38,-147.92 824.23,-140.1 820.92,-146.26"/>
</a>
</g>
</g>
<!-- Node12 -->
<g id="Node000012" class="node">
<title>Node12</title>
<g id="a_Node000012"><a xlink:href="classInspectorWidget.html#a9791f86cbaeff68987f3d5c5c7e58703" target="_top" xlink:title=" ">
<polygon fill="white" stroke="#666666" points="728.5,-56 573.5,-56 573.5,-37 728.5,-37 728.5,-56"/>
<text text-anchor="middle" x="651" y="-44" font-family="Helvetica,sans-Serif" font-size="10.00">InspectorWidget::loadObject</text>
</a>
</g>
</g>
<!-- Node1&#45;&gt;Node12 -->
<g id="edge11_Node000001_Node000012" class="edge">
<title>Node1&#45;&gt;Node12</title>
<g id="a_edge11_Node000001_Node000012"><a xlink:title=" ">
<path fill="none" stroke="#63b8ff" d="M832.18,-140.51C811.19,-119.67 772.68,-84.74 733,-65.5 725.07,-61.66 716.32,-58.56 707.59,-56.09"/>
<polygon fill="#63b8ff" stroke="#63b8ff" points="829.81,-143.09 839.33,-147.74 834.79,-138.17 829.81,-143.09"/>
</a>
</g>
</g>
<!-- Node13 -->
<g id="Node000013" class="node">
<title>Node13</title>
<g id="a_Node000013"><a xlink:href="classSceneSerializer.html#a56e278bcdda1f03f192797122dd6d0c0" target="_top" xlink:title=" ">
<polygon fill="white" stroke="#666666" points="727,-19 575,-19 575,0 727,0 727,-19"/>
<text text-anchor="middle" x="651" y="-7" font-family="Helvetica,sans-Serif" font-size="10.00">SceneSerializer::saveToJson</text>
</a>
</g>
</g>
<!-- Node1&#45;&gt;Node13 -->
<g id="edge12_Node000001_Node000013" class="edge">
<title>Node1&#45;&gt;Node13</title>
<g id="a_edge12_Node000001_Node000013"><a xlink:title=" ">
<path fill="none" stroke="#63b8ff" d="M837.65,-139.2C819.68,-110.6 780.93,-55.68 733,-27.5 727.16,-24.07 720.74,-21.29 714.14,-19.04"/>
<polygon fill="#63b8ff" stroke="#63b8ff" points="834.72,-141.12 842.93,-147.81 840.68,-137.46 834.72,-141.12"/>
</a>
</g>
</g>
<!-- Node9 -->
<g id="Node000009" class="node">
<title>Node9</title>
<g id="a_Node000009"><a xlink:href="classSceneManager.html#a7b7b0a022dcce523178e8414fb8e4463" target="_top" xlink:title=" ">
<polygon fill="white" stroke="#666666" points="532,-83 387,-83 387,-64 532,-64 532,-83"/>
<text text-anchor="middle" x="459.5" y="-71" font-family="Helvetica,sans-Serif" font-size="10.00">SceneManager::loadScene</text>
</a>
</g>
</g>
<!-- Node8&#45;&gt;Node9 -->
<g id="edge8_Node000008_Node000009" class="edge">
<title>Node8&#45;&gt;Node9</title>
<g id="a_edge8_Node000008_Node000009"><a xlink:title=" ">
<path fill="none" stroke="#63b8ff" d="M558.79,-78.69C549.88,-78.22 540.93,-77.74 532.26,-77.29"/>
<polygon fill="#63b8ff" stroke="#63b8ff" points="558.64,-82.18 568.81,-79.22 559.01,-75.19 558.64,-82.18"/>
</a>
</g>
</g>
<!-- Node10 -->
<g id="Node000010" class="node">
<title>Node10</title>
<g id="a_Node000010"><a xlink:href="classSceneManager.html#a59f13c06bf3f19d5e543502a0ddd0467" target="_top" xlink:title=" ">
<polygon fill="white" stroke="#666666" points="350,-55 172,-55 172,-36 350,-36 350,-55"/>
<text text-anchor="middle" x="261" y="-43" font-family="Helvetica,sans-Serif" font-size="10.00">SceneManager::processHeldKeys</text>
</a>
</g>
</g>
<!-- Node9&#45;&gt;Node10 -->
<g id="edge9_Node000009_Node000010" class="edge">
<title>Node9&#45;&gt;Node10</title>
<g id="a_edge9_Node000009_Node000010"><a xlink:title=" ">
<path fill="none" stroke="#63b8ff" d="M381.59,-62.54C364.21,-60.06 345.88,-57.45 328.95,-55.04"/>
<polygon fill="#63b8ff" stroke="#63b8ff" points="381.31,-66.04 391.7,-63.98 382.29,-59.11 381.31,-66.04"/>
</a>
</g>
</g>
<!-- Node11 -->
<g id="Node000011" class="node">
<title>Node11</title>
<g id="a_Node000011"><a xlink:href="classOpenGLWindow.html#aea9ee69010d8451ab00cd488a8c6717d" target="_top" xlink:title=" ">
<polygon fill="white" stroke="#666666" points="136,-55 0,-55 0,-36 136,-36 136,-55"/>
<text text-anchor="middle" x="68" y="-43" font-family="Helvetica,sans-Serif" font-size="10.00">OpenGLWindow::paintGL</text>
</a>
</g>
</g>
<!-- Node10&#45;&gt;Node11 -->
<g id="edge10_Node000010_Node000011" class="edge">
<title>Node10&#45;&gt;Node11</title>
<g id="a_edge10_Node000010_Node000011"><a xlink:title=" ">
<path fill="none" stroke="#63b8ff" d="M161.6,-45.5C152.94,-45.5 144.32,-45.5 136,-45.5"/>
<polygon fill="#63b8ff" stroke="#63b8ff" points="161.77,-49 171.77,-45.5 161.77,-42 161.77,-49"/>
</a>
</g>
</g>
<!-- Node14 -->
<g id="Node000014" class="node">
<title>Node14</title>
<g id="a_Node000014"><a xlink:href="classSceneManager.html#a1a46a8c9e99b6b27404a2f870f38749c" target="_top" xlink:title=" ">
<polygon fill="white" stroke="#666666" points="533,-37 386,-37 386,-18 533,-18 533,-37"/>
<text text-anchor="middle" x="459.5" y="-25" font-family="Helvetica,sans-Serif" font-size="10.00">SceneManager::saveScene</text>
</a>
</g>
</g>
<!-- Node13&#45;&gt;Node14 -->
<g id="edge13_Node000013_Node000014" class="edge">
<title>Node13&#45;&gt;Node14</title>
<g id="a_edge13_Node000013_Node000014"><a xlink:title=" ">
<path fill="none" stroke="#63b8ff" d="M564.76,-17.6C554.19,-18.6 543.46,-19.62 533.1,-20.6"/>
<polygon fill="#63b8ff" stroke="#63b8ff" points="565.21,-21.07 574.83,-16.64 564.55,-14.1 565.21,-21.07"/>
</a>
</g>
</g>
<!-- Node14&#45;&gt;Node10 -->
<g id="edge14_Node000014_Node000010" class="edge">
<title>Node14&#45;&gt;Node10</title>
<g id="a_edge14_Node000014_Node000010"><a xlink:title=" ">
<path fill="none" stroke="#63b8ff" d="M375.73,-35.08C367.32,-35.85 358.76,-36.64 350.3,-37.41"/>
<polygon fill="#63b8ff" stroke="#63b8ff" points="376.25,-38.55 385.89,-34.15 375.61,-31.58 376.25,-38.55"/>
</a>
</g>
</g>
</g>
</svg>
