<?xml version="1.0" encoding="UTF-8" standalone="no"?>
<!DOCTYPE svg PUBLIC "-//W3C//DTD SVG 1.1//EN"
 "http://www.w3.org/Graphics/SVG/1.1/DTD/svg11.dtd">
<!-- Generated by graphviz version 2.43.0 (0)
 -->
<!-- Title: OpenGLWindow::paintGL Pages: 1 -->
<svg width="1614pt" height="650pt"
 viewBox="0.00 0.00 1614.00 650.00" xmlns="http://www.w3.org/2000/svg" xmlns:xlink="http://www.w3.org/1999/xlink">
<g id="graph0" class="graph" transform="scale(1 1) rotate(0) translate(4 646)">
<title>OpenGLWindow::paintGL</title>
<!-- Node1 -->
<g id="Node000001" class="node">
<title>Node1</title>
<g id="a_Node000001"><a xlink:title=" ">
<polygon fill="#999999" stroke="#666666" points="136,-344 0,-344 0,-325 136,-325 136,-344"/>
<text text-anchor="middle" x="68" y="-332" font-family="Helvetica,sans-Serif" font-size="10.00">OpenGLWindow::paintGL</text>
</a>
</g>
</g>
<!-- Node2 -->
<g id="Node000002" class="node">
<title>Node2</title>
<g id="a_Node000002"><a xlink:href="classScene.html#af5512c90d05801f27028975d6a898e6b" target="_top" xlink:title=" ">
<polygon fill="white" stroke="#666666" points="299,-531 223,-531 223,-512 299,-512 299,-531"/>
<text text-anchor="middle" x="261" y="-519" font-family="Helvetica,sans-Serif" font-size="10.00">Scene::draw</text>
</a>
</g>
</g>
<!-- Node1&#45;&gt;Node2 -->
<g id="edge1_Node000001_Node000002" class="edge">
<title>Node1&#45;&gt;Node2</title>
<g id="a_edge1_Node000001_Node000002"><a xlink:title=" ">
<path fill="none" stroke="#63b8ff" d="M78.73,-344.03C109.25,-373.91 203.35,-466.04 242.56,-504.43"/>
<polygon fill="#63b8ff" stroke="#63b8ff" points="240.46,-507.27 250.06,-511.76 245.36,-502.27 240.46,-507.27"/>
</a>
</g>
</g>
<!-- Node10 -->
<g id="Node000010" class="node">
<title>Node10</title>
<g id="a_Node000010"><a xlink:href="classSceneManager.html#a59f13c06bf3f19d5e543502a0ddd0467" target="_top" xlink:title=" ">
<polygon fill="white" stroke="#666666" points="350,-344 172,-344 172,-325 350,-325 350,-344"/>
<text text-anchor="middle" x="261" y="-332" font-family="Helvetica,sans-Serif" font-size="10.00">SceneManager::processHeldKeys</text>
</a>
</g>
</g>
<!-- Node1&#45;&gt;Node10 -->
<g id="edge9_Node000001_Node000010" class="edge">
<title>Node1&#45;&gt;Node10</title>
<g id="a_edge9_Node000001_Node000010"><a xlink:title=" ">
<path fill="none" stroke="#63b8ff" d="M136.07,-334.5C144.41,-334.5 153.08,-334.5 161.77,-334.5"/>
<polygon fill="#63b8ff" stroke="#63b8ff" points="161.97,-338 171.97,-334.5 161.97,-331 161.97,-338"/>
</a>
</g>
</g>
<!-- Node51 -->
<g id="Node000051" class="node">
<title>Node51</title>
<g id="a_Node000051"><a xlink:href="classSceneManager.html#a9525363a1d77757f3be7e4f09c1500c9" target="_top" xlink:title=" ">
<polygon fill="white" stroke="#666666" points="340,-238.5 182,-238.5 182,-208.5 340,-208.5 340,-238.5"/>
<text text-anchor="start" x="190" y="-226.5" font-family="Helvetica,sans-Serif" font-size="10.00">SceneManager::updateHover</text>
<text text-anchor="middle" x="261" y="-215.5" font-family="Helvetica,sans-Serif" font-size="10.00">State</text>
</a>
</g>
</g>
<!-- Node1&#45;&gt;Node51 -->
<g id="edge49_Node000001_Node000051" class="edge">
<title>Node1&#45;&gt;Node51</title>
<g id="a_edge49_Node000001_Node000051"><a xlink:title=" ">
<path fill="none" stroke="#63b8ff" d="M85.62,-324.84C116.65,-306.81 184,-267.67 225.33,-243.65"/>
<polygon fill="#63b8ff" stroke="#63b8ff" points="227.09,-246.67 233.98,-238.62 223.57,-240.62 227.09,-246.67"/>
</a>
</g>
</g>
<!-- Node3 -->
<g id="Node000003" class="node">
<title>Node3</title>
<g id="a_Node000003"><a xlink:href="classCamera.html#a1a29e1564468a5b612eb141c9d44170d" target="_top" xlink:title=" ">
<polygon fill="white" stroke="#666666" points="536,-568 409,-568 409,-549 536,-549 536,-568"/>
<text text-anchor="middle" x="472.5" y="-556" font-family="Helvetica,sans-Serif" font-size="10.00">Camera::getProjMatrix</text>
</a>
</g>
</g>
<!-- Node2&#45;&gt;Node3 -->
<g id="edge2_Node000002_Node000003" class="edge">
<title>Node2&#45;&gt;Node3</title>
<g id="a_edge2_Node000002_Node000003"><a xlink:title=" ">
<path fill="none" stroke="#63b8ff" d="M299.45,-528.11C329.34,-533.39 371.9,-540.91 407.21,-547.15"/>
<polygon fill="#63b8ff" stroke="#63b8ff" points="406.98,-550.66 417.44,-548.95 408.2,-543.77 406.98,-550.66"/>
</a>
</g>
</g>
<!-- Node4 -->
<g id="Node000004" class="node">
<title>Node4</title>
<g id="a_Node000004"><a xlink:href="classCamera.html#a2f90e661a78172675ca06ea69667b531" target="_top" xlink:title=" ">
<polygon fill="white" stroke="#666666" points="538.5,-531 406.5,-531 406.5,-512 538.5,-512 538.5,-531"/>
<text text-anchor="middle" x="472.5" y="-519" font-family="Helvetica,sans-Serif" font-size="10.00">Camera::getViewMatrix</text>
</a>
</g>
</g>
<!-- Node2&#45;&gt;Node4 -->
<g id="edge3_Node000002_Node000004" class="edge">
<title>Node2&#45;&gt;Node4</title>
<g id="a_edge3_Node000002_Node000004"><a xlink:title=" ">
<path fill="none" stroke="#63b8ff" d="M299.45,-521.5C326.33,-521.5 363.46,-521.5 396.35,-521.5"/>
<polygon fill="#63b8ff" stroke="#63b8ff" points="396.41,-525 406.41,-521.5 396.41,-518 396.41,-525"/>
</a>
</g>
</g>
<!-- Node5 -->
<g id="Node000005" class="node">
<title>Node5</title>
<g id="a_Node000005"><a xlink:href="classSceneObject.html#ac01ac7731712baaeb3173a2a7e3f151a" target="_top" xlink:title=" ">
<polygon fill="white" stroke="#666666" points="559,-494 386,-494 386,-475 559,-475 559,-494"/>
<text text-anchor="middle" x="472.5" y="-482" font-family="Helvetica,sans-Serif" font-size="10.00">SceneObject::setPhysicsPosMap</text>
</a>
</g>
</g>
<!-- Node2&#45;&gt;Node5 -->
<g id="edge4_Node000002_Node000005" class="edge">
<title>Node2&#45;&gt;Node5</title>
<g id="a_edge4_Node000002_Node000005"><a xlink:title=" ">
<path fill="none" stroke="#63b8ff" d="M299.45,-514.89C329.34,-509.61 371.9,-502.09 407.21,-495.85"/>
<polygon fill="#63b8ff" stroke="#63b8ff" points="408.2,-499.23 417.44,-494.05 406.98,-492.34 408.2,-499.23"/>
</a>
</g>
</g>
<!-- Node6 -->
<g id="Node000006" class="node">
<title>Node6</title>
<g id="a_Node000006"><a xlink:href="classCamera.html#a42cda7239981a5618660d04bd5893556" target="_top" xlink:title=" ">
<polygon fill="white" stroke="#666666" points="520,-457 425,-457 425,-438 520,-438 520,-457"/>
<text text-anchor="middle" x="472.5" y="-445" font-family="Helvetica,sans-Serif" font-size="10.00">Camera::update</text>
</a>
</g>
</g>
<!-- Node2&#45;&gt;Node6 -->
<g id="edge5_Node000002_Node000006" class="edge">
<title>Node2&#45;&gt;Node6</title>
<g id="a_edge5_Node000002_Node000006"><a xlink:title=" ">
<path fill="none" stroke="#63b8ff" d="M280.45,-511.92C304.28,-499.88 347.3,-479.24 386,-466.5 395.22,-463.46 405.16,-460.76 414.88,-458.41"/>
<polygon fill="#63b8ff" stroke="#63b8ff" points="415.94,-461.76 424.9,-456.1 414.36,-454.94 415.94,-461.76"/>
</a>
</g>
</g>
<!-- Node8 -->
<g id="Node000008" class="node">
<title>Node8</title>
<g id="a_Node000008"><a xlink:href="classUniformBuffer.html#ab8c80840cb69d51f92ef35365deb47ef" target="_top" xlink:title=" ">
<polygon fill="white" stroke="#666666" points="547,-642 398,-642 398,-623 547,-623 547,-642"/>
<text text-anchor="middle" x="472.5" y="-630" font-family="Helvetica,sans-Serif" font-size="10.00">UniformBuffer::updateData</text>
</a>
</g>
</g>
<!-- Node2&#45;&gt;Node8 -->
<g id="edge7_Node000002_Node000008" class="edge">
<title>Node2&#45;&gt;Node8</title>
<g id="a_edge7_Node000002_Node000008"><a xlink:title=" ">
<path fill="none" stroke="#63b8ff" d="M271.63,-531.14C291.28,-550.22 338.2,-592.84 386,-614.5 390.43,-616.51 395.09,-618.29 399.86,-619.88"/>
<polygon fill="#63b8ff" stroke="#63b8ff" points="399.16,-623.33 409.74,-622.88 401.19,-616.63 399.16,-623.33"/>
</a>
</g>
</g>
<!-- Node9 -->
<g id="Node000009" class="node">
<title>Node9</title>
<g id="a_Node000009"><a xlink:href="classShader.html#a3c7896754f0e1fca8bde860cfef63832" target="_top" xlink:title=" ">
<polygon fill="white" stroke="#666666" points="509.5,-605 435.5,-605 435.5,-586 509.5,-586 509.5,-605"/>
<text text-anchor="middle" x="472.5" y="-593" font-family="Helvetica,sans-Serif" font-size="10.00">Shader::use</text>
</a>
</g>
</g>
<!-- Node2&#45;&gt;Node9 -->
<g id="edge8_Node000002_Node000009" class="edge">
<title>Node2&#45;&gt;Node9</title>
<g id="a_edge8_Node000002_Node000009"><a xlink:title=" ">
<path fill="none" stroke="#63b8ff" d="M279.99,-531.13C303.69,-543.45 346.93,-564.73 386,-577.5 398.52,-581.59 412.37,-584.98 425.22,-587.66"/>
<polygon fill="#63b8ff" stroke="#63b8ff" points="424.78,-591.14 435.27,-589.67 426.15,-584.28 424.78,-591.14"/>
</a>
</g>
</g>
<!-- Node7 -->
<g id="Node000007" class="node">
<title>Node7</title>
<g id="a_Node000007"><a xlink:href="classSceneObject.html#a3d1aa613dd4f4ee6947754a355a48cc9" target="_top" xlink:title=" ">
<polygon fill="white" stroke="#666666" points="746,-457 608,-457 608,-438 746,-438 746,-457"/>
<text text-anchor="middle" x="677" y="-445" font-family="Helvetica,sans-Serif" font-size="10.00">SceneObject::getPosition</text>
</a>
</g>
</g>
<!-- Node6&#45;&gt;Node7 -->
<g id="edge6_Node000006_Node000007" class="edge">
<title>Node6&#45;&gt;Node7</title>
<g id="a_edge6_Node000006_Node000007"><a xlink:title=" ">
<path fill="none" stroke="#63b8ff" d="M520.21,-447.5C543.1,-447.5 571.3,-447.5 597.38,-447.5"/>
<polygon fill="#63b8ff" stroke="#63b8ff" points="597.64,-451 607.64,-447.5 597.64,-444 597.64,-451"/>
</a>
</g>
</g>
<!-- Node11 -->
<g id="Node000011" class="node">
<title>Node11</title>
<g id="a_Node000011"><a xlink:href="classScene.html#a8ec1e638529f69f716e791ba3ac4d2f7" target="_top" xlink:title=" ">
<polygon fill="white" stroke="#666666" points="525.5,-381 419.5,-381 419.5,-362 525.5,-362 525.5,-381"/>
<text text-anchor="middle" x="472.5" y="-369" font-family="Helvetica,sans-Serif" font-size="10.00">Scene::getCamera</text>
</a>
</g>
</g>
<!-- Node10&#45;&gt;Node11 -->
<g id="edge10_Node000010_Node000011" class="edge">
<title>Node10&#45;&gt;Node11</title>
<g id="a_edge10_Node000010_Node000011"><a xlink:title=" ">
<path fill="none" stroke="#63b8ff" d="M315.95,-344.03C344.37,-349.05 379.36,-355.23 408.96,-360.45"/>
<polygon fill="#63b8ff" stroke="#63b8ff" points="408.72,-363.97 419.18,-362.26 409.94,-357.07 408.72,-363.97"/>
</a>
</g>
</g>
<!-- Node12 -->
<g id="Node000012" class="node">
<title>Node12</title>
<g id="a_Node000012"><a xlink:href="classSceneManager.html#a7b7b0a022dcce523178e8414fb8e4463" target="_top" xlink:title=" ">
<polygon fill="white" stroke="#666666" points="545,-344 400,-344 400,-325 545,-325 545,-344"/>
<text text-anchor="middle" x="472.5" y="-332" font-family="Helvetica,sans-Serif" font-size="10.00">SceneManager::loadScene</text>
</a>
</g>
</g>
<!-- Node10&#45;&gt;Node12 -->
<g id="edge11_Node000010_Node000012" class="edge">
<title>Node10&#45;&gt;Node12</title>
<g id="a_edge11_Node000010_Node000012"><a xlink:title=" ">
<path fill="none" stroke="#63b8ff" d="M350.24,-334.5C363.3,-334.5 376.71,-334.5 389.63,-334.5"/>
<polygon fill="#63b8ff" stroke="#63b8ff" points="389.87,-338 399.87,-334.5 389.87,-331 389.87,-338"/>
</a>
</g>
</g>
<!-- Node42 -->
<g id="Node000042" class="node">
<title>Node42</title>
<g id="a_Node000042"><a xlink:href="classCamera.html#a3374b86bbff4f043d1f0051e074b0391" target="_top" xlink:title=" ">
<polygon fill="white" stroke="#666666" points="544.5,-270 400.5,-270 400.5,-251 544.5,-251 544.5,-270"/>
<text text-anchor="middle" x="472.5" y="-258" font-family="Helvetica,sans-Serif" font-size="10.00">Camera::processKeyboard</text>
</a>
</g>
</g>
<!-- Node10&#45;&gt;Node42 -->
<g id="edge39_Node000010_Node000042" class="edge">
<title>Node10&#45;&gt;Node42</title>
<g id="a_edge39_Node000010_Node000042"><a xlink:title=" ">
<path fill="none" stroke="#63b8ff" d="M279.99,-324.87C303.69,-312.55 346.93,-291.27 386,-278.5 392.84,-276.26 400.08,-274.24 407.34,-272.42"/>
<polygon fill="#63b8ff" stroke="#63b8ff" points="408.29,-275.8 417.21,-270.08 406.67,-268.99 408.29,-275.8"/>
</a>
</g>
</g>
<!-- Node43 -->
<g id="Node000043" class="node">
<title>Node43</title>
<g id="a_Node000043"><a xlink:href="classSceneManager.html#a1a46a8c9e99b6b27404a2f870f38749c" target="_top" xlink:title=" ">
<polygon fill="white" stroke="#666666" points="546,-307 399,-307 399,-288 546,-288 546,-307"/>
<text text-anchor="middle" x="472.5" y="-295" font-family="Helvetica,sans-Serif" font-size="10.00">SceneManager::saveScene</text>
</a>
</g>
</g>
<!-- Node10&#45;&gt;Node43 -->
<g id="edge40_Node000010_Node000043" class="edge">
<title>Node10&#45;&gt;Node43</title>
<g id="a_edge40_Node000010_Node000043"><a xlink:title=" ">
<path fill="none" stroke="#63b8ff" d="M315.95,-324.97C343.82,-320.05 378.03,-314.01 407.25,-308.85"/>
<polygon fill="#63b8ff" stroke="#63b8ff" points="408.13,-312.25 417.37,-307.06 406.91,-305.35 408.13,-312.25"/>
</a>
</g>
</g>
<!-- Node50 -->
<g id="Node000050" class="node">
<title>Node50</title>
<g id="a_Node000050"><a xlink:href="classSceneManager.html#a490d6eddd6ef23ffd8f283582a2d7d88" target="_top" xlink:title=" ">
<polygon fill="white" stroke="#666666" points="755,-419 599,-419 599,-400 755,-400 755,-419"/>
<text text-anchor="middle" x="677" y="-407" font-family="Helvetica,sans-Serif" font-size="10.00">SceneManager::setGizmoFor</text>
</a>
</g>
</g>
<!-- Node10&#45;&gt;Node50 -->
<g id="edge47_Node000010_Node000050" class="edge">
<title>Node10&#45;&gt;Node50</title>
<g id="a_edge47_Node000010_Node000050"><a xlink:title=" ">
<path fill="none" stroke="#63b8ff" d="M278.16,-344.09C301.19,-357.22 345.21,-380.31 386,-390.5 452.61,-407.14 530.35,-411.46 588.56,-411.85"/>
<polygon fill="#63b8ff" stroke="#63b8ff" points="588.82,-415.35 598.83,-411.88 588.84,-408.35 588.82,-415.35"/>
</a>
</g>
</g>
<!-- Node13 -->
<g id="Node000013" class="node">
<title>Node13</title>
<g id="a_Node000013"><a xlink:href="classSceneSerializer.html#a490f2bd87e7c9459ee47be974653b433" target="_top" xlink:title=" ">
<polygon fill="white" stroke="#666666" points="759,-344 595,-344 595,-325 759,-325 759,-344"/>
<text text-anchor="middle" x="677" y="-332" font-family="Helvetica,sans-Serif" font-size="10.00">SceneSerializer::loadFromJson</text>
</a>
</g>
</g>
<!-- Node12&#45;&gt;Node13 -->
<g id="edge12_Node000012_Node000013" class="edge">
<title>Node12&#45;&gt;Node13</title>
<g id="a_edge12_Node000012_Node000013"><a xlink:title=" ">
<path fill="none" stroke="#63b8ff" d="M545.18,-334.5C557.96,-334.5 571.44,-334.5 584.68,-334.5"/>
<polygon fill="#63b8ff" stroke="#63b8ff" points="584.75,-338 594.75,-334.5 584.75,-331 584.75,-338"/>
</a>
</g>
</g>
<!-- Node14 -->
<g id="Node000014" class="node">
<title>Node14</title>
<g id="a_Node000014"><a xlink:href="classSceneManager.html#a1daee617aa556b8af8a7202d3f8f28c8" target="_top" xlink:title=" ">
<polygon fill="white" stroke="#666666" points="975,-307 818,-307 818,-288 975,-288 975,-307"/>
<text text-anchor="middle" x="896.5" y="-295" font-family="Helvetica,sans-Serif" font-size="10.00">SceneManager::createObject</text>
</a>
</g>
</g>
<!-- Node13&#45;&gt;Node14 -->
<g id="edge13_Node000013_Node000014" class="edge">
<title>Node13&#45;&gt;Node14</title>
<g id="a_edge13_Node000013_Node000014"><a xlink:title=" ">
<path fill="none" stroke="#63b8ff" d="M734.01,-324.97C763.07,-320.03 798.77,-313.96 829.2,-308.78"/>
<polygon fill="#63b8ff" stroke="#63b8ff" points="830.03,-312.19 839.3,-307.06 828.86,-305.29 830.03,-312.19"/>
</a>
</g>
</g>
<!-- Node25 -->
<g id="Node000025" class="node">
<title>Node25</title>
<g id="a_Node000025"><a xlink:href="classSceneManager.html#a53736fa499987ffff612d3ee7c85442c" target="_top" xlink:title=" ">
<polygon fill="white" stroke="#666666" points="984,-205 809,-205 809,-186 984,-186 984,-205"/>
<text text-anchor="middle" x="896.5" y="-193" font-family="Helvetica,sans-Serif" font-size="10.00">SceneManager::deleteAllObjects</text>
</a>
</g>
</g>
<!-- Node13&#45;&gt;Node25 -->
<g id="edge24_Node000013_Node000025" class="edge">
<title>Node13&#45;&gt;Node25</title>
<g id="a_edge24_Node000013_Node000025"><a xlink:title=" ">
<path fill="none" stroke="#63b8ff" d="M686.78,-324.75C705.12,-304.91 749.56,-259.42 795,-232.5 812.14,-222.34 832.54,-214.21 850.47,-208.18"/>
<polygon fill="#63b8ff" stroke="#63b8ff" points="851.7,-211.46 860.14,-205.05 849.54,-204.8 851.7,-211.46"/>
</a>
</g>
</g>
<!-- Node31 -->
<g id="Node000031" class="node">
<title>Node31</title>
<g id="a_Node000031"><a xlink:href="classResourceManager.html#a3899655c6a1e40089930df4fbc9f1be9" target="_top" xlink:title=" ">
<polygon fill="white" stroke="#666666" points="976.5,-418 816.5,-418 816.5,-399 976.5,-399 976.5,-418"/>
<text text-anchor="middle" x="896.5" y="-406" font-family="Helvetica,sans-Serif" font-size="10.00">ResourceManager::getShader</text>
</a>
</g>
</g>
<!-- Node13&#45;&gt;Node31 -->
<g id="edge27_Node000013_Node000031" class="edge">
<title>Node13&#45;&gt;Node31</title>
<g id="a_edge27_Node000013_Node000031"><a xlink:title=" ">
<path fill="none" stroke="#63b8ff" d="M694.46,-344.14C716.59,-356.68 757.49,-378.41 795,-390.5 802.35,-392.87 810.12,-394.96 817.94,-396.78"/>
<polygon fill="#63b8ff" stroke="#63b8ff" points="817.33,-400.23 827.85,-398.96 818.84,-393.4 817.33,-400.23"/>
</a>
</g>
</g>
<!-- Node32 -->
<g id="Node000032" class="node">
<title>Node32</title>
<g id="a_Node000032"><a xlink:href="namespaceJsonUtils.html#ab8da6e319ea5969afbe6ddd6620add30" target="_top" xlink:title=" ">
<polygon fill="white" stroke="#666666" points="956,-381 837,-381 837,-362 956,-362 956,-381"/>
<text text-anchor="middle" x="896.5" y="-369" font-family="Helvetica,sans-Serif" font-size="10.00">JsonUtils::jsonToVec3</text>
</a>
</g>
</g>
<!-- Node13&#45;&gt;Node32 -->
<g id="edge28_Node000013_Node000032" class="edge">
<title>Node13&#45;&gt;Node32</title>
<g id="a_edge28_Node000013_Node000032"><a xlink:title=" ">
<path fill="none" stroke="#63b8ff" d="M734.01,-344.03C763.07,-348.97 798.77,-355.04 829.2,-360.22"/>
<polygon fill="#63b8ff" stroke="#63b8ff" points="828.86,-363.71 839.3,-361.94 830.03,-356.81 828.86,-363.71"/>
</a>
</g>
</g>
<!-- Node33 -->
<g id="Node000033" class="node">
<title>Node33</title>
<g id="a_Node000033"><a xlink:href="classSceneManager.html#a8dafcb538b1cfbf727b82644ad5815ad" target="_top" xlink:title=" ">
<polygon fill="white" stroke="#666666" points="997.5,-344 795.5,-344 795.5,-325 997.5,-325 997.5,-344"/>
<text text-anchor="middle" x="896.5" y="-332" font-family="Helvetica,sans-Serif" font-size="10.00">SceneManager::setGlobalAcceleration</text>
</a>
</g>
</g>
<!-- Node13&#45;&gt;Node33 -->
<g id="edge29_Node000013_Node000033" class="edge">
<title>Node13&#45;&gt;Node33</title>
<g id="a_edge29_Node000013_Node000033"><a xlink:title=" ">
<path fill="none" stroke="#63b8ff" d="M759.3,-334.5C767.71,-334.5 776.36,-334.5 785.02,-334.5"/>
<polygon fill="#63b8ff" stroke="#63b8ff" points="785.18,-338 795.18,-334.5 785.18,-331 785.18,-338"/>
</a>
</g>
</g>
<!-- Node34 -->
<g id="Node000034" class="node">
<title>Node34</title>
<g id="a_Node000034"><a xlink:href="classSceneManager.html#af40d0ff3e76f89bbf5504f1694814179" target="_top" xlink:title=" ">
<polygon fill="white" stroke="#666666" points="974,-460 819,-460 819,-441 974,-441 974,-460"/>
<text text-anchor="middle" x="896.5" y="-448" font-family="Helvetica,sans-Serif" font-size="10.00">SceneManager::setSelectFor</text>
</a>
</g>
</g>
<!-- Node13&#45;&gt;Node34 -->
<g id="edge30_Node000013_Node000034" class="edge">
<title>Node13&#45;&gt;Node34</title>
<g id="a_edge30_Node000013_Node000034"><a xlink:title=" ">
<path fill="none" stroke="#63b8ff" d="M693.2,-344.06C709.91,-354.84 737.29,-373.24 759,-391.5 776.32,-406.06 775.2,-416.55 795,-427.5 802.68,-431.75 811.11,-435.21 819.71,-438.04"/>
<polygon fill="#63b8ff" stroke="#63b8ff" points="818.89,-441.45 829.47,-440.96 820.9,-434.74 818.89,-441.45"/>
</a>
</g>
</g>
<!-- Node40 -->
<g id="Node000040" class="node">
<title>Node40</title>
<g id="a_Node000040"><a xlink:href="classSceneManager.html#a64f4064d9201d062a24f750763c1f703" target="_top" xlink:title=" ">
<polygon fill="white" stroke="#666666" points="975.5,-261 817.5,-261 817.5,-242 975.5,-242 975.5,-261"/>
<text text-anchor="middle" x="896.5" y="-249" font-family="Helvetica,sans-Serif" font-size="10.00">SceneManager::setSimSpeed</text>
</a>
</g>
</g>
<!-- Node13&#45;&gt;Node40 -->
<g id="edge37_Node000013_Node000040" class="edge">
<title>Node13&#45;&gt;Node40</title>
<g id="a_edge37_Node000013_Node000040"><a xlink:title=" ">
<path fill="none" stroke="#63b8ff" d="M695.4,-324.92C717.88,-312.84 758.46,-292.02 795,-278.5 810.29,-272.84 827.29,-267.82 842.89,-263.68"/>
<polygon fill="#63b8ff" stroke="#63b8ff" points="844.1,-266.99 852.91,-261.1 842.35,-260.21 844.1,-266.99"/>
</a>
</g>
</g>
<!-- Node15 -->
<g id="Node000015" class="node">
<title>Node15</title>
<g id="a_Node000015"><a xlink:href="classSceneManager.html#ad0d1661e5869720d7a07b1912d75318d" target="_top" xlink:title=" ">
<polygon fill="white" stroke="#666666" points="1206,-314 1047,-314 1047,-295 1206,-295 1206,-314"/>
<text text-anchor="middle" x="1126.5" y="-302" font-family="Helvetica,sans-Serif" font-size="10.00">SceneManager::addDrawable</text>
</a>
</g>
</g>
<!-- Node14&#45;&gt;Node15 -->
<g id="edge14_Node000014_Node000015" class="edge">
<title>Node14&#45;&gt;Node15</title>
<g id="a_edge14_Node000014_Node000015"><a xlink:title=" ">
<path fill="none" stroke="#63b8ff" d="M975.01,-299.88C994.78,-300.49 1016.18,-301.14 1036.48,-301.77"/>
<polygon fill="#63b8ff" stroke="#63b8ff" points="1036.55,-305.27 1046.65,-302.08 1036.77,-298.27 1036.55,-305.27"/>
</a>
</g>
</g>
<!-- Node17 -->
<g id="Node000017" class="node">
<title>Node17</title>
<g id="a_Node000017"><a xlink:href="classSceneManager.html#a31d525542db0b239ba61dd36a3d92d43" target="_top" xlink:title=" ">
<polygon fill="white" stroke="#666666" points="1203,-277 1050,-277 1050,-258 1203,-258 1203,-277"/>
<text text-anchor="middle" x="1126.5" y="-265" font-family="Helvetica,sans-Serif" font-size="10.00">SceneManager::addPickable</text>
</a>
</g>
</g>
<!-- Node14&#45;&gt;Node17 -->
<g id="edge16_Node000014_Node000017" class="edge">
<title>Node14&#45;&gt;Node17</title>
<g id="a_edge16_Node000014_Node000017"><a xlink:title=" ">
<path fill="none" stroke="#63b8ff" d="M969.95,-287.97C993.23,-284.9 1019.18,-281.49 1043.11,-278.34"/>
<polygon fill="#63b8ff" stroke="#63b8ff" points="1043.78,-281.78 1053.23,-277.01 1042.86,-274.84 1043.78,-281.78"/>
</a>
</g>
</g>
<!-- Node18 -->
<g id="Node000018" class="node">
<title>Node18</title>
<g id="a_Node000018"><a xlink:href="classSceneManager.html#ab6a7ecbff438f2dbee8a0f31795456f9" target="_top" xlink:title=" ">
<polygon fill="white" stroke="#666666" points="1219,-240 1034,-240 1034,-221 1219,-221 1219,-240"/>
<text text-anchor="middle" x="1126.5" y="-228" font-family="Helvetica,sans-Serif" font-size="10.00">SceneManager::makeUniqueName</text>
</a>
</g>
</g>
<!-- Node14&#45;&gt;Node18 -->
<g id="edge17_Node000014_Node000018" class="edge">
<title>Node14&#45;&gt;Node18</title>
<g id="a_edge17_Node000014_Node000018"><a xlink:title=" ">
<path fill="none" stroke="#63b8ff" d="M941.37,-287.88C959.28,-283.29 979.98,-277.12 998,-269.5 1015.06,-262.29 1016.67,-255.05 1034,-248.5 1039.86,-246.28 1046.05,-244.33 1052.32,-242.6"/>
<polygon fill="#63b8ff" stroke="#63b8ff" points="1053.39,-245.94 1062.21,-240.08 1051.66,-239.16 1053.39,-245.94"/>
</a>
</g>
</g>
<!-- Node19 -->
<g id="Node000019" class="node">
<title>Node19</title>
<g id="a_Node000019"><a xlink:href="classSceneManager.html#a76592c383a85fda664a79fa155ead19e" target="_top" xlink:title=" ">
<polygon fill="white" stroke="#666666" points="1204,-388 1049,-388 1049,-369 1204,-369 1204,-388"/>
<text text-anchor="middle" x="1126.5" y="-376" font-family="Helvetica,sans-Serif" font-size="10.00">SceneManager::objectAdded</text>
</a>
</g>
</g>
<!-- Node14&#45;&gt;Node19 -->
<g id="edge18_Node000014_Node000019" class="edge">
<title>Node14&#45;&gt;Node19</title>
<g id="a_edge18_Node000014_Node000019"><a xlink:title=" ">
<path fill="none" stroke="#63b8ff" d="M975.25,-306.46C983.23,-309.04 990.98,-312.33 998,-316.5 1019.72,-329.4 1012.32,-347.52 1034,-360.5 1036.85,-362.21 1039.83,-363.75 1042.89,-365.16"/>
<polygon fill="#63b8ff" stroke="#63b8ff" points="1041.76,-368.47 1052.34,-368.95 1044.37,-361.98 1041.76,-368.47"/>
</a>
</g>
</g>
<!-- Node20 -->
<g id="Node000020" class="node">
<title>Node20</title>
<g id="a_Node000020"><a xlink:href="classSceneManager.html#aad894e90cf7ad353aab707f966c9711d" target="_top" xlink:title=" ">
<polygon fill="white" stroke="#666666" points="1211.5,-351 1041.5,-351 1041.5,-332 1211.5,-332 1211.5,-351"/>
<text text-anchor="middle" x="1126.5" y="-339" font-family="Helvetica,sans-Serif" font-size="10.00">SceneManager::setObjectName</text>
</a>
</g>
</g>
<!-- Node14&#45;&gt;Node20 -->
<g id="edge19_Node000014_Node000020" class="edge">
<title>Node14&#45;&gt;Node20</title>
<g id="a_edge19_Node000014_Node000020"><a xlink:title=" ">
<path fill="none" stroke="#63b8ff" d="M948.12,-307C964.09,-310.02 981.78,-313.38 998,-316.5 1011.26,-319.05 1039.99,-324.68 1066.84,-329.96"/>
<polygon fill="#63b8ff" stroke="#63b8ff" points="1066.51,-333.46 1076.99,-331.95 1067.86,-326.59 1066.51,-333.46"/>
</a>
</g>
</g>
<!-- Node16 -->
<g id="Node000016" class="node">
<title>Node16</title>
<g id="a_Node000016"><a xlink:href="classScene.html#aa2773ce73d9158e1e3a9c97d26a7e727" target="_top" xlink:title=" ">
<polygon fill="white" stroke="#666666" points="1402.5,-277 1286.5,-277 1286.5,-258 1402.5,-258 1402.5,-277"/>
<text text-anchor="middle" x="1344.5" y="-265" font-family="Helvetica,sans-Serif" font-size="10.00">Scene::addDrawable</text>
</a>
</g>
</g>
<!-- Node15&#45;&gt;Node16 -->
<g id="edge15_Node000015_Node000016" class="edge">
<title>Node15&#45;&gt;Node16</title>
<g id="a_edge15_Node000015_Node000016"><a xlink:title=" ">
<path fill="none" stroke="#63b8ff" d="M1183.13,-294.97C1211.99,-290.03 1247.43,-283.96 1277.66,-278.78"/>
<polygon fill="#63b8ff" stroke="#63b8ff" points="1278.42,-282.2 1287.69,-277.06 1277.24,-275.3 1278.42,-282.2"/>
</a>
</g>
</g>
<!-- Node21 -->
<g id="Node000021" class="node">
<title>Node21</title>
<g id="a_Node000021"><a xlink:href="classSceneObject.html#abebc043e3253d66da477f862a950775d" target="_top" xlink:title=" ">
<polygon fill="white" stroke="#666666" points="1408.5,-425 1280.5,-425 1280.5,-406 1408.5,-406 1408.5,-425"/>
<text text-anchor="middle" x="1344.5" y="-413" font-family="Helvetica,sans-Serif" font-size="10.00">SceneObject::getName</text>
</a>
</g>
</g>
<!-- Node20&#45;&gt;Node21 -->
<g id="edge20_Node000020_Node000021" class="edge">
<title>Node20&#45;&gt;Node21</title>
<g id="a_edge20_Node000020_Node000021"><a xlink:title=" ">
<path fill="none" stroke="#63b8ff" d="M1196.08,-351.03C1204.06,-353.49 1211.89,-356.6 1219,-360.5 1239.11,-371.54 1234.86,-386.5 1255,-397.5 1259.9,-400.18 1265.15,-402.46 1270.56,-404.4"/>
<polygon fill="#63b8ff" stroke="#63b8ff" points="1269.84,-407.84 1280.43,-407.55 1271.96,-401.17 1269.84,-407.84"/>
</a>
</g>
</g>
<!-- Node22 -->
<g id="Node000022" class="node">
<title>Node22</title>
<g id="a_Node000022"><a xlink:href="classSceneManager.html#a624cd344feba3357d2ec95bab7229a6f" target="_top" xlink:title=" ">
<polygon fill="white" stroke="#666666" points="1428,-388 1261,-388 1261,-369 1428,-369 1428,-388"/>
<text text-anchor="middle" x="1344.5" y="-376" font-family="Helvetica,sans-Serif" font-size="10.00">SceneManager::isNameUnique</text>
</a>
</g>
</g>
<!-- Node20&#45;&gt;Node22 -->
<g id="edge21_Node000020_Node000022" class="edge">
<title>Node20&#45;&gt;Node22</title>
<g id="a_edge21_Node000020_Node000022"><a xlink:title=" ">
<path fill="none" stroke="#63b8ff" d="M1183.13,-351.03C1211.99,-355.97 1247.43,-362.04 1277.66,-367.22"/>
<polygon fill="#63b8ff" stroke="#63b8ff" points="1277.24,-370.7 1287.69,-368.94 1278.42,-363.8 1277.24,-370.7"/>
</a>
</g>
</g>
<!-- Node23 -->
<g id="Node000023" class="node">
<title>Node23</title>
<g id="a_Node000023"><a xlink:href="classSceneManager.html#a76dba0a09f8b2a1dc376236f904a9c3a" target="_top" xlink:title=" ">
<polygon fill="white" stroke="#666666" points="1430,-351 1259,-351 1259,-332 1430,-332 1430,-351"/>
<text text-anchor="middle" x="1344.5" y="-339" font-family="Helvetica,sans-Serif" font-size="10.00">SceneManager::objectRenamed</text>
</a>
</g>
</g>
<!-- Node20&#45;&gt;Node23 -->
<g id="edge22_Node000020_Node000023" class="edge">
<title>Node20&#45;&gt;Node23</title>
<g id="a_edge22_Node000020_Node000023"><a xlink:title=" ">
<path fill="none" stroke="#63b8ff" d="M1211.63,-341.5C1223.75,-341.5 1236.3,-341.5 1248.61,-341.5"/>
<polygon fill="#63b8ff" stroke="#63b8ff" points="1248.89,-345 1258.89,-341.5 1248.89,-338 1248.89,-345"/>
</a>
</g>
</g>
<!-- Node24 -->
<g id="Node000024" class="node">
<title>Node24</title>
<g id="a_Node000024"><a xlink:href="classSceneObject.html#ad8ac9406b35bee3cd4fad75db013d9c4" target="_top" xlink:title=" ">
<polygon fill="white" stroke="#666666" points="1408.5,-314 1280.5,-314 1280.5,-295 1408.5,-295 1408.5,-314"/>
<text text-anchor="middle" x="1344.5" y="-302" font-family="Helvetica,sans-Serif" font-size="10.00">SceneObject::setName</text>
</a>
</g>
</g>
<!-- Node20&#45;&gt;Node24 -->
<g id="edge23_Node000020_Node000024" class="edge">
<title>Node20&#45;&gt;Node24</title>
<g id="a_edge23_Node000020_Node000024"><a xlink:title=" ">
<path fill="none" stroke="#63b8ff" d="M1183.13,-331.97C1211.99,-327.03 1247.43,-320.96 1277.66,-315.78"/>
<polygon fill="#63b8ff" stroke="#63b8ff" points="1278.42,-319.2 1287.69,-314.06 1277.24,-312.3 1278.42,-319.2"/>
</a>
</g>
</g>
<!-- Node26 -->
<g id="Node000026" class="node">
<title>Node26</title>
<g id="a_Node000026"><a xlink:href="classSceneManager.html#a4543114007c5bb40ddab62cd9f2ac613" target="_top" xlink:title=" ">
<polygon fill="#fff0f0" stroke="red" points="1423,-203 1266,-203 1266,-184 1423,-184 1423,-203"/>
<text text-anchor="middle" x="1344.5" y="-191" font-family="Helvetica,sans-Serif" font-size="10.00">SceneManager::deleteObject</text>
</a>
</g>
</g>
<!-- Node25&#45;&gt;Node26 -->
<g id="edge25_Node000025_Node000026" class="edge">
<title>Node25&#45;&gt;Node26</title>
<g id="a_edge25_Node000025_Node000026"><a xlink:title=" ">
<path fill="none" stroke="#63b8ff" d="M947.21,-185.99C973,-181.52 1005.07,-176.71 1034,-174.5 1115.98,-168.23 1137.01,-168.28 1219,-174.5 1239.89,-176.08 1262.58,-179.14 1282.8,-182.35"/>
<polygon fill="#63b8ff" stroke="#63b8ff" points="1282.38,-185.83 1292.82,-183.99 1283.51,-178.92 1282.38,-185.83"/>
</a>
</g>
</g>
<!-- Node29 -->
<g id="Node000029" class="node">
<title>Node29</title>
<g id="a_Node000029"><a xlink:href="classScene.html#a398bf0981ca0b3f5ade648b1d95513cc" target="_top" xlink:title=" ">
<polygon fill="white" stroke="#666666" points="1606,-335 1470,-335 1470,-316 1606,-316 1606,-335"/>
<text text-anchor="middle" x="1538" y="-323" font-family="Helvetica,sans-Serif" font-size="10.00">Scene::removeDrawable</text>
</a>
</g>
</g>
<!-- Node26&#45;&gt;Node29 -->
<g id="edge26_Node000026_Node000029" class="edge">
<title>Node26&#45;&gt;Node29</title>
<g id="a_edge26_Node000026_Node000029"><a xlink:title=" ">
<path fill="none" stroke="#63b8ff" d="M1361.75,-203.03C1379.71,-213.69 1409.35,-231.67 1434,-248.5 1463.53,-268.66 1496.41,-293.72 1516.9,-309.67"/>
<polygon fill="#63b8ff" stroke="#63b8ff" points="1514.85,-312.51 1524.88,-315.91 1519.16,-306.99 1514.85,-312.51"/>
</a>
</g>
</g>
<!-- Node35 -->
<g id="Node000035" class="node">
<title>Node35</title>
<g id="a_Node000035"><a xlink:href="classSceneManager.html#a99992b526976863d1dab7dc88cc6ec2a" target="_top" xlink:title=" ">
<polygon fill="white" stroke="#666666" points="1207,-510.5 1046,-510.5 1046,-480.5 1207,-480.5 1207,-510.5"/>
<text text-anchor="start" x="1054" y="-498.5" font-family="Helvetica,sans-Serif" font-size="10.00">SceneManager::deleteCurrent</text>
<text text-anchor="middle" x="1126.5" y="-487.5" font-family="Helvetica,sans-Serif" font-size="10.00">Gizmo</text>
</a>
</g>
</g>
<!-- Node34&#45;&gt;Node35 -->
<g id="edge31_Node000034_Node000035" class="edge">
<title>Node34&#45;&gt;Node35</title>
<g id="a_edge31_Node000034_Node000035"><a xlink:title=" ">
<path fill="none" stroke="#63b8ff" d="M945.85,-460.04C972.98,-465.4 1007.63,-472.24 1039.25,-478.48"/>
<polygon fill="#63b8ff" stroke="#63b8ff" points="1038.91,-481.98 1049.4,-480.48 1040.27,-475.11 1038.91,-481.98"/>
</a>
</g>
</g>
<!-- Node38 -->
<g id="Node000038" class="node">
<title>Node38</title>
<g id="a_Node000038"><a xlink:href="classSceneObject.html#ad77f12eb793b32da2ef40f0042cb1de8" target="_top" xlink:title=" ">
<polygon fill="white" stroke="#666666" points="1197,-462 1056,-462 1056,-443 1197,-443 1197,-462"/>
<text text-anchor="middle" x="1126.5" y="-450" font-family="Helvetica,sans-Serif" font-size="10.00">SceneObject::getObjectID</text>
</a>
</g>
</g>
<!-- Node34&#45;&gt;Node38 -->
<g id="edge35_Node000034_Node000038" class="edge">
<title>Node34&#45;&gt;Node38</title>
<g id="a_edge35_Node000034_Node000038"><a xlink:title=" ">
<path fill="none" stroke="#63b8ff" d="M974.05,-451.17C997.04,-451.37 1022.32,-451.59 1045.52,-451.8"/>
<polygon fill="#63b8ff" stroke="#63b8ff" points="1045.64,-455.3 1055.67,-451.89 1045.71,-448.3 1045.64,-455.3"/>
</a>
</g>
</g>
<!-- Node39 -->
<g id="Node000039" class="node">
<title>Node39</title>
<g id="a_Node000039"><a xlink:href="classSceneManager.html#a25bec2896954b4f0c3bed8ef736993d3" target="_top" xlink:title=" ">
<polygon fill="white" stroke="#666666" points="1205.5,-425 1047.5,-425 1047.5,-406 1205.5,-406 1205.5,-425"/>
<text text-anchor="middle" x="1126.5" y="-413" font-family="Helvetica,sans-Serif" font-size="10.00">SceneManager::selectedItem</text>
</a>
</g>
</g>
<!-- Node34&#45;&gt;Node39 -->
<g id="edge36_Node000034_Node000039" class="edge">
<title>Node34&#45;&gt;Node39</title>
<g id="a_edge36_Node000034_Node000039"><a xlink:title=" ">
<path fill="none" stroke="#63b8ff" d="M959.5,-440.98C988.53,-436.53 1023.28,-431.19 1053.46,-426.56"/>
<polygon fill="#63b8ff" stroke="#63b8ff" points="1054.16,-429.99 1063.51,-425.02 1053.1,-423.07 1054.16,-429.99"/>
</a>
</g>
</g>
<!-- Node36 -->
<g id="Node000036" class="node">
<title>Node36</title>
<g id="a_Node000036"><a xlink:href="classSceneManager.html#ab7c34393bb10361069b0ea73ec2797f8" target="_top" xlink:title=" ">
<polygon fill="white" stroke="#666666" points="1434,-505 1255,-505 1255,-486 1434,-486 1434,-505"/>
<text text-anchor="middle" x="1344.5" y="-493" font-family="Helvetica,sans-Serif" font-size="10.00">SceneManager::removeDrawable</text>
</a>
</g>
</g>
<!-- Node35&#45;&gt;Node36 -->
<g id="edge32_Node000035_Node000036" class="edge">
<title>Node35&#45;&gt;Node36</title>
<g id="a_edge32_Node000035_Node000036"><a xlink:title=" ">
<path fill="none" stroke="#63b8ff" d="M1207.01,-495.5C1219.25,-495.5 1232.02,-495.5 1244.63,-495.5"/>
<polygon fill="#63b8ff" stroke="#63b8ff" points="1244.69,-499 1254.69,-495.5 1244.69,-492 1244.69,-499"/>
</a>
</g>
</g>
<!-- Node37 -->
<g id="Node000037" class="node">
<title>Node37</title>
<g id="a_Node000037"><a xlink:href="classSceneManager.html#a1c647e38474ee02d5dd8510bc2313c38" target="_top" xlink:title=" ">
<polygon fill="white" stroke="#666666" points="1431,-468 1258,-468 1258,-449 1431,-449 1431,-468"/>
<text text-anchor="middle" x="1344.5" y="-456" font-family="Helvetica,sans-Serif" font-size="10.00">SceneManager::removePickable</text>
</a>
</g>
</g>
<!-- Node35&#45;&gt;Node37 -->
<g id="edge34_Node000035_Node000037" class="edge">
<title>Node35&#45;&gt;Node37</title>
<g id="a_edge34_Node000035_Node000037"><a xlink:title=" ">
<path fill="none" stroke="#63b8ff" d="M1207.01,-481.88C1230.27,-477.9 1255.43,-473.59 1277.74,-469.76"/>
<polygon fill="#63b8ff" stroke="#63b8ff" points="1278.51,-473.18 1287.77,-468.05 1277.32,-466.28 1278.51,-473.18"/>
</a>
</g>
</g>
<!-- Node36&#45;&gt;Node29 -->
<g id="edge33_Node000036_Node000029" class="edge">
<title>Node36&#45;&gt;Node29</title>
<g id="a_edge33_Node000036_Node000029"><a xlink:title=" ">
<path fill="none" stroke="#63b8ff" d="M1417.5,-485.94C1423.32,-483.67 1428.91,-480.89 1434,-477.5 1484.02,-444.16 1516.24,-377.45 1529.74,-344.63"/>
<polygon fill="#63b8ff" stroke="#63b8ff" points="1533.03,-345.84 1533.47,-335.25 1526.52,-343.25 1533.03,-345.84"/>
</a>
</g>
</g>
<!-- Node41 -->
<g id="Node000041" class="node">
<title>Node41</title>
<g id="a_Node000041"><a xlink:href="classOpenGLWindow.html#ad664443240cdd277b10bacbf1608478b" target="_top" xlink:title=" ">
<polygon fill="white" stroke="#666666" points="1207.5,-203 1045.5,-203 1045.5,-184 1207.5,-184 1207.5,-203"/>
<text text-anchor="middle" x="1126.5" y="-191" font-family="Helvetica,sans-Serif" font-size="10.00">OpenGLWindow::setSimSpeed</text>
</a>
</g>
</g>
<!-- Node40&#45;&gt;Node41 -->
<g id="edge38_Node000040_Node000041" class="edge">
<title>Node40&#45;&gt;Node41</title>
<g id="a_edge38_Node000040_Node000041"><a xlink:title=" ">
<path fill="none" stroke="#63b8ff" d="M927.11,-241.98C954.62,-233.33 996.82,-220.59 1034,-211.5 1043.22,-209.25 1053.02,-207.08 1062.64,-205.08"/>
<polygon fill="#63b8ff" stroke="#63b8ff" points="1063.48,-208.48 1072.58,-203.06 1062.08,-201.62 1063.48,-208.48"/>
</a>
</g>
</g>
<!-- Node44 -->
<g id="Node000044" class="node">
<title>Node44</title>
<g id="a_Node000044"><a xlink:href="classSceneSerializer.html#a56e278bcdda1f03f192797122dd6d0c0" target="_top" xlink:title=" ">
<polygon fill="white" stroke="#666666" points="753,-93 601,-93 601,-74 753,-74 753,-93"/>
<text text-anchor="middle" x="677" y="-81" font-family="Helvetica,sans-Serif" font-size="10.00">SceneSerializer::saveToJson</text>
</a>
</g>
</g>
<!-- Node43&#45;&gt;Node44 -->
<g id="edge41_Node000043_Node000044" class="edge">
<title>Node43&#45;&gt;Node44</title>
<g id="a_edge41_Node000043_Node000044"><a xlink:title=" ">
<path fill="none" stroke="#63b8ff" d="M541.56,-287.87C547.76,-285.4 553.7,-282.32 559,-278.5 621.94,-233.13 657.2,-142.5 670.18,-102.84"/>
<polygon fill="#63b8ff" stroke="#63b8ff" points="673.59,-103.67 673.26,-93.08 666.91,-101.57 673.59,-103.67"/>
</a>
</g>
</g>
<!-- Node45 -->
<g id="Node000045" class="node">
<title>Node45</title>
<g id="a_Node000045"><a xlink:href="classSceneManager.html#ad73f1ee3bdfe2567544871845707ce0f" target="_top" xlink:title=" ">
<polygon fill="white" stroke="#666666" points="998,-93 795,-93 795,-74 998,-74 998,-93"/>
<text text-anchor="middle" x="896.5" y="-81" font-family="Helvetica,sans-Serif" font-size="10.00">SceneManager::getGlobalAcceleration</text>
</a>
</g>
</g>
<!-- Node44&#45;&gt;Node45 -->
<g id="edge42_Node000044_Node000045" class="edge">
<title>Node44&#45;&gt;Node45</title>
<g id="a_edge42_Node000044_Node000045"><a xlink:title=" ">
<path fill="none" stroke="#63b8ff" d="M753.16,-83.5C763.3,-83.5 773.87,-83.5 784.48,-83.5"/>
<polygon fill="#63b8ff" stroke="#63b8ff" points="784.64,-87 794.64,-83.5 784.64,-80 784.64,-87"/>
</a>
</g>
</g>
<!-- Node46 -->
<g id="Node000046" class="node">
<title>Node46</title>
<g id="a_Node000046"><a xlink:href="classSceneManager.html#ad8688edec501c8e945dff1a85c7e33c7" target="_top" xlink:title=" ">
<polygon fill="white" stroke="#666666" points="970,-56 823,-56 823,-37 970,-37 970,-56"/>
<text text-anchor="middle" x="896.5" y="-44" font-family="Helvetica,sans-Serif" font-size="10.00">SceneManager::getObjects</text>
</a>
</g>
</g>
<!-- Node44&#45;&gt;Node46 -->
<g id="edge43_Node000044_Node000046" class="edge">
<title>Node44&#45;&gt;Node46</title>
<g id="a_edge43_Node000044_Node000046"><a xlink:title=" ">
<path fill="none" stroke="#63b8ff" d="M734.01,-73.97C763.07,-69.03 798.77,-62.96 829.2,-57.78"/>
<polygon fill="#63b8ff" stroke="#63b8ff" points="830.03,-61.19 839.3,-56.06 828.86,-54.29 830.03,-61.19"/>
</a>
</g>
</g>
<!-- Node47 -->
<g id="Node000047" class="node">
<title>Node47</title>
<g id="a_Node000047"><a xlink:href="classSceneManager.html#ae085a7aade1b9a2adcb7d9f1b2660790" target="_top" xlink:title=" ">
<polygon fill="white" stroke="#666666" points="976,-130 817,-130 817,-111 976,-111 976,-130"/>
<text text-anchor="middle" x="896.5" y="-118" font-family="Helvetica,sans-Serif" font-size="10.00">SceneManager::getSimSpeed</text>
</a>
</g>
</g>
<!-- Node44&#45;&gt;Node47 -->
<g id="edge44_Node000044_Node000047" class="edge">
<title>Node44&#45;&gt;Node47</title>
<g id="a_edge44_Node000044_Node000047"><a xlink:title=" ">
<path fill="none" stroke="#63b8ff" d="M734.01,-93.03C763.07,-97.97 798.77,-104.04 829.2,-109.22"/>
<polygon fill="#63b8ff" stroke="#63b8ff" points="828.86,-112.71 839.3,-110.94 830.03,-105.81 828.86,-112.71"/>
</a>
</g>
</g>
<!-- Node49 -->
<g id="Node000049" class="node">
<title>Node49</title>
<g id="a_Node000049"><a xlink:href="namespaceJsonUtils.html#aa9bf373a72d131da0b8d71ade1295533" target="_top" xlink:title=" ">
<polygon fill="white" stroke="#666666" points="956,-19 837,-19 837,0 956,0 956,-19"/>
<text text-anchor="middle" x="896.5" y="-7" font-family="Helvetica,sans-Serif" font-size="10.00">JsonUtils::vec3ToJson</text>
</a>
</g>
</g>
<!-- Node44&#45;&gt;Node49 -->
<g id="edge46_Node000044_Node000049" class="edge">
<title>Node44&#45;&gt;Node49</title>
<g id="a_edge46_Node000044_Node000049"><a xlink:title=" ">
<path fill="none" stroke="#63b8ff" d="M694.46,-73.86C716.59,-61.32 757.49,-39.59 795,-27.5 805.2,-24.21 816.2,-21.47 827.04,-19.2"/>
<polygon fill="#63b8ff" stroke="#63b8ff" points="827.79,-22.62 836.92,-17.25 826.43,-15.76 827.79,-22.62"/>
</a>
</g>
</g>
<!-- Node48 -->
<g id="Node000048" class="node">
<title>Node48</title>
<g id="a_Node000048"><a xlink:href="classOpenGLWindow.html#aeabd921e42871e7ecb6d2297580d5b81" target="_top" xlink:title=" ">
<polygon fill="white" stroke="#666666" points="1208,-127 1045,-127 1045,-108 1208,-108 1208,-127"/>
<text text-anchor="middle" x="1126.5" y="-115" font-family="Helvetica,sans-Serif" font-size="10.00">OpenGLWindow::getSimSpeed</text>
</a>
</g>
</g>
<!-- Node47&#45;&gt;Node48 -->
<g id="edge45_Node000047_Node000048" class="edge">
<title>Node47&#45;&gt;Node48</title>
<g id="a_edge45_Node000047_Node000048"><a xlink:title=" ">
<path fill="none" stroke="#63b8ff" d="M976.28,-119.46C995.14,-119.22 1015.41,-118.95 1034.76,-118.69"/>
<polygon fill="#63b8ff" stroke="#63b8ff" points="1034.82,-122.19 1044.78,-118.56 1034.73,-115.19 1034.82,-122.19"/>
</a>
</g>
</g>
<!-- Node50&#45;&gt;Node35 -->
<g id="edge48_Node000050_Node000035" class="edge">
<title>Node50&#45;&gt;Node35</title>
<g id="a_edge48_Node000050_Node000035"><a xlink:title=" ">
<path fill="none" stroke="#63b8ff" d="M735.48,-419.13C743.7,-421.79 751.79,-425.18 759,-429.5 779.51,-441.8 773.55,-458.92 795,-469.5 870.03,-506.51 966.4,-509.87 1035.69,-505.87"/>
<polygon fill="#63b8ff" stroke="#63b8ff" points="1035.96,-509.36 1045.72,-505.23 1035.51,-502.37 1035.96,-509.36"/>
</a>
</g>
</g>
<!-- Node52 -->
<g id="Node000052" class="node">
<title>Node52</title>
<g id="a_Node000052"><a xlink:href="namespaceMath.html#aec8403064a88272999c2c143ef03a9fd" target="_top" xlink:title="Finds the first object intersected by a ray.">
<polygon fill="white" stroke="#666666" points="523,-233 422,-233 422,-214 523,-214 523,-233"/>
<text text-anchor="middle" x="472.5" y="-221" font-family="Helvetica,sans-Serif" font-size="10.00">Math::findFirstHit</text>
</a>
</g>
</g>
<!-- Node51&#45;&gt;Node52 -->
<g id="edge50_Node000051_Node000052" class="edge">
<title>Node51&#45;&gt;Node52</title>
<g id="a_edge50_Node000051_Node000052"><a xlink:title=" ">
<path fill="none" stroke="#63b8ff" d="M340.01,-223.5C363.61,-223.5 389.15,-223.5 411.39,-223.5"/>
<polygon fill="#63b8ff" stroke="#63b8ff" points="411.69,-227 421.69,-223.5 411.69,-220 411.69,-227"/>
</a>
</g>
</g>
<!-- Node53 -->
<g id="Node000053" class="node">
<title>Node53</title>
<g id="a_Node000053"><a xlink:href="classIPickable.html#a633ac40ae443d7a7935a34d145514bea" target="_top" xlink:title=" ">
<polygon fill="white" stroke="#666666" points="534.5,-196 410.5,-196 410.5,-177 534.5,-177 534.5,-196"/>
<text text-anchor="middle" x="472.5" y="-184" font-family="Helvetica,sans-Serif" font-size="10.00">IPickable::getObjectID</text>
</a>
</g>
</g>
<!-- Node51&#45;&gt;Node53 -->
<g id="edge51_Node000051_Node000053" class="edge">
<title>Node51&#45;&gt;Node53</title>
<g id="a_edge51_Node000051_Node000053"><a xlink:title=" ">
<path fill="none" stroke="#63b8ff" d="M340.01,-209.72C362.31,-205.78 386.33,-201.54 407.67,-197.77"/>
<polygon fill="#63b8ff" stroke="#63b8ff" points="408.35,-201.21 417.59,-196.02 407.13,-194.31 408.35,-201.21"/>
</a>
</g>
</g>
</g>
</svg>
