<?xml version="1.0" encoding="UTF-8" standalone="no"?>
<!DOCTYPE svg PUBLIC "-//W3C//DTD SVG 1.1//EN"
 "http://www.w3.org/Graphics/SVG/1.1/DTD/svg11.dtd">
<!-- Generated by graphviz version 2.43.0 (0)
 -->
<!-- Title: SceneManager Pages: 1 -->
<svg width="284pt" height="93pt"
 viewBox="0.00 0.00 283.50 93.00" xmlns="http://www.w3.org/2000/svg" xmlns:xlink="http://www.w3.org/1999/xlink">
<g id="graph0" class="graph" transform="scale(1 1) rotate(0) translate(4 89)">
<title>SceneManager</title>
<!-- Node1 -->
<g id="Node000001" class="node">
<title>Node1</title>
<g id="a_Node000001"><a xlink:title=" ">
<polygon fill="#999999" stroke="#666666" points="141.5,-19 52.5,-19 52.5,0 141.5,0 141.5,-19"/>
<text text-anchor="middle" x="97" y="-7" font-family="Helvetica,sans-Serif" font-size="10.00">SceneManager</text>
</a>
</g>
</g>
<!-- Node2 -->
<g id="Node000002" class="node">
<title>Node2</title>
<g id="a_Node000002"><a xlink:title=" ">
<polygon fill="white" stroke="#666666" points="56,-85 0,-85 0,-66 56,-66 56,-85"/>
<text text-anchor="middle" x="28" y="-73" font-family="Helvetica,sans-Serif" font-size="10.00">QObject</text>
</a>
</g>
</g>
<!-- Node2&#45;&gt;Node1 -->
<g id="edge1_Node000001_Node000002" class="edge">
<title>Node2&#45;&gt;Node1</title>
<g id="a_edge1_Node000001_Node000002"><a xlink:title=" ">
<path fill="none" stroke="#63b8ff" d="M44.89,-58.83C58.25,-46.44 76.42,-29.59 87.4,-19.41"/>
<polygon fill="#63b8ff" stroke="#63b8ff" points="42.26,-56.5 37.31,-65.87 47.02,-61.63 42.26,-56.5"/>
</a>
</g>
</g>
<!-- Node3 -->
<g id="Node000003" class="node">
<title>Node3</title>
<g id="a_Node000003"><a xlink:href="classScene.html" target="_top" xlink:title=" ">
<polygon fill="white" stroke="#666666" points="120,-85 74,-85 74,-66 120,-66 120,-85"/>
<text text-anchor="middle" x="97" y="-73" font-family="Helvetica,sans-Serif" font-size="10.00">Scene</text>
</a>
</g>
</g>
<!-- Node3&#45;&gt;Node1 -->
<g id="edge2_Node000001_Node000003" class="edge">
<title>Node3&#45;&gt;Node1</title>
<g id="a_edge2_Node000001_Node000003"><a xlink:title=" ">
<path fill="none" stroke="#9a32cd" stroke-dasharray="5,2" d="M97,-55.58C97,-43.63 97,-28.72 97,-19.41"/>
<polygon fill="#9a32cd" stroke="#9a32cd" points="93.5,-55.87 97,-65.87 100.5,-55.87 93.5,-55.87"/>
</a>
</g>
<text text-anchor="middle" x="113" y="-40" font-family="Helvetica,sans-Serif" font-size="10.00" fill="grey"> scene</text>
</g>
<!-- Node4 -->
<g id="Node000004" class="node">
<title>Node4</title>
<g id="a_Node000004"><a xlink:href="structSimulationStopCondition.html" target="_top" xlink:title=" ">
<polygon fill="white" stroke="#666666" points="275.5,-85 138.5,-85 138.5,-66 275.5,-66 275.5,-85"/>
<text text-anchor="middle" x="207" y="-73" font-family="Helvetica,sans-Serif" font-size="10.00">SimulationStopCondition</text>
</a>
</g>
</g>
<!-- Node4&#45;&gt;Node1 -->
<g id="edge3_Node000001_Node000004" class="edge">
<title>Node4&#45;&gt;Node1</title>
<g id="a_edge3_Node000001_Node000004"><a xlink:title=" ">
<path fill="none" stroke="#9a32cd" stroke-dasharray="5,2" d="M183.26,-60.69C161.62,-48.09 130.29,-29.87 111.95,-19.2"/>
<polygon fill="#9a32cd" stroke="#9a32cd" points="181.76,-63.86 192.16,-65.87 185.28,-57.81 181.76,-63.86"/>
</a>
</g>
<text text-anchor="middle" x="193.5" y="-40" font-family="Helvetica,sans-Serif" font-size="10.00" fill="grey"> stopCondition</text>
</g>
</g>
</svg>
