<?xml version="1.0" encoding="UTF-8" standalone="no"?>
<!DOCTYPE svg PUBLIC "-//W3C//DTD SVG 1.1//EN"
 "http://www.w3.org/Graphics/SVG/1.1/DTD/svg11.dtd">
<!-- Generated by graphviz version 2.43.0 (0)
 -->
<!-- Title: Physics::PhysicsBody::setVelocity Pages: 1 -->
<svg width="322pt" height="224pt"
 viewBox="0.00 0.00 322.00 224.00" xmlns="http://www.w3.org/2000/svg" xmlns:xlink="http://www.w3.org/1999/xlink">

<svg id="main" version="1.1" xmlns="http://www.w3.org/2000/svg" xmlns:xlink="http://www.w3.org/1999/xlink" xml:space="preserve" onload="init(evt)">
<style type="text/css"><![CDATA[
.node, .edge {opacity: 0.7;}
.node.selected, .edge.selected {opacity: 1;}
.edge:hover path { stroke: red; }
.edge:hover polygon { stroke: red; fill: red; }
]]></style>
<script type="application/ecmascript" xlink:href="svg.min.js"/>
<svg id="graph" class="graph">
<g id="graph0" class="graph" transform="scale(1 1) rotate(0) translate(4 220)">
<title>Physics::PhysicsBody::setVelocity</title>
<!-- Node1 -->
<g id="Node000001" class="node">
<title>Node1</title>
<g id="a_Node000001"><a xlink:title=" ">
<polygon fill="#999999" stroke="#666666" points="314,-116.5 193,-116.5 193,-86.5 314,-86.5 314,-116.5"/>
<text text-anchor="start" x="201" y="-104.5" font-family="Helvetica,sans-Serif" font-size="10.00">Physics::PhysicsBody</text>
<text text-anchor="middle" x="253.5" y="-93.5" font-family="Helvetica,sans-Serif" font-size="10.00">::setVelocity</text>
</a>
</g>
</g>
<!-- Node2 -->
<g id="Node000002" class="node">
<title>Node2</title>
<g id="a_Node000002"><a xlink:href="classSceneManager.html#acfea563d3849e3c8c09fc3febe9ae1e2" target="_top" xlink:title=" ">
<polygon fill="white" stroke="#666666" points="157,-216 0,-216 0,-197 157,-197 157,-216"/>
<text text-anchor="middle" x="78.5" y="-204" font-family="Helvetica,sans-Serif" font-size="10.00">SceneManager::defaultSetup</text>
</a>
</g>
</g>
<!-- Node1&#45;&gt;Node2 -->
<g id="edge1_Node000001_Node000002" class="edge">
<title>Node1&#45;&gt;Node2</title>
<g id="a_edge1_Node000001_Node000002"><a xlink:title=" ">
<path fill="none" stroke="#63b8ff" d="M233.19,-124.33C215.37,-143.96 187.16,-171.54 157,-187.5 149.65,-191.39 141.49,-194.5 133.3,-196.98"/>
<polygon fill="#63b8ff" stroke="#63b8ff" points="235.92,-126.53 239.94,-116.73 230.69,-121.88 235.92,-126.53"/>
</a>
</g>
</g>
<!-- Node3 -->
<g id="Node000003" class="node">
<title>Node3</title>
<g id="a_Node000003"><a xlink:href="classPhysics_1_1PointMass.html#a44c4e9fc77a451b14a8efe8fe176aa4d" target="_top" xlink:title=" ">
<polygon fill="white" stroke="#666666" points="133.5,-178.5 23.5,-178.5 23.5,-148.5 133.5,-148.5 133.5,-178.5"/>
<text text-anchor="start" x="31.5" y="-166.5" font-family="Helvetica,sans-Serif" font-size="10.00">Physics::PointMass</text>
<text text-anchor="middle" x="78.5" y="-155.5" font-family="Helvetica,sans-Serif" font-size="10.00">::PointMass</text>
</a>
</g>
</g>
<!-- Node1&#45;&gt;Node3 -->
<g id="edge2_Node000001_Node000003" class="edge">
<title>Node1&#45;&gt;Node3</title>
<g id="a_edge2_Node000001_Node000003"><a xlink:title=" ">
<path fill="none" stroke="#63b8ff" d="M206.98,-120.46C191.25,-126.78 173.44,-133.69 157,-139.5 148.37,-142.55 139.12,-145.6 130.13,-148.45"/>
<polygon fill="#63b8ff" stroke="#63b8ff" points="208.52,-123.61 216.47,-116.61 205.89,-117.12 208.52,-123.61"/>
</a>
</g>
</g>
<!-- Node4 -->
<g id="Node000004" class="node">
<title>Node4</title>
<g id="a_Node000004"><a xlink:href="PhysicsTests_8cpp.html#a370cb716ace9dbfe84f482760aea0d00" target="_top" xlink:title=" ">
<polygon fill="white" stroke="#666666" points="99,-130 58,-130 58,-111 99,-111 99,-130"/>
<text text-anchor="middle" x="78.5" y="-118" font-family="Helvetica,sans-Serif" font-size="10.00">TEST</text>
</a>
</g>
</g>
<!-- Node1&#45;&gt;Node4 -->
<g id="edge3_Node000001_Node000004" class="edge">
<title>Node1&#45;&gt;Node4</title>
<g id="a_edge3_Node000001_Node000004"><a xlink:title=" ">
<path fill="none" stroke="#63b8ff" d="M182.86,-109.15C152.69,-112.46 119.67,-116.09 99.27,-118.33"/>
<polygon fill="#63b8ff" stroke="#63b8ff" points="183.41,-112.61 192.96,-108.04 182.64,-105.65 183.41,-112.61"/>
</a>
</g>
</g>
<!-- Node5 -->
<g id="Node000005" class="node">
<title>Node5</title>
<g id="a_Node000005"><a xlink:href="PhysicsTests_8cpp.html#a7c2a98ae0fe61e18c53dbbfc3dd2678d" target="_top" xlink:title=" ">
<polygon fill="white" stroke="#666666" points="99,-93 58,-93 58,-74 99,-74 99,-93"/>
<text text-anchor="middle" x="78.5" y="-81" font-family="Helvetica,sans-Serif" font-size="10.00">TEST</text>
</a>
</g>
</g>
<!-- Node1&#45;&gt;Node5 -->
<g id="edge4_Node000001_Node000005" class="edge">
<title>Node1&#45;&gt;Node5</title>
<g id="a_edge4_Node000001_Node000005"><a xlink:title=" ">
<path fill="none" stroke="#63b8ff" d="M182.86,-94.25C152.69,-91.12 119.67,-87.68 99.27,-85.56"/>
<polygon fill="#63b8ff" stroke="#63b8ff" points="182.65,-97.75 192.96,-95.31 183.38,-90.79 182.65,-97.75"/>
</a>
</g>
</g>
<!-- Node6 -->
<g id="Node000006" class="node">
<title>Node6</title>
<g id="a_Node000006"><a xlink:href="PhysicsTests_8cpp.html#aaf9917cd74087c265f26822275a0cf9a" target="_top" xlink:title=" ">
<polygon fill="white" stroke="#666666" points="99,-56 58,-56 58,-37 99,-37 99,-56"/>
<text text-anchor="middle" x="78.5" y="-44" font-family="Helvetica,sans-Serif" font-size="10.00">TEST</text>
</a>
</g>
</g>
<!-- Node1&#45;&gt;Node6 -->
<g id="edge5_Node000001_Node000006" class="edge">
<title>Node1&#45;&gt;Node6</title>
<g id="a_edge5_Node000001_Node000006"><a xlink:title=" ">
<path fill="none" stroke="#63b8ff" d="M206.29,-82.8C190.76,-76.86 173.26,-70.54 157,-65.5 137.55,-59.47 114.88,-54.1 99.11,-50.62"/>
<polygon fill="#63b8ff" stroke="#63b8ff" points="205.08,-86.09 215.67,-86.43 207.61,-79.56 205.08,-86.09"/>
</a>
</g>
</g>
<!-- Node7 -->
<g id="Node000007" class="node">
<title>Node7</title>
<g id="a_Node000007"><a xlink:href="PhysicsTests_8cpp.html#a556d37407360d92575b9fde9164b643a" target="_top" xlink:title=" ">
<polygon fill="white" stroke="#666666" points="99,-19 58,-19 58,0 99,0 99,-19"/>
<text text-anchor="middle" x="78.5" y="-7" font-family="Helvetica,sans-Serif" font-size="10.00">TEST</text>
</a>
</g>
</g>
<!-- Node1&#45;&gt;Node7 -->
<g id="edge6_Node000001_Node000007" class="edge">
<title>Node1&#45;&gt;Node7</title>
<g id="a_edge6_Node000001_Node000007"><a xlink:title=" ">
<path fill="none" stroke="#63b8ff" d="M229.2,-79.24C210.92,-62.94 184.1,-41.47 157,-28.5 138.38,-19.59 115.18,-14.61 99.04,-12.01"/>
<polygon fill="#63b8ff" stroke="#63b8ff" points="227.22,-82.18 236.97,-86.32 231.94,-77 227.22,-82.18"/>
</a>
</g>
</g>
</g>
</svg>
</svg>

<style type='text/css'>
<![CDATA[
[data-mouse-over-selected='false'] { opacity: 0.7; }
[data-mouse-over-selected='true']  { opacity: 1.0; }
]]>
</style>
<script type="application/ecmascript"><![CDATA[
document.addEventListener('DOMContentLoaded', (event) => {
  highlightEdges();
  highlightAdjacentNodes();
});
]]></script>
</svg>
