<?xml version="1.0" encoding="UTF-8" standalone="no"?>
<!DOCTYPE svg PUBLIC "-//W3C//DTD SVG 1.1//EN"
 "http://www.w3.org/Graphics/SVG/1.1/DTD/svg11.dtd">
<!-- Generated by graphviz version 2.43.0 (0)
 -->
<!-- Title: src/graphics/debug/Colliders.h Pages: 1 -->
<svg width="665pt" height="390pt"
 viewBox="0.00 0.00 664.50 390.00" xmlns="http://www.w3.org/2000/svg" xmlns:xlink="http://www.w3.org/1999/xlink">
<g id="graph0" class="graph" transform="scale(1 1) rotate(0) translate(4 386)">
<title>src/graphics/debug/Colliders.h</title>
<!-- Node1 -->
<g id="Node000001" class="node">
<title>Node1</title>
<g id="a_Node000001"><a xlink:title=" ">
<polygon fill="#999999" stroke="#666666" points="426.5,-382 318.5,-382 318.5,-352 426.5,-352 426.5,-382"/>
<text text-anchor="start" x="326.5" y="-370" font-family="Helvetica,sans-Serif" font-size="10.00">src/graphics/debug</text>
<text text-anchor="middle" x="372.5" y="-359" font-family="Helvetica,sans-Serif" font-size="10.00">/Colliders.h</text>
</a>
</g>
</g>
<!-- Node2 -->
<g id="Node000002" class="node">
<title>Node2</title>
<g id="a_Node000002"><a xlink:title=" ">
<polygon fill="#e0e0e0" stroke="#999999" points="47,-189.5 0,-189.5 0,-170.5 47,-170.5 47,-189.5"/>
<text text-anchor="middle" x="23.5" y="-177.5" font-family="Helvetica,sans-Serif" font-size="10.00">vector</text>
</a>
</g>
</g>
<!-- Node1&#45;&gt;Node2 -->
<g id="edge1_Node000001_Node000002" class="edge">
<title>Node1&#45;&gt;Node2</title>
<g id="a_edge1_Node000001_Node000002"><a xlink:title=" ">
<path fill="none" stroke="#63b8ff" d="M345.98,-351.94C280.62,-317.29 112.46,-228.16 48.61,-194.31"/>
<polygon fill="#63b8ff" stroke="#63b8ff" points="50.1,-191.14 39.63,-189.55 46.82,-197.32 50.1,-191.14"/>
</a>
</g>
</g>
<!-- Node3 -->
<g id="Node000003" class="node">
<title>Node3</title>
<g id="a_Node000003"><a xlink:title=" ">
<polygon fill="#e0e0e0" stroke="#999999" points="556.5,-195 436.5,-195 436.5,-165 556.5,-165 556.5,-195"/>
<text text-anchor="start" x="444.5" y="-183" font-family="Helvetica,sans-Serif" font-size="10.00">QOpenGLFunctions_4</text>
<text text-anchor="middle" x="496.5" y="-172" font-family="Helvetica,sans-Serif" font-size="10.00">_5_Core</text>
</a>
</g>
</g>
<!-- Node1&#45;&gt;Node3 -->
<g id="edge2_Node000001_Node000003" class="edge">
<title>Node1&#45;&gt;Node3</title>
<g id="a_edge2_Node000001_Node000003"><a xlink:title=" ">
<path fill="none" stroke="#63b8ff" d="M379.8,-351.97C387.31,-337.82 399.56,-315.49 411.5,-297 433.24,-263.34 461.13,-226.29 478.91,-203.33"/>
<polygon fill="#63b8ff" stroke="#63b8ff" points="481.82,-205.3 485.2,-195.26 476.29,-201 481.82,-205.3"/>
</a>
</g>
</g>
<!-- Node4 -->
<g id="Node000004" class="node">
<title>Node4</title>
<g id="a_Node000004"><a xlink:href="InstanceData_8h.html" target="_top" xlink:title=" ">
<polygon fill="white" stroke="#666666" points="222.5,-189.5 64.5,-189.5 64.5,-170.5 222.5,-170.5 222.5,-189.5"/>
<text text-anchor="middle" x="143.5" y="-177.5" font-family="Helvetica,sans-Serif" font-size="10.00">graphics/core/InstanceData.h</text>
</a>
</g>
</g>
<!-- Node1&#45;&gt;Node4 -->
<g id="edge3_Node000001_Node000004" class="edge">
<title>Node1&#45;&gt;Node4</title>
<g id="a_edge3_Node000001_Node000004"><a xlink:title=" ">
<path fill="none" stroke="#63b8ff" d="M353.33,-351.7C326.77,-331.78 277.42,-294.36 236.5,-261 209.59,-239.06 179.24,-212.62 160.74,-196.31"/>
<polygon fill="#63b8ff" stroke="#63b8ff" points="162.94,-193.58 153.13,-189.58 158.3,-198.83 162.94,-193.58"/>
</a>
</g>
</g>
<!-- Node6 -->
<g id="Node000006" class="node">
<title>Node6</title>
<g id="a_Node000006"><a xlink:href="Shader_8h.html" target="_top" xlink:title=" ">
<polygon fill="white" stroke="#666666" points="645,-261 524,-261 524,-231 645,-231 645,-261"/>
<text text-anchor="start" x="532" y="-249" font-family="Helvetica,sans-Serif" font-size="10.00">graphics/components</text>
<text text-anchor="middle" x="584.5" y="-238" font-family="Helvetica,sans-Serif" font-size="10.00">/Shader.h</text>
</a>
</g>
</g>
<!-- Node1&#45;&gt;Node6 -->
<g id="edge5_Node000001_Node000006" class="edge">
<title>Node1&#45;&gt;Node6</title>
<g id="a_edge5_Node000001_Node000006"><a xlink:title=" ">
<path fill="none" stroke="#63b8ff" d="M426.58,-359.17C478.84,-351.44 552.88,-337.1 572.5,-316 583.45,-304.22 586.29,-286.19 586.47,-271.52"/>
<polygon fill="#63b8ff" stroke="#63b8ff" points="589.96,-271.01 586.19,-261.11 582.96,-271.2 589.96,-271.01"/>
</a>
</g>
</g>
<!-- Node8 -->
<g id="Node000008" class="node">
<title>Node8</title>
<g id="a_Node000008"><a xlink:href="Mesh_8h.html" target="_top" xlink:title=" ">
<polygon fill="white" stroke="#666666" points="367,-261 246,-261 246,-231 367,-231 367,-261"/>
<text text-anchor="start" x="254" y="-249" font-family="Helvetica,sans-Serif" font-size="10.00">graphics/components</text>
<text text-anchor="middle" x="306.5" y="-238" font-family="Helvetica,sans-Serif" font-size="10.00">/Mesh.h</text>
</a>
</g>
</g>
<!-- Node1&#45;&gt;Node8 -->
<g id="edge9_Node000001_Node000008" class="edge">
<title>Node1&#45;&gt;Node8</title>
<g id="a_edge9_Node000001_Node000008"><a xlink:title=" ">
<path fill="none" stroke="#63b8ff" d="M364.67,-351.88C353.46,-331.66 332.7,-294.23 319.25,-269.99"/>
<polygon fill="#63b8ff" stroke="#63b8ff" points="322.23,-268.15 314.32,-261.1 316.11,-271.54 322.23,-268.15"/>
</a>
</g>
</g>
<!-- Node15 -->
<g id="Node000015" class="node">
<title>Node15</title>
<g id="a_Node000015"><a xlink:href="IDrawable_8h.html" target="_top" xlink:title="Core interfaces for the rendering system supporting both instanced and custom drawing.">
<polygon fill="white" stroke="#666666" points="563,-316 420,-316 420,-297 563,-297 563,-316"/>
<text text-anchor="middle" x="491.5" y="-304" font-family="Helvetica,sans-Serif" font-size="10.00">graphics/core/IDrawable.h</text>
</a>
</g>
</g>
<!-- Node1&#45;&gt;Node15 -->
<g id="edge22_Node000001_Node000015" class="edge">
<title>Node1&#45;&gt;Node15</title>
<g id="a_edge22_Node000001_Node000015"><a xlink:title=" ">
<path fill="none" stroke="#63b8ff" d="M401,-351.99C420.41,-342.45 445.93,-329.9 464.92,-320.57"/>
<polygon fill="#63b8ff" stroke="#63b8ff" points="466.5,-323.69 473.93,-316.14 463.41,-317.41 466.5,-323.69"/>
</a>
</g>
</g>
<!-- Node5 -->
<g id="Node000005" class="node">
<title>Node5</title>
<g id="a_Node000005"><a xlink:title=" ">
<polygon fill="#e0e0e0" stroke="#999999" points="428.5,-74 350.5,-74 350.5,-55 428.5,-55 428.5,-74"/>
<text text-anchor="middle" x="389.5" y="-62" font-family="Helvetica,sans-Serif" font-size="10.00">glm/glm.hpp</text>
</a>
</g>
</g>
<!-- Node4&#45;&gt;Node5 -->
<g id="edge4_Node000004_Node000005" class="edge">
<title>Node4&#45;&gt;Node5</title>
<g id="a_edge4_Node000004_Node000005"><a xlink:title=" ">
<path fill="none" stroke="#63b8ff" d="M190.27,-170.46C225.32,-162.83 273.73,-149.61 312.5,-129 336.25,-116.37 359.51,-95.71 374.15,-81.4"/>
<polygon fill="#63b8ff" stroke="#63b8ff" points="376.75,-83.74 381.33,-74.19 371.79,-78.8 376.75,-83.74"/>
</a>
</g>
</g>
<!-- Node6&#45;&gt;Node3 -->
<g id="edge8_Node000006_Node000003" class="edge">
<title>Node6&#45;&gt;Node3</title>
<g id="a_edge8_Node000006_Node000003"><a xlink:title=" ">
<path fill="none" stroke="#63b8ff" d="M564.97,-230.8C553.01,-222.1 537.51,-210.82 524.28,-201.2"/>
<polygon fill="#63b8ff" stroke="#63b8ff" points="526.12,-198.22 515.98,-195.16 522,-203.88 526.12,-198.22"/>
</a>
</g>
</g>
<!-- Node6&#45;&gt;Node5 -->
<g id="edge7_Node000006_Node000005" class="edge">
<title>Node6&#45;&gt;Node5</title>
<g id="a_edge7_Node000006_Node000005"><a xlink:title=" ">
<path fill="none" stroke="#63b8ff" d="M584.46,-230.85C583.72,-213.65 580.17,-184.51 565.5,-165 531.1,-119.26 469.12,-91.42 428.65,-77.23"/>
<polygon fill="#63b8ff" stroke="#63b8ff" points="429.7,-73.89 419.11,-74 427.46,-80.52 429.7,-73.89"/>
</a>
</g>
</g>
<!-- Node7 -->
<g id="Node000007" class="node">
<title>Node7</title>
<g id="a_Node000007"><a xlink:title=" ">
<polygon fill="#e0e0e0" stroke="#999999" points="656.5,-189.5 612.5,-189.5 612.5,-170.5 656.5,-170.5 656.5,-189.5"/>
<text text-anchor="middle" x="634.5" y="-177.5" font-family="Helvetica,sans-Serif" font-size="10.00">string</text>
</a>
</g>
</g>
<!-- Node6&#45;&gt;Node7 -->
<g id="edge6_Node000006_Node000007" class="edge">
<title>Node6&#45;&gt;Node7</title>
<g id="a_edge6_Node000006_Node000007"><a xlink:title=" ">
<path fill="none" stroke="#63b8ff" d="M595.6,-230.8C603.16,-221.11 613.22,-208.24 621.21,-198.01"/>
<polygon fill="#63b8ff" stroke="#63b8ff" points="624.19,-199.88 627.59,-189.84 618.68,-195.57 624.19,-199.88"/>
</a>
</g>
</g>
<!-- Node8&#45;&gt;Node2 -->
<g id="edge11_Node000008_Node000002" class="edge">
<title>Node8&#45;&gt;Node2</title>
<g id="a_edge11_Node000008_Node000002"><a xlink:title=" ">
<path fill="none" stroke="#63b8ff" d="M246,-236.7C194.58,-228.76 119.19,-215.02 55.5,-195 53.87,-194.49 52.21,-193.92 50.55,-193.31"/>
<polygon fill="#63b8ff" stroke="#63b8ff" points="51.76,-190.03 41.18,-189.54 49.15,-196.52 51.76,-190.03"/>
</a>
</g>
</g>
<!-- Node8&#45;&gt;Node3 -->
<g id="edge10_Node000008_Node000003" class="edge">
<title>Node8&#45;&gt;Node3</title>
<g id="a_edge10_Node000008_Node000003"><a xlink:title=" ">
<path fill="none" stroke="#63b8ff" d="M348.2,-230.95C376.78,-221.33 414.89,-208.49 445.31,-198.24"/>
<polygon fill="#63b8ff" stroke="#63b8ff" points="446.54,-201.52 454.9,-195.01 444.31,-194.89 446.54,-201.52"/>
</a>
</g>
</g>
<!-- Node8&#45;&gt;Node4 -->
<g id="edge21_Node000008_Node000004" class="edge">
<title>Node8&#45;&gt;Node4</title>
<g id="a_edge21_Node000008_Node000004"><a xlink:title=" ">
<path fill="none" stroke="#63b8ff" d="M270.73,-230.95C242.02,-219.68 202.11,-204.01 174.69,-193.25"/>
<polygon fill="#63b8ff" stroke="#63b8ff" points="175.78,-189.91 165.19,-189.52 173.22,-196.43 175.78,-189.91"/>
</a>
</g>
</g>
<!-- Node8&#45;&gt;Node5 -->
<g id="edge12_Node000008_Node000005" class="edge">
<title>Node8&#45;&gt;Node5</title>
<g id="a_edge12_Node000008_Node000005"><a xlink:title=" ">
<path fill="none" stroke="#63b8ff" d="M346.94,-230.91C363.19,-223.02 380.23,-211.4 389.5,-195 409.34,-159.89 401.38,-110.4 394.83,-83.92"/>
<polygon fill="#63b8ff" stroke="#63b8ff" points="398.17,-82.85 392.2,-74.09 391.41,-84.66 398.17,-82.85"/>
</a>
</g>
</g>
<!-- Node9 -->
<g id="Node000009" class="node">
<title>Node9</title>
<g id="a_Node000009"><a xlink:href="AABB_8h.html" target="_top" xlink:title=" ">
<polygon fill="white" stroke="#666666" points="380.5,-189.5 240.5,-189.5 240.5,-170.5 380.5,-170.5 380.5,-189.5"/>
<text text-anchor="middle" x="310.5" y="-177.5" font-family="Helvetica,sans-Serif" font-size="10.00">physics/bounding/AABB.h</text>
</a>
</g>
</g>
<!-- Node8&#45;&gt;Node9 -->
<g id="edge13_Node000008_Node000009" class="edge">
<title>Node8&#45;&gt;Node9</title>
<g id="a_edge13_Node000008_Node000009"><a xlink:title=" ">
<path fill="none" stroke="#63b8ff" d="M307.39,-230.8C307.96,-221.7 308.7,-209.79 309.32,-199.9"/>
<polygon fill="#63b8ff" stroke="#63b8ff" points="312.82,-200.04 309.95,-189.84 305.83,-199.61 312.82,-200.04"/>
</a>
</g>
</g>
<!-- Node9&#45;&gt;Node5 -->
<g id="edge14_Node000009_Node000005" class="edge">
<title>Node9&#45;&gt;Node5</title>
<g id="a_edge14_Node000009_Node000005"><a xlink:title=" ">
<path fill="none" stroke="#63b8ff" d="M316.95,-170.2C324.21,-160.26 336.33,-143.56 346.5,-129 357.42,-113.36 369.58,-95.35 378.18,-82.51"/>
<polygon fill="#63b8ff" stroke="#63b8ff" points="381.09,-84.44 383.74,-74.18 375.27,-80.55 381.09,-84.44"/>
</a>
</g>
</g>
<!-- Node10 -->
<g id="Node000010" class="node">
<title>Node10</title>
<g id="a_Node000010"><a xlink:href="ICollider_8h.html" target="_top" xlink:title="Abstract interface for collision detection shapes.">
<polygon fill="white" stroke="#666666" points="304,-129 239,-129 239,-110 304,-110 304,-129"/>
<text text-anchor="middle" x="271.5" y="-117" font-family="Helvetica,sans-Serif" font-size="10.00">ICollider.h</text>
</a>
</g>
</g>
<!-- Node9&#45;&gt;Node10 -->
<g id="edge15_Node000009_Node000010" class="edge">
<title>Node9&#45;&gt;Node10</title>
<g id="a_edge15_Node000009_Node000010"><a xlink:title=" ">
<path fill="none" stroke="#63b8ff" d="M304.75,-170.37C299.04,-161.81 290.15,-148.47 282.99,-137.74"/>
<polygon fill="#63b8ff" stroke="#63b8ff" points="285.74,-135.55 277.28,-129.17 279.91,-139.43 285.74,-135.55"/>
</a>
</g>
</g>
<!-- Node10&#45;&gt;Node5 -->
<g id="edge16_Node000010_Node000005" class="edge">
<title>Node10&#45;&gt;Node5</title>
<g id="a_edge16_Node000010_Node000005"><a xlink:title=" ">
<path fill="none" stroke="#63b8ff" d="M290.46,-109.98C309.53,-101.42 339.16,-88.11 361.05,-78.28"/>
<polygon fill="#63b8ff" stroke="#63b8ff" points="362.51,-81.46 370.2,-74.17 359.64,-75.07 362.51,-81.46"/>
</a>
</g>
</g>
<!-- Node11 -->
<g id="Node000011" class="node">
<title>Node11</title>
<g id="a_Node000011"><a xlink:title=" ">
<polygon fill="#e0e0e0" stroke="#999999" points="168.5,-74 110.5,-74 110.5,-55 168.5,-55 168.5,-74"/>
<text text-anchor="middle" x="139.5" y="-62" font-family="Helvetica,sans-Serif" font-size="10.00">memory</text>
</a>
</g>
</g>
<!-- Node10&#45;&gt;Node11 -->
<g id="edge17_Node000010_Node000011" class="edge">
<title>Node10&#45;&gt;Node11</title>
<g id="a_edge17_Node000010_Node000011"><a xlink:title=" ">
<path fill="none" stroke="#63b8ff" d="M250.29,-109.98C228.77,-101.34 195.22,-87.87 170.67,-78.02"/>
<polygon fill="#63b8ff" stroke="#63b8ff" points="171.68,-74.65 161.09,-74.17 169.07,-81.14 171.68,-74.65"/>
</a>
</g>
</g>
<!-- Node12 -->
<g id="Node000012" class="node">
<title>Node12</title>
<g id="a_Node000012"><a xlink:title=" ">
<polygon fill="#e0e0e0" stroke="#999999" points="242.5,-74 186.5,-74 186.5,-55 242.5,-55 242.5,-74"/>
<text text-anchor="middle" x="214.5" y="-62" font-family="Helvetica,sans-Serif" font-size="10.00">optional</text>
</a>
</g>
</g>
<!-- Node10&#45;&gt;Node12 -->
<g id="edge18_Node000010_Node000012" class="edge">
<title>Node10&#45;&gt;Node12</title>
<g id="a_edge18_Node000010_Node000012"><a xlink:title=" ">
<path fill="none" stroke="#63b8ff" d="M262.34,-109.98C254,-102.23 241.47,-90.58 231.32,-81.14"/>
<polygon fill="#63b8ff" stroke="#63b8ff" points="233.53,-78.42 223.82,-74.17 228.76,-83.54 233.53,-78.42"/>
</a>
</g>
</g>
<!-- Node13 -->
<g id="Node000013" class="node">
<title>Node13</title>
<g id="a_Node000013"><a xlink:href="Ray_8h.html" target="_top" xlink:title=" ">
<polygon fill="white" stroke="#666666" points="332,-74 261,-74 261,-55 332,-55 332,-74"/>
<text text-anchor="middle" x="296.5" y="-62" font-family="Helvetica,sans-Serif" font-size="10.00">math/Ray.h</text>
</a>
</g>
</g>
<!-- Node10&#45;&gt;Node13 -->
<g id="edge19_Node000010_Node000013" class="edge">
<title>Node10&#45;&gt;Node13</title>
<g id="a_edge19_Node000010_Node000013"><a xlink:title=" ">
<path fill="none" stroke="#63b8ff" d="M275.63,-109.75C279.01,-102.57 283.92,-92.18 288.12,-83.27"/>
<polygon fill="#63b8ff" stroke="#63b8ff" points="291.35,-84.63 292.45,-74.09 285.02,-81.64 291.35,-84.63"/>
</a>
</g>
</g>
<!-- Node14 -->
<g id="Node000014" class="node">
<title>Node14</title>
<g id="a_Node000014"><a xlink:title=" ">
<polygon fill="#e0e0e0" stroke="#999999" points="338,-19 255,-19 255,0 338,0 338,-19"/>
<text text-anchor="middle" x="296.5" y="-7" font-family="Helvetica,sans-Serif" font-size="10.00">glm/vec3.hpp</text>
</a>
</g>
</g>
<!-- Node13&#45;&gt;Node14 -->
<g id="edge20_Node000013_Node000014" class="edge">
<title>Node13&#45;&gt;Node14</title>
<g id="a_edge20_Node000013_Node000014"><a xlink:title=" ">
<path fill="none" stroke="#63b8ff" d="M296.5,-54.75C296.5,-47.8 296.5,-37.85 296.5,-29.13"/>
<polygon fill="#63b8ff" stroke="#63b8ff" points="300,-29.09 296.5,-19.09 293,-29.09 300,-29.09"/>
</a>
</g>
</g>
<!-- Node15&#45;&gt;Node6 -->
<g id="edge23_Node000015_Node000006" class="edge">
<title>Node15&#45;&gt;Node6</title>
<g id="a_edge23_Node000015_Node000006"><a xlink:title=" ">
<path fill="none" stroke="#63b8ff" d="M505.22,-296.87C517.84,-288.93 537.01,-276.87 553.34,-266.6"/>
<polygon fill="#63b8ff" stroke="#63b8ff" points="555.46,-269.4 562.06,-261.11 551.73,-263.48 555.46,-269.4"/>
</a>
</g>
</g>
<!-- Node15&#45;&gt;Node8 -->
<g id="edge24_Node000015_Node000008" class="edge">
<title>Node15&#45;&gt;Node8</title>
<g id="a_edge24_Node000015_Node000008"><a xlink:title=" ">
<path fill="none" stroke="#63b8ff" d="M464.6,-296.99C437.51,-288.43 394.96,-274.97 360.82,-264.18"/>
<polygon fill="#63b8ff" stroke="#63b8ff" points="361.57,-260.74 350.98,-261.06 359.46,-267.42 361.57,-260.74"/>
</a>
</g>
</g>
</g>
</svg>
