<?xml version="1.0" encoding="UTF-8" standalone="no"?>
<!DOCTYPE svg PUBLIC "-//W3C//DTD SVG 1.1//EN"
 "http://www.w3.org/Graphics/SVG/1.1/DTD/svg11.dtd">
<!-- Generated by graphviz version 2.43.0 (0)
 -->
<!-- Title: src/ui/settings/DebugTab.cpp Pages: 1 -->
<svg width="750pt" height="192pt"
 viewBox="0.00 0.00 749.50 192.00" xmlns="http://www.w3.org/2000/svg" xmlns:xlink="http://www.w3.org/1999/xlink">
<g id="graph0" class="graph" transform="scale(1 1) rotate(0) translate(4 188)">
<title>src/ui/settings/DebugTab.cpp</title>
<!-- Node1 -->
<g id="Node000001" class="node">
<title>Node1</title>
<g id="a_Node000001"><a xlink:title=" ">
<polygon fill="#999999" stroke="#666666" points="396.5,-184 240.5,-184 240.5,-165 396.5,-165 396.5,-184"/>
<text text-anchor="middle" x="318.5" y="-172" font-family="Helvetica,sans-Serif" font-size="10.00">src/ui/settings/DebugTab.cpp</text>
</a>
</g>
</g>
<!-- Node2 -->
<g id="Node000002" class="node">
<title>Node2</title>
<g id="a_Node000002"><a xlink:href="DebugTab_8h.html" target="_top" xlink:title=" ">
<polygon fill="white" stroke="#666666" points="111.5,-129 37.5,-129 37.5,-110 111.5,-110 111.5,-129"/>
<text text-anchor="middle" x="74.5" y="-117" font-family="Helvetica,sans-Serif" font-size="10.00">DebugTab.h</text>
</a>
</g>
</g>
<!-- Node1&#45;&gt;Node2 -->
<g id="edge1_Node000001_Node000002" class="edge">
<title>Node1&#45;&gt;Node2</title>
<g id="a_edge1_Node000001_Node000002"><a xlink:title=" ">
<path fill="none" stroke="#63b8ff" d="M279.3,-164.98C236.34,-155.65 167.45,-140.69 121.59,-130.73"/>
<polygon fill="#63b8ff" stroke="#63b8ff" points="122.12,-127.26 111.61,-128.56 120.64,-134.1 122.12,-127.26"/>
</a>
</g>
</g>
<!-- Node5 -->
<g id="Node000005" class="node">
<title>Node5</title>
<g id="a_Node000005"><a xlink:title=" ">
<polygon fill="#e0e0e0" stroke="#999999" points="211.5,-129 129.5,-129 129.5,-110 211.5,-110 211.5,-129"/>
<text text-anchor="middle" x="170.5" y="-117" font-family="Helvetica,sans-Serif" font-size="10.00">QFormLayout</text>
</a>
</g>
</g>
<!-- Node1&#45;&gt;Node5 -->
<g id="edge4_Node000001_Node000005" class="edge">
<title>Node1&#45;&gt;Node5</title>
<g id="a_edge4_Node000001_Node000005"><a xlink:title=" ">
<path fill="none" stroke="#63b8ff" d="M294.72,-164.98C270.27,-156.23 231.97,-142.51 204.35,-132.62"/>
<polygon fill="#63b8ff" stroke="#63b8ff" points="205.31,-129.25 194.71,-129.17 202.95,-135.84 205.31,-129.25"/>
</a>
</g>
</g>
<!-- Node6 -->
<g id="Node000006" class="node">
<title>Node6</title>
<g id="a_Node000006"><a xlink:title=" ">
<polygon fill="#e0e0e0" stroke="#999999" points="303,-129 230,-129 230,-110 303,-110 303,-129"/>
<text text-anchor="middle" x="266.5" y="-117" font-family="Helvetica,sans-Serif" font-size="10.00">QCheckBox</text>
</a>
</g>
</g>
<!-- Node1&#45;&gt;Node6 -->
<g id="edge5_Node000001_Node000006" class="edge">
<title>Node1&#45;&gt;Node6</title>
<g id="a_edge5_Node000001_Node000006"><a xlink:title=" ">
<path fill="none" stroke="#63b8ff" d="M309.91,-164.75C302.34,-157.03 291.12,-145.6 281.99,-136.28"/>
<polygon fill="#63b8ff" stroke="#63b8ff" points="284.43,-133.78 274.93,-129.09 279.43,-138.68 284.43,-133.78"/>
</a>
</g>
</g>
<!-- Node7 -->
<g id="Node000007" class="node">
<title>Node7</title>
<g id="a_Node000007"><a xlink:title=" ">
<polygon fill="#e0e0e0" stroke="#999999" points="419.5,-129 321.5,-129 321.5,-110 419.5,-110 419.5,-129"/>
<text text-anchor="middle" x="370.5" y="-117" font-family="Helvetica,sans-Serif" font-size="10.00">QDoubleSpinBox</text>
</a>
</g>
</g>
<!-- Node1&#45;&gt;Node7 -->
<g id="edge6_Node000001_Node000007" class="edge">
<title>Node1&#45;&gt;Node7</title>
<g id="a_edge6_Node000001_Node000007"><a xlink:title=" ">
<path fill="none" stroke="#63b8ff" d="M327.09,-164.75C334.66,-157.03 345.88,-145.6 355.01,-136.28"/>
<polygon fill="#63b8ff" stroke="#63b8ff" points="357.57,-138.68 362.07,-129.09 352.57,-133.78 357.57,-138.68"/>
</a>
</g>
</g>
<!-- Node8 -->
<g id="Node000008" class="node">
<title>Node8</title>
<g id="a_Node000008"><a xlink:href="AppSettings_8h.html" target="_top" xlink:title=" ">
<polygon fill="white" stroke="#666666" points="533.5,-129 437.5,-129 437.5,-110 533.5,-110 533.5,-129"/>
<text text-anchor="middle" x="485.5" y="-117" font-family="Helvetica,sans-Serif" font-size="10.00">ui/AppSettings.h</text>
</a>
</g>
</g>
<!-- Node1&#45;&gt;Node8 -->
<g id="edge7_Node000001_Node000008" class="edge">
<title>Node1&#45;&gt;Node8</title>
<g id="a_edge7_Node000001_Node000008"><a xlink:title=" ">
<path fill="none" stroke="#63b8ff" d="M345.33,-164.98C373.37,-156.09 417.55,-142.07 448.8,-132.15"/>
<polygon fill="#63b8ff" stroke="#63b8ff" points="449.99,-135.44 458.46,-129.08 447.87,-128.77 449.99,-135.44"/>
</a>
</g>
</g>
<!-- Node14 -->
<g id="Node000014" class="node">
<title>Node14</title>
<g id="a_Node000014"><a xlink:href="DebugSettings_8h.html" target="_top" xlink:title=" ">
<polygon fill="white" stroke="#666666" points="732,-129 581,-129 581,-110 732,-110 732,-129"/>
<text text-anchor="middle" x="656.5" y="-117" font-family="Helvetica,sans-Serif" font-size="10.00">ui/settings/DebugSettings.h</text>
</a>
</g>
</g>
<!-- Node1&#45;&gt;Node14 -->
<g id="edge14_Node000001_Node000014" class="edge">
<title>Node1&#45;&gt;Node14</title>
<g id="a_edge14_Node000001_Node000014"><a xlink:title=" ">
<path fill="none" stroke="#63b8ff" d="M372.81,-164.98C432.59,-155.61 528.63,-140.55 592.14,-130.59"/>
<polygon fill="#63b8ff" stroke="#63b8ff" points="592.71,-134.05 602.05,-129.04 591.63,-127.13 592.71,-134.05"/>
</a>
</g>
</g>
<!-- Node3 -->
<g id="Node000003" class="node">
<title>Node3</title>
<g id="a_Node000003"><a xlink:title=" ">
<polygon fill="#e0e0e0" stroke="#999999" points="59,-74 0,-74 0,-55 59,-55 59,-74"/>
<text text-anchor="middle" x="29.5" y="-62" font-family="Helvetica,sans-Serif" font-size="10.00">QWidget</text>
</a>
</g>
</g>
<!-- Node2&#45;&gt;Node3 -->
<g id="edge2_Node000002_Node000003" class="edge">
<title>Node2&#45;&gt;Node3</title>
<g id="a_edge2_Node000002_Node000003"><a xlink:title=" ">
<path fill="none" stroke="#63b8ff" d="M67.07,-109.75C60.65,-102.18 51.19,-91.05 43.38,-81.84"/>
<polygon fill="#63b8ff" stroke="#63b8ff" points="45.93,-79.45 36.79,-74.09 40.6,-83.98 45.93,-79.45"/>
</a>
</g>
</g>
<!-- Node4 -->
<g id="Node000004" class="node">
<title>Node4</title>
<g id="a_Node000004"><a xlink:href="ISettingsTab_8h.html" target="_top" xlink:title=" ">
<polygon fill="white" stroke="#666666" points="162,-74 77,-74 77,-55 162,-55 162,-74"/>
<text text-anchor="middle" x="119.5" y="-62" font-family="Helvetica,sans-Serif" font-size="10.00">ISettingsTab.h</text>
</a>
</g>
</g>
<!-- Node2&#45;&gt;Node4 -->
<g id="edge3_Node000002_Node000004" class="edge">
<title>Node2&#45;&gt;Node4</title>
<g id="a_edge3_Node000002_Node000004"><a xlink:title=" ">
<path fill="none" stroke="#63b8ff" d="M81.93,-109.75C88.35,-102.18 97.81,-91.05 105.62,-81.84"/>
<polygon fill="#63b8ff" stroke="#63b8ff" points="108.4,-83.98 112.21,-74.09 103.07,-79.45 108.4,-83.98"/>
</a>
</g>
</g>
<!-- Node9 -->
<g id="Node000009" class="node">
<title>Node9</title>
<g id="a_Node000009"><a xlink:title=" ">
<polygon fill="#e0e0e0" stroke="#999999" points="541.5,-19 477.5,-19 477.5,0 541.5,0 541.5,-19"/>
<text text-anchor="middle" x="509.5" y="-7" font-family="Helvetica,sans-Serif" font-size="10.00">QSettings</text>
</a>
</g>
</g>
<!-- Node8&#45;&gt;Node9 -->
<g id="edge8_Node000008_Node000009" class="edge">
<title>Node8&#45;&gt;Node9</title>
<g id="a_edge8_Node000008_Node000009"><a xlink:title=" ">
<path fill="none" stroke="#63b8ff" d="M437.3,-110.73C395.79,-101.87 345.74,-84.62 367.5,-55 390.13,-24.19 434.05,-14.13 467.08,-11.13"/>
<polygon fill="#63b8ff" stroke="#63b8ff" points="467.66,-14.59 477.38,-10.38 467.16,-7.61 467.66,-14.59"/>
</a>
</g>
</g>
<!-- Node10 -->
<g id="Node000010" class="node">
<title>Node10</title>
<g id="a_Node000010"><a xlink:title=" ">
<polygon fill="#e0e0e0" stroke="#999999" points="423,-74 376,-74 376,-55 423,-55 423,-74"/>
<text text-anchor="middle" x="399.5" y="-62" font-family="Helvetica,sans-Serif" font-size="10.00">vector</text>
</a>
</g>
</g>
<!-- Node8&#45;&gt;Node10 -->
<g id="edge9_Node000008_Node000010" class="edge">
<title>Node8&#45;&gt;Node10</title>
<g id="a_edge9_Node000008_Node000010"><a xlink:title=" ">
<path fill="none" stroke="#63b8ff" d="M471.68,-109.98C458.35,-101.77 437.92,-89.18 422.19,-79.49"/>
<polygon fill="#63b8ff" stroke="#63b8ff" points="423.92,-76.44 413.57,-74.17 420.25,-82.4 423.92,-76.44"/>
</a>
</g>
</g>
<!-- Node11 -->
<g id="Node000011" class="node">
<title>Node11</title>
<g id="a_Node000011"><a xlink:title=" ">
<polygon fill="#e0e0e0" stroke="#999999" points="499.5,-74 441.5,-74 441.5,-55 499.5,-55 499.5,-74"/>
<text text-anchor="middle" x="470.5" y="-62" font-family="Helvetica,sans-Serif" font-size="10.00">memory</text>
</a>
</g>
</g>
<!-- Node8&#45;&gt;Node11 -->
<g id="edge10_Node000008_Node000011" class="edge">
<title>Node8&#45;&gt;Node11</title>
<g id="a_edge10_Node000008_Node000011"><a xlink:title=" ">
<path fill="none" stroke="#63b8ff" d="M483.02,-109.75C481.04,-102.72 478.18,-92.62 475.69,-83.84"/>
<polygon fill="#63b8ff" stroke="#63b8ff" points="479.02,-82.76 472.93,-74.09 472.29,-84.66 479.02,-82.76"/>
</a>
</g>
</g>
<!-- Node12 -->
<g id="Node000012" class="node">
<title>Node12</title>
<g id="a_Node000012"><a xlink:title=" ">
<polygon fill="#e0e0e0" stroke="#999999" points="583,-74 518,-74 518,-55 583,-55 583,-74"/>
<text text-anchor="middle" x="550.5" y="-62" font-family="Helvetica,sans-Serif" font-size="10.00">stdexcept</text>
</a>
</g>
</g>
<!-- Node8&#45;&gt;Node12 -->
<g id="edge11_Node000008_Node000012" class="edge">
<title>Node8&#45;&gt;Node12</title>
<g id="a_edge11_Node000008_Node000012"><a xlink:title=" ">
<path fill="none" stroke="#63b8ff" d="M495.94,-109.98C505.65,-102.07 520.32,-90.11 532,-80.58"/>
<polygon fill="#63b8ff" stroke="#63b8ff" points="534.33,-83.2 539.87,-74.17 529.9,-77.78 534.33,-83.2"/>
</a>
</g>
</g>
<!-- Node13 -->
<g id="Node000013" class="node">
<title>Node13</title>
<g id="a_Node000013"><a xlink:href="ISettingsGroup_8h.html" target="_top" xlink:title=" ">
<polygon fill="white" stroke="#666666" points="741.5,-74 601.5,-74 601.5,-55 741.5,-55 741.5,-74"/>
<text text-anchor="middle" x="671.5" y="-62" font-family="Helvetica,sans-Serif" font-size="10.00">settings/ISettingsGroup.h</text>
</a>
</g>
</g>
<!-- Node8&#45;&gt;Node13 -->
<g id="edge12_Node000008_Node000013" class="edge">
<title>Node8&#45;&gt;Node13</title>
<g id="a_edge12_Node000008_Node000013"><a xlink:title=" ">
<path fill="none" stroke="#63b8ff" d="M515.38,-109.98C546.88,-101.01 596.67,-86.82 631.53,-76.89"/>
<polygon fill="#63b8ff" stroke="#63b8ff" points="632.72,-80.19 641.38,-74.08 630.81,-73.46 632.72,-80.19"/>
</a>
</g>
</g>
<!-- Node13&#45;&gt;Node9 -->
<g id="edge13_Node000013_Node000009" class="edge">
<title>Node13&#45;&gt;Node9</title>
<g id="a_edge13_Node000013_Node000009"><a xlink:title=" ">
<path fill="none" stroke="#63b8ff" d="M645.47,-54.98C618.39,-46.13 575.79,-32.19 545.49,-22.28"/>
<polygon fill="#63b8ff" stroke="#63b8ff" points="546.32,-18.87 535.73,-19.08 544.15,-25.52 546.32,-18.87"/>
</a>
</g>
</g>
<!-- Node14&#45;&gt;Node13 -->
<g id="edge15_Node000014_Node000013" class="edge">
<title>Node14&#45;&gt;Node13</title>
<g id="a_edge15_Node000014_Node000013"><a xlink:title=" ">
<path fill="none" stroke="#63b8ff" d="M658.98,-109.75C660.96,-102.72 663.82,-92.62 666.31,-83.84"/>
<polygon fill="#63b8ff" stroke="#63b8ff" points="669.71,-84.66 669.07,-74.09 662.98,-82.76 669.71,-84.66"/>
</a>
</g>
</g>
</g>
</svg>
