<?xml version="1.0" encoding="UTF-8" standalone="no"?>
<!DOCTYPE svg PUBLIC "-//W3C//DTD SVG 1.1//EN"
 "http://www.w3.org/Graphics/SVG/1.1/DTD/svg11.dtd">
<!-- Generated by graphviz version 2.43.0 (0)
 -->
<!-- Title: src/ui/settings/DebugSettings.h Pages: 1 -->
<svg width="720pt" height="82pt"
 viewBox="0.00 0.00 720.00 82.00" xmlns="http://www.w3.org/2000/svg" xmlns:xlink="http://www.w3.org/1999/xlink">
<g id="graph0" class="graph" transform="scale(1 1) rotate(0) translate(4 78)">
<title>src/ui/settings/DebugSettings.h</title>
<!-- Node1 -->
<g id="Node000001" class="node">
<title>Node1</title>
<g id="a_Node000001"><a xlink:title=" ">
<polygon fill="#999999" stroke="#666666" points="446,-74 278,-74 278,-55 446,-55 446,-74"/>
<text text-anchor="middle" x="362" y="-62" font-family="Helvetica,sans-Serif" font-size="10.00">src/ui/settings/DebugSettings.h</text>
</a>
</g>
</g>
<!-- Node2 -->
<g id="Node000002" class="node">
<title>Node2</title>
<g id="a_Node000002"><a xlink:href="SceneManager_8cpp.html" target="_top" xlink:title=" ">
<polygon fill="white" stroke="#666666" points="194,-19 0,-19 0,0 194,0 194,-19"/>
<text text-anchor="middle" x="97" y="-7" font-family="Helvetica,sans-Serif" font-size="10.00">src/graphics/core/SceneManager.cpp</text>
</a>
</g>
</g>
<!-- Node1&#45;&gt;Node2 -->
<g id="edge1_Node000001_Node000002" class="edge">
<title>Node1&#45;&gt;Node2</title>
<g id="a_edge1_Node000001_Node000002"><a xlink:title=" ">
<path fill="none" stroke="#63b8ff" d="M309.51,-53C259.84,-43.07 186.17,-28.33 139.91,-19.08"/>
<polygon fill="#63b8ff" stroke="#63b8ff" points="308.93,-56.46 319.42,-54.98 310.3,-49.59 308.93,-56.46"/>
</a>
</g>
</g>
<!-- Node3 -->
<g id="Node000003" class="node">
<title>Node3</title>
<g id="a_Node000003"><a xlink:href="MainWindow_8cpp.html" target="_top" xlink:title=" ">
<polygon fill="white" stroke="#666666" points="340,-19 212,-19 212,0 340,0 340,-19"/>
<text text-anchor="middle" x="276" y="-7" font-family="Helvetica,sans-Serif" font-size="10.00">src/ui/MainWindow.cpp</text>
</a>
</g>
</g>
<!-- Node1&#45;&gt;Node3 -->
<g id="edge2_Node000001_Node000003" class="edge">
<title>Node1&#45;&gt;Node3</title>
<g id="a_edge2_Node000001_Node000003"><a xlink:title=" ">
<path fill="none" stroke="#63b8ff" d="M339.6,-49.7C323.93,-40.04 303.49,-27.44 290.07,-19.17"/>
<polygon fill="#63b8ff" stroke="#63b8ff" points="337.83,-52.72 348.18,-54.98 341.51,-46.76 337.83,-52.72"/>
</a>
</g>
</g>
<!-- Node4 -->
<g id="Node000004" class="node">
<title>Node4</title>
<g id="a_Node000004"><a xlink:href="DebugSettings_8cpp.html" target="_top" xlink:title=" ">
<polygon fill="white" stroke="#666666" points="537.5,-19 358.5,-19 358.5,0 537.5,0 537.5,-19"/>
<text text-anchor="middle" x="448" y="-7" font-family="Helvetica,sans-Serif" font-size="10.00">src/ui/settings/DebugSettings.cpp</text>
</a>
</g>
</g>
<!-- Node1&#45;&gt;Node4 -->
<g id="edge3_Node000001_Node000004" class="edge">
<title>Node1&#45;&gt;Node4</title>
<g id="a_edge3_Node000001_Node000004"><a xlink:title=" ">
<path fill="none" stroke="#63b8ff" d="M384.4,-49.7C400.07,-40.04 420.51,-27.44 433.93,-19.17"/>
<polygon fill="#63b8ff" stroke="#63b8ff" points="382.49,-46.76 375.82,-54.98 386.17,-52.72 382.49,-46.76"/>
</a>
</g>
</g>
<!-- Node5 -->
<g id="Node000005" class="node">
<title>Node5</title>
<g id="a_Node000005"><a xlink:href="DebugTab_8cpp.html" target="_top" xlink:title=" ">
<polygon fill="white" stroke="#666666" points="712,-19 556,-19 556,0 712,0 712,-19"/>
<text text-anchor="middle" x="634" y="-7" font-family="Helvetica,sans-Serif" font-size="10.00">src/ui/settings/DebugTab.cpp</text>
</a>
</g>
</g>
<!-- Node1&#45;&gt;Node5 -->
<g id="edge4_Node000001_Node000005" class="edge">
<title>Node1&#45;&gt;Node5</title>
<g id="a_edge4_Node000001_Node000005"><a xlink:title=" ">
<path fill="none" stroke="#63b8ff" d="M415.55,-53.07C466.55,-43.13 542.37,-28.35 589.96,-19.08"/>
<polygon fill="#63b8ff" stroke="#63b8ff" points="414.85,-49.64 405.7,-54.98 416.19,-56.51 414.85,-49.64"/>
</a>
</g>
</g>
</g>
</svg>
