<?xml version="1.0" encoding="UTF-8" standalone="no"?>
<!DOCTYPE svg PUBLIC "-//W3C//DTD SVG 1.1//EN"
 "http://www.w3.org/Graphics/SVG/1.1/DTD/svg11.dtd">
<!-- Generated by graphviz version 2.43.0 (0)
 -->
<!-- Title: src/ui Pages: 1 -->
<svg width="338pt" height="196pt"
 viewBox="0.00 0.00 338.00 196.00" xmlns="http://www.w3.org/2000/svg" xmlns:xlink="http://www.w3.org/1999/xlink">
<g id="graph0" class="graph" transform="scale(1 1) rotate(0) translate(4 192)">
<title>src/ui</title>
<g id="clust1" class="cluster">
<title>clusterdir_68267d1309a1af8e8297ef4c3efbcdba</title>
<g id="a_clust1"><a xlink:href="dir_68267d1309a1af8e8297ef4c3efbcdba.html" target="_top" xlink:title="src">
<polygon fill="#edf0f7" stroke="#404040" stroke-dasharray="5,2" points="8,-8 8,-180 322,-180 322,-8 8,-8"/>
<text text-anchor="middle" x="165" y="-168" font-family="Helvetica,sans-Serif" font-size="10.00">src</text>
</a>
</g>
</g>
<g id="clust2" class="cluster">
<title>clusterdir_da5c6b39c0a2f54e57df6799511cd3ab</title>
<g id="a_clust2"><a xlink:href="dir_da5c6b39c0a2f54e57df6799511cd3ab.html" target="_top">
<polygon fill="#edf0f7" stroke="#404040" stroke-width="2" points="28,-63 28,-153 242,-153 242,-63 28,-63"/>
</a>
</g>
</g>
<!-- dir_560415a5d2bc4999842279f4fc1debef -->
<g id="node1" class="node">
<title>dir_560415a5d2bc4999842279f4fc1debef</title>
<g id="a_node1"><a xlink:href="dir_560415a5d2bc4999842279f4fc1debef.html" target="_top" xlink:title="graphics">
<polygon fill="#a2b4d6" stroke="red" points="93,-35 35,-35 35,-16 93,-16 93,-35"/>
<text text-anchor="middle" x="64" y="-23" font-family="Helvetica,sans-Serif" font-size="10.00">graphics</text>
</a>
</g>
</g>
<!-- dir_8250e12e5a19acb8ece30f1703b6dc16 -->
<g id="node2" class="node">
<title>dir_8250e12e5a19acb8ece30f1703b6dc16</title>
<g id="a_node2"><a xlink:href="dir_8250e12e5a19acb8ece30f1703b6dc16.html" target="_top" xlink:title="physics">
<polygon fill="#a2b4d6" stroke="red" points="238.5,-35 185.5,-35 185.5,-16 238.5,-16 238.5,-35"/>
<text text-anchor="middle" x="212" y="-23" font-family="Helvetica,sans-Serif" font-size="10.00">physics</text>
</a>
</g>
</g>
<!-- dir_ae9a93452e2a84339148a16bcf2eb561 -->
<g id="node3" class="node">
<title>dir_ae9a93452e2a84339148a16bcf2eb561</title>
<g id="a_node3"><a xlink:href="dir_ae9a93452e2a84339148a16bcf2eb561.html" target="_top" xlink:title="math">
<polygon fill="#a2b4d6" stroke="#404040" points="314,-90 272,-90 272,-71 314,-71 314,-90"/>
<text text-anchor="middle" x="293" y="-78" font-family="Helvetica,sans-Serif" font-size="10.00">math</text>
</a>
</g>
</g>
<!-- dir_da5c6b39c0a2f54e57df6799511cd3ab -->
<g id="node4" class="node">
<title>dir_da5c6b39c0a2f54e57df6799511cd3ab</title>
<text text-anchor="middle" x="176" y="-133" font-family="Helvetica,sans-Serif" font-size="10.00">ui</text>
</g>
<!-- dir_da5c6b39c0a2f54e57df6799511cd3ab&#45;&gt;dir_560415a5d2bc4999842279f4fc1debef -->
<g id="edge2" class="edge">
<title>dir_da5c6b39c0a2f54e57df6799511cd3ab&#45;&gt;dir_560415a5d2bc4999842279f4fc1debef</title>
<g id="a_edge2"><a xlink:href="dir_000014_000005.html" target="_top">
<path fill="none" stroke="#63b8ff" d="M161.44,-135.28C130.6,-136.04 58.93,-132.87 27,-90 19.83,-80.38 22.37,-74.07 27,-63 30.43,-54.81 36.69,-47.52 43.1,-41.65"/>
<polygon fill="#63b8ff" stroke="#63b8ff" points="45.64,-44.09 51.1,-35.01 41.17,-38.7 45.64,-44.09"/>
</a>
</g>
<g id="a_edge2&#45;headlabel"><a xlink:href="dir_000014_000005.html" target="_top" xlink:title="15">
<text text-anchor="middle" x="44.68" y="-46.07" font-family="Helvetica,sans-Serif" font-size="10.00" fill="#63b8ff">15</text>
</a>
</g>
</g>
<!-- dir_da5c6b39c0a2f54e57df6799511cd3ab&#45;&gt;dir_8250e12e5a19acb8ece30f1703b6dc16 -->
<g id="edge3" class="edge">
<title>dir_da5c6b39c0a2f54e57df6799511cd3ab&#45;&gt;dir_8250e12e5a19acb8ece30f1703b6dc16</title>
<g id="a_edge3"><a xlink:href="dir_000014_000008.html" target="_top">
<path fill="none" stroke="#63b8ff" d="M190.67,-129.56C206.82,-123.23 231.98,-110.55 243,-90 248.67,-79.42 247.14,-74.26 243,-63 240.2,-55.38 235.03,-48.27 229.7,-42.38"/>
<polygon fill="#63b8ff" stroke="#63b8ff" points="232.08,-39.8 222.55,-35.18 227.11,-44.74 232.08,-39.8"/>
</a>
</g>
<g id="a_edge3&#45;headlabel"><a xlink:href="dir_000014_000008.html" target="_top" xlink:title="15">
<text text-anchor="middle" x="236.62" y="-37.85" font-family="Helvetica,sans-Serif" font-size="10.00" fill="#63b8ff">15</text>
</a>
</g>
</g>
<!-- dir_da5c6b39c0a2f54e57df6799511cd3ab&#45;&gt;dir_ae9a93452e2a84339148a16bcf2eb561 -->
<g id="edge4" class="edge">
<title>dir_da5c6b39c0a2f54e57df6799511cd3ab&#45;&gt;dir_ae9a93452e2a84339148a16bcf2eb561</title>
<g id="a_edge4"><a xlink:href="dir_000014_000007.html" target="_top">
<path fill="none" stroke="#63b8ff" d="M190.82,-127.79C209.33,-119.4 241.39,-104.88 264.67,-94.33"/>
<polygon fill="#63b8ff" stroke="#63b8ff" points="266.38,-97.4 274.05,-90.09 263.49,-91.02 266.38,-97.4"/>
</a>
</g>
<g id="a_edge4&#45;headlabel"><a xlink:href="dir_000014_000007.html" target="_top" xlink:title="1">
<text text-anchor="middle" x="264.28" y="-98.97" font-family="Helvetica,sans-Serif" font-size="10.00" fill="#63b8ff">1</text>
</a>
</g>
</g>
<!-- dir_4f0d090463e2df1c750e218771cf8ab8 -->
<g id="node5" class="node">
<title>dir_4f0d090463e2df1c750e218771cf8ab8</title>
<g id="a_node5"><a xlink:href="dir_4f0d090463e2df1c750e218771cf8ab8.html" target="_top" xlink:title="graph">
<polygon fill="#a2b4d6" stroke="#404040" points="234,-90 190,-90 190,-71 234,-71 234,-90"/>
<text text-anchor="middle" x="212" y="-78" font-family="Helvetica,sans-Serif" font-size="10.00">graph</text>
</a>
</g>
</g>
<!-- dir_da5c6b39c0a2f54e57df6799511cd3ab&#45;&gt;dir_4f0d090463e2df1c750e218771cf8ab8 -->
<g id="edge1" class="edge">
<title>dir_da5c6b39c0a2f54e57df6799511cd3ab&#45;&gt;dir_4f0d090463e2df1c750e218771cf8ab8</title>
<g id="a_edge1"><a xlink:href="dir_000014_000004.html" target="_top">
<path fill="none" stroke="#63b8ff" d="M181.94,-125.75C186.98,-118.34 194.34,-107.5 200.51,-98.41"/>
<polygon fill="#63b8ff" stroke="#63b8ff" points="203.44,-100.33 206.17,-90.09 197.65,-96.39 203.44,-100.33"/>
</a>
</g>
<g id="a_edge1&#45;headlabel"><a xlink:href="dir_000014_000004.html" target="_top" xlink:title="1">
<text text-anchor="middle" x="203.77" y="-102.4" font-family="Helvetica,sans-Serif" font-size="10.00" fill="#63b8ff">1</text>
</a>
</g>
</g>
<!-- dir_dcdb6e2c55277f38c2f293d252aedf56 -->
<g id="node6" class="node">
<title>dir_dcdb6e2c55277f38c2f293d252aedf56</title>
<g id="a_node6"><a xlink:href="dir_dcdb6e2c55277f38c2f293d252aedf56.html" target="_top" xlink:title="inspector">
<polygon fill="#a2b4d6" stroke="#404040" points="172,-90 110,-90 110,-71 172,-71 172,-90"/>
<text text-anchor="middle" x="141" y="-78" font-family="Helvetica,sans-Serif" font-size="10.00">inspector</text>
</a>
</g>
</g>
<!-- dir_da5c6b39c0a2f54e57df6799511cd3ab&#45;&gt;dir_dcdb6e2c55277f38c2f293d252aedf56 -->
<g id="edge5" class="edge">
<title>dir_da5c6b39c0a2f54e57df6799511cd3ab&#45;&gt;dir_dcdb6e2c55277f38c2f293d252aedf56</title>
<g id="a_edge5"><a xlink:href="dir_000014_000006.html" target="_top">
<path fill="none" stroke="#63b8ff" d="M170.22,-125.75C165.38,-118.42 158.32,-107.73 152.36,-98.7"/>
<polygon fill="#63b8ff" stroke="#63b8ff" points="155.1,-96.5 146.67,-90.09 149.26,-100.36 155.1,-96.5"/>
</a>
</g>
<g id="a_edge5&#45;headlabel"><a xlink:href="dir_000014_000006.html" target="_top" xlink:title="1">
<text text-anchor="middle" x="159.45" y="-95.44" font-family="Helvetica,sans-Serif" font-size="10.00" fill="#63b8ff">1</text>
</a>
</g>
</g>
<!-- dir_de56a105f7c21a78ac2526330527c47b -->
<g id="node7" class="node">
<title>dir_de56a105f7c21a78ac2526330527c47b</title>
<g id="a_node7"><a xlink:href="dir_de56a105f7c21a78ac2526330527c47b.html" target="_top" xlink:title="settings">
<polygon fill="#a2b4d6" stroke="#404040" points="92,-90 36,-90 36,-71 92,-71 92,-90"/>
<text text-anchor="middle" x="64" y="-78" font-family="Helvetica,sans-Serif" font-size="10.00">settings</text>
</a>
</g>
</g>
<!-- dir_da5c6b39c0a2f54e57df6799511cd3ab&#45;&gt;dir_de56a105f7c21a78ac2526330527c47b -->
<g id="edge6" class="edge">
<title>dir_da5c6b39c0a2f54e57df6799511cd3ab&#45;&gt;dir_de56a105f7c21a78ac2526330527c47b</title>
<g id="a_edge6"><a xlink:href="dir_000014_000009.html" target="_top">
<path fill="none" stroke="#63b8ff" d="M161.36,-127.57C143.59,-119.16 113.27,-104.82 91.18,-94.36"/>
<polygon fill="#63b8ff" stroke="#63b8ff" points="92.52,-91.12 81.98,-90.01 89.52,-97.45 92.52,-91.12"/>
</a>
</g>
<g id="a_edge6&#45;headlabel"><a xlink:href="dir_000014_000009.html" target="_top" xlink:title="4">
<text text-anchor="middle" x="96.98" y="-87.59" font-family="Helvetica,sans-Serif" font-size="10.00" fill="#63b8ff">4</text>
</a>
</g>
</g>
<!-- dir_4f0d090463e2df1c750e218771cf8ab8&#45;&gt;dir_8250e12e5a19acb8ece30f1703b6dc16 -->
<g id="edge7" class="edge">
<title>dir_4f0d090463e2df1c750e218771cf8ab8&#45;&gt;dir_8250e12e5a19acb8ece30f1703b6dc16</title>
<g id="a_edge7"><a xlink:href="dir_000004_000008.html" target="_top">
<path fill="none" stroke="#63b8ff" d="M212,-70.75C212,-63.8 212,-53.85 212,-45.13"/>
<polygon fill="#63b8ff" stroke="#63b8ff" points="215.5,-45.09 212,-35.09 208.5,-45.09 215.5,-45.09"/>
</a>
</g>
<g id="a_edge7&#45;headlabel"><a xlink:href="dir_000004_000008.html" target="_top" xlink:title="4">
<text text-anchor="middle" x="218.34" y="-46.18" font-family="Helvetica,sans-Serif" font-size="10.00" fill="#63b8ff">4</text>
</a>
</g>
</g>
<!-- dir_dcdb6e2c55277f38c2f293d252aedf56&#45;&gt;dir_560415a5d2bc4999842279f4fc1debef -->
<g id="edge8" class="edge">
<title>dir_dcdb6e2c55277f38c2f293d252aedf56&#45;&gt;dir_560415a5d2bc4999842279f4fc1debef</title>
<g id="a_edge8"><a xlink:href="dir_000006_000005.html" target="_top">
<path fill="none" stroke="#63b8ff" d="M128.63,-70.98C116.91,-62.92 99.08,-50.65 85.11,-41.03"/>
<polygon fill="#63b8ff" stroke="#63b8ff" points="86.82,-37.96 76.6,-35.17 82.85,-43.72 86.82,-37.96"/>
</a>
</g>
<g id="a_edge8&#45;headlabel"><a xlink:href="dir_000006_000005.html" target="_top" xlink:title="7">
<text text-anchor="middle" x="91.39" y="-35.16" font-family="Helvetica,sans-Serif" font-size="10.00" fill="#63b8ff">7</text>
</a>
</g>
</g>
<!-- dir_dcdb6e2c55277f38c2f293d252aedf56&#45;&gt;dir_8250e12e5a19acb8ece30f1703b6dc16 -->
<g id="edge9" class="edge">
<title>dir_dcdb6e2c55277f38c2f293d252aedf56&#45;&gt;dir_8250e12e5a19acb8ece30f1703b6dc16</title>
<g id="a_edge9"><a xlink:href="dir_000006_000008.html" target="_top">
<path fill="none" stroke="#63b8ff" d="M152.41,-70.98C163.11,-63 179.34,-50.88 192.16,-41.31"/>
<polygon fill="#63b8ff" stroke="#63b8ff" points="194.47,-43.96 200.39,-35.17 190.28,-38.35 194.47,-43.96"/>
</a>
</g>
<g id="a_edge9&#45;headlabel"><a xlink:href="dir_000006_000008.html" target="_top" xlink:title="6">
<text text-anchor="middle" x="193.28" y="-45.88" font-family="Helvetica,sans-Serif" font-size="10.00" fill="#63b8ff">6</text>
</a>
</g>
</g>
<!-- dir_de56a105f7c21a78ac2526330527c47b&#45;&gt;dir_560415a5d2bc4999842279f4fc1debef -->
<g id="edge10" class="edge">
<title>dir_de56a105f7c21a78ac2526330527c47b&#45;&gt;dir_560415a5d2bc4999842279f4fc1debef</title>
<g id="a_edge10"><a xlink:href="dir_000009_000005.html" target="_top">
<path fill="none" stroke="#63b8ff" d="M64,-70.75C64,-63.8 64,-53.85 64,-45.13"/>
<polygon fill="#63b8ff" stroke="#63b8ff" points="67.5,-45.09 64,-35.09 60.5,-45.09 67.5,-45.09"/>
</a>
</g>
<g id="a_edge10&#45;headlabel"><a xlink:href="dir_000009_000005.html" target="_top" xlink:title="1">
<text text-anchor="middle" x="70.34" y="-46.18" font-family="Helvetica,sans-Serif" font-size="10.00" fill="#63b8ff">1</text>
</a>
</g>
</g>
</g>
</svg>
