<?xml version="1.0" encoding="UTF-8" standalone="no"?>
<!DOCTYPE svg PUBLIC "-//W3C//DTD SVG 1.1//EN"
 "http://www.w3.org/Graphics/SVG/1.1/DTD/svg11.dtd">
<!-- Generated by graphviz version 2.43.0 (0)
 -->
<!-- Title: src/ui Pages: 1 -->
<svg width="202pt" height="196pt"
 viewBox="0.00 0.00 202.00 196.00" xmlns="http://www.w3.org/2000/svg" xmlns:xlink="http://www.w3.org/1999/xlink">
<g id="graph0" class="graph" transform="scale(1 1) rotate(0) translate(4 192)">
<title>src/ui</title>
<g id="clust1" class="cluster">
<title>clusterdir_68267d1309a1af8e8297ef4c3efbcdba</title>
<g id="a_clust1"><a xlink:href="dir_68267d1309a1af8e8297ef4c3efbcdba.html" target="_top" xlink:title="src">
<polygon fill="#edf0f7" stroke="#404040" stroke-dasharray="5,2" points="8,-8 8,-180 186,-180 186,-8 8,-8"/>
<text text-anchor="middle" x="97" y="-168" font-family="Helvetica,sans-Serif" font-size="10.00">src</text>
</a>
</g>
</g>
<g id="clust2" class="cluster">
<title>clusterdir_da5c6b39c0a2f54e57df6799511cd3ab</title>
<g id="a_clust2"><a xlink:href="dir_da5c6b39c0a2f54e57df6799511cd3ab.html" target="_top">
<polygon fill="#edf0f7" stroke="#404040" stroke-width="2" points="28,-63 28,-153 106,-153 106,-63 28,-63"/>
</a>
</g>
</g>
<!-- dir_560415a5d2bc4999842279f4fc1debef -->
<g id="node1" class="node">
<title>dir_560415a5d2bc4999842279f4fc1debef</title>
<g id="a_node1"><a xlink:href="dir_560415a5d2bc4999842279f4fc1debef.html" target="_top" xlink:title="graphics">
<polygon fill="#a2b4d6" stroke="red" points="74,-35 16,-35 16,-16 74,-16 74,-35"/>
<text text-anchor="middle" x="45" y="-23" font-family="Helvetica,sans-Serif" font-size="10.00">graphics</text>
</a>
</g>
</g>
<!-- dir_8250e12e5a19acb8ece30f1703b6dc16 -->
<g id="node2" class="node">
<title>dir_8250e12e5a19acb8ece30f1703b6dc16</title>
<g id="a_node2"><a xlink:href="dir_8250e12e5a19acb8ece30f1703b6dc16.html" target="_top" xlink:title="physics">
<polygon fill="#a2b4d6" stroke="red" points="145.5,-35 92.5,-35 92.5,-16 145.5,-16 145.5,-35"/>
<text text-anchor="middle" x="119" y="-23" font-family="Helvetica,sans-Serif" font-size="10.00">physics</text>
</a>
</g>
</g>
<!-- dir_ae9a93452e2a84339148a16bcf2eb561 -->
<g id="node3" class="node">
<title>dir_ae9a93452e2a84339148a16bcf2eb561</title>
<g id="a_node3"><a xlink:href="dir_ae9a93452e2a84339148a16bcf2eb561.html" target="_top" xlink:title="math">
<polygon fill="#a2b4d6" stroke="#404040" points="178,-90 136,-90 136,-71 178,-71 178,-90"/>
<text text-anchor="middle" x="157" y="-78" font-family="Helvetica,sans-Serif" font-size="10.00">math</text>
</a>
</g>
</g>
<!-- dir_da5c6b39c0a2f54e57df6799511cd3ab -->
<g id="node4" class="node">
<title>dir_da5c6b39c0a2f54e57df6799511cd3ab</title>
<text text-anchor="middle" x="75" y="-133" font-family="Helvetica,sans-Serif" font-size="10.00">ui</text>
</g>
<!-- dir_da5c6b39c0a2f54e57df6799511cd3ab&#45;&gt;dir_560415a5d2bc4999842279f4fc1debef -->
<g id="edge1" class="edge">
<title>dir_da5c6b39c0a2f54e57df6799511cd3ab&#45;&gt;dir_560415a5d2bc4999842279f4fc1debef</title>
<g id="a_edge1"><a xlink:href="dir_000010_000003.html" target="_top">
<path fill="none" stroke="#63b8ff" d="M60.63,-125.96C49.13,-118.21 33.82,-105.62 27,-90 20.5,-75.1 26.73,-57.22 33.58,-44.23"/>
<polygon fill="#63b8ff" stroke="#63b8ff" points="36.72,-45.79 38.73,-35.39 30.67,-42.26 36.72,-45.79"/>
</a>
</g>
<g id="a_edge1&#45;headlabel"><a xlink:href="dir_000010_000003.html" target="_top" xlink:title="13">
<text text-anchor="middle" x="37.36" y="-47.82" font-family="Helvetica,sans-Serif" font-size="10.00" fill="#63b8ff">13</text>
</a>
</g>
</g>
<!-- dir_da5c6b39c0a2f54e57df6799511cd3ab&#45;&gt;dir_8250e12e5a19acb8ece30f1703b6dc16 -->
<g id="edge2" class="edge">
<title>dir_da5c6b39c0a2f54e57df6799511cd3ab&#45;&gt;dir_8250e12e5a19acb8ece30f1703b6dc16</title>
<g id="a_edge2"><a xlink:href="dir_000010_000006.html" target="_top">
<path fill="none" stroke="#63b8ff" d="M83.16,-125.68C90.55,-117.18 101.15,-103.64 107,-90 113.16,-75.64 116.17,-58.12 117.63,-45.12"/>
<polygon fill="#63b8ff" stroke="#63b8ff" points="121.12,-45.34 118.56,-35.06 114.15,-44.69 121.12,-45.34"/>
</a>
</g>
<g id="a_edge2&#45;headlabel"><a xlink:href="dir_000010_000006.html" target="_top" xlink:title="10">
<text text-anchor="middle" x="123.62" y="-46.68" font-family="Helvetica,sans-Serif" font-size="10.00" fill="#63b8ff">10</text>
</a>
</g>
</g>
<!-- dir_da5c6b39c0a2f54e57df6799511cd3ab&#45;&gt;dir_ae9a93452e2a84339148a16bcf2eb561 -->
<g id="edge3" class="edge">
<title>dir_da5c6b39c0a2f54e57df6799511cd3ab&#45;&gt;dir_ae9a93452e2a84339148a16bcf2eb561</title>
<g id="a_edge3"><a xlink:href="dir_000010_000005.html" target="_top">
<path fill="none" stroke="#63b8ff" d="M88.17,-125.98C100.77,-117.84 120,-105.41 134.94,-95.76"/>
<polygon fill="#63b8ff" stroke="#63b8ff" points="137.09,-98.54 143.59,-90.17 133.29,-92.66 137.09,-98.54"/>
</a>
</g>
<g id="a_edge3&#45;headlabel"><a xlink:href="dir_000010_000005.html" target="_top" xlink:title="1">
<text text-anchor="middle" x="135.61" y="-100.37" font-family="Helvetica,sans-Serif" font-size="10.00" fill="#63b8ff">1</text>
</a>
</g>
</g>
<!-- dir_dcdb6e2c55277f38c2f293d252aedf56 -->
<g id="node5" class="node">
<title>dir_dcdb6e2c55277f38c2f293d252aedf56</title>
<g id="a_node5"><a xlink:href="dir_dcdb6e2c55277f38c2f293d252aedf56.html" target="_top" xlink:title="inspector">
<polygon fill="#a2b4d6" stroke="#404040" points="98,-90 36,-90 36,-71 98,-71 98,-90"/>
<text text-anchor="middle" x="67" y="-78" font-family="Helvetica,sans-Serif" font-size="10.00">inspector</text>
</a>
</g>
</g>
<!-- dir_da5c6b39c0a2f54e57df6799511cd3ab&#45;&gt;dir_dcdb6e2c55277f38c2f293d252aedf56 -->
<g id="edge4" class="edge">
<title>dir_da5c6b39c0a2f54e57df6799511cd3ab&#45;&gt;dir_dcdb6e2c55277f38c2f293d252aedf56</title>
<g id="a_edge4"><a xlink:href="dir_000010_000004.html" target="_top">
<path fill="none" stroke="#63b8ff" d="M73.68,-125.75C72.63,-118.8 71.13,-108.85 69.81,-100.13"/>
<polygon fill="#63b8ff" stroke="#63b8ff" points="73.25,-99.45 68.3,-90.09 66.33,-100.5 73.25,-99.45"/>
</a>
</g>
<g id="a_edge4&#45;headlabel"><a xlink:href="dir_000010_000004.html" target="_top" xlink:title="1">
<text text-anchor="middle" x="76.59" y="-100.09" font-family="Helvetica,sans-Serif" font-size="10.00" fill="#63b8ff">1</text>
</a>
</g>
</g>
<!-- dir_dcdb6e2c55277f38c2f293d252aedf56&#45;&gt;dir_560415a5d2bc4999842279f4fc1debef -->
<g id="edge5" class="edge">
<title>dir_dcdb6e2c55277f38c2f293d252aedf56&#45;&gt;dir_560415a5d2bc4999842279f4fc1debef</title>
<g id="a_edge5"><a xlink:href="dir_000004_000003.html" target="_top">
<path fill="none" stroke="#63b8ff" d="M63.37,-70.75C60.42,-63.65 56.17,-53.4 52.49,-44.56"/>
<polygon fill="#63b8ff" stroke="#63b8ff" points="55.63,-42.98 48.57,-35.09 49.17,-45.67 55.63,-42.98"/>
</a>
</g>
<g id="a_edge5&#45;headlabel"><a xlink:href="dir_000004_000003.html" target="_top" xlink:title="7">
<text text-anchor="middle" x="59.63" y="-42.71" font-family="Helvetica,sans-Serif" font-size="10.00" fill="#63b8ff">7</text>
</a>
</g>
</g>
<!-- dir_dcdb6e2c55277f38c2f293d252aedf56&#45;&gt;dir_8250e12e5a19acb8ece30f1703b6dc16 -->
<g id="edge6" class="edge">
<title>dir_dcdb6e2c55277f38c2f293d252aedf56&#45;&gt;dir_8250e12e5a19acb8ece30f1703b6dc16</title>
<g id="a_edge6"><a xlink:href="dir_000004_000006.html" target="_top">
<path fill="none" stroke="#63b8ff" d="M75.59,-70.75C83.16,-63.03 94.38,-51.6 103.51,-42.28"/>
<polygon fill="#63b8ff" stroke="#63b8ff" points="106.07,-44.68 110.57,-35.09 101.07,-39.78 106.07,-44.68"/>
</a>
</g>
<g id="a_edge6&#45;headlabel"><a xlink:href="dir_000004_000006.html" target="_top" xlink:title="4">
<text text-anchor="middle" x="105.58" y="-46.73" font-family="Helvetica,sans-Serif" font-size="10.00" fill="#63b8ff">4</text>
</a>
</g>
</g>
</g>
</svg>
