<?xml version="1.0" encoding="UTF-8" standalone="no"?>
<!DOCTYPE svg PUBLIC "-//W3C//DTD SVG 1.1//EN"
 "http://www.w3.org/Graphics/SVG/1.1/DTD/svg11.dtd">
<!-- Generated by graphviz version 2.43.0 (0)
 -->
<!-- Title: src/physics Pages: 1 -->
<svg width="278pt" height="251pt"
 viewBox="0.00 0.00 278.00 251.00" xmlns="http://www.w3.org/2000/svg" xmlns:xlink="http://www.w3.org/1999/xlink">
<g id="graph0" class="graph" transform="scale(1 1) rotate(0) translate(4 247)">
<title>src/physics</title>
<g id="clust1" class="cluster">
<title>clusterdir_68267d1309a1af8e8297ef4c3efbcdba</title>
<g id="a_clust1"><a xlink:href="dir_68267d1309a1af8e8297ef4c3efbcdba.html" target="_top" xlink:title="src">
<polygon fill="#edf0f7" stroke="#404040" stroke-dasharray="5,2" points="8,-8 8,-235 262,-235 262,-8 8,-8"/>
<text text-anchor="middle" x="135" y="-223" font-family="Helvetica,sans-Serif" font-size="10.00">src</text>
</a>
</g>
</g>
<g id="clust2" class="cluster">
<title>clusterdir_8250e12e5a19acb8ece30f1703b6dc16</title>
<g id="a_clust2"><a xlink:href="dir_8250e12e5a19acb8ece30f1703b6dc16.html" target="_top">
<polygon fill="#edf0f7" stroke="#404040" stroke-width="2" points="16,-63 16,-208 168,-208 168,-63 16,-63"/>
</a>
</g>
</g>
<!-- dir_ae9a93452e2a84339148a16bcf2eb561 -->
<g id="node1" class="node">
<title>dir_ae9a93452e2a84339148a16bcf2eb561</title>
<g id="a_node1"><a xlink:href="dir_ae9a93452e2a84339148a16bcf2eb561.html" target="_top" xlink:title="math">
<polygon fill="#a2b4d6" stroke="#404040" points="201,-35 159,-35 159,-16 201,-16 201,-35"/>
<text text-anchor="middle" x="180" y="-23" font-family="Helvetica,sans-Serif" font-size="10.00">math</text>
</a>
</g>
</g>
<!-- dir_560415a5d2bc4999842279f4fc1debef -->
<g id="node2" class="node">
<title>dir_560415a5d2bc4999842279f4fc1debef</title>
<g id="a_node2"><a xlink:href="dir_560415a5d2bc4999842279f4fc1debef.html" target="_top" xlink:title="graphics">
<polygon fill="#a2b4d6" stroke="red" points="234,-90 176,-90 176,-71 234,-71 234,-90"/>
<text text-anchor="middle" x="205" y="-78" font-family="Helvetica,sans-Serif" font-size="10.00">graphics</text>
</a>
</g>
</g>
<!-- dir_8250e12e5a19acb8ece30f1703b6dc16 -->
<g id="node3" class="node">
<title>dir_8250e12e5a19acb8ece30f1703b6dc16</title>
<text text-anchor="middle" x="100" y="-188" font-family="Helvetica,sans-Serif" font-size="10.00">physics</text>
</g>
<!-- dir_8250e12e5a19acb8ece30f1703b6dc16&#45;&gt;dir_ae9a93452e2a84339148a16bcf2eb561 -->
<g id="edge4" class="edge">
<title>dir_8250e12e5a19acb8ece30f1703b6dc16&#45;&gt;dir_ae9a93452e2a84339148a16bcf2eb561</title>
<g id="a_edge4"><a xlink:href="dir_000008_000007.html" target="_top">
<path fill="none" stroke="#63b8ff" d="M124.71,-180.93C158.79,-167.58 218.75,-138.24 243,-90 248.39,-79.28 248.99,-73.4 243,-63 235.86,-50.61 222.72,-42.04 210.28,-36.34"/>
<polygon fill="#63b8ff" stroke="#63b8ff" points="211.6,-33.09 201.02,-32.52 208.93,-39.56 211.6,-33.09"/>
</a>
</g>
<g id="a_edge4&#45;headlabel"><a xlink:href="dir_000008_000007.html" target="_top" xlink:title="2">
<text text-anchor="middle" x="216.01" y="-29.34" font-family="Helvetica,sans-Serif" font-size="10.00" fill="#63b8ff">2</text>
</a>
</g>
</g>
<!-- dir_8812e885a9a865730da17d86cfaebf89 -->
<g id="node4" class="node">
<title>dir_8812e885a9a865730da17d86cfaebf89</title>
<g id="a_node4"><a xlink:href="dir_8812e885a9a865730da17d86cfaebf89.html" target="_top" xlink:title="bounding">
<polygon fill="#a2b4d6" stroke="#404040" points="158,-90 96,-90 96,-71 158,-71 158,-90"/>
<text text-anchor="middle" x="127" y="-78" font-family="Helvetica,sans-Serif" font-size="10.00">bounding</text>
</a>
</g>
</g>
<!-- dir_8250e12e5a19acb8ece30f1703b6dc16&#45;&gt;dir_8812e885a9a865730da17d86cfaebf89 -->
<g id="edge3" class="edge">
<title>dir_8250e12e5a19acb8ece30f1703b6dc16&#45;&gt;dir_8812e885a9a865730da17d86cfaebf89</title>
<g id="a_edge3"><a xlink:href="dir_000008_000000.html" target="_top">
<path fill="none" stroke="#63b8ff" d="M78.94,-180.9C54.88,-169.75 20.58,-148.99 35,-126 46.24,-108.08 66.96,-97.2 85.9,-90.69"/>
<polygon fill="#63b8ff" stroke="#63b8ff" points="87.08,-93.99 95.58,-87.67 84.99,-87.31 87.08,-93.99"/>
</a>
</g>
<g id="a_edge3&#45;headlabel"><a xlink:href="dir_000008_000000.html" target="_top" xlink:title="3">
<text text-anchor="middle" x="84.49" y="-95.27" font-family="Helvetica,sans-Serif" font-size="10.00" fill="#63b8ff">3</text>
</a>
</g>
</g>
<!-- dir_20d89a8bba1c2c55ce7ca072fbe6be3d -->
<g id="node5" class="node">
<title>dir_20d89a8bba1c2c55ce7ca072fbe6be3d</title>
<g id="a_node5"><a xlink:href="dir_20d89a8bba1c2c55ce7ca072fbe6be3d.html" target="_top" xlink:title="solver">
<polygon fill="#a2b4d6" stroke="#404040" points="91.5,-145 44.5,-145 44.5,-126 91.5,-126 91.5,-145"/>
<text text-anchor="middle" x="68" y="-133" font-family="Helvetica,sans-Serif" font-size="10.00">solver</text>
</a>
</g>
</g>
<!-- dir_8250e12e5a19acb8ece30f1703b6dc16&#45;&gt;dir_20d89a8bba1c2c55ce7ca072fbe6be3d -->
<g id="edge2" class="edge">
<title>dir_8250e12e5a19acb8ece30f1703b6dc16&#45;&gt;dir_20d89a8bba1c2c55ce7ca072fbe6be3d</title>
<g id="a_edge2"><a xlink:href="dir_000008_000010.html" target="_top">
<path fill="none" stroke="#63b8ff" d="M94.72,-180.75C90.29,-173.42 83.84,-162.73 78.38,-153.7"/>
<polygon fill="#63b8ff" stroke="#63b8ff" points="81.35,-151.84 73.19,-145.09 75.36,-155.46 81.35,-151.84"/>
</a>
</g>
<g id="a_edge2&#45;headlabel"><a xlink:href="dir_000008_000010.html" target="_top" xlink:title="4">
<text text-anchor="middle" x="85.64" y="-150.95" font-family="Helvetica,sans-Serif" font-size="10.00" fill="#63b8ff">4</text>
</a>
</g>
</g>
<!-- dir_16eef18023ab75a9cfdd55d207ad4634 -->
<g id="node6" class="node">
<title>dir_16eef18023ab75a9cfdd55d207ad4634</title>
<g id="a_node6"><a xlink:href="dir_16eef18023ab75a9cfdd55d207ad4634.html" target="_top" xlink:title="spatial">
<polygon fill="#a2b4d6" stroke="#404040" points="160,-145 110,-145 110,-126 160,-126 160,-145"/>
<text text-anchor="middle" x="135" y="-133" font-family="Helvetica,sans-Serif" font-size="10.00">spatial</text>
</a>
</g>
</g>
<!-- dir_8250e12e5a19acb8ece30f1703b6dc16&#45;&gt;dir_16eef18023ab75a9cfdd55d207ad4634 -->
<g id="edge1" class="edge">
<title>dir_8250e12e5a19acb8ece30f1703b6dc16&#45;&gt;dir_16eef18023ab75a9cfdd55d207ad4634</title>
<g id="a_edge1"><a xlink:href="dir_000008_000011.html" target="_top">
<path fill="none" stroke="#63b8ff" d="M105.78,-180.75C110.62,-173.42 117.68,-162.73 123.64,-153.7"/>
<polygon fill="#63b8ff" stroke="#63b8ff" points="126.74,-155.36 129.33,-145.09 120.9,-151.5 126.74,-155.36"/>
</a>
</g>
<g id="a_edge1&#45;headlabel"><a xlink:href="dir_000008_000011.html" target="_top" xlink:title="2">
<text text-anchor="middle" x="127.13" y="-157.43" font-family="Helvetica,sans-Serif" font-size="10.00" fill="#63b8ff">2</text>
</a>
</g>
</g>
<!-- dir_8812e885a9a865730da17d86cfaebf89&#45;&gt;dir_ae9a93452e2a84339148a16bcf2eb561 -->
<g id="edge5" class="edge">
<title>dir_8812e885a9a865730da17d86cfaebf89&#45;&gt;dir_ae9a93452e2a84339148a16bcf2eb561</title>
<g id="a_edge5"><a xlink:href="dir_000000_000007.html" target="_top">
<path fill="none" stroke="#63b8ff" d="M135.75,-70.75C143.47,-63.03 154.9,-51.6 164.22,-42.28"/>
<polygon fill="#63b8ff" stroke="#63b8ff" points="166.81,-44.64 171.41,-35.09 161.86,-39.69 166.81,-44.64"/>
</a>
</g>
<g id="a_edge5&#45;headlabel"><a xlink:href="dir_000000_000007.html" target="_top" xlink:title="1">
<text text-anchor="middle" x="166.28" y="-46.68" font-family="Helvetica,sans-Serif" font-size="10.00" fill="#63b8ff">1</text>
</a>
</g>
</g>
<!-- dir_16eef18023ab75a9cfdd55d207ad4634&#45;&gt;dir_560415a5d2bc4999842279f4fc1debef -->
<g id="edge6" class="edge">
<title>dir_16eef18023ab75a9cfdd55d207ad4634&#45;&gt;dir_560415a5d2bc4999842279f4fc1debef</title>
<g id="a_edge6"><a xlink:href="dir_000011_000005.html" target="_top">
<path fill="none" stroke="#63b8ff" d="M146.25,-125.98C156.8,-118 172.8,-105.88 185.44,-96.31"/>
<polygon fill="#63b8ff" stroke="#63b8ff" points="187.69,-99 193.55,-90.17 183.46,-93.42 187.69,-99"/>
</a>
</g>
<g id="a_edge6&#45;headlabel"><a xlink:href="dir_000011_000005.html" target="_top" xlink:title="1">
<text text-anchor="middle" x="186.54" y="-100.93" font-family="Helvetica,sans-Serif" font-size="10.00" fill="#63b8ff">1</text>
</a>
</g>
</g>
<!-- dir_16eef18023ab75a9cfdd55d207ad4634&#45;&gt;dir_8812e885a9a865730da17d86cfaebf89 -->
<g id="edge7" class="edge">
<title>dir_16eef18023ab75a9cfdd55d207ad4634&#45;&gt;dir_8812e885a9a865730da17d86cfaebf89</title>
<g id="a_edge7"><a xlink:href="dir_000011_000000.html" target="_top">
<path fill="none" stroke="#63b8ff" d="M133.68,-125.75C132.63,-118.8 131.13,-108.85 129.81,-100.13"/>
<polygon fill="#63b8ff" stroke="#63b8ff" points="133.25,-99.45 128.3,-90.09 126.33,-100.5 133.25,-99.45"/>
</a>
</g>
<g id="a_edge7&#45;headlabel"><a xlink:href="dir_000011_000000.html" target="_top" xlink:title="1">
<text text-anchor="middle" x="136.59" y="-100.09" font-family="Helvetica,sans-Serif" font-size="10.00" fill="#63b8ff">1</text>
</a>
</g>
</g>
</g>
</svg>
