<?xml version="1.0" encoding="UTF-8" standalone="no"?>
<!DOCTYPE svg PUBLIC "-//W3C//DTD SVG 1.1//EN"
 "http://www.w3.org/Graphics/SVG/1.1/DTD/svg11.dtd">
<!-- Generated by graphviz version 2.43.0 (0)
 -->
<!-- Title: src/ui/graph/FrameGraphWidget.cpp Pages: 1 -->
<svg width="780pt" height="247pt"
 viewBox="0.00 0.00 779.79 247.00" xmlns="http://www.w3.org/2000/svg" xmlns:xlink="http://www.w3.org/1999/xlink">
<g id="graph0" class="graph" transform="scale(1 1) rotate(0) translate(4 243)">
<title>src/ui/graph/FrameGraphWidget.cpp</title>
<!-- Node1 -->
<g id="Node000001" class="node">
<title>Node1</title>
<g id="a_Node000001"><a xlink:title=" ">
<polygon fill="#999999" stroke="#666666" points="557.79,-239 366.79,-239 366.79,-220 557.79,-220 557.79,-239"/>
<text text-anchor="middle" x="462.29" y="-227" font-family="Helvetica,sans-Serif" font-size="10.00">src/ui/graph/FrameGraphWidget.cpp</text>
</a>
</g>
</g>
<!-- Node2 -->
<g id="Node000002" class="node">
<title>Node2</title>
<g id="a_Node000002"><a xlink:href="FrameGraphWidget_8h.html" target="_top" xlink:title=" ">
<polygon fill="white" stroke="#666666" points="185.29,-184 65.29,-184 65.29,-165 185.29,-165 185.29,-184"/>
<text text-anchor="middle" x="125.29" y="-172" font-family="Helvetica,sans-Serif" font-size="10.00">FrameGraphWidget.h</text>
</a>
</g>
</g>
<!-- Node1&#45;&gt;Node2 -->
<g id="edge1_Node000001_Node000002" class="edge">
<title>Node1&#45;&gt;Node2</title>
<g id="a_edge1_Node000001_Node000002"><a xlink:title=" ">
<path fill="none" stroke="#63b8ff" d="M408.14,-219.98C348.66,-210.63 253.18,-195.61 189.84,-185.65"/>
<polygon fill="#63b8ff" stroke="#63b8ff" points="190,-182.13 179.58,-184.04 188.91,-189.05 190,-182.13"/>
</a>
</g>
</g>
<!-- Node10 -->
<g id="Node000010" class="node">
<title>Node10</title>
<g id="a_Node000010"><a xlink:href="PhysicsBody_8h.html" target="_top" xlink:title=" ">
<polygon fill="white" stroke="#666666" points="464.79,-74 339.79,-74 339.79,-55 464.79,-55 464.79,-74"/>
<text text-anchor="middle" x="402.29" y="-62" font-family="Helvetica,sans-Serif" font-size="10.00">physics/PhysicsBody.h</text>
</a>
</g>
</g>
<!-- Node1&#45;&gt;Node10 -->
<g id="edge22_Node000001_Node000010" class="edge">
<title>Node1&#45;&gt;Node10</title>
<g id="a_edge22_Node000001_Node000010"><a xlink:title=" ">
<path fill="none" stroke="#63b8ff" d="M448.64,-219.69C437.63,-211.78 422.79,-199.1 415.29,-184 399.23,-151.68 399.02,-108.4 400.51,-84.1"/>
<polygon fill="#63b8ff" stroke="#63b8ff" points="404.01,-84.34 401.3,-74.1 397.03,-83.79 404.01,-84.34"/>
</a>
</g>
</g>
<!-- Node18 -->
<g id="Node000018" class="node">
<title>Node18</title>
<g id="a_Node000018"><a xlink:title=" ">
<polygon fill="#e0e0e0" stroke="#999999" points="500.79,-184 423.79,-184 423.79,-165 500.79,-165 500.79,-184"/>
<text text-anchor="middle" x="462.29" y="-172" font-family="Helvetica,sans-Serif" font-size="10.00">QComboBox</text>
</a>
</g>
</g>
<!-- Node1&#45;&gt;Node18 -->
<g id="edge18_Node000001_Node000018" class="edge">
<title>Node1&#45;&gt;Node18</title>
<g id="a_edge18_Node000001_Node000018"><a xlink:title=" ">
<path fill="none" stroke="#63b8ff" d="M462.29,-219.75C462.29,-212.8 462.29,-202.85 462.29,-194.13"/>
<polygon fill="#63b8ff" stroke="#63b8ff" points="465.79,-194.09 462.29,-184.09 458.79,-194.09 465.79,-194.09"/>
</a>
</g>
</g>
<!-- Node19 -->
<g id="Node000019" class="node">
<title>Node19</title>
<g id="a_Node000019"><a xlink:title=" ">
<polygon fill="#e0e0e0" stroke="#999999" points="601.79,-184 518.79,-184 518.79,-165 601.79,-165 601.79,-184"/>
<text text-anchor="middle" x="560.29" y="-172" font-family="Helvetica,sans-Serif" font-size="10.00">QHBoxLayout</text>
</a>
</g>
</g>
<!-- Node1&#45;&gt;Node19 -->
<g id="edge19_Node000001_Node000019" class="edge">
<title>Node1&#45;&gt;Node19</title>
<g id="a_edge19_Node000001_Node000019"><a xlink:title=" ">
<path fill="none" stroke="#63b8ff" d="M478.03,-219.98C493.52,-211.61 517.38,-198.7 535.43,-188.95"/>
<polygon fill="#63b8ff" stroke="#63b8ff" points="537.13,-192.01 544.26,-184.17 533.8,-185.85 537.13,-192.01"/>
</a>
</g>
</g>
<!-- Node20 -->
<g id="Node000020" class="node">
<title>Node20</title>
<g id="a_Node000020"><a xlink:title=" ">
<polygon fill="#e0e0e0" stroke="#999999" points="670.29,-184 620.29,-184 620.29,-165 670.29,-165 670.29,-184"/>
<text text-anchor="middle" x="645.29" y="-172" font-family="Helvetica,sans-Serif" font-size="10.00">QLabel</text>
</a>
</g>
</g>
<!-- Node1&#45;&gt;Node20 -->
<g id="edge20_Node000001_Node000020" class="edge">
<title>Node1&#45;&gt;Node20</title>
<g id="a_edge20_Node000001_Node000020"><a xlink:title=" ">
<path fill="none" stroke="#63b8ff" d="M491.69,-219.98C524.06,-210.61 576.06,-195.55 610.45,-185.59"/>
<polygon fill="#63b8ff" stroke="#63b8ff" points="611.45,-188.94 620.08,-182.8 609.5,-182.22 611.45,-188.94"/>
</a>
</g>
</g>
<!-- Node21 -->
<g id="Node000021" class="node">
<title>Node21</title>
<g id="a_Node000021"><a xlink:title=" ">
<polygon fill="#e0e0e0" stroke="#999999" points="771.79,-184 688.79,-184 688.79,-165 771.79,-165 771.79,-184"/>
<text text-anchor="middle" x="730.29" y="-172" font-family="Helvetica,sans-Serif" font-size="10.00">QVBoxLayout</text>
</a>
</g>
</g>
<!-- Node1&#45;&gt;Node21 -->
<g id="edge21_Node000001_Node000021" class="edge">
<title>Node1&#45;&gt;Node21</title>
<g id="a_edge21_Node000001_Node000021"><a xlink:title=" ">
<path fill="none" stroke="#63b8ff" d="M505.35,-219.98C552.55,-210.65 628.26,-195.68 678.63,-185.72"/>
<polygon fill="#63b8ff" stroke="#63b8ff" points="679.53,-189.11 688.66,-183.73 678.17,-182.24 679.53,-189.11"/>
</a>
</g>
</g>
<!-- Node22 -->
<g id="Node000022" class="node">
<title>Node22</title>
<g id="a_Node000022"><a xlink:href="FrameGraphCanvas_8h.html" target="_top" xlink:title=" ">
<polygon fill="white" stroke="#666666" points="325.29,-184 203.29,-184 203.29,-165 325.29,-165 325.29,-184"/>
<text text-anchor="middle" x="264.29" y="-172" font-family="Helvetica,sans-Serif" font-size="10.00">FrameGraphCanvas.h</text>
</a>
</g>
</g>
<!-- Node1&#45;&gt;Node22 -->
<g id="edge23_Node000001_Node000022" class="edge">
<title>Node1&#45;&gt;Node22</title>
<g id="a_edge23_Node000001_Node000022"><a xlink:title=" ">
<path fill="none" stroke="#63b8ff" d="M430.48,-219.98C396.8,-210.97 343.49,-196.7 306.36,-186.76"/>
<polygon fill="#63b8ff" stroke="#63b8ff" points="306.92,-183.29 296.35,-184.08 305.11,-190.05 306.92,-183.29"/>
</a>
</g>
</g>
<!-- Node3 -->
<g id="Node000003" class="node">
<title>Node3</title>
<g id="a_Node000003"><a xlink:title=" ">
<polygon fill="#e0e0e0" stroke="#999999" points="156.79,-129 97.79,-129 97.79,-110 156.79,-110 156.79,-129"/>
<text text-anchor="middle" x="127.29" y="-117" font-family="Helvetica,sans-Serif" font-size="10.00">QWidget</text>
</a>
</g>
</g>
<!-- Node2&#45;&gt;Node3 -->
<g id="edge2_Node000002_Node000003" class="edge">
<title>Node2&#45;&gt;Node3</title>
<g id="a_edge2_Node000002_Node000003"><a xlink:title=" ">
<path fill="none" stroke="#63b8ff" d="M125.62,-164.75C125.88,-157.8 126.26,-147.85 126.59,-139.13"/>
<polygon fill="#63b8ff" stroke="#63b8ff" points="130.08,-139.21 126.96,-129.09 123.09,-138.95 130.08,-139.21"/>
</a>
</g>
</g>
<!-- Node4 -->
<g id="Node000004" class="node">
<title>Node4</title>
<g id="a_Node000004"><a xlink:title=" ">
<polygon fill="#e0e0e0" stroke="#999999" points="217.29,-129 175.29,-129 175.29,-110 217.29,-110 217.29,-129"/>
<text text-anchor="middle" x="196.29" y="-117" font-family="Helvetica,sans-Serif" font-size="10.00">array</text>
</a>
</g>
</g>
<!-- Node2&#45;&gt;Node4 -->
<g id="edge3_Node000002_Node000004" class="edge">
<title>Node2&#45;&gt;Node4</title>
<g id="a_edge3_Node000002_Node000004"><a xlink:title=" ">
<path fill="none" stroke="#63b8ff" d="M136.7,-164.98C147.4,-157 163.63,-144.88 176.45,-135.31"/>
<polygon fill="#63b8ff" stroke="#63b8ff" points="178.75,-137.96 184.67,-129.17 174.57,-132.35 178.75,-137.96"/>
</a>
</g>
</g>
<!-- Node5 -->
<g id="Node000005" class="node">
<title>Node5</title>
<g id="a_Node000005"><a xlink:title=" ">
<polygon fill="#e0e0e0" stroke="#999999" points="180.79,-19 133.79,-19 133.79,0 180.79,0 180.79,-19"/>
<text text-anchor="middle" x="157.29" y="-7" font-family="Helvetica,sans-Serif" font-size="10.00">vector</text>
</a>
</g>
</g>
<!-- Node2&#45;&gt;Node5 -->
<g id="edge4_Node000002_Node000005" class="edge">
<title>Node2&#45;&gt;Node5</title>
<g id="a_edge4_Node000002_Node000005"><a xlink:title=" ">
<path fill="none" stroke="#63b8ff" d="M70.35,-164.96C49.18,-158.69 27.03,-147.83 14.29,-129 -4.14,-101.76 -5.21,-81.49 14.29,-55 39.18,-21.18 89.59,-12.32 123.41,-10.39"/>
<polygon fill="#63b8ff" stroke="#63b8ff" points="123.89,-13.87 133.75,-9.98 123.62,-6.88 123.89,-13.87"/>
</a>
</g>
</g>
<!-- Node6 -->
<g id="Node000006" class="node">
<title>Node6</title>
<g id="a_Node000006"><a xlink:href="Metric_8h.html" target="_top" xlink:title=" ">
<polygon fill="white" stroke="#666666" points="79.29,-129 23.29,-129 23.29,-110 79.29,-110 79.29,-129"/>
<text text-anchor="middle" x="51.29" y="-117" font-family="Helvetica,sans-Serif" font-size="10.00">Metric.h</text>
</a>
</g>
</g>
<!-- Node2&#45;&gt;Node6 -->
<g id="edge5_Node000002_Node000006" class="edge">
<title>Node2&#45;&gt;Node6</title>
<g id="a_edge5_Node000002_Node000006"><a xlink:title=" ">
<path fill="none" stroke="#63b8ff" d="M113.4,-164.98C102.14,-156.92 85,-144.65 71.58,-135.03"/>
<polygon fill="#63b8ff" stroke="#63b8ff" points="73.56,-132.15 63.39,-129.17 69.49,-137.84 73.56,-132.15"/>
</a>
</g>
</g>
<!-- Node7 -->
<g id="Node000007" class="node">
<title>Node7</title>
<g id="a_Node000007"><a xlink:title=" ">
<polygon fill="#e0e0e0" stroke="#999999" points="222.79,-74 169.79,-74 169.79,-55 222.79,-55 222.79,-74"/>
<text text-anchor="middle" x="196.29" y="-62" font-family="Helvetica,sans-Serif" font-size="10.00">cstddef</text>
</a>
</g>
</g>
<!-- Node6&#45;&gt;Node7 -->
<g id="edge6_Node000006_Node000007" class="edge">
<title>Node6&#45;&gt;Node7</title>
<g id="a_edge6_Node000006_Node000007"><a xlink:title=" ">
<path fill="none" stroke="#63b8ff" d="M74.59,-109.98C98.54,-101.23 136.07,-87.51 163.12,-77.62"/>
<polygon fill="#63b8ff" stroke="#63b8ff" points="164.38,-80.89 172.57,-74.17 161.97,-74.32 164.38,-80.89"/>
</a>
</g>
</g>
<!-- Node8 -->
<g id="Node000008" class="node">
<title>Node8</title>
<g id="a_Node000008"><a xlink:title=" ">
<polygon fill="#e0e0e0" stroke="#999999" points="76.79,-74 23.79,-74 23.79,-55 76.79,-55 76.79,-74"/>
<text text-anchor="middle" x="50.29" y="-62" font-family="Helvetica,sans-Serif" font-size="10.00">QString</text>
</a>
</g>
</g>
<!-- Node6&#45;&gt;Node8 -->
<g id="edge7_Node000006_Node000008" class="edge">
<title>Node6&#45;&gt;Node8</title>
<g id="a_edge7_Node000006_Node000008"><a xlink:title=" ">
<path fill="none" stroke="#63b8ff" d="M51.12,-109.75C50.99,-102.8 50.8,-92.85 50.64,-84.13"/>
<polygon fill="#63b8ff" stroke="#63b8ff" points="54.14,-84.02 50.45,-74.09 47.14,-84.15 54.14,-84.02"/>
</a>
</g>
</g>
<!-- Node9 -->
<g id="Node000009" class="node">
<title>Node9</title>
<g id="a_Node000009"><a xlink:title=" ">
<polygon fill="#e0e0e0" stroke="#999999" points="151.29,-74 95.29,-74 95.29,-55 151.29,-55 151.29,-74"/>
<text text-anchor="middle" x="123.29" y="-62" font-family="Helvetica,sans-Serif" font-size="10.00">QObject</text>
</a>
</g>
</g>
<!-- Node6&#45;&gt;Node9 -->
<g id="edge8_Node000006_Node000009" class="edge">
<title>Node6&#45;&gt;Node9</title>
<g id="a_edge8_Node000006_Node000009"><a xlink:title=" ">
<path fill="none" stroke="#63b8ff" d="M62.86,-109.98C73.71,-102 90.17,-89.88 103.17,-80.31"/>
<polygon fill="#63b8ff" stroke="#63b8ff" points="105.53,-82.92 111.51,-74.17 101.38,-77.28 105.53,-82.92"/>
</a>
</g>
</g>
<!-- Node6&#45;&gt;Node10 -->
<g id="edge9_Node000006_Node000010" class="edge">
<title>Node6&#45;&gt;Node10</title>
<g id="a_edge9_Node000006_Node000010"><a xlink:title=" ">
<path fill="none" stroke="#63b8ff" d="M79.46,-111.94C82.77,-111.25 86.1,-110.58 89.29,-110 171.29,-95.02 266.16,-82.15 329.77,-74.16"/>
<polygon fill="#63b8ff" stroke="#63b8ff" points="330.21,-77.64 339.7,-72.92 329.34,-70.69 330.21,-77.64"/>
</a>
</g>
</g>
<!-- Node10&#45;&gt;Node5 -->
<g id="edge14_Node000010_Node000005" class="edge">
<title>Node10&#45;&gt;Node5</title>
<g id="a_edge14_Node000010_Node000005"><a xlink:title=" ">
<path fill="none" stroke="#63b8ff" d="M358.72,-54.95C317.87,-46.81 254.86,-33.9 190.9,-19.06"/>
<polygon fill="#63b8ff" stroke="#63b8ff" points="191.58,-15.62 181.05,-16.76 189.99,-22.44 191.58,-15.62"/>
</a>
</g>
</g>
<!-- Node11 -->
<g id="Node000011" class="node">
<title>Node11</title>
<g id="a_Node000011"><a xlink:title=" ">
<polygon fill="#e0e0e0" stroke="#999999" points="697.29,-19 647.29,-19 647.29,0 697.29,0 697.29,-19"/>
<text text-anchor="middle" x="672.29" y="-7" font-family="Helvetica,sans-Serif" font-size="10.00">atomic</text>
</a>
</g>
</g>
<!-- Node10&#45;&gt;Node11 -->
<g id="edge10_Node000010_Node000011" class="edge">
<title>Node10&#45;&gt;Node11</title>
<g id="a_edge10_Node000010_Node000011"><a xlink:title=" ">
<path fill="none" stroke="#63b8ff" d="M452.18,-54.97C497.92,-46.95 567.73,-34.22 637.27,-19.12"/>
<polygon fill="#63b8ff" stroke="#63b8ff" points="638.06,-22.53 647.08,-16.98 636.56,-15.7 638.06,-22.53"/>
</a>
</g>
</g>
<!-- Node12 -->
<g id="Node000012" class="node">
<title>Node12</title>
<g id="a_Node000012"><a xlink:title=" ">
<polygon fill="#e0e0e0" stroke="#999999" points="243.29,-19 199.29,-19 199.29,0 243.29,0 243.29,-19"/>
<text text-anchor="middle" x="221.29" y="-7" font-family="Helvetica,sans-Serif" font-size="10.00">string</text>
</a>
</g>
</g>
<!-- Node10&#45;&gt;Node12 -->
<g id="edge11_Node000010_Node000012" class="edge">
<title>Node10&#45;&gt;Node12</title>
<g id="a_edge11_Node000010_Node000012"><a xlink:title=" ">
<path fill="none" stroke="#63b8ff" d="M373.21,-54.98C340.42,-45.39 287.28,-29.82 253.33,-19.88"/>
<polygon fill="#63b8ff" stroke="#63b8ff" points="254.03,-16.44 243.45,-16.99 252.07,-23.16 254.03,-16.44"/>
</a>
</g>
</g>
<!-- Node13 -->
<g id="Node000013" class="node">
<title>Node13</title>
<g id="a_Node000013"><a xlink:title=" ">
<polygon fill="#e0e0e0" stroke="#999999" points="306.79,-19 261.79,-19 261.79,0 306.79,0 306.79,-19"/>
<text text-anchor="middle" x="284.29" y="-7" font-family="Helvetica,sans-Serif" font-size="10.00">utility</text>
</a>
</g>
</g>
<!-- Node10&#45;&gt;Node13 -->
<g id="edge12_Node000010_Node000013" class="edge">
<title>Node10&#45;&gt;Node13</title>
<g id="a_edge12_Node000010_Node000013"><a xlink:title=" ">
<path fill="none" stroke="#63b8ff" d="M383.33,-54.98C364.26,-46.42 334.63,-33.11 312.74,-23.28"/>
<polygon fill="#63b8ff" stroke="#63b8ff" points="314.15,-20.07 303.59,-19.17 311.28,-26.46 314.15,-20.07"/>
</a>
</g>
</g>
<!-- Node14 -->
<g id="Node000014" class="node">
<title>Node14</title>
<g id="a_Node000014"><a xlink:title=" ">
<polygon fill="#e0e0e0" stroke="#999999" points="403.29,-19 325.29,-19 325.29,0 403.29,0 403.29,-19"/>
<text text-anchor="middle" x="364.29" y="-7" font-family="Helvetica,sans-Serif" font-size="10.00">glm/glm.hpp</text>
</a>
</g>
</g>
<!-- Node10&#45;&gt;Node14 -->
<g id="edge13_Node000010_Node000014" class="edge">
<title>Node10&#45;&gt;Node14</title>
<g id="a_edge13_Node000010_Node000014"><a xlink:title=" ">
<path fill="none" stroke="#63b8ff" d="M396.01,-54.75C390.7,-47.34 382.93,-36.5 376.41,-27.41"/>
<polygon fill="#63b8ff" stroke="#63b8ff" points="379.12,-25.18 370.45,-19.09 373.43,-29.26 379.12,-25.18"/>
</a>
</g>
</g>
<!-- Node15 -->
<g id="Node000015" class="node">
<title>Node15</title>
<g id="a_Node000015"><a xlink:title=" ">
<polygon fill="#e0e0e0" stroke="#999999" points="459.29,-19 421.29,-19 421.29,0 459.29,0 459.29,-19"/>
<text text-anchor="middle" x="440.29" y="-7" font-family="Helvetica,sans-Serif" font-size="10.00">map</text>
</a>
</g>
</g>
<!-- Node10&#45;&gt;Node15 -->
<g id="edge15_Node000010_Node000015" class="edge">
<title>Node10&#45;&gt;Node15</title>
<g id="a_edge15_Node000010_Node000015"><a xlink:title=" ">
<path fill="none" stroke="#63b8ff" d="M408.56,-54.75C413.88,-47.34 421.64,-36.5 428.16,-27.41"/>
<polygon fill="#63b8ff" stroke="#63b8ff" points="431.15,-29.26 434.13,-19.09 425.46,-25.18 431.15,-29.26"/>
</a>
</g>
</g>
<!-- Node16 -->
<g id="Node000016" class="node">
<title>Node16</title>
<g id="a_Node000016"><a xlink:title=" ">
<polygon fill="#e0e0e0" stroke="#999999" points="525.29,-19 477.29,-19 477.29,0 525.29,0 525.29,-19"/>
<text text-anchor="middle" x="501.29" y="-7" font-family="Helvetica,sans-Serif" font-size="10.00">mutex</text>
</a>
</g>
</g>
<!-- Node10&#45;&gt;Node16 -->
<g id="edge16_Node000010_Node000016" class="edge">
<title>Node10&#45;&gt;Node16</title>
<g id="a_edge16_Node000010_Node000016"><a xlink:title=" ">
<path fill="none" stroke="#63b8ff" d="M418.19,-54.98C433.83,-46.61 457.94,-33.7 476.17,-23.95"/>
<polygon fill="#63b8ff" stroke="#63b8ff" points="477.93,-26.98 485.09,-19.17 474.63,-20.8 477.93,-26.98"/>
</a>
</g>
</g>
<!-- Node17 -->
<g id="Node000017" class="node">
<title>Node17</title>
<g id="a_Node000017"><a xlink:title=" ">
<polygon fill="#e0e0e0" stroke="#999999" points="629.29,-19 543.29,-19 543.29,0 629.29,0 629.29,-19"/>
<text text-anchor="middle" x="586.29" y="-7" font-family="Helvetica,sans-Serif" font-size="10.00">unordered_set</text>
</a>
</g>
</g>
<!-- Node10&#45;&gt;Node17 -->
<g id="edge17_Node000010_Node000017" class="edge">
<title>Node10&#45;&gt;Node17</title>
<g id="a_edge17_Node000010_Node000017"><a xlink:title=" ">
<path fill="none" stroke="#63b8ff" d="M431.85,-54.98C463.01,-46.01 512.26,-31.82 546.75,-21.89"/>
<polygon fill="#63b8ff" stroke="#63b8ff" points="547.85,-25.21 556.49,-19.08 545.92,-18.49 547.85,-25.21"/>
</a>
</g>
</g>
<!-- Node22&#45;&gt;Node3 -->
<g id="edge24_Node000022_Node000003" class="edge">
<title>Node22&#45;&gt;Node3</title>
<g id="a_edge24_Node000022_Node000003"><a xlink:title=" ">
<path fill="none" stroke="#63b8ff" d="M242.28,-164.98C219.84,-156.3 184.81,-142.75 159.3,-132.88"/>
<polygon fill="#63b8ff" stroke="#63b8ff" points="160.29,-129.51 149.7,-129.17 157.76,-136.04 160.29,-129.51"/>
</a>
</g>
</g>
<!-- Node22&#45;&gt;Node4 -->
<g id="edge25_Node000022_Node000004" class="edge">
<title>Node22&#45;&gt;Node4</title>
<g id="a_edge25_Node000022_Node000004"><a xlink:title=" ">
<path fill="none" stroke="#63b8ff" d="M253.36,-164.98C243.21,-157.07 227.87,-145.11 215.64,-135.58"/>
<polygon fill="#63b8ff" stroke="#63b8ff" points="217.45,-132.56 207.41,-129.17 213.15,-138.08 217.45,-132.56"/>
</a>
</g>
</g>
<!-- Node22&#45;&gt;Node5 -->
<g id="edge26_Node000022_Node000005" class="edge">
<title>Node22&#45;&gt;Node5</title>
<g id="a_edge26_Node000022_Node000005"><a xlink:title=" ">
<path fill="none" stroke="#63b8ff" d="M275.45,-164.67C289.28,-152.59 309.9,-130.13 300.29,-110 278.73,-64.84 225.31,-36.49 190.22,-22.09"/>
<polygon fill="#63b8ff" stroke="#63b8ff" points="191.43,-18.81 180.85,-18.4 188.87,-25.32 191.43,-18.81"/>
</a>
</g>
</g>
<!-- Node22&#45;&gt;Node6 -->
<g id="edge28_Node000022_Node000006" class="edge">
<title>Node22&#45;&gt;Node6</title>
<g id="a_edge28_Node000022_Node000006"><a xlink:title=" ">
<path fill="none" stroke="#63b8ff" d="M230.07,-164.98C191.55,-155.4 129.17,-139.88 89.2,-129.93"/>
<polygon fill="#63b8ff" stroke="#63b8ff" points="89.86,-126.49 79.31,-127.47 88.16,-133.28 89.86,-126.49"/>
</a>
</g>
</g>
<!-- Node22&#45;&gt;Node10 -->
<g id="edge29_Node000022_Node000010" class="edge">
<title>Node22&#45;&gt;Node10</title>
<g id="a_edge29_Node000022_Node000010"><a xlink:title=" ">
<path fill="none" stroke="#63b8ff" d="M279.05,-164.99C293.37,-156.5 315.47,-142.78 333.29,-129 352.67,-114.01 373.1,-94.71 386.66,-81.34"/>
<polygon fill="#63b8ff" stroke="#63b8ff" points="389.18,-83.77 393.78,-74.23 384.23,-78.81 389.18,-83.77"/>
</a>
</g>
</g>
<!-- Node23 -->
<g id="Node000023" class="node">
<title>Node23</title>
<g id="a_Node000023"><a xlink:title=" ">
<polygon fill="#e0e0e0" stroke="#999999" points="290.79,-129 235.79,-129 235.79,-110 290.79,-110 290.79,-129"/>
<text text-anchor="middle" x="263.29" y="-117" font-family="Helvetica,sans-Serif" font-size="10.00">QPointF</text>
</a>
</g>
</g>
<!-- Node22&#45;&gt;Node23 -->
<g id="edge27_Node000022_Node000023" class="edge">
<title>Node22&#45;&gt;Node23</title>
<g id="a_edge27_Node000022_Node000023"><a xlink:title=" ">
<path fill="none" stroke="#63b8ff" d="M264.12,-164.75C263.99,-157.8 263.8,-147.85 263.64,-139.13"/>
<polygon fill="#63b8ff" stroke="#63b8ff" points="267.14,-139.02 263.45,-129.09 260.14,-139.15 267.14,-139.02"/>
</a>
</g>
</g>
</g>
</svg>
