<?xml version="1.0" encoding="UTF-8" standalone="no"?>
<!DOCTYPE svg PUBLIC "-//W3C//DTD SVG 1.1//EN"
 "http://www.w3.org/Graphics/SVG/1.1/DTD/svg11.dtd">
<!-- Generated by graphviz version 2.43.0 (0)
 -->
<!-- Title: src/ui/graph/FrameGraphPanel.cpp Pages: 1 -->
<svg width="1001pt" height="247pt"
 viewBox="0.00 0.00 1000.50 247.00" xmlns="http://www.w3.org/2000/svg" xmlns:xlink="http://www.w3.org/1999/xlink">
<g id="graph0" class="graph" transform="scale(1 1) rotate(0) translate(4 243)">
<title>src/ui/graph/FrameGraphPanel.cpp</title>
<!-- Node1 -->
<g id="Node000001" class="node">
<title>Node1</title>
<g id="a_Node000001"><a xlink:title=" ">
<polygon fill="#999999" stroke="#666666" points="387.5,-239 204.5,-239 204.5,-220 387.5,-220 387.5,-239"/>
<text text-anchor="middle" x="296" y="-227" font-family="Helvetica,sans-Serif" font-size="10.00">src/ui/graph/FrameGraphPanel.cpp</text>
</a>
</g>
</g>
<!-- Node2 -->
<g id="Node000002" class="node">
<title>Node2</title>
<g id="a_Node000002"><a xlink:title=" ">
<polygon fill="#e0e0e0" stroke="#999999" points="64,-184 0,-184 0,-165 64,-165 64,-184"/>
<text text-anchor="middle" x="32" y="-172" font-family="Helvetica,sans-Serif" font-size="10.00">algorithm</text>
</a>
</g>
</g>
<!-- Node1&#45;&gt;Node2 -->
<g id="edge1_Node000001_Node000002" class="edge">
<title>Node1&#45;&gt;Node2</title>
<g id="a_edge1_Node000001_Node000002"><a xlink:title=" ">
<path fill="none" stroke="#63b8ff" d="M252.81,-219.98C209.98,-211.51 142.21,-198.05 74.25,-184.24"/>
<polygon fill="#63b8ff" stroke="#63b8ff" points="74.72,-180.77 64.22,-182.2 73.33,-187.63 74.72,-180.77"/>
</a>
</g>
</g>
<!-- Node3 -->
<g id="Node000003" class="node">
<title>Node3</title>
<g id="a_Node000003"><a xlink:title=" ">
<polygon fill="#e0e0e0" stroke="#999999" points="165.5,-184 82.5,-184 82.5,-165 165.5,-165 165.5,-184"/>
<text text-anchor="middle" x="124" y="-172" font-family="Helvetica,sans-Serif" font-size="10.00">QVBoxLayout</text>
</a>
</g>
</g>
<!-- Node1&#45;&gt;Node3 -->
<g id="edge2_Node000001_Node000003" class="edge">
<title>Node1&#45;&gt;Node3</title>
<g id="a_edge2_Node000001_Node000003"><a xlink:title=" ">
<path fill="none" stroke="#63b8ff" d="M268.37,-219.98C239.49,-211.09 193.99,-197.07 161.8,-187.15"/>
<polygon fill="#63b8ff" stroke="#63b8ff" points="162.44,-183.68 151.85,-184.08 160.38,-190.37 162.44,-183.68"/>
</a>
</g>
</g>
<!-- Node4 -->
<g id="Node000004" class="node">
<title>Node4</title>
<g id="a_Node000004"><a xlink:title=" ">
<polygon fill="#e0e0e0" stroke="#999999" points="268,-184 184,-184 184,-165 268,-165 268,-184"/>
<text text-anchor="middle" x="226" y="-172" font-family="Helvetica,sans-Serif" font-size="10.00">QResizeEvent</text>
</a>
</g>
</g>
<!-- Node1&#45;&gt;Node4 -->
<g id="edge3_Node000001_Node000004" class="edge">
<title>Node1&#45;&gt;Node4</title>
<g id="a_edge3_Node000001_Node000004"><a xlink:title=" ">
<path fill="none" stroke="#63b8ff" d="M284.75,-219.98C274.2,-212 258.2,-199.88 245.56,-190.31"/>
<polygon fill="#63b8ff" stroke="#63b8ff" points="247.54,-187.42 237.45,-184.17 243.31,-193 247.54,-187.42"/>
</a>
</g>
</g>
<!-- Node5 -->
<g id="Node000005" class="node">
<title>Node5</title>
<g id="a_Node000005"><a xlink:title=" ">
<polygon fill="#e0e0e0" stroke="#999999" points="376,-129 334,-129 334,-110 376,-110 376,-129"/>
<text text-anchor="middle" x="355" y="-117" font-family="Helvetica,sans-Serif" font-size="10.00">array</text>
</a>
</g>
</g>
<!-- Node1&#45;&gt;Node5 -->
<g id="edge4_Node000001_Node000005" class="edge">
<title>Node1&#45;&gt;Node5</title>
<g id="a_edge4_Node000001_Node000005"><a xlink:title=" ">
<path fill="none" stroke="#63b8ff" d="M297.35,-219.81C299.59,-207.12 304.86,-183.06 315,-165 320.95,-154.4 329.82,-144.2 337.69,-136.24"/>
<polygon fill="#63b8ff" stroke="#63b8ff" points="340.32,-138.56 345.09,-129.1 335.46,-133.52 340.32,-138.56"/>
</a>
</g>
</g>
<!-- Node6 -->
<g id="Node000006" class="node">
<title>Node6</title>
<g id="a_Node000006"><a xlink:href="FrameGraphPanel_8h.html" target="_top" xlink:title=" ">
<polygon fill="white" stroke="#666666" points="612,-184 500,-184 500,-165 612,-165 612,-184"/>
<text text-anchor="middle" x="556" y="-172" font-family="Helvetica,sans-Serif" font-size="10.00">FrameGraphPanel.h</text>
</a>
</g>
</g>
<!-- Node1&#45;&gt;Node6 -->
<g id="edge5_Node000001_Node000006" class="edge">
<title>Node1&#45;&gt;Node6</title>
<g id="a_edge5_Node000001_Node000006"><a xlink:title=" ">
<path fill="none" stroke="#63b8ff" d="M337.77,-219.98C382.94,-210.78 455,-196.09 503.85,-186.13"/>
<polygon fill="#63b8ff" stroke="#63b8ff" points="504.8,-189.51 513.9,-184.08 503.4,-182.65 504.8,-189.51"/>
</a>
</g>
</g>
<!-- Node11 -->
<g id="Node000011" class="node">
<title>Node11</title>
<g id="a_Node000011"><a xlink:href="Metric_8h.html" target="_top" xlink:title=" ">
<polygon fill="white" stroke="#666666" points="450,-129 394,-129 394,-110 450,-110 450,-129"/>
<text text-anchor="middle" x="422" y="-117" font-family="Helvetica,sans-Serif" font-size="10.00">Metric.h</text>
</a>
</g>
</g>
<!-- Node1&#45;&gt;Node11 -->
<g id="edge30_Node000001_Node000011" class="edge">
<title>Node1&#45;&gt;Node11</title>
<g id="a_edge30_Node000001_Node000011"><a xlink:title=" ">
<path fill="none" stroke="#63b8ff" d="M351.55,-219.97C391.55,-212.57 440.57,-200.44 453,-184 464.13,-169.27 451.47,-149.92 439.14,-136.47"/>
<polygon fill="#63b8ff" stroke="#63b8ff" points="441.6,-133.99 432.1,-129.31 436.61,-138.89 441.6,-133.99"/>
</a>
</g>
</g>
<!-- Node23 -->
<g id="Node000023" class="node">
<title>Node23</title>
<g id="a_Node000023"><a xlink:href="FrameGraphWidget_8h.html" target="_top" xlink:title=" ">
<polygon fill="white" stroke="#666666" points="444,-184 324,-184 324,-165 444,-165 444,-184"/>
<text text-anchor="middle" x="384" y="-172" font-family="Helvetica,sans-Serif" font-size="10.00">FrameGraphWidget.h</text>
</a>
</g>
</g>
<!-- Node1&#45;&gt;Node23 -->
<g id="edge25_Node000001_Node000023" class="edge">
<title>Node1&#45;&gt;Node23</title>
<g id="a_edge25_Node000001_Node000023"><a xlink:title=" ">
<path fill="none" stroke="#63b8ff" d="M310.14,-219.98C323.79,-211.77 344.69,-199.18 360.78,-189.49"/>
<polygon fill="#63b8ff" stroke="#63b8ff" points="362.84,-192.33 369.6,-184.17 359.23,-186.33 362.84,-192.33"/>
</a>
</g>
</g>
<!-- Node6&#45;&gt;Node5 -->
<g id="edge9_Node000006_Node000005" class="edge">
<title>Node6&#45;&gt;Node5</title>
<g id="a_edge9_Node000006_Node000005"><a xlink:title=" ">
<path fill="none" stroke="#63b8ff" d="M522.2,-164.93C489.69,-156.64 438.9,-143.56 386.16,-129.27"/>
<polygon fill="#63b8ff" stroke="#63b8ff" points="386.86,-125.84 376.29,-126.59 385.02,-132.59 386.86,-125.84"/>
</a>
</g>
</g>
<!-- Node7 -->
<g id="Node000007" class="node">
<title>Node7</title>
<g id="a_Node000007"><a xlink:title=" ">
<polygon fill="#e0e0e0" stroke="#999999" points="527.5,-129 468.5,-129 468.5,-110 527.5,-110 527.5,-129"/>
<text text-anchor="middle" x="498" y="-117" font-family="Helvetica,sans-Serif" font-size="10.00">QWidget</text>
</a>
</g>
</g>
<!-- Node6&#45;&gt;Node7 -->
<g id="edge6_Node000006_Node000007" class="edge">
<title>Node6&#45;&gt;Node7</title>
<g id="a_edge6_Node000006_Node000007"><a xlink:title=" ">
<path fill="none" stroke="#63b8ff" d="M546.68,-164.98C538.19,-157.23 525.44,-145.58 515.12,-136.14"/>
<polygon fill="#63b8ff" stroke="#63b8ff" points="517.23,-133.33 507.49,-129.17 512.51,-138.5 517.23,-133.33"/>
</a>
</g>
</g>
<!-- Node8 -->
<g id="Node000008" class="node">
<title>Node8</title>
<g id="a_Node000008"><a xlink:title=" ">
<polygon fill="#e0e0e0" stroke="#999999" points="661.5,-129 584.5,-129 584.5,-110 661.5,-110 661.5,-129"/>
<text text-anchor="middle" x="623" y="-117" font-family="Helvetica,sans-Serif" font-size="10.00">QGridLayout</text>
</a>
</g>
</g>
<!-- Node6&#45;&gt;Node8 -->
<g id="edge7_Node000006_Node000008" class="edge">
<title>Node6&#45;&gt;Node8</title>
<g id="a_edge7_Node000006_Node000008"><a xlink:title=" ">
<path fill="none" stroke="#63b8ff" d="M566.76,-164.98C576.77,-157.07 591.89,-145.11 603.93,-135.58"/>
<polygon fill="#63b8ff" stroke="#63b8ff" points="606.37,-138.12 612.04,-129.17 602.03,-132.63 606.37,-138.12"/>
</a>
</g>
</g>
<!-- Node9 -->
<g id="Node000009" class="node">
<title>Node9</title>
<g id="a_Node000009"><a xlink:title=" ">
<polygon fill="#e0e0e0" stroke="#999999" points="754,-129 680,-129 680,-110 754,-110 754,-129"/>
<text text-anchor="middle" x="717" y="-117" font-family="Helvetica,sans-Serif" font-size="10.00">QScrollArea</text>
</a>
</g>
</g>
<!-- Node6&#45;&gt;Node9 -->
<g id="edge8_Node000006_Node000009" class="edge">
<title>Node6&#45;&gt;Node9</title>
<g id="a_edge8_Node000006_Node000009"><a xlink:title=" ">
<path fill="none" stroke="#63b8ff" d="M581.87,-164.98C608.78,-156.13 651.12,-142.19 681.23,-132.28"/>
<polygon fill="#63b8ff" stroke="#63b8ff" points="682.53,-135.53 690.93,-129.08 680.34,-128.88 682.53,-135.53"/>
</a>
</g>
</g>
<!-- Node10 -->
<g id="Node000010" class="node">
<title>Node10</title>
<g id="a_Node000010"><a xlink:title=" ">
<polygon fill="#e0e0e0" stroke="#999999" points="476.5,-19 429.5,-19 429.5,0 476.5,0 476.5,-19"/>
<text text-anchor="middle" x="453" y="-7" font-family="Helvetica,sans-Serif" font-size="10.00">vector</text>
</a>
</g>
</g>
<!-- Node6&#45;&gt;Node10 -->
<g id="edge10_Node000006_Node000010" class="edge">
<title>Node6&#45;&gt;Node10</title>
<g id="a_edge10_Node000006_Node000010"><a xlink:title=" ">
<path fill="none" stroke="#63b8ff" d="M557.06,-164.79C559.14,-143.75 561.62,-89.39 537,-55 524.84,-38.02 504.17,-26.95 486.38,-20.1"/>
<polygon fill="#63b8ff" stroke="#63b8ff" points="487.46,-16.77 476.87,-16.72 485.12,-23.36 487.46,-16.77"/>
</a>
</g>
</g>
<!-- Node6&#45;&gt;Node11 -->
<g id="edge11_Node000006_Node000011" class="edge">
<title>Node6&#45;&gt;Node11</title>
<g id="a_edge11_Node000006_Node000011"><a xlink:title=" ">
<path fill="none" stroke="#63b8ff" d="M534.47,-164.98C512.53,-156.3 478.26,-142.75 453.31,-132.88"/>
<polygon fill="#63b8ff" stroke="#63b8ff" points="454.51,-129.59 443.92,-129.17 451.93,-136.1 454.51,-129.59"/>
</a>
</g>
</g>
<!-- Node15 -->
<g id="Node000015" class="node">
<title>Node15</title>
<g id="a_Node000015"><a xlink:href="PhysicsBody_8h.html" target="_top" xlink:title=" ">
<polygon fill="white" stroke="#666666" points="776.5,-74 651.5,-74 651.5,-55 776.5,-55 776.5,-74"/>
<text text-anchor="middle" x="714" y="-62" font-family="Helvetica,sans-Serif" font-size="10.00">physics/PhysicsBody.h</text>
</a>
</g>
</g>
<!-- Node6&#45;&gt;Node15 -->
<g id="edge24_Node000006_Node000015" class="edge">
<title>Node6&#45;&gt;Node15</title>
<g id="a_edge24_Node000006_Node000015"><a xlink:title=" ">
<path fill="none" stroke="#63b8ff" d="M612.17,-169.22C666.85,-163.76 744.35,-152.09 763,-129 776.52,-112.26 755.87,-92.59 737.37,-79.63"/>
<polygon fill="#63b8ff" stroke="#63b8ff" points="739.15,-76.62 728.88,-74.02 735.29,-82.45 739.15,-76.62"/>
</a>
</g>
</g>
<!-- Node12 -->
<g id="Node000012" class="node">
<title>Node12</title>
<g id="a_Node000012"><a xlink:title=" ">
<polygon fill="#e0e0e0" stroke="#999999" points="456.5,-74 403.5,-74 403.5,-55 456.5,-55 456.5,-74"/>
<text text-anchor="middle" x="430" y="-62" font-family="Helvetica,sans-Serif" font-size="10.00">cstddef</text>
</a>
</g>
</g>
<!-- Node11&#45;&gt;Node12 -->
<g id="edge12_Node000011_Node000012" class="edge">
<title>Node11&#45;&gt;Node12</title>
<g id="a_edge12_Node000011_Node000012"><a xlink:title=" ">
<path fill="none" stroke="#63b8ff" d="M423.32,-109.75C424.37,-102.8 425.87,-92.85 427.19,-84.13"/>
<polygon fill="#63b8ff" stroke="#63b8ff" points="430.67,-84.5 428.7,-74.09 423.75,-83.45 430.67,-84.5"/>
</a>
</g>
</g>
<!-- Node13 -->
<g id="Node000013" class="node">
<title>Node13</title>
<g id="a_Node000013"><a xlink:title=" ">
<polygon fill="#e0e0e0" stroke="#999999" points="527.5,-74 474.5,-74 474.5,-55 527.5,-55 527.5,-74"/>
<text text-anchor="middle" x="501" y="-62" font-family="Helvetica,sans-Serif" font-size="10.00">QString</text>
</a>
</g>
</g>
<!-- Node11&#45;&gt;Node13 -->
<g id="edge13_Node000011_Node000013" class="edge">
<title>Node11&#45;&gt;Node13</title>
<g id="a_edge13_Node000011_Node000013"><a xlink:title=" ">
<path fill="none" stroke="#63b8ff" d="M434.69,-109.98C446.83,-101.84 465.36,-89.41 479.75,-79.76"/>
<polygon fill="#63b8ff" stroke="#63b8ff" points="481.72,-82.65 488.08,-74.17 477.82,-76.84 481.72,-82.65"/>
</a>
</g>
</g>
<!-- Node14 -->
<g id="Node000014" class="node">
<title>Node14</title>
<g id="a_Node000014"><a xlink:title=" ">
<polygon fill="#e0e0e0" stroke="#999999" points="385,-74 329,-74 329,-55 385,-55 385,-74"/>
<text text-anchor="middle" x="357" y="-62" font-family="Helvetica,sans-Serif" font-size="10.00">QObject</text>
</a>
</g>
</g>
<!-- Node11&#45;&gt;Node14 -->
<g id="edge14_Node000011_Node000014" class="edge">
<title>Node11&#45;&gt;Node14</title>
<g id="a_edge14_Node000011_Node000014"><a xlink:title=" ">
<path fill="none" stroke="#63b8ff" d="M411.56,-109.98C401.85,-102.07 387.18,-90.11 375.5,-80.58"/>
<polygon fill="#63b8ff" stroke="#63b8ff" points="377.6,-77.78 367.63,-74.17 373.17,-83.2 377.6,-77.78"/>
</a>
</g>
</g>
<!-- Node11&#45;&gt;Node15 -->
<g id="edge15_Node000011_Node000015" class="edge">
<title>Node11&#45;&gt;Node15</title>
<g id="a_edge15_Node000011_Node000015"><a xlink:title=" ">
<path fill="none" stroke="#63b8ff" d="M450.19,-112.04C453.49,-111.33 456.82,-110.63 460,-110 524.83,-97.08 599.37,-84.26 650.86,-75.72"/>
<polygon fill="#63b8ff" stroke="#63b8ff" points="651.54,-79.16 660.84,-74.07 650.4,-72.25 651.54,-79.16"/>
</a>
</g>
</g>
<!-- Node15&#45;&gt;Node10 -->
<g id="edge20_Node000015_Node000010" class="edge">
<title>Node15&#45;&gt;Node10</title>
<g id="a_edge20_Node000015_Node000010"><a xlink:title=" ">
<path fill="none" stroke="#63b8ff" d="M665.79,-54.95C621.69,-46.93 554.43,-34.23 486.74,-19.05"/>
<polygon fill="#63b8ff" stroke="#63b8ff" points="487.28,-15.59 476.75,-16.8 485.73,-22.42 487.28,-15.59"/>
</a>
</g>
</g>
<!-- Node16 -->
<g id="Node000016" class="node">
<title>Node16</title>
<g id="a_Node000016"><a xlink:title=" ">
<polygon fill="#e0e0e0" stroke="#999999" points="867,-19 817,-19 817,0 867,0 867,-19"/>
<text text-anchor="middle" x="842" y="-7" font-family="Helvetica,sans-Serif" font-size="10.00">atomic</text>
</a>
</g>
</g>
<!-- Node15&#45;&gt;Node16 -->
<g id="edge16_Node000015_Node000016" class="edge">
<title>Node15&#45;&gt;Node16</title>
<g id="a_edge16_Node000015_Node000016"><a xlink:title=" ">
<path fill="none" stroke="#63b8ff" d="M734.57,-54.98C755.43,-46.34 787.97,-32.87 811.77,-23.02"/>
<polygon fill="#63b8ff" stroke="#63b8ff" points="813.16,-26.23 821.06,-19.17 810.48,-19.76 813.16,-26.23"/>
</a>
</g>
</g>
<!-- Node17 -->
<g id="Node000017" class="node">
<title>Node17</title>
<g id="a_Node000017"><a xlink:title=" ">
<polygon fill="#e0e0e0" stroke="#999999" points="929,-19 885,-19 885,0 929,0 929,-19"/>
<text text-anchor="middle" x="907" y="-7" font-family="Helvetica,sans-Serif" font-size="10.00">string</text>
</a>
</g>
</g>
<!-- Node15&#45;&gt;Node17 -->
<g id="edge17_Node000015_Node000017" class="edge">
<title>Node15&#45;&gt;Node17</title>
<g id="a_edge17_Node000015_Node000017"><a xlink:title=" ">
<path fill="none" stroke="#63b8ff" d="M745.01,-54.98C780.6,-45.21 838.7,-29.26 874.79,-19.35"/>
<polygon fill="#63b8ff" stroke="#63b8ff" points="876.08,-22.62 884.79,-16.6 874.22,-15.87 876.08,-22.62"/>
</a>
</g>
</g>
<!-- Node18 -->
<g id="Node000018" class="node">
<title>Node18</title>
<g id="a_Node000018"><a xlink:title=" ">
<polygon fill="#e0e0e0" stroke="#999999" points="992.5,-19 947.5,-19 947.5,0 992.5,0 992.5,-19"/>
<text text-anchor="middle" x="970" y="-7" font-family="Helvetica,sans-Serif" font-size="10.00">utility</text>
</a>
</g>
</g>
<!-- Node15&#45;&gt;Node18 -->
<g id="edge18_Node000015_Node000018" class="edge">
<title>Node15&#45;&gt;Node18</title>
<g id="a_edge18_Node000015_Node000018"><a xlink:title=" ">
<path fill="none" stroke="#63b8ff" d="M761.38,-54.99C804.72,-47.01 870.81,-34.32 937.48,-19"/>
<polygon fill="#63b8ff" stroke="#63b8ff" points="938.37,-22.38 947.32,-16.72 936.79,-15.56 938.37,-22.38"/>
</a>
</g>
</g>
<!-- Node19 -->
<g id="Node000019" class="node">
<title>Node19</title>
<g id="a_Node000019"><a xlink:title=" ">
<polygon fill="#e0e0e0" stroke="#999999" points="573,-19 495,-19 495,0 573,0 573,-19"/>
<text text-anchor="middle" x="534" y="-7" font-family="Helvetica,sans-Serif" font-size="10.00">glm/glm.hpp</text>
</a>
</g>
</g>
<!-- Node15&#45;&gt;Node19 -->
<g id="edge19_Node000015_Node000019" class="edge">
<title>Node15&#45;&gt;Node19</title>
<g id="a_edge19_Node000015_Node000019"><a xlink:title=" ">
<path fill="none" stroke="#63b8ff" d="M685.08,-54.98C654.73,-46.05 606.83,-31.94 573.12,-22.02"/>
<polygon fill="#63b8ff" stroke="#63b8ff" points="573.73,-18.55 563.15,-19.08 571.75,-25.26 573.73,-18.55"/>
</a>
</g>
</g>
<!-- Node20 -->
<g id="Node000020" class="node">
<title>Node20</title>
<g id="a_Node000020"><a xlink:title=" ">
<polygon fill="#e0e0e0" stroke="#999999" points="629,-19 591,-19 591,0 629,0 629,-19"/>
<text text-anchor="middle" x="610" y="-7" font-family="Helvetica,sans-Serif" font-size="10.00">map</text>
</a>
</g>
</g>
<!-- Node15&#45;&gt;Node20 -->
<g id="edge21_Node000015_Node000020" class="edge">
<title>Node15&#45;&gt;Node20</title>
<g id="a_edge21_Node000015_Node000020"><a xlink:title=" ">
<path fill="none" stroke="#63b8ff" d="M697.29,-54.98C680.79,-46.57 655.3,-33.59 636.12,-23.81"/>
<polygon fill="#63b8ff" stroke="#63b8ff" points="637.51,-20.59 627.01,-19.17 634.33,-26.83 637.51,-20.59"/>
</a>
</g>
</g>
<!-- Node21 -->
<g id="Node000021" class="node">
<title>Node21</title>
<g id="a_Node000021"><a xlink:title=" ">
<polygon fill="#e0e0e0" stroke="#999999" points="695,-19 647,-19 647,0 695,0 695,-19"/>
<text text-anchor="middle" x="671" y="-7" font-family="Helvetica,sans-Serif" font-size="10.00">mutex</text>
</a>
</g>
</g>
<!-- Node15&#45;&gt;Node21 -->
<g id="edge22_Node000015_Node000021" class="edge">
<title>Node15&#45;&gt;Node21</title>
<g id="a_edge22_Node000015_Node000021"><a xlink:title=" ">
<path fill="none" stroke="#63b8ff" d="M706.9,-54.75C700.83,-47.26 691.91,-36.28 684.49,-27.13"/>
<polygon fill="#63b8ff" stroke="#63b8ff" points="686.99,-24.65 677.97,-19.09 681.55,-29.06 686.99,-24.65"/>
</a>
</g>
</g>
<!-- Node22 -->
<g id="Node000022" class="node">
<title>Node22</title>
<g id="a_Node000022"><a xlink:title=" ">
<polygon fill="#e0e0e0" stroke="#999999" points="799,-19 713,-19 713,0 799,0 799,-19"/>
<text text-anchor="middle" x="756" y="-7" font-family="Helvetica,sans-Serif" font-size="10.00">unordered_set</text>
</a>
</g>
</g>
<!-- Node15&#45;&gt;Node22 -->
<g id="edge23_Node000015_Node000022" class="edge">
<title>Node15&#45;&gt;Node22</title>
<g id="a_edge23_Node000015_Node000022"><a xlink:title=" ">
<path fill="none" stroke="#63b8ff" d="M720.94,-54.75C726.87,-47.26 735.57,-36.28 742.82,-27.13"/>
<polygon fill="#63b8ff" stroke="#63b8ff" points="745.73,-29.1 749.19,-19.09 740.24,-24.75 745.73,-29.1"/>
</a>
</g>
</g>
<!-- Node23&#45;&gt;Node5 -->
<g id="edge27_Node000023_Node000005" class="edge">
<title>Node23&#45;&gt;Node5</title>
<g id="a_edge27_Node000023_Node000005"><a xlink:title=" ">
<path fill="none" stroke="#63b8ff" d="M379.21,-164.75C375.24,-157.49 369.47,-146.95 364.57,-137.98"/>
<polygon fill="#63b8ff" stroke="#63b8ff" points="367.57,-136.18 359.7,-129.09 361.43,-139.54 367.57,-136.18"/>
</a>
</g>
</g>
<!-- Node23&#45;&gt;Node7 -->
<g id="edge26_Node000023_Node000007" class="edge">
<title>Node23&#45;&gt;Node7</title>
<g id="a_edge26_Node000023_Node000007"><a xlink:title=" ">
<path fill="none" stroke="#63b8ff" d="M402.32,-164.98C420.66,-156.46 449.11,-143.23 470.23,-133.41"/>
<polygon fill="#63b8ff" stroke="#63b8ff" points="471.76,-136.56 479.35,-129.17 468.81,-130.21 471.76,-136.56"/>
</a>
</g>
</g>
<!-- Node23&#45;&gt;Node10 -->
<g id="edge28_Node000023_Node000010" class="edge">
<title>Node23&#45;&gt;Node10</title>
<g id="a_edge28_Node000023_Node000010"><a xlink:title=" ">
<path fill="none" stroke="#63b8ff" d="M365.73,-164.98C352.02,-157.54 334.11,-145.37 325,-129 308.98,-100.19 300.74,-81.75 320,-55 342.49,-23.75 387.94,-14.13 419.41,-11.34"/>
<polygon fill="#63b8ff" stroke="#63b8ff" points="419.76,-14.82 429.49,-10.63 419.27,-7.84 419.76,-14.82"/>
</a>
</g>
</g>
<!-- Node23&#45;&gt;Node11 -->
<g id="edge29_Node000023_Node000011" class="edge">
<title>Node23&#45;&gt;Node11</title>
<g id="a_edge29_Node000023_Node000011"><a xlink:title=" ">
<path fill="none" stroke="#63b8ff" d="M390.27,-164.75C395.59,-157.34 403.36,-146.5 409.88,-137.41"/>
<polygon fill="#63b8ff" stroke="#63b8ff" points="412.86,-139.26 415.84,-129.09 407.17,-135.18 412.86,-139.26"/>
</a>
</g>
</g>
</g>
</svg>
