<?xml version="1.0" encoding="UTF-8" standalone="no"?>
<!DOCTYPE svg PUBLIC "-//W3C//DTD SVG 1.1//EN"
 "http://www.w3.org/Graphics/SVG/1.1/DTD/svg11.dtd">
<!-- Generated by graphviz version 2.43.0 (0)
 -->
<!-- Title: src/ui/graph/FrameGraphCanvas.cpp Pages: 1 -->
<!--zoomable 247 -->

<svg id="main" version="1.1" xmlns="http://www.w3.org/2000/svg" xmlns:xlink="http://www.w3.org/1999/xlink" xml:space="preserve" onload="init(evt)">
<style type="text/css"><![CDATA[
.node, .edge {opacity: 0.7;}
.node.selected, .edge.selected {opacity: 1;}
.edge:hover path { stroke: red; }
.edge:hover polygon { stroke: red; fill: red; }
]]></style>

<defs>
  <circle id="rim" cx="0" cy="0" r="7"/>
  <circle id="rim2" cx="0" cy="0" r="3.5"/>
  <g id="zoomPlus">
    <use xlink:href="#rim" fill="#404040"><set attributeName="fill" to="#808080" begin="zoomplus.mouseover" end="zoomplus.mouseout"/></use>
    <path d="M-4,0h8M0,-4v8" fill="none" stroke="white" stroke-width="1.5" pointer-events="none"/>
  </g>
  <g id="zoomMin">
    <use xlink:href="#rim" fill="#404040"><set attributeName="fill" to="#808080" begin="zoomminus.mouseover" end="zoomminus.mouseout"/></use>
    <path d="M-4,0h8" fill="none" stroke="white" stroke-width="1.5" pointer-events="none"/>
  </g>
  <g id="arrowUp" transform="translate(30 24)">
    <use xlink:href="#rim"/>
    <path pointer-events="none" fill="none" stroke="white" stroke-width="1.5" d="M0,-3.0v7 M-2.5,-0.5L0,-3.0L2.5,-0.5"/>
  </g>
  <g id="arrowRight" transform="rotate(90) translate(36 -43)">
    <use xlink:href="#rim"/>
    <path pointer-events="none" fill="none" stroke="white" stroke-width="1.5" d="M0,-3.0v7 M-2.5,-0.5L0,-3.0L2.5,-0.5"/>
  </g>
  <g id="arrowDown" transform="rotate(180) translate(-30 -48)">
    <use xlink:href="#rim"/>
    <path pointer-events="none" fill="none" stroke="white" stroke-width="1.5" d="M0,-3.0v7 M-2.5,-0.5L0,-3.0L2.5,-0.5"/>
  </g>
  <g id="arrowLeft" transform="rotate(270) translate(-36 17)">
    <use xlink:href="#rim"/>
    <path pointer-events="none" fill="none" stroke="white" stroke-width="1.5" d="M0,-3.0v7 M-2.5,-0.5L0,-3.0L2.5,-0.5"/>
  </g>
  <g id="resetDef">
    <use xlink:href="#rim2" fill="#404040"><set attributeName="fill" to="#808080" begin="reset.mouseover" end="reset.mouseout"/></use>
  </g>
</defs>
<script type="application/ecmascript">
var viewWidth = 1049;
var viewHeight = 247;
var sectionId = 'dynsection-0';
</script>
<script type="application/ecmascript" xlink:href="svg.min.js"/>
<svg id="graph" class="graph">
<g id="viewport">
<title>src/ui/graph/FrameGraphCanvas.cpp</title>
<!-- Node1 -->
<g id="Node000001" class="node">
<title>Node1</title>
<g id="a_Node000001"><a xlink:title=" ">
<polygon fill="#999999" stroke="#666666" points="352.5,-239 159.5,-239 159.5,-220 352.5,-220 352.5,-239"/>
<text text-anchor="middle" x="256" y="-227" font-family="Helvetica,sans-Serif" font-size="10.00">src/ui/graph/FrameGraphCanvas.cpp</text>
</a>
</g>
</g>
<!-- Node2 -->
<g id="Node000002" class="node">
<title>Node2</title>
<g id="a_Node000002"><a xlink:title=" ">
<polygon fill="#e0e0e0" stroke="#999999" points="64,-184 0,-184 0,-165 64,-165 64,-184"/>
<text text-anchor="middle" x="32" y="-172" font-family="Helvetica,sans-Serif" font-size="10.00">algorithm</text>
</a>
</g>
</g>
<!-- Node1&#45;&gt;Node2 -->
<g id="edge1_Node000001_Node000002" class="edge">
<title>Node1&#45;&gt;Node2</title>
<g id="a_edge1_Node000001_Node000002"><a xlink:title=" ">
<path fill="none" stroke="#63b8ff" d="M220.01,-219.98C180.25,-210.58 116.29,-195.44 74.2,-185.49"/>
<polygon fill="#63b8ff" stroke="#63b8ff" points="74.8,-182.03 64.27,-183.13 73.19,-188.84 74.8,-182.03"/>
</a>
</g>
</g>
<!-- Node3 -->
<g id="Node000003" class="node">
<title>Node3</title>
<g id="a_Node000003"><a xlink:title=" ">
<polygon fill="#e0e0e0" stroke="#999999" points="166,-184 82,-184 82,-165 166,-165 166,-184"/>
<text text-anchor="middle" x="124" y="-172" font-family="Helvetica,sans-Serif" font-size="10.00">QMouseEvent</text>
</a>
</g>
</g>
<!-- Node1&#45;&gt;Node3 -->
<g id="edge2_Node000001_Node000003" class="edge">
<title>Node1&#45;&gt;Node3</title>
<g id="a_edge2_Node000001_Node000003"><a xlink:title=" ">
<path fill="none" stroke="#63b8ff" d="M234.79,-219.98C213.27,-211.34 179.72,-197.87 155.17,-188.02"/>
<polygon fill="#63b8ff" stroke="#63b8ff" points="156.18,-184.65 145.59,-184.17 153.57,-191.14 156.18,-184.65"/>
</a>
</g>
</g>
<!-- Node4 -->
<g id="Node000004" class="node">
<title>Node4</title>
<g id="a_Node000004"><a xlink:title=" ">
<polygon fill="#e0e0e0" stroke="#999999" points="242,-184 184,-184 184,-165 242,-165 242,-184"/>
<text text-anchor="middle" x="213" y="-172" font-family="Helvetica,sans-Serif" font-size="10.00">QPainter</text>
</a>
</g>
</g>
<!-- Node1&#45;&gt;Node4 -->
<g id="edge3_Node000001_Node000004" class="edge">
<title>Node1&#45;&gt;Node4</title>
<g id="a_edge3_Node000001_Node000004"><a xlink:title=" ">
<path fill="none" stroke="#63b8ff" d="M248.9,-219.75C242.83,-212.26 233.91,-201.28 226.49,-192.13"/>
<polygon fill="#63b8ff" stroke="#63b8ff" points="228.99,-189.65 219.97,-184.09 223.55,-194.06 228.99,-189.65"/>
</a>
</g>
</g>
<!-- Node5 -->
<g id="Node000005" class="node">
<title>Node5</title>
<g id="a_Node000005"><a xlink:title=" ">
<polygon fill="#e0e0e0" stroke="#999999" points="339.5,-184 260.5,-184 260.5,-165 339.5,-165 339.5,-184"/>
<text text-anchor="middle" x="300" y="-172" font-family="Helvetica,sans-Serif" font-size="10.00">QPainterPath</text>
</a>
</g>
</g>
<!-- Node1&#45;&gt;Node5 -->
<g id="edge4_Node000001_Node000005" class="edge">
<title>Node1&#45;&gt;Node5</title>
<g id="a_edge4_Node000001_Node000005"><a xlink:title=" ">
<path fill="none" stroke="#63b8ff" d="M263.27,-219.75C269.54,-212.18 278.79,-201.05 286.43,-191.84"/>
<polygon fill="#63b8ff" stroke="#63b8ff" points="289.17,-194.02 292.87,-184.09 283.79,-189.55 289.17,-194.02"/>
</a>
</g>
</g>
<!-- Node6 -->
<g id="Node000006" class="node">
<title>Node6</title>
<g id="a_Node000006"><a xlink:title=" ">
<polygon fill="#e0e0e0" stroke="#999999" points="416.5,-184 357.5,-184 357.5,-165 416.5,-165 416.5,-184"/>
<text text-anchor="middle" x="387" y="-172" font-family="Helvetica,sans-Serif" font-size="10.00">QToolTip</text>
</a>
</g>
</g>
<!-- Node1&#45;&gt;Node6 -->
<g id="edge5_Node000001_Node000006" class="edge">
<title>Node1&#45;&gt;Node6</title>
<g id="a_edge5_Node000001_Node000006"><a xlink:title=" ">
<path fill="none" stroke="#63b8ff" d="M277.05,-219.98C298.41,-211.34 331.7,-197.87 356.06,-188.02"/>
<polygon fill="#63b8ff" stroke="#63b8ff" points="357.61,-191.17 365.57,-184.17 354.99,-184.68 357.61,-191.17"/>
</a>
</g>
</g>
<!-- Node7 -->
<g id="Node000007" class="node">
<title>Node7</title>
<g id="a_Node000007"><a xlink:href="FrameGraphCanvas_8h.html" target="_top" xlink:title=" ">
<polygon fill="white" stroke="#666666" points="557,-184 435,-184 435,-165 557,-165 557,-184"/>
<text text-anchor="middle" x="496" y="-172" font-family="Helvetica,sans-Serif" font-size="10.00">FrameGraphCanvas.h</text>
</a>
</g>
</g>
<!-- Node1&#45;&gt;Node7 -->
<g id="edge6_Node000001_Node000007" class="edge">
<title>Node1&#45;&gt;Node7</title>
<g id="a_edge6_Node000001_Node000007"><a xlink:title=" ">
<path fill="none" stroke="#63b8ff" d="M294.56,-219.98C336.07,-210.82 402.21,-196.21 447.29,-186.26"/>
<polygon fill="#63b8ff" stroke="#63b8ff" points="448.13,-189.66 457.14,-184.08 446.62,-182.82 448.13,-189.66"/>
</a>
</g>
</g>
<!-- Node8 -->
<g id="Node000008" class="node">
<title>Node8</title>
<g id="a_Node000008"><a xlink:title=" ">
<polygon fill="#e0e0e0" stroke="#999999" points="379.5,-129 320.5,-129 320.5,-110 379.5,-110 379.5,-129"/>
<text text-anchor="middle" x="350" y="-117" font-family="Helvetica,sans-Serif" font-size="10.00">QWidget</text>
</a>
</g>
</g>
<!-- Node7&#45;&gt;Node8 -->
<g id="edge7_Node000007_Node000008" class="edge">
<title>Node7&#45;&gt;Node8</title>
<g id="a_edge7_Node000007_Node000008"><a xlink:title=" ">
<path fill="none" stroke="#63b8ff" d="M472.54,-164.98C448.42,-156.23 410.63,-142.51 383.4,-132.62"/>
<polygon fill="#63b8ff" stroke="#63b8ff" points="384.48,-129.29 373.88,-129.17 382.09,-135.87 384.48,-129.29"/>
</a>
</g>
</g>
<!-- Node9 -->
<g id="Node000009" class="node">
<title>Node9</title>
<g id="a_Node000009"><a xlink:title=" ">
<polygon fill="#e0e0e0" stroke="#999999" points="440,-129 398,-129 398,-110 440,-110 440,-129"/>
<text text-anchor="middle" x="419" y="-117" font-family="Helvetica,sans-Serif" font-size="10.00">array</text>
</a>
</g>
</g>
<!-- Node7&#45;&gt;Node9 -->
<g id="edge8_Node000007_Node000009" class="edge">
<title>Node7&#45;&gt;Node9</title>
<g id="a_edge8_Node000007_Node000009"><a xlink:title=" ">
<path fill="none" stroke="#63b8ff" d="M483.63,-164.98C471.91,-156.92 454.08,-144.65 440.11,-135.03"/>
<polygon fill="#63b8ff" stroke="#63b8ff" points="441.82,-131.96 431.6,-129.17 437.85,-137.72 441.82,-131.96"/>
</a>
</g>
</g>
<!-- Node10 -->
<g id="Node000010" class="node">
<title>Node10</title>
<g id="a_Node000010"><a xlink:title=" ">
<polygon fill="#e0e0e0" stroke="#999999" points="508.5,-19 461.5,-19 461.5,0 508.5,0 508.5,-19"/>
<text text-anchor="middle" x="485" y="-7" font-family="Helvetica,sans-Serif" font-size="10.00">vector</text>
</a>
</g>
</g>
<!-- Node7&#45;&gt;Node10 -->
<g id="edge9_Node000007_Node000010" class="edge">
<title>Node7&#45;&gt;Node10</title>
<g id="a_edge9_Node000007_Node000010"><a xlink:title=" ">
<path fill="none" stroke="#63b8ff" d="M493.73,-164.71C491.54,-155.79 488.36,-141.54 487,-129 483.2,-94 483.58,-52.85 484.26,-29.41"/>
<polygon fill="#63b8ff" stroke="#63b8ff" points="487.77,-29.27 484.61,-19.16 480.77,-29.03 487.77,-29.27"/>
</a>
</g>
</g>
<!-- Node11 -->
<g id="Node000011" class="node">
<title>Node11</title>
<g id="a_Node000011"><a xlink:title=" ">
<polygon fill="#e0e0e0" stroke="#999999" points="551.5,-129 496.5,-129 496.5,-110 551.5,-110 551.5,-129"/>
<text text-anchor="middle" x="524" y="-117" font-family="Helvetica,sans-Serif" font-size="10.00">QPointF</text>
</a>
</g>
</g>
<!-- Node7&#45;&gt;Node11 -->
<g id="edge10_Node000007_Node000011" class="edge">
<title>Node7&#45;&gt;Node11</title>
<g id="a_edge10_Node000007_Node000011"><a xlink:title=" ">
<path fill="none" stroke="#63b8ff" d="M500.62,-164.75C504.46,-157.49 510.02,-146.95 514.76,-137.98"/>
<polygon fill="#63b8ff" stroke="#63b8ff" points="517.89,-139.57 519.46,-129.09 511.7,-136.3 517.89,-139.57"/>
</a>
</g>
</g>
<!-- Node12 -->
<g id="Node000012" class="node">
<title>Node12</title>
<g id="a_Node000012"><a xlink:href="Metric_8h.html" target="_top" xlink:title=" ">
<polygon fill="white" stroke="#666666" points="626,-129 570,-129 570,-110 626,-110 626,-129"/>
<text text-anchor="middle" x="598" y="-117" font-family="Helvetica,sans-Serif" font-size="10.00">Metric.h</text>
</a>
</g>
</g>
<!-- Node7&#45;&gt;Node12 -->
<g id="edge11_Node000007_Node000012" class="edge">
<title>Node7&#45;&gt;Node12</title>
<g id="a_edge11_Node000007_Node000012"><a xlink:title=" ">
<path fill="none" stroke="#63b8ff" d="M512.39,-164.98C528.57,-156.57 553.57,-143.59 572.38,-133.81"/>
<polygon fill="#63b8ff" stroke="#63b8ff" points="574.05,-136.89 581.31,-129.17 570.83,-130.68 574.05,-136.89"/>
</a>
</g>
</g>
<!-- Node16 -->
<g id="Node000016" class="node">
<title>Node16</title>
<g id="a_Node000016"><a xlink:href="PhysicsBody_8h.html" target="_top" xlink:title=" ">
<polygon fill="white" stroke="#666666" points="838.5,-74 713.5,-74 713.5,-55 838.5,-55 838.5,-74"/>
<text text-anchor="middle" x="776" y="-62" font-family="Helvetica,sans-Serif" font-size="10.00">physics/PhysicsBody.h</text>
</a>
</g>
</g>
<!-- Node7&#45;&gt;Node16 -->
<g id="edge24_Node000007_Node000016" class="edge">
<title>Node7&#45;&gt;Node16</title>
<g id="a_edge24_Node000007_Node000016"><a xlink:title=" ">
<path fill="none" stroke="#63b8ff" d="M525.89,-165C554.27,-156.68 597.98,-143.21 635,-129 675.58,-113.42 721.23,-92.15 749.31,-78.62"/>
<polygon fill="#63b8ff" stroke="#63b8ff" points="751,-81.69 758.47,-74.17 747.94,-75.39 751,-81.69"/>
</a>
</g>
</g>
<!-- Node13 -->
<g id="Node000013" class="node">
<title>Node13</title>
<g id="a_Node000013"><a xlink:title=" ">
<polygon fill="#e0e0e0" stroke="#999999" points="549.5,-74 496.5,-74 496.5,-55 549.5,-55 549.5,-74"/>
<text text-anchor="middle" x="523" y="-62" font-family="Helvetica,sans-Serif" font-size="10.00">cstddef</text>
</a>
</g>
</g>
<!-- Node12&#45;&gt;Node13 -->
<g id="edge12_Node000012_Node000013" class="edge">
<title>Node12&#45;&gt;Node13</title>
<g id="a_edge12_Node000012_Node000013"><a xlink:title=" ">
<path fill="none" stroke="#63b8ff" d="M585.95,-109.98C574.54,-101.92 557.17,-89.65 543.57,-80.03"/>
<polygon fill="#63b8ff" stroke="#63b8ff" points="545.46,-77.08 535.27,-74.17 541.42,-82.8 545.46,-77.08"/>
</a>
</g>
</g>
<!-- Node14 -->
<g id="Node000014" class="node">
<title>Node14</title>
<g id="a_Node000014"><a xlink:title=" ">
<polygon fill="#e0e0e0" stroke="#999999" points="620.5,-74 567.5,-74 567.5,-55 620.5,-55 620.5,-74"/>
<text text-anchor="middle" x="594" y="-62" font-family="Helvetica,sans-Serif" font-size="10.00">QString</text>
</a>
</g>
</g>
<!-- Node12&#45;&gt;Node14 -->
<g id="edge13_Node000012_Node000014" class="edge">
<title>Node12&#45;&gt;Node14</title>
<g id="a_edge13_Node000012_Node000014"><a xlink:title=" ">
<path fill="none" stroke="#63b8ff" d="M597.34,-109.75C596.82,-102.8 596.06,-92.85 595.41,-84.13"/>
<polygon fill="#63b8ff" stroke="#63b8ff" points="598.89,-83.8 594.65,-74.09 591.91,-84.32 598.89,-83.8"/>
</a>
</g>
</g>
<!-- Node15 -->
<g id="Node000015" class="node">
<title>Node15</title>
<g id="a_Node000015"><a xlink:title=" ">
<polygon fill="#e0e0e0" stroke="#999999" points="695,-74 639,-74 639,-55 695,-55 695,-74"/>
<text text-anchor="middle" x="667" y="-62" font-family="Helvetica,sans-Serif" font-size="10.00">QObject</text>
</a>
</g>
</g>
<!-- Node12&#45;&gt;Node15 -->
<g id="edge14_Node000012_Node000015" class="edge">
<title>Node12&#45;&gt;Node15</title>
<g id="a_edge14_Node000012_Node000015"><a xlink:title=" ">
<path fill="none" stroke="#63b8ff" d="M609.09,-109.98C619.49,-102 635.26,-89.88 647.72,-80.31"/>
<polygon fill="#63b8ff" stroke="#63b8ff" points="649.91,-83.04 655.71,-74.17 645.65,-77.49 649.91,-83.04"/>
</a>
</g>
</g>
<!-- Node12&#45;&gt;Node16 -->
<g id="edge15_Node000012_Node000016" class="edge">
<title>Node12&#45;&gt;Node16</title>
<g id="a_edge15_Node000012_Node000016"><a xlink:title=" ">
<path fill="none" stroke="#63b8ff" d="M626.2,-110.1C656.23,-101.16 703.95,-86.95 737.44,-76.98"/>
<polygon fill="#63b8ff" stroke="#63b8ff" points="738.75,-80.24 747.34,-74.03 736.75,-73.53 738.75,-80.24"/>
</a>
</g>
</g>
<!-- Node16&#45;&gt;Node10 -->
<g id="edge20_Node000016_Node000010" class="edge">
<title>Node16&#45;&gt;Node10</title>
<g id="a_edge20_Node000016_Node000010"><a xlink:title=" ">
<path fill="none" stroke="#63b8ff" d="M729.25,-54.98C670.33,-44.25 570.5,-26.07 518.6,-16.62"/>
<polygon fill="#63b8ff" stroke="#63b8ff" points="519.05,-13.14 508.58,-14.8 517.79,-20.03 519.05,-13.14"/>
</a>
</g>
</g>
<!-- Node17 -->
<g id="Node000017" class="node">
<title>Node17</title>
<g id="a_Node000017"><a xlink:title=" ">
<polygon fill="#e0e0e0" stroke="#999999" points="593,-19 543,-19 543,0 593,0 593,-19"/>
<text text-anchor="middle" x="568" y="-7" font-family="Helvetica,sans-Serif" font-size="10.00">atomic</text>
</a>
</g>
</g>
<!-- Node16&#45;&gt;Node17 -->
<g id="edge16_Node000016_Node000017" class="edge">
<title>Node16&#45;&gt;Node17</title>
<g id="a_edge16_Node000016_Node000017"><a xlink:title=" ">
<path fill="none" stroke="#63b8ff" d="M742.58,-54.98C704.31,-45.23 641.91,-29.33 602.99,-19.42"/>
<polygon fill="#63b8ff" stroke="#63b8ff" points="603.71,-15.99 593.16,-16.91 601.99,-22.77 603.71,-15.99"/>
</a>
</g>
</g>
<!-- Node18 -->
<g id="Node000018" class="node">
<title>Node18</title>
<g id="a_Node000018"><a xlink:title=" ">
<polygon fill="#e0e0e0" stroke="#999999" points="655,-19 611,-19 611,0 655,0 655,-19"/>
<text text-anchor="middle" x="633" y="-7" font-family="Helvetica,sans-Serif" font-size="10.00">string</text>
</a>
</g>
</g>
<!-- Node16&#45;&gt;Node18 -->
<g id="edge17_Node000016_Node000018" class="edge">
<title>Node16&#45;&gt;Node18</title>
<g id="a_edge17_Node000016_Node000018"><a xlink:title=" ">
<path fill="none" stroke="#63b8ff" d="M753.02,-54.98C729.22,-46.16 691.84,-32.31 665.11,-22.4"/>
<polygon fill="#63b8ff" stroke="#63b8ff" points="666.04,-19.01 655.45,-18.82 663.61,-25.58 666.04,-19.01"/>
</a>
</g>
</g>
<!-- Node19 -->
<g id="Node000019" class="node">
<title>Node19</title>
<g id="a_Node000019"><a xlink:title=" ">
<polygon fill="#e0e0e0" stroke="#999999" points="718.5,-19 673.5,-19 673.5,0 718.5,0 718.5,-19"/>
<text text-anchor="middle" x="696" y="-7" font-family="Helvetica,sans-Serif" font-size="10.00">utility</text>
</a>
</g>
</g>
<!-- Node16&#45;&gt;Node19 -->
<g id="edge18_Node000016_Node000019" class="edge">
<title>Node16&#45;&gt;Node19</title>
<g id="a_edge18_Node000016_Node000019"><a xlink:title=" ">
<path fill="none" stroke="#63b8ff" d="M763.15,-54.98C750.86,-46.84 732.09,-34.41 717.52,-24.76"/>
<polygon fill="#63b8ff" stroke="#63b8ff" points="719.36,-21.78 709.09,-19.17 715.49,-27.61 719.36,-21.78"/>
</a>
</g>
</g>
<!-- Node20 -->
<g id="Node000020" class="node">
<title>Node20</title>
<g id="a_Node000020"><a xlink:title=" ">
<polygon fill="#e0e0e0" stroke="#999999" points="815,-19 737,-19 737,0 815,0 815,-19"/>
<text text-anchor="middle" x="776" y="-7" font-family="Helvetica,sans-Serif" font-size="10.00">glm/glm.hpp</text>
</a>
</g>
</g>
<!-- Node16&#45;&gt;Node20 -->
<g id="edge19_Node000016_Node000020" class="edge">
<title>Node16&#45;&gt;Node20</title>
<g id="a_edge19_Node000016_Node000020"><a xlink:title=" ">
<path fill="none" stroke="#63b8ff" d="M776,-54.75C776,-47.8 776,-37.85 776,-29.13"/>
<polygon fill="#63b8ff" stroke="#63b8ff" points="779.5,-29.09 776,-19.09 772.5,-29.09 779.5,-29.09"/>
</a>
</g>
</g>
<!-- Node21 -->
<g id="Node000021" class="node">
<title>Node21</title>
<g id="a_Node000021"><a xlink:title=" ">
<polygon fill="#e0e0e0" stroke="#999999" points="871,-19 833,-19 833,0 871,0 871,-19"/>
<text text-anchor="middle" x="852" y="-7" font-family="Helvetica,sans-Serif" font-size="10.00">map</text>
</a>
</g>
</g>
<!-- Node16&#45;&gt;Node21 -->
<g id="edge21_Node000016_Node000021" class="edge">
<title>Node16&#45;&gt;Node21</title>
<g id="a_edge21_Node000016_Node000021"><a xlink:title=" ">
<path fill="none" stroke="#63b8ff" d="M788.21,-54.98C799.78,-46.92 817.38,-34.65 831.16,-25.03"/>
<polygon fill="#63b8ff" stroke="#63b8ff" points="833.37,-27.76 839.57,-19.17 829.36,-22.02 833.37,-27.76"/>
</a>
</g>
</g>
<!-- Node22 -->
<g id="Node000022" class="node">
<title>Node22</title>
<g id="a_Node000022"><a xlink:title=" ">
<polygon fill="#e0e0e0" stroke="#999999" points="937,-19 889,-19 889,0 937,0 937,-19"/>
<text text-anchor="middle" x="913" y="-7" font-family="Helvetica,sans-Serif" font-size="10.00">mutex</text>
</a>
</g>
</g>
<!-- Node16&#45;&gt;Node22 -->
<g id="edge22_Node000016_Node000022" class="edge">
<title>Node16&#45;&gt;Node22</title>
<g id="a_edge22_Node000016_Node000022"><a xlink:title=" ">
<path fill="none" stroke="#63b8ff" d="M798.01,-54.98C820.45,-46.3 855.48,-32.75 880.99,-22.88"/>
<polygon fill="#63b8ff" stroke="#63b8ff" points="882.52,-26.04 890.59,-19.17 880,-19.51 882.52,-26.04"/>
</a>
</g>
</g>
<!-- Node23 -->
<g id="Node000023" class="node">
<title>Node23</title>
<g id="a_Node000023"><a xlink:title=" ">
<polygon fill="#e0e0e0" stroke="#999999" points="1041,-19 955,-19 955,0 1041,0 1041,-19"/>
<text text-anchor="middle" x="998" y="-7" font-family="Helvetica,sans-Serif" font-size="10.00">unordered_set</text>
</a>
</g>
</g>
<!-- Node16&#45;&gt;Node23 -->
<g id="edge23_Node000016_Node000023" class="edge">
<title>Node16&#45;&gt;Node23</title>
<g id="a_edge23_Node000016_Node000023"><a xlink:title=" ">
<path fill="none" stroke="#63b8ff" d="M811.67,-54.98C849.83,-45.87 910.47,-31.4 952.15,-21.45"/>
<polygon fill="#63b8ff" stroke="#63b8ff" points="953.14,-24.81 962.05,-19.08 951.51,-18 953.14,-24.81"/>
</a>
</g>
</g>
</g>
</svg>

<g id="navigator" transform="translate(0 0)" fill="#404254">
  <rect fill="#f2f5e9" fill-opacity="0.5" stroke="#606060" stroke-width=".5" x="0" y="0" width="60" height="60"/>
  <use id="zoomplus" xlink:href="#zoomPlus" x="17" y="9" onmousedown="handleZoom(evt,'in')"/>
  <use id="zoomminus" xlink:href="#zoomMin" x="42" y="9" onmousedown="handleZoom(evt,'out')"/>
  <use id="reset" xlink:href="#resetDef" x="30" y="36" onmousedown="handleReset()"/>
   <use id="arrowup" xlink:href="#arrowUp" x="0" y="0" onmousedown="handlePan(0,-1)"/>
  <use id="arrowright" xlink:href="#arrowRight" x="0" y="0" onmousedown="handlePan(1,0)"/>
  <use id="arrowdown" xlink:href="#arrowDown" x="0" y="0" onmousedown="handlePan(0,1)"/>
  <use id="arrowleft" xlink:href="#arrowLeft" x="0" y="0" onmousedown="handlePan(-1,0)"/>
</g>
<svg viewBox="0 0 15 15" width="100%" height="30px" preserveAspectRatio="xMaxYMin meet">
 <g id="arrow_out" transform="scale(0.3 0.3)">
  <a xlink:href="FrameGraphCanvas_8cpp__incl_org.svg" target="_base">
   <rect id="button" ry="5" rx="5" y="6" x="6" height="38" width="38"
        fill="#f2f5e9" fill-opacity="0.5" stroke="#606060" stroke-width="1.0"/>
   <path id="arrow"
     d="M 11.500037,31.436501 C 11.940474,20.09759 22.043105,11.32322 32.158766,21.979434 L 37.068811,17.246167 C 37.068811,17.246167 37.088388,32 37.088388,32 L 22.160133,31.978069 C 22.160133,31.978069 26.997745,27.140456 26.997745,27.140456 C 18.528582,18.264221 13.291696,25.230495 11.500037,31.436501 z"
     style="fill:#404040;"/>
  </a>
 </g>
</svg>

<style type='text/css'>
<![CDATA[
[data-mouse-over-selected='false'] { opacity: 0.7; }
[data-mouse-over-selected='true']  { opacity: 1.0; }
]]>
</style>
<script type="application/ecmascript"><![CDATA[
document.addEventListener('DOMContentLoaded', (event) => {
  highlightEdges();
  highlightAdjacentNodes();
});
]]></script>
</svg>
