<?xml version="1.0" encoding="UTF-8" standalone="no"?>
<!DOCTYPE svg PUBLIC "-//W3C//DTD SVG 1.1//EN"
 "http://www.w3.org/Graphics/SVG/1.1/DTD/svg11.dtd">
<!-- Generated by graphviz version 2.43.0 (0)
 -->
<!-- Title: src/graphics/components/Gizmo.h Pages: 1 -->
<svg width="764pt" height="445pt"
 viewBox="0.00 0.00 763.50 445.00" xmlns="http://www.w3.org/2000/svg" xmlns:xlink="http://www.w3.org/1999/xlink">
<g id="graph0" class="graph" transform="scale(1 1) rotate(0) translate(4 441)">
<title>src/graphics/components/Gizmo.h</title>
<!-- Node1 -->
<g id="Node000001" class="node">
<title>Node1</title>
<g id="a_Node000001"><a xlink:title=" ">
<polygon fill="#999999" stroke="#666666" points="636.5,-437 498.5,-437 498.5,-407 636.5,-407 636.5,-437"/>
<text text-anchor="start" x="506.5" y="-425" font-family="Helvetica,sans-Serif" font-size="10.00">src/graphics/components</text>
<text text-anchor="middle" x="567.5" y="-414" font-family="Helvetica,sans-Serif" font-size="10.00">/Gizmo.h</text>
</a>
</g>
</g>
<!-- Node2 -->
<g id="Node000002" class="node">
<title>Node2</title>
<g id="a_Node000002"><a xlink:href="Shader_8h.html" target="_top" xlink:title=" ">
<polygon fill="white" stroke="#666666" points="334,-261 213,-261 213,-231 334,-231 334,-261"/>
<text text-anchor="start" x="221" y="-249" font-family="Helvetica,sans-Serif" font-size="10.00">graphics/components</text>
<text text-anchor="middle" x="273.5" y="-238" font-family="Helvetica,sans-Serif" font-size="10.00">/Shader.h</text>
</a>
</g>
</g>
<!-- Node1&#45;&gt;Node2 -->
<g id="edge1_Node000001_Node000002" class="edge">
<title>Node1&#45;&gt;Node2</title>
<g id="a_edge1_Node000001_Node000002"><a xlink:title=" ">
<path fill="none" stroke="#63b8ff" d="M498.47,-409.81C438.92,-396.82 354.25,-369.85 300.5,-316 288.43,-303.91 281.62,-285.8 277.86,-271.17"/>
<polygon fill="#63b8ff" stroke="#63b8ff" points="281.24,-270.25 275.63,-261.26 274.41,-271.79 281.24,-270.25"/>
</a>
</g>
</g>
<!-- Node6 -->
<g id="Node000006" class="node">
<title>Node6</title>
<g id="a_Node000006"><a xlink:href="Camera_8h.html" target="_top" xlink:title=" ">
<polygon fill="white" stroke="#666666" points="679.5,-129 547.5,-129 547.5,-110 679.5,-110 679.5,-129"/>
<text text-anchor="middle" x="613.5" y="-117" font-family="Helvetica,sans-Serif" font-size="10.00">graphics/core/Camera.h</text>
</a>
</g>
</g>
<!-- Node1&#45;&gt;Node6 -->
<g id="edge5_Node000001_Node000006" class="edge">
<title>Node1&#45;&gt;Node6</title>
<g id="a_edge5_Node000001_Node000006"><a xlink:title=" ">
<path fill="none" stroke="#63b8ff" d="M579.93,-406.7C596.43,-386.21 623.5,-346.61 623.5,-307.5 623.5,-307.5 623.5,-307.5 623.5,-245 623.5,-207.37 618.91,-163.56 615.95,-139.23"/>
<polygon fill="#63b8ff" stroke="#63b8ff" points="619.41,-138.72 614.69,-129.24 612.46,-139.59 619.41,-138.72"/>
</a>
</g>
</g>
<!-- Node7 -->
<g id="Node000007" class="node">
<title>Node7</title>
<g id="a_Node000007"><a xlink:href="IHandle_8h.html" target="_top" xlink:title=" ">
<polygon fill="white" stroke="#666666" points="543,-371 480,-371 480,-352 543,-352 543,-371"/>
<text text-anchor="middle" x="511.5" y="-359" font-family="Helvetica,sans-Serif" font-size="10.00">IHandle.h</text>
</a>
</g>
</g>
<!-- Node1&#45;&gt;Node7 -->
<g id="edge7_Node000001_Node000007" class="edge">
<title>Node1&#45;&gt;Node7</title>
<g id="a_edge7_Node000001_Node000007"><a xlink:title=" ">
<path fill="none" stroke="#63b8ff" d="M553.94,-406.84C545.82,-398.35 535.45,-387.52 527,-378.69"/>
<polygon fill="#63b8ff" stroke="#63b8ff" points="529.33,-376.07 519.89,-371.27 524.28,-380.91 529.33,-376.07"/>
</a>
</g>
</g>
<!-- Node18 -->
<g id="Node000018" class="node">
<title>Node18</title>
<g id="a_Node000018"><a xlink:href="IPickable_8h.html" target="_top" xlink:title=" ">
<polygon fill="white" stroke="#666666" points="755.5,-371 653.5,-371 653.5,-352 755.5,-352 755.5,-371"/>
<text text-anchor="middle" x="704.5" y="-359" font-family="Helvetica,sans-Serif" font-size="10.00">../core/IPickable.h</text>
</a>
</g>
</g>
<!-- Node1&#45;&gt;Node18 -->
<g id="edge23_Node000001_Node000018" class="edge">
<title>Node1&#45;&gt;Node18</title>
<g id="a_edge23_Node000001_Node000018"><a xlink:title=" ">
<path fill="none" stroke="#63b8ff" d="M600.31,-406.99C622.97,-397.31 652.85,-384.56 674.8,-375.18"/>
<polygon fill="#63b8ff" stroke="#63b8ff" points="676.45,-378.29 684.27,-371.14 673.7,-371.85 676.45,-378.29"/>
</a>
</g>
</g>
<!-- Node3 -->
<g id="Node000003" class="node">
<title>Node3</title>
<g id="a_Node000003"><a xlink:title=" ">
<polygon fill="#e0e0e0" stroke="#999999" points="157.5,-189.5 113.5,-189.5 113.5,-170.5 157.5,-170.5 157.5,-189.5"/>
<text text-anchor="middle" x="135.5" y="-177.5" font-family="Helvetica,sans-Serif" font-size="10.00">string</text>
</a>
</g>
</g>
<!-- Node2&#45;&gt;Node3 -->
<g id="edge2_Node000002_Node000003" class="edge">
<title>Node2&#45;&gt;Node3</title>
<g id="a_edge2_Node000002_Node000003"><a xlink:title=" ">
<path fill="none" stroke="#63b8ff" d="M243.22,-230.95C219.33,-219.88 186.3,-204.56 163.14,-193.82"/>
<polygon fill="#63b8ff" stroke="#63b8ff" points="164.41,-190.55 153.87,-189.52 161.46,-196.9 164.41,-190.55"/>
</a>
</g>
</g>
<!-- Node4 -->
<g id="Node000004" class="node">
<title>Node4</title>
<g id="a_Node000004"><a xlink:title=" ">
<polygon fill="#e0e0e0" stroke="#999999" points="509.5,-74 431.5,-74 431.5,-55 509.5,-55 509.5,-74"/>
<text text-anchor="middle" x="470.5" y="-62" font-family="Helvetica,sans-Serif" font-size="10.00">glm/glm.hpp</text>
</a>
</g>
</g>
<!-- Node2&#45;&gt;Node4 -->
<g id="edge3_Node000002_Node000004" class="edge">
<title>Node2&#45;&gt;Node4</title>
<g id="a_edge3_Node000002_Node000004"><a xlink:title=" ">
<path fill="none" stroke="#63b8ff" d="M242.24,-230.84C227.97,-222.59 212.5,-210.68 204.5,-195 198.44,-183.12 196.9,-175.96 204.5,-165 253.48,-94.39 359.07,-73.8 421.48,-67.86"/>
<polygon fill="#63b8ff" stroke="#63b8ff" points="421.82,-71.34 431.48,-66.99 421.22,-64.37 421.82,-71.34"/>
</a>
</g>
</g>
<!-- Node5 -->
<g id="Node000005" class="node">
<title>Node5</title>
<g id="a_Node000005"><a xlink:title=" ">
<polygon fill="#e0e0e0" stroke="#999999" points="333.5,-195 213.5,-195 213.5,-165 333.5,-165 333.5,-195"/>
<text text-anchor="start" x="221.5" y="-183" font-family="Helvetica,sans-Serif" font-size="10.00">QOpenGLFunctions_4</text>
<text text-anchor="middle" x="273.5" y="-172" font-family="Helvetica,sans-Serif" font-size="10.00">_5_Core</text>
</a>
</g>
</g>
<!-- Node2&#45;&gt;Node5 -->
<g id="edge4_Node000002_Node000005" class="edge">
<title>Node2&#45;&gt;Node5</title>
<g id="a_edge4_Node000002_Node000005"><a xlink:title=" ">
<path fill="none" stroke="#63b8ff" d="M273.5,-230.8C273.5,-223.34 273.5,-213.99 273.5,-205.41"/>
<polygon fill="#63b8ff" stroke="#63b8ff" points="277,-205.16 273.5,-195.16 270,-205.16 277,-205.16"/>
</a>
</g>
</g>
<!-- Node6&#45;&gt;Node4 -->
<g id="edge6_Node000006_Node000004" class="edge">
<title>Node6&#45;&gt;Node4</title>
<g id="a_edge6_Node000006_Node000004"><a xlink:title=" ">
<path fill="none" stroke="#63b8ff" d="M590.52,-109.98C567,-101.27 530.21,-87.63 503.56,-77.75"/>
<polygon fill="#63b8ff" stroke="#63b8ff" points="504.49,-74.36 493.89,-74.17 502.05,-80.93 504.49,-74.36"/>
</a>
</g>
</g>
<!-- Node8 -->
<g id="Node000008" class="node">
<title>Node8</title>
<g id="a_Node000008"><a xlink:href="IDrawable_8h.html" target="_top" xlink:title=" ">
<polygon fill="white" stroke="#666666" points="565.5,-316 457.5,-316 457.5,-297 565.5,-297 565.5,-316"/>
<text text-anchor="middle" x="511.5" y="-304" font-family="Helvetica,sans-Serif" font-size="10.00">../core/IDrawable.h</text>
</a>
</g>
</g>
<!-- Node7&#45;&gt;Node8 -->
<g id="edge8_Node000007_Node000008" class="edge">
<title>Node7&#45;&gt;Node8</title>
<g id="a_edge8_Node000007_Node000008"><a xlink:title=" ">
<path fill="none" stroke="#63b8ff" d="M511.5,-351.75C511.5,-344.8 511.5,-334.85 511.5,-326.13"/>
<polygon fill="#63b8ff" stroke="#63b8ff" points="515,-326.09 511.5,-316.09 508,-326.09 515,-326.09"/>
</a>
</g>
</g>
<!-- Node17 -->
<g id="Node000017" class="node">
<title>Node17</title>
<g id="a_Node000017"><a xlink:title=" ">
<polygon fill="#e0e0e0" stroke="#999999" points="439.5,-316 309.5,-316 309.5,-297 439.5,-297 439.5,-316"/>
<text text-anchor="middle" x="374.5" y="-304" font-family="Helvetica,sans-Serif" font-size="10.00">glm/gtc/quaternion.hpp</text>
</a>
</g>
</g>
<!-- Node7&#45;&gt;Node17 -->
<g id="edge22_Node000007_Node000017" class="edge">
<title>Node7&#45;&gt;Node17</title>
<g id="a_edge22_Node000007_Node000017"><a xlink:title=" ">
<path fill="none" stroke="#63b8ff" d="M489.49,-351.98C467.05,-343.3 432.02,-329.75 406.51,-319.88"/>
<polygon fill="#63b8ff" stroke="#63b8ff" points="407.5,-316.51 396.91,-316.17 404.98,-323.04 407.5,-316.51"/>
</a>
</g>
</g>
<!-- Node8&#45;&gt;Node2 -->
<g id="edge9_Node000008_Node000002" class="edge">
<title>Node8&#45;&gt;Node2</title>
<g id="a_edge9_Node000008_Node000002"><a xlink:title=" ">
<path fill="none" stroke="#63b8ff" d="M476.89,-296.99C441.29,-288.24 384.94,-274.39 340.57,-263.48"/>
<polygon fill="#63b8ff" stroke="#63b8ff" points="341.27,-260.05 330.72,-261.06 339.59,-266.85 341.27,-260.05"/>
</a>
</g>
</g>
<!-- Node9 -->
<g id="Node000009" class="node">
<title>Node9</title>
<g id="a_Node000009"><a xlink:href="Mesh_8h.html" target="_top" xlink:title=" ">
<polygon fill="white" stroke="#666666" points="572,-261 451,-261 451,-231 572,-231 572,-261"/>
<text text-anchor="start" x="459" y="-249" font-family="Helvetica,sans-Serif" font-size="10.00">graphics/components</text>
<text text-anchor="middle" x="511.5" y="-238" font-family="Helvetica,sans-Serif" font-size="10.00">/Mesh.h</text>
</a>
</g>
</g>
<!-- Node8&#45;&gt;Node9 -->
<g id="edge10_Node000008_Node000009" class="edge">
<title>Node8&#45;&gt;Node9</title>
<g id="a_edge10_Node000008_Node000009"><a xlink:title=" ">
<path fill="none" stroke="#63b8ff" d="M511.5,-296.87C511.5,-290.11 511.5,-280.35 511.5,-271.26"/>
<polygon fill="#63b8ff" stroke="#63b8ff" points="515,-271.11 511.5,-261.11 508,-271.11 515,-271.11"/>
</a>
</g>
</g>
<!-- Node9&#45;&gt;Node4 -->
<g id="edge13_Node000009_Node000004" class="edge">
<title>Node9&#45;&gt;Node4</title>
<g id="a_edge13_Node000009_Node000004"><a xlink:title=" ">
<path fill="none" stroke="#63b8ff" d="M510.22,-230.72C508.61,-214.63 505.46,-187.74 500.5,-165 494.21,-136.15 483.7,-103.51 476.93,-83.73"/>
<polygon fill="#63b8ff" stroke="#63b8ff" points="480.2,-82.46 473.61,-74.16 473.59,-84.76 480.2,-82.46"/>
</a>
</g>
</g>
<!-- Node9&#45;&gt;Node5 -->
<g id="edge11_Node000009_Node000005" class="edge">
<title>Node9&#45;&gt;Node5</title>
<g id="a_edge11_Node000009_Node000005"><a xlink:title=" ">
<path fill="none" stroke="#63b8ff" d="M459.27,-230.95C422.84,-221.16 374.07,-208.05 335.65,-197.71"/>
<polygon fill="#63b8ff" stroke="#63b8ff" points="336.17,-194.23 325.61,-195.01 334.36,-200.99 336.17,-194.23"/>
</a>
</g>
</g>
<!-- Node10 -->
<g id="Node000010" class="node">
<title>Node10</title>
<g id="a_Node000010"><a xlink:title=" ">
<polygon fill="#e0e0e0" stroke="#999999" points="595,-189.5 548,-189.5 548,-170.5 595,-170.5 595,-189.5"/>
<text text-anchor="middle" x="571.5" y="-177.5" font-family="Helvetica,sans-Serif" font-size="10.00">vector</text>
</a>
</g>
</g>
<!-- Node9&#45;&gt;Node10 -->
<g id="edge12_Node000009_Node000010" class="edge">
<title>Node9&#45;&gt;Node10</title>
<g id="a_edge12_Node000009_Node000010"><a xlink:title=" ">
<path fill="none" stroke="#63b8ff" d="M524.82,-230.8C534.08,-220.92 546.45,-207.72 556.13,-197.39"/>
<polygon fill="#63b8ff" stroke="#63b8ff" points="558.92,-199.53 563.21,-189.84 553.82,-194.75 558.92,-199.53"/>
</a>
</g>
</g>
<!-- Node11 -->
<g id="Node000011" class="node">
<title>Node11</title>
<g id="a_Node000011"><a xlink:href="AABB_8h.html" target="_top" xlink:title=" ">
<polygon fill="white" stroke="#666666" points="491.5,-189.5 351.5,-189.5 351.5,-170.5 491.5,-170.5 491.5,-189.5"/>
<text text-anchor="middle" x="421.5" y="-177.5" font-family="Helvetica,sans-Serif" font-size="10.00">physics/bounding/AABB.h</text>
</a>
</g>
</g>
<!-- Node9&#45;&gt;Node11 -->
<g id="edge14_Node000009_Node000011" class="edge">
<title>Node9&#45;&gt;Node11</title>
<g id="a_edge14_Node000009_Node000011"><a xlink:title=" ">
<path fill="none" stroke="#63b8ff" d="M491.53,-230.8C476.86,-220.37 456.99,-206.24 442.16,-195.69"/>
<polygon fill="#63b8ff" stroke="#63b8ff" points="443.85,-192.6 433.68,-189.66 439.8,-198.31 443.85,-192.6"/>
</a>
</g>
</g>
<!-- Node11&#45;&gt;Node4 -->
<g id="edge15_Node000011_Node000004" class="edge">
<title>Node11&#45;&gt;Node4</title>
<g id="a_edge15_Node000011_Node000004"><a xlink:title=" ">
<path fill="none" stroke="#63b8ff" d="M425.18,-170.47C433.13,-152.06 452.03,-108.29 462.74,-83.48"/>
<polygon fill="#63b8ff" stroke="#63b8ff" points="466.02,-84.7 466.77,-74.13 459.6,-81.92 466.02,-84.7"/>
</a>
</g>
</g>
<!-- Node12 -->
<g id="Node000012" class="node">
<title>Node12</title>
<g id="a_Node000012"><a xlink:href="ICollider_8h.html" target="_top" xlink:title="Abstract interface for collision detection shapes.">
<polygon fill="white" stroke="#666666" points="157,-129 92,-129 92,-110 157,-110 157,-129"/>
<text text-anchor="middle" x="124.5" y="-117" font-family="Helvetica,sans-Serif" font-size="10.00">ICollider.h</text>
</a>
</g>
</g>
<!-- Node11&#45;&gt;Node12 -->
<g id="edge16_Node000011_Node000012" class="edge">
<title>Node11&#45;&gt;Node12</title>
<g id="a_edge16_Node000011_Node000012"><a xlink:title=" ">
<path fill="none" stroke="#63b8ff" d="M378.31,-170.49C321.82,-159.37 223.43,-139.99 167.19,-128.91"/>
<polygon fill="#63b8ff" stroke="#63b8ff" points="167.68,-125.44 157.19,-126.94 166.33,-132.31 167.68,-125.44"/>
</a>
</g>
</g>
<!-- Node12&#45;&gt;Node4 -->
<g id="edge17_Node000012_Node000004" class="edge">
<title>Node12&#45;&gt;Node4</title>
<g id="a_edge17_Node000012_Node000004"><a xlink:title=" ">
<path fill="none" stroke="#63b8ff" d="M157.09,-112.47C161.92,-111.62 166.84,-110.77 171.5,-110 259.19,-95.55 361.69,-80.75 421.05,-72.38"/>
<polygon fill="#63b8ff" stroke="#63b8ff" points="421.84,-75.8 431.26,-70.94 420.87,-68.87 421.84,-75.8"/>
</a>
</g>
</g>
<!-- Node13 -->
<g id="Node000013" class="node">
<title>Node13</title>
<g id="a_Node000013"><a xlink:title=" ">
<polygon fill="#e0e0e0" stroke="#999999" points="153.5,-74 95.5,-74 95.5,-55 153.5,-55 153.5,-74"/>
<text text-anchor="middle" x="124.5" y="-62" font-family="Helvetica,sans-Serif" font-size="10.00">memory</text>
</a>
</g>
</g>
<!-- Node12&#45;&gt;Node13 -->
<g id="edge18_Node000012_Node000013" class="edge">
<title>Node12&#45;&gt;Node13</title>
<g id="a_edge18_Node000012_Node000013"><a xlink:title=" ">
<path fill="none" stroke="#63b8ff" d="M124.5,-109.75C124.5,-102.8 124.5,-92.85 124.5,-84.13"/>
<polygon fill="#63b8ff" stroke="#63b8ff" points="128,-84.09 124.5,-74.09 121,-84.09 128,-84.09"/>
</a>
</g>
</g>
<!-- Node14 -->
<g id="Node000014" class="node">
<title>Node14</title>
<g id="a_Node000014"><a xlink:title=" ">
<polygon fill="#e0e0e0" stroke="#999999" points="227.5,-74 171.5,-74 171.5,-55 227.5,-55 227.5,-74"/>
<text text-anchor="middle" x="199.5" y="-62" font-family="Helvetica,sans-Serif" font-size="10.00">optional</text>
</a>
</g>
</g>
<!-- Node12&#45;&gt;Node14 -->
<g id="edge19_Node000012_Node000014" class="edge">
<title>Node12&#45;&gt;Node14</title>
<g id="a_edge19_Node000012_Node000014"><a xlink:title=" ">
<path fill="none" stroke="#63b8ff" d="M136.55,-109.98C147.96,-101.92 165.33,-89.65 178.93,-80.03"/>
<polygon fill="#63b8ff" stroke="#63b8ff" points="181.08,-82.8 187.23,-74.17 177.04,-77.08 181.08,-82.8"/>
</a>
</g>
</g>
<!-- Node15 -->
<g id="Node000015" class="node">
<title>Node15</title>
<g id="a_Node000015"><a xlink:href="Ray_8h.html" target="_top" xlink:title=" ">
<polygon fill="white" stroke="#666666" points="77,-74 6,-74 6,-55 77,-55 77,-74"/>
<text text-anchor="middle" x="41.5" y="-62" font-family="Helvetica,sans-Serif" font-size="10.00">math/Ray.h</text>
</a>
</g>
</g>
<!-- Node12&#45;&gt;Node15 -->
<g id="edge20_Node000012_Node000015" class="edge">
<title>Node12&#45;&gt;Node15</title>
<g id="a_edge20_Node000012_Node000015"><a xlink:title=" ">
<path fill="none" stroke="#63b8ff" d="M111.16,-109.98C98.41,-101.84 78.95,-89.41 63.83,-79.76"/>
<polygon fill="#63b8ff" stroke="#63b8ff" points="65.39,-76.6 55.08,-74.17 61.62,-82.5 65.39,-76.6"/>
</a>
</g>
</g>
<!-- Node16 -->
<g id="Node000016" class="node">
<title>Node16</title>
<g id="a_Node000016"><a xlink:title=" ">
<polygon fill="#e0e0e0" stroke="#999999" points="83,-19 0,-19 0,0 83,0 83,-19"/>
<text text-anchor="middle" x="41.5" y="-7" font-family="Helvetica,sans-Serif" font-size="10.00">glm/vec3.hpp</text>
</a>
</g>
</g>
<!-- Node15&#45;&gt;Node16 -->
<g id="edge21_Node000015_Node000016" class="edge">
<title>Node15&#45;&gt;Node16</title>
<g id="a_edge21_Node000015_Node000016"><a xlink:title=" ">
<path fill="none" stroke="#63b8ff" d="M41.5,-54.75C41.5,-47.8 41.5,-37.85 41.5,-29.13"/>
<polygon fill="#63b8ff" stroke="#63b8ff" points="45,-29.09 41.5,-19.09 38,-29.09 45,-29.09"/>
</a>
</g>
</g>
<!-- Node18&#45;&gt;Node4 -->
<g id="edge24_Node000018_Node000004" class="edge">
<title>Node18&#45;&gt;Node4</title>
<g id="a_edge24_Node000018_Node000004"><a xlink:title=" ">
<path fill="none" stroke="#63b8ff" d="M704.88,-351.96C705.69,-333.05 707.5,-286.23 707.5,-247 707.5,-247 707.5,-247 707.5,-179 707.5,-147.19 711.74,-131.72 688.5,-110 664.53,-87.59 576.33,-75.32 519.73,-69.61"/>
<polygon fill="#63b8ff" stroke="#63b8ff" points="519.85,-66.1 509.55,-68.62 519.17,-73.07 519.85,-66.1"/>
</a>
</g>
</g>
</g>
</svg>
