<?xml version="1.0" encoding="UTF-8" standalone="no"?>
<!DOCTYPE svg PUBLIC "-//W3C//DTD SVG 1.1//EN"
 "http://www.w3.org/Graphics/SVG/1.1/DTD/svg11.dtd">
<!-- Generated by graphviz version 2.43.0 (0)
 -->
<!-- Title: src/graphics/components/Gizmo.h Pages: 1 -->
<!--zoomable 445 -->

<svg id="main" version="1.1" xmlns="http://www.w3.org/2000/svg" xmlns:xlink="http://www.w3.org/1999/xlink" xml:space="preserve" onload="init(evt)">
<style type="text/css"><![CDATA[
.node, .edge {opacity: 0.7;}
.node.selected, .edge.selected {opacity: 1;}
.edge:hover path { stroke: red; }
.edge:hover polygon { stroke: red; fill: red; }
]]></style>

<defs>
  <circle id="rim" cx="0" cy="0" r="7"/>
  <circle id="rim2" cx="0" cy="0" r="3.5"/>
  <g id="zoomPlus">
    <use xlink:href="#rim" fill="#404040"><set attributeName="fill" to="#808080" begin="zoomplus.mouseover" end="zoomplus.mouseout"/></use>
    <path d="M-4,0h8M0,-4v8" fill="none" stroke="white" stroke-width="1.5" pointer-events="none"/>
  </g>
  <g id="zoomMin">
    <use xlink:href="#rim" fill="#404040"><set attributeName="fill" to="#808080" begin="zoomminus.mouseover" end="zoomminus.mouseout"/></use>
    <path d="M-4,0h8" fill="none" stroke="white" stroke-width="1.5" pointer-events="none"/>
  </g>
  <g id="arrowUp" transform="translate(30 24)">
    <use xlink:href="#rim"/>
    <path pointer-events="none" fill="none" stroke="white" stroke-width="1.5" d="M0,-3.0v7 M-2.5,-0.5L0,-3.0L2.5,-0.5"/>
  </g>
  <g id="arrowRight" transform="rotate(90) translate(36 -43)">
    <use xlink:href="#rim"/>
    <path pointer-events="none" fill="none" stroke="white" stroke-width="1.5" d="M0,-3.0v7 M-2.5,-0.5L0,-3.0L2.5,-0.5"/>
  </g>
  <g id="arrowDown" transform="rotate(180) translate(-30 -48)">
    <use xlink:href="#rim"/>
    <path pointer-events="none" fill="none" stroke="white" stroke-width="1.5" d="M0,-3.0v7 M-2.5,-0.5L0,-3.0L2.5,-0.5"/>
  </g>
  <g id="arrowLeft" transform="rotate(270) translate(-36 17)">
    <use xlink:href="#rim"/>
    <path pointer-events="none" fill="none" stroke="white" stroke-width="1.5" d="M0,-3.0v7 M-2.5,-0.5L0,-3.0L2.5,-0.5"/>
  </g>
  <g id="resetDef">
    <use xlink:href="#rim2" fill="#404040"><set attributeName="fill" to="#808080" begin="reset.mouseover" end="reset.mouseout"/></use>
  </g>
</defs>
<script type="application/ecmascript">
var viewWidth = 705;
var viewHeight = 445;
var sectionId = 'dynsection-0';
</script>
<script type="application/ecmascript" xlink:href="svg.min.js"/>
<svg id="graph" class="graph">
<g id="viewport">
<title>src/graphics/components/Gizmo.h</title>
<!-- Node1 -->
<g id="Node000001" class="node">
<title>Node1</title>
<g id="a_Node000001"><a xlink:title="Interactive 3D manipulation gizmo for scene objects.">
<polygon fill="#999999" stroke="#666666" points="452,-437 314,-437 314,-407 452,-407 452,-437"/>
<text text-anchor="start" x="322" y="-425" font-family="Helvetica,sans-Serif" font-size="10.00">src/graphics/components</text>
<text text-anchor="middle" x="383" y="-414" font-family="Helvetica,sans-Serif" font-size="10.00">/Gizmo.h</text>
</a>
</g>
</g>
<!-- Node2 -->
<g id="Node000002" class="node">
<title>Node2</title>
<g id="a_Node000002"><a xlink:href="Shader_8h.html" target="_top" xlink:title=" ">
<polygon fill="white" stroke="#666666" points="219.5,-261 98.5,-261 98.5,-231 219.5,-231 219.5,-261"/>
<text text-anchor="start" x="106.5" y="-249" font-family="Helvetica,sans-Serif" font-size="10.00">graphics/components</text>
<text text-anchor="middle" x="159" y="-238" font-family="Helvetica,sans-Serif" font-size="10.00">/Shader.h</text>
</a>
</g>
</g>
<!-- Node1&#45;&gt;Node2 -->
<g id="edge1_Node000001_Node000002" class="edge">
<title>Node1&#45;&gt;Node2</title>
<g id="a_edge1_Node000001_Node000002"><a xlink:title=" ">
<path fill="none" stroke="#63b8ff" d="M313.78,-410.58C284.5,-403.37 251.57,-391.27 227,-371 194.92,-344.54 175.53,-298.82 166.07,-270.9"/>
<polygon fill="#63b8ff" stroke="#63b8ff" points="169.33,-269.6 162.93,-261.15 162.66,-271.74 169.33,-269.6"/>
</a>
</g>
</g>
<!-- Node6 -->
<g id="Node000006" class="node">
<title>Node6</title>
<g id="a_Node000006"><a xlink:href="Camera_8h.html" target="_top" xlink:title=" ">
<polygon fill="white" stroke="#666666" points="368,-371 236,-371 236,-352 368,-352 368,-371"/>
<text text-anchor="middle" x="302" y="-359" font-family="Helvetica,sans-Serif" font-size="10.00">graphics/core/Camera.h</text>
</a>
</g>
</g>
<!-- Node1&#45;&gt;Node6 -->
<g id="edge5_Node000001_Node000006" class="edge">
<title>Node1&#45;&gt;Node6</title>
<g id="a_edge5_Node000001_Node000006"><a xlink:title=" ">
<path fill="none" stroke="#63b8ff" d="M363.39,-406.84C351.03,-397.91 335.1,-386.41 322.57,-377.35"/>
<polygon fill="#63b8ff" stroke="#63b8ff" points="324.29,-374.28 314.14,-371.27 320.2,-379.96 324.29,-374.28"/>
</a>
</g>
</g>
<!-- Node7 -->
<g id="Node000007" class="node">
<title>Node7</title>
<g id="a_Node000007"><a xlink:href="IHandle_8h.html" target="_top" xlink:title="Interface for interactive manipulation handles on gizmos.">
<polygon fill="white" stroke="#666666" points="486.5,-371 423.5,-371 423.5,-352 486.5,-352 486.5,-371"/>
<text text-anchor="middle" x="455" y="-359" font-family="Helvetica,sans-Serif" font-size="10.00">IHandle.h</text>
</a>
</g>
</g>
<!-- Node1&#45;&gt;Node7 -->
<g id="edge7_Node000001_Node000007" class="edge">
<title>Node1&#45;&gt;Node7</title>
<g id="a_edge7_Node000001_Node000007"><a xlink:title=" ">
<path fill="none" stroke="#63b8ff" d="M400.43,-406.84C411.31,-398 425.3,-386.63 436.39,-377.62"/>
<polygon fill="#63b8ff" stroke="#63b8ff" points="438.66,-380.29 444.21,-371.27 434.24,-374.86 438.66,-380.29"/>
</a>
</g>
</g>
<!-- Node20 -->
<g id="Node000020" class="node">
<title>Node20</title>
<g id="a_Node000020"><a xlink:href="IPickable_8h.html" target="_top" xlink:title="Interface for objects that support mouse&#45;based selection and interaction.">
<polygon fill="white" stroke="#666666" points="697,-129 595,-129 595,-110 697,-110 697,-129"/>
<text text-anchor="middle" x="646" y="-117" font-family="Helvetica,sans-Serif" font-size="10.00">../core/IPickable.h</text>
</a>
</g>
</g>
<!-- Node1&#45;&gt;Node20 -->
<g id="edge26_Node000001_Node000020" class="edge">
<title>Node1&#45;&gt;Node20</title>
<g id="a_edge26_Node000001_Node000020"><a xlink:title=" ">
<path fill="none" stroke="#63b8ff" d="M452.26,-419.57C529.58,-413.86 644,-391.25 644,-307.5 644,-307.5 644,-307.5 644,-245 644,-207.49 644.92,-163.63 645.51,-139.26"/>
<polygon fill="#63b8ff" stroke="#63b8ff" points="649.01,-139.34 645.76,-129.25 642.01,-139.16 649.01,-139.34"/>
</a>
</g>
</g>
<!-- Node3 -->
<g id="Node000003" class="node">
<title>Node3</title>
<g id="a_Node000003"><a xlink:title=" ">
<polygon fill="#e0e0e0" stroke="#999999" points="44,-189.5 0,-189.5 0,-170.5 44,-170.5 44,-189.5"/>
<text text-anchor="middle" x="22" y="-177.5" font-family="Helvetica,sans-Serif" font-size="10.00">string</text>
</a>
</g>
</g>
<!-- Node2&#45;&gt;Node3 -->
<g id="edge2_Node000002_Node000003" class="edge">
<title>Node2&#45;&gt;Node3</title>
<g id="a_edge2_Node000002_Node000003"><a xlink:title=" ">
<path fill="none" stroke="#63b8ff" d="M128.93,-230.95C105.23,-219.88 72.44,-204.56 49.44,-193.82"/>
<polygon fill="#63b8ff" stroke="#63b8ff" points="50.77,-190.58 40.23,-189.52 47.81,-196.92 50.77,-190.58"/>
</a>
</g>
</g>
<!-- Node4 -->
<g id="Node000004" class="node">
<title>Node4</title>
<g id="a_Node000004"><a xlink:title=" ">
<polygon fill="#e0e0e0" stroke="#999999" points="410,-74 332,-74 332,-55 410,-55 410,-74"/>
<text text-anchor="middle" x="371" y="-62" font-family="Helvetica,sans-Serif" font-size="10.00">glm/glm.hpp</text>
</a>
</g>
</g>
<!-- Node2&#45;&gt;Node4 -->
<g id="edge3_Node000002_Node000004" class="edge">
<title>Node2&#45;&gt;Node4</title>
<g id="a_edge3_Node000002_Node000004"><a xlink:title=" ">
<path fill="none" stroke="#63b8ff" d="M128.54,-230.94C114.38,-222.66 98.94,-210.69 91,-195 84.98,-183.1 83.7,-176.16 91,-165 141.02,-88.59 255.76,-70.28 321.78,-66.25"/>
<polygon fill="#63b8ff" stroke="#63b8ff" points="322.14,-69.74 331.95,-65.72 321.78,-62.75 322.14,-69.74"/>
</a>
</g>
</g>
<!-- Node5 -->
<g id="Node000005" class="node">
<title>Node5</title>
<g id="a_Node000005"><a xlink:title=" ">
<polygon fill="#e0e0e0" stroke="#999999" points="220,-195 100,-195 100,-165 220,-165 220,-195"/>
<text text-anchor="start" x="108" y="-183" font-family="Helvetica,sans-Serif" font-size="10.00">QOpenGLFunctions_4</text>
<text text-anchor="middle" x="160" y="-172" font-family="Helvetica,sans-Serif" font-size="10.00">_5_Core</text>
</a>
</g>
</g>
<!-- Node2&#45;&gt;Node5 -->
<g id="edge4_Node000002_Node000005" class="edge">
<title>Node2&#45;&gt;Node5</title>
<g id="a_edge4_Node000002_Node000005"><a xlink:title=" ">
<path fill="none" stroke="#63b8ff" d="M159.22,-230.8C159.34,-223.34 159.48,-213.99 159.62,-205.41"/>
<polygon fill="#63b8ff" stroke="#63b8ff" points="163.12,-205.22 159.78,-195.16 156.12,-205.11 163.12,-205.22"/>
</a>
</g>
</g>
<!-- Node6&#45;&gt;Node4 -->
<g id="edge6_Node000006_Node000004" class="edge">
<title>Node6&#45;&gt;Node4</title>
<g id="a_edge6_Node000006_Node000004"><a xlink:title=" ">
<path fill="none" stroke="#63b8ff" d="M292.74,-351.96C284.42,-343.66 272.67,-330.25 267,-316 250.02,-273.32 223.72,-147.67 250,-110 266.17,-86.83 295.82,-75.69 321.72,-70.35"/>
<polygon fill="#63b8ff" stroke="#63b8ff" points="322.58,-73.75 331.79,-68.51 321.33,-66.86 322.58,-73.75"/>
</a>
</g>
</g>
<!-- Node8 -->
<g id="Node000008" class="node">
<title>Node8</title>
<g id="a_Node000008"><a xlink:href="IDrawable_8h.html" target="_top" xlink:title="Core interfaces for the rendering system supporting both instanced and custom drawing.">
<polygon fill="white" stroke="#666666" points="384,-316 276,-316 276,-297 384,-297 384,-316"/>
<text text-anchor="middle" x="330" y="-304" font-family="Helvetica,sans-Serif" font-size="10.00">../core/IDrawable.h</text>
</a>
</g>
</g>
<!-- Node7&#45;&gt;Node8 -->
<g id="edge8_Node000007_Node000008" class="edge">
<title>Node7&#45;&gt;Node8</title>
<g id="a_edge8_Node000007_Node000008"><a xlink:title=" ">
<path fill="none" stroke="#63b8ff" d="M434.92,-351.98C414.63,-343.38 383.04,-329.99 359.83,-320.15"/>
<polygon fill="#63b8ff" stroke="#63b8ff" points="361.02,-316.85 350.45,-316.17 358.29,-323.3 361.02,-316.85"/>
</a>
</g>
</g>
<!-- Node18 -->
<g id="Node000018" class="node">
<title>Node18</title>
<g id="a_Node000018"><a xlink:title=" ">
<polygon fill="#e0e0e0" stroke="#999999" points="532,-316 402,-316 402,-297 532,-297 532,-316"/>
<text text-anchor="middle" x="467" y="-304" font-family="Helvetica,sans-Serif" font-size="10.00">glm/gtc/quaternion.hpp</text>
</a>
</g>
</g>
<!-- Node7&#45;&gt;Node18 -->
<g id="edge24_Node000007_Node000018" class="edge">
<title>Node7&#45;&gt;Node18</title>
<g id="a_edge24_Node000007_Node000018"><a xlink:title=" ">
<path fill="none" stroke="#63b8ff" d="M456.98,-351.75C458.57,-344.72 460.86,-334.62 462.85,-325.84"/>
<polygon fill="#63b8ff" stroke="#63b8ff" points="466.26,-326.62 465.06,-316.09 459.43,-325.07 466.26,-326.62"/>
</a>
</g>
</g>
<!-- Node19 -->
<g id="Node000019" class="node">
<title>Node19</title>
<g id="a_Node000019"><a xlink:href="Axis_8h.html" target="_top" xlink:title=" ">
<polygon fill="white" stroke="#666666" points="597.5,-316 550.5,-316 550.5,-297 597.5,-297 597.5,-316"/>
<text text-anchor="middle" x="574" y="-304" font-family="Helvetica,sans-Serif" font-size="10.00">Axis.h</text>
</a>
</g>
</g>
<!-- Node7&#45;&gt;Node19 -->
<g id="edge25_Node000007_Node000019" class="edge">
<title>Node7&#45;&gt;Node19</title>
<g id="a_edge25_Node000007_Node000019"><a xlink:title=" ">
<path fill="none" stroke="#63b8ff" d="M474.12,-351.98C493.35,-343.42 523.23,-330.11 545.31,-320.28"/>
<polygon fill="#63b8ff" stroke="#63b8ff" points="546.82,-323.44 554.53,-316.17 543.97,-317.04 546.82,-323.44"/>
</a>
</g>
</g>
<!-- Node8&#45;&gt;Node2 -->
<g id="edge9_Node000008_Node000002" class="edge">
<title>Node8&#45;&gt;Node2</title>
<g id="a_edge9_Node000008_Node000002"><a xlink:title=" ">
<path fill="none" stroke="#63b8ff" d="M305.14,-296.99C280.2,-288.46 241.1,-275.09 209.61,-264.32"/>
<polygon fill="#63b8ff" stroke="#63b8ff" points="210.71,-260.99 200.11,-261.06 208.44,-267.61 210.71,-260.99"/>
</a>
</g>
</g>
<!-- Node9 -->
<g id="Node000009" class="node">
<title>Node9</title>
<g id="a_Node000009"><a xlink:href="Mesh_8h.html" target="_top" xlink:title=" ">
<polygon fill="white" stroke="#666666" points="420.5,-261 299.5,-261 299.5,-231 420.5,-231 420.5,-261"/>
<text text-anchor="start" x="307.5" y="-249" font-family="Helvetica,sans-Serif" font-size="10.00">graphics/components</text>
<text text-anchor="middle" x="360" y="-238" font-family="Helvetica,sans-Serif" font-size="10.00">/Mesh.h</text>
</a>
</g>
</g>
<!-- Node8&#45;&gt;Node9 -->
<g id="edge10_Node000008_Node000009" class="edge">
<title>Node8&#45;&gt;Node9</title>
<g id="a_edge10_Node000008_Node000009"><a xlink:title=" ">
<path fill="none" stroke="#63b8ff" d="M334.43,-296.87C338.04,-289.81 343.33,-279.5 348.16,-270.08"/>
<polygon fill="#63b8ff" stroke="#63b8ff" points="351.31,-271.61 352.76,-261.11 345.08,-268.42 351.31,-271.61"/>
</a>
</g>
</g>
<!-- Node9&#45;&gt;Node4 -->
<g id="edge13_Node000009_Node000004" class="edge">
<title>Node9&#45;&gt;Node4</title>
<g id="a_edge13_Node000009_Node000004"><a xlink:title=" ">
<path fill="none" stroke="#63b8ff" d="M365.86,-230.99C372.9,-214.68 385.46,-187.15 399,-165 409.43,-147.93 419.68,-147.97 426,-129 428.67,-120.99 429.64,-117.62 426,-110 419.91,-97.23 408.16,-86.94 397.08,-79.49"/>
<polygon fill="#63b8ff" stroke="#63b8ff" points="398.8,-76.43 388.46,-74.12 395.1,-82.38 398.8,-76.43"/>
</a>
</g>
</g>
<!-- Node9&#45;&gt;Node5 -->
<g id="edge11_Node000009_Node000005" class="edge">
<title>Node9&#45;&gt;Node5</title>
<g id="a_edge11_Node000009_Node000005"><a xlink:title=" ">
<path fill="none" stroke="#63b8ff" d="M316.11,-230.95C285.89,-221.28 245.56,-208.38 213.46,-198.11"/>
<polygon fill="#63b8ff" stroke="#63b8ff" points="214.38,-194.73 203.79,-195.01 212.25,-201.39 214.38,-194.73"/>
</a>
</g>
</g>
<!-- Node10 -->
<g id="Node000010" class="node">
<title>Node10</title>
<g id="a_Node000010"><a xlink:title=" ">
<polygon fill="#e0e0e0" stroke="#999999" points="455.5,-189.5 408.5,-189.5 408.5,-170.5 455.5,-170.5 455.5,-189.5"/>
<text text-anchor="middle" x="432" y="-177.5" font-family="Helvetica,sans-Serif" font-size="10.00">vector</text>
</a>
</g>
</g>
<!-- Node9&#45;&gt;Node10 -->
<g id="edge12_Node000009_Node000010" class="edge">
<title>Node9&#45;&gt;Node10</title>
<g id="a_edge12_Node000009_Node000010"><a xlink:title=" ">
<path fill="none" stroke="#63b8ff" d="M375.98,-230.8C387.31,-220.72 402.53,-207.19 414.25,-196.78"/>
<polygon fill="#63b8ff" stroke="#63b8ff" points="416.9,-199.1 422.05,-189.84 412.25,-193.87 416.9,-199.1"/>
</a>
</g>
</g>
<!-- Node11 -->
<g id="Node000011" class="node">
<title>Node11</title>
<g id="a_Node000011"><a xlink:href="AABB_8h.html" target="_top" xlink:title=" ">
<polygon fill="white" stroke="#666666" points="614,-189.5 474,-189.5 474,-170.5 614,-170.5 614,-189.5"/>
<text text-anchor="middle" x="544" y="-177.5" font-family="Helvetica,sans-Serif" font-size="10.00">physics/bounding/AABB.h</text>
</a>
</g>
</g>
<!-- Node9&#45;&gt;Node11 -->
<g id="edge14_Node000009_Node000011" class="edge">
<title>Node9&#45;&gt;Node11</title>
<g id="a_edge14_Node000009_Node000011"><a xlink:title=" ">
<path fill="none" stroke="#63b8ff" d="M400.38,-230.95C433.22,-219.53 479.03,-203.6 510.01,-192.82"/>
<polygon fill="#63b8ff" stroke="#63b8ff" points="511.22,-196.11 519.51,-189.52 508.92,-189.5 511.22,-196.11"/>
</a>
</g>
</g>
<!-- Node17 -->
<g id="Node000017" class="node">
<title>Node17</title>
<g id="a_Node000017"><a xlink:href="InstanceData_8h.html" target="_top" xlink:title=" ">
<polygon fill="white" stroke="#666666" points="417,-129 259,-129 259,-110 417,-110 417,-129"/>
<text text-anchor="middle" x="338" y="-117" font-family="Helvetica,sans-Serif" font-size="10.00">graphics/core/InstanceData.h</text>
</a>
</g>
</g>
<!-- Node9&#45;&gt;Node17 -->
<g id="edge22_Node000009_Node000017" class="edge">
<title>Node9&#45;&gt;Node17</title>
<g id="a_edge22_Node000009_Node000017"><a xlink:title=" ">
<path fill="none" stroke="#63b8ff" d="M357.48,-230.72C353.48,-208.12 345.71,-164.12 341.29,-139.09"/>
<polygon fill="#63b8ff" stroke="#63b8ff" points="344.7,-138.31 339.51,-129.07 337.81,-139.53 344.7,-138.31"/>
</a>
</g>
</g>
<!-- Node11&#45;&gt;Node4 -->
<g id="edge15_Node000011_Node000004" class="edge">
<title>Node11&#45;&gt;Node4</title>
<g id="a_edge15_Node000011_Node000004"><a xlink:title=" ">
<path fill="none" stroke="#63b8ff" d="M534.58,-170.21C519.42,-156.34 488.35,-129.02 459,-110 440.21,-97.82 417.65,-86.47 400.08,-78.28"/>
<polygon fill="#63b8ff" stroke="#63b8ff" points="401.44,-75.06 390.89,-74.08 398.52,-81.42 401.44,-75.06"/>
</a>
</g>
</g>
<!-- Node12 -->
<g id="Node000012" class="node">
<title>Node12</title>
<g id="a_Node000012"><a xlink:href="ICollider_8h.html" target="_top" xlink:title="Abstract interface for collision detection shapes.">
<polygon fill="white" stroke="#666666" points="576.5,-129 511.5,-129 511.5,-110 576.5,-110 576.5,-129"/>
<text text-anchor="middle" x="544" y="-117" font-family="Helvetica,sans-Serif" font-size="10.00">ICollider.h</text>
</a>
</g>
</g>
<!-- Node11&#45;&gt;Node12 -->
<g id="edge16_Node000011_Node000012" class="edge">
<title>Node11&#45;&gt;Node12</title>
<g id="a_edge16_Node000011_Node000012"><a xlink:title=" ">
<path fill="none" stroke="#63b8ff" d="M544,-170.37C544,-162.25 544,-149.81 544,-139.39"/>
<polygon fill="#63b8ff" stroke="#63b8ff" points="547.5,-139.17 544,-129.17 540.5,-139.17 547.5,-139.17"/>
</a>
</g>
</g>
<!-- Node12&#45;&gt;Node4 -->
<g id="edge17_Node000012_Node000004" class="edge">
<title>Node12&#45;&gt;Node4</title>
<g id="a_edge17_Node000012_Node000004"><a xlink:title=" ">
<path fill="none" stroke="#63b8ff" d="M516.2,-109.98C487.03,-101.05 441,-86.94 408.6,-77.02"/>
<polygon fill="#63b8ff" stroke="#63b8ff" points="409.6,-73.66 399.01,-74.08 407.55,-80.36 409.6,-73.66"/>
</a>
</g>
</g>
<!-- Node13 -->
<g id="Node000013" class="node">
<title>Node13</title>
<g id="a_Node000013"><a xlink:title=" ">
<polygon fill="#e0e0e0" stroke="#999999" points="518,-74 460,-74 460,-55 518,-55 518,-74"/>
<text text-anchor="middle" x="489" y="-62" font-family="Helvetica,sans-Serif" font-size="10.00">memory</text>
</a>
</g>
</g>
<!-- Node12&#45;&gt;Node13 -->
<g id="edge18_Node000012_Node000013" class="edge">
<title>Node12&#45;&gt;Node13</title>
<g id="a_edge18_Node000012_Node000013"><a xlink:title=" ">
<path fill="none" stroke="#63b8ff" d="M534.92,-109.75C526.91,-102.03 515.04,-90.6 505.38,-81.28"/>
<polygon fill="#63b8ff" stroke="#63b8ff" points="507.54,-78.51 497.91,-74.09 502.69,-83.55 507.54,-78.51"/>
</a>
</g>
</g>
<!-- Node14 -->
<g id="Node000014" class="node">
<title>Node14</title>
<g id="a_Node000014"><a xlink:title=" ">
<polygon fill="#e0e0e0" stroke="#999999" points="592,-74 536,-74 536,-55 592,-55 592,-74"/>
<text text-anchor="middle" x="564" y="-62" font-family="Helvetica,sans-Serif" font-size="10.00">optional</text>
</a>
</g>
</g>
<!-- Node12&#45;&gt;Node14 -->
<g id="edge19_Node000012_Node000014" class="edge">
<title>Node12&#45;&gt;Node14</title>
<g id="a_edge19_Node000012_Node000014"><a xlink:title=" ">
<path fill="none" stroke="#63b8ff" d="M547.3,-109.75C549.98,-102.65 553.85,-92.4 557.19,-83.56"/>
<polygon fill="#63b8ff" stroke="#63b8ff" points="560.5,-84.68 560.76,-74.09 553.95,-82.21 560.5,-84.68"/>
</a>
</g>
</g>
<!-- Node15 -->
<g id="Node000015" class="node">
<title>Node15</title>
<g id="a_Node000015"><a xlink:href="Ray_8h.html" target="_top" xlink:title=" ">
<polygon fill="white" stroke="#666666" points="681.5,-74 610.5,-74 610.5,-55 681.5,-55 681.5,-74"/>
<text text-anchor="middle" x="646" y="-62" font-family="Helvetica,sans-Serif" font-size="10.00">math/Ray.h</text>
</a>
</g>
</g>
<!-- Node12&#45;&gt;Node15 -->
<g id="edge20_Node000012_Node000015" class="edge">
<title>Node12&#45;&gt;Node15</title>
<g id="a_edge20_Node000012_Node000015"><a xlink:title=" ">
<path fill="none" stroke="#63b8ff" d="M560.39,-109.98C576.57,-101.57 601.57,-88.59 620.38,-78.81"/>
<polygon fill="#63b8ff" stroke="#63b8ff" points="622.05,-81.89 629.31,-74.17 618.83,-75.68 622.05,-81.89"/>
</a>
</g>
</g>
<!-- Node16 -->
<g id="Node000016" class="node">
<title>Node16</title>
<g id="a_Node000016"><a xlink:title=" ">
<polygon fill="#e0e0e0" stroke="#999999" points="687.5,-19 604.5,-19 604.5,0 687.5,0 687.5,-19"/>
<text text-anchor="middle" x="646" y="-7" font-family="Helvetica,sans-Serif" font-size="10.00">glm/vec3.hpp</text>
</a>
</g>
</g>
<!-- Node15&#45;&gt;Node16 -->
<g id="edge21_Node000015_Node000016" class="edge">
<title>Node15&#45;&gt;Node16</title>
<g id="a_edge21_Node000015_Node000016"><a xlink:title=" ">
<path fill="none" stroke="#63b8ff" d="M646,-54.75C646,-47.8 646,-37.85 646,-29.13"/>
<polygon fill="#63b8ff" stroke="#63b8ff" points="649.5,-29.09 646,-19.09 642.5,-29.09 649.5,-29.09"/>
</a>
</g>
</g>
<!-- Node17&#45;&gt;Node4 -->
<g id="edge23_Node000017_Node000004" class="edge">
<title>Node17&#45;&gt;Node4</title>
<g id="a_edge23_Node000017_Node000004"><a xlink:title=" ">
<path fill="none" stroke="#63b8ff" d="M343.45,-109.75C348.01,-102.42 354.67,-91.73 360.29,-82.7"/>
<polygon fill="#63b8ff" stroke="#63b8ff" points="363.34,-84.43 365.65,-74.09 357.4,-80.73 363.34,-84.43"/>
</a>
</g>
</g>
<!-- Node20&#45;&gt;Node14 -->
<g id="edge28_Node000020_Node000014" class="edge">
<title>Node20&#45;&gt;Node14</title>
<g id="a_edge28_Node000020_Node000014"><a xlink:title=" ">
<path fill="none" stroke="#63b8ff" d="M632.83,-109.98C620.23,-101.84 601,-89.41 586.06,-79.76"/>
<polygon fill="#63b8ff" stroke="#63b8ff" points="587.71,-76.66 577.41,-74.17 583.91,-82.54 587.71,-76.66"/>
</a>
</g>
</g>
<!-- Node20&#45;&gt;Node15 -->
<g id="edge27_Node000020_Node000015" class="edge">
<title>Node20&#45;&gt;Node15</title>
<g id="a_edge27_Node000020_Node000015"><a xlink:title=" ">
<path fill="none" stroke="#63b8ff" d="M646,-109.75C646,-102.8 646,-92.85 646,-84.13"/>
<polygon fill="#63b8ff" stroke="#63b8ff" points="649.5,-84.09 646,-74.09 642.5,-84.09 649.5,-84.09"/>
</a>
</g>
</g>
</g>
</svg>

<g id="navigator" transform="translate(0 0)" fill="#404254">
  <rect fill="#f2f5e9" fill-opacity="0.5" stroke="#606060" stroke-width=".5" x="0" y="0" width="60" height="60"/>
  <use id="zoomplus" xlink:href="#zoomPlus" x="17" y="9" onmousedown="handleZoom(evt,'in')"/>
  <use id="zoomminus" xlink:href="#zoomMin" x="42" y="9" onmousedown="handleZoom(evt,'out')"/>
  <use id="reset" xlink:href="#resetDef" x="30" y="36" onmousedown="handleReset()"/>
   <use id="arrowup" xlink:href="#arrowUp" x="0" y="0" onmousedown="handlePan(0,-1)"/>
  <use id="arrowright" xlink:href="#arrowRight" x="0" y="0" onmousedown="handlePan(1,0)"/>
  <use id="arrowdown" xlink:href="#arrowDown" x="0" y="0" onmousedown="handlePan(0,1)"/>
  <use id="arrowleft" xlink:href="#arrowLeft" x="0" y="0" onmousedown="handlePan(-1,0)"/>
</g>
<svg viewBox="0 0 15 15" width="100%" height="30px" preserveAspectRatio="xMaxYMin meet">
 <g id="arrow_out" transform="scale(0.3 0.3)">
  <a xlink:href="Gizmo_8h__incl_org.svg" target="_base">
   <rect id="button" ry="5" rx="5" y="6" x="6" height="38" width="38"
        fill="#f2f5e9" fill-opacity="0.5" stroke="#606060" stroke-width="1.0"/>
   <path id="arrow"
     d="M 11.500037,31.436501 C 11.940474,20.09759 22.043105,11.32322 32.158766,21.979434 L 37.068811,17.246167 C 37.068811,17.246167 37.088388,32 37.088388,32 L 22.160133,31.978069 C 22.160133,31.978069 26.997745,27.140456 26.997745,27.140456 C 18.528582,18.264221 13.291696,25.230495 11.500037,31.436501 z"
     style="fill:#404040;"/>
  </a>
 </g>
</svg>

<style type='text/css'>
<![CDATA[
[data-mouse-over-selected='false'] { opacity: 0.7; }
[data-mouse-over-selected='true']  { opacity: 1.0; }
]]>
</style>
<script type="application/ecmascript"><![CDATA[
document.addEventListener('DOMContentLoaded', (event) => {
  highlightEdges();
  highlightAdjacentNodes();
});
]]></script>
</svg>
