<?xml version="1.0" encoding="UTF-8" standalone="no"?>
<!DOCTYPE svg PUBLIC "-//W3C//DTD SVG 1.1//EN"
 "http://www.w3.org/Graphics/SVG/1.1/DTD/svg11.dtd">
<!-- Generated by graphviz version 2.43.0 (0)
 -->
<!-- Title: src/graphics/core/IDrawable.h Pages: 1 -->
<svg width="562pt" height="269pt"
 viewBox="0.00 0.00 561.50 269.00" xmlns="http://www.w3.org/2000/svg" xmlns:xlink="http://www.w3.org/1999/xlink">
<g id="graph0" class="graph" transform="scale(1 1) rotate(0) translate(4 265)">
<title>src/graphics/core/IDrawable.h</title>
<!-- Node1 -->
<g id="Node000001" class="node">
<title>Node1</title>
<g id="a_Node000001"><a xlink:title=" ">
<polygon fill="#999999" stroke="#666666" points="242,-261 81,-261 81,-242 242,-242 242,-261"/>
<text text-anchor="middle" x="161.5" y="-249" font-family="Helvetica,sans-Serif" font-size="10.00">src/graphics/core/IDrawable.h</text>
</a>
</g>
</g>
<!-- Node2 -->
<g id="Node000002" class="node">
<title>Node2</title>
<g id="a_Node000002"><a xlink:title=" ">
<polygon fill="#e0e0e0" stroke="#999999" points="83,-200.5 0,-200.5 0,-181.5 83,-181.5 83,-200.5"/>
<text text-anchor="middle" x="41.5" y="-188.5" font-family="Helvetica,sans-Serif" font-size="10.00">glm/vec3.hpp</text>
</a>
</g>
</g>
<!-- Node1&#45;&gt;Node2 -->
<g id="edge1_Node000001_Node000002" class="edge">
<title>Node1&#45;&gt;Node2</title>
<g id="a_edge1_Node000001_Node000002"><a xlink:title=" ">
<path fill="none" stroke="#63b8ff" d="M144.05,-241.99C124.14,-232.29 91.36,-216.31 68.23,-205.03"/>
<polygon fill="#63b8ff" stroke="#63b8ff" points="69.49,-201.75 58.97,-200.52 66.43,-208.04 69.49,-201.75"/>
</a>
</g>
</g>
<!-- Node3 -->
<g id="Node000003" class="node">
<title>Node3</title>
<g id="a_Node000003"><a xlink:href="Shader_8h.html" target="_top" xlink:title=" ">
<polygon fill="white" stroke="#666666" points="222,-206 101,-206 101,-176 222,-176 222,-206"/>
<text text-anchor="start" x="109" y="-194" font-family="Helvetica,sans-Serif" font-size="10.00">graphics/components</text>
<text text-anchor="middle" x="161.5" y="-183" font-family="Helvetica,sans-Serif" font-size="10.00">/Shader.h</text>
</a>
</g>
</g>
<!-- Node1&#45;&gt;Node3 -->
<g id="edge2_Node000001_Node000003" class="edge">
<title>Node1&#45;&gt;Node3</title>
<g id="a_edge2_Node000001_Node000003"><a xlink:title=" ">
<path fill="none" stroke="#63b8ff" d="M161.5,-241.87C161.5,-235.11 161.5,-225.35 161.5,-216.26"/>
<polygon fill="#63b8ff" stroke="#63b8ff" points="165,-216.11 161.5,-206.11 158,-216.11 165,-216.11"/>
</a>
</g>
</g>
<!-- Node7 -->
<g id="Node000007" class="node">
<title>Node7</title>
<g id="a_Node000007"><a xlink:href="Mesh_8h.html" target="_top" xlink:title=" ">
<polygon fill="white" stroke="#666666" points="380,-206 259,-206 259,-176 380,-176 380,-206"/>
<text text-anchor="start" x="267" y="-194" font-family="Helvetica,sans-Serif" font-size="10.00">graphics/components</text>
<text text-anchor="middle" x="319.5" y="-183" font-family="Helvetica,sans-Serif" font-size="10.00">/Mesh.h</text>
</a>
</g>
</g>
<!-- Node1&#45;&gt;Node7 -->
<g id="edge6_Node000001_Node000007" class="edge">
<title>Node1&#45;&gt;Node7</title>
<g id="a_edge6_Node000001_Node000007"><a xlink:title=" ">
<path fill="none" stroke="#63b8ff" d="M184.47,-241.99C207.31,-233.54 243.02,-220.32 271.98,-209.59"/>
<polygon fill="#63b8ff" stroke="#63b8ff" points="273.35,-212.82 281.51,-206.06 270.92,-206.25 273.35,-212.82"/>
</a>
</g>
</g>
<!-- Node4 -->
<g id="Node000004" class="node">
<title>Node4</title>
<g id="a_Node000004"><a xlink:title=" ">
<polygon fill="#e0e0e0" stroke="#999999" points="115.5,-134.5 71.5,-134.5 71.5,-115.5 115.5,-115.5 115.5,-134.5"/>
<text text-anchor="middle" x="93.5" y="-122.5" font-family="Helvetica,sans-Serif" font-size="10.00">string</text>
</a>
</g>
</g>
<!-- Node3&#45;&gt;Node4 -->
<g id="edge3_Node000003_Node000004" class="edge">
<title>Node3&#45;&gt;Node4</title>
<g id="a_edge3_Node000003_Node000004"><a xlink:title=" ">
<path fill="none" stroke="#63b8ff" d="M146.41,-175.8C135.7,-165.72 121.33,-152.19 110.27,-141.78"/>
<polygon fill="#63b8ff" stroke="#63b8ff" points="112.58,-139.15 102.9,-134.84 107.78,-144.25 112.58,-139.15"/>
</a>
</g>
</g>
<!-- Node5 -->
<g id="Node000005" class="node">
<title>Node5</title>
<g id="a_Node000005"><a xlink:title=" ">
<polygon fill="#e0e0e0" stroke="#999999" points="393.5,-19 315.5,-19 315.5,0 393.5,0 393.5,-19"/>
<text text-anchor="middle" x="354.5" y="-7" font-family="Helvetica,sans-Serif" font-size="10.00">glm/glm.hpp</text>
</a>
</g>
</g>
<!-- Node3&#45;&gt;Node5 -->
<g id="edge4_Node000003_Node000005" class="edge">
<title>Node3&#45;&gt;Node5</title>
<g id="a_edge4_Node000003_Node000005"><a xlink:title=" ">
<path fill="none" stroke="#63b8ff" d="M157.57,-175.79C153.73,-158.78 150.11,-130.1 162.5,-110 193.71,-59.39 259.79,-33.32 305.65,-20.79"/>
<polygon fill="#63b8ff" stroke="#63b8ff" points="306.6,-24.16 315.4,-18.25 304.84,-17.39 306.6,-24.16"/>
</a>
</g>
</g>
<!-- Node6 -->
<g id="Node000006" class="node">
<title>Node6</title>
<g id="a_Node000006"><a xlink:title=" ">
<polygon fill="#e0e0e0" stroke="#999999" points="291.5,-140 171.5,-140 171.5,-110 291.5,-110 291.5,-140"/>
<text text-anchor="start" x="179.5" y="-128" font-family="Helvetica,sans-Serif" font-size="10.00">QOpenGLFunctions_4</text>
<text text-anchor="middle" x="231.5" y="-117" font-family="Helvetica,sans-Serif" font-size="10.00">_5_Core</text>
</a>
</g>
</g>
<!-- Node3&#45;&gt;Node6 -->
<g id="edge5_Node000003_Node000006" class="edge">
<title>Node3&#45;&gt;Node6</title>
<g id="a_edge5_Node000003_Node000006"><a xlink:title=" ">
<path fill="none" stroke="#63b8ff" d="M177.04,-175.8C186.28,-167.34 198.18,-156.46 208.5,-147.03"/>
<polygon fill="#63b8ff" stroke="#63b8ff" points="210.99,-149.49 216.01,-140.16 206.27,-144.33 210.99,-149.49"/>
</a>
</g>
</g>
<!-- Node7&#45;&gt;Node5 -->
<g id="edge9_Node000007_Node000005" class="edge">
<title>Node7&#45;&gt;Node5</title>
<g id="a_edge9_Node000007_Node000005"><a xlink:title=" ">
<path fill="none" stroke="#63b8ff" d="M322.25,-175.91C328.5,-143.85 343.8,-65.38 350.84,-29.26"/>
<polygon fill="#63b8ff" stroke="#63b8ff" points="354.34,-29.62 352.82,-19.13 347.47,-28.28 354.34,-29.62"/>
</a>
</g>
</g>
<!-- Node7&#45;&gt;Node6 -->
<g id="edge7_Node000007_Node000006" class="edge">
<title>Node7&#45;&gt;Node6</title>
<g id="a_edge7_Node000007_Node000006"><a xlink:title=" ">
<path fill="none" stroke="#63b8ff" d="M299.97,-175.8C288.01,-167.1 272.51,-155.82 259.28,-146.2"/>
<polygon fill="#63b8ff" stroke="#63b8ff" points="261.12,-143.22 250.98,-140.16 257,-148.88 261.12,-143.22"/>
</a>
</g>
</g>
<!-- Node8 -->
<g id="Node000008" class="node">
<title>Node8</title>
<g id="a_Node000008"><a xlink:title=" ">
<polygon fill="#e0e0e0" stroke="#999999" points="395,-134.5 348,-134.5 348,-115.5 395,-115.5 395,-134.5"/>
<text text-anchor="middle" x="371.5" y="-122.5" font-family="Helvetica,sans-Serif" font-size="10.00">vector</text>
</a>
</g>
</g>
<!-- Node7&#45;&gt;Node8 -->
<g id="edge8_Node000007_Node000008" class="edge">
<title>Node7&#45;&gt;Node8</title>
<g id="a_edge8_Node000007_Node000008"><a xlink:title=" ">
<path fill="none" stroke="#63b8ff" d="M331.04,-175.8C338.99,-166.01 349.58,-152.98 357.93,-142.7"/>
<polygon fill="#63b8ff" stroke="#63b8ff" points="360.72,-144.81 364.31,-134.84 355.29,-140.4 360.72,-144.81"/>
</a>
</g>
</g>
<!-- Node9 -->
<g id="Node000009" class="node">
<title>Node9</title>
<g id="a_Node000009"><a xlink:href="AABB_8h.html" target="_top" xlink:title=" ">
<polygon fill="white" stroke="#666666" points="553.5,-134.5 413.5,-134.5 413.5,-115.5 553.5,-115.5 553.5,-134.5"/>
<text text-anchor="middle" x="483.5" y="-122.5" font-family="Helvetica,sans-Serif" font-size="10.00">physics/bounding/AABB.h</text>
</a>
</g>
</g>
<!-- Node7&#45;&gt;Node9 -->
<g id="edge10_Node000007_Node000009" class="edge">
<title>Node7&#45;&gt;Node9</title>
<g id="a_edge10_Node000007_Node000009"><a xlink:title=" ">
<path fill="none" stroke="#63b8ff" d="M355.49,-175.95C384.38,-164.68 424.53,-149.01 452.12,-138.25"/>
<polygon fill="#63b8ff" stroke="#63b8ff" points="453.63,-141.41 461.67,-134.52 451.09,-134.89 453.63,-141.41"/>
</a>
</g>
</g>
<!-- Node9&#45;&gt;Node5 -->
<g id="edge11_Node000009_Node000005" class="edge">
<title>Node9&#45;&gt;Node5</title>
<g id="a_edge11_Node000009_Node000005"><a xlink:title=" ">
<path fill="none" stroke="#63b8ff" d="M472.96,-115.25C461.09,-105.36 441.26,-88.69 424.5,-74 406.14,-57.9 385.48,-39.07 371.39,-26.11"/>
<polygon fill="#63b8ff" stroke="#63b8ff" points="373.65,-23.43 363.92,-19.23 368.9,-28.58 373.65,-23.43"/>
</a>
</g>
</g>
<!-- Node10 -->
<g id="Node000010" class="node">
<title>Node10</title>
<g id="a_Node000010"><a xlink:href="ICollider_8h.html" target="_top" xlink:title=" ">
<polygon fill="white" stroke="#666666" points="499,-74 434,-74 434,-55 499,-55 499,-74"/>
<text text-anchor="middle" x="466.5" y="-62" font-family="Helvetica,sans-Serif" font-size="10.00">ICollider.h</text>
</a>
</g>
</g>
<!-- Node9&#45;&gt;Node10 -->
<g id="edge12_Node000009_Node000010" class="edge">
<title>Node9&#45;&gt;Node10</title>
<g id="a_edge12_Node000009_Node000010"><a xlink:title=" ">
<path fill="none" stroke="#63b8ff" d="M480.99,-115.37C478.61,-107.16 474.94,-94.54 471.89,-84.05"/>
<polygon fill="#63b8ff" stroke="#63b8ff" points="475.17,-82.79 469.02,-74.17 468.45,-84.75 475.17,-82.79"/>
</a>
</g>
</g>
<!-- Node10&#45;&gt;Node5 -->
<g id="edge13_Node000010_Node000005" class="edge">
<title>Node10&#45;&gt;Node5</title>
<g id="a_edge13_Node000010_Node000005"><a xlink:title=" ">
<path fill="none" stroke="#63b8ff" d="M448.51,-54.98C430.57,-46.5 402.78,-33.35 382.07,-23.54"/>
<polygon fill="#63b8ff" stroke="#63b8ff" points="383.36,-20.28 372.82,-19.17 380.36,-26.61 383.36,-20.28"/>
</a>
</g>
</g>
</g>
</svg>
