<?xml version="1.0" encoding="UTF-8" standalone="no"?>
<!DOCTYPE svg PUBLIC "-//W3C//DTD SVG 1.1//EN"
 "http://www.w3.org/Graphics/SVG/1.1/DTD/svg11.dtd">
<!-- Generated by graphviz version 2.43.0 (0)
 -->
<!-- Title: src/graphics/core/IDrawable.h Pages: 1 -->
<!--zoomable 467 -->

<svg id="main" version="1.1" xmlns="http://www.w3.org/2000/svg" xmlns:xlink="http://www.w3.org/1999/xlink" xml:space="preserve" onload="init(evt)">
<style type="text/css"><![CDATA[
.node, .edge {opacity: 0.7;}
.node.selected, .edge.selected {opacity: 1;}
.edge:hover path { stroke: red; }
.edge:hover polygon { stroke: red; fill: red; }
]]></style>

<defs>
  <circle id="rim" cx="0" cy="0" r="7"/>
  <circle id="rim2" cx="0" cy="0" r="3.5"/>
  <g id="zoomPlus">
    <use xlink:href="#rim" fill="#404040"><set attributeName="fill" to="#808080" begin="zoomplus.mouseover" end="zoomplus.mouseout"/></use>
    <path d="M-4,0h8M0,-4v8" fill="none" stroke="white" stroke-width="1.5" pointer-events="none"/>
  </g>
  <g id="zoomMin">
    <use xlink:href="#rim" fill="#404040"><set attributeName="fill" to="#808080" begin="zoomminus.mouseover" end="zoomminus.mouseout"/></use>
    <path d="M-4,0h8" fill="none" stroke="white" stroke-width="1.5" pointer-events="none"/>
  </g>
  <g id="arrowUp" transform="translate(30 24)">
    <use xlink:href="#rim"/>
    <path pointer-events="none" fill="none" stroke="white" stroke-width="1.5" d="M0,-3.0v7 M-2.5,-0.5L0,-3.0L2.5,-0.5"/>
  </g>
  <g id="arrowRight" transform="rotate(90) translate(36 -43)">
    <use xlink:href="#rim"/>
    <path pointer-events="none" fill="none" stroke="white" stroke-width="1.5" d="M0,-3.0v7 M-2.5,-0.5L0,-3.0L2.5,-0.5"/>
  </g>
  <g id="arrowDown" transform="rotate(180) translate(-30 -48)">
    <use xlink:href="#rim"/>
    <path pointer-events="none" fill="none" stroke="white" stroke-width="1.5" d="M0,-3.0v7 M-2.5,-0.5L0,-3.0L2.5,-0.5"/>
  </g>
  <g id="arrowLeft" transform="rotate(270) translate(-36 17)">
    <use xlink:href="#rim"/>
    <path pointer-events="none" fill="none" stroke="white" stroke-width="1.5" d="M0,-3.0v7 M-2.5,-0.5L0,-3.0L2.5,-0.5"/>
  </g>
  <g id="resetDef">
    <use xlink:href="#rim2" fill="#404040"><set attributeName="fill" to="#808080" begin="reset.mouseover" end="reset.mouseout"/></use>
  </g>
</defs>
<script type="application/ecmascript">
var viewWidth = 3226;
var viewHeight = 467;
var sectionId = 'dynsection-1';
</script>
<script type="application/ecmascript" xlink:href="svg.min.js"/>
<svg id="graph" class="graph">
<g id="viewport">
<title>src/graphics/core/IDrawable.h</title>
<!-- Node1 -->
<g id="Node000001" class="node">
<title>Node1</title>
<g id="a_Node000001"><a xlink:title="Core interfaces for the rendering system supporting both instanced and custom drawing.">
<polygon fill="#999999" stroke="#666666" points="1689.5,-459 1528.5,-459 1528.5,-440 1689.5,-440 1689.5,-459"/>
<text text-anchor="middle" x="1609" y="-447" font-family="Helvetica,sans-Serif" font-size="10.00">src/graphics/core/IDrawable.h</text>
</a>
</g>
</g>
<!-- Node2 -->
<g id="Node000002" class="node">
<title>Node2</title>
<g id="a_Node000002"><a xlink:href="IHandle_8h.html" target="_top" xlink:title="Interface for interactive manipulation handles on gizmos.">
<polygon fill="white" stroke="#666666" points="682,-404 544,-404 544,-374 682,-374 682,-404"/>
<text text-anchor="start" x="552" y="-392" font-family="Helvetica,sans-Serif" font-size="10.00">src/graphics/components</text>
<text text-anchor="middle" x="613" y="-381" font-family="Helvetica,sans-Serif" font-size="10.00">/IHandle.h</text>
</a>
</g>
</g>
<!-- Node1&#45;&gt;Node2 -->
<g id="edge1_Node000001_Node000002" class="edge">
<title>Node1&#45;&gt;Node2</title>
<g id="a_edge1_Node000001_Node000002"><a xlink:title=" ">
<path fill="none" stroke="#63b8ff" d="M1518.31,-443.17C1321.34,-431.6 858.05,-404.39 682.28,-394.07"/>
<polygon fill="#63b8ff" stroke="#63b8ff" points="1518.15,-446.67 1528.34,-443.76 1518.56,-439.68 1518.15,-446.67"/>
</a>
</g>
</g>
<!-- Node10 -->
<g id="Node000010" class="node">
<title>Node10</title>
<g id="a_Node000010"><a xlink:href="SceneObject_8h.html" target="_top" xlink:title=" ">
<polygon fill="white" stroke="#666666" points="1814,-156.5 1642,-156.5 1642,-137.5 1814,-137.5 1814,-156.5"/>
<text text-anchor="middle" x="1728" y="-144.5" font-family="Helvetica,sans-Serif" font-size="10.00">src/graphics/core/SceneObject.h</text>
</a>
</g>
</g>
<!-- Node1&#45;&gt;Node10 -->
<g id="edge59_Node000001_Node000010" class="edge">
<title>Node1&#45;&gt;Node10</title>
<g id="a_edge59_Node000001_Node000010"><a xlink:title=" ">
<path fill="none" stroke="#63b8ff" d="M1609,-429.74C1609,-405.37 1609,-361.51 1609,-324 1609,-324 1609,-324 1609,-261.5 1609,-232.04 1609.05,-220.55 1628,-198 1645.61,-177.05 1674.16,-164.01 1696.25,-156.52"/>
<polygon fill="#63b8ff" stroke="#63b8ff" points="1605.5,-429.75 1609,-439.75 1612.5,-429.75 1605.5,-429.75"/>
</a>
</g>
</g>
<!-- Node18 -->
<g id="Node000018" class="node">
<title>Node18</title>
<g id="a_Node000018"><a xlink:href="Forces_8h.html" target="_top" xlink:title=" ">
<polygon fill="white" stroke="#666666" points="3152,-96 3044,-96 3044,-66 3152,-66 3152,-96"/>
<text text-anchor="start" x="3052" y="-84" font-family="Helvetica,sans-Serif" font-size="10.00">src/graphics/debug</text>
<text text-anchor="middle" x="3098" y="-73" font-family="Helvetica,sans-Serif" font-size="10.00">/Forces.h</text>
</a>
</g>
</g>
<!-- Node1&#45;&gt;Node18 -->
<g id="edge63_Node000001_Node000018" class="edge">
<title>Node1&#45;&gt;Node18</title>
<g id="a_edge63_Node000001_Node000018"><a xlink:title=" ">
<path fill="none" stroke="#63b8ff" d="M1699.92,-449.32C1896.26,-450.14 2374.34,-447.06 2772,-404 2972.22,-382.32 3218,-525.39 3218,-324 3218,-324 3218,-324 3218,-206.5 3218,-154.26 3162.56,-115.52 3127.05,-96.06"/>
<polygon fill="#63b8ff" stroke="#63b8ff" points="1699.67,-445.81 1689.65,-449.27 1699.63,-452.81 1699.67,-445.81"/>
</a>
</g>
</g>
<!-- Node20 -->
<g id="Node000020" class="node">
<title>Node20</title>
<g id="a_Node000020"><a xlink:href="PathTraces_8h.html" target="_top" xlink:title=" ">
<polygon fill="white" stroke="#666666" points="1377,-96 1269,-96 1269,-66 1377,-66 1377,-96"/>
<text text-anchor="start" x="1277" y="-84" font-family="Helvetica,sans-Serif" font-size="10.00">src/graphics/debug</text>
<text text-anchor="middle" x="1323" y="-73" font-family="Helvetica,sans-Serif" font-size="10.00">/PathTraces.h</text>
</a>
</g>
</g>
<!-- Node1&#45;&gt;Node20 -->
<g id="edge64_Node000001_Node000020" class="edge">
<title>Node1&#45;&gt;Node20</title>
<g id="a_edge64_Node000001_Node000020"><a xlink:title=" ">
<path fill="none" stroke="#63b8ff" d="M1518.04,-439.04C1398.35,-424.01 1203,-389.46 1203,-324 1203,-324 1203,-324 1203,-206.5 1203,-154.26 1258.44,-115.52 1293.95,-96.06"/>
<polygon fill="#63b8ff" stroke="#63b8ff" points="1517.95,-442.55 1528.3,-440.3 1518.8,-435.6 1517.95,-442.55"/>
</a>
</g>
</g>
<!-- Node36 -->
<g id="Node000036" class="node">
<title>Node36</title>
<g id="a_Node000036"><a xlink:href="Colliders_8h.html" target="_top" xlink:title=" ">
<polygon fill="white" stroke="#666666" points="2995,-162 2887,-162 2887,-132 2995,-132 2995,-162"/>
<text text-anchor="start" x="2895" y="-150" font-family="Helvetica,sans-Serif" font-size="10.00">src/graphics/debug</text>
<text text-anchor="middle" x="2941" y="-139" font-family="Helvetica,sans-Serif" font-size="10.00">/Colliders.h</text>
</a>
</g>
</g>
<!-- Node1&#45;&gt;Node36 -->
<g id="edge60_Node000001_Node000036" class="edge">
<title>Node1&#45;&gt;Node36</title>
<g id="a_edge60_Node000001_Node000036"><a xlink:title=" ">
<path fill="none" stroke="#63b8ff" d="M1699.91,-449.16C1991.59,-450.09 2885,-443.2 2885,-324 2885,-324 2885,-324 2885,-261.5 2885,-222.39 2912.07,-182.79 2928.57,-162.3"/>
<polygon fill="#63b8ff" stroke="#63b8ff" points="1699.8,-445.66 1689.79,-449.12 1699.77,-452.66 1699.8,-445.66"/>
</a>
</g>
</g>
<!-- Node3 -->
<g id="Node000003" class="node">
<title>Node3</title>
<g id="a_Node000003"><a xlink:href="Gizmo_8h.html" target="_top" xlink:title="Interactive 3D manipulation gizmo for scene objects.">
<polygon fill="white" stroke="#666666" points="1786,-338 1648,-338 1648,-308 1786,-308 1786,-338"/>
<text text-anchor="start" x="1656" y="-326" font-family="Helvetica,sans-Serif" font-size="10.00">src/graphics/components</text>
<text text-anchor="middle" x="1717" y="-315" font-family="Helvetica,sans-Serif" font-size="10.00">/Gizmo.h</text>
</a>
</g>
</g>
<!-- Node2&#45;&gt;Node3 -->
<g id="edge2_Node000002_Node000003" class="edge">
<title>Node2&#45;&gt;Node3</title>
<g id="a_edge2_Node000002_Node000003"><a xlink:title=" ">
<path fill="none" stroke="#63b8ff" d="M692.24,-383.41C899.13,-371.41 1453.03,-339.3 1647.97,-328"/>
<polygon fill="#63b8ff" stroke="#63b8ff" points="691.84,-379.92 682.06,-384 692.25,-386.91 691.84,-379.92"/>
</a>
</g>
</g>
<!-- Node12 -->
<g id="Node000012" class="node">
<title>Node12</title>
<g id="a_Node000012"><a xlink:href="ScaleHandle_8h.html" target="_top" xlink:title=" ">
<polygon fill="white" stroke="#666666" points="682,-96 544,-96 544,-66 682,-66 682,-96"/>
<text text-anchor="start" x="552" y="-84" font-family="Helvetica,sans-Serif" font-size="10.00">src/graphics/components</text>
<text text-anchor="middle" x="613" y="-73" font-family="Helvetica,sans-Serif" font-size="10.00">/ScaleHandle.h</text>
</a>
</g>
</g>
<!-- Node2&#45;&gt;Node12 -->
<g id="edge55_Node000002_Node000012" class="edge">
<title>Node2&#45;&gt;Node12</title>
<g id="a_edge55_Node000002_Node000012"><a xlink:title=" ">
<path fill="none" stroke="#63b8ff" d="M613,-363.74C613,-338.65 613,-298.33 613,-263.5 613,-263.5 613,-263.5 613,-206.5 613,-166.51 613,-119.3 613,-96.19"/>
<polygon fill="#63b8ff" stroke="#63b8ff" points="609.5,-363.81 613,-373.81 616.5,-363.81 609.5,-363.81"/>
</a>
</g>
</g>
<!-- Node34 -->
<g id="Node000034" class="node">
<title>Node34</title>
<g id="a_Node000034"><a xlink:href="RotateHandle_8h.html" target="_top" xlink:title=" ">
<polygon fill="white" stroke="#666666" points="138,-162 0,-162 0,-132 138,-132 138,-162"/>
<text text-anchor="start" x="8" y="-150" font-family="Helvetica,sans-Serif" font-size="10.00">src/graphics/components</text>
<text text-anchor="middle" x="69" y="-139" font-family="Helvetica,sans-Serif" font-size="10.00">/RotateHandle.h</text>
</a>
</g>
</g>
<!-- Node2&#45;&gt;Node34 -->
<g id="edge52_Node000002_Node000034" class="edge">
<title>Node2&#45;&gt;Node34</title>
<g id="a_edge52_Node000002_Node000034"><a xlink:title=" ">
<path fill="none" stroke="#63b8ff" d="M570.81,-369.94C548.79,-360.49 521.41,-348.68 497,-338 348.22,-272.91 171.04,-193.72 100.36,-162.06"/>
<polygon fill="#63b8ff" stroke="#63b8ff" points="569.64,-373.25 580.21,-373.98 572.4,-366.82 569.64,-373.25"/>
</a>
</g>
</g>
<!-- Node35 -->
<g id="Node000035" class="node">
<title>Node35</title>
<g id="a_Node000035"><a xlink:href="TranslateHandle_8h.html" target="_top" xlink:title=" ">
<polygon fill="white" stroke="#666666" points="332,-162 194,-162 194,-132 332,-132 332,-162"/>
<text text-anchor="start" x="202" y="-150" font-family="Helvetica,sans-Serif" font-size="10.00">src/graphics/components</text>
<text text-anchor="middle" x="263" y="-139" font-family="Helvetica,sans-Serif" font-size="10.00">/TranslateHandle.h</text>
</a>
</g>
</g>
<!-- Node2&#45;&gt;Node35 -->
<g id="edge56_Node000002_Node000035" class="edge">
<title>Node2&#45;&gt;Node35</title>
<g id="a_edge56_Node000002_Node000035"><a xlink:title=" ">
<path fill="none" stroke="#63b8ff" d="M583.76,-367.95C514.81,-320.67 343.35,-203.09 283.78,-162.25"/>
<polygon fill="#63b8ff" stroke="#63b8ff" points="582.19,-371.11 592.41,-373.88 586.14,-365.34 582.19,-371.11"/>
</a>
</g>
</g>
<!-- Node4 -->
<g id="Node000004" class="node">
<title>Node4</title>
<g id="a_Node000004"><a xlink:href="Gizmo_8cpp.html" target="_top" xlink:title=" ">
<polygon fill="white" stroke="#666666" points="332,-30 194,-30 194,0 332,0 332,-30"/>
<text text-anchor="start" x="202" y="-18" font-family="Helvetica,sans-Serif" font-size="10.00">src/graphics/components</text>
<text text-anchor="middle" x="263" y="-7" font-family="Helvetica,sans-Serif" font-size="10.00">/Gizmo.cpp</text>
</a>
</g>
</g>
<!-- Node3&#45;&gt;Node4 -->
<g id="edge3_Node000003_Node000004" class="edge">
<title>Node3&#45;&gt;Node4</title>
<g id="a_edge3_Node000003_Node000004"><a xlink:title=" ">
<path fill="none" stroke="#63b8ff" d="M1637.41,-319.4C1337.78,-308.83 289.45,-264.74 185,-162 154.48,-131.98 155.65,-103.11 177,-66 186.47,-49.53 203.68,-37.99 220.23,-30.17"/>
<polygon fill="#63b8ff" stroke="#63b8ff" points="1637.63,-322.91 1647.75,-319.76 1637.88,-315.91 1637.63,-322.91"/>
</a>
</g>
</g>
<!-- Node5 -->
<g id="Node000005" class="node">
<title>Node5</title>
<g id="a_Node000005"><a xlink:href="Scene_8h.html" target="_top" xlink:title=" ">
<polygon fill="white" stroke="#666666" points="1798,-272 1658,-272 1658,-253 1798,-253 1798,-272"/>
<text text-anchor="middle" x="1728" y="-260" font-family="Helvetica,sans-Serif" font-size="10.00">src/graphics/core/Scene.h</text>
</a>
</g>
</g>
<!-- Node3&#45;&gt;Node5 -->
<g id="edge4_Node000003_Node000005" class="edge">
<title>Node3&#45;&gt;Node5</title>
<g id="a_edge4_Node000003_Node000005"><a xlink:title=" ">
<path fill="none" stroke="#63b8ff" d="M1721.56,-297.75C1723.26,-288.72 1725.08,-279.03 1726.35,-272.27"/>
<polygon fill="#63b8ff" stroke="#63b8ff" points="1718.07,-297.36 1719.66,-307.84 1724.95,-298.66 1718.07,-297.36"/>
</a>
</g>
</g>
<!-- Node33 -->
<g id="Node000033" class="node">
<title>Node33</title>
<g id="a_Node000033"><a xlink:href="OpenGLWindow_8cpp.html" target="_top" xlink:title=" ">
<polygon fill="white" stroke="#666666" points="2869,-156.5 2727,-156.5 2727,-137.5 2869,-137.5 2869,-156.5"/>
<text text-anchor="middle" x="2798" y="-144.5" font-family="Helvetica,sans-Serif" font-size="10.00">src/ui/OpenGLWindow.cpp</text>
</a>
</g>
</g>
<!-- Node3&#45;&gt;Node33 -->
<g id="edge51_Node000003_Node000033" class="edge">
<title>Node3&#45;&gt;Node33</title>
<g id="a_edge51_Node000003_Node000033"><a xlink:title=" ">
<path fill="none" stroke="#63b8ff" d="M1796.41,-321.71C2007.96,-319.7 2580.08,-305.98 2743,-217 2768.54,-203.05 2786.47,-171.8 2794.01,-156.61"/>
<polygon fill="#63b8ff" stroke="#63b8ff" points="1796.28,-318.21 1786.31,-321.8 1796.34,-325.21 1796.28,-318.21"/>
</a>
</g>
</g>
<!-- Node6 -->
<g id="Node000006" class="node">
<title>Node6</title>
<g id="a_Node000006"><a xlink:href="Scene_8cpp.html" target="_top" xlink:title=" ">
<polygon fill="white" stroke="#666666" points="2824,-90.5 2672,-90.5 2672,-71.5 2824,-71.5 2824,-90.5"/>
<text text-anchor="middle" x="2748" y="-78.5" font-family="Helvetica,sans-Serif" font-size="10.00">src/graphics/core/Scene.cpp</text>
</a>
</g>
</g>
<!-- Node5&#45;&gt;Node6 -->
<g id="edge5_Node000005_Node000006" class="edge">
<title>Node5&#45;&gt;Node6</title>
<g id="a_edge5_Node000005_Node000006"><a xlink:title=" ">
<path fill="none" stroke="#63b8ff" d="M1808.3,-258.28C2002.36,-249.62 2491.91,-222.29 2643,-162 2684.51,-145.44 2723.7,-107.69 2740.03,-90.64"/>
<polygon fill="#63b8ff" stroke="#63b8ff" points="1808.01,-254.79 1798.18,-258.73 1808.32,-261.78 1808.01,-254.79"/>
</a>
</g>
</g>
<!-- Node7 -->
<g id="Node000007" class="node">
<title>Node7</title>
<g id="a_Node000007"><a xlink:href="SceneManager_8h.html" target="_top" xlink:title=" ">
<polygon fill="white" stroke="#666666" points="1819,-217 1637,-217 1637,-198 1819,-198 1819,-217"/>
<text text-anchor="middle" x="1728" y="-205" font-family="Helvetica,sans-Serif" font-size="10.00">src/graphics/core/SceneManager.h</text>
</a>
</g>
</g>
<!-- Node5&#45;&gt;Node7 -->
<g id="edge6_Node000005_Node000007" class="edge">
<title>Node5&#45;&gt;Node7</title>
<g id="a_edge6_Node000005_Node000007"><a xlink:title=" ">
<path fill="none" stroke="#63b8ff" d="M1728,-242.66C1728,-233.93 1728,-223.99 1728,-217.09"/>
<polygon fill="#63b8ff" stroke="#63b8ff" points="1724.5,-242.75 1728,-252.75 1731.5,-242.75 1724.5,-242.75"/>
</a>
</g>
</g>
<!-- Node9 -->
<g id="Node000009" class="node">
<title>Node9</title>
<g id="a_Node000009"><a xlink:href="SceneObject_8cpp.html" target="_top" xlink:title=" ">
<polygon fill="white" stroke="#666666" points="883.5,-90.5 700.5,-90.5 700.5,-71.5 883.5,-71.5 883.5,-90.5"/>
<text text-anchor="middle" x="792" y="-78.5" font-family="Helvetica,sans-Serif" font-size="10.00">src/graphics/core/SceneObject.cpp</text>
</a>
</g>
</g>
<!-- Node5&#45;&gt;Node9 -->
<g id="edge49_Node000005_Node000009" class="edge">
<title>Node5&#45;&gt;Node9</title>
<g id="a_edge49_Node000005_Node000009"><a xlink:title=" ">
<path fill="none" stroke="#63b8ff" d="M1647.75,-256.31C1513.15,-246.31 1234.09,-220.01 1005,-162 930.9,-143.24 847.13,-107.13 810.64,-90.62"/>
<polygon fill="#63b8ff" stroke="#63b8ff" points="1647.75,-259.82 1657.98,-257.06 1648.26,-252.84 1647.75,-259.82"/>
</a>
</g>
</g>
<!-- Node5&#45;&gt;Node33 -->
<g id="edge50_Node000005_Node000033" class="edge">
<title>Node5&#45;&gt;Node33</title>
<g id="a_edge50_Node000005_Node000033"><a xlink:title=" ">
<path fill="none" stroke="#63b8ff" d="M1808.33,-260.75C2028.3,-258.3 2629.58,-248.74 2713,-217 2746.75,-204.16 2777.23,-172.37 2790.69,-156.83"/>
<polygon fill="#63b8ff" stroke="#63b8ff" points="1808.11,-257.25 1798.15,-260.86 1808.19,-264.25 1808.11,-257.25"/>
</a>
</g>
</g>
<!-- Node7&#45;&gt;Node4 -->
<g id="edge7_Node000007_Node000004" class="edge">
<title>Node7&#45;&gt;Node4</title>
<g id="a_edge7_Node000007_Node000004"><a xlink:title=" ">
<path fill="none" stroke="#63b8ff" d="M1626.21,-206.02C1352.29,-203.49 604.99,-188.1 379,-96 359.07,-87.88 358.52,-78.49 341,-66 323.05,-53.21 301.98,-39.79 286.26,-30.08"/>
<polygon fill="#63b8ff" stroke="#63b8ff" points="1626.51,-209.52 1636.54,-206.11 1626.57,-202.52 1626.51,-209.52"/>
</a>
</g>
</g>
<!-- Node8 -->
<g id="Node000008" class="node">
<title>Node8</title>
<g id="a_Node000008"><a xlink:href="SceneManager_8cpp.html" target="_top" xlink:title=" ">
<polygon fill="white" stroke="#666666" points="2737,-24.5 2543,-24.5 2543,-5.5 2737,-5.5 2737,-24.5"/>
<text text-anchor="middle" x="2640" y="-12.5" font-family="Helvetica,sans-Serif" font-size="10.00">src/graphics/core/SceneManager.cpp</text>
</a>
</g>
</g>
<!-- Node7&#45;&gt;Node8 -->
<g id="edge8_Node000007_Node000008" class="edge">
<title>Node7&#45;&gt;Node8</title>
<g id="a_edge8_Node000007_Node000008"><a xlink:title=" ">
<path fill="none" stroke="#63b8ff" d="M1829.03,-204.27C1965.01,-198.15 2212.23,-175.85 2406,-96 2427.21,-87.26 2427.22,-75.72 2448,-66 2492.46,-45.2 2546.92,-32.07 2586.46,-24.51"/>
<polygon fill="#63b8ff" stroke="#63b8ff" points="1828.87,-200.78 1819.03,-204.7 1829.17,-207.77 1828.87,-200.78"/>
</a>
</g>
</g>
<!-- Node7&#45;&gt;Node9 -->
<g id="edge9_Node000007_Node000009" class="edge">
<title>Node7&#45;&gt;Node9</title>
<g id="a_edge9_Node000007_Node000009"><a xlink:title=" ">
<path fill="none" stroke="#63b8ff" d="M1626.84,-206.51C1464.1,-205.41 1151.89,-198.43 1048,-162 1026.01,-154.29 1026.28,-141.5 1005,-132 957.31,-110.71 899.4,-97.87 856.01,-90.54"/>
<polygon fill="#63b8ff" stroke="#63b8ff" points="1626.84,-210.01 1636.86,-206.57 1626.88,-203.01 1626.84,-210.01"/>
</a>
</g>
</g>
<!-- Node7&#45;&gt;Node10 -->
<g id="edge10_Node000007_Node000010" class="edge">
<title>Node7&#45;&gt;Node10</title>
<g id="a_edge10_Node000007_Node000010"><a xlink:title=" ">
<path fill="none" stroke="#63b8ff" d="M1728,-187.66C1728,-177.24 1728,-164.8 1728,-156.67"/>
<polygon fill="#63b8ff" stroke="#63b8ff" points="1724.5,-187.87 1728,-197.87 1731.5,-187.87 1724.5,-187.87"/>
</a>
</g>
</g>
<!-- Node17 -->
<g id="Node000017" class="node">
<title>Node17</title>
<g id="a_Node000017"><a xlink:href="Colliders_8cpp.html" target="_top" xlink:title=" ">
<polygon fill="white" stroke="#666666" points="2988,-96 2880,-96 2880,-66 2988,-66 2988,-96"/>
<text text-anchor="start" x="2888" y="-84" font-family="Helvetica,sans-Serif" font-size="10.00">src/graphics/debug</text>
<text text-anchor="middle" x="2934" y="-73" font-family="Helvetica,sans-Serif" font-size="10.00">/Colliders.cpp</text>
</a>
</g>
</g>
<!-- Node7&#45;&gt;Node17 -->
<g id="edge40_Node000007_Node000017" class="edge">
<title>Node7&#45;&gt;Node17</title>
<g id="a_edge40_Node000007_Node000017"><a xlink:title=" ">
<path fill="none" stroke="#63b8ff" d="M1829.16,-205.79C2033.81,-203.67 2490.47,-195.24 2643,-162 2678.08,-154.36 2683.74,-142.75 2718,-132 2772.17,-115.01 2835.63,-101 2879.68,-92.17"/>
<polygon fill="#63b8ff" stroke="#63b8ff" points="1828.97,-202.29 1819.01,-205.89 1829.04,-209.29 1828.97,-202.29"/>
</a>
</g>
</g>
<!-- Node19 -->
<g id="Node000019" class="node">
<title>Node19</title>
<g id="a_Node000019"><a xlink:href="Forces_8cpp.html" target="_top" xlink:title=" ">
<polygon fill="white" stroke="#666666" points="3193,-30 3085,-30 3085,0 3193,0 3193,-30"/>
<text text-anchor="start" x="3093" y="-18" font-family="Helvetica,sans-Serif" font-size="10.00">src/graphics/debug</text>
<text text-anchor="middle" x="3139" y="-7" font-family="Helvetica,sans-Serif" font-size="10.00">/Forces.cpp</text>
</a>
</g>
</g>
<!-- Node7&#45;&gt;Node19 -->
<g id="edge41_Node000007_Node000019" class="edge">
<title>Node7&#45;&gt;Node19</title>
<g id="a_edge41_Node000007_Node000019"><a xlink:title=" ">
<path fill="none" stroke="#63b8ff" d="M1829.63,-205.07C2111.68,-200.8 2890.86,-186.87 3004,-162 3077.93,-145.75 3119.11,-159.05 3161,-96 3174.55,-75.6 3160.4,-47.02 3149.37,-30.11"/>
<polygon fill="#63b8ff" stroke="#63b8ff" points="1829.35,-201.57 1819.4,-205.22 1829.45,-208.57 1829.35,-201.57"/>
</a>
</g>
</g>
<!-- Node21 -->
<g id="Node000021" class="node">
<title>Node21</title>
<g id="a_Node000021"><a xlink:href="PathTraces_8cpp.html" target="_top" xlink:title=" ">
<polygon fill="white" stroke="#666666" points="1371,-30 1263,-30 1263,0 1371,0 1371,-30"/>
<text text-anchor="start" x="1271" y="-18" font-family="Helvetica,sans-Serif" font-size="10.00">src/graphics/debug</text>
<text text-anchor="middle" x="1317" y="-7" font-family="Helvetica,sans-Serif" font-size="10.00">/PathTraces.cpp</text>
</a>
</g>
</g>
<!-- Node7&#45;&gt;Node21 -->
<g id="edge42_Node000007_Node000021" class="edge">
<title>Node7&#45;&gt;Node21</title>
<g id="a_edge42_Node000007_Node000021"><a xlink:title=" ">
<path fill="none" stroke="#63b8ff" d="M1626.73,-197.07C1503.09,-183.23 1304.85,-152.67 1260,-96 1242.33,-73.67 1271.97,-46.43 1294.71,-30.19"/>
<polygon fill="#63b8ff" stroke="#63b8ff" points="1626.65,-200.59 1636.98,-198.2 1627.42,-193.63 1626.65,-200.59"/>
</a>
</g>
</g>
<!-- Node26 -->
<g id="Node000026" class="node">
<title>Node26</title>
<g id="a_Node000026"><a xlink:href="GlobalsInspectorWidget_8cpp.html" target="_top" xlink:title=" ">
<polygon fill="white" stroke="#666666" points="1526.5,-96 1395.5,-96 1395.5,-66 1526.5,-66 1526.5,-96"/>
<text text-anchor="start" x="1403.5" y="-84" font-family="Helvetica,sans-Serif" font-size="10.00">src/ui/inspector/Globals</text>
<text text-anchor="middle" x="1461" y="-73" font-family="Helvetica,sans-Serif" font-size="10.00">InspectorWidget.cpp</text>
</a>
</g>
</g>
<!-- Node7&#45;&gt;Node26 -->
<g id="edge47_Node000007_Node000026" class="edge">
<title>Node7&#45;&gt;Node26</title>
<g id="a_edge47_Node000007_Node000026"><a xlink:title=" ">
<path fill="none" stroke="#63b8ff" d="M1694.81,-194.47C1672.09,-185.98 1641.41,-174.02 1615,-162 1568.66,-140.91 1516.39,-112.8 1486.21,-96.13"/>
<polygon fill="#63b8ff" stroke="#63b8ff" points="1693.74,-197.8 1704.33,-198 1696.17,-191.24 1693.74,-197.8"/>
</a>
</g>
</g>
<!-- Node27 -->
<g id="Node000027" class="node">
<title>Node27</title>
<g id="a_Node000027"><a xlink:href="InspectorWidget_8cpp.html" target="_top" xlink:title=" ">
<polygon fill="white" stroke="#666666" points="1683.5,-96 1544.5,-96 1544.5,-66 1683.5,-66 1683.5,-96"/>
<text text-anchor="start" x="1552.5" y="-84" font-family="Helvetica,sans-Serif" font-size="10.00">src/ui/inspector/Inspector</text>
<text text-anchor="middle" x="1614" y="-73" font-family="Helvetica,sans-Serif" font-size="10.00">Widget.cpp</text>
</a>
</g>
</g>
<!-- Node7&#45;&gt;Node27 -->
<g id="edge48_Node000007_Node000027" class="edge">
<title>Node7&#45;&gt;Node27</title>
<g id="a_edge48_Node000007_Node000027"><a xlink:title=" ">
<path fill="none" stroke="#63b8ff" d="M1682.32,-194.54C1664.56,-187.72 1645.51,-177.38 1633,-162 1617.5,-142.95 1614.25,-113.39 1613.79,-96.04"/>
<polygon fill="#63b8ff" stroke="#63b8ff" points="1681.41,-197.93 1692,-197.97 1683.75,-191.33 1681.41,-197.93"/>
</a>
</g>
</g>
<!-- Node30 -->
<g id="Node000030" class="node">
<title>Node30</title>
<g id="a_Node000030"><a xlink:href="SceneSerializer_8h.html" target="_top" xlink:title=" ">
<polygon fill="white" stroke="#666666" points="2633.5,-156.5 2448.5,-156.5 2448.5,-137.5 2633.5,-137.5 2633.5,-156.5"/>
<text text-anchor="middle" x="2541" y="-144.5" font-family="Helvetica,sans-Serif" font-size="10.00">src/graphics/core/SceneSerializer.h</text>
</a>
</g>
</g>
<!-- Node7&#45;&gt;Node30 -->
<g id="edge37_Node000007_Node000030" class="edge">
<title>Node7&#45;&gt;Node30</title>
<g id="a_edge37_Node000007_Node000030"><a xlink:title=" ">
<path fill="none" stroke="#63b8ff" d="M1829.21,-202.31C1966.62,-196.12 2219.75,-182.96 2435,-162 2450.24,-160.52 2466.67,-158.53 2481.93,-156.53"/>
<polygon fill="#63b8ff" stroke="#63b8ff" points="1828.95,-198.82 1819.12,-202.76 1829.26,-205.81 1828.95,-198.82"/>
</a>
</g>
</g>
<!-- Node31 -->
<g id="Node000031" class="node">
<title>Node31</title>
<g id="a_Node000031"><a xlink:href="MainWindow_8h.html" target="_top" xlink:title=" ">
<polygon fill="white" stroke="#666666" points="1174.5,-156.5 1057.5,-156.5 1057.5,-137.5 1174.5,-137.5 1174.5,-156.5"/>
<text text-anchor="middle" x="1116" y="-144.5" font-family="Helvetica,sans-Serif" font-size="10.00">src/ui/MainWindow.h</text>
</a>
</g>
</g>
<!-- Node7&#45;&gt;Node31 -->
<g id="edge43_Node000007_Node000031" class="edge">
<title>Node7&#45;&gt;Node31</title>
<g id="a_edge43_Node000007_Node000031"><a xlink:title=" ">
<path fill="none" stroke="#63b8ff" d="M1626.72,-198.61C1525.44,-190.45 1365.29,-176.86 1227,-162 1210.01,-160.17 1191.58,-157.95 1174.71,-155.82"/>
<polygon fill="#63b8ff" stroke="#63b8ff" points="1626.69,-202.12 1636.94,-199.43 1627.25,-195.14 1626.69,-202.12"/>
</a>
</g>
</g>
<!-- Node7&#45;&gt;Node33 -->
<g id="edge46_Node000007_Node000033" class="edge">
<title>Node7&#45;&gt;Node33</title>
<g id="a_edge46_Node000007_Node000033"><a xlink:title=" ">
<path fill="none" stroke="#63b8ff" d="M1829.35,-203.95C2002.79,-199.08 2367.56,-186.69 2675,-162 2693,-160.55 2712.42,-158.55 2730.41,-156.51"/>
<polygon fill="#63b8ff" stroke="#63b8ff" points="1829.11,-200.45 1819.21,-204.23 1829.31,-207.45 1829.11,-200.45"/>
</a>
</g>
</g>
<!-- Node10&#45;&gt;Node4 -->
<g id="edge11_Node000010_Node000004" class="edge">
<title>Node10&#45;&gt;Node4</title>
<g id="a_edge11_Node000010_Node000004"><a xlink:title=" ">
<path fill="none" stroke="#63b8ff" d="M1631.67,-142.23C1474.75,-135.49 1170.89,-119.84 1066,-96 1030.19,-87.86 1024.84,-74.02 989,-66 926.04,-51.91 501.4,-28.48 332.29,-19.58"/>
<polygon fill="#63b8ff" stroke="#63b8ff" points="1631.65,-145.73 1641.79,-142.66 1631.95,-138.74 1631.65,-145.73"/>
</a>
</g>
</g>
<!-- Node10&#45;&gt;Node6 -->
<g id="edge18_Node000010_Node000006" class="edge">
<title>Node10&#45;&gt;Node6</title>
<g id="a_edge18_Node000010_Node000006"><a xlink:title=" ">
<path fill="none" stroke="#63b8ff" d="M1824.47,-144.33C1994.38,-140.61 2357.94,-129.18 2663,-96 2675.64,-94.63 2689.25,-92.62 2701.81,-90.55"/>
<polygon fill="#63b8ff" stroke="#63b8ff" points="1824.22,-140.84 1814.3,-144.55 1824.37,-147.83 1824.22,-140.84"/>
</a>
</g>
</g>
<!-- Node10&#45;&gt;Node8 -->
<g id="edge19_Node000010_Node000008" class="edge">
<title>Node10&#45;&gt;Node8</title>
<g id="a_edge19_Node000010_Node000008"><a xlink:title=" ">
<path fill="none" stroke="#63b8ff" d="M1824.61,-144.68C1978.79,-141.54 2273.09,-131.01 2371,-96 2392.94,-88.15 2392.66,-75.36 2414,-66 2463.31,-44.37 2522.92,-31.68 2568.54,-24.5"/>
<polygon fill="#63b8ff" stroke="#63b8ff" points="1824.14,-141.19 1814.21,-144.88 1824.27,-148.19 1824.14,-141.19"/>
</a>
</g>
</g>
<!-- Node10&#45;&gt;Node9 -->
<g id="edge20_Node000010_Node000009" class="edge">
<title>Node10&#45;&gt;Node9</title>
<g id="a_edge20_Node000010_Node000009"><a xlink:title=" ">
<path fill="none" stroke="#63b8ff" d="M1631.75,-142.73C1476.01,-136.87 1159.22,-122.65 892,-96 877.43,-94.55 861.73,-92.55 847.18,-90.52"/>
<polygon fill="#63b8ff" stroke="#63b8ff" points="1631.65,-146.23 1641.77,-143.1 1631.91,-139.23 1631.65,-146.23"/>
</a>
</g>
</g>
<!-- Node11 -->
<g id="Node000011" class="node">
<title>Node11</title>
<g id="a_Node000011"><a xlink:href="RotateHandle_8cpp.html" target="_top" xlink:title=" ">
<polygon fill="white" stroke="#666666" points="332,-96 194,-96 194,-66 332,-66 332,-96"/>
<text text-anchor="start" x="202" y="-84" font-family="Helvetica,sans-Serif" font-size="10.00">src/graphics/components</text>
<text text-anchor="middle" x="263" y="-73" font-family="Helvetica,sans-Serif" font-size="10.00">/RotateHandle.cpp</text>
</a>
</g>
</g>
<!-- Node10&#45;&gt;Node11 -->
<g id="edge12_Node000010_Node000011" class="edge">
<title>Node10&#45;&gt;Node11</title>
<g id="a_edge12_Node000010_Node000011"><a xlink:title=" ">
<path fill="none" stroke="#63b8ff" d="M1631.8,-143.48C1365.59,-136.32 622.79,-115.2 379,-96 363.83,-94.81 347.6,-93.11 332.22,-91.31"/>
<polygon fill="#63b8ff" stroke="#63b8ff" points="1631.74,-146.97 1641.83,-143.74 1631.92,-139.98 1631.74,-146.97"/>
</a>
</g>
</g>
<!-- Node10&#45;&gt;Node12 -->
<g id="edge13_Node000010_Node000012" class="edge">
<title>Node10&#45;&gt;Node12</title>
<g id="a_edge13_Node000010_Node000012"><a xlink:title=" ">
<path fill="none" stroke="#63b8ff" d="M1631.31,-142.94C1409.91,-135.67 871.38,-116.45 691,-96 688.13,-95.67 685.2,-95.31 682.25,-94.91"/>
<polygon fill="#63b8ff" stroke="#63b8ff" points="1631.5,-146.45 1641.61,-143.28 1631.73,-139.45 1631.5,-146.45"/>
</a>
</g>
</g>
<!-- Node14 -->
<g id="Node000014" class="node">
<title>Node14</title>
<g id="a_Node000014"><a xlink:href="TranslateHandle_8cpp.html" target="_top" xlink:title=" ">
<polygon fill="white" stroke="#666666" points="526,-96 388,-96 388,-66 526,-66 526,-96"/>
<text text-anchor="start" x="396" y="-84" font-family="Helvetica,sans-Serif" font-size="10.00">src/graphics/components</text>
<text text-anchor="middle" x="457" y="-73" font-family="Helvetica,sans-Serif" font-size="10.00">/TranslateHandle.cpp</text>
</a>
</g>
</g>
<!-- Node10&#45;&gt;Node14 -->
<g id="edge16_Node000010_Node000014" class="edge">
<title>Node10&#45;&gt;Node14</title>
<g id="a_edge16_Node000010_Node000014"><a xlink:title=" ">
<path fill="none" stroke="#63b8ff" d="M1631.49,-143.65C1386.81,-137.41 746.64,-119.32 535,-96 532.13,-95.68 529.2,-95.32 526.25,-94.93"/>
<polygon fill="#63b8ff" stroke="#63b8ff" points="1631.7,-147.15 1641.79,-143.91 1631.88,-140.16 1631.7,-147.15"/>
</a>
</g>
</g>
<!-- Node15 -->
<g id="Node000015" class="node">
<title>Node15</title>
<g id="a_Node000015"><a xlink:href="Camera_8cpp.html" target="_top" xlink:title=" ">
<polygon fill="white" stroke="#666666" points="1862.5,-90.5 1701.5,-90.5 1701.5,-71.5 1862.5,-71.5 1862.5,-90.5"/>
<text text-anchor="middle" x="1782" y="-78.5" font-family="Helvetica,sans-Serif" font-size="10.00">src/graphics/core/Camera.cpp</text>
</a>
</g>
</g>
<!-- Node10&#45;&gt;Node15 -->
<g id="edge17_Node000010_Node000015" class="edge">
<title>Node10&#45;&gt;Node15</title>
<g id="a_edge17_Node000010_Node000015"><a xlink:title=" ">
<path fill="none" stroke="#63b8ff" d="M1741.82,-129.62C1752.21,-117.31 1766.06,-100.89 1774.49,-90.91"/>
<polygon fill="#63b8ff" stroke="#63b8ff" points="1739.06,-127.47 1735.28,-137.37 1744.41,-131.98 1739.06,-127.47"/>
</a>
</g>
</g>
<!-- Node16 -->
<g id="Node000016" class="node">
<title>Node16</title>
<g id="a_Node000016"><a xlink:href="SceneSerializer_8cpp.html" target="_top" xlink:title=" ">
<polygon fill="white" stroke="#666666" points="2653.5,-90.5 2456.5,-90.5 2456.5,-71.5 2653.5,-71.5 2653.5,-90.5"/>
<text text-anchor="middle" x="2555" y="-78.5" font-family="Helvetica,sans-Serif" font-size="10.00">src/graphics/core/SceneSerializer.cpp</text>
</a>
</g>
</g>
<!-- Node10&#45;&gt;Node16 -->
<g id="edge21_Node000010_Node000016" class="edge">
<title>Node10&#45;&gt;Node16</title>
<g id="a_edge21_Node000010_Node000016"><a xlink:title=" ">
<path fill="none" stroke="#63b8ff" d="M1824.23,-139.45C1955.37,-130.39 2197.55,-113.2 2404,-96 2424.07,-94.33 2445.63,-92.4 2466,-90.53"/>
<polygon fill="#63b8ff" stroke="#63b8ff" points="1823.94,-135.96 1814.21,-140.14 1824.43,-142.94 1823.94,-135.96"/>
</a>
</g>
</g>
<!-- Node10&#45;&gt;Node17 -->
<g id="edge22_Node000010_Node000017" class="edge">
<title>Node10&#45;&gt;Node17</title>
<g id="a_edge22_Node000010_Node000017"><a xlink:title=" ">
<path fill="none" stroke="#63b8ff" d="M1824.22,-144.64C2016.35,-141.26 2461.01,-130.12 2833,-96 2848.25,-94.6 2864.72,-92.55 2879.86,-90.45"/>
<polygon fill="#63b8ff" stroke="#63b8ff" points="1824.09,-141.14 1814.15,-144.81 1824.21,-148.14 1824.09,-141.14"/>
</a>
</g>
</g>
<!-- Node10&#45;&gt;Node18 -->
<g id="edge23_Node000010_Node000018" class="edge">
<title>Node10&#45;&gt;Node18</title>
<g id="a_edge23_Node000010_Node000018"><a xlink:title=" ">
<path fill="none" stroke="#63b8ff" d="M1824.54,-145.43C2036.91,-143.47 2560.52,-134.76 2997,-96 3012.25,-94.65 3028.73,-92.61 3043.86,-90.5"/>
<polygon fill="#63b8ff" stroke="#63b8ff" points="1824.32,-141.93 1814.35,-145.52 1824.38,-148.93 1824.32,-141.93"/>
</a>
</g>
</g>
<!-- Node10&#45;&gt;Node20 -->
<g id="edge26_Node000010_Node000020" class="edge">
<title>Node10&#45;&gt;Node20</title>
<g id="a_edge26_Node000010_Node000020"><a xlink:title=" ">
<path fill="none" stroke="#63b8ff" d="M1649.3,-136.17C1579.81,-127.08 1475.86,-112.53 1386,-96 1383.13,-95.47 1380.2,-94.91 1377.24,-94.32"/>
<polygon fill="#63b8ff" stroke="#63b8ff" points="1648.93,-139.65 1659.3,-137.47 1649.83,-132.71 1648.93,-139.65"/>
</a>
</g>
</g>
<!-- Node22 -->
<g id="Node000022" class="node">
<title>Node22</title>
<g id="a_Node000022"><a xlink:href="HierarchyWidget_8h.html" target="_top" xlink:title=" ">
<polygon fill="white" stroke="#666666" points="1212.5,-90.5 1075.5,-90.5 1075.5,-71.5 1212.5,-71.5 1212.5,-90.5"/>
<text text-anchor="middle" x="1144" y="-78.5" font-family="Helvetica,sans-Serif" font-size="10.00">src/ui/HierarchyWidget.h</text>
</a>
</g>
</g>
<!-- Node10&#45;&gt;Node22 -->
<g id="edge29_Node000010_Node000022" class="edge">
<title>Node10&#45;&gt;Node22</title>
<g id="a_edge29_Node000010_Node000022"><a xlink:title=" ">
<path fill="none" stroke="#63b8ff" d="M1635.01,-136.44C1540.55,-126.65 1390.04,-110.79 1260,-96 1244.68,-94.26 1228.24,-92.32 1212.68,-90.45"/>
<polygon fill="#63b8ff" stroke="#63b8ff" points="1634.81,-139.94 1645.11,-137.49 1635.53,-132.98 1634.81,-139.94"/>
</a>
</g>
</g>
<!-- Node25 -->
<g id="Node000025" class="node">
<title>Node25</title>
<g id="a_Node000025"><a xlink:href="ForcesInspectorWidget_8cpp.html" target="_top" xlink:title=" ">
<polygon fill="white" stroke="#666666" points="2051,-96 1881,-96 1881,-66 2051,-66 2051,-96"/>
<text text-anchor="start" x="1889" y="-84" font-family="Helvetica,sans-Serif" font-size="10.00">src/ui/inspector/ForcesInspector</text>
<text text-anchor="middle" x="1966" y="-73" font-family="Helvetica,sans-Serif" font-size="10.00">Widget.cpp</text>
</a>
</g>
</g>
<!-- Node10&#45;&gt;Node25 -->
<g id="edge32_Node000010_Node000025" class="edge">
<title>Node10&#45;&gt;Node25</title>
<g id="a_edge32_Node000010_Node000025"><a xlink:title=" ">
<path fill="none" stroke="#63b8ff" d="M1769.8,-134.76C1809.81,-124 1870.28,-107.74 1913.51,-96.12"/>
<polygon fill="#63b8ff" stroke="#63b8ff" points="1768.85,-131.39 1760.1,-137.37 1770.66,-138.15 1768.85,-131.39"/>
</a>
</g>
</g>
<!-- Node10&#45;&gt;Node26 -->
<g id="edge33_Node000010_Node000026" class="edge">
<title>Node10&#45;&gt;Node26</title>
<g id="a_edge33_Node000010_Node000026"><a xlink:title=" ">
<path fill="none" stroke="#63b8ff" d="M1682.5,-135.09C1637.53,-124.31 1568.53,-107.78 1519.51,-96.02"/>
<polygon fill="#63b8ff" stroke="#63b8ff" points="1681.73,-138.51 1692.27,-137.44 1683.36,-131.7 1681.73,-138.51"/>
</a>
</g>
</g>
<!-- Node10&#45;&gt;Node27 -->
<g id="edge34_Node000010_Node000027" class="edge">
<title>Node10&#45;&gt;Node27</title>
<g id="a_edge34_Node000010_Node000027"><a xlink:title=" ">
<path fill="none" stroke="#63b8ff" d="M1703.69,-132.35C1684.69,-121.68 1658.36,-106.9 1639.14,-96.12"/>
<polygon fill="#63b8ff" stroke="#63b8ff" points="1702.19,-135.53 1712.63,-137.37 1705.62,-129.42 1702.19,-135.53"/>
</a>
</g>
</g>
<!-- Node28 -->
<g id="Node000028" class="node">
<title>Node28</title>
<g id="a_Node000028"><a xlink:href="PhysicsInspectorWidget_8cpp.html" target="_top" xlink:title=" ">
<polygon fill="white" stroke="#666666" points="2200.5,-96 2069.5,-96 2069.5,-66 2200.5,-66 2200.5,-96"/>
<text text-anchor="start" x="2077.5" y="-84" font-family="Helvetica,sans-Serif" font-size="10.00">src/ui/inspector/Physics</text>
<text text-anchor="middle" x="2135" y="-73" font-family="Helvetica,sans-Serif" font-size="10.00">InspectorWidget.cpp</text>
</a>
</g>
</g>
<!-- Node10&#45;&gt;Node28 -->
<g id="edge35_Node000010_Node000028" class="edge">
<title>Node10&#45;&gt;Node28</title>
<g id="a_edge35_Node000010_Node000028"><a xlink:title=" ">
<path fill="none" stroke="#63b8ff" d="M1799.06,-136.03C1866.36,-126.42 1970.2,-111.14 2060,-96 2063,-95.49 2066.07,-94.97 2069.17,-94.42"/>
<polygon fill="#63b8ff" stroke="#63b8ff" points="1798.39,-132.59 1788.99,-137.47 1799.38,-139.52 1798.39,-132.59"/>
</a>
</g>
</g>
<!-- Node29 -->
<g id="Node000029" class="node">
<title>Node29</title>
<g id="a_Node000029"><a xlink:href="TransformInspectorWidget_8cpp.html" target="_top" xlink:title=" ">
<polygon fill="white" stroke="#666666" points="2361.5,-96 2218.5,-96 2218.5,-66 2361.5,-66 2361.5,-96"/>
<text text-anchor="start" x="2226.5" y="-84" font-family="Helvetica,sans-Serif" font-size="10.00">src/ui/inspector/Transform</text>
<text text-anchor="middle" x="2290" y="-73" font-family="Helvetica,sans-Serif" font-size="10.00">InspectorWidget.cpp</text>
</a>
</g>
</g>
<!-- Node10&#45;&gt;Node29 -->
<g id="edge36_Node000010_Node000029" class="edge">
<title>Node10&#45;&gt;Node29</title>
<g id="a_edge36_Node000010_Node000029"><a xlink:title=" ">
<path fill="none" stroke="#63b8ff" d="M1824.55,-137.98C1922.03,-129.42 2076.81,-114.54 2210,-96 2212.65,-95.63 2215.35,-95.24 2218.08,-94.83"/>
<polygon fill="#63b8ff" stroke="#63b8ff" points="1824.08,-134.51 1814.42,-138.87 1824.69,-141.48 1824.08,-134.51"/>
</a>
</g>
</g>
<!-- Node12&#45;&gt;Node4 -->
<g id="edge14_Node000012_Node000004" class="edge">
<title>Node12&#45;&gt;Node4</title>
<g id="a_edge14_Node000012_Node000004"><a xlink:title=" ">
<path fill="none" stroke="#63b8ff" d="M533.92,-65.54C473.16,-54.43 390.09,-39.24 332.01,-28.62"/>
<polygon fill="#63b8ff" stroke="#63b8ff" points="533.38,-69 543.85,-67.36 534.64,-62.11 533.38,-69"/>
</a>
</g>
</g>
<!-- Node13 -->
<g id="Node000013" class="node">
<title>Node13</title>
<g id="a_Node000013"><a xlink:href="ScaleHandle_8cpp.html" target="_top" xlink:title=" ">
<polygon fill="white" stroke="#666666" points="682,-30 544,-30 544,0 682,0 682,-30"/>
<text text-anchor="start" x="552" y="-18" font-family="Helvetica,sans-Serif" font-size="10.00">src/graphics/components</text>
<text text-anchor="middle" x="613" y="-7" font-family="Helvetica,sans-Serif" font-size="10.00">/ScaleHandle.cpp</text>
</a>
</g>
</g>
<!-- Node12&#45;&gt;Node13 -->
<g id="edge15_Node000012_Node000013" class="edge">
<title>Node12&#45;&gt;Node13</title>
<g id="a_edge15_Node000012_Node000013"><a xlink:title=" ">
<path fill="none" stroke="#63b8ff" d="M613,-55.54C613,-46.96 613,-37.61 613,-30.16"/>
<polygon fill="#63b8ff" stroke="#63b8ff" points="609.5,-55.8 613,-65.8 616.5,-55.8 609.5,-55.8"/>
</a>
</g>
</g>
<!-- Node18&#45;&gt;Node8 -->
<g id="edge24_Node000018_Node000008" class="edge">
<title>Node18&#45;&gt;Node8</title>
<g id="a_edge24_Node000018_Node000008"><a xlink:title=" ">
<path fill="none" stroke="#63b8ff" d="M3033.85,-66.66C3032.55,-66.43 3031.27,-66.21 3030,-66 2923.45,-48.23 2799.6,-33.32 2720.55,-24.53"/>
<polygon fill="#63b8ff" stroke="#63b8ff" points="3033.41,-70.13 3043.88,-68.47 3034.66,-63.25 3033.41,-70.13"/>
</a>
</g>
</g>
<!-- Node18&#45;&gt;Node19 -->
<g id="edge25_Node000018_Node000019" class="edge">
<title>Node18&#45;&gt;Node19</title>
<g id="a_edge25_Node000018_Node000019"><a xlink:title=" ">
<path fill="none" stroke="#63b8ff" d="M3112.58,-57.24C3118.36,-48.21 3124.84,-38.11 3129.93,-30.16"/>
<polygon fill="#63b8ff" stroke="#63b8ff" points="3109.55,-55.49 3107.1,-65.8 3115.44,-59.26 3109.55,-55.49"/>
</a>
</g>
</g>
<!-- Node20&#45;&gt;Node8 -->
<g id="edge27_Node000020_Node000008" class="edge">
<title>Node20&#45;&gt;Node8</title>
<g id="a_edge27_Node000020_Node000008"><a xlink:title=" ">
<path fill="none" stroke="#63b8ff" d="M1387.31,-66.03C1628.39,-36.57 2292.63,-22.17 2542.96,-17.62"/>
<polygon fill="#63b8ff" stroke="#63b8ff" points="1386.67,-62.59 1377.19,-67.31 1387.55,-69.53 1386.67,-62.59"/>
</a>
</g>
</g>
<!-- Node20&#45;&gt;Node21 -->
<g id="edge28_Node000020_Node000021" class="edge">
<title>Node20&#45;&gt;Node21</title>
<g id="a_edge28_Node000020_Node000021"><a xlink:title=" ">
<path fill="none" stroke="#63b8ff" d="M1320.73,-55.83C1319.92,-47.17 1319.03,-37.7 1318.33,-30.16"/>
<polygon fill="#63b8ff" stroke="#63b8ff" points="1317.25,-56.17 1321.67,-65.8 1324.22,-55.51 1317.25,-56.17"/>
</a>
</g>
</g>
<!-- Node23 -->
<g id="Node000023" class="node">
<title>Node23</title>
<g id="a_Node000023"><a xlink:href="HierarchyWidget_8cpp.html" target="_top" xlink:title=" ">
<polygon fill="white" stroke="#666666" points="1239,-24.5 1091,-24.5 1091,-5.5 1239,-5.5 1239,-24.5"/>
<text text-anchor="middle" x="1165" y="-12.5" font-family="Helvetica,sans-Serif" font-size="10.00">src/ui/HierarchyWidget.cpp</text>
</a>
</g>
</g>
<!-- Node22&#45;&gt;Node23 -->
<g id="edge30_Node000022_Node000023" class="edge">
<title>Node22&#45;&gt;Node23</title>
<g id="a_edge30_Node000022_Node000023"><a xlink:title=" ">
<path fill="none" stroke="#63b8ff" d="M1149.97,-61.82C1153.93,-49.74 1158.96,-34.41 1162.08,-24.91"/>
<polygon fill="#63b8ff" stroke="#63b8ff" points="1146.62,-60.78 1146.83,-71.37 1153.28,-62.96 1146.62,-60.78"/>
</a>
</g>
</g>
<!-- Node24 -->
<g id="Node000024" class="node">
<title>Node24</title>
<g id="a_Node000024"><a xlink:href="MainWindow_8cpp.html" target="_top" xlink:title=" ">
<polygon fill="white" stroke="#666666" points="1073,-24.5 945,-24.5 945,-5.5 1073,-5.5 1073,-24.5"/>
<text text-anchor="middle" x="1009" y="-12.5" font-family="Helvetica,sans-Serif" font-size="10.00">src/ui/MainWindow.cpp</text>
</a>
</g>
</g>
<!-- Node22&#45;&gt;Node24 -->
<g id="edge31_Node000022_Node000024" class="edge">
<title>Node22&#45;&gt;Node24</title>
<g id="a_edge31_Node000022_Node000024"><a xlink:title=" ">
<path fill="none" stroke="#63b8ff" d="M1116.64,-67.03C1090.03,-54.42 1050.37,-35.61 1027.35,-24.7"/>
<polygon fill="#63b8ff" stroke="#63b8ff" points="1115.26,-70.25 1125.79,-71.37 1118.26,-63.92 1115.26,-70.25"/>
</a>
</g>
</g>
<!-- Node30&#45;&gt;Node8 -->
<g id="edge38_Node000030_Node000008" class="edge">
<title>Node30&#45;&gt;Node8</title>
<g id="a_edge38_Node000030_Node000008"><a xlink:title=" ">
<path fill="none" stroke="#63b8ff" d="M2612.72,-136.06C2696.86,-124.07 2825.88,-104.44 2833,-96 2867.9,-54.62 2796.51,-34.29 2730.9,-24.54"/>
<polygon fill="#63b8ff" stroke="#63b8ff" points="2612.1,-132.62 2602.7,-137.49 2613.09,-139.55 2612.1,-132.62"/>
</a>
</g>
</g>
<!-- Node30&#45;&gt;Node16 -->
<g id="edge39_Node000030_Node000016" class="edge">
<title>Node30&#45;&gt;Node16</title>
<g id="a_edge39_Node000030_Node000016"><a xlink:title=" ">
<path fill="none" stroke="#63b8ff" d="M2545.06,-127.45C2547.69,-115.43 2550.99,-100.32 2553.05,-90.91"/>
<polygon fill="#63b8ff" stroke="#63b8ff" points="2541.61,-126.85 2542.89,-137.37 2548.44,-128.35 2541.61,-126.85"/>
</a>
</g>
</g>
<!-- Node31&#45;&gt;Node24 -->
<g id="edge45_Node000031_Node000024" class="edge">
<title>Node31&#45;&gt;Node24</title>
<g id="a_edge45_Node000031_Node000024"><a xlink:title=" ">
<path fill="none" stroke="#63b8ff" d="M1098.94,-130.31C1088.92,-120.77 1076.26,-108.13 1066,-96 1045.29,-71.52 1024.26,-39.85 1014.55,-24.75"/>
<polygon fill="#63b8ff" stroke="#63b8ff" points="1096.62,-132.93 1106.31,-137.22 1101.41,-127.83 1096.62,-132.93"/>
</a>
</g>
</g>
<!-- Node32 -->
<g id="Node000032" class="node">
<title>Node32</title>
<g id="a_Node000032"><a xlink:href="main_8cpp.html" target="_top" xlink:title=" ">
<polygon fill="white" stroke="#666666" points="980.5,-90.5 901.5,-90.5 901.5,-71.5 980.5,-71.5 980.5,-90.5"/>
<text text-anchor="middle" x="941" y="-78.5" font-family="Helvetica,sans-Serif" font-size="10.00">src/main.cpp</text>
</a>
</g>
</g>
<!-- Node31&#45;&gt;Node32 -->
<g id="edge44_Node000031_Node000032" class="edge">
<title>Node31&#45;&gt;Node32</title>
<g id="a_edge44_Node000031_Node000032"><a xlink:title=" ">
<path fill="none" stroke="#63b8ff" d="M1082.75,-133.84C1048.17,-121.2 994.94,-101.73 964.51,-90.6"/>
<polygon fill="#63b8ff" stroke="#63b8ff" points="1081.8,-137.22 1092.4,-137.37 1084.21,-130.65 1081.8,-137.22"/>
</a>
</g>
</g>
<!-- Node34&#45;&gt;Node4 -->
<g id="edge53_Node000034_Node000004" class="edge">
<title>Node34&#45;&gt;Node4</title>
<g id="a_edge53_Node000034_Node000004"><a xlink:title=" ">
<path fill="none" stroke="#63b8ff" d="M77.06,-122.09C84.19,-104.31 96.24,-80.69 114,-66 136.71,-47.22 166.77,-35.38 193.95,-27.98"/>
<polygon fill="#63b8ff" stroke="#63b8ff" points="73.66,-121.17 73.42,-131.77 80.22,-123.63 73.66,-121.17"/>
</a>
</g>
</g>
<!-- Node34&#45;&gt;Node11 -->
<g id="edge54_Node000034_Node000011" class="edge">
<title>Node34&#45;&gt;Node11</title>
<g id="a_edge54_Node000034_Node000011"><a xlink:title=" ">
<path fill="none" stroke="#63b8ff" d="M121.37,-128.72C152.46,-118.47 191.36,-105.63 220.53,-96.01"/>
<polygon fill="#63b8ff" stroke="#63b8ff" points="119.97,-125.5 111.57,-131.95 122.17,-132.15 119.97,-125.5"/>
</a>
</g>
</g>
<!-- Node35&#45;&gt;Node4 -->
<g id="edge57_Node000035_Node000004" class="edge">
<title>Node35&#45;&gt;Node4</title>
<g id="a_edge57_Node000035_Node000004"><a xlink:title=" ">
<path fill="none" stroke="#63b8ff" d="M217.31,-127.07C204.55,-119.41 192.21,-109.19 185,-96 178.6,-84.3 178.6,-77.7 185,-66 193.87,-49.77 210.52,-38.03 226.16,-30.02"/>
<polygon fill="#63b8ff" stroke="#63b8ff" points="215.71,-130.19 226.16,-131.98 219.11,-124.07 215.71,-130.19"/>
</a>
</g>
</g>
<!-- Node35&#45;&gt;Node14 -->
<g id="edge58_Node000035_Node000014" class="edge">
<title>Node35&#45;&gt;Node14</title>
<g id="a_edge58_Node000035_Node000014"><a xlink:title=" ">
<path fill="none" stroke="#63b8ff" d="M315.37,-128.72C346.46,-118.47 385.36,-105.63 414.53,-96.01"/>
<polygon fill="#63b8ff" stroke="#63b8ff" points="313.97,-125.5 305.57,-131.95 316.17,-132.15 313.97,-125.5"/>
</a>
</g>
</g>
<!-- Node36&#45;&gt;Node8 -->
<g id="edge61_Node000036_Node000008" class="edge">
<title>Node36&#45;&gt;Node8</title>
<g id="a_edge61_Node000036_Node000008"><a xlink:title=" ">
<path fill="none" stroke="#63b8ff" d="M2971.15,-125.51C2992.09,-108.81 3013.5,-84.97 2997,-66 2963.94,-27.99 2831.26,-18.01 2737.34,-15.84"/>
<polygon fill="#63b8ff" stroke="#63b8ff" points="2968.77,-122.92 2962.93,-131.76 2973.01,-128.5 2968.77,-122.92"/>
</a>
</g>
</g>
<!-- Node36&#45;&gt;Node17 -->
<g id="edge62_Node000036_Node000017" class="edge">
<title>Node36&#45;&gt;Node17</title>
<g id="a_edge62_Node000036_Node000017"><a xlink:title=" ">
<path fill="none" stroke="#63b8ff" d="M2938.36,-121.83C2937.41,-113.17 2936.37,-103.7 2935.55,-96.16"/>
<polygon fill="#63b8ff" stroke="#63b8ff" points="2934.88,-122.24 2939.45,-131.8 2941.84,-121.48 2934.88,-122.24"/>
</a>
</g>
</g>
</g>
</svg>

<g id="navigator" transform="translate(0 0)" fill="#404254">
  <rect fill="#f2f5e9" fill-opacity="0.5" stroke="#606060" stroke-width=".5" x="0" y="0" width="60" height="60"/>
  <use id="zoomplus" xlink:href="#zoomPlus" x="17" y="9" onmousedown="handleZoom(evt,'in')"/>
  <use id="zoomminus" xlink:href="#zoomMin" x="42" y="9" onmousedown="handleZoom(evt,'out')"/>
  <use id="reset" xlink:href="#resetDef" x="30" y="36" onmousedown="handleReset()"/>
   <use id="arrowup" xlink:href="#arrowUp" x="0" y="0" onmousedown="handlePan(0,-1)"/>
  <use id="arrowright" xlink:href="#arrowRight" x="0" y="0" onmousedown="handlePan(1,0)"/>
  <use id="arrowdown" xlink:href="#arrowDown" x="0" y="0" onmousedown="handlePan(0,1)"/>
  <use id="arrowleft" xlink:href="#arrowLeft" x="0" y="0" onmousedown="handlePan(-1,0)"/>
</g>
<svg viewBox="0 0 15 15" width="100%" height="30px" preserveAspectRatio="xMaxYMin meet">
 <g id="arrow_out" transform="scale(0.3 0.3)">
  <a xlink:href="IDrawable_8h__dep__incl_org.svg" target="_base">
   <rect id="button" ry="5" rx="5" y="6" x="6" height="38" width="38"
        fill="#f2f5e9" fill-opacity="0.5" stroke="#606060" stroke-width="1.0"/>
   <path id="arrow"
     d="M 11.500037,31.436501 C 11.940474,20.09759 22.043105,11.32322 32.158766,21.979434 L 37.068811,17.246167 C 37.068811,17.246167 37.088388,32 37.088388,32 L 22.160133,31.978069 C 22.160133,31.978069 26.997745,27.140456 26.997745,27.140456 C 18.528582,18.264221 13.291696,25.230495 11.500037,31.436501 z"
     style="fill:#404040;"/>
  </a>
 </g>
</svg>

<style type='text/css'>
<![CDATA[
[data-mouse-over-selected='false'] { opacity: 0.7; }
[data-mouse-over-selected='true']  { opacity: 1.0; }
]]>
</style>
<script type="application/ecmascript"><![CDATA[
document.addEventListener('DOMContentLoaded', (event) => {
  highlightEdges();
  highlightAdjacentNodes();
});
]]></script>
</svg>
