<?xml version="1.0" encoding="UTF-8" standalone="no"?>
<!DOCTYPE svg PUBLIC "-//W3C//DTD SVG 1.1//EN"
 "http://www.w3.org/Graphics/SVG/1.1/DTD/svg11.dtd">
<!-- Generated by graphviz version 2.43.0 (0)
 -->
<!-- Title: src/graphics/core/IDrawable.h Pages: 1 -->
<svg width="563pt" height="324pt"
 viewBox="0.00 0.00 562.50 324.00" xmlns="http://www.w3.org/2000/svg" xmlns:xlink="http://www.w3.org/1999/xlink">
<g id="graph0" class="graph" transform="scale(1 1) rotate(0) translate(4 320)">
<title>src/graphics/core/IDrawable.h</title>
<!-- Node1 -->
<g id="Node000001" class="node">
<title>Node1</title>
<g id="a_Node000001"><a xlink:title=" ">
<polygon fill="#999999" stroke="#666666" points="180.5,-316 19.5,-316 19.5,-297 180.5,-297 180.5,-316"/>
<text text-anchor="middle" x="100" y="-304" font-family="Helvetica,sans-Serif" font-size="10.00">src/graphics/core/IDrawable.h</text>
</a>
</g>
</g>
<!-- Node2 -->
<g id="Node000002" class="node">
<title>Node2</title>
<g id="a_Node000002"><a xlink:title=" ">
<polygon fill="#e0e0e0" stroke="#999999" points="300.5,-19 217.5,-19 217.5,0 300.5,0 300.5,-19"/>
<text text-anchor="middle" x="259" y="-7" font-family="Helvetica,sans-Serif" font-size="10.00">glm/vec3.hpp</text>
</a>
</g>
</g>
<!-- Node1&#45;&gt;Node2 -->
<g id="edge1_Node000001_Node000002" class="edge">
<title>Node1&#45;&gt;Node2</title>
<g id="a_edge1_Node000001_Node000002"><a xlink:title=" ">
<path fill="none" stroke="#63b8ff" d="M79.67,-296.96C64.15,-289.5 43.25,-277.33 30,-261 6.07,-231.51 0,-218.97 0,-181 0,-181 0,-181 0,-118.5 0,-29.63 131.51,-12.57 207.11,-10.11"/>
<polygon fill="#63b8ff" stroke="#63b8ff" points="207.48,-13.6 217.39,-9.86 207.3,-6.61 207.48,-13.6"/>
</a>
</g>
</g>
<!-- Node3 -->
<g id="Node000003" class="node">
<title>Node3</title>
<g id="a_Node000003"><a xlink:href="Shader_8h.html" target="_top" xlink:title=" ">
<polygon fill="white" stroke="#666666" points="160.5,-261 39.5,-261 39.5,-231 160.5,-231 160.5,-261"/>
<text text-anchor="start" x="47.5" y="-249" font-family="Helvetica,sans-Serif" font-size="10.00">graphics/components</text>
<text text-anchor="middle" x="100" y="-238" font-family="Helvetica,sans-Serif" font-size="10.00">/Shader.h</text>
</a>
</g>
</g>
<!-- Node1&#45;&gt;Node3 -->
<g id="edge2_Node000001_Node000003" class="edge">
<title>Node1&#45;&gt;Node3</title>
<g id="a_edge2_Node000001_Node000003"><a xlink:title=" ">
<path fill="none" stroke="#63b8ff" d="M100,-296.87C100,-290.11 100,-280.35 100,-271.26"/>
<polygon fill="#63b8ff" stroke="#63b8ff" points="103.5,-271.11 100,-261.11 96.5,-271.11 103.5,-271.11"/>
</a>
</g>
</g>
<!-- Node7 -->
<g id="Node000007" class="node">
<title>Node7</title>
<g id="a_Node000007"><a xlink:href="Mesh_8h.html" target="_top" xlink:title=" ">
<polygon fill="white" stroke="#666666" points="336.5,-261 215.5,-261 215.5,-231 336.5,-231 336.5,-261"/>
<text text-anchor="start" x="223.5" y="-249" font-family="Helvetica,sans-Serif" font-size="10.00">graphics/components</text>
<text text-anchor="middle" x="276" y="-238" font-family="Helvetica,sans-Serif" font-size="10.00">/Mesh.h</text>
</a>
</g>
</g>
<!-- Node1&#45;&gt;Node7 -->
<g id="edge6_Node000001_Node000007" class="edge">
<title>Node1&#45;&gt;Node7</title>
<g id="a_edge6_Node000001_Node000007"><a xlink:title=" ">
<path fill="none" stroke="#63b8ff" d="M125.59,-296.99C151.25,-288.46 191.5,-275.09 223.91,-264.32"/>
<polygon fill="#63b8ff" stroke="#63b8ff" points="225.3,-267.54 233.69,-261.06 223.09,-260.9 225.3,-267.54"/>
</a>
</g>
</g>
<!-- Node4 -->
<g id="Node000004" class="node">
<title>Node4</title>
<g id="a_Node000004"><a xlink:title=" ">
<polygon fill="#e0e0e0" stroke="#999999" points="72,-189.5 28,-189.5 28,-170.5 72,-170.5 72,-189.5"/>
<text text-anchor="middle" x="50" y="-177.5" font-family="Helvetica,sans-Serif" font-size="10.00">string</text>
</a>
</g>
</g>
<!-- Node3&#45;&gt;Node4 -->
<g id="edge3_Node000003_Node000004" class="edge">
<title>Node3&#45;&gt;Node4</title>
<g id="a_edge3_Node000003_Node000004"><a xlink:title=" ">
<path fill="none" stroke="#63b8ff" d="M88.9,-230.8C81.34,-221.11 71.28,-208.24 63.29,-198.01"/>
<polygon fill="#63b8ff" stroke="#63b8ff" points="65.82,-195.57 56.91,-189.84 60.31,-199.88 65.82,-195.57"/>
</a>
</g>
</g>
<!-- Node5 -->
<g id="Node000005" class="node">
<title>Node5</title>
<g id="a_Node000005"><a xlink:title=" ">
<polygon fill="#e0e0e0" stroke="#999999" points="315,-74 237,-74 237,-55 315,-55 315,-74"/>
<text text-anchor="middle" x="276" y="-62" font-family="Helvetica,sans-Serif" font-size="10.00">glm/glm.hpp</text>
</a>
</g>
</g>
<!-- Node3&#45;&gt;Node5 -->
<g id="edge4_Node000003_Node000005" class="edge">
<title>Node3&#45;&gt;Node5</title>
<g id="a_edge4_Node000003_Node000005"><a xlink:title=" ">
<path fill="none" stroke="#63b8ff" d="M100.2,-230.97C101.11,-213.89 104.83,-184.87 119,-165 149.83,-121.77 205.88,-93.01 242,-77.98"/>
<polygon fill="#63b8ff" stroke="#63b8ff" points="243.66,-81.08 251.62,-74.1 241.04,-74.59 243.66,-81.08"/>
</a>
</g>
</g>
<!-- Node6 -->
<g id="Node000006" class="node">
<title>Node6</title>
<g id="a_Node000006"><a xlink:title=" ">
<polygon fill="#e0e0e0" stroke="#999999" points="248,-195 128,-195 128,-165 248,-165 248,-195"/>
<text text-anchor="start" x="136" y="-183" font-family="Helvetica,sans-Serif" font-size="10.00">QOpenGLFunctions_4</text>
<text text-anchor="middle" x="188" y="-172" font-family="Helvetica,sans-Serif" font-size="10.00">_5_Core</text>
</a>
</g>
</g>
<!-- Node3&#45;&gt;Node6 -->
<g id="edge5_Node000003_Node000006" class="edge">
<title>Node3&#45;&gt;Node6</title>
<g id="a_edge5_Node000003_Node000006"><a xlink:title=" ">
<path fill="none" stroke="#63b8ff" d="M119.53,-230.8C131.49,-222.1 146.99,-210.82 160.22,-201.2"/>
<polygon fill="#63b8ff" stroke="#63b8ff" points="162.5,-203.88 168.52,-195.16 158.38,-198.22 162.5,-203.88"/>
</a>
</g>
</g>
<!-- Node7&#45;&gt;Node5 -->
<g id="edge9_Node000007_Node000005" class="edge">
<title>Node7&#45;&gt;Node5</title>
<g id="a_edge9_Node000007_Node000005"><a xlink:title=" ">
<path fill="none" stroke="#63b8ff" d="M276,-230.91C276,-198.85 276,-120.38 276,-84.26"/>
<polygon fill="#63b8ff" stroke="#63b8ff" points="279.5,-84.13 276,-74.13 272.5,-84.13 279.5,-84.13"/>
</a>
</g>
</g>
<!-- Node7&#45;&gt;Node6 -->
<g id="edge7_Node000007_Node000006" class="edge">
<title>Node7&#45;&gt;Node6</title>
<g id="a_edge7_Node000007_Node000006"><a xlink:title=" ">
<path fill="none" stroke="#63b8ff" d="M256.47,-230.8C244.51,-222.1 229.01,-210.82 215.78,-201.2"/>
<polygon fill="#63b8ff" stroke="#63b8ff" points="217.62,-198.22 207.48,-195.16 213.5,-203.88 217.62,-198.22"/>
</a>
</g>
</g>
<!-- Node8 -->
<g id="Node000008" class="node">
<title>Node8</title>
<g id="a_Node000008"><a xlink:title=" ">
<polygon fill="#e0e0e0" stroke="#999999" points="351.5,-189.5 304.5,-189.5 304.5,-170.5 351.5,-170.5 351.5,-189.5"/>
<text text-anchor="middle" x="328" y="-177.5" font-family="Helvetica,sans-Serif" font-size="10.00">vector</text>
</a>
</g>
</g>
<!-- Node7&#45;&gt;Node8 -->
<g id="edge8_Node000007_Node000008" class="edge">
<title>Node7&#45;&gt;Node8</title>
<g id="a_edge8_Node000007_Node000008"><a xlink:title=" ">
<path fill="none" stroke="#63b8ff" d="M287.54,-230.8C295.49,-221.01 306.08,-207.98 314.43,-197.7"/>
<polygon fill="#63b8ff" stroke="#63b8ff" points="317.22,-199.81 320.81,-189.84 311.79,-195.4 317.22,-199.81"/>
</a>
</g>
</g>
<!-- Node9 -->
<g id="Node000009" class="node">
<title>Node9</title>
<g id="a_Node000009"><a xlink:href="AABB_8h.html" target="_top" xlink:title=" ">
<polygon fill="white" stroke="#666666" points="510,-189.5 370,-189.5 370,-170.5 510,-170.5 510,-189.5"/>
<text text-anchor="middle" x="440" y="-177.5" font-family="Helvetica,sans-Serif" font-size="10.00">physics/bounding/AABB.h</text>
</a>
</g>
</g>
<!-- Node7&#45;&gt;Node9 -->
<g id="edge10_Node000007_Node000009" class="edge">
<title>Node7&#45;&gt;Node9</title>
<g id="a_edge10_Node000007_Node000009"><a xlink:title=" ">
<path fill="none" stroke="#63b8ff" d="M311.99,-230.95C340.88,-219.68 381.03,-204.01 408.62,-193.25"/>
<polygon fill="#63b8ff" stroke="#63b8ff" points="410.13,-196.41 418.17,-189.52 407.59,-189.89 410.13,-196.41"/>
</a>
</g>
</g>
<!-- Node9&#45;&gt;Node5 -->
<g id="edge11_Node000009_Node000005" class="edge">
<title>Node9&#45;&gt;Node5</title>
<g id="a_edge11_Node000009_Node000005"><a xlink:title=" ">
<path fill="none" stroke="#63b8ff" d="M427.67,-170.47C399.77,-151.16 331.53,-103.93 296.9,-79.96"/>
<polygon fill="#63b8ff" stroke="#63b8ff" points="298.68,-76.94 288.47,-74.13 294.7,-82.7 298.68,-76.94"/>
</a>
</g>
</g>
<!-- Node10 -->
<g id="Node000010" class="node">
<title>Node10</title>
<g id="a_Node000010"><a xlink:href="ICollider_8h.html" target="_top" xlink:title="Abstract interface for collision detection shapes.">
<polygon fill="white" stroke="#666666" points="469.5,-129 404.5,-129 404.5,-110 469.5,-110 469.5,-129"/>
<text text-anchor="middle" x="437" y="-117" font-family="Helvetica,sans-Serif" font-size="10.00">ICollider.h</text>
</a>
</g>
</g>
<!-- Node9&#45;&gt;Node10 -->
<g id="edge12_Node000009_Node000010" class="edge">
<title>Node9&#45;&gt;Node10</title>
<g id="a_edge12_Node000009_Node000010"><a xlink:title=" ">
<path fill="none" stroke="#63b8ff" d="M439.56,-170.37C439.14,-162.25 438.5,-149.81 437.97,-139.39"/>
<polygon fill="#63b8ff" stroke="#63b8ff" points="441.45,-138.97 437.44,-129.17 434.46,-139.33 441.45,-138.97"/>
</a>
</g>
</g>
<!-- Node10&#45;&gt;Node5 -->
<g id="edge13_Node000010_Node000005" class="edge">
<title>Node10&#45;&gt;Node5</title>
<g id="a_edge13_Node000010_Node000005"><a xlink:title=" ">
<path fill="none" stroke="#63b8ff" d="M411.13,-109.98C384.22,-101.13 341.88,-87.19 311.77,-77.28"/>
<polygon fill="#63b8ff" stroke="#63b8ff" points="312.66,-73.88 302.07,-74.08 310.47,-80.53 312.66,-73.88"/>
</a>
</g>
</g>
<!-- Node11 -->
<g id="Node000011" class="node">
<title>Node11</title>
<g id="a_Node000011"><a xlink:title=" ">
<polygon fill="#e0e0e0" stroke="#999999" points="391,-74 333,-74 333,-55 391,-55 391,-74"/>
<text text-anchor="middle" x="362" y="-62" font-family="Helvetica,sans-Serif" font-size="10.00">memory</text>
</a>
</g>
</g>
<!-- Node10&#45;&gt;Node11 -->
<g id="edge14_Node000010_Node000011" class="edge">
<title>Node10&#45;&gt;Node11</title>
<g id="a_edge14_Node000010_Node000011"><a xlink:title=" ">
<path fill="none" stroke="#63b8ff" d="M424.95,-109.98C413.54,-101.92 396.17,-89.65 382.57,-80.03"/>
<polygon fill="#63b8ff" stroke="#63b8ff" points="384.46,-77.08 374.27,-74.17 380.42,-82.8 384.46,-77.08"/>
</a>
</g>
</g>
<!-- Node12 -->
<g id="Node000012" class="node">
<title>Node12</title>
<g id="a_Node000012"><a xlink:title=" ">
<polygon fill="#e0e0e0" stroke="#999999" points="465,-74 409,-74 409,-55 465,-55 465,-74"/>
<text text-anchor="middle" x="437" y="-62" font-family="Helvetica,sans-Serif" font-size="10.00">optional</text>
</a>
</g>
</g>
<!-- Node10&#45;&gt;Node12 -->
<g id="edge15_Node000010_Node000012" class="edge">
<title>Node10&#45;&gt;Node12</title>
<g id="a_edge15_Node000010_Node000012"><a xlink:title=" ">
<path fill="none" stroke="#63b8ff" d="M437,-109.75C437,-102.8 437,-92.85 437,-84.13"/>
<polygon fill="#63b8ff" stroke="#63b8ff" points="440.5,-84.09 437,-74.09 433.5,-84.09 440.5,-84.09"/>
</a>
</g>
</g>
<!-- Node13 -->
<g id="Node000013" class="node">
<title>Node13</title>
<g id="a_Node000013"><a xlink:href="Ray_8h.html" target="_top" xlink:title=" ">
<polygon fill="white" stroke="#666666" points="554.5,-74 483.5,-74 483.5,-55 554.5,-55 554.5,-74"/>
<text text-anchor="middle" x="519" y="-62" font-family="Helvetica,sans-Serif" font-size="10.00">math/Ray.h</text>
</a>
</g>
</g>
<!-- Node10&#45;&gt;Node13 -->
<g id="edge16_Node000010_Node000013" class="edge">
<title>Node10&#45;&gt;Node13</title>
<g id="a_edge16_Node000010_Node000013"><a xlink:title=" ">
<path fill="none" stroke="#63b8ff" d="M450.17,-109.98C462.77,-101.84 482,-89.41 496.94,-79.76"/>
<polygon fill="#63b8ff" stroke="#63b8ff" points="499.09,-82.54 505.59,-74.17 495.29,-76.66 499.09,-82.54"/>
</a>
</g>
</g>
<!-- Node13&#45;&gt;Node2 -->
<g id="edge17_Node000013_Node000002" class="edge">
<title>Node13&#45;&gt;Node2</title>
<g id="a_edge17_Node000013_Node000002"><a xlink:title=" ">
<path fill="none" stroke="#63b8ff" d="M483.39,-56.24C438.67,-47.13 361.61,-31.42 310.48,-20.99"/>
<polygon fill="#63b8ff" stroke="#63b8ff" points="311.11,-17.55 300.61,-18.98 309.71,-24.41 311.11,-17.55"/>
</a>
</g>
</g>
</g>
</svg>
