<?xml version="1.0" encoding="UTF-8" standalone="no"?>
<!DOCTYPE svg PUBLIC "-//W3C//DTD SVG 1.1//EN"
 "http://www.w3.org/Graphics/SVG/1.1/DTD/svg11.dtd">
<!-- Generated by graphviz version 2.43.0 (0)
 -->
<!-- Title: axisDir Pages: 1 -->
<svg width="450pt" height="298pt"
 viewBox="0.00 0.00 450.00 297.50" xmlns="http://www.w3.org/2000/svg" xmlns:xlink="http://www.w3.org/1999/xlink">

<svg id="main" version="1.1" xmlns="http://www.w3.org/2000/svg" xmlns:xlink="http://www.w3.org/1999/xlink" xml:space="preserve" onload="init(evt)">
<style type="text/css"><![CDATA[
.node, .edge {opacity: 0.7;}
.node.selected, .edge.selected {opacity: 1;}
.edge:hover path { stroke: red; }
.edge:hover polygon { stroke: red; fill: red; }
]]></style>
<script type="application/ecmascript" xlink:href="svg.min.js"/>
<svg id="graph" class="graph">
<g id="graph0" class="graph" transform="scale(1 1) rotate(0) translate(4 293.5)">
<title>axisDir</title>
<!-- Node1 -->
<g id="Node000001" class="node">
<title>Node1</title>
<g id="a_Node000001"><a xlink:title="Converts an axis enum to its corresponding unit vector.">
<polygon fill="#999999" stroke="#666666" points="442,-178.5 391,-178.5 391,-159.5 442,-159.5 442,-178.5"/>
<text text-anchor="middle" x="416.5" y="-166.5" font-family="Helvetica,sans-Serif" font-size="10.00">axisDir</text>
</a>
</g>
</g>
<!-- Node2 -->
<g id="Node000002" class="node">
<title>Node2</title>
<g id="a_Node000002"><a xlink:href="classRotateHandle.html#ae20a4a52e2dcaccdc32ae32722ba7ccd" target="_top" xlink:title="Gets the axis direction this handle operates along/around.">
<polygon fill="white" stroke="#666666" points="349,-289.5 209,-289.5 209,-270.5 349,-270.5 349,-289.5"/>
<text text-anchor="middle" x="279" y="-277.5" font-family="Helvetica,sans-Serif" font-size="10.00">RotateHandle::getAxisDir</text>
</a>
</g>
</g>
<!-- Node1&#45;&gt;Node2 -->
<g id="edge1_Node000001_Node000002" class="edge">
<title>Node1&#45;&gt;Node2</title>
<g id="a_edge1_Node000001_Node000002"><a xlink:title=" ">
<path fill="none" stroke="#63b8ff" d="M408.27,-187.96C399.14,-209.29 381.37,-243.38 355,-262 350.19,-265.4 344.81,-268.16 339.21,-270.4"/>
<polygon fill="#63b8ff" stroke="#63b8ff" points="411.54,-189.22 412.06,-178.63 405.05,-186.58 411.54,-189.22"/>
</a>
</g>
</g>
<!-- Node3 -->
<g id="Node000003" class="node">
<title>Node3</title>
<g id="a_Node000003"><a xlink:href="classScaleHandle.html#a181ba31d6906c9945868029693672ff1" target="_top" xlink:title="Gets the axis direction this handle operates along/around.">
<polygon fill="white" stroke="#666666" points="346,-252.5 212,-252.5 212,-233.5 346,-233.5 346,-252.5"/>
<text text-anchor="middle" x="279" y="-240.5" font-family="Helvetica,sans-Serif" font-size="10.00">ScaleHandle::getAxisDir</text>
</a>
</g>
</g>
<!-- Node1&#45;&gt;Node3 -->
<g id="edge2_Node000001_Node000003" class="edge">
<title>Node1&#45;&gt;Node3</title>
<g id="a_edge2_Node000001_Node000003"><a xlink:title=" ">
<path fill="none" stroke="#63b8ff" d="M401.42,-186.1C390.13,-198.69 373.22,-215.25 355,-225 348.62,-228.41 341.6,-231.18 334.49,-233.44"/>
<polygon fill="#63b8ff" stroke="#63b8ff" points="404.08,-188.36 407.98,-178.51 398.79,-183.78 404.08,-188.36"/>
</a>
</g>
</g>
<!-- Node4 -->
<g id="Node000004" class="node">
<title>Node4</title>
<g id="a_Node000004"><a xlink:href="classTranslateHandle.html#a2eb96456c77a15f4ea4ec3bcdb351916" target="_top" xlink:title="Gets the axis direction this handle operates along/around.">
<polygon fill="white" stroke="#666666" points="355,-215.5 203,-215.5 203,-196.5 355,-196.5 355,-215.5"/>
<text text-anchor="middle" x="279" y="-203.5" font-family="Helvetica,sans-Serif" font-size="10.00">TranslateHandle::getAxisDir</text>
</a>
</g>
</g>
<!-- Node1&#45;&gt;Node4 -->
<g id="edge3_Node000001_Node000004" class="edge">
<title>Node1&#45;&gt;Node4</title>
<g id="a_edge3_Node000001_Node000004"><a xlink:title=" ">
<path fill="none" stroke="#63b8ff" d="M381.23,-180.21C372.69,-182.88 363.54,-185.64 355,-188 344.42,-190.93 332.92,-193.83 322.18,-196.42"/>
<polygon fill="#63b8ff" stroke="#63b8ff" points="382.41,-183.51 390.89,-177.15 380.3,-176.84 382.41,-183.51"/>
</a>
</g>
</g>
<!-- Node5 -->
<g id="Node000005" class="node">
<title>Node5</title>
<g id="a_Node000005"><a xlink:href="classRotateHandle.html#a251dde0c3864638e4f73351a76d6d6a3" target="_top" xlink:title="Handles continuous dragging motion.">
<polygon fill="white" stroke="#666666" points="341.5,-178.5 216.5,-178.5 216.5,-159.5 341.5,-159.5 341.5,-178.5"/>
<text text-anchor="middle" x="279" y="-166.5" font-family="Helvetica,sans-Serif" font-size="10.00">RotateHandle::onDrag</text>
</a>
</g>
</g>
<!-- Node1&#45;&gt;Node5 -->
<g id="edge4_Node000001_Node000005" class="edge">
<title>Node1&#45;&gt;Node5</title>
<g id="a_edge4_Node000001_Node000005"><a xlink:title=" ">
<path fill="none" stroke="#63b8ff" d="M380.94,-169C368.94,-169 355.09,-169 341.57,-169"/>
<polygon fill="#63b8ff" stroke="#63b8ff" points="380.96,-172.5 390.96,-169 380.96,-165.5 380.96,-172.5"/>
</a>
</g>
</g>
<!-- Node6 -->
<g id="Node000006" class="node">
<title>Node6</title>
<g id="a_Node000006"><a xlink:href="classScaleHandle.html#a7474da914d58b6eb2f3aaa9d5c548983" target="_top" xlink:title="Handles continuous dragging motion.">
<polygon fill="white" stroke="#666666" points="338.5,-141.5 219.5,-141.5 219.5,-122.5 338.5,-122.5 338.5,-141.5"/>
<text text-anchor="middle" x="279" y="-129.5" font-family="Helvetica,sans-Serif" font-size="10.00">ScaleHandle::onDrag</text>
</a>
</g>
</g>
<!-- Node1&#45;&gt;Node6 -->
<g id="edge5_Node000001_Node000006" class="edge">
<title>Node1&#45;&gt;Node6</title>
<g id="a_edge5_Node000001_Node000006"><a xlink:title=" ">
<path fill="none" stroke="#63b8ff" d="M381.18,-158.52C372.64,-155.99 363.51,-153.34 355,-151 343.34,-147.79 330.61,-144.49 319.01,-141.56"/>
<polygon fill="#63b8ff" stroke="#63b8ff" points="380.26,-161.9 390.84,-161.41 382.26,-155.19 380.26,-161.9"/>
</a>
</g>
</g>
<!-- Node7 -->
<g id="Node000007" class="node">
<title>Node7</title>
<g id="a_Node000007"><a xlink:href="classTranslateHandle.html#ac67106b1bdc0342f0ab9428c382cf3ea" target="_top" xlink:title="Handles continuous dragging motion.">
<polygon fill="white" stroke="#666666" points="347.5,-104.5 210.5,-104.5 210.5,-85.5 347.5,-85.5 347.5,-104.5"/>
<text text-anchor="middle" x="279" y="-92.5" font-family="Helvetica,sans-Serif" font-size="10.00">TranslateHandle::onDrag</text>
</a>
</g>
</g>
<!-- Node1&#45;&gt;Node7 -->
<g id="edge6_Node000001_Node000007" class="edge">
<title>Node1&#45;&gt;Node7</title>
<g id="a_edge6_Node000001_Node000007"><a xlink:title=" ">
<path fill="none" stroke="#63b8ff" d="M400.61,-151.51C389.28,-139.28 372.68,-123.5 355,-114 347.78,-110.12 339.75,-107.01 331.69,-104.53"/>
<polygon fill="#63b8ff" stroke="#63b8ff" points="398.28,-154.16 407.55,-159.28 403.5,-149.49 398.28,-154.16"/>
</a>
</g>
</g>
<!-- Node8 -->
<g id="Node000008" class="node">
<title>Node8</title>
<g id="a_Node000008"><a xlink:href="classIHandle.html#ac190d421b2f8652e91c342a2d19e5efb" target="_top" xlink:title="Computes rotation matrix to align mesh from +Y to target axis.">
<polygon fill="white" stroke="#666666" points="355,-67.5 203,-67.5 203,-48.5 355,-48.5 355,-67.5"/>
<text text-anchor="middle" x="279" y="-55.5" font-family="Helvetica,sans-Serif" font-size="10.00">IHandle::rotateFromYToAxis</text>
</a>
</g>
</g>
<!-- Node1&#45;&gt;Node8 -->
<g id="edge7_Node000001_Node000008" class="edge">
<title>Node1&#45;&gt;Node8</title>
<g id="a_edge7_Node000001_Node000008"><a xlink:title=" ">
<path fill="none" stroke="#63b8ff" d="M408.03,-149.98C398.77,-128.91 380.96,-95.48 355,-77 349.53,-73.11 343.33,-70.01 336.91,-67.54"/>
<polygon fill="#63b8ff" stroke="#63b8ff" points="404.8,-151.33 411.89,-159.21 411.26,-148.63 404.8,-151.33"/>
</a>
</g>
</g>
<!-- Node9 -->
<g id="Node000009" class="node">
<title>Node9</title>
<g id="a_Node000009"><a xlink:href="classRotateHandle.html#a24a91d11a8e31dbdcae31b9d6fd29317" target="_top" xlink:title="Gets the model transformation matrix for rendering this handle.">
<polygon fill="white" stroke="#666666" points="167,-104.5 0,-104.5 0,-85.5 167,-85.5 167,-104.5"/>
<text text-anchor="middle" x="83.5" y="-92.5" font-family="Helvetica,sans-Serif" font-size="10.00">RotateHandle::getModelMatrix</text>
</a>
</g>
</g>
<!-- Node8&#45;&gt;Node9 -->
<g id="edge8_Node000008_Node000009" class="edge">
<title>Node8&#45;&gt;Node9</title>
<g id="a_edge8_Node000008_Node000009"><a xlink:title=" ">
<path fill="none" stroke="#63b8ff" d="M218.13,-69.45C191.31,-74.58 160.04,-80.56 134.5,-85.44"/>
<polygon fill="#63b8ff" stroke="#63b8ff" points="219,-72.84 228.17,-67.53 217.69,-65.97 219,-72.84"/>
</a>
</g>
</g>
<!-- Node10 -->
<g id="Node000010" class="node">
<title>Node10</title>
<g id="a_Node000010"><a xlink:href="classScaleHandle.html#ae2d8a999110797881a5f7d00cb1bc4e2" target="_top" xlink:title="Gets the model transformation matrix for rendering this handle.">
<polygon fill="white" stroke="#666666" points="164,-67.5 3,-67.5 3,-48.5 164,-48.5 164,-67.5"/>
<text text-anchor="middle" x="83.5" y="-55.5" font-family="Helvetica,sans-Serif" font-size="10.00">ScaleHandle::getModelMatrix</text>
</a>
</g>
</g>
<!-- Node8&#45;&gt;Node10 -->
<g id="edge9_Node000008_Node000010" class="edge">
<title>Node8&#45;&gt;Node10</title>
<g id="a_edge9_Node000008_Node000010"><a xlink:title=" ">
<path fill="none" stroke="#63b8ff" d="M192.66,-58C183.14,-58 173.47,-58 164.03,-58"/>
<polygon fill="#63b8ff" stroke="#63b8ff" points="192.91,-61.5 202.91,-58 192.91,-54.5 192.91,-61.5"/>
</a>
</g>
</g>
<!-- Node11 -->
<g id="Node000011" class="node">
<title>Node11</title>
<g id="a_Node000011"><a xlink:href="classTranslateHandle.html#ac8493751122288436b9d557609582ca5" target="_top" xlink:title="Gets the model transformation matrix for rendering this handle.">
<polygon fill="white" stroke="#666666" points="157,-30 10,-30 10,0 157,0 157,-30"/>
<text text-anchor="start" x="18" y="-18" font-family="Helvetica,sans-Serif" font-size="10.00">TranslateHandle::getModel</text>
<text text-anchor="middle" x="83.5" y="-7" font-family="Helvetica,sans-Serif" font-size="10.00">Matrix</text>
</a>
</g>
</g>
<!-- Node8&#45;&gt;Node11 -->
<g id="edge10_Node000008_Node000011" class="edge">
<title>Node8&#45;&gt;Node11</title>
<g id="a_edge10_Node000008_Node000011"><a xlink:title=" ">
<path fill="none" stroke="#63b8ff" d="M225.01,-46.22C202.48,-41.22 175.94,-35.32 152.03,-30.01"/>
<polygon fill="#63b8ff" stroke="#63b8ff" points="224.53,-49.7 235.06,-48.46 226.05,-42.87 224.53,-49.7"/>
</a>
</g>
</g>
</g>
</svg>
</svg>

<style type='text/css'>
<![CDATA[
[data-mouse-over-selected='false'] { opacity: 0.7; }
[data-mouse-over-selected='true']  { opacity: 1.0; }
]]>
</style>
<script type="application/ecmascript"><![CDATA[
document.addEventListener('DOMContentLoaded', (event) => {
  highlightEdges();
  highlightAdjacentNodes();
});
]]></script>
</svg>
