<?xml version="1.0" encoding="UTF-8" standalone="no"?>
<!DOCTYPE svg PUBLIC "-//W3C//DTD SVG 1.1//EN"
 "http://www.w3.org/Graphics/SVG/1.1/DTD/svg11.dtd">
<!-- Generated by graphviz version 2.43.0 (0)
 -->
<!-- Title: src/graphics/components/IHandle.h Pages: 1 -->
<svg width="2680pt" height="412pt"
 viewBox="0.00 0.00 2680.06 412.00" xmlns="http://www.w3.org/2000/svg" xmlns:xlink="http://www.w3.org/1999/xlink">
<g id="graph0" class="graph" transform="scale(1 1) rotate(0) translate(4 408)">
<title>src/graphics/components/IHandle.h</title>
<!-- Node1 -->
<g id="Node000001" class="node">
<title>Node1</title>
<g id="a_Node000001"><a xlink:title=" ">
<polygon fill="#999999" stroke="#666666" points="2040.5,-404 1902.5,-404 1902.5,-374 2040.5,-374 2040.5,-404"/>
<text text-anchor="start" x="1910.5" y="-392" font-family="Helvetica,sans-Serif" font-size="10.00">src/graphics/components</text>
<text text-anchor="middle" x="1971.5" y="-381" font-family="Helvetica,sans-Serif" font-size="10.00">/IHandle.h</text>
</a>
</g>
</g>
<!-- Node2 -->
<g id="Node000002" class="node">
<title>Node2</title>
<g id="a_Node000002"><a xlink:href="Gizmo_8h.html" target="_top" xlink:title=" ">
<polygon fill="white" stroke="#666666" points="1412.5,-338 1274.5,-338 1274.5,-308 1412.5,-308 1412.5,-338"/>
<text text-anchor="start" x="1282.5" y="-326" font-family="Helvetica,sans-Serif" font-size="10.00">src/graphics/components</text>
<text text-anchor="middle" x="1343.5" y="-315" font-family="Helvetica,sans-Serif" font-size="10.00">/Gizmo.h</text>
</a>
</g>
</g>
<!-- Node1&#45;&gt;Node2 -->
<g id="edge1_Node000001_Node000002" class="edge">
<title>Node1&#45;&gt;Node2</title>
<g id="a_edge1_Node000001_Node000002"><a xlink:title=" ">
<path fill="none" stroke="#63b8ff" d="M1892.31,-379.93C1768.25,-367.29 1530.15,-343.02 1412.62,-331.04"/>
<polygon fill="#63b8ff" stroke="#63b8ff" points="1892.19,-383.44 1902.5,-380.97 1892.9,-376.47 1892.19,-383.44"/>
</a>
</g>
</g>
<!-- Node11 -->
<g id="Node000011" class="node">
<title>Node11</title>
<g id="a_Node000011"><a xlink:href="ScaleHandle_8h.html" target="_top" xlink:title=" ">
<polygon fill="white" stroke="#666666" points="1364.5,-96 1226.5,-96 1226.5,-66 1364.5,-66 1364.5,-96"/>
<text text-anchor="start" x="1234.5" y="-84" font-family="Helvetica,sans-Serif" font-size="10.00">src/graphics/components</text>
<text text-anchor="middle" x="1295.5" y="-73" font-family="Helvetica,sans-Serif" font-size="10.00">/ScaleHandle.h</text>
</a>
</g>
</g>
<!-- Node1&#45;&gt;Node11 -->
<g id="edge44_Node000001_Node000011" class="edge">
<title>Node1&#45;&gt;Node11</title>
<g id="a_edge44_Node000001_Node000011"><a xlink:title=" ">
<path fill="none" stroke="#63b8ff" d="M1931.12,-369.72C1807.68,-313.85 1437.11,-146.1 1326.81,-96.17"/>
<polygon fill="#63b8ff" stroke="#63b8ff" points="1929.7,-372.92 1940.25,-373.85 1932.58,-366.54 1929.7,-372.92"/>
</a>
</g>
</g>
<!-- Node28 -->
<g id="Node000028" class="node">
<title>Node28</title>
<g id="a_Node000028"><a xlink:href="RotateHandle_8h.html" target="_top" xlink:title=" ">
<polygon fill="white" stroke="#666666" points="2483.5,-162 2345.5,-162 2345.5,-132 2483.5,-132 2483.5,-162"/>
<text text-anchor="start" x="2353.5" y="-150" font-family="Helvetica,sans-Serif" font-size="10.00">src/graphics/components</text>
<text text-anchor="middle" x="2414.5" y="-139" font-family="Helvetica,sans-Serif" font-size="10.00">/RotateHandle.h</text>
</a>
</g>
</g>
<!-- Node1&#45;&gt;Node28 -->
<g id="edge41_Node000001_Node000028" class="edge">
<title>Node1&#45;&gt;Node28</title>
<g id="a_edge41_Node000001_Node000028"><a xlink:title=" ">
<path fill="none" stroke="#63b8ff" d="M2006.4,-369.09C2092.36,-322.53 2312.73,-203.13 2388.48,-162.1"/>
<polygon fill="#63b8ff" stroke="#63b8ff" points="2004.68,-366.04 1997.56,-373.88 2008.02,-372.2 2004.68,-366.04"/>
</a>
</g>
</g>
<!-- Node29 -->
<g id="Node000029" class="node">
<title>Node29</title>
<g id="a_Node000029"><a xlink:href="TranslateHandle_8h.html" target="_top" xlink:title=" ">
<polygon fill="white" stroke="#666666" points="2639.5,-162 2501.5,-162 2501.5,-132 2639.5,-132 2639.5,-162"/>
<text text-anchor="start" x="2509.5" y="-150" font-family="Helvetica,sans-Serif" font-size="10.00">src/graphics/components</text>
<text text-anchor="middle" x="2570.5" y="-139" font-family="Helvetica,sans-Serif" font-size="10.00">/TranslateHandle.h</text>
</a>
</g>
</g>
<!-- Node1&#45;&gt;Node29 -->
<g id="edge45_Node000001_Node000029" class="edge">
<title>Node1&#45;&gt;Node29</title>
<g id="a_edge45_Node000001_Node000029"><a xlink:title=" ">
<path fill="none" stroke="#63b8ff" d="M2019.1,-370.29C2044.25,-360.85 2075.61,-348.95 2103.5,-338 2266.44,-274 2459.82,-194.03 2536.63,-162.11"/>
<polygon fill="#63b8ff" stroke="#63b8ff" points="2017.57,-367.12 2009.43,-373.91 2020.02,-373.68 2017.57,-367.12"/>
</a>
</g>
</g>
<!-- Node3 -->
<g id="Node000003" class="node">
<title>Node3</title>
<g id="a_Node000003"><a xlink:href="Gizmo_8cpp.html" target="_top" xlink:title=" ">
<polygon fill="white" stroke="#666666" points="2367.5,-30 2229.5,-30 2229.5,0 2367.5,0 2367.5,-30"/>
<text text-anchor="start" x="2237.5" y="-18" font-family="Helvetica,sans-Serif" font-size="10.00">src/graphics/components</text>
<text text-anchor="middle" x="2298.5" y="-7" font-family="Helvetica,sans-Serif" font-size="10.00">/Gizmo.cpp</text>
</a>
</g>
</g>
<!-- Node2&#45;&gt;Node3 -->
<g id="edge2_Node000002_Node000003" class="edge">
<title>Node2&#45;&gt;Node3</title>
<g id="a_edge2_Node000002_Node000003"><a xlink:title=" ">
<path fill="none" stroke="#63b8ff" d="M1422.61,-314.16C1627.46,-292.2 2167.42,-223.2 2285.5,-96 2302.06,-78.16 2302.18,-47.9 2300.51,-30.15"/>
<polygon fill="#63b8ff" stroke="#63b8ff" points="1422.1,-310.69 1412.53,-315.23 1422.84,-317.65 1422.1,-310.69"/>
</a>
</g>
</g>
<!-- Node4 -->
<g id="Node000004" class="node">
<title>Node4</title>
<g id="a_Node000004"><a xlink:href="Scene_8h.html" target="_top" xlink:title=" ">
<polygon fill="white" stroke="#666666" points="700.5,-272 560.5,-272 560.5,-253 700.5,-253 700.5,-272"/>
<text text-anchor="middle" x="630.5" y="-260" font-family="Helvetica,sans-Serif" font-size="10.00">src/graphics/core/Scene.h</text>
</a>
</g>
</g>
<!-- Node2&#45;&gt;Node4 -->
<g id="edge3_Node000002_Node000004" class="edge">
<title>Node2&#45;&gt;Node4</title>
<g id="a_edge3_Node000002_Node000004"><a xlink:title=" ">
<path fill="none" stroke="#63b8ff" d="M1264.24,-315.5C1123.93,-303.99 834.09,-280.2 700.6,-269.25"/>
<polygon fill="#63b8ff" stroke="#63b8ff" points="1264.23,-319.01 1274.49,-316.34 1264.81,-312.03 1264.23,-319.01"/>
</a>
</g>
</g>
<!-- Node27 -->
<g id="Node000027" class="node">
<title>Node27</title>
<g id="a_Node000027"><a xlink:href="OpenGLWindow_8cpp.html" target="_top" xlink:title=" ">
<polygon fill="white" stroke="#666666" points="390.5,-156.5 248.5,-156.5 248.5,-137.5 390.5,-137.5 390.5,-156.5"/>
<text text-anchor="middle" x="319.5" y="-144.5" font-family="Helvetica,sans-Serif" font-size="10.00">src/ui/OpenGLWindow.cpp</text>
</a>
</g>
</g>
<!-- Node2&#45;&gt;Node27 -->
<g id="edge40_Node000002_Node000027" class="edge">
<title>Node2&#45;&gt;Node27</title>
<g id="a_edge40_Node000002_Node000027"><a xlink:title=" ">
<path fill="none" stroke="#63b8ff" d="M1264.18,-321.26C1090.94,-318.95 683.71,-309.58 551.5,-272 460.13,-246.03 364.08,-180.4 331.27,-156.7"/>
<polygon fill="#63b8ff" stroke="#63b8ff" points="1264.2,-324.76 1274.25,-321.39 1264.29,-317.76 1264.2,-324.76"/>
</a>
</g>
</g>
<!-- Node5 -->
<g id="Node000005" class="node">
<title>Node5</title>
<g id="a_Node000005"><a xlink:href="Scene_8cpp.html" target="_top" xlink:title=" ">
<polygon fill="white" stroke="#666666" points="2251.5,-90.5 2099.5,-90.5 2099.5,-71.5 2251.5,-71.5 2251.5,-90.5"/>
<text text-anchor="middle" x="2175.5" y="-78.5" font-family="Helvetica,sans-Serif" font-size="10.00">src/graphics/core/Scene.cpp</text>
</a>
</g>
</g>
<!-- Node4&#45;&gt;Node5 -->
<g id="edge4_Node000004_Node000005" class="edge">
<title>Node4&#45;&gt;Node5</title>
<g id="a_edge4_Node000004_Node000005"><a xlink:title=" ">
<path fill="none" stroke="#63b8ff" d="M710.79,-256.9C894.19,-245.82 1357.78,-214.64 1742.5,-162 1888.68,-142 2060.55,-106.69 2136.3,-90.52"/>
<polygon fill="#63b8ff" stroke="#63b8ff" points="710.46,-253.41 700.69,-257.51 710.88,-260.4 710.46,-253.41"/>
</a>
</g>
</g>
<!-- Node6 -->
<g id="Node000006" class="node">
<title>Node6</title>
<g id="a_Node000006"><a xlink:href="SceneManager_8h.html" target="_top" xlink:title=" ">
<polygon fill="white" stroke="#666666" points="721.5,-217 539.5,-217 539.5,-198 721.5,-198 721.5,-217"/>
<text text-anchor="middle" x="630.5" y="-205" font-family="Helvetica,sans-Serif" font-size="10.00">src/graphics/core/SceneManager.h</text>
</a>
</g>
</g>
<!-- Node4&#45;&gt;Node6 -->
<g id="edge5_Node000004_Node000006" class="edge">
<title>Node4&#45;&gt;Node6</title>
<g id="a_edge5_Node000004_Node000006"><a xlink:title=" ">
<path fill="none" stroke="#63b8ff" d="M630.5,-242.66C630.5,-233.93 630.5,-223.99 630.5,-217.09"/>
<polygon fill="#63b8ff" stroke="#63b8ff" points="627,-242.75 630.5,-252.75 634,-242.75 627,-242.75"/>
</a>
</g>
</g>
<!-- Node8 -->
<g id="Node000008" class="node">
<title>Node8</title>
<g id="a_Node000008"><a xlink:href="SceneObject_8cpp.html" target="_top" xlink:title=" ">
<polygon fill="white" stroke="#666666" points="183,-90.5 0,-90.5 0,-71.5 183,-71.5 183,-90.5"/>
<text text-anchor="middle" x="91.5" y="-78.5" font-family="Helvetica,sans-Serif" font-size="10.00">src/graphics/core/SceneObject.cpp</text>
</a>
</g>
</g>
<!-- Node4&#45;&gt;Node8 -->
<g id="edge38_Node000004_Node000008" class="edge">
<title>Node4&#45;&gt;Node8</title>
<g id="a_edge38_Node000004_Node000008"><a xlink:title=" ">
<path fill="none" stroke="#63b8ff" d="M571.03,-251.11C493.15,-236.44 353.14,-206.39 239.5,-162 187.26,-141.6 130.13,-106.8 104.83,-90.67"/>
<polygon fill="#63b8ff" stroke="#63b8ff" points="570.67,-254.6 581.14,-252.99 571.95,-247.72 570.67,-254.6"/>
</a>
</g>
</g>
<!-- Node4&#45;&gt;Node27 -->
<g id="edge39_Node000004_Node000027" class="edge">
<title>Node4&#45;&gt;Node27</title>
<g id="a_edge39_Node000004_Node000027"><a xlink:title=" ">
<path fill="none" stroke="#63b8ff" d="M597.67,-249.52C534.65,-226.52 398.12,-176.69 343.15,-156.63"/>
<polygon fill="#63b8ff" stroke="#63b8ff" points="596.53,-252.83 607.12,-252.97 598.93,-246.25 596.53,-252.83"/>
</a>
</g>
</g>
<!-- Node6&#45;&gt;Node3 -->
<g id="edge6_Node000006_Node000003" class="edge">
<title>Node6&#45;&gt;Node3</title>
<g id="a_edge6_Node000006_Node000003"><a xlink:title=" ">
<path fill="none" stroke="#63b8ff" d="M732.11,-205.38C927.92,-202.57 1371.05,-193.04 1742.5,-162 1973.78,-142.68 2072.57,-232.17 2260.5,-96 2282.29,-80.21 2292.05,-48.62 2296.04,-30.22"/>
<polygon fill="#63b8ff" stroke="#63b8ff" points="731.79,-201.88 721.84,-205.52 731.88,-208.88 731.79,-201.88"/>
</a>
</g>
</g>
<!-- Node7 -->
<g id="Node000007" class="node">
<title>Node7</title>
<g id="a_Node000007"><a xlink:href="SceneManager_8cpp.html" target="_top" xlink:title=" ">
<polygon fill="white" stroke="#666666" points="680.5,-90.5 486.5,-90.5 486.5,-71.5 680.5,-71.5 680.5,-90.5"/>
<text text-anchor="middle" x="583.5" y="-78.5" font-family="Helvetica,sans-Serif" font-size="10.00">src/graphics/core/SceneManager.cpp</text>
</a>
</g>
</g>
<!-- Node6&#45;&gt;Node7 -->
<g id="edge7_Node000006_Node000007" class="edge">
<title>Node6&#45;&gt;Node7</title>
<g id="a_edge7_Node000006_Node000007"><a xlink:title=" ">
<path fill="none" stroke="#63b8ff" d="M625.19,-187.93C620.69,-172.73 613.8,-150.75 606.5,-132 600.74,-117.22 592.78,-100.58 587.9,-90.71"/>
<polygon fill="#63b8ff" stroke="#63b8ff" points="621.87,-189.04 628.03,-197.66 628.59,-187.08 621.87,-189.04"/>
</a>
</g>
</g>
<!-- Node6&#45;&gt;Node8 -->
<g id="edge8_Node000006_Node000008" class="edge">
<title>Node6&#45;&gt;Node8</title>
<g id="a_edge8_Node000006_Node000008"><a xlink:title=" ">
<path fill="none" stroke="#63b8ff" d="M550.66,-196.23C514.83,-189.6 472.78,-178.93 437.5,-162 418.1,-152.69 419.19,-140.67 399.5,-132 377.53,-122.33 238.33,-102.08 154.77,-90.54"/>
<polygon fill="#63b8ff" stroke="#63b8ff" points="550.14,-199.7 560.59,-198 551.36,-192.8 550.14,-199.7"/>
</a>
</g>
</g>
<!-- Node9 -->
<g id="Node000009" class="node">
<title>Node9</title>
<g id="a_Node000009"><a xlink:href="SceneObject_8h.html" target="_top" xlink:title=" ">
<polygon fill="white" stroke="#666666" points="1733.5,-156.5 1561.5,-156.5 1561.5,-137.5 1733.5,-137.5 1733.5,-156.5"/>
<text text-anchor="middle" x="1647.5" y="-144.5" font-family="Helvetica,sans-Serif" font-size="10.00">src/graphics/core/SceneObject.h</text>
</a>
</g>
</g>
<!-- Node6&#45;&gt;Node9 -->
<g id="edge9_Node000006_Node000009" class="edge">
<title>Node6&#45;&gt;Node9</title>
<g id="a_edge9_Node000006_Node000009"><a xlink:title=" ">
<path fill="none" stroke="#63b8ff" d="M731.86,-200.67C931.88,-189.16 1374.18,-163.72 1561.25,-152.96"/>
<polygon fill="#63b8ff" stroke="#63b8ff" points="731.43,-197.19 721.65,-201.26 731.83,-204.18 731.43,-197.19"/>
</a>
</g>
</g>
<!-- Node20 -->
<g id="Node000020" class="node">
<title>Node20</title>
<g id="a_Node000020"><a xlink:href="GlobalsInspectorWidget_8cpp.html" target="_top" xlink:title=" ">
<polygon fill="white" stroke="#666666" points="468,-96 337,-96 337,-66 468,-66 468,-96"/>
<text text-anchor="start" x="345" y="-84" font-family="Helvetica,sans-Serif" font-size="10.00">src/ui/inspector/Globals</text>
<text text-anchor="middle" x="402.5" y="-73" font-family="Helvetica,sans-Serif" font-size="10.00">InspectorWidget.cpp</text>
</a>
</g>
</g>
<!-- Node6&#45;&gt;Node20 -->
<g id="edge36_Node000006_Node000020" class="edge">
<title>Node6&#45;&gt;Node20</title>
<g id="a_edge36_Node000006_Node000020"><a xlink:title=" ">
<path fill="none" stroke="#63b8ff" d="M621.08,-188.78C611.16,-171.8 594.02,-146.65 572.5,-132 554.7,-119.88 505.52,-106.06 464.62,-96.03"/>
<polygon fill="#63b8ff" stroke="#63b8ff" points="618.12,-190.67 626.06,-197.69 624.23,-187.26 618.12,-190.67"/>
</a>
</g>
</g>
<!-- Node21 -->
<g id="Node000021" class="node">
<title>Node21</title>
<g id="a_Node000021"><a xlink:href="InspectorWidget_8cpp.html" target="_top" xlink:title=" ">
<polygon fill="white" stroke="#666666" points="1053,-96 914,-96 914,-66 1053,-66 1053,-96"/>
<text text-anchor="start" x="922" y="-84" font-family="Helvetica,sans-Serif" font-size="10.00">src/ui/inspector/Inspector</text>
<text text-anchor="middle" x="983.5" y="-73" font-family="Helvetica,sans-Serif" font-size="10.00">Widget.cpp</text>
</a>
</g>
</g>
<!-- Node6&#45;&gt;Node21 -->
<g id="edge37_Node000006_Node000021" class="edge">
<title>Node6&#45;&gt;Node21</title>
<g id="a_edge37_Node000006_Node000021"><a xlink:title=" ">
<path fill="none" stroke="#63b8ff" d="M716.54,-196.43C758.53,-189.73 809.21,-178.94 852.5,-162 895.68,-145.1 940.68,-114.22 965.08,-96.16"/>
<polygon fill="#63b8ff" stroke="#63b8ff" points="715.96,-192.98 706.62,-197.96 717.03,-199.9 715.96,-192.98"/>
</a>
</g>
</g>
<!-- Node24 -->
<g id="Node000024" class="node">
<title>Node24</title>
<g id="a_Node000024"><a xlink:href="SceneSerializer_8h.html" target="_top" xlink:title=" ">
<polygon fill="white" stroke="#666666" points="843,-156.5 658,-156.5 658,-137.5 843,-137.5 843,-156.5"/>
<text text-anchor="middle" x="750.5" y="-144.5" font-family="Helvetica,sans-Serif" font-size="10.00">src/graphics/core/SceneSerializer.h</text>
</a>
</g>
</g>
<!-- Node6&#45;&gt;Node24 -->
<g id="edge29_Node000006_Node000024" class="edge">
<title>Node6&#45;&gt;Node24</title>
<g id="a_edge29_Node000006_Node000024"><a xlink:title=" ">
<path fill="none" stroke="#63b8ff" d="M657.2,-193.48C680.33,-182.21 713.11,-166.23 733.03,-156.52"/>
<polygon fill="#63b8ff" stroke="#63b8ff" points="655.4,-190.47 647.95,-197.99 658.47,-196.76 655.4,-190.47"/>
</a>
</g>
</g>
<!-- Node25 -->
<g id="Node000025" class="node">
<title>Node25</title>
<g id="a_Node000025"><a xlink:href="MainWindow_8h.html" target="_top" xlink:title=" ">
<polygon fill="white" stroke="#666666" points="564,-156.5 447,-156.5 447,-137.5 564,-137.5 564,-156.5"/>
<text text-anchor="middle" x="505.5" y="-144.5" font-family="Helvetica,sans-Serif" font-size="10.00">src/ui/MainWindow.h</text>
</a>
</g>
</g>
<!-- Node6&#45;&gt;Node25 -->
<g id="edge32_Node000006_Node000025" class="edge">
<title>Node6&#45;&gt;Node25</title>
<g id="a_edge32_Node000006_Node000025"><a xlink:title=" ">
<path fill="none" stroke="#63b8ff" d="M603.01,-193.63C578.9,-182.35 544.54,-166.27 523.7,-156.52"/>
<polygon fill="#63b8ff" stroke="#63b8ff" points="601.78,-196.92 612.32,-197.99 604.75,-190.58 601.78,-196.92"/>
</a>
</g>
</g>
<!-- Node6&#45;&gt;Node27 -->
<g id="edge35_Node000006_Node000027" class="edge">
<title>Node6&#45;&gt;Node27</title>
<g id="a_edge35_Node000006_Node000027"><a xlink:title=" ">
<path fill="none" stroke="#63b8ff" d="M575.23,-196.1C515.23,-184.82 420.54,-167.01 364.78,-156.52"/>
<polygon fill="#63b8ff" stroke="#63b8ff" points="574.8,-199.58 585.28,-197.99 576.1,-192.71 574.8,-199.58"/>
</a>
</g>
</g>
<!-- Node9&#45;&gt;Node3 -->
<g id="edge10_Node000009_Node000003" class="edge">
<title>Node9&#45;&gt;Node3</title>
<g id="a_edge10_Node000009_Node000003"><a xlink:title=" ">
<path fill="none" stroke="#63b8ff" d="M1674.74,-133.02C1693.88,-123.55 1719.83,-109.96 1741.5,-96 1759.88,-84.16 1760.16,-74.03 1780.5,-66 1860.44,-34.44 2107.65,-22.18 2229.36,-17.96"/>
<polygon fill="#63b8ff" stroke="#63b8ff" points="1673.12,-129.92 1665.67,-137.46 1676.2,-136.21 1673.12,-129.92"/>
</a>
</g>
</g>
<!-- Node9&#45;&gt;Node5 -->
<g id="edge17_Node000009_Node000005" class="edge">
<title>Node9&#45;&gt;Node5</title>
<g id="a_edge17_Node000009_Node000005"><a xlink:title=" ">
<path fill="none" stroke="#63b8ff" d="M1744,-136.54C1833.86,-127.39 1971.47,-112.51 2090.5,-96 2102.05,-94.4 2114.46,-92.47 2126.12,-90.57"/>
<polygon fill="#63b8ff" stroke="#63b8ff" points="1743.43,-133.08 1733.83,-137.57 1744.13,-140.04 1743.43,-133.08"/>
</a>
</g>
</g>
<!-- Node9&#45;&gt;Node7 -->
<g id="edge18_Node000009_Node000007" class="edge">
<title>Node9&#45;&gt;Node7</title>
<g id="a_edge18_Node000009_Node000007"><a xlink:title=" ">
<path fill="none" stroke="#63b8ff" d="M1551.15,-143.45C1378.39,-138.32 1004.63,-124.71 690.5,-96 674.83,-94.57 657.92,-92.57 642.28,-90.53"/>
<polygon fill="#63b8ff" stroke="#63b8ff" points="1551.13,-146.95 1561.23,-143.74 1551.34,-139.95 1551.13,-146.95"/>
</a>
</g>
</g>
<!-- Node9&#45;&gt;Node8 -->
<g id="edge19_Node000009_Node000008" class="edge">
<title>Node9&#45;&gt;Node8</title>
<g id="a_edge19_Node000009_Node000008"><a xlink:title=" ">
<path fill="none" stroke="#63b8ff" d="M1550.82,-144.76C1321.44,-141.34 726.35,-129.68 230.5,-96 209.93,-94.6 187.7,-92.59 167.17,-90.52"/>
<polygon fill="#63b8ff" stroke="#63b8ff" points="1551.09,-148.26 1561.14,-144.91 1551.19,-141.26 1551.09,-148.26"/>
</a>
</g>
</g>
<!-- Node10 -->
<g id="Node000010" class="node">
<title>Node10</title>
<g id="a_Node000010"><a xlink:href="RotateHandle_8cpp.html" target="_top" xlink:title=" ">
<polygon fill="white" stroke="#666666" points="2483.5,-96 2345.5,-96 2345.5,-66 2483.5,-66 2483.5,-96"/>
<text text-anchor="start" x="2353.5" y="-84" font-family="Helvetica,sans-Serif" font-size="10.00">src/graphics/components</text>
<text text-anchor="middle" x="2414.5" y="-73" font-family="Helvetica,sans-Serif" font-size="10.00">/RotateHandle.cpp</text>
</a>
</g>
</g>
<!-- Node9&#45;&gt;Node10 -->
<g id="edge11_Node000009_Node000010" class="edge">
<title>Node9&#45;&gt;Node10</title>
<g id="a_edge11_Node000009_Node000010"><a xlink:title=" ">
<path fill="none" stroke="#63b8ff" d="M1743.88,-138.42C1864.64,-128.85 2077.92,-111.74 2260.5,-96 2288.18,-93.61 2318.65,-90.87 2345.13,-88.44"/>
<polygon fill="#63b8ff" stroke="#63b8ff" points="1743.25,-134.96 1733.56,-139.23 1743.8,-141.93 1743.25,-134.96"/>
</a>
</g>
</g>
<!-- Node9&#45;&gt;Node11 -->
<g id="edge12_Node000009_Node000011" class="edge">
<title>Node9&#45;&gt;Node11</title>
<g id="a_edge12_Node000009_Node000011"><a xlink:title=" ">
<path fill="none" stroke="#63b8ff" d="M1590.46,-135.63C1528.86,-124.43 1430.7,-106.58 1364.73,-94.59"/>
<polygon fill="#63b8ff" stroke="#63b8ff" points="1589.93,-139.09 1600.39,-137.44 1591.18,-132.2 1589.93,-139.09"/>
</a>
</g>
</g>
<!-- Node13 -->
<g id="Node000013" class="node">
<title>Node13</title>
<g id="a_Node000013"><a xlink:href="TranslateHandle_8cpp.html" target="_top" xlink:title=" ">
<polygon fill="white" stroke="#666666" points="2639.5,-96 2501.5,-96 2501.5,-66 2639.5,-66 2639.5,-96"/>
<text text-anchor="start" x="2509.5" y="-84" font-family="Helvetica,sans-Serif" font-size="10.00">src/graphics/components</text>
<text text-anchor="middle" x="2570.5" y="-73" font-family="Helvetica,sans-Serif" font-size="10.00">/TranslateHandle.cpp</text>
</a>
</g>
</g>
<!-- Node9&#45;&gt;Node13 -->
<g id="edge15_Node000009_Node000013" class="edge">
<title>Node9&#45;&gt;Node13</title>
<g id="a_edge15_Node000009_Node000013"><a xlink:title=" ">
<path fill="none" stroke="#63b8ff" d="M1743.67,-144.02C1900.83,-139.94 2222.26,-128.13 2492.5,-96 2495.37,-95.66 2498.29,-95.28 2501.24,-94.87"/>
<polygon fill="#63b8ff" stroke="#63b8ff" points="1743.47,-140.52 1733.56,-144.27 1743.65,-147.52 1743.47,-140.52"/>
</a>
</g>
</g>
<!-- Node14 -->
<g id="Node000014" class="node">
<title>Node14</title>
<g id="a_Node000014"><a xlink:href="Camera_8cpp.html" target="_top" xlink:title=" ">
<polygon fill="white" stroke="#666666" points="1544,-90.5 1383,-90.5 1383,-71.5 1544,-71.5 1544,-90.5"/>
<text text-anchor="middle" x="1463.5" y="-78.5" font-family="Helvetica,sans-Serif" font-size="10.00">src/graphics/core/Camera.cpp</text>
</a>
</g>
</g>
<!-- Node9&#45;&gt;Node14 -->
<g id="edge16_Node000009_Node000014" class="edge">
<title>Node9&#45;&gt;Node14</title>
<g id="a_edge16_Node000009_Node000014"><a xlink:title=" ">
<path fill="none" stroke="#63b8ff" d="M1613,-134C1576.67,-121.36 1520.35,-101.78 1488.22,-90.6"/>
<polygon fill="#63b8ff" stroke="#63b8ff" points="1612.09,-137.39 1622.68,-137.37 1614.39,-130.78 1612.09,-137.39"/>
</a>
</g>
</g>
<!-- Node15 -->
<g id="Node000015" class="node">
<title>Node15</title>
<g id="a_Node000015"><a xlink:href="SceneSerializer_8cpp.html" target="_top" xlink:title=" ">
<polygon fill="white" stroke="#666666" points="896,-90.5 699,-90.5 699,-71.5 896,-71.5 896,-90.5"/>
<text text-anchor="middle" x="797.5" y="-78.5" font-family="Helvetica,sans-Serif" font-size="10.00">src/graphics/core/SceneSerializer.cpp</text>
</a>
</g>
</g>
<!-- Node9&#45;&gt;Node15 -->
<g id="edge20_Node000009_Node000015" class="edge">
<title>Node9&#45;&gt;Node15</title>
<g id="a_edge20_Node000009_Node000015"><a xlink:title=" ">
<path fill="none" stroke="#63b8ff" d="M1550.99,-141.4C1409.28,-134.21 1136.62,-118.75 905.5,-96 890.07,-94.48 873.45,-92.5 857.97,-90.51"/>
<polygon fill="#63b8ff" stroke="#63b8ff" points="1551.22,-144.92 1561.39,-141.92 1551.57,-137.92 1551.22,-144.92"/>
</a>
</g>
</g>
<!-- Node16 -->
<g id="Node000016" class="node">
<title>Node16</title>
<g id="a_Node000016"><a xlink:href="HierarchyWidget_8h.html" target="_top" xlink:title=" ">
<polygon fill="white" stroke="#666666" points="1208,-90.5 1071,-90.5 1071,-71.5 1208,-71.5 1208,-90.5"/>
<text text-anchor="middle" x="1139.5" y="-78.5" font-family="Helvetica,sans-Serif" font-size="10.00">src/ui/HierarchyWidget.h</text>
</a>
</g>
</g>
<!-- Node9&#45;&gt;Node16 -->
<g id="edge21_Node000009_Node000016" class="edge">
<title>Node9&#45;&gt;Node16</title>
<g id="a_edge21_Node000009_Node000016"><a xlink:title=" ">
<path fill="none" stroke="#63b8ff" d="M1551.07,-136.51C1463.77,-127.51 1331.75,-112.88 1217.5,-96 1206.75,-94.41 1195.2,-92.47 1184.38,-90.55"/>
<polygon fill="#63b8ff" stroke="#63b8ff" points="1550.92,-140.01 1561.22,-137.55 1551.63,-133.05 1550.92,-140.01"/>
</a>
</g>
</g>
<!-- Node19 -->
<g id="Node000019" class="node">
<title>Node19</title>
<g id="a_Node000019"><a xlink:href="ForcesInspectorWidget_8cpp.html" target="_top" xlink:title=" ">
<polygon fill="white" stroke="#666666" points="1732.5,-96 1562.5,-96 1562.5,-66 1732.5,-66 1732.5,-96"/>
<text text-anchor="start" x="1570.5" y="-84" font-family="Helvetica,sans-Serif" font-size="10.00">src/ui/inspector/ForcesInspector</text>
<text text-anchor="middle" x="1647.5" y="-73" font-family="Helvetica,sans-Serif" font-size="10.00">Widget.cpp</text>
</a>
</g>
</g>
<!-- Node9&#45;&gt;Node19 -->
<g id="edge24_Node000009_Node000019" class="edge">
<title>Node9&#45;&gt;Node19</title>
<g id="a_edge24_Node000009_Node000019"><a xlink:title=" ">
<path fill="none" stroke="#63b8ff" d="M1647.5,-127.35C1647.5,-117.47 1647.5,-105.51 1647.5,-96.36"/>
<polygon fill="#63b8ff" stroke="#63b8ff" points="1644,-127.37 1647.5,-137.37 1651,-127.37 1644,-127.37"/>
</a>
</g>
</g>
<!-- Node9&#45;&gt;Node20 -->
<g id="edge25_Node000009_Node000020" class="edge">
<title>Node9&#45;&gt;Node20</title>
<g id="a_edge25_Node000009_Node000020"><a xlink:title=" ">
<path fill="none" stroke="#63b8ff" d="M1551.09,-146.49C1350.55,-146.51 874.1,-141.26 477.5,-96 474.47,-95.65 471.38,-95.26 468.27,-94.82"/>
<polygon fill="#63b8ff" stroke="#63b8ff" points="1551.31,-149.99 1561.3,-146.49 1551.3,-142.99 1551.31,-149.99"/>
</a>
</g>
</g>
<!-- Node9&#45;&gt;Node21 -->
<g id="edge26_Node000009_Node000021" class="edge">
<title>Node9&#45;&gt;Node21</title>
<g id="a_edge26_Node000009_Node000021"><a xlink:title=" ">
<path fill="none" stroke="#63b8ff" d="M1551.21,-140.44C1435.04,-133.12 1233.94,-118.47 1062.5,-96 1059.46,-95.6 1056.36,-95.17 1053.23,-94.71"/>
<polygon fill="#63b8ff" stroke="#63b8ff" points="1551.3,-143.95 1561.49,-141.08 1551.73,-136.97 1551.3,-143.95"/>
</a>
</g>
</g>
<!-- Node22 -->
<g id="Node000022" class="node">
<title>Node22</title>
<g id="a_Node000022"><a xlink:href="PhysicsInspectorWidget_8cpp.html" target="_top" xlink:title=" ">
<polygon fill="white" stroke="#666666" points="1920,-96 1789,-96 1789,-66 1920,-66 1920,-96"/>
<text text-anchor="start" x="1797" y="-84" font-family="Helvetica,sans-Serif" font-size="10.00">src/ui/inspector/Physics</text>
<text text-anchor="middle" x="1854.5" y="-73" font-family="Helvetica,sans-Serif" font-size="10.00">InspectorWidget.cpp</text>
</a>
</g>
</g>
<!-- Node9&#45;&gt;Node22 -->
<g id="edge27_Node000009_Node000022" class="edge">
<title>Node9&#45;&gt;Node22</title>
<g id="a_edge27_Node000009_Node000022"><a xlink:title=" ">
<path fill="none" stroke="#63b8ff" d="M1685.19,-134.35C1719.98,-123.59 1771.73,-107.59 1808.84,-96.12"/>
<polygon fill="#63b8ff" stroke="#63b8ff" points="1683.94,-131.07 1675.42,-137.37 1686,-137.76 1683.94,-131.07"/>
</a>
</g>
</g>
<!-- Node23 -->
<g id="Node000023" class="node">
<title>Node23</title>
<g id="a_Node000023"><a xlink:href="TransformInspectorWidget_8cpp.html" target="_top" xlink:title=" ">
<polygon fill="white" stroke="#666666" points="2081,-96 1938,-96 1938,-66 2081,-66 2081,-96"/>
<text text-anchor="start" x="1946" y="-84" font-family="Helvetica,sans-Serif" font-size="10.00">src/ui/inspector/Transform</text>
<text text-anchor="middle" x="2009.5" y="-73" font-family="Helvetica,sans-Serif" font-size="10.00">InspectorWidget.cpp</text>
</a>
</g>
</g>
<!-- Node9&#45;&gt;Node23 -->
<g id="edge28_Node000009_Node000023" class="edge">
<title>Node9&#45;&gt;Node23</title>
<g id="a_edge28_Node000009_Node000023"><a xlink:title=" ">
<path fill="none" stroke="#63b8ff" d="M1706.15,-135.63C1769.39,-124.45 1870.12,-106.64 1937.97,-94.65"/>
<polygon fill="#63b8ff" stroke="#63b8ff" points="1705.18,-132.25 1695.95,-137.44 1706.4,-139.14 1705.18,-132.25"/>
</a>
</g>
</g>
<!-- Node11&#45;&gt;Node3 -->
<g id="edge13_Node000011_Node000003" class="edge">
<title>Node11&#45;&gt;Node3</title>
<g id="a_edge13_Node000011_Node000003"><a xlink:title=" ">
<path fill="none" stroke="#63b8ff" d="M1374.89,-66.07C1700.32,-29.15 2076.81,-19.44 2229.29,-16.88"/>
<polygon fill="#63b8ff" stroke="#63b8ff" points="1374.33,-62.62 1364.79,-67.23 1375.13,-69.57 1374.33,-62.62"/>
</a>
</g>
</g>
<!-- Node12 -->
<g id="Node000012" class="node">
<title>Node12</title>
<g id="a_Node000012"><a xlink:href="ScaleHandle_8cpp.html" target="_top" xlink:title=" ">
<polygon fill="white" stroke="#666666" points="1366.5,-30 1228.5,-30 1228.5,0 1366.5,0 1366.5,-30"/>
<text text-anchor="start" x="1236.5" y="-18" font-family="Helvetica,sans-Serif" font-size="10.00">src/graphics/components</text>
<text text-anchor="middle" x="1297.5" y="-7" font-family="Helvetica,sans-Serif" font-size="10.00">/ScaleHandle.cpp</text>
</a>
</g>
</g>
<!-- Node11&#45;&gt;Node12 -->
<g id="edge14_Node000011_Node000012" class="edge">
<title>Node11&#45;&gt;Node12</title>
<g id="a_edge14_Node000011_Node000012"><a xlink:title=" ">
<path fill="none" stroke="#63b8ff" d="M1296.26,-55.54C1296.53,-46.96 1296.82,-37.61 1297.06,-30.16"/>
<polygon fill="#63b8ff" stroke="#63b8ff" points="1292.76,-55.69 1295.94,-65.8 1299.75,-55.91 1292.76,-55.69"/>
</a>
</g>
</g>
<!-- Node17 -->
<g id="Node000017" class="node">
<title>Node17</title>
<g id="a_Node000017"><a xlink:href="HierarchyWidget_8cpp.html" target="_top" xlink:title=" ">
<polygon fill="white" stroke="#666666" points="1210.5,-24.5 1062.5,-24.5 1062.5,-5.5 1210.5,-5.5 1210.5,-24.5"/>
<text text-anchor="middle" x="1136.5" y="-12.5" font-family="Helvetica,sans-Serif" font-size="10.00">src/ui/HierarchyWidget.cpp</text>
</a>
</g>
</g>
<!-- Node16&#45;&gt;Node17 -->
<g id="edge22_Node000016_Node000017" class="edge">
<title>Node16&#45;&gt;Node17</title>
<g id="a_edge22_Node000016_Node000017"><a xlink:title=" ">
<path fill="none" stroke="#63b8ff" d="M1138.61,-61.08C1138.05,-49.13 1137.35,-34.22 1136.92,-24.91"/>
<polygon fill="#63b8ff" stroke="#63b8ff" points="1135.13,-61.54 1139.1,-71.37 1142.12,-61.22 1135.13,-61.54"/>
</a>
</g>
</g>
<!-- Node18 -->
<g id="Node000018" class="node">
<title>Node18</title>
<g id="a_Node000018"><a xlink:href="MainWindow_8cpp.html" target="_top" xlink:title=" ">
<polygon fill="white" stroke="#666666" points="661.5,-24.5 533.5,-24.5 533.5,-5.5 661.5,-5.5 661.5,-24.5"/>
<text text-anchor="middle" x="597.5" y="-12.5" font-family="Helvetica,sans-Serif" font-size="10.00">src/ui/MainWindow.cpp</text>
</a>
</g>
</g>
<!-- Node16&#45;&gt;Node18 -->
<g id="edge23_Node000016_Node000018" class="edge">
<title>Node16&#45;&gt;Node18</title>
<g id="a_edge23_Node000016_Node000018"><a xlink:title=" ">
<path fill="none" stroke="#63b8ff" d="M1085.57,-69.68C1077.85,-68.35 1069.98,-67.08 1062.5,-66 919.86,-45.39 751.47,-29.32 661.62,-21.41"/>
<polygon fill="#63b8ff" stroke="#63b8ff" points="1085.16,-73.16 1095.61,-71.45 1086.37,-66.27 1085.16,-73.16"/>
</a>
</g>
</g>
<!-- Node24&#45;&gt;Node7 -->
<g id="edge30_Node000024_Node000007" class="edge">
<title>Node24&#45;&gt;Node7</title>
<g id="a_edge30_Node000024_Node000007"><a xlink:title=" ">
<path fill="none" stroke="#63b8ff" d="M718.34,-133.68C685.34,-121.03 634.85,-101.68 605.93,-90.6"/>
<polygon fill="#63b8ff" stroke="#63b8ff" points="717.39,-137.06 727.98,-137.37 719.89,-130.52 717.39,-137.06"/>
</a>
</g>
</g>
<!-- Node24&#45;&gt;Node15 -->
<g id="edge31_Node000024_Node000015" class="edge">
<title>Node24&#45;&gt;Node15</title>
<g id="a_edge31_Node000024_Node000015"><a xlink:title=" ">
<path fill="none" stroke="#63b8ff" d="M762.79,-129.27C771.8,-116.99 783.7,-100.8 790.96,-90.91"/>
<polygon fill="#63b8ff" stroke="#63b8ff" points="759.94,-127.24 756.84,-137.37 765.58,-131.38 759.94,-127.24"/>
</a>
</g>
</g>
<!-- Node25&#45;&gt;Node18 -->
<g id="edge34_Node000025_Node000018" class="edge">
<title>Node25&#45;&gt;Node18</title>
<g id="a_edge34_Node000025_Node000018"><a xlink:title=" ">
<path fill="none" stroke="#63b8ff" d="M451.52,-135.57C445.11,-134.35 438.66,-133.14 432.5,-132 339.63,-114.82 168.39,-137.15 230.5,-66 269.04,-21.86 438.71,-15.23 533.27,-15.07"/>
<polygon fill="#63b8ff" stroke="#63b8ff" points="451.03,-139.04 461.51,-137.47 452.34,-132.16 451.03,-139.04"/>
</a>
</g>
</g>
<!-- Node26 -->
<g id="Node000026" class="node">
<title>Node26</title>
<g id="a_Node000026"><a xlink:href="main_8cpp.html" target="_top" xlink:title=" ">
<polygon fill="white" stroke="#666666" points="319,-90.5 240,-90.5 240,-71.5 319,-71.5 319,-90.5"/>
<text text-anchor="middle" x="279.5" y="-78.5" font-family="Helvetica,sans-Serif" font-size="10.00">src/main.cpp</text>
</a>
</g>
</g>
<!-- Node25&#45;&gt;Node26 -->
<g id="edge33_Node000025_Node000026" class="edge">
<title>Node25&#45;&gt;Node26</title>
<g id="a_edge33_Node000025_Node000026"><a xlink:title=" ">
<path fill="none" stroke="#63b8ff" d="M464.92,-134.73C428.82,-124.67 374.61,-109.49 327.5,-96 321.41,-94.26 314.89,-92.37 308.68,-90.56"/>
<polygon fill="#63b8ff" stroke="#63b8ff" points="464.03,-138.11 474.6,-137.42 465.91,-131.37 464.03,-138.11"/>
</a>
</g>
</g>
<!-- Node28&#45;&gt;Node3 -->
<g id="edge42_Node000028_Node000003" class="edge">
<title>Node28&#45;&gt;Node3</title>
<g id="a_edge42_Node000028_Node000003"><a xlink:title=" ">
<path fill="none" stroke="#63b8ff" d="M2493.53,-131.55C2559.46,-119.12 2643.46,-102.23 2648.5,-96 2656.89,-85.63 2657.24,-76.07 2648.5,-66 2612.91,-24.96 2459.22,-16.77 2367.75,-15.62"/>
<polygon fill="#63b8ff" stroke="#63b8ff" points="2492.71,-128.14 2483.53,-133.43 2494,-135.02 2492.71,-128.14"/>
</a>
</g>
</g>
<!-- Node28&#45;&gt;Node10 -->
<g id="edge43_Node000028_Node000010" class="edge">
<title>Node28&#45;&gt;Node10</title>
<g id="a_edge43_Node000028_Node000010"><a xlink:title=" ">
<path fill="none" stroke="#63b8ff" d="M2414.5,-121.54C2414.5,-112.96 2414.5,-103.61 2414.5,-96.16"/>
<polygon fill="#63b8ff" stroke="#63b8ff" points="2411,-121.8 2414.5,-131.8 2418,-121.8 2411,-121.8"/>
</a>
</g>
</g>
<!-- Node29&#45;&gt;Node3 -->
<g id="edge46_Node000029_Node000003" class="edge">
<title>Node29&#45;&gt;Node3</title>
<g id="a_edge46_Node000029_Node000003"><a xlink:title=" ">
<path fill="none" stroke="#63b8ff" d="M2618.73,-127.88C2651.85,-112.76 2686.37,-89.9 2665.5,-66 2627.65,-22.64 2463.3,-15.47 2367.86,-15.08"/>
<polygon fill="#63b8ff" stroke="#63b8ff" points="2617.23,-124.71 2609.47,-131.93 2620.03,-131.13 2617.23,-124.71"/>
</a>
</g>
</g>
<!-- Node29&#45;&gt;Node13 -->
<g id="edge47_Node000029_Node000013" class="edge">
<title>Node29&#45;&gt;Node13</title>
<g id="a_edge47_Node000029_Node000013"><a xlink:title=" ">
<path fill="none" stroke="#63b8ff" d="M2570.5,-121.54C2570.5,-112.96 2570.5,-103.61 2570.5,-96.16"/>
<polygon fill="#63b8ff" stroke="#63b8ff" points="2567,-121.8 2570.5,-131.8 2574,-121.8 2567,-121.8"/>
</a>
</g>
</g>
</g>
</svg>
