<?xml version="1.0" encoding="UTF-8" standalone="no"?>
<!DOCTYPE svg PUBLIC "-//W3C//DTD SVG 1.1//EN"
 "http://www.w3.org/Graphics/SVG/1.1/DTD/svg11.dtd">
<!-- Generated by graphviz version 2.43.0 (0)
 -->
<!-- Title: src/graphics/components/IHandle.h Pages: 1 -->
<svg width="547pt" height="390pt"
 viewBox="0.00 0.00 546.51 390.00" xmlns="http://www.w3.org/2000/svg" xmlns:xlink="http://www.w3.org/1999/xlink">
<g id="graph0" class="graph" transform="scale(1 1) rotate(0) translate(4 386)">
<title>src/graphics/components/IHandle.h</title>
<!-- Node1 -->
<g id="Node000001" class="node">
<title>Node1</title>
<g id="a_Node000001"><a xlink:title="Interface for interactive manipulation handles on gizmos.">
<polygon fill="#999999" stroke="#666666" points="354.51,-382 216.51,-382 216.51,-352 354.51,-352 354.51,-382"/>
<text text-anchor="start" x="224.51" y="-370" font-family="Helvetica,sans-Serif" font-size="10.00">src/graphics/components</text>
<text text-anchor="middle" x="285.51" y="-359" font-family="Helvetica,sans-Serif" font-size="10.00">/IHandle.h</text>
</a>
</g>
</g>
<!-- Node2 -->
<g id="Node000002" class="node">
<title>Node2</title>
<g id="a_Node000002"><a xlink:href="IDrawable_8h.html" target="_top" xlink:title="Core interfaces for the rendering system supporting both instanced and custom drawing.">
<polygon fill="white" stroke="#666666" points="202.51,-316 94.51,-316 94.51,-297 202.51,-297 202.51,-316"/>
<text text-anchor="middle" x="148.51" y="-304" font-family="Helvetica,sans-Serif" font-size="10.00">../core/IDrawable.h</text>
</a>
</g>
</g>
<!-- Node1&#45;&gt;Node2 -->
<g id="edge1_Node000001_Node000002" class="edge">
<title>Node1&#45;&gt;Node2</title>
<g id="a_edge1_Node000001_Node000002"><a xlink:title=" ">
<path fill="none" stroke="#63b8ff" d="M252.7,-351.99C230.04,-342.31 200.17,-329.56 178.22,-320.18"/>
<polygon fill="#63b8ff" stroke="#63b8ff" points="179.32,-316.85 168.74,-316.14 176.57,-323.29 179.32,-316.85"/>
</a>
</g>
</g>
<!-- Node16 -->
<g id="Node000016" class="node">
<title>Node16</title>
<g id="a_Node000016"><a xlink:title=" ">
<polygon fill="#e0e0e0" stroke="#999999" points="350.51,-316 220.51,-316 220.51,-297 350.51,-297 350.51,-316"/>
<text text-anchor="middle" x="285.51" y="-304" font-family="Helvetica,sans-Serif" font-size="10.00">glm/gtc/quaternion.hpp</text>
</a>
</g>
</g>
<!-- Node1&#45;&gt;Node16 -->
<g id="edge20_Node000001_Node000016" class="edge">
<title>Node1&#45;&gt;Node16</title>
<g id="a_edge20_Node000001_Node000016"><a xlink:title=" ">
<path fill="none" stroke="#63b8ff" d="M285.51,-351.84C285.51,-344.21 285.51,-334.7 285.51,-326.45"/>
<polygon fill="#63b8ff" stroke="#63b8ff" points="289.01,-326.27 285.51,-316.27 282.01,-326.27 289.01,-326.27"/>
</a>
</g>
</g>
<!-- Node17 -->
<g id="Node000017" class="node">
<title>Node17</title>
<g id="a_Node000017"><a xlink:href="Axis_8h.html" target="_top" xlink:title=" ">
<polygon fill="white" stroke="#666666" points="416.01,-316 369.01,-316 369.01,-297 416.01,-297 416.01,-316"/>
<text text-anchor="middle" x="392.51" y="-304" font-family="Helvetica,sans-Serif" font-size="10.00">Axis.h</text>
</a>
</g>
</g>
<!-- Node1&#45;&gt;Node17 -->
<g id="edge21_Node000001_Node000017" class="edge">
<title>Node1&#45;&gt;Node17</title>
<g id="a_edge21_Node000001_Node000017"><a xlink:title=" ">
<path fill="none" stroke="#63b8ff" d="M311.14,-351.99C328.36,-342.58 350.91,-330.24 367.91,-320.95"/>
<polygon fill="#63b8ff" stroke="#63b8ff" points="369.62,-324.01 376.71,-316.14 366.26,-317.87 369.62,-324.01"/>
</a>
</g>
</g>
<!-- Node3 -->
<g id="Node000003" class="node">
<title>Node3</title>
<g id="a_Node000003"><a xlink:href="Shader_8h.html" target="_top" xlink:title=" ">
<polygon fill="white" stroke="#666666" points="140.01,-261 19.01,-261 19.01,-231 140.01,-231 140.01,-261"/>
<text text-anchor="start" x="27.01" y="-249" font-family="Helvetica,sans-Serif" font-size="10.00">graphics/components</text>
<text text-anchor="middle" x="79.51" y="-238" font-family="Helvetica,sans-Serif" font-size="10.00">/Shader.h</text>
</a>
</g>
</g>
<!-- Node2&#45;&gt;Node3 -->
<g id="edge2_Node000002_Node000003" class="edge">
<title>Node2&#45;&gt;Node3</title>
<g id="a_edge2_Node000002_Node000003"><a xlink:title=" ">
<path fill="none" stroke="#63b8ff" d="M138.33,-296.87C129.32,-289.22 115.79,-277.76 103.98,-267.75"/>
<polygon fill="#63b8ff" stroke="#63b8ff" points="106.05,-264.91 96.16,-261.11 101.52,-270.25 106.05,-264.91"/>
</a>
</g>
</g>
<!-- Node7 -->
<g id="Node000007" class="node">
<title>Node7</title>
<g id="a_Node000007"><a xlink:href="Mesh_8h.html" target="_top" xlink:title=" ">
<polygon fill="white" stroke="#666666" points="303.01,-261 182.01,-261 182.01,-231 303.01,-231 303.01,-261"/>
<text text-anchor="start" x="190.01" y="-249" font-family="Helvetica,sans-Serif" font-size="10.00">graphics/components</text>
<text text-anchor="middle" x="242.51" y="-238" font-family="Helvetica,sans-Serif" font-size="10.00">/Mesh.h</text>
</a>
</g>
</g>
<!-- Node2&#45;&gt;Node7 -->
<g id="edge6_Node000002_Node000007" class="edge">
<title>Node2&#45;&gt;Node7</title>
<g id="a_edge6_Node000002_Node000007"><a xlink:title=" ">
<path fill="none" stroke="#63b8ff" d="M162.38,-296.87C175.14,-288.93 194.52,-276.87 211.02,-266.6"/>
<polygon fill="#63b8ff" stroke="#63b8ff" points="213.19,-269.37 219.83,-261.11 209.49,-263.43 213.19,-269.37"/>
</a>
</g>
</g>
<!-- Node4 -->
<g id="Node000004" class="node">
<title>Node4</title>
<g id="a_Node000004"><a xlink:title=" ">
<polygon fill="#e0e0e0" stroke="#999999" points="57.51,-189.5 13.51,-189.5 13.51,-170.5 57.51,-170.5 57.51,-189.5"/>
<text text-anchor="middle" x="35.51" y="-177.5" font-family="Helvetica,sans-Serif" font-size="10.00">string</text>
</a>
</g>
</g>
<!-- Node3&#45;&gt;Node4 -->
<g id="edge3_Node000003_Node000004" class="edge">
<title>Node3&#45;&gt;Node4</title>
<g id="a_edge3_Node000003_Node000004"><a xlink:title=" ">
<path fill="none" stroke="#63b8ff" d="M69.75,-230.8C63.16,-221.21 54.42,-208.5 47.42,-198.32"/>
<polygon fill="#63b8ff" stroke="#63b8ff" points="50.14,-196.1 41.59,-189.84 44.37,-200.07 50.14,-196.1"/>
</a>
</g>
</g>
<!-- Node5 -->
<g id="Node000005" class="node">
<title>Node5</title>
<g id="a_Node000005"><a xlink:title=" ">
<polygon fill="#e0e0e0" stroke="#999999" points="298.51,-74 220.51,-74 220.51,-55 298.51,-55 298.51,-74"/>
<text text-anchor="middle" x="259.51" y="-62" font-family="Helvetica,sans-Serif" font-size="10.00">glm/glm.hpp</text>
</a>
</g>
</g>
<!-- Node3&#45;&gt;Node5 -->
<g id="edge4_Node000003_Node000005" class="edge">
<title>Node3&#45;&gt;Node5</title>
<g id="a_edge4_Node000003_Node000005"><a xlink:title=" ">
<path fill="none" stroke="#63b8ff" d="M44.44,-230.85C29.28,-222.77 13.08,-211 4.51,-195 -1.78,-183.24 -0.96,-177.16 4.51,-165 38.76,-88.84 146.13,-70.35 210.11,-66.25"/>
<polygon fill="#63b8ff" stroke="#63b8ff" points="210.58,-69.73 220.37,-65.69 210.2,-62.74 210.58,-69.73"/>
</a>
</g>
</g>
<!-- Node6 -->
<g id="Node000006" class="node">
<title>Node6</title>
<g id="a_Node000006"><a xlink:title=" ">
<polygon fill="#e0e0e0" stroke="#999999" points="195.51,-195 75.51,-195 75.51,-165 195.51,-165 195.51,-195"/>
<text text-anchor="start" x="83.51" y="-183" font-family="Helvetica,sans-Serif" font-size="10.00">QOpenGLFunctions_4</text>
<text text-anchor="middle" x="135.51" y="-172" font-family="Helvetica,sans-Serif" font-size="10.00">_5_Core</text>
</a>
</g>
</g>
<!-- Node3&#45;&gt;Node6 -->
<g id="edge5_Node000003_Node000006" class="edge">
<title>Node3&#45;&gt;Node6</title>
<g id="a_edge5_Node000003_Node000006"><a xlink:title=" ">
<path fill="none" stroke="#63b8ff" d="M91.94,-230.8C99.12,-222.59 108.3,-212.1 116.38,-202.87"/>
<polygon fill="#63b8ff" stroke="#63b8ff" points="119.17,-204.99 123.12,-195.16 113.9,-200.38 119.17,-204.99"/>
</a>
</g>
</g>
<!-- Node7&#45;&gt;Node5 -->
<g id="edge9_Node000007_Node000005" class="edge">
<title>Node7&#45;&gt;Node5</title>
<g id="a_edge9_Node000007_Node000005"><a xlink:title=" ">
<path fill="none" stroke="#63b8ff" d="M243.85,-230.91C246.88,-198.85 254.31,-120.38 257.74,-84.26"/>
<polygon fill="#63b8ff" stroke="#63b8ff" points="261.24,-84.42 258.69,-74.13 254.27,-83.76 261.24,-84.42"/>
</a>
</g>
</g>
<!-- Node7&#45;&gt;Node6 -->
<g id="edge7_Node000007_Node000006" class="edge">
<title>Node7&#45;&gt;Node6</title>
<g id="a_edge7_Node000007_Node000006"><a xlink:title=" ">
<path fill="none" stroke="#63b8ff" d="M219.03,-230.95C203.98,-221.95 184.24,-210.14 167.73,-200.27"/>
<polygon fill="#63b8ff" stroke="#63b8ff" points="169.32,-197.14 158.94,-195.01 165.72,-203.15 169.32,-197.14"/>
</a>
</g>
</g>
<!-- Node8 -->
<g id="Node000008" class="node">
<title>Node8</title>
<g id="a_Node000008"><a xlink:title=" ">
<polygon fill="#e0e0e0" stroke="#999999" points="337.01,-189.5 290.01,-189.5 290.01,-170.5 337.01,-170.5 337.01,-189.5"/>
<text text-anchor="middle" x="313.51" y="-177.5" font-family="Helvetica,sans-Serif" font-size="10.00">vector</text>
</a>
</g>
</g>
<!-- Node7&#45;&gt;Node8 -->
<g id="edge8_Node000007_Node000008" class="edge">
<title>Node7&#45;&gt;Node8</title>
<g id="a_edge8_Node000007_Node000008"><a xlink:title=" ">
<path fill="none" stroke="#63b8ff" d="M258.27,-230.8C269.45,-220.72 284.45,-207.19 296,-196.78"/>
<polygon fill="#63b8ff" stroke="#63b8ff" points="298.62,-199.14 303.7,-189.84 293.93,-193.94 298.62,-199.14"/>
</a>
</g>
</g>
<!-- Node9 -->
<g id="Node000009" class="node">
<title>Node9</title>
<g id="a_Node000009"><a xlink:href="AABB_8h.html" target="_top" xlink:title=" ">
<polygon fill="white" stroke="#666666" points="495.51,-189.5 355.51,-189.5 355.51,-170.5 495.51,-170.5 495.51,-189.5"/>
<text text-anchor="middle" x="425.51" y="-177.5" font-family="Helvetica,sans-Serif" font-size="10.00">physics/bounding/AABB.h</text>
</a>
</g>
</g>
<!-- Node7&#45;&gt;Node9 -->
<g id="edge10_Node000007_Node000009" class="edge">
<title>Node7&#45;&gt;Node9</title>
<g id="a_edge10_Node000007_Node000009"><a xlink:title=" ">
<path fill="none" stroke="#63b8ff" d="M282.67,-230.95C315.33,-219.53 360.89,-203.6 391.71,-192.82"/>
<polygon fill="#63b8ff" stroke="#63b8ff" points="392.87,-196.12 401.16,-189.52 390.56,-189.51 392.87,-196.12"/>
</a>
</g>
</g>
<!-- Node15 -->
<g id="Node000015" class="node">
<title>Node15</title>
<g id="a_Node000015"><a xlink:href="InstanceData_8h.html" target="_top" xlink:title=" ">
<polygon fill="white" stroke="#666666" points="233.51,-129 75.51,-129 75.51,-110 233.51,-110 233.51,-129"/>
<text text-anchor="middle" x="154.51" y="-117" font-family="Helvetica,sans-Serif" font-size="10.00">graphics/core/InstanceData.h</text>
</a>
</g>
</g>
<!-- Node7&#45;&gt;Node15 -->
<g id="edge18_Node000007_Node000015" class="edge">
<title>Node7&#45;&gt;Node15</title>
<g id="a_edge18_Node000007_Node000015"><a xlink:title=" ">
<path fill="none" stroke="#63b8ff" d="M237.73,-230.76C231.67,-213.99 220.1,-185.79 204.51,-165 196.21,-153.93 184.81,-143.52 174.99,-135.57"/>
<polygon fill="#63b8ff" stroke="#63b8ff" points="176.92,-132.64 166.89,-129.25 172.62,-138.16 176.92,-132.64"/>
</a>
</g>
</g>
<!-- Node9&#45;&gt;Node5 -->
<g id="edge11_Node000009_Node000005" class="edge">
<title>Node9&#45;&gt;Node5</title>
<g id="a_edge11_Node000009_Node000005"><a xlink:title=" ">
<path fill="none" stroke="#63b8ff" d="M413.04,-170.47C384.8,-151.16 315.72,-103.93 280.66,-79.96"/>
<polygon fill="#63b8ff" stroke="#63b8ff" points="282.36,-76.88 272.13,-74.13 278.41,-82.66 282.36,-76.88"/>
</a>
</g>
</g>
<!-- Node10 -->
<g id="Node000010" class="node">
<title>Node10</title>
<g id="a_Node000010"><a xlink:href="ICollider_8h.html" target="_top" xlink:title="Abstract interface for collision detection shapes.">
<polygon fill="white" stroke="#666666" points="458.01,-129 393.01,-129 393.01,-110 458.01,-110 458.01,-129"/>
<text text-anchor="middle" x="425.51" y="-117" font-family="Helvetica,sans-Serif" font-size="10.00">ICollider.h</text>
</a>
</g>
</g>
<!-- Node9&#45;&gt;Node10 -->
<g id="edge12_Node000009_Node000010" class="edge">
<title>Node9&#45;&gt;Node10</title>
<g id="a_edge12_Node000009_Node000010"><a xlink:title=" ">
<path fill="none" stroke="#63b8ff" d="M425.51,-170.37C425.51,-162.25 425.51,-149.81 425.51,-139.39"/>
<polygon fill="#63b8ff" stroke="#63b8ff" points="429.01,-139.17 425.51,-129.17 422.01,-139.17 429.01,-139.17"/>
</a>
</g>
</g>
<!-- Node10&#45;&gt;Node5 -->
<g id="edge13_Node000010_Node000005" class="edge">
<title>Node10&#45;&gt;Node5</title>
<g id="a_edge13_Node000010_Node000005"><a xlink:title=" ">
<path fill="none" stroke="#63b8ff" d="M398.84,-109.98C370.97,-101.09 327.06,-87.07 295.99,-77.15"/>
<polygon fill="#63b8ff" stroke="#63b8ff" points="296.98,-73.79 286.39,-74.08 294.85,-80.46 296.98,-73.79"/>
</a>
</g>
</g>
<!-- Node11 -->
<g id="Node000011" class="node">
<title>Node11</title>
<g id="a_Node000011"><a xlink:title=" ">
<polygon fill="#e0e0e0" stroke="#999999" points="538.51,-74 480.51,-74 480.51,-55 538.51,-55 538.51,-74"/>
<text text-anchor="middle" x="509.51" y="-62" font-family="Helvetica,sans-Serif" font-size="10.00">memory</text>
</a>
</g>
</g>
<!-- Node10&#45;&gt;Node11 -->
<g id="edge14_Node000010_Node000011" class="edge">
<title>Node10&#45;&gt;Node11</title>
<g id="a_edge14_Node000010_Node000011"><a xlink:title=" ">
<path fill="none" stroke="#63b8ff" d="M439.01,-109.98C451.91,-101.84 471.61,-89.41 486.91,-79.76"/>
<polygon fill="#63b8ff" stroke="#63b8ff" points="489.18,-82.47 495.77,-74.17 485.45,-76.55 489.18,-82.47"/>
</a>
</g>
</g>
<!-- Node12 -->
<g id="Node000012" class="node">
<title>Node12</title>
<g id="a_Node000012"><a xlink:title=" ">
<polygon fill="#e0e0e0" stroke="#999999" points="372.51,-74 316.51,-74 316.51,-55 372.51,-55 372.51,-74"/>
<text text-anchor="middle" x="344.51" y="-62" font-family="Helvetica,sans-Serif" font-size="10.00">optional</text>
</a>
</g>
</g>
<!-- Node10&#45;&gt;Node12 -->
<g id="edge15_Node000010_Node000012" class="edge">
<title>Node10&#45;&gt;Node12</title>
<g id="a_edge15_Node000010_Node000012"><a xlink:title=" ">
<path fill="none" stroke="#63b8ff" d="M412.5,-109.98C400.06,-101.84 381.06,-89.41 366.3,-79.76"/>
<polygon fill="#63b8ff" stroke="#63b8ff" points="368.05,-76.72 357.76,-74.17 364.22,-82.57 368.05,-76.72"/>
</a>
</g>
</g>
<!-- Node13 -->
<g id="Node000013" class="node">
<title>Node13</title>
<g id="a_Node000013"><a xlink:href="Ray_8h.html" target="_top" xlink:title=" ">
<polygon fill="white" stroke="#666666" points="462.01,-74 391.01,-74 391.01,-55 462.01,-55 462.01,-74"/>
<text text-anchor="middle" x="426.51" y="-62" font-family="Helvetica,sans-Serif" font-size="10.00">math/Ray.h</text>
</a>
</g>
</g>
<!-- Node10&#45;&gt;Node13 -->
<g id="edge16_Node000010_Node000013" class="edge">
<title>Node10&#45;&gt;Node13</title>
<g id="a_edge16_Node000010_Node000013"><a xlink:title=" ">
<path fill="none" stroke="#63b8ff" d="M425.68,-109.75C425.81,-102.8 426,-92.85 426.16,-84.13"/>
<polygon fill="#63b8ff" stroke="#63b8ff" points="429.66,-84.15 426.35,-74.09 422.66,-84.02 429.66,-84.15"/>
</a>
</g>
</g>
<!-- Node14 -->
<g id="Node000014" class="node">
<title>Node14</title>
<g id="a_Node000014"><a xlink:title=" ">
<polygon fill="#e0e0e0" stroke="#999999" points="468.01,-19 385.01,-19 385.01,0 468.01,0 468.01,-19"/>
<text text-anchor="middle" x="426.51" y="-7" font-family="Helvetica,sans-Serif" font-size="10.00">glm/vec3.hpp</text>
</a>
</g>
</g>
<!-- Node13&#45;&gt;Node14 -->
<g id="edge17_Node000013_Node000014" class="edge">
<title>Node13&#45;&gt;Node14</title>
<g id="a_edge17_Node000013_Node000014"><a xlink:title=" ">
<path fill="none" stroke="#63b8ff" d="M426.51,-54.75C426.51,-47.8 426.51,-37.85 426.51,-29.13"/>
<polygon fill="#63b8ff" stroke="#63b8ff" points="430.01,-29.09 426.51,-19.09 423.01,-29.09 430.01,-29.09"/>
</a>
</g>
</g>
<!-- Node15&#45;&gt;Node5 -->
<g id="edge19_Node000015_Node000005" class="edge">
<title>Node15&#45;&gt;Node5</title>
<g id="a_edge19_Node000015_Node000005"><a xlink:title=" ">
<path fill="none" stroke="#63b8ff" d="M171.38,-109.98C188.12,-101.54 214.01,-88.47 233.41,-78.68"/>
<polygon fill="#63b8ff" stroke="#63b8ff" points="234.99,-81.8 242.34,-74.17 231.83,-75.55 234.99,-81.8"/>
</a>
</g>
</g>
</g>
</svg>
