<?xml version="1.0" encoding="UTF-8" standalone="no"?>
<!DOCTYPE svg PUBLIC "-//W3C//DTD SVG 1.1//EN"
 "http://www.w3.org/Graphics/SVG/1.1/DTD/svg11.dtd">
<!-- Generated by graphviz version 2.43.0 (0)
 -->
<!-- Title: Graphical Class Hierarchy Pages: 1 -->
<svg width="240pt" height="76pt"
 viewBox="0.00 0.00 240.00 75.50" xmlns="http://www.w3.org/2000/svg" xmlns:xlink="http://www.w3.org/1999/xlink">
<g id="graph0" class="graph" transform="scale(1 1) rotate(0) translate(4 71.5)">
<title>Graphical Class Hierarchy</title>
<!-- Node0 -->
<g id="Node000000" class="node">
<title>Node0</title>
<g id="a_Node000000"><a xlink:href="classISolver.html" target="_top" xlink:title="Abstract interface for any physics solver step logic.">
<polygon fill="white" stroke="#666666" points="50,-45.5 0,-45.5 0,-26.5 50,-26.5 50,-45.5"/>
<text text-anchor="middle" x="25" y="-33.5" font-family="Helvetica,sans-Serif" font-size="10.00">ISolver</text>
</a>
</g>
</g>
<!-- Node1 -->
<g id="Node000001" class="node">
<title>Node1</title>
<g id="a_Node000001"><a xlink:href="classInterceptSolver.html" target="_top" xlink:title="A linear &quot;monitor&quot; solver that stops simulation when a condition is met.">
<polygon fill="white" stroke="#666666" points="204.5,-67.5 113.5,-67.5 113.5,-48.5 204.5,-48.5 204.5,-67.5"/>
<text text-anchor="middle" x="159" y="-55.5" font-family="Helvetica,sans-Serif" font-size="10.00">InterceptSolver</text>
</a>
</g>
</g>
<!-- Node0&#45;&gt;Node1 -->
<g id="edge13_Node000000_Node000001" class="edge">
<title>Node0&#45;&gt;Node1</title>
<g id="a_edge13_Node000000_Node000001"><a xlink:title=" ">
<path fill="none" stroke="#63b8ff" d="M60.32,-41.72C76.52,-44.42 96.05,-47.68 113.38,-50.56"/>
<polygon fill="#63b8ff" stroke="#63b8ff" points="60.65,-38.23 50.21,-40.04 59.5,-45.13 60.65,-38.23"/>
</a>
</g>
</g>
<!-- Node2 -->
<g id="Node000002" class="node">
<title>Node2</title>
<g id="a_Node000002"><a xlink:href="classVectorRootSolver.html" target="_top" xlink:title="A vector&#45;valued root solver using Newton&#39;s method.">
<polygon fill="white" stroke="#666666" points="232,-30 86,-30 86,0 232,0 232,-30"/>
<text text-anchor="start" x="94" y="-18" font-family="Helvetica,sans-Serif" font-size="10.00">VectorRootSolver&lt; InputT,</text>
<text text-anchor="middle" x="159" y="-7" font-family="Helvetica,sans-Serif" font-size="10.00"> OutputT &gt;</text>
</a>
</g>
</g>
<!-- Node0&#45;&gt;Node2 -->
<g id="edge14_Node000000_Node000002" class="edge">
<title>Node0&#45;&gt;Node2</title>
<g id="a_edge14_Node000000_Node000002"><a xlink:title=" ">
<path fill="none" stroke="#63b8ff" d="M60.18,-30.56C68.17,-29.29 76.97,-27.89 85.92,-26.47"/>
<polygon fill="#63b8ff" stroke="#63b8ff" points="59.54,-27.12 50.21,-32.15 60.64,-34.03 59.54,-27.12"/>
</a>
</g>
</g>
</g>
</svg>
