<?xml version="1.0" encoding="UTF-8" standalone="no"?>
<!DOCTYPE svg PUBLIC "-//W3C//DTD SVG 1.1//EN"
 "http://www.w3.org/Graphics/SVG/1.1/DTD/svg11.dtd">
<!-- Generated by graphviz version 2.43.0 (0)
 -->
<!-- Title: Graphical Class Hierarchy Pages: 1 -->
<svg width="257pt" height="64pt"
 viewBox="0.00 0.00 257.00 64.00" xmlns="http://www.w3.org/2000/svg" xmlns:xlink="http://www.w3.org/1999/xlink">
<g id="graph0" class="graph" transform="scale(1 1) rotate(0) translate(4 60)">
<title>Graphical Class Hierarchy</title>
<!-- Node0 -->
<g id="Node000000" class="node">
<title>Node0</title>
<g id="a_Node000000"><a xlink:href="classISettingsGroup.html" target="_top" xlink:title=" ">
<polygon fill="white" stroke="#666666" points="89,-37 0,-37 0,-18 89,-18 89,-37"/>
<text text-anchor="middle" x="44.5" y="-25" font-family="Helvetica,sans-Serif" font-size="10.00">ISettingsGroup</text>
</a>
</g>
</g>
<!-- Node1 -->
<g id="Node000001" class="node">
<title>Node1</title>
<g id="a_Node000001"><a xlink:href="structCameraSettingsGroup.html" target="_top" xlink:title=" ">
<polygon fill="white" stroke="#666666" points="249,-56 125,-56 125,-37 249,-37 249,-56"/>
<text text-anchor="middle" x="187" y="-44" font-family="Helvetica,sans-Serif" font-size="10.00">CameraSettingsGroup</text>
</a>
</g>
</g>
<!-- Node0&#45;&gt;Node1 -->
<g id="edge15_Node000000_Node000001" class="edge">
<title>Node0&#45;&gt;Node1</title>
<g id="a_edge15_Node000000_Node000001"><a xlink:title=" ">
<path fill="none" stroke="#63b8ff" d="M99.2,-34.76C107.57,-35.89 116.28,-37.07 124.8,-38.22"/>
<polygon fill="#63b8ff" stroke="#63b8ff" points="99.56,-31.28 89.18,-33.41 98.63,-38.22 99.56,-31.28"/>
</a>
</g>
</g>
<!-- Node2 -->
<g id="Node000002" class="node">
<title>Node2</title>
<g id="a_Node000002"><a xlink:href="structDebugSettings.html" target="_top" xlink:title=" ">
<polygon fill="white" stroke="#666666" points="231,-19 143,-19 143,0 231,0 231,-19"/>
<text text-anchor="middle" x="187" y="-7" font-family="Helvetica,sans-Serif" font-size="10.00">DebugSettings</text>
</a>
</g>
</g>
<!-- Node0&#45;&gt;Node2 -->
<g id="edge16_Node000000_Node000002" class="edge">
<title>Node0&#45;&gt;Node2</title>
<g id="a_edge16_Node000000_Node000002"><a xlink:title=" ">
<path fill="none" stroke="#63b8ff" d="M99.44,-20.59C113.8,-18.75 129.12,-16.79 142.82,-15.03"/>
<polygon fill="#63b8ff" stroke="#63b8ff" points="98.66,-17.16 89.18,-21.9 99.55,-24.1 98.66,-17.16"/>
</a>
</g>
</g>
</g>
</svg>
