<?xml version="1.0" encoding="UTF-8" standalone="no"?>
<!DOCTYPE svg PUBLIC "-//W3C//DTD SVG 1.1//EN"
 "http://www.w3.org/Graphics/SVG/1.1/DTD/svg11.dtd">
<!-- Generated by graphviz version 2.43.0 (0)
 -->
<!-- Title: Graphical Class Hierarchy Pages: 1 -->
<svg width="348pt" height="138pt"
 viewBox="0.00 0.00 348.00 138.00" xmlns="http://www.w3.org/2000/svg" xmlns:xlink="http://www.w3.org/1999/xlink">
<g id="graph0" class="graph" transform="scale(1 1) rotate(0) translate(4 134)">
<title>Graphical Class Hierarchy</title>
<!-- Node0 -->
<g id="Node000000" class="node">
<title>Node0</title>
<g id="a_Node000000"><a xlink:href="classIDrawable.html" target="_top" xlink:title=" ">
<polygon fill="white" stroke="#666666" points="66,-93 0,-93 0,-74 66,-74 66,-93"/>
<text text-anchor="middle" x="33" y="-81" font-family="Helvetica,sans-Serif" font-size="10.00">IDrawable</text>
</a>
</g>
</g>
<!-- Node1 -->
<g id="Node000001" class="node">
<title>Node1</title>
<g id="a_Node000001"><a xlink:href="classICustomDrawable.html" target="_top" xlink:title="Drawable with custom rendering logic.">
<polygon fill="white" stroke="#666666" points="210.5,-130 106.5,-130 106.5,-111 210.5,-111 210.5,-130"/>
<text text-anchor="middle" x="158.5" y="-118" font-family="Helvetica,sans-Serif" font-size="10.00">ICustomDrawable</text>
</a>
</g>
</g>
<!-- Node0&#45;&gt;Node1 -->
<g id="edge1_Node000000_Node000001" class="edge">
<title>Node0&#45;&gt;Node1</title>
<g id="a_edge1_Node000000_Node000001"><a xlink:title=" ">
<path fill="none" stroke="#63b8ff" d="M75.6,-95.96C91.85,-100.83 110.18,-106.32 125.37,-110.88"/>
<polygon fill="#63b8ff" stroke="#63b8ff" points="76.39,-92.55 65.8,-93.03 74.38,-99.25 76.39,-92.55"/>
</a>
</g>
</g>
<!-- Node5 -->
<g id="Node000005" class="node">
<title>Node5</title>
<g id="a_Node000005"><a xlink:href="classIInstancedDrawable.html" target="_top" xlink:title="Drawable that supports GPU instanced rendering.">
<polygon fill="white" stroke="#666666" points="215,-56 102,-56 102,-37 215,-37 215,-56"/>
<text text-anchor="middle" x="158.5" y="-44" font-family="Helvetica,sans-Serif" font-size="10.00">IInstancedDrawable</text>
</a>
</g>
</g>
<!-- Node0&#45;&gt;Node5 -->
<g id="edge3_Node000000_Node000005" class="edge">
<title>Node0&#45;&gt;Node5</title>
<g id="a_edge3_Node000000_Node000005"><a xlink:title=" ">
<path fill="none" stroke="#63b8ff" d="M75.6,-71.04C91.85,-66.17 110.18,-60.68 125.37,-56.12"/>
<polygon fill="#63b8ff" stroke="#63b8ff" points="74.38,-67.75 65.8,-73.97 76.39,-74.45 74.38,-67.75"/>
</a>
</g>
</g>
<!-- Node2 -->
<g id="Node000002" class="node">
<title>Node2</title>
<g id="a_Node000002"><a xlink:href="classGizmo.html" target="_top" xlink:title=" ">
<polygon fill="white" stroke="#666666" points="319.5,-111 271.5,-111 271.5,-92 319.5,-92 319.5,-111"/>
<text text-anchor="middle" x="295.5" y="-99" font-family="Helvetica,sans-Serif" font-size="10.00">Gizmo</text>
</a>
</g>
</g>
<!-- Node1&#45;&gt;Node2 -->
<g id="edge2_Node000001_Node000002" class="edge">
<title>Node1&#45;&gt;Node2</title>
<g id="a_edge2_Node000001_Node000002"><a xlink:title=" ">
<path fill="none" stroke="#63b8ff" d="M220.47,-111.92C238.52,-109.38 257.2,-106.75 271.28,-104.77"/>
<polygon fill="#63b8ff" stroke="#63b8ff" points="219.95,-108.46 210.54,-113.32 220.93,-115.39 219.95,-108.46"/>
</a>
</g>
</g>
<!-- Node4 -->
<g id="Node000004" class="node">
<title>Node4</title>
<g id="a_Node000004"><a xlink:href="classSceneObject.html" target="_top" xlink:title=" ">
<polygon fill="white" stroke="#666666" points="334,-56 257,-56 257,-37 334,-37 334,-56"/>
<text text-anchor="middle" x="295.5" y="-44" font-family="Helvetica,sans-Serif" font-size="10.00">SceneObject</text>
</a>
</g>
</g>
<!-- Node5&#45;&gt;Node4 -->
<g id="edge4_Node000005_Node000004" class="edge">
<title>Node5&#45;&gt;Node4</title>
<g id="a_edge4_Node000005_Node000004"><a xlink:title=" ">
<path fill="none" stroke="#63b8ff" d="M225.41,-46.5C236.12,-46.5 246.89,-46.5 256.63,-46.5"/>
<polygon fill="#63b8ff" stroke="#63b8ff" points="225.19,-43 215.19,-46.5 225.19,-50 225.19,-43"/>
</a>
</g>
</g>
<!-- Node3 -->
<g id="Node000003" class="node">
<title>Node3</title>
<g id="a_Node000003"><a xlink:href="classIPickable.html" target="_top" xlink:title=" ">
<polygon fill="white" stroke="#666666" points="188.5,-93 128.5,-93 128.5,-74 188.5,-74 188.5,-93"/>
<text text-anchor="middle" x="158.5" y="-81" font-family="Helvetica,sans-Serif" font-size="10.00">IPickable</text>
</a>
</g>
</g>
<!-- Node3&#45;&gt;Node2 -->
<g id="edge5_Node000003_Node000002" class="edge">
<title>Node3&#45;&gt;Node2</title>
<g id="a_edge5_Node000003_Node000002"><a xlink:title=" ">
<path fill="none" stroke="#63b8ff" d="M198.79,-88.74C222.23,-91.86 251.2,-95.73 271.09,-98.38"/>
<polygon fill="#63b8ff" stroke="#63b8ff" points="199.17,-85.26 188.79,-87.41 198.24,-92.2 199.17,-85.26"/>
</a>
</g>
</g>
<!-- Node3&#45;&gt;Node4 -->
<g id="edge6_Node000003_Node000004" class="edge">
<title>Node3&#45;&gt;Node4</title>
<g id="a_edge6_Node000003_Node000004"><a xlink:title=" ">
<path fill="none" stroke="#63b8ff" d="M198.48,-72.82C217.75,-67.53 240.82,-61.21 259.52,-56.09"/>
<polygon fill="#63b8ff" stroke="#63b8ff" points="197.51,-69.45 188.79,-75.47 199.36,-76.2 197.51,-69.45"/>
</a>
</g>
</g>
<!-- Node6 -->
<g id="Node000006" class="node">
<title>Node6</title>
<g id="a_Node000006"><a xlink:title=" ">
<polygon fill="#e0e0e0" stroke="#999999" points="186.5,-19 130.5,-19 130.5,0 186.5,0 186.5,-19"/>
<text text-anchor="middle" x="158.5" y="-7" font-family="Helvetica,sans-Serif" font-size="10.00">QObject</text>
</a>
</g>
</g>
<!-- Node6&#45;&gt;Node4 -->
<g id="edge8_Node000006_Node000004" class="edge">
<title>Node6&#45;&gt;Node4</title>
<g id="a_edge8_Node000006_Node000004"><a xlink:title=" ">
<path fill="none" stroke="#63b8ff" d="M196.64,-19.68C216.27,-25.06 240.22,-31.62 259.51,-36.91"/>
<polygon fill="#63b8ff" stroke="#63b8ff" points="197.39,-16.26 186.82,-16.99 195.54,-23.01 197.39,-16.26"/>
</a>
</g>
</g>
<!-- Node7 -->
<g id="Node000007" class="node">
<title>Node7</title>
<g id="a_Node000007"><a xlink:href="classSceneManager.html" target="_top" xlink:title=" ">
<polygon fill="white" stroke="#666666" points="340,-19 251,-19 251,0 340,0 340,-19"/>
<text text-anchor="middle" x="295.5" y="-7" font-family="Helvetica,sans-Serif" font-size="10.00">SceneManager</text>
</a>
</g>
</g>
<!-- Node6&#45;&gt;Node7 -->
<g id="edge7_Node000006_Node000007" class="edge">
<title>Node6&#45;&gt;Node7</title>
<g id="a_edge7_Node000006_Node000007"><a xlink:title=" ">
<path fill="none" stroke="#63b8ff" d="M197.25,-9.5C213.87,-9.5 233.49,-9.5 250.75,-9.5"/>
<polygon fill="#63b8ff" stroke="#63b8ff" points="196.82,-6 186.82,-9.5 196.82,-13 196.82,-6"/>
</a>
</g>
</g>
</g>
</svg>
