<?xml version="1.0" encoding="UTF-8" standalone="no"?>
<!DOCTYPE svg PUBLIC "-//W3C//DTD SVG 1.1//EN"
 "http://www.w3.org/Graphics/SVG/1.1/DTD/svg11.dtd">
<!-- Generated by graphviz version 2.43.0 (0)
 -->
<!-- Title: Graphical Class Hierarchy Pages: 1 -->
<svg width="239pt" height="76pt"
 viewBox="0.00 0.00 239.00 75.50" xmlns="http://www.w3.org/2000/svg" xmlns:xlink="http://www.w3.org/1999/xlink">
<g id="graph0" class="graph" transform="scale(1 1) rotate(0) translate(4 71.5)">
<title>Graphical Class Hierarchy</title>
<!-- Node0 -->
<g id="Node000000" class="node">
<title>Node0</title>
<g id="a_Node000000"><a xlink:href="classICollider.html" target="_top" xlink:title=" ">
<polygon fill="white" stroke="#666666" points="57,-45.5 0,-45.5 0,-26.5 57,-26.5 57,-45.5"/>
<text text-anchor="middle" x="28.5" y="-33.5" font-family="Helvetica,sans-Serif" font-size="10.00">ICollider</text>
</a>
</g>
</g>
<!-- Node1 -->
<g id="Node000001" class="node">
<title>Node1</title>
<g id="a_Node000001"><a xlink:href="classPhysics_1_1Bounding_1_1AABB.html" target="_top" xlink:title=" ">
<polygon fill="white" stroke="#666666" points="231,-67.5 93,-67.5 93,-48.5 231,-48.5 231,-67.5"/>
<text text-anchor="middle" x="162" y="-55.5" font-family="Helvetica,sans-Serif" font-size="10.00">Physics::Bounding::AABB</text>
</a>
</g>
</g>
<!-- Node0&#45;&gt;Node1 -->
<g id="edge1_Node000000_Node000001" class="edge">
<title>Node0&#45;&gt;Node1</title>
<g id="a_edge1_Node000000_Node000001"><a xlink:title=" ">
<path fill="none" stroke="#63b8ff" d="M67.21,-42.31C78.75,-44.24 91.7,-46.41 104.21,-48.5"/>
<polygon fill="#63b8ff" stroke="#63b8ff" points="67.51,-38.81 57.07,-40.61 66.35,-45.71 67.51,-38.81"/>
</a>
</g>
</g>
<!-- Node2 -->
<g id="Node000002" class="node">
<title>Node2</title>
<g id="a_Node000002"><a xlink:href="classPhysics_1_1Bounding_1_1BoxCollider.html" target="_top" xlink:title=" ">
<polygon fill="white" stroke="#666666" points="217.5,-30 106.5,-30 106.5,0 217.5,0 217.5,-30"/>
<text text-anchor="start" x="114.5" y="-18" font-family="Helvetica,sans-Serif" font-size="10.00">Physics::Bounding::</text>
<text text-anchor="middle" x="162" y="-7" font-family="Helvetica,sans-Serif" font-size="10.00">BoxCollider</text>
</a>
</g>
</g>
<!-- Node0&#45;&gt;Node2 -->
<g id="edge2_Node000000_Node000002" class="edge">
<title>Node0&#45;&gt;Node2</title>
<g id="a_edge2_Node000000_Node000002"><a xlink:title=" ">
<path fill="none" stroke="#63b8ff" d="M67.31,-29.96C79.48,-28.02 93.23,-25.82 106.36,-23.73"/>
<polygon fill="#63b8ff" stroke="#63b8ff" points="66.39,-26.56 57.07,-31.6 67.49,-33.48 66.39,-26.56"/>
</a>
</g>
</g>
</g>
</svg>
