<?xml version="1.0" encoding="UTF-8" standalone="no"?>
<!DOCTYPE svg PUBLIC "-//W3C//DTD SVG 1.1//EN"
 "http://www.w3.org/Graphics/SVG/1.1/DTD/svg11.dtd">
<!-- Generated by graphviz version 2.43.0 (0)
 -->
<!-- Title: Graphical Class Hierarchy Pages: 1 -->
<svg width="348pt" height="212pt"
 viewBox="0.00 0.00 348.00 212.00" xmlns="http://www.w3.org/2000/svg" xmlns:xlink="http://www.w3.org/1999/xlink">
<g id="graph0" class="graph" transform="scale(1 1) rotate(0) translate(4 208)">
<title>Graphical Class Hierarchy</title>
<!-- Node0 -->
<g id="Node000000" class="node">
<title>Node0</title>
<g id="a_Node000000"><a xlink:href="classIDrawable.html" target="_top" xlink:title="Base interface for all renderable objects in the scene.">
<polygon fill="white" stroke="#666666" points="66,-93 0,-93 0,-74 66,-74 66,-93"/>
<text text-anchor="middle" x="33" y="-81" font-family="Helvetica,sans-Serif" font-size="10.00">IDrawable</text>
</a>
</g>
</g>
<!-- Node1 -->
<g id="Node000001" class="node">
<title>Node1</title>
<g id="a_Node000001"><a xlink:href="classICustomDrawable.html" target="_top" xlink:title="Interface for objects with specialized rendering requirements.">
<polygon fill="white" stroke="#666666" points="210.5,-130 106.5,-130 106.5,-111 210.5,-111 210.5,-130"/>
<text text-anchor="middle" x="158.5" y="-118" font-family="Helvetica,sans-Serif" font-size="10.00">ICustomDrawable</text>
</a>
</g>
</g>
<!-- Node0&#45;&gt;Node1 -->
<g id="edge1_Node000000_Node000001" class="edge">
<title>Node0&#45;&gt;Node1</title>
<g id="a_edge1_Node000000_Node000001"><a xlink:title=" ">
<path fill="none" stroke="#63b8ff" d="M75.6,-95.96C91.85,-100.83 110.18,-106.32 125.37,-110.88"/>
<polygon fill="#63b8ff" stroke="#63b8ff" points="76.39,-92.55 65.8,-93.03 74.38,-99.25 76.39,-92.55"/>
</a>
</g>
</g>
<!-- Node7 -->
<g id="Node000007" class="node">
<title>Node7</title>
<g id="a_Node000007"><a xlink:href="classIInstancedDrawable.html" target="_top" xlink:title="Interface for objects that support GPU instanced rendering.">
<polygon fill="white" stroke="#666666" points="215,-56 102,-56 102,-37 215,-37 215,-56"/>
<text text-anchor="middle" x="158.5" y="-44" font-family="Helvetica,sans-Serif" font-size="10.00">IInstancedDrawable</text>
</a>
</g>
</g>
<!-- Node0&#45;&gt;Node7 -->
<g id="edge6_Node000000_Node000007" class="edge">
<title>Node0&#45;&gt;Node7</title>
<g id="a_edge6_Node000000_Node000007"><a xlink:title=" ">
<path fill="none" stroke="#63b8ff" d="M75.6,-71.04C91.85,-66.17 110.18,-60.68 125.37,-56.12"/>
<polygon fill="#63b8ff" stroke="#63b8ff" points="74.38,-67.75 65.8,-73.97 76.39,-74.45 74.38,-67.75"/>
</a>
</g>
</g>
<!-- Node2 -->
<g id="Node000002" class="node">
<title>Node2</title>
<g id="a_Node000002"><a xlink:href="classColliders.html" target="_top" xlink:title=" ">
<polygon fill="white" stroke="#666666" points="325,-204 266,-204 266,-185 325,-185 325,-204"/>
<text text-anchor="middle" x="295.5" y="-192" font-family="Helvetica,sans-Serif" font-size="10.00">Colliders</text>
</a>
</g>
</g>
<!-- Node1&#45;&gt;Node2 -->
<g id="edge2_Node000001_Node000002" class="edge">
<title>Node1&#45;&gt;Node2</title>
<g id="a_edge2_Node000001_Node000002"><a xlink:title=" ">
<path fill="none" stroke="#63b8ff" d="M182.38,-135.89C200.55,-147.77 226.83,-164.2 251,-176.5 256.83,-179.47 263.26,-182.34 269.35,-184.88"/>
<polygon fill="#63b8ff" stroke="#63b8ff" points="183.95,-132.73 173.68,-130.14 180.09,-138.58 183.95,-132.73"/>
</a>
</g>
</g>
<!-- Node3 -->
<g id="Node000003" class="node">
<title>Node3</title>
<g id="a_Node000003"><a xlink:href="classForces.html" target="_top" xlink:title=" ">
<polygon fill="white" stroke="#666666" points="319.5,-167 271.5,-167 271.5,-148 319.5,-148 319.5,-167"/>
<text text-anchor="middle" x="295.5" y="-155" font-family="Helvetica,sans-Serif" font-size="10.00">Forces</text>
</a>
</g>
</g>
<!-- Node1&#45;&gt;Node3 -->
<g id="edge3_Node000001_Node000003" class="edge">
<title>Node1&#45;&gt;Node3</title>
<g id="a_edge3_Node000001_Node000003"><a xlink:title=" ">
<path fill="none" stroke="#63b8ff" d="M203.96,-132.69C226.47,-138.85 252.85,-146.09 271.31,-151.15"/>
<polygon fill="#63b8ff" stroke="#63b8ff" points="204.84,-129.3 194.27,-130.03 202.99,-136.05 204.84,-129.3"/>
</a>
</g>
</g>
<!-- Node4 -->
<g id="Node000004" class="node">
<title>Node4</title>
<g id="a_Node000004"><a xlink:href="classGizmo.html" target="_top" xlink:title="Interactive 3D manipulation widget for transforming scene objects.">
<polygon fill="white" stroke="#666666" points="319.5,-93 271.5,-93 271.5,-74 319.5,-74 319.5,-93"/>
<text text-anchor="middle" x="295.5" y="-81" font-family="Helvetica,sans-Serif" font-size="10.00">Gizmo</text>
</a>
</g>
</g>
<!-- Node1&#45;&gt;Node4 -->
<g id="edge4_Node000001_Node000004" class="edge">
<title>Node1&#45;&gt;Node4</title>
<g id="a_edge4_Node000001_Node000004"><a xlink:title=" ">
<path fill="none" stroke="#63b8ff" d="M203.96,-108.31C226.47,-102.15 252.85,-94.91 271.31,-89.85"/>
<polygon fill="#63b8ff" stroke="#63b8ff" points="202.99,-104.95 194.27,-110.97 204.84,-111.7 202.99,-104.95"/>
</a>
</g>
</g>
<!-- Node10 -->
<g id="Node000010" class="node">
<title>Node10</title>
<g id="a_Node000010"><a xlink:href="classPathTraces.html" target="_top" xlink:title=" ">
<polygon fill="white" stroke="#666666" points="329.5,-130 261.5,-130 261.5,-111 329.5,-111 329.5,-130"/>
<text text-anchor="middle" x="295.5" y="-118" font-family="Helvetica,sans-Serif" font-size="10.00">PathTraces</text>
</a>
</g>
</g>
<!-- Node1&#45;&gt;Node10 -->
<g id="edge5_Node000001_Node000010" class="edge">
<title>Node1&#45;&gt;Node10</title>
<g id="a_edge5_Node000001_Node000010"><a xlink:title=" ">
<path fill="none" stroke="#63b8ff" d="M220.65,-120.5C234.67,-120.5 249.06,-120.5 261.37,-120.5"/>
<polygon fill="#63b8ff" stroke="#63b8ff" points="220.54,-117 210.54,-120.5 220.54,-124 220.54,-117"/>
</a>
</g>
</g>
<!-- Node6 -->
<g id="Node000006" class="node">
<title>Node6</title>
<g id="a_Node000006"><a xlink:href="classSceneObject.html" target="_top" xlink:title=" ">
<polygon fill="white" stroke="#666666" points="334,-56 257,-56 257,-37 334,-37 334,-56"/>
<text text-anchor="middle" x="295.5" y="-44" font-family="Helvetica,sans-Serif" font-size="10.00">SceneObject</text>
</a>
</g>
</g>
<!-- Node7&#45;&gt;Node6 -->
<g id="edge7_Node000007_Node000006" class="edge">
<title>Node7&#45;&gt;Node6</title>
<g id="a_edge7_Node000007_Node000006"><a xlink:title=" ">
<path fill="none" stroke="#63b8ff" d="M225.41,-46.5C236.12,-46.5 246.89,-46.5 256.63,-46.5"/>
<polygon fill="#63b8ff" stroke="#63b8ff" points="225.19,-43 215.19,-46.5 225.19,-50 225.19,-43"/>
</a>
</g>
</g>
<!-- Node5 -->
<g id="Node000005" class="node">
<title>Node5</title>
<g id="a_Node000005"><a xlink:href="classIPickable.html" target="_top" xlink:title="Abstract interface for objects that can be selected and interacted with using the mouse.">
<polygon fill="white" stroke="#666666" points="188.5,-93 128.5,-93 128.5,-74 188.5,-74 188.5,-93"/>
<text text-anchor="middle" x="158.5" y="-81" font-family="Helvetica,sans-Serif" font-size="10.00">IPickable</text>
</a>
</g>
</g>
<!-- Node5&#45;&gt;Node4 -->
<g id="edge8_Node000005_Node000004" class="edge">
<title>Node5&#45;&gt;Node4</title>
<g id="a_edge8_Node000005_Node000004"><a xlink:title=" ">
<path fill="none" stroke="#63b8ff" d="M199.1,-83.5C222.49,-83.5 251.29,-83.5 271.09,-83.5"/>
<polygon fill="#63b8ff" stroke="#63b8ff" points="198.79,-80 188.79,-83.5 198.79,-87 198.79,-80"/>
</a>
</g>
</g>
<!-- Node5&#45;&gt;Node6 -->
<g id="edge9_Node000005_Node000006" class="edge">
<title>Node5&#45;&gt;Node6</title>
<g id="a_edge9_Node000005_Node000006"><a xlink:title=" ">
<path fill="none" stroke="#63b8ff" d="M198.48,-72.82C217.75,-67.53 240.82,-61.21 259.52,-56.09"/>
<polygon fill="#63b8ff" stroke="#63b8ff" points="197.51,-69.45 188.79,-75.47 199.36,-76.2 197.51,-69.45"/>
</a>
</g>
</g>
<!-- Node8 -->
<g id="Node000008" class="node">
<title>Node8</title>
<g id="a_Node000008"><a xlink:title=" ">
<polygon fill="#e0e0e0" stroke="#999999" points="186.5,-19 130.5,-19 130.5,0 186.5,0 186.5,-19"/>
<text text-anchor="middle" x="158.5" y="-7" font-family="Helvetica,sans-Serif" font-size="10.00">QObject</text>
</a>
</g>
</g>
<!-- Node8&#45;&gt;Node6 -->
<g id="edge11_Node000008_Node000006" class="edge">
<title>Node8&#45;&gt;Node6</title>
<g id="a_edge11_Node000008_Node000006"><a xlink:title=" ">
<path fill="none" stroke="#63b8ff" d="M196.64,-19.68C216.27,-25.06 240.22,-31.62 259.51,-36.91"/>
<polygon fill="#63b8ff" stroke="#63b8ff" points="197.39,-16.26 186.82,-16.99 195.54,-23.01 197.39,-16.26"/>
</a>
</g>
</g>
<!-- Node9 -->
<g id="Node000009" class="node">
<title>Node9</title>
<g id="a_Node000009"><a xlink:href="classSceneManager.html" target="_top" xlink:title=" ">
<polygon fill="white" stroke="#666666" points="340,-19 251,-19 251,0 340,0 340,-19"/>
<text text-anchor="middle" x="295.5" y="-7" font-family="Helvetica,sans-Serif" font-size="10.00">SceneManager</text>
</a>
</g>
</g>
<!-- Node8&#45;&gt;Node9 -->
<g id="edge10_Node000008_Node000009" class="edge">
<title>Node8&#45;&gt;Node9</title>
<g id="a_edge10_Node000008_Node000009"><a xlink:title=" ">
<path fill="none" stroke="#63b8ff" d="M197.25,-9.5C213.87,-9.5 233.49,-9.5 250.75,-9.5"/>
<polygon fill="#63b8ff" stroke="#63b8ff" points="196.82,-6 186.82,-9.5 196.82,-13 196.82,-6"/>
</a>
</g>
</g>
</g>
</svg>
