<?xml version="1.0" encoding="UTF-8" standalone="no"?>
<!DOCTYPE svg PUBLIC "-//W3C//DTD SVG 1.1//EN"
 "http://www.w3.org/Graphics/SVG/1.1/DTD/svg11.dtd">
<!-- Generated by graphviz version 2.43.0 (0)
 -->
<!-- Title: Graphical Class Hierarchy Pages: 1 -->
<svg width="330pt" height="175pt"
 viewBox="0.00 0.00 330.00 175.00" xmlns="http://www.w3.org/2000/svg" xmlns:xlink="http://www.w3.org/1999/xlink">
<g id="graph0" class="graph" transform="scale(1 1) rotate(0) translate(4 171)">
<title>Graphical Class Hierarchy</title>
<!-- Node0 -->
<g id="Node000000" class="node">
<title>Node0</title>
<g id="a_Node000000"><a xlink:href="classIDrawable.html" target="_top" xlink:title=" ">
<polygon fill="white" stroke="#666666" points="66,-93 0,-93 0,-74 66,-74 66,-93"/>
<text text-anchor="middle" x="33" y="-81" font-family="Helvetica,sans-Serif" font-size="10.00">IDrawable</text>
</a>
</g>
</g>
<!-- Node1 -->
<g id="Node000001" class="node">
<title>Node1</title>
<g id="a_Node000001"><a xlink:href="classGizmo.html" target="_top" xlink:title=" ">
<polygon fill="white" stroke="#666666" points="170.5,-93 122.5,-93 122.5,-74 170.5,-74 170.5,-93"/>
<text text-anchor="middle" x="146.5" y="-81" font-family="Helvetica,sans-Serif" font-size="10.00">Gizmo</text>
</a>
</g>
</g>
<!-- Node0&#45;&gt;Node1 -->
<g id="edge1_Node000000_Node000001" class="edge">
<title>Node0&#45;&gt;Node1</title>
<g id="a_edge1_Node000000_Node000001"><a xlink:title=" ">
<path fill="none" stroke="#63b8ff" d="M76.66,-83.5C92.12,-83.5 109,-83.5 122.17,-83.5"/>
<polygon fill="#63b8ff" stroke="#63b8ff" points="76.25,-80 66.25,-83.5 76.25,-87 76.25,-80"/>
</a>
</g>
</g>
<!-- Node6 -->
<g id="Node000006" class="node">
<title>Node6</title>
<g id="a_Node000006"><a xlink:href="classIHandle.html" target="_top" xlink:title=" ">
<polygon fill="white" stroke="#666666" points="173.5,-130 119.5,-130 119.5,-111 173.5,-111 173.5,-130"/>
<text text-anchor="middle" x="146.5" y="-118" font-family="Helvetica,sans-Serif" font-size="10.00">IHandle</text>
</a>
</g>
</g>
<!-- Node0&#45;&gt;Node6 -->
<g id="edge2_Node000000_Node000006" class="edge">
<title>Node0&#45;&gt;Node6</title>
<g id="a_edge2_Node000000_Node000006"><a xlink:title=" ">
<path fill="none" stroke="#63b8ff" d="M72.5,-96.28C87.9,-101.39 105.25,-107.14 119.18,-111.76"/>
<polygon fill="#63b8ff" stroke="#63b8ff" points="73.31,-92.86 62.71,-93.03 71.1,-99.5 73.31,-92.86"/>
</a>
</g>
</g>
<!-- Node3 -->
<g id="Node000003" class="node">
<title>Node3</title>
<g id="a_Node000003"><a xlink:href="classSceneObject.html" target="_top" xlink:title=" ">
<polygon fill="white" stroke="#666666" points="185,-56 108,-56 108,-37 185,-37 185,-56"/>
<text text-anchor="middle" x="146.5" y="-44" font-family="Helvetica,sans-Serif" font-size="10.00">SceneObject</text>
</a>
</g>
</g>
<!-- Node0&#45;&gt;Node3 -->
<g id="edge6_Node000000_Node000003" class="edge">
<title>Node0&#45;&gt;Node3</title>
<g id="a_edge6_Node000000_Node000003"><a xlink:title=" ">
<path fill="none" stroke="#63b8ff" d="M72.39,-70.76C86.85,-65.96 103.04,-60.59 116.5,-56.12"/>
<polygon fill="#63b8ff" stroke="#63b8ff" points="71.1,-67.5 62.71,-73.97 73.31,-74.14 71.1,-67.5"/>
</a>
</g>
</g>
<!-- Node7 -->
<g id="Node000007" class="node">
<title>Node7</title>
<g id="a_Node000007"><a xlink:href="classRotateHandle.html" target="_top" xlink:title=" ">
<polygon fill="white" stroke="#666666" points="316,-167 233,-167 233,-148 316,-148 316,-167"/>
<text text-anchor="middle" x="274.5" y="-155" font-family="Helvetica,sans-Serif" font-size="10.00">RotateHandle</text>
</a>
</g>
</g>
<!-- Node6&#45;&gt;Node7 -->
<g id="edge3_Node000006_Node000007" class="edge">
<title>Node6&#45;&gt;Node7</title>
<g id="a_edge3_Node000006_Node000007"><a xlink:title=" ">
<path fill="none" stroke="#63b8ff" d="M183.21,-130.99C201.28,-136.29 223.05,-142.69 240.69,-147.87"/>
<polygon fill="#63b8ff" stroke="#63b8ff" points="184.19,-127.63 173.61,-128.17 182.22,-134.34 184.19,-127.63"/>
</a>
</g>
</g>
<!-- Node8 -->
<g id="Node000008" class="node">
<title>Node8</title>
<g id="a_Node000008"><a xlink:href="classScaleHandle.html" target="_top" xlink:title=" ">
<polygon fill="white" stroke="#666666" points="313,-130 236,-130 236,-111 313,-111 313,-130"/>
<text text-anchor="middle" x="274.5" y="-118" font-family="Helvetica,sans-Serif" font-size="10.00">ScaleHandle</text>
</a>
</g>
</g>
<!-- Node6&#45;&gt;Node8 -->
<g id="edge4_Node000006_Node000008" class="edge">
<title>Node6&#45;&gt;Node8</title>
<g id="a_edge4_Node000006_Node000008"><a xlink:title=" ">
<path fill="none" stroke="#63b8ff" d="M183.86,-120.5C200.2,-120.5 219.48,-120.5 235.95,-120.5"/>
<polygon fill="#63b8ff" stroke="#63b8ff" points="183.61,-117 173.61,-120.5 183.61,-124 183.61,-117"/>
</a>
</g>
</g>
<!-- Node9 -->
<g id="Node000009" class="node">
<title>Node9</title>
<g id="a_Node000009"><a xlink:href="classTranslateHandle.html" target="_top" xlink:title=" ">
<polygon fill="white" stroke="#666666" points="322,-93 227,-93 227,-74 322,-74 322,-93"/>
<text text-anchor="middle" x="274.5" y="-81" font-family="Helvetica,sans-Serif" font-size="10.00">TranslateHandle</text>
</a>
</g>
</g>
<!-- Node6&#45;&gt;Node9 -->
<g id="edge5_Node000006_Node000009" class="edge">
<title>Node6&#45;&gt;Node9</title>
<g id="a_edge5_Node000006_Node000009"><a xlink:title=" ">
<path fill="none" stroke="#63b8ff" d="M183.21,-110.01C201.28,-104.71 223.05,-98.31 240.69,-93.13"/>
<polygon fill="#63b8ff" stroke="#63b8ff" points="182.22,-106.66 173.61,-112.83 184.19,-113.37 182.22,-106.66"/>
</a>
</g>
</g>
<!-- Node2 -->
<g id="Node000002" class="node">
<title>Node2</title>
<g id="a_Node000002"><a xlink:href="classIPickable.html" target="_top" xlink:title=" ">
<polygon fill="white" stroke="#666666" points="63,-56 3,-56 3,-37 63,-37 63,-56"/>
<text text-anchor="middle" x="33" y="-44" font-family="Helvetica,sans-Serif" font-size="10.00">IPickable</text>
</a>
</g>
</g>
<!-- Node2&#45;&gt;Node1 -->
<g id="edge7_Node000002_Node000001" class="edge">
<title>Node2&#45;&gt;Node1</title>
<g id="a_edge7_Node000002_Node000001"><a xlink:title=" ">
<path fill="none" stroke="#63b8ff" d="M72.24,-59.19C88.95,-64.74 108.01,-71.06 122.5,-75.87"/>
<polygon fill="#63b8ff" stroke="#63b8ff" points="73.31,-55.86 62.71,-56.03 71.1,-62.5 73.31,-55.86"/>
</a>
</g>
</g>
<!-- Node2&#45;&gt;Node3 -->
<g id="edge8_Node000002_Node000003" class="edge">
<title>Node2&#45;&gt;Node3</title>
<g id="a_edge8_Node000002_Node000003"><a xlink:title=" ">
<path fill="none" stroke="#63b8ff" d="M73.03,-46.5C84.31,-46.5 96.61,-46.5 107.81,-46.5"/>
<polygon fill="#63b8ff" stroke="#63b8ff" points="73,-43 63,-46.5 73,-50 73,-43"/>
</a>
</g>
</g>
<!-- Node4 -->
<g id="Node000004" class="node">
<title>Node4</title>
<g id="a_Node000004"><a xlink:title=" ">
<polygon fill="#e0e0e0" stroke="#999999" points="61,-19 5,-19 5,0 61,0 61,-19"/>
<text text-anchor="middle" x="33" y="-7" font-family="Helvetica,sans-Serif" font-size="10.00">QObject</text>
</a>
</g>
</g>
<!-- Node4&#45;&gt;Node3 -->
<g id="edge10_Node000004_Node000003" class="edge">
<title>Node4&#45;&gt;Node3</title>
<g id="a_edge10_Node000004_Node000003"><a xlink:title=" ">
<path fill="none" stroke="#63b8ff" d="M71.14,-21.82C85.93,-26.73 102.69,-32.3 116.56,-36.9"/>
<polygon fill="#63b8ff" stroke="#63b8ff" points="71.87,-18.38 61.28,-18.55 69.66,-25.02 71.87,-18.38"/>
</a>
</g>
</g>
<!-- Node5 -->
<g id="Node000005" class="node">
<title>Node5</title>
<g id="a_Node000005"><a xlink:href="classSceneManager.html" target="_top" xlink:title=" ">
<polygon fill="white" stroke="#666666" points="191,-19 102,-19 102,0 191,0 191,-19"/>
<text text-anchor="middle" x="146.5" y="-7" font-family="Helvetica,sans-Serif" font-size="10.00">SceneManager</text>
</a>
</g>
</g>
<!-- Node4&#45;&gt;Node5 -->
<g id="edge9_Node000004_Node000005" class="edge">
<title>Node4&#45;&gt;Node5</title>
<g id="a_edge9_Node000004_Node000005"><a xlink:title=" ">
<path fill="none" stroke="#63b8ff" d="M71.5,-9.5C81.29,-9.5 91.93,-9.5 102,-9.5"/>
<polygon fill="#63b8ff" stroke="#63b8ff" points="71.28,-6 61.28,-9.5 71.28,-13 71.28,-6"/>
</a>
</g>
</g>
</g>
</svg>
