<?xml version="1.0" encoding="UTF-8" standalone="no"?>
<!DOCTYPE svg PUBLIC "-//W3C//DTD SVG 1.1//EN"
 "http://www.w3.org/Graphics/SVG/1.1/DTD/svg11.dtd">
<!-- Generated by graphviz version 2.43.0 (0)
 -->
<!-- Title: src/ui/inspector/InspectorRow.h Pages: 1 -->
<svg width="873pt" height="170pt"
 viewBox="0.00 0.00 872.50 170.00" xmlns="http://www.w3.org/2000/svg" xmlns:xlink="http://www.w3.org/1999/xlink">
<g id="graph0" class="graph" transform="scale(1 1) rotate(0) translate(4 166)">
<title>src/ui/inspector/InspectorRow.h</title>
<!-- Node1 -->
<g id="Node000001" class="node">
<title>Node1</title>
<g id="a_Node000001"><a xlink:title=" ">
<polygon fill="#999999" stroke="#666666" points="550.5,-162 411.5,-162 411.5,-132 550.5,-132 550.5,-162"/>
<text text-anchor="start" x="419.5" y="-150" font-family="Helvetica,sans-Serif" font-size="10.00">src/ui/inspector/Inspector</text>
<text text-anchor="middle" x="481" y="-139" font-family="Helvetica,sans-Serif" font-size="10.00">Row.h</text>
</a>
</g>
</g>
<!-- Node2 -->
<g id="Node000002" class="node">
<title>Node2</title>
<g id="a_Node000002"><a xlink:href="ForcesInspectorWidget_8h.html" target="_top" xlink:title=" ">
<polygon fill="white" stroke="#666666" points="248,-96 78,-96 78,-66 248,-66 248,-96"/>
<text text-anchor="start" x="86" y="-84" font-family="Helvetica,sans-Serif" font-size="10.00">src/ui/inspector/ForcesInspector</text>
<text text-anchor="middle" x="163" y="-73" font-family="Helvetica,sans-Serif" font-size="10.00">Widget.h</text>
</a>
</g>
</g>
<!-- Node1&#45;&gt;Node2 -->
<g id="edge1_Node000001_Node000002" class="edge">
<title>Node1&#45;&gt;Node2</title>
<g id="a_edge1_Node000001_Node000002"><a xlink:title=" ">
<path fill="none" stroke="#63b8ff" d="M401.38,-129.98C349.47,-119.53 282.4,-106.03 232.62,-96.01"/>
<polygon fill="#63b8ff" stroke="#63b8ff" points="400.72,-133.41 411.21,-131.95 402.1,-126.55 400.72,-133.41"/>
</a>
</g>
</g>
<!-- Node5 -->
<g id="Node000005" class="node">
<title>Node5</title>
<g id="a_Node000005"><a xlink:href="GlobalsInspectorWidget_8h.html" target="_top" xlink:title=" ">
<polygon fill="white" stroke="#666666" points="397.5,-96 266.5,-96 266.5,-66 397.5,-66 397.5,-96"/>
<text text-anchor="start" x="274.5" y="-84" font-family="Helvetica,sans-Serif" font-size="10.00">src/ui/inspector/Globals</text>
<text text-anchor="middle" x="332" y="-73" font-family="Helvetica,sans-Serif" font-size="10.00">InspectorWidget.h</text>
</a>
</g>
</g>
<!-- Node1&#45;&gt;Node5 -->
<g id="edge4_Node000001_Node000005" class="edge">
<title>Node1&#45;&gt;Node5</title>
<g id="a_edge4_Node000001_Node000005"><a xlink:title=" ">
<path fill="none" stroke="#63b8ff" d="M438.91,-127.92C415.36,-117.8 386.44,-105.38 364.62,-96.01"/>
<polygon fill="#63b8ff" stroke="#63b8ff" points="437.73,-131.22 448.3,-131.95 440.49,-124.79 437.73,-131.22"/>
</a>
</g>
</g>
<!-- Node7 -->
<g id="Node000007" class="node">
<title>Node7</title>
<g id="a_Node000007"><a xlink:href="InspectorRow_8cpp.html" target="_top" xlink:title=" ">
<polygon fill="white" stroke="#666666" points="864.5,-96 725.5,-96 725.5,-66 864.5,-66 864.5,-96"/>
<text text-anchor="start" x="733.5" y="-84" font-family="Helvetica,sans-Serif" font-size="10.00">src/ui/inspector/Inspector</text>
<text text-anchor="middle" x="795" y="-73" font-family="Helvetica,sans-Serif" font-size="10.00">Row.cpp</text>
</a>
</g>
</g>
<!-- Node1&#45;&gt;Node7 -->
<g id="edge7_Node000001_Node000007" class="edge">
<title>Node1&#45;&gt;Node7</title>
<g id="a_edge7_Node000001_Node000007"><a xlink:title=" ">
<path fill="none" stroke="#63b8ff" d="M559.94,-129.91C611.15,-119.47 677.21,-106.01 726.25,-96.01"/>
<polygon fill="#63b8ff" stroke="#63b8ff" points="559.01,-126.53 549.91,-131.95 560.41,-133.39 559.01,-126.53"/>
</a>
</g>
</g>
<!-- Node8 -->
<g id="Node000008" class="node">
<title>Node8</title>
<g id="a_Node000008"><a xlink:href="PhysicsInspectorWidget_8h.html" target="_top" xlink:title=" ">
<polygon fill="white" stroke="#666666" points="546.5,-96 415.5,-96 415.5,-66 546.5,-66 546.5,-96"/>
<text text-anchor="start" x="423.5" y="-84" font-family="Helvetica,sans-Serif" font-size="10.00">src/ui/inspector/Physics</text>
<text text-anchor="middle" x="481" y="-73" font-family="Helvetica,sans-Serif" font-size="10.00">InspectorWidget.h</text>
</a>
</g>
</g>
<!-- Node1&#45;&gt;Node8 -->
<g id="edge8_Node000001_Node000008" class="edge">
<title>Node1&#45;&gt;Node8</title>
<g id="a_edge8_Node000001_Node000008"><a xlink:title=" ">
<path fill="none" stroke="#63b8ff" d="M481,-121.54C481,-112.96 481,-103.61 481,-96.16"/>
<polygon fill="#63b8ff" stroke="#63b8ff" points="477.5,-121.8 481,-131.8 484.5,-121.8 477.5,-121.8"/>
</a>
</g>
</g>
<!-- Node10 -->
<g id="Node000010" class="node">
<title>Node10</title>
<g id="a_Node000010"><a xlink:href="TransformInspectorWidget_8h.html" target="_top" xlink:title=" ">
<polygon fill="white" stroke="#666666" points="707.5,-96 564.5,-96 564.5,-66 707.5,-66 707.5,-96"/>
<text text-anchor="start" x="572.5" y="-84" font-family="Helvetica,sans-Serif" font-size="10.00">src/ui/inspector/Transform</text>
<text text-anchor="middle" x="636" y="-73" font-family="Helvetica,sans-Serif" font-size="10.00">InspectorWidget.h</text>
</a>
</g>
</g>
<!-- Node1&#45;&gt;Node10 -->
<g id="edge11_Node000001_Node000010" class="edge">
<title>Node1&#45;&gt;Node10</title>
<g id="a_edge11_Node000001_Node000010"><a xlink:title=" ">
<path fill="none" stroke="#63b8ff" d="M524.46,-128.05C549.02,-117.91 579.27,-105.43 602.06,-96.01"/>
<polygon fill="#63b8ff" stroke="#63b8ff" points="522.92,-124.9 515.02,-131.95 525.59,-131.37 522.92,-124.9"/>
</a>
</g>
</g>
<!-- Node3 -->
<g id="Node000003" class="node">
<title>Node3</title>
<g id="a_Node000003"><a xlink:href="ForcesInspectorWidget_8cpp.html" target="_top" xlink:title=" ">
<polygon fill="white" stroke="#666666" points="170,-30 0,-30 0,0 170,0 170,-30"/>
<text text-anchor="start" x="8" y="-18" font-family="Helvetica,sans-Serif" font-size="10.00">src/ui/inspector/ForcesInspector</text>
<text text-anchor="middle" x="85" y="-7" font-family="Helvetica,sans-Serif" font-size="10.00">Widget.cpp</text>
</a>
</g>
</g>
<!-- Node2&#45;&gt;Node3 -->
<g id="edge2_Node000002_Node000003" class="edge">
<title>Node2&#45;&gt;Node3</title>
<g id="a_edge2_Node000002_Node000003"><a xlink:title=" ">
<path fill="none" stroke="#63b8ff" d="M137.65,-59.2C126.07,-49.7 112.65,-38.69 102.26,-30.16"/>
<polygon fill="#63b8ff" stroke="#63b8ff" points="135.74,-62.16 145.69,-65.8 140.18,-56.75 135.74,-62.16"/>
</a>
</g>
</g>
<!-- Node4 -->
<g id="Node000004" class="node">
<title>Node4</title>
<g id="a_Node000004"><a xlink:href="InspectorWidget_8cpp.html" target="_top" xlink:title=" ">
<polygon fill="white" stroke="#666666" points="476.5,-30 337.5,-30 337.5,0 476.5,0 476.5,-30"/>
<text text-anchor="start" x="345.5" y="-18" font-family="Helvetica,sans-Serif" font-size="10.00">src/ui/inspector/Inspector</text>
<text text-anchor="middle" x="407" y="-7" font-family="Helvetica,sans-Serif" font-size="10.00">Widget.cpp</text>
</a>
</g>
</g>
<!-- Node2&#45;&gt;Node4 -->
<g id="edge3_Node000002_Node000004" class="edge">
<title>Node2&#45;&gt;Node4</title>
<g id="a_edge3_Node000002_Node000004"><a xlink:title=" ">
<path fill="none" stroke="#63b8ff" d="M226.34,-63.39C265.84,-53.03 316.1,-39.84 353.58,-30.01"/>
<polygon fill="#63b8ff" stroke="#63b8ff" points="225.33,-60.03 216.55,-65.95 227.11,-66.8 225.33,-60.03"/>
</a>
</g>
</g>
<!-- Node5&#45;&gt;Node4 -->
<g id="edge6_Node000005_Node000004" class="edge">
<title>Node5&#45;&gt;Node4</title>
<g id="a_edge6_Node000005_Node000004"><a xlink:title=" ">
<path fill="none" stroke="#63b8ff" d="M356.37,-59.2C367.51,-49.7 380.41,-38.69 390.4,-30.16"/>
<polygon fill="#63b8ff" stroke="#63b8ff" points="353.98,-56.64 348.64,-65.8 358.52,-61.97 353.98,-56.64"/>
</a>
</g>
</g>
<!-- Node6 -->
<g id="Node000006" class="node">
<title>Node6</title>
<g id="a_Node000006"><a xlink:href="GlobalsInspectorWidget_8cpp.html" target="_top" xlink:title=" ">
<polygon fill="white" stroke="#666666" points="319.5,-30 188.5,-30 188.5,0 319.5,0 319.5,-30"/>
<text text-anchor="start" x="196.5" y="-18" font-family="Helvetica,sans-Serif" font-size="10.00">src/ui/inspector/Globals</text>
<text text-anchor="middle" x="254" y="-7" font-family="Helvetica,sans-Serif" font-size="10.00">InspectorWidget.cpp</text>
</a>
</g>
</g>
<!-- Node5&#45;&gt;Node6 -->
<g id="edge5_Node000005_Node000006" class="edge">
<title>Node5&#45;&gt;Node6</title>
<g id="a_edge5_Node000005_Node000006"><a xlink:title=" ">
<path fill="none" stroke="#63b8ff" d="M306.65,-59.2C295.07,-49.7 281.65,-38.69 271.26,-30.16"/>
<polygon fill="#63b8ff" stroke="#63b8ff" points="304.74,-62.16 314.69,-65.8 309.18,-56.75 304.74,-62.16"/>
</a>
</g>
</g>
<!-- Node8&#45;&gt;Node4 -->
<g id="edge9_Node000008_Node000004" class="edge">
<title>Node8&#45;&gt;Node4</title>
<g id="a_edge9_Node000008_Node000004"><a xlink:title=" ">
<path fill="none" stroke="#63b8ff" d="M456.95,-59.2C445.97,-49.7 433.24,-38.69 423.38,-30.16"/>
<polygon fill="#63b8ff" stroke="#63b8ff" points="454.72,-61.9 464.58,-65.8 459.3,-56.61 454.72,-61.9"/>
</a>
</g>
</g>
<!-- Node9 -->
<g id="Node000009" class="node">
<title>Node9</title>
<g id="a_Node000009"><a xlink:href="PhysicsInspectorWidget_8cpp.html" target="_top" xlink:title=" ">
<polygon fill="white" stroke="#666666" points="625.5,-30 494.5,-30 494.5,0 625.5,0 625.5,-30"/>
<text text-anchor="start" x="502.5" y="-18" font-family="Helvetica,sans-Serif" font-size="10.00">src/ui/inspector/Physics</text>
<text text-anchor="middle" x="560" y="-7" font-family="Helvetica,sans-Serif" font-size="10.00">InspectorWidget.cpp</text>
</a>
</g>
</g>
<!-- Node8&#45;&gt;Node9 -->
<g id="edge10_Node000008_Node000009" class="edge">
<title>Node8&#45;&gt;Node9</title>
<g id="a_edge10_Node000008_Node000009"><a xlink:title=" ">
<path fill="none" stroke="#63b8ff" d="M506.33,-59.48C518.14,-49.91 531.89,-38.77 542.52,-30.16"/>
<polygon fill="#63b8ff" stroke="#63b8ff" points="504.1,-56.78 498.53,-65.8 508.51,-62.22 504.1,-56.78"/>
</a>
</g>
</g>
<!-- Node10&#45;&gt;Node4 -->
<g id="edge12_Node000010_Node000004" class="edge">
<title>Node10&#45;&gt;Node4</title>
<g id="a_edge12_Node000010_Node000004"><a xlink:title=" ">
<path fill="none" stroke="#63b8ff" d="M576.08,-63.25C539.08,-52.91 492.16,-39.8 457.14,-30.01"/>
<polygon fill="#63b8ff" stroke="#63b8ff" points="575.17,-66.63 585.74,-65.95 577.06,-59.89 575.17,-66.63"/>
</a>
</g>
</g>
<!-- Node11 -->
<g id="Node000011" class="node">
<title>Node11</title>
<g id="a_Node000011"><a xlink:href="TransformInspectorWidget_8cpp.html" target="_top" xlink:title=" ">
<polygon fill="white" stroke="#666666" points="786.5,-30 643.5,-30 643.5,0 786.5,0 786.5,-30"/>
<text text-anchor="start" x="651.5" y="-18" font-family="Helvetica,sans-Serif" font-size="10.00">src/ui/inspector/Transform</text>
<text text-anchor="middle" x="715" y="-7" font-family="Helvetica,sans-Serif" font-size="10.00">InspectorWidget.cpp</text>
</a>
</g>
</g>
<!-- Node10&#45;&gt;Node11 -->
<g id="edge13_Node000010_Node000011" class="edge">
<title>Node10&#45;&gt;Node11</title>
<g id="a_edge13_Node000010_Node000011"><a xlink:title=" ">
<path fill="none" stroke="#63b8ff" d="M661.33,-59.48C673.14,-49.91 686.89,-38.77 697.52,-30.16"/>
<polygon fill="#63b8ff" stroke="#63b8ff" points="659.1,-56.78 653.53,-65.8 663.51,-62.22 659.1,-56.78"/>
</a>
</g>
</g>
</g>
</svg>
