<?xml version="1.0" encoding="UTF-8" standalone="no"?>
<!DOCTYPE svg PUBLIC "-//W3C//DTD SVG 1.1//EN"
 "http://www.w3.org/Graphics/SVG/1.1/DTD/svg11.dtd">
<!-- Generated by graphviz version 2.43.0 (0)
 -->
<!-- Title: src/graphics/core/IPickable.h Pages: 1 -->
<!--zoomable 401 -->

<svg id="main" version="1.1" xmlns="http://www.w3.org/2000/svg" xmlns:xlink="http://www.w3.org/1999/xlink" xml:space="preserve" onload="init(evt)">
<style type="text/css"><![CDATA[
.node, .edge {opacity: 0.7;}
.node.selected, .edge.selected {opacity: 1;}
.edge:hover path { stroke: red; }
.edge:hover polygon { stroke: red; fill: red; }
]]></style>

<defs>
  <circle id="rim" cx="0" cy="0" r="7"/>
  <circle id="rim2" cx="0" cy="0" r="3.5"/>
  <g id="zoomPlus">
    <use xlink:href="#rim" fill="#404040"><set attributeName="fill" to="#808080" begin="zoomplus.mouseover" end="zoomplus.mouseout"/></use>
    <path d="M-4,0h8M0,-4v8" fill="none" stroke="white" stroke-width="1.5" pointer-events="none"/>
  </g>
  <g id="zoomMin">
    <use xlink:href="#rim" fill="#404040"><set attributeName="fill" to="#808080" begin="zoomminus.mouseover" end="zoomminus.mouseout"/></use>
    <path d="M-4,0h8" fill="none" stroke="white" stroke-width="1.5" pointer-events="none"/>
  </g>
  <g id="arrowUp" transform="translate(30 24)">
    <use xlink:href="#rim"/>
    <path pointer-events="none" fill="none" stroke="white" stroke-width="1.5" d="M0,-3.0v7 M-2.5,-0.5L0,-3.0L2.5,-0.5"/>
  </g>
  <g id="arrowRight" transform="rotate(90) translate(36 -43)">
    <use xlink:href="#rim"/>
    <path pointer-events="none" fill="none" stroke="white" stroke-width="1.5" d="M0,-3.0v7 M-2.5,-0.5L0,-3.0L2.5,-0.5"/>
  </g>
  <g id="arrowDown" transform="rotate(180) translate(-30 -48)">
    <use xlink:href="#rim"/>
    <path pointer-events="none" fill="none" stroke="white" stroke-width="1.5" d="M0,-3.0v7 M-2.5,-0.5L0,-3.0L2.5,-0.5"/>
  </g>
  <g id="arrowLeft" transform="rotate(270) translate(-36 17)">
    <use xlink:href="#rim"/>
    <path pointer-events="none" fill="none" stroke="white" stroke-width="1.5" d="M0,-3.0v7 M-2.5,-0.5L0,-3.0L2.5,-0.5"/>
  </g>
  <g id="resetDef">
    <use xlink:href="#rim2" fill="#404040"><set attributeName="fill" to="#808080" begin="reset.mouseover" end="reset.mouseout"/></use>
  </g>
</defs>
<script type="application/ecmascript">
var viewWidth = 3026;
var viewHeight = 401;
var sectionId = 'dynsection-1';
</script>
<script type="application/ecmascript" xlink:href="svg.min.js"/>
<svg id="graph" class="graph">
<g id="viewport">
<title>src/graphics/core/IPickable.h</title>
<!-- Node1 -->
<g id="Node000001" class="node">
<title>Node1</title>
<g id="a_Node000001"><a xlink:title=" ">
<polygon fill="#999999" stroke="#666666" points="1714.5,-393 1559.5,-393 1559.5,-374 1714.5,-374 1714.5,-393"/>
<text text-anchor="middle" x="1637" y="-381" font-family="Helvetica,sans-Serif" font-size="10.00">src/graphics/core/IPickable.h</text>
</a>
</g>
</g>
<!-- Node2 -->
<g id="Node000002" class="node">
<title>Node2</title>
<g id="a_Node000002"><a xlink:href="Gizmo_8h.html" target="_top" xlink:title=" ">
<polygon fill="white" stroke="#666666" points="676,-338 538,-338 538,-308 676,-308 676,-338"/>
<text text-anchor="start" x="546" y="-326" font-family="Helvetica,sans-Serif" font-size="10.00">src/graphics/components</text>
<text text-anchor="middle" x="607" y="-315" font-family="Helvetica,sans-Serif" font-size="10.00">/Gizmo.h</text>
</a>
</g>
</g>
<!-- Node1&#45;&gt;Node2 -->
<g id="edge1_Node000001_Node000002" class="edge">
<title>Node1&#45;&gt;Node2</title>
<g id="a_edge1_Node000001_Node000002"><a xlink:title=" ">
<path fill="none" stroke="#63b8ff" d="M1548.93,-377.5C1347.78,-366.07 857.97,-338.25 676.3,-327.94"/>
<polygon fill="#63b8ff" stroke="#63b8ff" points="1548.98,-381.01 1559.16,-378.08 1549.37,-374.02 1548.98,-381.01"/>
</a>
</g>
</g>
<!-- Node9 -->
<g id="Node000009" class="node">
<title>Node9</title>
<g id="a_Node000009"><a xlink:href="SceneObject_8h.html" target="_top" xlink:title=" ">
<polygon fill="white" stroke="#666666" points="1571,-151 1399,-151 1399,-132 1571,-132 1571,-151"/>
<text text-anchor="middle" x="1485" y="-139" font-family="Helvetica,sans-Serif" font-size="10.00">src/graphics/core/SceneObject.h</text>
</a>
</g>
</g>
<!-- Node1&#45;&gt;Node9 -->
<g id="edge41_Node000001_Node000009" class="edge">
<title>Node1&#45;&gt;Node9</title>
<g id="a_edge41_Node000001_Node000009"><a xlink:title=" ">
<path fill="none" stroke="#63b8ff" d="M1626.19,-365.44C1596.21,-318.1 1512.74,-186.31 1490.5,-151.19"/>
<polygon fill="#63b8ff" stroke="#63b8ff" points="1623.28,-367.38 1631.59,-373.96 1629.2,-363.64 1623.28,-367.38"/>
</a>
</g>
</g>
<!-- Node28 -->
<g id="Node000028" class="node">
<title>Node28</title>
<g id="a_Node000028"><a xlink:href="MathUtils_8h.html" target="_top" xlink:title="Mathematical utility functions for 3D graphics and physics.">
<polygon fill="white" stroke="#666666" points="2690.5,-332.5 2571.5,-332.5 2571.5,-313.5 2690.5,-313.5 2690.5,-332.5"/>
<text text-anchor="middle" x="2631" y="-320.5" font-family="Helvetica,sans-Serif" font-size="10.00">src/math/MathUtils.h</text>
</a>
</g>
</g>
<!-- Node1&#45;&gt;Node28 -->
<g id="edge42_Node000001_Node000028" class="edge">
<title>Node1&#45;&gt;Node28</title>
<g id="a_edge42_Node000001_Node000028"><a xlink:title=" ">
<path fill="none" stroke="#63b8ff" d="M1724.68,-377.34C1923.27,-365.65 2403.14,-337.41 2571.45,-327.5"/>
<polygon fill="#63b8ff" stroke="#63b8ff" points="1724.36,-373.85 1714.58,-377.93 1724.77,-380.84 1724.36,-373.85"/>
</a>
</g>
</g>
<!-- Node3 -->
<g id="Node000003" class="node">
<title>Node3</title>
<g id="a_Node000003"><a xlink:href="Gizmo_8cpp.html" target="_top" xlink:title=" ">
<polygon fill="white" stroke="#666666" points="1894,-30 1756,-30 1756,0 1894,0 1894,-30"/>
<text text-anchor="start" x="1764" y="-18" font-family="Helvetica,sans-Serif" font-size="10.00">src/graphics/components</text>
<text text-anchor="middle" x="1825" y="-7" font-family="Helvetica,sans-Serif" font-size="10.00">/Gizmo.cpp</text>
</a>
</g>
</g>
<!-- Node2&#45;&gt;Node3 -->
<g id="edge2_Node000002_Node000003" class="edge">
<title>Node2&#45;&gt;Node3</title>
<g id="a_edge2_Node000002_Node000003"><a xlink:title=" ">
<path fill="none" stroke="#63b8ff" d="M527.9,-322.13C363.49,-320.25 0,-304.06 0,-197.5 0,-197.5 0,-197.5 0,-140.5 0,-98.81 19.89,-84.99 57,-66 95.47,-46.31 1434.28,-22.57 1756,-17.14"/>
<polygon fill="#63b8ff" stroke="#63b8ff" points="527.93,-325.63 537.96,-322.23 528,-318.63 527.93,-325.63"/>
</a>
</g>
</g>
<!-- Node4 -->
<g id="Node000004" class="node">
<title>Node4</title>
<g id="a_Node000004"><a xlink:href="Scene_8h.html" target="_top" xlink:title=" ">
<polygon fill="white" stroke="#666666" points="815,-266.5 675,-266.5 675,-247.5 815,-247.5 815,-266.5"/>
<text text-anchor="middle" x="745" y="-254.5" font-family="Helvetica,sans-Serif" font-size="10.00">src/graphics/core/Scene.h</text>
</a>
</g>
</g>
<!-- Node2&#45;&gt;Node4 -->
<g id="edge3_Node000002_Node000004" class="edge">
<title>Node2&#45;&gt;Node4</title>
<g id="a_edge3_Node000002_Node000004"><a xlink:title=" ">
<path fill="none" stroke="#63b8ff" d="M646.63,-303.62C672.97,-291.41 706.32,-275.94 726.63,-266.52"/>
<polygon fill="#63b8ff" stroke="#63b8ff" points="644.88,-300.57 637.28,-307.95 647.83,-306.92 644.88,-300.57"/>
</a>
</g>
</g>
<!-- Node27 -->
<g id="Node000027" class="node">
<title>Node27</title>
<g id="a_Node000027"><a xlink:href="OpenGLWindow_8cpp.html" target="_top" xlink:title=" ">
<polygon fill="white" stroke="#666666" points="170,-151 28,-151 28,-132 170,-132 170,-151"/>
<text text-anchor="middle" x="99" y="-139" font-family="Helvetica,sans-Serif" font-size="10.00">src/ui/OpenGLWindow.cpp</text>
</a>
</g>
</g>
<!-- Node2&#45;&gt;Node27 -->
<g id="edge40_Node000002_Node000027" class="edge">
<title>Node2&#45;&gt;Node27</title>
<g id="a_edge40_Node000002_Node000027"><a xlink:title=" ">
<path fill="none" stroke="#63b8ff" d="M557.56,-304.53C450.73,-266.78 201.67,-178.78 123.15,-151.04"/>
<polygon fill="#63b8ff" stroke="#63b8ff" points="556.54,-307.88 567.14,-307.91 558.88,-301.28 556.54,-307.88"/>
</a>
</g>
</g>
<!-- Node5 -->
<g id="Node000005" class="node">
<title>Node5</title>
<g id="a_Node000005"><a xlink:href="Scene_8cpp.html" target="_top" xlink:title=" ">
<polygon fill="white" stroke="#666666" points="2629,-90.5 2477,-90.5 2477,-71.5 2629,-71.5 2629,-90.5"/>
<text text-anchor="middle" x="2553" y="-78.5" font-family="Helvetica,sans-Serif" font-size="10.00">src/graphics/core/Scene.cpp</text>
</a>
</g>
</g>
<!-- Node4&#45;&gt;Node5 -->
<g id="edge4_Node000004_Node000005" class="edge">
<title>Node4&#45;&gt;Node5</title>
<g id="a_edge4_Node000004_Node000005"><a xlink:title=" ">
<path fill="none" stroke="#63b8ff" d="M825.66,-250.55C1072.24,-233.43 1837.55,-177.09 2468,-96 2480.02,-94.45 2492.94,-92.49 2504.99,-90.52"/>
<polygon fill="#63b8ff" stroke="#63b8ff" points="825.09,-247.08 815.36,-251.26 825.58,-254.06 825.09,-247.08"/>
</a>
</g>
</g>
<!-- Node6 -->
<g id="Node000006" class="node">
<title>Node6</title>
<g id="a_Node000006"><a xlink:href="SceneManager_8h.html" target="_top" xlink:title=" ">
<polygon fill="white" stroke="#666666" points="749,-206 567,-206 567,-187 749,-187 749,-206"/>
<text text-anchor="middle" x="658" y="-194" font-family="Helvetica,sans-Serif" font-size="10.00">src/graphics/core/SceneManager.h</text>
</a>
</g>
</g>
<!-- Node4&#45;&gt;Node6 -->
<g id="edge5_Node000004_Node000006" class="edge">
<title>Node4&#45;&gt;Node6</title>
<g id="a_edge5_Node000004_Node000006"><a xlink:title=" ">
<path fill="none" stroke="#63b8ff" d="M723.67,-241.66C707.14,-230.55 684.79,-215.51 670.89,-206.17"/>
<polygon fill="#63b8ff" stroke="#63b8ff" points="721.91,-244.69 732.16,-247.37 725.82,-238.88 721.91,-244.69"/>
</a>
</g>
</g>
<!-- Node8 -->
<g id="Node000008" class="node">
<title>Node8</title>
<g id="a_Node000008"><a xlink:href="SceneObject_8cpp.html" target="_top" xlink:title=" ">
<polygon fill="white" stroke="#666666" points="969.5,-90.5 786.5,-90.5 786.5,-71.5 969.5,-71.5 969.5,-90.5"/>
<text text-anchor="middle" x="878" y="-78.5" font-family="Helvetica,sans-Serif" font-size="10.00">src/graphics/core/SceneObject.cpp</text>
</a>
</g>
</g>
<!-- Node4&#45;&gt;Node8 -->
<g id="edge38_Node000004_Node000008" class="edge">
<title>Node4&#45;&gt;Node8</title>
<g id="a_edge38_Node000004_Node000008"><a xlink:title=" ">
<path fill="none" stroke="#63b8ff" d="M758.03,-238.96C785.92,-202.47 850.55,-117.91 871.39,-90.64"/>
<polygon fill="#63b8ff" stroke="#63b8ff" points="755.07,-237.06 751.78,-247.13 760.63,-241.31 755.07,-237.06"/>
</a>
</g>
</g>
<!-- Node4&#45;&gt;Node27 -->
<g id="edge39_Node000004_Node000027" class="edge">
<title>Node4&#45;&gt;Node27</title>
<g id="a_edge39_Node000004_Node000027"><a xlink:title=" ">
<path fill="none" stroke="#63b8ff" d="M686.58,-245.74C560.42,-223.57 264.51,-171.58 147.68,-151.05"/>
<polygon fill="#63b8ff" stroke="#63b8ff" points="685.99,-249.19 696.45,-247.47 687.2,-242.29 685.99,-249.19"/>
</a>
</g>
</g>
<!-- Node6&#45;&gt;Node3 -->
<g id="edge6_Node000006_Node000003" class="edge">
<title>Node6&#45;&gt;Node3</title>
<g id="a_edge6_Node000006_Node000003"><a xlink:title=" ">
<path fill="none" stroke="#63b8ff" d="M566.76,-185.72C509.46,-178.52 434.31,-167.17 369,-151 343.9,-144.78 338.62,-139.91 314,-132 255.68,-113.26 150.35,-109.97 193,-66 220.62,-37.52 1448.72,-20.61 1755.91,-16.82"/>
<polygon fill="#63b8ff" stroke="#63b8ff" points="566.53,-189.21 576.88,-186.97 567.38,-182.27 566.53,-189.21"/>
</a>
</g>
</g>
<!-- Node7 -->
<g id="Node000007" class="node">
<title>Node7</title>
<g id="a_Node000007"><a xlink:href="SceneManager_8cpp.html" target="_top" xlink:title=" ">
<polygon fill="white" stroke="#666666" points="396,-90.5 202,-90.5 202,-71.5 396,-71.5 396,-90.5"/>
<text text-anchor="middle" x="299" y="-78.5" font-family="Helvetica,sans-Serif" font-size="10.00">src/graphics/core/SceneManager.cpp</text>
</a>
</g>
</g>
<!-- Node6&#45;&gt;Node7 -->
<g id="edge7_Node000006_Node000007" class="edge">
<title>Node6&#45;&gt;Node7</title>
<g id="a_edge7_Node000006_Node000007"><a xlink:title=" ">
<path fill="none" stroke="#63b8ff" d="M557.02,-185.97C511.35,-179.48 457.35,-168.72 411,-151 370.68,-135.58 328.85,-105.32 309.71,-90.54"/>
<polygon fill="#63b8ff" stroke="#63b8ff" points="556.54,-189.44 566.93,-187.33 557.5,-182.5 556.54,-189.44"/>
</a>
</g>
</g>
<!-- Node6&#45;&gt;Node8 -->
<g id="edge8_Node000006_Node000008" class="edge">
<title>Node6&#45;&gt;Node8</title>
<g id="a_edge8_Node000006_Node000008"><a xlink:title=" ">
<path fill="none" stroke="#63b8ff" d="M681.47,-182C704.56,-168.85 740.9,-148.48 773,-132 802.81,-116.69 838.11,-100.21 859.25,-90.52"/>
<polygon fill="#63b8ff" stroke="#63b8ff" points="679.68,-178.99 672.73,-186.99 683.15,-185.07 679.68,-178.99"/>
</a>
</g>
</g>
<!-- Node6&#45;&gt;Node9 -->
<g id="edge9_Node000006_Node000009" class="edge">
<title>Node6&#45;&gt;Node9</title>
<g id="a_edge9_Node000006_Node000009"><a xlink:title=" ">
<path fill="none" stroke="#63b8ff" d="M759.37,-189C923.57,-178.48 1244.83,-157.89 1398.75,-148.03"/>
<polygon fill="#63b8ff" stroke="#63b8ff" points="759.02,-185.52 749.27,-189.65 759.47,-192.5 759.02,-185.52"/>
</a>
</g>
</g>
<!-- Node20 -->
<g id="Node000020" class="node">
<title>Node20</title>
<g id="a_Node000020"><a xlink:href="GlobalsInspectorWidget_8cpp.html" target="_top" xlink:title=" ">
<polygon fill="white" stroke="#666666" points="1118.5,-96 987.5,-96 987.5,-66 1118.5,-66 1118.5,-96"/>
<text text-anchor="start" x="995.5" y="-84" font-family="Helvetica,sans-Serif" font-size="10.00">src/ui/inspector/Globals</text>
<text text-anchor="middle" x="1053" y="-73" font-family="Helvetica,sans-Serif" font-size="10.00">InspectorWidget.cpp</text>
</a>
</g>
</g>
<!-- Node6&#45;&gt;Node20 -->
<g id="edge36_Node000006_Node000020" class="edge">
<title>Node6&#45;&gt;Node20</title>
<g id="a_edge36_Node000006_Node000020"><a xlink:title=" ">
<path fill="none" stroke="#63b8ff" d="M697.37,-184.19C769.96,-163.33 924.71,-118.86 1003.98,-96.09"/>
<polygon fill="#63b8ff" stroke="#63b8ff" points="696.33,-180.84 687.69,-186.97 698.27,-187.57 696.33,-180.84"/>
</a>
</g>
</g>
<!-- Node21 -->
<g id="Node000021" class="node">
<title>Node21</title>
<g id="a_Node000021"><a xlink:href="InspectorWidget_8cpp.html" target="_top" xlink:title=" ">
<polygon fill="white" stroke="#666666" points="768.5,-96 629.5,-96 629.5,-66 768.5,-66 768.5,-96"/>
<text text-anchor="start" x="637.5" y="-84" font-family="Helvetica,sans-Serif" font-size="10.00">src/ui/inspector/Inspector</text>
<text text-anchor="middle" x="699" y="-73" font-family="Helvetica,sans-Serif" font-size="10.00">Widget.cpp</text>
</a>
</g>
</g>
<!-- Node6&#45;&gt;Node21 -->
<g id="edge37_Node000006_Node000021" class="edge">
<title>Node6&#45;&gt;Node21</title>
<g id="a_edge37_Node000006_Node000021"><a xlink:title=" ">
<path fill="none" stroke="#63b8ff" d="M664.59,-177.27C672.74,-154.69 686.46,-116.7 693.88,-96.18"/>
<polygon fill="#63b8ff" stroke="#63b8ff" points="661.19,-176.37 661.08,-186.97 667.77,-178.75 661.19,-176.37"/>
</a>
</g>
</g>
<!-- Node24 -->
<g id="Node000024" class="node">
<title>Node24</title>
<g id="a_Node000024"><a xlink:href="SceneSerializer_8h.html" target="_top" xlink:title=" ">
<polygon fill="white" stroke="#666666" points="605.5,-151 420.5,-151 420.5,-132 605.5,-132 605.5,-151"/>
<text text-anchor="middle" x="513" y="-139" font-family="Helvetica,sans-Serif" font-size="10.00">src/graphics/core/SceneSerializer.h</text>
</a>
</g>
</g>
<!-- Node6&#45;&gt;Node24 -->
<g id="edge29_Node000006_Node000024" class="edge">
<title>Node6&#45;&gt;Node24</title>
<g id="a_edge29_Node000006_Node000024"><a xlink:title=" ">
<path fill="none" stroke="#63b8ff" d="M625.31,-183.55C598.38,-173.71 560.84,-159.98 536.72,-151.17"/>
<polygon fill="#63b8ff" stroke="#63b8ff" points="624.11,-186.84 634.7,-186.98 626.51,-180.26 624.11,-186.84"/>
</a>
</g>
</g>
<!-- Node25 -->
<g id="Node000025" class="node">
<title>Node25</title>
<g id="a_Node000025"><a xlink:href="MainWindow_8h.html" target="_top" xlink:title=" ">
<polygon fill="white" stroke="#666666" points="305.5,-151 188.5,-151 188.5,-132 305.5,-132 305.5,-151"/>
<text text-anchor="middle" x="247" y="-139" font-family="Helvetica,sans-Serif" font-size="10.00">src/ui/MainWindow.h</text>
</a>
</g>
</g>
<!-- Node6&#45;&gt;Node25 -->
<g id="edge32_Node000006_Node000025" class="edge">
<title>Node6&#45;&gt;Node25</title>
<g id="a_edge32_Node000006_Node000025"><a xlink:title=" ">
<path fill="none" stroke="#63b8ff" d="M581.96,-185.69C502.08,-175.39 378.15,-159.41 305.55,-150.05"/>
<polygon fill="#63b8ff" stroke="#63b8ff" points="581.6,-189.18 591.97,-186.98 582.5,-182.23 581.6,-189.18"/>
</a>
</g>
</g>
<!-- Node6&#45;&gt;Node27 -->
<g id="edge35_Node000006_Node000027" class="edge">
<title>Node6&#45;&gt;Node27</title>
<g id="a_edge35_Node000006_Node000027"><a xlink:title=" ">
<path fill="none" stroke="#63b8ff" d="M556.49,-186.46C459.51,-177.73 309.23,-163.97 179,-151 176.08,-150.71 173.1,-150.41 170.09,-150.1"/>
<polygon fill="#63b8ff" stroke="#63b8ff" points="556.31,-189.96 566.58,-187.37 556.94,-182.99 556.31,-189.96"/>
</a>
</g>
</g>
<!-- Node9&#45;&gt;Node3 -->
<g id="edge10_Node000009_Node000003" class="edge">
<title>Node9&#45;&gt;Node3</title>
<g id="a_edge10_Node000009_Node000003"><a xlink:title=" ">
<path fill="none" stroke="#63b8ff" d="M1572.48,-130.83C1664.53,-120.28 1797.35,-103.86 1806,-96 1824.38,-79.29 1826.55,-48.34 1826.06,-30.22"/>
<polygon fill="#63b8ff" stroke="#63b8ff" points="1571.85,-127.38 1562.31,-131.99 1572.64,-134.33 1571.85,-127.38"/>
</a>
</g>
</g>
<!-- Node9&#45;&gt;Node5 -->
<g id="edge17_Node000009_Node000005" class="edge">
<title>Node9&#45;&gt;Node5</title>
<g id="a_edge17_Node000009_Node000005"><a xlink:title=" ">
<path fill="none" stroke="#63b8ff" d="M1581.16,-132.25C1582.45,-132.16 1583.73,-132.08 1585,-132 1977,-107.36 2077.27,-135.99 2468,-96 2480.94,-94.68 2494.91,-92.63 2507.7,-90.52"/>
<polygon fill="#63b8ff" stroke="#63b8ff" points="1580.9,-128.76 1571.17,-132.93 1581.38,-135.74 1580.9,-128.76"/>
</a>
</g>
</g>
<!-- Node9&#45;&gt;Node7 -->
<g id="edge18_Node000009_Node000007" class="edge">
<title>Node9&#45;&gt;Node7</title>
<g id="a_edge18_Node000009_Node000007"><a xlink:title=" ">
<path fill="none" stroke="#63b8ff" d="M1388.55,-139.44C1199.51,-136.72 767.12,-127.31 405,-96 389.1,-94.62 371.91,-92.59 356.11,-90.5"/>
<polygon fill="#63b8ff" stroke="#63b8ff" points="1388.69,-142.94 1398.73,-139.58 1388.78,-135.94 1388.69,-142.94"/>
</a>
</g>
</g>
<!-- Node9&#45;&gt;Node8 -->
<g id="edge19_Node000009_Node000008" class="edge">
<title>Node9&#45;&gt;Node8</title>
<g id="a_edge19_Node000009_Node000008"><a xlink:title=" ">
<path fill="none" stroke="#63b8ff" d="M1388.76,-133.54C1286.67,-125.8 1120.74,-112.24 978,-96 964.07,-94.41 949.07,-92.45 935.05,-90.5"/>
<polygon fill="#63b8ff" stroke="#63b8ff" points="1388.51,-137.03 1398.74,-134.29 1389.04,-130.05 1388.51,-137.03"/>
</a>
</g>
</g>
<!-- Node10 -->
<g id="Node000010" class="node">
<title>Node10</title>
<g id="a_Node000010"><a xlink:href="RotateHandle_8cpp.html" target="_top" xlink:title=" ">
<polygon fill="white" stroke="#666666" points="1991,-96 1853,-96 1853,-66 1991,-66 1991,-96"/>
<text text-anchor="start" x="1861" y="-84" font-family="Helvetica,sans-Serif" font-size="10.00">src/graphics/components</text>
<text text-anchor="middle" x="1922" y="-73" font-family="Helvetica,sans-Serif" font-size="10.00">/RotateHandle.cpp</text>
</a>
</g>
</g>
<!-- Node9&#45;&gt;Node10 -->
<g id="edge11_Node000009_Node000010" class="edge">
<title>Node9&#45;&gt;Node10</title>
<g id="a_edge11_Node000009_Node000010"><a xlink:title=" ">
<path fill="none" stroke="#63b8ff" d="M1570.4,-130.79C1642.18,-122.37 1747.44,-109.47 1839,-96 1843.48,-95.34 1848.1,-94.64 1852.74,-93.91"/>
<polygon fill="#63b8ff" stroke="#63b8ff" points="1569.58,-127.36 1560.05,-131.99 1570.39,-134.31 1569.58,-127.36"/>
</a>
</g>
</g>
<!-- Node11 -->
<g id="Node000011" class="node">
<title>Node11</title>
<g id="a_Node000011"><a xlink:href="ScaleHandle_8h.html" target="_top" xlink:title=" ">
<polygon fill="white" stroke="#666666" points="2147,-96 2009,-96 2009,-66 2147,-66 2147,-96"/>
<text text-anchor="start" x="2017" y="-84" font-family="Helvetica,sans-Serif" font-size="10.00">src/graphics/components</text>
<text text-anchor="middle" x="2078" y="-73" font-family="Helvetica,sans-Serif" font-size="10.00">/ScaleHandle.h</text>
</a>
</g>
</g>
<!-- Node9&#45;&gt;Node11 -->
<g id="edge12_Node000009_Node000011" class="edge">
<title>Node9&#45;&gt;Node11</title>
<g id="a_edge12_Node000009_Node000011"><a xlink:title=" ">
<path fill="none" stroke="#63b8ff" d="M1581.38,-132.28C1727.61,-119.8 1989.76,-97.36 2000,-96 2002.86,-95.62 2005.78,-95.21 2008.73,-94.77"/>
<polygon fill="#63b8ff" stroke="#63b8ff" points="1580.73,-128.83 1571.06,-133.16 1581.32,-135.8 1580.73,-128.83"/>
</a>
</g>
</g>
<!-- Node13 -->
<g id="Node000013" class="node">
<title>Node13</title>
<g id="a_Node000013"><a xlink:href="TranslateHandle_8cpp.html" target="_top" xlink:title=" ">
<polygon fill="white" stroke="#666666" points="2303,-96 2165,-96 2165,-66 2303,-66 2303,-96"/>
<text text-anchor="start" x="2173" y="-84" font-family="Helvetica,sans-Serif" font-size="10.00">src/graphics/components</text>
<text text-anchor="middle" x="2234" y="-73" font-family="Helvetica,sans-Serif" font-size="10.00">/TranslateHandle.cpp</text>
</a>
</g>
</g>
<!-- Node9&#45;&gt;Node13 -->
<g id="edge15_Node000009_Node000013" class="edge">
<title>Node9&#45;&gt;Node13</title>
<g id="a_edge15_Node000009_Node000013"><a xlink:title=" ">
<path fill="none" stroke="#63b8ff" d="M1581.16,-132.29C1582.45,-132.19 1583.73,-132.09 1585,-132 1838.59,-113.23 1903.56,-126.51 2156,-96 2158.87,-95.65 2161.79,-95.27 2164.74,-94.86"/>
<polygon fill="#63b8ff" stroke="#63b8ff" points="1580.88,-128.8 1571.17,-133.05 1581.41,-135.78 1580.88,-128.8"/>
</a>
</g>
</g>
<!-- Node14 -->
<g id="Node000014" class="node">
<title>Node14</title>
<g id="a_Node000014"><a xlink:href="Camera_8cpp.html" target="_top" xlink:title=" ">
<polygon fill="white" stroke="#666666" points="1297.5,-90.5 1136.5,-90.5 1136.5,-71.5 1297.5,-71.5 1297.5,-90.5"/>
<text text-anchor="middle" x="1217" y="-78.5" font-family="Helvetica,sans-Serif" font-size="10.00">src/graphics/core/Camera.cpp</text>
</a>
</g>
</g>
<!-- Node9&#45;&gt;Node14 -->
<g id="edge16_Node000009_Node000014" class="edge">
<title>Node9&#45;&gt;Node14</title>
<g id="a_edge16_Node000009_Node000014"><a xlink:title=" ">
<path fill="none" stroke="#63b8ff" d="M1436.08,-129.82C1384.32,-118.52 1303.67,-100.92 1256.02,-90.52"/>
<polygon fill="#63b8ff" stroke="#63b8ff" points="1435.51,-133.28 1446.03,-131.99 1437.01,-126.44 1435.51,-133.28"/>
</a>
</g>
</g>
<!-- Node15 -->
<g id="Node000015" class="node">
<title>Node15</title>
<g id="a_Node000015"><a xlink:href="SceneSerializer_8cpp.html" target="_top" xlink:title=" ">
<polygon fill="white" stroke="#666666" points="611.5,-90.5 414.5,-90.5 414.5,-71.5 611.5,-71.5 611.5,-90.5"/>
<text text-anchor="middle" x="513" y="-78.5" font-family="Helvetica,sans-Serif" font-size="10.00">src/graphics/core/SceneSerializer.cpp</text>
</a>
</g>
</g>
<!-- Node9&#45;&gt;Node15 -->
<g id="edge20_Node000009_Node000015" class="edge">
<title>Node9&#45;&gt;Node15</title>
<g id="a_edge20_Node000009_Node000015"><a xlink:title=" ">
<path fill="none" stroke="#63b8ff" d="M1388.61,-138.02C1228.66,-133.34 898.42,-121.34 620,-96 604.33,-94.57 587.42,-92.58 571.78,-90.54"/>
<polygon fill="#63b8ff" stroke="#63b8ff" points="1388.8,-141.52 1398.9,-138.31 1389,-134.53 1388.8,-141.52"/>
</a>
</g>
</g>
<!-- Node16 -->
<g id="Node000016" class="node">
<title>Node16</title>
<g id="a_Node000016"><a xlink:href="HierarchyWidget_8h.html" target="_top" xlink:title=" ">
<polygon fill="white" stroke="#666666" points="2458.5,-90.5 2321.5,-90.5 2321.5,-71.5 2458.5,-71.5 2458.5,-90.5"/>
<text text-anchor="middle" x="2390" y="-78.5" font-family="Helvetica,sans-Serif" font-size="10.00">src/ui/HierarchyWidget.h</text>
</a>
</g>
</g>
<!-- Node9&#45;&gt;Node16 -->
<g id="edge21_Node000009_Node000016" class="edge">
<title>Node9&#45;&gt;Node16</title>
<g id="a_edge21_Node000009_Node000016"><a xlink:title=" ">
<path fill="none" stroke="#63b8ff" d="M1581.16,-132.26C1582.45,-132.17 1583.73,-132.09 1585,-132 1907.78,-110.3 1990.58,-132.65 2312,-96 2323.76,-94.66 2336.42,-92.64 2348.05,-90.55"/>
<polygon fill="#63b8ff" stroke="#63b8ff" points="1580.89,-128.77 1571.17,-132.98 1581.4,-135.75 1580.89,-128.77"/>
</a>
</g>
</g>
<!-- Node19 -->
<g id="Node000019" class="node">
<title>Node19</title>
<g id="a_Node000019"><a xlink:href="ForcesInspectorWidget_8cpp.html" target="_top" xlink:title=" ">
<polygon fill="white" stroke="#666666" points="1486,-96 1316,-96 1316,-66 1486,-66 1486,-96"/>
<text text-anchor="start" x="1324" y="-84" font-family="Helvetica,sans-Serif" font-size="10.00">src/ui/inspector/ForcesInspector</text>
<text text-anchor="middle" x="1401" y="-73" font-family="Helvetica,sans-Serif" font-size="10.00">Widget.cpp</text>
</a>
</g>
</g>
<!-- Node9&#45;&gt;Node19 -->
<g id="edge24_Node000009_Node000019" class="edge">
<title>Node9&#45;&gt;Node19</title>
<g id="a_edge24_Node000009_Node000019"><a xlink:title=" ">
<path fill="none" stroke="#63b8ff" d="M1464.22,-126.03C1451.12,-116.9 1434.27,-105.17 1421.27,-96.11"/>
<polygon fill="#63b8ff" stroke="#63b8ff" points="1462.4,-129.03 1472.61,-131.87 1466.4,-123.28 1462.4,-129.03"/>
</a>
</g>
</g>
<!-- Node9&#45;&gt;Node20 -->
<g id="edge25_Node000009_Node000020" class="edge">
<title>Node9&#45;&gt;Node20</title>
<g id="a_edge25_Node000009_Node000020"><a xlink:title=" ">
<path fill="none" stroke="#63b8ff" d="M1394.45,-130.85C1321.94,-122.73 1217.71,-110.2 1127,-96 1124.29,-95.58 1121.52,-95.13 1118.73,-94.66"/>
<polygon fill="#63b8ff" stroke="#63b8ff" points="1394.14,-134.34 1404.46,-131.96 1394.91,-127.38 1394.14,-134.34"/>
</a>
</g>
</g>
<!-- Node9&#45;&gt;Node21 -->
<g id="edge26_Node000009_Node000021" class="edge">
<title>Node9&#45;&gt;Node21</title>
<g id="a_edge26_Node000009_Node000021"><a xlink:title=" ">
<path fill="none" stroke="#63b8ff" d="M1388.87,-137.96C1252.4,-133.55 994.85,-122.31 777,-96 774.27,-95.67 771.49,-95.31 768.68,-94.92"/>
<polygon fill="#63b8ff" stroke="#63b8ff" points="1388.78,-141.46 1398.88,-138.27 1389,-134.46 1388.78,-141.46"/>
</a>
</g>
</g>
<!-- Node22 -->
<g id="Node000022" class="node">
<title>Node22</title>
<g id="a_Node000022"><a xlink:href="PhysicsInspectorWidget_8cpp.html" target="_top" xlink:title=" ">
<polygon fill="white" stroke="#666666" points="1635.5,-96 1504.5,-96 1504.5,-66 1635.5,-66 1635.5,-96"/>
<text text-anchor="start" x="1512.5" y="-84" font-family="Helvetica,sans-Serif" font-size="10.00">src/ui/inspector/Physics</text>
<text text-anchor="middle" x="1570" y="-73" font-family="Helvetica,sans-Serif" font-size="10.00">InspectorWidget.cpp</text>
</a>
</g>
</g>
<!-- Node9&#45;&gt;Node22 -->
<g id="edge27_Node000009_Node000022" class="edge">
<title>Node9&#45;&gt;Node22</title>
<g id="a_edge27_Node000009_Node000022"><a xlink:title=" ">
<path fill="none" stroke="#63b8ff" d="M1506.02,-126.03C1519.29,-116.9 1536.33,-105.17 1549.49,-96.11"/>
<polygon fill="#63b8ff" stroke="#63b8ff" points="1503.8,-123.32 1497.54,-131.87 1507.76,-129.08 1503.8,-123.32"/>
</a>
</g>
</g>
<!-- Node23 -->
<g id="Node000023" class="node">
<title>Node23</title>
<g id="a_Node000023"><a xlink:href="TransformInspectorWidget_8cpp.html" target="_top" xlink:title=" ">
<polygon fill="white" stroke="#666666" points="1796.5,-96 1653.5,-96 1653.5,-66 1796.5,-66 1796.5,-96"/>
<text text-anchor="start" x="1661.5" y="-84" font-family="Helvetica,sans-Serif" font-size="10.00">src/ui/inspector/Transform</text>
<text text-anchor="middle" x="1725" y="-73" font-family="Helvetica,sans-Serif" font-size="10.00">InspectorWidget.cpp</text>
</a>
</g>
</g>
<!-- Node9&#45;&gt;Node23 -->
<g id="edge28_Node000009_Node000023" class="edge">
<title>Node9&#45;&gt;Node23</title>
<g id="a_edge28_Node000009_Node000023"><a xlink:title=" ">
<path fill="none" stroke="#63b8ff" d="M1529.87,-129.56C1568.7,-120.1 1625.11,-106.35 1667.3,-96.06"/>
<polygon fill="#63b8ff" stroke="#63b8ff" points="1528.78,-126.22 1519.9,-131.99 1530.44,-133.03 1528.78,-126.22"/>
</a>
</g>
</g>
<!-- Node11&#45;&gt;Node3 -->
<g id="edge13_Node000011_Node000003" class="edge">
<title>Node11&#45;&gt;Node3</title>
<g id="a_edge13_Node000011_Node000003"><a xlink:title=" ">
<path fill="none" stroke="#63b8ff" d="M2012.58,-63.45C1971.59,-53.08 1919.33,-39.86 1880.39,-30.01"/>
<polygon fill="#63b8ff" stroke="#63b8ff" points="2011.93,-66.9 2022.48,-65.95 2013.64,-60.11 2011.93,-66.9"/>
</a>
</g>
</g>
<!-- Node12 -->
<g id="Node000012" class="node">
<title>Node12</title>
<g id="a_Node000012"><a xlink:href="ScaleHandle_8cpp.html" target="_top" xlink:title=" ">
<polygon fill="white" stroke="#666666" points="2147,-30 2009,-30 2009,0 2147,0 2147,-30"/>
<text text-anchor="start" x="2017" y="-18" font-family="Helvetica,sans-Serif" font-size="10.00">src/graphics/components</text>
<text text-anchor="middle" x="2078" y="-7" font-family="Helvetica,sans-Serif" font-size="10.00">/ScaleHandle.cpp</text>
</a>
</g>
</g>
<!-- Node11&#45;&gt;Node12 -->
<g id="edge14_Node000011_Node000012" class="edge">
<title>Node11&#45;&gt;Node12</title>
<g id="a_edge14_Node000011_Node000012"><a xlink:title=" ">
<path fill="none" stroke="#63b8ff" d="M2078,-55.54C2078,-46.96 2078,-37.61 2078,-30.16"/>
<polygon fill="#63b8ff" stroke="#63b8ff" points="2074.5,-55.8 2078,-65.8 2081.5,-55.8 2074.5,-55.8"/>
</a>
</g>
</g>
<!-- Node17 -->
<g id="Node000017" class="node">
<title>Node17</title>
<g id="a_Node000017"><a xlink:href="HierarchyWidget_8cpp.html" target="_top" xlink:title=" ">
<polygon fill="white" stroke="#666666" points="2464,-24.5 2316,-24.5 2316,-5.5 2464,-5.5 2464,-24.5"/>
<text text-anchor="middle" x="2390" y="-12.5" font-family="Helvetica,sans-Serif" font-size="10.00">src/ui/HierarchyWidget.cpp</text>
</a>
</g>
</g>
<!-- Node16&#45;&gt;Node17 -->
<g id="edge22_Node000016_Node000017" class="edge">
<title>Node16&#45;&gt;Node17</title>
<g id="a_edge22_Node000016_Node000017"><a xlink:title=" ">
<path fill="none" stroke="#63b8ff" d="M2390,-61.08C2390,-49.13 2390,-34.22 2390,-24.91"/>
<polygon fill="#63b8ff" stroke="#63b8ff" points="2386.5,-61.37 2390,-71.37 2393.5,-61.37 2386.5,-61.37"/>
</a>
</g>
</g>
<!-- Node18 -->
<g id="Node000018" class="node">
<title>Node18</title>
<g id="a_Node000018"><a xlink:href="MainWindow_8cpp.html" target="_top" xlink:title=" ">
<polygon fill="white" stroke="#666666" points="920,-24.5 792,-24.5 792,-5.5 920,-5.5 920,-24.5"/>
<text text-anchor="middle" x="856" y="-12.5" font-family="Helvetica,sans-Serif" font-size="10.00">src/ui/MainWindow.cpp</text>
</a>
</g>
</g>
<!-- Node16&#45;&gt;Node18 -->
<g id="edge23_Node000016_Node000018" class="edge">
<title>Node16&#45;&gt;Node18</title>
<g id="a_edge23_Node000016_Node000018"><a xlink:title=" ">
<path fill="none" stroke="#63b8ff" d="M2338.94,-69.75C2329.99,-68.27 2320.75,-66.93 2312,-66 2036.28,-36.67 1164.87,-20.91 920.35,-16.98"/>
<polygon fill="#63b8ff" stroke="#63b8ff" points="2338.42,-73.22 2348.87,-71.48 2339.61,-66.32 2338.42,-73.22"/>
</a>
</g>
</g>
<!-- Node24&#45;&gt;Node7 -->
<g id="edge30_Node000024_Node000007" class="edge">
<title>Node24&#45;&gt;Node7</title>
<g id="a_edge30_Node000024_Node000007"><a xlink:title=" ">
<path fill="none" stroke="#63b8ff" d="M472.12,-129.32C430.73,-118.01 367.65,-100.77 330.15,-90.52"/>
<polygon fill="#63b8ff" stroke="#63b8ff" points="471.31,-132.73 481.88,-131.99 473.16,-125.98 471.31,-132.73"/>
</a>
</g>
</g>
<!-- Node24&#45;&gt;Node15 -->
<g id="edge31_Node000024_Node000015" class="edge">
<title>Node24&#45;&gt;Node15</title>
<g id="a_edge31_Node000024_Node000015"><a xlink:title=" ">
<path fill="none" stroke="#63b8ff" d="M513,-121.66C513,-111.24 513,-98.8 513,-90.67"/>
<polygon fill="#63b8ff" stroke="#63b8ff" points="509.5,-121.87 513,-131.87 516.5,-121.87 509.5,-121.87"/>
</a>
</g>
</g>
<!-- Node25&#45;&gt;Node18 -->
<g id="edge34_Node000025_Node000018" class="edge">
<title>Node25&#45;&gt;Node18</title>
<g id="a_edge34_Node000025_Node000018"><a xlink:title=" ">
<path fill="none" stroke="#63b8ff" d="M186.38,-130.16C133.92,-120.6 65.21,-106.35 57,-96 48.72,-85.55 47.87,-75.72 57,-66 82.05,-39.33 606.74,-22.7 791.96,-17.64"/>
<polygon fill="#63b8ff" stroke="#63b8ff" points="185.84,-133.62 196.3,-131.95 187.08,-126.73 185.84,-133.62"/>
</a>
</g>
</g>
<!-- Node26 -->
<g id="Node000026" class="node">
<title>Node26</title>
<g id="a_Node000026"><a xlink:href="main_8cpp.html" target="_top" xlink:title=" ">
<polygon fill="white" stroke="#666666" points="145.5,-90.5 66.5,-90.5 66.5,-71.5 145.5,-71.5 145.5,-90.5"/>
<text text-anchor="middle" x="106" y="-78.5" font-family="Helvetica,sans-Serif" font-size="10.00">src/main.cpp</text>
</a>
</g>
</g>
<!-- Node25&#45;&gt;Node26 -->
<g id="edge33_Node000025_Node000026" class="edge">
<title>Node25&#45;&gt;Node26</title>
<g id="a_edge33_Node000025_Node000026"><a xlink:title=" ">
<path fill="none" stroke="#63b8ff" d="M217.07,-128.08C189.83,-116.78 150.35,-100.4 126.53,-90.52"/>
<polygon fill="#63b8ff" stroke="#63b8ff" points="215.92,-131.39 226.5,-131.99 218.6,-124.93 215.92,-131.39"/>
</a>
</g>
</g>
<!-- Node28&#45;&gt;Node3 -->
<g id="edge43_Node000028_Node000003" class="edge">
<title>Node28&#45;&gt;Node3</title>
<g id="a_edge43_Node000028_Node000003"><a xlink:title=" ">
<path fill="none" stroke="#63b8ff" d="M2637.25,-303.81C2644.95,-279.78 2657,-235.99 2657,-197.5 2657,-197.5 2657,-197.5 2657,-140.5 2657,-106.33 2664.38,-87.72 2638,-66 2583.18,-20.87 2070.84,-34.83 2000,-30 1965.18,-27.63 1926.5,-24.57 1894.38,-21.93"/>
<polygon fill="#63b8ff" stroke="#63b8ff" points="2633.91,-302.78 2634.08,-313.38 2640.55,-304.98 2633.91,-302.78"/>
</a>
</g>
</g>
<!-- Node28&#45;&gt;Node4 -->
<g id="edge46_Node000028_Node000004" class="edge">
<title>Node28&#45;&gt;Node4</title>
<g id="a_edge46_Node000028_Node000004"><a xlink:title=" ">
<path fill="none" stroke="#63b8ff" d="M2561.26,-319.63C2264.95,-309.58 1111.99,-270.45 815.06,-260.38"/>
<polygon fill="#63b8ff" stroke="#63b8ff" points="2561.33,-323.14 2571.44,-319.98 2561.57,-316.14 2561.33,-323.14"/>
</a>
</g>
</g>
<!-- Node28&#45;&gt;Node5 -->
<g id="edge45_Node000028_Node000005" class="edge">
<title>Node28&#45;&gt;Node5</title>
<g id="a_edge45_Node000028_Node000005"><a xlink:title=" ">
<path fill="none" stroke="#63b8ff" d="M2625.06,-303.73C2609.36,-255.4 2567.14,-125.51 2555.82,-90.69"/>
<polygon fill="#63b8ff" stroke="#63b8ff" points="2621.8,-305.03 2628.22,-313.46 2628.46,-302.87 2621.8,-305.03"/>
</a>
</g>
</g>
<!-- Node29 -->
<g id="Node000029" class="node">
<title>Node29</title>
<g id="a_Node000029"><a xlink:href="ResourceManager_8cpp.html" target="_top" xlink:title=" ">
<polygon fill="white" stroke="#666666" points="2832.5,-272 2685.5,-272 2685.5,-242 2832.5,-242 2832.5,-272"/>
<text text-anchor="start" x="2693.5" y="-260" font-family="Helvetica,sans-Serif" font-size="10.00">src/graphics/core/Resource</text>
<text text-anchor="middle" x="2759" y="-249" font-family="Helvetica,sans-Serif" font-size="10.00">Manager.cpp</text>
</a>
</g>
</g>
<!-- Node28&#45;&gt;Node29 -->
<g id="edge44_Node000028_Node000029" class="edge">
<title>Node28&#45;&gt;Node29</title>
<g id="a_edge44_Node000028_Node000029"><a xlink:title=" ">
<path fill="none" stroke="#63b8ff" d="M2657.42,-308.79C2678.82,-298.09 2708.9,-283.05 2730.77,-272.12"/>
<polygon fill="#63b8ff" stroke="#63b8ff" points="2655.64,-305.77 2648.26,-313.37 2658.77,-312.03 2655.64,-305.77"/>
</a>
</g>
</g>
<!-- Node30 -->
<g id="Node000030" class="node">
<title>Node30</title>
<g id="a_Node000030"><a xlink:href="PhysicsSystem_8cpp.html" target="_top" xlink:title=" ">
<polygon fill="white" stroke="#666666" points="3017.5,-266.5 2850.5,-266.5 2850.5,-247.5 3017.5,-247.5 3017.5,-266.5"/>
<text text-anchor="middle" x="2934" y="-254.5" font-family="Helvetica,sans-Serif" font-size="10.00">src/physics/PhysicsSystem.cpp</text>
</a>
</g>
</g>
<!-- Node28&#45;&gt;Node30 -->
<g id="edge47_Node000028_Node000030" class="edge">
<title>Node28&#45;&gt;Node30</title>
<g id="a_edge47_Node000028_Node000030"><a xlink:title=" ">
<path fill="none" stroke="#63b8ff" d="M2681.49,-311.34C2741.07,-298.75 2838.94,-278.08 2893.69,-266.51"/>
<polygon fill="#63b8ff" stroke="#63b8ff" points="2680.61,-307.94 2671.55,-313.44 2682.06,-314.79 2680.61,-307.94"/>
</a>
</g>
</g>
</g>
</svg>

<g id="navigator" transform="translate(0 0)" fill="#404254">
  <rect fill="#f2f5e9" fill-opacity="0.5" stroke="#606060" stroke-width=".5" x="0" y="0" width="60" height="60"/>
  <use id="zoomplus" xlink:href="#zoomPlus" x="17" y="9" onmousedown="handleZoom(evt,'in')"/>
  <use id="zoomminus" xlink:href="#zoomMin" x="42" y="9" onmousedown="handleZoom(evt,'out')"/>
  <use id="reset" xlink:href="#resetDef" x="30" y="36" onmousedown="handleReset()"/>
   <use id="arrowup" xlink:href="#arrowUp" x="0" y="0" onmousedown="handlePan(0,-1)"/>
  <use id="arrowright" xlink:href="#arrowRight" x="0" y="0" onmousedown="handlePan(1,0)"/>
  <use id="arrowdown" xlink:href="#arrowDown" x="0" y="0" onmousedown="handlePan(0,1)"/>
  <use id="arrowleft" xlink:href="#arrowLeft" x="0" y="0" onmousedown="handlePan(-1,0)"/>
</g>
<svg viewBox="0 0 15 15" width="100%" height="30px" preserveAspectRatio="xMaxYMin meet">
 <g id="arrow_out" transform="scale(0.3 0.3)">
  <a xlink:href="IPickable_8h__dep__incl_org.svg" target="_base">
   <rect id="button" ry="5" rx="5" y="6" x="6" height="38" width="38"
        fill="#f2f5e9" fill-opacity="0.5" stroke="#606060" stroke-width="1.0"/>
   <path id="arrow"
     d="M 11.500037,31.436501 C 11.940474,20.09759 22.043105,11.32322 32.158766,21.979434 L 37.068811,17.246167 C 37.068811,17.246167 37.088388,32 37.088388,32 L 22.160133,31.978069 C 22.160133,31.978069 26.997745,27.140456 26.997745,27.140456 C 18.528582,18.264221 13.291696,25.230495 11.500037,31.436501 z"
     style="fill:#404040;"/>
  </a>
 </g>
</svg>

<style type='text/css'>
<![CDATA[
[data-mouse-over-selected='false'] { opacity: 0.7; }
[data-mouse-over-selected='true']  { opacity: 1.0; }
]]>
</style>
<script type="application/ecmascript"><![CDATA[
document.addEventListener('DOMContentLoaded', (event) => {
  highlightEdges();
  highlightAdjacentNodes();
});
]]></script>
</svg>
