<?xml version="1.0" encoding="UTF-8" standalone="no"?>
<!DOCTYPE svg PUBLIC "-//W3C//DTD SVG 1.1//EN"
 "http://www.w3.org/Graphics/SVG/1.1/DTD/svg11.dtd">
<!-- Generated by graphviz version 2.43.0 (0)
 -->
<!-- Title: src/graphics/core/IPickable.h Pages: 1 -->
<svg width="3532pt" height="401pt"
 viewBox="0.00 0.00 3531.64 401.00" xmlns="http://www.w3.org/2000/svg" xmlns:xlink="http://www.w3.org/1999/xlink">
<g id="graph0" class="graph" transform="scale(1 1) rotate(0) translate(4 397)">
<title>src/graphics/core/IPickable.h</title>
<!-- Node1 -->
<g id="Node000001" class="node">
<title>Node1</title>
<g id="a_Node000001"><a xlink:title="Interface for objects that support mouse&#45;based selection and interaction.">
<polygon fill="#999999" stroke="#666666" points="433.14,-393 278.14,-393 278.14,-374 433.14,-374 433.14,-393"/>
<text text-anchor="middle" x="355.64" y="-381" font-family="Helvetica,sans-Serif" font-size="10.00">src/graphics/core/IPickable.h</text>
</a>
</g>
</g>
<!-- Node2 -->
<g id="Node000002" class="node">
<title>Node2</title>
<g id="a_Node000002"><a xlink:href="Gizmo_8h.html" target="_top" xlink:title="Interactive 3D manipulation gizmo for scene objects.">
<polygon fill="white" stroke="#666666" points="319.64,-338 181.64,-338 181.64,-308 319.64,-308 319.64,-338"/>
<text text-anchor="start" x="189.64" y="-326" font-family="Helvetica,sans-Serif" font-size="10.00">src/graphics/components</text>
<text text-anchor="middle" x="250.64" y="-315" font-family="Helvetica,sans-Serif" font-size="10.00">/Gizmo.h</text>
</a>
</g>
</g>
<!-- Node1&#45;&gt;Node2 -->
<g id="edge1_Node000001_Node000002" class="edge">
<title>Node1&#45;&gt;Node2</title>
<g id="a_edge1_Node000001_Node000002"><a xlink:title=" ">
<path fill="none" stroke="#63b8ff" d="M331.08,-368.81C314.51,-359.58 292.7,-347.43 275.98,-338.11"/>
<polygon fill="#63b8ff" stroke="#63b8ff" points="329.71,-372.06 340.15,-373.87 333.12,-365.94 329.71,-372.06"/>
</a>
</g>
</g>
<!-- Node9 -->
<g id="Node000009" class="node">
<title>Node9</title>
<g id="a_Node000009"><a xlink:href="SceneObject_8h.html" target="_top" xlink:title=" ">
<polygon fill="white" stroke="#666666" points="1740.64,-151 1568.64,-151 1568.64,-132 1740.64,-132 1740.64,-151"/>
<text text-anchor="middle" x="1654.64" y="-139" font-family="Helvetica,sans-Serif" font-size="10.00">src/graphics/core/SceneObject.h</text>
</a>
</g>
</g>
<!-- Node1&#45;&gt;Node9 -->
<g id="edge56_Node000001_Node000009" class="edge">
<title>Node1&#45;&gt;Node9</title>
<g id="a_edge56_Node000001_Node000009"><a xlink:title=" ">
<path fill="none" stroke="#63b8ff" d="M411.77,-372.13C628.74,-332.04 1410.29,-187.65 1608.63,-151"/>
<polygon fill="#63b8ff" stroke="#63b8ff" points="411.07,-368.7 401.87,-373.96 412.34,-375.58 411.07,-368.7"/>
</a>
</g>
</g>
<!-- Node35 -->
<g id="Node000035" class="node">
<title>Node35</title>
<g id="a_Node000035"><a xlink:href="MathUtils_8h.html" target="_top" xlink:title="Mathematical utility functions for 3D graphics and physics.">
<polygon fill="white" stroke="#666666" points="1454.14,-332.5 1335.14,-332.5 1335.14,-313.5 1454.14,-313.5 1454.14,-332.5"/>
<text text-anchor="middle" x="1394.64" y="-320.5" font-family="Helvetica,sans-Serif" font-size="10.00">src/math/MathUtils.h</text>
</a>
</g>
</g>
<!-- Node1&#45;&gt;Node35 -->
<g id="edge57_Node000001_Node000035" class="edge">
<title>Node1&#45;&gt;Node35</title>
<g id="a_edge57_Node000001_Node000035"><a xlink:title=" ">
<path fill="none" stroke="#63b8ff" d="M443.49,-377.55C649.7,-365.94 1160.46,-337.19 1335.03,-327.36"/>
<polygon fill="#63b8ff" stroke="#63b8ff" points="443.1,-374.07 433.31,-378.13 443.49,-381.06 443.1,-374.07"/>
</a>
</g>
</g>
<!-- Node3 -->
<g id="Node000003" class="node">
<title>Node3</title>
<g id="a_Node000003"><a xlink:href="Gizmo_8cpp.html" target="_top" xlink:title=" ">
<polygon fill="white" stroke="#666666" points="443.64,-30 305.64,-30 305.64,0 443.64,0 443.64,-30"/>
<text text-anchor="start" x="313.64" y="-18" font-family="Helvetica,sans-Serif" font-size="10.00">src/graphics/components</text>
<text text-anchor="middle" x="374.64" y="-7" font-family="Helvetica,sans-Serif" font-size="10.00">/Gizmo.cpp</text>
</a>
</g>
</g>
<!-- Node2&#45;&gt;Node3 -->
<g id="edge2_Node000002_Node000003" class="edge">
<title>Node2&#45;&gt;Node3</title>
<g id="a_edge2_Node000002_Node000003"><a xlink:title=" ">
<path fill="none" stroke="#63b8ff" d="M171.5,-315.18C98.59,-304.03 1.64,-274.7 1.64,-197.5 1.64,-197.5 1.64,-197.5 1.64,-140.5 1.64,-106.33 -4.93,-88.67 20.64,-66 66.92,-24.96 235.52,-39.47 296.64,-30 299.5,-29.56 302.41,-29.09 305.35,-28.62"/>
<polygon fill="#63b8ff" stroke="#63b8ff" points="171.22,-318.67 181.61,-316.63 172.21,-311.74 171.22,-318.67"/>
</a>
</g>
</g>
<!-- Node4 -->
<g id="Node000004" class="node">
<title>Node4</title>
<g id="a_Node000004"><a xlink:href="Scene_8h.html" target="_top" xlink:title=" ">
<polygon fill="white" stroke="#666666" points="1464.64,-266.5 1324.64,-266.5 1324.64,-247.5 1464.64,-247.5 1464.64,-266.5"/>
<text text-anchor="middle" x="1394.64" y="-254.5" font-family="Helvetica,sans-Serif" font-size="10.00">src/graphics/core/Scene.h</text>
</a>
</g>
</g>
<!-- Node2&#45;&gt;Node4 -->
<g id="edge3_Node000002_Node000004" class="edge">
<title>Node2&#45;&gt;Node4</title>
<g id="a_edge3_Node000002_Node000004"><a xlink:title=" ">
<path fill="none" stroke="#63b8ff" d="M330.21,-317.55C543.08,-305.64 1123.06,-273.19 1324.55,-261.92"/>
<polygon fill="#63b8ff" stroke="#63b8ff" points="329.84,-314.06 320.05,-318.12 330.23,-321.05 329.84,-314.06"/>
</a>
</g>
</g>
<!-- Node25 -->
<g id="Node000025" class="node">
<title>Node25</title>
<g id="a_Node000025"><a xlink:href="OpenGLWindow_8cpp.html" target="_top" xlink:title=" ">
<polygon fill="white" stroke="#666666" points="171.64,-90.5 29.64,-90.5 29.64,-71.5 171.64,-71.5 171.64,-90.5"/>
<text text-anchor="middle" x="100.64" y="-78.5" font-family="Helvetica,sans-Serif" font-size="10.00">src/ui/OpenGLWindow.cpp</text>
</a>
</g>
</g>
<!-- Node2&#45;&gt;Node25 -->
<g id="edge55_Node000002_Node000025" class="edge">
<title>Node2&#45;&gt;Node25</title>
<g id="a_edge55_Node000002_Node000025"><a xlink:title=" ">
<path fill="none" stroke="#63b8ff" d="M236.22,-298.92C203.9,-247.21 126.88,-123.99 105.96,-90.52"/>
<polygon fill="#63b8ff" stroke="#63b8ff" points="233.44,-301.08 241.71,-307.71 239.38,-297.37 233.44,-301.08"/>
</a>
</g>
</g>
<!-- Node5 -->
<g id="Node000005" class="node">
<title>Node5</title>
<g id="a_Node000005"><a xlink:href="Scene_8cpp.html" target="_top" xlink:title=" ">
<polygon fill="white" stroke="#666666" points="3523.64,-90.5 3371.64,-90.5 3371.64,-71.5 3523.64,-71.5 3523.64,-90.5"/>
<text text-anchor="middle" x="3447.64" y="-78.5" font-family="Helvetica,sans-Serif" font-size="10.00">src/graphics/core/Scene.cpp</text>
</a>
</g>
</g>
<!-- Node4&#45;&gt;Node5 -->
<g id="edge4_Node000004_Node000005" class="edge">
<title>Node4&#45;&gt;Node5</title>
<g id="a_edge4_Node000004_Node000005"><a xlink:title=" ">
<path fill="none" stroke="#63b8ff" d="M1446.72,-245.78C1455.99,-244.27 1465.58,-242.92 1474.64,-242 2003.69,-188.03 2139.67,-235.67 2670.64,-206 2970.28,-189.26 3060.08,-249.29 3343.64,-151 3382.54,-137.52 3420.99,-106.04 3438.23,-90.71"/>
<polygon fill="#63b8ff" stroke="#63b8ff" points="1446.11,-242.33 1436.83,-247.45 1447.28,-249.23 1446.11,-242.33"/>
</a>
</g>
</g>
<!-- Node6 -->
<g id="Node000006" class="node">
<title>Node6</title>
<g id="a_Node000006"><a xlink:href="SceneManager_8h.html" target="_top" xlink:title=" ">
<polygon fill="white" stroke="#666666" points="2329.64,-206 2147.64,-206 2147.64,-187 2329.64,-187 2329.64,-206"/>
<text text-anchor="middle" x="2238.64" y="-194" font-family="Helvetica,sans-Serif" font-size="10.00">src/graphics/core/SceneManager.h</text>
</a>
</g>
</g>
<!-- Node4&#45;&gt;Node6 -->
<g id="edge5_Node000004_Node000006" class="edge">
<title>Node4&#45;&gt;Node6</title>
<g id="a_edge5_Node000004_Node000006"><a xlink:title=" ">
<path fill="none" stroke="#63b8ff" d="M1447.98,-245.79C1456.86,-244.34 1465.99,-243.01 1474.64,-242 1716.65,-213.87 2003.96,-203.21 2147.5,-199.42"/>
<polygon fill="#63b8ff" stroke="#63b8ff" points="1447.38,-242.34 1438.1,-247.46 1448.55,-249.24 1447.38,-242.34"/>
</a>
</g>
</g>
<!-- Node8 -->
<g id="Node000008" class="node">
<title>Node8</title>
<g id="a_Node000008"><a xlink:href="SceneObject_8cpp.html" target="_top" xlink:title=" ">
<polygon fill="white" stroke="#666666" points="3218.14,-90.5 3035.14,-90.5 3035.14,-71.5 3218.14,-71.5 3218.14,-90.5"/>
<text text-anchor="middle" x="3126.64" y="-78.5" font-family="Helvetica,sans-Serif" font-size="10.00">src/graphics/core/SceneObject.cpp</text>
</a>
</g>
</g>
<!-- Node4&#45;&gt;Node8 -->
<g id="edge53_Node000004_Node000008" class="edge">
<title>Node4&#45;&gt;Node8</title>
<g id="a_edge53_Node000004_Node000008"><a xlink:title=" ">
<path fill="none" stroke="#63b8ff" d="M1447.34,-245.77C1456.42,-244.29 1465.78,-242.96 1474.64,-242 2115.75,-172.85 2291.99,-285.44 2922.64,-151 2991.93,-136.23 3070.42,-105.52 3106.52,-90.56"/>
<polygon fill="#63b8ff" stroke="#63b8ff" points="1446.53,-242.35 1437.26,-247.47 1447.7,-249.25 1446.53,-242.35"/>
</a>
</g>
</g>
<!-- Node4&#45;&gt;Node25 -->
<g id="edge54_Node000004_Node000025" class="edge">
<title>Node4&#45;&gt;Node25</title>
<g id="a_edge54_Node000004_Node000025"><a xlink:title=" ">
<path fill="none" stroke="#63b8ff" d="M1314.4,-252.17C1088.79,-240.85 452.26,-204.92 250.64,-151 198.03,-136.93 140.89,-105.74 114.92,-90.59"/>
<polygon fill="#63b8ff" stroke="#63b8ff" points="1314.34,-255.67 1324.51,-252.68 1314.69,-248.68 1314.34,-255.67"/>
</a>
</g>
</g>
<!-- Node6&#45;&gt;Node3 -->
<g id="edge6_Node000006_Node000003" class="edge">
<title>Node6&#45;&gt;Node3</title>
<g id="a_edge6_Node000006_Node000003"><a xlink:title=" ">
<path fill="none" stroke="#63b8ff" d="M2137.37,-195.95C1774.91,-196.75 556.07,-192.22 412.64,-96 390.17,-80.92 380.64,-48.76 376.87,-30.14"/>
<polygon fill="#63b8ff" stroke="#63b8ff" points="2137.6,-199.45 2147.59,-195.93 2137.58,-192.45 2137.6,-199.45"/>
</a>
</g>
</g>
<!-- Node7 -->
<g id="Node000007" class="node">
<title>Node7</title>
<g id="a_Node000007"><a xlink:href="SceneManager_8cpp.html" target="_top" xlink:title=" ">
<polygon fill="white" stroke="#666666" points="2574.64,-24.5 2380.64,-24.5 2380.64,-5.5 2574.64,-5.5 2574.64,-24.5"/>
<text text-anchor="middle" x="2477.64" y="-12.5" font-family="Helvetica,sans-Serif" font-size="10.00">src/graphics/core/SceneManager.cpp</text>
</a>
</g>
</g>
<!-- Node6&#45;&gt;Node7 -->
<g id="edge7_Node000006_Node000007" class="edge">
<title>Node6&#45;&gt;Node7</title>
<g id="a_edge7_Node000006_Node000007"><a xlink:title=" ">
<path fill="none" stroke="#63b8ff" d="M2340.13,-192.34C2480.01,-187.12 2718.51,-174.85 2750.64,-151 2781.98,-127.74 2797.82,-95.81 2772.64,-66 2758.94,-49.78 2642.41,-33.88 2559.99,-24.51"/>
<polygon fill="#63b8ff" stroke="#63b8ff" points="2339.69,-188.85 2329.82,-192.71 2339.94,-195.85 2339.69,-188.85"/>
</a>
</g>
</g>
<!-- Node6&#45;&gt;Node8 -->
<g id="edge8_Node000006_Node000008" class="edge">
<title>Node6&#45;&gt;Node8</title>
<g id="a_edge8_Node000006_Node000008"><a xlink:title=" ">
<path fill="none" stroke="#63b8ff" d="M2340.15,-194.13C2464.71,-191.12 2682.01,-181.51 2865.64,-151 2953.26,-136.44 3054.18,-105.63 3100.69,-90.6"/>
<polygon fill="#63b8ff" stroke="#63b8ff" points="2339.78,-190.64 2329.86,-194.37 2339.94,-197.64 2339.78,-190.64"/>
</a>
</g>
</g>
<!-- Node6&#45;&gt;Node9 -->
<g id="edge9_Node000006_Node000009" class="edge">
<title>Node6&#45;&gt;Node9</title>
<g id="a_edge9_Node000006_Node000009"><a xlink:title=" ">
<path fill="none" stroke="#63b8ff" d="M2137.43,-186.31C2025.38,-176.15 1846.66,-159.93 1740.97,-150.33"/>
<polygon fill="#63b8ff" stroke="#63b8ff" points="2137.12,-189.8 2147.39,-187.22 2137.75,-182.83 2137.12,-189.8"/>
</a>
</g>
</g>
<!-- Node16 -->
<g id="Node000016" class="node">
<title>Node16</title>
<g id="a_Node000016"><a xlink:href="Colliders_8cpp.html" target="_top" xlink:title=" ">
<polygon fill="white" stroke="#666666" points="1913.64,-96 1805.64,-96 1805.64,-66 1913.64,-66 1913.64,-96"/>
<text text-anchor="start" x="1813.64" y="-84" font-family="Helvetica,sans-Serif" font-size="10.00">src/graphics/debug</text>
<text text-anchor="middle" x="1859.64" y="-73" font-family="Helvetica,sans-Serif" font-size="10.00">/Colliders.cpp</text>
</a>
</g>
</g>
<!-- Node6&#45;&gt;Node16 -->
<g id="edge43_Node000006_Node000016" class="edge">
<title>Node6&#45;&gt;Node16</title>
<g id="a_edge43_Node000006_Node000016"><a xlink:title=" ">
<path fill="none" stroke="#63b8ff" d="M2200.44,-184.06C2130.61,-163.15 1982.58,-118.82 1906.68,-96.09"/>
<polygon fill="#63b8ff" stroke="#63b8ff" points="2199.57,-187.45 2210.16,-186.97 2201.58,-180.75 2199.57,-187.45"/>
</a>
</g>
</g>
<!-- Node18 -->
<g id="Node000018" class="node">
<title>Node18</title>
<g id="a_Node000018"><a xlink:href="Forces_8cpp.html" target="_top" xlink:title=" ">
<polygon fill="white" stroke="#666666" points="2778.64,-30 2670.64,-30 2670.64,0 2778.64,0 2778.64,-30"/>
<text text-anchor="start" x="2678.64" y="-18" font-family="Helvetica,sans-Serif" font-size="10.00">src/graphics/debug</text>
<text text-anchor="middle" x="2724.64" y="-7" font-family="Helvetica,sans-Serif" font-size="10.00">/Forces.cpp</text>
</a>
</g>
</g>
<!-- Node6&#45;&gt;Node18 -->
<g id="edge44_Node000006_Node000018" class="edge">
<title>Node6&#45;&gt;Node18</title>
<g id="a_edge44_Node000006_Node000018"><a xlink:title=" ">
<path fill="none" stroke="#63b8ff" d="M2339.96,-192.97C2485.57,-188.46 2740.27,-176.93 2773.64,-151 2804.21,-127.25 2810.12,-100.54 2792.64,-66 2784.7,-50.31 2769.27,-38.34 2755.1,-30.06"/>
<polygon fill="#63b8ff" stroke="#63b8ff" points="2339.56,-189.48 2329.67,-193.29 2339.77,-196.48 2339.56,-189.48"/>
</a>
</g>
</g>
<!-- Node19 -->
<g id="Node000019" class="node">
<title>Node19</title>
<g id="a_Node000019"><a xlink:href="PathTraces_8cpp.html" target="_top" xlink:title=" ">
<polygon fill="white" stroke="#666666" points="1749.64,-30 1641.64,-30 1641.64,0 1749.64,0 1749.64,-30"/>
<text text-anchor="start" x="1649.64" y="-18" font-family="Helvetica,sans-Serif" font-size="10.00">src/graphics/debug</text>
<text text-anchor="middle" x="1695.64" y="-7" font-family="Helvetica,sans-Serif" font-size="10.00">/PathTraces.cpp</text>
</a>
</g>
</g>
<!-- Node6&#45;&gt;Node19 -->
<g id="edge45_Node000006_Node000019" class="edge">
<title>Node6&#45;&gt;Node19</title>
<g id="a_edge45_Node000006_Node000019"><a xlink:title=" ">
<path fill="none" stroke="#63b8ff" d="M2270.16,-183.13C2322.85,-160.75 2419.07,-111.65 2376.64,-66 2334.3,-20.44 1903.68,-15.98 1749.87,-15.85"/>
<polygon fill="#63b8ff" stroke="#63b8ff" points="2268.76,-179.92 2260.87,-186.99 2271.45,-186.38 2268.76,-179.92"/>
</a>
</g>
</g>
<!-- Node21 -->
<g id="Node000021" class="node">
<title>Node21</title>
<g id="a_Node000021"><a xlink:href="AstronomyPresets_8cpp.html" target="_top" xlink:title=" ">
<polygon fill="white" stroke="#666666" points="2061.14,-96 1932.14,-96 1932.14,-66 2061.14,-66 2061.14,-96"/>
<text text-anchor="start" x="1940.14" y="-84" font-family="Helvetica,sans-Serif" font-size="10.00">src/graphics/presets</text>
<text text-anchor="middle" x="1996.64" y="-73" font-family="Helvetica,sans-Serif" font-size="10.00">/AstronomyPresets.cpp</text>
</a>
</g>
</g>
<!-- Node6&#45;&gt;Node21 -->
<g id="edge46_Node000006_Node000021" class="edge">
<title>Node6&#45;&gt;Node21</title>
<g id="a_edge46_Node000006_Node000021"><a xlink:title=" ">
<path fill="none" stroke="#63b8ff" d="M2211.17,-182.62C2165.5,-161.2 2074.31,-118.43 2026.88,-96.18"/>
<polygon fill="#63b8ff" stroke="#63b8ff" points="2209.91,-185.89 2220.45,-186.97 2212.89,-179.55 2209.91,-185.89"/>
</a>
</g>
</g>
<!-- Node6&#45;&gt;Node25 -->
<g id="edge50_Node000006_Node000025" class="edge">
<title>Node6&#45;&gt;Node25</title>
<g id="a_edge50_Node000006_Node000025"><a xlink:title=" ">
<path fill="none" stroke="#63b8ff" d="M2137.5,-194.64C1770.2,-191.3 519.15,-178.04 341.64,-151 259.25,-138.45 165.27,-106.07 123.14,-90.54"/>
<polygon fill="#63b8ff" stroke="#63b8ff" points="2137.55,-198.14 2147.58,-194.73 2137.61,-191.14 2137.55,-198.14"/>
</a>
</g>
</g>
<!-- Node27 -->
<g id="Node000027" class="node">
<title>Node27</title>
<g id="a_Node000027"><a xlink:href="GlobalsInspectorWidget_8cpp.html" target="_top" xlink:title=" ">
<polygon fill="white" stroke="#666666" points="2210.14,-96 2079.14,-96 2079.14,-66 2210.14,-66 2210.14,-96"/>
<text text-anchor="start" x="2087.14" y="-84" font-family="Helvetica,sans-Serif" font-size="10.00">src/ui/inspector/Globals</text>
<text text-anchor="middle" x="2144.64" y="-73" font-family="Helvetica,sans-Serif" font-size="10.00">InspectorWidget.cpp</text>
</a>
</g>
</g>
<!-- Node6&#45;&gt;Node27 -->
<g id="edge51_Node000006_Node000027" class="edge">
<title>Node6&#45;&gt;Node27</title>
<g id="a_edge51_Node000006_Node000027"><a xlink:title=" ">
<path fill="none" stroke="#63b8ff" d="M2225.04,-179.08C2206.57,-156.77 2173.85,-117.26 2156.39,-96.18"/>
<polygon fill="#63b8ff" stroke="#63b8ff" points="2222.5,-181.5 2231.58,-186.97 2227.89,-177.03 2222.5,-181.5"/>
</a>
</g>
</g>
<!-- Node28 -->
<g id="Node000028" class="node">
<title>Node28</title>
<g id="a_Node000028"><a xlink:href="InspectorWidget_8cpp.html" target="_top" xlink:title=" ">
<polygon fill="white" stroke="#666666" points="2367.14,-96 2228.14,-96 2228.14,-66 2367.14,-66 2367.14,-96"/>
<text text-anchor="start" x="2236.14" y="-84" font-family="Helvetica,sans-Serif" font-size="10.00">src/ui/inspector/Inspector</text>
<text text-anchor="middle" x="2297.64" y="-73" font-family="Helvetica,sans-Serif" font-size="10.00">Widget.cpp</text>
</a>
</g>
</g>
<!-- Node6&#45;&gt;Node28 -->
<g id="edge52_Node000006_Node000028" class="edge">
<title>Node6&#45;&gt;Node28</title>
<g id="a_edge52_Node000006_Node000028"><a xlink:title=" ">
<path fill="none" stroke="#63b8ff" d="M2247.8,-177.88C2259.5,-155.38 2279.51,-116.89 2290.27,-96.18"/>
<polygon fill="#63b8ff" stroke="#63b8ff" points="2244.58,-176.48 2243.08,-186.97 2250.79,-179.71 2244.58,-176.48"/>
</a>
</g>
</g>
<!-- Node32 -->
<g id="Node000032" class="node">
<title>Node32</title>
<g id="a_Node000032"><a xlink:href="SceneSerializer_8h.html" target="_top" xlink:title=" ">
<polygon fill="white" stroke="#666666" points="2741.14,-151 2556.14,-151 2556.14,-132 2741.14,-132 2741.14,-151"/>
<text text-anchor="middle" x="2648.64" y="-139" font-family="Helvetica,sans-Serif" font-size="10.00">src/graphics/core/SceneSerializer.h</text>
</a>
</g>
</g>
<!-- Node6&#45;&gt;Node32 -->
<g id="edge40_Node000006_Node000032" class="edge">
<title>Node6&#45;&gt;Node32</title>
<g id="a_edge40_Node000006_Node000032"><a xlink:title=" ">
<path fill="none" stroke="#63b8ff" d="M2314.63,-185.68C2391.58,-175.73 2509.41,-160.5 2582.59,-151.04"/>
<polygon fill="#63b8ff" stroke="#63b8ff" points="2313.98,-182.23 2304.52,-186.98 2314.88,-189.17 2313.98,-182.23"/>
</a>
</g>
</g>
<!-- Node33 -->
<g id="Node000033" class="node">
<title>Node33</title>
<g id="a_Node000033"><a xlink:href="MainWindow_8h.html" target="_top" xlink:title=" ">
<polygon fill="white" stroke="#666666" points="3334.14,-151 3217.14,-151 3217.14,-132 3334.14,-132 3334.14,-151"/>
<text text-anchor="middle" x="3275.64" y="-139" font-family="Helvetica,sans-Serif" font-size="10.00">src/ui/MainWindow.h</text>
</a>
</g>
</g>
<!-- Node6&#45;&gt;Node33 -->
<g id="edge47_Node000006_Node000033" class="edge">
<title>Node6&#45;&gt;Node33</title>
<g id="a_edge47_Node000006_Node000033"><a xlink:title=" ">
<path fill="none" stroke="#63b8ff" d="M2340.06,-190.32C2554.31,-179.37 3047.23,-154.17 3216.96,-145.5"/>
<polygon fill="#63b8ff" stroke="#63b8ff" points="2339.57,-186.84 2329.76,-190.84 2339.93,-193.83 2339.57,-186.84"/>
</a>
</g>
</g>
<!-- Node9&#45;&gt;Node3 -->
<g id="edge10_Node000009_Node000003" class="edge">
<title>Node9&#45;&gt;Node3</title>
<g id="a_edge10_Node000009_Node000003"><a xlink:title=" ">
<path fill="none" stroke="#63b8ff" d="M1558.46,-135.82C1458.53,-129.89 1309.49,-117.71 1256.64,-96 1236.74,-87.82 1238.75,-73.66 1218.64,-66 1147.14,-38.78 632.25,-22.73 443.64,-17.71"/>
<polygon fill="#63b8ff" stroke="#63b8ff" points="1558.39,-139.32 1568.58,-136.41 1558.8,-132.34 1558.39,-139.32"/>
</a>
</g>
</g>
<!-- Node9&#45;&gt;Node5 -->
<g id="edge17_Node000009_Node000005" class="edge">
<title>Node9&#45;&gt;Node5</title>
<g id="a_edge17_Node000009_Node000005"><a xlink:title=" ">
<path fill="none" stroke="#63b8ff" d="M1750.83,-140.85C2007.04,-141.15 2727.21,-137.88 3324.64,-96 3343.4,-94.68 3363.71,-92.63 3382.31,-90.5"/>
<polygon fill="#63b8ff" stroke="#63b8ff" points="1750.82,-137.35 1740.81,-140.84 1750.81,-144.35 1750.82,-137.35"/>
</a>
</g>
</g>
<!-- Node9&#45;&gt;Node7 -->
<g id="edge18_Node000009_Node000007" class="edge">
<title>Node9&#45;&gt;Node7</title>
<g id="a_edge18_Node000009_Node000007"><a xlink:title=" ">
<path fill="none" stroke="#63b8ff" d="M1688.89,-128.47C1709.72,-120.53 1736.49,-109.17 1758.64,-96 1777.14,-85.01 1776.59,-73.8 1796.64,-66 1900.37,-25.68 2218.24,-17.61 2380.36,-16.17"/>
<polygon fill="#63b8ff" stroke="#63b8ff" points="1687.63,-125.21 1679.48,-131.99 1690.08,-131.77 1687.63,-125.21"/>
</a>
</g>
</g>
<!-- Node9&#45;&gt;Node8 -->
<g id="edge19_Node000009_Node000008" class="edge">
<title>Node9&#45;&gt;Node8</title>
<g id="a_edge19_Node000009_Node000008"><a xlink:title=" ">
<path fill="none" stroke="#63b8ff" d="M1750.8,-140.9C1974.87,-141.07 2549,-137.06 3026.64,-96 3041.92,-94.69 3058.44,-92.63 3073.57,-90.5"/>
<polygon fill="#63b8ff" stroke="#63b8ff" points="1750.72,-137.4 1740.72,-140.89 1750.71,-144.4 1750.72,-137.4"/>
</a>
</g>
</g>
<!-- Node10 -->
<g id="Node000010" class="node">
<title>Node10</title>
<g id="a_Node000010"><a xlink:href="RotateHandle_8cpp.html" target="_top" xlink:title=" ">
<polygon fill="white" stroke="#666666" points="873.64,-96 735.64,-96 735.64,-66 873.64,-66 873.64,-96"/>
<text text-anchor="start" x="743.64" y="-84" font-family="Helvetica,sans-Serif" font-size="10.00">src/graphics/components</text>
<text text-anchor="middle" x="804.64" y="-73" font-family="Helvetica,sans-Serif" font-size="10.00">/RotateHandle.cpp</text>
</a>
</g>
</g>
<!-- Node9&#45;&gt;Node10 -->
<g id="edge11_Node000009_Node000010" class="edge">
<title>Node9&#45;&gt;Node10</title>
<g id="a_edge11_Node000009_Node000010"><a xlink:title=" ">
<path fill="none" stroke="#63b8ff" d="M1558.08,-138.65C1411.59,-135.01 1124.65,-124.59 882.64,-96 879.77,-95.66 876.85,-95.28 873.9,-94.88"/>
<polygon fill="#63b8ff" stroke="#63b8ff" points="1558.3,-142.16 1568.38,-138.9 1558.47,-135.16 1558.3,-142.16"/>
</a>
</g>
</g>
<!-- Node11 -->
<g id="Node000011" class="node">
<title>Node11</title>
<g id="a_Node000011"><a xlink:href="ScaleHandle_8h.html" target="_top" xlink:title=" ">
<polygon fill="white" stroke="#666666" points="327.64,-96 189.64,-96 189.64,-66 327.64,-66 327.64,-96"/>
<text text-anchor="start" x="197.64" y="-84" font-family="Helvetica,sans-Serif" font-size="10.00">src/graphics/components</text>
<text text-anchor="middle" x="258.64" y="-73" font-family="Helvetica,sans-Serif" font-size="10.00">/ScaleHandle.h</text>
</a>
</g>
</g>
<!-- Node9&#45;&gt;Node11 -->
<g id="edge12_Node000009_Node000011" class="edge">
<title>Node9&#45;&gt;Node11</title>
<g id="a_edge12_Node000009_Node000011"><a xlink:title=" ">
<path fill="none" stroke="#63b8ff" d="M1558.34,-138.85C1349.48,-134.87 839.28,-123.02 412.64,-96 384.91,-94.24 354.43,-91.62 327.96,-89.12"/>
<polygon fill="#63b8ff" stroke="#63b8ff" points="1558.29,-142.35 1568.36,-139.04 1558.43,-135.35 1558.29,-142.35"/>
</a>
</g>
</g>
<!-- Node13 -->
<g id="Node000013" class="node">
<title>Node13</title>
<g id="a_Node000013"><a xlink:href="TranslateHandle_8cpp.html" target="_top" xlink:title=" ">
<polygon fill="white" stroke="#666666" points="1029.64,-96 891.64,-96 891.64,-66 1029.64,-66 1029.64,-96"/>
<text text-anchor="start" x="899.64" y="-84" font-family="Helvetica,sans-Serif" font-size="10.00">src/graphics/components</text>
<text text-anchor="middle" x="960.64" y="-73" font-family="Helvetica,sans-Serif" font-size="10.00">/TranslateHandle.cpp</text>
</a>
</g>
</g>
<!-- Node9&#45;&gt;Node13 -->
<g id="edge15_Node000009_Node000013" class="edge">
<title>Node9&#45;&gt;Node13</title>
<g id="a_edge15_Node000009_Node000013"><a xlink:title=" ">
<path fill="none" stroke="#63b8ff" d="M1558.55,-136.62C1437.27,-131.02 1222.4,-118.74 1039.64,-96 1036.46,-95.6 1033.22,-95.17 1029.94,-94.7"/>
<polygon fill="#63b8ff" stroke="#63b8ff" points="1558.4,-140.12 1568.55,-137.08 1558.72,-133.12 1558.4,-140.12"/>
</a>
</g>
</g>
<!-- Node14 -->
<g id="Node000014" class="node">
<title>Node14</title>
<g id="a_Node000014"><a xlink:href="Camera_8cpp.html" target="_top" xlink:title=" ">
<polygon fill="white" stroke="#666666" points="1209.14,-90.5 1048.14,-90.5 1048.14,-71.5 1209.14,-71.5 1209.14,-90.5"/>
<text text-anchor="middle" x="1128.64" y="-78.5" font-family="Helvetica,sans-Serif" font-size="10.00">src/graphics/core/Camera.cpp</text>
</a>
</g>
</g>
<!-- Node9&#45;&gt;Node14 -->
<g id="edge16_Node000009_Node000014" class="edge">
<title>Node9&#45;&gt;Node14</title>
<g id="a_edge16_Node000009_Node000014"><a xlink:title=" ">
<path fill="none" stroke="#63b8ff" d="M1558.07,-131.74C1470.63,-123.52 1338.34,-110.37 1223.64,-96 1210.66,-94.37 1196.7,-92.43 1183.59,-90.51"/>
<polygon fill="#63b8ff" stroke="#63b8ff" points="1557.96,-135.24 1568.24,-132.69 1558.62,-128.27 1557.96,-135.24"/>
</a>
</g>
</g>
<!-- Node15 -->
<g id="Node000015" class="node">
<title>Node15</title>
<g id="a_Node000015"><a xlink:href="SceneSerializer_8cpp.html" target="_top" xlink:title=" ">
<polygon fill="white" stroke="#666666" points="2747.14,-90.5 2550.14,-90.5 2550.14,-71.5 2747.14,-71.5 2747.14,-90.5"/>
<text text-anchor="middle" x="2648.64" y="-78.5" font-family="Helvetica,sans-Serif" font-size="10.00">src/graphics/core/SceneSerializer.cpp</text>
</a>
</g>
</g>
<!-- Node9&#45;&gt;Node15 -->
<g id="edge20_Node000009_Node000015" class="edge">
<title>Node9&#45;&gt;Node15</title>
<g id="a_edge20_Node000009_Node000015"><a xlink:title=" ">
<path fill="none" stroke="#63b8ff" d="M1750.95,-138.15C1913.84,-133.61 2254.04,-121.73 2540.64,-96 2556.55,-94.57 2573.73,-92.56 2589.6,-90.51"/>
<polygon fill="#63b8ff" stroke="#63b8ff" points="1750.85,-134.65 1740.95,-138.42 1751.04,-141.64 1750.85,-134.65"/>
</a>
</g>
</g>
<!-- Node9&#45;&gt;Node16 -->
<g id="edge21_Node000009_Node000016" class="edge">
<title>Node9&#45;&gt;Node16</title>
<g id="a_edge21_Node000009_Node000016"><a xlink:title=" ">
<path fill="none" stroke="#63b8ff" d="M1694.24,-129.2C1727.37,-119.75 1774.78,-106.22 1810.36,-96.06"/>
<polygon fill="#63b8ff" stroke="#63b8ff" points="1693.11,-125.88 1684.45,-131.99 1695.03,-132.62 1693.11,-125.88"/>
</a>
</g>
</g>
<!-- Node17 -->
<g id="Node000017" class="node">
<title>Node17</title>
<g id="a_Node000017"><a xlink:href="Forces_8h.html" target="_top" xlink:title=" ">
<polygon fill="white" stroke="#666666" points="2531.64,-96 2423.64,-96 2423.64,-66 2531.64,-66 2531.64,-96"/>
<text text-anchor="start" x="2431.64" y="-84" font-family="Helvetica,sans-Serif" font-size="10.00">src/graphics/debug</text>
<text text-anchor="middle" x="2477.64" y="-73" font-family="Helvetica,sans-Serif" font-size="10.00">/Forces.h</text>
</a>
</g>
</g>
<!-- Node9&#45;&gt;Node17 -->
<g id="edge22_Node000009_Node000017" class="edge">
<title>Node9&#45;&gt;Node17</title>
<g id="a_edge22_Node000009_Node000017"><a xlink:title=" ">
<path fill="none" stroke="#63b8ff" d="M1750.83,-136.9C1889.39,-131.19 2153.09,-118.35 2376.64,-96 2391.88,-94.48 2408.35,-92.38 2423.48,-90.28"/>
<polygon fill="#63b8ff" stroke="#63b8ff" points="1750.52,-133.41 1740.67,-137.32 1750.8,-140.41 1750.52,-133.41"/>
</a>
</g>
</g>
<!-- Node9&#45;&gt;Node19 -->
<g id="edge25_Node000009_Node000019" class="edge">
<title>Node9&#45;&gt;Node19</title>
<g id="a_edge25_Node000009_Node000019"><a xlink:title=" ">
<path fill="none" stroke="#63b8ff" d="M1642.65,-123.36C1633.41,-107.87 1623.61,-84.71 1632.64,-66 1640.05,-50.66 1654.71,-38.59 1668.02,-30.15"/>
<polygon fill="#63b8ff" stroke="#63b8ff" points="1639.8,-125.39 1648.16,-131.9 1645.68,-121.6 1639.8,-125.39"/>
</a>
</g>
</g>
<!-- Node20 -->
<g id="Node000020" class="node">
<title>Node20</title>
<g id="a_Node000020"><a xlink:href="PathTraces_8h.html" target="_top" xlink:title=" ">
<polygon fill="white" stroke="#666666" points="1749.64,-96 1641.64,-96 1641.64,-66 1749.64,-66 1749.64,-96"/>
<text text-anchor="start" x="1649.64" y="-84" font-family="Helvetica,sans-Serif" font-size="10.00">src/graphics/debug</text>
<text text-anchor="middle" x="1695.64" y="-73" font-family="Helvetica,sans-Serif" font-size="10.00">/PathTraces.h</text>
</a>
</g>
</g>
<!-- Node9&#45;&gt;Node20 -->
<g id="edge26_Node000009_Node000020" class="edge">
<title>Node9&#45;&gt;Node20</title>
<g id="a_edge26_Node000009_Node000020"><a xlink:title=" ">
<path fill="none" stroke="#63b8ff" d="M1666.48,-123.61C1672.59,-114.89 1679.95,-104.39 1685.75,-96.11"/>
<polygon fill="#63b8ff" stroke="#63b8ff" points="1663.56,-121.67 1660.69,-131.87 1669.3,-125.69 1663.56,-121.67"/>
</a>
</g>
</g>
<!-- Node9&#45;&gt;Node21 -->
<g id="edge29_Node000009_Node000021" class="edge">
<title>Node9&#45;&gt;Node21</title>
<g id="a_edge29_Node000009_Node000021"><a xlink:title=" ">
<path fill="none" stroke="#63b8ff" d="M1718.27,-130.35C1772.61,-121.58 1852.84,-108.4 1922.64,-96 1925.73,-95.45 1928.89,-94.88 1932.08,-94.3"/>
<polygon fill="#63b8ff" stroke="#63b8ff" points="1717.41,-126.94 1708.09,-131.99 1718.52,-133.85 1717.41,-126.94"/>
</a>
</g>
</g>
<!-- Node22 -->
<g id="Node000022" class="node">
<title>Node22</title>
<g id="a_Node000022"><a xlink:href="HierarchyWidget_8h.html" target="_top" xlink:title=" ">
<polygon fill="white" stroke="#666666" points="3017.14,-90.5 2880.14,-90.5 2880.14,-71.5 3017.14,-71.5 3017.14,-90.5"/>
<text text-anchor="middle" x="2948.64" y="-78.5" font-family="Helvetica,sans-Serif" font-size="10.00">src/ui/HierarchyWidget.h</text>
</a>
</g>
</g>
<!-- Node9&#45;&gt;Node22 -->
<g id="edge30_Node000009_Node000022" class="edge">
<title>Node9&#45;&gt;Node22</title>
<g id="a_edge30_Node000009_Node000022"><a xlink:title=" ">
<path fill="none" stroke="#63b8ff" d="M1750.81,-137.67C1942.34,-131.79 2385.02,-117.05 2756.64,-96 2797.52,-93.69 2843.24,-90.38 2879.81,-87.56"/>
<polygon fill="#63b8ff" stroke="#63b8ff" points="1750.66,-134.17 1740.77,-137.97 1750.88,-141.17 1750.66,-134.17"/>
</a>
</g>
</g>
<!-- Node9&#45;&gt;Node25 -->
<g id="edge33_Node000009_Node000025" class="edge">
<title>Node9&#45;&gt;Node25</title>
<g id="a_edge33_Node000009_Node000025"><a xlink:title=" ">
<path fill="none" stroke="#63b8ff" d="M1558,-139.39C1274.65,-135.85 449.05,-123.4 180.64,-96 168.3,-94.74 154.99,-92.69 142.83,-90.55"/>
<polygon fill="#63b8ff" stroke="#63b8ff" points="1558.21,-142.89 1568.26,-139.52 1558.3,-135.89 1558.21,-142.89"/>
</a>
</g>
</g>
<!-- Node26 -->
<g id="Node000026" class="node">
<title>Node26</title>
<g id="a_Node000026"><a xlink:href="ForcesInspectorWidget_8cpp.html" target="_top" xlink:title=" ">
<polygon fill="white" stroke="#666666" points="1435.64,-96 1265.64,-96 1265.64,-66 1435.64,-66 1435.64,-96"/>
<text text-anchor="start" x="1273.64" y="-84" font-family="Helvetica,sans-Serif" font-size="10.00">src/ui/inspector/ForcesInspector</text>
<text text-anchor="middle" x="1350.64" y="-73" font-family="Helvetica,sans-Serif" font-size="10.00">Widget.cpp</text>
</a>
</g>
</g>
<!-- Node9&#45;&gt;Node26 -->
<g id="edge34_Node000009_Node000026" class="edge">
<title>Node9&#45;&gt;Node26</title>
<g id="a_edge34_Node000009_Node000026"><a xlink:title=" ">
<path fill="none" stroke="#63b8ff" d="M1600.6,-130.1C1551.25,-120.6 1477.92,-106.49 1423.43,-96.01"/>
<polygon fill="#63b8ff" stroke="#63b8ff" points="1599.96,-133.54 1610.44,-131.99 1601.28,-126.67 1599.96,-133.54"/>
</a>
</g>
</g>
<!-- Node9&#45;&gt;Node27 -->
<g id="edge35_Node000009_Node000027" class="edge">
<title>Node9&#45;&gt;Node27</title>
<g id="a_edge35_Node000009_Node000027"><a xlink:title=" ">
<path fill="none" stroke="#63b8ff" d="M1751.04,-132.4C1835.53,-124.78 1961.55,-112.13 2070.64,-96 2073.36,-95.6 2076.13,-95.17 2078.92,-94.72"/>
<polygon fill="#63b8ff" stroke="#63b8ff" points="1750.59,-128.93 1740.94,-133.31 1751.22,-135.9 1750.59,-128.93"/>
</a>
</g>
</g>
<!-- Node9&#45;&gt;Node28 -->
<g id="edge36_Node000009_Node000028" class="edge">
<title>Node9&#45;&gt;Node28</title>
<g id="a_edge36_Node000009_Node000028"><a xlink:title=" ">
<path fill="none" stroke="#63b8ff" d="M1751.39,-135.8C1864.15,-129.65 2055.93,-117.09 2219.64,-96 2222.37,-95.65 2225.15,-95.27 2227.95,-94.86"/>
<polygon fill="#63b8ff" stroke="#63b8ff" points="1750.86,-132.32 1741.06,-136.36 1751.24,-139.31 1750.86,-132.32"/>
</a>
</g>
</g>
<!-- Node29 -->
<g id="Node000029" class="node">
<title>Node29</title>
<g id="a_Node000029"><a xlink:href="PhysicsInspectorWidget_8cpp.html" target="_top" xlink:title=" ">
<polygon fill="white" stroke="#666666" points="1585.14,-96 1454.14,-96 1454.14,-66 1585.14,-66 1585.14,-96"/>
<text text-anchor="start" x="1462.14" y="-84" font-family="Helvetica,sans-Serif" font-size="10.00">src/ui/inspector/Physics</text>
<text text-anchor="middle" x="1519.64" y="-73" font-family="Helvetica,sans-Serif" font-size="10.00">InspectorWidget.cpp</text>
</a>
</g>
</g>
<!-- Node9&#45;&gt;Node29 -->
<g id="edge37_Node000009_Node000029" class="edge">
<title>Node9&#45;&gt;Node29</title>
<g id="a_edge37_Node000009_Node000029"><a xlink:title=" ">
<path fill="none" stroke="#63b8ff" d="M1625.69,-127.95C1604.07,-118.59 1574.52,-105.78 1552.1,-96.06"/>
<polygon fill="#63b8ff" stroke="#63b8ff" points="1624.44,-131.23 1635.01,-131.99 1627.23,-124.81 1624.44,-131.23"/>
</a>
</g>
</g>
<!-- Node30 -->
<g id="Node000030" class="node">
<title>Node30</title>
<g id="a_Node000030"><a xlink:href="ThermalInspectorWidget_8cpp.html" target="_top" xlink:title=" ">
<polygon fill="white" stroke="#666666" points="555.64,-96 421.64,-96 421.64,-66 555.64,-66 555.64,-96"/>
<text text-anchor="start" x="429.64" y="-84" font-family="Helvetica,sans-Serif" font-size="10.00">src/ui/inspector/Thermal</text>
<text text-anchor="middle" x="488.64" y="-73" font-family="Helvetica,sans-Serif" font-size="10.00">InspectorWidget.cpp</text>
</a>
</g>
</g>
<!-- Node9&#45;&gt;Node30 -->
<g id="edge38_Node000009_Node000030" class="edge">
<title>Node9&#45;&gt;Node30</title>
<g id="a_edge38_Node000009_Node000030"><a xlink:title=" ">
<path fill="none" stroke="#63b8ff" d="M1558.32,-141.05C1368.01,-141.14 930.6,-136.44 565.64,-96 562.4,-95.64 559.09,-95.23 555.75,-94.77"/>
<polygon fill="#63b8ff" stroke="#63b8ff" points="1558.57,-144.55 1568.57,-141.04 1558.57,-137.55 1558.57,-144.55"/>
</a>
</g>
</g>
<!-- Node31 -->
<g id="Node000031" class="node">
<title>Node31</title>
<g id="a_Node000031"><a xlink:href="TransformInspectorWidget_8cpp.html" target="_top" xlink:title=" ">
<polygon fill="white" stroke="#666666" points="717.14,-96 574.14,-96 574.14,-66 717.14,-66 717.14,-96"/>
<text text-anchor="start" x="582.14" y="-84" font-family="Helvetica,sans-Serif" font-size="10.00">src/ui/inspector/Transform</text>
<text text-anchor="middle" x="645.64" y="-73" font-family="Helvetica,sans-Serif" font-size="10.00">InspectorWidget.cpp</text>
</a>
</g>
</g>
<!-- Node9&#45;&gt;Node31 -->
<g id="edge39_Node000009_Node000031" class="edge">
<title>Node9&#45;&gt;Node31</title>
<g id="a_edge39_Node000009_Node000031"><a xlink:title=" ">
<path fill="none" stroke="#63b8ff" d="M1558.21,-139.78C1389.25,-137.66 1028.9,-129.24 726.64,-96 723.66,-95.67 720.63,-95.3 717.57,-94.9"/>
<polygon fill="#63b8ff" stroke="#63b8ff" points="1558.28,-143.28 1568.32,-139.91 1558.37,-136.28 1558.28,-143.28"/>
</a>
</g>
</g>
<!-- Node11&#45;&gt;Node3 -->
<g id="edge13_Node000011_Node000003" class="edge">
<title>Node11&#45;&gt;Node3</title>
<g id="a_edge13_Node000011_Node000003"><a xlink:title=" ">
<path fill="none" stroke="#63b8ff" d="M293.14,-60.97C311.14,-51.03 332.79,-39.09 349.24,-30.01"/>
<polygon fill="#63b8ff" stroke="#63b8ff" points="291.16,-58.06 284.1,-65.95 294.55,-64.19 291.16,-58.06"/>
</a>
</g>
</g>
<!-- Node12 -->
<g id="Node000012" class="node">
<title>Node12</title>
<g id="a_Node000012"><a xlink:href="ScaleHandle_8cpp.html" target="_top" xlink:title=" ">
<polygon fill="white" stroke="#666666" points="287.64,-30 149.64,-30 149.64,0 287.64,0 287.64,-30"/>
<text text-anchor="start" x="157.64" y="-18" font-family="Helvetica,sans-Serif" font-size="10.00">src/graphics/components</text>
<text text-anchor="middle" x="218.64" y="-7" font-family="Helvetica,sans-Serif" font-size="10.00">/ScaleHandle.cpp</text>
</a>
</g>
</g>
<!-- Node11&#45;&gt;Node12 -->
<g id="edge14_Node000011_Node000012" class="edge">
<title>Node11&#45;&gt;Node12</title>
<g id="a_edge14_Node000011_Node000012"><a xlink:title=" ">
<path fill="none" stroke="#63b8ff" d="M244.42,-57.24C238.78,-48.21 232.46,-38.11 227.49,-30.16"/>
<polygon fill="#63b8ff" stroke="#63b8ff" points="241.5,-59.17 249.76,-65.8 247.43,-55.46 241.5,-59.17"/>
</a>
</g>
</g>
<!-- Node17&#45;&gt;Node7 -->
<g id="edge23_Node000017_Node000007" class="edge">
<title>Node17&#45;&gt;Node7</title>
<g id="a_edge23_Node000017_Node000007"><a xlink:title=" ">
<path fill="none" stroke="#63b8ff" d="M2477.64,-55.6C2477.64,-44.8 2477.64,-32.78 2477.64,-24.84"/>
<polygon fill="#63b8ff" stroke="#63b8ff" points="2474.14,-55.8 2477.64,-65.8 2481.14,-55.8 2474.14,-55.8"/>
</a>
</g>
</g>
<!-- Node17&#45;&gt;Node18 -->
<g id="edge24_Node000017_Node000018" class="edge">
<title>Node17&#45;&gt;Node18</title>
<g id="a_edge24_Node000017_Node000018"><a xlink:title=" ">
<path fill="none" stroke="#63b8ff" d="M2541.76,-63.39C2581.75,-53.03 2632.63,-39.84 2670.56,-30.01"/>
<polygon fill="#63b8ff" stroke="#63b8ff" points="2540.65,-60.06 2531.85,-65.95 2542.41,-66.83 2540.65,-60.06"/>
</a>
</g>
</g>
<!-- Node20&#45;&gt;Node7 -->
<g id="edge27_Node000020_Node000007" class="edge">
<title>Node20&#45;&gt;Node7</title>
<g id="a_edge27_Node000020_Node000007"><a xlink:title=" ">
<path fill="none" stroke="#63b8ff" d="M1759.78,-66.55C1761.08,-66.36 1762.37,-66.18 1763.64,-66 1982.93,-35.89 2242.73,-23.47 2380.5,-18.71"/>
<polygon fill="#63b8ff" stroke="#63b8ff" points="1759.03,-63.13 1749.72,-68.19 1760.15,-70.04 1759.03,-63.13"/>
</a>
</g>
</g>
<!-- Node20&#45;&gt;Node19 -->
<g id="edge28_Node000020_Node000019" class="edge">
<title>Node20&#45;&gt;Node19</title>
<g id="a_edge28_Node000020_Node000019"><a xlink:title=" ">
<path fill="none" stroke="#63b8ff" d="M1695.64,-55.54C1695.64,-46.96 1695.64,-37.61 1695.64,-30.16"/>
<polygon fill="#63b8ff" stroke="#63b8ff" points="1692.14,-55.8 1695.64,-65.8 1699.14,-55.8 1692.14,-55.8"/>
</a>
</g>
</g>
<!-- Node23 -->
<g id="Node000023" class="node">
<title>Node23</title>
<g id="a_Node000023"><a xlink:href="HierarchyWidget_8cpp.html" target="_top" xlink:title=" ">
<polygon fill="white" stroke="#666666" points="3022.64,-24.5 2874.64,-24.5 2874.64,-5.5 3022.64,-5.5 3022.64,-24.5"/>
<text text-anchor="middle" x="2948.64" y="-12.5" font-family="Helvetica,sans-Serif" font-size="10.00">src/ui/HierarchyWidget.cpp</text>
</a>
</g>
</g>
<!-- Node22&#45;&gt;Node23 -->
<g id="edge31_Node000022_Node000023" class="edge">
<title>Node22&#45;&gt;Node23</title>
<g id="a_edge31_Node000022_Node000023"><a xlink:title=" ">
<path fill="none" stroke="#63b8ff" d="M2948.64,-61.08C2948.64,-49.13 2948.64,-34.22 2948.64,-24.91"/>
<polygon fill="#63b8ff" stroke="#63b8ff" points="2945.14,-61.37 2948.64,-71.37 2952.14,-61.37 2945.14,-61.37"/>
</a>
</g>
</g>
<!-- Node24 -->
<g id="Node000024" class="node">
<title>Node24</title>
<g id="a_Node000024"><a xlink:href="MainWindow_8cpp.html" target="_top" xlink:title=" ">
<polygon fill="white" stroke="#666666" points="3287.64,-24.5 3159.64,-24.5 3159.64,-5.5 3287.64,-5.5 3287.64,-24.5"/>
<text text-anchor="middle" x="3223.64" y="-12.5" font-family="Helvetica,sans-Serif" font-size="10.00">src/ui/MainWindow.cpp</text>
</a>
</g>
</g>
<!-- Node22&#45;&gt;Node24 -->
<g id="edge32_Node000022_Node000024" class="edge">
<title>Node22&#45;&gt;Node24</title>
<g id="a_edge32_Node000022_Node000024"><a xlink:title=" ">
<path fill="none" stroke="#63b8ff" d="M2995.48,-69.1C3049.64,-56.49 3137.67,-36.01 3187.06,-24.51"/>
<polygon fill="#63b8ff" stroke="#63b8ff" points="2994.39,-65.76 2985.44,-71.44 2995.98,-72.58 2994.39,-65.76"/>
</a>
</g>
</g>
<!-- Node32&#45;&gt;Node7 -->
<g id="edge41_Node000032_Node000007" class="edge">
<title>Node32&#45;&gt;Node7</title>
<g id="a_edge41_Node000032_Node000007"><a xlink:title=" ">
<path fill="none" stroke="#63b8ff" d="M2710.87,-128.64C2728.63,-122.06 2746.03,-111.85 2756.64,-96 2764.06,-84.92 2765.2,-76.23 2756.64,-66 2733.55,-38.4 2645.79,-26.02 2574.78,-20.47"/>
<polygon fill="#63b8ff" stroke="#63b8ff" points="2709.38,-125.45 2701,-131.93 2711.6,-132.09 2709.38,-125.45"/>
</a>
</g>
</g>
<!-- Node32&#45;&gt;Node15 -->
<g id="edge42_Node000032_Node000015" class="edge">
<title>Node32&#45;&gt;Node15</title>
<g id="a_edge42_Node000032_Node000015"><a xlink:title=" ">
<path fill="none" stroke="#63b8ff" d="M2648.64,-121.66C2648.64,-111.24 2648.64,-98.8 2648.64,-90.67"/>
<polygon fill="#63b8ff" stroke="#63b8ff" points="2645.14,-121.87 2648.64,-131.87 2652.14,-121.87 2645.14,-121.87"/>
</a>
</g>
</g>
<!-- Node33&#45;&gt;Node24 -->
<g id="edge49_Node000033_Node000024" class="edge">
<title>Node33&#45;&gt;Node24</title>
<g id="a_edge49_Node000033_Node000024"><a xlink:title=" ">
<path fill="none" stroke="#63b8ff" d="M3299.13,-125.76C3308.96,-118.2 3319.32,-108.03 3324.64,-96 3330.04,-83.81 3331.67,-77.33 3324.64,-66 3311.12,-44.22 3284.99,-31.64 3262.7,-24.55"/>
<polygon fill="#63b8ff" stroke="#63b8ff" points="3296.88,-123.07 3290.77,-131.73 3300.94,-128.77 3296.88,-123.07"/>
</a>
</g>
</g>
<!-- Node34 -->
<g id="Node000034" class="node">
<title>Node34</title>
<g id="a_Node000034"><a xlink:href="main_8cpp.html" target="_top" xlink:title=" ">
<polygon fill="white" stroke="#666666" points="3315.14,-90.5 3236.14,-90.5 3236.14,-71.5 3315.14,-71.5 3315.14,-90.5"/>
<text text-anchor="middle" x="3275.64" y="-78.5" font-family="Helvetica,sans-Serif" font-size="10.00">src/main.cpp</text>
</a>
</g>
</g>
<!-- Node33&#45;&gt;Node34 -->
<g id="edge48_Node000033_Node000034" class="edge">
<title>Node33&#45;&gt;Node34</title>
<g id="a_edge48_Node000033_Node000034"><a xlink:title=" ">
<path fill="none" stroke="#63b8ff" d="M3275.64,-121.66C3275.64,-111.24 3275.64,-98.8 3275.64,-90.67"/>
<polygon fill="#63b8ff" stroke="#63b8ff" points="3272.14,-121.87 3275.64,-131.87 3279.14,-121.87 3272.14,-121.87"/>
</a>
</g>
</g>
<!-- Node35&#45;&gt;Node3 -->
<g id="edge58_Node000035_Node000003" class="edge">
<title>Node35&#45;&gt;Node3</title>
<g id="a_edge58_Node000035_Node000003"><a xlink:title=" ">
<path fill="none" stroke="#63b8ff" d="M1324.89,-320.66C1097.72,-315.4 393.64,-291.5 393.64,-197.5 393.64,-197.5 393.64,-197.5 393.64,-140.5 393.64,-100.05 383.72,-53.05 378.22,-30.08"/>
<polygon fill="#63b8ff" stroke="#63b8ff" points="1324.95,-324.17 1335.02,-320.89 1325.1,-317.17 1324.95,-324.17"/>
</a>
</g>
</g>
<!-- Node35&#45;&gt;Node4 -->
<g id="edge61_Node000035_Node000004" class="edge">
<title>Node35&#45;&gt;Node4</title>
<g id="a_edge61_Node000035_Node000004"><a xlink:title=" ">
<path fill="none" stroke="#63b8ff" d="M1394.64,-303.08C1394.64,-291.13 1394.64,-276.22 1394.64,-266.91"/>
<polygon fill="#63b8ff" stroke="#63b8ff" points="1391.14,-303.37 1394.64,-313.37 1398.14,-303.37 1391.14,-303.37"/>
</a>
</g>
</g>
<!-- Node35&#45;&gt;Node5 -->
<g id="edge60_Node000035_Node000005" class="edge">
<title>Node35&#45;&gt;Node5</title>
<g id="a_edge60_Node000035_Node000005"><a xlink:title=" ">
<path fill="none" stroke="#63b8ff" d="M1464.39,-318.21C1684.02,-306 2380.84,-264.95 2955.64,-206 3142.92,-186.79 3205.89,-232.41 3375.64,-151 3405.3,-136.78 3430.6,-105.66 3441.67,-90.56"/>
<polygon fill="#63b8ff" stroke="#63b8ff" points="1464.09,-314.73 1454.3,-318.77 1464.47,-321.72 1464.09,-314.73"/>
</a>
</g>
</g>
<!-- Node36 -->
<g id="Node000036" class="node">
<title>Node36</title>
<g id="a_Node000036"><a xlink:href="ResourceManager_8cpp.html" target="_top" xlink:title=" ">
<polygon fill="white" stroke="#666666" points="1630.14,-272 1483.14,-272 1483.14,-242 1630.14,-242 1630.14,-272"/>
<text text-anchor="start" x="1491.14" y="-260" font-family="Helvetica,sans-Serif" font-size="10.00">src/graphics/core/Resource</text>
<text text-anchor="middle" x="1556.64" y="-249" font-family="Helvetica,sans-Serif" font-size="10.00">Manager.cpp</text>
</a>
</g>
</g>
<!-- Node35&#45;&gt;Node36 -->
<g id="edge59_Node000035_Node000036" class="edge">
<title>Node35&#45;&gt;Node36</title>
<g id="a_edge59_Node000035_Node000036"><a xlink:title=" ">
<path fill="none" stroke="#63b8ff" d="M1425.91,-309.65C1453.1,-298.9 1492.49,-283.35 1520.91,-272.12"/>
<polygon fill="#63b8ff" stroke="#63b8ff" points="1424.5,-306.44 1416.49,-313.37 1427.08,-312.95 1424.5,-306.44"/>
</a>
</g>
</g>
</g>
</svg>
