<?xml version="1.0" encoding="UTF-8" standalone="no"?>
<!DOCTYPE svg PUBLIC "-//W3C//DTD SVG 1.1//EN"
 "http://www.w3.org/Graphics/SVG/1.1/DTD/svg11.dtd">
<!-- Generated by graphviz version 2.43.0 (0)
 -->
<!-- Title: src/ui/settings/ISettingsTab.h Pages: 1 -->
<svg width="492pt" height="159pt"
 viewBox="0.00 0.00 491.50 159.00" xmlns="http://www.w3.org/2000/svg" xmlns:xlink="http://www.w3.org/1999/xlink">
<g id="graph0" class="graph" transform="scale(1 1) rotate(0) translate(4 155)">
<title>src/ui/settings/ISettingsTab.h</title>
<!-- Node1 -->
<g id="Node000001" class="node">
<title>Node1</title>
<g id="a_Node000001"><a xlink:title=" ">
<polygon fill="#999999" stroke="#666666" points="311,-151 180,-151 180,-121 311,-121 311,-151"/>
<text text-anchor="start" x="188" y="-139" font-family="Helvetica,sans-Serif" font-size="10.00">src/ui/settings/ISettings</text>
<text text-anchor="middle" x="245.5" y="-128" font-family="Helvetica,sans-Serif" font-size="10.00">Tab.h</text>
</a>
</g>
</g>
<!-- Node2 -->
<g id="Node000002" class="node">
<title>Node2</title>
<g id="a_Node000002"><a xlink:href="CameraTab_8h.html" target="_top" xlink:title=" ">
<polygon fill="white" stroke="#666666" points="217.5,-85 65.5,-85 65.5,-66 217.5,-66 217.5,-85"/>
<text text-anchor="middle" x="141.5" y="-73" font-family="Helvetica,sans-Serif" font-size="10.00">src/ui/settings/CameraTab.h</text>
</a>
</g>
</g>
<!-- Node1&#45;&gt;Node2 -->
<g id="edge1_Node000001_Node000002" class="edge">
<title>Node1&#45;&gt;Node2</title>
<g id="a_edge1_Node000001_Node000002"><a xlink:title=" ">
<path fill="none" stroke="#63b8ff" d="M211.84,-116.07C193.34,-105.66 171.28,-93.25 156.86,-85.14"/>
<polygon fill="#63b8ff" stroke="#63b8ff" points="210.16,-119.14 220.59,-120.99 213.59,-113.03 210.16,-119.14"/>
</a>
</g>
</g>
<!-- Node4 -->
<g id="Node000004" class="node">
<title>Node4</title>
<g id="a_Node000004"><a xlink:href="SettingsDialog_8cpp.html" target="_top" xlink:title=" ">
<polygon fill="white" stroke="#666666" points="309.5,-30 181.5,-30 181.5,0 309.5,0 309.5,-30"/>
<text text-anchor="start" x="189.5" y="-18" font-family="Helvetica,sans-Serif" font-size="10.00">src/ui/settings/Settings</text>
<text text-anchor="middle" x="245.5" y="-7" font-family="Helvetica,sans-Serif" font-size="10.00">Dialog.cpp</text>
</a>
</g>
</g>
<!-- Node1&#45;&gt;Node4 -->
<g id="edge7_Node000001_Node000004" class="edge">
<title>Node1&#45;&gt;Node4</title>
<g id="a_edge7_Node000001_Node000004"><a xlink:title=" ">
<path fill="none" stroke="#63b8ff" d="M245.5,-110.69C245.5,-86.42 245.5,-49.95 245.5,-30.1"/>
<polygon fill="#63b8ff" stroke="#63b8ff" points="242,-110.88 245.5,-120.88 249,-110.88 242,-110.88"/>
</a>
</g>
</g>
<!-- Node5 -->
<g id="Node000005" class="node">
<title>Node5</title>
<g id="a_Node000005"><a xlink:href="DebugTab_8h.html" target="_top" xlink:title=" ">
<polygon fill="white" stroke="#666666" points="419,-85 274,-85 274,-66 419,-66 419,-85"/>
<text text-anchor="middle" x="346.5" y="-73" font-family="Helvetica,sans-Serif" font-size="10.00">src/ui/settings/DebugTab.h</text>
</a>
</g>
</g>
<!-- Node1&#45;&gt;Node5 -->
<g id="edge4_Node000001_Node000005" class="edge">
<title>Node1&#45;&gt;Node5</title>
<g id="a_edge4_Node000001_Node000005"><a xlink:title=" ">
<path fill="none" stroke="#63b8ff" d="M278.68,-115.78C296.55,-105.43 317.71,-93.18 331.58,-85.14"/>
<polygon fill="#63b8ff" stroke="#63b8ff" points="276.59,-112.95 269.69,-120.99 280.1,-119 276.59,-112.95"/>
</a>
</g>
</g>
<!-- Node3 -->
<g id="Node000003" class="node">
<title>Node3</title>
<g id="a_Node000003"><a xlink:href="CameraTab_8cpp.html" target="_top" xlink:title=" ">
<polygon fill="white" stroke="#666666" points="163,-24.5 0,-24.5 0,-5.5 163,-5.5 163,-24.5"/>
<text text-anchor="middle" x="81.5" y="-12.5" font-family="Helvetica,sans-Serif" font-size="10.00">src/ui/settings/CameraTab.cpp</text>
</a>
</g>
</g>
<!-- Node2&#45;&gt;Node3 -->
<g id="edge2_Node000002_Node000003" class="edge">
<title>Node2&#45;&gt;Node3</title>
<g id="a_edge2_Node000002_Node000003"><a xlink:title=" ">
<path fill="none" stroke="#63b8ff" d="M125.18,-58.59C113.98,-47.67 99.53,-33.58 90.39,-24.67"/>
<polygon fill="#63b8ff" stroke="#63b8ff" points="123.04,-61.39 132.65,-65.87 127.93,-56.38 123.04,-61.39"/>
</a>
</g>
</g>
<!-- Node2&#45;&gt;Node4 -->
<g id="edge3_Node000002_Node000004" class="edge">
<title>Node2&#45;&gt;Node4</title>
<g id="a_edge3_Node000002_Node000004"><a xlink:title=" ">
<path fill="none" stroke="#63b8ff" d="M165.83,-60.81C182.24,-51.58 203.84,-39.43 220.41,-30.11"/>
<polygon fill="#63b8ff" stroke="#63b8ff" points="163.85,-57.91 156.85,-65.87 167.28,-64.02 163.85,-57.91"/>
</a>
</g>
</g>
<!-- Node5&#45;&gt;Node4 -->
<g id="edge6_Node000005_Node000004" class="edge">
<title>Node5&#45;&gt;Node4</title>
<g id="a_edge6_Node000005_Node000004"><a xlink:title=" ">
<path fill="none" stroke="#63b8ff" d="M322.87,-60.81C306.93,-51.58 285.96,-39.43 269.87,-30.11"/>
<polygon fill="#63b8ff" stroke="#63b8ff" points="321.19,-63.88 331.6,-65.87 324.7,-57.83 321.19,-63.88"/>
</a>
</g>
</g>
<!-- Node6 -->
<g id="Node000006" class="node">
<title>Node6</title>
<g id="a_Node000006"><a xlink:href="DebugTab_8cpp.html" target="_top" xlink:title=" ">
<polygon fill="white" stroke="#666666" points="483.5,-24.5 327.5,-24.5 327.5,-5.5 483.5,-5.5 483.5,-24.5"/>
<text text-anchor="middle" x="405.5" y="-12.5" font-family="Helvetica,sans-Serif" font-size="10.00">src/ui/settings/DebugTab.cpp</text>
</a>
</g>
</g>
<!-- Node5&#45;&gt;Node6 -->
<g id="edge5_Node000005_Node000006" class="edge">
<title>Node5&#45;&gt;Node6</title>
<g id="a_edge5_Node000005_Node000006"><a xlink:title=" ">
<path fill="none" stroke="#63b8ff" d="M362.55,-58.59C373.56,-47.67 387.77,-33.58 396.76,-24.67"/>
<polygon fill="#63b8ff" stroke="#63b8ff" points="359.84,-56.34 355.21,-65.87 364.77,-61.31 359.84,-56.34"/>
</a>
</g>
</g>
</g>
</svg>
