<?xml version="1.0" encoding="UTF-8" standalone="no"?>
<!DOCTYPE svg PUBLIC "-//W3C//DTD SVG 1.1//EN"
 "http://www.w3.org/Graphics/SVG/1.1/DTD/svg11.dtd">
<!-- Generated by graphviz version 2.43.0 (0)
 -->
<!-- Title: src/physics/solver/ISolver.h Pages: 1 -->
<svg width="2628pt" height="533pt"
 viewBox="0.00 0.00 2627.56 533.00" xmlns="http://www.w3.org/2000/svg" xmlns:xlink="http://www.w3.org/1999/xlink">
<g id="graph0" class="graph" transform="scale(1 1) rotate(0) translate(4 529)">
<title>src/physics/solver/ISolver.h</title>
<!-- Node1 -->
<g id="Node000001" class="node">
<title>Node1</title>
<g id="a_Node000001"><a xlink:title="Abstract interface for numerical solvers.">
<polygon fill="#999999" stroke="#666666" points="1277.06,-525 1173.06,-525 1173.06,-495 1277.06,-495 1277.06,-525"/>
<text text-anchor="start" x="1181.06" y="-513" font-family="Helvetica,sans-Serif" font-size="10.00">src/physics/solver</text>
<text text-anchor="middle" x="1225.06" y="-502" font-family="Helvetica,sans-Serif" font-size="10.00">/ISolver.h</text>
</a>
</g>
</g>
<!-- Node2 -->
<g id="Node000002" class="node">
<title>Node2</title>
<g id="a_Node000002"><a xlink:href="InterceptSolver_8h.html" target="_top" xlink:title=" ">
<polygon fill="white" stroke="#666666" points="1209.06,-459 1105.06,-459 1105.06,-429 1209.06,-429 1209.06,-459"/>
<text text-anchor="start" x="1113.06" y="-447" font-family="Helvetica,sans-Serif" font-size="10.00">src/physics/solver</text>
<text text-anchor="middle" x="1157.06" y="-436" font-family="Helvetica,sans-Serif" font-size="10.00">/InterceptSolver.h</text>
</a>
</g>
</g>
<!-- Node1&#45;&gt;Node2 -->
<g id="edge1_Node000001_Node000002" class="edge">
<title>Node1&#45;&gt;Node2</title>
<g id="a_edge1_Node000001_Node000002"><a xlink:title=" ">
<path fill="none" stroke="#63b8ff" d="M1202.67,-487.92C1192.64,-478.49 1181.08,-467.61 1172.11,-459.16"/>
<polygon fill="#63b8ff" stroke="#63b8ff" points="1200.29,-490.49 1209.97,-494.8 1205.09,-485.39 1200.29,-490.49"/>
</a>
</g>
</g>
<!-- Node5 -->
<g id="Node000005" class="node">
<title>Node5</title>
<g id="a_Node000005"><a xlink:href="VectorRootSolver_8h.html" target="_top" xlink:title=" ">
<polygon fill="white" stroke="#666666" points="1415.06,-459 1303.06,-459 1303.06,-429 1415.06,-429 1415.06,-459"/>
<text text-anchor="start" x="1311.06" y="-447" font-family="Helvetica,sans-Serif" font-size="10.00">src/physics/solver</text>
<text text-anchor="middle" x="1359.06" y="-436" font-family="Helvetica,sans-Serif" font-size="10.00">/VectorRootSolver.h</text>
</a>
</g>
</g>
<!-- Node1&#45;&gt;Node5 -->
<g id="edge4_Node000001_Node000005" class="edge">
<title>Node1&#45;&gt;Node5</title>
<g id="a_edge4_Node000001_Node000005"><a xlink:title=" ">
<path fill="none" stroke="#63b8ff" d="M1263.77,-490.51C1284.79,-480.47 1310.36,-468.26 1329.72,-459.01"/>
<polygon fill="#63b8ff" stroke="#63b8ff" points="1261.98,-487.49 1254.47,-494.95 1265,-493.8 1261.98,-487.49"/>
</a>
</g>
</g>
<!-- Node3 -->
<g id="Node000003" class="node">
<title>Node3</title>
<g id="a_Node000003"><a xlink:href="InterceptSolver_8cpp.html" target="_top" xlink:title=" ">
<polygon fill="white" stroke="#666666" points="1213.56,-393 1100.56,-393 1100.56,-363 1213.56,-363 1213.56,-393"/>
<text text-anchor="start" x="1108.56" y="-381" font-family="Helvetica,sans-Serif" font-size="10.00">src/physics/solver</text>
<text text-anchor="middle" x="1157.06" y="-370" font-family="Helvetica,sans-Serif" font-size="10.00">/InterceptSolver.cpp</text>
</a>
</g>
</g>
<!-- Node2&#45;&gt;Node3 -->
<g id="edge2_Node000002_Node000003" class="edge">
<title>Node2&#45;&gt;Node3</title>
<g id="a_edge2_Node000002_Node000003"><a xlink:title=" ">
<path fill="none" stroke="#63b8ff" d="M1157.06,-418.54C1157.06,-409.96 1157.06,-400.61 1157.06,-393.16"/>
<polygon fill="#63b8ff" stroke="#63b8ff" points="1153.56,-418.8 1157.06,-428.8 1160.56,-418.8 1153.56,-418.8"/>
</a>
</g>
</g>
<!-- Node4 -->
<g id="Node000004" class="node">
<title>Node4</title>
<g id="a_Node000004"><a xlink:href="ProblemRouter_8cpp.html" target="_top" xlink:title=" ">
<polygon fill="white" stroke="#666666" points="1171.06,-272 1059.06,-272 1059.06,-242 1171.06,-242 1171.06,-272"/>
<text text-anchor="start" x="1067.06" y="-260" font-family="Helvetica,sans-Serif" font-size="10.00">src/physics/solver</text>
<text text-anchor="middle" x="1115.06" y="-249" font-family="Helvetica,sans-Serif" font-size="10.00">/ProblemRouter.cpp</text>
</a>
</g>
</g>
<!-- Node2&#45;&gt;Node4 -->
<g id="edge3_Node000002_Node000004" class="edge">
<title>Node2&#45;&gt;Node4</title>
<g id="a_edge3_Node000002_Node000004"><a xlink:title=" ">
<path fill="none" stroke="#63b8ff" d="M1119.29,-423.41C1108.11,-415.57 1097.23,-405.41 1091.06,-393 1070.93,-352.5 1093.9,-297.75 1107.08,-272.22"/>
<polygon fill="#63b8ff" stroke="#63b8ff" points="1117.52,-426.43 1127.82,-428.95 1121.34,-420.56 1117.52,-426.43"/>
</a>
</g>
</g>
<!-- Node6 -->
<g id="Node000006" class="node">
<title>Node6</title>
<g id="a_Node000006"><a xlink:href="PhysicsSystem_8h.html" target="_top" xlink:title=" ">
<polygon fill="white" stroke="#666666" points="1583.06,-327 1427.06,-327 1427.06,-308 1583.06,-308 1583.06,-327"/>
<text text-anchor="middle" x="1505.06" y="-315" font-family="Helvetica,sans-Serif" font-size="10.00">src/physics/PhysicsSystem.h</text>
</a>
</g>
</g>
<!-- Node5&#45;&gt;Node6 -->
<g id="edge5_Node000005_Node000006" class="edge">
<title>Node5&#45;&gt;Node6</title>
<g id="a_edge5_Node000005_Node000006"><a xlink:title=" ">
<path fill="none" stroke="#63b8ff" d="M1424.91,-429.96C1447.1,-422.53 1470.22,-410.96 1486.06,-393 1502.84,-373.98 1505.18,-342.15 1505.27,-327.01"/>
<polygon fill="#63b8ff" stroke="#63b8ff" points="1423.66,-426.68 1415.15,-432.99 1425.74,-433.37 1423.66,-426.68"/>
</a>
</g>
</g>
<!-- Node34 -->
<g id="Node000034" class="node">
<title>Node34</title>
<g id="a_Node000034"><a xlink:href="ProblemRouter_8h.html" target="_top" xlink:title=" ">
<polygon fill="white" stroke="#666666" points="1477.06,-393 1373.06,-393 1373.06,-363 1477.06,-363 1477.06,-393"/>
<text text-anchor="start" x="1381.06" y="-381" font-family="Helvetica,sans-Serif" font-size="10.00">src/physics/solver</text>
<text text-anchor="middle" x="1425.06" y="-370" font-family="Helvetica,sans-Serif" font-size="10.00">/ProblemRouter.h</text>
</a>
</g>
</g>
<!-- Node5&#45;&gt;Node34 -->
<g id="edge51_Node000005_Node000034" class="edge">
<title>Node5&#45;&gt;Node34</title>
<g id="a_edge51_Node000005_Node000034"><a xlink:title=" ">
<path fill="none" stroke="#63b8ff" d="M1381.08,-421.65C1390.75,-412.27 1401.83,-401.53 1410.45,-393.16"/>
<polygon fill="#63b8ff" stroke="#63b8ff" points="1378.45,-419.32 1373.71,-428.8 1383.32,-424.35 1378.45,-419.32"/>
</a>
</g>
</g>
<!-- Node36 -->
<g id="Node000036" class="node">
<title>Node36</title>
<g id="a_Node000036"><a xlink:href="VectorRootSolver_8cpp.html" target="_top" xlink:title=" ">
<polygon fill="white" stroke="#666666" points="1354.56,-393 1231.56,-393 1231.56,-363 1354.56,-363 1354.56,-393"/>
<text text-anchor="start" x="1239.56" y="-381" font-family="Helvetica,sans-Serif" font-size="10.00">src/physics/solver</text>
<text text-anchor="middle" x="1293.06" y="-370" font-family="Helvetica,sans-Serif" font-size="10.00">/VectorRootSolver.cpp</text>
</a>
</g>
</g>
<!-- Node5&#45;&gt;Node36 -->
<g id="edge55_Node000005_Node000036" class="edge">
<title>Node5&#45;&gt;Node36</title>
<g id="a_edge55_Node000005_Node000036"><a xlink:title=" ">
<path fill="none" stroke="#63b8ff" d="M1337.04,-421.65C1327.37,-412.27 1316.29,-401.53 1307.67,-393.16"/>
<polygon fill="#63b8ff" stroke="#63b8ff" points="1334.8,-424.35 1344.41,-428.8 1339.67,-419.32 1334.8,-424.35"/>
</a>
</g>
</g>
<!-- Node6&#45;&gt;Node4 -->
<g id="edge27_Node000006_Node000004" class="edge">
<title>Node6&#45;&gt;Node4</title>
<g id="a_edge27_Node000006_Node000004"><a xlink:title=" ">
<path fill="none" stroke="#63b8ff" d="M1424.81,-306.68C1359.97,-298.42 1266.43,-285.78 1185.06,-272 1180.54,-271.23 1175.86,-270.4 1171.17,-269.53"/>
<polygon fill="#63b8ff" stroke="#63b8ff" points="1424.6,-310.18 1434.96,-307.97 1425.48,-303.24 1424.6,-310.18"/>
</a>
</g>
</g>
<!-- Node7 -->
<g id="Node000007" class="node">
<title>Node7</title>
<g id="a_Node000007"><a xlink:href="SceneObject_8h.html" target="_top" xlink:title=" ">
<polygon fill="white" stroke="#666666" points="1437.06,-151 1265.06,-151 1265.06,-132 1437.06,-132 1437.06,-151"/>
<text text-anchor="middle" x="1351.06" y="-139" font-family="Helvetica,sans-Serif" font-size="10.00">src/graphics/core/SceneObject.h</text>
</a>
</g>
</g>
<!-- Node6&#45;&gt;Node7 -->
<g id="edge6_Node000006_Node000007" class="edge">
<title>Node6&#45;&gt;Node7</title>
<g id="a_edge6_Node000006_Node000007"><a xlink:title=" ">
<path fill="none" stroke="#63b8ff" d="M1465.84,-304.29C1447.99,-297.17 1427.64,-286.64 1413.06,-272 1376.82,-235.62 1358.76,-173.93 1353.09,-151.23"/>
<polygon fill="#63b8ff" stroke="#63b8ff" points="1464.86,-307.66 1475.45,-307.91 1467.33,-301.11 1464.86,-307.66"/>
</a>
</g>
</g>
<!-- Node23 -->
<g id="Node000023" class="node">
<title>Node23</title>
<g id="a_Node000023"><a xlink:href="InspectorWidget_8cpp.html" target="_top" xlink:title=" ">
<polygon fill="white" stroke="#666666" points="158.56,-96 19.56,-96 19.56,-66 158.56,-66 158.56,-96"/>
<text text-anchor="start" x="27.56" y="-84" font-family="Helvetica,sans-Serif" font-size="10.00">src/ui/inspector/Inspector</text>
<text text-anchor="middle" x="89.06" y="-73" font-family="Helvetica,sans-Serif" font-size="10.00">Widget.cpp</text>
</a>
</g>
</g>
<!-- Node6&#45;&gt;Node23 -->
<g id="edge49_Node000006_Node000023" class="edge">
<title>Node6&#45;&gt;Node23</title>
<g id="a_edge49_Node000006_Node000023"><a xlink:title=" ">
<path fill="none" stroke="#63b8ff" d="M1461.72,-305.41C1399.64,-289.78 1281.65,-261.06 1180.06,-242 1167.35,-239.61 397.62,-127.09 158.88,-92.2"/>
<polygon fill="#63b8ff" stroke="#63b8ff" points="1461.01,-308.83 1471.56,-307.89 1462.72,-302.05 1461.01,-308.83"/>
</a>
</g>
</g>
<!-- Node26 -->
<g id="Node000026" class="node">
<title>Node26</title>
<g id="a_Node000026"><a xlink:href="PhysicsSystem_8cpp.html" target="_top" xlink:title=" ">
<polygon fill="white" stroke="#666666" points="1588.56,-266.5 1421.56,-266.5 1421.56,-247.5 1588.56,-247.5 1588.56,-266.5"/>
<text text-anchor="middle" x="1505.06" y="-254.5" font-family="Helvetica,sans-Serif" font-size="10.00">src/physics/PhysicsSystem.cpp</text>
</a>
</g>
</g>
<!-- Node6&#45;&gt;Node26 -->
<g id="edge26_Node000006_Node000026" class="edge">
<title>Node6&#45;&gt;Node26</title>
<g id="a_edge26_Node000006_Node000026"><a xlink:title=" ">
<path fill="none" stroke="#63b8ff" d="M1505.06,-297.66C1505.06,-287.24 1505.06,-274.8 1505.06,-266.67"/>
<polygon fill="#63b8ff" stroke="#63b8ff" points="1501.56,-297.87 1505.06,-307.87 1508.56,-297.87 1501.56,-297.87"/>
</a>
</g>
</g>
<!-- Node27 -->
<g id="Node000027" class="node">
<title>Node27</title>
<g id="a_Node000027"><a xlink:href="OpenGLWindow_8cpp.html" target="_top" xlink:title=" ">
<polygon fill="white" stroke="#666666" points="2140.06,-151 1998.06,-151 1998.06,-132 2140.06,-132 2140.06,-151"/>
<text text-anchor="middle" x="2069.06" y="-139" font-family="Helvetica,sans-Serif" font-size="10.00">src/ui/OpenGLWindow.cpp</text>
</a>
</g>
</g>
<!-- Node6&#45;&gt;Node27 -->
<g id="edge28_Node000006_Node000027" class="edge">
<title>Node6&#45;&gt;Node27</title>
<g id="a_edge28_Node000006_Node000027"><a xlink:title=" ">
<path fill="none" stroke="#63b8ff" d="M1568.88,-306.26C1657.43,-290.84 1821.61,-257.82 1954.06,-206 1993.14,-190.71 2035.45,-164.6 2056.16,-151.12"/>
<polygon fill="#63b8ff" stroke="#63b8ff" points="1568.25,-302.82 1558.99,-307.96 1569.44,-309.72 1568.25,-302.82"/>
</a>
</g>
</g>
<!-- Node28 -->
<g id="Node000028" class="node">
<title>Node28</title>
<g id="a_Node000028"><a xlink:href="OpenGLWindow_8h.html" target="_top" xlink:title=" ">
<polygon fill="white" stroke="#666666" points="2199.56,-266.5 2068.56,-266.5 2068.56,-247.5 2199.56,-247.5 2199.56,-266.5"/>
<text text-anchor="middle" x="2134.06" y="-254.5" font-family="Helvetica,sans-Serif" font-size="10.00">src/ui/OpenGLWindow.h</text>
</a>
</g>
</g>
<!-- Node6&#45;&gt;Node28 -->
<g id="edge29_Node000006_Node000028" class="edge">
<title>Node6&#45;&gt;Node28</title>
<g id="a_edge29_Node000006_Node000028"><a xlink:title=" ">
<path fill="none" stroke="#63b8ff" d="M1593.16,-310.75C1698.81,-303.49 1881.17,-289.75 2037.06,-272 2050.67,-270.45 2065.31,-268.49 2078.99,-266.53"/>
<polygon fill="#63b8ff" stroke="#63b8ff" points="1592.92,-307.26 1583.18,-311.44 1593.4,-314.25 1592.92,-307.26"/>
</a>
</g>
</g>
<!-- Node33 -->
<g id="Node000033" class="node">
<title>Node33</title>
<g id="a_Node000033"><a xlink:href="PhysicsTests_8cpp.html" target="_top" xlink:title=" ">
<polygon fill="white" stroke="#666666" points="2342.56,-266.5 2217.56,-266.5 2217.56,-247.5 2342.56,-247.5 2342.56,-266.5"/>
<text text-anchor="middle" x="2280.06" y="-254.5" font-family="Helvetica,sans-Serif" font-size="10.00">tests/PhysicsTests.cpp</text>
</a>
</g>
</g>
<!-- Node6&#45;&gt;Node33 -->
<g id="edge50_Node000006_Node000033" class="edge">
<title>Node6&#45;&gt;Node33</title>
<g id="a_edge50_Node000006_Node000033"><a xlink:title=" ">
<path fill="none" stroke="#63b8ff" d="M1593.44,-314.64C1727.18,-310.99 1988.75,-300.56 2209.06,-272 2219.65,-270.63 2231.04,-268.62 2241.52,-266.56"/>
<polygon fill="#63b8ff" stroke="#63b8ff" points="1593.16,-311.15 1583.25,-314.91 1593.34,-318.14 1593.16,-311.15"/>
</a>
</g>
</g>
<!-- Node8 -->
<g id="Node000008" class="node">
<title>Node8</title>
<g id="a_Node000008"><a xlink:href="Gizmo_8cpp.html" target="_top" xlink:title=" ">
<polygon fill="white" stroke="#666666" points="256.06,-30 118.06,-30 118.06,0 256.06,0 256.06,-30"/>
<text text-anchor="start" x="126.06" y="-18" font-family="Helvetica,sans-Serif" font-size="10.00">src/graphics/components</text>
<text text-anchor="middle" x="187.06" y="-7" font-family="Helvetica,sans-Serif" font-size="10.00">/Gizmo.cpp</text>
</a>
</g>
</g>
<!-- Node7&#45;&gt;Node8 -->
<g id="edge7_Node000007_Node000008" class="edge">
<title>Node7&#45;&gt;Node8</title>
<g id="a_edge7_Node000007_Node000008"><a xlink:title=" ">
<path fill="none" stroke="#63b8ff" d="M1254.9,-132.24C1253.61,-132.15 1252.33,-132.08 1251.06,-132 1193.07,-128.54 251.01,-132.8 206.06,-96 186.73,-80.17 184.95,-48.6 185.76,-30.21"/>
<polygon fill="#63b8ff" stroke="#63b8ff" points="1254.69,-135.73 1264.9,-132.9 1255.15,-128.74 1254.69,-135.73"/>
</a>
</g>
</g>
<!-- Node9 -->
<g id="Node000009" class="node">
<title>Node9</title>
<g id="a_Node000009"><a xlink:href="RotateHandle_8cpp.html" target="_top" xlink:title=" ">
<polygon fill="white" stroke="#666666" points="353.06,-96 215.06,-96 215.06,-66 353.06,-66 353.06,-96"/>
<text text-anchor="start" x="223.06" y="-84" font-family="Helvetica,sans-Serif" font-size="10.00">src/graphics/components</text>
<text text-anchor="middle" x="284.06" y="-73" font-family="Helvetica,sans-Serif" font-size="10.00">/RotateHandle.cpp</text>
</a>
</g>
</g>
<!-- Node7&#45;&gt;Node9 -->
<g id="edge8_Node000007_Node000009" class="edge">
<title>Node7&#45;&gt;Node9</title>
<g id="a_edge8_Node000007_Node000009"><a xlink:title=" ">
<path fill="none" stroke="#63b8ff" d="M1254.9,-132.25C1253.61,-132.16 1252.33,-132.08 1251.06,-132 856.4,-107.25 755.15,-139.03 362.06,-96 359.19,-95.69 356.26,-95.33 353.31,-94.94"/>
<polygon fill="#63b8ff" stroke="#63b8ff" points="1254.68,-135.74 1264.89,-132.93 1255.16,-128.76 1254.68,-135.74"/>
</a>
</g>
</g>
<!-- Node10 -->
<g id="Node000010" class="node">
<title>Node10</title>
<g id="a_Node000010"><a xlink:href="ScaleHandle_8h.html" target="_top" xlink:title=" ">
<polygon fill="white" stroke="#666666" points="845.06,-96 707.06,-96 707.06,-66 845.06,-66 845.06,-96"/>
<text text-anchor="start" x="715.06" y="-84" font-family="Helvetica,sans-Serif" font-size="10.00">src/graphics/components</text>
<text text-anchor="middle" x="776.06" y="-73" font-family="Helvetica,sans-Serif" font-size="10.00">/ScaleHandle.h</text>
</a>
</g>
</g>
<!-- Node7&#45;&gt;Node10 -->
<g id="edge9_Node000007_Node000010" class="edge">
<title>Node7&#45;&gt;Node10</title>
<g id="a_edge9_Node000007_Node000010"><a xlink:title=" ">
<path fill="none" stroke="#63b8ff" d="M1254.7,-132.09C1115.76,-119.94 873.56,-98.62 854.06,-96 851.2,-95.62 848.28,-95.2 845.33,-94.76"/>
<polygon fill="#63b8ff" stroke="#63b8ff" points="1254.67,-135.6 1264.93,-132.99 1255.28,-128.63 1254.67,-135.6"/>
</a>
</g>
</g>
<!-- Node12 -->
<g id="Node000012" class="node">
<title>Node12</title>
<g id="a_Node000012"><a xlink:href="TranslateHandle_8cpp.html" target="_top" xlink:title=" ">
<polygon fill="white" stroke="#666666" points="509.06,-96 371.06,-96 371.06,-66 509.06,-66 509.06,-96"/>
<text text-anchor="start" x="379.06" y="-84" font-family="Helvetica,sans-Serif" font-size="10.00">src/graphics/components</text>
<text text-anchor="middle" x="440.06" y="-73" font-family="Helvetica,sans-Serif" font-size="10.00">/TranslateHandle.cpp</text>
</a>
</g>
</g>
<!-- Node7&#45;&gt;Node12 -->
<g id="edge12_Node000007_Node000012" class="edge">
<title>Node7&#45;&gt;Node12</title>
<g id="a_edge12_Node000007_Node000012"><a xlink:title=" ">
<path fill="none" stroke="#63b8ff" d="M1254.9,-132.26C1253.61,-132.17 1252.33,-132.09 1251.06,-132 925.62,-110.18 842.14,-132.89 518.06,-96 515.19,-95.67 512.27,-95.31 509.32,-94.91"/>
<polygon fill="#63b8ff" stroke="#63b8ff" points="1254.67,-135.75 1264.89,-132.98 1255.17,-128.77 1254.67,-135.75"/>
</a>
</g>
</g>
<!-- Node13 -->
<g id="Node000013" class="node">
<title>Node13</title>
<g id="a_Node000013"><a xlink:href="Camera_8cpp.html" target="_top" xlink:title=" ">
<polygon fill="white" stroke="#666666" points="688.56,-90.5 527.56,-90.5 527.56,-71.5 688.56,-71.5 688.56,-90.5"/>
<text text-anchor="middle" x="608.06" y="-78.5" font-family="Helvetica,sans-Serif" font-size="10.00">src/graphics/core/Camera.cpp</text>
</a>
</g>
</g>
<!-- Node7&#45;&gt;Node13 -->
<g id="edge13_Node000007_Node000013" class="edge">
<title>Node7&#45;&gt;Node13</title>
<g id="a_edge13_Node000007_Node000013"><a xlink:title=" ">
<path fill="none" stroke="#63b8ff" d="M1254.9,-132.29C1253.61,-132.19 1252.33,-132.1 1251.06,-132 1005.45,-113.57 942.88,-122.96 698.06,-96 685.02,-94.56 670.97,-92.59 657.94,-90.57"/>
<polygon fill="#63b8ff" stroke="#63b8ff" points="1254.64,-135.78 1264.89,-133.07 1255.19,-128.8 1254.64,-135.78"/>
</a>
</g>
</g>
<!-- Node14 -->
<g id="Node000014" class="node">
<title>Node14</title>
<g id="a_Node000014"><a xlink:href="Scene_8cpp.html" target="_top" xlink:title=" ">
<polygon fill="white" stroke="#666666" points="2522.06,-90.5 2370.06,-90.5 2370.06,-71.5 2522.06,-71.5 2522.06,-90.5"/>
<text text-anchor="middle" x="2446.06" y="-78.5" font-family="Helvetica,sans-Serif" font-size="10.00">src/graphics/core/Scene.cpp</text>
</a>
</g>
</g>
<!-- Node7&#45;&gt;Node14 -->
<g id="edge14_Node000007_Node000014" class="edge">
<title>Node7&#45;&gt;Node14</title>
<g id="a_edge14_Node000007_Node000014"><a xlink:title=" ">
<path fill="none" stroke="#63b8ff" d="M1447.22,-137.16C1616.63,-131 1979.31,-116.57 2285.06,-96 2312.77,-94.14 2343.13,-91.62 2369.94,-89.23"/>
<polygon fill="#63b8ff" stroke="#63b8ff" points="1446.95,-133.67 1437.08,-137.53 1447.2,-140.66 1446.95,-133.67"/>
</a>
</g>
</g>
<!-- Node15 -->
<g id="Node000015" class="node">
<title>Node15</title>
<g id="a_Node000015"><a xlink:href="SceneManager_8cpp.html" target="_top" xlink:title=" ">
<polygon fill="white" stroke="#666666" points="2276.06,-90.5 2082.06,-90.5 2082.06,-71.5 2276.06,-71.5 2276.06,-90.5"/>
<text text-anchor="middle" x="2179.06" y="-78.5" font-family="Helvetica,sans-Serif" font-size="10.00">src/graphics/core/SceneManager.cpp</text>
</a>
</g>
</g>
<!-- Node7&#45;&gt;Node15 -->
<g id="edge15_Node000007_Node000015" class="edge">
<title>Node7&#45;&gt;Node15</title>
<g id="a_edge15_Node000007_Node000015"><a xlink:title=" ">
<path fill="none" stroke="#63b8ff" d="M1447.23,-136.71C1585.77,-130.76 1849.44,-117.63 2073.06,-96 2088.4,-94.52 2104.93,-92.52 2120.27,-90.51"/>
<polygon fill="#63b8ff" stroke="#63b8ff" points="1446.91,-133.22 1437.07,-137.14 1447.21,-140.21 1446.91,-133.22"/>
</a>
</g>
</g>
<!-- Node16 -->
<g id="Node000016" class="node">
<title>Node16</title>
<g id="a_Node000016"><a xlink:href="SceneObject_8cpp.html" target="_top" xlink:title=" ">
<polygon fill="white" stroke="#666666" points="1699.56,-90.5 1516.56,-90.5 1516.56,-71.5 1699.56,-71.5 1699.56,-90.5"/>
<text text-anchor="middle" x="1608.06" y="-78.5" font-family="Helvetica,sans-Serif" font-size="10.00">src/graphics/core/SceneObject.cpp</text>
</a>
</g>
</g>
<!-- Node7&#45;&gt;Node16 -->
<g id="edge16_Node000007_Node000016" class="edge">
<title>Node7&#45;&gt;Node16</title>
<g id="a_edge16_Node000007_Node000016"><a xlink:title=" ">
<path fill="none" stroke="#63b8ff" d="M1398.28,-129.75C1447.93,-118.45 1525.04,-100.9 1570.65,-90.52"/>
<polygon fill="#63b8ff" stroke="#63b8ff" points="1397.4,-126.36 1388.43,-131.99 1398.96,-133.19 1397.4,-126.36"/>
</a>
</g>
</g>
<!-- Node17 -->
<g id="Node000017" class="node">
<title>Node17</title>
<g id="a_Node000017"><a xlink:href="SceneSerializer_8cpp.html" target="_top" xlink:title=" ">
<polygon fill="white" stroke="#666666" points="1914.56,-90.5 1717.56,-90.5 1717.56,-71.5 1914.56,-71.5 1914.56,-90.5"/>
<text text-anchor="middle" x="1816.06" y="-78.5" font-family="Helvetica,sans-Serif" font-size="10.00">src/graphics/core/SceneSerializer.cpp</text>
</a>
</g>
</g>
<!-- Node7&#45;&gt;Node17 -->
<g id="edge17_Node000007_Node000017" class="edge">
<title>Node7&#45;&gt;Node17</title>
<g id="a_edge17_Node000007_Node000017"><a xlink:title=" ">
<path fill="none" stroke="#63b8ff" d="M1430.7,-130.75C1503.26,-121.83 1613.38,-108.21 1709.06,-96 1722.81,-94.25 1737.56,-92.34 1751.57,-90.51"/>
<polygon fill="#63b8ff" stroke="#63b8ff" points="1430.21,-127.28 1420.71,-131.98 1431.06,-134.23 1430.21,-127.28"/>
</a>
</g>
</g>
<!-- Node18 -->
<g id="Node000018" class="node">
<title>Node18</title>
<g id="a_Node000018"><a xlink:href="HierarchyWidget_8h.html" target="_top" xlink:title=" ">
<polygon fill="white" stroke="#666666" points="1498.56,-90.5 1361.56,-90.5 1361.56,-71.5 1498.56,-71.5 1498.56,-90.5"/>
<text text-anchor="middle" x="1430.06" y="-78.5" font-family="Helvetica,sans-Serif" font-size="10.00">src/ui/HierarchyWidget.h</text>
</a>
</g>
</g>
<!-- Node7&#45;&gt;Node18 -->
<g id="edge18_Node000007_Node000018" class="edge">
<title>Node7&#45;&gt;Node18</title>
<g id="a_edge18_Node000007_Node000018"><a xlink:title=" ">
<path fill="none" stroke="#63b8ff" d="M1370.85,-125.85C1385.81,-114.77 1405.85,-99.93 1418.36,-90.67"/>
<polygon fill="#63b8ff" stroke="#63b8ff" points="1368.67,-123.1 1362.72,-131.87 1372.84,-128.73 1368.67,-123.1"/>
</a>
</g>
</g>
<!-- Node21 -->
<g id="Node000021" class="node">
<title>Node21</title>
<g id="a_Node000021"><a xlink:href="ForcesInspectorWidget_8cpp.html" target="_top" xlink:title=" ">
<polygon fill="white" stroke="#666666" points="1033.06,-96 863.06,-96 863.06,-66 1033.06,-66 1033.06,-96"/>
<text text-anchor="start" x="871.06" y="-84" font-family="Helvetica,sans-Serif" font-size="10.00">src/ui/inspector/ForcesInspector</text>
<text text-anchor="middle" x="948.06" y="-73" font-family="Helvetica,sans-Serif" font-size="10.00">Widget.cpp</text>
</a>
</g>
</g>
<!-- Node7&#45;&gt;Node21 -->
<g id="edge21_Node000007_Node000021" class="edge">
<title>Node7&#45;&gt;Node21</title>
<g id="a_edge21_Node000007_Node000021"><a xlink:title=" ">
<path fill="none" stroke="#63b8ff" d="M1281.08,-130.52C1218.44,-121.56 1124.1,-108.02 1042.06,-96 1039.12,-95.57 1036.13,-95.13 1033.11,-94.69"/>
<polygon fill="#63b8ff" stroke="#63b8ff" points="1280.84,-134.02 1291.23,-131.97 1281.83,-127.09 1280.84,-134.02"/>
</a>
</g>
</g>
<!-- Node22 -->
<g id="Node000022" class="node">
<title>Node22</title>
<g id="a_Node000022"><a xlink:href="GlobalsInspectorWidget_8cpp.html" target="_top" xlink:title=" ">
<polygon fill="white" stroke="#666666" points="2063.56,-96 1932.56,-96 1932.56,-66 2063.56,-66 2063.56,-96"/>
<text text-anchor="start" x="1940.56" y="-84" font-family="Helvetica,sans-Serif" font-size="10.00">src/ui/inspector/Globals</text>
<text text-anchor="middle" x="1998.06" y="-73" font-family="Helvetica,sans-Serif" font-size="10.00">InspectorWidget.cpp</text>
</a>
</g>
</g>
<!-- Node7&#45;&gt;Node22 -->
<g id="edge22_Node000007_Node000022" class="edge">
<title>Node7&#45;&gt;Node22</title>
<g id="a_edge22_Node000007_Node000022"><a xlink:title=" ">
<path fill="none" stroke="#63b8ff" d="M1447.39,-136.24C1561.52,-130.46 1757.24,-118.19 1924.06,-96 1926.78,-95.64 1929.56,-95.24 1932.35,-94.82"/>
<polygon fill="#63b8ff" stroke="#63b8ff" points="1447.09,-132.75 1437.28,-136.75 1447.44,-139.75 1447.09,-132.75"/>
</a>
</g>
</g>
<!-- Node7&#45;&gt;Node23 -->
<g id="edge23_Node000007_Node000023" class="edge">
<title>Node7&#45;&gt;Node23</title>
<g id="a_edge23_Node000007_Node000023"><a xlink:title=" ">
<path fill="none" stroke="#63b8ff" d="M1254.9,-132.23C1253.61,-132.15 1252.33,-132.08 1251.06,-132 772.52,-103.69 650.08,-143.51 173.06,-96 168.35,-95.53 163.51,-94.96 158.64,-94.32"/>
<polygon fill="#63b8ff" stroke="#63b8ff" points="1254.69,-135.73 1264.9,-132.89 1255.15,-128.74 1254.69,-135.73"/>
</a>
</g>
</g>
<!-- Node24 -->
<g id="Node000024" class="node">
<title>Node24</title>
<g id="a_Node000024"><a xlink:href="PhysicsInspectorWidget_8cpp.html" target="_top" xlink:title=" ">
<polygon fill="white" stroke="#666666" points="1182.56,-96 1051.56,-96 1051.56,-66 1182.56,-66 1182.56,-96"/>
<text text-anchor="start" x="1059.56" y="-84" font-family="Helvetica,sans-Serif" font-size="10.00">src/ui/inspector/Physics</text>
<text text-anchor="middle" x="1117.06" y="-73" font-family="Helvetica,sans-Serif" font-size="10.00">InspectorWidget.cpp</text>
</a>
</g>
</g>
<!-- Node7&#45;&gt;Node24 -->
<g id="edge24_Node000007_Node000024" class="edge">
<title>Node7&#45;&gt;Node24</title>
<g id="a_edge24_Node000007_Node000024"><a xlink:title=" ">
<path fill="none" stroke="#63b8ff" d="M1307.32,-129.56C1269.45,-120.1 1214.45,-106.35 1173.32,-96.06"/>
<polygon fill="#63b8ff" stroke="#63b8ff" points="1306.49,-132.96 1317.04,-131.99 1308.18,-126.17 1306.49,-132.96"/>
</a>
</g>
</g>
<!-- Node25 -->
<g id="Node000025" class="node">
<title>Node25</title>
<g id="a_Node000025"><a xlink:href="TransformInspectorWidget_8cpp.html" target="_top" xlink:title=" ">
<polygon fill="white" stroke="#666666" points="1343.56,-96 1200.56,-96 1200.56,-66 1343.56,-66 1343.56,-96"/>
<text text-anchor="start" x="1208.56" y="-84" font-family="Helvetica,sans-Serif" font-size="10.00">src/ui/inspector/Transform</text>
<text text-anchor="middle" x="1272.06" y="-73" font-family="Helvetica,sans-Serif" font-size="10.00">InspectorWidget.cpp</text>
</a>
</g>
</g>
<!-- Node7&#45;&gt;Node25 -->
<g id="edge25_Node000007_Node000025" class="edge">
<title>Node7&#45;&gt;Node25</title>
<g id="a_edge25_Node000007_Node000025"><a xlink:title=" ">
<path fill="none" stroke="#63b8ff" d="M1331.16,-125.77C1318.89,-116.68 1303.24,-105.09 1291.12,-96.11"/>
<polygon fill="#63b8ff" stroke="#63b8ff" points="1329.28,-128.73 1339.4,-131.87 1333.45,-123.1 1329.28,-128.73"/>
</a>
</g>
</g>
<!-- Node10&#45;&gt;Node8 -->
<g id="edge10_Node000010_Node000008" class="edge">
<title>Node10&#45;&gt;Node8</title>
<g id="a_edge10_Node000010_Node000008"><a xlink:title=" ">
<path fill="none" stroke="#63b8ff" d="M696.46,-66C532.38,-43.77 352.36,-28.49 256.14,-21.06"/>
<polygon fill="#63b8ff" stroke="#63b8ff" points="696.37,-69.52 706.75,-67.4 697.31,-62.58 696.37,-69.52"/>
</a>
</g>
</g>
<!-- Node11 -->
<g id="Node000011" class="node">
<title>Node11</title>
<g id="a_Node000011"><a xlink:href="ScaleHandle_8cpp.html" target="_top" xlink:title=" ">
<polygon fill="white" stroke="#666666" points="845.06,-30 707.06,-30 707.06,0 845.06,0 845.06,-30"/>
<text text-anchor="start" x="715.06" y="-18" font-family="Helvetica,sans-Serif" font-size="10.00">src/graphics/components</text>
<text text-anchor="middle" x="776.06" y="-7" font-family="Helvetica,sans-Serif" font-size="10.00">/ScaleHandle.cpp</text>
</a>
</g>
</g>
<!-- Node10&#45;&gt;Node11 -->
<g id="edge11_Node000010_Node000011" class="edge">
<title>Node10&#45;&gt;Node11</title>
<g id="a_edge11_Node000010_Node000011"><a xlink:title=" ">
<path fill="none" stroke="#63b8ff" d="M776.06,-55.54C776.06,-46.96 776.06,-37.61 776.06,-30.16"/>
<polygon fill="#63b8ff" stroke="#63b8ff" points="772.56,-55.8 776.06,-65.8 779.56,-55.8 772.56,-55.8"/>
</a>
</g>
</g>
<!-- Node19 -->
<g id="Node000019" class="node">
<title>Node19</title>
<g id="a_Node000019"><a xlink:href="HierarchyWidget_8cpp.html" target="_top" xlink:title=" ">
<polygon fill="white" stroke="#666666" points="1504.06,-24.5 1356.06,-24.5 1356.06,-5.5 1504.06,-5.5 1504.06,-24.5"/>
<text text-anchor="middle" x="1430.06" y="-12.5" font-family="Helvetica,sans-Serif" font-size="10.00">src/ui/HierarchyWidget.cpp</text>
</a>
</g>
</g>
<!-- Node18&#45;&gt;Node19 -->
<g id="edge19_Node000018_Node000019" class="edge">
<title>Node18&#45;&gt;Node19</title>
<g id="a_edge19_Node000018_Node000019"><a xlink:title=" ">
<path fill="none" stroke="#63b8ff" d="M1430.06,-61.08C1430.06,-49.13 1430.06,-34.22 1430.06,-24.91"/>
<polygon fill="#63b8ff" stroke="#63b8ff" points="1426.56,-61.37 1430.06,-71.37 1433.56,-61.37 1426.56,-61.37"/>
</a>
</g>
</g>
<!-- Node20 -->
<g id="Node000020" class="node">
<title>Node20</title>
<g id="a_Node000020"><a xlink:href="MainWindow_8cpp.html" target="_top" xlink:title=" ">
<polygon fill="white" stroke="#666666" points="2368.06,-24.5 2240.06,-24.5 2240.06,-5.5 2368.06,-5.5 2368.06,-24.5"/>
<text text-anchor="middle" x="2304.06" y="-12.5" font-family="Helvetica,sans-Serif" font-size="10.00">src/ui/MainWindow.cpp</text>
</a>
</g>
</g>
<!-- Node18&#45;&gt;Node20 -->
<g id="edge20_Node000018_Node000020" class="edge">
<title>Node18&#45;&gt;Node20</title>
<g id="a_edge20_Node000018_Node000020"><a xlink:title=" ">
<path fill="none" stroke="#63b8ff" d="M1482.34,-69.76C1490.91,-68.33 1499.72,-67.01 1508.06,-66 1778.87,-33.3 2104.26,-21.32 2239.86,-17.53"/>
<polygon fill="#63b8ff" stroke="#63b8ff" points="1481.69,-66.32 1472.43,-71.48 1482.88,-73.22 1481.69,-66.32"/>
</a>
</g>
</g>
<!-- Node28&#45;&gt;Node14 -->
<g id="edge30_Node000028_Node000014" class="edge">
<title>Node28&#45;&gt;Node14</title>
<g id="a_edge30_Node000028_Node000014"><a xlink:title=" ">
<path fill="none" stroke="#63b8ff" d="M2189.66,-245.6C2250.77,-233.84 2342.19,-215.13 2356.06,-206 2402.05,-175.72 2432.51,-113.33 2442.49,-90.56"/>
<polygon fill="#63b8ff" stroke="#63b8ff" points="2188.91,-242.18 2179.75,-247.5 2190.23,-249.05 2188.91,-242.18"/>
</a>
</g>
</g>
<!-- Node28&#45;&gt;Node15 -->
<g id="edge31_Node000028_Node000015" class="edge">
<title>Node28&#45;&gt;Node15</title>
<g id="a_edge31_Node000028_Node000015"><a xlink:title=" ">
<path fill="none" stroke="#63b8ff" d="M2138.96,-237.06C2148.64,-199.62 2169.89,-117.45 2176.83,-90.64"/>
<polygon fill="#63b8ff" stroke="#63b8ff" points="2135.47,-236.57 2136.35,-247.13 2142.25,-238.33 2135.47,-236.57"/>
</a>
</g>
</g>
<!-- Node28&#45;&gt;Node20 -->
<g id="edge47_Node000028_Node000020" class="edge">
<title>Node28&#45;&gt;Node20</title>
<g id="a_edge47_Node000028_Node000020"><a xlink:title=" ">
<path fill="none" stroke="#63b8ff" d="M2180.81,-244.68C2226.19,-230.92 2292.56,-202.84 2323.06,-151 2347.79,-108.98 2320.42,-47.17 2308.78,-24.63"/>
<polygon fill="#63b8ff" stroke="#63b8ff" points="2179.8,-241.32 2171.18,-247.48 2181.76,-248.05 2179.8,-241.32"/>
</a>
</g>
</g>
<!-- Node28&#45;&gt;Node27 -->
<g id="edge48_Node000028_Node000027" class="edge">
<title>Node28&#45;&gt;Node27</title>
<g id="a_edge48_Node000028_Node000027"><a xlink:title=" ">
<path fill="none" stroke="#63b8ff" d="M2124.03,-238.49C2109.89,-213.8 2084.64,-169.71 2074,-151.13"/>
<polygon fill="#63b8ff" stroke="#63b8ff" points="2121.17,-240.53 2129.18,-247.47 2127.24,-237.05 2121.17,-240.53"/>
</a>
</g>
</g>
<!-- Node29 -->
<g id="Node000029" class="node">
<title>Node29</title>
<g id="a_Node000029"><a xlink:href="SceneManager_8h.html" target="_top" xlink:title=" ">
<polygon fill="white" stroke="#666666" points="1945.06,-206 1763.06,-206 1763.06,-187 1945.06,-187 1945.06,-206"/>
<text text-anchor="middle" x="1854.06" y="-194" font-family="Helvetica,sans-Serif" font-size="10.00">src/graphics/core/SceneManager.h</text>
</a>
</g>
</g>
<!-- Node28&#45;&gt;Node29 -->
<g id="edge32_Node000028_Node000029" class="edge">
<title>Node28&#45;&gt;Node29</title>
<g id="a_edge32_Node000028_Node000029"><a xlink:title=" ">
<path fill="none" stroke="#63b8ff" d="M2083.29,-245.39C2029.22,-234.1 1944.72,-216.44 1894.82,-206.02"/>
<polygon fill="#63b8ff" stroke="#63b8ff" points="2082.84,-248.87 2093.35,-247.49 2084.27,-242.02 2082.84,-248.87"/>
</a>
</g>
</g>
<!-- Node32 -->
<g id="Node000032" class="node">
<title>Node32</title>
<g id="a_Node000032"><a xlink:href="main_8cpp.html" target="_top" xlink:title=" ">
<polygon fill="white" stroke="#666666" points="2619.56,-90.5 2540.56,-90.5 2540.56,-71.5 2619.56,-71.5 2619.56,-90.5"/>
<text text-anchor="middle" x="2580.06" y="-78.5" font-family="Helvetica,sans-Serif" font-size="10.00">src/main.cpp</text>
</a>
</g>
</g>
<!-- Node28&#45;&gt;Node32 -->
<g id="edge46_Node000028_Node000032" class="edge">
<title>Node28&#45;&gt;Node32</title>
<g id="a_edge46_Node000028_Node000032"><a xlink:title=" ">
<path fill="none" stroke="#63b8ff" d="M2188.34,-245.52C2258.3,-231.94 2372.1,-209.56 2381.06,-206 2458.98,-175.01 2540.36,-113.6 2569.17,-90.8"/>
<polygon fill="#63b8ff" stroke="#63b8ff" points="2187.5,-242.12 2178.35,-247.46 2188.83,-248.99 2187.5,-242.12"/>
</a>
</g>
</g>
<!-- Node29&#45;&gt;Node7 -->
<g id="edge36_Node000029_Node000007" class="edge">
<title>Node29&#45;&gt;Node7</title>
<g id="a_edge36_Node000029_Node000007"><a xlink:title=" ">
<path fill="none" stroke="#63b8ff" d="M1763.14,-185.92C1668.79,-175.98 1522.61,-160.58 1432.09,-151.04"/>
<polygon fill="#63b8ff" stroke="#63b8ff" points="1762.93,-189.42 1773.25,-186.98 1763.67,-182.46 1762.93,-189.42"/>
</a>
</g>
</g>
<!-- Node29&#45;&gt;Node8 -->
<g id="edge33_Node000029_Node000008" class="edge">
<title>Node29&#45;&gt;Node8</title>
<g id="a_edge33_Node000029_Node000008"><a xlink:title=" ">
<path fill="none" stroke="#63b8ff" d="M1752.8,-193.85C1375.56,-187.2 70.39,-159.67 10.06,-96 -27.51,-56.34 53.35,-34.84 117.8,-24.4"/>
<polygon fill="#63b8ff" stroke="#63b8ff" points="1752.82,-197.35 1762.88,-194.02 1752.94,-190.35 1752.82,-197.35"/>
</a>
</g>
</g>
<!-- Node29&#45;&gt;Node15 -->
<g id="edge34_Node000029_Node000015" class="edge">
<title>Node29&#45;&gt;Node15</title>
<g id="a_edge34_Node000029_Node000015"><a xlink:title=" ">
<path fill="none" stroke="#63b8ff" d="M1878.86,-182.15C1905.51,-168.21 1949.38,-146.42 1989.06,-132 2039.23,-113.77 2099.07,-99.14 2138,-90.53"/>
<polygon fill="#63b8ff" stroke="#63b8ff" points="1877.07,-179.14 1869.87,-186.9 1880.34,-185.33 1877.07,-179.14"/>
</a>
</g>
</g>
<!-- Node29&#45;&gt;Node16 -->
<g id="edge35_Node000029_Node000016" class="edge">
<title>Node29&#45;&gt;Node16</title>
<g id="a_edge35_Node000029_Node000016"><a xlink:title=" ">
<path fill="none" stroke="#63b8ff" d="M1806.79,-184.47C1778.29,-176.93 1741.7,-165.65 1711.06,-151 1674.75,-133.64 1636.53,-104.82 1618.56,-90.55"/>
<polygon fill="#63b8ff" stroke="#63b8ff" points="1805.96,-187.87 1816.51,-186.98 1807.71,-181.09 1805.96,-187.87"/>
</a>
</g>
</g>
<!-- Node29&#45;&gt;Node22 -->
<g id="edge44_Node000029_Node000022" class="edge">
<title>Node29&#45;&gt;Node22</title>
<g id="a_edge44_Node000029_Node000022"><a xlink:title=" ">
<path fill="none" stroke="#63b8ff" d="M1874.39,-180.81C1886.09,-172.25 1901.03,-161.18 1914.06,-151 1937.71,-132.53 1964.39,-110.39 1981.21,-96.26"/>
<polygon fill="#63b8ff" stroke="#63b8ff" points="1872.17,-178.09 1866.15,-186.81 1876.29,-183.75 1872.17,-178.09"/>
</a>
</g>
</g>
<!-- Node29&#45;&gt;Node23 -->
<g id="edge45_Node000029_Node000023" class="edge">
<title>Node29&#45;&gt;Node23</title>
<g id="a_edge45_Node000029_Node000023"><a xlink:title=" ">
<path fill="none" stroke="#63b8ff" d="M1752.59,-192.13C1607.23,-186.58 1347.23,-173.81 1256.06,-151 1235.79,-145.93 1233.43,-136.67 1213.06,-132 990.27,-80.88 412.72,-116.52 185.06,-96 176.51,-95.23 167.55,-94.21 158.69,-93.07"/>
<polygon fill="#63b8ff" stroke="#63b8ff" points="1752.72,-195.63 1762.85,-192.51 1752.99,-188.64 1752.72,-195.63"/>
</a>
</g>
</g>
<!-- Node29&#45;&gt;Node27 -->
<g id="edge43_Node000029_Node000027" class="edge">
<title>Node29&#45;&gt;Node27</title>
<g id="a_edge43_Node000029_Node000027"><a xlink:title=" ">
<path fill="none" stroke="#63b8ff" d="M1898.42,-184.56C1938.69,-174.64 1997.26,-160.2 2034.25,-151.08"/>
<polygon fill="#63b8ff" stroke="#63b8ff" points="1897.48,-181.19 1888.6,-186.98 1899.15,-187.99 1897.48,-181.19"/>
</a>
</g>
</g>
<!-- Node30 -->
<g id="Node000030" class="node">
<title>Node30</title>
<g id="a_Node000030"><a xlink:href="SceneSerializer_8h.html" target="_top" xlink:title=" ">
<polygon fill="white" stroke="#666666" points="1904.56,-151 1719.56,-151 1719.56,-132 1904.56,-132 1904.56,-151"/>
<text text-anchor="middle" x="1812.06" y="-139" font-family="Helvetica,sans-Serif" font-size="10.00">src/graphics/core/SceneSerializer.h</text>
</a>
</g>
</g>
<!-- Node29&#45;&gt;Node30 -->
<g id="edge37_Node000029_Node000030" class="edge">
<title>Node29&#45;&gt;Node30</title>
<g id="a_edge37_Node000029_Node000030"><a xlink:title=" ">
<path fill="none" stroke="#63b8ff" d="M1840.73,-178.67C1833.45,-169.5 1824.76,-158.52 1818.87,-151.09"/>
<polygon fill="#63b8ff" stroke="#63b8ff" points="1838.17,-181.08 1847.13,-186.75 1843.66,-176.74 1838.17,-181.08"/>
</a>
</g>
</g>
<!-- Node31 -->
<g id="Node000031" class="node">
<title>Node31</title>
<g id="a_Node000031"><a xlink:href="MainWindow_8h.html" target="_top" xlink:title=" ">
<polygon fill="white" stroke="#666666" points="2313.56,-151 2196.56,-151 2196.56,-132 2313.56,-132 2313.56,-151"/>
<text text-anchor="middle" x="2255.06" y="-139" font-family="Helvetica,sans-Serif" font-size="10.00">src/ui/MainWindow.h</text>
</a>
</g>
</g>
<!-- Node29&#45;&gt;Node31 -->
<g id="edge40_Node000029_Node000031" class="edge">
<title>Node29&#45;&gt;Node31</title>
<g id="a_edge40_Node000029_Node000031"><a xlink:title=" ">
<path fill="none" stroke="#63b8ff" d="M1928.65,-185.64C2006.02,-175.42 2125.42,-159.63 2196.34,-150.26"/>
<polygon fill="#63b8ff" stroke="#63b8ff" points="1927.94,-182.2 1918.49,-186.98 1928.86,-189.14 1927.94,-182.2"/>
</a>
</g>
</g>
<!-- Node30&#45;&gt;Node15 -->
<g id="edge38_Node000030_Node000015" class="edge">
<title>Node30&#45;&gt;Node15</title>
<g id="a_edge38_Node000030_Node000015"><a xlink:title=" ">
<path fill="none" stroke="#63b8ff" d="M1875.54,-130.38C1946.24,-119.11 2059.28,-101.09 2125.63,-90.52"/>
<polygon fill="#63b8ff" stroke="#63b8ff" points="1874.75,-126.96 1865.43,-131.99 1875.85,-133.88 1874.75,-126.96"/>
</a>
</g>
</g>
<!-- Node30&#45;&gt;Node17 -->
<g id="edge39_Node000030_Node000017" class="edge">
<title>Node30&#45;&gt;Node17</title>
<g id="a_edge39_Node000030_Node000017"><a xlink:title=" ">
<path fill="none" stroke="#63b8ff" d="M1813.35,-121.66C1814.06,-111.24 1814.91,-98.8 1815.47,-90.67"/>
<polygon fill="#63b8ff" stroke="#63b8ff" points="1809.84,-121.65 1812.65,-131.87 1816.83,-122.13 1809.84,-121.65"/>
</a>
</g>
</g>
<!-- Node31&#45;&gt;Node20 -->
<g id="edge42_Node000031_Node000020" class="edge">
<title>Node31&#45;&gt;Node20</title>
<g id="a_edge42_Node000031_Node000020"><a xlink:title=" ">
<path fill="none" stroke="#63b8ff" d="M2268.45,-123.76C2274.29,-115.75 2280.77,-105.8 2285.06,-96 2295.84,-71.42 2301.03,-39.8 2303.03,-24.73"/>
<polygon fill="#63b8ff" stroke="#63b8ff" points="2265.56,-121.78 2262.29,-131.86 2271.13,-126.02 2265.56,-121.78"/>
</a>
</g>
</g>
<!-- Node31&#45;&gt;Node32 -->
<g id="edge41_Node000031_Node000032" class="edge">
<title>Node31&#45;&gt;Node32</title>
<g id="a_edge41_Node000031_Node000032"><a xlink:title=" ">
<path fill="none" stroke="#63b8ff" d="M2323.77,-131.73C2379.87,-124.01 2461.04,-111.59 2531.06,-96 2537.97,-94.46 2545.35,-92.52 2552.22,-90.57"/>
<polygon fill="#63b8ff" stroke="#63b8ff" points="2323.03,-128.29 2313.59,-133.11 2323.98,-135.23 2323.03,-128.29"/>
</a>
</g>
</g>
<!-- Node34&#45;&gt;Node4 -->
<g id="edge53_Node000034_Node000004" class="edge">
<title>Node34&#45;&gt;Node4</title>
<g id="a_edge53_Node000034_Node000004"><a xlink:title=" ">
<path fill="none" stroke="#63b8ff" d="M1368.53,-359.98C1339.46,-350.87 1303.61,-339.05 1272.06,-327 1227.01,-309.78 1176.1,-286.73 1144.8,-272.11"/>
<polygon fill="#63b8ff" stroke="#63b8ff" points="1367.52,-363.34 1378.11,-362.97 1369.6,-356.65 1367.52,-363.34"/>
</a>
</g>
</g>
<!-- Node34&#45;&gt;Node6 -->
<g id="edge52_Node000034_Node000006" class="edge">
<title>Node34&#45;&gt;Node6</title>
<g id="a_edge52_Node000034_Node000006"><a xlink:title=" ">
<path fill="none" stroke="#63b8ff" d="M1452.66,-356.82C1466.45,-346.73 1482.42,-335.05 1493.07,-327.27"/>
<polygon fill="#63b8ff" stroke="#63b8ff" points="1450.43,-354.11 1444.43,-362.84 1454.56,-359.76 1450.43,-354.11"/>
</a>
</g>
</g>
<!-- Node35 -->
<g id="Node000035" class="node">
<title>Node35</title>
<g id="a_Node000035"><a xlink:href="SolverDialog_8cpp.html" target="_top" xlink:title=" ">
<polygon fill="white" stroke="#666666" points="1409.06,-327 1281.06,-327 1281.06,-308 1409.06,-308 1409.06,-327"/>
<text text-anchor="middle" x="1345.06" y="-315" font-family="Helvetica,sans-Serif" font-size="10.00">src/ui/SolverDialog.cpp</text>
</a>
</g>
</g>
<!-- Node34&#45;&gt;Node35 -->
<g id="edge54_Node000034_Node000035" class="edge">
<title>Node34&#45;&gt;Node35</title>
<g id="a_edge54_Node000034_Node000035"><a xlink:title=" ">
<path fill="none" stroke="#63b8ff" d="M1397.46,-356.82C1383.67,-346.73 1367.7,-335.05 1357.05,-327.27"/>
<polygon fill="#63b8ff" stroke="#63b8ff" points="1395.56,-359.76 1405.7,-362.84 1399.69,-354.11 1395.56,-359.76"/>
</a>
</g>
</g>
</g>
</svg>
