<?xml version="1.0" encoding="UTF-8" standalone="no"?>
<!DOCTYPE svg PUBLIC "-//W3C//DTD SVG 1.1//EN"
 "http://www.w3.org/Graphics/SVG/1.1/DTD/svg11.dtd">
<!-- Generated by graphviz version 2.43.0 (0)
 -->
<!-- Title: src/ui/MainWindow.cpp Pages: 1 -->
<svg width="2847pt" height="324pt"
 viewBox="0.00 0.00 2846.50 324.00" xmlns="http://www.w3.org/2000/svg" xmlns:xlink="http://www.w3.org/1999/xlink">
<g id="graph0" class="graph" transform="scale(1 1) rotate(0) translate(4 320)">
<title>src/ui/MainWindow.cpp</title>
<!-- Node1 -->
<g id="Node000001" class="node">
<title>Node1</title>
<g id="a_Node000001"><a xlink:title=" ">
<polygon fill="#999999" stroke="#666666" points="1504,-316 1376,-316 1376,-297 1504,-297 1504,-316"/>
<text text-anchor="middle" x="1440" y="-304" font-family="Helvetica,sans-Serif" font-size="10.00">src/ui/MainWindow.cpp</text>
</a>
</g>
</g>
<!-- Node2 -->
<g id="Node000002" class="node">
<title>Node2</title>
<g id="a_Node000002"><a xlink:href="MainWindow_8h.html" target="_top" xlink:title=" ">
<polygon fill="white" stroke="#666666" points="542,-255.5 454,-255.5 454,-236.5 542,-236.5 542,-255.5"/>
<text text-anchor="middle" x="498" y="-243.5" font-family="Helvetica,sans-Serif" font-size="10.00">MainWindow.h</text>
</a>
</g>
</g>
<!-- Node1&#45;&gt;Node2 -->
<g id="edge1_Node000001_Node000002" class="edge">
<title>Node1&#45;&gt;Node2</title>
<g id="a_edge1_Node000001_Node000002"><a xlink:title=" ">
<path fill="none" stroke="#63b8ff" d="M1375.98,-304.03C1199.78,-299.7 710.19,-285.73 551,-261 545.96,-260.22 540.7,-259.15 535.54,-257.95"/>
<polygon fill="#63b8ff" stroke="#63b8ff" points="536.38,-254.55 525.83,-255.51 534.68,-261.34 536.38,-254.55"/>
</a>
</g>
</g>
<!-- Node8 -->
<g id="Node000008" class="node">
<title>Node8</title>
<g id="a_Node000008"><a xlink:title=" ">
<polygon fill="#e0e0e0" stroke="#999999" points="1154,-24.5 1096,-24.5 1096,-5.5 1154,-5.5 1154,-24.5"/>
<text text-anchor="middle" x="1125" y="-12.5" font-family="Helvetica,sans-Serif" font-size="10.00">memory</text>
</a>
</g>
</g>
<!-- Node1&#45;&gt;Node8 -->
<g id="edge42_Node000001_Node000008" class="edge">
<title>Node1&#45;&gt;Node8</title>
<g id="a_edge42_Node000001_Node000008"><a xlink:title=" ">
<path fill="none" stroke="#63b8ff" d="M1375.59,-304.52C1246.93,-301.91 967.92,-292.61 939,-261 900.76,-219.21 1053.64,-78.43 1107.13,-31.42"/>
<polygon fill="#63b8ff" stroke="#63b8ff" points="1109.59,-33.93 1114.82,-24.71 1104.98,-28.65 1109.59,-33.93"/>
</a>
</g>
</g>
<!-- Node44 -->
<g id="Node000044" class="node">
<title>Node44</title>
<g id="a_Node000044"><a xlink:href="OpenGLWindow_8h.html" target="_top" xlink:title=" ">
<polygon fill="white" stroke="#666666" points="554.5,-85 441.5,-85 441.5,-66 554.5,-66 554.5,-85"/>
<text text-anchor="middle" x="498" y="-73" font-family="Helvetica,sans-Serif" font-size="10.00">ui/OpenGLWindow.h</text>
</a>
</g>
</g>
<!-- Node1&#45;&gt;Node44 -->
<g id="edge27_Node000001_Node000044" class="edge">
<title>Node1&#45;&gt;Node44</title>
<g id="a_edge27_Node000001_Node000044"><a xlink:title=" ">
<path fill="none" stroke="#63b8ff" d="M1375.8,-305.7C1167.5,-305.92 512,-303.15 305,-261 223.95,-244.5 177.98,-263.07 131,-195 94.77,-142.51 315.69,-102.52 431.1,-85.49"/>
<polygon fill="#63b8ff" stroke="#63b8ff" points="431.87,-88.92 441.26,-84.02 430.86,-81.99 431.87,-88.92"/>
</a>
</g>
</g>
<!-- Node74 -->
<g id="Node000074" class="node">
<title>Node74</title>
<g id="a_Node000074"><a xlink:title=" ">
<polygon fill="#e0e0e0" stroke="#999999" points="620,-255.5 560,-255.5 560,-236.5 620,-236.5 620,-255.5"/>
<text text-anchor="middle" x="590" y="-243.5" font-family="Helvetica,sans-Serif" font-size="10.00">iostream</text>
</a>
</g>
</g>
<!-- Node1&#45;&gt;Node74 -->
<g id="edge26_Node000001_Node000074" class="edge">
<title>Node1&#45;&gt;Node74</title>
<g id="a_edge26_Node000001_Node000074"><a xlink:title=" ">
<path fill="none" stroke="#63b8ff" d="M1375.87,-304.37C1210.28,-301.08 771.44,-289.83 629,-261 625.99,-260.39 622.91,-259.6 619.85,-258.7"/>
<polygon fill="#63b8ff" stroke="#63b8ff" points="620.92,-255.36 610.33,-255.55 618.73,-262.01 620.92,-255.36"/>
</a>
</g>
</g>
<!-- Node75 -->
<g id="Node000075" class="node">
<title>Node75</title>
<g id="a_Node000075"><a xlink:title=" ">
<polygon fill="#e0e0e0" stroke="#999999" points="721.5,-255.5 638.5,-255.5 638.5,-236.5 721.5,-236.5 721.5,-255.5"/>
<text text-anchor="middle" x="680" y="-243.5" font-family="Helvetica,sans-Serif" font-size="10.00">QDockWidget</text>
</a>
</g>
</g>
<!-- Node1&#45;&gt;Node75 -->
<g id="edge28_Node000001_Node000075" class="edge">
<title>Node1&#45;&gt;Node75</title>
<g id="a_edge28_Node000001_Node000075"><a xlink:title=" ">
<path fill="none" stroke="#63b8ff" d="M1375.84,-305.98C1250.69,-305.91 965.63,-300.91 730,-261 725.53,-260.24 720.89,-259.24 716.31,-258.12"/>
<polygon fill="#63b8ff" stroke="#63b8ff" points="717.05,-254.7 706.49,-255.54 715.27,-261.47 717.05,-254.7"/>
</a>
</g>
</g>
<!-- Node76 -->
<g id="Node000076" class="node">
<title>Node76</title>
<g id="a_Node000076"><a xlink:title=" ">
<polygon fill="#e0e0e0" stroke="#999999" points="810.5,-255.5 739.5,-255.5 739.5,-236.5 810.5,-236.5 810.5,-255.5"/>
<text text-anchor="middle" x="775" y="-243.5" font-family="Helvetica,sans-Serif" font-size="10.00">QStatusBar</text>
</a>
</g>
</g>
<!-- Node1&#45;&gt;Node76 -->
<g id="edge29_Node000001_Node000076" class="edge">
<title>Node1&#45;&gt;Node76</title>
<g id="a_edge29_Node000001_Node000076"><a xlink:title=" ">
<path fill="none" stroke="#63b8ff" d="M1375.88,-305.87C1262.49,-305.43 1019.62,-299.54 819,-261 815.51,-260.33 811.91,-259.47 808.34,-258.51"/>
<polygon fill="#63b8ff" stroke="#63b8ff" points="809.06,-255.08 798.48,-255.6 807.08,-261.79 809.06,-255.08"/>
</a>
</g>
</g>
<!-- Node77 -->
<g id="Node000077" class="node">
<title>Node77</title>
<g id="a_Node000077"><a xlink:title=" ">
<polygon fill="#e0e0e0" stroke="#999999" points="891.5,-255.5 828.5,-255.5 828.5,-236.5 891.5,-236.5 891.5,-255.5"/>
<text text-anchor="middle" x="860" y="-243.5" font-family="Helvetica,sans-Serif" font-size="10.00">QLineEdit</text>
</a>
</g>
</g>
<!-- Node1&#45;&gt;Node77 -->
<g id="edge30_Node000001_Node000077" class="edge">
<title>Node1&#45;&gt;Node77</title>
<g id="a_edge30_Node000001_Node000077"><a xlink:title=" ">
<path fill="none" stroke="#63b8ff" d="M1375.7,-304.53C1274.78,-302.03 1073.43,-293.08 906,-261 902.14,-260.26 898.15,-259.32 894.2,-258.28"/>
<polygon fill="#63b8ff" stroke="#63b8ff" points="895.16,-254.91 884.59,-255.53 893.24,-261.64 895.16,-254.91"/>
</a>
</g>
</g>
<!-- Node78 -->
<g id="Node000078" class="node">
<title>Node78</title>
<g id="a_Node000078"><a xlink:title=" ">
<polygon fill="#e0e0e0" stroke="#999999" points="2111,-195 2037,-195 2037,-176 2111,-176 2111,-195"/>
<text text-anchor="middle" x="2074" y="-183" font-family="Helvetica,sans-Serif" font-size="10.00">QScrollArea</text>
</a>
</g>
</g>
<!-- Node1&#45;&gt;Node78 -->
<g id="edge31_Node000001_Node000078" class="edge">
<title>Node1&#45;&gt;Node78</title>
<g id="a_edge31_Node000001_Node000078"><a xlink:title=" ">
<path fill="none" stroke="#63b8ff" d="M1504.02,-305.25C1654.12,-304.06 2019.18,-297.41 2060,-261 2075.39,-247.27 2077.18,-222.44 2076.26,-205.24"/>
<polygon fill="#63b8ff" stroke="#63b8ff" points="2079.74,-204.89 2075.38,-195.23 2072.77,-205.5 2079.74,-204.89"/>
</a>
</g>
</g>
<!-- Node79 -->
<g id="Node000079" class="node">
<title>Node79</title>
<g id="a_Node000079"><a xlink:title=" ">
<polygon fill="#e0e0e0" stroke="#999999" points="1016,-255.5 948,-255.5 948,-236.5 1016,-236.5 1016,-255.5"/>
<text text-anchor="middle" x="982" y="-243.5" font-family="Helvetica,sans-Serif" font-size="10.00">QMenuBar</text>
</a>
</g>
</g>
<!-- Node1&#45;&gt;Node79 -->
<g id="edge32_Node000001_Node000079" class="edge">
<title>Node1&#45;&gt;Node79</title>
<g id="a_edge32_Node000001_Node000079"><a xlink:title=" ">
<path fill="none" stroke="#63b8ff" d="M1375.72,-302.75C1293.59,-298.3 1147.41,-287.19 1025,-261 1021.78,-260.31 1018.45,-259.47 1015.15,-258.55"/>
<polygon fill="#63b8ff" stroke="#63b8ff" points="1016,-255.15 1005.42,-255.6 1013.97,-261.85 1016,-255.15"/>
</a>
</g>
</g>
<!-- Node80 -->
<g id="Node000080" class="node">
<title>Node80</title>
<g id="a_Node000080"><a xlink:title=" ">
<polygon fill="#e0e0e0" stroke="#999999" points="1107.5,-255.5 1034.5,-255.5 1034.5,-236.5 1107.5,-236.5 1107.5,-255.5"/>
<text text-anchor="middle" x="1071" y="-243.5" font-family="Helvetica,sans-Serif" font-size="10.00">QFileDialog</text>
</a>
</g>
</g>
<!-- Node1&#45;&gt;Node80 -->
<g id="edge33_Node000001_Node000080" class="edge">
<title>Node1&#45;&gt;Node80</title>
<g id="a_edge33_Node000001_Node000080"><a xlink:title=" ">
<path fill="none" stroke="#63b8ff" d="M1375.73,-299.68C1310.17,-293.03 1205.74,-280.49 1117,-261 1113.55,-260.24 1109.99,-259.35 1106.44,-258.4"/>
<polygon fill="#63b8ff" stroke="#63b8ff" points="1107.18,-254.97 1096.6,-255.58 1105.25,-261.7 1107.18,-254.97"/>
</a>
</g>
</g>
<!-- Node81 -->
<g id="Node000081" class="node">
<title>Node81</title>
<g id="a_Node000081"><a xlink:title=" ">
<polygon fill="#e0e0e0" stroke="#999999" points="1164,-255.5 1126,-255.5 1126,-236.5 1164,-236.5 1164,-255.5"/>
<text text-anchor="middle" x="1145" y="-243.5" font-family="Helvetica,sans-Serif" font-size="10.00">QDir</text>
</a>
</g>
</g>
<!-- Node1&#45;&gt;Node81 -->
<g id="edge34_Node000001_Node000081" class="edge">
<title>Node1&#45;&gt;Node81</title>
<g id="a_edge34_Node000001_Node000081"><a xlink:title=" ">
<path fill="none" stroke="#63b8ff" d="M1375.88,-300.23C1320.98,-294.44 1240.37,-282.91 1173,-261 1171.78,-260.6 1170.54,-260.16 1169.31,-259.68"/>
<polygon fill="#63b8ff" stroke="#63b8ff" points="1170.61,-256.43 1160.05,-255.56 1167.76,-262.82 1170.61,-256.43"/>
</a>
</g>
</g>
<!-- Node82 -->
<g id="Node000082" class="node">
<title>Node82</title>
<g id="a_Node000082"><a xlink:title=" ">
<polygon fill="#e0e0e0" stroke="#999999" points="1237.5,-255.5 1182.5,-255.5 1182.5,-236.5 1237.5,-236.5 1237.5,-255.5"/>
<text text-anchor="middle" x="1210" y="-243.5" font-family="Helvetica,sans-Serif" font-size="10.00">QFrame</text>
</a>
</g>
</g>
<!-- Node1&#45;&gt;Node82 -->
<g id="edge35_Node000001_Node000082" class="edge">
<title>Node1&#45;&gt;Node82</title>
<g id="a_edge35_Node000001_Node000082"><a xlink:title=" ">
<path fill="none" stroke="#63b8ff" d="M1394.43,-297C1354.8,-289.14 1296.04,-276.38 1246,-261 1244.08,-260.41 1242.11,-259.76 1240.14,-259.09"/>
<polygon fill="#63b8ff" stroke="#63b8ff" points="1240.97,-255.67 1230.38,-255.52 1238.57,-262.24 1240.97,-255.67"/>
</a>
</g>
</g>
<!-- Node83 -->
<g id="Node000083" class="node">
<title>Node83</title>
<g id="a_Node000083"><a xlink:title=" ">
<polygon fill="#e0e0e0" stroke="#999999" points="1338.5,-255.5 1255.5,-255.5 1255.5,-236.5 1338.5,-236.5 1338.5,-255.5"/>
<text text-anchor="middle" x="1297" y="-243.5" font-family="Helvetica,sans-Serif" font-size="10.00">QHeaderView</text>
</a>
</g>
</g>
<!-- Node1&#45;&gt;Node83 -->
<g id="edge36_Node000001_Node000083" class="edge">
<title>Node1&#45;&gt;Node83</title>
<g id="a_edge36_Node000001_Node000083"><a xlink:title=" ">
<path fill="none" stroke="#63b8ff" d="M1419.21,-296.99C1395.06,-287.12 1355.02,-270.73 1327.38,-259.43"/>
<polygon fill="#63b8ff" stroke="#63b8ff" points="1328.4,-256.06 1317.82,-255.52 1325.75,-262.54 1328.4,-256.06"/>
</a>
</g>
</g>
<!-- Node84 -->
<g id="Node000084" class="node">
<title>Node84</title>
<g id="a_Node000084"><a xlink:title=" ">
<polygon fill="#e0e0e0" stroke="#999999" points="1431,-255.5 1357,-255.5 1357,-236.5 1431,-236.5 1431,-255.5"/>
<text text-anchor="middle" x="1394" y="-243.5" font-family="Helvetica,sans-Serif" font-size="10.00">QTableView</text>
</a>
</g>
</g>
<!-- Node1&#45;&gt;Node84 -->
<g id="edge37_Node000001_Node000084" class="edge">
<title>Node1&#45;&gt;Node84</title>
<g id="a_edge37_Node000001_Node000084"><a xlink:title=" ">
<path fill="none" stroke="#63b8ff" d="M1433.21,-296.87C1426.35,-288.14 1415.57,-274.43 1407.05,-263.59"/>
<polygon fill="#63b8ff" stroke="#63b8ff" points="1409.75,-261.36 1400.82,-255.67 1404.25,-265.69 1409.75,-261.36"/>
</a>
</g>
</g>
<!-- Node85 -->
<g id="Node000085" class="node">
<title>Node85</title>
<g id="a_Node000085"><a xlink:title=" ">
<polygon fill="#e0e0e0" stroke="#999999" points="1524.5,-255.5 1449.5,-255.5 1449.5,-236.5 1524.5,-236.5 1524.5,-255.5"/>
<text text-anchor="middle" x="1487" y="-243.5" font-family="Helvetica,sans-Serif" font-size="10.00">QTabWidget</text>
</a>
</g>
</g>
<!-- Node1&#45;&gt;Node85 -->
<g id="edge38_Node000001_Node000085" class="edge">
<title>Node1&#45;&gt;Node85</title>
<g id="a_edge38_Node000001_Node000085"><a xlink:title=" ">
<path fill="none" stroke="#63b8ff" d="M1446.94,-296.87C1453.95,-288.14 1464.96,-274.43 1473.67,-263.59"/>
<polygon fill="#63b8ff" stroke="#63b8ff" points="1476.5,-265.66 1480.04,-255.67 1471.04,-261.27 1476.5,-265.66"/>
</a>
</g>
</g>
<!-- Node86 -->
<g id="Node000086" class="node">
<title>Node86</title>
<g id="a_Node000086"><a xlink:title=" ">
<polygon fill="#e0e0e0" stroke="#999999" points="1601.5,-195 1518.5,-195 1518.5,-176 1601.5,-176 1601.5,-195"/>
<text text-anchor="middle" x="1560" y="-183" font-family="Helvetica,sans-Serif" font-size="10.00">QVBoxLayout</text>
</a>
</g>
</g>
<!-- Node1&#45;&gt;Node86 -->
<g id="edge39_Node000001_Node000086" class="edge">
<title>Node1&#45;&gt;Node86</title>
<g id="a_edge39_Node000001_Node000086"><a xlink:title=" ">
<path fill="none" stroke="#63b8ff" d="M1472.26,-296.92C1492.17,-290.13 1516.9,-278.77 1533,-261 1547.11,-245.43 1553.99,-221.91 1557.25,-205.48"/>
<polygon fill="#63b8ff" stroke="#63b8ff" points="1560.74,-205.87 1558.97,-195.42 1553.84,-204.69 1560.74,-205.87"/>
</a>
</g>
</g>
<!-- Node87 -->
<g id="Node000087" class="node">
<title>Node87</title>
<g id="a_Node000087"><a xlink:title=" ">
<polygon fill="#e0e0e0" stroke="#999999" points="1663,-255.5 1581,-255.5 1581,-236.5 1663,-236.5 1663,-255.5"/>
<text text-anchor="middle" x="1622" y="-243.5" font-family="Helvetica,sans-Serif" font-size="10.00">QFormLayout</text>
</a>
</g>
</g>
<!-- Node1&#45;&gt;Node87 -->
<g id="edge40_Node000001_Node000087" class="edge">
<title>Node1&#45;&gt;Node87</title>
<g id="a_edge40_Node000001_Node000087"><a xlink:title=" ">
<path fill="none" stroke="#63b8ff" d="M1466.46,-296.99C1497.87,-286.9 1550.4,-270.01 1585.62,-258.69"/>
<polygon fill="#63b8ff" stroke="#63b8ff" points="1587.05,-261.91 1595.5,-255.52 1584.91,-255.24 1587.05,-261.91"/>
</a>
</g>
</g>
<!-- Node62 -->
<g id="Node000062" class="node">
<title>Node62</title>
<g id="a_Node000062"><a xlink:title=" ">
<polygon fill="#e0e0e0" stroke="#999999" points="1719,-255.5 1681,-255.5 1681,-236.5 1719,-236.5 1719,-255.5"/>
<text text-anchor="middle" x="1700" y="-243.5" font-family="Helvetica,sans-Serif" font-size="10.00">map</text>
</a>
</g>
</g>
<!-- Node1&#45;&gt;Node62 -->
<g id="edge41_Node000001_Node000062" class="edge">
<title>Node1&#45;&gt;Node62</title>
<g id="a_edge41_Node000001_Node000062"><a xlink:title=" ">
<path fill="none" stroke="#63b8ff" d="M1504.23,-298C1551.49,-291.33 1616.84,-279.68 1672,-261 1673.06,-260.64 1674.12,-260.25 1675.19,-259.84"/>
<polygon fill="#63b8ff" stroke="#63b8ff" points="1676.92,-262.9 1684.63,-255.63 1674.07,-256.5 1676.92,-262.9"/>
</a>
</g>
</g>
<!-- Node88 -->
<g id="Node000088" class="node">
<title>Node88</title>
<g id="a_Node000088"><a xlink:href="HierarchyWidget_8h.html" target="_top" xlink:title=" ">
<polygon fill="white" stroke="#666666" points="421.5,-255.5 314.5,-255.5 314.5,-236.5 421.5,-236.5 421.5,-255.5"/>
<text text-anchor="middle" x="368" y="-243.5" font-family="Helvetica,sans-Serif" font-size="10.00">HierarchyWidget.h</text>
</a>
</g>
</g>
<!-- Node1&#45;&gt;Node88 -->
<g id="edge43_Node000001_Node000088" class="edge">
<title>Node1&#45;&gt;Node88</title>
<g id="a_edge43_Node000001_Node000088"><a xlink:title=" ">
<path fill="none" stroke="#63b8ff" d="M1375.74,-305.63C1217.16,-305.29 794.67,-300.42 445,-261 436.56,-260.05 427.64,-258.73 419,-257.27"/>
<polygon fill="#63b8ff" stroke="#63b8ff" points="419.46,-253.8 409.01,-255.52 418.25,-260.69 419.46,-253.8"/>
</a>
</g>
</g>
<!-- Node91 -->
<g id="Node000091" class="node">
<title>Node91</title>
<g id="a_Node000091"><a xlink:href="FrameGraphPanel_8h.html" target="_top" xlink:title=" ">
<polygon fill="#fff0f0" stroke="red" points="2051.5,-255.5 1908.5,-255.5 1908.5,-236.5 2051.5,-236.5 2051.5,-255.5"/>
<text text-anchor="middle" x="1980" y="-243.5" font-family="Helvetica,sans-Serif" font-size="10.00">graph/FrameGraphPanel.h</text>
</a>
</g>
</g>
<!-- Node1&#45;&gt;Node91 -->
<g id="edge48_Node000001_Node000091" class="edge">
<title>Node1&#45;&gt;Node91</title>
<g id="a_edge48_Node000001_Node000091"><a xlink:title=" ">
<path fill="none" stroke="#63b8ff" d="M1504.03,-300.81C1592.9,-293.95 1758.56,-279.92 1899,-261 1907.14,-259.9 1915.72,-258.59 1924.13,-257.22"/>
<polygon fill="#63b8ff" stroke="#63b8ff" points="1924.97,-260.62 1934.26,-255.52 1923.82,-253.72 1924.97,-260.62"/>
</a>
</g>
</g>
<!-- Node97 -->
<g id="Node000097" class="node">
<title>Node97</title>
<g id="a_Node000097"><a xlink:href="InspectorWidget_8h.html" target="_top" xlink:title=" ">
<polygon fill="white" stroke="#666666" points="1890.5,-255.5 1737.5,-255.5 1737.5,-236.5 1890.5,-236.5 1890.5,-255.5"/>
<text text-anchor="middle" x="1814" y="-243.5" font-family="Helvetica,sans-Serif" font-size="10.00">inspector/InspectorWidget.h</text>
</a>
</g>
</g>
<!-- Node1&#45;&gt;Node97 -->
<g id="edge53_Node000001_Node000097" class="edge">
<title>Node1&#45;&gt;Node97</title>
<g id="a_edge53_Node000001_Node000097"><a xlink:title=" ">
<path fill="none" stroke="#63b8ff" d="M1496.04,-296.98C1554.09,-288.12 1647.43,-273.78 1728,-261 1735.86,-259.75 1744.12,-258.43 1752.29,-257.11"/>
<polygon fill="#63b8ff" stroke="#63b8ff" points="1752.86,-260.56 1762.17,-255.51 1751.74,-253.65 1752.86,-260.56"/>
</a>
</g>
</g>
<!-- Node98 -->
<g id="Node000098" class="node">
<title>Node98</title>
<g id="a_Node000098"><a xlink:href="SolverDialog_8h.html" target="_top" xlink:title=" ">
<polygon fill="#fff0f0" stroke="red" points="2196,-255.5 2108,-255.5 2108,-236.5 2196,-236.5 2196,-255.5"/>
<text text-anchor="middle" x="2152" y="-243.5" font-family="Helvetica,sans-Serif" font-size="10.00">SolverDialog.h</text>
</a>
</g>
</g>
<!-- Node1&#45;&gt;Node98 -->
<g id="edge57_Node000001_Node000098" class="edge">
<title>Node1&#45;&gt;Node98</title>
<g id="a_edge57_Node000001_Node000098"><a xlink:title=" ">
<path fill="none" stroke="#63b8ff" d="M1504.45,-304.71C1622.2,-302.48 1879.72,-293.91 2094,-261 2099.5,-260.15 2105.25,-259.05 2110.9,-257.83"/>
<polygon fill="#63b8ff" stroke="#63b8ff" points="2111.92,-261.18 2120.89,-255.53 2110.36,-254.36 2111.92,-261.18"/>
</a>
</g>
</g>
<!-- Node101 -->
<g id="Node000101" class="node">
<title>Node101</title>
<g id="a_Node000101"><a xlink:href="AppSettings_8h.html" target="_top" xlink:title=" ">
<polygon fill="#fff0f0" stroke="red" points="1969,-85 1885,-85 1885,-66 1969,-66 1969,-85"/>
<text text-anchor="middle" x="1927" y="-73" font-family="Helvetica,sans-Serif" font-size="10.00">AppSettings.h</text>
</a>
</g>
</g>
<!-- Node1&#45;&gt;Node101 -->
<g id="edge58_Node000001_Node000101" class="edge">
<title>Node1&#45;&gt;Node101</title>
<g id="a_edge58_Node000001_Node000101"><a xlink:title=" ">
<path fill="none" stroke="#63b8ff" d="M1504.18,-304.14C1683.98,-300.01 2181.09,-286.34 2205,-261 2284.08,-177.19 2072.42,-112.23 1974.1,-87.43"/>
<polygon fill="#63b8ff" stroke="#63b8ff" points="1974.93,-84.03 1964.38,-85.02 1973.24,-90.82 1974.93,-84.03"/>
</a>
</g>
</g>
<!-- Node28 -->
<g id="Node000028" class="node">
<title>Node28</title>
<g id="a_Node000028"><a xlink:href="Camera_8h.html" target="_top" xlink:title=" ">
<polygon fill="#fff0f0" stroke="red" points="2694,-195 2562,-195 2562,-176 2694,-176 2694,-195"/>
<text text-anchor="middle" x="2628" y="-183" font-family="Helvetica,sans-Serif" font-size="10.00">graphics/core/Camera.h</text>
</a>
</g>
</g>
<!-- Node1&#45;&gt;Node28 -->
<g id="edge61_Node000001_Node000028" class="edge">
<title>Node1&#45;&gt;Node28</title>
<g id="a_edge61_Node000001_Node000028"><a xlink:title=" ">
<path fill="none" stroke="#63b8ff" d="M1504.04,-305.03C1715.42,-303.15 2382.55,-294.6 2473,-261 2493.17,-253.51 2492.28,-241.61 2511,-231 2535.48,-217.12 2565.13,-205.89 2588.46,-198.19"/>
<polygon fill="#63b8ff" stroke="#63b8ff" points="2589.59,-201.5 2598.04,-195.11 2587.45,-194.84 2589.59,-201.5"/>
</a>
</g>
</g>
<!-- Node105 -->
<g id="Node000105" class="node">
<title>Node105</title>
<g id="a_Node000105"><a xlink:href="ScenePresets_8h.html" target="_top" xlink:title=" ">
<polygon fill="#fff0f0" stroke="red" points="2464,-255.5 2290,-255.5 2290,-236.5 2464,-236.5 2464,-255.5"/>
<text text-anchor="middle" x="2377" y="-243.5" font-family="Helvetica,sans-Serif" font-size="10.00">graphics/presets/ScenePresets.h</text>
</a>
</g>
</g>
<!-- Node1&#45;&gt;Node105 -->
<g id="edge62_Node000001_Node000105" class="edge">
<title>Node1&#45;&gt;Node105</title>
<g id="a_edge62_Node000001_Node000105"><a xlink:title=" ">
<path fill="none" stroke="#63b8ff" d="M1504.11,-303.94C1644.36,-300.11 1988.8,-288.5 2276,-261 2287.52,-259.9 2299.74,-258.45 2311.55,-256.89"/>
<polygon fill="#63b8ff" stroke="#63b8ff" points="2312.35,-260.32 2321.8,-255.51 2311.42,-253.38 2312.35,-260.32"/>
</a>
</g>
</g>
<!-- Node107 -->
<g id="Node000107" class="node">
<title>Node107</title>
<g id="a_Node000107"><a xlink:href="CameraSettingsGroup_8h.html" target="_top" xlink:title=" ">
<polygon fill="#fff0f0" stroke="red" points="2838.5,-261 2689.5,-261 2689.5,-231 2838.5,-231 2838.5,-261"/>
<text text-anchor="start" x="2697.5" y="-249" font-family="Helvetica,sans-Serif" font-size="10.00">ui/settings/CameraSettings</text>
<text text-anchor="middle" x="2764" y="-238" font-family="Helvetica,sans-Serif" font-size="10.00">Group.h</text>
</a>
</g>
</g>
<!-- Node1&#45;&gt;Node107 -->
<g id="edge63_Node000001_Node000107" class="edge">
<title>Node1&#45;&gt;Node107</title>
<g id="a_edge63_Node000001_Node000107"><a xlink:title=" ">
<path fill="none" stroke="#63b8ff" d="M1504.14,-306.16C1686.61,-307.41 2224.25,-306.71 2679.35,-261.07"/>
<polygon fill="#63b8ff" stroke="#63b8ff" points="2679.81,-264.55 2689.41,-260.06 2679.1,-257.58 2679.81,-264.55"/>
</a>
</g>
</g>
<!-- Node108 -->
<g id="Node000108" class="node">
<title>Node108</title>
<g id="a_Node000108"><a xlink:href="DebugSettings_8h.html" target="_top" xlink:title=" ">
<polygon fill="#fff0f0" stroke="red" points="2671.5,-255.5 2520.5,-255.5 2520.5,-236.5 2671.5,-236.5 2671.5,-255.5"/>
<text text-anchor="middle" x="2596" y="-243.5" font-family="Helvetica,sans-Serif" font-size="10.00">ui/settings/DebugSettings.h</text>
</a>
</g>
</g>
<!-- Node1&#45;&gt;Node108 -->
<g id="edge65_Node000001_Node000108" class="edge">
<title>Node1&#45;&gt;Node108</title>
<g id="a_edge65_Node000001_Node000108"><a xlink:title=" ">
<path fill="none" stroke="#63b8ff" d="M1504.16,-305.34C1670.19,-304.36 2127.41,-298.23 2506,-261 2516.26,-259.99 2527.12,-258.59 2537.63,-257.06"/>
<polygon fill="#63b8ff" stroke="#63b8ff" points="2538.19,-260.51 2547.55,-255.56 2537.14,-253.59 2538.19,-260.51"/>
</a>
</g>
</g>
<!-- Node109 -->
<g id="Node000109" class="node">
<title>Node109</title>
<g id="a_Node000109"><a xlink:href="SettingsDialog_8h.html" target="_top" xlink:title=" ">
<polygon fill="#fff0f0" stroke="red" points="2403.5,-140 2252.5,-140 2252.5,-121 2403.5,-121 2403.5,-140"/>
<text text-anchor="middle" x="2328" y="-128" font-family="Helvetica,sans-Serif" font-size="10.00">ui/settings/SettingsDialog.h</text>
</a>
</g>
</g>
<!-- Node1&#45;&gt;Node109 -->
<g id="edge66_Node000001_Node000109" class="edge">
<title>Node1&#45;&gt;Node109</title>
<g id="a_edge66_Node000001_Node000109"><a xlink:title=" ">
<path fill="none" stroke="#63b8ff" d="M1504.1,-305.13C1682.29,-303.65 2174.67,-296.39 2238,-261 2282.49,-236.14 2309.86,-178.97 2321.49,-149.61"/>
<polygon fill="#63b8ff" stroke="#63b8ff" points="2324.8,-150.76 2325.06,-140.17 2318.25,-148.28 2324.8,-150.76"/>
</a>
</g>
</g>
<!-- Node3 -->
<g id="Node000003" class="node">
<title>Node3</title>
<g id="a_Node000003"><a xlink:title=" ">
<polygon fill="#e0e0e0" stroke="#999999" points="715.5,-195 628.5,-195 628.5,-176 715.5,-176 715.5,-195"/>
<text text-anchor="middle" x="672" y="-183" font-family="Helvetica,sans-Serif" font-size="10.00">QMainWindow</text>
</a>
</g>
</g>
<!-- Node2&#45;&gt;Node3 -->
<g id="edge2_Node000002_Node000003" class="edge">
<title>Node2&#45;&gt;Node3</title>
<g id="a_edge2_Node000002_Node000003"><a xlink:title=" ">
<path fill="none" stroke="#63b8ff" d="M523.3,-236.49C553.2,-226.44 603.12,-209.66 636.78,-198.34"/>
<polygon fill="#63b8ff" stroke="#63b8ff" points="638.31,-201.52 646.67,-195.02 636.07,-194.89 638.31,-201.52"/>
</a>
</g>
</g>
<!-- Node4 -->
<g id="Node000004" class="node">
<title>Node4</title>
<g id="a_Node000004"><a xlink:title=" ">
<polygon fill="#e0e0e0" stroke="#999999" points="470,-195 410,-195 410,-176 470,-176 470,-195"/>
<text text-anchor="middle" x="440" y="-183" font-family="Helvetica,sans-Serif" font-size="10.00">QToolBar</text>
</a>
</g>
</g>
<!-- Node2&#45;&gt;Node4 -->
<g id="edge3_Node000002_Node000004" class="edge">
<title>Node2&#45;&gt;Node4</title>
<g id="a_edge3_Node000002_Node000004"><a xlink:title=" ">
<path fill="none" stroke="#63b8ff" d="M489.44,-236.37C480.62,-227.47 466.66,-213.39 455.82,-202.45"/>
<polygon fill="#63b8ff" stroke="#63b8ff" points="458.12,-199.8 448.59,-195.17 453.15,-204.73 458.12,-199.8"/>
</a>
</g>
</g>
<!-- Node5 -->
<g id="Node000005" class="node">
<title>Node5</title>
<g id="a_Node000005"><a xlink:title=" ">
<polygon fill="#e0e0e0" stroke="#999999" points="784,-195 734,-195 734,-176 784,-176 784,-195"/>
<text text-anchor="middle" x="759" y="-183" font-family="Helvetica,sans-Serif" font-size="10.00">QLabel</text>
</a>
</g>
</g>
<!-- Node2&#45;&gt;Node5 -->
<g id="edge4_Node000002_Node000005" class="edge">
<title>Node2&#45;&gt;Node5</title>
<g id="a_edge4_Node000002_Node000005"><a xlink:title=" ">
<path fill="none" stroke="#63b8ff" d="M529.32,-236.43C536.43,-234.57 543.96,-232.66 551,-231 627.44,-212.96 647.39,-212.27 724,-195 724.1,-194.98 724.2,-194.96 724.3,-194.93"/>
<polygon fill="#63b8ff" stroke="#63b8ff" points="724.84,-198.4 733.79,-192.73 723.26,-191.58 724.84,-198.4"/>
</a>
</g>
</g>
<!-- Node6 -->
<g id="Node000006" class="node">
<title>Node6</title>
<g id="a_Node000006"><a xlink:title=" ">
<polygon fill="#e0e0e0" stroke="#999999" points="392.5,-195 313.5,-195 313.5,-176 392.5,-176 392.5,-195"/>
<text text-anchor="middle" x="353" y="-183" font-family="Helvetica,sans-Serif" font-size="10.00">QTreeWidget</text>
</a>
</g>
</g>
<!-- Node2&#45;&gt;Node6 -->
<g id="edge5_Node000002_Node000006" class="edge">
<title>Node2&#45;&gt;Node6</title>
<g id="a_edge5_Node000002_Node000006"><a xlink:title=" ">
<path fill="none" stroke="#63b8ff" d="M476.92,-236.49C452.32,-226.57 411.47,-210.09 383.44,-198.78"/>
<polygon fill="#63b8ff" stroke="#63b8ff" points="384.69,-195.51 374.11,-195.02 382.07,-202 384.69,-195.51"/>
</a>
</g>
</g>
<!-- Node7 -->
<g id="Node000007" class="node">
<title>Node7</title>
<g id="a_Node000007"><a xlink:title=" ">
<polygon fill="#e0e0e0" stroke="#999999" points="610,-195 526,-195 526,-176 610,-176 610,-195"/>
<text text-anchor="middle" x="568" y="-183" font-family="Helvetica,sans-Serif" font-size="10.00">QTableWidget</text>
</a>
</g>
</g>
<!-- Node2&#45;&gt;Node7 -->
<g id="edge6_Node000002_Node000007" class="edge">
<title>Node2&#45;&gt;Node7</title>
<g id="a_edge6_Node000002_Node000007"><a xlink:title=" ">
<path fill="none" stroke="#63b8ff" d="M508.33,-236.37C519.19,-227.3 536.49,-212.84 549.67,-201.82"/>
<polygon fill="#63b8ff" stroke="#63b8ff" points="552.2,-204.27 557.63,-195.17 547.71,-198.89 552.2,-204.27"/>
</a>
</g>
</g>
<!-- Node2&#45;&gt;Node8 -->
<g id="edge7_Node000002_Node000008" class="edge">
<title>Node2&#45;&gt;Node8</title>
<g id="a_edge7_Node000002_Node000008"><a xlink:title=" ">
<path fill="none" stroke="#63b8ff" d="M527.85,-236.5C535.37,-234.53 543.45,-232.55 551,-231 657.51,-209.08 704.63,-258.36 793,-195 823.05,-173.46 803.33,-145.52 831,-121 883.84,-74.19 913.46,-89.57 980,-66 1026.9,-49.38 1039.03,-46.41 1086,-30 1087.88,-29.34 1089.82,-28.66 1091.77,-27.97"/>
<polygon fill="#63b8ff" stroke="#63b8ff" points="1093.26,-31.16 1101.51,-24.51 1090.92,-24.56 1093.26,-31.16"/>
</a>
</g>
</g>
<!-- Node9 -->
<g id="Node000009" class="node">
<title>Node9</title>
<g id="a_Node000009"><a xlink:href="SnapshotTableModel_8h.html" target="_top" xlink:title=" ">
<polygon fill="#fff0f0" stroke="red" points="966,-140 840,-140 840,-121 966,-121 966,-140"/>
<text text-anchor="middle" x="903" y="-128" font-family="Helvetica,sans-Serif" font-size="10.00">SnapshotTableModel.h</text>
</a>
</g>
</g>
<!-- Node2&#45;&gt;Node9 -->
<g id="edge8_Node000002_Node000009" class="edge">
<title>Node2&#45;&gt;Node9</title>
<g id="a_edge8_Node000002_Node000009"><a xlink:title=" ">
<path fill="none" stroke="#63b8ff" d="M527.56,-236.48C535.15,-234.48 543.34,-232.51 551,-231 671.95,-207.21 712.95,-244.12 826,-195 850.94,-184.16 874.24,-162.75 888.54,-147.8"/>
<polygon fill="#63b8ff" stroke="#63b8ff" points="891.28,-149.98 895.51,-140.27 886.15,-145.23 891.28,-149.98"/>
</a>
</g>
</g>
<!-- Node13 -->
<g id="Node000013" class="node">
<title>Node13</title>
<g id="a_Node000013"><a xlink:href="SceneManager_8h.html" target="_top" xlink:title=" ">
<polygon fill="#fff0f0" stroke="red" points="580.5,-140 415.5,-140 415.5,-121 580.5,-121 580.5,-140"/>
<text text-anchor="middle" x="498" y="-128" font-family="Helvetica,sans-Serif" font-size="10.00">graphics/core/SceneManager.h</text>
</a>
</g>
</g>
<!-- Node2&#45;&gt;Node13 -->
<g id="edge10_Node000002_Node000013" class="edge">
<title>Node2&#45;&gt;Node13</title>
<g id="a_edge10_Node000002_Node000013"><a xlink:title=" ">
<path fill="none" stroke="#63b8ff" d="M498,-236.47C498,-218.23 498,-175.07 498,-150.14"/>
<polygon fill="#63b8ff" stroke="#63b8ff" points="501.5,-150.13 498,-140.13 494.5,-150.13 501.5,-150.13"/>
</a>
</g>
</g>
<!-- Node11 -->
<g id="Node000011" class="node">
<title>Node11</title>
<g id="a_Node000011"><a xlink:title=" ">
<polygon fill="#e0e0e0" stroke="#999999" points="1950.5,-24.5 1903.5,-24.5 1903.5,-5.5 1950.5,-5.5 1950.5,-24.5"/>
<text text-anchor="middle" x="1927" y="-12.5" font-family="Helvetica,sans-Serif" font-size="10.00">vector</text>
</a>
</g>
</g>
<!-- Node9&#45;&gt;Node11 -->
<g id="edge9_Node000009_Node000011" class="edge">
<title>Node9&#45;&gt;Node11</title>
<g id="a_edge9_Node000009_Node000011"><a xlink:title=" ">
<path fill="none" stroke="#63b8ff" d="M966.28,-122.49C1160.9,-100.91 1746.28,-36.03 1893.25,-19.74"/>
<polygon fill="#63b8ff" stroke="#63b8ff" points="1893.89,-23.19 1903.44,-18.61 1893.12,-16.23 1893.89,-23.19"/>
</a>
</g>
</g>
<!-- Node13&#45;&gt;Node8 -->
<g id="edge11_Node000013_Node000008" class="edge">
<title>Node13&#45;&gt;Node8</title>
<g id="a_edge11_Node000013_Node000008"><a xlink:title=" ">
<path fill="none" stroke="#63b8ff" d="M533.83,-120.89C589.91,-107.66 701.92,-82.14 798,-66 925.21,-44.62 960.53,-59.97 1086,-30 1088.66,-29.36 1091.4,-28.61 1094.12,-27.78"/>
<polygon fill="#63b8ff" stroke="#63b8ff" points="1095.41,-31.04 1103.8,-24.57 1093.21,-24.4 1095.41,-31.04"/>
</a>
</g>
</g>
<!-- Node13&#45;&gt;Node44 -->
<g id="edge12_Node000013_Node000044" class="edge">
<title>Node13&#45;&gt;Node44</title>
<g id="a_edge12_Node000013_Node000044"><a xlink:title=" ">
<path fill="none" stroke="#63b8ff" d="M498,-120.75C498,-113.8 498,-103.85 498,-95.13"/>
<polygon fill="#63b8ff" stroke="#63b8ff" points="501.5,-95.09 498,-85.09 494.5,-95.09 501.5,-95.09"/>
</a>
</g>
</g>
<!-- Node44&#45;&gt;Node8 -->
<g id="edge23_Node000044_Node000008" class="edge">
<title>Node44&#45;&gt;Node8</title>
<g id="a_edge23_Node000044_Node000008"><a xlink:title=" ">
<path fill="none" stroke="#63b8ff" d="M554.61,-71.09C691.87,-62.68 1034.94,-40.89 1086,-30 1088.84,-29.4 1091.75,-28.63 1094.64,-27.78"/>
<polygon fill="#63b8ff" stroke="#63b8ff" points="1095.85,-31.07 1104.25,-24.61 1093.66,-24.42 1095.85,-31.07"/>
</a>
</g>
</g>
<!-- Node44&#45;&gt;Node11 -->
<g id="edge24_Node000044_Node000011" class="edge">
<title>Node44&#45;&gt;Node11</title>
<g id="a_edge24_Node000044_Node000011"><a xlink:title=" ">
<path fill="none" stroke="#63b8ff" d="M554.9,-72.17C793.08,-62.42 1706.34,-25.03 1893.4,-17.38"/>
<polygon fill="#63b8ff" stroke="#63b8ff" points="1893.62,-20.87 1903.47,-16.96 1893.33,-13.88 1893.62,-20.87"/>
</a>
</g>
</g>
<!-- Node45 -->
<g id="Node000045" class="node">
<title>Node45</title>
<g id="a_Node000045"><a xlink:title=" ">
<polygon fill="#e0e0e0" stroke="#999999" points="780,-24.5 592,-24.5 592,-5.5 780,-5.5 780,-24.5"/>
<text text-anchor="middle" x="686" y="-12.5" font-family="Helvetica,sans-Serif" font-size="10.00">QtOpenGLWidgets/QOpenGLWidget</text>
</a>
</g>
</g>
<!-- Node44&#45;&gt;Node45 -->
<g id="edge13_Node000044_Node000045" class="edge">
<title>Node44&#45;&gt;Node45</title>
<g id="a_edge13_Node000044_Node000045"><a xlink:title=" ">
<path fill="none" stroke="#63b8ff" d="M525.34,-65.99C557.92,-55.86 612.51,-38.87 648.89,-27.55"/>
<polygon fill="#63b8ff" stroke="#63b8ff" points="650.12,-30.83 658.63,-24.52 648.04,-24.15 650.12,-30.83"/>
</a>
</g>
</g>
<!-- Node19 -->
<g id="Node000019" class="node">
<title>Node19</title>
<g id="a_Node000019"><a xlink:title=" ">
<polygon fill="#e0e0e0" stroke="#999999" points="918,-30 798,-30 798,0 918,0 918,-30"/>
<text text-anchor="start" x="806" y="-18" font-family="Helvetica,sans-Serif" font-size="10.00">QOpenGLFunctions_4</text>
<text text-anchor="middle" x="858" y="-7" font-family="Helvetica,sans-Serif" font-size="10.00">_5_Core</text>
</a>
</g>
</g>
<!-- Node44&#45;&gt;Node19 -->
<g id="edge14_Node000044_Node000019" class="edge">
<title>Node44&#45;&gt;Node19</title>
<g id="a_edge14_Node000044_Node000019"><a xlink:title=" ">
<path fill="none" stroke="#63b8ff" d="M554.74,-66.65C611.3,-58.64 700.91,-45.45 787.79,-30.17"/>
<polygon fill="#63b8ff" stroke="#63b8ff" points="788.59,-33.58 797.82,-28.39 787.36,-26.69 788.59,-33.58"/>
</a>
</g>
</g>
<!-- Node46 -->
<g id="Node000046" class="node">
<title>Node46</title>
<g id="a_Node000046"><a xlink:title=" ">
<polygon fill="#e0e0e0" stroke="#999999" points="1077.5,-24.5 1024.5,-24.5 1024.5,-5.5 1077.5,-5.5 1077.5,-24.5"/>
<text text-anchor="middle" x="1051" y="-12.5" font-family="Helvetica,sans-Serif" font-size="10.00">QTimer</text>
</a>
</g>
</g>
<!-- Node44&#45;&gt;Node46 -->
<g id="edge15_Node000044_Node000046" class="edge">
<title>Node44&#45;&gt;Node46</title>
<g id="a_edge15_Node000044_Node000046"><a xlink:title=" ">
<path fill="none" stroke="#63b8ff" d="M554.83,-71.65C670.32,-65.53 928.79,-50.04 1015,-30 1017.37,-29.45 1019.79,-28.77 1022.2,-28.02"/>
<polygon fill="#63b8ff" stroke="#63b8ff" points="1023.63,-31.23 1031.89,-24.59 1021.3,-24.63 1023.63,-31.23"/>
</a>
</g>
</g>
<!-- Node47 -->
<g id="Node000047" class="node">
<title>Node47</title>
<g id="a_Node000047"><a xlink:title=" ">
<polygon fill="#e0e0e0" stroke="#999999" points="1006,-24.5 936,-24.5 936,-5.5 1006,-5.5 1006,-24.5"/>
<text text-anchor="middle" x="971" y="-12.5" font-family="Helvetica,sans-Serif" font-size="10.00">QKeyEvent</text>
</a>
</g>
</g>
<!-- Node44&#45;&gt;Node47 -->
<g id="edge16_Node000044_Node000047" class="edge">
<title>Node44&#45;&gt;Node47</title>
<g id="a_edge16_Node000044_Node000047"><a xlink:title=" ">
<path fill="none" stroke="#63b8ff" d="M554.78,-72.31C637.45,-68.29 795.43,-57.45 927,-30 930.4,-29.29 933.91,-28.42 937.39,-27.46"/>
<polygon fill="#63b8ff" stroke="#63b8ff" points="938.44,-30.8 947.03,-24.6 936.45,-24.09 938.44,-30.8"/>
</a>
</g>
</g>
<!-- Node48 -->
<g id="Node000048" class="node">
<title>Node48</title>
<g id="a_Node000048"><a xlink:title=" ">
<polygon fill="#e0e0e0" stroke="#999999" points="84,-24.5 0,-24.5 0,-5.5 84,-5.5 84,-24.5"/>
<text text-anchor="middle" x="42" y="-12.5" font-family="Helvetica,sans-Serif" font-size="10.00">QMouseEvent</text>
</a>
</g>
</g>
<!-- Node44&#45;&gt;Node48 -->
<g id="edge17_Node000044_Node000048" class="edge">
<title>Node44&#45;&gt;Node48</title>
<g id="a_edge17_Node000044_Node000048"><a xlink:title=" ">
<path fill="none" stroke="#63b8ff" d="M441.23,-71.11C362.51,-65.77 215.98,-53.48 93,-30 88.62,-29.16 84.07,-28.14 79.56,-27.03"/>
<polygon fill="#63b8ff" stroke="#63b8ff" points="80.43,-23.64 69.87,-24.51 78.67,-30.42 80.43,-23.64"/>
</a>
</g>
</g>
<!-- Node49 -->
<g id="Node000049" class="node">
<title>Node49</title>
<g id="a_Node000049"><a xlink:title=" ">
<polygon fill="#e0e0e0" stroke="#999999" points="185.5,-24.5 102.5,-24.5 102.5,-5.5 185.5,-5.5 185.5,-24.5"/>
<text text-anchor="middle" x="144" y="-12.5" font-family="Helvetica,sans-Serif" font-size="10.00">QWheelEvent</text>
</a>
</g>
</g>
<!-- Node44&#45;&gt;Node49 -->
<g id="edge18_Node000044_Node000049" class="edge">
<title>Node44&#45;&gt;Node49</title>
<g id="a_edge18_Node000044_Node000049"><a xlink:title=" ">
<path fill="none" stroke="#63b8ff" d="M441.23,-68.26C380.08,-61.05 280.08,-47.85 195,-30 190.91,-29.14 186.65,-28.14 182.43,-27.09"/>
<polygon fill="#63b8ff" stroke="#63b8ff" points="183.27,-23.69 172.71,-24.54 181.5,-30.46 183.27,-23.69"/>
</a>
</g>
</g>
<!-- Node50 -->
<g id="Node000050" class="node">
<title>Node50</title>
<g id="a_Node000050"><a xlink:title=" ">
<polygon fill="#e0e0e0" stroke="#999999" points="244,-24.5 204,-24.5 204,-5.5 244,-5.5 244,-24.5"/>
<text text-anchor="middle" x="224" y="-12.5" font-family="Helvetica,sans-Serif" font-size="10.00">QSet</text>
</a>
</g>
</g>
<!-- Node44&#45;&gt;Node50 -->
<g id="edge19_Node000044_Node000050" class="edge">
<title>Node44&#45;&gt;Node50</title>
<g id="a_edge19_Node000044_Node000050"><a xlink:title=" ">
<path fill="none" stroke="#63b8ff" d="M441.48,-68.63C391.12,-62.37 315.89,-50.47 253,-30 251.77,-29.6 250.53,-29.16 249.29,-28.69"/>
<polygon fill="#63b8ff" stroke="#63b8ff" points="250.51,-25.4 239.94,-24.64 247.73,-31.83 250.51,-25.4"/>
</a>
</g>
</g>
<!-- Node51 -->
<g id="Node000051" class="node">
<title>Node51</title>
<g id="a_Node000051"><a xlink:title=" ">
<polygon fill="#e0e0e0" stroke="#999999" points="318,-24.5 262,-24.5 262,-5.5 318,-5.5 318,-24.5"/>
<text text-anchor="middle" x="290" y="-12.5" font-family="Helvetica,sans-Serif" font-size="10.00">QCursor</text>
</a>
</g>
</g>
<!-- Node44&#45;&gt;Node51 -->
<g id="edge20_Node000044_Node000051" class="edge">
<title>Node44&#45;&gt;Node51</title>
<g id="a_edge20_Node000044_Node000051"><a xlink:title=" ">
<path fill="none" stroke="#63b8ff" d="M460.65,-66C425.78,-57.78 372.45,-44.47 327,-30 325.09,-29.39 323.13,-28.74 321.16,-28.06"/>
<polygon fill="#63b8ff" stroke="#63b8ff" points="321.98,-24.64 311.38,-24.54 319.6,-31.22 321.98,-24.64"/>
</a>
</g>
</g>
<!-- Node52 -->
<g id="Node000052" class="node">
<title>Node52</title>
<g id="a_Node000052"><a xlink:title=" ">
<polygon fill="#e0e0e0" stroke="#999999" points="416,-24.5 336,-24.5 336,-5.5 416,-5.5 416,-24.5"/>
<text text-anchor="middle" x="376" y="-12.5" font-family="Helvetica,sans-Serif" font-size="10.00">QPushButton</text>
</a>
</g>
</g>
<!-- Node44&#45;&gt;Node52 -->
<g id="edge21_Node000044_Node000052" class="edge">
<title>Node44&#45;&gt;Node52</title>
<g id="a_edge21_Node000044_Node000052"><a xlink:title=" ">
<path fill="none" stroke="#63b8ff" d="M480.26,-65.99C459.93,-56.25 426.39,-40.16 402.86,-28.88"/>
<polygon fill="#63b8ff" stroke="#63b8ff" points="404.29,-25.68 393.76,-24.52 401.26,-32 404.29,-25.68"/>
</a>
</g>
</g>
<!-- Node53 -->
<g id="Node000053" class="node">
<title>Node53</title>
<g id="a_Node000053"><a xlink:title=" ">
<polygon fill="#e0e0e0" stroke="#999999" points="484,-24.5 434,-24.5 434,-5.5 484,-5.5 484,-24.5"/>
<text text-anchor="middle" x="459" y="-12.5" font-family="Helvetica,sans-Serif" font-size="10.00">chrono</text>
</a>
</g>
</g>
<!-- Node44&#45;&gt;Node53 -->
<g id="edge22_Node000044_Node000053" class="edge">
<title>Node44&#45;&gt;Node53</title>
<g id="a_edge22_Node000044_Node000053"><a xlink:title=" ">
<path fill="none" stroke="#63b8ff" d="M492.25,-65.87C486.54,-57.31 477.65,-43.97 470.49,-33.24"/>
<polygon fill="#63b8ff" stroke="#63b8ff" points="473.24,-31.05 464.78,-24.67 467.41,-34.93 473.24,-31.05"/>
</a>
</g>
</g>
<!-- Node24 -->
<g id="Node000024" class="node">
<title>Node24</title>
<g id="a_Node000024"><a xlink:href="Ray_8h.html" target="_top" xlink:title=" ">
<polygon fill="#fff0f0" stroke="red" points="573.5,-24.5 502.5,-24.5 502.5,-5.5 573.5,-5.5 573.5,-24.5"/>
<text text-anchor="middle" x="538" y="-12.5" font-family="Helvetica,sans-Serif" font-size="10.00">math/Ray.h</text>
</a>
</g>
</g>
<!-- Node44&#45;&gt;Node24 -->
<g id="edge25_Node000044_Node000024" class="edge">
<title>Node44&#45;&gt;Node24</title>
<g id="a_edge25_Node000044_Node000024"><a xlink:title=" ">
<path fill="none" stroke="#63b8ff" d="M503.9,-65.87C509.75,-57.31 518.87,-43.97 526.21,-33.24"/>
<polygon fill="#63b8ff" stroke="#63b8ff" points="529.32,-34.9 532.07,-24.67 523.54,-30.95 529.32,-34.9"/>
</a>
</g>
</g>
<!-- Node88&#45;&gt;Node4 -->
<g id="edge45_Node000088_Node000004" class="edge">
<title>Node88&#45;&gt;Node4</title>
<g id="a_edge45_Node000088_Node000004"><a xlink:title=" ">
<path fill="none" stroke="#63b8ff" d="M378.62,-236.37C389.9,-227.21 407.92,-212.56 421.53,-201.51"/>
<polygon fill="#63b8ff" stroke="#63b8ff" points="423.78,-204.19 429.33,-195.17 419.36,-198.76 423.78,-204.19"/>
</a>
</g>
</g>
<!-- Node88&#45;&gt;Node6 -->
<g id="edge44_Node000088_Node000006" class="edge">
<title>Node88&#45;&gt;Node6</title>
<g id="a_edge44_Node000088_Node000006"><a xlink:title=" ">
<path fill="none" stroke="#63b8ff" d="M365.79,-236.37C363.68,-228.16 360.45,-215.54 357.76,-205.05"/>
<polygon fill="#63b8ff" stroke="#63b8ff" points="361.1,-203.98 355.22,-195.17 354.32,-205.72 361.1,-203.98"/>
</a>
</g>
</g>
<!-- Node89 -->
<g id="Node000089" class="node">
<title>Node89</title>
<g id="a_Node000089"><a xlink:href="SceneObject_8h.html" target="_top" xlink:title=" ">
<polygon fill="#fff0f0" stroke="red" points="295.5,-195 140.5,-195 140.5,-176 295.5,-176 295.5,-195"/>
<text text-anchor="middle" x="218" y="-183" font-family="Helvetica,sans-Serif" font-size="10.00">graphics/core/SceneObject.h</text>
</a>
</g>
</g>
<!-- Node88&#45;&gt;Node89 -->
<g id="edge46_Node000088_Node000089" class="edge">
<title>Node88&#45;&gt;Node89</title>
<g id="a_edge46_Node000088_Node000089"><a xlink:title=" ">
<path fill="none" stroke="#63b8ff" d="M346.19,-236.49C320.75,-226.57 278.49,-210.09 249.49,-198.78"/>
<polygon fill="#63b8ff" stroke="#63b8ff" points="250.43,-195.39 239.84,-195.02 247.88,-201.91 250.43,-195.39"/>
</a>
</g>
</g>
<!-- Node89&#45;&gt;Node13 -->
<g id="edge47_Node000089_Node000013" class="edge">
<title>Node89&#45;&gt;Node13</title>
<g id="a_edge47_Node000089_Node000013"><a xlink:title=" ">
<path fill="none" stroke="#63b8ff" d="M262.99,-175.98C311.93,-166.72 390.2,-151.9 442.82,-141.94"/>
<polygon fill="#63b8ff" stroke="#63b8ff" points="443.49,-145.38 452.66,-140.08 442.18,-138.5 443.49,-145.38"/>
</a>
</g>
</g>
<!-- Node91&#45;&gt;Node8 -->
<g id="edge51_Node000091_Node000008" class="edge">
<title>Node91&#45;&gt;Node8</title>
<g id="a_edge51_Node000091_Node000008"><a xlink:title=" ">
<path fill="none" stroke="#63b8ff" d="M1960.21,-236.47C1927.24,-222.49 1858.78,-194.4 1799,-176 1561.75,-102.96 1268.91,-43.69 1164.37,-23.46"/>
<polygon fill="#63b8ff" stroke="#63b8ff" points="1164.75,-19.97 1154.27,-21.52 1163.43,-26.85 1164.75,-19.97"/>
</a>
</g>
</g>
<!-- Node91&#45;&gt;Node11 -->
<g id="edge52_Node000091_Node000011" class="edge">
<title>Node91&#45;&gt;Node11</title>
<g id="a_edge52_Node000091_Node000011"><a xlink:title=" ">
<path fill="none" stroke="#63b8ff" d="M1982.13,-236.32C1988.26,-209.59 2003.85,-126.6 1978,-66 1971.95,-51.82 1959.75,-39.62 1948.8,-30.83"/>
<polygon fill="#63b8ff" stroke="#63b8ff" points="1950.88,-28.01 1940.79,-24.78 1946.67,-33.6 1950.88,-28.01"/>
</a>
</g>
</g>
<!-- Node91&#45;&gt;Node78 -->
<g id="edge50_Node000091_Node000078" class="edge">
<title>Node91&#45;&gt;Node78</title>
<g id="a_edge50_Node000091_Node000078"><a xlink:title=" ">
<path fill="none" stroke="#63b8ff" d="M1993.87,-236.37C2009,-226.95 2033.46,-211.73 2051.38,-200.58"/>
<polygon fill="#63b8ff" stroke="#63b8ff" points="2053.43,-203.42 2060.07,-195.17 2049.73,-197.48 2053.43,-203.42"/>
</a>
</g>
</g>
<!-- Node92 -->
<g id="Node000092" class="node">
<title>Node92</title>
<g id="a_Node000092"><a xlink:title=" ">
<polygon fill="#e0e0e0" stroke="#999999" points="1790.5,-195 1731.5,-195 1731.5,-176 1790.5,-176 1790.5,-195"/>
<text text-anchor="middle" x="1761" y="-183" font-family="Helvetica,sans-Serif" font-size="10.00">QWidget</text>
</a>
</g>
</g>
<!-- Node91&#45;&gt;Node92 -->
<g id="edge49_Node000091_Node000092" class="edge">
<title>Node91&#45;&gt;Node92</title>
<g id="a_edge49_Node000091_Node000092"><a xlink:title=" ">
<path fill="none" stroke="#63b8ff" d="M1948.16,-236.49C1909.06,-226.05 1842.75,-208.34 1800.46,-197.04"/>
<polygon fill="#63b8ff" stroke="#63b8ff" points="1801.34,-193.65 1790.77,-194.45 1799.53,-200.42 1801.34,-193.65"/>
</a>
</g>
</g>
<!-- Node97&#45;&gt;Node46 -->
<g id="edge55_Node000097_Node000046" class="edge">
<title>Node97&#45;&gt;Node46</title>
<g id="a_edge55_Node000097_Node000046"><a xlink:title=" ">
<path fill="none" stroke="#63b8ff" d="M1789.96,-236.4C1751.95,-222.91 1675.56,-196.22 1610,-176 1379.39,-104.87 1315.96,-106.27 1087,-30 1085.34,-29.45 1083.64,-28.86 1081.93,-28.25"/>
<polygon fill="#63b8ff" stroke="#63b8ff" points="1082.79,-24.84 1072.19,-24.64 1080.35,-31.4 1082.79,-24.84"/>
</a>
</g>
</g>
<!-- Node97&#45;&gt;Node86 -->
<g id="edge56_Node000097_Node000086" class="edge">
<title>Node97&#45;&gt;Node86</title>
<g id="a_edge56_Node000097_Node000086"><a xlink:title=" ">
<path fill="none" stroke="#63b8ff" d="M1777.07,-236.49C1732.11,-226.14 1656.12,-208.64 1607.03,-197.33"/>
<polygon fill="#63b8ff" stroke="#63b8ff" points="1607.51,-193.85 1596.98,-195.02 1605.94,-200.67 1607.51,-193.85"/>
</a>
</g>
</g>
<!-- Node97&#45;&gt;Node92 -->
<g id="edge54_Node000097_Node000092" class="edge">
<title>Node97&#45;&gt;Node92</title>
<g id="a_edge54_Node000097_Node000092"><a xlink:title=" ">
<path fill="none" stroke="#63b8ff" d="M1806.18,-236.37C1798.19,-227.55 1785.61,-213.66 1775.74,-202.77"/>
<polygon fill="#63b8ff" stroke="#63b8ff" points="1778.16,-200.23 1768.85,-195.17 1772.97,-204.93 1778.16,-200.23"/>
</a>
</g>
</g>
<!-- Node101&#45;&gt;Node8 -->
<g id="edge60_Node000101_Node000008" class="edge">
<title>Node101&#45;&gt;Node8</title>
<g id="a_edge60_Node000101_Node000008"><a xlink:title=" ">
<path fill="none" stroke="#63b8ff" d="M1884.9,-70.52C1868.69,-69.03 1849.99,-67.37 1833,-66 1578.03,-45.47 1271.03,-25.36 1164.03,-18.49"/>
<polygon fill="#63b8ff" stroke="#63b8ff" points="1164.22,-14.99 1154.01,-17.84 1163.77,-21.98 1164.22,-14.99"/>
</a>
</g>
</g>
<!-- Node101&#45;&gt;Node11 -->
<g id="edge59_Node000101_Node000011" class="edge">
<title>Node101&#45;&gt;Node11</title>
<g id="a_edge59_Node000101_Node000011"><a xlink:title=" ">
<path fill="none" stroke="#63b8ff" d="M1927,-65.87C1927,-57.75 1927,-45.31 1927,-34.89"/>
<polygon fill="#63b8ff" stroke="#63b8ff" points="1930.5,-34.67 1927,-24.67 1923.5,-34.67 1930.5,-34.67"/>
</a>
</g>
</g>
<!-- Node107&#45;&gt;Node28 -->
<g id="edge64_Node000107_Node000028" class="edge">
<title>Node107&#45;&gt;Node28</title>
<g id="a_edge64_Node000107_Node000028"><a xlink:title=" ">
<path fill="none" stroke="#63b8ff" d="M2731.42,-230.99C2708.94,-221.31 2679.28,-208.56 2657.49,-199.18"/>
<polygon fill="#63b8ff" stroke="#63b8ff" points="2658.65,-195.88 2648.08,-195.14 2655.89,-202.31 2658.65,-195.88"/>
</a>
</g>
</g>
<!-- Node109&#45;&gt;Node11 -->
<g id="edge67_Node000109_Node000011" class="edge">
<title>Node109&#45;&gt;Node11</title>
<g id="a_edge67_Node000109_Node000011"><a xlink:title=" ">
<path fill="none" stroke="#63b8ff" d="M2297.86,-120.97C2224.47,-100.2 2036.93,-47.11 1960.34,-25.44"/>
<polygon fill="#63b8ff" stroke="#63b8ff" points="1961.29,-22.07 1950.71,-22.71 1959.38,-28.8 1961.29,-22.07"/>
</a>
</g>
</g>
</g>
</svg>
