<?xml version="1.0" encoding="UTF-8" standalone="no"?>
<!DOCTYPE svg PUBLIC "-//W3C//DTD SVG 1.1//EN"
 "http://www.w3.org/Graphics/SVG/1.1/DTD/svg11.dtd">
<!-- Generated by graphviz version 2.43.0 (0)
 -->
<!-- Title: src/ui/MainWindow.cpp Pages: 1 -->
<svg width="1971pt" height="434pt"
 viewBox="0.00 0.00 1970.50 434.00" xmlns="http://www.w3.org/2000/svg" xmlns:xlink="http://www.w3.org/1999/xlink">
<g id="graph0" class="graph" transform="scale(1 1) rotate(0) translate(4 430)">
<title>src/ui/MainWindow.cpp</title>
<!-- Node1 -->
<g id="Node000001" class="node">
<title>Node1</title>
<g id="a_Node000001"><a xlink:title=" ">
<polygon fill="#999999" stroke="#666666" points="1508,-426 1380,-426 1380,-407 1508,-407 1508,-426"/>
<text text-anchor="middle" x="1444" y="-414" font-family="Helvetica,sans-Serif" font-size="10.00">src/ui/MainWindow.cpp</text>
</a>
</g>
</g>
<!-- Node2 -->
<g id="Node000002" class="node">
<title>Node2</title>
<g id="a_Node000002"><a xlink:href="MainWindow_8h.html" target="_top" xlink:title=" ">
<polygon fill="white" stroke="#666666" points="867,-371 779,-371 779,-352 867,-352 867,-371"/>
<text text-anchor="middle" x="823" y="-359" font-family="Helvetica,sans-Serif" font-size="10.00">MainWindow.h</text>
</a>
</g>
</g>
<!-- Node1&#45;&gt;Node2 -->
<g id="edge1_Node000001_Node000002" class="edge">
<title>Node1&#45;&gt;Node2</title>
<g id="a_edge1_Node000001_Node000002"><a xlink:title=" ">
<path fill="none" stroke="#63b8ff" d="M1379.88,-410.03C1257.42,-399.58 992.27,-376.95 877.63,-367.16"/>
<polygon fill="#63b8ff" stroke="#63b8ff" points="877.6,-363.65 867.34,-366.28 877.01,-370.62 877.6,-363.65"/>
</a>
</g>
</g>
<!-- Node40 -->
<g id="Node000040" class="node">
<title>Node40</title>
<g id="a_Node000040"><a xlink:href="OpenGLWindow_8h.html" target="_top" xlink:title=" ">
<polygon fill="white" stroke="#666666" points="1187.5,-200.5 1074.5,-200.5 1074.5,-181.5 1187.5,-181.5 1187.5,-200.5"/>
<text text-anchor="middle" x="1131" y="-188.5" font-family="Helvetica,sans-Serif" font-size="10.00">ui/OpenGLWindow.h</text>
</a>
</g>
</g>
<!-- Node1&#45;&gt;Node40 -->
<g id="edge45_Node000001_Node000040" class="edge">
<title>Node1&#45;&gt;Node40</title>
<g id="a_edge45_Node000001_Node000040"><a xlink:title=" ">
<path fill="none" stroke="#63b8ff" d="M1379.73,-409.07C1316.9,-401.88 1226.41,-388.87 1196,-371 1139.94,-338.06 1131.65,-250.1 1130.82,-211.09"/>
<polygon fill="#63b8ff" stroke="#63b8ff" points="1134.32,-210.64 1130.76,-200.67 1127.32,-210.69 1134.32,-210.64"/>
</a>
</g>
</g>
<!-- Node63 -->
<g id="Node000063" class="node">
<title>Node63</title>
<g id="a_Node000063"><a xlink:title=" ">
<polygon fill="#e0e0e0" stroke="#999999" points="1474,-371 1414,-371 1414,-352 1474,-352 1474,-371"/>
<text text-anchor="middle" x="1444" y="-359" font-family="Helvetica,sans-Serif" font-size="10.00">iostream</text>
</a>
</g>
</g>
<!-- Node1&#45;&gt;Node63 -->
<g id="edge44_Node000001_Node000063" class="edge">
<title>Node1&#45;&gt;Node63</title>
<g id="a_edge44_Node000001_Node000063"><a xlink:title=" ">
<path fill="none" stroke="#63b8ff" d="M1444,-406.75C1444,-399.8 1444,-389.85 1444,-381.13"/>
<polygon fill="#63b8ff" stroke="#63b8ff" points="1447.5,-381.09 1444,-371.09 1440.5,-381.09 1447.5,-381.09"/>
</a>
</g>
</g>
<!-- Node64 -->
<g id="Node000064" class="node">
<title>Node64</title>
<g id="a_Node000064"><a xlink:title=" ">
<polygon fill="#e0e0e0" stroke="#999999" points="1575.5,-371 1492.5,-371 1492.5,-352 1575.5,-352 1575.5,-371"/>
<text text-anchor="middle" x="1534" y="-359" font-family="Helvetica,sans-Serif" font-size="10.00">QDockWidget</text>
</a>
</g>
</g>
<!-- Node1&#45;&gt;Node64 -->
<g id="edge46_Node000001_Node000064" class="edge">
<title>Node1&#45;&gt;Node64</title>
<g id="a_edge46_Node000001_Node000064"><a xlink:title=" ">
<path fill="none" stroke="#63b8ff" d="M1458.46,-406.98C1472.42,-398.77 1493.79,-386.18 1510.25,-376.49"/>
<polygon fill="#63b8ff" stroke="#63b8ff" points="1512.44,-379.26 1519.28,-371.17 1508.88,-373.23 1512.44,-379.26"/>
</a>
</g>
</g>
<!-- Node65 -->
<g id="Node000065" class="node">
<title>Node65</title>
<g id="a_Node000065"><a xlink:title=" ">
<polygon fill="#e0e0e0" stroke="#999999" points="1664.5,-371 1593.5,-371 1593.5,-352 1664.5,-352 1664.5,-371"/>
<text text-anchor="middle" x="1629" y="-359" font-family="Helvetica,sans-Serif" font-size="10.00">QStatusBar</text>
</a>
</g>
</g>
<!-- Node1&#45;&gt;Node65 -->
<g id="edge47_Node000001_Node000065" class="edge">
<title>Node1&#45;&gt;Node65</title>
<g id="a_edge47_Node000001_Node000065"><a xlink:title=" ">
<path fill="none" stroke="#63b8ff" d="M1473.72,-406.98C1505.05,-398.01 1554.57,-383.82 1589.24,-373.89"/>
<polygon fill="#63b8ff" stroke="#63b8ff" points="1590.39,-377.2 1599.04,-371.08 1588.47,-370.47 1590.39,-377.2"/>
</a>
</g>
</g>
<!-- Node66 -->
<g id="Node000066" class="node">
<title>Node66</title>
<g id="a_Node000066"><a xlink:title=" ">
<polygon fill="#e0e0e0" stroke="#999999" points="1745.5,-371 1682.5,-371 1682.5,-352 1745.5,-352 1745.5,-371"/>
<text text-anchor="middle" x="1714" y="-359" font-family="Helvetica,sans-Serif" font-size="10.00">QLineEdit</text>
</a>
</g>
</g>
<!-- Node1&#45;&gt;Node66 -->
<g id="edge48_Node000001_Node000066" class="edge">
<title>Node1&#45;&gt;Node66</title>
<g id="a_edge48_Node000001_Node000066"><a xlink:title=" ">
<path fill="none" stroke="#63b8ff" d="M1489.43,-406.96C1533.69,-398.59 1603.14,-385.3 1671.98,-371.38"/>
<polygon fill="#63b8ff" stroke="#63b8ff" points="1673.03,-374.74 1682.13,-369.33 1671.64,-367.88 1673.03,-374.74"/>
</a>
</g>
</g>
<!-- Node67 -->
<g id="Node000067" class="node">
<title>Node67</title>
<g id="a_Node000067"><a xlink:title=" ">
<polygon fill="#e0e0e0" stroke="#999999" points="1838,-371 1764,-371 1764,-352 1838,-352 1838,-371"/>
<text text-anchor="middle" x="1801" y="-359" font-family="Helvetica,sans-Serif" font-size="10.00">QScrollArea</text>
</a>
</g>
</g>
<!-- Node1&#45;&gt;Node67 -->
<g id="edge49_Node000001_Node000067" class="edge">
<title>Node1&#45;&gt;Node67</title>
<g id="a_edge49_Node000001_Node000067"><a xlink:title=" ">
<path fill="none" stroke="#63b8ff" d="M1508.15,-407.1C1568.9,-398.96 1662.93,-385.91 1753.93,-371.12"/>
<polygon fill="#63b8ff" stroke="#63b8ff" points="1754.56,-374.56 1763.87,-369.5 1753.43,-367.65 1754.56,-374.56"/>
</a>
</g>
</g>
<!-- Node68 -->
<g id="Node000068" class="node">
<title>Node68</title>
<g id="a_Node000068"><a xlink:title=" ">
<polygon fill="#e0e0e0" stroke="#999999" points="1924,-371 1856,-371 1856,-352 1924,-352 1924,-371"/>
<text text-anchor="middle" x="1890" y="-359" font-family="Helvetica,sans-Serif" font-size="10.00">QMenuBar</text>
</a>
</g>
</g>
<!-- Node1&#45;&gt;Node68 -->
<g id="edge50_Node000001_Node000068" class="edge">
<title>Node1&#45;&gt;Node68</title>
<g id="a_edge50_Node000001_Node000068"><a xlink:title=" ">
<path fill="none" stroke="#63b8ff" d="M1508.09,-410.12C1585.68,-403.23 1720.51,-390.04 1845.64,-371.09"/>
<polygon fill="#63b8ff" stroke="#63b8ff" points="1846.42,-374.51 1855.78,-369.54 1845.36,-367.59 1846.42,-374.51"/>
</a>
</g>
</g>
<!-- Node69 -->
<g id="Node000069" class="node">
<title>Node69</title>
<g id="a_Node000069"><a xlink:href="HierarchyWidget_8h.html" target="_top" xlink:title=" ">
<polygon fill="white" stroke="#666666" points="659.5,-371 552.5,-371 552.5,-352 659.5,-352 659.5,-371"/>
<text text-anchor="middle" x="606" y="-359" font-family="Helvetica,sans-Serif" font-size="10.00">HierarchyWidget.h</text>
</a>
</g>
</g>
<!-- Node1&#45;&gt;Node69 -->
<g id="edge51_Node000001_Node000069" class="edge">
<title>Node1&#45;&gt;Node69</title>
<g id="a_edge51_Node000001_Node000069"><a xlink:title=" ">
<path fill="none" stroke="#63b8ff" d="M1379.98,-411.45C1224.02,-401.59 825.79,-376.4 669.93,-366.54"/>
<polygon fill="#63b8ff" stroke="#63b8ff" points="669.77,-363.03 659.57,-365.89 669.33,-370.01 669.77,-363.03"/>
</a>
</g>
</g>
<!-- Node72 -->
<g id="Node000072" class="node">
<title>Node72</title>
<g id="a_Node000072"><a xlink:href="InspectorWidget_8h.html" target="_top" xlink:title=" ">
<polygon fill="white" stroke="#666666" points="1357.5,-371 1204.5,-371 1204.5,-352 1357.5,-352 1357.5,-371"/>
<text text-anchor="middle" x="1281" y="-359" font-family="Helvetica,sans-Serif" font-size="10.00">inspector/InspectorWidget.h</text>
</a>
</g>
</g>
<!-- Node1&#45;&gt;Node72 -->
<g id="edge60_Node000001_Node000072" class="edge">
<title>Node1&#45;&gt;Node72</title>
<g id="a_edge60_Node000001_Node000072"><a xlink:title=" ">
<path fill="none" stroke="#63b8ff" d="M1417.81,-406.98C1390.56,-398.13 1347.7,-384.19 1317.22,-374.28"/>
<polygon fill="#63b8ff" stroke="#63b8ff" points="1317.99,-370.85 1307.39,-371.08 1315.82,-377.5 1317.99,-370.85"/>
</a>
</g>
</g>
<!-- Node75 -->
<g id="Node000075" class="node">
<title>Node75</title>
<g id="a_Node000075"><a xlink:href="SolverDialog_8h.html" target="_top" xlink:title=" ">
<polygon fill="white" stroke="#666666" points="1838,-200.5 1750,-200.5 1750,-181.5 1838,-181.5 1838,-200.5"/>
<text text-anchor="middle" x="1794" y="-188.5" font-family="Helvetica,sans-Serif" font-size="10.00">SolverDialog.h</text>
</a>
</g>
</g>
<!-- Node1&#45;&gt;Node75 -->
<g id="edge64_Node000001_Node000075" class="edge">
<title>Node1&#45;&gt;Node75</title>
<g id="a_edge64_Node000001_Node000075"><a xlink:title=" ">
<path fill="none" stroke="#63b8ff" d="M1432.04,-406.94C1416.31,-394.62 1392.11,-371.24 1405,-352 1426.03,-320.61 1667.37,-235.38 1759,-203.9"/>
<polygon fill="#63b8ff" stroke="#63b8ff" points="1760.33,-207.14 1768.65,-200.59 1758.06,-200.52 1760.33,-207.14"/>
</a>
</g>
</g>
<!-- Node3 -->
<g id="Node000003" class="node">
<title>Node3</title>
<g id="a_Node000003"><a xlink:title=" ">
<polygon fill="#e0e0e0" stroke="#999999" points="973.5,-316 886.5,-316 886.5,-297 973.5,-297 973.5,-316"/>
<text text-anchor="middle" x="930" y="-304" font-family="Helvetica,sans-Serif" font-size="10.00">QMainWindow</text>
</a>
</g>
</g>
<!-- Node2&#45;&gt;Node3 -->
<g id="edge2_Node000002_Node000003" class="edge">
<title>Node2&#45;&gt;Node3</title>
<g id="a_edge2_Node000002_Node000003"><a xlink:title=" ">
<path fill="none" stroke="#63b8ff" d="M840.19,-351.98C857.25,-343.54 883.63,-330.47 903.4,-320.68"/>
<polygon fill="#63b8ff" stroke="#63b8ff" points="905.09,-323.75 912.5,-316.17 901.98,-317.47 905.09,-323.75"/>
</a>
</g>
</g>
<!-- Node4 -->
<g id="Node000004" class="node">
<title>Node4</title>
<g id="a_Node000004"><a xlink:title=" ">
<polygon fill="#e0e0e0" stroke="#999999" points="592,-316 532,-316 532,-297 592,-297 592,-316"/>
<text text-anchor="middle" x="562" y="-304" font-family="Helvetica,sans-Serif" font-size="10.00">QToolBar</text>
</a>
</g>
</g>
<!-- Node2&#45;&gt;Node4 -->
<g id="edge3_Node000002_Node000004" class="edge">
<title>Node2&#45;&gt;Node4</title>
<g id="a_edge3_Node000002_Node000004"><a xlink:title=" ">
<path fill="none" stroke="#63b8ff" d="M779.15,-351.94C736.44,-343.54 669.41,-330.24 602.15,-316.21"/>
<polygon fill="#63b8ff" stroke="#63b8ff" points="602.73,-312.76 592.22,-314.14 601.3,-319.61 602.73,-312.76"/>
</a>
</g>
</g>
<!-- Node5 -->
<g id="Node000005" class="node">
<title>Node5</title>
<g id="a_Node000005"><a xlink:title=" ">
<polygon fill="#e0e0e0" stroke="#999999" points="1042,-316 992,-316 992,-297 1042,-297 1042,-316"/>
<text text-anchor="middle" x="1017" y="-304" font-family="Helvetica,sans-Serif" font-size="10.00">QLabel</text>
</a>
</g>
</g>
<!-- Node2&#45;&gt;Node5 -->
<g id="edge4_Node000002_Node000005" class="edge">
<title>Node2&#45;&gt;Node5</title>
<g id="a_edge4_Node000002_Node000005"><a xlink:title=" ">
<path fill="none" stroke="#63b8ff" d="M854.17,-351.98C889.12,-342.44 945.66,-326.99 982.08,-317.04"/>
<polygon fill="#63b8ff" stroke="#63b8ff" points="983.06,-320.4 991.78,-314.39 981.21,-313.65 983.06,-320.4"/>
</a>
</g>
</g>
<!-- Node6 -->
<g id="Node000006" class="node">
<title>Node6</title>
<g id="a_Node000006"><a xlink:title=" ">
<polygon fill="#e0e0e0" stroke="#999999" points="689.5,-316 610.5,-316 610.5,-297 689.5,-297 689.5,-316"/>
<text text-anchor="middle" x="650" y="-304" font-family="Helvetica,sans-Serif" font-size="10.00">QTreeWidget</text>
</a>
</g>
</g>
<!-- Node2&#45;&gt;Node6 -->
<g id="edge5_Node000002_Node000006" class="edge">
<title>Node2&#45;&gt;Node6</title>
<g id="a_edge5_Node000002_Node000006"><a xlink:title=" ">
<path fill="none" stroke="#63b8ff" d="M795.2,-351.98C766.03,-343.05 720,-328.94 687.6,-319.02"/>
<polygon fill="#63b8ff" stroke="#63b8ff" points="688.6,-315.66 678.01,-316.08 686.55,-322.36 688.6,-315.66"/>
</a>
</g>
</g>
<!-- Node7 -->
<g id="Node000007" class="node">
<title>Node7</title>
<g id="a_Node000007"><a xlink:title=" ">
<polygon fill="#e0e0e0" stroke="#999999" points="830,-316 746,-316 746,-297 830,-297 830,-316"/>
<text text-anchor="middle" x="788" y="-304" font-family="Helvetica,sans-Serif" font-size="10.00">QTableWidget</text>
</a>
</g>
</g>
<!-- Node2&#45;&gt;Node7 -->
<g id="edge6_Node000002_Node000007" class="edge">
<title>Node2&#45;&gt;Node7</title>
<g id="a_edge6_Node000002_Node000007"><a xlink:title=" ">
<path fill="none" stroke="#63b8ff" d="M817.22,-351.75C812.38,-344.42 805.32,-333.73 799.36,-324.7"/>
<polygon fill="#63b8ff" stroke="#63b8ff" points="802.1,-322.5 793.67,-316.09 796.26,-326.36 802.1,-322.5"/>
</a>
</g>
</g>
<!-- Node8 -->
<g id="Node000008" class="node">
<title>Node8</title>
<g id="a_Node000008"><a xlink:href="SnapshotTableModel_8h.html" target="_top" xlink:title=" ">
<polygon fill="white" stroke="#666666" points="845,-134.5 719,-134.5 719,-115.5 845,-115.5 845,-134.5"/>
<text text-anchor="middle" x="782" y="-122.5" font-family="Helvetica,sans-Serif" font-size="10.00">SnapshotTableModel.h</text>
</a>
</g>
</g>
<!-- Node2&#45;&gt;Node8 -->
<g id="edge7_Node000002_Node000008" class="edge">
<title>Node2&#45;&gt;Node8</title>
<g id="a_edge7_Node000002_Node000008"><a xlink:title=" ">
<path fill="none" stroke="#63b8ff" d="M827.11,-351.88C831.06,-343.09 836.74,-328.94 839,-316 840.45,-307.68 840.35,-305.34 839,-297 829.63,-239.25 803.54,-174.65 790.16,-144"/>
<polygon fill="#63b8ff" stroke="#63b8ff" points="793.26,-142.36 786,-134.65 786.86,-145.21 793.26,-142.36"/>
</a>
</g>
</g>
<!-- Node12 -->
<g id="Node000012" class="node">
<title>Node12</title>
<g id="a_Node000012"><a xlink:href="SceneManager_8h.html" target="_top" xlink:title=" ">
<polygon fill="white" stroke="#666666" points="800.5,-261 635.5,-261 635.5,-242 800.5,-242 800.5,-261"/>
<text text-anchor="middle" x="718" y="-249" font-family="Helvetica,sans-Serif" font-size="10.00">graphics/core/SceneManager.h</text>
</a>
</g>
</g>
<!-- Node2&#45;&gt;Node12 -->
<g id="edge11_Node000002_Node000012" class="edge">
<title>Node2&#45;&gt;Node12</title>
<g id="a_edge11_Node000002_Node000012"><a xlink:title=" ">
<path fill="none" stroke="#63b8ff" d="M793.64,-351.94C774.95,-345.06 751.59,-333.6 737,-316 726.56,-303.4 721.86,-285.21 719.74,-271.52"/>
<polygon fill="#63b8ff" stroke="#63b8ff" points="723.18,-270.81 718.5,-261.31 716.23,-271.66 723.18,-270.81"/>
</a>
</g>
</g>
<!-- Node9 -->
<g id="Node000009" class="node">
<title>Node9</title>
<g id="a_Node000009"><a xlink:title=" ">
<polygon fill="#e0e0e0" stroke="#999999" points="940,-74 820,-74 820,-55 940,-55 940,-74"/>
<text text-anchor="middle" x="880" y="-62" font-family="Helvetica,sans-Serif" font-size="10.00">QAbstractTableModel</text>
</a>
</g>
</g>
<!-- Node8&#45;&gt;Node9 -->
<g id="edge8_Node000008_Node000009" class="edge">
<title>Node8&#45;&gt;Node9</title>
<g id="a_edge8_Node000008_Node000009"><a xlink:title=" ">
<path fill="none" stroke="#63b8ff" d="M796.46,-115.37C812.31,-105.91 837.97,-90.59 856.68,-79.42"/>
<polygon fill="#63b8ff" stroke="#63b8ff" points="858.69,-82.3 865.48,-74.17 855.1,-76.29 858.69,-82.3"/>
</a>
</g>
</g>
<!-- Node10 -->
<g id="Node000010" class="node">
<title>Node10</title>
<g id="a_Node000010"><a xlink:title=" ">
<polygon fill="#e0e0e0" stroke="#999999" points="643.5,-74 596.5,-74 596.5,-55 643.5,-55 643.5,-74"/>
<text text-anchor="middle" x="620" y="-62" font-family="Helvetica,sans-Serif" font-size="10.00">vector</text>
</a>
</g>
</g>
<!-- Node8&#45;&gt;Node10 -->
<g id="edge9_Node000008_Node000010" class="edge">
<title>Node8&#45;&gt;Node10</title>
<g id="a_edge9_Node000008_Node000010"><a xlink:title=" ">
<path fill="none" stroke="#63b8ff" d="M758.44,-115.49C730.73,-105.49 684.53,-88.8 653.19,-77.49"/>
<polygon fill="#63b8ff" stroke="#63b8ff" points="654.18,-74.12 643.58,-74.02 651.8,-80.71 654.18,-74.12"/>
</a>
</g>
</g>
<!-- Node11 -->
<g id="Node000011" class="node">
<title>Node11</title>
<g id="a_Node000011"><a xlink:title=" ">
<polygon fill="#e0e0e0" stroke="#999999" points="566,-19 488,-19 488,0 566,0 566,-19"/>
<text text-anchor="middle" x="527" y="-7" font-family="Helvetica,sans-Serif" font-size="10.00">glm/glm.hpp</text>
</a>
</g>
</g>
<!-- Node8&#45;&gt;Node11 -->
<g id="edge10_Node000008_Node000011" class="edge">
<title>Node8&#45;&gt;Node11</title>
<g id="a_edge10_Node000008_Node000011"><a xlink:title=" ">
<path fill="none" stroke="#63b8ff" d="M783.75,-115.46C786.17,-100.95 788.66,-71.45 773,-55 746.67,-27.34 640.32,-16.68 576.39,-12.72"/>
<polygon fill="#63b8ff" stroke="#63b8ff" points="576.32,-9.21 566.13,-12.12 575.91,-16.2 576.32,-9.21"/>
</a>
</g>
</g>
<!-- Node13 -->
<g id="Node000013" class="node">
<title>Node13</title>
<g id="a_Node000013"><a xlink:title=" ">
<polygon fill="#e0e0e0" stroke="#999999" points="762,-200.5 706,-200.5 706,-181.5 762,-181.5 762,-200.5"/>
<text text-anchor="middle" x="734" y="-188.5" font-family="Helvetica,sans-Serif" font-size="10.00">QObject</text>
</a>
</g>
</g>
<!-- Node12&#45;&gt;Node13 -->
<g id="edge12_Node000012_Node000013" class="edge">
<title>Node12&#45;&gt;Node13</title>
<g id="a_edge12_Node000012_Node000013"><a xlink:title=" ">
<path fill="none" stroke="#63b8ff" d="M720.36,-241.87C722.61,-233.66 726.06,-221.04 728.93,-210.55"/>
<polygon fill="#63b8ff" stroke="#63b8ff" points="732.37,-211.24 731.63,-200.67 725.62,-209.39 732.37,-211.24"/>
</a>
</g>
</g>
<!-- Node14 -->
<g id="Node000014" class="node">
<title>Node14</title>
<g id="a_Node000014"><a xlink:href="ResourceManager_8h.html" target="_top" xlink:title=" ">
<polygon fill="#fff0f0" stroke="red" points="1731.5,-200.5 1618.5,-200.5 1618.5,-181.5 1731.5,-181.5 1731.5,-200.5"/>
<text text-anchor="middle" x="1675" y="-188.5" font-family="Helvetica,sans-Serif" font-size="10.00">ResourceManager.h</text>
</a>
</g>
</g>
<!-- Node12&#45;&gt;Node14 -->
<g id="edge13_Node000012_Node000014" class="edge">
<title>Node12&#45;&gt;Node14</title>
<g id="a_edge13_Node000012_Node000014"><a xlink:title=" ">
<path fill="none" stroke="#63b8ff" d="M800.84,-245.44C987.51,-234.03 1437.98,-206.49 1608.28,-196.08"/>
<polygon fill="#63b8ff" stroke="#63b8ff" points="1608.6,-199.57 1618.36,-195.46 1608.17,-192.58 1608.6,-199.57"/>
</a>
</g>
</g>
<!-- Node22 -->
<g id="Node000022" class="node">
<title>Node22</title>
<g id="a_Node000022"><a xlink:href="Scene_8h.html" target="_top" xlink:title=" ">
<polygon fill="#fff0f0" stroke="red" points="687.5,-200.5 564.5,-200.5 564.5,-181.5 687.5,-181.5 687.5,-200.5"/>
<text text-anchor="middle" x="626" y="-188.5" font-family="Helvetica,sans-Serif" font-size="10.00">graphics/core/Scene.h</text>
</a>
</g>
</g>
<!-- Node12&#45;&gt;Node22 -->
<g id="edge16_Node000012_Node000022" class="edge">
<title>Node12&#45;&gt;Node22</title>
<g id="a_edge16_Node000012_Node000022"><a xlink:title=" ">
<path fill="none" stroke="#63b8ff" d="M704.43,-241.87C689.61,-232.45 665.67,-217.23 648.14,-206.08"/>
<polygon fill="#63b8ff" stroke="#63b8ff" points="649.95,-203.08 639.63,-200.67 646.19,-208.99 649.95,-203.08"/>
</a>
</g>
</g>
<!-- Node36 -->
<g id="Node000036" class="node">
<title>Node36</title>
<g id="a_Node000036"><a xlink:href="SceneObjectOptions_8h.html" target="_top" xlink:title=" ">
<polygon fill="#fff0f0" stroke="red" points="465,-206 319,-206 319,-176 465,-176 465,-206"/>
<text text-anchor="start" x="327" y="-194" font-family="Helvetica,sans-Serif" font-size="10.00">graphics/core/SceneObject</text>
<text text-anchor="middle" x="392" y="-183" font-family="Helvetica,sans-Serif" font-size="10.00">Options.h</text>
</a>
</g>
</g>
<!-- Node12&#45;&gt;Node36 -->
<g id="edge25_Node000012_Node000036" class="edge">
<title>Node12&#45;&gt;Node36</title>
<g id="a_edge25_Node000012_Node000036"><a xlink:title=" ">
<path fill="none" stroke="#63b8ff" d="M670.6,-241.99C619.49,-232.82 537.16,-218.05 475.22,-206.93"/>
<polygon fill="#63b8ff" stroke="#63b8ff" points="475.53,-203.43 465.07,-205.11 474.3,-210.32 475.53,-203.43"/>
</a>
</g>
</g>
<!-- Node12&#45;&gt;Node40 -->
<g id="edge28_Node000012_Node000040" class="edge">
<title>Node12&#45;&gt;Node40</title>
<g id="a_edge28_Node000012_Node000040"><a xlink:title=" ">
<path fill="none" stroke="#63b8ff" d="M778.05,-241.99C854.06,-231.23 984.61,-212.74 1063.84,-201.51"/>
<polygon fill="#63b8ff" stroke="#63b8ff" points="1064.79,-204.91 1074.2,-200.05 1063.8,-197.98 1064.79,-204.91"/>
</a>
</g>
</g>
<!-- Node15 -->
<g id="Node000015" class="node">
<title>Node15</title>
<g id="a_Node000015"><a xlink:title=" ">
<polygon fill="#e0e0e0" stroke="#999999" points="1824.5,-134.5 1731.5,-134.5 1731.5,-115.5 1824.5,-115.5 1824.5,-134.5"/>
<text text-anchor="middle" x="1778" y="-122.5" font-family="Helvetica,sans-Serif" font-size="10.00">unordered_map</text>
</a>
</g>
</g>
<!-- Node14&#45;&gt;Node15 -->
<g id="edge14_Node000014_Node000015" class="edge">
<title>Node14&#45;&gt;Node15</title>
<g id="a_edge14_Node000014_Node000015"><a xlink:title=" ">
<path fill="none" stroke="#63b8ff" d="M1688.89,-181.37C1705.94,-170.78 1735.07,-152.67 1755.37,-140.06"/>
<polygon fill="#63b8ff" stroke="#63b8ff" points="1757.35,-142.95 1764,-134.7 1753.66,-137 1757.35,-142.95"/>
</a>
</g>
</g>
<!-- Node16 -->
<g id="Node000016" class="node">
<title>Node16</title>
<g id="a_Node000016"><a xlink:title=" ">
<polygon fill="#e0e0e0" stroke="#999999" points="1713,-134.5 1669,-134.5 1669,-115.5 1713,-115.5 1713,-134.5"/>
<text text-anchor="middle" x="1691" y="-122.5" font-family="Helvetica,sans-Serif" font-size="10.00">string</text>
</a>
</g>
</g>
<!-- Node14&#45;&gt;Node16 -->
<g id="edge15_Node000014_Node000016" class="edge">
<title>Node14&#45;&gt;Node16</title>
<g id="a_edge15_Node000014_Node000016"><a xlink:title=" ">
<path fill="none" stroke="#63b8ff" d="M1677.16,-181.37C1679.48,-172.07 1683.26,-156.98 1686.28,-144.9"/>
<polygon fill="#63b8ff" stroke="#63b8ff" points="1689.74,-145.46 1688.77,-134.91 1682.95,-143.76 1689.74,-145.46"/>
</a>
</g>
</g>
<!-- Node22&#45;&gt;Node10 -->
<g id="edge24_Node000022_Node000010" class="edge">
<title>Node22&#45;&gt;Node10</title>
<g id="a_edge24_Node000022_Node000010"><a xlink:title=" ">
<path fill="none" stroke="#63b8ff" d="M602.02,-181.48C584.12,-173.71 560.94,-160.3 550,-140 543.67,-128.26 543.58,-121.69 550,-110 557.94,-95.54 572.79,-85.11 586.78,-78"/>
<polygon fill="#63b8ff" stroke="#63b8ff" points="588.64,-80.99 596.23,-73.6 585.69,-74.65 588.64,-80.99"/>
</a>
</g>
</g>
<!-- Node29 -->
<g id="Node000029" class="node">
<title>Node29</title>
<g id="a_Node000029"><a xlink:href="MathUtils_8h.html" target="_top" xlink:title=" ">
<polygon fill="white" stroke="#666666" points="700.5,-134.5 559.5,-134.5 559.5,-115.5 700.5,-115.5 700.5,-134.5"/>
<text text-anchor="middle" x="630" y="-122.5" font-family="Helvetica,sans-Serif" font-size="10.00">graphics/utils/MathUtils.h</text>
</a>
</g>
</g>
<!-- Node22&#45;&gt;Node29 -->
<g id="edge17_Node000022_Node000029" class="edge">
<title>Node22&#45;&gt;Node29</title>
<g id="a_edge17_Node000022_Node000029"><a xlink:title=" ">
<path fill="none" stroke="#63b8ff" d="M626.54,-181.37C627.12,-172.07 628.06,-156.98 628.82,-144.9"/>
<polygon fill="#63b8ff" stroke="#63b8ff" points="632.31,-145.1 629.44,-134.91 625.33,-144.67 632.31,-145.1"/>
</a>
</g>
</g>
<!-- Node29&#45;&gt;Node10 -->
<g id="edge21_Node000029_Node000010" class="edge">
<title>Node29&#45;&gt;Node10</title>
<g id="a_edge21_Node000029_Node000010"><a xlink:title=" ">
<path fill="none" stroke="#63b8ff" d="M628.52,-115.37C627.12,-107.16 624.96,-94.54 623.17,-84.05"/>
<polygon fill="#63b8ff" stroke="#63b8ff" points="626.62,-83.43 621.48,-74.17 619.72,-84.61 626.62,-83.43"/>
</a>
</g>
</g>
<!-- Node29&#45;&gt;Node11 -->
<g id="edge18_Node000029_Node000011" class="edge">
<title>Node29&#45;&gt;Node11</title>
<g id="a_edge18_Node000029_Node000011"><a xlink:title=" ">
<path fill="none" stroke="#63b8ff" d="M637.41,-115.18C648.14,-101.28 665.34,-73.9 652,-55 634.93,-30.8 603.47,-19.68 576.39,-14.61"/>
<polygon fill="#63b8ff" stroke="#63b8ff" points="576.7,-11.12 566.26,-12.95 575.56,-18.02 576.7,-11.12"/>
</a>
</g>
</g>
<!-- Node28 -->
<g id="Node000028" class="node">
<title>Node28</title>
<g id="a_Node000028"><a xlink:href="IPickable_8h.html" target="_top" xlink:title=" ">
<polygon fill="white" stroke="#666666" points="578,-74 476,-74 476,-55 578,-55 578,-74"/>
<text text-anchor="middle" x="527" y="-62" font-family="Helvetica,sans-Serif" font-size="10.00">../core/IPickable.h</text>
</a>
</g>
</g>
<!-- Node29&#45;&gt;Node28 -->
<g id="edge19_Node000029_Node000028" class="edge">
<title>Node29&#45;&gt;Node28</title>
<g id="a_edge19_Node000029_Node000028"><a xlink:title=" ">
<path fill="none" stroke="#63b8ff" d="M614.8,-115.37C597.99,-105.82 570.68,-90.31 550.98,-79.12"/>
<polygon fill="#63b8ff" stroke="#63b8ff" points="552.68,-76.06 542.26,-74.17 549.23,-82.15 552.68,-76.06"/>
</a>
</g>
</g>
<!-- Node30 -->
<g id="Node000030" class="node">
<title>Node30</title>
<g id="a_Node000030"><a xlink:title=" ">
<polygon fill="#e0e0e0" stroke="#999999" points="457.5,-74 392.5,-74 392.5,-55 457.5,-55 457.5,-74"/>
<text text-anchor="middle" x="425" y="-62" font-family="Helvetica,sans-Serif" font-size="10.00">functional</text>
</a>
</g>
</g>
<!-- Node29&#45;&gt;Node30 -->
<g id="edge22_Node000029_Node000030" class="edge">
<title>Node29&#45;&gt;Node30</title>
<g id="a_edge22_Node000029_Node000030"><a xlink:title=" ">
<path fill="none" stroke="#63b8ff" d="M600.19,-115.49C564.44,-105.29 504.37,-88.15 464.71,-76.83"/>
<polygon fill="#63b8ff" stroke="#63b8ff" points="465.42,-73.4 454.84,-74.02 463.5,-80.13 465.42,-73.4"/>
</a>
</g>
</g>
<!-- Node31 -->
<g id="Node000031" class="node">
<title>Node31</title>
<g id="a_Node000031"><a xlink:title=" ">
<polygon fill="#e0e0e0" stroke="#999999" points="764,-74 700,-74 700,-55 764,-55 764,-74"/>
<text text-anchor="middle" x="732" y="-62" font-family="Helvetica,sans-Serif" font-size="10.00">algorithm</text>
</a>
</g>
</g>
<!-- Node29&#45;&gt;Node31 -->
<g id="edge23_Node000029_Node000031" class="edge">
<title>Node29&#45;&gt;Node31</title>
<g id="a_edge23_Node000029_Node000031"><a xlink:title=" ">
<path fill="none" stroke="#63b8ff" d="M645.05,-115.37C661.62,-105.86 688.5,-90.45 707.99,-79.27"/>
<polygon fill="#63b8ff" stroke="#63b8ff" points="709.95,-82.18 716.89,-74.17 706.47,-76.11 709.95,-82.18"/>
</a>
</g>
</g>
<!-- Node28&#45;&gt;Node11 -->
<g id="edge20_Node000028_Node000011" class="edge">
<title>Node28&#45;&gt;Node11</title>
<g id="a_edge20_Node000028_Node000011"><a xlink:title=" ">
<path fill="none" stroke="#63b8ff" d="M527,-54.75C527,-47.8 527,-37.85 527,-29.13"/>
<polygon fill="#63b8ff" stroke="#63b8ff" points="530.5,-29.09 527,-19.09 523.5,-29.09 530.5,-29.09"/>
</a>
</g>
</g>
<!-- Node36&#45;&gt;Node11 -->
<g id="edge26_Node000036_Node000011" class="edge">
<title>Node36&#45;&gt;Node11</title>
<g id="a_edge26_Node000036_Node000011"><a xlink:title=" ">
<path fill="none" stroke="#63b8ff" d="M318.78,-185.11C197.85,-174.47 -22.75,-142.66 57,-55 84.91,-24.32 362.56,-14.33 477.54,-11.5"/>
<polygon fill="#63b8ff" stroke="#63b8ff" points="477.91,-14.99 487.82,-11.25 477.74,-7.99 477.91,-14.99"/>
</a>
</g>
</g>
<!-- Node36&#45;&gt;Node30 -->
<g id="edge27_Node000036_Node000030" class="edge">
<title>Node36&#45;&gt;Node30</title>
<g id="a_edge27_Node000036_Node000030"><a xlink:title=" ">
<path fill="none" stroke="#63b8ff" d="M395.79,-175.72C401.8,-153.02 413.54,-108.72 420.16,-83.75"/>
<polygon fill="#63b8ff" stroke="#63b8ff" points="423.55,-84.63 422.73,-74.07 416.78,-82.84 423.55,-84.63"/>
</a>
</g>
</g>
<!-- Node40&#45;&gt;Node29 -->
<g id="edge37_Node000040_Node000029" class="edge">
<title>Node40&#45;&gt;Node29</title>
<g id="a_edge37_Node000040_Node000029"><a xlink:title=" ">
<path fill="none" stroke="#63b8ff" d="M1074.35,-184.27C993.39,-175.86 839.99,-159.08 710,-140 702.25,-138.86 694.1,-137.56 686.08,-136.22"/>
<polygon fill="#63b8ff" stroke="#63b8ff" points="686.49,-132.74 676.04,-134.5 685.31,-139.64 686.49,-132.74"/>
</a>
</g>
</g>
<!-- Node41 -->
<g id="Node000041" class="node">
<title>Node41</title>
<g id="a_Node000041"><a xlink:title=" ">
<polygon fill="#e0e0e0" stroke="#999999" points="1579,-134.5 1391,-134.5 1391,-115.5 1579,-115.5 1579,-134.5"/>
<text text-anchor="middle" x="1485" y="-122.5" font-family="Helvetica,sans-Serif" font-size="10.00">QtOpenGLWidgets/QOpenGLWidget</text>
</a>
</g>
</g>
<!-- Node40&#45;&gt;Node41 -->
<g id="edge29_Node000040_Node000041" class="edge">
<title>Node40&#45;&gt;Node41</title>
<g id="a_edge29_Node000040_Node000041"><a xlink:title=" ">
<path fill="none" stroke="#63b8ff" d="M1178.37,-181.44C1243.02,-169.75 1358.73,-148.83 1428.03,-136.3"/>
<polygon fill="#63b8ff" stroke="#63b8ff" points="1428.69,-139.74 1437.91,-134.51 1427.44,-132.85 1428.69,-139.74"/>
</a>
</g>
</g>
<!-- Node18 -->
<g id="Node000018" class="node">
<title>Node18</title>
<g id="a_Node000018"><a xlink:title=" ">
<polygon fill="#e0e0e0" stroke="#999999" points="983,-140 863,-140 863,-110 983,-110 983,-140"/>
<text text-anchor="start" x="871" y="-128" font-family="Helvetica,sans-Serif" font-size="10.00">QOpenGLFunctions_4</text>
<text text-anchor="middle" x="923" y="-117" font-family="Helvetica,sans-Serif" font-size="10.00">_5_Core</text>
</a>
</g>
</g>
<!-- Node40&#45;&gt;Node18 -->
<g id="edge30_Node000040_Node000018" class="edge">
<title>Node40&#45;&gt;Node18</title>
<g id="a_edge30_Node000040_Node000018"><a xlink:title=" ">
<path fill="none" stroke="#63b8ff" d="M1102.95,-181.37C1071.19,-171.6 1018.66,-155.43 978.53,-143.09"/>
<polygon fill="#63b8ff" stroke="#63b8ff" points="979.46,-139.71 968.88,-140.12 977.4,-146.4 979.46,-139.71"/>
</a>
</g>
</g>
<!-- Node42 -->
<g id="Node000042" class="node">
<title>Node42</title>
<g id="a_Node000042"><a xlink:title=" ">
<polygon fill="#e0e0e0" stroke="#999999" points="1650.5,-134.5 1597.5,-134.5 1597.5,-115.5 1650.5,-115.5 1650.5,-134.5"/>
<text text-anchor="middle" x="1624" y="-122.5" font-family="Helvetica,sans-Serif" font-size="10.00">QTimer</text>
</a>
</g>
</g>
<!-- Node40&#45;&gt;Node42 -->
<g id="edge31_Node000040_Node000042" class="edge">
<title>Node40&#45;&gt;Node42</title>
<g id="a_edge31_Node000040_Node000042"><a xlink:title=" ">
<path fill="none" stroke="#63b8ff" d="M1187.63,-185.67C1292.58,-177.33 1513.38,-158.26 1588,-140 1590.36,-139.42 1592.78,-138.73 1595.19,-137.96"/>
<polygon fill="#63b8ff" stroke="#63b8ff" points="1596.62,-141.16 1604.87,-134.51 1594.27,-134.57 1596.62,-141.16"/>
</a>
</g>
</g>
<!-- Node43 -->
<g id="Node000043" class="node">
<title>Node43</title>
<g id="a_Node000043"><a xlink:title=" ">
<polygon fill="#e0e0e0" stroke="#999999" points="1071,-134.5 1001,-134.5 1001,-115.5 1071,-115.5 1071,-134.5"/>
<text text-anchor="middle" x="1036" y="-122.5" font-family="Helvetica,sans-Serif" font-size="10.00">QKeyEvent</text>
</a>
</g>
</g>
<!-- Node40&#45;&gt;Node43 -->
<g id="edge32_Node000040_Node000043" class="edge">
<title>Node40&#45;&gt;Node43</title>
<g id="a_edge32_Node000040_Node000043"><a xlink:title=" ">
<path fill="none" stroke="#63b8ff" d="M1118.19,-181.37C1102.61,-170.87 1076.07,-153 1057.38,-140.4"/>
<polygon fill="#63b8ff" stroke="#63b8ff" points="1059.16,-137.38 1048.91,-134.7 1055.25,-143.19 1059.16,-137.38"/>
</a>
</g>
</g>
<!-- Node44 -->
<g id="Node000044" class="node">
<title>Node44</title>
<g id="a_Node000044"><a xlink:title=" ">
<polygon fill="#e0e0e0" stroke="#999999" points="1173,-134.5 1089,-134.5 1089,-115.5 1173,-115.5 1173,-134.5"/>
<text text-anchor="middle" x="1131" y="-122.5" font-family="Helvetica,sans-Serif" font-size="10.00">QMouseEvent</text>
</a>
</g>
</g>
<!-- Node40&#45;&gt;Node44 -->
<g id="edge33_Node000040_Node000044" class="edge">
<title>Node40&#45;&gt;Node44</title>
<g id="a_edge33_Node000040_Node000044"><a xlink:title=" ">
<path fill="none" stroke="#63b8ff" d="M1131,-181.37C1131,-172.16 1131,-157.29 1131,-145.27"/>
<polygon fill="#63b8ff" stroke="#63b8ff" points="1134.5,-144.91 1131,-134.91 1127.5,-144.91 1134.5,-144.91"/>
</a>
</g>
</g>
<!-- Node45 -->
<g id="Node000045" class="node">
<title>Node45</title>
<g id="a_Node000045"><a xlink:title=" ">
<polygon fill="#e0e0e0" stroke="#999999" points="1231,-134.5 1191,-134.5 1191,-115.5 1231,-115.5 1231,-134.5"/>
<text text-anchor="middle" x="1211" y="-122.5" font-family="Helvetica,sans-Serif" font-size="10.00">QSet</text>
</a>
</g>
</g>
<!-- Node40&#45;&gt;Node45 -->
<g id="edge34_Node000040_Node000045" class="edge">
<title>Node40&#45;&gt;Node45</title>
<g id="a_edge34_Node000040_Node000045"><a xlink:title=" ">
<path fill="none" stroke="#63b8ff" d="M1141.79,-181.37C1154.67,-171.06 1176.44,-153.65 1192.13,-141.09"/>
<polygon fill="#63b8ff" stroke="#63b8ff" points="1194.5,-143.68 1200.13,-134.7 1190.13,-138.21 1194.5,-143.68"/>
</a>
</g>
</g>
<!-- Node46 -->
<g id="Node000046" class="node">
<title>Node46</title>
<g id="a_Node000046"><a xlink:title=" ">
<polygon fill="#e0e0e0" stroke="#999999" points="1305,-134.5 1249,-134.5 1249,-115.5 1305,-115.5 1305,-134.5"/>
<text text-anchor="middle" x="1277" y="-122.5" font-family="Helvetica,sans-Serif" font-size="10.00">QCursor</text>
</a>
</g>
</g>
<!-- Node40&#45;&gt;Node46 -->
<g id="edge35_Node000040_Node000046" class="edge">
<title>Node40&#45;&gt;Node46</title>
<g id="a_edge35_Node000040_Node000046"><a xlink:title=" ">
<path fill="none" stroke="#63b8ff" d="M1150.69,-181.37C1175.73,-170.39 1219.15,-151.36 1247.98,-138.72"/>
<polygon fill="#63b8ff" stroke="#63b8ff" points="1249.4,-141.92 1257.16,-134.7 1246.59,-135.51 1249.4,-141.92"/>
</a>
</g>
</g>
<!-- Node47 -->
<g id="Node000047" class="node">
<title>Node47</title>
<g id="a_Node000047"><a xlink:title=" ">
<polygon fill="#e0e0e0" stroke="#999999" points="1373,-134.5 1323,-134.5 1323,-115.5 1373,-115.5 1373,-134.5"/>
<text text-anchor="middle" x="1348" y="-122.5" font-family="Helvetica,sans-Serif" font-size="10.00">chrono</text>
</a>
</g>
</g>
<!-- Node40&#45;&gt;Node47 -->
<g id="edge36_Node000040_Node000047" class="edge">
<title>Node40&#45;&gt;Node47</title>
<g id="a_edge36_Node000040_Node000047"><a xlink:title=" ">
<path fill="none" stroke="#63b8ff" d="M1167.51,-181.44C1204.74,-172.38 1263.97,-157.06 1314,-140 1315.62,-139.45 1317.27,-138.86 1318.94,-138.24"/>
<polygon fill="#63b8ff" stroke="#63b8ff" points="1320.33,-141.45 1328.38,-134.56 1317.79,-134.93 1320.33,-141.45"/>
</a>
</g>
</g>
<!-- Node48 -->
<g id="Node000048" class="node">
<title>Node48</title>
<g id="a_Node000048"><a xlink:href="PhysicsSystem_8h.html" target="_top" xlink:title=" ">
<polygon fill="#fff0f0" stroke="red" points="360.5,-134.5 221.5,-134.5 221.5,-115.5 360.5,-115.5 360.5,-134.5"/>
<text text-anchor="middle" x="291" y="-122.5" font-family="Helvetica,sans-Serif" font-size="10.00">physics/PhysicsSystem.h</text>
</a>
</g>
</g>
<!-- Node40&#45;&gt;Node48 -->
<g id="edge38_Node000040_Node000048" class="edge">
<title>Node40&#45;&gt;Node48</title>
<g id="a_edge38_Node000040_Node000048"><a xlink:title=" ">
<path fill="none" stroke="#63b8ff" d="M1074.25,-185.68C928.25,-174.55 539.27,-144.92 370.72,-132.07"/>
<polygon fill="#63b8ff" stroke="#63b8ff" points="370.91,-128.58 360.67,-131.31 370.38,-135.56 370.91,-128.58"/>
</a>
</g>
</g>
<!-- Node48&#45;&gt;Node10 -->
<g id="edge39_Node000048_Node000010" class="edge">
<title>Node48&#45;&gt;Node10</title>
<g id="a_edge39_Node000048_Node000010"><a xlink:title=" ">
<path fill="none" stroke="#63b8ff" d="M350.53,-115.46C408.34,-106.83 498.74,-92.42 586.42,-73.96"/>
<polygon fill="#63b8ff" stroke="#63b8ff" points="587.21,-77.37 596.26,-71.87 585.75,-70.53 587.21,-77.37"/>
</a>
</g>
</g>
<!-- Node49 -->
<g id="Node000049" class="node">
<title>Node49</title>
<g id="a_Node000049"><a xlink:title=" ">
<polygon fill="#e0e0e0" stroke="#999999" points="374,-74 324,-74 324,-55 374,-55 374,-74"/>
<text text-anchor="middle" x="349" y="-62" font-family="Helvetica,sans-Serif" font-size="10.00">atomic</text>
</a>
</g>
</g>
<!-- Node48&#45;&gt;Node49 -->
<g id="edge40_Node000048_Node000049" class="edge">
<title>Node48&#45;&gt;Node49</title>
<g id="a_edge40_Node000048_Node000049"><a xlink:title=" ">
<path fill="none" stroke="#63b8ff" d="M299.56,-115.37C308.38,-106.47 322.34,-92.39 333.18,-81.45"/>
<polygon fill="#63b8ff" stroke="#63b8ff" points="335.85,-83.73 340.41,-74.17 330.88,-78.8 335.85,-83.73"/>
</a>
</g>
</g>
<!-- Node50 -->
<g id="Node000050" class="node">
<title>Node50</title>
<g id="a_Node000050"><a xlink:title=" ">
<polygon fill="#e0e0e0" stroke="#999999" points="114,-74 66,-74 66,-55 114,-55 114,-74"/>
<text text-anchor="middle" x="90" y="-62" font-family="Helvetica,sans-Serif" font-size="10.00">mutex</text>
</a>
</g>
</g>
<!-- Node48&#45;&gt;Node50 -->
<g id="edge41_Node000048_Node000050" class="edge">
<title>Node48&#45;&gt;Node50</title>
<g id="a_edge41_Node000048_Node000050"><a xlink:title=" ">
<path fill="none" stroke="#63b8ff" d="M261.77,-115.49C225.19,-104.85 162.65,-86.65 123.98,-75.39"/>
<polygon fill="#63b8ff" stroke="#63b8ff" points="124.8,-71.98 114.22,-72.55 122.84,-78.7 124.8,-71.98"/>
</a>
</g>
</g>
<!-- Node51 -->
<g id="Node000051" class="node">
<title>Node51</title>
<g id="a_Node000051"><a xlink:title=" ">
<polygon fill="#e0e0e0" stroke="#999999" points="180,-74 132,-74 132,-55 180,-55 180,-74"/>
<text text-anchor="middle" x="156" y="-62" font-family="Helvetica,sans-Serif" font-size="10.00">thread</text>
</a>
</g>
</g>
<!-- Node48&#45;&gt;Node51 -->
<g id="edge42_Node000048_Node000051" class="edge">
<title>Node48&#45;&gt;Node51</title>
<g id="a_edge42_Node000048_Node000051"><a xlink:title=" ">
<path fill="none" stroke="#63b8ff" d="M271.37,-115.49C248.67,-105.66 211.1,-89.38 185.03,-78.08"/>
<polygon fill="#63b8ff" stroke="#63b8ff" points="186.22,-74.78 175.65,-74.02 183.44,-81.2 186.22,-74.78"/>
</a>
</g>
</g>
<!-- Node52 -->
<g id="Node000052" class="node">
<title>Node52</title>
<g id="a_Node000052"><a xlink:title=" ">
<polygon fill="#e0e0e0" stroke="#999999" points="305.5,-74 198.5,-74 198.5,-55 305.5,-55 305.5,-74"/>
<text text-anchor="middle" x="252" y="-62" font-family="Helvetica,sans-Serif" font-size="10.00">condition_variable</text>
</a>
</g>
</g>
<!-- Node48&#45;&gt;Node52 -->
<g id="edge43_Node000048_Node000052" class="edge">
<title>Node48&#45;&gt;Node52</title>
<g id="a_edge43_Node000048_Node000052"><a xlink:title=" ">
<path fill="none" stroke="#63b8ff" d="M285.25,-115.37C279.54,-106.81 270.65,-93.47 263.49,-82.74"/>
<polygon fill="#63b8ff" stroke="#63b8ff" points="266.24,-80.55 257.78,-74.17 260.41,-84.43 266.24,-80.55"/>
</a>
</g>
</g>
<!-- Node69&#45;&gt;Node4 -->
<g id="edge53_Node000069_Node000004" class="edge">
<title>Node69&#45;&gt;Node4</title>
<g id="a_edge53_Node000069_Node000004"><a xlink:title=" ">
<path fill="none" stroke="#63b8ff" d="M598.73,-351.75C592.46,-344.18 583.21,-333.05 575.57,-323.84"/>
<polygon fill="#63b8ff" stroke="#63b8ff" points="578.21,-321.55 569.13,-316.09 572.83,-326.02 578.21,-321.55"/>
</a>
</g>
</g>
<!-- Node69&#45;&gt;Node6 -->
<g id="edge52_Node000069_Node000006" class="edge">
<title>Node69&#45;&gt;Node6</title>
<g id="a_edge52_Node000069_Node000006"><a xlink:title=" ">
<path fill="none" stroke="#63b8ff" d="M613.27,-351.75C619.54,-344.18 628.79,-333.05 636.43,-323.84"/>
<polygon fill="#63b8ff" stroke="#63b8ff" points="639.17,-326.02 642.87,-316.09 633.79,-321.55 639.17,-326.02"/>
</a>
</g>
</g>
<!-- Node70 -->
<g id="Node000070" class="node">
<title>Node70</title>
<g id="a_Node000070"><a xlink:href="SceneObject_8h.html" target="_top" xlink:title=" ">
<polygon fill="#fff0f0" stroke="red" points="481.5,-316 326.5,-316 326.5,-297 481.5,-297 481.5,-316"/>
<text text-anchor="middle" x="404" y="-304" font-family="Helvetica,sans-Serif" font-size="10.00">graphics/core/SceneObject.h</text>
</a>
</g>
</g>
<!-- Node69&#45;&gt;Node70 -->
<g id="edge54_Node000069_Node000070" class="edge">
<title>Node69&#45;&gt;Node70</title>
<g id="a_edge54_Node000069_Node000070"><a xlink:title=" ">
<path fill="none" stroke="#63b8ff" d="M573.55,-351.98C539.04,-342.93 484.34,-328.58 446.44,-318.64"/>
<polygon fill="#63b8ff" stroke="#63b8ff" points="447.27,-315.23 436.71,-316.08 445.49,-322.01 447.27,-315.23"/>
</a>
</g>
</g>
<!-- Node70&#45;&gt;Node11 -->
<g id="edge55_Node000070_Node000011" class="edge">
<title>Node70&#45;&gt;Node11</title>
<g id="a_edge55_Node000070_Node000011"><a xlink:title=" ">
<path fill="none" stroke="#63b8ff" d="M326.1,-299.52C208.71,-288.34 0,-259.03 0,-192 0,-192 0,-192 0,-124 0,-87.87 12.24,-73.97 43,-55 79.43,-32.54 362.09,-17.73 477.83,-12.55"/>
<polygon fill="#63b8ff" stroke="#63b8ff" points="478.01,-16.05 487.84,-12.11 477.7,-9.05 478.01,-16.05"/>
</a>
</g>
</g>
<!-- Node70&#45;&gt;Node12 -->
<g id="edge56_Node000070_Node000012" class="edge">
<title>Node70&#45;&gt;Node12</title>
<g id="a_edge56_Node000070_Node000012"><a xlink:title=" ">
<path fill="none" stroke="#63b8ff" d="M454.45,-296.98C509.76,-287.65 598.47,-272.67 657.48,-262.71"/>
<polygon fill="#63b8ff" stroke="#63b8ff" points="658.14,-266.15 667.42,-261.04 656.97,-259.25 658.14,-266.15"/>
</a>
</g>
</g>
<!-- Node70&#45;&gt;Node28 -->
<g id="edge57_Node000070_Node000028" class="edge">
<title>Node70&#45;&gt;Node28</title>
<g id="a_edge57_Node000070_Node000028"><a xlink:title=" ">
<path fill="none" stroke="#63b8ff" d="M411.17,-296.93C424.83,-280.28 454.93,-242.03 474,-206 496.08,-164.28 513.44,-111.3 521.71,-83.85"/>
<polygon fill="#63b8ff" stroke="#63b8ff" points="525.13,-84.64 524.6,-74.05 518.41,-82.65 525.13,-84.64"/>
</a>
</g>
</g>
<!-- Node70&#45;&gt;Node36 -->
<g id="edge59_Node000070_Node000036" class="edge">
<title>Node70&#45;&gt;Node36</title>
<g id="a_edge59_Node000070_Node000036"><a xlink:title=" ">
<path fill="none" stroke="#63b8ff" d="M403.1,-296.97C401.3,-280.01 397.23,-241.5 394.55,-216.14"/>
<polygon fill="#63b8ff" stroke="#63b8ff" points="398.03,-215.76 393.5,-206.18 391.07,-216.49 398.03,-215.76"/>
</a>
</g>
</g>
<!-- Node70&#45;&gt;Node48 -->
<g id="edge58_Node000070_Node000048" class="edge">
<title>Node70&#45;&gt;Node48</title>
<g id="a_edge58_Node000070_Node000048"><a xlink:title=" ">
<path fill="none" stroke="#63b8ff" d="M392.76,-296.99C372.84,-281.29 331.45,-245.73 310,-206 299.64,-186.81 294.88,-162.04 292.72,-145.18"/>
<polygon fill="#63b8ff" stroke="#63b8ff" points="296.17,-144.5 291.61,-134.94 289.21,-145.26 296.17,-144.5"/>
</a>
</g>
</g>
<!-- Node72&#45;&gt;Node42 -->
<g id="edge62_Node000072_Node000042" class="edge">
<title>Node72&#45;&gt;Node42</title>
<g id="a_edge62_Node000072_Node000042"><a xlink:title=" ">
<path fill="none" stroke="#63b8ff" d="M1292.18,-351.77C1302.52,-343.34 1317.93,-329.84 1329,-316 1352.76,-286.3 1343.86,-267.59 1372,-242 1389.67,-225.93 1531.29,-165.1 1594.14,-138.54"/>
<polygon fill="#63b8ff" stroke="#63b8ff" points="1595.67,-141.69 1603.52,-134.58 1592.95,-135.24 1595.67,-141.69"/>
</a>
</g>
</g>
<!-- Node73 -->
<g id="Node000073" class="node">
<title>Node73</title>
<g id="a_Node000073"><a xlink:title=" ">
<polygon fill="#e0e0e0" stroke="#999999" points="1319.5,-316 1260.5,-316 1260.5,-297 1319.5,-297 1319.5,-316"/>
<text text-anchor="middle" x="1290" y="-304" font-family="Helvetica,sans-Serif" font-size="10.00">QWidget</text>
</a>
</g>
</g>
<!-- Node72&#45;&gt;Node73 -->
<g id="edge61_Node000072_Node000073" class="edge">
<title>Node72&#45;&gt;Node73</title>
<g id="a_edge61_Node000072_Node000073"><a xlink:title=" ">
<path fill="none" stroke="#63b8ff" d="M1282.49,-351.75C1283.67,-344.8 1285.36,-334.85 1286.84,-326.13"/>
<polygon fill="#63b8ff" stroke="#63b8ff" points="1290.32,-326.53 1288.54,-316.09 1283.42,-325.36 1290.32,-326.53"/>
</a>
</g>
</g>
<!-- Node74 -->
<g id="Node000074" class="node">
<title>Node74</title>
<g id="a_Node000074"><a xlink:title=" ">
<polygon fill="#e0e0e0" stroke="#999999" points="1242.5,-316 1159.5,-316 1159.5,-297 1242.5,-297 1242.5,-316"/>
<text text-anchor="middle" x="1201" y="-304" font-family="Helvetica,sans-Serif" font-size="10.00">QVBoxLayout</text>
</a>
</g>
</g>
<!-- Node72&#45;&gt;Node74 -->
<g id="edge63_Node000072_Node000074" class="edge">
<title>Node72&#45;&gt;Node74</title>
<g id="a_edge63_Node000072_Node000074"><a xlink:title=" ">
<path fill="none" stroke="#63b8ff" d="M1268.15,-351.98C1255.86,-343.84 1237.09,-331.41 1222.52,-321.76"/>
<polygon fill="#63b8ff" stroke="#63b8ff" points="1224.36,-318.78 1214.09,-316.17 1220.49,-324.61 1224.36,-318.78"/>
</a>
</g>
</g>
<!-- Node75&#45;&gt;Node15 -->
<g id="edge68_Node000075_Node000015" class="edge">
<title>Node75&#45;&gt;Node15</title>
<g id="a_edge68_Node000075_Node000015"><a xlink:title=" ">
<path fill="none" stroke="#63b8ff" d="M1791.84,-181.37C1789.52,-172.07 1785.74,-156.98 1782.72,-144.9"/>
<polygon fill="#63b8ff" stroke="#63b8ff" points="1786.05,-143.76 1780.23,-134.91 1779.26,-145.46 1786.05,-143.76"/>
</a>
</g>
</g>
<!-- Node75&#45;&gt;Node16 -->
<g id="edge67_Node000075_Node000016" class="edge">
<title>Node75&#45;&gt;Node16</title>
<g id="a_edge67_Node000075_Node000016"><a xlink:title=" ">
<path fill="none" stroke="#63b8ff" d="M1780.11,-181.37C1763.06,-170.78 1733.93,-152.67 1713.63,-140.06"/>
<polygon fill="#63b8ff" stroke="#63b8ff" points="1715.34,-137 1705,-134.7 1711.65,-142.95 1715.34,-137"/>
</a>
</g>
</g>
<!-- Node76 -->
<g id="Node000076" class="node">
<title>Node76</title>
<g id="a_Node000076"><a xlink:title=" ">
<polygon fill="#e0e0e0" stroke="#999999" points="1899,-134.5 1843,-134.5 1843,-115.5 1899,-115.5 1899,-134.5"/>
<text text-anchor="middle" x="1871" y="-122.5" font-family="Helvetica,sans-Serif" font-size="10.00">QDialog</text>
</a>
</g>
</g>
<!-- Node75&#45;&gt;Node76 -->
<g id="edge65_Node000075_Node000076" class="edge">
<title>Node75&#45;&gt;Node76</title>
<g id="a_edge65_Node000075_Node000076"><a xlink:title=" ">
<path fill="none" stroke="#63b8ff" d="M1804.38,-181.37C1816.72,-171.12 1837.51,-153.84 1852.59,-141.31"/>
<polygon fill="#63b8ff" stroke="#63b8ff" points="1854.83,-143.99 1860.29,-134.91 1850.36,-138.61 1854.83,-143.99"/>
</a>
</g>
</g>
<!-- Node77 -->
<g id="Node000077" class="node">
<title>Node77</title>
<g id="a_Node000077"><a xlink:title=" ">
<polygon fill="#e0e0e0" stroke="#999999" points="1962.5,-134.5 1917.5,-134.5 1917.5,-115.5 1962.5,-115.5 1962.5,-134.5"/>
<text text-anchor="middle" x="1940" y="-122.5" font-family="Helvetica,sans-Serif" font-size="10.00">QMap</text>
</a>
</g>
</g>
<!-- Node75&#45;&gt;Node77 -->
<g id="edge66_Node000075_Node000077" class="edge">
<title>Node75&#45;&gt;Node77</title>
<g id="a_edge66_Node000075_Node000077"><a xlink:title=" ">
<path fill="none" stroke="#63b8ff" d="M1813.69,-181.37C1838.73,-170.39 1882.15,-151.36 1910.98,-138.72"/>
<polygon fill="#63b8ff" stroke="#63b8ff" points="1912.4,-141.92 1920.16,-134.7 1909.59,-135.51 1912.4,-141.92"/>
</a>
</g>
</g>
</g>
</svg>
