<?xml version="1.0" encoding="UTF-8" standalone="no"?>
<!DOCTYPE svg PUBLIC "-//W3C//DTD SVG 1.1//EN"
 "http://www.w3.org/Graphics/SVG/1.1/DTD/svg11.dtd">
<!-- Generated by graphviz version 2.43.0 (0)
 -->
<!-- Title: src/math/MathUtils.h Pages: 1 -->
<!--zoomable 335 -->

<svg id="main" version="1.1" xmlns="http://www.w3.org/2000/svg" xmlns:xlink="http://www.w3.org/1999/xlink" xml:space="preserve" onload="init(evt)">
<style type="text/css"><![CDATA[
.node, .edge {opacity: 0.7;}
.node.selected, .edge.selected {opacity: 1;}
.edge:hover path { stroke: red; }
.edge:hover polygon { stroke: red; fill: red; }
]]></style>

<defs>
  <circle id="rim" cx="0" cy="0" r="7"/>
  <circle id="rim2" cx="0" cy="0" r="3.5"/>
  <g id="zoomPlus">
    <use xlink:href="#rim" fill="#404040"><set attributeName="fill" to="#808080" begin="zoomplus.mouseover" end="zoomplus.mouseout"/></use>
    <path d="M-4,0h8M0,-4v8" fill="none" stroke="white" stroke-width="1.5" pointer-events="none"/>
  </g>
  <g id="zoomMin">
    <use xlink:href="#rim" fill="#404040"><set attributeName="fill" to="#808080" begin="zoomminus.mouseover" end="zoomminus.mouseout"/></use>
    <path d="M-4,0h8" fill="none" stroke="white" stroke-width="1.5" pointer-events="none"/>
  </g>
  <g id="arrowUp" transform="translate(30 24)">
    <use xlink:href="#rim"/>
    <path pointer-events="none" fill="none" stroke="white" stroke-width="1.5" d="M0,-3.0v7 M-2.5,-0.5L0,-3.0L2.5,-0.5"/>
  </g>
  <g id="arrowRight" transform="rotate(90) translate(36 -43)">
    <use xlink:href="#rim"/>
    <path pointer-events="none" fill="none" stroke="white" stroke-width="1.5" d="M0,-3.0v7 M-2.5,-0.5L0,-3.0L2.5,-0.5"/>
  </g>
  <g id="arrowDown" transform="rotate(180) translate(-30 -48)">
    <use xlink:href="#rim"/>
    <path pointer-events="none" fill="none" stroke="white" stroke-width="1.5" d="M0,-3.0v7 M-2.5,-0.5L0,-3.0L2.5,-0.5"/>
  </g>
  <g id="arrowLeft" transform="rotate(270) translate(-36 17)">
    <use xlink:href="#rim"/>
    <path pointer-events="none" fill="none" stroke="white" stroke-width="1.5" d="M0,-3.0v7 M-2.5,-0.5L0,-3.0L2.5,-0.5"/>
  </g>
  <g id="resetDef">
    <use xlink:href="#rim2" fill="#404040"><set attributeName="fill" to="#808080" begin="reset.mouseover" end="reset.mouseout"/></use>
  </g>
</defs>
<script type="application/ecmascript">
var viewWidth = 3515;
var viewHeight = 335;
var sectionId = 'dynsection-1';
</script>
<script type="application/ecmascript" xlink:href="svg.min.js"/>
<svg id="graph" class="graph">
<g id="viewport">
<title>src/math/MathUtils.h</title>
<!-- Node1 -->
<g id="Node000001" class="node">
<title>Node1</title>
<g id="a_Node000001"><a xlink:title="Mathematical utility functions for 3D graphics and physics.">
<polygon fill="#999999" stroke="#666666" points="3205.5,-327 3086.5,-327 3086.5,-308 3205.5,-308 3205.5,-327"/>
<text text-anchor="middle" x="3146" y="-315" font-family="Helvetica,sans-Serif" font-size="10.00">src/math/MathUtils.h</text>
</a>
</g>
</g>
<!-- Node2 -->
<g id="Node000002" class="node">
<title>Node2</title>
<g id="a_Node000002"><a xlink:href="Gizmo_8cpp.html" target="_top" xlink:title=" ">
<polygon fill="white" stroke="#666666" points="2699,-30 2561,-30 2561,0 2699,0 2699,-30"/>
<text text-anchor="start" x="2569" y="-18" font-family="Helvetica,sans-Serif" font-size="10.00">src/graphics/components</text>
<text text-anchor="middle" x="2630" y="-7" font-family="Helvetica,sans-Serif" font-size="10.00">/Gizmo.cpp</text>
</a>
</g>
</g>
<!-- Node1&#45;&gt;Node2 -->
<g id="edge1_Node000001_Node000002" class="edge">
<title>Node1&#45;&gt;Node2</title>
<g id="a_edge1_Node000001_Node000002"><a xlink:title=" ">
<path fill="none" stroke="#63b8ff" d="M3150.29,-297.68C3157.44,-261.07 3167.31,-179.72 3127,-132 3072.39,-67.36 2822.61,-34.6 2699.29,-22.14"/>
<polygon fill="#63b8ff" stroke="#63b8ff" points="3146.77,-297.38 3148.13,-307.89 3153.62,-298.83 3146.77,-297.38"/>
</a>
</g>
</g>
<!-- Node3 -->
<g id="Node000003" class="node">
<title>Node3</title>
<g id="a_Node000003"><a xlink:href="ResourceManager_8cpp.html" target="_top" xlink:title=" ">
<polygon fill="white" stroke="#666666" points="3321.5,-272 3174.5,-272 3174.5,-242 3321.5,-242 3321.5,-272"/>
<text text-anchor="start" x="3182.5" y="-260" font-family="Helvetica,sans-Serif" font-size="10.00">src/graphics/core/Resource</text>
<text text-anchor="middle" x="3248" y="-249" font-family="Helvetica,sans-Serif" font-size="10.00">Manager.cpp</text>
</a>
</g>
</g>
<!-- Node1&#45;&gt;Node3 -->
<g id="edge2_Node000001_Node000003" class="edge">
<title>Node1&#45;&gt;Node3</title>
<g id="a_edge2_Node000001_Node000003"><a xlink:title=" ">
<path fill="none" stroke="#63b8ff" d="M3169.86,-302.81C3185.96,-293.58 3207.14,-281.43 3223.39,-272.11"/>
<polygon fill="#63b8ff" stroke="#63b8ff" points="3167.98,-299.86 3161.05,-307.87 3171.47,-305.93 3167.98,-299.86"/>
</a>
</g>
</g>
<!-- Node4 -->
<g id="Node000004" class="node">
<title>Node4</title>
<g id="a_Node000004"><a xlink:href="Scene_8cpp.html" target="_top" xlink:title=" ">
<polygon fill="white" stroke="#666666" points="152,-90.5 0,-90.5 0,-71.5 152,-71.5 152,-90.5"/>
<text text-anchor="middle" x="76" y="-78.5" font-family="Helvetica,sans-Serif" font-size="10.00">src/graphics/core/Scene.cpp</text>
</a>
</g>
</g>
<!-- Node1&#45;&gt;Node4 -->
<g id="edge3_Node000001_Node000004" class="edge">
<title>Node1&#45;&gt;Node4</title>
<g id="a_edge3_Node000001_Node000004"><a xlink:title=" ">
<path fill="none" stroke="#63b8ff" d="M3076.41,-315.06C2706.66,-307.17 969.18,-267.41 435,-206 302.07,-190.72 255.96,-216 139,-151 112.34,-136.19 90.86,-105.92 81.33,-90.88"/>
<polygon fill="#63b8ff" stroke="#63b8ff" points="3076.36,-318.56 3086.43,-315.27 3076.51,-311.56 3076.36,-318.56"/>
</a>
</g>
</g>
<!-- Node5 -->
<g id="Node000005" class="node">
<title>Node5</title>
<g id="a_Node000005"><a xlink:href="Scene_8h.html" target="_top" xlink:title=" ">
<polygon fill="white" stroke="#666666" points="2043,-266.5 1903,-266.5 1903,-247.5 2043,-247.5 2043,-266.5"/>
<text text-anchor="middle" x="1973" y="-254.5" font-family="Helvetica,sans-Serif" font-size="10.00">src/graphics/core/Scene.h</text>
</a>
</g>
</g>
<!-- Node1&#45;&gt;Node5 -->
<g id="edge4_Node000001_Node000005" class="edge">
<title>Node1&#45;&gt;Node5</title>
<g id="a_edge4_Node000001_Node000005"><a xlink:title=" ">
<path fill="none" stroke="#63b8ff" d="M3076.01,-313.01C2867.49,-302.61 2251.96,-271.91 2043.18,-261.5"/>
<polygon fill="#63b8ff" stroke="#63b8ff" points="3076.06,-316.52 3086.22,-313.52 3076.4,-309.52 3076.06,-316.52"/>
</a>
</g>
</g>
<!-- Node33 -->
<g id="Node000033" class="node">
<title>Node33</title>
<g id="a_Node000033"><a xlink:href="PhysicsSystem_8cpp.html" target="_top" xlink:title=" ">
<polygon fill="white" stroke="#666666" points="3506.5,-266.5 3339.5,-266.5 3339.5,-247.5 3506.5,-247.5 3506.5,-266.5"/>
<text text-anchor="middle" x="3423" y="-254.5" font-family="Helvetica,sans-Serif" font-size="10.00">src/physics/PhysicsSystem.cpp</text>
</a>
</g>
</g>
<!-- Node1&#45;&gt;Node33 -->
<g id="edge51_Node000001_Node000033" class="edge">
<title>Node1&#45;&gt;Node33</title>
<g id="a_edge51_Node000001_Node000033"><a xlink:title=" ">
<path fill="none" stroke="#63b8ff" d="M3196.23,-305.89C3249.71,-294.6 3333.31,-276.94 3382.67,-266.52"/>
<polygon fill="#63b8ff" stroke="#63b8ff" points="3195.34,-302.5 3186.28,-307.99 3196.79,-309.35 3195.34,-302.5"/>
</a>
</g>
</g>
<!-- Node5&#45;&gt;Node4 -->
<g id="edge5_Node000005_Node000004" class="edge">
<title>Node5&#45;&gt;Node4</title>
<g id="a_edge5_Node000005_Node000004"><a xlink:title=" ">
<path fill="none" stroke="#63b8ff" d="M1892.56,-253.88C1565.23,-244.89 342.99,-207.79 180,-151 141.12,-137.45 102.67,-106.01 85.42,-90.69"/>
<polygon fill="#63b8ff" stroke="#63b8ff" points="1892.81,-257.39 1902.91,-254.16 1893.01,-250.39 1892.81,-257.39"/>
</a>
</g>
</g>
<!-- Node6 -->
<g id="Node000006" class="node">
<title>Node6</title>
<g id="a_Node000006"><a xlink:href="SceneManager_8h.html" target="_top" xlink:title=" ">
<polygon fill="white" stroke="#666666" points="2064,-206 1882,-206 1882,-187 2064,-187 2064,-206"/>
<text text-anchor="middle" x="1973" y="-194" font-family="Helvetica,sans-Serif" font-size="10.00">src/graphics/core/SceneManager.h</text>
</a>
</g>
</g>
<!-- Node5&#45;&gt;Node6 -->
<g id="edge6_Node000005_Node000006" class="edge">
<title>Node5&#45;&gt;Node6</title>
<g id="a_edge6_Node000005_Node000006"><a xlink:title=" ">
<path fill="none" stroke="#63b8ff" d="M1973,-237.16C1973,-226.74 1973,-214.3 1973,-206.17"/>
<polygon fill="#63b8ff" stroke="#63b8ff" points="1969.5,-237.37 1973,-247.37 1976.5,-237.37 1969.5,-237.37"/>
</a>
</g>
</g>
<!-- Node8 -->
<g id="Node000008" class="node">
<title>Node8</title>
<g id="a_Node000008"><a xlink:href="SceneObject_8cpp.html" target="_top" xlink:title=" ">
<polygon fill="white" stroke="#666666" points="488.5,-90.5 305.5,-90.5 305.5,-71.5 488.5,-71.5 488.5,-90.5"/>
<text text-anchor="middle" x="397" y="-78.5" font-family="Helvetica,sans-Serif" font-size="10.00">src/graphics/core/SceneObject.cpp</text>
</a>
</g>
</g>
<!-- Node5&#45;&gt;Node8 -->
<g id="edge49_Node000005_Node000008" class="edge">
<title>Node5&#45;&gt;Node8</title>
<g id="a_edge49_Node000005_Node000008"><a xlink:title=" ">
<path fill="none" stroke="#63b8ff" d="M1892.53,-253.27C1633.3,-243.97 822.03,-210.73 567,-151 508.08,-137.2 442.97,-105.88 413.32,-90.64"/>
<polygon fill="#63b8ff" stroke="#63b8ff" points="1892.51,-256.77 1902.63,-253.63 1892.76,-249.78 1892.51,-256.77"/>
</a>
</g>
</g>
<!-- Node32 -->
<g id="Node000032" class="node">
<title>Node32</title>
<g id="a_Node000032"><a xlink:href="OpenGLWindow_8cpp.html" target="_top" xlink:title=" ">
<polygon fill="white" stroke="#666666" points="3118,-151 2976,-151 2976,-132 3118,-132 3118,-151"/>
<text text-anchor="middle" x="3047" y="-139" font-family="Helvetica,sans-Serif" font-size="10.00">src/ui/OpenGLWindow.cpp</text>
</a>
</g>
</g>
<!-- Node5&#45;&gt;Node32 -->
<g id="edge50_Node000005_Node000032" class="edge">
<title>Node5&#45;&gt;Node32</title>
<g id="a_edge50_Node000005_Node000032"><a xlink:title=" ">
<path fill="none" stroke="#63b8ff" d="M2053.01,-247.54C2255.1,-226.19 2783.67,-170.33 2975.84,-150.02"/>
<polygon fill="#63b8ff" stroke="#63b8ff" points="2052.63,-244.07 2043.05,-248.6 2053.37,-251.03 2052.63,-244.07"/>
</a>
</g>
</g>
<!-- Node6&#45;&gt;Node2 -->
<g id="edge7_Node000006_Node000002" class="edge">
<title>Node6&#45;&gt;Node2</title>
<g id="a_edge7_Node000006_Node000002"><a xlink:title=" ">
<path fill="none" stroke="#63b8ff" d="M2074.53,-193.23C2279.86,-188.16 2730.59,-174.5 2797,-151 2836.31,-137.09 2854.04,-133.13 2873,-96 2879.06,-84.13 2881.42,-76.33 2873,-66 2851.4,-39.5 2763.14,-26.64 2699.21,-20.69"/>
<polygon fill="#63b8ff" stroke="#63b8ff" points="2074.26,-189.73 2064.34,-193.47 2074.43,-196.73 2074.26,-189.73"/>
</a>
</g>
</g>
<!-- Node7 -->
<g id="Node000007" class="node">
<title>Node7</title>
<g id="a_Node000007"><a xlink:href="SceneManager_8cpp.html" target="_top" xlink:title=" ">
<polygon fill="white" stroke="#666666" points="1218,-24.5 1024,-24.5 1024,-5.5 1218,-5.5 1218,-24.5"/>
<text text-anchor="middle" x="1121" y="-12.5" font-family="Helvetica,sans-Serif" font-size="10.00">src/graphics/core/SceneManager.cpp</text>
</a>
</g>
</g>
<!-- Node6&#45;&gt;Node7 -->
<g id="edge8_Node000006_Node000007" class="edge">
<title>Node6&#45;&gt;Node7</title>
<g id="a_edge8_Node000006_Node000007"><a xlink:title=" ">
<path fill="none" stroke="#63b8ff" d="M1871.8,-195.07C1584.15,-193.41 779.54,-185.7 735,-151 704.67,-127.38 693.55,-94.81 719,-66 738.88,-43.5 911.08,-28.77 1023.56,-21.46"/>
<polygon fill="#63b8ff" stroke="#63b8ff" points="1871.8,-198.57 1881.82,-195.12 1871.84,-191.57 1871.8,-198.57"/>
</a>
</g>
</g>
<!-- Node6&#45;&gt;Node8 -->
<g id="edge9_Node000006_Node000008" class="edge">
<title>Node6&#45;&gt;Node8</title>
<g id="a_edge9_Node000006_Node000008"><a xlink:title=" ">
<path fill="none" stroke="#63b8ff" d="M1871.53,-195.01C1605.36,-193.25 891.58,-185.38 658,-151 569.43,-137.96 467.74,-105.97 421.81,-90.56"/>
<polygon fill="#63b8ff" stroke="#63b8ff" points="1871.55,-198.51 1881.57,-195.07 1871.6,-191.51 1871.55,-198.51"/>
</a>
</g>
</g>
<!-- Node9 -->
<g id="Node000009" class="node">
<title>Node9</title>
<g id="a_Node000009"><a xlink:href="SceneObject_8h.html" target="_top" xlink:title=" ">
<polygon fill="white" stroke="#666666" points="1798,-151 1626,-151 1626,-132 1798,-132 1798,-151"/>
<text text-anchor="middle" x="1712" y="-139" font-family="Helvetica,sans-Serif" font-size="10.00">src/graphics/core/SceneObject.h</text>
</a>
</g>
</g>
<!-- Node6&#45;&gt;Node9 -->
<g id="edge10_Node000006_Node000009" class="edge">
<title>Node6&#45;&gt;Node9</title>
<g id="a_edge10_Node000006_Node000009"><a xlink:title=" ">
<path fill="none" stroke="#63b8ff" d="M1921,-184.94C1872.08,-175.01 1799.73,-160.31 1754.26,-151.08"/>
<polygon fill="#63b8ff" stroke="#63b8ff" points="1920.57,-188.42 1931.07,-186.98 1921.96,-181.56 1920.57,-188.42"/>
</a>
</g>
</g>
<!-- Node16 -->
<g id="Node000016" class="node">
<title>Node16</title>
<g id="a_Node000016"><a xlink:href="Colliders_8cpp.html" target="_top" xlink:title=" ">
<polygon fill="white" stroke="#666666" points="2694,-96 2586,-96 2586,-66 2694,-66 2694,-96"/>
<text text-anchor="start" x="2594" y="-84" font-family="Helvetica,sans-Serif" font-size="10.00">src/graphics/debug</text>
<text text-anchor="middle" x="2640" y="-73" font-family="Helvetica,sans-Serif" font-size="10.00">/Colliders.cpp</text>
</a>
</g>
</g>
<!-- Node6&#45;&gt;Node16 -->
<g id="edge40_Node000006_Node000016" class="edge">
<title>Node6&#45;&gt;Node16</title>
<g id="a_edge40_Node000006_Node000016"><a xlink:title=" ">
<path fill="none" stroke="#63b8ff" d="M2038.86,-185.41C2149.31,-168.29 2378.78,-131.92 2572,-96 2576.5,-95.16 2581.17,-94.27 2585.85,-93.34"/>
<polygon fill="#63b8ff" stroke="#63b8ff" points="2038.22,-181.97 2028.87,-186.95 2039.29,-188.88 2038.22,-181.97"/>
</a>
</g>
</g>
<!-- Node18 -->
<g id="Node000018" class="node">
<title>Node18</title>
<g id="a_Node000018"><a xlink:href="Forces_8cpp.html" target="_top" xlink:title=" ">
<polygon fill="white" stroke="#666666" points="1625,-30 1517,-30 1517,0 1625,0 1625,-30"/>
<text text-anchor="start" x="1525" y="-18" font-family="Helvetica,sans-Serif" font-size="10.00">src/graphics/debug</text>
<text text-anchor="middle" x="1571" y="-7" font-family="Helvetica,sans-Serif" font-size="10.00">/Forces.cpp</text>
</a>
</g>
</g>
<!-- Node6&#45;&gt;Node18 -->
<g id="edge41_Node000006_Node000018" class="edge">
<title>Node6&#45;&gt;Node18</title>
<g id="a_edge41_Node000006_Node000018"><a xlink:title=" ">
<path fill="none" stroke="#63b8ff" d="M2074.57,-195.66C2328.63,-194.38 2963.61,-179.92 2853,-66 2805.8,-17.39 1701.23,-38.39 1634,-30 1631.11,-29.64 1628.16,-29.21 1625.18,-28.72"/>
<polygon fill="#63b8ff" stroke="#63b8ff" points="2074.21,-192.16 2064.23,-195.71 2074.24,-199.16 2074.21,-192.16"/>
</a>
</g>
</g>
<!-- Node20 -->
<g id="Node000020" class="node">
<title>Node20</title>
<g id="a_Node000020"><a xlink:href="PathTraces_8cpp.html" target="_top" xlink:title=" ">
<polygon fill="white" stroke="#666666" points="2968,-30 2860,-30 2860,0 2968,0 2968,-30"/>
<text text-anchor="start" x="2868" y="-18" font-family="Helvetica,sans-Serif" font-size="10.00">src/graphics/debug</text>
<text text-anchor="middle" x="2914" y="-7" font-family="Helvetica,sans-Serif" font-size="10.00">/PathTraces.cpp</text>
</a>
</g>
</g>
<!-- Node6&#45;&gt;Node20 -->
<g id="edge42_Node000006_Node000020" class="edge">
<title>Node6&#45;&gt;Node20</title>
<g id="a_edge42_Node000006_Node000020"><a xlink:title=" ">
<path fill="none" stroke="#63b8ff" d="M2074.58,-194.27C2287.22,-191.12 2765.2,-180.79 2833,-151 2864.94,-136.97 2870.81,-125.77 2889,-96 2901.83,-75.02 2908.61,-46.87 2911.74,-30.17"/>
<polygon fill="#63b8ff" stroke="#63b8ff" points="2074.29,-190.78 2064.35,-194.42 2074.4,-197.78 2074.29,-190.78"/>
</a>
</g>
</g>
<!-- Node25 -->
<g id="Node000025" class="node">
<title>Node25</title>
<g id="a_Node000025"><a xlink:href="GlobalsInspectorWidget_8cpp.html" target="_top" xlink:title=" ">
<polygon fill="white" stroke="#666666" points="2843.5,-96 2712.5,-96 2712.5,-66 2843.5,-66 2843.5,-96"/>
<text text-anchor="start" x="2720.5" y="-84" font-family="Helvetica,sans-Serif" font-size="10.00">src/ui/inspector/Globals</text>
<text text-anchor="middle" x="2778" y="-73" font-family="Helvetica,sans-Serif" font-size="10.00">InspectorWidget.cpp</text>
</a>
</g>
</g>
<!-- Node6&#45;&gt;Node25 -->
<g id="edge47_Node000006_Node000025" class="edge">
<title>Node6&#45;&gt;Node25</title>
<g id="a_edge47_Node000006_Node000025"><a xlink:title=" ">
<path fill="none" stroke="#63b8ff" d="M2056.05,-185.76C2191.76,-169.5 2469.34,-134.75 2703,-96 2706.01,-95.5 2709.08,-94.98 2712.18,-94.44"/>
<polygon fill="#63b8ff" stroke="#63b8ff" points="2055.25,-182.33 2045.74,-187 2056.08,-189.29 2055.25,-182.33"/>
</a>
</g>
</g>
<!-- Node26 -->
<g id="Node000026" class="node">
<title>Node26</title>
<g id="a_Node000026"><a xlink:href="InspectorWidget_8cpp.html" target="_top" xlink:title=" ">
<polygon fill="white" stroke="#666666" points="1092.5,-96 953.5,-96 953.5,-66 1092.5,-66 1092.5,-96"/>
<text text-anchor="start" x="961.5" y="-84" font-family="Helvetica,sans-Serif" font-size="10.00">src/ui/inspector/Inspector</text>
<text text-anchor="middle" x="1023" y="-73" font-family="Helvetica,sans-Serif" font-size="10.00">Widget.cpp</text>
</a>
</g>
</g>
<!-- Node6&#45;&gt;Node26 -->
<g id="edge48_Node000006_Node000026" class="edge">
<title>Node6&#45;&gt;Node26</title>
<g id="a_edge48_Node000006_Node000026"><a xlink:title=" ">
<path fill="none" stroke="#63b8ff" d="M1883.85,-185.91C1728.53,-169.02 1398.3,-132.31 1120,-96 1111.14,-94.84 1101.84,-93.57 1092.64,-92.28"/>
<polygon fill="#63b8ff" stroke="#63b8ff" points="1883.51,-189.39 1893.83,-186.99 1884.26,-182.43 1883.51,-189.39"/>
</a>
</g>
</g>
<!-- Node29 -->
<g id="Node000029" class="node">
<title>Node29</title>
<g id="a_Node000029"><a xlink:href="SceneSerializer_8h.html" target="_top" xlink:title=" ">
<polygon fill="white" stroke="#666666" points="929.5,-151 744.5,-151 744.5,-132 929.5,-132 929.5,-151"/>
<text text-anchor="middle" x="837" y="-139" font-family="Helvetica,sans-Serif" font-size="10.00">src/graphics/core/SceneSerializer.h</text>
</a>
</g>
</g>
<!-- Node6&#45;&gt;Node29 -->
<g id="edge37_Node000006_Node000029" class="edge">
<title>Node6&#45;&gt;Node29</title>
<g id="a_edge37_Node000006_Node000029"><a xlink:title=" ">
<path fill="none" stroke="#63b8ff" d="M1871.78,-190.78C1653.28,-180.58 1140.23,-156.65 929.67,-146.82"/>
<polygon fill="#63b8ff" stroke="#63b8ff" points="1871.8,-194.28 1881.96,-191.25 1872.13,-187.29 1871.8,-194.28"/>
</a>
</g>
</g>
<!-- Node30 -->
<g id="Node000030" class="node">
<title>Node30</title>
<g id="a_Node000030"><a xlink:href="MainWindow_8h.html" target="_top" xlink:title=" ">
<polygon fill="white" stroke="#666666" points="306.5,-151 189.5,-151 189.5,-132 306.5,-132 306.5,-151"/>
<text text-anchor="middle" x="248" y="-139" font-family="Helvetica,sans-Serif" font-size="10.00">src/ui/MainWindow.h</text>
</a>
</g>
</g>
<!-- Node6&#45;&gt;Node30 -->
<g id="edge43_Node000006_Node000030" class="edge">
<title>Node6&#45;&gt;Node30</title>
<g id="a_edge43_Node000006_Node000030"><a xlink:title=" ">
<path fill="none" stroke="#63b8ff" d="M1871.53,-192.38C1549.7,-182.49 558.2,-152.03 306.55,-144.3"/>
<polygon fill="#63b8ff" stroke="#63b8ff" points="1871.68,-195.89 1881.78,-192.7 1871.89,-188.89 1871.68,-195.89"/>
</a>
</g>
</g>
<!-- Node6&#45;&gt;Node32 -->
<g id="edge46_Node000006_Node000032" class="edge">
<title>Node6&#45;&gt;Node32</title>
<g id="a_edge46_Node000006_Node000032"><a xlink:title=" ">
<path fill="none" stroke="#63b8ff" d="M2074.32,-192.77C2253.52,-187.53 2638.08,-174.47 2962,-151 2966.44,-150.68 2971,-150.32 2975.6,-149.93"/>
<polygon fill="#63b8ff" stroke="#63b8ff" points="2074.01,-189.28 2064.11,-193.07 2074.21,-196.28 2074.01,-189.28"/>
</a>
</g>
</g>
<!-- Node9&#45;&gt;Node2 -->
<g id="edge11_Node000009_Node000002" class="edge">
<title>Node9&#45;&gt;Node2</title>
<g id="a_edge11_Node000009_Node000002"><a xlink:title=" ">
<path fill="none" stroke="#63b8ff" d="M1808.35,-138.86C2012,-134.87 2472.93,-122.96 2539,-96 2548.01,-92.32 2591.52,-52.18 2614.96,-30.2"/>
<polygon fill="#63b8ff" stroke="#63b8ff" points="1808.19,-135.36 1798.26,-139.05 1808.33,-142.36 1808.19,-135.36"/>
</a>
</g>
</g>
<!-- Node9&#45;&gt;Node4 -->
<g id="edge18_Node000009_Node000004" class="edge">
<title>Node9&#45;&gt;Node4</title>
<g id="a_edge18_Node000009_Node000004"><a xlink:title=" ">
<path fill="none" stroke="#63b8ff" d="M1615.64,-140.47C1375.88,-139.78 733.26,-134.19 199,-96 180.35,-94.67 160.17,-92.62 141.65,-90.51"/>
<polygon fill="#63b8ff" stroke="#63b8ff" points="1615.72,-143.97 1625.72,-140.49 1615.73,-136.97 1615.72,-143.97"/>
</a>
</g>
</g>
<!-- Node9&#45;&gt;Node7 -->
<g id="edge19_Node000009_Node000007" class="edge">
<title>Node9&#45;&gt;Node7</title>
<g id="a_edge19_Node000009_Node000007"><a xlink:title=" ">
<path fill="none" stroke="#63b8ff" d="M1615.53,-139.1C1461.88,-135.98 1175.24,-126.14 1140,-96 1118.96,-78 1118.9,-41.34 1120.1,-24.64"/>
<polygon fill="#63b8ff" stroke="#63b8ff" points="1615.84,-142.61 1625.9,-139.31 1615.98,-135.61 1615.84,-142.61"/>
</a>
</g>
</g>
<!-- Node9&#45;&gt;Node8 -->
<g id="edge20_Node000009_Node000008" class="edge">
<title>Node9&#45;&gt;Node8</title>
<g id="a_edge20_Node000009_Node000008"><a xlink:title=" ">
<path fill="none" stroke="#63b8ff" d="M1615.45,-140.32C1409.53,-139.2 912.1,-132.56 497,-96 481.89,-94.67 465.58,-92.64 450.6,-90.54"/>
<polygon fill="#63b8ff" stroke="#63b8ff" points="1615.61,-143.82 1625.63,-140.37 1615.65,-136.82 1615.61,-143.82"/>
</a>
</g>
</g>
<!-- Node10 -->
<g id="Node000010" class="node">
<title>Node10</title>
<g id="a_Node000010"><a xlink:href="RotateHandle_8cpp.html" target="_top" xlink:title=" ">
<polygon fill="white" stroke="#666666" points="2248,-96 2110,-96 2110,-66 2248,-66 2248,-96"/>
<text text-anchor="start" x="2118" y="-84" font-family="Helvetica,sans-Serif" font-size="10.00">src/graphics/components</text>
<text text-anchor="middle" x="2179" y="-73" font-family="Helvetica,sans-Serif" font-size="10.00">/RotateHandle.cpp</text>
</a>
</g>
</g>
<!-- Node9&#45;&gt;Node10 -->
<g id="edge12_Node000009_Node000010" class="edge">
<title>Node9&#45;&gt;Node10</title>
<g id="a_edge12_Node000009_Node000010"><a xlink:title=" ">
<path fill="none" stroke="#63b8ff" d="M1808.74,-131.16C1887.59,-123.14 2001.72,-110.57 2101,-96 2103.86,-95.58 2106.77,-95.14 2109.71,-94.67"/>
<polygon fill="#63b8ff" stroke="#63b8ff" points="1807.94,-127.73 1798.34,-132.22 1808.64,-134.69 1807.94,-127.73"/>
</a>
</g>
</g>
<!-- Node11 -->
<g id="Node000011" class="node">
<title>Node11</title>
<g id="a_Node000011"><a xlink:href="ScaleHandle_8h.html" target="_top" xlink:title=" ">
<polygon fill="white" stroke="#666666" points="1781,-96 1643,-96 1643,-66 1781,-66 1781,-96"/>
<text text-anchor="start" x="1651" y="-84" font-family="Helvetica,sans-Serif" font-size="10.00">src/graphics/components</text>
<text text-anchor="middle" x="1712" y="-73" font-family="Helvetica,sans-Serif" font-size="10.00">/ScaleHandle.h</text>
</a>
</g>
</g>
<!-- Node9&#45;&gt;Node11 -->
<g id="edge13_Node000009_Node000011" class="edge">
<title>Node9&#45;&gt;Node11</title>
<g id="a_edge13_Node000009_Node000011"><a xlink:title=" ">
<path fill="none" stroke="#63b8ff" d="M1712,-121.65C1712,-113.36 1712,-103.78 1712,-96.11"/>
<polygon fill="#63b8ff" stroke="#63b8ff" points="1708.5,-121.87 1712,-131.87 1715.5,-121.87 1708.5,-121.87"/>
</a>
</g>
</g>
<!-- Node13 -->
<g id="Node000013" class="node">
<title>Node13</title>
<g id="a_Node000013"><a xlink:href="TranslateHandle_8cpp.html" target="_top" xlink:title=" ">
<polygon fill="white" stroke="#666666" points="2404,-96 2266,-96 2266,-66 2404,-66 2404,-96"/>
<text text-anchor="start" x="2274" y="-84" font-family="Helvetica,sans-Serif" font-size="10.00">src/graphics/components</text>
<text text-anchor="middle" x="2335" y="-73" font-family="Helvetica,sans-Serif" font-size="10.00">/TranslateHandle.cpp</text>
</a>
</g>
</g>
<!-- Node9&#45;&gt;Node13 -->
<g id="edge16_Node000009_Node000013" class="edge">
<title>Node9&#45;&gt;Node13</title>
<g id="a_edge16_Node000009_Node000013"><a xlink:title=" ">
<path fill="none" stroke="#63b8ff" d="M1808.17,-135.45C1917.29,-129.07 2100.44,-116.39 2257,-96 2259.86,-95.63 2262.78,-95.22 2265.73,-94.79"/>
<polygon fill="#63b8ff" stroke="#63b8ff" points="1807.95,-131.96 1798.17,-136.03 1808.35,-138.95 1807.95,-131.96"/>
</a>
</g>
</g>
<!-- Node14 -->
<g id="Node000014" class="node">
<title>Node14</title>
<g id="a_Node000014"><a xlink:href="Camera_8cpp.html" target="_top" xlink:title=" ">
<polygon fill="white" stroke="#666666" points="1310.5,-90.5 1149.5,-90.5 1149.5,-71.5 1310.5,-71.5 1310.5,-90.5"/>
<text text-anchor="middle" x="1230" y="-78.5" font-family="Helvetica,sans-Serif" font-size="10.00">src/graphics/core/Camera.cpp</text>
</a>
</g>
</g>
<!-- Node9&#45;&gt;Node14 -->
<g id="edge17_Node000009_Node000014" class="edge">
<title>Node9&#45;&gt;Node14</title>
<g id="a_edge17_Node000009_Node000014"><a xlink:title=" ">
<path fill="none" stroke="#63b8ff" d="M1618.15,-130.95C1538.66,-122.59 1421.71,-109.68 1320,-96 1307.78,-94.36 1294.65,-92.41 1282.3,-90.51"/>
<polygon fill="#63b8ff" stroke="#63b8ff" points="1617.83,-134.43 1628.14,-131.99 1618.56,-127.47 1617.83,-134.43"/>
</a>
</g>
</g>
<!-- Node15 -->
<g id="Node000015" class="node">
<title>Node15</title>
<g id="a_Node000015"><a xlink:href="SceneSerializer_8cpp.html" target="_top" xlink:title=" ">
<polygon fill="white" stroke="#666666" points="935.5,-90.5 738.5,-90.5 738.5,-71.5 935.5,-71.5 935.5,-90.5"/>
<text text-anchor="middle" x="837" y="-78.5" font-family="Helvetica,sans-Serif" font-size="10.00">src/graphics/core/SceneSerializer.cpp</text>
</a>
</g>
</g>
<!-- Node9&#45;&gt;Node15 -->
<g id="edge21_Node000009_Node000015" class="edge">
<title>Node9&#45;&gt;Node15</title>
<g id="a_edge21_Node000009_Node000015"><a xlink:title=" ">
<path fill="none" stroke="#63b8ff" d="M1615.5,-137.15C1469.8,-131.58 1185.04,-118.72 944,-96 928.43,-94.53 911.63,-92.53 896.06,-90.5"/>
<polygon fill="#63b8ff" stroke="#63b8ff" points="1615.63,-140.65 1625.75,-137.54 1615.89,-133.66 1615.63,-140.65"/>
</a>
</g>
</g>
<!-- Node9&#45;&gt;Node16 -->
<g id="edge22_Node000009_Node000016" class="edge">
<title>Node9&#45;&gt;Node16</title>
<g id="a_edge22_Node000009_Node000016"><a xlink:title=" ">
<path fill="none" stroke="#63b8ff" d="M1808.39,-140.26C1967.89,-138.79 2296.48,-131.28 2572,-96 2576.54,-95.42 2581.24,-94.7 2585.93,-93.9"/>
<polygon fill="#63b8ff" stroke="#63b8ff" points="1808.1,-136.76 1798.13,-140.34 1808.16,-143.76 1808.1,-136.76"/>
</a>
</g>
</g>
<!-- Node17 -->
<g id="Node000017" class="node">
<title>Node17</title>
<g id="a_Node000017"><a xlink:href="Forces_8h.html" target="_top" xlink:title=" ">
<polygon fill="white" stroke="#666666" points="1625,-96 1517,-96 1517,-66 1625,-66 1625,-96"/>
<text text-anchor="start" x="1525" y="-84" font-family="Helvetica,sans-Serif" font-size="10.00">src/graphics/debug</text>
<text text-anchor="middle" x="1571" y="-73" font-family="Helvetica,sans-Serif" font-size="10.00">/Forces.h</text>
</a>
</g>
</g>
<!-- Node9&#45;&gt;Node17 -->
<g id="edge23_Node000009_Node000017" class="edge">
<title>Node9&#45;&gt;Node17</title>
<g id="a_edge23_Node000009_Node000017"><a xlink:title=" ">
<path fill="none" stroke="#63b8ff" d="M1682.07,-128.08C1659.46,-118.7 1628.42,-105.82 1604.9,-96.06"/>
<polygon fill="#63b8ff" stroke="#63b8ff" points="1680.92,-131.39 1691.5,-131.99 1683.6,-124.93 1680.92,-131.39"/>
</a>
</g>
</g>
<!-- Node19 -->
<g id="Node000019" class="node">
<title>Node19</title>
<g id="a_Node000019"><a xlink:href="PathTraces_8h.html" target="_top" xlink:title=" ">
<polygon fill="white" stroke="#666666" points="2530,-96 2422,-96 2422,-66 2530,-66 2530,-96"/>
<text text-anchor="start" x="2430" y="-84" font-family="Helvetica,sans-Serif" font-size="10.00">src/graphics/debug</text>
<text text-anchor="middle" x="2476" y="-73" font-family="Helvetica,sans-Serif" font-size="10.00">/PathTraces.h</text>
</a>
</g>
</g>
<!-- Node9&#45;&gt;Node19 -->
<g id="edge26_Node000009_Node000019" class="edge">
<title>Node9&#45;&gt;Node19</title>
<g id="a_edge26_Node000009_Node000019"><a xlink:title=" ">
<path fill="none" stroke="#63b8ff" d="M1808.58,-139.1C1944.22,-136.07 2198.55,-126.45 2413,-96 2415.88,-95.59 2418.83,-95.12 2421.8,-94.6"/>
<polygon fill="#63b8ff" stroke="#63b8ff" points="1808.15,-135.61 1798.23,-139.33 1808.3,-142.61 1808.15,-135.61"/>
</a>
</g>
</g>
<!-- Node21 -->
<g id="Node000021" class="node">
<title>Node21</title>
<g id="a_Node000021"><a xlink:href="HierarchyWidget_8h.html" target="_top" xlink:title=" ">
<polygon fill="white" stroke="#666666" points="643.5,-90.5 506.5,-90.5 506.5,-71.5 643.5,-71.5 643.5,-90.5"/>
<text text-anchor="middle" x="575" y="-78.5" font-family="Helvetica,sans-Serif" font-size="10.00">src/ui/HierarchyWidget.h</text>
</a>
</g>
</g>
<!-- Node9&#45;&gt;Node21 -->
<g id="edge29_Node000009_Node000021" class="edge">
<title>Node9&#45;&gt;Node21</title>
<g id="a_edge29_Node000009_Node000021"><a xlink:title=" ">
<path fill="none" stroke="#63b8ff" d="M1615.78,-137.6C1439.69,-131.96 1053.78,-118.1 729,-96 701.01,-94.1 670.21,-91.41 643.56,-88.9"/>
<polygon fill="#63b8ff" stroke="#63b8ff" points="1615.69,-141.09 1625.8,-137.91 1615.92,-134.1 1615.69,-141.09"/>
</a>
</g>
</g>
<!-- Node24 -->
<g id="Node000024" class="node">
<title>Node24</title>
<g id="a_Node000024"><a xlink:href="ForcesInspectorWidget_8cpp.html" target="_top" xlink:title=" ">
<polygon fill="white" stroke="#666666" points="1499,-96 1329,-96 1329,-66 1499,-66 1499,-96"/>
<text text-anchor="start" x="1337" y="-84" font-family="Helvetica,sans-Serif" font-size="10.00">src/ui/inspector/ForcesInspector</text>
<text text-anchor="middle" x="1414" y="-73" font-family="Helvetica,sans-Serif" font-size="10.00">Widget.cpp</text>
</a>
</g>
</g>
<!-- Node9&#45;&gt;Node24 -->
<g id="edge32_Node000009_Node000024" class="edge">
<title>Node9&#45;&gt;Node24</title>
<g id="a_edge32_Node000009_Node000024"><a xlink:title=" ">
<path fill="none" stroke="#63b8ff" d="M1658.72,-130.04C1610.35,-120.55 1538.66,-106.47 1485.36,-96.01"/>
<polygon fill="#63b8ff" stroke="#63b8ff" points="1658.18,-133.5 1668.67,-131.99 1659.53,-126.63 1658.18,-133.5"/>
</a>
</g>
</g>
<!-- Node9&#45;&gt;Node25 -->
<g id="edge33_Node000009_Node000025" class="edge">
<title>Node9&#45;&gt;Node25</title>
<g id="a_edge33_Node000009_Node000025"><a xlink:title=" ">
<path fill="none" stroke="#63b8ff" d="M1808.25,-140.63C1985.74,-139.88 2376.36,-133.63 2703,-96 2706.03,-95.65 2709.11,-95.25 2712.23,-94.81"/>
<polygon fill="#63b8ff" stroke="#63b8ff" points="1808.14,-137.13 1798.15,-140.67 1808.17,-144.13 1808.14,-137.13"/>
</a>
</g>
</g>
<!-- Node9&#45;&gt;Node26 -->
<g id="edge34_Node000009_Node000026" class="edge">
<title>Node9&#45;&gt;Node26</title>
<g id="a_edge34_Node000009_Node000026"><a xlink:title=" ">
<path fill="none" stroke="#63b8ff" d="M1615.37,-136.13C1495.72,-130.09 1285.83,-117.43 1107,-96 1102.3,-95.44 1097.47,-94.8 1092.6,-94.11"/>
<polygon fill="#63b8ff" stroke="#63b8ff" points="1615.44,-139.64 1625.6,-136.64 1615.79,-132.65 1615.44,-139.64"/>
</a>
</g>
</g>
<!-- Node27 -->
<g id="Node000027" class="node">
<title>Node27</title>
<g id="a_Node000027"><a xlink:href="PhysicsInspectorWidget_8cpp.html" target="_top" xlink:title=" ">
<polygon fill="white" stroke="#666666" points="1930.5,-96 1799.5,-96 1799.5,-66 1930.5,-66 1930.5,-96"/>
<text text-anchor="start" x="1807.5" y="-84" font-family="Helvetica,sans-Serif" font-size="10.00">src/ui/inspector/Physics</text>
<text text-anchor="middle" x="1865" y="-73" font-family="Helvetica,sans-Serif" font-size="10.00">InspectorWidget.cpp</text>
</a>
</g>
</g>
<!-- Node9&#45;&gt;Node27 -->
<g id="edge35_Node000009_Node000027" class="edge">
<title>Node9&#45;&gt;Node27</title>
<g id="a_edge35_Node000009_Node000027"><a xlink:title=" ">
<path fill="none" stroke="#63b8ff" d="M1743.82,-128.33C1768.41,-118.93 1802.47,-105.91 1828.22,-96.06"/>
<polygon fill="#63b8ff" stroke="#63b8ff" points="1742.34,-125.15 1734.25,-131.99 1744.84,-131.69 1742.34,-125.15"/>
</a>
</g>
</g>
<!-- Node28 -->
<g id="Node000028" class="node">
<title>Node28</title>
<g id="a_Node000028"><a xlink:href="TransformInspectorWidget_8cpp.html" target="_top" xlink:title=" ">
<polygon fill="white" stroke="#666666" points="2091.5,-96 1948.5,-96 1948.5,-66 2091.5,-66 2091.5,-96"/>
<text text-anchor="start" x="1956.5" y="-84" font-family="Helvetica,sans-Serif" font-size="10.00">src/ui/inspector/Transform</text>
<text text-anchor="middle" x="2020" y="-73" font-family="Helvetica,sans-Serif" font-size="10.00">InspectorWidget.cpp</text>
</a>
</g>
</g>
<!-- Node9&#45;&gt;Node28 -->
<g id="edge36_Node000009_Node000028" class="edge">
<title>Node9&#45;&gt;Node28</title>
<g id="a_edge36_Node000009_Node000028"><a xlink:title=" ">
<path fill="none" stroke="#63b8ff" d="M1766.88,-130.08C1817.5,-120.46 1892.96,-106.13 1948.32,-95.61"/>
<polygon fill="#63b8ff" stroke="#63b8ff" points="1765.96,-126.69 1756.79,-131.99 1767.26,-133.57 1765.96,-126.69"/>
</a>
</g>
</g>
<!-- Node11&#45;&gt;Node2 -->
<g id="edge14_Node000011_Node000002" class="edge">
<title>Node11&#45;&gt;Node2</title>
<g id="a_edge14_Node000011_Node000002"><a xlink:title=" ">
<path fill="none" stroke="#63b8ff" d="M1791.23,-66.09C2083.22,-32.16 2418.86,-20.9 2560.97,-17.41"/>
<polygon fill="#63b8ff" stroke="#63b8ff" points="1790.82,-62.61 1781.29,-67.25 1791.63,-69.56 1790.82,-62.61"/>
</a>
</g>
</g>
<!-- Node12 -->
<g id="Node000012" class="node">
<title>Node12</title>
<g id="a_Node000012"><a xlink:href="ScaleHandle_8cpp.html" target="_top" xlink:title=" ">
<polygon fill="white" stroke="#666666" points="1781,-30 1643,-30 1643,0 1781,0 1781,-30"/>
<text text-anchor="start" x="1651" y="-18" font-family="Helvetica,sans-Serif" font-size="10.00">src/graphics/components</text>
<text text-anchor="middle" x="1712" y="-7" font-family="Helvetica,sans-Serif" font-size="10.00">/ScaleHandle.cpp</text>
</a>
</g>
</g>
<!-- Node11&#45;&gt;Node12 -->
<g id="edge15_Node000011_Node000012" class="edge">
<title>Node11&#45;&gt;Node12</title>
<g id="a_edge15_Node000011_Node000012"><a xlink:title=" ">
<path fill="none" stroke="#63b8ff" d="M1712,-55.54C1712,-46.96 1712,-37.61 1712,-30.16"/>
<polygon fill="#63b8ff" stroke="#63b8ff" points="1708.5,-55.8 1712,-65.8 1715.5,-55.8 1708.5,-55.8"/>
</a>
</g>
</g>
<!-- Node17&#45;&gt;Node7 -->
<g id="edge24_Node000017_Node000007" class="edge">
<title>Node17&#45;&gt;Node7</title>
<g id="a_edge24_Node000017_Node000007"><a xlink:title=" ">
<path fill="none" stroke="#63b8ff" d="M1506.81,-65.89C1396.68,-46.87 1280.28,-32.87 1203.99,-24.53"/>
<polygon fill="#63b8ff" stroke="#63b8ff" points="1506.31,-69.35 1516.77,-67.62 1507.52,-62.46 1506.31,-69.35"/>
</a>
</g>
</g>
<!-- Node17&#45;&gt;Node18 -->
<g id="edge25_Node000017_Node000018" class="edge">
<title>Node17&#45;&gt;Node18</title>
<g id="a_edge25_Node000017_Node000018"><a xlink:title=" ">
<path fill="none" stroke="#63b8ff" d="M1571,-55.54C1571,-46.96 1571,-37.61 1571,-30.16"/>
<polygon fill="#63b8ff" stroke="#63b8ff" points="1567.5,-55.8 1571,-65.8 1574.5,-55.8 1567.5,-55.8"/>
</a>
</g>
</g>
<!-- Node19&#45;&gt;Node7 -->
<g id="edge27_Node000019_Node000007" class="edge">
<title>Node19&#45;&gt;Node7</title>
<g id="a_edge27_Node000019_Node000007"><a xlink:title=" ">
<path fill="none" stroke="#63b8ff" d="M2411.74,-66.46C2306.47,-59.35 1500.47,-29.8 1218.2,-19.53"/>
<polygon fill="#63b8ff" stroke="#63b8ff" points="2411.55,-69.96 2421.81,-67.31 2412.14,-62.98 2411.55,-69.96"/>
</a>
</g>
</g>
<!-- Node19&#45;&gt;Node20 -->
<g id="edge28_Node000019_Node000020" class="edge">
<title>Node19&#45;&gt;Node20</title>
<g id="a_edge28_Node000019_Node000020"><a xlink:title=" ">
<path fill="none" stroke="#63b8ff" d="M2540.1,-70.63C2626.56,-58 2779.03,-35.72 2859.98,-23.89"/>
<polygon fill="#63b8ff" stroke="#63b8ff" points="2539.54,-67.18 2530.15,-72.09 2540.55,-74.11 2539.54,-67.18"/>
</a>
</g>
</g>
<!-- Node22 -->
<g id="Node000022" class="node">
<title>Node22</title>
<g id="a_Node000022"><a xlink:href="HierarchyWidget_8cpp.html" target="_top" xlink:title=" ">
<polygon fill="white" stroke="#666666" points="649,-24.5 501,-24.5 501,-5.5 649,-5.5 649,-24.5"/>
<text text-anchor="middle" x="575" y="-12.5" font-family="Helvetica,sans-Serif" font-size="10.00">src/ui/HierarchyWidget.cpp</text>
</a>
</g>
</g>
<!-- Node21&#45;&gt;Node22 -->
<g id="edge30_Node000021_Node000022" class="edge">
<title>Node21&#45;&gt;Node22</title>
<g id="a_edge30_Node000021_Node000022"><a xlink:title=" ">
<path fill="none" stroke="#63b8ff" d="M575,-61.08C575,-49.13 575,-34.22 575,-24.91"/>
<polygon fill="#63b8ff" stroke="#63b8ff" points="571.5,-61.37 575,-71.37 578.5,-61.37 571.5,-61.37"/>
</a>
</g>
</g>
<!-- Node23 -->
<g id="Node000023" class="node">
<title>Node23</title>
<g id="a_Node000023"><a xlink:href="MainWindow_8cpp.html" target="_top" xlink:title=" ">
<polygon fill="white" stroke="#666666" points="364,-24.5 236,-24.5 236,-5.5 364,-5.5 364,-24.5"/>
<text text-anchor="middle" x="300" y="-12.5" font-family="Helvetica,sans-Serif" font-size="10.00">src/ui/MainWindow.cpp</text>
</a>
</g>
</g>
<!-- Node21&#45;&gt;Node23 -->
<g id="edge31_Node000021_Node000023" class="edge">
<title>Node21&#45;&gt;Node23</title>
<g id="a_edge31_Node000021_Node000023"><a xlink:title=" ">
<path fill="none" stroke="#63b8ff" d="M528.17,-69.1C474,-56.49 385.97,-36.01 336.58,-24.51"/>
<polygon fill="#63b8ff" stroke="#63b8ff" points="527.66,-72.58 538.2,-71.44 529.25,-65.76 527.66,-72.58"/>
</a>
</g>
</g>
<!-- Node29&#45;&gt;Node7 -->
<g id="edge38_Node000029_Node000007" class="edge">
<title>Node29&#45;&gt;Node7</title>
<g id="a_edge38_Node000029_Node000007"><a xlink:title=" ">
<path fill="none" stroke="#63b8ff" d="M774.78,-128.64C757.01,-122.06 739.61,-111.85 729,-96 721.58,-84.92 720.19,-76.01 729,-66 748.21,-44.18 913.83,-29.34 1023.56,-21.79"/>
<polygon fill="#63b8ff" stroke="#63b8ff" points="774.05,-132.09 784.64,-131.93 776.26,-125.45 774.05,-132.09"/>
</a>
</g>
</g>
<!-- Node29&#45;&gt;Node15 -->
<g id="edge39_Node000029_Node000015" class="edge">
<title>Node29&#45;&gt;Node15</title>
<g id="a_edge39_Node000029_Node000015"><a xlink:title=" ">
<path fill="none" stroke="#63b8ff" d="M837,-121.66C837,-111.24 837,-98.8 837,-90.67"/>
<polygon fill="#63b8ff" stroke="#63b8ff" points="833.5,-121.87 837,-131.87 840.5,-121.87 833.5,-121.87"/>
</a>
</g>
</g>
<!-- Node30&#45;&gt;Node23 -->
<g id="edge45_Node000030_Node000023" class="edge">
<title>Node30&#45;&gt;Node23</title>
<g id="a_edge45_Node000030_Node000023"><a xlink:title=" ">
<path fill="none" stroke="#63b8ff" d="M224.51,-125.76C214.68,-118.2 204.32,-108.03 199,-96 193.6,-83.81 191.97,-77.33 199,-66 212.52,-44.22 238.65,-31.64 260.94,-24.55"/>
<polygon fill="#63b8ff" stroke="#63b8ff" points="222.7,-128.77 232.87,-131.73 226.76,-123.07 222.7,-128.77"/>
</a>
</g>
</g>
<!-- Node31 -->
<g id="Node000031" class="node">
<title>Node31</title>
<g id="a_Node000031"><a xlink:href="main_8cpp.html" target="_top" xlink:title=" ">
<polygon fill="white" stroke="#666666" points="287.5,-90.5 208.5,-90.5 208.5,-71.5 287.5,-71.5 287.5,-90.5"/>
<text text-anchor="middle" x="248" y="-78.5" font-family="Helvetica,sans-Serif" font-size="10.00">src/main.cpp</text>
</a>
</g>
</g>
<!-- Node30&#45;&gt;Node31 -->
<g id="edge44_Node000030_Node000031" class="edge">
<title>Node30&#45;&gt;Node31</title>
<g id="a_edge44_Node000030_Node000031"><a xlink:title=" ">
<path fill="none" stroke="#63b8ff" d="M248,-121.66C248,-111.24 248,-98.8 248,-90.67"/>
<polygon fill="#63b8ff" stroke="#63b8ff" points="244.5,-121.87 248,-131.87 251.5,-121.87 244.5,-121.87"/>
</a>
</g>
</g>
</g>
</svg>

<g id="navigator" transform="translate(0 0)" fill="#404254">
  <rect fill="#f2f5e9" fill-opacity="0.5" stroke="#606060" stroke-width=".5" x="0" y="0" width="60" height="60"/>
  <use id="zoomplus" xlink:href="#zoomPlus" x="17" y="9" onmousedown="handleZoom(evt,'in')"/>
  <use id="zoomminus" xlink:href="#zoomMin" x="42" y="9" onmousedown="handleZoom(evt,'out')"/>
  <use id="reset" xlink:href="#resetDef" x="30" y="36" onmousedown="handleReset()"/>
   <use id="arrowup" xlink:href="#arrowUp" x="0" y="0" onmousedown="handlePan(0,-1)"/>
  <use id="arrowright" xlink:href="#arrowRight" x="0" y="0" onmousedown="handlePan(1,0)"/>
  <use id="arrowdown" xlink:href="#arrowDown" x="0" y="0" onmousedown="handlePan(0,1)"/>
  <use id="arrowleft" xlink:href="#arrowLeft" x="0" y="0" onmousedown="handlePan(-1,0)"/>
</g>
<svg viewBox="0 0 15 15" width="100%" height="30px" preserveAspectRatio="xMaxYMin meet">
 <g id="arrow_out" transform="scale(0.3 0.3)">
  <a xlink:href="MathUtils_8h__dep__incl_org.svg" target="_base">
   <rect id="button" ry="5" rx="5" y="6" x="6" height="38" width="38"
        fill="#f2f5e9" fill-opacity="0.5" stroke="#606060" stroke-width="1.0"/>
   <path id="arrow"
     d="M 11.500037,31.436501 C 11.940474,20.09759 22.043105,11.32322 32.158766,21.979434 L 37.068811,17.246167 C 37.068811,17.246167 37.088388,32 37.088388,32 L 22.160133,31.978069 C 22.160133,31.978069 26.997745,27.140456 26.997745,27.140456 C 18.528582,18.264221 13.291696,25.230495 11.500037,31.436501 z"
     style="fill:#404040;"/>
  </a>
 </g>
</svg>

<style type='text/css'>
<![CDATA[
[data-mouse-over-selected='false'] { opacity: 0.7; }
[data-mouse-over-selected='true']  { opacity: 1.0; }
]]>
</style>
<script type="application/ecmascript"><![CDATA[
document.addEventListener('DOMContentLoaded', (event) => {
  highlightEdges();
  highlightAdjacentNodes();
});
]]></script>
</svg>
