<?xml version="1.0" encoding="UTF-8" standalone="no"?>
<!DOCTYPE svg PUBLIC "-//W3C//DTD SVG 1.1//EN"
 "http://www.w3.org/Graphics/SVG/1.1/DTD/svg11.dtd">
<!-- Generated by graphviz version 2.43.0 (0)
 -->
<!-- Title: src/graphics/utils/MathUtils.h Pages: 1 -->
<!--zoomable 346 -->

<svg id="main" version="1.1" xmlns="http://www.w3.org/2000/svg" xmlns:xlink="http://www.w3.org/1999/xlink" xml:space="preserve" onload="init(evt)">
<style type="text/css"><![CDATA[
.node, .edge {opacity: 0.7;}
.node.selected, .edge.selected {opacity: 1;}
.edge:hover path { stroke: red; }
.edge:hover polygon { stroke: red; fill: red; }
]]></style>

<defs>
  <circle id="rim" cx="0" cy="0" r="7"/>
  <circle id="rim2" cx="0" cy="0" r="3.5"/>
  <g id="zoomPlus">
    <use xlink:href="#rim" fill="#404040"><set attributeName="fill" to="#808080" begin="zoomplus.mouseover" end="zoomplus.mouseout"/></use>
    <path d="M-4,0h8M0,-4v8" fill="none" stroke="white" stroke-width="1.5" pointer-events="none"/>
  </g>
  <g id="zoomMin">
    <use xlink:href="#rim" fill="#404040"><set attributeName="fill" to="#808080" begin="zoomminus.mouseover" end="zoomminus.mouseout"/></use>
    <path d="M-4,0h8" fill="none" stroke="white" stroke-width="1.5" pointer-events="none"/>
  </g>
  <g id="arrowUp" transform="translate(30 24)">
    <use xlink:href="#rim"/>
    <path pointer-events="none" fill="none" stroke="white" stroke-width="1.5" d="M0,-3.0v7 M-2.5,-0.5L0,-3.0L2.5,-0.5"/>
  </g>
  <g id="arrowRight" transform="rotate(90) translate(36 -43)">
    <use xlink:href="#rim"/>
    <path pointer-events="none" fill="none" stroke="white" stroke-width="1.5" d="M0,-3.0v7 M-2.5,-0.5L0,-3.0L2.5,-0.5"/>
  </g>
  <g id="arrowDown" transform="rotate(180) translate(-30 -48)">
    <use xlink:href="#rim"/>
    <path pointer-events="none" fill="none" stroke="white" stroke-width="1.5" d="M0,-3.0v7 M-2.5,-0.5L0,-3.0L2.5,-0.5"/>
  </g>
  <g id="arrowLeft" transform="rotate(270) translate(-36 17)">
    <use xlink:href="#rim"/>
    <path pointer-events="none" fill="none" stroke="white" stroke-width="1.5" d="M0,-3.0v7 M-2.5,-0.5L0,-3.0L2.5,-0.5"/>
  </g>
  <g id="resetDef">
    <use xlink:href="#rim2" fill="#404040"><set attributeName="fill" to="#808080" begin="reset.mouseover" end="reset.mouseout"/></use>
  </g>
</defs>
<script type="application/ecmascript">
var viewWidth = 2633;
var viewHeight = 346;
var sectionId = 'dynsection-1';
</script>
<script type="application/ecmascript" xlink:href="svg.min.js"/>
<svg id="graph" class="graph">
<g id="viewport">
<title>src/graphics/utils/MathUtils.h</title>
<!-- Node1 -->
<g id="Node000001" class="node">
<title>Node1</title>
<g id="a_Node000001"><a xlink:title=" ">
<polygon fill="#999999" stroke="#666666" points="910.5,-338 811.5,-338 811.5,-308 910.5,-308 910.5,-338"/>
<text text-anchor="start" x="819.5" y="-326" font-family="Helvetica,sans-Serif" font-size="10.00">src/graphics/utils</text>
<text text-anchor="middle" x="861" y="-315" font-family="Helvetica,sans-Serif" font-size="10.00">/MathUtils.h</text>
</a>
</g>
</g>
<!-- Node2 -->
<g id="Node000002" class="node">
<title>Node2</title>
<g id="a_Node000002"><a xlink:href="Gizmo_8cpp.html" target="_top" xlink:title=" ">
<polygon fill="white" stroke="#666666" points="1932,-30 1794,-30 1794,0 1932,0 1932,-30"/>
<text text-anchor="start" x="1802" y="-18" font-family="Helvetica,sans-Serif" font-size="10.00">src/graphics/components</text>
<text text-anchor="middle" x="1863" y="-7" font-family="Helvetica,sans-Serif" font-size="10.00">/Gizmo.cpp</text>
</a>
</g>
</g>
<!-- Node1&#45;&gt;Node2 -->
<g id="edge1_Node000001_Node000002" class="edge">
<title>Node1&#45;&gt;Node2</title>
<g id="a_edge1_Node000001_Node000002"><a xlink:title=" ">
<path fill="none" stroke="#63b8ff" d="M921.02,-321.07C1177.56,-316.95 2175.2,-299.31 2313,-272 2464.26,-242.02 2554.99,-239.28 2612,-96 2616.93,-83.61 2621.11,-75.74 2612,-66 2588.96,-41.37 2113.47,-23.88 1932.29,-18.09"/>
<polygon fill="#63b8ff" stroke="#63b8ff" points="920.73,-317.58 910.78,-321.24 920.84,-324.58 920.73,-317.58"/>
</a>
</g>
</g>
<!-- Node3 -->
<g id="Node000003" class="node">
<title>Node3</title>
<g id="a_Node000003"><a xlink:href="RotateHandle_8cpp.html" target="_top" xlink:title=" ">
<polygon fill="white" stroke="#666666" points="138,-96 0,-96 0,-66 138,-66 138,-96"/>
<text text-anchor="start" x="8" y="-84" font-family="Helvetica,sans-Serif" font-size="10.00">src/graphics/components</text>
<text text-anchor="middle" x="69" y="-73" font-family="Helvetica,sans-Serif" font-size="10.00">/RotateHandle.cpp</text>
</a>
</g>
</g>
<!-- Node1&#45;&gt;Node3 -->
<g id="edge2_Node000001_Node000003" class="edge">
<title>Node1&#45;&gt;Node3</title>
<g id="a_edge2_Node000001_Node000003"><a xlink:title=" ">
<path fill="none" stroke="#63b8ff" d="M801.02,-318.88C728.17,-313.93 602.11,-301.59 498,-272 337.37,-226.35 158.9,-131.97 94.17,-96.18"/>
<polygon fill="#63b8ff" stroke="#63b8ff" points="801.16,-322.4 811.37,-319.56 801.62,-315.42 801.16,-322.4"/>
</a>
</g>
</g>
<!-- Node4 -->
<g id="Node000004" class="node">
<title>Node4</title>
<g id="a_Node000004"><a xlink:href="TranslateHandle_8cpp.html" target="_top" xlink:title=" ">
<polygon fill="white" stroke="#666666" points="294,-96 156,-96 156,-66 294,-66 294,-96"/>
<text text-anchor="start" x="164" y="-84" font-family="Helvetica,sans-Serif" font-size="10.00">src/graphics/components</text>
<text text-anchor="middle" x="225" y="-73" font-family="Helvetica,sans-Serif" font-size="10.00">/TranslateHandle.cpp</text>
</a>
</g>
</g>
<!-- Node1&#45;&gt;Node4 -->
<g id="edge3_Node000001_Node000004" class="edge">
<title>Node1&#45;&gt;Node4</title>
<g id="a_edge3_Node000001_Node000004"><a xlink:title=" ">
<path fill="none" stroke="#63b8ff" d="M801,-317.28C741.93,-311.31 649.8,-298.43 574,-272 440.46,-225.44 297,-131.61 245.13,-96.07"/>
<polygon fill="#63b8ff" stroke="#63b8ff" points="800.98,-320.79 811.28,-318.28 801.66,-313.82 800.98,-320.79"/>
</a>
</g>
</g>
<!-- Node5 -->
<g id="Node000005" class="node">
<title>Node5</title>
<g id="a_Node000005"><a xlink:href="ResourceManager_8cpp.html" target="_top" xlink:title=" ">
<polygon fill="white" stroke="#666666" points="783.5,-272 636.5,-272 636.5,-242 783.5,-242 783.5,-272"/>
<text text-anchor="start" x="644.5" y="-260" font-family="Helvetica,sans-Serif" font-size="10.00">src/graphics/core/Resource</text>
<text text-anchor="middle" x="710" y="-249" font-family="Helvetica,sans-Serif" font-size="10.00">Manager.cpp</text>
</a>
</g>
</g>
<!-- Node1&#45;&gt;Node5 -->
<g id="edge4_Node000001_Node000005" class="edge">
<title>Node1&#45;&gt;Node5</title>
<g id="a_edge4_Node000001_Node000005"><a xlink:title=" ">
<path fill="none" stroke="#63b8ff" d="M818.34,-303.92C794.47,-293.8 765.17,-281.38 743.06,-272.01"/>
<polygon fill="#63b8ff" stroke="#63b8ff" points="817.29,-307.28 827.86,-307.95 820.02,-300.83 817.29,-307.28"/>
</a>
</g>
</g>
<!-- Node6 -->
<g id="Node000006" class="node">
<title>Node6</title>
<g id="a_Node000006"><a xlink:href="Scene_8cpp.html" target="_top" xlink:title=" ">
<polygon fill="white" stroke="#666666" points="666,-90.5 514,-90.5 514,-71.5 666,-71.5 666,-90.5"/>
<text text-anchor="middle" x="590" y="-78.5" font-family="Helvetica,sans-Serif" font-size="10.00">src/graphics/core/Scene.cpp</text>
</a>
</g>
</g>
<!-- Node1&#45;&gt;Node6 -->
<g id="edge5_Node000001_Node000006" class="edge">
<title>Node1&#45;&gt;Node6</title>
<g id="a_edge5_Node000001_Node000006"><a xlink:title=" ">
<path fill="none" stroke="#63b8ff" d="M843.86,-299.93C830.49,-283.28 811.05,-260.27 792,-242 725.49,-178.21 635.22,-113.48 602.49,-90.63"/>
<polygon fill="#63b8ff" stroke="#63b8ff" points="841.3,-302.34 850.26,-308 846.78,-297.99 841.3,-302.34"/>
</a>
</g>
</g>
<!-- Node7 -->
<g id="Node000007" class="node">
<title>Node7</title>
<g id="a_Node000007"><a xlink:href="Scene_8h.html" target="_top" xlink:title=" ">
<polygon fill="white" stroke="#666666" points="980,-266.5 840,-266.5 840,-247.5 980,-247.5 980,-266.5"/>
<text text-anchor="middle" x="910" y="-254.5" font-family="Helvetica,sans-Serif" font-size="10.00">src/graphics/core/Scene.h</text>
</a>
</g>
</g>
<!-- Node1&#45;&gt;Node7 -->
<g id="edge6_Node000001_Node000007" class="edge">
<title>Node1&#45;&gt;Node7</title>
<g id="a_edge6_Node000001_Node000007"><a xlink:title=" ">
<path fill="none" stroke="#63b8ff" d="M878.14,-299.61C886.78,-288.32 896.77,-275.28 903.23,-266.84"/>
<polygon fill="#63b8ff" stroke="#63b8ff" points="875.17,-297.73 871.87,-307.8 880.73,-301.98 875.17,-297.73"/>
</a>
</g>
</g>
<!-- Node10 -->
<g id="Node000010" class="node">
<title>Node10</title>
<g id="a_Node000010"><a xlink:href="SceneObject_8cpp.html" target="_top" xlink:title=" ">
<polygon fill="white" stroke="#666666" points="495.5,-90.5 312.5,-90.5 312.5,-71.5 495.5,-71.5 495.5,-90.5"/>
<text text-anchor="middle" x="404" y="-78.5" font-family="Helvetica,sans-Serif" font-size="10.00">src/graphics/core/SceneObject.cpp</text>
</a>
</g>
</g>
<!-- Node1&#45;&gt;Node10 -->
<g id="edge43_Node000001_Node000010" class="edge">
<title>Node1&#45;&gt;Node10</title>
<g id="a_edge43_Node000001_Node000010"><a xlink:title=" ">
<path fill="none" stroke="#63b8ff" d="M801.08,-317.38C752.15,-311.73 682.31,-299.27 627,-272 528.46,-223.42 437.45,-121.55 411.41,-90.91"/>
<polygon fill="#63b8ff" stroke="#63b8ff" points="800.87,-320.88 811.19,-318.49 801.63,-313.92 800.87,-320.88"/>
</a>
</g>
</g>
<!-- Node28 -->
<g id="Node000028" class="node">
<title>Node28</title>
<g id="a_Node000028"><a xlink:href="MathUtils_8cpp.html" target="_top" xlink:title=" ">
<polygon fill="white" stroke="#666666" points="2118.5,-272 2019.5,-272 2019.5,-242 2118.5,-242 2118.5,-272"/>
<text text-anchor="start" x="2027.5" y="-260" font-family="Helvetica,sans-Serif" font-size="10.00">src/graphics/utils</text>
<text text-anchor="middle" x="2069" y="-249" font-family="Helvetica,sans-Serif" font-size="10.00">/MathUtils.cpp</text>
</a>
</g>
</g>
<!-- Node1&#45;&gt;Node28 -->
<g id="edge44_Node000001_Node000028" class="edge">
<title>Node1&#45;&gt;Node28</title>
<g id="a_edge44_Node000001_Node000028"><a xlink:title=" ">
<path fill="none" stroke="#63b8ff" d="M920.82,-320.93C1125.55,-317.02 1797.29,-302.15 2011,-272 2013.77,-271.61 2016.6,-271.15 2019.45,-270.63"/>
<polygon fill="#63b8ff" stroke="#63b8ff" points="920.5,-317.43 910.57,-321.12 920.63,-324.43 920.5,-317.43"/>
</a>
</g>
</g>
<!-- Node29 -->
<g id="Node000029" class="node">
<title>Node29</title>
<g id="a_Node000029"><a xlink:href="PhysicsSystem_8cpp.html" target="_top" xlink:title=" ">
<polygon fill="white" stroke="#666666" points="2303.5,-266.5 2136.5,-266.5 2136.5,-247.5 2303.5,-247.5 2303.5,-266.5"/>
<text text-anchor="middle" x="2220" y="-254.5" font-family="Helvetica,sans-Serif" font-size="10.00">src/physics/PhysicsSystem.cpp</text>
</a>
</g>
</g>
<!-- Node1&#45;&gt;Node29 -->
<g id="edge45_Node000001_Node000029" class="edge">
<title>Node1&#45;&gt;Node29</title>
<g id="a_edge45_Node000001_Node000029"><a xlink:title=" ">
<path fill="none" stroke="#63b8ff" d="M920.8,-322.01C1102.62,-321.51 1664.75,-316.25 2128,-272 2141.99,-270.66 2157.1,-268.62 2170.95,-266.5"/>
<polygon fill="#63b8ff" stroke="#63b8ff" points="920.63,-318.51 910.64,-322.03 920.65,-325.51 920.63,-318.51"/>
</a>
</g>
</g>
<!-- Node30 -->
<g id="Node000030" class="node">
<title>Node30</title>
<g id="a_Node000030"><a xlink:href="OpenGLWindow_8h.html" target="_top" xlink:title=" ">
<polygon fill="white" stroke="#666666" points="2001.5,-266.5 1870.5,-266.5 1870.5,-247.5 2001.5,-247.5 2001.5,-266.5"/>
<text text-anchor="middle" x="1936" y="-254.5" font-family="Helvetica,sans-Serif" font-size="10.00">src/ui/OpenGLWindow.h</text>
</a>
</g>
</g>
<!-- Node1&#45;&gt;Node30 -->
<g id="edge46_Node000001_Node000030" class="edge">
<title>Node1&#45;&gt;Node30</title>
<g id="a_edge46_Node000001_Node000030"><a xlink:title=" ">
<path fill="none" stroke="#63b8ff" d="M920.85,-318.44C1107.22,-307.34 1676.31,-273.46 1870.36,-261.91"/>
<polygon fill="#63b8ff" stroke="#63b8ff" points="920.47,-314.95 910.69,-319.04 920.88,-321.94 920.47,-314.95"/>
</a>
</g>
</g>
<!-- Node7&#45;&gt;Node6 -->
<g id="edge7_Node000007_Node000006" class="edge">
<title>Node7&#45;&gt;Node6</title>
<g id="a_edge7_Node000007_Node000006"><a xlink:title=" ">
<path fill="none" stroke="#63b8ff" d="M903.02,-237.82C891.44,-210.26 865.55,-158.34 826,-132 810.62,-121.76 704.26,-101.87 639.69,-90.51"/>
<polygon fill="#63b8ff" stroke="#63b8ff" points="899.89,-239.42 906.87,-247.39 906.38,-236.81 899.89,-239.42"/>
</a>
</g>
</g>
<!-- Node8 -->
<g id="Node000008" class="node">
<title>Node8</title>
<g id="a_Node000008"><a xlink:href="SceneManager_8h.html" target="_top" xlink:title=" ">
<polygon fill="white" stroke="#666666" points="2027,-206 1845,-206 1845,-187 2027,-187 2027,-206"/>
<text text-anchor="middle" x="1936" y="-194" font-family="Helvetica,sans-Serif" font-size="10.00">src/graphics/core/SceneManager.h</text>
</a>
</g>
</g>
<!-- Node7&#45;&gt;Node8 -->
<g id="edge8_Node000007_Node000008" class="edge">
<title>Node7&#45;&gt;Node8</title>
<g id="a_edge8_Node000007_Node000008"><a xlink:title=" ">
<path fill="none" stroke="#63b8ff" d="M990.21,-251.43C1178.19,-240.71 1646.27,-214.02 1844.74,-202.7"/>
<polygon fill="#63b8ff" stroke="#63b8ff" points="989.9,-247.94 980.12,-252 990.3,-254.93 989.9,-247.94"/>
</a>
</g>
</g>
<!-- Node7&#45;&gt;Node10 -->
<g id="edge41_Node000007_Node000010" class="edge">
<title>Node7&#45;&gt;Node10</title>
<g id="a_edge41_Node000007_Node000010"><a xlink:title=" ">
<path fill="none" stroke="#63b8ff" d="M875.77,-244.23C780.24,-211.38 512.25,-119.23 429,-90.6"/>
<polygon fill="#63b8ff" stroke="#63b8ff" points="874.66,-247.55 885.25,-247.49 876.93,-240.93 874.66,-247.55"/>
</a>
</g>
</g>
<!-- Node27 -->
<g id="Node000027" class="node">
<title>Node27</title>
<g id="a_Node000027"><a xlink:href="OpenGLWindow_8cpp.html" target="_top" xlink:title=" ">
<polygon fill="white" stroke="#666666" points="2357,-151 2215,-151 2215,-132 2357,-132 2357,-151"/>
<text text-anchor="middle" x="2286" y="-139" font-family="Helvetica,sans-Serif" font-size="10.00">src/ui/OpenGLWindow.cpp</text>
</a>
</g>
</g>
<!-- Node7&#45;&gt;Node27 -->
<g id="edge42_Node000007_Node000027" class="edge">
<title>Node7&#45;&gt;Node27</title>
<g id="a_edge42_Node000007_Node000027"><a xlink:title=" ">
<path fill="none" stroke="#63b8ff" d="M990.56,-255.11C1213.4,-252.23 1834.88,-241.18 2036,-206 2063.97,-201.11 2069.61,-194.48 2097,-187 2148.05,-173.06 2207.57,-159.48 2245.97,-151.06"/>
<polygon fill="#63b8ff" stroke="#63b8ff" points="990.2,-251.62 980.25,-255.24 990.29,-258.62 990.2,-251.62"/>
</a>
</g>
</g>
<!-- Node8&#45;&gt;Node2 -->
<g id="edge9_Node000008_Node000002" class="edge">
<title>Node8&#45;&gt;Node2</title>
<g id="a_edge9_Node000008_Node000002"><a xlink:title=" ">
<path fill="none" stroke="#63b8ff" d="M2013.84,-185.44C2058.98,-178.38 2116.51,-167.25 2166,-151 2184.7,-144.86 2187.19,-137.79 2206,-132 2255.86,-116.65 2404.05,-135.62 2438,-96 2446.68,-85.87 2447.01,-75.83 2438,-66 2404.42,-29.37 2077.61,-19.49 1932.18,-16.89"/>
<polygon fill="#63b8ff" stroke="#63b8ff" points="2013.17,-182 2003.81,-186.98 2014.23,-188.92 2013.17,-182"/>
</a>
</g>
</g>
<!-- Node9 -->
<g id="Node000009" class="node">
<title>Node9</title>
<g id="a_Node000009"><a xlink:href="SceneManager_8cpp.html" target="_top" xlink:title=" ">
<polygon fill="white" stroke="#666666" points="2429,-90.5 2235,-90.5 2235,-71.5 2429,-71.5 2429,-90.5"/>
<text text-anchor="middle" x="2332" y="-78.5" font-family="Helvetica,sans-Serif" font-size="10.00">src/graphics/core/SceneManager.cpp</text>
</a>
</g>
</g>
<!-- Node8&#45;&gt;Node9 -->
<g id="edge10_Node000008_Node000009" class="edge">
<title>Node8&#45;&gt;Node9</title>
<g id="a_edge10_Node000008_Node000009"><a xlink:title=" ">
<path fill="none" stroke="#63b8ff" d="M1996.18,-185.01C2035.17,-177.42 2086.74,-165.89 2131,-151 2150.42,-144.47 2153.86,-139.31 2173,-132 2216.79,-115.28 2268.83,-99.7 2301.14,-90.51"/>
<polygon fill="#63b8ff" stroke="#63b8ff" points="1995.21,-181.63 1986.05,-186.95 1996.53,-188.5 1995.21,-181.63"/>
</a>
</g>
</g>
<!-- Node8&#45;&gt;Node10 -->
<g id="edge11_Node000008_Node000010" class="edge">
<title>Node8&#45;&gt;Node10</title>
<g id="a_edge11_Node000008_Node000010"><a xlink:title=" ">
<path fill="none" stroke="#63b8ff" d="M1834.76,-192.37C1667.05,-186.77 1321.1,-173.48 1029,-151 795.52,-133.03 737.45,-124.3 505,-96 491.38,-94.34 476.75,-92.4 462.97,-90.51"/>
<polygon fill="#63b8ff" stroke="#63b8ff" points="1834.7,-195.87 1844.81,-192.7 1834.93,-188.87 1834.7,-195.87"/>
</a>
</g>
</g>
<!-- Node11 -->
<g id="Node000011" class="node">
<title>Node11</title>
<g id="a_Node000011"><a xlink:href="SceneObject_8h.html" target="_top" xlink:title=" ">
<polygon fill="white" stroke="#666666" points="1354,-151 1182,-151 1182,-132 1354,-132 1354,-151"/>
<text text-anchor="middle" x="1268" y="-139" font-family="Helvetica,sans-Serif" font-size="10.00">src/graphics/core/SceneObject.h</text>
</a>
</g>
</g>
<!-- Node8&#45;&gt;Node11 -->
<g id="edge12_Node000008_Node000011" class="edge">
<title>Node8&#45;&gt;Node11</title>
<g id="a_edge12_Node000008_Node000011"><a xlink:title=" ">
<path fill="none" stroke="#63b8ff" d="M1834.82,-187.47C1703.77,-177.07 1477.55,-159.13 1354.25,-149.34"/>
<polygon fill="#63b8ff" stroke="#63b8ff" points="1834.62,-190.97 1844.87,-188.27 1835.18,-183.99 1834.62,-190.97"/>
</a>
</g>
</g>
<!-- Node20 -->
<g id="Node000020" class="node">
<title>Node20</title>
<g id="a_Node000020"><a xlink:href="GlobalsInspectorWidget_8cpp.html" target="_top" xlink:title=" ">
<polygon fill="white" stroke="#666666" points="815.5,-96 684.5,-96 684.5,-66 815.5,-66 815.5,-96"/>
<text text-anchor="start" x="692.5" y="-84" font-family="Helvetica,sans-Serif" font-size="10.00">src/ui/inspector/Globals</text>
<text text-anchor="middle" x="750" y="-73" font-family="Helvetica,sans-Serif" font-size="10.00">InspectorWidget.cpp</text>
</a>
</g>
</g>
<!-- Node8&#45;&gt;Node20 -->
<g id="edge39_Node000008_Node000020" class="edge">
<title>Node8&#45;&gt;Node20</title>
<g id="a_edge39_Node000008_Node000020"><a xlink:title=" ">
<path fill="none" stroke="#63b8ff" d="M1834.42,-192.76C1687.95,-188.08 1409.09,-176.48 1173,-151 1045.76,-137.27 898.55,-110.84 815.64,-94.98"/>
<polygon fill="#63b8ff" stroke="#63b8ff" points="1834.63,-196.27 1844.74,-193.08 1834.85,-189.27 1834.63,-196.27"/>
</a>
</g>
</g>
<!-- Node21 -->
<g id="Node000021" class="node">
<title>Node21</title>
<g id="a_Node000021"><a xlink:href="InspectorWidget_8cpp.html" target="_top" xlink:title=" ">
<polygon fill="white" stroke="#666666" points="2001.5,-96 1862.5,-96 1862.5,-66 2001.5,-66 2001.5,-96"/>
<text text-anchor="start" x="1870.5" y="-84" font-family="Helvetica,sans-Serif" font-size="10.00">src/ui/inspector/Inspector</text>
<text text-anchor="middle" x="1932" y="-73" font-family="Helvetica,sans-Serif" font-size="10.00">Widget.cpp</text>
</a>
</g>
</g>
<!-- Node8&#45;&gt;Node21 -->
<g id="edge40_Node000008_Node000021" class="edge">
<title>Node8&#45;&gt;Node21</title>
<g id="a_edge40_Node000008_Node000021"><a xlink:title=" ">
<path fill="none" stroke="#63b8ff" d="M1931.86,-176.71C1930.32,-168.81 1928.76,-159.5 1928,-151 1926.31,-132 1928.26,-109.98 1929.98,-96.03"/>
<polygon fill="#63b8ff" stroke="#63b8ff" points="1928.47,-177.62 1933.94,-186.7 1935.32,-176.19 1928.47,-177.62"/>
</a>
</g>
</g>
<!-- Node24 -->
<g id="Node000024" class="node">
<title>Node24</title>
<g id="a_Node000024"><a xlink:href="SceneSerializer_8h.html" target="_top" xlink:title=" ">
<polygon fill="white" stroke="#666666" points="2121.5,-151 1936.5,-151 1936.5,-132 2121.5,-132 2121.5,-151"/>
<text text-anchor="middle" x="2029" y="-139" font-family="Helvetica,sans-Serif" font-size="10.00">src/graphics/core/SceneSerializer.h</text>
</a>
</g>
</g>
<!-- Node8&#45;&gt;Node24 -->
<g id="edge32_Node000008_Node000024" class="edge">
<title>Node8&#45;&gt;Node24</title>
<g id="a_edge32_Node000008_Node000024"><a xlink:title=" ">
<path fill="none" stroke="#63b8ff" d="M1959.75,-181.97C1976.75,-172.28 1999.13,-159.52 2013.79,-151.17"/>
<polygon fill="#63b8ff" stroke="#63b8ff" points="1957.9,-178.99 1950.94,-186.98 1961.36,-185.07 1957.9,-178.99"/>
</a>
</g>
</g>
<!-- Node25 -->
<g id="Node000025" class="node">
<title>Node25</title>
<g id="a_Node000025"><a xlink:href="MainWindow_8h.html" target="_top" xlink:title=" ">
<polygon fill="white" stroke="#666666" points="2530.5,-151 2413.5,-151 2413.5,-132 2530.5,-132 2530.5,-151"/>
<text text-anchor="middle" x="2472" y="-139" font-family="Helvetica,sans-Serif" font-size="10.00">src/ui/MainWindow.h</text>
</a>
</g>
</g>
<!-- Node8&#45;&gt;Node25 -->
<g id="edge35_Node000008_Node000025" class="edge">
<title>Node8&#45;&gt;Node25</title>
<g id="a_edge35_Node000008_Node000025"><a xlink:title=" ">
<path fill="none" stroke="#63b8ff" d="M2032.3,-185.98C2143.14,-175.02 2321.67,-157.37 2413.41,-148.29"/>
<polygon fill="#63b8ff" stroke="#63b8ff" points="2031.72,-182.52 2022.12,-186.98 2032.41,-189.48 2031.72,-182.52"/>
</a>
</g>
</g>
<!-- Node8&#45;&gt;Node27 -->
<g id="edge38_Node000008_Node000027" class="edge">
<title>Node8&#45;&gt;Node27</title>
<g id="a_edge38_Node000008_Node000027"><a xlink:title=" ">
<path fill="none" stroke="#63b8ff" d="M2002.48,-185.43C2068.2,-175.48 2167.65,-160.42 2229.62,-151.04"/>
<polygon fill="#63b8ff" stroke="#63b8ff" points="2001.6,-182.03 1992.23,-186.98 2002.64,-188.95 2001.6,-182.03"/>
</a>
</g>
</g>
<!-- Node11&#45;&gt;Node2 -->
<g id="edge13_Node000011_Node000002" class="edge">
<title>Node11&#45;&gt;Node2</title>
<g id="a_edge13_Node000011_Node000002"><a xlink:title=" ">
<path fill="none" stroke="#63b8ff" d="M1278.5,-122.87C1290.13,-105.13 1310.62,-78.67 1336,-66 1414.54,-26.82 1669.24,-18.27 1793.52,-16.46"/>
<polygon fill="#63b8ff" stroke="#63b8ff" points="1275.33,-121.34 1272.98,-131.67 1281.26,-125.06 1275.33,-121.34"/>
</a>
</g>
</g>
<!-- Node11&#45;&gt;Node3 -->
<g id="edge14_Node000011_Node000003" class="edge">
<title>Node11&#45;&gt;Node3</title>
<g id="a_edge14_Node000011_Node000003"><a xlink:title=" ">
<path fill="none" stroke="#63b8ff" d="M1171.73,-141.14C977.4,-141.44 524.59,-137.18 147,-96 144.13,-95.69 141.2,-95.33 138.25,-94.94"/>
<polygon fill="#63b8ff" stroke="#63b8ff" points="1171.92,-144.64 1181.91,-141.12 1171.91,-137.64 1171.92,-144.64"/>
</a>
</g>
</g>
<!-- Node11&#45;&gt;Node4 -->
<g id="edge18_Node000011_Node000004" class="edge">
<title>Node11&#45;&gt;Node4</title>
<g id="a_edge18_Node000011_Node000004"><a xlink:title=" ">
<path fill="none" stroke="#63b8ff" d="M1171.7,-140.24C997.71,-138.85 619.61,-131.56 303,-96 300.13,-95.68 297.2,-95.31 294.25,-94.92"/>
<polygon fill="#63b8ff" stroke="#63b8ff" points="1171.83,-143.74 1181.85,-140.32 1171.88,-136.74 1171.83,-143.74"/>
</a>
</g>
</g>
<!-- Node11&#45;&gt;Node6 -->
<g id="edge20_Node000011_Node000006" class="edge">
<title>Node11&#45;&gt;Node6</title>
<g id="a_edge20_Node000011_Node000006"><a xlink:title=" ">
<path fill="none" stroke="#63b8ff" d="M1171.79,-135.9C1054.28,-129.67 849.56,-116.88 675,-96 662.67,-94.53 649.41,-92.54 637.1,-90.52"/>
<polygon fill="#63b8ff" stroke="#63b8ff" points="1171.67,-139.4 1181.84,-136.43 1172.04,-132.41 1171.67,-139.4"/>
</a>
</g>
</g>
<!-- Node11&#45;&gt;Node9 -->
<g id="edge21_Node000011_Node000009" class="edge">
<title>Node11&#45;&gt;Node9</title>
<g id="a_edge21_Node000011_Node000009"><a xlink:title=" ">
<path fill="none" stroke="#63b8ff" d="M1364.12,-138.73C1536.92,-134.96 1911.36,-124.03 2226,-96 2241.72,-94.6 2258.68,-92.59 2274.33,-90.52"/>
<polygon fill="#63b8ff" stroke="#63b8ff" points="1363.96,-135.24 1354.04,-138.95 1364.11,-142.23 1363.96,-135.24"/>
</a>
</g>
</g>
<!-- Node11&#45;&gt;Node10 -->
<g id="edge22_Node000011_Node000010" class="edge">
<title>Node11&#45;&gt;Node10</title>
<g id="a_edge22_Node000011_Node000010"><a xlink:title=" ">
<path fill="none" stroke="#63b8ff" d="M1171.52,-137.33C1026.56,-132.02 744.06,-119.5 505,-96 490.29,-94.55 474.43,-92.56 459.74,-90.53"/>
<polygon fill="#63b8ff" stroke="#63b8ff" points="1171.6,-140.84 1181.72,-137.7 1171.85,-133.84 1171.6,-140.84"/>
</a>
</g>
</g>
<!-- Node12 -->
<g id="Node000012" class="node">
<title>Node12</title>
<g id="a_Node000012"><a xlink:href="ScaleHandle_8h.html" target="_top" xlink:title=" ">
<polygon fill="white" stroke="#666666" points="972,-96 834,-96 834,-66 972,-66 972,-96"/>
<text text-anchor="start" x="842" y="-84" font-family="Helvetica,sans-Serif" font-size="10.00">src/graphics/components</text>
<text text-anchor="middle" x="903" y="-73" font-family="Helvetica,sans-Serif" font-size="10.00">/ScaleHandle.h</text>
</a>
</g>
</g>
<!-- Node11&#45;&gt;Node12 -->
<g id="edge15_Node000011_Node000012" class="edge">
<title>Node11&#45;&gt;Node12</title>
<g id="a_edge15_Node000011_Node000012"><a xlink:title=" ">
<path fill="none" stroke="#63b8ff" d="M1200.31,-130.47C1142.11,-121.73 1055.95,-108.53 981,-96 978.15,-95.52 975.24,-95.03 972.31,-94.53"/>
<polygon fill="#63b8ff" stroke="#63b8ff" points="1200.08,-133.97 1210.49,-131.99 1201.12,-127.05 1200.08,-133.97"/>
</a>
</g>
</g>
<!-- Node14 -->
<g id="Node000014" class="node">
<title>Node14</title>
<g id="a_Node000014"><a xlink:href="Camera_8cpp.html" target="_top" xlink:title=" ">
<polygon fill="white" stroke="#666666" points="1506.5,-90.5 1345.5,-90.5 1345.5,-71.5 1506.5,-71.5 1506.5,-90.5"/>
<text text-anchor="middle" x="1426" y="-78.5" font-family="Helvetica,sans-Serif" font-size="10.00">src/graphics/core/Camera.cpp</text>
</a>
</g>
</g>
<!-- Node11&#45;&gt;Node14 -->
<g id="edge19_Node000011_Node000014" class="edge">
<title>Node11&#45;&gt;Node14</title>
<g id="a_edge19_Node000011_Node000014"><a xlink:title=" ">
<path fill="none" stroke="#63b8ff" d="M1300.74,-128.38C1331.28,-117.07 1376.07,-100.49 1403,-90.52"/>
<polygon fill="#63b8ff" stroke="#63b8ff" points="1299.14,-125.24 1290.97,-131.99 1301.57,-131.8 1299.14,-125.24"/>
</a>
</g>
</g>
<!-- Node15 -->
<g id="Node000015" class="node">
<title>Node15</title>
<g id="a_Node000015"><a xlink:href="SceneSerializer_8cpp.html" target="_top" xlink:title=" ">
<polygon fill="white" stroke="#666666" points="2216.5,-90.5 2019.5,-90.5 2019.5,-71.5 2216.5,-71.5 2216.5,-90.5"/>
<text text-anchor="middle" x="2118" y="-78.5" font-family="Helvetica,sans-Serif" font-size="10.00">src/graphics/core/SceneSerializer.cpp</text>
</a>
</g>
</g>
<!-- Node11&#45;&gt;Node15 -->
<g id="edge23_Node000011_Node000015" class="edge">
<title>Node11&#45;&gt;Node15</title>
<g id="a_edge23_Node000011_Node000015"><a xlink:title=" ">
<path fill="none" stroke="#63b8ff" d="M1364.65,-136.88C1506.57,-131.08 1779.61,-118.04 2011,-96 2026.48,-94.53 2043.17,-92.54 2058.66,-90.52"/>
<polygon fill="#63b8ff" stroke="#63b8ff" points="1364.09,-133.4 1354.24,-137.3 1364.37,-140.4 1364.09,-133.4"/>
</a>
</g>
</g>
<!-- Node16 -->
<g id="Node000016" class="node">
<title>Node16</title>
<g id="a_Node000016"><a xlink:href="HierarchyWidget_8h.html" target="_top" xlink:title=" ">
<polygon fill="white" stroke="#666666" points="1288.5,-90.5 1151.5,-90.5 1151.5,-71.5 1288.5,-71.5 1288.5,-90.5"/>
<text text-anchor="middle" x="1220" y="-78.5" font-family="Helvetica,sans-Serif" font-size="10.00">src/ui/HierarchyWidget.h</text>
</a>
</g>
</g>
<!-- Node11&#45;&gt;Node16 -->
<g id="edge24_Node000011_Node000016" class="edge">
<title>Node11&#45;&gt;Node16</title>
<g id="a_edge24_Node000011_Node000016"><a xlink:title=" ">
<path fill="none" stroke="#63b8ff" d="M1254.42,-123.95C1245.54,-113.12 1234.28,-99.41 1227.11,-90.67"/>
<polygon fill="#63b8ff" stroke="#63b8ff" points="1251.87,-126.36 1260.92,-131.87 1257.28,-121.92 1251.87,-126.36"/>
</a>
</g>
</g>
<!-- Node19 -->
<g id="Node000019" class="node">
<title>Node19</title>
<g id="a_Node000019"><a xlink:href="ForcesInspectorWidget_8cpp.html" target="_top" xlink:title=" ">
<polygon fill="white" stroke="#666666" points="1695,-96 1525,-96 1525,-66 1695,-66 1695,-96"/>
<text text-anchor="start" x="1533" y="-84" font-family="Helvetica,sans-Serif" font-size="10.00">src/ui/inspector/ForcesInspector</text>
<text text-anchor="middle" x="1610" y="-73" font-family="Helvetica,sans-Serif" font-size="10.00">Widget.cpp</text>
</a>
</g>
</g>
<!-- Node11&#45;&gt;Node19 -->
<g id="edge27_Node000011_Node000019" class="edge">
<title>Node11&#45;&gt;Node19</title>
<g id="a_edge27_Node000011_Node000019"><a xlink:title=" ">
<path fill="none" stroke="#63b8ff" d="M1327.76,-130.28C1383.28,-120.78 1466.43,-106.56 1528.11,-96.01"/>
<polygon fill="#63b8ff" stroke="#63b8ff" points="1327,-126.86 1317.73,-131.99 1328.18,-133.76 1327,-126.86"/>
</a>
</g>
</g>
<!-- Node11&#45;&gt;Node20 -->
<g id="edge28_Node000011_Node000020" class="edge">
<title>Node11&#45;&gt;Node20</title>
<g id="a_edge28_Node000011_Node000020"><a xlink:title=" ">
<path fill="none" stroke="#63b8ff" d="M1171.81,-133.19C1081.88,-125.81 943.99,-113.05 825,-96 821.98,-95.57 818.91,-95.1 815.8,-94.61"/>
<polygon fill="#63b8ff" stroke="#63b8ff" points="1171.73,-136.7 1181.99,-134.02 1172.3,-129.72 1171.73,-136.7"/>
</a>
</g>
</g>
<!-- Node11&#45;&gt;Node21 -->
<g id="edge29_Node000011_Node000021" class="edge">
<title>Node11&#45;&gt;Node21</title>
<g id="a_edge29_Node000011_Node000021"><a xlink:title=" ">
<path fill="none" stroke="#63b8ff" d="M1364.47,-136.19C1480.86,-130.29 1682.31,-117.87 1854,-96 1856.73,-95.65 1859.51,-95.27 1862.31,-94.87"/>
<polygon fill="#63b8ff" stroke="#63b8ff" points="1363.98,-132.71 1354.17,-136.71 1364.33,-139.7 1363.98,-132.71"/>
</a>
</g>
</g>
<!-- Node22 -->
<g id="Node000022" class="node">
<title>Node22</title>
<g id="a_Node000022"><a xlink:href="PhysicsInspectorWidget_8cpp.html" target="_top" xlink:title=" ">
<polygon fill="white" stroke="#666666" points="1844.5,-96 1713.5,-96 1713.5,-66 1844.5,-66 1844.5,-96"/>
<text text-anchor="start" x="1721.5" y="-84" font-family="Helvetica,sans-Serif" font-size="10.00">src/ui/inspector/Physics</text>
<text text-anchor="middle" x="1779" y="-73" font-family="Helvetica,sans-Serif" font-size="10.00">InspectorWidget.cpp</text>
</a>
</g>
</g>
<!-- Node11&#45;&gt;Node22 -->
<g id="edge30_Node000011_Node000022" class="edge">
<title>Node11&#45;&gt;Node22</title>
<g id="a_edge30_Node000011_Node000022"><a xlink:title=" ">
<path fill="none" stroke="#63b8ff" d="M1364.32,-132.98C1452.85,-125.51 1587.61,-112.77 1704,-96 1707.02,-95.57 1710.09,-95.1 1713.2,-94.6"/>
<polygon fill="#63b8ff" stroke="#63b8ff" points="1363.97,-129.49 1354.29,-133.81 1364.55,-136.47 1363.97,-129.49"/>
</a>
</g>
</g>
<!-- Node23 -->
<g id="Node000023" class="node">
<title>Node23</title>
<g id="a_Node000023"><a xlink:href="TransformInspectorWidget_8cpp.html" target="_top" xlink:title=" ">
<polygon fill="white" stroke="#666666" points="1133.5,-96 990.5,-96 990.5,-66 1133.5,-66 1133.5,-96"/>
<text text-anchor="start" x="998.5" y="-84" font-family="Helvetica,sans-Serif" font-size="10.00">src/ui/inspector/Transform</text>
<text text-anchor="middle" x="1062" y="-73" font-family="Helvetica,sans-Serif" font-size="10.00">InspectorWidget.cpp</text>
</a>
</g>
</g>
<!-- Node11&#45;&gt;Node23 -->
<g id="edge31_Node000011_Node000023" class="edge">
<title>Node11&#45;&gt;Node23</title>
<g id="a_edge31_Node000011_Node000023"><a xlink:title=" ">
<path fill="none" stroke="#63b8ff" d="M1228.21,-129.2C1194.92,-119.75 1147.28,-106.22 1111.53,-96.06"/>
<polygon fill="#63b8ff" stroke="#63b8ff" points="1227.47,-132.63 1238.05,-131.99 1229.38,-125.89 1227.47,-132.63"/>
</a>
</g>
</g>
<!-- Node12&#45;&gt;Node2 -->
<g id="edge16_Node000012_Node000002" class="edge">
<title>Node12&#45;&gt;Node2</title>
<g id="a_edge16_Node000012_Node000002"><a xlink:title=" ">
<path fill="none" stroke="#63b8ff" d="M982.27,-65.95C1290.17,-30.31 1646.42,-19.99 1793.85,-17.08"/>
<polygon fill="#63b8ff" stroke="#63b8ff" points="981.78,-62.48 972.26,-67.12 982.6,-69.44 981.78,-62.48"/>
</a>
</g>
</g>
<!-- Node13 -->
<g id="Node000013" class="node">
<title>Node13</title>
<g id="a_Node000013"><a xlink:href="ScaleHandle_8cpp.html" target="_top" xlink:title=" ">
<polygon fill="white" stroke="#666666" points="972,-30 834,-30 834,0 972,0 972,-30"/>
<text text-anchor="start" x="842" y="-18" font-family="Helvetica,sans-Serif" font-size="10.00">src/graphics/components</text>
<text text-anchor="middle" x="903" y="-7" font-family="Helvetica,sans-Serif" font-size="10.00">/ScaleHandle.cpp</text>
</a>
</g>
</g>
<!-- Node12&#45;&gt;Node13 -->
<g id="edge17_Node000012_Node000013" class="edge">
<title>Node12&#45;&gt;Node13</title>
<g id="a_edge17_Node000012_Node000013"><a xlink:title=" ">
<path fill="none" stroke="#63b8ff" d="M903,-55.54C903,-46.96 903,-37.61 903,-30.16"/>
<polygon fill="#63b8ff" stroke="#63b8ff" points="899.5,-55.8 903,-65.8 906.5,-55.8 899.5,-55.8"/>
</a>
</g>
</g>
<!-- Node17 -->
<g id="Node000017" class="node">
<title>Node17</title>
<g id="a_Node000017"><a xlink:href="HierarchyWidget_8cpp.html" target="_top" xlink:title=" ">
<polygon fill="white" stroke="#666666" points="1294,-24.5 1146,-24.5 1146,-5.5 1294,-5.5 1294,-24.5"/>
<text text-anchor="middle" x="1220" y="-12.5" font-family="Helvetica,sans-Serif" font-size="10.00">src/ui/HierarchyWidget.cpp</text>
</a>
</g>
</g>
<!-- Node16&#45;&gt;Node17 -->
<g id="edge25_Node000016_Node000017" class="edge">
<title>Node16&#45;&gt;Node17</title>
<g id="a_edge25_Node000016_Node000017"><a xlink:title=" ">
<path fill="none" stroke="#63b8ff" d="M1220,-61.08C1220,-49.13 1220,-34.22 1220,-24.91"/>
<polygon fill="#63b8ff" stroke="#63b8ff" points="1216.5,-61.37 1220,-71.37 1223.5,-61.37 1216.5,-61.37"/>
</a>
</g>
</g>
<!-- Node18 -->
<g id="Node000018" class="node">
<title>Node18</title>
<g id="a_Node000018"><a xlink:href="MainWindow_8cpp.html" target="_top" xlink:title=" ">
<polygon fill="white" stroke="#666666" points="2559,-24.5 2431,-24.5 2431,-5.5 2559,-5.5 2559,-24.5"/>
<text text-anchor="middle" x="2495" y="-12.5" font-family="Helvetica,sans-Serif" font-size="10.00">src/ui/MainWindow.cpp</text>
</a>
</g>
</g>
<!-- Node16&#45;&gt;Node18 -->
<g id="edge26_Node000016_Node000018" class="edge">
<title>Node16&#45;&gt;Node18</title>
<g id="a_edge26_Node000016_Node000018"><a xlink:title=" ">
<path fill="none" stroke="#63b8ff" d="M1293.3,-70.29C1307.45,-68.66 1322.17,-67.13 1336,-66 1752.52,-31.93 2255.27,-20.24 2430.81,-17.04"/>
<polygon fill="#63b8ff" stroke="#63b8ff" points="1292.65,-66.84 1283.12,-71.49 1293.47,-73.79 1292.65,-66.84"/>
</a>
</g>
</g>
<!-- Node24&#45;&gt;Node9 -->
<g id="edge33_Node000024_Node000009" class="edge">
<title>Node24&#45;&gt;Node9</title>
<g id="a_edge33_Node000024_Node000009"><a xlink:title=" ">
<path fill="none" stroke="#63b8ff" d="M2083.21,-130.03C2141.69,-118.74 2233.67,-100.98 2287.89,-90.52"/>
<polygon fill="#63b8ff" stroke="#63b8ff" points="2082.21,-126.66 2073.06,-131.99 2083.54,-133.53 2082.21,-126.66"/>
</a>
</g>
</g>
<!-- Node24&#45;&gt;Node15 -->
<g id="edge34_Node000024_Node000015" class="edge">
<title>Node24&#45;&gt;Node15</title>
<g id="a_edge34_Node000024_Node000015"><a xlink:title=" ">
<path fill="none" stroke="#63b8ff" d="M2050.82,-126.16C2067.73,-115.05 2090.59,-100.01 2104.81,-90.67"/>
<polygon fill="#63b8ff" stroke="#63b8ff" points="2048.57,-123.45 2042.13,-131.87 2052.41,-129.3 2048.57,-123.45"/>
</a>
</g>
</g>
<!-- Node25&#45;&gt;Node18 -->
<g id="edge37_Node000025_Node000018" class="edge">
<title>Node25&#45;&gt;Node18</title>
<g id="a_edge37_Node000025_Node000018"><a xlink:title=" ">
<path fill="none" stroke="#63b8ff" d="M2475.4,-122.1C2480.44,-94.81 2489.7,-44.67 2493.41,-24.62"/>
<polygon fill="#63b8ff" stroke="#63b8ff" points="2471.96,-121.47 2473.58,-131.94 2478.84,-122.74 2471.96,-121.47"/>
</a>
</g>
</g>
<!-- Node26 -->
<g id="Node000026" class="node">
<title>Node26</title>
<g id="a_Node000026"><a xlink:href="main_8cpp.html" target="_top" xlink:title=" ">
<polygon fill="white" stroke="#666666" points="2602.5,-90.5 2523.5,-90.5 2523.5,-71.5 2602.5,-71.5 2602.5,-90.5"/>
<text text-anchor="middle" x="2563" y="-78.5" font-family="Helvetica,sans-Serif" font-size="10.00">src/main.cpp</text>
</a>
</g>
</g>
<!-- Node25&#45;&gt;Node26 -->
<g id="edge36_Node000025_Node000026" class="edge">
<title>Node25&#45;&gt;Node26</title>
<g id="a_edge36_Node000025_Node000026"><a xlink:title=" ">
<path fill="none" stroke="#63b8ff" d="M2494.31,-126.16C2511.6,-115.05 2534.98,-100.01 2549.52,-90.67"/>
<polygon fill="#63b8ff" stroke="#63b8ff" points="2491.95,-123.52 2485.43,-131.87 2495.73,-129.4 2491.95,-123.52"/>
</a>
</g>
</g>
<!-- Node30&#45;&gt;Node6 -->
<g id="edge47_Node000030_Node000006" class="edge">
<title>Node30&#45;&gt;Node6</title>
<g id="a_edge47_Node000030_Node000006"><a xlink:title=" ">
<path fill="none" stroke="#63b8ff" d="M1860.03,-248.21C1704.05,-232.01 1336.49,-192.67 1029,-151 887.56,-131.83 721.29,-104.33 639.93,-90.56"/>
<polygon fill="#63b8ff" stroke="#63b8ff" points="1860.14,-251.74 1870.44,-249.29 1860.86,-244.78 1860.14,-251.74"/>
</a>
</g>
</g>
<!-- Node30&#45;&gt;Node8 -->
<g id="edge49_Node000030_Node000008" class="edge">
<title>Node30&#45;&gt;Node8</title>
<g id="a_edge49_Node000030_Node000008"><a xlink:title=" ">
<path fill="none" stroke="#63b8ff" d="M1936,-237.16C1936,-226.74 1936,-214.3 1936,-206.17"/>
<polygon fill="#63b8ff" stroke="#63b8ff" points="1932.5,-237.37 1936,-247.37 1939.5,-237.37 1932.5,-237.37"/>
</a>
</g>
</g>
<!-- Node30&#45;&gt;Node9 -->
<g id="edge48_Node000030_Node000009" class="edge">
<title>Node30&#45;&gt;Node9</title>
<g id="a_edge48_Node000030_Node000009"><a xlink:title=" ">
<path fill="none" stroke="#63b8ff" d="M1986.61,-245.38C2097.72,-221.84 2354.12,-166.13 2366,-151 2381.18,-131.67 2356.97,-104.48 2342.16,-90.72"/>
<polygon fill="#63b8ff" stroke="#63b8ff" points="1985.7,-242 1976.64,-247.49 1987.15,-248.85 1985.7,-242"/>
</a>
</g>
</g>
<!-- Node30&#45;&gt;Node18 -->
<g id="edge51_Node000030_Node000018" class="edge">
<title>Node30&#45;&gt;Node18</title>
<g id="a_edge51_Node000030_Node000018"><a xlink:title=" ">
<path fill="none" stroke="#63b8ff" d="M1987.09,-245.69C1995.07,-244.3 2003.24,-243.01 2011,-242 2116.85,-228.19 2390.5,-244.65 2490,-206 2566.93,-176.12 2657.47,-134.88 2612,-66 2597.34,-43.79 2570.55,-31.41 2546.31,-24.52"/>
<polygon fill="#63b8ff" stroke="#63b8ff" points="1986.35,-242.27 1977.13,-247.48 1987.6,-249.16 1986.35,-242.27"/>
</a>
</g>
</g>
<!-- Node30&#45;&gt;Node26 -->
<g id="edge50_Node000030_Node000026" class="edge">
<title>Node30&#45;&gt;Node26</title>
<g id="a_edge50_Node000030_Node000026"><a xlink:title=" ">
<path fill="none" stroke="#63b8ff" d="M1991.46,-245.55C1998.04,-244.34 2004.67,-243.13 2011,-242 2245.83,-199.96 2359.06,-306.48 2540,-151 2558,-135.53 2561.97,-105.57 2562.8,-90.74"/>
<polygon fill="#63b8ff" stroke="#63b8ff" points="1990.39,-242.19 1981.19,-247.45 1991.66,-249.07 1990.39,-242.19"/>
</a>
</g>
</g>
<!-- Node30&#45;&gt;Node27 -->
<g id="edge52_Node000030_Node000027" class="edge">
<title>Node30&#45;&gt;Node27</title>
<g id="a_edge52_Node000030_Node000027"><a xlink:title=" ">
<path fill="none" stroke="#63b8ff" d="M1973.88,-244.5C2006.56,-234.52 2054.98,-219.58 2097,-206 2156.12,-186.89 2225.26,-163.36 2261.29,-151"/>
<polygon fill="#63b8ff" stroke="#63b8ff" points="1972.82,-241.17 1964.27,-247.43 1974.86,-247.87 1972.82,-241.17"/>
</a>
</g>
</g>
</g>
</svg>

<g id="navigator" transform="translate(0 0)" fill="#404254">
  <rect fill="#f2f5e9" fill-opacity="0.5" stroke="#606060" stroke-width=".5" x="0" y="0" width="60" height="60"/>
  <use id="zoomplus" xlink:href="#zoomPlus" x="17" y="9" onmousedown="handleZoom(evt,'in')"/>
  <use id="zoomminus" xlink:href="#zoomMin" x="42" y="9" onmousedown="handleZoom(evt,'out')"/>
  <use id="reset" xlink:href="#resetDef" x="30" y="36" onmousedown="handleReset()"/>
   <use id="arrowup" xlink:href="#arrowUp" x="0" y="0" onmousedown="handlePan(0,-1)"/>
  <use id="arrowright" xlink:href="#arrowRight" x="0" y="0" onmousedown="handlePan(1,0)"/>
  <use id="arrowdown" xlink:href="#arrowDown" x="0" y="0" onmousedown="handlePan(0,1)"/>
  <use id="arrowleft" xlink:href="#arrowLeft" x="0" y="0" onmousedown="handlePan(-1,0)"/>
</g>
<svg viewBox="0 0 15 15" width="100%" height="30px" preserveAspectRatio="xMaxYMin meet">
 <g id="arrow_out" transform="scale(0.3 0.3)">
  <a xlink:href="MathUtils_8h__dep__incl_org.svg" target="_base">
   <rect id="button" ry="5" rx="5" y="6" x="6" height="38" width="38"
        fill="#f2f5e9" fill-opacity="0.5" stroke="#606060" stroke-width="1.0"/>
   <path id="arrow"
     d="M 11.500037,31.436501 C 11.940474,20.09759 22.043105,11.32322 32.158766,21.979434 L 37.068811,17.246167 C 37.068811,17.246167 37.088388,32 37.088388,32 L 22.160133,31.978069 C 22.160133,31.978069 26.997745,27.140456 26.997745,27.140456 C 18.528582,18.264221 13.291696,25.230495 11.500037,31.436501 z"
     style="fill:#404040;"/>
  </a>
 </g>
</svg>

<style type='text/css'>
<![CDATA[
[data-mouse-over-selected='false'] { opacity: 0.7; }
[data-mouse-over-selected='true']  { opacity: 1.0; }
]]>
</style>
<script type="application/ecmascript"><![CDATA[
document.addEventListener('DOMContentLoaded', (event) => {
  highlightEdges();
  highlightAdjacentNodes();
});
]]></script>
</svg>
