<?xml version="1.0" encoding="UTF-8" standalone="no"?>
<!DOCTYPE svg PUBLIC "-//W3C//DTD SVG 1.1//EN"
 "http://www.w3.org/Graphics/SVG/1.1/DTD/svg11.dtd">
<!-- Generated by graphviz version 2.43.0 (0)
 -->
<!-- Title: src/graphics/utils/MathUtils.h Pages: 1 -->
<svg width="278pt" height="148pt"
 viewBox="0.00 0.00 278.00 148.00" xmlns="http://www.w3.org/2000/svg" xmlns:xlink="http://www.w3.org/1999/xlink">
<g id="graph0" class="graph" transform="scale(1 1) rotate(0) translate(4 144)">
<title>src/graphics/utils/MathUtils.h</title>
<!-- Node1 -->
<g id="Node000001" class="node">
<title>Node1</title>
<g id="a_Node000001"><a xlink:title="Mathematical utility functions for 3D graphics and physics.">
<polygon fill="#999999" stroke="#666666" points="174.5,-140 75.5,-140 75.5,-110 174.5,-110 174.5,-140"/>
<text text-anchor="start" x="83.5" y="-128" font-family="Helvetica,sans-Serif" font-size="10.00">src/graphics/utils</text>
<text text-anchor="middle" x="125" y="-117" font-family="Helvetica,sans-Serif" font-size="10.00">/MathUtils.h</text>
</a>
</g>
</g>
<!-- Node2 -->
<g id="Node000002" class="node">
<title>Node2</title>
<g id="a_Node000002"><a xlink:title=" ">
<polygon fill="#e0e0e0" stroke="#999999" points="78,-19 0,-19 0,0 78,0 78,-19"/>
<text text-anchor="middle" x="39" y="-7" font-family="Helvetica,sans-Serif" font-size="10.00">glm/glm.hpp</text>
</a>
</g>
</g>
<!-- Node1&#45;&gt;Node2 -->
<g id="edge1_Node000001_Node000002" class="edge">
<title>Node1&#45;&gt;Node2</title>
<g id="a_edge1_Node000001_Node000002"><a xlink:title=" ">
<path fill="none" stroke="#63b8ff" d="M75.36,-113.19C54.19,-105.86 31.53,-93.76 19,-74 9.95,-59.72 17.77,-41.03 26.13,-27.63"/>
<polygon fill="#63b8ff" stroke="#63b8ff" points="29.06,-29.55 31.81,-19.32 23.28,-25.6 29.06,-29.55"/>
</a>
</g>
</g>
<!-- Node3 -->
<g id="Node000003" class="node">
<title>Node3</title>
<g id="a_Node000003"><a xlink:href="IPickable_8h.html" target="_top" xlink:title=" ">
<polygon fill="white" stroke="#666666" points="130,-74 28,-74 28,-55 130,-55 130,-74"/>
<text text-anchor="middle" x="79" y="-62" font-family="Helvetica,sans-Serif" font-size="10.00">../core/IPickable.h</text>
</a>
</g>
</g>
<!-- Node1&#45;&gt;Node3 -->
<g id="edge2_Node000001_Node000003" class="edge">
<title>Node1&#45;&gt;Node3</title>
<g id="a_edge2_Node000001_Node000003"><a xlink:title=" ">
<path fill="none" stroke="#63b8ff" d="M113.86,-109.84C107.32,-101.52 99.02,-90.96 92.16,-82.23"/>
<polygon fill="#63b8ff" stroke="#63b8ff" points="94.83,-79.96 85.89,-74.27 89.32,-84.29 94.83,-79.96"/>
</a>
</g>
</g>
<!-- Node4 -->
<g id="Node000004" class="node">
<title>Node4</title>
<g id="a_Node000004"><a xlink:title=" ">
<polygon fill="#e0e0e0" stroke="#999999" points="195.5,-74 148.5,-74 148.5,-55 195.5,-55 195.5,-74"/>
<text text-anchor="middle" x="172" y="-62" font-family="Helvetica,sans-Serif" font-size="10.00">vector</text>
</a>
</g>
</g>
<!-- Node1&#45;&gt;Node4 -->
<g id="edge4_Node000001_Node000004" class="edge">
<title>Node1&#45;&gt;Node4</title>
<g id="a_edge4_Node000001_Node000004"><a xlink:title=" ">
<path fill="none" stroke="#63b8ff" d="M136.38,-109.84C143.06,-101.52 151.55,-90.96 158.56,-82.23"/>
<polygon fill="#63b8ff" stroke="#63b8ff" points="161.42,-84.25 164.96,-74.27 155.97,-79.87 161.42,-84.25"/>
</a>
</g>
</g>
<!-- Node5 -->
<g id="Node000005" class="node">
<title>Node5</title>
<g id="a_Node000005"><a xlink:title=" ">
<polygon fill="#e0e0e0" stroke="#999999" points="270,-74 214,-74 214,-55 270,-55 270,-74"/>
<text text-anchor="middle" x="242" y="-62" font-family="Helvetica,sans-Serif" font-size="10.00">optional</text>
</a>
</g>
</g>
<!-- Node1&#45;&gt;Node5 -->
<g id="edge5_Node000001_Node000005" class="edge">
<title>Node1&#45;&gt;Node5</title>
<g id="a_edge5_Node000001_Node000005"><a xlink:title=" ">
<path fill="none" stroke="#63b8ff" d="M153.02,-109.99C172.02,-100.49 196.97,-88.02 215.61,-78.69"/>
<polygon fill="#63b8ff" stroke="#63b8ff" points="217.34,-81.74 224.72,-74.14 214.21,-75.48 217.34,-81.74"/>
</a>
</g>
</g>
<!-- Node3&#45;&gt;Node2 -->
<g id="edge3_Node000003_Node000002" class="edge">
<title>Node3&#45;&gt;Node2</title>
<g id="a_edge3_Node000003_Node000002"><a xlink:title=" ">
<path fill="none" stroke="#63b8ff" d="M72.39,-54.75C66.74,-47.26 58.46,-36.28 51.55,-27.13"/>
<polygon fill="#63b8ff" stroke="#63b8ff" points="54.3,-24.96 45.48,-19.09 48.71,-29.18 54.3,-24.96"/>
</a>
</g>
</g>
</g>
</svg>
