<?xml version="1.0" encoding="UTF-8" standalone="no"?>
<!DOCTYPE svg PUBLIC "-//W3C//DTD SVG 1.1//EN"
 "http://www.w3.org/Graphics/SVG/1.1/DTD/svg11.dtd">
<!-- Generated by graphviz version 2.43.0 (0)
 -->
<!-- Title: src/graphics/utils/MathUtils.h Pages: 1 -->
<!--zoomable 346 -->

<svg id="main" version="1.1" xmlns="http://www.w3.org/2000/svg" xmlns:xlink="http://www.w3.org/1999/xlink" xml:space="preserve" onload="init(evt)">
<style type="text/css"><![CDATA[
.node, .edge {opacity: 0.7;}
.node.selected, .edge.selected {opacity: 1;}
.edge:hover path { stroke: red; }
.edge:hover polygon { stroke: red; fill: red; }
]]></style>

<defs>
  <circle id="rim" cx="0" cy="0" r="7"/>
  <circle id="rim2" cx="0" cy="0" r="3.5"/>
  <g id="zoomPlus">
    <use xlink:href="#rim" fill="#404040"><set attributeName="fill" to="#808080" begin="zoomplus.mouseover" end="zoomplus.mouseout"/></use>
    <path d="M-4,0h8M0,-4v8" fill="none" stroke="white" stroke-width="1.5" pointer-events="none"/>
  </g>
  <g id="zoomMin">
    <use xlink:href="#rim" fill="#404040"><set attributeName="fill" to="#808080" begin="zoomminus.mouseover" end="zoomminus.mouseout"/></use>
    <path d="M-4,0h8" fill="none" stroke="white" stroke-width="1.5" pointer-events="none"/>
  </g>
  <g id="arrowUp" transform="translate(30 24)">
    <use xlink:href="#rim"/>
    <path pointer-events="none" fill="none" stroke="white" stroke-width="1.5" d="M0,-3.0v7 M-2.5,-0.5L0,-3.0L2.5,-0.5"/>
  </g>
  <g id="arrowRight" transform="rotate(90) translate(36 -43)">
    <use xlink:href="#rim"/>
    <path pointer-events="none" fill="none" stroke="white" stroke-width="1.5" d="M0,-3.0v7 M-2.5,-0.5L0,-3.0L2.5,-0.5"/>
  </g>
  <g id="arrowDown" transform="rotate(180) translate(-30 -48)">
    <use xlink:href="#rim"/>
    <path pointer-events="none" fill="none" stroke="white" stroke-width="1.5" d="M0,-3.0v7 M-2.5,-0.5L0,-3.0L2.5,-0.5"/>
  </g>
  <g id="arrowLeft" transform="rotate(270) translate(-36 17)">
    <use xlink:href="#rim"/>
    <path pointer-events="none" fill="none" stroke="white" stroke-width="1.5" d="M0,-3.0v7 M-2.5,-0.5L0,-3.0L2.5,-0.5"/>
  </g>
  <g id="resetDef">
    <use xlink:href="#rim2" fill="#404040"><set attributeName="fill" to="#808080" begin="reset.mouseover" end="reset.mouseout"/></use>
  </g>
</defs>
<script type="application/ecmascript">
var viewWidth = 2628;
var viewHeight = 346;
var sectionId = 'dynsection-1';
</script>
<script type="application/ecmascript" xlink:href="svg.min.js"/>
<svg id="graph" class="graph">
<g id="viewport">
<title>src/graphics/utils/MathUtils.h</title>
<!-- Node1 -->
<g id="Node000001" class="node">
<title>Node1</title>
<g id="a_Node000001"><a xlink:title="Mathematical utility functions for 3D graphics and physics.">
<polygon fill="#999999" stroke="#666666" points="657.5,-338 558.5,-338 558.5,-308 657.5,-308 657.5,-338"/>
<text text-anchor="start" x="566.5" y="-326" font-family="Helvetica,sans-Serif" font-size="10.00">src/graphics/utils</text>
<text text-anchor="middle" x="608" y="-315" font-family="Helvetica,sans-Serif" font-size="10.00">/MathUtils.h</text>
</a>
</g>
</g>
<!-- Node2 -->
<g id="Node000002" class="node">
<title>Node2</title>
<g id="a_Node000002"><a xlink:href="Gizmo_8cpp.html" target="_top" xlink:title=" ">
<polygon fill="white" stroke="#666666" points="1932,-30 1794,-30 1794,0 1932,0 1932,-30"/>
<text text-anchor="start" x="1802" y="-18" font-family="Helvetica,sans-Serif" font-size="10.00">src/graphics/components</text>
<text text-anchor="middle" x="1863" y="-7" font-family="Helvetica,sans-Serif" font-size="10.00">/Gizmo.cpp</text>
</a>
</g>
</g>
<!-- Node1&#45;&gt;Node2 -->
<g id="edge1_Node000001_Node000002" class="edge">
<title>Node1&#45;&gt;Node2</title>
<g id="a_edge1_Node000001_Node000002"><a xlink:title=" ">
<path fill="none" stroke="#63b8ff" d="M668.23,-321.32C970.78,-317.77 2313.54,-300.48 2397,-272 2513.87,-232.11 2568.05,-211.4 2612,-96 2616.75,-83.54 2621.11,-75.74 2612,-66 2588.96,-41.37 2113.47,-23.88 1932.29,-18.09"/>
<polygon fill="#63b8ff" stroke="#63b8ff" points="667.87,-317.82 657.91,-321.44 667.95,-324.82 667.87,-317.82"/>
</a>
</g>
</g>
<!-- Node3 -->
<g id="Node000003" class="node">
<title>Node3</title>
<g id="a_Node000003"><a xlink:href="RotateHandle_8cpp.html" target="_top" xlink:title=" ">
<polygon fill="white" stroke="#666666" points="138,-96 0,-96 0,-66 138,-66 138,-96"/>
<text text-anchor="start" x="8" y="-84" font-family="Helvetica,sans-Serif" font-size="10.00">src/graphics/components</text>
<text text-anchor="middle" x="69" y="-73" font-family="Helvetica,sans-Serif" font-size="10.00">/RotateHandle.cpp</text>
</a>
</g>
</g>
<!-- Node1&#45;&gt;Node3 -->
<g id="edge2_Node000001_Node000003" class="edge">
<title>Node1&#45;&gt;Node3</title>
<g id="a_edge2_Node000001_Node000003"><a xlink:title=" ">
<path fill="none" stroke="#63b8ff" d="M548.18,-316.64C496.12,-310.46 419.42,-297.65 357,-272 243.42,-225.33 127.07,-131.57 85.21,-96.06"/>
<polygon fill="#63b8ff" stroke="#63b8ff" points="547.93,-320.14 558.26,-317.79 548.72,-313.18 547.93,-320.14"/>
</a>
</g>
</g>
<!-- Node4 -->
<g id="Node000004" class="node">
<title>Node4</title>
<g id="a_Node000004"><a xlink:href="TranslateHandle_8cpp.html" target="_top" xlink:title=" ">
<polygon fill="white" stroke="#666666" points="294,-96 156,-96 156,-66 294,-66 294,-96"/>
<text text-anchor="start" x="164" y="-84" font-family="Helvetica,sans-Serif" font-size="10.00">src/graphics/components</text>
<text text-anchor="middle" x="225" y="-73" font-family="Helvetica,sans-Serif" font-size="10.00">/TranslateHandle.cpp</text>
</a>
</g>
</g>
<!-- Node1&#45;&gt;Node4 -->
<g id="edge3_Node000001_Node000004" class="edge">
<title>Node1&#45;&gt;Node4</title>
<g id="a_edge3_Node000001_Node000004"><a xlink:title=" ">
<path fill="none" stroke="#63b8ff" d="M548.34,-316.74C505.26,-310.83 446.99,-298.33 402,-272 322.24,-225.32 256.72,-131.56 233.78,-96.06"/>
<polygon fill="#63b8ff" stroke="#63b8ff" points="548.03,-320.23 558.39,-318.04 548.92,-313.29 548.03,-320.23"/>
</a>
</g>
</g>
<!-- Node5 -->
<g id="Node000005" class="node">
<title>Node5</title>
<g id="a_Node000005"><a xlink:href="ResourceManager_8cpp.html" target="_top" xlink:title=" ">
<polygon fill="white" stroke="#666666" points="579.5,-272 432.5,-272 432.5,-242 579.5,-242 579.5,-272"/>
<text text-anchor="start" x="440.5" y="-260" font-family="Helvetica,sans-Serif" font-size="10.00">src/graphics/core/Resource</text>
<text text-anchor="middle" x="506" y="-249" font-family="Helvetica,sans-Serif" font-size="10.00">Manager.cpp</text>
</a>
</g>
</g>
<!-- Node1&#45;&gt;Node5 -->
<g id="edge4_Node000001_Node000005" class="edge">
<title>Node1&#45;&gt;Node5</title>
<g id="a_edge4_Node000001_Node000005"><a xlink:title=" ">
<path fill="none" stroke="#63b8ff" d="M576.79,-302.42C561.14,-292.6 542.54,-280.93 528.33,-272.01"/>
<polygon fill="#63b8ff" stroke="#63b8ff" points="575.28,-305.6 585.62,-307.95 579.01,-299.68 575.28,-305.6"/>
</a>
</g>
</g>
<!-- Node6 -->
<g id="Node000006" class="node">
<title>Node6</title>
<g id="a_Node000006"><a xlink:href="Scene_8cpp.html" target="_top" xlink:title=" ">
<polygon fill="white" stroke="#666666" points="666,-90.5 514,-90.5 514,-71.5 666,-71.5 666,-90.5"/>
<text text-anchor="middle" x="590" y="-78.5" font-family="Helvetica,sans-Serif" font-size="10.00">src/graphics/core/Scene.cpp</text>
</a>
</g>
</g>
<!-- Node1&#45;&gt;Node6 -->
<g id="edge5_Node000001_Node000006" class="edge">
<title>Node1&#45;&gt;Node6</title>
<g id="a_edge5_Node000001_Node000006"><a xlink:title=" ">
<path fill="none" stroke="#63b8ff" d="M606.17,-297.62C602.24,-245.17 593.13,-123.71 590.64,-90.52"/>
<polygon fill="#63b8ff" stroke="#63b8ff" points="602.69,-298 606.93,-307.71 609.67,-297.47 602.69,-298"/>
</a>
</g>
</g>
<!-- Node7 -->
<g id="Node000007" class="node">
<title>Node7</title>
<g id="a_Node000007"><a xlink:href="Scene_8h.html" target="_top" xlink:title=" ">
<polygon fill="white" stroke="#666666" points="776,-266.5 636,-266.5 636,-247.5 776,-247.5 776,-266.5"/>
<text text-anchor="middle" x="706" y="-254.5" font-family="Helvetica,sans-Serif" font-size="10.00">src/graphics/core/Scene.h</text>
</a>
</g>
</g>
<!-- Node1&#45;&gt;Node7 -->
<g id="edge6_Node000001_Node000007" class="edge">
<title>Node1&#45;&gt;Node7</title>
<g id="a_edge6_Node000001_Node000007"><a xlink:title=" ">
<path fill="none" stroke="#63b8ff" d="M638.32,-302.2C656.56,-290.29 678.85,-275.73 692.74,-266.66"/>
<polygon fill="#63b8ff" stroke="#63b8ff" points="636.21,-299.4 629.75,-307.8 640.04,-305.26 636.21,-299.4"/>
</a>
</g>
</g>
<!-- Node10 -->
<g id="Node000010" class="node">
<title>Node10</title>
<g id="a_Node000010"><a xlink:href="SceneObject_8cpp.html" target="_top" xlink:title=" ">
<polygon fill="white" stroke="#666666" points="495.5,-90.5 312.5,-90.5 312.5,-71.5 495.5,-71.5 495.5,-90.5"/>
<text text-anchor="middle" x="404" y="-78.5" font-family="Helvetica,sans-Serif" font-size="10.00">src/graphics/core/SceneObject.cpp</text>
</a>
</g>
</g>
<!-- Node1&#45;&gt;Node10 -->
<g id="edge43_Node000001_Node000010" class="edge">
<title>Node1&#45;&gt;Node10</title>
<g id="a_edge43_Node000001_Node000010"><a xlink:title=" ">
<path fill="none" stroke="#63b8ff" d="M548.15,-313.3C500.51,-305.07 439.22,-291.13 423,-272 376.91,-217.64 394.83,-120.57 401.76,-90.88"/>
<polygon fill="#63b8ff" stroke="#63b8ff" points="547.65,-316.76 558.09,-314.97 548.8,-309.86 547.65,-316.76"/>
</a>
</g>
</g>
<!-- Node28 -->
<g id="Node000028" class="node">
<title>Node28</title>
<g id="a_Node000028"><a xlink:href="PhysicsSystem_8cpp.html" target="_top" xlink:title=" ">
<polygon fill="white" stroke="#666666" points="2387.5,-266.5 2220.5,-266.5 2220.5,-247.5 2387.5,-247.5 2387.5,-266.5"/>
<text text-anchor="middle" x="2304" y="-254.5" font-family="Helvetica,sans-Serif" font-size="10.00">src/physics/PhysicsSystem.cpp</text>
</a>
</g>
</g>
<!-- Node1&#45;&gt;Node28 -->
<g id="edge44_Node000001_Node000028" class="edge">
<title>Node1&#45;&gt;Node28</title>
<g id="a_edge44_Node000001_Node000028"><a xlink:title=" ">
<path fill="none" stroke="#63b8ff" d="M667.64,-321.1C920.28,-317.14 1903.45,-300.18 2212,-272 2226.16,-270.71 2241.45,-268.65 2255.43,-266.5"/>
<polygon fill="#63b8ff" stroke="#63b8ff" points="667.5,-317.6 657.56,-321.26 667.61,-324.6 667.5,-317.6"/>
</a>
</g>
</g>
<!-- Node29 -->
<g id="Node000029" class="node">
<title>Node29</title>
<g id="a_Node000029"><a xlink:href="OpenGLWindow_8h.html" target="_top" xlink:title=" ">
<polygon fill="white" stroke="#666666" points="2202.5,-266.5 2071.5,-266.5 2071.5,-247.5 2202.5,-247.5 2202.5,-266.5"/>
<text text-anchor="middle" x="2137" y="-254.5" font-family="Helvetica,sans-Serif" font-size="10.00">src/ui/OpenGLWindow.h</text>
</a>
</g>
</g>
<!-- Node1&#45;&gt;Node29 -->
<g id="edge45_Node000001_Node000029" class="edge">
<title>Node1&#45;&gt;Node29</title>
<g id="a_edge45_Node000001_Node000029"><a xlink:title=" ">
<path fill="none" stroke="#63b8ff" d="M667.58,-319.51C909.62,-309.37 1818.33,-271.34 2071.29,-260.75"/>
<polygon fill="#63b8ff" stroke="#63b8ff" points="667.42,-316.01 657.57,-319.93 667.71,-323 667.42,-316.01"/>
</a>
</g>
</g>
<!-- Node7&#45;&gt;Node6 -->
<g id="edge7_Node000007_Node000006" class="edge">
<title>Node7&#45;&gt;Node6</title>
<g id="a_edge7_Node000007_Node000006"><a xlink:title=" ">
<path fill="none" stroke="#63b8ff" d="M694.33,-238.49C669.84,-201.76 613.86,-117.8 595.76,-90.64"/>
<polygon fill="#63b8ff" stroke="#63b8ff" points="691.63,-240.75 700.09,-247.13 697.45,-236.87 691.63,-240.75"/>
</a>
</g>
</g>
<!-- Node8 -->
<g id="Node000008" class="node">
<title>Node8</title>
<g id="a_Node000008"><a xlink:href="SceneManager_8h.html" target="_top" xlink:title=" ">
<polygon fill="white" stroke="#666666" points="2124,-206 1942,-206 1942,-187 2124,-187 2124,-206"/>
<text text-anchor="middle" x="2033" y="-194" font-family="Helvetica,sans-Serif" font-size="10.00">src/graphics/core/SceneManager.h</text>
</a>
</g>
</g>
<!-- Node7&#45;&gt;Node8 -->
<g id="edge8_Node000007_Node000008" class="edge">
<title>Node7&#45;&gt;Node8</title>
<g id="a_edge8_Node000007_Node000008"><a xlink:title=" ">
<path fill="none" stroke="#63b8ff" d="M786.52,-252.45C1019.9,-242.16 1695.69,-212.37 1941.9,-201.52"/>
<polygon fill="#63b8ff" stroke="#63b8ff" points="786.24,-248.96 776.41,-252.9 786.55,-255.95 786.24,-248.96"/>
</a>
</g>
</g>
<!-- Node7&#45;&gt;Node10 -->
<g id="edge41_Node000007_Node000010" class="edge">
<title>Node7&#45;&gt;Node10</title>
<g id="a_edge41_Node000007_Node000010"><a xlink:title=" ">
<path fill="none" stroke="#63b8ff" d="M682.31,-242.35C622.75,-208.03 468,-118.88 419.07,-90.68"/>
<polygon fill="#63b8ff" stroke="#63b8ff" points="680.61,-245.41 691.02,-247.37 684.11,-239.35 680.61,-245.41"/>
</a>
</g>
</g>
<!-- Node27 -->
<g id="Node000027" class="node">
<title>Node27</title>
<g id="a_Node000027"><a xlink:href="OpenGLWindow_8cpp.html" target="_top" xlink:title=" ">
<polygon fill="white" stroke="#666666" points="2361,-151 2219,-151 2219,-132 2361,-132 2361,-151"/>
<text text-anchor="middle" x="2290" y="-139" font-family="Helvetica,sans-Serif" font-size="10.00">src/ui/OpenGLWindow.cpp</text>
</a>
</g>
</g>
<!-- Node7&#45;&gt;Node27 -->
<g id="edge42_Node000007_Node000027" class="edge">
<title>Node7&#45;&gt;Node27</title>
<g id="a_edge42_Node000007_Node000027"><a xlink:title=" ">
<path fill="none" stroke="#63b8ff" d="M786.32,-254.82C1068.07,-250.45 2001.5,-233.99 2133,-206 2187.06,-194.49 2246.39,-165.64 2274.1,-151.13"/>
<polygon fill="#63b8ff" stroke="#63b8ff" points="786.13,-251.32 776.18,-254.97 786.23,-258.32 786.13,-251.32"/>
</a>
</g>
</g>
<!-- Node8&#45;&gt;Node2 -->
<g id="edge9_Node000008_Node000002" class="edge">
<title>Node8&#45;&gt;Node2</title>
<g id="a_edge9_Node000008_Node000002"><a xlink:title=" ">
<path fill="none" stroke="#63b8ff" d="M2072.76,-184.07C2100.36,-175.78 2137.82,-163.81 2170,-151 2188.29,-143.72 2191.2,-137.82 2210,-132 2259,-116.84 2404.68,-135 2438,-96 2446.66,-85.86 2447.01,-75.83 2438,-66 2404.42,-29.37 2077.61,-19.49 1932.18,-16.89"/>
<polygon fill="#63b8ff" stroke="#63b8ff" points="2071.65,-180.75 2063.06,-186.96 2073.64,-187.46 2071.65,-180.75"/>
</a>
</g>
</g>
<!-- Node9 -->
<g id="Node000009" class="node">
<title>Node9</title>
<g id="a_Node000009"><a xlink:href="SceneManager_8cpp.html" target="_top" xlink:title=" ">
<polygon fill="white" stroke="#666666" points="2429,-90.5 2235,-90.5 2235,-71.5 2429,-71.5 2429,-90.5"/>
<text text-anchor="middle" x="2332" y="-78.5" font-family="Helvetica,sans-Serif" font-size="10.00">src/graphics/core/SceneManager.cpp</text>
</a>
</g>
</g>
<!-- Node8&#45;&gt;Node9 -->
<g id="edge10_Node000008_Node000009" class="edge">
<title>Node8&#45;&gt;Node9</title>
<g id="a_edge10_Node000008_Node000009"><a xlink:title=" ">
<path fill="none" stroke="#63b8ff" d="M2062.35,-182.82C2082.75,-173.97 2110.57,-161.85 2135,-151 2153.72,-142.68 2157.89,-139.38 2177,-132 2219.86,-115.45 2270.76,-99.77 2302.23,-90.51"/>
<polygon fill="#63b8ff" stroke="#63b8ff" points="2060.76,-179.7 2052.97,-186.88 2063.54,-186.12 2060.76,-179.7"/>
</a>
</g>
</g>
<!-- Node8&#45;&gt;Node10 -->
<g id="edge11_Node000008_Node000010" class="edge">
<title>Node8&#45;&gt;Node10</title>
<g id="a_edge11_Node000008_Node000010"><a xlink:title=" ">
<path fill="none" stroke="#63b8ff" d="M1931.82,-193.03C1750.61,-188.16 1358.79,-175.59 1029,-151 795.48,-133.59 737.45,-124.3 505,-96 491.38,-94.34 476.75,-92.4 462.97,-90.51"/>
<polygon fill="#63b8ff" stroke="#63b8ff" points="1931.78,-196.53 1941.87,-193.3 1931.97,-189.54 1931.78,-196.53"/>
</a>
</g>
</g>
<!-- Node11 -->
<g id="Node000011" class="node">
<title>Node11</title>
<g id="a_Node000011"><a xlink:href="SceneObject_8h.html" target="_top" xlink:title=" ">
<polygon fill="white" stroke="#666666" points="1354,-151 1182,-151 1182,-132 1354,-132 1354,-151"/>
<text text-anchor="middle" x="1268" y="-139" font-family="Helvetica,sans-Serif" font-size="10.00">src/graphics/core/SceneObject.h</text>
</a>
</g>
</g>
<!-- Node8&#45;&gt;Node11 -->
<g id="edge12_Node000008_Node000011" class="edge">
<title>Node8&#45;&gt;Node11</title>
<g id="a_edge12_Node000008_Node000011"><a xlink:title=" ">
<path fill="none" stroke="#63b8ff" d="M1931.62,-188.48C1779.89,-177.96 1496.43,-158.33 1354.14,-148.47"/>
<polygon fill="#63b8ff" stroke="#63b8ff" points="1931.64,-191.99 1941.86,-189.19 1932.13,-185 1931.64,-191.99"/>
</a>
</g>
</g>
<!-- Node20 -->
<g id="Node000020" class="node">
<title>Node20</title>
<g id="a_Node000020"><a xlink:href="GlobalsInspectorWidget_8cpp.html" target="_top" xlink:title=" ">
<polygon fill="white" stroke="#666666" points="815.5,-96 684.5,-96 684.5,-66 815.5,-66 815.5,-96"/>
<text text-anchor="start" x="692.5" y="-84" font-family="Helvetica,sans-Serif" font-size="10.00">src/ui/inspector/Globals</text>
<text text-anchor="middle" x="750" y="-73" font-family="Helvetica,sans-Serif" font-size="10.00">InspectorWidget.cpp</text>
</a>
</g>
</g>
<!-- Node8&#45;&gt;Node20 -->
<g id="edge39_Node000008_Node000020" class="edge">
<title>Node8&#45;&gt;Node20</title>
<g id="a_edge39_Node000008_Node000020"><a xlink:title=" ">
<path fill="none" stroke="#63b8ff" d="M1931.36,-193.69C1770.17,-190.05 1446.18,-179.57 1173,-151 1045.71,-137.69 898.52,-111.11 815.63,-95.11"/>
<polygon fill="#63b8ff" stroke="#63b8ff" points="1931.67,-197.2 1941.74,-193.92 1931.82,-190.2 1931.67,-197.2"/>
</a>
</g>
</g>
<!-- Node21 -->
<g id="Node000021" class="node">
<title>Node21</title>
<g id="a_Node000021"><a xlink:href="InspectorWidget_8cpp.html" target="_top" xlink:title=" ">
<polygon fill="white" stroke="#666666" points="2001.5,-96 1862.5,-96 1862.5,-66 2001.5,-66 2001.5,-96"/>
<text text-anchor="start" x="1870.5" y="-84" font-family="Helvetica,sans-Serif" font-size="10.00">src/ui/inspector/Inspector</text>
<text text-anchor="middle" x="1932" y="-73" font-family="Helvetica,sans-Serif" font-size="10.00">Widget.cpp</text>
</a>
</g>
</g>
<!-- Node8&#45;&gt;Node21 -->
<g id="edge40_Node000008_Node000021" class="edge">
<title>Node8&#45;&gt;Node21</title>
<g id="a_edge40_Node000008_Node000021"><a xlink:title=" ">
<path fill="none" stroke="#63b8ff" d="M1977.17,-183.69C1959.72,-177.09 1942.33,-166.84 1932,-151 1921.33,-134.64 1924.25,-111.14 1927.78,-96.23"/>
<polygon fill="#63b8ff" stroke="#63b8ff" points="1976.24,-187.07 1986.84,-187 1978.51,-180.45 1976.24,-187.07"/>
</a>
</g>
</g>
<!-- Node24 -->
<g id="Node000024" class="node">
<title>Node24</title>
<g id="a_Node000024"><a xlink:href="SceneSerializer_8h.html" target="_top" xlink:title=" ">
<polygon fill="white" stroke="#666666" points="2125.5,-151 1940.5,-151 1940.5,-132 2125.5,-132 2125.5,-151"/>
<text text-anchor="middle" x="2033" y="-139" font-family="Helvetica,sans-Serif" font-size="10.00">src/graphics/core/SceneSerializer.h</text>
</a>
</g>
</g>
<!-- Node8&#45;&gt;Node24 -->
<g id="edge32_Node000008_Node000024" class="edge">
<title>Node8&#45;&gt;Node24</title>
<g id="a_edge32_Node000008_Node000024"><a xlink:title=" ">
<path fill="none" stroke="#63b8ff" d="M2033,-176.66C2033,-167.93 2033,-157.99 2033,-151.09"/>
<polygon fill="#63b8ff" stroke="#63b8ff" points="2029.5,-176.75 2033,-186.75 2036.5,-176.75 2029.5,-176.75"/>
</a>
</g>
</g>
<!-- Node25 -->
<g id="Node000025" class="node">
<title>Node25</title>
<g id="a_Node000025"><a xlink:href="MainWindow_8h.html" target="_top" xlink:title=" ">
<polygon fill="white" stroke="#666666" points="2534.5,-151 2417.5,-151 2417.5,-132 2534.5,-132 2534.5,-151"/>
<text text-anchor="middle" x="2476" y="-139" font-family="Helvetica,sans-Serif" font-size="10.00">src/ui/MainWindow.h</text>
</a>
</g>
</g>
<!-- Node8&#45;&gt;Node25 -->
<g id="edge35_Node000008_Node000025" class="edge">
<title>Node8&#45;&gt;Node25</title>
<g id="a_edge35_Node000008_Node000025"><a xlink:title=" ">
<path fill="none" stroke="#63b8ff" d="M2114.36,-185.77C2202.11,-175.27 2339.66,-158.81 2417.39,-149.51"/>
<polygon fill="#63b8ff" stroke="#63b8ff" points="2113.69,-182.32 2104.18,-186.98 2114.52,-189.27 2113.69,-182.32"/>
</a>
</g>
</g>
<!-- Node8&#45;&gt;Node27 -->
<g id="edge38_Node000008_Node000027" class="edge">
<title>Node8&#45;&gt;Node27</title>
<g id="a_edge38_Node000008_Node000027"><a xlink:title=" ">
<path fill="none" stroke="#63b8ff" d="M2084.2,-184.94C2132.38,-175.01 2203.62,-160.31 2248.38,-151.08"/>
<polygon fill="#63b8ff" stroke="#63b8ff" points="2083.38,-181.54 2074.29,-186.98 2084.79,-188.39 2083.38,-181.54"/>
</a>
</g>
</g>
<!-- Node11&#45;&gt;Node2 -->
<g id="edge13_Node000011_Node000002" class="edge">
<title>Node11&#45;&gt;Node2</title>
<g id="a_edge13_Node000011_Node000002"><a xlink:title=" ">
<path fill="none" stroke="#63b8ff" d="M1278.5,-122.87C1290.13,-105.13 1310.62,-78.67 1336,-66 1414.54,-26.82 1669.24,-18.27 1793.52,-16.46"/>
<polygon fill="#63b8ff" stroke="#63b8ff" points="1275.33,-121.34 1272.98,-131.67 1281.26,-125.06 1275.33,-121.34"/>
</a>
</g>
</g>
<!-- Node11&#45;&gt;Node3 -->
<g id="edge14_Node000011_Node000003" class="edge">
<title>Node11&#45;&gt;Node3</title>
<g id="a_edge14_Node000011_Node000003"><a xlink:title=" ">
<path fill="none" stroke="#63b8ff" d="M1171.73,-141.14C977.4,-141.44 524.59,-137.18 147,-96 144.13,-95.69 141.2,-95.33 138.25,-94.94"/>
<polygon fill="#63b8ff" stroke="#63b8ff" points="1171.92,-144.64 1181.91,-141.12 1171.91,-137.64 1171.92,-144.64"/>
</a>
</g>
</g>
<!-- Node11&#45;&gt;Node4 -->
<g id="edge18_Node000011_Node000004" class="edge">
<title>Node11&#45;&gt;Node4</title>
<g id="a_edge18_Node000011_Node000004"><a xlink:title=" ">
<path fill="none" stroke="#63b8ff" d="M1171.7,-140.24C997.71,-138.85 619.61,-131.56 303,-96 300.13,-95.68 297.2,-95.31 294.25,-94.92"/>
<polygon fill="#63b8ff" stroke="#63b8ff" points="1171.83,-143.74 1181.85,-140.32 1171.88,-136.74 1171.83,-143.74"/>
</a>
</g>
</g>
<!-- Node11&#45;&gt;Node6 -->
<g id="edge20_Node000011_Node000006" class="edge">
<title>Node11&#45;&gt;Node6</title>
<g id="a_edge20_Node000011_Node000006"><a xlink:title=" ">
<path fill="none" stroke="#63b8ff" d="M1171.79,-135.9C1054.28,-129.67 849.56,-116.88 675,-96 662.67,-94.53 649.41,-92.54 637.1,-90.52"/>
<polygon fill="#63b8ff" stroke="#63b8ff" points="1171.67,-139.4 1181.84,-136.43 1172.04,-132.41 1171.67,-139.4"/>
</a>
</g>
</g>
<!-- Node11&#45;&gt;Node9 -->
<g id="edge21_Node000011_Node000009" class="edge">
<title>Node11&#45;&gt;Node9</title>
<g id="a_edge21_Node000011_Node000009"><a xlink:title=" ">
<path fill="none" stroke="#63b8ff" d="M1364.12,-138.73C1536.92,-134.96 1911.36,-124.03 2226,-96 2241.72,-94.6 2258.68,-92.59 2274.33,-90.52"/>
<polygon fill="#63b8ff" stroke="#63b8ff" points="1363.96,-135.24 1354.04,-138.95 1364.11,-142.23 1363.96,-135.24"/>
</a>
</g>
</g>
<!-- Node11&#45;&gt;Node10 -->
<g id="edge22_Node000011_Node000010" class="edge">
<title>Node11&#45;&gt;Node10</title>
<g id="a_edge22_Node000011_Node000010"><a xlink:title=" ">
<path fill="none" stroke="#63b8ff" d="M1171.52,-137.33C1026.56,-132.02 744.06,-119.5 505,-96 490.29,-94.55 474.43,-92.56 459.74,-90.53"/>
<polygon fill="#63b8ff" stroke="#63b8ff" points="1171.6,-140.84 1181.72,-137.7 1171.85,-133.84 1171.6,-140.84"/>
</a>
</g>
</g>
<!-- Node12 -->
<g id="Node000012" class="node">
<title>Node12</title>
<g id="a_Node000012"><a xlink:href="ScaleHandle_8h.html" target="_top" xlink:title=" ">
<polygon fill="white" stroke="#666666" points="972,-96 834,-96 834,-66 972,-66 972,-96"/>
<text text-anchor="start" x="842" y="-84" font-family="Helvetica,sans-Serif" font-size="10.00">src/graphics/components</text>
<text text-anchor="middle" x="903" y="-73" font-family="Helvetica,sans-Serif" font-size="10.00">/ScaleHandle.h</text>
</a>
</g>
</g>
<!-- Node11&#45;&gt;Node12 -->
<g id="edge15_Node000011_Node000012" class="edge">
<title>Node11&#45;&gt;Node12</title>
<g id="a_edge15_Node000011_Node000012"><a xlink:title=" ">
<path fill="none" stroke="#63b8ff" d="M1200.31,-130.47C1142.11,-121.73 1055.95,-108.53 981,-96 978.15,-95.52 975.24,-95.03 972.31,-94.53"/>
<polygon fill="#63b8ff" stroke="#63b8ff" points="1200.08,-133.97 1210.49,-131.99 1201.12,-127.05 1200.08,-133.97"/>
</a>
</g>
</g>
<!-- Node14 -->
<g id="Node000014" class="node">
<title>Node14</title>
<g id="a_Node000014"><a xlink:href="Camera_8cpp.html" target="_top" xlink:title=" ">
<polygon fill="white" stroke="#666666" points="1506.5,-90.5 1345.5,-90.5 1345.5,-71.5 1506.5,-71.5 1506.5,-90.5"/>
<text text-anchor="middle" x="1426" y="-78.5" font-family="Helvetica,sans-Serif" font-size="10.00">src/graphics/core/Camera.cpp</text>
</a>
</g>
</g>
<!-- Node11&#45;&gt;Node14 -->
<g id="edge19_Node000011_Node000014" class="edge">
<title>Node11&#45;&gt;Node14</title>
<g id="a_edge19_Node000011_Node000014"><a xlink:title=" ">
<path fill="none" stroke="#63b8ff" d="M1300.74,-128.38C1331.28,-117.07 1376.07,-100.49 1403,-90.52"/>
<polygon fill="#63b8ff" stroke="#63b8ff" points="1299.14,-125.24 1290.97,-131.99 1301.57,-131.8 1299.14,-125.24"/>
</a>
</g>
</g>
<!-- Node15 -->
<g id="Node000015" class="node">
<title>Node15</title>
<g id="a_Node000015"><a xlink:href="SceneSerializer_8cpp.html" target="_top" xlink:title=" ">
<polygon fill="white" stroke="#666666" points="2216.5,-90.5 2019.5,-90.5 2019.5,-71.5 2216.5,-71.5 2216.5,-90.5"/>
<text text-anchor="middle" x="2118" y="-78.5" font-family="Helvetica,sans-Serif" font-size="10.00">src/graphics/core/SceneSerializer.cpp</text>
</a>
</g>
</g>
<!-- Node11&#45;&gt;Node15 -->
<g id="edge23_Node000011_Node000015" class="edge">
<title>Node11&#45;&gt;Node15</title>
<g id="a_edge23_Node000011_Node000015"><a xlink:title=" ">
<path fill="none" stroke="#63b8ff" d="M1364.65,-136.88C1506.57,-131.08 1779.61,-118.04 2011,-96 2026.48,-94.53 2043.17,-92.54 2058.66,-90.52"/>
<polygon fill="#63b8ff" stroke="#63b8ff" points="1364.09,-133.4 1354.24,-137.3 1364.37,-140.4 1364.09,-133.4"/>
</a>
</g>
</g>
<!-- Node16 -->
<g id="Node000016" class="node">
<title>Node16</title>
<g id="a_Node000016"><a xlink:href="HierarchyWidget_8h.html" target="_top" xlink:title=" ">
<polygon fill="white" stroke="#666666" points="1288.5,-90.5 1151.5,-90.5 1151.5,-71.5 1288.5,-71.5 1288.5,-90.5"/>
<text text-anchor="middle" x="1220" y="-78.5" font-family="Helvetica,sans-Serif" font-size="10.00">src/ui/HierarchyWidget.h</text>
</a>
</g>
</g>
<!-- Node11&#45;&gt;Node16 -->
<g id="edge24_Node000011_Node000016" class="edge">
<title>Node11&#45;&gt;Node16</title>
<g id="a_edge24_Node000011_Node000016"><a xlink:title=" ">
<path fill="none" stroke="#63b8ff" d="M1254.42,-123.95C1245.54,-113.12 1234.28,-99.41 1227.11,-90.67"/>
<polygon fill="#63b8ff" stroke="#63b8ff" points="1251.87,-126.36 1260.92,-131.87 1257.28,-121.92 1251.87,-126.36"/>
</a>
</g>
</g>
<!-- Node19 -->
<g id="Node000019" class="node">
<title>Node19</title>
<g id="a_Node000019"><a xlink:href="ForcesInspectorWidget_8cpp.html" target="_top" xlink:title=" ">
<polygon fill="white" stroke="#666666" points="1695,-96 1525,-96 1525,-66 1695,-66 1695,-96"/>
<text text-anchor="start" x="1533" y="-84" font-family="Helvetica,sans-Serif" font-size="10.00">src/ui/inspector/ForcesInspector</text>
<text text-anchor="middle" x="1610" y="-73" font-family="Helvetica,sans-Serif" font-size="10.00">Widget.cpp</text>
</a>
</g>
</g>
<!-- Node11&#45;&gt;Node19 -->
<g id="edge27_Node000011_Node000019" class="edge">
<title>Node11&#45;&gt;Node19</title>
<g id="a_edge27_Node000011_Node000019"><a xlink:title=" ">
<path fill="none" stroke="#63b8ff" d="M1327.76,-130.28C1383.28,-120.78 1466.43,-106.56 1528.11,-96.01"/>
<polygon fill="#63b8ff" stroke="#63b8ff" points="1327,-126.86 1317.73,-131.99 1328.18,-133.76 1327,-126.86"/>
</a>
</g>
</g>
<!-- Node11&#45;&gt;Node20 -->
<g id="edge28_Node000011_Node000020" class="edge">
<title>Node11&#45;&gt;Node20</title>
<g id="a_edge28_Node000011_Node000020"><a xlink:title=" ">
<path fill="none" stroke="#63b8ff" d="M1171.81,-133.19C1081.88,-125.81 943.99,-113.05 825,-96 821.98,-95.57 818.91,-95.1 815.8,-94.61"/>
<polygon fill="#63b8ff" stroke="#63b8ff" points="1171.73,-136.7 1181.99,-134.02 1172.3,-129.72 1171.73,-136.7"/>
</a>
</g>
</g>
<!-- Node11&#45;&gt;Node21 -->
<g id="edge29_Node000011_Node000021" class="edge">
<title>Node11&#45;&gt;Node21</title>
<g id="a_edge29_Node000011_Node000021"><a xlink:title=" ">
<path fill="none" stroke="#63b8ff" d="M1364.47,-136.19C1480.86,-130.29 1682.31,-117.87 1854,-96 1856.73,-95.65 1859.51,-95.27 1862.31,-94.87"/>
<polygon fill="#63b8ff" stroke="#63b8ff" points="1363.98,-132.71 1354.17,-136.71 1364.33,-139.7 1363.98,-132.71"/>
</a>
</g>
</g>
<!-- Node22 -->
<g id="Node000022" class="node">
<title>Node22</title>
<g id="a_Node000022"><a xlink:href="PhysicsInspectorWidget_8cpp.html" target="_top" xlink:title=" ">
<polygon fill="white" stroke="#666666" points="1844.5,-96 1713.5,-96 1713.5,-66 1844.5,-66 1844.5,-96"/>
<text text-anchor="start" x="1721.5" y="-84" font-family="Helvetica,sans-Serif" font-size="10.00">src/ui/inspector/Physics</text>
<text text-anchor="middle" x="1779" y="-73" font-family="Helvetica,sans-Serif" font-size="10.00">InspectorWidget.cpp</text>
</a>
</g>
</g>
<!-- Node11&#45;&gt;Node22 -->
<g id="edge30_Node000011_Node000022" class="edge">
<title>Node11&#45;&gt;Node22</title>
<g id="a_edge30_Node000011_Node000022"><a xlink:title=" ">
<path fill="none" stroke="#63b8ff" d="M1364.32,-132.98C1452.85,-125.51 1587.61,-112.77 1704,-96 1707.02,-95.57 1710.09,-95.1 1713.2,-94.6"/>
<polygon fill="#63b8ff" stroke="#63b8ff" points="1363.97,-129.49 1354.29,-133.81 1364.55,-136.47 1363.97,-129.49"/>
</a>
</g>
</g>
<!-- Node23 -->
<g id="Node000023" class="node">
<title>Node23</title>
<g id="a_Node000023"><a xlink:href="TransformInspectorWidget_8cpp.html" target="_top" xlink:title=" ">
<polygon fill="white" stroke="#666666" points="1133.5,-96 990.5,-96 990.5,-66 1133.5,-66 1133.5,-96"/>
<text text-anchor="start" x="998.5" y="-84" font-family="Helvetica,sans-Serif" font-size="10.00">src/ui/inspector/Transform</text>
<text text-anchor="middle" x="1062" y="-73" font-family="Helvetica,sans-Serif" font-size="10.00">InspectorWidget.cpp</text>
</a>
</g>
</g>
<!-- Node11&#45;&gt;Node23 -->
<g id="edge31_Node000011_Node000023" class="edge">
<title>Node11&#45;&gt;Node23</title>
<g id="a_edge31_Node000011_Node000023"><a xlink:title=" ">
<path fill="none" stroke="#63b8ff" d="M1228.21,-129.2C1194.92,-119.75 1147.28,-106.22 1111.53,-96.06"/>
<polygon fill="#63b8ff" stroke="#63b8ff" points="1227.47,-132.63 1238.05,-131.99 1229.38,-125.89 1227.47,-132.63"/>
</a>
</g>
</g>
<!-- Node12&#45;&gt;Node2 -->
<g id="edge16_Node000012_Node000002" class="edge">
<title>Node12&#45;&gt;Node2</title>
<g id="a_edge16_Node000012_Node000002"><a xlink:title=" ">
<path fill="none" stroke="#63b8ff" d="M982.27,-65.95C1290.17,-30.31 1646.42,-19.99 1793.85,-17.08"/>
<polygon fill="#63b8ff" stroke="#63b8ff" points="981.78,-62.48 972.26,-67.12 982.6,-69.44 981.78,-62.48"/>
</a>
</g>
</g>
<!-- Node13 -->
<g id="Node000013" class="node">
<title>Node13</title>
<g id="a_Node000013"><a xlink:href="ScaleHandle_8cpp.html" target="_top" xlink:title=" ">
<polygon fill="white" stroke="#666666" points="972,-30 834,-30 834,0 972,0 972,-30"/>
<text text-anchor="start" x="842" y="-18" font-family="Helvetica,sans-Serif" font-size="10.00">src/graphics/components</text>
<text text-anchor="middle" x="903" y="-7" font-family="Helvetica,sans-Serif" font-size="10.00">/ScaleHandle.cpp</text>
</a>
</g>
</g>
<!-- Node12&#45;&gt;Node13 -->
<g id="edge17_Node000012_Node000013" class="edge">
<title>Node12&#45;&gt;Node13</title>
<g id="a_edge17_Node000012_Node000013"><a xlink:title=" ">
<path fill="none" stroke="#63b8ff" d="M903,-55.54C903,-46.96 903,-37.61 903,-30.16"/>
<polygon fill="#63b8ff" stroke="#63b8ff" points="899.5,-55.8 903,-65.8 906.5,-55.8 899.5,-55.8"/>
</a>
</g>
</g>
<!-- Node17 -->
<g id="Node000017" class="node">
<title>Node17</title>
<g id="a_Node000017"><a xlink:href="HierarchyWidget_8cpp.html" target="_top" xlink:title=" ">
<polygon fill="white" stroke="#666666" points="1294,-24.5 1146,-24.5 1146,-5.5 1294,-5.5 1294,-24.5"/>
<text text-anchor="middle" x="1220" y="-12.5" font-family="Helvetica,sans-Serif" font-size="10.00">src/ui/HierarchyWidget.cpp</text>
</a>
</g>
</g>
<!-- Node16&#45;&gt;Node17 -->
<g id="edge25_Node000016_Node000017" class="edge">
<title>Node16&#45;&gt;Node17</title>
<g id="a_edge25_Node000016_Node000017"><a xlink:title=" ">
<path fill="none" stroke="#63b8ff" d="M1220,-61.08C1220,-49.13 1220,-34.22 1220,-24.91"/>
<polygon fill="#63b8ff" stroke="#63b8ff" points="1216.5,-61.37 1220,-71.37 1223.5,-61.37 1216.5,-61.37"/>
</a>
</g>
</g>
<!-- Node18 -->
<g id="Node000018" class="node">
<title>Node18</title>
<g id="a_Node000018"><a xlink:href="MainWindow_8cpp.html" target="_top" xlink:title=" ">
<polygon fill="white" stroke="#666666" points="2559,-24.5 2431,-24.5 2431,-5.5 2559,-5.5 2559,-24.5"/>
<text text-anchor="middle" x="2495" y="-12.5" font-family="Helvetica,sans-Serif" font-size="10.00">src/ui/MainWindow.cpp</text>
</a>
</g>
</g>
<!-- Node16&#45;&gt;Node18 -->
<g id="edge26_Node000016_Node000018" class="edge">
<title>Node16&#45;&gt;Node18</title>
<g id="a_edge26_Node000016_Node000018"><a xlink:title=" ">
<path fill="none" stroke="#63b8ff" d="M1293.3,-70.29C1307.45,-68.66 1322.17,-67.13 1336,-66 1752.52,-31.93 2255.27,-20.24 2430.81,-17.04"/>
<polygon fill="#63b8ff" stroke="#63b8ff" points="1292.65,-66.84 1283.12,-71.49 1293.47,-73.79 1292.65,-66.84"/>
</a>
</g>
</g>
<!-- Node24&#45;&gt;Node9 -->
<g id="edge33_Node000024_Node000009" class="edge">
<title>Node24&#45;&gt;Node9</title>
<g id="a_edge33_Node000024_Node000009"><a xlink:title=" ">
<path fill="none" stroke="#63b8ff" d="M2086.5,-130.03C2144.2,-118.74 2234.97,-100.98 2288.47,-90.52"/>
<polygon fill="#63b8ff" stroke="#63b8ff" points="2085.62,-126.64 2076.48,-131.99 2086.96,-133.51 2085.62,-126.64"/>
</a>
</g>
</g>
<!-- Node24&#45;&gt;Node15 -->
<g id="edge34_Node000024_Node000015" class="edge">
<title>Node24&#45;&gt;Node15</title>
<g id="a_edge34_Node000024_Node000015"><a xlink:title=" ">
<path fill="none" stroke="#63b8ff" d="M2053.84,-126.16C2069.99,-115.05 2091.83,-100.01 2105.41,-90.67"/>
<polygon fill="#63b8ff" stroke="#63b8ff" points="2051.8,-123.32 2045.54,-131.87 2055.76,-129.08 2051.8,-123.32"/>
</a>
</g>
</g>
<!-- Node25&#45;&gt;Node18 -->
<g id="edge37_Node000025_Node000018" class="edge">
<title>Node25&#45;&gt;Node18</title>
<g id="a_edge37_Node000025_Node000018"><a xlink:title=" ">
<path fill="none" stroke="#63b8ff" d="M2478.86,-121.74C2483.04,-94.36 2490.64,-44.58 2493.68,-24.62"/>
<polygon fill="#63b8ff" stroke="#63b8ff" points="2475.35,-121.53 2477.31,-131.94 2482.27,-122.59 2475.35,-121.53"/>
</a>
</g>
</g>
<!-- Node26 -->
<g id="Node000026" class="node">
<title>Node26</title>
<g id="a_Node000026"><a xlink:href="main_8cpp.html" target="_top" xlink:title=" ">
<polygon fill="white" stroke="#666666" points="2602.5,-90.5 2523.5,-90.5 2523.5,-71.5 2602.5,-71.5 2602.5,-90.5"/>
<text text-anchor="middle" x="2563" y="-78.5" font-family="Helvetica,sans-Serif" font-size="10.00">src/main.cpp</text>
</a>
</g>
</g>
<!-- Node25&#45;&gt;Node26 -->
<g id="edge36_Node000025_Node000026" class="edge">
<title>Node25&#45;&gt;Node26</title>
<g id="a_edge36_Node000025_Node000026"><a xlink:title=" ">
<path fill="none" stroke="#63b8ff" d="M2497.33,-126.16C2513.86,-115.05 2536.21,-100.01 2550.11,-90.67"/>
<polygon fill="#63b8ff" stroke="#63b8ff" points="2495.18,-123.38 2488.84,-131.87 2499.09,-129.19 2495.18,-123.38"/>
</a>
</g>
</g>
<!-- Node29&#45;&gt;Node6 -->
<g id="edge46_Node000029_Node000006" class="edge">
<title>Node29&#45;&gt;Node6</title>
<g id="a_edge46_Node000029_Node000006"><a xlink:title=" ">
<path fill="none" stroke="#63b8ff" d="M2061.15,-250.38C1881.48,-236.73 1415.98,-199.35 1029,-151 886.22,-133.16 718.48,-104.69 637.93,-90.55"/>
<polygon fill="#63b8ff" stroke="#63b8ff" points="2061.05,-253.88 2071.29,-251.15 2061.58,-246.9 2061.05,-253.88"/>
</a>
</g>
</g>
<!-- Node29&#45;&gt;Node8 -->
<g id="edge48_Node000029_Node000008" class="edge">
<title>Node29&#45;&gt;Node8</title>
<g id="a_edge48_Node000029_Node000008"><a xlink:title=" ">
<path fill="none" stroke="#63b8ff" d="M2112.86,-242.42C2092.99,-231.24 2065.41,-215.73 2048.41,-206.17"/>
<polygon fill="#63b8ff" stroke="#63b8ff" points="2111.22,-245.52 2121.65,-247.37 2114.65,-239.41 2111.22,-245.52"/>
</a>
</g>
</g>
<!-- Node29&#45;&gt;Node9 -->
<g id="edge47_Node000029_Node000009" class="edge">
<title>Node29&#45;&gt;Node9</title>
<g id="a_edge47_Node000029_Node000009"><a xlink:title=" ">
<path fill="none" stroke="#63b8ff" d="M2175.41,-244.29C2235.62,-225.07 2347.69,-185.52 2370,-151 2383.58,-129.98 2358.33,-103.75 2342.82,-90.5"/>
<polygon fill="#63b8ff" stroke="#63b8ff" points="2173.99,-241.07 2165.51,-247.42 2176.1,-247.75 2173.99,-241.07"/>
</a>
</g>
</g>
<!-- Node29&#45;&gt;Node18 -->
<g id="edge50_Node000029_Node000018" class="edge">
<title>Node29&#45;&gt;Node18</title>
<g id="a_edge50_Node000029_Node000018"><a xlink:title=" ">
<path fill="none" stroke="#63b8ff" d="M2192.45,-245.55C2199.04,-244.34 2205.67,-243.13 2212,-242 2370.65,-213.66 2430.79,-243.15 2563,-151 2598.77,-126.07 2636.02,-102.39 2612,-66 2597.34,-43.79 2570.55,-31.41 2546.31,-24.52"/>
<polygon fill="#63b8ff" stroke="#63b8ff" points="2191.39,-242.19 2182.19,-247.45 2192.66,-249.07 2191.39,-242.19"/>
</a>
</g>
</g>
<!-- Node29&#45;&gt;Node26 -->
<g id="edge49_Node000029_Node000026" class="edge">
<title>Node29&#45;&gt;Node26</title>
<g id="a_edge49_Node000029_Node000026"><a xlink:title=" ">
<path fill="none" stroke="#63b8ff" d="M2189.82,-245.45C2294.09,-224.17 2518.55,-176.04 2544,-151 2560.65,-134.62 2563.09,-105.08 2563.21,-90.55"/>
<polygon fill="#63b8ff" stroke="#63b8ff" points="2188.92,-242.06 2179.81,-247.48 2190.31,-248.92 2188.92,-242.06"/>
</a>
</g>
</g>
<!-- Node29&#45;&gt;Node27 -->
<g id="edge51_Node000029_Node000027" class="edge">
<title>Node29&#45;&gt;Node27</title>
<g id="a_edge51_Node000029_Node000027"><a xlink:title=" ">
<path fill="none" stroke="#63b8ff" d="M2156.74,-241.35C2189.08,-217.37 2252.32,-170.45 2278.37,-151.13"/>
<polygon fill="#63b8ff" stroke="#63b8ff" points="2154.45,-238.7 2148.5,-247.47 2158.62,-244.32 2154.45,-238.7"/>
</a>
</g>
</g>
</g>
</svg>

<g id="navigator" transform="translate(0 0)" fill="#404254">
  <rect fill="#f2f5e9" fill-opacity="0.5" stroke="#606060" stroke-width=".5" x="0" y="0" width="60" height="60"/>
  <use id="zoomplus" xlink:href="#zoomPlus" x="17" y="9" onmousedown="handleZoom(evt,'in')"/>
  <use id="zoomminus" xlink:href="#zoomMin" x="42" y="9" onmousedown="handleZoom(evt,'out')"/>
  <use id="reset" xlink:href="#resetDef" x="30" y="36" onmousedown="handleReset()"/>
   <use id="arrowup" xlink:href="#arrowUp" x="0" y="0" onmousedown="handlePan(0,-1)"/>
  <use id="arrowright" xlink:href="#arrowRight" x="0" y="0" onmousedown="handlePan(1,0)"/>
  <use id="arrowdown" xlink:href="#arrowDown" x="0" y="0" onmousedown="handlePan(0,1)"/>
  <use id="arrowleft" xlink:href="#arrowLeft" x="0" y="0" onmousedown="handlePan(-1,0)"/>
</g>
<svg viewBox="0 0 15 15" width="100%" height="30px" preserveAspectRatio="xMaxYMin meet">
 <g id="arrow_out" transform="scale(0.3 0.3)">
  <a xlink:href="MathUtils_8h__dep__incl_org.svg" target="_base">
   <rect id="button" ry="5" rx="5" y="6" x="6" height="38" width="38"
        fill="#f2f5e9" fill-opacity="0.5" stroke="#606060" stroke-width="1.0"/>
   <path id="arrow"
     d="M 11.500037,31.436501 C 11.940474,20.09759 22.043105,11.32322 32.158766,21.979434 L 37.068811,17.246167 C 37.068811,17.246167 37.088388,32 37.088388,32 L 22.160133,31.978069 C 22.160133,31.978069 26.997745,27.140456 26.997745,27.140456 C 18.528582,18.264221 13.291696,25.230495 11.500037,31.436501 z"
     style="fill:#404040;"/>
  </a>
 </g>
</svg>

<style type='text/css'>
<![CDATA[
[data-mouse-over-selected='false'] { opacity: 0.7; }
[data-mouse-over-selected='true']  { opacity: 1.0; }
]]>
</style>
<script type="application/ecmascript"><![CDATA[
document.addEventListener('DOMContentLoaded', (event) => {
  highlightEdges();
  highlightAdjacentNodes();
});
]]></script>
</svg>
