<?xml version="1.0" encoding="UTF-8" standalone="no"?>
<!DOCTYPE svg PUBLIC "-//W3C//DTD SVG 1.1//EN"
 "http://www.w3.org/Graphics/SVG/1.1/DTD/svg11.dtd">
<!-- Generated by graphviz version 2.43.0 (0)
 -->
<!-- Title: src/graphics/components/Mesh.h Pages: 1 -->
<svg width="477pt" height="269pt"
 viewBox="0.00 0.00 477.07 269.00" xmlns="http://www.w3.org/2000/svg" xmlns:xlink="http://www.w3.org/1999/xlink">
<g id="graph0" class="graph" transform="scale(1 1) rotate(0) translate(4 265)">
<title>src/graphics/components/Mesh.h</title>
<!-- Node1 -->
<g id="Node000001" class="node">
<title>Node1</title>
<g id="a_Node000001"><a xlink:title=" ">
<polygon fill="#999999" stroke="#666666" points="343,-261 205,-261 205,-231 343,-231 343,-261"/>
<text text-anchor="start" x="213" y="-249" font-family="Helvetica,sans-Serif" font-size="10.00">src/graphics/components</text>
<text text-anchor="middle" x="274" y="-238" font-family="Helvetica,sans-Serif" font-size="10.00">/Mesh.h</text>
</a>
</g>
</g>
<!-- Node2 -->
<g id="Node000002" class="node">
<title>Node2</title>
<g id="a_Node000002"><a xlink:title=" ">
<polygon fill="#e0e0e0" stroke="#999999" points="120,-195 0,-195 0,-165 120,-165 120,-195"/>
<text text-anchor="start" x="8" y="-183" font-family="Helvetica,sans-Serif" font-size="10.00">QOpenGLFunctions_4</text>
<text text-anchor="middle" x="60" y="-172" font-family="Helvetica,sans-Serif" font-size="10.00">_5_Core</text>
</a>
</g>
</g>
<!-- Node1&#45;&gt;Node2 -->
<g id="edge1_Node000001_Node000002" class="edge">
<title>Node1&#45;&gt;Node2</title>
<g id="a_edge1_Node000001_Node000002"><a xlink:title=" ">
<path fill="none" stroke="#63b8ff" d="M227.04,-230.95C194.56,-221.24 151.18,-208.27 116.76,-197.98"/>
<polygon fill="#63b8ff" stroke="#63b8ff" points="117.44,-194.52 106.85,-195.01 115.43,-201.23 117.44,-194.52"/>
</a>
</g>
</g>
<!-- Node3 -->
<g id="Node000003" class="node">
<title>Node3</title>
<g id="a_Node000003"><a xlink:title=" ">
<polygon fill="#e0e0e0" stroke="#999999" points="185.5,-189.5 138.5,-189.5 138.5,-170.5 185.5,-170.5 185.5,-189.5"/>
<text text-anchor="middle" x="162" y="-177.5" font-family="Helvetica,sans-Serif" font-size="10.00">vector</text>
</a>
</g>
</g>
<!-- Node1&#45;&gt;Node3 -->
<g id="edge2_Node000001_Node000003" class="edge">
<title>Node1&#45;&gt;Node3</title>
<g id="a_edge2_Node000001_Node000003"><a xlink:title=" ">
<path fill="none" stroke="#63b8ff" d="M249.42,-230.95C230.47,-220.13 204.42,-205.24 185.7,-194.54"/>
<polygon fill="#63b8ff" stroke="#63b8ff" points="187.32,-191.44 176.91,-189.52 183.85,-197.52 187.32,-191.44"/>
</a>
</g>
</g>
<!-- Node4 -->
<g id="Node000004" class="node">
<title>Node4</title>
<g id="a_Node000004"><a xlink:title=" ">
<polygon fill="#e0e0e0" stroke="#999999" points="417,-74 339,-74 339,-55 417,-55 417,-74"/>
<text text-anchor="middle" x="378" y="-62" font-family="Helvetica,sans-Serif" font-size="10.00">glm/glm.hpp</text>
</a>
</g>
</g>
<!-- Node1&#45;&gt;Node4 -->
<g id="edge3_Node000001_Node000004" class="edge">
<title>Node1&#45;&gt;Node4</title>
<g id="a_edge3_Node000001_Node000004"><a xlink:title=" ">
<path fill="none" stroke="#63b8ff" d="M325.02,-230.96C371.88,-214.96 438.13,-183.64 466,-129 478.33,-104.83 448.93,-87.76 420.86,-77.45"/>
<polygon fill="#63b8ff" stroke="#63b8ff" points="421.65,-74.02 411.06,-74.08 419.38,-80.64 421.65,-74.02"/>
</a>
</g>
</g>
<!-- Node5 -->
<g id="Node000005" class="node">
<title>Node5</title>
<g id="a_Node000005"><a xlink:href="AABB_8h.html" target="_top" xlink:title=" ">
<polygon fill="white" stroke="#666666" points="344,-189.5 204,-189.5 204,-170.5 344,-170.5 344,-189.5"/>
<text text-anchor="middle" x="274" y="-177.5" font-family="Helvetica,sans-Serif" font-size="10.00">physics/bounding/AABB.h</text>
</a>
</g>
</g>
<!-- Node1&#45;&gt;Node5 -->
<g id="edge4_Node000001_Node000005" class="edge">
<title>Node1&#45;&gt;Node5</title>
<g id="a_edge4_Node000001_Node000005"><a xlink:title=" ">
<path fill="none" stroke="#63b8ff" d="M274,-230.8C274,-221.7 274,-209.79 274,-199.9"/>
<polygon fill="#63b8ff" stroke="#63b8ff" points="277.5,-199.84 274,-189.84 270.5,-199.84 277.5,-199.84"/>
</a>
</g>
</g>
<!-- Node11 -->
<g id="Node000011" class="node">
<title>Node11</title>
<g id="a_Node000011"><a xlink:href="InstanceData_8h.html" target="_top" xlink:title=" ">
<polygon fill="white" stroke="#666666" points="457,-129 299,-129 299,-110 457,-110 457,-129"/>
<text text-anchor="middle" x="378" y="-117" font-family="Helvetica,sans-Serif" font-size="10.00">graphics/core/InstanceData.h</text>
</a>
</g>
</g>
<!-- Node1&#45;&gt;Node11 -->
<g id="edge12_Node000001_Node000011" class="edge">
<title>Node1&#45;&gt;Node11</title>
<g id="a_edge12_Node000001_Node000011"><a xlink:title=" ">
<path fill="none" stroke="#63b8ff" d="M306.62,-230.84C322.57,-222.47 340.88,-210.45 353,-195 365.86,-178.6 372.28,-155.25 375.36,-139.08"/>
<polygon fill="#63b8ff" stroke="#63b8ff" points="378.81,-139.64 377,-129.21 371.91,-138.5 378.81,-139.64"/>
</a>
</g>
</g>
<!-- Node5&#45;&gt;Node4 -->
<g id="edge5_Node000005_Node000004" class="edge">
<title>Node5&#45;&gt;Node4</title>
<g id="a_edge5_Node000005_Node000004"><a xlink:title=" ">
<path fill="none" stroke="#63b8ff" d="M273.77,-170.38C273.83,-156.27 275.88,-128 290,-110 301.75,-95.02 319.89,-84.66 336.66,-77.73"/>
<polygon fill="#63b8ff" stroke="#63b8ff" points="338.22,-80.88 346.31,-74.04 335.72,-74.34 338.22,-80.88"/>
</a>
</g>
</g>
<!-- Node6 -->
<g id="Node000006" class="node">
<title>Node6</title>
<g id="a_Node000006"><a xlink:href="ICollider_8h.html" target="_top" xlink:title="Abstract interface for collision detection shapes.">
<polygon fill="white" stroke="#666666" points="242.5,-129 177.5,-129 177.5,-110 242.5,-110 242.5,-129"/>
<text text-anchor="middle" x="210" y="-117" font-family="Helvetica,sans-Serif" font-size="10.00">ICollider.h</text>
</a>
</g>
</g>
<!-- Node5&#45;&gt;Node6 -->
<g id="edge6_Node000005_Node000006" class="edge">
<title>Node5&#45;&gt;Node6</title>
<g id="a_edge6_Node000005_Node000006"><a xlink:title=" ">
<path fill="none" stroke="#63b8ff" d="M264.56,-170.37C254.73,-161.38 239.11,-147.11 227.11,-136.14"/>
<polygon fill="#63b8ff" stroke="#63b8ff" points="229.22,-133.33 219.48,-129.17 224.5,-138.5 229.22,-133.33"/>
</a>
</g>
</g>
<!-- Node6&#45;&gt;Node4 -->
<g id="edge7_Node000006_Node000004" class="edge">
<title>Node6&#45;&gt;Node4</title>
<g id="a_edge7_Node000006_Node000004"><a xlink:title=" ">
<path fill="none" stroke="#63b8ff" d="M236.99,-109.98C265.2,-101.09 309.64,-87.07 341.08,-77.15"/>
<polygon fill="#63b8ff" stroke="#63b8ff" points="342.31,-80.43 350.8,-74.08 340.21,-73.75 342.31,-80.43"/>
</a>
</g>
</g>
<!-- Node7 -->
<g id="Node000007" class="node">
<title>Node7</title>
<g id="a_Node000007"><a xlink:title=" ">
<polygon fill="#e0e0e0" stroke="#999999" points="157,-74 99,-74 99,-55 157,-55 157,-74"/>
<text text-anchor="middle" x="128" y="-62" font-family="Helvetica,sans-Serif" font-size="10.00">memory</text>
</a>
</g>
</g>
<!-- Node6&#45;&gt;Node7 -->
<g id="edge8_Node000006_Node000007" class="edge">
<title>Node6&#45;&gt;Node7</title>
<g id="a_edge8_Node000006_Node000007"><a xlink:title=" ">
<path fill="none" stroke="#63b8ff" d="M196.83,-109.98C184.23,-101.84 165,-89.41 150.06,-79.76"/>
<polygon fill="#63b8ff" stroke="#63b8ff" points="151.71,-76.66 141.41,-74.17 147.91,-82.54 151.71,-76.66"/>
</a>
</g>
</g>
<!-- Node8 -->
<g id="Node000008" class="node">
<title>Node8</title>
<g id="a_Node000008"><a xlink:title=" ">
<polygon fill="#e0e0e0" stroke="#999999" points="231,-74 175,-74 175,-55 231,-55 231,-74"/>
<text text-anchor="middle" x="203" y="-62" font-family="Helvetica,sans-Serif" font-size="10.00">optional</text>
</a>
</g>
</g>
<!-- Node6&#45;&gt;Node8 -->
<g id="edge9_Node000006_Node000008" class="edge">
<title>Node6&#45;&gt;Node8</title>
<g id="a_edge9_Node000006_Node000008"><a xlink:title=" ">
<path fill="none" stroke="#63b8ff" d="M208.84,-109.75C207.93,-102.8 206.61,-92.85 205.46,-84.13"/>
<polygon fill="#63b8ff" stroke="#63b8ff" points="208.91,-83.54 204.13,-74.09 201.97,-84.46 208.91,-83.54"/>
</a>
</g>
</g>
<!-- Node9 -->
<g id="Node000009" class="node">
<title>Node9</title>
<g id="a_Node000009"><a xlink:href="Ray_8h.html" target="_top" xlink:title=" ">
<polygon fill="white" stroke="#666666" points="320.5,-74 249.5,-74 249.5,-55 320.5,-55 320.5,-74"/>
<text text-anchor="middle" x="285" y="-62" font-family="Helvetica,sans-Serif" font-size="10.00">math/Ray.h</text>
</a>
</g>
</g>
<!-- Node6&#45;&gt;Node9 -->
<g id="edge10_Node000006_Node000009" class="edge">
<title>Node6&#45;&gt;Node9</title>
<g id="a_edge10_Node000006_Node000009"><a xlink:title=" ">
<path fill="none" stroke="#63b8ff" d="M222.05,-109.98C233.46,-101.92 250.83,-89.65 264.43,-80.03"/>
<polygon fill="#63b8ff" stroke="#63b8ff" points="266.58,-82.8 272.73,-74.17 262.54,-77.08 266.58,-82.8"/>
</a>
</g>
</g>
<!-- Node10 -->
<g id="Node000010" class="node">
<title>Node10</title>
<g id="a_Node000010"><a xlink:title=" ">
<polygon fill="#e0e0e0" stroke="#999999" points="326.5,-19 243.5,-19 243.5,0 326.5,0 326.5,-19"/>
<text text-anchor="middle" x="285" y="-7" font-family="Helvetica,sans-Serif" font-size="10.00">glm/vec3.hpp</text>
</a>
</g>
</g>
<!-- Node9&#45;&gt;Node10 -->
<g id="edge11_Node000009_Node000010" class="edge">
<title>Node9&#45;&gt;Node10</title>
<g id="a_edge11_Node000009_Node000010"><a xlink:title=" ">
<path fill="none" stroke="#63b8ff" d="M285,-54.75C285,-47.8 285,-37.85 285,-29.13"/>
<polygon fill="#63b8ff" stroke="#63b8ff" points="288.5,-29.09 285,-19.09 281.5,-29.09 288.5,-29.09"/>
</a>
</g>
</g>
<!-- Node11&#45;&gt;Node4 -->
<g id="edge13_Node000011_Node000004" class="edge">
<title>Node11&#45;&gt;Node4</title>
<g id="a_edge13_Node000011_Node000004"><a xlink:title=" ">
<path fill="none" stroke="#63b8ff" d="M378,-109.75C378,-102.8 378,-92.85 378,-84.13"/>
<polygon fill="#63b8ff" stroke="#63b8ff" points="381.5,-84.09 378,-74.09 374.5,-84.09 381.5,-84.09"/>
</a>
</g>
</g>
</g>
</svg>
