<?xml version="1.0" encoding="UTF-8" standalone="no"?>
<!DOCTYPE svg PUBLIC "-//W3C//DTD SVG 1.1//EN"
 "http://www.w3.org/Graphics/SVG/1.1/DTD/svg11.dtd">
<!-- Generated by graphviz version 2.43.0 (0)
 -->
<!-- Title: src/graphics/components/Mesh.h Pages: 1 -->
<svg width="390pt" height="214pt"
 viewBox="0.00 0.00 390.00 214.00" xmlns="http://www.w3.org/2000/svg" xmlns:xlink="http://www.w3.org/1999/xlink">
<g id="graph0" class="graph" transform="scale(1 1) rotate(0) translate(4 210)">
<title>src/graphics/components/Mesh.h</title>
<!-- Node1 -->
<g id="Node000001" class="node">
<title>Node1</title>
<g id="a_Node000001"><a xlink:title=" ">
<polygon fill="#999999" stroke="#666666" points="257,-206 119,-206 119,-176 257,-176 257,-206"/>
<text text-anchor="start" x="127" y="-194" font-family="Helvetica,sans-Serif" font-size="10.00">src/graphics/components</text>
<text text-anchor="middle" x="188" y="-183" font-family="Helvetica,sans-Serif" font-size="10.00">/Mesh.h</text>
</a>
</g>
</g>
<!-- Node2 -->
<g id="Node000002" class="node">
<title>Node2</title>
<g id="a_Node000002"><a xlink:title=" ">
<polygon fill="#e0e0e0" stroke="#999999" points="120,-140 0,-140 0,-110 120,-110 120,-140"/>
<text text-anchor="start" x="8" y="-128" font-family="Helvetica,sans-Serif" font-size="10.00">QOpenGLFunctions_4</text>
<text text-anchor="middle" x="60" y="-117" font-family="Helvetica,sans-Serif" font-size="10.00">_5_Core</text>
</a>
</g>
</g>
<!-- Node1&#45;&gt;Node2 -->
<g id="edge1_Node000001_Node000002" class="edge">
<title>Node1&#45;&gt;Node2</title>
<g id="a_edge1_Node000001_Node000002"><a xlink:title=" ">
<path fill="none" stroke="#63b8ff" d="M159.91,-175.95C141.49,-166.74 117.19,-154.6 97.17,-144.59"/>
<polygon fill="#63b8ff" stroke="#63b8ff" points="98.53,-141.35 88.02,-140.01 95.4,-147.61 98.53,-141.35"/>
</a>
</g>
</g>
<!-- Node3 -->
<g id="Node000003" class="node">
<title>Node3</title>
<g id="a_Node000003"><a xlink:title=" ">
<polygon fill="#e0e0e0" stroke="#999999" points="185.5,-134.5 138.5,-134.5 138.5,-115.5 185.5,-115.5 185.5,-134.5"/>
<text text-anchor="middle" x="162" y="-122.5" font-family="Helvetica,sans-Serif" font-size="10.00">vector</text>
</a>
</g>
</g>
<!-- Node1&#45;&gt;Node3 -->
<g id="edge2_Node000001_Node000003" class="edge">
<title>Node1&#45;&gt;Node3</title>
<g id="a_edge2_Node000001_Node000003"><a xlink:title=" ">
<path fill="none" stroke="#63b8ff" d="M182.23,-175.8C178.45,-166.5 173.49,-154.27 169.42,-144.26"/>
<polygon fill="#63b8ff" stroke="#63b8ff" points="172.6,-142.79 165.59,-134.84 166.11,-145.43 172.6,-142.79"/>
</a>
</g>
</g>
<!-- Node4 -->
<g id="Node000004" class="node">
<title>Node4</title>
<g id="a_Node000004"><a xlink:title=" ">
<polygon fill="#e0e0e0" stroke="#999999" points="291,-19 213,-19 213,0 291,0 291,-19"/>
<text text-anchor="middle" x="252" y="-7" font-family="Helvetica,sans-Serif" font-size="10.00">glm/glm.hpp</text>
</a>
</g>
</g>
<!-- Node1&#45;&gt;Node4 -->
<g id="edge3_Node000001_Node000004" class="edge">
<title>Node1&#45;&gt;Node4</title>
<g id="a_edge3_Node000001_Node000004"><a xlink:title=" ">
<path fill="none" stroke="#63b8ff" d="M193.02,-175.91C204.51,-143.71 232.67,-64.7 245.48,-28.8"/>
<polygon fill="#63b8ff" stroke="#63b8ff" points="248.86,-29.73 248.92,-19.13 242.27,-27.38 248.86,-29.73"/>
</a>
</g>
</g>
<!-- Node5 -->
<g id="Node000005" class="node">
<title>Node5</title>
<g id="a_Node000005"><a xlink:href="AABB_8h.html" target="_top" xlink:title=" ">
<polygon fill="white" stroke="#666666" points="382,-134.5 242,-134.5 242,-115.5 382,-115.5 382,-134.5"/>
<text text-anchor="middle" x="312" y="-122.5" font-family="Helvetica,sans-Serif" font-size="10.00">physics/bounding/AABB.h</text>
</a>
</g>
</g>
<!-- Node1&#45;&gt;Node5 -->
<g id="edge4_Node000001_Node000005" class="edge">
<title>Node1&#45;&gt;Node5</title>
<g id="a_edge4_Node000001_Node000005"><a xlink:title=" ">
<path fill="none" stroke="#63b8ff" d="M215.21,-175.95C236.48,-164.98 265.82,-149.83 286.61,-139.11"/>
<polygon fill="#63b8ff" stroke="#63b8ff" points="288.22,-142.21 295.5,-134.52 285.01,-135.99 288.22,-142.21"/>
</a>
</g>
</g>
<!-- Node5&#45;&gt;Node4 -->
<g id="edge5_Node000005_Node000004" class="edge">
<title>Node5&#45;&gt;Node4</title>
<g id="a_edge5_Node000005_Node000004"><a xlink:title=" ">
<path fill="none" stroke="#63b8ff" d="M302.93,-115.22C293.69,-105.81 279.54,-90.06 271,-74 263.48,-59.86 258.52,-42.32 255.56,-29.26"/>
<polygon fill="#63b8ff" stroke="#63b8ff" points="258.92,-28.21 253.46,-19.13 252.06,-29.63 258.92,-28.21"/>
</a>
</g>
</g>
<!-- Node6 -->
<g id="Node000006" class="node">
<title>Node6</title>
<g id="a_Node000006"><a xlink:href="ICollider_8h.html" target="_top" xlink:title=" ">
<polygon fill="white" stroke="#666666" points="345.5,-74 280.5,-74 280.5,-55 345.5,-55 345.5,-74"/>
<text text-anchor="middle" x="313" y="-62" font-family="Helvetica,sans-Serif" font-size="10.00">ICollider.h</text>
</a>
</g>
</g>
<!-- Node5&#45;&gt;Node6 -->
<g id="edge6_Node000005_Node000006" class="edge">
<title>Node5&#45;&gt;Node6</title>
<g id="a_edge6_Node000005_Node000006"><a xlink:title=" ">
<path fill="none" stroke="#63b8ff" d="M312.15,-115.37C312.29,-107.25 312.5,-94.81 312.68,-84.39"/>
<polygon fill="#63b8ff" stroke="#63b8ff" points="316.18,-84.23 312.85,-74.17 309.18,-84.11 316.18,-84.23"/>
</a>
</g>
</g>
<!-- Node6&#45;&gt;Node4 -->
<g id="edge7_Node000006_Node000004" class="edge">
<title>Node6&#45;&gt;Node4</title>
<g id="a_edge7_Node000006_Node000004"><a xlink:title=" ">
<path fill="none" stroke="#63b8ff" d="M303.2,-54.98C294.18,-47.15 280.59,-35.34 269.68,-25.86"/>
<polygon fill="#63b8ff" stroke="#63b8ff" points="271.82,-23.09 261.98,-19.17 267.23,-28.37 271.82,-23.09"/>
</a>
</g>
</g>
</g>
</svg>
