<?xml version="1.0" encoding="UTF-8" standalone="no"?>
<!DOCTYPE svg PUBLIC "-//W3C//DTD SVG 1.1//EN"
 "http://www.w3.org/Graphics/SVG/1.1/DTD/svg11.dtd">
<!-- Generated by graphviz version 2.43.0 (0)
 -->
<!-- Title: src/graphics/components/Mesh.cpp Pages: 1 -->
<svg width="512pt" height="324pt"
 viewBox="0.00 0.00 512.00 324.00" xmlns="http://www.w3.org/2000/svg" xmlns:xlink="http://www.w3.org/1999/xlink">
<g id="graph0" class="graph" transform="scale(1 1) rotate(0) translate(4 320)">
<title>src/graphics/components/Mesh.cpp</title>
<!-- Node1 -->
<g id="Node000001" class="node">
<title>Node1</title>
<g id="a_Node000001"><a xlink:title=" ">
<polygon fill="#999999" stroke="#666666" points="194.5,-316 56.5,-316 56.5,-286 194.5,-286 194.5,-316"/>
<text text-anchor="start" x="64.5" y="-304" font-family="Helvetica,sans-Serif" font-size="10.00">src/graphics/components</text>
<text text-anchor="middle" x="125.5" y="-293" font-family="Helvetica,sans-Serif" font-size="10.00">/Mesh.cpp</text>
</a>
</g>
</g>
<!-- Node2 -->
<g id="Node000002" class="node">
<title>Node2</title>
<g id="a_Node000002"><a xlink:href="Mesh_8h.html" target="_top" xlink:title=" ">
<polygon fill="white" stroke="#666666" points="151.5,-250 99.5,-250 99.5,-231 151.5,-231 151.5,-250"/>
<text text-anchor="middle" x="125.5" y="-238" font-family="Helvetica,sans-Serif" font-size="10.00">Mesh.h</text>
</a>
</g>
</g>
<!-- Node1&#45;&gt;Node2 -->
<g id="edge1_Node000001_Node000002" class="edge">
<title>Node1&#45;&gt;Node2</title>
<g id="a_edge1_Node000001_Node000002"><a xlink:title=" ">
<path fill="none" stroke="#63b8ff" d="M125.5,-285.84C125.5,-278.21 125.5,-268.7 125.5,-260.45"/>
<polygon fill="#63b8ff" stroke="#63b8ff" points="129,-260.27 125.5,-250.27 122,-260.27 129,-260.27"/>
</a>
</g>
</g>
<!-- Node4 -->
<g id="Node000004" class="node">
<title>Node4</title>
<g id="a_Node000004"><a xlink:title=" ">
<polygon fill="#e0e0e0" stroke="#999999" points="47,-189.5 0,-189.5 0,-170.5 47,-170.5 47,-189.5"/>
<text text-anchor="middle" x="23.5" y="-177.5" font-family="Helvetica,sans-Serif" font-size="10.00">vector</text>
</a>
</g>
</g>
<!-- Node1&#45;&gt;Node4 -->
<g id="edge13_Node000001_Node000004" class="edge">
<title>Node1&#45;&gt;Node4</title>
<g id="a_edge13_Node000001_Node000004"><a xlink:title=" ">
<path fill="none" stroke="#63b8ff" d="M113.4,-285.88C94.41,-263.73 57.71,-220.91 37.57,-197.42"/>
<polygon fill="#63b8ff" stroke="#63b8ff" points="40.13,-195.03 30.97,-189.71 34.82,-199.58 40.13,-195.03"/>
</a>
</g>
</g>
<!-- Node12 -->
<g id="Node000012" class="node">
<title>Node12</title>
<g id="a_Node000012"><a xlink:title=" ">
<polygon fill="#e0e0e0" stroke="#999999" points="229.5,-250 169.5,-250 169.5,-231 229.5,-231 229.5,-250"/>
<text text-anchor="middle" x="199.5" y="-238" font-family="Helvetica,sans-Serif" font-size="10.00">iostream</text>
</a>
</g>
</g>
<!-- Node1&#45;&gt;Node12 -->
<g id="edge14_Node000001_Node000012" class="edge">
<title>Node1&#45;&gt;Node12</title>
<g id="a_edge14_Node000001_Node000012"><a xlink:title=" ">
<path fill="none" stroke="#63b8ff" d="M143.41,-285.84C154.59,-277 168.98,-265.63 180.38,-256.62"/>
<polygon fill="#63b8ff" stroke="#63b8ff" points="182.74,-259.21 188.41,-250.27 178.4,-253.72 182.74,-259.21"/>
</a>
</g>
</g>
<!-- Node3 -->
<g id="Node000003" class="node">
<title>Node3</title>
<g id="a_Node000003"><a xlink:title=" ">
<polygon fill="#e0e0e0" stroke="#999999" points="185.5,-195 65.5,-195 65.5,-165 185.5,-165 185.5,-195"/>
<text text-anchor="start" x="73.5" y="-183" font-family="Helvetica,sans-Serif" font-size="10.00">QOpenGLFunctions_4</text>
<text text-anchor="middle" x="125.5" y="-172" font-family="Helvetica,sans-Serif" font-size="10.00">_5_Core</text>
</a>
</g>
</g>
<!-- Node2&#45;&gt;Node3 -->
<g id="edge2_Node000002_Node000003" class="edge">
<title>Node2&#45;&gt;Node3</title>
<g id="a_edge2_Node000002_Node000003"><a xlink:title=" ">
<path fill="none" stroke="#63b8ff" d="M125.5,-230.87C125.5,-224.11 125.5,-214.35 125.5,-205.26"/>
<polygon fill="#63b8ff" stroke="#63b8ff" points="129,-205.11 125.5,-195.11 122,-205.11 129,-205.11"/>
</a>
</g>
</g>
<!-- Node2&#45;&gt;Node4 -->
<g id="edge3_Node000002_Node000004" class="edge">
<title>Node2&#45;&gt;Node4</title>
<g id="a_edge3_Node000002_Node000004"><a xlink:title=" ">
<path fill="none" stroke="#63b8ff" d="M110.45,-230.87C93.88,-221.36 67,-205.95 47.51,-194.77"/>
<polygon fill="#63b8ff" stroke="#63b8ff" points="49.03,-191.61 38.61,-189.67 45.55,-197.68 49.03,-191.61"/>
</a>
</g>
</g>
<!-- Node5 -->
<g id="Node000005" class="node">
<title>Node5</title>
<g id="a_Node000005"><a xlink:title=" ">
<polygon fill="#e0e0e0" stroke="#999999" points="258.5,-74 180.5,-74 180.5,-55 258.5,-55 258.5,-74"/>
<text text-anchor="middle" x="219.5" y="-62" font-family="Helvetica,sans-Serif" font-size="10.00">glm/glm.hpp</text>
</a>
</g>
</g>
<!-- Node2&#45;&gt;Node5 -->
<g id="edge4_Node000002_Node000005" class="edge">
<title>Node2&#45;&gt;Node5</title>
<g id="a_edge4_Node000002_Node000005"><a xlink:title=" ">
<path fill="none" stroke="#63b8ff" d="M147.62,-230.86C163.18,-223.63 183.17,-211.77 194.5,-195 217.4,-161.12 220.51,-111.5 220.31,-84.58"/>
<polygon fill="#63b8ff" stroke="#63b8ff" points="223.8,-84.15 220.05,-74.24 216.8,-84.32 223.8,-84.15"/>
</a>
</g>
</g>
<!-- Node6 -->
<g id="Node000006" class="node">
<title>Node6</title>
<g id="a_Node000006"><a xlink:href="AABB_8h.html" target="_top" xlink:title=" ">
<polygon fill="white" stroke="#666666" points="381.5,-189.5 241.5,-189.5 241.5,-170.5 381.5,-170.5 381.5,-189.5"/>
<text text-anchor="middle" x="311.5" y="-177.5" font-family="Helvetica,sans-Serif" font-size="10.00">physics/bounding/AABB.h</text>
</a>
</g>
</g>
<!-- Node2&#45;&gt;Node6 -->
<g id="edge5_Node000002_Node000006" class="edge">
<title>Node2&#45;&gt;Node6</title>
<g id="a_edge5_Node000002_Node000006"><a xlink:title=" ">
<path fill="none" stroke="#63b8ff" d="M151.75,-231.24C183.88,-221.14 238.47,-203.97 274.76,-192.56"/>
<polygon fill="#63b8ff" stroke="#63b8ff" points="275.98,-195.84 284.47,-189.5 273.88,-189.16 275.98,-195.84"/>
</a>
</g>
</g>
<!-- Node6&#45;&gt;Node5 -->
<g id="edge6_Node000006_Node000005" class="edge">
<title>Node6&#45;&gt;Node5</title>
<g id="a_edge6_Node000006_Node000005"><a xlink:title=" ">
<path fill="none" stroke="#63b8ff" d="M304.21,-170.17C296,-160.2 282.24,-143.47 270.5,-129 257.61,-113.12 243.01,-94.92 232.74,-82.08"/>
<polygon fill="#63b8ff" stroke="#63b8ff" points="235.38,-79.78 226.4,-74.15 229.91,-84.15 235.38,-79.78"/>
</a>
</g>
</g>
<!-- Node7 -->
<g id="Node000007" class="node">
<title>Node7</title>
<g id="a_Node000007"><a xlink:href="ICollider_8h.html" target="_top" xlink:title="Abstract interface for collision detection shapes.">
<polygon fill="white" stroke="#666666" points="345,-129 280,-129 280,-110 345,-110 345,-129"/>
<text text-anchor="middle" x="312.5" y="-117" font-family="Helvetica,sans-Serif" font-size="10.00">ICollider.h</text>
</a>
</g>
</g>
<!-- Node6&#45;&gt;Node7 -->
<g id="edge7_Node000006_Node000007" class="edge">
<title>Node6&#45;&gt;Node7</title>
<g id="a_edge7_Node000006_Node000007"><a xlink:title=" ">
<path fill="none" stroke="#63b8ff" d="M311.65,-170.37C311.79,-162.25 312,-149.81 312.18,-139.39"/>
<polygon fill="#63b8ff" stroke="#63b8ff" points="315.68,-139.23 312.35,-129.17 308.68,-139.11 315.68,-139.23"/>
</a>
</g>
</g>
<!-- Node7&#45;&gt;Node5 -->
<g id="edge8_Node000007_Node000005" class="edge">
<title>Node7&#45;&gt;Node5</title>
<g id="a_edge8_Node000007_Node000005"><a xlink:title=" ">
<path fill="none" stroke="#63b8ff" d="M297.56,-109.98C283,-101.69 260.63,-88.94 243.57,-79.22"/>
<polygon fill="#63b8ff" stroke="#63b8ff" points="245.14,-76.08 234.71,-74.17 241.67,-82.16 245.14,-76.08"/>
</a>
</g>
</g>
<!-- Node8 -->
<g id="Node000008" class="node">
<title>Node8</title>
<g id="a_Node000008"><a xlink:title=" ">
<polygon fill="#e0e0e0" stroke="#999999" points="334.5,-74 276.5,-74 276.5,-55 334.5,-55 334.5,-74"/>
<text text-anchor="middle" x="305.5" y="-62" font-family="Helvetica,sans-Serif" font-size="10.00">memory</text>
</a>
</g>
</g>
<!-- Node7&#45;&gt;Node8 -->
<g id="edge9_Node000007_Node000008" class="edge">
<title>Node7&#45;&gt;Node8</title>
<g id="a_edge9_Node000007_Node000008"><a xlink:title=" ">
<path fill="none" stroke="#63b8ff" d="M311.34,-109.75C310.43,-102.8 309.11,-92.85 307.96,-84.13"/>
<polygon fill="#63b8ff" stroke="#63b8ff" points="311.41,-83.54 306.63,-74.09 304.47,-84.46 311.41,-83.54"/>
</a>
</g>
</g>
<!-- Node9 -->
<g id="Node000009" class="node">
<title>Node9</title>
<g id="a_Node000009"><a xlink:title=" ">
<polygon fill="#e0e0e0" stroke="#999999" points="408.5,-74 352.5,-74 352.5,-55 408.5,-55 408.5,-74"/>
<text text-anchor="middle" x="380.5" y="-62" font-family="Helvetica,sans-Serif" font-size="10.00">optional</text>
</a>
</g>
</g>
<!-- Node7&#45;&gt;Node9 -->
<g id="edge10_Node000007_Node000009" class="edge">
<title>Node7&#45;&gt;Node9</title>
<g id="a_edge10_Node000007_Node000009"><a xlink:title=" ">
<path fill="none" stroke="#63b8ff" d="M323.43,-109.98C333.58,-102.07 348.92,-90.11 361.15,-80.58"/>
<polygon fill="#63b8ff" stroke="#63b8ff" points="363.64,-83.08 369.38,-74.17 359.34,-77.56 363.64,-83.08"/>
</a>
</g>
</g>
<!-- Node10 -->
<g id="Node000010" class="node">
<title>Node10</title>
<g id="a_Node000010"><a xlink:href="Ray_8h.html" target="_top" xlink:title=" ">
<polygon fill="white" stroke="#666666" points="498,-74 427,-74 427,-55 498,-55 498,-74"/>
<text text-anchor="middle" x="462.5" y="-62" font-family="Helvetica,sans-Serif" font-size="10.00">math/Ray.h</text>
</a>
</g>
</g>
<!-- Node7&#45;&gt;Node10 -->
<g id="edge11_Node000007_Node000010" class="edge">
<title>Node7&#45;&gt;Node10</title>
<g id="a_edge11_Node000007_Node000010"><a xlink:title=" ">
<path fill="none" stroke="#63b8ff" d="M336.6,-109.98C361.38,-101.23 400.2,-87.51 428.19,-77.62"/>
<polygon fill="#63b8ff" stroke="#63b8ff" points="429.7,-80.8 437.96,-74.17 427.37,-74.2 429.7,-80.8"/>
</a>
</g>
</g>
<!-- Node11 -->
<g id="Node000011" class="node">
<title>Node11</title>
<g id="a_Node000011"><a xlink:title=" ">
<polygon fill="#e0e0e0" stroke="#999999" points="504,-19 421,-19 421,0 504,0 504,-19"/>
<text text-anchor="middle" x="462.5" y="-7" font-family="Helvetica,sans-Serif" font-size="10.00">glm/vec3.hpp</text>
</a>
</g>
</g>
<!-- Node10&#45;&gt;Node11 -->
<g id="edge12_Node000010_Node000011" class="edge">
<title>Node10&#45;&gt;Node11</title>
<g id="a_edge12_Node000010_Node000011"><a xlink:title=" ">
<path fill="none" stroke="#63b8ff" d="M462.5,-54.75C462.5,-47.8 462.5,-37.85 462.5,-29.13"/>
<polygon fill="#63b8ff" stroke="#63b8ff" points="466,-29.09 462.5,-19.09 459,-29.09 466,-29.09"/>
</a>
</g>
</g>
</g>
</svg>
