<?xml version="1.0" encoding="UTF-8" standalone="no"?>
<!DOCTYPE svg PUBLIC "-//W3C//DTD SVG 1.1//EN"
 "http://www.w3.org/Graphics/SVG/1.1/DTD/svg11.dtd">
<!-- Generated by graphviz version 2.43.0 (0)
 -->
<!-- Title: metricLabel Pages: 1 -->
<svg width="510pt" height="92pt"
 viewBox="0.00 0.00 510.00 92.46" xmlns="http://www.w3.org/2000/svg" xmlns:xlink="http://www.w3.org/1999/xlink">
<g id="graph0" class="graph" transform="scale(1 1) rotate(0) translate(4 88.46)">
<title>metricLabel</title>
<!-- Node1 -->
<g id="Node000001" class="node">
<title>Node1</title>
<g id="a_Node000001"><a xlink:title=" ">
<polygon fill="#999999" stroke="#666666" points="502,-62 428,-62 428,-43 502,-43 502,-62"/>
<text text-anchor="middle" x="465" y="-50" font-family="Helvetica,sans-Serif" font-size="10.00">metricLabel</text>
</a>
</g>
</g>
<!-- Node2 -->
<g id="Node000002" class="node">
<title>Node2</title>
<g id="a_Node000002"><a xlink:href="classFrameGraphWidget.html#a142401bc6b3ffc285162a9d4d465f9f5" target="_top" xlink:title=" ">
<polygon fill="white" stroke="#666666" points="177,-67.5 0,-67.5 0,-37.5 177,-37.5 177,-67.5"/>
<text text-anchor="start" x="8" y="-55.5" font-family="Helvetica,sans-Serif" font-size="10.00">FrameGraphWidget::FrameGraph</text>
<text text-anchor="middle" x="88.5" y="-44.5" font-family="Helvetica,sans-Serif" font-size="10.00">Widget</text>
</a>
</g>
</g>
<!-- Node1&#45;&gt;Node2 -->
<g id="edge1_Node000001_Node000002" class="edge">
<title>Node1&#45;&gt;Node2</title>
<g id="a_edge1_Node000001_Node000002"><a xlink:title=" ">
<path fill="none" stroke="#63b8ff" d="M432.07,-65.59C419.77,-69.99 405.44,-74.32 392,-76.5 313.47,-89.24 292.19,-84.12 213,-76.5 193.87,-74.66 173.3,-71.25 154.53,-67.56"/>
<polygon fill="#63b8ff" stroke="#63b8ff" points="433.3,-68.87 441.45,-62.1 430.86,-62.31 433.3,-68.87"/>
</a>
</g>
</g>
<!-- Node3 -->
<g id="Node000003" class="node">
<title>Node3</title>
<g id="a_Node000003"><a xlink:href="classFrameGraphCanvas.html#a2fb3135fccab06c3acdf4e55bf1b8d58" target="_top" xlink:title=" ">
<polygon fill="white" stroke="#666666" points="392,-67.5 213,-67.5 213,-37.5 392,-37.5 392,-67.5"/>
<text text-anchor="start" x="221" y="-55.5" font-family="Helvetica,sans-Serif" font-size="10.00">FrameGraphCanvas::mouseMove</text>
<text text-anchor="middle" x="302.5" y="-44.5" font-family="Helvetica,sans-Serif" font-size="10.00">Event</text>
</a>
</g>
</g>
<!-- Node1&#45;&gt;Node3 -->
<g id="edge2_Node000001_Node000003" class="edge">
<title>Node1&#45;&gt;Node3</title>
<g id="a_edge2_Node000001_Node000003"><a xlink:title=" ">
<path fill="none" stroke="#63b8ff" d="M417.97,-52.5C409.8,-52.5 401.04,-52.5 392.14,-52.5"/>
<polygon fill="#63b8ff" stroke="#63b8ff" points="417.98,-56 427.98,-52.5 417.98,-49 417.98,-56"/>
</a>
</g>
</g>
<!-- Node4 -->
<g id="Node000004" class="node">
<title>Node4</title>
<g id="a_Node000004"><a xlink:href="classFrameGraphWidget.html#abcef1aa6ff7bbf2541a343e0317864de" target="_top" xlink:title=" ">
<polygon fill="white" stroke="#666666" points="384,-19 221,-19 221,0 384,0 384,-19"/>
<text text-anchor="middle" x="302.5" y="-7" font-family="Helvetica,sans-Serif" font-size="10.00">FrameGraphWidget::setMetric</text>
</a>
</g>
</g>
<!-- Node1&#45;&gt;Node4 -->
<g id="edge3_Node000001_Node000004" class="edge">
<title>Node1&#45;&gt;Node4</title>
<g id="a_edge3_Node000001_Node000004"><a xlink:title=" ">
<path fill="none" stroke="#63b8ff" d="M427.91,-39.6C416.5,-35.76 403.8,-31.72 392,-28.5 379.42,-25.06 365.69,-21.86 352.89,-19.1"/>
<polygon fill="#63b8ff" stroke="#63b8ff" points="426.95,-42.97 437.54,-42.9 429.22,-36.35 426.95,-42.97"/>
</a>
</g>
</g>
<!-- Node4&#45;&gt;Node2 -->
<g id="edge4_Node000004_Node000002" class="edge">
<title>Node4&#45;&gt;Node2</title>
<g id="a_edge4_Node000004_Node000002"><a xlink:title=" ">
<path fill="none" stroke="#63b8ff" d="M244.44,-21.07C219.55,-26.12 190.04,-32.11 163.48,-37.49"/>
<polygon fill="#63b8ff" stroke="#63b8ff" points="245.35,-24.46 254.45,-19.04 243.95,-17.6 245.35,-24.46"/>
</a>
</g>
</g>
</g>
</svg>
