<?xml version="1.0" encoding="UTF-8" standalone="no"?>
<!DOCTYPE svg PUBLIC "-//W3C//DTD SVG 1.1//EN"
 "http://www.w3.org/Graphics/SVG/1.1/DTD/svg11.dtd">
<!-- Generated by graphviz version 2.43.0 (0)
 -->
<!-- Title: Physics::Thermal::specificEntropyChange Pages: 1 -->
<svg width="1002pt" height="205pt"
 viewBox="0.00 0.00 1002.00 204.50" xmlns="http://www.w3.org/2000/svg" xmlns:xlink="http://www.w3.org/1999/xlink">
<g id="graph0" class="graph" transform="scale(1 1) rotate(0) translate(4 200.5)">
<title>Physics::Thermal::specificEntropyChange</title>
<!-- Node1 -->
<g id="Node000001" class="node">
<title>Node1</title>
<g id="a_Node000001"><a xlink:title=" ">
<polygon fill="#999999" stroke="#666666" points="994,-88.5 851,-88.5 851,-58.5 994,-58.5 994,-88.5"/>
<text text-anchor="start" x="859" y="-76.5" font-family="Helvetica,sans-Serif" font-size="10.00">Physics::Thermal::specific</text>
<text text-anchor="middle" x="922.5" y="-65.5" font-family="Helvetica,sans-Serif" font-size="10.00">EntropyChange</text>
</a>
</g>
</g>
<!-- Node2 -->
<g id="Node000002" class="node">
<title>Node2</title>
<g id="a_Node000002"><a xlink:href="namespacePhysics_1_1Thermal.html#a9206d38ee4d0cbd18666c936706e8611" target="_top" xlink:title=" ">
<polygon fill="white" stroke="#666666" points="815,-88.5 642,-88.5 642,-58.5 815,-58.5 815,-88.5"/>
<text text-anchor="start" x="650" y="-76.5" font-family="Helvetica,sans-Serif" font-size="10.00">Physics::Thermal::applyThermal</text>
<text text-anchor="middle" x="728.5" y="-65.5" font-family="Helvetica,sans-Serif" font-size="10.00">Energy</text>
</a>
</g>
</g>
<!-- Node1&#45;&gt;Node2 -->
<g id="edge1_Node000001_Node000002" class="edge">
<title>Node1&#45;&gt;Node2</title>
<g id="a_edge1_Node000001_Node000002"><a xlink:title=" ">
<path fill="none" stroke="#63b8ff" d="M840.6,-73.5C832.14,-73.5 823.52,-73.5 815.01,-73.5"/>
<polygon fill="#63b8ff" stroke="#63b8ff" points="840.82,-77 850.82,-73.5 840.82,-70 840.82,-77"/>
</a>
</g>
</g>
<!-- Node3 -->
<g id="Node000003" class="node">
<title>Node3</title>
<g id="a_Node000003"><a xlink:href="namespacePhysics_1_1Thermal.html#a4bee0e40f8969cbb2cf1ec826d54834a" target="_top" xlink:title=" ">
<polygon fill="white" stroke="#666666" points="606,-153.5 418,-153.5 418,-123.5 606,-123.5 606,-153.5"/>
<text text-anchor="start" x="426" y="-141.5" font-family="Helvetica,sans-Serif" font-size="10.00">Physics::Thermal::applyConductive</text>
<text text-anchor="middle" x="512" y="-130.5" font-family="Helvetica,sans-Serif" font-size="10.00">Exchange</text>
</a>
</g>
</g>
<!-- Node2&#45;&gt;Node3 -->
<g id="edge2_Node000002_Node000003" class="edge">
<title>Node2&#45;&gt;Node3</title>
<g id="a_edge2_Node000002_Node000003"><a xlink:title=" ">
<path fill="none" stroke="#63b8ff" d="M667.76,-91.6C634.73,-101.61 594.16,-113.91 562.85,-123.39"/>
<polygon fill="#63b8ff" stroke="#63b8ff" points="669.2,-94.83 677.75,-88.58 667.16,-88.13 669.2,-94.83"/>
</a>
</g>
</g>
<!-- Node5 -->
<g id="Node000005" class="node">
<title>Node5</title>
<g id="a_Node000005"><a xlink:href="classPhysics_1_1RigidBody.html#a4e7d7e2da6c0011c98745c15903a2b15" target="_top" xlink:title=" ">
<polygon fill="white" stroke="#666666" points="382,-110.5 209,-110.5 209,-80.5 382,-80.5 382,-110.5"/>
<text text-anchor="start" x="217" y="-98.5" font-family="Helvetica,sans-Serif" font-size="10.00">Physics::RigidBody</text>
<text text-anchor="middle" x="295.5" y="-87.5" font-family="Helvetica,sans-Serif" font-size="10.00">::resolveCollisionWithPointMass</text>
</a>
</g>
</g>
<!-- Node2&#45;&gt;Node5 -->
<g id="edge9_Node000002_Node000005" class="edge">
<title>Node2&#45;&gt;Node5</title>
<g id="a_edge9_Node000002_Node000005"><a xlink:title=" ">
<path fill="none" stroke="#63b8ff" d="M631.48,-78.4C556.73,-82.22 453.94,-87.46 382,-91.14"/>
<polygon fill="#63b8ff" stroke="#63b8ff" points="632.02,-81.88 641.83,-77.87 631.67,-74.89 632.02,-81.88"/>
</a>
</g>
</g>
<!-- Node9 -->
<g id="Node000009" class="node">
<title>Node9</title>
<g id="a_Node000009"><a xlink:href="namespacePhysics_1_1Thermal.html#a7d354d9cd4784f896b446fcaa286439c" target="_top" xlink:title=" ">
<polygon fill="white" stroke="#666666" points="587,-67.5 437,-67.5 437,-37.5 587,-37.5 587,-67.5"/>
<text text-anchor="start" x="445" y="-55.5" font-family="Helvetica,sans-Serif" font-size="10.00">Physics::Thermal::integrate</text>
<text text-anchor="middle" x="512" y="-44.5" font-family="Helvetica,sans-Serif" font-size="10.00">Temperature</text>
</a>
</g>
</g>
<!-- Node2&#45;&gt;Node9 -->
<g id="edge8_Node000002_Node000009" class="edge">
<title>Node2&#45;&gt;Node9</title>
<g id="a_edge8_Node000002_Node000009"><a xlink:title=" ">
<path fill="none" stroke="#63b8ff" d="M631.55,-64.11C616.66,-62.65 601.47,-61.16 587.15,-59.76"/>
<polygon fill="#63b8ff" stroke="#63b8ff" points="631.51,-67.62 641.8,-65.11 632.19,-60.65 631.51,-67.62"/>
</a>
</g>
</g>
<!-- Node10 -->
<g id="Node000010" class="node">
<title>Node10</title>
<g id="a_Node000010"><a xlink:href="PhysicsTests_8cpp.html#aa0407d0a28cee579779bf66d159a989d" target="_top" xlink:title=" ">
<polygon fill="white" stroke="#666666" points="532.5,-19 491.5,-19 491.5,0 532.5,0 532.5,-19"/>
<text text-anchor="middle" x="512" y="-7" font-family="Helvetica,sans-Serif" font-size="10.00">TEST</text>
</a>
</g>
</g>
<!-- Node2&#45;&gt;Node10 -->
<g id="edge10_Node000002_Node000010" class="edge">
<title>Node2&#45;&gt;Node10</title>
<g id="a_edge10_Node000002_Node000010"><a xlink:title=" ">
<path fill="none" stroke="#63b8ff" d="M681.97,-54.75C659.39,-45.94 631.55,-35.79 606,-28.5 581.12,-21.4 551.78,-15.86 532.81,-12.64"/>
<polygon fill="#63b8ff" stroke="#63b8ff" points="680.71,-58.02 691.3,-58.43 683.28,-51.51 680.71,-58.02"/>
</a>
</g>
</g>
<!-- Node4 -->
<g id="Node000004" class="node">
<title>Node4</title>
<g id="a_Node000004"><a xlink:href="classPhysics_1_1PointMass.html#aa94536ea681b33ed376700aae820cef0" target="_top" xlink:title=" ">
<polygon fill="white" stroke="#666666" points="382,-196.5 209,-196.5 209,-166.5 382,-166.5 382,-196.5"/>
<text text-anchor="start" x="217" y="-184.5" font-family="Helvetica,sans-Serif" font-size="10.00">Physics::PointMass</text>
<text text-anchor="middle" x="295.5" y="-173.5" font-family="Helvetica,sans-Serif" font-size="10.00">::resolveCollisionWithPointMass</text>
</a>
</g>
</g>
<!-- Node3&#45;&gt;Node4 -->
<g id="edge3_Node000003_Node000004" class="edge">
<title>Node3&#45;&gt;Node4</title>
<g id="a_edge3_Node000003_Node000004"><a xlink:title=" ">
<path fill="none" stroke="#63b8ff" d="M426.06,-155.53C408.03,-159.14 389.11,-162.93 371.48,-166.47"/>
<polygon fill="#63b8ff" stroke="#63b8ff" points="426.86,-158.94 435.98,-153.54 425.49,-152.07 426.86,-158.94"/>
</a>
</g>
</g>
<!-- Node3&#45;&gt;Node5 -->
<g id="edge4_Node000003_Node000005" class="edge">
<title>Node3&#45;&gt;Node5</title>
<g id="a_edge4_Node000003_Node000005"><a xlink:title=" ">
<path fill="none" stroke="#63b8ff" d="M426.06,-121.47C408.03,-117.86 389.11,-114.07 371.48,-110.53"/>
<polygon fill="#63b8ff" stroke="#63b8ff" points="425.49,-124.93 435.98,-123.46 426.86,-118.06 425.49,-124.93"/>
</a>
</g>
</g>
<!-- Node8 -->
<g id="Node000008" class="node">
<title>Node8</title>
<g id="a_Node000008"><a xlink:href="PhysicsTests_8cpp.html#a985ead36d6f21bfe093a62aeda3103e2" target="_top" xlink:title=" ">
<polygon fill="white" stroke="#666666" points="316,-148 275,-148 275,-129 316,-129 316,-148"/>
<text text-anchor="middle" x="295.5" y="-136" font-family="Helvetica,sans-Serif" font-size="10.00">TEST</text>
</a>
</g>
</g>
<!-- Node3&#45;&gt;Node8 -->
<g id="edge7_Node000003_Node000008" class="edge">
<title>Node3&#45;&gt;Node8</title>
<g id="a_edge7_Node000003_Node000008"><a xlink:title=" ">
<path fill="none" stroke="#63b8ff" d="M407.57,-138.5C372.74,-138.5 337.38,-138.5 316.19,-138.5"/>
<polygon fill="#63b8ff" stroke="#63b8ff" points="407.85,-142 417.85,-138.5 407.85,-135 407.85,-142"/>
</a>
</g>
</g>
<!-- Node6 -->
<g id="Node000006" class="node">
<title>Node6</title>
<g id="a_Node000006"><a xlink:href="classPhysics_1_1PointMass.html#a6876155fbb7a943c6d2e06f4c6707959" target="_top" xlink:title=" ">
<polygon fill="white" stroke="#666666" points="173,-132.5 0,-132.5 0,-102.5 173,-102.5 173,-132.5"/>
<text text-anchor="start" x="8" y="-120.5" font-family="Helvetica,sans-Serif" font-size="10.00">Physics::PointMass</text>
<text text-anchor="middle" x="86.5" y="-109.5" font-family="Helvetica,sans-Serif" font-size="10.00">::resolveCollisionWithRigidBody</text>
</a>
</g>
</g>
<!-- Node5&#45;&gt;Node6 -->
<g id="edge5_Node000005_Node000006" class="edge">
<title>Node5&#45;&gt;Node6</title>
<g id="a_edge5_Node000005_Node000006"><a xlink:title=" ">
<path fill="none" stroke="#63b8ff" d="M198.8,-105.67C190.24,-106.58 181.6,-107.5 173.12,-108.4"/>
<polygon fill="#63b8ff" stroke="#63b8ff" points="199.24,-109.14 208.81,-104.61 198.5,-102.18 199.24,-109.14"/>
</a>
</g>
</g>
<!-- Node7 -->
<g id="Node000007" class="node">
<title>Node7</title>
<g id="a_Node000007"><a xlink:href="PhysicsTests_8cpp.html#aae14e19948f282c097b0e8761991c0e1" target="_top" xlink:title=" ">
<polygon fill="white" stroke="#666666" points="107,-84 66,-84 66,-65 107,-65 107,-84"/>
<text text-anchor="middle" x="86.5" y="-72" font-family="Helvetica,sans-Serif" font-size="10.00">TEST</text>
</a>
</g>
</g>
<!-- Node5&#45;&gt;Node7 -->
<g id="edge6_Node000005_Node000007" class="edge">
<title>Node5&#45;&gt;Node7</title>
<g id="a_edge6_Node000005_Node000007"><a xlink:title=" ">
<path fill="none" stroke="#63b8ff" d="M198.68,-85.78C164.29,-82.29 128.76,-78.69 107.4,-76.52"/>
<polygon fill="#63b8ff" stroke="#63b8ff" points="198.51,-89.28 208.81,-86.81 199.22,-82.32 198.51,-89.28"/>
</a>
</g>
</g>
</g>
</svg>
