<?xml version="1.0" encoding="UTF-8" standalone="no"?>
<!DOCTYPE svg PUBLIC "-//W3C//DTD SVG 1.1//EN"
 "http://www.w3.org/Graphics/SVG/1.1/DTD/svg11.dtd">
<!-- Generated by graphviz version 2.43.0 (0)
 -->
<!-- Title: Physics::Thermal::integrateTemperature Pages: 1 -->
<!--zoomable 190 -->

<svg id="main" version="1.1" xmlns="http://www.w3.org/2000/svg" xmlns:xlink="http://www.w3.org/1999/xlink" xml:space="preserve" onload="init(evt)">
<style type="text/css"><![CDATA[
.node, .edge {opacity: 0.7;}
.node.selected, .edge.selected {opacity: 1;}
.edge:hover path { stroke: red; }
.edge:hover polygon { stroke: red; fill: red; }
]]></style>

<defs>
  <circle id="rim" cx="0" cy="0" r="7"/>
  <circle id="rim2" cx="0" cy="0" r="3.5"/>
  <g id="zoomPlus">
    <use xlink:href="#rim" fill="#404040"><set attributeName="fill" to="#808080" begin="zoomplus.mouseover" end="zoomplus.mouseout"/></use>
    <path d="M-4,0h8M0,-4v8" fill="none" stroke="white" stroke-width="1.5" pointer-events="none"/>
  </g>
  <g id="zoomMin">
    <use xlink:href="#rim" fill="#404040"><set attributeName="fill" to="#808080" begin="zoomminus.mouseover" end="zoomminus.mouseout"/></use>
    <path d="M-4,0h8" fill="none" stroke="white" stroke-width="1.5" pointer-events="none"/>
  </g>
  <g id="arrowUp" transform="translate(30 24)">
    <use xlink:href="#rim"/>
    <path pointer-events="none" fill="none" stroke="white" stroke-width="1.5" d="M0,-3.0v7 M-2.5,-0.5L0,-3.0L2.5,-0.5"/>
  </g>
  <g id="arrowRight" transform="rotate(90) translate(36 -43)">
    <use xlink:href="#rim"/>
    <path pointer-events="none" fill="none" stroke="white" stroke-width="1.5" d="M0,-3.0v7 M-2.5,-0.5L0,-3.0L2.5,-0.5"/>
  </g>
  <g id="arrowDown" transform="rotate(180) translate(-30 -48)">
    <use xlink:href="#rim"/>
    <path pointer-events="none" fill="none" stroke="white" stroke-width="1.5" d="M0,-3.0v7 M-2.5,-0.5L0,-3.0L2.5,-0.5"/>
  </g>
  <g id="arrowLeft" transform="rotate(270) translate(-36 17)">
    <use xlink:href="#rim"/>
    <path pointer-events="none" fill="none" stroke="white" stroke-width="1.5" d="M0,-3.0v7 M-2.5,-0.5L0,-3.0L2.5,-0.5"/>
  </g>
  <g id="resetDef">
    <use xlink:href="#rim2" fill="#404040"><set attributeName="fill" to="#808080" begin="reset.mouseover" end="reset.mouseout"/></use>
  </g>
</defs>
<script type="application/ecmascript">
var viewWidth = 976;
var viewHeight = 190;
var sectionId = 'dynsection-26';
</script>
<script type="application/ecmascript" xlink:href="svg.min.js"/>
<svg id="graph" class="graph">
<g id="viewport">
<title>Physics::Thermal::integrateTemperature</title>
<!-- Node1 -->
<g id="Node000001" class="node">
<title>Node1</title>
<g id="a_Node000001"><a xlink:title=" ">
<polygon fill="#999999" stroke="#666666" points="150,-148 0,-148 0,-118 150,-118 150,-148"/>
<text text-anchor="start" x="8" y="-136" font-family="Helvetica,sans-Serif" font-size="10.00">Physics::Thermal::integrate</text>
<text text-anchor="middle" x="75" y="-125" font-family="Helvetica,sans-Serif" font-size="10.00">Temperature</text>
</a>
</g>
</g>
<!-- Node2 -->
<g id="Node000002" class="node">
<title>Node2</title>
<g id="a_Node000002"><a xlink:href="namespacePhysics_1_1Thermal.html#a9206d38ee4d0cbd18666c936706e8611" target="_top" xlink:title=" ">
<polygon fill="white" stroke="#666666" points="359,-127 186,-127 186,-97 359,-97 359,-127"/>
<text text-anchor="start" x="194" y="-115" font-family="Helvetica,sans-Serif" font-size="10.00">Physics::Thermal::applyThermal</text>
<text text-anchor="middle" x="272.5" y="-104" font-family="Helvetica,sans-Serif" font-size="10.00">Energy</text>
</a>
</g>
</g>
<!-- Node1&#45;&gt;Node2 -->
<g id="edge1_Node000001_Node000002" class="edge">
<title>Node1&#45;&gt;Node2</title>
<g id="a_edge1_Node000001_Node000002"><a xlink:title=" ">
<path fill="none" stroke="#63b8ff" d="M150.19,-125.03C158.57,-124.13 167.2,-123.2 175.81,-122.28"/>
<polygon fill="#63b8ff" stroke="#63b8ff" points="176.33,-125.74 185.9,-121.2 175.58,-118.78 176.33,-125.74"/>
</a>
</g>
</g>
<!-- Node7 -->
<g id="Node000007" class="node">
<title>Node7</title>
<g id="a_Node000007"><a xlink:href="namespacePhysics_1_1Thermal.html#a7eaf74772f10f3ceb9740038659283ab" target="_top" xlink:title=" ">
<polygon fill="white" stroke="#666666" points="565,-181.5 395,-181.5 395,-162.5 565,-162.5 565,-181.5"/>
<text text-anchor="middle" x="480" y="-169.5" font-family="Helvetica,sans-Serif" font-size="10.00">Physics::Thermal::heatCapacity</text>
</a>
</g>
</g>
<!-- Node1&#45;&gt;Node7 -->
<g id="edge11_Node000001_Node000007" class="edge">
<title>Node1&#45;&gt;Node7</title>
<g id="a_edge11_Node000001_Node000007"><a xlink:title=" ">
<path fill="none" stroke="#63b8ff" d="M150.39,-140.2C216.39,-146.59 313.16,-155.95 384.6,-162.86"/>
<polygon fill="#63b8ff" stroke="#63b8ff" points="384.66,-166.39 394.95,-163.87 385.33,-159.42 384.66,-166.39"/>
</a>
</g>
</g>
<!-- Node3 -->
<g id="Node000003" class="node">
<title>Node3</title>
<g id="a_Node000003"><a xlink:href="namespacePhysics_1_1Thermal.html#a8c4fd2a57a4a0cf669179578fba97ae4" target="_top" xlink:title=" ">
<polygon fill="white" stroke="#666666" points="767.5,-180 631.5,-180 631.5,-150 767.5,-150 767.5,-180"/>
<text text-anchor="start" x="639.5" y="-168" font-family="Helvetica,sans-Serif" font-size="10.00">Physics::Thermal::active</text>
<text text-anchor="middle" x="699.5" y="-157" font-family="Helvetica,sans-Serif" font-size="10.00">ThermalMass</text>
</a>
</g>
</g>
<!-- Node2&#45;&gt;Node3 -->
<g id="edge2_Node000002_Node000003" class="edge">
<title>Node2&#45;&gt;Node3</title>
<g id="a_edge2_Node000002_Node000003"><a xlink:title=" ">
<path fill="none" stroke="#63b8ff" d="M359.25,-122.69C435.9,-132.25 547.23,-146.14 621.19,-155.36"/>
<polygon fill="#63b8ff" stroke="#63b8ff" points="621.02,-158.86 631.38,-156.63 621.89,-151.92 621.02,-158.86"/>
</a>
</g>
</g>
<!-- Node4 -->
<g id="Node000004" class="node">
<title>Node4</title>
<g id="a_Node000004"><a xlink:href="namespacePhysics_1_1Thermal.html#acb06d086dbc037d7c8cd9303133a4d1b" target="_top" xlink:title=" ">
<polygon fill="white" stroke="#666666" points="798,-50.5 601,-50.5 601,-31.5 798,-31.5 798,-50.5"/>
<text text-anchor="middle" x="699.5" y="-38.5" font-family="Helvetica,sans-Serif" font-size="10.00">Physics::Thermal::clampTemperature</text>
</a>
</g>
</g>
<!-- Node2&#45;&gt;Node4 -->
<g id="edge3_Node000002_Node000004" class="edge">
<title>Node2&#45;&gt;Node4</title>
<g id="a_edge3_Node000002_Node000004"><a xlink:title=" ">
<path fill="none" stroke="#63b8ff" d="M359.25,-97.67C439.49,-84.27 557.74,-64.52 631.33,-52.22"/>
<polygon fill="#63b8ff" stroke="#63b8ff" points="632.12,-55.64 641.41,-50.54 630.97,-48.73 632.12,-55.64"/>
</a>
</g>
</g>
<!-- Node5 -->
<g id="Node000005" class="node">
<title>Node5</title>
<g id="a_Node000005"><a xlink:href="namespacePhysics_1_1Thermal.html#a8cd40c02db6cde184d3bc886e57bab2b" target="_top" xlink:title=" ">
<polygon fill="white" stroke="#666666" points="774,-118 625,-118 625,-88 774,-88 774,-118"/>
<text text-anchor="start" x="633" y="-106" font-family="Helvetica,sans-Serif" font-size="10.00">Physics::Thermal::effective</text>
<text text-anchor="middle" x="699.5" y="-95" font-family="Helvetica,sans-Serif" font-size="10.00">SpecificHeat</text>
</a>
</g>
</g>
<!-- Node2&#45;&gt;Node5 -->
<g id="edge4_Node000002_Node000005" class="edge">
<title>Node2&#45;&gt;Node5</title>
<g id="a_edge4_Node000002_Node000005"><a xlink:title=" ">
<path fill="none" stroke="#63b8ff" d="M359.25,-110.18C433.7,-108.61 540.87,-106.34 614.74,-104.77"/>
<polygon fill="#63b8ff" stroke="#63b8ff" points="615.01,-108.27 624.93,-104.56 614.86,-101.27 615.01,-108.27"/>
</a>
</g>
</g>
<!-- Node2&#45;&gt;Node7 -->
<g id="edge6_Node000002_Node000007" class="edge">
<title>Node2&#45;&gt;Node7</title>
<g id="a_edge6_Node000002_Node000007"><a xlink:title=" ">
<path fill="none" stroke="#63b8ff" d="M324.01,-127.09C345.83,-133.57 371.66,-141.21 395,-148 408.23,-151.85 422.65,-155.99 435.74,-159.73"/>
<polygon fill="#63b8ff" stroke="#63b8ff" points="434.88,-163.12 445.46,-162.5 436.8,-156.39 434.88,-163.12"/>
</a>
</g>
</g>
<!-- Node8 -->
<g id="Node000008" class="node">
<title>Node8</title>
<g id="a_Node000008"><a xlink:href="namespacePhysics_1_1Thermal.html#a06108fe540610d537e7250d1e0472d63" target="_top" xlink:title=" ">
<polygon fill="white" stroke="#666666" points="551.5,-30 408.5,-30 408.5,0 551.5,0 551.5,-30"/>
<text text-anchor="start" x="416.5" y="-18" font-family="Helvetica,sans-Serif" font-size="10.00">Physics::Thermal::specific</text>
<text text-anchor="middle" x="480" y="-7" font-family="Helvetica,sans-Serif" font-size="10.00">EntropyChange</text>
</a>
</g>
</g>
<!-- Node2&#45;&gt;Node8 -->
<g id="edge9_Node000002_Node000008" class="edge">
<title>Node2&#45;&gt;Node8</title>
<g id="a_edge9_Node000002_Node000008"><a xlink:title=" ">
<path fill="none" stroke="#63b8ff" d="M297.51,-96.88C321.55,-82.14 359.93,-59.72 395,-44 403.27,-40.29 412.17,-36.76 420.97,-33.52"/>
<polygon fill="#63b8ff" stroke="#63b8ff" points="422.22,-36.79 430.45,-30.12 419.86,-30.2 422.22,-36.79"/>
</a>
</g>
</g>
<!-- Node6 -->
<g id="Node000006" class="node">
<title>Node6</title>
<g id="a_Node000006"><a xlink:href="namespacePhysics_1_1Thermal.html#aeaaf21f50b58c0fec885f95c14537076" target="_top" xlink:title=" ">
<polygon fill="white" stroke="#666666" points="968,-118 834,-118 834,-88 968,-88 968,-118"/>
<text text-anchor="start" x="842" y="-106" font-family="Helvetica,sans-Serif" font-size="10.00">Physics::Thermal::linear</text>
<text text-anchor="middle" x="901" y="-95" font-family="Helvetica,sans-Serif" font-size="10.00">TemperatureFactor</text>
</a>
</g>
</g>
<!-- Node5&#45;&gt;Node6 -->
<g id="edge5_Node000005_Node000006" class="edge">
<title>Node5&#45;&gt;Node6</title>
<g id="a_edge5_Node000005_Node000006"><a xlink:title=" ">
<path fill="none" stroke="#63b8ff" d="M774.22,-103C790.4,-103 807.56,-103 823.83,-103"/>
<polygon fill="#63b8ff" stroke="#63b8ff" points="823.83,-106.5 833.83,-103 823.83,-99.5 823.83,-106.5"/>
</a>
</g>
</g>
<!-- Node7&#45;&gt;Node3 -->
<g id="edge7_Node000007_Node000003" class="edge">
<title>Node7&#45;&gt;Node3</title>
<g id="a_edge7_Node000007_Node000003"><a xlink:title=" ">
<path fill="none" stroke="#63b8ff" d="M565.09,-169.29C583.65,-168.7 603.22,-168.07 621.48,-167.48"/>
<polygon fill="#63b8ff" stroke="#63b8ff" points="621.6,-170.98 631.48,-167.16 621.37,-163.98 621.6,-170.98"/>
</a>
</g>
</g>
<!-- Node7&#45;&gt;Node5 -->
<g id="edge8_Node000007_Node000005" class="edge">
<title>Node7&#45;&gt;Node5</title>
<g id="a_edge8_Node000007_Node000005"><a xlink:title=" ">
<path fill="none" stroke="#63b8ff" d="M511.24,-162.41C544.74,-151.78 599.52,-134.4 641.2,-121.18"/>
<polygon fill="#63b8ff" stroke="#63b8ff" points="642.48,-124.44 650.95,-118.08 640.36,-117.77 642.48,-124.44"/>
</a>
</g>
</g>
<!-- Node8&#45;&gt;Node4 -->
<g id="edge10_Node000008_Node000004" class="edge">
<title>Node8&#45;&gt;Node4</title>
<g id="a_edge10_Node000008_Node000004"><a xlink:title=" ">
<path fill="none" stroke="#63b8ff" d="M551.62,-23.44C569.81,-25.62 589.63,-27.99 608.65,-30.26"/>
<polygon fill="#63b8ff" stroke="#63b8ff" points="608.47,-33.76 618.81,-31.47 609.3,-26.81 608.47,-33.76"/>
</a>
</g>
</g>
</g>
</svg>

<g id="navigator" transform="translate(0 0)" fill="#404254">
  <rect fill="#f2f5e9" fill-opacity="0.5" stroke="#606060" stroke-width=".5" x="0" y="0" width="60" height="60"/>
  <use id="zoomplus" xlink:href="#zoomPlus" x="17" y="9" onmousedown="handleZoom(evt,'in')"/>
  <use id="zoomminus" xlink:href="#zoomMin" x="42" y="9" onmousedown="handleZoom(evt,'out')"/>
  <use id="reset" xlink:href="#resetDef" x="30" y="36" onmousedown="handleReset()"/>
   <use id="arrowup" xlink:href="#arrowUp" x="0" y="0" onmousedown="handlePan(0,-1)"/>
  <use id="arrowright" xlink:href="#arrowRight" x="0" y="0" onmousedown="handlePan(1,0)"/>
  <use id="arrowdown" xlink:href="#arrowDown" x="0" y="0" onmousedown="handlePan(0,1)"/>
  <use id="arrowleft" xlink:href="#arrowLeft" x="0" y="0" onmousedown="handlePan(-1,0)"/>
</g>
<svg viewBox="0 0 15 15" width="100%" height="30px" preserveAspectRatio="xMaxYMin meet">
 <g id="arrow_out" transform="scale(0.3 0.3)">
  <a xlink:href="namespacePhysics_1_1Thermal_a7d354d9cd4784f896b446fcaa286439c_cgraph_org.svg" target="_base">
   <rect id="button" ry="5" rx="5" y="6" x="6" height="38" width="38"
        fill="#f2f5e9" fill-opacity="0.5" stroke="#606060" stroke-width="1.0"/>
   <path id="arrow"
     d="M 11.500037,31.436501 C 11.940474,20.09759 22.043105,11.32322 32.158766,21.979434 L 37.068811,17.246167 C 37.068811,17.246167 37.088388,32 37.088388,32 L 22.160133,31.978069 C 22.160133,31.978069 26.997745,27.140456 26.997745,27.140456 C 18.528582,18.264221 13.291696,25.230495 11.500037,31.436501 z"
     style="fill:#404040;"/>
  </a>
 </g>
</svg>

<style type='text/css'>
<![CDATA[
[data-mouse-over-selected='false'] { opacity: 0.7; }
[data-mouse-over-selected='true']  { opacity: 1.0; }
]]>
</style>
<script type="application/ecmascript"><![CDATA[
document.addEventListener('DOMContentLoaded', (event) => {
  highlightEdges();
  highlightAdjacentNodes();
});
]]></script>
</svg>
