<?xml version="1.0" encoding="UTF-8" standalone="no"?>
<!DOCTYPE svg PUBLIC "-//W3C//DTD SVG 1.1//EN"
 "http://www.w3.org/Graphics/SVG/1.1/DTD/svg11.dtd">
<!-- Generated by graphviz version 2.43.0 (0)
 -->
<!-- Title: Physics::Thermal::effectiveDensity Pages: 1 -->
<svg width="511pt" height="76pt"
 viewBox="0.00 0.00 511.00 75.50" xmlns="http://www.w3.org/2000/svg" xmlns:xlink="http://www.w3.org/1999/xlink">
<g id="graph0" class="graph" transform="scale(1 1) rotate(0) translate(4 71.5)">
<title>Physics::Thermal::effectiveDensity</title>
<!-- Node1 -->
<g id="Node000001" class="node">
<title>Node1</title>
<g id="a_Node000001"><a xlink:title=" ">
<polygon fill="#999999" stroke="#666666" points="503,-51 354,-51 354,-21 503,-21 503,-51"/>
<text text-anchor="start" x="362" y="-39" font-family="Helvetica,sans-Serif" font-size="10.00">Physics::Thermal::effective</text>
<text text-anchor="middle" x="428.5" y="-28" font-family="Helvetica,sans-Serif" font-size="10.00">Density</text>
</a>
</g>
</g>
<!-- Node2 -->
<g id="Node000002" class="node">
<title>Node2</title>
<g id="a_Node000002"><a xlink:href="PhysicsTests_8cpp.html#a75ba5c62335618d6d517701284101e65" target="_top" xlink:title=" ">
<polygon fill="white" stroke="#666666" points="266.5,-67.5 225.5,-67.5 225.5,-48.5 266.5,-48.5 266.5,-67.5"/>
<text text-anchor="middle" x="246" y="-55.5" font-family="Helvetica,sans-Serif" font-size="10.00">TEST</text>
</a>
</g>
</g>
<!-- Node1&#45;&gt;Node2 -->
<g id="edge1_Node000001_Node000002" class="edge">
<title>Node1&#45;&gt;Node2</title>
<g id="a_edge1_Node000001_Node000002"><a xlink:title=" ">
<path fill="none" stroke="#63b8ff" d="M343.76,-46.21C315.13,-49.7 285.64,-53.29 266.86,-55.58"/>
<polygon fill="#63b8ff" stroke="#63b8ff" points="344.32,-49.66 353.82,-44.98 343.47,-42.72 344.32,-49.66"/>
</a>
</g>
</g>
<!-- Node3 -->
<g id="Node000003" class="node">
<title>Node3</title>
<g id="a_Node000003"><a xlink:href="namespacePhysics_1_1Thermal.html#aac2d5ed620ed27f75d4cb49a54a06638" target="_top" xlink:title=" ">
<polygon fill="white" stroke="#666666" points="318,-30 174,-30 174,0 318,0 318,-30"/>
<text text-anchor="start" x="182" y="-18" font-family="Helvetica,sans-Serif" font-size="10.00">Physics::Thermal::thermal</text>
<text text-anchor="middle" x="246" y="-7" font-family="Helvetica,sans-Serif" font-size="10.00">Diffusivity</text>
</a>
</g>
</g>
<!-- Node1&#45;&gt;Node3 -->
<g id="edge2_Node000001_Node000003" class="edge">
<title>Node1&#45;&gt;Node3</title>
<g id="a_edge2_Node000001_Node000003"><a xlink:title=" ">
<path fill="none" stroke="#63b8ff" d="M343.8,-26.26C335.21,-25.26 326.54,-24.25 318.11,-23.27"/>
<polygon fill="#63b8ff" stroke="#63b8ff" points="343.49,-29.75 353.82,-27.43 344.29,-22.8 343.49,-29.75"/>
</a>
</g>
</g>
<!-- Node4 -->
<g id="Node000004" class="node">
<title>Node4</title>
<g id="a_Node000004"><a xlink:href="namespacePhysics_1_1Thermal.html#aefde8d660f11439cc1e9487e93cf4b36" target="_top" xlink:title=" ">
<polygon fill="white" stroke="#666666" points="138,-30 0,-30 0,0 138,0 138,-30"/>
<text text-anchor="start" x="8" y="-18" font-family="Helvetica,sans-Serif" font-size="10.00">Physics::Thermal::fourier</text>
<text text-anchor="middle" x="69" y="-7" font-family="Helvetica,sans-Serif" font-size="10.00">Number</text>
</a>
</g>
</g>
<!-- Node3&#45;&gt;Node4 -->
<g id="edge3_Node000003_Node000004" class="edge">
<title>Node3&#45;&gt;Node4</title>
<g id="a_edge3_Node000003_Node000004"><a xlink:title=" ">
<path fill="none" stroke="#63b8ff" d="M163.76,-15C155.15,-15 146.45,-15 138,-15"/>
<polygon fill="#63b8ff" stroke="#63b8ff" points="163.82,-18.5 173.82,-15 163.82,-11.5 163.82,-18.5"/>
</a>
</g>
</g>
</g>
</svg>
