<?xml version="1.0" encoding="UTF-8" standalone="no"?>
<!DOCTYPE svg PUBLIC "-//W3C//DTD SVG 1.1//EN"
 "http://www.w3.org/Graphics/SVG/1.1/DTD/svg11.dtd">
<!-- Generated by graphviz version 2.43.0 (0)
 -->
<!-- Title: Physics::Thermal::linearTemperatureFactor Pages: 1 -->
<svg width="1384pt" height="319pt"
 viewBox="0.00 0.00 1384.00 318.50" xmlns="http://www.w3.org/2000/svg" xmlns:xlink="http://www.w3.org/1999/xlink">
<g id="graph0" class="graph" transform="scale(1 1) rotate(0) translate(4 314.5)">
<title>Physics::Thermal::linearTemperatureFactor</title>
<!-- Node1 -->
<g id="Node000001" class="node">
<title>Node1</title>
<g id="a_Node000001"><a xlink:title=" ">
<polygon fill="#999999" stroke="#666666" points="1376,-224.5 1242,-224.5 1242,-194.5 1376,-194.5 1376,-224.5"/>
<text text-anchor="start" x="1250" y="-212.5" font-family="Helvetica,sans-Serif" font-size="10.00">Physics::Thermal::linear</text>
<text text-anchor="middle" x="1309" y="-201.5" font-family="Helvetica,sans-Serif" font-size="10.00">TemperatureFactor</text>
</a>
</g>
</g>
<!-- Node2 -->
<g id="Node000002" class="node">
<title>Node2</title>
<g id="a_Node000002"><a xlink:href="namespacePhysics_1_1Thermal.html#a1fa45652b19e44878f8a1984a7618ec2" target="_top" xlink:title=" ">
<polygon fill="white" stroke="#666666" points="1206,-310.5 1057,-310.5 1057,-280.5 1206,-280.5 1206,-310.5"/>
<text text-anchor="start" x="1065" y="-298.5" font-family="Helvetica,sans-Serif" font-size="10.00">Physics::Thermal::effective</text>
<text text-anchor="middle" x="1131.5" y="-287.5" font-family="Helvetica,sans-Serif" font-size="10.00">Absorptivity</text>
</a>
</g>
</g>
<!-- Node1&#45;&gt;Node2 -->
<g id="edge1_Node000001_Node000002" class="edge">
<title>Node1&#45;&gt;Node2</title>
<g id="a_edge1_Node000001_Node000002"><a xlink:title=" ">
<path fill="none" stroke="#63b8ff" d="M1277.96,-230.3C1258.16,-243.36 1231.31,-259.87 1206,-271.5 1198.93,-274.75 1191.28,-277.76 1183.7,-280.47"/>
<polygon fill="#63b8ff" stroke="#63b8ff" points="1280.16,-233.04 1286.53,-224.57 1276.27,-227.22 1280.16,-233.04"/>
</a>
</g>
</g>
<!-- Node4 -->
<g id="Node000004" class="node">
<title>Node4</title>
<g id="a_Node000004"><a xlink:href="namespacePhysics_1_1Thermal.html#a0dd6c0c38070754508e9ebd0632abba5" target="_top" xlink:title=" ">
<polygon fill="white" stroke="#666666" points="1206,-106.5 1057,-106.5 1057,-76.5 1206,-76.5 1206,-106.5"/>
<text text-anchor="start" x="1065" y="-94.5" font-family="Helvetica,sans-Serif" font-size="10.00">Physics::Thermal::effective</text>
<text text-anchor="middle" x="1131.5" y="-83.5" font-family="Helvetica,sans-Serif" font-size="10.00">Conductivity</text>
</a>
</g>
</g>
<!-- Node1&#45;&gt;Node4 -->
<g id="edge3_Node000001_Node000004" class="edge">
<title>Node1&#45;&gt;Node4</title>
<g id="a_edge3_Node000001_Node000004"><a xlink:title=" ">
<path fill="none" stroke="#63b8ff" d="M1277.01,-188.66C1242.04,-165.15 1186.02,-127.48 1155,-106.63"/>
<polygon fill="#63b8ff" stroke="#63b8ff" points="1275.16,-191.64 1285.42,-194.32 1279.07,-185.83 1275.16,-191.64"/>
</a>
</g>
</g>
<!-- Node15 -->
<g id="Node000015" class="node">
<title>Node15</title>
<g id="a_Node000015"><a xlink:href="namespacePhysics_1_1Thermal.html#ad036396d5d4a0c91d6208c79d4a79127" target="_top" xlink:title=" ">
<polygon fill="white" stroke="#666666" points="1206,-262.5 1057,-262.5 1057,-232.5 1206,-232.5 1206,-262.5"/>
<text text-anchor="start" x="1065" y="-250.5" font-family="Helvetica,sans-Serif" font-size="10.00">Physics::Thermal::effective</text>
<text text-anchor="middle" x="1131.5" y="-239.5" font-family="Helvetica,sans-Serif" font-size="10.00">Emissivity</text>
</a>
</g>
</g>
<!-- Node1&#45;&gt;Node15 -->
<g id="edge14_Node000001_Node000015" class="edge">
<title>Node1&#45;&gt;Node15</title>
<g id="a_edge14_Node000001_Node000015"><a xlink:title=" ">
<path fill="none" stroke="#63b8ff" d="M1231.79,-226C1221.84,-228.16 1211.69,-230.35 1201.87,-232.48"/>
<polygon fill="#63b8ff" stroke="#63b8ff" points="1232.62,-229.4 1241.65,-223.87 1231.14,-222.56 1232.62,-229.4"/>
</a>
</g>
</g>
<!-- Node18 -->
<g id="Node000018" class="node">
<title>Node18</title>
<g id="a_Node000018"><a xlink:href="namespacePhysics_1_1Thermal.html#a8cd40c02db6cde184d3bc886e57bab2b" target="_top" xlink:title=" ">
<polygon fill="white" stroke="#666666" points="1206,-186.5 1057,-186.5 1057,-156.5 1206,-156.5 1206,-186.5"/>
<text text-anchor="start" x="1065" y="-174.5" font-family="Helvetica,sans-Serif" font-size="10.00">Physics::Thermal::effective</text>
<text text-anchor="middle" x="1131.5" y="-163.5" font-family="Helvetica,sans-Serif" font-size="10.00">SpecificHeat</text>
</a>
</g>
</g>
<!-- Node1&#45;&gt;Node18 -->
<g id="edge18_Node000001_Node000018" class="edge">
<title>Node1&#45;&gt;Node18</title>
<g id="a_edge18_Node000001_Node000018"><a xlink:title=" ">
<path fill="none" stroke="#63b8ff" d="M1231.79,-193C1221.84,-190.84 1211.69,-188.65 1201.87,-186.52"/>
<polygon fill="#63b8ff" stroke="#63b8ff" points="1231.14,-196.44 1241.65,-195.13 1232.62,-189.6 1231.14,-196.44"/>
</a>
</g>
</g>
<!-- Node3 -->
<g id="Node000003" class="node">
<title>Node3</title>
<g id="a_Node000003"><a xlink:href="classOctree.html#a2a87e28ce9c64242a6e4c8cb0aaac2a1" target="_top" xlink:title=" ">
<polygon fill="white" stroke="#666666" points="996.5,-305 875.5,-305 875.5,-286 996.5,-286 996.5,-305"/>
<text text-anchor="middle" x="936" y="-293" font-family="Helvetica,sans-Serif" font-size="10.00">Octree::computeHeat</text>
</a>
</g>
</g>
<!-- Node2&#45;&gt;Node3 -->
<g id="edge2_Node000002_Node000003" class="edge">
<title>Node2&#45;&gt;Node3</title>
<g id="a_edge2_Node000002_Node000003"><a xlink:title=" ">
<path fill="none" stroke="#63b8ff" d="M1046.45,-295.5C1029.69,-295.5 1012.42,-295.5 996.69,-295.5"/>
<polygon fill="#63b8ff" stroke="#63b8ff" points="1046.79,-299 1056.79,-295.5 1046.79,-292 1046.79,-299"/>
</a>
</g>
</g>
<!-- Node5 -->
<g id="Node000005" class="node">
<title>Node5</title>
<g id="a_Node000005"><a xlink:href="namespacePhysics_1_1Thermal.html#a4bee0e40f8969cbb2cf1ec826d54834a" target="_top" xlink:title=" ">
<polygon fill="white" stroke="#666666" points="606,-162.5 418,-162.5 418,-132.5 606,-132.5 606,-162.5"/>
<text text-anchor="start" x="426" y="-150.5" font-family="Helvetica,sans-Serif" font-size="10.00">Physics::Thermal::applyConductive</text>
<text text-anchor="middle" x="512" y="-139.5" font-family="Helvetica,sans-Serif" font-size="10.00">Exchange</text>
</a>
</g>
</g>
<!-- Node4&#45;&gt;Node5 -->
<g id="edge4_Node000004_Node000005" class="edge">
<title>Node4&#45;&gt;Node5</title>
<g id="a_edge4_Node000004_Node000005"><a xlink:title=" ">
<path fill="none" stroke="#63b8ff" d="M1062.07,-74.2C966.1,-53.01 787.02,-24.74 642,-66.5 597.27,-79.38 553.07,-112.83 529.82,-132.49"/>
<polygon fill="#63b8ff" stroke="#63b8ff" points="1061.42,-77.64 1071.94,-76.42 1062.96,-70.81 1061.42,-77.64"/>
</a>
</g>
</g>
<!-- Node11 -->
<g id="Node000011" class="node">
<title>Node11</title>
<g id="a_Node000011"><a xlink:href="namespacePhysics_1_1Thermal.html#ab8d9b64b6af0c0fa6313de0a831025ea" target="_top" xlink:title=" ">
<polygon fill="white" stroke="#666666" points="1018,-19 854,-19 854,0 1018,0 1018,-19"/>
<text text-anchor="middle" x="936" y="-7" font-family="Helvetica,sans-Serif" font-size="10.00">Physics::Thermal::biotNumber</text>
</a>
</g>
</g>
<!-- Node4&#45;&gt;Node11 -->
<g id="edge10_Node000004_Node000011" class="edge">
<title>Node4&#45;&gt;Node11</title>
<g id="a_edge10_Node000004_Node000011"><a xlink:title=" ">
<path fill="none" stroke="#63b8ff" d="M1096.63,-71.19C1075.43,-59.09 1047.25,-44.07 1021,-33.5 1006.93,-27.84 991.04,-22.94 976.89,-19.07"/>
<polygon fill="#63b8ff" stroke="#63b8ff" points="1095.15,-74.38 1105.56,-76.35 1098.65,-68.32 1095.15,-74.38"/>
</a>
</g>
</g>
<!-- Node12 -->
<g id="Node000012" class="node">
<title>Node12</title>
<g id="a_Node000012"><a xlink:href="PhysicsTests_8cpp.html#a75ba5c62335618d6d517701284101e65" target="_top" xlink:title=" ">
<polygon fill="white" stroke="#666666" points="956.5,-144 915.5,-144 915.5,-125 956.5,-125 956.5,-144"/>
<text text-anchor="middle" x="936" y="-132" font-family="Helvetica,sans-Serif" font-size="10.00">TEST</text>
</a>
</g>
</g>
<!-- Node4&#45;&gt;Node12 -->
<g id="edge11_Node000004_Node000012" class="edge">
<title>Node4&#45;&gt;Node12</title>
<g id="a_edge11_Node000004_Node000012"><a xlink:title=" ">
<path fill="none" stroke="#63b8ff" d="M1053.03,-108.72C1017.93,-116.52 979.29,-125.1 956.64,-130.14"/>
<polygon fill="#63b8ff" stroke="#63b8ff" points="1053.82,-112.13 1062.82,-106.54 1052.3,-105.29 1053.82,-112.13"/>
</a>
</g>
</g>
<!-- Node13 -->
<g id="Node000013" class="node">
<title>Node13</title>
<g id="a_Node000013"><a xlink:href="namespacePhysics_1_1Thermal.html#aac2d5ed620ed27f75d4cb49a54a06638" target="_top" xlink:title=" ">
<polygon fill="white" stroke="#666666" points="1008,-106.5 864,-106.5 864,-76.5 1008,-76.5 1008,-106.5"/>
<text text-anchor="start" x="872" y="-94.5" font-family="Helvetica,sans-Serif" font-size="10.00">Physics::Thermal::thermal</text>
<text text-anchor="middle" x="936" y="-83.5" font-family="Helvetica,sans-Serif" font-size="10.00">Diffusivity</text>
</a>
</g>
</g>
<!-- Node4&#45;&gt;Node13 -->
<g id="edge12_Node000004_Node000013" class="edge">
<title>Node4&#45;&gt;Node13</title>
<g id="a_edge12_Node000004_Node000013"><a xlink:title=" ">
<path fill="none" stroke="#63b8ff" d="M1046.62,-91.5C1033.84,-91.5 1020.75,-91.5 1008.27,-91.5"/>
<polygon fill="#63b8ff" stroke="#63b8ff" points="1046.79,-95 1056.79,-91.5 1046.79,-88 1046.79,-95"/>
</a>
</g>
</g>
<!-- Node6 -->
<g id="Node000006" class="node">
<title>Node6</title>
<g id="a_Node000006"><a xlink:href="classPhysics_1_1PointMass.html#aa94536ea681b33ed376700aae820cef0" target="_top" xlink:title=" ">
<polygon fill="white" stroke="#666666" points="382,-184.5 209,-184.5 209,-154.5 382,-154.5 382,-184.5"/>
<text text-anchor="start" x="217" y="-172.5" font-family="Helvetica,sans-Serif" font-size="10.00">Physics::PointMass</text>
<text text-anchor="middle" x="295.5" y="-161.5" font-family="Helvetica,sans-Serif" font-size="10.00">::resolveCollisionWithPointMass</text>
</a>
</g>
</g>
<!-- Node5&#45;&gt;Node6 -->
<g id="edge5_Node000005_Node000006" class="edge">
<title>Node5&#45;&gt;Node6</title>
<g id="a_edge5_Node000005_Node000006"><a xlink:title=" ">
<path fill="none" stroke="#63b8ff" d="M407.79,-158.09C399.2,-158.97 390.57,-159.85 382.13,-160.72"/>
<polygon fill="#63b8ff" stroke="#63b8ff" points="408.26,-161.56 417.85,-157.05 407.55,-154.59 408.26,-161.56"/>
</a>
</g>
</g>
<!-- Node7 -->
<g id="Node000007" class="node">
<title>Node7</title>
<g id="a_Node000007"><a xlink:href="classPhysics_1_1RigidBody.html#a4e7d7e2da6c0011c98745c15903a2b15" target="_top" xlink:title=" ">
<polygon fill="white" stroke="#666666" points="382,-261.5 209,-261.5 209,-231.5 382,-231.5 382,-261.5"/>
<text text-anchor="start" x="217" y="-249.5" font-family="Helvetica,sans-Serif" font-size="10.00">Physics::RigidBody</text>
<text text-anchor="middle" x="295.5" y="-238.5" font-family="Helvetica,sans-Serif" font-size="10.00">::resolveCollisionWithPointMass</text>
</a>
</g>
</g>
<!-- Node5&#45;&gt;Node7 -->
<g id="edge6_Node000005_Node000007" class="edge">
<title>Node5&#45;&gt;Node7</title>
<g id="a_edge6_Node000005_Node000007"><a xlink:title=" ">
<path fill="none" stroke="#63b8ff" d="M462.93,-166.31C448.4,-172.22 432.46,-178.93 418,-185.5 385.77,-200.15 349.59,-218.57 325.16,-231.32"/>
<polygon fill="#63b8ff" stroke="#63b8ff" points="464.29,-169.54 472.25,-162.55 461.67,-163.05 464.29,-169.54"/>
</a>
</g>
</g>
<!-- Node10 -->
<g id="Node000010" class="node">
<title>Node10</title>
<g id="a_Node000010"><a xlink:href="PhysicsTests_8cpp.html#a985ead36d6f21bfe093a62aeda3103e2" target="_top" xlink:title=" ">
<polygon fill="white" stroke="#666666" points="316,-136 275,-136 275,-117 316,-117 316,-136"/>
<text text-anchor="middle" x="295.5" y="-124" font-family="Helvetica,sans-Serif" font-size="10.00">TEST</text>
</a>
</g>
</g>
<!-- Node5&#45;&gt;Node10 -->
<g id="edge9_Node000005_Node000010" class="edge">
<title>Node5&#45;&gt;Node10</title>
<g id="a_edge9_Node000005_Node000010"><a xlink:title=" ">
<path fill="none" stroke="#63b8ff" d="M407.57,-137.37C372.74,-133.96 337.38,-130.5 316.19,-128.43"/>
<polygon fill="#63b8ff" stroke="#63b8ff" points="407.56,-140.89 417.85,-138.38 408.24,-133.92 407.56,-140.89"/>
</a>
</g>
</g>
<!-- Node8 -->
<g id="Node000008" class="node">
<title>Node8</title>
<g id="a_Node000008"><a xlink:href="classPhysics_1_1PointMass.html#a6876155fbb7a943c6d2e06f4c6707959" target="_top" xlink:title=" ">
<polygon fill="white" stroke="#666666" points="173,-282.5 0,-282.5 0,-252.5 173,-252.5 173,-282.5"/>
<text text-anchor="start" x="8" y="-270.5" font-family="Helvetica,sans-Serif" font-size="10.00">Physics::PointMass</text>
<text text-anchor="middle" x="86.5" y="-259.5" font-family="Helvetica,sans-Serif" font-size="10.00">::resolveCollisionWithRigidBody</text>
</a>
</g>
</g>
<!-- Node7&#45;&gt;Node8 -->
<g id="edge7_Node000007_Node000008" class="edge">
<title>Node7&#45;&gt;Node8</title>
<g id="a_edge7_Node000007_Node000008"><a xlink:title=" ">
<path fill="none" stroke="#63b8ff" d="M198.8,-256.21C190.24,-257.08 181.6,-257.95 173.12,-258.81"/>
<polygon fill="#63b8ff" stroke="#63b8ff" points="199.22,-259.68 208.81,-255.19 198.51,-252.72 199.22,-259.68"/>
</a>
</g>
</g>
<!-- Node9 -->
<g id="Node000009" class="node">
<title>Node9</title>
<g id="a_Node000009"><a xlink:href="PhysicsTests_8cpp.html#aae14e19948f282c097b0e8761991c0e1" target="_top" xlink:title=" ">
<polygon fill="white" stroke="#666666" points="107,-234 66,-234 66,-215 107,-215 107,-234"/>
<text text-anchor="middle" x="86.5" y="-222" font-family="Helvetica,sans-Serif" font-size="10.00">TEST</text>
</a>
</g>
</g>
<!-- Node7&#45;&gt;Node9 -->
<g id="edge8_Node000007_Node000009" class="edge">
<title>Node7&#45;&gt;Node9</title>
<g id="a_edge8_Node000007_Node000009"><a xlink:title=" ">
<path fill="none" stroke="#63b8ff" d="M198.68,-236.32C164.29,-232.66 128.76,-228.89 107.4,-226.62"/>
<polygon fill="#63b8ff" stroke="#63b8ff" points="198.5,-239.82 208.81,-237.39 199.24,-232.86 198.5,-239.82"/>
</a>
</g>
</g>
<!-- Node14 -->
<g id="Node000014" class="node">
<title>Node14</title>
<g id="a_Node000014"><a xlink:href="namespacePhysics_1_1Thermal.html#aefde8d660f11439cc1e9487e93cf4b36" target="_top" xlink:title=" ">
<polygon fill="white" stroke="#666666" points="797.5,-105.5 659.5,-105.5 659.5,-75.5 797.5,-75.5 797.5,-105.5"/>
<text text-anchor="start" x="667.5" y="-93.5" font-family="Helvetica,sans-Serif" font-size="10.00">Physics::Thermal::fourier</text>
<text text-anchor="middle" x="728.5" y="-82.5" font-family="Helvetica,sans-Serif" font-size="10.00">Number</text>
</a>
</g>
</g>
<!-- Node13&#45;&gt;Node14 -->
<g id="edge13_Node000013_Node000014" class="edge">
<title>Node13&#45;&gt;Node14</title>
<g id="a_edge13_Node000013_Node000014"><a xlink:title=" ">
<path fill="none" stroke="#63b8ff" d="M853.8,-91.1C835.24,-91.01 815.69,-90.92 797.74,-90.83"/>
<polygon fill="#63b8ff" stroke="#63b8ff" points="853.97,-94.61 863.99,-91.15 854.01,-87.61 853.97,-94.61"/>
</a>
</g>
</g>
<!-- Node15&#45;&gt;Node3 -->
<g id="edge17_Node000015_Node000003" class="edge">
<title>Node15&#45;&gt;Node3</title>
<g id="a_edge17_Node000015_Node000003"><a xlink:title=" ">
<path fill="none" stroke="#63b8ff" d="M1065.26,-265.2C1050.72,-269.02 1035.35,-272.98 1021,-276.5 1007.93,-279.71 993.67,-283.01 980.67,-285.94"/>
<polygon fill="#63b8ff" stroke="#63b8ff" points="1066.4,-268.51 1075.18,-262.57 1064.61,-261.75 1066.4,-268.51"/>
</a>
</g>
</g>
<!-- Node16 -->
<g id="Node000016" class="node">
<title>Node16</title>
<g id="a_Node000016"><a xlink:href="namespacePhysics_1_1Thermal.html#aacab006c23ae445dba58583d615319b1" target="_top" xlink:title=" ">
<polygon fill="white" stroke="#666666" points="1009,-267.5 863,-267.5 863,-237.5 1009,-237.5 1009,-267.5"/>
<text text-anchor="start" x="871" y="-255.5" font-family="Helvetica,sans-Serif" font-size="10.00">Physics::Thermal::ambient</text>
<text text-anchor="middle" x="936" y="-244.5" font-family="Helvetica,sans-Serif" font-size="10.00">RadiationHeatRate</text>
</a>
</g>
</g>
<!-- Node15&#45;&gt;Node16 -->
<g id="edge15_Node000015_Node000016" class="edge">
<title>Node15&#45;&gt;Node16</title>
<g id="a_edge15_Node000015_Node000016"><a xlink:title=" ">
<path fill="none" stroke="#63b8ff" d="M1046.46,-249.67C1034.05,-249.99 1021.36,-250.32 1009.22,-250.63"/>
<polygon fill="#63b8ff" stroke="#63b8ff" points="1046.89,-253.16 1056.79,-249.4 1046.71,-246.16 1046.89,-253.16"/>
</a>
</g>
</g>
<!-- Node17 -->
<g id="Node000017" class="node">
<title>Node17</title>
<g id="a_Node000017"><a xlink:href="PhysicsTests_8cpp.html#acd32ec4e925bb511efc1b10090ed5b93" target="_top" xlink:title=" ">
<polygon fill="white" stroke="#666666" points="749,-305 708,-305 708,-286 749,-286 749,-305"/>
<text text-anchor="middle" x="728.5" y="-293" font-family="Helvetica,sans-Serif" font-size="10.00">TEST</text>
</a>
</g>
</g>
<!-- Node16&#45;&gt;Node17 -->
<g id="edge16_Node000016_Node000017" class="edge">
<title>Node16&#45;&gt;Node17</title>
<g id="a_edge16_Node000016_Node000017"><a xlink:title=" ">
<path fill="none" stroke="#63b8ff" d="M853.03,-269.65C814.96,-277.62 772.91,-286.42 749,-291.42"/>
<polygon fill="#63b8ff" stroke="#63b8ff" points="854.05,-273.01 863.13,-267.54 852.62,-266.16 854.05,-273.01"/>
</a>
</g>
</g>
<!-- Node18&#45;&gt;Node12 -->
<g id="edge29_Node000018_Node000012" class="edge">
<title>Node18&#45;&gt;Node12</title>
<g id="a_edge29_Node000018_Node000012"><a xlink:title=" ">
<path fill="none" stroke="#63b8ff" d="M1046.97,-155.53C1013.53,-149.13 977.94,-142.33 956.59,-138.25"/>
<polygon fill="#63b8ff" stroke="#63b8ff" points="1046.31,-158.97 1056.79,-157.41 1047.63,-152.09 1046.31,-158.97"/>
</a>
</g>
</g>
<!-- Node18&#45;&gt;Node13 -->
<g id="edge30_Node000018_Node000013" class="edge">
<title>Node18&#45;&gt;Node13</title>
<g id="a_edge30_Node000018_Node000013"><a xlink:title=" ">
<path fill="none" stroke="#63b8ff" d="M1094.76,-151.54C1073.71,-140.29 1046.32,-126.54 1021,-116.5 1011.95,-112.91 1002.17,-109.56 992.6,-106.54"/>
<polygon fill="#63b8ff" stroke="#63b8ff" points="1093.2,-154.67 1103.66,-156.35 1096.53,-148.51 1093.2,-154.67"/>
</a>
</g>
</g>
<!-- Node19 -->
<g id="Node000019" class="node">
<title>Node19</title>
<g id="a_Node000019"><a xlink:href="namespacePhysics_1_1Thermal.html#a9206d38ee4d0cbd18666c936706e8611" target="_top" xlink:title=" ">
<polygon fill="white" stroke="#666666" points="815,-267.5 642,-267.5 642,-237.5 815,-237.5 815,-267.5"/>
<text text-anchor="start" x="650" y="-255.5" font-family="Helvetica,sans-Serif" font-size="10.00">Physics::Thermal::applyThermal</text>
<text text-anchor="middle" x="728.5" y="-244.5" font-family="Helvetica,sans-Serif" font-size="10.00">Energy</text>
</a>
</g>
</g>
<!-- Node18&#45;&gt;Node19 -->
<g id="edge19_Node000018_Node000019" class="edge">
<title>Node18&#45;&gt;Node19</title>
<g id="a_edge19_Node000018_Node000019"><a xlink:title=" ">
<path fill="none" stroke="#63b8ff" d="M1047.04,-188.36C975.34,-202.84 872.9,-223.53 803.94,-237.46"/>
<polygon fill="#63b8ff" stroke="#63b8ff" points="1047.84,-191.77 1056.95,-186.36 1046.46,-184.91 1047.84,-191.77"/>
</a>
</g>
</g>
<!-- Node22 -->
<g id="Node000022" class="node">
<title>Node22</title>
<g id="a_Node000022"><a xlink:href="namespacePhysics_1_1Thermal.html#a7eaf74772f10f3ceb9740038659283ab" target="_top" xlink:title=" ">
<polygon fill="white" stroke="#666666" points="1021,-181 851,-181 851,-162 1021,-162 1021,-181"/>
<text text-anchor="middle" x="936" y="-169" font-family="Helvetica,sans-Serif" font-size="10.00">Physics::Thermal::heatCapacity</text>
</a>
</g>
</g>
<!-- Node18&#45;&gt;Node22 -->
<g id="edge24_Node000018_Node000022" class="edge">
<title>Node18&#45;&gt;Node22</title>
<g id="a_edge24_Node000018_Node000022"><a xlink:title=" ">
<path fill="none" stroke="#63b8ff" d="M1046.6,-171.5C1038.17,-171.5 1029.61,-171.5 1021.18,-171.5"/>
<polygon fill="#63b8ff" stroke="#63b8ff" points="1046.79,-175 1056.79,-171.5 1046.79,-168 1046.79,-175"/>
</a>
</g>
</g>
<!-- Node19&#45;&gt;Node5 -->
<g id="edge20_Node000019_Node000005" class="edge">
<title>Node19&#45;&gt;Node5</title>
<g id="a_edge20_Node000019_Node000005"><a xlink:title=" ">
<path fill="none" stroke="#63b8ff" d="M693.14,-232.15C669.11,-218.27 636.06,-199.87 606,-185.5 588.85,-177.3 569.44,-169.19 552.81,-162.59"/>
<polygon fill="#63b8ff" stroke="#63b8ff" points="691.48,-235.24 701.89,-237.24 695,-229.19 691.48,-235.24"/>
</a>
</g>
</g>
<!-- Node19&#45;&gt;Node7 -->
<g id="edge22_Node000019_Node000007" class="edge">
<title>Node19&#45;&gt;Node7</title>
<g id="a_edge22_Node000019_Node000007"><a xlink:title=" ">
<path fill="none" stroke="#63b8ff" d="M632.37,-268.81C623.48,-269.9 614.58,-270.83 606,-271.5 522.7,-277.97 501.13,-279.96 418,-271.5 398.07,-269.47 376.59,-265.62 357.31,-261.53"/>
<polygon fill="#63b8ff" stroke="#63b8ff" points="632.93,-272.27 642.4,-267.52 632.03,-265.33 632.93,-272.27"/>
</a>
</g>
</g>
<!-- Node20 -->
<g id="Node000020" class="node">
<title>Node20</title>
<g id="a_Node000020"><a xlink:href="namespacePhysics_1_1Thermal.html#a7d354d9cd4784f896b446fcaa286439c" target="_top" xlink:title=" ">
<polygon fill="white" stroke="#666666" points="587,-224.5 437,-224.5 437,-194.5 587,-194.5 587,-224.5"/>
<text text-anchor="start" x="445" y="-212.5" font-family="Helvetica,sans-Serif" font-size="10.00">Physics::Thermal::integrate</text>
<text text-anchor="middle" x="512" y="-201.5" font-family="Helvetica,sans-Serif" font-size="10.00">Temperature</text>
</a>
</g>
</g>
<!-- Node19&#45;&gt;Node20 -->
<g id="edge21_Node000019_Node000020" class="edge">
<title>Node19&#45;&gt;Node20</title>
<g id="a_edge21_Node000019_Node000020"><a xlink:title=" ">
<path fill="none" stroke="#63b8ff" d="M642.45,-235.45C624.2,-231.79 605.06,-227.95 587.26,-224.39"/>
<polygon fill="#63b8ff" stroke="#63b8ff" points="641.99,-238.93 652.48,-237.46 643.36,-232.06 641.99,-238.93"/>
</a>
</g>
</g>
<!-- Node21 -->
<g id="Node000021" class="node">
<title>Node21</title>
<g id="a_Node000021"><a xlink:href="PhysicsTests_8cpp.html#aa0407d0a28cee579779bf66d159a989d" target="_top" xlink:title=" ">
<polygon fill="white" stroke="#666666" points="532.5,-262 491.5,-262 491.5,-243 532.5,-243 532.5,-262"/>
<text text-anchor="middle" x="512" y="-250" font-family="Helvetica,sans-Serif" font-size="10.00">TEST</text>
</a>
</g>
</g>
<!-- Node19&#45;&gt;Node21 -->
<g id="edge23_Node000019_Node000021" class="edge">
<title>Node19&#45;&gt;Node21</title>
<g id="a_edge23_Node000019_Node000021"><a xlink:title=" ">
<path fill="none" stroke="#63b8ff" d="M631.37,-252.5C594.18,-252.5 555.18,-252.5 532.54,-252.5"/>
<polygon fill="#63b8ff" stroke="#63b8ff" points="631.8,-256 641.8,-252.5 631.8,-249 631.8,-256"/>
</a>
</g>
</g>
<!-- Node22&#45;&gt;Node5 -->
<g id="edge25_Node000022_Node000005" class="edge">
<title>Node22&#45;&gt;Node5</title>
<g id="a_edge25_Node000022_Node000005"><a xlink:title=" ">
<path fill="none" stroke="#63b8ff" d="M871.76,-160.45C853.5,-157.69 833.51,-155.07 815,-153.5 745.11,-147.59 665.81,-146.22 606.02,-146.25"/>
<polygon fill="#63b8ff" stroke="#63b8ff" points="871.29,-163.92 881.71,-162 872.37,-157 871.29,-163.92"/>
</a>
</g>
</g>
<!-- Node22&#45;&gt;Node19 -->
<g id="edge26_Node000022_Node000019" class="edge">
<title>Node22&#45;&gt;Node19</title>
<g id="a_edge26_Node000022_Node000019"><a xlink:title=" ">
<path fill="none" stroke="#63b8ff" d="M879.96,-183.94C870.06,-187.09 860.03,-190.92 851,-195.5 832.93,-204.67 832.85,-213.89 815,-223.5 805.06,-228.85 793.95,-233.49 783.12,-237.38"/>
<polygon fill="#63b8ff" stroke="#63b8ff" points="881.18,-187.23 889.77,-181.02 879.18,-180.52 881.18,-187.23"/>
</a>
</g>
</g>
<!-- Node22&#45;&gt;Node20 -->
<g id="edge27_Node000022_Node000020" class="edge">
<title>Node22&#45;&gt;Node20</title>
<g id="a_edge27_Node000022_Node000020"><a xlink:title=" ">
<path fill="none" stroke="#63b8ff" d="M871.73,-182.66C853.47,-185.57 833.49,-188.46 815,-190.5 737.46,-199.06 648.26,-204.08 587.01,-206.79"/>
<polygon fill="#63b8ff" stroke="#63b8ff" points="872.37,-186.1 881.68,-181.05 871.25,-179.19 872.37,-186.1"/>
</a>
</g>
</g>
<!-- Node23 -->
<g id="Node000023" class="node">
<title>Node23</title>
<g id="a_Node000023"><a xlink:href="PhysicsTests_8cpp.html#a3e1d22d3768c48def0bef01f352499ff" target="_top" xlink:title=" ">
<polygon fill="white" stroke="#666666" points="749,-181 708,-181 708,-162 749,-162 749,-181"/>
<text text-anchor="middle" x="728.5" y="-169" font-family="Helvetica,sans-Serif" font-size="10.00">TEST</text>
</a>
</g>
</g>
<!-- Node22&#45;&gt;Node23 -->
<g id="edge28_Node000022_Node000023" class="edge">
<title>Node22&#45;&gt;Node23</title>
<g id="a_edge28_Node000022_Node000023"><a xlink:title=" ">
<path fill="none" stroke="#63b8ff" d="M840.66,-171.5C806.15,-171.5 770.38,-171.5 749.03,-171.5"/>
<polygon fill="#63b8ff" stroke="#63b8ff" points="840.82,-175 850.82,-171.5 840.82,-168 840.82,-175"/>
</a>
</g>
</g>
</g>
</svg>
