<?xml version="1.0" encoding="UTF-8" standalone="no"?>
<!DOCTYPE svg PUBLIC "-//W3C//DTD SVG 1.1//EN"
 "http://www.w3.org/Graphics/SVG/1.1/DTD/svg11.dtd">
<!-- Generated by graphviz version 2.43.0 (0)
 -->
<!-- Title: Physics::Thermal::clampTemperature Pages: 1 -->
<svg width="1415pt" height="403pt"
 viewBox="0.00 0.00 1415.00 402.97" xmlns="http://www.w3.org/2000/svg" xmlns:xlink="http://www.w3.org/1999/xlink">
<g id="graph0" class="graph" transform="scale(1 1) rotate(0) translate(4 398.97)">
<title>Physics::Thermal::clampTemperature</title>
<!-- Node1 -->
<g id="Node000001" class="node">
<title>Node1</title>
<g id="a_Node000001"><a xlink:title=" ">
<polygon fill="#999999" stroke="#666666" points="1407,-206 1210,-206 1210,-187 1407,-187 1407,-206"/>
<text text-anchor="middle" x="1308.5" y="-194" font-family="Helvetica,sans-Serif" font-size="10.00">Physics::Thermal::clampTemperature</text>
</a>
</g>
</g>
<!-- Node2 -->
<g id="Node000002" class="node">
<title>Node2</title>
<g id="a_Node000002"><a xlink:href="namespacePhysics_1_1Thermal.html#aacab006c23ae445dba58583d615319b1" target="_top" xlink:title=" ">
<polygon fill="white" stroke="#666666" points="1174,-319.5 1028,-319.5 1028,-289.5 1174,-289.5 1174,-319.5"/>
<text text-anchor="start" x="1036" y="-307.5" font-family="Helvetica,sans-Serif" font-size="10.00">Physics::Thermal::ambient</text>
<text text-anchor="middle" x="1101" y="-296.5" font-family="Helvetica,sans-Serif" font-size="10.00">RadiationHeatRate</text>
</a>
</g>
</g>
<!-- Node1&#45;&gt;Node2 -->
<g id="edge1_Node000001_Node000002" class="edge">
<title>Node1&#45;&gt;Node2</title>
<g id="a_edge1_Node000001_Node000002"><a xlink:title=" ">
<path fill="none" stroke="#63b8ff" d="M1284.65,-211.47C1258.52,-228.24 1214.18,-255.66 1174,-275.5 1163.97,-280.45 1152.88,-285.24 1142.46,-289.45"/>
<polygon fill="#63b8ff" stroke="#63b8ff" points="1286.59,-214.38 1293.09,-206.02 1282.79,-208.5 1286.59,-214.38"/>
</a>
</g>
</g>
<!-- Node4 -->
<g id="Node000004" class="node">
<title>Node4</title>
<g id="a_Node000004"><a xlink:href="namespacePhysics_1_1Thermal.html#a9206d38ee4d0cbd18666c936706e8611" target="_top" xlink:title=" ">
<polygon fill="white" stroke="#666666" points="992,-276.5 819,-276.5 819,-246.5 992,-246.5 992,-276.5"/>
<text text-anchor="start" x="827" y="-264.5" font-family="Helvetica,sans-Serif" font-size="10.00">Physics::Thermal::applyThermal</text>
<text text-anchor="middle" x="905.5" y="-253.5" font-family="Helvetica,sans-Serif" font-size="10.00">Energy</text>
</a>
</g>
</g>
<!-- Node1&#45;&gt;Node4 -->
<g id="edge3_Node000001_Node000004" class="edge">
<title>Node1&#45;&gt;Node4</title>
<g id="a_edge3_Node000001_Node000004"><a xlink:title=" ">
<path fill="none" stroke="#63b8ff" d="M1275.77,-210.07C1249.12,-220.82 1209.78,-235.2 1174,-242.5 1114.01,-254.75 1045.07,-259.42 992.2,-261.08"/>
<polygon fill="#63b8ff" stroke="#63b8ff" points="1277.4,-213.18 1285.33,-206.15 1274.74,-206.71 1277.4,-213.18"/>
</a>
</g>
</g>
<!-- Node13 -->
<g id="Node000013" class="node">
<title>Node13</title>
<g id="a_Node000013"><a xlink:href="namespacePhysics_1_1Thermal.html#ad383dae0d4100378597530dbab1164a5" target="_top" xlink:title=" ">
<polygon fill="white" stroke="#666666" points="1169.5,-147.5 1032.5,-147.5 1032.5,-117.5 1169.5,-117.5 1169.5,-147.5"/>
<text text-anchor="start" x="1040.5" y="-135.5" font-family="Helvetica,sans-Serif" font-size="10.00">Physics::Thermal::carnot</text>
<text text-anchor="middle" x="1101" y="-124.5" font-family="Helvetica,sans-Serif" font-size="10.00">Efficiency</text>
</a>
</g>
</g>
<!-- Node1&#45;&gt;Node13 -->
<g id="edge13_Node000001_Node000013" class="edge">
<title>Node1&#45;&gt;Node13</title>
<g id="a_edge13_Node000001_Node000013"><a xlink:title=" ">
<path fill="none" stroke="#63b8ff" d="M1266.81,-183.83C1233.27,-173.38 1185.62,-158.54 1150.18,-147.5"/>
<polygon fill="#63b8ff" stroke="#63b8ff" points="1266.15,-187.29 1276.73,-186.92 1268.23,-180.6 1266.15,-187.29"/>
</a>
</g>
</g>
<!-- Node15 -->
<g id="Node000015" class="node">
<title>Node15</title>
<g id="a_Node000015"><a xlink:href="classOctree.html#a2a87e28ce9c64242a6e4c8cb0aaac2a1" target="_top" xlink:title=" ">
<polygon fill="white" stroke="#666666" points="1161.5,-99 1040.5,-99 1040.5,-80 1161.5,-80 1161.5,-99"/>
<text text-anchor="middle" x="1101" y="-87" font-family="Helvetica,sans-Serif" font-size="10.00">Octree::computeHeat</text>
</a>
</g>
</g>
<!-- Node1&#45;&gt;Node15 -->
<g id="edge15_Node000001_Node000015" class="edge">
<title>Node1&#45;&gt;Node15</title>
<g id="a_edge15_Node000001_Node000015"><a xlink:title=" ">
<path fill="none" stroke="#63b8ff" d="M1287.78,-180.5C1262.74,-160.92 1217.53,-127.96 1174,-108.5 1165.62,-104.75 1156.35,-101.62 1147.33,-99.06"/>
<polygon fill="#63b8ff" stroke="#63b8ff" points="1285.75,-183.36 1295.76,-186.83 1290.1,-177.87 1285.75,-183.36"/>
</a>
</g>
</g>
<!-- Node16 -->
<g id="Node000016" class="node">
<title>Node16</title>
<g id="a_Node000016"><a xlink:href="classPhysics_1_1PhysicsBody.html#ad76815a1ef3d53f6c2901afa5277554f" target="_top" xlink:title=" ">
<polygon fill="white" stroke="#666666" points="966,-150.5 845,-150.5 845,-120.5 966,-120.5 966,-150.5"/>
<text text-anchor="start" x="853" y="-138.5" font-family="Helvetica,sans-Serif" font-size="10.00">Physics::PhysicsBody</text>
<text text-anchor="middle" x="905.5" y="-127.5" font-family="Helvetica,sans-Serif" font-size="10.00">::setThermalProperty</text>
</a>
</g>
</g>
<!-- Node1&#45;&gt;Node16 -->
<g id="edge16_Node000001_Node000016" class="edge">
<title>Node1&#45;&gt;Node16</title>
<g id="a_edge16_Node000001_Node000016"><a xlink:title=" ">
<path fill="none" stroke="#63b8ff" d="M1226.87,-185.59C1170.98,-177.88 1094.89,-167.06 1028,-156.5 1007.81,-153.31 985.77,-149.58 966.08,-146.15"/>
<polygon fill="#63b8ff" stroke="#63b8ff" points="1226.67,-189.1 1237.06,-186.99 1227.63,-182.16 1226.67,-189.1"/>
</a>
</g>
</g>
<!-- Node26 -->
<g id="Node000026" class="node">
<title>Node26</title>
<g id="a_Node000026"><a xlink:href="namespacePhysics_1_1Thermal.html#a06108fe540610d537e7250d1e0472d63" target="_top" xlink:title=" ">
<polygon fill="white" stroke="#666666" points="1172.5,-233.5 1029.5,-233.5 1029.5,-203.5 1172.5,-203.5 1172.5,-233.5"/>
<text text-anchor="start" x="1037.5" y="-221.5" font-family="Helvetica,sans-Serif" font-size="10.00">Physics::Thermal::specific</text>
<text text-anchor="middle" x="1101" y="-210.5" font-family="Helvetica,sans-Serif" font-size="10.00">EntropyChange</text>
</a>
</g>
</g>
<!-- Node1&#45;&gt;Node26 -->
<g id="edge30_Node000001_Node000026" class="edge">
<title>Node1&#45;&gt;Node26</title>
<g id="a_edge30_Node000001_Node000026"><a xlink:title=" ">
<path fill="none" stroke="#63b8ff" d="M1208.41,-207.11C1196.28,-208.41 1184.09,-209.71 1172.5,-210.95"/>
<polygon fill="#63b8ff" stroke="#63b8ff" points="1208.99,-210.57 1218.56,-206.02 1208.24,-203.61 1208.99,-210.57"/>
</a>
</g>
</g>
<!-- Node3 -->
<g id="Node000003" class="node">
<title>Node3</title>
<g id="a_Node000003"><a xlink:href="PhysicsTests_8cpp.html#acd32ec4e925bb511efc1b10090ed5b93" target="_top" xlink:title=" ">
<polygon fill="white" stroke="#666666" points="926,-314 885,-314 885,-295 926,-295 926,-314"/>
<text text-anchor="middle" x="905.5" y="-302" font-family="Helvetica,sans-Serif" font-size="10.00">TEST</text>
</a>
</g>
</g>
<!-- Node2&#45;&gt;Node3 -->
<g id="edge2_Node000002_Node000003" class="edge">
<title>Node2&#45;&gt;Node3</title>
<g id="a_edge2_Node000002_Node000003"><a xlink:title=" ">
<path fill="none" stroke="#63b8ff" d="M1017.56,-304.5C983.78,-304.5 947.61,-304.5 926.04,-304.5"/>
<polygon fill="#63b8ff" stroke="#63b8ff" points="1017.95,-308 1027.95,-304.5 1017.95,-301 1017.95,-308"/>
</a>
</g>
</g>
<!-- Node5 -->
<g id="Node000005" class="node">
<title>Node5</title>
<g id="a_Node000005"><a xlink:href="namespacePhysics_1_1Thermal.html#a4bee0e40f8969cbb2cf1ec826d54834a" target="_top" xlink:title=" ">
<polygon fill="white" stroke="#666666" points="783,-346.5 595,-346.5 595,-316.5 783,-316.5 783,-346.5"/>
<text text-anchor="start" x="603" y="-334.5" font-family="Helvetica,sans-Serif" font-size="10.00">Physics::Thermal::applyConductive</text>
<text text-anchor="middle" x="689" y="-323.5" font-family="Helvetica,sans-Serif" font-size="10.00">Exchange</text>
</a>
</g>
</g>
<!-- Node4&#45;&gt;Node5 -->
<g id="edge4_Node000004_Node000005" class="edge">
<title>Node4&#45;&gt;Node5</title>
<g id="a_edge4_Node000004_Node000005"><a xlink:title=" ">
<path fill="none" stroke="#63b8ff" d="M836.04,-279.89C830.21,-281.94 824.46,-284.15 819,-286.5 801.98,-293.82 800.13,-300.45 783,-307.5 774.98,-310.8 766.38,-313.75 757.77,-316.35"/>
<polygon fill="#63b8ff" stroke="#63b8ff" points="837.52,-283.08 845.88,-276.58 835.28,-276.45 837.52,-283.08"/>
</a>
</g>
</g>
<!-- Node7 -->
<g id="Node000007" class="node">
<title>Node7</title>
<g id="a_Node000007"><a xlink:href="classPhysics_1_1RigidBody.html#a4e7d7e2da6c0011c98745c15903a2b15" target="_top" xlink:title=" ">
<polygon fill="white" stroke="#666666" points="559,-389.5 386,-389.5 386,-359.5 559,-359.5 559,-389.5"/>
<text text-anchor="start" x="394" y="-377.5" font-family="Helvetica,sans-Serif" font-size="10.00">Physics::RigidBody</text>
<text text-anchor="middle" x="472.5" y="-366.5" font-family="Helvetica,sans-Serif" font-size="10.00">::resolveCollisionWithPointMass</text>
</a>
</g>
</g>
<!-- Node4&#45;&gt;Node7 -->
<g id="edge11_Node000004_Node000007" class="edge">
<title>Node4&#45;&gt;Node7</title>
<g id="a_edge11_Node000004_Node000007"><a xlink:title=" ">
<path fill="none" stroke="#63b8ff" d="M825.42,-281.81C823.19,-283.26 821.04,-284.83 819,-286.5 792.26,-308.44 812.02,-336.67 783,-355.5 713.91,-400.34 616.85,-398.37 549.94,-389.52"/>
<polygon fill="#63b8ff" stroke="#63b8ff" points="827.44,-284.68 834.4,-276.69 823.98,-278.6 827.44,-284.68"/>
</a>
</g>
</g>
<!-- Node11 -->
<g id="Node000011" class="node">
<title>Node11</title>
<g id="a_Node000011"><a xlink:href="namespacePhysics_1_1Thermal.html#a7d354d9cd4784f896b446fcaa286439c" target="_top" xlink:title=" ">
<polygon fill="white" stroke="#666666" points="764,-298.5 614,-298.5 614,-268.5 764,-268.5 764,-298.5"/>
<text text-anchor="start" x="622" y="-286.5" font-family="Helvetica,sans-Serif" font-size="10.00">Physics::Thermal::integrate</text>
<text text-anchor="middle" x="689" y="-275.5" font-family="Helvetica,sans-Serif" font-size="10.00">Temperature</text>
</a>
</g>
</g>
<!-- Node4&#45;&gt;Node11 -->
<g id="edge10_Node000004_Node000011" class="edge">
<title>Node4&#45;&gt;Node11</title>
<g id="a_edge10_Node000004_Node000011"><a xlink:title=" ">
<path fill="none" stroke="#63b8ff" d="M808.55,-271.34C793.66,-272.87 778.47,-274.43 764.15,-275.89"/>
<polygon fill="#63b8ff" stroke="#63b8ff" points="809.21,-274.79 818.8,-270.29 808.49,-267.83 809.21,-274.79"/>
</a>
</g>
</g>
<!-- Node12 -->
<g id="Node000012" class="node">
<title>Node12</title>
<g id="a_Node000012"><a xlink:href="PhysicsTests_8cpp.html#aa0407d0a28cee579779bf66d159a989d" target="_top" xlink:title=" ">
<polygon fill="white" stroke="#666666" points="709.5,-250 668.5,-250 668.5,-231 709.5,-231 709.5,-250"/>
<text text-anchor="middle" x="689" y="-238" font-family="Helvetica,sans-Serif" font-size="10.00">TEST</text>
</a>
</g>
</g>
<!-- Node4&#45;&gt;Node12 -->
<g id="edge12_Node000004_Node000012" class="edge">
<title>Node4&#45;&gt;Node12</title>
<g id="a_edge12_Node000004_Node000012"><a xlink:title=" ">
<path fill="none" stroke="#63b8ff" d="M808.37,-252.09C771.18,-248.45 732.18,-244.63 709.54,-242.41"/>
<polygon fill="#63b8ff" stroke="#63b8ff" points="808.51,-255.62 818.8,-253.11 809.19,-248.65 808.51,-255.62"/>
</a>
</g>
</g>
<!-- Node6 -->
<g id="Node000006" class="node">
<title>Node6</title>
<g id="a_Node000006"><a xlink:href="classPhysics_1_1PointMass.html#aa94536ea681b33ed376700aae820cef0" target="_top" xlink:title=" ">
<polygon fill="white" stroke="#666666" points="559,-303.5 386,-303.5 386,-273.5 559,-273.5 559,-303.5"/>
<text text-anchor="start" x="394" y="-291.5" font-family="Helvetica,sans-Serif" font-size="10.00">Physics::PointMass</text>
<text text-anchor="middle" x="472.5" y="-280.5" font-family="Helvetica,sans-Serif" font-size="10.00">::resolveCollisionWithPointMass</text>
</a>
</g>
</g>
<!-- Node5&#45;&gt;Node6 -->
<g id="edge5_Node000005_Node000006" class="edge">
<title>Node5&#45;&gt;Node6</title>
<g id="a_edge5_Node000005_Node000006"><a xlink:title=" ">
<path fill="none" stroke="#63b8ff" d="M603.06,-314.47C585.03,-310.86 566.11,-307.07 548.48,-303.53"/>
<polygon fill="#63b8ff" stroke="#63b8ff" points="602.49,-317.93 612.98,-316.46 603.86,-311.06 602.49,-317.93"/>
</a>
</g>
</g>
<!-- Node5&#45;&gt;Node7 -->
<g id="edge6_Node000005_Node000007" class="edge">
<title>Node5&#45;&gt;Node7</title>
<g id="a_edge6_Node000005_Node000007"><a xlink:title=" ">
<path fill="none" stroke="#63b8ff" d="M603.06,-348.53C585.03,-352.14 566.11,-355.93 548.48,-359.47"/>
<polygon fill="#63b8ff" stroke="#63b8ff" points="603.86,-351.94 612.98,-346.54 602.49,-345.07 603.86,-351.94"/>
</a>
</g>
</g>
<!-- Node10 -->
<g id="Node000010" class="node">
<title>Node10</title>
<g id="a_Node000010"><a xlink:href="PhysicsTests_8cpp.html#a985ead36d6f21bfe093a62aeda3103e2" target="_top" xlink:title=" ">
<polygon fill="white" stroke="#666666" points="493,-341 452,-341 452,-322 493,-322 493,-341"/>
<text text-anchor="middle" x="472.5" y="-329" font-family="Helvetica,sans-Serif" font-size="10.00">TEST</text>
</a>
</g>
</g>
<!-- Node5&#45;&gt;Node10 -->
<g id="edge9_Node000005_Node000010" class="edge">
<title>Node5&#45;&gt;Node10</title>
<g id="a_edge9_Node000005_Node000010"><a xlink:title=" ">
<path fill="none" stroke="#63b8ff" d="M584.57,-331.5C549.74,-331.5 514.38,-331.5 493.19,-331.5"/>
<polygon fill="#63b8ff" stroke="#63b8ff" points="584.85,-335 594.85,-331.5 584.85,-328 584.85,-335"/>
</a>
</g>
</g>
<!-- Node8 -->
<g id="Node000008" class="node">
<title>Node8</title>
<g id="a_Node000008"><a xlink:href="classPhysics_1_1PointMass.html#a6876155fbb7a943c6d2e06f4c6707959" target="_top" xlink:title=" ">
<polygon fill="white" stroke="#666666" points="347.5,-389.5 174.5,-389.5 174.5,-359.5 347.5,-359.5 347.5,-389.5"/>
<text text-anchor="start" x="182.5" y="-377.5" font-family="Helvetica,sans-Serif" font-size="10.00">Physics::PointMass</text>
<text text-anchor="middle" x="261" y="-366.5" font-family="Helvetica,sans-Serif" font-size="10.00">::resolveCollisionWithRigidBody</text>
</a>
</g>
</g>
<!-- Node7&#45;&gt;Node8 -->
<g id="edge7_Node000007_Node000008" class="edge">
<title>Node7&#45;&gt;Node8</title>
<g id="a_edge7_Node000007_Node000008"><a xlink:title=" ">
<path fill="none" stroke="#63b8ff" d="M375.82,-374.5C366.4,-374.5 356.89,-374.5 347.58,-374.5"/>
<polygon fill="#63b8ff" stroke="#63b8ff" points="375.99,-378 385.99,-374.5 375.99,-371 375.99,-378"/>
</a>
</g>
</g>
<!-- Node9 -->
<g id="Node000009" class="node">
<title>Node9</title>
<g id="a_Node000009"><a xlink:href="PhysicsTests_8cpp.html#aae14e19948f282c097b0e8761991c0e1" target="_top" xlink:title=" ">
<polygon fill="white" stroke="#666666" points="281.5,-255 240.5,-255 240.5,-236 281.5,-236 281.5,-255"/>
<text text-anchor="middle" x="261" y="-243" font-family="Helvetica,sans-Serif" font-size="10.00">TEST</text>
</a>
</g>
</g>
<!-- Node7&#45;&gt;Node9 -->
<g id="edge8_Node000007_Node000009" class="edge">
<title>Node7&#45;&gt;Node9</title>
<g id="a_edge8_Node000007_Node000009"><a xlink:title=" ">
<path fill="none" stroke="#63b8ff" d="M396.91,-355.69C393.16,-354.09 389.5,-352.36 386,-350.5 336.67,-324.31 289.47,-275.82 270.61,-255.19"/>
<polygon fill="#63b8ff" stroke="#63b8ff" points="395.8,-359.01 406.38,-359.43 398.37,-352.5 395.8,-359.01"/>
</a>
</g>
</g>
<!-- Node14 -->
<g id="Node000014" class="node">
<title>Node14</title>
<g id="a_Node000014"><a xlink:href="PhysicsTests_8cpp.html#af0740b28c52541a56083292f684ca7cb" target="_top" xlink:title=" ">
<polygon fill="white" stroke="#666666" points="926,-102 885,-102 885,-83 926,-83 926,-102"/>
<text text-anchor="middle" x="905.5" y="-90" font-family="Helvetica,sans-Serif" font-size="10.00">TEST</text>
</a>
</g>
</g>
<!-- Node13&#45;&gt;Node14 -->
<g id="edge14_Node000013_Node000014" class="edge">
<title>Node13&#45;&gt;Node14</title>
<g id="a_edge14_Node000013_Node000014"><a xlink:title=" ">
<path fill="none" stroke="#63b8ff" d="M1022.08,-116.39C987.1,-109.16 948.7,-101.22 926.14,-96.56"/>
<polygon fill="#63b8ff" stroke="#63b8ff" points="1021.82,-119.91 1032.32,-118.51 1023.24,-113.06 1021.82,-119.91"/>
</a>
</g>
</g>
<!-- Node16&#45;&gt;Node9 -->
<g id="edge29_Node000016_Node000009" class="edge">
<title>Node16&#45;&gt;Node9</title>
<g id="a_edge29_Node000016_Node000009"><a xlink:title=" ">
<path fill="none" stroke="#63b8ff" d="M834.85,-125.33C712.55,-108.67 464.68,-80.64 386,-114.5 326.46,-140.13 282.13,-209.96 267.35,-235.76"/>
<polygon fill="#63b8ff" stroke="#63b8ff" points="834.48,-128.81 844.86,-126.7 835.43,-121.87 834.48,-128.81"/>
</a>
</g>
</g>
<!-- Node17 -->
<g id="Node000017" class="node">
<title>Node17</title>
<g id="a_Node000017"><a xlink:href="namespaceScenePresets_1_1Astronomy.html#a0b0e571c83bcdb2d16710b9425375b5f" target="_top" xlink:title=" ">
<polygon fill="white" stroke="#666666" points="759.5,-67.5 618.5,-67.5 618.5,-37.5 759.5,-37.5 759.5,-67.5"/>
<text text-anchor="start" x="626.5" y="-55.5" font-family="Helvetica,sans-Serif" font-size="10.00">ScenePresets::Astronomy</text>
<text text-anchor="middle" x="689" y="-44.5" font-family="Helvetica,sans-Serif" font-size="10.00">::createRealSolarSystem</text>
</a>
</g>
</g>
<!-- Node16&#45;&gt;Node17 -->
<g id="edge17_Node000016_Node000017" class="edge">
<title>Node16&#45;&gt;Node17</title>
<g id="a_edge17_Node000016_Node000017"><a xlink:title=" ">
<path fill="none" stroke="#63b8ff" d="M835.33,-117.87C829.7,-115.66 824.18,-113.21 819,-110.5 800.79,-100.99 801.13,-91.17 783,-81.5 772.7,-76.01 761.2,-71.37 749.89,-67.52"/>
<polygon fill="#63b8ff" stroke="#63b8ff" points="834.31,-121.22 844.9,-121.38 836.71,-114.65 834.31,-121.22"/>
</a>
</g>
</g>
<!-- Node18 -->
<g id="Node000018" class="node">
<title>Node18</title>
<g id="a_Node000018"><a xlink:href="classSceneSerializer.html#a490f2bd87e7c9459ee47be974653b433" target="_top" xlink:title=" ">
<polygon fill="white" stroke="#666666" points="771,-19 607,-19 607,0 771,0 771,-19"/>
<text text-anchor="middle" x="689" y="-7" font-family="Helvetica,sans-Serif" font-size="10.00">SceneSerializer::loadFromJson</text>
</a>
</g>
</g>
<!-- Node16&#45;&gt;Node18 -->
<g id="edge18_Node000016_Node000018" class="edge">
<title>Node16&#45;&gt;Node18</title>
<g id="a_edge18_Node000016_Node000018"><a xlink:title=" ">
<path fill="none" stroke="#63b8ff" d="M835.38,-121.28C829.46,-118.34 823.88,-114.79 819,-110.5 789.1,-84.23 813.97,-53.51 783,-28.5 778.26,-24.67 772.94,-21.55 767.32,-19.01"/>
<polygon fill="#63b8ff" stroke="#63b8ff" points="834.34,-124.65 844.91,-125.43 837.13,-118.23 834.34,-124.65"/>
</a>
</g>
</g>
<!-- Node22 -->
<g id="Node000022" class="node">
<title>Node22</title>
<g id="a_Node000022"><a xlink:href="classPhysics_1_1PointMass.html#ace083146035c884b09da82466fdfbf86" target="_top" xlink:title=" ">
<polygon fill="white" stroke="#666666" points="748.5,-212.5 629.5,-212.5 629.5,-182.5 748.5,-182.5 748.5,-212.5"/>
<text text-anchor="start" x="637.5" y="-200.5" font-family="Helvetica,sans-Serif" font-size="10.00">Physics::PointMass</text>
<text text-anchor="middle" x="689" y="-189.5" font-family="Helvetica,sans-Serif" font-size="10.00">::setThermalProperty</text>
</a>
</g>
</g>
<!-- Node16&#45;&gt;Node22 -->
<g id="edge22_Node000016_Node000022" class="edge">
<title>Node16&#45;&gt;Node22</title>
<g id="a_edge22_Node000016_Node000022"><a xlink:title=" ">
<path fill="none" stroke="#63b8ff" d="M842.92,-153.3C811.05,-162.51 772.58,-173.63 742.19,-182.41"/>
<polygon fill="#63b8ff" stroke="#63b8ff" points="843.94,-156.65 852.58,-150.51 842,-149.92 843.94,-156.65"/>
</a>
</g>
</g>
<!-- Node19 -->
<g id="Node000019" class="node">
<title>Node19</title>
<g id="a_Node000019"><a xlink:href="classSceneManager.html#a7b7b0a022dcce523178e8414fb8e4463" target="_top" xlink:title=" ">
<polygon fill="white" stroke="#666666" points="545,-19 400,-19 400,0 545,0 545,-19"/>
<text text-anchor="middle" x="472.5" y="-7" font-family="Helvetica,sans-Serif" font-size="10.00">SceneManager::loadScene</text>
</a>
</g>
</g>
<!-- Node18&#45;&gt;Node19 -->
<g id="edge19_Node000018_Node000019" class="edge">
<title>Node18&#45;&gt;Node19</title>
<g id="a_edge19_Node000018_Node000019"><a xlink:title=" ">
<path fill="none" stroke="#63b8ff" d="M596.83,-9.5C579.58,-9.5 561.76,-9.5 545.21,-9.5"/>
<polygon fill="#63b8ff" stroke="#63b8ff" points="596.91,-13 606.91,-9.5 596.91,-6 596.91,-13"/>
</a>
</g>
</g>
<!-- Node20 -->
<g id="Node000020" class="node">
<title>Node20</title>
<g id="a_Node000020"><a xlink:href="classSceneManager.html#a59f13c06bf3f19d5e543502a0ddd0467" target="_top" xlink:title=" ">
<polygon fill="white" stroke="#666666" points="350,-19 172,-19 172,0 350,0 350,-19"/>
<text text-anchor="middle" x="261" y="-7" font-family="Helvetica,sans-Serif" font-size="10.00">SceneManager::processHeldKeys</text>
</a>
</g>
</g>
<!-- Node19&#45;&gt;Node20 -->
<g id="edge20_Node000019_Node000020" class="edge">
<title>Node19&#45;&gt;Node20</title>
<g id="a_edge20_Node000019_Node000020"><a xlink:title=" ">
<path fill="none" stroke="#63b8ff" d="M389.72,-9.5C376.77,-9.5 363.33,-9.5 350.24,-9.5"/>
<polygon fill="#63b8ff" stroke="#63b8ff" points="389.99,-13 399.99,-9.5 389.99,-6 389.99,-13"/>
</a>
</g>
</g>
<!-- Node21 -->
<g id="Node000021" class="node">
<title>Node21</title>
<g id="a_Node000021"><a xlink:href="classOpenGLWindow.html#aea9ee69010d8451ab00cd488a8c6717d" target="_top" xlink:title=" ">
<polygon fill="white" stroke="#666666" points="136,-19 0,-19 0,0 136,0 136,-19"/>
<text text-anchor="middle" x="68" y="-7" font-family="Helvetica,sans-Serif" font-size="10.00">OpenGLWindow::paintGL</text>
</a>
</g>
</g>
<!-- Node20&#45;&gt;Node21 -->
<g id="edge21_Node000020_Node000021" class="edge">
<title>Node20&#45;&gt;Node21</title>
<g id="a_edge21_Node000020_Node000021"><a xlink:title=" ">
<path fill="none" stroke="#63b8ff" d="M161.6,-9.5C152.94,-9.5 144.32,-9.5 136,-9.5"/>
<polygon fill="#63b8ff" stroke="#63b8ff" points="161.77,-13 171.77,-9.5 161.77,-6 161.77,-13"/>
</a>
</g>
</g>
<!-- Node22&#45;&gt;Node6 -->
<g id="edge23_Node000022_Node000006" class="edge">
<title>Node22&#45;&gt;Node6</title>
<g id="a_edge23_Node000022_Node000006"><a xlink:title=" ">
<path fill="none" stroke="#63b8ff" d="M619.39,-211.39C610.89,-214.41 602.54,-218.07 595,-222.5 575.21,-234.12 578.4,-247.25 559,-259.5 550.25,-265.02 540.33,-269.62 530.42,-273.41"/>
<polygon fill="#63b8ff" stroke="#63b8ff" points="620.6,-214.67 629.02,-208.23 618.43,-208.02 620.6,-214.67"/>
</a>
</g>
</g>
<!-- Node22&#45;&gt;Node7 -->
<g id="edge24_Node000022_Node000007" class="edge">
<title>Node22&#45;&gt;Node7</title>
<g id="a_edge24_Node000022_Node000007"><a xlink:title=" ">
<path fill="none" stroke="#63b8ff" d="M619.48,-207.02C610.41,-210.69 601.88,-215.7 595,-222.5 552.97,-264.05 600.8,-308.72 559,-350.5 555.62,-353.88 551.8,-356.79 547.71,-359.3"/>
<polygon fill="#63b8ff" stroke="#63b8ff" points="620.81,-210.26 629.09,-203.65 618.5,-203.66 620.81,-210.26"/>
</a>
</g>
</g>
<!-- Node22&#45;&gt;Node9 -->
<g id="edge28_Node000022_Node000009" class="edge">
<title>Node22&#45;&gt;Node9</title>
<g id="a_edge28_Node000022_Node000009"><a xlink:title=" ">
<path fill="none" stroke="#63b8ff" d="M620.44,-214.79C600.75,-219.25 579.12,-223.61 559,-226.5 455.18,-241.4 329.26,-244.62 281.57,-245.31"/>
<polygon fill="#63b8ff" stroke="#63b8ff" points="621.29,-218.18 630.24,-212.52 619.71,-211.36 621.29,-218.18"/>
</a>
</g>
</g>
<!-- Node23 -->
<g id="Node000023" class="node">
<title>Node23</title>
<g id="a_Node000023"><a xlink:href="PhysicsTests_8cpp.html#adf77e4c378263518bc0385482a700b33" target="_top" xlink:title=" ">
<polygon fill="white" stroke="#666666" points="493,-180 452,-180 452,-161 493,-161 493,-180"/>
<text text-anchor="middle" x="472.5" y="-168" font-family="Helvetica,sans-Serif" font-size="10.00">TEST</text>
</a>
</g>
</g>
<!-- Node22&#45;&gt;Node23 -->
<g id="edge25_Node000022_Node000023" class="edge">
<title>Node22&#45;&gt;Node23</title>
<g id="a_edge25_Node000022_Node000023"><a xlink:title=" ">
<path fill="none" stroke="#63b8ff" d="M619.33,-188.86C575.45,-183.33 521.62,-176.56 493.22,-172.98"/>
<polygon fill="#63b8ff" stroke="#63b8ff" points="619.03,-192.35 629.39,-190.12 619.9,-185.4 619.03,-192.35"/>
</a>
</g>
</g>
<!-- Node24 -->
<g id="Node000024" class="node">
<title>Node24</title>
<g id="a_Node000024"><a xlink:href="PhysicsTests_8cpp.html#a6bd5358388f351202a6a8ed4c3367b32" target="_top" xlink:title=" ">
<polygon fill="white" stroke="#666666" points="493,-143 452,-143 452,-124 493,-124 493,-143"/>
<text text-anchor="middle" x="472.5" y="-131" font-family="Helvetica,sans-Serif" font-size="10.00">TEST</text>
</a>
</g>
</g>
<!-- Node22&#45;&gt;Node24 -->
<g id="edge26_Node000022_Node000024" class="edge">
<title>Node22&#45;&gt;Node24</title>
<g id="a_edge26_Node000022_Node000024"><a xlink:title=" ">
<path fill="none" stroke="#63b8ff" d="M640.43,-178.8C616.29,-169.76 586.35,-159.22 559,-151.5 536.66,-145.2 510.49,-140 493.04,-136.84"/>
<polygon fill="#63b8ff" stroke="#63b8ff" points="639.46,-182.18 650.05,-182.44 641.94,-175.63 639.46,-182.18"/>
</a>
</g>
</g>
<!-- Node25 -->
<g id="Node000025" class="node">
<title>Node25</title>
<g id="a_Node000025"><a xlink:href="PhysicsTests_8cpp.html#a0c08826252388d8a395a642f81cb5962" target="_top" xlink:title=" ">
<polygon fill="white" stroke="#666666" points="493,-217 452,-217 452,-198 493,-198 493,-217"/>
<text text-anchor="middle" x="472.5" y="-205" font-family="Helvetica,sans-Serif" font-size="10.00">TEST</text>
</a>
</g>
</g>
<!-- Node22&#45;&gt;Node25 -->
<g id="edge27_Node000022_Node000025" class="edge">
<title>Node22&#45;&gt;Node25</title>
<g id="a_edge27_Node000022_Node000025"><a xlink:title=" ">
<path fill="none" stroke="#63b8ff" d="M619.33,-200.7C575.45,-202.75 521.62,-205.26 493.22,-206.58"/>
<polygon fill="#63b8ff" stroke="#63b8ff" points="619.56,-204.19 629.39,-200.23 619.23,-197.2 619.56,-204.19"/>
</a>
</g>
</g>
<!-- Node26&#45;&gt;Node4 -->
<g id="edge31_Node000026_Node000004" class="edge">
<title>Node26&#45;&gt;Node4</title>
<g id="a_edge31_Node000026_Node000004"><a xlink:title=" ">
<path fill="none" stroke="#63b8ff" d="M1022.47,-235.73C1006.48,-239.28 989.75,-243 974.14,-246.47"/>
<polygon fill="#63b8ff" stroke="#63b8ff" points="1023.32,-239.13 1032.32,-233.54 1021.8,-232.29 1023.32,-239.13"/>
</a>
</g>
</g>
</g>
</svg>
