<?xml version="1.0" encoding="UTF-8" standalone="no"?>
<!DOCTYPE svg PUBLIC "-//W3C//DTD SVG 1.1//EN"
 "http://www.w3.org/Graphics/SVG/1.1/DTD/svg11.dtd">
<!-- Generated by graphviz version 2.43.0 (0)
 -->
<!-- Title: ScenePresets::Astronomy::createRealSolarSystem Pages: 1 -->
<!--zoomable 608 -->

<svg id="main" version="1.1" xmlns="http://www.w3.org/2000/svg" xmlns:xlink="http://www.w3.org/1999/xlink" xml:space="preserve" onload="init(evt)">
<style type="text/css"><![CDATA[
.node, .edge {opacity: 0.7;}
.node.selected, .edge.selected {opacity: 1;}
.edge:hover path { stroke: red; }
.edge:hover polygon { stroke: red; fill: red; }
]]></style>

<defs>
  <circle id="rim" cx="0" cy="0" r="7"/>
  <circle id="rim2" cx="0" cy="0" r="3.5"/>
  <g id="zoomPlus">
    <use xlink:href="#rim" fill="#404040"><set attributeName="fill" to="#808080" begin="zoomplus.mouseover" end="zoomplus.mouseout"/></use>
    <path d="M-4,0h8M0,-4v8" fill="none" stroke="white" stroke-width="1.5" pointer-events="none"/>
  </g>
  <g id="zoomMin">
    <use xlink:href="#rim" fill="#404040"><set attributeName="fill" to="#808080" begin="zoomminus.mouseover" end="zoomminus.mouseout"/></use>
    <path d="M-4,0h8" fill="none" stroke="white" stroke-width="1.5" pointer-events="none"/>
  </g>
  <g id="arrowUp" transform="translate(30 24)">
    <use xlink:href="#rim"/>
    <path pointer-events="none" fill="none" stroke="white" stroke-width="1.5" d="M0,-3.0v7 M-2.5,-0.5L0,-3.0L2.5,-0.5"/>
  </g>
  <g id="arrowRight" transform="rotate(90) translate(36 -43)">
    <use xlink:href="#rim"/>
    <path pointer-events="none" fill="none" stroke="white" stroke-width="1.5" d="M0,-3.0v7 M-2.5,-0.5L0,-3.0L2.5,-0.5"/>
  </g>
  <g id="arrowDown" transform="rotate(180) translate(-30 -48)">
    <use xlink:href="#rim"/>
    <path pointer-events="none" fill="none" stroke="white" stroke-width="1.5" d="M0,-3.0v7 M-2.5,-0.5L0,-3.0L2.5,-0.5"/>
  </g>
  <g id="arrowLeft" transform="rotate(270) translate(-36 17)">
    <use xlink:href="#rim"/>
    <path pointer-events="none" fill="none" stroke="white" stroke-width="1.5" d="M0,-3.0v7 M-2.5,-0.5L0,-3.0L2.5,-0.5"/>
  </g>
  <g id="resetDef">
    <use xlink:href="#rim2" fill="#404040"><set attributeName="fill" to="#808080" begin="reset.mouseover" end="reset.mouseout"/></use>
  </g>
</defs>
<script type="application/ecmascript">
var viewWidth = 1411;
var viewHeight = 608;
var sectionId = 'dynsection-0';
</script>
<script type="application/ecmascript" xlink:href="svg.min.js"/>
<svg id="graph" class="graph">
<g id="viewport">
<title>ScenePresets::Astronomy::createRealSolarSystem</title>
<!-- Node1 -->
<g id="Node000001" class="node">
<title>Node1</title>
<g id="a_Node000001"><a xlink:title=" ">
<polygon fill="#999999" stroke="#666666" points="141,-214 0,-214 0,-184 141,-184 141,-214"/>
<text text-anchor="start" x="8" y="-202" font-family="Helvetica,sans-Serif" font-size="10.00">ScenePresets::Astronomy</text>
<text text-anchor="middle" x="70.5" y="-191" font-family="Helvetica,sans-Serif" font-size="10.00">::createRealSolarSystem</text>
</a>
</g>
</g>
<!-- Node2 -->
<g id="Node000002" class="node">
<title>Node2</title>
<g id="a_Node000002"><a xlink:href="classSceneManager.html#a1daee617aa556b8af8a7202d3f8f28c8" target="_top" xlink:title=" ">
<polygon fill="white" stroke="#666666" points="356.5,-487.5 199.5,-487.5 199.5,-468.5 356.5,-468.5 356.5,-487.5"/>
<text text-anchor="middle" x="278" y="-475.5" font-family="Helvetica,sans-Serif" font-size="10.00">SceneManager::createObject</text>
</a>
</g>
</g>
<!-- Node1&#45;&gt;Node2 -->
<g id="edge1_Node000001_Node000002" class="edge">
<title>Node1&#45;&gt;Node2</title>
<g id="a_edge1_Node000001_Node000002"><a xlink:title=" ">
<path fill="none" stroke="#63b8ff" d="M78.44,-214.02C93.72,-246.3 132.49,-324.01 177,-381 201.58,-412.47 236.04,-443.69 257.42,-461.9"/>
<polygon fill="#63b8ff" stroke="#63b8ff" points="255.28,-464.67 265.19,-468.43 259.79,-459.31 255.28,-464.67"/>
</a>
</g>
</g>
<!-- Node9 -->
<g id="Node000009" class="node">
<title>Node9</title>
<g id="a_Node000009"><a xlink:href="classSceneManager.html#aad894e90cf7ad353aab707f966c9711d" target="_top" xlink:title=" ">
<polygon fill="white" stroke="#666666" points="598.5,-393.5 428.5,-393.5 428.5,-374.5 598.5,-374.5 598.5,-393.5"/>
<text text-anchor="middle" x="513.5" y="-381.5" font-family="Helvetica,sans-Serif" font-size="10.00">SceneManager::setObjectName</text>
</a>
</g>
</g>
<!-- Node1&#45;&gt;Node9 -->
<g id="edge34_Node000001_Node000009" class="edge">
<title>Node1&#45;&gt;Node9</title>
<g id="a_edge34_Node000001_Node000009"><a xlink:title=" ">
<path fill="none" stroke="#63b8ff" d="M81.86,-214.22C98.84,-237.93 134.94,-283.4 177,-307 251.76,-348.95 348.08,-368.06 418.32,-376.76"/>
<polygon fill="#63b8ff" stroke="#63b8ff" points="418.14,-380.27 428.49,-377.97 418.97,-373.32 418.14,-380.27"/>
</a>
</g>
</g>
<!-- Node14 -->
<g id="Node000014" class="node">
<title>Node14</title>
<g id="a_Node000014"><a xlink:href="classSceneManager.html#a2c5088464b489b31f23e0791e2b9c0b0" target="_top" xlink:title=" ">
<polygon fill="white" stroke="#666666" points="354,-264.5 202,-264.5 202,-245.5 354,-245.5 354,-264.5"/>
<text text-anchor="middle" x="278" y="-252.5" font-family="Helvetica,sans-Serif" font-size="10.00">SceneManager::focusObject</text>
</a>
</g>
</g>
<!-- Node1&#45;&gt;Node14 -->
<g id="edge13_Node000001_Node000014" class="edge">
<title>Node1&#45;&gt;Node14</title>
<g id="a_edge13_Node000001_Node000014"><a xlink:title=" ">
<path fill="none" stroke="#63b8ff" d="M108.61,-214.09C128.61,-221.79 153.87,-230.8 177,-237 185.88,-239.38 195.3,-241.54 204.66,-243.47"/>
<polygon fill="#63b8ff" stroke="#63b8ff" points="204.27,-246.96 214.76,-245.47 205.63,-240.09 204.27,-246.96"/>
</a>
</g>
</g>
<!-- Node16 -->
<g id="Node000016" class="node">
<title>Node16</title>
<g id="a_Node000016"><a xlink:href="classSceneObject.html#a3d1aa613dd4f4ee6947754a355a48cc9" target="_top" xlink:title=" ">
<polygon fill="white" stroke="#666666" points="802.5,-301.5 664.5,-301.5 664.5,-282.5 802.5,-282.5 802.5,-301.5"/>
<text text-anchor="middle" x="733.5" y="-289.5" font-family="Helvetica,sans-Serif" font-size="10.00">SceneObject::getPosition</text>
</a>
</g>
</g>
<!-- Node1&#45;&gt;Node16 -->
<g id="edge30_Node000001_Node000016" class="edge">
<title>Node1&#45;&gt;Node16</title>
<g id="a_edge30_Node000001_Node000016"><a xlink:title=" ">
<path fill="none" stroke="#63b8ff" d="M86.63,-214.25C105.75,-232.38 140.59,-261.72 177,-274 262.99,-302.99 522.52,-299.1 654.14,-294.99"/>
<polygon fill="#63b8ff" stroke="#63b8ff" points="654.28,-298.49 664.16,-294.67 654.06,-291.49 654.28,-298.49"/>
</a>
</g>
</g>
<!-- Node27 -->
<g id="Node000027" class="node">
<title>Node27</title>
<g id="a_Node000027"><a xlink:href="classSceneObject.html#ab3595ced6ccce80d1e864bbf28e1988a" target="_top" xlink:title=" ">
<polygon fill="white" stroke="#666666" points="358.5,-227.5 197.5,-227.5 197.5,-208.5 358.5,-208.5 358.5,-227.5"/>
<text text-anchor="middle" x="278" y="-215.5" font-family="Helvetica,sans-Serif" font-size="10.00">SceneObject::getPhysicsBody</text>
</a>
</g>
</g>
<!-- Node1&#45;&gt;Node27 -->
<g id="edge29_Node000001_Node000027" class="edge">
<title>Node1&#45;&gt;Node27</title>
<g id="a_edge29_Node000001_Node000027"><a xlink:title=" ">
<path fill="none" stroke="#63b8ff" d="M141.07,-205.43C155.88,-206.8 171.71,-208.27 187.15,-209.69"/>
<polygon fill="#63b8ff" stroke="#63b8ff" points="186.95,-213.19 197.23,-210.62 187.59,-206.22 186.95,-213.19"/>
</a>
</g>
</g>
<!-- Node28 -->
<g id="Node000028" class="node">
<title>Node28</title>
<g id="a_Node000028"><a xlink:href="classResourceManager.html#a3899655c6a1e40089930df4fbc9f1be9" target="_top" xlink:title=" ">
<polygon fill="white" stroke="#666666" points="358,-190.5 198,-190.5 198,-171.5 358,-171.5 358,-190.5"/>
<text text-anchor="middle" x="278" y="-178.5" font-family="Helvetica,sans-Serif" font-size="10.00">ResourceManager::getShader</text>
</a>
</g>
</g>
<!-- Node1&#45;&gt;Node28 -->
<g id="edge31_Node000001_Node000028" class="edge">
<title>Node1&#45;&gt;Node28</title>
<g id="a_edge31_Node000001_Node000028"><a xlink:title=" ">
<path fill="none" stroke="#63b8ff" d="M141.07,-192.91C156.07,-191.59 172.12,-190.19 187.75,-188.82"/>
<polygon fill="#63b8ff" stroke="#63b8ff" points="188.29,-192.28 197.94,-187.92 187.68,-185.31 188.29,-192.28"/>
</a>
</g>
</g>
<!-- Node29 -->
<g id="Node000029" class="node">
<title>Node29</title>
<g id="a_Node000029"><a xlink:href="classPhysics_1_1PhysicsBody.html#a4bbf491e193cf2e29954c38a92865e29" target="_top" xlink:title=" ">
<polygon fill="white" stroke="#666666" points="338.5,-153 217.5,-153 217.5,-123 338.5,-123 338.5,-153"/>
<text text-anchor="start" x="225.5" y="-141" font-family="Helvetica,sans-Serif" font-size="10.00">Physics::PhysicsBody</text>
<text text-anchor="middle" x="278" y="-130" font-family="Helvetica,sans-Serif" font-size="10.00">::getVelocity</text>
</a>
</g>
</g>
<!-- Node1&#45;&gt;Node29 -->
<g id="edge32_Node000001_Node000029" class="edge">
<title>Node1&#45;&gt;Node29</title>
<g id="a_edge32_Node000001_Node000029"><a xlink:title=" ">
<path fill="none" stroke="#63b8ff" d="M112.83,-184C132.2,-177.2 155.65,-169.3 177,-163 186.82,-160.1 197.25,-157.25 207.52,-154.57"/>
<polygon fill="#63b8ff" stroke="#63b8ff" points="208.48,-157.94 217.29,-152.06 206.73,-151.16 208.48,-157.94"/>
</a>
</g>
</g>
<!-- Node30 -->
<g id="Node000030" class="node">
<title>Node30</title>
<g id="a_Node000030"><a xlink:href="classSceneManager.html#a8dafcb538b1cfbf727b82644ad5815ad" target="_top" xlink:title=" ">
<polygon fill="white" stroke="#666666" points="379,-104.5 177,-104.5 177,-85.5 379,-85.5 379,-104.5"/>
<text text-anchor="middle" x="278" y="-92.5" font-family="Helvetica,sans-Serif" font-size="10.00">SceneManager::setGlobalAcceleration</text>
</a>
</g>
</g>
<!-- Node1&#45;&gt;Node30 -->
<g id="edge33_Node000001_Node000030" class="edge">
<title>Node1&#45;&gt;Node30</title>
<g id="a_edge33_Node000001_Node000030"><a xlink:title=" ">
<path fill="none" stroke="#63b8ff" d="M85.6,-183.71C104.46,-164.27 139.85,-131.17 177,-114 182.4,-111.51 188.1,-109.34 193.94,-107.46"/>
<polygon fill="#63b8ff" stroke="#63b8ff" points="195.24,-110.72 203.86,-104.55 193.28,-104 195.24,-110.72"/>
</a>
</g>
</g>
<!-- Node31 -->
<g id="Node000031" class="node">
<title>Node31</title>
<g id="a_Node000031"><a xlink:href="classSceneManager.html#a64f4064d9201d062a24f750763c1f703" target="_top" xlink:title=" ">
<polygon fill="white" stroke="#666666" points="357,-67.5 199,-67.5 199,-48.5 357,-48.5 357,-67.5"/>
<text text-anchor="middle" x="278" y="-55.5" font-family="Helvetica,sans-Serif" font-size="10.00">SceneManager::setSimSpeed</text>
</a>
</g>
</g>
<!-- Node1&#45;&gt;Node31 -->
<g id="edge35_Node000001_Node000031" class="edge">
<title>Node1&#45;&gt;Node31</title>
<g id="a_edge35_Node000001_Node000031"><a xlink:title=" ">
<path fill="none" stroke="#63b8ff" d="M79.97,-183.73C95.49,-157.33 131.15,-103.42 177,-77 180.94,-74.73 185.1,-72.72 189.39,-70.95"/>
<polygon fill="#63b8ff" stroke="#63b8ff" points="190.78,-74.17 198.97,-67.44 188.37,-67.6 190.78,-74.17"/>
</a>
</g>
</g>
<!-- Node33 -->
<g id="Node000033" class="node">
<title>Node33</title>
<g id="a_Node000033"><a xlink:href="classPhysics_1_1PhysicsBody.html#ad76815a1ef3d53f6c2901afa5277554f" target="_top" xlink:title=" ">
<polygon fill="white" stroke="#666666" points="338.5,-30 217.5,-30 217.5,0 338.5,0 338.5,-30"/>
<text text-anchor="start" x="225.5" y="-18" font-family="Helvetica,sans-Serif" font-size="10.00">Physics::PhysicsBody</text>
<text text-anchor="middle" x="278" y="-7" font-family="Helvetica,sans-Serif" font-size="10.00">::setThermalProperty</text>
</a>
</g>
</g>
<!-- Node1&#45;&gt;Node33 -->
<g id="edge37_Node000001_Node000033" class="edge">
<title>Node1&#45;&gt;Node33</title>
<g id="a_edge37_Node000001_Node000033"><a xlink:title=" ">
<path fill="none" stroke="#63b8ff" d="M76.99,-183.91C89.45,-151.86 123.07,-76.83 177,-39 186.06,-32.64 196.61,-27.96 207.38,-24.5"/>
<polygon fill="#63b8ff" stroke="#63b8ff" points="208.64,-27.78 217.3,-21.67 206.72,-21.05 208.64,-27.78"/>
</a>
</g>
</g>
<!-- Node3 -->
<g id="Node000003" class="node">
<title>Node3</title>
<g id="a_Node000003"><a xlink:href="classSceneManager.html#ad0d1661e5869720d7a07b1912d75318d" target="_top" xlink:title=" ">
<polygon fill="white" stroke="#666666" points="593,-562.5 434,-562.5 434,-543.5 593,-543.5 593,-562.5"/>
<text text-anchor="middle" x="513.5" y="-550.5" font-family="Helvetica,sans-Serif" font-size="10.00">SceneManager::addDrawable</text>
</a>
</g>
</g>
<!-- Node2&#45;&gt;Node3 -->
<g id="edge2_Node000002_Node000003" class="edge">
<title>Node2&#45;&gt;Node3</title>
<g id="a_edge2_Node000002_Node000003"><a xlink:title=" ">
<path fill="none" stroke="#63b8ff" d="M298.34,-487.66C324.28,-500.26 372.07,-522.2 415,-535 423,-537.39 431.47,-539.51 439.95,-541.4"/>
<polygon fill="#63b8ff" stroke="#63b8ff" points="439.36,-544.85 449.87,-543.49 440.81,-538 439.36,-544.85"/>
</a>
</g>
</g>
<!-- Node5 -->
<g id="Node000005" class="node">
<title>Node5</title>
<g id="a_Node000005"><a xlink:href="classSceneManager.html#a31d525542db0b239ba61dd36a3d92d43" target="_top" xlink:title=" ">
<polygon fill="white" stroke="#666666" points="590,-525.5 437,-525.5 437,-506.5 590,-506.5 590,-525.5"/>
<text text-anchor="middle" x="513.5" y="-513.5" font-family="Helvetica,sans-Serif" font-size="10.00">SceneManager::addPickable</text>
</a>
</g>
</g>
<!-- Node2&#45;&gt;Node5 -->
<g id="edge4_Node000002_Node000005" class="edge">
<title>Node2&#45;&gt;Node5</title>
<g id="a_edge4_Node000002_Node000005"><a xlink:title=" ">
<path fill="none" stroke="#63b8ff" d="M337.62,-487.54C369.82,-492.78 409.94,-499.31 443.62,-504.79"/>
<polygon fill="#63b8ff" stroke="#63b8ff" points="443.42,-508.3 453.86,-506.46 444.55,-501.4 443.42,-508.3"/>
</a>
</g>
</g>
<!-- Node6 -->
<g id="Node000006" class="node">
<title>Node6</title>
<g id="a_Node000006"><a xlink:href="classSceneObject.html#ad77f12eb793b32da2ef40f0042cb1de8" target="_top" xlink:title="Gets the unique identifier for this object.">
<polygon fill="white" stroke="#666666" points="1006,-371.5 865,-371.5 865,-352.5 1006,-352.5 1006,-371.5"/>
<text text-anchor="middle" x="935.5" y="-359.5" font-family="Helvetica,sans-Serif" font-size="10.00">SceneObject::getObjectID</text>
</a>
</g>
</g>
<!-- Node2&#45;&gt;Node6 -->
<g id="edge5_Node000002_Node000006" class="edge">
<title>Node2&#45;&gt;Node6</title>
<g id="a_edge5_Node000002_Node000006"><a xlink:title=" ">
<path fill="none" stroke="#63b8ff" d="M356.67,-481.42C485.39,-486.07 736.91,-490.55 819,-459 862.13,-442.43 900.68,-402.61 920.47,-379.47"/>
<polygon fill="#63b8ff" stroke="#63b8ff" points="923.4,-381.43 927.11,-371.51 918.02,-376.95 923.4,-381.43"/>
</a>
</g>
</g>
<!-- Node7 -->
<g id="Node000007" class="node">
<title>Node7</title>
<g id="a_Node000007"><a xlink:href="classSceneManager.html#ab6a7ecbff438f2dbee8a0f31795456f9" target="_top" xlink:title=" ">
<polygon fill="white" stroke="#666666" points="606,-449.5 421,-449.5 421,-430.5 606,-430.5 606,-449.5"/>
<text text-anchor="middle" x="513.5" y="-437.5" font-family="Helvetica,sans-Serif" font-size="10.00">SceneManager::makeUniqueName</text>
</a>
</g>
</g>
<!-- Node2&#45;&gt;Node7 -->
<g id="edge6_Node000002_Node000007" class="edge">
<title>Node2&#45;&gt;Node7</title>
<g id="a_edge6_Node000002_Node000007"><a xlink:title=" ">
<path fill="none" stroke="#63b8ff" d="M337.62,-468.46C369.82,-463.22 409.94,-456.69 443.62,-451.21"/>
<polygon fill="#63b8ff" stroke="#63b8ff" points="444.55,-454.6 453.86,-449.54 443.42,-447.7 444.55,-454.6"/>
</a>
</g>
</g>
<!-- Node8 -->
<g id="Node000008" class="node">
<title>Node8</title>
<g id="a_Node000008"><a xlink:href="classSceneManager.html#a76592c383a85fda664a79fa155ead19e" target="_top" xlink:title=" ">
<polygon fill="white" stroke="#666666" points="591,-599.5 436,-599.5 436,-580.5 591,-580.5 591,-599.5"/>
<text text-anchor="middle" x="513.5" y="-587.5" font-family="Helvetica,sans-Serif" font-size="10.00">SceneManager::objectAdded</text>
</a>
</g>
</g>
<!-- Node2&#45;&gt;Node8 -->
<g id="edge7_Node000002_Node000008" class="edge">
<title>Node2&#45;&gt;Node8</title>
<g id="a_edge7_Node000002_Node000008"><a xlink:title=" ">
<path fill="none" stroke="#63b8ff" d="M289.35,-487.51C310.93,-506.78 363.05,-550.42 415,-572 420.17,-574.15 425.59,-576.04 431.13,-577.7"/>
<polygon fill="#63b8ff" stroke="#63b8ff" points="430.61,-581.19 441.18,-580.47 432.47,-574.44 430.61,-581.19"/>
</a>
</g>
</g>
<!-- Node2&#45;&gt;Node9 -->
<g id="edge8_Node000002_Node000009" class="edge">
<title>Node2&#45;&gt;Node9</title>
<g id="a_edge8_Node000002_Node000009"><a xlink:title=" ">
<path fill="none" stroke="#63b8ff" d="M302.05,-468.35C329.05,-457.09 375.18,-437.96 415,-422 435.87,-413.64 459.35,-404.48 478.03,-397.25"/>
<polygon fill="#63b8ff" stroke="#63b8ff" points="479.54,-400.42 487.6,-393.55 477.01,-393.89 479.54,-400.42"/>
</a>
</g>
</g>
<!-- Node4 -->
<g id="Node000004" class="node">
<title>Node4</title>
<g id="a_Node000004"><a xlink:href="classScene.html#aa2773ce73d9158e1e3a9c97d26a7e727" target="_top" xlink:title=" ">
<polygon fill="white" stroke="#666666" points="791.5,-562.5 675.5,-562.5 675.5,-543.5 791.5,-543.5 791.5,-562.5"/>
<text text-anchor="middle" x="733.5" y="-550.5" font-family="Helvetica,sans-Serif" font-size="10.00">Scene::addDrawable</text>
</a>
</g>
</g>
<!-- Node3&#45;&gt;Node4 -->
<g id="edge3_Node000003_Node000004" class="edge">
<title>Node3&#45;&gt;Node4</title>
<g id="a_edge3_Node000003_Node000004"><a xlink:title=" ">
<path fill="none" stroke="#63b8ff" d="M593.2,-553C616.79,-553 642.43,-553 665.21,-553"/>
<polygon fill="#63b8ff" stroke="#63b8ff" points="665.45,-556.5 675.45,-553 665.45,-549.5 665.45,-556.5"/>
</a>
</g>
</g>
<!-- Node10 -->
<g id="Node000010" class="node">
<title>Node10</title>
<g id="a_Node000010"><a xlink:href="classSceneObject.html#abebc043e3253d66da477f862a950775d" target="_top" xlink:title=" ">
<polygon fill="white" stroke="#666666" points="797.5,-338.5 669.5,-338.5 669.5,-319.5 797.5,-319.5 797.5,-338.5"/>
<text text-anchor="middle" x="733.5" y="-326.5" font-family="Helvetica,sans-Serif" font-size="10.00">SceneObject::getName</text>
</a>
</g>
</g>
<!-- Node9&#45;&gt;Node10 -->
<g id="edge9_Node000009_Node000010" class="edge">
<title>Node9&#45;&gt;Node10</title>
<g id="a_edge9_Node000009_Node000010"><a xlink:title=" ">
<path fill="none" stroke="#63b8ff" d="M548.42,-374.43C575.34,-366.94 613.98,-356.41 648,-348 657.85,-345.56 668.38,-343.09 678.55,-340.77"/>
<polygon fill="#63b8ff" stroke="#63b8ff" points="679.58,-344.13 688.56,-338.51 678.03,-337.3 679.58,-344.13"/>
</a>
</g>
</g>
<!-- Node11 -->
<g id="Node000011" class="node">
<title>Node11</title>
<g id="a_Node000011"><a xlink:href="classSceneManager.html#a624cd344feba3357d2ec95bab7229a6f" target="_top" xlink:title=" ">
<polygon fill="white" stroke="#666666" points="817,-449.5 650,-449.5 650,-430.5 817,-430.5 817,-449.5"/>
<text text-anchor="middle" x="733.5" y="-437.5" font-family="Helvetica,sans-Serif" font-size="10.00">SceneManager::isNameUnique</text>
</a>
</g>
</g>
<!-- Node9&#45;&gt;Node11 -->
<g id="edge10_Node000009_Node000011" class="edge">
<title>Node9&#45;&gt;Node11</title>
<g id="a_edge10_Node000009_Node000011"><a xlink:title=" ">
<path fill="none" stroke="#63b8ff" d="M545.63,-393.5C572.59,-401.58 612.69,-413.22 648,-422 656.77,-424.18 666.08,-426.33 675.21,-428.34"/>
<polygon fill="#63b8ff" stroke="#63b8ff" points="674.48,-431.77 685,-430.47 675.97,-424.93 674.48,-431.77"/>
</a>
</g>
</g>
<!-- Node12 -->
<g id="Node000012" class="node">
<title>Node12</title>
<g id="a_Node000012"><a xlink:href="classSceneManager.html#a76dba0a09f8b2a1dc376236f904a9c3a" target="_top" xlink:title=" ">
<polygon fill="white" stroke="#666666" points="819,-412.5 648,-412.5 648,-393.5 819,-393.5 819,-412.5"/>
<text text-anchor="middle" x="733.5" y="-400.5" font-family="Helvetica,sans-Serif" font-size="10.00">SceneManager::objectRenamed</text>
</a>
</g>
</g>
<!-- Node9&#45;&gt;Node12 -->
<g id="edge11_Node000009_Node000012" class="edge">
<title>Node9&#45;&gt;Node12</title>
<g id="a_edge11_Node000009_Node000012"><a xlink:title=" ">
<path fill="none" stroke="#63b8ff" d="M598.78,-391.35C611.45,-392.45 624.59,-393.6 637.47,-394.72"/>
<polygon fill="#63b8ff" stroke="#63b8ff" points="637.45,-398.23 647.72,-395.61 638.06,-391.26 637.45,-398.23"/>
</a>
</g>
</g>
<!-- Node13 -->
<g id="Node000013" class="node">
<title>Node13</title>
<g id="a_Node000013"><a xlink:href="classSceneObject.html#ad8ac9406b35bee3cd4fad75db013d9c4" target="_top" xlink:title=" ">
<polygon fill="white" stroke="#666666" points="797.5,-375.5 669.5,-375.5 669.5,-356.5 797.5,-356.5 797.5,-375.5"/>
<text text-anchor="middle" x="733.5" y="-363.5" font-family="Helvetica,sans-Serif" font-size="10.00">SceneObject::setName</text>
</a>
</g>
</g>
<!-- Node9&#45;&gt;Node13 -->
<g id="edge12_Node000009_Node000013" class="edge">
<title>Node9&#45;&gt;Node13</title>
<g id="a_edge12_Node000009_Node000013"><a xlink:title=" ">
<path fill="none" stroke="#63b8ff" d="M598.78,-377.04C618.78,-375.39 639.95,-373.64 659.4,-372.04"/>
<polygon fill="#63b8ff" stroke="#63b8ff" points="659.73,-375.52 669.4,-371.21 659.15,-368.54 659.73,-375.52"/>
</a>
</g>
</g>
<!-- Node15 -->
<g id="Node000015" class="node">
<title>Node15</title>
<g id="a_Node000015"><a xlink:href="classCamera.html#abcac84fa9ef337ffaa121fff4f9c52f4" target="_top" xlink:title=" ">
<polygon fill="white" stroke="#666666" points="564,-264.5 463,-264.5 463,-245.5 564,-245.5 564,-264.5"/>
<text text-anchor="middle" x="513.5" y="-252.5" font-family="Helvetica,sans-Serif" font-size="10.00">Camera::focusOn</text>
</a>
</g>
</g>
<!-- Node14&#45;&gt;Node15 -->
<g id="edge14_Node000014_Node000015" class="edge">
<title>Node14&#45;&gt;Node15</title>
<g id="a_edge14_Node000014_Node000015"><a xlink:title=" ">
<path fill="none" stroke="#63b8ff" d="M354.17,-255C386.01,-255 422.6,-255 452.58,-255"/>
<polygon fill="#63b8ff" stroke="#63b8ff" points="452.88,-258.5 462.88,-255 452.88,-251.5 452.88,-258.5"/>
</a>
</g>
</g>
<!-- Node18 -->
<g id="Node000018" class="node">
<title>Node18</title>
<g id="a_Node000018"><a xlink:href="classScene.html#a8ec1e638529f69f716e791ba3ac4d2f7" target="_top" xlink:title=" ">
<polygon fill="white" stroke="#666666" points="566.5,-190.5 460.5,-190.5 460.5,-171.5 566.5,-171.5 566.5,-190.5"/>
<text text-anchor="middle" x="513.5" y="-178.5" font-family="Helvetica,sans-Serif" font-size="10.00">Scene::getCamera</text>
</a>
</g>
</g>
<!-- Node14&#45;&gt;Node18 -->
<g id="edge17_Node000014_Node000018" class="edge">
<title>Node14&#45;&gt;Node18</title>
<g id="a_edge17_Node000014_Node000018"><a xlink:title=" ">
<path fill="none" stroke="#63b8ff" d="M354.18,-246.76C362.82,-244.29 371.29,-241.1 379,-237 399.26,-226.23 394.82,-210.91 415,-200 425.78,-194.17 438.1,-190.11 450.26,-187.29"/>
<polygon fill="#63b8ff" stroke="#63b8ff" points="451.32,-190.65 460.4,-185.2 449.9,-183.79 451.32,-190.65"/>
</a>
</g>
</g>
<!-- Node19 -->
<g id="Node000019" class="node">
<title>Node19</title>
<g id="a_Node000019"><a xlink:href="classSceneManager.html#a63d3a08f13b314ed1d871f598f26534d" target="_top" xlink:title=" ">
<polygon fill="white" stroke="#666666" points="591,-227.5 436,-227.5 436,-208.5 591,-208.5 591,-227.5"/>
<text text-anchor="middle" x="513.5" y="-215.5" font-family="Helvetica,sans-Serif" font-size="10.00">SceneManager::selectObject</text>
</a>
</g>
</g>
<!-- Node14&#45;&gt;Node19 -->
<g id="edge18_Node000014_Node000019" class="edge">
<title>Node14&#45;&gt;Node19</title>
<g id="a_edge18_Node000014_Node000019"><a xlink:title=" ">
<path fill="none" stroke="#63b8ff" d="M339.13,-245.47C370.6,-240.48 409.32,-234.35 442.17,-229.14"/>
<polygon fill="#63b8ff" stroke="#63b8ff" points="442.84,-232.58 452.17,-227.56 441.74,-225.67 442.84,-232.58"/>
</a>
</g>
</g>
<!-- Node15&#45;&gt;Node16 -->
<g id="edge15_Node000015_Node000016" class="edge">
<title>Node15&#45;&gt;Node16</title>
<g id="a_edge15_Node000015_Node000016"><a xlink:title=" ">
<path fill="none" stroke="#63b8ff" d="M564.24,-263.44C594.53,-268.58 633.6,-275.21 666.46,-280.79"/>
<polygon fill="#63b8ff" stroke="#63b8ff" points="666,-284.26 676.45,-282.49 667.17,-277.36 666,-284.26"/>
</a>
</g>
</g>
<!-- Node17 -->
<g id="Node000017" class="node">
<title>Node17</title>
<g id="a_Node000017"><a xlink:href="classSceneObject.html#a43bf76c6717d9210f576852aee2297c7" target="_top" xlink:title=" ">
<polygon fill="white" stroke="#666666" points="796,-264.5 671,-264.5 671,-245.5 796,-245.5 796,-264.5"/>
<text text-anchor="middle" x="733.5" y="-252.5" font-family="Helvetica,sans-Serif" font-size="10.00">SceneObject::getScale</text>
</a>
</g>
</g>
<!-- Node15&#45;&gt;Node17 -->
<g id="edge16_Node000015_Node000017" class="edge">
<title>Node15&#45;&gt;Node17</title>
<g id="a_edge16_Node000015_Node000017"><a xlink:title=" ">
<path fill="none" stroke="#63b8ff" d="M564.24,-255C592.82,-255 629.2,-255 660.82,-255"/>
<polygon fill="#63b8ff" stroke="#63b8ff" points="660.9,-258.5 670.9,-255 660.9,-251.5 660.9,-258.5"/>
</a>
</g>
</g>
<!-- Node20 -->
<g id="Node000020" class="node">
<title>Node20</title>
<g id="a_Node000020"><a xlink:href="classSceneManager.html#a25bec2896954b4f0c3bed8ef736993d3" target="_top" xlink:title=" ">
<polygon fill="white" stroke="#666666" points="1014.5,-218.5 856.5,-218.5 856.5,-199.5 1014.5,-199.5 1014.5,-218.5"/>
<text text-anchor="middle" x="935.5" y="-206.5" font-family="Helvetica,sans-Serif" font-size="10.00">SceneManager::selectedItem</text>
</a>
</g>
</g>
<!-- Node19&#45;&gt;Node20 -->
<g id="edge19_Node000019_Node000020" class="edge">
<title>Node19&#45;&gt;Node20</title>
<g id="a_edge19_Node000019_Node000020"><a xlink:title=" ">
<path fill="none" stroke="#63b8ff" d="M572.48,-208.46C595.87,-205.06 623.15,-201.67 648,-200 723.83,-194.91 743.06,-197.05 819,-200 827.76,-200.34 836.89,-200.83 846,-201.4"/>
<polygon fill="#63b8ff" stroke="#63b8ff" points="846.06,-204.91 856.27,-202.08 846.52,-197.92 846.06,-204.91"/>
</a>
</g>
</g>
<!-- Node21 -->
<g id="Node000021" class="node">
<title>Node21</title>
<g id="a_Node000021"><a xlink:href="classSceneManager.html#a490d6eddd6ef23ffd8f283582a2d7d88" target="_top" xlink:title=" ">
<polygon fill="white" stroke="#666666" points="811.5,-151.5 655.5,-151.5 655.5,-132.5 811.5,-132.5 811.5,-151.5"/>
<text text-anchor="middle" x="733.5" y="-139.5" font-family="Helvetica,sans-Serif" font-size="10.00">SceneManager::setGizmoFor</text>
</a>
</g>
</g>
<!-- Node19&#45;&gt;Node21 -->
<g id="edge20_Node000019_Node000021" class="edge">
<title>Node19&#45;&gt;Node21</title>
<g id="a_edge20_Node000019_Node000021"><a xlink:title=" ">
<path fill="none" stroke="#63b8ff" d="M590.45,-208.47C597.93,-206.21 605.25,-203.43 612,-200 631.62,-190.04 628.87,-176.87 648,-166 655.98,-161.46 664.89,-157.73 673.84,-154.68"/>
<polygon fill="#63b8ff" stroke="#63b8ff" points="675.04,-157.97 683.52,-151.63 672.93,-151.29 675.04,-157.97"/>
</a>
</g>
</g>
<!-- Node26 -->
<g id="Node000026" class="node">
<title>Node26</title>
<g id="a_Node000026"><a xlink:href="classSceneManager.html#af40d0ff3e76f89bbf5504f1694814179" target="_top" xlink:title=" ">
<polygon fill="white" stroke="#666666" points="811,-227.5 656,-227.5 656,-208.5 811,-208.5 811,-227.5"/>
<text text-anchor="middle" x="733.5" y="-215.5" font-family="Helvetica,sans-Serif" font-size="10.00">SceneManager::setSelectFor</text>
</a>
</g>
</g>
<!-- Node19&#45;&gt;Node26 -->
<g id="edge25_Node000019_Node000026" class="edge">
<title>Node19&#45;&gt;Node26</title>
<g id="a_edge25_Node000019_Node000026"><a xlink:title=" ">
<path fill="none" stroke="#63b8ff" d="M591.05,-218C608.67,-218 627.53,-218 645.56,-218"/>
<polygon fill="#63b8ff" stroke="#63b8ff" points="645.76,-221.5 655.76,-218 645.76,-214.5 645.76,-221.5"/>
</a>
</g>
</g>
<!-- Node22 -->
<g id="Node000022" class="node">
<title>Node22</title>
<g id="a_Node000022"><a xlink:href="classSceneManager.html#a99992b526976863d1dab7dc88cc6ec2a" target="_top" xlink:title=" ">
<polygon fill="white" stroke="#666666" points="1016,-173 855,-173 855,-143 1016,-143 1016,-173"/>
<text text-anchor="start" x="863" y="-161" font-family="Helvetica,sans-Serif" font-size="10.00">SceneManager::deleteCurrent</text>
<text text-anchor="middle" x="935.5" y="-150" font-family="Helvetica,sans-Serif" font-size="10.00">Gizmo</text>
</a>
</g>
</g>
<!-- Node21&#45;&gt;Node22 -->
<g id="edge21_Node000021_Node000022" class="edge">
<title>Node21&#45;&gt;Node22</title>
<g id="a_edge21_Node000021_Node000022"><a xlink:title=" ">
<path fill="none" stroke="#63b8ff" d="M811.54,-148.16C822.41,-149.03 833.66,-149.93 844.74,-150.82"/>
<polygon fill="#63b8ff" stroke="#63b8ff" points="844.61,-154.32 854.85,-151.63 845.16,-147.34 844.61,-154.32"/>
</a>
</g>
</g>
<!-- Node23 -->
<g id="Node000023" class="node">
<title>Node23</title>
<g id="a_Node000023"><a xlink:href="classSceneManager.html#ab7c34393bb10361069b0ea73ec2797f8" target="_top" xlink:title=" ">
<polygon fill="white" stroke="#666666" points="1231,-186.5 1052,-186.5 1052,-167.5 1231,-167.5 1231,-186.5"/>
<text text-anchor="middle" x="1141.5" y="-174.5" font-family="Helvetica,sans-Serif" font-size="10.00">SceneManager::removeDrawable</text>
</a>
</g>
</g>
<!-- Node22&#45;&gt;Node23 -->
<g id="edge22_Node000022_Node000023" class="edge">
<title>Node22&#45;&gt;Node23</title>
<g id="a_edge22_Node000022_Node000023"><a xlink:title=" ">
<path fill="none" stroke="#63b8ff" d="M1016.25,-165.43C1024.6,-166.21 1033.16,-167 1041.7,-167.8"/>
<polygon fill="#63b8ff" stroke="#63b8ff" points="1041.4,-171.29 1051.69,-168.73 1042.05,-164.32 1041.4,-171.29"/>
</a>
</g>
</g>
<!-- Node25 -->
<g id="Node000025" class="node">
<title>Node25</title>
<g id="a_Node000025"><a xlink:href="classSceneManager.html#a1c647e38474ee02d5dd8510bc2313c38" target="_top" xlink:title=" ">
<polygon fill="white" stroke="#666666" points="1228,-149.5 1055,-149.5 1055,-130.5 1228,-130.5 1228,-149.5"/>
<text text-anchor="middle" x="1141.5" y="-137.5" font-family="Helvetica,sans-Serif" font-size="10.00">SceneManager::removePickable</text>
</a>
</g>
</g>
<!-- Node22&#45;&gt;Node25 -->
<g id="edge24_Node000022_Node000025" class="edge">
<title>Node22&#45;&gt;Node25</title>
<g id="a_edge24_Node000022_Node000025"><a xlink:title=" ">
<path fill="none" stroke="#63b8ff" d="M1016.25,-150.96C1025.52,-150.15 1035.05,-149.3 1044.52,-148.47"/>
<polygon fill="#63b8ff" stroke="#63b8ff" points="1045.09,-151.93 1054.74,-147.57 1044.47,-144.96 1045.09,-151.93"/>
</a>
</g>
</g>
<!-- Node24 -->
<g id="Node000024" class="node">
<title>Node24</title>
<g id="a_Node000024"><a xlink:href="classScene.html#a398bf0981ca0b3f5ade648b1d95513cc" target="_top" xlink:title=" ">
<polygon fill="white" stroke="#666666" points="1403,-186.5 1267,-186.5 1267,-167.5 1403,-167.5 1403,-186.5"/>
<text text-anchor="middle" x="1335" y="-174.5" font-family="Helvetica,sans-Serif" font-size="10.00">Scene::removeDrawable</text>
</a>
</g>
</g>
<!-- Node23&#45;&gt;Node24 -->
<g id="edge23_Node000023_Node000024" class="edge">
<title>Node23&#45;&gt;Node24</title>
<g id="a_edge23_Node000023_Node000024"><a xlink:title=" ">
<path fill="none" stroke="#63b8ff" d="M1231.24,-177C1239.73,-177 1248.29,-177 1256.65,-177"/>
<polygon fill="#63b8ff" stroke="#63b8ff" points="1256.74,-180.5 1266.74,-177 1256.74,-173.5 1256.74,-180.5"/>
</a>
</g>
</g>
<!-- Node26&#45;&gt;Node6 -->
<g id="edge27_Node000026_Node000006" class="edge">
<title>Node26&#45;&gt;Node6</title>
<g id="a_edge27_Node000026_Node000006"><a xlink:title=" ">
<path fill="none" stroke="#63b8ff" d="M797.05,-227.53C804.72,-229.99 812.23,-233.09 819,-237 865.71,-263.93 904.52,-315.98 922.95,-343.66"/>
<polygon fill="#63b8ff" stroke="#63b8ff" points="920.22,-345.87 928.6,-352.35 926.09,-342.06 920.22,-345.87"/>
</a>
</g>
</g>
<!-- Node26&#45;&gt;Node20 -->
<g id="edge28_Node000026_Node000020" class="edge">
<title>Node26&#45;&gt;Node20</title>
<g id="a_edge28_Node000026_Node000020"><a xlink:title=" ">
<path fill="none" stroke="#63b8ff" d="M811.25,-214.55C822.67,-214.03 834.51,-213.5 846.15,-212.98"/>
<polygon fill="#63b8ff" stroke="#63b8ff" points="846.47,-216.47 856.3,-212.52 846.15,-209.47 846.47,-216.47"/>
</a>
</g>
</g>
<!-- Node26&#45;&gt;Node22 -->
<g id="edge26_Node000026_Node000022" class="edge">
<title>Node26&#45;&gt;Node22</title>
<g id="a_edge26_Node000026_Node000022"><a xlink:title=" ">
<path fill="none" stroke="#63b8ff" d="M766.19,-208.49C795.19,-199.79 838.86,-186.69 874.45,-176.01"/>
<polygon fill="#63b8ff" stroke="#63b8ff" points="875.68,-179.3 884.26,-173.07 873.67,-172.59 875.68,-179.3"/>
</a>
</g>
</g>
<!-- Node32 -->
<g id="Node000032" class="node">
<title>Node32</title>
<g id="a_Node000032"><a xlink:href="classOpenGLWindow.html#ad664443240cdd277b10bacbf1608478b" target="_top" xlink:title=" ">
<polygon fill="white" stroke="#666666" points="594.5,-67.5 432.5,-67.5 432.5,-48.5 594.5,-48.5 594.5,-67.5"/>
<text text-anchor="middle" x="513.5" y="-55.5" font-family="Helvetica,sans-Serif" font-size="10.00">OpenGLWindow::setSimSpeed</text>
</a>
</g>
</g>
<!-- Node31&#45;&gt;Node32 -->
<g id="edge36_Node000031_Node000032" class="edge">
<title>Node31&#45;&gt;Node32</title>
<g id="a_edge36_Node000031_Node000032"><a xlink:title=" ">
<path fill="none" stroke="#63b8ff" d="M357.08,-58C377.91,-58 400.59,-58 422.02,-58"/>
<polygon fill="#63b8ff" stroke="#63b8ff" points="422.1,-61.5 432.1,-58 422.1,-54.5 422.1,-61.5"/>
</a>
</g>
</g>
<!-- Node34 -->
<g id="Node000034" class="node">
<title>Node34</title>
<g id="a_Node000034"><a xlink:href="namespacePhysics_1_1Thermal.html#acb06d086dbc037d7c8cd9303133a4d1b" target="_top" xlink:title=" ">
<polygon fill="white" stroke="#666666" points="612,-24.5 415,-24.5 415,-5.5 612,-5.5 612,-24.5"/>
<text text-anchor="middle" x="513.5" y="-12.5" font-family="Helvetica,sans-Serif" font-size="10.00">Physics::Thermal::clampTemperature</text>
</a>
</g>
</g>
<!-- Node33&#45;&gt;Node34 -->
<g id="edge38_Node000033_Node000034" class="edge">
<title>Node33&#45;&gt;Node34</title>
<g id="a_edge38_Node000033_Node000034"><a xlink:title=" ">
<path fill="none" stroke="#63b8ff" d="M338.53,-15C358.77,-15 382.06,-15 404.89,-15"/>
<polygon fill="#63b8ff" stroke="#63b8ff" points="404.98,-18.5 414.98,-15 404.98,-11.5 404.98,-18.5"/>
</a>
</g>
</g>
</g>
</svg>

<g id="navigator" transform="translate(0 0)" fill="#404254">
  <rect fill="#f2f5e9" fill-opacity="0.5" stroke="#606060" stroke-width=".5" x="0" y="0" width="60" height="60"/>
  <use id="zoomplus" xlink:href="#zoomPlus" x="17" y="9" onmousedown="handleZoom(evt,'in')"/>
  <use id="zoomminus" xlink:href="#zoomMin" x="42" y="9" onmousedown="handleZoom(evt,'out')"/>
  <use id="reset" xlink:href="#resetDef" x="30" y="36" onmousedown="handleReset()"/>
   <use id="arrowup" xlink:href="#arrowUp" x="0" y="0" onmousedown="handlePan(0,-1)"/>
  <use id="arrowright" xlink:href="#arrowRight" x="0" y="0" onmousedown="handlePan(1,0)"/>
  <use id="arrowdown" xlink:href="#arrowDown" x="0" y="0" onmousedown="handlePan(0,1)"/>
  <use id="arrowleft" xlink:href="#arrowLeft" x="0" y="0" onmousedown="handlePan(-1,0)"/>
</g>
<svg viewBox="0 0 15 15" width="100%" height="30px" preserveAspectRatio="xMaxYMin meet">
 <g id="arrow_out" transform="scale(0.3 0.3)">
  <a xlink:href="namespaceScenePresets_1_1Astronomy_a0b0e571c83bcdb2d16710b9425375b5f_cgraph_org.svg" target="_base">
   <rect id="button" ry="5" rx="5" y="6" x="6" height="38" width="38"
        fill="#f2f5e9" fill-opacity="0.5" stroke="#606060" stroke-width="1.0"/>
   <path id="arrow"
     d="M 11.500037,31.436501 C 11.940474,20.09759 22.043105,11.32322 32.158766,21.979434 L 37.068811,17.246167 C 37.068811,17.246167 37.088388,32 37.088388,32 L 22.160133,31.978069 C 22.160133,31.978069 26.997745,27.140456 26.997745,27.140456 C 18.528582,18.264221 13.291696,25.230495 11.500037,31.436501 z"
     style="fill:#404040;"/>
  </a>
 </g>
</svg>

<style type='text/css'>
<![CDATA[
[data-mouse-over-selected='false'] { opacity: 0.7; }
[data-mouse-over-selected='true']  { opacity: 1.0; }
]]>
</style>
<script type="application/ecmascript"><![CDATA[
document.addEventListener('DOMContentLoaded', (event) => {
  highlightEdges();
  highlightAdjacentNodes();
});
]]></script>
</svg>
