<?xml version="1.0" encoding="UTF-8" standalone="no"?>
<!DOCTYPE svg PUBLIC "-//W3C//DTD SVG 1.1//EN"
 "http://www.w3.org/Graphics/SVG/1.1/DTD/svg11.dtd">
<!-- Generated by graphviz version 2.43.0 (0)
 -->
<!-- Title: Physics::Thermal::activeThermalMass Pages: 1 -->
<svg width="1201pt" height="175pt"
 viewBox="0.00 0.00 1201.00 174.50" xmlns="http://www.w3.org/2000/svg" xmlns:xlink="http://www.w3.org/1999/xlink">
<g id="graph0" class="graph" transform="scale(1 1) rotate(0) translate(4 170.5)">
<title>Physics::Thermal::activeThermalMass</title>
<!-- Node1 -->
<g id="Node000001" class="node">
<title>Node1</title>
<g id="a_Node000001"><a xlink:title=" ">
<polygon fill="#999999" stroke="#666666" points="1193,-126.5 1057,-126.5 1057,-96.5 1193,-96.5 1193,-126.5"/>
<text text-anchor="start" x="1065" y="-114.5" font-family="Helvetica,sans-Serif" font-size="10.00">Physics::Thermal::active</text>
<text text-anchor="middle" x="1125" y="-103.5" font-family="Helvetica,sans-Serif" font-size="10.00">ThermalMass</text>
</a>
</g>
</g>
<!-- Node2 -->
<g id="Node000002" class="node">
<title>Node2</title>
<g id="a_Node000002"><a xlink:href="namespacePhysics_1_1Thermal.html#a9206d38ee4d0cbd18666c936706e8611" target="_top" xlink:title=" ">
<polygon fill="white" stroke="#666666" points="815,-150.5 642,-150.5 642,-120.5 815,-120.5 815,-150.5"/>
<text text-anchor="start" x="650" y="-138.5" font-family="Helvetica,sans-Serif" font-size="10.00">Physics::Thermal::applyThermal</text>
<text text-anchor="middle" x="728.5" y="-127.5" font-family="Helvetica,sans-Serif" font-size="10.00">Energy</text>
</a>
</g>
</g>
<!-- Node1&#45;&gt;Node2 -->
<g id="edge1_Node000001_Node000002" class="edge">
<title>Node1&#45;&gt;Node2</title>
<g id="a_edge1_Node000001_Node000002"><a xlink:title=" ">
<path fill="none" stroke="#63b8ff" d="M1046.62,-116.21C980.03,-120.26 884.09,-126.1 815.19,-130.29"/>
<polygon fill="#63b8ff" stroke="#63b8ff" points="1046.86,-119.7 1056.63,-115.6 1046.44,-112.71 1046.86,-119.7"/>
</a>
</g>
</g>
<!-- Node11 -->
<g id="Node000011" class="node">
<title>Node11</title>
<g id="a_Node000011"><a xlink:href="namespacePhysics_1_1Thermal.html#a7eaf74772f10f3ceb9740038659283ab" target="_top" xlink:title=" ">
<polygon fill="white" stroke="#666666" points="1021,-102 851,-102 851,-83 1021,-83 1021,-102"/>
<text text-anchor="middle" x="936" y="-90" font-family="Helvetica,sans-Serif" font-size="10.00">Physics::Thermal::heatCapacity</text>
</a>
</g>
</g>
<!-- Node1&#45;&gt;Node11 -->
<g id="edge11_Node000001_Node000011" class="edge">
<title>Node1&#45;&gt;Node11</title>
<g id="a_edge11_Node000001_Node000011"><a xlink:title=" ">
<path fill="none" stroke="#63b8ff" d="M1046.64,-103.64C1038.26,-102.79 1029.7,-101.92 1021.24,-101.06"/>
<polygon fill="#63b8ff" stroke="#63b8ff" points="1046.45,-107.14 1056.75,-104.67 1047.16,-100.17 1046.45,-107.14"/>
</a>
</g>
</g>
<!-- Node3 -->
<g id="Node000003" class="node">
<title>Node3</title>
<g id="a_Node000003"><a xlink:href="namespacePhysics_1_1Thermal.html#a4bee0e40f8969cbb2cf1ec826d54834a" target="_top" xlink:title=" ">
<polygon fill="white" stroke="#666666" points="606,-45.5 418,-45.5 418,-15.5 606,-15.5 606,-45.5"/>
<text text-anchor="start" x="426" y="-33.5" font-family="Helvetica,sans-Serif" font-size="10.00">Physics::Thermal::applyConductive</text>
<text text-anchor="middle" x="512" y="-22.5" font-family="Helvetica,sans-Serif" font-size="10.00">Exchange</text>
</a>
</g>
</g>
<!-- Node2&#45;&gt;Node3 -->
<g id="edge2_Node000002_Node000003" class="edge">
<title>Node2&#45;&gt;Node3</title>
<g id="a_edge2_Node000002_Node000003"><a xlink:title=" ">
<path fill="none" stroke="#63b8ff" d="M647.79,-115.42C645.79,-114.19 643.86,-112.89 642,-111.5 617.98,-93.59 630.21,-72.15 606,-54.5 601.28,-51.06 596.12,-48.11 590.72,-45.59"/>
<polygon fill="#63b8ff" stroke="#63b8ff" points="646.42,-118.66 656.88,-120.34 649.76,-112.5 646.42,-118.66"/>
</a>
</g>
</g>
<!-- Node5 -->
<g id="Node000005" class="node">
<title>Node5</title>
<g id="a_Node000005"><a xlink:href="classPhysics_1_1RigidBody.html#a4e7d7e2da6c0011c98745c15903a2b15" target="_top" xlink:title=" ">
<polygon fill="white" stroke="#666666" points="382,-144.5 209,-144.5 209,-114.5 382,-114.5 382,-144.5"/>
<text text-anchor="start" x="217" y="-132.5" font-family="Helvetica,sans-Serif" font-size="10.00">Physics::RigidBody</text>
<text text-anchor="middle" x="295.5" y="-121.5" font-family="Helvetica,sans-Serif" font-size="10.00">::resolveCollisionWithPointMass</text>
</a>
</g>
</g>
<!-- Node2&#45;&gt;Node5 -->
<g id="edge9_Node000002_Node000005" class="edge">
<title>Node2&#45;&gt;Node5</title>
<g id="a_edge9_Node000002_Node000005"><a xlink:title=" ">
<path fill="none" stroke="#63b8ff" d="M631.71,-140.07C570.55,-142.24 489.58,-143.73 418,-140.5 406.36,-139.97 394.12,-139.17 382.06,-138.22"/>
<polygon fill="#63b8ff" stroke="#63b8ff" points="631.87,-143.57 641.74,-139.7 631.62,-136.57 631.87,-143.57"/>
</a>
</g>
</g>
<!-- Node9 -->
<g id="Node000009" class="node">
<title>Node9</title>
<g id="a_Node000009"><a xlink:href="namespacePhysics_1_1Thermal.html#a7d354d9cd4784f896b446fcaa286439c" target="_top" xlink:title=" ">
<polygon fill="white" stroke="#666666" points="587,-93.5 437,-93.5 437,-63.5 587,-63.5 587,-93.5"/>
<text text-anchor="start" x="445" y="-81.5" font-family="Helvetica,sans-Serif" font-size="10.00">Physics::Thermal::integrate</text>
<text text-anchor="middle" x="512" y="-70.5" font-family="Helvetica,sans-Serif" font-size="10.00">Temperature</text>
</a>
</g>
</g>
<!-- Node2&#45;&gt;Node9 -->
<g id="edge8_Node000002_Node000009" class="edge">
<title>Node2&#45;&gt;Node9</title>
<g id="a_edge8_Node000002_Node000009"><a xlink:title=" ">
<path fill="none" stroke="#63b8ff" d="M663.06,-117.83C644.64,-112.83 624.54,-107.41 606,-102.5 595.04,-99.6 583.34,-96.54 572.07,-93.62"/>
<polygon fill="#63b8ff" stroke="#63b8ff" points="662.23,-121.24 672.8,-120.49 664.07,-114.48 662.23,-121.24"/>
</a>
</g>
</g>
<!-- Node10 -->
<g id="Node000010" class="node">
<title>Node10</title>
<g id="a_Node000010"><a xlink:href="PhysicsTests_8cpp.html#aa0407d0a28cee579779bf66d159a989d" target="_top" xlink:title=" ">
<polygon fill="white" stroke="#666666" points="532.5,-131 491.5,-131 491.5,-112 532.5,-112 532.5,-131"/>
<text text-anchor="middle" x="512" y="-119" font-family="Helvetica,sans-Serif" font-size="10.00">TEST</text>
</a>
</g>
</g>
<!-- Node2&#45;&gt;Node10 -->
<g id="edge10_Node000002_Node000010" class="edge">
<title>Node2&#45;&gt;Node10</title>
<g id="a_edge10_Node000002_Node000010"><a xlink:title=" ">
<path fill="none" stroke="#63b8ff" d="M631.37,-129.23C594.18,-126.8 555.18,-124.25 532.54,-122.78"/>
<polygon fill="#63b8ff" stroke="#63b8ff" points="631.59,-132.75 641.8,-129.91 632.05,-125.76 631.59,-132.75"/>
</a>
</g>
</g>
<!-- Node4 -->
<g id="Node000004" class="node">
<title>Node4</title>
<g id="a_Node000004"><a xlink:href="classPhysics_1_1PointMass.html#aa94536ea681b33ed376700aae820cef0" target="_top" xlink:title=" ">
<polygon fill="white" stroke="#666666" points="382,-67.5 209,-67.5 209,-37.5 382,-37.5 382,-67.5"/>
<text text-anchor="start" x="217" y="-55.5" font-family="Helvetica,sans-Serif" font-size="10.00">Physics::PointMass</text>
<text text-anchor="middle" x="295.5" y="-44.5" font-family="Helvetica,sans-Serif" font-size="10.00">::resolveCollisionWithPointMass</text>
</a>
</g>
</g>
<!-- Node3&#45;&gt;Node4 -->
<g id="edge3_Node000003_Node000004" class="edge">
<title>Node3&#45;&gt;Node4</title>
<g id="a_edge3_Node000003_Node000004"><a xlink:title=" ">
<path fill="none" stroke="#63b8ff" d="M407.79,-41.09C399.2,-41.97 390.57,-42.85 382.13,-43.72"/>
<polygon fill="#63b8ff" stroke="#63b8ff" points="408.26,-44.56 417.85,-40.05 407.55,-37.59 408.26,-44.56"/>
</a>
</g>
</g>
<!-- Node3&#45;&gt;Node5 -->
<g id="edge4_Node000003_Node000005" class="edge">
<title>Node3&#45;&gt;Node5</title>
<g id="a_edge4_Node000003_Node000005"><a xlink:title=" ">
<path fill="none" stroke="#63b8ff" d="M432.82,-48.82C427.75,-50.58 422.77,-52.47 418,-54.5 416.7,-55.05 355.84,-92.73 320.76,-114.46"/>
<polygon fill="#63b8ff" stroke="#63b8ff" points="434.23,-52.04 442.65,-45.61 432.06,-45.39 434.23,-52.04"/>
</a>
</g>
</g>
<!-- Node8 -->
<g id="Node000008" class="node">
<title>Node8</title>
<g id="a_Node000008"><a xlink:href="PhysicsTests_8cpp.html#a985ead36d6f21bfe093a62aeda3103e2" target="_top" xlink:title=" ">
<polygon fill="white" stroke="#666666" points="316,-19 275,-19 275,0 316,0 316,-19"/>
<text text-anchor="middle" x="295.5" y="-7" font-family="Helvetica,sans-Serif" font-size="10.00">TEST</text>
</a>
</g>
</g>
<!-- Node3&#45;&gt;Node8 -->
<g id="edge7_Node000003_Node000008" class="edge">
<title>Node3&#45;&gt;Node8</title>
<g id="a_edge7_Node000003_Node000008"><a xlink:title=" ">
<path fill="none" stroke="#63b8ff" d="M407.57,-20.37C372.74,-16.96 337.38,-13.5 316.19,-11.43"/>
<polygon fill="#63b8ff" stroke="#63b8ff" points="407.56,-23.89 417.85,-21.38 408.24,-16.92 407.56,-23.89"/>
</a>
</g>
</g>
<!-- Node6 -->
<g id="Node000006" class="node">
<title>Node6</title>
<g id="a_Node000006"><a xlink:href="classPhysics_1_1PointMass.html#a6876155fbb7a943c6d2e06f4c6707959" target="_top" xlink:title=" ">
<polygon fill="white" stroke="#666666" points="173,-166.5 0,-166.5 0,-136.5 173,-136.5 173,-166.5"/>
<text text-anchor="start" x="8" y="-154.5" font-family="Helvetica,sans-Serif" font-size="10.00">Physics::PointMass</text>
<text text-anchor="middle" x="86.5" y="-143.5" font-family="Helvetica,sans-Serif" font-size="10.00">::resolveCollisionWithRigidBody</text>
</a>
</g>
</g>
<!-- Node5&#45;&gt;Node6 -->
<g id="edge5_Node000005_Node000006" class="edge">
<title>Node5&#45;&gt;Node6</title>
<g id="a_edge5_Node000005_Node000006"><a xlink:title=" ">
<path fill="none" stroke="#63b8ff" d="M198.8,-139.67C190.24,-140.58 181.6,-141.5 173.12,-142.4"/>
<polygon fill="#63b8ff" stroke="#63b8ff" points="199.24,-143.14 208.81,-138.61 198.5,-136.18 199.24,-143.14"/>
</a>
</g>
</g>
<!-- Node7 -->
<g id="Node000007" class="node">
<title>Node7</title>
<g id="a_Node000007"><a xlink:href="PhysicsTests_8cpp.html#aae14e19948f282c097b0e8761991c0e1" target="_top" xlink:title=" ">
<polygon fill="white" stroke="#666666" points="107,-118 66,-118 66,-99 107,-99 107,-118"/>
<text text-anchor="middle" x="86.5" y="-106" font-family="Helvetica,sans-Serif" font-size="10.00">TEST</text>
</a>
</g>
</g>
<!-- Node5&#45;&gt;Node7 -->
<g id="edge6_Node000005_Node000007" class="edge">
<title>Node5&#45;&gt;Node7</title>
<g id="a_edge6_Node000005_Node000007"><a xlink:title=" ">
<path fill="none" stroke="#63b8ff" d="M198.68,-119.78C164.29,-116.29 128.76,-112.69 107.4,-110.52"/>
<polygon fill="#63b8ff" stroke="#63b8ff" points="198.51,-123.28 208.81,-120.81 199.22,-116.32 198.51,-123.28"/>
</a>
</g>
</g>
<!-- Node11&#45;&gt;Node2 -->
<g id="edge13_Node000011_Node000002" class="edge">
<title>Node11&#45;&gt;Node2</title>
<g id="a_edge13_Node000011_Node000002"><a xlink:title=" ">
<path fill="none" stroke="#63b8ff" d="M879.37,-104.14C855.31,-109.18 826.84,-115.13 801.22,-120.49"/>
<polygon fill="#63b8ff" stroke="#63b8ff" points="880.32,-107.52 889.39,-102.04 878.89,-100.67 880.32,-107.52"/>
</a>
</g>
</g>
<!-- Node11&#45;&gt;Node3 -->
<g id="edge12_Node000011_Node000003" class="edge">
<title>Node11&#45;&gt;Node3</title>
<g id="a_edge12_Node000011_Node000003"><a xlink:title=" ">
<path fill="none" stroke="#63b8ff" d="M885.54,-80.68C863.96,-75.81 838.32,-70.41 815,-66.5 745.35,-54.83 666.04,-45.53 606.18,-39.3"/>
<polygon fill="#63b8ff" stroke="#63b8ff" points="884.93,-84.13 895.46,-82.94 886.49,-77.31 884.93,-84.13"/>
</a>
</g>
</g>
<!-- Node11&#45;&gt;Node9 -->
<g id="edge14_Node000011_Node000009" class="edge">
<title>Node11&#45;&gt;Node9</title>
<g id="a_edge14_Node000011_Node000009"><a xlink:title=" ">
<path fill="none" stroke="#63b8ff" d="M876.24,-81.31C856.82,-78.12 835.06,-75.08 815,-73.5 737.5,-67.4 648.48,-70.04 587.28,-73.35"/>
<polygon fill="#63b8ff" stroke="#63b8ff" points="875.72,-84.77 886.16,-82.99 876.89,-77.87 875.72,-84.77"/>
</a>
</g>
</g>
<!-- Node12 -->
<g id="Node000012" class="node">
<title>Node12</title>
<g id="a_Node000012"><a xlink:href="PhysicsTests_8cpp.html#a3e1d22d3768c48def0bef01f352499ff" target="_top" xlink:title=" ">
<polygon fill="white" stroke="#666666" points="749,-102 708,-102 708,-83 749,-83 749,-102"/>
<text text-anchor="middle" x="728.5" y="-90" font-family="Helvetica,sans-Serif" font-size="10.00">TEST</text>
</a>
</g>
</g>
<!-- Node11&#45;&gt;Node12 -->
<g id="edge15_Node000011_Node000012" class="edge">
<title>Node11&#45;&gt;Node12</title>
<g id="a_edge15_Node000011_Node000012"><a xlink:title=" ">
<path fill="none" stroke="#63b8ff" d="M840.66,-92.5C806.15,-92.5 770.38,-92.5 749.03,-92.5"/>
<polygon fill="#63b8ff" stroke="#63b8ff" points="840.82,-96 850.82,-92.5 840.82,-89 840.82,-96"/>
</a>
</g>
</g>
</g>
</svg>
