<?xml version="1.0" encoding="UTF-8" standalone="no"?>
<!DOCTYPE svg PUBLIC "-//W3C//DTD SVG 1.1//EN"
 "http://www.w3.org/Graphics/SVG/1.1/DTD/svg11.dtd">
<!-- Generated by graphviz version 2.43.0 (0)
 -->
<!-- Title: src/physics/spatial/NodeIndex.h Pages: 1 -->
<svg width="3899pt" height="423pt"
 viewBox="0.00 0.00 3898.50 423.00" xmlns="http://www.w3.org/2000/svg" xmlns:xlink="http://www.w3.org/1999/xlink">
<g id="graph0" class="graph" transform="scale(1 1) rotate(0) translate(4 419)">
<title>src/physics/spatial/NodeIndex.h</title>
<!-- Node1 -->
<g id="Node000001" class="node">
<title>Node1</title>
<g id="a_Node000001"><a xlink:title=" ">
<polygon fill="#999999" stroke="#666666" points="3499.5,-415 3392.5,-415 3392.5,-385 3499.5,-385 3499.5,-415"/>
<text text-anchor="start" x="3400.5" y="-403" font-family="Helvetica,sans-Serif" font-size="10.00">src/physics/spatial</text>
<text text-anchor="middle" x="3446" y="-392" font-family="Helvetica,sans-Serif" font-size="10.00">/NodeIndex.h</text>
</a>
</g>
</g>
<!-- Node2 -->
<g id="Node000002" class="node">
<title>Node2</title>
<g id="a_Node000002"><a xlink:href="BVH_8h.html" target="_top" xlink:title=" ">
<polygon fill="white" stroke="#666666" points="3562.5,-349 3455.5,-349 3455.5,-319 3562.5,-319 3562.5,-349"/>
<text text-anchor="start" x="3463.5" y="-337" font-family="Helvetica,sans-Serif" font-size="10.00">src/physics/spatial</text>
<text text-anchor="middle" x="3509" y="-326" font-family="Helvetica,sans-Serif" font-size="10.00">/BVH.h</text>
</a>
</g>
</g>
<!-- Node1&#45;&gt;Node2 -->
<g id="edge1_Node000001_Node000002" class="edge">
<title>Node1&#45;&gt;Node2</title>
<g id="a_edge1_Node000001_Node000002"><a xlink:title=" ">
<path fill="none" stroke="#63b8ff" d="M3467.02,-377.65C3476.25,-368.27 3486.83,-357.53 3495.06,-349.16"/>
<polygon fill="#63b8ff" stroke="#63b8ff" points="3464.5,-375.21 3459.98,-384.8 3469.49,-380.13 3464.5,-375.21"/>
</a>
</g>
</g>
<!-- Node40 -->
<g id="Node000040" class="node">
<title>Node40</title>
<g id="a_Node000040"><a xlink:href="Octree_8h.html" target="_top" xlink:title=" ">
<polygon fill="white" stroke="#666666" points="3437.5,-349 3330.5,-349 3330.5,-319 3437.5,-319 3437.5,-349"/>
<text text-anchor="start" x="3338.5" y="-337" font-family="Helvetica,sans-Serif" font-size="10.00">src/physics/spatial</text>
<text text-anchor="middle" x="3384" y="-326" font-family="Helvetica,sans-Serif" font-size="10.00">/Octree.h</text>
</a>
</g>
</g>
<!-- Node1&#45;&gt;Node40 -->
<g id="edge60_Node000001_Node000040" class="edge">
<title>Node1&#45;&gt;Node40</title>
<g id="a_edge60_Node000001_Node000040"><a xlink:title=" ">
<path fill="none" stroke="#63b8ff" d="M3425.04,-377.37C3416.03,-368.06 3405.74,-357.44 3397.72,-349.16"/>
<polygon fill="#63b8ff" stroke="#63b8ff" points="3422.77,-380.05 3432.24,-384.8 3427.8,-375.18 3422.77,-380.05"/>
</a>
</g>
</g>
<!-- Node3 -->
<g id="Node000003" class="node">
<title>Node3</title>
<g id="a_Node000003"><a xlink:href="PhysicsSystem_8h.html" target="_top" xlink:title=" ">
<polygon fill="white" stroke="#666666" points="3431,-277.5 3275,-277.5 3275,-258.5 3431,-258.5 3431,-277.5"/>
<text text-anchor="middle" x="3353" y="-265.5" font-family="Helvetica,sans-Serif" font-size="10.00">src/physics/PhysicsSystem.h</text>
</a>
</g>
</g>
<!-- Node2&#45;&gt;Node3 -->
<g id="edge2_Node000002_Node000003" class="edge">
<title>Node2&#45;&gt;Node3</title>
<g id="a_edge2_Node000002_Node000003"><a xlink:title=" ">
<path fill="none" stroke="#63b8ff" d="M3465.37,-315.1C3435.42,-302.82 3397.03,-287.06 3373.76,-277.52"/>
<polygon fill="#63b8ff" stroke="#63b8ff" points="3464.18,-318.4 3474.77,-318.95 3466.84,-311.92 3464.18,-318.4"/>
</a>
</g>
</g>
<!-- Node39 -->
<g id="Node000039" class="node">
<title>Node39</title>
<g id="a_Node000039"><a xlink:href="BVH_8cpp.html" target="_top" xlink:title=" ">
<polygon fill="white" stroke="#666666" points="3594.5,-283 3487.5,-283 3487.5,-253 3594.5,-253 3594.5,-283"/>
<text text-anchor="start" x="3495.5" y="-271" font-family="Helvetica,sans-Serif" font-size="10.00">src/physics/spatial</text>
<text text-anchor="middle" x="3541" y="-260" font-family="Helvetica,sans-Serif" font-size="10.00">/BVH.cpp</text>
</a>
</g>
</g>
<!-- Node2&#45;&gt;Node39 -->
<g id="edge59_Node000002_Node000039" class="edge">
<title>Node2&#45;&gt;Node39</title>
<g id="a_edge59_Node000002_Node000039"><a xlink:title=" ">
<path fill="none" stroke="#63b8ff" d="M3520.66,-309.68C3525.1,-300.79 3530.03,-290.95 3533.92,-283.16"/>
<polygon fill="#63b8ff" stroke="#63b8ff" points="3517.44,-308.29 3516.1,-318.8 3523.7,-311.42 3517.44,-308.29"/>
</a>
</g>
</g>
<!-- Node4 -->
<g id="Node000004" class="node">
<title>Node4</title>
<g id="a_Node000004"><a xlink:href="SceneManager_8h.html" target="_top" xlink:title=" ">
<polygon fill="white" stroke="#666666" points="2306,-211.5 2124,-211.5 2124,-192.5 2306,-192.5 2306,-211.5"/>
<text text-anchor="middle" x="2215" y="-199.5" font-family="Helvetica,sans-Serif" font-size="10.00">src/graphics/core/SceneManager.h</text>
</a>
</g>
</g>
<!-- Node3&#45;&gt;Node4 -->
<g id="edge3_Node000003_Node000004" class="edge">
<title>Node3&#45;&gt;Node4</title>
<g id="a_edge3_Node000003_Node000004"><a xlink:title=" ">
<path fill="none" stroke="#63b8ff" d="M3264.66,-262.03C3053.36,-250.15 2520.46,-220.18 2306.25,-208.13"/>
<polygon fill="#63b8ff" stroke="#63b8ff" points="3264.6,-265.53 3274.78,-262.6 3264.99,-258.54 3264.6,-265.53"/>
</a>
</g>
</g>
<!-- Node8 -->
<g id="Node000008" class="node">
<title>Node8</title>
<g id="a_Node000008"><a xlink:href="SceneObject_8h.html" target="_top" xlink:title=" ">
<polygon fill="white" stroke="#666666" points="1920,-151 1748,-151 1748,-132 1920,-132 1920,-151"/>
<text text-anchor="middle" x="1834" y="-139" font-family="Helvetica,sans-Serif" font-size="10.00">src/graphics/core/SceneObject.h</text>
</a>
</g>
</g>
<!-- Node3&#45;&gt;Node8 -->
<g id="edge51_Node000003_Node000008" class="edge">
<title>Node3&#45;&gt;Node8</title>
<g id="a_edge51_Node000003_Node000008"><a xlink:title=" ">
<path fill="none" stroke="#63b8ff" d="M3264.31,-265.94C3019.33,-262.6 2336.87,-250.48 2115,-217 2018.43,-202.43 1907.31,-167.32 1858.8,-151.05"/>
<polygon fill="#63b8ff" stroke="#63b8ff" points="3264.54,-269.44 3274.59,-266.08 3264.64,-262.44 3264.54,-269.44"/>
</a>
</g>
</g>
<!-- Node25 -->
<g id="Node000025" class="node">
<title>Node25</title>
<g id="a_Node000025"><a xlink:href="OpenGLWindow_8cpp.html" target="_top" xlink:title=" ">
<polygon fill="white" stroke="#666666" points="3236,-90.5 3094,-90.5 3094,-71.5 3236,-71.5 3236,-90.5"/>
<text text-anchor="middle" x="3165" y="-78.5" font-family="Helvetica,sans-Serif" font-size="10.00">src/ui/OpenGLWindow.cpp</text>
</a>
</g>
</g>
<!-- Node3&#45;&gt;Node25 -->
<g id="edge55_Node000003_Node000025" class="edge">
<title>Node3&#45;&gt;Node25</title>
<g id="a_edge55_Node000003_Node000025"><a xlink:title=" ">
<path fill="none" stroke="#63b8ff" d="M3326.58,-253.48C3310.2,-244.4 3289.26,-231.47 3273,-217 3226.82,-175.89 3185.03,-113.53 3170.46,-90.73"/>
<polygon fill="#63b8ff" stroke="#63b8ff" points="3325.16,-256.69 3335.63,-258.36 3328.49,-250.53 3325.16,-256.69"/>
</a>
</g>
</g>
<!-- Node27 -->
<g id="Node000027" class="node">
<title>Node27</title>
<g id="a_Node000027"><a xlink:href="GlobalsInspectorWidget_8cpp.html" target="_top" xlink:title=" ">
<polygon fill="white" stroke="#666666" points="3385.5,-96 3254.5,-96 3254.5,-66 3385.5,-66 3385.5,-96"/>
<text text-anchor="start" x="3262.5" y="-84" font-family="Helvetica,sans-Serif" font-size="10.00">src/ui/inspector/Globals</text>
<text text-anchor="middle" x="3320" y="-73" font-family="Helvetica,sans-Serif" font-size="10.00">InspectorWidget.cpp</text>
</a>
</g>
</g>
<!-- Node3&#45;&gt;Node27 -->
<g id="edge56_Node000003_Node000027" class="edge">
<title>Node3&#45;&gt;Node27</title>
<g id="a_edge56_Node000003_Node000027"><a xlink:title=" ">
<path fill="none" stroke="#63b8ff" d="M3322.9,-253.5C3308.32,-245.23 3292.22,-233.11 3284,-217 3263.05,-175.95 3293.03,-121.47 3309.88,-96.11"/>
<polygon fill="#63b8ff" stroke="#63b8ff" points="3321.69,-256.82 3332.17,-258.39 3324.95,-250.63 3321.69,-256.82"/>
</a>
</g>
</g>
<!-- Node28 -->
<g id="Node000028" class="node">
<title>Node28</title>
<g id="a_Node000028"><a xlink:href="InspectorWidget_8cpp.html" target="_top" xlink:title=" ">
<polygon fill="white" stroke="#666666" points="3542.5,-96 3403.5,-96 3403.5,-66 3542.5,-66 3542.5,-96"/>
<text text-anchor="start" x="3411.5" y="-84" font-family="Helvetica,sans-Serif" font-size="10.00">src/ui/inspector/Inspector</text>
<text text-anchor="middle" x="3473" y="-73" font-family="Helvetica,sans-Serif" font-size="10.00">Widget.cpp</text>
</a>
</g>
</g>
<!-- Node3&#45;&gt;Node28 -->
<g id="edge57_Node000003_Node000028" class="edge">
<title>Node3&#45;&gt;Node28</title>
<g id="a_edge57_Node000003_Node000028"><a xlink:title=" ">
<path fill="none" stroke="#63b8ff" d="M3336.45,-250.83C3321.82,-234.48 3304.46,-208.61 3316,-187 3340.49,-141.16 3394.84,-111.83 3432.68,-96.14"/>
<polygon fill="#63b8ff" stroke="#63b8ff" points="3334.26,-253.6 3343.69,-258.44 3339.33,-248.78 3334.26,-253.6"/>
</a>
</g>
</g>
<!-- Node35 -->
<g id="Node000035" class="node">
<title>Node35</title>
<g id="a_Node000035"><a xlink:href="PhysicsSystem_8cpp.html" target="_top" xlink:title=" ">
<polygon fill="white" stroke="#666666" points="3492.5,-211.5 3325.5,-211.5 3325.5,-192.5 3492.5,-192.5 3492.5,-211.5"/>
<text text-anchor="middle" x="3409" y="-199.5" font-family="Helvetica,sans-Serif" font-size="10.00">src/physics/PhysicsSystem.cpp</text>
</a>
</g>
</g>
<!-- Node3&#45;&gt;Node35 -->
<g id="edge52_Node000003_Node000035" class="edge">
<title>Node3&#45;&gt;Node35</title>
<g id="a_edge52_Node000003_Node000035"><a xlink:title=" ">
<path fill="none" stroke="#63b8ff" d="M3367.33,-250.62C3378.11,-238.31 3392.47,-221.89 3401.21,-211.91"/>
<polygon fill="#63b8ff" stroke="#63b8ff" points="3364.5,-248.54 3360.55,-258.37 3369.77,-253.15 3364.5,-248.54"/>
</a>
</g>
</g>
<!-- Node36 -->
<g id="Node000036" class="node">
<title>Node36</title>
<g id="a_Node000036"><a xlink:href="ProblemRouter_8cpp.html" target="_top" xlink:title=" ">
<polygon fill="white" stroke="#666666" points="3622,-217 3510,-217 3510,-187 3622,-187 3622,-217"/>
<text text-anchor="start" x="3518" y="-205" font-family="Helvetica,sans-Serif" font-size="10.00">src/physics/solver</text>
<text text-anchor="middle" x="3566" y="-194" font-family="Helvetica,sans-Serif" font-size="10.00">/ProblemRouter.cpp</text>
</a>
</g>
</g>
<!-- Node3&#45;&gt;Node36 -->
<g id="edge53_Node000003_Node000036" class="edge">
<title>Node3&#45;&gt;Node36</title>
<g id="a_edge53_Node000003_Node000036"><a xlink:title=" ">
<path fill="none" stroke="#63b8ff" d="M3391.33,-255.48C3427.13,-244.73 3480.66,-228.64 3519.02,-217.12"/>
<polygon fill="#63b8ff" stroke="#63b8ff" points="3390.3,-252.14 3381.73,-258.37 3392.31,-258.84 3390.3,-252.14"/>
</a>
</g>
</g>
<!-- Node37 -->
<g id="Node000037" class="node">
<title>Node37</title>
<g id="a_Node000037"><a xlink:href="Octree_8cpp.html" target="_top" xlink:title=" ">
<polygon fill="white" stroke="#666666" points="3890.5,-217 3783.5,-217 3783.5,-187 3890.5,-187 3890.5,-217"/>
<text text-anchor="start" x="3791.5" y="-205" font-family="Helvetica,sans-Serif" font-size="10.00">src/physics/spatial</text>
<text text-anchor="middle" x="3837" y="-194" font-family="Helvetica,sans-Serif" font-size="10.00">/Octree.cpp</text>
</a>
</g>
</g>
<!-- Node3&#45;&gt;Node37 -->
<g id="edge54_Node000003_Node000037" class="edge">
<title>Node3&#45;&gt;Node37</title>
<g id="a_edge54_Node000003_Node000037"><a xlink:title=" ">
<path fill="none" stroke="#63b8ff" d="M3416.35,-257C3425.94,-255.59 3435.73,-254.21 3445,-253 3591.29,-233.9 3629.48,-241.29 3775,-217 3777.72,-216.55 3780.5,-216.05 3783.31,-215.52"/>
<polygon fill="#63b8ff" stroke="#63b8ff" points="3415.83,-253.54 3406.46,-258.47 3416.87,-260.46 3415.83,-253.54"/>
</a>
</g>
</g>
<!-- Node38 -->
<g id="Node000038" class="node">
<title>Node38</title>
<g id="a_Node000038"><a xlink:href="PhysicsTests_8cpp.html" target="_top" xlink:title=" ">
<polygon fill="white" stroke="#666666" points="3765.5,-211.5 3640.5,-211.5 3640.5,-192.5 3765.5,-192.5 3765.5,-211.5"/>
<text text-anchor="middle" x="3703" y="-199.5" font-family="Helvetica,sans-Serif" font-size="10.00">tests/PhysicsTests.cpp</text>
</a>
</g>
</g>
<!-- Node3&#45;&gt;Node38 -->
<g id="edge58_Node000003_Node000038" class="edge">
<title>Node3&#45;&gt;Node38</title>
<g id="a_edge58_Node000003_Node000038"><a xlink:title=" ">
<path fill="none" stroke="#63b8ff" d="M3411.89,-256.66C3468.19,-246.71 3555.45,-231.14 3631,-217 3640.26,-215.27 3650.19,-213.37 3659.61,-211.54"/>
<polygon fill="#63b8ff" stroke="#63b8ff" points="3410.99,-253.26 3401.75,-258.45 3412.21,-260.15 3410.99,-253.26"/>
</a>
</g>
</g>
<!-- Node5 -->
<g id="Node000005" class="node">
<title>Node5</title>
<g id="a_Node000005"><a xlink:href="Gizmo_8cpp.html" target="_top" xlink:title=" ">
<polygon fill="white" stroke="#666666" points="138,-30 0,-30 0,0 138,0 138,-30"/>
<text text-anchor="start" x="8" y="-18" font-family="Helvetica,sans-Serif" font-size="10.00">src/graphics/components</text>
<text text-anchor="middle" x="69" y="-7" font-family="Helvetica,sans-Serif" font-size="10.00">/Gizmo.cpp</text>
</a>
</g>
</g>
<!-- Node4&#45;&gt;Node5 -->
<g id="edge4_Node000004_Node000005" class="edge">
<title>Node4&#45;&gt;Node5</title>
<g id="a_edge4_Node000004_Node000005"><a xlink:title=" ">
<path fill="none" stroke="#63b8ff" d="M2113.87,-201.13C1774.82,-201.12 680.2,-197.41 331,-151 228.1,-137.32 183.53,-162.72 104,-96 83.79,-79.05 74.88,-48.18 71.25,-30.15"/>
<polygon fill="#63b8ff" stroke="#63b8ff" points="2113.92,-204.63 2123.92,-201.13 2113.92,-197.63 2113.92,-204.63"/>
</a>
</g>
</g>
<!-- Node6 -->
<g id="Node000006" class="node">
<title>Node6</title>
<g id="a_Node000006"><a xlink:href="SceneManager_8cpp.html" target="_top" xlink:title=" ">
<polygon fill="white" stroke="#666666" points="506,-24.5 312,-24.5 312,-5.5 506,-5.5 506,-24.5"/>
<text text-anchor="middle" x="409" y="-12.5" font-family="Helvetica,sans-Serif" font-size="10.00">src/graphics/core/SceneManager.cpp</text>
</a>
</g>
</g>
<!-- Node4&#45;&gt;Node6 -->
<g id="edge5_Node000004_Node000006" class="edge">
<title>Node4&#45;&gt;Node6</title>
<g id="a_edge5_Node000004_Node000006"><a xlink:title=" ">
<path fill="none" stroke="#63b8ff" d="M2113.97,-200.19C1729.29,-196.87 376.09,-182.93 345,-151 307.55,-112.53 372.51,-48.01 398.75,-24.72"/>
<polygon fill="#63b8ff" stroke="#63b8ff" points="2113.95,-203.69 2123.98,-200.28 2114.01,-196.69 2113.95,-203.69"/>
</a>
</g>
</g>
<!-- Node7 -->
<g id="Node000007" class="node">
<title>Node7</title>
<g id="a_Node000007"><a xlink:href="SceneObject_8cpp.html" target="_top" xlink:title=" ">
<polygon fill="white" stroke="#666666" points="1157.5,-90.5 974.5,-90.5 974.5,-71.5 1157.5,-71.5 1157.5,-90.5"/>
<text text-anchor="middle" x="1066" y="-78.5" font-family="Helvetica,sans-Serif" font-size="10.00">src/graphics/core/SceneObject.cpp</text>
</a>
</g>
</g>
<!-- Node4&#45;&gt;Node7 -->
<g id="edge6_Node000004_Node000007" class="edge">
<title>Node4&#45;&gt;Node7</title>
<g id="a_edge6_Node000004_Node000007"><a xlink:title=" ">
<path fill="none" stroke="#63b8ff" d="M2113.86,-192.45C1926.03,-176.24 1510.71,-138.79 1162,-96 1148.88,-94.39 1134.77,-92.45 1121.53,-90.54"/>
<polygon fill="#63b8ff" stroke="#63b8ff" points="2113.73,-195.96 2124,-193.33 2114.33,-188.98 2113.73,-195.96"/>
</a>
</g>
</g>
<!-- Node4&#45;&gt;Node8 -->
<g id="edge7_Node000004_Node000008" class="edge">
<title>Node4&#45;&gt;Node8</title>
<g id="a_edge7_Node000004_Node000008"><a xlink:title=" ">
<path fill="none" stroke="#63b8ff" d="M2149.55,-190.95C2076.19,-179.69 1958.49,-161.61 1889.47,-151.02"/>
<polygon fill="#63b8ff" stroke="#63b8ff" points="2149.18,-194.44 2159.6,-192.49 2150.25,-187.52 2149.18,-194.44"/>
</a>
</g>
</g>
<!-- Node16 -->
<g id="Node000016" class="node">
<title>Node16</title>
<g id="a_Node000016"><a xlink:href="Colliders_8cpp.html" target="_top" xlink:title=" ">
<polygon fill="white" stroke="#666666" points="2792,-96 2684,-96 2684,-66 2792,-66 2792,-96"/>
<text text-anchor="start" x="2692" y="-84" font-family="Helvetica,sans-Serif" font-size="10.00">src/graphics/debug</text>
<text text-anchor="middle" x="2738" y="-73" font-family="Helvetica,sans-Serif" font-size="10.00">/Colliders.cpp</text>
</a>
</g>
</g>
<!-- Node4&#45;&gt;Node16 -->
<g id="edge41_Node000004_Node000016" class="edge">
<title>Node4&#45;&gt;Node16</title>
<g id="a_edge41_Node000004_Node000016"><a xlink:title=" ">
<path fill="none" stroke="#63b8ff" d="M2262.45,-190.2C2359.64,-168.09 2580.81,-117.77 2683.61,-94.38"/>
<polygon fill="#63b8ff" stroke="#63b8ff" points="2261.59,-186.81 2252.61,-192.44 2263.14,-193.64 2261.59,-186.81"/>
</a>
</g>
</g>
<!-- Node18 -->
<g id="Node000018" class="node">
<title>Node18</title>
<g id="a_Node000018"><a xlink:href="Forces_8cpp.html" target="_top" xlink:title=" ">
<polygon fill="white" stroke="#666666" points="632,-30 524,-30 524,0 632,0 632,-30"/>
<text text-anchor="start" x="532" y="-18" font-family="Helvetica,sans-Serif" font-size="10.00">src/graphics/debug</text>
<text text-anchor="middle" x="578" y="-7" font-family="Helvetica,sans-Serif" font-size="10.00">/Forces.cpp</text>
</a>
</g>
</g>
<!-- Node4&#45;&gt;Node18 -->
<g id="edge42_Node000004_Node000018" class="edge">
<title>Node4&#45;&gt;Node18</title>
<g id="a_edge42_Node000004_Node000018"><a xlink:title=" ">
<path fill="none" stroke="#63b8ff" d="M2113.52,-199.29C1842.89,-194.4 1108.17,-178.9 867,-151 740.58,-136.37 671.68,-190.1 586,-96 569.74,-78.14 571.8,-47.89 574.85,-30.14"/>
<polygon fill="#63b8ff" stroke="#63b8ff" points="2113.67,-202.79 2123.73,-199.47 2113.8,-195.8 2113.67,-202.79"/>
</a>
</g>
</g>
<!-- Node19 -->
<g id="Node000019" class="node">
<title>Node19</title>
<g id="a_Node000019"><a xlink:href="PathTraces_8cpp.html" target="_top" xlink:title=" ">
<polygon fill="white" stroke="#666666" points="785,-30 677,-30 677,0 785,0 785,-30"/>
<text text-anchor="start" x="685" y="-18" font-family="Helvetica,sans-Serif" font-size="10.00">src/graphics/debug</text>
<text text-anchor="middle" x="731" y="-7" font-family="Helvetica,sans-Serif" font-size="10.00">/PathTraces.cpp</text>
</a>
</g>
</g>
<!-- Node4&#45;&gt;Node19 -->
<g id="edge43_Node000004_Node000019" class="edge">
<title>Node4&#45;&gt;Node19</title>
<g id="a_edge43_Node000004_Node000019"><a xlink:title=" ">
<path fill="none" stroke="#63b8ff" d="M2113.9,-200.57C1799.42,-198.31 853.3,-184.18 750,-96 731,-79.78 729.1,-48.35 729.8,-30.09"/>
<polygon fill="#63b8ff" stroke="#63b8ff" points="2113.9,-204.07 2123.92,-200.64 2113.94,-197.07 2113.9,-204.07"/>
</a>
</g>
</g>
<!-- Node21 -->
<g id="Node000021" class="node">
<title>Node21</title>
<g id="a_Node000021"><a xlink:href="AstronomyPresets_8cpp.html" target="_top" xlink:title=" ">
<polygon fill="white" stroke="#666666" points="2939.5,-96 2810.5,-96 2810.5,-66 2939.5,-66 2939.5,-96"/>
<text text-anchor="start" x="2818.5" y="-84" font-family="Helvetica,sans-Serif" font-size="10.00">src/graphics/presets</text>
<text text-anchor="middle" x="2875" y="-73" font-family="Helvetica,sans-Serif" font-size="10.00">/AstronomyPresets.cpp</text>
</a>
</g>
</g>
<!-- Node4&#45;&gt;Node21 -->
<g id="edge44_Node000004_Node000021" class="edge">
<title>Node4&#45;&gt;Node21</title>
<g id="a_edge44_Node000004_Node000021"><a xlink:title=" ">
<path fill="none" stroke="#63b8ff" d="M2273.78,-190.66C2379.39,-172.04 2608.19,-131.51 2801,-96 2804.09,-95.43 2807.24,-94.85 2810.43,-94.25"/>
<polygon fill="#63b8ff" stroke="#63b8ff" points="2272.89,-187.26 2263.65,-192.45 2274.1,-194.16 2272.89,-187.26"/>
</a>
</g>
</g>
<!-- Node4&#45;&gt;Node25 -->
<g id="edge48_Node000004_Node000025" class="edge">
<title>Node4&#45;&gt;Node25</title>
<g id="a_edge48_Node000004_Node000025"><a xlink:title=" ">
<path fill="none" stroke="#63b8ff" d="M2316.34,-200.17C2504.95,-197.75 2902.72,-188.24 3035,-151 3081.98,-137.77 3131.22,-105.87 3153.2,-90.53"/>
<polygon fill="#63b8ff" stroke="#63b8ff" points="2316.1,-196.67 2306.14,-200.3 2316.18,-203.67 2316.1,-196.67"/>
</a>
</g>
</g>
<!-- Node4&#45;&gt;Node27 -->
<g id="edge49_Node000004_Node000027" class="edge">
<title>Node4&#45;&gt;Node27</title>
<g id="a_edge49_Node000004_Node000027"><a xlink:title=" ">
<path fill="none" stroke="#63b8ff" d="M2316.27,-197.8C2510.64,-191.21 2929.37,-174.72 3072,-151 3146.72,-138.57 3231.22,-112.35 3279.79,-96.05"/>
<polygon fill="#63b8ff" stroke="#63b8ff" points="2315.94,-194.31 2306.06,-198.14 2316.17,-201.3 2315.94,-194.31"/>
</a>
</g>
</g>
<!-- Node4&#45;&gt;Node28 -->
<g id="edge50_Node000004_Node000028" class="edge">
<title>Node4&#45;&gt;Node28</title>
<g id="a_edge50_Node000004_Node000028"><a xlink:title=" ">
<path fill="none" stroke="#63b8ff" d="M2316.22,-200.16C2485.1,-197.72 2834.77,-188.16 3128,-151 3230.26,-138.04 3347.61,-112.19 3415.73,-96.07"/>
<polygon fill="#63b8ff" stroke="#63b8ff" points="2316.05,-196.67 2306.1,-200.3 2316.15,-203.66 2316.05,-196.67"/>
</a>
</g>
</g>
<!-- Node32 -->
<g id="Node000032" class="node">
<title>Node32</title>
<g id="a_Node000032"><a xlink:href="SceneSerializer_8h.html" target="_top" xlink:title=" ">
<polygon fill="white" stroke="#666666" points="539.5,-151 354.5,-151 354.5,-132 539.5,-132 539.5,-151"/>
<text text-anchor="middle" x="447" y="-139" font-family="Helvetica,sans-Serif" font-size="10.00">src/graphics/core/SceneSerializer.h</text>
</a>
</g>
</g>
<!-- Node4&#45;&gt;Node32 -->
<g id="edge38_Node000004_Node000032" class="edge">
<title>Node4&#45;&gt;Node32</title>
<g id="a_edge38_Node000004_Node000032"><a xlink:title=" ">
<path fill="none" stroke="#63b8ff" d="M2113.79,-199.71C1854.26,-196.04 1143.91,-183.56 553,-151 548.67,-150.76 544.24,-150.49 539.76,-150.21"/>
<polygon fill="#63b8ff" stroke="#63b8ff" points="2113.9,-203.22 2123.95,-199.86 2114,-196.22 2113.9,-203.22"/>
</a>
</g>
</g>
<!-- Node33 -->
<g id="Node000033" class="node">
<title>Node33</title>
<g id="a_Node000033"><a xlink:href="MainWindow_8h.html" target="_top" xlink:title=" ">
<polygon fill="white" stroke="#666666" points="3026.5,-151 2909.5,-151 2909.5,-132 3026.5,-132 3026.5,-151"/>
<text text-anchor="middle" x="2968" y="-139" font-family="Helvetica,sans-Serif" font-size="10.00">src/ui/MainWindow.h</text>
</a>
</g>
</g>
<!-- Node4&#45;&gt;Node33 -->
<g id="edge45_Node000004_Node000033" class="edge">
<title>Node4&#45;&gt;Node33</title>
<g id="a_edge45_Node000004_Node000033"><a xlink:title=" ">
<path fill="none" stroke="#63b8ff" d="M2316.52,-193.11C2476.31,-180.7 2781.46,-156.99 2909.33,-147.06"/>
<polygon fill="#63b8ff" stroke="#63b8ff" points="2315.9,-189.65 2306.2,-193.91 2316.45,-196.63 2315.9,-189.65"/>
</a>
</g>
</g>
<!-- Node8&#45;&gt;Node5 -->
<g id="edge8_Node000008_Node000005" class="edge">
<title>Node8&#45;&gt;Node5</title>
<g id="a_edge8_Node000008_Node000005"><a xlink:title=" ">
<path fill="none" stroke="#63b8ff" d="M1737.95,-139.96C1391.13,-137.76 220.12,-127.97 147,-96 115.54,-82.24 90.3,-49.27 77.71,-30.22"/>
<polygon fill="#63b8ff" stroke="#63b8ff" points="1737.94,-143.46 1747.96,-140.02 1737.99,-136.46 1737.94,-143.46"/>
</a>
</g>
</g>
<!-- Node8&#45;&gt;Node6 -->
<g id="edge16_Node000008_Node000006" class="edge">
<title>Node8&#45;&gt;Node6</title>
<g id="a_edge16_Node000008_Node000006"><a xlink:title=" ">
<path fill="none" stroke="#63b8ff" d="M1737.54,-140.79C1427.13,-141.31 471.36,-139.34 422,-96 401.49,-77.99 404.6,-41.33 407.31,-24.63"/>
<polygon fill="#63b8ff" stroke="#63b8ff" points="1737.87,-144.29 1747.86,-140.78 1737.86,-137.29 1737.87,-144.29"/>
</a>
</g>
</g>
<!-- Node8&#45;&gt;Node7 -->
<g id="edge17_Node000008_Node000007" class="edge">
<title>Node8&#45;&gt;Node7</title>
<g id="a_edge17_Node000008_Node000007"><a xlink:title=" ">
<path fill="none" stroke="#63b8ff" d="M1737.65,-135.97C1608.65,-129.45 1372.74,-115.98 1172,-96 1156.85,-94.49 1140.53,-92.51 1125.35,-90.52"/>
<polygon fill="#63b8ff" stroke="#63b8ff" points="1737.73,-139.47 1747.9,-136.48 1738.08,-132.48 1737.73,-139.47"/>
</a>
</g>
</g>
<!-- Node9 -->
<g id="Node000009" class="node">
<title>Node9</title>
<g id="a_Node000009"><a xlink:href="RotateHandle_8cpp.html" target="_top" xlink:title=" ">
<polygon fill="white" stroke="#666666" points="1352,-96 1214,-96 1214,-66 1352,-66 1352,-96"/>
<text text-anchor="start" x="1222" y="-84" font-family="Helvetica,sans-Serif" font-size="10.00">src/graphics/components</text>
<text text-anchor="middle" x="1283" y="-73" font-family="Helvetica,sans-Serif" font-size="10.00">/RotateHandle.cpp</text>
</a>
</g>
</g>
<!-- Node8&#45;&gt;Node9 -->
<g id="edge9_Node000008_Node000009" class="edge">
<title>Node8&#45;&gt;Node9</title>
<g id="a_edge9_Node000008_Node000009"><a xlink:title=" ">
<path fill="none" stroke="#63b8ff" d="M1737.63,-133.81C1641.85,-126.6 1490.9,-113.74 1361,-96 1358.14,-95.61 1355.22,-95.19 1352.27,-94.74"/>
<polygon fill="#63b8ff" stroke="#63b8ff" points="1737.64,-137.32 1747.87,-134.58 1738.16,-130.34 1737.64,-137.32"/>
</a>
</g>
</g>
<!-- Node10 -->
<g id="Node000010" class="node">
<title>Node10</title>
<g id="a_Node000010"><a xlink:href="ScaleHandle_8h.html" target="_top" xlink:title=" ">
<polygon fill="white" stroke="#666666" points="294,-96 156,-96 156,-66 294,-66 294,-96"/>
<text text-anchor="start" x="164" y="-84" font-family="Helvetica,sans-Serif" font-size="10.00">src/graphics/components</text>
<text text-anchor="middle" x="225" y="-73" font-family="Helvetica,sans-Serif" font-size="10.00">/ScaleHandle.h</text>
</a>
</g>
</g>
<!-- Node8&#45;&gt;Node10 -->
<g id="edge10_Node000008_Node000010" class="edge">
<title>Node8&#45;&gt;Node10</title>
<g id="a_edge10_Node000008_Node000010"><a xlink:title=" ">
<path fill="none" stroke="#63b8ff" d="M1737.49,-139.34C1505.16,-136.15 896.37,-125.45 389,-96 357.9,-94.2 323.56,-91.39 294.36,-88.76"/>
<polygon fill="#63b8ff" stroke="#63b8ff" points="1737.56,-142.84 1747.61,-139.48 1737.65,-135.84 1737.56,-142.84"/>
</a>
</g>
</g>
<!-- Node12 -->
<g id="Node000012" class="node">
<title>Node12</title>
<g id="a_Node000012"><a xlink:href="TranslateHandle_8cpp.html" target="_top" xlink:title=" ">
<polygon fill="white" stroke="#666666" points="1508,-96 1370,-96 1370,-66 1508,-66 1508,-96"/>
<text text-anchor="start" x="1378" y="-84" font-family="Helvetica,sans-Serif" font-size="10.00">src/graphics/components</text>
<text text-anchor="middle" x="1439" y="-73" font-family="Helvetica,sans-Serif" font-size="10.00">/TranslateHandle.cpp</text>
</a>
</g>
</g>
<!-- Node8&#45;&gt;Node12 -->
<g id="edge13_Node000008_Node000012" class="edge">
<title>Node8&#45;&gt;Node12</title>
<g id="a_edge13_Node000008_Node000012"><a xlink:title=" ">
<path fill="none" stroke="#63b8ff" d="M1757.96,-130.65C1693.67,-122.13 1599.17,-109.14 1517,-96 1514.15,-95.54 1511.24,-95.07 1508.3,-94.58"/>
<polygon fill="#63b8ff" stroke="#63b8ff" points="1757.64,-134.14 1768.02,-131.98 1758.56,-127.2 1757.64,-134.14"/>
</a>
</g>
</g>
<!-- Node13 -->
<g id="Node000013" class="node">
<title>Node13</title>
<g id="a_Node000013"><a xlink:href="Camera_8cpp.html" target="_top" xlink:title=" ">
<polygon fill="white" stroke="#666666" points="1687.5,-90.5 1526.5,-90.5 1526.5,-71.5 1687.5,-71.5 1687.5,-90.5"/>
<text text-anchor="middle" x="1607" y="-78.5" font-family="Helvetica,sans-Serif" font-size="10.00">src/graphics/core/Camera.cpp</text>
</a>
</g>
</g>
<!-- Node8&#45;&gt;Node13 -->
<g id="edge14_Node000008_Node000013" class="edge">
<title>Node8&#45;&gt;Node13</title>
<g id="a_edge14_Node000008_Node000013"><a xlink:title=" ">
<path fill="none" stroke="#63b8ff" d="M1791.19,-129.47C1747.3,-118.16 1679.99,-100.81 1640.05,-90.52"/>
<polygon fill="#63b8ff" stroke="#63b8ff" points="1790.44,-132.89 1800.99,-131.99 1792.18,-126.11 1790.44,-132.89"/>
</a>
</g>
</g>
<!-- Node14 -->
<g id="Node000014" class="node">
<title>Node14</title>
<g id="a_Node000014"><a xlink:href="Scene_8cpp.html" target="_top" xlink:title=" ">
<polygon fill="white" stroke="#666666" points="1858,-90.5 1706,-90.5 1706,-71.5 1858,-71.5 1858,-90.5"/>
<text text-anchor="middle" x="1782" y="-78.5" font-family="Helvetica,sans-Serif" font-size="10.00">src/graphics/core/Scene.cpp</text>
</a>
</g>
</g>
<!-- Node8&#45;&gt;Node14 -->
<g id="edge15_Node000008_Node000014" class="edge">
<title>Node8&#45;&gt;Node14</title>
<g id="a_edge15_Node000008_Node000014"><a xlink:title=" ">
<path fill="none" stroke="#63b8ff" d="M1819.57,-124.27C1809.9,-113.39 1797.55,-99.49 1789.7,-90.67"/>
<polygon fill="#63b8ff" stroke="#63b8ff" points="1817.07,-126.72 1826.33,-131.87 1822.3,-122.07 1817.07,-126.72"/>
</a>
</g>
</g>
<!-- Node15 -->
<g id="Node000015" class="node">
<title>Node15</title>
<g id="a_Node000015"><a xlink:href="SceneSerializer_8cpp.html" target="_top" xlink:title=" ">
<polygon fill="white" stroke="#666666" points="956.5,-90.5 759.5,-90.5 759.5,-71.5 956.5,-71.5 956.5,-90.5"/>
<text text-anchor="middle" x="858" y="-78.5" font-family="Helvetica,sans-Serif" font-size="10.00">src/graphics/core/SceneSerializer.cpp</text>
</a>
</g>
</g>
<!-- Node8&#45;&gt;Node15 -->
<g id="edge18_Node000008_Node000015" class="edge">
<title>Node8&#45;&gt;Node15</title>
<g id="a_edge18_Node000008_Node000015"><a xlink:title=" ">
<path fill="none" stroke="#63b8ff" d="M1737.48,-138.05C1576.91,-133.4 1244.89,-121.44 965,-96 949.23,-94.57 932.22,-92.55 916.5,-90.5"/>
<polygon fill="#63b8ff" stroke="#63b8ff" points="1737.71,-141.55 1747.81,-138.34 1737.91,-134.56 1737.71,-141.55"/>
</a>
</g>
</g>
<!-- Node8&#45;&gt;Node16 -->
<g id="edge19_Node000008_Node000016" class="edge">
<title>Node8&#45;&gt;Node16</title>
<g id="a_edge19_Node000008_Node000016"><a xlink:title=" ">
<path fill="none" stroke="#63b8ff" d="M1930.37,-140.47C2087.02,-139.28 2406.34,-132.12 2674,-96 2677.27,-95.56 2680.62,-95.04 2683.99,-94.46"/>
<polygon fill="#63b8ff" stroke="#63b8ff" points="1930.26,-136.97 1920.29,-140.54 1930.31,-143.97 1930.26,-136.97"/>
</a>
</g>
</g>
<!-- Node17 -->
<g id="Node000017" class="node">
<title>Node17</title>
<g id="a_Node000017"><a xlink:href="Forces_8h.html" target="_top" xlink:title=" ">
<polygon fill="white" stroke="#666666" points="539,-96 431,-96 431,-66 539,-66 539,-96"/>
<text text-anchor="start" x="439" y="-84" font-family="Helvetica,sans-Serif" font-size="10.00">src/graphics/debug</text>
<text text-anchor="middle" x="485" y="-73" font-family="Helvetica,sans-Serif" font-size="10.00">/Forces.h</text>
</a>
</g>
</g>
<!-- Node8&#45;&gt;Node17 -->
<g id="edge20_Node000008_Node000017" class="edge">
<title>Node8&#45;&gt;Node17</title>
<g id="a_edge20_Node000008_Node000017"><a xlink:title=" ">
<path fill="none" stroke="#63b8ff" d="M1737.9,-140.41C1528.29,-139.49 1014.47,-133.24 586,-96 570.74,-94.67 554.27,-92.65 539.14,-90.54"/>
<polygon fill="#63b8ff" stroke="#63b8ff" points="1737.94,-143.91 1747.95,-140.45 1737.96,-136.91 1737.94,-143.91"/>
</a>
</g>
</g>
<!-- Node8&#45;&gt;Node19 -->
<g id="edge23_Node000008_Node000019" class="edge">
<title>Node8&#45;&gt;Node19</title>
<g id="a_edge23_Node000008_Node000019"><a xlink:title=" ">
<path fill="none" stroke="#63b8ff" d="M1737.53,-140.43C1585.99,-139.19 1299.66,-131.97 1205,-96 1184.56,-88.23 1186.27,-74.21 1166,-66 1098.1,-38.48 885.85,-24.06 785.11,-18.61"/>
<polygon fill="#63b8ff" stroke="#63b8ff" points="1737.73,-143.93 1747.76,-140.51 1737.79,-136.93 1737.73,-143.93"/>
</a>
</g>
</g>
<!-- Node20 -->
<g id="Node000020" class="node">
<title>Node20</title>
<g id="a_Node000020"><a xlink:href="PathTraces_8h.html" target="_top" xlink:title=" ">
<polygon fill="white" stroke="#666666" points="703,-96 595,-96 595,-66 703,-66 703,-96"/>
<text text-anchor="start" x="603" y="-84" font-family="Helvetica,sans-Serif" font-size="10.00">src/graphics/debug</text>
<text text-anchor="middle" x="649" y="-73" font-family="Helvetica,sans-Serif" font-size="10.00">/PathTraces.h</text>
</a>
</g>
</g>
<!-- Node8&#45;&gt;Node20 -->
<g id="edge24_Node000008_Node000020" class="edge">
<title>Node8&#45;&gt;Node20</title>
<g id="a_edge24_Node000008_Node000020"><a xlink:title=" ">
<path fill="none" stroke="#63b8ff" d="M1737.53,-139.67C1547.95,-137.34 1113.59,-128.59 750,-96 734.75,-94.63 718.27,-92.59 703.14,-90.49"/>
<polygon fill="#63b8ff" stroke="#63b8ff" points="1737.71,-143.17 1747.75,-139.79 1737.79,-136.17 1737.71,-143.17"/>
</a>
</g>
</g>
<!-- Node8&#45;&gt;Node21 -->
<g id="edge27_Node000008_Node000021" class="edge">
<title>Node8&#45;&gt;Node21</title>
<g id="a_edge27_Node000008_Node000021"><a xlink:title=" ">
<path fill="none" stroke="#63b8ff" d="M1930.2,-140.55C2104.45,-139.65 2483.7,-133.13 2801,-96 2803.99,-95.65 2807.03,-95.25 2810.11,-94.81"/>
<polygon fill="#63b8ff" stroke="#63b8ff" points="1930.01,-137.05 1920.03,-140.6 1930.05,-144.05 1930.01,-137.05"/>
</a>
</g>
</g>
<!-- Node22 -->
<g id="Node000022" class="node">
<title>Node22</title>
<g id="a_Node000022"><a xlink:href="HierarchyWidget_8h.html" target="_top" xlink:title=" ">
<polygon fill="white" stroke="#666666" points="2013.5,-90.5 1876.5,-90.5 1876.5,-71.5 2013.5,-71.5 2013.5,-90.5"/>
<text text-anchor="middle" x="1945" y="-78.5" font-family="Helvetica,sans-Serif" font-size="10.00">src/ui/HierarchyWidget.h</text>
</a>
</g>
</g>
<!-- Node8&#45;&gt;Node22 -->
<g id="edge28_Node000008_Node000022" class="edge">
<title>Node8&#45;&gt;Node22</title>
<g id="a_edge28_Node000008_Node000022"><a xlink:title=" ">
<path fill="none" stroke="#63b8ff" d="M1859.47,-127.08C1880.71,-115.88 1910.33,-100.27 1928.55,-90.67"/>
<polygon fill="#63b8ff" stroke="#63b8ff" points="1857.59,-124.11 1850.38,-131.87 1860.86,-130.3 1857.59,-124.11"/>
</a>
</g>
</g>
<!-- Node8&#45;&gt;Node25 -->
<g id="edge31_Node000008_Node000025" class="edge">
<title>Node8&#45;&gt;Node25</title>
<g id="a_edge31_Node000008_Node000025"><a xlink:title=" ">
<path fill="none" stroke="#63b8ff" d="M1930.62,-138.76C2183.53,-133.92 2860.84,-119.15 3084,-96 3096.49,-94.7 3109.97,-92.64 3122.27,-90.5"/>
<polygon fill="#63b8ff" stroke="#63b8ff" points="1930.28,-135.26 1920.35,-138.95 1930.41,-142.26 1930.28,-135.26"/>
</a>
</g>
</g>
<!-- Node26 -->
<g id="Node000026" class="node">
<title>Node26</title>
<g id="a_Node000026"><a xlink:href="ForcesInspectorWidget_8cpp.html" target="_top" xlink:title=" ">
<polygon fill="white" stroke="#666666" points="2202,-96 2032,-96 2032,-66 2202,-66 2202,-96"/>
<text text-anchor="start" x="2040" y="-84" font-family="Helvetica,sans-Serif" font-size="10.00">src/ui/inspector/ForcesInspector</text>
<text text-anchor="middle" x="2117" y="-73" font-family="Helvetica,sans-Serif" font-size="10.00">Widget.cpp</text>
</a>
</g>
</g>
<!-- Node8&#45;&gt;Node26 -->
<g id="edge32_Node000008_Node000026" class="edge">
<title>Node8&#45;&gt;Node26</title>
<g id="a_edge32_Node000008_Node000026"><a xlink:title=" ">
<path fill="none" stroke="#63b8ff" d="M1885.18,-129.92C1931.1,-120.43 1998.83,-106.43 2049.24,-96.01"/>
<polygon fill="#63b8ff" stroke="#63b8ff" points="1884.24,-126.54 1875.15,-131.99 1885.65,-133.4 1884.24,-126.54"/>
</a>
</g>
</g>
<!-- Node8&#45;&gt;Node27 -->
<g id="edge33_Node000008_Node000027" class="edge">
<title>Node8&#45;&gt;Node27</title>
<g id="a_edge33_Node000008_Node000027"><a xlink:title=" ">
<path fill="none" stroke="#63b8ff" d="M1930.78,-139.38C2205.98,-135.88 2989.55,-123.71 3245,-96 3248.03,-95.67 3251.12,-95.29 3254.23,-94.86"/>
<polygon fill="#63b8ff" stroke="#63b8ff" points="1930.37,-135.88 1920.42,-139.51 1930.46,-142.88 1930.37,-135.88"/>
</a>
</g>
</g>
<!-- Node8&#45;&gt;Node28 -->
<g id="edge34_Node000008_Node000028" class="edge">
<title>Node8&#45;&gt;Node28</title>
<g id="a_edge34_Node000008_Node000028"><a xlink:title=" ">
<path fill="none" stroke="#63b8ff" d="M1930.63,-139.6C2225.04,-136.58 3108.14,-125.25 3394,-96 3397.05,-95.69 3400.16,-95.33 3403.29,-94.93"/>
<polygon fill="#63b8ff" stroke="#63b8ff" points="1930.37,-136.11 1920.41,-139.71 1930.44,-143.11 1930.37,-136.11"/>
</a>
</g>
</g>
<!-- Node29 -->
<g id="Node000029" class="node">
<title>Node29</title>
<g id="a_Node000029"><a xlink:href="PhysicsInspectorWidget_8cpp.html" target="_top" xlink:title=" ">
<polygon fill="white" stroke="#666666" points="2351.5,-96 2220.5,-96 2220.5,-66 2351.5,-66 2351.5,-96"/>
<text text-anchor="start" x="2228.5" y="-84" font-family="Helvetica,sans-Serif" font-size="10.00">src/ui/inspector/Physics</text>
<text text-anchor="middle" x="2286" y="-73" font-family="Helvetica,sans-Serif" font-size="10.00">InspectorWidget.cpp</text>
</a>
</g>
</g>
<!-- Node8&#45;&gt;Node29 -->
<g id="edge35_Node000008_Node000029" class="edge">
<title>Node8&#45;&gt;Node29</title>
<g id="a_edge35_Node000008_Node000029"><a xlink:title=" ">
<path fill="none" stroke="#63b8ff" d="M1930.39,-130.92C2006.71,-122.91 2115.91,-110.47 2211,-96 2214.01,-95.54 2217.09,-95.05 2220.19,-94.54"/>
<polygon fill="#63b8ff" stroke="#63b8ff" points="1929.9,-127.45 1920.32,-131.97 1930.63,-134.42 1929.9,-127.45"/>
</a>
</g>
</g>
<!-- Node30 -->
<g id="Node000030" class="node">
<title>Node30</title>
<g id="a_Node000030"><a xlink:href="ThermalInspectorWidget_8cpp.html" target="_top" xlink:title=" ">
<polygon fill="white" stroke="#666666" points="2504,-96 2370,-96 2370,-66 2504,-66 2504,-96"/>
<text text-anchor="start" x="2378" y="-84" font-family="Helvetica,sans-Serif" font-size="10.00">src/ui/inspector/Thermal</text>
<text text-anchor="middle" x="2437" y="-73" font-family="Helvetica,sans-Serif" font-size="10.00">InspectorWidget.cpp</text>
</a>
</g>
</g>
<!-- Node8&#45;&gt;Node30 -->
<g id="edge36_Node000008_Node000030" class="edge">
<title>Node8&#45;&gt;Node30</title>
<g id="a_edge36_Node000008_Node000030"><a xlink:title=" ">
<path fill="none" stroke="#63b8ff" d="M1930.39,-135.11C2036.1,-128.56 2210.61,-115.85 2360,-96 2363.23,-95.57 2366.54,-95.1 2369.87,-94.6"/>
<polygon fill="#63b8ff" stroke="#63b8ff" points="1930.14,-131.62 1920.37,-135.73 1930.57,-138.61 1930.14,-131.62"/>
</a>
</g>
</g>
<!-- Node31 -->
<g id="Node000031" class="node">
<title>Node31</title>
<g id="a_Node000031"><a xlink:href="TransformInspectorWidget_8cpp.html" target="_top" xlink:title=" ">
<polygon fill="white" stroke="#666666" points="2665.5,-96 2522.5,-96 2522.5,-66 2665.5,-66 2665.5,-96"/>
<text text-anchor="start" x="2530.5" y="-84" font-family="Helvetica,sans-Serif" font-size="10.00">src/ui/inspector/Transform</text>
<text text-anchor="middle" x="2594" y="-73" font-family="Helvetica,sans-Serif" font-size="10.00">InspectorWidget.cpp</text>
</a>
</g>
</g>
<!-- Node8&#45;&gt;Node31 -->
<g id="edge37_Node000008_Node000031" class="edge">
<title>Node8&#45;&gt;Node31</title>
<g id="a_edge37_Node000008_Node000031"><a xlink:title=" ">
<path fill="none" stroke="#63b8ff" d="M1930.09,-137.4C2061.91,-132.42 2306.06,-120.59 2513,-96 2515.98,-95.65 2519.01,-95.26 2522.07,-94.84"/>
<polygon fill="#63b8ff" stroke="#63b8ff" points="1929.88,-133.91 1920.02,-137.78 1930.14,-140.9 1929.88,-133.91"/>
</a>
</g>
</g>
<!-- Node10&#45;&gt;Node5 -->
<g id="edge11_Node000010_Node000005" class="edge">
<title>Node10&#45;&gt;Node5</title>
<g id="a_edge11_Node000010_Node000005"><a xlink:title=" ">
<path fill="none" stroke="#63b8ff" d="M181.26,-62.05C156.54,-51.91 126.1,-39.43 103.16,-30.01"/>
<polygon fill="#63b8ff" stroke="#63b8ff" points="180.18,-65.4 190.77,-65.95 182.84,-58.92 180.18,-65.4"/>
</a>
</g>
</g>
<!-- Node11 -->
<g id="Node000011" class="node">
<title>Node11</title>
<g id="a_Node000011"><a xlink:href="ScaleHandle_8cpp.html" target="_top" xlink:title=" ">
<polygon fill="white" stroke="#666666" points="294,-30 156,-30 156,0 294,0 294,-30"/>
<text text-anchor="start" x="164" y="-18" font-family="Helvetica,sans-Serif" font-size="10.00">src/graphics/components</text>
<text text-anchor="middle" x="225" y="-7" font-family="Helvetica,sans-Serif" font-size="10.00">/ScaleHandle.cpp</text>
</a>
</g>
</g>
<!-- Node10&#45;&gt;Node11 -->
<g id="edge12_Node000010_Node000011" class="edge">
<title>Node10&#45;&gt;Node11</title>
<g id="a_edge12_Node000010_Node000011"><a xlink:title=" ">
<path fill="none" stroke="#63b8ff" d="M225,-55.54C225,-46.96 225,-37.61 225,-30.16"/>
<polygon fill="#63b8ff" stroke="#63b8ff" points="221.5,-55.8 225,-65.8 228.5,-55.8 221.5,-55.8"/>
</a>
</g>
</g>
<!-- Node17&#45;&gt;Node6 -->
<g id="edge21_Node000017_Node000006" class="edge">
<title>Node17&#45;&gt;Node6</title>
<g id="a_edge21_Node000017_Node000006"><a xlink:title=" ">
<path fill="none" stroke="#63b8ff" d="M460.37,-59.26C446.54,-47.61 430.01,-33.69 419.5,-24.84"/>
<polygon fill="#63b8ff" stroke="#63b8ff" points="458.23,-62.03 468.13,-65.8 462.74,-56.68 458.23,-62.03"/>
</a>
</g>
</g>
<!-- Node17&#45;&gt;Node18 -->
<g id="edge22_Node000017_Node000018" class="edge">
<title>Node17&#45;&gt;Node18</title>
<g id="a_edge22_Node000017_Node000018"><a xlink:title=" ">
<path fill="none" stroke="#63b8ff" d="M514.02,-60.03C528.09,-50.34 544.67,-38.94 557.42,-30.16"/>
<polygon fill="#63b8ff" stroke="#63b8ff" points="511.89,-57.24 505.64,-65.8 515.86,-63.01 511.89,-57.24"/>
</a>
</g>
</g>
<!-- Node20&#45;&gt;Node6 -->
<g id="edge25_Node000020_Node000006" class="edge">
<title>Node20&#45;&gt;Node6</title>
<g id="a_edge25_Node000020_Node000006"><a xlink:title=" ">
<path fill="none" stroke="#63b8ff" d="M586.61,-63.36C539.93,-50.91 477.98,-34.4 440.94,-24.52"/>
<polygon fill="#63b8ff" stroke="#63b8ff" points="585.77,-66.76 596.33,-65.95 587.57,-60 585.77,-66.76"/>
</a>
</g>
</g>
<!-- Node20&#45;&gt;Node19 -->
<g id="edge26_Node000020_Node000019" class="edge">
<title>Node20&#45;&gt;Node19</title>
<g id="a_edge26_Node000020_Node000019"><a xlink:title=" ">
<path fill="none" stroke="#63b8ff" d="M675.29,-59.48C687.55,-49.91 701.82,-38.77 712.85,-30.16"/>
<polygon fill="#63b8ff" stroke="#63b8ff" points="672.93,-56.88 667.2,-65.8 677.24,-62.4 672.93,-56.88"/>
</a>
</g>
</g>
<!-- Node23 -->
<g id="Node000023" class="node">
<title>Node23</title>
<g id="a_Node000023"><a xlink:href="HierarchyWidget_8cpp.html" target="_top" xlink:title=" ">
<polygon fill="white" stroke="#666666" points="2019,-24.5 1871,-24.5 1871,-5.5 2019,-5.5 2019,-24.5"/>
<text text-anchor="middle" x="1945" y="-12.5" font-family="Helvetica,sans-Serif" font-size="10.00">src/ui/HierarchyWidget.cpp</text>
</a>
</g>
</g>
<!-- Node22&#45;&gt;Node23 -->
<g id="edge29_Node000022_Node000023" class="edge">
<title>Node22&#45;&gt;Node23</title>
<g id="a_edge29_Node000022_Node000023"><a xlink:title=" ">
<path fill="none" stroke="#63b8ff" d="M1945,-61.08C1945,-49.13 1945,-34.22 1945,-24.91"/>
<polygon fill="#63b8ff" stroke="#63b8ff" points="1941.5,-61.37 1945,-71.37 1948.5,-61.37 1941.5,-61.37"/>
</a>
</g>
</g>
<!-- Node24 -->
<g id="Node000024" class="node">
<title>Node24</title>
<g id="a_Node000024"><a xlink:href="MainWindow_8cpp.html" target="_top" xlink:title=" ">
<polygon fill="white" stroke="#666666" points="2598,-24.5 2470,-24.5 2470,-5.5 2598,-5.5 2598,-24.5"/>
<text text-anchor="middle" x="2534" y="-12.5" font-family="Helvetica,sans-Serif" font-size="10.00">src/ui/MainWindow.cpp</text>
</a>
</g>
</g>
<!-- Node22&#45;&gt;Node24 -->
<g id="edge30_Node000022_Node000024" class="edge">
<title>Node22&#45;&gt;Node24</title>
<g id="a_edge30_Node000022_Node000024"><a xlink:title=" ">
<path fill="none" stroke="#63b8ff" d="M1999.06,-69.72C2007.07,-68.36 2015.24,-67.07 2023,-66 2183.04,-43.84 2372.61,-28 2469.67,-20.63"/>
<polygon fill="#63b8ff" stroke="#63b8ff" points="1998.29,-66.3 1989.04,-71.46 1999.49,-73.2 1998.29,-66.3"/>
</a>
</g>
</g>
<!-- Node32&#45;&gt;Node6 -->
<g id="edge39_Node000032_Node000006" class="edge">
<title>Node32&#45;&gt;Node6</title>
<g id="a_edge39_Node000032_Node000006"><a xlink:title=" ">
<path fill="none" stroke="#63b8ff" d="M419.64,-126.89C407.93,-119.5 395.49,-109.15 389,-96 377.1,-71.86 393.46,-40.03 403,-24.83"/>
<polygon fill="#63b8ff" stroke="#63b8ff" points="417.93,-129.95 428.33,-131.97 421.46,-123.9 417.93,-129.95"/>
</a>
</g>
</g>
<!-- Node32&#45;&gt;Node15 -->
<g id="edge40_Node000032_Node000015" class="edge">
<title>Node32&#45;&gt;Node15</title>
<g id="a_edge40_Node000032_Node000015"><a xlink:title=" ">
<path fill="none" stroke="#63b8ff" d="M517.12,-130.52C596.23,-119.26 723.56,-101.14 798.16,-90.52"/>
<polygon fill="#63b8ff" stroke="#63b8ff" points="516.17,-127.12 506.76,-131.99 517.16,-134.05 516.17,-127.12"/>
</a>
</g>
</g>
<!-- Node33&#45;&gt;Node24 -->
<g id="edge47_Node000033_Node000024" class="edge">
<title>Node33&#45;&gt;Node24</title>
<g id="a_edge47_Node000033_Node000024"><a xlink:title=" ">
<path fill="none" stroke="#63b8ff" d="M2968.46,-121.77C2967.79,-104.57 2963.85,-79.75 2948,-66 2897.06,-21.83 2701.11,-15.47 2598.11,-15.28"/>
<polygon fill="#63b8ff" stroke="#63b8ff" points="2964.96,-121.79 2968.52,-131.77 2971.96,-121.75 2964.96,-121.79"/>
</a>
</g>
</g>
<!-- Node34 -->
<g id="Node000034" class="node">
<title>Node34</title>
<g id="a_Node000034"><a xlink:href="main_8cpp.html" target="_top" xlink:title=" ">
<polygon fill="white" stroke="#666666" points="3075.5,-90.5 2996.5,-90.5 2996.5,-71.5 3075.5,-71.5 3075.5,-90.5"/>
<text text-anchor="middle" x="3036" y="-78.5" font-family="Helvetica,sans-Serif" font-size="10.00">src/main.cpp</text>
</a>
</g>
</g>
<!-- Node33&#45;&gt;Node34 -->
<g id="edge46_Node000033_Node000034" class="edge">
<title>Node33&#45;&gt;Node34</title>
<g id="a_edge46_Node000033_Node000034"><a xlink:title=" ">
<path fill="none" stroke="#63b8ff" d="M2985.76,-125.22C2998.55,-114.21 3015.36,-99.75 3025.93,-90.67"/>
<polygon fill="#63b8ff" stroke="#63b8ff" points="2983.33,-122.69 2978.03,-131.87 2987.9,-128 2983.33,-122.69"/>
</a>
</g>
</g>
<!-- Node40&#45;&gt;Node3 -->
<g id="edge61_Node000040_Node000003" class="edge">
<title>Node40&#45;&gt;Node3</title>
<g id="a_edge61_Node000040_Node000003"><a xlink:title=" ">
<path fill="none" stroke="#63b8ff" d="M3372.67,-309.61C3367.32,-298.56 3361.25,-286.03 3357.28,-277.84"/>
<polygon fill="#63b8ff" stroke="#63b8ff" points="3369.61,-311.32 3377.12,-318.8 3375.91,-308.27 3369.61,-311.32"/>
</a>
</g>
</g>
<!-- Node40&#45;&gt;Node37 -->
<g id="edge62_Node000040_Node000037" class="edge">
<title>Node40&#45;&gt;Node37</title>
<g id="a_edge62_Node000040_Node000037"><a xlink:title=" ">
<path fill="none" stroke="#63b8ff" d="M3407.5,-311.99C3432.86,-289.52 3470.75,-256.59 3479,-253 3600.52,-200.12 3644.42,-239.62 3775,-217 3777.72,-216.53 3780.5,-216.02 3783.3,-215.48"/>
<polygon fill="#63b8ff" stroke="#63b8ff" points="3404.91,-309.61 3399.76,-318.87 3409.56,-314.84 3404.91,-309.61"/>
</a>
</g>
</g>
</g>
</svg>
