<?xml version="1.0" encoding="UTF-8" standalone="no"?>
<!DOCTYPE svg PUBLIC "-//W3C//DTD SVG 1.1//EN"
 "http://www.w3.org/Graphics/SVG/1.1/DTD/svg11.dtd">
<!-- Generated by graphviz version 2.43.0 (0)
 -->
<!-- Title: src/physics/spatial/NodeIndex.h Pages: 1 -->
<svg width="3750pt" height="423pt"
 viewBox="0.00 0.00 3749.80 423.00" xmlns="http://www.w3.org/2000/svg" xmlns:xlink="http://www.w3.org/1999/xlink">
<g id="graph0" class="graph" transform="scale(1 1) rotate(0) translate(4 419)">
<title>src/physics/spatial/NodeIndex.h</title>
<!-- Node1 -->
<g id="Node000001" class="node">
<title>Node1</title>
<g id="a_Node000001"><a xlink:title=" ">
<polygon fill="#999999" stroke="#666666" points="3256.8,-415 3149.8,-415 3149.8,-385 3256.8,-385 3256.8,-415"/>
<text text-anchor="start" x="3157.8" y="-403" font-family="Helvetica,sans-Serif" font-size="10.00">src/physics/spatial</text>
<text text-anchor="middle" x="3203.3" y="-392" font-family="Helvetica,sans-Serif" font-size="10.00">/NodeIndex.h</text>
</a>
</g>
</g>
<!-- Node2 -->
<g id="Node000002" class="node">
<title>Node2</title>
<g id="a_Node000002"><a xlink:href="BVH_8h.html" target="_top" xlink:title=" ">
<polygon fill="white" stroke="#666666" points="3194.8,-349 3087.8,-349 3087.8,-319 3194.8,-319 3194.8,-349"/>
<text text-anchor="start" x="3095.8" y="-337" font-family="Helvetica,sans-Serif" font-size="10.00">src/physics/spatial</text>
<text text-anchor="middle" x="3141.3" y="-326" font-family="Helvetica,sans-Serif" font-size="10.00">/BVH.h</text>
</a>
</g>
</g>
<!-- Node1&#45;&gt;Node2 -->
<g id="edge1_Node000001_Node000002" class="edge">
<title>Node1&#45;&gt;Node2</title>
<g id="a_edge1_Node000001_Node000002"><a xlink:title=" ">
<path fill="none" stroke="#63b8ff" d="M3182.34,-377.37C3173.33,-368.06 3163.04,-357.44 3155.02,-349.16"/>
<polygon fill="#63b8ff" stroke="#63b8ff" points="3180.07,-380.05 3189.54,-384.8 3185.1,-375.18 3180.07,-380.05"/>
</a>
</g>
</g>
<!-- Node38 -->
<g id="Node000038" class="node">
<title>Node38</title>
<g id="a_Node000038"><a xlink:href="Octree_8h.html" target="_top" xlink:title=" ">
<polygon fill="white" stroke="#666666" points="3319.8,-349 3212.8,-349 3212.8,-319 3319.8,-319 3319.8,-349"/>
<text text-anchor="start" x="3220.8" y="-337" font-family="Helvetica,sans-Serif" font-size="10.00">src/physics/spatial</text>
<text text-anchor="middle" x="3266.3" y="-326" font-family="Helvetica,sans-Serif" font-size="10.00">/Octree.h</text>
</a>
</g>
</g>
<!-- Node1&#45;&gt;Node38 -->
<g id="edge55_Node000001_Node000038" class="edge">
<title>Node1&#45;&gt;Node38</title>
<g id="a_edge55_Node000001_Node000038"><a xlink:title=" ">
<path fill="none" stroke="#63b8ff" d="M3224.32,-377.65C3233.55,-368.27 3244.13,-357.53 3252.36,-349.16"/>
<polygon fill="#63b8ff" stroke="#63b8ff" points="3221.8,-375.21 3217.28,-384.8 3226.79,-380.13 3221.8,-375.21"/>
</a>
</g>
</g>
<!-- Node3 -->
<g id="Node000003" class="node">
<title>Node3</title>
<g id="a_Node000003"><a xlink:href="PhysicsSystem_8h.html" target="_top" xlink:title=" ">
<polygon fill="white" stroke="#666666" points="3282.3,-277.5 3126.3,-277.5 3126.3,-258.5 3282.3,-258.5 3282.3,-277.5"/>
<text text-anchor="middle" x="3204.3" y="-265.5" font-family="Helvetica,sans-Serif" font-size="10.00">src/physics/PhysicsSystem.h</text>
</a>
</g>
</g>
<!-- Node2&#45;&gt;Node3 -->
<g id="edge2_Node000002_Node000003" class="edge">
<title>Node2&#45;&gt;Node3</title>
<g id="a_edge2_Node000002_Node000003"><a xlink:title=" ">
<path fill="none" stroke="#63b8ff" d="M3162.36,-311.6C3173.69,-300.1 3187.05,-286.52 3195.6,-277.84"/>
<polygon fill="#63b8ff" stroke="#63b8ff" points="3159.8,-309.21 3155.28,-318.8 3164.79,-314.13 3159.8,-309.21"/>
</a>
</g>
</g>
<!-- Node37 -->
<g id="Node000037" class="node">
<title>Node37</title>
<g id="a_Node000037"><a xlink:href="BVH_8cpp.html" target="_top" xlink:title=" ">
<polygon fill="white" stroke="#666666" points="3107.8,-283 3000.8,-283 3000.8,-253 3107.8,-253 3107.8,-283"/>
<text text-anchor="start" x="3008.8" y="-271" font-family="Helvetica,sans-Serif" font-size="10.00">src/physics/spatial</text>
<text text-anchor="middle" x="3054.3" y="-260" font-family="Helvetica,sans-Serif" font-size="10.00">/BVH.cpp</text>
</a>
</g>
</g>
<!-- Node2&#45;&gt;Node37 -->
<g id="edge54_Node000002_Node000037" class="edge">
<title>Node2&#45;&gt;Node37</title>
<g id="a_edge54_Node000002_Node000037"><a xlink:title=" ">
<path fill="none" stroke="#63b8ff" d="M3113.78,-312.75C3100.69,-303.13 3085.37,-291.86 3073.56,-283.16"/>
<polygon fill="#63b8ff" stroke="#63b8ff" points="3111.86,-315.69 3121.99,-318.8 3116.01,-310.05 3111.86,-315.69"/>
</a>
</g>
</g>
<!-- Node4 -->
<g id="Node000004" class="node">
<title>Node4</title>
<g id="a_Node000004"><a xlink:href="SceneManager_8h.html" target="_top" xlink:title=" ">
<polygon fill="white" stroke="#666666" points="2590.3,-211.5 2408.3,-211.5 2408.3,-192.5 2590.3,-192.5 2590.3,-211.5"/>
<text text-anchor="middle" x="2499.3" y="-199.5" font-family="Helvetica,sans-Serif" font-size="10.00">src/graphics/core/SceneManager.h</text>
</a>
</g>
</g>
<!-- Node3&#45;&gt;Node4 -->
<g id="edge3_Node000003_Node000004" class="edge">
<title>Node3&#45;&gt;Node4</title>
<g id="a_edge3_Node000003_Node000004"><a xlink:title=" ">
<path fill="none" stroke="#63b8ff" d="M3145.15,-256.95C3135.53,-255.5 3125.65,-254.12 3116.3,-253 2930.1,-230.68 2711.06,-215.56 2590.47,-208.19"/>
<polygon fill="#63b8ff" stroke="#63b8ff" points="3144.64,-260.41 3155.06,-258.48 3145.71,-253.5 3144.64,-260.41"/>
</a>
</g>
</g>
<!-- Node8 -->
<g id="Node000008" class="node">
<title>Node8</title>
<g id="a_Node000008"><a xlink:href="SceneObject_8h.html" target="_top" xlink:title=" ">
<polygon fill="white" stroke="#666666" points="1460.3,-151 1288.3,-151 1288.3,-132 1460.3,-132 1460.3,-151"/>
<text text-anchor="middle" x="1374.3" y="-139" font-family="Helvetica,sans-Serif" font-size="10.00">src/graphics/core/SceneObject.h</text>
</a>
</g>
</g>
<!-- Node3&#45;&gt;Node8 -->
<g id="edge46_Node000003_Node000008" class="edge">
<title>Node3&#45;&gt;Node8</title>
<g id="a_edge46_Node000003_Node000008"><a xlink:title=" ">
<path fill="none" stroke="#63b8ff" d="M3146.55,-256.9C3136.49,-255.41 3126.11,-254.02 3116.3,-253 2798.96,-219.89 2717.77,-236.57 2399.3,-217 2050.92,-195.6 1636.44,-163.4 1460.31,-149.41"/>
<polygon fill="#63b8ff" stroke="#63b8ff" points="3146.05,-260.37 3156.47,-258.43 3147.12,-253.45 3146.05,-260.37"/>
</a>
</g>
</g>
<!-- Node25 -->
<g id="Node000025" class="node">
<title>Node25</title>
<g id="a_Node000025"><a xlink:href="GlobalsInspectorWidget_8cpp.html" target="_top" xlink:title=" ">
<polygon fill="white" stroke="#666666" points="2503.8,-96 2372.8,-96 2372.8,-66 2503.8,-66 2503.8,-96"/>
<text text-anchor="start" x="2380.8" y="-84" font-family="Helvetica,sans-Serif" font-size="10.00">src/ui/inspector/Globals</text>
<text text-anchor="middle" x="2438.3" y="-73" font-family="Helvetica,sans-Serif" font-size="10.00">InspectorWidget.cpp</text>
</a>
</g>
</g>
<!-- Node3&#45;&gt;Node25 -->
<g id="edge51_Node000003_Node000025" class="edge">
<title>Node3&#45;&gt;Node25</title>
<g id="a_edge51_Node000003_Node000025"><a xlink:title=" ">
<path fill="none" stroke="#63b8ff" d="M3186.48,-251.43C3176.03,-241.93 3162.86,-229.29 3152.3,-217 3122.17,-181.93 3132.63,-154.63 3092.3,-132 2987.22,-73.04 2671.25,-107.41 2551.3,-96 2535.95,-94.54 2519.47,-92.67 2503.96,-90.77"/>
<polygon fill="#63b8ff" stroke="#63b8ff" points="3184.38,-254.25 3194.17,-258.3 3189.05,-249.03 3184.38,-254.25"/>
</a>
</g>
</g>
<!-- Node26 -->
<g id="Node000026" class="node">
<title>Node26</title>
<g id="a_Node000026"><a xlink:href="InspectorWidget_8cpp.html" target="_top" xlink:title=" ">
<polygon fill="white" stroke="#666666" points="2699.8,-96 2560.8,-96 2560.8,-66 2699.8,-66 2699.8,-96"/>
<text text-anchor="start" x="2568.8" y="-84" font-family="Helvetica,sans-Serif" font-size="10.00">src/ui/inspector/Inspector</text>
<text text-anchor="middle" x="2630.3" y="-73" font-family="Helvetica,sans-Serif" font-size="10.00">Widget.cpp</text>
</a>
</g>
</g>
<!-- Node3&#45;&gt;Node26 -->
<g id="edge52_Node000003_Node000026" class="edge">
<title>Node3&#45;&gt;Node26</title>
<g id="a_edge52_Node000003_Node000026"><a xlink:title=" ">
<path fill="none" stroke="#63b8ff" d="M3191.26,-250.28C3184.1,-240.77 3175.29,-228.5 3168.3,-217 3146.31,-180.82 3160.21,-155.96 3125.3,-132 3108.02,-120.14 2832.31,-97.52 2700.05,-87.27"/>
<polygon fill="#63b8ff" stroke="#63b8ff" points="3188.64,-252.62 3197.5,-258.43 3194.2,-248.36 3188.64,-252.62"/>
</a>
</g>
</g>
<!-- Node32 -->
<g id="Node000032" class="node">
<title>Node32</title>
<g id="a_Node000032"><a xlink:href="OpenGLWindow_8cpp.html" target="_top" xlink:title=" ">
<polygon fill="white" stroke="#666666" points="3083.3,-151 2941.3,-151 2941.3,-132 3083.3,-132 3083.3,-151"/>
<text text-anchor="middle" x="3012.3" y="-139" font-family="Helvetica,sans-Serif" font-size="10.00">src/ui/OpenGLWindow.cpp</text>
</a>
</g>
</g>
<!-- Node3&#45;&gt;Node32 -->
<g id="edge50_Node000003_Node000032" class="edge">
<title>Node3&#45;&gt;Node32</title>
<g id="a_edge50_Node000003_Node000032"><a xlink:title=" ">
<path fill="none" stroke="#63b8ff" d="M3171.69,-254.59C3149.82,-245.6 3120.83,-232.36 3097.3,-217 3066.41,-196.83 3035.05,-166.11 3020.57,-151.21"/>
<polygon fill="#63b8ff" stroke="#63b8ff" points="3170.61,-257.93 3181.19,-258.41 3173.22,-251.43 3170.61,-257.93"/>
</a>
</g>
</g>
<!-- Node33 -->
<g id="Node000033" class="node">
<title>Node33</title>
<g id="a_Node000033"><a xlink:href="PhysicsSystem_8cpp.html" target="_top" xlink:title=" ">
<polygon fill="white" stroke="#666666" points="3343.8,-211.5 3176.8,-211.5 3176.8,-192.5 3343.8,-192.5 3343.8,-211.5"/>
<text text-anchor="middle" x="3260.3" y="-199.5" font-family="Helvetica,sans-Serif" font-size="10.00">src/physics/PhysicsSystem.cpp</text>
</a>
</g>
</g>
<!-- Node3&#45;&gt;Node33 -->
<g id="edge47_Node000003_Node000033" class="edge">
<title>Node3&#45;&gt;Node33</title>
<g id="a_edge47_Node000003_Node000033"><a xlink:title=" ">
<path fill="none" stroke="#63b8ff" d="M3218.63,-250.62C3229.41,-238.31 3243.77,-221.89 3252.51,-211.91"/>
<polygon fill="#63b8ff" stroke="#63b8ff" points="3215.8,-248.54 3211.85,-258.37 3221.07,-253.15 3215.8,-248.54"/>
</a>
</g>
</g>
<!-- Node34 -->
<g id="Node000034" class="node">
<title>Node34</title>
<g id="a_Node000034"><a xlink:href="ProblemRouter_8cpp.html" target="_top" xlink:title=" ">
<polygon fill="white" stroke="#666666" points="3473.3,-217 3361.3,-217 3361.3,-187 3473.3,-187 3473.3,-217"/>
<text text-anchor="start" x="3369.3" y="-205" font-family="Helvetica,sans-Serif" font-size="10.00">src/physics/solver</text>
<text text-anchor="middle" x="3417.3" y="-194" font-family="Helvetica,sans-Serif" font-size="10.00">/ProblemRouter.cpp</text>
</a>
</g>
</g>
<!-- Node3&#45;&gt;Node34 -->
<g id="edge48_Node000003_Node000034" class="edge">
<title>Node3&#45;&gt;Node34</title>
<g id="a_edge48_Node000003_Node000034"><a xlink:title=" ">
<path fill="none" stroke="#63b8ff" d="M3242.63,-255.48C3278.43,-244.73 3331.96,-228.64 3370.32,-217.12"/>
<polygon fill="#63b8ff" stroke="#63b8ff" points="3241.6,-252.14 3233.03,-258.37 3243.61,-258.84 3241.6,-252.14"/>
</a>
</g>
</g>
<!-- Node35 -->
<g id="Node000035" class="node">
<title>Node35</title>
<g id="a_Node000035"><a xlink:href="Octree_8cpp.html" target="_top" xlink:title=" ">
<polygon fill="white" stroke="#666666" points="3741.8,-217 3634.8,-217 3634.8,-187 3741.8,-187 3741.8,-217"/>
<text text-anchor="start" x="3642.8" y="-205" font-family="Helvetica,sans-Serif" font-size="10.00">src/physics/spatial</text>
<text text-anchor="middle" x="3688.3" y="-194" font-family="Helvetica,sans-Serif" font-size="10.00">/Octree.cpp</text>
</a>
</g>
</g>
<!-- Node3&#45;&gt;Node35 -->
<g id="edge49_Node000003_Node000035" class="edge">
<title>Node3&#45;&gt;Node35</title>
<g id="a_edge49_Node000003_Node000035"><a xlink:title=" ">
<path fill="none" stroke="#63b8ff" d="M3292.63,-259.24C3378.28,-251.07 3511.71,-236.67 3626.3,-217 3629.02,-216.53 3631.8,-216.02 3634.6,-215.49"/>
<polygon fill="#63b8ff" stroke="#63b8ff" points="3292.06,-255.77 3282.43,-260.2 3292.71,-262.74 3292.06,-255.77"/>
</a>
</g>
</g>
<!-- Node36 -->
<g id="Node000036" class="node">
<title>Node36</title>
<g id="a_Node000036"><a xlink:href="PhysicsTests_8cpp.html" target="_top" xlink:title=" ">
<polygon fill="white" stroke="#666666" points="3616.8,-211.5 3491.8,-211.5 3491.8,-192.5 3616.8,-192.5 3616.8,-211.5"/>
<text text-anchor="middle" x="3554.3" y="-199.5" font-family="Helvetica,sans-Serif" font-size="10.00">tests/PhysicsTests.cpp</text>
</a>
</g>
</g>
<!-- Node3&#45;&gt;Node36 -->
<g id="edge53_Node000003_Node000036" class="edge">
<title>Node3&#45;&gt;Node36</title>
<g id="a_edge53_Node000003_Node000036"><a xlink:title=" ">
<path fill="none" stroke="#63b8ff" d="M3263.19,-256.66C3319.5,-246.71 3406.75,-231.14 3482.3,-217 3491.56,-215.27 3501.49,-213.37 3510.92,-211.54"/>
<polygon fill="#63b8ff" stroke="#63b8ff" points="3262.29,-253.26 3253.05,-258.45 3263.51,-260.15 3262.29,-253.26"/>
</a>
</g>
</g>
<!-- Node5 -->
<g id="Node000005" class="node">
<title>Node5</title>
<g id="a_Node000005"><a xlink:href="Gizmo_8cpp.html" target="_top" xlink:title=" ">
<polygon fill="white" stroke="#666666" points="309.3,-30 171.3,-30 171.3,0 309.3,0 309.3,-30"/>
<text text-anchor="start" x="179.3" y="-18" font-family="Helvetica,sans-Serif" font-size="10.00">src/graphics/components</text>
<text text-anchor="middle" x="240.3" y="-7" font-family="Helvetica,sans-Serif" font-size="10.00">/Gizmo.cpp</text>
</a>
</g>
</g>
<!-- Node4&#45;&gt;Node5 -->
<g id="edge4_Node000004_Node000005" class="edge">
<title>Node4&#45;&gt;Node5</title>
<g id="a_edge4_Node000004_Node000005"><a xlink:title=" ">
<path fill="none" stroke="#63b8ff" d="M2397.9,-200.52C1979.94,-198.3 402.35,-187.57 182.3,-151 102.71,-137.77 56.93,-161.12 9.3,-96 -34.29,-36.39 88.09,-20.86 170.96,-17.02"/>
<polygon fill="#63b8ff" stroke="#63b8ff" points="2398.13,-204.02 2408.15,-200.57 2398.17,-197.02 2398.13,-204.02"/>
</a>
</g>
</g>
<!-- Node6 -->
<g id="Node000006" class="node">
<title>Node6</title>
<g id="a_Node000006"><a xlink:href="SceneManager_8cpp.html" target="_top" xlink:title=" ">
<polygon fill="white" stroke="#666666" points="1190.3,-24.5 996.3,-24.5 996.3,-5.5 1190.3,-5.5 1190.3,-24.5"/>
<text text-anchor="middle" x="1093.3" y="-12.5" font-family="Helvetica,sans-Serif" font-size="10.00">src/graphics/core/SceneManager.cpp</text>
</a>
</g>
</g>
<!-- Node4&#45;&gt;Node6 -->
<g id="edge5_Node000004_Node000006" class="edge">
<title>Node4&#45;&gt;Node6</title>
<g id="a_edge5_Node000004_Node000006"><a xlink:title=" ">
<path fill="none" stroke="#63b8ff" d="M2397.99,-200.63C1942.36,-198.48 101.68,-184.34 19.3,-96 10.21,-86.25 10.1,-75.64 19.3,-66 36.06,-48.45 734.59,-26.41 995.95,-18.76"/>
<polygon fill="#63b8ff" stroke="#63b8ff" points="2398.15,-204.13 2408.17,-200.68 2398.19,-197.13 2398.15,-204.13"/>
</a>
</g>
</g>
<!-- Node7 -->
<g id="Node000007" class="node">
<title>Node7</title>
<g id="a_Node000007"><a xlink:href="SceneObject_8cpp.html" target="_top" xlink:title=" ">
<polygon fill="white" stroke="#666666" points="211.8,-90.5 28.8,-90.5 28.8,-71.5 211.8,-71.5 211.8,-90.5"/>
<text text-anchor="middle" x="120.3" y="-78.5" font-family="Helvetica,sans-Serif" font-size="10.00">src/graphics/core/SceneObject.cpp</text>
</a>
</g>
</g>
<!-- Node4&#45;&gt;Node7 -->
<g id="edge6_Node000004_Node000007" class="edge">
<title>Node4&#45;&gt;Node7</title>
<g id="a_edge6_Node000004_Node000007"><a xlink:title=" ">
<path fill="none" stroke="#63b8ff" d="M2398.03,-198.52C2081.35,-190.29 1081.71,-160.63 256.3,-96 236.9,-94.48 215.97,-92.5 196.49,-90.51"/>
<polygon fill="#63b8ff" stroke="#63b8ff" points="2398.02,-202.02 2408.1,-198.78 2398.2,-195.03 2398.02,-202.02"/>
</a>
</g>
</g>
<!-- Node4&#45;&gt;Node8 -->
<g id="edge7_Node000004_Node000008" class="edge">
<title>Node4&#45;&gt;Node8</title>
<g id="a_edge7_Node000004_Node000008"><a xlink:title=" ">
<path fill="none" stroke="#63b8ff" d="M2397.99,-195.73C2179.03,-184.35 1664.96,-157.61 1460.43,-146.98"/>
<polygon fill="#63b8ff" stroke="#63b8ff" points="2398.02,-199.24 2408.19,-196.26 2398.39,-192.25 2398.02,-199.24"/>
</a>
</g>
</g>
<!-- Node16 -->
<g id="Node000016" class="node">
<title>Node16</title>
<g id="a_Node000016"><a xlink:href="Colliders_8cpp.html" target="_top" xlink:title=" ">
<polygon fill="white" stroke="#666666" points="2139.3,-96 2031.3,-96 2031.3,-66 2139.3,-66 2139.3,-96"/>
<text text-anchor="start" x="2039.3" y="-84" font-family="Helvetica,sans-Serif" font-size="10.00">src/graphics/debug</text>
<text text-anchor="middle" x="2085.3" y="-73" font-family="Helvetica,sans-Serif" font-size="10.00">/Colliders.cpp</text>
</a>
</g>
</g>
<!-- Node4&#45;&gt;Node16 -->
<g id="edge37_Node000004_Node000016" class="edge">
<title>Node4&#45;&gt;Node16</title>
<g id="a_edge37_Node000004_Node000016"><a xlink:title=" ">
<path fill="none" stroke="#63b8ff" d="M2459.84,-189.66C2383.74,-167.78 2216.9,-119.83 2134.02,-96"/>
<polygon fill="#63b8ff" stroke="#63b8ff" points="2458.95,-193.04 2469.53,-192.44 2460.88,-186.32 2458.95,-193.04"/>
</a>
</g>
</g>
<!-- Node18 -->
<g id="Node000018" class="node">
<title>Node18</title>
<g id="a_Node000018"><a xlink:href="Forces_8cpp.html" target="_top" xlink:title=" ">
<polygon fill="white" stroke="#666666" points="1316.3,-30 1208.3,-30 1208.3,0 1316.3,0 1316.3,-30"/>
<text text-anchor="start" x="1216.3" y="-18" font-family="Helvetica,sans-Serif" font-size="10.00">src/graphics/debug</text>
<text text-anchor="middle" x="1262.3" y="-7" font-family="Helvetica,sans-Serif" font-size="10.00">/Forces.cpp</text>
</a>
</g>
</g>
<!-- Node4&#45;&gt;Node18 -->
<g id="edge38_Node000004_Node000018" class="edge">
<title>Node4&#45;&gt;Node18</title>
<g id="a_edge38_Node000004_Node000018"><a xlink:title=" ">
<path fill="none" stroke="#63b8ff" d="M2508.69,-182.94C2522.28,-154 2542.67,-97.31 2512.3,-66 2466.36,-18.65 1390.77,-38.19 1325.3,-30 1322.41,-29.64 1319.46,-29.21 1316.48,-28.72"/>
<polygon fill="#63b8ff" stroke="#63b8ff" points="2505.38,-181.73 2504.1,-192.25 2511.66,-184.83 2505.38,-181.73"/>
</a>
</g>
</g>
<!-- Node20 -->
<g id="Node000020" class="node">
<title>Node20</title>
<g id="a_Node000020"><a xlink:href="PathTraces_8cpp.html" target="_top" xlink:title=" ">
<polygon fill="white" stroke="#666666" points="1442.3,-30 1334.3,-30 1334.3,0 1442.3,0 1442.3,-30"/>
<text text-anchor="start" x="1342.3" y="-18" font-family="Helvetica,sans-Serif" font-size="10.00">src/graphics/debug</text>
<text text-anchor="middle" x="1388.3" y="-7" font-family="Helvetica,sans-Serif" font-size="10.00">/PathTraces.cpp</text>
</a>
</g>
</g>
<!-- Node4&#45;&gt;Node20 -->
<g id="edge39_Node000004_Node000020" class="edge">
<title>Node4&#45;&gt;Node20</title>
<g id="a_edge39_Node000004_Node000020"><a xlink:title=" ">
<path fill="none" stroke="#63b8ff" d="M2516.61,-185.54C2534.65,-170.12 2564.27,-146.68 2593.3,-132 2645.89,-105.4 2749.37,-108.26 2708.3,-66 2659.61,-15.9 1520.63,-38.62 1451.3,-30 1448.41,-29.64 1445.46,-29.21 1442.48,-28.73"/>
<polygon fill="#63b8ff" stroke="#63b8ff" points="2513.99,-183.18 2508.74,-192.39 2518.59,-188.46 2513.99,-183.18"/>
</a>
</g>
</g>
<!-- Node4&#45;&gt;Node25 -->
<g id="edge44_Node000004_Node000025" class="edge">
<title>Node4&#45;&gt;Node25</title>
<g id="a_edge44_Node000004_Node000025"><a xlink:title=" ">
<path fill="none" stroke="#63b8ff" d="M2490.34,-183.52C2478.2,-159.84 2456.78,-118.04 2445.58,-96.2"/>
<polygon fill="#63b8ff" stroke="#63b8ff" points="2487.24,-185.14 2494.91,-192.44 2493.47,-181.95 2487.24,-185.14"/>
</a>
</g>
</g>
<!-- Node4&#45;&gt;Node26 -->
<g id="edge45_Node000004_Node000026" class="edge">
<title>Node4&#45;&gt;Node26</title>
<g id="a_edge45_Node000004_Node000026"><a xlink:title=" ">
<path fill="none" stroke="#63b8ff" d="M2512.59,-184.31C2524.57,-169.74 2543.06,-148.42 2561.3,-132 2576.03,-118.74 2594.25,-105.66 2608.26,-96.21"/>
<polygon fill="#63b8ff" stroke="#63b8ff" points="2509.61,-182.43 2506.03,-192.4 2515.04,-186.83 2509.61,-182.43"/>
</a>
</g>
</g>
<!-- Node29 -->
<g id="Node000029" class="node">
<title>Node29</title>
<g id="a_Node000029"><a xlink:href="SceneSerializer_8h.html" target="_top" xlink:title=" ">
<polygon fill="white" stroke="#666666" points="2787.8,-151 2602.8,-151 2602.8,-132 2787.8,-132 2787.8,-151"/>
<text text-anchor="middle" x="2695.3" y="-139" font-family="Helvetica,sans-Serif" font-size="10.00">src/graphics/core/SceneSerializer.h</text>
</a>
</g>
</g>
<!-- Node4&#45;&gt;Node29 -->
<g id="edge34_Node000004_Node000029" class="edge">
<title>Node4&#45;&gt;Node29</title>
<g id="a_edge34_Node000004_Node000029"><a xlink:title=" ">
<path fill="none" stroke="#63b8ff" d="M2537.47,-189.61C2575.38,-178.29 2632.64,-161.2 2666.77,-151.02"/>
<polygon fill="#63b8ff" stroke="#63b8ff" points="2536.38,-186.28 2527.8,-192.49 2538.38,-192.99 2536.38,-186.28"/>
</a>
</g>
</g>
<!-- Node30 -->
<g id="Node000030" class="node">
<title>Node30</title>
<g id="a_Node000030"><a xlink:href="MainWindow_8h.html" target="_top" xlink:title=" ">
<polygon fill="white" stroke="#666666" points="2922.8,-151 2805.8,-151 2805.8,-132 2922.8,-132 2922.8,-151"/>
<text text-anchor="middle" x="2864.3" y="-139" font-family="Helvetica,sans-Serif" font-size="10.00">src/ui/MainWindow.h</text>
</a>
</g>
</g>
<!-- Node4&#45;&gt;Node30 -->
<g id="edge40_Node000004_Node000030" class="edge">
<title>Node4&#45;&gt;Node30</title>
<g id="a_edge40_Node000004_Node000030"><a xlink:title=" ">
<path fill="none" stroke="#63b8ff" d="M2562.43,-190.88C2632.75,-179.61 2745.18,-161.59 2811.16,-151.02"/>
<polygon fill="#63b8ff" stroke="#63b8ff" points="2561.7,-187.46 2552.38,-192.49 2562.8,-194.37 2561.7,-187.46"/>
</a>
</g>
</g>
<!-- Node4&#45;&gt;Node32 -->
<g id="edge43_Node000004_Node000032" class="edge">
<title>Node4&#45;&gt;Node32</title>
<g id="a_edge43_Node000004_Node000032"><a xlink:title=" ">
<path fill="none" stroke="#63b8ff" d="M2583.93,-191.35C2683.6,-179.98 2847.4,-161.3 2940.92,-150.64"/>
<polygon fill="#63b8ff" stroke="#63b8ff" points="2583.44,-187.88 2573.9,-192.49 2584.23,-194.84 2583.44,-187.88"/>
</a>
</g>
</g>
<!-- Node8&#45;&gt;Node5 -->
<g id="edge8_Node000008_Node000005" class="edge">
<title>Node8&#45;&gt;Node5</title>
<g id="a_edge8_Node000008_Node000005"><a xlink:title=" ">
<path fill="none" stroke="#63b8ff" d="M1277.86,-139.05C1019.68,-134.83 329.38,-121.24 287.3,-96 262.99,-81.42 249.89,-49.07 244.08,-30.28"/>
<polygon fill="#63b8ff" stroke="#63b8ff" points="1277.92,-142.55 1287.98,-139.21 1278.04,-135.55 1277.92,-142.55"/>
</a>
</g>
</g>
<!-- Node8&#45;&gt;Node6 -->
<g id="edge16_Node000008_Node000006" class="edge">
<title>Node8&#45;&gt;Node6</title>
<g id="a_edge16_Node000008_Node000006"><a xlink:title=" ">
<path fill="none" stroke="#63b8ff" d="M1277.9,-140.09C1019.92,-138.53 330.96,-131.08 297.3,-96 288.07,-86.38 288.17,-75.72 297.3,-66 320.88,-40.89 788.8,-24.61 995.99,-18.6"/>
<polygon fill="#63b8ff" stroke="#63b8ff" points="1277.98,-143.59 1288.01,-140.15 1278.03,-136.59 1277.98,-143.59"/>
</a>
</g>
</g>
<!-- Node8&#45;&gt;Node7 -->
<g id="edge17_Node000008_Node000007" class="edge">
<title>Node8&#45;&gt;Node7</title>
<g id="a_edge17_Node000008_Node000007"><a xlink:title=" ">
<path fill="none" stroke="#63b8ff" d="M1278.03,-139.77C1080.5,-137.62 615.27,-129.15 226.3,-96 210.4,-94.64 193.21,-92.62 177.41,-90.53"/>
<polygon fill="#63b8ff" stroke="#63b8ff" points="1278.05,-143.27 1288.09,-139.88 1278.12,-136.28 1278.05,-143.27"/>
</a>
</g>
</g>
<!-- Node9 -->
<g id="Node000009" class="node">
<title>Node9</title>
<g id="a_Node000009"><a xlink:href="RotateHandle_8cpp.html" target="_top" xlink:title=" ">
<polygon fill="white" stroke="#666666" points="444.3,-96 306.3,-96 306.3,-66 444.3,-66 444.3,-96"/>
<text text-anchor="start" x="314.3" y="-84" font-family="Helvetica,sans-Serif" font-size="10.00">src/graphics/components</text>
<text text-anchor="middle" x="375.3" y="-73" font-family="Helvetica,sans-Serif" font-size="10.00">/RotateHandle.cpp</text>
</a>
</g>
</g>
<!-- Node8&#45;&gt;Node9 -->
<g id="edge9_Node000008_Node000009" class="edge">
<title>Node8&#45;&gt;Node9</title>
<g id="a_edge9_Node000008_Node000009"><a xlink:title=" ">
<path fill="none" stroke="#63b8ff" d="M1278.25,-139.94C1110.39,-138.05 752.98,-129.99 453.3,-96 450.43,-95.67 447.51,-95.31 444.56,-94.91"/>
<polygon fill="#63b8ff" stroke="#63b8ff" points="1278.26,-143.44 1288.3,-140.05 1278.33,-136.44 1278.26,-143.44"/>
</a>
</g>
</g>
<!-- Node10 -->
<g id="Node000010" class="node">
<title>Node10</title>
<g id="a_Node000010"><a xlink:href="ScaleHandle_8h.html" target="_top" xlink:title=" ">
<polygon fill="white" stroke="#666666" points="600.3,-96 462.3,-96 462.3,-66 600.3,-66 600.3,-96"/>
<text text-anchor="start" x="470.3" y="-84" font-family="Helvetica,sans-Serif" font-size="10.00">src/graphics/components</text>
<text text-anchor="middle" x="531.3" y="-73" font-family="Helvetica,sans-Serif" font-size="10.00">/ScaleHandle.h</text>
</a>
</g>
</g>
<!-- Node8&#45;&gt;Node10 -->
<g id="edge10_Node000008_Node000010" class="edge">
<title>Node8&#45;&gt;Node10</title>
<g id="a_edge10_Node000008_Node000010"><a xlink:title=" ">
<path fill="none" stroke="#63b8ff" d="M1278.03,-138.59C1132.69,-134.87 848.79,-124.36 609.3,-96 606.43,-95.66 603.51,-95.28 600.56,-94.87"/>
<polygon fill="#63b8ff" stroke="#63b8ff" points="1278.16,-142.09 1288.25,-138.84 1278.34,-135.09 1278.16,-142.09"/>
</a>
</g>
</g>
<!-- Node12 -->
<g id="Node000012" class="node">
<title>Node12</title>
<g id="a_Node000012"><a xlink:href="TranslateHandle_8cpp.html" target="_top" xlink:title=" ">
<polygon fill="white" stroke="#666666" points="756.3,-96 618.3,-96 618.3,-66 756.3,-66 756.3,-96"/>
<text text-anchor="start" x="626.3" y="-84" font-family="Helvetica,sans-Serif" font-size="10.00">src/graphics/components</text>
<text text-anchor="middle" x="687.3" y="-73" font-family="Helvetica,sans-Serif" font-size="10.00">/TranslateHandle.cpp</text>
</a>
</g>
</g>
<!-- Node8&#45;&gt;Node12 -->
<g id="edge13_Node000008_Node000012" class="edge">
<title>Node8&#45;&gt;Node12</title>
<g id="a_edge13_Node000008_Node000012"><a xlink:title=" ">
<path fill="none" stroke="#63b8ff" d="M1278.01,-136.58C1157.7,-130.97 945.69,-118.72 765.3,-96 762.43,-95.64 759.51,-95.24 756.57,-94.82"/>
<polygon fill="#63b8ff" stroke="#63b8ff" points="1278.14,-140.09 1288.29,-137.05 1278.47,-133.1 1278.14,-140.09"/>
</a>
</g>
</g>
<!-- Node13 -->
<g id="Node000013" class="node">
<title>Node13</title>
<g id="a_Node000013"><a xlink:href="Camera_8cpp.html" target="_top" xlink:title=" ">
<polygon fill="white" stroke="#666666" points="935.8,-90.5 774.8,-90.5 774.8,-71.5 935.8,-71.5 935.8,-90.5"/>
<text text-anchor="middle" x="855.3" y="-78.5" font-family="Helvetica,sans-Serif" font-size="10.00">src/graphics/core/Camera.cpp</text>
</a>
</g>
</g>
<!-- Node8&#45;&gt;Node13 -->
<g id="edge14_Node000008_Node000013" class="edge">
<title>Node8&#45;&gt;Node13</title>
<g id="a_edge14_Node000008_Node000013"><a xlink:title=" ">
<path fill="none" stroke="#63b8ff" d="M1278.15,-131.94C1191.1,-123.85 1059.41,-110.78 945.3,-96 932.91,-94.39 919.6,-92.45 907.11,-90.52"/>
<polygon fill="#63b8ff" stroke="#63b8ff" points="1278,-135.44 1288.28,-132.88 1278.65,-128.47 1278,-135.44"/>
</a>
</g>
</g>
<!-- Node14 -->
<g id="Node000014" class="node">
<title>Node14</title>
<g id="a_Node000014"><a xlink:href="Scene_8cpp.html" target="_top" xlink:title=" ">
<polygon fill="white" stroke="#666666" points="1106.3,-90.5 954.3,-90.5 954.3,-71.5 1106.3,-71.5 1106.3,-90.5"/>
<text text-anchor="middle" x="1030.3" y="-78.5" font-family="Helvetica,sans-Serif" font-size="10.00">src/graphics/core/Scene.cpp</text>
</a>
</g>
</g>
<!-- Node8&#45;&gt;Node14 -->
<g id="edge15_Node000008_Node000014" class="edge">
<title>Node8&#45;&gt;Node14</title>
<g id="a_edge15_Node000008_Node000014"><a xlink:title=" ">
<path fill="none" stroke="#63b8ff" d="M1314.39,-130.31C1248.1,-119.04 1142.45,-101.07 1080.38,-90.52"/>
<polygon fill="#63b8ff" stroke="#63b8ff" points="1313.84,-133.77 1324.28,-131.99 1315.01,-126.87 1313.84,-133.77"/>
</a>
</g>
</g>
<!-- Node15 -->
<g id="Node000015" class="node">
<title>Node15</title>
<g id="a_Node000015"><a xlink:href="SceneSerializer_8cpp.html" target="_top" xlink:title=" ">
<polygon fill="white" stroke="#666666" points="2354.8,-90.5 2157.8,-90.5 2157.8,-71.5 2354.8,-71.5 2354.8,-90.5"/>
<text text-anchor="middle" x="2256.3" y="-78.5" font-family="Helvetica,sans-Serif" font-size="10.00">src/graphics/core/SceneSerializer.cpp</text>
</a>
</g>
</g>
<!-- Node8&#45;&gt;Node15 -->
<g id="edge18_Node000008_Node000015" class="edge">
<title>Node8&#45;&gt;Node15</title>
<g id="a_edge18_Node000008_Node000015"><a xlink:title=" ">
<path fill="none" stroke="#63b8ff" d="M1470.66,-137.17C1617.23,-131.62 1904.88,-118.75 2148.3,-96 2164.02,-94.53 2180.97,-92.53 2196.69,-90.5"/>
<polygon fill="#63b8ff" stroke="#63b8ff" points="1470.22,-133.69 1460.35,-137.56 1470.48,-140.68 1470.22,-133.69"/>
</a>
</g>
</g>
<!-- Node8&#45;&gt;Node16 -->
<g id="edge19_Node000008_Node000016" class="edge">
<title>Node8&#45;&gt;Node16</title>
<g id="a_edge19_Node000008_Node000016"><a xlink:title=" ">
<path fill="none" stroke="#63b8ff" d="M1470.62,-138.28C1597.42,-134.36 1827.05,-123.77 2021.3,-96 2024.57,-95.53 2027.91,-94.99 2031.28,-94.4"/>
<polygon fill="#63b8ff" stroke="#63b8ff" points="1470.43,-134.79 1460.54,-138.59 1470.64,-141.78 1470.43,-134.79"/>
</a>
</g>
</g>
<!-- Node17 -->
<g id="Node000017" class="node">
<title>Node17</title>
<g id="a_Node000017"><a xlink:href="Forces_8h.html" target="_top" xlink:title=" ">
<polygon fill="white" stroke="#666666" points="1232.3,-96 1124.3,-96 1124.3,-66 1232.3,-66 1232.3,-96"/>
<text text-anchor="start" x="1132.3" y="-84" font-family="Helvetica,sans-Serif" font-size="10.00">src/graphics/debug</text>
<text text-anchor="middle" x="1178.3" y="-73" font-family="Helvetica,sans-Serif" font-size="10.00">/Forces.h</text>
</a>
</g>
</g>
<!-- Node8&#45;&gt;Node17 -->
<g id="edge20_Node000008_Node000017" class="edge">
<title>Node8&#45;&gt;Node17</title>
<g id="a_edge20_Node000008_Node000017"><a xlink:title=" ">
<path fill="none" stroke="#63b8ff" d="M1336.03,-129.08C1304.38,-119.63 1259.29,-106.17 1225.42,-96.06"/>
<polygon fill="#63b8ff" stroke="#63b8ff" points="1335.22,-132.49 1345.8,-131.99 1337.22,-125.78 1335.22,-132.49"/>
</a>
</g>
</g>
<!-- Node19 -->
<g id="Node000019" class="node">
<title>Node19</title>
<g id="a_Node000019"><a xlink:href="PathTraces_8h.html" target="_top" xlink:title=" ">
<polygon fill="white" stroke="#666666" points="1358.3,-96 1250.3,-96 1250.3,-66 1358.3,-66 1358.3,-96"/>
<text text-anchor="start" x="1258.3" y="-84" font-family="Helvetica,sans-Serif" font-size="10.00">src/graphics/debug</text>
<text text-anchor="middle" x="1304.3" y="-73" font-family="Helvetica,sans-Serif" font-size="10.00">/PathTraces.h</text>
</a>
</g>
</g>
<!-- Node8&#45;&gt;Node19 -->
<g id="edge23_Node000008_Node000019" class="edge">
<title>Node8&#45;&gt;Node19</title>
<g id="a_edge23_Node000008_Node000019"><a xlink:title=" ">
<path fill="none" stroke="#63b8ff" d="M1356.03,-125.23C1345.26,-116.23 1331.72,-104.91 1321.19,-96.11"/>
<polygon fill="#63b8ff" stroke="#63b8ff" points="1354.06,-128.14 1363.97,-131.87 1358.54,-122.77 1354.06,-128.14"/>
</a>
</g>
</g>
<!-- Node21 -->
<g id="Node000021" class="node">
<title>Node21</title>
<g id="a_Node000021"><a xlink:href="HierarchyWidget_8h.html" target="_top" xlink:title=" ">
<polygon fill="white" stroke="#666666" points="1513.8,-90.5 1376.8,-90.5 1376.8,-71.5 1513.8,-71.5 1513.8,-90.5"/>
<text text-anchor="middle" x="1445.3" y="-78.5" font-family="Helvetica,sans-Serif" font-size="10.00">src/ui/HierarchyWidget.h</text>
</a>
</g>
</g>
<!-- Node8&#45;&gt;Node21 -->
<g id="edge26_Node000008_Node000021" class="edge">
<title>Node8&#45;&gt;Node21</title>
<g id="a_edge26_Node000008_Node000021"><a xlink:title=" ">
<path fill="none" stroke="#63b8ff" d="M1392.84,-125.22C1406.2,-114.21 1423.75,-99.75 1434.78,-90.67"/>
<polygon fill="#63b8ff" stroke="#63b8ff" points="1390.27,-122.81 1384.78,-131.87 1394.72,-128.21 1390.27,-122.81"/>
</a>
</g>
</g>
<!-- Node24 -->
<g id="Node000024" class="node">
<title>Node24</title>
<g id="a_Node000024"><a xlink:href="ForcesInspectorWidget_8cpp.html" target="_top" xlink:title=" ">
<polygon fill="white" stroke="#666666" points="1702.3,-96 1532.3,-96 1532.3,-66 1702.3,-66 1702.3,-96"/>
<text text-anchor="start" x="1540.3" y="-84" font-family="Helvetica,sans-Serif" font-size="10.00">src/ui/inspector/ForcesInspector</text>
<text text-anchor="middle" x="1617.3" y="-73" font-family="Helvetica,sans-Serif" font-size="10.00">Widget.cpp</text>
</a>
</g>
</g>
<!-- Node8&#45;&gt;Node24 -->
<g id="edge29_Node000008_Node000024" class="edge">
<title>Node8&#45;&gt;Node24</title>
<g id="a_edge29_Node000008_Node000024"><a xlink:title=" ">
<path fill="none" stroke="#63b8ff" d="M1419.48,-129.62C1458.81,-120.16 1516.07,-106.37 1558.88,-96.06"/>
<polygon fill="#63b8ff" stroke="#63b8ff" points="1418.54,-126.25 1409.64,-131.99 1420.18,-133.06 1418.54,-126.25"/>
</a>
</g>
</g>
<!-- Node8&#45;&gt;Node25 -->
<g id="edge30_Node000008_Node000025" class="edge">
<title>Node8&#45;&gt;Node25</title>
<g id="a_edge30_Node000008_Node000025"><a xlink:title=" ">
<path fill="none" stroke="#63b8ff" d="M1470.7,-140.62C1647.99,-139.85 2037.53,-133.55 2363.3,-96 2366.33,-95.65 2369.42,-95.25 2372.53,-94.81"/>
<polygon fill="#63b8ff" stroke="#63b8ff" points="1470.6,-137.12 1460.61,-140.66 1470.63,-144.12 1470.6,-137.12"/>
</a>
</g>
</g>
<!-- Node8&#45;&gt;Node26 -->
<g id="edge31_Node000008_Node000026" class="edge">
<title>Node8&#45;&gt;Node26</title>
<g id="a_edge31_Node000008_Node000026"><a xlink:title=" ">
<path fill="none" stroke="#63b8ff" d="M1470.73,-139.3C1667.06,-136.28 2127.19,-126.33 2512.3,-96 2527.93,-94.77 2544.68,-93.04 2560.51,-91.21"/>
<polygon fill="#63b8ff" stroke="#63b8ff" points="1470.4,-135.8 1460.45,-139.45 1470.5,-142.8 1470.4,-135.8"/>
</a>
</g>
</g>
<!-- Node27 -->
<g id="Node000027" class="node">
<title>Node27</title>
<g id="a_Node000027"><a xlink:href="PhysicsInspectorWidget_8cpp.html" target="_top" xlink:title=" ">
<polygon fill="white" stroke="#666666" points="1851.8,-96 1720.8,-96 1720.8,-66 1851.8,-66 1851.8,-96"/>
<text text-anchor="start" x="1728.8" y="-84" font-family="Helvetica,sans-Serif" font-size="10.00">src/ui/inspector/Physics</text>
<text text-anchor="middle" x="1786.3" y="-73" font-family="Helvetica,sans-Serif" font-size="10.00">InspectorWidget.cpp</text>
</a>
</g>
</g>
<!-- Node8&#45;&gt;Node27 -->
<g id="edge32_Node000008_Node000027" class="edge">
<title>Node8&#45;&gt;Node27</title>
<g id="a_edge32_Node000008_Node000027"><a xlink:title=" ">
<path fill="none" stroke="#63b8ff" d="M1457.7,-130.74C1526.01,-122.45 1625.1,-109.73 1711.3,-96 1714.31,-95.52 1717.38,-95.01 1720.49,-94.49"/>
<polygon fill="#63b8ff" stroke="#63b8ff" points="1456.94,-127.31 1447.43,-131.98 1457.78,-134.26 1456.94,-127.31"/>
</a>
</g>
</g>
<!-- Node28 -->
<g id="Node000028" class="node">
<title>Node28</title>
<g id="a_Node000028"><a xlink:href="TransformInspectorWidget_8cpp.html" target="_top" xlink:title=" ">
<polygon fill="white" stroke="#666666" points="2012.8,-96 1869.8,-96 1869.8,-66 2012.8,-66 2012.8,-96"/>
<text text-anchor="start" x="1877.8" y="-84" font-family="Helvetica,sans-Serif" font-size="10.00">src/ui/inspector/Transform</text>
<text text-anchor="middle" x="1941.3" y="-73" font-family="Helvetica,sans-Serif" font-size="10.00">InspectorWidget.cpp</text>
</a>
</g>
</g>
<!-- Node8&#45;&gt;Node28 -->
<g id="edge33_Node000008_Node000028" class="edge">
<title>Node8&#45;&gt;Node28</title>
<g id="a_edge33_Node000008_Node000028"><a xlink:title=" ">
<path fill="none" stroke="#63b8ff" d="M1470.77,-133.95C1569.02,-126.74 1725.63,-113.78 1860.3,-96 1863.41,-95.59 1866.59,-95.15 1869.8,-94.68"/>
<polygon fill="#63b8ff" stroke="#63b8ff" points="1470.29,-130.47 1460.57,-134.69 1470.8,-137.46 1470.29,-130.47"/>
</a>
</g>
</g>
<!-- Node10&#45;&gt;Node5 -->
<g id="edge11_Node000010_Node000005" class="edge">
<title>Node10&#45;&gt;Node5</title>
<g id="a_edge11_Node000010_Node000005"><a xlink:title=" ">
<path fill="none" stroke="#63b8ff" d="M457.55,-63.78C410.18,-53.36 349.28,-39.97 304.01,-30.01"/>
<polygon fill="#63b8ff" stroke="#63b8ff" points="456.92,-67.23 467.44,-65.95 458.43,-60.39 456.92,-67.23"/>
</a>
</g>
</g>
<!-- Node11 -->
<g id="Node000011" class="node">
<title>Node11</title>
<g id="a_Node000011"><a xlink:href="ScaleHandle_8cpp.html" target="_top" xlink:title=" ">
<polygon fill="white" stroke="#666666" points="600.3,-30 462.3,-30 462.3,0 600.3,0 600.3,-30"/>
<text text-anchor="start" x="470.3" y="-18" font-family="Helvetica,sans-Serif" font-size="10.00">src/graphics/components</text>
<text text-anchor="middle" x="531.3" y="-7" font-family="Helvetica,sans-Serif" font-size="10.00">/ScaleHandle.cpp</text>
</a>
</g>
</g>
<!-- Node10&#45;&gt;Node11 -->
<g id="edge12_Node000010_Node000011" class="edge">
<title>Node10&#45;&gt;Node11</title>
<g id="a_edge12_Node000010_Node000011"><a xlink:title=" ">
<path fill="none" stroke="#63b8ff" d="M531.3,-55.54C531.3,-46.96 531.3,-37.61 531.3,-30.16"/>
<polygon fill="#63b8ff" stroke="#63b8ff" points="527.8,-55.8 531.3,-65.8 534.8,-55.8 527.8,-55.8"/>
</a>
</g>
</g>
<!-- Node17&#45;&gt;Node6 -->
<g id="edge21_Node000017_Node000006" class="edge">
<title>Node17&#45;&gt;Node6</title>
<g id="a_edge21_Node000017_Node000006"><a xlink:title=" ">
<path fill="none" stroke="#63b8ff" d="M1151.19,-59.58C1135.63,-47.87 1116.9,-33.77 1105.05,-24.84"/>
<polygon fill="#63b8ff" stroke="#63b8ff" points="1149.34,-62.58 1159.44,-65.8 1153.55,-56.99 1149.34,-62.58"/>
</a>
</g>
</g>
<!-- Node17&#45;&gt;Node18 -->
<g id="edge22_Node000017_Node000018" class="edge">
<title>Node17&#45;&gt;Node18</title>
<g id="a_edge22_Node000017_Node000018"><a xlink:title=" ">
<path fill="none" stroke="#63b8ff" d="M1205.24,-59.48C1217.79,-49.91 1232.41,-38.77 1243.71,-30.16"/>
<polygon fill="#63b8ff" stroke="#63b8ff" points="1202.78,-56.95 1196.94,-65.8 1207.02,-62.52 1202.78,-56.95"/>
</a>
</g>
</g>
<!-- Node19&#45;&gt;Node6 -->
<g id="edge24_Node000019_Node000006" class="edge">
<title>Node19&#45;&gt;Node6</title>
<g id="a_edge24_Node000019_Node000006"><a xlink:title=" ">
<path fill="none" stroke="#63b8ff" d="M1248.42,-63.05C1207.5,-50.64 1153.68,-34.31 1121.38,-24.52"/>
<polygon fill="#63b8ff" stroke="#63b8ff" points="1247.41,-66.4 1258,-65.95 1249.44,-59.7 1247.41,-66.4"/>
</a>
</g>
</g>
<!-- Node19&#45;&gt;Node20 -->
<g id="edge25_Node000019_Node000020" class="edge">
<title>Node19&#45;&gt;Node20</title>
<g id="a_edge25_Node000019_Node000020"><a xlink:title=" ">
<path fill="none" stroke="#63b8ff" d="M1331.24,-59.48C1343.79,-49.91 1358.41,-38.77 1369.71,-30.16"/>
<polygon fill="#63b8ff" stroke="#63b8ff" points="1328.78,-56.95 1322.94,-65.8 1333.02,-62.52 1328.78,-56.95"/>
</a>
</g>
</g>
<!-- Node22 -->
<g id="Node000022" class="node">
<title>Node22</title>
<g id="a_Node000022"><a xlink:href="HierarchyWidget_8cpp.html" target="_top" xlink:title=" ">
<polygon fill="white" stroke="#666666" points="1608.3,-24.5 1460.3,-24.5 1460.3,-5.5 1608.3,-5.5 1608.3,-24.5"/>
<text text-anchor="middle" x="1534.3" y="-12.5" font-family="Helvetica,sans-Serif" font-size="10.00">src/ui/HierarchyWidget.cpp</text>
</a>
</g>
</g>
<!-- Node21&#45;&gt;Node22 -->
<g id="edge27_Node000021_Node000022" class="edge">
<title>Node21&#45;&gt;Node22</title>
<g id="a_edge27_Node000021_Node000022"><a xlink:title=" ">
<path fill="none" stroke="#63b8ff" d="M1465.7,-65.33C1483.15,-52.78 1507.7,-35.13 1522.2,-24.7"/>
<polygon fill="#63b8ff" stroke="#63b8ff" points="1463.38,-62.69 1457.3,-71.37 1467.47,-68.37 1463.38,-62.69"/>
</a>
</g>
</g>
<!-- Node23 -->
<g id="Node000023" class="node">
<title>Node23</title>
<g id="a_Node000023"><a xlink:href="MainWindow_8cpp.html" target="_top" xlink:title=" ">
<polygon fill="white" stroke="#666666" points="2353.3,-24.5 2225.3,-24.5 2225.3,-5.5 2353.3,-5.5 2353.3,-24.5"/>
<text text-anchor="middle" x="2289.3" y="-12.5" font-family="Helvetica,sans-Serif" font-size="10.00">src/ui/MainWindow.cpp</text>
</a>
</g>
</g>
<!-- Node21&#45;&gt;Node23 -->
<g id="edge28_Node000021_Node000023" class="edge">
<title>Node21&#45;&gt;Node23</title>
<g id="a_edge28_Node000021_Node000023"><a xlink:title=" ">
<path fill="none" stroke="#63b8ff" d="M1498.16,-69.68C1506.55,-68.29 1515.15,-66.99 1523.3,-66 1782.42,-34.39 2093.46,-21.88 2225.27,-17.75"/>
<polygon fill="#63b8ff" stroke="#63b8ff" points="1497.34,-66.28 1488.08,-71.43 1498.53,-73.17 1497.34,-66.28"/>
</a>
</g>
</g>
<!-- Node29&#45;&gt;Node6 -->
<g id="edge35_Node000029_Node000006" class="edge">
<title>Node29&#45;&gt;Node6</title>
<g id="a_edge35_Node000029_Node000006"><a xlink:title=" ">
<path fill="none" stroke="#63b8ff" d="M2705.8,-122.9C2714.36,-106 2722.87,-80.92 2708.3,-66 2679.01,-36 1241.1,-33.25 1199.3,-30 1182.92,-28.73 1165.2,-26.66 1149.02,-24.5"/>
<polygon fill="#63b8ff" stroke="#63b8ff" points="2702.67,-121.31 2700.92,-131.76 2708.81,-124.68 2702.67,-121.31"/>
</a>
</g>
</g>
<!-- Node29&#45;&gt;Node15 -->
<g id="edge36_Node000029_Node000015" class="edge">
<title>Node29&#45;&gt;Node15</title>
<g id="a_edge36_Node000029_Node000015"><a xlink:title=" ">
<path fill="none" stroke="#63b8ff" d="M2621.44,-130.66C2537.02,-119.41 2400.23,-101.18 2320.21,-90.52"/>
<polygon fill="#63b8ff" stroke="#63b8ff" points="2621.09,-134.14 2631.47,-131.99 2622.02,-127.2 2621.09,-134.14"/>
</a>
</g>
</g>
<!-- Node30&#45;&gt;Node23 -->
<g id="edge42_Node000030_Node000023" class="edge">
<title>Node30&#45;&gt;Node23</title>
<g id="a_edge42_Node000030_Node000023"><a xlink:title=" ">
<path fill="none" stroke="#63b8ff" d="M2849.02,-124.83C2829.36,-105.08 2795.9,-72.85 2780.3,-66 2705.37,-33.12 2468.93,-21.47 2353.7,-17.67"/>
<polygon fill="#63b8ff" stroke="#63b8ff" points="2846.53,-127.29 2856.04,-131.95 2851.51,-122.38 2846.53,-127.29"/>
</a>
</g>
</g>
<!-- Node31 -->
<g id="Node000031" class="node">
<title>Node31</title>
<g id="a_Node000031"><a xlink:href="main_8cpp.html" target="_top" xlink:title=" ">
<polygon fill="white" stroke="#666666" points="2911.8,-90.5 2832.8,-90.5 2832.8,-71.5 2911.8,-71.5 2911.8,-90.5"/>
<text text-anchor="middle" x="2872.3" y="-78.5" font-family="Helvetica,sans-Serif" font-size="10.00">src/main.cpp</text>
</a>
</g>
</g>
<!-- Node30&#45;&gt;Node31 -->
<g id="edge41_Node000030_Node000031" class="edge">
<title>Node30&#45;&gt;Node31</title>
<g id="a_edge41_Node000030_Node000031"><a xlink:title=" ">
<path fill="none" stroke="#63b8ff" d="M2866.88,-121.66C2868.3,-111.24 2870,-98.8 2871.12,-90.67"/>
<polygon fill="#63b8ff" stroke="#63b8ff" points="2863.37,-121.49 2865.48,-131.87 2870.3,-122.43 2863.37,-121.49"/>
</a>
</g>
</g>
<!-- Node38&#45;&gt;Node3 -->
<g id="edge56_Node000038_Node000003" class="edge">
<title>Node38&#45;&gt;Node3</title>
<g id="a_edge56_Node000038_Node000003"><a xlink:title=" ">
<path fill="none" stroke="#63b8ff" d="M3245.57,-311.6C3234.42,-300.1 3221.28,-286.52 3212.87,-277.84"/>
<polygon fill="#63b8ff" stroke="#63b8ff" points="3243.07,-314.05 3252.54,-318.8 3248.1,-309.18 3243.07,-314.05"/>
</a>
</g>
</g>
<!-- Node38&#45;&gt;Node35 -->
<g id="edge57_Node000038_Node000035" class="edge">
<title>Node38&#45;&gt;Node35</title>
<g id="a_edge57_Node000038_Node000035"><a xlink:title=" ">
<path fill="none" stroke="#63b8ff" d="M3321.5,-316C3405.66,-290.07 3564.52,-241.13 3642.61,-217.08"/>
<polygon fill="#63b8ff" stroke="#63b8ff" points="3320.39,-312.68 3311.86,-318.96 3322.45,-319.36 3320.39,-312.68"/>
</a>
</g>
</g>
</g>
</svg>
