<?xml version="1.0" encoding="UTF-8" standalone="no"?>
<!DOCTYPE svg PUBLIC "-//W3C//DTD SVG 1.1//EN"
 "http://www.w3.org/Graphics/SVG/1.1/DTD/svg11.dtd">
<!-- Generated by graphviz version 2.43.0 (0)
 -->
<!-- Title: src/physics/spatial/Octree.h Pages: 1 -->
<!--zoomable 346 -->

<svg id="main" version="1.1" xmlns="http://www.w3.org/2000/svg" xmlns:xlink="http://www.w3.org/1999/xlink" xml:space="preserve" onload="init(evt)">
<style type="text/css"><![CDATA[
.node, .edge {opacity: 0.7;}
.node.selected, .edge.selected {opacity: 1;}
.edge:hover path { stroke: red; }
.edge:hover polygon { stroke: red; fill: red; }
]]></style>

<defs>
  <circle id="rim" cx="0" cy="0" r="7"/>
  <circle id="rim2" cx="0" cy="0" r="3.5"/>
  <g id="zoomPlus">
    <use xlink:href="#rim" fill="#404040"><set attributeName="fill" to="#808080" begin="zoomplus.mouseover" end="zoomplus.mouseout"/></use>
    <path d="M-4,0h8M0,-4v8" fill="none" stroke="white" stroke-width="1.5" pointer-events="none"/>
  </g>
  <g id="zoomMin">
    <use xlink:href="#rim" fill="#404040"><set attributeName="fill" to="#808080" begin="zoomminus.mouseover" end="zoomminus.mouseout"/></use>
    <path d="M-4,0h8" fill="none" stroke="white" stroke-width="1.5" pointer-events="none"/>
  </g>
  <g id="arrowUp" transform="translate(30 24)">
    <use xlink:href="#rim"/>
    <path pointer-events="none" fill="none" stroke="white" stroke-width="1.5" d="M0,-3.0v7 M-2.5,-0.5L0,-3.0L2.5,-0.5"/>
  </g>
  <g id="arrowRight" transform="rotate(90) translate(36 -43)">
    <use xlink:href="#rim"/>
    <path pointer-events="none" fill="none" stroke="white" stroke-width="1.5" d="M0,-3.0v7 M-2.5,-0.5L0,-3.0L2.5,-0.5"/>
  </g>
  <g id="arrowDown" transform="rotate(180) translate(-30 -48)">
    <use xlink:href="#rim"/>
    <path pointer-events="none" fill="none" stroke="white" stroke-width="1.5" d="M0,-3.0v7 M-2.5,-0.5L0,-3.0L2.5,-0.5"/>
  </g>
  <g id="arrowLeft" transform="rotate(270) translate(-36 17)">
    <use xlink:href="#rim"/>
    <path pointer-events="none" fill="none" stroke="white" stroke-width="1.5" d="M0,-3.0v7 M-2.5,-0.5L0,-3.0L2.5,-0.5"/>
  </g>
  <g id="resetDef">
    <use xlink:href="#rim2" fill="#404040"><set attributeName="fill" to="#808080" begin="reset.mouseover" end="reset.mouseout"/></use>
  </g>
</defs>
<script type="application/ecmascript">
var viewWidth = 3899;
var viewHeight = 346;
var sectionId = 'dynsection-1';
</script>
<script type="application/ecmascript" xlink:href="svg.min.js"/>
<svg id="graph" class="graph">
<g id="viewport">
<title>src/physics/spatial/Octree.h</title>
<!-- Node1 -->
<g id="Node000001" class="node">
<title>Node1</title>
<g id="a_Node000001"><a xlink:title=" ">
<polygon fill="#999999" stroke="#666666" points="3459.5,-338 3352.5,-338 3352.5,-308 3459.5,-308 3459.5,-338"/>
<text text-anchor="start" x="3360.5" y="-326" font-family="Helvetica,sans-Serif" font-size="10.00">src/physics/spatial</text>
<text text-anchor="middle" x="3406" y="-315" font-family="Helvetica,sans-Serif" font-size="10.00">/Octree.h</text>
</a>
</g>
</g>
<!-- Node2 -->
<g id="Node000002" class="node">
<title>Node2</title>
<g id="a_Node000002"><a xlink:href="PhysicsSystem_8h.html" target="_top" xlink:title=" ">
<polygon fill="white" stroke="#666666" points="3431,-272 3275,-272 3275,-253 3431,-253 3431,-272"/>
<text text-anchor="middle" x="3353" y="-260" font-family="Helvetica,sans-Serif" font-size="10.00">src/physics/PhysicsSystem.h</text>
</a>
</g>
</g>
<!-- Node1&#45;&gt;Node2 -->
<g id="edge1_Node000001_Node000002" class="edge">
<title>Node1&#45;&gt;Node2</title>
<g id="a_edge1_Node000001_Node000002"><a xlink:title=" ">
<path fill="none" stroke="#63b8ff" d="M3386.41,-300.38C3377.59,-290.64 3367.66,-279.69 3360.94,-272.27"/>
<polygon fill="#63b8ff" stroke="#63b8ff" points="3383.86,-302.78 3393.17,-307.84 3389.05,-298.08 3383.86,-302.78"/>
</a>
</g>
</g>
<!-- Node36 -->
<g id="Node000036" class="node">
<title>Node36</title>
<g id="a_Node000036"><a xlink:href="Octree_8cpp.html" target="_top" xlink:title=" ">
<polygon fill="white" stroke="#666666" points="3890.5,-217 3783.5,-217 3783.5,-187 3890.5,-187 3890.5,-217"/>
<text text-anchor="start" x="3791.5" y="-205" font-family="Helvetica,sans-Serif" font-size="10.00">src/physics/spatial</text>
<text text-anchor="middle" x="3837" y="-194" font-family="Helvetica,sans-Serif" font-size="10.00">/Octree.cpp</text>
</a>
</g>
</g>
<!-- Node1&#45;&gt;Node36 -->
<g id="edge58_Node000001_Node000036" class="edge">
<title>Node1&#45;&gt;Node36</title>
<g id="a_edge58_Node000001_Node000036"><a xlink:title=" ">
<path fill="none" stroke="#63b8ff" d="M3466.52,-305.29C3551.94,-281.71 3706.33,-239.08 3786.15,-217.04"/>
<polygon fill="#63b8ff" stroke="#63b8ff" points="3465.42,-301.96 3456.71,-308 3467.28,-308.71 3465.42,-301.96"/>
</a>
</g>
</g>
<!-- Node3 -->
<g id="Node000003" class="node">
<title>Node3</title>
<g id="a_Node000003"><a xlink:href="SceneManager_8h.html" target="_top" xlink:title=" ">
<polygon fill="white" stroke="#666666" points="2306,-211.5 2124,-211.5 2124,-192.5 2306,-192.5 2306,-211.5"/>
<text text-anchor="middle" x="2215" y="-199.5" font-family="Helvetica,sans-Serif" font-size="10.00">src/graphics/core/SceneManager.h</text>
</a>
</g>
</g>
<!-- Node2&#45;&gt;Node3 -->
<g id="edge2_Node000002_Node000003" class="edge">
<title>Node2&#45;&gt;Node3</title>
<g id="a_edge2_Node000002_Node000003"><a xlink:title=" ">
<path fill="none" stroke="#63b8ff" d="M3264.66,-256.96C3053.36,-246.1 2520.46,-218.7 2306.25,-207.69"/>
<polygon fill="#63b8ff" stroke="#63b8ff" points="3264.61,-260.46 3274.78,-257.48 3264.97,-253.47 3264.61,-260.46"/>
</a>
</g>
</g>
<!-- Node7 -->
<g id="Node000007" class="node">
<title>Node7</title>
<g id="a_Node000007"><a xlink:href="SceneObject_8h.html" target="_top" xlink:title=" ">
<polygon fill="white" stroke="#666666" points="1920,-151 1748,-151 1748,-132 1920,-132 1920,-151"/>
<text text-anchor="middle" x="1834" y="-139" font-family="Helvetica,sans-Serif" font-size="10.00">src/graphics/core/SceneObject.h</text>
</a>
</g>
</g>
<!-- Node2&#45;&gt;Node7 -->
<g id="edge50_Node000002_Node000007" class="edge">
<title>Node2&#45;&gt;Node7</title>
<g id="a_edge50_Node000002_Node000007"><a xlink:title=" ">
<path fill="none" stroke="#63b8ff" d="M3264.31,-260.88C3019.35,-258.76 2336.91,-249.98 2115,-217 2018.4,-202.64 1907.29,-167.43 1858.8,-151.09"/>
<polygon fill="#63b8ff" stroke="#63b8ff" points="3264.56,-264.38 3274.59,-260.97 3264.62,-257.38 3264.56,-264.38"/>
</a>
</g>
</g>
<!-- Node24 -->
<g id="Node000024" class="node">
<title>Node24</title>
<g id="a_Node000024"><a xlink:href="OpenGLWindow_8cpp.html" target="_top" xlink:title=" ">
<polygon fill="white" stroke="#666666" points="3236,-90.5 3094,-90.5 3094,-71.5 3236,-71.5 3236,-90.5"/>
<text text-anchor="middle" x="3165" y="-78.5" font-family="Helvetica,sans-Serif" font-size="10.00">src/ui/OpenGLWindow.cpp</text>
</a>
</g>
</g>
<!-- Node2&#45;&gt;Node24 -->
<g id="edge54_Node000002_Node000024" class="edge">
<title>Node2&#45;&gt;Node24</title>
<g id="a_edge54_Node000002_Node000024"><a xlink:title=" ">
<path fill="none" stroke="#63b8ff" d="M3323.21,-248.4C3307.36,-240.6 3288.08,-229.75 3273,-217 3225.55,-176.89 3184.22,-113.38 3170.14,-90.54"/>
<polygon fill="#63b8ff" stroke="#63b8ff" points="3322.04,-251.71 3332.57,-252.85 3325.05,-245.39 3322.04,-251.71"/>
</a>
</g>
</g>
<!-- Node26 -->
<g id="Node000026" class="node">
<title>Node26</title>
<g id="a_Node000026"><a xlink:href="GlobalsInspectorWidget_8cpp.html" target="_top" xlink:title=" ">
<polygon fill="white" stroke="#666666" points="3385.5,-96 3254.5,-96 3254.5,-66 3385.5,-66 3385.5,-96"/>
<text text-anchor="start" x="3262.5" y="-84" font-family="Helvetica,sans-Serif" font-size="10.00">src/ui/inspector/Globals</text>
<text text-anchor="middle" x="3320" y="-73" font-family="Helvetica,sans-Serif" font-size="10.00">InspectorWidget.cpp</text>
</a>
</g>
</g>
<!-- Node2&#45;&gt;Node26 -->
<g id="edge55_Node000002_Node000026" class="edge">
<title>Node2&#45;&gt;Node26</title>
<g id="a_edge55_Node000002_Node000026"><a xlink:title=" ">
<path fill="none" stroke="#63b8ff" d="M3319.36,-248.43C3305.83,-241.31 3291.65,-231.03 3284,-217 3261.95,-176.53 3292.46,-121.77 3309.66,-96.22"/>
<polygon fill="#63b8ff" stroke="#63b8ff" points="3318.01,-251.66 3328.53,-252.86 3321.05,-245.36 3318.01,-251.66"/>
</a>
</g>
</g>
<!-- Node27 -->
<g id="Node000027" class="node">
<title>Node27</title>
<g id="a_Node000027"><a xlink:href="InspectorWidget_8cpp.html" target="_top" xlink:title=" ">
<polygon fill="white" stroke="#666666" points="3542.5,-96 3403.5,-96 3403.5,-66 3542.5,-66 3542.5,-96"/>
<text text-anchor="start" x="3411.5" y="-84" font-family="Helvetica,sans-Serif" font-size="10.00">src/ui/inspector/Inspector</text>
<text text-anchor="middle" x="3473" y="-73" font-family="Helvetica,sans-Serif" font-size="10.00">Widget.cpp</text>
</a>
</g>
</g>
<!-- Node2&#45;&gt;Node27 -->
<g id="edge56_Node000002_Node000027" class="edge">
<title>Node2&#45;&gt;Node27</title>
<g id="a_edge56_Node000002_Node000027"><a xlink:title=" ">
<path fill="none" stroke="#63b8ff" d="M3335.36,-245.86C3327.86,-238.04 3319.94,-227.91 3316,-217 3311.47,-204.46 3309.72,-198.76 3316,-187 3340.49,-141.16 3394.84,-111.83 3432.68,-96.14"/>
<polygon fill="#63b8ff" stroke="#63b8ff" points="3332.95,-248.4 3342.56,-252.87 3337.84,-243.39 3332.95,-248.4"/>
</a>
</g>
</g>
<!-- Node34 -->
<g id="Node000034" class="node">
<title>Node34</title>
<g id="a_Node000034"><a xlink:href="PhysicsSystem_8cpp.html" target="_top" xlink:title=" ">
<polygon fill="white" stroke="#666666" points="3492.5,-211.5 3325.5,-211.5 3325.5,-192.5 3492.5,-192.5 3492.5,-211.5"/>
<text text-anchor="middle" x="3409" y="-199.5" font-family="Helvetica,sans-Serif" font-size="10.00">src/physics/PhysicsSystem.cpp</text>
</a>
</g>
</g>
<!-- Node2&#45;&gt;Node34 -->
<g id="edge51_Node000002_Node000034" class="edge">
<title>Node2&#45;&gt;Node34</title>
<g id="a_edge51_Node000002_Node000034"><a xlink:title=" ">
<path fill="none" stroke="#63b8ff" d="M3368.23,-245.59C3378.69,-234.67 3392.17,-220.58 3400.7,-211.67"/>
<polygon fill="#63b8ff" stroke="#63b8ff" points="3365.65,-243.22 3361.26,-252.87 3370.71,-248.06 3365.65,-243.22"/>
</a>
</g>
</g>
<!-- Node35 -->
<g id="Node000035" class="node">
<title>Node35</title>
<g id="a_Node000035"><a xlink:href="ProblemRouter_8cpp.html" target="_top" xlink:title=" ">
<polygon fill="white" stroke="#666666" points="3622,-217 3510,-217 3510,-187 3622,-187 3622,-217"/>
<text text-anchor="start" x="3518" y="-205" font-family="Helvetica,sans-Serif" font-size="10.00">src/physics/solver</text>
<text text-anchor="middle" x="3566" y="-194" font-family="Helvetica,sans-Serif" font-size="10.00">/ProblemRouter.cpp</text>
</a>
</g>
</g>
<!-- Node2&#45;&gt;Node35 -->
<g id="edge52_Node000002_Node000035" class="edge">
<title>Node2&#45;&gt;Node35</title>
<g id="a_edge52_Node000002_Node000035"><a xlink:title=" ">
<path fill="none" stroke="#63b8ff" d="M3393.7,-250.32C3428.14,-240.86 3477.67,-227.26 3514.79,-217.06"/>
<polygon fill="#63b8ff" stroke="#63b8ff" points="3392.69,-246.97 3383.97,-252.99 3394.54,-253.72 3392.69,-246.97"/>
</a>
</g>
</g>
<!-- Node2&#45;&gt;Node36 -->
<g id="edge53_Node000002_Node000036" class="edge">
<title>Node2&#45;&gt;Node36</title>
<g id="a_edge53_Node000002_Node000036"><a xlink:title=" ">
<path fill="none" stroke="#63b8ff" d="M3441.35,-255.21C3527.01,-248.4 3660.45,-235.91 3775,-217 3777.72,-216.55 3780.5,-216.06 3783.31,-215.53"/>
<polygon fill="#63b8ff" stroke="#63b8ff" points="3440.84,-251.74 3431.14,-256.01 3441.39,-258.72 3440.84,-251.74"/>
</a>
</g>
</g>
<!-- Node37 -->
<g id="Node000037" class="node">
<title>Node37</title>
<g id="a_Node000037"><a xlink:href="PhysicsTests_8cpp.html" target="_top" xlink:title=" ">
<polygon fill="white" stroke="#666666" points="3765.5,-211.5 3640.5,-211.5 3640.5,-192.5 3765.5,-192.5 3765.5,-211.5"/>
<text text-anchor="middle" x="3703" y="-199.5" font-family="Helvetica,sans-Serif" font-size="10.00">tests/PhysicsTests.cpp</text>
</a>
</g>
</g>
<!-- Node2&#45;&gt;Node37 -->
<g id="edge57_Node000002_Node000037" class="edge">
<title>Node2&#45;&gt;Node37</title>
<g id="a_edge57_Node000002_Node000037"><a xlink:title=" ">
<path fill="none" stroke="#63b8ff" d="M3420.01,-251.41C3476.38,-242.78 3559.07,-229.75 3631,-217 3640.53,-215.31 3650.75,-213.39 3660.4,-211.53"/>
<polygon fill="#63b8ff" stroke="#63b8ff" points="3419.15,-248 3409.8,-252.98 3420.21,-254.92 3419.15,-248"/>
</a>
</g>
</g>
<!-- Node4 -->
<g id="Node000004" class="node">
<title>Node4</title>
<g id="a_Node000004"><a xlink:href="Gizmo_8cpp.html" target="_top" xlink:title=" ">
<polygon fill="white" stroke="#666666" points="138,-30 0,-30 0,0 138,0 138,-30"/>
<text text-anchor="start" x="8" y="-18" font-family="Helvetica,sans-Serif" font-size="10.00">src/graphics/components</text>
<text text-anchor="middle" x="69" y="-7" font-family="Helvetica,sans-Serif" font-size="10.00">/Gizmo.cpp</text>
</a>
</g>
</g>
<!-- Node3&#45;&gt;Node4 -->
<g id="edge3_Node000003_Node000004" class="edge">
<title>Node3&#45;&gt;Node4</title>
<g id="a_edge3_Node000003_Node000004"><a xlink:title=" ">
<path fill="none" stroke="#63b8ff" d="M2113.87,-201.13C1774.82,-201.12 680.2,-197.41 331,-151 228.1,-137.32 183.53,-162.72 104,-96 83.79,-79.05 74.88,-48.18 71.25,-30.15"/>
<polygon fill="#63b8ff" stroke="#63b8ff" points="2113.92,-204.63 2123.92,-201.13 2113.92,-197.63 2113.92,-204.63"/>
</a>
</g>
</g>
<!-- Node5 -->
<g id="Node000005" class="node">
<title>Node5</title>
<g id="a_Node000005"><a xlink:href="SceneManager_8cpp.html" target="_top" xlink:title=" ">
<polygon fill="white" stroke="#666666" points="506,-24.5 312,-24.5 312,-5.5 506,-5.5 506,-24.5"/>
<text text-anchor="middle" x="409" y="-12.5" font-family="Helvetica,sans-Serif" font-size="10.00">src/graphics/core/SceneManager.cpp</text>
</a>
</g>
</g>
<!-- Node3&#45;&gt;Node5 -->
<g id="edge4_Node000003_Node000005" class="edge">
<title>Node3&#45;&gt;Node5</title>
<g id="a_edge4_Node000003_Node000005"><a xlink:title=" ">
<path fill="none" stroke="#63b8ff" d="M2113.97,-200.19C1729.29,-196.87 376.09,-182.93 345,-151 307.55,-112.53 372.51,-48.01 398.75,-24.72"/>
<polygon fill="#63b8ff" stroke="#63b8ff" points="2113.95,-203.69 2123.98,-200.28 2114.01,-196.69 2113.95,-203.69"/>
</a>
</g>
</g>
<!-- Node6 -->
<g id="Node000006" class="node">
<title>Node6</title>
<g id="a_Node000006"><a xlink:href="SceneObject_8cpp.html" target="_top" xlink:title=" ">
<polygon fill="white" stroke="#666666" points="1157.5,-90.5 974.5,-90.5 974.5,-71.5 1157.5,-71.5 1157.5,-90.5"/>
<text text-anchor="middle" x="1066" y="-78.5" font-family="Helvetica,sans-Serif" font-size="10.00">src/graphics/core/SceneObject.cpp</text>
</a>
</g>
</g>
<!-- Node3&#45;&gt;Node6 -->
<g id="edge5_Node000003_Node000006" class="edge">
<title>Node3&#45;&gt;Node6</title>
<g id="a_edge5_Node000003_Node000006"><a xlink:title=" ">
<path fill="none" stroke="#63b8ff" d="M2113.86,-192.45C1926.03,-176.24 1510.71,-138.79 1162,-96 1148.88,-94.39 1134.77,-92.45 1121.53,-90.54"/>
<polygon fill="#63b8ff" stroke="#63b8ff" points="2113.73,-195.96 2124,-193.33 2114.33,-188.98 2113.73,-195.96"/>
</a>
</g>
</g>
<!-- Node3&#45;&gt;Node7 -->
<g id="edge6_Node000003_Node000007" class="edge">
<title>Node3&#45;&gt;Node7</title>
<g id="a_edge6_Node000003_Node000007"><a xlink:title=" ">
<path fill="none" stroke="#63b8ff" d="M2149.55,-190.95C2076.19,-179.69 1958.49,-161.61 1889.47,-151.02"/>
<polygon fill="#63b8ff" stroke="#63b8ff" points="2149.18,-194.44 2159.6,-192.49 2150.25,-187.52 2149.18,-194.44"/>
</a>
</g>
</g>
<!-- Node15 -->
<g id="Node000015" class="node">
<title>Node15</title>
<g id="a_Node000015"><a xlink:href="Colliders_8cpp.html" target="_top" xlink:title=" ">
<polygon fill="white" stroke="#666666" points="2792,-96 2684,-96 2684,-66 2792,-66 2792,-96"/>
<text text-anchor="start" x="2692" y="-84" font-family="Helvetica,sans-Serif" font-size="10.00">src/graphics/debug</text>
<text text-anchor="middle" x="2738" y="-73" font-family="Helvetica,sans-Serif" font-size="10.00">/Colliders.cpp</text>
</a>
</g>
</g>
<!-- Node3&#45;&gt;Node15 -->
<g id="edge40_Node000003_Node000015" class="edge">
<title>Node3&#45;&gt;Node15</title>
<g id="a_edge40_Node000003_Node000015"><a xlink:title=" ">
<path fill="none" stroke="#63b8ff" d="M2262.45,-190.2C2359.64,-168.09 2580.81,-117.77 2683.61,-94.38"/>
<polygon fill="#63b8ff" stroke="#63b8ff" points="2261.59,-186.81 2252.61,-192.44 2263.14,-193.64 2261.59,-186.81"/>
</a>
</g>
</g>
<!-- Node17 -->
<g id="Node000017" class="node">
<title>Node17</title>
<g id="a_Node000017"><a xlink:href="Forces_8cpp.html" target="_top" xlink:title=" ">
<polygon fill="white" stroke="#666666" points="632,-30 524,-30 524,0 632,0 632,-30"/>
<text text-anchor="start" x="532" y="-18" font-family="Helvetica,sans-Serif" font-size="10.00">src/graphics/debug</text>
<text text-anchor="middle" x="578" y="-7" font-family="Helvetica,sans-Serif" font-size="10.00">/Forces.cpp</text>
</a>
</g>
</g>
<!-- Node3&#45;&gt;Node17 -->
<g id="edge41_Node000003_Node000017" class="edge">
<title>Node3&#45;&gt;Node17</title>
<g id="a_edge41_Node000003_Node000017"><a xlink:title=" ">
<path fill="none" stroke="#63b8ff" d="M2113.52,-199.29C1842.89,-194.4 1108.17,-178.9 867,-151 740.58,-136.37 671.68,-190.1 586,-96 569.74,-78.14 571.8,-47.89 574.85,-30.14"/>
<polygon fill="#63b8ff" stroke="#63b8ff" points="2113.67,-202.79 2123.73,-199.47 2113.8,-195.8 2113.67,-202.79"/>
</a>
</g>
</g>
<!-- Node18 -->
<g id="Node000018" class="node">
<title>Node18</title>
<g id="a_Node000018"><a xlink:href="PathTraces_8cpp.html" target="_top" xlink:title=" ">
<polygon fill="white" stroke="#666666" points="785,-30 677,-30 677,0 785,0 785,-30"/>
<text text-anchor="start" x="685" y="-18" font-family="Helvetica,sans-Serif" font-size="10.00">src/graphics/debug</text>
<text text-anchor="middle" x="731" y="-7" font-family="Helvetica,sans-Serif" font-size="10.00">/PathTraces.cpp</text>
</a>
</g>
</g>
<!-- Node3&#45;&gt;Node18 -->
<g id="edge42_Node000003_Node000018" class="edge">
<title>Node3&#45;&gt;Node18</title>
<g id="a_edge42_Node000003_Node000018"><a xlink:title=" ">
<path fill="none" stroke="#63b8ff" d="M2113.9,-200.57C1799.42,-198.31 853.3,-184.18 750,-96 731,-79.78 729.1,-48.35 729.8,-30.09"/>
<polygon fill="#63b8ff" stroke="#63b8ff" points="2113.9,-204.07 2123.92,-200.64 2113.94,-197.07 2113.9,-204.07"/>
</a>
</g>
</g>
<!-- Node20 -->
<g id="Node000020" class="node">
<title>Node20</title>
<g id="a_Node000020"><a xlink:href="AstronomyPresets_8cpp.html" target="_top" xlink:title=" ">
<polygon fill="white" stroke="#666666" points="2939.5,-96 2810.5,-96 2810.5,-66 2939.5,-66 2939.5,-96"/>
<text text-anchor="start" x="2818.5" y="-84" font-family="Helvetica,sans-Serif" font-size="10.00">src/graphics/presets</text>
<text text-anchor="middle" x="2875" y="-73" font-family="Helvetica,sans-Serif" font-size="10.00">/AstronomyPresets.cpp</text>
</a>
</g>
</g>
<!-- Node3&#45;&gt;Node20 -->
<g id="edge43_Node000003_Node000020" class="edge">
<title>Node3&#45;&gt;Node20</title>
<g id="a_edge43_Node000003_Node000020"><a xlink:title=" ">
<path fill="none" stroke="#63b8ff" d="M2273.78,-190.66C2379.39,-172.04 2608.19,-131.51 2801,-96 2804.09,-95.43 2807.24,-94.85 2810.43,-94.25"/>
<polygon fill="#63b8ff" stroke="#63b8ff" points="2272.89,-187.26 2263.65,-192.45 2274.1,-194.16 2272.89,-187.26"/>
</a>
</g>
</g>
<!-- Node3&#45;&gt;Node24 -->
<g id="edge47_Node000003_Node000024" class="edge">
<title>Node3&#45;&gt;Node24</title>
<g id="a_edge47_Node000003_Node000024"><a xlink:title=" ">
<path fill="none" stroke="#63b8ff" d="M2316.34,-200.17C2504.95,-197.75 2902.72,-188.24 3035,-151 3081.98,-137.77 3131.22,-105.87 3153.2,-90.53"/>
<polygon fill="#63b8ff" stroke="#63b8ff" points="2316.1,-196.67 2306.14,-200.3 2316.18,-203.67 2316.1,-196.67"/>
</a>
</g>
</g>
<!-- Node3&#45;&gt;Node26 -->
<g id="edge48_Node000003_Node000026" class="edge">
<title>Node3&#45;&gt;Node26</title>
<g id="a_edge48_Node000003_Node000026"><a xlink:title=" ">
<path fill="none" stroke="#63b8ff" d="M2316.27,-197.8C2510.64,-191.21 2929.37,-174.72 3072,-151 3146.72,-138.57 3231.22,-112.35 3279.79,-96.05"/>
<polygon fill="#63b8ff" stroke="#63b8ff" points="2315.94,-194.31 2306.06,-198.14 2316.17,-201.3 2315.94,-194.31"/>
</a>
</g>
</g>
<!-- Node3&#45;&gt;Node27 -->
<g id="edge49_Node000003_Node000027" class="edge">
<title>Node3&#45;&gt;Node27</title>
<g id="a_edge49_Node000003_Node000027"><a xlink:title=" ">
<path fill="none" stroke="#63b8ff" d="M2316.22,-200.16C2485.1,-197.72 2834.77,-188.16 3128,-151 3230.26,-138.04 3347.61,-112.19 3415.73,-96.07"/>
<polygon fill="#63b8ff" stroke="#63b8ff" points="2316.05,-196.67 2306.1,-200.3 2316.15,-203.66 2316.05,-196.67"/>
</a>
</g>
</g>
<!-- Node31 -->
<g id="Node000031" class="node">
<title>Node31</title>
<g id="a_Node000031"><a xlink:href="SceneSerializer_8h.html" target="_top" xlink:title=" ">
<polygon fill="white" stroke="#666666" points="539.5,-151 354.5,-151 354.5,-132 539.5,-132 539.5,-151"/>
<text text-anchor="middle" x="447" y="-139" font-family="Helvetica,sans-Serif" font-size="10.00">src/graphics/core/SceneSerializer.h</text>
</a>
</g>
</g>
<!-- Node3&#45;&gt;Node31 -->
<g id="edge37_Node000003_Node000031" class="edge">
<title>Node3&#45;&gt;Node31</title>
<g id="a_edge37_Node000003_Node000031"><a xlink:title=" ">
<path fill="none" stroke="#63b8ff" d="M2113.79,-199.71C1854.26,-196.04 1143.91,-183.56 553,-151 548.67,-150.76 544.24,-150.49 539.76,-150.21"/>
<polygon fill="#63b8ff" stroke="#63b8ff" points="2113.9,-203.22 2123.95,-199.86 2114,-196.22 2113.9,-203.22"/>
</a>
</g>
</g>
<!-- Node32 -->
<g id="Node000032" class="node">
<title>Node32</title>
<g id="a_Node000032"><a xlink:href="MainWindow_8h.html" target="_top" xlink:title=" ">
<polygon fill="white" stroke="#666666" points="3026.5,-151 2909.5,-151 2909.5,-132 3026.5,-132 3026.5,-151"/>
<text text-anchor="middle" x="2968" y="-139" font-family="Helvetica,sans-Serif" font-size="10.00">src/ui/MainWindow.h</text>
</a>
</g>
</g>
<!-- Node3&#45;&gt;Node32 -->
<g id="edge44_Node000003_Node000032" class="edge">
<title>Node3&#45;&gt;Node32</title>
<g id="a_edge44_Node000003_Node000032"><a xlink:title=" ">
<path fill="none" stroke="#63b8ff" d="M2316.52,-193.11C2476.31,-180.7 2781.46,-156.99 2909.33,-147.06"/>
<polygon fill="#63b8ff" stroke="#63b8ff" points="2315.9,-189.65 2306.2,-193.91 2316.45,-196.63 2315.9,-189.65"/>
</a>
</g>
</g>
<!-- Node7&#45;&gt;Node4 -->
<g id="edge7_Node000007_Node000004" class="edge">
<title>Node7&#45;&gt;Node4</title>
<g id="a_edge7_Node000007_Node000004"><a xlink:title=" ">
<path fill="none" stroke="#63b8ff" d="M1737.95,-139.96C1391.13,-137.76 220.12,-127.97 147,-96 115.54,-82.24 90.3,-49.27 77.71,-30.22"/>
<polygon fill="#63b8ff" stroke="#63b8ff" points="1737.94,-143.46 1747.96,-140.02 1737.99,-136.46 1737.94,-143.46"/>
</a>
</g>
</g>
<!-- Node7&#45;&gt;Node5 -->
<g id="edge15_Node000007_Node000005" class="edge">
<title>Node7&#45;&gt;Node5</title>
<g id="a_edge15_Node000007_Node000005"><a xlink:title=" ">
<path fill="none" stroke="#63b8ff" d="M1737.54,-140.79C1427.13,-141.31 471.36,-139.34 422,-96 401.49,-77.99 404.6,-41.33 407.31,-24.63"/>
<polygon fill="#63b8ff" stroke="#63b8ff" points="1737.87,-144.29 1747.86,-140.78 1737.86,-137.29 1737.87,-144.29"/>
</a>
</g>
</g>
<!-- Node7&#45;&gt;Node6 -->
<g id="edge16_Node000007_Node000006" class="edge">
<title>Node7&#45;&gt;Node6</title>
<g id="a_edge16_Node000007_Node000006"><a xlink:title=" ">
<path fill="none" stroke="#63b8ff" d="M1737.65,-135.97C1608.65,-129.45 1372.74,-115.98 1172,-96 1156.85,-94.49 1140.53,-92.51 1125.35,-90.52"/>
<polygon fill="#63b8ff" stroke="#63b8ff" points="1737.73,-139.47 1747.9,-136.48 1738.08,-132.48 1737.73,-139.47"/>
</a>
</g>
</g>
<!-- Node8 -->
<g id="Node000008" class="node">
<title>Node8</title>
<g id="a_Node000008"><a xlink:href="RotateHandle_8cpp.html" target="_top" xlink:title=" ">
<polygon fill="white" stroke="#666666" points="1352,-96 1214,-96 1214,-66 1352,-66 1352,-96"/>
<text text-anchor="start" x="1222" y="-84" font-family="Helvetica,sans-Serif" font-size="10.00">src/graphics/components</text>
<text text-anchor="middle" x="1283" y="-73" font-family="Helvetica,sans-Serif" font-size="10.00">/RotateHandle.cpp</text>
</a>
</g>
</g>
<!-- Node7&#45;&gt;Node8 -->
<g id="edge8_Node000007_Node000008" class="edge">
<title>Node7&#45;&gt;Node8</title>
<g id="a_edge8_Node000007_Node000008"><a xlink:title=" ">
<path fill="none" stroke="#63b8ff" d="M1737.63,-133.81C1641.85,-126.6 1490.9,-113.74 1361,-96 1358.14,-95.61 1355.22,-95.19 1352.27,-94.74"/>
<polygon fill="#63b8ff" stroke="#63b8ff" points="1737.64,-137.32 1747.87,-134.58 1738.16,-130.34 1737.64,-137.32"/>
</a>
</g>
</g>
<!-- Node9 -->
<g id="Node000009" class="node">
<title>Node9</title>
<g id="a_Node000009"><a xlink:href="ScaleHandle_8h.html" target="_top" xlink:title=" ">
<polygon fill="white" stroke="#666666" points="294,-96 156,-96 156,-66 294,-66 294,-96"/>
<text text-anchor="start" x="164" y="-84" font-family="Helvetica,sans-Serif" font-size="10.00">src/graphics/components</text>
<text text-anchor="middle" x="225" y="-73" font-family="Helvetica,sans-Serif" font-size="10.00">/ScaleHandle.h</text>
</a>
</g>
</g>
<!-- Node7&#45;&gt;Node9 -->
<g id="edge9_Node000007_Node000009" class="edge">
<title>Node7&#45;&gt;Node9</title>
<g id="a_edge9_Node000007_Node000009"><a xlink:title=" ">
<path fill="none" stroke="#63b8ff" d="M1737.49,-139.34C1505.16,-136.15 896.37,-125.45 389,-96 357.9,-94.2 323.56,-91.39 294.36,-88.76"/>
<polygon fill="#63b8ff" stroke="#63b8ff" points="1737.56,-142.84 1747.61,-139.48 1737.65,-135.84 1737.56,-142.84"/>
</a>
</g>
</g>
<!-- Node11 -->
<g id="Node000011" class="node">
<title>Node11</title>
<g id="a_Node000011"><a xlink:href="TranslateHandle_8cpp.html" target="_top" xlink:title=" ">
<polygon fill="white" stroke="#666666" points="1508,-96 1370,-96 1370,-66 1508,-66 1508,-96"/>
<text text-anchor="start" x="1378" y="-84" font-family="Helvetica,sans-Serif" font-size="10.00">src/graphics/components</text>
<text text-anchor="middle" x="1439" y="-73" font-family="Helvetica,sans-Serif" font-size="10.00">/TranslateHandle.cpp</text>
</a>
</g>
</g>
<!-- Node7&#45;&gt;Node11 -->
<g id="edge12_Node000007_Node000011" class="edge">
<title>Node7&#45;&gt;Node11</title>
<g id="a_edge12_Node000007_Node000011"><a xlink:title=" ">
<path fill="none" stroke="#63b8ff" d="M1757.96,-130.65C1693.67,-122.13 1599.17,-109.14 1517,-96 1514.15,-95.54 1511.24,-95.07 1508.3,-94.58"/>
<polygon fill="#63b8ff" stroke="#63b8ff" points="1757.64,-134.14 1768.02,-131.98 1758.56,-127.2 1757.64,-134.14"/>
</a>
</g>
</g>
<!-- Node12 -->
<g id="Node000012" class="node">
<title>Node12</title>
<g id="a_Node000012"><a xlink:href="Camera_8cpp.html" target="_top" xlink:title=" ">
<polygon fill="white" stroke="#666666" points="1687.5,-90.5 1526.5,-90.5 1526.5,-71.5 1687.5,-71.5 1687.5,-90.5"/>
<text text-anchor="middle" x="1607" y="-78.5" font-family="Helvetica,sans-Serif" font-size="10.00">src/graphics/core/Camera.cpp</text>
</a>
</g>
</g>
<!-- Node7&#45;&gt;Node12 -->
<g id="edge13_Node000007_Node000012" class="edge">
<title>Node7&#45;&gt;Node12</title>
<g id="a_edge13_Node000007_Node000012"><a xlink:title=" ">
<path fill="none" stroke="#63b8ff" d="M1791.19,-129.47C1747.3,-118.16 1679.99,-100.81 1640.05,-90.52"/>
<polygon fill="#63b8ff" stroke="#63b8ff" points="1790.44,-132.89 1800.99,-131.99 1792.18,-126.11 1790.44,-132.89"/>
</a>
</g>
</g>
<!-- Node13 -->
<g id="Node000013" class="node">
<title>Node13</title>
<g id="a_Node000013"><a xlink:href="Scene_8cpp.html" target="_top" xlink:title=" ">
<polygon fill="white" stroke="#666666" points="1858,-90.5 1706,-90.5 1706,-71.5 1858,-71.5 1858,-90.5"/>
<text text-anchor="middle" x="1782" y="-78.5" font-family="Helvetica,sans-Serif" font-size="10.00">src/graphics/core/Scene.cpp</text>
</a>
</g>
</g>
<!-- Node7&#45;&gt;Node13 -->
<g id="edge14_Node000007_Node000013" class="edge">
<title>Node7&#45;&gt;Node13</title>
<g id="a_edge14_Node000007_Node000013"><a xlink:title=" ">
<path fill="none" stroke="#63b8ff" d="M1819.57,-124.27C1809.9,-113.39 1797.55,-99.49 1789.7,-90.67"/>
<polygon fill="#63b8ff" stroke="#63b8ff" points="1817.07,-126.72 1826.33,-131.87 1822.3,-122.07 1817.07,-126.72"/>
</a>
</g>
</g>
<!-- Node14 -->
<g id="Node000014" class="node">
<title>Node14</title>
<g id="a_Node000014"><a xlink:href="SceneSerializer_8cpp.html" target="_top" xlink:title=" ">
<polygon fill="white" stroke="#666666" points="956.5,-90.5 759.5,-90.5 759.5,-71.5 956.5,-71.5 956.5,-90.5"/>
<text text-anchor="middle" x="858" y="-78.5" font-family="Helvetica,sans-Serif" font-size="10.00">src/graphics/core/SceneSerializer.cpp</text>
</a>
</g>
</g>
<!-- Node7&#45;&gt;Node14 -->
<g id="edge17_Node000007_Node000014" class="edge">
<title>Node7&#45;&gt;Node14</title>
<g id="a_edge17_Node000007_Node000014"><a xlink:title=" ">
<path fill="none" stroke="#63b8ff" d="M1737.48,-138.05C1576.91,-133.4 1244.89,-121.44 965,-96 949.23,-94.57 932.22,-92.55 916.5,-90.5"/>
<polygon fill="#63b8ff" stroke="#63b8ff" points="1737.71,-141.55 1747.81,-138.34 1737.91,-134.56 1737.71,-141.55"/>
</a>
</g>
</g>
<!-- Node7&#45;&gt;Node15 -->
<g id="edge18_Node000007_Node000015" class="edge">
<title>Node7&#45;&gt;Node15</title>
<g id="a_edge18_Node000007_Node000015"><a xlink:title=" ">
<path fill="none" stroke="#63b8ff" d="M1930.37,-140.47C2087.02,-139.28 2406.34,-132.12 2674,-96 2677.27,-95.56 2680.62,-95.04 2683.99,-94.46"/>
<polygon fill="#63b8ff" stroke="#63b8ff" points="1930.26,-136.97 1920.29,-140.54 1930.31,-143.97 1930.26,-136.97"/>
</a>
</g>
</g>
<!-- Node16 -->
<g id="Node000016" class="node">
<title>Node16</title>
<g id="a_Node000016"><a xlink:href="Forces_8h.html" target="_top" xlink:title=" ">
<polygon fill="white" stroke="#666666" points="539,-96 431,-96 431,-66 539,-66 539,-96"/>
<text text-anchor="start" x="439" y="-84" font-family="Helvetica,sans-Serif" font-size="10.00">src/graphics/debug</text>
<text text-anchor="middle" x="485" y="-73" font-family="Helvetica,sans-Serif" font-size="10.00">/Forces.h</text>
</a>
</g>
</g>
<!-- Node7&#45;&gt;Node16 -->
<g id="edge19_Node000007_Node000016" class="edge">
<title>Node7&#45;&gt;Node16</title>
<g id="a_edge19_Node000007_Node000016"><a xlink:title=" ">
<path fill="none" stroke="#63b8ff" d="M1737.9,-140.41C1528.29,-139.49 1014.47,-133.24 586,-96 570.74,-94.67 554.27,-92.65 539.14,-90.54"/>
<polygon fill="#63b8ff" stroke="#63b8ff" points="1737.94,-143.91 1747.95,-140.45 1737.96,-136.91 1737.94,-143.91"/>
</a>
</g>
</g>
<!-- Node7&#45;&gt;Node18 -->
<g id="edge22_Node000007_Node000018" class="edge">
<title>Node7&#45;&gt;Node18</title>
<g id="a_edge22_Node000007_Node000018"><a xlink:title=" ">
<path fill="none" stroke="#63b8ff" d="M1737.53,-140.43C1585.99,-139.19 1299.66,-131.97 1205,-96 1184.56,-88.23 1186.27,-74.21 1166,-66 1098.1,-38.48 885.85,-24.06 785.11,-18.61"/>
<polygon fill="#63b8ff" stroke="#63b8ff" points="1737.73,-143.93 1747.76,-140.51 1737.79,-136.93 1737.73,-143.93"/>
</a>
</g>
</g>
<!-- Node19 -->
<g id="Node000019" class="node">
<title>Node19</title>
<g id="a_Node000019"><a xlink:href="PathTraces_8h.html" target="_top" xlink:title=" ">
<polygon fill="white" stroke="#666666" points="703,-96 595,-96 595,-66 703,-66 703,-96"/>
<text text-anchor="start" x="603" y="-84" font-family="Helvetica,sans-Serif" font-size="10.00">src/graphics/debug</text>
<text text-anchor="middle" x="649" y="-73" font-family="Helvetica,sans-Serif" font-size="10.00">/PathTraces.h</text>
</a>
</g>
</g>
<!-- Node7&#45;&gt;Node19 -->
<g id="edge23_Node000007_Node000019" class="edge">
<title>Node7&#45;&gt;Node19</title>
<g id="a_edge23_Node000007_Node000019"><a xlink:title=" ">
<path fill="none" stroke="#63b8ff" d="M1737.53,-139.67C1547.95,-137.34 1113.59,-128.59 750,-96 734.75,-94.63 718.27,-92.59 703.14,-90.49"/>
<polygon fill="#63b8ff" stroke="#63b8ff" points="1737.71,-143.17 1747.75,-139.79 1737.79,-136.17 1737.71,-143.17"/>
</a>
</g>
</g>
<!-- Node7&#45;&gt;Node20 -->
<g id="edge26_Node000007_Node000020" class="edge">
<title>Node7&#45;&gt;Node20</title>
<g id="a_edge26_Node000007_Node000020"><a xlink:title=" ">
<path fill="none" stroke="#63b8ff" d="M1930.2,-140.55C2104.45,-139.65 2483.7,-133.13 2801,-96 2803.99,-95.65 2807.03,-95.25 2810.11,-94.81"/>
<polygon fill="#63b8ff" stroke="#63b8ff" points="1930.01,-137.05 1920.03,-140.6 1930.05,-144.05 1930.01,-137.05"/>
</a>
</g>
</g>
<!-- Node21 -->
<g id="Node000021" class="node">
<title>Node21</title>
<g id="a_Node000021"><a xlink:href="HierarchyWidget_8h.html" target="_top" xlink:title=" ">
<polygon fill="white" stroke="#666666" points="2013.5,-90.5 1876.5,-90.5 1876.5,-71.5 2013.5,-71.5 2013.5,-90.5"/>
<text text-anchor="middle" x="1945" y="-78.5" font-family="Helvetica,sans-Serif" font-size="10.00">src/ui/HierarchyWidget.h</text>
</a>
</g>
</g>
<!-- Node7&#45;&gt;Node21 -->
<g id="edge27_Node000007_Node000021" class="edge">
<title>Node7&#45;&gt;Node21</title>
<g id="a_edge27_Node000007_Node000021"><a xlink:title=" ">
<path fill="none" stroke="#63b8ff" d="M1859.47,-127.08C1880.71,-115.88 1910.33,-100.27 1928.55,-90.67"/>
<polygon fill="#63b8ff" stroke="#63b8ff" points="1857.59,-124.11 1850.38,-131.87 1860.86,-130.3 1857.59,-124.11"/>
</a>
</g>
</g>
<!-- Node7&#45;&gt;Node24 -->
<g id="edge30_Node000007_Node000024" class="edge">
<title>Node7&#45;&gt;Node24</title>
<g id="a_edge30_Node000007_Node000024"><a xlink:title=" ">
<path fill="none" stroke="#63b8ff" d="M1930.62,-138.76C2183.53,-133.92 2860.84,-119.15 3084,-96 3096.49,-94.7 3109.97,-92.64 3122.27,-90.5"/>
<polygon fill="#63b8ff" stroke="#63b8ff" points="1930.28,-135.26 1920.35,-138.95 1930.41,-142.26 1930.28,-135.26"/>
</a>
</g>
</g>
<!-- Node25 -->
<g id="Node000025" class="node">
<title>Node25</title>
<g id="a_Node000025"><a xlink:href="ForcesInspectorWidget_8cpp.html" target="_top" xlink:title=" ">
<polygon fill="white" stroke="#666666" points="2202,-96 2032,-96 2032,-66 2202,-66 2202,-96"/>
<text text-anchor="start" x="2040" y="-84" font-family="Helvetica,sans-Serif" font-size="10.00">src/ui/inspector/ForcesInspector</text>
<text text-anchor="middle" x="2117" y="-73" font-family="Helvetica,sans-Serif" font-size="10.00">Widget.cpp</text>
</a>
</g>
</g>
<!-- Node7&#45;&gt;Node25 -->
<g id="edge31_Node000007_Node000025" class="edge">
<title>Node7&#45;&gt;Node25</title>
<g id="a_edge31_Node000007_Node000025"><a xlink:title=" ">
<path fill="none" stroke="#63b8ff" d="M1885.18,-129.92C1931.1,-120.43 1998.83,-106.43 2049.24,-96.01"/>
<polygon fill="#63b8ff" stroke="#63b8ff" points="1884.24,-126.54 1875.15,-131.99 1885.65,-133.4 1884.24,-126.54"/>
</a>
</g>
</g>
<!-- Node7&#45;&gt;Node26 -->
<g id="edge32_Node000007_Node000026" class="edge">
<title>Node7&#45;&gt;Node26</title>
<g id="a_edge32_Node000007_Node000026"><a xlink:title=" ">
<path fill="none" stroke="#63b8ff" d="M1930.78,-139.38C2205.98,-135.88 2989.55,-123.71 3245,-96 3248.03,-95.67 3251.12,-95.29 3254.23,-94.86"/>
<polygon fill="#63b8ff" stroke="#63b8ff" points="1930.37,-135.88 1920.42,-139.51 1930.46,-142.88 1930.37,-135.88"/>
</a>
</g>
</g>
<!-- Node7&#45;&gt;Node27 -->
<g id="edge33_Node000007_Node000027" class="edge">
<title>Node7&#45;&gt;Node27</title>
<g id="a_edge33_Node000007_Node000027"><a xlink:title=" ">
<path fill="none" stroke="#63b8ff" d="M1930.63,-139.6C2225.04,-136.58 3108.14,-125.25 3394,-96 3397.05,-95.69 3400.16,-95.33 3403.29,-94.93"/>
<polygon fill="#63b8ff" stroke="#63b8ff" points="1930.37,-136.11 1920.41,-139.71 1930.44,-143.11 1930.37,-136.11"/>
</a>
</g>
</g>
<!-- Node28 -->
<g id="Node000028" class="node">
<title>Node28</title>
<g id="a_Node000028"><a xlink:href="PhysicsInspectorWidget_8cpp.html" target="_top" xlink:title=" ">
<polygon fill="white" stroke="#666666" points="2351.5,-96 2220.5,-96 2220.5,-66 2351.5,-66 2351.5,-96"/>
<text text-anchor="start" x="2228.5" y="-84" font-family="Helvetica,sans-Serif" font-size="10.00">src/ui/inspector/Physics</text>
<text text-anchor="middle" x="2286" y="-73" font-family="Helvetica,sans-Serif" font-size="10.00">InspectorWidget.cpp</text>
</a>
</g>
</g>
<!-- Node7&#45;&gt;Node28 -->
<g id="edge34_Node000007_Node000028" class="edge">
<title>Node7&#45;&gt;Node28</title>
<g id="a_edge34_Node000007_Node000028"><a xlink:title=" ">
<path fill="none" stroke="#63b8ff" d="M1930.39,-130.92C2006.71,-122.91 2115.91,-110.47 2211,-96 2214.01,-95.54 2217.09,-95.05 2220.19,-94.54"/>
<polygon fill="#63b8ff" stroke="#63b8ff" points="1929.9,-127.45 1920.32,-131.97 1930.63,-134.42 1929.9,-127.45"/>
</a>
</g>
</g>
<!-- Node29 -->
<g id="Node000029" class="node">
<title>Node29</title>
<g id="a_Node000029"><a xlink:href="ThermalInspectorWidget_8cpp.html" target="_top" xlink:title=" ">
<polygon fill="white" stroke="#666666" points="2504,-96 2370,-96 2370,-66 2504,-66 2504,-96"/>
<text text-anchor="start" x="2378" y="-84" font-family="Helvetica,sans-Serif" font-size="10.00">src/ui/inspector/Thermal</text>
<text text-anchor="middle" x="2437" y="-73" font-family="Helvetica,sans-Serif" font-size="10.00">InspectorWidget.cpp</text>
</a>
</g>
</g>
<!-- Node7&#45;&gt;Node29 -->
<g id="edge35_Node000007_Node000029" class="edge">
<title>Node7&#45;&gt;Node29</title>
<g id="a_edge35_Node000007_Node000029"><a xlink:title=" ">
<path fill="none" stroke="#63b8ff" d="M1930.39,-135.11C2036.1,-128.56 2210.61,-115.85 2360,-96 2363.23,-95.57 2366.54,-95.1 2369.87,-94.6"/>
<polygon fill="#63b8ff" stroke="#63b8ff" points="1930.14,-131.62 1920.37,-135.73 1930.57,-138.61 1930.14,-131.62"/>
</a>
</g>
</g>
<!-- Node30 -->
<g id="Node000030" class="node">
<title>Node30</title>
<g id="a_Node000030"><a xlink:href="TransformInspectorWidget_8cpp.html" target="_top" xlink:title=" ">
<polygon fill="white" stroke="#666666" points="2665.5,-96 2522.5,-96 2522.5,-66 2665.5,-66 2665.5,-96"/>
<text text-anchor="start" x="2530.5" y="-84" font-family="Helvetica,sans-Serif" font-size="10.00">src/ui/inspector/Transform</text>
<text text-anchor="middle" x="2594" y="-73" font-family="Helvetica,sans-Serif" font-size="10.00">InspectorWidget.cpp</text>
</a>
</g>
</g>
<!-- Node7&#45;&gt;Node30 -->
<g id="edge36_Node000007_Node000030" class="edge">
<title>Node7&#45;&gt;Node30</title>
<g id="a_edge36_Node000007_Node000030"><a xlink:title=" ">
<path fill="none" stroke="#63b8ff" d="M1930.09,-137.4C2061.91,-132.42 2306.06,-120.59 2513,-96 2515.98,-95.65 2519.01,-95.26 2522.07,-94.84"/>
<polygon fill="#63b8ff" stroke="#63b8ff" points="1929.88,-133.91 1920.02,-137.78 1930.14,-140.9 1929.88,-133.91"/>
</a>
</g>
</g>
<!-- Node9&#45;&gt;Node4 -->
<g id="edge10_Node000009_Node000004" class="edge">
<title>Node9&#45;&gt;Node4</title>
<g id="a_edge10_Node000009_Node000004"><a xlink:title=" ">
<path fill="none" stroke="#63b8ff" d="M181.26,-62.05C156.54,-51.91 126.1,-39.43 103.16,-30.01"/>
<polygon fill="#63b8ff" stroke="#63b8ff" points="180.18,-65.4 190.77,-65.95 182.84,-58.92 180.18,-65.4"/>
</a>
</g>
</g>
<!-- Node10 -->
<g id="Node000010" class="node">
<title>Node10</title>
<g id="a_Node000010"><a xlink:href="ScaleHandle_8cpp.html" target="_top" xlink:title=" ">
<polygon fill="white" stroke="#666666" points="294,-30 156,-30 156,0 294,0 294,-30"/>
<text text-anchor="start" x="164" y="-18" font-family="Helvetica,sans-Serif" font-size="10.00">src/graphics/components</text>
<text text-anchor="middle" x="225" y="-7" font-family="Helvetica,sans-Serif" font-size="10.00">/ScaleHandle.cpp</text>
</a>
</g>
</g>
<!-- Node9&#45;&gt;Node10 -->
<g id="edge11_Node000009_Node000010" class="edge">
<title>Node9&#45;&gt;Node10</title>
<g id="a_edge11_Node000009_Node000010"><a xlink:title=" ">
<path fill="none" stroke="#63b8ff" d="M225,-55.54C225,-46.96 225,-37.61 225,-30.16"/>
<polygon fill="#63b8ff" stroke="#63b8ff" points="221.5,-55.8 225,-65.8 228.5,-55.8 221.5,-55.8"/>
</a>
</g>
</g>
<!-- Node16&#45;&gt;Node5 -->
<g id="edge20_Node000016_Node000005" class="edge">
<title>Node16&#45;&gt;Node5</title>
<g id="a_edge20_Node000016_Node000005"><a xlink:title=" ">
<path fill="none" stroke="#63b8ff" d="M460.37,-59.26C446.54,-47.61 430.01,-33.69 419.5,-24.84"/>
<polygon fill="#63b8ff" stroke="#63b8ff" points="458.23,-62.03 468.13,-65.8 462.74,-56.68 458.23,-62.03"/>
</a>
</g>
</g>
<!-- Node16&#45;&gt;Node17 -->
<g id="edge21_Node000016_Node000017" class="edge">
<title>Node16&#45;&gt;Node17</title>
<g id="a_edge21_Node000016_Node000017"><a xlink:title=" ">
<path fill="none" stroke="#63b8ff" d="M514.02,-60.03C528.09,-50.34 544.67,-38.94 557.42,-30.16"/>
<polygon fill="#63b8ff" stroke="#63b8ff" points="511.89,-57.24 505.64,-65.8 515.86,-63.01 511.89,-57.24"/>
</a>
</g>
</g>
<!-- Node19&#45;&gt;Node5 -->
<g id="edge24_Node000019_Node000005" class="edge">
<title>Node19&#45;&gt;Node5</title>
<g id="a_edge24_Node000019_Node000005"><a xlink:title=" ">
<path fill="none" stroke="#63b8ff" d="M586.61,-63.36C539.93,-50.91 477.98,-34.4 440.94,-24.52"/>
<polygon fill="#63b8ff" stroke="#63b8ff" points="585.77,-66.76 596.33,-65.95 587.57,-60 585.77,-66.76"/>
</a>
</g>
</g>
<!-- Node19&#45;&gt;Node18 -->
<g id="edge25_Node000019_Node000018" class="edge">
<title>Node19&#45;&gt;Node18</title>
<g id="a_edge25_Node000019_Node000018"><a xlink:title=" ">
<path fill="none" stroke="#63b8ff" d="M675.29,-59.48C687.55,-49.91 701.82,-38.77 712.85,-30.16"/>
<polygon fill="#63b8ff" stroke="#63b8ff" points="672.93,-56.88 667.2,-65.8 677.24,-62.4 672.93,-56.88"/>
</a>
</g>
</g>
<!-- Node22 -->
<g id="Node000022" class="node">
<title>Node22</title>
<g id="a_Node000022"><a xlink:href="HierarchyWidget_8cpp.html" target="_top" xlink:title=" ">
<polygon fill="white" stroke="#666666" points="2019,-24.5 1871,-24.5 1871,-5.5 2019,-5.5 2019,-24.5"/>
<text text-anchor="middle" x="1945" y="-12.5" font-family="Helvetica,sans-Serif" font-size="10.00">src/ui/HierarchyWidget.cpp</text>
</a>
</g>
</g>
<!-- Node21&#45;&gt;Node22 -->
<g id="edge28_Node000021_Node000022" class="edge">
<title>Node21&#45;&gt;Node22</title>
<g id="a_edge28_Node000021_Node000022"><a xlink:title=" ">
<path fill="none" stroke="#63b8ff" d="M1945,-61.08C1945,-49.13 1945,-34.22 1945,-24.91"/>
<polygon fill="#63b8ff" stroke="#63b8ff" points="1941.5,-61.37 1945,-71.37 1948.5,-61.37 1941.5,-61.37"/>
</a>
</g>
</g>
<!-- Node23 -->
<g id="Node000023" class="node">
<title>Node23</title>
<g id="a_Node000023"><a xlink:href="MainWindow_8cpp.html" target="_top" xlink:title=" ">
<polygon fill="white" stroke="#666666" points="2598,-24.5 2470,-24.5 2470,-5.5 2598,-5.5 2598,-24.5"/>
<text text-anchor="middle" x="2534" y="-12.5" font-family="Helvetica,sans-Serif" font-size="10.00">src/ui/MainWindow.cpp</text>
</a>
</g>
</g>
<!-- Node21&#45;&gt;Node23 -->
<g id="edge29_Node000021_Node000023" class="edge">
<title>Node21&#45;&gt;Node23</title>
<g id="a_edge29_Node000021_Node000023"><a xlink:title=" ">
<path fill="none" stroke="#63b8ff" d="M1999.06,-69.72C2007.07,-68.36 2015.24,-67.07 2023,-66 2183.04,-43.84 2372.61,-28 2469.67,-20.63"/>
<polygon fill="#63b8ff" stroke="#63b8ff" points="1998.29,-66.3 1989.04,-71.46 1999.49,-73.2 1998.29,-66.3"/>
</a>
</g>
</g>
<!-- Node31&#45;&gt;Node5 -->
<g id="edge38_Node000031_Node000005" class="edge">
<title>Node31&#45;&gt;Node5</title>
<g id="a_edge38_Node000031_Node000005"><a xlink:title=" ">
<path fill="none" stroke="#63b8ff" d="M419.64,-126.89C407.93,-119.5 395.49,-109.15 389,-96 377.1,-71.86 393.46,-40.03 403,-24.83"/>
<polygon fill="#63b8ff" stroke="#63b8ff" points="417.93,-129.95 428.33,-131.97 421.46,-123.9 417.93,-129.95"/>
</a>
</g>
</g>
<!-- Node31&#45;&gt;Node14 -->
<g id="edge39_Node000031_Node000014" class="edge">
<title>Node31&#45;&gt;Node14</title>
<g id="a_edge39_Node000031_Node000014"><a xlink:title=" ">
<path fill="none" stroke="#63b8ff" d="M517.12,-130.52C596.23,-119.26 723.56,-101.14 798.16,-90.52"/>
<polygon fill="#63b8ff" stroke="#63b8ff" points="516.17,-127.12 506.76,-131.99 517.16,-134.05 516.17,-127.12"/>
</a>
</g>
</g>
<!-- Node32&#45;&gt;Node23 -->
<g id="edge46_Node000032_Node000023" class="edge">
<title>Node32&#45;&gt;Node23</title>
<g id="a_edge46_Node000032_Node000023"><a xlink:title=" ">
<path fill="none" stroke="#63b8ff" d="M2968.46,-121.77C2967.79,-104.57 2963.85,-79.75 2948,-66 2897.06,-21.83 2701.11,-15.47 2598.11,-15.28"/>
<polygon fill="#63b8ff" stroke="#63b8ff" points="2964.96,-121.79 2968.52,-131.77 2971.96,-121.75 2964.96,-121.79"/>
</a>
</g>
</g>
<!-- Node33 -->
<g id="Node000033" class="node">
<title>Node33</title>
<g id="a_Node000033"><a xlink:href="main_8cpp.html" target="_top" xlink:title=" ">
<polygon fill="white" stroke="#666666" points="3075.5,-90.5 2996.5,-90.5 2996.5,-71.5 3075.5,-71.5 3075.5,-90.5"/>
<text text-anchor="middle" x="3036" y="-78.5" font-family="Helvetica,sans-Serif" font-size="10.00">src/main.cpp</text>
</a>
</g>
</g>
<!-- Node32&#45;&gt;Node33 -->
<g id="edge45_Node000032_Node000033" class="edge">
<title>Node32&#45;&gt;Node33</title>
<g id="a_edge45_Node000032_Node000033"><a xlink:title=" ">
<path fill="none" stroke="#63b8ff" d="M2985.76,-125.22C2998.55,-114.21 3015.36,-99.75 3025.93,-90.67"/>
<polygon fill="#63b8ff" stroke="#63b8ff" points="2983.33,-122.69 2978.03,-131.87 2987.9,-128 2983.33,-122.69"/>
</a>
</g>
</g>
</g>
</svg>

<g id="navigator" transform="translate(0 0)" fill="#404254">
  <rect fill="#f2f5e9" fill-opacity="0.5" stroke="#606060" stroke-width=".5" x="0" y="0" width="60" height="60"/>
  <use id="zoomplus" xlink:href="#zoomPlus" x="17" y="9" onmousedown="handleZoom(evt,'in')"/>
  <use id="zoomminus" xlink:href="#zoomMin" x="42" y="9" onmousedown="handleZoom(evt,'out')"/>
  <use id="reset" xlink:href="#resetDef" x="30" y="36" onmousedown="handleReset()"/>
   <use id="arrowup" xlink:href="#arrowUp" x="0" y="0" onmousedown="handlePan(0,-1)"/>
  <use id="arrowright" xlink:href="#arrowRight" x="0" y="0" onmousedown="handlePan(1,0)"/>
  <use id="arrowdown" xlink:href="#arrowDown" x="0" y="0" onmousedown="handlePan(0,1)"/>
  <use id="arrowleft" xlink:href="#arrowLeft" x="0" y="0" onmousedown="handlePan(-1,0)"/>
</g>
<svg viewBox="0 0 15 15" width="100%" height="30px" preserveAspectRatio="xMaxYMin meet">
 <g id="arrow_out" transform="scale(0.3 0.3)">
  <a xlink:href="Octree_8h__dep__incl_org.svg" target="_base">
   <rect id="button" ry="5" rx="5" y="6" x="6" height="38" width="38"
        fill="#f2f5e9" fill-opacity="0.5" stroke="#606060" stroke-width="1.0"/>
   <path id="arrow"
     d="M 11.500037,31.436501 C 11.940474,20.09759 22.043105,11.32322 32.158766,21.979434 L 37.068811,17.246167 C 37.068811,17.246167 37.088388,32 37.088388,32 L 22.160133,31.978069 C 22.160133,31.978069 26.997745,27.140456 26.997745,27.140456 C 18.528582,18.264221 13.291696,25.230495 11.500037,31.436501 z"
     style="fill:#404040;"/>
  </a>
 </g>
</svg>

<style type='text/css'>
<![CDATA[
[data-mouse-over-selected='false'] { opacity: 0.7; }
[data-mouse-over-selected='true']  { opacity: 1.0; }
]]>
</style>
<script type="application/ecmascript"><![CDATA[
document.addEventListener('DOMContentLoaded', (event) => {
  highlightEdges();
  highlightAdjacentNodes();
});
]]></script>
</svg>
