<?xml version="1.0" encoding="UTF-8" standalone="no"?>
<!DOCTYPE svg PUBLIC "-//W3C//DTD SVG 1.1//EN"
 "http://www.w3.org/Graphics/SVG/1.1/DTD/svg11.dtd">
<!-- Generated by graphviz version 2.43.0 (0)
 -->
<!-- Title: src/physics/spatial/Octree.cpp Pages: 1 -->
<!--zoomable 368 -->

<svg id="main" version="1.1" xmlns="http://www.w3.org/2000/svg" xmlns:xlink="http://www.w3.org/1999/xlink" xml:space="preserve" onload="init(evt)">
<style type="text/css"><![CDATA[
.node, .edge {opacity: 0.7;}
.node.selected, .edge.selected {opacity: 1;}
.edge:hover path { stroke: red; }
.edge:hover polygon { stroke: red; fill: red; }
]]></style>

<defs>
  <circle id="rim" cx="0" cy="0" r="7"/>
  <circle id="rim2" cx="0" cy="0" r="3.5"/>
  <g id="zoomPlus">
    <use xlink:href="#rim" fill="#404040"><set attributeName="fill" to="#808080" begin="zoomplus.mouseover" end="zoomplus.mouseout"/></use>
    <path d="M-4,0h8M0,-4v8" fill="none" stroke="white" stroke-width="1.5" pointer-events="none"/>
  </g>
  <g id="zoomMin">
    <use xlink:href="#rim" fill="#404040"><set attributeName="fill" to="#808080" begin="zoomminus.mouseover" end="zoomminus.mouseout"/></use>
    <path d="M-4,0h8" fill="none" stroke="white" stroke-width="1.5" pointer-events="none"/>
  </g>
  <g id="arrowUp" transform="translate(30 24)">
    <use xlink:href="#rim"/>
    <path pointer-events="none" fill="none" stroke="white" stroke-width="1.5" d="M0,-3.0v7 M-2.5,-0.5L0,-3.0L2.5,-0.5"/>
  </g>
  <g id="arrowRight" transform="rotate(90) translate(36 -43)">
    <use xlink:href="#rim"/>
    <path pointer-events="none" fill="none" stroke="white" stroke-width="1.5" d="M0,-3.0v7 M-2.5,-0.5L0,-3.0L2.5,-0.5"/>
  </g>
  <g id="arrowDown" transform="rotate(180) translate(-30 -48)">
    <use xlink:href="#rim"/>
    <path pointer-events="none" fill="none" stroke="white" stroke-width="1.5" d="M0,-3.0v7 M-2.5,-0.5L0,-3.0L2.5,-0.5"/>
  </g>
  <g id="arrowLeft" transform="rotate(270) translate(-36 17)">
    <use xlink:href="#rim"/>
    <path pointer-events="none" fill="none" stroke="white" stroke-width="1.5" d="M0,-3.0v7 M-2.5,-0.5L0,-3.0L2.5,-0.5"/>
  </g>
  <g id="resetDef">
    <use xlink:href="#rim2" fill="#404040"><set attributeName="fill" to="#808080" begin="reset.mouseover" end="reset.mouseout"/></use>
  </g>
</defs>
<script type="application/ecmascript">
var viewWidth = 1316;
var viewHeight = 368;
var sectionId = 'dynsection-0';
</script>
<script type="application/ecmascript" xlink:href="svg.min.js"/>
<svg id="graph" class="graph">
<g id="viewport">
<title>src/physics/spatial/Octree.cpp</title>
<!-- Node1 -->
<g id="Node000001" class="node">
<title>Node1</title>
<g id="a_Node000001"><a xlink:title=" ">
<polygon fill="#999999" stroke="#666666" points="556.5,-360 449.5,-360 449.5,-330 556.5,-330 556.5,-360"/>
<text text-anchor="start" x="457.5" y="-348" font-family="Helvetica,sans-Serif" font-size="10.00">src/physics/spatial</text>
<text text-anchor="middle" x="503" y="-337" font-family="Helvetica,sans-Serif" font-size="10.00">/Octree.cpp</text>
</a>
</g>
</g>
<!-- Node2 -->
<g id="Node000002" class="node">
<title>Node2</title>
<g id="a_Node000002"><a xlink:href="Octree_8h.html" target="_top" xlink:title=" ">
<polygon fill="white" stroke="#666666" points="266,-239 208,-239 208,-220 266,-220 266,-239"/>
<text text-anchor="middle" x="237" y="-227" font-family="Helvetica,sans-Serif" font-size="10.00">Octree.h</text>
</a>
</g>
</g>
<!-- Node1&#45;&gt;Node2 -->
<g id="edge1_Node000001_Node000002" class="edge">
<title>Node1&#45;&gt;Node2</title>
<g id="a_edge1_Node000001_Node000002"><a xlink:title=" ">
<path fill="none" stroke="#63b8ff" d="M470.12,-329.97C417.86,-307.67 316.66,-264.49 266.57,-243.12"/>
<polygon fill="#63b8ff" stroke="#63b8ff" points="267.83,-239.85 257.26,-239.14 265.08,-246.29 267.83,-239.85"/>
</a>
</g>
</g>
<!-- Node12 -->
<g id="Node000012" class="node">
<title>Node12</title>
<g id="a_Node000012"><a xlink:title=" ">
<polygon fill="#e0e0e0" stroke="#999999" points="50,-184 0,-184 0,-165 50,-165 50,-184"/>
<text text-anchor="middle" x="25" y="-172" font-family="Helvetica,sans-Serif" font-size="10.00">cstdint</text>
</a>
</g>
</g>
<!-- Node1&#45;&gt;Node12 -->
<g id="edge56_Node000001_Node000012" class="edge">
<title>Node1&#45;&gt;Node12</title>
<g id="a_edge56_Node000001_Node000012"><a xlink:title=" ">
<path fill="none" stroke="#63b8ff" d="M449.48,-343.6C361.64,-340.42 184.9,-323.09 67,-239 51.07,-227.64 39.52,-208.18 32.61,-193.79"/>
<polygon fill="#63b8ff" stroke="#63b8ff" points="35.68,-192.09 28.4,-184.39 29.29,-194.95 35.68,-192.09"/>
</a>
</g>
</g>
<!-- Node13 -->
<g id="Node000013" class="node">
<title>Node13</title>
<g id="a_Node000013"><a xlink:href="Constants_8h.html" target="_top" xlink:title=" ">
<polygon fill="white" stroke="#666666" points="190,-239 76,-239 76,-220 190,-220 190,-239"/>
<text text-anchor="middle" x="133" y="-227" font-family="Helvetica,sans-Serif" font-size="10.00">physics/Constants.h</text>
</a>
</g>
</g>
<!-- Node1&#45;&gt;Node13 -->
<g id="edge14_Node000001_Node000013" class="edge">
<title>Node1&#45;&gt;Node13</title>
<g id="a_edge14_Node000001_Node000013"><a xlink:title=" ">
<path fill="none" stroke="#63b8ff" d="M457.26,-329.97C383.51,-307.35 239.69,-263.23 171.13,-242.2"/>
<polygon fill="#63b8ff" stroke="#63b8ff" points="171.77,-238.73 161.18,-239.14 169.71,-245.42 171.77,-238.73"/>
</a>
</g>
</g>
<!-- Node14 -->
<g id="Node000014" class="node">
<title>Node14</title>
<g id="a_Node000014"><a xlink:href="PhysicsSystem_8h.html" target="_top" xlink:title=" ">
<polygon fill="white" stroke="#666666" points="704.5,-294 565.5,-294 565.5,-275 704.5,-275 704.5,-294"/>
<text text-anchor="middle" x="635" y="-282" font-family="Helvetica,sans-Serif" font-size="10.00">physics/PhysicsSystem.h</text>
</a>
</g>
</g>
<!-- Node1&#45;&gt;Node14 -->
<g id="edge15_Node000001_Node000014" class="edge">
<title>Node1&#45;&gt;Node14</title>
<g id="a_edge15_Node000001_Node000014"><a xlink:title=" ">
<path fill="none" stroke="#63b8ff" d="M534.62,-329.99C556.35,-320.36 584.97,-307.67 606.09,-298.31"/>
<polygon fill="#63b8ff" stroke="#63b8ff" points="607.78,-301.39 615.51,-294.14 604.95,-294.99 607.78,-301.39"/>
</a>
</g>
</g>
<!-- Node31 -->
<g id="Node000031" class="node">
<title>Node31</title>
<g id="a_Node000031"><a xlink:title=" ">
<polygon fill="#e0e0e0" stroke="#999999" points="751.5,-294 722.5,-294 722.5,-275 751.5,-275 751.5,-294"/>
<text text-anchor="middle" x="737" y="-282" font-family="Helvetica,sans-Serif" font-size="10.00">bit</text>
</a>
</g>
</g>
<!-- Node1&#45;&gt;Node31 -->
<g id="edge54_Node000001_Node000031" class="edge">
<title>Node1&#45;&gt;Node31</title>
<g id="a_edge54_Node000001_Node000031"><a xlink:title=" ">
<path fill="none" stroke="#63b8ff" d="M556.81,-333.14C597.47,-324.5 654.77,-311.42 712.8,-294.1"/>
<polygon fill="#63b8ff" stroke="#63b8ff" points="713.93,-297.41 722.49,-291.17 711.9,-290.71 713.93,-297.41"/>
</a>
</g>
</g>
<!-- Node32 -->
<g id="Node000032" class="node">
<title>Node32</title>
<g id="a_Node000032"><a xlink:title=" ">
<polygon fill="#e0e0e0" stroke="#999999" points="930.5,-294 769.5,-294 769.5,-275 930.5,-275 930.5,-294"/>
<text text-anchor="middle" x="850" y="-282" font-family="Helvetica,sans-Serif" font-size="10.00">glm/gtx/component_wise.hpp</text>
</a>
</g>
</g>
<!-- Node1&#45;&gt;Node32 -->
<g id="edge55_Node000001_Node000032" class="edge">
<title>Node1&#45;&gt;Node32</title>
<g id="a_edge55_Node000001_Node000032"><a xlink:title=" ">
<path fill="none" stroke="#63b8ff" d="M556.84,-334.92C619.72,-324.32 723.49,-306.83 789.21,-295.75"/>
<polygon fill="#63b8ff" stroke="#63b8ff" points="790.15,-299.14 799.42,-294.03 788.98,-292.24 790.15,-299.14"/>
</a>
</g>
</g>
<!-- Node3 -->
<g id="Node000003" class="node">
<title>Node3</title>
<g id="a_Node000003"><a xlink:href="PhysicsBody_8h.html" target="_top" xlink:title=" ">
<polygon fill="white" stroke="#666666" points="449.5,-184 354.5,-184 354.5,-165 449.5,-165 449.5,-184"/>
<text text-anchor="middle" x="402" y="-172" font-family="Helvetica,sans-Serif" font-size="10.00">../PhysicsBody.h</text>
</a>
</g>
</g>
<!-- Node2&#45;&gt;Node3 -->
<g id="edge2_Node000002_Node000003" class="edge">
<title>Node2&#45;&gt;Node3</title>
<g id="a_edge2_Node000002_Node000003"><a xlink:title=" ">
<path fill="none" stroke="#63b8ff" d="M263.51,-219.98C291.21,-211.09 334.86,-197.07 365.74,-187.15"/>
<polygon fill="#63b8ff" stroke="#63b8ff" points="366.83,-190.47 375.28,-184.08 364.69,-183.81 366.83,-190.47"/>
</a>
</g>
</g>
<!-- Node6 -->
<g id="Node000006" class="node">
<title>Node6</title>
<g id="a_Node000006"><a xlink:title=" ">
<polygon fill="#e0e0e0" stroke="#999999" points="738,-74 660,-74 660,-55 738,-55 738,-74"/>
<text text-anchor="middle" x="699" y="-62" font-family="Helvetica,sans-Serif" font-size="10.00">glm/glm.hpp</text>
</a>
</g>
</g>
<!-- Node2&#45;&gt;Node6 -->
<g id="edge11_Node000002_Node000006" class="edge">
<title>Node2&#45;&gt;Node6</title>
<g id="a_edge11_Node000002_Node000006"><a xlink:title=" ">
<path fill="none" stroke="#63b8ff" d="M207.99,-220.15C180.06,-211.46 140.8,-197.29 132,-184 121.12,-167.57 122.44,-127.09 141,-110 178.03,-75.91 520.46,-67.85 649.83,-66.02"/>
<polygon fill="#63b8ff" stroke="#63b8ff" points="649.91,-69.52 659.86,-65.88 649.81,-62.52 649.91,-69.52"/>
</a>
</g>
</g>
<!-- Node7 -->
<g id="Node000007" class="node">
<title>Node7</title>
<g id="a_Node000007"><a xlink:title=" ">
<polygon fill="#e0e0e0" stroke="#999999" points="196.5,-129 149.5,-129 149.5,-110 196.5,-110 196.5,-129"/>
<text text-anchor="middle" x="173" y="-117" font-family="Helvetica,sans-Serif" font-size="10.00">vector</text>
</a>
</g>
</g>
<!-- Node2&#45;&gt;Node7 -->
<g id="edge12_Node000002_Node000007" class="edge">
<title>Node2&#45;&gt;Node7</title>
<g id="a_edge12_Node000002_Node000007"><a xlink:title=" ">
<path fill="none" stroke="#63b8ff" d="M210.17,-219.85C184.34,-210.92 148.05,-196.55 140,-184 130.11,-168.58 142.55,-149.87 154.89,-136.76"/>
<polygon fill="#63b8ff" stroke="#63b8ff" points="157.68,-138.92 162.35,-129.41 152.77,-133.93 157.68,-138.92"/>
</a>
</g>
</g>
<!-- Node11 -->
<g id="Node000011" class="node">
<title>Node11</title>
<g id="a_Node000011"><a xlink:href="NodeIndex_8h.html" target="_top" xlink:title=" ">
<polygon fill="white" stroke="#666666" points="298,-184 220,-184 220,-165 298,-165 298,-184"/>
<text text-anchor="middle" x="259" y="-172" font-family="Helvetica,sans-Serif" font-size="10.00">NodeIndex.h</text>
</a>
</g>
</g>
<!-- Node2&#45;&gt;Node11 -->
<g id="edge10_Node000002_Node000011" class="edge">
<title>Node2&#45;&gt;Node11</title>
<g id="a_edge10_Node000002_Node000011"><a xlink:title=" ">
<path fill="none" stroke="#63b8ff" d="M240.63,-219.75C243.58,-212.65 247.83,-202.4 251.51,-193.56"/>
<polygon fill="#63b8ff" stroke="#63b8ff" points="254.83,-194.67 255.43,-184.09 248.37,-191.98 254.83,-194.67"/>
</a>
</g>
</g>
<!-- Node2&#45;&gt;Node12 -->
<g id="edge13_Node000002_Node000012" class="edge">
<title>Node2&#45;&gt;Node12</title>
<g id="a_edge13_Node000002_Node000012"><a xlink:title=" ">
<path fill="none" stroke="#63b8ff" d="M207.97,-221.24C169.39,-211.6 101.31,-194.58 59.96,-184.24"/>
<polygon fill="#63b8ff" stroke="#63b8ff" points="60.6,-180.79 50.05,-181.76 58.91,-187.58 60.6,-180.79"/>
</a>
</g>
</g>
<!-- Node4 -->
<g id="Node000004" class="node">
<title>Node4</title>
<g id="a_Node000004"><a xlink:title=" ">
<polygon fill="#e0e0e0" stroke="#999999" points="671,-129 621,-129 621,-110 671,-110 671,-129"/>
<text text-anchor="middle" x="646" y="-117" font-family="Helvetica,sans-Serif" font-size="10.00">atomic</text>
</a>
</g>
</g>
<!-- Node3&#45;&gt;Node4 -->
<g id="edge3_Node000003_Node000004" class="edge">
<title>Node3&#45;&gt;Node4</title>
<g id="a_edge3_Node000003_Node000004"><a xlink:title=" ">
<path fill="none" stroke="#63b8ff" d="M444.33,-165C484.74,-156.78 547.57,-143.72 611,-129.17"/>
<polygon fill="#63b8ff" stroke="#63b8ff" points="611.82,-132.57 620.77,-126.91 610.24,-125.75 611.82,-132.57"/>
</a>
</g>
</g>
<!-- Node5 -->
<g id="Node000005" class="node">
<title>Node5</title>
<g id="a_Node000005"><a xlink:title=" ">
<polygon fill="#e0e0e0" stroke="#999999" points="771,-129 727,-129 727,-110 771,-110 771,-129"/>
<text text-anchor="middle" x="749" y="-117" font-family="Helvetica,sans-Serif" font-size="10.00">string</text>
</a>
</g>
</g>
<!-- Node3&#45;&gt;Node5 -->
<g id="edge4_Node000003_Node000005" class="edge">
<title>Node3&#45;&gt;Node5</title>
<g id="a_edge4_Node000003_Node000005"><a xlink:title=" ">
<path fill="none" stroke="#63b8ff" d="M449.52,-166.24C521.29,-155.28 655.44,-134.79 716.83,-125.41"/>
<polygon fill="#63b8ff" stroke="#63b8ff" points="717.38,-128.87 726.73,-123.9 716.32,-121.95 717.38,-128.87"/>
</a>
</g>
</g>
<!-- Node3&#45;&gt;Node6 -->
<g id="edge5_Node000003_Node000006" class="edge">
<title>Node3&#45;&gt;Node6</title>
<g id="a_edge5_Node000003_Node000006"><a xlink:title=" ">
<path fill="none" stroke="#63b8ff" d="M395.15,-164.58C385.72,-151.16 371.38,-125.68 385,-110 418.64,-71.26 569.74,-65.34 649.43,-64.99"/>
<polygon fill="#63b8ff" stroke="#63b8ff" points="649.72,-68.49 659.71,-64.97 649.71,-61.49 649.72,-68.49"/>
</a>
</g>
</g>
<!-- Node3&#45;&gt;Node7 -->
<g id="edge6_Node000003_Node000007" class="edge">
<title>Node3&#45;&gt;Node7</title>
<g id="a_edge6_Node000003_Node000007"><a xlink:title=" ">
<path fill="none" stroke="#63b8ff" d="M365.21,-164.98C321.41,-154.85 248.88,-138.06 206.56,-128.27"/>
<polygon fill="#63b8ff" stroke="#63b8ff" points="207.27,-124.84 196.74,-125.99 205.69,-131.66 207.27,-124.84"/>
</a>
</g>
</g>
<!-- Node8 -->
<g id="Node000008" class="node">
<title>Node8</title>
<g id="a_Node000008"><a xlink:title=" ">
<polygon fill="#e0e0e0" stroke="#999999" points="432,-129 394,-129 394,-110 432,-110 432,-129"/>
<text text-anchor="middle" x="413" y="-117" font-family="Helvetica,sans-Serif" font-size="10.00">map</text>
</a>
</g>
</g>
<!-- Node3&#45;&gt;Node8 -->
<g id="edge7_Node000003_Node000008" class="edge">
<title>Node3&#45;&gt;Node8</title>
<g id="a_edge7_Node000003_Node000008"><a xlink:title=" ">
<path fill="none" stroke="#63b8ff" d="M403.82,-164.75C405.26,-157.8 407.32,-147.85 409.13,-139.13"/>
<polygon fill="#63b8ff" stroke="#63b8ff" points="412.61,-139.59 411.22,-129.09 405.76,-138.17 412.61,-139.59"/>
</a>
</g>
</g>
<!-- Node9 -->
<g id="Node000009" class="node">
<title>Node9</title>
<g id="a_Node000009"><a xlink:title=" ">
<polygon fill="#e0e0e0" stroke="#999999" points="603,-129 555,-129 555,-110 603,-110 603,-129"/>
<text text-anchor="middle" x="579" y="-117" font-family="Helvetica,sans-Serif" font-size="10.00">mutex</text>
</a>
</g>
</g>
<!-- Node3&#45;&gt;Node9 -->
<g id="edge8_Node000003_Node000009" class="edge">
<title>Node3&#45;&gt;Node9</title>
<g id="a_edge8_Node000003_Node000009"><a xlink:title=" ">
<path fill="none" stroke="#63b8ff" d="M430.44,-164.98C461.7,-155.62 511.89,-140.59 545.16,-130.63"/>
<polygon fill="#63b8ff" stroke="#63b8ff" points="546.32,-133.94 554.9,-127.72 544.31,-127.23 546.32,-133.94"/>
</a>
</g>
</g>
<!-- Node10 -->
<g id="Node000010" class="node">
<title>Node10</title>
<g id="a_Node000010"><a xlink:title=" ">
<polygon fill="#e0e0e0" stroke="#999999" points="536,-129 450,-129 450,-110 536,-110 536,-129"/>
<text text-anchor="middle" x="493" y="-117" font-family="Helvetica,sans-Serif" font-size="10.00">unordered_set</text>
</a>
</g>
</g>
<!-- Node3&#45;&gt;Node10 -->
<g id="edge9_Node000003_Node000010" class="edge">
<title>Node3&#45;&gt;Node10</title>
<g id="a_edge9_Node000003_Node000010"><a xlink:title=" ">
<path fill="none" stroke="#63b8ff" d="M416.62,-164.98C430.86,-156.69 452.75,-143.94 469.45,-134.22"/>
<polygon fill="#63b8ff" stroke="#63b8ff" points="471.23,-137.23 478.11,-129.17 467.71,-131.18 471.23,-137.23"/>
</a>
</g>
</g>
<!-- Node14&#45;&gt;Node2 -->
<g id="edge45_Node000014_Node000002" class="edge">
<title>Node14&#45;&gt;Node2</title>
<g id="a_edge45_Node000014_Node000002"><a xlink:title=" ">
<path fill="none" stroke="#63b8ff" d="M565.41,-276.24C493.69,-268.42 378.73,-254.93 280,-239 278.73,-238.8 277.44,-238.58 276.15,-238.36"/>
<polygon fill="#63b8ff" stroke="#63b8ff" points="276.56,-234.88 266.09,-236.54 275.31,-241.76 276.56,-234.88"/>
</a>
</g>
</g>
<!-- Node14&#45;&gt;Node4 -->
<g id="edge17_Node000014_Node000004" class="edge">
<title>Node14&#45;&gt;Node4</title>
<g id="a_edge17_Node000014_Node000004"><a xlink:title=" ">
<path fill="none" stroke="#63b8ff" d="M670.05,-274.88C688.65,-268.33 709.9,-257.24 721,-239 744.04,-201.14 696.39,-157.21 666.94,-134.98"/>
<polygon fill="#63b8ff" stroke="#63b8ff" points="668.97,-132.13 658.83,-129.06 664.84,-137.78 668.97,-132.13"/>
</a>
</g>
</g>
<!-- Node14&#45;&gt;Node7 -->
<g id="edge16_Node000014_Node000007" class="edge">
<title>Node14&#45;&gt;Node7</title>
<g id="a_edge16_Node000014_Node000007"><a xlink:title=" ">
<path fill="none" stroke="#63b8ff" d="M582.15,-274.96C470,-256.39 216.11,-211.75 188,-184 176.3,-172.45 173.04,-153.57 172.42,-139.4"/>
<polygon fill="#63b8ff" stroke="#63b8ff" points="175.92,-139.25 172.37,-129.27 168.92,-139.28 175.92,-139.25"/>
</a>
</g>
</g>
<!-- Node14&#45;&gt;Node9 -->
<g id="edge18_Node000014_Node000009" class="edge">
<title>Node14&#45;&gt;Node9</title>
<g id="a_edge18_Node000014_Node000009"><a xlink:title=" ">
<path fill="none" stroke="#63b8ff" d="M631.14,-274.85C627.44,-266.04 622.11,-251.87 620,-239 614.68,-206.53 634.33,-195.5 622,-165 617.31,-153.41 608,-143.16 599.24,-135.43"/>
<polygon fill="#63b8ff" stroke="#63b8ff" points="601.44,-132.71 591.49,-129.07 597,-138.12 601.44,-132.71"/>
</a>
</g>
</g>
<!-- Node14&#45;&gt;Node13 -->
<g id="edge34_Node000014_Node000013" class="edge">
<title>Node14&#45;&gt;Node13</title>
<g id="a_edge34_Node000014_Node000013"><a xlink:title=" ">
<path fill="none" stroke="#63b8ff" d="M565.47,-276.97C481.47,-268.96 335.59,-254.64 200.36,-239.13"/>
<polygon fill="#63b8ff" stroke="#63b8ff" points="200.56,-235.63 190.23,-237.96 199.76,-242.58 200.56,-235.63"/>
</a>
</g>
</g>
<!-- Node15 -->
<g id="Node000015" class="node">
<title>Node15</title>
<g id="a_Node000015"><a xlink:title=" ">
<polygon fill="#e0e0e0" stroke="#999999" points="854,-239 806,-239 806,-220 854,-220 854,-239"/>
<text text-anchor="middle" x="830" y="-227" font-family="Helvetica,sans-Serif" font-size="10.00">thread</text>
</a>
</g>
</g>
<!-- Node14&#45;&gt;Node15 -->
<g id="edge19_Node000014_Node000015" class="edge">
<title>Node14&#45;&gt;Node15</title>
<g id="a_edge19_Node000014_Node000015"><a xlink:title=" ">
<path fill="none" stroke="#63b8ff" d="M666.33,-274.98C701.86,-265.33 759.57,-249.64 796.12,-239.71"/>
<polygon fill="#63b8ff" stroke="#63b8ff" points="797.1,-243.07 805.83,-237.07 795.26,-236.31 797.1,-243.07"/>
</a>
</g>
</g>
<!-- Node16 -->
<g id="Node000016" class="node">
<title>Node16</title>
<g id="a_Node000016"><a xlink:title=" ">
<polygon fill="#e0e0e0" stroke="#999999" points="979.5,-239 872.5,-239 872.5,-220 979.5,-220 979.5,-239"/>
<text text-anchor="middle" x="926" y="-227" font-family="Helvetica,sans-Serif" font-size="10.00">condition_variable</text>
</a>
</g>
</g>
<!-- Node14&#45;&gt;Node16 -->
<g id="edge20_Node000014_Node000016" class="edge">
<title>Node14&#45;&gt;Node16</title>
<g id="a_edge20_Node000014_Node000016"><a xlink:title=" ">
<path fill="none" stroke="#63b8ff" d="M681.75,-274.98C732.72,-265.7 814.31,-250.84 868.99,-240.88"/>
<polygon fill="#63b8ff" stroke="#63b8ff" points="869.67,-244.32 878.88,-239.08 868.41,-237.43 869.67,-244.32"/>
</a>
</g>
</g>
<!-- Node17 -->
<g id="Node000017" class="node">
<title>Node17</title>
<g id="a_Node000017"><a xlink:title=" ">
<polygon fill="#e0e0e0" stroke="#999999" points="1268,-74 1212,-74 1212,-55 1268,-55 1268,-74"/>
<text text-anchor="middle" x="1240" y="-62" font-family="Helvetica,sans-Serif" font-size="10.00">optional</text>
</a>
</g>
</g>
<!-- Node14&#45;&gt;Node17 -->
<g id="edge21_Node000014_Node000017" class="edge">
<title>Node14&#45;&gt;Node17</title>
<g id="a_edge21_Node000014_Node000017"><a xlink:title=" ">
<path fill="none" stroke="#63b8ff" d="M704.78,-275.89C707.89,-275.58 710.98,-275.28 714,-275 845.43,-262.71 1227.49,-293.64 1301,-184 1324.37,-149.14 1284.01,-104.2 1258.49,-80.95"/>
<polygon fill="#63b8ff" stroke="#63b8ff" points="1260.64,-78.19 1250.82,-74.21 1256.02,-83.44 1260.64,-78.19"/>
</a>
</g>
</g>
<!-- Node18 -->
<g id="Node000018" class="node">
<title>Node18</title>
<g id="a_Node000018"><a xlink:href="RigidBody_8h.html" target="_top" xlink:title=" ">
<polygon fill="white" stroke="#666666" points="570,-239 496,-239 496,-220 570,-220 570,-239"/>
<text text-anchor="middle" x="533" y="-227" font-family="Helvetica,sans-Serif" font-size="10.00">RigidBody.h</text>
</a>
</g>
</g>
<!-- Node14&#45;&gt;Node18 -->
<g id="edge22_Node000014_Node000018" class="edge">
<title>Node14&#45;&gt;Node18</title>
<g id="a_edge22_Node000014_Node000018"><a xlink:title=" ">
<path fill="none" stroke="#63b8ff" d="M618.61,-274.98C602.43,-266.57 577.43,-253.59 558.62,-243.81"/>
<polygon fill="#63b8ff" stroke="#63b8ff" points="560.17,-240.68 549.69,-239.17 556.95,-246.89 560.17,-240.68"/>
</a>
</g>
</g>
<!-- Node24 -->
<g id="Node000024" class="node">
<title>Node24</title>
<g id="a_Node000024"><a xlink:href="OneUnknownSolver_8h.html" target="_top" xlink:title=" ">
<polygon fill="white" stroke="#666666" points="1292,-184 1138,-184 1138,-165 1292,-165 1292,-184"/>
<text text-anchor="middle" x="1215" y="-172" font-family="Helvetica,sans-Serif" font-size="10.00">solver/OneUnknownSolver.h</text>
</a>
</g>
</g>
<!-- Node14&#45;&gt;Node24 -->
<g id="edge35_Node000014_Node000024" class="edge">
<title>Node14&#45;&gt;Node24</title>
<g id="a_edge35_Node000014_Node000024"><a xlink:title=" ">
<path fill="none" stroke="#63b8ff" d="M704.78,-275.91C707.89,-275.59 710.98,-275.29 714,-275 808.13,-265.94 1050.44,-274.7 1138,-239 1163.18,-228.73 1186.43,-207.19 1200.65,-192.05"/>
<polygon fill="#63b8ff" stroke="#63b8ff" points="1203.45,-194.18 1207.57,-184.42 1198.26,-189.47 1203.45,-194.18"/>
</a>
</g>
</g>
<!-- Node26 -->
<g id="Node000026" class="node">
<title>Node26</title>
<g id="a_Node000026"><a xlink:href="ProblemRouter_8h.html" target="_top" xlink:title=" ">
<polygon fill="white" stroke="#666666" points="1128.5,-239 997.5,-239 997.5,-220 1128.5,-220 1128.5,-239"/>
<text text-anchor="middle" x="1063" y="-227" font-family="Helvetica,sans-Serif" font-size="10.00">solver/ProblemRouter.h</text>
</a>
</g>
</g>
<!-- Node14&#45;&gt;Node26 -->
<g id="edge37_Node000014_Node000026" class="edge">
<title>Node14&#45;&gt;Node26</title>
<g id="a_edge37_Node000014_Node000026"><a xlink:title=" ">
<path fill="none" stroke="#63b8ff" d="M703.77,-274.98C781.27,-265.39 906.88,-249.83 987.17,-239.89"/>
<polygon fill="#63b8ff" stroke="#63b8ff" points="987.72,-243.35 997.22,-238.65 986.86,-236.4 987.72,-243.35"/>
</a>
</g>
</g>
<!-- Node27 -->
<g id="Node000027" class="node">
<title>Node27</title>
<g id="a_Node000027"><a xlink:href="VectorRootSolver_8h.html" target="_top" xlink:title=" ">
<polygon fill="white" stroke="#666666" points="1081.5,-184 972.5,-184 972.5,-165 1081.5,-165 1081.5,-184"/>
<text text-anchor="middle" x="1027" y="-172" font-family="Helvetica,sans-Serif" font-size="10.00">VectorRootSolver.h</text>
</a>
</g>
</g>
<!-- Node14&#45;&gt;Node27 -->
<g id="edge53_Node000014_Node000027" class="edge">
<title>Node14&#45;&gt;Node27</title>
<g id="a_edge53_Node000014_Node000027"><a xlink:title=" ">
<path fill="none" stroke="#63b8ff" d="M659.32,-274.88C683.48,-266.2 721.52,-252.23 754,-239 773.35,-231.12 777.06,-226.25 797,-220 827.75,-210.37 908.58,-195.6 965.69,-185.76"/>
<polygon fill="#63b8ff" stroke="#63b8ff" points="966.44,-189.18 975.71,-184.04 965.26,-182.28 966.44,-189.18"/>
</a>
</g>
</g>
<!-- Node29 -->
<g id="Node000029" class="node">
<title>Node29</title>
<g id="a_Node000029"><a xlink:href="BVH_8h.html" target="_top" xlink:title=" ">
<polygon fill="white" stroke="#666666" points="711.5,-239 628.5,-239 628.5,-220 711.5,-220 711.5,-239"/>
<text text-anchor="middle" x="670" y="-227" font-family="Helvetica,sans-Serif" font-size="10.00">spatial/BVH.h</text>
</a>
</g>
</g>
<!-- Node14&#45;&gt;Node29 -->
<g id="edge46_Node000014_Node000029" class="edge">
<title>Node14&#45;&gt;Node29</title>
<g id="a_edge46_Node000014_Node000029"><a xlink:title=" ">
<path fill="none" stroke="#63b8ff" d="M640.78,-274.75C645.62,-267.42 652.68,-256.73 658.64,-247.7"/>
<polygon fill="#63b8ff" stroke="#63b8ff" points="661.74,-249.36 664.33,-239.09 655.9,-245.5 661.74,-249.36"/>
</a>
</g>
</g>
<!-- Node18&#45;&gt;Node3 -->
<g id="edge33_Node000018_Node000003" class="edge">
<title>Node18&#45;&gt;Node3</title>
<g id="a_edge33_Node000018_Node000003"><a xlink:title=" ">
<path fill="none" stroke="#63b8ff" d="M511.95,-219.98C490.59,-211.34 457.3,-197.87 432.94,-188.02"/>
<polygon fill="#63b8ff" stroke="#63b8ff" points="434.01,-184.68 423.43,-184.17 431.39,-191.17 434.01,-184.68"/>
</a>
</g>
</g>
<!-- Node18&#45;&gt;Node6 -->
<g id="edge25_Node000018_Node000006" class="edge">
<title>Node18&#45;&gt;Node6</title>
<g id="a_edge25_Node000018_Node000006"><a xlink:title=" ">
<path fill="none" stroke="#63b8ff" d="M495.8,-225.02C446.69,-219.58 364.31,-207.18 346,-184 326.98,-159.93 355.37,-123.75 375,-110 418.28,-79.68 569.92,-69.93 649.46,-66.86"/>
<polygon fill="#63b8ff" stroke="#63b8ff" points="649.85,-70.35 659.72,-66.49 649.6,-63.35 649.85,-70.35"/>
</a>
</g>
</g>
<!-- Node18&#45;&gt;Node7 -->
<g id="edge24_Node000018_Node000007" class="edge">
<title>Node18&#45;&gt;Node7</title>
<g id="a_edge24_Node000018_Node000007"><a xlink:title=" ">
<path fill="none" stroke="#63b8ff" d="M495.83,-227.34C421.37,-224.39 257.13,-214.51 211,-184 194.96,-173.39 184.69,-153.48 178.92,-138.77"/>
<polygon fill="#63b8ff" stroke="#63b8ff" points="182.16,-137.43 175.5,-129.19 175.57,-139.78 182.16,-137.43"/>
</a>
</g>
</g>
<!-- Node18&#45;&gt;Node9 -->
<g id="edge23_Node000018_Node000009" class="edge">
<title>Node18&#45;&gt;Node9</title>
<g id="a_edge23_Node000018_Node000009"><a xlink:title=" ">
<path fill="none" stroke="#63b8ff" d="M560.29,-219.88C577,-213.03 597.04,-201.62 607,-184 615.66,-168.69 605.33,-150.18 594.86,-137.11"/>
<polygon fill="#63b8ff" stroke="#63b8ff" points="597.35,-134.65 588.15,-129.39 592.07,-139.24 597.35,-134.65"/>
</a>
</g>
</g>
<!-- Node19 -->
<g id="Node000019" class="node">
<title>Node19</title>
<g id="a_Node000019"><a xlink:title=" ">
<polygon fill="#e0e0e0" stroke="#999999" points="598,-184 468,-184 468,-165 598,-165 598,-184"/>
<text text-anchor="middle" x="533" y="-172" font-family="Helvetica,sans-Serif" font-size="10.00">glm/gtc/quaternion.hpp</text>
</a>
</g>
</g>
<!-- Node18&#45;&gt;Node19 -->
<g id="edge26_Node000018_Node000019" class="edge">
<title>Node18&#45;&gt;Node19</title>
<g id="a_edge26_Node000018_Node000019"><a xlink:title=" ">
<path fill="none" stroke="#63b8ff" d="M533,-219.75C533,-212.8 533,-202.85 533,-194.13"/>
<polygon fill="#63b8ff" stroke="#63b8ff" points="536.5,-194.09 533,-184.09 529.5,-194.09 536.5,-194.09"/>
</a>
</g>
</g>
<!-- Node20 -->
<g id="Node000020" class="node">
<title>Node20</title>
<g id="a_Node000020"><a xlink:href="ICollider_8h.html" target="_top" xlink:title="Abstract interface for collision detection shapes.">
<polygon fill="white" stroke="#666666" points="978.5,-129 865.5,-129 865.5,-110 978.5,-110 978.5,-129"/>
<text text-anchor="middle" x="922" y="-117" font-family="Helvetica,sans-Serif" font-size="10.00">bounding/ICollider.h</text>
</a>
</g>
</g>
<!-- Node18&#45;&gt;Node20 -->
<g id="edge27_Node000018_Node000020" class="edge">
<title>Node18&#45;&gt;Node20</title>
<g id="a_edge27_Node000018_Node000020"><a xlink:title=" ">
<path fill="none" stroke="#63b8ff" d="M563.85,-219.94C633.5,-200.6 802.95,-153.55 881.18,-131.83"/>
<polygon fill="#63b8ff" stroke="#63b8ff" points="882.45,-135.11 891.15,-129.07 880.58,-128.37 882.45,-135.11"/>
</a>
</g>
</g>
<!-- Node20&#45;&gt;Node6 -->
<g id="edge28_Node000020_Node000006" class="edge">
<title>Node20&#45;&gt;Node6</title>
<g id="a_edge28_Node000020_Node000006"><a xlink:title=" ">
<path fill="none" stroke="#63b8ff" d="M886.17,-109.98C847.84,-100.87 786.92,-86.4 745.05,-76.45"/>
<polygon fill="#63b8ff" stroke="#63b8ff" points="745.65,-72.99 735.11,-74.08 744.03,-79.8 745.65,-72.99"/>
</a>
</g>
</g>
<!-- Node20&#45;&gt;Node17 -->
<g id="edge30_Node000020_Node000017" class="edge">
<title>Node20&#45;&gt;Node17</title>
<g id="a_edge30_Node000020_Node000017"><a xlink:title=" ">
<path fill="none" stroke="#63b8ff" d="M973.09,-109.98C1036.89,-99.35 1144.58,-81.4 1201.72,-71.88"/>
<polygon fill="#63b8ff" stroke="#63b8ff" points="1202.49,-75.3 1211.78,-70.2 1201.34,-68.4 1202.49,-75.3"/>
</a>
</g>
</g>
<!-- Node21 -->
<g id="Node000021" class="node">
<title>Node21</title>
<g id="a_Node000021"><a xlink:title=" ">
<polygon fill="#e0e0e0" stroke="#999999" points="1115,-74 1057,-74 1057,-55 1115,-55 1115,-74"/>
<text text-anchor="middle" x="1086" y="-62" font-family="Helvetica,sans-Serif" font-size="10.00">memory</text>
</a>
</g>
</g>
<!-- Node20&#45;&gt;Node21 -->
<g id="edge29_Node000020_Node000021" class="edge">
<title>Node20&#45;&gt;Node21</title>
<g id="a_edge29_Node000020_Node000021"><a xlink:title=" ">
<path fill="none" stroke="#63b8ff" d="M948.35,-109.98C975.76,-101.13 1018.89,-87.19 1049.56,-77.28"/>
<polygon fill="#63b8ff" stroke="#63b8ff" points="1051,-80.49 1059.44,-74.08 1048.85,-73.83 1051,-80.49"/>
</a>
</g>
</g>
<!-- Node22 -->
<g id="Node000022" class="node">
<title>Node22</title>
<g id="a_Node000022"><a xlink:href="Ray_8h.html" target="_top" xlink:title=" ">
<polygon fill="white" stroke="#666666" points="957.5,-74 886.5,-74 886.5,-55 957.5,-55 957.5,-74"/>
<text text-anchor="middle" x="922" y="-62" font-family="Helvetica,sans-Serif" font-size="10.00">math/Ray.h</text>
</a>
</g>
</g>
<!-- Node20&#45;&gt;Node22 -->
<g id="edge31_Node000020_Node000022" class="edge">
<title>Node20&#45;&gt;Node22</title>
<g id="a_edge31_Node000020_Node000022"><a xlink:title=" ">
<path fill="none" stroke="#63b8ff" d="M922,-109.75C922,-102.8 922,-92.85 922,-84.13"/>
<polygon fill="#63b8ff" stroke="#63b8ff" points="925.5,-84.09 922,-74.09 918.5,-84.09 925.5,-84.09"/>
</a>
</g>
</g>
<!-- Node23 -->
<g id="Node000023" class="node">
<title>Node23</title>
<g id="a_Node000023"><a xlink:title=" ">
<polygon fill="#e0e0e0" stroke="#999999" points="963.5,-19 880.5,-19 880.5,0 963.5,0 963.5,-19"/>
<text text-anchor="middle" x="922" y="-7" font-family="Helvetica,sans-Serif" font-size="10.00">glm/vec3.hpp</text>
</a>
</g>
</g>
<!-- Node22&#45;&gt;Node23 -->
<g id="edge32_Node000022_Node000023" class="edge">
<title>Node22&#45;&gt;Node23</title>
<g id="a_edge32_Node000022_Node000023"><a xlink:title=" ">
<path fill="none" stroke="#63b8ff" d="M922,-54.75C922,-47.8 922,-37.85 922,-29.13"/>
<polygon fill="#63b8ff" stroke="#63b8ff" points="925.5,-29.09 922,-19.09 918.5,-29.09 925.5,-29.09"/>
</a>
</g>
</g>
<!-- Node25 -->
<g id="Node000025" class="node">
<title>Node25</title>
<g id="a_Node000025"><a xlink:title=" ">
<polygon fill="#e0e0e0" stroke="#999999" points="1138.5,-129 1073.5,-129 1073.5,-110 1138.5,-110 1138.5,-129"/>
<text text-anchor="middle" x="1106" y="-117" font-family="Helvetica,sans-Serif" font-size="10.00">functional</text>
</a>
</g>
</g>
<!-- Node24&#45;&gt;Node25 -->
<g id="edge36_Node000024_Node000025" class="edge">
<title>Node24&#45;&gt;Node25</title>
<g id="a_edge36_Node000024_Node000025"><a xlink:title=" ">
<path fill="none" stroke="#63b8ff" d="M1197.49,-164.98C1180.03,-156.5 1152.99,-143.35 1132.83,-133.54"/>
<polygon fill="#63b8ff" stroke="#63b8ff" points="1134.36,-130.4 1123.83,-129.17 1131.29,-136.69 1134.36,-130.4"/>
</a>
</g>
</g>
<!-- Node26&#45;&gt;Node5 -->
<g id="edge38_Node000026_Node000005" class="edge">
<title>Node26&#45;&gt;Node5</title>
<g id="a_edge38_Node000026_Node000005"><a xlink:title=" ">
<path fill="none" stroke="#63b8ff" d="M1003.85,-219.98C946.72,-211.21 864.63,-197.03 835,-184 808.09,-172.16 781.56,-150.67 765.24,-135.99"/>
<polygon fill="#63b8ff" stroke="#63b8ff" points="767.41,-133.24 757.69,-129.03 762.66,-138.38 767.41,-133.24"/>
</a>
</g>
</g>
<!-- Node26&#45;&gt;Node21 -->
<g id="edge39_Node000026_Node000021" class="edge">
<title>Node26&#45;&gt;Node21</title>
<g id="a_edge39_Node000026_Node000021"><a xlink:title=" ">
<path fill="none" stroke="#63b8ff" d="M1074.36,-219.9C1093.89,-204.32 1133.14,-169.28 1148,-129 1150.92,-121.08 1151.86,-117.51 1148,-110 1141.04,-96.44 1127.81,-86.07 1115.35,-78.78"/>
<polygon fill="#63b8ff" stroke="#63b8ff" points="1116.98,-75.68 1106.52,-74 1113.65,-81.84 1116.98,-75.68"/>
</a>
</g>
</g>
<!-- Node26&#45;&gt;Node24 -->
<g id="edge40_Node000026_Node000024" class="edge">
<title>Node26&#45;&gt;Node24</title>
<g id="a_edge40_Node000026_Node000024"><a xlink:title=" ">
<path fill="none" stroke="#63b8ff" d="M1087.42,-219.98C1112.72,-211.16 1152.45,-197.31 1180.86,-187.41"/>
<polygon fill="#63b8ff" stroke="#63b8ff" points="1182.1,-190.68 1190.39,-184.08 1179.79,-184.07 1182.1,-190.68"/>
</a>
</g>
</g>
<!-- Node26&#45;&gt;Node27 -->
<g id="edge41_Node000026_Node000027" class="edge">
<title>Node26&#45;&gt;Node27</title>
<g id="a_edge41_Node000026_Node000027"><a xlink:title=" ">
<path fill="none" stroke="#63b8ff" d="M1057.06,-219.75C1052.02,-212.34 1044.66,-201.5 1038.49,-192.41"/>
<polygon fill="#63b8ff" stroke="#63b8ff" points="1041.35,-190.39 1032.83,-184.09 1035.56,-194.33 1041.35,-190.39"/>
</a>
</g>
</g>
<!-- Node27&#45;&gt;Node6 -->
<g id="edge43_Node000027_Node000006" class="edge">
<title>Node27&#45;&gt;Node6</title>
<g id="a_edge43_Node000027_Node000006"><a xlink:title=" ">
<path fill="none" stroke="#63b8ff" d="M987.68,-164.99C952.89,-157.05 900.99,-144.16 857,-129 836.86,-122.06 832.7,-118.1 813,-110 785.61,-98.74 754.25,-86.55 731.37,-77.78"/>
<polygon fill="#63b8ff" stroke="#63b8ff" points="732.4,-74.43 721.81,-74.13 729.9,-80.97 732.4,-74.43"/>
</a>
</g>
</g>
<!-- Node27&#45;&gt;Node25 -->
<g id="edge42_Node000027_Node000025" class="edge">
<title>Node27&#45;&gt;Node25</title>
<g id="a_edge42_Node000027_Node000025"><a xlink:title=" ">
<path fill="none" stroke="#63b8ff" d="M1039.69,-164.98C1051.83,-156.84 1070.36,-144.41 1084.75,-134.76"/>
<polygon fill="#63b8ff" stroke="#63b8ff" points="1086.72,-137.65 1093.08,-129.17 1082.82,-131.84 1086.72,-137.65"/>
</a>
</g>
</g>
<!-- Node28 -->
<g id="Node000028" class="node">
<title>Node28</title>
<g id="a_Node000028"><a xlink:href="ISolver_8h.html" target="_top" xlink:title="Abstract interface for numerical solvers.">
<polygon fill="white" stroke="#666666" points="1055.5,-129 996.5,-129 996.5,-110 1055.5,-110 1055.5,-129"/>
<text text-anchor="middle" x="1026" y="-117" font-family="Helvetica,sans-Serif" font-size="10.00">ISolver.h</text>
</a>
</g>
</g>
<!-- Node27&#45;&gt;Node28 -->
<g id="edge44_Node000027_Node000028" class="edge">
<title>Node27&#45;&gt;Node28</title>
<g id="a_edge44_Node000027_Node000028"><a xlink:title=" ">
<path fill="none" stroke="#63b8ff" d="M1026.83,-164.75C1026.7,-157.8 1026.52,-147.85 1026.35,-139.13"/>
<polygon fill="#63b8ff" stroke="#63b8ff" points="1029.85,-139.02 1026.16,-129.09 1022.85,-139.15 1029.85,-139.02"/>
</a>
</g>
</g>
<!-- Node29&#45;&gt;Node3 -->
<g id="edge52_Node000029_Node000003" class="edge">
<title>Node29&#45;&gt;Node3</title>
<g id="a_edge52_Node000029_Node000003"><a xlink:title=" ">
<path fill="none" stroke="#63b8ff" d="M628.42,-220.28C581.69,-211.04 505.74,-196.01 454.84,-185.95"/>
<polygon fill="#63b8ff" stroke="#63b8ff" points="455.5,-182.51 445.01,-184.01 454.14,-189.38 455.5,-182.51"/>
</a>
</g>
</g>
<!-- Node29&#45;&gt;Node6 -->
<g id="edge47_Node000029_Node000006" class="edge">
<title>Node29&#45;&gt;Node6</title>
<g id="a_edge47_Node000029_Node000006"><a xlink:title=" ">
<path fill="none" stroke="#63b8ff" d="M671.54,-219.97C673.16,-211.01 675.77,-196.52 678,-184 684.31,-148.65 691.61,-107.35 695.73,-84.03"/>
<polygon fill="#63b8ff" stroke="#63b8ff" points="699.19,-84.58 697.48,-74.13 692.29,-83.36 699.19,-84.58"/>
</a>
</g>
</g>
<!-- Node29&#45;&gt;Node11 -->
<g id="edge51_Node000029_Node000011" class="edge">
<title>Node29&#45;&gt;Node11</title>
<g id="a_edge51_Node000029_Node000011"><a xlink:title=" ">
<path fill="none" stroke="#63b8ff" d="M628.33,-223.13C551.91,-213.27 389.7,-192.35 308.08,-181.83"/>
<polygon fill="#63b8ff" stroke="#63b8ff" points="308.43,-178.34 298.06,-180.54 307.53,-185.29 308.43,-178.34"/>
</a>
</g>
</g>
<!-- Node30 -->
<g id="Node000030" class="node">
<title>Node30</title>
<g id="a_Node000030"><a xlink:href="AABB_8h.html" target="_top" xlink:title=" ">
<polygon fill="white" stroke="#666666" points="954,-184 844,-184 844,-165 954,-165 954,-184"/>
<text text-anchor="middle" x="899" y="-172" font-family="Helvetica,sans-Serif" font-size="10.00">../bounding/AABB.h</text>
</a>
</g>
</g>
<!-- Node29&#45;&gt;Node30 -->
<g id="edge48_Node000029_Node000030" class="edge">
<title>Node29&#45;&gt;Node30</title>
<g id="a_edge48_Node000029_Node000030"><a xlink:title=" ">
<path fill="none" stroke="#63b8ff" d="M706.79,-219.98C746.24,-210.86 808.98,-196.33 851.98,-186.38"/>
<polygon fill="#63b8ff" stroke="#63b8ff" points="852.97,-189.75 861.92,-184.08 851.39,-182.93 852.97,-189.75"/>
</a>
</g>
</g>
<!-- Node30&#45;&gt;Node6 -->
<g id="edge49_Node000030_Node000006" class="edge">
<title>Node30&#45;&gt;Node6</title>
<g id="a_edge49_Node000030_Node000006"><a xlink:title=" ">
<path fill="none" stroke="#63b8ff" d="M882.97,-164.84C848.14,-146.04 765.36,-101.33 723.76,-78.87"/>
<polygon fill="#63b8ff" stroke="#63b8ff" points="725.29,-75.72 714.83,-74.05 721.96,-81.88 725.29,-75.72"/>
</a>
</g>
</g>
<!-- Node30&#45;&gt;Node20 -->
<g id="edge50_Node000030_Node000020" class="edge">
<title>Node30&#45;&gt;Node20</title>
<g id="a_edge50_Node000030_Node000020"><a xlink:title=" ">
<path fill="none" stroke="#63b8ff" d="M902.8,-164.75C905.91,-157.57 910.42,-147.18 914.29,-138.27"/>
<polygon fill="#63b8ff" stroke="#63b8ff" points="917.5,-139.66 918.27,-129.09 911.08,-136.87 917.5,-139.66"/>
</a>
</g>
</g>
</g>
</svg>

<g id="navigator" transform="translate(0 0)" fill="#404254">
  <rect fill="#f2f5e9" fill-opacity="0.5" stroke="#606060" stroke-width=".5" x="0" y="0" width="60" height="60"/>
  <use id="zoomplus" xlink:href="#zoomPlus" x="17" y="9" onmousedown="handleZoom(evt,'in')"/>
  <use id="zoomminus" xlink:href="#zoomMin" x="42" y="9" onmousedown="handleZoom(evt,'out')"/>
  <use id="reset" xlink:href="#resetDef" x="30" y="36" onmousedown="handleReset()"/>
   <use id="arrowup" xlink:href="#arrowUp" x="0" y="0" onmousedown="handlePan(0,-1)"/>
  <use id="arrowright" xlink:href="#arrowRight" x="0" y="0" onmousedown="handlePan(1,0)"/>
  <use id="arrowdown" xlink:href="#arrowDown" x="0" y="0" onmousedown="handlePan(0,1)"/>
  <use id="arrowleft" xlink:href="#arrowLeft" x="0" y="0" onmousedown="handlePan(-1,0)"/>
</g>
<svg viewBox="0 0 15 15" width="100%" height="30px" preserveAspectRatio="xMaxYMin meet">
 <g id="arrow_out" transform="scale(0.3 0.3)">
  <a xlink:href="Octree_8cpp__incl_org.svg" target="_base">
   <rect id="button" ry="5" rx="5" y="6" x="6" height="38" width="38"
        fill="#f2f5e9" fill-opacity="0.5" stroke="#606060" stroke-width="1.0"/>
   <path id="arrow"
     d="M 11.500037,31.436501 C 11.940474,20.09759 22.043105,11.32322 32.158766,21.979434 L 37.068811,17.246167 C 37.068811,17.246167 37.088388,32 37.088388,32 L 22.160133,31.978069 C 22.160133,31.978069 26.997745,27.140456 26.997745,27.140456 C 18.528582,18.264221 13.291696,25.230495 11.500037,31.436501 z"
     style="fill:#404040;"/>
  </a>
 </g>
</svg>

<style type='text/css'>
<![CDATA[
[data-mouse-over-selected='false'] { opacity: 0.7; }
[data-mouse-over-selected='true']  { opacity: 1.0; }
]]>
</style>
<script type="application/ecmascript"><![CDATA[
document.addEventListener('DOMContentLoaded', (event) => {
  highlightEdges();
  highlightAdjacentNodes();
});
]]></script>
</svg>
