<?xml version="1.0" encoding="UTF-8" standalone="no"?>
<!DOCTYPE svg PUBLIC "-//W3C//DTD SVG 1.1//EN"
 "http://www.w3.org/Graphics/SVG/1.1/DTD/svg11.dtd">
<!-- Generated by graphviz version 2.43.0 (0)
 -->
<!-- Title: src/physics/spatial/Octree.cpp Pages: 1 -->
<svg width="1544pt" height="368pt"
 viewBox="0.00 0.00 1543.50 368.00" xmlns="http://www.w3.org/2000/svg" xmlns:xlink="http://www.w3.org/1999/xlink">
<g id="graph0" class="graph" transform="scale(1 1) rotate(0) translate(4 364)">
<title>src/physics/spatial/Octree.cpp</title>
<!-- Node1 -->
<g id="Node000001" class="node">
<title>Node1</title>
<g id="a_Node000001"><a xlink:title=" ">
<polygon fill="#999999" stroke="#666666" points="451.5,-360 344.5,-360 344.5,-330 451.5,-330 451.5,-360"/>
<text text-anchor="start" x="352.5" y="-348" font-family="Helvetica,sans-Serif" font-size="10.00">src/physics/spatial</text>
<text text-anchor="middle" x="398" y="-337" font-family="Helvetica,sans-Serif" font-size="10.00">/Octree.cpp</text>
</a>
</g>
</g>
<!-- Node2 -->
<g id="Node000002" class="node">
<title>Node2</title>
<g id="a_Node000002"><a xlink:href="Octree_8h.html" target="_top" xlink:title=" ">
<polygon fill="white" stroke="#666666" points="254,-239 196,-239 196,-220 254,-220 254,-239"/>
<text text-anchor="middle" x="225" y="-227" font-family="Helvetica,sans-Serif" font-size="10.00">Octree.h</text>
</a>
</g>
</g>
<!-- Node1&#45;&gt;Node2 -->
<g id="edge1_Node000001_Node000002" class="edge">
<title>Node1&#45;&gt;Node2</title>
<g id="a_edge1_Node000001_Node000002"><a xlink:title=" ">
<path fill="none" stroke="#63b8ff" d="M376.44,-329.85C343.32,-308.13 280.28,-266.77 246.93,-244.89"/>
<polygon fill="#63b8ff" stroke="#63b8ff" points="248.65,-241.83 238.37,-239.27 244.81,-247.68 248.65,-241.83"/>
</a>
</g>
</g>
<!-- Node13 -->
<g id="Node000013" class="node">
<title>Node13</title>
<g id="a_Node000013"><a xlink:title=" ">
<polygon fill="#e0e0e0" stroke="#999999" points="50,-184 0,-184 0,-165 50,-165 50,-184"/>
<text text-anchor="middle" x="25" y="-172" font-family="Helvetica,sans-Serif" font-size="10.00">cstdint</text>
</a>
</g>
</g>
<!-- Node1&#45;&gt;Node13 -->
<g id="edge57_Node000001_Node000013" class="edge">
<title>Node1&#45;&gt;Node13</title>
<g id="a_edge57_Node000001_Node000013"><a xlink:title=" ">
<path fill="none" stroke="#63b8ff" d="M344.22,-340.9C270.62,-333.96 138.21,-311.53 55,-239 41.52,-227.25 33.64,-208.13 29.37,-193.94"/>
<polygon fill="#63b8ff" stroke="#63b8ff" points="32.74,-193 26.77,-184.25 25.98,-194.81 32.74,-193"/>
</a>
</g>
</g>
<!-- Node14 -->
<g id="Node000014" class="node">
<title>Node14</title>
<g id="a_Node000014"><a xlink:href="Constants_8h.html" target="_top" xlink:title=" ">
<polygon fill="white" stroke="#666666" points="178,-239 64,-239 64,-220 178,-220 178,-239"/>
<text text-anchor="middle" x="121" y="-227" font-family="Helvetica,sans-Serif" font-size="10.00">physics/Constants.h</text>
</a>
</g>
</g>
<!-- Node1&#45;&gt;Node14 -->
<g id="edge15_Node000001_Node000014" class="edge">
<title>Node1&#45;&gt;Node14</title>
<g id="a_edge15_Node000001_Node000014"><a xlink:title=" ">
<path fill="none" stroke="#63b8ff" d="M363.76,-329.97C309.23,-307.63 203.52,-264.31 151.47,-242.98"/>
<polygon fill="#63b8ff" stroke="#63b8ff" points="152.68,-239.7 142.1,-239.14 150.02,-246.17 152.68,-239.7"/>
</a>
</g>
</g>
<!-- Node15 -->
<g id="Node000015" class="node">
<title>Node15</title>
<g id="a_Node000015"><a xlink:href="PhysicsSystem_8h.html" target="_top" xlink:title=" ">
<polygon fill="white" stroke="#666666" points="569.5,-294 430.5,-294 430.5,-275 569.5,-275 569.5,-294"/>
<text text-anchor="middle" x="500" y="-282" font-family="Helvetica,sans-Serif" font-size="10.00">physics/PhysicsSystem.h</text>
</a>
</g>
</g>
<!-- Node1&#45;&gt;Node15 -->
<g id="edge16_Node000001_Node000015" class="edge">
<title>Node1&#45;&gt;Node15</title>
<g id="a_edge16_Node000001_Node000015"><a xlink:title=" ">
<path fill="none" stroke="#63b8ff" d="M422.43,-329.99C438.69,-320.66 459.95,-308.47 476.1,-299.21"/>
<polygon fill="#63b8ff" stroke="#63b8ff" points="478,-302.15 484.94,-294.14 474.52,-296.08 478,-302.15"/>
</a>
</g>
</g>
<!-- Node32 -->
<g id="Node000032" class="node">
<title>Node32</title>
<g id="a_Node000032"><a xlink:title=" ">
<polygon fill="#e0e0e0" stroke="#999999" points="616.5,-294 587.5,-294 587.5,-275 616.5,-275 616.5,-294"/>
<text text-anchor="middle" x="602" y="-282" font-family="Helvetica,sans-Serif" font-size="10.00">bit</text>
</a>
</g>
</g>
<!-- Node1&#45;&gt;Node32 -->
<g id="edge55_Node000001_Node000032" class="edge">
<title>Node1&#45;&gt;Node32</title>
<g id="a_edge55_Node000001_Node000032"><a xlink:title=" ">
<path fill="none" stroke="#63b8ff" d="M451.81,-330.41C485.67,-321.57 530.43,-309.35 577.67,-294.25"/>
<polygon fill="#63b8ff" stroke="#63b8ff" points="579.02,-297.49 587.46,-291.08 576.87,-290.82 579.02,-297.49"/>
</a>
</g>
</g>
<!-- Node33 -->
<g id="Node000033" class="node">
<title>Node33</title>
<g id="a_Node000033"><a xlink:title=" ">
<polygon fill="#e0e0e0" stroke="#999999" points="795.5,-294 634.5,-294 634.5,-275 795.5,-275 795.5,-294"/>
<text text-anchor="middle" x="715" y="-282" font-family="Helvetica,sans-Serif" font-size="10.00">glm/gtx/component_wise.hpp</text>
</a>
</g>
</g>
<!-- Node1&#45;&gt;Node33 -->
<g id="edge56_Node000001_Node000033" class="edge">
<title>Node1&#45;&gt;Node33</title>
<g id="a_edge56_Node000001_Node000033"><a xlink:title=" ">
<path fill="none" stroke="#63b8ff" d="M451.77,-334.08C509.26,-323.47 600.03,-306.72 658.53,-295.92"/>
<polygon fill="#63b8ff" stroke="#63b8ff" points="659.51,-299.3 668.71,-294.04 658.24,-292.42 659.51,-299.3"/>
</a>
</g>
</g>
<!-- Node3 -->
<g id="Node000003" class="node">
<title>Node3</title>
<g id="a_Node000003"><a xlink:href="PhysicsBody_8h.html" target="_top" xlink:title=" ">
<polygon fill="white" stroke="#666666" points="425.5,-184 330.5,-184 330.5,-165 425.5,-165 425.5,-184"/>
<text text-anchor="middle" x="378" y="-172" font-family="Helvetica,sans-Serif" font-size="10.00">../PhysicsBody.h</text>
</a>
</g>
</g>
<!-- Node2&#45;&gt;Node3 -->
<g id="edge2_Node000002_Node000003" class="edge">
<title>Node2&#45;&gt;Node3</title>
<g id="a_edge2_Node000002_Node000003"><a xlink:title=" ">
<path fill="none" stroke="#63b8ff" d="M249.58,-219.98C275.05,-211.16 315.04,-197.31 343.63,-187.41"/>
<polygon fill="#63b8ff" stroke="#63b8ff" points="344.92,-190.66 353.23,-184.08 342.63,-184.05 344.92,-190.66"/>
</a>
</g>
</g>
<!-- Node7 -->
<g id="Node000007" class="node">
<title>Node7</title>
<g id="a_Node000007"><a xlink:title=" ">
<polygon fill="#e0e0e0" stroke="#999999" points="655,-74 577,-74 577,-55 655,-55 655,-74"/>
<text text-anchor="middle" x="616" y="-62" font-family="Helvetica,sans-Serif" font-size="10.00">glm/glm.hpp</text>
</a>
</g>
</g>
<!-- Node2&#45;&gt;Node7 -->
<g id="edge12_Node000002_Node000007" class="edge">
<title>Node2&#45;&gt;Node7</title>
<g id="a_edge12_Node000002_Node000007"><a xlink:title=" ">
<path fill="none" stroke="#63b8ff" d="M202.53,-219.93C156.17,-201.06 57.52,-154.1 98,-110 129.28,-75.91 442.71,-67.88 566.28,-66.04"/>
<polygon fill="#63b8ff" stroke="#63b8ff" points="566.64,-69.53 576.59,-65.89 566.55,-62.53 566.64,-69.53"/>
</a>
</g>
</g>
<!-- Node8 -->
<g id="Node000008" class="node">
<title>Node8</title>
<g id="a_Node000008"><a xlink:title=" ">
<polygon fill="#e0e0e0" stroke="#999999" points="153.5,-129 106.5,-129 106.5,-110 153.5,-110 153.5,-129"/>
<text text-anchor="middle" x="130" y="-117" font-family="Helvetica,sans-Serif" font-size="10.00">vector</text>
</a>
</g>
</g>
<!-- Node2&#45;&gt;Node8 -->
<g id="edge13_Node000002_Node000008" class="edge">
<title>Node2&#45;&gt;Node8</title>
<g id="a_edge13_Node000002_Node000008"><a xlink:title=" ">
<path fill="none" stroke="#63b8ff" d="M204.07,-219.86C188.37,-212.43 167.36,-200.32 154,-184 143.38,-171.03 137.16,-152.88 133.72,-139.31"/>
<polygon fill="#63b8ff" stroke="#63b8ff" points="137.05,-138.18 131.45,-129.19 130.22,-139.71 137.05,-138.18"/>
</a>
</g>
</g>
<!-- Node12 -->
<g id="Node000012" class="node">
<title>Node12</title>
<g id="a_Node000012"><a xlink:href="NodeIndex_8h.html" target="_top" xlink:title=" ">
<polygon fill="white" stroke="#666666" points="274,-184 196,-184 196,-165 274,-165 274,-184"/>
<text text-anchor="middle" x="235" y="-172" font-family="Helvetica,sans-Serif" font-size="10.00">NodeIndex.h</text>
</a>
</g>
</g>
<!-- Node2&#45;&gt;Node12 -->
<g id="edge11_Node000002_Node000012" class="edge">
<title>Node2&#45;&gt;Node12</title>
<g id="a_edge11_Node000002_Node000012"><a xlink:title=" ">
<path fill="none" stroke="#63b8ff" d="M226.65,-219.75C227.96,-212.8 229.84,-202.85 231.48,-194.13"/>
<polygon fill="#63b8ff" stroke="#63b8ff" points="234.96,-194.56 233.38,-184.09 228.09,-193.27 234.96,-194.56"/>
</a>
</g>
</g>
<!-- Node2&#45;&gt;Node13 -->
<g id="edge14_Node000002_Node000013" class="edge">
<title>Node2&#45;&gt;Node13</title>
<g id="a_edge14_Node000002_Node000013"><a xlink:title=" ">
<path fill="none" stroke="#63b8ff" d="M195.92,-220.79C159.82,-211.23 98.31,-194.93 59.76,-184.71"/>
<polygon fill="#63b8ff" stroke="#63b8ff" points="60.57,-181.31 50.01,-182.13 58.78,-188.07 60.57,-181.31"/>
</a>
</g>
</g>
<!-- Node4 -->
<g id="Node000004" class="node">
<title>Node4</title>
<g id="a_Node000004"><a xlink:title=" ">
<polygon fill="#e0e0e0" stroke="#999999" points="484,-129 434,-129 434,-110 484,-110 484,-129"/>
<text text-anchor="middle" x="459" y="-117" font-family="Helvetica,sans-Serif" font-size="10.00">atomic</text>
</a>
</g>
</g>
<!-- Node3&#45;&gt;Node4 -->
<g id="edge3_Node000003_Node000004" class="edge">
<title>Node3&#45;&gt;Node4</title>
<g id="a_edge3_Node000003_Node000004"><a xlink:title=" ">
<path fill="none" stroke="#63b8ff" d="M391.01,-164.98C403.46,-156.84 422.46,-144.41 437.21,-134.76"/>
<polygon fill="#63b8ff" stroke="#63b8ff" points="439.3,-137.57 445.75,-129.17 435.46,-131.72 439.3,-137.57"/>
</a>
</g>
</g>
<!-- Node5 -->
<g id="Node000005" class="node">
<title>Node5</title>
<g id="a_Node000005"><a xlink:title=" ">
<polygon fill="#e0e0e0" stroke="#999999" points="836,-129 792,-129 792,-110 836,-110 836,-129"/>
<text text-anchor="middle" x="814" y="-117" font-family="Helvetica,sans-Serif" font-size="10.00">string</text>
</a>
</g>
</g>
<!-- Node3&#45;&gt;Node5 -->
<g id="edge4_Node000003_Node000005" class="edge">
<title>Node3&#45;&gt;Node5</title>
<g id="a_edge4_Node000003_Node000005"><a xlink:title=" ">
<path fill="none" stroke="#63b8ff" d="M425.91,-167.68C515.3,-156.81 705.36,-133.71 781.48,-124.45"/>
<polygon fill="#63b8ff" stroke="#63b8ff" points="782.35,-127.87 791.86,-123.19 781.51,-120.92 782.35,-127.87"/>
</a>
</g>
</g>
<!-- Node6 -->
<g id="Node000006" class="node">
<title>Node6</title>
<g id="a_Node000006"><a xlink:title=" ">
<polygon fill="#e0e0e0" stroke="#999999" points="377.5,-129 332.5,-129 332.5,-110 377.5,-110 377.5,-129"/>
<text text-anchor="middle" x="355" y="-117" font-family="Helvetica,sans-Serif" font-size="10.00">utility</text>
</a>
</g>
</g>
<!-- Node3&#45;&gt;Node6 -->
<g id="edge5_Node000003_Node000006" class="edge">
<title>Node3&#45;&gt;Node6</title>
<g id="a_edge5_Node000003_Node000006"><a xlink:title=" ">
<path fill="none" stroke="#63b8ff" d="M374.2,-164.75C371.09,-157.57 366.58,-147.18 362.71,-138.27"/>
<polygon fill="#63b8ff" stroke="#63b8ff" points="365.92,-136.87 358.73,-129.09 359.5,-139.66 365.92,-136.87"/>
</a>
</g>
</g>
<!-- Node3&#45;&gt;Node7 -->
<g id="edge6_Node000003_Node000007" class="edge">
<title>Node3&#45;&gt;Node7</title>
<g id="a_edge6_Node000003_Node000007"><a xlink:title=" ">
<path fill="none" stroke="#63b8ff" d="M381.84,-165C388.53,-151.18 403.68,-124.01 425,-110 467.63,-81.99 525.77,-71.53 566.67,-67.66"/>
<polygon fill="#63b8ff" stroke="#63b8ff" points="567.01,-71.15 576.68,-66.81 566.42,-64.17 567.01,-71.15"/>
</a>
</g>
</g>
<!-- Node3&#45;&gt;Node8 -->
<g id="edge7_Node000003_Node000008" class="edge">
<title>Node3&#45;&gt;Node8</title>
<g id="a_edge7_Node000003_Node000008"><a xlink:title=" ">
<path fill="none" stroke="#63b8ff" d="M333.81,-165C292.37,-156.88 228.47,-144 163.73,-129.08"/>
<polygon fill="#63b8ff" stroke="#63b8ff" points="164.29,-125.62 153.76,-126.77 162.71,-132.43 164.29,-125.62"/>
</a>
</g>
</g>
<!-- Node9 -->
<g id="Node000009" class="node">
<title>Node9</title>
<g id="a_Node000009"><a xlink:title=" ">
<polygon fill="#e0e0e0" stroke="#999999" points="210,-129 172,-129 172,-110 210,-110 210,-129"/>
<text text-anchor="middle" x="191" y="-117" font-family="Helvetica,sans-Serif" font-size="10.00">map</text>
</a>
</g>
</g>
<!-- Node3&#45;&gt;Node9 -->
<g id="edge8_Node000003_Node000009" class="edge">
<title>Node3&#45;&gt;Node9</title>
<g id="a_edge8_Node000003_Node000009"><a xlink:title=" ">
<path fill="none" stroke="#63b8ff" d="M346.57,-164.92C316.46,-156.65 269.5,-143.64 220.16,-129.29"/>
<polygon fill="#63b8ff" stroke="#63b8ff" points="220.84,-125.85 210.26,-126.41 218.88,-132.57 220.84,-125.85"/>
</a>
</g>
</g>
<!-- Node10 -->
<g id="Node000010" class="node">
<title>Node10</title>
<g id="a_Node000010"><a xlink:title=" ">
<polygon fill="#e0e0e0" stroke="#999999" points="588,-129 540,-129 540,-110 588,-110 588,-129"/>
<text text-anchor="middle" x="564" y="-117" font-family="Helvetica,sans-Serif" font-size="10.00">mutex</text>
</a>
</g>
</g>
<!-- Node3&#45;&gt;Node10 -->
<g id="edge9_Node000003_Node000010" class="edge">
<title>Node3&#45;&gt;Node10</title>
<g id="a_edge9_Node000003_Node000010"><a xlink:title=" ">
<path fill="none" stroke="#63b8ff" d="M407.88,-164.98C441.25,-155.48 495.14,-140.12 530.07,-130.17"/>
<polygon fill="#63b8ff" stroke="#63b8ff" points="531.16,-133.5 539.82,-127.39 529.24,-126.76 531.16,-133.5"/>
</a>
</g>
</g>
<!-- Node11 -->
<g id="Node000011" class="node">
<title>Node11</title>
<g id="a_Node000011"><a xlink:title=" ">
<polygon fill="#e0e0e0" stroke="#999999" points="314,-129 228,-129 228,-110 314,-110 314,-129"/>
<text text-anchor="middle" x="271" y="-117" font-family="Helvetica,sans-Serif" font-size="10.00">unordered_set</text>
</a>
</g>
</g>
<!-- Node3&#45;&gt;Node11 -->
<g id="edge10_Node000003_Node000011" class="edge">
<title>Node3&#45;&gt;Node11</title>
<g id="a_edge10_Node000003_Node000011"><a xlink:title=" ">
<path fill="none" stroke="#63b8ff" d="M360.81,-164.98C343.75,-156.54 317.37,-143.47 297.6,-133.68"/>
<polygon fill="#63b8ff" stroke="#63b8ff" points="299.02,-130.47 288.5,-129.17 295.91,-136.75 299.02,-130.47"/>
</a>
</g>
</g>
<!-- Node15&#45;&gt;Node2 -->
<g id="edge46_Node000015_Node000002" class="edge">
<title>Node15&#45;&gt;Node2</title>
<g id="a_edge46_Node000015_Node000002"><a xlink:title=" ">
<path fill="none" stroke="#63b8ff" d="M455.08,-274.96C408.33,-266.06 333.01,-251.66 268,-239 266.74,-238.75 265.46,-238.5 264.16,-238.25"/>
<polygon fill="#63b8ff" stroke="#63b8ff" points="264.63,-234.78 254.14,-236.28 263.28,-241.64 264.63,-234.78"/>
</a>
</g>
</g>
<!-- Node15&#45;&gt;Node4 -->
<g id="edge18_Node000015_Node000004" class="edge">
<title>Node15&#45;&gt;Node4</title>
<g id="a_edge18_Node000015_Node000004"><a xlink:title=" ">
<path fill="none" stroke="#63b8ff" d="M465.78,-274.93C447.29,-268.37 426.04,-257.24 415,-239 410.63,-231.78 412.88,-228.17 415,-220 419.59,-202.28 427.3,-200.6 435,-184 441.9,-169.13 448.38,-151.68 452.87,-138.84"/>
<polygon fill="#63b8ff" stroke="#63b8ff" points="456.21,-139.89 456.13,-129.29 449.58,-137.62 456.21,-139.89"/>
</a>
</g>
</g>
<!-- Node15&#45;&gt;Node8 -->
<g id="edge17_Node000015_Node000008" class="edge">
<title>Node15&#45;&gt;Node8</title>
<g id="a_edge17_Node000015_Node000008"><a xlink:title=" ">
<path fill="none" stroke="#63b8ff" d="M465.31,-274.94C394.1,-256.97 234.18,-214.48 187,-184 168.22,-171.87 151.77,-151.97 141.43,-137.68"/>
<polygon fill="#63b8ff" stroke="#63b8ff" points="144.14,-135.44 135.56,-129.23 138.39,-139.44 144.14,-135.44"/>
</a>
</g>
</g>
<!-- Node15&#45;&gt;Node10 -->
<g id="edge19_Node000015_Node000010" class="edge">
<title>Node15&#45;&gt;Node10</title>
<g id="a_edge19_Node000015_Node000010"><a xlink:title=" ">
<path fill="none" stroke="#63b8ff" d="M503.44,-274.74C513.51,-249.09 543.08,-173.78 556.82,-138.78"/>
<polygon fill="#63b8ff" stroke="#63b8ff" points="560.15,-139.89 560.54,-129.31 553.63,-137.34 560.15,-139.89"/>
</a>
</g>
</g>
<!-- Node15&#45;&gt;Node14 -->
<g id="edge35_Node000015_Node000014" class="edge">
<title>Node15&#45;&gt;Node14</title>
<g id="a_edge35_Node000015_Node000014"><a xlink:title=" ">
<path fill="none" stroke="#63b8ff" d="M439.11,-274.98C370.5,-265.39 259.31,-249.84 188.21,-239.9"/>
<polygon fill="#63b8ff" stroke="#63b8ff" points="188.41,-236.39 178.02,-238.47 187.44,-243.33 188.41,-236.39"/>
</a>
</g>
</g>
<!-- Node16 -->
<g id="Node000016" class="node">
<title>Node16</title>
<g id="a_Node000016"><a xlink:title=" ">
<polygon fill="#e0e0e0" stroke="#999999" points="1410,-239 1362,-239 1362,-220 1410,-220 1410,-239"/>
<text text-anchor="middle" x="1386" y="-227" font-family="Helvetica,sans-Serif" font-size="10.00">thread</text>
</a>
</g>
</g>
<!-- Node15&#45;&gt;Node16 -->
<g id="edge20_Node000015_Node000016" class="edge">
<title>Node15&#45;&gt;Node16</title>
<g id="a_edge20_Node000015_Node000016"><a xlink:title=" ">
<path fill="none" stroke="#63b8ff" d="M569.77,-275.76C572.89,-275.49 575.97,-275.23 579,-275 920.14,-248.69 1008.89,-284.51 1348,-239 1349.28,-238.83 1350.58,-238.63 1351.9,-238.42"/>
<polygon fill="#63b8ff" stroke="#63b8ff" points="1352.81,-241.81 1361.99,-236.53 1351.52,-234.93 1352.81,-241.81"/>
</a>
</g>
</g>
<!-- Node17 -->
<g id="Node000017" class="node">
<title>Node17</title>
<g id="a_Node000017"><a xlink:title=" ">
<polygon fill="#e0e0e0" stroke="#999999" points="1535.5,-239 1428.5,-239 1428.5,-220 1535.5,-220 1535.5,-239"/>
<text text-anchor="middle" x="1482" y="-227" font-family="Helvetica,sans-Serif" font-size="10.00">condition_variable</text>
</a>
</g>
</g>
<!-- Node15&#45;&gt;Node17 -->
<g id="edge21_Node000015_Node000017" class="edge">
<title>Node15&#45;&gt;Node17</title>
<g id="a_edge21_Node000015_Node000017"><a xlink:title=" ">
<path fill="none" stroke="#63b8ff" d="M569.76,-275.75C572.88,-275.48 575.97,-275.23 579,-275 948.35,-247.24 1045.09,-271.58 1418.42,-238.95"/>
<polygon fill="#63b8ff" stroke="#63b8ff" points="1418.77,-242.43 1428.42,-238.07 1418.15,-235.46 1418.77,-242.43"/>
</a>
</g>
</g>
<!-- Node18 -->
<g id="Node000018" class="node">
<title>Node18</title>
<g id="a_Node000018"><a xlink:title=" ">
<polygon fill="#e0e0e0" stroke="#999999" points="1353,-74 1297,-74 1297,-55 1353,-55 1353,-74"/>
<text text-anchor="middle" x="1325" y="-62" font-family="Helvetica,sans-Serif" font-size="10.00">optional</text>
</a>
</g>
</g>
<!-- Node15&#45;&gt;Node18 -->
<g id="edge22_Node000015_Node000018" class="edge">
<title>Node15&#45;&gt;Node18</title>
<g id="a_edge22_Node000015_Node000018"><a xlink:title=" ">
<path fill="none" stroke="#63b8ff" d="M569.77,-275.8C572.89,-275.52 575.98,-275.25 579,-275 719.86,-263.44 1080.26,-284.73 1214,-239 1254.83,-225.04 1269.2,-219.31 1294,-184 1315.42,-153.5 1322.04,-109.23 1324.08,-84.33"/>
<polygon fill="#63b8ff" stroke="#63b8ff" points="1327.59,-84.3 1324.75,-74.09 1320.61,-83.84 1327.59,-84.3"/>
</a>
</g>
</g>
<!-- Node19 -->
<g id="Node000019" class="node">
<title>Node19</title>
<g id="a_Node000019"><a xlink:href="RigidBody_8h.html" target="_top" xlink:title=" ">
<polygon fill="white" stroke="#666666" points="637,-239 563,-239 563,-220 637,-220 637,-239"/>
<text text-anchor="middle" x="600" y="-227" font-family="Helvetica,sans-Serif" font-size="10.00">RigidBody.h</text>
</a>
</g>
</g>
<!-- Node15&#45;&gt;Node19 -->
<g id="edge23_Node000015_Node000019" class="edge">
<title>Node15&#45;&gt;Node19</title>
<g id="a_edge23_Node000015_Node000019"><a xlink:title=" ">
<path fill="none" stroke="#63b8ff" d="M516.07,-274.98C531.86,-266.61 556.22,-253.7 574.63,-243.95"/>
<polygon fill="#63b8ff" stroke="#63b8ff" points="576.44,-246.95 583.64,-239.17 573.17,-240.76 576.44,-246.95"/>
</a>
</g>
</g>
<!-- Node25 -->
<g id="Node000025" class="node">
<title>Node25</title>
<g id="a_Node000025"><a xlink:href="OneUnknownSolver_8h.html" target="_top" xlink:title=" ">
<polygon fill="white" stroke="#666666" points="1102,-184 948,-184 948,-165 1102,-165 1102,-184"/>
<text text-anchor="middle" x="1025" y="-172" font-family="Helvetica,sans-Serif" font-size="10.00">solver/OneUnknownSolver.h</text>
</a>
</g>
</g>
<!-- Node15&#45;&gt;Node25 -->
<g id="edge36_Node000015_Node000025" class="edge">
<title>Node15&#45;&gt;Node25</title>
<g id="a_edge36_Node000015_Node000025"><a xlink:title=" ">
<path fill="none" stroke="#63b8ff" d="M541.63,-274.94C636.69,-255.38 869.48,-207.49 973.42,-186.11"/>
<polygon fill="#63b8ff" stroke="#63b8ff" points="974.27,-189.51 983.36,-184.07 972.86,-182.65 974.27,-189.51"/>
</a>
</g>
</g>
<!-- Node27 -->
<g id="Node000027" class="node">
<title>Node27</title>
<g id="a_Node000027"><a xlink:href="ProblemRouter_8h.html" target="_top" xlink:title=" ">
<polygon fill="white" stroke="#666666" points="1184.5,-239 1053.5,-239 1053.5,-220 1184.5,-220 1184.5,-239"/>
<text text-anchor="middle" x="1119" y="-227" font-family="Helvetica,sans-Serif" font-size="10.00">solver/ProblemRouter.h</text>
</a>
</g>
</g>
<!-- Node15&#45;&gt;Node27 -->
<g id="edge38_Node000015_Node000027" class="edge">
<title>Node15&#45;&gt;Node27</title>
<g id="a_edge38_Node000015_Node000027"><a xlink:title=" ">
<path fill="none" stroke="#63b8ff" d="M569.78,-275.9C572.89,-275.59 575.98,-275.29 579,-275 744.4,-259.29 938.61,-244.08 1043.14,-236.15"/>
<polygon fill="#63b8ff" stroke="#63b8ff" points="1043.58,-239.63 1053.28,-235.38 1043.05,-232.65 1043.58,-239.63"/>
</a>
</g>
</g>
<!-- Node28 -->
<g id="Node000028" class="node">
<title>Node28</title>
<g id="a_Node000028"><a xlink:href="VectorRootSolver_8h.html" target="_top" xlink:title=" ">
<polygon fill="white" stroke="#666666" points="1267.5,-184 1158.5,-184 1158.5,-165 1267.5,-165 1267.5,-184"/>
<text text-anchor="middle" x="1213" y="-172" font-family="Helvetica,sans-Serif" font-size="10.00">VectorRootSolver.h</text>
</a>
</g>
</g>
<!-- Node15&#45;&gt;Node28 -->
<g id="edge54_Node000015_Node000028" class="edge">
<title>Node15&#45;&gt;Node28</title>
<g id="a_edge54_Node000015_Node000028"><a xlink:title=" ">
<path fill="none" stroke="#63b8ff" d="M569.77,-275.81C572.89,-275.52 575.98,-275.25 579,-275 647.22,-269.34 1140.32,-281.47 1194,-239 1207.38,-228.42 1211.63,-208.8 1212.85,-194.16"/>
<polygon fill="#63b8ff" stroke="#63b8ff" points="1216.34,-194.31 1213.28,-184.17 1209.35,-194.01 1216.34,-194.31"/>
</a>
</g>
</g>
<!-- Node30 -->
<g id="Node000030" class="node">
<title>Node30</title>
<g id="a_Node000030"><a xlink:href="BVH_8h.html" target="_top" xlink:title=" ">
<polygon fill="white" stroke="#666666" points="506.5,-239 423.5,-239 423.5,-220 506.5,-220 506.5,-239"/>
<text text-anchor="middle" x="465" y="-227" font-family="Helvetica,sans-Serif" font-size="10.00">spatial/BVH.h</text>
</a>
</g>
</g>
<!-- Node15&#45;&gt;Node30 -->
<g id="edge47_Node000015_Node000030" class="edge">
<title>Node15&#45;&gt;Node30</title>
<g id="a_edge47_Node000015_Node000030"><a xlink:title=" ">
<path fill="none" stroke="#63b8ff" d="M494.22,-274.75C489.38,-267.42 482.32,-256.73 476.36,-247.7"/>
<polygon fill="#63b8ff" stroke="#63b8ff" points="479.1,-245.5 470.67,-239.09 473.26,-249.36 479.1,-245.5"/>
</a>
</g>
</g>
<!-- Node19&#45;&gt;Node3 -->
<g id="edge34_Node000019_Node000003" class="edge">
<title>Node19&#45;&gt;Node3</title>
<g id="a_edge34_Node000019_Node000003"><a xlink:title=" ">
<path fill="none" stroke="#63b8ff" d="M564.33,-219.98C526.17,-210.87 465.53,-196.4 423.85,-186.45"/>
<polygon fill="#63b8ff" stroke="#63b8ff" points="424.49,-183 413.95,-184.08 422.86,-189.81 424.49,-183"/>
</a>
</g>
</g>
<!-- Node19&#45;&gt;Node7 -->
<g id="edge26_Node000019_Node000007" class="edge">
<title>Node19&#45;&gt;Node7</title>
<g id="a_edge26_Node000019_Node000007"><a xlink:title=" ">
<path fill="none" stroke="#63b8ff" d="M600.86,-219.74C603.36,-194.31 610.64,-120.08 614.12,-84.69"/>
<polygon fill="#63b8ff" stroke="#63b8ff" points="617.64,-84.6 615.14,-74.31 610.68,-83.92 617.64,-84.6"/>
</a>
</g>
</g>
<!-- Node19&#45;&gt;Node8 -->
<g id="edge25_Node000019_Node000008" class="edge">
<title>Node19&#45;&gt;Node8</title>
<g id="a_edge25_Node000019_Node000008"><a xlink:title=" ">
<path fill="none" stroke="#63b8ff" d="M562.92,-223.94C497.96,-215.73 366.28,-197.99 322,-184 303.61,-178.19 300.99,-171.94 283,-165 261.24,-156.6 201.75,-139.96 163.69,-129.58"/>
<polygon fill="#63b8ff" stroke="#63b8ff" points="164.13,-126.07 153.57,-126.83 162.3,-132.83 164.13,-126.07"/>
</a>
</g>
</g>
<!-- Node19&#45;&gt;Node10 -->
<g id="edge24_Node000019_Node000010" class="edge">
<title>Node19&#45;&gt;Node10</title>
<g id="a_edge24_Node000019_Node000010"><a xlink:title=" ">
<path fill="none" stroke="#63b8ff" d="M597.05,-219.66C591.2,-202.09 577.98,-162.45 570.15,-138.95"/>
<polygon fill="#63b8ff" stroke="#63b8ff" points="573.37,-137.54 566.89,-129.16 566.73,-139.75 573.37,-137.54"/>
</a>
</g>
</g>
<!-- Node20 -->
<g id="Node000020" class="node">
<title>Node20</title>
<g id="a_Node000020"><a xlink:title=" ">
<polygon fill="#e0e0e0" stroke="#999999" points="892,-184 762,-184 762,-165 892,-165 892,-184"/>
<text text-anchor="middle" x="827" y="-172" font-family="Helvetica,sans-Serif" font-size="10.00">glm/gtc/quaternion.hpp</text>
</a>
</g>
</g>
<!-- Node19&#45;&gt;Node20 -->
<g id="edge27_Node000019_Node000020" class="edge">
<title>Node19&#45;&gt;Node20</title>
<g id="a_edge27_Node000019_Node000020"><a xlink:title=" ">
<path fill="none" stroke="#63b8ff" d="M636.47,-219.98C675.57,-210.86 737.77,-196.33 780.39,-186.38"/>
<polygon fill="#63b8ff" stroke="#63b8ff" points="781.3,-189.76 790.24,-184.08 779.71,-182.95 781.3,-189.76"/>
</a>
</g>
</g>
<!-- Node21 -->
<g id="Node000021" class="node">
<title>Node21</title>
<g id="a_Node000021"><a xlink:href="ICollider_8h.html" target="_top" xlink:title="Abstract interface for collision detection shapes.">
<polygon fill="white" stroke="#666666" points="1173.5,-129 1060.5,-129 1060.5,-110 1173.5,-110 1173.5,-129"/>
<text text-anchor="middle" x="1117" y="-117" font-family="Helvetica,sans-Serif" font-size="10.00">bounding/ICollider.h</text>
</a>
</g>
</g>
<!-- Node19&#45;&gt;Node21 -->
<g id="edge28_Node000019_Node000021" class="edge">
<title>Node19&#45;&gt;Node21</title>
<g id="a_edge28_Node000019_Node000021"><a xlink:title=" ">
<path fill="none" stroke="#63b8ff" d="M637.45,-226.77C695.23,-223.25 809.05,-212.97 901,-184 919.01,-178.33 921.29,-171.55 939,-165 978.84,-150.26 1025.46,-138.81 1061,-131.21"/>
<polygon fill="#63b8ff" stroke="#63b8ff" points="1062.11,-134.55 1071.18,-129.07 1060.68,-127.7 1062.11,-134.55"/>
</a>
</g>
</g>
<!-- Node21&#45;&gt;Node7 -->
<g id="edge29_Node000021_Node000007" class="edge">
<title>Node21&#45;&gt;Node7</title>
<g id="a_edge29_Node000021_Node000007"><a xlink:title=" ">
<path fill="none" stroke="#63b8ff" d="M1060.43,-111.64C1055.55,-111.08 1050.69,-110.52 1046,-110 908.23,-94.63 745.42,-78.27 665.42,-70.35"/>
<polygon fill="#63b8ff" stroke="#63b8ff" points="665.45,-66.84 655.15,-69.34 664.76,-73.81 665.45,-66.84"/>
</a>
</g>
</g>
<!-- Node21&#45;&gt;Node18 -->
<g id="edge31_Node000021_Node000018" class="edge">
<title>Node21&#45;&gt;Node18</title>
<g id="a_edge31_Node000021_Node000018"><a xlink:title=" ">
<path fill="none" stroke="#63b8ff" d="M1150.42,-109.98C1187.74,-100.48 1248.01,-85.12 1287.07,-75.17"/>
<polygon fill="#63b8ff" stroke="#63b8ff" points="1288.17,-78.5 1297,-72.63 1286.44,-71.71 1288.17,-78.5"/>
</a>
</g>
</g>
<!-- Node22 -->
<g id="Node000022" class="node">
<title>Node22</title>
<g id="a_Node000022"><a xlink:title=" ">
<polygon fill="#e0e0e0" stroke="#999999" points="1262,-74 1204,-74 1204,-55 1262,-55 1262,-74"/>
<text text-anchor="middle" x="1233" y="-62" font-family="Helvetica,sans-Serif" font-size="10.00">memory</text>
</a>
</g>
</g>
<!-- Node21&#45;&gt;Node22 -->
<g id="edge30_Node000021_Node000022" class="edge">
<title>Node21&#45;&gt;Node22</title>
<g id="a_edge30_Node000021_Node000022"><a xlink:title=" ">
<path fill="none" stroke="#63b8ff" d="M1135.64,-109.98C1154.3,-101.46 1183.25,-88.23 1204.74,-78.41"/>
<polygon fill="#63b8ff" stroke="#63b8ff" points="1206.38,-81.51 1214.02,-74.17 1203.47,-75.14 1206.38,-81.51"/>
</a>
</g>
</g>
<!-- Node23 -->
<g id="Node000023" class="node">
<title>Node23</title>
<g id="a_Node000023"><a xlink:href="Ray_8h.html" target="_top" xlink:title=" ">
<polygon fill="white" stroke="#666666" points="1152.5,-74 1081.5,-74 1081.5,-55 1152.5,-55 1152.5,-74"/>
<text text-anchor="middle" x="1117" y="-62" font-family="Helvetica,sans-Serif" font-size="10.00">math/Ray.h</text>
</a>
</g>
</g>
<!-- Node21&#45;&gt;Node23 -->
<g id="edge32_Node000021_Node000023" class="edge">
<title>Node21&#45;&gt;Node23</title>
<g id="a_edge32_Node000021_Node000023"><a xlink:title=" ">
<path fill="none" stroke="#63b8ff" d="M1117,-109.75C1117,-102.8 1117,-92.85 1117,-84.13"/>
<polygon fill="#63b8ff" stroke="#63b8ff" points="1120.5,-84.09 1117,-74.09 1113.5,-84.09 1120.5,-84.09"/>
</a>
</g>
</g>
<!-- Node24 -->
<g id="Node000024" class="node">
<title>Node24</title>
<g id="a_Node000024"><a xlink:title=" ">
<polygon fill="#e0e0e0" stroke="#999999" points="1158.5,-19 1075.5,-19 1075.5,0 1158.5,0 1158.5,-19"/>
<text text-anchor="middle" x="1117" y="-7" font-family="Helvetica,sans-Serif" font-size="10.00">glm/vec3.hpp</text>
</a>
</g>
</g>
<!-- Node23&#45;&gt;Node24 -->
<g id="edge33_Node000023_Node000024" class="edge">
<title>Node23&#45;&gt;Node24</title>
<g id="a_edge33_Node000023_Node000024"><a xlink:title=" ">
<path fill="none" stroke="#63b8ff" d="M1117,-54.75C1117,-47.8 1117,-37.85 1117,-29.13"/>
<polygon fill="#63b8ff" stroke="#63b8ff" points="1120.5,-29.09 1117,-19.09 1113.5,-29.09 1120.5,-29.09"/>
</a>
</g>
</g>
<!-- Node26 -->
<g id="Node000026" class="node">
<title>Node26</title>
<g id="a_Node000026"><a xlink:title=" ">
<polygon fill="#e0e0e0" stroke="#999999" points="1003.5,-129 938.5,-129 938.5,-110 1003.5,-110 1003.5,-129"/>
<text text-anchor="middle" x="971" y="-117" font-family="Helvetica,sans-Serif" font-size="10.00">functional</text>
</a>
</g>
</g>
<!-- Node25&#45;&gt;Node26 -->
<g id="edge37_Node000025_Node000026" class="edge">
<title>Node25&#45;&gt;Node26</title>
<g id="a_edge37_Node000025_Node000026"><a xlink:title=" ">
<path fill="none" stroke="#63b8ff" d="M1016.08,-164.75C1008.22,-157.03 996.57,-145.6 987.08,-136.28"/>
<polygon fill="#63b8ff" stroke="#63b8ff" points="989.34,-133.6 979.75,-129.09 984.44,-138.59 989.34,-133.6"/>
</a>
</g>
</g>
<!-- Node27&#45;&gt;Node5 -->
<g id="edge39_Node000027_Node000005" class="edge">
<title>Node27&#45;&gt;Node5</title>
<g id="a_edge39_Node000027_Node000005"><a xlink:title=" ">
<path fill="none" stroke="#63b8ff" d="M1120.85,-219.73C1123.17,-206.03 1125.29,-179.63 1111,-165 1092.64,-146.2 919.03,-129.42 846.06,-123.13"/>
<polygon fill="#63b8ff" stroke="#63b8ff" points="846.32,-119.64 836.06,-122.28 845.72,-126.61 846.32,-119.64"/>
</a>
</g>
</g>
<!-- Node27&#45;&gt;Node22 -->
<g id="edge40_Node000027_Node000022" class="edge">
<title>Node27&#45;&gt;Node22</title>
<g id="a_edge40_Node000027_Node000022"><a xlink:title=" ">
<path fill="none" stroke="#63b8ff" d="M1175.32,-219.95C1215.49,-212.56 1264.53,-200.47 1277,-184 1301.06,-152.23 1268.85,-105.91 1248.09,-81.66"/>
<polygon fill="#63b8ff" stroke="#63b8ff" points="1250.6,-79.21 1241.34,-74.07 1245.36,-83.87 1250.6,-79.21"/>
</a>
</g>
</g>
<!-- Node27&#45;&gt;Node25 -->
<g id="edge41_Node000027_Node000025" class="edge">
<title>Node27&#45;&gt;Node25</title>
<g id="a_edge41_Node000027_Node000025"><a xlink:title=" ">
<path fill="none" stroke="#63b8ff" d="M1103.9,-219.98C1089.18,-211.69 1066.58,-198.94 1049.33,-189.22"/>
<polygon fill="#63b8ff" stroke="#63b8ff" points="1050.81,-186.03 1040.38,-184.17 1047.37,-192.13 1050.81,-186.03"/>
</a>
</g>
</g>
<!-- Node27&#45;&gt;Node28 -->
<g id="edge42_Node000027_Node000028" class="edge">
<title>Node27&#45;&gt;Node28</title>
<g id="a_edge42_Node000027_Node000028"><a xlink:title=" ">
<path fill="none" stroke="#63b8ff" d="M1134.1,-219.98C1148.82,-211.69 1171.42,-198.94 1188.67,-189.22"/>
<polygon fill="#63b8ff" stroke="#63b8ff" points="1190.63,-192.13 1197.62,-184.17 1187.19,-186.03 1190.63,-192.13"/>
</a>
</g>
</g>
<!-- Node28&#45;&gt;Node7 -->
<g id="edge44_Node000028_Node000007" class="edge">
<title>Node28&#45;&gt;Node7</title>
<g id="a_edge44_Node000028_Node000007"><a xlink:title=" ">
<path fill="none" stroke="#63b8ff" d="M1174.64,-165C1141.61,-157.19 1092.96,-144.49 1052,-129 1033.97,-122.18 1031.52,-115.37 1013,-110 891.5,-74.73 741.57,-67.13 665.42,-65.68"/>
<polygon fill="#63b8ff" stroke="#63b8ff" points="665.24,-62.17 655.18,-65.51 665.12,-69.17 665.24,-62.17"/>
</a>
</g>
</g>
<!-- Node28&#45;&gt;Node26 -->
<g id="edge43_Node000028_Node000026" class="edge">
<title>Node28&#45;&gt;Node26</title>
<g id="a_edge43_Node000028_Node000026"><a xlink:title=" ">
<path fill="none" stroke="#63b8ff" d="M1174.12,-164.98C1130.15,-155.35 1058.78,-139.72 1013.4,-129.79"/>
<polygon fill="#63b8ff" stroke="#63b8ff" points="1014.1,-126.36 1003.58,-127.63 1012.6,-133.19 1014.1,-126.36"/>
</a>
</g>
</g>
<!-- Node29 -->
<g id="Node000029" class="node">
<title>Node29</title>
<g id="a_Node000029"><a xlink:href="ISolver_8h.html" target="_top" xlink:title="Abstract interface for numerical solvers.">
<polygon fill="white" stroke="#666666" points="1250.5,-129 1191.5,-129 1191.5,-110 1250.5,-110 1250.5,-129"/>
<text text-anchor="middle" x="1221" y="-117" font-family="Helvetica,sans-Serif" font-size="10.00">ISolver.h</text>
</a>
</g>
</g>
<!-- Node28&#45;&gt;Node29 -->
<g id="edge45_Node000028_Node000029" class="edge">
<title>Node28&#45;&gt;Node29</title>
<g id="a_edge45_Node000028_Node000029"><a xlink:title=" ">
<path fill="none" stroke="#63b8ff" d="M1214.32,-164.75C1215.37,-157.8 1216.87,-147.85 1218.19,-139.13"/>
<polygon fill="#63b8ff" stroke="#63b8ff" points="1221.67,-139.5 1219.7,-129.09 1214.75,-138.45 1221.67,-139.5"/>
</a>
</g>
</g>
<!-- Node30&#45;&gt;Node3 -->
<g id="edge53_Node000030_Node000003" class="edge">
<title>Node30&#45;&gt;Node3</title>
<g id="a_edge53_Node000030_Node000003"><a xlink:title=" ">
<path fill="none" stroke="#63b8ff" d="M451.02,-219.98C437.53,-211.77 416.87,-199.18 400.96,-189.49"/>
<polygon fill="#63b8ff" stroke="#63b8ff" points="402.59,-186.38 392.23,-184.17 398.95,-192.36 402.59,-186.38"/>
</a>
</g>
</g>
<!-- Node30&#45;&gt;Node7 -->
<g id="edge48_Node000030_Node000007" class="edge">
<title>Node30&#45;&gt;Node7</title>
<g id="a_edge48_Node000030_Node000007"><a xlink:title=" ">
<path fill="none" stroke="#63b8ff" d="M467.8,-219.97C475.11,-198.87 496.59,-143.53 531,-110 545.26,-96.1 564.74,-85.48 581.45,-78.11"/>
<polygon fill="#63b8ff" stroke="#63b8ff" points="583.04,-81.24 590.91,-74.14 580.33,-74.78 583.04,-81.24"/>
</a>
</g>
</g>
<!-- Node30&#45;&gt;Node12 -->
<g id="edge52_Node000030_Node000012" class="edge">
<title>Node30&#45;&gt;Node12</title>
<g id="a_edge52_Node000030_Node000012"><a xlink:title=" ">
<path fill="none" stroke="#63b8ff" d="M428.05,-219.98C388.43,-210.86 325.41,-196.33 282.23,-186.38"/>
<polygon fill="#63b8ff" stroke="#63b8ff" points="282.77,-182.92 272.24,-184.08 281.2,-189.74 282.77,-182.92"/>
</a>
</g>
</g>
<!-- Node31 -->
<g id="Node000031" class="node">
<title>Node31</title>
<g id="a_Node000031"><a xlink:href="AABB_8h.html" target="_top" xlink:title=" ">
<polygon fill="white" stroke="#666666" points="744,-184 634,-184 634,-165 744,-165 744,-184"/>
<text text-anchor="middle" x="689" y="-172" font-family="Helvetica,sans-Serif" font-size="10.00">../bounding/AABB.h</text>
</a>
</g>
</g>
<!-- Node30&#45;&gt;Node31 -->
<g id="edge49_Node000030_Node000031" class="edge">
<title>Node30&#45;&gt;Node31</title>
<g id="a_edge49_Node000030_Node000031"><a xlink:title=" ">
<path fill="none" stroke="#63b8ff" d="M500.99,-219.98C539.49,-210.87 600.69,-196.4 642.74,-186.45"/>
<polygon fill="#63b8ff" stroke="#63b8ff" points="643.8,-189.79 652.73,-184.08 642.19,-182.98 643.8,-189.79"/>
</a>
</g>
</g>
<!-- Node31&#45;&gt;Node7 -->
<g id="edge50_Node000031_Node000007" class="edge">
<title>Node31&#45;&gt;Node7</title>
<g id="a_edge50_Node000031_Node000007"><a xlink:title=" ">
<path fill="none" stroke="#63b8ff" d="M683.03,-164.66C670.94,-146.77 643.38,-106 627.62,-82.69"/>
<polygon fill="#63b8ff" stroke="#63b8ff" points="630.35,-80.48 621.85,-74.16 624.55,-84.4 630.35,-80.48"/>
</a>
</g>
</g>
<!-- Node31&#45;&gt;Node21 -->
<g id="edge51_Node000031_Node000021" class="edge">
<title>Node31&#45;&gt;Node21</title>
<g id="a_edge51_Node000031_Node000021"><a xlink:title=" ">
<path fill="none" stroke="#63b8ff" d="M744.15,-166.14C747.15,-165.75 750.11,-165.37 753,-165 856.74,-151.77 977.23,-137.2 1050.25,-128.45"/>
<polygon fill="#63b8ff" stroke="#63b8ff" points="1050.72,-131.92 1060.23,-127.25 1049.89,-124.97 1050.72,-131.92"/>
</a>
</g>
</g>
</g>
</svg>
