<?xml version="1.0" encoding="UTF-8" standalone="no"?>
<!DOCTYPE svg PUBLIC "-//W3C//DTD SVG 1.1//EN"
 "http://www.w3.org/Graphics/SVG/1.1/DTD/svg11.dtd">
<!-- Generated by graphviz version 2.43.0 (0)
 -->
<!-- Title: src/physics/spatial/Octree.h Pages: 1 -->
<!--zoomable 401 -->

<svg id="main" version="1.1" xmlns="http://www.w3.org/2000/svg" xmlns:xlink="http://www.w3.org/1999/xlink" xml:space="preserve" onload="init(evt)">
<style type="text/css"><![CDATA[
.node, .edge {opacity: 0.7;}
.node.selected, .edge.selected {opacity: 1;}
.edge:hover path { stroke: red; }
.edge:hover polygon { stroke: red; fill: red; }
]]></style>

<defs>
  <circle id="rim" cx="0" cy="0" r="7"/>
  <circle id="rim2" cx="0" cy="0" r="3.5"/>
  <g id="zoomPlus">
    <use xlink:href="#rim" fill="#404040"><set attributeName="fill" to="#808080" begin="zoomplus.mouseover" end="zoomplus.mouseout"/></use>
    <path d="M-4,0h8M0,-4v8" fill="none" stroke="white" stroke-width="1.5" pointer-events="none"/>
  </g>
  <g id="zoomMin">
    <use xlink:href="#rim" fill="#404040"><set attributeName="fill" to="#808080" begin="zoomminus.mouseover" end="zoomminus.mouseout"/></use>
    <path d="M-4,0h8" fill="none" stroke="white" stroke-width="1.5" pointer-events="none"/>
  </g>
  <g id="arrowUp" transform="translate(30 24)">
    <use xlink:href="#rim"/>
    <path pointer-events="none" fill="none" stroke="white" stroke-width="1.5" d="M0,-3.0v7 M-2.5,-0.5L0,-3.0L2.5,-0.5"/>
  </g>
  <g id="arrowRight" transform="rotate(90) translate(36 -43)">
    <use xlink:href="#rim"/>
    <path pointer-events="none" fill="none" stroke="white" stroke-width="1.5" d="M0,-3.0v7 M-2.5,-0.5L0,-3.0L2.5,-0.5"/>
  </g>
  <g id="arrowDown" transform="rotate(180) translate(-30 -48)">
    <use xlink:href="#rim"/>
    <path pointer-events="none" fill="none" stroke="white" stroke-width="1.5" d="M0,-3.0v7 M-2.5,-0.5L0,-3.0L2.5,-0.5"/>
  </g>
  <g id="arrowLeft" transform="rotate(270) translate(-36 17)">
    <use xlink:href="#rim"/>
    <path pointer-events="none" fill="none" stroke="white" stroke-width="1.5" d="M0,-3.0v7 M-2.5,-0.5L0,-3.0L2.5,-0.5"/>
  </g>
  <g id="resetDef">
    <use xlink:href="#rim2" fill="#404040"><set attributeName="fill" to="#808080" begin="reset.mouseover" end="reset.mouseout"/></use>
  </g>
</defs>
<script type="application/ecmascript">
var viewWidth = 2636;
var viewHeight = 401;
var sectionId = 'dynsection-1';
</script>
<script type="application/ecmascript" xlink:href="svg.min.js"/>
<svg id="graph" class="graph">
<g id="viewport">
<title>src/physics/spatial/Octree.h</title>
<!-- Node1 -->
<g id="Node000001" class="node">
<title>Node1</title>
<g id="a_Node000001"><a xlink:title=" ">
<polygon fill="#999999" stroke="#666666" points="620.39,-393 513.39,-393 513.39,-363 620.39,-363 620.39,-393"/>
<text text-anchor="start" x="521.39" y="-381" font-family="Helvetica,sans-Serif" font-size="10.00">src/physics/spatial</text>
<text text-anchor="middle" x="566.89" y="-370" font-family="Helvetica,sans-Serif" font-size="10.00">/Octree.h</text>
</a>
</g>
</g>
<!-- Node2 -->
<g id="Node000002" class="node">
<title>Node2</title>
<g id="a_Node000002"><a xlink:href="PhysicsSystem_8h.html" target="_top" xlink:title=" ">
<polygon fill="white" stroke="#666666" points="591.89,-327 435.89,-327 435.89,-308 591.89,-308 591.89,-327"/>
<text text-anchor="middle" x="513.89" y="-315" font-family="Helvetica,sans-Serif" font-size="10.00">src/physics/PhysicsSystem.h</text>
</a>
</g>
</g>
<!-- Node1&#45;&gt;Node2 -->
<g id="edge1_Node000001_Node000002" class="edge">
<title>Node1&#45;&gt;Node2</title>
<g id="a_edge1_Node000001_Node000002"><a xlink:title=" ">
<path fill="none" stroke="#63b8ff" d="M547.3,-355.38C538.48,-345.64 528.56,-334.69 521.83,-327.27"/>
<polygon fill="#63b8ff" stroke="#63b8ff" points="544.75,-357.78 554.06,-362.84 549.94,-353.08 544.75,-357.78"/>
</a>
</g>
</g>
<!-- Node24 -->
<g id="Node000024" class="node">
<title>Node24</title>
<g id="a_Node000024"><a xlink:href="Octree_8cpp.html" target="_top" xlink:title=" ">
<polygon fill="white" stroke="#666666" points="1281.39,-272 1174.39,-272 1174.39,-242 1281.39,-242 1281.39,-272"/>
<text text-anchor="start" x="1182.39" y="-260" font-family="Helvetica,sans-Serif" font-size="10.00">src/physics/spatial</text>
<text text-anchor="middle" x="1227.89" y="-249" font-family="Helvetica,sans-Serif" font-size="10.00">/Octree.cpp</text>
</a>
</g>
</g>
<!-- Node1&#45;&gt;Node24 -->
<g id="edge48_Node000001_Node000024" class="edge">
<title>Node1&#45;&gt;Node24</title>
<g id="a_edge48_Node000001_Node000024"><a xlink:title=" ">
<path fill="none" stroke="#63b8ff" d="M630.69,-366.3C739.45,-347.93 967.65,-308.8 1159.89,-272 1164.51,-271.12 1169.3,-270.18 1174.1,-269.22"/>
<polygon fill="#63b8ff" stroke="#63b8ff" points="629.82,-362.9 620.54,-368.01 630.98,-369.8 629.82,-362.9"/>
</a>
</g>
</g>
<!-- Node3 -->
<g id="Node000003" class="node">
<title>Node3</title>
<g id="a_Node000003"><a xlink:href="SceneObject_8h.html" target="_top" xlink:title=" ">
<polygon fill="white" stroke="#666666" points="1231.89,-151 1059.89,-151 1059.89,-132 1231.89,-132 1231.89,-151"/>
<text text-anchor="middle" x="1145.89" y="-139" font-family="Helvetica,sans-Serif" font-size="10.00">src/graphics/core/SceneObject.h</text>
</a>
</g>
</g>
<!-- Node2&#45;&gt;Node3 -->
<g id="edge2_Node000002_Node000003" class="edge">
<title>Node2&#45;&gt;Node3</title>
<g id="a_edge2_Node000002_Node000003"><a xlink:title=" ">
<path fill="none" stroke="#63b8ff" d="M554.63,-305.32C587.39,-296.32 634.6,-283.36 675.89,-272 841.35,-226.48 1039.53,-171.83 1114.82,-151.07"/>
<polygon fill="#63b8ff" stroke="#63b8ff" points="553.67,-301.95 544.95,-307.98 555.52,-308.7 553.67,-301.95"/>
</a>
</g>
</g>
<!-- Node19 -->
<g id="Node000019" class="node">
<title>Node19</title>
<g id="a_Node000019"><a xlink:href="InspectorWidget_8cpp.html" target="_top" xlink:title=" ">
<polygon fill="white" stroke="#666666" points="300.39,-96 161.39,-96 161.39,-66 300.39,-66 300.39,-96"/>
<text text-anchor="start" x="169.39" y="-84" font-family="Helvetica,sans-Serif" font-size="10.00">src/ui/inspector/Inspector</text>
<text text-anchor="middle" x="230.89" y="-73" font-family="Helvetica,sans-Serif" font-size="10.00">Widget.cpp</text>
</a>
</g>
</g>
<!-- Node2&#45;&gt;Node19 -->
<g id="edge46_Node000002_Node000019" class="edge">
<title>Node2&#45;&gt;Node19</title>
<g id="a_edge46_Node000002_Node000019"><a xlink:title=" ">
<path fill="none" stroke="#63b8ff" d="M513.44,-297.9C512.09,-281.34 507.65,-257.43 493.89,-242 464.94,-209.54 435.27,-235.05 402.89,-206 375.22,-181.17 391.77,-156.59 363.89,-132 344.65,-115.03 319.09,-103.6 295.52,-96"/>
<polygon fill="#63b8ff" stroke="#63b8ff" points="509.95,-298.18 513.96,-307.98 516.94,-297.82 509.95,-298.18"/>
</a>
</g>
</g>
<!-- Node22 -->
<g id="Node000022" class="node">
<title>Node22</title>
<g id="a_Node000022"><a xlink:href="PhysicsSystem_8cpp.html" target="_top" xlink:title=" ">
<polygon fill="white" stroke="#666666" points="206.39,-266.5 39.39,-266.5 39.39,-247.5 206.39,-247.5 206.39,-266.5"/>
<text text-anchor="middle" x="122.89" y="-254.5" font-family="Helvetica,sans-Serif" font-size="10.00">src/physics/PhysicsSystem.cpp</text>
</a>
</g>
</g>
<!-- Node2&#45;&gt;Node22 -->
<g id="edge22_Node000002_Node000022" class="edge">
<title>Node2&#45;&gt;Node22</title>
<g id="a_edge22_Node000002_Node000022"><a xlink:title=" ">
<path fill="none" stroke="#63b8ff" d="M446.08,-306.47C385.47,-297.49 294.24,-283.94 214.89,-272 203.23,-270.24 190.74,-268.35 178.84,-266.54"/>
<polygon fill="#63b8ff" stroke="#63b8ff" points="445.88,-309.98 456.28,-307.98 446.9,-303.06 445.88,-309.98"/>
</a>
</g>
</g>
<!-- Node23 -->
<g id="Node000023" class="node">
<title>Node23</title>
<g id="a_Node000023"><a xlink:href="ProblemRouter_8cpp.html" target="_top" xlink:title=" ">
<polygon fill="white" stroke="#666666" points="335.89,-272 223.89,-272 223.89,-242 335.89,-242 335.89,-272"/>
<text text-anchor="start" x="231.89" y="-260" font-family="Helvetica,sans-Serif" font-size="10.00">src/physics/solver</text>
<text text-anchor="middle" x="279.89" y="-249" font-family="Helvetica,sans-Serif" font-size="10.00">/ProblemRouter.cpp</text>
</a>
</g>
</g>
<!-- Node2&#45;&gt;Node23 -->
<g id="edge23_Node000002_Node000023" class="edge">
<title>Node2&#45;&gt;Node23</title>
<g id="a_edge23_Node000002_Node000023"><a xlink:title=" ">
<path fill="none" stroke="#63b8ff" d="M470.15,-305.56C432.28,-296.1 377.28,-282.35 336.15,-272.06"/>
<polygon fill="#63b8ff" stroke="#63b8ff" points="469.31,-308.96 479.86,-307.99 471.01,-302.17 469.31,-308.96"/>
</a>
</g>
</g>
<!-- Node2&#45;&gt;Node24 -->
<g id="edge24_Node000002_Node000024" class="edge">
<title>Node2&#45;&gt;Node24</title>
<g id="a_edge24_Node000002_Node000024"><a xlink:title=" ">
<path fill="none" stroke="#63b8ff" d="M602.31,-314.17C727.09,-310.02 961.77,-299.09 1159.89,-272 1164.55,-271.36 1169.36,-270.6 1174.18,-269.75"/>
<polygon fill="#63b8ff" stroke="#63b8ff" points="601.93,-310.68 592.05,-314.5 602.15,-317.67 601.93,-310.68"/>
</a>
</g>
</g>
<!-- Node25 -->
<g id="Node000025" class="node">
<title>Node25</title>
<g id="a_Node000025"><a xlink:href="OpenGLWindow_8cpp.html" target="_top" xlink:title=" ">
<polygon fill="white" stroke="#666666" points="219.89,-151 77.89,-151 77.89,-132 219.89,-132 219.89,-151"/>
<text text-anchor="middle" x="148.89" y="-139" font-family="Helvetica,sans-Serif" font-size="10.00">src/ui/OpenGLWindow.cpp</text>
</a>
</g>
</g>
<!-- Node2&#45;&gt;Node25 -->
<g id="edge25_Node000002_Node000025" class="edge">
<title>Node2&#45;&gt;Node25</title>
<g id="a_edge25_Node000002_Node000025"><a xlink:title=" ">
<path fill="none" stroke="#63b8ff" d="M425.63,-314.69C293.27,-311.06 55.98,-300.59 29.89,-272 -11.78,-226.32 86.93,-171.88 130.01,-151.12"/>
<polygon fill="#63b8ff" stroke="#63b8ff" points="425.67,-318.2 435.76,-314.96 425.86,-311.2 425.67,-318.2"/>
</a>
</g>
</g>
<!-- Node26 -->
<g id="Node000026" class="node">
<title>Node26</title>
<g id="a_Node000026"><a xlink:href="OpenGLWindow_8h.html" target="_top" xlink:title=" ">
<polygon fill="white" stroke="#666666" points="485.39,-266.5 354.39,-266.5 354.39,-247.5 485.39,-247.5 485.39,-266.5"/>
<text text-anchor="middle" x="419.89" y="-254.5" font-family="Helvetica,sans-Serif" font-size="10.00">src/ui/OpenGLWindow.h</text>
</a>
</g>
</g>
<!-- Node2&#45;&gt;Node26 -->
<g id="edge26_Node000002_Node000026" class="edge">
<title>Node2&#45;&gt;Node26</title>
<g id="a_edge26_Node000002_Node000026"><a xlink:title=" ">
<path fill="none" stroke="#63b8ff" d="M491.34,-302.47C473.44,-291.32 448.97,-276.1 433.82,-266.67"/>
<polygon fill="#63b8ff" stroke="#63b8ff" points="489.68,-305.56 500.02,-307.87 493.38,-299.61 489.68,-305.56"/>
</a>
</g>
</g>
<!-- Node31 -->
<g id="Node000031" class="node">
<title>Node31</title>
<g id="a_Node000031"><a xlink:href="PhysicsTests_8cpp.html" target="_top" xlink:title=" ">
<polygon fill="white" stroke="#666666" points="667.39,-266.5 542.39,-266.5 542.39,-247.5 667.39,-247.5 667.39,-266.5"/>
<text text-anchor="middle" x="604.89" y="-254.5" font-family="Helvetica,sans-Serif" font-size="10.00">tests/PhysicsTests.cpp</text>
</a>
</g>
</g>
<!-- Node2&#45;&gt;Node31 -->
<g id="edge47_Node000002_Node000031" class="edge">
<title>Node2&#45;&gt;Node31</title>
<g id="a_edge47_Node000002_Node000031"><a xlink:title=" ">
<path fill="none" stroke="#63b8ff" d="M536.2,-302.16C553.49,-291.05 576.87,-276.01 591.41,-266.67"/>
<polygon fill="#63b8ff" stroke="#63b8ff" points="533.84,-299.52 527.32,-307.87 537.62,-305.4 533.84,-299.52"/>
</a>
</g>
</g>
<!-- Node4 -->
<g id="Node000004" class="node">
<title>Node4</title>
<g id="a_Node000004"><a xlink:href="Gizmo_8cpp.html" target="_top" xlink:title=" ">
<polygon fill="white" stroke="#666666" points="1214.89,-30 1076.89,-30 1076.89,0 1214.89,0 1214.89,-30"/>
<text text-anchor="start" x="1084.89" y="-18" font-family="Helvetica,sans-Serif" font-size="10.00">src/graphics/components</text>
<text text-anchor="middle" x="1145.89" y="-7" font-family="Helvetica,sans-Serif" font-size="10.00">/Gizmo.cpp</text>
</a>
</g>
</g>
<!-- Node3&#45;&gt;Node4 -->
<g id="edge3_Node000003_Node000004" class="edge">
<title>Node3&#45;&gt;Node4</title>
<g id="a_edge3_Node000003_Node000004"><a xlink:title=" ">
<path fill="none" stroke="#63b8ff" d="M1145.89,-121.91C1145.89,-96.83 1145.89,-52.72 1145.89,-30.16"/>
<polygon fill="#63b8ff" stroke="#63b8ff" points="1142.39,-121.94 1145.89,-131.94 1149.39,-121.94 1142.39,-121.94"/>
</a>
</g>
</g>
<!-- Node5 -->
<g id="Node000005" class="node">
<title>Node5</title>
<g id="a_Node000005"><a xlink:href="RotateHandle_8cpp.html" target="_top" xlink:title=" ">
<polygon fill="white" stroke="#666666" points="1311.89,-96 1173.89,-96 1173.89,-66 1311.89,-66 1311.89,-96"/>
<text text-anchor="start" x="1181.89" y="-84" font-family="Helvetica,sans-Serif" font-size="10.00">src/graphics/components</text>
<text text-anchor="middle" x="1242.89" y="-73" font-family="Helvetica,sans-Serif" font-size="10.00">/RotateHandle.cpp</text>
</a>
</g>
</g>
<!-- Node3&#45;&gt;Node5 -->
<g id="edge4_Node000003_Node000005" class="edge">
<title>Node3&#45;&gt;Node5</title>
<g id="a_edge4_Node000003_Node000005"><a xlink:title=" ">
<path fill="none" stroke="#63b8ff" d="M1169.01,-126.55C1184.27,-117.36 1204.18,-105.35 1219.49,-96.11"/>
<polygon fill="#63b8ff" stroke="#63b8ff" points="1166.96,-123.71 1160.2,-131.87 1170.57,-129.7 1166.96,-123.71"/>
</a>
</g>
</g>
<!-- Node6 -->
<g id="Node000006" class="node">
<title>Node6</title>
<g id="a_Node000006"><a xlink:href="ScaleHandle_8h.html" target="_top" xlink:title=" ">
<polygon fill="white" stroke="#666666" points="2457.89,-96 2319.89,-96 2319.89,-66 2457.89,-66 2457.89,-96"/>
<text text-anchor="start" x="2327.89" y="-84" font-family="Helvetica,sans-Serif" font-size="10.00">src/graphics/components</text>
<text text-anchor="middle" x="2388.89" y="-73" font-family="Helvetica,sans-Serif" font-size="10.00">/ScaleHandle.h</text>
</a>
</g>
</g>
<!-- Node3&#45;&gt;Node6 -->
<g id="edge5_Node000003_Node000006" class="edge">
<title>Node3&#45;&gt;Node6</title>
<g id="a_edge5_Node000003_Node000006"><a xlink:title=" ">
<path fill="none" stroke="#63b8ff" d="M1242.05,-132.23C1243.34,-132.15 1244.62,-132.08 1245.89,-132 1718.66,-103.94 1839.93,-145.96 2310.89,-96 2313.76,-95.7 2316.69,-95.35 2319.64,-94.96"/>
<polygon fill="#63b8ff" stroke="#63b8ff" points="1241.8,-128.74 1232.05,-132.9 1242.26,-135.73 1241.8,-128.74"/>
</a>
</g>
</g>
<!-- Node8 -->
<g id="Node000008" class="node">
<title>Node8</title>
<g id="a_Node000008"><a xlink:href="TranslateHandle_8cpp.html" target="_top" xlink:title=" ">
<polygon fill="white" stroke="#666666" points="1467.89,-96 1329.89,-96 1329.89,-66 1467.89,-66 1467.89,-96"/>
<text text-anchor="start" x="1337.89" y="-84" font-family="Helvetica,sans-Serif" font-size="10.00">src/graphics/components</text>
<text text-anchor="middle" x="1398.89" y="-73" font-family="Helvetica,sans-Serif" font-size="10.00">/TranslateHandle.cpp</text>
</a>
</g>
</g>
<!-- Node3&#45;&gt;Node8 -->
<g id="edge8_Node000003_Node000008" class="edge">
<title>Node3&#45;&gt;Node8</title>
<g id="a_edge8_Node000003_Node000008"><a xlink:title=" ">
<path fill="none" stroke="#63b8ff" d="M1192.67,-129.68C1233.62,-120.21 1293.4,-106.39 1338.07,-96.06"/>
<polygon fill="#63b8ff" stroke="#63b8ff" points="1191.63,-126.33 1182.68,-131.99 1193.21,-133.15 1191.63,-126.33"/>
</a>
</g>
</g>
<!-- Node9 -->
<g id="Node000009" class="node">
<title>Node9</title>
<g id="a_Node000009"><a xlink:href="Camera_8cpp.html" target="_top" xlink:title=" ">
<polygon fill="white" stroke="#666666" points="1647.39,-90.5 1486.39,-90.5 1486.39,-71.5 1647.39,-71.5 1647.39,-90.5"/>
<text text-anchor="middle" x="1566.89" y="-78.5" font-family="Helvetica,sans-Serif" font-size="10.00">src/graphics/core/Camera.cpp</text>
</a>
</g>
</g>
<!-- Node3&#45;&gt;Node9 -->
<g id="edge9_Node000003_Node000009" class="edge">
<title>Node3&#45;&gt;Node9</title>
<g id="a_edge9_Node000003_Node000009"><a xlink:title=" ">
<path fill="none" stroke="#63b8ff" d="M1222.27,-130.69C1289.4,-121.95 1389.7,-108.64 1476.89,-96 1488.63,-94.3 1501.21,-92.39 1513.14,-90.55"/>
<polygon fill="#63b8ff" stroke="#63b8ff" points="1221.67,-127.24 1212.2,-131.99 1222.57,-134.18 1221.67,-127.24"/>
</a>
</g>
</g>
<!-- Node10 -->
<g id="Node000010" class="node">
<title>Node10</title>
<g id="a_Node000010"><a xlink:href="Scene_8cpp.html" target="_top" xlink:title=" ">
<polygon fill="white" stroke="#666666" points="2627.89,-90.5 2475.89,-90.5 2475.89,-71.5 2627.89,-71.5 2627.89,-90.5"/>
<text text-anchor="middle" x="2551.89" y="-78.5" font-family="Helvetica,sans-Serif" font-size="10.00">src/graphics/core/Scene.cpp</text>
</a>
</g>
</g>
<!-- Node3&#45;&gt;Node10 -->
<g id="edge10_Node000003_Node000010" class="edge">
<title>Node3&#45;&gt;Node10</title>
<g id="a_edge10_Node000003_Node000010"><a xlink:title=" ">
<path fill="none" stroke="#63b8ff" d="M1242.05,-132.23C1243.34,-132.15 1244.62,-132.07 1245.89,-132 1787.91,-101 1926.51,-148.23 2466.89,-96 2479.99,-94.73 2494.13,-92.68 2507.04,-90.54"/>
<polygon fill="#63b8ff" stroke="#63b8ff" points="1241.81,-128.73 1232.05,-132.87 1242.26,-135.72 1241.81,-128.73"/>
</a>
</g>
</g>
<!-- Node11 -->
<g id="Node000011" class="node">
<title>Node11</title>
<g id="a_Node000011"><a xlink:href="SceneManager_8cpp.html" target="_top" xlink:title=" ">
<polygon fill="white" stroke="#666666" points="752.89,-90.5 558.89,-90.5 558.89,-71.5 752.89,-71.5 752.89,-90.5"/>
<text text-anchor="middle" x="655.89" y="-78.5" font-family="Helvetica,sans-Serif" font-size="10.00">src/graphics/core/SceneManager.cpp</text>
</a>
</g>
</g>
<!-- Node3&#45;&gt;Node11 -->
<g id="edge11_Node000003_Node000011" class="edge">
<title>Node3&#45;&gt;Node11</title>
<g id="a_edge11_Node000003_Node000011"><a xlink:title=" ">
<path fill="none" stroke="#63b8ff" d="M1059.1,-130.84C981.24,-122.08 863.88,-108.64 761.89,-96 748.07,-94.29 733.26,-92.38 719.21,-90.53"/>
<polygon fill="#63b8ff" stroke="#63b8ff" points="1059.02,-134.35 1069.35,-131.99 1059.8,-127.4 1059.02,-134.35"/>
</a>
</g>
</g>
<!-- Node12 -->
<g id="Node000012" class="node">
<title>Node12</title>
<g id="a_Node000012"><a xlink:href="SceneObject_8cpp.html" target="_top" xlink:title=" ">
<polygon fill="white" stroke="#666666" points="540.39,-90.5 357.39,-90.5 357.39,-71.5 540.39,-71.5 540.39,-90.5"/>
<text text-anchor="middle" x="448.89" y="-78.5" font-family="Helvetica,sans-Serif" font-size="10.00">src/graphics/core/SceneObject.cpp</text>
</a>
</g>
</g>
<!-- Node3&#45;&gt;Node12 -->
<g id="edge12_Node000003_Node000012" class="edge">
<title>Node3&#45;&gt;Node12</title>
<g id="a_edge12_Node000003_Node000012"><a xlink:title=" ">
<path fill="none" stroke="#63b8ff" d="M1049.78,-135.2C931.84,-128.26 725.84,-114.74 549.89,-96 535.54,-94.47 520.1,-92.5 505.7,-90.52"/>
<polygon fill="#63b8ff" stroke="#63b8ff" points="1049.68,-138.7 1059.87,-135.79 1050.09,-131.71 1049.68,-138.7"/>
</a>
</g>
</g>
<!-- Node13 -->
<g id="Node000013" class="node">
<title>Node13</title>
<g id="a_Node000013"><a xlink:href="SceneSerializer_8cpp.html" target="_top" xlink:title=" ">
<polygon fill="white" stroke="#666666" points="968.39,-90.5 771.39,-90.5 771.39,-71.5 968.39,-71.5 968.39,-90.5"/>
<text text-anchor="middle" x="869.89" y="-78.5" font-family="Helvetica,sans-Serif" font-size="10.00">src/graphics/core/SceneSerializer.cpp</text>
</a>
</g>
</g>
<!-- Node3&#45;&gt;Node13 -->
<g id="edge13_Node000003_Node000013" class="edge">
<title>Node3&#45;&gt;Node13</title>
<g id="a_edge13_Node000003_Node000013"><a xlink:title=" ">
<path fill="none" stroke="#63b8ff" d="M1095.84,-129.89C1042.55,-118.6 959.25,-100.94 910.07,-90.52"/>
<polygon fill="#63b8ff" stroke="#63b8ff" points="1095.25,-133.34 1105.76,-131.99 1096.7,-126.5 1095.25,-133.34"/>
</a>
</g>
</g>
<!-- Node14 -->
<g id="Node000014" class="node">
<title>Node14</title>
<g id="a_Node000014"><a xlink:href="HierarchyWidget_8h.html" target="_top" xlink:title=" ">
<polygon fill="white" stroke="#666666" points="1802.39,-90.5 1665.39,-90.5 1665.39,-71.5 1802.39,-71.5 1802.39,-90.5"/>
<text text-anchor="middle" x="1733.89" y="-78.5" font-family="Helvetica,sans-Serif" font-size="10.00">src/ui/HierarchyWidget.h</text>
</a>
</g>
</g>
<!-- Node3&#45;&gt;Node14 -->
<g id="edge14_Node000003_Node000014" class="edge">
<title>Node3&#45;&gt;Node14</title>
<g id="a_edge14_Node000003_Node000014"><a xlink:title=" ">
<path fill="none" stroke="#63b8ff" d="M1242.39,-132.21C1387.65,-119.72 1646.75,-97.36 1656.89,-96 1667.93,-94.52 1679.8,-92.55 1690.83,-90.56"/>
<polygon fill="#63b8ff" stroke="#63b8ff" points="1241.8,-128.75 1232.13,-133.09 1242.4,-135.72 1241.8,-128.75"/>
</a>
</g>
</g>
<!-- Node17 -->
<g id="Node000017" class="node">
<title>Node17</title>
<g id="a_Node000017"><a xlink:href="ForcesInspectorWidget_8cpp.html" target="_top" xlink:title=" ">
<polygon fill="white" stroke="#666666" points="1990.89,-96 1820.89,-96 1820.89,-66 1990.89,-66 1990.89,-96"/>
<text text-anchor="start" x="1828.89" y="-84" font-family="Helvetica,sans-Serif" font-size="10.00">src/ui/inspector/ForcesInspector</text>
<text text-anchor="middle" x="1905.89" y="-73" font-family="Helvetica,sans-Serif" font-size="10.00">Widget.cpp</text>
</a>
</g>
</g>
<!-- Node3&#45;&gt;Node17 -->
<g id="edge17_Node000003_Node000017" class="edge">
<title>Node3&#45;&gt;Node17</title>
<g id="a_edge17_Node000003_Node000017"><a xlink:title=" ">
<path fill="none" stroke="#63b8ff" d="M1242.05,-132.29C1243.34,-132.19 1244.62,-132.09 1245.89,-132 1497.26,-113.32 1561.23,-122.59 1811.89,-96 1814.84,-95.69 1817.85,-95.35 1820.88,-94.99"/>
<polygon fill="#63b8ff" stroke="#63b8ff" points="1241.77,-128.8 1232.07,-133.06 1242.3,-135.78 1241.77,-128.8"/>
</a>
</g>
</g>
<!-- Node18 -->
<g id="Node000018" class="node">
<title>Node18</title>
<g id="a_Node000018"><a xlink:href="GlobalsInspectorWidget_8cpp.html" target="_top" xlink:title=" ">
<polygon fill="white" stroke="#666666" points="1117.39,-96 986.39,-96 986.39,-66 1117.39,-66 1117.39,-96"/>
<text text-anchor="start" x="994.39" y="-84" font-family="Helvetica,sans-Serif" font-size="10.00">src/ui/inspector/Globals</text>
<text text-anchor="middle" x="1051.89" y="-73" font-family="Helvetica,sans-Serif" font-size="10.00">InspectorWidget.cpp</text>
</a>
</g>
</g>
<!-- Node3&#45;&gt;Node18 -->
<g id="edge18_Node000003_Node000018" class="edge">
<title>Node3&#45;&gt;Node18</title>
<g id="a_edge18_Node000003_Node000018"><a xlink:title=" ">
<path fill="none" stroke="#63b8ff" d="M1123.48,-126.55C1108.7,-117.36 1089.41,-105.35 1074.57,-96.11"/>
<polygon fill="#63b8ff" stroke="#63b8ff" points="1121.68,-129.56 1132.02,-131.87 1125.38,-123.61 1121.68,-129.56"/>
</a>
</g>
</g>
<!-- Node3&#45;&gt;Node19 -->
<g id="edge19_Node000003_Node000019" class="edge">
<title>Node3&#45;&gt;Node19</title>
<g id="a_edge19_Node000003_Node000019"><a xlink:title=" ">
<path fill="none" stroke="#63b8ff" d="M1049.75,-137.11C899.68,-131.37 600.74,-118.16 347.89,-96 332.5,-94.65 316.02,-92.88 300.42,-91.05"/>
<polygon fill="#63b8ff" stroke="#63b8ff" points="1049.73,-140.61 1059.85,-137.49 1049.99,-133.61 1049.73,-140.61"/>
</a>
</g>
</g>
<!-- Node20 -->
<g id="Node000020" class="node">
<title>Node20</title>
<g id="a_Node000020"><a xlink:href="PhysicsInspectorWidget_8cpp.html" target="_top" xlink:title=" ">
<polygon fill="white" stroke="#666666" points="2140.39,-96 2009.39,-96 2009.39,-66 2140.39,-66 2140.39,-96"/>
<text text-anchor="start" x="2017.39" y="-84" font-family="Helvetica,sans-Serif" font-size="10.00">src/ui/inspector/Physics</text>
<text text-anchor="middle" x="2074.89" y="-73" font-family="Helvetica,sans-Serif" font-size="10.00">InspectorWidget.cpp</text>
</a>
</g>
</g>
<!-- Node3&#45;&gt;Node20 -->
<g id="edge20_Node000003_Node000020" class="edge">
<title>Node3&#45;&gt;Node20</title>
<g id="a_edge20_Node000003_Node000020"><a xlink:title=" ">
<path fill="none" stroke="#63b8ff" d="M1242.05,-132.26C1243.34,-132.17 1244.62,-132.08 1245.89,-132 1580.65,-109.79 1666.66,-134.87 1999.89,-96 2002.92,-95.65 2006,-95.24 2009.12,-94.8"/>
<polygon fill="#63b8ff" stroke="#63b8ff" points="1241.79,-128.77 1232.06,-132.97 1242.28,-135.75 1241.79,-128.77"/>
</a>
</g>
</g>
<!-- Node21 -->
<g id="Node000021" class="node">
<title>Node21</title>
<g id="a_Node000021"><a xlink:href="TransformInspectorWidget_8cpp.html" target="_top" xlink:title=" ">
<polygon fill="white" stroke="#666666" points="2301.39,-96 2158.39,-96 2158.39,-66 2301.39,-66 2301.39,-96"/>
<text text-anchor="start" x="2166.39" y="-84" font-family="Helvetica,sans-Serif" font-size="10.00">src/ui/inspector/Transform</text>
<text text-anchor="middle" x="2229.89" y="-73" font-family="Helvetica,sans-Serif" font-size="10.00">InspectorWidget.cpp</text>
</a>
</g>
</g>
<!-- Node3&#45;&gt;Node21 -->
<g id="edge21_Node000003_Node000021" class="edge">
<title>Node3&#45;&gt;Node21</title>
<g id="a_edge21_Node000003_Node000021"><a xlink:title=" ">
<path fill="none" stroke="#63b8ff" d="M1242.05,-132.24C1243.34,-132.16 1244.62,-132.08 1245.89,-132 1647.21,-106.97 1750.07,-138.75 2149.89,-96 2152.55,-95.72 2155.26,-95.4 2158,-95.05"/>
<polygon fill="#63b8ff" stroke="#63b8ff" points="1241.79,-128.75 1232.06,-132.93 1242.27,-135.74 1241.79,-128.75"/>
</a>
</g>
</g>
<!-- Node6&#45;&gt;Node4 -->
<g id="edge6_Node000006_Node000004" class="edge">
<title>Node6&#45;&gt;Node4</title>
<g id="a_edge6_Node000006_Node000004"><a xlink:title=" ">
<path fill="none" stroke="#63b8ff" d="M2309.55,-65.98C2077.09,-41.72 1428.45,-23.31 1214.94,-17.74"/>
<polygon fill="#63b8ff" stroke="#63b8ff" points="2309.32,-69.48 2319.64,-67.07 2310.07,-62.52 2309.32,-69.48"/>
</a>
</g>
</g>
<!-- Node7 -->
<g id="Node000007" class="node">
<title>Node7</title>
<g id="a_Node000007"><a xlink:href="ScaleHandle_8cpp.html" target="_top" xlink:title=" ">
<polygon fill="white" stroke="#666666" points="2457.89,-30 2319.89,-30 2319.89,0 2457.89,0 2457.89,-30"/>
<text text-anchor="start" x="2327.89" y="-18" font-family="Helvetica,sans-Serif" font-size="10.00">src/graphics/components</text>
<text text-anchor="middle" x="2388.89" y="-7" font-family="Helvetica,sans-Serif" font-size="10.00">/ScaleHandle.cpp</text>
</a>
</g>
</g>
<!-- Node6&#45;&gt;Node7 -->
<g id="edge7_Node000006_Node000007" class="edge">
<title>Node6&#45;&gt;Node7</title>
<g id="a_edge7_Node000006_Node000007"><a xlink:title=" ">
<path fill="none" stroke="#63b8ff" d="M2388.89,-55.54C2388.89,-46.96 2388.89,-37.61 2388.89,-30.16"/>
<polygon fill="#63b8ff" stroke="#63b8ff" points="2385.39,-55.8 2388.89,-65.8 2392.39,-55.8 2385.39,-55.8"/>
</a>
</g>
</g>
<!-- Node15 -->
<g id="Node000015" class="node">
<title>Node15</title>
<g id="a_Node000015"><a xlink:href="HierarchyWidget_8cpp.html" target="_top" xlink:title=" ">
<polygon fill="white" stroke="#666666" points="1807.89,-24.5 1659.89,-24.5 1659.89,-5.5 1807.89,-5.5 1807.89,-24.5"/>
<text text-anchor="middle" x="1733.89" y="-12.5" font-family="Helvetica,sans-Serif" font-size="10.00">src/ui/HierarchyWidget.cpp</text>
</a>
</g>
</g>
<!-- Node14&#45;&gt;Node15 -->
<g id="edge15_Node000014_Node000015" class="edge">
<title>Node14&#45;&gt;Node15</title>
<g id="a_edge15_Node000014_Node000015"><a xlink:title=" ">
<path fill="none" stroke="#63b8ff" d="M1733.89,-61.08C1733.89,-49.13 1733.89,-34.22 1733.89,-24.91"/>
<polygon fill="#63b8ff" stroke="#63b8ff" points="1730.39,-61.37 1733.89,-71.37 1737.39,-61.37 1730.39,-61.37"/>
</a>
</g>
</g>
<!-- Node16 -->
<g id="Node000016" class="node">
<title>Node16</title>
<g id="a_Node000016"><a xlink:href="MainWindow_8cpp.html" target="_top" xlink:title=" ">
<polygon fill="white" stroke="#666666" points="196.89,-24.5 68.89,-24.5 68.89,-5.5 196.89,-5.5 196.89,-24.5"/>
<text text-anchor="middle" x="132.89" y="-12.5" font-family="Helvetica,sans-Serif" font-size="10.00">src/ui/MainWindow.cpp</text>
</a>
</g>
</g>
<!-- Node14&#45;&gt;Node16 -->
<g id="edge16_Node000014_Node000016" class="edge">
<title>Node14&#45;&gt;Node16</title>
<g id="a_edge16_Node000014_Node000016"><a xlink:title=" ">
<path fill="none" stroke="#63b8ff" d="M1683.2,-69.69C1674.46,-68.23 1665.44,-66.91 1656.89,-66 1367.17,-35.08 448.9,-20.37 197.22,-16.85"/>
<polygon fill="#63b8ff" stroke="#63b8ff" points="1682.84,-73.18 1693.29,-71.46 1684.05,-66.29 1682.84,-73.18"/>
</a>
</g>
</g>
<!-- Node26&#45;&gt;Node10 -->
<g id="edge27_Node000026_Node000010" class="edge">
<title>Node26&#45;&gt;Node10</title>
<g id="a_edge27_Node000026_Node000010"><a xlink:title=" ">
<path fill="none" stroke="#63b8ff" d="M494.52,-246.24C507.31,-244.72 520.47,-243.24 532.89,-242 1390.64,-156.54 1611.02,-198.59 2466.89,-96 2479.22,-94.52 2492.48,-92.53 2504.79,-90.52"/>
<polygon fill="#63b8ff" stroke="#63b8ff" points="493.87,-242.79 484.37,-247.47 494.72,-249.74 493.87,-242.79"/>
</a>
</g>
</g>
<!-- Node26&#45;&gt;Node11 -->
<g id="edge28_Node000026_Node000011" class="edge">
<title>Node26&#45;&gt;Node11</title>
<g id="a_edge28_Node000026_Node000011"><a xlink:title=" ">
<path fill="none" stroke="#63b8ff" d="M482.52,-245.73C570.9,-229.79 725.07,-196.16 756.89,-151 777.44,-121.84 727.52,-101.23 690.77,-90.52"/>
<polygon fill="#63b8ff" stroke="#63b8ff" points="481.83,-242.3 472.6,-247.5 483.06,-249.19 481.83,-242.3"/>
</a>
</g>
</g>
<!-- Node26&#45;&gt;Node16 -->
<g id="edge44_Node000026_Node000016" class="edge">
<title>Node26&#45;&gt;Node16</title>
<g id="a_edge44_Node000026_Node000016"><a xlink:title=" ">
<path fill="none" stroke="#63b8ff" d="M363.95,-245.55C285.85,-230.96 153.52,-206.23 152.89,-206 105.94,-188.95 93.49,-182.7 54.89,-151 21.53,-123.6 -16.31,-101.75 7.89,-66 22.96,-43.74 49.71,-31.39 74.62,-24.54"/>
<polygon fill="#63b8ff" stroke="#63b8ff" points="363.65,-249.06 374.13,-247.45 364.94,-242.18 363.65,-249.06"/>
</a>
</g>
</g>
<!-- Node26&#45;&gt;Node25 -->
<g id="edge45_Node000026_Node000025" class="edge">
<title>Node26&#45;&gt;Node25</title>
<g id="a_edge45_Node000026_Node000025"><a xlink:title=" ">
<path fill="none" stroke="#63b8ff" d="M390.25,-243.59C334.9,-220.4 217.11,-171.07 169.5,-151.13"/>
<polygon fill="#63b8ff" stroke="#63b8ff" points="388.95,-246.83 399.52,-247.47 391.65,-240.38 388.95,-246.83"/>
</a>
</g>
</g>
<!-- Node27 -->
<g id="Node000027" class="node">
<title>Node27</title>
<g id="a_Node000027"><a xlink:href="SceneManager_8h.html" target="_top" xlink:title=" ">
<polygon fill="white" stroke="#666666" points="593.89,-206 411.89,-206 411.89,-187 593.89,-187 593.89,-206"/>
<text text-anchor="middle" x="502.89" y="-194" font-family="Helvetica,sans-Serif" font-size="10.00">src/graphics/core/SceneManager.h</text>
</a>
</g>
</g>
<!-- Node26&#45;&gt;Node27 -->
<g id="edge29_Node000026_Node000027" class="edge">
<title>Node26&#45;&gt;Node27</title>
<g id="a_edge29_Node000026_Node000027"><a xlink:title=" ">
<path fill="none" stroke="#63b8ff" d="M440.68,-241.35C456.4,-230.27 477.45,-215.43 490.59,-206.17"/>
<polygon fill="#63b8ff" stroke="#63b8ff" points="438.29,-238.75 432.14,-247.37 442.33,-244.47 438.29,-238.75"/>
</a>
</g>
</g>
<!-- Node30 -->
<g id="Node000030" class="node">
<title>Node30</title>
<g id="a_Node000030"><a xlink:href="main_8cpp.html" target="_top" xlink:title=" ">
<polygon fill="white" stroke="#666666" points="96.39,-90.5 17.39,-90.5 17.39,-71.5 96.39,-71.5 96.39,-90.5"/>
<text text-anchor="middle" x="56.89" y="-78.5" font-family="Helvetica,sans-Serif" font-size="10.00">src/main.cpp</text>
</a>
</g>
</g>
<!-- Node26&#45;&gt;Node30 -->
<g id="edge43_Node000026_Node000030" class="edge">
<title>Node26&#45;&gt;Node30</title>
<g id="a_edge43_Node000026_Node000030"><a xlink:title=" ">
<path fill="none" stroke="#63b8ff" d="M373.76,-245.06C283.28,-223.21 89.53,-174.24 68.89,-151 53.87,-134.09 54.34,-105.33 55.72,-90.86"/>
<polygon fill="#63b8ff" stroke="#63b8ff" points="373.2,-248.53 383.74,-247.47 374.84,-241.72 373.2,-248.53"/>
</a>
</g>
</g>
<!-- Node27&#45;&gt;Node3 -->
<g id="edge33_Node000027_Node000003" class="edge">
<title>Node27&#45;&gt;Node3</title>
<g id="a_edge33_Node000027_Node000003"><a xlink:title=" ">
<path fill="none" stroke="#63b8ff" d="M604,-187.17C729.58,-176.82 941.63,-159.34 1059.8,-149.6"/>
<polygon fill="#63b8ff" stroke="#63b8ff" points="603.67,-183.68 593.99,-187.99 604.25,-190.66 603.67,-183.68"/>
</a>
</g>
</g>
<!-- Node27&#45;&gt;Node4 -->
<g id="edge30_Node000027_Node000004" class="edge">
<title>Node27&#45;&gt;Node4</title>
<g id="a_edge30_Node000027_Node000004"><a xlink:title=" ">
<path fill="none" stroke="#63b8ff" d="M487.25,-179.38C473.19,-165.53 451.48,-145.68 429.89,-132 396.27,-110.7 369.65,-129.32 347.89,-96 340.6,-84.84 338.76,-75.72 347.89,-66 372.67,-39.61 887.04,-23.03 1076.56,-17.79"/>
<polygon fill="#63b8ff" stroke="#63b8ff" points="485.06,-182.13 494.59,-186.75 490.02,-177.2 485.06,-182.13"/>
</a>
</g>
</g>
<!-- Node27&#45;&gt;Node11 -->
<g id="edge31_Node000027_Node000011" class="edge">
<title>Node27&#45;&gt;Node11</title>
<g id="a_edge31_Node000027_Node000011"><a xlink:title=" ">
<path fill="none" stroke="#63b8ff" d="M513.76,-178.08C523.08,-164.22 537.57,-145.07 553.89,-132 577.45,-113.15 609.28,-98.97 631.08,-90.61"/>
<polygon fill="#63b8ff" stroke="#63b8ff" points="510.69,-176.39 508.17,-186.68 516.56,-180.2 510.69,-176.39"/>
</a>
</g>
</g>
<!-- Node27&#45;&gt;Node12 -->
<g id="edge32_Node000027_Node000012" class="edge">
<title>Node27&#45;&gt;Node12</title>
<g id="a_edge32_Node000027_Node000012"><a xlink:title=" ">
<path fill="none" stroke="#63b8ff" d="M494.82,-177.37C489.09,-164.63 481.16,-147.2 473.89,-132 466.94,-117.47 458.49,-100.76 453.41,-90.81"/>
<polygon fill="#63b8ff" stroke="#63b8ff" points="491.77,-179.13 499.05,-186.83 498.16,-176.27 491.77,-179.13"/>
</a>
</g>
</g>
<!-- Node27&#45;&gt;Node18 -->
<g id="edge41_Node000027_Node000018" class="edge">
<title>Node27&#45;&gt;Node18</title>
<g id="a_edge41_Node000027_Node000018"><a xlink:title=" ">
<path fill="none" stroke="#63b8ff" d="M566.56,-185.37C618.04,-176.93 692.33,-164.19 756.89,-151 840.63,-133.89 936.92,-110.7 996.09,-96.04"/>
<polygon fill="#63b8ff" stroke="#63b8ff" points="565.88,-181.93 556.57,-187 567.01,-188.84 565.88,-181.93"/>
</a>
</g>
</g>
<!-- Node27&#45;&gt;Node19 -->
<g id="edge42_Node000027_Node000019" class="edge">
<title>Node27&#45;&gt;Node19</title>
<g id="a_edge42_Node000027_Node000019"><a xlink:title=" ">
<path fill="none" stroke="#63b8ff" d="M482.59,-181.08C462.03,-167.01 428.93,-145.77 397.89,-132 363.58,-116.79 323.33,-104.58 290.94,-96.04"/>
<polygon fill="#63b8ff" stroke="#63b8ff" points="480.63,-183.98 490.84,-186.81 484.62,-178.23 480.63,-183.98"/>
</a>
</g>
</g>
<!-- Node27&#45;&gt;Node25 -->
<g id="edge40_Node000027_Node000025" class="edge">
<title>Node27&#45;&gt;Node25</title>
<g id="a_edge40_Node000027_Node000025"><a xlink:title=" ">
<path fill="none" stroke="#63b8ff" d="M436.06,-185.49C369.59,-175.54 268.72,-160.44 205.92,-151.04"/>
<polygon fill="#63b8ff" stroke="#63b8ff" points="435.61,-188.97 446.01,-186.98 436.64,-182.04 435.61,-188.97"/>
</a>
</g>
</g>
<!-- Node28 -->
<g id="Node000028" class="node">
<title>Node28</title>
<g id="a_Node000028"><a xlink:href="SceneSerializer_8h.html" target="_top" xlink:title=" ">
<polygon fill="white" stroke="#666666" points="748.39,-151 563.39,-151 563.39,-132 748.39,-132 748.39,-151"/>
<text text-anchor="middle" x="655.89" y="-139" font-family="Helvetica,sans-Serif" font-size="10.00">src/graphics/core/SceneSerializer.h</text>
</a>
</g>
</g>
<!-- Node27&#45;&gt;Node28 -->
<g id="edge34_Node000027_Node000028" class="edge">
<title>Node27&#45;&gt;Node28</title>
<g id="a_edge34_Node000027_Node000028"><a xlink:title=" ">
<path fill="none" stroke="#63b8ff" d="M537.04,-183.67C565.57,-173.79 605.58,-159.93 631.12,-151.08"/>
<polygon fill="#63b8ff" stroke="#63b8ff" points="535.78,-180.4 527.47,-186.98 538.07,-187.02 535.78,-180.4"/>
</a>
</g>
</g>
<!-- Node29 -->
<g id="Node000029" class="node">
<title>Node29</title>
<g id="a_Node000029"><a xlink:href="MainWindow_8h.html" target="_top" xlink:title=" ">
<polygon fill="white" stroke="#666666" points="355.39,-151 238.39,-151 238.39,-132 355.39,-132 355.39,-151"/>
<text text-anchor="middle" x="296.89" y="-139" font-family="Helvetica,sans-Serif" font-size="10.00">src/ui/MainWindow.h</text>
</a>
</g>
</g>
<!-- Node27&#45;&gt;Node29 -->
<g id="edge37_Node000027_Node000029" class="edge">
<title>Node27&#45;&gt;Node29</title>
<g id="a_edge37_Node000027_Node000029"><a xlink:title=" ">
<path fill="none" stroke="#63b8ff" d="M459.89,-184.44C421.33,-174.52 365.53,-160.16 330.25,-151.08"/>
<polygon fill="#63b8ff" stroke="#63b8ff" points="459.24,-187.88 469.79,-186.98 460.98,-181.1 459.24,-187.88"/>
</a>
</g>
</g>
<!-- Node28&#45;&gt;Node11 -->
<g id="edge35_Node000028_Node000011" class="edge">
<title>Node28&#45;&gt;Node11</title>
<g id="a_edge35_Node000028_Node000011"><a xlink:title=" ">
<path fill="none" stroke="#63b8ff" d="M655.89,-121.66C655.89,-111.24 655.89,-98.8 655.89,-90.67"/>
<polygon fill="#63b8ff" stroke="#63b8ff" points="652.39,-121.87 655.89,-131.87 659.39,-121.87 652.39,-121.87"/>
</a>
</g>
</g>
<!-- Node28&#45;&gt;Node13 -->
<g id="edge36_Node000028_Node000013" class="edge">
<title>Node28&#45;&gt;Node13</title>
<g id="a_edge36_Node000028_Node000013"><a xlink:title=" ">
<path fill="none" stroke="#63b8ff" d="M696.77,-129.32C738.16,-118.01 801.24,-100.77 838.74,-90.52"/>
<polygon fill="#63b8ff" stroke="#63b8ff" points="695.73,-125.98 687.01,-131.99 697.58,-132.73 695.73,-125.98"/>
</a>
</g>
</g>
<!-- Node29&#45;&gt;Node16 -->
<g id="edge39_Node000029_Node000016" class="edge">
<title>Node29&#45;&gt;Node16</title>
<g id="a_edge39_Node000029_Node000016"><a xlink:title=" ">
<path fill="none" stroke="#63b8ff" d="M242.9,-129.79C207.14,-121.63 164.57,-109.52 151.89,-96 133.15,-76 131.83,-41 132.34,-24.75"/>
<polygon fill="#63b8ff" stroke="#63b8ff" points="242.26,-133.23 252.78,-131.98 243.78,-126.4 242.26,-133.23"/>
</a>
</g>
</g>
<!-- Node29&#45;&gt;Node30 -->
<g id="edge38_Node000029_Node000030" class="edge">
<title>Node29&#45;&gt;Node30</title>
<g id="a_edge38_Node000029_Node000030"><a xlink:title=" ">
<path fill="none" stroke="#63b8ff" d="M252.21,-129.61C205.83,-118.3 134.24,-100.85 91.83,-90.52"/>
<polygon fill="#63b8ff" stroke="#63b8ff" points="251.45,-133.03 261.99,-131.99 253.11,-126.22 251.45,-133.03"/>
</a>
</g>
</g>
</g>
</svg>

<g id="navigator" transform="translate(0 0)" fill="#404254">
  <rect fill="#f2f5e9" fill-opacity="0.5" stroke="#606060" stroke-width=".5" x="0" y="0" width="60" height="60"/>
  <use id="zoomplus" xlink:href="#zoomPlus" x="17" y="9" onmousedown="handleZoom(evt,'in')"/>
  <use id="zoomminus" xlink:href="#zoomMin" x="42" y="9" onmousedown="handleZoom(evt,'out')"/>
  <use id="reset" xlink:href="#resetDef" x="30" y="36" onmousedown="handleReset()"/>
   <use id="arrowup" xlink:href="#arrowUp" x="0" y="0" onmousedown="handlePan(0,-1)"/>
  <use id="arrowright" xlink:href="#arrowRight" x="0" y="0" onmousedown="handlePan(1,0)"/>
  <use id="arrowdown" xlink:href="#arrowDown" x="0" y="0" onmousedown="handlePan(0,1)"/>
  <use id="arrowleft" xlink:href="#arrowLeft" x="0" y="0" onmousedown="handlePan(-1,0)"/>
</g>
<svg viewBox="0 0 15 15" width="100%" height="30px" preserveAspectRatio="xMaxYMin meet">
 <g id="arrow_out" transform="scale(0.3 0.3)">
  <a xlink:href="Octree_8h__dep__incl_org.svg" target="_base">
   <rect id="button" ry="5" rx="5" y="6" x="6" height="38" width="38"
        fill="#f2f5e9" fill-opacity="0.5" stroke="#606060" stroke-width="1.0"/>
   <path id="arrow"
     d="M 11.500037,31.436501 C 11.940474,20.09759 22.043105,11.32322 32.158766,21.979434 L 37.068811,17.246167 C 37.068811,17.246167 37.088388,32 37.088388,32 L 22.160133,31.978069 C 22.160133,31.978069 26.997745,27.140456 26.997745,27.140456 C 18.528582,18.264221 13.291696,25.230495 11.500037,31.436501 z"
     style="fill:#404040;"/>
  </a>
 </g>
</svg>

<style type='text/css'>
<![CDATA[
[data-mouse-over-selected='false'] { opacity: 0.7; }
[data-mouse-over-selected='true']  { opacity: 1.0; }
]]>
</style>
<script type="application/ecmascript"><![CDATA[
document.addEventListener('DOMContentLoaded', (event) => {
  highlightEdges();
  highlightAdjacentNodes();
});
]]></script>
</svg>
