<?xml version="1.0" encoding="UTF-8" standalone="no"?>
<!DOCTYPE svg PUBLIC "-//W3C//DTD SVG 1.1//EN"
 "http://www.w3.org/Graphics/SVG/1.1/DTD/svg11.dtd">
<!-- Generated by graphviz version 2.43.0 (0)
 -->
<!-- Title: src/physics/solver/OneUnknownSolver.h Pages: 1 -->
<svg width="3000pt" height="412pt"
 viewBox="0.00 0.00 2999.50 412.00" xmlns="http://www.w3.org/2000/svg" xmlns:xlink="http://www.w3.org/1999/xlink">
<g id="graph0" class="graph" transform="scale(1 1) rotate(0) translate(4 408)">
<title>src/physics/solver/OneUnknownSolver.h</title>
<!-- Node1 -->
<g id="Node000001" class="node">
<title>Node1</title>
<g id="a_Node000001"><a xlink:title=" ">
<polygon fill="#999999" stroke="#666666" points="2340.5,-404 2216.5,-404 2216.5,-374 2340.5,-374 2340.5,-404"/>
<text text-anchor="start" x="2224.5" y="-392" font-family="Helvetica,sans-Serif" font-size="10.00">src/physics/solver</text>
<text text-anchor="middle" x="2278.5" y="-381" font-family="Helvetica,sans-Serif" font-size="10.00">/OneUnknownSolver.h</text>
</a>
</g>
</g>
<!-- Node2 -->
<g id="Node000002" class="node">
<title>Node2</title>
<g id="a_Node000002"><a xlink:href="PhysicsSystem_8cpp.html" target="_top" xlink:title=" ">
<polygon fill="white" stroke="#666666" points="1365,-211.5 1198,-211.5 1198,-192.5 1365,-192.5 1365,-211.5"/>
<text text-anchor="middle" x="1281.5" y="-199.5" font-family="Helvetica,sans-Serif" font-size="10.00">src/physics/PhysicsSystem.cpp</text>
</a>
</g>
</g>
<!-- Node1&#45;&gt;Node2 -->
<g id="edge1_Node000001_Node000002" class="edge">
<title>Node1&#45;&gt;Node2</title>
<g id="a_edge1_Node000001_Node000002"><a xlink:title=" ">
<path fill="none" stroke="#63b8ff" d="M2206.05,-374.56C2012.27,-338.6 1485.99,-240.95 1327.36,-211.51"/>
<polygon fill="#63b8ff" stroke="#63b8ff" points="2205.66,-378.04 2216.13,-376.43 2206.94,-371.16 2205.66,-378.04"/>
</a>
</g>
</g>
<!-- Node3 -->
<g id="Node000003" class="node">
<title>Node3</title>
<g id="a_Node000003"><a xlink:href="PhysicsSystem_8h.html" target="_top" xlink:title=" ">
<polygon fill="white" stroke="#666666" points="2372.5,-272 2216.5,-272 2216.5,-253 2372.5,-253 2372.5,-272"/>
<text text-anchor="middle" x="2294.5" y="-260" font-family="Helvetica,sans-Serif" font-size="10.00">src/physics/PhysicsSystem.h</text>
</a>
</g>
</g>
<!-- Node1&#45;&gt;Node3 -->
<g id="edge2_Node000001_Node000003" class="edge">
<title>Node1&#45;&gt;Node3</title>
<g id="a_edge2_Node000001_Node000003"><a xlink:title=" ">
<path fill="none" stroke="#63b8ff" d="M2261.32,-365.68C2251.07,-349.51 2241.48,-327.21 2249.5,-308 2255.85,-292.79 2270.21,-280.13 2281.01,-272.25"/>
<polygon fill="#63b8ff" stroke="#63b8ff" points="2258.45,-367.68 2266.98,-373.97 2264.24,-363.74 2258.45,-367.68"/>
</a>
</g>
</g>
<!-- Node36 -->
<g id="Node000036" class="node">
<title>Node36</title>
<g id="a_Node000036"><a xlink:href="OneUnknownSolver_8cpp.html" target="_top" xlink:title=" ">
<polygon fill="white" stroke="#666666" points="2394,-338 2259,-338 2259,-308 2394,-308 2394,-338"/>
<text text-anchor="start" x="2267" y="-326" font-family="Helvetica,sans-Serif" font-size="10.00">src/physics/solver</text>
<text text-anchor="middle" x="2326.5" y="-315" font-family="Helvetica,sans-Serif" font-size="10.00">/OneUnknownSolver.cpp</text>
</a>
</g>
</g>
<!-- Node1&#45;&gt;Node36 -->
<g id="edge54_Node000001_Node000036" class="edge">
<title>Node1&#45;&gt;Node36</title>
<g id="a_edge54_Node000001_Node000036"><a xlink:title=" ">
<path fill="none" stroke="#63b8ff" d="M2295.36,-365.53C2302.18,-356.43 2309.85,-346.19 2315.88,-338.16"/>
<polygon fill="#63b8ff" stroke="#63b8ff" points="2292.35,-363.7 2289.15,-373.8 2297.95,-367.9 2292.35,-363.7"/>
</a>
</g>
</g>
<!-- Node37 -->
<g id="Node000037" class="node">
<title>Node37</title>
<g id="a_Node000037"><a xlink:href="ProblemRouter_8h.html" target="_top" xlink:title=" ">
<polygon fill="white" stroke="#666666" points="2516.5,-338 2412.5,-338 2412.5,-308 2516.5,-308 2516.5,-338"/>
<text text-anchor="start" x="2420.5" y="-326" font-family="Helvetica,sans-Serif" font-size="10.00">src/physics/solver</text>
<text text-anchor="middle" x="2464.5" y="-315" font-family="Helvetica,sans-Serif" font-size="10.00">/ProblemRouter.h</text>
</a>
</g>
</g>
<!-- Node1&#45;&gt;Node37 -->
<g id="edge55_Node000001_Node000037" class="edge">
<title>Node1&#45;&gt;Node37</title>
<g id="a_edge55_Node000001_Node000037"><a xlink:title=" ">
<path fill="none" stroke="#63b8ff" d="M2329.1,-370.59C2358.84,-360.36 2395.94,-347.59 2423.78,-338.01"/>
<polygon fill="#63b8ff" stroke="#63b8ff" points="2327.64,-367.39 2319.32,-373.95 2329.91,-374.01 2327.64,-367.39"/>
</a>
</g>
</g>
<!-- Node3&#45;&gt;Node2 -->
<g id="edge47_Node000003_Node000002" class="edge">
<title>Node3&#45;&gt;Node2</title>
<g id="a_edge47_Node000003_Node000002"><a xlink:title=" ">
<path fill="none" stroke="#63b8ff" d="M2206.19,-259.99C2042.58,-256.58 1681.4,-246.15 1378.5,-217 1364.02,-215.61 1348.39,-213.58 1334,-211.5"/>
<polygon fill="#63b8ff" stroke="#63b8ff" points="2206.14,-263.49 2216.2,-260.2 2206.28,-256.49 2206.14,-263.49"/>
</a>
</g>
</g>
<!-- Node4 -->
<g id="Node000004" class="node">
<title>Node4</title>
<g id="a_Node000004"><a xlink:href="SceneManager_8h.html" target="_top" xlink:title=" ">
<polygon fill="white" stroke="#666666" points="2504.5,-211.5 2322.5,-211.5 2322.5,-192.5 2504.5,-192.5 2504.5,-211.5"/>
<text text-anchor="middle" x="2413.5" y="-199.5" font-family="Helvetica,sans-Serif" font-size="10.00">src/graphics/core/SceneManager.h</text>
</a>
</g>
</g>
<!-- Node3&#45;&gt;Node4 -->
<g id="edge3_Node000003_Node000004" class="edge">
<title>Node3&#45;&gt;Node4</title>
<g id="a_edge3_Node000003_Node000004"><a xlink:title=" ">
<path fill="none" stroke="#63b8ff" d="M2320.98,-248.48C2343.91,-237.21 2376.43,-221.23 2396.18,-211.52"/>
<polygon fill="#63b8ff" stroke="#63b8ff" points="2319.23,-245.44 2311.8,-252.99 2322.32,-251.72 2319.23,-245.44"/>
</a>
</g>
</g>
<!-- Node8 -->
<g id="Node000008" class="node">
<title>Node8</title>
<g id="a_Node000008"><a xlink:href="SceneObject_8h.html" target="_top" xlink:title=" ">
<polygon fill="white" stroke="#666666" points="1630.5,-151 1458.5,-151 1458.5,-132 1630.5,-132 1630.5,-151"/>
<text text-anchor="middle" x="1544.5" y="-139" font-family="Helvetica,sans-Serif" font-size="10.00">src/graphics/core/SceneObject.h</text>
</a>
</g>
</g>
<!-- Node3&#45;&gt;Node8 -->
<g id="edge46_Node000003_Node000008" class="edge">
<title>Node3&#45;&gt;Node8</title>
<g id="a_edge46_Node000003_Node000008"><a xlink:title=" ">
<path fill="none" stroke="#63b8ff" d="M2295.15,-242.82C2294.64,-225.46 2290.84,-200.34 2274.5,-187 2272.95,-185.74 1823.25,-158.99 1630.53,-147.58"/>
<polygon fill="#63b8ff" stroke="#63b8ff" points="2291.65,-242.89 2295.11,-252.91 2298.65,-242.92 2291.65,-242.89"/>
</a>
</g>
</g>
<!-- Node25 -->
<g id="Node000025" class="node">
<title>Node25</title>
<g id="a_Node000025"><a xlink:href="GlobalsInspectorWidget_8cpp.html" target="_top" xlink:title=" ">
<polygon fill="white" stroke="#666666" points="2785,-96 2654,-96 2654,-66 2785,-66 2785,-96"/>
<text text-anchor="start" x="2662" y="-84" font-family="Helvetica,sans-Serif" font-size="10.00">src/ui/inspector/Globals</text>
<text text-anchor="middle" x="2719.5" y="-73" font-family="Helvetica,sans-Serif" font-size="10.00">InspectorWidget.cpp</text>
</a>
</g>
</g>
<!-- Node3&#45;&gt;Node25 -->
<g id="edge51_Node000003_Node000025" class="edge">
<title>Node3&#45;&gt;Node25</title>
<g id="a_edge51_Node000003_Node000025"><a xlink:title=" ">
<path fill="none" stroke="#63b8ff" d="M2382.56,-251.4C2423.45,-244.77 2472.07,-234.05 2513.5,-217 2590.41,-185.36 2669.37,-123.87 2702.86,-96.15"/>
<polygon fill="#63b8ff" stroke="#63b8ff" points="2381.95,-247.96 2372.62,-252.96 2383.04,-254.87 2381.95,-247.96"/>
</a>
</g>
</g>
<!-- Node26 -->
<g id="Node000026" class="node">
<title>Node26</title>
<g id="a_Node000026"><a xlink:href="InspectorWidget_8cpp.html" target="_top" xlink:title=" ">
<polygon fill="white" stroke="#666666" points="139,-96 0,-96 0,-66 139,-66 139,-96"/>
<text text-anchor="start" x="8" y="-84" font-family="Helvetica,sans-Serif" font-size="10.00">src/ui/inspector/Inspector</text>
<text text-anchor="middle" x="69.5" y="-73" font-family="Helvetica,sans-Serif" font-size="10.00">Widget.cpp</text>
</a>
</g>
</g>
<!-- Node3&#45;&gt;Node26 -->
<g id="edge52_Node000003_Node000026" class="edge">
<title>Node3&#45;&gt;Node26</title>
<g id="a_edge52_Node000003_Node000026"><a xlink:title=" ">
<path fill="none" stroke="#63b8ff" d="M2206.24,-254.17C2042.24,-240.58 1679.37,-210.73 1373.5,-187 829.19,-144.77 690.2,-163.94 148.5,-96 145.46,-95.62 142.36,-95.2 139.23,-94.75"/>
<polygon fill="#63b8ff" stroke="#63b8ff" points="2206.02,-257.66 2216.28,-255 2206.6,-250.68 2206.02,-257.66"/>
</a>
</g>
</g>
<!-- Node32 -->
<g id="Node000032" class="node">
<title>Node32</title>
<g id="a_Node000032"><a xlink:href="OpenGLWindow_8cpp.html" target="_top" xlink:title=" ">
<polygon fill="white" stroke="#666666" points="2991.5,-151 2849.5,-151 2849.5,-132 2991.5,-132 2991.5,-151"/>
<text text-anchor="middle" x="2920.5" y="-139" font-family="Helvetica,sans-Serif" font-size="10.00">src/ui/OpenGLWindow.cpp</text>
</a>
</g>
</g>
<!-- Node3&#45;&gt;Node32 -->
<g id="edge50_Node000003_Node000032" class="edge">
<title>Node3&#45;&gt;Node32</title>
<g id="a_edge50_Node000003_Node000032"><a xlink:title=" ">
<path fill="none" stroke="#63b8ff" d="M2382.87,-256.9C2484.16,-250.74 2643.4,-238.07 2699.5,-217 2721.31,-208.81 2721.29,-196.65 2742.5,-187 2781.5,-169.25 2828.65,-157.87 2864.63,-151.06"/>
<polygon fill="#63b8ff" stroke="#63b8ff" points="2382.42,-253.42 2372.65,-257.52 2382.84,-260.41 2382.42,-253.42"/>
</a>
</g>
</g>
<!-- Node33 -->
<g id="Node000033" class="node">
<title>Node33</title>
<g id="a_Node000033"><a xlink:href="ProblemRouter_8cpp.html" target="_top" xlink:title=" ">
<polygon fill="white" stroke="#666666" points="2863.5,-217 2751.5,-217 2751.5,-187 2863.5,-187 2863.5,-217"/>
<text text-anchor="start" x="2759.5" y="-205" font-family="Helvetica,sans-Serif" font-size="10.00">src/physics/solver</text>
<text text-anchor="middle" x="2807.5" y="-194" font-family="Helvetica,sans-Serif" font-size="10.00">/ProblemRouter.cpp</text>
</a>
</g>
</g>
<!-- Node3&#45;&gt;Node33 -->
<g id="edge48_Node000003_Node000033" class="edge">
<title>Node3&#45;&gt;Node33</title>
<g id="a_edge48_Node000003_Node000033"><a xlink:title=" ">
<path fill="none" stroke="#63b8ff" d="M2382.93,-255.16C2472.58,-248.14 2615.13,-235.34 2737.5,-217 2742.03,-216.32 2746.72,-215.54 2751.42,-214.72"/>
<polygon fill="#63b8ff" stroke="#63b8ff" points="2382.51,-251.69 2372.81,-255.95 2383.05,-258.66 2382.51,-251.69"/>
</a>
</g>
</g>
<!-- Node34 -->
<g id="Node000034" class="node">
<title>Node34</title>
<g id="a_Node000034"><a xlink:href="Octree_8cpp.html" target="_top" xlink:title=" ">
<polygon fill="white" stroke="#666666" points="2123,-217 2016,-217 2016,-187 2123,-187 2123,-217"/>
<text text-anchor="start" x="2024" y="-205" font-family="Helvetica,sans-Serif" font-size="10.00">src/physics/spatial</text>
<text text-anchor="middle" x="2069.5" y="-194" font-family="Helvetica,sans-Serif" font-size="10.00">/Octree.cpp</text>
</a>
</g>
</g>
<!-- Node3&#45;&gt;Node34 -->
<g id="edge49_Node000003_Node000034" class="edge">
<title>Node3&#45;&gt;Node34</title>
<g id="a_edge49_Node000003_Node000034"><a xlink:title=" ">
<path fill="none" stroke="#63b8ff" d="M2251.94,-250.43C2215.41,-240.94 2162.58,-227.2 2123.16,-216.95"/>
<polygon fill="#63b8ff" stroke="#63b8ff" points="2251.22,-253.86 2261.78,-252.99 2252.99,-247.09 2251.22,-253.86"/>
</a>
</g>
</g>
<!-- Node35 -->
<g id="Node000035" class="node">
<title>Node35</title>
<g id="a_Node000035"><a xlink:href="PhysicsTests_8cpp.html" target="_top" xlink:title=" ">
<polygon fill="white" stroke="#666666" points="2266,-211.5 2141,-211.5 2141,-192.5 2266,-192.5 2266,-211.5"/>
<text text-anchor="middle" x="2203.5" y="-199.5" font-family="Helvetica,sans-Serif" font-size="10.00">tests/PhysicsTests.cpp</text>
</a>
</g>
</g>
<!-- Node3&#45;&gt;Node35 -->
<g id="edge53_Node000003_Node000035" class="edge">
<title>Node3&#45;&gt;Node35</title>
<g id="a_edge53_Node000003_Node000035"><a xlink:title=" ">
<path fill="none" stroke="#63b8ff" d="M2272.19,-247.16C2254.9,-236.05 2231.52,-221.01 2216.98,-211.67"/>
<polygon fill="#63b8ff" stroke="#63b8ff" points="2270.77,-250.4 2281.07,-252.87 2274.55,-244.52 2270.77,-250.4"/>
</a>
</g>
</g>
<!-- Node5 -->
<g id="Node000005" class="node">
<title>Node5</title>
<g id="a_Node000005"><a xlink:href="Gizmo_8cpp.html" target="_top" xlink:title=" ">
<polygon fill="white" stroke="#666666" points="898.5,-30 760.5,-30 760.5,0 898.5,0 898.5,-30"/>
<text text-anchor="start" x="768.5" y="-18" font-family="Helvetica,sans-Serif" font-size="10.00">src/graphics/components</text>
<text text-anchor="middle" x="829.5" y="-7" font-family="Helvetica,sans-Serif" font-size="10.00">/Gizmo.cpp</text>
</a>
</g>
</g>
<!-- Node4&#45;&gt;Node5 -->
<g id="edge4_Node000004_Node000005" class="edge">
<title>Node4&#45;&gt;Node5</title>
<g id="a_edge4_Node000004_Node000005"><a xlink:title=" ">
<path fill="none" stroke="#63b8ff" d="M2341.41,-191.04C2186.61,-169.36 1832.29,-118.08 1781.5,-96 1761.45,-87.28 1763,-73.61 1742.5,-66 1664.22,-36.96 1098.03,-21.88 898.7,-17.43"/>
<polygon fill="#63b8ff" stroke="#63b8ff" points="2341.37,-194.57 2351.76,-192.49 2342.34,-187.64 2341.37,-194.57"/>
</a>
</g>
</g>
<!-- Node6 -->
<g id="Node000006" class="node">
<title>Node6</title>
<g id="a_Node000006"><a xlink:href="SceneManager_8cpp.html" target="_top" xlink:title=" ">
<polygon fill="white" stroke="#666666" points="2067.5,-24.5 1873.5,-24.5 1873.5,-5.5 2067.5,-5.5 2067.5,-24.5"/>
<text text-anchor="middle" x="1970.5" y="-12.5" font-family="Helvetica,sans-Serif" font-size="10.00">src/graphics/core/SceneManager.cpp</text>
</a>
</g>
</g>
<!-- Node4&#45;&gt;Node6 -->
<g id="edge5_Node000004_Node000006" class="edge">
<title>Node4&#45;&gt;Node6</title>
<g id="a_edge5_Node000004_Node000006"><a xlink:title=" ">
<path fill="none" stroke="#63b8ff" d="M2417.09,-182C2421.44,-152.59 2424.71,-96.31 2393.5,-66 2387.45,-60.12 2175.05,-37.22 2053.59,-24.54"/>
<polygon fill="#63b8ff" stroke="#63b8ff" points="2413.59,-181.72 2415.38,-192.16 2420.49,-182.88 2413.59,-181.72"/>
</a>
</g>
</g>
<!-- Node7 -->
<g id="Node000007" class="node">
<title>Node7</title>
<g id="a_Node000007"><a xlink:href="SceneObject_8cpp.html" target="_top" xlink:title=" ">
<polygon fill="white" stroke="#666666" points="1734,-90.5 1551,-90.5 1551,-71.5 1734,-71.5 1734,-90.5"/>
<text text-anchor="middle" x="1642.5" y="-78.5" font-family="Helvetica,sans-Serif" font-size="10.00">src/graphics/core/SceneObject.cpp</text>
</a>
</g>
</g>
<!-- Node4&#45;&gt;Node7 -->
<g id="edge6_Node000004_Node000007" class="edge">
<title>Node4&#45;&gt;Node7</title>
<g id="a_edge6_Node000004_Node000007"><a xlink:title=" ">
<path fill="none" stroke="#63b8ff" d="M2338.03,-191.29C2324.55,-189.72 2310.62,-188.22 2297.5,-187 2175.76,-175.67 1864.51,-189.61 1748.5,-151 1708.71,-137.76 1669.29,-105.87 1651.83,-90.52"/>
<polygon fill="#63b8ff" stroke="#63b8ff" points="2337.89,-194.79 2348.23,-192.49 2338.71,-187.84 2337.89,-194.79"/>
</a>
</g>
</g>
<!-- Node4&#45;&gt;Node8 -->
<g id="edge7_Node000004_Node000008" class="edge">
<title>Node4&#45;&gt;Node8</title>
<g id="a_edge7_Node000004_Node000008"><a xlink:title=" ">
<path fill="none" stroke="#63b8ff" d="M2345.37,-191.17C2333.12,-189.61 2320.44,-188.14 2308.5,-187 2033.73,-160.74 1964.05,-167.13 1688.5,-151 1669.75,-149.9 1649.63,-148.72 1630.54,-147.59"/>
<polygon fill="#63b8ff" stroke="#63b8ff" points="2345.18,-194.67 2355.55,-192.49 2346.08,-187.73 2345.18,-194.67"/>
</a>
</g>
</g>
<!-- Node16 -->
<g id="Node000016" class="node">
<title>Node16</title>
<g id="a_Node000016"><a xlink:href="Colliders_8cpp.html" target="_top" xlink:title=" ">
<polygon fill="white" stroke="#666666" points="2366.5,-96 2258.5,-96 2258.5,-66 2366.5,-66 2366.5,-96"/>
<text text-anchor="start" x="2266.5" y="-84" font-family="Helvetica,sans-Serif" font-size="10.00">src/graphics/debug</text>
<text text-anchor="middle" x="2312.5" y="-73" font-family="Helvetica,sans-Serif" font-size="10.00">/Colliders.cpp</text>
</a>
</g>
</g>
<!-- Node4&#45;&gt;Node16 -->
<g id="edge37_Node000004_Node000016" class="edge">
<title>Node4&#45;&gt;Node16</title>
<g id="a_edge37_Node000004_Node000016"><a xlink:title=" ">
<path fill="none" stroke="#63b8ff" d="M2405.9,-182.79C2399.23,-168.12 2388.57,-147.47 2375.5,-132 2363.69,-118.03 2347.47,-105.26 2334.45,-96.13"/>
<polygon fill="#63b8ff" stroke="#63b8ff" points="2402.82,-184.49 2410.03,-192.26 2409.24,-181.69 2402.82,-184.49"/>
</a>
</g>
</g>
<!-- Node18 -->
<g id="Node000018" class="node">
<title>Node18</title>
<g id="a_Node000018"><a xlink:href="Forces_8cpp.html" target="_top" xlink:title=" ">
<polygon fill="white" stroke="#666666" points="2232.5,-30 2124.5,-30 2124.5,0 2232.5,0 2232.5,-30"/>
<text text-anchor="start" x="2132.5" y="-18" font-family="Helvetica,sans-Serif" font-size="10.00">src/graphics/debug</text>
<text text-anchor="middle" x="2178.5" y="-7" font-family="Helvetica,sans-Serif" font-size="10.00">/Forces.cpp</text>
</a>
</g>
</g>
<!-- Node4&#45;&gt;Node18 -->
<g id="edge38_Node000004_Node000018" class="edge">
<title>Node4&#45;&gt;Node18</title>
<g id="a_edge38_Node000004_Node000018"><a xlink:title=" ">
<path fill="none" stroke="#63b8ff" d="M2428.03,-184.4C2435.09,-175.23 2442.83,-163.23 2446.5,-151 2457.36,-114.82 2470.64,-95.06 2446.5,-66 2432.95,-49.68 2306.98,-31.7 2232.67,-22.39"/>
<polygon fill="#63b8ff" stroke="#63b8ff" points="2425.23,-182.29 2421.62,-192.25 2430.66,-186.72 2425.23,-182.29"/>
</a>
</g>
</g>
<!-- Node20 -->
<g id="Node000020" class="node">
<title>Node20</title>
<g id="a_Node000020"><a xlink:href="PathTraces_8cpp.html" target="_top" xlink:title=" ">
<polygon fill="white" stroke="#666666" points="2436.5,-30 2328.5,-30 2328.5,0 2436.5,0 2436.5,-30"/>
<text text-anchor="start" x="2336.5" y="-18" font-family="Helvetica,sans-Serif" font-size="10.00">src/graphics/debug</text>
<text text-anchor="middle" x="2382.5" y="-7" font-family="Helvetica,sans-Serif" font-size="10.00">/PathTraces.cpp</text>
</a>
</g>
</g>
<!-- Node4&#45;&gt;Node20 -->
<g id="edge39_Node000004_Node000020" class="edge">
<title>Node4&#45;&gt;Node20</title>
<g id="a_edge39_Node000004_Node000020"><a xlink:title=" ">
<path fill="none" stroke="#63b8ff" d="M2458.84,-190.06C2557.58,-166.01 2784.11,-109.64 2794.5,-96 2802.58,-85.39 2803.37,-75.96 2794.5,-66 2748.38,-14.21 2553.3,-38.72 2484.5,-30 2468.98,-28.03 2452.16,-25.78 2436.73,-23.66"/>
<polygon fill="#63b8ff" stroke="#63b8ff" points="2457.74,-186.72 2448.85,-192.48 2459.39,-193.52 2457.74,-186.72"/>
</a>
</g>
</g>
<!-- Node4&#45;&gt;Node25 -->
<g id="edge44_Node000004_Node000025" class="edge">
<title>Node4&#45;&gt;Node25</title>
<g id="a_edge44_Node000004_Node000025"><a xlink:title=" ">
<path fill="none" stroke="#63b8ff" d="M2445.12,-188.7C2502.43,-166.42 2623.11,-119.49 2683.49,-96"/>
<polygon fill="#63b8ff" stroke="#63b8ff" points="2443.56,-185.56 2435.51,-192.44 2446.1,-192.08 2443.56,-185.56"/>
</a>
</g>
</g>
<!-- Node4&#45;&gt;Node26 -->
<g id="edge45_Node000004_Node000026" class="edge">
<title>Node4&#45;&gt;Node26</title>
<g id="a_edge45_Node000004_Node000026"><a xlink:title=" ">
<path fill="none" stroke="#63b8ff" d="M2326.66,-191.49C2309.4,-189.81 2291.39,-188.22 2274.5,-187 2091.47,-173.8 1628.18,-192.81 1449.5,-151 1429.16,-146.24 1426.88,-136.61 1406.5,-132 1133.71,-70.33 426.72,-124.48 148.5,-96 145.45,-95.69 142.34,-95.33 139.21,-94.93"/>
<polygon fill="#63b8ff" stroke="#63b8ff" points="2326.44,-194.98 2336.73,-192.48 2327.12,-188.02 2326.44,-194.98"/>
</a>
</g>
</g>
<!-- Node29 -->
<g id="Node000029" class="node">
<title>Node29</title>
<g id="a_Node000029"><a xlink:href="SceneSerializer_8h.html" target="_top" xlink:title=" ">
<polygon fill="white" stroke="#666666" points="2367,-151 2182,-151 2182,-132 2367,-132 2367,-151"/>
<text text-anchor="middle" x="2274.5" y="-139" font-family="Helvetica,sans-Serif" font-size="10.00">src/graphics/core/SceneSerializer.h</text>
</a>
</g>
</g>
<!-- Node4&#45;&gt;Node29 -->
<g id="edge34_Node000004_Node000029" class="edge">
<title>Node4&#45;&gt;Node29</title>
<g id="a_edge34_Node000004_Node000029"><a xlink:title=" ">
<path fill="none" stroke="#63b8ff" d="M2383.99,-188.58C2357.14,-177.28 2318.22,-160.9 2294.74,-151.02"/>
<polygon fill="#63b8ff" stroke="#63b8ff" points="2382.71,-191.84 2393.29,-192.49 2385.43,-185.39 2382.71,-191.84"/>
</a>
</g>
</g>
<!-- Node30 -->
<g id="Node000030" class="node">
<title>Node30</title>
<g id="a_Node000030"><a xlink:href="MainWindow_8h.html" target="_top" xlink:title=" ">
<polygon fill="white" stroke="#666666" points="2831,-151 2714,-151 2714,-132 2831,-132 2831,-151"/>
<text text-anchor="middle" x="2772.5" y="-139" font-family="Helvetica,sans-Serif" font-size="10.00">src/ui/MainWindow.h</text>
</a>
</g>
</g>
<!-- Node4&#45;&gt;Node30 -->
<g id="edge40_Node000004_Node000030" class="edge">
<title>Node4&#45;&gt;Node30</title>
<g id="a_edge40_Node000004_Node000030"><a xlink:title=" ">
<path fill="none" stroke="#63b8ff" d="M2475.59,-190.88C2544.75,-179.61 2655.33,-161.59 2720.24,-151.02"/>
<polygon fill="#63b8ff" stroke="#63b8ff" points="2475.01,-187.43 2465.7,-192.49 2476.13,-194.34 2475.01,-187.43"/>
</a>
</g>
</g>
<!-- Node4&#45;&gt;Node32 -->
<g id="edge43_Node000004_Node000032" class="edge">
<title>Node4&#45;&gt;Node32</title>
<g id="a_edge43_Node000004_Node000032"><a xlink:title=" ">
<path fill="none" stroke="#63b8ff" d="M2497.41,-191.32C2595.65,-179.98 2756.67,-161.4 2849.15,-150.73"/>
<polygon fill="#63b8ff" stroke="#63b8ff" points="2496.76,-187.87 2487.22,-192.49 2497.56,-194.82 2496.76,-187.87"/>
</a>
</g>
</g>
<!-- Node8&#45;&gt;Node5 -->
<g id="edge8_Node000008_Node000005" class="edge">
<title>Node8&#45;&gt;Node5</title>
<g id="a_edge8_Node000008_Node000005"><a xlink:title=" ">
<path fill="none" stroke="#63b8ff" d="M1448.34,-132.28C1447.05,-132.19 1445.77,-132.09 1444.5,-132 1378.33,-127.19 899.29,-138.69 848.5,-96 829.38,-79.93 827.52,-48.44 828.26,-30.13"/>
<polygon fill="#63b8ff" stroke="#63b8ff" points="1448.09,-135.77 1458.33,-133.04 1448.62,-128.79 1448.09,-135.77"/>
</a>
</g>
</g>
<!-- Node8&#45;&gt;Node6 -->
<g id="edge16_Node000008_Node000006" class="edge">
<title>Node8&#45;&gt;Node6</title>
<g id="a_edge16_Node000008_Node000006"><a xlink:title=" ">
<path fill="none" stroke="#63b8ff" d="M1537.32,-122.14C1532.12,-105.4 1528.09,-81.07 1541.5,-66 1563.19,-41.64 1753.58,-27.29 1873.33,-20.6"/>
<polygon fill="#63b8ff" stroke="#63b8ff" points="1534.12,-123.59 1540.74,-131.86 1540.73,-121.27 1534.12,-123.59"/>
</a>
</g>
</g>
<!-- Node8&#45;&gt;Node7 -->
<g id="edge17_Node000008_Node000007" class="edge">
<title>Node8&#45;&gt;Node7</title>
<g id="a_edge17_Node000008_Node000007"><a xlink:title=" ">
<path fill="none" stroke="#63b8ff" d="M1567.75,-126.62C1586.44,-115.46 1612.11,-100.14 1627.98,-90.67"/>
<polygon fill="#63b8ff" stroke="#63b8ff" points="1565.75,-123.74 1558.96,-131.87 1569.34,-129.75 1565.75,-123.74"/>
</a>
</g>
</g>
<!-- Node9 -->
<g id="Node000009" class="node">
<title>Node9</title>
<g id="a_Node000009"><a xlink:href="RotateHandle_8cpp.html" target="_top" xlink:title=" ">
<polygon fill="white" stroke="#666666" points="1494.5,-96 1356.5,-96 1356.5,-66 1494.5,-66 1494.5,-96"/>
<text text-anchor="start" x="1364.5" y="-84" font-family="Helvetica,sans-Serif" font-size="10.00">src/graphics/components</text>
<text text-anchor="middle" x="1425.5" y="-73" font-family="Helvetica,sans-Serif" font-size="10.00">/RotateHandle.cpp</text>
</a>
</g>
</g>
<!-- Node8&#45;&gt;Node9 -->
<g id="edge9_Node000008_Node000009" class="edge">
<title>Node8&#45;&gt;Node9</title>
<g id="a_edge9_Node000008_Node000009"><a xlink:title=" ">
<path fill="none" stroke="#63b8ff" d="M1517.98,-127.46C1499.09,-118.18 1473.73,-105.71 1454.34,-96.18"/>
<polygon fill="#63b8ff" stroke="#63b8ff" points="1516.68,-130.72 1527.2,-131.99 1519.77,-124.44 1516.68,-130.72"/>
</a>
</g>
</g>
<!-- Node10 -->
<g id="Node000010" class="node">
<title>Node10</title>
<g id="a_Node000010"><a xlink:href="ScaleHandle_8h.html" target="_top" xlink:title=" ">
<polygon fill="white" stroke="#666666" points="295.5,-96 157.5,-96 157.5,-66 295.5,-66 295.5,-96"/>
<text text-anchor="start" x="165.5" y="-84" font-family="Helvetica,sans-Serif" font-size="10.00">src/graphics/components</text>
<text text-anchor="middle" x="226.5" y="-73" font-family="Helvetica,sans-Serif" font-size="10.00">/ScaleHandle.h</text>
</a>
</g>
</g>
<!-- Node8&#45;&gt;Node10 -->
<g id="edge10_Node000008_Node000010" class="edge">
<title>Node8&#45;&gt;Node10</title>
<g id="a_edge10_Node000008_Node000010"><a xlink:title=" ">
<path fill="none" stroke="#63b8ff" d="M1448.34,-132.23C1447.05,-132.15 1445.77,-132.07 1444.5,-132 938.44,-102.52 808.65,-148.92 304.5,-96 301.63,-95.7 298.7,-95.35 295.75,-94.97"/>
<polygon fill="#63b8ff" stroke="#63b8ff" points="1448.13,-135.72 1458.34,-132.88 1448.59,-128.74 1448.13,-135.72"/>
</a>
</g>
</g>
<!-- Node12 -->
<g id="Node000012" class="node">
<title>Node12</title>
<g id="a_Node000012"><a xlink:href="TranslateHandle_8cpp.html" target="_top" xlink:title=" ">
<polygon fill="white" stroke="#666666" points="451.5,-96 313.5,-96 313.5,-66 451.5,-66 451.5,-96"/>
<text text-anchor="start" x="321.5" y="-84" font-family="Helvetica,sans-Serif" font-size="10.00">src/graphics/components</text>
<text text-anchor="middle" x="382.5" y="-73" font-family="Helvetica,sans-Serif" font-size="10.00">/TranslateHandle.cpp</text>
</a>
</g>
</g>
<!-- Node8&#45;&gt;Node12 -->
<g id="edge13_Node000008_Node000012" class="edge">
<title>Node8&#45;&gt;Node12</title>
<g id="a_edge13_Node000008_Node000012"><a xlink:title=" ">
<path fill="none" stroke="#63b8ff" d="M1448.34,-132.24C1447.05,-132.16 1445.77,-132.08 1444.5,-132 1007.68,-105.46 895.62,-142.77 460.5,-96 457.63,-95.69 454.7,-95.34 451.75,-94.95"/>
<polygon fill="#63b8ff" stroke="#63b8ff" points="1448.12,-135.73 1458.33,-132.91 1448.59,-128.75 1448.12,-135.73"/>
</a>
</g>
</g>
<!-- Node13 -->
<g id="Node000013" class="node">
<title>Node13</title>
<g id="a_Node000013"><a xlink:href="Camera_8cpp.html" target="_top" xlink:title=" ">
<polygon fill="white" stroke="#666666" points="631,-90.5 470,-90.5 470,-71.5 631,-71.5 631,-90.5"/>
<text text-anchor="middle" x="550.5" y="-78.5" font-family="Helvetica,sans-Serif" font-size="10.00">src/graphics/core/Camera.cpp</text>
</a>
</g>
</g>
<!-- Node8&#45;&gt;Node13 -->
<g id="edge14_Node000008_Node000013" class="edge">
<title>Node8&#45;&gt;Node13</title>
<g id="a_edge14_Node000008_Node000013"><a xlink:title=" ">
<path fill="none" stroke="#63b8ff" d="M1448.34,-132.25C1447.05,-132.17 1445.77,-132.08 1444.5,-132 1087.56,-108.85 996.42,-131.54 640.5,-96 626.97,-94.65 612.37,-92.63 598.95,-90.53"/>
<polygon fill="#63b8ff" stroke="#63b8ff" points="1448.11,-135.75 1458.33,-132.96 1448.6,-128.76 1448.11,-135.75"/>
</a>
</g>
</g>
<!-- Node14 -->
<g id="Node000014" class="node">
<title>Node14</title>
<g id="a_Node000014"><a xlink:href="Scene_8cpp.html" target="_top" xlink:title=" ">
<polygon fill="white" stroke="#666666" points="801.5,-90.5 649.5,-90.5 649.5,-71.5 801.5,-71.5 801.5,-90.5"/>
<text text-anchor="middle" x="725.5" y="-78.5" font-family="Helvetica,sans-Serif" font-size="10.00">src/graphics/core/Scene.cpp</text>
</a>
</g>
</g>
<!-- Node8&#45;&gt;Node14 -->
<g id="edge15_Node000008_Node000014" class="edge">
<title>Node8&#45;&gt;Node14</title>
<g id="a_edge15_Node000008_Node000014"><a xlink:title=" ">
<path fill="none" stroke="#63b8ff" d="M1448.34,-132.28C1447.05,-132.18 1445.77,-132.09 1444.5,-132 1165.19,-112.14 1093.95,-125.55 815.5,-96 802.29,-94.6 788.06,-92.61 774.9,-90.57"/>
<polygon fill="#63b8ff" stroke="#63b8ff" points="1448.09,-135.77 1458.33,-133.02 1448.62,-128.79 1448.09,-135.77"/>
</a>
</g>
</g>
<!-- Node15 -->
<g id="Node000015" class="node">
<title>Node15</title>
<g id="a_Node000015"><a xlink:href="SceneSerializer_8cpp.html" target="_top" xlink:title=" ">
<polygon fill="white" stroke="#666666" points="2240,-90.5 2043,-90.5 2043,-71.5 2240,-71.5 2240,-90.5"/>
<text text-anchor="middle" x="2141.5" y="-78.5" font-family="Helvetica,sans-Serif" font-size="10.00">src/graphics/core/SceneSerializer.cpp</text>
</a>
</g>
</g>
<!-- Node8&#45;&gt;Node15 -->
<g id="edge18_Node000008_Node000015" class="edge">
<title>Node8&#45;&gt;Node15</title>
<g id="a_edge18_Node000008_Node000015"><a xlink:title=" ">
<path fill="none" stroke="#63b8ff" d="M1640.98,-132.81C1739.69,-124.69 1897.45,-111 2033.5,-96 2048.25,-94.37 2064.11,-92.43 2079.01,-90.51"/>
<polygon fill="#63b8ff" stroke="#63b8ff" points="1640.4,-129.35 1630.72,-133.65 1640.98,-136.33 1640.4,-129.35"/>
</a>
</g>
</g>
<!-- Node8&#45;&gt;Node16 -->
<g id="edge19_Node000008_Node000016" class="edge">
<title>Node8&#45;&gt;Node16</title>
<g id="a_edge19_Node000008_Node000016"><a xlink:title=" ">
<path fill="none" stroke="#63b8ff" d="M1640.92,-139.04C1776.98,-135.94 2032.78,-126.23 2248.5,-96 2251.77,-95.54 2255.11,-95.01 2258.48,-94.42"/>
<polygon fill="#63b8ff" stroke="#63b8ff" points="1640.46,-135.55 1630.54,-139.27 1640.61,-142.55 1640.46,-135.55"/>
</a>
</g>
</g>
<!-- Node17 -->
<g id="Node000017" class="node">
<title>Node17</title>
<g id="a_Node000017"><a xlink:href="Forces_8h.html" target="_top" xlink:title=" ">
<polygon fill="white" stroke="#666666" points="1898.5,-96 1790.5,-96 1790.5,-66 1898.5,-66 1898.5,-96"/>
<text text-anchor="start" x="1798.5" y="-84" font-family="Helvetica,sans-Serif" font-size="10.00">src/graphics/debug</text>
<text text-anchor="middle" x="1844.5" y="-73" font-family="Helvetica,sans-Serif" font-size="10.00">/Forces.h</text>
</a>
</g>
</g>
<!-- Node8&#45;&gt;Node17 -->
<g id="edge20_Node000008_Node000017" class="edge">
<title>Node8&#45;&gt;Node17</title>
<g id="a_edge20_Node000008_Node000017"><a xlink:title=" ">
<path fill="none" stroke="#63b8ff" d="M1598.24,-130.02C1652.54,-119.43 1735.98,-103.16 1790.41,-92.55"/>
<polygon fill="#63b8ff" stroke="#63b8ff" points="1597.27,-126.64 1588.12,-131.99 1598.61,-133.51 1597.27,-126.64"/>
</a>
</g>
</g>
<!-- Node19 -->
<g id="Node000019" class="node">
<title>Node19</title>
<g id="a_Node000019"><a xlink:href="PathTraces_8h.html" target="_top" xlink:title=" ">
<polygon fill="white" stroke="#666666" points="2024.5,-96 1916.5,-96 1916.5,-66 2024.5,-66 2024.5,-96"/>
<text text-anchor="start" x="1924.5" y="-84" font-family="Helvetica,sans-Serif" font-size="10.00">src/graphics/debug</text>
<text text-anchor="middle" x="1970.5" y="-73" font-family="Helvetica,sans-Serif" font-size="10.00">/PathTraces.h</text>
</a>
</g>
</g>
<!-- Node8&#45;&gt;Node19 -->
<g id="edge23_Node000008_Node000019" class="edge">
<title>Node8&#45;&gt;Node19</title>
<g id="a_edge23_Node000008_Node000019"><a xlink:title=" ">
<path fill="none" stroke="#63b8ff" d="M1640.8,-131.26C1714.18,-123.6 1817.56,-111.47 1907.5,-96 1910.37,-95.51 1913.31,-94.97 1916.27,-94.4"/>
<polygon fill="#63b8ff" stroke="#63b8ff" points="1640.24,-127.8 1630.65,-132.31 1640.96,-134.76 1640.24,-127.8"/>
</a>
</g>
</g>
<!-- Node21 -->
<g id="Node000021" class="node">
<title>Node21</title>
<g id="a_Node000021"><a xlink:href="HierarchyWidget_8h.html" target="_top" xlink:title=" ">
<polygon fill="white" stroke="#666666" points="2636,-90.5 2499,-90.5 2499,-71.5 2636,-71.5 2636,-90.5"/>
<text text-anchor="middle" x="2567.5" y="-78.5" font-family="Helvetica,sans-Serif" font-size="10.00">src/ui/HierarchyWidget.h</text>
</a>
</g>
</g>
<!-- Node8&#45;&gt;Node21 -->
<g id="edge26_Node000008_Node000021" class="edge">
<title>Node8&#45;&gt;Node21</title>
<g id="a_edge26_Node000008_Node000021"><a xlink:title=" ">
<path fill="none" stroke="#63b8ff" d="M1641.09,-135.93C1796.06,-128.47 2109.81,-112.8 2375.5,-96 2416.36,-93.42 2462.08,-90.1 2498.65,-87.34"/>
<polygon fill="#63b8ff" stroke="#63b8ff" points="1640.49,-132.46 1630.67,-136.43 1640.82,-139.45 1640.49,-132.46"/>
</a>
</g>
</g>
<!-- Node24 -->
<g id="Node000024" class="node">
<title>Node24</title>
<g id="a_Node000024"><a xlink:href="ForcesInspectorWidget_8cpp.html" target="_top" xlink:title=" ">
<polygon fill="white" stroke="#666666" points="1027.5,-96 857.5,-96 857.5,-66 1027.5,-66 1027.5,-96"/>
<text text-anchor="start" x="865.5" y="-84" font-family="Helvetica,sans-Serif" font-size="10.00">src/ui/inspector/ForcesInspector</text>
<text text-anchor="middle" x="942.5" y="-73" font-family="Helvetica,sans-Serif" font-size="10.00">Widget.cpp</text>
</a>
</g>
</g>
<!-- Node8&#45;&gt;Node24 -->
<g id="edge29_Node000008_Node000024" class="edge">
<title>Node8&#45;&gt;Node24</title>
<g id="a_edge29_Node000008_Node000024"><a xlink:title=" ">
<path fill="none" stroke="#63b8ff" d="M1448.44,-132.24C1306.84,-120.03 1056.58,-98.37 1036.5,-96 1033.55,-95.65 1030.55,-95.28 1027.52,-94.9"/>
<polygon fill="#63b8ff" stroke="#63b8ff" points="1448.17,-135.73 1458.44,-133.1 1448.78,-128.75 1448.17,-135.73"/>
</a>
</g>
</g>
<!-- Node8&#45;&gt;Node25 -->
<g id="edge30_Node000008_Node000025" class="edge">
<title>Node8&#45;&gt;Node25</title>
<g id="a_edge30_Node000008_Node000025"><a xlink:title=" ">
<path fill="none" stroke="#63b8ff" d="M1640.89,-141.34C1832.81,-141.96 2276.02,-138.19 2645.5,-96 2648.23,-95.69 2651.01,-95.33 2653.81,-94.95"/>
<polygon fill="#63b8ff" stroke="#63b8ff" points="1640.85,-137.84 1630.84,-141.3 1640.82,-144.84 1640.85,-137.84"/>
</a>
</g>
</g>
<!-- Node8&#45;&gt;Node26 -->
<g id="edge31_Node000008_Node000026" class="edge">
<title>Node8&#45;&gt;Node26</title>
<g id="a_edge31_Node000008_Node000026"><a xlink:title=" ">
<path fill="none" stroke="#63b8ff" d="M1448.34,-132.22C1447.05,-132.15 1445.77,-132.07 1444.5,-132 869.19,-99.59 721.75,-154.43 148.5,-96 145.45,-95.69 142.34,-95.33 139.21,-94.93"/>
<polygon fill="#63b8ff" stroke="#63b8ff" points="1448.13,-135.72 1458.34,-132.86 1448.58,-128.73 1448.13,-135.72"/>
</a>
</g>
</g>
<!-- Node27 -->
<g id="Node000027" class="node">
<title>Node27</title>
<g id="a_Node000027"><a xlink:href="PhysicsInspectorWidget_8cpp.html" target="_top" xlink:title=" ">
<polygon fill="white" stroke="#666666" points="1177,-96 1046,-96 1046,-66 1177,-66 1177,-96"/>
<text text-anchor="start" x="1054" y="-84" font-family="Helvetica,sans-Serif" font-size="10.00">src/ui/inspector/Physics</text>
<text text-anchor="middle" x="1111.5" y="-73" font-family="Helvetica,sans-Serif" font-size="10.00">InspectorWidget.cpp</text>
</a>
</g>
</g>
<!-- Node8&#45;&gt;Node27 -->
<g id="edge32_Node000008_Node000027" class="edge">
<title>Node8&#45;&gt;Node27</title>
<g id="a_edge32_Node000008_Node000027"><a xlink:title=" ">
<path fill="none" stroke="#63b8ff" d="M1453.69,-130.86C1380.98,-122.75 1276.47,-110.23 1185.5,-96 1182.79,-95.58 1180.02,-95.13 1177.23,-94.66"/>
<polygon fill="#63b8ff" stroke="#63b8ff" points="1453.41,-134.35 1463.74,-131.98 1454.18,-127.39 1453.41,-134.35"/>
</a>
</g>
</g>
<!-- Node28 -->
<g id="Node000028" class="node">
<title>Node28</title>
<g id="a_Node000028"><a xlink:href="TransformInspectorWidget_8cpp.html" target="_top" xlink:title=" ">
<polygon fill="white" stroke="#666666" points="1338,-96 1195,-96 1195,-66 1338,-66 1338,-96"/>
<text text-anchor="start" x="1203" y="-84" font-family="Helvetica,sans-Serif" font-size="10.00">src/ui/inspector/Transform</text>
<text text-anchor="middle" x="1266.5" y="-73" font-family="Helvetica,sans-Serif" font-size="10.00">InspectorWidget.cpp</text>
</a>
</g>
</g>
<!-- Node8&#45;&gt;Node28 -->
<g id="edge33_Node000008_Node000028" class="edge">
<title>Node8&#45;&gt;Node28</title>
<g id="a_edge33_Node000008_Node000028"><a xlink:title=" ">
<path fill="none" stroke="#63b8ff" d="M1494.23,-129.92C1449.11,-120.43 1382.58,-106.43 1333.07,-96.01"/>
<polygon fill="#63b8ff" stroke="#63b8ff" points="1493.57,-133.36 1504.08,-131.99 1495.01,-126.51 1493.57,-133.36"/>
</a>
</g>
</g>
<!-- Node10&#45;&gt;Node5 -->
<g id="edge11_Node000010_Node000005" class="edge">
<title>Node10&#45;&gt;Node5</title>
<g id="a_edge11_Node000010_Node000005"><a xlink:title=" ">
<path fill="none" stroke="#63b8ff" d="M305.85,-65.89C474.81,-43.07 661.89,-27.93 760.49,-20.74"/>
<polygon fill="#63b8ff" stroke="#63b8ff" points="305.21,-62.44 295.78,-67.26 306.16,-69.38 305.21,-62.44"/>
</a>
</g>
</g>
<!-- Node11 -->
<g id="Node000011" class="node">
<title>Node11</title>
<g id="a_Node000011"><a xlink:href="ScaleHandle_8cpp.html" target="_top" xlink:title=" ">
<polygon fill="white" stroke="#666666" points="295.5,-30 157.5,-30 157.5,0 295.5,0 295.5,-30"/>
<text text-anchor="start" x="165.5" y="-18" font-family="Helvetica,sans-Serif" font-size="10.00">src/graphics/components</text>
<text text-anchor="middle" x="226.5" y="-7" font-family="Helvetica,sans-Serif" font-size="10.00">/ScaleHandle.cpp</text>
</a>
</g>
</g>
<!-- Node10&#45;&gt;Node11 -->
<g id="edge12_Node000010_Node000011" class="edge">
<title>Node10&#45;&gt;Node11</title>
<g id="a_edge12_Node000010_Node000011"><a xlink:title=" ">
<path fill="none" stroke="#63b8ff" d="M226.5,-55.54C226.5,-46.96 226.5,-37.61 226.5,-30.16"/>
<polygon fill="#63b8ff" stroke="#63b8ff" points="223,-55.8 226.5,-65.8 230,-55.8 223,-55.8"/>
</a>
</g>
</g>
<!-- Node17&#45;&gt;Node6 -->
<g id="edge21_Node000017_Node000006" class="edge">
<title>Node17&#45;&gt;Node6</title>
<g id="a_edge21_Node000017_Node000006"><a xlink:title=" ">
<path fill="none" stroke="#63b8ff" d="M1881.32,-61.3C1905.26,-49.14 1935.34,-33.86 1953.73,-24.52"/>
<polygon fill="#63b8ff" stroke="#63b8ff" points="1879.48,-58.31 1872.15,-65.95 1882.65,-64.55 1879.48,-58.31"/>
</a>
</g>
</g>
<!-- Node17&#45;&gt;Node18 -->
<g id="edge22_Node000017_Node000018" class="edge">
<title>Node17&#45;&gt;Node18</title>
<g id="a_edge22_Node000017_Node000018"><a xlink:title=" ">
<path fill="none" stroke="#63b8ff" d="M1908.6,-65.82C1989.27,-49.53 2071.76,-34.65 2124.4,-25.39"/>
<polygon fill="#63b8ff" stroke="#63b8ff" points="1907.87,-62.39 1898.77,-67.81 1909.27,-69.25 1907.87,-62.39"/>
</a>
</g>
</g>
<!-- Node19&#45;&gt;Node6 -->
<g id="edge24_Node000019_Node000006" class="edge">
<title>Node19&#45;&gt;Node6</title>
<g id="a_edge24_Node000019_Node000006"><a xlink:title=" ">
<path fill="none" stroke="#63b8ff" d="M1970.5,-55.6C1970.5,-44.8 1970.5,-32.78 1970.5,-24.84"/>
<polygon fill="#63b8ff" stroke="#63b8ff" points="1967,-55.8 1970.5,-65.8 1974,-55.8 1967,-55.8"/>
</a>
</g>
</g>
<!-- Node19&#45;&gt;Node20 -->
<g id="edge25_Node000019_Node000020" class="edge">
<title>Node19&#45;&gt;Node20</title>
<g id="a_edge25_Node000019_Node000020"><a xlink:title=" ">
<path fill="none" stroke="#63b8ff" d="M2034.67,-65.87C2144.49,-46.11 2261.74,-30.68 2328.48,-22.44"/>
<polygon fill="#63b8ff" stroke="#63b8ff" points="2033.96,-62.44 2024.74,-67.67 2035.21,-69.33 2033.96,-62.44"/>
</a>
</g>
</g>
<!-- Node22 -->
<g id="Node000022" class="node">
<title>Node22</title>
<g id="a_Node000022"><a xlink:href="HierarchyWidget_8cpp.html" target="_top" xlink:title=" ">
<polygon fill="white" stroke="#666666" points="2641.5,-24.5 2493.5,-24.5 2493.5,-5.5 2641.5,-5.5 2641.5,-24.5"/>
<text text-anchor="middle" x="2567.5" y="-12.5" font-family="Helvetica,sans-Serif" font-size="10.00">src/ui/HierarchyWidget.cpp</text>
</a>
</g>
</g>
<!-- Node21&#45;&gt;Node22 -->
<g id="edge27_Node000021_Node000022" class="edge">
<title>Node21&#45;&gt;Node22</title>
<g id="a_edge27_Node000021_Node000022"><a xlink:title=" ">
<path fill="none" stroke="#63b8ff" d="M2567.5,-61.08C2567.5,-49.13 2567.5,-34.22 2567.5,-24.91"/>
<polygon fill="#63b8ff" stroke="#63b8ff" points="2564,-61.37 2567.5,-71.37 2571,-61.37 2564,-61.37"/>
</a>
</g>
</g>
<!-- Node23 -->
<g id="Node000023" class="node">
<title>Node23</title>
<g id="a_Node000023"><a xlink:href="MainWindow_8cpp.html" target="_top" xlink:title=" ">
<polygon fill="white" stroke="#666666" points="2900.5,-24.5 2772.5,-24.5 2772.5,-5.5 2900.5,-5.5 2900.5,-24.5"/>
<text text-anchor="middle" x="2836.5" y="-12.5" font-family="Helvetica,sans-Serif" font-size="10.00">src/ui/MainWindow.cpp</text>
</a>
</g>
</g>
<!-- Node21&#45;&gt;Node23 -->
<g id="edge28_Node000021_Node000023" class="edge">
<title>Node21&#45;&gt;Node23</title>
<g id="a_edge28_Node000021_Node000023"><a xlink:title=" ">
<path fill="none" stroke="#63b8ff" d="M2613.31,-69.1C2666.3,-56.49 2752.41,-36.01 2800.71,-24.51"/>
<polygon fill="#63b8ff" stroke="#63b8ff" points="2612.42,-65.72 2603.5,-71.44 2614.04,-72.53 2612.42,-65.72"/>
</a>
</g>
</g>
<!-- Node29&#45;&gt;Node6 -->
<g id="edge35_Node000029_Node000006" class="edge">
<title>Node29&#45;&gt;Node6</title>
<g id="a_edge35_Node000029_Node000006"><a xlink:title=" ">
<path fill="none" stroke="#63b8ff" d="M2330.33,-128.69C2347.78,-122.09 2365.17,-111.84 2375.5,-96 2382.78,-84.83 2384.33,-75.99 2375.5,-66 2370.15,-59.95 2166.6,-37.11 2050.16,-24.5"/>
<polygon fill="#63b8ff" stroke="#63b8ff" points="2328.99,-125.45 2320.66,-132 2331.26,-132.07 2328.99,-125.45"/>
</a>
</g>
</g>
<!-- Node29&#45;&gt;Node15 -->
<g id="edge36_Node000029_Node000015" class="edge">
<title>Node29&#45;&gt;Node15</title>
<g id="a_edge36_Node000029_Node000015"><a xlink:title=" ">
<path fill="none" stroke="#63b8ff" d="M2245.93,-127.93C2220.25,-116.64 2183.23,-100.36 2160.86,-90.52"/>
<polygon fill="#63b8ff" stroke="#63b8ff" points="2244.6,-131.17 2255.16,-131.99 2247.42,-124.76 2244.6,-131.17"/>
</a>
</g>
</g>
<!-- Node30&#45;&gt;Node23 -->
<g id="edge42_Node000030_Node000023" class="edge">
<title>Node30&#45;&gt;Node23</title>
<g id="a_edge42_Node000030_Node000023"><a xlink:title=" ">
<path fill="none" stroke="#63b8ff" d="M2838.86,-130.03C2876.79,-122.55 2919.05,-111.12 2930.5,-96 2953.98,-64.99 2896.92,-37.74 2861.71,-24.5"/>
<polygon fill="#63b8ff" stroke="#63b8ff" points="2837.99,-126.64 2828.82,-131.95 2839.3,-133.51 2837.99,-126.64"/>
</a>
</g>
</g>
<!-- Node31 -->
<g id="Node000031" class="node">
<title>Node31</title>
<g id="a_Node000031"><a xlink:href="main_8cpp.html" target="_top" xlink:title=" ">
<polygon fill="white" stroke="#666666" points="2921,-90.5 2842,-90.5 2842,-71.5 2921,-71.5 2921,-90.5"/>
<text text-anchor="middle" x="2881.5" y="-78.5" font-family="Helvetica,sans-Serif" font-size="10.00">src/main.cpp</text>
</a>
</g>
</g>
<!-- Node30&#45;&gt;Node31 -->
<g id="edge41_Node000030_Node000031" class="edge">
<title>Node30&#45;&gt;Node31</title>
<g id="a_edge41_Node000030_Node000031"><a xlink:title=" ">
<path fill="none" stroke="#63b8ff" d="M2797.51,-127.08C2818.36,-115.88 2847.45,-100.27 2865.35,-90.67"/>
<polygon fill="#63b8ff" stroke="#63b8ff" points="2795.74,-124.06 2788.58,-131.87 2799.05,-130.22 2795.74,-124.06"/>
</a>
</g>
</g>
<!-- Node37&#45;&gt;Node3 -->
<g id="edge56_Node000037_Node000003" class="edge">
<title>Node37&#45;&gt;Node3</title>
<g id="a_edge56_Node000037_Node000003"><a xlink:title=" ">
<path fill="none" stroke="#63b8ff" d="M2413.97,-304.61C2382.87,-293.91 2344.35,-280.65 2319.61,-272.14"/>
<polygon fill="#63b8ff" stroke="#63b8ff" points="2413.19,-308.04 2423.78,-307.99 2415.46,-301.42 2413.19,-308.04"/>
</a>
</g>
</g>
<!-- Node37&#45;&gt;Node33 -->
<g id="edge57_Node000037_Node000033" class="edge">
<title>Node37&#45;&gt;Node33</title>
<g id="a_edge57_Node000037_Node000033"><a xlink:title=" ">
<path fill="none" stroke="#63b8ff" d="M2464.8,-297.55C2466.35,-282.49 2470.96,-264.03 2483.5,-253 2526.31,-215.35 2681.3,-226.59 2737.5,-217 2742.02,-216.23 2746.7,-215.39 2751.39,-214.51"/>
<polygon fill="#63b8ff" stroke="#63b8ff" points="2461.29,-297.54 2464.14,-307.75 2468.28,-297.99 2461.29,-297.54"/>
</a>
</g>
</g>
<!-- Node38 -->
<g id="Node000038" class="node">
<title>Node38</title>
<g id="a_Node000038"><a xlink:href="SolverDialog_8cpp.html" target="_top" xlink:title=" ">
<polygon fill="white" stroke="#666666" points="2620.5,-272 2492.5,-272 2492.5,-253 2620.5,-253 2620.5,-272"/>
<text text-anchor="middle" x="2556.5" y="-260" font-family="Helvetica,sans-Serif" font-size="10.00">src/ui/SolverDialog.cpp</text>
</a>
</g>
</g>
<!-- Node37&#45;&gt;Node38 -->
<g id="edge58_Node000037_Node000038" class="edge">
<title>Node37&#45;&gt;Node38</title>
<g id="a_edge58_Node000037_Node000038"><a xlink:title=" ">
<path fill="none" stroke="#63b8ff" d="M2495.4,-302.35C2511.56,-292.07 2530.52,-280.02 2542.98,-272.09"/>
<polygon fill="#63b8ff" stroke="#63b8ff" points="2493.33,-299.52 2486.77,-307.84 2497.09,-305.43 2493.33,-299.52"/>
</a>
</g>
</g>
</g>
</svg>
