<?xml version="1.0" encoding="UTF-8" standalone="no"?>
<!DOCTYPE svg PUBLIC "-//W3C//DTD SVG 1.1//EN"
 "http://www.w3.org/Graphics/SVG/1.1/DTD/svg11.dtd">
<!-- Generated by graphviz version 2.43.0 (0)
 -->
<!-- Title: src/physics/solver/OneUnknownSolver.h Pages: 1 -->
<svg width="2622pt" height="467pt"
 viewBox="0.00 0.00 2622.36 467.00" xmlns="http://www.w3.org/2000/svg" xmlns:xlink="http://www.w3.org/1999/xlink">
<g id="graph0" class="graph" transform="scale(1 1) rotate(0) translate(4 463)">
<title>src/physics/solver/OneUnknownSolver.h</title>
<!-- Node1 -->
<g id="Node000001" class="node">
<title>Node1</title>
<g id="a_Node000001"><a xlink:title=" ">
<polygon fill="#999999" stroke="#666666" points="1450.5,-459 1326.5,-459 1326.5,-429 1450.5,-429 1450.5,-459"/>
<text text-anchor="start" x="1334.5" y="-447" font-family="Helvetica,sans-Serif" font-size="10.00">src/physics/solver</text>
<text text-anchor="middle" x="1388.5" y="-436" font-family="Helvetica,sans-Serif" font-size="10.00">/OneUnknownSolver.h</text>
</a>
</g>
</g>
<!-- Node2 -->
<g id="Node000002" class="node">
<title>Node2</title>
<g id="a_Node000002"><a xlink:href="PhysicsSystem_8cpp.html" target="_top" xlink:title=" ">
<polygon fill="white" stroke="#666666" points="1141,-266.5 974,-266.5 974,-247.5 1141,-247.5 1141,-266.5"/>
<text text-anchor="middle" x="1057.5" y="-254.5" font-family="Helvetica,sans-Serif" font-size="10.00">src/physics/PhysicsSystem.cpp</text>
</a>
</g>
</g>
<!-- Node1&#45;&gt;Node2 -->
<g id="edge1_Node000001_Node000002" class="edge">
<title>Node1&#45;&gt;Node2</title>
<g id="a_edge1_Node000001_Node000002"><a xlink:title=" ">
<path fill="none" stroke="#63b8ff" d="M1354.37,-423.92C1283.54,-384.33 1122.99,-294.6 1072.79,-266.55"/>
<polygon fill="#63b8ff" stroke="#63b8ff" points="1352.91,-427.12 1363.35,-428.94 1356.33,-421.01 1352.91,-427.12"/>
</a>
</g>
</g>
<!-- Node3 -->
<g id="Node000003" class="node">
<title>Node3</title>
<g id="a_Node000003"><a xlink:href="PhysicsSystem_8h.html" target="_top" xlink:title=" ">
<polygon fill="white" stroke="#666666" points="1485.5,-327 1329.5,-327 1329.5,-308 1485.5,-308 1485.5,-327"/>
<text text-anchor="middle" x="1407.5" y="-315" font-family="Helvetica,sans-Serif" font-size="10.00">src/physics/PhysicsSystem.h</text>
</a>
</g>
</g>
<!-- Node1&#45;&gt;Node3 -->
<g id="edge2_Node000001_Node000003" class="edge">
<title>Node1&#45;&gt;Node3</title>
<g id="a_edge2_Node000001_Node000003"><a xlink:title=" ">
<path fill="none" stroke="#63b8ff" d="M1371.14,-420.6C1360.8,-404.39 1351.17,-382.08 1359.5,-363 1366.32,-347.38 1381.63,-334.79 1393.13,-327.04"/>
<polygon fill="#63b8ff" stroke="#63b8ff" points="1368.3,-422.65 1376.84,-428.91 1374.07,-418.69 1368.3,-422.65"/>
</a>
</g>
</g>
<!-- Node31 -->
<g id="Node000031" class="node">
<title>Node31</title>
<g id="a_Node000031"><a xlink:href="OneUnknownSolver_8cpp.html" target="_top" xlink:title=" ">
<polygon fill="white" stroke="#666666" points="1504,-393 1369,-393 1369,-363 1504,-363 1504,-393"/>
<text text-anchor="start" x="1377" y="-381" font-family="Helvetica,sans-Serif" font-size="10.00">src/physics/solver</text>
<text text-anchor="middle" x="1436.5" y="-370" font-family="Helvetica,sans-Serif" font-size="10.00">/OneUnknownSolver.cpp</text>
</a>
</g>
</g>
<!-- Node1&#45;&gt;Node31 -->
<g id="edge48_Node000001_Node000031" class="edge">
<title>Node1&#45;&gt;Node31</title>
<g id="a_edge48_Node000001_Node000031"><a xlink:title=" ">
<path fill="none" stroke="#63b8ff" d="M1405.36,-420.53C1412.18,-411.43 1419.85,-401.19 1425.88,-393.16"/>
<polygon fill="#63b8ff" stroke="#63b8ff" points="1402.35,-418.7 1399.15,-428.8 1407.95,-422.9 1402.35,-418.7"/>
</a>
</g>
</g>
<!-- Node32 -->
<g id="Node000032" class="node">
<title>Node32</title>
<g id="a_Node000032"><a xlink:href="ProblemRouter_8h.html" target="_top" xlink:title=" ">
<polygon fill="white" stroke="#666666" points="1626.5,-393 1522.5,-393 1522.5,-363 1626.5,-363 1626.5,-393"/>
<text text-anchor="start" x="1530.5" y="-381" font-family="Helvetica,sans-Serif" font-size="10.00">src/physics/solver</text>
<text text-anchor="middle" x="1574.5" y="-370" font-family="Helvetica,sans-Serif" font-size="10.00">/ProblemRouter.h</text>
</a>
</g>
</g>
<!-- Node1&#45;&gt;Node32 -->
<g id="edge49_Node000001_Node000032" class="edge">
<title>Node1&#45;&gt;Node32</title>
<g id="a_edge49_Node000001_Node000032"><a xlink:title=" ">
<path fill="none" stroke="#63b8ff" d="M1439.1,-425.59C1468.84,-415.36 1505.94,-402.59 1533.78,-393.01"/>
<polygon fill="#63b8ff" stroke="#63b8ff" points="1437.64,-422.39 1429.32,-428.95 1439.91,-429.01 1437.64,-422.39"/>
</a>
</g>
</g>
<!-- Node3&#45;&gt;Node2 -->
<g id="edge23_Node000003_Node000002" class="edge">
<title>Node3&#45;&gt;Node2</title>
<g id="a_edge23_Node000003_Node000002"><a xlink:title=" ">
<path fill="none" stroke="#63b8ff" d="M1346.55,-306.31C1279.1,-295.04 1171.6,-277.07 1108.45,-266.52"/>
<polygon fill="#63b8ff" stroke="#63b8ff" points="1346.17,-309.8 1356.61,-307.99 1347.32,-302.89 1346.17,-309.8"/>
</a>
</g>
</g>
<!-- Node4 -->
<g id="Node000004" class="node">
<title>Node4</title>
<g id="a_Node000004"><a xlink:href="SceneObject_8h.html" target="_top" xlink:title=" ">
<polygon fill="white" stroke="#666666" points="1493.5,-151 1321.5,-151 1321.5,-132 1493.5,-132 1493.5,-151"/>
<text text-anchor="middle" x="1407.5" y="-139" font-family="Helvetica,sans-Serif" font-size="10.00">src/graphics/core/SceneObject.h</text>
</a>
</g>
</g>
<!-- Node3&#45;&gt;Node4 -->
<g id="edge3_Node000003_Node000004" class="edge">
<title>Node3&#45;&gt;Node4</title>
<g id="a_edge3_Node000003_Node000004"><a xlink:title=" ">
<path fill="none" stroke="#63b8ff" d="M1407.5,-297.56C1407.5,-260.12 1407.5,-177.95 1407.5,-151.14"/>
<polygon fill="#63b8ff" stroke="#63b8ff" points="1404,-297.63 1407.5,-307.63 1411,-297.63 1404,-297.63"/>
</a>
</g>
</g>
<!-- Node20 -->
<g id="Node000020" class="node">
<title>Node20</title>
<g id="a_Node000020"><a xlink:href="InspectorWidget_8cpp.html" target="_top" xlink:title=" ">
<polygon fill="white" stroke="#666666" points="139,-96 0,-96 0,-66 139,-66 139,-96"/>
<text text-anchor="start" x="8" y="-84" font-family="Helvetica,sans-Serif" font-size="10.00">src/ui/inspector/Inspector</text>
<text text-anchor="middle" x="69.5" y="-73" font-family="Helvetica,sans-Serif" font-size="10.00">Widget.cpp</text>
</a>
</g>
</g>
<!-- Node3&#45;&gt;Node20 -->
<g id="edge46_Node000003_Node000020" class="edge">
<title>Node3&#45;&gt;Node20</title>
<g id="a_edge46_Node000003_Node000020"><a xlink:title=" ">
<path fill="none" stroke="#63b8ff" d="M1389.67,-301.25C1368.17,-283.78 1330.2,-255.8 1292.5,-242 810.74,-65.69 654.58,-173.78 147.5,-96 144.78,-95.58 142.01,-95.15 139.21,-94.69"/>
<polygon fill="#63b8ff" stroke="#63b8ff" points="1387.64,-304.11 1397.57,-307.8 1392.11,-298.72 1387.64,-304.11"/>
</a>
</g>
</g>
<!-- Node23 -->
<g id="Node000023" class="node">
<title>Node23</title>
<g id="a_Node000023"><a xlink:href="ProblemRouter_8cpp.html" target="_top" xlink:title=" ">
<polygon fill="white" stroke="#666666" points="2601.5,-272 2489.5,-272 2489.5,-242 2601.5,-242 2601.5,-272"/>
<text text-anchor="start" x="2497.5" y="-260" font-family="Helvetica,sans-Serif" font-size="10.00">src/physics/solver</text>
<text text-anchor="middle" x="2545.5" y="-249" font-family="Helvetica,sans-Serif" font-size="10.00">/ProblemRouter.cpp</text>
</a>
</g>
</g>
<!-- Node3&#45;&gt;Node23 -->
<g id="edge24_Node000003_Node000023" class="edge">
<title>Node3&#45;&gt;Node23</title>
<g id="a_edge24_Node000003_Node000023"><a xlink:title=" ">
<path fill="none" stroke="#63b8ff" d="M1495.97,-311.34C1517.11,-310.18 1539.6,-308.99 1560.5,-308 1967.02,-288.71 2071.37,-320.06 2475.5,-272 2480.05,-271.46 2484.75,-270.78 2489.46,-270.02"/>
<polygon fill="#63b8ff" stroke="#63b8ff" points="1495.51,-307.86 1485.72,-311.91 1495.89,-314.85 1495.51,-307.86"/>
</a>
</g>
</g>
<!-- Node24 -->
<g id="Node000024" class="node">
<title>Node24</title>
<g id="a_Node000024"><a xlink:href="OpenGLWindow_8cpp.html" target="_top" xlink:title=" ">
<polygon fill="white" stroke="#666666" points="2532.5,-151 2390.5,-151 2390.5,-132 2532.5,-132 2532.5,-151"/>
<text text-anchor="middle" x="2461.5" y="-139" font-family="Helvetica,sans-Serif" font-size="10.00">src/ui/OpenGLWindow.cpp</text>
</a>
</g>
</g>
<!-- Node3&#45;&gt;Node24 -->
<g id="edge25_Node000003_Node000024" class="edge">
<title>Node3&#45;&gt;Node24</title>
<g id="a_edge25_Node000003_Node000024"><a xlink:title=" ">
<path fill="none" stroke="#63b8ff" d="M1495.8,-312.02C1521.5,-310.71 1549.62,-309.3 1575.5,-308 1656.16,-303.96 2226.05,-300.83 2301.5,-272 2371.27,-245.34 2433.76,-175.9 2454.36,-151.3"/>
<polygon fill="#63b8ff" stroke="#63b8ff" points="1495.52,-308.53 1485.71,-312.53 1495.87,-315.52 1495.52,-308.53"/>
</a>
</g>
</g>
<!-- Node25 -->
<g id="Node000025" class="node">
<title>Node25</title>
<g id="a_Node000025"><a xlink:href="OpenGLWindow_8h.html" target="_top" xlink:title=" ">
<polygon fill="white" stroke="#666666" points="2292,-266.5 2161,-266.5 2161,-247.5 2292,-247.5 2292,-266.5"/>
<text text-anchor="middle" x="2226.5" y="-254.5" font-family="Helvetica,sans-Serif" font-size="10.00">src/ui/OpenGLWindow.h</text>
</a>
</g>
</g>
<!-- Node3&#45;&gt;Node25 -->
<g id="edge26_Node000003_Node000025" class="edge">
<title>Node3&#45;&gt;Node25</title>
<g id="a_edge26_Node000003_Node000025"><a xlink:title=" ">
<path fill="none" stroke="#63b8ff" d="M1495.8,-310.19C1661.27,-298.37 2014.49,-273.14 2160.86,-262.69"/>
<polygon fill="#63b8ff" stroke="#63b8ff" points="1495.38,-306.71 1485.66,-310.92 1495.88,-313.7 1495.38,-306.71"/>
</a>
</g>
</g>
<!-- Node30 -->
<g id="Node000030" class="node">
<title>Node30</title>
<g id="a_Node000030"><a xlink:href="PhysicsTests_8cpp.html" target="_top" xlink:title=" ">
<polygon fill="white" stroke="#666666" points="1284,-266.5 1159,-266.5 1159,-247.5 1284,-247.5 1284,-266.5"/>
<text text-anchor="middle" x="1221.5" y="-254.5" font-family="Helvetica,sans-Serif" font-size="10.00">tests/PhysicsTests.cpp</text>
</a>
</g>
</g>
<!-- Node3&#45;&gt;Node30 -->
<g id="edge47_Node000003_Node000030" class="edge">
<title>Node3&#45;&gt;Node30</title>
<g id="a_edge47_Node000003_Node000030"><a xlink:title=" ">
<path fill="none" stroke="#63b8ff" d="M1370.82,-304.96C1334.84,-293.65 1280.83,-276.66 1248.58,-266.52"/>
<polygon fill="#63b8ff" stroke="#63b8ff" points="1369.86,-308.33 1380.45,-307.99 1371.96,-301.65 1369.86,-308.33"/>
</a>
</g>
</g>
<!-- Node5 -->
<g id="Node000005" class="node">
<title>Node5</title>
<g id="a_Node000005"><a xlink:href="Gizmo_8cpp.html" target="_top" xlink:title=" ">
<polygon fill="white" stroke="#666666" points="1039.5,-30 901.5,-30 901.5,0 1039.5,0 1039.5,-30"/>
<text text-anchor="start" x="909.5" y="-18" font-family="Helvetica,sans-Serif" font-size="10.00">src/graphics/components</text>
<text text-anchor="middle" x="970.5" y="-7" font-family="Helvetica,sans-Serif" font-size="10.00">/Gizmo.cpp</text>
</a>
</g>
</g>
<!-- Node4&#45;&gt;Node5 -->
<g id="edge4_Node000004_Node000005" class="edge">
<title>Node4&#45;&gt;Node5</title>
<g id="a_edge4_Node000004_Node000005"><a xlink:title=" ">
<path fill="none" stroke="#63b8ff" d="M1311.41,-131.65C1189.87,-120.25 995.51,-101.29 989.5,-96 970.75,-79.49 968.76,-48.17 969.37,-30"/>
<polygon fill="#63b8ff" stroke="#63b8ff" points="1311.2,-135.14 1321.49,-132.59 1311.86,-128.17 1311.2,-135.14"/>
</a>
</g>
</g>
<!-- Node6 -->
<g id="Node000006" class="node">
<title>Node6</title>
<g id="a_Node000006"><a xlink:href="RotateHandle_8cpp.html" target="_top" xlink:title=" ">
<polygon fill="white" stroke="#666666" points="450.5,-96 312.5,-96 312.5,-66 450.5,-66 450.5,-96"/>
<text text-anchor="start" x="320.5" y="-84" font-family="Helvetica,sans-Serif" font-size="10.00">src/graphics/components</text>
<text text-anchor="middle" x="381.5" y="-73" font-family="Helvetica,sans-Serif" font-size="10.00">/RotateHandle.cpp</text>
</a>
</g>
</g>
<!-- Node4&#45;&gt;Node6 -->
<g id="edge5_Node000004_Node000006" class="edge">
<title>Node4&#45;&gt;Node6</title>
<g id="a_edge5_Node000004_Node000006"><a xlink:title=" ">
<path fill="none" stroke="#63b8ff" d="M1311.34,-132.25C1310.05,-132.16 1308.77,-132.08 1307.5,-132 931.03,-108.02 834.45,-137.42 459.5,-96 456.63,-95.68 453.7,-95.32 450.75,-94.93"/>
<polygon fill="#63b8ff" stroke="#63b8ff" points="1311.11,-135.74 1321.33,-132.94 1311.6,-128.76 1311.11,-135.74"/>
</a>
</g>
</g>
<!-- Node7 -->
<g id="Node000007" class="node">
<title>Node7</title>
<g id="a_Node000007"><a xlink:href="ScaleHandle_8h.html" target="_top" xlink:title=" ">
<polygon fill="white" stroke="#666666" points="606.5,-96 468.5,-96 468.5,-66 606.5,-66 606.5,-96"/>
<text text-anchor="start" x="476.5" y="-84" font-family="Helvetica,sans-Serif" font-size="10.00">src/graphics/components</text>
<text text-anchor="middle" x="537.5" y="-73" font-family="Helvetica,sans-Serif" font-size="10.00">/ScaleHandle.h</text>
</a>
</g>
</g>
<!-- Node4&#45;&gt;Node7 -->
<g id="edge6_Node000004_Node000007" class="edge">
<title>Node4&#45;&gt;Node7</title>
<g id="a_edge6_Node000004_Node000007"><a xlink:title=" ">
<path fill="none" stroke="#63b8ff" d="M1311.34,-132.27C1310.05,-132.18 1308.77,-132.09 1307.5,-132 1000.25,-110.96 921.44,-131.27 615.5,-96 612.63,-95.67 609.71,-95.3 606.76,-94.9"/>
<polygon fill="#63b8ff" stroke="#63b8ff" points="1311.1,-135.76 1321.33,-132.99 1311.61,-128.78 1311.1,-135.76"/>
</a>
</g>
</g>
<!-- Node9 -->
<g id="Node000009" class="node">
<title>Node9</title>
<g id="a_Node000009"><a xlink:href="TranslateHandle_8cpp.html" target="_top" xlink:title=" ">
<polygon fill="white" stroke="#666666" points="762.5,-96 624.5,-96 624.5,-66 762.5,-66 762.5,-96"/>
<text text-anchor="start" x="632.5" y="-84" font-family="Helvetica,sans-Serif" font-size="10.00">src/graphics/components</text>
<text text-anchor="middle" x="693.5" y="-73" font-family="Helvetica,sans-Serif" font-size="10.00">/TranslateHandle.cpp</text>
</a>
</g>
</g>
<!-- Node4&#45;&gt;Node9 -->
<g id="edge9_Node000004_Node000009" class="edge">
<title>Node4&#45;&gt;Node9</title>
<g id="a_edge9_Node000004_Node000009"><a xlink:title=" ">
<path fill="none" stroke="#63b8ff" d="M1311.34,-132.29C1310.05,-132.19 1308.77,-132.1 1307.5,-132 1069.43,-113.89 1008.47,-125.13 771.5,-96 768.63,-95.65 765.71,-95.26 762.76,-94.84"/>
<polygon fill="#63b8ff" stroke="#63b8ff" points="1311.08,-135.78 1321.32,-133.08 1311.63,-128.81 1311.08,-135.78"/>
</a>
</g>
</g>
<!-- Node10 -->
<g id="Node000010" class="node">
<title>Node10</title>
<g id="a_Node000010"><a xlink:href="Camera_8cpp.html" target="_top" xlink:title=" ">
<polygon fill="white" stroke="#666666" points="942,-90.5 781,-90.5 781,-71.5 942,-71.5 942,-90.5"/>
<text text-anchor="middle" x="861.5" y="-78.5" font-family="Helvetica,sans-Serif" font-size="10.00">src/graphics/core/Camera.cpp</text>
</a>
</g>
</g>
<!-- Node4&#45;&gt;Node10 -->
<g id="edge10_Node000004_Node000010" class="edge">
<title>Node4&#45;&gt;Node10</title>
<g id="a_edge10_Node000004_Node000010"><a xlink:title=" ">
<path fill="none" stroke="#63b8ff" d="M1310.89,-131.52C1199.36,-121.05 1022.76,-104.15 956.5,-96 943.43,-94.39 929.38,-92.44 916.2,-90.52"/>
<polygon fill="#63b8ff" stroke="#63b8ff" points="1310.86,-135.03 1321.14,-132.48 1311.51,-128.06 1310.86,-135.03"/>
</a>
</g>
</g>
<!-- Node11 -->
<g id="Node000011" class="node">
<title>Node11</title>
<g id="a_Node000011"><a xlink:href="Scene_8cpp.html" target="_top" xlink:title=" ">
<polygon fill="white" stroke="#666666" points="2426.5,-90.5 2274.5,-90.5 2274.5,-71.5 2426.5,-71.5 2426.5,-90.5"/>
<text text-anchor="middle" x="2350.5" y="-78.5" font-family="Helvetica,sans-Serif" font-size="10.00">src/graphics/core/Scene.cpp</text>
</a>
</g>
</g>
<!-- Node4&#45;&gt;Node11 -->
<g id="edge11_Node000004_Node000011" class="edge">
<title>Node4&#45;&gt;Node11</title>
<g id="a_edge11_Node000004_Node000011"><a xlink:title=" ">
<path fill="none" stroke="#63b8ff" d="M1503.84,-139C1662.87,-135.74 1990.15,-125.72 2265.5,-96 2278.14,-94.64 2291.76,-92.63 2304.31,-90.57"/>
<polygon fill="#63b8ff" stroke="#63b8ff" points="1503.54,-135.5 1493.61,-139.2 1503.68,-142.5 1503.54,-135.5"/>
</a>
</g>
</g>
<!-- Node12 -->
<g id="Node000012" class="node">
<title>Node12</title>
<g id="a_Node000012"><a xlink:href="SceneManager_8cpp.html" target="_top" xlink:title=" ">
<polygon fill="white" stroke="#666666" points="2256.5,-90.5 2062.5,-90.5 2062.5,-71.5 2256.5,-71.5 2256.5,-90.5"/>
<text text-anchor="middle" x="2159.5" y="-78.5" font-family="Helvetica,sans-Serif" font-size="10.00">src/graphics/core/SceneManager.cpp</text>
</a>
</g>
</g>
<!-- Node4&#45;&gt;Node12 -->
<g id="edge12_Node000004_Node000012" class="edge">
<title>Node4&#45;&gt;Node12</title>
<g id="a_edge12_Node000004_Node000012"><a xlink:title=" ">
<path fill="none" stroke="#63b8ff" d="M1503.63,-135.76C1629.96,-129.1 1858.69,-115.56 2053.5,-96 2068.65,-94.48 2084.96,-92.5 2100.15,-90.5"/>
<polygon fill="#63b8ff" stroke="#63b8ff" points="1503.39,-132.27 1493.59,-136.29 1503.76,-139.26 1503.39,-132.27"/>
</a>
</g>
</g>
<!-- Node13 -->
<g id="Node000013" class="node">
<title>Node13</title>
<g id="a_Node000013"><a xlink:href="SceneObject_8cpp.html" target="_top" xlink:title=" ">
<polygon fill="white" stroke="#666666" points="1680,-90.5 1497,-90.5 1497,-71.5 1680,-71.5 1680,-90.5"/>
<text text-anchor="middle" x="1588.5" y="-78.5" font-family="Helvetica,sans-Serif" font-size="10.00">src/graphics/core/SceneObject.cpp</text>
</a>
</g>
</g>
<!-- Node4&#45;&gt;Node13 -->
<g id="edge13_Node000004_Node000013" class="edge">
<title>Node4&#45;&gt;Node13</title>
<g id="a_edge13_Node000004_Node000013"><a xlink:title=" ">
<path fill="none" stroke="#63b8ff" d="M1443.65,-128.82C1478.65,-117.5 1530.9,-100.62 1562.15,-90.52"/>
<polygon fill="#63b8ff" stroke="#63b8ff" points="1442.26,-125.59 1433.82,-131.99 1444.41,-132.25 1442.26,-125.59"/>
</a>
</g>
</g>
<!-- Node14 -->
<g id="Node000014" class="node">
<title>Node14</title>
<g id="a_Node000014"><a xlink:href="SceneSerializer_8cpp.html" target="_top" xlink:title=" ">
<polygon fill="white" stroke="#666666" points="2044,-90.5 1847,-90.5 1847,-71.5 2044,-71.5 2044,-90.5"/>
<text text-anchor="middle" x="1945.5" y="-78.5" font-family="Helvetica,sans-Serif" font-size="10.00">src/graphics/core/SceneSerializer.cpp</text>
</a>
</g>
</g>
<!-- Node4&#45;&gt;Node14 -->
<g id="edge14_Node000004_Node000014" class="edge">
<title>Node4&#45;&gt;Node14</title>
<g id="a_edge14_Node000004_Node000014"><a xlink:title=" ">
<path fill="none" stroke="#63b8ff" d="M1504.01,-131.29C1591.42,-122.78 1723.69,-109.44 1838.5,-96 1852.83,-94.32 1868.22,-92.39 1882.73,-90.5"/>
<polygon fill="#63b8ff" stroke="#63b8ff" points="1503.46,-127.83 1493.85,-132.28 1504.14,-134.8 1503.46,-127.83"/>
</a>
</g>
</g>
<!-- Node15 -->
<g id="Node000015" class="node">
<title>Node15</title>
<g id="a_Node000015"><a xlink:href="HierarchyWidget_8h.html" target="_top" xlink:title=" ">
<polygon fill="white" stroke="#666666" points="294,-90.5 157,-90.5 157,-71.5 294,-71.5 294,-90.5"/>
<text text-anchor="middle" x="225.5" y="-78.5" font-family="Helvetica,sans-Serif" font-size="10.00">src/ui/HierarchyWidget.h</text>
</a>
</g>
</g>
<!-- Node4&#45;&gt;Node15 -->
<g id="edge15_Node000004_Node000015" class="edge">
<title>Node4&#45;&gt;Node15</title>
<g id="a_edge15_Node000004_Node000015"><a xlink:title=" ">
<path fill="none" stroke="#63b8ff" d="M1311.34,-132.24C1310.05,-132.16 1308.77,-132.08 1307.5,-132 861.8,-105.08 747.47,-143.56 303.5,-96 291.46,-94.71 278.48,-92.65 266.63,-90.51"/>
<polygon fill="#63b8ff" stroke="#63b8ff" points="1311.12,-135.73 1321.34,-132.91 1311.59,-128.75 1311.12,-135.73"/>
</a>
</g>
</g>
<!-- Node18 -->
<g id="Node000018" class="node">
<title>Node18</title>
<g id="a_Node000018"><a xlink:href="ForcesInspectorWidget_8cpp.html" target="_top" xlink:title=" ">
<polygon fill="white" stroke="#666666" points="1168.5,-96 998.5,-96 998.5,-66 1168.5,-66 1168.5,-96"/>
<text text-anchor="start" x="1006.5" y="-84" font-family="Helvetica,sans-Serif" font-size="10.00">src/ui/inspector/ForcesInspector</text>
<text text-anchor="middle" x="1083.5" y="-73" font-family="Helvetica,sans-Serif" font-size="10.00">Widget.cpp</text>
</a>
</g>
</g>
<!-- Node4&#45;&gt;Node18 -->
<g id="edge18_Node000004_Node000018" class="edge">
<title>Node4&#45;&gt;Node18</title>
<g id="a_edge18_Node000004_Node000018"><a xlink:title=" ">
<path fill="none" stroke="#63b8ff" d="M1350.23,-130.16C1297.64,-120.66 1219.27,-106.51 1161.08,-96.01"/>
<polygon fill="#63b8ff" stroke="#63b8ff" points="1349.92,-133.66 1360.39,-131.99 1351.17,-126.77 1349.92,-133.66"/>
</a>
</g>
</g>
<!-- Node19 -->
<g id="Node000019" class="node">
<title>Node19</title>
<g id="a_Node000019"><a xlink:href="GlobalsInspectorWidget_8cpp.html" target="_top" xlink:title=" ">
<polygon fill="white" stroke="#666666" points="1829,-96 1698,-96 1698,-66 1829,-66 1829,-96"/>
<text text-anchor="start" x="1706" y="-84" font-family="Helvetica,sans-Serif" font-size="10.00">src/ui/inspector/Globals</text>
<text text-anchor="middle" x="1763.5" y="-73" font-family="Helvetica,sans-Serif" font-size="10.00">InspectorWidget.cpp</text>
</a>
</g>
</g>
<!-- Node4&#45;&gt;Node19 -->
<g id="edge19_Node000004_Node000019" class="edge">
<title>Node4&#45;&gt;Node19</title>
<g id="a_edge19_Node000004_Node000019"><a xlink:title=" ">
<path fill="none" stroke="#63b8ff" d="M1474.84,-130.46C1532.03,-121.8 1616.25,-108.71 1689.5,-96 1692.21,-95.53 1694.96,-95.04 1697.75,-94.55"/>
<polygon fill="#63b8ff" stroke="#63b8ff" points="1474.2,-127.02 1464.84,-131.98 1475.25,-133.94 1474.2,-127.02"/>
</a>
</g>
</g>
<!-- Node4&#45;&gt;Node20 -->
<g id="edge20_Node000004_Node000020" class="edge">
<title>Node4&#45;&gt;Node20</title>
<g id="a_edge20_Node000004_Node000020"><a xlink:title=" ">
<path fill="none" stroke="#63b8ff" d="M1311.34,-132.23C1310.05,-132.15 1308.77,-132.07 1307.5,-132 792.56,-102.15 660.5,-149.71 147.5,-96 144.76,-95.71 141.98,-95.39 139.17,-95.03"/>
<polygon fill="#63b8ff" stroke="#63b8ff" points="1311.13,-135.72 1321.34,-132.88 1311.59,-128.74 1311.13,-135.72"/>
</a>
</g>
</g>
<!-- Node21 -->
<g id="Node000021" class="node">
<title>Node21</title>
<g id="a_Node000021"><a xlink:href="PhysicsInspectorWidget_8cpp.html" target="_top" xlink:title=" ">
<polygon fill="white" stroke="#666666" points="1318,-96 1187,-96 1187,-66 1318,-66 1318,-96"/>
<text text-anchor="start" x="1195" y="-84" font-family="Helvetica,sans-Serif" font-size="10.00">src/ui/inspector/Physics</text>
<text text-anchor="middle" x="1252.5" y="-73" font-family="Helvetica,sans-Serif" font-size="10.00">InspectorWidget.cpp</text>
</a>
</g>
</g>
<!-- Node4&#45;&gt;Node21 -->
<g id="edge21_Node000004_Node000021" class="edge">
<title>Node4&#45;&gt;Node21</title>
<g id="a_edge21_Node000004_Node000021"><a xlink:title=" ">
<path fill="none" stroke="#63b8ff" d="M1375.59,-128.46C1350.66,-119.05 1315.97,-105.95 1289.76,-96.06"/>
<polygon fill="#63b8ff" stroke="#63b8ff" points="1374.37,-131.74 1384.96,-131.99 1376.84,-125.19 1374.37,-131.74"/>
</a>
</g>
</g>
<!-- Node22 -->
<g id="Node000022" class="node">
<title>Node22</title>
<g id="a_Node000022"><a xlink:href="TransformInspectorWidget_8cpp.html" target="_top" xlink:title=" ">
<polygon fill="white" stroke="#666666" points="1479,-96 1336,-96 1336,-66 1479,-66 1479,-96"/>
<text text-anchor="start" x="1344" y="-84" font-family="Helvetica,sans-Serif" font-size="10.00">src/ui/inspector/Transform</text>
<text text-anchor="middle" x="1407.5" y="-73" font-family="Helvetica,sans-Serif" font-size="10.00">InspectorWidget.cpp</text>
</a>
</g>
</g>
<!-- Node4&#45;&gt;Node22 -->
<g id="edge22_Node000004_Node000022" class="edge">
<title>Node4&#45;&gt;Node22</title>
<g id="a_edge22_Node000004_Node000022"><a xlink:title=" ">
<path fill="none" stroke="#63b8ff" d="M1407.5,-121.65C1407.5,-113.36 1407.5,-103.78 1407.5,-96.11"/>
<polygon fill="#63b8ff" stroke="#63b8ff" points="1404,-121.87 1407.5,-131.87 1411,-121.87 1404,-121.87"/>
</a>
</g>
</g>
<!-- Node7&#45;&gt;Node5 -->
<g id="edge7_Node000007_Node000005" class="edge">
<title>Node7&#45;&gt;Node5</title>
<g id="a_edge7_Node000007_Node000005"><a xlink:title=" ">
<path fill="none" stroke="#63b8ff" d="M616.93,-65.81C721.75,-49.16 831.94,-34.12 901.33,-24.96"/>
<polygon fill="#63b8ff" stroke="#63b8ff" points="616.12,-62.39 606.8,-67.42 617.23,-69.3 616.12,-62.39"/>
</a>
</g>
</g>
<!-- Node8 -->
<g id="Node000008" class="node">
<title>Node8</title>
<g id="a_Node000008"><a xlink:href="ScaleHandle_8cpp.html" target="_top" xlink:title=" ">
<polygon fill="white" stroke="#666666" points="606.5,-30 468.5,-30 468.5,0 606.5,0 606.5,-30"/>
<text text-anchor="start" x="476.5" y="-18" font-family="Helvetica,sans-Serif" font-size="10.00">src/graphics/components</text>
<text text-anchor="middle" x="537.5" y="-7" font-family="Helvetica,sans-Serif" font-size="10.00">/ScaleHandle.cpp</text>
</a>
</g>
</g>
<!-- Node7&#45;&gt;Node8 -->
<g id="edge8_Node000007_Node000008" class="edge">
<title>Node7&#45;&gt;Node8</title>
<g id="a_edge8_Node000007_Node000008"><a xlink:title=" ">
<path fill="none" stroke="#63b8ff" d="M537.5,-55.54C537.5,-46.96 537.5,-37.61 537.5,-30.16"/>
<polygon fill="#63b8ff" stroke="#63b8ff" points="534,-55.8 537.5,-65.8 541,-55.8 534,-55.8"/>
</a>
</g>
</g>
<!-- Node16 -->
<g id="Node000016" class="node">
<title>Node16</title>
<g id="a_Node000016"><a xlink:href="HierarchyWidget_8cpp.html" target="_top" xlink:title=" ">
<polygon fill="white" stroke="#666666" points="299.5,-24.5 151.5,-24.5 151.5,-5.5 299.5,-5.5 299.5,-24.5"/>
<text text-anchor="middle" x="225.5" y="-12.5" font-family="Helvetica,sans-Serif" font-size="10.00">src/ui/HierarchyWidget.cpp</text>
</a>
</g>
</g>
<!-- Node15&#45;&gt;Node16 -->
<g id="edge16_Node000015_Node000016" class="edge">
<title>Node15&#45;&gt;Node16</title>
<g id="a_edge16_Node000015_Node000016"><a xlink:title=" ">
<path fill="none" stroke="#63b8ff" d="M225.5,-61.08C225.5,-49.13 225.5,-34.22 225.5,-24.91"/>
<polygon fill="#63b8ff" stroke="#63b8ff" points="222,-61.37 225.5,-71.37 229,-61.37 222,-61.37"/>
</a>
</g>
</g>
<!-- Node17 -->
<g id="Node000017" class="node">
<title>Node17</title>
<g id="a_Node000017"><a xlink:href="MainWindow_8cpp.html" target="_top" xlink:title=" ">
<polygon fill="white" stroke="#666666" points="2556.5,-24.5 2428.5,-24.5 2428.5,-5.5 2556.5,-5.5 2556.5,-24.5"/>
<text text-anchor="middle" x="2492.5" y="-12.5" font-family="Helvetica,sans-Serif" font-size="10.00">src/ui/MainWindow.cpp</text>
</a>
</g>
</g>
<!-- Node15&#45;&gt;Node17 -->
<g id="edge17_Node000015_Node000017" class="edge">
<title>Node15&#45;&gt;Node17</title>
<g id="a_edge17_Node000015_Node000017"><a xlink:title=" ">
<path fill="none" stroke="#63b8ff" d="M276.25,-69.72C285.29,-68.22 294.65,-66.89 303.5,-66 731.49,-22.96 2113.5,-16.94 2428.28,-16.13"/>
<polygon fill="#63b8ff" stroke="#63b8ff" points="275.47,-66.3 266.22,-71.46 276.67,-73.2 275.47,-66.3"/>
</a>
</g>
</g>
<!-- Node25&#45;&gt;Node11 -->
<g id="edge27_Node000025_Node000011" class="edge">
<title>Node25&#45;&gt;Node11</title>
<g id="a_edge27_Node000025_Node000011"><a xlink:title=" ">
<path fill="none" stroke="#63b8ff" d="M2224.49,-237.4C2222.68,-211.21 2223.21,-163.2 2246.5,-132 2262.62,-110.41 2290.51,-97.7 2313.35,-90.51"/>
<polygon fill="#63b8ff" stroke="#63b8ff" points="2221.01,-237.81 2225.38,-247.46 2227.98,-237.19 2221.01,-237.81"/>
</a>
</g>
</g>
<!-- Node25&#45;&gt;Node12 -->
<g id="edge28_Node000025_Node000012" class="edge">
<title>Node25&#45;&gt;Node12</title>
<g id="a_edge28_Node000025_Node000012"><a xlink:title=" ">
<path fill="none" stroke="#63b8ff" d="M2219.39,-237.54C2205.06,-200.33 2173.19,-117.57 2162.83,-90.64"/>
<polygon fill="#63b8ff" stroke="#63b8ff" points="2216.23,-239.06 2223.09,-247.13 2222.76,-236.54 2216.23,-239.06"/>
</a>
</g>
</g>
<!-- Node25&#45;&gt;Node17 -->
<g id="edge44_Node000025_Node000017" class="edge">
<title>Node25&#45;&gt;Node17</title>
<g id="a_edge44_Node000025_Node000017"><a xlink:title=" ">
<path fill="none" stroke="#63b8ff" d="M2302.48,-253.58C2400.67,-245.62 2564.42,-214.38 2609.5,-96 2614.25,-83.54 2616.85,-77.13 2609.5,-66 2594.84,-43.79 2568.05,-31.41 2543.81,-24.52"/>
<polygon fill="#63b8ff" stroke="#63b8ff" points="2302.02,-250.11 2292.3,-254.35 2302.54,-257.09 2302.02,-250.11"/>
</a>
</g>
</g>
<!-- Node25&#45;&gt;Node24 -->
<g id="edge45_Node000025_Node000024" class="edge">
<title>Node25&#45;&gt;Node24</title>
<g id="a_edge45_Node000025_Node000024"><a xlink:title=" ">
<path fill="none" stroke="#63b8ff" d="M2253.4,-243.01C2301.89,-219.59 2402.69,-170.91 2443.63,-151.13"/>
<polygon fill="#63b8ff" stroke="#63b8ff" points="2251.65,-239.97 2244.16,-247.47 2254.69,-246.27 2251.65,-239.97"/>
</a>
</g>
</g>
<!-- Node26 -->
<g id="Node000026" class="node">
<title>Node26</title>
<g id="a_Node000026"><a xlink:href="SceneManager_8h.html" target="_top" xlink:title=" ">
<polygon fill="white" stroke="#666666" points="2122.5,-206 1940.5,-206 1940.5,-187 2122.5,-187 2122.5,-206"/>
<text text-anchor="middle" x="2031.5" y="-194" font-family="Helvetica,sans-Serif" font-size="10.00">src/graphics/core/SceneManager.h</text>
</a>
</g>
</g>
<!-- Node25&#45;&gt;Node26 -->
<g id="edge29_Node000025_Node000026" class="edge">
<title>Node25&#45;&gt;Node26</title>
<g id="a_edge29_Node000025_Node000026"><a xlink:title=" ">
<path fill="none" stroke="#63b8ff" d="M2188.53,-244.61C2150.81,-233.29 2093.84,-216.2 2059.89,-206.02"/>
<polygon fill="#63b8ff" stroke="#63b8ff" points="2187.56,-247.97 2198.15,-247.49 2189.57,-241.27 2187.56,-247.97"/>
</a>
</g>
</g>
<!-- Node29 -->
<g id="Node000029" class="node">
<title>Node29</title>
<g id="a_Node000029"><a xlink:href="main_8cpp.html" target="_top" xlink:title=" ">
<polygon fill="white" stroke="#666666" points="2600,-90.5 2521,-90.5 2521,-71.5 2600,-71.5 2600,-90.5"/>
<text text-anchor="middle" x="2560.5" y="-78.5" font-family="Helvetica,sans-Serif" font-size="10.00">src/main.cpp</text>
</a>
</g>
</g>
<!-- Node25&#45;&gt;Node29 -->
<g id="edge43_Node000025_Node000029" class="edge">
<title>Node25&#45;&gt;Node29</title>
<g id="a_edge43_Node000025_Node000029"><a xlink:title=" ">
<path fill="none" stroke="#63b8ff" d="M2302.44,-250.63C2373.87,-241.52 2478.93,-216.98 2541.5,-151 2557.4,-134.23 2560.23,-105.4 2560.58,-90.89"/>
<polygon fill="#63b8ff" stroke="#63b8ff" points="2301.66,-247.2 2292.15,-251.87 2302.5,-254.15 2301.66,-247.2"/>
</a>
</g>
</g>
<!-- Node26&#45;&gt;Node4 -->
<g id="edge33_Node000026_Node000004" class="edge">
<title>Node26&#45;&gt;Node4</title>
<g id="a_edge33_Node000026_Node000004"><a xlink:title=" ">
<path fill="none" stroke="#63b8ff" d="M1930.4,-186.91C1809.13,-176.61 1607.96,-159.53 1493.72,-149.82"/>
<polygon fill="#63b8ff" stroke="#63b8ff" points="1930.17,-190.41 1940.43,-187.76 1930.76,-183.43 1930.17,-190.41"/>
</a>
</g>
</g>
<!-- Node26&#45;&gt;Node5 -->
<g id="edge30_Node000026_Node000005" class="edge">
<title>Node26&#45;&gt;Node5</title>
<g id="a_edge30_Node000026_Node000005"><a xlink:title=" ">
<path fill="none" stroke="#63b8ff" d="M2067,-183.84C2109.39,-170.19 2182.59,-147.48 2246.5,-132 2329.61,-111.86 2380.98,-161.88 2435.5,-96 2444,-85.73 2444.77,-75.59 2435.5,-66 2386.48,-15.28 1323.16,-14.91 1039.52,-15.72"/>
<polygon fill="#63b8ff" stroke="#63b8ff" points="2065.86,-180.53 2057.42,-186.94 2068.01,-187.19 2065.86,-180.53"/>
</a>
</g>
</g>
<!-- Node26&#45;&gt;Node12 -->
<g id="edge31_Node000026_Node000012" class="edge">
<title>Node26&#45;&gt;Node12</title>
<g id="a_edge31_Node000026_Node000012"><a xlink:title=" ">
<path fill="none" stroke="#63b8ff" d="M2053.78,-181.35C2066.22,-173.07 2081.73,-162.09 2094.5,-151 2117.36,-131.14 2140.94,-104.19 2152.39,-90.59"/>
<polygon fill="#63b8ff" stroke="#63b8ff" points="2051.81,-178.46 2045.36,-186.87 2055.64,-184.32 2051.81,-178.46"/>
</a>
</g>
</g>
<!-- Node26&#45;&gt;Node13 -->
<g id="edge32_Node000026_Node000013" class="edge">
<title>Node26&#45;&gt;Node13</title>
<g id="a_edge32_Node000026_Node000013"><a xlink:title=" ">
<path fill="none" stroke="#63b8ff" d="M1985.08,-184.59C1947.83,-175.75 1894.23,-162.87 1847.5,-151 1764.97,-130.03 1668.08,-103.78 1619.54,-90.52"/>
<polygon fill="#63b8ff" stroke="#63b8ff" points="1984.59,-188.07 1995.13,-186.97 1986.21,-181.26 1984.59,-188.07"/>
</a>
</g>
</g>
<!-- Node26&#45;&gt;Node19 -->
<g id="edge41_Node000026_Node000019" class="edge">
<title>Node26&#45;&gt;Node19</title>
<g id="a_edge41_Node000026_Node000019"><a xlink:title=" ">
<path fill="none" stroke="#63b8ff" d="M1988.71,-184.15C1960.6,-176.15 1923.29,-164.48 1891.5,-151 1853.38,-134.84 1811.57,-111.06 1786.44,-96.07"/>
<polygon fill="#63b8ff" stroke="#63b8ff" points="1988.05,-187.6 1998.63,-186.93 1989.94,-180.86 1988.05,-187.6"/>
</a>
</g>
</g>
<!-- Node26&#45;&gt;Node20 -->
<g id="edge42_Node000026_Node000020" class="edge">
<title>Node26&#45;&gt;Node20</title>
<g id="a_edge42_Node000026_Node000020"><a xlink:title=" ">
<path fill="none" stroke="#63b8ff" d="M1930.2,-193.63C1760.63,-189.77 1426.67,-178.81 1312.5,-151 1292.2,-146.06 1289.87,-136.64 1269.5,-132 1026.27,-76.57 395.59,-122.1 147.5,-96 144.76,-95.71 141.98,-95.38 139.17,-95.02"/>
<polygon fill="#63b8ff" stroke="#63b8ff" points="1930.3,-197.14 1940.38,-193.86 1930.46,-190.14 1930.3,-197.14"/>
</a>
</g>
</g>
<!-- Node26&#45;&gt;Node24 -->
<g id="edge40_Node000026_Node000024" class="edge">
<title>Node26&#45;&gt;Node24</title>
<g id="a_edge40_Node000026_Node000024"><a xlink:title=" ">
<path fill="none" stroke="#63b8ff" d="M2110.7,-185.74C2191.4,-175.79 2315.32,-160.52 2392.23,-151.04"/>
<polygon fill="#63b8ff" stroke="#63b8ff" points="2110.08,-182.29 2100.59,-186.98 2110.94,-189.23 2110.08,-182.29"/>
</a>
</g>
</g>
<!-- Node27 -->
<g id="Node000027" class="node">
<title>Node27</title>
<g id="a_Node000027"><a xlink:href="SceneSerializer_8h.html" target="_top" xlink:title=" ">
<polygon fill="white" stroke="#666666" points="2085,-151 1900,-151 1900,-132 2085,-132 2085,-151"/>
<text text-anchor="middle" x="1992.5" y="-139" font-family="Helvetica,sans-Serif" font-size="10.00">src/graphics/core/SceneSerializer.h</text>
</a>
</g>
</g>
<!-- Node26&#45;&gt;Node27 -->
<g id="edge34_Node000026_Node000027" class="edge">
<title>Node26&#45;&gt;Node27</title>
<g id="a_edge34_Node000026_Node000027"><a xlink:title=" ">
<path fill="none" stroke="#63b8ff" d="M2019.12,-178.67C2012.36,-169.5 2004.29,-158.52 1998.82,-151.09"/>
<polygon fill="#63b8ff" stroke="#63b8ff" points="2016.31,-180.77 2025.06,-186.75 2021.95,-176.62 2016.31,-180.77"/>
</a>
</g>
</g>
<!-- Node28 -->
<g id="Node000028" class="node">
<title>Node28</title>
<g id="a_Node000028"><a xlink:href="MainWindow_8h.html" target="_top" xlink:title=" ">
<polygon fill="white" stroke="#666666" points="2372,-151 2255,-151 2255,-132 2372,-132 2372,-151"/>
<text text-anchor="middle" x="2313.5" y="-139" font-family="Helvetica,sans-Serif" font-size="10.00">src/ui/MainWindow.h</text>
</a>
</g>
</g>
<!-- Node26&#45;&gt;Node28 -->
<g id="edge37_Node000026_Node000028" class="edge">
<title>Node26&#45;&gt;Node28</title>
<g id="a_edge37_Node000026_Node000028"><a xlink:title=" ">
<path fill="none" stroke="#63b8ff" d="M2086.69,-185.13C2139.56,-175.19 2218.4,-160.37 2267.84,-151.08"/>
<polygon fill="#63b8ff" stroke="#63b8ff" points="2085.99,-181.7 2076.81,-186.98 2087.28,-188.58 2085.99,-181.7"/>
</a>
</g>
</g>
<!-- Node27&#45;&gt;Node12 -->
<g id="edge35_Node000027_Node000012" class="edge">
<title>Node27&#45;&gt;Node12</title>
<g id="a_edge35_Node000027_Node000012"><a xlink:title=" ">
<path fill="none" stroke="#63b8ff" d="M2026.27,-128.67C2058.56,-117.36 2106.48,-100.57 2135.19,-90.52"/>
<polygon fill="#63b8ff" stroke="#63b8ff" points="2025.06,-125.38 2016.78,-131.99 2027.38,-131.99 2025.06,-125.38"/>
</a>
</g>
</g>
<!-- Node27&#45;&gt;Node14 -->
<g id="edge36_Node000027_Node000014" class="edge">
<title>Node27&#45;&gt;Node14</title>
<g id="a_edge36_Node000027_Node000014"><a xlink:title=" ">
<path fill="none" stroke="#63b8ff" d="M1979.2,-123.95C1970.5,-113.12 1959.49,-99.41 1952.46,-90.67"/>
<polygon fill="#63b8ff" stroke="#63b8ff" points="1976.57,-126.26 1985.56,-131.87 1982.03,-121.88 1976.57,-126.26"/>
</a>
</g>
</g>
<!-- Node28&#45;&gt;Node17 -->
<g id="edge39_Node000028_Node000017" class="edge">
<title>Node28&#45;&gt;Node17</title>
<g id="a_edge39_Node000028_Node000017"><a xlink:title=" ">
<path fill="none" stroke="#63b8ff" d="M2371.18,-129.93C2409.22,-121.87 2454.52,-109.82 2468.5,-96 2488.3,-76.43 2491.9,-41.22 2492.46,-24.83"/>
<polygon fill="#63b8ff" stroke="#63b8ff" points="2370.27,-126.55 2361.19,-132 2371.69,-133.4 2370.27,-126.55"/>
</a>
</g>
</g>
<!-- Node28&#45;&gt;Node29 -->
<g id="edge38_Node000028_Node000029" class="edge">
<title>Node28&#45;&gt;Node29</title>
<g id="a_edge38_Node000028_Node000029"><a xlink:title=" ">
<path fill="none" stroke="#63b8ff" d="M2362.07,-129.68C2401.15,-120.89 2457.44,-108.01 2506.5,-96 2513.56,-94.27 2521.11,-92.36 2528.27,-90.51"/>
<polygon fill="#63b8ff" stroke="#63b8ff" points="2361.01,-126.33 2352.02,-131.94 2362.55,-133.16 2361.01,-126.33"/>
</a>
</g>
</g>
<!-- Node32&#45;&gt;Node3 -->
<g id="edge50_Node000032_Node000003" class="edge">
<title>Node32&#45;&gt;Node3</title>
<g id="a_edge50_Node000032_Node000003"><a xlink:title=" ">
<path fill="none" stroke="#63b8ff" d="M1524.86,-359.61C1494.31,-348.91 1456.47,-335.65 1432.16,-327.14"/>
<polygon fill="#63b8ff" stroke="#63b8ff" points="1523.9,-362.98 1534.5,-362.99 1526.22,-356.38 1523.9,-362.98"/>
</a>
</g>
</g>
<!-- Node32&#45;&gt;Node23 -->
<g id="edge51_Node000032_Node000023" class="edge">
<title>Node32&#45;&gt;Node23</title>
<g id="a_edge51_Node000032_Node000023"><a xlink:title=" ">
<path fill="none" stroke="#63b8ff" d="M1574.41,-352.38C1575.79,-337.1 1580.35,-318.45 1593.5,-308 1631.9,-277.49 2426.81,-277.83 2475.5,-272 2480.05,-271.46 2484.75,-270.78 2489.46,-270.01"/>
<polygon fill="#63b8ff" stroke="#63b8ff" points="1570.9,-352.59 1573.9,-362.75 1577.89,-352.94 1570.9,-352.59"/>
</a>
</g>
</g>
<!-- Node33 -->
<g id="Node000033" class="node">
<title>Node33</title>
<g id="a_Node000033"><a xlink:href="SolverDialog_8cpp.html" target="_top" xlink:title=" ">
<polygon fill="white" stroke="#666666" points="1730.5,-327 1602.5,-327 1602.5,-308 1730.5,-308 1730.5,-327"/>
<text text-anchor="middle" x="1666.5" y="-315" font-family="Helvetica,sans-Serif" font-size="10.00">src/ui/SolverDialog.cpp</text>
</a>
</g>
</g>
<!-- Node32&#45;&gt;Node33 -->
<g id="edge52_Node000032_Node000033" class="edge">
<title>Node32&#45;&gt;Node33</title>
<g id="a_edge52_Node000032_Node000033"><a xlink:title=" ">
<path fill="none" stroke="#63b8ff" d="M1605.4,-357.35C1621.56,-347.07 1640.52,-335.02 1652.98,-327.09"/>
<polygon fill="#63b8ff" stroke="#63b8ff" points="1603.33,-354.52 1596.77,-362.84 1607.09,-360.43 1603.33,-354.52"/>
</a>
</g>
</g>
</g>
</svg>
