<?xml version="1.0" encoding="UTF-8" standalone="no"?>
<!DOCTYPE svg PUBLIC "-//W3C//DTD SVG 1.1//EN"
 "http://www.w3.org/Graphics/SVG/1.1/DTD/svg11.dtd">
<!-- Generated by graphviz version 2.43.0 (0)
 -->
<!-- Title: src/physics/solver/OneUnknownSolver.h Pages: 1 -->
<!--zoomable 467 -->

<svg id="main" version="1.1" xmlns="http://www.w3.org/2000/svg" xmlns:xlink="http://www.w3.org/1999/xlink" xml:space="preserve" onload="init(evt)">
<style type="text/css"><![CDATA[
.node, .edge {opacity: 0.7;}
.node.selected, .edge.selected {opacity: 1;}
.edge:hover path { stroke: red; }
.edge:hover polygon { stroke: red; fill: red; }
]]></style>

<defs>
  <circle id="rim" cx="0" cy="0" r="7"/>
  <circle id="rim2" cx="0" cy="0" r="3.5"/>
  <g id="zoomPlus">
    <use xlink:href="#rim" fill="#404040"><set attributeName="fill" to="#808080" begin="zoomplus.mouseover" end="zoomplus.mouseout"/></use>
    <path d="M-4,0h8M0,-4v8" fill="none" stroke="white" stroke-width="1.5" pointer-events="none"/>
  </g>
  <g id="zoomMin">
    <use xlink:href="#rim" fill="#404040"><set attributeName="fill" to="#808080" begin="zoomminus.mouseover" end="zoomminus.mouseout"/></use>
    <path d="M-4,0h8" fill="none" stroke="white" stroke-width="1.5" pointer-events="none"/>
  </g>
  <g id="arrowUp" transform="translate(30 24)">
    <use xlink:href="#rim"/>
    <path pointer-events="none" fill="none" stroke="white" stroke-width="1.5" d="M0,-3.0v7 M-2.5,-0.5L0,-3.0L2.5,-0.5"/>
  </g>
  <g id="arrowRight" transform="rotate(90) translate(36 -43)">
    <use xlink:href="#rim"/>
    <path pointer-events="none" fill="none" stroke="white" stroke-width="1.5" d="M0,-3.0v7 M-2.5,-0.5L0,-3.0L2.5,-0.5"/>
  </g>
  <g id="arrowDown" transform="rotate(180) translate(-30 -48)">
    <use xlink:href="#rim"/>
    <path pointer-events="none" fill="none" stroke="white" stroke-width="1.5" d="M0,-3.0v7 M-2.5,-0.5L0,-3.0L2.5,-0.5"/>
  </g>
  <g id="arrowLeft" transform="rotate(270) translate(-36 17)">
    <use xlink:href="#rim"/>
    <path pointer-events="none" fill="none" stroke="white" stroke-width="1.5" d="M0,-3.0v7 M-2.5,-0.5L0,-3.0L2.5,-0.5"/>
  </g>
  <g id="resetDef">
    <use xlink:href="#rim2" fill="#404040"><set attributeName="fill" to="#808080" begin="reset.mouseover" end="reset.mouseout"/></use>
  </g>
</defs>
<script type="application/ecmascript">
var viewWidth = 2631;
var viewHeight = 467;
var sectionId = 'dynsection-1';
</script>
<script type="application/ecmascript" xlink:href="svg.min.js"/>
<svg id="graph" class="graph">
<g id="viewport">
<title>src/physics/solver/OneUnknownSolver.h</title>
<!-- Node1 -->
<g id="Node000001" class="node">
<title>Node1</title>
<g id="a_Node000001"><a xlink:title=" ">
<polygon fill="#999999" stroke="#666666" points="1328.75,-459 1204.75,-459 1204.75,-429 1328.75,-429 1328.75,-459"/>
<text text-anchor="start" x="1212.75" y="-447" font-family="Helvetica,sans-Serif" font-size="10.00">src/physics/solver</text>
<text text-anchor="middle" x="1266.75" y="-436" font-family="Helvetica,sans-Serif" font-size="10.00">/OneUnknownSolver.h</text>
</a>
</g>
</g>
<!-- Node2 -->
<g id="Node000002" class="node">
<title>Node2</title>
<g id="a_Node000002"><a xlink:href="PhysicsSystem_8cpp.html" target="_top" xlink:title=" ">
<polygon fill="white" stroke="#666666" points="943.25,-266.5 776.25,-266.5 776.25,-247.5 943.25,-247.5 943.25,-266.5"/>
<text text-anchor="middle" x="859.75" y="-254.5" font-family="Helvetica,sans-Serif" font-size="10.00">src/physics/PhysicsSystem.cpp</text>
</a>
</g>
</g>
<!-- Node1&#45;&gt;Node2 -->
<g id="edge1_Node000001_Node000002" class="edge">
<title>Node1&#45;&gt;Node2</title>
<g id="a_edge1_Node000001_Node000002"><a xlink:title=" ">
<path fill="none" stroke="#63b8ff" d="M1226.64,-424.76C1140.52,-385.62 940.72,-294.8 878.56,-266.55"/>
<polygon fill="#63b8ff" stroke="#63b8ff" points="1225.28,-427.99 1235.83,-428.94 1228.17,-421.62 1225.28,-427.99"/>
</a>
</g>
</g>
<!-- Node3 -->
<g id="Node000003" class="node">
<title>Node3</title>
<g id="a_Node000003"><a xlink:href="PhysicsSystem_8h.html" target="_top" xlink:title=" ">
<polygon fill="white" stroke="#666666" points="1360.75,-327 1204.75,-327 1204.75,-308 1360.75,-308 1360.75,-327"/>
<text text-anchor="middle" x="1282.75" y="-315" font-family="Helvetica,sans-Serif" font-size="10.00">src/physics/PhysicsSystem.h</text>
</a>
</g>
</g>
<!-- Node1&#45;&gt;Node3 -->
<g id="edge2_Node000001_Node000003" class="edge">
<title>Node1&#45;&gt;Node3</title>
<g id="a_edge2_Node000001_Node000003"><a xlink:title=" ">
<path fill="none" stroke="#63b8ff" d="M1249.58,-420.68C1239.33,-404.51 1229.73,-382.21 1237.75,-363 1244.1,-347.79 1258.46,-335.13 1269.26,-327.25"/>
<polygon fill="#63b8ff" stroke="#63b8ff" points="1246.71,-422.68 1255.23,-428.97 1252.49,-418.74 1246.71,-422.68"/>
</a>
</g>
</g>
<!-- Node32 -->
<g id="Node000032" class="node">
<title>Node32</title>
<g id="a_Node000032"><a xlink:href="OneUnknownSolver_8cpp.html" target="_top" xlink:title=" ">
<polygon fill="white" stroke="#666666" points="1382.25,-393 1247.25,-393 1247.25,-363 1382.25,-363 1382.25,-393"/>
<text text-anchor="start" x="1255.25" y="-381" font-family="Helvetica,sans-Serif" font-size="10.00">src/physics/solver</text>
<text text-anchor="middle" x="1314.75" y="-370" font-family="Helvetica,sans-Serif" font-size="10.00">/OneUnknownSolver.cpp</text>
</a>
</g>
</g>
<!-- Node1&#45;&gt;Node32 -->
<g id="edge49_Node000001_Node000032" class="edge">
<title>Node1&#45;&gt;Node32</title>
<g id="a_edge49_Node000001_Node000032"><a xlink:title=" ">
<path fill="none" stroke="#63b8ff" d="M1283.61,-420.53C1290.43,-411.43 1298.11,-401.19 1304.13,-393.16"/>
<polygon fill="#63b8ff" stroke="#63b8ff" points="1280.61,-418.7 1277.41,-428.8 1286.21,-422.9 1280.61,-418.7"/>
</a>
</g>
</g>
<!-- Node33 -->
<g id="Node000033" class="node">
<title>Node33</title>
<g id="a_Node000033"><a xlink:href="ProblemRouter_8h.html" target="_top" xlink:title=" ">
<polygon fill="white" stroke="#666666" points="1504.75,-393 1400.75,-393 1400.75,-363 1504.75,-363 1504.75,-393"/>
<text text-anchor="start" x="1408.75" y="-381" font-family="Helvetica,sans-Serif" font-size="10.00">src/physics/solver</text>
<text text-anchor="middle" x="1452.75" y="-370" font-family="Helvetica,sans-Serif" font-size="10.00">/ProblemRouter.h</text>
</a>
</g>
</g>
<!-- Node1&#45;&gt;Node33 -->
<g id="edge50_Node000001_Node000033" class="edge">
<title>Node1&#45;&gt;Node33</title>
<g id="a_edge50_Node000001_Node000033"><a xlink:title=" ">
<path fill="none" stroke="#63b8ff" d="M1317.35,-425.59C1347.09,-415.36 1384.19,-402.59 1412.03,-393.01"/>
<polygon fill="#63b8ff" stroke="#63b8ff" points="1315.89,-422.39 1307.57,-428.95 1318.17,-429.01 1315.89,-422.39"/>
</a>
</g>
</g>
<!-- Node3&#45;&gt;Node2 -->
<g id="edge23_Node000003_Node000002" class="edge">
<title>Node3&#45;&gt;Node2</title>
<g id="a_edge23_Node000003_Node000002"><a xlink:title=" ">
<path fill="none" stroke="#63b8ff" d="M1206.7,-306.66C1139.58,-297.88 1039.1,-284.52 951.75,-272 939.76,-270.28 926.9,-268.37 914.7,-266.52"/>
<polygon fill="#63b8ff" stroke="#63b8ff" points="1206.4,-310.15 1216.77,-307.97 1207.3,-303.21 1206.4,-310.15"/>
</a>
</g>
</g>
<!-- Node4 -->
<g id="Node000004" class="node">
<title>Node4</title>
<g id="a_Node000004"><a xlink:href="SceneObject_8h.html" target="_top" xlink:title=" ">
<polygon fill="white" stroke="#666666" points="1239.75,-151 1067.75,-151 1067.75,-132 1239.75,-132 1239.75,-151"/>
<text text-anchor="middle" x="1153.75" y="-139" font-family="Helvetica,sans-Serif" font-size="10.00">src/graphics/core/SceneObject.h</text>
</a>
</g>
</g>
<!-- Node3&#45;&gt;Node4 -->
<g id="edge3_Node000003_Node000004" class="edge">
<title>Node3&#45;&gt;Node4</title>
<g id="a_edge3_Node000003_Node000004"><a xlink:title=" ">
<path fill="none" stroke="#63b8ff" d="M1274.83,-298.35C1267.68,-282.79 1256.37,-260.1 1243.75,-242 1218.18,-205.31 1180.34,-167.69 1163.02,-151.17"/>
<polygon fill="#63b8ff" stroke="#63b8ff" points="1271.8,-300.14 1279.08,-307.83 1278.19,-297.28 1271.8,-300.14"/>
</a>
</g>
</g>
<!-- Node20 -->
<g id="Node000020" class="node">
<title>Node20</title>
<g id="a_Node000020"><a xlink:href="InspectorWidget_8cpp.html" target="_top" xlink:title=" ">
<polygon fill="white" stroke="#666666" points="2623.25,-96 2484.25,-96 2484.25,-66 2623.25,-66 2623.25,-96"/>
<text text-anchor="start" x="2492.25" y="-84" font-family="Helvetica,sans-Serif" font-size="10.00">src/ui/inspector/Inspector</text>
<text text-anchor="middle" x="2553.75" y="-73" font-family="Helvetica,sans-Serif" font-size="10.00">Widget.cpp</text>
</a>
</g>
</g>
<!-- Node3&#45;&gt;Node20 -->
<g id="edge47_Node000003_Node000020" class="edge">
<title>Node3&#45;&gt;Node20</title>
<g id="a_edge47_Node000003_Node000020"><a xlink:title=" ">
<path fill="none" stroke="#63b8ff" d="M1343.43,-305.82C1375.01,-298.82 1413.63,-287.96 1445.75,-272 1465.34,-262.27 1464.62,-250.54 1484.75,-242 1894.64,-68.23 2036.38,-167.78 2475.75,-96 2478.47,-95.56 2481.24,-95.1 2484.03,-94.63"/>
<polygon fill="#63b8ff" stroke="#63b8ff" points="1342.49,-302.44 1333.44,-307.96 1343.95,-309.29 1342.49,-302.44"/>
</a>
</g>
</g>
<!-- Node23 -->
<g id="Node000023" class="node">
<title>Node23</title>
<g id="a_Node000023"><a xlink:href="ProblemRouter_8cpp.html" target="_top" xlink:title=" ">
<polygon fill="white" stroke="#666666" points="1605.75,-272 1493.75,-272 1493.75,-242 1605.75,-242 1605.75,-272"/>
<text text-anchor="start" x="1501.75" y="-260" font-family="Helvetica,sans-Serif" font-size="10.00">src/physics/solver</text>
<text text-anchor="middle" x="1549.75" y="-249" font-family="Helvetica,sans-Serif" font-size="10.00">/ProblemRouter.cpp</text>
</a>
</g>
</g>
<!-- Node3&#45;&gt;Node23 -->
<g id="edge24_Node000003_Node000023" class="edge">
<title>Node3&#45;&gt;Node23</title>
<g id="a_edge24_Node000003_Node000023"><a xlink:title=" ">
<path fill="none" stroke="#63b8ff" d="M1331.55,-305.81C1377.31,-295.78 1445.67,-280.8 1493.66,-270.29"/>
<polygon fill="#63b8ff" stroke="#63b8ff" points="1330.6,-302.43 1321.58,-307.99 1332.1,-309.27 1330.6,-302.43"/>
</a>
</g>
</g>
<!-- Node24 -->
<g id="Node000024" class="node">
<title>Node24</title>
<g id="a_Node000024"><a xlink:href="Octree_8cpp.html" target="_top" xlink:title=" ">
<polygon fill="white" stroke="#666666" points="1437.25,-272 1330.25,-272 1330.25,-242 1437.25,-242 1437.25,-272"/>
<text text-anchor="start" x="1338.25" y="-260" font-family="Helvetica,sans-Serif" font-size="10.00">src/physics/spatial</text>
<text text-anchor="middle" x="1383.75" y="-249" font-family="Helvetica,sans-Serif" font-size="10.00">/Octree.cpp</text>
</a>
</g>
</g>
<!-- Node3&#45;&gt;Node24 -->
<g id="edge25_Node000003_Node000024" class="edge">
<title>Node3&#45;&gt;Node24</title>
<g id="a_edge25_Node000003_Node000024"><a xlink:title=" ">
<path fill="none" stroke="#63b8ff" d="M1306.38,-302.81C1322.32,-293.58 1343.3,-281.43 1359.39,-272.11"/>
<polygon fill="#63b8ff" stroke="#63b8ff" points="1304.56,-299.83 1297.66,-307.87 1308.06,-305.88 1304.56,-299.83"/>
</a>
</g>
</g>
<!-- Node25 -->
<g id="Node000025" class="node">
<title>Node25</title>
<g id="a_Node000025"><a xlink:href="OpenGLWindow_8cpp.html" target="_top" xlink:title=" ">
<polygon fill="white" stroke="#666666" points="1437.75,-151 1295.75,-151 1295.75,-132 1437.75,-132 1437.75,-151"/>
<text text-anchor="middle" x="1366.75" y="-139" font-family="Helvetica,sans-Serif" font-size="10.00">src/ui/OpenGLWindow.cpp</text>
</a>
</g>
</g>
<!-- Node3&#45;&gt;Node25 -->
<g id="edge26_Node000003_Node000025" class="edge">
<title>Node3&#45;&gt;Node25</title>
<g id="a_edge26_Node000003_Node000025"><a xlink:title=" ">
<path fill="none" stroke="#63b8ff" d="M1291.44,-298.52C1309.29,-261.54 1349.53,-178.18 1362.58,-151.14"/>
<polygon fill="#63b8ff" stroke="#63b8ff" points="1288.23,-297.1 1287.04,-307.63 1294.53,-300.15 1288.23,-297.1"/>
</a>
</g>
</g>
<!-- Node26 -->
<g id="Node000026" class="node">
<title>Node26</title>
<g id="a_Node000026"><a xlink:href="OpenGLWindow_8h.html" target="_top" xlink:title=" ">
<polygon fill="white" stroke="#666666" points="1092.25,-266.5 961.25,-266.5 961.25,-247.5 1092.25,-247.5 1092.25,-266.5"/>
<text text-anchor="middle" x="1026.75" y="-254.5" font-family="Helvetica,sans-Serif" font-size="10.00">src/ui/OpenGLWindow.h</text>
</a>
</g>
</g>
<!-- Node3&#45;&gt;Node26 -->
<g id="edge27_Node000003_Node000026" class="edge">
<title>Node3&#45;&gt;Node26</title>
<g id="a_edge27_Node000003_Node000026"><a xlink:title=" ">
<path fill="none" stroke="#63b8ff" d="M1235.72,-305.75C1186.26,-294.45 1109.45,-276.9 1064.02,-266.52"/>
<polygon fill="#63b8ff" stroke="#63b8ff" points="1235,-309.18 1245.53,-307.99 1236.56,-302.35 1235,-309.18"/>
</a>
</g>
</g>
<!-- Node31 -->
<g id="Node000031" class="node">
<title>Node31</title>
<g id="a_Node000031"><a xlink:href="PhysicsTests_8cpp.html" target="_top" xlink:title=" ">
<polygon fill="white" stroke="#666666" points="1235.25,-266.5 1110.25,-266.5 1110.25,-247.5 1235.25,-247.5 1235.25,-266.5"/>
<text text-anchor="middle" x="1172.75" y="-254.5" font-family="Helvetica,sans-Serif" font-size="10.00">tests/PhysicsTests.cpp</text>
</a>
</g>
</g>
<!-- Node3&#45;&gt;Node31 -->
<g id="edge48_Node000003_Node000031" class="edge">
<title>Node3&#45;&gt;Node31</title>
<g id="a_edge48_Node000003_Node000031"><a xlink:title=" ">
<path fill="none" stroke="#63b8ff" d="M1257.51,-303.08C1236.47,-291.88 1207.11,-276.27 1189.05,-266.67"/>
<polygon fill="#63b8ff" stroke="#63b8ff" points="1256.05,-306.26 1266.52,-307.87 1259.34,-300.08 1256.05,-306.26"/>
</a>
</g>
</g>
<!-- Node5 -->
<g id="Node000005" class="node">
<title>Node5</title>
<g id="a_Node000005"><a xlink:href="Gizmo_8cpp.html" target="_top" xlink:title=" ">
<polygon fill="white" stroke="#666666" points="1222.75,-30 1084.75,-30 1084.75,0 1222.75,0 1222.75,-30"/>
<text text-anchor="start" x="1092.75" y="-18" font-family="Helvetica,sans-Serif" font-size="10.00">src/graphics/components</text>
<text text-anchor="middle" x="1153.75" y="-7" font-family="Helvetica,sans-Serif" font-size="10.00">/Gizmo.cpp</text>
</a>
</g>
</g>
<!-- Node4&#45;&gt;Node5 -->
<g id="edge4_Node000004_Node000005" class="edge">
<title>Node4&#45;&gt;Node5</title>
<g id="a_edge4_Node000004_Node000005"><a xlink:title=" ">
<path fill="none" stroke="#63b8ff" d="M1153.75,-121.91C1153.75,-96.83 1153.75,-52.72 1153.75,-30.16"/>
<polygon fill="#63b8ff" stroke="#63b8ff" points="1150.25,-121.94 1153.75,-131.94 1157.25,-121.94 1150.25,-121.94"/>
</a>
</g>
</g>
<!-- Node6 -->
<g id="Node000006" class="node">
<title>Node6</title>
<g id="a_Node000006"><a xlink:href="RotateHandle_8cpp.html" target="_top" xlink:title=" ">
<polygon fill="white" stroke="#666666" points="1636.75,-96 1498.75,-96 1498.75,-66 1636.75,-66 1636.75,-96"/>
<text text-anchor="start" x="1506.75" y="-84" font-family="Helvetica,sans-Serif" font-size="10.00">src/graphics/components</text>
<text text-anchor="middle" x="1567.75" y="-73" font-family="Helvetica,sans-Serif" font-size="10.00">/RotateHandle.cpp</text>
</a>
</g>
</g>
<!-- Node4&#45;&gt;Node6 -->
<g id="edge5_Node000004_Node000006" class="edge">
<title>Node4&#45;&gt;Node6</title>
<g id="a_edge5_Node000004_Node000006"><a xlink:title=" ">
<path fill="none" stroke="#63b8ff" d="M1235.57,-130.73C1303.7,-122.34 1403.21,-109.49 1489.75,-96 1492.61,-95.56 1495.52,-95.09 1498.46,-94.61"/>
<polygon fill="#63b8ff" stroke="#63b8ff" points="1234.83,-127.29 1225.34,-131.99 1235.69,-134.24 1234.83,-127.29"/>
</a>
</g>
</g>
<!-- Node7 -->
<g id="Node000007" class="node">
<title>Node7</title>
<g id="a_Node000007"><a xlink:href="ScaleHandle_8h.html" target="_top" xlink:title=" ">
<polygon fill="white" stroke="#666666" points="2128.75,-96 1990.75,-96 1990.75,-66 2128.75,-66 2128.75,-96"/>
<text text-anchor="start" x="1998.75" y="-84" font-family="Helvetica,sans-Serif" font-size="10.00">src/graphics/components</text>
<text text-anchor="middle" x="2059.75" y="-73" font-family="Helvetica,sans-Serif" font-size="10.00">/ScaleHandle.h</text>
</a>
</g>
</g>
<!-- Node4&#45;&gt;Node7 -->
<g id="edge6_Node000004_Node000007" class="edge">
<title>Node4&#45;&gt;Node7</title>
<g id="a_edge6_Node000004_Node000007"><a xlink:title=" ">
<path fill="none" stroke="#63b8ff" d="M1249.92,-132.26C1251.2,-132.17 1252.48,-132.09 1253.75,-132 1576.98,-110.28 1659.89,-132.69 1981.75,-96 1984.62,-95.67 1987.55,-95.31 1990.5,-94.91"/>
<polygon fill="#63b8ff" stroke="#63b8ff" points="1249.65,-128.77 1239.92,-132.98 1250.15,-135.75 1249.65,-128.77"/>
</a>
</g>
</g>
<!-- Node9 -->
<g id="Node000009" class="node">
<title>Node9</title>
<g id="a_Node000009"><a xlink:href="TranslateHandle_8cpp.html" target="_top" xlink:title=" ">
<polygon fill="white" stroke="#666666" points="1792.75,-96 1654.75,-96 1654.75,-66 1792.75,-66 1792.75,-96"/>
<text text-anchor="start" x="1662.75" y="-84" font-family="Helvetica,sans-Serif" font-size="10.00">src/graphics/components</text>
<text text-anchor="middle" x="1723.75" y="-73" font-family="Helvetica,sans-Serif" font-size="10.00">/TranslateHandle.cpp</text>
</a>
</g>
</g>
<!-- Node4&#45;&gt;Node9 -->
<g id="edge9_Node000004_Node000009" class="edge">
<title>Node4&#45;&gt;Node9</title>
<g id="a_edge9_Node000004_Node000009"><a xlink:title=" ">
<path fill="none" stroke="#63b8ff" d="M1250,-132.25C1382.12,-120.86 1607.7,-101.13 1645.75,-96 1648.62,-95.61 1651.54,-95.2 1654.48,-94.76"/>
<polygon fill="#63b8ff" stroke="#63b8ff" points="1249.53,-128.78 1239.87,-133.12 1250.13,-135.75 1249.53,-128.78"/>
</a>
</g>
</g>
<!-- Node10 -->
<g id="Node000010" class="node">
<title>Node10</title>
<g id="a_Node000010"><a xlink:href="Camera_8cpp.html" target="_top" xlink:title=" ">
<polygon fill="white" stroke="#666666" points="1972.25,-90.5 1811.25,-90.5 1811.25,-71.5 1972.25,-71.5 1972.25,-90.5"/>
<text text-anchor="middle" x="1891.75" y="-78.5" font-family="Helvetica,sans-Serif" font-size="10.00">src/graphics/core/Camera.cpp</text>
</a>
</g>
</g>
<!-- Node4&#45;&gt;Node10 -->
<g id="edge10_Node000004_Node000010" class="edge">
<title>Node4&#45;&gt;Node10</title>
<g id="a_edge10_Node000004_Node000010"><a xlink:title=" ">
<path fill="none" stroke="#63b8ff" d="M1249.92,-132.29C1251.2,-132.19 1252.48,-132.1 1253.75,-132 1497.14,-113.66 1559.15,-122.78 1801.75,-96 1814.8,-94.56 1828.85,-92.58 1841.87,-90.57"/>
<polygon fill="#63b8ff" stroke="#63b8ff" points="1249.63,-128.8 1239.93,-133.07 1250.17,-135.78 1249.63,-128.8"/>
</a>
</g>
</g>
<!-- Node11 -->
<g id="Node000011" class="node">
<title>Node11</title>
<g id="a_Node000011"><a xlink:href="Scene_8cpp.html" target="_top" xlink:title=" ">
<polygon fill="white" stroke="#666666" points="1125.75,-90.5 973.75,-90.5 973.75,-71.5 1125.75,-71.5 1125.75,-90.5"/>
<text text-anchor="middle" x="1049.75" y="-78.5" font-family="Helvetica,sans-Serif" font-size="10.00">src/graphics/core/Scene.cpp</text>
</a>
</g>
</g>
<!-- Node4&#45;&gt;Node11 -->
<g id="edge11_Node000004_Node000011" class="edge">
<title>Node4&#45;&gt;Node11</title>
<g id="a_edge11_Node000004_Node000011"><a xlink:title=" ">
<path fill="none" stroke="#63b8ff" d="M1129.62,-126.92C1109.74,-115.74 1082.16,-100.23 1065.16,-90.67"/>
<polygon fill="#63b8ff" stroke="#63b8ff" points="1127.98,-130.02 1138.41,-131.87 1131.41,-123.91 1127.98,-130.02"/>
</a>
</g>
</g>
<!-- Node12 -->
<g id="Node000012" class="node">
<title>Node12</title>
<g id="a_Node000012"><a xlink:href="SceneManager_8cpp.html" target="_top" xlink:title=" ">
<polygon fill="white" stroke="#666666" points="389.75,-90.5 195.75,-90.5 195.75,-71.5 389.75,-71.5 389.75,-90.5"/>
<text text-anchor="middle" x="292.75" y="-78.5" font-family="Helvetica,sans-Serif" font-size="10.00">src/graphics/core/SceneManager.cpp</text>
</a>
</g>
</g>
<!-- Node4&#45;&gt;Node12 -->
<g id="edge12_Node000004_Node000012" class="edge">
<title>Node4&#45;&gt;Node12</title>
<g id="a_edge12_Node000004_Node000012"><a xlink:title=" ">
<path fill="none" stroke="#63b8ff" d="M1057.44,-137.06C913.76,-131.42 634.9,-118.52 398.75,-96 383.42,-94.54 366.88,-92.55 351.54,-90.54"/>
<polygon fill="#63b8ff" stroke="#63b8ff" points="1057.42,-140.56 1067.55,-137.45 1057.69,-133.57 1057.42,-140.56"/>
</a>
</g>
</g>
<!-- Node13 -->
<g id="Node000013" class="node">
<title>Node13</title>
<g id="a_Node000013"><a xlink:href="SceneObject_8cpp.html" target="_top" xlink:title=" ">
<polygon fill="white" stroke="#666666" points="955.25,-90.5 772.25,-90.5 772.25,-71.5 955.25,-71.5 955.25,-90.5"/>
<text text-anchor="middle" x="863.75" y="-78.5" font-family="Helvetica,sans-Serif" font-size="10.00">src/graphics/core/SceneObject.cpp</text>
</a>
</g>
</g>
<!-- Node4&#45;&gt;Node13 -->
<g id="edge13_Node000004_Node000013" class="edge">
<title>Node4&#45;&gt;Node13</title>
<g id="a_edge13_Node000004_Node000013"><a xlink:title=" ">
<path fill="none" stroke="#63b8ff" d="M1101.52,-129.96C1045.54,-118.67 957.76,-100.96 905.97,-90.52"/>
<polygon fill="#63b8ff" stroke="#63b8ff" points="1101.09,-133.45 1111.59,-131.99 1102.48,-126.59 1101.09,-133.45"/>
</a>
</g>
</g>
<!-- Node14 -->
<g id="Node000014" class="node">
<title>Node14</title>
<g id="a_Node000014"><a xlink:href="SceneSerializer_8cpp.html" target="_top" xlink:title=" ">
<polygon fill="white" stroke="#666666" points="605.25,-90.5 408.25,-90.5 408.25,-71.5 605.25,-71.5 605.25,-90.5"/>
<text text-anchor="middle" x="506.75" y="-78.5" font-family="Helvetica,sans-Serif" font-size="10.00">src/graphics/core/SceneSerializer.cpp</text>
</a>
</g>
</g>
<!-- Node4&#45;&gt;Node14 -->
<g id="edge14_Node000004_Node000014" class="edge">
<title>Node4&#45;&gt;Node14</title>
<g id="a_edge14_Node000004_Node000014"><a xlink:title=" ">
<path fill="none" stroke="#63b8ff" d="M1057.36,-133.95C949.24,-126.29 768.71,-112.51 613.75,-96 598.85,-94.41 582.81,-92.45 567.8,-90.5"/>
<polygon fill="#63b8ff" stroke="#63b8ff" points="1057.37,-137.46 1067.59,-134.68 1057.86,-130.48 1057.37,-137.46"/>
</a>
</g>
</g>
<!-- Node15 -->
<g id="Node000015" class="node">
<title>Node15</title>
<g id="a_Node000015"><a xlink:href="HierarchyWidget_8h.html" target="_top" xlink:title=" ">
<polygon fill="white" stroke="#666666" points="1480.25,-90.5 1343.25,-90.5 1343.25,-71.5 1480.25,-71.5 1480.25,-90.5"/>
<text text-anchor="middle" x="1411.75" y="-78.5" font-family="Helvetica,sans-Serif" font-size="10.00">src/ui/HierarchyWidget.h</text>
</a>
</g>
</g>
<!-- Node4&#45;&gt;Node15 -->
<g id="edge15_Node000004_Node000015" class="edge">
<title>Node4&#45;&gt;Node15</title>
<g id="a_edge15_Node000004_Node000015"><a xlink:title=" ">
<path fill="none" stroke="#63b8ff" d="M1201.16,-129.75C1251,-118.45 1328.41,-100.9 1374.19,-90.52"/>
<polygon fill="#63b8ff" stroke="#63b8ff" points="1200.25,-126.37 1191.27,-131.99 1201.8,-133.2 1200.25,-126.37"/>
</a>
</g>
</g>
<!-- Node18 -->
<g id="Node000018" class="node">
<title>Node18</title>
<g id="a_Node000018"><a xlink:href="ForcesInspectorWidget_8cpp.html" target="_top" xlink:title=" ">
<polygon fill="white" stroke="#666666" points="2316.75,-96 2146.75,-96 2146.75,-66 2316.75,-66 2316.75,-96"/>
<text text-anchor="start" x="2154.75" y="-84" font-family="Helvetica,sans-Serif" font-size="10.00">src/ui/inspector/ForcesInspector</text>
<text text-anchor="middle" x="2231.75" y="-73" font-family="Helvetica,sans-Serif" font-size="10.00">Widget.cpp</text>
</a>
</g>
</g>
<!-- Node4&#45;&gt;Node18 -->
<g id="edge18_Node000004_Node000018" class="edge">
<title>Node4&#45;&gt;Node18</title>
<g id="a_edge18_Node000004_Node000018"><a xlink:title=" ">
<path fill="none" stroke="#63b8ff" d="M1249.91,-132.25C1251.2,-132.16 1252.48,-132.08 1253.75,-132 1646.19,-107.34 1746.29,-133.02 2137.75,-96 2140.71,-95.72 2143.72,-95.41 2146.75,-95.08"/>
<polygon fill="#63b8ff" stroke="#63b8ff" points="1249.66,-128.76 1239.92,-132.93 1250.14,-135.74 1249.66,-128.76"/>
</a>
</g>
</g>
<!-- Node19 -->
<g id="Node000019" class="node">
<title>Node19</title>
<g id="a_Node000019"><a xlink:href="GlobalsInspectorWidget_8cpp.html" target="_top" xlink:title=" ">
<polygon fill="white" stroke="#666666" points="754.25,-96 623.25,-96 623.25,-66 754.25,-66 754.25,-96"/>
<text text-anchor="start" x="631.25" y="-84" font-family="Helvetica,sans-Serif" font-size="10.00">src/ui/inspector/Globals</text>
<text text-anchor="middle" x="688.75" y="-73" font-family="Helvetica,sans-Serif" font-size="10.00">InspectorWidget.cpp</text>
</a>
</g>
</g>
<!-- Node4&#45;&gt;Node19 -->
<g id="edge19_Node000004_Node000019" class="edge">
<title>Node4&#45;&gt;Node19</title>
<g id="a_edge19_Node000004_Node000019"><a xlink:title=" ">
<path fill="none" stroke="#63b8ff" d="M1057.73,-131.56C978.42,-123.7 863,-111.17 762.75,-96 760.04,-95.59 757.27,-95.15 754.48,-94.69"/>
<polygon fill="#63b8ff" stroke="#63b8ff" points="1057.41,-135.05 1067.7,-132.55 1058.09,-128.08 1057.41,-135.05"/>
</a>
</g>
</g>
<!-- Node4&#45;&gt;Node20 -->
<g id="edge20_Node000004_Node000020" class="edge">
<title>Node4&#45;&gt;Node20</title>
<g id="a_edge20_Node000004_Node000020"><a xlink:title=" ">
<path fill="none" stroke="#63b8ff" d="M1249.91,-132.23C1251.2,-132.15 1252.48,-132.07 1253.75,-132 1796.21,-100.98 1935.32,-152.15 2475.75,-96 2478.49,-95.72 2481.28,-95.39 2484.09,-95.03"/>
<polygon fill="#63b8ff" stroke="#63b8ff" points="1249.67,-128.73 1239.92,-132.87 1250.12,-135.72 1249.67,-128.73"/>
</a>
</g>
</g>
<!-- Node21 -->
<g id="Node000021" class="node">
<title>Node21</title>
<g id="a_Node000021"><a xlink:href="PhysicsInspectorWidget_8cpp.html" target="_top" xlink:title=" ">
<polygon fill="white" stroke="#666666" points="2466.25,-96 2335.25,-96 2335.25,-66 2466.25,-66 2466.25,-96"/>
<text text-anchor="start" x="2343.25" y="-84" font-family="Helvetica,sans-Serif" font-size="10.00">src/ui/inspector/Physics</text>
<text text-anchor="middle" x="2400.75" y="-73" font-family="Helvetica,sans-Serif" font-size="10.00">InspectorWidget.cpp</text>
</a>
</g>
</g>
<!-- Node4&#45;&gt;Node21 -->
<g id="edge21_Node000004_Node000021" class="edge">
<title>Node4&#45;&gt;Node21</title>
<g id="a_edge21_Node000004_Node000021"><a xlink:title=" ">
<path fill="none" stroke="#63b8ff" d="M1249.91,-132.23C1251.2,-132.15 1252.48,-132.08 1253.75,-132 1729.63,-103.8 1851.87,-147.89 2325.75,-96 2328.78,-95.67 2331.87,-95.28 2334.99,-94.86"/>
<polygon fill="#63b8ff" stroke="#63b8ff" points="1249.67,-128.74 1239.92,-132.89 1250.13,-135.73 1249.67,-128.74"/>
</a>
</g>
</g>
<!-- Node22 -->
<g id="Node000022" class="node">
<title>Node22</title>
<g id="a_Node000022"><a xlink:href="TransformInspectorWidget_8cpp.html" target="_top" xlink:title=" ">
<polygon fill="white" stroke="#666666" points="1325.25,-96 1182.25,-96 1182.25,-66 1325.25,-66 1325.25,-96"/>
<text text-anchor="start" x="1190.25" y="-84" font-family="Helvetica,sans-Serif" font-size="10.00">src/ui/inspector/Transform</text>
<text text-anchor="middle" x="1253.75" y="-73" font-family="Helvetica,sans-Serif" font-size="10.00">InspectorWidget.cpp</text>
</a>
</g>
</g>
<!-- Node4&#45;&gt;Node22 -->
<g id="edge22_Node000004_Node000022" class="edge">
<title>Node4&#45;&gt;Node22</title>
<g id="a_edge22_Node000004_Node000022"><a xlink:title=" ">
<path fill="none" stroke="#63b8ff" d="M1177.15,-126.81C1192.93,-117.58 1213.7,-105.43 1229.63,-96.11"/>
<polygon fill="#63b8ff" stroke="#63b8ff" points="1175.37,-123.8 1168.51,-131.87 1178.91,-129.84 1175.37,-123.8"/>
</a>
</g>
</g>
<!-- Node7&#45;&gt;Node5 -->
<g id="edge7_Node000007_Node000005" class="edge">
<title>Node7&#45;&gt;Node5</title>
<g id="a_edge7_Node000007_Node000005"><a xlink:title=" ">
<path fill="none" stroke="#63b8ff" d="M1980.56,-65.96C1691.36,-32.65 1615.5,-49.37 1328.75,-30 1293.94,-27.65 1255.25,-24.6 1223.13,-21.95"/>
<polygon fill="#63b8ff" stroke="#63b8ff" points="1980.16,-69.44 1990.5,-67.11 1980.97,-62.48 1980.16,-69.44"/>
</a>
</g>
</g>
<!-- Node8 -->
<g id="Node000008" class="node">
<title>Node8</title>
<g id="a_Node000008"><a xlink:href="ScaleHandle_8cpp.html" target="_top" xlink:title=" ">
<polygon fill="white" stroke="#666666" points="2128.75,-30 1990.75,-30 1990.75,0 2128.75,0 2128.75,-30"/>
<text text-anchor="start" x="1998.75" y="-18" font-family="Helvetica,sans-Serif" font-size="10.00">src/graphics/components</text>
<text text-anchor="middle" x="2059.75" y="-7" font-family="Helvetica,sans-Serif" font-size="10.00">/ScaleHandle.cpp</text>
</a>
</g>
</g>
<!-- Node7&#45;&gt;Node8 -->
<g id="edge8_Node000007_Node000008" class="edge">
<title>Node7&#45;&gt;Node8</title>
<g id="a_edge8_Node000007_Node000008"><a xlink:title=" ">
<path fill="none" stroke="#63b8ff" d="M2059.75,-55.54C2059.75,-46.96 2059.75,-37.61 2059.75,-30.16"/>
<polygon fill="#63b8ff" stroke="#63b8ff" points="2056.25,-55.8 2059.75,-65.8 2063.25,-55.8 2056.25,-55.8"/>
</a>
</g>
</g>
<!-- Node16 -->
<g id="Node000016" class="node">
<title>Node16</title>
<g id="a_Node000016"><a xlink:href="HierarchyWidget_8cpp.html" target="_top" xlink:title=" ">
<polygon fill="white" stroke="#666666" points="1485.75,-24.5 1337.75,-24.5 1337.75,-5.5 1485.75,-5.5 1485.75,-24.5"/>
<text text-anchor="middle" x="1411.75" y="-12.5" font-family="Helvetica,sans-Serif" font-size="10.00">src/ui/HierarchyWidget.cpp</text>
</a>
</g>
</g>
<!-- Node15&#45;&gt;Node16 -->
<g id="edge16_Node000015_Node000016" class="edge">
<title>Node15&#45;&gt;Node16</title>
<g id="a_edge16_Node000015_Node000016"><a xlink:title=" ">
<path fill="none" stroke="#63b8ff" d="M1411.75,-61.08C1411.75,-49.13 1411.75,-34.22 1411.75,-24.91"/>
<polygon fill="#63b8ff" stroke="#63b8ff" points="1408.25,-61.37 1411.75,-71.37 1415.25,-61.37 1408.25,-61.37"/>
</a>
</g>
</g>
<!-- Node17 -->
<g id="Node000017" class="node">
<title>Node17</title>
<g id="a_Node000017"><a xlink:href="MainWindow_8cpp.html" target="_top" xlink:title=" ">
<polygon fill="white" stroke="#666666" points="193.75,-24.5 65.75,-24.5 65.75,-5.5 193.75,-5.5 193.75,-24.5"/>
<text text-anchor="middle" x="129.75" y="-12.5" font-family="Helvetica,sans-Serif" font-size="10.00">src/ui/MainWindow.cpp</text>
</a>
</g>
</g>
<!-- Node15&#45;&gt;Node17 -->
<g id="edge17_Node000015_Node000017" class="edge">
<title>Node15&#45;&gt;Node17</title>
<g id="a_edge17_Node000015_Node000017"><a xlink:title=" ">
<path fill="none" stroke="#63b8ff" d="M1360.09,-69.71C1351.33,-68.26 1342.31,-66.94 1333.75,-66 900.17,-18.31 374.2,-15.14 193.94,-15.6"/>
<polygon fill="#63b8ff" stroke="#63b8ff" points="1359.76,-73.2 1370.21,-71.46 1360.96,-66.31 1359.76,-73.2"/>
</a>
</g>
</g>
<!-- Node26&#45;&gt;Node11 -->
<g id="edge28_Node000026_Node000011" class="edge">
<title>Node26&#45;&gt;Node11</title>
<g id="a_edge28_Node000026_Node000011"><a xlink:title=" ">
<path fill="none" stroke="#63b8ff" d="M1029.26,-237.06C1034.21,-199.62 1045.07,-117.45 1048.61,-90.64"/>
<polygon fill="#63b8ff" stroke="#63b8ff" points="1025.77,-236.76 1027.93,-247.13 1032.71,-237.68 1025.77,-236.76"/>
</a>
</g>
</g>
<!-- Node26&#45;&gt;Node12 -->
<g id="edge29_Node000026_Node000012" class="edge">
<title>Node26&#45;&gt;Node12</title>
<g id="a_edge29_Node000026_Node000012"><a xlink:title=" ">
<path fill="none" stroke="#63b8ff" d="M973.98,-245.65C966.53,-244.34 958.96,-243.08 951.75,-242 689.35,-202.75 595.5,-276.53 361.75,-151 333.69,-135.93 309.64,-105.78 298.83,-90.83"/>
<polygon fill="#63b8ff" stroke="#63b8ff" points="973.55,-249.13 984.01,-247.47 974.79,-242.24 973.55,-249.13"/>
</a>
</g>
</g>
<!-- Node26&#45;&gt;Node17 -->
<g id="edge45_Node000026_Node000017" class="edge">
<title>Node26&#45;&gt;Node17</title>
<g id="a_edge45_Node000026_Node000017"><a xlink:title=" ">
<path fill="none" stroke="#63b8ff" d="M976.82,-245.67C968.48,-244.23 959.89,-242.93 951.75,-242 770.1,-221.17 301.84,-267.79 129.75,-206 53.43,-178.6 -31.92,-133.67 12.75,-66 27.42,-43.79 54.2,-31.41 78.44,-24.52"/>
<polygon fill="#63b8ff" stroke="#63b8ff" points="976.36,-249.14 986.82,-247.47 977.6,-242.25 976.36,-249.14"/>
</a>
</g>
</g>
<!-- Node26&#45;&gt;Node25 -->
<g id="edge46_Node000026_Node000025" class="edge">
<title>Node26&#45;&gt;Node25</title>
<g id="a_edge46_Node000026_Node000025"><a xlink:title=" ">
<path fill="none" stroke="#63b8ff" d="M1061.8,-244.3C1130.31,-221.43 1280.55,-171.28 1340.9,-151.13"/>
<polygon fill="#63b8ff" stroke="#63b8ff" points="1060.69,-240.98 1052.31,-247.47 1062.9,-247.62 1060.69,-240.98"/>
</a>
</g>
</g>
<!-- Node27 -->
<g id="Node000027" class="node">
<title>Node27</title>
<g id="a_Node000027"><a xlink:href="SceneManager_8h.html" target="_top" xlink:title=" ">
<polygon fill="white" stroke="#666666" points="823.75,-206 641.75,-206 641.75,-187 823.75,-187 823.75,-206"/>
<text text-anchor="middle" x="732.75" y="-194" font-family="Helvetica,sans-Serif" font-size="10.00">src/graphics/core/SceneManager.h</text>
</a>
</g>
</g>
<!-- Node26&#45;&gt;Node27 -->
<g id="edge30_Node000026_Node000027" class="edge">
<title>Node26&#45;&gt;Node27</title>
<g id="a_edge30_Node000026_Node000027"><a xlink:title=" ">
<path fill="none" stroke="#63b8ff" d="M974.15,-245.53C917.41,-234.24 828.16,-216.48 775.56,-206.02"/>
<polygon fill="#63b8ff" stroke="#63b8ff" points="973.51,-248.97 984,-247.49 974.88,-242.11 973.51,-248.97"/>
</a>
</g>
</g>
<!-- Node30 -->
<g id="Node000030" class="node">
<title>Node30</title>
<g id="a_Node000030"><a xlink:href="main_8cpp.html" target="_top" xlink:title=" ">
<polygon fill="white" stroke="#666666" points="101.25,-90.5 22.25,-90.5 22.25,-71.5 101.25,-71.5 101.25,-90.5"/>
<text text-anchor="middle" x="61.75" y="-78.5" font-family="Helvetica,sans-Serif" font-size="10.00">src/main.cpp</text>
</a>
</g>
</g>
<!-- Node26&#45;&gt;Node30 -->
<g id="edge44_Node000026_Node000030" class="edge">
<title>Node26&#45;&gt;Node30</title>
<g id="a_edge44_Node000026_Node000030"><a xlink:title=" ">
<path fill="none" stroke="#63b8ff" d="M975.67,-245.66C967.69,-244.28 959.51,-242.99 951.75,-242 756.53,-216.97 208.71,-291.38 70.75,-151 54.84,-134.8 57.44,-105.18 59.95,-90.59"/>
<polygon fill="#63b8ff" stroke="#63b8ff" points="975.16,-249.12 985.63,-247.45 976.4,-242.23 975.16,-249.12"/>
</a>
</g>
</g>
<!-- Node27&#45;&gt;Node4 -->
<g id="edge34_Node000027_Node000004" class="edge">
<title>Node27&#45;&gt;Node4</title>
<g id="a_edge34_Node000027_Node000004"><a xlink:title=" ">
<path fill="none" stroke="#63b8ff" d="M810.78,-185.68C889.8,-175.73 1010.78,-160.5 1085.93,-151.04"/>
<polygon fill="#63b8ff" stroke="#63b8ff" points="809.88,-182.26 800.4,-186.98 810.75,-189.21 809.88,-182.26"/>
</a>
</g>
</g>
<!-- Node27&#45;&gt;Node5 -->
<g id="edge31_Node000027_Node000005" class="edge">
<title>Node27&#45;&gt;Node5</title>
<g id="a_edge31_Node000027_Node000005"><a xlink:title=" ">
<path fill="none" stroke="#63b8ff" d="M631.74,-187.66C457.01,-172.21 122.8,-133.35 186.75,-66 217.61,-33.51 868.06,-20.45 1084.44,-17"/>
<polygon fill="#63b8ff" stroke="#63b8ff" points="631.47,-191.15 641.73,-188.54 632.08,-184.18 631.47,-191.15"/>
</a>
</g>
</g>
<!-- Node27&#45;&gt;Node12 -->
<g id="edge32_Node000027_Node000012" class="edge">
<title>Node27&#45;&gt;Node12</title>
<g id="a_edge32_Node000027_Node000012"><a xlink:title=" ">
<path fill="none" stroke="#63b8ff" d="M631.6,-192.61C565.41,-188.12 477.97,-177.19 404.75,-151 364.11,-136.46 322.43,-105.78 303.4,-90.72"/>
<polygon fill="#63b8ff" stroke="#63b8ff" points="631.41,-196.11 641.62,-193.26 631.86,-189.12 631.41,-196.11"/>
</a>
</g>
</g>
<!-- Node27&#45;&gt;Node13 -->
<g id="edge33_Node000027_Node000013" class="edge">
<title>Node27&#45;&gt;Node13</title>
<g id="a_edge33_Node000027_Node000013"><a xlink:title=" ">
<path fill="none" stroke="#63b8ff" d="M750.37,-180.23C778.27,-156.07 831.68,-109.79 853.79,-90.63"/>
<polygon fill="#63b8ff" stroke="#63b8ff" points="747.87,-177.78 742.6,-186.97 752.45,-183.07 747.87,-177.78"/>
</a>
</g>
</g>
<!-- Node27&#45;&gt;Node19 -->
<g id="edge42_Node000027_Node000019" class="edge">
<title>Node27&#45;&gt;Node19</title>
<g id="a_edge42_Node000027_Node000019"><a xlink:title=" ">
<path fill="none" stroke="#63b8ff" d="M725.8,-177.57C717.07,-155.03 702.24,-116.8 694.25,-96.18"/>
<polygon fill="#63b8ff" stroke="#63b8ff" points="722.57,-178.91 729.45,-186.97 729.1,-176.38 722.57,-178.91"/>
</a>
</g>
</g>
<!-- Node27&#45;&gt;Node20 -->
<g id="edge43_Node000027_Node000020" class="edge">
<title>Node27&#45;&gt;Node20</title>
<g id="a_edge43_Node000027_Node000020"><a xlink:title=" ">
<path fill="none" stroke="#63b8ff" d="M834.14,-191.28C961.76,-185.18 1173.39,-172.25 1248.75,-151 1266.93,-145.88 1268.44,-136.62 1286.75,-132 1543.08,-67.38 2212.84,-123.42 2475.75,-96 2478.49,-95.71 2481.28,-95.39 2484.09,-95.03"/>
<polygon fill="#63b8ff" stroke="#63b8ff" points="833.79,-187.79 823.96,-191.76 834.12,-194.78 833.79,-187.79"/>
</a>
</g>
</g>
<!-- Node27&#45;&gt;Node25 -->
<g id="edge41_Node000027_Node000025" class="edge">
<title>Node27&#45;&gt;Node25</title>
<g id="a_edge41_Node000027_Node000025"><a xlink:title=" ">
<path fill="none" stroke="#63b8ff" d="M834.22,-187.85C944.44,-179.4 1125.68,-165.13 1281.75,-151 1286.19,-150.6 1290.75,-150.18 1295.34,-149.74"/>
<polygon fill="#63b8ff" stroke="#63b8ff" points="833.81,-184.37 824.11,-188.62 834.35,-191.35 833.81,-184.37"/>
</a>
</g>
</g>
<!-- Node28 -->
<g id="Node000028" class="node">
<title>Node28</title>
<g id="a_Node000028"><a xlink:href="SceneSerializer_8h.html" target="_top" xlink:title=" ">
<polygon fill="white" stroke="#666666" points="599.25,-151 414.25,-151 414.25,-132 599.25,-132 599.25,-151"/>
<text text-anchor="middle" x="506.75" y="-139" font-family="Helvetica,sans-Serif" font-size="10.00">src/graphics/core/SceneSerializer.h</text>
</a>
</g>
</g>
<!-- Node27&#45;&gt;Node28 -->
<g id="edge35_Node000027_Node000028" class="edge">
<title>Node27&#45;&gt;Node28</title>
<g id="a_edge35_Node000027_Node000028"><a xlink:title=" ">
<path fill="none" stroke="#63b8ff" d="M686.66,-184.69C644.32,-174.76 582.39,-160.24 543.35,-151.08"/>
<polygon fill="#63b8ff" stroke="#63b8ff" points="685.91,-188.11 696.44,-186.98 687.51,-181.29 685.91,-188.11"/>
</a>
</g>
</g>
<!-- Node29 -->
<g id="Node000029" class="node">
<title>Node29</title>
<g id="a_Node000029"><a xlink:href="MainWindow_8h.html" target="_top" xlink:title=" ">
<polygon fill="white" stroke="#666666" points="197.25,-151 80.25,-151 80.25,-132 197.25,-132 197.25,-151"/>
<text text-anchor="middle" x="138.75" y="-139" font-family="Helvetica,sans-Serif" font-size="10.00">src/ui/MainWindow.h</text>
</a>
</g>
</g>
<!-- Node27&#45;&gt;Node29 -->
<g id="edge38_Node000027_Node000029" class="edge">
<title>Node27&#45;&gt;Node29</title>
<g id="a_edge38_Node000027_Node000029"><a xlink:title=" ">
<path fill="none" stroke="#63b8ff" d="M631.24,-186.44C506.38,-175.3 298.61,-156.76 197.55,-147.75"/>
<polygon fill="#63b8ff" stroke="#63b8ff" points="631.3,-189.96 641.57,-187.36 631.92,-182.99 631.3,-189.96"/>
</a>
</g>
</g>
<!-- Node28&#45;&gt;Node12 -->
<g id="edge36_Node000028_Node000012" class="edge">
<title>Node28&#45;&gt;Node12</title>
<g id="a_edge36_Node000028_Node000012"><a xlink:title=" ">
<path fill="none" stroke="#63b8ff" d="M465.87,-129.32C424.49,-118.01 361.41,-100.77 323.91,-90.52"/>
<polygon fill="#63b8ff" stroke="#63b8ff" points="465.07,-132.73 475.64,-131.99 466.91,-125.98 465.07,-132.73"/>
</a>
</g>
</g>
<!-- Node28&#45;&gt;Node14 -->
<g id="edge37_Node000028_Node000014" class="edge">
<title>Node28&#45;&gt;Node14</title>
<g id="a_edge37_Node000028_Node000014"><a xlink:title=" ">
<path fill="none" stroke="#63b8ff" d="M506.75,-121.66C506.75,-111.24 506.75,-98.8 506.75,-90.67"/>
<polygon fill="#63b8ff" stroke="#63b8ff" points="503.25,-121.87 506.75,-131.87 510.25,-121.87 503.25,-121.87"/>
</a>
</g>
</g>
<!-- Node29&#45;&gt;Node17 -->
<g id="edge40_Node000029_Node000017" class="edge">
<title>Node29&#45;&gt;Node17</title>
<g id="a_edge40_Node000029_Node000017"><a xlink:title=" ">
<path fill="none" stroke="#63b8ff" d="M137.4,-121.74C135.42,-94.36 131.82,-44.58 130.38,-24.62"/>
<polygon fill="#63b8ff" stroke="#63b8ff" points="133.92,-122.22 138.14,-131.94 140.91,-121.72 133.92,-122.22"/>
</a>
</g>
</g>
<!-- Node29&#45;&gt;Node30 -->
<g id="edge39_Node000029_Node000030" class="edge">
<title>Node29&#45;&gt;Node30</title>
<g id="a_edge39_Node000029_Node000030"><a xlink:title=" ">
<path fill="none" stroke="#63b8ff" d="M119.06,-125.54C104.52,-114.49 85.24,-99.84 73.16,-90.67"/>
<polygon fill="#63b8ff" stroke="#63b8ff" points="117.31,-128.61 127.39,-131.87 121.55,-123.03 117.31,-128.61"/>
</a>
</g>
</g>
<!-- Node33&#45;&gt;Node3 -->
<g id="edge51_Node000033_Node000003" class="edge">
<title>Node33&#45;&gt;Node3</title>
<g id="a_edge51_Node000033_Node000003"><a xlink:title=" ">
<path fill="none" stroke="#63b8ff" d="M1402.22,-359.61C1371.12,-348.91 1332.61,-335.65 1307.86,-327.14"/>
<polygon fill="#63b8ff" stroke="#63b8ff" points="1401.44,-363.04 1412.03,-362.99 1403.72,-356.42 1401.44,-363.04"/>
</a>
</g>
</g>
<!-- Node33&#45;&gt;Node23 -->
<g id="edge52_Node000033_Node000023" class="edge">
<title>Node33&#45;&gt;Node23</title>
<g id="a_edge52_Node000033_Node000023"><a xlink:title=" ">
<path fill="none" stroke="#63b8ff" d="M1455.08,-352.73C1457.43,-338.57 1462.18,-321 1471.75,-308 1483.2,-292.46 1501.05,-280.5 1516.79,-272.18"/>
<polygon fill="#63b8ff" stroke="#63b8ff" points="1451.59,-352.37 1453.7,-362.75 1458.53,-353.32 1451.59,-352.37"/>
</a>
</g>
</g>
<!-- Node34 -->
<g id="Node000034" class="node">
<title>Node34</title>
<g id="a_Node000034"><a xlink:href="SolverDialog_8cpp.html" target="_top" xlink:title=" ">
<polygon fill="white" stroke="#666666" points="1608.75,-327 1480.75,-327 1480.75,-308 1608.75,-308 1608.75,-327"/>
<text text-anchor="middle" x="1544.75" y="-315" font-family="Helvetica,sans-Serif" font-size="10.00">src/ui/SolverDialog.cpp</text>
</a>
</g>
</g>
<!-- Node33&#45;&gt;Node34 -->
<g id="edge53_Node000033_Node000034" class="edge">
<title>Node33&#45;&gt;Node34</title>
<g id="a_edge53_Node000033_Node000034"><a xlink:title=" ">
<path fill="none" stroke="#63b8ff" d="M1483.66,-357.35C1499.82,-347.07 1518.78,-335.02 1531.24,-327.09"/>
<polygon fill="#63b8ff" stroke="#63b8ff" points="1481.59,-354.52 1475.02,-362.84 1485.34,-360.43 1481.59,-354.52"/>
</a>
</g>
</g>
</g>
</svg>

<g id="navigator" transform="translate(0 0)" fill="#404254">
  <rect fill="#f2f5e9" fill-opacity="0.5" stroke="#606060" stroke-width=".5" x="0" y="0" width="60" height="60"/>
  <use id="zoomplus" xlink:href="#zoomPlus" x="17" y="9" onmousedown="handleZoom(evt,'in')"/>
  <use id="zoomminus" xlink:href="#zoomMin" x="42" y="9" onmousedown="handleZoom(evt,'out')"/>
  <use id="reset" xlink:href="#resetDef" x="30" y="36" onmousedown="handleReset()"/>
   <use id="arrowup" xlink:href="#arrowUp" x="0" y="0" onmousedown="handlePan(0,-1)"/>
  <use id="arrowright" xlink:href="#arrowRight" x="0" y="0" onmousedown="handlePan(1,0)"/>
  <use id="arrowdown" xlink:href="#arrowDown" x="0" y="0" onmousedown="handlePan(0,1)"/>
  <use id="arrowleft" xlink:href="#arrowLeft" x="0" y="0" onmousedown="handlePan(-1,0)"/>
</g>
<svg viewBox="0 0 15 15" width="100%" height="30px" preserveAspectRatio="xMaxYMin meet">
 <g id="arrow_out" transform="scale(0.3 0.3)">
  <a xlink:href="OneUnknownSolver_8h__dep__incl_org.svg" target="_base">
   <rect id="button" ry="5" rx="5" y="6" x="6" height="38" width="38"
        fill="#f2f5e9" fill-opacity="0.5" stroke="#606060" stroke-width="1.0"/>
   <path id="arrow"
     d="M 11.500037,31.436501 C 11.940474,20.09759 22.043105,11.32322 32.158766,21.979434 L 37.068811,17.246167 C 37.068811,17.246167 37.088388,32 37.088388,32 L 22.160133,31.978069 C 22.160133,31.978069 26.997745,27.140456 26.997745,27.140456 C 18.528582,18.264221 13.291696,25.230495 11.500037,31.436501 z"
     style="fill:#404040;"/>
  </a>
 </g>
</svg>

<style type='text/css'>
<![CDATA[
[data-mouse-over-selected='false'] { opacity: 0.7; }
[data-mouse-over-selected='true']  { opacity: 1.0; }
]]>
</style>
<script type="application/ecmascript"><![CDATA[
document.addEventListener('DOMContentLoaded', (event) => {
  highlightEdges();
  highlightAdjacentNodes();
});
]]></script>
</svg>
