<?xml version="1.0" encoding="UTF-8" standalone="no"?>
<!DOCTYPE svg PUBLIC "-//W3C//DTD SVG 1.1//EN"
 "http://www.w3.org/Graphics/SVG/1.1/DTD/svg11.dtd">
<!-- Generated by graphviz version 2.43.0 (0)
 -->
<!-- Title: src/ui/OpenGLWindow.h Pages: 1 -->
<svg width="1662pt" height="258pt"
 viewBox="0.00 0.00 1662.00 258.00" xmlns="http://www.w3.org/2000/svg" xmlns:xlink="http://www.w3.org/1999/xlink">
<g id="graph0" class="graph" transform="scale(1 1) rotate(0) translate(4 254)">
<title>src/ui/OpenGLWindow.h</title>
<!-- Node1 -->
<g id="Node000001" class="node">
<title>Node1</title>
<g id="a_Node000001"><a xlink:title=" ">
<polygon fill="#999999" stroke="#666666" points="651.5,-250 520.5,-250 520.5,-231 651.5,-231 651.5,-250"/>
<text text-anchor="middle" x="586" y="-238" font-family="Helvetica,sans-Serif" font-size="10.00">src/ui/OpenGLWindow.h</text>
</a>
</g>
</g>
<!-- Node2 -->
<g id="Node000002" class="node">
<title>Node2</title>
<g id="a_Node000002"><a xlink:title=" ">
<polygon fill="#e0e0e0" stroke="#999999" points="188,-189.5 0,-189.5 0,-170.5 188,-170.5 188,-189.5"/>
<text text-anchor="middle" x="94" y="-177.5" font-family="Helvetica,sans-Serif" font-size="10.00">QtOpenGLWidgets/QOpenGLWidget</text>
</a>
</g>
</g>
<!-- Node1&#45;&gt;Node2 -->
<g id="edge1_Node000001_Node000002" class="edge">
<title>Node1&#45;&gt;Node2</title>
<g id="a_edge1_Node000001_Node000002"><a xlink:title=" ">
<path fill="none" stroke="#63b8ff" d="M520.22,-232.4C442.83,-223.96 310.48,-209.2 197,-195 186.69,-193.71 175.8,-192.29 165.12,-190.87"/>
<polygon fill="#63b8ff" stroke="#63b8ff" points="165.35,-187.37 154.97,-189.5 164.42,-194.3 165.35,-187.37"/>
</a>
</g>
</g>
<!-- Node3 -->
<g id="Node000003" class="node">
<title>Node3</title>
<g id="a_Node000003"><a xlink:title=" ">
<polygon fill="#e0e0e0" stroke="#999999" points="326,-195 206,-195 206,-165 326,-165 326,-195"/>
<text text-anchor="start" x="214" y="-183" font-family="Helvetica,sans-Serif" font-size="10.00">QOpenGLFunctions_4</text>
<text text-anchor="middle" x="266" y="-172" font-family="Helvetica,sans-Serif" font-size="10.00">_5_Core</text>
</a>
</g>
</g>
<!-- Node1&#45;&gt;Node3 -->
<g id="edge2_Node000001_Node000003" class="edge">
<title>Node1&#45;&gt;Node3</title>
<g id="a_edge2_Node000001_Node000003"><a xlink:title=" ">
<path fill="none" stroke="#63b8ff" d="M535.93,-231C487.4,-222.67 411.44,-209.42 336.31,-195.22"/>
<polygon fill="#63b8ff" stroke="#63b8ff" points="336.67,-191.73 326.19,-193.3 335.37,-198.61 336.67,-191.73"/>
</a>
</g>
</g>
<!-- Node4 -->
<g id="Node000004" class="node">
<title>Node4</title>
<g id="a_Node000004"><a xlink:title=" ">
<polygon fill="#e0e0e0" stroke="#999999" points="397.5,-189.5 344.5,-189.5 344.5,-170.5 397.5,-170.5 397.5,-189.5"/>
<text text-anchor="middle" x="371" y="-177.5" font-family="Helvetica,sans-Serif" font-size="10.00">QTimer</text>
</a>
</g>
</g>
<!-- Node1&#45;&gt;Node4 -->
<g id="edge3_Node000001_Node000004" class="edge">
<title>Node1&#45;&gt;Node4</title>
<g id="a_edge3_Node000001_Node000004"><a xlink:title=" ">
<path fill="none" stroke="#63b8ff" d="M545.42,-230.96C508.87,-222.9 453.85,-209.87 407,-195 405.13,-194.41 403.22,-193.77 401.3,-193.1"/>
<polygon fill="#63b8ff" stroke="#63b8ff" points="402.37,-189.76 391.78,-189.6 399.96,-196.33 402.37,-189.76"/>
</a>
</g>
</g>
<!-- Node5 -->
<g id="Node000005" class="node">
<title>Node5</title>
<g id="a_Node000005"><a xlink:title=" ">
<polygon fill="#e0e0e0" stroke="#999999" points="486,-189.5 416,-189.5 416,-170.5 486,-170.5 486,-189.5"/>
<text text-anchor="middle" x="451" y="-177.5" font-family="Helvetica,sans-Serif" font-size="10.00">QKeyEvent</text>
</a>
</g>
</g>
<!-- Node1&#45;&gt;Node5 -->
<g id="edge4_Node000001_Node000005" class="edge">
<title>Node1&#45;&gt;Node5</title>
<g id="a_edge4_Node000001_Node000005"><a xlink:title=" ">
<path fill="none" stroke="#63b8ff" d="M566.37,-230.99C543.67,-221.16 506.1,-204.88 480.03,-193.58"/>
<polygon fill="#63b8ff" stroke="#63b8ff" points="481.22,-190.28 470.65,-189.52 478.44,-196.7 481.22,-190.28"/>
</a>
</g>
</g>
<!-- Node6 -->
<g id="Node000006" class="node">
<title>Node6</title>
<g id="a_Node000006"><a xlink:title=" ">
<polygon fill="#e0e0e0" stroke="#999999" points="588,-189.5 504,-189.5 504,-170.5 588,-170.5 588,-189.5"/>
<text text-anchor="middle" x="546" y="-177.5" font-family="Helvetica,sans-Serif" font-size="10.00">QMouseEvent</text>
</a>
</g>
</g>
<!-- Node1&#45;&gt;Node6 -->
<g id="edge5_Node000001_Node000006" class="edge">
<title>Node1&#45;&gt;Node6</title>
<g id="a_edge5_Node000001_Node000006"><a xlink:title=" ">
<path fill="none" stroke="#63b8ff" d="M580.1,-230.87C574.25,-222.31 565.13,-208.97 557.79,-198.24"/>
<polygon fill="#63b8ff" stroke="#63b8ff" points="560.46,-195.95 551.93,-189.67 554.68,-199.9 560.46,-195.95"/>
</a>
</g>
</g>
<!-- Node7 -->
<g id="Node000007" class="node">
<title>Node7</title>
<g id="a_Node000007"><a xlink:title=" ">
<polygon fill="#e0e0e0" stroke="#999999" points="646,-189.5 606,-189.5 606,-170.5 646,-170.5 646,-189.5"/>
<text text-anchor="middle" x="626" y="-177.5" font-family="Helvetica,sans-Serif" font-size="10.00">QSet</text>
</a>
</g>
</g>
<!-- Node1&#45;&gt;Node7 -->
<g id="edge6_Node000001_Node000007" class="edge">
<title>Node1&#45;&gt;Node7</title>
<g id="a_edge6_Node000001_Node000007"><a xlink:title=" ">
<path fill="none" stroke="#63b8ff" d="M591.9,-230.87C597.75,-222.31 606.87,-208.97 614.21,-198.24"/>
<polygon fill="#63b8ff" stroke="#63b8ff" points="617.32,-199.9 620.07,-189.67 611.54,-195.95 617.32,-199.9"/>
</a>
</g>
</g>
<!-- Node8 -->
<g id="Node000008" class="node">
<title>Node8</title>
<g id="a_Node000008"><a xlink:title=" ">
<polygon fill="#e0e0e0" stroke="#999999" points="720,-189.5 664,-189.5 664,-170.5 720,-170.5 720,-189.5"/>
<text text-anchor="middle" x="692" y="-177.5" font-family="Helvetica,sans-Serif" font-size="10.00">QCursor</text>
</a>
</g>
</g>
<!-- Node1&#45;&gt;Node8 -->
<g id="edge7_Node000001_Node000008" class="edge">
<title>Node1&#45;&gt;Node8</title>
<g id="a_edge7_Node000001_Node000008"><a xlink:title=" ">
<path fill="none" stroke="#63b8ff" d="M601.64,-230.87C618.94,-221.32 647.05,-205.81 667.33,-194.62"/>
<polygon fill="#63b8ff" stroke="#63b8ff" points="669.23,-197.56 676.3,-189.67 665.85,-191.43 669.23,-197.56"/>
</a>
</g>
</g>
<!-- Node9 -->
<g id="Node000009" class="node">
<title>Node9</title>
<g id="a_Node000009"><a xlink:title=" ">
<polygon fill="#e0e0e0" stroke="#999999" points="788,-189.5 738,-189.5 738,-170.5 788,-170.5 788,-189.5"/>
<text text-anchor="middle" x="763" y="-177.5" font-family="Helvetica,sans-Serif" font-size="10.00">chrono</text>
</a>
</g>
</g>
<!-- Node1&#45;&gt;Node9 -->
<g id="edge8_Node000001_Node000009" class="edge">
<title>Node1&#45;&gt;Node9</title>
<g id="a_edge8_Node000001_Node000009"><a xlink:title=" ">
<path fill="none" stroke="#63b8ff" d="M616.11,-230.98C645.23,-222.54 690.48,-208.89 729,-195 730.43,-194.49 731.88,-193.95 733.35,-193.39"/>
<polygon fill="#63b8ff" stroke="#63b8ff" points="734.96,-196.52 742.98,-189.59 732.39,-190 734.96,-196.52"/>
</a>
</g>
</g>
<!-- Node10 -->
<g id="Node000010" class="node">
<title>Node10</title>
<g id="a_Node000010"><a xlink:href="MathUtils_8h.html" target="_top" xlink:title="Mathematical utility functions for 3D graphics and physics.">
<polygon fill="white" stroke="#666666" points="571.5,-129 430.5,-129 430.5,-110 571.5,-110 571.5,-129"/>
<text text-anchor="middle" x="501" y="-117" font-family="Helvetica,sans-Serif" font-size="10.00">graphics/utils/MathUtils.h</text>
</a>
</g>
</g>
<!-- Node1&#45;&gt;Node10 -->
<g id="edge9_Node000001_Node000010" class="edge">
<title>Node1&#45;&gt;Node10</title>
<g id="a_edge9_Node000001_Node000010"><a xlink:title=" ">
<path fill="none" stroke="#63b8ff" d="M651.65,-237.17C728.75,-232.1 840.91,-216.01 797,-165 769.74,-133.34 659.97,-123.9 582.08,-121.25"/>
<polygon fill="#63b8ff" stroke="#63b8ff" points="581.89,-117.74 571.79,-120.93 581.68,-124.74 581.89,-117.74"/>
</a>
</g>
</g>
<!-- Node15 -->
<g id="Node000015" class="node">
<title>Node15</title>
<g id="a_Node000015"><a xlink:href="PhysicsSystem_8h.html" target="_top" xlink:title=" ">
<polygon fill="white" stroke="#666666" points="1299.5,-189.5 1160.5,-189.5 1160.5,-170.5 1299.5,-170.5 1299.5,-189.5"/>
<text text-anchor="middle" x="1230" y="-177.5" font-family="Helvetica,sans-Serif" font-size="10.00">physics/PhysicsSystem.h</text>
</a>
</g>
</g>
<!-- Node1&#45;&gt;Node15 -->
<g id="edge15_Node000001_Node000015" class="edge">
<title>Node1&#45;&gt;Node15</title>
<g id="a_edge15_Node000001_Node000015"><a xlink:title=" ">
<path fill="none" stroke="#63b8ff" d="M651.59,-233.54C770.52,-222.74 1021.31,-199.96 1150.05,-188.26"/>
<polygon fill="#63b8ff" stroke="#63b8ff" points="1150.59,-191.73 1160.23,-187.34 1149.96,-184.76 1150.59,-191.73"/>
</a>
</g>
</g>
<!-- Node11 -->
<g id="Node000011" class="node">
<title>Node11</title>
<g id="a_Node000011"><a xlink:title=" ">
<polygon fill="#e0e0e0" stroke="#999999" points="788,-19 710,-19 710,0 788,0 788,-19"/>
<text text-anchor="middle" x="749" y="-7" font-family="Helvetica,sans-Serif" font-size="10.00">glm/glm.hpp</text>
</a>
</g>
</g>
<!-- Node10&#45;&gt;Node11 -->
<g id="edge10_Node000010_Node000011" class="edge">
<title>Node10&#45;&gt;Node11</title>
<g id="a_edge10_Node000010_Node000011"><a xlink:title=" ">
<path fill="none" stroke="#63b8ff" d="M482.36,-109.89C458.84,-97.88 423.43,-75.29 441,-55 457.68,-35.73 617.08,-20.69 699.77,-14.12"/>
<polygon fill="#63b8ff" stroke="#63b8ff" points="700.24,-17.59 709.94,-13.32 699.69,-10.61 700.24,-17.59"/>
</a>
</g>
</g>
<!-- Node12 -->
<g id="Node000012" class="node">
<title>Node12</title>
<g id="a_Node000012"><a xlink:href="IPickable_8h.html" target="_top" xlink:title=" ">
<polygon fill="white" stroke="#666666" points="552,-74 450,-74 450,-55 552,-55 552,-74"/>
<text text-anchor="middle" x="501" y="-62" font-family="Helvetica,sans-Serif" font-size="10.00">../core/IPickable.h</text>
</a>
</g>
</g>
<!-- Node10&#45;&gt;Node12 -->
<g id="edge11_Node000010_Node000012" class="edge">
<title>Node10&#45;&gt;Node12</title>
<g id="a_edge11_Node000010_Node000012"><a xlink:title=" ">
<path fill="none" stroke="#63b8ff" d="M501,-109.75C501,-102.8 501,-92.85 501,-84.13"/>
<polygon fill="#63b8ff" stroke="#63b8ff" points="504.5,-84.09 501,-74.09 497.5,-84.09 504.5,-84.09"/>
</a>
</g>
</g>
<!-- Node13 -->
<g id="Node000013" class="node">
<title>Node13</title>
<g id="a_Node000013"><a xlink:title=" ">
<polygon fill="#e0e0e0" stroke="#999999" points="542.5,-19 495.5,-19 495.5,0 542.5,0 542.5,-19"/>
<text text-anchor="middle" x="519" y="-7" font-family="Helvetica,sans-Serif" font-size="10.00">vector</text>
</a>
</g>
</g>
<!-- Node10&#45;&gt;Node13 -->
<g id="edge13_Node000010_Node000013" class="edge">
<title>Node10&#45;&gt;Node13</title>
<g id="a_edge13_Node000010_Node000013"><a xlink:title=" ">
<path fill="none" stroke="#63b8ff" d="M466.33,-109.99C432.99,-100.03 390.09,-81.48 408,-55 425.07,-29.76 459.06,-18.83 484.95,-14.11"/>
<polygon fill="#63b8ff" stroke="#63b8ff" points="485.8,-17.51 495.12,-12.48 484.7,-10.6 485.8,-17.51"/>
</a>
</g>
</g>
<!-- Node14 -->
<g id="Node000014" class="node">
<title>Node14</title>
<g id="a_Node000014"><a xlink:title=" ">
<polygon fill="#e0e0e0" stroke="#999999" points="626,-74 570,-74 570,-55 626,-55 626,-74"/>
<text text-anchor="middle" x="598" y="-62" font-family="Helvetica,sans-Serif" font-size="10.00">optional</text>
</a>
</g>
</g>
<!-- Node10&#45;&gt;Node14 -->
<g id="edge14_Node000010_Node000014" class="edge">
<title>Node10&#45;&gt;Node14</title>
<g id="a_edge14_Node000010_Node000014"><a xlink:title=" ">
<path fill="none" stroke="#63b8ff" d="M516.58,-109.98C531.77,-101.69 555.1,-88.94 572.9,-79.22"/>
<polygon fill="#63b8ff" stroke="#63b8ff" points="575.03,-82.04 582.13,-74.17 571.68,-75.89 575.03,-82.04"/>
</a>
</g>
</g>
<!-- Node12&#45;&gt;Node11 -->
<g id="edge12_Node000012_Node000011" class="edge">
<title>Node12&#45;&gt;Node11</title>
<g id="a_edge12_Node000012_Node000011"><a xlink:title=" ">
<path fill="none" stroke="#63b8ff" d="M540.85,-54.98C584.09,-45.74 653.19,-30.98 699.79,-21.02"/>
<polygon fill="#63b8ff" stroke="#63b8ff" points="700.62,-24.42 709.66,-18.91 699.15,-17.57 700.62,-24.42"/>
</a>
</g>
</g>
<!-- Node15&#45;&gt;Node13 -->
<g id="edge16_Node000015_Node000013" class="edge">
<title>Node15&#45;&gt;Node13</title>
<g id="a_edge16_Node000015_Node000013"><a xlink:title=" ">
<path fill="none" stroke="#63b8ff" d="M1160.18,-176.73C969.22,-170.25 450.57,-150.74 421,-129 393.45,-108.75 380.51,-83.09 400,-55 419.06,-27.52 457.29,-16.98 485.29,-12.96"/>
<polygon fill="#63b8ff" stroke="#63b8ff" points="485.96,-16.4 495.46,-11.71 485.11,-9.45 485.96,-16.4"/>
</a>
</g>
</g>
<!-- Node15&#45;&gt;Node14 -->
<g id="edge21_Node000015_Node000014" class="edge">
<title>Node15&#45;&gt;Node14</title>
<g id="a_edge21_Node000015_Node000014"><a xlink:title=" ">
<path fill="none" stroke="#63b8ff" d="M1160.5,-171.25C1087.59,-162.67 969.8,-147.59 869,-129 765.47,-109.91 738.1,-100.35 635.87,-75.19"/>
<polygon fill="#63b8ff" stroke="#63b8ff" points="636.62,-71.76 626.07,-72.78 634.95,-78.56 636.62,-71.76"/>
</a>
</g>
</g>
<!-- Node16 -->
<g id="Node000016" class="node">
<title>Node16</title>
<g id="a_Node000016"><a xlink:title=" ">
<polygon fill="#e0e0e0" stroke="#999999" points="1069,-19 1019,-19 1019,0 1069,0 1069,-19"/>
<text text-anchor="middle" x="1044" y="-7" font-family="Helvetica,sans-Serif" font-size="10.00">atomic</text>
</a>
</g>
</g>
<!-- Node15&#45;&gt;Node16 -->
<g id="edge17_Node000015_Node000016" class="edge">
<title>Node15&#45;&gt;Node16</title>
<g id="a_edge17_Node000015_Node000016"><a xlink:title=" ">
<path fill="none" stroke="#63b8ff" d="M1225.31,-170.39C1213.06,-148.55 1178.02,-90.21 1135,-55 1118.24,-41.28 1096.53,-30.46 1078.53,-22.92"/>
<polygon fill="#63b8ff" stroke="#63b8ff" points="1079.54,-19.56 1068.96,-19.08 1076.93,-26.06 1079.54,-19.56"/>
</a>
</g>
</g>
<!-- Node17 -->
<g id="Node000017" class="node">
<title>Node17</title>
<g id="a_Node000017"><a xlink:title=" ">
<polygon fill="#e0e0e0" stroke="#999999" points="1178,-19 1130,-19 1130,0 1178,0 1178,-19"/>
<text text-anchor="middle" x="1154" y="-7" font-family="Helvetica,sans-Serif" font-size="10.00">mutex</text>
</a>
</g>
</g>
<!-- Node15&#45;&gt;Node17 -->
<g id="edge18_Node000015_Node000017" class="edge">
<title>Node15&#45;&gt;Node17</title>
<g id="a_edge18_Node000015_Node000017"><a xlink:title=" ">
<path fill="none" stroke="#63b8ff" d="M1230.22,-170.2C1230.36,-148.9 1228.39,-93.47 1206,-55 1199,-42.97 1187.51,-32.62 1177.11,-24.95"/>
<polygon fill="#63b8ff" stroke="#63b8ff" points="1178.96,-21.97 1168.75,-19.15 1174.97,-27.72 1178.96,-21.97"/>
</a>
</g>
</g>
<!-- Node18 -->
<g id="Node000018" class="node">
<title>Node18</title>
<g id="a_Node000018"><a xlink:title=" ">
<polygon fill="#e0e0e0" stroke="#999999" points="1494,-129 1446,-129 1446,-110 1494,-110 1494,-129"/>
<text text-anchor="middle" x="1470" y="-117" font-family="Helvetica,sans-Serif" font-size="10.00">thread</text>
</a>
</g>
</g>
<!-- Node15&#45;&gt;Node18 -->
<g id="edge19_Node000015_Node000018" class="edge">
<title>Node15&#45;&gt;Node18</title>
<g id="a_edge19_Node000015_Node000018"><a xlink:title=" ">
<path fill="none" stroke="#63b8ff" d="M1264.9,-170.49C1310.73,-159.32 1390.69,-139.83 1436.05,-128.78"/>
<polygon fill="#63b8ff" stroke="#63b8ff" points="1437.1,-132.12 1445.98,-126.35 1435.44,-125.32 1437.1,-132.12"/>
</a>
</g>
</g>
<!-- Node19 -->
<g id="Node000019" class="node">
<title>Node19</title>
<g id="a_Node000019"><a xlink:title=" ">
<polygon fill="#e0e0e0" stroke="#999999" points="1619.5,-129 1512.5,-129 1512.5,-110 1619.5,-110 1619.5,-129"/>
<text text-anchor="middle" x="1566" y="-117" font-family="Helvetica,sans-Serif" font-size="10.00">condition_variable</text>
</a>
</g>
</g>
<!-- Node15&#45;&gt;Node19 -->
<g id="edge20_Node000015_Node000019" class="edge">
<title>Node15&#45;&gt;Node19</title>
<g id="a_edge20_Node000015_Node000019"><a xlink:title=" ">
<path fill="none" stroke="#63b8ff" d="M1278.86,-170.49C1339.33,-159.97 1442.22,-142.05 1507.02,-130.77"/>
<polygon fill="#63b8ff" stroke="#63b8ff" points="1507.83,-134.18 1517.08,-129.02 1506.63,-127.28 1507.83,-134.18"/>
</a>
</g>
</g>
<!-- Node20 -->
<g id="Node000020" class="node">
<title>Node20</title>
<g id="a_Node000020"><a xlink:href="RigidBody_8h.html" target="_top" xlink:title=" ">
<polygon fill="white" stroke="#666666" points="952,-129 878,-129 878,-110 952,-110 952,-129"/>
<text text-anchor="middle" x="915" y="-117" font-family="Helvetica,sans-Serif" font-size="10.00">RigidBody.h</text>
</a>
</g>
</g>
<!-- Node15&#45;&gt;Node20 -->
<g id="edge22_Node000015_Node000020" class="edge">
<title>Node15&#45;&gt;Node20</title>
<g id="a_edge22_Node000015_Node000020"><a xlink:title=" ">
<path fill="none" stroke="#63b8ff" d="M1184.2,-170.49C1124.84,-159.47 1021.87,-140.35 961.95,-129.22"/>
<polygon fill="#63b8ff" stroke="#63b8ff" points="962.47,-125.76 952,-127.37 961.2,-132.64 962.47,-125.76"/>
</a>
</g>
</g>
<!-- Node27 -->
<g id="Node000027" class="node">
<title>Node27</title>
<g id="a_Node000027"><a xlink:href="OneUnknownSolver_8h.html" target="_top" xlink:title=" ">
<polygon fill="white" stroke="#666666" points="1654,-74 1500,-74 1500,-55 1654,-55 1654,-74"/>
<text text-anchor="middle" x="1577" y="-62" font-family="Helvetica,sans-Serif" font-size="10.00">solver/OneUnknownSolver.h</text>
</a>
</g>
</g>
<!-- Node15&#45;&gt;Node27 -->
<g id="edge37_Node000015_Node000027" class="edge">
<title>Node15&#45;&gt;Node27</title>
<g id="a_edge37_Node000015_Node000027"><a xlink:title=" ">
<path fill="none" stroke="#63b8ff" d="M1299.68,-175.21C1408.24,-168.58 1607.61,-153.24 1629,-129 1643.7,-112.34 1621.2,-92.42 1601.37,-79.39"/>
<polygon fill="#63b8ff" stroke="#63b8ff" points="1603.2,-76.41 1592.86,-74.09 1599.5,-82.35 1603.2,-76.41"/>
</a>
</g>
</g>
<!-- Node29 -->
<g id="Node000029" class="node">
<title>Node29</title>
<g id="a_Node000029"><a xlink:href="ProblemRouter_8h.html" target="_top" xlink:title=" ">
<polygon fill="white" stroke="#666666" points="1389.5,-129 1258.5,-129 1258.5,-110 1389.5,-110 1389.5,-129"/>
<text text-anchor="middle" x="1324" y="-117" font-family="Helvetica,sans-Serif" font-size="10.00">solver/ProblemRouter.h</text>
</a>
</g>
</g>
<!-- Node15&#45;&gt;Node29 -->
<g id="edge39_Node000015_Node000029" class="edge">
<title>Node15&#45;&gt;Node29</title>
<g id="a_edge39_Node000015_Node000029"><a xlink:title=" ">
<path fill="none" stroke="#63b8ff" d="M1243.87,-170.37C1259,-160.95 1283.46,-145.73 1301.38,-134.58"/>
<polygon fill="#63b8ff" stroke="#63b8ff" points="1303.43,-137.42 1310.07,-129.17 1299.73,-131.48 1303.43,-137.42"/>
</a>
</g>
</g>
<!-- Node31 -->
<g id="Node000031" class="node">
<title>Node31</title>
<g id="a_Node000031"><a xlink:href="VectorRootSolver_8h.html" target="_top" xlink:title=" ">
<polygon fill="white" stroke="#666666" points="1481.5,-74 1372.5,-74 1372.5,-55 1481.5,-55 1481.5,-74"/>
<text text-anchor="middle" x="1427" y="-62" font-family="Helvetica,sans-Serif" font-size="10.00">VectorRootSolver.h</text>
</a>
</g>
</g>
<!-- Node15&#45;&gt;Node31 -->
<g id="edge47_Node000015_Node000031" class="edge">
<title>Node15&#45;&gt;Node31</title>
<g id="a_edge47_Node000015_Node000031"><a xlink:title=" ">
<path fill="none" stroke="#63b8ff" d="M1299.79,-171.7C1332.77,-165.13 1370.79,-152.66 1398,-129 1411.41,-117.34 1418.97,-98.2 1422.99,-83.98"/>
<polygon fill="#63b8ff" stroke="#63b8ff" points="1426.38,-84.82 1425.4,-74.27 1419.59,-83.13 1426.38,-84.82"/>
</a>
</g>
</g>
<!-- Node20&#45;&gt;Node11 -->
<g id="edge25_Node000020_Node000011" class="edge">
<title>Node20&#45;&gt;Node11</title>
<g id="a_edge25_Node000020_Node000011"><a xlink:title=" ">
<path fill="none" stroke="#63b8ff" d="M900.82,-109.97C886.22,-101.13 862.87,-86.84 843,-74 817.56,-57.55 788.75,-37.94 769.81,-24.91"/>
<polygon fill="#63b8ff" stroke="#63b8ff" points="771.58,-21.88 761.36,-19.08 767.61,-27.64 771.58,-21.88"/>
</a>
</g>
</g>
<!-- Node20&#45;&gt;Node13 -->
<g id="edge24_Node000020_Node000013" class="edge">
<title>Node20&#45;&gt;Node13</title>
<g id="a_edge24_Node000020_Node000013"><a xlink:title=" ">
<path fill="none" stroke="#63b8ff" d="M877.7,-114.94C829.46,-109.59 743.29,-97.51 673,-74 655.09,-68.01 652.28,-62.61 635,-55 607.54,-42.9 575.66,-30.81 552.29,-22.29"/>
<polygon fill="#63b8ff" stroke="#63b8ff" points="553.42,-18.98 542.82,-18.87 551.04,-25.56 553.42,-18.98"/>
</a>
</g>
</g>
<!-- Node20&#45;&gt;Node17 -->
<g id="edge23_Node000020_Node000017" class="edge">
<title>Node20&#45;&gt;Node17</title>
<g id="a_edge23_Node000020_Node000017"><a xlink:title=" ">
<path fill="none" stroke="#63b8ff" d="M952.04,-115.57C1007.56,-110.45 1108.67,-98.04 1135,-74 1147.34,-62.74 1151.79,-43.82 1153.34,-29.56"/>
<polygon fill="#63b8ff" stroke="#63b8ff" points="1156.85,-29.57 1154.05,-19.36 1149.86,-29.09 1156.85,-29.57"/>
</a>
</g>
</g>
<!-- Node21 -->
<g id="Node000021" class="node">
<title>Node21</title>
<g id="a_Node000021"><a xlink:title=" ">
<polygon fill="#e0e0e0" stroke="#999999" points="1126,-74 996,-74 996,-55 1126,-55 1126,-74"/>
<text text-anchor="middle" x="1061" y="-62" font-family="Helvetica,sans-Serif" font-size="10.00">glm/gtc/quaternion.hpp</text>
</a>
</g>
</g>
<!-- Node20&#45;&gt;Node21 -->
<g id="edge26_Node000020_Node000021" class="edge">
<title>Node20&#45;&gt;Node21</title>
<g id="a_edge26_Node000020_Node000021"><a xlink:title=" ">
<path fill="none" stroke="#63b8ff" d="M938.46,-109.98C962.58,-101.23 1000.37,-87.51 1027.6,-77.62"/>
<polygon fill="#63b8ff" stroke="#63b8ff" points="1028.91,-80.87 1037.12,-74.17 1026.52,-74.29 1028.91,-80.87"/>
</a>
</g>
</g>
<!-- Node22 -->
<g id="Node000022" class="node">
<title>Node22</title>
<g id="a_Node000022"><a xlink:href="ICollider_8h.html" target="_top" xlink:title=" ">
<polygon fill="white" stroke="#666666" points="795.5,-74 682.5,-74 682.5,-55 795.5,-55 795.5,-74"/>
<text text-anchor="middle" x="739" y="-62" font-family="Helvetica,sans-Serif" font-size="10.00">bounding/ICollider.h</text>
</a>
</g>
</g>
<!-- Node20&#45;&gt;Node22 -->
<g id="edge27_Node000020_Node000022" class="edge">
<title>Node20&#45;&gt;Node22</title>
<g id="a_edge27_Node000020_Node000022"><a xlink:title=" ">
<path fill="none" stroke="#63b8ff" d="M886.72,-109.98C857.05,-101.05 810.21,-86.94 777.25,-77.02"/>
<polygon fill="#63b8ff" stroke="#63b8ff" points="778.08,-73.61 767.5,-74.08 776.07,-80.32 778.08,-73.61"/>
</a>
</g>
</g>
<!-- Node23 -->
<g id="Node000023" class="node">
<title>Node23</title>
<g id="a_Node000023"><a xlink:href="PhysicsBody_8h.html" target="_top" xlink:title=" ">
<polygon fill="white" stroke="#666666" points="977.5,-74 852.5,-74 852.5,-55 977.5,-55 977.5,-74"/>
<text text-anchor="middle" x="915" y="-62" font-family="Helvetica,sans-Serif" font-size="10.00">physics/PhysicsBody.h</text>
</a>
</g>
</g>
<!-- Node20&#45;&gt;Node23 -->
<g id="edge29_Node000020_Node000023" class="edge">
<title>Node20&#45;&gt;Node23</title>
<g id="a_edge29_Node000020_Node000023"><a xlink:title=" ">
<path fill="none" stroke="#63b8ff" d="M915,-109.75C915,-102.8 915,-92.85 915,-84.13"/>
<polygon fill="#63b8ff" stroke="#63b8ff" points="918.5,-84.09 915,-74.09 911.5,-84.09 918.5,-84.09"/>
</a>
</g>
</g>
<!-- Node22&#45;&gt;Node11 -->
<g id="edge28_Node000022_Node000011" class="edge">
<title>Node22&#45;&gt;Node11</title>
<g id="a_edge28_Node000022_Node000011"><a xlink:title=" ">
<path fill="none" stroke="#63b8ff" d="M740.65,-54.75C741.96,-47.8 743.84,-37.85 745.48,-29.13"/>
<polygon fill="#63b8ff" stroke="#63b8ff" points="748.96,-29.56 747.38,-19.09 742.09,-28.27 748.96,-29.56"/>
</a>
</g>
</g>
<!-- Node23&#45;&gt;Node11 -->
<g id="edge32_Node000023_Node000011" class="edge">
<title>Node23&#45;&gt;Node11</title>
<g id="a_edge32_Node000023_Node000011"><a xlink:title=" ">
<path fill="none" stroke="#63b8ff" d="M888.33,-54.98C860.46,-46.09 816.55,-32.07 785.48,-22.15"/>
<polygon fill="#63b8ff" stroke="#63b8ff" points="786.47,-18.79 775.88,-19.08 784.34,-25.46 786.47,-18.79"/>
</a>
</g>
</g>
<!-- Node23&#45;&gt;Node13 -->
<g id="edge33_Node000023_Node000013" class="edge">
<title>Node23&#45;&gt;Node13</title>
<g id="a_edge33_Node000023_Node000013"><a xlink:title=" ">
<path fill="none" stroke="#63b8ff" d="M852.25,-55.1C767.38,-43.74 618.99,-23.88 552.68,-15.01"/>
<polygon fill="#63b8ff" stroke="#63b8ff" points="553.14,-11.54 542.76,-13.68 552.21,-18.48 553.14,-11.54"/>
</a>
</g>
</g>
<!-- Node23&#45;&gt;Node16 -->
<g id="edge30_Node000023_Node000016" class="edge">
<title>Node23&#45;&gt;Node16</title>
<g id="a_edge30_Node000023_Node000016"><a xlink:title=" ">
<path fill="none" stroke="#63b8ff" d="M935.73,-54.98C956.76,-46.34 989.55,-32.87 1013.54,-23.02"/>
<polygon fill="#63b8ff" stroke="#63b8ff" points="1014.98,-26.21 1022.9,-19.17 1012.32,-19.73 1014.98,-26.21"/>
</a>
</g>
</g>
<!-- Node23&#45;&gt;Node17 -->
<g id="edge35_Node000023_Node000017" class="edge">
<title>Node23&#45;&gt;Node17</title>
<g id="a_edge35_Node000023_Node000017"><a xlink:title=" ">
<path fill="none" stroke="#63b8ff" d="M953.4,-54.98C999.45,-44.77 1075.94,-27.81 1119.96,-18.05"/>
<polygon fill="#63b8ff" stroke="#63b8ff" points="1120.89,-21.43 1129.89,-15.85 1119.37,-14.59 1120.89,-21.43"/>
</a>
</g>
</g>
<!-- Node24 -->
<g id="Node000024" class="node">
<title>Node24</title>
<g id="a_Node000024"><a xlink:title=" ">
<polygon fill="#e0e0e0" stroke="#999999" points="1265,-19 1221,-19 1221,0 1265,0 1265,-19"/>
<text text-anchor="middle" x="1243" y="-7" font-family="Helvetica,sans-Serif" font-size="10.00">string</text>
</a>
</g>
</g>
<!-- Node23&#45;&gt;Node24 -->
<g id="edge31_Node000023_Node000024" class="edge">
<title>Node23&#45;&gt;Node24</title>
<g id="a_edge31_Node000023_Node000024"><a xlink:title=" ">
<path fill="none" stroke="#63b8ff" d="M967.7,-54.98C1036.26,-43.91 1153.96,-24.89 1210.63,-15.73"/>
<polygon fill="#63b8ff" stroke="#63b8ff" points="1211.49,-19.14 1220.8,-14.09 1210.37,-12.23 1211.49,-19.14"/>
</a>
</g>
</g>
<!-- Node25 -->
<g id="Node000025" class="node">
<title>Node25</title>
<g id="a_Node000025"><a xlink:title=" ">
<polygon fill="#e0e0e0" stroke="#999999" points="875,-19 837,-19 837,0 875,0 875,-19"/>
<text text-anchor="middle" x="856" y="-7" font-family="Helvetica,sans-Serif" font-size="10.00">map</text>
</a>
</g>
</g>
<!-- Node23&#45;&gt;Node25 -->
<g id="edge34_Node000023_Node000025" class="edge">
<title>Node23&#45;&gt;Node25</title>
<g id="a_edge34_Node000023_Node000025"><a xlink:title=" ">
<path fill="none" stroke="#63b8ff" d="M905.52,-54.98C896.8,-47.15 883.66,-35.34 873.1,-25.86"/>
<polygon fill="#63b8ff" stroke="#63b8ff" points="875.43,-23.25 865.65,-19.17 870.75,-28.46 875.43,-23.25"/>
</a>
</g>
</g>
<!-- Node26 -->
<g id="Node000026" class="node">
<title>Node26</title>
<g id="a_Node000026"><a xlink:title=" ">
<polygon fill="#e0e0e0" stroke="#999999" points="979,-19 893,-19 893,0 979,0 979,-19"/>
<text text-anchor="middle" x="936" y="-7" font-family="Helvetica,sans-Serif" font-size="10.00">unordered_set</text>
</a>
</g>
</g>
<!-- Node23&#45;&gt;Node26 -->
<g id="edge36_Node000023_Node000026" class="edge">
<title>Node23&#45;&gt;Node26</title>
<g id="a_edge36_Node000023_Node000026"><a xlink:title=" ">
<path fill="none" stroke="#63b8ff" d="M918.47,-54.75C921.28,-47.65 925.34,-37.4 928.85,-28.56"/>
<polygon fill="#63b8ff" stroke="#63b8ff" points="932.17,-29.68 932.6,-19.09 925.66,-27.1 932.17,-29.68"/>
</a>
</g>
</g>
<!-- Node28 -->
<g id="Node000028" class="node">
<title>Node28</title>
<g id="a_Node000028"><a xlink:title=" ">
<polygon fill="#e0e0e0" stroke="#999999" points="1574.5,-19 1509.5,-19 1509.5,0 1574.5,0 1574.5,-19"/>
<text text-anchor="middle" x="1542" y="-7" font-family="Helvetica,sans-Serif" font-size="10.00">functional</text>
</a>
</g>
</g>
<!-- Node27&#45;&gt;Node28 -->
<g id="edge38_Node000027_Node000028" class="edge">
<title>Node27&#45;&gt;Node28</title>
<g id="a_edge38_Node000027_Node000028"><a xlink:title=" ">
<path fill="none" stroke="#63b8ff" d="M1571.22,-54.75C1566.38,-47.42 1559.32,-36.73 1553.36,-27.7"/>
<polygon fill="#63b8ff" stroke="#63b8ff" points="1556.1,-25.5 1547.67,-19.09 1550.26,-29.36 1556.1,-25.5"/>
</a>
</g>
</g>
<!-- Node29&#45;&gt;Node24 -->
<g id="edge40_Node000029_Node000024" class="edge">
<title>Node29&#45;&gt;Node24</title>
<g id="a_edge40_Node000029_Node000024"><a xlink:title=" ">
<path fill="none" stroke="#63b8ff" d="M1316.4,-109.82C1308.75,-100.98 1296.73,-86.8 1287,-74 1275.38,-58.7 1262.99,-40.65 1254.33,-27.7"/>
<polygon fill="#63b8ff" stroke="#63b8ff" points="1257.19,-25.69 1248.74,-19.3 1251.36,-29.57 1257.19,-25.69"/>
</a>
</g>
</g>
<!-- Node29&#45;&gt;Node27 -->
<g id="edge42_Node000029_Node000027" class="edge">
<title>Node29&#45;&gt;Node27</title>
<g id="a_edge42_Node000029_Node000027"><a xlink:title=" ">
<path fill="none" stroke="#63b8ff" d="M1364.65,-109.98C1408.5,-100.8 1478.42,-86.15 1525.95,-76.19"/>
<polygon fill="#63b8ff" stroke="#63b8ff" points="1526.96,-79.56 1536.03,-74.08 1525.53,-72.71 1526.96,-79.56"/>
</a>
</g>
</g>
<!-- Node30 -->
<g id="Node000030" class="node">
<title>Node30</title>
<g id="a_Node000030"><a xlink:title=" ">
<polygon fill="#e0e0e0" stroke="#999999" points="1354,-74 1296,-74 1296,-55 1354,-55 1354,-74"/>
<text text-anchor="middle" x="1325" y="-62" font-family="Helvetica,sans-Serif" font-size="10.00">memory</text>
</a>
</g>
</g>
<!-- Node29&#45;&gt;Node30 -->
<g id="edge41_Node000029_Node000030" class="edge">
<title>Node29&#45;&gt;Node30</title>
<g id="a_edge41_Node000029_Node000030"><a xlink:title=" ">
<path fill="none" stroke="#63b8ff" d="M1324.17,-109.75C1324.3,-102.8 1324.48,-92.85 1324.65,-84.13"/>
<polygon fill="#63b8ff" stroke="#63b8ff" points="1328.15,-84.15 1324.84,-74.09 1321.15,-84.02 1328.15,-84.15"/>
</a>
</g>
</g>
<!-- Node29&#45;&gt;Node31 -->
<g id="edge43_Node000029_Node000031" class="edge">
<title>Node29&#45;&gt;Node31</title>
<g id="a_edge43_Node000029_Node000031"><a xlink:title=" ">
<path fill="none" stroke="#63b8ff" d="M1340.55,-109.98C1356.89,-101.57 1382.13,-88.59 1401.13,-78.81"/>
<polygon fill="#63b8ff" stroke="#63b8ff" points="1402.86,-81.86 1410.15,-74.17 1399.66,-75.63 1402.86,-81.86"/>
</a>
</g>
</g>
<!-- Node31&#45;&gt;Node11 -->
<g id="edge45_Node000031_Node000011" class="edge">
<title>Node31&#45;&gt;Node11</title>
<g id="a_edge45_Node000031_Node000011"><a xlink:title=" ">
<path fill="none" stroke="#63b8ff" d="M1372.21,-55.99C1369.1,-55.63 1366.01,-55.3 1363,-55 1125.87,-31.3 1065.41,-39.75 828,-19 818.41,-18.16 808.18,-17.15 798.37,-16.12"/>
<polygon fill="#63b8ff" stroke="#63b8ff" points="798.67,-12.63 788.35,-15.05 797.92,-19.59 798.67,-12.63"/>
</a>
</g>
</g>
<!-- Node31&#45;&gt;Node28 -->
<g id="edge44_Node000031_Node000028" class="edge">
<title>Node31&#45;&gt;Node28</title>
<g id="a_edge44_Node000031_Node000028"><a xlink:title=" ">
<path fill="none" stroke="#63b8ff" d="M1445.48,-54.98C1463.98,-46.46 1492.68,-33.23 1513.98,-23.41"/>
<polygon fill="#63b8ff" stroke="#63b8ff" points="1515.57,-26.53 1523.19,-19.17 1512.64,-20.18 1515.57,-26.53"/>
</a>
</g>
</g>
<!-- Node32 -->
<g id="Node000032" class="node">
<title>Node32</title>
<g id="a_Node000032"><a xlink:href="ISolver_8h.html" target="_top" xlink:title=" ">
<polygon fill="white" stroke="#666666" points="1456.5,-19 1397.5,-19 1397.5,0 1456.5,0 1456.5,-19"/>
<text text-anchor="middle" x="1427" y="-7" font-family="Helvetica,sans-Serif" font-size="10.00">ISolver.h</text>
</a>
</g>
</g>
<!-- Node31&#45;&gt;Node32 -->
<g id="edge46_Node000031_Node000032" class="edge">
<title>Node31&#45;&gt;Node32</title>
<g id="a_edge46_Node000031_Node000032"><a xlink:title=" ">
<path fill="none" stroke="#63b8ff" d="M1427,-54.75C1427,-47.8 1427,-37.85 1427,-29.13"/>
<polygon fill="#63b8ff" stroke="#63b8ff" points="1430.5,-29.09 1427,-19.09 1423.5,-29.09 1430.5,-29.09"/>
</a>
</g>
</g>
</g>
</svg>
