<?xml version="1.0" encoding="UTF-8" standalone="no"?>
<!DOCTYPE svg PUBLIC "-//W3C//DTD SVG 1.1//EN"
 "http://www.w3.org/Graphics/SVG/1.1/DTD/svg11.dtd">
<!-- Generated by graphviz version 2.43.0 (0)
 -->
<!-- Title: src/ui/OpenGLWindow.h Pages: 1 -->
<svg width="1604pt" height="313pt"
 viewBox="0.00 0.00 1604.00 313.00" xmlns="http://www.w3.org/2000/svg" xmlns:xlink="http://www.w3.org/1999/xlink">
<g id="graph0" class="graph" transform="scale(1 1) rotate(0) translate(4 309)">
<title>src/ui/OpenGLWindow.h</title>
<!-- Node1 -->
<g id="Node000001" class="node">
<title>Node1</title>
<g id="a_Node000001"><a xlink:title=" ">
<polygon fill="#999999" stroke="#666666" points="651.5,-305 520.5,-305 520.5,-286 651.5,-286 651.5,-305"/>
<text text-anchor="middle" x="586" y="-293" font-family="Helvetica,sans-Serif" font-size="10.00">src/ui/OpenGLWindow.h</text>
</a>
</g>
</g>
<!-- Node2 -->
<g id="Node000002" class="node">
<title>Node2</title>
<g id="a_Node000002"><a xlink:title=" ">
<polygon fill="#e0e0e0" stroke="#999999" points="188,-244.5 0,-244.5 0,-225.5 188,-225.5 188,-244.5"/>
<text text-anchor="middle" x="94" y="-232.5" font-family="Helvetica,sans-Serif" font-size="10.00">QtOpenGLWidgets/QOpenGLWidget</text>
</a>
</g>
</g>
<!-- Node1&#45;&gt;Node2 -->
<g id="edge1_Node000001_Node000002" class="edge">
<title>Node1&#45;&gt;Node2</title>
<g id="a_edge1_Node000001_Node000002"><a xlink:title=" ">
<path fill="none" stroke="#63b8ff" d="M520.22,-287.4C442.83,-278.96 310.48,-264.2 197,-250 186.69,-248.71 175.8,-247.29 165.12,-245.87"/>
<polygon fill="#63b8ff" stroke="#63b8ff" points="165.35,-242.37 154.97,-244.5 164.42,-249.3 165.35,-242.37"/>
</a>
</g>
</g>
<!-- Node3 -->
<g id="Node000003" class="node">
<title>Node3</title>
<g id="a_Node000003"><a xlink:title=" ">
<polygon fill="#e0e0e0" stroke="#999999" points="326,-250 206,-250 206,-220 326,-220 326,-250"/>
<text text-anchor="start" x="214" y="-238" font-family="Helvetica,sans-Serif" font-size="10.00">QOpenGLFunctions_4</text>
<text text-anchor="middle" x="266" y="-227" font-family="Helvetica,sans-Serif" font-size="10.00">_5_Core</text>
</a>
</g>
</g>
<!-- Node1&#45;&gt;Node3 -->
<g id="edge2_Node000001_Node000003" class="edge">
<title>Node1&#45;&gt;Node3</title>
<g id="a_edge2_Node000001_Node000003"><a xlink:title=" ">
<path fill="none" stroke="#63b8ff" d="M535.93,-286C487.4,-277.67 411.44,-264.42 336.31,-250.22"/>
<polygon fill="#63b8ff" stroke="#63b8ff" points="336.67,-246.73 326.19,-248.3 335.37,-253.61 336.67,-246.73"/>
</a>
</g>
</g>
<!-- Node4 -->
<g id="Node000004" class="node">
<title>Node4</title>
<g id="a_Node000004"><a xlink:title=" ">
<polygon fill="#e0e0e0" stroke="#999999" points="397.5,-244.5 344.5,-244.5 344.5,-225.5 397.5,-225.5 397.5,-244.5"/>
<text text-anchor="middle" x="371" y="-232.5" font-family="Helvetica,sans-Serif" font-size="10.00">QTimer</text>
</a>
</g>
</g>
<!-- Node1&#45;&gt;Node4 -->
<g id="edge3_Node000001_Node000004" class="edge">
<title>Node1&#45;&gt;Node4</title>
<g id="a_edge3_Node000001_Node000004"><a xlink:title=" ">
<path fill="none" stroke="#63b8ff" d="M545.42,-285.96C508.87,-277.9 453.85,-264.87 407,-250 405.13,-249.41 403.22,-248.77 401.3,-248.1"/>
<polygon fill="#63b8ff" stroke="#63b8ff" points="402.37,-244.76 391.78,-244.6 399.96,-251.33 402.37,-244.76"/>
</a>
</g>
</g>
<!-- Node5 -->
<g id="Node000005" class="node">
<title>Node5</title>
<g id="a_Node000005"><a xlink:title=" ">
<polygon fill="#e0e0e0" stroke="#999999" points="486,-244.5 416,-244.5 416,-225.5 486,-225.5 486,-244.5"/>
<text text-anchor="middle" x="451" y="-232.5" font-family="Helvetica,sans-Serif" font-size="10.00">QKeyEvent</text>
</a>
</g>
</g>
<!-- Node1&#45;&gt;Node5 -->
<g id="edge4_Node000001_Node000005" class="edge">
<title>Node1&#45;&gt;Node5</title>
<g id="a_edge4_Node000001_Node000005"><a xlink:title=" ">
<path fill="none" stroke="#63b8ff" d="M566.37,-285.99C543.67,-276.16 506.1,-259.88 480.03,-248.58"/>
<polygon fill="#63b8ff" stroke="#63b8ff" points="481.22,-245.28 470.65,-244.52 478.44,-251.7 481.22,-245.28"/>
</a>
</g>
</g>
<!-- Node6 -->
<g id="Node000006" class="node">
<title>Node6</title>
<g id="a_Node000006"><a xlink:title=" ">
<polygon fill="#e0e0e0" stroke="#999999" points="588,-244.5 504,-244.5 504,-225.5 588,-225.5 588,-244.5"/>
<text text-anchor="middle" x="546" y="-232.5" font-family="Helvetica,sans-Serif" font-size="10.00">QMouseEvent</text>
</a>
</g>
</g>
<!-- Node1&#45;&gt;Node6 -->
<g id="edge5_Node000001_Node000006" class="edge">
<title>Node1&#45;&gt;Node6</title>
<g id="a_edge5_Node000001_Node000006"><a xlink:title=" ">
<path fill="none" stroke="#63b8ff" d="M580.1,-285.87C574.25,-277.31 565.13,-263.97 557.79,-253.24"/>
<polygon fill="#63b8ff" stroke="#63b8ff" points="560.46,-250.95 551.93,-244.67 554.68,-254.9 560.46,-250.95"/>
</a>
</g>
</g>
<!-- Node7 -->
<g id="Node000007" class="node">
<title>Node7</title>
<g id="a_Node000007"><a xlink:title=" ">
<polygon fill="#e0e0e0" stroke="#999999" points="646,-244.5 606,-244.5 606,-225.5 646,-225.5 646,-244.5"/>
<text text-anchor="middle" x="626" y="-232.5" font-family="Helvetica,sans-Serif" font-size="10.00">QSet</text>
</a>
</g>
</g>
<!-- Node1&#45;&gt;Node7 -->
<g id="edge6_Node000001_Node000007" class="edge">
<title>Node1&#45;&gt;Node7</title>
<g id="a_edge6_Node000001_Node000007"><a xlink:title=" ">
<path fill="none" stroke="#63b8ff" d="M591.9,-285.87C597.75,-277.31 606.87,-263.97 614.21,-253.24"/>
<polygon fill="#63b8ff" stroke="#63b8ff" points="617.32,-254.9 620.07,-244.67 611.54,-250.95 617.32,-254.9"/>
</a>
</g>
</g>
<!-- Node8 -->
<g id="Node000008" class="node">
<title>Node8</title>
<g id="a_Node000008"><a xlink:title=" ">
<polygon fill="#e0e0e0" stroke="#999999" points="720,-244.5 664,-244.5 664,-225.5 720,-225.5 720,-244.5"/>
<text text-anchor="middle" x="692" y="-232.5" font-family="Helvetica,sans-Serif" font-size="10.00">QCursor</text>
</a>
</g>
</g>
<!-- Node1&#45;&gt;Node8 -->
<g id="edge7_Node000001_Node000008" class="edge">
<title>Node1&#45;&gt;Node8</title>
<g id="a_edge7_Node000001_Node000008"><a xlink:title=" ">
<path fill="none" stroke="#63b8ff" d="M601.64,-285.87C618.94,-276.32 647.05,-260.81 667.33,-249.62"/>
<polygon fill="#63b8ff" stroke="#63b8ff" points="669.23,-252.56 676.3,-244.67 665.85,-246.43 669.23,-252.56"/>
</a>
</g>
</g>
<!-- Node9 -->
<g id="Node000009" class="node">
<title>Node9</title>
<g id="a_Node000009"><a xlink:title=" ">
<polygon fill="#e0e0e0" stroke="#999999" points="788,-244.5 738,-244.5 738,-225.5 788,-225.5 788,-244.5"/>
<text text-anchor="middle" x="763" y="-232.5" font-family="Helvetica,sans-Serif" font-size="10.00">chrono</text>
</a>
</g>
</g>
<!-- Node1&#45;&gt;Node9 -->
<g id="edge8_Node000001_Node000009" class="edge">
<title>Node1&#45;&gt;Node9</title>
<g id="a_edge8_Node000001_Node000009"><a xlink:title=" ">
<path fill="none" stroke="#63b8ff" d="M616.11,-285.98C645.23,-277.54 690.48,-263.89 729,-250 730.43,-249.49 731.88,-248.95 733.35,-248.39"/>
<polygon fill="#63b8ff" stroke="#63b8ff" points="734.96,-251.52 742.98,-244.59 732.39,-245 734.96,-251.52"/>
</a>
</g>
</g>
<!-- Node10 -->
<g id="Node000010" class="node">
<title>Node10</title>
<g id="a_Node000010"><a xlink:href="Ray_8h.html" target="_top" xlink:title=" ">
<polygon fill="white" stroke="#666666" points="1059.5,-74 988.5,-74 988.5,-55 1059.5,-55 1059.5,-74"/>
<text text-anchor="middle" x="1024" y="-62" font-family="Helvetica,sans-Serif" font-size="10.00">math/Ray.h</text>
</a>
</g>
</g>
<!-- Node1&#45;&gt;Node10 -->
<g id="edge9_Node000001_Node000010" class="edge">
<title>Node1&#45;&gt;Node10</title>
<g id="a_edge9_Node000001_Node000010"><a xlink:title=" ">
<path fill="none" stroke="#63b8ff" d="M651.67,-288.14C705.57,-281.6 776.28,-269.57 797,-250 843.87,-205.73 788.65,-154.81 835,-110 840.22,-104.95 924.12,-86.52 978.36,-75.02"/>
<polygon fill="#63b8ff" stroke="#63b8ff" points="979.39,-78.38 988.45,-72.89 977.94,-71.54 979.39,-78.38"/>
</a>
</g>
</g>
<!-- Node12 -->
<g id="Node000012" class="node">
<title>Node12</title>
<g id="a_Node000012"><a xlink:href="PhysicsSystem_8h.html" target="_top" xlink:title=" ">
<polygon fill="white" stroke="#666666" points="1250.5,-244.5 1111.5,-244.5 1111.5,-225.5 1250.5,-225.5 1250.5,-244.5"/>
<text text-anchor="middle" x="1181" y="-232.5" font-family="Helvetica,sans-Serif" font-size="10.00">physics/PhysicsSystem.h</text>
</a>
</g>
</g>
<!-- Node1&#45;&gt;Node12 -->
<g id="edge11_Node000001_Node000012" class="edge">
<title>Node1&#45;&gt;Node12</title>
<g id="a_edge11_Node000001_Node000012"><a xlink:title=" ">
<path fill="none" stroke="#63b8ff" d="M651.66,-288.04C761.64,-277.23 982.68,-255.5 1101.35,-243.83"/>
<polygon fill="#63b8ff" stroke="#63b8ff" points="1101.85,-247.3 1111.46,-242.84 1101.17,-240.33 1101.85,-247.3"/>
</a>
</g>
</g>
<!-- Node11 -->
<g id="Node000011" class="node">
<title>Node11</title>
<g id="a_Node000011"><a xlink:title=" ">
<polygon fill="#e0e0e0" stroke="#999999" points="1065.5,-19 982.5,-19 982.5,0 1065.5,0 1065.5,-19"/>
<text text-anchor="middle" x="1024" y="-7" font-family="Helvetica,sans-Serif" font-size="10.00">glm/vec3.hpp</text>
</a>
</g>
</g>
<!-- Node10&#45;&gt;Node11 -->
<g id="edge10_Node000010_Node000011" class="edge">
<title>Node10&#45;&gt;Node11</title>
<g id="a_edge10_Node000010_Node000011"><a xlink:title=" ">
<path fill="none" stroke="#63b8ff" d="M1024,-54.75C1024,-47.8 1024,-37.85 1024,-29.13"/>
<polygon fill="#63b8ff" stroke="#63b8ff" points="1027.5,-29.09 1024,-19.09 1020.5,-29.09 1027.5,-29.09"/>
</a>
</g>
</g>
<!-- Node13 -->
<g id="Node000013" class="node">
<title>Node13</title>
<g id="a_Node000013"><a xlink:title=" ">
<polygon fill="#e0e0e0" stroke="#999999" points="657.5,-74 610.5,-74 610.5,-55 657.5,-55 657.5,-74"/>
<text text-anchor="middle" x="634" y="-62" font-family="Helvetica,sans-Serif" font-size="10.00">vector</text>
</a>
</g>
</g>
<!-- Node12&#45;&gt;Node13 -->
<g id="edge12_Node000012_Node000013" class="edge">
<title>Node12&#45;&gt;Node13</title>
<g id="a_edge12_Node000012_Node000013"><a xlink:title=" ">
<path fill="none" stroke="#63b8ff" d="M1111.43,-231.19C978.53,-224.19 696.4,-201.03 637,-129 626.8,-116.64 627.21,-97.87 629.47,-83.94"/>
<polygon fill="#63b8ff" stroke="#63b8ff" points="632.92,-84.53 631.51,-74.03 626.07,-83.11 632.92,-84.53"/>
</a>
</g>
</g>
<!-- Node14 -->
<g id="Node000014" class="node">
<title>Node14</title>
<g id="a_Node000014"><a xlink:title=" ">
<polygon fill="#e0e0e0" stroke="#999999" points="902,-74 852,-74 852,-55 902,-55 902,-74"/>
<text text-anchor="middle" x="877" y="-62" font-family="Helvetica,sans-Serif" font-size="10.00">atomic</text>
</a>
</g>
</g>
<!-- Node12&#45;&gt;Node14 -->
<g id="edge13_Node000012_Node000014" class="edge">
<title>Node12&#45;&gt;Node14</title>
<g id="a_edge13_Node000012_Node000014"><a xlink:title=" ">
<path fill="none" stroke="#63b8ff" d="M1168.9,-225.45C1138.57,-204.22 1056.45,-148.1 983,-110 959.14,-97.62 931.05,-85.95 909.78,-77.67"/>
<polygon fill="#63b8ff" stroke="#63b8ff" points="910.82,-74.32 900.23,-74 908.31,-80.86 910.82,-74.32"/>
</a>
</g>
</g>
<!-- Node15 -->
<g id="Node000015" class="node">
<title>Node15</title>
<g id="a_Node000015"><a xlink:title=" ">
<polygon fill="#e0e0e0" stroke="#999999" points="582,-74 534,-74 534,-55 582,-55 582,-74"/>
<text text-anchor="middle" x="558" y="-62" font-family="Helvetica,sans-Serif" font-size="10.00">mutex</text>
</a>
</g>
</g>
<!-- Node12&#45;&gt;Node15 -->
<g id="edge14_Node000012_Node000015" class="edge">
<title>Node12&#45;&gt;Node15</title>
<g id="a_edge14_Node000012_Node000015"><a xlink:title=" ">
<path fill="none" stroke="#63b8ff" d="M1111.14,-230.49C995.91,-224.08 771.27,-208.81 696,-184 650.39,-168.97 638.33,-161.53 603,-129 588.44,-115.6 575.81,-96.75 567.67,-83.07"/>
<polygon fill="#63b8ff" stroke="#63b8ff" points="570.58,-81.11 562.57,-74.17 564.51,-84.59 570.58,-81.11"/>
</a>
</g>
</g>
<!-- Node16 -->
<g id="Node000016" class="node">
<title>Node16</title>
<g id="a_Node000016"><a xlink:title=" ">
<polygon fill="#e0e0e0" stroke="#999999" points="1445,-184 1397,-184 1397,-165 1445,-165 1445,-184"/>
<text text-anchor="middle" x="1421" y="-172" font-family="Helvetica,sans-Serif" font-size="10.00">thread</text>
</a>
</g>
</g>
<!-- Node12&#45;&gt;Node16 -->
<g id="edge15_Node000012_Node000016" class="edge">
<title>Node12&#45;&gt;Node16</title>
<g id="a_edge15_Node000012_Node000016"><a xlink:title=" ">
<path fill="none" stroke="#63b8ff" d="M1215.9,-225.49C1261.73,-214.32 1341.69,-194.83 1387.05,-183.78"/>
<polygon fill="#63b8ff" stroke="#63b8ff" points="1388.1,-187.12 1396.98,-181.35 1386.44,-180.32 1388.1,-187.12"/>
</a>
</g>
</g>
<!-- Node17 -->
<g id="Node000017" class="node">
<title>Node17</title>
<g id="a_Node000017"><a xlink:title=" ">
<polygon fill="#e0e0e0" stroke="#999999" points="1570.5,-184 1463.5,-184 1463.5,-165 1570.5,-165 1570.5,-184"/>
<text text-anchor="middle" x="1517" y="-172" font-family="Helvetica,sans-Serif" font-size="10.00">condition_variable</text>
</a>
</g>
</g>
<!-- Node12&#45;&gt;Node17 -->
<g id="edge16_Node000012_Node000017" class="edge">
<title>Node12&#45;&gt;Node17</title>
<g id="a_edge16_Node000012_Node000017"><a xlink:title=" ">
<path fill="none" stroke="#63b8ff" d="M1229.86,-225.49C1290.33,-214.97 1393.22,-197.05 1458.02,-185.77"/>
<polygon fill="#63b8ff" stroke="#63b8ff" points="1458.83,-189.18 1468.08,-184.02 1457.63,-182.28 1458.83,-189.18"/>
</a>
</g>
</g>
<!-- Node18 -->
<g id="Node000018" class="node">
<title>Node18</title>
<g id="a_Node000018"><a xlink:title=" ">
<polygon fill="#e0e0e0" stroke="#999999" points="1231,-74 1175,-74 1175,-55 1231,-55 1231,-74"/>
<text text-anchor="middle" x="1203" y="-62" font-family="Helvetica,sans-Serif" font-size="10.00">optional</text>
</a>
</g>
</g>
<!-- Node12&#45;&gt;Node18 -->
<g id="edge17_Node000012_Node000018" class="edge">
<title>Node12&#45;&gt;Node18</title>
<g id="a_edge17_Node000012_Node000018"><a xlink:title=" ">
<path fill="none" stroke="#63b8ff" d="M1182.3,-225.1C1184.54,-211.56 1189.86,-185.21 1200,-165 1209.09,-146.88 1221.42,-148.17 1228,-129 1233.51,-112.95 1225.03,-94.98 1216.48,-82.26"/>
<polygon fill="#63b8ff" stroke="#63b8ff" points="1219.19,-80.03 1210.45,-74.04 1213.54,-84.17 1219.19,-80.03"/>
</a>
</g>
</g>
<!-- Node19 -->
<g id="Node000019" class="node">
<title>Node19</title>
<g id="a_Node000019"><a xlink:href="RigidBody_8h.html" target="_top" xlink:title=" ">
<polygon fill="white" stroke="#666666" points="946,-184 872,-184 872,-165 946,-165 946,-184"/>
<text text-anchor="middle" x="909" y="-172" font-family="Helvetica,sans-Serif" font-size="10.00">RigidBody.h</text>
</a>
</g>
</g>
<!-- Node12&#45;&gt;Node19 -->
<g id="edge18_Node000012_Node000019" class="edge">
<title>Node12&#45;&gt;Node19</title>
<g id="a_edge18_Node000012_Node000019"><a xlink:title=" ">
<path fill="none" stroke="#63b8ff" d="M1141.45,-225.49C1092.41,-214.95 1008.91,-196.99 956.47,-185.71"/>
<polygon fill="#63b8ff" stroke="#63b8ff" points="956.92,-182.23 946.41,-183.55 955.45,-189.07 956.92,-182.23"/>
</a>
</g>
</g>
<!-- Node28 -->
<g id="Node000028" class="node">
<title>Node28</title>
<g id="a_Node000028"><a xlink:href="OneUnknownSolver_8h.html" target="_top" xlink:title=" ">
<polygon fill="white" stroke="#666666" points="1596,-129 1442,-129 1442,-110 1596,-110 1596,-129"/>
<text text-anchor="middle" x="1519" y="-117" font-family="Helvetica,sans-Serif" font-size="10.00">solver/OneUnknownSolver.h</text>
</a>
</g>
</g>
<!-- Node12&#45;&gt;Node28 -->
<g id="edge36_Node000012_Node000028" class="edge">
<title>Node12&#45;&gt;Node28</title>
<g id="a_edge36_Node000012_Node000028"><a xlink:title=" ">
<path fill="none" stroke="#63b8ff" d="M1250.68,-230.21C1359.24,-223.58 1558.61,-208.24 1580,-184 1595.74,-166.17 1569.82,-146.56 1547.07,-133.92"/>
<polygon fill="#63b8ff" stroke="#63b8ff" points="1548.43,-130.68 1537.96,-129.11 1545.17,-136.88 1548.43,-130.68"/>
</a>
</g>
</g>
<!-- Node30 -->
<g id="Node000030" class="node">
<title>Node30</title>
<g id="a_Node000030"><a xlink:href="ProblemRouter_8h.html" target="_top" xlink:title=" ">
<polygon fill="white" stroke="#666666" points="1340.5,-184 1209.5,-184 1209.5,-165 1340.5,-165 1340.5,-184"/>
<text text-anchor="middle" x="1275" y="-172" font-family="Helvetica,sans-Serif" font-size="10.00">solver/ProblemRouter.h</text>
</a>
</g>
</g>
<!-- Node12&#45;&gt;Node30 -->
<g id="edge38_Node000012_Node000030" class="edge">
<title>Node12&#45;&gt;Node30</title>
<g id="a_edge38_Node000012_Node000030"><a xlink:title=" ">
<path fill="none" stroke="#63b8ff" d="M1194.87,-225.37C1210,-215.95 1234.46,-200.73 1252.38,-189.58"/>
<polygon fill="#63b8ff" stroke="#63b8ff" points="1254.43,-192.42 1261.07,-184.17 1250.73,-186.48 1254.43,-192.42"/>
</a>
</g>
</g>
<!-- Node31 -->
<g id="Node000031" class="node">
<title>Node31</title>
<g id="a_Node000031"><a xlink:href="VectorRootSolver_8h.html" target="_top" xlink:title=" ">
<polygon fill="white" stroke="#666666" points="1423.5,-129 1314.5,-129 1314.5,-110 1423.5,-110 1423.5,-129"/>
<text text-anchor="middle" x="1369" y="-117" font-family="Helvetica,sans-Serif" font-size="10.00">VectorRootSolver.h</text>
</a>
</g>
</g>
<!-- Node12&#45;&gt;Node31 -->
<g id="edge46_Node000012_Node000031" class="edge">
<title>Node12&#45;&gt;Node31</title>
<g id="a_edge46_Node000012_Node000031"><a xlink:title=" ">
<path fill="none" stroke="#63b8ff" d="M1250.55,-228.76C1284.59,-222.74 1323.78,-210.14 1350,-184 1361.83,-172.2 1366.35,-153.36 1368.05,-139.26"/>
<polygon fill="#63b8ff" stroke="#63b8ff" points="1371.55,-139.45 1368.89,-129.2 1364.57,-138.87 1371.55,-139.45"/>
</a>
</g>
</g>
<!-- Node19&#45;&gt;Node13 -->
<g id="edge20_Node000019_Node000013" class="edge">
<title>Node19&#45;&gt;Node13</title>
<g id="a_edge20_Node000019_Node000013"><a xlink:title=" ">
<path fill="none" stroke="#63b8ff" d="M871.87,-171.75C808.89,-168.04 684.84,-157.27 653,-129 640.51,-117.91 636.07,-98.97 634.58,-84.66"/>
<polygon fill="#63b8ff" stroke="#63b8ff" points="638.05,-84.16 633.91,-74.41 631.07,-84.61 638.05,-84.16"/>
</a>
</g>
</g>
<!-- Node19&#45;&gt;Node15 -->
<g id="edge19_Node000019_Node000015" class="edge">
<title>Node19&#45;&gt;Node15</title>
<g id="a_edge19_Node000019_Node000015"><a xlink:title=" ">
<path fill="none" stroke="#63b8ff" d="M871.66,-173.33C817.61,-171.79 715.44,-163.99 637,-129 611.78,-117.75 587.79,-96.43 573,-81.61"/>
<polygon fill="#63b8ff" stroke="#63b8ff" points="575.26,-78.91 565.79,-74.16 570.23,-83.78 575.26,-78.91"/>
</a>
</g>
</g>
<!-- Node20 -->
<g id="Node000020" class="node">
<title>Node20</title>
<g id="a_Node000020"><a xlink:title=" ">
<polygon fill="#e0e0e0" stroke="#999999" points="1157,-74 1079,-74 1079,-55 1157,-55 1157,-74"/>
<text text-anchor="middle" x="1118" y="-62" font-family="Helvetica,sans-Serif" font-size="10.00">glm/glm.hpp</text>
</a>
</g>
</g>
<!-- Node19&#45;&gt;Node20 -->
<g id="edge21_Node000019_Node000020" class="edge">
<title>Node19&#45;&gt;Node20</title>
<g id="a_edge21_Node000019_Node000020"><a xlink:title=" ">
<path fill="none" stroke="#63b8ff" d="M925.75,-164.84C962.22,-146 1049.02,-101.14 1092.4,-78.73"/>
<polygon fill="#63b8ff" stroke="#63b8ff" points="1094.18,-81.75 1101.46,-74.05 1090.97,-75.53 1094.18,-81.75"/>
</a>
</g>
</g>
<!-- Node21 -->
<g id="Node000021" class="node">
<title>Node21</title>
<g id="a_Node000021"><a xlink:title=" ">
<polygon fill="#e0e0e0" stroke="#999999" points="974,-129 844,-129 844,-110 974,-110 974,-129"/>
<text text-anchor="middle" x="909" y="-117" font-family="Helvetica,sans-Serif" font-size="10.00">glm/gtc/quaternion.hpp</text>
</a>
</g>
</g>
<!-- Node19&#45;&gt;Node21 -->
<g id="edge22_Node000019_Node000021" class="edge">
<title>Node19&#45;&gt;Node21</title>
<g id="a_edge22_Node000019_Node000021"><a xlink:title=" ">
<path fill="none" stroke="#63b8ff" d="M909,-164.75C909,-157.8 909,-147.85 909,-139.13"/>
<polygon fill="#63b8ff" stroke="#63b8ff" points="912.5,-139.09 909,-129.09 905.5,-139.09 912.5,-139.09"/>
</a>
</g>
</g>
<!-- Node22 -->
<g id="Node000022" class="node">
<title>Node22</title>
<g id="a_Node000022"><a xlink:href="ICollider_8h.html" target="_top" xlink:title="Abstract interface for collision detection shapes.">
<polygon fill="white" stroke="#666666" points="1219.5,-129 1106.5,-129 1106.5,-110 1219.5,-110 1219.5,-129"/>
<text text-anchor="middle" x="1163" y="-117" font-family="Helvetica,sans-Serif" font-size="10.00">bounding/ICollider.h</text>
</a>
</g>
</g>
<!-- Node19&#45;&gt;Node22 -->
<g id="edge23_Node000019_Node000022" class="edge">
<title>Node19&#45;&gt;Node22</title>
<g id="a_edge23_Node000019_Node000022"><a xlink:title=" ">
<path fill="none" stroke="#63b8ff" d="M946.21,-165.74C989.94,-156.61 1062.78,-141.41 1111.82,-131.18"/>
<polygon fill="#63b8ff" stroke="#63b8ff" points="1112.83,-134.54 1121.9,-129.08 1111.4,-127.69 1112.83,-134.54"/>
</a>
</g>
</g>
<!-- Node24 -->
<g id="Node000024" class="node">
<title>Node24</title>
<g id="a_Node000024"><a xlink:href="PhysicsBody_8h.html" target="_top" xlink:title=" ">
<polygon fill="white" stroke="#666666" points="787.5,-129 662.5,-129 662.5,-110 787.5,-110 787.5,-129"/>
<text text-anchor="middle" x="725" y="-117" font-family="Helvetica,sans-Serif" font-size="10.00">physics/PhysicsBody.h</text>
</a>
</g>
</g>
<!-- Node19&#45;&gt;Node24 -->
<g id="edge28_Node000019_Node000024" class="edge">
<title>Node19&#45;&gt;Node24</title>
<g id="a_edge28_Node000019_Node000024"><a xlink:title=" ">
<path fill="none" stroke="#63b8ff" d="M879.44,-164.98C848.28,-156.01 799.03,-141.82 764.54,-131.89"/>
<polygon fill="#63b8ff" stroke="#63b8ff" points="765.37,-128.49 754.79,-129.08 763.43,-135.21 765.37,-128.49"/>
</a>
</g>
</g>
<!-- Node22&#45;&gt;Node10 -->
<g id="edge27_Node000022_Node000010" class="edge">
<title>Node22&#45;&gt;Node10</title>
<g id="a_edge27_Node000022_Node000010"><a xlink:title=" ">
<path fill="none" stroke="#63b8ff" d="M1140.67,-109.98C1117.8,-101.27 1082.04,-87.63 1056.14,-77.75"/>
<polygon fill="#63b8ff" stroke="#63b8ff" points="1057.33,-74.46 1046.74,-74.17 1054.84,-81 1057.33,-74.46"/>
</a>
</g>
</g>
<!-- Node22&#45;&gt;Node18 -->
<g id="edge26_Node000022_Node000018" class="edge">
<title>Node22&#45;&gt;Node18</title>
<g id="a_edge26_Node000022_Node000018"><a xlink:title=" ">
<path fill="none" stroke="#63b8ff" d="M1169.61,-109.75C1175.26,-102.26 1183.54,-91.28 1190.45,-82.13"/>
<polygon fill="#63b8ff" stroke="#63b8ff" points="1193.29,-84.18 1196.52,-74.09 1187.7,-79.96 1193.29,-84.18"/>
</a>
</g>
</g>
<!-- Node22&#45;&gt;Node20 -->
<g id="edge24_Node000022_Node000020" class="edge">
<title>Node22&#45;&gt;Node20</title>
<g id="a_edge24_Node000022_Node000020"><a xlink:title=" ">
<path fill="none" stroke="#63b8ff" d="M1155.57,-109.75C1149.15,-102.18 1139.69,-91.05 1131.88,-81.84"/>
<polygon fill="#63b8ff" stroke="#63b8ff" points="1134.43,-79.45 1125.29,-74.09 1129.1,-83.98 1134.43,-79.45"/>
</a>
</g>
</g>
<!-- Node23 -->
<g id="Node000023" class="node">
<title>Node23</title>
<g id="a_Node000023"><a xlink:title=" ">
<polygon fill="#e0e0e0" stroke="#999999" points="1307,-74 1249,-74 1249,-55 1307,-55 1307,-74"/>
<text text-anchor="middle" x="1278" y="-62" font-family="Helvetica,sans-Serif" font-size="10.00">memory</text>
</a>
</g>
</g>
<!-- Node22&#45;&gt;Node23 -->
<g id="edge25_Node000022_Node000023" class="edge">
<title>Node22&#45;&gt;Node23</title>
<g id="a_edge25_Node000022_Node000023"><a xlink:title=" ">
<path fill="none" stroke="#63b8ff" d="M1181.48,-109.98C1199.98,-101.46 1228.68,-88.23 1249.98,-78.41"/>
<polygon fill="#63b8ff" stroke="#63b8ff" points="1251.57,-81.53 1259.19,-74.17 1248.64,-75.18 1251.57,-81.53"/>
</a>
</g>
</g>
<!-- Node24&#45;&gt;Node13 -->
<g id="edge32_Node000024_Node000013" class="edge">
<title>Node24&#45;&gt;Node13</title>
<g id="a_edge32_Node000024_Node000013"><a xlink:title=" ">
<path fill="none" stroke="#63b8ff" d="M710.38,-109.98C696.14,-101.69 674.25,-88.94 657.55,-79.22"/>
<polygon fill="#63b8ff" stroke="#63b8ff" points="659.29,-76.18 648.89,-74.17 655.77,-82.23 659.29,-76.18"/>
</a>
</g>
</g>
<!-- Node24&#45;&gt;Node14 -->
<g id="edge29_Node000024_Node000014" class="edge">
<title>Node24&#45;&gt;Node14</title>
<g id="a_edge29_Node000024_Node000014"><a xlink:title=" ">
<path fill="none" stroke="#63b8ff" d="M749.42,-109.98C774.72,-101.16 814.45,-87.31 842.86,-77.41"/>
<polygon fill="#63b8ff" stroke="#63b8ff" points="844.1,-80.68 852.39,-74.08 841.79,-74.07 844.1,-80.68"/>
</a>
</g>
</g>
<!-- Node24&#45;&gt;Node15 -->
<g id="edge34_Node000024_Node000015" class="edge">
<title>Node24&#45;&gt;Node15</title>
<g id="a_edge34_Node000024_Node000015"><a xlink:title=" ">
<path fill="none" stroke="#63b8ff" d="M698.17,-109.98C669.22,-100.8 623.05,-86.15 591.68,-76.19"/>
<polygon fill="#63b8ff" stroke="#63b8ff" points="592.65,-72.82 582.05,-73.13 590.53,-79.5 592.65,-72.82"/>
</a>
</g>
</g>
<!-- Node24&#45;&gt;Node20 -->
<g id="edge31_Node000024_Node000020" class="edge">
<title>Node24&#45;&gt;Node20</title>
<g id="a_edge31_Node000024_Node000020"><a xlink:title=" ">
<path fill="none" stroke="#63b8ff" d="M787.69,-111.12C856.54,-102.84 970.31,-88.63 1068,-74 1068.33,-73.95 1068.67,-73.9 1069.01,-73.85"/>
<polygon fill="#63b8ff" stroke="#63b8ff" points="1069.65,-77.29 1078.99,-72.28 1068.57,-70.37 1069.65,-77.29"/>
</a>
</g>
</g>
<!-- Node25 -->
<g id="Node000025" class="node">
<title>Node25</title>
<g id="a_Node000025"><a xlink:title=" ">
<polygon fill="#e0e0e0" stroke="#999999" points="968,-74 924,-74 924,-55 968,-55 968,-74"/>
<text text-anchor="middle" x="946" y="-62" font-family="Helvetica,sans-Serif" font-size="10.00">string</text>
</a>
</g>
</g>
<!-- Node24&#45;&gt;Node25 -->
<g id="edge30_Node000024_Node000025" class="edge">
<title>Node24&#45;&gt;Node25</title>
<g id="a_edge30_Node000024_Node000025"><a xlink:title=" ">
<path fill="none" stroke="#63b8ff" d="M761.01,-109.92C798.49,-100.99 858.87,-86.57 911,-74 911.9,-73.78 912.82,-73.56 913.75,-73.34"/>
<polygon fill="#63b8ff" stroke="#63b8ff" points="914.89,-76.66 923.78,-70.91 913.24,-69.86 914.89,-76.66"/>
</a>
</g>
</g>
<!-- Node26 -->
<g id="Node000026" class="node">
<title>Node26</title>
<g id="a_Node000026"><a xlink:title=" ">
<polygon fill="#e0e0e0" stroke="#999999" points="729,-74 691,-74 691,-55 729,-55 729,-74"/>
<text text-anchor="middle" x="710" y="-62" font-family="Helvetica,sans-Serif" font-size="10.00">map</text>
</a>
</g>
</g>
<!-- Node24&#45;&gt;Node26 -->
<g id="edge33_Node000024_Node000026" class="edge">
<title>Node24&#45;&gt;Node26</title>
<g id="a_edge33_Node000024_Node000026"><a xlink:title=" ">
<path fill="none" stroke="#63b8ff" d="M722.52,-109.75C720.54,-102.72 717.68,-92.62 715.19,-83.84"/>
<polygon fill="#63b8ff" stroke="#63b8ff" points="718.52,-82.76 712.43,-74.09 711.79,-84.66 718.52,-82.76"/>
</a>
</g>
</g>
<!-- Node27 -->
<g id="Node000027" class="node">
<title>Node27</title>
<g id="a_Node000027"><a xlink:title=" ">
<polygon fill="#e0e0e0" stroke="#999999" points="833,-74 747,-74 747,-55 833,-55 833,-74"/>
<text text-anchor="middle" x="790" y="-62" font-family="Helvetica,sans-Serif" font-size="10.00">unordered_set</text>
</a>
</g>
</g>
<!-- Node24&#45;&gt;Node27 -->
<g id="edge35_Node000024_Node000027" class="edge">
<title>Node24&#45;&gt;Node27</title>
<g id="a_edge35_Node000024_Node000027"><a xlink:title=" ">
<path fill="none" stroke="#63b8ff" d="M735.44,-109.98C745.15,-102.07 759.82,-90.11 771.5,-80.58"/>
<polygon fill="#63b8ff" stroke="#63b8ff" points="773.83,-83.2 779.37,-74.17 769.4,-77.78 773.83,-83.2"/>
</a>
</g>
</g>
<!-- Node29 -->
<g id="Node000029" class="node">
<title>Node29</title>
<g id="a_Node000029"><a xlink:title=" ">
<polygon fill="#e0e0e0" stroke="#999999" points="1516.5,-74 1451.5,-74 1451.5,-55 1516.5,-55 1516.5,-74"/>
<text text-anchor="middle" x="1484" y="-62" font-family="Helvetica,sans-Serif" font-size="10.00">functional</text>
</a>
</g>
</g>
<!-- Node28&#45;&gt;Node29 -->
<g id="edge37_Node000028_Node000029" class="edge">
<title>Node28&#45;&gt;Node29</title>
<g id="a_edge37_Node000028_Node000029"><a xlink:title=" ">
<path fill="none" stroke="#63b8ff" d="M1513.22,-109.75C1508.38,-102.42 1501.32,-91.73 1495.36,-82.7"/>
<polygon fill="#63b8ff" stroke="#63b8ff" points="1498.1,-80.5 1489.67,-74.09 1492.26,-84.36 1498.1,-80.5"/>
</a>
</g>
</g>
<!-- Node30&#45;&gt;Node23 -->
<g id="edge40_Node000030_Node000023" class="edge">
<title>Node30&#45;&gt;Node23</title>
<g id="a_edge40_Node000030_Node000023"><a xlink:title=" ">
<path fill="none" stroke="#63b8ff" d="M1275.25,-164.66C1275.73,-147.17 1276.82,-107.8 1277.48,-84.27"/>
<polygon fill="#63b8ff" stroke="#63b8ff" points="1280.98,-84.25 1277.76,-74.16 1273.98,-84.06 1280.98,-84.25"/>
</a>
</g>
</g>
<!-- Node30&#45;&gt;Node25 -->
<g id="edge39_Node000030_Node000025" class="edge">
<title>Node30&#45;&gt;Node25</title>
<g id="a_edge39_Node000030_Node000025"><a xlink:title=" ">
<path fill="none" stroke="#63b8ff" d="M1233.12,-164.93C1196.72,-157.04 1142.79,-144.25 1097,-129 1052.64,-114.22 1002.97,-92.24 973.12,-78.39"/>
<polygon fill="#63b8ff" stroke="#63b8ff" points="974.33,-75.1 963.79,-74.03 971.37,-81.44 974.33,-75.1"/>
</a>
</g>
</g>
<!-- Node30&#45;&gt;Node28 -->
<g id="edge41_Node000030_Node000028" class="edge">
<title>Node30&#45;&gt;Node28</title>
<g id="a_edge41_Node000030_Node000028"><a xlink:title=" ">
<path fill="none" stroke="#63b8ff" d="M1314.2,-164.98C1356.41,-155.82 1423.65,-141.21 1469.48,-131.26"/>
<polygon fill="#63b8ff" stroke="#63b8ff" points="1470.46,-134.63 1479.49,-129.08 1468.97,-127.78 1470.46,-134.63"/>
</a>
</g>
</g>
<!-- Node30&#45;&gt;Node31 -->
<g id="edge42_Node000030_Node000031" class="edge">
<title>Node30&#45;&gt;Node31</title>
<g id="a_edge42_Node000030_Node000031"><a xlink:title=" ">
<path fill="none" stroke="#63b8ff" d="M1290.1,-164.98C1304.82,-156.69 1327.42,-143.94 1344.67,-134.22"/>
<polygon fill="#63b8ff" stroke="#63b8ff" points="1346.63,-137.13 1353.62,-129.17 1343.19,-131.03 1346.63,-137.13"/>
</a>
</g>
</g>
<!-- Node31&#45;&gt;Node20 -->
<g id="edge44_Node000031_Node000020" class="edge">
<title>Node31&#45;&gt;Node20</title>
<g id="a_edge44_Node000031_Node000020"><a xlink:title=" ">
<path fill="none" stroke="#63b8ff" d="M1328.67,-109.98C1284.78,-100.72 1214.56,-85.89 1167.39,-75.93"/>
<polygon fill="#63b8ff" stroke="#63b8ff" points="1167.91,-72.46 1157.4,-73.82 1166.46,-79.31 1167.91,-72.46"/>
</a>
</g>
</g>
<!-- Node31&#45;&gt;Node29 -->
<g id="edge43_Node000031_Node000029" class="edge">
<title>Node31&#45;&gt;Node29</title>
<g id="a_edge43_Node000031_Node000029"><a xlink:title=" ">
<path fill="none" stroke="#63b8ff" d="M1387.48,-109.98C1405.98,-101.46 1434.68,-88.23 1455.98,-78.41"/>
<polygon fill="#63b8ff" stroke="#63b8ff" points="1457.57,-81.53 1465.19,-74.17 1454.64,-75.18 1457.57,-81.53"/>
</a>
</g>
</g>
<!-- Node32 -->
<g id="Node000032" class="node">
<title>Node32</title>
<g id="a_Node000032"><a xlink:href="ISolver_8h.html" target="_top" xlink:title="Abstract interface for numerical solvers.">
<polygon fill="white" stroke="#666666" points="1398.5,-74 1339.5,-74 1339.5,-55 1398.5,-55 1398.5,-74"/>
<text text-anchor="middle" x="1369" y="-62" font-family="Helvetica,sans-Serif" font-size="10.00">ISolver.h</text>
</a>
</g>
</g>
<!-- Node31&#45;&gt;Node32 -->
<g id="edge45_Node000031_Node000032" class="edge">
<title>Node31&#45;&gt;Node32</title>
<g id="a_edge45_Node000031_Node000032"><a xlink:title=" ">
<path fill="none" stroke="#63b8ff" d="M1369,-109.75C1369,-102.8 1369,-92.85 1369,-84.13"/>
<polygon fill="#63b8ff" stroke="#63b8ff" points="1372.5,-84.09 1369,-74.09 1365.5,-84.09 1372.5,-84.09"/>
</a>
</g>
</g>
</g>
</svg>
