<?xml version="1.0" encoding="UTF-8" standalone="no"?>
<!DOCTYPE svg PUBLIC "-//W3C//DTD SVG 1.1//EN"
 "http://www.w3.org/Graphics/SVG/1.1/DTD/svg11.dtd">
<!-- Generated by graphviz version 2.43.0 (0)
 -->
<!-- Title: src/ui/OpenGLWindow.h Pages: 1 -->
<!--zoomable 313 -->

<svg id="main" version="1.1" xmlns="http://www.w3.org/2000/svg" xmlns:xlink="http://www.w3.org/1999/xlink" xml:space="preserve" onload="init(evt)">
<style type="text/css"><![CDATA[
.node, .edge {opacity: 0.7;}
.node.selected, .edge.selected {opacity: 1;}
.edge:hover path { stroke: red; }
.edge:hover polygon { stroke: red; fill: red; }
]]></style>

<defs>
  <circle id="rim" cx="0" cy="0" r="7"/>
  <circle id="rim2" cx="0" cy="0" r="3.5"/>
  <g id="zoomPlus">
    <use xlink:href="#rim" fill="#404040"><set attributeName="fill" to="#808080" begin="zoomplus.mouseover" end="zoomplus.mouseout"/></use>
    <path d="M-4,0h8M0,-4v8" fill="none" stroke="white" stroke-width="1.5" pointer-events="none"/>
  </g>
  <g id="zoomMin">
    <use xlink:href="#rim" fill="#404040"><set attributeName="fill" to="#808080" begin="zoomminus.mouseover" end="zoomminus.mouseout"/></use>
    <path d="M-4,0h8" fill="none" stroke="white" stroke-width="1.5" pointer-events="none"/>
  </g>
  <g id="arrowUp" transform="translate(30 24)">
    <use xlink:href="#rim"/>
    <path pointer-events="none" fill="none" stroke="white" stroke-width="1.5" d="M0,-3.0v7 M-2.5,-0.5L0,-3.0L2.5,-0.5"/>
  </g>
  <g id="arrowRight" transform="rotate(90) translate(36 -43)">
    <use xlink:href="#rim"/>
    <path pointer-events="none" fill="none" stroke="white" stroke-width="1.5" d="M0,-3.0v7 M-2.5,-0.5L0,-3.0L2.5,-0.5"/>
  </g>
  <g id="arrowDown" transform="rotate(180) translate(-30 -48)">
    <use xlink:href="#rim"/>
    <path pointer-events="none" fill="none" stroke="white" stroke-width="1.5" d="M0,-3.0v7 M-2.5,-0.5L0,-3.0L2.5,-0.5"/>
  </g>
  <g id="arrowLeft" transform="rotate(270) translate(-36 17)">
    <use xlink:href="#rim"/>
    <path pointer-events="none" fill="none" stroke="white" stroke-width="1.5" d="M0,-3.0v7 M-2.5,-0.5L0,-3.0L2.5,-0.5"/>
  </g>
  <g id="resetDef">
    <use xlink:href="#rim2" fill="#404040"><set attributeName="fill" to="#808080" begin="reset.mouseover" end="reset.mouseout"/></use>
  </g>
</defs>
<script type="application/ecmascript">
var viewWidth = 2315;
var viewHeight = 313;
var sectionId = 'dynsection-0';
</script>
<script type="application/ecmascript" xlink:href="svg.min.js"/>
<svg id="graph" class="graph">
<g id="viewport">
<title>src/ui/OpenGLWindow.h</title>
<!-- Node1 -->
<g id="Node000001" class="node">
<title>Node1</title>
<g id="a_Node000001"><a xlink:title=" ">
<polygon fill="#999999" stroke="#666666" points="651.5,-305 520.5,-305 520.5,-286 651.5,-286 651.5,-305"/>
<text text-anchor="middle" x="586" y="-293" font-family="Helvetica,sans-Serif" font-size="10.00">src/ui/OpenGLWindow.h</text>
</a>
</g>
</g>
<!-- Node2 -->
<g id="Node000002" class="node">
<title>Node2</title>
<g id="a_Node000002"><a xlink:title=" ">
<polygon fill="#e0e0e0" stroke="#999999" points="188,-244.5 0,-244.5 0,-225.5 188,-225.5 188,-244.5"/>
<text text-anchor="middle" x="94" y="-232.5" font-family="Helvetica,sans-Serif" font-size="10.00">QtOpenGLWidgets/QOpenGLWidget</text>
</a>
</g>
</g>
<!-- Node1&#45;&gt;Node2 -->
<g id="edge1_Node000001_Node000002" class="edge">
<title>Node1&#45;&gt;Node2</title>
<g id="a_edge1_Node000001_Node000002"><a xlink:title=" ">
<path fill="none" stroke="#63b8ff" d="M520.22,-287.4C442.83,-278.96 310.48,-264.2 197,-250 186.69,-248.71 175.8,-247.29 165.12,-245.87"/>
<polygon fill="#63b8ff" stroke="#63b8ff" points="165.35,-242.37 154.97,-244.5 164.42,-249.3 165.35,-242.37"/>
</a>
</g>
</g>
<!-- Node3 -->
<g id="Node000003" class="node">
<title>Node3</title>
<g id="a_Node000003"><a xlink:title=" ">
<polygon fill="#e0e0e0" stroke="#999999" points="326,-250 206,-250 206,-220 326,-220 326,-250"/>
<text text-anchor="start" x="214" y="-238" font-family="Helvetica,sans-Serif" font-size="10.00">QOpenGLFunctions_4</text>
<text text-anchor="middle" x="266" y="-227" font-family="Helvetica,sans-Serif" font-size="10.00">_5_Core</text>
</a>
</g>
</g>
<!-- Node1&#45;&gt;Node3 -->
<g id="edge2_Node000001_Node000003" class="edge">
<title>Node1&#45;&gt;Node3</title>
<g id="a_edge2_Node000001_Node000003"><a xlink:title=" ">
<path fill="none" stroke="#63b8ff" d="M535.93,-286C487.4,-277.67 411.44,-264.42 336.31,-250.22"/>
<polygon fill="#63b8ff" stroke="#63b8ff" points="336.67,-246.73 326.19,-248.3 335.37,-253.61 336.67,-246.73"/>
</a>
</g>
</g>
<!-- Node4 -->
<g id="Node000004" class="node">
<title>Node4</title>
<g id="a_Node000004"><a xlink:title=" ">
<polygon fill="#e0e0e0" stroke="#999999" points="397.5,-244.5 344.5,-244.5 344.5,-225.5 397.5,-225.5 397.5,-244.5"/>
<text text-anchor="middle" x="371" y="-232.5" font-family="Helvetica,sans-Serif" font-size="10.00">QTimer</text>
</a>
</g>
</g>
<!-- Node1&#45;&gt;Node4 -->
<g id="edge3_Node000001_Node000004" class="edge">
<title>Node1&#45;&gt;Node4</title>
<g id="a_edge3_Node000001_Node000004"><a xlink:title=" ">
<path fill="none" stroke="#63b8ff" d="M545.42,-285.96C508.87,-277.9 453.85,-264.87 407,-250 405.13,-249.41 403.22,-248.77 401.3,-248.1"/>
<polygon fill="#63b8ff" stroke="#63b8ff" points="402.37,-244.76 391.78,-244.6 399.96,-251.33 402.37,-244.76"/>
</a>
</g>
</g>
<!-- Node5 -->
<g id="Node000005" class="node">
<title>Node5</title>
<g id="a_Node000005"><a xlink:title=" ">
<polygon fill="#e0e0e0" stroke="#999999" points="486,-244.5 416,-244.5 416,-225.5 486,-225.5 486,-244.5"/>
<text text-anchor="middle" x="451" y="-232.5" font-family="Helvetica,sans-Serif" font-size="10.00">QKeyEvent</text>
</a>
</g>
</g>
<!-- Node1&#45;&gt;Node5 -->
<g id="edge4_Node000001_Node000005" class="edge">
<title>Node1&#45;&gt;Node5</title>
<g id="a_edge4_Node000001_Node000005"><a xlink:title=" ">
<path fill="none" stroke="#63b8ff" d="M566.37,-285.99C543.67,-276.16 506.1,-259.88 480.03,-248.58"/>
<polygon fill="#63b8ff" stroke="#63b8ff" points="481.22,-245.28 470.65,-244.52 478.44,-251.7 481.22,-245.28"/>
</a>
</g>
</g>
<!-- Node6 -->
<g id="Node000006" class="node">
<title>Node6</title>
<g id="a_Node000006"><a xlink:title=" ">
<polygon fill="#e0e0e0" stroke="#999999" points="588,-244.5 504,-244.5 504,-225.5 588,-225.5 588,-244.5"/>
<text text-anchor="middle" x="546" y="-232.5" font-family="Helvetica,sans-Serif" font-size="10.00">QMouseEvent</text>
</a>
</g>
</g>
<!-- Node1&#45;&gt;Node6 -->
<g id="edge5_Node000001_Node000006" class="edge">
<title>Node1&#45;&gt;Node6</title>
<g id="a_edge5_Node000001_Node000006"><a xlink:title=" ">
<path fill="none" stroke="#63b8ff" d="M580.1,-285.87C574.25,-277.31 565.13,-263.97 557.79,-253.24"/>
<polygon fill="#63b8ff" stroke="#63b8ff" points="560.46,-250.95 551.93,-244.67 554.68,-254.9 560.46,-250.95"/>
</a>
</g>
</g>
<!-- Node7 -->
<g id="Node000007" class="node">
<title>Node7</title>
<g id="a_Node000007"><a xlink:title=" ">
<polygon fill="#e0e0e0" stroke="#999999" points="646,-244.5 606,-244.5 606,-225.5 646,-225.5 646,-244.5"/>
<text text-anchor="middle" x="626" y="-232.5" font-family="Helvetica,sans-Serif" font-size="10.00">QSet</text>
</a>
</g>
</g>
<!-- Node1&#45;&gt;Node7 -->
<g id="edge6_Node000001_Node000007" class="edge">
<title>Node1&#45;&gt;Node7</title>
<g id="a_edge6_Node000001_Node000007"><a xlink:title=" ">
<path fill="none" stroke="#63b8ff" d="M591.9,-285.87C597.75,-277.31 606.87,-263.97 614.21,-253.24"/>
<polygon fill="#63b8ff" stroke="#63b8ff" points="617.32,-254.9 620.07,-244.67 611.54,-250.95 617.32,-254.9"/>
</a>
</g>
</g>
<!-- Node8 -->
<g id="Node000008" class="node">
<title>Node8</title>
<g id="a_Node000008"><a xlink:title=" ">
<polygon fill="#e0e0e0" stroke="#999999" points="720,-244.5 664,-244.5 664,-225.5 720,-225.5 720,-244.5"/>
<text text-anchor="middle" x="692" y="-232.5" font-family="Helvetica,sans-Serif" font-size="10.00">QCursor</text>
</a>
</g>
</g>
<!-- Node1&#45;&gt;Node8 -->
<g id="edge7_Node000001_Node000008" class="edge">
<title>Node1&#45;&gt;Node8</title>
<g id="a_edge7_Node000001_Node000008"><a xlink:title=" ">
<path fill="none" stroke="#63b8ff" d="M601.64,-285.87C618.94,-276.32 647.05,-260.81 667.33,-249.62"/>
<polygon fill="#63b8ff" stroke="#63b8ff" points="669.23,-252.56 676.3,-244.67 665.85,-246.43 669.23,-252.56"/>
</a>
</g>
</g>
<!-- Node9 -->
<g id="Node000009" class="node">
<title>Node9</title>
<g id="a_Node000009"><a xlink:title=" ">
<polygon fill="#e0e0e0" stroke="#999999" points="788,-244.5 738,-244.5 738,-225.5 788,-225.5 788,-244.5"/>
<text text-anchor="middle" x="763" y="-232.5" font-family="Helvetica,sans-Serif" font-size="10.00">chrono</text>
</a>
</g>
</g>
<!-- Node1&#45;&gt;Node9 -->
<g id="edge8_Node000001_Node000009" class="edge">
<title>Node1&#45;&gt;Node9</title>
<g id="a_edge8_Node000001_Node000009"><a xlink:title=" ">
<path fill="none" stroke="#63b8ff" d="M616.11,-285.98C645.23,-277.54 690.48,-263.89 729,-250 730.43,-249.49 731.88,-248.95 733.35,-248.39"/>
<polygon fill="#63b8ff" stroke="#63b8ff" points="734.96,-251.52 742.98,-244.59 732.39,-245 734.96,-251.52"/>
</a>
</g>
</g>
<!-- Node10 -->
<g id="Node000010" class="node">
<title>Node10</title>
<g id="a_Node000010"><a xlink:href="Ray_8h.html" target="_top" xlink:title=" ">
<polygon fill="white" stroke="#666666" points="854.5,-74 783.5,-74 783.5,-55 854.5,-55 854.5,-74"/>
<text text-anchor="middle" x="819" y="-62" font-family="Helvetica,sans-Serif" font-size="10.00">math/Ray.h</text>
</a>
</g>
</g>
<!-- Node1&#45;&gt;Node10 -->
<g id="edge9_Node000001_Node000010" class="edge">
<title>Node1&#45;&gt;Node10</title>
<g id="a_edge9_Node000001_Node000010"><a xlink:title=" ">
<path fill="none" stroke="#63b8ff" d="M651.6,-288.95C706.08,-282.9 777.67,-271.13 797,-250 839.42,-203.62 830.01,-120.96 823.1,-84.12"/>
<polygon fill="#63b8ff" stroke="#63b8ff" points="826.51,-83.35 821.09,-74.24 819.65,-84.74 826.51,-83.35"/>
</a>
</g>
</g>
<!-- Node12 -->
<g id="Node000012" class="node">
<title>Node12</title>
<g id="a_Node000012"><a xlink:href="PhysicsSystem_8h.html" target="_top" xlink:title=" ">
<polygon fill="white" stroke="#666666" points="1749.5,-244.5 1610.5,-244.5 1610.5,-225.5 1749.5,-225.5 1749.5,-244.5"/>
<text text-anchor="middle" x="1680" y="-232.5" font-family="Helvetica,sans-Serif" font-size="10.00">physics/PhysicsSystem.h</text>
</a>
</g>
</g>
<!-- Node1&#45;&gt;Node12 -->
<g id="edge11_Node000001_Node000012" class="edge">
<title>Node1&#45;&gt;Node12</title>
<g id="a_edge11_Node000001_Node000012"><a xlink:title=" ">
<path fill="none" stroke="#63b8ff" d="M651.56,-290.99C841.73,-280.82 1393.12,-251.34 1600.17,-240.27"/>
<polygon fill="#63b8ff" stroke="#63b8ff" points="1600.56,-243.75 1610.36,-239.72 1600.19,-236.76 1600.56,-243.75"/>
</a>
</g>
</g>
<!-- Node11 -->
<g id="Node000011" class="node">
<title>Node11</title>
<g id="a_Node000011"><a xlink:title=" ">
<polygon fill="#e0e0e0" stroke="#999999" points="860.5,-19 777.5,-19 777.5,0 860.5,0 860.5,-19"/>
<text text-anchor="middle" x="819" y="-7" font-family="Helvetica,sans-Serif" font-size="10.00">glm/vec3.hpp</text>
</a>
</g>
</g>
<!-- Node10&#45;&gt;Node11 -->
<g id="edge10_Node000010_Node000011" class="edge">
<title>Node10&#45;&gt;Node11</title>
<g id="a_edge10_Node000010_Node000011"><a xlink:title=" ">
<path fill="none" stroke="#63b8ff" d="M819,-54.75C819,-47.8 819,-37.85 819,-29.13"/>
<polygon fill="#63b8ff" stroke="#63b8ff" points="822.5,-29.09 819,-19.09 815.5,-29.09 822.5,-29.09"/>
</a>
</g>
</g>
<!-- Node13 -->
<g id="Node000013" class="node">
<title>Node13</title>
<g id="a_Node000013"><a xlink:title=" ">
<polygon fill="#e0e0e0" stroke="#999999" points="1616.5,-74 1569.5,-74 1569.5,-55 1616.5,-55 1616.5,-74"/>
<text text-anchor="middle" x="1593" y="-62" font-family="Helvetica,sans-Serif" font-size="10.00">vector</text>
</a>
</g>
</g>
<!-- Node12&#45;&gt;Node13 -->
<g id="edge12_Node000012_Node000013" class="edge">
<title>Node12&#45;&gt;Node13</title>
<g id="a_edge12_Node000012_Node000013"><a xlink:title=" ">
<path fill="none" stroke="#63b8ff" d="M1675.57,-225.41C1662.01,-199.17 1620.94,-119.61 1602.33,-83.58"/>
<polygon fill="#63b8ff" stroke="#63b8ff" points="1605.23,-81.55 1597.53,-74.27 1599.01,-84.76 1605.23,-81.55"/>
</a>
</g>
</g>
<!-- Node14 -->
<g id="Node000014" class="node">
<title>Node14</title>
<g id="a_Node000014"><a xlink:title=" ">
<polygon fill="#e0e0e0" stroke="#999999" points="1699,-74 1649,-74 1649,-55 1699,-55 1699,-74"/>
<text text-anchor="middle" x="1674" y="-62" font-family="Helvetica,sans-Serif" font-size="10.00">atomic</text>
</a>
</g>
</g>
<!-- Node12&#45;&gt;Node14 -->
<g id="edge13_Node000012_Node000014" class="edge">
<title>Node12&#45;&gt;Node14</title>
<g id="a_edge13_Node000012_Node000014"><a xlink:title=" ">
<path fill="none" stroke="#63b8ff" d="M1679.69,-225.41C1678.77,-199.39 1675.98,-120.97 1674.68,-84.51"/>
<polygon fill="#63b8ff" stroke="#63b8ff" points="1678.17,-84.14 1674.31,-74.27 1671.17,-84.39 1678.17,-84.14"/>
</a>
</g>
</g>
<!-- Node15 -->
<g id="Node000015" class="node">
<title>Node15</title>
<g id="a_Node000015"><a xlink:title=" ">
<polygon fill="#e0e0e0" stroke="#999999" points="1086,-74 1038,-74 1038,-55 1086,-55 1086,-74"/>
<text text-anchor="middle" x="1062" y="-62" font-family="Helvetica,sans-Serif" font-size="10.00">mutex</text>
</a>
</g>
</g>
<!-- Node12&#45;&gt;Node15 -->
<g id="edge14_Node000012_Node000015" class="edge">
<title>Node12&#45;&gt;Node15</title>
<g id="a_edge14_Node000012_Node000015"><a xlink:title=" ">
<path fill="none" stroke="#63b8ff" d="M1610.36,-230.25C1523.05,-224.59 1369.15,-211.48 1240,-184 1160.67,-167.12 1115.97,-192.88 1066,-129 1056.23,-116.5 1056.16,-98.05 1057.98,-84.25"/>
<polygon fill="#63b8ff" stroke="#63b8ff" points="1061.44,-84.83 1059.7,-74.38 1054.54,-83.63 1061.44,-84.83"/>
</a>
</g>
</g>
<!-- Node16 -->
<g id="Node000016" class="node">
<title>Node16</title>
<g id="a_Node000016"><a xlink:title=" ">
<polygon fill="#e0e0e0" stroke="#999999" points="1756,-184 1708,-184 1708,-165 1756,-165 1756,-184"/>
<text text-anchor="middle" x="1732" y="-172" font-family="Helvetica,sans-Serif" font-size="10.00">thread</text>
</a>
</g>
</g>
<!-- Node12&#45;&gt;Node16 -->
<g id="edge15_Node000012_Node000016" class="edge">
<title>Node12&#45;&gt;Node16</title>
<g id="a_edge15_Node000012_Node000016"><a xlink:title=" ">
<path fill="none" stroke="#63b8ff" d="M1687.67,-225.37C1695.51,-216.55 1707.86,-202.66 1717.54,-191.77"/>
<polygon fill="#63b8ff" stroke="#63b8ff" points="1720.27,-193.97 1724.3,-184.17 1715.04,-189.32 1720.27,-193.97"/>
</a>
</g>
</g>
<!-- Node17 -->
<g id="Node000017" class="node">
<title>Node17</title>
<g id="a_Node000017"><a xlink:title=" ">
<polygon fill="#e0e0e0" stroke="#999999" points="1881.5,-184 1774.5,-184 1774.5,-165 1881.5,-165 1881.5,-184"/>
<text text-anchor="middle" x="1828" y="-172" font-family="Helvetica,sans-Serif" font-size="10.00">condition_variable</text>
</a>
</g>
</g>
<!-- Node12&#45;&gt;Node17 -->
<g id="edge16_Node000012_Node000017" class="edge">
<title>Node12&#45;&gt;Node17</title>
<g id="a_edge16_Node000012_Node000017"><a xlink:title=" ">
<path fill="none" stroke="#63b8ff" d="M1701.52,-225.49C1726.62,-215.57 1768.32,-199.09 1796.93,-187.78"/>
<polygon fill="#63b8ff" stroke="#63b8ff" points="1798.44,-190.95 1806.45,-184.02 1795.87,-184.44 1798.44,-190.95"/>
</a>
</g>
</g>
<!-- Node18 -->
<g id="Node000018" class="node">
<title>Node18</title>
<g id="a_Node000018"><a xlink:title=" ">
<polygon fill="#e0e0e0" stroke="#999999" points="938,-74 882,-74 882,-55 938,-55 938,-74"/>
<text text-anchor="middle" x="910" y="-62" font-family="Helvetica,sans-Serif" font-size="10.00">optional</text>
</a>
</g>
</g>
<!-- Node12&#45;&gt;Node18 -->
<g id="edge17_Node000012_Node000018" class="edge">
<title>Node12&#45;&gt;Node18</title>
<g id="a_edge17_Node000012_Node000018"><a xlink:title=" ">
<path fill="none" stroke="#63b8ff" d="M1610.34,-230.38C1422.85,-219.91 918.62,-186.59 873,-129 860.97,-113.81 876.23,-94.29 890.64,-80.93"/>
<polygon fill="#63b8ff" stroke="#63b8ff" points="893.13,-83.41 898.38,-74.21 888.54,-78.12 893.13,-83.41"/>
</a>
</g>
</g>
<!-- Node19 -->
<g id="Node000019" class="node">
<title>Node19</title>
<g id="a_Node000019"><a xlink:href="RigidBody_8h.html" target="_top" xlink:title=" ">
<polygon fill="white" stroke="#666666" points="1323,-184 1249,-184 1249,-165 1323,-165 1323,-184"/>
<text text-anchor="middle" x="1286" y="-172" font-family="Helvetica,sans-Serif" font-size="10.00">RigidBody.h</text>
</a>
</g>
</g>
<!-- Node12&#45;&gt;Node19 -->
<g id="edge18_Node000012_Node000019" class="edge">
<title>Node12&#45;&gt;Node19</title>
<g id="a_edge18_Node000012_Node000019"><a xlink:title=" ">
<path fill="none" stroke="#63b8ff" d="M1622.71,-225.49C1544.59,-213.9 1406.1,-193.33 1333.47,-182.55"/>
<polygon fill="#63b8ff" stroke="#63b8ff" points="1333.65,-179.04 1323.24,-181.03 1332.62,-185.96 1333.65,-179.04"/>
</a>
</g>
</g>
<!-- Node28 -->
<g id="Node000028" class="node">
<title>Node28</title>
<g id="a_Node000028"><a xlink:href="Constants_8h.html" target="_top" xlink:title=" ">
<polygon fill="white" stroke="#666666" points="2014,-184 1900,-184 1900,-165 2014,-165 2014,-184"/>
<text text-anchor="middle" x="1957" y="-172" font-family="Helvetica,sans-Serif" font-size="10.00">physics/Constants.h</text>
</a>
</g>
</g>
<!-- Node12&#45;&gt;Node28 -->
<g id="edge36_Node000012_Node000028" class="edge">
<title>Node12&#45;&gt;Node28</title>
<g id="a_edge36_Node000012_Node000028"><a xlink:title=" ">
<path fill="none" stroke="#63b8ff" d="M1720.28,-225.49C1769.62,-215.07 1853.21,-197.42 1906.72,-186.12"/>
<polygon fill="#63b8ff" stroke="#63b8ff" points="1907.61,-189.51 1916.67,-184.02 1906.17,-182.66 1907.61,-189.51"/>
</a>
</g>
</g>
<!-- Node29 -->
<g id="Node000029" class="node">
<title>Node29</title>
<g id="a_Node000029"><a xlink:href="OneUnknownSolver_8h.html" target="_top" xlink:title=" ">
<polygon fill="white" stroke="#666666" points="2307,-129 2153,-129 2153,-110 2307,-110 2307,-129"/>
<text text-anchor="middle" x="2230" y="-117" font-family="Helvetica,sans-Serif" font-size="10.00">solver/OneUnknownSolver.h</text>
</a>
</g>
</g>
<!-- Node12&#45;&gt;Node29 -->
<g id="edge37_Node000012_Node000029" class="edge">
<title>Node12&#45;&gt;Node29</title>
<g id="a_edge37_Node000012_Node000029"><a xlink:title=" ">
<path fill="none" stroke="#63b8ff" d="M1749.69,-234.5C1871.49,-234.19 2116.98,-227.92 2189,-184 2205.77,-173.77 2216.94,-153.8 2223.33,-138.97"/>
<polygon fill="#63b8ff" stroke="#63b8ff" points="2226.74,-139.88 2227.15,-129.3 2220.23,-137.31 2226.74,-139.88"/>
</a>
</g>
</g>
<!-- Node31 -->
<g id="Node000031" class="node">
<title>Node31</title>
<g id="a_Node000031"><a xlink:href="ProblemRouter_8h.html" target="_top" xlink:title=" ">
<polygon fill="white" stroke="#666666" points="2163.5,-184 2032.5,-184 2032.5,-165 2163.5,-165 2163.5,-184"/>
<text text-anchor="middle" x="2098" y="-172" font-family="Helvetica,sans-Serif" font-size="10.00">solver/ProblemRouter.h</text>
</a>
</g>
</g>
<!-- Node12&#45;&gt;Node31 -->
<g id="edge39_Node000012_Node000031" class="edge">
<title>Node12&#45;&gt;Node31</title>
<g id="a_edge39_Node000012_Node000031"><a xlink:title=" ">
<path fill="none" stroke="#63b8ff" d="M1740.78,-225.49C1816.78,-214.86 1946.65,-196.68 2027.1,-185.42"/>
<polygon fill="#63b8ff" stroke="#63b8ff" points="2027.73,-188.87 2037.15,-184.02 2026.76,-181.94 2027.73,-188.87"/>
</a>
</g>
</g>
<!-- Node32 -->
<g id="Node000032" class="node">
<title>Node32</title>
<g id="a_Node000032"><a xlink:href="VectorRootSolver_8h.html" target="_top" xlink:title=" ">
<polygon fill="white" stroke="#666666" points="2134.5,-129 2025.5,-129 2025.5,-110 2134.5,-110 2134.5,-129"/>
<text text-anchor="middle" x="2080" y="-117" font-family="Helvetica,sans-Serif" font-size="10.00">VectorRootSolver.h</text>
</a>
</g>
</g>
<!-- Node12&#45;&gt;Node32 -->
<g id="edge52_Node000012_Node000032" class="edge">
<title>Node12&#45;&gt;Node32</title>
<g id="a_edge52_Node000012_Node000032"><a xlink:title=" ">
<path fill="none" stroke="#63b8ff" d="M1749.57,-232.01C1878.75,-227.59 2145.15,-214.82 2173,-184 2193.16,-161.69 2155.52,-143.26 2122.26,-132.11"/>
<polygon fill="#63b8ff" stroke="#63b8ff" points="2123.19,-128.73 2112.6,-129.02 2121.06,-135.4 2123.19,-128.73"/>
</a>
</g>
</g>
<!-- Node34 -->
<g id="Node000034" class="node">
<title>Node34</title>
<g id="a_Node000034"><a xlink:href="Octree_8h.html" target="_top" xlink:title=" ">
<polygon fill="white" stroke="#666666" points="1606,-184 1512,-184 1512,-165 1606,-165 1606,-184"/>
<text text-anchor="middle" x="1559" y="-172" font-family="Helvetica,sans-Serif" font-size="10.00">spatial/Octree.h</text>
</a>
</g>
</g>
<!-- Node12&#45;&gt;Node34 -->
<g id="edge47_Node000012_Node000034" class="edge">
<title>Node12&#45;&gt;Node34</title>
<g id="a_edge47_Node000012_Node000034"><a xlink:title=" ">
<path fill="none" stroke="#63b8ff" d="M1662.41,-225.49C1642.24,-215.75 1608.98,-199.66 1585.64,-188.38"/>
<polygon fill="#63b8ff" stroke="#63b8ff" points="1587.14,-185.22 1576.62,-184.02 1584.1,-191.52 1587.14,-185.22"/>
</a>
</g>
</g>
<!-- Node19&#45;&gt;Node13 -->
<g id="edge20_Node000019_Node000013" class="edge">
<title>Node19&#45;&gt;Node13</title>
<g id="a_edge20_Node000019_Node000013"><a xlink:title=" ">
<path fill="none" stroke="#63b8ff" d="M1323.37,-168.9C1364.55,-162.99 1432.21,-150.81 1487,-129 1503.95,-122.25 1545.18,-96.43 1570.94,-79.87"/>
<polygon fill="#63b8ff" stroke="#63b8ff" points="1573.15,-82.6 1579.65,-74.24 1569.35,-76.72 1573.15,-82.6"/>
</a>
</g>
</g>
<!-- Node19&#45;&gt;Node15 -->
<g id="edge19_Node000019_Node000015" class="edge">
<title>Node19&#45;&gt;Node15</title>
<g id="a_edge19_Node000019_Node000015"><a xlink:title=" ">
<path fill="none" stroke="#63b8ff" d="M1248.88,-169.95C1196.63,-164.22 1105.05,-151.27 1081,-129 1068.74,-117.65 1064.28,-98.75 1062.71,-84.51"/>
<polygon fill="#63b8ff" stroke="#63b8ff" points="1066.18,-84.05 1061.98,-74.33 1059.2,-84.55 1066.18,-84.05"/>
</a>
</g>
</g>
<!-- Node20 -->
<g id="Node000020" class="node">
<title>Node20</title>
<g id="a_Node000020"><a xlink:title=" ">
<polygon fill="#e0e0e0" stroke="#999999" points="1363,-74 1285,-74 1285,-55 1363,-55 1363,-74"/>
<text text-anchor="middle" x="1324" y="-62" font-family="Helvetica,sans-Serif" font-size="10.00">glm/glm.hpp</text>
</a>
</g>
</g>
<!-- Node19&#45;&gt;Node20 -->
<g id="edge21_Node000019_Node000020" class="edge">
<title>Node19&#45;&gt;Node20</title>
<g id="a_edge21_Node000019_Node000020"><a xlink:title=" ">
<path fill="none" stroke="#63b8ff" d="M1289.11,-164.66C1295.32,-147.01 1309.37,-107.09 1317.62,-83.64"/>
<polygon fill="#63b8ff" stroke="#63b8ff" points="1320.94,-84.75 1320.95,-74.16 1314.33,-82.43 1320.94,-84.75"/>
</a>
</g>
</g>
<!-- Node21 -->
<g id="Node000021" class="node">
<title>Node21</title>
<g id="a_Node000021"><a xlink:title=" ">
<polygon fill="#e0e0e0" stroke="#999999" points="1220,-129 1090,-129 1090,-110 1220,-110 1220,-129"/>
<text text-anchor="middle" x="1155" y="-117" font-family="Helvetica,sans-Serif" font-size="10.00">glm/gtc/quaternion.hpp</text>
</a>
</g>
</g>
<!-- Node19&#45;&gt;Node21 -->
<g id="edge22_Node000019_Node000021" class="edge">
<title>Node19&#45;&gt;Node21</title>
<g id="a_edge22_Node000019_Node000021"><a xlink:title=" ">
<path fill="none" stroke="#63b8ff" d="M1264.95,-164.98C1243.59,-156.34 1210.3,-142.87 1185.94,-133.02"/>
<polygon fill="#63b8ff" stroke="#63b8ff" points="1187.01,-129.68 1176.43,-129.17 1184.39,-136.17 1187.01,-129.68"/>
</a>
</g>
</g>
<!-- Node22 -->
<g id="Node000022" class="node">
<title>Node22</title>
<g id="a_Node000022"><a xlink:href="ICollider_8h.html" target="_top" xlink:title="Abstract interface for collision detection shapes.">
<polygon fill="white" stroke="#666666" points="995.5,-129 882.5,-129 882.5,-110 995.5,-110 995.5,-129"/>
<text text-anchor="middle" x="939" y="-117" font-family="Helvetica,sans-Serif" font-size="10.00">bounding/ICollider.h</text>
</a>
</g>
</g>
<!-- Node19&#45;&gt;Node22 -->
<g id="edge23_Node000019_Node000022" class="edge">
<title>Node19&#45;&gt;Node22</title>
<g id="a_edge23_Node000019_Node000022"><a xlink:title=" ">
<path fill="none" stroke="#63b8ff" d="M1248.86,-167.83C1190.59,-158.93 1076.86,-141.56 1004.58,-130.52"/>
<polygon fill="#63b8ff" stroke="#63b8ff" points="1005.08,-127.05 994.67,-129 1004.02,-133.97 1005.08,-127.05"/>
</a>
</g>
</g>
<!-- Node24 -->
<g id="Node000024" class="node">
<title>Node24</title>
<g id="a_Node000024"><a xlink:href="PhysicsBody_8h.html" target="_top" xlink:title=" ">
<polygon fill="white" stroke="#666666" points="1477.5,-129 1352.5,-129 1352.5,-110 1477.5,-110 1477.5,-129"/>
<text text-anchor="middle" x="1415" y="-117" font-family="Helvetica,sans-Serif" font-size="10.00">physics/PhysicsBody.h</text>
</a>
</g>
</g>
<!-- Node19&#45;&gt;Node24 -->
<g id="edge28_Node000019_Node000024" class="edge">
<title>Node19&#45;&gt;Node24</title>
<g id="a_edge28_Node000019_Node000024"><a xlink:title=" ">
<path fill="none" stroke="#63b8ff" d="M1306.73,-164.98C1327.76,-156.34 1360.55,-142.87 1384.54,-133.02"/>
<polygon fill="#63b8ff" stroke="#63b8ff" points="1385.98,-136.21 1393.9,-129.17 1383.32,-129.73 1385.98,-136.21"/>
</a>
</g>
</g>
<!-- Node22&#45;&gt;Node10 -->
<g id="edge27_Node000022_Node000010" class="edge">
<title>Node22&#45;&gt;Node10</title>
<g id="a_edge27_Node000022_Node000010"><a xlink:title=" ">
<path fill="none" stroke="#63b8ff" d="M919.72,-109.98C900.33,-101.42 870.19,-88.11 847.93,-78.28"/>
<polygon fill="#63b8ff" stroke="#63b8ff" points="849.19,-75.01 838.63,-74.17 846.36,-81.41 849.19,-75.01"/>
</a>
</g>
</g>
<!-- Node22&#45;&gt;Node18 -->
<g id="edge26_Node000022_Node000018" class="edge">
<title>Node22&#45;&gt;Node18</title>
<g id="a_edge26_Node000022_Node000018"><a xlink:title=" ">
<path fill="none" stroke="#63b8ff" d="M934.21,-109.75C930.24,-102.49 924.47,-91.95 919.57,-82.98"/>
<polygon fill="#63b8ff" stroke="#63b8ff" points="922.57,-81.18 914.7,-74.09 916.43,-84.54 922.57,-81.18"/>
</a>
</g>
</g>
<!-- Node22&#45;&gt;Node20 -->
<g id="edge24_Node000022_Node000020" class="edge">
<title>Node22&#45;&gt;Node20</title>
<g id="a_edge24_Node000022_Node000020"><a xlink:title=" ">
<path fill="none" stroke="#63b8ff" d="M995.81,-110.68C1071.27,-100.29 1203.33,-82.11 1274.76,-72.28"/>
<polygon fill="#63b8ff" stroke="#63b8ff" points="1275.42,-75.72 1284.85,-70.89 1274.46,-68.79 1275.42,-75.72"/>
</a>
</g>
</g>
<!-- Node23 -->
<g id="Node000023" class="node">
<title>Node23</title>
<g id="a_Node000023"><a xlink:title=" ">
<polygon fill="#e0e0e0" stroke="#999999" points="1018,-74 960,-74 960,-55 1018,-55 1018,-74"/>
<text text-anchor="middle" x="989" y="-62" font-family="Helvetica,sans-Serif" font-size="10.00">memory</text>
</a>
</g>
</g>
<!-- Node22&#45;&gt;Node23 -->
<g id="edge25_Node000022_Node000023" class="edge">
<title>Node22&#45;&gt;Node23</title>
<g id="a_edge25_Node000022_Node000023"><a xlink:title=" ">
<path fill="none" stroke="#63b8ff" d="M947.26,-109.75C954.46,-102.11 965.11,-90.82 973.85,-81.56"/>
<polygon fill="#63b8ff" stroke="#63b8ff" points="976.58,-83.76 980.9,-74.09 971.49,-78.96 976.58,-83.76"/>
</a>
</g>
</g>
<!-- Node24&#45;&gt;Node13 -->
<g id="edge32_Node000024_Node000013" class="edge">
<title>Node24&#45;&gt;Node13</title>
<g id="a_edge32_Node000024_Node000013"><a xlink:title=" ">
<path fill="none" stroke="#63b8ff" d="M1443.6,-109.98C1475.22,-100.57 1526.09,-85.42 1559.53,-75.46"/>
<polygon fill="#63b8ff" stroke="#63b8ff" points="1560.73,-78.76 1569.31,-72.55 1558.73,-72.05 1560.73,-78.76"/>
</a>
</g>
</g>
<!-- Node24&#45;&gt;Node14 -->
<g id="edge29_Node000024_Node000014" class="edge">
<title>Node24&#45;&gt;Node14</title>
<g id="a_edge29_Node000024_Node000014"><a xlink:title=" ">
<path fill="none" stroke="#63b8ff" d="M1456.61,-109.98C1507.13,-99.65 1591.43,-82.4 1638.84,-72.69"/>
<polygon fill="#63b8ff" stroke="#63b8ff" points="1639.84,-76.06 1648.94,-70.63 1638.44,-69.2 1639.84,-76.06"/>
</a>
</g>
</g>
<!-- Node24&#45;&gt;Node15 -->
<g id="edge34_Node000024_Node000015" class="edge">
<title>Node24&#45;&gt;Node15</title>
<g id="a_edge34_Node000024_Node000015"><a xlink:title=" ">
<path fill="none" stroke="#63b8ff" d="M1358.28,-109.98C1284.38,-98.89 1157.41,-79.82 1096.53,-70.68"/>
<polygon fill="#63b8ff" stroke="#63b8ff" points="1096.71,-67.17 1086.3,-69.15 1095.67,-74.09 1096.71,-67.17"/>
</a>
</g>
</g>
<!-- Node24&#45;&gt;Node20 -->
<g id="edge31_Node000024_Node000020" class="edge">
<title>Node24&#45;&gt;Node20</title>
<g id="a_edge31_Node000024_Node000020"><a xlink:title=" ">
<path fill="none" stroke="#63b8ff" d="M1400.38,-109.98C1386.14,-101.69 1364.25,-88.94 1347.55,-79.22"/>
<polygon fill="#63b8ff" stroke="#63b8ff" points="1349.29,-76.18 1338.89,-74.17 1345.77,-82.23 1349.29,-76.18"/>
</a>
</g>
</g>
<!-- Node25 -->
<g id="Node000025" class="node">
<title>Node25</title>
<g id="a_Node000025"><a xlink:title=" ">
<polygon fill="#e0e0e0" stroke="#999999" points="1829,-74 1785,-74 1785,-55 1829,-55 1829,-74"/>
<text text-anchor="middle" x="1807" y="-62" font-family="Helvetica,sans-Serif" font-size="10.00">string</text>
</a>
</g>
</g>
<!-- Node24&#45;&gt;Node25 -->
<g id="edge30_Node000024_Node000025" class="edge">
<title>Node24&#45;&gt;Node25</title>
<g id="a_edge30_Node000024_Node000025"><a xlink:title=" ">
<path fill="none" stroke="#63b8ff" d="M1477.55,-110.04C1562.11,-98.61 1709.8,-78.64 1774.77,-69.86"/>
<polygon fill="#63b8ff" stroke="#63b8ff" points="1775.38,-73.31 1784.82,-68.5 1774.45,-66.37 1775.38,-73.31"/>
</a>
</g>
</g>
<!-- Node26 -->
<g id="Node000026" class="node">
<title>Node26</title>
<g id="a_Node000026"><a xlink:title=" ">
<polygon fill="#e0e0e0" stroke="#999999" points="1427,-74 1389,-74 1389,-55 1427,-55 1427,-74"/>
<text text-anchor="middle" x="1408" y="-62" font-family="Helvetica,sans-Serif" font-size="10.00">map</text>
</a>
</g>
</g>
<!-- Node24&#45;&gt;Node26 -->
<g id="edge33_Node000024_Node000026" class="edge">
<title>Node24&#45;&gt;Node26</title>
<g id="a_edge33_Node000024_Node000026"><a xlink:title=" ">
<path fill="none" stroke="#63b8ff" d="M1413.84,-109.75C1412.93,-102.8 1411.61,-92.85 1410.46,-84.13"/>
<polygon fill="#63b8ff" stroke="#63b8ff" points="1413.91,-83.54 1409.13,-74.09 1406.97,-84.46 1413.91,-83.54"/>
</a>
</g>
</g>
<!-- Node27 -->
<g id="Node000027" class="node">
<title>Node27</title>
<g id="a_Node000027"><a xlink:title=" ">
<polygon fill="#e0e0e0" stroke="#999999" points="1531,-74 1445,-74 1445,-55 1531,-55 1531,-74"/>
<text text-anchor="middle" x="1488" y="-62" font-family="Helvetica,sans-Serif" font-size="10.00">unordered_set</text>
</a>
</g>
</g>
<!-- Node24&#45;&gt;Node27 -->
<g id="edge35_Node000024_Node000027" class="edge">
<title>Node24&#45;&gt;Node27</title>
<g id="a_edge35_Node000024_Node000027"><a xlink:title=" ">
<path fill="none" stroke="#63b8ff" d="M1426.73,-109.98C1437.73,-102 1454.42,-89.88 1467.6,-80.31"/>
<polygon fill="#63b8ff" stroke="#63b8ff" points="1470.02,-82.88 1476.06,-74.17 1465.91,-77.21 1470.02,-82.88"/>
</a>
</g>
</g>
<!-- Node30 -->
<g id="Node000030" class="node">
<title>Node30</title>
<g id="a_Node000030"><a xlink:title=" ">
<polygon fill="#e0e0e0" stroke="#999999" points="2227.5,-74 2162.5,-74 2162.5,-55 2227.5,-55 2227.5,-74"/>
<text text-anchor="middle" x="2195" y="-62" font-family="Helvetica,sans-Serif" font-size="10.00">functional</text>
</a>
</g>
</g>
<!-- Node29&#45;&gt;Node30 -->
<g id="edge38_Node000029_Node000030" class="edge">
<title>Node29&#45;&gt;Node30</title>
<g id="a_edge38_Node000029_Node000030"><a xlink:title=" ">
<path fill="none" stroke="#63b8ff" d="M2224.22,-109.75C2219.38,-102.42 2212.32,-91.73 2206.36,-82.7"/>
<polygon fill="#63b8ff" stroke="#63b8ff" points="2209.1,-80.5 2200.67,-74.09 2203.26,-84.36 2209.1,-80.5"/>
</a>
</g>
</g>
<!-- Node31&#45;&gt;Node23 -->
<g id="edge41_Node000031_Node000023" class="edge">
<title>Node31&#45;&gt;Node23</title>
<g id="a_edge41_Node000031_Node000023"><a xlink:title=" ">
<path fill="none" stroke="#63b8ff" d="M2032.17,-165.81C2029.07,-165.52 2026,-165.25 2023,-165 1721.84,-139.97 1644.28,-163.05 1344,-129 1326.35,-127 1046.44,-77.37 1029,-74 1028.78,-73.96 1028.56,-73.92 1028.34,-73.87"/>
<polygon fill="#63b8ff" stroke="#63b8ff" points="1028.74,-70.38 1018.25,-71.84 1027.36,-77.25 1028.74,-70.38"/>
</a>
</g>
</g>
<!-- Node31&#45;&gt;Node25 -->
<g id="edge40_Node000031_Node000025" class="edge">
<title>Node31&#45;&gt;Node25</title>
<g id="a_edge40_Node000031_Node000025"><a xlink:title=" ">
<path fill="none" stroke="#63b8ff" d="M2074.68,-164.84C2022.79,-145.59 1897.73,-99.17 1838.77,-77.29"/>
<polygon fill="#63b8ff" stroke="#63b8ff" points="1839.82,-73.95 1829.23,-73.75 1837.39,-80.51 1839.82,-73.95"/>
</a>
</g>
</g>
<!-- Node31&#45;&gt;Node29 -->
<g id="edge42_Node000031_Node000029" class="edge">
<title>Node31&#45;&gt;Node29</title>
<g id="a_edge42_Node000031_Node000029"><a xlink:title=" ">
<path fill="none" stroke="#63b8ff" d="M2119.21,-164.98C2140.73,-156.34 2174.28,-142.87 2198.83,-133.02"/>
<polygon fill="#63b8ff" stroke="#63b8ff" points="2200.43,-136.14 2208.41,-129.17 2197.82,-129.65 2200.43,-136.14"/>
</a>
</g>
</g>
<!-- Node31&#45;&gt;Node32 -->
<g id="edge43_Node000031_Node000032" class="edge">
<title>Node31&#45;&gt;Node32</title>
<g id="a_edge43_Node000031_Node000032"><a xlink:title=" ">
<path fill="none" stroke="#63b8ff" d="M2095.03,-164.75C2092.64,-157.72 2089.21,-147.62 2086.23,-138.84"/>
<polygon fill="#63b8ff" stroke="#63b8ff" points="2089.45,-137.43 2082.92,-129.09 2082.82,-139.68 2089.45,-137.43"/>
</a>
</g>
</g>
<!-- Node32&#45;&gt;Node20 -->
<g id="edge45_Node000032_Node000020" class="edge">
<title>Node32&#45;&gt;Node20</title>
<g id="a_edge45_Node000032_Node000020"><a xlink:title=" ">
<path fill="none" stroke="#63b8ff" d="M2025.4,-116.65C1907.37,-112.29 1619.73,-99.76 1380,-74 1377.78,-73.76 1375.5,-73.5 1373.21,-73.22"/>
<polygon fill="#63b8ff" stroke="#63b8ff" points="1373.48,-69.72 1363.11,-71.88 1372.56,-76.66 1373.48,-69.72"/>
</a>
</g>
</g>
<!-- Node32&#45;&gt;Node30 -->
<g id="edge44_Node000032_Node000030" class="edge">
<title>Node32&#45;&gt;Node30</title>
<g id="a_edge44_Node000032_Node000030"><a xlink:title=" ">
<path fill="none" stroke="#63b8ff" d="M2098.48,-109.98C2116.98,-101.46 2145.68,-88.23 2166.98,-78.41"/>
<polygon fill="#63b8ff" stroke="#63b8ff" points="2168.57,-81.53 2176.19,-74.17 2165.64,-75.18 2168.57,-81.53"/>
</a>
</g>
</g>
<!-- Node33 -->
<g id="Node000033" class="node">
<title>Node33</title>
<g id="a_Node000033"><a xlink:href="ISolver_8h.html" target="_top" xlink:title="Abstract interface for numerical solvers.">
<polygon fill="white" stroke="#666666" points="2109.5,-74 2050.5,-74 2050.5,-55 2109.5,-55 2109.5,-74"/>
<text text-anchor="middle" x="2080" y="-62" font-family="Helvetica,sans-Serif" font-size="10.00">ISolver.h</text>
</a>
</g>
</g>
<!-- Node32&#45;&gt;Node33 -->
<g id="edge46_Node000032_Node000033" class="edge">
<title>Node32&#45;&gt;Node33</title>
<g id="a_edge46_Node000032_Node000033"><a xlink:title=" ">
<path fill="none" stroke="#63b8ff" d="M2080,-109.75C2080,-102.8 2080,-92.85 2080,-84.13"/>
<polygon fill="#63b8ff" stroke="#63b8ff" points="2083.5,-84.09 2080,-74.09 2076.5,-84.09 2083.5,-84.09"/>
</a>
</g>
</g>
<!-- Node34&#45;&gt;Node13 -->
<g id="edge50_Node000034_Node000013" class="edge">
<title>Node34&#45;&gt;Node13</title>
<g id="a_edge50_Node000034_Node000013"><a xlink:title=" ">
<path fill="none" stroke="#63b8ff" d="M1568.61,-164.69C1576.87,-156.41 1588.2,-143.18 1593,-129 1597.86,-114.62 1597.5,-97.34 1596.12,-84.44"/>
<polygon fill="#63b8ff" stroke="#63b8ff" points="1599.57,-83.85 1594.75,-74.42 1592.63,-84.8 1599.57,-83.85"/>
</a>
</g>
</g>
<!-- Node34&#45;&gt;Node20 -->
<g id="edge49_Node000034_Node000020" class="edge">
<title>Node34&#45;&gt;Node20</title>
<g id="a_edge49_Node000034_Node000020"><a xlink:title=" ">
<path fill="none" stroke="#63b8ff" d="M1511.63,-169.27C1455.99,-163.37 1368.18,-150.85 1344,-129 1331.55,-117.75 1326.79,-98.83 1325,-84.57"/>
<polygon fill="#63b8ff" stroke="#63b8ff" points="1328.47,-84.02 1324.11,-74.36 1321.49,-84.63 1328.47,-84.02"/>
</a>
</g>
</g>
<!-- Node34&#45;&gt;Node24 -->
<g id="edge48_Node000034_Node000024" class="edge">
<title>Node34&#45;&gt;Node24</title>
<g id="a_edge48_Node000034_Node000024"><a xlink:title=" ">
<path fill="none" stroke="#63b8ff" d="M1535.86,-164.98C1512.18,-156.27 1475.13,-142.63 1448.29,-132.75"/>
<polygon fill="#63b8ff" stroke="#63b8ff" points="1449.15,-129.34 1438.56,-129.17 1446.73,-135.91 1449.15,-129.34"/>
</a>
</g>
</g>
<!-- Node35 -->
<g id="Node000035" class="node">
<title>Node35</title>
<g id="a_Node000035"><a xlink:title=" ">
<polygon fill="#e0e0e0" stroke="#999999" points="1584,-129 1534,-129 1534,-110 1584,-110 1584,-129"/>
<text text-anchor="middle" x="1559" y="-117" font-family="Helvetica,sans-Serif" font-size="10.00">cstdint</text>
</a>
</g>
</g>
<!-- Node34&#45;&gt;Node35 -->
<g id="edge51_Node000034_Node000035" class="edge">
<title>Node34&#45;&gt;Node35</title>
<g id="a_edge51_Node000034_Node000035"><a xlink:title=" ">
<path fill="none" stroke="#63b8ff" d="M1559,-164.75C1559,-157.8 1559,-147.85 1559,-139.13"/>
<polygon fill="#63b8ff" stroke="#63b8ff" points="1562.5,-139.09 1559,-129.09 1555.5,-139.09 1562.5,-139.09"/>
</a>
</g>
</g>
</g>
</svg>

<g id="navigator" transform="translate(0 0)" fill="#404254">
  <rect fill="#f2f5e9" fill-opacity="0.5" stroke="#606060" stroke-width=".5" x="0" y="0" width="60" height="60"/>
  <use id="zoomplus" xlink:href="#zoomPlus" x="17" y="9" onmousedown="handleZoom(evt,'in')"/>
  <use id="zoomminus" xlink:href="#zoomMin" x="42" y="9" onmousedown="handleZoom(evt,'out')"/>
  <use id="reset" xlink:href="#resetDef" x="30" y="36" onmousedown="handleReset()"/>
   <use id="arrowup" xlink:href="#arrowUp" x="0" y="0" onmousedown="handlePan(0,-1)"/>
  <use id="arrowright" xlink:href="#arrowRight" x="0" y="0" onmousedown="handlePan(1,0)"/>
  <use id="arrowdown" xlink:href="#arrowDown" x="0" y="0" onmousedown="handlePan(0,1)"/>
  <use id="arrowleft" xlink:href="#arrowLeft" x="0" y="0" onmousedown="handlePan(-1,0)"/>
</g>
<svg viewBox="0 0 15 15" width="100%" height="30px" preserveAspectRatio="xMaxYMin meet">
 <g id="arrow_out" transform="scale(0.3 0.3)">
  <a xlink:href="OpenGLWindow_8h__incl_org.svg" target="_base">
   <rect id="button" ry="5" rx="5" y="6" x="6" height="38" width="38"
        fill="#f2f5e9" fill-opacity="0.5" stroke="#606060" stroke-width="1.0"/>
   <path id="arrow"
     d="M 11.500037,31.436501 C 11.940474,20.09759 22.043105,11.32322 32.158766,21.979434 L 37.068811,17.246167 C 37.068811,17.246167 37.088388,32 37.088388,32 L 22.160133,31.978069 C 22.160133,31.978069 26.997745,27.140456 26.997745,27.140456 C 18.528582,18.264221 13.291696,25.230495 11.500037,31.436501 z"
     style="fill:#404040;"/>
  </a>
 </g>
</svg>

<style type='text/css'>
<![CDATA[
[data-mouse-over-selected='false'] { opacity: 0.7; }
[data-mouse-over-selected='true']  { opacity: 1.0; }
]]>
</style>
<script type="application/ecmascript"><![CDATA[
document.addEventListener('DOMContentLoaded', (event) => {
  highlightEdges();
  highlightAdjacentNodes();
});
]]></script>
</svg>
