<?xml version="1.0" encoding="UTF-8" standalone="no"?>
<!DOCTYPE svg PUBLIC "-//W3C//DTD SVG 1.1//EN"
 "http://www.w3.org/Graphics/SVG/1.1/DTD/svg11.dtd">
<!-- Generated by graphviz version 2.43.0 (0)
 -->
<!-- Title: src/ui/OpenGLWindow.h Pages: 1 -->
<!--zoomable 368 -->

<svg id="main" version="1.1" xmlns="http://www.w3.org/2000/svg" xmlns:xlink="http://www.w3.org/1999/xlink" xml:space="preserve" onload="init(evt)">
<style type="text/css"><![CDATA[
.node, .edge {opacity: 0.7;}
.node.selected, .edge.selected {opacity: 1;}
.edge:hover path { stroke: red; }
.edge:hover polygon { stroke: red; fill: red; }
]]></style>

<defs>
  <circle id="rim" cx="0" cy="0" r="7"/>
  <circle id="rim2" cx="0" cy="0" r="3.5"/>
  <g id="zoomPlus">
    <use xlink:href="#rim" fill="#404040"><set attributeName="fill" to="#808080" begin="zoomplus.mouseover" end="zoomplus.mouseout"/></use>
    <path d="M-4,0h8M0,-4v8" fill="none" stroke="white" stroke-width="1.5" pointer-events="none"/>
  </g>
  <g id="zoomMin">
    <use xlink:href="#rim" fill="#404040"><set attributeName="fill" to="#808080" begin="zoomminus.mouseover" end="zoomminus.mouseout"/></use>
    <path d="M-4,0h8" fill="none" stroke="white" stroke-width="1.5" pointer-events="none"/>
  </g>
  <g id="arrowUp" transform="translate(30 24)">
    <use xlink:href="#rim"/>
    <path pointer-events="none" fill="none" stroke="white" stroke-width="1.5" d="M0,-3.0v7 M-2.5,-0.5L0,-3.0L2.5,-0.5"/>
  </g>
  <g id="arrowRight" transform="rotate(90) translate(36 -43)">
    <use xlink:href="#rim"/>
    <path pointer-events="none" fill="none" stroke="white" stroke-width="1.5" d="M0,-3.0v7 M-2.5,-0.5L0,-3.0L2.5,-0.5"/>
  </g>
  <g id="arrowDown" transform="rotate(180) translate(-30 -48)">
    <use xlink:href="#rim"/>
    <path pointer-events="none" fill="none" stroke="white" stroke-width="1.5" d="M0,-3.0v7 M-2.5,-0.5L0,-3.0L2.5,-0.5"/>
  </g>
  <g id="arrowLeft" transform="rotate(270) translate(-36 17)">
    <use xlink:href="#rim"/>
    <path pointer-events="none" fill="none" stroke="white" stroke-width="1.5" d="M0,-3.0v7 M-2.5,-0.5L0,-3.0L2.5,-0.5"/>
  </g>
  <g id="resetDef">
    <use xlink:href="#rim2" fill="#404040"><set attributeName="fill" to="#808080" begin="reset.mouseover" end="reset.mouseout"/></use>
  </g>
</defs>
<script type="application/ecmascript">
var viewWidth = 2197;
var viewHeight = 368;
var sectionId = 'dynsection-0';
</script>
<script type="application/ecmascript" xlink:href="svg.min.js"/>
<svg id="graph" class="graph">
<g id="viewport">
<title>src/ui/OpenGLWindow.h</title>
<!-- Node1 -->
<g id="Node000001" class="node">
<title>Node1</title>
<g id="a_Node000001"><a xlink:title=" ">
<polygon fill="#999999" stroke="#666666" points="651.5,-360 520.5,-360 520.5,-341 651.5,-341 651.5,-360"/>
<text text-anchor="middle" x="586" y="-348" font-family="Helvetica,sans-Serif" font-size="10.00">src/ui/OpenGLWindow.h</text>
</a>
</g>
</g>
<!-- Node2 -->
<g id="Node000002" class="node">
<title>Node2</title>
<g id="a_Node000002"><a xlink:title=" ">
<polygon fill="#e0e0e0" stroke="#999999" points="188,-299.5 0,-299.5 0,-280.5 188,-280.5 188,-299.5"/>
<text text-anchor="middle" x="94" y="-287.5" font-family="Helvetica,sans-Serif" font-size="10.00">QtOpenGLWidgets/QOpenGLWidget</text>
</a>
</g>
</g>
<!-- Node1&#45;&gt;Node2 -->
<g id="edge1_Node000001_Node000002" class="edge">
<title>Node1&#45;&gt;Node2</title>
<g id="a_edge1_Node000001_Node000002"><a xlink:title=" ">
<path fill="none" stroke="#63b8ff" d="M520.22,-342.4C442.83,-333.96 310.48,-319.2 197,-305 186.69,-303.71 175.8,-302.29 165.12,-300.87"/>
<polygon fill="#63b8ff" stroke="#63b8ff" points="165.35,-297.37 154.97,-299.5 164.42,-304.3 165.35,-297.37"/>
</a>
</g>
</g>
<!-- Node3 -->
<g id="Node000003" class="node">
<title>Node3</title>
<g id="a_Node000003"><a xlink:title=" ">
<polygon fill="#e0e0e0" stroke="#999999" points="326,-305 206,-305 206,-275 326,-275 326,-305"/>
<text text-anchor="start" x="214" y="-293" font-family="Helvetica,sans-Serif" font-size="10.00">QOpenGLFunctions_4</text>
<text text-anchor="middle" x="266" y="-282" font-family="Helvetica,sans-Serif" font-size="10.00">_5_Core</text>
</a>
</g>
</g>
<!-- Node1&#45;&gt;Node3 -->
<g id="edge2_Node000001_Node000003" class="edge">
<title>Node1&#45;&gt;Node3</title>
<g id="a_edge2_Node000001_Node000003"><a xlink:title=" ">
<path fill="none" stroke="#63b8ff" d="M535.93,-341C487.4,-332.67 411.44,-319.42 336.31,-305.22"/>
<polygon fill="#63b8ff" stroke="#63b8ff" points="336.67,-301.73 326.19,-303.3 335.37,-308.61 336.67,-301.73"/>
</a>
</g>
</g>
<!-- Node4 -->
<g id="Node000004" class="node">
<title>Node4</title>
<g id="a_Node000004"><a xlink:title=" ">
<polygon fill="#e0e0e0" stroke="#999999" points="397.5,-299.5 344.5,-299.5 344.5,-280.5 397.5,-280.5 397.5,-299.5"/>
<text text-anchor="middle" x="371" y="-287.5" font-family="Helvetica,sans-Serif" font-size="10.00">QTimer</text>
</a>
</g>
</g>
<!-- Node1&#45;&gt;Node4 -->
<g id="edge3_Node000001_Node000004" class="edge">
<title>Node1&#45;&gt;Node4</title>
<g id="a_edge3_Node000001_Node000004"><a xlink:title=" ">
<path fill="none" stroke="#63b8ff" d="M545.42,-340.96C508.87,-332.9 453.85,-319.87 407,-305 405.13,-304.41 403.22,-303.77 401.3,-303.1"/>
<polygon fill="#63b8ff" stroke="#63b8ff" points="402.37,-299.76 391.78,-299.6 399.96,-306.33 402.37,-299.76"/>
</a>
</g>
</g>
<!-- Node5 -->
<g id="Node000005" class="node">
<title>Node5</title>
<g id="a_Node000005"><a xlink:title=" ">
<polygon fill="#e0e0e0" stroke="#999999" points="486,-299.5 416,-299.5 416,-280.5 486,-280.5 486,-299.5"/>
<text text-anchor="middle" x="451" y="-287.5" font-family="Helvetica,sans-Serif" font-size="10.00">QKeyEvent</text>
</a>
</g>
</g>
<!-- Node1&#45;&gt;Node5 -->
<g id="edge4_Node000001_Node000005" class="edge">
<title>Node1&#45;&gt;Node5</title>
<g id="a_edge4_Node000001_Node000005"><a xlink:title=" ">
<path fill="none" stroke="#63b8ff" d="M566.37,-340.99C543.67,-331.16 506.1,-314.88 480.03,-303.58"/>
<polygon fill="#63b8ff" stroke="#63b8ff" points="481.22,-300.28 470.65,-299.52 478.44,-306.7 481.22,-300.28"/>
</a>
</g>
</g>
<!-- Node6 -->
<g id="Node000006" class="node">
<title>Node6</title>
<g id="a_Node000006"><a xlink:title=" ">
<polygon fill="#e0e0e0" stroke="#999999" points="588,-299.5 504,-299.5 504,-280.5 588,-280.5 588,-299.5"/>
<text text-anchor="middle" x="546" y="-287.5" font-family="Helvetica,sans-Serif" font-size="10.00">QMouseEvent</text>
</a>
</g>
</g>
<!-- Node1&#45;&gt;Node6 -->
<g id="edge5_Node000001_Node000006" class="edge">
<title>Node1&#45;&gt;Node6</title>
<g id="a_edge5_Node000001_Node000006"><a xlink:title=" ">
<path fill="none" stroke="#63b8ff" d="M580.1,-340.87C574.25,-332.31 565.13,-318.97 557.79,-308.24"/>
<polygon fill="#63b8ff" stroke="#63b8ff" points="560.46,-305.95 551.93,-299.67 554.68,-309.9 560.46,-305.95"/>
</a>
</g>
</g>
<!-- Node7 -->
<g id="Node000007" class="node">
<title>Node7</title>
<g id="a_Node000007"><a xlink:title=" ">
<polygon fill="#e0e0e0" stroke="#999999" points="646,-299.5 606,-299.5 606,-280.5 646,-280.5 646,-299.5"/>
<text text-anchor="middle" x="626" y="-287.5" font-family="Helvetica,sans-Serif" font-size="10.00">QSet</text>
</a>
</g>
</g>
<!-- Node1&#45;&gt;Node7 -->
<g id="edge6_Node000001_Node000007" class="edge">
<title>Node1&#45;&gt;Node7</title>
<g id="a_edge6_Node000001_Node000007"><a xlink:title=" ">
<path fill="none" stroke="#63b8ff" d="M591.9,-340.87C597.75,-332.31 606.87,-318.97 614.21,-308.24"/>
<polygon fill="#63b8ff" stroke="#63b8ff" points="617.32,-309.9 620.07,-299.67 611.54,-305.95 617.32,-309.9"/>
</a>
</g>
</g>
<!-- Node8 -->
<g id="Node000008" class="node">
<title>Node8</title>
<g id="a_Node000008"><a xlink:title=" ">
<polygon fill="#e0e0e0" stroke="#999999" points="720,-299.5 664,-299.5 664,-280.5 720,-280.5 720,-299.5"/>
<text text-anchor="middle" x="692" y="-287.5" font-family="Helvetica,sans-Serif" font-size="10.00">QCursor</text>
</a>
</g>
</g>
<!-- Node1&#45;&gt;Node8 -->
<g id="edge7_Node000001_Node000008" class="edge">
<title>Node1&#45;&gt;Node8</title>
<g id="a_edge7_Node000001_Node000008"><a xlink:title=" ">
<path fill="none" stroke="#63b8ff" d="M601.64,-340.87C618.94,-331.32 647.05,-315.81 667.33,-304.62"/>
<polygon fill="#63b8ff" stroke="#63b8ff" points="669.23,-307.56 676.3,-299.67 665.85,-301.43 669.23,-307.56"/>
</a>
</g>
</g>
<!-- Node9 -->
<g id="Node000009" class="node">
<title>Node9</title>
<g id="a_Node000009"><a xlink:title=" ">
<polygon fill="#e0e0e0" stroke="#999999" points="788,-299.5 738,-299.5 738,-280.5 788,-280.5 788,-299.5"/>
<text text-anchor="middle" x="763" y="-287.5" font-family="Helvetica,sans-Serif" font-size="10.00">chrono</text>
</a>
</g>
</g>
<!-- Node1&#45;&gt;Node9 -->
<g id="edge8_Node000001_Node000009" class="edge">
<title>Node1&#45;&gt;Node9</title>
<g id="a_edge8_Node000001_Node000009"><a xlink:title=" ">
<path fill="none" stroke="#63b8ff" d="M616.11,-340.98C645.23,-332.54 690.48,-318.89 729,-305 730.43,-304.49 731.88,-303.95 733.35,-303.39"/>
<polygon fill="#63b8ff" stroke="#63b8ff" points="734.96,-306.52 742.98,-299.59 732.39,-300 734.96,-306.52"/>
</a>
</g>
</g>
<!-- Node10 -->
<g id="Node000010" class="node">
<title>Node10</title>
<g id="a_Node000010"><a xlink:href="Ray_8h.html" target="_top" xlink:title=" ">
<polygon fill="white" stroke="#666666" points="1226.5,-74 1155.5,-74 1155.5,-55 1226.5,-55 1226.5,-74"/>
<text text-anchor="middle" x="1191" y="-62" font-family="Helvetica,sans-Serif" font-size="10.00">math/Ray.h</text>
</a>
</g>
</g>
<!-- Node1&#45;&gt;Node10 -->
<g id="edge9_Node000001_Node000010" class="edge">
<title>Node1&#45;&gt;Node10</title>
<g id="a_edge9_Node000001_Node000010"><a xlink:title=" ">
<path fill="none" stroke="#63b8ff" d="M651.74,-343.22C705.7,-336.73 776.43,-324.73 797,-305 821.66,-281.35 816,-264.67 816,-230.5 816,-230.5 816,-230.5 816,-173.5 816,-105.69 1045.26,-77.9 1145.27,-68.99"/>
<polygon fill="#63b8ff" stroke="#63b8ff" points="1145.72,-72.47 1155.38,-68.12 1145.12,-65.49 1145.72,-72.47"/>
</a>
</g>
</g>
<!-- Node12 -->
<g id="Node000012" class="node">
<title>Node12</title>
<g id="a_Node000012"><a xlink:href="PhysicsSystem_8h.html" target="_top" xlink:title=" ">
<polygon fill="white" stroke="#666666" points="1678.5,-299.5 1539.5,-299.5 1539.5,-280.5 1678.5,-280.5 1678.5,-299.5"/>
<text text-anchor="middle" x="1609" y="-287.5" font-family="Helvetica,sans-Serif" font-size="10.00">physics/PhysicsSystem.h</text>
</a>
</g>
</g>
<!-- Node1&#45;&gt;Node12 -->
<g id="edge11_Node000001_Node000012" class="edge">
<title>Node1&#45;&gt;Node12</title>
<g id="a_edge11_Node000001_Node000012"><a xlink:title=" ">
<path fill="none" stroke="#63b8ff" d="M651.55,-345.75C831.56,-335.46 1333.12,-306.78 1529.09,-295.57"/>
<polygon fill="#63b8ff" stroke="#63b8ff" points="1529.53,-299.05 1539.31,-294.99 1529.13,-292.06 1529.53,-299.05"/>
</a>
</g>
</g>
<!-- Node11 -->
<g id="Node000011" class="node">
<title>Node11</title>
<g id="a_Node000011"><a xlink:title=" ">
<polygon fill="#e0e0e0" stroke="#999999" points="1232.5,-19 1149.5,-19 1149.5,0 1232.5,0 1232.5,-19"/>
<text text-anchor="middle" x="1191" y="-7" font-family="Helvetica,sans-Serif" font-size="10.00">glm/vec3.hpp</text>
</a>
</g>
</g>
<!-- Node10&#45;&gt;Node11 -->
<g id="edge10_Node000010_Node000011" class="edge">
<title>Node10&#45;&gt;Node11</title>
<g id="a_edge10_Node000010_Node000011"><a xlink:title=" ">
<path fill="none" stroke="#63b8ff" d="M1191,-54.75C1191,-47.8 1191,-37.85 1191,-29.13"/>
<polygon fill="#63b8ff" stroke="#63b8ff" points="1194.5,-29.09 1191,-19.09 1187.5,-29.09 1194.5,-29.09"/>
</a>
</g>
</g>
<!-- Node13 -->
<g id="Node000013" class="node">
<title>Node13</title>
<g id="a_Node000013"><a xlink:title=" ">
<polygon fill="#e0e0e0" stroke="#999999" points="1032.5,-129 985.5,-129 985.5,-110 1032.5,-110 1032.5,-129"/>
<text text-anchor="middle" x="1009" y="-117" font-family="Helvetica,sans-Serif" font-size="10.00">vector</text>
</a>
</g>
</g>
<!-- Node12&#45;&gt;Node13 -->
<g id="edge12_Node000012_Node000013" class="edge">
<title>Node12&#45;&gt;Node13</title>
<g id="a_edge12_Node000012_Node000013"><a xlink:title=" ">
<path fill="none" stroke="#63b8ff" d="M1539.36,-286.33C1409.25,-280.77 1134.18,-266.14 1043,-239 993.26,-224.2 966.69,-228.51 940,-184 927.43,-163.05 953.32,-144.84 976.88,-133.36"/>
<polygon fill="#63b8ff" stroke="#63b8ff" points="978.42,-136.5 986.05,-129.15 975.5,-130.14 978.42,-136.5"/>
</a>
</g>
</g>
<!-- Node14 -->
<g id="Node000014" class="node">
<title>Node14</title>
<g id="a_Node000014"><a xlink:title=" ">
<polygon fill="#e0e0e0" stroke="#999999" points="1235,-129 1185,-129 1185,-110 1235,-110 1235,-129"/>
<text text-anchor="middle" x="1210" y="-117" font-family="Helvetica,sans-Serif" font-size="10.00">atomic</text>
</a>
</g>
</g>
<!-- Node12&#45;&gt;Node14 -->
<g id="edge13_Node000012_Node000014" class="edge">
<title>Node12&#45;&gt;Node14</title>
<g id="a_edge13_Node000012_Node000014"><a xlink:title=" ">
<path fill="none" stroke="#63b8ff" d="M1539.3,-284.34C1461.17,-275.84 1334.41,-251.82 1250,-184 1234.96,-171.92 1223.94,-152.57 1217.32,-138.4"/>
<polygon fill="#63b8ff" stroke="#63b8ff" points="1220.5,-136.94 1213.28,-129.18 1214.08,-139.74 1220.5,-136.94"/>
</a>
</g>
</g>
<!-- Node15 -->
<g id="Node000015" class="node">
<title>Node15</title>
<g id="a_Node000015"><a xlink:title=" ">
<polygon fill="#e0e0e0" stroke="#999999" points="1167,-129 1119,-129 1119,-110 1167,-110 1167,-129"/>
<text text-anchor="middle" x="1143" y="-117" font-family="Helvetica,sans-Serif" font-size="10.00">mutex</text>
</a>
</g>
</g>
<!-- Node12&#45;&gt;Node15 -->
<g id="edge14_Node000012_Node000015" class="edge">
<title>Node12&#45;&gt;Node15</title>
<g id="a_edge14_Node000012_Node000015"><a xlink:title=" ">
<path fill="none" stroke="#63b8ff" d="M1539.47,-286.47C1476.42,-282.12 1382,-270.41 1306,-239 1245.64,-214.05 1186.63,-162.47 1159.1,-136.37"/>
<polygon fill="#63b8ff" stroke="#63b8ff" points="1161.23,-133.56 1151.6,-129.15 1156.38,-138.6 1161.23,-133.56"/>
</a>
</g>
</g>
<!-- Node16 -->
<g id="Node000016" class="node">
<title>Node16</title>
<g id="a_Node000016"><a xlink:title=" ">
<polygon fill="#e0e0e0" stroke="#999999" points="1908,-239 1860,-239 1860,-220 1908,-220 1908,-239"/>
<text text-anchor="middle" x="1884" y="-227" font-family="Helvetica,sans-Serif" font-size="10.00">thread</text>
</a>
</g>
</g>
<!-- Node12&#45;&gt;Node16 -->
<g id="edge15_Node000012_Node000016" class="edge">
<title>Node12&#45;&gt;Node16</title>
<g id="a_edge15_Node000012_Node000016"><a xlink:title=" ">
<path fill="none" stroke="#63b8ff" d="M1650.13,-280.48C1697.43,-270.65 1777.38,-253.91 1846,-239 1847.26,-238.73 1848.55,-238.44 1849.85,-238.16"/>
<polygon fill="#63b8ff" stroke="#63b8ff" points="1850.88,-241.52 1859.89,-235.94 1849.37,-234.68 1850.88,-241.52"/>
</a>
</g>
</g>
<!-- Node17 -->
<g id="Node000017" class="node">
<title>Node17</title>
<g id="a_Node000017"><a xlink:title=" ">
<polygon fill="#e0e0e0" stroke="#999999" points="2033.5,-239 1926.5,-239 1926.5,-220 2033.5,-220 2033.5,-239"/>
<text text-anchor="middle" x="1980" y="-227" font-family="Helvetica,sans-Serif" font-size="10.00">condition_variable</text>
</a>
</g>
</g>
<!-- Node12&#45;&gt;Node17 -->
<g id="edge16_Node000012_Node000017" class="edge">
<title>Node12&#45;&gt;Node17</title>
<g id="a_edge16_Node000012_Node000017"><a xlink:title=" ">
<path fill="none" stroke="#63b8ff" d="M1662.95,-280.49C1730.08,-269.91 1844.59,-251.85 1916.07,-240.58"/>
<polygon fill="#63b8ff" stroke="#63b8ff" points="1916.96,-243.98 1926.29,-238.97 1915.87,-237.07 1916.96,-243.98"/>
</a>
</g>
</g>
<!-- Node18 -->
<g id="Node000018" class="node">
<title>Node18</title>
<g id="a_Node000018"><a xlink:title=" ">
<polygon fill="#e0e0e0" stroke="#999999" points="2095,-74 2039,-74 2039,-55 2095,-55 2095,-74"/>
<text text-anchor="middle" x="2067" y="-62" font-family="Helvetica,sans-Serif" font-size="10.00">optional</text>
</a>
</g>
</g>
<!-- Node12&#45;&gt;Node18 -->
<g id="edge17_Node000012_Node000018" class="edge">
<title>Node12&#45;&gt;Node18</title>
<g id="a_edge17_Node000012_Node000018"><a xlink:title=" ">
<path fill="none" stroke="#63b8ff" d="M1678.73,-287.99C1822.69,-285.19 2142.09,-274.95 2175,-239 2197.21,-214.74 2188.21,-195.12 2175,-165 2157.97,-126.15 2117.46,-95.77 2091.18,-79.26"/>
<polygon fill="#63b8ff" stroke="#63b8ff" points="2092.9,-76.21 2082.54,-74.01 2089.26,-82.19 2092.9,-76.21"/>
</a>
</g>
</g>
<!-- Node19 -->
<g id="Node000019" class="node">
<title>Node19</title>
<g id="a_Node000019"><a xlink:href="RigidBody_8h.html" target="_top" xlink:title=" ">
<polygon fill="white" stroke="#666666" points="1126,-239 1052,-239 1052,-220 1126,-220 1126,-239"/>
<text text-anchor="middle" x="1089" y="-227" font-family="Helvetica,sans-Serif" font-size="10.00">RigidBody.h</text>
</a>
</g>
</g>
<!-- Node12&#45;&gt;Node19 -->
<g id="edge18_Node000012_Node000019" class="edge">
<title>Node12&#45;&gt;Node19</title>
<g id="a_edge18_Node000012_Node000019"><a xlink:title=" ">
<path fill="none" stroke="#63b8ff" d="M1539.32,-282.86C1447.58,-274.49 1281.37,-258.3 1140,-239 1138.72,-238.83 1137.43,-238.64 1136.13,-238.46"/>
<polygon fill="#63b8ff" stroke="#63b8ff" points="1136.42,-234.96 1126.01,-236.93 1135.37,-241.88 1136.42,-234.96"/>
</a>
</g>
</g>
<!-- Node28 -->
<g id="Node000028" class="node">
<title>Node28</title>
<g id="a_Node000028"><a xlink:href="Constants_8h.html" target="_top" xlink:title=" ">
<polygon fill="white" stroke="#666666" points="2166,-239 2052,-239 2052,-220 2166,-220 2166,-239"/>
<text text-anchor="middle" x="2109" y="-227" font-family="Helvetica,sans-Serif" font-size="10.00">physics/Constants.h</text>
</a>
</g>
</g>
<!-- Node12&#45;&gt;Node28 -->
<g id="edge36_Node000012_Node000028" class="edge">
<title>Node12&#45;&gt;Node28</title>
<g id="a_edge36_Node000012_Node000028"><a xlink:title=" ">
<path fill="none" stroke="#63b8ff" d="M1678.56,-281.28C1762.21,-271.92 1907.15,-255.51 2041.69,-239.15"/>
<polygon fill="#63b8ff" stroke="#63b8ff" points="2042.27,-242.6 2051.77,-237.92 2041.42,-235.65 2042.27,-242.6"/>
</a>
</g>
</g>
<!-- Node29 -->
<g id="Node000029" class="node">
<title>Node29</title>
<g id="a_Node000029"><a xlink:href="OneUnknownSolver_8h.html" target="_top" xlink:title=" ">
<polygon fill="white" stroke="#666666" points="2166,-184 2012,-184 2012,-165 2166,-165 2166,-184"/>
<text text-anchor="middle" x="2089" y="-172" font-family="Helvetica,sans-Serif" font-size="10.00">solver/OneUnknownSolver.h</text>
</a>
</g>
</g>
<!-- Node12&#45;&gt;Node29 -->
<g id="edge37_Node000012_Node000029" class="edge">
<title>Node12&#45;&gt;Node29</title>
<g id="a_edge37_Node000012_Node000029"><a xlink:title=" ">
<path fill="none" stroke="#63b8ff" d="M1656.48,-280.49C1698.4,-272.25 1760.8,-258.17 1813,-239 1830.72,-232.49 1833.1,-226.02 1851,-220 1900.56,-203.34 1958.14,-192.37 2004.25,-185.49"/>
<polygon fill="#63b8ff" stroke="#63b8ff" points="2004.81,-188.94 2014.21,-184.04 2003.81,-182.01 2004.81,-188.94"/>
</a>
</g>
</g>
<!-- Node31 -->
<g id="Node000031" class="node">
<title>Node31</title>
<g id="a_Node000031"><a xlink:href="ProblemRouter_8h.html" target="_top" xlink:title=" ">
<polygon fill="white" stroke="#666666" points="1803.5,-239 1672.5,-239 1672.5,-220 1803.5,-220 1803.5,-239"/>
<text text-anchor="middle" x="1738" y="-227" font-family="Helvetica,sans-Serif" font-size="10.00">solver/ProblemRouter.h</text>
</a>
</g>
</g>
<!-- Node12&#45;&gt;Node31 -->
<g id="edge39_Node000012_Node000031" class="edge">
<title>Node12&#45;&gt;Node31</title>
<g id="a_edge39_Node000012_Node000031"><a xlink:title=" ">
<path fill="none" stroke="#63b8ff" d="M1627.76,-280.49C1649.35,-270.7 1685.03,-254.52 1709.93,-243.23"/>
<polygon fill="#63b8ff" stroke="#63b8ff" points="1711.56,-246.33 1719.22,-239.02 1708.67,-239.96 1711.56,-246.33"/>
</a>
</g>
</g>
<!-- Node32 -->
<g id="Node000032" class="node">
<title>Node32</title>
<g id="a_Node000032"><a xlink:href="VectorRootSolver_8h.html" target="_top" xlink:title=" ">
<polygon fill="white" stroke="#666666" points="1955.5,-184 1846.5,-184 1846.5,-165 1955.5,-165 1955.5,-184"/>
<text text-anchor="middle" x="1901" y="-172" font-family="Helvetica,sans-Serif" font-size="10.00">VectorRootSolver.h</text>
</a>
</g>
</g>
<!-- Node12&#45;&gt;Node32 -->
<g id="edge60_Node000012_Node000032" class="edge">
<title>Node12&#45;&gt;Node32</title>
<g id="a_edge60_Node000012_Node000032"><a xlink:title=" ">
<path fill="none" stroke="#63b8ff" d="M1613.36,-280.12C1621.23,-265.1 1639.32,-234.85 1664,-220 1678.66,-211.18 1771.27,-195.47 1836.28,-185.27"/>
<polygon fill="#63b8ff" stroke="#63b8ff" points="1837.12,-188.69 1846.46,-183.69 1836.04,-181.77 1837.12,-188.69"/>
</a>
</g>
</g>
<!-- Node34 -->
<g id="Node000034" class="node">
<title>Node34</title>
<g id="a_Node000034"><a xlink:href="Octree_8h.html" target="_top" xlink:title=" ">
<polygon fill="white" stroke="#666666" points="1506,-239 1412,-239 1412,-220 1506,-220 1506,-239"/>
<text text-anchor="middle" x="1459" y="-227" font-family="Helvetica,sans-Serif" font-size="10.00">spatial/Octree.h</text>
</a>
</g>
</g>
<!-- Node12&#45;&gt;Node34 -->
<g id="edge47_Node000012_Node000034" class="edge">
<title>Node12&#45;&gt;Node34</title>
<g id="a_edge47_Node000012_Node000034"><a xlink:title=" ">
<path fill="none" stroke="#63b8ff" d="M1587.19,-280.49C1561.75,-270.57 1519.49,-254.09 1490.49,-242.78"/>
<polygon fill="#63b8ff" stroke="#63b8ff" points="1491.43,-239.39 1480.84,-239.02 1488.88,-245.91 1491.43,-239.39"/>
</a>
</g>
</g>
<!-- Node37 -->
<g id="Node000037" class="node">
<title>Node37</title>
<g id="a_Node000037"><a xlink:href="BVH_8h.html" target="_top" xlink:title=" ">
<polygon fill="white" stroke="#666666" points="1615.5,-239 1532.5,-239 1532.5,-220 1615.5,-220 1615.5,-239"/>
<text text-anchor="middle" x="1574" y="-227" font-family="Helvetica,sans-Serif" font-size="10.00">spatial/BVH.h</text>
</a>
</g>
</g>
<!-- Node12&#45;&gt;Node37 -->
<g id="edge53_Node000012_Node000037" class="edge">
<title>Node12&#45;&gt;Node37</title>
<g id="a_edge53_Node000012_Node000037"><a xlink:title=" ">
<path fill="none" stroke="#63b8ff" d="M1603.84,-280.37C1598.77,-271.9 1590.9,-258.74 1584.51,-248.07"/>
<polygon fill="#63b8ff" stroke="#63b8ff" points="1587.32,-245.95 1579.19,-239.17 1581.32,-249.55 1587.32,-245.95"/>
</a>
</g>
</g>
<!-- Node19&#45;&gt;Node13 -->
<g id="edge20_Node000019_Node000013" class="edge">
<title>Node19&#45;&gt;Node13</title>
<g id="a_edge20_Node000019_Node000013"><a xlink:title=" ">
<path fill="none" stroke="#63b8ff" d="M1051.72,-228.08C1018.74,-225.49 972.34,-215.91 949,-184 935.29,-165.25 959.45,-146.22 981.08,-133.94"/>
<polygon fill="#63b8ff" stroke="#63b8ff" points="982.92,-136.93 990.07,-129.11 979.61,-130.76 982.92,-136.93"/>
</a>
</g>
</g>
<!-- Node19&#45;&gt;Node15 -->
<g id="edge19_Node000019_Node000015" class="edge">
<title>Node19&#45;&gt;Node15</title>
<g id="a_edge19_Node000019_Node000015"><a xlink:title=" ">
<path fill="none" stroke="#63b8ff" d="M1093.42,-219.66C1102.28,-201.93 1122.39,-161.73 1134.09,-138.32"/>
<polygon fill="#63b8ff" stroke="#63b8ff" points="1137.33,-139.67 1138.67,-129.16 1131.07,-136.54 1137.33,-139.67"/>
</a>
</g>
</g>
<!-- Node20 -->
<g id="Node000020" class="node">
<title>Node20</title>
<g id="a_Node000020"><a xlink:title=" ">
<polygon fill="#e0e0e0" stroke="#999999" points="1699,-74 1621,-74 1621,-55 1699,-55 1699,-74"/>
<text text-anchor="middle" x="1660" y="-62" font-family="Helvetica,sans-Serif" font-size="10.00">glm/glm.hpp</text>
</a>
</g>
</g>
<!-- Node19&#45;&gt;Node20 -->
<g id="edge21_Node000019_Node000020" class="edge">
<title>Node19&#45;&gt;Node20</title>
<g id="a_edge21_Node000019_Node000020"><a xlink:title=" ">
<path fill="none" stroke="#63b8ff" d="M1051.75,-228.98C1016.59,-227.2 965.56,-218.31 940,-184 918.79,-155.52 957.03,-121.48 977,-110 1031.51,-78.66 1462.82,-68.72 1610.56,-66.22"/>
<polygon fill="#63b8ff" stroke="#63b8ff" points="1610.75,-69.72 1620.69,-66.05 1610.64,-62.72 1610.75,-69.72"/>
</a>
</g>
</g>
<!-- Node21 -->
<g id="Node000021" class="node">
<title>Node21</title>
<g id="a_Node000021"><a xlink:title=" ">
<polygon fill="#e0e0e0" stroke="#999999" points="1088,-184 958,-184 958,-165 1088,-165 1088,-184"/>
<text text-anchor="middle" x="1023" y="-172" font-family="Helvetica,sans-Serif" font-size="10.00">glm/gtc/quaternion.hpp</text>
</a>
</g>
</g>
<!-- Node19&#45;&gt;Node21 -->
<g id="edge22_Node000019_Node000021" class="edge">
<title>Node19&#45;&gt;Node21</title>
<g id="a_edge22_Node000019_Node000021"><a xlink:title=" ">
<path fill="none" stroke="#63b8ff" d="M1078.4,-219.98C1068.54,-212.07 1053.65,-200.11 1041.78,-190.58"/>
<polygon fill="#63b8ff" stroke="#63b8ff" points="1043.79,-187.7 1033.8,-184.17 1039.4,-193.16 1043.79,-187.7"/>
</a>
</g>
</g>
<!-- Node22 -->
<g id="Node000022" class="node">
<title>Node22</title>
<g id="a_Node000022"><a xlink:href="ICollider_8h.html" target="_top" xlink:title="Abstract interface for collision detection shapes.">
<polygon fill="white" stroke="#666666" points="1801.5,-129 1688.5,-129 1688.5,-110 1801.5,-110 1801.5,-129"/>
<text text-anchor="middle" x="1745" y="-117" font-family="Helvetica,sans-Serif" font-size="10.00">bounding/ICollider.h</text>
</a>
</g>
</g>
<!-- Node19&#45;&gt;Node22 -->
<g id="edge23_Node000019_Node000022" class="edge">
<title>Node19&#45;&gt;Node22</title>
<g id="a_edge23_Node000019_Node000022"><a xlink:title=" ">
<path fill="none" stroke="#63b8ff" d="M1126.17,-224.27C1183.67,-217.46 1297.5,-202.88 1393,-184 1427.16,-177.25 1434.89,-172 1469,-165 1540.05,-150.42 1622.21,-137.7 1678.29,-129.63"/>
<polygon fill="#63b8ff" stroke="#63b8ff" points="1679.04,-133.06 1688.45,-128.18 1678.05,-126.13 1679.04,-133.06"/>
</a>
</g>
</g>
<!-- Node24 -->
<g id="Node000024" class="node">
<title>Node24</title>
<g id="a_Node000024"><a xlink:href="PhysicsBody_8h.html" target="_top" xlink:title=" ">
<polygon fill="white" stroke="#666666" points="1383.5,-184 1258.5,-184 1258.5,-165 1383.5,-165 1383.5,-184"/>
<text text-anchor="middle" x="1321" y="-172" font-family="Helvetica,sans-Serif" font-size="10.00">physics/PhysicsBody.h</text>
</a>
</g>
</g>
<!-- Node19&#45;&gt;Node24 -->
<g id="edge28_Node000019_Node000024" class="edge">
<title>Node19&#45;&gt;Node24</title>
<g id="a_edge28_Node000019_Node000024"><a xlink:title=" ">
<path fill="none" stroke="#63b8ff" d="M1126.02,-220.04C1166.13,-210.88 1230.25,-196.23 1273.92,-186.26"/>
<polygon fill="#63b8ff" stroke="#63b8ff" points="1274.76,-189.65 1283.73,-184.01 1273.2,-182.83 1274.76,-189.65"/>
</a>
</g>
</g>
<!-- Node22&#45;&gt;Node10 -->
<g id="edge27_Node000022_Node000010" class="edge">
<title>Node22&#45;&gt;Node10</title>
<g id="a_edge27_Node000022_Node000010"><a xlink:title=" ">
<path fill="none" stroke="#63b8ff" d="M1688.32,-113.08C1578.31,-102.55 1337.86,-79.55 1236.99,-69.9"/>
<polygon fill="#63b8ff" stroke="#63b8ff" points="1237.1,-66.39 1226.82,-68.93 1236.44,-73.36 1237.1,-66.39"/>
</a>
</g>
</g>
<!-- Node22&#45;&gt;Node18 -->
<g id="edge26_Node000022_Node000018" class="edge">
<title>Node22&#45;&gt;Node18</title>
<g id="a_edge26_Node000022_Node000018"><a xlink:title=" ">
<path fill="none" stroke="#63b8ff" d="M1796.73,-109.98C1861.5,-99.32 1970.94,-81.31 2028.68,-71.81"/>
<polygon fill="#63b8ff" stroke="#63b8ff" points="2029.54,-75.21 2038.84,-70.13 2028.41,-68.31 2029.54,-75.21"/>
</a>
</g>
</g>
<!-- Node22&#45;&gt;Node20 -->
<g id="edge24_Node000022_Node000020" class="edge">
<title>Node22&#45;&gt;Node20</title>
<g id="a_edge24_Node000022_Node000020"><a xlink:title=" ">
<path fill="none" stroke="#63b8ff" d="M1731.34,-109.98C1718.16,-101.77 1697.97,-89.18 1682.43,-79.49"/>
<polygon fill="#63b8ff" stroke="#63b8ff" points="1684.24,-76.49 1673.91,-74.17 1680.54,-82.43 1684.24,-76.49"/>
</a>
</g>
</g>
<!-- Node23 -->
<g id="Node000023" class="node">
<title>Node23</title>
<g id="a_Node000023"><a xlink:title=" ">
<polygon fill="#e0e0e0" stroke="#999999" points="1894,-74 1836,-74 1836,-55 1894,-55 1894,-74"/>
<text text-anchor="middle" x="1865" y="-62" font-family="Helvetica,sans-Serif" font-size="10.00">memory</text>
</a>
</g>
</g>
<!-- Node22&#45;&gt;Node23 -->
<g id="edge25_Node000022_Node000023" class="edge">
<title>Node22&#45;&gt;Node23</title>
<g id="a_edge25_Node000022_Node000023"><a xlink:title=" ">
<path fill="none" stroke="#63b8ff" d="M1764.28,-109.98C1783.67,-101.42 1813.81,-88.11 1836.07,-78.28"/>
<polygon fill="#63b8ff" stroke="#63b8ff" points="1837.64,-81.41 1845.37,-74.17 1834.81,-75.01 1837.64,-81.41"/>
</a>
</g>
</g>
<!-- Node24&#45;&gt;Node13 -->
<g id="edge32_Node000024_Node000013" class="edge">
<title>Node24&#45;&gt;Node13</title>
<g id="a_edge32_Node000024_Node000013"><a xlink:title=" ">
<path fill="none" stroke="#63b8ff" d="M1270.87,-164.98C1206.79,-154.1 1097.57,-135.55 1042.65,-126.22"/>
<polygon fill="#63b8ff" stroke="#63b8ff" points="1043.18,-122.76 1032.73,-124.53 1042,-129.66 1043.18,-122.76"/>
</a>
</g>
</g>
<!-- Node24&#45;&gt;Node14 -->
<g id="edge29_Node000024_Node000014" class="edge">
<title>Node24&#45;&gt;Node14</title>
<g id="a_edge29_Node000024_Node000014"><a xlink:title=" ">
<path fill="none" stroke="#63b8ff" d="M1303.17,-164.98C1285.39,-156.5 1257.85,-143.35 1237.32,-133.54"/>
<polygon fill="#63b8ff" stroke="#63b8ff" points="1238.69,-130.32 1228.16,-129.17 1235.67,-136.64 1238.69,-130.32"/>
</a>
</g>
</g>
<!-- Node24&#45;&gt;Node15 -->
<g id="edge34_Node000024_Node000015" class="edge">
<title>Node24&#45;&gt;Node15</title>
<g id="a_edge34_Node000024_Node000015"><a xlink:title=" ">
<path fill="none" stroke="#63b8ff" d="M1292.4,-164.98C1260.96,-155.62 1210.49,-140.59 1177.03,-130.63"/>
<polygon fill="#63b8ff" stroke="#63b8ff" points="1177.82,-127.22 1167.24,-127.72 1175.82,-133.93 1177.82,-127.22"/>
</a>
</g>
</g>
<!-- Node24&#45;&gt;Node20 -->
<g id="edge31_Node000024_Node000020" class="edge">
<title>Node24&#45;&gt;Node20</title>
<g id="a_edge31_Node000024_Node000020"><a xlink:title=" ">
<path fill="none" stroke="#63b8ff" d="M1336.97,-164.79C1365.65,-149.27 1424.92,-117.72 1447,-110 1501.47,-90.95 1566.78,-78.79 1610.59,-72.08"/>
<polygon fill="#63b8ff" stroke="#63b8ff" points="1611.32,-75.51 1620.7,-70.57 1610.29,-68.59 1611.32,-75.51"/>
</a>
</g>
</g>
<!-- Node25 -->
<g id="Node000025" class="node">
<title>Node25</title>
<g id="a_Node000025"><a xlink:title=" ">
<polygon fill="#e0e0e0" stroke="#999999" points="1577,-129 1533,-129 1533,-110 1577,-110 1577,-129"/>
<text text-anchor="middle" x="1555" y="-117" font-family="Helvetica,sans-Serif" font-size="10.00">string</text>
</a>
</g>
</g>
<!-- Node24&#45;&gt;Node25 -->
<g id="edge30_Node000024_Node000025" class="edge">
<title>Node24&#45;&gt;Node25</title>
<g id="a_edge30_Node000024_Node000025"><a xlink:title=" ">
<path fill="none" stroke="#63b8ff" d="M1358.6,-164.98C1404.19,-154.66 1480.24,-137.43 1523.1,-127.73"/>
<polygon fill="#63b8ff" stroke="#63b8ff" points="1524.01,-131.11 1532.99,-125.49 1522.46,-124.28 1524.01,-131.11"/>
</a>
</g>
</g>
<!-- Node26 -->
<g id="Node000026" class="node">
<title>Node26</title>
<g id="a_Node000026"><a xlink:title=" ">
<polygon fill="#e0e0e0" stroke="#999999" points="1291,-129 1253,-129 1253,-110 1291,-110 1291,-129"/>
<text text-anchor="middle" x="1272" y="-117" font-family="Helvetica,sans-Serif" font-size="10.00">map</text>
</a>
</g>
</g>
<!-- Node24&#45;&gt;Node26 -->
<g id="edge33_Node000024_Node000026" class="edge">
<title>Node24&#45;&gt;Node26</title>
<g id="a_edge33_Node000024_Node000026"><a xlink:title=" ">
<path fill="none" stroke="#63b8ff" d="M1312.91,-164.75C1305.84,-157.11 1295.41,-145.82 1286.85,-136.56"/>
<polygon fill="#63b8ff" stroke="#63b8ff" points="1289.3,-134.06 1279.94,-129.09 1284.16,-138.81 1289.3,-134.06"/>
</a>
</g>
</g>
<!-- Node27 -->
<g id="Node000027" class="node">
<title>Node27</title>
<g id="a_Node000027"><a xlink:title=" ">
<polygon fill="#e0e0e0" stroke="#999999" points="1395,-129 1309,-129 1309,-110 1395,-110 1395,-129"/>
<text text-anchor="middle" x="1352" y="-117" font-family="Helvetica,sans-Serif" font-size="10.00">unordered_set</text>
</a>
</g>
</g>
<!-- Node24&#45;&gt;Node27 -->
<g id="edge35_Node000024_Node000027" class="edge">
<title>Node24&#45;&gt;Node27</title>
<g id="a_edge35_Node000024_Node000027"><a xlink:title=" ">
<path fill="none" stroke="#63b8ff" d="M1326.12,-164.75C1330.36,-157.49 1336.53,-146.95 1341.78,-137.98"/>
<polygon fill="#63b8ff" stroke="#63b8ff" points="1344.95,-139.49 1346.98,-129.09 1338.91,-135.95 1344.95,-139.49"/>
</a>
</g>
</g>
<!-- Node30 -->
<g id="Node000030" class="node">
<title>Node30</title>
<g id="a_Node000030"><a xlink:title=" ">
<polygon fill="#e0e0e0" stroke="#999999" points="2099.5,-129 2034.5,-129 2034.5,-110 2099.5,-110 2099.5,-129"/>
<text text-anchor="middle" x="2067" y="-117" font-family="Helvetica,sans-Serif" font-size="10.00">functional</text>
</a>
</g>
</g>
<!-- Node29&#45;&gt;Node30 -->
<g id="edge38_Node000029_Node000030" class="edge">
<title>Node29&#45;&gt;Node30</title>
<g id="a_edge38_Node000029_Node000030"><a xlink:title=" ">
<path fill="none" stroke="#63b8ff" d="M2085.37,-164.75C2082.42,-157.65 2078.17,-147.4 2074.49,-138.56"/>
<polygon fill="#63b8ff" stroke="#63b8ff" points="2077.63,-136.98 2070.57,-129.09 2071.17,-139.67 2077.63,-136.98"/>
</a>
</g>
</g>
<!-- Node31&#45;&gt;Node23 -->
<g id="edge41_Node000031_Node000023" class="edge">
<title>Node31&#45;&gt;Node23</title>
<g id="a_edge41_Node000031_Node000023"><a xlink:title=" ">
<path fill="none" stroke="#63b8ff" d="M1803.16,-219.99C1866.51,-211.04 1954.66,-196.56 1965,-184 1985.9,-158.61 1982.92,-137.58 1965,-110 1951.54,-89.27 1925.94,-78.12 1904.01,-72.16"/>
<polygon fill="#63b8ff" stroke="#63b8ff" points="1904.8,-68.75 1894.25,-69.78 1903.13,-75.55 1904.8,-68.75"/>
</a>
</g>
</g>
<!-- Node31&#45;&gt;Node25 -->
<g id="edge40_Node000031_Node000025" class="edge">
<title>Node31&#45;&gt;Node25</title>
<g id="a_edge40_Node000031_Node000025"><a xlink:title=" ">
<path fill="none" stroke="#63b8ff" d="M1724.14,-219.96C1704.11,-207.67 1665.88,-184.32 1633,-165 1615.08,-154.47 1594.67,-142.84 1579.22,-134.11"/>
<polygon fill="#63b8ff" stroke="#63b8ff" points="1580.74,-130.95 1570.31,-129.08 1577.3,-137.04 1580.74,-130.95"/>
</a>
</g>
</g>
<!-- Node31&#45;&gt;Node29 -->
<g id="edge42_Node000031_Node000029" class="edge">
<title>Node31&#45;&gt;Node29</title>
<g id="a_edge42_Node000031_Node000029"><a xlink:title=" ">
<path fill="none" stroke="#63b8ff" d="M1794.39,-219.98C1856.48,-210.61 1956.21,-195.55 2022.17,-185.59"/>
<polygon fill="#63b8ff" stroke="#63b8ff" points="2023.09,-188.99 2032.46,-184.04 2022.04,-182.07 2023.09,-188.99"/>
</a>
</g>
</g>
<!-- Node31&#45;&gt;Node32 -->
<g id="edge43_Node000031_Node000032" class="edge">
<title>Node31&#45;&gt;Node32</title>
<g id="a_edge43_Node000031_Node000032"><a xlink:title=" ">
<path fill="none" stroke="#63b8ff" d="M1764.19,-219.98C1791.44,-211.13 1834.3,-197.19 1864.78,-187.28"/>
<polygon fill="#63b8ff" stroke="#63b8ff" points="1866.18,-190.5 1874.61,-184.08 1864.01,-183.85 1866.18,-190.5"/>
</a>
</g>
</g>
<!-- Node32&#45;&gt;Node20 -->
<g id="edge45_Node000032_Node000020" class="edge">
<title>Node32&#45;&gt;Node20</title>
<g id="a_edge45_Node000032_Node000020"><a xlink:title=" ">
<path fill="none" stroke="#63b8ff" d="M1893.27,-164.7C1880.73,-150.97 1854.56,-124.52 1827,-110 1790.07,-90.55 1743.96,-79.1 1709.56,-72.69"/>
<polygon fill="#63b8ff" stroke="#63b8ff" points="1709.74,-69.17 1699.28,-70.87 1708.51,-76.06 1709.74,-69.17"/>
</a>
</g>
</g>
<!-- Node32&#45;&gt;Node30 -->
<g id="edge44_Node000032_Node000030" class="edge">
<title>Node32&#45;&gt;Node30</title>
<g id="a_edge44_Node000032_Node000030"><a xlink:title=" ">
<path fill="none" stroke="#63b8ff" d="M1927.67,-164.98C1955.54,-156.09 1999.45,-142.07 2030.52,-132.15"/>
<polygon fill="#63b8ff" stroke="#63b8ff" points="2031.66,-135.46 2040.12,-129.08 2029.53,-128.79 2031.66,-135.46"/>
</a>
</g>
</g>
<!-- Node33 -->
<g id="Node000033" class="node">
<title>Node33</title>
<g id="a_Node000033"><a xlink:href="ISolver_8h.html" target="_top" xlink:title="Abstract interface for numerical solvers.">
<polygon fill="white" stroke="#666666" points="1955.5,-129 1896.5,-129 1896.5,-110 1955.5,-110 1955.5,-129"/>
<text text-anchor="middle" x="1926" y="-117" font-family="Helvetica,sans-Serif" font-size="10.00">ISolver.h</text>
</a>
</g>
</g>
<!-- Node32&#45;&gt;Node33 -->
<g id="edge46_Node000032_Node000033" class="edge">
<title>Node32&#45;&gt;Node33</title>
<g id="a_edge46_Node000032_Node000033"><a xlink:title=" ">
<path fill="none" stroke="#63b8ff" d="M1905.13,-164.75C1908.51,-157.57 1913.42,-147.18 1917.62,-138.27"/>
<polygon fill="#63b8ff" stroke="#63b8ff" points="1920.85,-139.63 1921.95,-129.09 1914.52,-136.64 1920.85,-139.63"/>
</a>
</g>
</g>
<!-- Node34&#45;&gt;Node13 -->
<g id="edge51_Node000034_Node000013" class="edge">
<title>Node34&#45;&gt;Node13</title>
<g id="a_edge51_Node000034_Node000013"><a xlink:title=" ">
<path fill="none" stroke="#63b8ff" d="M1416.04,-219.98C1373.69,-211.43 1307.2,-197.62 1250,-184 1175.45,-166.25 1088.71,-142.67 1042.32,-129.82"/>
<polygon fill="#63b8ff" stroke="#63b8ff" points="1043.08,-126.4 1032.51,-127.09 1041.21,-133.14 1043.08,-126.4"/>
</a>
</g>
</g>
<!-- Node34&#45;&gt;Node20 -->
<g id="edge50_Node000034_Node000020" class="edge">
<title>Node34&#45;&gt;Node20</title>
<g id="a_edge50_Node000034_Node000020"><a xlink:title=" ">
<path fill="none" stroke="#63b8ff" d="M1458.71,-219.77C1458.65,-207.02 1459.89,-182.9 1469,-165 1484.68,-134.19 1494.54,-128.09 1524,-110 1550.65,-93.63 1583.99,-82.6 1610.99,-75.61"/>
<polygon fill="#63b8ff" stroke="#63b8ff" points="1612.13,-78.93 1620.99,-73.13 1610.45,-72.14 1612.13,-78.93"/>
</a>
</g>
</g>
<!-- Node34&#45;&gt;Node24 -->
<g id="edge48_Node000034_Node000024" class="edge">
<title>Node34&#45;&gt;Node24</title>
<g id="a_edge48_Node000034_Node000024"><a xlink:title=" ">
<path fill="none" stroke="#63b8ff" d="M1436.83,-219.98C1414.23,-211.3 1378.94,-197.75 1353.25,-187.88"/>
<polygon fill="#63b8ff" stroke="#63b8ff" points="1354.17,-184.49 1343.58,-184.17 1351.66,-191.02 1354.17,-184.49"/>
</a>
</g>
</g>
<!-- Node35 -->
<g id="Node000035" class="node">
<title>Node35</title>
<g id="a_Node000035"><a xlink:href="NodeIndex_8h.html" target="_top" xlink:title=" ">
<polygon fill="white" stroke="#666666" points="1624,-184 1546,-184 1546,-165 1624,-165 1624,-184"/>
<text text-anchor="middle" x="1585" y="-172" font-family="Helvetica,sans-Serif" font-size="10.00">NodeIndex.h</text>
</a>
</g>
</g>
<!-- Node34&#45;&gt;Node35 -->
<g id="edge49_Node000034_Node000035" class="edge">
<title>Node34&#45;&gt;Node35</title>
<g id="a_edge49_Node000034_Node000035"><a xlink:title=" ">
<path fill="none" stroke="#63b8ff" d="M1479.24,-219.98C1499.7,-211.38 1531.53,-197.99 1554.93,-188.15"/>
<polygon fill="#63b8ff" stroke="#63b8ff" points="1556.53,-191.27 1564.39,-184.17 1553.81,-184.82 1556.53,-191.27"/>
</a>
</g>
</g>
<!-- Node36 -->
<g id="Node000036" class="node">
<title>Node36</title>
<g id="a_Node000036"><a xlink:title=" ">
<polygon fill="#e0e0e0" stroke="#999999" points="1528,-184 1478,-184 1478,-165 1528,-165 1528,-184"/>
<text text-anchor="middle" x="1503" y="-172" font-family="Helvetica,sans-Serif" font-size="10.00">cstdint</text>
</a>
</g>
</g>
<!-- Node34&#45;&gt;Node36 -->
<g id="edge52_Node000034_Node000036" class="edge">
<title>Node34&#45;&gt;Node36</title>
<g id="a_edge52_Node000034_Node000036"><a xlink:title=" ">
<path fill="none" stroke="#63b8ff" d="M1466.27,-219.75C1472.54,-212.18 1481.79,-201.05 1489.43,-191.84"/>
<polygon fill="#63b8ff" stroke="#63b8ff" points="1492.17,-194.02 1495.87,-184.09 1486.79,-189.55 1492.17,-194.02"/>
</a>
</g>
</g>
<!-- Node37&#45;&gt;Node20 -->
<g id="edge54_Node000037_Node000020" class="edge">
<title>Node37&#45;&gt;Node20</title>
<g id="a_edge54_Node000037_Node000020"><a xlink:title=" ">
<path fill="none" stroke="#63b8ff" d="M1591.13,-219.93C1604.58,-212.32 1622.68,-199.94 1633,-184 1653.09,-152.96 1658.33,-108.88 1659.63,-84.17"/>
<polygon fill="#63b8ff" stroke="#63b8ff" points="1663.14,-84.13 1660,-74.01 1656.14,-83.88 1663.14,-84.13"/>
</a>
</g>
</g>
<!-- Node37&#45;&gt;Node24 -->
<g id="edge59_Node000037_Node000024" class="edge">
<title>Node37&#45;&gt;Node24</title>
<g id="a_edge59_Node000037_Node000024"><a xlink:title=" ">
<path fill="none" stroke="#63b8ff" d="M1533.35,-219.98C1489.5,-210.8 1419.58,-196.15 1372.05,-186.19"/>
<polygon fill="#63b8ff" stroke="#63b8ff" points="1372.47,-182.71 1361.97,-184.08 1371.04,-189.56 1372.47,-182.71"/>
</a>
</g>
</g>
<!-- Node37&#45;&gt;Node35 -->
<g id="edge58_Node000037_Node000035" class="edge">
<title>Node37&#45;&gt;Node35</title>
<g id="a_edge58_Node000037_Node000035"><a xlink:title=" ">
<path fill="none" stroke="#63b8ff" d="M1575.82,-219.75C1577.26,-212.8 1579.32,-202.85 1581.13,-194.13"/>
<polygon fill="#63b8ff" stroke="#63b8ff" points="1584.61,-194.59 1583.22,-184.09 1577.76,-193.17 1584.61,-194.59"/>
</a>
</g>
</g>
<!-- Node38 -->
<g id="Node000038" class="node">
<title>Node38</title>
<g id="a_Node000038"><a xlink:href="AABB_8h.html" target="_top" xlink:title=" ">
<polygon fill="white" stroke="#666666" points="1828,-184 1718,-184 1718,-165 1828,-165 1828,-184"/>
<text text-anchor="middle" x="1773" y="-172" font-family="Helvetica,sans-Serif" font-size="10.00">../bounding/AABB.h</text>
</a>
</g>
</g>
<!-- Node37&#45;&gt;Node38 -->
<g id="edge55_Node000037_Node000038" class="edge">
<title>Node37&#45;&gt;Node38</title>
<g id="a_edge55_Node000037_Node000038"><a xlink:title=" ">
<path fill="none" stroke="#63b8ff" d="M1605.97,-219.98C1639.82,-210.97 1693.4,-196.7 1730.71,-186.76"/>
<polygon fill="#63b8ff" stroke="#63b8ff" points="1732.01,-190.04 1740.78,-184.08 1730.21,-183.27 1732.01,-190.04"/>
</a>
</g>
</g>
<!-- Node38&#45;&gt;Node20 -->
<g id="edge56_Node000038_Node000020" class="edge">
<title>Node38&#45;&gt;Node20</title>
<g id="a_edge56_Node000038_Node000020"><a xlink:title=" ">
<path fill="none" stroke="#63b8ff" d="M1784.72,-164.93C1800.44,-152.39 1824.85,-128.52 1811,-110 1787.79,-78.96 1743.95,-68.65 1709.46,-65.64"/>
<polygon fill="#63b8ff" stroke="#63b8ff" points="1709.31,-62.12 1699.09,-64.92 1708.83,-69.1 1709.31,-62.12"/>
</a>
</g>
</g>
<!-- Node38&#45;&gt;Node22 -->
<g id="edge57_Node000038_Node000022" class="edge">
<title>Node38&#45;&gt;Node22</title>
<g id="a_edge57_Node000038_Node000022"><a xlink:title=" ">
<path fill="none" stroke="#63b8ff" d="M1768.38,-164.75C1764.54,-157.49 1758.98,-146.95 1754.24,-137.98"/>
<polygon fill="#63b8ff" stroke="#63b8ff" points="1757.3,-136.3 1749.54,-129.09 1751.11,-139.57 1757.3,-136.3"/>
</a>
</g>
</g>
</g>
</svg>

<g id="navigator" transform="translate(0 0)" fill="#404254">
  <rect fill="#f2f5e9" fill-opacity="0.5" stroke="#606060" stroke-width=".5" x="0" y="0" width="60" height="60"/>
  <use id="zoomplus" xlink:href="#zoomPlus" x="17" y="9" onmousedown="handleZoom(evt,'in')"/>
  <use id="zoomminus" xlink:href="#zoomMin" x="42" y="9" onmousedown="handleZoom(evt,'out')"/>
  <use id="reset" xlink:href="#resetDef" x="30" y="36" onmousedown="handleReset()"/>
   <use id="arrowup" xlink:href="#arrowUp" x="0" y="0" onmousedown="handlePan(0,-1)"/>
  <use id="arrowright" xlink:href="#arrowRight" x="0" y="0" onmousedown="handlePan(1,0)"/>
  <use id="arrowdown" xlink:href="#arrowDown" x="0" y="0" onmousedown="handlePan(0,1)"/>
  <use id="arrowleft" xlink:href="#arrowLeft" x="0" y="0" onmousedown="handlePan(-1,0)"/>
</g>
<svg viewBox="0 0 15 15" width="100%" height="30px" preserveAspectRatio="xMaxYMin meet">
 <g id="arrow_out" transform="scale(0.3 0.3)">
  <a xlink:href="OpenGLWindow_8h__incl_org.svg" target="_base">
   <rect id="button" ry="5" rx="5" y="6" x="6" height="38" width="38"
        fill="#f2f5e9" fill-opacity="0.5" stroke="#606060" stroke-width="1.0"/>
   <path id="arrow"
     d="M 11.500037,31.436501 C 11.940474,20.09759 22.043105,11.32322 32.158766,21.979434 L 37.068811,17.246167 C 37.068811,17.246167 37.088388,32 37.088388,32 L 22.160133,31.978069 C 22.160133,31.978069 26.997745,27.140456 26.997745,27.140456 C 18.528582,18.264221 13.291696,25.230495 11.500037,31.436501 z"
     style="fill:#404040;"/>
  </a>
 </g>
</svg>

<style type='text/css'>
<![CDATA[
[data-mouse-over-selected='false'] { opacity: 0.7; }
[data-mouse-over-selected='true']  { opacity: 1.0; }
]]>
</style>
<script type="application/ecmascript"><![CDATA[
document.addEventListener('DOMContentLoaded', (event) => {
  highlightEdges();
  highlightAdjacentNodes();
});
]]></script>
</svg>
