<?xml version="1.0" encoding="UTF-8" standalone="no"?>
<!DOCTYPE svg PUBLIC "-//W3C//DTD SVG 1.1//EN"
 "http://www.w3.org/Graphics/SVG/1.1/DTD/svg11.dtd">
<!-- Generated by graphviz version 2.43.0 (0)
 -->
<!-- Title: src/physics/PhysicsSystem.h Pages: 1 -->
<!--zoomable 302 -->

<svg id="main" version="1.1" xmlns="http://www.w3.org/2000/svg" xmlns:xlink="http://www.w3.org/1999/xlink" xml:space="preserve" onload="init(evt)">
<style type="text/css"><![CDATA[
.node, .edge {opacity: 0.7;}
.node.selected, .edge.selected {opacity: 1;}
.edge:hover path { stroke: red; }
.edge:hover polygon { stroke: red; fill: red; }
]]></style>

<defs>
  <circle id="rim" cx="0" cy="0" r="7"/>
  <circle id="rim2" cx="0" cy="0" r="3.5"/>
  <g id="zoomPlus">
    <use xlink:href="#rim" fill="#404040"><set attributeName="fill" to="#808080" begin="zoomplus.mouseover" end="zoomplus.mouseout"/></use>
    <path d="M-4,0h8M0,-4v8" fill="none" stroke="white" stroke-width="1.5" pointer-events="none"/>
  </g>
  <g id="zoomMin">
    <use xlink:href="#rim" fill="#404040"><set attributeName="fill" to="#808080" begin="zoomminus.mouseover" end="zoomminus.mouseout"/></use>
    <path d="M-4,0h8" fill="none" stroke="white" stroke-width="1.5" pointer-events="none"/>
  </g>
  <g id="arrowUp" transform="translate(30 24)">
    <use xlink:href="#rim"/>
    <path pointer-events="none" fill="none" stroke="white" stroke-width="1.5" d="M0,-3.0v7 M-2.5,-0.5L0,-3.0L2.5,-0.5"/>
  </g>
  <g id="arrowRight" transform="rotate(90) translate(36 -43)">
    <use xlink:href="#rim"/>
    <path pointer-events="none" fill="none" stroke="white" stroke-width="1.5" d="M0,-3.0v7 M-2.5,-0.5L0,-3.0L2.5,-0.5"/>
  </g>
  <g id="arrowDown" transform="rotate(180) translate(-30 -48)">
    <use xlink:href="#rim"/>
    <path pointer-events="none" fill="none" stroke="white" stroke-width="1.5" d="M0,-3.0v7 M-2.5,-0.5L0,-3.0L2.5,-0.5"/>
  </g>
  <g id="arrowLeft" transform="rotate(270) translate(-36 17)">
    <use xlink:href="#rim"/>
    <path pointer-events="none" fill="none" stroke="white" stroke-width="1.5" d="M0,-3.0v7 M-2.5,-0.5L0,-3.0L2.5,-0.5"/>
  </g>
  <g id="resetDef">
    <use xlink:href="#rim2" fill="#404040"><set attributeName="fill" to="#808080" begin="reset.mouseover" end="reset.mouseout"/></use>
  </g>
</defs>
<script type="application/ecmascript">
var viewWidth = 1605;
var viewHeight = 302;
var sectionId = 'dynsection-0';
</script>
<script type="application/ecmascript" xlink:href="svg.min.js"/>
<svg id="graph" class="graph">
<g id="viewport">
<title>src/physics/PhysicsSystem.h</title>
<!-- Node1 -->
<g id="Node000001" class="node">
<title>Node1</title>
<g id="a_Node000001"><a xlink:title=" ">
<polygon fill="#999999" stroke="#666666" points="1010.75,-294 854.75,-294 854.75,-275 1010.75,-275 1010.75,-294"/>
<text text-anchor="middle" x="932.75" y="-282" font-family="Helvetica,sans-Serif" font-size="10.00">src/physics/PhysicsSystem.h</text>
</a>
</g>
</g>
<!-- Node2 -->
<g id="Node000002" class="node">
<title>Node2</title>
<g id="a_Node000002"><a xlink:title=" ">
<polygon fill="#e0e0e0" stroke="#999999" points="320.25,-129 273.25,-129 273.25,-110 320.25,-110 320.25,-129"/>
<text text-anchor="middle" x="296.75" y="-117" font-family="Helvetica,sans-Serif" font-size="10.00">vector</text>
</a>
</g>
</g>
<!-- Node1&#45;&gt;Node2 -->
<g id="edge1_Node000001_Node000002" class="edge">
<title>Node1&#45;&gt;Node2</title>
<g id="a_edge1_Node000001_Node000002"><a xlink:title=" ">
<path fill="none" stroke="#63b8ff" d="M854.73,-278.83C771.83,-272.98 637.19,-260.95 522.75,-239 433.05,-221.79 393.82,-243.76 324.75,-184 311.52,-172.55 304.29,-153.67 300.51,-139.46"/>
<polygon fill="#63b8ff" stroke="#63b8ff" points="303.82,-138.26 298.17,-129.3 297,-139.83 303.82,-138.26"/>
</a>
</g>
</g>
<!-- Node3 -->
<g id="Node000003" class="node">
<title>Node3</title>
<g id="a_Node000003"><a xlink:title=" ">
<polygon fill="#e0e0e0" stroke="#999999" points="190.75,-129 140.75,-129 140.75,-110 190.75,-110 190.75,-129"/>
<text text-anchor="middle" x="165.75" y="-117" font-family="Helvetica,sans-Serif" font-size="10.00">atomic</text>
</a>
</g>
</g>
<!-- Node1&#45;&gt;Node3 -->
<g id="edge2_Node000001_Node000003" class="edge">
<title>Node1&#45;&gt;Node3</title>
<g id="a_edge2_Node000001_Node000003"><a xlink:title=" ">
<path fill="none" stroke="#63b8ff" d="M854.66,-281.37C689.71,-276.45 310.56,-262.88 183.75,-239 105.71,-224.3 60.46,-248.22 13.75,-184 8.78,-177.17 8.68,-171.76 13.75,-165 17.35,-160.19 86.96,-141.19 130.72,-129.62"/>
<polygon fill="#63b8ff" stroke="#63b8ff" points="131.65,-133 140.43,-127.07 129.87,-126.23 131.65,-133"/>
</a>
</g>
</g>
<!-- Node4 -->
<g id="Node000004" class="node">
<title>Node4</title>
<g id="a_Node000004"><a xlink:title=" ">
<polygon fill="#e0e0e0" stroke="#999999" points="122.75,-129 74.75,-129 74.75,-110 122.75,-110 122.75,-129"/>
<text text-anchor="middle" x="98.75" y="-117" font-family="Helvetica,sans-Serif" font-size="10.00">mutex</text>
</a>
</g>
</g>
<!-- Node1&#45;&gt;Node4 -->
<g id="edge3_Node000001_Node000004" class="edge">
<title>Node1&#45;&gt;Node4</title>
<g id="a_edge3_Node000001_Node000004"><a xlink:title=" ">
<path fill="none" stroke="#63b8ff" d="M854.47,-283.2C651.88,-281.91 121.2,-275.07 50.75,-239 16.69,-221.56 -13.58,-197.42 6.75,-165 19.38,-144.85 44.02,-133.6 64.61,-127.45"/>
<polygon fill="#63b8ff" stroke="#63b8ff" points="65.59,-130.82 74.33,-124.83 63.76,-124.06 65.59,-130.82"/>
</a>
</g>
</g>
<!-- Node5 -->
<g id="Node000005" class="node">
<title>Node5</title>
<g id="a_Node000005"><a xlink:title=" ">
<polygon fill="#e0e0e0" stroke="#999999" points="1338.75,-239 1290.75,-239 1290.75,-220 1338.75,-220 1338.75,-239"/>
<text text-anchor="middle" x="1314.75" y="-227" font-family="Helvetica,sans-Serif" font-size="10.00">thread</text>
</a>
</g>
</g>
<!-- Node1&#45;&gt;Node5 -->
<g id="edge4_Node000001_Node000005" class="edge">
<title>Node1&#45;&gt;Node5</title>
<g id="a_edge4_Node000001_Node000005"><a xlink:title=" ">
<path fill="none" stroke="#63b8ff" d="M1010.93,-275.45C1080.86,-267.76 1186.01,-254.98 1276.75,-239 1278.02,-238.78 1279.32,-238.54 1280.62,-238.29"/>
<polygon fill="#63b8ff" stroke="#63b8ff" points="1281.59,-241.66 1290.69,-236.23 1280.19,-234.8 1281.59,-241.66"/>
</a>
</g>
</g>
<!-- Node6 -->
<g id="Node000006" class="node">
<title>Node6</title>
<g id="a_Node000006"><a xlink:title=" ">
<polygon fill="#e0e0e0" stroke="#999999" points="1464.25,-239 1357.25,-239 1357.25,-220 1464.25,-220 1464.25,-239"/>
<text text-anchor="middle" x="1410.75" y="-227" font-family="Helvetica,sans-Serif" font-size="10.00">condition_variable</text>
</a>
</g>
</g>
<!-- Node1&#45;&gt;Node6 -->
<g id="edge5_Node000001_Node000006" class="edge">
<title>Node1&#45;&gt;Node6</title>
<g id="a_edge5_Node000001_Node000006"><a xlink:title=" ">
<path fill="none" stroke="#63b8ff" d="M1010.84,-275.77C1092.11,-267.58 1223.35,-253.94 1347.11,-239.05"/>
<polygon fill="#63b8ff" stroke="#63b8ff" points="1347.64,-242.51 1357.14,-237.83 1346.8,-235.56 1347.64,-242.51"/>
</a>
</g>
</g>
<!-- Node7 -->
<g id="Node000007" class="node">
<title>Node7</title>
<g id="a_Node000007"><a xlink:title=" ">
<polygon fill="#e0e0e0" stroke="#999999" points="1233.75,-74 1177.75,-74 1177.75,-55 1233.75,-55 1233.75,-74"/>
<text text-anchor="middle" x="1205.75" y="-62" font-family="Helvetica,sans-Serif" font-size="10.00">optional</text>
</a>
</g>
</g>
<!-- Node1&#45;&gt;Node7 -->
<g id="edge6_Node000001_Node000007" class="edge">
<title>Node1&#45;&gt;Node7</title>
<g id="a_edge6_Node000001_Node000007"><a xlink:title=" ">
<path fill="none" stroke="#63b8ff" d="M994.83,-274.99C1085.12,-261.15 1245.46,-230.55 1277.75,-184 1302.84,-147.81 1255.3,-102.83 1226.12,-80.1"/>
<polygon fill="#63b8ff" stroke="#63b8ff" points="1228.2,-77.28 1218.11,-74.05 1223.98,-82.87 1228.2,-77.28"/>
</a>
</g>
</g>
<!-- Node8 -->
<g id="Node000008" class="node">
<title>Node8</title>
<g id="a_Node000008"><a xlink:href="RigidBody_8h.html" target="_top" xlink:title=" ">
<polygon fill="white" stroke="#666666" points="266.75,-239 192.75,-239 192.75,-220 266.75,-220 266.75,-239"/>
<text text-anchor="middle" x="229.75" y="-227" font-family="Helvetica,sans-Serif" font-size="10.00">RigidBody.h</text>
</a>
</g>
</g>
<!-- Node1&#45;&gt;Node8 -->
<g id="edge7_Node000001_Node000008" class="edge">
<title>Node1&#45;&gt;Node8</title>
<g id="a_edge7_Node000001_Node000008"><a xlink:title=" ">
<path fill="none" stroke="#63b8ff" d="M854.74,-280.62C732.2,-275.55 487.25,-263.2 280.75,-239 279.49,-238.85 278.22,-238.7 276.94,-238.53"/>
<polygon fill="#63b8ff" stroke="#63b8ff" points="277.4,-235.06 267.01,-237.14 276.43,-241.99 277.4,-235.06"/>
</a>
</g>
</g>
<!-- Node19 -->
<g id="Node000019" class="node">
<title>Node19</title>
<g id="a_Node000019"><a xlink:href="Constants_8h.html" target="_top" xlink:title=" ">
<polygon fill="white" stroke="#666666" points="1596.75,-239 1482.75,-239 1482.75,-220 1596.75,-220 1596.75,-239"/>
<text text-anchor="middle" x="1539.75" y="-227" font-family="Helvetica,sans-Serif" font-size="10.00">physics/Constants.h</text>
</a>
</g>
</g>
<!-- Node1&#45;&gt;Node19 -->
<g id="edge26_Node000001_Node000019" class="edge">
<title>Node1&#45;&gt;Node19</title>
<g id="a_edge26_Node000001_Node000019"><a xlink:title=" ">
<path fill="none" stroke="#63b8ff" d="M1010.8,-278.21C1113.99,-270.97 1301.75,-256.91 1472.35,-239.1"/>
<polygon fill="#63b8ff" stroke="#63b8ff" points="1472.95,-242.56 1482.53,-238.03 1472.22,-235.6 1472.95,-242.56"/>
</a>
</g>
</g>
<!-- Node20 -->
<g id="Node000020" class="node">
<title>Node20</title>
<g id="a_Node000020"><a xlink:href="OneUnknownSolver_8h.html" target="_top" xlink:title=" ">
<polygon fill="white" stroke="#666666" points="1268.75,-184 1114.75,-184 1114.75,-165 1268.75,-165 1268.75,-184"/>
<text text-anchor="middle" x="1191.75" y="-172" font-family="Helvetica,sans-Serif" font-size="10.00">solver/OneUnknownSolver.h</text>
</a>
</g>
</g>
<!-- Node1&#45;&gt;Node20 -->
<g id="edge27_Node000001_Node000020" class="edge">
<title>Node1&#45;&gt;Node20</title>
<g id="a_edge27_Node000001_Node000020"><a xlink:title=" ">
<path fill="none" stroke="#63b8ff" d="M983.92,-274.97C1018.32,-268.06 1064.07,-256.55 1101.75,-239 1128.91,-226.35 1156.54,-205.39 1173.88,-191.04"/>
<polygon fill="#63b8ff" stroke="#63b8ff" points="1176.58,-193.34 1181.96,-184.22 1172.06,-188 1176.58,-193.34"/>
</a>
</g>
</g>
<!-- Node22 -->
<g id="Node000022" class="node">
<title>Node22</title>
<g id="a_Node000022"><a xlink:href="ProblemRouter_8h.html" target="_top" xlink:title=" ">
<polygon fill="white" stroke="#666666" points="1092.25,-239 961.25,-239 961.25,-220 1092.25,-220 1092.25,-239"/>
<text text-anchor="middle" x="1026.75" y="-227" font-family="Helvetica,sans-Serif" font-size="10.00">solver/ProblemRouter.h</text>
</a>
</g>
</g>
<!-- Node1&#45;&gt;Node22 -->
<g id="edge29_Node000001_Node000022" class="edge">
<title>Node1&#45;&gt;Node22</title>
<g id="a_edge29_Node000001_Node000022"><a xlink:title=" ">
<path fill="none" stroke="#63b8ff" d="M947.85,-274.98C962.56,-266.69 985.17,-253.94 1002.42,-244.22"/>
<polygon fill="#63b8ff" stroke="#63b8ff" points="1004.38,-247.13 1011.37,-239.17 1000.94,-241.03 1004.38,-247.13"/>
</a>
</g>
</g>
<!-- Node23 -->
<g id="Node000023" class="node">
<title>Node23</title>
<g id="a_Node000023"><a xlink:href="VectorRootSolver_8h.html" target="_top" xlink:title=" ">
<polygon fill="white" stroke="#666666" points="1058.25,-184 949.25,-184 949.25,-165 1058.25,-165 1058.25,-184"/>
<text text-anchor="middle" x="1003.75" y="-172" font-family="Helvetica,sans-Serif" font-size="10.00">VectorRootSolver.h</text>
</a>
</g>
</g>
<!-- Node1&#45;&gt;Node23 -->
<g id="edge50_Node000001_Node000023" class="edge">
<title>Node1&#45;&gt;Node23</title>
<g id="a_edge50_Node000001_Node000023"><a xlink:title=" ">
<path fill="none" stroke="#63b8ff" d="M933.98,-274.64C936.1,-261.73 941.36,-237.41 952.75,-220 960.38,-208.32 971.91,-197.9 982.07,-190.09"/>
<polygon fill="#63b8ff" stroke="#63b8ff" points="984.17,-192.89 990.18,-184.16 980.04,-187.24 984.17,-192.89"/>
</a>
</g>
</g>
<!-- Node25 -->
<g id="Node000025" class="node">
<title>Node25</title>
<g id="a_Node000025"><a xlink:href="Octree_8h.html" target="_top" xlink:title=" ">
<polygon fill="white" stroke="#666666" points="625.75,-239 531.75,-239 531.75,-220 625.75,-220 625.75,-239"/>
<text text-anchor="middle" x="578.75" y="-227" font-family="Helvetica,sans-Serif" font-size="10.00">spatial/Octree.h</text>
</a>
</g>
</g>
<!-- Node1&#45;&gt;Node25 -->
<g id="edge37_Node000001_Node000025" class="edge">
<title>Node1&#45;&gt;Node25</title>
<g id="a_edge37_Node000001_Node000025"><a xlink:title=" ">
<path fill="none" stroke="#63b8ff" d="M875.87,-274.98C810.01,-265.12 702.14,-248.97 636.08,-239.08"/>
<polygon fill="#63b8ff" stroke="#63b8ff" points="636.26,-235.57 625.86,-237.55 635.23,-242.5 636.26,-235.57"/>
</a>
</g>
</g>
<!-- Node28 -->
<g id="Node000028" class="node">
<title>Node28</title>
<g id="a_Node000028"><a xlink:href="BVH_8h.html" target="_top" xlink:title=" ">
<polygon fill="white" stroke="#666666" points="834.25,-239 751.25,-239 751.25,-220 834.25,-220 834.25,-239"/>
<text text-anchor="middle" x="792.75" y="-227" font-family="Helvetica,sans-Serif" font-size="10.00">spatial/BVH.h</text>
</a>
</g>
</g>
<!-- Node1&#45;&gt;Node28 -->
<g id="edge43_Node000001_Node000028" class="edge">
<title>Node1&#45;&gt;Node28</title>
<g id="a_edge43_Node000001_Node000028"><a xlink:title=" ">
<path fill="none" stroke="#63b8ff" d="M910.25,-274.98C887.22,-266.27 851.21,-252.63 825.12,-242.75"/>
<polygon fill="#63b8ff" stroke="#63b8ff" points="826.24,-239.44 815.65,-239.17 823.76,-245.98 826.24,-239.44"/>
</a>
</g>
</g>
<!-- Node8&#45;&gt;Node2 -->
<g id="edge9_Node000008_Node000002" class="edge">
<title>Node8&#45;&gt;Node2</title>
<g id="a_edge9_Node000008_Node000002"><a xlink:title=" ">
<path fill="none" stroke="#63b8ff" d="M235.23,-219.66C246.33,-201.77 271.62,-161 286.08,-137.69"/>
<polygon fill="#63b8ff" stroke="#63b8ff" points="289.08,-139.5 291.38,-129.16 283.13,-135.81 289.08,-139.5"/>
</a>
</g>
</g>
<!-- Node8&#45;&gt;Node4 -->
<g id="edge8_Node000008_Node000004" class="edge">
<title>Node8&#45;&gt;Node4</title>
<g id="a_edge8_Node000008_Node000004"><a xlink:title=" ">
<path fill="none" stroke="#63b8ff" d="M221.29,-219.89C208.75,-207.29 184.3,-183.35 161.75,-165 148.54,-154.25 132.91,-143.21 120.53,-134.81"/>
<polygon fill="#63b8ff" stroke="#63b8ff" points="122.42,-131.86 112.16,-129.2 118.52,-137.67 122.42,-131.86"/>
</a>
</g>
</g>
<!-- Node9 -->
<g id="Node000009" class="node">
<title>Node9</title>
<g id="a_Node000009"><a xlink:title=" ">
<polygon fill="#e0e0e0" stroke="#999999" points="753.75,-74 675.75,-74 675.75,-55 753.75,-55 753.75,-74"/>
<text text-anchor="middle" x="714.75" y="-62" font-family="Helvetica,sans-Serif" font-size="10.00">glm/glm.hpp</text>
</a>
</g>
</g>
<!-- Node8&#45;&gt;Node9 -->
<g id="edge10_Node000008_Node000009" class="edge">
<title>Node8&#45;&gt;Node9</title>
<g id="a_edge10_Node000008_Node000009"><a xlink:title=" ">
<path fill="none" stroke="#63b8ff" d="M229.26,-219.94C228.5,-197.76 229.88,-138.23 263.75,-110 294.12,-84.68 554.86,-71.69 665.47,-67.27"/>
<polygon fill="#63b8ff" stroke="#63b8ff" points="665.84,-70.76 675.69,-66.87 665.56,-63.77 665.84,-70.76"/>
</a>
</g>
</g>
<!-- Node10 -->
<g id="Node000010" class="node">
<title>Node10</title>
<g id="a_Node000010"><a xlink:title=" ">
<polygon fill="#e0e0e0" stroke="#999999" points="152.75,-184 22.75,-184 22.75,-165 152.75,-165 152.75,-184"/>
<text text-anchor="middle" x="87.75" y="-172" font-family="Helvetica,sans-Serif" font-size="10.00">glm/gtc/quaternion.hpp</text>
</a>
</g>
</g>
<!-- Node8&#45;&gt;Node10 -->
<g id="edge11_Node000008_Node000010" class="edge">
<title>Node8&#45;&gt;Node10</title>
<g id="a_edge11_Node000008_Node000010"><a xlink:title=" ">
<path fill="none" stroke="#63b8ff" d="M206.93,-219.98C183.57,-211.27 147.04,-197.63 120.58,-187.75"/>
<polygon fill="#63b8ff" stroke="#63b8ff" points="121.57,-184.39 110.98,-184.17 119.12,-190.95 121.57,-184.39"/>
</a>
</g>
</g>
<!-- Node11 -->
<g id="Node000011" class="node">
<title>Node11</title>
<g id="a_Node000011"><a xlink:href="ICollider_8h.html" target="_top" xlink:title="Abstract interface for collision detection shapes.">
<polygon fill="white" stroke="#666666" points="932.25,-129 819.25,-129 819.25,-110 932.25,-110 932.25,-129"/>
<text text-anchor="middle" x="875.75" y="-117" font-family="Helvetica,sans-Serif" font-size="10.00">bounding/ICollider.h</text>
</a>
</g>
</g>
<!-- Node8&#45;&gt;Node11 -->
<g id="edge12_Node000008_Node000011" class="edge">
<title>Node8&#45;&gt;Node11</title>
<g id="a_edge12_Node000008_Node000011"><a xlink:title=" ">
<path fill="none" stroke="#63b8ff" d="M266.78,-223.18C318.16,-215.6 413.89,-200.74 494.75,-184 529.26,-176.85 537.16,-171.78 571.75,-165 652.94,-149.08 747.35,-136.11 809.15,-128.37"/>
<polygon fill="#63b8ff" stroke="#63b8ff" points="809.67,-131.83 819.16,-127.12 808.81,-124.88 809.67,-131.83"/>
</a>
</g>
</g>
<!-- Node15 -->
<g id="Node000015" class="node">
<title>Node15</title>
<g id="a_Node000015"><a xlink:href="PhysicsBody_8h.html" target="_top" xlink:title=" ">
<polygon fill="white" stroke="#666666" points="486.25,-184 361.25,-184 361.25,-165 486.25,-165 486.25,-184"/>
<text text-anchor="middle" x="423.75" y="-172" font-family="Helvetica,sans-Serif" font-size="10.00">physics/PhysicsBody.h</text>
</a>
</g>
</g>
<!-- Node8&#45;&gt;Node15 -->
<g id="edge18_Node000008_Node000015" class="edge">
<title>Node8&#45;&gt;Node15</title>
<g id="a_edge18_Node000008_Node000015"><a xlink:title=" ">
<path fill="none" stroke="#63b8ff" d="M260.92,-219.98C293.91,-210.97 346.14,-196.7 382.52,-186.76"/>
<polygon fill="#63b8ff" stroke="#63b8ff" points="383.61,-190.09 392.33,-184.08 381.76,-183.34 383.61,-190.09"/>
</a>
</g>
</g>
<!-- Node11&#45;&gt;Node7 -->
<g id="edge15_Node000011_Node000007" class="edge">
<title>Node11&#45;&gt;Node7</title>
<g id="a_edge15_Node000011_Node000007"><a xlink:title=" ">
<path fill="none" stroke="#63b8ff" d="M928.77,-109.98C995.63,-99.25 1108.93,-81.05 1167.76,-71.6"/>
<polygon fill="#63b8ff" stroke="#63b8ff" points="1168.42,-75.04 1177.74,-70 1167.31,-68.13 1168.42,-75.04"/>
</a>
</g>
</g>
<!-- Node11&#45;&gt;Node9 -->
<g id="edge13_Node000011_Node000009" class="edge">
<title>Node11&#45;&gt;Node9</title>
<g id="a_edge13_Node000011_Node000009"><a xlink:title=" ">
<path fill="none" stroke="#63b8ff" d="M849.88,-109.98C822.97,-101.13 780.63,-87.19 750.52,-77.28"/>
<polygon fill="#63b8ff" stroke="#63b8ff" points="751.41,-73.88 740.82,-74.08 749.22,-80.53 751.41,-73.88"/>
</a>
</g>
</g>
<!-- Node12 -->
<g id="Node000012" class="node">
<title>Node12</title>
<g id="a_Node000012"><a xlink:title=" ">
<polygon fill="#e0e0e0" stroke="#999999" points="1068.75,-74 1010.75,-74 1010.75,-55 1068.75,-55 1068.75,-74"/>
<text text-anchor="middle" x="1039.75" y="-62" font-family="Helvetica,sans-Serif" font-size="10.00">memory</text>
</a>
</g>
</g>
<!-- Node11&#45;&gt;Node12 -->
<g id="edge14_Node000011_Node000012" class="edge">
<title>Node11&#45;&gt;Node12</title>
<g id="a_edge14_Node000011_Node000012"><a xlink:title=" ">
<path fill="none" stroke="#63b8ff" d="M902.1,-109.98C929.51,-101.13 972.64,-87.19 1003.31,-77.28"/>
<polygon fill="#63b8ff" stroke="#63b8ff" points="1004.75,-80.49 1013.19,-74.08 1002.6,-73.83 1004.75,-80.49"/>
</a>
</g>
</g>
<!-- Node13 -->
<g id="Node000013" class="node">
<title>Node13</title>
<g id="a_Node000013"><a xlink:href="Ray_8h.html" target="_top" xlink:title=" ">
<polygon fill="white" stroke="#666666" points="911.25,-74 840.25,-74 840.25,-55 911.25,-55 911.25,-74"/>
<text text-anchor="middle" x="875.75" y="-62" font-family="Helvetica,sans-Serif" font-size="10.00">math/Ray.h</text>
</a>
</g>
</g>
<!-- Node11&#45;&gt;Node13 -->
<g id="edge16_Node000011_Node000013" class="edge">
<title>Node11&#45;&gt;Node13</title>
<g id="a_edge16_Node000011_Node000013"><a xlink:title=" ">
<path fill="none" stroke="#63b8ff" d="M875.75,-109.75C875.75,-102.8 875.75,-92.85 875.75,-84.13"/>
<polygon fill="#63b8ff" stroke="#63b8ff" points="879.25,-84.09 875.75,-74.09 872.25,-84.09 879.25,-84.09"/>
</a>
</g>
</g>
<!-- Node14 -->
<g id="Node000014" class="node">
<title>Node14</title>
<g id="a_Node000014"><a xlink:title=" ">
<polygon fill="#e0e0e0" stroke="#999999" points="917.25,-19 834.25,-19 834.25,0 917.25,0 917.25,-19"/>
<text text-anchor="middle" x="875.75" y="-7" font-family="Helvetica,sans-Serif" font-size="10.00">glm/vec3.hpp</text>
</a>
</g>
</g>
<!-- Node13&#45;&gt;Node14 -->
<g id="edge17_Node000013_Node000014" class="edge">
<title>Node13&#45;&gt;Node14</title>
<g id="a_edge17_Node000013_Node000014"><a xlink:title=" ">
<path fill="none" stroke="#63b8ff" d="M875.75,-54.75C875.75,-47.8 875.75,-37.85 875.75,-29.13"/>
<polygon fill="#63b8ff" stroke="#63b8ff" points="879.25,-29.09 875.75,-19.09 872.25,-29.09 879.25,-29.09"/>
</a>
</g>
</g>
<!-- Node15&#45;&gt;Node2 -->
<g id="edge22_Node000015_Node000002" class="edge">
<title>Node15&#45;&gt;Node2</title>
<g id="a_edge22_Node000015_Node000002"><a xlink:title=" ">
<path fill="none" stroke="#63b8ff" d="M403.34,-164.98C382.73,-156.38 350.64,-142.99 327.05,-133.15"/>
<polygon fill="#63b8ff" stroke="#63b8ff" points="328.1,-129.79 317.52,-129.17 325.4,-136.25 328.1,-129.79"/>
</a>
</g>
</g>
<!-- Node15&#45;&gt;Node3 -->
<g id="edge19_Node000015_Node000003" class="edge">
<title>Node15&#45;&gt;Node3</title>
<g id="a_edge19_Node000015_Node000003"><a xlink:title=" ">
<path fill="none" stroke="#63b8ff" d="M382.29,-164.98C332.1,-154.67 248.44,-137.49 201.14,-127.77"/>
<polygon fill="#63b8ff" stroke="#63b8ff" points="201.56,-124.28 191.06,-125.7 200.15,-131.14 201.56,-124.28"/>
</a>
</g>
</g>
<!-- Node15&#45;&gt;Node4 -->
<g id="edge24_Node000015_Node000004" class="edge">
<title>Node15&#45;&gt;Node4</title>
<g id="a_edge24_Node000015_Node000004"><a xlink:title=" ">
<path fill="none" stroke="#63b8ff" d="M361.05,-165.81C303.96,-158.38 217.17,-146.03 132.84,-129.04"/>
<polygon fill="#63b8ff" stroke="#63b8ff" points="133.33,-125.57 122.83,-127 131.93,-132.43 133.33,-125.57"/>
</a>
</g>
</g>
<!-- Node15&#45;&gt;Node9 -->
<g id="edge21_Node000015_Node000009" class="edge">
<title>Node15&#45;&gt;Node9</title>
<g id="a_edge21_Node000015_Node000009"><a xlink:title=" ">
<path fill="none" stroke="#63b8ff" d="M428.17,-164.88C435.82,-150.9 452.94,-123.5 475.75,-110 534.53,-75.21 614.52,-66.62 665.4,-65.01"/>
<polygon fill="#63b8ff" stroke="#63b8ff" points="665.57,-68.51 675.48,-64.77 665.4,-61.51 665.57,-68.51"/>
</a>
</g>
</g>
<!-- Node16 -->
<g id="Node000016" class="node">
<title>Node16</title>
<g id="a_Node000016"><a xlink:title=" ">
<polygon fill="#e0e0e0" stroke="#999999" points="655.75,-129 611.75,-129 611.75,-110 655.75,-110 655.75,-129"/>
<text text-anchor="middle" x="633.75" y="-117" font-family="Helvetica,sans-Serif" font-size="10.00">string</text>
</a>
</g>
</g>
<!-- Node15&#45;&gt;Node16 -->
<g id="edge20_Node000015_Node000016" class="edge">
<title>Node15&#45;&gt;Node16</title>
<g id="a_edge20_Node000015_Node000016"><a xlink:title=" ">
<path fill="none" stroke="#63b8ff" d="M457.49,-164.98C497.29,-154.94 562.97,-138.36 601.92,-128.53"/>
<polygon fill="#63b8ff" stroke="#63b8ff" points="602.85,-131.91 611.69,-126.07 601.13,-125.12 602.85,-131.91"/>
</a>
</g>
</g>
<!-- Node17 -->
<g id="Node000017" class="node">
<title>Node17</title>
<g id="a_Node000017"><a xlink:title=" ">
<polygon fill="#e0e0e0" stroke="#999999" points="522.75,-129 484.75,-129 484.75,-110 522.75,-110 522.75,-129"/>
<text text-anchor="middle" x="503.75" y="-117" font-family="Helvetica,sans-Serif" font-size="10.00">map</text>
</a>
</g>
</g>
<!-- Node15&#45;&gt;Node17 -->
<g id="edge23_Node000015_Node000017" class="edge">
<title>Node15&#45;&gt;Node17</title>
<g id="a_edge23_Node000015_Node000017"><a xlink:title=" ">
<path fill="none" stroke="#63b8ff" d="M436.6,-164.98C448.89,-156.84 467.65,-144.41 482.22,-134.76"/>
<polygon fill="#63b8ff" stroke="#63b8ff" points="484.26,-137.61 490.66,-129.17 480.39,-131.78 484.26,-137.61"/>
</a>
</g>
</g>
<!-- Node18 -->
<g id="Node000018" class="node">
<title>Node18</title>
<g id="a_Node000018"><a xlink:title=" ">
<polygon fill="#e0e0e0" stroke="#999999" points="428.75,-129 342.75,-129 342.75,-110 428.75,-110 428.75,-129"/>
<text text-anchor="middle" x="385.75" y="-117" font-family="Helvetica,sans-Serif" font-size="10.00">unordered_set</text>
</a>
</g>
</g>
<!-- Node15&#45;&gt;Node18 -->
<g id="edge25_Node000015_Node000018" class="edge">
<title>Node15&#45;&gt;Node18</title>
<g id="a_edge25_Node000015_Node000018"><a xlink:title=" ">
<path fill="none" stroke="#63b8ff" d="M417.47,-164.75C412.16,-157.34 404.39,-146.5 397.87,-137.41"/>
<polygon fill="#63b8ff" stroke="#63b8ff" points="400.58,-135.18 391.9,-129.09 394.89,-139.26 400.58,-135.18"/>
</a>
</g>
</g>
<!-- Node21 -->
<g id="Node000021" class="node">
<title>Node21</title>
<g id="a_Node000021"><a xlink:title=" ">
<polygon fill="#e0e0e0" stroke="#999999" points="1092.25,-129 1027.25,-129 1027.25,-110 1092.25,-110 1092.25,-129"/>
<text text-anchor="middle" x="1059.75" y="-117" font-family="Helvetica,sans-Serif" font-size="10.00">functional</text>
</a>
</g>
</g>
<!-- Node20&#45;&gt;Node21 -->
<g id="edge28_Node000020_Node000021" class="edge">
<title>Node20&#45;&gt;Node21</title>
<g id="a_edge28_Node000020_Node000021"><a xlink:title=" ">
<path fill="none" stroke="#63b8ff" d="M1170.54,-164.98C1149.02,-156.34 1115.46,-142.87 1090.92,-133.02"/>
<polygon fill="#63b8ff" stroke="#63b8ff" points="1091.92,-129.65 1081.34,-129.17 1089.32,-136.14 1091.92,-129.65"/>
</a>
</g>
</g>
<!-- Node22&#45;&gt;Node12 -->
<g id="edge31_Node000022_Node000012" class="edge">
<title>Node22&#45;&gt;Node12</title>
<g id="a_edge31_Node000022_Node000012"><a xlink:title=" ">
<path fill="none" stroke="#63b8ff" d="M1036.89,-219.95C1054.64,-204.19 1090.51,-168.54 1101.75,-129 1104.05,-120.88 1105.6,-117.51 1101.75,-110 1094.79,-96.44 1081.56,-86.07 1069.1,-78.78"/>
<polygon fill="#63b8ff" stroke="#63b8ff" points="1070.73,-75.68 1060.27,-74 1067.4,-81.84 1070.73,-75.68"/>
</a>
</g>
</g>
<!-- Node22&#45;&gt;Node16 -->
<g id="edge30_Node000022_Node000016" class="edge">
<title>Node22&#45;&gt;Node16</title>
<g id="a_edge30_Node000022_Node000016"><a xlink:title=" ">
<path fill="none" stroke="#63b8ff" d="M975.44,-219.95C931.58,-212.15 866.98,-199.49 811.75,-184 759.13,-169.25 699.63,-146.81 664.48,-132.93"/>
<polygon fill="#63b8ff" stroke="#63b8ff" points="665.4,-129.53 654.81,-129.09 662.81,-136.04 665.4,-129.53"/>
</a>
</g>
</g>
<!-- Node22&#45;&gt;Node20 -->
<g id="edge32_Node000022_Node000020" class="edge">
<title>Node22&#45;&gt;Node20</title>
<g id="a_edge32_Node000022_Node000020"><a xlink:title=" ">
<path fill="none" stroke="#63b8ff" d="M1053.26,-219.98C1080.96,-211.09 1124.61,-197.07 1155.49,-187.15"/>
<polygon fill="#63b8ff" stroke="#63b8ff" points="1156.58,-190.47 1165.03,-184.08 1154.44,-183.81 1156.58,-190.47"/>
</a>
</g>
</g>
<!-- Node22&#45;&gt;Node23 -->
<g id="edge33_Node000022_Node000023" class="edge">
<title>Node22&#45;&gt;Node23</title>
<g id="a_edge33_Node000022_Node000023"><a xlink:title=" ">
<path fill="none" stroke="#63b8ff" d="M1022.95,-219.75C1019.83,-212.57 1015.32,-202.18 1011.46,-193.27"/>
<polygon fill="#63b8ff" stroke="#63b8ff" points="1014.67,-191.87 1007.47,-184.09 1008.24,-194.66 1014.67,-191.87"/>
</a>
</g>
</g>
<!-- Node23&#45;&gt;Node9 -->
<g id="edge35_Node000023_Node000009" class="edge">
<title>Node23&#45;&gt;Node9</title>
<g id="a_edge35_Node000023_Node000009"><a xlink:title=" ">
<path fill="none" stroke="#63b8ff" d="M948.98,-166.38C909.18,-159.92 854.64,-148.37 809.75,-129 794.31,-122.34 757.67,-96.66 734.67,-80.07"/>
<polygon fill="#63b8ff" stroke="#63b8ff" points="736.46,-77.05 726.31,-74.01 732.35,-82.71 736.46,-77.05"/>
</a>
</g>
</g>
<!-- Node23&#45;&gt;Node21 -->
<g id="edge34_Node000023_Node000021" class="edge">
<title>Node23&#45;&gt;Node21</title>
<g id="a_edge34_Node000023_Node000021"><a xlink:title=" ">
<path fill="none" stroke="#63b8ff" d="M1012.74,-164.98C1020.94,-157.23 1033.25,-145.58 1043.22,-136.14"/>
<polygon fill="#63b8ff" stroke="#63b8ff" points="1045.73,-138.59 1050.59,-129.17 1040.92,-133.5 1045.73,-138.59"/>
</a>
</g>
</g>
<!-- Node24 -->
<g id="Node000024" class="node">
<title>Node24</title>
<g id="a_Node000024"><a xlink:href="ISolver_8h.html" target="_top" xlink:title="Abstract interface for numerical solvers.">
<polygon fill="white" stroke="#666666" points="1009.25,-129 950.25,-129 950.25,-110 1009.25,-110 1009.25,-129"/>
<text text-anchor="middle" x="979.75" y="-117" font-family="Helvetica,sans-Serif" font-size="10.00">ISolver.h</text>
</a>
</g>
</g>
<!-- Node23&#45;&gt;Node24 -->
<g id="edge36_Node000023_Node000024" class="edge">
<title>Node23&#45;&gt;Node24</title>
<g id="a_edge36_Node000023_Node000024"><a xlink:title=" ">
<path fill="none" stroke="#63b8ff" d="M999.78,-164.75C996.53,-157.57 991.83,-147.18 987.79,-138.27"/>
<polygon fill="#63b8ff" stroke="#63b8ff" points="990.95,-136.75 983.64,-129.09 984.57,-139.64 990.95,-136.75"/>
</a>
</g>
</g>
<!-- Node25&#45;&gt;Node2 -->
<g id="edge41_Node000025_Node000002" class="edge">
<title>Node25&#45;&gt;Node2</title>
<g id="a_edge41_Node000025_Node000002"><a xlink:title=" ">
<path fill="none" stroke="#63b8ff" d="M531.73,-228.08C483.52,-225.72 407.86,-216.52 351.75,-184 332.49,-172.84 316.65,-152.43 307,-137.75"/>
<polygon fill="#63b8ff" stroke="#63b8ff" points="309.85,-135.71 301.57,-129.1 303.92,-139.43 309.85,-135.71"/>
</a>
</g>
</g>
<!-- Node25&#45;&gt;Node9 -->
<g id="edge40_Node000025_Node000009" class="edge">
<title>Node25&#45;&gt;Node9</title>
<g id="a_edge40_Node000025_Node000009"><a xlink:title=" ">
<path fill="none" stroke="#63b8ff" d="M576.94,-219.68C575.21,-210.74 572.72,-196.48 571.75,-184 568.97,-148.45 575.89,-133.46 602.75,-110 620.57,-94.44 644.5,-83.94 665.67,-77.07"/>
<polygon fill="#63b8ff" stroke="#63b8ff" points="666.94,-80.34 675.48,-74.07 664.9,-73.65 666.94,-80.34"/>
</a>
</g>
</g>
<!-- Node25&#45;&gt;Node15 -->
<g id="edge38_Node000025_Node000015" class="edge">
<title>Node25&#45;&gt;Node15</title>
<g id="a_edge38_Node000025_Node000015"><a xlink:title=" ">
<path fill="none" stroke="#63b8ff" d="M553.84,-219.98C528.05,-211.16 487.53,-197.31 458.56,-187.41"/>
<polygon fill="#63b8ff" stroke="#63b8ff" points="459.44,-184.01 448.85,-184.08 457.17,-190.63 459.44,-184.01"/>
</a>
</g>
</g>
<!-- Node26 -->
<g id="Node000026" class="node">
<title>Node26</title>
<g id="a_Node000026"><a xlink:href="NodeIndex_8h.html" target="_top" xlink:title=" ">
<polygon fill="white" stroke="#666666" points="726.75,-184 648.75,-184 648.75,-165 726.75,-165 726.75,-184"/>
<text text-anchor="middle" x="687.75" y="-172" font-family="Helvetica,sans-Serif" font-size="10.00">NodeIndex.h</text>
</a>
</g>
</g>
<!-- Node25&#45;&gt;Node26 -->
<g id="edge39_Node000025_Node000026" class="edge">
<title>Node25&#45;&gt;Node26</title>
<g id="a_edge39_Node000025_Node000026"><a xlink:title=" ">
<path fill="none" stroke="#63b8ff" d="M596.26,-219.98C613.72,-211.5 640.76,-198.35 660.92,-188.54"/>
<polygon fill="#63b8ff" stroke="#63b8ff" points="662.45,-191.69 669.92,-184.17 659.39,-185.4 662.45,-191.69"/>
</a>
</g>
</g>
<!-- Node27 -->
<g id="Node000027" class="node">
<title>Node27</title>
<g id="a_Node000027"><a xlink:title=" ">
<polygon fill="#e0e0e0" stroke="#999999" points="630.75,-184 580.75,-184 580.75,-165 630.75,-165 630.75,-184"/>
<text text-anchor="middle" x="605.75" y="-172" font-family="Helvetica,sans-Serif" font-size="10.00">cstdint</text>
</a>
</g>
</g>
<!-- Node25&#45;&gt;Node27 -->
<g id="edge42_Node000025_Node000027" class="edge">
<title>Node25&#45;&gt;Node27</title>
<g id="a_edge42_Node000025_Node000027"><a xlink:title=" ">
<path fill="none" stroke="#63b8ff" d="M583.21,-219.75C586.86,-212.57 592.16,-202.18 596.69,-193.27"/>
<polygon fill="#63b8ff" stroke="#63b8ff" points="599.95,-194.59 601.37,-184.09 593.71,-191.41 599.95,-194.59"/>
</a>
</g>
</g>
<!-- Node28&#45;&gt;Node9 -->
<g id="edge44_Node000028_Node000009" class="edge">
<title>Node28&#45;&gt;Node9</title>
<g id="a_edge44_Node000028_Node000009"><a xlink:title=" ">
<path fill="none" stroke="#63b8ff" d="M788.55,-219.74C776.28,-194.09 740.24,-118.78 723.49,-83.78"/>
<polygon fill="#63b8ff" stroke="#63b8ff" points="726.43,-81.82 718.96,-74.31 720.12,-84.84 726.43,-81.82"/>
</a>
</g>
</g>
<!-- Node28&#45;&gt;Node15 -->
<g id="edge49_Node000028_Node000015" class="edge">
<title>Node28&#45;&gt;Node15</title>
<g id="a_edge49_Node000028_Node000015"><a xlink:title=" ">
<path fill="none" stroke="#63b8ff" d="M751.13,-222.52C688.45,-213.52 569.07,-196.37 493.09,-185.46"/>
<polygon fill="#63b8ff" stroke="#63b8ff" points="493.53,-181.99 483.13,-184.03 492.53,-188.92 493.53,-181.99"/>
</a>
</g>
</g>
<!-- Node28&#45;&gt;Node26 -->
<g id="edge48_Node000028_Node000026" class="edge">
<title>Node28&#45;&gt;Node26</title>
<g id="a_edge48_Node000028_Node000026"><a xlink:title=" ">
<path fill="none" stroke="#63b8ff" d="M775.88,-219.98C759.14,-211.54 733.25,-198.47 713.85,-188.68"/>
<polygon fill="#63b8ff" stroke="#63b8ff" points="715.43,-185.55 704.92,-184.17 712.27,-191.8 715.43,-185.55"/>
</a>
</g>
</g>
<!-- Node29 -->
<g id="Node000029" class="node">
<title>Node29</title>
<g id="a_Node000029"><a xlink:href="AABB_8h.html" target="_top" xlink:title=" ">
<polygon fill="white" stroke="#666666" points="930.75,-184 820.75,-184 820.75,-165 930.75,-165 930.75,-184"/>
<text text-anchor="middle" x="875.75" y="-172" font-family="Helvetica,sans-Serif" font-size="10.00">../bounding/AABB.h</text>
</a>
</g>
</g>
<!-- Node28&#45;&gt;Node29 -->
<g id="edge45_Node000028_Node000029" class="edge">
<title>Node28&#45;&gt;Node29</title>
<g id="a_edge45_Node000028_Node000029"><a xlink:title=" ">
<path fill="none" stroke="#63b8ff" d="M806.08,-219.98C818.83,-211.84 838.3,-199.41 853.42,-189.76"/>
<polygon fill="#63b8ff" stroke="#63b8ff" points="855.62,-192.5 862.17,-184.17 851.86,-186.6 855.62,-192.5"/>
</a>
</g>
</g>
<!-- Node29&#45;&gt;Node9 -->
<g id="edge46_Node000029_Node000009" class="edge">
<title>Node29&#45;&gt;Node9</title>
<g id="a_edge46_Node000029_Node000009"><a xlink:title=" ">
<path fill="none" stroke="#63b8ff" d="M849.96,-164.95C829.12,-157.35 799.61,-144.97 776.75,-129 757.71,-115.7 739.6,-96.05 727.92,-82.14"/>
<polygon fill="#63b8ff" stroke="#63b8ff" points="730.57,-79.85 721.53,-74.32 725.15,-84.28 730.57,-79.85"/>
</a>
</g>
</g>
<!-- Node29&#45;&gt;Node11 -->
<g id="edge47_Node000029_Node000011" class="edge">
<title>Node29&#45;&gt;Node11</title>
<g id="a_edge47_Node000029_Node000011"><a xlink:title=" ">
<path fill="none" stroke="#63b8ff" d="M875.75,-164.75C875.75,-157.8 875.75,-147.85 875.75,-139.13"/>
<polygon fill="#63b8ff" stroke="#63b8ff" points="879.25,-139.09 875.75,-129.09 872.25,-139.09 879.25,-139.09"/>
</a>
</g>
</g>
</g>
</svg>

<g id="navigator" transform="translate(0 0)" fill="#404254">
  <rect fill="#f2f5e9" fill-opacity="0.5" stroke="#606060" stroke-width=".5" x="0" y="0" width="60" height="60"/>
  <use id="zoomplus" xlink:href="#zoomPlus" x="17" y="9" onmousedown="handleZoom(evt,'in')"/>
  <use id="zoomminus" xlink:href="#zoomMin" x="42" y="9" onmousedown="handleZoom(evt,'out')"/>
  <use id="reset" xlink:href="#resetDef" x="30" y="36" onmousedown="handleReset()"/>
   <use id="arrowup" xlink:href="#arrowUp" x="0" y="0" onmousedown="handlePan(0,-1)"/>
  <use id="arrowright" xlink:href="#arrowRight" x="0" y="0" onmousedown="handlePan(1,0)"/>
  <use id="arrowdown" xlink:href="#arrowDown" x="0" y="0" onmousedown="handlePan(0,1)"/>
  <use id="arrowleft" xlink:href="#arrowLeft" x="0" y="0" onmousedown="handlePan(-1,0)"/>
</g>
<svg viewBox="0 0 15 15" width="100%" height="30px" preserveAspectRatio="xMaxYMin meet">
 <g id="arrow_out" transform="scale(0.3 0.3)">
  <a xlink:href="PhysicsSystem_8h__incl_org.svg" target="_base">
   <rect id="button" ry="5" rx="5" y="6" x="6" height="38" width="38"
        fill="#f2f5e9" fill-opacity="0.5" stroke="#606060" stroke-width="1.0"/>
   <path id="arrow"
     d="M 11.500037,31.436501 C 11.940474,20.09759 22.043105,11.32322 32.158766,21.979434 L 37.068811,17.246167 C 37.068811,17.246167 37.088388,32 37.088388,32 L 22.160133,31.978069 C 22.160133,31.978069 26.997745,27.140456 26.997745,27.140456 C 18.528582,18.264221 13.291696,25.230495 11.500037,31.436501 z"
     style="fill:#404040;"/>
  </a>
 </g>
</svg>

<style type='text/css'>
<![CDATA[
[data-mouse-over-selected='false'] { opacity: 0.7; }
[data-mouse-over-selected='true']  { opacity: 1.0; }
]]>
</style>
<script type="application/ecmascript"><![CDATA[
document.addEventListener('DOMContentLoaded', (event) => {
  highlightEdges();
  highlightAdjacentNodes();
});
]]></script>
</svg>
