<?xml version="1.0" encoding="UTF-8" standalone="no"?>
<!DOCTYPE svg PUBLIC "-//W3C//DTD SVG 1.1//EN"
 "http://www.w3.org/Graphics/SVG/1.1/DTD/svg11.dtd">
<!-- Generated by graphviz version 2.43.0 (0)
 -->
<!-- Title: TEST Pages: 1 -->
<svg width="375pt" height="206pt"
 viewBox="0.00 0.00 375.00 206.00" xmlns="http://www.w3.org/2000/svg" xmlns:xlink="http://www.w3.org/1999/xlink">

<svg id="main" version="1.1" xmlns="http://www.w3.org/2000/svg" xmlns:xlink="http://www.w3.org/1999/xlink" xml:space="preserve" onload="init(evt)">
<style type="text/css"><![CDATA[
.node, .edge {opacity: 0.7;}
.node.selected, .edge.selected {opacity: 1;}
.edge:hover path { stroke: red; }
.edge:hover polygon { stroke: red; fill: red; }
]]></style>
<script type="application/ecmascript" xlink:href="svg.min.js"/>
<svg id="graph" class="graph">
<g id="graph0" class="graph" transform="scale(1 1) rotate(0) translate(4 202)">
<title>TEST</title>
<!-- Node1 -->
<g id="Node000001" class="node">
<title>Node1</title>
<g id="a_Node000001"><a xlink:title=" ">
<polygon fill="#999999" stroke="#666666" points="41,-96.5 0,-96.5 0,-77.5 41,-77.5 41,-96.5"/>
<text text-anchor="middle" x="20.5" y="-84.5" font-family="Helvetica,sans-Serif" font-size="10.00">TEST</text>
</a>
</g>
</g>
<!-- Node2 -->
<g id="Node000002" class="node">
<title>Node2</title>
<g id="a_Node000002"><a xlink:href="classPhysics_1_1PhysicsSystem.html#a350570f0421c2bc6e762027b04c9775e" target="_top" xlink:title=" ">
<polygon fill="white" stroke="#666666" points="210,-174 77,-174 77,-144 210,-144 210,-174"/>
<text text-anchor="start" x="85" y="-162" font-family="Helvetica,sans-Serif" font-size="10.00">Physics::PhysicsSystem</text>
<text text-anchor="middle" x="143.5" y="-151" font-family="Helvetica,sans-Serif" font-size="10.00">::addBody</text>
</a>
</g>
</g>
<!-- Node1&#45;&gt;Node2 -->
<g id="edge1_Node000001_Node000002" class="edge">
<title>Node1&#45;&gt;Node2</title>
<g id="a_edge1_Node000001_Node000002"><a xlink:title=" ">
<path fill="none" stroke="#63b8ff" d="M30.5,-96.65C40.85,-107.27 58.78,-124.27 77,-135 79.82,-136.66 82.77,-138.24 85.8,-139.73"/>
<polygon fill="#63b8ff" stroke="#63b8ff" points="84.49,-142.98 95.04,-143.95 87.4,-136.61 84.49,-142.98"/>
</a>
</g>
</g>
<!-- Node5 -->
<g id="Node000005" class="node">
<title>Node5</title>
<g id="a_Node000005"><a xlink:href="classPhysics_1_1PhysicsBody.html#ac4112265c85a99f20fb69008db8e8754" target="_top" xlink:title=" ">
<polygon fill="white" stroke="#666666" points="204,-126 83,-126 83,-96 204,-96 204,-126"/>
<text text-anchor="start" x="91" y="-114" font-family="Helvetica,sans-Serif" font-size="10.00">Physics::PhysicsBody</text>
<text text-anchor="middle" x="143.5" y="-103" font-family="Helvetica,sans-Serif" font-size="10.00">::getPosition</text>
</a>
</g>
</g>
<!-- Node1&#45;&gt;Node5 -->
<g id="edge4_Node000001_Node000005" class="edge">
<title>Node1&#45;&gt;Node5</title>
<g id="a_edge4_Node000001_Node000005"><a xlink:title=" ">
<path fill="none" stroke="#63b8ff" d="M41.21,-90.91C50.16,-92.68 61.33,-94.9 72.96,-97.21"/>
<polygon fill="#63b8ff" stroke="#63b8ff" points="72.31,-100.65 82.8,-99.16 73.67,-93.78 72.31,-100.65"/>
</a>
</g>
</g>
<!-- Node6 -->
<g id="Node000006" class="node">
<title>Node6</title>
<g id="a_Node000006"><a xlink:href="classPhysics_1_1PhysicsBody.html#a1aedc823891235ff429c55e0740ab423" target="_top" xlink:title=" ">
<polygon fill="white" stroke="#666666" points="204,-78 83,-78 83,-48 204,-48 204,-78"/>
<text text-anchor="start" x="91" y="-66" font-family="Helvetica,sans-Serif" font-size="10.00">Physics::PhysicsBody</text>
<text text-anchor="middle" x="143.5" y="-55" font-family="Helvetica,sans-Serif" font-size="10.00">::setPosition</text>
</a>
</g>
</g>
<!-- Node1&#45;&gt;Node6 -->
<g id="edge5_Node000001_Node000006" class="edge">
<title>Node1&#45;&gt;Node6</title>
<g id="a_edge5_Node000001_Node000006"><a xlink:title=" ">
<path fill="none" stroke="#63b8ff" d="M41.21,-83.09C50.16,-81.32 61.33,-79.1 72.96,-76.79"/>
<polygon fill="#63b8ff" stroke="#63b8ff" points="73.67,-80.22 82.8,-74.84 72.31,-73.35 73.67,-80.22"/>
</a>
</g>
</g>
<!-- Node7 -->
<g id="Node000007" class="node">
<title>Node7</title>
<g id="a_Node000007"><a xlink:href="classPhysics_1_1PhysicsSystem.html#a69ab6a8d4580b0a7c250c45421c49d28" target="_top" xlink:title=" ">
<polygon fill="white" stroke="#666666" points="210,-30 77,-30 77,0 210,0 210,-30"/>
<text text-anchor="start" x="85" y="-18" font-family="Helvetica,sans-Serif" font-size="10.00">Physics::PhysicsSystem</text>
<text text-anchor="middle" x="143.5" y="-7" font-family="Helvetica,sans-Serif" font-size="10.00">::step</text>
</a>
</g>
</g>
<!-- Node1&#45;&gt;Node7 -->
<g id="edge6_Node000001_Node000007" class="edge">
<title>Node1&#45;&gt;Node7</title>
<g id="a_edge6_Node000001_Node000007"><a xlink:title=" ">
<path fill="none" stroke="#63b8ff" d="M30.5,-77.35C40.85,-66.73 58.78,-49.73 77,-39 79.82,-37.34 82.77,-35.76 85.8,-34.27"/>
<polygon fill="#63b8ff" stroke="#63b8ff" points="87.4,-37.39 95.04,-30.05 84.49,-31.02 87.4,-37.39"/>
</a>
</g>
</g>
<!-- Node3 -->
<g id="Node000003" class="node">
<title>Node3</title>
<g id="a_Node000003"><a xlink:href="classPhysics_1_1PhysicsBody.html#a0c44730bee1088e28f85b4579f506c7d" target="_top" xlink:title=" ">
<polygon fill="white" stroke="#666666" points="367,-198 246,-198 246,-168 367,-168 367,-198"/>
<text text-anchor="start" x="254" y="-186" font-family="Helvetica,sans-Serif" font-size="10.00">Physics::PhysicsBody</text>
<text text-anchor="middle" x="306.5" y="-175" font-family="Helvetica,sans-Serif" font-size="10.00">::getMass</text>
</a>
</g>
</g>
<!-- Node2&#45;&gt;Node3 -->
<g id="edge2_Node000002_Node000003" class="edge">
<title>Node2&#45;&gt;Node3</title>
<g id="a_edge2_Node000002_Node000003"><a xlink:title=" ">
<path fill="none" stroke="#63b8ff" d="M210.45,-168.83C218.78,-170.07 227.33,-171.35 235.73,-172.6"/>
<polygon fill="#63b8ff" stroke="#63b8ff" points="235.45,-176.1 245.86,-174.11 236.48,-169.17 235.45,-176.1"/>
</a>
</g>
</g>
<!-- Node4 -->
<g id="Node000004" class="node">
<title>Node4</title>
<g id="a_Node000004"><a xlink:href="classPhysics_1_1PhysicsBody.html#acb13769923f966df84e223a540ace45d" target="_top" xlink:title=" ">
<polygon fill="white" stroke="#666666" points="367,-150 246,-150 246,-120 367,-120 367,-150"/>
<text text-anchor="start" x="254" y="-138" font-family="Helvetica,sans-Serif" font-size="10.00">Physics::PhysicsBody</text>
<text text-anchor="middle" x="306.5" y="-127" font-family="Helvetica,sans-Serif" font-size="10.00">::setForce</text>
</a>
</g>
</g>
<!-- Node2&#45;&gt;Node4 -->
<g id="edge3_Node000002_Node000004" class="edge">
<title>Node2&#45;&gt;Node4</title>
<g id="a_edge3_Node000002_Node000004"><a xlink:title=" ">
<path fill="none" stroke="#63b8ff" d="M210.45,-149.17C218.78,-147.93 227.33,-146.65 235.73,-145.4"/>
<polygon fill="#63b8ff" stroke="#63b8ff" points="236.48,-148.83 245.86,-143.89 235.45,-141.9 236.48,-148.83"/>
</a>
</g>
</g>
</g>
</svg>
</svg>

<style type='text/css'>
<![CDATA[
[data-mouse-over-selected='false'] { opacity: 0.7; }
[data-mouse-over-selected='true']  { opacity: 1.0; }
]]>
</style>
<script type="application/ecmascript"><![CDATA[
document.addEventListener('DOMContentLoaded', (event) => {
  highlightEdges();
  highlightAdjacentNodes();
});
]]></script>
</svg>
