<?xml version="1.0" encoding="UTF-8" standalone="no"?>
<!DOCTYPE svg PUBLIC "-//W3C//DTD SVG 1.1//EN"
 "http://www.w3.org/Graphics/SVG/1.1/DTD/svg11.dtd">
<!-- Generated by graphviz version 2.43.0 (0)
 -->
<!-- Title: TEST Pages: 1 -->
<!--zoomable 594 -->

<svg id="main" version="1.1" xmlns="http://www.w3.org/2000/svg" xmlns:xlink="http://www.w3.org/1999/xlink" xml:space="preserve" onload="init(evt)">
<style type="text/css"><![CDATA[
.node, .edge {opacity: 0.7;}
.node.selected, .edge.selected {opacity: 1;}
.edge:hover path { stroke: red; }
.edge:hover polygon { stroke: red; fill: red; }
]]></style>

<defs>
  <circle id="rim" cx="0" cy="0" r="7"/>
  <circle id="rim2" cx="0" cy="0" r="3.5"/>
  <g id="zoomPlus">
    <use xlink:href="#rim" fill="#404040"><set attributeName="fill" to="#808080" begin="zoomplus.mouseover" end="zoomplus.mouseout"/></use>
    <path d="M-4,0h8M0,-4v8" fill="none" stroke="white" stroke-width="1.5" pointer-events="none"/>
  </g>
  <g id="zoomMin">
    <use xlink:href="#rim" fill="#404040"><set attributeName="fill" to="#808080" begin="zoomminus.mouseover" end="zoomminus.mouseout"/></use>
    <path d="M-4,0h8" fill="none" stroke="white" stroke-width="1.5" pointer-events="none"/>
  </g>
  <g id="arrowUp" transform="translate(30 24)">
    <use xlink:href="#rim"/>
    <path pointer-events="none" fill="none" stroke="white" stroke-width="1.5" d="M0,-3.0v7 M-2.5,-0.5L0,-3.0L2.5,-0.5"/>
  </g>
  <g id="arrowRight" transform="rotate(90) translate(36 -43)">
    <use xlink:href="#rim"/>
    <path pointer-events="none" fill="none" stroke="white" stroke-width="1.5" d="M0,-3.0v7 M-2.5,-0.5L0,-3.0L2.5,-0.5"/>
  </g>
  <g id="arrowDown" transform="rotate(180) translate(-30 -48)">
    <use xlink:href="#rim"/>
    <path pointer-events="none" fill="none" stroke="white" stroke-width="1.5" d="M0,-3.0v7 M-2.5,-0.5L0,-3.0L2.5,-0.5"/>
  </g>
  <g id="arrowLeft" transform="rotate(270) translate(-36 17)">
    <use xlink:href="#rim"/>
    <path pointer-events="none" fill="none" stroke="white" stroke-width="1.5" d="M0,-3.0v7 M-2.5,-0.5L0,-3.0L2.5,-0.5"/>
  </g>
  <g id="resetDef">
    <use xlink:href="#rim2" fill="#404040"><set attributeName="fill" to="#808080" begin="reset.mouseover" end="reset.mouseout"/></use>
  </g>
</defs>
<script type="application/ecmascript">
var viewWidth = 1300;
var viewHeight = 594;
var sectionId = 'dynsection-14';
</script>
<script type="application/ecmascript" xlink:href="svg.min.js"/>
<svg id="graph" class="graph">
<g id="viewport">
<title>TEST</title>
<!-- Node1 -->
<g id="Node000001" class="node">
<title>Node1</title>
<g id="a_Node000001"><a xlink:title=" ">
<polygon fill="#999999" stroke="#666666" points="41,-508.5 0,-508.5 0,-489.5 41,-489.5 41,-508.5"/>
<text text-anchor="middle" x="20.5" y="-496.5" font-family="Helvetica,sans-Serif" font-size="10.00">TEST</text>
</a>
</g>
</g>
<!-- Node2 -->
<g id="Node000002" class="node">
<title>Node2</title>
<g id="a_Node000002"><a xlink:href="classPhysics_1_1PhysicsBody.html#a5589f3d686ebb04f47fa42376b9939b5" target="_top" xlink:title=" ">
<polygon fill="white" stroke="#666666" points="444,-514 316,-514 316,-484 444,-484 444,-514"/>
<text text-anchor="start" x="324" y="-502" font-family="Helvetica,sans-Serif" font-size="10.00">Physics::PhysicsBody</text>
<text text-anchor="middle" x="380" y="-491" font-family="Helvetica,sans-Serif" font-size="10.00">::getThermalProperties</text>
</a>
</g>
</g>
<!-- Node1&#45;&gt;Node2 -->
<g id="edge1_Node000001_Node000002" class="edge">
<title>Node1&#45;&gt;Node2</title>
<g id="a_edge1_Node000001_Node000002"><a xlink:title=" ">
<path fill="none" stroke="#63b8ff" d="M41.23,-499C90.69,-499 221.99,-499 305.56,-499"/>
<polygon fill="#63b8ff" stroke="#63b8ff" points="305.76,-502.5 315.76,-499 305.76,-495.5 305.76,-502.5"/>
</a>
</g>
</g>
<!-- Node3 -->
<g id="Node000003" class="node">
<title>Node3</title>
<g id="a_Node000003"><a xlink:href="classPhysics_1_1RigidBody.html#a4e7d7e2da6c0011c98745c15903a2b15" target="_top" xlink:title=" ">
<polygon fill="white" stroke="#666666" points="250,-346 77,-346 77,-316 250,-316 250,-346"/>
<text text-anchor="start" x="85" y="-334" font-family="Helvetica,sans-Serif" font-size="10.00">Physics::RigidBody</text>
<text text-anchor="middle" x="163.5" y="-323" font-family="Helvetica,sans-Serif" font-size="10.00">::resolveCollisionWithPointMass</text>
</a>
</g>
</g>
<!-- Node1&#45;&gt;Node3 -->
<g id="edge2_Node000001_Node000003" class="edge">
<title>Node1&#45;&gt;Node3</title>
<g id="a_edge2_Node000001_Node000003"><a xlink:title=" ">
<path fill="none" stroke="#63b8ff" d="M29.48,-489.49C51.2,-463.61 111.82,-391.39 143.17,-354.03"/>
<polygon fill="#63b8ff" stroke="#63b8ff" points="146,-356.1 149.75,-346.19 140.64,-351.6 146,-356.1"/>
</a>
</g>
</g>
<!-- Node22 -->
<g id="Node000022" class="node">
<title>Node22</title>
<g id="a_Node000022"><a xlink:href="classPhysics_1_1PointMass.html#ace083146035c884b09da82466fdfbf86" target="_top" xlink:title=" ">
<polygon fill="white" stroke="#666666" points="439.5,-562 320.5,-562 320.5,-532 439.5,-532 439.5,-562"/>
<text text-anchor="start" x="328.5" y="-550" font-family="Helvetica,sans-Serif" font-size="10.00">Physics::PointMass</text>
<text text-anchor="middle" x="380" y="-539" font-family="Helvetica,sans-Serif" font-size="10.00">::setThermalProperty</text>
</a>
</g>
</g>
<!-- Node1&#45;&gt;Node22 -->
<g id="edge32_Node000001_Node000022" class="edge">
<title>Node1&#45;&gt;Node22</title>
<g id="a_edge32_Node000001_Node000022"><a xlink:title=" ">
<path fill="none" stroke="#63b8ff" d="M41.14,-504.64C51.69,-507.5 64.97,-510.82 77,-513 156.54,-527.44 249.05,-536.78 310.51,-541.94"/>
<polygon fill="#63b8ff" stroke="#63b8ff" points="310.23,-545.43 320.48,-542.77 310.81,-538.45 310.23,-545.43"/>
</a>
</g>
</g>
<!-- Node23 -->
<g id="Node000023" class="node">
<title>Node23</title>
<g id="a_Node000023"><a xlink:href="classPhysics_1_1PhysicsBody.html#ad76815a1ef3d53f6c2901afa5277554f" target="_top" xlink:title=" ">
<polygon fill="white" stroke="#666666" points="657,-562 536,-562 536,-532 657,-532 657,-562"/>
<text text-anchor="start" x="544" y="-550" font-family="Helvetica,sans-Serif" font-size="10.00">Physics::PhysicsBody</text>
<text text-anchor="middle" x="596.5" y="-539" font-family="Helvetica,sans-Serif" font-size="10.00">::setThermalProperty</text>
</a>
</g>
</g>
<!-- Node1&#45;&gt;Node23 -->
<g id="edge31_Node000001_Node000023" class="edge">
<title>Node1&#45;&gt;Node23</title>
<g id="a_edge31_Node000001_Node000023"><a xlink:title=" ">
<path fill="none" stroke="#63b8ff" d="M32.09,-508.7C42.65,-517.8 59.75,-531.02 77,-538 241.12,-604.42 297.79,-588.24 474,-571 490.99,-569.34 509.14,-566.4 526.08,-563.13"/>
<polygon fill="#63b8ff" stroke="#63b8ff" points="526.77,-566.56 535.9,-561.18 525.41,-559.7 526.77,-566.56"/>
</a>
</g>
</g>
<!-- Node24 -->
<g id="Node000024" class="node">
<title>Node24</title>
<g id="a_Node000024"><a xlink:href="classPhysics_1_1PhysicsBody.html#a9c75c65ff08d82aac980c01ec89c6991" target="_top" xlink:title=" ">
<polygon fill="white" stroke="#666666" points="224,-298 103,-298 103,-268 224,-268 224,-298"/>
<text text-anchor="start" x="111" y="-286" font-family="Helvetica,sans-Serif" font-size="10.00">Physics::PhysicsBody</text>
<text text-anchor="middle" x="163.5" y="-275" font-family="Helvetica,sans-Serif" font-size="10.00">::setVelocity</text>
</a>
</g>
</g>
<!-- Node1&#45;&gt;Node24 -->
<g id="edge33_Node000001_Node000024" class="edge">
<title>Node1&#45;&gt;Node24</title>
<g id="a_edge33_Node000001_Node000024"><a xlink:title=" ">
<path fill="none" stroke="#63b8ff" d="M21.24,-489.42C20.92,-458.33 24.29,-359.3 77,-307 81.67,-302.37 87.15,-298.61 93.06,-295.57"/>
<polygon fill="#63b8ff" stroke="#63b8ff" points="94.88,-298.59 102.62,-291.36 92.05,-292.19 94.88,-298.59"/>
</a>
</g>
</g>
<!-- Node3&#45;&gt;Node2 -->
<g id="edge24_Node000003_Node000002" class="edge">
<title>Node3&#45;&gt;Node2</title>
<g id="a_edge24_Node000003_Node000002"><a xlink:title=" ">
<path fill="none" stroke="#63b8ff" d="M172.97,-346.3C190.2,-375.94 232.28,-441.23 286,-475 292.21,-478.91 299.03,-482.18 306.08,-484.92"/>
<polygon fill="#63b8ff" stroke="#63b8ff" points="305.18,-488.31 315.78,-488.34 307.51,-481.71 305.18,-488.31"/>
</a>
</g>
</g>
<!-- Node4 -->
<g id="Node000004" class="node">
<title>Node4</title>
<g id="a_Node000004"><a xlink:href="namespacePhysics_1_1Thermal.html#a4bee0e40f8969cbb2cf1ec826d54834a" target="_top" xlink:title=" ">
<polygon fill="white" stroke="#666666" points="474,-92 286,-92 286,-62 474,-62 474,-92"/>
<text text-anchor="start" x="294" y="-80" font-family="Helvetica,sans-Serif" font-size="10.00">Physics::Thermal::applyConductive</text>
<text text-anchor="middle" x="380" y="-69" font-family="Helvetica,sans-Serif" font-size="10.00">Exchange</text>
</a>
</g>
</g>
<!-- Node3&#45;&gt;Node4 -->
<g id="edge3_Node000003_Node000004" class="edge">
<title>Node3&#45;&gt;Node4</title>
<g id="a_edge3_Node000003_Node000004"><a xlink:title=" ">
<path fill="none" stroke="#63b8ff" d="M239.48,-315.92C243.34,-313.38 246.89,-310.42 250,-307 311.01,-239.81 225.96,-174.06 286,-106 288.69,-102.95 291.7,-100.21 294.94,-97.76"/>
<polygon fill="#63b8ff" stroke="#63b8ff" points="296.95,-100.63 303.43,-92.24 293.13,-94.76 296.95,-100.63"/>
</a>
</g>
</g>
<!-- Node5 -->
<g id="Node000005" class="node">
<title>Node5</title>
<g id="a_Node000005"><a xlink:href="namespacePhysics_1_1Thermal.html#a9206d38ee4d0cbd18666c936706e8611" target="_top" xlink:title=" ">
<polygon fill="white" stroke="#666666" points="683,-154 510,-154 510,-124 683,-124 683,-154"/>
<text text-anchor="start" x="518" y="-142" font-family="Helvetica,sans-Serif" font-size="10.00">Physics::Thermal::applyThermal</text>
<text text-anchor="middle" x="596.5" y="-131" font-family="Helvetica,sans-Serif" font-size="10.00">Energy</text>
</a>
</g>
</g>
<!-- Node3&#45;&gt;Node5 -->
<g id="edge19_Node000003_Node000005" class="edge">
<title>Node3&#45;&gt;Node5</title>
<g id="a_edge19_Node000003_Node000005"><a xlink:title=" ">
<path fill="none" stroke="#63b8ff" d="M239.35,-315.79C243.23,-313.28 246.83,-310.37 250,-307 302.28,-251.34 226.62,-187.01 286,-139 317.81,-113.29 421.24,-118.16 499.86,-126.33"/>
<polygon fill="#63b8ff" stroke="#63b8ff" points="499.49,-129.81 509.8,-127.39 500.23,-122.85 499.49,-129.81"/>
</a>
</g>
</g>
<!-- Node14 -->
<g id="Node000014" class="node">
<title>Node14</title>
<g id="a_Node000014"><a xlink:href="classPhysics_1_1PointMass.html#aad903165a31093747ecd85f644a84bd3" target="_top" xlink:title=" ">
<polygon fill="white" stroke="#666666" points="435,-418 325,-418 325,-388 435,-388 435,-418"/>
<text text-anchor="start" x="333" y="-406" font-family="Helvetica,sans-Serif" font-size="10.00">Physics::PointMass</text>
<text text-anchor="middle" x="380" y="-395" font-family="Helvetica,sans-Serif" font-size="10.00">::applyImpulse</text>
</a>
</g>
</g>
<!-- Node3&#45;&gt;Node14 -->
<g id="edge18_Node000003_Node000014" class="edge">
<title>Node3&#45;&gt;Node14</title>
<g id="a_edge18_Node000003_Node000014"><a xlink:title=" ">
<path fill="none" stroke="#63b8ff" d="M199.17,-346.02C223.25,-356.13 256.24,-369.32 286,-379 295.28,-382.02 305.17,-384.91 314.91,-387.57"/>
<polygon fill="#63b8ff" stroke="#63b8ff" points="314.01,-390.96 324.58,-390.16 315.82,-384.19 314.01,-390.96"/>
</a>
</g>
</g>
<!-- Node15 -->
<g id="Node000015" class="node">
<title>Node15</title>
<g id="a_Node000015"><a xlink:href="classPhysics_1_1PhysicsBody.html#a6fb25efd74ad88f01f5c481bd516bad8" target="_top" xlink:title=" ">
<polygon fill="white" stroke="#666666" points="440.5,-370 319.5,-370 319.5,-340 440.5,-340 440.5,-370"/>
<text text-anchor="start" x="327.5" y="-358" font-family="Helvetica,sans-Serif" font-size="10.00">Physics::PhysicsBody</text>
<text text-anchor="middle" x="380" y="-347" font-family="Helvetica,sans-Serif" font-size="10.00">::getAllForces</text>
</a>
</g>
</g>
<!-- Node3&#45;&gt;Node15 -->
<g id="edge20_Node000003_Node000015" class="edge">
<title>Node3&#45;&gt;Node15</title>
<g id="a_edge20_Node000003_Node000015"><a xlink:title=" ">
<path fill="none" stroke="#63b8ff" d="M250.2,-340.59C269.88,-342.79 290.58,-345.11 309.48,-347.22"/>
<polygon fill="#63b8ff" stroke="#63b8ff" points="309.16,-350.71 319.48,-348.34 309.93,-343.75 309.16,-350.71"/>
</a>
</g>
</g>
<!-- Node16 -->
<g id="Node000016" class="node">
<title>Node16</title>
<g id="a_Node000016"><a xlink:href="classPhysics_1_1PhysicsBody.html#a04c6bf672135128ea6ebc6028c1a8a97" target="_top" xlink:title=" ">
<polygon fill="white" stroke="#666666" points="440.5,-322 319.5,-322 319.5,-292 440.5,-292 440.5,-322"/>
<text text-anchor="start" x="327.5" y="-310" font-family="Helvetica,sans-Serif" font-size="10.00">Physics::PhysicsBody</text>
<text text-anchor="middle" x="380" y="-299" font-family="Helvetica,sans-Serif" font-size="10.00">::getMass</text>
</a>
</g>
</g>
<!-- Node3&#45;&gt;Node16 -->
<g id="edge21_Node000003_Node000016" class="edge">
<title>Node3&#45;&gt;Node16</title>
<g id="a_edge21_Node000003_Node000016"><a xlink:title=" ">
<path fill="none" stroke="#63b8ff" d="M250.2,-321.41C269.88,-319.21 290.58,-316.89 309.48,-314.78"/>
<polygon fill="#63b8ff" stroke="#63b8ff" points="309.93,-318.25 319.48,-313.66 309.16,-311.29 309.93,-318.25"/>
</a>
</g>
</g>
<!-- Node17 -->
<g id="Node000017" class="node">
<title>Node17</title>
<g id="a_Node000017"><a xlink:href="classPhysics_1_1PhysicsBody.html#ac4112265c85a99f20fb69008db8e8754" target="_top" xlink:title=" ">
<polygon fill="white" stroke="#666666" points="440.5,-274 319.5,-274 319.5,-244 440.5,-244 440.5,-274"/>
<text text-anchor="start" x="327.5" y="-262" font-family="Helvetica,sans-Serif" font-size="10.00">Physics::PhysicsBody</text>
<text text-anchor="middle" x="380" y="-251" font-family="Helvetica,sans-Serif" font-size="10.00">::getPosition</text>
</a>
</g>
</g>
<!-- Node3&#45;&gt;Node17 -->
<g id="edge22_Node000003_Node000017" class="edge">
<title>Node3&#45;&gt;Node17</title>
<g id="a_edge22_Node000003_Node000017"><a xlink:title=" ">
<path fill="none" stroke="#63b8ff" d="M226.97,-315.95C234.86,-313.33 242.72,-310.35 250,-307 267.47,-298.97 268.44,-290.85 286,-283 293.55,-279.63 301.66,-276.66 309.84,-274.07"/>
<polygon fill="#63b8ff" stroke="#63b8ff" points="310.86,-277.41 319.44,-271.19 308.86,-270.71 310.86,-277.41"/>
</a>
</g>
</g>
<!-- Node18 -->
<g id="Node000018" class="node">
<title>Node18</title>
<g id="a_Node000018"><a xlink:href="classPhysics_1_1PhysicsBody.html#a4a3f602f251373d49eaaefeacaf3cb5b" target="_top" xlink:title=" ">
<polygon fill="white" stroke="#666666" points="440.5,-226 319.5,-226 319.5,-196 440.5,-196 440.5,-226"/>
<text text-anchor="start" x="327.5" y="-214" font-family="Helvetica,sans-Serif" font-size="10.00">Physics::PhysicsBody</text>
<text text-anchor="middle" x="380" y="-203" font-family="Helvetica,sans-Serif" font-size="10.00">::getSurfaceArea</text>
</a>
</g>
</g>
<!-- Node3&#45;&gt;Node18 -->
<g id="edge23_Node000003_Node000018" class="edge">
<title>Node3&#45;&gt;Node18</title>
<g id="a_edge23_Node000003_Node000018"><a xlink:title=" ">
<path fill="none" stroke="#63b8ff" d="M236.34,-315.91C241.22,-313.38 245.84,-310.44 250,-307 277.58,-284.22 258.18,-257.49 286,-235 292.97,-229.36 301.12,-225.04 309.64,-221.72"/>
<polygon fill="#63b8ff" stroke="#63b8ff" points="311.05,-224.93 319.37,-218.38 308.78,-218.31 311.05,-224.93"/>
</a>
</g>
</g>
<!-- Node19 -->
<g id="Node000019" class="node">
<title>Node19</title>
<g id="a_Node000019"><a xlink:href="classPhysics_1_1PhysicsBody.html#a4bbf491e193cf2e29954c38a92865e29" target="_top" xlink:title=" ">
<polygon fill="white" stroke="#666666" points="440.5,-178 319.5,-178 319.5,-148 440.5,-148 440.5,-178"/>
<text text-anchor="start" x="327.5" y="-166" font-family="Helvetica,sans-Serif" font-size="10.00">Physics::PhysicsBody</text>
<text text-anchor="middle" x="380" y="-155" font-family="Helvetica,sans-Serif" font-size="10.00">::getVelocity</text>
</a>
</g>
</g>
<!-- Node3&#45;&gt;Node19 -->
<g id="edge25_Node000003_Node000019" class="edge">
<title>Node3&#45;&gt;Node19</title>
<g id="a_edge25_Node000003_Node000019"><a xlink:title=" ">
<path fill="none" stroke="#63b8ff" d="M238.24,-315.97C242.5,-313.43 246.48,-310.46 250,-307 289.72,-267.98 245.87,-225.6 286,-187 292.71,-180.55 300.91,-175.77 309.64,-172.24"/>
<polygon fill="#63b8ff" stroke="#63b8ff" points="310.98,-175.48 319.27,-168.88 308.67,-168.87 310.98,-175.48"/>
</a>
</g>
</g>
<!-- Node20 -->
<g id="Node000020" class="node">
<title>Node20</title>
<g id="a_Node000020"><a xlink:href="classPhysics_1_1PhysicsBody.html#acb13769923f966df84e223a540ace45d" target="_top" xlink:title=" ">
<polygon fill="white" stroke="#666666" points="440.5,-44 319.5,-44 319.5,-14 440.5,-14 440.5,-44"/>
<text text-anchor="start" x="327.5" y="-32" font-family="Helvetica,sans-Serif" font-size="10.00">Physics::PhysicsBody</text>
<text text-anchor="middle" x="380" y="-21" font-family="Helvetica,sans-Serif" font-size="10.00">::setForce</text>
</a>
</g>
</g>
<!-- Node3&#45;&gt;Node20 -->
<g id="edge26_Node000003_Node000020" class="edge">
<title>Node3&#45;&gt;Node20</title>
<g id="a_edge26_Node000003_Node000020"><a xlink:title=" ">
<path fill="none" stroke="#63b8ff" d="M240.01,-315.79C243.68,-313.27 247.06,-310.36 250,-307 325.09,-221.2 210.01,-138 286,-53 292.43,-45.8 300.71,-40.63 309.68,-36.94"/>
<polygon fill="#63b8ff" stroke="#63b8ff" points="310.93,-40.21 319.21,-33.61 308.62,-33.61 310.93,-40.21"/>
</a>
</g>
</g>
<!-- Node21 -->
<g id="Node000021" class="node">
<title>Node21</title>
<g id="a_Node000021"><a xlink:href="classPhysics_1_1PhysicsBody.html#a1aedc823891235ff429c55e0740ab423" target="_top" xlink:title=" ">
<polygon fill="white" stroke="#666666" points="440.5,-466 319.5,-466 319.5,-436 440.5,-436 440.5,-466"/>
<text text-anchor="start" x="327.5" y="-454" font-family="Helvetica,sans-Serif" font-size="10.00">Physics::PhysicsBody</text>
<text text-anchor="middle" x="380" y="-443" font-family="Helvetica,sans-Serif" font-size="10.00">::setPosition</text>
</a>
</g>
</g>
<!-- Node3&#45;&gt;Node21 -->
<g id="edge27_Node000003_Node000021" class="edge">
<title>Node3&#45;&gt;Node21</title>
<g id="a_edge27_Node000003_Node000021"><a xlink:title=" ">
<path fill="none" stroke="#63b8ff" d="M179.16,-346.03C200.67,-367.2 242.89,-405.61 286,-427 293.41,-430.68 301.44,-433.83 309.57,-436.52"/>
<polygon fill="#63b8ff" stroke="#63b8ff" points="308.54,-439.87 319.12,-439.48 310.6,-433.18 308.54,-439.87"/>
</a>
</g>
</g>
<!-- Node3&#45;&gt;Node22 -->
<g id="edge28_Node000003_Node000022" class="edge">
<title>Node3&#45;&gt;Node22</title>
<g id="a_edge28_Node000003_Node000022"><a xlink:title=" ">
<path fill="none" stroke="#63b8ff" d="M169.64,-346.22C182.8,-382.75 221.28,-475.85 286,-523 293.42,-528.41 301.96,-532.6 310.78,-535.85"/>
<polygon fill="#63b8ff" stroke="#63b8ff" points="309.84,-539.22 320.43,-539.02 312.02,-532.57 309.84,-539.22"/>
</a>
</g>
</g>
<!-- Node4&#45;&gt;Node5 -->
<g id="edge4_Node000004_Node000005" class="edge">
<title>Node4&#45;&gt;Node5</title>
<g id="a_edge4_Node000004_Node000005"><a xlink:title=" ">
<path fill="none" stroke="#63b8ff" d="M432.92,-92.01C463.26,-100.78 501.73,-111.9 533.64,-121.12"/>
<polygon fill="#63b8ff" stroke="#63b8ff" points="532.73,-124.5 543.31,-123.91 534.68,-117.78 532.73,-124.5"/>
</a>
</g>
</g>
<!-- Node10 -->
<g id="Node000010" class="node">
<title>Node10</title>
<g id="a_Node000010"><a xlink:href="namespacePhysics_1_1Thermal.html#a7eaf74772f10f3ceb9740038659283ab" target="_top" xlink:title=" ">
<polygon fill="white" stroke="#666666" points="889,-108.5 719,-108.5 719,-89.5 889,-89.5 889,-108.5"/>
<text text-anchor="middle" x="804" y="-96.5" font-family="Helvetica,sans-Serif" font-size="10.00">Physics::Thermal::heatCapacity</text>
</a>
</g>
</g>
<!-- Node4&#45;&gt;Node10 -->
<g id="edge17_Node000004_Node000010" class="edge">
<title>Node4&#45;&gt;Node10</title>
<g id="a_edge17_Node000004_Node000010"><a xlink:title=" ">
<path fill="none" stroke="#63b8ff" d="M474.13,-81.86C543.77,-85.49 638.62,-90.43 708.57,-94.08"/>
<polygon fill="#63b8ff" stroke="#63b8ff" points="708.53,-97.58 718.7,-94.61 708.9,-90.59 708.53,-97.58"/>
</a>
</g>
</g>
<!-- Node12 -->
<g id="Node000012" class="node">
<title>Node12</title>
<g id="a_Node000012"><a xlink:href="namespacePhysics_1_1Thermal.html#a0ce41054a8cc415549dd5d4bd925d61c" target="_top" xlink:title=" ">
<polygon fill="white" stroke="#666666" points="676,-30 517,-30 517,0 676,0 676,-30"/>
<text text-anchor="start" x="525" y="-18" font-family="Helvetica,sans-Serif" font-size="10.00">Physics::Thermal::conductive</text>
<text text-anchor="middle" x="596.5" y="-7" font-family="Helvetica,sans-Serif" font-size="10.00">HeatRate</text>
</a>
</g>
</g>
<!-- Node4&#45;&gt;Node12 -->
<g id="edge14_Node000004_Node000012" class="edge">
<title>Node4&#45;&gt;Node12</title>
<g id="a_edge14_Node000004_Node000012"><a xlink:title=" ">
<path fill="none" stroke="#63b8ff" d="M441.15,-61.95C452.11,-59.08 463.42,-56.02 474,-53 495.56,-46.85 519.11,-39.61 539.69,-33.11"/>
<polygon fill="#63b8ff" stroke="#63b8ff" points="540.75,-36.44 549.22,-30.08 538.63,-29.77 540.75,-36.44"/>
</a>
</g>
</g>
<!-- Node13 -->
<g id="Node000013" class="node">
<title>Node13</title>
<g id="a_Node000013"><a xlink:href="namespacePhysics_1_1Thermal.html#a0dd6c0c38070754508e9ebd0632abba5" target="_top" xlink:title=" ">
<polygon fill="white" stroke="#666666" points="878.5,-71 729.5,-71 729.5,-41 878.5,-41 878.5,-71"/>
<text text-anchor="start" x="737.5" y="-59" font-family="Helvetica,sans-Serif" font-size="10.00">Physics::Thermal::effective</text>
<text text-anchor="middle" x="804" y="-48" font-family="Helvetica,sans-Serif" font-size="10.00">Conductivity</text>
</a>
</g>
</g>
<!-- Node4&#45;&gt;Node13 -->
<g id="edge15_Node000004_Node000013" class="edge">
<title>Node4&#45;&gt;Node13</title>
<g id="a_edge15_Node000004_Node000013"><a xlink:title=" ">
<path fill="none" stroke="#63b8ff" d="M474.13,-72.37C547.35,-68.72 648.46,-63.69 719.17,-60.17"/>
<polygon fill="#63b8ff" stroke="#63b8ff" points="719.56,-63.66 729.37,-59.66 719.21,-56.67 719.56,-63.66"/>
</a>
</g>
</g>
<!-- Node6 -->
<g id="Node000006" class="node">
<title>Node6</title>
<g id="a_Node000006"><a xlink:href="namespacePhysics_1_1Thermal.html#a8c4fd2a57a4a0cf669179578fba97ae4" target="_top" xlink:title=" ">
<polygon fill="white" stroke="#666666" points="1091.5,-176 955.5,-176 955.5,-146 1091.5,-146 1091.5,-176"/>
<text text-anchor="start" x="963.5" y="-164" font-family="Helvetica,sans-Serif" font-size="10.00">Physics::Thermal::active</text>
<text text-anchor="middle" x="1023.5" y="-153" font-family="Helvetica,sans-Serif" font-size="10.00">ThermalMass</text>
</a>
</g>
</g>
<!-- Node5&#45;&gt;Node6 -->
<g id="edge5_Node000005_Node000006" class="edge">
<title>Node5&#45;&gt;Node6</title>
<g id="a_edge5_Node000005_Node000006"><a xlink:title=" ">
<path fill="none" stroke="#63b8ff" d="M683.07,-148.16C695.12,-149.24 707.37,-150.23 719,-151 795.71,-156.05 883.5,-158.59 944.86,-159.84"/>
<polygon fill="#63b8ff" stroke="#63b8ff" points="945.17,-163.35 955.23,-160.05 945.3,-156.35 945.17,-163.35"/>
</a>
</g>
</g>
<!-- Node7 -->
<g id="Node000007" class="node">
<title>Node7</title>
<g id="a_Node000007"><a xlink:href="namespacePhysics_1_1Thermal.html#acb06d086dbc037d7c8cd9303133a4d1b" target="_top" xlink:title=" ">
<polygon fill="white" stroke="#666666" points="1122,-265.5 925,-265.5 925,-246.5 1122,-246.5 1122,-265.5"/>
<text text-anchor="middle" x="1023.5" y="-253.5" font-family="Helvetica,sans-Serif" font-size="10.00">Physics::Thermal::clampTemperature</text>
</a>
</g>
</g>
<!-- Node5&#45;&gt;Node7 -->
<g id="edge6_Node000005_Node000007" class="edge">
<title>Node5&#45;&gt;Node7</title>
<g id="a_edge6_Node000005_Node000007"><a xlink:title=" ">
<path fill="none" stroke="#63b8ff" d="M652.19,-154.06C737.16,-177.45 899.23,-222.06 977.71,-243.67"/>
<polygon fill="#63b8ff" stroke="#63b8ff" points="977.19,-247.16 987.76,-246.44 979.05,-240.41 977.19,-247.16"/>
</a>
</g>
</g>
<!-- Node8 -->
<g id="Node000008" class="node">
<title>Node8</title>
<g id="a_Node000008"><a xlink:href="namespacePhysics_1_1Thermal.html#a8cd40c02db6cde184d3bc886e57bab2b" target="_top" xlink:title=" ">
<polygon fill="white" stroke="#666666" points="1098,-114 949,-114 949,-84 1098,-84 1098,-114"/>
<text text-anchor="start" x="957" y="-102" font-family="Helvetica,sans-Serif" font-size="10.00">Physics::Thermal::effective</text>
<text text-anchor="middle" x="1023.5" y="-91" font-family="Helvetica,sans-Serif" font-size="10.00">SpecificHeat</text>
</a>
</g>
</g>
<!-- Node5&#45;&gt;Node8 -->
<g id="edge7_Node000005_Node000008" class="edge">
<title>Node5&#45;&gt;Node8</title>
<g id="a_edge7_Node000005_Node000008"><a xlink:title=" ">
<path fill="none" stroke="#63b8ff" d="M683.1,-134.4C741.26,-130.89 819.88,-125.4 889,-118 905.1,-116.28 922.24,-114.1 938.68,-111.84"/>
<polygon fill="#63b8ff" stroke="#63b8ff" points="939.4,-115.27 948.82,-110.42 938.43,-108.34 939.4,-115.27"/>
</a>
</g>
</g>
<!-- Node5&#45;&gt;Node10 -->
<g id="edge9_Node000005_Node000010" class="edge">
<title>Node5&#45;&gt;Node10</title>
<g id="a_edge9_Node000005_Node000010"><a xlink:title=" ">
<path fill="none" stroke="#63b8ff" d="M674.61,-123.99C697.61,-119.51 722.45,-114.68 744.1,-110.47"/>
<polygon fill="#63b8ff" stroke="#63b8ff" points="744.97,-113.86 754.12,-108.51 743.63,-106.99 744.97,-113.86"/>
</a>
</g>
</g>
<!-- Node11 -->
<g id="Node000011" class="node">
<title>Node11</title>
<g id="a_Node000011"><a xlink:href="namespacePhysics_1_1Thermal.html#a06108fe540610d537e7250d1e0472d63" target="_top" xlink:title=" ">
<polygon fill="white" stroke="#666666" points="875.5,-271 732.5,-271 732.5,-241 875.5,-241 875.5,-271"/>
<text text-anchor="start" x="740.5" y="-259" font-family="Helvetica,sans-Serif" font-size="10.00">Physics::Thermal::specific</text>
<text text-anchor="middle" x="804" y="-248" font-family="Helvetica,sans-Serif" font-size="10.00">EntropyChange</text>
</a>
</g>
</g>
<!-- Node5&#45;&gt;Node11 -->
<g id="edge12_Node000005_Node000011" class="edge">
<title>Node5&#45;&gt;Node11</title>
<g id="a_edge12_Node000005_Node000011"><a xlink:title=" ">
<path fill="none" stroke="#63b8ff" d="M614.93,-154.2C637.59,-173.33 679.03,-206.21 719,-227 726.2,-230.75 733.99,-234.18 741.82,-237.26"/>
<polygon fill="#63b8ff" stroke="#63b8ff" points="740.76,-240.61 751.36,-240.86 743.23,-234.06 740.76,-240.61"/>
</a>
</g>
</g>
<!-- Node9 -->
<g id="Node000009" class="node">
<title>Node9</title>
<g id="a_Node000009"><a xlink:href="namespacePhysics_1_1Thermal.html#aeaaf21f50b58c0fec885f95c14537076" target="_top" xlink:title=" ">
<polygon fill="white" stroke="#666666" points="1292,-92 1158,-92 1158,-62 1292,-62 1292,-92"/>
<text text-anchor="start" x="1166" y="-80" font-family="Helvetica,sans-Serif" font-size="10.00">Physics::Thermal::linear</text>
<text text-anchor="middle" x="1225" y="-69" font-family="Helvetica,sans-Serif" font-size="10.00">TemperatureFactor</text>
</a>
</g>
</g>
<!-- Node8&#45;&gt;Node9 -->
<g id="edge8_Node000008_Node000009" class="edge">
<title>Node8&#45;&gt;Node9</title>
<g id="a_edge8_Node000008_Node000009"><a xlink:title=" ">
<path fill="none" stroke="#63b8ff" d="M1098.22,-90.87C1114.4,-89.09 1131.56,-87.19 1147.83,-85.4"/>
<polygon fill="#63b8ff" stroke="#63b8ff" points="1148.27,-88.87 1157.83,-84.3 1147.51,-81.91 1148.27,-88.87"/>
</a>
</g>
</g>
<!-- Node10&#45;&gt;Node6 -->
<g id="edge10_Node000010_Node000006" class="edge">
<title>Node10&#45;&gt;Node6</title>
<g id="a_edge10_Node000010_Node000006"><a xlink:title=" ">
<path fill="none" stroke="#63b8ff" d="M838.51,-108.55C870.69,-117.73 920.13,-131.82 959.65,-143.09"/>
<polygon fill="#63b8ff" stroke="#63b8ff" points="958.9,-146.51 969.47,-145.88 960.82,-139.78 958.9,-146.51"/>
</a>
</g>
</g>
<!-- Node10&#45;&gt;Node8 -->
<g id="edge11_Node000010_Node000008" class="edge">
<title>Node10&#45;&gt;Node8</title>
<g id="a_edge11_Node000010_Node000008"><a xlink:title=" ">
<path fill="none" stroke="#63b8ff" d="M889.09,-99C905.43,-99 922.54,-99 938.86,-99"/>
<polygon fill="#63b8ff" stroke="#63b8ff" points="938.91,-102.5 948.91,-99 938.91,-95.5 938.91,-102.5"/>
</a>
</g>
</g>
<!-- Node11&#45;&gt;Node7 -->
<g id="edge13_Node000011_Node000007" class="edge">
<title>Node11&#45;&gt;Node7</title>
<g id="a_edge13_Node000011_Node000007"><a xlink:title=" ">
<path fill="none" stroke="#63b8ff" d="M875.62,-256C888.17,-256 901.5,-256 914.81,-256"/>
<polygon fill="#63b8ff" stroke="#63b8ff" points="914.97,-259.5 924.97,-256 914.97,-252.5 914.97,-259.5"/>
</a>
</g>
</g>
<!-- Node13&#45;&gt;Node9 -->
<g id="edge16_Node000013_Node000009" class="edge">
<title>Node13&#45;&gt;Node9</title>
<g id="a_edge16_Node000013_Node000009"><a xlink:title=" ">
<path fill="none" stroke="#63b8ff" d="M878.94,-59.71C954.49,-63.49 1071.25,-69.34 1147.66,-73.17"/>
<polygon fill="#63b8ff" stroke="#63b8ff" points="1147.53,-76.67 1157.69,-73.68 1147.88,-69.68 1147.53,-76.67"/>
</a>
</g>
</g>
<!-- Node22&#45;&gt;Node23 -->
<g id="edge29_Node000022_Node000023" class="edge">
<title>Node22&#45;&gt;Node23</title>
<g id="a_edge29_Node000022_Node000023"><a xlink:title=" ">
<path fill="none" stroke="#63b8ff" d="M439.61,-547C466.24,-547 497.94,-547 525.77,-547"/>
<polygon fill="#63b8ff" stroke="#63b8ff" points="525.84,-550.5 535.84,-547 525.84,-543.5 525.84,-550.5"/>
</a>
</g>
</g>
<!-- Node23&#45;&gt;Node7 -->
<g id="edge30_Node000023_Node000007" class="edge">
<title>Node23&#45;&gt;Node7</title>
<g id="a_edge30_Node000023_Node000007"><a xlink:title=" ">
<path fill="none" stroke="#63b8ff" d="M619.45,-531.97C692.32,-482.08 925.7,-322.28 999.73,-271.59"/>
<polygon fill="#63b8ff" stroke="#63b8ff" points="1002.06,-274.24 1008.34,-265.7 998.11,-268.46 1002.06,-274.24"/>
</a>
</g>
</g>
</g>
</svg>

<g id="navigator" transform="translate(0 0)" fill="#404254">
  <rect fill="#f2f5e9" fill-opacity="0.5" stroke="#606060" stroke-width=".5" x="0" y="0" width="60" height="60"/>
  <use id="zoomplus" xlink:href="#zoomPlus" x="17" y="9" onmousedown="handleZoom(evt,'in')"/>
  <use id="zoomminus" xlink:href="#zoomMin" x="42" y="9" onmousedown="handleZoom(evt,'out')"/>
  <use id="reset" xlink:href="#resetDef" x="30" y="36" onmousedown="handleReset()"/>
   <use id="arrowup" xlink:href="#arrowUp" x="0" y="0" onmousedown="handlePan(0,-1)"/>
  <use id="arrowright" xlink:href="#arrowRight" x="0" y="0" onmousedown="handlePan(1,0)"/>
  <use id="arrowdown" xlink:href="#arrowDown" x="0" y="0" onmousedown="handlePan(0,1)"/>
  <use id="arrowleft" xlink:href="#arrowLeft" x="0" y="0" onmousedown="handlePan(-1,0)"/>
</g>
<svg viewBox="0 0 15 15" width="100%" height="30px" preserveAspectRatio="xMaxYMin meet">
 <g id="arrow_out" transform="scale(0.3 0.3)">
  <a xlink:href="PhysicsTests_8cpp_aae14e19948f282c097b0e8761991c0e1_cgraph_org.svg" target="_base">
   <rect id="button" ry="5" rx="5" y="6" x="6" height="38" width="38"
        fill="#f2f5e9" fill-opacity="0.5" stroke="#606060" stroke-width="1.0"/>
   <path id="arrow"
     d="M 11.500037,31.436501 C 11.940474,20.09759 22.043105,11.32322 32.158766,21.979434 L 37.068811,17.246167 C 37.068811,17.246167 37.088388,32 37.088388,32 L 22.160133,31.978069 C 22.160133,31.978069 26.997745,27.140456 26.997745,27.140456 C 18.528582,18.264221 13.291696,25.230495 11.500037,31.436501 z"
     style="fill:#404040;"/>
  </a>
 </g>
</svg>

<style type='text/css'>
<![CDATA[
[data-mouse-over-selected='false'] { opacity: 0.7; }
[data-mouse-over-selected='true']  { opacity: 1.0; }
]]>
</style>
<script type="application/ecmascript"><![CDATA[
document.addEventListener('DOMContentLoaded', (event) => {
  highlightEdges();
  highlightAdjacentNodes();
});
]]></script>
</svg>
