<?xml version="1.0" encoding="UTF-8" standalone="no"?>
<!DOCTYPE svg PUBLIC "-//W3C//DTD SVG 1.1//EN"
 "http://www.w3.org/Graphics/SVG/1.1/DTD/svg11.dtd">
<!-- Generated by graphviz version 2.43.0 (0)
 -->
<!-- Title: TEST Pages: 1 -->
<!--zoomable 188 -->

<svg id="main" version="1.1" xmlns="http://www.w3.org/2000/svg" xmlns:xlink="http://www.w3.org/1999/xlink" xml:space="preserve" onload="init(evt)">
<style type="text/css"><![CDATA[
.node, .edge {opacity: 0.7;}
.node.selected, .edge.selected {opacity: 1;}
.edge:hover path { stroke: red; }
.edge:hover polygon { stroke: red; fill: red; }
]]></style>

<defs>
  <circle id="rim" cx="0" cy="0" r="7"/>
  <circle id="rim2" cx="0" cy="0" r="3.5"/>
  <g id="zoomPlus">
    <use xlink:href="#rim" fill="#404040"><set attributeName="fill" to="#808080" begin="zoomplus.mouseover" end="zoomplus.mouseout"/></use>
    <path d="M-4,0h8M0,-4v8" fill="none" stroke="white" stroke-width="1.5" pointer-events="none"/>
  </g>
  <g id="zoomMin">
    <use xlink:href="#rim" fill="#404040"><set attributeName="fill" to="#808080" begin="zoomminus.mouseover" end="zoomminus.mouseout"/></use>
    <path d="M-4,0h8" fill="none" stroke="white" stroke-width="1.5" pointer-events="none"/>
  </g>
  <g id="arrowUp" transform="translate(30 24)">
    <use xlink:href="#rim"/>
    <path pointer-events="none" fill="none" stroke="white" stroke-width="1.5" d="M0,-3.0v7 M-2.5,-0.5L0,-3.0L2.5,-0.5"/>
  </g>
  <g id="arrowRight" transform="rotate(90) translate(36 -43)">
    <use xlink:href="#rim"/>
    <path pointer-events="none" fill="none" stroke="white" stroke-width="1.5" d="M0,-3.0v7 M-2.5,-0.5L0,-3.0L2.5,-0.5"/>
  </g>
  <g id="arrowDown" transform="rotate(180) translate(-30 -48)">
    <use xlink:href="#rim"/>
    <path pointer-events="none" fill="none" stroke="white" stroke-width="1.5" d="M0,-3.0v7 M-2.5,-0.5L0,-3.0L2.5,-0.5"/>
  </g>
  <g id="arrowLeft" transform="rotate(270) translate(-36 17)">
    <use xlink:href="#rim"/>
    <path pointer-events="none" fill="none" stroke="white" stroke-width="1.5" d="M0,-3.0v7 M-2.5,-0.5L0,-3.0L2.5,-0.5"/>
  </g>
  <g id="resetDef">
    <use xlink:href="#rim2" fill="#404040"><set attributeName="fill" to="#808080" begin="reset.mouseover" end="reset.mouseout"/></use>
  </g>
</defs>
<script type="application/ecmascript">
var viewWidth = 867;
var viewHeight = 188;
var sectionId = 'dynsection-17';
</script>
<script type="application/ecmascript" xlink:href="svg.min.js"/>
<svg id="graph" class="graph">
<g id="viewport">
<title>TEST</title>
<!-- Node1 -->
<g id="Node000001" class="node">
<title>Node1</title>
<g id="a_Node000001"><a xlink:title=" ">
<polygon fill="#999999" stroke="#666666" points="41,-105.5 0,-105.5 0,-86.5 41,-86.5 41,-105.5"/>
<text text-anchor="middle" x="20.5" y="-93.5" font-family="Helvetica,sans-Serif" font-size="10.00">TEST</text>
</a>
</g>
</g>
<!-- Node2 -->
<g id="Node000002" class="node">
<title>Node2</title>
<g id="a_Node000002"><a xlink:href="namespacePhysics_1_1Thermal.html#a9206d38ee4d0cbd18666c936706e8611" target="_top" xlink:title=" ">
<polygon fill="white" stroke="#666666" points="250,-111 77,-111 77,-81 250,-81 250,-111"/>
<text text-anchor="start" x="85" y="-99" font-family="Helvetica,sans-Serif" font-size="10.00">Physics::Thermal::applyThermal</text>
<text text-anchor="middle" x="163.5" y="-88" font-family="Helvetica,sans-Serif" font-size="10.00">Energy</text>
</a>
</g>
</g>
<!-- Node1&#45;&gt;Node2 -->
<g id="edge1_Node000001_Node000002" class="edge">
<title>Node1&#45;&gt;Node2</title>
<g id="a_edge1_Node000001_Node000002"><a xlink:title=" ">
<path fill="none" stroke="#63b8ff" d="M41.11,-96C48.35,-96 57.13,-96 66.62,-96"/>
<polygon fill="#63b8ff" stroke="#63b8ff" points="66.73,-99.5 76.73,-96 66.73,-92.5 66.73,-99.5"/>
</a>
</g>
</g>
<!-- Node3 -->
<g id="Node000003" class="node">
<title>Node3</title>
<g id="a_Node000003"><a xlink:href="namespacePhysics_1_1Thermal.html#a8c4fd2a57a4a0cf669179578fba97ae4" target="_top" xlink:title=" ">
<polygon fill="white" stroke="#666666" points="658.5,-180 522.5,-180 522.5,-150 658.5,-150 658.5,-180"/>
<text text-anchor="start" x="530.5" y="-168" font-family="Helvetica,sans-Serif" font-size="10.00">Physics::Thermal::active</text>
<text text-anchor="middle" x="590.5" y="-157" font-family="Helvetica,sans-Serif" font-size="10.00">ThermalMass</text>
</a>
</g>
</g>
<!-- Node2&#45;&gt;Node3 -->
<g id="edge2_Node000002_Node000003" class="edge">
<title>Node2&#45;&gt;Node3</title>
<g id="a_edge2_Node000002_Node000003"><a xlink:title=" ">
<path fill="none" stroke="#63b8ff" d="M189.01,-111.09C212.81,-124.86 250.46,-144.34 286,-153 361.34,-171.36 450.28,-172.59 512.33,-170.31"/>
<polygon fill="#63b8ff" stroke="#63b8ff" points="512.59,-173.8 522.43,-169.9 512.3,-166.81 512.59,-173.8"/>
</a>
</g>
</g>
<!-- Node4 -->
<g id="Node000004" class="node">
<title>Node4</title>
<g id="a_Node000004"><a xlink:href="namespacePhysics_1_1Thermal.html#acb06d086dbc037d7c8cd9303133a4d1b" target="_top" xlink:title=" ">
<polygon fill="white" stroke="#666666" points="689,-50.5 492,-50.5 492,-31.5 689,-31.5 689,-50.5"/>
<text text-anchor="middle" x="590.5" y="-38.5" font-family="Helvetica,sans-Serif" font-size="10.00">Physics::Thermal::clampTemperature</text>
</a>
</g>
</g>
<!-- Node2&#45;&gt;Node4 -->
<g id="edge3_Node000002_Node000004" class="edge">
<title>Node2&#45;&gt;Node4</title>
<g id="a_edge3_Node000002_Node000004"><a xlink:title=" ">
<path fill="none" stroke="#63b8ff" d="M250.25,-84.9C324.7,-75.27 431.87,-61.4 505.74,-51.84"/>
<polygon fill="#63b8ff" stroke="#63b8ff" points="506.46,-55.28 515.93,-50.52 505.56,-48.33 506.46,-55.28"/>
</a>
</g>
</g>
<!-- Node5 -->
<g id="Node000005" class="node">
<title>Node5</title>
<g id="a_Node000005"><a xlink:href="namespacePhysics_1_1Thermal.html#a8cd40c02db6cde184d3bc886e57bab2b" target="_top" xlink:title=" ">
<polygon fill="white" stroke="#666666" points="665,-118 516,-118 516,-88 665,-88 665,-118"/>
<text text-anchor="start" x="524" y="-106" font-family="Helvetica,sans-Serif" font-size="10.00">Physics::Thermal::effective</text>
<text text-anchor="middle" x="590.5" y="-95" font-family="Helvetica,sans-Serif" font-size="10.00">SpecificHeat</text>
</a>
</g>
</g>
<!-- Node2&#45;&gt;Node5 -->
<g id="edge4_Node000002_Node000005" class="edge">
<title>Node2&#45;&gt;Node5</title>
<g id="a_edge4_Node000002_Node000005"><a xlink:title=" ">
<path fill="none" stroke="#63b8ff" d="M250.25,-97.41C324.7,-98.64 431.87,-100.4 505.74,-101.62"/>
<polygon fill="#63b8ff" stroke="#63b8ff" points="505.87,-105.12 515.93,-101.79 505.99,-98.12 505.87,-105.12"/>
</a>
</g>
</g>
<!-- Node7 -->
<g id="Node000007" class="node">
<title>Node7</title>
<g id="a_Node000007"><a xlink:href="namespacePhysics_1_1Thermal.html#a7eaf74772f10f3ceb9740038659283ab" target="_top" xlink:title=" ">
<polygon fill="white" stroke="#666666" points="456,-143.5 286,-143.5 286,-124.5 456,-124.5 456,-143.5"/>
<text text-anchor="middle" x="371" y="-131.5" font-family="Helvetica,sans-Serif" font-size="10.00">Physics::Thermal::heatCapacity</text>
</a>
</g>
</g>
<!-- Node2&#45;&gt;Node7 -->
<g id="edge6_Node000002_Node000007" class="edge">
<title>Node2&#45;&gt;Node7</title>
<g id="a_edge6_Node000002_Node000007"><a xlink:title=" ">
<path fill="none" stroke="#63b8ff" d="M245.72,-111.02C266.64,-114.89 288.81,-118.99 308.54,-122.64"/>
<polygon fill="#63b8ff" stroke="#63b8ff" points="308.15,-126.12 318.62,-124.5 309.42,-119.24 308.15,-126.12"/>
</a>
</g>
</g>
<!-- Node8 -->
<g id="Node000008" class="node">
<title>Node8</title>
<g id="a_Node000008"><a xlink:href="namespacePhysics_1_1Thermal.html#a06108fe540610d537e7250d1e0472d63" target="_top" xlink:title=" ">
<polygon fill="white" stroke="#666666" points="442.5,-30 299.5,-30 299.5,0 442.5,0 442.5,-30"/>
<text text-anchor="start" x="307.5" y="-18" font-family="Helvetica,sans-Serif" font-size="10.00">Physics::Thermal::specific</text>
<text text-anchor="middle" x="371" y="-7" font-family="Helvetica,sans-Serif" font-size="10.00">EntropyChange</text>
</a>
</g>
</g>
<!-- Node2&#45;&gt;Node8 -->
<g id="edge9_Node000002_Node000008" class="edge">
<title>Node2&#45;&gt;Node8</title>
<g id="a_edge9_Node000002_Node000008"><a xlink:title=" ">
<path fill="none" stroke="#63b8ff" d="M198.01,-80.89C222.27,-70.14 255.93,-55.61 286,-44 295.28,-40.42 305.22,-36.8 314.89,-33.39"/>
<polygon fill="#63b8ff" stroke="#63b8ff" points="316.15,-36.66 324.45,-30.06 313.85,-30.05 316.15,-36.66"/>
</a>
</g>
</g>
<!-- Node6 -->
<g id="Node000006" class="node">
<title>Node6</title>
<g id="a_Node000006"><a xlink:href="namespacePhysics_1_1Thermal.html#aeaaf21f50b58c0fec885f95c14537076" target="_top" xlink:title=" ">
<polygon fill="white" stroke="#666666" points="859,-118 725,-118 725,-88 859,-88 859,-118"/>
<text text-anchor="start" x="733" y="-106" font-family="Helvetica,sans-Serif" font-size="10.00">Physics::Thermal::linear</text>
<text text-anchor="middle" x="792" y="-95" font-family="Helvetica,sans-Serif" font-size="10.00">TemperatureFactor</text>
</a>
</g>
</g>
<!-- Node5&#45;&gt;Node6 -->
<g id="edge5_Node000005_Node000006" class="edge">
<title>Node5&#45;&gt;Node6</title>
<g id="a_edge5_Node000005_Node000006"><a xlink:title=" ">
<path fill="none" stroke="#63b8ff" d="M665.22,-103C681.4,-103 698.56,-103 714.83,-103"/>
<polygon fill="#63b8ff" stroke="#63b8ff" points="714.83,-106.5 724.83,-103 714.83,-99.5 714.83,-106.5"/>
</a>
</g>
</g>
<!-- Node7&#45;&gt;Node3 -->
<g id="edge7_Node000007_Node000003" class="edge">
<title>Node7&#45;&gt;Node3</title>
<g id="a_edge7_Node000007_Node000003"><a xlink:title=" ">
<path fill="none" stroke="#63b8ff" d="M438.74,-143.51C461.9,-146.81 488.07,-150.54 512.02,-153.96"/>
<polygon fill="#63b8ff" stroke="#63b8ff" points="511.75,-157.45 522.14,-155.4 512.73,-150.52 511.75,-157.45"/>
</a>
</g>
</g>
<!-- Node7&#45;&gt;Node5 -->
<g id="edge8_Node000007_Node000005" class="edge">
<title>Node7&#45;&gt;Node5</title>
<g id="a_edge8_Node000007_Node000005"><a xlink:title=" ">
<path fill="none" stroke="#63b8ff" d="M438.74,-124.49C459.85,-121.48 483.47,-118.11 505.62,-114.95"/>
<polygon fill="#63b8ff" stroke="#63b8ff" points="506.28,-118.4 515.69,-113.52 505.29,-111.47 506.28,-118.4"/>
</a>
</g>
</g>
<!-- Node8&#45;&gt;Node4 -->
<g id="edge10_Node000008_Node000004" class="edge">
<title>Node8&#45;&gt;Node4</title>
<g id="a_edge10_Node000008_Node000004"><a xlink:title=" ">
<path fill="none" stroke="#63b8ff" d="M442.62,-23.44C460.81,-25.62 480.63,-27.99 499.65,-30.26"/>
<polygon fill="#63b8ff" stroke="#63b8ff" points="499.47,-33.76 509.81,-31.47 500.3,-26.81 499.47,-33.76"/>
</a>
</g>
</g>
</g>
</svg>

<g id="navigator" transform="translate(0 0)" fill="#404254">
  <rect fill="#f2f5e9" fill-opacity="0.5" stroke="#606060" stroke-width=".5" x="0" y="0" width="60" height="60"/>
  <use id="zoomplus" xlink:href="#zoomPlus" x="17" y="9" onmousedown="handleZoom(evt,'in')"/>
  <use id="zoomminus" xlink:href="#zoomMin" x="42" y="9" onmousedown="handleZoom(evt,'out')"/>
  <use id="reset" xlink:href="#resetDef" x="30" y="36" onmousedown="handleReset()"/>
   <use id="arrowup" xlink:href="#arrowUp" x="0" y="0" onmousedown="handlePan(0,-1)"/>
  <use id="arrowright" xlink:href="#arrowRight" x="0" y="0" onmousedown="handlePan(1,0)"/>
  <use id="arrowdown" xlink:href="#arrowDown" x="0" y="0" onmousedown="handlePan(0,1)"/>
  <use id="arrowleft" xlink:href="#arrowLeft" x="0" y="0" onmousedown="handlePan(-1,0)"/>
</g>
<svg viewBox="0 0 15 15" width="100%" height="30px" preserveAspectRatio="xMaxYMin meet">
 <g id="arrow_out" transform="scale(0.3 0.3)">
  <a xlink:href="PhysicsTests_8cpp_aa0407d0a28cee579779bf66d159a989d_cgraph_org.svg" target="_base">
   <rect id="button" ry="5" rx="5" y="6" x="6" height="38" width="38"
        fill="#f2f5e9" fill-opacity="0.5" stroke="#606060" stroke-width="1.0"/>
   <path id="arrow"
     d="M 11.500037,31.436501 C 11.940474,20.09759 22.043105,11.32322 32.158766,21.979434 L 37.068811,17.246167 C 37.068811,17.246167 37.088388,32 37.088388,32 L 22.160133,31.978069 C 22.160133,31.978069 26.997745,27.140456 26.997745,27.140456 C 18.528582,18.264221 13.291696,25.230495 11.500037,31.436501 z"
     style="fill:#404040;"/>
  </a>
 </g>
</svg>

<style type='text/css'>
<![CDATA[
[data-mouse-over-selected='false'] { opacity: 0.7; }
[data-mouse-over-selected='true']  { opacity: 1.0; }
]]>
</style>
<script type="application/ecmascript"><![CDATA[
document.addEventListener('DOMContentLoaded', (event) => {
  highlightEdges();
  highlightAdjacentNodes();
});
]]></script>
</svg>
