<?xml version="1.0" encoding="UTF-8" standalone="no"?>
<!DOCTYPE svg PUBLIC "-//W3C//DTD SVG 1.1//EN"
 "http://www.w3.org/Graphics/SVG/1.1/DTD/svg11.dtd">
<!-- Generated by graphviz version 2.43.0 (0)
 -->
<!-- Title: tests/PhysicsTests.cpp Pages: 1 -->
<!--zoomable 302 -->

<svg id="main" version="1.1" xmlns="http://www.w3.org/2000/svg" xmlns:xlink="http://www.w3.org/1999/xlink" xml:space="preserve" onload="init(evt)">
<style type="text/css"><![CDATA[
.node, .edge {opacity: 0.7;}
.node.selected, .edge.selected {opacity: 1;}
.edge:hover path { stroke: red; }
.edge:hover polygon { stroke: red; fill: red; }
]]></style>

<defs>
  <circle id="rim" cx="0" cy="0" r="7"/>
  <circle id="rim2" cx="0" cy="0" r="3.5"/>
  <g id="zoomPlus">
    <use xlink:href="#rim" fill="#404040"><set attributeName="fill" to="#808080" begin="zoomplus.mouseover" end="zoomplus.mouseout"/></use>
    <path d="M-4,0h8M0,-4v8" fill="none" stroke="white" stroke-width="1.5" pointer-events="none"/>
  </g>
  <g id="zoomMin">
    <use xlink:href="#rim" fill="#404040"><set attributeName="fill" to="#808080" begin="zoomminus.mouseover" end="zoomminus.mouseout"/></use>
    <path d="M-4,0h8" fill="none" stroke="white" stroke-width="1.5" pointer-events="none"/>
  </g>
  <g id="arrowUp" transform="translate(30 24)">
    <use xlink:href="#rim"/>
    <path pointer-events="none" fill="none" stroke="white" stroke-width="1.5" d="M0,-3.0v7 M-2.5,-0.5L0,-3.0L2.5,-0.5"/>
  </g>
  <g id="arrowRight" transform="rotate(90) translate(36 -43)">
    <use xlink:href="#rim"/>
    <path pointer-events="none" fill="none" stroke="white" stroke-width="1.5" d="M0,-3.0v7 M-2.5,-0.5L0,-3.0L2.5,-0.5"/>
  </g>
  <g id="arrowDown" transform="rotate(180) translate(-30 -48)">
    <use xlink:href="#rim"/>
    <path pointer-events="none" fill="none" stroke="white" stroke-width="1.5" d="M0,-3.0v7 M-2.5,-0.5L0,-3.0L2.5,-0.5"/>
  </g>
  <g id="arrowLeft" transform="rotate(270) translate(-36 17)">
    <use xlink:href="#rim"/>
    <path pointer-events="none" fill="none" stroke="white" stroke-width="1.5" d="M0,-3.0v7 M-2.5,-0.5L0,-3.0L2.5,-0.5"/>
  </g>
  <g id="resetDef">
    <use xlink:href="#rim2" fill="#404040"><set attributeName="fill" to="#808080" begin="reset.mouseover" end="reset.mouseout"/></use>
  </g>
</defs>
<script type="application/ecmascript">
var viewWidth = 1260;
var viewHeight = 302;
var sectionId = 'dynsection-0';
</script>
<script type="application/ecmascript" xlink:href="svg.min.js"/>
<svg id="graph" class="graph">
<g id="viewport">
<title>tests/PhysicsTests.cpp</title>
<!-- Node1 -->
<g id="Node000001" class="node">
<title>Node1</title>
<g id="a_Node000001"><a xlink:title=" ">
<polygon fill="#999999" stroke="#666666" points="430.77,-294 305.77,-294 305.77,-275 430.77,-275 430.77,-294"/>
<text text-anchor="middle" x="368.27" y="-282" font-family="Helvetica,sans-Serif" font-size="10.00">tests/PhysicsTests.cpp</text>
</a>
</g>
</g>
<!-- Node2 -->
<g id="Node000002" class="node">
<title>Node2</title>
<g id="a_Node000002"><a xlink:title=" ">
<polygon fill="#e0e0e0" stroke="#999999" points="340.27,-239 262.27,-239 262.27,-220 340.27,-220 340.27,-239"/>
<text text-anchor="middle" x="301.27" y="-227" font-family="Helvetica,sans-Serif" font-size="10.00">gtest/gtest.h</text>
</a>
</g>
</g>
<!-- Node1&#45;&gt;Node2 -->
<g id="edge1_Node000001_Node000002" class="edge">
<title>Node1&#45;&gt;Node2</title>
<g id="a_edge1_Node000001_Node000002"><a xlink:title=" ">
<path fill="none" stroke="#63b8ff" d="M357.5,-274.98C347.5,-267.07 332.38,-255.11 320.34,-245.58"/>
<polygon fill="#63b8ff" stroke="#63b8ff" points="322.24,-242.63 312.23,-239.17 317.9,-248.12 322.24,-242.63"/>
</a>
</g>
</g>
<!-- Node3 -->
<g id="Node000003" class="node">
<title>Node3</title>
<g id="a_Node000003"><a xlink:href="PhysicsSystem_8h.html" target="_top" xlink:title=" ">
<polygon fill="white" stroke="#666666" points="765.77,-239 626.77,-239 626.77,-220 765.77,-220 765.77,-239"/>
<text text-anchor="middle" x="696.27" y="-227" font-family="Helvetica,sans-Serif" font-size="10.00">physics/PhysicsSystem.h</text>
</a>
</g>
</g>
<!-- Node1&#45;&gt;Node3 -->
<g id="edge2_Node000001_Node000003" class="edge">
<title>Node1&#45;&gt;Node3</title>
<g id="a_edge2_Node000001_Node000003"><a xlink:title=" ">
<path fill="none" stroke="#63b8ff" d="M420.97,-274.98C478.86,-265.63 571.79,-250.61 633.44,-240.65"/>
<polygon fill="#63b8ff" stroke="#63b8ff" points="634.11,-244.09 643.43,-239.04 633,-237.18 634.11,-244.09"/>
</a>
</g>
</g>
<!-- Node26 -->
<g id="Node000026" class="node">
<title>Node26</title>
<g id="a_Node000026"><a xlink:href="PointMass_8h.html" target="_top" xlink:title=" ">
<polygon fill="white" stroke="#666666" points="196.27,-184 80.27,-184 80.27,-165 196.27,-165 196.27,-184"/>
<text text-anchor="middle" x="138.27" y="-172" font-family="Helvetica,sans-Serif" font-size="10.00">physics/PointMass.h</text>
</a>
</g>
</g>
<!-- Node1&#45;&gt;Node26 -->
<g id="edge39_Node000001_Node000026" class="edge">
<title>Node1&#45;&gt;Node26</title>
<g id="a_edge39_Node000001_Node000026"><a xlink:title=" ">
<path fill="none" stroke="#63b8ff" d="M368.3,-274.66C367.85,-260.87 364.85,-234.34 349.27,-220 338.4,-210 260.78,-195.42 202.82,-185.71"/>
<polygon fill="#63b8ff" stroke="#63b8ff" points="203.05,-182.2 192.61,-184.01 201.9,-189.11 203.05,-182.2"/>
</a>
</g>
</g>
<!-- Node4 -->
<g id="Node000004" class="node">
<title>Node4</title>
<g id="a_Node000004"><a xlink:title=" ">
<polygon fill="#e0e0e0" stroke="#999999" points="167.77,-74 120.77,-74 120.77,-55 167.77,-55 167.77,-74"/>
<text text-anchor="middle" x="144.27" y="-62" font-family="Helvetica,sans-Serif" font-size="10.00">vector</text>
</a>
</g>
</g>
<!-- Node3&#45;&gt;Node4 -->
<g id="edge3_Node000003_Node000004" class="edge">
<title>Node3&#45;&gt;Node4</title>
<g id="a_edge3_Node000003_Node000004"><a xlink:title=" ">
<path fill="none" stroke="#63b8ff" d="M626.57,-226C474.3,-220.2 121.53,-204.69 71.27,-184 31.06,-167.45 -18.29,-145.18 7.27,-110 30.64,-77.83 77.84,-68.45 110.25,-65.97"/>
<polygon fill="#63b8ff" stroke="#63b8ff" points="110.83,-69.44 120.61,-65.37 110.43,-62.45 110.83,-69.44"/>
</a>
</g>
</g>
<!-- Node5 -->
<g id="Node000005" class="node">
<title>Node5</title>
<g id="a_Node000005"><a xlink:title=" ">
<polygon fill="#e0e0e0" stroke="#999999" points="497.27,-74 447.27,-74 447.27,-55 497.27,-55 497.27,-74"/>
<text text-anchor="middle" x="472.27" y="-62" font-family="Helvetica,sans-Serif" font-size="10.00">atomic</text>
</a>
</g>
</g>
<!-- Node3&#45;&gt;Node5 -->
<g id="edge4_Node000003_Node000005" class="edge">
<title>Node3&#45;&gt;Node5</title>
<g id="a_edge4_Node000003_Node000005"><a xlink:title=" ">
<path fill="none" stroke="#63b8ff" d="M694.68,-219.82C690.18,-197.88 675.32,-139.84 639.27,-110 619.3,-93.47 550.23,-78.99 507.43,-71.31"/>
<polygon fill="#63b8ff" stroke="#63b8ff" points="507.87,-67.84 497.41,-69.56 506.66,-74.73 507.87,-67.84"/>
</a>
</g>
</g>
<!-- Node6 -->
<g id="Node000006" class="node">
<title>Node6</title>
<g id="a_Node000006"><a xlink:title=" ">
<polygon fill="#e0e0e0" stroke="#999999" points="239.27,-74 191.27,-74 191.27,-55 239.27,-55 239.27,-74"/>
<text text-anchor="middle" x="215.27" y="-62" font-family="Helvetica,sans-Serif" font-size="10.00">mutex</text>
</a>
</g>
</g>
<!-- Node3&#45;&gt;Node6 -->
<g id="edge5_Node000003_Node000006" class="edge">
<title>Node3&#45;&gt;Node6</title>
<g id="a_edge5_Node000003_Node000006"><a xlink:title=" ">
<path fill="none" stroke="#63b8ff" d="M626.56,-225.55C537.63,-218.95 381.87,-197.65 269.27,-129 250.42,-117.51 234.85,-97.16 225.36,-82.59"/>
<polygon fill="#63b8ff" stroke="#63b8ff" points="228.27,-80.65 220.02,-74 222.33,-84.34 228.27,-80.65"/>
</a>
</g>
</g>
<!-- Node7 -->
<g id="Node000007" class="node">
<title>Node7</title>
<g id="a_Node000007"><a xlink:title=" ">
<polygon fill="#e0e0e0" stroke="#999999" points="772.27,-184 724.27,-184 724.27,-165 772.27,-165 772.27,-184"/>
<text text-anchor="middle" x="748.27" y="-172" font-family="Helvetica,sans-Serif" font-size="10.00">thread</text>
</a>
</g>
</g>
<!-- Node3&#45;&gt;Node7 -->
<g id="edge6_Node000003_Node000007" class="edge">
<title>Node3&#45;&gt;Node7</title>
<g id="a_edge6_Node000003_Node000007"><a xlink:title=" ">
<path fill="none" stroke="#63b8ff" d="M704.85,-219.75C712.43,-212.03 723.65,-200.6 732.78,-191.28"/>
<polygon fill="#63b8ff" stroke="#63b8ff" points="735.34,-193.68 739.84,-184.09 730.34,-188.78 735.34,-193.68"/>
</a>
</g>
</g>
<!-- Node8 -->
<g id="Node000008" class="node">
<title>Node8</title>
<g id="a_Node000008"><a xlink:title=" ">
<polygon fill="#e0e0e0" stroke="#999999" points="897.77,-184 790.77,-184 790.77,-165 897.77,-165 897.77,-184"/>
<text text-anchor="middle" x="844.27" y="-172" font-family="Helvetica,sans-Serif" font-size="10.00">condition_variable</text>
</a>
</g>
</g>
<!-- Node3&#45;&gt;Node8 -->
<g id="edge7_Node000003_Node000008" class="edge">
<title>Node3&#45;&gt;Node8</title>
<g id="a_edge7_Node000003_Node000008"><a xlink:title=" ">
<path fill="none" stroke="#63b8ff" d="M720.05,-219.98C744.5,-211.23 782.8,-197.51 810.41,-187.62"/>
<polygon fill="#63b8ff" stroke="#63b8ff" points="811.82,-190.84 820.06,-184.17 809.46,-184.25 811.82,-190.84"/>
</a>
</g>
</g>
<!-- Node9 -->
<g id="Node000009" class="node">
<title>Node9</title>
<g id="a_Node000009"><a xlink:title=" ">
<polygon fill="#e0e0e0" stroke="#999999" points="897.27,-74 841.27,-74 841.27,-55 897.27,-55 897.27,-74"/>
<text text-anchor="middle" x="869.27" y="-62" font-family="Helvetica,sans-Serif" font-size="10.00">optional</text>
</a>
</g>
</g>
<!-- Node3&#45;&gt;Node9 -->
<g id="edge8_Node000003_Node000009" class="edge">
<title>Node3&#45;&gt;Node9</title>
<g id="a_edge8_Node000003_Node000009"><a xlink:title=" ">
<path fill="none" stroke="#63b8ff" d="M696.24,-219.66C696.69,-205.87 699.69,-179.35 715.27,-165 772.07,-112.68 836.64,-189 885.27,-129 895.85,-115.94 888.87,-96.78 881.08,-82.92"/>
<polygon fill="#63b8ff" stroke="#63b8ff" points="884,-80.99 875.77,-74.32 878.05,-84.67 884,-80.99"/>
</a>
</g>
</g>
<!-- Node10 -->
<g id="Node000010" class="node">
<title>Node10</title>
<g id="a_Node000010"><a xlink:href="RigidBody_8h.html" target="_top" xlink:title=" ">
<polygon fill="white" stroke="#666666" points="602.27,-184 528.27,-184 528.27,-165 602.27,-165 602.27,-184"/>
<text text-anchor="middle" x="565.27" y="-172" font-family="Helvetica,sans-Serif" font-size="10.00">RigidBody.h</text>
</a>
</g>
</g>
<!-- Node3&#45;&gt;Node10 -->
<g id="edge9_Node000003_Node000010" class="edge">
<title>Node3&#45;&gt;Node10</title>
<g id="a_edge9_Node000003_Node000010"><a xlink:title=" ">
<path fill="none" stroke="#63b8ff" d="M675.22,-219.98C653.86,-211.34 620.56,-197.87 596.2,-188.02"/>
<polygon fill="#63b8ff" stroke="#63b8ff" points="597.28,-184.68 586.7,-184.17 594.66,-191.17 597.28,-184.68"/>
</a>
</g>
</g>
<!-- Node21 -->
<g id="Node000021" class="node">
<title>Node21</title>
<g id="a_Node000021"><a xlink:href="OneUnknownSolver_8h.html" target="_top" xlink:title=" ">
<polygon fill="white" stroke="#666666" points="1252.27,-129 1098.27,-129 1098.27,-110 1252.27,-110 1252.27,-129"/>
<text text-anchor="middle" x="1175.27" y="-117" font-family="Helvetica,sans-Serif" font-size="10.00">solver/OneUnknownSolver.h</text>
</a>
</g>
</g>
<!-- Node3&#45;&gt;Node21 -->
<g id="edge28_Node000003_Node000021" class="edge">
<title>Node3&#45;&gt;Node21</title>
<g id="a_edge28_Node000003_Node000021"><a xlink:title=" ">
<path fill="none" stroke="#63b8ff" d="M765.85,-229.16C842.87,-227.87 969.69,-219.73 1072.27,-184 1104.44,-172.8 1137.18,-150.31 1156.86,-135.32"/>
<polygon fill="#63b8ff" stroke="#63b8ff" points="1159.2,-137.94 1164.94,-129.04 1154.9,-132.42 1159.2,-137.94"/>
</a>
</g>
</g>
<!-- Node23 -->
<g id="Node000023" class="node">
<title>Node23</title>
<g id="a_Node000023"><a xlink:href="ProblemRouter_8h.html" target="_top" xlink:title=" ">
<polygon fill="white" stroke="#666666" points="1046.77,-184 915.77,-184 915.77,-165 1046.77,-165 1046.77,-184"/>
<text text-anchor="middle" x="981.27" y="-172" font-family="Helvetica,sans-Serif" font-size="10.00">solver/ProblemRouter.h</text>
</a>
</g>
</g>
<!-- Node3&#45;&gt;Node23 -->
<g id="edge30_Node000003_Node000023" class="edge">
<title>Node3&#45;&gt;Node23</title>
<g id="a_edge30_Node000003_Node000023"><a xlink:title=" ">
<path fill="none" stroke="#63b8ff" d="M742.06,-219.98C791.87,-210.72 871.55,-195.9 925.1,-185.94"/>
<polygon fill="#63b8ff" stroke="#63b8ff" points="925.93,-189.35 935.12,-184.08 924.65,-182.47 925.93,-189.35"/>
</a>
</g>
</g>
<!-- Node24 -->
<g id="Node000024" class="node">
<title>Node24</title>
<g id="a_Node000024"><a xlink:href="VectorRootSolver_8h.html" target="_top" xlink:title=" ">
<polygon fill="white" stroke="#666666" points="1079.77,-129 970.77,-129 970.77,-110 1079.77,-110 1079.77,-129"/>
<text text-anchor="middle" x="1025.27" y="-117" font-family="Helvetica,sans-Serif" font-size="10.00">VectorRootSolver.h</text>
</a>
</g>
</g>
<!-- Node3&#45;&gt;Node24 -->
<g id="edge38_Node000003_Node000024" class="edge">
<title>Node3&#45;&gt;Node24</title>
<g id="a_edge38_Node000003_Node000024"><a xlink:title=" ">
<path fill="none" stroke="#63b8ff" d="M766,-224.78C865.25,-218.76 1037.39,-205.35 1056.27,-184 1068.63,-170.02 1055.35,-150.23 1042.54,-136.47"/>
<polygon fill="#63b8ff" stroke="#63b8ff" points="1044.79,-133.77 1035.25,-129.16 1039.83,-138.71 1044.79,-133.77"/>
</a>
</g>
</g>
<!-- Node10&#45;&gt;Node4 -->
<g id="edge11_Node000010_Node000004" class="edge">
<title>Node10&#45;&gt;Node4</title>
<g id="a_edge11_Node000010_Node000004"><a xlink:title=" ">
<path fill="none" stroke="#63b8ff" d="M527.95,-171.72C470.95,-168.15 359.35,-157.82 269.27,-129 231.2,-116.82 190.54,-94.14 166.27,-79.44"/>
<polygon fill="#63b8ff" stroke="#63b8ff" points="167.87,-76.32 157.52,-74.05 164.2,-82.28 167.87,-76.32"/>
</a>
</g>
</g>
<!-- Node10&#45;&gt;Node6 -->
<g id="edge10_Node000010_Node000006" class="edge">
<title>Node10&#45;&gt;Node6</title>
<g id="a_edge10_Node000010_Node000006"><a xlink:title=" ">
<path fill="none" stroke="#63b8ff" d="M528.07,-171.82C477.21,-168.47 383.9,-158.49 310.27,-129 280.83,-117.21 251.12,-95.39 232.95,-80.66"/>
<polygon fill="#63b8ff" stroke="#63b8ff" points="234.94,-77.76 225.01,-74.07 230.47,-83.15 234.94,-77.76"/>
</a>
</g>
</g>
<!-- Node11 -->
<g id="Node000011" class="node">
<title>Node11</title>
<g id="a_Node000011"><a xlink:title=" ">
<polygon fill="#e0e0e0" stroke="#999999" points="733.27,-74 655.27,-74 655.27,-55 733.27,-55 733.27,-74"/>
<text text-anchor="middle" x="694.27" y="-62" font-family="Helvetica,sans-Serif" font-size="10.00">glm/glm.hpp</text>
</a>
</g>
</g>
<!-- Node10&#45;&gt;Node11 -->
<g id="edge12_Node000010_Node000011" class="edge">
<title>Node10&#45;&gt;Node11</title>
<g id="a_edge12_Node000010_Node000011"><a xlink:title=" ">
<path fill="none" stroke="#63b8ff" d="M583.04,-164.85C598.71,-156.77 621.71,-143.76 639.27,-129 655.93,-114.99 671.87,-95.72 682.25,-82.1"/>
<polygon fill="#63b8ff" stroke="#63b8ff" points="685.07,-84.18 688.23,-74.07 679.45,-80 685.07,-84.18"/>
</a>
</g>
</g>
<!-- Node12 -->
<g id="Node000012" class="node">
<title>Node12</title>
<g id="a_Node000012"><a xlink:title=" ">
<polygon fill="#e0e0e0" stroke="#999999" points="630.27,-129 500.27,-129 500.27,-110 630.27,-110 630.27,-129"/>
<text text-anchor="middle" x="565.27" y="-117" font-family="Helvetica,sans-Serif" font-size="10.00">glm/gtc/quaternion.hpp</text>
</a>
</g>
</g>
<!-- Node10&#45;&gt;Node12 -->
<g id="edge13_Node000010_Node000012" class="edge">
<title>Node10&#45;&gt;Node12</title>
<g id="a_edge13_Node000010_Node000012"><a xlink:title=" ">
<path fill="none" stroke="#63b8ff" d="M565.27,-164.75C565.27,-157.8 565.27,-147.85 565.27,-139.13"/>
<polygon fill="#63b8ff" stroke="#63b8ff" points="568.77,-139.09 565.27,-129.09 561.77,-139.09 568.77,-139.09"/>
</a>
</g>
</g>
<!-- Node13 -->
<g id="Node000013" class="node">
<title>Node13</title>
<g id="a_Node000013"><a xlink:href="ICollider_8h.html" target="_top" xlink:title="Abstract interface for collision detection shapes.">
<polygon fill="white" stroke="#666666" points="875.77,-129 762.77,-129 762.77,-110 875.77,-110 875.77,-129"/>
<text text-anchor="middle" x="819.27" y="-117" font-family="Helvetica,sans-Serif" font-size="10.00">bounding/ICollider.h</text>
</a>
</g>
</g>
<!-- Node10&#45;&gt;Node13 -->
<g id="edge14_Node000010_Node000013" class="edge">
<title>Node10&#45;&gt;Node13</title>
<g id="a_edge14_Node000010_Node000013"><a xlink:title=" ">
<path fill="none" stroke="#63b8ff" d="M602.47,-165.74C646.21,-156.61 719.04,-141.41 768.09,-131.18"/>
<polygon fill="#63b8ff" stroke="#63b8ff" points="769.1,-134.54 778.17,-129.08 767.67,-127.69 769.1,-134.54"/>
</a>
</g>
</g>
<!-- Node17 -->
<g id="Node000017" class="node">
<title>Node17</title>
<g id="a_Node000017"><a xlink:href="PhysicsBody_8h.html" target="_top" xlink:title=" ">
<polygon fill="white" stroke="#666666" points="443.77,-129 318.77,-129 318.77,-110 443.77,-110 443.77,-129"/>
<text text-anchor="middle" x="381.27" y="-117" font-family="Helvetica,sans-Serif" font-size="10.00">physics/PhysicsBody.h</text>
</a>
</g>
</g>
<!-- Node10&#45;&gt;Node17 -->
<g id="edge20_Node000010_Node000017" class="edge">
<title>Node10&#45;&gt;Node17</title>
<g id="a_edge20_Node000010_Node000017"><a xlink:title=" ">
<path fill="none" stroke="#63b8ff" d="M535.71,-164.98C504.55,-156.01 455.3,-141.82 420.81,-131.89"/>
<polygon fill="#63b8ff" stroke="#63b8ff" points="421.64,-128.49 411.06,-129.08 419.7,-135.21 421.64,-128.49"/>
</a>
</g>
</g>
<!-- Node13&#45;&gt;Node9 -->
<g id="edge17_Node000013_Node000009" class="edge">
<title>Node13&#45;&gt;Node9</title>
<g id="a_edge17_Node000013_Node000009"><a xlink:title=" ">
<path fill="none" stroke="#63b8ff" d="M827.52,-109.75C834.73,-102.11 845.38,-90.82 854.11,-81.56"/>
<polygon fill="#63b8ff" stroke="#63b8ff" points="856.85,-83.76 861.17,-74.09 851.76,-78.96 856.85,-83.76"/>
</a>
</g>
</g>
<!-- Node13&#45;&gt;Node11 -->
<g id="edge15_Node000013_Node000011" class="edge">
<title>Node13&#45;&gt;Node11</title>
<g id="a_edge15_Node000013_Node000011"><a xlink:title=" ">
<path fill="none" stroke="#63b8ff" d="M799.18,-109.98C778.89,-101.38 747.31,-87.99 724.1,-78.15"/>
<polygon fill="#63b8ff" stroke="#63b8ff" points="725.29,-74.85 714.72,-74.17 722.56,-81.3 725.29,-74.85"/>
</a>
</g>
</g>
<!-- Node14 -->
<g id="Node000014" class="node">
<title>Node14</title>
<g id="a_Node000014"><a xlink:title=" ">
<polygon fill="#e0e0e0" stroke="#999999" points="973.27,-74 915.27,-74 915.27,-55 973.27,-55 973.27,-74"/>
<text text-anchor="middle" x="944.27" y="-62" font-family="Helvetica,sans-Serif" font-size="10.00">memory</text>
</a>
</g>
</g>
<!-- Node13&#45;&gt;Node14 -->
<g id="edge16_Node000013_Node000014" class="edge">
<title>Node13&#45;&gt;Node14</title>
<g id="a_edge16_Node000013_Node000014"><a xlink:title=" ">
<path fill="none" stroke="#63b8ff" d="M839.35,-109.98C859.64,-101.38 891.22,-87.99 914.44,-78.15"/>
<polygon fill="#63b8ff" stroke="#63b8ff" points="915.98,-81.3 923.82,-74.17 913.25,-74.85 915.98,-81.3"/>
</a>
</g>
</g>
<!-- Node15 -->
<g id="Node000015" class="node">
<title>Node15</title>
<g id="a_Node000015"><a xlink:href="Ray_8h.html" target="_top" xlink:title=" ">
<polygon fill="white" stroke="#666666" points="822.77,-74 751.77,-74 751.77,-55 822.77,-55 822.77,-74"/>
<text text-anchor="middle" x="787.27" y="-62" font-family="Helvetica,sans-Serif" font-size="10.00">math/Ray.h</text>
</a>
</g>
</g>
<!-- Node13&#45;&gt;Node15 -->
<g id="edge18_Node000013_Node000015" class="edge">
<title>Node13&#45;&gt;Node15</title>
<g id="a_edge18_Node000013_Node000015"><a xlink:title=" ">
<path fill="none" stroke="#63b8ff" d="M813.98,-109.75C809.56,-102.42 803.1,-91.73 797.65,-82.7"/>
<polygon fill="#63b8ff" stroke="#63b8ff" points="800.62,-80.84 792.45,-74.09 794.63,-84.46 800.62,-80.84"/>
</a>
</g>
</g>
<!-- Node16 -->
<g id="Node000016" class="node">
<title>Node16</title>
<g id="a_Node000016"><a xlink:title=" ">
<polygon fill="#e0e0e0" stroke="#999999" points="828.77,-19 745.77,-19 745.77,0 828.77,0 828.77,-19"/>
<text text-anchor="middle" x="787.27" y="-7" font-family="Helvetica,sans-Serif" font-size="10.00">glm/vec3.hpp</text>
</a>
</g>
</g>
<!-- Node15&#45;&gt;Node16 -->
<g id="edge19_Node000015_Node000016" class="edge">
<title>Node15&#45;&gt;Node16</title>
<g id="a_edge19_Node000015_Node000016"><a xlink:title=" ">
<path fill="none" stroke="#63b8ff" d="M787.27,-54.75C787.27,-47.8 787.27,-37.85 787.27,-29.13"/>
<polygon fill="#63b8ff" stroke="#63b8ff" points="790.77,-29.09 787.27,-19.09 783.77,-29.09 790.77,-29.09"/>
</a>
</g>
</g>
<!-- Node17&#45;&gt;Node4 -->
<g id="edge24_Node000017_Node000004" class="edge">
<title>Node17&#45;&gt;Node4</title>
<g id="a_edge24_Node000017_Node000004"><a xlink:title=" ">
<path fill="none" stroke="#63b8ff" d="M343.19,-109.98C297.4,-99.74 221.28,-82.72 177.68,-72.97"/>
<polygon fill="#63b8ff" stroke="#63b8ff" points="178.37,-69.54 167.85,-70.77 176.84,-76.37 178.37,-69.54"/>
</a>
</g>
</g>
<!-- Node17&#45;&gt;Node5 -->
<g id="edge21_Node000017_Node000005" class="edge">
<title>Node17&#45;&gt;Node5</title>
<g id="a_edge21_Node000017_Node000005"><a xlink:title=" ">
<path fill="none" stroke="#63b8ff" d="M395.89,-109.98C410.13,-101.69 432.02,-88.94 448.72,-79.22"/>
<polygon fill="#63b8ff" stroke="#63b8ff" points="450.5,-82.23 457.38,-74.17 446.98,-76.18 450.5,-82.23"/>
</a>
</g>
</g>
<!-- Node17&#45;&gt;Node6 -->
<g id="edge26_Node000017_Node000006" class="edge">
<title>Node17&#45;&gt;Node6</title>
<g id="a_edge26_Node000017_Node000006"><a xlink:title=" ">
<path fill="none" stroke="#63b8ff" d="M354.6,-109.98C325.9,-100.82 280.19,-86.23 249.02,-76.27"/>
<polygon fill="#63b8ff" stroke="#63b8ff" points="250.03,-72.93 239.44,-73.22 247.9,-79.59 250.03,-72.93"/>
</a>
</g>
</g>
<!-- Node17&#45;&gt;Node11 -->
<g id="edge23_Node000017_Node000011" class="edge">
<title>Node17&#45;&gt;Node11</title>
<g id="a_edge23_Node000017_Node000011"><a xlink:title=" ">
<path fill="none" stroke="#63b8ff" d="M431.56,-109.98C490.24,-100.05 586.66,-83.72 644.93,-73.85"/>
<polygon fill="#63b8ff" stroke="#63b8ff" points="645.73,-77.27 655,-72.15 644.56,-70.37 645.73,-77.27"/>
</a>
</g>
</g>
<!-- Node18 -->
<g id="Node000018" class="node">
<title>Node18</title>
<g id="a_Node000018"><a xlink:title=" ">
<polygon fill="#e0e0e0" stroke="#999999" points="611.27,-74 567.27,-74 567.27,-55 611.27,-55 611.27,-74"/>
<text text-anchor="middle" x="589.27" y="-62" font-family="Helvetica,sans-Serif" font-size="10.00">string</text>
</a>
</g>
</g>
<!-- Node17&#45;&gt;Node18 -->
<g id="edge22_Node000017_Node000018" class="edge">
<title>Node17&#45;&gt;Node18</title>
<g id="a_edge22_Node000017_Node000018"><a xlink:title=" ">
<path fill="none" stroke="#63b8ff" d="M414.69,-109.98C453.84,-100.01 518.26,-83.59 556.94,-73.74"/>
<polygon fill="#63b8ff" stroke="#63b8ff" points="558.3,-77 567.12,-71.14 556.57,-70.22 558.3,-77"/>
</a>
</g>
</g>
<!-- Node19 -->
<g id="Node000019" class="node">
<title>Node19</title>
<g id="a_Node000019"><a xlink:title=" ">
<polygon fill="#e0e0e0" stroke="#999999" points="413.27,-74 375.27,-74 375.27,-55 413.27,-55 413.27,-74"/>
<text text-anchor="middle" x="394.27" y="-62" font-family="Helvetica,sans-Serif" font-size="10.00">map</text>
</a>
</g>
</g>
<!-- Node17&#45;&gt;Node19 -->
<g id="edge25_Node000017_Node000019" class="edge">
<title>Node17&#45;&gt;Node19</title>
<g id="a_edge25_Node000017_Node000019"><a xlink:title=" ">
<path fill="none" stroke="#63b8ff" d="M383.41,-109.75C385.14,-102.72 387.62,-92.62 389.77,-83.84"/>
<polygon fill="#63b8ff" stroke="#63b8ff" points="393.18,-84.63 392.16,-74.09 386.38,-82.97 393.18,-84.63"/>
</a>
</g>
</g>
<!-- Node20 -->
<g id="Node000020" class="node">
<title>Node20</title>
<g id="a_Node000020"><a xlink:title=" ">
<polygon fill="#e0e0e0" stroke="#999999" points="357.27,-74 271.27,-74 271.27,-55 357.27,-55 357.27,-74"/>
<text text-anchor="middle" x="314.27" y="-62" font-family="Helvetica,sans-Serif" font-size="10.00">unordered_set</text>
</a>
</g>
</g>
<!-- Node17&#45;&gt;Node20 -->
<g id="edge27_Node000017_Node000020" class="edge">
<title>Node17&#45;&gt;Node20</title>
<g id="a_edge27_Node000017_Node000020"><a xlink:title=" ">
<path fill="none" stroke="#63b8ff" d="M370.5,-109.98C360.5,-102.07 345.38,-90.11 333.34,-80.58"/>
<polygon fill="#63b8ff" stroke="#63b8ff" points="335.24,-77.63 325.23,-74.17 330.9,-83.12 335.24,-77.63"/>
</a>
</g>
</g>
<!-- Node22 -->
<g id="Node000022" class="node">
<title>Node22</title>
<g id="a_Node000022"><a xlink:title=" ">
<polygon fill="#e0e0e0" stroke="#999999" points="1172.77,-74 1107.77,-74 1107.77,-55 1172.77,-55 1172.77,-74"/>
<text text-anchor="middle" x="1140.27" y="-62" font-family="Helvetica,sans-Serif" font-size="10.00">functional</text>
</a>
</g>
</g>
<!-- Node21&#45;&gt;Node22 -->
<g id="edge29_Node000021_Node000022" class="edge">
<title>Node21&#45;&gt;Node22</title>
<g id="a_edge29_Node000021_Node000022"><a xlink:title=" ">
<path fill="none" stroke="#63b8ff" d="M1169.49,-109.75C1164.65,-102.42 1157.59,-91.73 1151.62,-82.7"/>
<polygon fill="#63b8ff" stroke="#63b8ff" points="1154.37,-80.5 1145.94,-74.09 1148.53,-84.36 1154.37,-80.5"/>
</a>
</g>
</g>
<!-- Node23&#45;&gt;Node14 -->
<g id="edge32_Node000023_Node000014" class="edge">
<title>Node23&#45;&gt;Node14</title>
<g id="a_edge32_Node000023_Node000014"><a xlink:title=" ">
<path fill="none" stroke="#63b8ff" d="M977.15,-164.77C973.05,-155.89 966.75,-141.67 962.27,-129 957.01,-114.13 952.2,-96.89 948.88,-84.13"/>
<polygon fill="#63b8ff" stroke="#63b8ff" points="952.22,-83.07 946.37,-74.24 945.44,-84.79 952.22,-83.07"/>
</a>
</g>
</g>
<!-- Node23&#45;&gt;Node18 -->
<g id="edge31_Node000023_Node000018" class="edge">
<title>Node23&#45;&gt;Node18</title>
<g id="a_edge31_Node000023_Node000018"><a xlink:title=" ">
<path fill="none" stroke="#63b8ff" d="M923.23,-164.98C876.97,-157.51 810.8,-145.29 754.27,-129 705.09,-114.83 649.97,-92.18 617.52,-78.11"/>
<polygon fill="#63b8ff" stroke="#63b8ff" points="618.77,-74.83 608.2,-74.03 615.96,-81.25 618.77,-74.83"/>
</a>
</g>
</g>
<!-- Node23&#45;&gt;Node21 -->
<g id="edge33_Node000023_Node000021" class="edge">
<title>Node23&#45;&gt;Node21</title>
<g id="a_edge33_Node000023_Node000021"><a xlink:title=" ">
<path fill="none" stroke="#63b8ff" d="M1012.44,-164.98C1045.43,-155.97 1097.66,-141.7 1134.04,-131.76"/>
<polygon fill="#63b8ff" stroke="#63b8ff" points="1135.13,-135.09 1143.85,-129.08 1133.29,-128.34 1135.13,-135.09"/>
</a>
</g>
</g>
<!-- Node23&#45;&gt;Node24 -->
<g id="edge34_Node000023_Node000024" class="edge">
<title>Node23&#45;&gt;Node24</title>
<g id="a_edge34_Node000023_Node000024"><a xlink:title=" ">
<path fill="none" stroke="#63b8ff" d="M988.53,-164.75C994.81,-157.18 1004.06,-146.05 1011.7,-136.84"/>
<polygon fill="#63b8ff" stroke="#63b8ff" points="1014.44,-139.02 1018.14,-129.09 1009.06,-134.55 1014.44,-139.02"/>
</a>
</g>
</g>
<!-- Node24&#45;&gt;Node11 -->
<g id="edge36_Node000024_Node000011" class="edge">
<title>Node24&#45;&gt;Node11</title>
<g id="a_edge36_Node000024_Node000011"><a xlink:title=" ">
<path fill="none" stroke="#63b8ff" d="M970.64,-110.13C913.8,-101.37 822.24,-87.08 743.27,-74 743.17,-73.98 743.07,-73.97 742.96,-73.95"/>
<polygon fill="#63b8ff" stroke="#63b8ff" points="743.75,-70.53 733.31,-72.33 742.59,-77.44 743.75,-70.53"/>
</a>
</g>
</g>
<!-- Node24&#45;&gt;Node22 -->
<g id="edge35_Node000024_Node000022" class="edge">
<title>Node24&#45;&gt;Node22</title>
<g id="a_edge35_Node000024_Node000022"><a xlink:title=" ">
<path fill="none" stroke="#63b8ff" d="M1043.74,-109.98C1062.24,-101.46 1090.95,-88.23 1112.25,-78.41"/>
<polygon fill="#63b8ff" stroke="#63b8ff" points="1113.84,-81.53 1121.46,-74.17 1110.91,-75.18 1113.84,-81.53"/>
</a>
</g>
</g>
<!-- Node25 -->
<g id="Node000025" class="node">
<title>Node25</title>
<g id="a_Node000025"><a xlink:href="ISolver_8h.html" target="_top" xlink:title="Abstract interface for numerical solvers.">
<polygon fill="white" stroke="#666666" points="1054.77,-74 995.77,-74 995.77,-55 1054.77,-55 1054.77,-74"/>
<text text-anchor="middle" x="1025.27" y="-62" font-family="Helvetica,sans-Serif" font-size="10.00">ISolver.h</text>
</a>
</g>
</g>
<!-- Node24&#45;&gt;Node25 -->
<g id="edge37_Node000024_Node000025" class="edge">
<title>Node24&#45;&gt;Node25</title>
<g id="a_edge37_Node000024_Node000025"><a xlink:title=" ">
<path fill="none" stroke="#63b8ff" d="M1025.27,-109.75C1025.27,-102.8 1025.27,-92.85 1025.27,-84.13"/>
<polygon fill="#63b8ff" stroke="#63b8ff" points="1028.77,-84.09 1025.27,-74.09 1021.77,-84.09 1028.77,-84.09"/>
</a>
</g>
</g>
<!-- Node26&#45;&gt;Node4 -->
<g id="edge41_Node000026_Node000004" class="edge">
<title>Node26&#45;&gt;Node4</title>
<g id="a_edge41_Node000026_Node000004"><a xlink:title=" ">
<path fill="none" stroke="#63b8ff" d="M138.76,-164.66C139.73,-147.17 141.92,-107.8 143.22,-84.27"/>
<polygon fill="#63b8ff" stroke="#63b8ff" points="146.73,-84.34 143.79,-74.16 139.74,-83.95 146.73,-84.34"/>
</a>
</g>
</g>
<!-- Node26&#45;&gt;Node6 -->
<g id="edge43_Node000026_Node000006" class="edge">
<title>Node26&#45;&gt;Node6</title>
<g id="a_edge43_Node000026_Node000006"><a xlink:title=" ">
<path fill="none" stroke="#63b8ff" d="M144.57,-164.66C157.38,-146.69 186.65,-105.64 203.23,-82.38"/>
<polygon fill="#63b8ff" stroke="#63b8ff" points="206.14,-84.33 209.09,-74.16 200.44,-80.27 206.14,-84.33"/>
</a>
</g>
</g>
<!-- Node26&#45;&gt;Node11 -->
<g id="edge42_Node000026_Node000011" class="edge">
<title>Node26&#45;&gt;Node11</title>
<g id="a_edge42_Node000026_Node000011"><a xlink:title=" ">
<path fill="none" stroke="#63b8ff" d="M196.4,-170.9C260.55,-166.76 366.26,-156.1 453.27,-129 471.3,-123.38 473.46,-116.29 491.27,-110 542.34,-91.95 603.32,-79.77 645.03,-72.78"/>
<polygon fill="#63b8ff" stroke="#63b8ff" points="645.63,-76.23 654.93,-71.15 644.5,-69.32 645.63,-76.23"/>
</a>
</g>
</g>
<!-- Node26&#45;&gt;Node17 -->
<g id="edge44_Node000026_Node000017" class="edge">
<title>Node26&#45;&gt;Node17</title>
<g id="a_edge44_Node000026_Node000017"><a xlink:title=" ">
<path fill="none" stroke="#63b8ff" d="M177.31,-164.98C219.34,-155.82 286.31,-141.21 331.95,-131.26"/>
<polygon fill="#63b8ff" stroke="#63b8ff" points="332.9,-134.63 341.92,-129.08 331.4,-127.79 332.9,-134.63"/>
</a>
</g>
</g>
<!-- Node27 -->
<g id="Node000027" class="node">
<title>Node27</title>
<g id="a_Node000027"><a xlink:title=" ">
<polygon fill="#e0e0e0" stroke="#999999" points="109.77,-129 16.77,-129 16.77,-110 109.77,-110 109.77,-129"/>
<text text-anchor="middle" x="63.27" y="-117" font-family="Helvetica,sans-Serif" font-size="10.00">unordered_map</text>
</a>
</g>
</g>
<!-- Node26&#45;&gt;Node27 -->
<g id="edge40_Node000026_Node000027" class="edge">
<title>Node26&#45;&gt;Node27</title>
<g id="a_edge40_Node000026_Node000027"><a xlink:title=" ">
<path fill="none" stroke="#63b8ff" d="M126.22,-164.98C114.8,-156.92 97.44,-144.65 83.83,-135.03"/>
<polygon fill="#63b8ff" stroke="#63b8ff" points="85.72,-132.08 75.54,-129.17 81.68,-137.8 85.72,-132.08"/>
</a>
</g>
</g>
</g>
</svg>

<g id="navigator" transform="translate(0 0)" fill="#404254">
  <rect fill="#f2f5e9" fill-opacity="0.5" stroke="#606060" stroke-width=".5" x="0" y="0" width="60" height="60"/>
  <use id="zoomplus" xlink:href="#zoomPlus" x="17" y="9" onmousedown="handleZoom(evt,'in')"/>
  <use id="zoomminus" xlink:href="#zoomMin" x="42" y="9" onmousedown="handleZoom(evt,'out')"/>
  <use id="reset" xlink:href="#resetDef" x="30" y="36" onmousedown="handleReset()"/>
   <use id="arrowup" xlink:href="#arrowUp" x="0" y="0" onmousedown="handlePan(0,-1)"/>
  <use id="arrowright" xlink:href="#arrowRight" x="0" y="0" onmousedown="handlePan(1,0)"/>
  <use id="arrowdown" xlink:href="#arrowDown" x="0" y="0" onmousedown="handlePan(0,1)"/>
  <use id="arrowleft" xlink:href="#arrowLeft" x="0" y="0" onmousedown="handlePan(-1,0)"/>
</g>
<svg viewBox="0 0 15 15" width="100%" height="30px" preserveAspectRatio="xMaxYMin meet">
 <g id="arrow_out" transform="scale(0.3 0.3)">
  <a xlink:href="PhysicsTests_8cpp__incl_org.svg" target="_base">
   <rect id="button" ry="5" rx="5" y="6" x="6" height="38" width="38"
        fill="#f2f5e9" fill-opacity="0.5" stroke="#606060" stroke-width="1.0"/>
   <path id="arrow"
     d="M 11.500037,31.436501 C 11.940474,20.09759 22.043105,11.32322 32.158766,21.979434 L 37.068811,17.246167 C 37.068811,17.246167 37.088388,32 37.088388,32 L 22.160133,31.978069 C 22.160133,31.978069 26.997745,27.140456 26.997745,27.140456 C 18.528582,18.264221 13.291696,25.230495 11.500037,31.436501 z"
     style="fill:#404040;"/>
  </a>
 </g>
</svg>

<style type='text/css'>
<![CDATA[
[data-mouse-over-selected='false'] { opacity: 0.7; }
[data-mouse-over-selected='true']  { opacity: 1.0; }
]]>
</style>
<script type="application/ecmascript"><![CDATA[
document.addEventListener('DOMContentLoaded', (event) => {
  highlightEdges();
  highlightAdjacentNodes();
});
]]></script>
</svg>
