<?xml version="1.0" encoding="UTF-8" standalone="no"?>
<!DOCTYPE svg PUBLIC "-//W3C//DTD SVG 1.1//EN"
 "http://www.w3.org/Graphics/SVG/1.1/DTD/svg11.dtd">
<!-- Generated by graphviz version 2.43.0 (0)
 -->
<!-- Title: src/physics/PhysicsSystem.h Pages: 1 -->
<svg width="1577pt" height="302pt"
 viewBox="0.00 0.00 1577.00 302.00" xmlns="http://www.w3.org/2000/svg" xmlns:xlink="http://www.w3.org/1999/xlink">
<g id="graph0" class="graph" transform="scale(1 1) rotate(0) translate(4 298)">
<title>src/physics/PhysicsSystem.h</title>
<!-- Node1 -->
<g id="Node000001" class="node">
<title>Node1</title>
<g id="a_Node000001"><a xlink:title=" ">
<polygon fill="#999999" stroke="#666666" points="993,-294 837,-294 837,-275 993,-275 993,-294"/>
<text text-anchor="middle" x="915" y="-282" font-family="Helvetica,sans-Serif" font-size="10.00">src/physics/PhysicsSystem.h</text>
</a>
</g>
</g>
<!-- Node2 -->
<g id="Node000002" class="node">
<title>Node2</title>
<g id="a_Node000002"><a xlink:title=" ">
<polygon fill="#e0e0e0" stroke="#999999" points="297.5,-129 250.5,-129 250.5,-110 297.5,-110 297.5,-129"/>
<text text-anchor="middle" x="274" y="-117" font-family="Helvetica,sans-Serif" font-size="10.00">vector</text>
</a>
</g>
</g>
<!-- Node1&#45;&gt;Node2 -->
<g id="edge1_Node000001_Node000002" class="edge">
<title>Node1&#45;&gt;Node2</title>
<g id="a_edge1_Node000001_Node000002"><a xlink:title=" ">
<path fill="none" stroke="#63b8ff" d="M836.74,-279.51C752.08,-274.2 613.44,-262.58 496,-239 412.32,-222.2 379.38,-236.4 312,-184 296.98,-172.32 286.63,-152.91 280.56,-138.62"/>
<polygon fill="#63b8ff" stroke="#63b8ff" points="283.81,-137.33 276.9,-129.3 277.3,-139.89 283.81,-137.33"/>
</a>
</g>
</g>
<!-- Node3 -->
<g id="Node000003" class="node">
<title>Node3</title>
<g id="a_Node000003"><a xlink:title=" ">
<polygon fill="#e0e0e0" stroke="#999999" points="149,-129 99,-129 99,-110 149,-110 149,-129"/>
<text text-anchor="middle" x="124" y="-117" font-family="Helvetica,sans-Serif" font-size="10.00">atomic</text>
</a>
</g>
</g>
<!-- Node1&#45;&gt;Node3 -->
<g id="edge2_Node000001_Node000003" class="edge">
<title>Node1&#45;&gt;Node3</title>
<g id="a_edge2_Node000001_Node000003"><a xlink:title=" ">
<path fill="none" stroke="#63b8ff" d="M836.75,-282.09C672.98,-278.61 298.98,-267.69 175,-239 113.08,-224.67 78.25,-236.88 43,-184 27.62,-160.93 60.66,-142.49 89.06,-131.55"/>
<polygon fill="#63b8ff" stroke="#63b8ff" points="90.63,-134.7 98.83,-128 88.23,-128.13 90.63,-134.7"/>
</a>
</g>
</g>
<!-- Node4 -->
<g id="Node000004" class="node">
<title>Node4</title>
<g id="a_Node000004"><a xlink:title=" ">
<polygon fill="#e0e0e0" stroke="#999999" points="48,-129 0,-129 0,-110 48,-110 48,-129"/>
<text text-anchor="middle" x="24" y="-117" font-family="Helvetica,sans-Serif" font-size="10.00">mutex</text>
</a>
</g>
</g>
<!-- Node1&#45;&gt;Node4 -->
<g id="edge3_Node000001_Node000004" class="edge">
<title>Node1&#45;&gt;Node4</title>
<g id="a_edge3_Node000001_Node000004"><a xlink:title=" ">
<path fill="none" stroke="#63b8ff" d="M836.66,-282.95C641.81,-281.08 146.18,-273 80,-239 52.16,-224.69 49.07,-212.44 36,-184 29.48,-169.81 26.5,-152.27 25.14,-139.23"/>
<polygon fill="#63b8ff" stroke="#63b8ff" points="28.62,-138.8 24.32,-129.11 21.64,-139.37 28.62,-138.8"/>
</a>
</g>
</g>
<!-- Node5 -->
<g id="Node000005" class="node">
<title>Node5</title>
<g id="a_Node000005"><a xlink:title=" ">
<polygon fill="#e0e0e0" stroke="#999999" points="1311,-239 1263,-239 1263,-220 1311,-220 1311,-239"/>
<text text-anchor="middle" x="1287" y="-227" font-family="Helvetica,sans-Serif" font-size="10.00">thread</text>
</a>
</g>
</g>
<!-- Node1&#45;&gt;Node5 -->
<g id="edge4_Node000001_Node000005" class="edge">
<title>Node1&#45;&gt;Node5</title>
<g id="a_edge4_Node000001_Node000005"><a xlink:title=" ">
<path fill="none" stroke="#63b8ff" d="M993.25,-275.04C1061.13,-267.23 1161.89,-254.51 1249,-239 1250.27,-238.77 1251.57,-238.53 1252.87,-238.28"/>
<polygon fill="#63b8ff" stroke="#63b8ff" points="1253.85,-241.66 1262.94,-236.22 1252.44,-234.8 1253.85,-241.66"/>
</a>
</g>
</g>
<!-- Node6 -->
<g id="Node000006" class="node">
<title>Node6</title>
<g id="a_Node000006"><a xlink:title=" ">
<polygon fill="#e0e0e0" stroke="#999999" points="1436.5,-239 1329.5,-239 1329.5,-220 1436.5,-220 1436.5,-239"/>
<text text-anchor="middle" x="1383" y="-227" font-family="Helvetica,sans-Serif" font-size="10.00">condition_variable</text>
</a>
</g>
</g>
<!-- Node1&#45;&gt;Node6 -->
<g id="edge5_Node000001_Node000006" class="edge">
<title>Node1&#45;&gt;Node6</title>
<g id="a_edge5_Node000001_Node000006"><a xlink:title=" ">
<path fill="none" stroke="#63b8ff" d="M993.09,-275.5C1072.46,-267.23 1199.27,-253.67 1319.29,-239.06"/>
<polygon fill="#63b8ff" stroke="#63b8ff" points="1319.89,-242.51 1329.4,-237.82 1319.04,-235.56 1319.89,-242.51"/>
</a>
</g>
</g>
<!-- Node7 -->
<g id="Node000007" class="node">
<title>Node7</title>
<g id="a_Node000007"><a xlink:title=" ">
<polygon fill="#e0e0e0" stroke="#999999" points="1260,-74 1204,-74 1204,-55 1260,-55 1260,-74"/>
<text text-anchor="middle" x="1232" y="-62" font-family="Helvetica,sans-Serif" font-size="10.00">optional</text>
</a>
</g>
</g>
<!-- Node1&#45;&gt;Node7 -->
<g id="edge6_Node000001_Node000007" class="edge">
<title>Node1&#45;&gt;Node7</title>
<g id="a_edge6_Node000001_Node000007"><a xlink:title=" ">
<path fill="none" stroke="#63b8ff" d="M973.74,-274.94C1060.97,-260.85 1217.86,-229.68 1249,-184 1269.88,-153.36 1253.4,-107.87 1241.49,-83.11"/>
<polygon fill="#63b8ff" stroke="#63b8ff" points="1244.59,-81.48 1236.94,-74.15 1238.35,-84.65 1244.59,-81.48"/>
</a>
</g>
</g>
<!-- Node8 -->
<g id="Node000008" class="node">
<title>Node8</title>
<g id="a_Node000008"><a xlink:href="RigidBody_8h.html" target="_top" xlink:title=" ">
<polygon fill="white" stroke="#666666" points="258,-239 184,-239 184,-220 258,-220 258,-239"/>
<text text-anchor="middle" x="221" y="-227" font-family="Helvetica,sans-Serif" font-size="10.00">RigidBody.h</text>
</a>
</g>
</g>
<!-- Node1&#45;&gt;Node8 -->
<g id="edge7_Node000001_Node000008" class="edge">
<title>Node1&#45;&gt;Node8</title>
<g id="a_edge7_Node000001_Node000008"><a xlink:title=" ">
<path fill="none" stroke="#63b8ff" d="M836.58,-280.5C715.24,-275.32 474.82,-262.86 272,-239 270.75,-238.85 269.48,-238.7 268.2,-238.53"/>
<polygon fill="#63b8ff" stroke="#63b8ff" points="268.65,-235.06 258.26,-237.14 267.68,-241.99 268.65,-235.06"/>
</a>
</g>
</g>
<!-- Node20 -->
<g id="Node000020" class="node">
<title>Node20</title>
<g id="a_Node000020"><a xlink:href="Constants_8h.html" target="_top" xlink:title=" ">
<polygon fill="white" stroke="#666666" points="1569,-239 1455,-239 1455,-220 1569,-220 1569,-239"/>
<text text-anchor="middle" x="1512" y="-227" font-family="Helvetica,sans-Serif" font-size="10.00">physics/Constants.h</text>
</a>
</g>
</g>
<!-- Node1&#45;&gt;Node20 -->
<g id="edge27_Node000001_Node000020" class="edge">
<title>Node1&#45;&gt;Node20</title>
<g id="a_edge27_Node000001_Node000020"><a xlink:title=" ">
<path fill="none" stroke="#63b8ff" d="M993.38,-278.03C1094.94,-270.69 1277.78,-256.65 1444.34,-239.13"/>
<polygon fill="#63b8ff" stroke="#63b8ff" points="1445.2,-242.56 1454.78,-238.03 1444.47,-235.6 1445.2,-242.56"/>
</a>
</g>
</g>
<!-- Node21 -->
<g id="Node000021" class="node">
<title>Node21</title>
<g id="a_Node000021"><a xlink:href="OneUnknownSolver_8h.html" target="_top" xlink:title=" ">
<polygon fill="white" stroke="#666666" points="1222,-184 1068,-184 1068,-165 1222,-165 1222,-184"/>
<text text-anchor="middle" x="1145" y="-172" font-family="Helvetica,sans-Serif" font-size="10.00">solver/OneUnknownSolver.h</text>
</a>
</g>
</g>
<!-- Node1&#45;&gt;Node21 -->
<g id="edge28_Node000001_Node000021" class="edge">
<title>Node1&#45;&gt;Node21</title>
<g id="a_edge28_Node000001_Node000021"><a xlink:title=" ">
<path fill="none" stroke="#63b8ff" d="M980.02,-274.95C1012.87,-268.56 1052.35,-257.61 1084,-239 1104.08,-227.19 1121.87,-206.95 1132.98,-192.49"/>
<polygon fill="#63b8ff" stroke="#63b8ff" points="1135.86,-194.48 1138.99,-184.36 1130.23,-190.32 1135.86,-194.48"/>
</a>
</g>
</g>
<!-- Node23 -->
<g id="Node000023" class="node">
<title>Node23</title>
<g id="a_Node000023"><a xlink:href="ProblemRouter_8h.html" target="_top" xlink:title=" ">
<polygon fill="white" stroke="#666666" points="1074.5,-239 943.5,-239 943.5,-220 1074.5,-220 1074.5,-239"/>
<text text-anchor="middle" x="1009" y="-227" font-family="Helvetica,sans-Serif" font-size="10.00">solver/ProblemRouter.h</text>
</a>
</g>
</g>
<!-- Node1&#45;&gt;Node23 -->
<g id="edge30_Node000001_Node000023" class="edge">
<title>Node1&#45;&gt;Node23</title>
<g id="a_edge30_Node000001_Node000023"><a xlink:title=" ">
<path fill="none" stroke="#63b8ff" d="M930.1,-274.98C944.82,-266.69 967.42,-253.94 984.67,-244.22"/>
<polygon fill="#63b8ff" stroke="#63b8ff" points="986.63,-247.13 993.62,-239.17 983.19,-241.03 986.63,-247.13"/>
</a>
</g>
</g>
<!-- Node24 -->
<g id="Node000024" class="node">
<title>Node24</title>
<g id="a_Node000024"><a xlink:href="VectorRootSolver_8h.html" target="_top" xlink:title=" ">
<polygon fill="white" stroke="#666666" points="1049.5,-184 940.5,-184 940.5,-165 1049.5,-165 1049.5,-184"/>
<text text-anchor="middle" x="995" y="-172" font-family="Helvetica,sans-Serif" font-size="10.00">VectorRootSolver.h</text>
</a>
</g>
</g>
<!-- Node1&#45;&gt;Node24 -->
<g id="edge51_Node000001_Node000024" class="edge">
<title>Node1&#45;&gt;Node24</title>
<g id="a_edge51_Node000001_Node000024"><a xlink:title=" ">
<path fill="none" stroke="#63b8ff" d="M915.81,-274.94C917.4,-261.98 921.91,-237.1 934,-220 942.93,-207.38 956.58,-196.94 968.7,-189.36"/>
<polygon fill="#63b8ff" stroke="#63b8ff" points="970.74,-192.22 977.57,-184.12 967.18,-186.19 970.74,-192.22"/>
</a>
</g>
</g>
<!-- Node26 -->
<g id="Node000026" class="node">
<title>Node26</title>
<g id="a_Node000026"><a xlink:href="Octree_8h.html" target="_top" xlink:title=" ">
<polygon fill="white" stroke="#666666" points="599,-239 505,-239 505,-220 599,-220 599,-239"/>
<text text-anchor="middle" x="552" y="-227" font-family="Helvetica,sans-Serif" font-size="10.00">spatial/Octree.h</text>
</a>
</g>
</g>
<!-- Node1&#45;&gt;Node26 -->
<g id="edge38_Node000001_Node000026" class="edge">
<title>Node1&#45;&gt;Node26</title>
<g id="a_edge38_Node000001_Node000026"><a xlink:title=" ">
<path fill="none" stroke="#63b8ff" d="M856.68,-274.98C788.62,-265.05 676.82,-248.72 609.24,-238.86"/>
<polygon fill="#63b8ff" stroke="#63b8ff" points="609.59,-235.37 599.19,-237.39 608.58,-242.3 609.59,-235.37"/>
</a>
</g>
</g>
<!-- Node29 -->
<g id="Node000029" class="node">
<title>Node29</title>
<g id="a_Node000029"><a xlink:href="BVH_8h.html" target="_top" xlink:title=" ">
<polygon fill="white" stroke="#666666" points="787.5,-239 704.5,-239 704.5,-220 787.5,-220 787.5,-239"/>
<text text-anchor="middle" x="746" y="-227" font-family="Helvetica,sans-Serif" font-size="10.00">spatial/BVH.h</text>
</a>
</g>
</g>
<!-- Node1&#45;&gt;Node29 -->
<g id="edge44_Node000001_Node000029" class="edge">
<title>Node1&#45;&gt;Node29</title>
<g id="a_edge44_Node000001_Node000029"><a xlink:title=" ">
<path fill="none" stroke="#63b8ff" d="M887.85,-274.98C859.47,-266.09 814.77,-252.07 783.14,-242.15"/>
<polygon fill="#63b8ff" stroke="#63b8ff" points="783.95,-238.73 773.37,-239.08 781.86,-245.41 783.95,-238.73"/>
</a>
</g>
</g>
<!-- Node8&#45;&gt;Node2 -->
<g id="edge9_Node000008_Node000002" class="edge">
<title>Node8&#45;&gt;Node2</title>
<g id="a_edge9_Node000008_Node000002"><a xlink:title=" ">
<path fill="none" stroke="#63b8ff" d="M225.34,-219.66C234.04,-201.93 253.77,-161.73 265.26,-138.32"/>
<polygon fill="#63b8ff" stroke="#63b8ff" points="268.49,-139.68 269.75,-129.16 262.2,-136.59 268.49,-139.68"/>
</a>
</g>
</g>
<!-- Node8&#45;&gt;Node4 -->
<g id="edge8_Node000008_Node000004" class="edge">
<title>Node8&#45;&gt;Node4</title>
<g id="a_edge8_Node000008_Node000004"><a xlink:title=" ">
<path fill="none" stroke="#63b8ff" d="M183.68,-223.56C137.64,-216.74 62.98,-203.09 43,-184 30.92,-172.46 26.43,-153.58 24.81,-139.41"/>
<polygon fill="#63b8ff" stroke="#63b8ff" points="28.28,-138.98 24.03,-129.27 21.31,-139.51 28.28,-138.98"/>
</a>
</g>
</g>
<!-- Node9 -->
<g id="Node000009" class="node">
<title>Node9</title>
<g id="a_Node000009"><a xlink:title=" ">
<polygon fill="#e0e0e0" stroke="#999999" points="785,-74 707,-74 707,-55 785,-55 785,-74"/>
<text text-anchor="middle" x="746" y="-62" font-family="Helvetica,sans-Serif" font-size="10.00">glm/glm.hpp</text>
</a>
</g>
</g>
<!-- Node8&#45;&gt;Node9 -->
<g id="edge10_Node000008_Node000009" class="edge">
<title>Node8&#45;&gt;Node9</title>
<g id="a_edge10_Node000008_Node000009"><a xlink:title=" ">
<path fill="none" stroke="#63b8ff" d="M219.32,-219.72C215.66,-197.55 209.58,-139.02 241,-110 274.02,-79.5 575.95,-69.34 696.56,-66.48"/>
<polygon fill="#63b8ff" stroke="#63b8ff" points="696.72,-69.98 706.64,-66.25 696.56,-62.98 696.72,-69.98"/>
</a>
</g>
</g>
<!-- Node10 -->
<g id="Node000010" class="node">
<title>Node10</title>
<g id="a_Node000010"><a xlink:title=" ">
<polygon fill="#e0e0e0" stroke="#999999" points="182,-184 52,-184 52,-165 182,-165 182,-184"/>
<text text-anchor="middle" x="117" y="-172" font-family="Helvetica,sans-Serif" font-size="10.00">glm/gtc/quaternion.hpp</text>
</a>
</g>
</g>
<!-- Node8&#45;&gt;Node10 -->
<g id="edge11_Node000008_Node000010" class="edge">
<title>Node8&#45;&gt;Node10</title>
<g id="a_edge11_Node000008_Node000010"><a xlink:title=" ">
<path fill="none" stroke="#63b8ff" d="M204.29,-219.98C187.79,-211.57 162.3,-198.59 143.12,-188.81"/>
<polygon fill="#63b8ff" stroke="#63b8ff" points="144.51,-185.59 134.01,-184.17 141.33,-191.83 144.51,-185.59"/>
</a>
</g>
</g>
<!-- Node11 -->
<g id="Node000011" class="node">
<title>Node11</title>
<g id="a_Node000011"><a xlink:href="ICollider_8h.html" target="_top" xlink:title="Abstract interface for collision detection shapes.">
<polygon fill="white" stroke="#666666" points="963.5,-129 850.5,-129 850.5,-110 963.5,-110 963.5,-129"/>
<text text-anchor="middle" x="907" y="-117" font-family="Helvetica,sans-Serif" font-size="10.00">bounding/ICollider.h</text>
</a>
</g>
</g>
<!-- Node8&#45;&gt;Node11 -->
<g id="edge12_Node000008_Node000011" class="edge">
<title>Node8&#45;&gt;Node11</title>
<g id="a_edge12_Node000008_Node000011"><a xlink:title=" ">
<path fill="none" stroke="#63b8ff" d="M258.03,-223.18C309.41,-215.6 405.14,-200.74 486,-184 520.52,-176.85 528.35,-171.49 563,-165 658.57,-147.09 770.43,-134.07 840.01,-126.9"/>
<polygon fill="#63b8ff" stroke="#63b8ff" points="840.79,-130.33 850.38,-125.84 840.08,-123.37 840.79,-130.33"/>
</a>
</g>
</g>
<!-- Node15 -->
<g id="Node000015" class="node">
<title>Node15</title>
<g id="a_Node000015"><a xlink:href="PhysicsBody_8h.html" target="_top" xlink:title=" ">
<polygon fill="white" stroke="#666666" points="477.5,-184 352.5,-184 352.5,-165 477.5,-165 477.5,-184"/>
<text text-anchor="middle" x="415" y="-172" font-family="Helvetica,sans-Serif" font-size="10.00">physics/PhysicsBody.h</text>
</a>
</g>
</g>
<!-- Node8&#45;&gt;Node15 -->
<g id="edge18_Node000008_Node000015" class="edge">
<title>Node8&#45;&gt;Node15</title>
<g id="a_edge18_Node000008_Node000015"><a xlink:title=" ">
<path fill="none" stroke="#63b8ff" d="M252.17,-219.98C285.16,-210.97 337.4,-196.7 373.77,-186.76"/>
<polygon fill="#63b8ff" stroke="#63b8ff" points="374.86,-190.09 383.59,-184.08 373.02,-183.34 374.86,-190.09"/>
</a>
</g>
</g>
<!-- Node11&#45;&gt;Node7 -->
<g id="edge15_Node000011_Node000007" class="edge">
<title>Node11&#45;&gt;Node7</title>
<g id="a_edge15_Node000011_Node000007"><a xlink:title=" ">
<path fill="none" stroke="#63b8ff" d="M959.22,-109.98C1024.72,-99.3 1135.5,-81.24 1193.69,-71.75"/>
<polygon fill="#63b8ff" stroke="#63b8ff" points="1194.27,-75.2 1203.58,-70.13 1193.15,-68.29 1194.27,-75.2"/>
</a>
</g>
</g>
<!-- Node11&#45;&gt;Node9 -->
<g id="edge13_Node000011_Node000009" class="edge">
<title>Node11&#45;&gt;Node9</title>
<g id="a_edge13_Node000011_Node000009"><a xlink:title=" ">
<path fill="none" stroke="#63b8ff" d="M881.13,-109.98C854.22,-101.13 811.88,-87.19 781.77,-77.28"/>
<polygon fill="#63b8ff" stroke="#63b8ff" points="782.66,-73.88 772.07,-74.08 780.47,-80.53 782.66,-73.88"/>
</a>
</g>
</g>
<!-- Node12 -->
<g id="Node000012" class="node">
<title>Node12</title>
<g id="a_Node000012"><a xlink:title=" ">
<polygon fill="#e0e0e0" stroke="#999999" points="1130,-74 1072,-74 1072,-55 1130,-55 1130,-74"/>
<text text-anchor="middle" x="1101" y="-62" font-family="Helvetica,sans-Serif" font-size="10.00">memory</text>
</a>
</g>
</g>
<!-- Node11&#45;&gt;Node12 -->
<g id="edge14_Node000011_Node000012" class="edge">
<title>Node11&#45;&gt;Node12</title>
<g id="a_edge14_Node000011_Node000012"><a xlink:title=" ">
<path fill="none" stroke="#63b8ff" d="M938.17,-109.98C971.85,-100.78 1025.57,-86.11 1062.02,-76.15"/>
<polygon fill="#63b8ff" stroke="#63b8ff" points="1063.09,-79.49 1071.81,-73.47 1061.24,-72.73 1063.09,-79.49"/>
</a>
</g>
</g>
<!-- Node13 -->
<g id="Node000013" class="node">
<title>Node13</title>
<g id="a_Node000013"><a xlink:href="Ray_8h.html" target="_top" xlink:title=" ">
<polygon fill="white" stroke="#666666" points="942.5,-74 871.5,-74 871.5,-55 942.5,-55 942.5,-74"/>
<text text-anchor="middle" x="907" y="-62" font-family="Helvetica,sans-Serif" font-size="10.00">math/Ray.h</text>
</a>
</g>
</g>
<!-- Node11&#45;&gt;Node13 -->
<g id="edge16_Node000011_Node000013" class="edge">
<title>Node11&#45;&gt;Node13</title>
<g id="a_edge16_Node000011_Node000013"><a xlink:title=" ">
<path fill="none" stroke="#63b8ff" d="M907,-109.75C907,-102.8 907,-92.85 907,-84.13"/>
<polygon fill="#63b8ff" stroke="#63b8ff" points="910.5,-84.09 907,-74.09 903.5,-84.09 910.5,-84.09"/>
</a>
</g>
</g>
<!-- Node14 -->
<g id="Node000014" class="node">
<title>Node14</title>
<g id="a_Node000014"><a xlink:title=" ">
<polygon fill="#e0e0e0" stroke="#999999" points="948.5,-19 865.5,-19 865.5,0 948.5,0 948.5,-19"/>
<text text-anchor="middle" x="907" y="-7" font-family="Helvetica,sans-Serif" font-size="10.00">glm/vec3.hpp</text>
</a>
</g>
</g>
<!-- Node13&#45;&gt;Node14 -->
<g id="edge17_Node000013_Node000014" class="edge">
<title>Node13&#45;&gt;Node14</title>
<g id="a_edge17_Node000013_Node000014"><a xlink:title=" ">
<path fill="none" stroke="#63b8ff" d="M907,-54.75C907,-47.8 907,-37.85 907,-29.13"/>
<polygon fill="#63b8ff" stroke="#63b8ff" points="910.5,-29.09 907,-19.09 903.5,-29.09 910.5,-29.09"/>
</a>
</g>
</g>
<!-- Node15&#45;&gt;Node2 -->
<g id="edge23_Node000015_Node000002" class="edge">
<title>Node15&#45;&gt;Node2</title>
<g id="a_edge23_Node000015_Node000002"><a xlink:title=" ">
<path fill="none" stroke="#63b8ff" d="M392.35,-164.98C369.15,-156.27 332.88,-142.63 306.6,-132.75"/>
<polygon fill="#63b8ff" stroke="#63b8ff" points="307.66,-129.41 297.07,-129.17 305.2,-135.97 307.66,-129.41"/>
</a>
</g>
</g>
<!-- Node15&#45;&gt;Node3 -->
<g id="edge19_Node000015_Node000003" class="edge">
<title>Node15&#45;&gt;Node3</title>
<g id="a_edge19_Node000015_Node000003"><a xlink:title=" ">
<path fill="none" stroke="#63b8ff" d="M368.25,-164.98C309.93,-154.36 211.53,-136.44 159.2,-126.91"/>
<polygon fill="#63b8ff" stroke="#63b8ff" points="159.54,-123.41 149.07,-125.07 158.28,-130.3 159.54,-123.41"/>
</a>
</g>
</g>
<!-- Node15&#45;&gt;Node4 -->
<g id="edge25_Node000015_Node000004" class="edge">
<title>Node15&#45;&gt;Node4</title>
<g id="a_edge25_Node000015_Node000004"><a xlink:title=" ">
<path fill="none" stroke="#63b8ff" d="M352.18,-164.98C268.75,-153.68 124.28,-134.09 58.46,-125.17"/>
<polygon fill="#63b8ff" stroke="#63b8ff" points="58.6,-121.66 48.22,-123.78 57.66,-128.59 58.6,-121.66"/>
</a>
</g>
</g>
<!-- Node15&#45;&gt;Node9 -->
<g id="edge22_Node000015_Node000009" class="edge">
<title>Node15&#45;&gt;Node9</title>
<g id="a_edge22_Node000015_Node000009"><a xlink:title=" ">
<path fill="none" stroke="#63b8ff" d="M418.99,-164.82C425.95,-150.74 441.72,-123.21 464,-110 502.43,-87.22 626.54,-74.46 696.63,-68.9"/>
<polygon fill="#63b8ff" stroke="#63b8ff" points="697.28,-72.36 706.98,-68.1 696.74,-65.38 697.28,-72.36"/>
</a>
</g>
</g>
<!-- Node16 -->
<g id="Node000016" class="node">
<title>Node16</title>
<g id="a_Node000016"><a xlink:title=" ">
<polygon fill="#e0e0e0" stroke="#999999" points="621,-129 577,-129 577,-110 621,-110 621,-129"/>
<text text-anchor="middle" x="599" y="-117" font-family="Helvetica,sans-Serif" font-size="10.00">string</text>
</a>
</g>
</g>
<!-- Node15&#45;&gt;Node16 -->
<g id="edge20_Node000015_Node000016" class="edge">
<title>Node15&#45;&gt;Node16</title>
<g id="a_edge20_Node000015_Node000016"><a xlink:title=" ">
<path fill="none" stroke="#63b8ff" d="M444.56,-164.98C477.98,-155.36 532.21,-139.74 566.71,-129.8"/>
<polygon fill="#63b8ff" stroke="#63b8ff" points="568.1,-133.04 576.74,-126.91 566.17,-126.32 568.1,-133.04"/>
</a>
</g>
</g>
<!-- Node17 -->
<g id="Node000017" class="node">
<title>Node17</title>
<g id="a_Node000017"><a xlink:title=" ">
<polygon fill="#e0e0e0" stroke="#999999" points="360.5,-129 315.5,-129 315.5,-110 360.5,-110 360.5,-129"/>
<text text-anchor="middle" x="338" y="-117" font-family="Helvetica,sans-Serif" font-size="10.00">utility</text>
</a>
</g>
</g>
<!-- Node15&#45;&gt;Node17 -->
<g id="edge21_Node000015_Node000017" class="edge">
<title>Node15&#45;&gt;Node17</title>
<g id="a_edge21_Node000015_Node000017"><a xlink:title=" ">
<path fill="none" stroke="#63b8ff" d="M402.63,-164.98C390.91,-156.92 373.08,-144.65 359.11,-135.03"/>
<polygon fill="#63b8ff" stroke="#63b8ff" points="360.82,-131.96 350.6,-129.17 356.85,-137.72 360.82,-131.96"/>
</a>
</g>
</g>
<!-- Node18 -->
<g id="Node000018" class="node">
<title>Node18</title>
<g id="a_Node000018"><a xlink:title=" ">
<polygon fill="#e0e0e0" stroke="#999999" points="417,-129 379,-129 379,-110 417,-110 417,-129"/>
<text text-anchor="middle" x="398" y="-117" font-family="Helvetica,sans-Serif" font-size="10.00">map</text>
</a>
</g>
</g>
<!-- Node15&#45;&gt;Node18 -->
<g id="edge24_Node000015_Node000018" class="edge">
<title>Node15&#45;&gt;Node18</title>
<g id="a_edge24_Node000015_Node000018"><a xlink:title=" ">
<path fill="none" stroke="#63b8ff" d="M412.19,-164.75C409.94,-157.72 406.7,-147.62 403.88,-138.84"/>
<polygon fill="#63b8ff" stroke="#63b8ff" points="407.14,-137.54 400.75,-129.09 400.48,-139.68 407.14,-137.54"/>
</a>
</g>
</g>
<!-- Node19 -->
<g id="Node000019" class="node">
<title>Node19</title>
<g id="a_Node000019"><a xlink:title=" ">
<polygon fill="#e0e0e0" stroke="#999999" points="559,-129 473,-129 473,-110 559,-110 559,-129"/>
<text text-anchor="middle" x="516" y="-117" font-family="Helvetica,sans-Serif" font-size="10.00">unordered_set</text>
</a>
</g>
</g>
<!-- Node15&#45;&gt;Node19 -->
<g id="edge26_Node000015_Node000019" class="edge">
<title>Node15&#45;&gt;Node19</title>
<g id="a_edge26_Node000015_Node000019"><a xlink:title=" ">
<path fill="none" stroke="#63b8ff" d="M431.23,-164.98C447.18,-156.61 471.78,-143.7 490.38,-133.95"/>
<polygon fill="#63b8ff" stroke="#63b8ff" points="492.25,-136.92 499.48,-129.17 489,-130.72 492.25,-136.92"/>
</a>
</g>
</g>
<!-- Node22 -->
<g id="Node000022" class="node">
<title>Node22</title>
<g id="a_Node000022"><a xlink:title=" ">
<polygon fill="#e0e0e0" stroke="#999999" points="1150.5,-129 1085.5,-129 1085.5,-110 1150.5,-110 1150.5,-129"/>
<text text-anchor="middle" x="1118" y="-117" font-family="Helvetica,sans-Serif" font-size="10.00">functional</text>
</a>
</g>
</g>
<!-- Node21&#45;&gt;Node22 -->
<g id="edge29_Node000021_Node000022" class="edge">
<title>Node21&#45;&gt;Node22</title>
<g id="a_edge29_Node000021_Node000022"><a xlink:title=" ">
<path fill="none" stroke="#63b8ff" d="M1140.54,-164.75C1136.88,-157.57 1131.59,-147.18 1127.05,-138.27"/>
<polygon fill="#63b8ff" stroke="#63b8ff" points="1130.03,-136.41 1122.38,-129.09 1123.8,-139.59 1130.03,-136.41"/>
</a>
</g>
</g>
<!-- Node23&#45;&gt;Node12 -->
<g id="edge32_Node000023_Node000012" class="edge">
<title>Node23&#45;&gt;Node12</title>
<g id="a_edge32_Node000023_Node000012"><a xlink:title=" ">
<path fill="none" stroke="#63b8ff" d="M1074.71,-224.34C1132.88,-219.12 1211.5,-207.79 1231,-184 1266.75,-140.37 1183.26,-98.02 1133.97,-77.81"/>
<polygon fill="#63b8ff" stroke="#63b8ff" points="1135.19,-74.53 1124.61,-74.07 1132.59,-81.03 1135.19,-74.53"/>
</a>
</g>
</g>
<!-- Node23&#45;&gt;Node16 -->
<g id="edge31_Node000023_Node000016" class="edge">
<title>Node23&#45;&gt;Node16</title>
<g id="a_edge31_Node000023_Node000016"><a xlink:title=" ">
<path fill="none" stroke="#63b8ff" d="M963.72,-219.92C921.8,-211.7 857.85,-198.43 803,-184 741.46,-167.81 670.78,-144.8 630.85,-131.38"/>
<polygon fill="#63b8ff" stroke="#63b8ff" points="631.74,-127.99 621.15,-128.11 629.51,-134.62 631.74,-127.99"/>
</a>
</g>
</g>
<!-- Node23&#45;&gt;Node21 -->
<g id="edge33_Node000023_Node000021" class="edge">
<title>Node23&#45;&gt;Node21</title>
<g id="a_edge33_Node000023_Node000021"><a xlink:title=" ">
<path fill="none" stroke="#63b8ff" d="M1030.85,-219.98C1053.12,-211.3 1087.9,-197.75 1113.22,-187.88"/>
<polygon fill="#63b8ff" stroke="#63b8ff" points="1114.71,-191.06 1122.75,-184.17 1112.16,-184.54 1114.71,-191.06"/>
</a>
</g>
</g>
<!-- Node23&#45;&gt;Node24 -->
<g id="edge34_Node000023_Node000024" class="edge">
<title>Node23&#45;&gt;Node24</title>
<g id="a_edge34_Node000023_Node000024"><a xlink:title=" ">
<path fill="none" stroke="#63b8ff" d="M1006.69,-219.75C1004.83,-212.72 1002.16,-202.62 999.85,-193.84"/>
<polygon fill="#63b8ff" stroke="#63b8ff" points="1003.21,-192.86 997.27,-184.09 996.44,-194.65 1003.21,-192.86"/>
</a>
</g>
</g>
<!-- Node24&#45;&gt;Node9 -->
<g id="edge36_Node000024_Node000009" class="edge">
<title>Node24&#45;&gt;Node9</title>
<g id="a_edge36_Node000024_Node000009"><a xlink:title=" ">
<path fill="none" stroke="#63b8ff" d="M952.57,-164.95C920.91,-157.7 877.09,-145.78 841,-129 825.83,-121.95 789.43,-96.64 766.35,-80.18"/>
<polygon fill="#63b8ff" stroke="#63b8ff" points="768.11,-77.14 757.94,-74.16 764.03,-82.83 768.11,-77.14"/>
</a>
</g>
</g>
<!-- Node24&#45;&gt;Node22 -->
<g id="edge35_Node000024_Node000022" class="edge">
<title>Node24&#45;&gt;Node22</title>
<g id="a_edge35_Node000024_Node000022"><a xlink:title=" ">
<path fill="none" stroke="#63b8ff" d="M1014.76,-164.98C1034.73,-156.38 1065.8,-142.99 1088.65,-133.15"/>
<polygon fill="#63b8ff" stroke="#63b8ff" points="1090.08,-136.34 1097.88,-129.17 1087.31,-129.91 1090.08,-136.34"/>
</a>
</g>
</g>
<!-- Node25 -->
<g id="Node000025" class="node">
<title>Node25</title>
<g id="a_Node000025"><a xlink:href="ISolver_8h.html" target="_top" xlink:title="Abstract interface for numerical solvers.">
<polygon fill="white" stroke="#666666" points="1040.5,-129 981.5,-129 981.5,-110 1040.5,-110 1040.5,-129"/>
<text text-anchor="middle" x="1011" y="-117" font-family="Helvetica,sans-Serif" font-size="10.00">ISolver.h</text>
</a>
</g>
</g>
<!-- Node24&#45;&gt;Node25 -->
<g id="edge37_Node000024_Node000025" class="edge">
<title>Node24&#45;&gt;Node25</title>
<g id="a_edge37_Node000024_Node000025"><a xlink:title=" ">
<path fill="none" stroke="#63b8ff" d="M997.64,-164.75C999.76,-157.72 1002.81,-147.62 1005.46,-138.84"/>
<polygon fill="#63b8ff" stroke="#63b8ff" points="1008.87,-139.67 1008.41,-129.09 1002.17,-137.65 1008.87,-139.67"/>
</a>
</g>
</g>
<!-- Node26&#45;&gt;Node2 -->
<g id="edge42_Node000026_Node000002" class="edge">
<title>Node26&#45;&gt;Node2</title>
<g id="a_edge42_Node000026_Node000002"><a xlink:title=" ">
<path fill="none" stroke="#63b8ff" d="M504.78,-225.59C460.78,-221.28 394.42,-210.56 343,-184 320.51,-172.38 299.89,-151.45 287.16,-136.81"/>
<polygon fill="#63b8ff" stroke="#63b8ff" points="289.73,-134.43 280.62,-129.03 284.38,-138.94 289.73,-134.43"/>
</a>
</g>
</g>
<!-- Node26&#45;&gt;Node9 -->
<g id="edge41_Node000026_Node000009" class="edge">
<title>Node26&#45;&gt;Node9</title>
<g id="a_edge41_Node000026_Node000009"><a xlink:title=" ">
<path fill="none" stroke="#63b8ff" d="M551.24,-219.79C550.56,-206.64 551.09,-181.52 563,-165 582.77,-137.58 600.28,-145.12 630,-129 661.57,-111.88 697.88,-91.97 721.34,-79.07"/>
<polygon fill="#63b8ff" stroke="#63b8ff" points="723.18,-82.05 730.26,-74.17 719.81,-75.92 723.18,-82.05"/>
</a>
</g>
</g>
<!-- Node26&#45;&gt;Node15 -->
<g id="edge39_Node000026_Node000015" class="edge">
<title>Node26&#45;&gt;Node15</title>
<g id="a_edge39_Node000026_Node000015"><a xlink:title=" ">
<path fill="none" stroke="#63b8ff" d="M529.99,-219.98C507.55,-211.3 472.52,-197.75 447.01,-187.88"/>
<polygon fill="#63b8ff" stroke="#63b8ff" points="448,-184.51 437.41,-184.17 445.48,-191.04 448,-184.51"/>
</a>
</g>
</g>
<!-- Node27 -->
<g id="Node000027" class="node">
<title>Node27</title>
<g id="a_Node000027"><a xlink:href="NodeIndex_8h.html" target="_top" xlink:title=" ">
<polygon fill="white" stroke="#666666" points="718,-184 640,-184 640,-165 718,-165 718,-184"/>
<text text-anchor="middle" x="679" y="-172" font-family="Helvetica,sans-Serif" font-size="10.00">NodeIndex.h</text>
</a>
</g>
</g>
<!-- Node26&#45;&gt;Node27 -->
<g id="edge40_Node000026_Node000027" class="edge">
<title>Node26&#45;&gt;Node27</title>
<g id="a_edge40_Node000026_Node000027"><a xlink:title=" ">
<path fill="none" stroke="#63b8ff" d="M572.4,-219.98C593.02,-211.38 625.11,-197.99 648.69,-188.15"/>
<polygon fill="#63b8ff" stroke="#63b8ff" points="650.34,-191.25 658.22,-184.17 647.65,-184.79 650.34,-191.25"/>
</a>
</g>
</g>
<!-- Node28 -->
<g id="Node000028" class="node">
<title>Node28</title>
<g id="a_Node000028"><a xlink:title=" ">
<polygon fill="#e0e0e0" stroke="#999999" points="622,-184 572,-184 572,-165 622,-165 622,-184"/>
<text text-anchor="middle" x="597" y="-172" font-family="Helvetica,sans-Serif" font-size="10.00">cstdint</text>
</a>
</g>
</g>
<!-- Node26&#45;&gt;Node28 -->
<g id="edge43_Node000026_Node000028" class="edge">
<title>Node26&#45;&gt;Node28</title>
<g id="a_edge43_Node000026_Node000028"><a xlink:title=" ">
<path fill="none" stroke="#63b8ff" d="M559.43,-219.75C565.85,-212.18 575.31,-201.05 583.12,-191.84"/>
<polygon fill="#63b8ff" stroke="#63b8ff" points="585.9,-193.98 589.71,-184.09 580.57,-189.45 585.9,-193.98"/>
</a>
</g>
</g>
<!-- Node29&#45;&gt;Node9 -->
<g id="edge45_Node000029_Node000009" class="edge">
<title>Node29&#45;&gt;Node9</title>
<g id="a_edge45_Node000029_Node000009"><a xlink:title=" ">
<path fill="none" stroke="#63b8ff" d="M746,-219.74C746,-194.31 746,-120.08 746,-84.69"/>
<polygon fill="#63b8ff" stroke="#63b8ff" points="749.5,-84.31 746,-74.31 742.5,-84.31 749.5,-84.31"/>
</a>
</g>
</g>
<!-- Node29&#45;&gt;Node15 -->
<g id="edge50_Node000029_Node000015" class="edge">
<title>Node29&#45;&gt;Node15</title>
<g id="a_edge50_Node000029_Node000015"><a xlink:title=" ">
<path fill="none" stroke="#63b8ff" d="M704.41,-221.84C647.44,-212.72 544.61,-196.25 478.11,-185.61"/>
<polygon fill="#63b8ff" stroke="#63b8ff" points="478.59,-182.14 468.17,-184.01 477.49,-189.05 478.59,-182.14"/>
</a>
</g>
</g>
<!-- Node29&#45;&gt;Node27 -->
<g id="edge49_Node000029_Node000027" class="edge">
<title>Node29&#45;&gt;Node27</title>
<g id="a_edge49_Node000029_Node000027"><a xlink:title=" ">
<path fill="none" stroke="#63b8ff" d="M735.24,-219.98C725.23,-212.07 710.11,-200.11 698.07,-190.58"/>
<polygon fill="#63b8ff" stroke="#63b8ff" points="699.97,-187.63 689.96,-184.17 695.63,-193.12 699.97,-187.63"/>
</a>
</g>
</g>
<!-- Node30 -->
<g id="Node000030" class="node">
<title>Node30</title>
<g id="a_Node000030"><a xlink:href="AABB_8h.html" target="_top" xlink:title=" ">
<polygon fill="white" stroke="#666666" points="922,-184 812,-184 812,-165 922,-165 922,-184"/>
<text text-anchor="middle" x="867" y="-172" font-family="Helvetica,sans-Serif" font-size="10.00">../bounding/AABB.h</text>
</a>
</g>
</g>
<!-- Node29&#45;&gt;Node30 -->
<g id="edge46_Node000029_Node000030" class="edge">
<title>Node29&#45;&gt;Node30</title>
<g id="a_edge46_Node000029_Node000030"><a xlink:title=" ">
<path fill="none" stroke="#63b8ff" d="M765.44,-219.98C784.99,-211.42 815.38,-198.11 837.82,-188.28"/>
<polygon fill="#63b8ff" stroke="#63b8ff" points="839.45,-191.39 847.21,-184.17 836.64,-184.98 839.45,-191.39"/>
</a>
</g>
</g>
<!-- Node30&#45;&gt;Node9 -->
<g id="edge47_Node000030_Node000009" class="edge">
<title>Node30&#45;&gt;Node9</title>
<g id="a_edge47_Node000030_Node000009"><a xlink:title=" ">
<path fill="none" stroke="#63b8ff" d="M854.37,-164.82C842.12,-156.21 823.22,-142.39 808,-129 790.76,-113.83 772.58,-94.79 760.39,-81.54"/>
<polygon fill="#63b8ff" stroke="#63b8ff" points="762.96,-79.16 753.64,-74.12 757.78,-83.87 762.96,-79.16"/>
</a>
</g>
</g>
<!-- Node30&#45;&gt;Node11 -->
<g id="edge48_Node000030_Node000011" class="edge">
<title>Node30&#45;&gt;Node11</title>
<g id="a_edge48_Node000030_Node000011"><a xlink:title=" ">
<path fill="none" stroke="#63b8ff" d="M873.61,-164.75C879.26,-157.26 887.54,-146.28 894.45,-137.13"/>
<polygon fill="#63b8ff" stroke="#63b8ff" points="897.29,-139.18 900.52,-129.09 891.7,-134.96 897.29,-139.18"/>
</a>
</g>
</g>
</g>
</svg>
