<?xml version="1.0" encoding="UTF-8" standalone="no"?>
<!DOCTYPE svg PUBLIC "-//W3C//DTD SVG 1.1//EN"
 "http://www.w3.org/Graphics/SVG/1.1/DTD/svg11.dtd">
<!-- Generated by graphviz version 2.43.0 (0)
 -->
<!-- Title: src/physics/PhysicsBody.h Pages: 1 -->
<svg width="2772pt" height="456pt"
 viewBox="0.00 0.00 2772.30 456.00" xmlns="http://www.w3.org/2000/svg" xmlns:xlink="http://www.w3.org/1999/xlink">
<g id="graph0" class="graph" transform="scale(1 1) rotate(0) translate(4 452)">
<title>src/physics/PhysicsBody.h</title>
<!-- Node1 -->
<g id="Node000001" class="node">
<title>Node1</title>
<g id="a_Node000001"><a xlink:title=" ">
<polygon fill="#999999" stroke="#666666" points="1940.8,-448 1797.8,-448 1797.8,-429 1940.8,-429 1940.8,-448"/>
<text text-anchor="middle" x="1869.3" y="-436" font-family="Helvetica,sans-Serif" font-size="10.00">src/physics/PhysicsBody.h</text>
</a>
</g>
</g>
<!-- Node2 -->
<g id="Node000002" class="node">
<title>Node2</title>
<g id="a_Node000002"><a xlink:href="PhysicsBody_8cpp.html" target="_top" xlink:title=" ">
<polygon fill="white" stroke="#666666" points="759.3,-387.5 605.3,-387.5 605.3,-368.5 759.3,-368.5 759.3,-387.5"/>
<text text-anchor="middle" x="682.3" y="-375.5" font-family="Helvetica,sans-Serif" font-size="10.00">src/physics/PhysicsBody.cpp</text>
</a>
</g>
</g>
<!-- Node1&#45;&gt;Node2 -->
<g id="edge1_Node000001_Node000002" class="edge">
<title>Node1&#45;&gt;Node2</title>
<g id="a_edge1_Node000001_Node000002"><a xlink:title=" ">
<path fill="none" stroke="#63b8ff" d="M1787.57,-437.31C1605.16,-436.19 1151.17,-429.62 773.3,-393 759.62,-391.67 744.86,-389.66 731.29,-387.57"/>
<polygon fill="#63b8ff" stroke="#63b8ff" points="1787.6,-440.81 1797.62,-437.36 1787.64,-433.81 1787.6,-440.81"/>
</a>
</g>
</g>
<!-- Node3 -->
<g id="Node000003" class="node">
<title>Node3</title>
<g id="a_Node000003"><a xlink:href="PointMass_8h.html" target="_top" xlink:title=" ">
<polygon fill="white" stroke="#666666" points="1251.8,-327 1118.8,-327 1118.8,-308 1251.8,-308 1251.8,-327"/>
<text text-anchor="middle" x="1185.3" y="-315" font-family="Helvetica,sans-Serif" font-size="10.00">src/physics/PointMass.h</text>
</a>
</g>
</g>
<!-- Node1&#45;&gt;Node3 -->
<g id="edge2_Node000001_Node000003" class="edge">
<title>Node1&#45;&gt;Node3</title>
<g id="a_edge2_Node000001_Node000003"><a xlink:title=" ">
<path fill="none" stroke="#63b8ff" d="M1811.23,-427.21C1729.56,-412.76 1576.12,-385.69 1445.3,-363 1372.43,-350.36 1288.02,-335.96 1235.64,-327.05"/>
<polygon fill="#63b8ff" stroke="#63b8ff" points="1810.85,-430.7 1821.3,-429 1812.07,-423.81 1810.85,-430.7"/>
</a>
</g>
</g>
<!-- Node10 -->
<g id="Node000010" class="node">
<title>Node10</title>
<g id="a_Node000010"><a xlink:href="RigidBody_8h.html" target="_top" xlink:title=" ">
<polygon fill="white" stroke="#666666" points="1436.8,-387.5 1305.8,-387.5 1305.8,-368.5 1436.8,-368.5 1436.8,-387.5"/>
<text text-anchor="middle" x="1371.3" y="-375.5" font-family="Helvetica,sans-Serif" font-size="10.00">src/physics/RigidBody.h</text>
</a>
</g>
</g>
<!-- Node1&#45;&gt;Node10 -->
<g id="edge9_Node000001_Node000010" class="edge">
<title>Node1&#45;&gt;Node10</title>
<g id="a_edge9_Node000001_Node000010"><a xlink:title=" ">
<path fill="none" stroke="#63b8ff" d="M1787.52,-427.89C1689.48,-416.38 1527.11,-397.3 1436.88,-386.7"/>
<polygon fill="#63b8ff" stroke="#63b8ff" points="1787.34,-431.4 1797.68,-429.09 1788.16,-424.44 1787.34,-431.4"/>
</a>
</g>
</g>
<!-- Node24 -->
<g id="Node000024" class="node">
<title>Node24</title>
<g id="a_Node000024"><a xlink:href="ForcesInspectorWidget_8cpp.html" target="_top" xlink:title=" ">
<polygon fill="white" stroke="#666666" points="198.3,-96 28.3,-96 28.3,-66 198.3,-66 198.3,-96"/>
<text text-anchor="start" x="36.3" y="-84" font-family="Helvetica,sans-Serif" font-size="10.00">src/ui/inspector/ForcesInspector</text>
<text text-anchor="middle" x="113.3" y="-73" font-family="Helvetica,sans-Serif" font-size="10.00">Widget.cpp</text>
</a>
</g>
</g>
<!-- Node1&#45;&gt;Node24 -->
<g id="edge64_Node000001_Node000024" class="edge">
<title>Node1&#45;&gt;Node24</title>
<g id="a_edge64_Node000001_Node000024"><a xlink:title=" ">
<path fill="none" stroke="#63b8ff" d="M1787.26,-437.07C1534.94,-434.66 787.3,-419.04 787.3,-318.5 787.3,-318.5 787.3,-318.5 787.3,-195.5 787.3,-188.12 379.51,-123.55 198.32,-95.22"/>
<polygon fill="#63b8ff" stroke="#63b8ff" points="1787.44,-440.57 1797.47,-437.16 1787.5,-433.57 1787.44,-440.57"/>
</a>
</g>
</g>
<!-- Node26 -->
<g id="Node000026" class="node">
<title>Node26</title>
<g id="a_Node000026"><a xlink:href="InspectorWidget_8cpp.html" target="_top" xlink:title=" ">
<polygon fill="white" stroke="#666666" points="2345.8,-96 2206.8,-96 2206.8,-66 2345.8,-66 2345.8,-96"/>
<text text-anchor="start" x="2214.8" y="-84" font-family="Helvetica,sans-Serif" font-size="10.00">src/ui/inspector/Inspector</text>
<text text-anchor="middle" x="2276.3" y="-73" font-family="Helvetica,sans-Serif" font-size="10.00">Widget.cpp</text>
</a>
</g>
</g>
<!-- Node1&#45;&gt;Node26 -->
<g id="edge65_Node000001_Node000026" class="edge">
<title>Node1&#45;&gt;Node26</title>
<g id="a_edge65_Node000001_Node000026"><a xlink:title=" ">
<path fill="none" stroke="#63b8ff" d="M1951.29,-430.25C2070.16,-417.44 2276.3,-385.56 2276.3,-318.5 2276.3,-318.5 2276.3,-318.5 2276.3,-195.5 2276.3,-159.83 2276.3,-117.86 2276.3,-96.33"/>
<polygon fill="#63b8ff" stroke="#63b8ff" points="1950.7,-426.79 1941.13,-431.32 1951.44,-433.76 1950.7,-426.79"/>
</a>
</g>
</g>
<!-- Node27 -->
<g id="Node000027" class="node">
<title>Node27</title>
<g id="a_Node000027"><a xlink:href="PhysicsInspectorWidget_8cpp.html" target="_top" xlink:title=" ">
<polygon fill="white" stroke="#666666" points="2494.8,-96 2363.8,-96 2363.8,-66 2494.8,-66 2494.8,-96"/>
<text text-anchor="start" x="2371.8" y="-84" font-family="Helvetica,sans-Serif" font-size="10.00">src/ui/inspector/Physics</text>
<text text-anchor="middle" x="2429.3" y="-73" font-family="Helvetica,sans-Serif" font-size="10.00">InspectorWidget.cpp</text>
</a>
</g>
</g>
<!-- Node1&#45;&gt;Node27 -->
<g id="edge66_Node000001_Node000027" class="edge">
<title>Node1&#45;&gt;Node27</title>
<g id="a_edge66_Node000001_Node000027"><a xlink:title=" ">
<path fill="none" stroke="#63b8ff" d="M1951.24,-436.73C2105.41,-433.04 2423.3,-413.88 2423.3,-318.5 2423.3,-318.5 2423.3,-318.5 2423.3,-195.5 2423.3,-159.78 2426.3,-117.84 2428.06,-96.32"/>
<polygon fill="#63b8ff" stroke="#63b8ff" points="1950.79,-433.24 1940.87,-436.96 1950.95,-440.23 1950.79,-433.24"/>
</a>
</g>
</g>
<!-- Node37 -->
<g id="Node000037" class="node">
<title>Node37</title>
<g id="a_Node000037"><a xlink:href="Octree_8h.html" target="_top" xlink:title=" ">
<polygon fill="white" stroke="#666666" points="1922.8,-393 1815.8,-393 1815.8,-363 1922.8,-363 1922.8,-393"/>
<text text-anchor="start" x="1823.8" y="-381" font-family="Helvetica,sans-Serif" font-size="10.00">src/physics/spatial</text>
<text text-anchor="middle" x="1869.3" y="-370" font-family="Helvetica,sans-Serif" font-size="10.00">/Octree.h</text>
</a>
</g>
</g>
<!-- Node1&#45;&gt;Node37 -->
<g id="edge59_Node000001_Node000037" class="edge">
<title>Node1&#45;&gt;Node37</title>
<g id="a_edge59_Node000001_Node000037"><a xlink:title=" ">
<path fill="none" stroke="#63b8ff" d="M1869.3,-418.65C1869.3,-410.36 1869.3,-400.78 1869.3,-393.11"/>
<polygon fill="#63b8ff" stroke="#63b8ff" points="1865.8,-418.87 1869.3,-428.87 1872.8,-418.87 1865.8,-418.87"/>
</a>
</g>
</g>
<!-- Node38 -->
<g id="Node000038" class="node">
<title>Node38</title>
<g id="a_Node000038"><a xlink:href="SnapshotTableModel_8cpp.html" target="_top" xlink:title=" ">
<polygon fill="white" stroke="#666666" points="2617.8,-387.5 2450.8,-387.5 2450.8,-368.5 2617.8,-368.5 2617.8,-387.5"/>
<text text-anchor="middle" x="2534.3" y="-375.5" font-family="Helvetica,sans-Serif" font-size="10.00">src/ui/SnapshotTableModel.cpp</text>
</a>
</g>
</g>
<!-- Node1&#45;&gt;Node38 -->
<g id="edge62_Node000001_Node000038" class="edge">
<title>Node1&#45;&gt;Node38</title>
<g id="a_edge62_Node000001_Node000038"><a xlink:title=" ">
<path fill="none" stroke="#63b8ff" d="M1951.25,-432.76C2061.8,-425.98 2264.75,-412.19 2437.3,-393 2451.08,-391.47 2465.92,-389.49 2479.74,-387.51"/>
<polygon fill="#63b8ff" stroke="#63b8ff" points="1950.94,-429.27 1941.17,-433.38 1951.37,-436.26 1950.94,-429.27"/>
</a>
</g>
</g>
<!-- Node39 -->
<g id="Node000039" class="node">
<title>Node39</title>
<g id="a_Node000039"><a xlink:href="SolverDialog_8cpp.html" target="_top" xlink:title=" ">
<polygon fill="white" stroke="#666666" points="2764.3,-387.5 2636.3,-387.5 2636.3,-368.5 2764.3,-368.5 2764.3,-387.5"/>
<text text-anchor="middle" x="2700.3" y="-375.5" font-family="Helvetica,sans-Serif" font-size="10.00">src/ui/SolverDialog.cpp</text>
</a>
</g>
</g>
<!-- Node1&#45;&gt;Node39 -->
<g id="edge63_Node000001_Node000039" class="edge">
<title>Node1&#45;&gt;Node39</title>
<g id="a_edge63_Node000001_Node000039"><a xlink:title=" ">
<path fill="none" stroke="#63b8ff" d="M1951.08,-436.2C2090.38,-433.21 2382.43,-423.53 2627.3,-393 2638.31,-391.63 2650.16,-389.6 2661.05,-387.5"/>
<polygon fill="#63b8ff" stroke="#63b8ff" points="1950.83,-432.71 1940.91,-436.41 1950.98,-439.7 1950.83,-432.71"/>
</a>
</g>
</g>
<!-- Node4 -->
<g id="Node000004" class="node">
<title>Node4</title>
<g id="a_Node000004"><a xlink:href="SceneObject_8cpp.html" target="_top" xlink:title=" ">
<polygon fill="white" stroke="#666666" points="399.8,-90.5 216.8,-90.5 216.8,-71.5 399.8,-71.5 399.8,-90.5"/>
<text text-anchor="middle" x="308.3" y="-78.5" font-family="Helvetica,sans-Serif" font-size="10.00">src/graphics/core/SceneObject.cpp</text>
</a>
</g>
</g>
<!-- Node3&#45;&gt;Node4 -->
<g id="edge3_Node000003_Node000004" class="edge">
<title>Node3&#45;&gt;Node4</title>
<g id="a_edge3_Node000003_Node000004"><a xlink:title=" ">
<path fill="none" stroke="#63b8ff" d="M1182.7,-297.58C1179.73,-281.51 1173.58,-258.49 1161.3,-242 1109.54,-172.49 1082.32,-159.97 1000.3,-132 875.77,-89.53 540.23,-109.04 409.3,-96 394.59,-94.53 378.73,-92.54 364.04,-90.51"/>
<polygon fill="#63b8ff" stroke="#63b8ff" points="1179.31,-298.54 1184.35,-307.86 1186.22,-297.43 1179.31,-298.54"/>
</a>
</g>
</g>
<!-- Node5 -->
<g id="Node000005" class="node">
<title>Node5</title>
<g id="a_Node000005"><a xlink:href="PhysicsSystem_8cpp.html" target="_top" xlink:title=" ">
<polygon fill="white" stroke="#666666" points="1424.8,-266.5 1257.8,-266.5 1257.8,-247.5 1424.8,-247.5 1424.8,-266.5"/>
<text text-anchor="middle" x="1341.3" y="-254.5" font-family="Helvetica,sans-Serif" font-size="10.00">src/physics/PhysicsSystem.cpp</text>
</a>
</g>
</g>
<!-- Node3&#45;&gt;Node5 -->
<g id="edge4_Node000003_Node000005" class="edge">
<title>Node3&#45;&gt;Node5</title>
<g id="a_edge4_Node000003_Node000005"><a xlink:title=" ">
<path fill="none" stroke="#63b8ff" d="M1217.63,-304.38C1247.78,-293.07 1292,-276.49 1318.59,-266.52"/>
<polygon fill="#63b8ff" stroke="#63b8ff" points="1216.12,-301.21 1207.98,-307.99 1218.58,-307.76 1216.12,-301.21"/>
</a>
</g>
</g>
<!-- Node6 -->
<g id="Node000006" class="node">
<title>Node6</title>
<g id="a_Node000006"><a xlink:href="PointMass_8cpp.html" target="_top" xlink:title=" ">
<polygon fill="white" stroke="#666666" points="959.3,-266.5 815.3,-266.5 815.3,-247.5 959.3,-247.5 959.3,-266.5"/>
<text text-anchor="middle" x="887.3" y="-254.5" font-family="Helvetica,sans-Serif" font-size="10.00">src/physics/PointMass.cpp</text>
</a>
</g>
</g>
<!-- Node3&#45;&gt;Node6 -->
<g id="edge5_Node000003_Node000006" class="edge">
<title>Node3&#45;&gt;Node6</title>
<g id="a_edge5_Node000003_Node000006"><a xlink:title=" ">
<path fill="none" stroke="#63b8ff" d="M1131.98,-306.03C1074.47,-294.74 984.01,-276.98 930.68,-266.52"/>
<polygon fill="#63b8ff" stroke="#63b8ff" points="1131.48,-309.5 1141.97,-307.99 1132.83,-302.63 1131.48,-309.5"/>
</a>
</g>
</g>
<!-- Node7 -->
<g id="Node000007" class="node">
<title>Node7</title>
<g id="a_Node000007"><a xlink:href="RigidBody_8cpp.html" target="_top" xlink:title=" ">
<polygon fill="white" stroke="#666666" points="1119.3,-266.5 977.3,-266.5 977.3,-247.5 1119.3,-247.5 1119.3,-266.5"/>
<text text-anchor="middle" x="1048.3" y="-254.5" font-family="Helvetica,sans-Serif" font-size="10.00">src/physics/RigidBody.cpp</text>
</a>
</g>
</g>
<!-- Node3&#45;&gt;Node7 -->
<g id="edge6_Node000003_Node000007" class="edge">
<title>Node3&#45;&gt;Node7</title>
<g id="a_edge6_Node000003_Node000007"><a xlink:title=" ">
<path fill="none" stroke="#63b8ff" d="M1155.87,-303.93C1129.42,-292.64 1091.29,-276.36 1068.24,-266.52"/>
<polygon fill="#63b8ff" stroke="#63b8ff" points="1154.81,-307.29 1165.38,-307.99 1157.56,-300.85 1154.81,-307.29"/>
</a>
</g>
</g>
<!-- Node8 -->
<g id="Node000008" class="node">
<title>Node8</title>
<g id="a_Node000008"><a xlink:href="HierarchyWidget_8cpp.html" target="_top" xlink:title=" ">
<polygon fill="white" stroke="#666666" points="1184.3,-24.5 1036.3,-24.5 1036.3,-5.5 1184.3,-5.5 1184.3,-24.5"/>
<text text-anchor="middle" x="1110.3" y="-12.5" font-family="Helvetica,sans-Serif" font-size="10.00">src/ui/HierarchyWidget.cpp</text>
</a>
</g>
</g>
<!-- Node3&#45;&gt;Node8 -->
<g id="edge7_Node000003_Node000008" class="edge">
<title>Node3&#45;&gt;Node8</title>
<g id="a_edge7_Node000003_Node000008"><a xlink:title=" ">
<path fill="none" stroke="#63b8ff" d="M1176.87,-298.59C1167.59,-281.05 1150.93,-255.08 1128.3,-242 912.29,-117.08 -153.97,-245.56 19.3,-66 58.21,-25.68 971.55,-35.67 1027.3,-30 1039.95,-28.71 1053.59,-26.68 1066.08,-24.57"/>
<polygon fill="#63b8ff" stroke="#63b8ff" points="1173.87,-300.42 1181.47,-307.79 1180.13,-297.28 1173.87,-300.42"/>
</a>
</g>
</g>
<!-- Node9 -->
<g id="Node000009" class="node">
<title>Node9</title>
<g id="a_Node000009"><a xlink:href="PhysicsTests_8cpp.html" target="_top" xlink:title=" ">
<polygon fill="white" stroke="#666666" points="1589.8,-266.5 1464.8,-266.5 1464.8,-247.5 1589.8,-247.5 1589.8,-266.5"/>
<text text-anchor="middle" x="1527.3" y="-254.5" font-family="Helvetica,sans-Serif" font-size="10.00">tests/PhysicsTests.cpp</text>
</a>
</g>
</g>
<!-- Node3&#45;&gt;Node9 -->
<g id="edge8_Node000003_Node000009" class="edge">
<title>Node3&#45;&gt;Node9</title>
<g id="a_edge8_Node000003_Node000009"><a xlink:title=" ">
<path fill="none" stroke="#63b8ff" d="M1245.27,-306.24C1311.2,-294.96 1415.93,-277.05 1477.51,-266.52"/>
<polygon fill="#63b8ff" stroke="#63b8ff" points="1244.3,-302.86 1235.03,-307.99 1245.48,-309.76 1244.3,-302.86"/>
</a>
</g>
</g>
<!-- Node10&#45;&gt;Node6 -->
<g id="edge57_Node000010_Node000006" class="edge">
<title>Node10&#45;&gt;Node6</title>
<g id="a_edge57_Node000010_Node000006"><a xlink:title=" ">
<path fill="none" stroke="#63b8ff" d="M1295.83,-367.5C1237.08,-359.25 1153.78,-345.69 1082.3,-327 1017.16,-309.97 942.83,-280.87 907.72,-266.52"/>
<polygon fill="#63b8ff" stroke="#63b8ff" points="1295.39,-370.97 1305.78,-368.88 1296.35,-364.04 1295.39,-370.97"/>
</a>
</g>
</g>
<!-- Node10&#45;&gt;Node7 -->
<g id="edge58_Node000010_Node000007" class="edge">
<title>Node10&#45;&gt;Node7</title>
<g id="a_edge58_Node000010_Node000007"><a xlink:title=" ">
<path fill="none" stroke="#63b8ff" d="M1295.6,-375.44C1240.71,-371.35 1166.41,-359.52 1109.3,-327 1083.18,-312.12 1062.53,-281.88 1053.4,-266.87"/>
<polygon fill="#63b8ff" stroke="#63b8ff" points="1295.4,-378.93 1305.62,-376.11 1295.88,-371.95 1295.4,-378.93"/>
</a>
</g>
</g>
<!-- Node11 -->
<g id="Node000011" class="node">
<title>Node11</title>
<g id="a_Node000011"><a xlink:href="PhysicsSystem_8h.html" target="_top" xlink:title=" ">
<polygon fill="white" stroke="#666666" points="1793.3,-327 1637.3,-327 1637.3,-308 1793.3,-308 1793.3,-327"/>
<text text-anchor="middle" x="1715.3" y="-315" font-family="Helvetica,sans-Serif" font-size="10.00">src/physics/PhysicsSystem.h</text>
</a>
</g>
</g>
<!-- Node10&#45;&gt;Node11 -->
<g id="edge10_Node000010_Node000011" class="edge">
<title>Node10&#45;&gt;Node11</title>
<g id="a_edge10_Node000010_Node000011"><a xlink:title=" ">
<path fill="none" stroke="#63b8ff" d="M1431.21,-366.81C1497.5,-355.54 1603.16,-337.57 1665.22,-327.02"/>
<polygon fill="#63b8ff" stroke="#63b8ff" points="1430.59,-363.37 1421.32,-368.49 1431.77,-370.27 1430.59,-363.37"/>
</a>
</g>
</g>
<!-- Node11&#45;&gt;Node5 -->
<g id="edge31_Node000011_Node000005" class="edge">
<title>Node11&#45;&gt;Node5</title>
<g id="a_edge31_Node000011_Node000005"><a xlink:title=" ">
<path fill="none" stroke="#63b8ff" d="M1650.61,-306.38C1578.56,-295.11 1463.36,-277.09 1395.75,-266.52"/>
<polygon fill="#63b8ff" stroke="#63b8ff" points="1650.5,-309.91 1660.92,-307.99 1651.58,-302.99 1650.5,-309.91"/>
</a>
</g>
</g>
<!-- Node11&#45;&gt;Node9 -->
<g id="edge56_Node000011_Node000009" class="edge">
<title>Node11&#45;&gt;Node9</title>
<g id="a_edge56_Node000011_Node000009"><a xlink:title=" ">
<path fill="none" stroke="#63b8ff" d="M1678.22,-304.96C1641.86,-293.65 1587.26,-276.66 1554.67,-266.52"/>
<polygon fill="#63b8ff" stroke="#63b8ff" points="1677.37,-308.36 1687.96,-307.99 1679.45,-301.68 1677.37,-308.36"/>
</a>
</g>
</g>
<!-- Node12 -->
<g id="Node000012" class="node">
<title>Node12</title>
<g id="a_Node000012"><a xlink:href="SceneObject_8h.html" target="_top" xlink:title=" ">
<polygon fill="white" stroke="#666666" points="1423.3,-151 1251.3,-151 1251.3,-132 1423.3,-132 1423.3,-151"/>
<text text-anchor="middle" x="1337.3" y="-139" font-family="Helvetica,sans-Serif" font-size="10.00">src/graphics/core/SceneObject.h</text>
</a>
</g>
</g>
<!-- Node11&#45;&gt;Node12 -->
<g id="edge11_Node000011_Node000012" class="edge">
<title>Node11&#45;&gt;Node12</title>
<g id="a_edge11_Node000011_Node000012"><a xlink:title=" ">
<path fill="none" stroke="#63b8ff" d="M1695.32,-302C1672.6,-285.93 1634.01,-259.94 1598.3,-242 1516.62,-200.96 1413.72,-166.41 1365.13,-151.04"/>
<polygon fill="#63b8ff" stroke="#63b8ff" points="1693.31,-304.86 1703.48,-307.83 1697.38,-299.17 1693.31,-304.86"/>
</a>
</g>
</g>
<!-- Node11&#45;&gt;Node26 -->
<g id="edge55_Node000011_Node000026" class="edge">
<title>Node11&#45;&gt;Node26</title>
<g id="a_edge55_Node000011_Node000026"><a xlink:title=" ">
<path fill="none" stroke="#63b8ff" d="M1803.86,-312.29C1862.31,-307.26 1939.73,-296.21 2004.3,-272 2115.41,-230.34 2223.83,-132.7 2261.94,-96.14"/>
<polygon fill="#63b8ff" stroke="#63b8ff" points="1803.22,-308.83 1793.54,-313.14 1803.8,-315.81 1803.22,-308.83"/>
</a>
</g>
</g>
<!-- Node29 -->
<g id="Node000029" class="node">
<title>Node29</title>
<g id="a_Node000029"><a xlink:href="ProblemRouter_8cpp.html" target="_top" xlink:title=" ">
<polygon fill="white" stroke="#666666" points="1813.3,-272 1701.3,-272 1701.3,-242 1813.3,-242 1813.3,-272"/>
<text text-anchor="start" x="1709.3" y="-260" font-family="Helvetica,sans-Serif" font-size="10.00">src/physics/solver</text>
<text text-anchor="middle" x="1757.3" y="-249" font-family="Helvetica,sans-Serif" font-size="10.00">/ProblemRouter.cpp</text>
</a>
</g>
</g>
<!-- Node11&#45;&gt;Node29 -->
<g id="edge32_Node000011_Node000029" class="edge">
<title>Node11&#45;&gt;Node29</title>
<g id="a_edge32_Node000011_Node000029"><a xlink:title=" ">
<path fill="none" stroke="#63b8ff" d="M1727.43,-299.61C1733.68,-290.89 1741.23,-280.39 1747.17,-272.11"/>
<polygon fill="#63b8ff" stroke="#63b8ff" points="1724.49,-297.7 1721.5,-307.87 1730.17,-301.79 1724.49,-297.7"/>
</a>
</g>
</g>
<!-- Node30 -->
<g id="Node000030" class="node">
<title>Node30</title>
<g id="a_Node000030"><a xlink:href="Octree_8cpp.html" target="_top" xlink:title=" ">
<polygon fill="white" stroke="#666666" points="2247.8,-272 2140.8,-272 2140.8,-242 2247.8,-242 2247.8,-272"/>
<text text-anchor="start" x="2148.8" y="-260" font-family="Helvetica,sans-Serif" font-size="10.00">src/physics/spatial</text>
<text text-anchor="middle" x="2194.3" y="-249" font-family="Helvetica,sans-Serif" font-size="10.00">/Octree.cpp</text>
</a>
</g>
</g>
<!-- Node11&#45;&gt;Node30 -->
<g id="edge33_Node000011_Node000030" class="edge">
<title>Node11&#45;&gt;Node30</title>
<g id="a_edge33_Node000011_Node000030"><a xlink:title=" ">
<path fill="none" stroke="#63b8ff" d="M1803.82,-309.37C1887.27,-302.07 2015.69,-289.33 2126.3,-272 2130.94,-271.27 2135.75,-270.44 2140.56,-269.56"/>
<polygon fill="#63b8ff" stroke="#63b8ff" points="1803.28,-305.9 1793.62,-310.25 1803.88,-312.88 1803.28,-305.9"/>
</a>
</g>
</g>
<!-- Node31 -->
<g id="Node000031" class="node">
<title>Node31</title>
<g id="a_Node000031"><a xlink:href="OpenGLWindow_8cpp.html" target="_top" xlink:title=" ">
<polygon fill="white" stroke="#666666" points="1744.3,-151 1602.3,-151 1602.3,-132 1744.3,-132 1744.3,-151"/>
<text text-anchor="middle" x="1673.3" y="-139" font-family="Helvetica,sans-Serif" font-size="10.00">src/ui/OpenGLWindow.cpp</text>
</a>
</g>
</g>
<!-- Node11&#45;&gt;Node31 -->
<g id="edge34_Node000011_Node000031" class="edge">
<title>Node11&#45;&gt;Node31</title>
<g id="a_edge34_Node000011_Node000031"><a xlink:title=" ">
<path fill="none" stroke="#63b8ff" d="M1704.53,-298.97C1700.09,-291.01 1695.29,-281.3 1692.3,-272 1678.17,-228.09 1674.5,-172.39 1673.59,-151.21"/>
<polygon fill="#63b8ff" stroke="#63b8ff" points="1701.55,-300.81 1709.62,-307.68 1707.59,-297.28 1701.55,-300.81"/>
</a>
</g>
</g>
<!-- Node32 -->
<g id="Node000032" class="node">
<title>Node32</title>
<g id="a_Node000032"><a xlink:href="OpenGLWindow_8h.html" target="_top" xlink:title=" ">
<polygon fill="white" stroke="#666666" points="1995.8,-266.5 1864.8,-266.5 1864.8,-247.5 1995.8,-247.5 1995.8,-266.5"/>
<text text-anchor="middle" x="1930.3" y="-254.5" font-family="Helvetica,sans-Serif" font-size="10.00">src/ui/OpenGLWindow.h</text>
</a>
</g>
</g>
<!-- Node11&#45;&gt;Node32 -->
<g id="edge35_Node000011_Node000032" class="edge">
<title>Node11&#45;&gt;Node32</title>
<g id="a_edge35_Node000011_Node000032"><a xlink:title=" ">
<path fill="none" stroke="#63b8ff" d="M1756.38,-305.32C1797.95,-294.01 1861.32,-276.77 1899,-266.52"/>
<polygon fill="#63b8ff" stroke="#63b8ff" points="1755.29,-301.99 1746.56,-307.99 1757.13,-308.75 1755.29,-301.99"/>
</a>
</g>
</g>
<!-- Node12&#45;&gt;Node4 -->
<g id="edge21_Node000012_Node000004" class="edge">
<title>Node12&#45;&gt;Node4</title>
<g id="a_edge21_Node000012_Node000004"><a xlink:title=" ">
<path fill="none" stroke="#63b8ff" d="M1241.14,-132.25C1239.85,-132.17 1238.57,-132.08 1237.3,-132 869.71,-108.4 776.14,-129.32 409.3,-96 394.23,-94.63 377.96,-92.61 362.97,-90.54"/>
<polygon fill="#63b8ff" stroke="#63b8ff" points="1240.91,-135.74 1251.13,-132.95 1241.4,-128.76 1240.91,-135.74"/>
</a>
</g>
</g>
<!-- Node13 -->
<g id="Node000013" class="node">
<title>Node13</title>
<g id="a_Node000013"><a xlink:href="Gizmo_8cpp.html" target="_top" xlink:title=" ">
<polygon fill="white" stroke="#666666" points="1340.3,-30 1202.3,-30 1202.3,0 1340.3,0 1340.3,-30"/>
<text text-anchor="start" x="1210.3" y="-18" font-family="Helvetica,sans-Serif" font-size="10.00">src/graphics/components</text>
<text text-anchor="middle" x="1271.3" y="-7" font-family="Helvetica,sans-Serif" font-size="10.00">/Gizmo.cpp</text>
</a>
</g>
</g>
<!-- Node12&#45;&gt;Node13 -->
<g id="edge12_Node000012_Node000013" class="edge">
<title>Node12&#45;&gt;Node13</title>
<g id="a_edge12_Node000012_Node000013"><a xlink:title=" ">
<path fill="none" stroke="#63b8ff" d="M1296.44,-128.12C1281.06,-121.26 1265.16,-110.98 1256.3,-96 1244.07,-75.32 1254.7,-46.83 1263.22,-30.02"/>
<polygon fill="#63b8ff" stroke="#63b8ff" points="1295.3,-131.44 1305.88,-131.97 1297.94,-124.96 1295.3,-131.44"/>
</a>
</g>
</g>
<!-- Node14 -->
<g id="Node000014" class="node">
<title>Node14</title>
<g id="a_Node000014"><a xlink:href="RotateHandle_8cpp.html" target="_top" xlink:title=" ">
<polygon fill="white" stroke="#666666" points="1209.3,-96 1071.3,-96 1071.3,-66 1209.3,-66 1209.3,-96"/>
<text text-anchor="start" x="1079.3" y="-84" font-family="Helvetica,sans-Serif" font-size="10.00">src/graphics/components</text>
<text text-anchor="middle" x="1140.3" y="-73" font-family="Helvetica,sans-Serif" font-size="10.00">/RotateHandle.cpp</text>
</a>
</g>
</g>
<!-- Node12&#45;&gt;Node14 -->
<g id="edge13_Node000012_Node000014" class="edge">
<title>Node12&#45;&gt;Node14</title>
<g id="a_edge13_Node000012_Node000014"><a xlink:title=" ">
<path fill="none" stroke="#63b8ff" d="M1298.83,-129.08C1267.02,-119.63 1221.7,-106.17 1187.66,-96.06"/>
<polygon fill="#63b8ff" stroke="#63b8ff" points="1298.07,-132.5 1308.65,-131.99 1300.06,-125.79 1298.07,-132.5"/>
</a>
</g>
</g>
<!-- Node15 -->
<g id="Node000015" class="node">
<title>Node15</title>
<g id="a_Node000015"><a xlink:href="ScaleHandle_8h.html" target="_top" xlink:title=" ">
<polygon fill="white" stroke="#666666" points="1053.3,-96 915.3,-96 915.3,-66 1053.3,-66 1053.3,-96"/>
<text text-anchor="start" x="923.3" y="-84" font-family="Helvetica,sans-Serif" font-size="10.00">src/graphics/components</text>
<text text-anchor="middle" x="984.3" y="-73" font-family="Helvetica,sans-Serif" font-size="10.00">/ScaleHandle.h</text>
</a>
</g>
</g>
<!-- Node12&#45;&gt;Node15 -->
<g id="edge14_Node000012_Node000015" class="edge">
<title>Node12&#45;&gt;Node15</title>
<g id="a_edge14_Node000012_Node000015"><a xlink:title=" ">
<path fill="none" stroke="#63b8ff" d="M1272.9,-130.4C1217.14,-121.58 1134.33,-108.29 1062.3,-96 1059.45,-95.51 1056.55,-95.01 1053.61,-94.5"/>
<polygon fill="#63b8ff" stroke="#63b8ff" points="1272.56,-133.89 1282.99,-131.99 1273.66,-126.98 1272.56,-133.89"/>
</a>
</g>
</g>
<!-- Node17 -->
<g id="Node000017" class="node">
<title>Node17</title>
<g id="a_Node000017"><a xlink:href="TranslateHandle_8cpp.html" target="_top" xlink:title=" ">
<polygon fill="white" stroke="#666666" points="556.3,-96 418.3,-96 418.3,-66 556.3,-66 556.3,-96"/>
<text text-anchor="start" x="426.3" y="-84" font-family="Helvetica,sans-Serif" font-size="10.00">src/graphics/components</text>
<text text-anchor="middle" x="487.3" y="-73" font-family="Helvetica,sans-Serif" font-size="10.00">/TranslateHandle.cpp</text>
</a>
</g>
</g>
<!-- Node12&#45;&gt;Node17 -->
<g id="edge17_Node000012_Node000017" class="edge">
<title>Node12&#45;&gt;Node17</title>
<g id="a_edge17_Node000012_Node000017"><a xlink:title=" ">
<path fill="none" stroke="#63b8ff" d="M1241.14,-132.27C1239.85,-132.18 1238.57,-132.09 1237.3,-132 938.92,-111.33 862.4,-130.49 565.3,-96 562.43,-95.67 559.51,-95.29 556.56,-94.89"/>
<polygon fill="#63b8ff" stroke="#63b8ff" points="1240.9,-135.76 1251.13,-133 1241.41,-128.78 1240.9,-135.76"/>
</a>
</g>
</g>
<!-- Node18 -->
<g id="Node000018" class="node">
<title>Node18</title>
<g id="a_Node000018"><a xlink:href="Camera_8cpp.html" target="_top" xlink:title=" ">
<polygon fill="white" stroke="#666666" points="735.8,-90.5 574.8,-90.5 574.8,-71.5 735.8,-71.5 735.8,-90.5"/>
<text text-anchor="middle" x="655.3" y="-78.5" font-family="Helvetica,sans-Serif" font-size="10.00">src/graphics/core/Camera.cpp</text>
</a>
</g>
</g>
<!-- Node12&#45;&gt;Node18 -->
<g id="edge18_Node000012_Node000018" class="edge">
<title>Node12&#45;&gt;Node18</title>
<g id="a_edge18_Node000012_Node000018"><a xlink:title=" ">
<path fill="none" stroke="#63b8ff" d="M1241.14,-132.3C1239.85,-132.2 1238.57,-132.1 1237.3,-132 1018.29,-114.7 962.56,-121.09 744.3,-96 731.4,-94.52 717.51,-92.52 704.63,-90.51"/>
<polygon fill="#63b8ff" stroke="#63b8ff" points="1240.87,-135.79 1251.12,-133.11 1241.43,-128.82 1240.87,-135.79"/>
</a>
</g>
</g>
<!-- Node19 -->
<g id="Node000019" class="node">
<title>Node19</title>
<g id="a_Node000019"><a xlink:href="Scene_8cpp.html" target="_top" xlink:title=" ">
<polygon fill="white" stroke="#666666" points="1573.3,-90.5 1421.3,-90.5 1421.3,-71.5 1573.3,-71.5 1573.3,-90.5"/>
<text text-anchor="middle" x="1497.3" y="-78.5" font-family="Helvetica,sans-Serif" font-size="10.00">src/graphics/core/Scene.cpp</text>
</a>
</g>
</g>
<!-- Node12&#45;&gt;Node19 -->
<g id="edge19_Node000012_Node000019" class="edge">
<title>Node12&#45;&gt;Node19</title>
<g id="a_edge19_Node000012_Node000019"><a xlink:title=" ">
<path fill="none" stroke="#63b8ff" d="M1370.05,-128.52C1400.99,-117.21 1446.62,-100.53 1474.01,-90.52"/>
<polygon fill="#63b8ff" stroke="#63b8ff" points="1368.76,-125.27 1360.57,-131.99 1371.16,-131.85 1368.76,-125.27"/>
</a>
</g>
</g>
<!-- Node20 -->
<g id="Node000020" class="node">
<title>Node20</title>
<g id="a_Node000020"><a xlink:href="SceneManager_8cpp.html" target="_top" xlink:title=" ">
<polygon fill="white" stroke="#666666" points="2150.3,-90.5 1956.3,-90.5 1956.3,-71.5 2150.3,-71.5 2150.3,-90.5"/>
<text text-anchor="middle" x="2053.3" y="-78.5" font-family="Helvetica,sans-Serif" font-size="10.00">src/graphics/core/SceneManager.cpp</text>
</a>
</g>
</g>
<!-- Node12&#45;&gt;Node20 -->
<g id="edge20_Node000012_Node000020" class="edge">
<title>Node12&#45;&gt;Node20</title>
<g id="a_edge20_Node000012_Node000020"><a xlink:title=" ">
<path fill="none" stroke="#63b8ff" d="M1433.69,-135.16C1553.88,-128.12 1765.55,-114.41 1946.3,-96 1961.4,-94.46 1977.65,-92.5 1992.82,-90.53"/>
<polygon fill="#63b8ff" stroke="#63b8ff" points="1433.19,-131.69 1423.41,-135.76 1433.6,-138.67 1433.19,-131.69"/>
</a>
</g>
</g>
<!-- Node21 -->
<g id="Node000021" class="node">
<title>Node21</title>
<g id="a_Node000021"><a xlink:href="SceneSerializer_8cpp.html" target="_top" xlink:title=" ">
<polygon fill="white" stroke="#666666" points="1937.8,-90.5 1740.8,-90.5 1740.8,-71.5 1937.8,-71.5 1937.8,-90.5"/>
<text text-anchor="middle" x="1839.3" y="-78.5" font-family="Helvetica,sans-Serif" font-size="10.00">src/graphics/core/SceneSerializer.cpp</text>
</a>
</g>
</g>
<!-- Node12&#45;&gt;Node21 -->
<g id="edge22_Node000012_Node000021" class="edge">
<title>Node12&#45;&gt;Node21</title>
<g id="a_edge22_Node000012_Node000021"><a xlink:title=" ">
<path fill="none" stroke="#63b8ff" d="M1426.23,-130.88C1506.12,-122.13 1626.61,-108.7 1731.3,-96 1745.47,-94.28 1760.68,-92.36 1775.07,-90.5"/>
<polygon fill="#63b8ff" stroke="#63b8ff" points="1425.77,-127.41 1416.21,-131.97 1426.53,-134.37 1425.77,-127.41"/>
</a>
</g>
</g>
<!-- Node22 -->
<g id="Node000022" class="node">
<title>Node22</title>
<g id="a_Node000022"><a xlink:href="HierarchyWidget_8h.html" target="_top" xlink:title=" ">
<polygon fill="white" stroke="#666666" points="1402.8,-90.5 1265.8,-90.5 1265.8,-71.5 1402.8,-71.5 1402.8,-90.5"/>
<text text-anchor="middle" x="1334.3" y="-78.5" font-family="Helvetica,sans-Serif" font-size="10.00">src/ui/HierarchyWidget.h</text>
</a>
</g>
</g>
<!-- Node12&#45;&gt;Node22 -->
<g id="edge23_Node000012_Node000022" class="edge">
<title>Node12&#45;&gt;Node22</title>
<g id="a_edge23_Node000012_Node000022"><a xlink:title=" ">
<path fill="none" stroke="#63b8ff" d="M1336.33,-121.66C1335.8,-111.24 1335.16,-98.8 1334.74,-90.67"/>
<polygon fill="#63b8ff" stroke="#63b8ff" points="1332.85,-122.06 1336.86,-131.87 1339.84,-121.7 1332.85,-122.06"/>
</a>
</g>
</g>
<!-- Node12&#45;&gt;Node24 -->
<g id="edge26_Node000012_Node000024" class="edge">
<title>Node12&#45;&gt;Node24</title>
<g id="a_edge26_Node000012_Node000024"><a xlink:title=" ">
<path fill="none" stroke="#63b8ff" d="M1240.94,-138.05C1005.67,-131.86 406.65,-114.71 207.3,-96 204.34,-95.72 201.34,-95.41 198.3,-95.08"/>
<polygon fill="#63b8ff" stroke="#63b8ff" points="1241.1,-141.56 1251.19,-138.32 1241.28,-134.56 1241.1,-141.56"/>
</a>
</g>
</g>
<!-- Node25 -->
<g id="Node000025" class="node">
<title>Node25</title>
<g id="a_Node000025"><a xlink:href="GlobalsInspectorWidget_8cpp.html" target="_top" xlink:title=" ">
<polygon fill="white" stroke="#666666" points="1722.8,-96 1591.8,-96 1591.8,-66 1722.8,-66 1722.8,-96"/>
<text text-anchor="start" x="1599.8" y="-84" font-family="Helvetica,sans-Serif" font-size="10.00">src/ui/inspector/Globals</text>
<text text-anchor="middle" x="1657.3" y="-73" font-family="Helvetica,sans-Serif" font-size="10.00">InspectorWidget.cpp</text>
</a>
</g>
</g>
<!-- Node12&#45;&gt;Node25 -->
<g id="edge27_Node000012_Node000025" class="edge">
<title>Node12&#45;&gt;Node25</title>
<g id="a_edge27_Node000012_Node000025"><a xlink:title=" ">
<path fill="none" stroke="#63b8ff" d="M1394.65,-130.17C1444.31,-121.2 1518.06,-107.83 1582.3,-96 1585.3,-95.45 1588.36,-94.88 1591.45,-94.31"/>
<polygon fill="#63b8ff" stroke="#63b8ff" points="1393.96,-126.73 1384.74,-131.95 1395.2,-133.62 1393.96,-126.73"/>
</a>
</g>
</g>
<!-- Node12&#45;&gt;Node26 -->
<g id="edge28_Node000012_Node000026" class="edge">
<title>Node12&#45;&gt;Node26</title>
<g id="a_edge28_Node000012_Node000026"><a xlink:title=" ">
<path fill="none" stroke="#63b8ff" d="M1433.87,-137.31C1587.63,-131.77 1897.46,-118.73 2159.3,-96 2174.69,-94.66 2191.17,-92.9 2206.78,-91.07"/>
<polygon fill="#63b8ff" stroke="#63b8ff" points="1433.39,-133.82 1423.52,-137.68 1433.64,-140.82 1433.39,-133.82"/>
</a>
</g>
</g>
<!-- Node12&#45;&gt;Node27 -->
<g id="edge29_Node000012_Node000027" class="edge">
<title>Node12&#45;&gt;Node27</title>
<g id="a_edge29_Node000012_Node000027"><a xlink:title=" ">
<path fill="none" stroke="#63b8ff" d="M1433.88,-137.05C1670.16,-128.5 2264.61,-106.28 2354.3,-96 2357.33,-95.65 2360.41,-95.26 2363.53,-94.82"/>
<polygon fill="#63b8ff" stroke="#63b8ff" points="1433.45,-133.56 1423.58,-137.42 1433.7,-140.56 1433.45,-133.56"/>
</a>
</g>
</g>
<!-- Node28 -->
<g id="Node000028" class="node">
<title>Node28</title>
<g id="a_Node000028"><a xlink:href="TransformInspectorWidget_8cpp.html" target="_top" xlink:title=" ">
<polygon fill="white" stroke="#666666" points="896.8,-96 753.8,-96 753.8,-66 896.8,-66 896.8,-96"/>
<text text-anchor="start" x="761.8" y="-84" font-family="Helvetica,sans-Serif" font-size="10.00">src/ui/inspector/Transform</text>
<text text-anchor="middle" x="825.3" y="-73" font-family="Helvetica,sans-Serif" font-size="10.00">InspectorWidget.cpp</text>
</a>
</g>
</g>
<!-- Node12&#45;&gt;Node28 -->
<g id="edge30_Node000012_Node000028" class="edge">
<title>Node12&#45;&gt;Node28</title>
<g id="a_edge30_Node000012_Node000028"><a xlink:title=" ">
<path fill="none" stroke="#63b8ff" d="M1240.94,-131.32C1134.15,-121.02 968.74,-104.61 906.3,-96 903.19,-95.57 900.02,-95.11 896.81,-94.63"/>
<polygon fill="#63b8ff" stroke="#63b8ff" points="1240.8,-134.83 1251.09,-132.3 1241.47,-127.86 1240.8,-134.83"/>
</a>
</g>
</g>
<!-- Node15&#45;&gt;Node13 -->
<g id="edge15_Node000015_Node000013" class="edge">
<title>Node15&#45;&gt;Node13</title>
<g id="a_edge15_Node000015_Node000013"><a xlink:title=" ">
<path fill="none" stroke="#63b8ff" d="M1057.33,-63.71C1104.01,-53.31 1163.92,-39.95 1208.46,-30.01"/>
<polygon fill="#63b8ff" stroke="#63b8ff" points="1056.28,-60.36 1047.28,-65.95 1057.81,-67.19 1056.28,-60.36"/>
</a>
</g>
</g>
<!-- Node16 -->
<g id="Node000016" class="node">
<title>Node16</title>
<g id="a_Node000016"><a xlink:href="ScaleHandle_8cpp.html" target="_top" xlink:title=" ">
<polygon fill="white" stroke="#666666" points="1018.3,-30 880.3,-30 880.3,0 1018.3,0 1018.3,-30"/>
<text text-anchor="start" x="888.3" y="-18" font-family="Helvetica,sans-Serif" font-size="10.00">src/graphics/components</text>
<text text-anchor="middle" x="949.3" y="-7" font-family="Helvetica,sans-Serif" font-size="10.00">/ScaleHandle.cpp</text>
</a>
</g>
</g>
<!-- Node15&#45;&gt;Node16 -->
<g id="edge16_Node000015_Node000016" class="edge">
<title>Node15&#45;&gt;Node16</title>
<g id="a_edge16_Node000015_Node000016"><a xlink:title=" ">
<path fill="none" stroke="#63b8ff" d="M971.7,-56.96C966.8,-48 961.35,-38.03 957.05,-30.16"/>
<polygon fill="#63b8ff" stroke="#63b8ff" points="968.66,-58.7 976.53,-65.8 974.8,-55.34 968.66,-58.7"/>
</a>
</g>
</g>
<!-- Node22&#45;&gt;Node8 -->
<g id="edge24_Node000022_Node000008" class="edge">
<title>Node22&#45;&gt;Node8</title>
<g id="a_edge24_Node000022_Node000008"><a xlink:title=" ">
<path fill="none" stroke="#63b8ff" d="M1294.27,-68.56C1250.13,-55.95 1180.1,-35.94 1140.39,-24.6"/>
<polygon fill="#63b8ff" stroke="#63b8ff" points="1293.51,-71.99 1304.09,-71.37 1295.44,-65.26 1293.51,-71.99"/>
</a>
</g>
</g>
<!-- Node23 -->
<g id="Node000023" class="node">
<title>Node23</title>
<g id="a_Node000023"><a xlink:href="MainWindow_8cpp.html" target="_top" xlink:title=" ">
<polygon fill="white" stroke="#666666" points="2587.3,-24.5 2459.3,-24.5 2459.3,-5.5 2587.3,-5.5 2587.3,-24.5"/>
<text text-anchor="middle" x="2523.3" y="-12.5" font-family="Helvetica,sans-Serif" font-size="10.00">src/ui/MainWindow.cpp</text>
</a>
</g>
</g>
<!-- Node22&#45;&gt;Node23 -->
<g id="edge25_Node000022_Node000023" class="edge">
<title>Node22&#45;&gt;Node23</title>
<g id="a_edge25_Node000022_Node000023"><a xlink:title=" ">
<path fill="none" stroke="#63b8ff" d="M1385.96,-69.73C1394.72,-68.28 1403.75,-66.96 1412.3,-66 1808.54,-21.72 2288.43,-16.34 2459.19,-15.92"/>
<polygon fill="#63b8ff" stroke="#63b8ff" points="1385.1,-66.33 1375.84,-71.49 1386.3,-73.23 1385.1,-66.33"/>
</a>
</g>
</g>
<!-- Node32&#45;&gt;Node19 -->
<g id="edge36_Node000032_Node000019" class="edge">
<title>Node32&#45;&gt;Node19</title>
<g id="a_edge36_Node000032_Node000019"><a xlink:title=" ">
<path fill="none" stroke="#63b8ff" d="M1899.38,-243.45C1878.9,-234.46 1851.93,-221.27 1830.3,-206 1791.52,-178.63 1795.42,-153.88 1753.3,-132 1735.42,-122.71 1618.64,-102.17 1549.13,-90.51"/>
<polygon fill="#63b8ff" stroke="#63b8ff" points="1898,-246.67 1908.57,-247.4 1900.76,-240.24 1898,-246.67"/>
</a>
</g>
</g>
<!-- Node32&#45;&gt;Node20 -->
<g id="edge37_Node000032_Node000020" class="edge">
<title>Node32&#45;&gt;Node20</title>
<g id="a_edge37_Node000032_Node000020"><a xlink:title=" ">
<path fill="none" stroke="#63b8ff" d="M1970.3,-243.84C1990.6,-235.91 2014.29,-223.68 2030.3,-206 2060.58,-172.57 2057.02,-112.65 2054.48,-90.52"/>
<polygon fill="#63b8ff" stroke="#63b8ff" points="1968.83,-240.66 1960.66,-247.4 1971.25,-247.22 1968.83,-240.66"/>
</a>
</g>
</g>
<!-- Node32&#45;&gt;Node23 -->
<g id="edge53_Node000032_Node000023" class="edge">
<title>Node32&#45;&gt;Node23</title>
<g id="a_edge53_Node000032_Node000023"><a xlink:title=" ">
<path fill="none" stroke="#63b8ff" d="M2006.07,-251.38C2159.2,-240.88 2499.28,-211.32 2597.3,-151 2633.36,-128.81 2663.62,-101.33 2640.3,-66 2625.64,-43.79 2598.85,-31.41 2574.61,-24.52"/>
<polygon fill="#63b8ff" stroke="#63b8ff" points="2005.55,-247.91 1995.81,-252.07 2006.03,-254.89 2005.55,-247.91"/>
</a>
</g>
</g>
<!-- Node32&#45;&gt;Node31 -->
<g id="edge54_Node000032_Node000031" class="edge">
<title>Node32&#45;&gt;Node31</title>
<g id="a_edge54_Node000032_Node000031"><a xlink:title=" ">
<path fill="none" stroke="#63b8ff" d="M1874.88,-245.22C1840.22,-237.2 1795.29,-224.43 1758.3,-206 1727.96,-190.88 1697.32,-164.69 1682.49,-151.16"/>
<polygon fill="#63b8ff" stroke="#63b8ff" points="1874.31,-248.67 1884.83,-247.45 1875.84,-241.85 1874.31,-248.67"/>
</a>
</g>
</g>
<!-- Node33 -->
<g id="Node000033" class="node">
<title>Node33</title>
<g id="a_Node000033"><a xlink:href="SceneManager_8h.html" target="_top" xlink:title=" ">
<polygon fill="white" stroke="#666666" points="2021.3,-206 1839.3,-206 1839.3,-187 2021.3,-187 2021.3,-206"/>
<text text-anchor="middle" x="1930.3" y="-194" font-family="Helvetica,sans-Serif" font-size="10.00">src/graphics/core/SceneManager.h</text>
</a>
</g>
</g>
<!-- Node32&#45;&gt;Node33 -->
<g id="edge38_Node000032_Node000033" class="edge">
<title>Node32&#45;&gt;Node33</title>
<g id="a_edge38_Node000032_Node000033"><a xlink:title=" ">
<path fill="none" stroke="#63b8ff" d="M1930.3,-237.16C1930.3,-226.74 1930.3,-214.3 1930.3,-206.17"/>
<polygon fill="#63b8ff" stroke="#63b8ff" points="1926.8,-237.37 1930.3,-247.37 1933.8,-237.37 1926.8,-237.37"/>
</a>
</g>
</g>
<!-- Node36 -->
<g id="Node000036" class="node">
<title>Node36</title>
<g id="a_Node000036"><a xlink:href="main_8cpp.html" target="_top" xlink:title=" ">
<polygon fill="white" stroke="#666666" points="2630.8,-90.5 2551.8,-90.5 2551.8,-71.5 2630.8,-71.5 2630.8,-90.5"/>
<text text-anchor="middle" x="2591.3" y="-78.5" font-family="Helvetica,sans-Serif" font-size="10.00">src/main.cpp</text>
</a>
</g>
</g>
<!-- Node32&#45;&gt;Node36 -->
<g id="edge52_Node000032_Node000036" class="edge">
<title>Node32&#45;&gt;Node36</title>
<g id="a_edge52_Node000032_Node000036"><a xlink:title=" ">
<path fill="none" stroke="#63b8ff" d="M1995.51,-245.93C2158.88,-220.64 2573.06,-156.11 2578.3,-151 2594.71,-135 2594.03,-105.29 2592.51,-90.63"/>
<polygon fill="#63b8ff" stroke="#63b8ff" points="1994.93,-242.48 1985.58,-247.47 1996,-249.4 1994.93,-242.48"/>
</a>
</g>
</g>
<!-- Node33&#45;&gt;Node4 -->
<g id="edge41_Node000033_Node000004" class="edge">
<title>Node33&#45;&gt;Node4</title>
<g id="a_edge41_Node000033_Node000004"><a xlink:title=" ">
<path fill="none" stroke="#63b8ff" d="M1828.96,-193.3C1665.38,-189.01 1350.55,-177.53 1242.3,-151 1222.01,-146.03 1219.64,-136.78 1199.3,-132 1028.22,-91.8 584.3,-112.08 409.3,-96 394.23,-94.61 377.96,-92.59 362.97,-90.52"/>
<polygon fill="#63b8ff" stroke="#63b8ff" points="1828.94,-196.8 1839.03,-193.56 1829.12,-189.8 1828.94,-196.8"/>
</a>
</g>
</g>
<!-- Node33&#45;&gt;Node12 -->
<g id="edge42_Node000033_Node000012" class="edge">
<title>Node33&#45;&gt;Node12</title>
<g id="a_edge42_Node000033_Node000012"><a xlink:title=" ">
<path fill="none" stroke="#63b8ff" d="M1829.12,-186.46C1714.96,-176.25 1531.19,-159.83 1423.56,-150.21"/>
<polygon fill="#63b8ff" stroke="#63b8ff" points="1828.99,-189.96 1839.27,-187.36 1829.62,-182.99 1828.99,-189.96"/>
</a>
</g>
</g>
<!-- Node33&#45;&gt;Node13 -->
<g id="edge39_Node000033_Node000013" class="edge">
<title>Node33&#45;&gt;Node13</title>
<g id="a_edge39_Node000033_Node000013"><a xlink:title=" ">
<path fill="none" stroke="#63b8ff" d="M1988.54,-184.94C2073.9,-167.13 2216.94,-126.98 2159.3,-66 2131.29,-36.37 1544.83,-21.59 1340.65,-17.33"/>
<polygon fill="#63b8ff" stroke="#63b8ff" points="1987.78,-181.53 1978.68,-186.95 1989.18,-188.38 1987.78,-181.53"/>
</a>
</g>
</g>
<!-- Node33&#45;&gt;Node20 -->
<g id="edge40_Node000033_Node000020" class="edge">
<title>Node33&#45;&gt;Node20</title>
<g id="a_edge40_Node000033_Node000020"><a xlink:title=" ">
<path fill="none" stroke="#63b8ff" d="M1978.15,-183.7C1996.95,-176.91 2017.34,-166.53 2031.3,-151 2046.93,-133.61 2051.46,-105.06 2052.77,-90.75"/>
<polygon fill="#63b8ff" stroke="#63b8ff" points="1976.87,-180.43 1968.5,-186.93 1979.1,-187.07 1976.87,-180.43"/>
</a>
</g>
</g>
<!-- Node33&#45;&gt;Node25 -->
<g id="edge50_Node000033_Node000025" class="edge">
<title>Node33&#45;&gt;Node25</title>
<g id="a_edge50_Node000033_Node000025"><a xlink:title=" ">
<path fill="none" stroke="#63b8ff" d="M1900.95,-182.82C1880.55,-173.97 1852.73,-161.85 1828.3,-151 1809.58,-142.68 1805.19,-139.93 1786.3,-132 1755.85,-119.22 1720.89,-105.75 1695.06,-96.01"/>
<polygon fill="#63b8ff" stroke="#63b8ff" points="1899.76,-186.12 1910.33,-186.88 1902.54,-179.7 1899.76,-186.12"/>
</a>
</g>
</g>
<!-- Node33&#45;&gt;Node26 -->
<g id="edge51_Node000033_Node000026" class="edge">
<title>Node33&#45;&gt;Node26</title>
<g id="a_edge51_Node000033_Node000026"><a xlink:title=" ">
<path fill="none" stroke="#63b8ff" d="M2019.85,-185.51C2063.24,-178.84 2115.52,-168.05 2160.3,-151 2196.87,-137.07 2235.09,-111.95 2257.25,-96.17"/>
<polygon fill="#63b8ff" stroke="#63b8ff" points="2019.25,-182.06 2009.88,-186.99 2020.28,-188.98 2019.25,-182.06"/>
</a>
</g>
</g>
<!-- Node33&#45;&gt;Node31 -->
<g id="edge49_Node000033_Node000031" class="edge">
<title>Node33&#45;&gt;Node31</title>
<g id="a_edge49_Node000033_Node000031"><a xlink:title=" ">
<path fill="none" stroke="#63b8ff" d="M1879.1,-184.94C1830.92,-175.01 1759.68,-160.31 1714.91,-151.08"/>
<polygon fill="#63b8ff" stroke="#63b8ff" points="1878.51,-188.39 1889.01,-186.98 1879.92,-181.54 1878.51,-188.39"/>
</a>
</g>
</g>
<!-- Node34 -->
<g id="Node000034" class="node">
<title>Node34</title>
<g id="a_Node000034"><a xlink:href="SceneSerializer_8h.html" target="_top" xlink:title=" ">
<polygon fill="white" stroke="#666666" points="2022.8,-151 1837.8,-151 1837.8,-132 2022.8,-132 2022.8,-151"/>
<text text-anchor="middle" x="1930.3" y="-139" font-family="Helvetica,sans-Serif" font-size="10.00">src/graphics/core/SceneSerializer.h</text>
</a>
</g>
</g>
<!-- Node33&#45;&gt;Node34 -->
<g id="edge43_Node000033_Node000034" class="edge">
<title>Node33&#45;&gt;Node34</title>
<g id="a_edge43_Node000033_Node000034"><a xlink:title=" ">
<path fill="none" stroke="#63b8ff" d="M1930.3,-176.66C1930.3,-167.93 1930.3,-157.99 1930.3,-151.09"/>
<polygon fill="#63b8ff" stroke="#63b8ff" points="1926.8,-176.75 1930.3,-186.75 1933.8,-176.75 1926.8,-176.75"/>
</a>
</g>
</g>
<!-- Node35 -->
<g id="Node000035" class="node">
<title>Node35</title>
<g id="a_Node000035"><a xlink:href="MainWindow_8h.html" target="_top" xlink:title=" ">
<polygon fill="white" stroke="#666666" points="2568.8,-151 2451.8,-151 2451.8,-132 2568.8,-132 2568.8,-151"/>
<text text-anchor="middle" x="2510.3" y="-139" font-family="Helvetica,sans-Serif" font-size="10.00">src/ui/MainWindow.h</text>
</a>
</g>
</g>
<!-- Node33&#45;&gt;Node35 -->
<g id="edge46_Node000033_Node000035" class="edge">
<title>Node33&#45;&gt;Node35</title>
<g id="a_edge46_Node000033_Node000035"><a xlink:title=" ">
<path fill="none" stroke="#63b8ff" d="M2031.64,-186.24C2153.31,-175.12 2353.29,-156.85 2451.77,-147.85"/>
<polygon fill="#63b8ff" stroke="#63b8ff" points="2031.2,-182.76 2021.56,-187.16 2031.84,-189.74 2031.2,-182.76"/>
</a>
</g>
</g>
<!-- Node34&#45;&gt;Node20 -->
<g id="edge44_Node000034_Node000020" class="edge">
<title>Node34&#45;&gt;Node20</title>
<g id="a_edge44_Node000034_Node000020"><a xlink:title=" ">
<path fill="none" stroke="#63b8ff" d="M1957.35,-127.63C1981.07,-116.35 2014.89,-100.27 2035.39,-90.52"/>
<polygon fill="#63b8ff" stroke="#63b8ff" points="1955.71,-124.54 1948.18,-131.99 1958.72,-130.86 1955.71,-124.54"/>
</a>
</g>
</g>
<!-- Node34&#45;&gt;Node21 -->
<g id="edge45_Node000034_Node000021" class="edge">
<title>Node34&#45;&gt;Node21</title>
<g id="a_edge45_Node000034_Node000021"><a xlink:title=" ">
<path fill="none" stroke="#63b8ff" d="M1907.99,-126.16C1890.7,-115.05 1867.32,-100.01 1852.78,-90.67"/>
<polygon fill="#63b8ff" stroke="#63b8ff" points="1906.57,-129.4 1916.87,-131.87 1910.35,-123.52 1906.57,-129.4"/>
</a>
</g>
</g>
<!-- Node35&#45;&gt;Node23 -->
<g id="edge48_Node000035_Node000023" class="edge">
<title>Node35&#45;&gt;Node23</title>
<g id="a_edge48_Node000035_Node000023"><a xlink:title=" ">
<path fill="none" stroke="#63b8ff" d="M2512.26,-121.74C2515.12,-94.36 2520.32,-44.58 2522.4,-24.62"/>
<polygon fill="#63b8ff" stroke="#63b8ff" points="2508.75,-121.63 2511.19,-131.94 2515.71,-122.36 2508.75,-121.63"/>
</a>
</g>
</g>
<!-- Node35&#45;&gt;Node36 -->
<g id="edge47_Node000035_Node000036" class="edge">
<title>Node35&#45;&gt;Node36</title>
<g id="a_edge47_Node000035_Node000036"><a xlink:title=" ">
<path fill="none" stroke="#63b8ff" d="M2530.59,-125.85C2545.93,-114.77 2566.48,-99.93 2579.3,-90.67"/>
<polygon fill="#63b8ff" stroke="#63b8ff" points="2528.31,-123.18 2522.25,-131.87 2532.41,-128.85 2528.31,-123.18"/>
</a>
</g>
</g>
<!-- Node37&#45;&gt;Node11 -->
<g id="edge60_Node000037_Node000011" class="edge">
<title>Node37&#45;&gt;Node11</title>
<g id="a_edge60_Node000037_Node000011"><a xlink:title=" ">
<path fill="none" stroke="#63b8ff" d="M1822.79,-359.33C1794.75,-348.68 1760.27,-335.58 1738.04,-327.14"/>
<polygon fill="#63b8ff" stroke="#63b8ff" points="1821.82,-362.71 1832.41,-362.99 1824.31,-356.16 1821.82,-362.71"/>
</a>
</g>
</g>
<!-- Node37&#45;&gt;Node30 -->
<g id="edge61_Node000037_Node000030" class="edge">
<title>Node37&#45;&gt;Node30</title>
<g id="a_edge61_Node000037_Node000030"><a xlink:title=" ">
<path fill="none" stroke="#63b8ff" d="M1917.11,-359.49C1981.94,-335.76 2096.44,-293.83 2155.96,-272.04"/>
<polygon fill="#63b8ff" stroke="#63b8ff" points="1915.72,-356.27 1907.54,-363 1918.13,-362.85 1915.72,-356.27"/>
</a>
</g>
</g>
</g>
</svg>
