<?xml version="1.0" encoding="UTF-8" standalone="no"?>
<!DOCTYPE svg PUBLIC "-//W3C//DTD SVG 1.1//EN"
 "http://www.w3.org/Graphics/SVG/1.1/DTD/svg11.dtd">
<!-- Generated by graphviz version 2.43.0 (0)
 -->
<!-- Title: tests/PhysicsTests.cpp Pages: 1 -->
<!--zoomable 357 -->

<svg id="main" version="1.1" xmlns="http://www.w3.org/2000/svg" xmlns:xlink="http://www.w3.org/1999/xlink" xml:space="preserve" onload="init(evt)">
<style type="text/css"><![CDATA[
.node, .edge {opacity: 0.7;}
.node.selected, .edge.selected {opacity: 1;}
.edge:hover path { stroke: red; }
.edge:hover polygon { stroke: red; fill: red; }
]]></style>

<defs>
  <circle id="rim" cx="0" cy="0" r="7"/>
  <circle id="rim2" cx="0" cy="0" r="3.5"/>
  <g id="zoomPlus">
    <use xlink:href="#rim" fill="#404040"><set attributeName="fill" to="#808080" begin="zoomplus.mouseover" end="zoomplus.mouseout"/></use>
    <path d="M-4,0h8M0,-4v8" fill="none" stroke="white" stroke-width="1.5" pointer-events="none"/>
  </g>
  <g id="zoomMin">
    <use xlink:href="#rim" fill="#404040"><set attributeName="fill" to="#808080" begin="zoomminus.mouseover" end="zoomminus.mouseout"/></use>
    <path d="M-4,0h8" fill="none" stroke="white" stroke-width="1.5" pointer-events="none"/>
  </g>
  <g id="arrowUp" transform="translate(30 24)">
    <use xlink:href="#rim"/>
    <path pointer-events="none" fill="none" stroke="white" stroke-width="1.5" d="M0,-3.0v7 M-2.5,-0.5L0,-3.0L2.5,-0.5"/>
  </g>
  <g id="arrowRight" transform="rotate(90) translate(36 -43)">
    <use xlink:href="#rim"/>
    <path pointer-events="none" fill="none" stroke="white" stroke-width="1.5" d="M0,-3.0v7 M-2.5,-0.5L0,-3.0L2.5,-0.5"/>
  </g>
  <g id="arrowDown" transform="rotate(180) translate(-30 -48)">
    <use xlink:href="#rim"/>
    <path pointer-events="none" fill="none" stroke="white" stroke-width="1.5" d="M0,-3.0v7 M-2.5,-0.5L0,-3.0L2.5,-0.5"/>
  </g>
  <g id="arrowLeft" transform="rotate(270) translate(-36 17)">
    <use xlink:href="#rim"/>
    <path pointer-events="none" fill="none" stroke="white" stroke-width="1.5" d="M0,-3.0v7 M-2.5,-0.5L0,-3.0L2.5,-0.5"/>
  </g>
  <g id="resetDef">
    <use xlink:href="#rim2" fill="#404040"><set attributeName="fill" to="#808080" begin="reset.mouseover" end="reset.mouseout"/></use>
  </g>
</defs>
<script type="application/ecmascript">
var viewWidth = 1556;
var viewHeight = 357;
var sectionId = 'dynsection-0';
</script>
<script type="application/ecmascript" xlink:href="svg.min.js"/>
<svg id="graph" class="graph">
<g id="viewport">
<title>tests/PhysicsTests.cpp</title>
<!-- Node1 -->
<g id="Node000001" class="node">
<title>Node1</title>
<g id="a_Node000001"><a xlink:title=" ">
<polygon fill="#999999" stroke="#666666" points="458,-349 333,-349 333,-330 458,-330 458,-349"/>
<text text-anchor="middle" x="395.5" y="-337" font-family="Helvetica,sans-Serif" font-size="10.00">tests/PhysicsTests.cpp</text>
</a>
</g>
</g>
<!-- Node2 -->
<g id="Node000002" class="node">
<title>Node2</title>
<g id="a_Node000002"><a xlink:title=" ">
<polygon fill="#e0e0e0" stroke="#999999" points="367.5,-294 289.5,-294 289.5,-275 367.5,-275 367.5,-294"/>
<text text-anchor="middle" x="328.5" y="-282" font-family="Helvetica,sans-Serif" font-size="10.00">gtest/gtest.h</text>
</a>
</g>
</g>
<!-- Node1&#45;&gt;Node2 -->
<g id="edge1_Node000001_Node000002" class="edge">
<title>Node1&#45;&gt;Node2</title>
<g id="a_edge1_Node000001_Node000002"><a xlink:title=" ">
<path fill="none" stroke="#63b8ff" d="M384.74,-329.98C374.73,-322.07 359.61,-310.11 347.57,-300.58"/>
<polygon fill="#63b8ff" stroke="#63b8ff" points="349.47,-297.63 339.46,-294.17 345.13,-303.12 349.47,-297.63"/>
</a>
</g>
</g>
<!-- Node3 -->
<g id="Node000003" class="node">
<title>Node3</title>
<g id="a_Node000003"><a xlink:href="PhysicsSystem_8h.html" target="_top" xlink:title=" ">
<polygon fill="white" stroke="#666666" points="885,-294 746,-294 746,-275 885,-275 885,-294"/>
<text text-anchor="middle" x="815.5" y="-282" font-family="Helvetica,sans-Serif" font-size="10.00">physics/PhysicsSystem.h</text>
</a>
</g>
</g>
<!-- Node1&#45;&gt;Node3 -->
<g id="edge2_Node000001_Node000003" class="edge">
<title>Node1&#45;&gt;Node3</title>
<g id="a_edge2_Node000001_Node000003"><a xlink:title=" ">
<path fill="none" stroke="#63b8ff" d="M458.38,-330.57C532.99,-321.15 657.4,-305.45 737.93,-295.29"/>
<polygon fill="#63b8ff" stroke="#63b8ff" points="738.53,-298.74 748.01,-294.02 737.65,-291.8 738.53,-298.74"/>
</a>
</g>
</g>
<!-- Node33 -->
<g id="Node000033" class="node">
<title>Node33</title>
<g id="a_Node000033"><a xlink:href="PointMass_8h.html" target="_top" xlink:title=" ">
<polygon fill="white" stroke="#666666" points="179.5,-239 63.5,-239 63.5,-220 179.5,-220 179.5,-239"/>
<text text-anchor="middle" x="121.5" y="-227" font-family="Helvetica,sans-Serif" font-size="10.00">physics/PointMass.h</text>
</a>
</g>
</g>
<!-- Node1&#45;&gt;Node33 -->
<g id="edge54_Node000001_Node000033" class="edge">
<title>Node1&#45;&gt;Node33</title>
<g id="a_edge54_Node000001_Node000033"><a xlink:title=" ">
<path fill="none" stroke="#63b8ff" d="M395.59,-329.59C395.22,-315.71 392.33,-289.06 376.5,-275 362.63,-262.68 260.56,-247.74 189.84,-238.68"/>
<polygon fill="#63b8ff" stroke="#63b8ff" points="190.01,-235.18 179.65,-237.39 189.13,-242.12 190.01,-235.18"/>
</a>
</g>
</g>
<!-- Node4 -->
<g id="Node000004" class="node">
<title>Node4</title>
<g id="a_Node000004"><a xlink:title=" ">
<polygon fill="#e0e0e0" stroke="#999999" points="537,-129 490,-129 490,-110 537,-110 537,-129"/>
<text text-anchor="middle" x="513.5" y="-117" font-family="Helvetica,sans-Serif" font-size="10.00">vector</text>
</a>
</g>
</g>
<!-- Node3&#45;&gt;Node4 -->
<g id="edge3_Node000003_Node000004" class="edge">
<title>Node3&#45;&gt;Node4</title>
<g id="a_edge3_Node000003_Node000004"><a xlink:title=" ">
<path fill="none" stroke="#63b8ff" d="M745.66,-280.9C647.9,-276.39 475.91,-264.95 419.5,-239 386.93,-224.02 374.8,-216.87 360.5,-184 339.31,-135.27 428.41,-123.8 479.63,-121.19"/>
<polygon fill="#63b8ff" stroke="#63b8ff" points="479.79,-124.69 489.63,-120.77 479.5,-117.7 479.79,-124.69"/>
</a>
</g>
</g>
<!-- Node5 -->
<g id="Node000005" class="node">
<title>Node5</title>
<g id="a_Node000005"><a xlink:title=" ">
<polygon fill="#e0e0e0" stroke="#999999" points="643.5,-129 593.5,-129 593.5,-110 643.5,-110 643.5,-129"/>
<text text-anchor="middle" x="618.5" y="-117" font-family="Helvetica,sans-Serif" font-size="10.00">atomic</text>
</a>
</g>
</g>
<!-- Node3&#45;&gt;Node5 -->
<g id="edge4_Node000003_Node000005" class="edge">
<title>Node3&#45;&gt;Node5</title>
<g id="a_edge4_Node000003_Node000005"><a xlink:title=" ">
<path fill="none" stroke="#63b8ff" d="M745.9,-278.98C631.43,-269.87 411.74,-244.71 368.5,-184 363.6,-177.12 363.08,-171.47 368.5,-165 375.37,-156.8 515.56,-135.45 582.94,-125.61"/>
<polygon fill="#63b8ff" stroke="#63b8ff" points="583.7,-129.03 593.1,-124.13 582.7,-122.11 583.7,-129.03"/>
</a>
</g>
</g>
<!-- Node6 -->
<g id="Node000006" class="node">
<title>Node6</title>
<g id="a_Node000006"><a xlink:title=" ">
<polygon fill="#e0e0e0" stroke="#999999" points="278.5,-129 230.5,-129 230.5,-110 278.5,-110 278.5,-129"/>
<text text-anchor="middle" x="254.5" y="-117" font-family="Helvetica,sans-Serif" font-size="10.00">mutex</text>
</a>
</g>
</g>
<!-- Node3&#45;&gt;Node6 -->
<g id="edge5_Node000003_Node000006" class="edge">
<title>Node3&#45;&gt;Node6</title>
<g id="a_edge5_Node000003_Node000006"><a xlink:title=" ">
<path fill="none" stroke="#63b8ff" d="M745.84,-281.78C639.89,-278.25 443.86,-267.93 380.5,-239 329.92,-215.9 286.59,-164.22 266.48,-137.39"/>
<polygon fill="#63b8ff" stroke="#63b8ff" points="269.09,-135.03 260.37,-129.02 263.44,-139.16 269.09,-135.03"/>
</a>
</g>
</g>
<!-- Node7 -->
<g id="Node000007" class="node">
<title>Node7</title>
<g id="a_Node000007"><a xlink:title=" ">
<polygon fill="#e0e0e0" stroke="#999999" points="791.5,-239 743.5,-239 743.5,-220 791.5,-220 791.5,-239"/>
<text text-anchor="middle" x="767.5" y="-227" font-family="Helvetica,sans-Serif" font-size="10.00">thread</text>
</a>
</g>
</g>
<!-- Node3&#45;&gt;Node7 -->
<g id="edge6_Node000003_Node000007" class="edge">
<title>Node3&#45;&gt;Node7</title>
<g id="a_edge6_Node000003_Node000007"><a xlink:title=" ">
<path fill="none" stroke="#63b8ff" d="M807.57,-274.75C800.65,-267.11 790.43,-255.82 782.05,-246.56"/>
<polygon fill="#63b8ff" stroke="#63b8ff" points="784.59,-244.15 775.28,-239.09 779.4,-248.85 784.59,-244.15"/>
</a>
</g>
</g>
<!-- Node8 -->
<g id="Node000008" class="node">
<title>Node8</title>
<g id="a_Node000008"><a xlink:title=" ">
<polygon fill="#e0e0e0" stroke="#999999" points="917,-239 810,-239 810,-220 917,-220 917,-239"/>
<text text-anchor="middle" x="863.5" y="-227" font-family="Helvetica,sans-Serif" font-size="10.00">condition_variable</text>
</a>
</g>
</g>
<!-- Node3&#45;&gt;Node8 -->
<g id="edge7_Node000003_Node000008" class="edge">
<title>Node3&#45;&gt;Node8</title>
<g id="a_edge7_Node000003_Node000008"><a xlink:title=" ">
<path fill="none" stroke="#63b8ff" d="M823.43,-274.75C830.35,-267.11 840.57,-255.82 848.95,-246.56"/>
<polygon fill="#63b8ff" stroke="#63b8ff" points="851.6,-248.85 855.72,-239.09 846.41,-244.15 851.6,-248.85"/>
</a>
</g>
</g>
<!-- Node9 -->
<g id="Node000009" class="node">
<title>Node9</title>
<g id="a_Node000009"><a xlink:title=" ">
<polygon fill="#e0e0e0" stroke="#999999" points="1547.5,-74 1491.5,-74 1491.5,-55 1547.5,-55 1547.5,-74"/>
<text text-anchor="middle" x="1519.5" y="-62" font-family="Helvetica,sans-Serif" font-size="10.00">optional</text>
</a>
</g>
</g>
<!-- Node3&#45;&gt;Node9 -->
<g id="edge8_Node000003_Node000009" class="edge">
<title>Node3&#45;&gt;Node9</title>
<g id="a_edge8_Node000003_Node000009"><a xlink:title=" ">
<path fill="none" stroke="#63b8ff" d="M885.25,-284.1C993.58,-283.68 1208.23,-277.45 1385.5,-239 1455.3,-223.86 1495.54,-242.51 1536.5,-184 1557.77,-153.62 1541.13,-108.03 1529.1,-83.18"/>
<polygon fill="#63b8ff" stroke="#63b8ff" points="1532.17,-81.5 1524.5,-74.19 1525.93,-84.69 1532.17,-81.5"/>
</a>
</g>
</g>
<!-- Node10 -->
<g id="Node000010" class="node">
<title>Node10</title>
<g id="a_Node000010"><a xlink:href="RigidBody_8h.html" target="_top" xlink:title=" ">
<polygon fill="white" stroke="#666666" points="610.5,-239 536.5,-239 536.5,-220 610.5,-220 610.5,-239"/>
<text text-anchor="middle" x="573.5" y="-227" font-family="Helvetica,sans-Serif" font-size="10.00">RigidBody.h</text>
</a>
</g>
</g>
<!-- Node3&#45;&gt;Node10 -->
<g id="edge9_Node000003_Node000010" class="edge">
<title>Node3&#45;&gt;Node10</title>
<g id="a_edge9_Node000003_Node000010"><a xlink:title=" ">
<path fill="none" stroke="#63b8ff" d="M776.62,-274.98C734.14,-265.68 666.09,-250.78 620.61,-240.82"/>
<polygon fill="#63b8ff" stroke="#63b8ff" points="621.21,-237.37 610.7,-238.65 619.72,-244.2 621.21,-237.37"/>
</a>
</g>
</g>
<!-- Node22 -->
<g id="Node000022" class="node">
<title>Node22</title>
<g id="a_Node000022"><a xlink:href="Constants_8h.html" target="_top" xlink:title=" ">
<polygon fill="white" stroke="#666666" points="1049.5,-239 935.5,-239 935.5,-220 1049.5,-220 1049.5,-239"/>
<text text-anchor="middle" x="992.5" y="-227" font-family="Helvetica,sans-Serif" font-size="10.00">physics/Constants.h</text>
</a>
</g>
</g>
<!-- Node3&#45;&gt;Node22 -->
<g id="edge29_Node000003_Node000022" class="edge">
<title>Node3&#45;&gt;Node22</title>
<g id="a_edge29_Node000003_Node000022"><a xlink:title=" ">
<path fill="none" stroke="#63b8ff" d="M843.94,-274.98C873.78,-266.05 920.88,-251.94 954.03,-242.02"/>
<polygon fill="#63b8ff" stroke="#63b8ff" points="955.26,-245.3 963.84,-239.08 953.26,-238.6 955.26,-245.3"/>
</a>
</g>
</g>
<!-- Node23 -->
<g id="Node000023" class="node">
<title>Node23</title>
<g id="a_Node000023"><a xlink:href="OneUnknownSolver_8h.html" target="_top" xlink:title=" ">
<polygon fill="white" stroke="#666666" points="1509.5,-184 1355.5,-184 1355.5,-165 1509.5,-165 1509.5,-184"/>
<text text-anchor="middle" x="1432.5" y="-172" font-family="Helvetica,sans-Serif" font-size="10.00">solver/OneUnknownSolver.h</text>
</a>
</g>
</g>
<!-- Node3&#45;&gt;Node23 -->
<g id="edge30_Node000003_Node000023" class="edge">
<title>Node3&#45;&gt;Node23</title>
<g id="a_edge30_Node000003_Node000023"><a xlink:title=" ">
<path fill="none" stroke="#63b8ff" d="M885.47,-283.03C1012.12,-281.31 1273.96,-273.56 1357.5,-239 1382.24,-228.77 1404.83,-207.21 1418.61,-192.07"/>
<polygon fill="#63b8ff" stroke="#63b8ff" points="1421.36,-194.25 1425.32,-184.43 1416.09,-189.63 1421.36,-194.25"/>
</a>
</g>
</g>
<!-- Node25 -->
<g id="Node000025" class="node">
<title>Node25</title>
<g id="a_Node000025"><a xlink:href="ProblemRouter_8h.html" target="_top" xlink:title=" ">
<polygon fill="white" stroke="#666666" points="1348,-239 1217,-239 1217,-220 1348,-220 1348,-239"/>
<text text-anchor="middle" x="1282.5" y="-227" font-family="Helvetica,sans-Serif" font-size="10.00">solver/ProblemRouter.h</text>
</a>
</g>
</g>
<!-- Node3&#45;&gt;Node25 -->
<g id="edge32_Node000003_Node000025" class="edge">
<title>Node3&#45;&gt;Node25</title>
<g id="a_edge32_Node000003_Node000025"><a xlink:title=" ">
<path fill="none" stroke="#63b8ff" d="M885.16,-275.59C971.47,-265.8 1117.96,-249.17 1206.92,-239.08"/>
<polygon fill="#63b8ff" stroke="#63b8ff" points="1207.4,-242.55 1216.94,-237.94 1206.61,-235.59 1207.4,-242.55"/>
</a>
</g>
</g>
<!-- Node26 -->
<g id="Node000026" class="node">
<title>Node26</title>
<g id="a_Node000026"><a xlink:href="VectorRootSolver_8h.html" target="_top" xlink:title=" ">
<polygon fill="white" stroke="#666666" points="1337,-184 1228,-184 1228,-165 1337,-165 1337,-184"/>
<text text-anchor="middle" x="1282.5" y="-172" font-family="Helvetica,sans-Serif" font-size="10.00">VectorRootSolver.h</text>
</a>
</g>
</g>
<!-- Node3&#45;&gt;Node26 -->
<g id="edge53_Node000003_Node000026" class="edge">
<title>Node3&#45;&gt;Node26</title>
<g id="a_edge53_Node000003_Node000026"><a xlink:title=" ">
<path fill="none" stroke="#63b8ff" d="M885.1,-281.66C955.89,-278.15 1068.02,-268.02 1160.5,-239 1197.91,-227.26 1237.52,-204.46 1261.12,-189.61"/>
<polygon fill="#63b8ff" stroke="#63b8ff" points="1263.09,-192.5 1269.63,-184.16 1259.32,-186.61 1263.09,-192.5"/>
</a>
</g>
</g>
<!-- Node28 -->
<g id="Node000028" class="node">
<title>Node28</title>
<g id="a_Node000028"><a xlink:href="Octree_8h.html" target="_top" xlink:title=" ">
<polygon fill="white" stroke="#666666" points="725.5,-239 631.5,-239 631.5,-220 725.5,-220 725.5,-239"/>
<text text-anchor="middle" x="678.5" y="-227" font-family="Helvetica,sans-Serif" font-size="10.00">spatial/Octree.h</text>
</a>
</g>
</g>
<!-- Node3&#45;&gt;Node28 -->
<g id="edge40_Node000003_Node000028" class="edge">
<title>Node3&#45;&gt;Node28</title>
<g id="a_edge40_Node000003_Node000028"><a xlink:title=" ">
<path fill="none" stroke="#63b8ff" d="M793.49,-274.98C771.05,-266.3 736.02,-252.75 710.51,-242.88"/>
<polygon fill="#63b8ff" stroke="#63b8ff" points="711.5,-239.51 700.91,-239.17 708.98,-246.04 711.5,-239.51"/>
</a>
</g>
</g>
<!-- Node31 -->
<g id="Node000031" class="node">
<title>Node31</title>
<g id="a_Node000031"><a xlink:href="BVH_8h.html" target="_top" xlink:title=" ">
<polygon fill="white" stroke="#666666" points="1151,-239 1068,-239 1068,-220 1151,-220 1151,-239"/>
<text text-anchor="middle" x="1109.5" y="-227" font-family="Helvetica,sans-Serif" font-size="10.00">spatial/BVH.h</text>
</a>
</g>
</g>
<!-- Node3&#45;&gt;Node31 -->
<g id="edge46_Node000003_Node000031" class="edge">
<title>Node3&#45;&gt;Node31</title>
<g id="a_edge46_Node000003_Node000031"><a xlink:title=" ">
<path fill="none" stroke="#63b8ff" d="M862.74,-274.98C916.07,-265.37 1002.56,-249.78 1057.7,-239.84"/>
<polygon fill="#63b8ff" stroke="#63b8ff" points="1058.4,-243.27 1067.62,-238.05 1057.16,-236.38 1058.4,-243.27"/>
</a>
</g>
</g>
<!-- Node10&#45;&gt;Node4 -->
<g id="edge11_Node000010_Node000004" class="edge">
<title>Node10&#45;&gt;Node4</title>
<g id="a_edge11_Node000010_Node000004"><a xlink:title=" ">
<path fill="none" stroke="#63b8ff" d="M568.59,-219.66C558.7,-201.85 536.2,-161.37 523.23,-138.01"/>
<polygon fill="#63b8ff" stroke="#63b8ff" points="526.23,-136.2 518.31,-129.16 520.11,-139.6 526.23,-136.2"/>
</a>
</g>
</g>
<!-- Node10&#45;&gt;Node6 -->
<g id="edge10_Node000010_Node000006" class="edge">
<title>Node10&#45;&gt;Node6</title>
<g id="a_edge10_Node000010_Node000006"><a xlink:title=" ">
<path fill="none" stroke="#63b8ff" d="M536.28,-223.78C494.46,-217.72 425.06,-205.35 368.5,-184 334.19,-171.05 297.69,-149.09 275.49,-134.69"/>
<polygon fill="#63b8ff" stroke="#63b8ff" points="277.17,-131.61 266.89,-129.03 273.32,-137.45 277.17,-131.61"/>
</a>
</g>
</g>
<!-- Node11 -->
<g id="Node000011" class="node">
<title>Node11</title>
<g id="a_Node000011"><a xlink:title=" ">
<polygon fill="#e0e0e0" stroke="#999999" points="1053.5,-74 975.5,-74 975.5,-55 1053.5,-55 1053.5,-74"/>
<text text-anchor="middle" x="1014.5" y="-62" font-family="Helvetica,sans-Serif" font-size="10.00">glm/glm.hpp</text>
</a>
</g>
</g>
<!-- Node10&#45;&gt;Node11 -->
<g id="edge12_Node000010_Node000011" class="edge">
<title>Node10&#45;&gt;Node11</title>
<g id="a_edge12_Node000010_Node000011"><a xlink:title=" ">
<path fill="none" stroke="#63b8ff" d="M571.09,-219.85C565.58,-197.98 554.71,-140.11 584.5,-110 610.84,-83.38 857.52,-71.22 964.92,-67.15"/>
<polygon fill="#63b8ff" stroke="#63b8ff" points="965.31,-70.64 975.18,-66.77 965.05,-63.64 965.31,-70.64"/>
</a>
</g>
</g>
<!-- Node12 -->
<g id="Node000012" class="node">
<title>Node12</title>
<g id="a_Node000012"><a xlink:title=" ">
<polygon fill="#e0e0e0" stroke="#999999" points="507.5,-184 377.5,-184 377.5,-165 507.5,-165 507.5,-184"/>
<text text-anchor="middle" x="442.5" y="-172" font-family="Helvetica,sans-Serif" font-size="10.00">glm/gtc/quaternion.hpp</text>
</a>
</g>
</g>
<!-- Node10&#45;&gt;Node12 -->
<g id="edge13_Node000010_Node000012" class="edge">
<title>Node10&#45;&gt;Node12</title>
<g id="a_edge13_Node000010_Node000012"><a xlink:title=" ">
<path fill="none" stroke="#63b8ff" d="M552.45,-219.98C531.09,-211.34 497.8,-197.87 473.44,-188.02"/>
<polygon fill="#63b8ff" stroke="#63b8ff" points="474.51,-184.68 463.93,-184.17 471.89,-191.17 474.51,-184.68"/>
</a>
</g>
</g>
<!-- Node13 -->
<g id="Node000013" class="node">
<title>Node13</title>
<g id="a_Node000013"><a xlink:href="ICollider_8h.html" target="_top" xlink:title="Abstract interface for collision detection shapes.">
<polygon fill="white" stroke="#666666" points="1251,-129 1138,-129 1138,-110 1251,-110 1251,-129"/>
<text text-anchor="middle" x="1194.5" y="-117" font-family="Helvetica,sans-Serif" font-size="10.00">bounding/ICollider.h</text>
</a>
</g>
</g>
<!-- Node10&#45;&gt;Node13 -->
<g id="edge14_Node000010_Node000013" class="edge">
<title>Node10&#45;&gt;Node13</title>
<g id="a_edge14_Node000010_Node000013"><a xlink:title=" ">
<path fill="none" stroke="#63b8ff" d="M610.59,-221.42C660.01,-211.8 744.69,-194.57 774.5,-184 792.3,-177.69 794.41,-170.4 812.5,-165 919.81,-133 1050.48,-123.83 1127.83,-121.31"/>
<polygon fill="#63b8ff" stroke="#63b8ff" points="1128.03,-124.8 1137.92,-121.01 1127.83,-117.81 1128.03,-124.8"/>
</a>
</g>
</g>
<!-- Node17 -->
<g id="Node000017" class="node">
<title>Node17</title>
<g id="a_Node000017"><a xlink:href="PhysicsBody_8h.html" target="_top" xlink:title=" ">
<polygon fill="white" stroke="#666666" points="765,-184 640,-184 640,-165 765,-165 765,-184"/>
<text text-anchor="middle" x="702.5" y="-172" font-family="Helvetica,sans-Serif" font-size="10.00">physics/PhysicsBody.h</text>
</a>
</g>
</g>
<!-- Node10&#45;&gt;Node17 -->
<g id="edge20_Node000010_Node000017" class="edge">
<title>Node10&#45;&gt;Node17</title>
<g id="a_edge20_Node000010_Node000017"><a xlink:title=" ">
<path fill="none" stroke="#63b8ff" d="M594.23,-219.98C615.26,-211.34 648.05,-197.87 672.04,-188.02"/>
<polygon fill="#63b8ff" stroke="#63b8ff" points="673.48,-191.21 681.4,-184.17 670.82,-184.73 673.48,-191.21"/>
</a>
</g>
</g>
<!-- Node13&#45;&gt;Node9 -->
<g id="edge17_Node000013_Node000009" class="edge">
<title>Node13&#45;&gt;Node9</title>
<g id="a_edge17_Node000013_Node000009"><a xlink:title=" ">
<path fill="none" stroke="#63b8ff" d="M1246.72,-109.98C1312.22,-99.3 1423,-81.24 1481.19,-71.75"/>
<polygon fill="#63b8ff" stroke="#63b8ff" points="1481.77,-75.2 1491.08,-70.13 1480.65,-68.29 1481.77,-75.2"/>
</a>
</g>
</g>
<!-- Node13&#45;&gt;Node11 -->
<g id="edge15_Node000013_Node000011" class="edge">
<title>Node13&#45;&gt;Node11</title>
<g id="a_edge15_Node000013_Node000011"><a xlink:title=" ">
<path fill="none" stroke="#63b8ff" d="M1165.58,-109.98C1135.23,-101.05 1087.33,-86.94 1053.62,-77.02"/>
<polygon fill="#63b8ff" stroke="#63b8ff" points="1054.23,-73.55 1043.65,-74.08 1052.25,-80.26 1054.23,-73.55"/>
</a>
</g>
</g>
<!-- Node14 -->
<g id="Node000014" class="node">
<title>Node14</title>
<g id="a_Node000014"><a xlink:title=" ">
<polygon fill="#e0e0e0" stroke="#999999" points="1417.5,-74 1359.5,-74 1359.5,-55 1417.5,-55 1417.5,-74"/>
<text text-anchor="middle" x="1388.5" y="-62" font-family="Helvetica,sans-Serif" font-size="10.00">memory</text>
</a>
</g>
</g>
<!-- Node13&#45;&gt;Node14 -->
<g id="edge16_Node000013_Node000014" class="edge">
<title>Node13&#45;&gt;Node14</title>
<g id="a_edge16_Node000013_Node000014"><a xlink:title=" ">
<path fill="none" stroke="#63b8ff" d="M1225.67,-109.98C1259.35,-100.78 1313.07,-86.11 1349.52,-76.15"/>
<polygon fill="#63b8ff" stroke="#63b8ff" points="1350.59,-79.49 1359.31,-73.47 1348.74,-72.73 1350.59,-79.49"/>
</a>
</g>
</g>
<!-- Node15 -->
<g id="Node000015" class="node">
<title>Node15</title>
<g id="a_Node000015"><a xlink:href="Ray_8h.html" target="_top" xlink:title=" ">
<polygon fill="white" stroke="#666666" points="1230,-74 1159,-74 1159,-55 1230,-55 1230,-74"/>
<text text-anchor="middle" x="1194.5" y="-62" font-family="Helvetica,sans-Serif" font-size="10.00">math/Ray.h</text>
</a>
</g>
</g>
<!-- Node13&#45;&gt;Node15 -->
<g id="edge18_Node000013_Node000015" class="edge">
<title>Node13&#45;&gt;Node15</title>
<g id="a_edge18_Node000013_Node000015"><a xlink:title=" ">
<path fill="none" stroke="#63b8ff" d="M1194.5,-109.75C1194.5,-102.8 1194.5,-92.85 1194.5,-84.13"/>
<polygon fill="#63b8ff" stroke="#63b8ff" points="1198,-84.09 1194.5,-74.09 1191,-84.09 1198,-84.09"/>
</a>
</g>
</g>
<!-- Node16 -->
<g id="Node000016" class="node">
<title>Node16</title>
<g id="a_Node000016"><a xlink:title=" ">
<polygon fill="#e0e0e0" stroke="#999999" points="1236,-19 1153,-19 1153,0 1236,0 1236,-19"/>
<text text-anchor="middle" x="1194.5" y="-7" font-family="Helvetica,sans-Serif" font-size="10.00">glm/vec3.hpp</text>
</a>
</g>
</g>
<!-- Node15&#45;&gt;Node16 -->
<g id="edge19_Node000015_Node000016" class="edge">
<title>Node15&#45;&gt;Node16</title>
<g id="a_edge19_Node000015_Node000016"><a xlink:title=" ">
<path fill="none" stroke="#63b8ff" d="M1194.5,-54.75C1194.5,-47.8 1194.5,-37.85 1194.5,-29.13"/>
<polygon fill="#63b8ff" stroke="#63b8ff" points="1198,-29.09 1194.5,-19.09 1191,-29.09 1198,-29.09"/>
</a>
</g>
</g>
<!-- Node17&#45;&gt;Node4 -->
<g id="edge25_Node000017_Node000004" class="edge">
<title>Node17&#45;&gt;Node4</title>
<g id="a_edge25_Node000017_Node000004"><a xlink:title=" ">
<path fill="none" stroke="#63b8ff" d="M672.13,-164.98C637.94,-155.4 582.55,-139.86 547.09,-129.92"/>
<polygon fill="#63b8ff" stroke="#63b8ff" points="547.78,-126.48 537.21,-127.15 545.89,-133.22 547.78,-126.48"/>
</a>
</g>
</g>
<!-- Node17&#45;&gt;Node5 -->
<g id="edge21_Node000017_Node000005" class="edge">
<title>Node17&#45;&gt;Node5</title>
<g id="a_edge21_Node000017_Node000005"><a xlink:title=" ">
<path fill="none" stroke="#63b8ff" d="M689,-164.98C676.1,-156.84 656.4,-144.41 641.1,-134.76"/>
<polygon fill="#63b8ff" stroke="#63b8ff" points="642.57,-131.55 632.24,-129.17 638.83,-137.47 642.57,-131.55"/>
</a>
</g>
</g>
<!-- Node17&#45;&gt;Node6 -->
<g id="edge27_Node000017_Node000006" class="edge">
<title>Node17&#45;&gt;Node6</title>
<g id="a_edge27_Node000017_Node000006"><a xlink:title=" ">
<path fill="none" stroke="#63b8ff" d="M639.74,-166.07C543.79,-154.72 363.9,-133.44 288.81,-124.56"/>
<polygon fill="#63b8ff" stroke="#63b8ff" points="288.85,-121.04 278.51,-123.34 288.03,-127.99 288.85,-121.04"/>
</a>
</g>
</g>
<!-- Node17&#45;&gt;Node11 -->
<g id="edge24_Node000017_Node000011" class="edge">
<title>Node17&#45;&gt;Node11</title>
<g id="a_edge24_Node000017_Node000011"><a xlink:title=" ">
<path fill="none" stroke="#63b8ff" d="M746.55,-164.96C782.21,-157.4 833.41,-145.07 876.5,-129 894.19,-122.4 897.43,-118.06 914.5,-110 938.13,-98.84 965.22,-86.83 985.24,-78.11"/>
<polygon fill="#63b8ff" stroke="#63b8ff" points="986.68,-81.3 994.46,-74.1 983.89,-74.88 986.68,-81.3"/>
</a>
</g>
</g>
<!-- Node18 -->
<g id="Node000018" class="node">
<title>Node18</title>
<g id="a_Node000018"><a xlink:title=" ">
<polygon fill="#e0e0e0" stroke="#999999" points="967.5,-129 923.5,-129 923.5,-110 967.5,-110 967.5,-129"/>
<text text-anchor="middle" x="945.5" y="-117" font-family="Helvetica,sans-Serif" font-size="10.00">string</text>
</a>
</g>
</g>
<!-- Node17&#45;&gt;Node18 -->
<g id="edge22_Node000017_Node000018" class="edge">
<title>Node17&#45;&gt;Node18</title>
<g id="a_edge22_Node000017_Node000018"><a xlink:title=" ">
<path fill="none" stroke="#63b8ff" d="M743.4,-164.96C785.2,-156.18 851.95,-141.98 909.5,-129 910.77,-128.71 912.06,-128.42 913.37,-128.12"/>
<polygon fill="#63b8ff" stroke="#63b8ff" points="914.48,-131.46 923.43,-125.78 912.9,-124.64 914.48,-131.46"/>
</a>
</g>
</g>
<!-- Node19 -->
<g id="Node000019" class="node">
<title>Node19</title>
<g id="a_Node000019"><a xlink:title=" ">
<polygon fill="#e0e0e0" stroke="#999999" points="867,-129 822,-129 822,-110 867,-110 867,-129"/>
<text text-anchor="middle" x="844.5" y="-117" font-family="Helvetica,sans-Serif" font-size="10.00">utility</text>
</a>
</g>
</g>
<!-- Node17&#45;&gt;Node19 -->
<g id="edge23_Node000017_Node000019" class="edge">
<title>Node17&#45;&gt;Node19</title>
<g id="a_edge23_Node000017_Node000019"><a xlink:title=" ">
<path fill="none" stroke="#63b8ff" d="M725.31,-164.98C748.81,-156.21 785.64,-142.47 812.14,-132.58"/>
<polygon fill="#63b8ff" stroke="#63b8ff" points="813.6,-135.77 821.74,-128.99 811.15,-129.21 813.6,-135.77"/>
</a>
</g>
</g>
<!-- Node20 -->
<g id="Node000020" class="node">
<title>Node20</title>
<g id="a_Node000020"><a xlink:title=" ">
<polygon fill="#e0e0e0" stroke="#999999" points="699.5,-129 661.5,-129 661.5,-110 699.5,-110 699.5,-129"/>
<text text-anchor="middle" x="680.5" y="-117" font-family="Helvetica,sans-Serif" font-size="10.00">map</text>
</a>
</g>
</g>
<!-- Node17&#45;&gt;Node20 -->
<g id="edge26_Node000017_Node000020" class="edge">
<title>Node17&#45;&gt;Node20</title>
<g id="a_edge26_Node000017_Node000020"><a xlink:title=" ">
<path fill="none" stroke="#63b8ff" d="M698.87,-164.75C695.92,-157.65 691.67,-147.4 687.99,-138.56"/>
<polygon fill="#63b8ff" stroke="#63b8ff" points="691.13,-136.98 684.07,-129.09 684.67,-139.67 691.13,-136.98"/>
</a>
</g>
</g>
<!-- Node21 -->
<g id="Node000021" class="node">
<title>Node21</title>
<g id="a_Node000021"><a xlink:title=" ">
<polygon fill="#e0e0e0" stroke="#999999" points="803.5,-129 717.5,-129 717.5,-110 803.5,-110 803.5,-129"/>
<text text-anchor="middle" x="760.5" y="-117" font-family="Helvetica,sans-Serif" font-size="10.00">unordered_set</text>
</a>
</g>
</g>
<!-- Node17&#45;&gt;Node21 -->
<g id="edge28_Node000017_Node000021" class="edge">
<title>Node17&#45;&gt;Node21</title>
<g id="a_edge28_Node000017_Node000021"><a xlink:title=" ">
<path fill="none" stroke="#63b8ff" d="M711.82,-164.98C720.31,-157.23 733.06,-145.58 743.38,-136.14"/>
<polygon fill="#63b8ff" stroke="#63b8ff" points="745.99,-138.5 751.01,-129.17 741.27,-133.33 745.99,-138.5"/>
</a>
</g>
</g>
<!-- Node24 -->
<g id="Node000024" class="node">
<title>Node24</title>
<g id="a_Node000024"><a xlink:title=" ">
<polygon fill="#e0e0e0" stroke="#999999" points="1438,-129 1373,-129 1373,-110 1438,-110 1438,-129"/>
<text text-anchor="middle" x="1405.5" y="-117" font-family="Helvetica,sans-Serif" font-size="10.00">functional</text>
</a>
</g>
</g>
<!-- Node23&#45;&gt;Node24 -->
<g id="edge31_Node000023_Node000024" class="edge">
<title>Node23&#45;&gt;Node24</title>
<g id="a_edge31_Node000023_Node000024"><a xlink:title=" ">
<path fill="none" stroke="#63b8ff" d="M1428.04,-164.75C1424.38,-157.57 1419.09,-147.18 1414.55,-138.27"/>
<polygon fill="#63b8ff" stroke="#63b8ff" points="1417.53,-136.41 1409.88,-129.09 1411.3,-139.59 1417.53,-136.41"/>
</a>
</g>
</g>
<!-- Node25&#45;&gt;Node14 -->
<g id="edge34_Node000025_Node000014" class="edge">
<title>Node25&#45;&gt;Node14</title>
<g id="a_edge34_Node000025_Node000014"><a xlink:title=" ">
<path fill="none" stroke="#63b8ff" d="M1348.19,-225.25C1410.35,-220.64 1497.21,-209.68 1518.5,-184 1554.5,-140.58 1470.89,-98.13 1421.52,-77.86"/>
<polygon fill="#63b8ff" stroke="#63b8ff" points="1422.74,-74.57 1412.15,-74.1 1420.13,-81.07 1422.74,-74.57"/>
</a>
</g>
</g>
<!-- Node25&#45;&gt;Node18 -->
<g id="edge33_Node000025_Node000018" class="edge">
<title>Node25&#45;&gt;Node18</title>
<g id="a_edge33_Node000025_Node000018"><a xlink:title=" ">
<path fill="none" stroke="#63b8ff" d="M1234.48,-219.93C1195.23,-212.32 1138.57,-199.94 1090.5,-184 1047.8,-169.84 1000.42,-147.82 971.8,-133.79"/>
<polygon fill="#63b8ff" stroke="#63b8ff" points="973.02,-130.48 962.5,-129.18 969.91,-136.76 973.02,-130.48"/>
</a>
</g>
</g>
<!-- Node25&#45;&gt;Node23 -->
<g id="edge35_Node000025_Node000023" class="edge">
<title>Node25&#45;&gt;Node23</title>
<g id="a_edge35_Node000025_Node000023"><a xlink:title=" ">
<path fill="none" stroke="#63b8ff" d="M1306.6,-219.98C1331.38,-211.23 1370.2,-197.51 1398.19,-187.62"/>
<polygon fill="#63b8ff" stroke="#63b8ff" points="1399.7,-190.8 1407.96,-184.17 1397.37,-184.2 1399.7,-190.8"/>
</a>
</g>
</g>
<!-- Node25&#45;&gt;Node26 -->
<g id="edge36_Node000025_Node000026" class="edge">
<title>Node25&#45;&gt;Node26</title>
<g id="a_edge36_Node000025_Node000026"><a xlink:title=" ">
<path fill="none" stroke="#63b8ff" d="M1282.5,-219.75C1282.5,-212.8 1282.5,-202.85 1282.5,-194.13"/>
<polygon fill="#63b8ff" stroke="#63b8ff" points="1286,-194.09 1282.5,-184.09 1279,-194.09 1286,-194.09"/>
</a>
</g>
</g>
<!-- Node26&#45;&gt;Node11 -->
<g id="edge38_Node000026_Node000011" class="edge">
<title>Node26&#45;&gt;Node11</title>
<g id="a_edge38_Node000026_Node000011"><a xlink:title=" ">
<path fill="none" stroke="#63b8ff" d="M1244.27,-164.94C1212.81,-157.29 1167.4,-144.86 1129.5,-129 1113.53,-122.32 1110.64,-118.39 1095.5,-110 1076.61,-99.53 1055.2,-87.77 1039.13,-78.97"/>
<polygon fill="#63b8ff" stroke="#63b8ff" points="1040.8,-75.9 1030.35,-74.16 1037.44,-82.04 1040.8,-75.9"/>
</a>
</g>
</g>
<!-- Node26&#45;&gt;Node24 -->
<g id="edge37_Node000026_Node000024" class="edge">
<title>Node26&#45;&gt;Node24</title>
<g id="a_edge37_Node000026_Node000024"><a xlink:title=" ">
<path fill="none" stroke="#63b8ff" d="M1302.26,-164.98C1322.23,-156.38 1353.3,-142.99 1376.15,-133.15"/>
<polygon fill="#63b8ff" stroke="#63b8ff" points="1377.58,-136.34 1385.38,-129.17 1374.81,-129.91 1377.58,-136.34"/>
</a>
</g>
</g>
<!-- Node27 -->
<g id="Node000027" class="node">
<title>Node27</title>
<g id="a_Node000027"><a xlink:href="ISolver_8h.html" target="_top" xlink:title="Abstract interface for numerical solvers.">
<polygon fill="white" stroke="#666666" points="1328,-129 1269,-129 1269,-110 1328,-110 1328,-129"/>
<text text-anchor="middle" x="1298.5" y="-117" font-family="Helvetica,sans-Serif" font-size="10.00">ISolver.h</text>
</a>
</g>
</g>
<!-- Node26&#45;&gt;Node27 -->
<g id="edge39_Node000026_Node000027" class="edge">
<title>Node26&#45;&gt;Node27</title>
<g id="a_edge39_Node000026_Node000027"><a xlink:title=" ">
<path fill="none" stroke="#63b8ff" d="M1285.14,-164.75C1287.26,-157.72 1290.31,-147.62 1292.96,-138.84"/>
<polygon fill="#63b8ff" stroke="#63b8ff" points="1296.37,-139.67 1295.91,-129.09 1289.67,-137.65 1296.37,-139.67"/>
</a>
</g>
</g>
<!-- Node28&#45;&gt;Node4 -->
<g id="edge44_Node000028_Node000004" class="edge">
<title>Node28&#45;&gt;Node4</title>
<g id="a_edge44_Node000028_Node000004"><a xlink:title=" ">
<path fill="none" stroke="#63b8ff" d="M665.28,-219.84C636.92,-201.28 570.01,-157.49 535.28,-134.75"/>
<polygon fill="#63b8ff" stroke="#63b8ff" points="537.07,-131.74 526.79,-129.2 533.24,-137.6 537.07,-131.74"/>
</a>
</g>
</g>
<!-- Node28&#45;&gt;Node11 -->
<g id="edge43_Node000028_Node000011" class="edge">
<title>Node28&#45;&gt;Node11</title>
<g id="a_edge43_Node000028_Node000011"><a xlink:title=" ">
<path fill="none" stroke="#63b8ff" d="M725.08,-219.94C775.55,-210.35 852.61,-194.77 880.5,-184 891.97,-179.57 967.73,-137.61 976.5,-129 989.8,-115.95 1000.23,-97.31 1006.77,-83.59"/>
<polygon fill="#63b8ff" stroke="#63b8ff" points="1010.06,-84.8 1010.99,-74.25 1003.68,-81.92 1010.06,-84.8"/>
</a>
</g>
</g>
<!-- Node28&#45;&gt;Node17 -->
<g id="edge41_Node000028_Node000017" class="edge">
<title>Node28&#45;&gt;Node17</title>
<g id="a_edge41_Node000028_Node000017"><a xlink:title=" ">
<path fill="none" stroke="#63b8ff" d="M682.46,-219.75C685.71,-212.57 690.42,-202.18 694.45,-193.27"/>
<polygon fill="#63b8ff" stroke="#63b8ff" points="697.67,-194.64 698.61,-184.09 691.3,-191.75 697.67,-194.64"/>
</a>
</g>
</g>
<!-- Node29 -->
<g id="Node000029" class="node">
<title>Node29</title>
<g id="a_Node000029"><a xlink:href="NodeIndex_8h.html" target="_top" xlink:title=" ">
<polygon fill="white" stroke="#666666" points="1005.5,-184 927.5,-184 927.5,-165 1005.5,-165 1005.5,-184"/>
<text text-anchor="middle" x="966.5" y="-172" font-family="Helvetica,sans-Serif" font-size="10.00">NodeIndex.h</text>
</a>
</g>
</g>
<!-- Node28&#45;&gt;Node29 -->
<g id="edge42_Node000028_Node000029" class="edge">
<title>Node28&#45;&gt;Node29</title>
<g id="a_edge42_Node000028_Node000029"><a xlink:title=" ">
<path fill="none" stroke="#63b8ff" d="M724.77,-219.98C777.5,-210.28 863.34,-194.48 917.27,-184.56"/>
<polygon fill="#63b8ff" stroke="#63b8ff" points="918.08,-187.97 927.28,-182.72 916.81,-181.08 918.08,-187.97"/>
</a>
</g>
</g>
<!-- Node30 -->
<g id="Node000030" class="node">
<title>Node30</title>
<g id="a_Node000030"><a xlink:title=" ">
<polygon fill="#e0e0e0" stroke="#999999" points="871.5,-184 821.5,-184 821.5,-165 871.5,-165 871.5,-184"/>
<text text-anchor="middle" x="846.5" y="-172" font-family="Helvetica,sans-Serif" font-size="10.00">cstdint</text>
</a>
</g>
</g>
<!-- Node28&#45;&gt;Node30 -->
<g id="edge45_Node000028_Node000030" class="edge">
<title>Node28&#45;&gt;Node30</title>
<g id="a_edge45_Node000028_Node000030"><a xlink:title=" ">
<path fill="none" stroke="#63b8ff" d="M705.49,-219.98C734.37,-210.88 780.26,-196.4 811.8,-186.45"/>
<polygon fill="#63b8ff" stroke="#63b8ff" points="813.01,-189.74 821.49,-183.39 810.9,-183.06 813.01,-189.74"/>
</a>
</g>
</g>
<!-- Node31&#45;&gt;Node11 -->
<g id="edge47_Node000031_Node000011" class="edge">
<title>Node31&#45;&gt;Node11</title>
<g id="a_edge47_Node000031_Node000011"><a xlink:title=" ">
<path fill="none" stroke="#63b8ff" d="M1104.39,-219.74C1089.38,-193.98 1045.18,-118.13 1024.89,-83.33"/>
<polygon fill="#63b8ff" stroke="#63b8ff" points="1027.69,-81.18 1019.63,-74.31 1021.64,-84.71 1027.69,-81.18"/>
</a>
</g>
</g>
<!-- Node31&#45;&gt;Node17 -->
<g id="edge52_Node000031_Node000017" class="edge">
<title>Node31&#45;&gt;Node17</title>
<g id="a_edge52_Node000031_Node000017"><a xlink:title=" ">
<path fill="none" stroke="#63b8ff" d="M1067.77,-221.4C1064.64,-220.91 1061.52,-220.44 1058.5,-220 960.83,-205.76 847.68,-192.1 775.63,-183.76"/>
<polygon fill="#63b8ff" stroke="#63b8ff" points="775.64,-180.24 765.3,-182.57 774.84,-187.19 775.64,-180.24"/>
</a>
</g>
</g>
<!-- Node31&#45;&gt;Node29 -->
<g id="edge51_Node000031_Node000029" class="edge">
<title>Node31&#45;&gt;Node29</title>
<g id="a_edge51_Node000031_Node000029"><a xlink:title=" ">
<path fill="none" stroke="#63b8ff" d="M1086.52,-219.98C1063,-211.27 1026.21,-197.63 999.56,-187.75"/>
<polygon fill="#63b8ff" stroke="#63b8ff" points="1000.49,-184.36 989.89,-184.17 998.05,-190.93 1000.49,-184.36"/>
</a>
</g>
</g>
<!-- Node32 -->
<g id="Node000032" class="node">
<title>Node32</title>
<g id="a_Node000032"><a xlink:href="AABB_8h.html" target="_top" xlink:title=" ">
<polygon fill="white" stroke="#666666" points="1209.5,-184 1099.5,-184 1099.5,-165 1209.5,-165 1209.5,-184"/>
<text text-anchor="middle" x="1154.5" y="-172" font-family="Helvetica,sans-Serif" font-size="10.00">../bounding/AABB.h</text>
</a>
</g>
</g>
<!-- Node31&#45;&gt;Node32 -->
<g id="edge48_Node000031_Node000032" class="edge">
<title>Node31&#45;&gt;Node32</title>
<g id="a_edge48_Node000031_Node000032"><a xlink:title=" ">
<path fill="none" stroke="#63b8ff" d="M1116.93,-219.75C1123.35,-212.18 1132.81,-201.05 1140.62,-191.84"/>
<polygon fill="#63b8ff" stroke="#63b8ff" points="1143.4,-193.98 1147.21,-184.09 1138.07,-189.45 1143.4,-193.98"/>
</a>
</g>
</g>
<!-- Node32&#45;&gt;Node11 -->
<g id="edge49_Node000032_Node000011" class="edge">
<title>Node32&#45;&gt;Node11</title>
<g id="a_edge49_Node000032_Node000011"><a xlink:title=" ">
<path fill="none" stroke="#63b8ff" d="M1142.7,-164.7C1130.75,-155.77 1111.77,-141.51 1095.5,-129 1074.23,-112.64 1050.04,-93.62 1033.67,-80.69"/>
<polygon fill="#63b8ff" stroke="#63b8ff" points="1035.47,-77.65 1025.45,-74.19 1031.13,-83.14 1035.47,-77.65"/>
</a>
</g>
</g>
<!-- Node32&#45;&gt;Node13 -->
<g id="edge50_Node000032_Node000013" class="edge">
<title>Node32&#45;&gt;Node13</title>
<g id="a_edge50_Node000032_Node000013"><a xlink:title=" ">
<path fill="none" stroke="#63b8ff" d="M1161.11,-164.75C1166.76,-157.26 1175.04,-146.28 1181.95,-137.13"/>
<polygon fill="#63b8ff" stroke="#63b8ff" points="1184.79,-139.18 1188.02,-129.09 1179.2,-134.96 1184.79,-139.18"/>
</a>
</g>
</g>
<!-- Node33&#45;&gt;Node4 -->
<g id="edge56_Node000033_Node000004" class="edge">
<title>Node33&#45;&gt;Node4</title>
<g id="a_edge56_Node000033_Node000004"><a xlink:title=" ">
<path fill="none" stroke="#63b8ff" d="M136.71,-219.91C161.6,-206.22 212.92,-179.53 259.5,-165 336.35,-141.03 430.55,-128.78 479.81,-123.61"/>
<polygon fill="#63b8ff" stroke="#63b8ff" points="480.31,-127.08 489.91,-122.58 479.61,-120.11 480.31,-127.08"/>
</a>
</g>
</g>
<!-- Node33&#45;&gt;Node6 -->
<g id="edge58_Node000033_Node000006" class="edge">
<title>Node33&#45;&gt;Node6</title>
<g id="a_edge58_Node000033_Node000006"><a xlink:title=" ">
<path fill="none" stroke="#63b8ff" d="M128.94,-219.64C140.03,-206.73 161.91,-182.41 183.5,-165 197.85,-153.43 215.4,-142.4 229.46,-134.22"/>
<polygon fill="#63b8ff" stroke="#63b8ff" points="231.59,-137.04 238.55,-129.04 228.13,-130.95 231.59,-137.04"/>
</a>
</g>
</g>
<!-- Node33&#45;&gt;Node11 -->
<g id="edge57_Node000033_Node000011" class="edge">
<title>Node33&#45;&gt;Node11</title>
<g id="a_edge57_Node000033_Node000011"><a xlink:title=" ">
<path fill="none" stroke="#63b8ff" d="M125.27,-219.81C136.07,-196.23 169.73,-131.33 221.5,-110 290,-81.78 802.34,-69.58 965.05,-66.39"/>
<polygon fill="#63b8ff" stroke="#63b8ff" points="965.33,-69.89 975.26,-66.19 965.19,-62.89 965.33,-69.89"/>
</a>
</g>
</g>
<!-- Node33&#45;&gt;Node17 -->
<g id="edge59_Node000033_Node000017" class="edge">
<title>Node33&#45;&gt;Node17</title>
<g id="a_edge59_Node000033_Node000017"><a xlink:title=" ">
<path fill="none" stroke="#63b8ff" d="M179.6,-223.2C286.17,-213.48 512.65,-192.82 629.45,-182.16"/>
<polygon fill="#63b8ff" stroke="#63b8ff" points="630.08,-185.62 639.72,-181.23 629.44,-178.65 630.08,-185.62"/>
</a>
</g>
</g>
<!-- Node34 -->
<g id="Node000034" class="node">
<title>Node34</title>
<g id="a_Node000034"><a xlink:title=" ">
<polygon fill="#e0e0e0" stroke="#999999" points="93,-184 0,-184 0,-165 93,-165 93,-184"/>
<text text-anchor="middle" x="46.5" y="-172" font-family="Helvetica,sans-Serif" font-size="10.00">unordered_map</text>
</a>
</g>
</g>
<!-- Node33&#45;&gt;Node34 -->
<g id="edge55_Node000033_Node000034" class="edge">
<title>Node33&#45;&gt;Node34</title>
<g id="a_edge55_Node000033_Node000034"><a xlink:title=" ">
<path fill="none" stroke="#63b8ff" d="M109.45,-219.98C98.04,-211.92 80.67,-199.65 67.07,-190.03"/>
<polygon fill="#63b8ff" stroke="#63b8ff" points="68.96,-187.08 58.77,-184.17 64.92,-192.8 68.96,-187.08"/>
</a>
</g>
</g>
</g>
</svg>

<g id="navigator" transform="translate(0 0)" fill="#404254">
  <rect fill="#f2f5e9" fill-opacity="0.5" stroke="#606060" stroke-width=".5" x="0" y="0" width="60" height="60"/>
  <use id="zoomplus" xlink:href="#zoomPlus" x="17" y="9" onmousedown="handleZoom(evt,'in')"/>
  <use id="zoomminus" xlink:href="#zoomMin" x="42" y="9" onmousedown="handleZoom(evt,'out')"/>
  <use id="reset" xlink:href="#resetDef" x="30" y="36" onmousedown="handleReset()"/>
   <use id="arrowup" xlink:href="#arrowUp" x="0" y="0" onmousedown="handlePan(0,-1)"/>
  <use id="arrowright" xlink:href="#arrowRight" x="0" y="0" onmousedown="handlePan(1,0)"/>
  <use id="arrowdown" xlink:href="#arrowDown" x="0" y="0" onmousedown="handlePan(0,1)"/>
  <use id="arrowleft" xlink:href="#arrowLeft" x="0" y="0" onmousedown="handlePan(-1,0)"/>
</g>
<svg viewBox="0 0 15 15" width="100%" height="30px" preserveAspectRatio="xMaxYMin meet">
 <g id="arrow_out" transform="scale(0.3 0.3)">
  <a xlink:href="PhysicsTests_8cpp__incl_org.svg" target="_base">
   <rect id="button" ry="5" rx="5" y="6" x="6" height="38" width="38"
        fill="#f2f5e9" fill-opacity="0.5" stroke="#606060" stroke-width="1.0"/>
   <path id="arrow"
     d="M 11.500037,31.436501 C 11.940474,20.09759 22.043105,11.32322 32.158766,21.979434 L 37.068811,17.246167 C 37.068811,17.246167 37.088388,32 37.088388,32 L 22.160133,31.978069 C 22.160133,31.978069 26.997745,27.140456 26.997745,27.140456 C 18.528582,18.264221 13.291696,25.230495 11.500037,31.436501 z"
     style="fill:#404040;"/>
  </a>
 </g>
</svg>

<style type='text/css'>
<![CDATA[
[data-mouse-over-selected='false'] { opacity: 0.7; }
[data-mouse-over-selected='true']  { opacity: 1.0; }
]]>
</style>
<script type="application/ecmascript"><![CDATA[
document.addEventListener('DOMContentLoaded', (event) => {
  highlightEdges();
  highlightAdjacentNodes();
});
]]></script>
</svg>
