<?xml version="1.0" encoding="UTF-8" standalone="no"?>
<!DOCTYPE svg PUBLIC "-//W3C//DTD SVG 1.1//EN"
 "http://www.w3.org/Graphics/SVG/1.1/DTD/svg11.dtd">
<!-- Generated by graphviz version 2.43.0 (0)
 -->
<!-- Title: src/physics/PhysicsSystem.cpp Pages: 1 -->
<!--zoomable 302 -->

<svg id="main" version="1.1" xmlns="http://www.w3.org/2000/svg" xmlns:xlink="http://www.w3.org/1999/xlink" xml:space="preserve" onload="init(evt)">
<style type="text/css"><![CDATA[
.node, .edge {opacity: 0.7;}
.node.selected, .edge.selected {opacity: 1;}
.edge:hover path { stroke: red; }
.edge:hover polygon { stroke: red; fill: red; }
]]></style>

<defs>
  <circle id="rim" cx="0" cy="0" r="7"/>
  <circle id="rim2" cx="0" cy="0" r="3.5"/>
  <g id="zoomPlus">
    <use xlink:href="#rim" fill="#404040"><set attributeName="fill" to="#808080" begin="zoomplus.mouseover" end="zoomplus.mouseout"/></use>
    <path d="M-4,0h8M0,-4v8" fill="none" stroke="white" stroke-width="1.5" pointer-events="none"/>
  </g>
  <g id="zoomMin">
    <use xlink:href="#rim" fill="#404040"><set attributeName="fill" to="#808080" begin="zoomminus.mouseover" end="zoomminus.mouseout"/></use>
    <path d="M-4,0h8" fill="none" stroke="white" stroke-width="1.5" pointer-events="none"/>
  </g>
  <g id="arrowUp" transform="translate(30 24)">
    <use xlink:href="#rim"/>
    <path pointer-events="none" fill="none" stroke="white" stroke-width="1.5" d="M0,-3.0v7 M-2.5,-0.5L0,-3.0L2.5,-0.5"/>
  </g>
  <g id="arrowRight" transform="rotate(90) translate(36 -43)">
    <use xlink:href="#rim"/>
    <path pointer-events="none" fill="none" stroke="white" stroke-width="1.5" d="M0,-3.0v7 M-2.5,-0.5L0,-3.0L2.5,-0.5"/>
  </g>
  <g id="arrowDown" transform="rotate(180) translate(-30 -48)">
    <use xlink:href="#rim"/>
    <path pointer-events="none" fill="none" stroke="white" stroke-width="1.5" d="M0,-3.0v7 M-2.5,-0.5L0,-3.0L2.5,-0.5"/>
  </g>
  <g id="arrowLeft" transform="rotate(270) translate(-36 17)">
    <use xlink:href="#rim"/>
    <path pointer-events="none" fill="none" stroke="white" stroke-width="1.5" d="M0,-3.0v7 M-2.5,-0.5L0,-3.0L2.5,-0.5"/>
  </g>
  <g id="resetDef">
    <use xlink:href="#rim2" fill="#404040"><set attributeName="fill" to="#808080" begin="reset.mouseover" end="reset.mouseout"/></use>
  </g>
</defs>
<script type="application/ecmascript">
var viewWidth = 1688;
var viewHeight = 302;
var sectionId = 'dynsection-0';
</script>
<script type="application/ecmascript" xlink:href="svg.min.js"/>
<svg id="graph" class="graph">
<g id="viewport">
<title>src/physics/PhysicsSystem.cpp</title>
<!-- Node1 -->
<g id="Node000001" class="node">
<title>Node1</title>
<g id="a_Node000001"><a xlink:title=" ">
<polygon fill="#999999" stroke="#666666" points="1347.57,-294 1180.57,-294 1180.57,-275 1347.57,-275 1347.57,-294"/>
<text text-anchor="middle" x="1264.07" y="-282" font-family="Helvetica,sans-Serif" font-size="10.00">src/physics/PhysicsSystem.cpp</text>
</a>
</g>
</g>
<!-- Node2 -->
<g id="Node000002" class="node">
<title>Node2</title>
<g id="a_Node000002"><a xlink:href="PhysicsSystem_8h.html" target="_top" xlink:title=" ">
<polygon fill="white" stroke="#666666" points="1069.57,-239 970.57,-239 970.57,-220 1069.57,-220 1069.57,-239"/>
<text text-anchor="middle" x="1020.07" y="-227" font-family="Helvetica,sans-Serif" font-size="10.00">PhysicsSystem.h</text>
</a>
</g>
</g>
<!-- Node1&#45;&gt;Node2 -->
<g id="edge1_Node000001_Node000002" class="edge">
<title>Node1&#45;&gt;Node2</title>
<g id="a_edge1_Node000001_Node000002"><a xlink:title=" ">
<path fill="none" stroke="#63b8ff" d="M1224.86,-274.98C1182.66,-265.82 1115.42,-251.21 1069.59,-241.26"/>
<polygon fill="#63b8ff" stroke="#63b8ff" points="1070.09,-237.78 1059.58,-239.08 1068.61,-244.63 1070.09,-237.78"/>
</a>
</g>
</g>
<!-- Node21 -->
<g id="Node000021" class="node">
<title>Node21</title>
<g id="a_Node000021"><a xlink:href="OneUnknownSolver_8h.html" target="_top" xlink:title=" ">
<polygon fill="white" stroke="#666666" points="1632.07,-129 1478.07,-129 1478.07,-110 1632.07,-110 1632.07,-129"/>
<text text-anchor="middle" x="1555.07" y="-117" font-family="Helvetica,sans-Serif" font-size="10.00">solver/OneUnknownSolver.h</text>
</a>
</g>
</g>
<!-- Node1&#45;&gt;Node21 -->
<g id="edge59_Node000001_Node000021" class="edge">
<title>Node1&#45;&gt;Node21</title>
<g id="a_edge59_Node000001_Node000021"><a xlink:title=" ">
<path fill="none" stroke="#63b8ff" d="M1284.67,-274.9C1322.2,-258.92 1403.77,-222.73 1468.07,-184 1492.76,-169.13 1519.25,-149.15 1536.43,-135.6"/>
<polygon fill="#63b8ff" stroke="#63b8ff" points="1538.87,-138.13 1544.51,-129.16 1534.5,-132.66 1538.87,-138.13"/>
</a>
</g>
</g>
<!-- Node28 -->
<g id="Node000028" class="node">
<title>Node28</title>
<g id="a_Node000028"><a xlink:title=" ">
<polygon fill="#e0e0e0" stroke="#999999" points="1598.07,-239 1538.07,-239 1538.07,-220 1598.07,-220 1598.07,-239"/>
<text text-anchor="middle" x="1568.07" y="-227" font-family="Helvetica,sans-Serif" font-size="10.00">iostream</text>
</a>
</g>
</g>
<!-- Node1&#45;&gt;Node28 -->
<g id="edge44_Node000001_Node000028" class="edge">
<title>Node1&#45;&gt;Node28</title>
<g id="a_edge44_Node000001_Node000028"><a xlink:title=" ">
<path fill="none" stroke="#63b8ff" d="M1315.92,-274.96C1368.44,-266.23 1451.98,-252.13 1524.07,-239 1525.32,-238.77 1526.58,-238.54 1527.86,-238.3"/>
<polygon fill="#63b8ff" stroke="#63b8ff" points="1528.6,-241.72 1537.79,-236.44 1527.31,-234.85 1528.6,-241.72"/>
</a>
</g>
</g>
<!-- Node29 -->
<g id="Node000029" class="node">
<title>Node29</title>
<g id="a_Node000029"><a xlink:title=" ">
<polygon fill="#e0e0e0" stroke="#999999" points="1680.07,-239 1616.07,-239 1616.07,-220 1680.07,-220 1680.07,-239"/>
<text text-anchor="middle" x="1648.07" y="-227" font-family="Helvetica,sans-Serif" font-size="10.00">algorithm</text>
</a>
</g>
</g>
<!-- Node1&#45;&gt;Node29 -->
<g id="edge45_Node000001_Node000029" class="edge">
<title>Node1&#45;&gt;Node29</title>
<g id="a_edge45_Node000001_Node000029"><a xlink:title=" ">
<path fill="none" stroke="#63b8ff" d="M1342.99,-274.97C1410.36,-267.3 1510.03,-255.02 1606.01,-239.07"/>
<polygon fill="#63b8ff" stroke="#63b8ff" points="1606.6,-242.52 1615.88,-237.41 1605.44,-235.61 1606.6,-242.52"/>
</a>
</g>
</g>
<!-- Node30 -->
<g id="Node000030" class="node">
<title>Node30</title>
<g id="a_Node000030"><a xlink:href="PointMass_8h.html" target="_top" xlink:title=" ">
<polygon fill="white" stroke="#666666" points="527.07,-184 451.07,-184 451.07,-165 527.07,-165 527.07,-184"/>
<text text-anchor="middle" x="489.07" y="-172" font-family="Helvetica,sans-Serif" font-size="10.00">PointMass.h</text>
</a>
</g>
</g>
<!-- Node1&#45;&gt;Node30 -->
<g id="edge46_Node000001_Node000030" class="edge">
<title>Node1&#45;&gt;Node30</title>
<g id="a_edge46_Node000001_Node000030"><a xlink:title=" ">
<path fill="none" stroke="#63b8ff" d="M1195.89,-274.98C1067.13,-258.7 779.44,-221.46 538.07,-184 537.85,-183.97 537.63,-183.93 537.41,-183.9"/>
<polygon fill="#63b8ff" stroke="#63b8ff" points="537.73,-180.4 527.3,-182.27 536.61,-187.31 537.73,-180.4"/>
</a>
</g>
</g>
<!-- Node32 -->
<g id="Node000032" class="node">
<title>Node32</title>
<g id="a_Node000032"><a xlink:href="MathUtils_8h.html" target="_top" xlink:title="Mathematical utility functions for 3D graphics and physics.">
<polygon fill="white" stroke="#666666" points="195.57,-184 94.57,-184 94.57,-165 195.57,-165 195.57,-184"/>
<text text-anchor="middle" x="145.07" y="-172" font-family="Helvetica,sans-Serif" font-size="10.00">math/MathUtils.h</text>
</a>
</g>
</g>
<!-- Node1&#45;&gt;Node32 -->
<g id="edge52_Node000001_Node000032" class="edge">
<title>Node1&#45;&gt;Node32</title>
<g id="a_edge52_Node000001_Node000032"><a xlink:title=" ">
<path fill="none" stroke="#63b8ff" d="M1180.28,-276.62C1001.71,-261.73 570.57,-224.57 210.07,-184 208.76,-183.85 207.44,-183.7 206.12,-183.55"/>
<polygon fill="#63b8ff" stroke="#63b8ff" points="206.13,-180.03 195.79,-182.31 205.3,-186.98 206.13,-180.03"/>
</a>
</g>
</g>
<!-- Node3 -->
<g id="Node000003" class="node">
<title>Node3</title>
<g id="a_Node000003"><a xlink:title=" ">
<polygon fill="#e0e0e0" stroke="#999999" points="398.57,-74 351.57,-74 351.57,-55 398.57,-55 398.57,-74"/>
<text text-anchor="middle" x="375.07" y="-62" font-family="Helvetica,sans-Serif" font-size="10.00">vector</text>
</a>
</g>
</g>
<!-- Node2&#45;&gt;Node3 -->
<g id="edge2_Node000002_Node000003" class="edge">
<title>Node2&#45;&gt;Node3</title>
<g id="a_edge2_Node000002_Node000003"><a xlink:title=" ">
<path fill="none" stroke="#63b8ff" d="M970.56,-226.72C849.64,-222.06 541.85,-208.12 442.07,-184 380.69,-169.16 346.02,-181.59 311.07,-129 297.89,-109.18 322.95,-90.5 345.46,-78.6"/>
<polygon fill="#63b8ff" stroke="#63b8ff" points="347.13,-81.68 354.52,-74.09 344.01,-75.42 347.13,-81.68"/>
</a>
</g>
</g>
<!-- Node4 -->
<g id="Node000004" class="node">
<title>Node4</title>
<g id="a_Node000004"><a xlink:title=" ">
<polygon fill="#e0e0e0" stroke="#999999" points="1250.07,-74 1200.07,-74 1200.07,-55 1250.07,-55 1250.07,-74"/>
<text text-anchor="middle" x="1225.07" y="-62" font-family="Helvetica,sans-Serif" font-size="10.00">atomic</text>
</a>
</g>
</g>
<!-- Node2&#45;&gt;Node4 -->
<g id="edge3_Node000002_Node000004" class="edge">
<title>Node2&#45;&gt;Node4</title>
<g id="a_edge3_Node000002_Node000004"><a xlink:title=" ">
<path fill="none" stroke="#63b8ff" d="M1069.72,-225.25C1104.07,-220.67 1149.01,-209.78 1180.07,-184 1210.3,-158.9 1220.25,-111.16 1223.51,-84.57"/>
<polygon fill="#63b8ff" stroke="#63b8ff" points="1227.02,-84.61 1224.55,-74.3 1220.06,-83.9 1227.02,-84.61"/>
</a>
</g>
</g>
<!-- Node5 -->
<g id="Node000005" class="node">
<title>Node5</title>
<g id="a_Node000005"><a xlink:title=" ">
<polygon fill="#e0e0e0" stroke="#999999" points="1043.07,-74 995.07,-74 995.07,-55 1043.07,-55 1043.07,-74"/>
<text text-anchor="middle" x="1019.07" y="-62" font-family="Helvetica,sans-Serif" font-size="10.00">mutex</text>
</a>
</g>
</g>
<!-- Node2&#45;&gt;Node5 -->
<g id="edge4_Node000002_Node000005" class="edge">
<title>Node2&#45;&gt;Node5</title>
<g id="a_edge4_Node000002_Node000005"><a xlink:title=" ">
<path fill="none" stroke="#63b8ff" d="M1055.31,-219.94C1116.23,-203.48 1230.89,-164.18 1189.07,-110 1180.7,-99.17 1100.55,-81.66 1053.35,-72.15"/>
<polygon fill="#63b8ff" stroke="#63b8ff" points="1053.74,-68.66 1043.25,-70.14 1052.37,-75.53 1053.74,-68.66"/>
</a>
</g>
</g>
<!-- Node6 -->
<g id="Node000006" class="node">
<title>Node6</title>
<g id="a_Node000006"><a xlink:title=" ">
<polygon fill="#e0e0e0" stroke="#999999" points="595.07,-184 547.07,-184 547.07,-165 595.07,-165 595.07,-184"/>
<text text-anchor="middle" x="571.07" y="-172" font-family="Helvetica,sans-Serif" font-size="10.00">thread</text>
</a>
</g>
</g>
<!-- Node2&#45;&gt;Node6 -->
<g id="edge5_Node000002_Node000006" class="edge">
<title>Node2&#45;&gt;Node6</title>
<g id="a_edge5_Node000002_Node000006"><a xlink:title=" ">
<path fill="none" stroke="#63b8ff" d="M970.43,-225.53C893.92,-220.45 742.52,-208.36 605,-183.91"/>
<polygon fill="#63b8ff" stroke="#63b8ff" points="605.59,-180.46 595.13,-182.13 604.35,-187.35 605.59,-180.46"/>
</a>
</g>
</g>
<!-- Node7 -->
<g id="Node000007" class="node">
<title>Node7</title>
<g id="a_Node000007"><a xlink:title=" ">
<polygon fill="#e0e0e0" stroke="#999999" points="720.57,-184 613.57,-184 613.57,-165 720.57,-165 720.57,-184"/>
<text text-anchor="middle" x="667.07" y="-172" font-family="Helvetica,sans-Serif" font-size="10.00">condition_variable</text>
</a>
</g>
</g>
<!-- Node2&#45;&gt;Node7 -->
<g id="edge6_Node000002_Node000007" class="edge">
<title>Node2&#45;&gt;Node7</title>
<g id="a_edge6_Node000002_Node000007"><a xlink:title=" ">
<path fill="none" stroke="#63b8ff" d="M970.24,-221.02C907.51,-211.6 799.67,-195.41 730.95,-185.09"/>
<polygon fill="#63b8ff" stroke="#63b8ff" points="731.09,-181.57 720.68,-183.55 730.05,-188.5 731.09,-181.57"/>
</a>
</g>
</g>
<!-- Node8 -->
<g id="Node000008" class="node">
<title>Node8</title>
<g id="a_Node000008"><a xlink:title=" ">
<polygon fill="#e0e0e0" stroke="#999999" points="72.07,-74 16.07,-74 16.07,-55 72.07,-55 72.07,-74"/>
<text text-anchor="middle" x="44.07" y="-62" font-family="Helvetica,sans-Serif" font-size="10.00">optional</text>
</a>
</g>
</g>
<!-- Node2&#45;&gt;Node8 -->
<g id="edge7_Node000002_Node000008" class="edge">
<title>Node2&#45;&gt;Node8</title>
<g id="a_edge7_Node000002_Node000008"><a xlink:title=" ">
<path fill="none" stroke="#63b8ff" d="M970.56,-227.7C789.48,-224.55 169.26,-211.82 85.07,-184 43.4,-170.23 23.72,-167.72 3.07,-129 -6.16,-111.71 9.34,-92.98 23.84,-80.38"/>
<polygon fill="#63b8ff" stroke="#63b8ff" points="26.08,-83.07 31.64,-74.05 21.67,-77.64 26.08,-83.07"/>
</a>
</g>
</g>
<!-- Node9 -->
<g id="Node000009" class="node">
<title>Node9</title>
<g id="a_Node000009"><a xlink:href="RigidBody_8h.html" target="_top" xlink:title=" ">
<polygon fill="white" stroke="#666666" points="1057.07,-184 983.07,-184 983.07,-165 1057.07,-165 1057.07,-184"/>
<text text-anchor="middle" x="1020.07" y="-172" font-family="Helvetica,sans-Serif" font-size="10.00">RigidBody.h</text>
</a>
</g>
</g>
<!-- Node2&#45;&gt;Node9 -->
<g id="edge8_Node000002_Node000009" class="edge">
<title>Node2&#45;&gt;Node9</title>
<g id="a_edge8_Node000002_Node000009"><a xlink:title=" ">
<path fill="none" stroke="#63b8ff" d="M1020.07,-219.75C1020.07,-212.8 1020.07,-202.85 1020.07,-194.13"/>
<polygon fill="#63b8ff" stroke="#63b8ff" points="1023.57,-194.09 1020.07,-184.09 1016.57,-194.09 1023.57,-194.09"/>
</a>
</g>
</g>
<!-- Node20 -->
<g id="Node000020" class="node">
<title>Node20</title>
<g id="a_Node000020"><a xlink:href="Constants_8h.html" target="_top" xlink:title=" ">
<polygon fill="white" stroke="#666666" points="853.07,-184 739.07,-184 739.07,-165 853.07,-165 853.07,-184"/>
<text text-anchor="middle" x="796.07" y="-172" font-family="Helvetica,sans-Serif" font-size="10.00">physics/Constants.h</text>
</a>
</g>
</g>
<!-- Node2&#45;&gt;Node20 -->
<g id="edge27_Node000002_Node000020" class="edge">
<title>Node2&#45;&gt;Node20</title>
<g id="a_edge27_Node000002_Node000020"><a xlink:title=" ">
<path fill="none" stroke="#63b8ff" d="M984.08,-219.98C945.57,-210.87 884.38,-196.4 842.33,-186.45"/>
<polygon fill="#63b8ff" stroke="#63b8ff" points="842.88,-182.98 832.34,-184.08 841.26,-189.79 842.88,-182.98"/>
</a>
</g>
</g>
<!-- Node2&#45;&gt;Node21 -->
<g id="edge28_Node000002_Node000021" class="edge">
<title>Node2&#45;&gt;Node21</title>
<g id="a_edge28_Node000002_Node000021"><a xlink:title=" ">
<path fill="none" stroke="#63b8ff" d="M1069.74,-228.96C1148.35,-228.41 1305.47,-222.07 1432.07,-184 1470.06,-172.58 1510.2,-149.48 1533.92,-134.52"/>
<polygon fill="#63b8ff" stroke="#63b8ff" points="1535.93,-137.38 1542.46,-129.03 1532.15,-131.49 1535.93,-137.38"/>
</a>
</g>
</g>
<!-- Node23 -->
<g id="Node000023" class="node">
<title>Node23</title>
<g id="a_Node000023"><a xlink:href="ProblemRouter_8h.html" target="_top" xlink:title=" ">
<polygon fill="white" stroke="#666666" points="1405.57,-184 1274.57,-184 1274.57,-165 1405.57,-165 1405.57,-184"/>
<text text-anchor="middle" x="1340.07" y="-172" font-family="Helvetica,sans-Serif" font-size="10.00">solver/ProblemRouter.h</text>
</a>
</g>
</g>
<!-- Node2&#45;&gt;Node23 -->
<g id="edge30_Node000002_Node000023" class="edge">
<title>Node2&#45;&gt;Node23</title>
<g id="a_edge30_Node000002_Node000023"><a xlink:title=" ">
<path fill="none" stroke="#63b8ff" d="M1069.72,-220.28C1125.97,-210.96 1217.72,-195.76 1278.49,-185.7"/>
<polygon fill="#63b8ff" stroke="#63b8ff" points="1279.42,-189.09 1288.71,-184.01 1278.27,-182.19 1279.42,-189.09"/>
</a>
</g>
</g>
<!-- Node24 -->
<g id="Node000024" class="node">
<title>Node24</title>
<g id="a_Node000024"><a xlink:href="VectorRootSolver_8h.html" target="_top" xlink:title=" ">
<polygon fill="white" stroke="#666666" points="1459.57,-129 1350.57,-129 1350.57,-110 1459.57,-110 1459.57,-129"/>
<text text-anchor="middle" x="1405.07" y="-117" font-family="Helvetica,sans-Serif" font-size="10.00">VectorRootSolver.h</text>
</a>
</g>
</g>
<!-- Node2&#45;&gt;Node24 -->
<g id="edge43_Node000002_Node000024" class="edge">
<title>Node2&#45;&gt;Node24</title>
<g id="a_edge43_Node000002_Node000024"><a xlink:title=" ">
<path fill="none" stroke="#63b8ff" d="M1069.73,-226.54C1170.72,-222.03 1392.42,-209.34 1415.07,-184 1426.08,-171.68 1421.01,-152.37 1414.77,-138.28"/>
<polygon fill="#63b8ff" stroke="#63b8ff" points="1417.81,-136.52 1410.24,-129.11 1411.54,-139.63 1417.81,-136.52"/>
</a>
</g>
</g>
<!-- Node26 -->
<g id="Node000026" class="node">
<title>Node26</title>
<g id="a_Node000026"><a xlink:href="Octree_8h.html" target="_top" xlink:title=" ">
<polygon fill="white" stroke="#666666" points="965.07,-184 871.07,-184 871.07,-165 965.07,-165 965.07,-184"/>
<text text-anchor="middle" x="918.07" y="-172" font-family="Helvetica,sans-Serif" font-size="10.00">spatial/Octree.h</text>
</a>
</g>
</g>
<!-- Node2&#45;&gt;Node26 -->
<g id="edge38_Node000002_Node000026" class="edge">
<title>Node2&#45;&gt;Node26</title>
<g id="a_edge38_Node000002_Node000026"><a xlink:title=" ">
<path fill="none" stroke="#63b8ff" d="M1003.68,-219.98C987.49,-211.57 962.5,-198.59 943.69,-188.81"/>
<polygon fill="#63b8ff" stroke="#63b8ff" points="945.24,-185.68 934.75,-184.17 942.01,-191.89 945.24,-185.68"/>
</a>
</g>
</g>
<!-- Node9&#45;&gt;Node3 -->
<g id="edge10_Node000009_Node000003" class="edge">
<title>Node9&#45;&gt;Node3</title>
<g id="a_edge10_Node000009_Node000003"><a xlink:title=" ">
<path fill="none" stroke="#63b8ff" d="M983,-165.18C924.41,-152.21 806.71,-126.92 706.07,-110 597.92,-91.81 468.89,-76.21 408.87,-69.3"/>
<polygon fill="#63b8ff" stroke="#63b8ff" points="409.16,-65.81 398.83,-68.15 408.37,-72.76 409.16,-65.81"/>
</a>
</g>
</g>
<!-- Node9&#45;&gt;Node5 -->
<g id="edge9_Node000009_Node000005" class="edge">
<title>Node9&#45;&gt;Node5</title>
<g id="a_edge9_Node000009_Node000005"><a xlink:title=" ">
<path fill="none" stroke="#63b8ff" d="M1019.99,-164.66C1019.82,-147.17 1019.46,-107.8 1019.24,-84.27"/>
<polygon fill="#63b8ff" stroke="#63b8ff" points="1022.74,-84.13 1019.15,-74.16 1015.74,-84.19 1022.74,-84.13"/>
</a>
</g>
</g>
<!-- Node10 -->
<g id="Node000010" class="node">
<title>Node10</title>
<g id="a_Node000010"><a xlink:title=" ">
<polygon fill="#e0e0e0" stroke="#999999" points="765.07,-74 687.07,-74 687.07,-55 765.07,-55 765.07,-74"/>
<text text-anchor="middle" x="726.07" y="-62" font-family="Helvetica,sans-Serif" font-size="10.00">glm/glm.hpp</text>
</a>
</g>
</g>
<!-- Node9&#45;&gt;Node10 -->
<g id="edge11_Node000009_Node000010" class="edge">
<title>Node9&#45;&gt;Node10</title>
<g id="a_edge11_Node000009_Node000010"><a xlink:title=" ">
<path fill="none" stroke="#63b8ff" d="M982.96,-165.09C950.16,-157.21 901.27,-144.36 860.07,-129 820.75,-114.34 777.18,-92.61 750.71,-78.75"/>
<polygon fill="#63b8ff" stroke="#63b8ff" points="752.25,-75.61 741.77,-74.03 748.98,-81.8 752.25,-75.61"/>
</a>
</g>
</g>
<!-- Node11 -->
<g id="Node000011" class="node">
<title>Node11</title>
<g id="a_Node000011"><a xlink:title=" ">
<polygon fill="#e0e0e0" stroke="#999999" points="1180.07,-129 1050.07,-129 1050.07,-110 1180.07,-110 1180.07,-129"/>
<text text-anchor="middle" x="1115.07" y="-117" font-family="Helvetica,sans-Serif" font-size="10.00">glm/gtc/quaternion.hpp</text>
</a>
</g>
</g>
<!-- Node9&#45;&gt;Node11 -->
<g id="edge12_Node000009_Node000011" class="edge">
<title>Node9&#45;&gt;Node11</title>
<g id="a_edge12_Node000009_Node000011"><a xlink:title=" ">
<path fill="none" stroke="#63b8ff" d="M1035.33,-164.98C1050.2,-156.69 1073.05,-143.94 1090.48,-134.22"/>
<polygon fill="#63b8ff" stroke="#63b8ff" points="1092.5,-137.1 1099.53,-129.17 1089.09,-130.99 1092.5,-137.1"/>
</a>
</g>
</g>
<!-- Node12 -->
<g id="Node000012" class="node">
<title>Node12</title>
<g id="a_Node000012"><a xlink:href="ICollider_8h.html" target="_top" xlink:title="Abstract interface for collision detection shapes.">
<polygon fill="white" stroke="#666666" points="697.57,-129 584.57,-129 584.57,-110 697.57,-110 697.57,-129"/>
<text text-anchor="middle" x="641.07" y="-117" font-family="Helvetica,sans-Serif" font-size="10.00">bounding/ICollider.h</text>
</a>
</g>
</g>
<!-- Node9&#45;&gt;Node12 -->
<g id="edge13_Node000009_Node000012" class="edge">
<title>Node9&#45;&gt;Node12</title>
<g id="a_edge13_Node000009_Node000012"><a xlink:title=" ">
<path fill="none" stroke="#63b8ff" d="M982.94,-166.47C979.94,-165.96 976.95,-165.46 974.07,-165 882.02,-150.35 775.14,-136.65 707.81,-128.43"/>
<polygon fill="#63b8ff" stroke="#63b8ff" points="708.11,-124.94 697.76,-127.2 707.26,-131.88 708.11,-124.94"/>
</a>
</g>
</g>
<!-- Node16 -->
<g id="Node000016" class="node">
<title>Node16</title>
<g id="a_Node000016"><a xlink:href="PhysicsBody_8h.html" target="_top" xlink:title=" ">
<polygon fill="white" stroke="#666666" points="993.57,-129 868.57,-129 868.57,-110 993.57,-110 993.57,-129"/>
<text text-anchor="middle" x="931.07" y="-117" font-family="Helvetica,sans-Serif" font-size="10.00">physics/PhysicsBody.h</text>
</a>
</g>
</g>
<!-- Node9&#45;&gt;Node16 -->
<g id="edge19_Node000009_Node000016" class="edge">
<title>Node9&#45;&gt;Node16</title>
<g id="a_edge19_Node000009_Node000016"><a xlink:title=" ">
<path fill="none" stroke="#63b8ff" d="M1005.77,-164.98C991.97,-156.77 970.83,-144.18 954.55,-134.49"/>
<polygon fill="#63b8ff" stroke="#63b8ff" points="956.01,-131.28 945.63,-129.17 952.43,-137.29 956.01,-131.28"/>
</a>
</g>
</g>
<!-- Node12&#45;&gt;Node8 -->
<g id="edge16_Node000012_Node000008" class="edge">
<title>Node12&#45;&gt;Node8</title>
<g id="a_edge16_Node000012_Node000008"><a xlink:title=" ">
<path fill="none" stroke="#63b8ff" d="M584.56,-111.02C581.35,-110.66 578.17,-110.31 575.07,-110 359.14,-88.13 303.2,-102.63 88.07,-74 86.32,-73.77 84.53,-73.51 82.73,-73.23"/>
<polygon fill="#63b8ff" stroke="#63b8ff" points="82.83,-69.7 72.39,-71.48 81.66,-76.6 82.83,-69.7"/>
</a>
</g>
</g>
<!-- Node12&#45;&gt;Node10 -->
<g id="edge14_Node000012_Node000010" class="edge">
<title>Node12&#45;&gt;Node10</title>
<g id="a_edge14_Node000012_Node000010"><a xlink:title=" ">
<path fill="none" stroke="#63b8ff" d="M654.72,-109.98C667.9,-101.77 688.09,-89.18 703.64,-79.49"/>
<polygon fill="#63b8ff" stroke="#63b8ff" points="705.53,-82.43 712.16,-74.17 701.82,-76.49 705.53,-82.43"/>
</a>
</g>
</g>
<!-- Node13 -->
<g id="Node000013" class="node">
<title>Node13</title>
<g id="a_Node000013"><a xlink:title=" ">
<polygon fill="#e0e0e0" stroke="#999999" points="1140.07,-74 1082.07,-74 1082.07,-55 1140.07,-55 1140.07,-74"/>
<text text-anchor="middle" x="1111.07" y="-62" font-family="Helvetica,sans-Serif" font-size="10.00">memory</text>
</a>
</g>
</g>
<!-- Node12&#45;&gt;Node13 -->
<g id="edge15_Node000012_Node000013" class="edge">
<title>Node12&#45;&gt;Node13</title>
<g id="a_edge15_Node000012_Node000013"><a xlink:title=" ">
<path fill="none" stroke="#63b8ff" d="M697.65,-113.01C776.97,-105.17 925.67,-89.94 1052.07,-74 1058.47,-73.19 1065.25,-72.27 1071.85,-71.35"/>
<polygon fill="#63b8ff" stroke="#63b8ff" points="1072.58,-74.78 1081.99,-69.9 1071.59,-67.85 1072.58,-74.78"/>
</a>
</g>
</g>
<!-- Node14 -->
<g id="Node000014" class="node">
<title>Node14</title>
<g id="a_Node000014"><a xlink:href="Ray_8h.html" target="_top" xlink:title=" ">
<polygon fill="white" stroke="#666666" points="168.57,-74 97.57,-74 97.57,-55 168.57,-55 168.57,-74"/>
<text text-anchor="middle" x="133.07" y="-62" font-family="Helvetica,sans-Serif" font-size="10.00">math/Ray.h</text>
</a>
</g>
</g>
<!-- Node12&#45;&gt;Node14 -->
<g id="edge17_Node000012_Node000014" class="edge">
<title>Node12&#45;&gt;Node14</title>
<g id="a_edge17_Node000012_Node000014"><a xlink:title=" ">
<path fill="none" stroke="#63b8ff" d="M584.55,-111.12C581.35,-110.73 578.17,-110.36 575.07,-110 430.61,-93.43 259.19,-77.13 178.88,-69.69"/>
<polygon fill="#63b8ff" stroke="#63b8ff" points="178.9,-66.18 168.62,-68.74 178.26,-73.15 178.9,-66.18"/>
</a>
</g>
</g>
<!-- Node15 -->
<g id="Node000015" class="node">
<title>Node15</title>
<g id="a_Node000015"><a xlink:title=" ">
<polygon fill="#e0e0e0" stroke="#999999" points="174.57,-19 91.57,-19 91.57,0 174.57,0 174.57,-19"/>
<text text-anchor="middle" x="133.07" y="-7" font-family="Helvetica,sans-Serif" font-size="10.00">glm/vec3.hpp</text>
</a>
</g>
</g>
<!-- Node14&#45;&gt;Node15 -->
<g id="edge18_Node000014_Node000015" class="edge">
<title>Node14&#45;&gt;Node15</title>
<g id="a_edge18_Node000014_Node000015"><a xlink:title=" ">
<path fill="none" stroke="#63b8ff" d="M133.07,-54.75C133.07,-47.8 133.07,-37.85 133.07,-29.13"/>
<polygon fill="#63b8ff" stroke="#63b8ff" points="136.57,-29.09 133.07,-19.09 129.57,-29.09 136.57,-29.09"/>
</a>
</g>
</g>
<!-- Node16&#45;&gt;Node3 -->
<g id="edge23_Node000016_Node000003" class="edge">
<title>Node16&#45;&gt;Node3</title>
<g id="a_edge23_Node000016_Node000003"><a xlink:title=" ">
<path fill="none" stroke="#63b8ff" d="M868.37,-112.52C750.49,-101.29 499.54,-77.37 408.74,-68.71"/>
<polygon fill="#63b8ff" stroke="#63b8ff" points="409.01,-65.22 398.73,-67.76 408.35,-72.19 409.01,-65.22"/>
</a>
</g>
</g>
<!-- Node16&#45;&gt;Node4 -->
<g id="edge20_Node000016_Node000004" class="edge">
<title>Node16&#45;&gt;Node4</title>
<g id="a_edge20_Node000016_Node000004"><a xlink:title=" ">
<path fill="none" stroke="#63b8ff" d="M978.3,-109.98C1037.35,-99.34 1137.05,-81.37 1189.83,-71.85"/>
<polygon fill="#63b8ff" stroke="#63b8ff" points="1190.52,-75.28 1199.74,-70.07 1189.28,-68.4 1190.52,-75.28"/>
</a>
</g>
</g>
<!-- Node16&#45;&gt;Node5 -->
<g id="edge25_Node000016_Node000005" class="edge">
<title>Node16&#45;&gt;Node5</title>
<g id="a_edge25_Node000016_Node000005"><a xlink:title=" ">
<path fill="none" stroke="#63b8ff" d="M945.21,-109.98C958.85,-101.77 979.75,-89.18 995.84,-79.49"/>
<polygon fill="#63b8ff" stroke="#63b8ff" points="997.91,-82.33 1004.67,-74.17 994.3,-76.33 997.91,-82.33"/>
</a>
</g>
</g>
<!-- Node16&#45;&gt;Node10 -->
<g id="edge22_Node000016_Node000010" class="edge">
<title>Node16&#45;&gt;Node10</title>
<g id="a_edge22_Node000016_Node000010"><a xlink:title=" ">
<path fill="none" stroke="#63b8ff" d="M898.13,-109.98C863.12,-100.93 807.6,-86.58 769.14,-76.64"/>
<polygon fill="#63b8ff" stroke="#63b8ff" points="769.82,-73.2 759.26,-74.08 768.07,-79.97 769.82,-73.2"/>
</a>
</g>
</g>
<!-- Node17 -->
<g id="Node000017" class="node">
<title>Node17</title>
<g id="a_Node000017"><a xlink:title=" ">
<polygon fill="#e0e0e0" stroke="#999999" points="1339.07,-74 1295.07,-74 1295.07,-55 1339.07,-55 1339.07,-74"/>
<text text-anchor="middle" x="1317.07" y="-62" font-family="Helvetica,sans-Serif" font-size="10.00">string</text>
</a>
</g>
</g>
<!-- Node16&#45;&gt;Node17 -->
<g id="edge21_Node000016_Node000017" class="edge">
<title>Node16&#45;&gt;Node17</title>
<g id="a_edge21_Node000016_Node000017"><a xlink:title=" ">
<path fill="none" stroke="#63b8ff" d="M993.67,-110.21C1059.69,-101.42 1166.74,-87.03 1259.07,-74 1267.52,-72.81 1276.66,-71.48 1285.13,-70.24"/>
<polygon fill="#63b8ff" stroke="#63b8ff" points="1285.66,-73.7 1295.04,-68.78 1284.64,-66.78 1285.66,-73.7"/>
</a>
</g>
</g>
<!-- Node18 -->
<g id="Node000018" class="node">
<title>Node18</title>
<g id="a_Node000018"><a xlink:title=" ">
<polygon fill="#e0e0e0" stroke="#999999" points="871.07,-74 833.07,-74 833.07,-55 871.07,-55 871.07,-74"/>
<text text-anchor="middle" x="852.07" y="-62" font-family="Helvetica,sans-Serif" font-size="10.00">map</text>
</a>
</g>
</g>
<!-- Node16&#45;&gt;Node18 -->
<g id="edge24_Node000016_Node000018" class="edge">
<title>Node16&#45;&gt;Node18</title>
<g id="a_edge24_Node000016_Node000018"><a xlink:title=" ">
<path fill="none" stroke="#63b8ff" d="M918.37,-109.98C906.24,-101.84 887.71,-89.41 873.32,-79.76"/>
<polygon fill="#63b8ff" stroke="#63b8ff" points="875.24,-76.84 864.99,-74.17 871.34,-82.65 875.24,-76.84"/>
</a>
</g>
</g>
<!-- Node19 -->
<g id="Node000019" class="node">
<title>Node19</title>
<g id="a_Node000019"><a xlink:title=" ">
<polygon fill="#e0e0e0" stroke="#999999" points="975.07,-74 889.07,-74 889.07,-55 975.07,-55 975.07,-74"/>
<text text-anchor="middle" x="932.07" y="-62" font-family="Helvetica,sans-Serif" font-size="10.00">unordered_set</text>
</a>
</g>
</g>
<!-- Node16&#45;&gt;Node19 -->
<g id="edge26_Node000016_Node000019" class="edge">
<title>Node16&#45;&gt;Node19</title>
<g id="a_edge26_Node000016_Node000019"><a xlink:title=" ">
<path fill="none" stroke="#63b8ff" d="M931.23,-109.75C931.36,-102.8 931.55,-92.85 931.72,-84.13"/>
<polygon fill="#63b8ff" stroke="#63b8ff" points="935.22,-84.15 931.9,-74.09 928.22,-84.02 935.22,-84.15"/>
</a>
</g>
</g>
<!-- Node22 -->
<g id="Node000022" class="node">
<title>Node22</title>
<g id="a_Node000022"><a xlink:title=" ">
<polygon fill="#e0e0e0" stroke="#999999" points="1552.57,-74 1487.57,-74 1487.57,-55 1552.57,-55 1552.57,-74"/>
<text text-anchor="middle" x="1520.07" y="-62" font-family="Helvetica,sans-Serif" font-size="10.00">functional</text>
</a>
</g>
</g>
<!-- Node21&#45;&gt;Node22 -->
<g id="edge29_Node000021_Node000022" class="edge">
<title>Node21&#45;&gt;Node22</title>
<g id="a_edge29_Node000021_Node000022"><a xlink:title=" ">
<path fill="none" stroke="#63b8ff" d="M1549.29,-109.75C1544.45,-102.42 1537.39,-91.73 1531.42,-82.7"/>
<polygon fill="#63b8ff" stroke="#63b8ff" points="1534.17,-80.5 1525.74,-74.09 1528.33,-84.36 1534.17,-80.5"/>
</a>
</g>
</g>
<!-- Node23&#45;&gt;Node13 -->
<g id="edge32_Node000023_Node000013" class="edge">
<title>Node23&#45;&gt;Node13</title>
<g id="a_edge32_Node000023_Node000013"><a xlink:title=" ">
<path fill="none" stroke="#63b8ff" d="M1325.44,-164.94C1303.4,-152.2 1260.21,-127.84 1222.07,-110 1196.46,-98.02 1166.7,-86.2 1144.44,-77.75"/>
<polygon fill="#63b8ff" stroke="#63b8ff" points="1145.37,-74.37 1134.78,-74.12 1142.91,-80.92 1145.37,-74.37"/>
</a>
</g>
</g>
<!-- Node23&#45;&gt;Node17 -->
<g id="edge31_Node000023_Node000017" class="edge">
<title>Node23&#45;&gt;Node17</title>
<g id="a_edge31_Node000023_Node000017"><a xlink:title=" ">
<path fill="none" stroke="#63b8ff" d="M1338.18,-164.66C1334.44,-147.09 1326,-107.45 1321,-83.95"/>
<polygon fill="#63b8ff" stroke="#63b8ff" points="1324.42,-83.21 1318.91,-74.16 1317.57,-84.67 1324.42,-83.21"/>
</a>
</g>
</g>
<!-- Node23&#45;&gt;Node21 -->
<g id="edge33_Node000023_Node000021" class="edge">
<title>Node23&#45;&gt;Node21</title>
<g id="a_edge33_Node000023_Node000021"><a xlink:title=" ">
<path fill="none" stroke="#63b8ff" d="M1374.61,-164.98C1411.49,-155.89 1470.05,-141.46 1510.41,-131.51"/>
<polygon fill="#63b8ff" stroke="#63b8ff" points="1511.38,-134.87 1520.25,-129.08 1509.71,-128.08 1511.38,-134.87"/>
</a>
</g>
</g>
<!-- Node23&#45;&gt;Node24 -->
<g id="edge34_Node000023_Node000024" class="edge">
<title>Node23&#45;&gt;Node24</title>
<g id="a_edge34_Node000023_Node000024"><a xlink:title=" ">
<path fill="none" stroke="#63b8ff" d="M1350.51,-164.98C1360.21,-157.07 1374.88,-145.11 1386.57,-135.58"/>
<polygon fill="#63b8ff" stroke="#63b8ff" points="1388.9,-138.2 1394.43,-129.17 1384.47,-132.78 1388.9,-138.2"/>
</a>
</g>
</g>
<!-- Node24&#45;&gt;Node10 -->
<g id="edge36_Node000024_Node000010" class="edge">
<title>Node24&#45;&gt;Node10</title>
<g id="a_edge36_Node000024_Node000010"><a xlink:title=" ">
<path fill="none" stroke="#63b8ff" d="M1350.18,-114.48C1247.08,-106.89 1017.4,-89.79 824.07,-74 808.15,-72.7 790.78,-71.22 775.15,-69.86"/>
<polygon fill="#63b8ff" stroke="#63b8ff" points="775.43,-66.37 765.16,-68.98 774.82,-73.34 775.43,-66.37"/>
</a>
</g>
</g>
<!-- Node24&#45;&gt;Node22 -->
<g id="edge35_Node000024_Node000022" class="edge">
<title>Node24&#45;&gt;Node22</title>
<g id="a_edge35_Node000024_Node000022"><a xlink:title=" ">
<path fill="none" stroke="#63b8ff" d="M1423.54,-109.98C1442.04,-101.46 1470.75,-88.23 1492.05,-78.41"/>
<polygon fill="#63b8ff" stroke="#63b8ff" points="1493.64,-81.53 1501.25,-74.17 1490.71,-75.18 1493.64,-81.53"/>
</a>
</g>
</g>
<!-- Node25 -->
<g id="Node000025" class="node">
<title>Node25</title>
<g id="a_Node000025"><a xlink:href="ISolver_8h.html" target="_top" xlink:title="Abstract interface for numerical solvers.">
<polygon fill="white" stroke="#666666" points="1434.57,-74 1375.57,-74 1375.57,-55 1434.57,-55 1434.57,-74"/>
<text text-anchor="middle" x="1405.07" y="-62" font-family="Helvetica,sans-Serif" font-size="10.00">ISolver.h</text>
</a>
</g>
</g>
<!-- Node24&#45;&gt;Node25 -->
<g id="edge37_Node000024_Node000025" class="edge">
<title>Node24&#45;&gt;Node25</title>
<g id="a_edge37_Node000024_Node000025"><a xlink:title=" ">
<path fill="none" stroke="#63b8ff" d="M1405.07,-109.75C1405.07,-102.8 1405.07,-92.85 1405.07,-84.13"/>
<polygon fill="#63b8ff" stroke="#63b8ff" points="1408.57,-84.09 1405.07,-74.09 1401.57,-84.09 1408.57,-84.09"/>
</a>
</g>
</g>
<!-- Node26&#45;&gt;Node3 -->
<g id="edge41_Node000026_Node000003" class="edge">
<title>Node26&#45;&gt;Node3</title>
<g id="a_edge41_Node000026_Node000003"><a xlink:title=" ">
<path fill="none" stroke="#63b8ff" d="M871.04,-166.19C868,-165.77 864.99,-165.37 862.07,-165 704.73,-145.09 659.71,-172.02 507.07,-129 466.48,-117.56 423.09,-94.3 397.56,-79.33"/>
<polygon fill="#63b8ff" stroke="#63b8ff" points="399.07,-76.16 388.69,-74.04 395.49,-82.17 399.07,-76.16"/>
</a>
</g>
</g>
<!-- Node26&#45;&gt;Node10 -->
<g id="edge40_Node000026_Node000010" class="edge">
<title>Node26&#45;&gt;Node10</title>
<g id="a_edge40_Node000026_Node000010"><a xlink:title=" ">
<path fill="none" stroke="#63b8ff" d="M878.11,-164.99C851.24,-158.06 815.8,-146.52 788.07,-129 768.22,-116.46 750.03,-96.35 738.56,-82.13"/>
<polygon fill="#63b8ff" stroke="#63b8ff" points="741.25,-79.88 732.33,-74.15 735.73,-84.18 741.25,-79.88"/>
</a>
</g>
</g>
<!-- Node26&#45;&gt;Node16 -->
<g id="edge39_Node000026_Node000016" class="edge">
<title>Node26&#45;&gt;Node16</title>
<g id="a_edge39_Node000026_Node000016"><a xlink:title=" ">
<path fill="none" stroke="#63b8ff" d="M920.21,-164.75C921.94,-157.72 924.41,-147.62 926.57,-138.84"/>
<polygon fill="#63b8ff" stroke="#63b8ff" points="929.98,-139.63 928.96,-129.09 923.18,-137.97 929.98,-139.63"/>
</a>
</g>
</g>
<!-- Node27 -->
<g id="Node000027" class="node">
<title>Node27</title>
<g id="a_Node000027"><a xlink:title=" ">
<polygon fill="#e0e0e0" stroke="#999999" points="566.07,-129 516.07,-129 516.07,-110 566.07,-110 566.07,-129"/>
<text text-anchor="middle" x="541.07" y="-117" font-family="Helvetica,sans-Serif" font-size="10.00">cstdint</text>
</a>
</g>
</g>
<!-- Node26&#45;&gt;Node27 -->
<g id="edge42_Node000026_Node000027" class="edge">
<title>Node26&#45;&gt;Node27</title>
<g id="a_edge42_Node000026_Node000027"><a xlink:title=" ">
<path fill="none" stroke="#63b8ff" d="M871.03,-166.27C868,-165.83 864.99,-165.4 862.07,-165 737.96,-147.8 703.18,-152.38 576.35,-129.03"/>
<polygon fill="#63b8ff" stroke="#63b8ff" points="576.72,-125.54 566.24,-127.15 575.43,-132.42 576.72,-125.54"/>
</a>
</g>
</g>
<!-- Node30&#45;&gt;Node3 -->
<g id="edge48_Node000030_Node000003" class="edge">
<title>Node30&#45;&gt;Node3</title>
<g id="a_edge48_Node000030_Node000003"><a xlink:title=" ">
<path fill="none" stroke="#63b8ff" d="M450.95,-168.92C405.92,-162.64 335.05,-149.71 319.07,-129 305.22,-111.06 328.36,-91.7 348.97,-79.13"/>
<polygon fill="#63b8ff" stroke="#63b8ff" points="350.9,-82.05 357.82,-74.03 347.41,-75.99 350.9,-82.05"/>
</a>
</g>
</g>
<!-- Node30&#45;&gt;Node5 -->
<g id="edge50_Node000030_Node000005" class="edge">
<title>Node30&#45;&gt;Node5</title>
<g id="a_edge50_Node000030_Node000005"><a xlink:title=" ">
<path fill="none" stroke="#63b8ff" d="M527.37,-166.34C610.66,-150.65 814.41,-111.64 984.07,-74 984.4,-73.93 984.73,-73.85 985.07,-73.78"/>
<polygon fill="#63b8ff" stroke="#63b8ff" points="986.04,-77.14 995,-71.48 984.47,-70.32 986.04,-77.14"/>
</a>
</g>
</g>
<!-- Node30&#45;&gt;Node10 -->
<g id="edge49_Node000030_Node000010" class="edge">
<title>Node30&#45;&gt;Node10</title>
<g id="a_edge49_Node000030_Node000010"><a xlink:title=" ">
<path fill="none" stroke="#63b8ff" d="M488.87,-164.66C489.07,-150.87 491.6,-124.33 507.07,-110 531.24,-87.59 619.81,-75.32 676.64,-69.61"/>
<polygon fill="#63b8ff" stroke="#63b8ff" points="677.24,-73.07 686.86,-68.62 676.57,-66.1 677.24,-73.07"/>
</a>
</g>
</g>
<!-- Node30&#45;&gt;Node16 -->
<g id="edge51_Node000030_Node000016" class="edge">
<title>Node30&#45;&gt;Node16</title>
<g id="a_edge51_Node000030_Node000016"><a xlink:title=" ">
<path fill="none" stroke="#63b8ff" d="M527.28,-166.65C530.92,-166.06 534.56,-165.5 538.07,-165 553.68,-162.76 749.38,-140.81 858.58,-128.6"/>
<polygon fill="#63b8ff" stroke="#63b8ff" points="859,-132.07 868.55,-127.48 858.22,-125.11 859,-132.07"/>
</a>
</g>
</g>
<!-- Node31 -->
<g id="Node000031" class="node">
<title>Node31</title>
<g id="a_Node000031"><a xlink:title=" ">
<polygon fill="#e0e0e0" stroke="#999999" points="421.57,-129 328.57,-129 328.57,-110 421.57,-110 421.57,-129"/>
<text text-anchor="middle" x="375.07" y="-117" font-family="Helvetica,sans-Serif" font-size="10.00">unordered_map</text>
</a>
</g>
</g>
<!-- Node30&#45;&gt;Node31 -->
<g id="edge47_Node000030_Node000031" class="edge">
<title>Node30&#45;&gt;Node31</title>
<g id="a_edge47_Node000030_Node000031"><a xlink:title=" ">
<path fill="none" stroke="#63b8ff" d="M470.75,-164.98C452.41,-156.46 423.96,-143.23 402.84,-133.41"/>
<polygon fill="#63b8ff" stroke="#63b8ff" points="404.26,-130.21 393.72,-129.17 401.31,-136.56 404.26,-130.21"/>
</a>
</g>
</g>
<!-- Node32&#45;&gt;Node3 -->
<g id="edge54_Node000032_Node000003" class="edge">
<title>Node32&#45;&gt;Node3</title>
<g id="a_edge54_Node000032_Node000003"><a xlink:title=" ">
<path fill="none" stroke="#63b8ff" d="M151.62,-164.67C162.31,-150.9 184.86,-124.39 210.07,-110 251.75,-86.21 306.64,-74.72 341.4,-69.48"/>
<polygon fill="#63b8ff" stroke="#63b8ff" points="342.09,-72.92 351.5,-68.05 341.11,-65.99 342.09,-72.92"/>
</a>
</g>
</g>
<!-- Node32&#45;&gt;Node8 -->
<g id="edge55_Node000032_Node000008" class="edge">
<title>Node32&#45;&gt;Node8</title>
<g id="a_edge55_Node000032_Node000008"><a xlink:title=" ">
<path fill="none" stroke="#63b8ff" d="M94.53,-170.76C65.04,-166.25 30,-155.24 11.07,-129 0.13,-113.84 13.45,-94.56 26.29,-81.25"/>
<polygon fill="#63b8ff" stroke="#63b8ff" points="28.85,-83.64 33.61,-74.17 23.99,-78.61 28.85,-83.64"/>
</a>
</g>
</g>
<!-- Node32&#45;&gt;Node10 -->
<g id="edge53_Node000032_Node000010" class="edge">
<title>Node32&#45;&gt;Node10</title>
<g id="a_edge53_Node000032_Node000010"><a xlink:title=" ">
<path fill="none" stroke="#63b8ff" d="M163.92,-164.9C195.36,-150.96 260.82,-123.6 319.07,-110 445.67,-80.44 599.11,-70.4 676.43,-67.08"/>
<polygon fill="#63b8ff" stroke="#63b8ff" points="676.97,-70.56 686.82,-66.66 676.69,-63.57 676.97,-70.56"/>
</a>
</g>
</g>
<!-- Node33 -->
<g id="Node000033" class="node">
<title>Node33</title>
<g id="a_Node000033"><a xlink:href="IPickable_8h.html" target="_top" xlink:title="Interface for objects that support mouse&#45;based selection and interaction.">
<polygon fill="white" stroke="#666666" points="157.57,-129 20.57,-129 20.57,-110 157.57,-110 157.57,-129"/>
<text text-anchor="middle" x="89.07" y="-117" font-family="Helvetica,sans-Serif" font-size="10.00">graphics/core/IPickable.h</text>
</a>
</g>
</g>
<!-- Node32&#45;&gt;Node33 -->
<g id="edge56_Node000032_Node000033" class="edge">
<title>Node32&#45;&gt;Node33</title>
<g id="a_edge56_Node000032_Node000033"><a xlink:title=" ">
<path fill="none" stroke="#63b8ff" d="M136.07,-164.98C127.87,-157.23 115.56,-145.58 105.59,-136.14"/>
<polygon fill="#63b8ff" stroke="#63b8ff" points="107.9,-133.5 98.23,-129.17 103.09,-138.59 107.9,-133.5"/>
</a>
</g>
</g>
<!-- Node33&#45;&gt;Node8 -->
<g id="edge58_Node000033_Node000008" class="edge">
<title>Node33&#45;&gt;Node8</title>
<g id="a_edge58_Node000033_Node000008"><a xlink:title=" ">
<path fill="none" stroke="#63b8ff" d="M81.64,-109.75C75.21,-102.18 65.76,-91.05 57.94,-81.84"/>
<polygon fill="#63b8ff" stroke="#63b8ff" points="60.5,-79.45 51.36,-74.09 55.16,-83.98 60.5,-79.45"/>
</a>
</g>
</g>
<!-- Node33&#45;&gt;Node14 -->
<g id="edge57_Node000033_Node000014" class="edge">
<title>Node33&#45;&gt;Node14</title>
<g id="a_edge57_Node000033_Node000014"><a xlink:title=" ">
<path fill="none" stroke="#63b8ff" d="M96.33,-109.75C102.61,-102.18 111.85,-91.05 119.5,-81.84"/>
<polygon fill="#63b8ff" stroke="#63b8ff" points="122.24,-84.02 125.94,-74.09 116.86,-79.55 122.24,-84.02"/>
</a>
</g>
</g>
</g>
</svg>

<g id="navigator" transform="translate(0 0)" fill="#404254">
  <rect fill="#f2f5e9" fill-opacity="0.5" stroke="#606060" stroke-width=".5" x="0" y="0" width="60" height="60"/>
  <use id="zoomplus" xlink:href="#zoomPlus" x="17" y="9" onmousedown="handleZoom(evt,'in')"/>
  <use id="zoomminus" xlink:href="#zoomMin" x="42" y="9" onmousedown="handleZoom(evt,'out')"/>
  <use id="reset" xlink:href="#resetDef" x="30" y="36" onmousedown="handleReset()"/>
   <use id="arrowup" xlink:href="#arrowUp" x="0" y="0" onmousedown="handlePan(0,-1)"/>
  <use id="arrowright" xlink:href="#arrowRight" x="0" y="0" onmousedown="handlePan(1,0)"/>
  <use id="arrowdown" xlink:href="#arrowDown" x="0" y="0" onmousedown="handlePan(0,1)"/>
  <use id="arrowleft" xlink:href="#arrowLeft" x="0" y="0" onmousedown="handlePan(-1,0)"/>
</g>
<svg viewBox="0 0 15 15" width="100%" height="30px" preserveAspectRatio="xMaxYMin meet">
 <g id="arrow_out" transform="scale(0.3 0.3)">
  <a xlink:href="PhysicsSystem_8cpp__incl_org.svg" target="_base">
   <rect id="button" ry="5" rx="5" y="6" x="6" height="38" width="38"
        fill="#f2f5e9" fill-opacity="0.5" stroke="#606060" stroke-width="1.0"/>
   <path id="arrow"
     d="M 11.500037,31.436501 C 11.940474,20.09759 22.043105,11.32322 32.158766,21.979434 L 37.068811,17.246167 C 37.068811,17.246167 37.088388,32 37.088388,32 L 22.160133,31.978069 C 22.160133,31.978069 26.997745,27.140456 26.997745,27.140456 C 18.528582,18.264221 13.291696,25.230495 11.500037,31.436501 z"
     style="fill:#404040;"/>
  </a>
 </g>
</svg>

<style type='text/css'>
<![CDATA[
[data-mouse-over-selected='false'] { opacity: 0.7; }
[data-mouse-over-selected='true']  { opacity: 1.0; }
]]>
</style>
<script type="application/ecmascript"><![CDATA[
document.addEventListener('DOMContentLoaded', (event) => {
  highlightEdges();
  highlightAdjacentNodes();
});
]]></script>
</svg>
