<?xml version="1.0" encoding="UTF-8" standalone="no"?>
<!DOCTYPE svg PUBLIC "-//W3C//DTD SVG 1.1//EN"
 "http://www.w3.org/Graphics/SVG/1.1/DTD/svg11.dtd">
<!-- Generated by graphviz version 2.43.0 (0)
 -->
<!-- Title: src/physics/PhysicsSystem.cpp Pages: 1 -->
<!--zoomable 357 -->

<svg id="main" version="1.1" xmlns="http://www.w3.org/2000/svg" xmlns:xlink="http://www.w3.org/1999/xlink" xml:space="preserve" onload="init(evt)">
<style type="text/css"><![CDATA[
.node, .edge {opacity: 0.7;}
.node.selected, .edge.selected {opacity: 1;}
.edge:hover path { stroke: red; }
.edge:hover polygon { stroke: red; fill: red; }
]]></style>

<defs>
  <circle id="rim" cx="0" cy="0" r="7"/>
  <circle id="rim2" cx="0" cy="0" r="3.5"/>
  <g id="zoomPlus">
    <use xlink:href="#rim" fill="#404040"><set attributeName="fill" to="#808080" begin="zoomplus.mouseover" end="zoomplus.mouseout"/></use>
    <path d="M-4,0h8M0,-4v8" fill="none" stroke="white" stroke-width="1.5" pointer-events="none"/>
  </g>
  <g id="zoomMin">
    <use xlink:href="#rim" fill="#404040"><set attributeName="fill" to="#808080" begin="zoomminus.mouseover" end="zoomminus.mouseout"/></use>
    <path d="M-4,0h8" fill="none" stroke="white" stroke-width="1.5" pointer-events="none"/>
  </g>
  <g id="arrowUp" transform="translate(30 24)">
    <use xlink:href="#rim"/>
    <path pointer-events="none" fill="none" stroke="white" stroke-width="1.5" d="M0,-3.0v7 M-2.5,-0.5L0,-3.0L2.5,-0.5"/>
  </g>
  <g id="arrowRight" transform="rotate(90) translate(36 -43)">
    <use xlink:href="#rim"/>
    <path pointer-events="none" fill="none" stroke="white" stroke-width="1.5" d="M0,-3.0v7 M-2.5,-0.5L0,-3.0L2.5,-0.5"/>
  </g>
  <g id="arrowDown" transform="rotate(180) translate(-30 -48)">
    <use xlink:href="#rim"/>
    <path pointer-events="none" fill="none" stroke="white" stroke-width="1.5" d="M0,-3.0v7 M-2.5,-0.5L0,-3.0L2.5,-0.5"/>
  </g>
  <g id="arrowLeft" transform="rotate(270) translate(-36 17)">
    <use xlink:href="#rim"/>
    <path pointer-events="none" fill="none" stroke="white" stroke-width="1.5" d="M0,-3.0v7 M-2.5,-0.5L0,-3.0L2.5,-0.5"/>
  </g>
  <g id="resetDef">
    <use xlink:href="#rim2" fill="#404040"><set attributeName="fill" to="#808080" begin="reset.mouseover" end="reset.mouseout"/></use>
  </g>
</defs>
<script type="application/ecmascript">
var viewWidth = 1691;
var viewHeight = 357;
var sectionId = 'dynsection-0';
</script>
<script type="application/ecmascript" xlink:href="svg.min.js"/>
<svg id="graph" class="graph">
<g id="viewport">
<title>src/physics/PhysicsSystem.cpp</title>
<!-- Node1 -->
<g id="Node000001" class="node">
<title>Node1</title>
<g id="a_Node000001"><a xlink:title=" ">
<polygon fill="#999999" stroke="#666666" points="1262.5,-349 1095.5,-349 1095.5,-330 1262.5,-330 1262.5,-349"/>
<text text-anchor="middle" x="1179" y="-337" font-family="Helvetica,sans-Serif" font-size="10.00">src/physics/PhysicsSystem.cpp</text>
</a>
</g>
</g>
<!-- Node2 -->
<g id="Node000002" class="node">
<title>Node2</title>
<g id="a_Node000002"><a xlink:href="PhysicsSystem_8h.html" target="_top" xlink:title=" ">
<polygon fill="white" stroke="#666666" points="875.5,-294 776.5,-294 776.5,-275 875.5,-275 875.5,-294"/>
<text text-anchor="middle" x="826" y="-282" font-family="Helvetica,sans-Serif" font-size="10.00">PhysicsSystem.h</text>
</a>
</g>
</g>
<!-- Node1&#45;&gt;Node2 -->
<g id="edge1_Node000001_Node000002" class="edge">
<title>Node1&#45;&gt;Node2</title>
<g id="a_edge1_Node000001_Node000002"><a xlink:title=" ">
<path fill="none" stroke="#63b8ff" d="M1122.28,-329.98C1057.54,-320.26 952.07,-304.43 885.98,-294.51"/>
<polygon fill="#63b8ff" stroke="#63b8ff" points="886.14,-290.99 875.73,-292.97 885.1,-297.91 886.14,-290.99"/>
</a>
</g>
</g>
<!-- Node21 -->
<g id="Node000021" class="node">
<title>Node21</title>
<g id="a_Node000021"><a xlink:href="OneUnknownSolver_8h.html" target="_top" xlink:title=" ">
<polygon fill="white" stroke="#666666" points="154,-184 0,-184 0,-165 154,-165 154,-184"/>
<text text-anchor="middle" x="77" y="-172" font-family="Helvetica,sans-Serif" font-size="10.00">solver/OneUnknownSolver.h</text>
</a>
</g>
</g>
<!-- Node1&#45;&gt;Node21 -->
<g id="edge67_Node000001_Node000021" class="edge">
<title>Node1&#45;&gt;Node21</title>
<g id="a_edge67_Node000001_Node000021"><a xlink:title=" ">
<path fill="none" stroke="#63b8ff" d="M1095.41,-337.18C850.67,-332.47 148.39,-312.59 79,-239 68.01,-227.35 68.85,-208.49 71.62,-194.34"/>
<polygon fill="#63b8ff" stroke="#63b8ff" points="75.12,-194.78 74.08,-184.24 68.32,-193.13 75.12,-194.78"/>
</a>
</g>
</g>
<!-- Node31 -->
<g id="Node000031" class="node">
<title>Node31</title>
<g id="a_Node000031"><a xlink:title=" ">
<polygon fill="#e0e0e0" stroke="#999999" points="1169,-294 1109,-294 1109,-275 1169,-275 1169,-294"/>
<text text-anchor="middle" x="1139" y="-282" font-family="Helvetica,sans-Serif" font-size="10.00">iostream</text>
</a>
</g>
</g>
<!-- Node1&#45;&gt;Node31 -->
<g id="edge52_Node000001_Node000031" class="edge">
<title>Node1&#45;&gt;Node31</title>
<g id="a_edge52_Node000001_Node000031"><a xlink:title=" ">
<path fill="none" stroke="#63b8ff" d="M1172.39,-329.75C1166.74,-322.26 1158.46,-311.28 1151.55,-302.13"/>
<polygon fill="#63b8ff" stroke="#63b8ff" points="1154.3,-299.96 1145.48,-294.09 1148.71,-304.18 1154.3,-299.96"/>
</a>
</g>
</g>
<!-- Node32 -->
<g id="Node000032" class="node">
<title>Node32</title>
<g id="a_Node000032"><a xlink:title=" ">
<polygon fill="#e0e0e0" stroke="#999999" points="1251,-294 1187,-294 1187,-275 1251,-275 1251,-294"/>
<text text-anchor="middle" x="1219" y="-282" font-family="Helvetica,sans-Serif" font-size="10.00">algorithm</text>
</a>
</g>
</g>
<!-- Node1&#45;&gt;Node32 -->
<g id="edge53_Node000001_Node000032" class="edge">
<title>Node1&#45;&gt;Node32</title>
<g id="a_edge53_Node000001_Node000032"><a xlink:title=" ">
<path fill="none" stroke="#63b8ff" d="M1185.61,-329.75C1191.26,-322.26 1199.54,-311.28 1206.45,-302.13"/>
<polygon fill="#63b8ff" stroke="#63b8ff" points="1209.29,-304.18 1212.52,-294.09 1203.7,-299.96 1209.29,-304.18"/>
</a>
</g>
</g>
<!-- Node33 -->
<g id="Node000033" class="node">
<title>Node33</title>
<g id="a_Node000033"><a xlink:href="PointMass_8h.html" target="_top" xlink:title=" ">
<polygon fill="white" stroke="#666666" points="1454,-239 1378,-239 1378,-220 1454,-220 1454,-239"/>
<text text-anchor="middle" x="1416" y="-227" font-family="Helvetica,sans-Serif" font-size="10.00">PointMass.h</text>
</a>
</g>
</g>
<!-- Node1&#45;&gt;Node33 -->
<g id="edge54_Node000001_Node000033" class="edge">
<title>Node1&#45;&gt;Node33</title>
<g id="a_edge54_Node000001_Node000033"><a xlink:title=" ">
<path fill="none" stroke="#63b8ff" d="M1197.99,-329.84C1239.61,-310.88 1339.02,-265.58 1387.9,-243.31"/>
<polygon fill="#63b8ff" stroke="#63b8ff" points="1389.6,-246.38 1397.24,-239.05 1386.69,-240.01 1389.6,-246.38"/>
</a>
</g>
</g>
<!-- Node35 -->
<g id="Node000035" class="node">
<title>Node35</title>
<g id="a_Node000035"><a xlink:href="MathUtils_8h.html" target="_top" xlink:title="Mathematical utility functions for 3D graphics and physics.">
<polygon fill="white" stroke="#666666" points="1666.5,-184 1565.5,-184 1565.5,-165 1666.5,-165 1666.5,-184"/>
<text text-anchor="middle" x="1616" y="-172" font-family="Helvetica,sans-Serif" font-size="10.00">math/MathUtils.h</text>
</a>
</g>
</g>
<!-- Node1&#45;&gt;Node35 -->
<g id="edge60_Node000001_Node000035" class="edge">
<title>Node1&#45;&gt;Node35</title>
<g id="a_edge60_Node000001_Node000035"><a xlink:title=" ">
<path fill="none" stroke="#63b8ff" d="M1205.57,-329.84C1232.46,-321.02 1275.22,-306.85 1312,-294 1379.43,-270.44 1396.44,-264.92 1463,-239 1506.29,-222.14 1555.86,-201.28 1586.55,-188.18"/>
<polygon fill="#63b8ff" stroke="#63b8ff" points="1588,-191.36 1595.82,-184.21 1585.25,-184.93 1588,-191.36"/>
</a>
</g>
</g>
<!-- Node3 -->
<g id="Node000003" class="node">
<title>Node3</title>
<g id="a_Node000003"><a xlink:title=" ">
<polygon fill="#e0e0e0" stroke="#999999" points="1230.5,-129 1183.5,-129 1183.5,-110 1230.5,-110 1230.5,-129"/>
<text text-anchor="middle" x="1207" y="-117" font-family="Helvetica,sans-Serif" font-size="10.00">vector</text>
</a>
</g>
</g>
<!-- Node2&#45;&gt;Node3 -->
<g id="edge2_Node000002_Node000003" class="edge">
<title>Node2&#45;&gt;Node3</title>
<g id="a_edge2_Node000002_Node000003"><a xlink:title=" ">
<path fill="none" stroke="#63b8ff" d="M838.32,-274.73C869.26,-253.07 953.31,-196.56 1031,-165 1078.7,-145.62 1137.2,-132.85 1173.29,-126.15"/>
<polygon fill="#63b8ff" stroke="#63b8ff" points="1174.07,-129.57 1183.28,-124.34 1172.82,-122.68 1174.07,-129.57"/>
</a>
</g>
</g>
<!-- Node4 -->
<g id="Node000004" class="node">
<title>Node4</title>
<g id="a_Node000004"><a xlink:title=" ">
<polygon fill="#e0e0e0" stroke="#999999" points="654,-129 604,-129 604,-110 654,-110 654,-129"/>
<text text-anchor="middle" x="629" y="-117" font-family="Helvetica,sans-Serif" font-size="10.00">atomic</text>
</a>
</g>
</g>
<!-- Node2&#45;&gt;Node4 -->
<g id="edge3_Node000002_Node000004" class="edge">
<title>Node2&#45;&gt;Node4</title>
<g id="a_edge3_Node000002_Node000004"><a xlink:title=" ">
<path fill="none" stroke="#63b8ff" d="M776.17,-278.45C681.34,-267.66 480.98,-238.76 443,-184 405.51,-129.95 529.95,-121.29 593.7,-120.32"/>
<polygon fill="#63b8ff" stroke="#63b8ff" points="593.78,-123.82 603.75,-120.22 593.71,-116.82 593.78,-123.82"/>
</a>
</g>
</g>
<!-- Node5 -->
<g id="Node000005" class="node">
<title>Node5</title>
<g id="a_Node000005"><a xlink:title=" ">
<polygon fill="#e0e0e0" stroke="#999999" points="1355,-129 1307,-129 1307,-110 1355,-110 1355,-129"/>
<text text-anchor="middle" x="1331" y="-117" font-family="Helvetica,sans-Serif" font-size="10.00">mutex</text>
</a>
</g>
</g>
<!-- Node2&#45;&gt;Node5 -->
<g id="edge4_Node000002_Node000005" class="edge">
<title>Node2&#45;&gt;Node5</title>
<g id="a_edge4_Node000002_Node000005"><a xlink:title=" ">
<path fill="none" stroke="#63b8ff" d="M875.53,-281.88C989.5,-277.73 1263.02,-265.14 1295,-239 1324.87,-214.58 1330.56,-166.17 1331.28,-139.4"/>
<polygon fill="#63b8ff" stroke="#63b8ff" points="1334.78,-139.11 1331.34,-129.09 1327.78,-139.07 1334.78,-139.11"/>
</a>
</g>
</g>
<!-- Node6 -->
<g id="Node000006" class="node">
<title>Node6</title>
<g id="a_Node000006"><a xlink:title=" ">
<polygon fill="#e0e0e0" stroke="#999999" points="1069,-239 1021,-239 1021,-220 1069,-220 1069,-239"/>
<text text-anchor="middle" x="1045" y="-227" font-family="Helvetica,sans-Serif" font-size="10.00">thread</text>
</a>
</g>
</g>
<!-- Node2&#45;&gt;Node6 -->
<g id="edge5_Node000002_Node000006" class="edge">
<title>Node2&#45;&gt;Node6</title>
<g id="a_edge5_Node000002_Node000006"><a xlink:title=" ">
<path fill="none" stroke="#63b8ff" d="M861.19,-274.98C902.43,-265 970.3,-248.58 1011.02,-238.72"/>
<polygon fill="#63b8ff" stroke="#63b8ff" points="1011.85,-242.12 1020.75,-236.37 1010.21,-235.32 1011.85,-242.12"/>
</a>
</g>
</g>
<!-- Node7 -->
<g id="Node000007" class="node">
<title>Node7</title>
<g id="a_Node000007"><a xlink:title=" ">
<polygon fill="#e0e0e0" stroke="#999999" points="1286.5,-239 1179.5,-239 1179.5,-220 1286.5,-220 1286.5,-239"/>
<text text-anchor="middle" x="1233" y="-227" font-family="Helvetica,sans-Serif" font-size="10.00">condition_variable</text>
</a>
</g>
</g>
<!-- Node2&#45;&gt;Node7 -->
<g id="edge6_Node000002_Node000007" class="edge">
<title>Node2&#45;&gt;Node7</title>
<g id="a_edge6_Node000002_Node000007"><a xlink:title=" ">
<path fill="none" stroke="#63b8ff" d="M875.57,-277.17C940.48,-268.87 1058.08,-253.76 1169.33,-239.08"/>
<polygon fill="#63b8ff" stroke="#63b8ff" points="1169.93,-242.53 1179.39,-237.75 1169.01,-235.59 1169.93,-242.53"/>
</a>
</g>
</g>
<!-- Node8 -->
<g id="Node000008" class="node">
<title>Node8</title>
<g id="a_Node000008"><a xlink:title=" ">
<polygon fill="#e0e0e0" stroke="#999999" points="1636,-74 1580,-74 1580,-55 1636,-55 1636,-74"/>
<text text-anchor="middle" x="1608" y="-62" font-family="Helvetica,sans-Serif" font-size="10.00">optional</text>
</a>
</g>
</g>
<!-- Node2&#45;&gt;Node8 -->
<g id="edge7_Node000002_Node000008" class="edge">
<title>Node2&#45;&gt;Node8</title>
<g id="a_edge7_Node000002_Node000008"><a xlink:title=" ">
<path fill="none" stroke="#63b8ff" d="M875.68,-281.71C1049.97,-274.89 1625.74,-247.68 1675,-184 1701.47,-149.78 1655.83,-103.91 1627.66,-80.54"/>
<polygon fill="#63b8ff" stroke="#63b8ff" points="1629.57,-77.59 1619.59,-74.05 1625.19,-83.04 1629.57,-77.59"/>
</a>
</g>
</g>
<!-- Node9 -->
<g id="Node000009" class="node">
<title>Node9</title>
<g id="a_Node000009"><a xlink:href="RigidBody_8h.html" target="_top" xlink:title=" ">
<polygon fill="white" stroke="#666666" points="1161,-239 1087,-239 1087,-220 1161,-220 1161,-239"/>
<text text-anchor="middle" x="1124" y="-227" font-family="Helvetica,sans-Serif" font-size="10.00">RigidBody.h</text>
</a>
</g>
</g>
<!-- Node2&#45;&gt;Node9 -->
<g id="edge8_Node000002_Node000009" class="edge">
<title>Node2&#45;&gt;Node9</title>
<g id="a_edge8_Node000002_Node000009"><a xlink:title=" ">
<path fill="none" stroke="#63b8ff" d="M875.27,-274.92C923.9,-266.42 1000.66,-252.94 1076.62,-239.24"/>
<polygon fill="#63b8ff" stroke="#63b8ff" points="1077.63,-242.61 1086.85,-237.39 1076.38,-235.72 1077.63,-242.61"/>
</a>
</g>
</g>
<!-- Node20 -->
<g id="Node000020" class="node">
<title>Node20</title>
<g id="a_Node000020"><a xlink:href="Constants_8h.html" target="_top" xlink:title=" ">
<polygon fill="white" stroke="#666666" points="219,-239 105,-239 105,-220 219,-220 219,-239"/>
<text text-anchor="middle" x="162" y="-227" font-family="Helvetica,sans-Serif" font-size="10.00">physics/Constants.h</text>
</a>
</g>
</g>
<!-- Node2&#45;&gt;Node20 -->
<g id="edge27_Node000002_Node000020" class="edge">
<title>Node2&#45;&gt;Node20</title>
<g id="a_edge27_Node000002_Node000020"><a xlink:title=" ">
<path fill="none" stroke="#63b8ff" d="M776.3,-280.71C675.3,-274.84 438.56,-260.08 229.17,-239.07"/>
<polygon fill="#63b8ff" stroke="#63b8ff" points="229.52,-235.58 219.22,-238.06 228.81,-242.55 229.52,-235.58"/>
</a>
</g>
</g>
<!-- Node2&#45;&gt;Node21 -->
<g id="edge28_Node000002_Node000021" class="edge">
<title>Node2&#45;&gt;Node21</title>
<g id="a_edge28_Node000002_Node000021"><a xlink:title=" ">
<path fill="none" stroke="#63b8ff" d="M776.44,-283.71C620.82,-283.93 149.07,-281.09 96,-239 82.77,-228.51 78.46,-209.17 77.2,-194.59"/>
<polygon fill="#63b8ff" stroke="#63b8ff" points="80.67,-193.99 76.72,-184.16 73.68,-194.31 80.67,-193.99"/>
</a>
</g>
</g>
<!-- Node23 -->
<g id="Node000023" class="node">
<title>Node23</title>
<g id="a_Node000023"><a xlink:href="ProblemRouter_8h.html" target="_top" xlink:title=" ">
<polygon fill="white" stroke="#666666" points="368.5,-239 237.5,-239 237.5,-220 368.5,-220 368.5,-239"/>
<text text-anchor="middle" x="303" y="-227" font-family="Helvetica,sans-Serif" font-size="10.00">solver/ProblemRouter.h</text>
</a>
</g>
</g>
<!-- Node2&#45;&gt;Node23 -->
<g id="edge30_Node000002_Node000023" class="edge">
<title>Node2&#45;&gt;Node23</title>
<g id="a_edge30_Node000002_Node000023"><a xlink:title=" ">
<path fill="none" stroke="#63b8ff" d="M776.49,-278.62C694.61,-270.53 525.82,-253.76 383,-239 381.71,-238.87 380.41,-238.73 379.1,-238.6"/>
<polygon fill="#63b8ff" stroke="#63b8ff" points="379.23,-235.09 368.92,-237.53 378.5,-242.05 379.23,-235.09"/>
</a>
</g>
</g>
<!-- Node24 -->
<g id="Node000024" class="node">
<title>Node24</title>
<g id="a_Node000024"><a xlink:href="VectorRootSolver_8h.html" target="_top" xlink:title=" ">
<polygon fill="white" stroke="#666666" points="319.5,-184 210.5,-184 210.5,-165 319.5,-165 319.5,-184"/>
<text text-anchor="middle" x="265" y="-172" font-family="Helvetica,sans-Serif" font-size="10.00">VectorRootSolver.h</text>
</a>
</g>
</g>
<!-- Node2&#45;&gt;Node24 -->
<g id="edge51_Node000002_Node000024" class="edge">
<title>Node2&#45;&gt;Node24</title>
<g id="a_edge51_Node000002_Node000024"><a xlink:title=" ">
<path fill="none" stroke="#63b8ff" d="M776.2,-282.77C698.91,-280.59 545.97,-272.05 421,-239 400.41,-233.55 396.68,-228.16 377,-220 349.89,-208.76 318.87,-196.48 296.36,-187.68"/>
<polygon fill="#63b8ff" stroke="#63b8ff" points="297.56,-184.38 286.97,-184.01 295.01,-190.91 297.56,-184.38"/>
</a>
</g>
</g>
<!-- Node26 -->
<g id="Node000026" class="node">
<title>Node26</title>
<g id="a_Node000026"><a xlink:href="Octree_8h.html" target="_top" xlink:title=" ">
<polygon fill="white" stroke="#666666" points="843,-239 749,-239 749,-220 843,-220 843,-239"/>
<text text-anchor="middle" x="796" y="-227" font-family="Helvetica,sans-Serif" font-size="10.00">spatial/Octree.h</text>
</a>
</g>
</g>
<!-- Node2&#45;&gt;Node26 -->
<g id="edge38_Node000002_Node000026" class="edge">
<title>Node2&#45;&gt;Node26</title>
<g id="a_edge38_Node000002_Node000026"><a xlink:title=" ">
<path fill="none" stroke="#63b8ff" d="M821.05,-274.75C816.94,-267.49 810.97,-256.95 805.9,-247.98"/>
<polygon fill="#63b8ff" stroke="#63b8ff" points="808.83,-246.07 800.86,-239.09 802.74,-249.52 808.83,-246.07"/>
</a>
</g>
</g>
<!-- Node29 -->
<g id="Node000029" class="node">
<title>Node29</title>
<g id="a_Node000029"><a xlink:href="BVH_8h.html" target="_top" xlink:title=" ">
<polygon fill="white" stroke="#666666" points="682.5,-239 599.5,-239 599.5,-220 682.5,-220 682.5,-239"/>
<text text-anchor="middle" x="641" y="-227" font-family="Helvetica,sans-Serif" font-size="10.00">spatial/BVH.h</text>
</a>
</g>
</g>
<!-- Node2&#45;&gt;Node29 -->
<g id="edge44_Node000002_Node000029" class="edge">
<title>Node2&#45;&gt;Node29</title>
<g id="a_edge44_Node000002_Node000029"><a xlink:title=" ">
<path fill="none" stroke="#63b8ff" d="M796.28,-274.98C764.95,-266.01 715.43,-251.82 680.76,-241.89"/>
<polygon fill="#63b8ff" stroke="#63b8ff" points="681.53,-238.47 670.96,-239.08 679.61,-245.2 681.53,-238.47"/>
</a>
</g>
</g>
<!-- Node9&#45;&gt;Node3 -->
<g id="edge10_Node000009_Node000003" class="edge">
<title>Node9&#45;&gt;Node3</title>
<g id="a_edge10_Node000009_Node000003"><a xlink:title=" ">
<path fill="none" stroke="#63b8ff" d="M1147.11,-219.88C1163.07,-212.72 1183.44,-200.94 1195,-184 1203.99,-170.82 1206.7,-152.69 1207.33,-139.18"/>
<polygon fill="#63b8ff" stroke="#63b8ff" points="1210.83,-139.17 1207.46,-129.12 1203.83,-139.08 1210.83,-139.17"/>
</a>
</g>
</g>
<!-- Node9&#45;&gt;Node5 -->
<g id="edge9_Node000009_Node000005" class="edge">
<title>Node9&#45;&gt;Node5</title>
<g id="a_edge9_Node000009_Node000005"><a xlink:title=" ">
<path fill="none" stroke="#63b8ff" d="M1141.47,-219.96C1159.48,-211.11 1188.31,-196.81 1213,-184 1245.49,-167.14 1282.61,-147.02 1306.4,-134.02"/>
<polygon fill="#63b8ff" stroke="#63b8ff" points="1308.34,-136.95 1315.43,-129.07 1304.98,-130.81 1308.34,-136.95"/>
</a>
</g>
</g>
<!-- Node10 -->
<g id="Node000010" class="node">
<title>Node10</title>
<g id="a_Node000010"><a xlink:title=" ">
<polygon fill="#e0e0e0" stroke="#999999" points="937,-74 859,-74 859,-55 937,-55 937,-74"/>
<text text-anchor="middle" x="898" y="-62" font-family="Helvetica,sans-Serif" font-size="10.00">glm/glm.hpp</text>
</a>
</g>
</g>
<!-- Node9&#45;&gt;Node10 -->
<g id="edge11_Node000009_Node000010" class="edge">
<title>Node9&#45;&gt;Node10</title>
<g id="a_edge11_Node000009_Node000010"><a xlink:title=" ">
<path fill="none" stroke="#63b8ff" d="M1101.64,-219.9C1082.19,-211.93 1053.65,-199.07 1031,-184 984.04,-152.76 936.49,-105.89 913.02,-81.51"/>
<polygon fill="#63b8ff" stroke="#63b8ff" points="915.45,-78.99 906.02,-74.16 910.38,-83.82 915.45,-78.99"/>
</a>
</g>
</g>
<!-- Node11 -->
<g id="Node000011" class="node">
<title>Node11</title>
<g id="a_Node000011"><a xlink:title=" ">
<polygon fill="#e0e0e0" stroke="#999999" points="1170,-184 1040,-184 1040,-165 1170,-165 1170,-184"/>
<text text-anchor="middle" x="1105" y="-172" font-family="Helvetica,sans-Serif" font-size="10.00">glm/gtc/quaternion.hpp</text>
</a>
</g>
</g>
<!-- Node9&#45;&gt;Node11 -->
<g id="edge12_Node000009_Node000011" class="edge">
<title>Node9&#45;&gt;Node11</title>
<g id="a_edge12_Node000009_Node000011"><a xlink:title=" ">
<path fill="none" stroke="#63b8ff" d="M1120.86,-219.75C1118.32,-212.65 1114.64,-202.4 1111.47,-193.56"/>
<polygon fill="#63b8ff" stroke="#63b8ff" points="1114.75,-192.32 1108.08,-184.09 1108.16,-194.68 1114.75,-192.32"/>
</a>
</g>
</g>
<!-- Node12 -->
<g id="Node000012" class="node">
<title>Node12</title>
<g id="a_Node000012"><a xlink:href="ICollider_8h.html" target="_top" xlink:title="Abstract interface for collision detection shapes.">
<polygon fill="white" stroke="#666666" points="1107.5,-129 994.5,-129 994.5,-110 1107.5,-110 1107.5,-129"/>
<text text-anchor="middle" x="1051" y="-117" font-family="Helvetica,sans-Serif" font-size="10.00">bounding/ICollider.h</text>
</a>
</g>
</g>
<!-- Node9&#45;&gt;Node12 -->
<g id="edge13_Node000009_Node000012" class="edge">
<title>Node9&#45;&gt;Node12</title>
<g id="a_edge13_Node000009_Node000012"><a xlink:title=" ">
<path fill="none" stroke="#63b8ff" d="M1141.11,-219.9C1162.3,-208.09 1193.87,-185.92 1179,-165 1164.8,-145.04 1140.98,-133.95 1117.71,-127.82"/>
<polygon fill="#63b8ff" stroke="#63b8ff" points="1118.34,-124.37 1107.8,-125.49 1116.73,-131.19 1118.34,-124.37"/>
</a>
</g>
</g>
<!-- Node16 -->
<g id="Node000016" class="node">
<title>Node16</title>
<g id="a_Node000016"><a xlink:href="PhysicsBody_8h.html" target="_top" xlink:title=" ">
<polygon fill="white" stroke="#666666" points="907.5,-184 782.5,-184 782.5,-165 907.5,-165 907.5,-184"/>
<text text-anchor="middle" x="845" y="-172" font-family="Helvetica,sans-Serif" font-size="10.00">physics/PhysicsBody.h</text>
</a>
</g>
</g>
<!-- Node9&#45;&gt;Node16 -->
<g id="edge19_Node000009_Node000016" class="edge">
<title>Node9&#45;&gt;Node16</title>
<g id="a_edge19_Node000009_Node000016"><a xlink:title=" ">
<path fill="none" stroke="#63b8ff" d="M1086.95,-221.46C1039.09,-212.37 955.36,-196.46 900.05,-185.96"/>
<polygon fill="#63b8ff" stroke="#63b8ff" points="900.54,-182.49 890.06,-184.06 899.23,-189.37 900.54,-182.49"/>
</a>
</g>
</g>
<!-- Node12&#45;&gt;Node8 -->
<g id="edge16_Node000012_Node000008" class="edge">
<title>Node12&#45;&gt;Node8</title>
<g id="a_edge16_Node000012_Node000008"><a xlink:title=" ">
<path fill="none" stroke="#63b8ff" d="M1107.73,-113.1C1221.17,-102.31 1473.33,-78.31 1569.61,-69.15"/>
<polygon fill="#63b8ff" stroke="#63b8ff" points="1570.15,-72.62 1579.77,-68.19 1569.48,-65.65 1570.15,-72.62"/>
</a>
</g>
</g>
<!-- Node12&#45;&gt;Node10 -->
<g id="edge14_Node000012_Node000010" class="edge">
<title>Node12&#45;&gt;Node10</title>
<g id="a_edge14_Node000012_Node000010"><a xlink:title=" ">
<path fill="none" stroke="#63b8ff" d="M1026.42,-109.98C1000.95,-101.16 960.96,-87.31 932.37,-77.41"/>
<polygon fill="#63b8ff" stroke="#63b8ff" points="933.37,-74.05 922.77,-74.08 931.08,-80.66 933.37,-74.05"/>
</a>
</g>
</g>
<!-- Node13 -->
<g id="Node000013" class="node">
<title>Node13</title>
<g id="a_Node000013"><a xlink:title=" ">
<polygon fill="#e0e0e0" stroke="#999999" points="526,-74 468,-74 468,-55 526,-55 526,-74"/>
<text text-anchor="middle" x="497" y="-62" font-family="Helvetica,sans-Serif" font-size="10.00">memory</text>
</a>
</g>
</g>
<!-- Node12&#45;&gt;Node13 -->
<g id="edge15_Node000012_Node000013" class="edge">
<title>Node12&#45;&gt;Node13</title>
<g id="a_edge15_Node000012_Node000013"><a xlink:title=" ">
<path fill="none" stroke="#63b8ff" d="M994.32,-113.08C881.88,-102.32 633.15,-78.53 536.5,-69.28"/>
<polygon fill="#63b8ff" stroke="#63b8ff" points="536.57,-65.77 526.28,-68.3 535.9,-72.74 536.57,-65.77"/>
</a>
</g>
</g>
<!-- Node14 -->
<g id="Node000014" class="node">
<title>Node14</title>
<g id="a_Node000014"><a xlink:href="Ray_8h.html" target="_top" xlink:title=" ">
<polygon fill="white" stroke="#666666" points="1299.5,-74 1228.5,-74 1228.5,-55 1299.5,-55 1299.5,-74"/>
<text text-anchor="middle" x="1264" y="-62" font-family="Helvetica,sans-Serif" font-size="10.00">math/Ray.h</text>
</a>
</g>
</g>
<!-- Node12&#45;&gt;Node14 -->
<g id="edge17_Node000012_Node000014" class="edge">
<title>Node12&#45;&gt;Node14</title>
<g id="a_edge17_Node000012_Node000014"><a xlink:title=" ">
<path fill="none" stroke="#63b8ff" d="M1085.22,-109.98C1121.76,-100.89 1179.78,-86.46 1219.76,-76.51"/>
<polygon fill="#63b8ff" stroke="#63b8ff" points="1220.65,-79.89 1229.51,-74.08 1218.96,-73.1 1220.65,-79.89"/>
</a>
</g>
</g>
<!-- Node15 -->
<g id="Node000015" class="node">
<title>Node15</title>
<g id="a_Node000015"><a xlink:title=" ">
<polygon fill="#e0e0e0" stroke="#999999" points="1305.5,-19 1222.5,-19 1222.5,0 1305.5,0 1305.5,-19"/>
<text text-anchor="middle" x="1264" y="-7" font-family="Helvetica,sans-Serif" font-size="10.00">glm/vec3.hpp</text>
</a>
</g>
</g>
<!-- Node14&#45;&gt;Node15 -->
<g id="edge18_Node000014_Node000015" class="edge">
<title>Node14&#45;&gt;Node15</title>
<g id="a_edge18_Node000014_Node000015"><a xlink:title=" ">
<path fill="none" stroke="#63b8ff" d="M1264,-54.75C1264,-47.8 1264,-37.85 1264,-29.13"/>
<polygon fill="#63b8ff" stroke="#63b8ff" points="1267.5,-29.09 1264,-19.09 1260.5,-29.09 1267.5,-29.09"/>
</a>
</g>
</g>
<!-- Node16&#45;&gt;Node3 -->
<g id="edge23_Node000016_Node000003" class="edge">
<title>Node16&#45;&gt;Node3</title>
<g id="a_edge23_Node000016_Node000003"><a xlink:title=" ">
<path fill="none" stroke="#63b8ff" d="M903.16,-164.98C979.68,-153.78 1111.65,-134.46 1173.36,-125.42"/>
<polygon fill="#63b8ff" stroke="#63b8ff" points="1173.95,-128.88 1183.34,-123.96 1172.94,-121.95 1173.95,-128.88"/>
</a>
</g>
</g>
<!-- Node16&#45;&gt;Node4 -->
<g id="edge20_Node000016_Node000004" class="edge">
<title>Node16&#45;&gt;Node4</title>
<g id="a_edge20_Node000016_Node000004"><a xlink:title=" ">
<path fill="none" stroke="#63b8ff" d="M810.3,-164.98C770.14,-155.13 704.4,-139 664.09,-129.11"/>
<polygon fill="#63b8ff" stroke="#63b8ff" points="664.72,-125.66 654.17,-126.68 663.05,-132.46 664.72,-125.66"/>
</a>
</g>
</g>
<!-- Node16&#45;&gt;Node5 -->
<g id="edge25_Node000016_Node000005" class="edge">
<title>Node16&#45;&gt;Node5</title>
<g id="a_edge25_Node000016_Node000005"><a xlink:title=" ">
<path fill="none" stroke="#63b8ff" d="M907.54,-166.68C1011.33,-155.36 1215.72,-133.07 1296.75,-124.24"/>
<polygon fill="#63b8ff" stroke="#63b8ff" points="1297.33,-127.69 1306.89,-123.13 1296.57,-120.73 1297.33,-127.69"/>
</a>
</g>
</g>
<!-- Node16&#45;&gt;Node10 -->
<g id="edge22_Node000016_Node000010" class="edge">
<title>Node16&#45;&gt;Node10</title>
<g id="a_edge22_Node000016_Node000010"><a xlink:title=" ">
<path fill="none" stroke="#63b8ff" d="M853.06,-164.95C860.71,-156.43 872.02,-142.69 879,-129 886.28,-114.73 891.26,-97.2 894.29,-84.18"/>
<polygon fill="#63b8ff" stroke="#63b8ff" points="897.78,-84.6 896.46,-74.09 890.93,-83.13 897.78,-84.6"/>
</a>
</g>
</g>
<!-- Node17 -->
<g id="Node000017" class="node">
<title>Node17</title>
<g id="a_Node000017"><a xlink:title=" ">
<polygon fill="#e0e0e0" stroke="#999999" points="396,-129 352,-129 352,-110 396,-110 396,-129"/>
<text text-anchor="middle" x="374" y="-117" font-family="Helvetica,sans-Serif" font-size="10.00">string</text>
</a>
</g>
</g>
<!-- Node16&#45;&gt;Node17 -->
<g id="edge21_Node000016_Node000017" class="edge">
<title>Node16&#45;&gt;Node17</title>
<g id="a_edge21_Node000016_Node000017"><a xlink:title=" ">
<path fill="none" stroke="#63b8ff" d="M782.17,-166.06C779.07,-165.7 776,-165.34 773,-165 636.61,-149.34 473.9,-131.44 406.11,-124.01"/>
<polygon fill="#63b8ff" stroke="#63b8ff" points="406.39,-120.52 396.07,-122.91 405.62,-127.48 406.39,-120.52"/>
</a>
</g>
</g>
<!-- Node18 -->
<g id="Node000018" class="node">
<title>Node18</title>
<g id="a_Node000018"><a xlink:title=" ">
<polygon fill="#e0e0e0" stroke="#999999" points="766,-129 728,-129 728,-110 766,-110 766,-129"/>
<text text-anchor="middle" x="747" y="-117" font-family="Helvetica,sans-Serif" font-size="10.00">map</text>
</a>
</g>
</g>
<!-- Node16&#45;&gt;Node18 -->
<g id="edge24_Node000016_Node000018" class="edge">
<title>Node16&#45;&gt;Node18</title>
<g id="a_edge24_Node000016_Node000018"><a xlink:title=" ">
<path fill="none" stroke="#63b8ff" d="M829.25,-164.98C813.77,-156.61 789.91,-143.7 771.86,-133.95"/>
<polygon fill="#63b8ff" stroke="#63b8ff" points="773.49,-130.85 763.03,-129.17 770.16,-137.01 773.49,-130.85"/>
</a>
</g>
</g>
<!-- Node19 -->
<g id="Node000019" class="node">
<title>Node19</title>
<g id="a_Node000019"><a xlink:title=" ">
<polygon fill="#e0e0e0" stroke="#999999" points="870,-129 784,-129 784,-110 870,-110 870,-129"/>
<text text-anchor="middle" x="827" y="-117" font-family="Helvetica,sans-Serif" font-size="10.00">unordered_set</text>
</a>
</g>
</g>
<!-- Node16&#45;&gt;Node19 -->
<g id="edge26_Node000016_Node000019" class="edge">
<title>Node16&#45;&gt;Node19</title>
<g id="a_edge26_Node000016_Node000019"><a xlink:title=" ">
<path fill="none" stroke="#63b8ff" d="M842.03,-164.75C839.64,-157.72 836.21,-147.62 833.23,-138.84"/>
<polygon fill="#63b8ff" stroke="#63b8ff" points="836.45,-137.43 829.92,-129.09 829.82,-139.68 836.45,-137.43"/>
</a>
</g>
</g>
<!-- Node22 -->
<g id="Node000022" class="node">
<title>Node22</title>
<g id="a_Node000022"><a xlink:title=" ">
<polygon fill="#e0e0e0" stroke="#999999" points="131.5,-129 66.5,-129 66.5,-110 131.5,-110 131.5,-129"/>
<text text-anchor="middle" x="99" y="-117" font-family="Helvetica,sans-Serif" font-size="10.00">functional</text>
</a>
</g>
</g>
<!-- Node21&#45;&gt;Node22 -->
<g id="edge29_Node000021_Node000022" class="edge">
<title>Node21&#45;&gt;Node22</title>
<g id="a_edge29_Node000021_Node000022"><a xlink:title=" ">
<path fill="none" stroke="#63b8ff" d="M80.63,-164.75C83.58,-157.65 87.83,-147.4 91.51,-138.56"/>
<polygon fill="#63b8ff" stroke="#63b8ff" points="94.83,-139.67 95.43,-129.09 88.37,-136.98 94.83,-139.67"/>
</a>
</g>
</g>
<!-- Node23&#45;&gt;Node13 -->
<g id="edge32_Node000023_Node000013" class="edge">
<title>Node23&#45;&gt;Node13</title>
<g id="a_edge32_Node000023_Node000013"><a xlink:title=" ">
<path fill="none" stroke="#63b8ff" d="M259.72,-219.99C226.94,-211.1 189.36,-194.27 201,-165 213.44,-133.74 223.43,-126.04 253,-110 318.55,-74.45 407.08,-66.63 457.49,-65.3"/>
<polygon fill="#63b8ff" stroke="#63b8ff" points="457.72,-68.79 467.65,-65.1 457.59,-61.79 457.72,-68.79"/>
</a>
</g>
</g>
<!-- Node23&#45;&gt;Node17 -->
<g id="edge31_Node000023_Node000017" class="edge">
<title>Node23&#45;&gt;Node17</title>
<g id="a_edge31_Node000023_Node000017"><a xlink:title=" ">
<path fill="none" stroke="#63b8ff" d="M308.81,-219.66C320.57,-201.77 347.37,-161 362.7,-137.69"/>
<polygon fill="#63b8ff" stroke="#63b8ff" points="365.74,-139.44 368.31,-129.16 359.89,-135.59 365.74,-139.44"/>
</a>
</g>
</g>
<!-- Node23&#45;&gt;Node21 -->
<g id="edge33_Node000023_Node000021" class="edge">
<title>Node23&#45;&gt;Node21</title>
<g id="a_edge33_Node000023_Node000021"><a xlink:title=" ">
<path fill="none" stroke="#63b8ff" d="M266.69,-219.98C227.76,-210.86 165.84,-196.33 123.4,-186.38"/>
<polygon fill="#63b8ff" stroke="#63b8ff" points="124.13,-182.96 113.6,-184.08 122.53,-189.77 124.13,-182.96"/>
</a>
</g>
</g>
<!-- Node23&#45;&gt;Node24 -->
<g id="edge34_Node000023_Node000024" class="edge">
<title>Node23&#45;&gt;Node24</title>
<g id="a_edge34_Node000023_Node000024"><a xlink:title=" ">
<path fill="none" stroke="#63b8ff" d="M296.73,-219.75C291.41,-212.34 283.64,-201.5 277.12,-192.41"/>
<polygon fill="#63b8ff" stroke="#63b8ff" points="279.83,-190.18 271.16,-184.09 274.14,-194.26 279.83,-190.18"/>
</a>
</g>
</g>
<!-- Node24&#45;&gt;Node10 -->
<g id="edge36_Node000024_Node000010" class="edge">
<title>Node24&#45;&gt;Node10</title>
<g id="a_edge36_Node000024_Node000010"><a xlink:title=" ">
<path fill="none" stroke="#63b8ff" d="M261.72,-164.78C257.22,-151.15 251.17,-124.84 265,-110 284.83,-88.72 702.83,-72.26 848.48,-67.16"/>
<polygon fill="#63b8ff" stroke="#63b8ff" points="849.02,-70.64 858.89,-66.79 848.78,-63.64 849.02,-70.64"/>
</a>
</g>
</g>
<!-- Node24&#45;&gt;Node22 -->
<g id="edge35_Node000024_Node000022" class="edge">
<title>Node24&#45;&gt;Node22</title>
<g id="a_edge35_Node000024_Node000022"><a xlink:title=" ">
<path fill="none" stroke="#63b8ff" d="M238.33,-164.98C210.46,-156.09 166.55,-142.07 135.48,-132.15"/>
<polygon fill="#63b8ff" stroke="#63b8ff" points="136.47,-128.79 125.88,-129.08 134.34,-135.46 136.47,-128.79"/>
</a>
</g>
</g>
<!-- Node25 -->
<g id="Node000025" class="node">
<title>Node25</title>
<g id="a_Node000025"><a xlink:href="ISolver_8h.html" target="_top" xlink:title="Abstract interface for numerical solvers.">
<polygon fill="white" stroke="#666666" points="333.5,-129 274.5,-129 274.5,-110 333.5,-110 333.5,-129"/>
<text text-anchor="middle" x="304" y="-117" font-family="Helvetica,sans-Serif" font-size="10.00">ISolver.h</text>
</a>
</g>
</g>
<!-- Node24&#45;&gt;Node25 -->
<g id="edge37_Node000024_Node000025" class="edge">
<title>Node24&#45;&gt;Node25</title>
<g id="a_edge37_Node000024_Node000025"><a xlink:title=" ">
<path fill="none" stroke="#63b8ff" d="M271.44,-164.75C276.89,-157.34 284.86,-146.5 291.56,-137.41"/>
<polygon fill="#63b8ff" stroke="#63b8ff" points="294.57,-139.22 297.68,-129.09 288.93,-135.07 294.57,-139.22"/>
</a>
</g>
</g>
<!-- Node26&#45;&gt;Node3 -->
<g id="edge42_Node000026_Node000003" class="edge">
<title>Node26&#45;&gt;Node3</title>
<g id="a_edge42_Node000026_Node000003"><a xlink:title=" ">
<path fill="none" stroke="#63b8ff" d="M820.66,-219.92C858.49,-206.93 933.29,-182.02 998,-165 1059.35,-148.86 1132,-134.43 1173.47,-126.62"/>
<polygon fill="#63b8ff" stroke="#63b8ff" points="1174.13,-130.06 1183.32,-124.78 1172.85,-123.18 1174.13,-130.06"/>
</a>
</g>
</g>
<!-- Node26&#45;&gt;Node10 -->
<g id="edge41_Node000026_Node000010" class="edge">
<title>Node26&#45;&gt;Node10</title>
<g id="a_edge41_Node000026_Node000010"><a xlink:title=" ">
<path fill="none" stroke="#63b8ff" d="M748.81,-225.71C691.05,-221.2 598.27,-210.02 577,-184 571.66,-177.46 575.67,-173.34 577,-165 581.05,-139.6 575.33,-126.57 595,-110 632.43,-78.47 772.71,-69.27 848.57,-66.6"/>
<polygon fill="#63b8ff" stroke="#63b8ff" points="848.95,-70.09 858.83,-66.26 848.72,-63.09 848.95,-70.09"/>
</a>
</g>
</g>
<!-- Node26&#45;&gt;Node16 -->
<g id="edge39_Node000026_Node000016" class="edge">
<title>Node26&#45;&gt;Node16</title>
<g id="a_edge39_Node000026_Node000016"><a xlink:title=" ">
<path fill="none" stroke="#63b8ff" d="M804.09,-219.75C811.16,-212.11 821.59,-200.82 830.15,-191.56"/>
<polygon fill="#63b8ff" stroke="#63b8ff" points="832.84,-193.81 837.06,-184.09 827.7,-189.06 832.84,-193.81"/>
</a>
</g>
</g>
<!-- Node27 -->
<g id="Node000027" class="node">
<title>Node27</title>
<g id="a_Node000027"><a xlink:href="NodeIndex_8h.html" target="_top" xlink:title=" ">
<polygon fill="white" stroke="#666666" points="530,-184 452,-184 452,-165 530,-165 530,-184"/>
<text text-anchor="middle" x="491" y="-172" font-family="Helvetica,sans-Serif" font-size="10.00">NodeIndex.h</text>
</a>
</g>
</g>
<!-- Node26&#45;&gt;Node27 -->
<g id="edge40_Node000026_Node000027" class="edge">
<title>Node26&#45;&gt;Node27</title>
<g id="a_edge40_Node000026_Node000027"><a xlink:title=" ">
<path fill="none" stroke="#63b8ff" d="M748.68,-220.28C692.01,-210.43 597.57,-194.02 540.12,-184.04"/>
<polygon fill="#63b8ff" stroke="#63b8ff" points="540.64,-180.57 530.19,-182.31 539.44,-187.47 540.64,-180.57"/>
</a>
</g>
</g>
<!-- Node28 -->
<g id="Node000028" class="node">
<title>Node28</title>
<g id="a_Node000028"><a xlink:title=" ">
<polygon fill="#e0e0e0" stroke="#999999" points="764,-184 714,-184 714,-165 764,-165 764,-184"/>
<text text-anchor="middle" x="739" y="-172" font-family="Helvetica,sans-Serif" font-size="10.00">cstdint</text>
</a>
</g>
</g>
<!-- Node26&#45;&gt;Node28 -->
<g id="edge43_Node000026_Node000028" class="edge">
<title>Node26&#45;&gt;Node28</title>
<g id="a_edge43_Node000026_Node000028"><a xlink:title=" ">
<path fill="none" stroke="#63b8ff" d="M786.84,-219.98C778.5,-212.23 765.97,-200.58 755.82,-191.14"/>
<polygon fill="#63b8ff" stroke="#63b8ff" points="758.03,-188.42 748.32,-184.17 753.26,-193.54 758.03,-188.42"/>
</a>
</g>
</g>
<!-- Node29&#45;&gt;Node10 -->
<g id="edge45_Node000029_Node000010" class="edge">
<title>Node29&#45;&gt;Node10</title>
<g id="a_edge45_Node000029_Node000010"><a xlink:title=" ">
<path fill="none" stroke="#63b8ff" d="M599.32,-229.36C530.66,-229.23 404.98,-221.54 443,-165 488.13,-97.88 740.57,-74.9 848.76,-68.06"/>
<polygon fill="#63b8ff" stroke="#63b8ff" points="849,-71.56 858.77,-67.45 848.57,-64.57 849,-71.56"/>
</a>
</g>
</g>
<!-- Node29&#45;&gt;Node16 -->
<g id="edge50_Node000029_Node000016" class="edge">
<title>Node29&#45;&gt;Node16</title>
<g id="a_edge50_Node000029_Node000016"><a xlink:title=" ">
<path fill="none" stroke="#63b8ff" d="M673.78,-219.98C708.62,-210.93 763.87,-196.58 802.14,-186.64"/>
<polygon fill="#63b8ff" stroke="#63b8ff" points="803.17,-189.98 811.97,-184.08 801.41,-183.21 803.17,-189.98"/>
</a>
</g>
</g>
<!-- Node29&#45;&gt;Node27 -->
<g id="edge49_Node000029_Node000027" class="edge">
<title>Node29&#45;&gt;Node27</title>
<g id="a_edge49_Node000029_Node000027"><a xlink:title=" ">
<path fill="none" stroke="#63b8ff" d="M616.9,-219.98C592.12,-211.23 553.3,-197.51 525.31,-187.62"/>
<polygon fill="#63b8ff" stroke="#63b8ff" points="526.13,-184.2 515.54,-184.17 523.8,-190.8 526.13,-184.2"/>
</a>
</g>
</g>
<!-- Node30 -->
<g id="Node000030" class="node">
<title>Node30</title>
<g id="a_Node000030"><a xlink:href="AABB_8h.html" target="_top" xlink:title=" ">
<polygon fill="white" stroke="#666666" points="696,-184 586,-184 586,-165 696,-165 696,-184"/>
<text text-anchor="middle" x="641" y="-172" font-family="Helvetica,sans-Serif" font-size="10.00">../bounding/AABB.h</text>
</a>
</g>
</g>
<!-- Node29&#45;&gt;Node30 -->
<g id="edge46_Node000029_Node000030" class="edge">
<title>Node29&#45;&gt;Node30</title>
<g id="a_edge46_Node000029_Node000030"><a xlink:title=" ">
<path fill="none" stroke="#63b8ff" d="M641,-219.75C641,-212.8 641,-202.85 641,-194.13"/>
<polygon fill="#63b8ff" stroke="#63b8ff" points="644.5,-194.09 641,-184.09 637.5,-194.09 644.5,-194.09"/>
</a>
</g>
</g>
<!-- Node30&#45;&gt;Node10 -->
<g id="edge47_Node000030_Node000010" class="edge">
<title>Node30&#45;&gt;Node10</title>
<g id="a_edge47_Node000030_Node000010"><a xlink:title=" ">
<path fill="none" stroke="#63b8ff" d="M649.22,-164.67C662.54,-150.88 690.26,-124.36 719,-110 760.24,-89.39 811.7,-77.89 848.85,-71.77"/>
<polygon fill="#63b8ff" stroke="#63b8ff" points="849.6,-75.19 858.93,-70.18 848.51,-68.28 849.6,-75.19"/>
</a>
</g>
</g>
<!-- Node30&#45;&gt;Node12 -->
<g id="edge48_Node000030_Node000012" class="edge">
<title>Node30&#45;&gt;Node12</title>
<g id="a_edge48_Node000030_Node000012"><a xlink:title=" ">
<path fill="none" stroke="#63b8ff" d="M696.16,-166.16C699.15,-165.77 702.11,-165.38 705,-165 802.16,-152.3 914.71,-137.88 984.39,-128.98"/>
<polygon fill="#63b8ff" stroke="#63b8ff" points="984.88,-132.45 994.35,-127.71 983.99,-125.51 984.88,-132.45"/>
</a>
</g>
</g>
<!-- Node33&#45;&gt;Node3 -->
<g id="edge56_Node000033_Node000003" class="edge">
<title>Node33&#45;&gt;Node3</title>
<g id="a_edge56_Node000033_Node000003"><a xlink:title=" ">
<path fill="none" stroke="#63b8ff" d="M1399.25,-219.84C1362.78,-201 1275.98,-156.14 1232.6,-133.73"/>
<polygon fill="#63b8ff" stroke="#63b8ff" points="1234.03,-130.53 1223.54,-129.05 1230.82,-136.75 1234.03,-130.53"/>
</a>
</g>
</g>
<!-- Node33&#45;&gt;Node5 -->
<g id="edge58_Node000033_Node000005" class="edge">
<title>Node33&#45;&gt;Node5</title>
<g id="a_edge58_Node000033_Node000005"><a xlink:title=" ">
<path fill="none" stroke="#63b8ff" d="M1409.04,-219.66C1394.84,-201.61 1362.31,-160.28 1344.05,-137.08"/>
<polygon fill="#63b8ff" stroke="#63b8ff" points="1346.75,-134.85 1337.81,-129.16 1341.25,-139.18 1346.75,-134.85"/>
</a>
</g>
</g>
<!-- Node33&#45;&gt;Node10 -->
<g id="edge57_Node000033_Node000010" class="edge">
<title>Node33&#45;&gt;Node10</title>
<g id="a_edge57_Node000033_Node000010"><a xlink:title=" ">
<path fill="none" stroke="#63b8ff" d="M1415.12,-219.81C1412.32,-197.33 1401.5,-137.13 1364,-110 1330.76,-85.95 1059.98,-72.15 947.11,-67.4"/>
<polygon fill="#63b8ff" stroke="#63b8ff" points="947.15,-63.9 937.01,-66.98 946.86,-70.89 947.15,-63.9"/>
</a>
</g>
</g>
<!-- Node33&#45;&gt;Node16 -->
<g id="edge59_Node000033_Node000016" class="edge">
<title>Node33&#45;&gt;Node16</title>
<g id="a_edge59_Node000033_Node000016"><a xlink:title=" ">
<path fill="none" stroke="#63b8ff" d="M1377.65,-224.94C1283.65,-216.22 1040.53,-193.65 917.95,-182.27"/>
<polygon fill="#63b8ff" stroke="#63b8ff" points="918.18,-178.78 907.9,-181.34 917.53,-185.75 918.18,-178.78"/>
</a>
</g>
</g>
<!-- Node34 -->
<g id="Node000034" class="node">
<title>Node34</title>
<g id="a_Node000034"><a xlink:title=" ">
<polygon fill="#e0e0e0" stroke="#999999" points="1547.5,-184 1454.5,-184 1454.5,-165 1547.5,-165 1547.5,-184"/>
<text text-anchor="middle" x="1501" y="-172" font-family="Helvetica,sans-Serif" font-size="10.00">unordered_map</text>
</a>
</g>
</g>
<!-- Node33&#45;&gt;Node34 -->
<g id="edge55_Node000033_Node000034" class="edge">
<title>Node33&#45;&gt;Node34</title>
<g id="a_edge55_Node000033_Node000034"><a xlink:title=" ">
<path fill="none" stroke="#63b8ff" d="M1429.66,-219.98C1442.84,-211.77 1463.03,-199.18 1478.57,-189.49"/>
<polygon fill="#63b8ff" stroke="#63b8ff" points="1480.46,-192.43 1487.09,-184.17 1476.76,-186.49 1480.46,-192.43"/>
</a>
</g>
</g>
<!-- Node35&#45;&gt;Node3 -->
<g id="edge62_Node000035_Node000003" class="edge">
<title>Node35&#45;&gt;Node3</title>
<g id="a_edge62_Node000035_Node000003"><a xlink:title=" ">
<path fill="none" stroke="#63b8ff" d="M1565.27,-166.26C1562.13,-165.83 1559.02,-165.41 1556,-165 1440.41,-149.44 1303.08,-132.34 1240.76,-124.65"/>
<polygon fill="#63b8ff" stroke="#63b8ff" points="1241.07,-121.16 1230.71,-123.41 1240.21,-128.1 1241.07,-121.16"/>
</a>
</g>
</g>
<!-- Node35&#45;&gt;Node8 -->
<g id="edge63_Node000035_Node000008" class="edge">
<title>Node35&#45;&gt;Node8</title>
<g id="a_edge63_Node000035_Node000008"><a xlink:title=" ">
<path fill="none" stroke="#63b8ff" d="M1622.3,-164.93C1630.43,-152.77 1642.89,-129.81 1637,-110 1634.02,-99.98 1628,-90.11 1622.21,-82.22"/>
<polygon fill="#63b8ff" stroke="#63b8ff" points="1624.87,-79.95 1615.94,-74.25 1619.37,-84.28 1624.87,-79.95"/>
</a>
</g>
</g>
<!-- Node35&#45;&gt;Node10 -->
<g id="edge61_Node000035_Node000010" class="edge">
<title>Node35&#45;&gt;Node10</title>
<g id="a_edge61_Node000035_Node000010"><a xlink:title=" ">
<path fill="none" stroke="#63b8ff" d="M1587.75,-164.98C1560.44,-156.54 1518.02,-142.9 1482,-129 1462.51,-121.48 1459.25,-115.15 1439,-110 1346.67,-86.52 1062.72,-72.37 947.42,-67.46"/>
<polygon fill="#63b8ff" stroke="#63b8ff" points="947.27,-63.95 937.13,-67.03 946.97,-70.94 947.27,-63.95"/>
</a>
</g>
</g>
<!-- Node36 -->
<g id="Node000036" class="node">
<title>Node36</title>
<g id="a_Node000036"><a xlink:href="IPickable_8h.html" target="_top" xlink:title="Interface for objects that support mouse&#45;based selection and interaction.">
<polygon fill="white" stroke="#666666" points="1628.5,-129 1491.5,-129 1491.5,-110 1628.5,-110 1628.5,-129"/>
<text text-anchor="middle" x="1560" y="-117" font-family="Helvetica,sans-Serif" font-size="10.00">graphics/core/IPickable.h</text>
</a>
</g>
</g>
<!-- Node35&#45;&gt;Node36 -->
<g id="edge64_Node000035_Node000036" class="edge">
<title>Node35&#45;&gt;Node36</title>
<g id="a_edge64_Node000035_Node000036"><a xlink:title=" ">
<path fill="none" stroke="#63b8ff" d="M1607,-164.98C1598.81,-157.23 1586.49,-145.58 1576.53,-136.14"/>
<polygon fill="#63b8ff" stroke="#63b8ff" points="1578.83,-133.5 1569.16,-129.17 1574.02,-138.59 1578.83,-133.5"/>
</a>
</g>
</g>
<!-- Node36&#45;&gt;Node8 -->
<g id="edge66_Node000036_Node000008" class="edge">
<title>Node36&#45;&gt;Node8</title>
<g id="a_edge66_Node000036_Node000008"><a xlink:title=" ">
<path fill="none" stroke="#63b8ff" d="M1567.93,-109.75C1574.85,-102.11 1585.07,-90.82 1593.45,-81.56"/>
<polygon fill="#63b8ff" stroke="#63b8ff" points="1596.1,-83.85 1600.22,-74.09 1590.91,-79.15 1596.1,-83.85"/>
</a>
</g>
</g>
<!-- Node36&#45;&gt;Node14 -->
<g id="edge65_Node000036_Node000014" class="edge">
<title>Node36&#45;&gt;Node14</title>
<g id="a_edge65_Node000036_Node000014"><a xlink:title=" ">
<path fill="none" stroke="#63b8ff" d="M1512.44,-109.98C1456.71,-100.01 1365,-83.59 1309.97,-73.73"/>
<polygon fill="#63b8ff" stroke="#63b8ff" points="1310.26,-70.23 1299.8,-71.91 1309.03,-77.12 1310.26,-70.23"/>
</a>
</g>
</g>
</g>
</svg>

<g id="navigator" transform="translate(0 0)" fill="#404254">
  <rect fill="#f2f5e9" fill-opacity="0.5" stroke="#606060" stroke-width=".5" x="0" y="0" width="60" height="60"/>
  <use id="zoomplus" xlink:href="#zoomPlus" x="17" y="9" onmousedown="handleZoom(evt,'in')"/>
  <use id="zoomminus" xlink:href="#zoomMin" x="42" y="9" onmousedown="handleZoom(evt,'out')"/>
  <use id="reset" xlink:href="#resetDef" x="30" y="36" onmousedown="handleReset()"/>
   <use id="arrowup" xlink:href="#arrowUp" x="0" y="0" onmousedown="handlePan(0,-1)"/>
  <use id="arrowright" xlink:href="#arrowRight" x="0" y="0" onmousedown="handlePan(1,0)"/>
  <use id="arrowdown" xlink:href="#arrowDown" x="0" y="0" onmousedown="handlePan(0,1)"/>
  <use id="arrowleft" xlink:href="#arrowLeft" x="0" y="0" onmousedown="handlePan(-1,0)"/>
</g>
<svg viewBox="0 0 15 15" width="100%" height="30px" preserveAspectRatio="xMaxYMin meet">
 <g id="arrow_out" transform="scale(0.3 0.3)">
  <a xlink:href="PhysicsSystem_8cpp__incl_org.svg" target="_base">
   <rect id="button" ry="5" rx="5" y="6" x="6" height="38" width="38"
        fill="#f2f5e9" fill-opacity="0.5" stroke="#606060" stroke-width="1.0"/>
   <path id="arrow"
     d="M 11.500037,31.436501 C 11.940474,20.09759 22.043105,11.32322 32.158766,21.979434 L 37.068811,17.246167 C 37.068811,17.246167 37.088388,32 37.088388,32 L 22.160133,31.978069 C 22.160133,31.978069 26.997745,27.140456 26.997745,27.140456 C 18.528582,18.264221 13.291696,25.230495 11.500037,31.436501 z"
     style="fill:#404040;"/>
  </a>
 </g>
</svg>

<style type='text/css'>
<![CDATA[
[data-mouse-over-selected='false'] { opacity: 0.7; }
[data-mouse-over-selected='true']  { opacity: 1.0; }
]]>
</style>
<script type="application/ecmascript"><![CDATA[
document.addEventListener('DOMContentLoaded', (event) => {
  highlightEdges();
  highlightAdjacentNodes();
});
]]></script>
</svg>
