<?xml version="1.0" encoding="UTF-8" standalone="no"?>
<!DOCTYPE svg PUBLIC "-//W3C//DTD SVG 1.1//EN"
 "http://www.w3.org/Graphics/SVG/1.1/DTD/svg11.dtd">
<!-- Generated by graphviz version 2.43.0 (0)
 -->
<!-- Title: tests/PhysicsTests.cpp Pages: 1 -->
<svg width="1805pt" height="357pt"
 viewBox="0.00 0.00 1804.50 357.00" xmlns="http://www.w3.org/2000/svg" xmlns:xlink="http://www.w3.org/1999/xlink">
<g id="graph0" class="graph" transform="scale(1 1) rotate(0) translate(4 353)">
<title>tests/PhysicsTests.cpp</title>
<!-- Node1 -->
<g id="Node000001" class="node">
<title>Node1</title>
<g id="a_Node000001"><a xlink:title=" ">
<polygon fill="#999999" stroke="#666666" points="412.5,-349 287.5,-349 287.5,-330 412.5,-330 412.5,-349"/>
<text text-anchor="middle" x="350" y="-337" font-family="Helvetica,sans-Serif" font-size="10.00">tests/PhysicsTests.cpp</text>
</a>
</g>
</g>
<!-- Node2 -->
<g id="Node000002" class="node">
<title>Node2</title>
<g id="a_Node000002"><a xlink:title=" ">
<polygon fill="#e0e0e0" stroke="#999999" points="78,-294 0,-294 0,-275 78,-275 78,-294"/>
<text text-anchor="middle" x="39" y="-282" font-family="Helvetica,sans-Serif" font-size="10.00">gtest/gtest.h</text>
</a>
</g>
</g>
<!-- Node1&#45;&gt;Node2 -->
<g id="edge1_Node000001_Node000002" class="edge">
<title>Node1&#45;&gt;Node2</title>
<g id="a_edge1_Node000001_Node000002"><a xlink:title=" ">
<path fill="none" stroke="#63b8ff" d="M300.03,-329.98C241.72,-320.05 145.92,-303.72 88.02,-293.85"/>
<polygon fill="#63b8ff" stroke="#63b8ff" points="88.46,-290.38 78.01,-292.15 87.28,-297.28 88.46,-290.38"/>
</a>
</g>
</g>
<!-- Node3 -->
<g id="Node000003" class="node">
<title>Node3</title>
<g id="a_Node000003"><a xlink:title=" ">
<polygon fill="#e0e0e0" stroke="#999999" points="99.5,-239 52.5,-239 52.5,-220 99.5,-220 99.5,-239"/>
<text text-anchor="middle" x="76" y="-227" font-family="Helvetica,sans-Serif" font-size="10.00">cmath</text>
</a>
</g>
</g>
<!-- Node1&#45;&gt;Node3 -->
<g id="edge2_Node000001_Node000003" class="edge">
<title>Node1&#45;&gt;Node3</title>
<g id="a_edge2_Node000001_Node000003"><a xlink:title=" ">
<path fill="none" stroke="#63b8ff" d="M287.47,-337.8C239.75,-334.64 174.09,-324.4 125,-294 107.11,-282.92 93.26,-262.79 84.92,-248.16"/>
<polygon fill="#63b8ff" stroke="#63b8ff" points="87.87,-246.24 80.05,-239.09 81.7,-249.55 87.87,-246.24"/>
</a>
</g>
</g>
<!-- Node4 -->
<g id="Node000004" class="node">
<title>Node4</title>
<g id="a_Node000004"><a xlink:href="PhysicsSystem_8h.html" target="_top" xlink:title=" ">
<polygon fill="white" stroke="#666666" points="1233.5,-294 1094.5,-294 1094.5,-275 1233.5,-275 1233.5,-294"/>
<text text-anchor="middle" x="1164" y="-282" font-family="Helvetica,sans-Serif" font-size="10.00">physics/PhysicsSystem.h</text>
</a>
</g>
</g>
<!-- Node1&#45;&gt;Node4 -->
<g id="edge3_Node000001_Node000004" class="edge">
<title>Node1&#45;&gt;Node4</title>
<g id="a_edge3_Node000001_Node000004"><a xlink:title=" ">
<path fill="none" stroke="#63b8ff" d="M412.52,-334.43C558.6,-324.92 922.14,-301.25 1084.04,-290.71"/>
<polygon fill="#63b8ff" stroke="#63b8ff" points="1084.65,-294.17 1094.4,-290.03 1084.2,-287.19 1084.65,-294.17"/>
</a>
</g>
</g>
<!-- Node11 -->
<g id="Node000011" class="node">
<title>Node11</title>
<g id="a_Node000011"><a xlink:href="RigidBody_8h.html" target="_top" xlink:title=" ">
<polygon fill="white" stroke="#666666" points="743,-239 669,-239 669,-220 743,-220 743,-239"/>
<text text-anchor="middle" x="706" y="-227" font-family="Helvetica,sans-Serif" font-size="10.00">RigidBody.h</text>
</a>
</g>
</g>
<!-- Node1&#45;&gt;Node11 -->
<g id="edge61_Node000001_Node000011" class="edge">
<title>Node1&#45;&gt;Node11</title>
<g id="a_edge61_Node000001_Node000011"><a xlink:title=" ">
<path fill="none" stroke="#63b8ff" d="M378.23,-329.94C441.71,-310.68 595.78,-263.94 667.76,-242.1"/>
<polygon fill="#63b8ff" stroke="#63b8ff" points="669.21,-245.32 677.76,-239.07 667.18,-238.62 669.21,-245.32"/>
</a>
</g>
</g>
<!-- Node36 -->
<g id="Node000036" class="node">
<title>Node36</title>
<g id="a_Node000036"><a xlink:href="PointMass_8h.html" target="_top" xlink:title=" ">
<polygon fill="white" stroke="#666666" points="408,-239 292,-239 292,-220 408,-220 408,-239"/>
<text text-anchor="middle" x="350" y="-227" font-family="Helvetica,sans-Serif" font-size="10.00">physics/PointMass.h</text>
</a>
</g>
</g>
<!-- Node1&#45;&gt;Node36 -->
<g id="edge55_Node000001_Node000036" class="edge">
<title>Node1&#45;&gt;Node36</title>
<g id="a_edge55_Node000001_Node000036"><a xlink:title=" ">
<path fill="none" stroke="#63b8ff" d="M350,-329.66C350,-312.17 350,-272.8 350,-249.27"/>
<polygon fill="#63b8ff" stroke="#63b8ff" points="353.5,-249.16 350,-239.16 346.5,-249.16 353.5,-249.16"/>
</a>
</g>
</g>
<!-- Node38 -->
<g id="Node000038" class="node">
<title>Node38</title>
<g id="a_Node000038"><a xlink:href="BoxCollider_8h.html" target="_top" xlink:title=" ">
<polygon fill="white" stroke="#666666" points="1721.5,-294 1552.5,-294 1552.5,-275 1721.5,-275 1721.5,-294"/>
<text text-anchor="middle" x="1637" y="-282" font-family="Helvetica,sans-Serif" font-size="10.00">physics/bounding/BoxCollider.h</text>
</a>
</g>
</g>
<!-- Node1&#45;&gt;Node38 -->
<g id="edge62_Node000001_Node000038" class="edge">
<title>Node1&#45;&gt;Node38</title>
<g id="a_edge62_Node000001_Node000038"><a xlink:title=" ">
<path fill="none" stroke="#63b8ff" d="M412.51,-335.93C620.8,-327.35 1292.13,-299.7 1542.07,-289.41"/>
<polygon fill="#63b8ff" stroke="#63b8ff" points="1542.37,-292.9 1552.22,-288.99 1542.08,-285.91 1542.37,-292.9"/>
</a>
</g>
</g>
<!-- Node40 -->
<g id="Node000040" class="node">
<title>Node40</title>
<g id="a_Node000040"><a xlink:href="ThermalUtils_8h.html" target="_top" xlink:title=" ">
<polygon fill="white" stroke="#666666" points="286,-294 134,-294 134,-275 286,-275 286,-294"/>
<text text-anchor="middle" x="210" y="-282" font-family="Helvetica,sans-Serif" font-size="10.00">physics/utils/ThermalUtils.h</text>
</a>
</g>
</g>
<!-- Node1&#45;&gt;Node40 -->
<g id="edge65_Node000001_Node000040" class="edge">
<title>Node1&#45;&gt;Node40</title>
<g id="a_edge65_Node000001_Node000040"><a xlink:title=" ">
<path fill="none" stroke="#63b8ff" d="M327.51,-329.98C304.48,-321.27 268.46,-307.63 242.37,-297.75"/>
<polygon fill="#63b8ff" stroke="#63b8ff" points="243.49,-294.44 232.9,-294.17 241.02,-300.98 243.49,-294.44"/>
</a>
</g>
</g>
<!-- Node5 -->
<g id="Node000005" class="node">
<title>Node5</title>
<g id="a_Node000005"><a xlink:title=" ">
<polygon fill="#e0e0e0" stroke="#999999" points="933.5,-129 886.5,-129 886.5,-110 933.5,-110 933.5,-129"/>
<text text-anchor="middle" x="910" y="-117" font-family="Helvetica,sans-Serif" font-size="10.00">vector</text>
</a>
</g>
</g>
<!-- Node4&#45;&gt;Node5 -->
<g id="edge4_Node000004_Node000005" class="edge">
<title>Node4&#45;&gt;Node5</title>
<g id="a_edge4_Node000004_Node000005"><a xlink:title=" ">
<path fill="none" stroke="#63b8ff" d="M1094.37,-276.27C1040.99,-269.41 973.02,-257.38 952,-239 922.66,-213.34 913.82,-165.82 911.15,-139.42"/>
<polygon fill="#63b8ff" stroke="#63b8ff" points="914.62,-138.91 910.33,-129.23 907.64,-139.48 914.62,-138.91"/>
</a>
</g>
</g>
<!-- Node6 -->
<g id="Node000006" class="node">
<title>Node6</title>
<g id="a_Node000006"><a xlink:title=" ">
<polygon fill="#e0e0e0" stroke="#999999" points="1002,-129 952,-129 952,-110 1002,-110 1002,-129"/>
<text text-anchor="middle" x="977" y="-117" font-family="Helvetica,sans-Serif" font-size="10.00">atomic</text>
</a>
</g>
</g>
<!-- Node4&#45;&gt;Node6 -->
<g id="edge5_Node000004_Node000006" class="edge">
<title>Node4&#45;&gt;Node6</title>
<g id="a_edge5_Node000004_Node000006"><a xlink:title=" ">
<path fill="none" stroke="#63b8ff" d="M1168.77,-274.8C1179.84,-253.33 1204.3,-197.21 1177,-165 1166.36,-152.45 1066.57,-134.79 1012.1,-125.96"/>
<polygon fill="#63b8ff" stroke="#63b8ff" points="1012.6,-122.5 1002.17,-124.37 1011.49,-129.41 1012.6,-122.5"/>
</a>
</g>
</g>
<!-- Node7 -->
<g id="Node000007" class="node">
<title>Node7</title>
<g id="a_Node000007"><a xlink:title=" ">
<polygon fill="#e0e0e0" stroke="#999999" points="479,-129 431,-129 431,-110 479,-110 479,-129"/>
<text text-anchor="middle" x="455" y="-117" font-family="Helvetica,sans-Serif" font-size="10.00">mutex</text>
</a>
</g>
</g>
<!-- Node4&#45;&gt;Node7 -->
<g id="edge6_Node000004_Node000007" class="edge">
<title>Node4&#45;&gt;Node7</title>
<g id="a_edge6_Node000004_Node000007"><a xlink:title=" ">
<path fill="none" stroke="#63b8ff" d="M1094.12,-281.63C996.27,-278.04 813.24,-267.78 660,-239 574.02,-222.85 531.73,-246.98 471,-184 459.54,-172.12 455.93,-153.29 454.96,-139.21"/>
<polygon fill="#63b8ff" stroke="#63b8ff" points="458.45,-139.05 454.64,-129.17 451.46,-139.28 458.45,-139.05"/>
</a>
</g>
</g>
<!-- Node8 -->
<g id="Node000008" class="node">
<title>Node8</title>
<g id="a_Node000008"><a xlink:title=" ">
<polygon fill="#e0e0e0" stroke="#999999" points="1313,-239 1265,-239 1265,-220 1313,-220 1313,-239"/>
<text text-anchor="middle" x="1289" y="-227" font-family="Helvetica,sans-Serif" font-size="10.00">thread</text>
</a>
</g>
</g>
<!-- Node4&#45;&gt;Node8 -->
<g id="edge7_Node000004_Node000008" class="edge">
<title>Node4&#45;&gt;Node8</title>
<g id="a_edge7_Node000004_Node000008"><a xlink:title=" ">
<path fill="none" stroke="#63b8ff" d="M1184.08,-274.98C1204.37,-266.38 1235.96,-252.99 1259.17,-243.15"/>
<polygon fill="#63b8ff" stroke="#63b8ff" points="1260.71,-246.3 1268.55,-239.17 1257.98,-239.85 1260.71,-246.3"/>
</a>
</g>
</g>
<!-- Node9 -->
<g id="Node000009" class="node">
<title>Node9</title>
<g id="a_Node000009"><a xlink:title=" ">
<polygon fill="#e0e0e0" stroke="#999999" points="1438.5,-239 1331.5,-239 1331.5,-220 1438.5,-220 1438.5,-239"/>
<text text-anchor="middle" x="1385" y="-227" font-family="Helvetica,sans-Serif" font-size="10.00">condition_variable</text>
</a>
</g>
</g>
<!-- Node4&#45;&gt;Node9 -->
<g id="edge8_Node000004_Node000009" class="edge">
<title>Node4&#45;&gt;Node9</title>
<g id="a_edge8_Node000004_Node000009"><a xlink:title=" ">
<path fill="none" stroke="#63b8ff" d="M1199.51,-274.98C1237.49,-265.87 1297.87,-251.4 1339.36,-241.45"/>
<polygon fill="#63b8ff" stroke="#63b8ff" points="1340.31,-244.82 1349.21,-239.08 1338.67,-238.01 1340.31,-244.82"/>
</a>
</g>
</g>
<!-- Node10 -->
<g id="Node000010" class="node">
<title>Node10</title>
<g id="a_Node000010"><a xlink:title=" ">
<polygon fill="#e0e0e0" stroke="#999999" points="1669,-74 1613,-74 1613,-55 1669,-55 1669,-74"/>
<text text-anchor="middle" x="1641" y="-62" font-family="Helvetica,sans-Serif" font-size="10.00">optional</text>
</a>
</g>
</g>
<!-- Node4&#45;&gt;Node10 -->
<g id="edge9_Node000004_Node000010" class="edge">
<title>Node4&#45;&gt;Node10</title>
<g id="a_edge9_Node000004_Node000010"><a xlink:title=" ">
<path fill="none" stroke="#63b8ff" d="M1233.81,-279.94C1345.12,-273.68 1553.04,-259.43 1580,-239 1629.37,-201.59 1638.95,-121.24 1640.69,-84.52"/>
<polygon fill="#63b8ff" stroke="#63b8ff" points="1644.19,-84.34 1641.02,-74.24 1637.2,-84.12 1644.19,-84.34"/>
</a>
</g>
</g>
<!-- Node4&#45;&gt;Node11 -->
<g id="edge10_Node000004_Node000011" class="edge">
<title>Node4&#45;&gt;Node11</title>
<g id="a_edge10_Node000004_Node000011"><a xlink:title=" ">
<path fill="none" stroke="#63b8ff" d="M1094.44,-275.45C1000.32,-264.56 834.87,-245.41 753.67,-236.02"/>
<polygon fill="#63b8ff" stroke="#63b8ff" points="753.59,-232.48 743.26,-234.81 752.79,-239.44 753.59,-232.48"/>
</a>
</g>
</g>
<!-- Node24 -->
<g id="Node000024" class="node">
<title>Node24</title>
<g id="a_Node000024"><a xlink:href="Constants_8h.html" target="_top" xlink:title=" ">
<polygon fill="white" stroke="#666666" points="1571,-239 1457,-239 1457,-220 1571,-220 1571,-239"/>
<text text-anchor="middle" x="1514" y="-227" font-family="Helvetica,sans-Serif" font-size="10.00">physics/Constants.h</text>
</a>
</g>
</g>
<!-- Node4&#45;&gt;Node24 -->
<g id="edge31_Node000004_Node000024" class="edge">
<title>Node4&#45;&gt;Node24</title>
<g id="a_edge31_Node000004_Node000024"><a xlink:title=" ">
<path fill="none" stroke="#63b8ff" d="M1220.23,-274.98C1282.14,-265.61 1381.59,-250.55 1447.36,-240.59"/>
<polygon fill="#63b8ff" stroke="#63b8ff" points="1448.25,-244 1457.62,-239.04 1447.2,-237.07 1448.25,-244"/>
</a>
</g>
</g>
<!-- Node25 -->
<g id="Node000025" class="node">
<title>Node25</title>
<g id="a_Node000025"><a xlink:href="ProblemRouter_8h.html" target="_top" xlink:title=" ">
<polygon fill="white" stroke="#666666" points="1393.5,-184 1262.5,-184 1262.5,-165 1393.5,-165 1393.5,-184"/>
<text text-anchor="middle" x="1328" y="-172" font-family="Helvetica,sans-Serif" font-size="10.00">solver/ProblemRouter.h</text>
</a>
</g>
</g>
<!-- Node4&#45;&gt;Node25 -->
<g id="edge32_Node000004_Node000025" class="edge">
<title>Node4&#45;&gt;Node25</title>
<g id="a_edge32_Node000004_Node000025"><a xlink:title=" ">
<path fill="none" stroke="#63b8ff" d="M1176.07,-274.88C1193.53,-262.48 1226.92,-239 1256,-220 1272.14,-209.45 1290.66,-198.02 1304.87,-189.39"/>
<polygon fill="#63b8ff" stroke="#63b8ff" points="1306.78,-192.32 1313.52,-184.15 1303.15,-186.34 1306.78,-192.32"/>
</a>
</g>
</g>
<!-- Node31 -->
<g id="Node000031" class="node">
<title>Node31</title>
<g id="a_Node000031"><a xlink:href="Octree_8h.html" target="_top" xlink:title=" ">
<polygon fill="white" stroke="#666666" points="1055,-239 961,-239 961,-220 1055,-220 1055,-239"/>
<text text-anchor="middle" x="1008" y="-227" font-family="Helvetica,sans-Serif" font-size="10.00">spatial/Octree.h</text>
</a>
</g>
</g>
<!-- Node4&#45;&gt;Node31 -->
<g id="edge42_Node000004_Node000031" class="edge">
<title>Node4&#45;&gt;Node31</title>
<g id="a_edge42_Node000004_Node000031"><a xlink:title=" ">
<path fill="none" stroke="#63b8ff" d="M1138.94,-274.98C1112.97,-266.16 1072.19,-252.31 1043.04,-242.41"/>
<polygon fill="#63b8ff" stroke="#63b8ff" points="1043.85,-238.99 1033.26,-239.08 1041.6,-245.61 1043.85,-238.99"/>
</a>
</g>
</g>
<!-- Node34 -->
<g id="Node000034" class="node">
<title>Node34</title>
<g id="a_Node000034"><a xlink:href="BVH_8h.html" target="_top" xlink:title=" ">
<polygon fill="white" stroke="#666666" points="1170.5,-239 1087.5,-239 1087.5,-220 1170.5,-220 1170.5,-239"/>
<text text-anchor="middle" x="1129" y="-227" font-family="Helvetica,sans-Serif" font-size="10.00">spatial/BVH.h</text>
</a>
</g>
</g>
<!-- Node4&#45;&gt;Node34 -->
<g id="edge48_Node000004_Node000034" class="edge">
<title>Node4&#45;&gt;Node34</title>
<g id="a_edge48_Node000004_Node000034"><a xlink:title=" ">
<path fill="none" stroke="#63b8ff" d="M1158.22,-274.75C1153.38,-267.42 1146.32,-256.73 1140.36,-247.7"/>
<polygon fill="#63b8ff" stroke="#63b8ff" points="1143.1,-245.5 1134.67,-239.09 1137.26,-249.36 1143.1,-245.5"/>
</a>
</g>
</g>
<!-- Node11&#45;&gt;Node5 -->
<g id="edge12_Node000011_Node000005" class="edge">
<title>Node11&#45;&gt;Node5</title>
<g id="a_edge12_Node000011_Node000005"><a xlink:title=" ">
<path fill="none" stroke="#63b8ff" d="M743.02,-223.59C775.01,-217.99 821.4,-206.53 856,-184 874.3,-172.08 889.8,-152.14 899.43,-137.78"/>
<polygon fill="#63b8ff" stroke="#63b8ff" points="902.42,-139.6 904.88,-129.3 896.53,-135.82 902.42,-139.6"/>
</a>
</g>
</g>
<!-- Node11&#45;&gt;Node7 -->
<g id="edge11_Node000011_Node000007" class="edge">
<title>Node11&#45;&gt;Node7</title>
<g id="a_edge11_Node000011_Node000007"><a xlink:title=" ">
<path fill="none" stroke="#63b8ff" d="M668.95,-229.44C623.43,-228.78 545.78,-221.58 493,-184 477.34,-172.85 467,-153.03 461.11,-138.49"/>
<polygon fill="#63b8ff" stroke="#63b8ff" points="464.37,-137.19 457.6,-129.04 457.8,-139.63 464.37,-137.19"/>
</a>
</g>
</g>
<!-- Node12 -->
<g id="Node000012" class="node">
<title>Node12</title>
<g id="a_Node000012"><a xlink:title=" ">
<polygon fill="#e0e0e0" stroke="#999999" points="1119,-74 1041,-74 1041,-55 1119,-55 1119,-74"/>
<text text-anchor="middle" x="1080" y="-62" font-family="Helvetica,sans-Serif" font-size="10.00">glm/glm.hpp</text>
</a>
</g>
</g>
<!-- Node11&#45;&gt;Node12 -->
<g id="edge13_Node000011_Node000012" class="edge">
<title>Node11&#45;&gt;Node12</title>
<g id="a_edge13_Node000011_Node000012"><a xlink:title=" ">
<path fill="none" stroke="#63b8ff" d="M696.49,-219.72C675.1,-199.73 624.41,-150.84 616,-129 612.96,-121.12 610.32,-116.25 616,-110 643.51,-79.73 917,-69.51 1030.76,-66.56"/>
<polygon fill="#63b8ff" stroke="#63b8ff" points="1031.03,-70.05 1040.93,-66.3 1030.85,-63.06 1031.03,-70.05"/>
</a>
</g>
</g>
<!-- Node13 -->
<g id="Node000013" class="node">
<title>Node13</title>
<g id="a_Node000013"><a xlink:title=" ">
<polygon fill="#e0e0e0" stroke="#999999" points="632,-184 502,-184 502,-165 632,-165 632,-184"/>
<text text-anchor="middle" x="567" y="-172" font-family="Helvetica,sans-Serif" font-size="10.00">glm/gtc/quaternion.hpp</text>
</a>
</g>
</g>
<!-- Node11&#45;&gt;Node13 -->
<g id="edge14_Node000011_Node000013" class="edge">
<title>Node11&#45;&gt;Node13</title>
<g id="a_edge14_Node000011_Node000013"><a xlink:title=" ">
<path fill="none" stroke="#63b8ff" d="M683.67,-219.98C660.8,-211.27 625.04,-197.63 599.14,-187.75"/>
<polygon fill="#63b8ff" stroke="#63b8ff" points="600.33,-184.46 589.74,-184.17 597.84,-191 600.33,-184.46"/>
</a>
</g>
</g>
<!-- Node14 -->
<g id="Node000014" class="node">
<title>Node14</title>
<g id="a_Node000014"><a xlink:href="ICollider_8h.html" target="_top" xlink:title="Abstract interface for collision detection shapes.">
<polygon fill="white" stroke="#666666" points="1614.5,-129 1501.5,-129 1501.5,-110 1614.5,-110 1614.5,-129"/>
<text text-anchor="middle" x="1558" y="-117" font-family="Helvetica,sans-Serif" font-size="10.00">bounding/ICollider.h</text>
</a>
</g>
</g>
<!-- Node11&#45;&gt;Node14 -->
<g id="edge15_Node000011_Node000014" class="edge">
<title>Node11&#45;&gt;Node14</title>
<g id="a_edge15_Node000011_Node000014"><a xlink:title=" ">
<path fill="none" stroke="#63b8ff" d="M743.04,-227.03C901.45,-220.7 1514.64,-195.47 1531,-184 1545.54,-173.81 1552.29,-154.13 1555.4,-139.37"/>
<polygon fill="#63b8ff" stroke="#63b8ff" points="1558.89,-139.73 1557.14,-129.28 1552,-138.54 1558.89,-139.73"/>
</a>
</g>
</g>
<!-- Node18 -->
<g id="Node000018" class="node">
<title>Node18</title>
<g id="a_Node000018"><a xlink:href="PhysicsBody_8h.html" target="_top" xlink:title=" ">
<polygon fill="white" stroke="#666666" points="813.5,-184 688.5,-184 688.5,-165 813.5,-165 813.5,-184"/>
<text text-anchor="middle" x="751" y="-172" font-family="Helvetica,sans-Serif" font-size="10.00">physics/PhysicsBody.h</text>
</a>
</g>
</g>
<!-- Node11&#45;&gt;Node18 -->
<g id="edge21_Node000011_Node000018" class="edge">
<title>Node11&#45;&gt;Node18</title>
<g id="a_edge21_Node000011_Node000018"><a xlink:title=" ">
<path fill="none" stroke="#63b8ff" d="M713.43,-219.75C719.85,-212.18 729.31,-201.05 737.12,-191.84"/>
<polygon fill="#63b8ff" stroke="#63b8ff" points="739.9,-193.98 743.71,-184.09 734.57,-189.45 739.9,-193.98"/>
</a>
</g>
</g>
<!-- Node14&#45;&gt;Node10 -->
<g id="edge18_Node000014_Node000010" class="edge">
<title>Node14&#45;&gt;Node10</title>
<g id="a_edge18_Node000014_Node000010"><a xlink:title=" ">
<path fill="none" stroke="#63b8ff" d="M1571.34,-109.98C1584.09,-101.84 1603.55,-89.41 1618.67,-79.76"/>
<polygon fill="#63b8ff" stroke="#63b8ff" points="1620.88,-82.5 1627.42,-74.17 1617.11,-76.6 1620.88,-82.5"/>
</a>
</g>
</g>
<!-- Node14&#45;&gt;Node12 -->
<g id="edge16_Node000014_Node000012" class="edge">
<title>Node14&#45;&gt;Node12</title>
<g id="a_edge16_Node000014_Node000012"><a xlink:title=" ">
<path fill="none" stroke="#63b8ff" d="M1501.29,-112.21C1406.73,-101.73 1218.45,-80.85 1129.16,-70.95"/>
<polygon fill="#63b8ff" stroke="#63b8ff" points="1129.36,-67.45 1119.04,-69.83 1128.59,-74.41 1129.36,-67.45"/>
</a>
</g>
</g>
<!-- Node15 -->
<g id="Node000015" class="node">
<title>Node15</title>
<g id="a_Node000015"><a xlink:title=" ">
<polygon fill="#e0e0e0" stroke="#999999" points="1503,-74 1445,-74 1445,-55 1503,-55 1503,-74"/>
<text text-anchor="middle" x="1474" y="-62" font-family="Helvetica,sans-Serif" font-size="10.00">memory</text>
</a>
</g>
</g>
<!-- Node14&#45;&gt;Node15 -->
<g id="edge17_Node000014_Node000015" class="edge">
<title>Node14&#45;&gt;Node15</title>
<g id="a_edge17_Node000014_Node000015"><a xlink:title=" ">
<path fill="none" stroke="#63b8ff" d="M1544.5,-109.98C1531.6,-101.84 1511.9,-89.41 1496.6,-79.76"/>
<polygon fill="#63b8ff" stroke="#63b8ff" points="1498.07,-76.55 1487.74,-74.17 1494.33,-82.47 1498.07,-76.55"/>
</a>
</g>
</g>
<!-- Node16 -->
<g id="Node000016" class="node">
<title>Node16</title>
<g id="a_Node000016"><a xlink:href="Ray_8h.html" target="_top" xlink:title=" ">
<polygon fill="white" stroke="#666666" points="1593.5,-74 1522.5,-74 1522.5,-55 1593.5,-55 1593.5,-74"/>
<text text-anchor="middle" x="1558" y="-62" font-family="Helvetica,sans-Serif" font-size="10.00">math/Ray.h</text>
</a>
</g>
</g>
<!-- Node14&#45;&gt;Node16 -->
<g id="edge19_Node000014_Node000016" class="edge">
<title>Node14&#45;&gt;Node16</title>
<g id="a_edge19_Node000014_Node000016"><a xlink:title=" ">
<path fill="none" stroke="#63b8ff" d="M1558,-109.75C1558,-102.8 1558,-92.85 1558,-84.13"/>
<polygon fill="#63b8ff" stroke="#63b8ff" points="1561.5,-84.09 1558,-74.09 1554.5,-84.09 1561.5,-84.09"/>
</a>
</g>
</g>
<!-- Node17 -->
<g id="Node000017" class="node">
<title>Node17</title>
<g id="a_Node000017"><a xlink:title=" ">
<polygon fill="#e0e0e0" stroke="#999999" points="1599.5,-19 1516.5,-19 1516.5,0 1599.5,0 1599.5,-19"/>
<text text-anchor="middle" x="1558" y="-7" font-family="Helvetica,sans-Serif" font-size="10.00">glm/vec3.hpp</text>
</a>
</g>
</g>
<!-- Node16&#45;&gt;Node17 -->
<g id="edge20_Node000016_Node000017" class="edge">
<title>Node16&#45;&gt;Node17</title>
<g id="a_edge20_Node000016_Node000017"><a xlink:title=" ">
<path fill="none" stroke="#63b8ff" d="M1558,-54.75C1558,-47.8 1558,-37.85 1558,-29.13"/>
<polygon fill="#63b8ff" stroke="#63b8ff" points="1561.5,-29.09 1558,-19.09 1554.5,-29.09 1561.5,-29.09"/>
</a>
</g>
</g>
<!-- Node18&#45;&gt;Node5 -->
<g id="edge26_Node000018_Node000005" class="edge">
<title>Node18&#45;&gt;Node5</title>
<g id="a_edge26_Node000018_Node000005"><a xlink:title=" ">
<path fill="none" stroke="#63b8ff" d="M776.55,-164.98C803.76,-155.91 846.93,-141.52 876.77,-131.58"/>
<polygon fill="#63b8ff" stroke="#63b8ff" points="877.95,-134.87 886.33,-128.39 875.74,-128.23 877.95,-134.87"/>
</a>
</g>
</g>
<!-- Node18&#45;&gt;Node6 -->
<g id="edge22_Node000018_Node000006" class="edge">
<title>Node18&#45;&gt;Node6</title>
<g id="a_edge22_Node000018_Node000006"><a xlink:title=" ">
<path fill="none" stroke="#63b8ff" d="M788.57,-164.99C825.27,-156.64 882.95,-143.39 941.91,-129.23"/>
<polygon fill="#63b8ff" stroke="#63b8ff" points="942.86,-132.6 951.76,-126.86 941.22,-125.8 942.86,-132.6"/>
</a>
</g>
</g>
<!-- Node18&#45;&gt;Node7 -->
<g id="edge28_Node000018_Node000007" class="edge">
<title>Node18&#45;&gt;Node7</title>
<g id="a_edge28_Node000018_Node000007"><a xlink:title=" ">
<path fill="none" stroke="#63b8ff" d="M703.44,-164.98C643.54,-154.26 542.06,-136.09 489.25,-126.63"/>
<polygon fill="#63b8ff" stroke="#63b8ff" points="489.82,-123.18 479.36,-124.86 488.59,-130.07 489.82,-123.18"/>
</a>
</g>
</g>
<!-- Node18&#45;&gt;Node12 -->
<g id="edge25_Node000018_Node000012" class="edge">
<title>Node18&#45;&gt;Node12</title>
<g id="a_edge25_Node000018_Node000012"><a xlink:title=" ">
<path fill="none" stroke="#63b8ff" d="M767.98,-164.87C801.25,-147.98 872.32,-112.01 878,-110 928.71,-92.05 989.24,-79.87 1030.74,-72.85"/>
<polygon fill="#63b8ff" stroke="#63b8ff" points="1031.56,-76.26 1040.86,-71.18 1030.42,-69.36 1031.56,-76.26"/>
</a>
</g>
</g>
<!-- Node19 -->
<g id="Node000019" class="node">
<title>Node19</title>
<g id="a_Node000019"><a xlink:title=" ">
<polygon fill="#e0e0e0" stroke="#999999" points="1102,-129 1058,-129 1058,-110 1102,-110 1102,-129"/>
<text text-anchor="middle" x="1080" y="-117" font-family="Helvetica,sans-Serif" font-size="10.00">string</text>
</a>
</g>
</g>
<!-- Node18&#45;&gt;Node19 -->
<g id="edge23_Node000018_Node000019" class="edge">
<title>Node18&#45;&gt;Node19</title>
<g id="a_edge23_Node000018_Node000019"><a xlink:title=" ">
<path fill="none" stroke="#63b8ff" d="M803.86,-164.98C872.63,-153.91 990.69,-134.89 1047.54,-125.73"/>
<polygon fill="#63b8ff" stroke="#63b8ff" points="1048.42,-129.13 1057.74,-124.09 1047.31,-122.22 1048.42,-129.13"/>
</a>
</g>
</g>
<!-- Node20 -->
<g id="Node000020" class="node">
<title>Node20</title>
<g id="a_Node000020"><a xlink:title=" ">
<polygon fill="#e0e0e0" stroke="#999999" points="669.5,-129 624.5,-129 624.5,-110 669.5,-110 669.5,-129"/>
<text text-anchor="middle" x="647" y="-117" font-family="Helvetica,sans-Serif" font-size="10.00">utility</text>
</a>
</g>
</g>
<!-- Node18&#45;&gt;Node20 -->
<g id="edge24_Node000018_Node000020" class="edge">
<title>Node18&#45;&gt;Node20</title>
<g id="a_edge24_Node000018_Node000020"><a xlink:title=" ">
<path fill="none" stroke="#63b8ff" d="M734.29,-164.98C717.79,-156.57 692.3,-143.59 673.12,-133.81"/>
<polygon fill="#63b8ff" stroke="#63b8ff" points="674.51,-130.59 664.01,-129.17 671.33,-136.83 674.51,-130.59"/>
</a>
</g>
</g>
<!-- Node21 -->
<g id="Node000021" class="node">
<title>Node21</title>
<g id="a_Node000021"><a xlink:title=" ">
<polygon fill="#e0e0e0" stroke="#999999" points="726,-129 688,-129 688,-110 726,-110 726,-129"/>
<text text-anchor="middle" x="707" y="-117" font-family="Helvetica,sans-Serif" font-size="10.00">map</text>
</a>
</g>
</g>
<!-- Node18&#45;&gt;Node21 -->
<g id="edge27_Node000018_Node000021" class="edge">
<title>Node18&#45;&gt;Node21</title>
<g id="a_edge27_Node000018_Node000021"><a xlink:title=" ">
<path fill="none" stroke="#63b8ff" d="M743.73,-164.75C737.46,-157.18 728.21,-146.05 720.57,-136.84"/>
<polygon fill="#63b8ff" stroke="#63b8ff" points="723.21,-134.55 714.13,-129.09 717.83,-139.02 723.21,-134.55"/>
</a>
</g>
</g>
<!-- Node22 -->
<g id="Node000022" class="node">
<title>Node22</title>
<g id="a_Node000022"><a xlink:title=" ">
<polygon fill="#e0e0e0" stroke="#999999" points="830,-129 744,-129 744,-110 830,-110 830,-129"/>
<text text-anchor="middle" x="787" y="-117" font-family="Helvetica,sans-Serif" font-size="10.00">unordered_set</text>
</a>
</g>
</g>
<!-- Node18&#45;&gt;Node22 -->
<g id="edge29_Node000018_Node000022" class="edge">
<title>Node18&#45;&gt;Node22</title>
<g id="a_edge29_Node000018_Node000022"><a xlink:title=" ">
<path fill="none" stroke="#63b8ff" d="M756.94,-164.75C761.98,-157.34 769.34,-146.5 775.51,-137.41"/>
<polygon fill="#63b8ff" stroke="#63b8ff" points="778.44,-139.33 781.17,-129.09 772.65,-135.39 778.44,-139.33"/>
</a>
</g>
</g>
<!-- Node23 -->
<g id="Node000023" class="node">
<title>Node23</title>
<g id="a_Node000023"><a xlink:href="ThermalProperties_8h.html" target="_top" xlink:title=" ">
<polygon fill="white" stroke="#666666" points="219.5,-129 64.5,-129 64.5,-110 219.5,-110 219.5,-129"/>
<text text-anchor="middle" x="142" y="-117" font-family="Helvetica,sans-Serif" font-size="10.00">physics/ThermalProperties.h</text>
</a>
</g>
</g>
<!-- Node18&#45;&gt;Node23 -->
<g id="edge30_Node000018_Node000023" class="edge">
<title>Node18&#45;&gt;Node23</title>
<g id="a_edge30_Node000018_Node000023"><a xlink:title=" ">
<path fill="none" stroke="#63b8ff" d="M688.4,-168.05C579.47,-158.57 354.76,-139.02 230.12,-128.17"/>
<polygon fill="#63b8ff" stroke="#63b8ff" points="230.12,-124.66 219.85,-127.28 229.51,-131.63 230.12,-124.66"/>
</a>
</g>
</g>
<!-- Node25&#45;&gt;Node15 -->
<g id="edge34_Node000025_Node000015" class="edge">
<title>Node25&#45;&gt;Node15</title>
<g id="a_edge34_Node000025_Node000015"><a xlink:title=" ">
<path fill="none" stroke="#63b8ff" d="M1385.29,-164.92C1409.34,-158.64 1435.87,-147.77 1454,-129 1465.66,-116.93 1470.53,-98.13 1472.56,-84.11"/>
<polygon fill="#63b8ff" stroke="#63b8ff" points="1476.04,-84.44 1473.65,-74.11 1469.08,-83.67 1476.04,-84.44"/>
</a>
</g>
</g>
<!-- Node25&#45;&gt;Node19 -->
<g id="edge33_Node000025_Node000019" class="edge">
<title>Node25&#45;&gt;Node19</title>
<g id="a_edge33_Node000025_Node000019"><a xlink:title=" ">
<path fill="none" stroke="#63b8ff" d="M1288.15,-164.98C1239.12,-154.51 1156.85,-136.92 1111.82,-127.3"/>
<polygon fill="#63b8ff" stroke="#63b8ff" points="1112.52,-123.87 1102.01,-125.2 1111.06,-130.72 1112.52,-123.87"/>
</a>
</g>
</g>
<!-- Node26 -->
<g id="Node000026" class="node">
<title>Node26</title>
<g id="a_Node000026"><a xlink:href="OneUnknownSolver_8h.html" target="_top" xlink:title=" ">
<polygon fill="white" stroke="#666666" points="1444.5,-129 1323.5,-129 1323.5,-110 1444.5,-110 1444.5,-129"/>
<text text-anchor="middle" x="1384" y="-117" font-family="Helvetica,sans-Serif" font-size="10.00">OneUnknownSolver.h</text>
</a>
</g>
</g>
<!-- Node25&#45;&gt;Node26 -->
<g id="edge35_Node000025_Node000026" class="edge">
<title>Node25&#45;&gt;Node26</title>
<g id="a_edge35_Node000025_Node000026"><a xlink:title=" ">
<path fill="none" stroke="#63b8ff" d="M1337,-164.98C1345.19,-157.23 1357.51,-145.58 1367.47,-136.14"/>
<polygon fill="#63b8ff" stroke="#63b8ff" points="1369.98,-138.59 1374.84,-129.17 1365.17,-133.5 1369.98,-138.59"/>
</a>
</g>
</g>
<!-- Node28 -->
<g id="Node000028" class="node">
<title>Node28</title>
<g id="a_Node000028"><a xlink:href="VectorRootSolver_8h.html" target="_top" xlink:title=" ">
<polygon fill="white" stroke="#666666" points="1305.5,-129 1196.5,-129 1196.5,-110 1305.5,-110 1305.5,-129"/>
<text text-anchor="middle" x="1251" y="-117" font-family="Helvetica,sans-Serif" font-size="10.00">VectorRootSolver.h</text>
</a>
</g>
</g>
<!-- Node25&#45;&gt;Node28 -->
<g id="edge37_Node000025_Node000028" class="edge">
<title>Node25&#45;&gt;Node28</title>
<g id="a_edge37_Node000025_Node000028"><a xlink:title=" ">
<path fill="none" stroke="#63b8ff" d="M1315.63,-164.98C1303.91,-156.92 1286.08,-144.65 1272.11,-135.03"/>
<polygon fill="#63b8ff" stroke="#63b8ff" points="1273.82,-131.96 1263.6,-129.17 1269.85,-137.72 1273.82,-131.96"/>
</a>
</g>
</g>
<!-- Node27 -->
<g id="Node000027" class="node">
<title>Node27</title>
<g id="a_Node000027"><a xlink:title=" ">
<polygon fill="#e0e0e0" stroke="#999999" points="1403.5,-74 1338.5,-74 1338.5,-55 1403.5,-55 1403.5,-74"/>
<text text-anchor="middle" x="1371" y="-62" font-family="Helvetica,sans-Serif" font-size="10.00">functional</text>
</a>
</g>
</g>
<!-- Node26&#45;&gt;Node27 -->
<g id="edge36_Node000026_Node000027" class="edge">
<title>Node26&#45;&gt;Node27</title>
<g id="a_edge36_Node000026_Node000027"><a xlink:title=" ">
<path fill="none" stroke="#63b8ff" d="M1381.85,-109.75C1380.13,-102.72 1377.65,-92.62 1375.5,-83.84"/>
<polygon fill="#63b8ff" stroke="#63b8ff" points="1378.89,-82.97 1373.11,-74.09 1372.09,-84.63 1378.89,-82.97"/>
</a>
</g>
</g>
<!-- Node28&#45;&gt;Node12 -->
<g id="edge40_Node000028_Node000012" class="edge">
<title>Node28&#45;&gt;Node12</title>
<g id="a_edge40_Node000028_Node000012"><a xlink:title=" ">
<path fill="none" stroke="#63b8ff" d="M1223.53,-109.98C1194.82,-101.09 1149.58,-87.07 1117.58,-77.15"/>
<polygon fill="#63b8ff" stroke="#63b8ff" points="1118.28,-73.7 1107.69,-74.08 1116.2,-80.39 1118.28,-73.7"/>
</a>
</g>
</g>
<!-- Node28&#45;&gt;Node27 -->
<g id="edge39_Node000028_Node000027" class="edge">
<title>Node28&#45;&gt;Node27</title>
<g id="a_edge39_Node000028_Node000027"><a xlink:title=" ">
<path fill="none" stroke="#63b8ff" d="M1270.28,-109.98C1289.67,-101.42 1319.81,-88.11 1342.07,-78.28"/>
<polygon fill="#63b8ff" stroke="#63b8ff" points="1343.64,-81.41 1351.37,-74.17 1340.81,-75.01 1343.64,-81.41"/>
</a>
</g>
</g>
<!-- Node29 -->
<g id="Node000029" class="node">
<title>Node29</title>
<g id="a_Node000029"><a xlink:title=" ">
<polygon fill="#e0e0e0" stroke="#999999" points="1314,-74 1272,-74 1272,-55 1314,-55 1314,-74"/>
<text text-anchor="middle" x="1293" y="-62" font-family="Helvetica,sans-Serif" font-size="10.00">array</text>
</a>
</g>
</g>
<!-- Node28&#45;&gt;Node29 -->
<g id="edge38_Node000028_Node000029" class="edge">
<title>Node28&#45;&gt;Node29</title>
<g id="a_edge38_Node000028_Node000029"><a xlink:title=" ">
<path fill="none" stroke="#63b8ff" d="M1257.94,-109.75C1263.87,-102.26 1272.57,-91.28 1279.82,-82.13"/>
<polygon fill="#63b8ff" stroke="#63b8ff" points="1282.73,-84.1 1286.19,-74.09 1277.24,-79.75 1282.73,-84.1"/>
</a>
</g>
</g>
<!-- Node30 -->
<g id="Node000030" class="node">
<title>Node30</title>
<g id="a_Node000030"><a xlink:href="ISolver_8h.html" target="_top" xlink:title="Abstract interface for numerical solvers.">
<polygon fill="white" stroke="#666666" points="1253.5,-74 1194.5,-74 1194.5,-55 1253.5,-55 1253.5,-74"/>
<text text-anchor="middle" x="1224" y="-62" font-family="Helvetica,sans-Serif" font-size="10.00">ISolver.h</text>
</a>
</g>
</g>
<!-- Node28&#45;&gt;Node30 -->
<g id="edge41_Node000028_Node000030" class="edge">
<title>Node28&#45;&gt;Node30</title>
<g id="a_edge41_Node000028_Node000030"><a xlink:title=" ">
<path fill="none" stroke="#63b8ff" d="M1246.54,-109.75C1242.88,-102.57 1237.59,-92.18 1233.05,-83.27"/>
<polygon fill="#63b8ff" stroke="#63b8ff" points="1236.03,-81.41 1228.38,-74.09 1229.8,-84.59 1236.03,-81.41"/>
</a>
</g>
</g>
<!-- Node31&#45;&gt;Node5 -->
<g id="edge46_Node000031_Node000005" class="edge">
<title>Node31&#45;&gt;Node5</title>
<g id="a_edge46_Node000031_Node000005"><a xlink:title=" ">
<path fill="none" stroke="#63b8ff" d="M999.98,-219.66C983.53,-201.54 945.76,-159.91 924.76,-136.77"/>
<polygon fill="#63b8ff" stroke="#63b8ff" points="927.17,-134.21 917.86,-129.16 921.98,-138.92 927.17,-134.21"/>
</a>
</g>
</g>
<!-- Node31&#45;&gt;Node12 -->
<g id="edge45_Node000031_Node000012" class="edge">
<title>Node31&#45;&gt;Node12</title>
<g id="a_edge45_Node000031_Node000012"><a xlink:title=" ">
<path fill="none" stroke="#63b8ff" d="M1007.34,-219.6C1006.71,-207.05 1006.64,-183.63 1013,-165 1024.15,-132.36 1048.92,-100.3 1065.02,-81.74"/>
<polygon fill="#63b8ff" stroke="#63b8ff" points="1067.69,-84 1071.72,-74.21 1062.46,-79.35 1067.69,-84"/>
</a>
</g>
</g>
<!-- Node31&#45;&gt;Node18 -->
<g id="edge43_Node000031_Node000018" class="edge">
<title>Node31&#45;&gt;Node18</title>
<g id="a_edge43_Node000031_Node000018"><a xlink:title=" ">
<path fill="none" stroke="#63b8ff" d="M966.71,-219.98C922.07,-210.78 850.84,-196.09 802.55,-186.13"/>
<polygon fill="#63b8ff" stroke="#63b8ff" points="803.12,-182.67 792.62,-184.08 801.7,-189.53 803.12,-182.67"/>
</a>
</g>
</g>
<!-- Node32 -->
<g id="Node000032" class="node">
<title>Node32</title>
<g id="a_Node000032"><a xlink:href="NodeIndex_8h.html" target="_top" xlink:title=" ">
<polygon fill="white" stroke="#666666" points="1168,-184 1090,-184 1090,-165 1168,-165 1168,-184"/>
<text text-anchor="middle" x="1129" y="-172" font-family="Helvetica,sans-Serif" font-size="10.00">NodeIndex.h</text>
</a>
</g>
</g>
<!-- Node31&#45;&gt;Node32 -->
<g id="edge44_Node000031_Node000032" class="edge">
<title>Node31&#45;&gt;Node32</title>
<g id="a_edge44_Node000031_Node000032"><a xlink:title=" ">
<path fill="none" stroke="#63b8ff" d="M1027.44,-219.98C1046.99,-211.42 1077.38,-198.11 1099.82,-188.28"/>
<polygon fill="#63b8ff" stroke="#63b8ff" points="1101.45,-191.39 1109.21,-184.17 1098.64,-184.98 1101.45,-191.39"/>
</a>
</g>
</g>
<!-- Node33 -->
<g id="Node000033" class="node">
<title>Node33</title>
<g id="a_Node000033"><a xlink:title=" ">
<polygon fill="#e0e0e0" stroke="#999999" points="1072,-184 1022,-184 1022,-165 1072,-165 1072,-184"/>
<text text-anchor="middle" x="1047" y="-172" font-family="Helvetica,sans-Serif" font-size="10.00">cstdint</text>
</a>
</g>
</g>
<!-- Node31&#45;&gt;Node33 -->
<g id="edge47_Node000031_Node000033" class="edge">
<title>Node31&#45;&gt;Node33</title>
<g id="a_edge47_Node000031_Node000033"><a xlink:title=" ">
<path fill="none" stroke="#63b8ff" d="M1014.44,-219.75C1019.89,-212.34 1027.86,-201.5 1034.56,-192.41"/>
<polygon fill="#63b8ff" stroke="#63b8ff" points="1037.57,-194.22 1040.68,-184.09 1031.93,-190.07 1037.57,-194.22"/>
</a>
</g>
</g>
<!-- Node34&#45;&gt;Node12 -->
<g id="edge49_Node000034_Node000012" class="edge">
<title>Node34&#45;&gt;Node12</title>
<g id="a_edge49_Node000034_Node000012"><a xlink:title=" ">
<path fill="none" stroke="#63b8ff" d="M1143.41,-219.98C1160.63,-208.6 1186.06,-187.27 1177,-165 1174.85,-159.71 1122.83,-107.83 1095.88,-81.16"/>
<polygon fill="#63b8ff" stroke="#63b8ff" points="1098.28,-78.61 1088.7,-74.07 1093.36,-83.59 1098.28,-78.61"/>
</a>
</g>
</g>
<!-- Node34&#45;&gt;Node18 -->
<g id="edge54_Node000034_Node000018" class="edge">
<title>Node34&#45;&gt;Node18</title>
<g id="a_edge54_Node000034_Node000018"><a xlink:title=" ">
<path fill="none" stroke="#63b8ff" d="M1087.47,-222.68C1023.59,-213.72 900.45,-196.45 822.17,-185.48"/>
<polygon fill="#63b8ff" stroke="#63b8ff" points="822.3,-181.96 811.91,-184.04 821.32,-188.89 822.3,-181.96"/>
</a>
</g>
</g>
<!-- Node34&#45;&gt;Node32 -->
<g id="edge53_Node000034_Node000032" class="edge">
<title>Node34&#45;&gt;Node32</title>
<g id="a_edge53_Node000034_Node000032"><a xlink:title=" ">
<path fill="none" stroke="#63b8ff" d="M1129,-219.75C1129,-212.8 1129,-202.85 1129,-194.13"/>
<polygon fill="#63b8ff" stroke="#63b8ff" points="1132.5,-194.09 1129,-184.09 1125.5,-194.09 1132.5,-194.09"/>
</a>
</g>
</g>
<!-- Node35 -->
<g id="Node000035" class="node">
<title>Node35</title>
<g id="a_Node000035"><a xlink:href="AABB_8h.html" target="_top" xlink:title=" ">
<polygon fill="white" stroke="#666666" points="1522,-184 1412,-184 1412,-165 1522,-165 1522,-184"/>
<text text-anchor="middle" x="1467" y="-172" font-family="Helvetica,sans-Serif" font-size="10.00">../bounding/AABB.h</text>
</a>
</g>
</g>
<!-- Node34&#45;&gt;Node35 -->
<g id="edge50_Node000034_Node000035" class="edge">
<title>Node34&#45;&gt;Node35</title>
<g id="a_edge50_Node000034_Node000035"><a xlink:title=" ">
<path fill="none" stroke="#63b8ff" d="M1170.78,-221.95C1228.83,-212.85 1334.4,-196.29 1402.57,-185.6"/>
<polygon fill="#63b8ff" stroke="#63b8ff" points="1403.42,-189.01 1412.76,-184.01 1402.34,-182.1 1403.42,-189.01"/>
</a>
</g>
</g>
<!-- Node35&#45;&gt;Node12 -->
<g id="edge51_Node000035_Node000012" class="edge">
<title>Node35&#45;&gt;Node12</title>
<g id="a_edge51_Node000035_Node000012"><a xlink:title=" ">
<path fill="none" stroke="#63b8ff" d="M1411.75,-165.81C1336.47,-155.17 1208.63,-136.41 1188,-129 1154.83,-117.09 1120.39,-94.82 1099.57,-80.07"/>
<polygon fill="#63b8ff" stroke="#63b8ff" points="1101.42,-77.1 1091.27,-74.08 1097.33,-82.77 1101.42,-77.1"/>
</a>
</g>
</g>
<!-- Node35&#45;&gt;Node14 -->
<g id="edge52_Node000035_Node000014" class="edge">
<title>Node35&#45;&gt;Node14</title>
<g id="a_edge52_Node000035_Node000014"><a xlink:title=" ">
<path fill="none" stroke="#63b8ff" d="M1481.62,-164.98C1495.86,-156.69 1517.75,-143.94 1534.45,-134.22"/>
<polygon fill="#63b8ff" stroke="#63b8ff" points="1536.23,-137.23 1543.11,-129.17 1532.71,-131.18 1536.23,-137.23"/>
</a>
</g>
</g>
<!-- Node36&#45;&gt;Node5 -->
<g id="edge57_Node000036_Node000005" class="edge">
<title>Node36&#45;&gt;Node5</title>
<g id="a_edge57_Node000036_Node000005"><a xlink:title=" ">
<path fill="none" stroke="#63b8ff" d="M408.32,-226.86C517.52,-223.17 748.57,-212.2 823,-184 837.75,-178.41 870.86,-152.6 891.71,-135.65"/>
<polygon fill="#63b8ff" stroke="#63b8ff" points="894.04,-138.27 899.55,-129.23 889.6,-132.86 894.04,-138.27"/>
</a>
</g>
</g>
<!-- Node36&#45;&gt;Node7 -->
<g id="edge59_Node000036_Node000007" class="edge">
<title>Node36&#45;&gt;Node7</title>
<g id="a_edge59_Node000036_Node000007"><a xlink:title=" ">
<path fill="none" stroke="#63b8ff" d="M358.59,-219.66C376.29,-201.46 417.04,-159.55 439.48,-136.47"/>
<polygon fill="#63b8ff" stroke="#63b8ff" points="442.12,-138.77 446.58,-129.16 437.1,-133.89 442.12,-138.77"/>
</a>
</g>
</g>
<!-- Node36&#45;&gt;Node12 -->
<g id="edge58_Node000036_Node000012" class="edge">
<title>Node36&#45;&gt;Node12</title>
<g id="a_edge58_Node000036_Node000012"><a xlink:title=" ">
<path fill="none" stroke="#63b8ff" d="M321.09,-219.97C290.66,-209.46 249.42,-189.9 267,-165 309.17,-105.29 350.42,-124.83 422,-110 538.26,-85.92 897.97,-71.65 1030.4,-67.1"/>
<polygon fill="#63b8ff" stroke="#63b8ff" points="1030.77,-70.59 1040.65,-66.75 1030.54,-63.59 1030.77,-70.59"/>
</a>
</g>
</g>
<!-- Node36&#45;&gt;Node18 -->
<g id="edge60_Node000036_Node000018" class="edge">
<title>Node36&#45;&gt;Node18</title>
<g id="a_edge60_Node000036_Node000018"><a xlink:title=" ">
<path fill="none" stroke="#63b8ff" d="M408.31,-220.79C479.72,-211.36 600.7,-195.36 678.16,-185.13"/>
<polygon fill="#63b8ff" stroke="#63b8ff" points="678.87,-188.56 688.33,-183.78 677.95,-181.62 678.87,-188.56"/>
</a>
</g>
</g>
<!-- Node37 -->
<g id="Node000037" class="node">
<title>Node37</title>
<g id="a_Node000037"><a xlink:title=" ">
<polygon fill="#e0e0e0" stroke="#999999" points="369.5,-184 276.5,-184 276.5,-165 369.5,-165 369.5,-184"/>
<text text-anchor="middle" x="323" y="-172" font-family="Helvetica,sans-Serif" font-size="10.00">unordered_map</text>
</a>
</g>
</g>
<!-- Node36&#45;&gt;Node37 -->
<g id="edge56_Node000036_Node000037" class="edge">
<title>Node36&#45;&gt;Node37</title>
<g id="a_edge56_Node000036_Node000037"><a xlink:title=" ">
<path fill="none" stroke="#63b8ff" d="M345.54,-219.75C341.88,-212.57 336.59,-202.18 332.05,-193.27"/>
<polygon fill="#63b8ff" stroke="#63b8ff" points="335.03,-191.41 327.38,-184.09 328.8,-194.59 335.03,-191.41"/>
</a>
</g>
</g>
<!-- Node38&#45;&gt;Node14 -->
<g id="edge63_Node000038_Node000014" class="edge">
<title>Node38&#45;&gt;Node14</title>
<g id="a_edge63_Node000038_Node000014"><a xlink:title=" ">
<path fill="none" stroke="#63b8ff" d="M1632.75,-274.74C1620.27,-248.98 1583.51,-173.13 1566.64,-138.33"/>
<polygon fill="#63b8ff" stroke="#63b8ff" points="1569.78,-136.78 1562.27,-129.31 1563.48,-139.83 1569.78,-136.78"/>
</a>
</g>
</g>
<!-- Node39 -->
<g id="Node000039" class="node">
<title>Node39</title>
<g id="a_Node000039"><a xlink:title=" ">
<polygon fill="#e0e0e0" stroke="#999999" points="1796.5,-239 1665.5,-239 1665.5,-220 1796.5,-220 1796.5,-239"/>
<text text-anchor="middle" x="1731" y="-227" font-family="Helvetica,sans-Serif" font-size="10.00">glm/gtx/quaternion.hpp</text>
</a>
</g>
</g>
<!-- Node38&#45;&gt;Node39 -->
<g id="edge64_Node000038_Node000039" class="edge">
<title>Node38&#45;&gt;Node39</title>
<g id="a_edge64_Node000038_Node000039"><a xlink:title=" ">
<path fill="none" stroke="#63b8ff" d="M1652.1,-274.98C1666.82,-266.69 1689.42,-253.94 1706.67,-244.22"/>
<polygon fill="#63b8ff" stroke="#63b8ff" points="1708.63,-247.13 1715.62,-239.17 1705.19,-241.03 1708.63,-247.13"/>
</a>
</g>
</g>
<!-- Node40&#45;&gt;Node3 -->
<g id="edge67_Node000040_Node000003" class="edge">
<title>Node40&#45;&gt;Node3</title>
<g id="a_edge67_Node000040_Node000003"><a xlink:title=" ">
<path fill="none" stroke="#63b8ff" d="M188.47,-274.98C166.53,-266.3 132.26,-252.75 107.31,-242.88"/>
<polygon fill="#63b8ff" stroke="#63b8ff" points="108.51,-239.59 97.92,-239.17 105.93,-246.1 108.51,-239.59"/>
</a>
</g>
</g>
<!-- Node40&#45;&gt;Node23 -->
<g id="edge68_Node000040_Node000023" class="edge">
<title>Node40&#45;&gt;Node23</title>
<g id="a_edge68_Node000040_Node000023"><a xlink:title=" ">
<path fill="none" stroke="#63b8ff" d="M207.87,-274.72C204.75,-262.32 198.49,-239.07 191,-220 179.37,-190.39 162.35,-157.56 151.73,-138"/>
<polygon fill="#63b8ff" stroke="#63b8ff" points="154.71,-136.14 146.83,-129.06 148.57,-139.51 154.71,-136.14"/>
</a>
</g>
</g>
<!-- Node41 -->
<g id="Node000041" class="node">
<title>Node41</title>
<g id="a_Node000041"><a xlink:title=" ">
<polygon fill="#e0e0e0" stroke="#999999" points="182,-239 118,-239 118,-220 182,-220 182,-239"/>
<text text-anchor="middle" x="150" y="-227" font-family="Helvetica,sans-Serif" font-size="10.00">algorithm</text>
</a>
</g>
</g>
<!-- Node40&#45;&gt;Node41 -->
<g id="edge66_Node000040_Node000041" class="edge">
<title>Node40&#45;&gt;Node41</title>
<g id="a_edge66_Node000040_Node000041"><a xlink:title=" ">
<path fill="none" stroke="#63b8ff" d="M200.36,-274.98C191.49,-267.15 178.13,-255.34 167.39,-245.86"/>
<polygon fill="#63b8ff" stroke="#63b8ff" points="169.63,-243.17 159.82,-239.17 164.99,-248.41 169.63,-243.17"/>
</a>
</g>
</g>
</g>
</svg>
