<?xml version="1.0" encoding="UTF-8" standalone="no"?>
<!DOCTYPE svg PUBLIC "-//W3C//DTD SVG 1.1//EN"
 "http://www.w3.org/Graphics/SVG/1.1/DTD/svg11.dtd">
<!-- Generated by graphviz version 2.43.0 (0)
 -->
<!-- Title: src/physics/PhysicsSystem.h Pages: 1 -->
<svg width="1352pt" height="247pt"
 viewBox="0.00 0.00 1352.00 247.00" xmlns="http://www.w3.org/2000/svg" xmlns:xlink="http://www.w3.org/1999/xlink">
<g id="graph0" class="graph" transform="scale(1 1) rotate(0) translate(4 243)">
<title>src/physics/PhysicsSystem.h</title>
<!-- Node1 -->
<g id="Node000001" class="node">
<title>Node1</title>
<g id="a_Node000001"><a xlink:title=" ">
<polygon fill="#999999" stroke="#666666" points="909,-239 753,-239 753,-220 909,-220 909,-239"/>
<text text-anchor="middle" x="831" y="-227" font-family="Helvetica,sans-Serif" font-size="10.00">src/physics/PhysicsSystem.h</text>
</a>
</g>
</g>
<!-- Node2 -->
<g id="Node000002" class="node">
<title>Node2</title>
<g id="a_Node000002"><a xlink:title=" ">
<polygon fill="#e0e0e0" stroke="#999999" points="332.5,-74 285.5,-74 285.5,-55 332.5,-55 332.5,-74"/>
<text text-anchor="middle" x="309" y="-62" font-family="Helvetica,sans-Serif" font-size="10.00">vector</text>
</a>
</g>
</g>
<!-- Node1&#45;&gt;Node2 -->
<g id="edge1_Node000001_Node000002" class="edge">
<title>Node1&#45;&gt;Node2</title>
<g id="a_edge1_Node000001_Node000002"><a xlink:title=" ">
<path fill="none" stroke="#63b8ff" d="M752.89,-223.2C579.95,-210.64 177,-176.51 139,-129 101.23,-81.76 215.7,-69.66 275.33,-66.57"/>
<polygon fill="#63b8ff" stroke="#63b8ff" points="275.6,-70.06 285.43,-66.1 275.28,-63.06 275.6,-70.06"/>
</a>
</g>
</g>
<!-- Node3 -->
<g id="Node000003" class="node">
<title>Node3</title>
<g id="a_Node000003"><a xlink:title=" ">
<polygon fill="#e0e0e0" stroke="#999999" points="828,-74 778,-74 778,-55 828,-55 828,-74"/>
<text text-anchor="middle" x="803" y="-62" font-family="Helvetica,sans-Serif" font-size="10.00">atomic</text>
</a>
</g>
</g>
<!-- Node1&#45;&gt;Node3 -->
<g id="edge2_Node000001_Node000003" class="edge">
<title>Node1&#45;&gt;Node3</title>
<g id="a_edge2_Node000001_Node000003"><a xlink:title=" ">
<path fill="none" stroke="#63b8ff" d="M823.88,-219.97C817.27,-211.47 807.9,-197.73 804,-184 794.28,-149.82 797.22,-107.81 800.17,-84.1"/>
<polygon fill="#63b8ff" stroke="#63b8ff" points="803.65,-84.44 801.55,-74.05 796.72,-83.48 803.65,-84.44"/>
</a>
</g>
</g>
<!-- Node4 -->
<g id="Node000004" class="node">
<title>Node4</title>
<g id="a_Node000004"><a xlink:title=" ">
<polygon fill="#e0e0e0" stroke="#999999" points="144,-74 96,-74 96,-55 144,-55 144,-74"/>
<text text-anchor="middle" x="120" y="-62" font-family="Helvetica,sans-Serif" font-size="10.00">mutex</text>
</a>
</g>
</g>
<!-- Node1&#45;&gt;Node4 -->
<g id="edge3_Node000001_Node000004" class="edge">
<title>Node1&#45;&gt;Node4</title>
<g id="a_edge3_Node000001_Node000004"><a xlink:title=" ">
<path fill="none" stroke="#63b8ff" d="M752.94,-225.99C616.53,-221.04 340.43,-208.3 247,-184 190.61,-169.33 162.4,-176.02 128,-129 118.67,-116.25 117.24,-98.07 117.81,-84.43"/>
<polygon fill="#63b8ff" stroke="#63b8ff" points="121.31,-84.51 118.63,-74.26 114.33,-83.95 121.31,-84.51"/>
</a>
</g>
</g>
<!-- Node5 -->
<g id="Node000005" class="node">
<title>Node5</title>
<g id="a_Node000005"><a xlink:title=" ">
<polygon fill="#e0e0e0" stroke="#999999" points="1086,-184 1038,-184 1038,-165 1086,-165 1086,-184"/>
<text text-anchor="middle" x="1062" y="-172" font-family="Helvetica,sans-Serif" font-size="10.00">thread</text>
</a>
</g>
</g>
<!-- Node1&#45;&gt;Node5 -->
<g id="edge4_Node000001_Node000005" class="edge">
<title>Node1&#45;&gt;Node5</title>
<g id="a_edge4_Node000001_Node000005"><a xlink:title=" ">
<path fill="none" stroke="#63b8ff" d="M868.11,-219.98C912.18,-209.87 985.07,-193.15 1027.81,-183.34"/>
<polygon fill="#63b8ff" stroke="#63b8ff" points="1028.77,-186.72 1037.73,-181.07 1027.2,-179.89 1028.77,-186.72"/>
</a>
</g>
</g>
<!-- Node6 -->
<g id="Node000006" class="node">
<title>Node6</title>
<g id="a_Node000006"><a xlink:title=" ">
<polygon fill="#e0e0e0" stroke="#999999" points="1211.5,-184 1104.5,-184 1104.5,-165 1211.5,-165 1211.5,-184"/>
<text text-anchor="middle" x="1158" y="-172" font-family="Helvetica,sans-Serif" font-size="10.00">condition_variable</text>
</a>
</g>
</g>
<!-- Node1&#45;&gt;Node6 -->
<g id="edge5_Node000001_Node000006" class="edge">
<title>Node1&#45;&gt;Node6</title>
<g id="a_edge5_Node000001_Node000006"><a xlink:title=" ">
<path fill="none" stroke="#63b8ff" d="M883.54,-219.98C941.26,-210.63 1033.91,-195.61 1095.36,-185.65"/>
<polygon fill="#63b8ff" stroke="#63b8ff" points="1096.01,-189.09 1105.32,-184.04 1094.89,-182.18 1096.01,-189.09"/>
</a>
</g>
</g>
<!-- Node7 -->
<g id="Node000007" class="node">
<title>Node7</title>
<g id="a_Node000007"><a xlink:title=" ">
<polygon fill="#e0e0e0" stroke="#999999" points="56,-74 0,-74 0,-55 56,-55 56,-74"/>
<text text-anchor="middle" x="28" y="-62" font-family="Helvetica,sans-Serif" font-size="10.00">optional</text>
</a>
</g>
</g>
<!-- Node1&#45;&gt;Node7 -->
<g id="edge6_Node000001_Node000007" class="edge">
<title>Node1&#45;&gt;Node7</title>
<g id="a_edge6_Node000001_Node000007"><a xlink:title=" ">
<path fill="none" stroke="#63b8ff" d="M752.76,-229.36C600.72,-230.04 271.14,-226.37 167,-184 112.14,-161.68 63.33,-108.84 40.96,-81.91"/>
<polygon fill="#63b8ff" stroke="#63b8ff" points="43.67,-79.7 34.65,-74.14 38.24,-84.11 43.67,-79.7"/>
</a>
</g>
</g>
<!-- Node8 -->
<g id="Node000008" class="node">
<title>Node8</title>
<g id="a_Node000008"><a xlink:href="RigidBody_8h.html" target="_top" xlink:title=" ">
<polygon fill="white" stroke="#666666" points="466,-184 392,-184 392,-165 466,-165 466,-184"/>
<text text-anchor="middle" x="429" y="-172" font-family="Helvetica,sans-Serif" font-size="10.00">RigidBody.h</text>
</a>
</g>
</g>
<!-- Node1&#45;&gt;Node8 -->
<g id="edge7_Node000001_Node000008" class="edge">
<title>Node1&#45;&gt;Node8</title>
<g id="a_edge7_Node000001_Node000008"><a xlink:title=" ">
<path fill="none" stroke="#63b8ff" d="M766.41,-219.98C685.29,-209.29 548.02,-191.19 476.13,-181.71"/>
<polygon fill="#63b8ff" stroke="#63b8ff" points="476.38,-178.22 466.01,-180.38 475.46,-185.16 476.38,-178.22"/>
</a>
</g>
</g>
<!-- Node19 -->
<g id="Node000019" class="node">
<title>Node19</title>
<g id="a_Node000019"><a xlink:href="Constants_8h.html" target="_top" xlink:title=" ">
<polygon fill="white" stroke="#666666" points="1344,-184 1230,-184 1230,-165 1344,-165 1344,-184"/>
<text text-anchor="middle" x="1287" y="-172" font-family="Helvetica,sans-Serif" font-size="10.00">physics/Constants.h</text>
</a>
</g>
</g>
<!-- Node1&#45;&gt;Node19 -->
<g id="edge26_Node000001_Node000019" class="edge">
<title>Node1&#45;&gt;Node19</title>
<g id="a_edge26_Node000001_Node000019"><a xlink:title=" ">
<path fill="none" stroke="#63b8ff" d="M908.73,-219.97C985.25,-211.49 1105.7,-197.94 1219.81,-184.13"/>
<polygon fill="#63b8ff" stroke="#63b8ff" points="1220.26,-187.6 1229.77,-182.92 1219.42,-180.65 1220.26,-187.6"/>
</a>
</g>
</g>
<!-- Node20 -->
<g id="Node000020" class="node">
<title>Node20</title>
<g id="a_Node000020"><a xlink:href="OneUnknownSolver_8h.html" target="_top" xlink:title=" ">
<polygon fill="white" stroke="#666666" points="1187,-129 1033,-129 1033,-110 1187,-110 1187,-129"/>
<text text-anchor="middle" x="1110" y="-117" font-family="Helvetica,sans-Serif" font-size="10.00">solver/OneUnknownSolver.h</text>
</a>
</g>
</g>
<!-- Node1&#45;&gt;Node20 -->
<g id="edge27_Node000001_Node000020" class="edge">
<title>Node1&#45;&gt;Node20</title>
<g id="a_edge27_Node000001_Node000020"><a xlink:title=" ">
<path fill="none" stroke="#63b8ff" d="M861.41,-219.99C890.01,-211.71 933.88,-198.32 971,-184 1011.08,-168.54 1056.06,-147.24 1083.71,-133.66"/>
<polygon fill="#63b8ff" stroke="#63b8ff" points="1085.32,-136.77 1092.74,-129.21 1082.22,-130.5 1085.32,-136.77"/>
</a>
</g>
</g>
<!-- Node22 -->
<g id="Node000022" class="node">
<title>Node22</title>
<g id="a_Node000022"><a xlink:href="ProblemRouter_8h.html" target="_top" xlink:title=" ">
<polygon fill="white" stroke="#666666" points="943.5,-184 812.5,-184 812.5,-165 943.5,-165 943.5,-184"/>
<text text-anchor="middle" x="878" y="-172" font-family="Helvetica,sans-Serif" font-size="10.00">solver/ProblemRouter.h</text>
</a>
</g>
</g>
<!-- Node1&#45;&gt;Node22 -->
<g id="edge29_Node000001_Node000022" class="edge">
<title>Node1&#45;&gt;Node22</title>
<g id="a_edge29_Node000001_Node000022"><a xlink:title=" ">
<path fill="none" stroke="#63b8ff" d="M838.76,-219.75C845.47,-212.18 855.34,-201.05 863.51,-191.84"/>
<polygon fill="#63b8ff" stroke="#63b8ff" points="866.37,-193.89 870.38,-184.09 861.13,-189.25 866.37,-193.89"/>
</a>
</g>
</g>
<!-- Node23 -->
<g id="Node000023" class="node">
<title>Node23</title>
<g id="a_Node000023"><a xlink:href="VectorRootSolver_8h.html" target="_top" xlink:title=" ">
<polygon fill="white" stroke="#666666" points="1014.5,-129 905.5,-129 905.5,-110 1014.5,-110 1014.5,-129"/>
<text text-anchor="middle" x="960" y="-117" font-family="Helvetica,sans-Serif" font-size="10.00">VectorRootSolver.h</text>
</a>
</g>
</g>
<!-- Node1&#45;&gt;Node23 -->
<g id="edge42_Node000001_Node000023" class="edge">
<title>Node1&#45;&gt;Node23</title>
<g id="a_edge42_Node000001_Node000023"><a xlink:title=" ">
<path fill="none" stroke="#63b8ff" d="M892.38,-219.93C914.79,-213.66 938.25,-202.8 953,-184 962.74,-171.59 963.82,-153.38 962.85,-139.64"/>
<polygon fill="#63b8ff" stroke="#63b8ff" points="966.29,-138.92 961.71,-129.37 959.34,-139.7 966.29,-138.92"/>
</a>
</g>
</g>
<!-- Node25 -->
<g id="Node000025" class="node">
<title>Node25</title>
<g id="a_Node000025"><a xlink:href="Octree_8h.html" target="_top" xlink:title=" ">
<polygon fill="white" stroke="#666666" points="756,-184 662,-184 662,-165 756,-165 756,-184"/>
<text text-anchor="middle" x="709" y="-172" font-family="Helvetica,sans-Serif" font-size="10.00">spatial/Octree.h</text>
</a>
</g>
</g>
<!-- Node1&#45;&gt;Node25 -->
<g id="edge37_Node000001_Node000025" class="edge">
<title>Node1&#45;&gt;Node25</title>
<g id="a_edge37_Node000001_Node000025"><a xlink:title=" ">
<path fill="none" stroke="#63b8ff" d="M811.4,-219.98C791.68,-211.42 761.05,-198.11 738.42,-188.28"/>
<polygon fill="#63b8ff" stroke="#63b8ff" points="739.52,-184.94 728.96,-184.17 736.74,-191.37 739.52,-184.94"/>
</a>
</g>
</g>
<!-- Node8&#45;&gt;Node2 -->
<g id="edge9_Node000008_Node000002" class="edge">
<title>Node8&#45;&gt;Node2</title>
<g id="a_edge9_Node000008_Node000002"><a xlink:title=" ">
<path fill="none" stroke="#63b8ff" d="M392.58,-164.99C371.68,-158.38 346.41,-147.19 330,-129 318.94,-116.74 313.69,-98.51 311.2,-84.72"/>
<polygon fill="#63b8ff" stroke="#63b8ff" points="314.61,-83.81 309.7,-74.42 307.68,-84.82 314.61,-83.81"/>
</a>
</g>
</g>
<!-- Node8&#45;&gt;Node4 -->
<g id="edge8_Node000008_Node000004" class="edge">
<title>Node8&#45;&gt;Node4</title>
<g id="a_edge8_Node000008_Node000004"><a xlink:title=" ">
<path fill="none" stroke="#63b8ff" d="M391.96,-172.61C322.46,-170.2 176.13,-161.31 139,-129 126.4,-118.03 121.98,-99.08 120.51,-84.73"/>
<polygon fill="#63b8ff" stroke="#63b8ff" points="123.99,-84.21 119.87,-74.44 117,-84.64 123.99,-84.21"/>
</a>
</g>
</g>
<!-- Node9 -->
<g id="Node000009" class="node">
<title>Node9</title>
<g id="a_Node000009"><a xlink:title=" ">
<polygon fill="#e0e0e0" stroke="#999999" points="758,-74 680,-74 680,-55 758,-55 758,-74"/>
<text text-anchor="middle" x="719" y="-62" font-family="Helvetica,sans-Serif" font-size="10.00">glm/glm.hpp</text>
</a>
</g>
</g>
<!-- Node8&#45;&gt;Node9 -->
<g id="edge10_Node000008_Node000009" class="edge">
<title>Node8&#45;&gt;Node9</title>
<g id="a_edge10_Node000008_Node000009"><a xlink:title=" ">
<path fill="none" stroke="#63b8ff" d="M466.1,-170.7C509.18,-166.31 581.54,-155.4 638,-129 663.13,-117.25 687.57,-96.4 702.91,-81.81"/>
<polygon fill="#63b8ff" stroke="#63b8ff" points="705.75,-83.93 710.45,-74.44 700.85,-78.93 705.75,-83.93"/>
</a>
</g>
</g>
<!-- Node10 -->
<g id="Node000010" class="node">
<title>Node10</title>
<g id="a_Node000010"><a xlink:title=" ">
<polygon fill="#e0e0e0" stroke="#999999" points="278,-129 148,-129 148,-110 278,-110 278,-129"/>
<text text-anchor="middle" x="213" y="-117" font-family="Helvetica,sans-Serif" font-size="10.00">glm/gtc/quaternion.hpp</text>
</a>
</g>
</g>
<!-- Node8&#45;&gt;Node10 -->
<g id="edge11_Node000008_Node000010" class="edge">
<title>Node8&#45;&gt;Node10</title>
<g id="a_edge11_Node000008_Node000010"><a xlink:title=" ">
<path fill="none" stroke="#63b8ff" d="M394.3,-164.98C357.25,-155.89 298.41,-141.46 257.87,-131.51"/>
<polygon fill="#63b8ff" stroke="#63b8ff" points="258.52,-128.07 247.98,-129.08 256.85,-134.86 258.52,-128.07"/>
</a>
</g>
</g>
<!-- Node11 -->
<g id="Node000011" class="node">
<title>Node11</title>
<g id="a_Node000011"><a xlink:href="ICollider_8h.html" target="_top" xlink:title="Abstract interface for collision detection shapes.">
<polygon fill="white" stroke="#666666" points="485.5,-129 372.5,-129 372.5,-110 485.5,-110 485.5,-129"/>
<text text-anchor="middle" x="429" y="-117" font-family="Helvetica,sans-Serif" font-size="10.00">bounding/ICollider.h</text>
</a>
</g>
</g>
<!-- Node8&#45;&gt;Node11 -->
<g id="edge12_Node000008_Node000011" class="edge">
<title>Node8&#45;&gt;Node11</title>
<g id="a_edge12_Node000008_Node000011"><a xlink:title=" ">
<path fill="none" stroke="#63b8ff" d="M429,-164.75C429,-157.8 429,-147.85 429,-139.13"/>
<polygon fill="#63b8ff" stroke="#63b8ff" points="432.5,-139.09 429,-129.09 425.5,-139.09 432.5,-139.09"/>
</a>
</g>
</g>
<!-- Node15 -->
<g id="Node000015" class="node">
<title>Node15</title>
<g id="a_Node000015"><a xlink:href="PhysicsBody_8h.html" target="_top" xlink:title=" ">
<polygon fill="white" stroke="#666666" points="628.5,-129 503.5,-129 503.5,-110 628.5,-110 628.5,-129"/>
<text text-anchor="middle" x="566" y="-117" font-family="Helvetica,sans-Serif" font-size="10.00">physics/PhysicsBody.h</text>
</a>
</g>
</g>
<!-- Node8&#45;&gt;Node15 -->
<g id="edge18_Node000008_Node000015" class="edge">
<title>Node8&#45;&gt;Node15</title>
<g id="a_edge18_Node000008_Node000015"><a xlink:title=" ">
<path fill="none" stroke="#63b8ff" d="M451.01,-164.98C473.45,-156.3 508.48,-142.75 533.99,-132.88"/>
<polygon fill="#63b8ff" stroke="#63b8ff" points="535.52,-136.04 543.59,-129.17 533,-129.51 535.52,-136.04"/>
</a>
</g>
</g>
<!-- Node11&#45;&gt;Node7 -->
<g id="edge15_Node000011_Node000007" class="edge">
<title>Node11&#45;&gt;Node7</title>
<g id="a_edge15_Node000011_Node000007"><a xlink:title=" ">
<path fill="none" stroke="#63b8ff" d="M372.39,-111.37C304.53,-102.78 187.4,-87.76 87,-74 80.25,-73.07 73.07,-72.06 66.12,-71.07"/>
<polygon fill="#63b8ff" stroke="#63b8ff" points="66.6,-67.6 56.2,-69.64 65.6,-74.53 66.6,-67.6"/>
</a>
</g>
</g>
<!-- Node11&#45;&gt;Node9 -->
<g id="edge13_Node000011_Node000009" class="edge">
<title>Node11&#45;&gt;Node9</title>
<g id="a_edge13_Node000011_Node000009"><a xlink:title=" ">
<path fill="none" stroke="#63b8ff" d="M475.59,-109.98C528.84,-100.25 615.61,-84.4 669.89,-74.48"/>
<polygon fill="#63b8ff" stroke="#63b8ff" points="670.75,-77.88 679.96,-72.63 669.49,-70.99 670.75,-77.88"/>
</a>
</g>
</g>
<!-- Node12 -->
<g id="Node000012" class="node">
<title>Node12</title>
<g id="a_Node000012"><a xlink:title=" ">
<polygon fill="#e0e0e0" stroke="#999999" points="662,-74 604,-74 604,-55 662,-55 662,-74"/>
<text text-anchor="middle" x="633" y="-62" font-family="Helvetica,sans-Serif" font-size="10.00">memory</text>
</a>
</g>
</g>
<!-- Node11&#45;&gt;Node12 -->
<g id="edge14_Node000011_Node000012" class="edge">
<title>Node11&#45;&gt;Node12</title>
<g id="a_edge14_Node000011_Node000012"><a xlink:title=" ">
<path fill="none" stroke="#63b8ff" d="M461.78,-109.98C497.86,-100.61 555.83,-85.55 594.16,-75.59"/>
<polygon fill="#63b8ff" stroke="#63b8ff" points="595.14,-78.95 603.94,-73.05 593.38,-72.18 595.14,-78.95"/>
</a>
</g>
</g>
<!-- Node13 -->
<g id="Node000013" class="node">
<title>Node13</title>
<g id="a_Node000013"><a xlink:href="Ray_8h.html" target="_top" xlink:title=" ">
<polygon fill="white" stroke="#666666" points="425.5,-74 354.5,-74 354.5,-55 425.5,-55 425.5,-74"/>
<text text-anchor="middle" x="390" y="-62" font-family="Helvetica,sans-Serif" font-size="10.00">math/Ray.h</text>
</a>
</g>
</g>
<!-- Node11&#45;&gt;Node13 -->
<g id="edge16_Node000011_Node000013" class="edge">
<title>Node11&#45;&gt;Node13</title>
<g id="a_edge16_Node000011_Node000013"><a xlink:title=" ">
<path fill="none" stroke="#63b8ff" d="M422.56,-109.75C417.11,-102.34 409.14,-91.5 402.44,-82.41"/>
<polygon fill="#63b8ff" stroke="#63b8ff" points="405.07,-80.07 396.32,-74.09 399.43,-84.22 405.07,-80.07"/>
</a>
</g>
</g>
<!-- Node14 -->
<g id="Node000014" class="node">
<title>Node14</title>
<g id="a_Node000014"><a xlink:title=" ">
<polygon fill="#e0e0e0" stroke="#999999" points="431.5,-19 348.5,-19 348.5,0 431.5,0 431.5,-19"/>
<text text-anchor="middle" x="390" y="-7" font-family="Helvetica,sans-Serif" font-size="10.00">glm/vec3.hpp</text>
</a>
</g>
</g>
<!-- Node13&#45;&gt;Node14 -->
<g id="edge17_Node000013_Node000014" class="edge">
<title>Node13&#45;&gt;Node14</title>
<g id="a_edge17_Node000013_Node000014"><a xlink:title=" ">
<path fill="none" stroke="#63b8ff" d="M390,-54.75C390,-47.8 390,-37.85 390,-29.13"/>
<polygon fill="#63b8ff" stroke="#63b8ff" points="393.5,-29.09 390,-19.09 386.5,-29.09 393.5,-29.09"/>
</a>
</g>
</g>
<!-- Node15&#45;&gt;Node2 -->
<g id="edge22_Node000015_Node000002" class="edge">
<title>Node15&#45;&gt;Node2</title>
<g id="a_edge22_Node000015_Node000002"><a xlink:title=" ">
<path fill="none" stroke="#63b8ff" d="M521.46,-109.98C476.77,-101.33 405.98,-87.34 345,-74 344.25,-73.84 343.49,-73.67 342.72,-73.5"/>
<polygon fill="#63b8ff" stroke="#63b8ff" points="343.13,-70 332.6,-71.19 341.57,-76.83 343.13,-70"/>
</a>
</g>
</g>
<!-- Node15&#45;&gt;Node3 -->
<g id="edge19_Node000015_Node000003" class="edge">
<title>Node15&#45;&gt;Node3</title>
<g id="a_edge19_Node000015_Node000003"><a xlink:title=" ">
<path fill="none" stroke="#63b8ff" d="M605.32,-109.96C645.87,-101.12 710.91,-86.83 767,-74 767.33,-73.92 767.66,-73.85 767.99,-73.77"/>
<polygon fill="#63b8ff" stroke="#63b8ff" points="768.88,-77.16 777.83,-71.49 767.3,-70.34 768.88,-77.16"/>
</a>
</g>
</g>
<!-- Node15&#45;&gt;Node4 -->
<g id="edge24_Node000015_Node000004" class="edge">
<title>Node15&#45;&gt;Node4</title>
<g id="a_edge24_Node000015_Node000004"><a xlink:title=" ">
<path fill="none" stroke="#63b8ff" d="M503.28,-110.99C500.48,-110.65 497.71,-110.32 495,-110 369.51,-95.04 220.38,-77.38 154.36,-69.57"/>
<polygon fill="#63b8ff" stroke="#63b8ff" points="154.47,-66.05 144.13,-68.35 153.65,-73.01 154.47,-66.05"/>
</a>
</g>
</g>
<!-- Node15&#45;&gt;Node9 -->
<g id="edge21_Node000015_Node000009" class="edge">
<title>Node15&#45;&gt;Node9</title>
<g id="a_edge21_Node000015_Node000009"><a xlink:title=" ">
<path fill="none" stroke="#63b8ff" d="M590.58,-109.98C616.05,-101.16 656.04,-87.31 684.63,-77.41"/>
<polygon fill="#63b8ff" stroke="#63b8ff" points="685.92,-80.66 694.23,-74.08 683.63,-74.05 685.92,-80.66"/>
</a>
</g>
</g>
<!-- Node16 -->
<g id="Node000016" class="node">
<title>Node16</title>
<g id="a_Node000016"><a xlink:title=" ">
<polygon fill="#e0e0e0" stroke="#999999" points="893,-74 849,-74 849,-55 893,-55 893,-74"/>
<text text-anchor="middle" x="871" y="-62" font-family="Helvetica,sans-Serif" font-size="10.00">string</text>
</a>
</g>
</g>
<!-- Node15&#45;&gt;Node16 -->
<g id="edge20_Node000015_Node000016" class="edge">
<title>Node15&#45;&gt;Node16</title>
<g id="a_edge20_Node000015_Node000016"><a xlink:title=" ">
<path fill="none" stroke="#63b8ff" d="M626.81,-109.98C681.9,-101.91 765.21,-88.84 837,-74 837.6,-73.88 838.2,-73.75 838.8,-73.62"/>
<polygon fill="#63b8ff" stroke="#63b8ff" points="839.78,-76.99 848.75,-71.34 838.22,-70.16 839.78,-76.99"/>
</a>
</g>
</g>
<!-- Node17 -->
<g id="Node000017" class="node">
<title>Node17</title>
<g id="a_Node000017"><a xlink:title=" ">
<polygon fill="#e0e0e0" stroke="#999999" points="586,-74 548,-74 548,-55 586,-55 586,-74"/>
<text text-anchor="middle" x="567" y="-62" font-family="Helvetica,sans-Serif" font-size="10.00">map</text>
</a>
</g>
</g>
<!-- Node15&#45;&gt;Node17 -->
<g id="edge23_Node000015_Node000017" class="edge">
<title>Node15&#45;&gt;Node17</title>
<g id="a_edge23_Node000015_Node000017"><a xlink:title=" ">
<path fill="none" stroke="#63b8ff" d="M566.17,-109.75C566.3,-102.8 566.48,-92.85 566.65,-84.13"/>
<polygon fill="#63b8ff" stroke="#63b8ff" points="570.15,-84.15 566.84,-74.09 563.15,-84.02 570.15,-84.15"/>
</a>
</g>
</g>
<!-- Node18 -->
<g id="Node000018" class="node">
<title>Node18</title>
<g id="a_Node000018"><a xlink:title=" ">
<polygon fill="#e0e0e0" stroke="#999999" points="530,-74 444,-74 444,-55 530,-55 530,-74"/>
<text text-anchor="middle" x="487" y="-62" font-family="Helvetica,sans-Serif" font-size="10.00">unordered_set</text>
</a>
</g>
</g>
<!-- Node15&#45;&gt;Node18 -->
<g id="edge25_Node000015_Node000018" class="edge">
<title>Node15&#45;&gt;Node18</title>
<g id="a_edge25_Node000015_Node000018"><a xlink:title=" ">
<path fill="none" stroke="#63b8ff" d="M553.31,-109.98C541.17,-101.84 522.64,-89.41 508.25,-79.76"/>
<polygon fill="#63b8ff" stroke="#63b8ff" points="510.18,-76.84 499.92,-74.17 506.28,-82.65 510.18,-76.84"/>
</a>
</g>
</g>
<!-- Node21 -->
<g id="Node000021" class="node">
<title>Node21</title>
<g id="a_Node000021"><a xlink:title=" ">
<polygon fill="#e0e0e0" stroke="#999999" points="1107.5,-74 1042.5,-74 1042.5,-55 1107.5,-55 1107.5,-74"/>
<text text-anchor="middle" x="1075" y="-62" font-family="Helvetica,sans-Serif" font-size="10.00">functional</text>
</a>
</g>
</g>
<!-- Node20&#45;&gt;Node21 -->
<g id="edge28_Node000020_Node000021" class="edge">
<title>Node20&#45;&gt;Node21</title>
<g id="a_edge28_Node000020_Node000021"><a xlink:title=" ">
<path fill="none" stroke="#63b8ff" d="M1104.22,-109.75C1099.38,-102.42 1092.32,-91.73 1086.36,-82.7"/>
<polygon fill="#63b8ff" stroke="#63b8ff" points="1089.1,-80.5 1080.67,-74.09 1083.26,-84.36 1089.1,-80.5"/>
</a>
</g>
</g>
<!-- Node22&#45;&gt;Node12 -->
<g id="edge31_Node000022_Node000012" class="edge">
<title>Node22&#45;&gt;Node12</title>
<g id="a_edge31_Node000022_Node000012"><a xlink:title=" ">
<path fill="none" stroke="#63b8ff" d="M860.81,-164.94C835.46,-152.41 786.46,-128.55 744,-110 717.65,-98.49 687.32,-86.41 665.03,-77.74"/>
<polygon fill="#63b8ff" stroke="#63b8ff" points="666.29,-74.48 655.7,-74.13 663.77,-81.01 666.29,-74.48"/>
</a>
</g>
</g>
<!-- Node22&#45;&gt;Node16 -->
<g id="edge30_Node000022_Node000016" class="edge">
<title>Node22&#45;&gt;Node16</title>
<g id="a_edge30_Node000022_Node000016"><a xlink:title=" ">
<path fill="none" stroke="#63b8ff" d="M877.43,-164.66C876.29,-147.17 873.74,-107.8 872.22,-84.27"/>
<polygon fill="#63b8ff" stroke="#63b8ff" points="875.7,-83.91 871.56,-74.16 868.72,-84.36 875.7,-83.91"/>
</a>
</g>
</g>
<!-- Node22&#45;&gt;Node20 -->
<g id="edge32_Node000022_Node000020" class="edge">
<title>Node22&#45;&gt;Node20</title>
<g id="a_edge32_Node000022_Node000020"><a xlink:title=" ">
<path fill="none" stroke="#63b8ff" d="M915.27,-164.98C955.32,-155.84 1019.07,-141.27 1062.64,-131.32"/>
<polygon fill="#63b8ff" stroke="#63b8ff" points="1063.46,-134.72 1072.43,-129.08 1061.9,-127.9 1063.46,-134.72"/>
</a>
</g>
</g>
<!-- Node22&#45;&gt;Node23 -->
<g id="edge33_Node000022_Node000023" class="edge">
<title>Node22&#45;&gt;Node23</title>
<g id="a_edge33_Node000022_Node000023"><a xlink:title=" ">
<path fill="none" stroke="#63b8ff" d="M891.17,-164.98C903.77,-156.84 923,-144.41 937.94,-134.76"/>
<polygon fill="#63b8ff" stroke="#63b8ff" points="940.09,-137.54 946.59,-129.17 936.29,-131.66 940.09,-137.54"/>
</a>
</g>
</g>
<!-- Node23&#45;&gt;Node9 -->
<g id="edge35_Node000023_Node000009" class="edge">
<title>Node23&#45;&gt;Node9</title>
<g id="a_edge35_Node000023_Node000009"><a xlink:title=" ">
<path fill="none" stroke="#63b8ff" d="M921.28,-109.98C879.59,-100.82 813.18,-86.21 767.91,-76.26"/>
<polygon fill="#63b8ff" stroke="#63b8ff" points="768.54,-72.81 758.02,-74.08 767.04,-79.65 768.54,-72.81"/>
</a>
</g>
</g>
<!-- Node23&#45;&gt;Node21 -->
<g id="edge34_Node000023_Node000021" class="edge">
<title>Node23&#45;&gt;Node21</title>
<g id="a_edge34_Node000023_Node000021"><a xlink:title=" ">
<path fill="none" stroke="#63b8ff" d="M978.48,-109.98C996.98,-101.46 1025.68,-88.23 1046.98,-78.41"/>
<polygon fill="#63b8ff" stroke="#63b8ff" points="1048.57,-81.53 1056.19,-74.17 1045.64,-75.18 1048.57,-81.53"/>
</a>
</g>
</g>
<!-- Node24 -->
<g id="Node000024" class="node">
<title>Node24</title>
<g id="a_Node000024"><a xlink:href="ISolver_8h.html" target="_top" xlink:title="Abstract interface for numerical solvers.">
<polygon fill="white" stroke="#666666" points="989.5,-74 930.5,-74 930.5,-55 989.5,-55 989.5,-74"/>
<text text-anchor="middle" x="960" y="-62" font-family="Helvetica,sans-Serif" font-size="10.00">ISolver.h</text>
</a>
</g>
</g>
<!-- Node23&#45;&gt;Node24 -->
<g id="edge36_Node000023_Node000024" class="edge">
<title>Node23&#45;&gt;Node24</title>
<g id="a_edge36_Node000023_Node000024"><a xlink:title=" ">
<path fill="none" stroke="#63b8ff" d="M960,-109.75C960,-102.8 960,-92.85 960,-84.13"/>
<polygon fill="#63b8ff" stroke="#63b8ff" points="963.5,-84.09 960,-74.09 956.5,-84.09 963.5,-84.09"/>
</a>
</g>
</g>
<!-- Node25&#45;&gt;Node2 -->
<g id="edge40_Node000025_Node000002" class="edge">
<title>Node25&#45;&gt;Node2</title>
<g id="a_edge40_Node000025_Node000002"><a xlink:title=" ">
<path fill="none" stroke="#63b8ff" d="M661.95,-171.62C579.67,-167.66 413.58,-156.43 363,-129 343.59,-118.47 328.14,-97.94 318.82,-83.06"/>
<polygon fill="#63b8ff" stroke="#63b8ff" points="321.71,-81.08 313.6,-74.27 315.69,-84.65 321.71,-81.08"/>
</a>
</g>
</g>
<!-- Node25&#45;&gt;Node9 -->
<g id="edge39_Node000025_Node000009" class="edge">
<title>Node25&#45;&gt;Node9</title>
<g id="a_edge39_Node000025_Node000009"><a xlink:title=" ">
<path fill="none" stroke="#63b8ff" d="M718.88,-164.75C727.39,-156.5 739.05,-143.3 744,-129 749.55,-112.96 741.06,-94.99 732.51,-82.27"/>
<polygon fill="#63b8ff" stroke="#63b8ff" points="735.21,-80.03 726.47,-74.04 729.56,-84.18 735.21,-80.03"/>
</a>
</g>
</g>
<!-- Node25&#45;&gt;Node15 -->
<g id="edge38_Node000025_Node000015" class="edge">
<title>Node25&#45;&gt;Node15</title>
<g id="a_edge38_Node000025_Node000015"><a xlink:title=" ">
<path fill="none" stroke="#63b8ff" d="M686.02,-164.98C662.5,-156.27 625.71,-142.63 599.06,-132.75"/>
<polygon fill="#63b8ff" stroke="#63b8ff" points="599.99,-129.36 589.39,-129.17 597.55,-135.93 599.99,-129.36"/>
</a>
</g>
</g>
<!-- Node26 -->
<g id="Node000026" class="node">
<title>Node26</title>
<g id="a_Node000026"><a xlink:title=" ">
<polygon fill="#e0e0e0" stroke="#999999" points="735,-129 685,-129 685,-110 735,-110 735,-129"/>
<text text-anchor="middle" x="710" y="-117" font-family="Helvetica,sans-Serif" font-size="10.00">cstdint</text>
</a>
</g>
</g>
<!-- Node25&#45;&gt;Node26 -->
<g id="edge41_Node000025_Node000026" class="edge">
<title>Node25&#45;&gt;Node26</title>
<g id="a_edge41_Node000025_Node000026"><a xlink:title=" ">
<path fill="none" stroke="#63b8ff" d="M709.17,-164.75C709.3,-157.8 709.48,-147.85 709.65,-139.13"/>
<polygon fill="#63b8ff" stroke="#63b8ff" points="713.15,-139.15 709.84,-129.09 706.15,-139.02 713.15,-139.15"/>
</a>
</g>
</g>
</g>
</svg>
