<?xml version="1.0" encoding="UTF-8" standalone="no"?>
<!DOCTYPE svg PUBLIC "-//W3C//DTD SVG 1.1//EN"
 "http://www.w3.org/Graphics/SVG/1.1/DTD/svg11.dtd">
<!-- Generated by graphviz version 2.43.0 (0)
 -->
<!-- Title: TEST Pages: 1 -->
<svg width="603pt" height="134pt"
 viewBox="0.00 0.00 603.00 134.00" xmlns="http://www.w3.org/2000/svg" xmlns:xlink="http://www.w3.org/1999/xlink">
<g id="graph0" class="graph" transform="scale(1 1) rotate(0) translate(4 130)">
<title>TEST</title>
<!-- Node1 -->
<g id="Node000001" class="node">
<title>Node1</title>
<g id="a_Node000001"><a xlink:title=" ">
<polygon fill="#999999" stroke="#666666" points="41,-72.5 0,-72.5 0,-53.5 41,-53.5 41,-72.5"/>
<text text-anchor="middle" x="20.5" y="-60.5" font-family="Helvetica,sans-Serif" font-size="10.00">TEST</text>
</a>
</g>
</g>
<!-- Node2 -->
<g id="Node000002" class="node">
<title>Node2</title>
<g id="a_Node000002"><a xlink:href="classPhysics_1_1PhysicsBody.html#a5589f3d686ebb04f47fa42376b9939b5" target="_top" xlink:title=" ">
<polygon fill="white" stroke="#666666" points="205,-126 77,-126 77,-96 205,-96 205,-126"/>
<text text-anchor="start" x="85" y="-114" font-family="Helvetica,sans-Serif" font-size="10.00">Physics::PhysicsBody</text>
<text text-anchor="middle" x="141" y="-103" font-family="Helvetica,sans-Serif" font-size="10.00">::getThermalProperties</text>
</a>
</g>
</g>
<!-- Node1&#45;&gt;Node2 -->
<g id="edge1_Node000001_Node000002" class="edge">
<title>Node1&#45;&gt;Node2</title>
<g id="a_edge1_Node000001_Node000002"><a xlink:title=" ">
<path fill="none" stroke="#63b8ff" d="M41.19,-71.77C51.76,-76.41 65.04,-82.14 77,-87 81.2,-88.71 85.57,-90.45 89.97,-92.17"/>
<polygon fill="#63b8ff" stroke="#63b8ff" points="88.98,-95.54 99.57,-95.9 91.51,-89.02 88.98,-95.54"/>
</a>
</g>
</g>
<!-- Node3 -->
<g id="Node000003" class="node">
<title>Node3</title>
<g id="a_Node000003"><a xlink:href="classPhysics_1_1PointMass.html#aa3b06dd85a876c2a00cf520844d38508" target="_top" xlink:title=" ">
<polygon fill="white" stroke="#666666" points="196,-78 86,-78 86,-48 196,-48 196,-78"/>
<text text-anchor="start" x="94" y="-66" font-family="Helvetica,sans-Serif" font-size="10.00">Physics::PointMass</text>
<text text-anchor="middle" x="141" y="-55" font-family="Helvetica,sans-Serif" font-size="10.00">::loadFrame</text>
</a>
</g>
</g>
<!-- Node1&#45;&gt;Node3 -->
<g id="edge2_Node000001_Node000003" class="edge">
<title>Node1&#45;&gt;Node3</title>
<g id="a_edge2_Node000001_Node000003"><a xlink:title=" ">
<path fill="none" stroke="#63b8ff" d="M41.07,-63C50.77,-63 63.09,-63 75.73,-63"/>
<polygon fill="#63b8ff" stroke="#63b8ff" points="75.88,-66.5 85.88,-63 75.88,-59.5 75.88,-66.5"/>
</a>
</g>
</g>
<!-- Node4 -->
<g id="Node000004" class="node">
<title>Node4</title>
<g id="a_Node000004"><a xlink:href="classPhysics_1_1PointMass.html#ace083146035c884b09da82466fdfbf86" target="_top" xlink:title=" ">
<polygon fill="white" stroke="#666666" points="200.5,-30 81.5,-30 81.5,0 200.5,0 200.5,-30"/>
<text text-anchor="start" x="89.5" y="-18" font-family="Helvetica,sans-Serif" font-size="10.00">Physics::PointMass</text>
<text text-anchor="middle" x="141" y="-7" font-family="Helvetica,sans-Serif" font-size="10.00">::setThermalProperty</text>
</a>
</g>
</g>
<!-- Node1&#45;&gt;Node4 -->
<g id="edge3_Node000001_Node000004" class="edge">
<title>Node1&#45;&gt;Node4</title>
<g id="a_edge3_Node000001_Node000004"><a xlink:title=" ">
<path fill="none" stroke="#63b8ff" d="M41.19,-54.23C51.76,-49.59 65.04,-43.86 77,-39 81.2,-37.29 85.57,-35.55 89.97,-33.83"/>
<polygon fill="#63b8ff" stroke="#63b8ff" points="91.51,-36.98 99.57,-30.1 88.98,-30.46 91.51,-36.98"/>
</a>
</g>
</g>
<!-- Node5 -->
<g id="Node000005" class="node">
<title>Node5</title>
<g id="a_Node000005"><a xlink:href="classPhysics_1_1PhysicsBody.html#ad76815a1ef3d53f6c2901afa5277554f" target="_top" xlink:title=" ">
<polygon fill="white" stroke="#666666" points="362,-30 241,-30 241,0 362,0 362,-30"/>
<text text-anchor="start" x="249" y="-18" font-family="Helvetica,sans-Serif" font-size="10.00">Physics::PhysicsBody</text>
<text text-anchor="middle" x="301.5" y="-7" font-family="Helvetica,sans-Serif" font-size="10.00">::setThermalProperty</text>
</a>
</g>
</g>
<!-- Node4&#45;&gt;Node5 -->
<g id="edge4_Node000004_Node000005" class="edge">
<title>Node4&#45;&gt;Node5</title>
<g id="a_edge4_Node000004_Node000005"><a xlink:title=" ">
<path fill="none" stroke="#63b8ff" d="M200.57,-15C210.42,-15 220.74,-15 230.84,-15"/>
<polygon fill="#63b8ff" stroke="#63b8ff" points="230.85,-18.5 240.85,-15 230.85,-11.5 230.85,-18.5"/>
</a>
</g>
</g>
<!-- Node6 -->
<g id="Node000006" class="node">
<title>Node6</title>
<g id="a_Node000006"><a xlink:href="namespacePhysics_1_1Thermal.html#acb06d086dbc037d7c8cd9303133a4d1b" target="_top" xlink:title=" ">
<polygon fill="white" stroke="#666666" points="595,-24.5 398,-24.5 398,-5.5 595,-5.5 595,-24.5"/>
<text text-anchor="middle" x="496.5" y="-12.5" font-family="Helvetica,sans-Serif" font-size="10.00">Physics::Thermal::clampTemperature</text>
</a>
</g>
</g>
<!-- Node5&#45;&gt;Node6 -->
<g id="edge5_Node000005_Node000006" class="edge">
<title>Node5&#45;&gt;Node6</title>
<g id="a_edge5_Node000005_Node000006"><a xlink:title=" ">
<path fill="none" stroke="#63b8ff" d="M362.24,-15C370.36,-15 378.88,-15 387.53,-15"/>
<polygon fill="#63b8ff" stroke="#63b8ff" points="387.73,-18.5 397.73,-15 387.73,-11.5 387.73,-18.5"/>
</a>
</g>
</g>
</g>
</svg>
