<?xml version="1.0" encoding="UTF-8" standalone="no"?>
<!DOCTYPE svg PUBLIC "-//W3C//DTD SVG 1.1//EN"
 "http://www.w3.org/Graphics/SVG/1.1/DTD/svg11.dtd">
<!-- Generated by graphviz version 2.43.0 (0)
 -->
<!-- Title: TEST Pages: 1 -->
<svg width="1091pt" height="238pt"
 viewBox="0.00 0.00 1091.00 237.50" xmlns="http://www.w3.org/2000/svg" xmlns:xlink="http://www.w3.org/1999/xlink">
<g id="graph0" class="graph" transform="scale(1 1) rotate(0) translate(4 233.5)">
<title>TEST</title>
<!-- Node1 -->
<g id="Node000001" class="node">
<title>Node1</title>
<g id="a_Node000001"><a xlink:title=" ">
<polygon fill="#999999" stroke="#666666" points="41,-131.5 0,-131.5 0,-112.5 41,-112.5 41,-131.5"/>
<text text-anchor="middle" x="20.5" y="-119.5" font-family="Helvetica,sans-Serif" font-size="10.00">TEST</text>
</a>
</g>
</g>
<!-- Node2 -->
<g id="Node000002" class="node">
<title>Node2</title>
<g id="a_Node000002"><a xlink:href="namespacePhysics_1_1Thermal.html#a4bee0e40f8969cbb2cf1ec826d54834a" target="_top" xlink:title=" ">
<polygon fill="white" stroke="#666666" points="265,-137 77,-137 77,-107 265,-107 265,-137"/>
<text text-anchor="start" x="85" y="-125" font-family="Helvetica,sans-Serif" font-size="10.00">Physics::Thermal::applyConductive</text>
<text text-anchor="middle" x="171" y="-114" font-family="Helvetica,sans-Serif" font-size="10.00">Exchange</text>
</a>
</g>
</g>
<!-- Node1&#45;&gt;Node2 -->
<g id="edge1_Node000001_Node000002" class="edge">
<title>Node1&#45;&gt;Node2</title>
<g id="a_edge1_Node000001_Node000002"><a xlink:title=" ">
<path fill="none" stroke="#63b8ff" d="M41.22,-122C48.42,-122 57.15,-122 66.63,-122"/>
<polygon fill="#63b8ff" stroke="#63b8ff" points="66.75,-125.5 76.75,-122 66.75,-118.5 66.75,-125.5"/>
</a>
</g>
</g>
<!-- Node3 -->
<g id="Node000003" class="node">
<title>Node3</title>
<g id="a_Node000003"><a xlink:href="namespacePhysics_1_1Thermal.html#a9206d38ee4d0cbd18666c936706e8611" target="_top" xlink:title=" ">
<polygon fill="white" stroke="#666666" points="474,-159 301,-159 301,-129 474,-129 474,-159"/>
<text text-anchor="start" x="309" y="-147" font-family="Helvetica,sans-Serif" font-size="10.00">Physics::Thermal::applyThermal</text>
<text text-anchor="middle" x="387.5" y="-136" font-family="Helvetica,sans-Serif" font-size="10.00">Energy</text>
</a>
</g>
</g>
<!-- Node2&#45;&gt;Node3 -->
<g id="edge2_Node000002_Node000003" class="edge">
<title>Node2&#45;&gt;Node3</title>
<g id="a_edge2_Node000002_Node000003"><a xlink:title=" ">
<path fill="none" stroke="#63b8ff" d="M265.15,-131.55C273.68,-132.43 282.33,-133.32 290.89,-134.19"/>
<polygon fill="#63b8ff" stroke="#63b8ff" points="290.56,-137.68 300.87,-135.22 291.28,-130.72 290.56,-137.68"/>
</a>
</g>
</g>
<!-- Node8 -->
<g id="Node000008" class="node">
<title>Node8</title>
<g id="a_Node000008"><a xlink:href="namespacePhysics_1_1Thermal.html#a7eaf74772f10f3ceb9740038659283ab" target="_top" xlink:title=" ">
<polygon fill="white" stroke="#666666" points="680,-229.5 510,-229.5 510,-210.5 680,-210.5 680,-229.5"/>
<text text-anchor="middle" x="595" y="-217.5" font-family="Helvetica,sans-Serif" font-size="10.00">Physics::Thermal::heatCapacity</text>
</a>
</g>
</g>
<!-- Node2&#45;&gt;Node8 -->
<g id="edge15_Node000002_Node000008" class="edge">
<title>Node2&#45;&gt;Node8</title>
<g id="a_edge15_Node000002_Node000008"><a xlink:title=" ">
<path fill="none" stroke="#63b8ff" d="M209.02,-137.06C234.53,-146.98 269.4,-159.62 301,-168 370.75,-186.49 451.61,-200.28 510.69,-209"/>
<polygon fill="#63b8ff" stroke="#63b8ff" points="510.32,-212.48 520.72,-210.46 511.33,-205.55 510.32,-212.48"/>
</a>
</g>
</g>
<!-- Node10 -->
<g id="Node000010" class="node">
<title>Node10</title>
<g id="a_Node000010"><a xlink:href="namespacePhysics_1_1Thermal.html#a0ce41054a8cc415549dd5d4bd925d61c" target="_top" xlink:title=" ">
<polygon fill="white" stroke="#666666" points="467,-73 308,-73 308,-43 467,-43 467,-73"/>
<text text-anchor="start" x="316" y="-61" font-family="Helvetica,sans-Serif" font-size="10.00">Physics::Thermal::conductive</text>
<text text-anchor="middle" x="387.5" y="-50" font-family="Helvetica,sans-Serif" font-size="10.00">HeatRate</text>
</a>
</g>
</g>
<!-- Node2&#45;&gt;Node10 -->
<g id="edge12_Node000002_Node000010" class="edge">
<title>Node2&#45;&gt;Node10</title>
<g id="a_edge12_Node000002_Node000010"><a xlink:title=" ">
<path fill="none" stroke="#63b8ff" d="M222.29,-106.99C253.38,-97.72 293.45,-85.76 326.23,-75.98"/>
<polygon fill="#63b8ff" stroke="#63b8ff" points="327.57,-79.23 336.15,-73.02 325.57,-72.53 327.57,-79.23"/>
</a>
</g>
</g>
<!-- Node11 -->
<g id="Node000011" class="node">
<title>Node11</title>
<g id="a_Node000011"><a xlink:href="namespacePhysics_1_1Thermal.html#a0dd6c0c38070754508e9ebd0632abba5" target="_top" xlink:title=" ">
<polygon fill="white" stroke="#666666" points="669.5,-30 520.5,-30 520.5,0 669.5,0 669.5,-30"/>
<text text-anchor="start" x="528.5" y="-18" font-family="Helvetica,sans-Serif" font-size="10.00">Physics::Thermal::effective</text>
<text text-anchor="middle" x="595" y="-7" font-family="Helvetica,sans-Serif" font-size="10.00">Conductivity</text>
</a>
</g>
</g>
<!-- Node2&#45;&gt;Node11 -->
<g id="edge13_Node000002_Node000011" class="edge">
<title>Node2&#45;&gt;Node11</title>
<g id="a_edge13_Node000002_Node000011"><a xlink:title=" ">
<path fill="none" stroke="#63b8ff" d="M265.16,-115.66C339.8,-109.47 437.81,-98.56 474,-82 493.47,-73.09 491.87,-61.38 510,-50 519.42,-44.08 530.02,-38.77 540.43,-34.18"/>
<polygon fill="#63b8ff" stroke="#63b8ff" points="542.06,-37.29 549.9,-30.17 539.33,-30.85 542.06,-37.29"/>
</a>
</g>
</g>
<!-- Node4 -->
<g id="Node000004" class="node">
<title>Node4</title>
<g id="a_Node000004"><a xlink:href="namespacePhysics_1_1Thermal.html#a8c4fd2a57a4a0cf669179578fba97ae4" target="_top" xlink:title=" ">
<polygon fill="white" stroke="#666666" points="882.5,-221 746.5,-221 746.5,-191 882.5,-191 882.5,-221"/>
<text text-anchor="start" x="754.5" y="-209" font-family="Helvetica,sans-Serif" font-size="10.00">Physics::Thermal::active</text>
<text text-anchor="middle" x="814.5" y="-198" font-family="Helvetica,sans-Serif" font-size="10.00">ThermalMass</text>
</a>
</g>
</g>
<!-- Node3&#45;&gt;Node4 -->
<g id="edge3_Node000003_Node000004" class="edge">
<title>Node3&#45;&gt;Node4</title>
<g id="a_edge3_Node000003_Node000004"><a xlink:title=" ">
<path fill="none" stroke="#63b8ff" d="M474.25,-156.51C550.9,-167.69 662.23,-183.93 736.19,-194.72"/>
<polygon fill="#63b8ff" stroke="#63b8ff" points="735.97,-198.23 746.38,-196.21 736.99,-191.3 735.97,-198.23"/>
</a>
</g>
</g>
<!-- Node5 -->
<g id="Node000005" class="node">
<title>Node5</title>
<g id="a_Node000005"><a xlink:href="namespacePhysics_1_1Thermal.html#acb06d086dbc037d7c8cd9303133a4d1b" target="_top" xlink:title=" ">
<polygon fill="white" stroke="#666666" points="913,-88.5 716,-88.5 716,-69.5 913,-69.5 913,-88.5"/>
<text text-anchor="middle" x="814.5" y="-76.5" font-family="Helvetica,sans-Serif" font-size="10.00">Physics::Thermal::clampTemperature</text>
</a>
</g>
</g>
<!-- Node3&#45;&gt;Node5 -->
<g id="edge4_Node000003_Node000005" class="edge">
<title>Node3&#45;&gt;Node5</title>
<g id="a_edge4_Node000003_Node000005"><a xlink:title=" ">
<path fill="none" stroke="#63b8ff" d="M445.94,-128.84C455.69,-125.07 465.42,-120.5 474,-115 493.59,-102.45 488.63,-86.19 510,-77 594.14,-40.81 703.94,-54.69 765.77,-67.33"/>
<polygon fill="#63b8ff" stroke="#63b8ff" points="765.12,-70.77 775.63,-69.42 766.58,-63.92 765.12,-70.77"/>
</a>
</g>
</g>
<!-- Node6 -->
<g id="Node000006" class="node">
<title>Node6</title>
<g id="a_Node000006"><a xlink:href="namespacePhysics_1_1Thermal.html#a8cd40c02db6cde184d3bc886e57bab2b" target="_top" xlink:title=" ">
<polygon fill="white" stroke="#666666" points="889,-159 740,-159 740,-129 889,-129 889,-159"/>
<text text-anchor="start" x="748" y="-147" font-family="Helvetica,sans-Serif" font-size="10.00">Physics::Thermal::effective</text>
<text text-anchor="middle" x="814.5" y="-136" font-family="Helvetica,sans-Serif" font-size="10.00">SpecificHeat</text>
</a>
</g>
</g>
<!-- Node3&#45;&gt;Node6 -->
<g id="edge5_Node000003_Node000006" class="edge">
<title>Node3&#45;&gt;Node6</title>
<g id="a_edge5_Node000003_Node000006"><a xlink:title=" ">
<path fill="none" stroke="#63b8ff" d="M474.25,-144C548.7,-144 655.87,-144 729.74,-144"/>
<polygon fill="#63b8ff" stroke="#63b8ff" points="729.93,-147.5 739.93,-144 729.93,-140.5 729.93,-147.5"/>
</a>
</g>
</g>
<!-- Node3&#45;&gt;Node8 -->
<g id="edge7_Node000003_Node000008" class="edge">
<title>Node3&#45;&gt;Node8</title>
<g id="a_edge7_Node000003_Node000008"><a xlink:title=" ">
<path fill="none" stroke="#63b8ff" d="M420.55,-159.03C444.79,-170.08 479.08,-185.02 510,-196 521.84,-200.2 534.8,-204.2 546.93,-207.68"/>
<polygon fill="#63b8ff" stroke="#63b8ff" points="546.31,-211.14 556.88,-210.48 548.2,-204.4 546.31,-211.14"/>
</a>
</g>
</g>
<!-- Node9 -->
<g id="Node000009" class="node">
<title>Node9</title>
<g id="a_Node000009"><a xlink:href="namespacePhysics_1_1Thermal.html#a06108fe540610d537e7250d1e0472d63" target="_top" xlink:title=" ">
<polygon fill="white" stroke="#666666" points="666.5,-116 523.5,-116 523.5,-86 666.5,-86 666.5,-116"/>
<text text-anchor="start" x="531.5" y="-104" font-family="Helvetica,sans-Serif" font-size="10.00">Physics::Thermal::specific</text>
<text text-anchor="middle" x="595" y="-93" font-family="Helvetica,sans-Serif" font-size="10.00">EntropyChange</text>
</a>
</g>
</g>
<!-- Node3&#45;&gt;Node9 -->
<g id="edge10_Node000003_Node000009" class="edge">
<title>Node3&#45;&gt;Node9</title>
<g id="a_edge10_Node000003_Node000009"><a xlink:title=" ">
<path fill="none" stroke="#63b8ff" d="M460.37,-128.96C477.4,-125.4 495.68,-121.57 513.08,-117.93"/>
<polygon fill="#63b8ff" stroke="#63b8ff" points="514.14,-121.29 523.21,-115.81 512.7,-114.44 514.14,-121.29"/>
</a>
</g>
</g>
<!-- Node7 -->
<g id="Node000007" class="node">
<title>Node7</title>
<g id="a_Node000007"><a xlink:href="namespacePhysics_1_1Thermal.html#aeaaf21f50b58c0fec885f95c14537076" target="_top" xlink:title=" ">
<polygon fill="white" stroke="#666666" points="1083,-116 949,-116 949,-86 1083,-86 1083,-116"/>
<text text-anchor="start" x="957" y="-104" font-family="Helvetica,sans-Serif" font-size="10.00">Physics::Thermal::linear</text>
<text text-anchor="middle" x="1016" y="-93" font-family="Helvetica,sans-Serif" font-size="10.00">TemperatureFactor</text>
</a>
</g>
</g>
<!-- Node6&#45;&gt;Node7 -->
<g id="edge6_Node000006_Node000007" class="edge">
<title>Node6&#45;&gt;Node7</title>
<g id="a_edge6_Node000006_Node000007"><a xlink:title=" ">
<path fill="none" stroke="#63b8ff" d="M885.28,-128.96C902.56,-125.24 921.16,-121.23 938.74,-117.44"/>
<polygon fill="#63b8ff" stroke="#63b8ff" points="939.91,-120.76 948.95,-115.24 938.44,-113.92 939.91,-120.76"/>
</a>
</g>
</g>
<!-- Node8&#45;&gt;Node4 -->
<g id="edge8_Node000008_Node000004" class="edge">
<title>Node8&#45;&gt;Node4</title>
<g id="a_edge8_Node000008_Node000004"><a xlink:title=" ">
<path fill="none" stroke="#63b8ff" d="M680.09,-214.59C698.65,-213.39 718.22,-212.13 736.48,-210.96"/>
<polygon fill="#63b8ff" stroke="#63b8ff" points="736.72,-214.45 746.48,-210.31 736.27,-207.46 736.72,-214.45"/>
</a>
</g>
</g>
<!-- Node8&#45;&gt;Node6 -->
<g id="edge9_Node000008_Node000006" class="edge">
<title>Node8&#45;&gt;Node6</title>
<g id="a_edge9_Node000008_Node000006"><a xlink:title=" ">
<path fill="none" stroke="#63b8ff" d="M623.55,-210.37C657.98,-198.34 717.64,-177.49 760.93,-162.37"/>
<polygon fill="#63b8ff" stroke="#63b8ff" points="762.17,-165.64 770.46,-159.04 759.86,-159.04 762.17,-165.64"/>
</a>
</g>
</g>
<!-- Node9&#45;&gt;Node5 -->
<g id="edge11_Node000009_Node000005" class="edge">
<title>Node9&#45;&gt;Node5</title>
<g id="a_edge11_Node000009_Node000005"><a xlink:title=" ">
<path fill="none" stroke="#63b8ff" d="M666.62,-93.86C680.32,-92.47 694.95,-90.99 709.47,-89.52"/>
<polygon fill="#63b8ff" stroke="#63b8ff" points="709.9,-93 719.49,-88.51 709.19,-86.03 709.9,-93"/>
</a>
</g>
</g>
<!-- Node11&#45;&gt;Node7 -->
<g id="edge14_Node000011_Node000007" class="edge">
<title>Node11&#45;&gt;Node7</title>
<g id="a_edge14_Node000011_Node000007"><a xlink:title=" ">
<path fill="none" stroke="#63b8ff" d="M669.71,-20.4C734.61,-26.34 831.25,-38.11 913,-60 933.57,-65.51 955.58,-74 973.87,-81.83"/>
<polygon fill="#63b8ff" stroke="#63b8ff" points="972.5,-85.05 983.07,-85.85 975.3,-78.64 972.5,-85.05"/>
</a>
</g>
</g>
</g>
</svg>
