<?xml version="1.0" encoding="UTF-8" standalone="no"?>
<!DOCTYPE svg PUBLIC "-//W3C//DTD SVG 1.1//EN"
 "http://www.w3.org/Graphics/SVG/1.1/DTD/svg11.dtd">
<!-- Generated by graphviz version 2.43.0 (0)
 -->
<!-- Title: tests/PhysicsTests.cpp Pages: 1 -->
<!--zoomable 247 -->

<svg id="main" version="1.1" xmlns="http://www.w3.org/2000/svg" xmlns:xlink="http://www.w3.org/1999/xlink" xml:space="preserve" onload="init(evt)">
<style type="text/css"><![CDATA[
.node, .edge {opacity: 0.7;}
.node.selected, .edge.selected {opacity: 1;}
.edge:hover path { stroke: red; }
.edge:hover polygon { stroke: red; fill: red; }
]]></style>

<defs>
  <circle id="rim" cx="0" cy="0" r="7"/>
  <circle id="rim2" cx="0" cy="0" r="3.5"/>
  <g id="zoomPlus">
    <use xlink:href="#rim" fill="#404040"><set attributeName="fill" to="#808080" begin="zoomplus.mouseover" end="zoomplus.mouseout"/></use>
    <path d="M-4,0h8M0,-4v8" fill="none" stroke="white" stroke-width="1.5" pointer-events="none"/>
  </g>
  <g id="zoomMin">
    <use xlink:href="#rim" fill="#404040"><set attributeName="fill" to="#808080" begin="zoomminus.mouseover" end="zoomminus.mouseout"/></use>
    <path d="M-4,0h8" fill="none" stroke="white" stroke-width="1.5" pointer-events="none"/>
  </g>
  <g id="arrowUp" transform="translate(30 24)">
    <use xlink:href="#rim"/>
    <path pointer-events="none" fill="none" stroke="white" stroke-width="1.5" d="M0,-3.0v7 M-2.5,-0.5L0,-3.0L2.5,-0.5"/>
  </g>
  <g id="arrowRight" transform="rotate(90) translate(36 -43)">
    <use xlink:href="#rim"/>
    <path pointer-events="none" fill="none" stroke="white" stroke-width="1.5" d="M0,-3.0v7 M-2.5,-0.5L0,-3.0L2.5,-0.5"/>
  </g>
  <g id="arrowDown" transform="rotate(180) translate(-30 -48)">
    <use xlink:href="#rim"/>
    <path pointer-events="none" fill="none" stroke="white" stroke-width="1.5" d="M0,-3.0v7 M-2.5,-0.5L0,-3.0L2.5,-0.5"/>
  </g>
  <g id="arrowLeft" transform="rotate(270) translate(-36 17)">
    <use xlink:href="#rim"/>
    <path pointer-events="none" fill="none" stroke="white" stroke-width="1.5" d="M0,-3.0v7 M-2.5,-0.5L0,-3.0L2.5,-0.5"/>
  </g>
  <g id="resetDef">
    <use xlink:href="#rim2" fill="#404040"><set attributeName="fill" to="#808080" begin="reset.mouseover" end="reset.mouseout"/></use>
  </g>
</defs>
<script type="application/ecmascript">
var viewWidth = 1260;
var viewHeight = 247;
var sectionId = 'dynsection-0';
</script>
<script type="application/ecmascript" xlink:href="svg.min.js"/>
<svg id="graph" class="graph">
<g id="viewport">
<title>tests/PhysicsTests.cpp</title>
<!-- Node1 -->
<g id="Node000001" class="node">
<title>Node1</title>
<g id="a_Node000001"><a xlink:title=" ">
<polygon fill="#999999" stroke="#666666" points="496.95,-239 371.95,-239 371.95,-220 496.95,-220 496.95,-239"/>
<text text-anchor="middle" x="434.45" y="-227" font-family="Helvetica,sans-Serif" font-size="10.00">tests/PhysicsTests.cpp</text>
</a>
</g>
</g>
<!-- Node2 -->
<g id="Node000002" class="node">
<title>Node2</title>
<g id="a_Node000002"><a xlink:title=" ">
<polygon fill="#e0e0e0" stroke="#999999" points="406.45,-184 328.45,-184 328.45,-165 406.45,-165 406.45,-184"/>
<text text-anchor="middle" x="367.45" y="-172" font-family="Helvetica,sans-Serif" font-size="10.00">gtest/gtest.h</text>
</a>
</g>
</g>
<!-- Node1&#45;&gt;Node2 -->
<g id="edge1_Node000001_Node000002" class="edge">
<title>Node1&#45;&gt;Node2</title>
<g id="a_edge1_Node000001_Node000002"><a xlink:title=" ">
<path fill="none" stroke="#63b8ff" d="M423.68,-219.98C413.68,-212.07 398.56,-200.11 386.52,-190.58"/>
<polygon fill="#63b8ff" stroke="#63b8ff" points="388.42,-187.63 378.41,-184.17 384.08,-193.12 388.42,-187.63"/>
</a>
</g>
</g>
<!-- Node3 -->
<g id="Node000003" class="node">
<title>Node3</title>
<g id="a_Node000003"><a xlink:href="PhysicsSystem_8h.html" target="_top" xlink:title=" ">
<polygon fill="white" stroke="#666666" points="925.95,-184 786.95,-184 786.95,-165 925.95,-165 925.95,-184"/>
<text text-anchor="middle" x="856.45" y="-172" font-family="Helvetica,sans-Serif" font-size="10.00">physics/PhysicsSystem.h</text>
</a>
</g>
</g>
<!-- Node1&#45;&gt;Node3 -->
<g id="edge2_Node000001_Node000003" class="edge">
<title>Node1&#45;&gt;Node3</title>
<g id="a_edge2_Node000001_Node000003"><a xlink:title=" ">
<path fill="none" stroke="#63b8ff" d="M497.17,-220.62C572.03,-211.22 697.25,-195.49 778.33,-185.31"/>
<polygon fill="#63b8ff" stroke="#63b8ff" points="778.99,-188.75 788.48,-184.04 778.12,-181.81 778.99,-188.75"/>
</a>
</g>
</g>
<!-- Node24 -->
<g id="Node000024" class="node">
<title>Node24</title>
<g id="a_Node000024"><a xlink:href="PointMass_8h.html" target="_top" xlink:title=" ">
<polygon fill="white" stroke="#666666" points="196.45,-129 80.45,-129 80.45,-110 196.45,-110 196.45,-129"/>
<text text-anchor="middle" x="138.45" y="-117" font-family="Helvetica,sans-Serif" font-size="10.00">physics/PointMass.h</text>
</a>
</g>
</g>
<!-- Node1&#45;&gt;Node24 -->
<g id="edge35_Node000001_Node000024" class="edge">
<title>Node1&#45;&gt;Node24</title>
<g id="a_edge35_Node000001_Node000024"><a xlink:title=" ">
<path fill="none" stroke="#63b8ff" d="M434.56,-219.57C434.22,-205.65 431.37,-178.96 415.45,-165 407.6,-158.12 286.06,-140.5 206.61,-129.61"/>
<polygon fill="#63b8ff" stroke="#63b8ff" points="207.04,-126.14 196.66,-128.25 206.09,-133.07 207.04,-126.14"/>
</a>
</g>
</g>
<!-- Node4 -->
<g id="Node000004" class="node">
<title>Node4</title>
<g id="a_Node000004"><a xlink:title=" ">
<polygon fill="#e0e0e0" stroke="#999999" points="179.95,-19 132.95,-19 132.95,0 179.95,0 179.95,-19"/>
<text text-anchor="middle" x="156.45" y="-7" font-family="Helvetica,sans-Serif" font-size="10.00">vector</text>
</a>
</g>
</g>
<!-- Node3&#45;&gt;Node4 -->
<g id="edge3_Node000003_Node000004" class="edge">
<title>Node3&#45;&gt;Node4</title>
<g id="a_edge3_Node000003_Node000004"><a xlink:title=" ">
<path fill="none" stroke="#63b8ff" d="M786.75,-172.1C606.93,-168.13 136.76,-155.34 71.45,-129 31.12,-112.74 -18.53,-89.87 7.45,-55 33.83,-19.59 87.33,-11.26 122.52,-9.86"/>
<polygon fill="#63b8ff" stroke="#63b8ff" points="122.89,-13.36 132.81,-9.63 122.73,-6.36 122.89,-13.36"/>
</a>
</g>
</g>
<!-- Node5 -->
<g id="Node000005" class="node">
<title>Node5</title>
<g id="a_Node000005"><a xlink:title=" ">
<polygon fill="#e0e0e0" stroke="#999999" points="516.45,-19 466.45,-19 466.45,0 516.45,0 516.45,-19"/>
<text text-anchor="middle" x="491.45" y="-7" font-family="Helvetica,sans-Serif" font-size="10.00">atomic</text>
</a>
</g>
</g>
<!-- Node3&#45;&gt;Node5 -->
<g id="edge4_Node000003_Node000005" class="edge">
<title>Node3&#45;&gt;Node5</title>
<g id="a_edge4_Node000003_Node000005"><a xlink:title=" ">
<path fill="none" stroke="#63b8ff" d="M831.45,-164.97C814.84,-157.96 794.01,-146.33 782.45,-129 763.99,-101.34 794.84,-78.63 771.45,-55 762.89,-46.35 600.44,-24.51 526.98,-15.02"/>
<polygon fill="#63b8ff" stroke="#63b8ff" points="527.19,-11.51 516.82,-13.71 526.29,-18.46 527.19,-11.51"/>
</a>
</g>
</g>
<!-- Node6 -->
<g id="Node000006" class="node">
<title>Node6</title>
<g id="a_Node000006"><a xlink:title=" ">
<polygon fill="#e0e0e0" stroke="#999999" points="251.45,-19 203.45,-19 203.45,0 251.45,0 251.45,-19"/>
<text text-anchor="middle" x="227.45" y="-7" font-family="Helvetica,sans-Serif" font-size="10.00">mutex</text>
</a>
</g>
</g>
<!-- Node3&#45;&gt;Node6 -->
<g id="edge5_Node000003_Node000006" class="edge">
<title>Node3&#45;&gt;Node6</title>
<g id="a_edge5_Node000003_Node000006"><a xlink:title=" ">
<path fill="none" stroke="#63b8ff" d="M786.9,-168.6C651.19,-157.92 357.03,-128.99 273.45,-74 256.26,-62.69 243.33,-42.61 235.63,-28.05"/>
<polygon fill="#63b8ff" stroke="#63b8ff" points="238.73,-26.42 231.14,-19.03 232.46,-29.54 238.73,-26.42"/>
</a>
</g>
</g>
<!-- Node7 -->
<g id="Node000007" class="node">
<title>Node7</title>
<g id="a_Node000007"><a xlink:title=" ">
<polygon fill="#e0e0e0" stroke="#999999" points="988.45,-129 940.45,-129 940.45,-110 988.45,-110 988.45,-129"/>
<text text-anchor="middle" x="964.45" y="-117" font-family="Helvetica,sans-Serif" font-size="10.00">thread</text>
</a>
</g>
</g>
<!-- Node3&#45;&gt;Node7 -->
<g id="edge6_Node000003_Node000007" class="edge">
<title>Node3&#45;&gt;Node7</title>
<g id="a_edge6_Node000003_Node000007"><a xlink:title=" ">
<path fill="none" stroke="#63b8ff" d="M873.8,-164.98C891.02,-156.54 917.64,-143.47 937.59,-133.68"/>
<polygon fill="#63b8ff" stroke="#63b8ff" points="939.34,-136.72 946.78,-129.17 936.26,-130.43 939.34,-136.72"/>
</a>
</g>
</g>
<!-- Node8 -->
<g id="Node000008" class="node">
<title>Node8</title>
<g id="a_Node000008"><a xlink:title=" ">
<polygon fill="#e0e0e0" stroke="#999999" points="1113.95,-129 1006.95,-129 1006.95,-110 1113.95,-110 1113.95,-129"/>
<text text-anchor="middle" x="1060.45" y="-117" font-family="Helvetica,sans-Serif" font-size="10.00">condition_variable</text>
</a>
</g>
</g>
<!-- Node3&#45;&gt;Node8 -->
<g id="edge7_Node000003_Node000008" class="edge">
<title>Node3&#45;&gt;Node8</title>
<g id="a_edge7_Node000003_Node000008"><a xlink:title=" ">
<path fill="none" stroke="#63b8ff" d="M889.22,-164.98C924.06,-155.93 979.31,-141.58 1017.59,-131.64"/>
<polygon fill="#63b8ff" stroke="#63b8ff" points="1018.61,-134.98 1027.41,-129.08 1016.85,-128.21 1018.61,-134.98"/>
</a>
</g>
</g>
<!-- Node9 -->
<g id="Node000009" class="node">
<title>Node9</title>
<g id="a_Node000009"><a xlink:title=" ">
<polygon fill="#e0e0e0" stroke="#999999" points="1188.45,-129 1132.45,-129 1132.45,-110 1188.45,-110 1188.45,-129"/>
<text text-anchor="middle" x="1160.45" y="-117" font-family="Helvetica,sans-Serif" font-size="10.00">optional</text>
</a>
</g>
</g>
<!-- Node3&#45;&gt;Node9 -->
<g id="edge8_Node000003_Node000009" class="edge">
<title>Node3&#45;&gt;Node9</title>
<g id="a_edge8_Node000003_Node000009"><a xlink:title=" ">
<path fill="none" stroke="#63b8ff" d="M913.66,-164.99C965.63,-157.03 1044.61,-144.36 1122.25,-129.14"/>
<polygon fill="#63b8ff" stroke="#63b8ff" points="1123.07,-132.55 1132.2,-127.17 1121.71,-125.68 1123.07,-132.55"/>
</a>
</g>
</g>
<!-- Node10 -->
<g id="Node000010" class="node">
<title>Node10</title>
<g id="a_Node000010"><a xlink:href="RigidBody_8h.html" target="_top" xlink:title=" ">
<polygon fill="white" stroke="#666666" points="602.45,-129 528.45,-129 528.45,-110 602.45,-110 602.45,-129"/>
<text text-anchor="middle" x="565.45" y="-117" font-family="Helvetica,sans-Serif" font-size="10.00">RigidBody.h</text>
</a>
</g>
</g>
<!-- Node3&#45;&gt;Node10 -->
<g id="edge9_Node000003_Node000010" class="edge">
<title>Node3&#45;&gt;Node10</title>
<g id="a_edge9_Node000003_Node000010"><a xlink:title=" ">
<path fill="none" stroke="#63b8ff" d="M809.69,-164.98C755.66,-155.14 667.22,-139.04 612.89,-129.14"/>
<polygon fill="#63b8ff" stroke="#63b8ff" points="613.3,-125.66 602.83,-127.31 612.04,-132.54 613.3,-125.66"/>
</a>
</g>
</g>
<!-- Node18 -->
<g id="Node000018" class="node">
<title>Node18</title>
<g id="a_Node000018"><a xlink:href="OneUnknownSolver_8h.html" target="_top" xlink:title=" ">
<polygon fill="white" stroke="#666666" points="1252.45,-74 1098.45,-74 1098.45,-55 1252.45,-55 1252.45,-74"/>
<text text-anchor="middle" x="1175.45" y="-62" font-family="Helvetica,sans-Serif" font-size="10.00">solver/OneUnknownSolver.h</text>
</a>
</g>
</g>
<!-- Node3&#45;&gt;Node18 -->
<g id="edge24_Node000003_Node000018" class="edge">
<title>Node3&#45;&gt;Node18</title>
<g id="a_edge24_Node000003_Node000018"><a xlink:title=" ">
<path fill="none" stroke="#63b8ff" d="M926.01,-169.71C1024.49,-163.62 1194.76,-150.16 1213.45,-129 1226.55,-114.16 1210.1,-94.17 1194.93,-80.61"/>
<polygon fill="#63b8ff" stroke="#63b8ff" points="1197.19,-77.93 1187.28,-74.17 1192.68,-83.29 1197.19,-77.93"/>
</a>
</g>
</g>
<!-- Node20 -->
<g id="Node000020" class="node">
<title>Node20</title>
<g id="a_Node000020"><a xlink:href="ProblemRouter_8h.html" target="_top" xlink:title=" ">
<polygon fill="white" stroke="#666666" points="921.95,-129 790.95,-129 790.95,-110 921.95,-110 921.95,-129"/>
<text text-anchor="middle" x="856.45" y="-117" font-family="Helvetica,sans-Serif" font-size="10.00">solver/ProblemRouter.h</text>
</a>
</g>
</g>
<!-- Node3&#45;&gt;Node20 -->
<g id="edge26_Node000003_Node000020" class="edge">
<title>Node3&#45;&gt;Node20</title>
<g id="a_edge26_Node000003_Node000020"><a xlink:title=" ">
<path fill="none" stroke="#63b8ff" d="M856.45,-164.75C856.45,-157.8 856.45,-147.85 856.45,-139.13"/>
<polygon fill="#63b8ff" stroke="#63b8ff" points="859.95,-139.09 856.45,-129.09 852.95,-139.09 859.95,-139.09"/>
</a>
</g>
</g>
<!-- Node22 -->
<g id="Node000022" class="node">
<title>Node22</title>
<g id="a_Node000022"><a xlink:href="VectorRootSolver_8h.html" target="_top" xlink:title=" ">
<polygon fill="white" stroke="#666666" points="1079.95,-74 970.95,-74 970.95,-55 1079.95,-55 1079.95,-74"/>
<text text-anchor="middle" x="1025.45" y="-62" font-family="Helvetica,sans-Serif" font-size="10.00">VectorRootSolver.h</text>
</a>
</g>
</g>
<!-- Node3&#45;&gt;Node22 -->
<g id="edge34_Node000003_Node000022" class="edge">
<title>Node3&#45;&gt;Node22</title>
<g id="a_edge34_Node000003_Node000022"><a xlink:title=" ">
<path fill="none" stroke="#63b8ff" d="M926.05,-169.27C1020.57,-162.8 1179.84,-149.05 1197.45,-129 1203.02,-122.65 1202.62,-116.68 1197.45,-110 1190.04,-100.44 1127.15,-85.89 1079.54,-76.05"/>
<polygon fill="#63b8ff" stroke="#63b8ff" points="1080.13,-72.6 1069.63,-74.03 1078.73,-79.46 1080.13,-72.6"/>
</a>
</g>
</g>
<!-- Node10&#45;&gt;Node4 -->
<g id="edge11_Node000010_Node000004" class="edge">
<title>Node10&#45;&gt;Node4</title>
<g id="a_edge11_Node000010_Node000004"><a xlink:title=" ">
<path fill="none" stroke="#63b8ff" d="M528.07,-116.92C471.57,-113.63 361.67,-103.65 273.45,-74 237.63,-61.96 199.85,-39.4 177.21,-24.67"/>
<polygon fill="#63b8ff" stroke="#63b8ff" points="179.04,-21.68 168.77,-19.07 175.17,-27.52 179.04,-21.68"/>
</a>
</g>
</g>
<!-- Node10&#45;&gt;Node6 -->
<g id="edge10_Node000010_Node000006" class="edge">
<title>Node10&#45;&gt;Node6</title>
<g id="a_edge10_Node000010_Node000006"><a xlink:title=" ">
<path fill="none" stroke="#63b8ff" d="M528.4,-117.52C477.31,-114.97 383.3,-105.92 310.45,-74 284.12,-62.47 258.6,-40.9 242.96,-26.13"/>
<polygon fill="#63b8ff" stroke="#63b8ff" points="245.35,-23.56 235.74,-19.11 240.47,-28.59 245.35,-23.56"/>
</a>
</g>
</g>
<!-- Node11 -->
<g id="Node000011" class="node">
<title>Node11</title>
<g id="a_Node000011"><a xlink:title=" ">
<polygon fill="#e0e0e0" stroke="#999999" points="744.45,-19 666.45,-19 666.45,0 744.45,0 744.45,-19"/>
<text text-anchor="middle" x="705.45" y="-7" font-family="Helvetica,sans-Serif" font-size="10.00">glm/glm.hpp</text>
</a>
</g>
</g>
<!-- Node10&#45;&gt;Node11 -->
<g id="edge12_Node000010_Node000011" class="edge">
<title>Node10&#45;&gt;Node11</title>
<g id="a_edge12_Node000010_Node000011"><a xlink:title=" ">
<path fill="none" stroke="#63b8ff" d="M602.77,-115.91C656.28,-111.34 750.65,-99.77 771.45,-74 786.87,-54.88 759.64,-35.71 735.62,-23.52"/>
<polygon fill="#63b8ff" stroke="#63b8ff" points="736.86,-20.23 726.34,-19.05 733.83,-26.54 736.86,-20.23"/>
</a>
</g>
</g>
<!-- Node12 -->
<g id="Node000012" class="node">
<title>Node12</title>
<g id="a_Node000012"><a xlink:title=" ">
<polygon fill="#e0e0e0" stroke="#999999" points="630.45,-74 500.45,-74 500.45,-55 630.45,-55 630.45,-74"/>
<text text-anchor="middle" x="565.45" y="-62" font-family="Helvetica,sans-Serif" font-size="10.00">glm/gtc/quaternion.hpp</text>
</a>
</g>
</g>
<!-- Node10&#45;&gt;Node12 -->
<g id="edge13_Node000010_Node000012" class="edge">
<title>Node10&#45;&gt;Node12</title>
<g id="a_edge13_Node000010_Node000012"><a xlink:title=" ">
<path fill="none" stroke="#63b8ff" d="M565.45,-109.75C565.45,-102.8 565.45,-92.85 565.45,-84.13"/>
<polygon fill="#63b8ff" stroke="#63b8ff" points="568.95,-84.09 565.45,-74.09 561.95,-84.09 568.95,-84.09"/>
</a>
</g>
</g>
<!-- Node13 -->
<g id="Node000013" class="node">
<title>Node13</title>
<g id="a_Node000013"><a xlink:href="ICollider_8h.html" target="_top" xlink:title=" ">
<polygon fill="white" stroke="#666666" points="761.95,-74 648.95,-74 648.95,-55 761.95,-55 761.95,-74"/>
<text text-anchor="middle" x="705.45" y="-62" font-family="Helvetica,sans-Serif" font-size="10.00">bounding/ICollider.h</text>
</a>
</g>
</g>
<!-- Node10&#45;&gt;Node13 -->
<g id="edge14_Node000010_Node000013" class="edge">
<title>Node10&#45;&gt;Node13</title>
<g id="a_edge14_Node000010_Node000013"><a xlink:title=" ">
<path fill="none" stroke="#63b8ff" d="M587.94,-109.98C610.97,-101.27 646.99,-87.63 673.08,-77.75"/>
<polygon fill="#63b8ff" stroke="#63b8ff" points="674.43,-80.98 682.54,-74.17 671.95,-74.44 674.43,-80.98"/>
</a>
</g>
</g>
<!-- Node14 -->
<g id="Node000014" class="node">
<title>Node14</title>
<g id="a_Node000014"><a xlink:href="PhysicsBody_8h.html" target="_top" xlink:title=" ">
<polygon fill="white" stroke="#666666" points="443.95,-74 318.95,-74 318.95,-55 443.95,-55 443.95,-74"/>
<text text-anchor="middle" x="381.45" y="-62" font-family="Helvetica,sans-Serif" font-size="10.00">physics/PhysicsBody.h</text>
</a>
</g>
</g>
<!-- Node10&#45;&gt;Node14 -->
<g id="edge16_Node000010_Node000014" class="edge">
<title>Node10&#45;&gt;Node14</title>
<g id="a_edge16_Node000010_Node000014"><a xlink:title=" ">
<path fill="none" stroke="#63b8ff" d="M535.88,-109.98C504.72,-101.01 455.47,-86.82 420.99,-76.89"/>
<polygon fill="#63b8ff" stroke="#63b8ff" points="421.82,-73.49 411.24,-74.08 419.88,-80.21 421.82,-73.49"/>
</a>
</g>
</g>
<!-- Node13&#45;&gt;Node11 -->
<g id="edge15_Node000013_Node000011" class="edge">
<title>Node13&#45;&gt;Node11</title>
<g id="a_edge15_Node000013_Node000011"><a xlink:title=" ">
<path fill="none" stroke="#63b8ff" d="M705.45,-54.75C705.45,-47.8 705.45,-37.85 705.45,-29.13"/>
<polygon fill="#63b8ff" stroke="#63b8ff" points="708.95,-29.09 705.45,-19.09 701.95,-29.09 708.95,-29.09"/>
</a>
</g>
</g>
<!-- Node14&#45;&gt;Node4 -->
<g id="edge20_Node000014_Node000004" class="edge">
<title>Node14&#45;&gt;Node4</title>
<g id="a_edge20_Node000014_Node000004"><a xlink:title=" ">
<path fill="none" stroke="#63b8ff" d="M345.3,-54.98C302.47,-44.9 231.68,-28.22 190.01,-18.41"/>
<polygon fill="#63b8ff" stroke="#63b8ff" points="190.62,-14.95 180.08,-16.07 189.01,-21.77 190.62,-14.95"/>
</a>
</g>
</g>
<!-- Node14&#45;&gt;Node5 -->
<g id="edge17_Node000014_Node000005" class="edge">
<title>Node14&#45;&gt;Node5</title>
<g id="a_edge17_Node000014_Node000005"><a xlink:title=" ">
<path fill="none" stroke="#63b8ff" d="M399.12,-54.98C416.74,-46.5 444.02,-33.35 464.37,-23.54"/>
<polygon fill="#63b8ff" stroke="#63b8ff" points="465.96,-26.66 473.45,-19.17 462.92,-20.36 465.96,-26.66"/>
</a>
</g>
</g>
<!-- Node14&#45;&gt;Node6 -->
<g id="edge22_Node000014_Node000006" class="edge">
<title>Node14&#45;&gt;Node6</title>
<g id="a_edge22_Node000014_Node000006"><a xlink:title=" ">
<path fill="none" stroke="#63b8ff" d="M356.7,-54.98C330.84,-46.09 290.1,-32.06 261.27,-22.14"/>
<polygon fill="#63b8ff" stroke="#63b8ff" points="262.21,-18.76 251.62,-18.82 259.94,-25.38 262.21,-18.76"/>
</a>
</g>
</g>
<!-- Node14&#45;&gt;Node11 -->
<g id="edge19_Node000014_Node000011" class="edge">
<title>Node14&#45;&gt;Node11</title>
<g id="a_edge19_Node000014_Node000011"><a xlink:title=" ">
<path fill="none" stroke="#63b8ff" d="M433.5,-54.98C494.89,-44.94 596.14,-28.38 656.25,-18.55"/>
<polygon fill="#63b8ff" stroke="#63b8ff" points="656.95,-21.98 666.26,-16.91 655.82,-15.07 656.95,-21.98"/>
</a>
</g>
</g>
<!-- Node15 -->
<g id="Node000015" class="node">
<title>Node15</title>
<g id="a_Node000015"><a xlink:title=" ">
<polygon fill="#e0e0e0" stroke="#999999" points="625.45,-19 581.45,-19 581.45,0 625.45,0 625.45,-19"/>
<text text-anchor="middle" x="603.45" y="-7" font-family="Helvetica,sans-Serif" font-size="10.00">string</text>
</a>
</g>
</g>
<!-- Node14&#45;&gt;Node15 -->
<g id="edge18_Node000014_Node000015" class="edge">
<title>Node14&#45;&gt;Node15</title>
<g id="a_edge18_Node000014_Node000015"><a xlink:title=" ">
<path fill="none" stroke="#63b8ff" d="M417.11,-54.98C459.73,-44.81 530.41,-27.94 571.37,-18.16"/>
<polygon fill="#63b8ff" stroke="#63b8ff" points="572.44,-21.5 581.36,-15.77 570.82,-14.69 572.44,-21.5"/>
</a>
</g>
</g>
<!-- Node16 -->
<g id="Node000016" class="node">
<title>Node16</title>
<g id="a_Node000016"><a xlink:title=" ">
<polygon fill="#e0e0e0" stroke="#999999" points="332.45,-19 294.45,-19 294.45,0 332.45,0 332.45,-19"/>
<text text-anchor="middle" x="313.45" y="-7" font-family="Helvetica,sans-Serif" font-size="10.00">map</text>
</a>
</g>
</g>
<!-- Node14&#45;&gt;Node16 -->
<g id="edge21_Node000014_Node000016" class="edge">
<title>Node14&#45;&gt;Node16</title>
<g id="a_edge21_Node000014_Node000016"><a xlink:title=" ">
<path fill="none" stroke="#63b8ff" d="M370.52,-54.98C360.37,-47.07 345.02,-35.11 332.8,-25.58"/>
<polygon fill="#63b8ff" stroke="#63b8ff" points="334.61,-22.56 324.57,-19.17 330.31,-28.08 334.61,-22.56"/>
</a>
</g>
</g>
<!-- Node17 -->
<g id="Node000017" class="node">
<title>Node17</title>
<g id="a_Node000017"><a xlink:title=" ">
<polygon fill="#e0e0e0" stroke="#999999" points="436.45,-19 350.45,-19 350.45,0 436.45,0 436.45,-19"/>
<text text-anchor="middle" x="393.45" y="-7" font-family="Helvetica,sans-Serif" font-size="10.00">unordered_set</text>
</a>
</g>
</g>
<!-- Node14&#45;&gt;Node17 -->
<g id="edge23_Node000014_Node000017" class="edge">
<title>Node14&#45;&gt;Node17</title>
<g id="a_edge23_Node000014_Node000017"><a xlink:title=" ">
<path fill="none" stroke="#63b8ff" d="M383.43,-54.75C385.02,-47.72 387.31,-37.62 389.29,-28.84"/>
<polygon fill="#63b8ff" stroke="#63b8ff" points="392.71,-29.62 391.5,-19.09 385.88,-28.07 392.71,-29.62"/>
</a>
</g>
</g>
<!-- Node19 -->
<g id="Node000019" class="node">
<title>Node19</title>
<g id="a_Node000019"><a xlink:title=" ">
<polygon fill="#e0e0e0" stroke="#999999" points="1172.95,-19 1107.95,-19 1107.95,0 1172.95,0 1172.95,-19"/>
<text text-anchor="middle" x="1140.45" y="-7" font-family="Helvetica,sans-Serif" font-size="10.00">functional</text>
</a>
</g>
</g>
<!-- Node18&#45;&gt;Node19 -->
<g id="edge25_Node000018_Node000019" class="edge">
<title>Node18&#45;&gt;Node19</title>
<g id="a_edge25_Node000018_Node000019"><a xlink:title=" ">
<path fill="none" stroke="#63b8ff" d="M1169.67,-54.75C1164.82,-47.42 1157.77,-36.73 1151.8,-27.7"/>
<polygon fill="#63b8ff" stroke="#63b8ff" points="1154.55,-25.5 1146.12,-19.09 1148.71,-29.36 1154.55,-25.5"/>
</a>
</g>
</g>
<!-- Node20&#45;&gt;Node15 -->
<g id="edge27_Node000020_Node000015" class="edge">
<title>Node20&#45;&gt;Node15</title>
<g id="a_edge27_Node000020_Node000015"><a xlink:title=" ">
<path fill="none" stroke="#63b8ff" d="M851.97,-109.97C844.24,-96.11 827.02,-68.88 804.45,-55 790.14,-46.2 688.48,-26.33 635.46,-16.39"/>
<polygon fill="#63b8ff" stroke="#63b8ff" points="636.01,-12.94 625.54,-14.54 634.73,-19.82 636.01,-12.94"/>
</a>
</g>
</g>
<!-- Node20&#45;&gt;Node18 -->
<g id="edge29_Node000020_Node000018" class="edge">
<title>Node20&#45;&gt;Node18</title>
<g id="a_edge29_Node000020_Node000018"><a xlink:title=" ">
<path fill="none" stroke="#63b8ff" d="M907.7,-109.98C963.89,-100.65 1054.02,-85.67 1113.97,-75.71"/>
<polygon fill="#63b8ff" stroke="#63b8ff" points="1114.77,-79.13 1124.06,-74.04 1113.62,-72.22 1114.77,-79.13"/>
</a>
</g>
</g>
<!-- Node21 -->
<g id="Node000021" class="node">
<title>Node21</title>
<g id="a_Node000021"><a xlink:title=" ">
<polygon fill="#e0e0e0" stroke="#999999" points="952.45,-74 894.45,-74 894.45,-55 952.45,-55 952.45,-74"/>
<text text-anchor="middle" x="923.45" y="-62" font-family="Helvetica,sans-Serif" font-size="10.00">memory</text>
</a>
</g>
</g>
<!-- Node20&#45;&gt;Node21 -->
<g id="edge28_Node000020_Node000021" class="edge">
<title>Node20&#45;&gt;Node21</title>
<g id="a_edge28_Node000020_Node000021"><a xlink:title=" ">
<path fill="none" stroke="#63b8ff" d="M867.21,-109.98C877.21,-102.07 892.33,-90.11 904.38,-80.58"/>
<polygon fill="#63b8ff" stroke="#63b8ff" points="906.81,-83.12 912.49,-74.17 902.47,-77.63 906.81,-83.12"/>
</a>
</g>
</g>
<!-- Node20&#45;&gt;Node22 -->
<g id="edge30_Node000020_Node000022" class="edge">
<title>Node20&#45;&gt;Node22</title>
<g id="a_edge30_Node000020_Node000022"><a xlink:title=" ">
<path fill="none" stroke="#63b8ff" d="M883.6,-109.98C911.97,-101.09 956.68,-87.07 988.31,-77.15"/>
<polygon fill="#63b8ff" stroke="#63b8ff" points="989.59,-80.41 998.08,-74.08 987.49,-73.73 989.59,-80.41"/>
</a>
</g>
</g>
<!-- Node22&#45;&gt;Node11 -->
<g id="edge32_Node000022_Node000011" class="edge">
<title>Node22&#45;&gt;Node11</title>
<g id="a_edge32_Node000022_Node000011"><a xlink:title=" ">
<path fill="none" stroke="#63b8ff" d="M974.03,-54.98C913.57,-44.97 813.95,-28.47 754.52,-18.63"/>
<polygon fill="#63b8ff" stroke="#63b8ff" points="755.07,-15.17 744.63,-16.99 753.92,-22.08 755.07,-15.17"/>
</a>
</g>
</g>
<!-- Node22&#45;&gt;Node19 -->
<g id="edge31_Node000022_Node000019" class="edge">
<title>Node22&#45;&gt;Node19</title>
<g id="a_edge31_Node000022_Node000019"><a xlink:title=" ">
<path fill="none" stroke="#63b8ff" d="M1043.92,-54.98C1062.42,-46.46 1091.13,-33.23 1112.43,-23.41"/>
<polygon fill="#63b8ff" stroke="#63b8ff" points="1114.02,-26.53 1121.63,-19.17 1111.09,-20.18 1114.02,-26.53"/>
</a>
</g>
</g>
<!-- Node23 -->
<g id="Node000023" class="node">
<title>Node23</title>
<g id="a_Node000023"><a xlink:href="ISolver_8h.html" target="_top" xlink:title=" ">
<polygon fill="white" stroke="#666666" points="1054.95,-19 995.95,-19 995.95,0 1054.95,0 1054.95,-19"/>
<text text-anchor="middle" x="1025.45" y="-7" font-family="Helvetica,sans-Serif" font-size="10.00">ISolver.h</text>
</a>
</g>
</g>
<!-- Node22&#45;&gt;Node23 -->
<g id="edge33_Node000022_Node000023" class="edge">
<title>Node22&#45;&gt;Node23</title>
<g id="a_edge33_Node000022_Node000023"><a xlink:title=" ">
<path fill="none" stroke="#63b8ff" d="M1025.45,-54.75C1025.45,-47.8 1025.45,-37.85 1025.45,-29.13"/>
<polygon fill="#63b8ff" stroke="#63b8ff" points="1028.95,-29.09 1025.45,-19.09 1021.95,-29.09 1028.95,-29.09"/>
</a>
</g>
</g>
<!-- Node24&#45;&gt;Node4 -->
<g id="edge37_Node000024_Node000004" class="edge">
<title>Node24&#45;&gt;Node4</title>
<g id="a_edge37_Node000024_Node000004"><a xlink:title=" ">
<path fill="none" stroke="#63b8ff" d="M139.92,-109.66C142.83,-92.17 149.4,-52.8 153.32,-29.27"/>
<polygon fill="#63b8ff" stroke="#63b8ff" points="156.81,-29.6 155,-19.16 149.91,-28.45 156.81,-29.6"/>
</a>
</g>
</g>
<!-- Node24&#45;&gt;Node6 -->
<g id="edge39_Node000024_Node000006" class="edge">
<title>Node24&#45;&gt;Node6</title>
<g id="a_edge39_Node000024_Node000006"><a xlink:title=" ">
<path fill="none" stroke="#63b8ff" d="M145.73,-109.66C160.6,-91.61 194.67,-50.28 213.79,-27.08"/>
<polygon fill="#63b8ff" stroke="#63b8ff" points="216.65,-29.1 220.31,-19.16 211.25,-24.65 216.65,-29.1"/>
</a>
</g>
</g>
<!-- Node24&#45;&gt;Node11 -->
<g id="edge38_Node000024_Node000011" class="edge">
<title>Node24&#45;&gt;Node11</title>
<g id="a_edge38_Node000024_Node000011"><a xlink:title=" ">
<path fill="none" stroke="#63b8ff" d="M196.58,-115.9C260.73,-111.76 366.44,-101.1 453.45,-74 471.47,-68.38 473.61,-61.2 491.45,-55 546.37,-35.92 612.2,-23.74 656.22,-17.03"/>
<polygon fill="#63b8ff" stroke="#63b8ff" points="656.99,-20.46 666.36,-15.53 655.96,-13.53 656.99,-20.46"/>
</a>
</g>
</g>
<!-- Node24&#45;&gt;Node14 -->
<g id="edge40_Node000024_Node000014" class="edge">
<title>Node24&#45;&gt;Node14</title>
<g id="a_edge40_Node000024_Node000014"><a xlink:title=" ">
<path fill="none" stroke="#63b8ff" d="M177.49,-109.98C219.52,-100.82 286.48,-86.21 332.13,-76.26"/>
<polygon fill="#63b8ff" stroke="#63b8ff" points="333.07,-79.63 342.1,-74.08 331.58,-72.79 333.07,-79.63"/>
</a>
</g>
</g>
<!-- Node25 -->
<g id="Node000025" class="node">
<title>Node25</title>
<g id="a_Node000025"><a xlink:title=" ">
<polygon fill="#e0e0e0" stroke="#999999" points="109.95,-74 16.95,-74 16.95,-55 109.95,-55 109.95,-74"/>
<text text-anchor="middle" x="63.45" y="-62" font-family="Helvetica,sans-Serif" font-size="10.00">unordered_map</text>
</a>
</g>
</g>
<!-- Node24&#45;&gt;Node25 -->
<g id="edge36_Node000024_Node000025" class="edge">
<title>Node24&#45;&gt;Node25</title>
<g id="a_edge36_Node000024_Node000025"><a xlink:title=" ">
<path fill="none" stroke="#63b8ff" d="M126.4,-109.98C114.98,-101.92 97.62,-89.65 84.01,-80.03"/>
<polygon fill="#63b8ff" stroke="#63b8ff" points="85.9,-77.08 75.72,-74.17 81.86,-82.8 85.9,-77.08"/>
</a>
</g>
</g>
</g>
</svg>

<g id="navigator" transform="translate(0 0)" fill="#404254">
  <rect fill="#f2f5e9" fill-opacity="0.5" stroke="#606060" stroke-width=".5" x="0" y="0" width="60" height="60"/>
  <use id="zoomplus" xlink:href="#zoomPlus" x="17" y="9" onmousedown="handleZoom(evt,'in')"/>
  <use id="zoomminus" xlink:href="#zoomMin" x="42" y="9" onmousedown="handleZoom(evt,'out')"/>
  <use id="reset" xlink:href="#resetDef" x="30" y="36" onmousedown="handleReset()"/>
   <use id="arrowup" xlink:href="#arrowUp" x="0" y="0" onmousedown="handlePan(0,-1)"/>
  <use id="arrowright" xlink:href="#arrowRight" x="0" y="0" onmousedown="handlePan(1,0)"/>
  <use id="arrowdown" xlink:href="#arrowDown" x="0" y="0" onmousedown="handlePan(0,1)"/>
  <use id="arrowleft" xlink:href="#arrowLeft" x="0" y="0" onmousedown="handlePan(-1,0)"/>
</g>
<svg viewBox="0 0 15 15" width="100%" height="30px" preserveAspectRatio="xMaxYMin meet">
 <g id="arrow_out" transform="scale(0.3 0.3)">
  <a xlink:href="PhysicsTests_8cpp__incl_org.svg" target="_base">
   <rect id="button" ry="5" rx="5" y="6" x="6" height="38" width="38"
        fill="#f2f5e9" fill-opacity="0.5" stroke="#606060" stroke-width="1.0"/>
   <path id="arrow"
     d="M 11.500037,31.436501 C 11.940474,20.09759 22.043105,11.32322 32.158766,21.979434 L 37.068811,17.246167 C 37.068811,17.246167 37.088388,32 37.088388,32 L 22.160133,31.978069 C 22.160133,31.978069 26.997745,27.140456 26.997745,27.140456 C 18.528582,18.264221 13.291696,25.230495 11.500037,31.436501 z"
     style="fill:#404040;"/>
  </a>
 </g>
</svg>

<style type='text/css'>
<![CDATA[
[data-mouse-over-selected='false'] { opacity: 0.7; }
[data-mouse-over-selected='true']  { opacity: 1.0; }
]]>
</style>
<script type="application/ecmascript"><![CDATA[
document.addEventListener('DOMContentLoaded', (event) => {
  highlightEdges();
  highlightAdjacentNodes();
});
]]></script>
</svg>
