<?xml version="1.0" encoding="UTF-8" standalone="no"?>
<!DOCTYPE svg PUBLIC "-//W3C//DTD SVG 1.1//EN"
 "http://www.w3.org/Graphics/SVG/1.1/DTD/svg11.dtd">
<!-- Generated by graphviz version 2.43.0 (0)
 -->
<!-- Title: TEST Pages: 1 -->
<svg width="387pt" height="254pt"
 viewBox="0.00 0.00 387.00 254.00" xmlns="http://www.w3.org/2000/svg" xmlns:xlink="http://www.w3.org/1999/xlink">
<g id="graph0" class="graph" transform="scale(1 1) rotate(0) translate(4 250)">
<title>TEST</title>
<!-- Node1 -->
<g id="Node000001" class="node">
<title>Node1</title>
<g id="a_Node000001"><a xlink:title=" ">
<polygon fill="#999999" stroke="#666666" points="41,-120.5 0,-120.5 0,-101.5 41,-101.5 41,-120.5"/>
<text text-anchor="middle" x="20.5" y="-108.5" font-family="Helvetica,sans-Serif" font-size="10.00">TEST</text>
</a>
</g>
</g>
<!-- Node2 -->
<g id="Node000002" class="node">
<title>Node2</title>
<g id="a_Node000002"><a xlink:href="classPhysics_1_1PhysicsSystem.html#a350570f0421c2bc6e762027b04c9775e" target="_top" xlink:title=" ">
<polygon fill="white" stroke="#666666" points="216,-222 83,-222 83,-192 216,-192 216,-222"/>
<text text-anchor="start" x="91" y="-210" font-family="Helvetica,sans-Serif" font-size="10.00">Physics::PhysicsSystem</text>
<text text-anchor="middle" x="149.5" y="-199" font-family="Helvetica,sans-Serif" font-size="10.00">::addBody</text>
</a>
</g>
</g>
<!-- Node1&#45;&gt;Node2 -->
<g id="edge1_Node000001_Node000002" class="edge">
<title>Node1&#45;&gt;Node2</title>
<g id="a_edge1_Node000001_Node000002"><a xlink:title=" ">
<path fill="none" stroke="#63b8ff" d="M26.59,-120.88C35.02,-136.33 53.35,-166.15 77,-183 79.1,-184.5 81.3,-185.9 83.57,-187.23"/>
<polygon fill="#63b8ff" stroke="#63b8ff" points="82.14,-190.43 92.63,-191.93 85.37,-184.22 82.14,-190.43"/>
</a>
</g>
</g>
<!-- Node5 -->
<g id="Node000005" class="node">
<title>Node5</title>
<g id="a_Node000005"><a xlink:href="classPhysics_1_1PhysicsBody.html#ac4112265c85a99f20fb69008db8e8754" target="_top" xlink:title=" ">
<polygon fill="white" stroke="#666666" points="210,-174 89,-174 89,-144 210,-144 210,-174"/>
<text text-anchor="start" x="97" y="-162" font-family="Helvetica,sans-Serif" font-size="10.00">Physics::PhysicsBody</text>
<text text-anchor="middle" x="149.5" y="-151" font-family="Helvetica,sans-Serif" font-size="10.00">::getPosition</text>
</a>
</g>
</g>
<!-- Node1&#45;&gt;Node5 -->
<g id="edge4_Node000001_Node000005" class="edge">
<title>Node1&#45;&gt;Node5</title>
<g id="a_edge4_Node000001_Node000005"><a xlink:title=" ">
<path fill="none" stroke="#63b8ff" d="M41.11,-119.96C51.66,-124.66 64.94,-130.38 77,-135 81.84,-136.86 86.9,-138.71 91.99,-140.52"/>
<polygon fill="#63b8ff" stroke="#63b8ff" points="91.16,-143.94 101.76,-143.94 93.48,-137.34 91.16,-143.94"/>
</a>
</g>
</g>
<!-- Node6 -->
<g id="Node000006" class="node">
<title>Node6</title>
<g id="a_Node000006"><a xlink:href="classPhysics_1_1PhysicsSystem.html#aa5f8330a8367d66657d4dce595764519" target="_top" xlink:title=" ">
<polygon fill="white" stroke="#666666" points="222,-126 77,-126 77,-96 222,-96 222,-126"/>
<text text-anchor="start" x="85" y="-114" font-family="Helvetica,sans-Serif" font-size="10.00">Physics::PhysicsSystem</text>
<text text-anchor="middle" x="149.5" y="-103" font-family="Helvetica,sans-Serif" font-size="10.00">::setGravitationalConstant</text>
</a>
</g>
</g>
<!-- Node1&#45;&gt;Node6 -->
<g id="edge5_Node000001_Node000006" class="edge">
<title>Node1&#45;&gt;Node6</title>
<g id="a_edge5_Node000001_Node000006"><a xlink:title=" ">
<path fill="none" stroke="#63b8ff" d="M41.07,-111C48.4,-111 57.26,-111 66.72,-111"/>
<polygon fill="#63b8ff" stroke="#63b8ff" points="66.75,-114.5 76.75,-111 66.75,-107.5 66.75,-114.5"/>
</a>
</g>
</g>
<!-- Node7 -->
<g id="Node000007" class="node">
<title>Node7</title>
<g id="a_Node000007"><a xlink:href="classPhysics_1_1PhysicsBody.html#a9c75c65ff08d82aac980c01ec89c6991" target="_top" xlink:title=" ">
<polygon fill="white" stroke="#666666" points="210,-78 89,-78 89,-48 210,-48 210,-78"/>
<text text-anchor="start" x="97" y="-66" font-family="Helvetica,sans-Serif" font-size="10.00">Physics::PhysicsBody</text>
<text text-anchor="middle" x="149.5" y="-55" font-family="Helvetica,sans-Serif" font-size="10.00">::setVelocity</text>
</a>
</g>
</g>
<!-- Node1&#45;&gt;Node7 -->
<g id="edge6_Node000001_Node000007" class="edge">
<title>Node1&#45;&gt;Node7</title>
<g id="a_edge6_Node000001_Node000007"><a xlink:title=" ">
<path fill="none" stroke="#63b8ff" d="M41.11,-102.04C51.66,-97.34 64.94,-91.62 77,-87 81.84,-85.14 86.9,-83.29 91.99,-81.48"/>
<polygon fill="#63b8ff" stroke="#63b8ff" points="93.48,-84.66 101.76,-78.06 91.16,-78.06 93.48,-84.66"/>
</a>
</g>
</g>
<!-- Node8 -->
<g id="Node000008" class="node">
<title>Node8</title>
<g id="a_Node000008"><a xlink:href="classPhysics_1_1PhysicsSystem.html#a69ab6a8d4580b0a7c250c45421c49d28" target="_top" xlink:title=" ">
<polygon fill="white" stroke="#666666" points="216,-30 83,-30 83,0 216,0 216,-30"/>
<text text-anchor="start" x="91" y="-18" font-family="Helvetica,sans-Serif" font-size="10.00">Physics::PhysicsSystem</text>
<text text-anchor="middle" x="149.5" y="-7" font-family="Helvetica,sans-Serif" font-size="10.00">::step</text>
</a>
</g>
</g>
<!-- Node1&#45;&gt;Node8 -->
<g id="edge7_Node000001_Node000008" class="edge">
<title>Node1&#45;&gt;Node8</title>
<g id="a_edge7_Node000001_Node000008"><a xlink:title=" ">
<path fill="none" stroke="#63b8ff" d="M26.59,-101.12C35.02,-85.67 53.35,-55.85 77,-39 79.1,-37.5 81.3,-36.1 83.57,-34.77"/>
<polygon fill="#63b8ff" stroke="#63b8ff" points="85.37,-37.78 92.63,-30.07 82.14,-31.57 85.37,-37.78"/>
</a>
</g>
</g>
<!-- Node3 -->
<g id="Node000003" class="node">
<title>Node3</title>
<g id="a_Node000003"><a xlink:href="classPhysics_1_1PhysicsBody.html#a04c6bf672135128ea6ebc6028c1a8a97" target="_top" xlink:title=" ">
<polygon fill="white" stroke="#666666" points="379,-246 258,-246 258,-216 379,-216 379,-246"/>
<text text-anchor="start" x="266" y="-234" font-family="Helvetica,sans-Serif" font-size="10.00">Physics::PhysicsBody</text>
<text text-anchor="middle" x="318.5" y="-223" font-family="Helvetica,sans-Serif" font-size="10.00">::getMass</text>
</a>
</g>
</g>
<!-- Node2&#45;&gt;Node3 -->
<g id="edge2_Node000002_Node000003" class="edge">
<title>Node2&#45;&gt;Node3</title>
<g id="a_edge2_Node000002_Node000003"><a xlink:title=" ">
<path fill="none" stroke="#63b8ff" d="M216.02,-216.42C226.48,-217.92 237.33,-219.48 247.88,-220.99"/>
<polygon fill="#63b8ff" stroke="#63b8ff" points="247.48,-224.47 257.88,-222.43 248.47,-217.54 247.48,-224.47"/>
</a>
</g>
</g>
<!-- Node4 -->
<g id="Node000004" class="node">
<title>Node4</title>
<g id="a_Node000004"><a xlink:href="classPhysics_1_1PhysicsBody.html#acb13769923f966df84e223a540ace45d" target="_top" xlink:title=" ">
<polygon fill="white" stroke="#666666" points="379,-198 258,-198 258,-168 379,-168 379,-198"/>
<text text-anchor="start" x="266" y="-186" font-family="Helvetica,sans-Serif" font-size="10.00">Physics::PhysicsBody</text>
<text text-anchor="middle" x="318.5" y="-175" font-family="Helvetica,sans-Serif" font-size="10.00">::setForce</text>
</a>
</g>
</g>
<!-- Node2&#45;&gt;Node4 -->
<g id="edge3_Node000002_Node000004" class="edge">
<title>Node2&#45;&gt;Node4</title>
<g id="a_edge3_Node000002_Node000004"><a xlink:title=" ">
<path fill="none" stroke="#63b8ff" d="M216.02,-197.58C226.48,-196.08 237.33,-194.52 247.88,-193.01"/>
<polygon fill="#63b8ff" stroke="#63b8ff" points="248.47,-196.46 257.88,-191.57 247.48,-189.53 248.47,-196.46"/>
</a>
</g>
</g>
</g>
</svg>
