<?xml version="1.0" encoding="UTF-8" standalone="no"?>
<!DOCTYPE svg PUBLIC "-//W3C//DTD SVG 1.1//EN"
 "http://www.w3.org/Graphics/SVG/1.1/DTD/svg11.dtd">
<!-- Generated by graphviz version 2.43.0 (0)
 -->
<!-- Title: src/physics/PhysicsSystem.cpp Pages: 1 -->
<svg width="1573pt" height="247pt"
 viewBox="0.00 0.00 1573.00 247.00" xmlns="http://www.w3.org/2000/svg" xmlns:xlink="http://www.w3.org/1999/xlink">
<g id="graph0" class="graph" transform="scale(1 1) rotate(0) translate(4 243)">
<title>src/physics/PhysicsSystem.cpp</title>
<!-- Node1 -->
<g id="Node000001" class="node">
<title>Node1</title>
<g id="a_Node000001"><a xlink:title=" ">
<polygon fill="#999999" stroke="#666666" points="871.5,-239 704.5,-239 704.5,-220 871.5,-220 871.5,-239"/>
<text text-anchor="middle" x="788" y="-227" font-family="Helvetica,sans-Serif" font-size="10.00">src/physics/PhysicsSystem.cpp</text>
</a>
</g>
</g>
<!-- Node2 -->
<g id="Node000002" class="node">
<title>Node2</title>
<g id="a_Node000002"><a xlink:href="PhysicsSystem_8h.html" target="_top" xlink:title=" ">
<polygon fill="white" stroke="#666666" points="798.5,-184 699.5,-184 699.5,-165 798.5,-165 798.5,-184"/>
<text text-anchor="middle" x="749" y="-172" font-family="Helvetica,sans-Serif" font-size="10.00">PhysicsSystem.h</text>
</a>
</g>
</g>
<!-- Node1&#45;&gt;Node2 -->
<g id="edge1_Node000001_Node000002" class="edge">
<title>Node1&#45;&gt;Node2</title>
<g id="a_edge1_Node000001_Node000002"><a xlink:title=" ">
<path fill="none" stroke="#63b8ff" d="M781.56,-219.75C776.11,-212.34 768.14,-201.5 761.44,-192.41"/>
<polygon fill="#63b8ff" stroke="#63b8ff" points="764.07,-190.07 755.32,-184.09 758.43,-194.22 764.07,-190.07"/>
</a>
</g>
</g>
<!-- Node17 -->
<g id="Node000017" class="node">
<title>Node17</title>
<g id="a_Node000017"><a xlink:href="OneUnknownSolver_8h.html" target="_top" xlink:title=" ">
<polygon fill="white" stroke="#666666" points="154,-74 0,-74 0,-55 154,-55 154,-74"/>
<text text-anchor="middle" x="77" y="-62" font-family="Helvetica,sans-Serif" font-size="10.00">solver/OneUnknownSolver.h</text>
</a>
</g>
</g>
<!-- Node1&#45;&gt;Node17 -->
<g id="edge49_Node000001_Node000017" class="edge">
<title>Node1&#45;&gt;Node17</title>
<g id="a_edge49_Node000001_Node000017"><a xlink:title=" ">
<path fill="none" stroke="#63b8ff" d="M704.38,-227.47C581.39,-223.28 346.56,-204.97 164,-129 136.65,-117.62 109.84,-96.01 93.37,-81.19"/>
<polygon fill="#63b8ff" stroke="#63b8ff" points="95.47,-78.37 85.75,-74.15 90.72,-83.51 95.47,-78.37"/>
</a>
</g>
</g>
<!-- Node23 -->
<g id="Node000023" class="node">
<title>Node23</title>
<g id="a_Node000023"><a xlink:title=" ">
<polygon fill="#e0e0e0" stroke="#999999" points="953,-184 893,-184 893,-165 953,-165 953,-184"/>
<text text-anchor="middle" x="923" y="-172" font-family="Helvetica,sans-Serif" font-size="10.00">iostream</text>
</a>
</g>
</g>
<!-- Node1&#45;&gt;Node23 -->
<g id="edge34_Node000001_Node000023" class="edge">
<title>Node1&#45;&gt;Node23</title>
<g id="a_edge34_Node000001_Node000023"><a xlink:title=" ">
<path fill="none" stroke="#63b8ff" d="M809.69,-219.98C831.8,-211.3 866.32,-197.75 891.45,-187.88"/>
<polygon fill="#63b8ff" stroke="#63b8ff" points="892.89,-191.08 900.92,-184.17 890.33,-184.57 892.89,-191.08"/>
</a>
</g>
</g>
<!-- Node24 -->
<g id="Node000024" class="node">
<title>Node24</title>
<g id="a_Node000024"><a xlink:title=" ">
<polygon fill="#e0e0e0" stroke="#999999" points="712,-74 648,-74 648,-55 712,-55 712,-74"/>
<text text-anchor="middle" x="680" y="-62" font-family="Helvetica,sans-Serif" font-size="10.00">algorithm</text>
</a>
</g>
</g>
<!-- Node1&#45;&gt;Node24 -->
<g id="edge35_Node000001_Node000024" class="edge">
<title>Node1&#45;&gt;Node24</title>
<g id="a_edge35_Node000001_Node000024"><a xlink:title=" ">
<path fill="none" stroke="#63b8ff" d="M793.37,-219.8C805.59,-198.81 832.54,-144.52 808,-110 788.67,-82.81 751.49,-72.09 722.16,-67.94"/>
<polygon fill="#63b8ff" stroke="#63b8ff" points="722.5,-64.45 712.15,-66.72 721.66,-71.4 722.5,-64.45"/>
</a>
</g>
</g>
<!-- Node25 -->
<g id="Node000025" class="node">
<title>Node25</title>
<g id="a_Node000025"><a xlink:href="PointMass_8h.html" target="_top" xlink:title=" ">
<polygon fill="white" stroke="#666666" points="1255,-129 1179,-129 1179,-110 1255,-110 1255,-129"/>
<text text-anchor="middle" x="1217" y="-117" font-family="Helvetica,sans-Serif" font-size="10.00">PointMass.h</text>
</a>
</g>
</g>
<!-- Node1&#45;&gt;Node25 -->
<g id="edge36_Node000001_Node000025" class="edge">
<title>Node1&#45;&gt;Node25</title>
<g id="a_edge36_Node000001_Node000025"><a xlink:title=" ">
<path fill="none" stroke="#63b8ff" d="M797.8,-219.78C814.29,-205.66 849.2,-178.05 884,-165 980.56,-128.81 1102.56,-121.38 1168.82,-120.25"/>
<polygon fill="#63b8ff" stroke="#63b8ff" points="1169.01,-123.75 1178.96,-120.12 1168.92,-116.75 1169.01,-123.75"/>
</a>
</g>
</g>
<!-- Node27 -->
<g id="Node000027" class="node">
<title>Node27</title>
<g id="a_Node000027"><a xlink:href="MathUtils_8h.html" target="_top" xlink:title=" ">
<polygon fill="white" stroke="#666666" points="532.5,-129 391.5,-129 391.5,-110 532.5,-110 532.5,-129"/>
<text text-anchor="middle" x="462" y="-117" font-family="Helvetica,sans-Serif" font-size="10.00">graphics/utils/MathUtils.h</text>
</a>
</g>
</g>
<!-- Node1&#45;&gt;Node27 -->
<g id="edge42_Node000001_Node000027" class="edge">
<title>Node1&#45;&gt;Node27</title>
<g id="a_edge42_Node000001_Node000027"><a xlink:title=" ">
<path fill="none" stroke="#63b8ff" d="M762.15,-219.94C704.13,-200.72 563.51,-154.13 497.42,-132.24"/>
<polygon fill="#63b8ff" stroke="#63b8ff" points="498.45,-128.89 487.86,-129.07 496.25,-135.53 498.45,-128.89"/>
</a>
</g>
</g>
<!-- Node3 -->
<g id="Node000003" class="node">
<title>Node3</title>
<g id="a_Node000003"><a xlink:title=" ">
<polygon fill="#e0e0e0" stroke="#999999" points="971.5,-19 924.5,-19 924.5,0 971.5,0 971.5,-19"/>
<text text-anchor="middle" x="948" y="-7" font-family="Helvetica,sans-Serif" font-size="10.00">vector</text>
</a>
</g>
</g>
<!-- Node2&#45;&gt;Node3 -->
<g id="edge2_Node000002_Node000003" class="edge">
<title>Node2&#45;&gt;Node3</title>
<g id="a_edge2_Node000002_Node000003"><a xlink:title=" ">
<path fill="none" stroke="#63b8ff" d="M768.27,-164.9C782.12,-157.55 799.76,-145.54 808,-129 822.83,-99.24 777.09,-81.63 797,-55 804.16,-45.42 872.14,-28.13 914.41,-18.16"/>
<polygon fill="#63b8ff" stroke="#63b8ff" points="915.35,-21.53 924.3,-15.85 913.76,-14.72 915.35,-21.53"/>
</a>
</g>
</g>
<!-- Node4 -->
<g id="Node000004" class="node">
<title>Node4</title>
<g id="a_Node000004"><a xlink:title=" ">
<polygon fill="#e0e0e0" stroke="#999999" points="1565,-19 1515,-19 1515,0 1565,0 1565,-19"/>
<text text-anchor="middle" x="1540" y="-7" font-family="Helvetica,sans-Serif" font-size="10.00">atomic</text>
</a>
</g>
</g>
<!-- Node2&#45;&gt;Node4 -->
<g id="edge3_Node000002_Node000004" class="edge">
<title>Node2&#45;&gt;Node4</title>
<g id="a_edge3_Node000002_Node000004"><a xlink:title=" ">
<path fill="none" stroke="#63b8ff" d="M798.72,-170.38C942.11,-161.33 1347.99,-135.31 1376,-129 1441.62,-114.23 1470.02,-122.14 1517,-74 1528.89,-61.82 1534.69,-43.03 1537.49,-29.05"/>
<polygon fill="#63b8ff" stroke="#63b8ff" points="1540.95,-29.52 1539.14,-19.08 1534.05,-28.37 1540.95,-29.52"/>
</a>
</g>
</g>
<!-- Node5 -->
<g id="Node000005" class="node">
<title>Node5</title>
<g id="a_Node000005"><a xlink:title=" ">
<polygon fill="#e0e0e0" stroke="#999999" points="1418,-19 1370,-19 1370,0 1418,0 1418,-19"/>
<text text-anchor="middle" x="1394" y="-7" font-family="Helvetica,sans-Serif" font-size="10.00">mutex</text>
</a>
</g>
</g>
<!-- Node2&#45;&gt;Node5 -->
<g id="edge4_Node000002_Node000005" class="edge">
<title>Node2&#45;&gt;Node5</title>
<g id="a_edge4_Node000002_Node000005"><a xlink:title=" ">
<path fill="none" stroke="#63b8ff" d="M798.59,-170.12C909.57,-162.4 1175.14,-143.08 1264,-129 1370.8,-112.08 1433.73,-158.66 1501,-74 1524.18,-44.83 1467.55,-26.14 1428.13,-17.05"/>
<polygon fill="#63b8ff" stroke="#63b8ff" points="1428.81,-13.62 1418.29,-14.89 1427.31,-20.45 1428.81,-13.62"/>
</a>
</g>
</g>
<!-- Node6 -->
<g id="Node000006" class="node">
<title>Node6</title>
<g id="a_Node000006"><a xlink:title=" ">
<polygon fill="#e0e0e0" stroke="#999999" points="599,-129 551,-129 551,-110 599,-110 599,-129"/>
<text text-anchor="middle" x="575" y="-117" font-family="Helvetica,sans-Serif" font-size="10.00">thread</text>
</a>
</g>
</g>
<!-- Node2&#45;&gt;Node6 -->
<g id="edge5_Node000002_Node000006" class="edge">
<title>Node2&#45;&gt;Node6</title>
<g id="a_edge5_Node000002_Node000006"><a xlink:title=" ">
<path fill="none" stroke="#63b8ff" d="M721.04,-164.98C690.49,-155.68 641.53,-140.76 608.83,-130.8"/>
<polygon fill="#63b8ff" stroke="#63b8ff" points="609.82,-127.45 599.24,-127.88 607.78,-134.14 609.82,-127.45"/>
</a>
</g>
</g>
<!-- Node7 -->
<g id="Node000007" class="node">
<title>Node7</title>
<g id="a_Node000007"><a xlink:title=" ">
<polygon fill="#e0e0e0" stroke="#999999" points="724.5,-129 617.5,-129 617.5,-110 724.5,-110 724.5,-129"/>
<text text-anchor="middle" x="671" y="-117" font-family="Helvetica,sans-Serif" font-size="10.00">condition_variable</text>
</a>
</g>
</g>
<!-- Node2&#45;&gt;Node7 -->
<g id="edge6_Node000002_Node000007" class="edge">
<title>Node2&#45;&gt;Node7</title>
<g id="a_edge6_Node000002_Node000007"><a xlink:title=" ">
<path fill="none" stroke="#63b8ff" d="M736.47,-164.98C724.6,-156.92 706.54,-144.65 692.39,-135.03"/>
<polygon fill="#63b8ff" stroke="#63b8ff" points="694,-131.9 683.76,-129.17 690.06,-137.69 694,-131.9"/>
</a>
</g>
</g>
<!-- Node8 -->
<g id="Node000008" class="node">
<title>Node8</title>
<g id="a_Node000008"><a xlink:title=" ">
<polygon fill="#e0e0e0" stroke="#999999" points="799,-129 743,-129 743,-110 799,-110 799,-129"/>
<text text-anchor="middle" x="771" y="-117" font-family="Helvetica,sans-Serif" font-size="10.00">optional</text>
</a>
</g>
</g>
<!-- Node2&#45;&gt;Node8 -->
<g id="edge7_Node000002_Node000008" class="edge">
<title>Node2&#45;&gt;Node8</title>
<g id="a_edge7_Node000002_Node000008"><a xlink:title=" ">
<path fill="none" stroke="#63b8ff" d="M752.63,-164.75C755.58,-157.65 759.83,-147.4 763.51,-138.56"/>
<polygon fill="#63b8ff" stroke="#63b8ff" points="766.83,-139.67 767.43,-129.09 760.37,-136.98 766.83,-139.67"/>
</a>
</g>
</g>
<!-- Node9 -->
<g id="Node000009" class="node">
<title>Node9</title>
<g id="a_Node000009"><a xlink:href="RigidBody_8h.html" target="_top" xlink:title=" ">
<polygon fill="white" stroke="#666666" points="985,-129 911,-129 911,-110 985,-110 985,-129"/>
<text text-anchor="middle" x="948" y="-117" font-family="Helvetica,sans-Serif" font-size="10.00">RigidBody.h</text>
</a>
</g>
</g>
<!-- Node2&#45;&gt;Node9 -->
<g id="edge8_Node000002_Node000009" class="edge">
<title>Node2&#45;&gt;Node9</title>
<g id="a_edge8_Node000002_Node000009"><a xlink:title=" ">
<path fill="none" stroke="#63b8ff" d="M780.97,-164.98C814.82,-155.97 868.4,-141.7 905.71,-131.76"/>
<polygon fill="#63b8ff" stroke="#63b8ff" points="907.01,-135.04 915.78,-129.08 905.21,-128.27 907.01,-135.04"/>
</a>
</g>
</g>
<!-- Node2&#45;&gt;Node17 -->
<g id="edge23_Node000002_Node000017" class="edge">
<title>Node2&#45;&gt;Node17</title>
<g id="a_edge23_Node000002_Node000017"><a xlink:title=" ">
<path fill="none" stroke="#63b8ff" d="M699.09,-171.42C585.35,-166.35 309.84,-152.03 220,-129 175.98,-117.72 128.43,-94.07 100.76,-79.03"/>
<polygon fill="#63b8ff" stroke="#63b8ff" points="102.29,-75.87 91.84,-74.1 98.9,-82 102.29,-75.87"/>
</a>
</g>
</g>
<!-- Node19 -->
<g id="Node000019" class="node">
<title>Node19</title>
<g id="a_Node000019"><a xlink:href="ProblemRouter_8h.html" target="_top" xlink:title=" ">
<polygon fill="white" stroke="#666666" points="373.5,-129 242.5,-129 242.5,-110 373.5,-110 373.5,-129"/>
<text text-anchor="middle" x="308" y="-117" font-family="Helvetica,sans-Serif" font-size="10.00">solver/ProblemRouter.h</text>
</a>
</g>
</g>
<!-- Node2&#45;&gt;Node19 -->
<g id="edge25_Node000002_Node000019" class="edge">
<title>Node2&#45;&gt;Node19</title>
<g id="a_edge25_Node000002_Node000019"><a xlink:title=" ">
<path fill="none" stroke="#63b8ff" d="M699.27,-167.52C622.38,-158.28 474.1,-140.46 383.8,-129.61"/>
<polygon fill="#63b8ff" stroke="#63b8ff" points="383.97,-126.11 373.63,-128.39 383.14,-133.06 383.97,-126.11"/>
</a>
</g>
</g>
<!-- Node21 -->
<g id="Node000021" class="node">
<title>Node21</title>
<g id="a_Node000021"><a xlink:href="VectorRootSolver_8h.html" target="_top" xlink:title=" ">
<polygon fill="white" stroke="#666666" points="281.5,-74 172.5,-74 172.5,-55 281.5,-55 281.5,-74"/>
<text text-anchor="middle" x="227" y="-62" font-family="Helvetica,sans-Serif" font-size="10.00">VectorRootSolver.h</text>
</a>
</g>
</g>
<!-- Node2&#45;&gt;Node21 -->
<g id="edge33_Node000002_Node000021" class="edge">
<title>Node2&#45;&gt;Node21</title>
<g id="a_edge33_Node000002_Node000021"><a xlink:title=" ">
<path fill="none" stroke="#63b8ff" d="M699.17,-172.76C576.16,-170.44 265.68,-161.41 233,-129 221.59,-117.68 221.19,-98.77 222.98,-84.53"/>
<polygon fill="#63b8ff" stroke="#63b8ff" points="226.49,-84.79 224.72,-74.34 219.59,-83.61 226.49,-84.79"/>
</a>
</g>
</g>
<!-- Node9&#45;&gt;Node3 -->
<g id="edge10_Node000009_Node000003" class="edge">
<title>Node9&#45;&gt;Node3</title>
<g id="a_edge10_Node000009_Node000003"><a xlink:title=" ">
<path fill="none" stroke="#63b8ff" d="M948,-109.66C948,-92.17 948,-52.8 948,-29.27"/>
<polygon fill="#63b8ff" stroke="#63b8ff" points="951.5,-29.16 948,-19.16 944.5,-29.16 951.5,-29.16"/>
</a>
</g>
</g>
<!-- Node9&#45;&gt;Node5 -->
<g id="edge9_Node000009_Node000005" class="edge">
<title>Node9&#45;&gt;Node5</title>
<g id="a_edge9_Node000009_Node000005"><a xlink:title=" ">
<path fill="none" stroke="#63b8ff" d="M985.2,-117.48C1069.86,-114.64 1274.27,-104.72 1335,-74 1355.68,-63.54 1372.84,-42.68 1383.22,-27.72"/>
<polygon fill="#63b8ff" stroke="#63b8ff" points="1386.18,-29.58 1388.78,-19.31 1380.34,-25.72 1386.18,-29.58"/>
</a>
</g>
</g>
<!-- Node10 -->
<g id="Node000010" class="node">
<title>Node10</title>
<g id="a_Node000010"><a xlink:title=" ">
<polygon fill="#e0e0e0" stroke="#999999" points="817,-19 739,-19 739,0 817,0 817,-19"/>
<text text-anchor="middle" x="778" y="-7" font-family="Helvetica,sans-Serif" font-size="10.00">glm/glm.hpp</text>
</a>
</g>
</g>
<!-- Node9&#45;&gt;Node10 -->
<g id="edge11_Node000009_Node000010" class="edge">
<title>Node9&#45;&gt;Node10</title>
<g id="a_edge11_Node000009_Node000010"><a xlink:title=" ">
<path fill="none" stroke="#63b8ff" d="M910.71,-117.21C876.67,-114.03 827.21,-104.08 797,-74 785.16,-62.21 780.64,-43.37 778.94,-29.27"/>
<polygon fill="#63b8ff" stroke="#63b8ff" points="782.42,-28.87 778.1,-19.2 775.45,-29.45 782.42,-28.87"/>
</a>
</g>
</g>
<!-- Node11 -->
<g id="Node000011" class="node">
<title>Node11</title>
<g id="a_Node000011"><a xlink:title=" ">
<polygon fill="#e0e0e0" stroke="#999999" points="1106,-74 976,-74 976,-55 1106,-55 1106,-74"/>
<text text-anchor="middle" x="1041" y="-62" font-family="Helvetica,sans-Serif" font-size="10.00">glm/gtc/quaternion.hpp</text>
</a>
</g>
</g>
<!-- Node9&#45;&gt;Node11 -->
<g id="edge12_Node000009_Node000011" class="edge">
<title>Node9&#45;&gt;Node11</title>
<g id="a_edge12_Node000009_Node000011"><a xlink:title=" ">
<path fill="none" stroke="#63b8ff" d="M962.94,-109.98C977.5,-101.69 999.87,-88.94 1016.93,-79.22"/>
<polygon fill="#63b8ff" stroke="#63b8ff" points="1018.83,-82.16 1025.79,-74.17 1015.36,-76.08 1018.83,-82.16"/>
</a>
</g>
</g>
<!-- Node12 -->
<g id="Node000012" class="node">
<title>Node12</title>
<g id="a_Node000012"><a xlink:href="ICollider_8h.html" target="_top" xlink:title=" ">
<polygon fill="white" stroke="#666666" points="919.5,-74 806.5,-74 806.5,-55 919.5,-55 919.5,-74"/>
<text text-anchor="middle" x="863" y="-62" font-family="Helvetica,sans-Serif" font-size="10.00">bounding/ICollider.h</text>
</a>
</g>
</g>
<!-- Node9&#45;&gt;Node12 -->
<g id="edge13_Node000009_Node000012" class="edge">
<title>Node9&#45;&gt;Node12</title>
<g id="a_edge13_Node000009_Node000012"><a xlink:title=" ">
<path fill="none" stroke="#63b8ff" d="M934.34,-109.98C921.16,-101.77 900.97,-89.18 885.43,-79.49"/>
<polygon fill="#63b8ff" stroke="#63b8ff" points="887.24,-76.49 876.91,-74.17 883.54,-82.43 887.24,-76.49"/>
</a>
</g>
</g>
<!-- Node13 -->
<g id="Node000013" class="node">
<title>Node13</title>
<g id="a_Node000013"><a xlink:href="PhysicsBody_8h.html" target="_top" xlink:title=" ">
<polygon fill="white" stroke="#666666" points="1325.5,-74 1200.5,-74 1200.5,-55 1325.5,-55 1325.5,-74"/>
<text text-anchor="middle" x="1263" y="-62" font-family="Helvetica,sans-Serif" font-size="10.00">physics/PhysicsBody.h</text>
</a>
</g>
</g>
<!-- Node9&#45;&gt;Node13 -->
<g id="edge15_Node000009_Node000013" class="edge">
<title>Node9&#45;&gt;Node13</title>
<g id="a_edge15_Node000009_Node000013"><a xlink:title=" ">
<path fill="none" stroke="#63b8ff" d="M985.06,-112.26C1038.55,-103.26 1138.01,-86.53 1202.31,-75.71"/>
<polygon fill="#63b8ff" stroke="#63b8ff" points="1203.04,-79.14 1212.32,-74.03 1201.87,-72.24 1203.04,-79.14"/>
</a>
</g>
</g>
<!-- Node12&#45;&gt;Node10 -->
<g id="edge14_Node000012_Node000010" class="edge">
<title>Node12&#45;&gt;Node10</title>
<g id="a_edge14_Node000012_Node000010"><a xlink:title=" ">
<path fill="none" stroke="#63b8ff" d="M849.34,-54.98C836.16,-46.77 815.97,-34.18 800.43,-24.49"/>
<polygon fill="#63b8ff" stroke="#63b8ff" points="802.24,-21.49 791.91,-19.17 798.54,-27.43 802.24,-21.49"/>
</a>
</g>
</g>
<!-- Node13&#45;&gt;Node3 -->
<g id="edge19_Node000013_Node000003" class="edge">
<title>Node13&#45;&gt;Node3</title>
<g id="a_edge19_Node000013_Node000003"><a xlink:title=" ">
<path fill="none" stroke="#63b8ff" d="M1212.39,-54.98C1147.53,-44.07 1036.87,-25.45 981.55,-16.15"/>
<polygon fill="#63b8ff" stroke="#63b8ff" points="982.02,-12.67 971.57,-14.47 980.85,-19.58 982.02,-12.67"/>
</a>
</g>
</g>
<!-- Node13&#45;&gt;Node4 -->
<g id="edge16_Node000013_Node000004" class="edge">
<title>Node13&#45;&gt;Node4</title>
<g id="a_edge16_Node000013_Node000004"><a xlink:title=" ">
<path fill="none" stroke="#63b8ff" d="M1307.5,-54.98C1362.33,-44.49 1454.37,-26.88 1504.62,-17.27"/>
<polygon fill="#63b8ff" stroke="#63b8ff" points="1505.52,-20.66 1514.68,-15.34 1504.2,-13.79 1505.52,-20.66"/>
</a>
</g>
</g>
<!-- Node13&#45;&gt;Node5 -->
<g id="edge21_Node000013_Node000005" class="edge">
<title>Node13&#45;&gt;Node5</title>
<g id="a_edge21_Node000013_Node000005"><a xlink:title=" ">
<path fill="none" stroke="#63b8ff" d="M1284.05,-54.98C1305.41,-46.34 1338.7,-32.87 1363.06,-23.02"/>
<polygon fill="#63b8ff" stroke="#63b8ff" points="1364.61,-26.17 1372.57,-19.17 1361.99,-19.68 1364.61,-26.17"/>
</a>
</g>
</g>
<!-- Node13&#45;&gt;Node10 -->
<g id="edge18_Node000013_Node000010" class="edge">
<title>Node13&#45;&gt;Node10</title>
<g id="a_edge18_Node000013_Node000010"><a xlink:title=" ">
<path fill="none" stroke="#63b8ff" d="M1200.22,-57.52C1117.56,-49.5 967.74,-34.47 840,-19 835.81,-18.49 831.47,-17.94 827.12,-17.38"/>
<polygon fill="#63b8ff" stroke="#63b8ff" points="827.38,-13.88 817,-16.04 826.46,-20.82 827.38,-13.88"/>
</a>
</g>
</g>
<!-- Node14 -->
<g id="Node000014" class="node">
<title>Node14</title>
<g id="a_Node000014"><a xlink:title=" ">
<polygon fill="#e0e0e0" stroke="#999999" points="893,-19 849,-19 849,0 893,0 893,-19"/>
<text text-anchor="middle" x="871" y="-7" font-family="Helvetica,sans-Serif" font-size="10.00">string</text>
</a>
</g>
</g>
<!-- Node13&#45;&gt;Node14 -->
<g id="edge17_Node000013_Node000014" class="edge">
<title>Node13&#45;&gt;Node14</title>
<g id="a_edge17_Node000013_Node000014"><a xlink:title=" ">
<path fill="none" stroke="#63b8ff" d="M1200.28,-56.7C1130.46,-48.84 1014.38,-34.94 915,-19 911.25,-18.4 907.32,-17.72 903.43,-17.01"/>
<polygon fill="#63b8ff" stroke="#63b8ff" points="903.81,-13.52 893.34,-15.1 902.51,-20.4 903.81,-13.52"/>
</a>
</g>
</g>
<!-- Node15 -->
<g id="Node000015" class="node">
<title>Node15</title>
<g id="a_Node000015"><a xlink:title=" ">
<polygon fill="#e0e0e0" stroke="#999999" points="1317,-19 1279,-19 1279,0 1317,0 1317,-19"/>
<text text-anchor="middle" x="1298" y="-7" font-family="Helvetica,sans-Serif" font-size="10.00">map</text>
</a>
</g>
</g>
<!-- Node13&#45;&gt;Node15 -->
<g id="edge20_Node000013_Node000015" class="edge">
<title>Node13&#45;&gt;Node15</title>
<g id="a_edge20_Node000013_Node000015"><a xlink:title=" ">
<path fill="none" stroke="#63b8ff" d="M1268.78,-54.75C1273.62,-47.42 1280.68,-36.73 1286.64,-27.7"/>
<polygon fill="#63b8ff" stroke="#63b8ff" points="1289.74,-29.36 1292.33,-19.09 1283.9,-25.5 1289.74,-29.36"/>
</a>
</g>
</g>
<!-- Node16 -->
<g id="Node000016" class="node">
<title>Node16</title>
<g id="a_Node000016"><a xlink:title=" ">
<polygon fill="#e0e0e0" stroke="#999999" points="1261,-19 1175,-19 1175,0 1261,0 1261,-19"/>
<text text-anchor="middle" x="1218" y="-7" font-family="Helvetica,sans-Serif" font-size="10.00">unordered_set</text>
</a>
</g>
</g>
<!-- Node13&#45;&gt;Node16 -->
<g id="edge22_Node000013_Node000016" class="edge">
<title>Node13&#45;&gt;Node16</title>
<g id="a_edge22_Node000013_Node000016"><a xlink:title=" ">
<path fill="none" stroke="#63b8ff" d="M1255.57,-54.75C1249.15,-47.18 1239.69,-36.05 1231.88,-26.84"/>
<polygon fill="#63b8ff" stroke="#63b8ff" points="1234.43,-24.45 1225.29,-19.09 1229.1,-28.98 1234.43,-24.45"/>
</a>
</g>
</g>
<!-- Node18 -->
<g id="Node000018" class="node">
<title>Node18</title>
<g id="a_Node000018"><a xlink:title=" ">
<polygon fill="#e0e0e0" stroke="#999999" points="219.5,-19 154.5,-19 154.5,0 219.5,0 219.5,-19"/>
<text text-anchor="middle" x="187" y="-7" font-family="Helvetica,sans-Serif" font-size="10.00">functional</text>
</a>
</g>
</g>
<!-- Node17&#45;&gt;Node18 -->
<g id="edge24_Node000017_Node000018" class="edge">
<title>Node17&#45;&gt;Node18</title>
<g id="a_edge24_Node000017_Node000018"><a xlink:title=" ">
<path fill="none" stroke="#63b8ff" d="M94.67,-54.98C112.29,-46.5 139.58,-33.35 159.93,-23.54"/>
<polygon fill="#63b8ff" stroke="#63b8ff" points="161.52,-26.66 169.01,-19.17 158.48,-20.36 161.52,-26.66"/>
</a>
</g>
</g>
<!-- Node19&#45;&gt;Node14 -->
<g id="edge26_Node000019_Node000014" class="edge">
<title>Node19&#45;&gt;Node14</title>
<g id="a_edge26_Node000019_Node000014"><a xlink:title=" ">
<path fill="none" stroke="#63b8ff" d="M326.48,-109.98C357.62,-96.02 422.87,-68.48 481,-55 631.18,-20.17 673.46,-41.33 826,-19 830.04,-18.41 834.28,-17.71 838.46,-16.98"/>
<polygon fill="#63b8ff" stroke="#63b8ff" points="839.43,-20.36 848.63,-15.1 838.16,-13.47 839.43,-20.36"/>
</a>
</g>
</g>
<!-- Node19&#45;&gt;Node17 -->
<g id="edge28_Node000019_Node000017" class="edge">
<title>Node19&#45;&gt;Node17</title>
<g id="a_edge28_Node000019_Node000017"><a xlink:title=" ">
<path fill="none" stroke="#63b8ff" d="M270.89,-109.98C231.01,-100.84 167.54,-86.27 124.16,-76.32"/>
<polygon fill="#63b8ff" stroke="#63b8ff" points="124.93,-72.91 114.41,-74.08 123.37,-79.73 124.93,-72.91"/>
</a>
</g>
</g>
<!-- Node20 -->
<g id="Node000020" class="node">
<title>Node20</title>
<g id="a_Node000020"><a xlink:title=" ">
<polygon fill="#e0e0e0" stroke="#999999" points="358,-74 300,-74 300,-55 358,-55 358,-74"/>
<text text-anchor="middle" x="329" y="-62" font-family="Helvetica,sans-Serif" font-size="10.00">memory</text>
</a>
</g>
</g>
<!-- Node19&#45;&gt;Node20 -->
<g id="edge27_Node000019_Node000020" class="edge">
<title>Node19&#45;&gt;Node20</title>
<g id="a_edge27_Node000019_Node000020"><a xlink:title=" ">
<path fill="none" stroke="#63b8ff" d="M311.47,-109.75C314.28,-102.65 318.34,-92.4 321.85,-83.56"/>
<polygon fill="#63b8ff" stroke="#63b8ff" points="325.17,-84.68 325.6,-74.09 318.66,-82.1 325.17,-84.68"/>
</a>
</g>
</g>
<!-- Node19&#45;&gt;Node21 -->
<g id="edge29_Node000019_Node000021" class="edge">
<title>Node19&#45;&gt;Node21</title>
<g id="a_edge29_Node000019_Node000021"><a xlink:title=" ">
<path fill="none" stroke="#63b8ff" d="M294.99,-109.98C282.54,-101.84 263.54,-89.41 248.79,-79.76"/>
<polygon fill="#63b8ff" stroke="#63b8ff" points="250.54,-76.72 240.25,-74.17 246.7,-82.57 250.54,-76.72"/>
</a>
</g>
</g>
<!-- Node21&#45;&gt;Node10 -->
<g id="edge31_Node000021_Node000010" class="edge">
<title>Node21&#45;&gt;Node10</title>
<g id="a_edge31_Node000021_Node000010"><a xlink:title=" ">
<path fill="none" stroke="#63b8ff" d="M281.79,-56.07C284.91,-55.7 287.99,-55.34 291,-55 450.72,-37.1 640.52,-21.34 728.58,-14.34"/>
<polygon fill="#63b8ff" stroke="#63b8ff" points="729.11,-17.81 738.81,-13.53 728.56,-10.83 729.11,-17.81"/>
</a>
</g>
</g>
<!-- Node21&#45;&gt;Node18 -->
<g id="edge30_Node000021_Node000018" class="edge">
<title>Node21&#45;&gt;Node18</title>
<g id="a_edge30_Node000021_Node000018"><a xlink:title=" ">
<path fill="none" stroke="#63b8ff" d="M220.39,-54.75C214.74,-47.26 206.46,-36.28 199.55,-27.13"/>
<polygon fill="#63b8ff" stroke="#63b8ff" points="202.3,-24.96 193.48,-19.09 196.71,-29.18 202.3,-24.96"/>
</a>
</g>
</g>
<!-- Node22 -->
<g id="Node000022" class="node">
<title>Node22</title>
<g id="a_Node000022"><a xlink:href="ISolver_8h.html" target="_top" xlink:title=" ">
<polygon fill="white" stroke="#666666" points="296.5,-19 237.5,-19 237.5,0 296.5,0 296.5,-19"/>
<text text-anchor="middle" x="267" y="-7" font-family="Helvetica,sans-Serif" font-size="10.00">ISolver.h</text>
</a>
</g>
</g>
<!-- Node21&#45;&gt;Node22 -->
<g id="edge32_Node000021_Node000022" class="edge">
<title>Node21&#45;&gt;Node22</title>
<g id="a_edge32_Node000021_Node000022"><a xlink:title=" ">
<path fill="none" stroke="#63b8ff" d="M233.61,-54.75C239.26,-47.26 247.54,-36.28 254.45,-27.13"/>
<polygon fill="#63b8ff" stroke="#63b8ff" points="257.29,-29.18 260.52,-19.09 251.7,-24.96 257.29,-29.18"/>
</a>
</g>
</g>
<!-- Node25&#45;&gt;Node3 -->
<g id="edge38_Node000025_Node000003" class="edge">
<title>Node25&#45;&gt;Node3</title>
<g id="a_edge38_Node000025_Node000003"><a xlink:title=" ">
<path fill="none" stroke="#63b8ff" d="M1210.36,-110C1199.1,-96.19 1174.84,-69.02 1148,-55 1094.05,-26.82 1022.87,-16.43 981.6,-12.64"/>
<polygon fill="#63b8ff" stroke="#63b8ff" points="981.79,-9.14 971.53,-11.79 981.2,-16.12 981.79,-9.14"/>
</a>
</g>
</g>
<!-- Node25&#45;&gt;Node5 -->
<g id="edge40_Node000025_Node000005" class="edge">
<title>Node25&#45;&gt;Node5</title>
<g id="a_edge40_Node000025_Node000005"><a xlink:title=" ">
<path fill="none" stroke="#63b8ff" d="M1255.21,-117.97C1322.08,-116.16 1455.99,-108.22 1485,-74 1505.63,-49.66 1461.46,-30.23 1427.72,-19.55"/>
<polygon fill="#63b8ff" stroke="#63b8ff" points="1428.68,-16.19 1418.1,-16.65 1426.66,-22.89 1428.68,-16.19"/>
</a>
</g>
</g>
<!-- Node25&#45;&gt;Node10 -->
<g id="edge39_Node000025_Node000010" class="edge">
<title>Node25&#45;&gt;Node10</title>
<g id="a_edge39_Node000025_Node000010"><a xlink:title=" ">
<path fill="none" stroke="#63b8ff" d="M1204.02,-109.99C1178.75,-93.48 1124.57,-58.42 1115,-55 998.94,-13.49 962.17,-35.37 840,-19 835.82,-18.44 831.48,-17.85 827.13,-17.26"/>
<polygon fill="#63b8ff" stroke="#63b8ff" points="827.4,-13.77 817.02,-15.89 826.46,-20.7 827.4,-13.77"/>
</a>
</g>
</g>
<!-- Node25&#45;&gt;Node13 -->
<g id="edge41_Node000025_Node000013" class="edge">
<title>Node25&#45;&gt;Node13</title>
<g id="a_edge41_Node000025_Node000013"><a xlink:title=" ">
<path fill="none" stroke="#63b8ff" d="M1224.6,-109.75C1231.16,-102.18 1240.82,-91.05 1248.81,-81.84"/>
<polygon fill="#63b8ff" stroke="#63b8ff" points="1251.63,-83.94 1255.55,-74.09 1246.35,-79.35 1251.63,-83.94"/>
</a>
</g>
</g>
<!-- Node26 -->
<g id="Node000026" class="node">
<title>Node26</title>
<g id="a_Node000026"><a xlink:title=" ">
<polygon fill="#e0e0e0" stroke="#999999" points="1475.5,-74 1382.5,-74 1382.5,-55 1475.5,-55 1475.5,-74"/>
<text text-anchor="middle" x="1429" y="-62" font-family="Helvetica,sans-Serif" font-size="10.00">unordered_map</text>
</a>
</g>
</g>
<!-- Node25&#45;&gt;Node26 -->
<g id="edge37_Node000025_Node000026" class="edge">
<title>Node25&#45;&gt;Node26</title>
<g id="a_edge37_Node000025_Node000026"><a xlink:title=" ">
<path fill="none" stroke="#63b8ff" d="M1251.06,-109.98C1287.42,-100.89 1345.17,-86.46 1384.97,-76.51"/>
<polygon fill="#63b8ff" stroke="#63b8ff" points="1385.82,-79.9 1394.67,-74.08 1384.12,-73.11 1385.82,-79.9"/>
</a>
</g>
</g>
<!-- Node27&#45;&gt;Node3 -->
<g id="edge46_Node000027_Node000003" class="edge">
<title>Node27&#45;&gt;Node3</title>
<g id="a_edge46_Node000027_Node000003"><a xlink:title=" ">
<path fill="none" stroke="#63b8ff" d="M493.4,-109.95C521.9,-101.83 564.86,-88.72 601,-74 618.49,-66.88 620.96,-60.58 639,-55 751.72,-20.15 785.52,-37.72 902,-19 905.95,-18.37 910.08,-17.66 914.17,-16.94"/>
<polygon fill="#63b8ff" stroke="#63b8ff" points="914.95,-20.35 924.16,-15.12 913.7,-13.47 914.95,-20.35"/>
</a>
</g>
</g>
<!-- Node27&#45;&gt;Node10 -->
<g id="edge43_Node000027_Node000010" class="edge">
<title>Node27&#45;&gt;Node10</title>
<g id="a_edge43_Node000027_Node000010"><a xlink:title=" ">
<path fill="none" stroke="#63b8ff" d="M461.86,-110C462.13,-96.19 464.83,-69.02 481,-55 517.16,-23.64 654.24,-14.37 728.86,-11.64"/>
<polygon fill="#63b8ff" stroke="#63b8ff" points="729.09,-15.13 738.96,-11.3 728.85,-8.14 729.09,-15.13"/>
</a>
</g>
</g>
<!-- Node27&#45;&gt;Node18 -->
<g id="edge47_Node000027_Node000018" class="edge">
<title>Node27&#45;&gt;Node18</title>
<g id="a_edge47_Node000027_Node000018"><a xlink:title=" ">
<path fill="none" stroke="#63b8ff" d="M451.88,-109.98C435.23,-96.38 400.57,-69.82 367,-55 354.43,-49.45 278.56,-31.51 229.42,-20.17"/>
<polygon fill="#63b8ff" stroke="#63b8ff" points="230.2,-16.76 219.67,-17.93 228.63,-23.58 230.2,-16.76"/>
</a>
</g>
</g>
<!-- Node27&#45;&gt;Node24 -->
<g id="edge48_Node000027_Node000024" class="edge">
<title>Node27&#45;&gt;Node24</title>
<g id="a_edge48_Node000027_Node000024"><a xlink:title=" ">
<path fill="none" stroke="#63b8ff" d="M497.03,-109.98C535.42,-100.65 596.99,-85.68 637.96,-75.72"/>
<polygon fill="#63b8ff" stroke="#63b8ff" points="639.01,-79.07 647.9,-73.3 637.36,-72.26 639.01,-79.07"/>
</a>
</g>
</g>
<!-- Node28 -->
<g id="Node000028" class="node">
<title>Node28</title>
<g id="a_Node000028"><a xlink:href="IPickable_8h.html" target="_top" xlink:title=" ">
<polygon fill="white" stroke="#666666" points="592,-74 490,-74 490,-55 592,-55 592,-74"/>
<text text-anchor="middle" x="541" y="-62" font-family="Helvetica,sans-Serif" font-size="10.00">../core/IPickable.h</text>
</a>
</g>
</g>
<!-- Node27&#45;&gt;Node28 -->
<g id="edge44_Node000027_Node000028" class="edge">
<title>Node27&#45;&gt;Node28</title>
<g id="a_edge44_Node000027_Node000028"><a xlink:title=" ">
<path fill="none" stroke="#63b8ff" d="M474.69,-109.98C486.83,-101.84 505.36,-89.41 519.75,-79.76"/>
<polygon fill="#63b8ff" stroke="#63b8ff" points="521.72,-82.65 528.08,-74.17 517.82,-76.84 521.72,-82.65"/>
</a>
</g>
</g>
<!-- Node28&#45;&gt;Node10 -->
<g id="edge45_Node000028_Node000010" class="edge">
<title>Node28&#45;&gt;Node10</title>
<g id="a_edge45_Node000028_Node000010"><a xlink:title=" ">
<path fill="none" stroke="#63b8ff" d="M579.08,-54.98C619.99,-45.84 685.11,-31.27 729.62,-21.32"/>
<polygon fill="#63b8ff" stroke="#63b8ff" points="730.63,-24.68 739.62,-19.08 729.1,-17.85 730.63,-24.68"/>
</a>
</g>
</g>
</g>
</svg>
