<?xml version="1.0" encoding="UTF-8" standalone="no"?>
<!DOCTYPE svg PUBLIC "-//W3C//DTD SVG 1.1//EN"
 "http://www.w3.org/Graphics/SVG/1.1/DTD/svg11.dtd">
<!-- Generated by graphviz version 2.43.0 (0)
 -->
<!-- Title: src/physics/PhysicsSystem.h Pages: 1 -->
<svg width="1322pt" height="302pt"
 viewBox="0.00 0.00 1321.69 302.00" xmlns="http://www.w3.org/2000/svg" xmlns:xlink="http://www.w3.org/1999/xlink">
<g id="graph0" class="graph" transform="scale(1 1) rotate(0) translate(4 298)">
<title>src/physics/PhysicsSystem.h</title>
<!-- Node1 -->
<g id="Node000001" class="node">
<title>Node1</title>
<g id="a_Node000001"><a xlink:title=" ">
<polygon fill="#999999" stroke="#666666" points="764,-294 608,-294 608,-275 764,-275 764,-294"/>
<text text-anchor="middle" x="686" y="-282" font-family="Helvetica,sans-Serif" font-size="10.00">src/physics/PhysicsSystem.h</text>
</a>
</g>
</g>
<!-- Node2 -->
<g id="Node000002" class="node">
<title>Node2</title>
<g id="a_Node000002"><a xlink:title=" ">
<polygon fill="#e0e0e0" stroke="#999999" points="1288.5,-129 1241.5,-129 1241.5,-110 1288.5,-110 1288.5,-129"/>
<text text-anchor="middle" x="1265" y="-117" font-family="Helvetica,sans-Serif" font-size="10.00">vector</text>
</a>
</g>
</g>
<!-- Node1&#45;&gt;Node2 -->
<g id="edge1_Node000001_Node000002" class="edge">
<title>Node1&#45;&gt;Node2</title>
<g id="a_edge1_Node000001_Node000002"><a xlink:title=" ">
<path fill="none" stroke="#63b8ff" d="M764.02,-282.98C894.36,-281.15 1150.28,-273.17 1233,-239 1267.98,-224.55 1282.08,-218.33 1298,-184 1305.63,-167.54 1293.82,-149.2 1282.27,-136.48"/>
<polygon fill="#63b8ff" stroke="#63b8ff" points="1284.42,-133.68 1274.92,-129.01 1279.43,-138.59 1284.42,-133.68"/>
</a>
</g>
</g>
<!-- Node3 -->
<g id="Node000003" class="node">
<title>Node3</title>
<g id="a_Node000003"><a xlink:title=" ">
<polygon fill="#e0e0e0" stroke="#999999" points="750,-129 700,-129 700,-110 750,-110 750,-129"/>
<text text-anchor="middle" x="725" y="-117" font-family="Helvetica,sans-Serif" font-size="10.00">atomic</text>
</a>
</g>
</g>
<!-- Node1&#45;&gt;Node3 -->
<g id="edge2_Node000001_Node000003" class="edge">
<title>Node1&#45;&gt;Node3</title>
<g id="a_edge2_Node000001_Node000003"><a xlink:title=" ">
<path fill="none" stroke="#63b8ff" d="M699.75,-274.86C722.36,-259.73 766.53,-226 783,-184 786.08,-176.14 786.74,-172.57 783,-165 776.51,-151.85 764.07,-141.5 752.36,-134.11"/>
<polygon fill="#63b8ff" stroke="#63b8ff" points="754.07,-131.05 743.67,-129.03 750.54,-137.1 754.07,-131.05"/>
</a>
</g>
</g>
<!-- Node4 -->
<g id="Node000004" class="node">
<title>Node4</title>
<g id="a_Node000004"><a xlink:title=" ">
<polygon fill="#e0e0e0" stroke="#999999" points="474,-129 426,-129 426,-110 474,-110 474,-129"/>
<text text-anchor="middle" x="450" y="-117" font-family="Helvetica,sans-Serif" font-size="10.00">mutex</text>
</a>
</g>
</g>
<!-- Node1&#45;&gt;Node4 -->
<g id="edge3_Node000001_Node000004" class="edge">
<title>Node1&#45;&gt;Node4</title>
<g id="a_edge3_Node000001_Node000004"><a xlink:title=" ">
<path fill="none" stroke="#63b8ff" d="M607.74,-279.41C546.39,-274.36 468.14,-263.25 448,-239 424.54,-210.74 434.77,-164.28 443.11,-138.74"/>
<polygon fill="#63b8ff" stroke="#63b8ff" points="446.45,-139.78 446.47,-129.18 439.85,-137.46 446.45,-139.78"/>
</a>
</g>
</g>
<!-- Node5 -->
<g id="Node000005" class="node">
<title>Node5</title>
<g id="a_Node000005"><a xlink:title=" ">
<polygon fill="#e0e0e0" stroke="#999999" points="505,-239 457,-239 457,-220 505,-220 505,-239"/>
<text text-anchor="middle" x="481" y="-227" font-family="Helvetica,sans-Serif" font-size="10.00">thread</text>
</a>
</g>
</g>
<!-- Node1&#45;&gt;Node5 -->
<g id="edge4_Node000001_Node000005" class="edge">
<title>Node1&#45;&gt;Node5</title>
<g id="a_edge4_Node000001_Node000005"><a xlink:title=" ">
<path fill="none" stroke="#63b8ff" d="M653.06,-274.98C615.3,-265.22 553.69,-249.29 515.35,-239.38"/>
<polygon fill="#63b8ff" stroke="#63b8ff" points="515.75,-235.87 505.19,-236.75 514,-242.65 515.75,-235.87"/>
</a>
</g>
</g>
<!-- Node6 -->
<g id="Node000006" class="node">
<title>Node6</title>
<g id="a_Node000006"><a xlink:title=" ">
<polygon fill="#e0e0e0" stroke="#999999" points="630.5,-239 523.5,-239 523.5,-220 630.5,-220 630.5,-239"/>
<text text-anchor="middle" x="577" y="-227" font-family="Helvetica,sans-Serif" font-size="10.00">condition_variable</text>
</a>
</g>
</g>
<!-- Node1&#45;&gt;Node6 -->
<g id="edge5_Node000001_Node000006" class="edge">
<title>Node1&#45;&gt;Node6</title>
<g id="a_edge5_Node000001_Node000006"><a xlink:title=" ">
<path fill="none" stroke="#63b8ff" d="M668.49,-274.98C651.03,-266.5 623.99,-253.35 603.83,-243.54"/>
<polygon fill="#63b8ff" stroke="#63b8ff" points="605.36,-240.4 594.83,-239.17 602.29,-246.69 605.36,-240.4"/>
</a>
</g>
</g>
<!-- Node7 -->
<g id="Node000007" class="node">
<title>Node7</title>
<g id="a_Node000007"><a xlink:title=" ">
<polygon fill="#e0e0e0" stroke="#999999" points="472,-74 416,-74 416,-55 472,-55 472,-74"/>
<text text-anchor="middle" x="444" y="-62" font-family="Helvetica,sans-Serif" font-size="10.00">optional</text>
</a>
</g>
</g>
<!-- Node1&#45;&gt;Node7 -->
<g id="edge6_Node000001_Node000007" class="edge">
<title>Node1&#45;&gt;Node7</title>
<g id="a_edge6_Node000001_Node000007"><a xlink:title=" ">
<path fill="none" stroke="#63b8ff" d="M607.95,-276.09C545.3,-268.97 463.29,-256.68 435,-239 377.8,-203.24 319.53,-167.39 355,-110 366.21,-91.85 387.32,-80.86 406.16,-74.34"/>
<polygon fill="#63b8ff" stroke="#63b8ff" points="407.25,-77.67 415.74,-71.33 405.15,-70.99 407.25,-77.67"/>
</a>
</g>
</g>
<!-- Node8 -->
<g id="Node000008" class="node">
<title>Node8</title>
<g id="a_Node000008"><a xlink:href="RigidBody_8h.html" target="_top" xlink:title=" ">
<polygon fill="white" stroke="#666666" points="723,-239 649,-239 649,-220 723,-220 723,-239"/>
<text text-anchor="middle" x="686" y="-227" font-family="Helvetica,sans-Serif" font-size="10.00">RigidBody.h</text>
</a>
</g>
</g>
<!-- Node1&#45;&gt;Node8 -->
<g id="edge7_Node000001_Node000008" class="edge">
<title>Node1&#45;&gt;Node8</title>
<g id="a_edge7_Node000001_Node000008"><a xlink:title=" ">
<path fill="none" stroke="#63b8ff" d="M686,-274.75C686,-267.8 686,-257.85 686,-249.13"/>
<polygon fill="#63b8ff" stroke="#63b8ff" points="689.5,-249.09 686,-239.09 682.5,-249.09 689.5,-249.09"/>
</a>
</g>
</g>
<!-- Node21 -->
<g id="Node000021" class="node">
<title>Node21</title>
<g id="a_Node000021"><a xlink:href="Constants_8h.html" target="_top" xlink:title=" ">
<polygon fill="white" stroke="#666666" points="944,-239 830,-239 830,-220 944,-220 944,-239"/>
<text text-anchor="middle" x="887" y="-227" font-family="Helvetica,sans-Serif" font-size="10.00">physics/Constants.h</text>
</a>
</g>
</g>
<!-- Node1&#45;&gt;Node21 -->
<g id="edge28_Node000001_Node000021" class="edge">
<title>Node1&#45;&gt;Node21</title>
<g id="a_edge28_Node000001_Node000021"><a xlink:title=" ">
<path fill="none" stroke="#63b8ff" d="M718.29,-274.98C752.62,-265.93 807.06,-251.58 844.77,-241.64"/>
<polygon fill="#63b8ff" stroke="#63b8ff" points="845.68,-245.02 854.45,-239.08 843.89,-238.25 845.68,-245.02"/>
</a>
</g>
</g>
<!-- Node22 -->
<g id="Node000022" class="node">
<title>Node22</title>
<g id="a_Node000022"><a xlink:href="ProblemRouter_8h.html" target="_top" xlink:title=" ">
<polygon fill="white" stroke="#666666" points="307.5,-184 176.5,-184 176.5,-165 307.5,-165 307.5,-184"/>
<text text-anchor="middle" x="242" y="-172" font-family="Helvetica,sans-Serif" font-size="10.00">solver/ProblemRouter.h</text>
</a>
</g>
</g>
<!-- Node1&#45;&gt;Node22 -->
<g id="edge29_Node000001_Node000022" class="edge">
<title>Node1&#45;&gt;Node22</title>
<g id="a_edge29_Node000001_Node000022"><a xlink:title=" ">
<path fill="none" stroke="#63b8ff" d="M607.67,-278.91C516.48,-272.7 371.99,-259.92 322,-239 296.33,-228.26 272.07,-206.82 257.13,-191.84"/>
<polygon fill="#63b8ff" stroke="#63b8ff" points="259.31,-189.06 249.85,-184.29 254.27,-193.92 259.31,-189.06"/>
</a>
</g>
</g>
<!-- Node28 -->
<g id="Node000028" class="node">
<title>Node28</title>
<g id="a_Node000028"><a xlink:href="Octree_8h.html" target="_top" xlink:title=" ">
<polygon fill="white" stroke="#666666" points="1224,-239 1130,-239 1130,-220 1224,-220 1224,-239"/>
<text text-anchor="middle" x="1177" y="-227" font-family="Helvetica,sans-Serif" font-size="10.00">spatial/Octree.h</text>
</a>
</g>
</g>
<!-- Node1&#45;&gt;Node28 -->
<g id="edge39_Node000001_Node000028" class="edge">
<title>Node1&#45;&gt;Node28</title>
<g id="a_edge39_Node000001_Node000028"><a xlink:title=" ">
<path fill="none" stroke="#63b8ff" d="M764.07,-275.07C863.24,-264.37 1032.01,-246.15 1119.93,-236.66"/>
<polygon fill="#63b8ff" stroke="#63b8ff" points="1120.42,-240.13 1129.98,-235.58 1119.67,-233.17 1120.42,-240.13"/>
</a>
</g>
</g>
<!-- Node31 -->
<g id="Node000031" class="node">
<title>Node31</title>
<g id="a_Node000031"><a xlink:href="BVH_8h.html" target="_top" xlink:title=" ">
<polygon fill="white" stroke="#666666" points="1045.5,-239 962.5,-239 962.5,-220 1045.5,-220 1045.5,-239"/>
<text text-anchor="middle" x="1004" y="-227" font-family="Helvetica,sans-Serif" font-size="10.00">spatial/BVH.h</text>
</a>
</g>
</g>
<!-- Node1&#45;&gt;Node31 -->
<g id="edge45_Node000001_Node000031" class="edge">
<title>Node1&#45;&gt;Node31</title>
<g id="a_edge45_Node000001_Node000031"><a xlink:title=" ">
<path fill="none" stroke="#63b8ff" d="M737.09,-274.98C796.18,-265.14 892.9,-249.02 952.26,-239.12"/>
<polygon fill="#63b8ff" stroke="#63b8ff" points="952.88,-242.57 962.17,-237.47 951.73,-235.66 952.88,-242.57"/>
</a>
</g>
</g>
<!-- Node8&#45;&gt;Node2 -->
<g id="edge9_Node000008_Node000002" class="edge">
<title>Node8&#45;&gt;Node2</title>
<g id="a_edge9_Node000008_Node000002"><a xlink:title=" ">
<path fill="none" stroke="#63b8ff" d="M723.33,-223.34C777.73,-215.66 881.92,-200.37 970,-184 1065.32,-166.29 1177,-141 1231.57,-128.34"/>
<polygon fill="#63b8ff" stroke="#63b8ff" points="1232.44,-131.73 1241.38,-126.06 1230.85,-124.92 1232.44,-131.73"/>
</a>
</g>
</g>
<!-- Node8&#45;&gt;Node4 -->
<g id="edge8_Node000008_Node000004" class="edge">
<title>Node8&#45;&gt;Node4</title>
<g id="a_edge8_Node000008_Node000004"><a xlink:title=" ">
<path fill="none" stroke="#63b8ff" d="M648.51,-221.64C585.36,-210.02 464.29,-187.37 461,-184 449.65,-172.38 447.64,-153.51 448.02,-139.36"/>
<polygon fill="#63b8ff" stroke="#63b8ff" points="451.52,-139.46 448.71,-129.25 444.54,-138.99 451.52,-139.46"/>
</a>
</g>
</g>
<!-- Node9 -->
<g id="Node000009" class="node">
<title>Node9</title>
<g id="a_Node000009"><a xlink:title=" ">
<polygon fill="#e0e0e0" stroke="#999999" points="711,-74 633,-74 633,-55 711,-55 711,-74"/>
<text text-anchor="middle" x="672" y="-62" font-family="Helvetica,sans-Serif" font-size="10.00">glm/glm.hpp</text>
</a>
</g>
</g>
<!-- Node8&#45;&gt;Node9 -->
<g id="edge10_Node000008_Node000009" class="edge">
<title>Node8&#45;&gt;Node9</title>
<g id="a_edge10_Node000008_Node000009"><a xlink:title=" ">
<path fill="none" stroke="#63b8ff" d="M677.52,-219.85C669.95,-211.47 659.4,-198.01 655,-184 644.15,-149.44 655.95,-107 664.6,-83.44"/>
<polygon fill="#63b8ff" stroke="#63b8ff" points="667.89,-84.63 668.25,-74.04 661.37,-82.09 667.89,-84.63"/>
</a>
</g>
</g>
<!-- Node10 -->
<g id="Node000010" class="node">
<title>Node10</title>
<g id="a_Node000010"><a xlink:title=" ">
<polygon fill="#e0e0e0" stroke="#999999" points="608,-184 478,-184 478,-165 608,-165 608,-184"/>
<text text-anchor="middle" x="543" y="-172" font-family="Helvetica,sans-Serif" font-size="10.00">glm/gtc/quaternion.hpp</text>
</a>
</g>
</g>
<!-- Node8&#45;&gt;Node10 -->
<g id="edge11_Node000008_Node000010" class="edge">
<title>Node8&#45;&gt;Node10</title>
<g id="a_edge11_Node000008_Node000010"><a xlink:title=" ">
<path fill="none" stroke="#63b8ff" d="M663.02,-219.98C639.5,-211.27 602.71,-197.63 576.06,-187.75"/>
<polygon fill="#63b8ff" stroke="#63b8ff" points="576.99,-184.36 566.39,-184.17 574.55,-190.93 576.99,-184.36"/>
</a>
</g>
</g>
<!-- Node11 -->
<g id="Node000011" class="node">
<title>Node11</title>
<g id="a_Node000011"><a xlink:href="ICollider_8h.html" target="_top" xlink:title="Abstract interface for collision detection shapes.">
<polygon fill="white" stroke="#666666" points="605.5,-129 492.5,-129 492.5,-110 605.5,-110 605.5,-129"/>
<text text-anchor="middle" x="549" y="-117" font-family="Helvetica,sans-Serif" font-size="10.00">bounding/ICollider.h</text>
</a>
</g>
</g>
<!-- Node8&#45;&gt;Node11 -->
<g id="edge12_Node000008_Node000011" class="edge">
<title>Node8&#45;&gt;Node11</title>
<g id="a_edge12_Node000008_Node000011"><a xlink:title=" ">
<path fill="none" stroke="#63b8ff" d="M648.81,-221.49C587.55,-209.86 471.86,-187.5 469,-184 451.78,-162.89 484.04,-144.25 512.59,-132.71"/>
<polygon fill="#63b8ff" stroke="#63b8ff" points="513.98,-135.93 522.06,-129.08 511.47,-129.4 513.98,-135.93"/>
</a>
</g>
</g>
<!-- Node15 -->
<g id="Node000015" class="node">
<title>Node15</title>
<g id="a_Node000015"><a xlink:href="PhysicsBody_8h.html" target="_top" xlink:title=" ">
<polygon fill="white" stroke="#666666" points="961.5,-184 836.5,-184 836.5,-165 961.5,-165 961.5,-184"/>
<text text-anchor="middle" x="899" y="-172" font-family="Helvetica,sans-Serif" font-size="10.00">physics/PhysicsBody.h</text>
</a>
</g>
</g>
<!-- Node8&#45;&gt;Node15 -->
<g id="edge18_Node000008_Node000015" class="edge">
<title>Node8&#45;&gt;Node15</title>
<g id="a_edge18_Node000008_Node000015"><a xlink:title=" ">
<path fill="none" stroke="#63b8ff" d="M720.22,-219.98C756.76,-210.89 814.78,-196.46 854.76,-186.51"/>
<polygon fill="#63b8ff" stroke="#63b8ff" points="855.65,-189.89 864.51,-184.08 853.96,-183.1 855.65,-189.89"/>
</a>
</g>
</g>
<!-- Node11&#45;&gt;Node7 -->
<g id="edge15_Node000011_Node000007" class="edge">
<title>Node11&#45;&gt;Node7</title>
<g id="a_edge15_Node000011_Node000007"><a xlink:title=" ">
<path fill="none" stroke="#63b8ff" d="M532.13,-109.98C515.39,-101.54 489.5,-88.47 470.11,-78.68"/>
<polygon fill="#63b8ff" stroke="#63b8ff" points="471.68,-75.55 461.18,-74.17 468.53,-81.8 471.68,-75.55"/>
</a>
</g>
</g>
<!-- Node11&#45;&gt;Node9 -->
<g id="edge13_Node000011_Node000009" class="edge">
<title>Node11&#45;&gt;Node9</title>
<g id="a_edge13_Node000011_Node000009"><a xlink:title=" ">
<path fill="none" stroke="#63b8ff" d="M568.76,-109.98C588.73,-101.38 619.8,-87.99 642.65,-78.15"/>
<polygon fill="#63b8ff" stroke="#63b8ff" points="644.08,-81.34 651.88,-74.17 641.31,-74.91 644.08,-81.34"/>
</a>
</g>
</g>
<!-- Node12 -->
<g id="Node000012" class="node">
<title>Node12</title>
<g id="a_Node000012"><a xlink:title=" ">
<polygon fill="#e0e0e0" stroke="#999999" points="351,-74 293,-74 293,-55 351,-55 351,-74"/>
<text text-anchor="middle" x="322" y="-62" font-family="Helvetica,sans-Serif" font-size="10.00">memory</text>
</a>
</g>
</g>
<!-- Node11&#45;&gt;Node12 -->
<g id="edge14_Node000011_Node000012" class="edge">
<title>Node11&#45;&gt;Node12</title>
<g id="a_edge14_Node000011_Node000012"><a xlink:title=" ">
<path fill="none" stroke="#63b8ff" d="M512.53,-109.98C471.08,-100.31 403.68,-84.57 361.15,-74.64"/>
<polygon fill="#63b8ff" stroke="#63b8ff" points="361.7,-71.17 351.16,-72.31 360.11,-77.99 361.7,-71.17"/>
</a>
</g>
</g>
<!-- Node13 -->
<g id="Node000013" class="node">
<title>Node13</title>
<g id="a_Node000013"><a xlink:href="Ray_8h.html" target="_top" xlink:title=" ">
<polygon fill="white" stroke="#666666" points="584.5,-74 513.5,-74 513.5,-55 584.5,-55 584.5,-74"/>
<text text-anchor="middle" x="549" y="-62" font-family="Helvetica,sans-Serif" font-size="10.00">math/Ray.h</text>
</a>
</g>
</g>
<!-- Node11&#45;&gt;Node13 -->
<g id="edge16_Node000011_Node000013" class="edge">
<title>Node11&#45;&gt;Node13</title>
<g id="a_edge16_Node000011_Node000013"><a xlink:title=" ">
<path fill="none" stroke="#63b8ff" d="M549,-109.75C549,-102.8 549,-92.85 549,-84.13"/>
<polygon fill="#63b8ff" stroke="#63b8ff" points="552.5,-84.09 549,-74.09 545.5,-84.09 552.5,-84.09"/>
</a>
</g>
</g>
<!-- Node14 -->
<g id="Node000014" class="node">
<title>Node14</title>
<g id="a_Node000014"><a xlink:title=" ">
<polygon fill="#e0e0e0" stroke="#999999" points="590.5,-19 507.5,-19 507.5,0 590.5,0 590.5,-19"/>
<text text-anchor="middle" x="549" y="-7" font-family="Helvetica,sans-Serif" font-size="10.00">glm/vec3.hpp</text>
</a>
</g>
</g>
<!-- Node13&#45;&gt;Node14 -->
<g id="edge17_Node000013_Node000014" class="edge">
<title>Node13&#45;&gt;Node14</title>
<g id="a_edge17_Node000013_Node000014"><a xlink:title=" ">
<path fill="none" stroke="#63b8ff" d="M549,-54.75C549,-47.8 549,-37.85 549,-29.13"/>
<polygon fill="#63b8ff" stroke="#63b8ff" points="552.5,-29.09 549,-19.09 545.5,-29.09 552.5,-29.09"/>
</a>
</g>
</g>
<!-- Node15&#45;&gt;Node2 -->
<g id="edge23_Node000015_Node000002" class="edge">
<title>Node15&#45;&gt;Node2</title>
<g id="a_edge23_Node000015_Node000002"><a xlink:title=" ">
<path fill="none" stroke="#63b8ff" d="M957.8,-164.98C1035.17,-153.78 1168.6,-134.46 1230.99,-125.42"/>
<polygon fill="#63b8ff" stroke="#63b8ff" points="1231.69,-128.86 1241.08,-123.96 1230.68,-121.93 1231.69,-128.86"/>
</a>
</g>
</g>
<!-- Node15&#45;&gt;Node3 -->
<g id="edge19_Node000015_Node000003" class="edge">
<title>Node15&#45;&gt;Node3</title>
<g id="a_edge19_Node000015_Node000003"><a xlink:title=" ">
<path fill="none" stroke="#63b8ff" d="M871.04,-164.98C840.75,-155.76 792.36,-141.02 759.67,-131.06"/>
<polygon fill="#63b8ff" stroke="#63b8ff" points="760.65,-127.7 750.06,-128.13 758.61,-134.4 760.65,-127.7"/>
</a>
</g>
</g>
<!-- Node15&#45;&gt;Node4 -->
<g id="edge25_Node000015_Node000004" class="edge">
<title>Node15&#45;&gt;Node4</title>
<g id="a_edge25_Node000015_Node000004"><a xlink:title=" ">
<path fill="none" stroke="#63b8ff" d="M836.41,-167.93C741.68,-159.32 565.21,-142.53 484.36,-128.94"/>
<polygon fill="#63b8ff" stroke="#63b8ff" points="484.52,-125.41 474.06,-127.13 483.3,-132.31 484.52,-125.41"/>
</a>
</g>
</g>
<!-- Node15&#45;&gt;Node9 -->
<g id="edge22_Node000015_Node000009" class="edge">
<title>Node15&#45;&gt;Node9</title>
<g id="a_edge22_Node000015_Node000009"><a xlink:title=" ">
<path fill="none" stroke="#63b8ff" d="M878.52,-164.98C857.81,-156.27 824.96,-142.19 797,-129 787.33,-124.44 732.08,-96.24 698.35,-78.99"/>
<polygon fill="#63b8ff" stroke="#63b8ff" points="699.55,-75.67 689.05,-74.23 696.36,-81.9 699.55,-75.67"/>
</a>
</g>
</g>
<!-- Node16 -->
<g id="Node000016" class="node">
<title>Node16</title>
<g id="a_Node000016"><a xlink:title=" ">
<polygon fill="#e0e0e0" stroke="#999999" points="408,-129 364,-129 364,-110 408,-110 408,-129"/>
<text text-anchor="middle" x="386" y="-117" font-family="Helvetica,sans-Serif" font-size="10.00">string</text>
</a>
</g>
</g>
<!-- Node15&#45;&gt;Node16 -->
<g id="edge20_Node000015_Node000016" class="edge">
<title>Node15&#45;&gt;Node16</title>
<g id="a_edge20_Node000015_Node000016"><a xlink:title=" ">
<path fill="none" stroke="#63b8ff" d="M836.34,-168.33C722.07,-158.83 486.04,-138.77 418.52,-128.79"/>
<polygon fill="#63b8ff" stroke="#63b8ff" points="418.68,-125.26 408.24,-127.1 417.55,-132.17 418.68,-125.26"/>
</a>
</g>
</g>
<!-- Node17 -->
<g id="Node000017" class="node">
<title>Node17</title>
<g id="a_Node000017"><a xlink:title=" ">
<polygon fill="#e0e0e0" stroke="#999999" points="1184.5,-129 1139.5,-129 1139.5,-110 1184.5,-110 1184.5,-129"/>
<text text-anchor="middle" x="1162" y="-117" font-family="Helvetica,sans-Serif" font-size="10.00">utility</text>
</a>
</g>
</g>
<!-- Node15&#45;&gt;Node17 -->
<g id="edge21_Node000015_Node000017" class="edge">
<title>Node15&#45;&gt;Node17</title>
<g id="a_edge21_Node000015_Node000017"><a xlink:title=" ">
<path fill="none" stroke="#63b8ff" d="M948.78,-164.94C993.5,-157.02 1061.18,-144.46 1129.28,-129.03"/>
<polygon fill="#63b8ff" stroke="#63b8ff" points="1130.35,-132.37 1139.32,-126.73 1128.79,-125.55 1130.35,-132.37"/>
</a>
</g>
</g>
<!-- Node18 -->
<g id="Node000018" class="node">
<title>Node18</title>
<g id="a_Node000018"><a xlink:title=" ">
<polygon fill="#e0e0e0" stroke="#999999" points="844,-129 806,-129 806,-110 844,-110 844,-129"/>
<text text-anchor="middle" x="825" y="-117" font-family="Helvetica,sans-Serif" font-size="10.00">map</text>
</a>
</g>
</g>
<!-- Node15&#45;&gt;Node18 -->
<g id="edge24_Node000015_Node000018" class="edge">
<title>Node15&#45;&gt;Node18</title>
<g id="a_edge24_Node000015_Node000018"><a xlink:title=" ">
<path fill="none" stroke="#63b8ff" d="M887.11,-164.98C875.85,-156.92 858.71,-144.65 845.29,-135.03"/>
<polygon fill="#63b8ff" stroke="#63b8ff" points="847.27,-132.15 837.11,-129.17 843.2,-137.84 847.27,-132.15"/>
</a>
</g>
</g>
<!-- Node19 -->
<g id="Node000019" class="node">
<title>Node19</title>
<g id="a_Node000019"><a xlink:title=" ">
<polygon fill="#e0e0e0" stroke="#999999" points="948,-129 862,-129 862,-110 948,-110 948,-129"/>
<text text-anchor="middle" x="905" y="-117" font-family="Helvetica,sans-Serif" font-size="10.00">unordered_set</text>
</a>
</g>
</g>
<!-- Node15&#45;&gt;Node19 -->
<g id="edge26_Node000015_Node000019" class="edge">
<title>Node15&#45;&gt;Node19</title>
<g id="a_edge26_Node000015_Node000019"><a xlink:title=" ">
<path fill="none" stroke="#63b8ff" d="M899.99,-164.75C900.78,-157.8 901.9,-147.85 902.89,-139.13"/>
<polygon fill="#63b8ff" stroke="#63b8ff" points="906.38,-139.42 904.03,-129.09 899.42,-138.63 906.38,-139.42"/>
</a>
</g>
</g>
<!-- Node20 -->
<g id="Node000020" class="node">
<title>Node20</title>
<g id="a_Node000020"><a xlink:href="ThermalProperties_8h.html" target="_top" xlink:title=" ">
<polygon fill="white" stroke="#666666" points="1121.5,-129 966.5,-129 966.5,-110 1121.5,-110 1121.5,-129"/>
<text text-anchor="middle" x="1044" y="-117" font-family="Helvetica,sans-Serif" font-size="10.00">physics/ThermalProperties.h</text>
</a>
</g>
</g>
<!-- Node15&#45;&gt;Node20 -->
<g id="edge27_Node000015_Node000020" class="edge">
<title>Node15&#45;&gt;Node20</title>
<g id="a_edge27_Node000015_Node000020"><a xlink:title=" ">
<path fill="none" stroke="#63b8ff" d="M922.3,-164.98C946.25,-156.23 983.78,-142.51 1010.83,-132.62"/>
<polygon fill="#63b8ff" stroke="#63b8ff" points="1012.09,-135.89 1020.28,-129.17 1009.69,-129.32 1012.09,-135.89"/>
</a>
</g>
</g>
<!-- Node22&#45;&gt;Node12 -->
<g id="edge31_Node000022_Node000012" class="edge">
<title>Node22&#45;&gt;Node12</title>
<g id="a_edge31_Node000022_Node000012"><a xlink:title=" ">
<path fill="none" stroke="#63b8ff" d="M249.37,-164.79C256.79,-155.93 268.47,-141.72 278,-129 289.52,-113.63 301.92,-95.58 310.61,-82.66"/>
<polygon fill="#63b8ff" stroke="#63b8ff" points="313.57,-84.53 316.22,-74.27 307.75,-80.64 313.57,-84.53"/>
</a>
</g>
</g>
<!-- Node22&#45;&gt;Node16 -->
<g id="edge30_Node000022_Node000016" class="edge">
<title>Node22&#45;&gt;Node16</title>
<g id="a_edge30_Node000022_Node000016"><a xlink:title=" ">
<path fill="none" stroke="#63b8ff" d="M265.14,-164.98C289.25,-156.11 327.2,-142.14 354.13,-132.23"/>
<polygon fill="#63b8ff" stroke="#63b8ff" points="355.69,-135.38 363.87,-128.65 353.27,-128.82 355.69,-135.38"/>
</a>
</g>
</g>
<!-- Node23 -->
<g id="Node000023" class="node">
<title>Node23</title>
<g id="a_Node000023"><a xlink:href="OneUnknownSolver_8h.html" target="_top" xlink:title=" ">
<polygon fill="white" stroke="#666666" points="269.5,-129 148.5,-129 148.5,-110 269.5,-110 269.5,-129"/>
<text text-anchor="middle" x="209" y="-117" font-family="Helvetica,sans-Serif" font-size="10.00">OneUnknownSolver.h</text>
</a>
</g>
</g>
<!-- Node22&#45;&gt;Node23 -->
<g id="edge32_Node000022_Node000023" class="edge">
<title>Node22&#45;&gt;Node23</title>
<g id="a_edge32_Node000022_Node000023"><a xlink:title=" ">
<path fill="none" stroke="#63b8ff" d="M236.55,-164.75C231.99,-157.42 225.33,-146.73 219.71,-137.7"/>
<polygon fill="#63b8ff" stroke="#63b8ff" points="222.6,-135.73 214.35,-129.09 216.66,-139.43 222.6,-135.73"/>
</a>
</g>
</g>
<!-- Node25 -->
<g id="Node000025" class="node">
<title>Node25</title>
<g id="a_Node000025"><a xlink:href="VectorRootSolver_8h.html" target="_top" xlink:title=" ">
<polygon fill="white" stroke="#666666" points="130.5,-129 21.5,-129 21.5,-110 130.5,-110 130.5,-129"/>
<text text-anchor="middle" x="76" y="-117" font-family="Helvetica,sans-Serif" font-size="10.00">VectorRootSolver.h</text>
</a>
</g>
</g>
<!-- Node22&#45;&gt;Node25 -->
<g id="edge34_Node000022_Node000025" class="edge">
<title>Node22&#45;&gt;Node25</title>
<g id="a_edge34_Node000022_Node000025"><a xlink:title=" ">
<path fill="none" stroke="#63b8ff" d="M215.33,-164.98C187.46,-156.09 143.55,-142.07 112.48,-132.15"/>
<polygon fill="#63b8ff" stroke="#63b8ff" points="113.47,-128.79 102.88,-129.08 111.34,-135.46 113.47,-128.79"/>
</a>
</g>
</g>
<!-- Node24 -->
<g id="Node000024" class="node">
<title>Node24</title>
<g id="a_Node000024"><a xlink:title=" ">
<polygon fill="#e0e0e0" stroke="#999999" points="228.5,-74 163.5,-74 163.5,-55 228.5,-55 228.5,-74"/>
<text text-anchor="middle" x="196" y="-62" font-family="Helvetica,sans-Serif" font-size="10.00">functional</text>
</a>
</g>
</g>
<!-- Node23&#45;&gt;Node24 -->
<g id="edge33_Node000023_Node000024" class="edge">
<title>Node23&#45;&gt;Node24</title>
<g id="a_edge33_Node000023_Node000024"><a xlink:title=" ">
<path fill="none" stroke="#63b8ff" d="M206.85,-109.75C205.13,-102.72 202.65,-92.62 200.5,-83.84"/>
<polygon fill="#63b8ff" stroke="#63b8ff" points="203.89,-82.97 198.11,-74.09 197.09,-84.63 203.89,-82.97"/>
</a>
</g>
</g>
<!-- Node25&#45;&gt;Node9 -->
<g id="edge37_Node000025_Node000009" class="edge">
<title>Node25&#45;&gt;Node9</title>
<g id="a_edge37_Node000025_Node000009"><a xlink:title=" ">
<path fill="none" stroke="#63b8ff" d="M130.61,-110.94C133.45,-110.61 136.26,-110.29 139,-110 340.26,-88.46 391.47,-92.83 593,-74 602.58,-73.1 612.81,-72.07 622.62,-71.03"/>
<polygon fill="#63b8ff" stroke="#63b8ff" points="623.07,-74.5 632.64,-69.95 622.33,-67.54 623.07,-74.5"/>
</a>
</g>
</g>
<!-- Node25&#45;&gt;Node24 -->
<g id="edge36_Node000025_Node000024" class="edge">
<title>Node25&#45;&gt;Node24</title>
<g id="a_edge36_Node000025_Node000024"><a xlink:title=" ">
<path fill="none" stroke="#63b8ff" d="M95.28,-109.98C114.67,-101.42 144.81,-88.11 167.07,-78.28"/>
<polygon fill="#63b8ff" stroke="#63b8ff" points="168.64,-81.41 176.37,-74.17 165.81,-75.01 168.64,-81.41"/>
</a>
</g>
</g>
<!-- Node26 -->
<g id="Node000026" class="node">
<title>Node26</title>
<g id="a_Node000026"><a xlink:title=" ">
<polygon fill="#e0e0e0" stroke="#999999" points="42,-74 0,-74 0,-55 42,-55 42,-74"/>
<text text-anchor="middle" x="21" y="-62" font-family="Helvetica,sans-Serif" font-size="10.00">array</text>
</a>
</g>
</g>
<!-- Node25&#45;&gt;Node26 -->
<g id="edge35_Node000025_Node000026" class="edge">
<title>Node25&#45;&gt;Node26</title>
<g id="a_edge35_Node000025_Node000026"><a xlink:title=" ">
<path fill="none" stroke="#63b8ff" d="M66.92,-109.75C58.91,-102.03 47.04,-90.6 37.38,-81.28"/>
<polygon fill="#63b8ff" stroke="#63b8ff" points="39.54,-78.51 29.91,-74.09 34.69,-83.55 39.54,-78.51"/>
</a>
</g>
</g>
<!-- Node27 -->
<g id="Node000027" class="node">
<title>Node27</title>
<g id="a_Node000027"><a xlink:href="ISolver_8h.html" target="_top" xlink:title="Abstract interface for numerical solvers.">
<polygon fill="white" stroke="#666666" points="119.5,-74 60.5,-74 60.5,-55 119.5,-55 119.5,-74"/>
<text text-anchor="middle" x="90" y="-62" font-family="Helvetica,sans-Serif" font-size="10.00">ISolver.h</text>
</a>
</g>
</g>
<!-- Node25&#45;&gt;Node27 -->
<g id="edge38_Node000025_Node000027" class="edge">
<title>Node25&#45;&gt;Node27</title>
<g id="a_edge38_Node000025_Node000027"><a xlink:title=" ">
<path fill="none" stroke="#63b8ff" d="M78.31,-109.75C80.17,-102.72 82.84,-92.62 85.15,-83.84"/>
<polygon fill="#63b8ff" stroke="#63b8ff" points="88.56,-84.65 87.73,-74.09 81.79,-82.86 88.56,-84.65"/>
</a>
</g>
</g>
<!-- Node28&#45;&gt;Node2 -->
<g id="edge43_Node000028_Node000002" class="edge">
<title>Node28&#45;&gt;Node2</title>
<g id="a_edge43_Node000028_Node000002"><a xlink:title=" ">
<path fill="none" stroke="#63b8ff" d="M1184.2,-219.66C1198.91,-201.61 1232.59,-160.28 1251.49,-137.08"/>
<polygon fill="#63b8ff" stroke="#63b8ff" points="1254.34,-139.12 1257.95,-129.16 1248.91,-134.7 1254.34,-139.12"/>
</a>
</g>
</g>
<!-- Node28&#45;&gt;Node9 -->
<g id="edge42_Node000028_Node000009" class="edge">
<title>Node28&#45;&gt;Node9</title>
<g id="a_edge42_Node000028_Node000009"><a xlink:title=" ">
<path fill="none" stroke="#63b8ff" d="M1224.29,-224.05C1250.65,-218.88 1281.41,-207.77 1298,-184 1316.82,-157.03 1320.42,-134.07 1298,-110 1258.97,-68.1 861.84,-65.01 721.12,-65.24"/>
<polygon fill="#63b8ff" stroke="#63b8ff" points="721.03,-61.74 711.04,-65.26 721.05,-68.74 721.03,-61.74"/>
</a>
</g>
</g>
<!-- Node28&#45;&gt;Node15 -->
<g id="edge40_Node000028_Node000015" class="edge">
<title>Node28&#45;&gt;Node15</title>
<g id="a_edge40_Node000028_Node000015"><a xlink:title=" ">
<path fill="none" stroke="#63b8ff" d="M1132.33,-219.98C1083.84,-210.74 1006.35,-195.97 954.11,-186.01"/>
<polygon fill="#63b8ff" stroke="#63b8ff" points="954.49,-182.52 944.02,-184.08 953.18,-189.39 954.49,-182.52"/>
</a>
</g>
</g>
<!-- Node29 -->
<g id="Node000029" class="node">
<title>Node29</title>
<g id="a_Node000029"><a xlink:href="NodeIndex_8h.html" target="_top" xlink:title=" ">
<polygon fill="white" stroke="#666666" points="1183,-184 1105,-184 1105,-165 1183,-165 1183,-184"/>
<text text-anchor="middle" x="1144" y="-172" font-family="Helvetica,sans-Serif" font-size="10.00">NodeIndex.h</text>
</a>
</g>
</g>
<!-- Node28&#45;&gt;Node29 -->
<g id="edge41_Node000028_Node000029" class="edge">
<title>Node28&#45;&gt;Node29</title>
<g id="a_edge41_Node000028_Node000029"><a xlink:title=" ">
<path fill="none" stroke="#63b8ff" d="M1171.55,-219.75C1166.99,-212.42 1160.33,-201.73 1154.71,-192.7"/>
<polygon fill="#63b8ff" stroke="#63b8ff" points="1157.6,-190.73 1149.35,-184.09 1151.66,-194.43 1157.6,-190.73"/>
</a>
</g>
</g>
<!-- Node30 -->
<g id="Node000030" class="node">
<title>Node30</title>
<g id="a_Node000030"><a xlink:title=" ">
<polygon fill="#e0e0e0" stroke="#999999" points="1289,-184 1239,-184 1239,-165 1289,-165 1289,-184"/>
<text text-anchor="middle" x="1264" y="-172" font-family="Helvetica,sans-Serif" font-size="10.00">cstdint</text>
</a>
</g>
</g>
<!-- Node28&#45;&gt;Node30 -->
<g id="edge44_Node000028_Node000030" class="edge">
<title>Node28&#45;&gt;Node30</title>
<g id="a_edge44_Node000028_Node000030"><a xlink:title=" ">
<path fill="none" stroke="#63b8ff" d="M1190.98,-219.98C1204.47,-211.77 1225.13,-199.18 1241.04,-189.49"/>
<polygon fill="#63b8ff" stroke="#63b8ff" points="1243.05,-192.36 1249.77,-184.17 1239.41,-186.38 1243.05,-192.36"/>
</a>
</g>
</g>
<!-- Node31&#45;&gt;Node9 -->
<g id="edge46_Node000031_Node000009" class="edge">
<title>Node31&#45;&gt;Node9</title>
<g id="a_edge46_Node000031_Node000009"><a xlink:title=" ">
<path fill="none" stroke="#63b8ff" d="M1014.49,-219.95C1031.02,-206.8 1064.49,-181.39 1096,-165 1139.96,-142.13 1226.52,-146.5 1193,-110 1161.49,-75.69 845.55,-67.79 721.56,-66.01"/>
<polygon fill="#63b8ff" stroke="#63b8ff" points="721.27,-62.5 711.22,-65.87 721.17,-69.5 721.27,-62.5"/>
</a>
</g>
</g>
<!-- Node31&#45;&gt;Node15 -->
<g id="edge51_Node000031_Node000015" class="edge">
<title>Node31&#45;&gt;Node15</title>
<g id="a_edge51_Node000031_Node000015"><a xlink:title=" ">
<path fill="none" stroke="#63b8ff" d="M987.13,-219.98C970.39,-211.54 944.5,-198.47 925.11,-188.68"/>
<polygon fill="#63b8ff" stroke="#63b8ff" points="926.68,-185.55 916.18,-184.17 923.53,-191.8 926.68,-185.55"/>
</a>
</g>
</g>
<!-- Node31&#45;&gt;Node29 -->
<g id="edge50_Node000031_Node000029" class="edge">
<title>Node31&#45;&gt;Node29</title>
<g id="a_edge50_Node000031_Node000029"><a xlink:title=" ">
<path fill="none" stroke="#63b8ff" d="M1026.49,-219.98C1049.52,-211.27 1085.54,-197.63 1111.63,-187.75"/>
<polygon fill="#63b8ff" stroke="#63b8ff" points="1112.98,-190.98 1121.1,-184.17 1110.51,-184.44 1112.98,-190.98"/>
</a>
</g>
</g>
<!-- Node32 -->
<g id="Node000032" class="node">
<title>Node32</title>
<g id="a_Node000032"><a xlink:href="AABB_8h.html" target="_top" xlink:title=" ">
<polygon fill="white" stroke="#666666" points="774,-184 664,-184 664,-165 774,-165 774,-184"/>
<text text-anchor="middle" x="719" y="-172" font-family="Helvetica,sans-Serif" font-size="10.00">../bounding/AABB.h</text>
</a>
</g>
</g>
<!-- Node31&#45;&gt;Node32 -->
<g id="edge47_Node000031_Node000032" class="edge">
<title>Node31&#45;&gt;Node32</title>
<g id="a_edge47_Node000031_Node000032"><a xlink:title=" ">
<path fill="none" stroke="#63b8ff" d="M962.25,-220.74C912.77,-211.53 830.09,-196.16 775.05,-185.92"/>
<polygon fill="#63b8ff" stroke="#63b8ff" points="775.59,-182.46 765.11,-184.08 774.31,-189.35 775.59,-182.46"/>
</a>
</g>
</g>
<!-- Node32&#45;&gt;Node9 -->
<g id="edge48_Node000032_Node000009" class="edge">
<title>Node32&#45;&gt;Node9</title>
<g id="a_edge48_Node000032_Node000009"><a xlink:title=" ">
<path fill="none" stroke="#63b8ff" d="M712.45,-164.7C706.23,-156.01 696.96,-142.13 691,-129 684.45,-114.57 679.45,-97.3 676.23,-84.41"/>
<polygon fill="#63b8ff" stroke="#63b8ff" points="679.57,-83.32 673.86,-74.4 672.75,-84.94 679.57,-83.32"/>
</a>
</g>
</g>
<!-- Node32&#45;&gt;Node11 -->
<g id="edge49_Node000032_Node000011" class="edge">
<title>Node32&#45;&gt;Node11</title>
<g id="a_edge49_Node000032_Node000011"><a xlink:title=" ">
<path fill="none" stroke="#63b8ff" d="M691.69,-164.98C663.15,-156.09 618.17,-142.07 586.36,-132.15"/>
<polygon fill="#63b8ff" stroke="#63b8ff" points="587.12,-128.72 576.53,-129.08 585.03,-135.4 587.12,-128.72"/>
</a>
</g>
</g>
</g>
</svg>
