<?xml version="1.0" encoding="UTF-8" standalone="no"?>
<!DOCTYPE svg PUBLIC "-//W3C//DTD SVG 1.1//EN"
 "http://www.w3.org/Graphics/SVG/1.1/DTD/svg11.dtd">
<!-- Generated by graphviz version 2.43.0 (0)
 -->
<!-- Title: src/physics/PointMass.h Pages: 1 -->
<svg width="617pt" height="137pt"
 viewBox="0.00 0.00 616.50 137.00" xmlns="http://www.w3.org/2000/svg" xmlns:xlink="http://www.w3.org/1999/xlink">
<g id="graph0" class="graph" transform="scale(1 1) rotate(0) translate(4 133)">
<title>src/physics/PointMass.h</title>
<!-- Node1 -->
<g id="Node000001" class="node">
<title>Node1</title>
<g id="a_Node000001"><a xlink:title=" ">
<polygon fill="#999999" stroke="#666666" points="226,-129 93,-129 93,-110 226,-110 226,-129"/>
<text text-anchor="middle" x="159.5" y="-117" font-family="Helvetica,sans-Serif" font-size="10.00">src/physics/PointMass.h</text>
</a>
</g>
</g>
<!-- Node2 -->
<g id="Node000002" class="node">
<title>Node2</title>
<g id="a_Node000002"><a xlink:title=" ">
<polygon fill="#e0e0e0" stroke="#999999" points="93,-74 0,-74 0,-55 93,-55 93,-74"/>
<text text-anchor="middle" x="46.5" y="-62" font-family="Helvetica,sans-Serif" font-size="10.00">unordered_map</text>
</a>
</g>
</g>
<!-- Node1&#45;&gt;Node2 -->
<g id="edge1_Node000001_Node000002" class="edge">
<title>Node1&#45;&gt;Node2</title>
<g id="a_edge1_Node000001_Node000002"><a xlink:title=" ">
<path fill="none" stroke="#63b8ff" d="M141.34,-109.98C123.25,-101.5 95.22,-88.35 74.31,-78.54"/>
<polygon fill="#63b8ff" stroke="#63b8ff" points="75.53,-75.25 64.99,-74.17 72.55,-81.59 75.53,-75.25"/>
</a>
</g>
</g>
<!-- Node3 -->
<g id="Node000003" class="node">
<title>Node3</title>
<g id="a_Node000003"><a xlink:title=" ">
<polygon fill="#e0e0e0" stroke="#999999" points="92,-19 45,-19 45,0 92,0 92,-19"/>
<text text-anchor="middle" x="68.5" y="-7" font-family="Helvetica,sans-Serif" font-size="10.00">vector</text>
</a>
</g>
</g>
<!-- Node1&#45;&gt;Node3 -->
<g id="edge2_Node000001_Node000003" class="edge">
<title>Node1&#45;&gt;Node3</title>
<g id="a_edge2_Node000001_Node000003"><a xlink:title=" ">
<path fill="none" stroke="#63b8ff" d="M152.05,-109.66C136.85,-91.61 102.02,-50.28 82.47,-27.08"/>
<polygon fill="#63b8ff" stroke="#63b8ff" points="84.92,-24.55 75.8,-19.16 79.56,-29.06 84.92,-24.55"/>
</a>
</g>
</g>
<!-- Node4 -->
<g id="Node000004" class="node">
<title>Node4</title>
<g id="a_Node000004"><a xlink:title=" ">
<polygon fill="#e0e0e0" stroke="#999999" points="188.5,-19 110.5,-19 110.5,0 188.5,0 188.5,-19"/>
<text text-anchor="middle" x="149.5" y="-7" font-family="Helvetica,sans-Serif" font-size="10.00">glm/glm.hpp</text>
</a>
</g>
</g>
<!-- Node1&#45;&gt;Node4 -->
<g id="edge3_Node000001_Node000004" class="edge">
<title>Node1&#45;&gt;Node4</title>
<g id="a_edge3_Node000001_Node000004"><a xlink:title=" ">
<path fill="none" stroke="#63b8ff" d="M158.68,-109.66C157.06,-92.17 153.42,-52.8 151.24,-29.27"/>
<polygon fill="#63b8ff" stroke="#63b8ff" points="154.71,-28.79 150.3,-19.16 147.74,-29.44 154.71,-28.79"/>
</a>
</g>
</g>
<!-- Node5 -->
<g id="Node000005" class="node">
<title>Node5</title>
<g id="a_Node000005"><a xlink:title=" ">
<polygon fill="#e0e0e0" stroke="#999999" points="254.5,-19 206.5,-19 206.5,0 254.5,0 254.5,-19"/>
<text text-anchor="middle" x="230.5" y="-7" font-family="Helvetica,sans-Serif" font-size="10.00">mutex</text>
</a>
</g>
</g>
<!-- Node1&#45;&gt;Node5 -->
<g id="edge4_Node000001_Node000005" class="edge">
<title>Node1&#45;&gt;Node5</title>
<g id="a_edge4_Node000001_Node000005"><a xlink:title=" ">
<path fill="none" stroke="#63b8ff" d="M165.31,-109.66C177.07,-91.77 203.87,-51 219.2,-27.69"/>
<polygon fill="#63b8ff" stroke="#63b8ff" points="222.24,-29.44 224.81,-19.16 216.39,-25.59 222.24,-29.44"/>
</a>
</g>
</g>
<!-- Node6 -->
<g id="Node000006" class="node">
<title>Node6</title>
<g id="a_Node000006"><a xlink:href="PhysicsBody_8h.html" target="_top" xlink:title=" ">
<polygon fill="white" stroke="#666666" points="378,-74 253,-74 253,-55 378,-55 378,-74"/>
<text text-anchor="middle" x="315.5" y="-62" font-family="Helvetica,sans-Serif" font-size="10.00">physics/PhysicsBody.h</text>
</a>
</g>
</g>
<!-- Node1&#45;&gt;Node6 -->
<g id="edge5_Node000001_Node000006" class="edge">
<title>Node1&#45;&gt;Node6</title>
<g id="a_edge5_Node000001_Node000006"><a xlink:title=" ">
<path fill="none" stroke="#63b8ff" d="M184.56,-109.98C210.53,-101.16 251.31,-87.31 280.46,-77.41"/>
<polygon fill="#63b8ff" stroke="#63b8ff" points="281.9,-80.61 290.24,-74.08 279.65,-73.99 281.9,-80.61"/>
</a>
</g>
</g>
<!-- Node6&#45;&gt;Node3 -->
<g id="edge10_Node000006_Node000003" class="edge">
<title>Node6&#45;&gt;Node3</title>
<g id="a_edge10_Node000006_Node000003"><a xlink:title=" ">
<path fill="none" stroke="#63b8ff" d="M271.51,-54.98C230.27,-46.86 166.67,-33.96 102.19,-19.07"/>
<polygon fill="#63b8ff" stroke="#63b8ff" points="102.79,-15.62 92.26,-16.76 101.21,-22.44 102.79,-15.62"/>
</a>
</g>
</g>
<!-- Node6&#45;&gt;Node4 -->
<g id="edge9_Node000006_Node000004" class="edge">
<title>Node6&#45;&gt;Node4</title>
<g id="a_edge9_Node000006_Node000004"><a xlink:title=" ">
<path fill="none" stroke="#63b8ff" d="M288.83,-54.98C260.96,-46.09 217.05,-32.07 185.98,-22.15"/>
<polygon fill="#63b8ff" stroke="#63b8ff" points="186.97,-18.79 176.38,-19.08 184.84,-25.46 186.97,-18.79"/>
</a>
</g>
</g>
<!-- Node6&#45;&gt;Node5 -->
<g id="edge12_Node000006_Node000005" class="edge">
<title>Node6&#45;&gt;Node5</title>
<g id="a_edge12_Node000006_Node000005"><a xlink:title=" ">
<path fill="none" stroke="#63b8ff" d="M301.84,-54.98C288.66,-46.77 268.47,-34.18 252.93,-24.49"/>
<polygon fill="#63b8ff" stroke="#63b8ff" points="254.74,-21.49 244.41,-19.17 251.04,-27.43 254.74,-21.49"/>
</a>
</g>
</g>
<!-- Node7 -->
<g id="Node000007" class="node">
<title>Node7</title>
<g id="a_Node000007"><a xlink:title=" ">
<polygon fill="#e0e0e0" stroke="#999999" points="426.5,-19 376.5,-19 376.5,0 426.5,0 426.5,-19"/>
<text text-anchor="middle" x="401.5" y="-7" font-family="Helvetica,sans-Serif" font-size="10.00">atomic</text>
</a>
</g>
</g>
<!-- Node6&#45;&gt;Node7 -->
<g id="edge6_Node000006_Node000007" class="edge">
<title>Node6&#45;&gt;Node7</title>
<g id="a_edge6_Node000006_Node000007"><a xlink:title=" ">
<path fill="none" stroke="#63b8ff" d="M329.32,-54.98C342.65,-46.77 363.08,-34.18 378.81,-24.49"/>
<polygon fill="#63b8ff" stroke="#63b8ff" points="380.75,-27.4 387.43,-19.17 377.08,-21.44 380.75,-27.4"/>
</a>
</g>
</g>
<!-- Node8 -->
<g id="Node000008" class="node">
<title>Node8</title>
<g id="a_Node000008"><a xlink:title=" ">
<polygon fill="#e0e0e0" stroke="#999999" points="488.5,-19 444.5,-19 444.5,0 488.5,0 488.5,-19"/>
<text text-anchor="middle" x="466.5" y="-7" font-family="Helvetica,sans-Serif" font-size="10.00">string</text>
</a>
</g>
</g>
<!-- Node6&#45;&gt;Node8 -->
<g id="edge7_Node000006_Node000008" class="edge">
<title>Node6&#45;&gt;Node8</title>
<g id="a_edge7_Node000006_Node000008"><a xlink:title=" ">
<path fill="none" stroke="#63b8ff" d="M339.76,-54.98C365.56,-45.93 406.48,-31.56 434.82,-21.62"/>
<polygon fill="#63b8ff" stroke="#63b8ff" points="435.99,-24.92 444.27,-18.3 433.67,-18.31 435.99,-24.92"/>
</a>
</g>
</g>
<!-- Node9 -->
<g id="Node000009" class="node">
<title>Node9</title>
<g id="a_Node000009"><a xlink:title=" ">
<polygon fill="#e0e0e0" stroke="#999999" points="552,-19 507,-19 507,0 552,0 552,-19"/>
<text text-anchor="middle" x="529.5" y="-7" font-family="Helvetica,sans-Serif" font-size="10.00">utility</text>
</a>
</g>
</g>
<!-- Node6&#45;&gt;Node9 -->
<g id="edge8_Node000006_Node000009" class="edge">
<title>Node6&#45;&gt;Node9</title>
<g id="a_edge8_Node000006_Node000009"><a xlink:title=" ">
<path fill="none" stroke="#63b8ff" d="M351.47,-54.93C386.21,-46.6 440.56,-33.44 496.98,-19.09"/>
<polygon fill="#63b8ff" stroke="#63b8ff" points="497.96,-22.45 506.79,-16.59 496.23,-15.67 497.96,-22.45"/>
</a>
</g>
</g>
<!-- Node10 -->
<g id="Node000010" class="node">
<title>Node10</title>
<g id="a_Node000010"><a xlink:title=" ">
<polygon fill="#e0e0e0" stroke="#999999" points="608.5,-19 570.5,-19 570.5,0 608.5,0 608.5,-19"/>
<text text-anchor="middle" x="589.5" y="-7" font-family="Helvetica,sans-Serif" font-size="10.00">map</text>
</a>
</g>
</g>
<!-- Node6&#45;&gt;Node10 -->
<g id="edge11_Node000006_Node000010" class="edge">
<title>Node6&#45;&gt;Node10</title>
<g id="a_edge11_Node000006_Node000010"><a xlink:title=" ">
<path fill="none" stroke="#63b8ff" d="M373.55,-54.94C421.4,-47.45 491.18,-35.51 560.52,-19.01"/>
<polygon fill="#63b8ff" stroke="#63b8ff" points="561.4,-22.4 570.3,-16.65 559.76,-15.59 561.4,-22.4"/>
</a>
</g>
</g>
<!-- Node11 -->
<g id="Node000011" class="node">
<title>Node11</title>
<g id="a_Node000011"><a xlink:title=" ">
<polygon fill="#e0e0e0" stroke="#999999" points="358.5,-19 272.5,-19 272.5,0 358.5,0 358.5,-19"/>
<text text-anchor="middle" x="315.5" y="-7" font-family="Helvetica,sans-Serif" font-size="10.00">unordered_set</text>
</a>
</g>
</g>
<!-- Node6&#45;&gt;Node11 -->
<g id="edge13_Node000006_Node000011" class="edge">
<title>Node6&#45;&gt;Node11</title>
<g id="a_edge13_Node000006_Node000011"><a xlink:title=" ">
<path fill="none" stroke="#63b8ff" d="M315.5,-54.75C315.5,-47.8 315.5,-37.85 315.5,-29.13"/>
<polygon fill="#63b8ff" stroke="#63b8ff" points="319,-29.09 315.5,-19.09 312,-29.09 319,-29.09"/>
</a>
</g>
</g>
</g>
</svg>
