<?xml version="1.0" encoding="UTF-8" standalone="no"?>
<!DOCTYPE svg PUBLIC "-//W3C//DTD SVG 1.1//EN"
 "http://www.w3.org/Graphics/SVG/1.1/DTD/svg11.dtd">
<!-- Generated by graphviz version 2.43.0 (0)
 -->
<!-- Title: src/physics/solver/ProblemRouter.h Pages: 1 -->
<svg width="2631pt" height="401pt"
 viewBox="0.00 0.00 2630.68 401.00" xmlns="http://www.w3.org/2000/svg" xmlns:xlink="http://www.w3.org/1999/xlink">
<g id="graph0" class="graph" transform="scale(1 1) rotate(0) translate(4 397)">
<title>src/physics/solver/ProblemRouter.h</title>
<!-- Node1 -->
<g id="Node000001" class="node">
<title>Node1</title>
<g id="a_Node000001"><a xlink:title=" ">
<polygon fill="#999999" stroke="#666666" points="1275.68,-393 1171.68,-393 1171.68,-363 1275.68,-363 1275.68,-393"/>
<text text-anchor="start" x="1179.68" y="-381" font-family="Helvetica,sans-Serif" font-size="10.00">src/physics/solver</text>
<text text-anchor="middle" x="1223.68" y="-370" font-family="Helvetica,sans-Serif" font-size="10.00">/ProblemRouter.h</text>
</a>
</g>
</g>
<!-- Node2 -->
<g id="Node000002" class="node">
<title>Node2</title>
<g id="a_Node000002"><a xlink:href="PhysicsSystem_8h.html" target="_top" xlink:title=" ">
<polygon fill="white" stroke="#666666" points="1106.68,-327 950.68,-327 950.68,-308 1106.68,-308 1106.68,-327"/>
<text text-anchor="middle" x="1028.68" y="-315" font-family="Helvetica,sans-Serif" font-size="10.00">src/physics/PhysicsSystem.h</text>
</a>
</g>
</g>
<!-- Node1&#45;&gt;Node2 -->
<g id="edge1_Node000001_Node000002" class="edge">
<title>Node1&#45;&gt;Node2</title>
<g id="a_edge1_Node000001_Node000002"><a xlink:title=" ">
<path fill="none" stroke="#63b8ff" d="M1167.07,-360.02C1131.05,-349.21 1085.92,-335.67 1057.19,-327.05"/>
<polygon fill="#63b8ff" stroke="#63b8ff" points="1166.39,-363.47 1176.97,-362.99 1168.4,-356.76 1166.39,-363.47"/>
</a>
</g>
</g>
<!-- Node23 -->
<g id="Node000023" class="node">
<title>Node23</title>
<g id="a_Node000023"><a xlink:href="ProblemRouter_8cpp.html" target="_top" xlink:title=" ">
<polygon fill="white" stroke="#666666" points="1369.68,-272 1257.68,-272 1257.68,-242 1369.68,-242 1369.68,-272"/>
<text text-anchor="start" x="1265.68" y="-260" font-family="Helvetica,sans-Serif" font-size="10.00">src/physics/solver</text>
<text text-anchor="middle" x="1313.68" y="-249" font-family="Helvetica,sans-Serif" font-size="10.00">/ProblemRouter.cpp</text>
</a>
</g>
</g>
<!-- Node1&#45;&gt;Node23 -->
<g id="edge49_Node000001_Node000023" class="edge">
<title>Node1&#45;&gt;Node23</title>
<g id="a_edge49_Node000001_Node000023"><a xlink:title=" ">
<path fill="none" stroke="#63b8ff" d="M1226.21,-352.87C1228.64,-338.77 1233.39,-321.2 1242.68,-308 1253.35,-292.83 1270.15,-280.7 1284.74,-272.18"/>
<polygon fill="#63b8ff" stroke="#63b8ff" points="1222.73,-352.46 1224.77,-362.86 1229.66,-353.46 1222.73,-352.46"/>
</a>
</g>
</g>
<!-- Node32 -->
<g id="Node000032" class="node">
<title>Node32</title>
<g id="a_Node000032"><a xlink:href="SolverDialog_8cpp.html" target="_top" xlink:title=" ">
<polygon fill="white" stroke="#666666" points="1379.68,-327 1251.68,-327 1251.68,-308 1379.68,-308 1379.68,-327"/>
<text text-anchor="middle" x="1315.68" y="-315" font-family="Helvetica,sans-Serif" font-size="10.00">src/ui/SolverDialog.cpp</text>
</a>
</g>
</g>
<!-- Node1&#45;&gt;Node32 -->
<g id="edge50_Node000001_Node000032" class="edge">
<title>Node1&#45;&gt;Node32</title>
<g id="a_edge50_Node000001_Node000032"><a xlink:title=" ">
<path fill="none" stroke="#63b8ff" d="M1254.58,-357.35C1270.74,-347.07 1289.7,-335.02 1302.16,-327.09"/>
<polygon fill="#63b8ff" stroke="#63b8ff" points="1252.51,-354.52 1245.95,-362.84 1256.27,-360.43 1252.51,-354.52"/>
</a>
</g>
</g>
<!-- Node3 -->
<g id="Node000003" class="node">
<title>Node3</title>
<g id="a_Node000003"><a xlink:href="SceneObject_8h.html" target="_top" xlink:title=" ">
<polygon fill="white" stroke="#666666" points="1396.68,-151 1224.68,-151 1224.68,-132 1396.68,-132 1396.68,-151"/>
<text text-anchor="middle" x="1310.68" y="-139" font-family="Helvetica,sans-Serif" font-size="10.00">src/graphics/core/SceneObject.h</text>
</a>
</g>
</g>
<!-- Node2&#45;&gt;Node3 -->
<g id="edge2_Node000002_Node000003" class="edge">
<title>Node2&#45;&gt;Node3</title>
<g id="a_edge2_Node000002_Node000003"><a xlink:title=" ">
<path fill="none" stroke="#63b8ff" d="M1116.75,-306.95C1147.94,-300.55 1182.11,-289.86 1209.68,-272 1259.45,-239.76 1295.02,-174.42 1306.61,-151.05"/>
<polygon fill="#63b8ff" stroke="#63b8ff" points="1115.89,-303.55 1106.73,-308.88 1117.22,-310.43 1115.89,-303.55"/>
</a>
</g>
</g>
<!-- Node18 -->
<g id="Node000018" class="node">
<title>Node18</title>
<g id="a_Node000018"><a xlink:href="GlobalsInspectorWidget_8cpp.html" target="_top" xlink:title=" ">
<polygon fill="white" stroke="#666666" points="955.18,-96 824.18,-96 824.18,-66 955.18,-66 955.18,-96"/>
<text text-anchor="start" x="832.18" y="-84" font-family="Helvetica,sans-Serif" font-size="10.00">src/ui/inspector/Globals</text>
<text text-anchor="middle" x="889.68" y="-73" font-family="Helvetica,sans-Serif" font-size="10.00">InspectorWidget.cpp</text>
</a>
</g>
</g>
<!-- Node2&#45;&gt;Node18 -->
<g id="edge46_Node000002_Node000018" class="edge">
<title>Node2&#45;&gt;Node18</title>
<g id="a_edge46_Node000002_Node000018"><a xlink:title=" ">
<path fill="none" stroke="#63b8ff" d="M940.26,-311.23C842.56,-304.48 696.69,-291.31 679.68,-272 615.32,-198.91 665.72,-292.39 831.68,-151 851.1,-134.46 869.3,-111.01 879.96,-96.15"/>
<polygon fill="#63b8ff" stroke="#63b8ff" points="940.22,-314.74 950.44,-311.92 940.7,-307.75 940.22,-314.74"/>
</a>
</g>
</g>
<!-- Node19 -->
<g id="Node000019" class="node">
<title>Node19</title>
<g id="a_Node000019"><a xlink:href="InspectorWidget_8cpp.html" target="_top" xlink:title=" ">
<polygon fill="white" stroke="#666666" points="1112.18,-96 973.18,-96 973.18,-66 1112.18,-66 1112.18,-96"/>
<text text-anchor="start" x="981.18" y="-84" font-family="Helvetica,sans-Serif" font-size="10.00">src/ui/inspector/Inspector</text>
<text text-anchor="middle" x="1042.68" y="-73" font-family="Helvetica,sans-Serif" font-size="10.00">Widget.cpp</text>
</a>
</g>
</g>
<!-- Node2&#45;&gt;Node19 -->
<g id="edge47_Node000002_Node000019" class="edge">
<title>Node2&#45;&gt;Node19</title>
<g id="a_edge47_Node000002_Node000019"><a xlink:title=" ">
<path fill="none" stroke="#63b8ff" d="M1029.8,-297.66C1032.52,-252.11 1039.41,-136.78 1041.82,-96.31"/>
<polygon fill="#63b8ff" stroke="#63b8ff" points="1026.3,-297.69 1029.19,-307.88 1033.28,-298.1 1026.3,-297.69"/>
</a>
</g>
</g>
<!-- Node22 -->
<g id="Node000022" class="node">
<title>Node22</title>
<g id="a_Node000022"><a xlink:href="PhysicsSystem_8cpp.html" target="_top" xlink:title=" ">
<polygon fill="white" stroke="#666666" points="856.18,-266.5 689.18,-266.5 689.18,-247.5 856.18,-247.5 856.18,-266.5"/>
<text text-anchor="middle" x="772.68" y="-254.5" font-family="Helvetica,sans-Serif" font-size="10.00">src/physics/PhysicsSystem.cpp</text>
</a>
</g>
</g>
<!-- Node2&#45;&gt;Node22 -->
<g id="edge22_Node000002_Node000022" class="edge">
<title>Node2&#45;&gt;Node22</title>
<g id="a_edge22_Node000002_Node000022"><a xlink:title=" ">
<path fill="none" stroke="#63b8ff" d="M981.64,-305.75C932.19,-294.45 855.38,-276.9 809.95,-266.52"/>
<polygon fill="#63b8ff" stroke="#63b8ff" points="980.93,-309.18 991.45,-307.99 982.48,-302.35 980.93,-309.18"/>
</a>
</g>
</g>
<!-- Node2&#45;&gt;Node23 -->
<g id="edge23_Node000002_Node000023" class="edge">
<title>Node2&#45;&gt;Node23</title>
<g id="a_edge23_Node000002_Node000023"><a xlink:title=" ">
<path fill="none" stroke="#63b8ff" d="M1080.07,-305.95C1130.08,-295.69 1205.87,-280.13 1257.46,-269.54"/>
<polygon fill="#63b8ff" stroke="#63b8ff" points="1079.21,-302.55 1070.12,-307.99 1080.62,-309.41 1079.21,-302.55"/>
</a>
</g>
</g>
<!-- Node24 -->
<g id="Node000024" class="node">
<title>Node24</title>
<g id="a_Node000024"><a xlink:href="Octree_8cpp.html" target="_top" xlink:title=" ">
<polygon fill="white" stroke="#666666" points="981.18,-272 874.18,-272 874.18,-242 981.18,-242 981.18,-272"/>
<text text-anchor="start" x="882.18" y="-260" font-family="Helvetica,sans-Serif" font-size="10.00">src/physics/spatial</text>
<text text-anchor="middle" x="927.68" y="-249" font-family="Helvetica,sans-Serif" font-size="10.00">/Octree.cpp</text>
</a>
</g>
</g>
<!-- Node2&#45;&gt;Node24 -->
<g id="edge24_Node000002_Node000024" class="edge">
<title>Node2&#45;&gt;Node24</title>
<g id="a_edge24_Node000002_Node000024"><a xlink:title=" ">
<path fill="none" stroke="#63b8ff" d="M1005.05,-302.81C989.11,-293.58 968.14,-281.43 952.05,-272.11"/>
<polygon fill="#63b8ff" stroke="#63b8ff" points="1003.37,-305.88 1013.78,-307.87 1006.88,-299.83 1003.37,-305.88"/>
</a>
</g>
</g>
<!-- Node25 -->
<g id="Node000025" class="node">
<title>Node25</title>
<g id="a_Node000025"><a xlink:href="OpenGLWindow_8cpp.html" target="_top" xlink:title=" ">
<polygon fill="white" stroke="#666666" points="822.68,-151 680.68,-151 680.68,-132 822.68,-132 822.68,-151"/>
<text text-anchor="middle" x="751.68" y="-139" font-family="Helvetica,sans-Serif" font-size="10.00">src/ui/OpenGLWindow.cpp</text>
</a>
</g>
</g>
<!-- Node2&#45;&gt;Node25 -->
<g id="edge25_Node000002_Node000025" class="edge">
<title>Node2&#45;&gt;Node25</title>
<g id="a_edge25_Node000002_Node000025"><a xlink:title=" ">
<path fill="none" stroke="#63b8ff" d="M1023.14,-298.28C1017.25,-281.65 1006.45,-257.38 989.68,-242 933.24,-190.23 846.01,-163.23 794.3,-151"/>
<polygon fill="#63b8ff" stroke="#63b8ff" points="1019.87,-299.53 1026.31,-307.94 1026.52,-297.34 1019.87,-299.53"/>
</a>
</g>
</g>
<!-- Node26 -->
<g id="Node000026" class="node">
<title>Node26</title>
<g id="a_Node000026"><a xlink:href="OpenGLWindow_8h.html" target="_top" xlink:title=" ">
<polygon fill="white" stroke="#666666" points="633.18,-266.5 502.18,-266.5 502.18,-247.5 633.18,-247.5 633.18,-266.5"/>
<text text-anchor="middle" x="567.68" y="-254.5" font-family="Helvetica,sans-Serif" font-size="10.00">src/ui/OpenGLWindow.h</text>
</a>
</g>
</g>
<!-- Node2&#45;&gt;Node26 -->
<g id="edge26_Node000002_Node000026" class="edge">
<title>Node2&#45;&gt;Node26</title>
<g id="a_edge26_Node000002_Node000026"><a xlink:title=" ">
<path fill="none" stroke="#63b8ff" d="M940.25,-307.61C862.91,-299.5 747.64,-286.57 647.68,-272 636.66,-270.39 624.82,-268.44 613.72,-266.52"/>
<polygon fill="#63b8ff" stroke="#63b8ff" points="940.12,-311.12 950.43,-308.68 940.85,-304.16 940.12,-311.12"/>
</a>
</g>
</g>
<!-- Node31 -->
<g id="Node000031" class="node">
<title>Node31</title>
<g id="a_Node000031"><a xlink:href="PhysicsTests_8cpp.html" target="_top" xlink:title=" ">
<polygon fill="white" stroke="#666666" points="1201.18,-266.5 1076.18,-266.5 1076.18,-247.5 1201.18,-247.5 1201.18,-266.5"/>
<text text-anchor="middle" x="1138.68" y="-254.5" font-family="Helvetica,sans-Serif" font-size="10.00">tests/PhysicsTests.cpp</text>
</a>
</g>
</g>
<!-- Node2&#45;&gt;Node31 -->
<g id="edge48_Node000002_Node000031" class="edge">
<title>Node2&#45;&gt;Node31</title>
<g id="a_edge48_Node000002_Node000031"><a xlink:title=" ">
<path fill="none" stroke="#63b8ff" d="M1053.92,-303.08C1074.96,-291.88 1104.32,-276.27 1122.38,-266.67"/>
<polygon fill="#63b8ff" stroke="#63b8ff" points="1052.09,-300.08 1044.91,-307.87 1055.38,-306.26 1052.09,-300.08"/>
</a>
</g>
</g>
<!-- Node4 -->
<g id="Node000004" class="node">
<title>Node4</title>
<g id="a_Node000004"><a xlink:href="Gizmo_8cpp.html" target="_top" xlink:title=" ">
<polygon fill="white" stroke="#666666" points="1379.68,-30 1241.68,-30 1241.68,0 1379.68,0 1379.68,-30"/>
<text text-anchor="start" x="1249.68" y="-18" font-family="Helvetica,sans-Serif" font-size="10.00">src/graphics/components</text>
<text text-anchor="middle" x="1310.68" y="-7" font-family="Helvetica,sans-Serif" font-size="10.00">/Gizmo.cpp</text>
</a>
</g>
</g>
<!-- Node3&#45;&gt;Node4 -->
<g id="edge3_Node000003_Node000004" class="edge">
<title>Node3&#45;&gt;Node4</title>
<g id="a_edge3_Node000003_Node000004"><a xlink:title=" ">
<path fill="none" stroke="#63b8ff" d="M1310.68,-121.91C1310.68,-96.83 1310.68,-52.72 1310.68,-30.16"/>
<polygon fill="#63b8ff" stroke="#63b8ff" points="1307.18,-121.94 1310.68,-131.94 1314.18,-121.94 1307.18,-121.94"/>
</a>
</g>
</g>
<!-- Node5 -->
<g id="Node000005" class="node">
<title>Node5</title>
<g id="a_Node000005"><a xlink:href="RotateHandle_8cpp.html" target="_top" xlink:title=" ">
<polygon fill="white" stroke="#666666" points="1476.68,-96 1338.68,-96 1338.68,-66 1476.68,-66 1476.68,-96"/>
<text text-anchor="start" x="1346.68" y="-84" font-family="Helvetica,sans-Serif" font-size="10.00">src/graphics/components</text>
<text text-anchor="middle" x="1407.68" y="-73" font-family="Helvetica,sans-Serif" font-size="10.00">/RotateHandle.cpp</text>
</a>
</g>
</g>
<!-- Node3&#45;&gt;Node5 -->
<g id="edge4_Node000003_Node000005" class="edge">
<title>Node3&#45;&gt;Node5</title>
<g id="a_edge4_Node000003_Node000005"><a xlink:title=" ">
<path fill="none" stroke="#63b8ff" d="M1333.8,-126.55C1349.05,-117.36 1368.97,-105.35 1384.27,-96.11"/>
<polygon fill="#63b8ff" stroke="#63b8ff" points="1331.75,-123.71 1324.99,-131.87 1335.36,-129.7 1331.75,-123.71"/>
</a>
</g>
</g>
<!-- Node6 -->
<g id="Node000006" class="node">
<title>Node6</title>
<g id="a_Node000006"><a xlink:href="ScaleHandle_8h.html" target="_top" xlink:title=" ">
<polygon fill="white" stroke="#666666" points="2622.68,-96 2484.68,-96 2484.68,-66 2622.68,-66 2622.68,-96"/>
<text text-anchor="start" x="2492.68" y="-84" font-family="Helvetica,sans-Serif" font-size="10.00">src/graphics/components</text>
<text text-anchor="middle" x="2553.68" y="-73" font-family="Helvetica,sans-Serif" font-size="10.00">/ScaleHandle.h</text>
</a>
</g>
</g>
<!-- Node3&#45;&gt;Node6 -->
<g id="edge5_Node000003_Node000006" class="edge">
<title>Node3&#45;&gt;Node6</title>
<g id="a_edge5_Node000003_Node000006"><a xlink:title=" ">
<path fill="none" stroke="#63b8ff" d="M1407.02,-141.35C1606.87,-142.12 2080.84,-138.76 2475.68,-96 2478.55,-95.69 2481.48,-95.33 2484.43,-94.95"/>
<polygon fill="#63b8ff" stroke="#63b8ff" points="1406.86,-137.85 1396.84,-141.31 1406.83,-144.85 1406.86,-137.85"/>
</a>
</g>
</g>
<!-- Node8 -->
<g id="Node000008" class="node">
<title>Node8</title>
<g id="a_Node000008"><a xlink:href="TranslateHandle_8cpp.html" target="_top" xlink:title=" ">
<polygon fill="white" stroke="#666666" points="1632.68,-96 1494.68,-96 1494.68,-66 1632.68,-66 1632.68,-96"/>
<text text-anchor="start" x="1502.68" y="-84" font-family="Helvetica,sans-Serif" font-size="10.00">src/graphics/components</text>
<text text-anchor="middle" x="1563.68" y="-73" font-family="Helvetica,sans-Serif" font-size="10.00">/TranslateHandle.cpp</text>
</a>
</g>
</g>
<!-- Node3&#45;&gt;Node8 -->
<g id="edge8_Node000003_Node000008" class="edge">
<title>Node3&#45;&gt;Node8</title>
<g id="a_edge8_Node000003_Node000008"><a xlink:title=" ">
<path fill="none" stroke="#63b8ff" d="M1357.45,-129.68C1398.41,-120.21 1458.19,-106.39 1502.85,-96.06"/>
<polygon fill="#63b8ff" stroke="#63b8ff" points="1356.42,-126.33 1347.47,-131.99 1358,-133.15 1356.42,-126.33"/>
</a>
</g>
</g>
<!-- Node9 -->
<g id="Node000009" class="node">
<title>Node9</title>
<g id="a_Node000009"><a xlink:href="Camera_8cpp.html" target="_top" xlink:title=" ">
<polygon fill="white" stroke="#666666" points="1812.18,-90.5 1651.18,-90.5 1651.18,-71.5 1812.18,-71.5 1812.18,-90.5"/>
<text text-anchor="middle" x="1731.68" y="-78.5" font-family="Helvetica,sans-Serif" font-size="10.00">src/graphics/core/Camera.cpp</text>
</a>
</g>
</g>
<!-- Node3&#45;&gt;Node9 -->
<g id="edge9_Node000003_Node000009" class="edge">
<title>Node3&#45;&gt;Node9</title>
<g id="a_edge9_Node000003_Node000009"><a xlink:title=" ">
<path fill="none" stroke="#63b8ff" d="M1387.06,-130.69C1454.19,-121.95 1554.49,-108.64 1641.68,-96 1653.42,-94.3 1666,-92.39 1677.93,-90.55"/>
<polygon fill="#63b8ff" stroke="#63b8ff" points="1386.46,-127.24 1376.99,-131.99 1387.36,-134.18 1386.46,-127.24"/>
</a>
</g>
</g>
<!-- Node10 -->
<g id="Node000010" class="node">
<title>Node10</title>
<g id="a_Node000010"><a xlink:href="Scene_8cpp.html" target="_top" xlink:title=" ">
<polygon fill="white" stroke="#666666" points="1282.68,-90.5 1130.68,-90.5 1130.68,-71.5 1282.68,-71.5 1282.68,-90.5"/>
<text text-anchor="middle" x="1206.68" y="-78.5" font-family="Helvetica,sans-Serif" font-size="10.00">src/graphics/core/Scene.cpp</text>
</a>
</g>
</g>
<!-- Node3&#45;&gt;Node10 -->
<g id="edge10_Node000003_Node000010" class="edge">
<title>Node3&#45;&gt;Node10</title>
<g id="a_edge10_Node000003_Node000010"><a xlink:title=" ">
<path fill="none" stroke="#63b8ff" d="M1286.54,-126.92C1266.67,-115.74 1239.09,-100.23 1222.09,-90.67"/>
<polygon fill="#63b8ff" stroke="#63b8ff" points="1284.9,-130.02 1295.33,-131.87 1288.33,-123.91 1284.9,-130.02"/>
</a>
</g>
</g>
<!-- Node11 -->
<g id="Node000011" class="node">
<title>Node11</title>
<g id="a_Node000011"><a xlink:href="SceneManager_8cpp.html" target="_top" xlink:title=" ">
<polygon fill="white" stroke="#666666" points="389.68,-90.5 195.68,-90.5 195.68,-71.5 389.68,-71.5 389.68,-90.5"/>
<text text-anchor="middle" x="292.68" y="-78.5" font-family="Helvetica,sans-Serif" font-size="10.00">src/graphics/core/SceneManager.cpp</text>
</a>
</g>
</g>
<!-- Node3&#45;&gt;Node11 -->
<g id="edge11_Node000003_Node000011" class="edge">
<title>Node3&#45;&gt;Node11</title>
<g id="a_edge11_Node000003_Node000011"><a xlink:title=" ">
<path fill="none" stroke="#63b8ff" d="M1214.16,-138.41C1047.52,-134.21 695.2,-122.77 398.68,-96 383.06,-94.59 366.2,-92.59 350.62,-90.53"/>
<polygon fill="#63b8ff" stroke="#63b8ff" points="1214.3,-141.91 1224.38,-138.66 1214.47,-134.91 1214.3,-141.91"/>
</a>
</g>
</g>
<!-- Node12 -->
<g id="Node000012" class="node">
<title>Node12</title>
<g id="a_Node000012"><a xlink:href="SceneObject_8cpp.html" target="_top" xlink:title=" ">
<polygon fill="white" stroke="#666666" points="806.18,-90.5 623.18,-90.5 623.18,-71.5 806.18,-71.5 806.18,-90.5"/>
<text text-anchor="middle" x="714.68" y="-78.5" font-family="Helvetica,sans-Serif" font-size="10.00">src/graphics/core/SceneObject.cpp</text>
</a>
</g>
</g>
<!-- Node3&#45;&gt;Node12 -->
<g id="edge12_Node000003_Node000012" class="edge">
<title>Node3&#45;&gt;Node12</title>
<g id="a_edge12_Node000003_Node000012"><a xlink:title=" ">
<path fill="none" stroke="#63b8ff" d="M1214.44,-133.29C1114.4,-125.46 953.36,-111.92 814.68,-96 800.83,-94.41 785.94,-92.46 771.99,-90.52"/>
<polygon fill="#63b8ff" stroke="#63b8ff" points="1214.28,-136.79 1224.53,-134.07 1214.83,-129.81 1214.28,-136.79"/>
</a>
</g>
</g>
<!-- Node13 -->
<g id="Node000013" class="node">
<title>Node13</title>
<g id="a_Node000013"><a xlink:href="SceneSerializer_8cpp.html" target="_top" xlink:title=" ">
<polygon fill="white" stroke="#666666" points="605.18,-90.5 408.18,-90.5 408.18,-71.5 605.18,-71.5 605.18,-90.5"/>
<text text-anchor="middle" x="506.68" y="-78.5" font-family="Helvetica,sans-Serif" font-size="10.00">src/graphics/core/SceneSerializer.cpp</text>
</a>
</g>
</g>
<!-- Node3&#45;&gt;Node13 -->
<g id="edge13_Node000003_Node000013" class="edge">
<title>Node3&#45;&gt;Node13</title>
<g id="a_edge13_Node000003_Node000013"><a xlink:title=" ">
<path fill="none" stroke="#63b8ff" d="M1214.13,-136.36C1079.44,-130.13 827.6,-116.8 613.68,-96 598.29,-94.5 581.71,-92.52 566.3,-90.51"/>
<polygon fill="#63b8ff" stroke="#63b8ff" points="1214.27,-139.87 1224.42,-136.84 1214.59,-132.88 1214.27,-139.87"/>
</a>
</g>
</g>
<!-- Node14 -->
<g id="Node000014" class="node">
<title>Node14</title>
<g id="a_Node000014"><a xlink:href="HierarchyWidget_8h.html" target="_top" xlink:title=" ">
<polygon fill="white" stroke="#666666" points="1967.18,-90.5 1830.18,-90.5 1830.18,-71.5 1967.18,-71.5 1967.18,-90.5"/>
<text text-anchor="middle" x="1898.68" y="-78.5" font-family="Helvetica,sans-Serif" font-size="10.00">src/ui/HierarchyWidget.h</text>
</a>
</g>
</g>
<!-- Node3&#45;&gt;Node14 -->
<g id="edge14_Node000003_Node000014" class="edge">
<title>Node3&#45;&gt;Node14</title>
<g id="a_edge14_Node000003_Node000014"><a xlink:title=" ">
<path fill="none" stroke="#63b8ff" d="M1406.9,-134.8C1509.84,-128.07 1677.75,-115.31 1821.68,-96 1832.72,-94.52 1844.59,-92.55 1855.62,-90.56"/>
<polygon fill="#63b8ff" stroke="#63b8ff" points="1406.59,-131.31 1396.84,-135.45 1407.05,-138.3 1406.59,-131.31"/>
</a>
</g>
</g>
<!-- Node17 -->
<g id="Node000017" class="node">
<title>Node17</title>
<g id="a_Node000017"><a xlink:href="ForcesInspectorWidget_8cpp.html" target="_top" xlink:title=" ">
<polygon fill="white" stroke="#666666" points="2155.68,-96 1985.68,-96 1985.68,-66 2155.68,-66 2155.68,-96"/>
<text text-anchor="start" x="1993.68" y="-84" font-family="Helvetica,sans-Serif" font-size="10.00">src/ui/inspector/ForcesInspector</text>
<text text-anchor="middle" x="2070.68" y="-73" font-family="Helvetica,sans-Serif" font-size="10.00">Widget.cpp</text>
</a>
</g>
</g>
<!-- Node3&#45;&gt;Node17 -->
<g id="edge17_Node000003_Node000017" class="edge">
<title>Node3&#45;&gt;Node17</title>
<g id="a_edge17_Node000003_Node000017"><a xlink:title=" ">
<path fill="none" stroke="#63b8ff" d="M1407.12,-136.51C1536.84,-130.59 1774.62,-117.76 1976.68,-96 1979.63,-95.68 1982.63,-95.34 1985.66,-94.98"/>
<polygon fill="#63b8ff" stroke="#63b8ff" points="1406.65,-133.03 1396.82,-136.98 1406.97,-140.02 1406.65,-133.03"/>
</a>
</g>
</g>
<!-- Node3&#45;&gt;Node18 -->
<g id="edge18_Node000003_Node000018" class="edge">
<title>Node3&#45;&gt;Node18</title>
<g id="a_edge18_Node000003_Node000018"><a xlink:title=" ">
<path fill="none" stroke="#63b8ff" d="M1223.85,-130.82C1153.54,-122.62 1052.01,-110.01 963.68,-96 960.97,-95.57 958.2,-95.12 955.41,-94.65"/>
<polygon fill="#63b8ff" stroke="#63b8ff" points="1223.66,-134.32 1234,-131.99 1224.47,-127.36 1223.66,-134.32"/>
</a>
</g>
</g>
<!-- Node3&#45;&gt;Node19 -->
<g id="edge19_Node000003_Node000019" class="edge">
<title>Node3&#45;&gt;Node19</title>
<g id="a_edge19_Node000003_Node000019"><a xlink:title=" ">
<path fill="none" stroke="#63b8ff" d="M1261.94,-129.86C1218.45,-120.37 1154.48,-106.41 1106.85,-96.01"/>
<polygon fill="#63b8ff" stroke="#63b8ff" points="1261.19,-133.28 1271.71,-131.99 1262.69,-126.44 1261.19,-133.28"/>
</a>
</g>
</g>
<!-- Node20 -->
<g id="Node000020" class="node">
<title>Node20</title>
<g id="a_Node000020"><a xlink:href="PhysicsInspectorWidget_8cpp.html" target="_top" xlink:title=" ">
<polygon fill="white" stroke="#666666" points="2305.18,-96 2174.18,-96 2174.18,-66 2305.18,-66 2305.18,-96"/>
<text text-anchor="start" x="2182.18" y="-84" font-family="Helvetica,sans-Serif" font-size="10.00">src/ui/inspector/Physics</text>
<text text-anchor="middle" x="2239.68" y="-73" font-family="Helvetica,sans-Serif" font-size="10.00">InspectorWidget.cpp</text>
</a>
</g>
</g>
<!-- Node3&#45;&gt;Node20 -->
<g id="edge20_Node000003_Node000020" class="edge">
<title>Node3&#45;&gt;Node20</title>
<g id="a_edge20_Node000003_Node000020"><a xlink:title=" ">
<path fill="none" stroke="#63b8ff" d="M1406.96,-139.63C1565.47,-137.27 1891.13,-128.51 2164.68,-96 2167.7,-95.64 2170.79,-95.23 2173.9,-94.79"/>
<polygon fill="#63b8ff" stroke="#63b8ff" points="1406.71,-136.13 1396.76,-139.78 1406.81,-143.13 1406.71,-136.13"/>
</a>
</g>
</g>
<!-- Node21 -->
<g id="Node000021" class="node">
<title>Node21</title>
<g id="a_Node000021"><a xlink:href="TransformInspectorWidget_8cpp.html" target="_top" xlink:title=" ">
<polygon fill="white" stroke="#666666" points="2466.18,-96 2323.18,-96 2323.18,-66 2466.18,-66 2466.18,-96"/>
<text text-anchor="start" x="2331.18" y="-84" font-family="Helvetica,sans-Serif" font-size="10.00">src/ui/inspector/Transform</text>
<text text-anchor="middle" x="2394.68" y="-73" font-family="Helvetica,sans-Serif" font-size="10.00">InspectorWidget.cpp</text>
</a>
</g>
</g>
<!-- Node3&#45;&gt;Node21 -->
<g id="edge21_Node000003_Node000021" class="edge">
<title>Node3&#45;&gt;Node21</title>
<g id="a_edge21_Node000003_Node000021"><a xlink:title=" ">
<path fill="none" stroke="#63b8ff" d="M1407.11,-140.35C1586.38,-139.16 1982.9,-132.23 2314.68,-96 2317.34,-95.71 2320.05,-95.38 2322.78,-95.03"/>
<polygon fill="#63b8ff" stroke="#63b8ff" points="1406.89,-136.85 1396.92,-140.42 1406.94,-143.85 1406.89,-136.85"/>
</a>
</g>
</g>
<!-- Node6&#45;&gt;Node4 -->
<g id="edge6_Node000006_Node000004" class="edge">
<title>Node6&#45;&gt;Node4</title>
<g id="a_edge6_Node000006_Node000004"><a xlink:title=" ">
<path fill="none" stroke="#63b8ff" d="M2474.34,-65.98C2241.88,-41.72 1593.23,-23.31 1379.72,-17.74"/>
<polygon fill="#63b8ff" stroke="#63b8ff" points="2474.11,-69.48 2484.43,-67.07 2474.86,-62.52 2474.11,-69.48"/>
</a>
</g>
</g>
<!-- Node7 -->
<g id="Node000007" class="node">
<title>Node7</title>
<g id="a_Node000007"><a xlink:href="ScaleHandle_8cpp.html" target="_top" xlink:title=" ">
<polygon fill="white" stroke="#666666" points="2622.68,-30 2484.68,-30 2484.68,0 2622.68,0 2622.68,-30"/>
<text text-anchor="start" x="2492.68" y="-18" font-family="Helvetica,sans-Serif" font-size="10.00">src/graphics/components</text>
<text text-anchor="middle" x="2553.68" y="-7" font-family="Helvetica,sans-Serif" font-size="10.00">/ScaleHandle.cpp</text>
</a>
</g>
</g>
<!-- Node6&#45;&gt;Node7 -->
<g id="edge7_Node000006_Node000007" class="edge">
<title>Node6&#45;&gt;Node7</title>
<g id="a_edge7_Node000006_Node000007"><a xlink:title=" ">
<path fill="none" stroke="#63b8ff" d="M2553.68,-55.54C2553.68,-46.96 2553.68,-37.61 2553.68,-30.16"/>
<polygon fill="#63b8ff" stroke="#63b8ff" points="2550.18,-55.8 2553.68,-65.8 2557.18,-55.8 2550.18,-55.8"/>
</a>
</g>
</g>
<!-- Node15 -->
<g id="Node000015" class="node">
<title>Node15</title>
<g id="a_Node000015"><a xlink:href="HierarchyWidget_8cpp.html" target="_top" xlink:title=" ">
<polygon fill="white" stroke="#666666" points="1972.68,-24.5 1824.68,-24.5 1824.68,-5.5 1972.68,-5.5 1972.68,-24.5"/>
<text text-anchor="middle" x="1898.68" y="-12.5" font-family="Helvetica,sans-Serif" font-size="10.00">src/ui/HierarchyWidget.cpp</text>
</a>
</g>
</g>
<!-- Node14&#45;&gt;Node15 -->
<g id="edge15_Node000014_Node000015" class="edge">
<title>Node14&#45;&gt;Node15</title>
<g id="a_edge15_Node000014_Node000015"><a xlink:title=" ">
<path fill="none" stroke="#63b8ff" d="M1898.68,-61.08C1898.68,-49.13 1898.68,-34.22 1898.68,-24.91"/>
<polygon fill="#63b8ff" stroke="#63b8ff" points="1895.18,-61.37 1898.68,-71.37 1902.18,-61.37 1895.18,-61.37"/>
</a>
</g>
</g>
<!-- Node16 -->
<g id="Node000016" class="node">
<title>Node16</title>
<g id="a_Node000016"><a xlink:href="MainWindow_8cpp.html" target="_top" xlink:title=" ">
<polygon fill="white" stroke="#666666" points="193.68,-24.5 65.68,-24.5 65.68,-5.5 193.68,-5.5 193.68,-24.5"/>
<text text-anchor="middle" x="129.68" y="-12.5" font-family="Helvetica,sans-Serif" font-size="10.00">src/ui/MainWindow.cpp</text>
</a>
</g>
</g>
<!-- Node14&#45;&gt;Node16 -->
<g id="edge16_Node000014_Node000016" class="edge">
<title>Node14&#45;&gt;Node16</title>
<g id="a_edge16_Node000014_Node000016"><a xlink:title=" ">
<path fill="none" stroke="#63b8ff" d="M1847.99,-69.67C1839.25,-68.21 1830.23,-66.9 1821.68,-66 1497.26,-31.91 463.1,-19.34 194.12,-16.61"/>
<polygon fill="#63b8ff" stroke="#63b8ff" points="1847.63,-73.16 1858.08,-71.44 1848.84,-66.26 1847.63,-73.16"/>
</a>
</g>
</g>
<!-- Node26&#45;&gt;Node10 -->
<g id="edge27_Node000026_Node000010" class="edge">
<title>Node26&#45;&gt;Node10</title>
<g id="a_edge27_Node000026_Node000010"><a xlink:title=" ">
<path fill="none" stroke="#63b8ff" d="M608.73,-244.82C727.43,-212.5 1069.33,-119.4 1175.11,-90.6"/>
<polygon fill="#63b8ff" stroke="#63b8ff" points="607.66,-241.49 598.93,-247.49 609.5,-248.24 607.66,-241.49"/>
</a>
</g>
</g>
<!-- Node26&#45;&gt;Node11 -->
<g id="edge28_Node000026_Node000011" class="edge">
<title>Node26&#45;&gt;Node11</title>
<g id="a_edge28_Node000026_Node000011"><a xlink:title=" ">
<path fill="none" stroke="#63b8ff" d="M517.91,-244.89C465.08,-230.88 381.88,-202.2 327.68,-151 309.52,-133.84 299.27,-105.19 295.02,-90.81"/>
<polygon fill="#63b8ff" stroke="#63b8ff" points="517.18,-248.32 527.73,-247.42 518.92,-241.54 517.18,-248.32"/>
</a>
</g>
</g>
<!-- Node26&#45;&gt;Node16 -->
<g id="edge44_Node000026_Node000016" class="edge">
<title>Node26&#45;&gt;Node16</title>
<g id="a_edge44_Node000026_Node000016"><a xlink:title=" ">
<path fill="none" stroke="#63b8ff" d="M491.74,-251.97C384.93,-245.5 196.27,-230.93 132.68,-206 56.38,-176.09 -32.47,-134.39 12.68,-66 27.34,-43.79 54.12,-31.41 78.37,-24.52"/>
<polygon fill="#63b8ff" stroke="#63b8ff" points="491.62,-255.47 501.81,-252.57 492.04,-248.48 491.62,-255.47"/>
</a>
</g>
</g>
<!-- Node26&#45;&gt;Node25 -->
<g id="edge45_Node000026_Node000025" class="edge">
<title>Node26&#45;&gt;Node25</title>
<g id="a_edge45_Node000026_Node000025"><a xlink:title=" ">
<path fill="none" stroke="#63b8ff" d="M599.73,-243.53C621.58,-234.44 650.78,-221.1 674.68,-206 701.34,-189.16 729.01,-164.17 742.78,-151.13"/>
<polygon fill="#63b8ff" stroke="#63b8ff" points="598.18,-240.38 590.25,-247.4 600.83,-246.86 598.18,-240.38"/>
</a>
</g>
</g>
<!-- Node27 -->
<g id="Node000027" class="node">
<title>Node27</title>
<g id="a_Node000027"><a xlink:href="SceneManager_8h.html" target="_top" xlink:title=" ">
<polygon fill="white" stroke="#666666" points="665.68,-206 483.68,-206 483.68,-187 665.68,-187 665.68,-206"/>
<text text-anchor="middle" x="574.68" y="-194" font-family="Helvetica,sans-Serif" font-size="10.00">src/graphics/core/SceneManager.h</text>
</a>
</g>
</g>
<!-- Node26&#45;&gt;Node27 -->
<g id="edge29_Node000026_Node000027" class="edge">
<title>Node26&#45;&gt;Node27</title>
<g id="a_edge29_Node000026_Node000027"><a xlink:title=" ">
<path fill="none" stroke="#63b8ff" d="M569.93,-237.16C571.18,-226.74 572.67,-214.3 573.64,-206.17"/>
<polygon fill="#63b8ff" stroke="#63b8ff" points="566.42,-237.02 568.71,-247.37 573.37,-237.85 566.42,-237.02"/>
</a>
</g>
</g>
<!-- Node30 -->
<g id="Node000030" class="node">
<title>Node30</title>
<g id="a_Node000030"><a xlink:href="main_8cpp.html" target="_top" xlink:title=" ">
<polygon fill="white" stroke="#666666" points="101.18,-90.5 22.18,-90.5 22.18,-71.5 101.18,-71.5 101.18,-90.5"/>
<text text-anchor="middle" x="61.68" y="-78.5" font-family="Helvetica,sans-Serif" font-size="10.00">src/main.cpp</text>
</a>
</g>
</g>
<!-- Node26&#45;&gt;Node30 -->
<g id="edge43_Node000026_Node000030" class="edge">
<title>Node26&#45;&gt;Node30</title>
<g id="a_edge43_Node000026_Node000030"><a xlink:title=" ">
<path fill="none" stroke="#63b8ff" d="M491.5,-250.46C366.65,-239.74 126.72,-211.63 70.68,-151 55.43,-134.5 57.59,-105.55 59.91,-90.95"/>
<polygon fill="#63b8ff" stroke="#63b8ff" points="491.49,-253.98 501.75,-251.33 492.08,-247 491.49,-253.98"/>
</a>
</g>
</g>
<!-- Node27&#45;&gt;Node3 -->
<g id="edge33_Node000027_Node000003" class="edge">
<title>Node27&#45;&gt;Node3</title>
<g id="a_edge33_Node000027_Node000003"><a xlink:title=" ">
<path fill="none" stroke="#63b8ff" d="M676.32,-188.18C822.08,-177.68 1087.94,-158.54 1224.56,-148.7"/>
<polygon fill="#63b8ff" stroke="#63b8ff" points="675.76,-184.71 666.03,-188.92 676.26,-191.69 675.76,-184.71"/>
</a>
</g>
</g>
<!-- Node27&#45;&gt;Node4 -->
<g id="edge30_Node000027_Node000004" class="edge">
<title>Node27&#45;&gt;Node4</title>
<g id="a_edge30_Node000027_Node000004"><a xlink:title=" ">
<path fill="none" stroke="#63b8ff" d="M497.64,-185.55C448.47,-178.23 383.68,-166.81 327.68,-151 257.26,-131.12 136.1,-118.88 186.68,-66 223.22,-27.8 1001.85,-18.45 1241.27,-16.48"/>
<polygon fill="#63b8ff" stroke="#63b8ff" points="497.17,-189.01 507.58,-187 498.19,-182.09 497.17,-189.01"/>
</a>
</g>
</g>
<!-- Node27&#45;&gt;Node11 -->
<g id="edge31_Node000027_Node000011" class="edge">
<title>Node27&#45;&gt;Node11</title>
<g id="a_edge31_Node000027_Node000011"><a xlink:title=" ">
<path fill="none" stroke="#63b8ff" d="M473.31,-188.64C434.25,-182.6 390.47,-171.46 354.68,-151 328.39,-135.98 307.28,-105.81 297.91,-90.84"/>
<polygon fill="#63b8ff" stroke="#63b8ff" points="473.26,-192.17 483.66,-190.14 474.26,-185.25 473.26,-192.17"/>
</a>
</g>
</g>
<!-- Node27&#45;&gt;Node12 -->
<g id="edge32_Node000027_Node000012" class="edge">
<title>Node27&#45;&gt;Node12</title>
<g id="a_edge32_Node000027_Node000012"><a xlink:title=" ">
<path fill="none" stroke="#63b8ff" d="M578.29,-177.07C581.86,-163.14 588.6,-144.38 600.68,-132 621.43,-110.73 652.78,-97.88 677.35,-90.55"/>
<polygon fill="#63b8ff" stroke="#63b8ff" points="574.84,-176.46 576.06,-186.98 581.67,-177.99 574.84,-176.46"/>
</a>
</g>
</g>
<!-- Node27&#45;&gt;Node18 -->
<g id="edge41_Node000027_Node000018" class="edge">
<title>Node27&#45;&gt;Node18</title>
<g id="a_edge41_Node000027_Node000018"><a xlink:title=" ">
<path fill="none" stroke="#63b8ff" d="M586.92,-178.69C598.55,-164.01 617.4,-143.33 638.68,-132 642.83,-129.79 751.2,-108.65 824.17,-94.57"/>
<polygon fill="#63b8ff" stroke="#63b8ff" points="583.93,-176.85 580.65,-186.92 589.5,-181.09 583.93,-176.85"/>
</a>
</g>
</g>
<!-- Node27&#45;&gt;Node19 -->
<g id="edge42_Node000027_Node000019" class="edge">
<title>Node27&#45;&gt;Node19</title>
<g id="a_edge42_Node000027_Node000019"><a xlink:title=" ">
<path fill="none" stroke="#63b8ff" d="M595.43,-181.19C621.39,-163.41 663.44,-135.02 671.68,-132 794.46,-87.02 834.37,-115.42 963.68,-96 966.71,-95.55 969.8,-95.06 972.92,-94.57"/>
<polygon fill="#63b8ff" stroke="#63b8ff" points="593.27,-178.43 587.01,-186.98 597.23,-184.2 593.27,-178.43"/>
</a>
</g>
</g>
<!-- Node27&#45;&gt;Node25 -->
<g id="edge40_Node000027_Node000025" class="edge">
<title>Node27&#45;&gt;Node25</title>
<g id="a_edge40_Node000027_Node000025"><a xlink:title=" ">
<path fill="none" stroke="#63b8ff" d="M612.9,-184.06C645.98,-174.15 693.09,-160.04 723.02,-151.08"/>
<polygon fill="#63b8ff" stroke="#63b8ff" points="611.69,-180.76 603.12,-186.98 613.7,-187.47 611.69,-180.76"/>
</a>
</g>
</g>
<!-- Node28 -->
<g id="Node000028" class="node">
<title>Node28</title>
<g id="a_Node000028"><a xlink:href="SceneSerializer_8h.html" target="_top" xlink:title=" ">
<polygon fill="white" stroke="#666666" points="549.18,-151 364.18,-151 364.18,-132 549.18,-132 549.18,-151"/>
<text text-anchor="middle" x="456.68" y="-139" font-family="Helvetica,sans-Serif" font-size="10.00">src/graphics/core/SceneSerializer.h</text>
</a>
</g>
</g>
<!-- Node27&#45;&gt;Node28 -->
<g id="edge34_Node000027_Node000028" class="edge">
<title>Node27&#45;&gt;Node28</title>
<g id="a_edge34_Node000027_Node000028"><a xlink:title=" ">
<path fill="none" stroke="#63b8ff" d="M546.33,-182.77C524.56,-172.99 495.09,-159.75 475.98,-151.17"/>
<polygon fill="#63b8ff" stroke="#63b8ff" points="545.16,-186.08 555.72,-186.98 548.03,-179.69 545.16,-186.08"/>
</a>
</g>
</g>
<!-- Node29 -->
<g id="Node000029" class="node">
<title>Node29</title>
<g id="a_Node000029"><a xlink:href="MainWindow_8h.html" target="_top" xlink:title=" ">
<polygon fill="white" stroke="#666666" points="197.18,-151 80.18,-151 80.18,-132 197.18,-132 197.18,-151"/>
<text text-anchor="middle" x="138.68" y="-139" font-family="Helvetica,sans-Serif" font-size="10.00">src/ui/MainWindow.h</text>
</a>
</g>
</g>
<!-- Node27&#45;&gt;Node29 -->
<g id="edge37_Node000027_Node000029" class="edge">
<title>Node27&#45;&gt;Node29</title>
<g id="a_edge37_Node000027_Node000029"><a xlink:title=" ">
<path fill="none" stroke="#63b8ff" d="M494.65,-185.77C408.66,-175.32 274.06,-158.96 197.37,-149.63"/>
<polygon fill="#63b8ff" stroke="#63b8ff" points="494.28,-189.25 504.63,-186.98 495.12,-182.3 494.28,-189.25"/>
</a>
</g>
</g>
<!-- Node28&#45;&gt;Node11 -->
<g id="edge35_Node000028_Node000011" class="edge">
<title>Node28&#45;&gt;Node11</title>
<g id="a_edge35_Node000028_Node000011"><a xlink:title=" ">
<path fill="none" stroke="#63b8ff" d="M423.11,-128.52C391.4,-117.21 344.62,-100.53 316.55,-90.52"/>
<polygon fill="#63b8ff" stroke="#63b8ff" points="422.24,-131.93 432.83,-131.99 424.59,-125.34 422.24,-131.93"/>
</a>
</g>
</g>
<!-- Node28&#45;&gt;Node13 -->
<g id="edge36_Node000028_Node000013" class="edge">
<title>Node28&#45;&gt;Node13</title>
<g id="a_edge36_Node000028_Node000013"><a xlink:title=" ">
<path fill="none" stroke="#63b8ff" d="M470.82,-123.95C480.08,-113.12 491.8,-99.41 499.27,-90.67"/>
<polygon fill="#63b8ff" stroke="#63b8ff" points="467.89,-121.99 464.06,-131.87 473.21,-126.54 467.89,-121.99"/>
</a>
</g>
</g>
<!-- Node29&#45;&gt;Node16 -->
<g id="edge39_Node000029_Node000016" class="edge">
<title>Node29&#45;&gt;Node16</title>
<g id="a_edge39_Node000029_Node000016"><a xlink:title=" ">
<path fill="none" stroke="#63b8ff" d="M137.32,-121.74C135.34,-94.36 131.74,-44.58 130.3,-24.62"/>
<polygon fill="#63b8ff" stroke="#63b8ff" points="133.85,-122.22 138.06,-131.94 140.83,-121.72 133.85,-122.22"/>
</a>
</g>
</g>
<!-- Node29&#45;&gt;Node30 -->
<g id="edge38_Node000029_Node000030" class="edge">
<title>Node29&#45;&gt;Node30</title>
<g id="a_edge38_Node000029_Node000030"><a xlink:title=" ">
<path fill="none" stroke="#63b8ff" d="M118.98,-125.54C104.44,-114.49 85.16,-99.84 73.09,-90.67"/>
<polygon fill="#63b8ff" stroke="#63b8ff" points="117.24,-128.61 127.32,-131.87 121.47,-123.03 117.24,-128.61"/>
</a>
</g>
</g>
</g>
</svg>
