<?xml version="1.0" encoding="UTF-8" standalone="no"?>
<!DOCTYPE svg PUBLIC "-//W3C//DTD SVG 1.1//EN"
 "http://www.w3.org/Graphics/SVG/1.1/DTD/svg11.dtd">
<!-- Generated by graphviz version 2.43.0 (0)
 -->
<!-- Title: src/physics/solver/ProblemRouter.cpp Pages: 1 -->
<svg width="1105pt" height="313pt"
 viewBox="0.00 0.00 1104.50 313.00" xmlns="http://www.w3.org/2000/svg" xmlns:xlink="http://www.w3.org/1999/xlink">
<g id="graph0" class="graph" transform="scale(1 1) rotate(0) translate(4 309)">
<title>src/physics/solver/ProblemRouter.cpp</title>
<!-- Node1 -->
<g id="Node000001" class="node">
<title>Node1</title>
<g id="a_Node000001"><a xlink:title=" ">
<polygon fill="#999999" stroke="#666666" points="266.5,-305 154.5,-305 154.5,-275 266.5,-275 266.5,-305"/>
<text text-anchor="start" x="162.5" y="-293" font-family="Helvetica,sans-Serif" font-size="10.00">src/physics/solver</text>
<text text-anchor="middle" x="210.5" y="-282" font-family="Helvetica,sans-Serif" font-size="10.00">/ProblemRouter.cpp</text>
</a>
</g>
</g>
<!-- Node2 -->
<g id="Node000002" class="node">
<title>Node2</title>
<g id="a_Node000002"><a xlink:href="ProblemRouter_8h.html" target="_top" xlink:title=" ">
<polygon fill="white" stroke="#666666" points="303.5,-184 205.5,-184 205.5,-165 303.5,-165 303.5,-184"/>
<text text-anchor="middle" x="254.5" y="-172" font-family="Helvetica,sans-Serif" font-size="10.00">ProblemRouter.h</text>
</a>
</g>
</g>
<!-- Node1&#45;&gt;Node2 -->
<g id="edge1_Node000001_Node000002" class="edge">
<title>Node1&#45;&gt;Node2</title>
<g id="a_edge1_Node000001_Node000002"><a xlink:title=" ">
<path fill="none" stroke="#63b8ff" d="M218.39,-274.86C223.69,-265.01 230.57,-251.45 235.5,-239 241.33,-224.27 246.39,-207.02 249.81,-194.22"/>
<polygon fill="#63b8ff" stroke="#63b8ff" points="253.27,-194.85 252.38,-184.29 246.49,-193.09 253.27,-194.85"/>
</a>
</g>
</g>
<!-- Node10 -->
<g id="Node000010" class="node">
<title>Node10</title>
<g id="a_Node000010"><a xlink:title=" ">
<polygon fill="#e0e0e0" stroke="#999999" points="176.5,-239 116.5,-239 116.5,-220 176.5,-220 176.5,-239"/>
<text text-anchor="middle" x="146.5" y="-227" font-family="Helvetica,sans-Serif" font-size="10.00">iostream</text>
</a>
</g>
</g>
<!-- Node1&#45;&gt;Node10 -->
<g id="edge10_Node000001_Node000010" class="edge">
<title>Node1&#45;&gt;Node10</title>
<g id="a_edge10_Node000001_Node000010"><a xlink:title=" ">
<path fill="none" stroke="#63b8ff" d="M195.01,-274.84C185.53,-266.17 173.39,-255.08 163.62,-246.15"/>
<polygon fill="#63b8ff" stroke="#63b8ff" points="165.83,-243.43 156.09,-239.27 161.11,-248.6 165.83,-243.43"/>
</a>
</g>
</g>
<!-- Node11 -->
<g id="Node000011" class="node">
<title>Node11</title>
<g id="a_Node000011"><a xlink:title=" ">
<polygon fill="#e0e0e0" stroke="#999999" points="226.5,-239 194.5,-239 194.5,-220 226.5,-220 226.5,-239"/>
<text text-anchor="middle" x="210.5" y="-227" font-family="Helvetica,sans-Serif" font-size="10.00">set</text>
</a>
</g>
</g>
<!-- Node1&#45;&gt;Node11 -->
<g id="edge11_Node000001_Node000011" class="edge">
<title>Node1&#45;&gt;Node11</title>
<g id="a_edge11_Node000001_Node000011"><a xlink:title=" ">
<path fill="none" stroke="#63b8ff" d="M210.5,-274.84C210.5,-267.21 210.5,-257.7 210.5,-249.45"/>
<polygon fill="#63b8ff" stroke="#63b8ff" points="214,-249.27 210.5,-239.27 207,-249.27 214,-249.27"/>
</a>
</g>
</g>
<!-- Node12 -->
<g id="Node000012" class="node">
<title>Node12</title>
<g id="a_Node000012"><a xlink:href="InterceptSolver_8h.html" target="_top" xlink:title=" ">
<polygon fill="white" stroke="#666666" points="99,-129 0,-129 0,-110 99,-110 99,-129"/>
<text text-anchor="middle" x="49.5" y="-117" font-family="Helvetica,sans-Serif" font-size="10.00">InterceptSolver.h</text>
</a>
</g>
</g>
<!-- Node1&#45;&gt;Node12 -->
<g id="edge12_Node000001_Node000012" class="edge">
<title>Node1&#45;&gt;Node12</title>
<g id="a_edge12_Node000001_Node000012"><a xlink:title=" ">
<path fill="none" stroke="#63b8ff" d="M166.17,-275C146.31,-266.97 123.76,-255.21 107.5,-239 78.67,-210.27 61.92,-164.32 54.37,-138.91"/>
<polygon fill="#63b8ff" stroke="#63b8ff" points="57.69,-137.78 51.61,-129.1 50.95,-139.67 57.69,-137.78"/>
</a>
</g>
</g>
<!-- Node13 -->
<g id="Node000013" class="node">
<title>Node13</title>
<g id="a_Node000013"><a xlink:href="PhysicsSystem_8h.html" target="_top" xlink:title=" ">
<polygon fill="white" stroke="#666666" points="549,-239 410,-239 410,-220 549,-220 549,-239"/>
<text text-anchor="middle" x="479.5" y="-227" font-family="Helvetica,sans-Serif" font-size="10.00">physics/PhysicsSystem.h</text>
</a>
</g>
</g>
<!-- Node1&#45;&gt;Node13 -->
<g id="edge15_Node000001_Node000013" class="edge">
<title>Node1&#45;&gt;Node13</title>
<g id="a_edge15_Node000001_Node000013"><a xlink:title=" ">
<path fill="none" stroke="#63b8ff" d="M266.56,-276.81C314.91,-266.29 384.03,-251.26 430.27,-241.21"/>
<polygon fill="#63b8ff" stroke="#63b8ff" points="431.03,-244.62 440.06,-239.08 429.55,-237.78 431.03,-244.62"/>
</a>
</g>
</g>
<!-- Node3 -->
<g id="Node000003" class="node">
<title>Node3</title>
<g id="a_Node000003"><a xlink:title=" ">
<polygon fill="#e0e0e0" stroke="#999999" points="725.5,-74 681.5,-74 681.5,-55 725.5,-55 725.5,-74"/>
<text text-anchor="middle" x="703.5" y="-62" font-family="Helvetica,sans-Serif" font-size="10.00">string</text>
</a>
</g>
</g>
<!-- Node2&#45;&gt;Node3 -->
<g id="edge2_Node000002_Node000003" class="edge">
<title>Node2&#45;&gt;Node3</title>
<g id="a_edge2_Node000002_Node000003"><a xlink:title=" ">
<path fill="none" stroke="#63b8ff" d="M303.56,-168.95C381.91,-161.34 531.66,-145.23 582.5,-129 602.08,-122.75 650.57,-95.88 679.88,-79.16"/>
<polygon fill="#63b8ff" stroke="#63b8ff" points="681.73,-82.13 688.66,-74.12 678.25,-76.06 681.73,-82.13"/>
</a>
</g>
</g>
<!-- Node4 -->
<g id="Node000004" class="node">
<title>Node4</title>
<g id="a_Node000004"><a xlink:title=" ">
<polygon fill="#e0e0e0" stroke="#999999" points="334.5,-74 276.5,-74 276.5,-55 334.5,-55 334.5,-74"/>
<text text-anchor="middle" x="305.5" y="-62" font-family="Helvetica,sans-Serif" font-size="10.00">memory</text>
</a>
</g>
</g>
<!-- Node2&#45;&gt;Node4 -->
<g id="edge3_Node000002_Node000004" class="edge">
<title>Node2&#45;&gt;Node4</title>
<g id="a_edge3_Node000002_Node000004"><a xlink:title=" ">
<path fill="none" stroke="#63b8ff" d="M256.11,-164.95C258.68,-152.43 264.36,-128.59 273.5,-110 278.37,-100.09 285.4,-90.02 291.63,-81.98"/>
<polygon fill="#63b8ff" stroke="#63b8ff" points="294.4,-84.12 297.94,-74.14 288.94,-79.74 294.4,-84.12"/>
</a>
</g>
</g>
<!-- Node5 -->
<g id="Node000005" class="node">
<title>Node5</title>
<g id="a_Node000005"><a xlink:href="OneUnknownSolver_8h.html" target="_top" xlink:title=" ">
<polygon fill="white" stroke="#666666" points="404,-129 283,-129 283,-110 404,-110 404,-129"/>
<text text-anchor="middle" x="343.5" y="-117" font-family="Helvetica,sans-Serif" font-size="10.00">OneUnknownSolver.h</text>
</a>
</g>
</g>
<!-- Node2&#45;&gt;Node5 -->
<g id="edge4_Node000002_Node000005" class="edge">
<title>Node2&#45;&gt;Node5</title>
<g id="a_edge4_Node000002_Node000005"><a xlink:title=" ">
<path fill="none" stroke="#63b8ff" d="M268.8,-164.98C282.6,-156.77 303.74,-144.18 320.01,-134.49"/>
<polygon fill="#63b8ff" stroke="#63b8ff" points="322.14,-137.29 328.94,-129.17 318.56,-131.28 322.14,-137.29"/>
</a>
</g>
</g>
<!-- Node7 -->
<g id="Node000007" class="node">
<title>Node7</title>
<g id="a_Node000007"><a xlink:href="VectorRootSolver_8h.html" target="_top" xlink:title=" ">
<polygon fill="white" stroke="#666666" points="226,-129 117,-129 117,-110 226,-110 226,-129"/>
<text text-anchor="middle" x="171.5" y="-117" font-family="Helvetica,sans-Serif" font-size="10.00">VectorRootSolver.h</text>
</a>
</g>
</g>
<!-- Node2&#45;&gt;Node7 -->
<g id="edge6_Node000002_Node000007" class="edge">
<title>Node2&#45;&gt;Node7</title>
<g id="a_edge6_Node000002_Node000007"><a xlink:title=" ">
<path fill="none" stroke="#63b8ff" d="M241.16,-164.98C228.41,-156.84 208.95,-144.41 193.83,-134.76"/>
<polygon fill="#63b8ff" stroke="#63b8ff" points="195.39,-131.6 185.08,-129.17 191.62,-137.5 195.39,-131.6"/>
</a>
</g>
</g>
<!-- Node6 -->
<g id="Node000006" class="node">
<title>Node6</title>
<g id="a_Node000006"><a xlink:title=" ">
<polygon fill="#e0e0e0" stroke="#999999" points="204,-74 139,-74 139,-55 204,-55 204,-74"/>
<text text-anchor="middle" x="171.5" y="-62" font-family="Helvetica,sans-Serif" font-size="10.00">functional</text>
</a>
</g>
</g>
<!-- Node5&#45;&gt;Node6 -->
<g id="edge5_Node000005_Node000006" class="edge">
<title>Node5&#45;&gt;Node6</title>
<g id="a_edge5_Node000005_Node000006"><a xlink:title=" ">
<path fill="none" stroke="#63b8ff" d="M315.87,-109.98C286.99,-101.09 241.49,-87.07 209.3,-77.15"/>
<polygon fill="#63b8ff" stroke="#63b8ff" points="209.94,-73.68 199.35,-74.08 207.88,-80.37 209.94,-73.68"/>
</a>
</g>
</g>
<!-- Node7&#45;&gt;Node6 -->
<g id="edge7_Node000007_Node000006" class="edge">
<title>Node7&#45;&gt;Node6</title>
<g id="a_edge7_Node000007_Node000006"><a xlink:title=" ">
<path fill="none" stroke="#63b8ff" d="M171.5,-109.75C171.5,-102.8 171.5,-92.85 171.5,-84.13"/>
<polygon fill="#63b8ff" stroke="#63b8ff" points="175,-84.09 171.5,-74.09 168,-84.09 175,-84.09"/>
</a>
</g>
</g>
<!-- Node8 -->
<g id="Node000008" class="node">
<title>Node8</title>
<g id="a_Node000008"><a xlink:title=" ">
<polygon fill="#e0e0e0" stroke="#999999" points="653.5,-74 575.5,-74 575.5,-55 653.5,-55 653.5,-74"/>
<text text-anchor="middle" x="614.5" y="-62" font-family="Helvetica,sans-Serif" font-size="10.00">glm/glm.hpp</text>
</a>
</g>
</g>
<!-- Node7&#45;&gt;Node8 -->
<g id="edge8_Node000007_Node000008" class="edge">
<title>Node7&#45;&gt;Node8</title>
<g id="a_edge8_Node000007_Node000008"><a xlink:title=" ">
<path fill="none" stroke="#63b8ff" d="M226.18,-113.05C301.71,-105.35 442.17,-90.37 561.5,-74 562.77,-73.83 564.06,-73.65 565.36,-73.46"/>
<polygon fill="#63b8ff" stroke="#63b8ff" points="566.07,-76.89 575.46,-71.97 565.05,-69.97 566.07,-76.89"/>
</a>
</g>
</g>
<!-- Node9 -->
<g id="Node000009" class="node">
<title>Node9</title>
<g id="a_Node000009"><a xlink:href="ISolver_8h.html" target="_top" xlink:title="Abstract interface for numerical solvers.">
<polygon fill="white" stroke="#666666" points="100,-74 41,-74 41,-55 100,-55 100,-74"/>
<text text-anchor="middle" x="70.5" y="-62" font-family="Helvetica,sans-Serif" font-size="10.00">ISolver.h</text>
</a>
</g>
</g>
<!-- Node7&#45;&gt;Node9 -->
<g id="edge9_Node000007_Node000009" class="edge">
<title>Node7&#45;&gt;Node9</title>
<g id="a_edge9_Node000007_Node000009"><a xlink:title=" ">
<path fill="none" stroke="#63b8ff" d="M155.27,-109.98C139.32,-101.61 114.72,-88.7 96.12,-78.95"/>
<polygon fill="#63b8ff" stroke="#63b8ff" points="97.5,-75.72 87.02,-74.17 94.25,-81.92 97.5,-75.72"/>
</a>
</g>
</g>
<!-- Node12&#45;&gt;Node6 -->
<g id="edge14_Node000012_Node000006" class="edge">
<title>Node12&#45;&gt;Node6</title>
<g id="a_edge14_Node000012_Node000006"><a xlink:title=" ">
<path fill="none" stroke="#63b8ff" d="M69.1,-109.98C88.82,-101.42 119.45,-88.11 142.08,-78.28"/>
<polygon fill="#63b8ff" stroke="#63b8ff" points="143.76,-81.37 151.54,-74.17 140.98,-74.94 143.76,-81.37"/>
</a>
</g>
</g>
<!-- Node12&#45;&gt;Node9 -->
<g id="edge13_Node000012_Node000009" class="edge">
<title>Node12&#45;&gt;Node9</title>
<g id="a_edge13_Node000012_Node000009"><a xlink:title=" ">
<path fill="none" stroke="#63b8ff" d="M52.97,-109.75C55.78,-102.65 59.84,-92.4 63.35,-83.56"/>
<polygon fill="#63b8ff" stroke="#63b8ff" points="66.67,-84.68 67.1,-74.09 60.16,-82.1 66.67,-84.68"/>
</a>
</g>
</g>
<!-- Node13&#45;&gt;Node2 -->
<g id="edge42_Node000013_Node000002" class="edge">
<title>Node13&#45;&gt;Node2</title>
<g id="a_edge42_Node000013_Node000002"><a xlink:title=" ">
<path fill="none" stroke="#63b8ff" d="M443.35,-219.98C404.59,-210.86 342.95,-196.33 300.7,-186.38"/>
<polygon fill="#63b8ff" stroke="#63b8ff" points="301.47,-182.97 290.93,-184.08 299.86,-189.78 301.47,-182.97"/>
</a>
</g>
</g>
<!-- Node13&#45;&gt;Node5 -->
<g id="edge41_Node000013_Node000005" class="edge">
<title>Node13&#45;&gt;Node5</title>
<g id="a_edge41_Node000013_Node000005"><a xlink:title=" ">
<path fill="none" stroke="#63b8ff" d="M411.66,-219.97C388.9,-213.67 365.51,-202.79 350.5,-184 340.66,-171.68 339.59,-153.46 340.58,-139.69"/>
<polygon fill="#63b8ff" stroke="#63b8ff" points="344.1,-139.73 341.76,-129.4 337.15,-138.94 344.1,-139.73"/>
</a>
</g>
</g>
<!-- Node13&#45;&gt;Node7 -->
<g id="edge43_Node000013_Node000007" class="edge">
<title>Node13&#45;&gt;Node7</title>
<g id="a_edge43_Node000013_Node000007"><a xlink:title=" ">
<path fill="none" stroke="#63b8ff" d="M409.78,-225.36C336.82,-220.73 228.51,-209.67 196.5,-184 182.8,-173.01 176.58,-153.46 173.78,-138.95"/>
<polygon fill="#63b8ff" stroke="#63b8ff" points="177.23,-138.39 172.23,-129.05 170.32,-139.48 177.23,-138.39"/>
</a>
</g>
</g>
<!-- Node14 -->
<g id="Node000014" class="node">
<title>Node14</title>
<g id="a_Node000014"><a xlink:title=" ">
<polygon fill="#e0e0e0" stroke="#999999" points="1030,-74 983,-74 983,-55 1030,-55 1030,-74"/>
<text text-anchor="middle" x="1006.5" y="-62" font-family="Helvetica,sans-Serif" font-size="10.00">vector</text>
</a>
</g>
</g>
<!-- Node13&#45;&gt;Node14 -->
<g id="edge16_Node000013_Node000014" class="edge">
<title>Node13&#45;&gt;Node14</title>
<g id="a_edge16_Node000013_Node000014"><a xlink:title=" ">
<path fill="none" stroke="#63b8ff" d="M549.23,-226.51C680.08,-221.09 954.16,-201.19 1008.5,-129 1018.03,-116.34 1016.23,-97.9 1012.83,-84.15"/>
<polygon fill="#63b8ff" stroke="#63b8ff" points="1016.12,-82.93 1009.93,-74.33 1009.4,-84.91 1016.12,-82.93"/>
</a>
</g>
</g>
<!-- Node15 -->
<g id="Node000015" class="node">
<title>Node15</title>
<g id="a_Node000015"><a xlink:title=" ">
<polygon fill="#e0e0e0" stroke="#999999" points="798.5,-74 748.5,-74 748.5,-55 798.5,-55 798.5,-74"/>
<text text-anchor="middle" x="773.5" y="-62" font-family="Helvetica,sans-Serif" font-size="10.00">atomic</text>
</a>
</g>
</g>
<!-- Node13&#45;&gt;Node15 -->
<g id="edge17_Node000013_Node000015" class="edge">
<title>Node13&#45;&gt;Node15</title>
<g id="a_edge17_Node000013_Node000015"><a xlink:title=" ">
<path fill="none" stroke="#63b8ff" d="M494.89,-219.97C542.91,-193.35 690.22,-111.67 748.95,-79.11"/>
<polygon fill="#63b8ff" stroke="#63b8ff" points="750.86,-82.06 757.9,-74.15 747.46,-75.93 750.86,-82.06"/>
</a>
</g>
</g>
<!-- Node16 -->
<g id="Node000016" class="node">
<title>Node16</title>
<g id="a_Node000016"><a xlink:title=" ">
<polygon fill="#e0e0e0" stroke="#999999" points="1096.5,-74 1048.5,-74 1048.5,-55 1096.5,-55 1096.5,-74"/>
<text text-anchor="middle" x="1072.5" y="-62" font-family="Helvetica,sans-Serif" font-size="10.00">mutex</text>
</a>
</g>
</g>
<!-- Node13&#45;&gt;Node16 -->
<g id="edge18_Node000013_Node000016" class="edge">
<title>Node13&#45;&gt;Node16</title>
<g id="a_edge18_Node000013_Node000016"><a xlink:title=" ">
<path fill="none" stroke="#63b8ff" d="M549.22,-225.69C659.37,-220.59 868.35,-208.04 938.5,-184 981.77,-169.17 991.99,-160.14 1025.5,-129 1040.22,-115.33 1053.48,-96.52 1062.13,-82.92"/>
<polygon fill="#63b8ff" stroke="#63b8ff" points="1065.31,-84.44 1067.57,-74.09 1059.35,-80.77 1065.31,-84.44"/>
</a>
</g>
</g>
<!-- Node17 -->
<g id="Node000017" class="node">
<title>Node17</title>
<g id="a_Node000017"><a xlink:title=" ">
<polygon fill="#e0e0e0" stroke="#999999" points="407.5,-184 359.5,-184 359.5,-165 407.5,-165 407.5,-184"/>
<text text-anchor="middle" x="383.5" y="-172" font-family="Helvetica,sans-Serif" font-size="10.00">thread</text>
</a>
</g>
</g>
<!-- Node13&#45;&gt;Node17 -->
<g id="edge19_Node000013_Node000017" class="edge">
<title>Node13&#45;&gt;Node17</title>
<g id="a_edge19_Node000013_Node000017"><a xlink:title=" ">
<path fill="none" stroke="#63b8ff" d="M464.08,-219.98C449.05,-211.69 425.96,-198.94 408.34,-189.22"/>
<polygon fill="#63b8ff" stroke="#63b8ff" points="409.65,-185.94 399.2,-184.17 406.27,-192.07 409.65,-185.94"/>
</a>
</g>
</g>
<!-- Node18 -->
<g id="Node000018" class="node">
<title>Node18</title>
<g id="a_Node000018"><a xlink:title=" ">
<polygon fill="#e0e0e0" stroke="#999999" points="533,-184 426,-184 426,-165 533,-165 533,-184"/>
<text text-anchor="middle" x="479.5" y="-172" font-family="Helvetica,sans-Serif" font-size="10.00">condition_variable</text>
</a>
</g>
</g>
<!-- Node13&#45;&gt;Node18 -->
<g id="edge20_Node000013_Node000018" class="edge">
<title>Node13&#45;&gt;Node18</title>
<g id="a_edge20_Node000013_Node000018"><a xlink:title=" ">
<path fill="none" stroke="#63b8ff" d="M479.5,-219.75C479.5,-212.8 479.5,-202.85 479.5,-194.13"/>
<polygon fill="#63b8ff" stroke="#63b8ff" points="483,-194.09 479.5,-184.09 476,-194.09 483,-194.09"/>
</a>
</g>
</g>
<!-- Node19 -->
<g id="Node000019" class="node">
<title>Node19</title>
<g id="a_Node000019"><a xlink:title=" ">
<polygon fill="#e0e0e0" stroke="#999999" points="461.5,-74 405.5,-74 405.5,-55 461.5,-55 461.5,-74"/>
<text text-anchor="middle" x="433.5" y="-62" font-family="Helvetica,sans-Serif" font-size="10.00">optional</text>
</a>
</g>
</g>
<!-- Node13&#45;&gt;Node19 -->
<g id="edge21_Node000013_Node000019" class="edge">
<title>Node13&#45;&gt;Node19</title>
<g id="a_edge21_Node000013_Node000019"><a xlink:title=" ">
<path fill="none" stroke="#63b8ff" d="M499.13,-219.96C522.49,-208.56 556.53,-187.2 541.5,-165 517.35,-129.33 480.33,-161.01 451.5,-129 440.48,-116.76 436.16,-98.25 434.49,-84.36"/>
<polygon fill="#63b8ff" stroke="#63b8ff" points="437.95,-83.7 433.62,-74.03 430.97,-84.28 437.95,-83.7"/>
</a>
</g>
</g>
<!-- Node20 -->
<g id="Node000020" class="node">
<title>Node20</title>
<g id="a_Node000020"><a xlink:href="RigidBody_8h.html" target="_top" xlink:title=" ">
<polygon fill="white" stroke="#666666" points="808.5,-184 734.5,-184 734.5,-165 808.5,-165 808.5,-184"/>
<text text-anchor="middle" x="771.5" y="-172" font-family="Helvetica,sans-Serif" font-size="10.00">RigidBody.h</text>
</a>
</g>
</g>
<!-- Node13&#45;&gt;Node20 -->
<g id="edge22_Node000013_Node000020" class="edge">
<title>Node13&#45;&gt;Node20</title>
<g id="a_edge22_Node000013_Node000020"><a xlink:title=" ">
<path fill="none" stroke="#63b8ff" d="M526.41,-219.98C580.79,-210.12 669.87,-193.95 724.35,-184.06"/>
<polygon fill="#63b8ff" stroke="#63b8ff" points="725.21,-187.46 734.43,-182.23 723.96,-180.57 725.21,-187.46"/>
</a>
</g>
</g>
<!-- Node20&#45;&gt;Node8 -->
<g id="edge25_Node000020_Node000008" class="edge">
<title>Node20&#45;&gt;Node8</title>
<g id="a_edge25_Node000020_Node000008"><a xlink:title=" ">
<path fill="none" stroke="#63b8ff" d="M756.17,-164.95C740.98,-156.32 717.21,-142.4 697.5,-129 674.5,-113.36 649.29,-93.68 632.76,-80.41"/>
<polygon fill="#63b8ff" stroke="#63b8ff" points="634.94,-77.68 624.96,-74.11 630.54,-83.12 634.94,-77.68"/>
</a>
</g>
</g>
<!-- Node20&#45;&gt;Node14 -->
<g id="edge24_Node000020_Node000014" class="edge">
<title>Node20&#45;&gt;Node14</title>
<g id="a_edge24_Node000020_Node000014"><a xlink:title=" ">
<path fill="none" stroke="#63b8ff" d="M808.75,-170.58C863.97,-165.49 963.84,-153.16 989.5,-129 1001.56,-117.64 1005.41,-98.74 1006.48,-84.51"/>
<polygon fill="#63b8ff" stroke="#63b8ff" points="1009.99,-84.45 1006.85,-74.33 1002.99,-84.19 1009.99,-84.45"/>
</a>
</g>
</g>
<!-- Node20&#45;&gt;Node16 -->
<g id="edge23_Node000020_Node000016" class="edge">
<title>Node20&#45;&gt;Node16</title>
<g id="a_edge23_Node000020_Node000016"><a xlink:title=" ">
<path fill="none" stroke="#63b8ff" d="M808.6,-173.17C857.2,-171.3 943.82,-162.96 1008.5,-129 1029.85,-117.79 1048.67,-97.08 1060.29,-82.36"/>
<polygon fill="#63b8ff" stroke="#63b8ff" points="1063.29,-84.19 1066.54,-74.11 1057.71,-79.97 1063.29,-84.19"/>
</a>
</g>
</g>
<!-- Node21 -->
<g id="Node000021" class="node">
<title>Node21</title>
<g id="a_Node000021"><a xlink:title=" ">
<polygon fill="#e0e0e0" stroke="#999999" points="836.5,-129 706.5,-129 706.5,-110 836.5,-110 836.5,-129"/>
<text text-anchor="middle" x="771.5" y="-117" font-family="Helvetica,sans-Serif" font-size="10.00">glm/gtc/quaternion.hpp</text>
</a>
</g>
</g>
<!-- Node20&#45;&gt;Node21 -->
<g id="edge26_Node000020_Node000021" class="edge">
<title>Node20&#45;&gt;Node21</title>
<g id="a_edge26_Node000020_Node000021"><a xlink:title=" ">
<path fill="none" stroke="#63b8ff" d="M771.5,-164.75C771.5,-157.8 771.5,-147.85 771.5,-139.13"/>
<polygon fill="#63b8ff" stroke="#63b8ff" points="775,-139.09 771.5,-129.09 768,-139.09 775,-139.09"/>
</a>
</g>
</g>
<!-- Node22 -->
<g id="Node000022" class="node">
<title>Node22</title>
<g id="a_Node000022"><a xlink:href="ICollider_8h.html" target="_top" xlink:title="Abstract interface for collision detection shapes.">
<polygon fill="white" stroke="#666666" points="574,-129 461,-129 461,-110 574,-110 574,-129"/>
<text text-anchor="middle" x="517.5" y="-117" font-family="Helvetica,sans-Serif" font-size="10.00">bounding/ICollider.h</text>
</a>
</g>
</g>
<!-- Node20&#45;&gt;Node22 -->
<g id="edge27_Node000020_Node000022" class="edge">
<title>Node20&#45;&gt;Node22</title>
<g id="a_edge27_Node000020_Node000022"><a xlink:title=" ">
<path fill="none" stroke="#63b8ff" d="M734.29,-165.74C690.56,-156.61 617.72,-141.41 568.68,-131.18"/>
<polygon fill="#63b8ff" stroke="#63b8ff" points="569.1,-127.69 558.6,-129.08 567.67,-134.54 569.1,-127.69"/>
</a>
</g>
</g>
<!-- Node25 -->
<g id="Node000025" class="node">
<title>Node25</title>
<g id="a_Node000025"><a xlink:href="PhysicsBody_8h.html" target="_top" xlink:title=" ">
<polygon fill="white" stroke="#666666" points="980,-129 855,-129 855,-110 980,-110 980,-129"/>
<text text-anchor="middle" x="917.5" y="-117" font-family="Helvetica,sans-Serif" font-size="10.00">physics/PhysicsBody.h</text>
</a>
</g>
</g>
<!-- Node20&#45;&gt;Node25 -->
<g id="edge33_Node000020_Node000025" class="edge">
<title>Node20&#45;&gt;Node25</title>
<g id="a_edge33_Node000020_Node000025"><a xlink:title=" ">
<path fill="none" stroke="#63b8ff" d="M794.96,-164.98C819.08,-156.23 856.87,-142.51 884.1,-132.62"/>
<polygon fill="#63b8ff" stroke="#63b8ff" points="885.41,-135.87 893.62,-129.17 883.02,-129.29 885.41,-135.87"/>
</a>
</g>
</g>
<!-- Node22&#45;&gt;Node4 -->
<g id="edge29_Node000022_Node000004" class="edge">
<title>Node22&#45;&gt;Node4</title>
<g id="a_edge29_Node000022_Node000004"><a xlink:title=" ">
<path fill="none" stroke="#63b8ff" d="M483.44,-109.98C445.54,-100.51 384.4,-85.23 344.58,-75.27"/>
<polygon fill="#63b8ff" stroke="#63b8ff" points="345.25,-71.83 334.7,-72.8 343.55,-78.62 345.25,-71.83"/>
</a>
</g>
</g>
<!-- Node22&#45;&gt;Node8 -->
<g id="edge28_Node000022_Node000008" class="edge">
<title>Node22&#45;&gt;Node8</title>
<g id="a_edge28_Node000022_Node000008"><a xlink:title=" ">
<path fill="none" stroke="#63b8ff" d="M533.08,-109.98C548.27,-101.69 571.6,-88.94 589.4,-79.22"/>
<polygon fill="#63b8ff" stroke="#63b8ff" points="591.53,-82.04 598.63,-74.17 588.18,-75.89 591.53,-82.04"/>
</a>
</g>
</g>
<!-- Node22&#45;&gt;Node19 -->
<g id="edge30_Node000022_Node000019" class="edge">
<title>Node22&#45;&gt;Node19</title>
<g id="a_edge30_Node000022_Node000019"><a xlink:title=" ">
<path fill="none" stroke="#63b8ff" d="M504,-109.98C491.1,-101.84 471.4,-89.41 456.1,-79.76"/>
<polygon fill="#63b8ff" stroke="#63b8ff" points="457.57,-76.55 447.24,-74.17 453.83,-82.47 457.57,-76.55"/>
</a>
</g>
</g>
<!-- Node23 -->
<g id="Node000023" class="node">
<title>Node23</title>
<g id="a_Node000023"><a xlink:href="Ray_8h.html" target="_top" xlink:title=" ">
<polygon fill="white" stroke="#666666" points="553,-74 482,-74 482,-55 553,-55 553,-74"/>
<text text-anchor="middle" x="517.5" y="-62" font-family="Helvetica,sans-Serif" font-size="10.00">math/Ray.h</text>
</a>
</g>
</g>
<!-- Node22&#45;&gt;Node23 -->
<g id="edge31_Node000022_Node000023" class="edge">
<title>Node22&#45;&gt;Node23</title>
<g id="a_edge31_Node000022_Node000023"><a xlink:title=" ">
<path fill="none" stroke="#63b8ff" d="M517.5,-109.75C517.5,-102.8 517.5,-92.85 517.5,-84.13"/>
<polygon fill="#63b8ff" stroke="#63b8ff" points="521,-84.09 517.5,-74.09 514,-84.09 521,-84.09"/>
</a>
</g>
</g>
<!-- Node24 -->
<g id="Node000024" class="node">
<title>Node24</title>
<g id="a_Node000024"><a xlink:title=" ">
<polygon fill="#e0e0e0" stroke="#999999" points="559,-19 476,-19 476,0 559,0 559,-19"/>
<text text-anchor="middle" x="517.5" y="-7" font-family="Helvetica,sans-Serif" font-size="10.00">glm/vec3.hpp</text>
</a>
</g>
</g>
<!-- Node23&#45;&gt;Node24 -->
<g id="edge32_Node000023_Node000024" class="edge">
<title>Node23&#45;&gt;Node24</title>
<g id="a_edge32_Node000023_Node000024"><a xlink:title=" ">
<path fill="none" stroke="#63b8ff" d="M517.5,-54.75C517.5,-47.8 517.5,-37.85 517.5,-29.13"/>
<polygon fill="#63b8ff" stroke="#63b8ff" points="521,-29.09 517.5,-19.09 514,-29.09 521,-29.09"/>
</a>
</g>
</g>
<!-- Node25&#45;&gt;Node3 -->
<g id="edge35_Node000025_Node000003" class="edge">
<title>Node25&#45;&gt;Node3</title>
<g id="a_edge35_Node000025_Node000003"><a xlink:title=" ">
<path fill="none" stroke="#63b8ff" d="M883.12,-109.98C842.45,-99.91 775.27,-83.27 735.61,-73.45"/>
<polygon fill="#63b8ff" stroke="#63b8ff" points="736.23,-70 725.68,-70.99 734.55,-76.8 736.23,-70"/>
</a>
</g>
</g>
<!-- Node25&#45;&gt;Node8 -->
<g id="edge36_Node000025_Node000008" class="edge">
<title>Node25&#45;&gt;Node8</title>
<g id="a_edge36_Node000025_Node000008"><a xlink:title=" ">
<path fill="none" stroke="#63b8ff" d="M868.82,-109.98C812.6,-100.15 720.6,-84.06 664.03,-74.16"/>
<polygon fill="#63b8ff" stroke="#63b8ff" points="664.34,-70.67 653.89,-72.39 663.14,-77.56 664.34,-70.67"/>
</a>
</g>
</g>
<!-- Node25&#45;&gt;Node14 -->
<g id="edge37_Node000025_Node000014" class="edge">
<title>Node25&#45;&gt;Node14</title>
<g id="a_edge37_Node000025_Node000014"><a xlink:title=" ">
<path fill="none" stroke="#63b8ff" d="M931.8,-109.98C945.6,-101.77 966.74,-89.18 983.01,-79.49"/>
<polygon fill="#63b8ff" stroke="#63b8ff" points="985.14,-82.29 991.94,-74.17 981.56,-76.28 985.14,-82.29"/>
</a>
</g>
</g>
<!-- Node25&#45;&gt;Node15 -->
<g id="edge34_Node000025_Node000015" class="edge">
<title>Node25&#45;&gt;Node15</title>
<g id="a_edge34_Node000025_Node000015"><a xlink:title=" ">
<path fill="none" stroke="#63b8ff" d="M894.36,-109.98C870.68,-101.27 833.63,-87.63 806.79,-77.75"/>
<polygon fill="#63b8ff" stroke="#63b8ff" points="807.65,-74.34 797.06,-74.17 805.23,-80.91 807.65,-74.34"/>
</a>
</g>
</g>
<!-- Node25&#45;&gt;Node16 -->
<g id="edge39_Node000025_Node000016" class="edge">
<title>Node25&#45;&gt;Node16</title>
<g id="a_edge39_Node000025_Node000016"><a xlink:title=" ">
<path fill="none" stroke="#63b8ff" d="M942.4,-109.98C968.51,-101.06 1009.68,-86.98 1038.71,-77.05"/>
<polygon fill="#63b8ff" stroke="#63b8ff" points="1040.09,-80.28 1048.42,-73.73 1037.83,-73.66 1040.09,-80.28"/>
</a>
</g>
</g>
<!-- Node26 -->
<g id="Node000026" class="node">
<title>Node26</title>
<g id="a_Node000026"><a xlink:title=" ">
<polygon fill="#e0e0e0" stroke="#999999" points="857.5,-74 819.5,-74 819.5,-55 857.5,-55 857.5,-74"/>
<text text-anchor="middle" x="838.5" y="-62" font-family="Helvetica,sans-Serif" font-size="10.00">map</text>
</a>
</g>
</g>
<!-- Node25&#45;&gt;Node26 -->
<g id="edge38_Node000025_Node000026" class="edge">
<title>Node25&#45;&gt;Node26</title>
<g id="a_edge38_Node000025_Node000026"><a xlink:title=" ">
<path fill="none" stroke="#63b8ff" d="M904.81,-109.98C892.67,-101.84 874.14,-89.41 859.75,-79.76"/>
<polygon fill="#63b8ff" stroke="#63b8ff" points="861.68,-76.84 851.42,-74.17 857.78,-82.65 861.68,-76.84"/>
</a>
</g>
</g>
<!-- Node27 -->
<g id="Node000027" class="node">
<title>Node27</title>
<g id="a_Node000027"><a xlink:title=" ">
<polygon fill="#e0e0e0" stroke="#999999" points="961.5,-74 875.5,-74 875.5,-55 961.5,-55 961.5,-74"/>
<text text-anchor="middle" x="918.5" y="-62" font-family="Helvetica,sans-Serif" font-size="10.00">unordered_set</text>
</a>
</g>
</g>
<!-- Node25&#45;&gt;Node27 -->
<g id="edge40_Node000025_Node000027" class="edge">
<title>Node25&#45;&gt;Node27</title>
<g id="a_edge40_Node000025_Node000027"><a xlink:title=" ">
<path fill="none" stroke="#63b8ff" d="M917.67,-109.75C917.8,-102.8 917.98,-92.85 918.15,-84.13"/>
<polygon fill="#63b8ff" stroke="#63b8ff" points="921.65,-84.15 918.34,-74.09 914.65,-84.02 921.65,-84.15"/>
</a>
</g>
</g>
</g>
</svg>
