<?xml version="1.0" encoding="UTF-8" standalone="no"?>
<!DOCTYPE svg PUBLIC "-//W3C//DTD SVG 1.1//EN"
 "http://www.w3.org/Graphics/SVG/1.1/DTD/svg11.dtd">
<!-- Generated by graphviz version 2.43.0 (0)
 -->
<!-- Title: src/physics/solver/ProblemRouter.cpp Pages: 1 -->
<svg width="1444pt" height="368pt"
 viewBox="0.00 0.00 1443.97 368.00" xmlns="http://www.w3.org/2000/svg" xmlns:xlink="http://www.w3.org/1999/xlink">
<g id="graph0" class="graph" transform="scale(1 1) rotate(0) translate(4 364)">
<title>src/physics/solver/ProblemRouter.cpp</title>
<!-- Node1 -->
<g id="Node000001" class="node">
<title>Node1</title>
<g id="a_Node000001"><a xlink:title=" ">
<polygon fill="#999999" stroke="#666666" points="770.37,-360 658.37,-360 658.37,-330 770.37,-330 770.37,-360"/>
<text text-anchor="start" x="666.37" y="-348" font-family="Helvetica,sans-Serif" font-size="10.00">src/physics/solver</text>
<text text-anchor="middle" x="714.37" y="-337" font-family="Helvetica,sans-Serif" font-size="10.00">/ProblemRouter.cpp</text>
</a>
</g>
</g>
<!-- Node2 -->
<g id="Node000002" class="node">
<title>Node2</title>
<g id="a_Node000002"><a xlink:href="ProblemRouter_8h.html" target="_top" xlink:title=" ">
<polygon fill="white" stroke="#666666" points="404.37,-239 306.37,-239 306.37,-220 404.37,-220 404.37,-239"/>
<text text-anchor="middle" x="355.37" y="-227" font-family="Helvetica,sans-Serif" font-size="10.00">ProblemRouter.h</text>
</a>
</g>
</g>
<!-- Node1&#45;&gt;Node2 -->
<g id="edge1_Node000001_Node000002" class="edge">
<title>Node1&#45;&gt;Node2</title>
<g id="a_edge1_Node000001_Node000002"><a xlink:title=" ">
<path fill="none" stroke="#63b8ff" d="M669.99,-329.97C598.43,-307.35 458.88,-263.23 392.36,-242.2"/>
<polygon fill="#63b8ff" stroke="#63b8ff" points="393.3,-238.82 382.71,-239.14 391.19,-245.5 393.3,-238.82"/>
</a>
</g>
</g>
<!-- Node11 -->
<g id="Node000011" class="node">
<title>Node11</title>
<g id="a_Node000011"><a xlink:title=" ">
<polygon fill="#e0e0e0" stroke="#999999" points="862.37,-294 802.37,-294 802.37,-275 862.37,-275 862.37,-294"/>
<text text-anchor="middle" x="832.37" y="-282" font-family="Helvetica,sans-Serif" font-size="10.00">iostream</text>
</a>
</g>
</g>
<!-- Node1&#45;&gt;Node11 -->
<g id="edge11_Node000001_Node000011" class="edge">
<title>Node1&#45;&gt;Node11</title>
<g id="a_edge11_Node000001_Node000011"><a xlink:title=" ">
<path fill="none" stroke="#63b8ff" d="M742.63,-329.99C761.79,-320.49 786.95,-308.02 805.75,-298.69"/>
<polygon fill="#63b8ff" stroke="#63b8ff" points="807.54,-301.72 814.94,-294.14 804.43,-295.45 807.54,-301.72"/>
</a>
</g>
</g>
<!-- Node12 -->
<g id="Node000012" class="node">
<title>Node12</title>
<g id="a_Node000012"><a xlink:title=" ">
<polygon fill="#e0e0e0" stroke="#999999" points="912.37,-294 880.37,-294 880.37,-275 912.37,-275 912.37,-294"/>
<text text-anchor="middle" x="896.37" y="-282" font-family="Helvetica,sans-Serif" font-size="10.00">set</text>
</a>
</g>
</g>
<!-- Node1&#45;&gt;Node12 -->
<g id="edge12_Node000001_Node000012" class="edge">
<title>Node1&#45;&gt;Node12</title>
<g id="a_edge12_Node000001_Node000012"><a xlink:title=" ">
<path fill="none" stroke="#63b8ff" d="M759.45,-329.9C788.66,-320.7 827.76,-308.29 870.49,-294.25"/>
<polygon fill="#63b8ff" stroke="#63b8ff" points="871.84,-297.49 880.24,-291.03 869.65,-290.84 871.84,-297.49"/>
</a>
</g>
</g>
<!-- Node13 -->
<g id="Node000013" class="node">
<title>Node13</title>
<g id="a_Node000013"><a xlink:href="InterceptSolver_8h.html" target="_top" xlink:title=" ">
<polygon fill="white" stroke="#666666" points="260.87,-184 161.87,-184 161.87,-165 260.87,-165 260.87,-184"/>
<text text-anchor="middle" x="211.37" y="-172" font-family="Helvetica,sans-Serif" font-size="10.00">InterceptSolver.h</text>
</a>
</g>
</g>
<!-- Node1&#45;&gt;Node13 -->
<g id="edge13_Node000001_Node000013" class="edge">
<title>Node1&#45;&gt;Node13</title>
<g id="a_edge13_Node000001_Node000013"><a xlink:title=" ">
<path fill="none" stroke="#63b8ff" d="M658.24,-337.28C575.75,-325.81 418.45,-297.72 297.37,-239 271.2,-226.31 244.85,-205.37 228.34,-191.03"/>
<polygon fill="#63b8ff" stroke="#63b8ff" points="230.46,-188.23 220.66,-184.21 225.81,-193.46 230.46,-188.23"/>
</a>
</g>
</g>
<!-- Node14 -->
<g id="Node000014" class="node">
<title>Node14</title>
<g id="a_Node000014"><a xlink:href="PhysicsSystem_8h.html" target="_top" xlink:title=" ">
<polygon fill="white" stroke="#666666" points="783.87,-294 644.87,-294 644.87,-275 783.87,-275 783.87,-294"/>
<text text-anchor="middle" x="714.37" y="-282" font-family="Helvetica,sans-Serif" font-size="10.00">physics/PhysicsSystem.h</text>
</a>
</g>
</g>
<!-- Node1&#45;&gt;Node14 -->
<g id="edge16_Node000001_Node000014" class="edge">
<title>Node1&#45;&gt;Node14</title>
<g id="a_edge16_Node000001_Node000014"><a xlink:title=" ">
<path fill="none" stroke="#63b8ff" d="M714.37,-329.84C714.37,-322.21 714.37,-312.7 714.37,-304.45"/>
<polygon fill="#63b8ff" stroke="#63b8ff" points="717.87,-304.27 714.37,-294.27 710.87,-304.27 717.87,-304.27"/>
</a>
</g>
</g>
<!-- Node3 -->
<g id="Node000003" class="node">
<title>Node3</title>
<g id="a_Node000003"><a xlink:title=" ">
<polygon fill="#e0e0e0" stroke="#999999" points="463.37,-129 419.37,-129 419.37,-110 463.37,-110 463.37,-129"/>
<text text-anchor="middle" x="441.37" y="-117" font-family="Helvetica,sans-Serif" font-size="10.00">string</text>
</a>
</g>
</g>
<!-- Node2&#45;&gt;Node3 -->
<g id="edge2_Node000002_Node000003" class="edge">
<title>Node2&#45;&gt;Node3</title>
<g id="a_edge2_Node000002_Node000003"><a xlink:title=" ">
<path fill="none" stroke="#63b8ff" d="M364.14,-219.99C372.93,-211.29 386.66,-197.2 397.37,-184 409.6,-168.91 422.08,-150.57 430.6,-137.48"/>
<polygon fill="#63b8ff" stroke="#63b8ff" points="433.59,-139.31 436.05,-129.01 427.7,-135.53 433.59,-139.31"/>
</a>
</g>
</g>
<!-- Node4 -->
<g id="Node000004" class="node">
<title>Node4</title>
<g id="a_Node000004"><a xlink:title=" ">
<polygon fill="#e0e0e0" stroke="#999999" points="301.37,-74 243.37,-74 243.37,-55 301.37,-55 301.37,-74"/>
<text text-anchor="middle" x="272.37" y="-62" font-family="Helvetica,sans-Serif" font-size="10.00">memory</text>
</a>
</g>
</g>
<!-- Node2&#45;&gt;Node4 -->
<g id="edge3_Node000002_Node000004" class="edge">
<title>Node2&#45;&gt;Node4</title>
<g id="a_edge3_Node000002_Node000004"><a xlink:title=" ">
<path fill="none" stroke="#63b8ff" d="M306.19,-225.64C216.18,-219.9 32.38,-205.65 13.37,-184 -52.4,-109.12 145.94,-78.69 233.28,-69.14"/>
<polygon fill="#63b8ff" stroke="#63b8ff" points="233.78,-72.61 243.36,-68.08 233.05,-65.64 233.78,-72.61"/>
</a>
</g>
</g>
<!-- Node5 -->
<g id="Node000005" class="node">
<title>Node5</title>
<g id="a_Node000005"><a xlink:href="OneUnknownSolver_8h.html" target="_top" xlink:title=" ">
<polygon fill="white" stroke="#666666" points="143.87,-184 22.87,-184 22.87,-165 143.87,-165 143.87,-184"/>
<text text-anchor="middle" x="83.37" y="-172" font-family="Helvetica,sans-Serif" font-size="10.00">OneUnknownSolver.h</text>
</a>
</g>
</g>
<!-- Node2&#45;&gt;Node5 -->
<g id="edge4_Node000002_Node000005" class="edge">
<title>Node2&#45;&gt;Node5</title>
<g id="a_edge4_Node000002_Node000005"><a xlink:title=" ">
<path fill="none" stroke="#63b8ff" d="M311.66,-219.98C264.22,-210.74 188.4,-195.97 137.29,-186.01"/>
<polygon fill="#63b8ff" stroke="#63b8ff" points="137.9,-182.56 127.41,-184.08 136.56,-189.43 137.9,-182.56"/>
</a>
</g>
</g>
<!-- Node7 -->
<g id="Node000007" class="node">
<title>Node7</title>
<g id="a_Node000007"><a xlink:href="VectorRootSolver_8h.html" target="_top" xlink:title=" ">
<polygon fill="white" stroke="#666666" points="387.87,-184 278.87,-184 278.87,-165 387.87,-165 387.87,-184"/>
<text text-anchor="middle" x="333.37" y="-172" font-family="Helvetica,sans-Serif" font-size="10.00">VectorRootSolver.h</text>
</a>
</g>
</g>
<!-- Node2&#45;&gt;Node7 -->
<g id="edge6_Node000002_Node000007" class="edge">
<title>Node2&#45;&gt;Node7</title>
<g id="a_edge6_Node000002_Node000007"><a xlink:title=" ">
<path fill="none" stroke="#63b8ff" d="M351.73,-219.75C348.79,-212.65 344.53,-202.4 340.86,-193.56"/>
<polygon fill="#63b8ff" stroke="#63b8ff" points="344,-191.98 336.93,-184.09 337.53,-194.67 344,-191.98"/>
</a>
</g>
</g>
<!-- Node6 -->
<g id="Node000006" class="node">
<title>Node6</title>
<g id="a_Node000006"><a xlink:title=" ">
<polygon fill="#e0e0e0" stroke="#999999" points="218.87,-129 153.87,-129 153.87,-110 218.87,-110 218.87,-129"/>
<text text-anchor="middle" x="186.37" y="-117" font-family="Helvetica,sans-Serif" font-size="10.00">functional</text>
</a>
</g>
</g>
<!-- Node5&#45;&gt;Node6 -->
<g id="edge5_Node000005_Node000006" class="edge">
<title>Node5&#45;&gt;Node6</title>
<g id="a_edge5_Node000005_Node000006"><a xlink:title=" ">
<path fill="none" stroke="#63b8ff" d="M99.92,-164.98C116.26,-156.57 141.5,-143.59 160.5,-133.81"/>
<polygon fill="#63b8ff" stroke="#63b8ff" points="162.23,-136.86 169.52,-129.17 159.02,-130.63 162.23,-136.86"/>
</a>
</g>
</g>
<!-- Node7&#45;&gt;Node6 -->
<g id="edge8_Node000007_Node000006" class="edge">
<title>Node7&#45;&gt;Node6</title>
<g id="a_edge8_Node000007_Node000006"><a xlink:title=" ">
<path fill="none" stroke="#63b8ff" d="M309.75,-164.98C285.46,-156.23 247.42,-142.51 219.99,-132.62"/>
<polygon fill="#63b8ff" stroke="#63b8ff" points="221.01,-129.27 210.41,-129.17 218.63,-135.85 221.01,-129.27"/>
</a>
</g>
</g>
<!-- Node8 -->
<g id="Node000008" class="node">
<title>Node8</title>
<g id="a_Node000008"><a xlink:title=" ">
<polygon fill="#e0e0e0" stroke="#999999" points="356.37,-129 314.37,-129 314.37,-110 356.37,-110 356.37,-129"/>
<text text-anchor="middle" x="335.37" y="-117" font-family="Helvetica,sans-Serif" font-size="10.00">array</text>
</a>
</g>
</g>
<!-- Node7&#45;&gt;Node8 -->
<g id="edge7_Node000007_Node000008" class="edge">
<title>Node7&#45;&gt;Node8</title>
<g id="a_edge7_Node000007_Node000008"><a xlink:title=" ">
<path fill="none" stroke="#63b8ff" d="M333.7,-164.75C333.96,-157.8 334.33,-147.85 334.66,-139.13"/>
<polygon fill="#63b8ff" stroke="#63b8ff" points="338.16,-139.21 335.04,-129.09 331.17,-138.95 338.16,-139.21"/>
</a>
</g>
</g>
<!-- Node9 -->
<g id="Node000009" class="node">
<title>Node9</title>
<g id="a_Node000009"><a xlink:title=" ">
<polygon fill="#e0e0e0" stroke="#999999" points="675.37,-74 597.37,-74 597.37,-55 675.37,-55 675.37,-74"/>
<text text-anchor="middle" x="636.37" y="-62" font-family="Helvetica,sans-Serif" font-size="10.00">glm/glm.hpp</text>
</a>
</g>
</g>
<!-- Node7&#45;&gt;Node9 -->
<g id="edge9_Node000007_Node000009" class="edge">
<title>Node7&#45;&gt;Node9</title>
<g id="a_edge9_Node000007_Node000009"><a xlink:title=" ">
<path fill="none" stroke="#63b8ff" d="M340.96,-164.95C353.79,-151.06 381.23,-123.79 410.37,-110 467.28,-83.07 539.67,-72.43 586.98,-68.23"/>
<polygon fill="#63b8ff" stroke="#63b8ff" points="587.29,-71.72 596.97,-67.41 586.71,-64.74 587.29,-71.72"/>
</a>
</g>
</g>
<!-- Node10 -->
<g id="Node000010" class="node">
<title>Node10</title>
<g id="a_Node000010"><a xlink:href="ISolver_8h.html" target="_top" xlink:title="Abstract interface for numerical solvers.">
<polygon fill="white" stroke="#666666" points="295.87,-129 236.87,-129 236.87,-110 295.87,-110 295.87,-129"/>
<text text-anchor="middle" x="266.37" y="-117" font-family="Helvetica,sans-Serif" font-size="10.00">ISolver.h</text>
</a>
</g>
</g>
<!-- Node7&#45;&gt;Node10 -->
<g id="edge10_Node000007_Node000010" class="edge">
<title>Node7&#45;&gt;Node10</title>
<g id="a_edge10_Node000007_Node000010"><a xlink:title=" ">
<path fill="none" stroke="#63b8ff" d="M322.6,-164.98C312.6,-157.07 297.48,-145.11 285.44,-135.58"/>
<polygon fill="#63b8ff" stroke="#63b8ff" points="287.34,-132.63 277.33,-129.17 283,-138.12 287.34,-132.63"/>
</a>
</g>
</g>
<!-- Node13&#45;&gt;Node6 -->
<g id="edge15_Node000013_Node000006" class="edge">
<title>Node13&#45;&gt;Node6</title>
<g id="a_edge15_Node000013_Node000006"><a xlink:title=" ">
<path fill="none" stroke="#63b8ff" d="M207.24,-164.75C203.85,-157.57 198.95,-147.18 194.75,-138.27"/>
<polygon fill="#63b8ff" stroke="#63b8ff" points="197.85,-136.64 190.42,-129.09 191.52,-139.63 197.85,-136.64"/>
</a>
</g>
</g>
<!-- Node13&#45;&gt;Node10 -->
<g id="edge14_Node000013_Node000010" class="edge">
<title>Node13&#45;&gt;Node10</title>
<g id="a_edge14_Node000013_Node000010"><a xlink:title=" ">
<path fill="none" stroke="#63b8ff" d="M220.45,-164.75C228.46,-157.03 240.32,-145.6 249.99,-136.28"/>
<polygon fill="#63b8ff" stroke="#63b8ff" points="252.68,-138.55 257.45,-129.09 247.82,-133.51 252.68,-138.55"/>
</a>
</g>
</g>
<!-- Node14&#45;&gt;Node2 -->
<g id="edge45_Node000014_Node000002" class="edge">
<title>Node14&#45;&gt;Node2</title>
<g id="a_edge45_Node000014_Node000002"><a xlink:title=" ">
<path fill="none" stroke="#63b8ff" d="M656.69,-274.98C590.23,-265.17 481.6,-249.14 414.52,-239.23"/>
<polygon fill="#63b8ff" stroke="#63b8ff" points="414.94,-235.76 404.53,-237.76 413.91,-242.68 414.94,-235.76"/>
</a>
</g>
</g>
<!-- Node15 -->
<g id="Node000015" class="node">
<title>Node15</title>
<g id="a_Node000015"><a xlink:title=" ">
<polygon fill="#e0e0e0" stroke="#999999" points="1107.87,-129 1060.87,-129 1060.87,-110 1107.87,-110 1107.87,-129"/>
<text text-anchor="middle" x="1084.37" y="-117" font-family="Helvetica,sans-Serif" font-size="10.00">vector</text>
</a>
</g>
</g>
<!-- Node14&#45;&gt;Node15 -->
<g id="edge17_Node000014_Node000015" class="edge">
<title>Node14&#45;&gt;Node15</title>
<g id="a_edge17_Node000014_Node000015"><a xlink:title=" ">
<path fill="none" stroke="#63b8ff" d="M783.98,-275.19C868.99,-264.73 1002.55,-247.14 1010.37,-239 1033.27,-215.13 1001.28,-193.33 1018.37,-165 1026.52,-151.48 1040.54,-141.16 1053.57,-133.88"/>
<polygon fill="#63b8ff" stroke="#63b8ff" points="1055.51,-136.82 1062.79,-129.12 1052.3,-130.6 1055.51,-136.82"/>
</a>
</g>
</g>
<!-- Node16 -->
<g id="Node000016" class="node">
<title>Node16</title>
<g id="a_Node000016"><a xlink:title=" ">
<polygon fill="#e0e0e0" stroke="#999999" points="608.37,-129 558.37,-129 558.37,-110 608.37,-110 608.37,-129"/>
<text text-anchor="middle" x="583.37" y="-117" font-family="Helvetica,sans-Serif" font-size="10.00">atomic</text>
</a>
</g>
</g>
<!-- Node14&#45;&gt;Node16 -->
<g id="edge18_Node000014_Node000016" class="edge">
<title>Node14&#45;&gt;Node16</title>
<g id="a_edge18_Node000014_Node000016"><a xlink:title=" ">
<path fill="none" stroke="#63b8ff" d="M644.61,-280.27C581.36,-275.7 494.83,-264.79 473.37,-239 440.15,-199.08 512.39,-154.97 555.02,-133.58"/>
<polygon fill="#63b8ff" stroke="#63b8ff" points="556.68,-136.66 564.12,-129.12 553.6,-130.37 556.68,-136.66"/>
</a>
</g>
</g>
<!-- Node17 -->
<g id="Node000017" class="node">
<title>Node17</title>
<g id="a_Node000017"><a xlink:title=" ">
<polygon fill="#e0e0e0" stroke="#999999" points="1422.37,-129 1374.37,-129 1374.37,-110 1422.37,-110 1422.37,-129"/>
<text text-anchor="middle" x="1398.37" y="-117" font-family="Helvetica,sans-Serif" font-size="10.00">mutex</text>
</a>
</g>
</g>
<!-- Node14&#45;&gt;Node17 -->
<g id="edge19_Node000014_Node000017" class="edge">
<title>Node14&#45;&gt;Node17</title>
<g id="a_edge19_Node000014_Node000017"><a xlink:title=" ">
<path fill="none" stroke="#63b8ff" d="M784.14,-275.9C787.26,-275.59 790.35,-275.29 793.37,-275 982.95,-256.81 1033.41,-275.32 1220.37,-239 1301.65,-223.21 1349.21,-250.63 1398.37,-184 1407.76,-171.26 1406.62,-152.83 1403.8,-139.1"/>
<polygon fill="#63b8ff" stroke="#63b8ff" points="1407.17,-138.16 1401.35,-129.3 1400.38,-139.85 1407.17,-138.16"/>
</a>
</g>
</g>
<!-- Node18 -->
<g id="Node000018" class="node">
<title>Node18</title>
<g id="a_Node000018"><a xlink:title=" ">
<polygon fill="#e0e0e0" stroke="#999999" points="642.37,-239 594.37,-239 594.37,-220 642.37,-220 642.37,-239"/>
<text text-anchor="middle" x="618.37" y="-227" font-family="Helvetica,sans-Serif" font-size="10.00">thread</text>
</a>
</g>
</g>
<!-- Node14&#45;&gt;Node18 -->
<g id="edge20_Node000014_Node000018" class="edge">
<title>Node14&#45;&gt;Node18</title>
<g id="a_edge20_Node000014_Node000018"><a xlink:title=" ">
<path fill="none" stroke="#63b8ff" d="M698.94,-274.98C683.92,-266.69 660.83,-253.94 643.21,-244.22"/>
<polygon fill="#63b8ff" stroke="#63b8ff" points="644.52,-240.94 634.07,-239.17 641.13,-247.07 644.52,-240.94"/>
</a>
</g>
</g>
<!-- Node19 -->
<g id="Node000019" class="node">
<title>Node19</title>
<g id="a_Node000019"><a xlink:title=" ">
<polygon fill="#e0e0e0" stroke="#999999" points="767.87,-239 660.87,-239 660.87,-220 767.87,-220 767.87,-239"/>
<text text-anchor="middle" x="714.37" y="-227" font-family="Helvetica,sans-Serif" font-size="10.00">condition_variable</text>
</a>
</g>
</g>
<!-- Node14&#45;&gt;Node19 -->
<g id="edge21_Node000014_Node000019" class="edge">
<title>Node14&#45;&gt;Node19</title>
<g id="a_edge21_Node000014_Node000019"><a xlink:title=" ">
<path fill="none" stroke="#63b8ff" d="M714.37,-274.75C714.37,-267.8 714.37,-257.85 714.37,-249.13"/>
<polygon fill="#63b8ff" stroke="#63b8ff" points="717.87,-249.09 714.37,-239.09 710.87,-249.09 717.87,-249.09"/>
</a>
</g>
</g>
<!-- Node20 -->
<g id="Node000020" class="node">
<title>Node20</title>
<g id="a_Node000020"><a xlink:title=" ">
<polygon fill="#e0e0e0" stroke="#999999" points="1435.37,-74 1379.37,-74 1379.37,-55 1435.37,-55 1435.37,-74"/>
<text text-anchor="middle" x="1407.37" y="-62" font-family="Helvetica,sans-Serif" font-size="10.00">optional</text>
</a>
</g>
</g>
<!-- Node14&#45;&gt;Node20 -->
<g id="edge22_Node000014_Node000020" class="edge">
<title>Node14&#45;&gt;Node20</title>
<g id="a_edge22_Node000014_Node000020"><a xlink:title=" ">
<path fill="none" stroke="#63b8ff" d="M784.14,-275.85C787.26,-275.56 790.34,-275.27 793.37,-275 1019.26,-254.87 1083.31,-297.69 1302.37,-239 1356.32,-224.54 1379.36,-226.7 1415.37,-184 1437.06,-158.27 1439.6,-142.63 1431.37,-110 1428.95,-100.44 1424.04,-90.7 1419.28,-82.78"/>
<polygon fill="#63b8ff" stroke="#63b8ff" points="1422.09,-80.68 1413.73,-74.16 1416.2,-84.46 1422.09,-80.68"/>
</a>
</g>
</g>
<!-- Node21 -->
<g id="Node000021" class="node">
<title>Node21</title>
<g id="a_Node000021"><a xlink:href="RigidBody_8h.html" target="_top" xlink:title=" ">
<polygon fill="white" stroke="#666666" points="1211.37,-239 1137.37,-239 1137.37,-220 1211.37,-220 1211.37,-239"/>
<text text-anchor="middle" x="1174.37" y="-227" font-family="Helvetica,sans-Serif" font-size="10.00">RigidBody.h</text>
</a>
</g>
</g>
<!-- Node14&#45;&gt;Node21 -->
<g id="edge23_Node000014_Node000021" class="edge">
<title>Node14&#45;&gt;Node21</title>
<g id="a_edge23_Node000014_Node000021"><a xlink:title=" ">
<path fill="none" stroke="#63b8ff" d="M784.23,-275.45C879.07,-264.52 1046.04,-245.29 1127.3,-235.92"/>
<polygon fill="#63b8ff" stroke="#63b8ff" points="1127.7,-239.4 1137.24,-234.78 1126.9,-232.45 1127.7,-239.4"/>
</a>
</g>
</g>
<!-- Node31 -->
<g id="Node000031" class="node">
<title>Node31</title>
<g id="a_Node000031"><a xlink:href="Constants_8h.html" target="_top" xlink:title=" ">
<polygon fill="white" stroke="#666666" points="1001.37,-239 887.37,-239 887.37,-220 1001.37,-220 1001.37,-239"/>
<text text-anchor="middle" x="944.37" y="-227" font-family="Helvetica,sans-Serif" font-size="10.00">physics/Constants.h</text>
</a>
</g>
</g>
<!-- Node14&#45;&gt;Node31 -->
<g id="edge44_Node000014_Node000031" class="edge">
<title>Node14&#45;&gt;Node31</title>
<g id="a_edge44_Node000014_Node000031"><a xlink:title=" ">
<path fill="none" stroke="#63b8ff" d="M751.32,-274.98C790.94,-265.86 853.95,-251.33 897.14,-241.38"/>
<polygon fill="#63b8ff" stroke="#63b8ff" points="898.16,-244.74 907.12,-239.08 896.59,-237.92 898.16,-244.74"/>
</a>
</g>
</g>
<!-- Node32 -->
<g id="Node000032" class="node">
<title>Node32</title>
<g id="a_Node000032"><a xlink:href="Octree_8h.html" target="_top" xlink:title=" ">
<polygon fill="white" stroke="#666666" points="576.37,-239 482.37,-239 482.37,-220 576.37,-220 576.37,-239"/>
<text text-anchor="middle" x="529.37" y="-227" font-family="Helvetica,sans-Serif" font-size="10.00">spatial/Octree.h</text>
</a>
</g>
</g>
<!-- Node14&#45;&gt;Node32 -->
<g id="edge46_Node000014_Node000032" class="edge">
<title>Node14&#45;&gt;Node32</title>
<g id="a_edge46_Node000014_Node000032"><a xlink:title=" ">
<path fill="none" stroke="#63b8ff" d="M684.64,-274.98C653.31,-266.01 603.8,-251.82 569.12,-241.89"/>
<polygon fill="#63b8ff" stroke="#63b8ff" points="569.9,-238.47 559.32,-239.08 567.97,-245.2 569.9,-238.47"/>
</a>
</g>
</g>
<!-- Node35 -->
<g id="Node000035" class="node">
<title>Node35</title>
<g id="a_Node000035"><a xlink:href="BVH_8h.html" target="_top" xlink:title=" ">
<polygon fill="white" stroke="#666666" points="868.87,-239 785.87,-239 785.87,-220 868.87,-220 868.87,-239"/>
<text text-anchor="middle" x="827.37" y="-227" font-family="Helvetica,sans-Serif" font-size="10.00">spatial/BVH.h</text>
</a>
</g>
</g>
<!-- Node14&#45;&gt;Node35 -->
<g id="edge52_Node000014_Node000035" class="edge">
<title>Node14&#45;&gt;Node35</title>
<g id="a_edge52_Node000014_Node000035"><a xlink:title=" ">
<path fill="none" stroke="#63b8ff" d="M732.52,-274.98C750.62,-266.5 778.65,-253.35 799.55,-243.54"/>
<polygon fill="#63b8ff" stroke="#63b8ff" points="801.31,-246.59 808.88,-239.17 798.34,-240.25 801.31,-246.59"/>
</a>
</g>
</g>
<!-- Node21&#45;&gt;Node9 -->
<g id="edge26_Node000021_Node000009" class="edge">
<title>Node21&#45;&gt;Node9</title>
<g id="a_edge26_Node000021_Node000009"><a xlink:title=" ">
<path fill="none" stroke="#63b8ff" d="M1174.4,-219.77C1173.97,-197.19 1169.34,-136.77 1133.37,-110 1097.99,-83.67 804.51,-71.08 685.86,-67.02"/>
<polygon fill="#63b8ff" stroke="#63b8ff" points="685.71,-63.51 675.6,-66.68 685.48,-70.51 685.71,-63.51"/>
</a>
</g>
</g>
<!-- Node21&#45;&gt;Node15 -->
<g id="edge25_Node000021_Node000015" class="edge">
<title>Node21&#45;&gt;Node15</title>
<g id="a_edge25_Node000021_Node000015"><a xlink:title=" ">
<path fill="none" stroke="#63b8ff" d="M1137.27,-228.8C1102.58,-226.85 1052.47,-217.83 1027.37,-184 1013.83,-165.76 1036.95,-146.59 1057.68,-134.15"/>
<polygon fill="#63b8ff" stroke="#63b8ff" points="1059.62,-137.07 1066.59,-129.09 1056.17,-130.98 1059.62,-137.07"/>
</a>
</g>
</g>
<!-- Node21&#45;&gt;Node17 -->
<g id="edge24_Node000021_Node000017" class="edge">
<title>Node21&#45;&gt;Node17</title>
<g id="a_edge24_Node000021_Node000017"><a xlink:title=" ">
<path fill="none" stroke="#63b8ff" d="M1211.48,-224.95C1263.74,-219.22 1355.31,-206.27 1379.37,-184 1391.63,-172.65 1396.09,-153.75 1397.66,-139.51"/>
<polygon fill="#63b8ff" stroke="#63b8ff" points="1401.17,-139.55 1398.39,-129.33 1394.18,-139.05 1401.17,-139.55"/>
</a>
</g>
</g>
<!-- Node22 -->
<g id="Node000022" class="node">
<title>Node22</title>
<g id="a_Node000022"><a xlink:title=" ">
<polygon fill="#e0e0e0" stroke="#999999" points="1370.37,-184 1240.37,-184 1240.37,-165 1370.37,-165 1370.37,-184"/>
<text text-anchor="middle" x="1305.37" y="-172" font-family="Helvetica,sans-Serif" font-size="10.00">glm/gtc/quaternion.hpp</text>
</a>
</g>
</g>
<!-- Node21&#45;&gt;Node22 -->
<g id="edge27_Node000021_Node000022" class="edge">
<title>Node21&#45;&gt;Node22</title>
<g id="a_edge27_Node000021_Node000022"><a xlink:title=" ">
<path fill="none" stroke="#63b8ff" d="M1195.41,-219.98C1216.77,-211.34 1250.07,-197.87 1274.43,-188.02"/>
<polygon fill="#63b8ff" stroke="#63b8ff" points="1275.98,-191.17 1283.94,-184.17 1273.35,-184.68 1275.98,-191.17"/>
</a>
</g>
</g>
<!-- Node23 -->
<g id="Node000023" class="node">
<title>Node23</title>
<g id="a_Node000023"><a xlink:href="ICollider_8h.html" target="_top" xlink:title="Abstract interface for collision detection shapes.">
<polygon fill="white" stroke="#666666" points="1315.87,-129 1202.87,-129 1202.87,-110 1315.87,-110 1315.87,-129"/>
<text text-anchor="middle" x="1259.37" y="-117" font-family="Helvetica,sans-Serif" font-size="10.00">bounding/ICollider.h</text>
</a>
</g>
</g>
<!-- Node21&#45;&gt;Node23 -->
<g id="edge28_Node000021_Node000023" class="edge">
<title>Node21&#45;&gt;Node23</title>
<g id="a_edge28_Node000021_Node000023"><a xlink:title=" ">
<path fill="none" stroke="#63b8ff" d="M1181.32,-219.66C1195.53,-201.61 1228.06,-160.28 1246.32,-137.08"/>
<polygon fill="#63b8ff" stroke="#63b8ff" points="1249.12,-139.18 1252.55,-129.16 1243.62,-134.85 1249.12,-139.18"/>
</a>
</g>
</g>
<!-- Node26 -->
<g id="Node000026" class="node">
<title>Node26</title>
<g id="a_Node000026"><a xlink:href="PhysicsBody_8h.html" target="_top" xlink:title=" ">
<polygon fill="white" stroke="#666666" points="868.87,-184 743.87,-184 743.87,-165 868.87,-165 868.87,-184"/>
<text text-anchor="middle" x="806.37" y="-172" font-family="Helvetica,sans-Serif" font-size="10.00">physics/PhysicsBody.h</text>
</a>
</g>
</g>
<!-- Node21&#45;&gt;Node26 -->
<g id="edge34_Node000021_Node000026" class="edge">
<title>Node21&#45;&gt;Node26</title>
<g id="a_edge34_Node000021_Node000026"><a xlink:title=" ">
<path fill="none" stroke="#63b8ff" d="M1137.06,-223.13C1075.85,-214.31 953.19,-196.65 875.68,-185.48"/>
<polygon fill="#63b8ff" stroke="#63b8ff" points="875.92,-181.98 865.53,-184.02 874.93,-188.91 875.92,-181.98"/>
</a>
</g>
</g>
<!-- Node23&#45;&gt;Node4 -->
<g id="edge30_Node000023_Node000004" class="edge">
<title>Node23&#45;&gt;Node4</title>
<g id="a_edge30_Node000023_Node000004"><a xlink:title=" ">
<path fill="none" stroke="#63b8ff" d="M1202.71,-115.02C1176.71,-113.44 1145.48,-111.58 1117.37,-110 806.99,-92.54 432.35,-73.54 311.77,-67.47"/>
<polygon fill="#63b8ff" stroke="#63b8ff" points="311.72,-63.97 301.56,-66.96 311.37,-70.96 311.72,-63.97"/>
</a>
</g>
</g>
<!-- Node23&#45;&gt;Node9 -->
<g id="edge29_Node000023_Node000009" class="edge">
<title>Node23&#45;&gt;Node9</title>
<g id="a_edge29_Node000023_Node000009"><a xlink:title=" ">
<path fill="none" stroke="#63b8ff" d="M1202.81,-111.53C1197.93,-110.99 1193.06,-110.47 1188.37,-110 1003.07,-91.45 782.17,-75.49 685.62,-68.83"/>
<polygon fill="#63b8ff" stroke="#63b8ff" points="685.78,-65.33 675.57,-68.14 685.3,-72.31 685.78,-65.33"/>
</a>
</g>
</g>
<!-- Node23&#45;&gt;Node20 -->
<g id="edge31_Node000023_Node000020" class="edge">
<title>Node23&#45;&gt;Node20</title>
<g id="a_edge31_Node000023_Node000020"><a xlink:title=" ">
<path fill="none" stroke="#63b8ff" d="M1283.15,-109.98C1307.6,-101.23 1345.9,-87.51 1373.51,-77.62"/>
<polygon fill="#63b8ff" stroke="#63b8ff" points="1374.92,-80.84 1383.15,-74.17 1372.56,-74.25 1374.92,-80.84"/>
</a>
</g>
</g>
<!-- Node24 -->
<g id="Node000024" class="node">
<title>Node24</title>
<g id="a_Node000024"><a xlink:href="Ray_8h.html" target="_top" xlink:title=" ">
<polygon fill="white" stroke="#666666" points="1294.87,-74 1223.87,-74 1223.87,-55 1294.87,-55 1294.87,-74"/>
<text text-anchor="middle" x="1259.37" y="-62" font-family="Helvetica,sans-Serif" font-size="10.00">math/Ray.h</text>
</a>
</g>
</g>
<!-- Node23&#45;&gt;Node24 -->
<g id="edge32_Node000023_Node000024" class="edge">
<title>Node23&#45;&gt;Node24</title>
<g id="a_edge32_Node000023_Node000024"><a xlink:title=" ">
<path fill="none" stroke="#63b8ff" d="M1259.37,-109.75C1259.37,-102.8 1259.37,-92.85 1259.37,-84.13"/>
<polygon fill="#63b8ff" stroke="#63b8ff" points="1262.87,-84.09 1259.37,-74.09 1255.87,-84.09 1262.87,-84.09"/>
</a>
</g>
</g>
<!-- Node25 -->
<g id="Node000025" class="node">
<title>Node25</title>
<g id="a_Node000025"><a xlink:title=" ">
<polygon fill="#e0e0e0" stroke="#999999" points="1300.87,-19 1217.87,-19 1217.87,0 1300.87,0 1300.87,-19"/>
<text text-anchor="middle" x="1259.37" y="-7" font-family="Helvetica,sans-Serif" font-size="10.00">glm/vec3.hpp</text>
</a>
</g>
</g>
<!-- Node24&#45;&gt;Node25 -->
<g id="edge33_Node000024_Node000025" class="edge">
<title>Node24&#45;&gt;Node25</title>
<g id="a_edge33_Node000024_Node000025"><a xlink:title=" ">
<path fill="none" stroke="#63b8ff" d="M1259.37,-54.75C1259.37,-47.8 1259.37,-37.85 1259.37,-29.13"/>
<polygon fill="#63b8ff" stroke="#63b8ff" points="1262.87,-29.09 1259.37,-19.09 1255.87,-29.09 1262.87,-29.09"/>
</a>
</g>
</g>
<!-- Node26&#45;&gt;Node3 -->
<g id="edge36_Node000026_Node000003" class="edge">
<title>Node26&#45;&gt;Node3</title>
<g id="a_edge36_Node000026_Node000003"><a xlink:title=" ">
<path fill="none" stroke="#63b8ff" d="M747.72,-164.98C669.97,-153.69 535.43,-134.16 473.84,-125.22"/>
<polygon fill="#63b8ff" stroke="#63b8ff" points="473.97,-121.7 463.57,-123.72 472.96,-128.62 473.97,-121.7"/>
</a>
</g>
</g>
<!-- Node26&#45;&gt;Node9 -->
<g id="edge38_Node000026_Node000009" class="edge">
<title>Node26&#45;&gt;Node9</title>
<g id="a_edge38_Node000026_Node000009"><a xlink:title=" ">
<path fill="none" stroke="#63b8ff" d="M743.85,-168.83C713.52,-163.46 678.7,-152.24 655.37,-129 643.53,-117.21 639.01,-98.37 637.31,-84.27"/>
<polygon fill="#63b8ff" stroke="#63b8ff" points="640.79,-83.87 636.47,-74.2 633.81,-84.45 640.79,-83.87"/>
</a>
</g>
</g>
<!-- Node26&#45;&gt;Node15 -->
<g id="edge39_Node000026_Node000015" class="edge">
<title>Node26&#45;&gt;Node15</title>
<g id="a_edge39_Node000026_Node000015"><a xlink:title=" ">
<path fill="none" stroke="#63b8ff" d="M860.85,-164.94C908.62,-157.14 980.14,-144.76 1050.7,-129.24"/>
<polygon fill="#63b8ff" stroke="#63b8ff" points="1051.65,-132.61 1060.65,-127.03 1050.13,-125.78 1051.65,-132.61"/>
</a>
</g>
</g>
<!-- Node26&#45;&gt;Node16 -->
<g id="edge35_Node000026_Node000016" class="edge">
<title>Node26&#45;&gt;Node16</title>
<g id="a_edge35_Node000026_Node000016"><a xlink:title=" ">
<path fill="none" stroke="#63b8ff" d="M770.54,-164.98C728.66,-155.03 659.8,-138.67 618.31,-128.8"/>
<polygon fill="#63b8ff" stroke="#63b8ff" points="618.92,-125.35 608.38,-126.45 617.3,-132.16 618.92,-125.35"/>
</a>
</g>
</g>
<!-- Node26&#45;&gt;Node17 -->
<g id="edge41_Node000026_Node000017" class="edge">
<title>Node26&#45;&gt;Node17</title>
<g id="a_edge41_Node000026_Node000017"><a xlink:title=" ">
<path fill="none" stroke="#63b8ff" d="M869.14,-168.74C966.78,-161.19 1160.93,-145.62 1325.37,-129 1337.93,-127.73 1351.7,-126.17 1363.85,-124.74"/>
<polygon fill="#63b8ff" stroke="#63b8ff" points="1364.54,-128.18 1374.05,-123.52 1363.71,-121.23 1364.54,-128.18"/>
</a>
</g>
</g>
<!-- Node27 -->
<g id="Node000027" class="node">
<title>Node27</title>
<g id="a_Node000027"><a xlink:title=" ">
<polygon fill="#e0e0e0" stroke="#999999" points="1042.87,-129 997.87,-129 997.87,-110 1042.87,-110 1042.87,-129"/>
<text text-anchor="middle" x="1020.37" y="-117" font-family="Helvetica,sans-Serif" font-size="10.00">utility</text>
</a>
</g>
</g>
<!-- Node26&#45;&gt;Node27 -->
<g id="edge37_Node000026_Node000027" class="edge">
<title>Node26&#45;&gt;Node27</title>
<g id="a_edge37_Node000026_Node000027"><a xlink:title=" ">
<path fill="none" stroke="#63b8ff" d="M842.9,-164.95C877.8,-156.7 932.12,-143.68 987.68,-129.38"/>
<polygon fill="#63b8ff" stroke="#63b8ff" points="988.89,-132.69 997.7,-126.8 987.14,-125.91 988.89,-132.69"/>
</a>
</g>
</g>
<!-- Node28 -->
<g id="Node000028" class="node">
<title>Node28</title>
<g id="a_Node000028"><a xlink:title=" ">
<polygon fill="#e0e0e0" stroke="#999999" points="702.37,-129 664.37,-129 664.37,-110 702.37,-110 702.37,-129"/>
<text text-anchor="middle" x="683.37" y="-117" font-family="Helvetica,sans-Serif" font-size="10.00">map</text>
</a>
</g>
</g>
<!-- Node26&#45;&gt;Node28 -->
<g id="edge40_Node000026_Node000028" class="edge">
<title>Node26&#45;&gt;Node28</title>
<g id="a_edge40_Node000026_Node000028"><a xlink:title=" ">
<path fill="none" stroke="#63b8ff" d="M786.6,-164.98C766.4,-156.28 734.82,-142.67 711.91,-132.8"/>
<polygon fill="#63b8ff" stroke="#63b8ff" points="713.24,-129.56 702.67,-128.82 710.47,-135.99 713.24,-129.56"/>
</a>
</g>
</g>
<!-- Node29 -->
<g id="Node000029" class="node">
<title>Node29</title>
<g id="a_Node000029"><a xlink:title=" ">
<polygon fill="#e0e0e0" stroke="#999999" points="806.37,-129 720.37,-129 720.37,-110 806.37,-110 806.37,-129"/>
<text text-anchor="middle" x="763.37" y="-117" font-family="Helvetica,sans-Serif" font-size="10.00">unordered_set</text>
</a>
</g>
</g>
<!-- Node26&#45;&gt;Node29 -->
<g id="edge42_Node000026_Node000029" class="edge">
<title>Node26&#45;&gt;Node29</title>
<g id="a_edge42_Node000026_Node000029"><a xlink:title=" ">
<path fill="none" stroke="#63b8ff" d="M799.27,-164.75C793.19,-157.26 784.28,-146.28 776.86,-137.13"/>
<polygon fill="#63b8ff" stroke="#63b8ff" points="779.35,-134.65 770.33,-129.09 773.92,-139.06 779.35,-134.65"/>
</a>
</g>
</g>
<!-- Node30 -->
<g id="Node000030" class="node">
<title>Node30</title>
<g id="a_Node000030"><a xlink:href="ThermalProperties_8h.html" target="_top" xlink:title=" ">
<polygon fill="white" stroke="#666666" points="979.87,-129 824.87,-129 824.87,-110 979.87,-110 979.87,-129"/>
<text text-anchor="middle" x="902.37" y="-117" font-family="Helvetica,sans-Serif" font-size="10.00">physics/ThermalProperties.h</text>
</a>
</g>
</g>
<!-- Node26&#45;&gt;Node30 -->
<g id="edge43_Node000026_Node000030" class="edge">
<title>Node26&#45;&gt;Node30</title>
<g id="a_edge43_Node000026_Node000030"><a xlink:title=" ">
<path fill="none" stroke="#63b8ff" d="M821.79,-164.98C836.82,-156.69 859.91,-143.94 877.52,-134.22"/>
<polygon fill="#63b8ff" stroke="#63b8ff" points="879.6,-137.07 886.66,-129.17 876.22,-130.94 879.6,-137.07"/>
</a>
</g>
</g>
<!-- Node32&#45;&gt;Node9 -->
<g id="edge49_Node000032_Node000009" class="edge">
<title>Node32&#45;&gt;Node9</title>
<g id="a_edge49_Node000032_Node000009"><a xlink:title=" ">
<path fill="none" stroke="#63b8ff" d="M524.8,-219.97C514.2,-198.87 490.71,-143.53 516.37,-110 533.23,-87.96 562.21,-76.83 587.47,-71.22"/>
<polygon fill="#63b8ff" stroke="#63b8ff" points="588.17,-74.64 597.29,-69.26 586.8,-67.78 588.17,-74.64"/>
</a>
</g>
</g>
<!-- Node32&#45;&gt;Node15 -->
<g id="edge50_Node000032_Node000015" class="edge">
<title>Node32&#45;&gt;Node15</title>
<g id="a_edge50_Node000032_Node000015"><a xlink:title=" ">
<path fill="none" stroke="#63b8ff" d="M576.41,-221.26C579.44,-220.83 582.44,-220.4 585.37,-220 715.35,-202.15 750.06,-211.43 878.37,-184 940.78,-170.66 1011.46,-146.91 1051.69,-132.54"/>
<polygon fill="#63b8ff" stroke="#63b8ff" points="1053.02,-135.78 1061.24,-129.1 1050.65,-129.2 1053.02,-135.78"/>
</a>
</g>
</g>
<!-- Node32&#45;&gt;Node26 -->
<g id="edge47_Node000032_Node000026" class="edge">
<title>Node32&#45;&gt;Node26</title>
<g id="a_edge47_Node000032_Node000026"><a xlink:title=" ">
<path fill="none" stroke="#63b8ff" d="M573.87,-219.98C622.19,-210.74 699.4,-195.97 751.45,-186.01"/>
<polygon fill="#63b8ff" stroke="#63b8ff" points="752.35,-189.4 761.51,-184.08 751.03,-182.52 752.35,-189.4"/>
</a>
</g>
</g>
<!-- Node33 -->
<g id="Node000033" class="node">
<title>Node33</title>
<g id="a_Node000033"><a xlink:href="NodeIndex_8h.html" target="_top" xlink:title=" ">
<polygon fill="white" stroke="#666666" points="666.37,-184 588.37,-184 588.37,-165 666.37,-165 666.37,-184"/>
<text text-anchor="middle" x="627.37" y="-172" font-family="Helvetica,sans-Serif" font-size="10.00">NodeIndex.h</text>
</a>
</g>
</g>
<!-- Node32&#45;&gt;Node33 -->
<g id="edge48_Node000032_Node000033" class="edge">
<title>Node32&#45;&gt;Node33</title>
<g id="a_edge48_Node000032_Node000033"><a xlink:title=" ">
<path fill="none" stroke="#63b8ff" d="M545.11,-219.98C560.59,-211.61 584.46,-198.7 602.5,-188.95"/>
<polygon fill="#63b8ff" stroke="#63b8ff" points="604.2,-192.01 611.33,-184.17 600.87,-185.85 604.2,-192.01"/>
</a>
</g>
</g>
<!-- Node34 -->
<g id="Node000034" class="node">
<title>Node34</title>
<g id="a_Node000034"><a xlink:title=" ">
<polygon fill="#e0e0e0" stroke="#999999" points="570.37,-184 520.37,-184 520.37,-165 570.37,-165 570.37,-184"/>
<text text-anchor="middle" x="545.37" y="-172" font-family="Helvetica,sans-Serif" font-size="10.00">cstdint</text>
</a>
</g>
</g>
<!-- Node32&#45;&gt;Node34 -->
<g id="edge51_Node000032_Node000034" class="edge">
<title>Node32&#45;&gt;Node34</title>
<g id="a_edge51_Node000032_Node000034"><a xlink:title=" ">
<path fill="none" stroke="#63b8ff" d="M532.01,-219.75C534.13,-212.72 537.18,-202.62 539.83,-193.84"/>
<polygon fill="#63b8ff" stroke="#63b8ff" points="543.23,-194.67 542.77,-184.09 536.53,-192.65 543.23,-194.67"/>
</a>
</g>
</g>
<!-- Node35&#45;&gt;Node9 -->
<g id="edge53_Node000035_Node000009" class="edge">
<title>Node35&#45;&gt;Node9</title>
<g id="a_edge53_Node000035_Node000009"><a xlink:title=" ">
<path fill="none" stroke="#63b8ff" d="M808.92,-219.96C780.59,-207.05 724.49,-182.21 675.37,-165 620.4,-145.74 584.44,-175.5 549.37,-129 532.35,-106.44 565.75,-88.38 595.97,-77.38"/>
<polygon fill="#63b8ff" stroke="#63b8ff" points="597.29,-80.62 605.6,-74.05 595.01,-74.01 597.29,-80.62"/>
</a>
</g>
</g>
<!-- Node35&#45;&gt;Node26 -->
<g id="edge58_Node000035_Node000026" class="edge">
<title>Node35&#45;&gt;Node26</title>
<g id="a_edge58_Node000035_Node000026"><a xlink:title=" ">
<path fill="none" stroke="#63b8ff" d="M823.9,-219.75C821.09,-212.65 817.03,-202.4 813.52,-193.56"/>
<polygon fill="#63b8ff" stroke="#63b8ff" points="816.71,-192.1 809.77,-184.09 810.2,-194.68 816.71,-192.1"/>
</a>
</g>
</g>
<!-- Node35&#45;&gt;Node33 -->
<g id="edge57_Node000035_Node000033" class="edge">
<title>Node35&#45;&gt;Node33</title>
<g id="a_edge57_Node000035_Node000033"><a xlink:title=" ">
<path fill="none" stroke="#63b8ff" d="M795.23,-219.98C761.22,-210.97 707.37,-196.7 669.87,-186.76"/>
<polygon fill="#63b8ff" stroke="#63b8ff" points="670.31,-183.26 659.75,-184.08 668.52,-190.03 670.31,-183.26"/>
</a>
</g>
</g>
<!-- Node36 -->
<g id="Node000036" class="node">
<title>Node36</title>
<g id="a_Node000036"><a xlink:href="AABB_8h.html" target="_top" xlink:title=" ">
<polygon fill="white" stroke="#666666" points="1146.37,-184 1036.37,-184 1036.37,-165 1146.37,-165 1146.37,-184"/>
<text text-anchor="middle" x="1091.37" y="-172" font-family="Helvetica,sans-Serif" font-size="10.00">../bounding/AABB.h</text>
</a>
</g>
</g>
<!-- Node35&#45;&gt;Node36 -->
<g id="edge54_Node000035_Node000036" class="edge">
<title>Node35&#45;&gt;Node36</title>
<g id="a_edge54_Node000035_Node000036"><a xlink:title=" ">
<path fill="none" stroke="#63b8ff" d="M868.91,-220.16C914.82,-210.94 988.88,-196.08 1038.8,-186.05"/>
<polygon fill="#63b8ff" stroke="#63b8ff" points="1039.64,-189.45 1048.76,-184.05 1038.26,-182.59 1039.64,-189.45"/>
</a>
</g>
</g>
<!-- Node36&#45;&gt;Node9 -->
<g id="edge55_Node000036_Node000009" class="edge">
<title>Node36&#45;&gt;Node9</title>
<g id="a_edge55_Node000036_Node000009"><a xlink:title=" ">
<path fill="none" stroke="#63b8ff" d="M1100.29,-164.67C1112.67,-151.36 1131.97,-126.02 1117.37,-110 1088.67,-78.53 802.7,-68.98 685.79,-66.38"/>
<polygon fill="#63b8ff" stroke="#63b8ff" points="685.75,-62.88 675.67,-66.17 685.6,-69.88 685.75,-62.88"/>
</a>
</g>
</g>
<!-- Node36&#45;&gt;Node23 -->
<g id="edge56_Node000036_Node000023" class="edge">
<title>Node36&#45;&gt;Node23</title>
<g id="a_edge56_Node000036_Node000023"><a xlink:title=" ">
<path fill="none" stroke="#63b8ff" d="M1118.36,-164.98C1146.56,-156.09 1191.01,-142.07 1222.45,-132.15"/>
<polygon fill="#63b8ff" stroke="#63b8ff" points="1223.68,-135.43 1232.16,-129.08 1221.57,-128.75 1223.68,-135.43"/>
</a>
</g>
</g>
</g>
</svg>
