<?xml version="1.0" encoding="UTF-8" standalone="no"?>
<!DOCTYPE svg PUBLIC "-//W3C//DTD SVG 1.1//EN"
 "http://www.w3.org/Graphics/SVG/1.1/DTD/svg11.dtd">
<!-- Generated by graphviz version 2.43.0 (0)
 -->
<!-- Title: src/physics/solver/ProblemRouter.cpp Pages: 1 -->
<!--zoomable 313 -->

<svg id="main" version="1.1" xmlns="http://www.w3.org/2000/svg" xmlns:xlink="http://www.w3.org/1999/xlink" xml:space="preserve" onload="init(evt)">
<style type="text/css"><![CDATA[
.node, .edge {opacity: 0.7;}
.node.selected, .edge.selected {opacity: 1;}
.edge:hover path { stroke: red; }
.edge:hover polygon { stroke: red; fill: red; }
]]></style>

<defs>
  <circle id="rim" cx="0" cy="0" r="7"/>
  <circle id="rim2" cx="0" cy="0" r="3.5"/>
  <g id="zoomPlus">
    <use xlink:href="#rim" fill="#404040"><set attributeName="fill" to="#808080" begin="zoomplus.mouseover" end="zoomplus.mouseout"/></use>
    <path d="M-4,0h8M0,-4v8" fill="none" stroke="white" stroke-width="1.5" pointer-events="none"/>
  </g>
  <g id="zoomMin">
    <use xlink:href="#rim" fill="#404040"><set attributeName="fill" to="#808080" begin="zoomminus.mouseover" end="zoomminus.mouseout"/></use>
    <path d="M-4,0h8" fill="none" stroke="white" stroke-width="1.5" pointer-events="none"/>
  </g>
  <g id="arrowUp" transform="translate(30 24)">
    <use xlink:href="#rim"/>
    <path pointer-events="none" fill="none" stroke="white" stroke-width="1.5" d="M0,-3.0v7 M-2.5,-0.5L0,-3.0L2.5,-0.5"/>
  </g>
  <g id="arrowRight" transform="rotate(90) translate(36 -43)">
    <use xlink:href="#rim"/>
    <path pointer-events="none" fill="none" stroke="white" stroke-width="1.5" d="M0,-3.0v7 M-2.5,-0.5L0,-3.0L2.5,-0.5"/>
  </g>
  <g id="arrowDown" transform="rotate(180) translate(-30 -48)">
    <use xlink:href="#rim"/>
    <path pointer-events="none" fill="none" stroke="white" stroke-width="1.5" d="M0,-3.0v7 M-2.5,-0.5L0,-3.0L2.5,-0.5"/>
  </g>
  <g id="arrowLeft" transform="rotate(270) translate(-36 17)">
    <use xlink:href="#rim"/>
    <path pointer-events="none" fill="none" stroke="white" stroke-width="1.5" d="M0,-3.0v7 M-2.5,-0.5L0,-3.0L2.5,-0.5"/>
  </g>
  <g id="resetDef">
    <use xlink:href="#rim2" fill="#404040"><set attributeName="fill" to="#808080" begin="reset.mouseover" end="reset.mouseout"/></use>
  </g>
</defs>
<script type="application/ecmascript">
var viewWidth = 1198;
var viewHeight = 313;
var sectionId = 'dynsection-0';
</script>
<script type="application/ecmascript" xlink:href="svg.min.js"/>
<svg id="graph" class="graph">
<g id="viewport">
<title>src/physics/solver/ProblemRouter.cpp</title>
<!-- Node1 -->
<g id="Node000001" class="node">
<title>Node1</title>
<g id="a_Node000001"><a xlink:title=" ">
<polygon fill="#999999" stroke="#666666" points="227.5,-305 115.5,-305 115.5,-275 227.5,-275 227.5,-305"/>
<text text-anchor="start" x="123.5" y="-293" font-family="Helvetica,sans-Serif" font-size="10.00">src/physics/solver</text>
<text text-anchor="middle" x="171.5" y="-282" font-family="Helvetica,sans-Serif" font-size="10.00">/ProblemRouter.cpp</text>
</a>
</g>
</g>
<!-- Node2 -->
<g id="Node000002" class="node">
<title>Node2</title>
<g id="a_Node000002"><a xlink:href="ProblemRouter_8h.html" target="_top" xlink:title=" ">
<polygon fill="white" stroke="#666666" points="250.5,-184 152.5,-184 152.5,-165 250.5,-165 250.5,-184"/>
<text text-anchor="middle" x="201.5" y="-172" font-family="Helvetica,sans-Serif" font-size="10.00">ProblemRouter.h</text>
</a>
</g>
</g>
<!-- Node1&#45;&gt;Node2 -->
<g id="edge1_Node000001_Node000002" class="edge">
<title>Node1&#45;&gt;Node2</title>
<g id="a_edge1_Node000001_Node000002"><a xlink:title=" ">
<path fill="none" stroke="#63b8ff" d="M180.5,-274.72C186.13,-265.03 192.97,-251.72 196.5,-239 200.54,-224.48 201.69,-207.42 201.89,-194.65"/>
<polygon fill="#63b8ff" stroke="#63b8ff" points="205.39,-194.3 201.86,-184.31 198.39,-194.32 205.39,-194.3"/>
</a>
</g>
</g>
<!-- Node10 -->
<g id="Node000010" class="node">
<title>Node10</title>
<g id="a_Node000010"><a xlink:title=" ">
<polygon fill="#e0e0e0" stroke="#999999" points="137.5,-239 77.5,-239 77.5,-220 137.5,-220 137.5,-239"/>
<text text-anchor="middle" x="107.5" y="-227" font-family="Helvetica,sans-Serif" font-size="10.00">iostream</text>
</a>
</g>
</g>
<!-- Node1&#45;&gt;Node10 -->
<g id="edge10_Node000001_Node000010" class="edge">
<title>Node1&#45;&gt;Node10</title>
<g id="a_edge10_Node000001_Node000010"><a xlink:title=" ">
<path fill="none" stroke="#63b8ff" d="M156.01,-274.84C146.53,-266.17 134.39,-255.08 124.62,-246.15"/>
<polygon fill="#63b8ff" stroke="#63b8ff" points="126.83,-243.43 117.09,-239.27 122.11,-248.6 126.83,-243.43"/>
</a>
</g>
</g>
<!-- Node11 -->
<g id="Node000011" class="node">
<title>Node11</title>
<g id="a_Node000011"><a xlink:title=" ">
<polygon fill="#e0e0e0" stroke="#999999" points="187.5,-239 155.5,-239 155.5,-220 187.5,-220 187.5,-239"/>
<text text-anchor="middle" x="171.5" y="-227" font-family="Helvetica,sans-Serif" font-size="10.00">set</text>
</a>
</g>
</g>
<!-- Node1&#45;&gt;Node11 -->
<g id="edge11_Node000001_Node000011" class="edge">
<title>Node1&#45;&gt;Node11</title>
<g id="a_edge11_Node000001_Node000011"><a xlink:title=" ">
<path fill="none" stroke="#63b8ff" d="M171.5,-274.84C171.5,-267.21 171.5,-257.7 171.5,-249.45"/>
<polygon fill="#63b8ff" stroke="#63b8ff" points="175,-249.27 171.5,-239.27 168,-249.27 175,-249.27"/>
</a>
</g>
</g>
<!-- Node12 -->
<g id="Node000012" class="node">
<title>Node12</title>
<g id="a_Node000012"><a xlink:href="InterceptSolver_8h.html" target="_top" xlink:title=" ">
<polygon fill="white" stroke="#666666" points="99,-129 0,-129 0,-110 99,-110 99,-129"/>
<text text-anchor="middle" x="49.5" y="-117" font-family="Helvetica,sans-Serif" font-size="10.00">InterceptSolver.h</text>
</a>
</g>
</g>
<!-- Node1&#45;&gt;Node12 -->
<g id="edge12_Node000001_Node000012" class="edge">
<title>Node1&#45;&gt;Node12</title>
<g id="a_edge12_Node000001_Node000012"><a xlink:title=" ">
<path fill="none" stroke="#63b8ff" d="M119.53,-274.93C100.7,-267.28 81.01,-255.83 68.5,-239 46.63,-209.56 45.85,-164.57 47.5,-139.34"/>
<polygon fill="#63b8ff" stroke="#63b8ff" points="51,-139.53 48.36,-129.27 44.02,-138.93 51,-139.53"/>
</a>
</g>
</g>
<!-- Node13 -->
<g id="Node000013" class="node">
<title>Node13</title>
<g id="a_Node000013"><a xlink:href="PhysicsSystem_8h.html" target="_top" xlink:title=" ">
<polygon fill="white" stroke="#666666" points="672,-239 533,-239 533,-220 672,-220 672,-239"/>
<text text-anchor="middle" x="602.5" y="-227" font-family="Helvetica,sans-Serif" font-size="10.00">physics/PhysicsSystem.h</text>
</a>
</g>
</g>
<!-- Node1&#45;&gt;Node13 -->
<g id="edge15_Node000001_Node000013" class="edge">
<title>Node1&#45;&gt;Node13</title>
<g id="a_edge15_Node000001_Node000013"><a xlink:title=" ">
<path fill="none" stroke="#63b8ff" d="M227.85,-281.35C305.25,-270.85 444.54,-251.94 529.74,-240.38"/>
<polygon fill="#63b8ff" stroke="#63b8ff" points="530.41,-243.82 539.85,-239 529.47,-236.88 530.41,-243.82"/>
</a>
</g>
</g>
<!-- Node3 -->
<g id="Node000003" class="node">
<title>Node3</title>
<g id="a_Node000003"><a xlink:title=" ">
<polygon fill="#e0e0e0" stroke="#999999" points="725.5,-74 681.5,-74 681.5,-55 725.5,-55 725.5,-74"/>
<text text-anchor="middle" x="703.5" y="-62" font-family="Helvetica,sans-Serif" font-size="10.00">string</text>
</a>
</g>
</g>
<!-- Node2&#45;&gt;Node3 -->
<g id="edge2_Node000002_Node000003" class="edge">
<title>Node2&#45;&gt;Node3</title>
<g id="a_edge2_Node000002_Node000003"><a xlink:title=" ">
<path fill="none" stroke="#63b8ff" d="M250.53,-166.19C253.56,-165.78 256.57,-165.38 259.5,-165 402.76,-146.52 444.39,-171.29 582.5,-129 619.95,-117.53 659.42,-94.45 682.73,-79.5"/>
<polygon fill="#63b8ff" stroke="#63b8ff" points="684.65,-82.42 691.11,-74.02 680.83,-76.56 684.65,-82.42"/>
</a>
</g>
</g>
<!-- Node4 -->
<g id="Node000004" class="node">
<title>Node4</title>
<g id="a_Node000004"><a xlink:title=" ">
<polygon fill="#e0e0e0" stroke="#999999" points="334.5,-74 276.5,-74 276.5,-55 334.5,-55 334.5,-74"/>
<text text-anchor="middle" x="305.5" y="-62" font-family="Helvetica,sans-Serif" font-size="10.00">memory</text>
</a>
</g>
</g>
<!-- Node2&#45;&gt;Node4 -->
<g id="edge3_Node000002_Node000004" class="edge">
<title>Node2&#45;&gt;Node4</title>
<g id="a_edge3_Node000002_Node000004"><a xlink:title=" ">
<path fill="none" stroke="#63b8ff" d="M210.01,-164.66C227.54,-146.46 267.9,-104.55 290.12,-81.47"/>
<polygon fill="#63b8ff" stroke="#63b8ff" points="292.75,-83.79 297.16,-74.16 287.7,-78.93 292.75,-83.79"/>
</a>
</g>
</g>
<!-- Node5 -->
<g id="Node000005" class="node">
<title>Node5</title>
<g id="a_Node000005"><a xlink:href="OneUnknownSolver_8h.html" target="_top" xlink:title=" ">
<polygon fill="white" stroke="#666666" points="404,-129 283,-129 283,-110 404,-110 404,-129"/>
<text text-anchor="middle" x="343.5" y="-117" font-family="Helvetica,sans-Serif" font-size="10.00">OneUnknownSolver.h</text>
</a>
</g>
</g>
<!-- Node2&#45;&gt;Node5 -->
<g id="edge4_Node000002_Node000005" class="edge">
<title>Node2&#45;&gt;Node5</title>
<g id="a_edge4_Node000002_Node000005"><a xlink:title=" ">
<path fill="none" stroke="#63b8ff" d="M224.31,-164.98C247.67,-156.27 284.2,-142.63 310.67,-132.75"/>
<polygon fill="#63b8ff" stroke="#63b8ff" points="312.13,-135.95 320.27,-129.17 309.68,-129.39 312.13,-135.95"/>
</a>
</g>
</g>
<!-- Node7 -->
<g id="Node000007" class="node">
<title>Node7</title>
<g id="a_Node000007"><a xlink:href="VectorRootSolver_8h.html" target="_top" xlink:title=" ">
<polygon fill="white" stroke="#666666" points="226,-129 117,-129 117,-110 226,-110 226,-129"/>
<text text-anchor="middle" x="171.5" y="-117" font-family="Helvetica,sans-Serif" font-size="10.00">VectorRootSolver.h</text>
</a>
</g>
</g>
<!-- Node2&#45;&gt;Node7 -->
<g id="edge6_Node000002_Node000007" class="edge">
<title>Node2&#45;&gt;Node7</title>
<g id="a_edge6_Node000002_Node000007"><a xlink:title=" ">
<path fill="none" stroke="#63b8ff" d="M196.55,-164.75C192.44,-157.49 186.47,-146.95 181.4,-137.98"/>
<polygon fill="#63b8ff" stroke="#63b8ff" points="184.33,-136.07 176.36,-129.09 178.24,-139.52 184.33,-136.07"/>
</a>
</g>
</g>
<!-- Node6 -->
<g id="Node000006" class="node">
<title>Node6</title>
<g id="a_Node000006"><a xlink:title=" ">
<polygon fill="#e0e0e0" stroke="#999999" points="204,-74 139,-74 139,-55 204,-55 204,-74"/>
<text text-anchor="middle" x="171.5" y="-62" font-family="Helvetica,sans-Serif" font-size="10.00">functional</text>
</a>
</g>
</g>
<!-- Node5&#45;&gt;Node6 -->
<g id="edge5_Node000005_Node000006" class="edge">
<title>Node5&#45;&gt;Node6</title>
<g id="a_edge5_Node000005_Node000006"><a xlink:title=" ">
<path fill="none" stroke="#63b8ff" d="M315.87,-109.98C286.99,-101.09 241.49,-87.07 209.3,-77.15"/>
<polygon fill="#63b8ff" stroke="#63b8ff" points="209.94,-73.68 199.35,-74.08 207.88,-80.37 209.94,-73.68"/>
</a>
</g>
</g>
<!-- Node7&#45;&gt;Node6 -->
<g id="edge7_Node000007_Node000006" class="edge">
<title>Node7&#45;&gt;Node6</title>
<g id="a_edge7_Node000007_Node000006"><a xlink:title=" ">
<path fill="none" stroke="#63b8ff" d="M171.5,-109.75C171.5,-102.8 171.5,-92.85 171.5,-84.13"/>
<polygon fill="#63b8ff" stroke="#63b8ff" points="175,-84.09 171.5,-74.09 168,-84.09 175,-84.09"/>
</a>
</g>
</g>
<!-- Node8 -->
<g id="Node000008" class="node">
<title>Node8</title>
<g id="a_Node000008"><a xlink:title=" ">
<polygon fill="#e0e0e0" stroke="#999999" points="648.5,-74 570.5,-74 570.5,-55 648.5,-55 648.5,-74"/>
<text text-anchor="middle" x="609.5" y="-62" font-family="Helvetica,sans-Serif" font-size="10.00">glm/glm.hpp</text>
</a>
</g>
</g>
<!-- Node7&#45;&gt;Node8 -->
<g id="edge8_Node000007_Node000008" class="edge">
<title>Node7&#45;&gt;Node8</title>
<g id="a_edge8_Node000007_Node000008"><a xlink:title=" ">
<path fill="none" stroke="#63b8ff" d="M226.07,-113.26C301.44,-105.8 441.58,-91.1 560.5,-74 560.6,-73.99 560.7,-73.97 560.8,-73.96"/>
<polygon fill="#63b8ff" stroke="#63b8ff" points="561.13,-77.45 570.48,-72.48 560.07,-70.53 561.13,-77.45"/>
</a>
</g>
</g>
<!-- Node9 -->
<g id="Node000009" class="node">
<title>Node9</title>
<g id="a_Node000009"><a xlink:href="ISolver_8h.html" target="_top" xlink:title="Abstract interface for numerical solvers.">
<polygon fill="white" stroke="#666666" points="100,-74 41,-74 41,-55 100,-55 100,-74"/>
<text text-anchor="middle" x="70.5" y="-62" font-family="Helvetica,sans-Serif" font-size="10.00">ISolver.h</text>
</a>
</g>
</g>
<!-- Node7&#45;&gt;Node9 -->
<g id="edge9_Node000007_Node000009" class="edge">
<title>Node7&#45;&gt;Node9</title>
<g id="a_edge9_Node000007_Node000009"><a xlink:title=" ">
<path fill="none" stroke="#63b8ff" d="M155.27,-109.98C139.32,-101.61 114.72,-88.7 96.12,-78.95"/>
<polygon fill="#63b8ff" stroke="#63b8ff" points="97.5,-75.72 87.02,-74.17 94.25,-81.92 97.5,-75.72"/>
</a>
</g>
</g>
<!-- Node12&#45;&gt;Node6 -->
<g id="edge14_Node000012_Node000006" class="edge">
<title>Node12&#45;&gt;Node6</title>
<g id="a_edge14_Node000012_Node000006"><a xlink:title=" ">
<path fill="none" stroke="#63b8ff" d="M69.1,-109.98C88.82,-101.42 119.45,-88.11 142.08,-78.28"/>
<polygon fill="#63b8ff" stroke="#63b8ff" points="143.76,-81.37 151.54,-74.17 140.98,-74.94 143.76,-81.37"/>
</a>
</g>
</g>
<!-- Node12&#45;&gt;Node9 -->
<g id="edge13_Node000012_Node000009" class="edge">
<title>Node12&#45;&gt;Node9</title>
<g id="a_edge13_Node000012_Node000009"><a xlink:title=" ">
<path fill="none" stroke="#63b8ff" d="M52.97,-109.75C55.78,-102.65 59.84,-92.4 63.35,-83.56"/>
<polygon fill="#63b8ff" stroke="#63b8ff" points="66.67,-84.68 67.1,-74.09 60.16,-82.1 66.67,-84.68"/>
</a>
</g>
</g>
<!-- Node13&#45;&gt;Node2 -->
<g id="edge43_Node000013_Node000002" class="edge">
<title>Node13&#45;&gt;Node2</title>
<g id="a_edge43_Node000013_Node000002"><a xlink:title=" ">
<path fill="none" stroke="#63b8ff" d="M534.12,-219.97C467.1,-211.52 361.73,-198.05 260.62,-184.14"/>
<polygon fill="#63b8ff" stroke="#63b8ff" points="260.92,-180.64 250.54,-182.74 259.97,-187.58 260.92,-180.64"/>
</a>
</g>
</g>
<!-- Node13&#45;&gt;Node5 -->
<g id="edge42_Node000013_Node000005" class="edge">
<title>Node13&#45;&gt;Node5</title>
<g id="a_edge42_Node000013_Node000005"><a xlink:title=" ">
<path fill="none" stroke="#63b8ff" d="M602.58,-219.61C602.18,-205.76 599.25,-179.15 583.5,-165 570.89,-153.67 480.25,-139.12 414.07,-129.8"/>
<polygon fill="#63b8ff" stroke="#63b8ff" points="414.48,-126.32 404.09,-128.4 413.51,-133.25 414.48,-126.32"/>
</a>
</g>
</g>
<!-- Node13&#45;&gt;Node7 -->
<g id="edge49_Node000013_Node000007" class="edge">
<title>Node13&#45;&gt;Node7</title>
<g id="a_edge49_Node000013_Node000007"><a xlink:title=" ">
<path fill="none" stroke="#63b8ff" d="M532.77,-226.8C410.78,-223.09 169.13,-212.23 143.5,-184 131.18,-170.43 143.39,-150.56 155.33,-136.67"/>
<polygon fill="#63b8ff" stroke="#63b8ff" points="157.94,-139.01 162.14,-129.28 152.79,-134.26 157.94,-139.01"/>
</a>
</g>
</g>
<!-- Node14 -->
<g id="Node000014" class="node">
<title>Node14</title>
<g id="a_Node000014"><a xlink:title=" ">
<polygon fill="#e0e0e0" stroke="#999999" points="1175,-74 1128,-74 1128,-55 1175,-55 1175,-74"/>
<text text-anchor="middle" x="1151.5" y="-62" font-family="Helvetica,sans-Serif" font-size="10.00">vector</text>
</a>
</g>
</g>
<!-- Node13&#45;&gt;Node14 -->
<g id="edge16_Node000013_Node000014" class="edge">
<title>Node13&#45;&gt;Node14</title>
<g id="a_edge16_Node000013_Node000014"><a xlink:title=" ">
<path fill="none" stroke="#63b8ff" d="M672.39,-226.85C792.11,-223.28 1031.09,-212.7 1109.5,-184 1149.33,-169.42 1167.98,-166.66 1187.5,-129 1196.1,-112.42 1182.86,-93.88 1170.08,-81.13"/>
<polygon fill="#63b8ff" stroke="#63b8ff" points="1172.1,-78.23 1162.38,-74.02 1167.35,-83.37 1172.1,-78.23"/>
</a>
</g>
</g>
<!-- Node15 -->
<g id="Node000015" class="node">
<title>Node15</title>
<g id="a_Node000015"><a xlink:title=" ">
<polygon fill="#e0e0e0" stroke="#999999" points="825.5,-74 775.5,-74 775.5,-55 825.5,-55 825.5,-74"/>
<text text-anchor="middle" x="800.5" y="-62" font-family="Helvetica,sans-Serif" font-size="10.00">atomic</text>
</a>
</g>
</g>
<!-- Node13&#45;&gt;Node15 -->
<g id="edge17_Node000013_Node000015" class="edge">
<title>Node13&#45;&gt;Node15</title>
<g id="a_edge17_Node000013_Node000015"><a xlink:title=" ">
<path fill="none" stroke="#63b8ff" d="M607.37,-219.86C619.8,-198.5 654.72,-142.61 697.5,-110 717.96,-94.4 744.73,-83.05 765.84,-75.72"/>
<polygon fill="#63b8ff" stroke="#63b8ff" points="767.02,-79.02 775.41,-72.54 764.81,-72.38 767.02,-79.02"/>
</a>
</g>
</g>
<!-- Node16 -->
<g id="Node000016" class="node">
<title>Node16</title>
<g id="a_Node000016"><a xlink:title=" ">
<polygon fill="#e0e0e0" stroke="#999999" points="1070.5,-74 1022.5,-74 1022.5,-55 1070.5,-55 1070.5,-74"/>
<text text-anchor="middle" x="1046.5" y="-62" font-family="Helvetica,sans-Serif" font-size="10.00">mutex</text>
</a>
</g>
</g>
<!-- Node13&#45;&gt;Node16 -->
<g id="edge18_Node000013_Node000016" class="edge">
<title>Node13&#45;&gt;Node16</title>
<g id="a_edge18_Node000013_Node000016"><a xlink:title=" ">
<path fill="none" stroke="#63b8ff" d="M672.21,-227.85C811.2,-224.82 1114.41,-208.99 1171.5,-129 1196.75,-93.62 1125.94,-76.7 1080.8,-69.7"/>
<polygon fill="#63b8ff" stroke="#63b8ff" points="1081.18,-66.22 1070.78,-68.24 1080.17,-73.15 1081.18,-66.22"/>
</a>
</g>
</g>
<!-- Node17 -->
<g id="Node000017" class="node">
<title>Node17</title>
<g id="a_Node000017"><a xlink:title=" ">
<polygon fill="#e0e0e0" stroke="#999999" points="316.5,-184 268.5,-184 268.5,-165 316.5,-165 316.5,-184"/>
<text text-anchor="middle" x="292.5" y="-172" font-family="Helvetica,sans-Serif" font-size="10.00">thread</text>
</a>
</g>
</g>
<!-- Node13&#45;&gt;Node17 -->
<g id="edge19_Node000013_Node000017" class="edge">
<title>Node13&#45;&gt;Node17</title>
<g id="a_edge19_Node000013_Node000017"><a xlink:title=" ">
<path fill="none" stroke="#63b8ff" d="M538.93,-220C484.9,-212.38 405.09,-200.22 326.65,-184.07"/>
<polygon fill="#63b8ff" stroke="#63b8ff" points="327.09,-180.59 316.59,-181.98 325.67,-187.45 327.09,-180.59"/>
</a>
</g>
</g>
<!-- Node18 -->
<g id="Node000018" class="node">
<title>Node18</title>
<g id="a_Node000018"><a xlink:title=" ">
<polygon fill="#e0e0e0" stroke="#999999" points="442,-184 335,-184 335,-165 442,-165 442,-184"/>
<text text-anchor="middle" x="388.5" y="-172" font-family="Helvetica,sans-Serif" font-size="10.00">condition_variable</text>
</a>
</g>
</g>
<!-- Node13&#45;&gt;Node18 -->
<g id="edge20_Node000013_Node000018" class="edge">
<title>Node13&#45;&gt;Node18</title>
<g id="a_edge20_Node000013_Node000018"><a xlink:title=" ">
<path fill="none" stroke="#63b8ff" d="M568.12,-219.98C531.41,-210.89 473.12,-196.46 432.95,-186.51"/>
<polygon fill="#63b8ff" stroke="#63b8ff" points="433.7,-183.09 423.15,-184.08 432.02,-189.88 433.7,-183.09"/>
</a>
</g>
</g>
<!-- Node19 -->
<g id="Node000019" class="node">
<title>Node19</title>
<g id="a_Node000019"><a xlink:title=" ">
<polygon fill="#e0e0e0" stroke="#999999" points="461.5,-74 405.5,-74 405.5,-55 461.5,-55 461.5,-74"/>
<text text-anchor="middle" x="433.5" y="-62" font-family="Helvetica,sans-Serif" font-size="10.00">optional</text>
</a>
</g>
</g>
<!-- Node13&#45;&gt;Node19 -->
<g id="edge21_Node000013_Node000019" class="edge">
<title>Node13&#45;&gt;Node19</title>
<g id="a_edge21_Node000013_Node000019"><a xlink:title=" ">
<path fill="none" stroke="#63b8ff" d="M605.82,-219.6C610.19,-206.19 615.95,-180.74 603.5,-165 560.44,-110.55 501.65,-177.01 451.5,-129 439.48,-117.5 435.31,-98.62 433.94,-84.43"/>
<polygon fill="#63b8ff" stroke="#63b8ff" points="437.43,-84.06 433.36,-74.28 430.44,-84.47 437.43,-84.06"/>
</a>
</g>
</g>
<!-- Node20 -->
<g id="Node000020" class="node">
<title>Node20</title>
<g id="a_Node000020"><a xlink:href="RigidBody_8h.html" target="_top" xlink:title=" ">
<polygon fill="white" stroke="#666666" points="808.5,-184 734.5,-184 734.5,-165 808.5,-165 808.5,-184"/>
<text text-anchor="middle" x="771.5" y="-172" font-family="Helvetica,sans-Serif" font-size="10.00">RigidBody.h</text>
</a>
</g>
</g>
<!-- Node13&#45;&gt;Node20 -->
<g id="edge22_Node000013_Node000020" class="edge">
<title>Node13&#45;&gt;Node20</title>
<g id="a_edge22_Node000013_Node000020"><a xlink:title=" ">
<path fill="none" stroke="#63b8ff" d="M629.65,-219.98C658.03,-211.09 702.73,-197.07 734.36,-187.15"/>
<polygon fill="#63b8ff" stroke="#63b8ff" points="735.64,-190.41 744.13,-184.08 733.55,-183.73 735.64,-190.41"/>
</a>
</g>
</g>
<!-- Node28 -->
<g id="Node000028" class="node">
<title>Node28</title>
<g id="a_Node000028"><a xlink:href="Constants_8h.html" target="_top" xlink:title=" ">
<polygon fill="white" stroke="#666666" points="574.5,-184 460.5,-184 460.5,-165 574.5,-165 574.5,-184"/>
<text text-anchor="middle" x="517.5" y="-172" font-family="Helvetica,sans-Serif" font-size="10.00">physics/Constants.h</text>
</a>
</g>
</g>
<!-- Node13&#45;&gt;Node28 -->
<g id="edge41_Node000013_Node000028" class="edge">
<title>Node13&#45;&gt;Node28</title>
<g id="a_edge41_Node000013_Node000028"><a xlink:title=" ">
<path fill="none" stroke="#63b8ff" d="M588.84,-219.98C575.66,-211.77 555.47,-199.18 539.93,-189.49"/>
<polygon fill="#63b8ff" stroke="#63b8ff" points="541.74,-186.49 531.41,-184.17 538.04,-192.43 541.74,-186.49"/>
</a>
</g>
</g>
<!-- Node29 -->
<g id="Node000029" class="node">
<title>Node29</title>
<g id="a_Node000029"><a xlink:href="Octree_8h.html" target="_top" xlink:title=" ">
<polygon fill="white" stroke="#666666" points="1002.5,-184 908.5,-184 908.5,-165 1002.5,-165 1002.5,-184"/>
<text text-anchor="middle" x="955.5" y="-172" font-family="Helvetica,sans-Serif" font-size="10.00">spatial/Octree.h</text>
</a>
</g>
</g>
<!-- Node13&#45;&gt;Node29 -->
<g id="edge44_Node000013_Node000029" class="edge">
<title>Node13&#45;&gt;Node29</title>
<g id="a_edge44_Node000013_Node000029"><a xlink:title=" ">
<path fill="none" stroke="#63b8ff" d="M659.22,-219.98C724.8,-210.14 832.15,-194.02 898.05,-184.13"/>
<polygon fill="#63b8ff" stroke="#63b8ff" points="898.88,-187.54 908.25,-182.59 897.84,-180.62 898.88,-187.54"/>
</a>
</g>
</g>
<!-- Node20&#45;&gt;Node8 -->
<g id="edge25_Node000020_Node000008" class="edge">
<title>Node20&#45;&gt;Node8</title>
<g id="a_edge25_Node000020_Node000008"><a xlink:title=" ">
<path fill="none" stroke="#63b8ff" d="M756.53,-164.99C741.42,-156.29 717.52,-142.21 697.5,-129 673.4,-113.1 646.61,-93.47 628.99,-80.28"/>
<polygon fill="#63b8ff" stroke="#63b8ff" points="630.77,-77.24 620.68,-74.03 626.56,-82.84 630.77,-77.24"/>
</a>
</g>
</g>
<!-- Node20&#45;&gt;Node14 -->
<g id="edge24_Node000020_Node000014" class="edge">
<title>Node20&#45;&gt;Node14</title>
<g id="a_edge24_Node000020_Node000014"><a xlink:title=" ">
<path fill="none" stroke="#63b8ff" d="M808.82,-172.04C862.97,-168.93 965.78,-159.2 1047.5,-129 1079.51,-117.17 1112.47,-95.04 1132.47,-80.28"/>
<polygon fill="#63b8ff" stroke="#63b8ff" points="1134.82,-82.9 1140.7,-74.09 1130.61,-77.31 1134.82,-82.9"/>
</a>
</g>
</g>
<!-- Node20&#45;&gt;Node16 -->
<g id="edge23_Node000020_Node000016" class="edge">
<title>Node20&#45;&gt;Node16</title>
<g id="a_edge23_Node000020_Node000016"><a xlink:title=" ">
<path fill="none" stroke="#63b8ff" d="M808.63,-171.75C871.61,-168.04 995.66,-157.27 1027.5,-129 1039.99,-117.91 1044.43,-98.97 1045.92,-84.66"/>
<polygon fill="#63b8ff" stroke="#63b8ff" points="1049.43,-84.61 1046.59,-74.41 1042.45,-84.16 1049.43,-84.61"/>
</a>
</g>
</g>
<!-- Node21 -->
<g id="Node000021" class="node">
<title>Node21</title>
<g id="a_Node000021"><a xlink:title=" ">
<polygon fill="#e0e0e0" stroke="#999999" points="836.5,-129 706.5,-129 706.5,-110 836.5,-110 836.5,-129"/>
<text text-anchor="middle" x="771.5" y="-117" font-family="Helvetica,sans-Serif" font-size="10.00">glm/gtc/quaternion.hpp</text>
</a>
</g>
</g>
<!-- Node20&#45;&gt;Node21 -->
<g id="edge26_Node000020_Node000021" class="edge">
<title>Node20&#45;&gt;Node21</title>
<g id="a_edge26_Node000020_Node000021"><a xlink:title=" ">
<path fill="none" stroke="#63b8ff" d="M771.5,-164.75C771.5,-157.8 771.5,-147.85 771.5,-139.13"/>
<polygon fill="#63b8ff" stroke="#63b8ff" points="775,-139.09 771.5,-129.09 768,-139.09 775,-139.09"/>
</a>
</g>
</g>
<!-- Node22 -->
<g id="Node000022" class="node">
<title>Node22</title>
<g id="a_Node000022"><a xlink:href="ICollider_8h.html" target="_top" xlink:title="Abstract interface for collision detection shapes.">
<polygon fill="white" stroke="#666666" points="574,-129 461,-129 461,-110 574,-110 574,-129"/>
<text text-anchor="middle" x="517.5" y="-117" font-family="Helvetica,sans-Serif" font-size="10.00">bounding/ICollider.h</text>
</a>
</g>
</g>
<!-- Node20&#45;&gt;Node22 -->
<g id="edge27_Node000020_Node000022" class="edge">
<title>Node20&#45;&gt;Node22</title>
<g id="a_edge27_Node000020_Node000022"><a xlink:title=" ">
<path fill="none" stroke="#63b8ff" d="M734.29,-165.74C690.56,-156.61 617.72,-141.41 568.68,-131.18"/>
<polygon fill="#63b8ff" stroke="#63b8ff" points="569.1,-127.69 558.6,-129.08 567.67,-134.54 569.1,-127.69"/>
</a>
</g>
</g>
<!-- Node25 -->
<g id="Node000025" class="node">
<title>Node25</title>
<g id="a_Node000025"><a xlink:href="PhysicsBody_8h.html" target="_top" xlink:title=" ">
<polygon fill="white" stroke="#666666" points="1018,-129 893,-129 893,-110 1018,-110 1018,-129"/>
<text text-anchor="middle" x="955.5" y="-117" font-family="Helvetica,sans-Serif" font-size="10.00">physics/PhysicsBody.h</text>
</a>
</g>
</g>
<!-- Node20&#45;&gt;Node25 -->
<g id="edge33_Node000020_Node000025" class="edge">
<title>Node20&#45;&gt;Node25</title>
<g id="a_edge33_Node000020_Node000025"><a xlink:title=" ">
<path fill="none" stroke="#63b8ff" d="M801.06,-164.98C832.22,-156.01 881.47,-141.82 915.96,-131.89"/>
<polygon fill="#63b8ff" stroke="#63b8ff" points="917.07,-135.21 925.71,-129.08 915.13,-128.49 917.07,-135.21"/>
</a>
</g>
</g>
<!-- Node22&#45;&gt;Node4 -->
<g id="edge29_Node000022_Node000004" class="edge">
<title>Node22&#45;&gt;Node4</title>
<g id="a_edge29_Node000022_Node000004"><a xlink:title=" ">
<path fill="none" stroke="#63b8ff" d="M483.44,-109.98C445.54,-100.51 384.4,-85.23 344.58,-75.27"/>
<polygon fill="#63b8ff" stroke="#63b8ff" points="345.25,-71.83 334.7,-72.8 343.55,-78.62 345.25,-71.83"/>
</a>
</g>
</g>
<!-- Node22&#45;&gt;Node8 -->
<g id="edge28_Node000022_Node000008" class="edge">
<title>Node22&#45;&gt;Node8</title>
<g id="a_edge28_Node000022_Node000008"><a xlink:title=" ">
<path fill="none" stroke="#63b8ff" d="M532.28,-109.98C546.68,-101.69 568.81,-88.94 585.69,-79.22"/>
<polygon fill="#63b8ff" stroke="#63b8ff" points="587.53,-82.19 594.45,-74.17 584.04,-76.13 587.53,-82.19"/>
</a>
</g>
</g>
<!-- Node22&#45;&gt;Node19 -->
<g id="edge30_Node000022_Node000019" class="edge">
<title>Node22&#45;&gt;Node19</title>
<g id="a_edge30_Node000022_Node000019"><a xlink:title=" ">
<path fill="none" stroke="#63b8ff" d="M504,-109.98C491.1,-101.84 471.4,-89.41 456.1,-79.76"/>
<polygon fill="#63b8ff" stroke="#63b8ff" points="457.57,-76.55 447.24,-74.17 453.83,-82.47 457.57,-76.55"/>
</a>
</g>
</g>
<!-- Node23 -->
<g id="Node000023" class="node">
<title>Node23</title>
<g id="a_Node000023"><a xlink:href="Ray_8h.html" target="_top" xlink:title=" ">
<polygon fill="white" stroke="#666666" points="552,-74 481,-74 481,-55 552,-55 552,-74"/>
<text text-anchor="middle" x="516.5" y="-62" font-family="Helvetica,sans-Serif" font-size="10.00">math/Ray.h</text>
</a>
</g>
</g>
<!-- Node22&#45;&gt;Node23 -->
<g id="edge31_Node000022_Node000023" class="edge">
<title>Node22&#45;&gt;Node23</title>
<g id="a_edge31_Node000022_Node000023"><a xlink:title=" ">
<path fill="none" stroke="#63b8ff" d="M517.33,-109.75C517.2,-102.8 517.02,-92.85 516.85,-84.13"/>
<polygon fill="#63b8ff" stroke="#63b8ff" points="520.35,-84.02 516.66,-74.09 513.35,-84.15 520.35,-84.02"/>
</a>
</g>
</g>
<!-- Node24 -->
<g id="Node000024" class="node">
<title>Node24</title>
<g id="a_Node000024"><a xlink:title=" ">
<polygon fill="#e0e0e0" stroke="#999999" points="558,-19 475,-19 475,0 558,0 558,-19"/>
<text text-anchor="middle" x="516.5" y="-7" font-family="Helvetica,sans-Serif" font-size="10.00">glm/vec3.hpp</text>
</a>
</g>
</g>
<!-- Node23&#45;&gt;Node24 -->
<g id="edge32_Node000023_Node000024" class="edge">
<title>Node23&#45;&gt;Node24</title>
<g id="a_edge32_Node000023_Node000024"><a xlink:title=" ">
<path fill="none" stroke="#63b8ff" d="M516.5,-54.75C516.5,-47.8 516.5,-37.85 516.5,-29.13"/>
<polygon fill="#63b8ff" stroke="#63b8ff" points="520,-29.09 516.5,-19.09 513,-29.09 520,-29.09"/>
</a>
</g>
</g>
<!-- Node25&#45;&gt;Node3 -->
<g id="edge35_Node000025_Node000003" class="edge">
<title>Node25&#45;&gt;Node3</title>
<g id="a_edge35_Node000025_Node000003"><a xlink:title=" ">
<path fill="none" stroke="#63b8ff" d="M915.01,-109.98C865.06,-99.48 781.16,-81.83 735.48,-72.23"/>
<polygon fill="#63b8ff" stroke="#63b8ff" points="736.04,-68.77 725.54,-70.13 734.6,-75.62 736.04,-68.77"/>
</a>
</g>
</g>
<!-- Node25&#45;&gt;Node8 -->
<g id="edge36_Node000025_Node000008" class="edge">
<title>Node25&#45;&gt;Node8</title>
<g id="a_edge36_Node000025_Node000008"><a xlink:title=" ">
<path fill="none" stroke="#63b8ff" d="M899.91,-109.98C833.32,-99.78 722.78,-82.85 659.01,-73.08"/>
<polygon fill="#63b8ff" stroke="#63b8ff" points="659.23,-69.58 648.81,-71.52 658.17,-76.5 659.23,-69.58"/>
</a>
</g>
</g>
<!-- Node25&#45;&gt;Node14 -->
<g id="edge37_Node000025_Node000014" class="edge">
<title>Node25&#45;&gt;Node14</title>
<g id="a_edge37_Node000025_Node000014"><a xlink:title=" ">
<path fill="none" stroke="#63b8ff" d="M986.99,-109.98C1022.9,-100.28 1081.35,-84.47 1118.05,-74.54"/>
<polygon fill="#63b8ff" stroke="#63b8ff" points="1119.05,-77.9 1127.79,-71.91 1117.23,-71.14 1119.05,-77.9"/>
</a>
</g>
</g>
<!-- Node25&#45;&gt;Node15 -->
<g id="edge34_Node000025_Node000015" class="edge">
<title>Node25&#45;&gt;Node15</title>
<g id="a_edge34_Node000025_Node000015"><a xlink:title=" ">
<path fill="none" stroke="#63b8ff" d="M930.6,-109.98C904.8,-101.16 864.28,-87.31 835.32,-77.41"/>
<polygon fill="#63b8ff" stroke="#63b8ff" points="836.19,-74.01 825.6,-74.08 833.93,-80.63 836.19,-74.01"/>
</a>
</g>
</g>
<!-- Node25&#45;&gt;Node16 -->
<g id="edge39_Node000025_Node000016" class="edge">
<title>Node25&#45;&gt;Node16</title>
<g id="a_edge39_Node000025_Node000016"><a xlink:title=" ">
<path fill="none" stroke="#63b8ff" d="M970.12,-109.98C984.36,-101.69 1006.25,-88.94 1022.95,-79.22"/>
<polygon fill="#63b8ff" stroke="#63b8ff" points="1024.73,-82.23 1031.61,-74.17 1021.21,-76.18 1024.73,-82.23"/>
</a>
</g>
</g>
<!-- Node26 -->
<g id="Node000026" class="node">
<title>Node26</title>
<g id="a_Node000026"><a xlink:title=" ">
<polygon fill="#e0e0e0" stroke="#999999" points="897.5,-74 859.5,-74 859.5,-55 897.5,-55 897.5,-74"/>
<text text-anchor="middle" x="878.5" y="-62" font-family="Helvetica,sans-Serif" font-size="10.00">map</text>
</a>
</g>
</g>
<!-- Node25&#45;&gt;Node26 -->
<g id="edge38_Node000025_Node000026" class="edge">
<title>Node25&#45;&gt;Node26</title>
<g id="a_edge38_Node000025_Node000026"><a xlink:title=" ">
<path fill="none" stroke="#63b8ff" d="M943.13,-109.98C931.41,-101.92 913.58,-89.65 899.61,-80.03"/>
<polygon fill="#63b8ff" stroke="#63b8ff" points="901.32,-76.96 891.1,-74.17 897.35,-82.72 901.32,-76.96"/>
</a>
</g>
</g>
<!-- Node27 -->
<g id="Node000027" class="node">
<title>Node27</title>
<g id="a_Node000027"><a xlink:title=" ">
<polygon fill="#e0e0e0" stroke="#999999" points="1001.5,-74 915.5,-74 915.5,-55 1001.5,-55 1001.5,-74"/>
<text text-anchor="middle" x="958.5" y="-62" font-family="Helvetica,sans-Serif" font-size="10.00">unordered_set</text>
</a>
</g>
</g>
<!-- Node25&#45;&gt;Node27 -->
<g id="edge40_Node000025_Node000027" class="edge">
<title>Node25&#45;&gt;Node27</title>
<g id="a_edge40_Node000025_Node000027"><a xlink:title=" ">
<path fill="none" stroke="#63b8ff" d="M956,-109.75C956.39,-102.8 956.95,-92.85 957.45,-84.13"/>
<polygon fill="#63b8ff" stroke="#63b8ff" points="960.94,-84.27 958.01,-74.09 953.95,-83.88 960.94,-84.27"/>
</a>
</g>
</g>
<!-- Node29&#45;&gt;Node8 -->
<g id="edge46_Node000029_Node000008" class="edge">
<title>Node29&#45;&gt;Node8</title>
<g id="a_edge46_Node000029_Node000008"><a xlink:title=" ">
<path fill="none" stroke="#63b8ff" d="M942.03,-164.96C917.3,-149.4 865.35,-117.36 845.5,-110 812.03,-97.59 717.76,-81.88 658.99,-72.83"/>
<polygon fill="#63b8ff" stroke="#63b8ff" points="659.23,-69.32 648.81,-71.27 658.17,-76.24 659.23,-69.32"/>
</a>
</g>
</g>
<!-- Node29&#45;&gt;Node14 -->
<g id="edge47_Node000029_Node000014" class="edge">
<title>Node29&#45;&gt;Node14</title>
<g id="a_edge47_Node000029_Node000014"><a xlink:title=" ">
<path fill="none" stroke="#63b8ff" d="M1002.79,-170.56C1059.82,-165.9 1150.64,-154.6 1171.5,-129 1182.4,-115.62 1173.79,-96.25 1164.71,-82.43"/>
<polygon fill="#63b8ff" stroke="#63b8ff" points="1167.54,-80.37 1158.88,-74.26 1161.84,-84.43 1167.54,-80.37"/>
</a>
</g>
</g>
<!-- Node29&#45;&gt;Node25 -->
<g id="edge45_Node000029_Node000025" class="edge">
<title>Node29&#45;&gt;Node25</title>
<g id="a_edge45_Node000029_Node000025"><a xlink:title=" ">
<path fill="none" stroke="#63b8ff" d="M955.5,-164.75C955.5,-157.8 955.5,-147.85 955.5,-139.13"/>
<polygon fill="#63b8ff" stroke="#63b8ff" points="959,-139.09 955.5,-129.09 952,-139.09 959,-139.09"/>
</a>
</g>
</g>
<!-- Node30 -->
<g id="Node000030" class="node">
<title>Node30</title>
<g id="a_Node000030"><a xlink:title=" ">
<polygon fill="#e0e0e0" stroke="#999999" points="1162.5,-129 1112.5,-129 1112.5,-110 1162.5,-110 1162.5,-129"/>
<text text-anchor="middle" x="1137.5" y="-117" font-family="Helvetica,sans-Serif" font-size="10.00">cstdint</text>
</a>
</g>
</g>
<!-- Node29&#45;&gt;Node30 -->
<g id="edge48_Node000029_Node000030" class="edge">
<title>Node29&#45;&gt;Node30</title>
<g id="a_edge48_Node000029_Node000030"><a xlink:title=" ">
<path fill="none" stroke="#63b8ff" d="M984.74,-164.98C1016.8,-155.65 1068.21,-140.68 1102.41,-130.72"/>
<polygon fill="#63b8ff" stroke="#63b8ff" points="1103.81,-133.96 1112.43,-127.8 1101.85,-127.24 1103.81,-133.96"/>
</a>
</g>
</g>
</g>
</svg>

<g id="navigator" transform="translate(0 0)" fill="#404254">
  <rect fill="#f2f5e9" fill-opacity="0.5" stroke="#606060" stroke-width=".5" x="0" y="0" width="60" height="60"/>
  <use id="zoomplus" xlink:href="#zoomPlus" x="17" y="9" onmousedown="handleZoom(evt,'in')"/>
  <use id="zoomminus" xlink:href="#zoomMin" x="42" y="9" onmousedown="handleZoom(evt,'out')"/>
  <use id="reset" xlink:href="#resetDef" x="30" y="36" onmousedown="handleReset()"/>
   <use id="arrowup" xlink:href="#arrowUp" x="0" y="0" onmousedown="handlePan(0,-1)"/>
  <use id="arrowright" xlink:href="#arrowRight" x="0" y="0" onmousedown="handlePan(1,0)"/>
  <use id="arrowdown" xlink:href="#arrowDown" x="0" y="0" onmousedown="handlePan(0,1)"/>
  <use id="arrowleft" xlink:href="#arrowLeft" x="0" y="0" onmousedown="handlePan(-1,0)"/>
</g>
<svg viewBox="0 0 15 15" width="100%" height="30px" preserveAspectRatio="xMaxYMin meet">
 <g id="arrow_out" transform="scale(0.3 0.3)">
  <a xlink:href="ProblemRouter_8cpp__incl_org.svg" target="_base">
   <rect id="button" ry="5" rx="5" y="6" x="6" height="38" width="38"
        fill="#f2f5e9" fill-opacity="0.5" stroke="#606060" stroke-width="1.0"/>
   <path id="arrow"
     d="M 11.500037,31.436501 C 11.940474,20.09759 22.043105,11.32322 32.158766,21.979434 L 37.068811,17.246167 C 37.068811,17.246167 37.088388,32 37.088388,32 L 22.160133,31.978069 C 22.160133,31.978069 26.997745,27.140456 26.997745,27.140456 C 18.528582,18.264221 13.291696,25.230495 11.500037,31.436501 z"
     style="fill:#404040;"/>
  </a>
 </g>
</svg>

<style type='text/css'>
<![CDATA[
[data-mouse-over-selected='false'] { opacity: 0.7; }
[data-mouse-over-selected='true']  { opacity: 1.0; }
]]>
</style>
<script type="application/ecmascript"><![CDATA[
document.addEventListener('DOMContentLoaded', (event) => {
  highlightEdges();
  highlightAdjacentNodes();
});
]]></script>
</svg>
