<?xml version="1.0" encoding="UTF-8" standalone="no"?>
<!DOCTYPE svg PUBLIC "-//W3C//DTD SVG 1.1//EN"
 "http://www.w3.org/Graphics/SVG/1.1/DTD/svg11.dtd">
<!-- Generated by graphviz version 2.43.0 (0)
 -->
<!-- Title: src/physics/solver/ProblemRouter.h Pages: 1 -->
<!--zoomable 401 -->

<svg id="main" version="1.1" xmlns="http://www.w3.org/2000/svg" xmlns:xlink="http://www.w3.org/1999/xlink" xml:space="preserve" onload="init(evt)">
<style type="text/css"><![CDATA[
.node, .edge {opacity: 0.7;}
.node.selected, .edge.selected {opacity: 1;}
.edge:hover path { stroke: red; }
.edge:hover polygon { stroke: red; fill: red; }
]]></style>

<defs>
  <circle id="rim" cx="0" cy="0" r="7"/>
  <circle id="rim2" cx="0" cy="0" r="3.5"/>
  <g id="zoomPlus">
    <use xlink:href="#rim" fill="#404040"><set attributeName="fill" to="#808080" begin="zoomplus.mouseover" end="zoomplus.mouseout"/></use>
    <path d="M-4,0h8M0,-4v8" fill="none" stroke="white" stroke-width="1.5" pointer-events="none"/>
  </g>
  <g id="zoomMin">
    <use xlink:href="#rim" fill="#404040"><set attributeName="fill" to="#808080" begin="zoomminus.mouseover" end="zoomminus.mouseout"/></use>
    <path d="M-4,0h8" fill="none" stroke="white" stroke-width="1.5" pointer-events="none"/>
  </g>
  <g id="arrowUp" transform="translate(30 24)">
    <use xlink:href="#rim"/>
    <path pointer-events="none" fill="none" stroke="white" stroke-width="1.5" d="M0,-3.0v7 M-2.5,-0.5L0,-3.0L2.5,-0.5"/>
  </g>
  <g id="arrowRight" transform="rotate(90) translate(36 -43)">
    <use xlink:href="#rim"/>
    <path pointer-events="none" fill="none" stroke="white" stroke-width="1.5" d="M0,-3.0v7 M-2.5,-0.5L0,-3.0L2.5,-0.5"/>
  </g>
  <g id="arrowDown" transform="rotate(180) translate(-30 -48)">
    <use xlink:href="#rim"/>
    <path pointer-events="none" fill="none" stroke="white" stroke-width="1.5" d="M0,-3.0v7 M-2.5,-0.5L0,-3.0L2.5,-0.5"/>
  </g>
  <g id="arrowLeft" transform="rotate(270) translate(-36 17)">
    <use xlink:href="#rim"/>
    <path pointer-events="none" fill="none" stroke="white" stroke-width="1.5" d="M0,-3.0v7 M-2.5,-0.5L0,-3.0L2.5,-0.5"/>
  </g>
  <g id="resetDef">
    <use xlink:href="#rim2" fill="#404040"><set attributeName="fill" to="#808080" begin="reset.mouseover" end="reset.mouseout"/></use>
  </g>
</defs>
<script type="application/ecmascript">
var viewWidth = 2877;
var viewHeight = 401;
var sectionId = 'dynsection-1';
</script>
<script type="application/ecmascript" xlink:href="svg.min.js"/>
<svg id="graph" class="graph">
<g id="viewport">
<title>src/physics/solver/ProblemRouter.h</title>
<!-- Node1 -->
<g id="Node000001" class="node">
<title>Node1</title>
<g id="a_Node000001"><a xlink:title=" ">
<polygon fill="#999999" stroke="#666666" points="458,-393 354,-393 354,-363 458,-363 458,-393"/>
<text text-anchor="start" x="362" y="-381" font-family="Helvetica,sans-Serif" font-size="10.00">src/physics/solver</text>
<text text-anchor="middle" x="406" y="-370" font-family="Helvetica,sans-Serif" font-size="10.00">/ProblemRouter.h</text>
</a>
</g>
</g>
<!-- Node2 -->
<g id="Node000002" class="node">
<title>Node2</title>
<g id="a_Node000002"><a xlink:href="PhysicsSystem_8h.html" target="_top" xlink:title=" ">
<polygon fill="white" stroke="#666666" points="484,-327 328,-327 328,-308 484,-308 484,-327"/>
<text text-anchor="middle" x="406" y="-315" font-family="Helvetica,sans-Serif" font-size="10.00">src/physics/PhysicsSystem.h</text>
</a>
</g>
</g>
<!-- Node1&#45;&gt;Node2 -->
<g id="edge1_Node000001_Node000002" class="edge">
<title>Node1&#45;&gt;Node2</title>
<g id="a_edge1_Node000001_Node000002"><a xlink:title=" ">
<path fill="none" stroke="#63b8ff" d="M406,-352.75C406,-343.72 406,-334.03 406,-327.27"/>
<polygon fill="#63b8ff" stroke="#63b8ff" points="402.5,-352.84 406,-362.84 409.5,-352.84 402.5,-352.84"/>
</a>
</g>
</g>
<!-- Node23 -->
<g id="Node000023" class="node">
<title>Node23</title>
<g id="a_Node000023"><a xlink:href="ProblemRouter_8cpp.html" target="_top" xlink:title=" ">
<polygon fill="white" stroke="#666666" points="112,-272 0,-272 0,-242 112,-242 112,-272"/>
<text text-anchor="start" x="8" y="-260" font-family="Helvetica,sans-Serif" font-size="10.00">src/physics/solver</text>
<text text-anchor="middle" x="56" y="-249" font-family="Helvetica,sans-Serif" font-size="10.00">/ProblemRouter.cpp</text>
</a>
</g>
</g>
<!-- Node1&#45;&gt;Node23 -->
<g id="edge48_Node000001_Node000023" class="edge">
<title>Node1&#45;&gt;Node23</title>
<g id="a_edge48_Node000001_Node000023"><a xlink:title=" ">
<path fill="none" stroke="#63b8ff" d="M354.94,-359.64C285.2,-335.93 161.52,-293.88 97.29,-272.04"/>
<polygon fill="#63b8ff" stroke="#63b8ff" points="354.23,-363.09 364.82,-363 356.48,-356.47 354.23,-363.09"/>
</a>
</g>
</g>
<!-- Node32 -->
<g id="Node000032" class="node">
<title>Node32</title>
<g id="a_Node000032"><a xlink:href="SolverDialog_8cpp.html" target="_top" xlink:title=" ">
<polygon fill="white" stroke="#666666" points="630,-327 502,-327 502,-308 630,-308 630,-327"/>
<text text-anchor="middle" x="566" y="-315" font-family="Helvetica,sans-Serif" font-size="10.00">src/ui/SolverDialog.cpp</text>
</a>
</g>
</g>
<!-- Node1&#45;&gt;Node32 -->
<g id="edge49_Node000001_Node000032" class="edge">
<title>Node1&#45;&gt;Node32</title>
<g id="a_edge49_Node000001_Node000032"><a xlink:title=" ">
<path fill="none" stroke="#63b8ff" d="M453.94,-359.47C483.14,-348.79 519.18,-335.62 542.37,-327.14"/>
<polygon fill="#63b8ff" stroke="#63b8ff" points="452.51,-356.27 444.32,-362.99 454.92,-362.84 452.51,-356.27"/>
</a>
</g>
</g>
<!-- Node3 -->
<g id="Node000003" class="node">
<title>Node3</title>
<g id="a_Node000003"><a xlink:href="SceneObject_8h.html" target="_top" xlink:title=" ">
<polygon fill="white" stroke="#666666" points="1570,-151 1398,-151 1398,-132 1570,-132 1570,-151"/>
<text text-anchor="middle" x="1484" y="-139" font-family="Helvetica,sans-Serif" font-size="10.00">src/graphics/core/SceneObject.h</text>
</a>
</g>
</g>
<!-- Node2&#45;&gt;Node3 -->
<g id="edge2_Node000002_Node000003" class="edge">
<title>Node2&#45;&gt;Node3</title>
<g id="a_edge2_Node000002_Node000003"><a xlink:title=" ">
<path fill="none" stroke="#63b8ff" d="M494.57,-307.28C592.22,-296.97 743.05,-280.59 800,-272 1046.48,-234.8 1339.78,-173.48 1444.47,-151.06"/>
<polygon fill="#63b8ff" stroke="#63b8ff" points="493.98,-303.82 484.41,-308.35 494.72,-310.78 493.98,-303.82"/>
</a>
</g>
</g>
<!-- Node19 -->
<g id="Node000019" class="node">
<title>Node19</title>
<g id="a_Node000019"><a xlink:href="InspectorWidget_8cpp.html" target="_top" xlink:title=" ">
<polygon fill="white" stroke="#666666" points="541.5,-96 402.5,-96 402.5,-66 541.5,-66 541.5,-96"/>
<text text-anchor="start" x="410.5" y="-84" font-family="Helvetica,sans-Serif" font-size="10.00">src/ui/inspector/Inspector</text>
<text text-anchor="middle" x="472" y="-73" font-family="Helvetica,sans-Serif" font-size="10.00">Widget.cpp</text>
</a>
</g>
</g>
<!-- Node2&#45;&gt;Node19 -->
<g id="edge46_Node000002_Node000019" class="edge">
<title>Node2&#45;&gt;Node19</title>
<g id="a_edge46_Node000002_Node000019"><a xlink:title=" ">
<path fill="none" stroke="#63b8ff" d="M474.9,-306.43C533.23,-297.2 608.83,-283.3 618,-272 626.4,-261.65 621.98,-254.72 618,-242 612.18,-223.41 603.03,-222.7 593,-206 573.97,-174.3 580.24,-159.01 555,-132 540.76,-116.76 520.84,-104.55 504.09,-96.01"/>
<polygon fill="#63b8ff" stroke="#63b8ff" points="474.31,-302.98 464.97,-307.99 475.39,-309.9 474.31,-302.98"/>
</a>
</g>
</g>
<!-- Node22 -->
<g id="Node000022" class="node">
<title>Node22</title>
<g id="a_Node000022"><a xlink:href="PhysicsSystem_8cpp.html" target="_top" xlink:title=" ">
<polygon fill="white" stroke="#666666" points="334.5,-266.5 167.5,-266.5 167.5,-247.5 334.5,-247.5 334.5,-266.5"/>
<text text-anchor="middle" x="251" y="-254.5" font-family="Helvetica,sans-Serif" font-size="10.00">src/physics/PhysicsSystem.cpp</text>
</a>
</g>
</g>
<!-- Node2&#45;&gt;Node22 -->
<g id="edge22_Node000002_Node000022" class="edge">
<title>Node2&#45;&gt;Node22</title>
<g id="a_edge22_Node000002_Node000022"><a xlink:title=" ">
<path fill="none" stroke="#63b8ff" d="M373.88,-304.38C343.92,-293.07 299.98,-276.49 273.57,-266.52"/>
<polygon fill="#63b8ff" stroke="#63b8ff" points="372.87,-307.74 383.46,-307.99 375.34,-301.19 372.87,-307.74"/>
</a>
</g>
</g>
<!-- Node2&#45;&gt;Node23 -->
<g id="edge23_Node000002_Node000023" class="edge">
<title>Node2&#45;&gt;Node23</title>
<g id="a_edge23_Node000002_Node000023"><a xlink:title=" ">
<path fill="none" stroke="#63b8ff" d="M338.03,-306.47C281.25,-297.91 198.21,-284.95 126,-272 121.49,-271.19 116.82,-270.32 112.13,-269.43"/>
<polygon fill="#63b8ff" stroke="#63b8ff" points="337.56,-309.94 347.97,-307.97 338.6,-303.02 337.56,-309.94"/>
</a>
</g>
</g>
<!-- Node24 -->
<g id="Node000024" class="node">
<title>Node24</title>
<g id="a_Node000024"><a xlink:href="Octree_8cpp.html" target="_top" xlink:title=" ">
<polygon fill="white" stroke="#666666" points="459.5,-272 352.5,-272 352.5,-242 459.5,-242 459.5,-272"/>
<text text-anchor="start" x="360.5" y="-260" font-family="Helvetica,sans-Serif" font-size="10.00">src/physics/spatial</text>
<text text-anchor="middle" x="406" y="-249" font-family="Helvetica,sans-Serif" font-size="10.00">/Octree.cpp</text>
</a>
</g>
</g>
<!-- Node2&#45;&gt;Node24 -->
<g id="edge24_Node000002_Node000024" class="edge">
<title>Node2&#45;&gt;Node24</title>
<g id="a_edge24_Node000002_Node000024"><a xlink:title=" ">
<path fill="none" stroke="#63b8ff" d="M406,-297.65C406,-289.36 406,-279.78 406,-272.11"/>
<polygon fill="#63b8ff" stroke="#63b8ff" points="402.5,-297.87 406,-307.87 409.5,-297.87 402.5,-297.87"/>
</a>
</g>
</g>
<!-- Node25 -->
<g id="Node000025" class="node">
<title>Node25</title>
<g id="a_Node000025"><a xlink:href="OpenGLWindow_8cpp.html" target="_top" xlink:title=" ">
<polygon fill="white" stroke="#666666" points="410,-151 268,-151 268,-132 410,-132 410,-151"/>
<text text-anchor="middle" x="339" y="-139" font-family="Helvetica,sans-Serif" font-size="10.00">src/ui/OpenGLWindow.cpp</text>
</a>
</g>
</g>
<!-- Node2&#45;&gt;Node25 -->
<g id="edge25_Node000002_Node000025" class="edge">
<title>Node2&#45;&gt;Node25</title>
<g id="a_edge25_Node000002_Node000025"><a xlink:title=" ">
<path fill="none" stroke="#63b8ff" d="M317.64,-312.34C254.89,-307.32 178.31,-296.27 158,-272 109.53,-214.06 240.65,-169.09 305.33,-151.07"/>
<polygon fill="#63b8ff" stroke="#63b8ff" points="317.74,-315.86 327.98,-313.13 318.27,-308.88 317.74,-315.86"/>
</a>
</g>
</g>
<!-- Node26 -->
<g id="Node000026" class="node">
<title>Node26</title>
<g id="a_Node000026"><a xlink:href="OpenGLWindow_8h.html" target="_top" xlink:title=" ">
<polygon fill="white" stroke="#666666" points="608.5,-266.5 477.5,-266.5 477.5,-247.5 608.5,-247.5 608.5,-266.5"/>
<text text-anchor="middle" x="543" y="-254.5" font-family="Helvetica,sans-Serif" font-size="10.00">src/ui/OpenGLWindow.h</text>
</a>
</g>
</g>
<!-- Node2&#45;&gt;Node26 -->
<g id="edge26_Node000002_Node000026" class="edge">
<title>Node2&#45;&gt;Node26</title>
<g id="a_edge26_Node000002_Node000026"><a xlink:title=" ">
<path fill="none" stroke="#63b8ff" d="M435.43,-303.93C461.88,-292.64 500.01,-276.36 523.05,-266.52"/>
<polygon fill="#63b8ff" stroke="#63b8ff" points="433.74,-300.85 425.92,-307.99 436.49,-307.29 433.74,-300.85"/>
</a>
</g>
</g>
<!-- Node31 -->
<g id="Node000031" class="node">
<title>Node31</title>
<g id="a_Node000031"><a xlink:href="PhysicsTests_8cpp.html" target="_top" xlink:title=" ">
<polygon fill="white" stroke="#666666" points="790.5,-266.5 665.5,-266.5 665.5,-247.5 790.5,-247.5 790.5,-266.5"/>
<text text-anchor="middle" x="728" y="-254.5" font-family="Helvetica,sans-Serif" font-size="10.00">tests/PhysicsTests.cpp</text>
</a>
</g>
</g>
<!-- Node2&#45;&gt;Node31 -->
<g id="edge47_Node000002_Node000031" class="edge">
<title>Node2&#45;&gt;Node31</title>
<g id="a_edge47_Node000002_Node000031"><a xlink:title=" ">
<path fill="none" stroke="#63b8ff" d="M462.87,-306.17C512.53,-297.16 586.54,-283.71 651,-272 660.76,-270.23 671.21,-268.33 681.17,-266.52"/>
<polygon fill="#63b8ff" stroke="#63b8ff" points="462.18,-302.74 452.97,-307.97 463.43,-309.63 462.18,-302.74"/>
</a>
</g>
</g>
<!-- Node4 -->
<g id="Node000004" class="node">
<title>Node4</title>
<g id="a_Node000004"><a xlink:href="Gizmo_8cpp.html" target="_top" xlink:title=" ">
<polygon fill="white" stroke="#666666" points="1456,-30 1318,-30 1318,0 1456,0 1456,-30"/>
<text text-anchor="start" x="1326" y="-18" font-family="Helvetica,sans-Serif" font-size="10.00">src/graphics/components</text>
<text text-anchor="middle" x="1387" y="-7" font-family="Helvetica,sans-Serif" font-size="10.00">/Gizmo.cpp</text>
</a>
</g>
</g>
<!-- Node3&#45;&gt;Node4 -->
<g id="edge3_Node000003_Node000004" class="edge">
<title>Node3&#45;&gt;Node4</title>
<g id="a_edge3_Node000003_Node000004"><a xlink:title=" ">
<path fill="none" stroke="#63b8ff" d="M1448.9,-127.95C1433.61,-120.81 1416.76,-110.36 1406,-96 1391.37,-76.46 1387.81,-47.33 1387.05,-30.14"/>
<polygon fill="#63b8ff" stroke="#63b8ff" points="1447.59,-131.2 1458.15,-131.98 1450.38,-124.78 1447.59,-131.2"/>
</a>
</g>
</g>
<!-- Node5 -->
<g id="Node000005" class="node">
<title>Node5</title>
<g id="a_Node000005"><a xlink:href="RotateHandle_8cpp.html" target="_top" xlink:title=" ">
<polygon fill="white" stroke="#666666" points="1553,-96 1415,-96 1415,-66 1553,-66 1553,-96"/>
<text text-anchor="start" x="1423" y="-84" font-family="Helvetica,sans-Serif" font-size="10.00">src/graphics/components</text>
<text text-anchor="middle" x="1484" y="-73" font-family="Helvetica,sans-Serif" font-size="10.00">/RotateHandle.cpp</text>
</a>
</g>
</g>
<!-- Node3&#45;&gt;Node5 -->
<g id="edge4_Node000003_Node000005" class="edge">
<title>Node3&#45;&gt;Node5</title>
<g id="a_edge4_Node000003_Node000005"><a xlink:title=" ">
<path fill="none" stroke="#63b8ff" d="M1484,-121.65C1484,-113.36 1484,-103.78 1484,-96.11"/>
<polygon fill="#63b8ff" stroke="#63b8ff" points="1480.5,-121.87 1484,-131.87 1487.5,-121.87 1480.5,-121.87"/>
</a>
</g>
</g>
<!-- Node6 -->
<g id="Node000006" class="node">
<title>Node6</title>
<g id="a_Node000006"><a xlink:href="ScaleHandle_8h.html" target="_top" xlink:title=" ">
<polygon fill="white" stroke="#666666" points="2699,-96 2561,-96 2561,-66 2699,-66 2699,-96"/>
<text text-anchor="start" x="2569" y="-84" font-family="Helvetica,sans-Serif" font-size="10.00">src/graphics/components</text>
<text text-anchor="middle" x="2630" y="-73" font-family="Helvetica,sans-Serif" font-size="10.00">/ScaleHandle.h</text>
</a>
</g>
</g>
<!-- Node3&#45;&gt;Node6 -->
<g id="edge5_Node000003_Node000006" class="edge">
<title>Node3&#45;&gt;Node6</title>
<g id="a_edge5_Node000003_Node000006"><a xlink:title=" ">
<path fill="none" stroke="#63b8ff" d="M1580.16,-132.24C1581.45,-132.16 1582.73,-132.08 1584,-132 2013.72,-105.76 2123.96,-142.14 2552,-96 2554.87,-95.69 2557.8,-95.34 2560.75,-94.95"/>
<polygon fill="#63b8ff" stroke="#63b8ff" points="1579.91,-128.75 1570.17,-132.91 1580.38,-135.73 1579.91,-128.75"/>
</a>
</g>
</g>
<!-- Node8 -->
<g id="Node000008" class="node">
<title>Node8</title>
<g id="a_Node000008"><a xlink:href="TranslateHandle_8cpp.html" target="_top" xlink:title=" ">
<polygon fill="white" stroke="#666666" points="1709,-96 1571,-96 1571,-66 1709,-66 1709,-96"/>
<text text-anchor="start" x="1579" y="-84" font-family="Helvetica,sans-Serif" font-size="10.00">src/graphics/components</text>
<text text-anchor="middle" x="1640" y="-73" font-family="Helvetica,sans-Serif" font-size="10.00">/TranslateHandle.cpp</text>
</a>
</g>
</g>
<!-- Node3&#45;&gt;Node8 -->
<g id="edge8_Node000003_Node000008" class="edge">
<title>Node3&#45;&gt;Node8</title>
<g id="a_edge8_Node000003_Node000008"><a xlink:title=" ">
<path fill="none" stroke="#63b8ff" d="M1516.11,-128.46C1541.2,-119.05 1576.12,-105.95 1602.5,-96.06"/>
<polygon fill="#63b8ff" stroke="#63b8ff" points="1514.82,-125.21 1506.68,-131.99 1517.28,-131.76 1514.82,-125.21"/>
</a>
</g>
</g>
<!-- Node9 -->
<g id="Node000009" class="node">
<title>Node9</title>
<g id="a_Node000009"><a xlink:href="Camera_8cpp.html" target="_top" xlink:title=" ">
<polygon fill="white" stroke="#666666" points="1888.5,-90.5 1727.5,-90.5 1727.5,-71.5 1888.5,-71.5 1888.5,-90.5"/>
<text text-anchor="middle" x="1808" y="-78.5" font-family="Helvetica,sans-Serif" font-size="10.00">src/graphics/core/Camera.cpp</text>
</a>
</g>
</g>
<!-- Node3&#45;&gt;Node9 -->
<g id="edge9_Node000003_Node000009" class="edge">
<title>Node3&#45;&gt;Node9</title>
<g id="a_edge9_Node000003_Node000009"><a xlink:title=" ">
<path fill="none" stroke="#63b8ff" d="M1541.2,-130.17C1603.68,-118.89 1702.62,-101.03 1760.83,-90.52"/>
<polygon fill="#63b8ff" stroke="#63b8ff" points="1540.33,-126.77 1531.11,-131.99 1541.58,-133.66 1540.33,-126.77"/>
</a>
</g>
</g>
<!-- Node10 -->
<g id="Node000010" class="node">
<title>Node10</title>
<g id="a_Node000010"><a xlink:href="Scene_8cpp.html" target="_top" xlink:title=" ">
<polygon fill="white" stroke="#666666" points="2869,-90.5 2717,-90.5 2717,-71.5 2869,-71.5 2869,-90.5"/>
<text text-anchor="middle" x="2793" y="-78.5" font-family="Helvetica,sans-Serif" font-size="10.00">src/graphics/core/Scene.cpp</text>
</a>
</g>
</g>
<!-- Node3&#45;&gt;Node10 -->
<g id="edge10_Node000003_Node000010" class="edge">
<title>Node3&#45;&gt;Node10</title>
<g id="a_edge10_Node000003_Node000010"><a xlink:title=" ">
<path fill="none" stroke="#63b8ff" d="M1580.16,-132.23C1581.45,-132.15 1582.73,-132.07 1584,-132 2082.96,-102.82 2210.57,-144.72 2708,-96 2721.1,-94.72 2735.24,-92.66 2748.15,-90.52"/>
<polygon fill="#63b8ff" stroke="#63b8ff" points="1579.91,-128.74 1570.16,-132.89 1580.37,-135.72 1579.91,-128.74"/>
</a>
</g>
</g>
<!-- Node11 -->
<g id="Node000011" class="node">
<title>Node11</title>
<g id="a_Node000011"><a xlink:href="SceneManager_8cpp.html" target="_top" xlink:title=" ">
<polygon fill="white" stroke="#666666" points="994,-90.5 800,-90.5 800,-71.5 994,-71.5 994,-90.5"/>
<text text-anchor="middle" x="897" y="-78.5" font-family="Helvetica,sans-Serif" font-size="10.00">src/graphics/core/SceneManager.cpp</text>
</a>
</g>
</g>
<!-- Node3&#45;&gt;Node11 -->
<g id="edge11_Node000003_Node000011" class="edge">
<title>Node3&#45;&gt;Node11</title>
<g id="a_edge11_Node000003_Node000011"><a xlink:title=" ">
<path fill="none" stroke="#63b8ff" d="M1387.54,-132.63C1290.54,-124.47 1136.75,-110.83 1004,-96 989.38,-94.37 973.67,-92.42 958.91,-90.5"/>
<polygon fill="#63b8ff" stroke="#63b8ff" points="1387.37,-136.13 1397.62,-133.48 1387.95,-129.15 1387.37,-136.13"/>
</a>
</g>
</g>
<!-- Node12 -->
<g id="Node000012" class="node">
<title>Node12</title>
<g id="a_Node000012"><a xlink:href="SceneObject_8cpp.html" target="_top" xlink:title=" ">
<polygon fill="white" stroke="#666666" points="781.5,-90.5 598.5,-90.5 598.5,-71.5 781.5,-71.5 781.5,-90.5"/>
<text text-anchor="middle" x="690" y="-78.5" font-family="Helvetica,sans-Serif" font-size="10.00">src/graphics/core/SceneObject.cpp</text>
</a>
</g>
</g>
<!-- Node3&#45;&gt;Node12 -->
<g id="edge12_Node000003_Node000012" class="edge">
<title>Node3&#45;&gt;Node12</title>
<g id="a_edge12_Node000003_Node000012"><a xlink:title=" ">
<path fill="none" stroke="#63b8ff" d="M1387.71,-136.56C1253.7,-130.56 1003.47,-117.52 791,-96 776.38,-94.52 760.63,-92.53 746.01,-90.51"/>
<polygon fill="#63b8ff" stroke="#63b8ff" points="1387.8,-140.07 1397.94,-137.01 1388.11,-133.07 1387.8,-140.07"/>
</a>
</g>
</g>
<!-- Node13 -->
<g id="Node000013" class="node">
<title>Node13</title>
<g id="a_Node000013"><a xlink:href="SceneSerializer_8cpp.html" target="_top" xlink:title=" ">
<polygon fill="white" stroke="#666666" points="1209.5,-90.5 1012.5,-90.5 1012.5,-71.5 1209.5,-71.5 1209.5,-90.5"/>
<text text-anchor="middle" x="1111" y="-78.5" font-family="Helvetica,sans-Serif" font-size="10.00">src/graphics/core/SceneSerializer.cpp</text>
</a>
</g>
</g>
<!-- Node3&#45;&gt;Node13 -->
<g id="edge13_Node000003_Node000013" class="edge">
<title>Node3&#45;&gt;Node13</title>
<g id="a_edge13_Node000003_Node000013"><a xlink:title=" ">
<path fill="none" stroke="#63b8ff" d="M1419.48,-130.38C1347.63,-119.11 1232.74,-101.09 1165.3,-90.52"/>
<polygon fill="#63b8ff" stroke="#63b8ff" points="1419.34,-133.9 1429.76,-131.99 1420.43,-126.99 1419.34,-133.9"/>
</a>
</g>
</g>
<!-- Node14 -->
<g id="Node000014" class="node">
<title>Node14</title>
<g id="a_Node000014"><a xlink:href="HierarchyWidget_8h.html" target="_top" xlink:title=" ">
<polygon fill="white" stroke="#666666" points="2043.5,-90.5 1906.5,-90.5 1906.5,-71.5 2043.5,-71.5 2043.5,-90.5"/>
<text text-anchor="middle" x="1975" y="-78.5" font-family="Helvetica,sans-Serif" font-size="10.00">src/ui/HierarchyWidget.h</text>
</a>
</g>
</g>
<!-- Node3&#45;&gt;Node14 -->
<g id="edge14_Node000003_Node000014" class="edge">
<title>Node3&#45;&gt;Node14</title>
<g id="a_edge14_Node000003_Node000014"><a xlink:title=" ">
<path fill="none" stroke="#63b8ff" d="M1580.3,-132.15C1664.37,-124.38 1789.54,-111.67 1898,-96 1908.76,-94.45 1920.31,-92.5 1931.11,-90.55"/>
<polygon fill="#63b8ff" stroke="#63b8ff" points="1579.9,-128.67 1570.26,-133.07 1580.54,-135.64 1579.9,-128.67"/>
</a>
</g>
</g>
<!-- Node17 -->
<g id="Node000017" class="node">
<title>Node17</title>
<g id="a_Node000017"><a xlink:href="ForcesInspectorWidget_8cpp.html" target="_top" xlink:title=" ">
<polygon fill="white" stroke="#666666" points="2232,-96 2062,-96 2062,-66 2232,-66 2232,-96"/>
<text text-anchor="start" x="2070" y="-84" font-family="Helvetica,sans-Serif" font-size="10.00">src/ui/inspector/ForcesInspector</text>
<text text-anchor="middle" x="2147" y="-73" font-family="Helvetica,sans-Serif" font-size="10.00">Widget.cpp</text>
</a>
</g>
</g>
<!-- Node3&#45;&gt;Node17 -->
<g id="edge17_Node000003_Node000017" class="edge">
<title>Node3&#45;&gt;Node17</title>
<g id="a_edge17_Node000003_Node000017"><a xlink:title=" ">
<path fill="none" stroke="#63b8ff" d="M1580.16,-132.31C1581.45,-132.21 1582.73,-132.1 1584,-132 1792.38,-115.15 1845.26,-119.41 2053,-96 2055.95,-95.67 2058.95,-95.31 2061.98,-94.94"/>
<polygon fill="#63b8ff" stroke="#63b8ff" points="1579.86,-128.82 1570.18,-133.13 1580.43,-135.8 1579.86,-128.82"/>
</a>
</g>
</g>
<!-- Node18 -->
<g id="Node000018" class="node">
<title>Node18</title>
<g id="a_Node000018"><a xlink:href="GlobalsInspectorWidget_8cpp.html" target="_top" xlink:title=" ">
<polygon fill="white" stroke="#666666" points="1358.5,-96 1227.5,-96 1227.5,-66 1358.5,-66 1358.5,-96"/>
<text text-anchor="start" x="1235.5" y="-84" font-family="Helvetica,sans-Serif" font-size="10.00">src/ui/inspector/Globals</text>
<text text-anchor="middle" x="1293" y="-73" font-family="Helvetica,sans-Serif" font-size="10.00">InspectorWidget.cpp</text>
</a>
</g>
</g>
<!-- Node3&#45;&gt;Node18 -->
<g id="edge18_Node000003_Node000018" class="edge">
<title>Node3&#45;&gt;Node18</title>
<g id="a_edge18_Node000003_Node000018"><a xlink:title=" ">
<path fill="none" stroke="#63b8ff" d="M1446.3,-128.95C1415.48,-119.51 1371.78,-106.13 1338.92,-96.06"/>
<polygon fill="#63b8ff" stroke="#63b8ff" points="1445.64,-132.41 1456.23,-131.99 1447.69,-125.72 1445.64,-132.41"/>
</a>
</g>
</g>
<!-- Node3&#45;&gt;Node19 -->
<g id="edge19_Node000003_Node000019" class="edge">
<title>Node3&#45;&gt;Node19</title>
<g id="a_edge19_Node000003_Node000019"><a xlink:title=" ">
<path fill="none" stroke="#63b8ff" d="M1387.82,-137.87C1223.88,-132.9 879.89,-120.38 590,-96 574.38,-94.69 557.63,-92.92 541.8,-91.08"/>
<polygon fill="#63b8ff" stroke="#63b8ff" points="1387.78,-141.37 1397.88,-138.17 1387.99,-134.37 1387.78,-141.37"/>
</a>
</g>
</g>
<!-- Node20 -->
<g id="Node000020" class="node">
<title>Node20</title>
<g id="a_Node000020"><a xlink:href="PhysicsInspectorWidget_8cpp.html" target="_top" xlink:title=" ">
<polygon fill="white" stroke="#666666" points="2381.5,-96 2250.5,-96 2250.5,-66 2381.5,-66 2381.5,-96"/>
<text text-anchor="start" x="2258.5" y="-84" font-family="Helvetica,sans-Serif" font-size="10.00">src/ui/inspector/Physics</text>
<text text-anchor="middle" x="2316" y="-73" font-family="Helvetica,sans-Serif" font-size="10.00">InspectorWidget.cpp</text>
</a>
</g>
</g>
<!-- Node3&#45;&gt;Node20 -->
<g id="edge20_Node000003_Node000020" class="edge">
<title>Node3&#45;&gt;Node20</title>
<g id="a_edge20_Node000003_Node000020"><a xlink:title=" ">
<path fill="none" stroke="#63b8ff" d="M1580.16,-132.27C1581.45,-132.18 1582.73,-132.09 1584,-132 1875.73,-111.61 1950.65,-130.9 2241,-96 2244.02,-95.64 2247.11,-95.23 2250.22,-94.78"/>
<polygon fill="#63b8ff" stroke="#63b8ff" points="1579.89,-128.78 1570.17,-133.01 1580.4,-135.76 1579.89,-128.78"/>
</a>
</g>
</g>
<!-- Node21 -->
<g id="Node000021" class="node">
<title>Node21</title>
<g id="a_Node000021"><a xlink:href="TransformInspectorWidget_8cpp.html" target="_top" xlink:title=" ">
<polygon fill="white" stroke="#666666" points="2542.5,-96 2399.5,-96 2399.5,-66 2542.5,-66 2542.5,-96"/>
<text text-anchor="start" x="2407.5" y="-84" font-family="Helvetica,sans-Serif" font-size="10.00">src/ui/inspector/Transform</text>
<text text-anchor="middle" x="2471" y="-73" font-family="Helvetica,sans-Serif" font-size="10.00">InspectorWidget.cpp</text>
</a>
</g>
</g>
<!-- Node3&#45;&gt;Node21 -->
<g id="edge21_Node000003_Node000021" class="edge">
<title>Node3&#45;&gt;Node21</title>
<g id="a_edge21_Node000003_Node000021"><a xlink:title=" ">
<path fill="none" stroke="#63b8ff" d="M1580.16,-132.25C1581.45,-132.17 1582.73,-132.08 1584,-132 1942.27,-108.79 2034.1,-135.03 2391,-96 2393.66,-95.71 2396.37,-95.38 2399.1,-95.03"/>
<polygon fill="#63b8ff" stroke="#63b8ff" points="1579.9,-128.76 1570.17,-132.95 1580.39,-135.75 1579.9,-128.76"/>
</a>
</g>
</g>
<!-- Node6&#45;&gt;Node4 -->
<g id="edge6_Node000006_Node000004" class="edge">
<title>Node6&#45;&gt;Node4</title>
<g id="a_edge6_Node000006_Node000004"><a xlink:title=" ">
<path fill="none" stroke="#63b8ff" d="M2550.66,-65.98C2318.2,-41.72 1669.56,-23.31 1456.04,-17.74"/>
<polygon fill="#63b8ff" stroke="#63b8ff" points="2550.43,-69.48 2560.75,-67.07 2551.18,-62.52 2550.43,-69.48"/>
</a>
</g>
</g>
<!-- Node7 -->
<g id="Node000007" class="node">
<title>Node7</title>
<g id="a_Node000007"><a xlink:href="ScaleHandle_8cpp.html" target="_top" xlink:title=" ">
<polygon fill="white" stroke="#666666" points="2699,-30 2561,-30 2561,0 2699,0 2699,-30"/>
<text text-anchor="start" x="2569" y="-18" font-family="Helvetica,sans-Serif" font-size="10.00">src/graphics/components</text>
<text text-anchor="middle" x="2630" y="-7" font-family="Helvetica,sans-Serif" font-size="10.00">/ScaleHandle.cpp</text>
</a>
</g>
</g>
<!-- Node6&#45;&gt;Node7 -->
<g id="edge7_Node000006_Node000007" class="edge">
<title>Node6&#45;&gt;Node7</title>
<g id="a_edge7_Node000006_Node000007"><a xlink:title=" ">
<path fill="none" stroke="#63b8ff" d="M2630,-55.54C2630,-46.96 2630,-37.61 2630,-30.16"/>
<polygon fill="#63b8ff" stroke="#63b8ff" points="2626.5,-55.8 2630,-65.8 2633.5,-55.8 2626.5,-55.8"/>
</a>
</g>
</g>
<!-- Node15 -->
<g id="Node000015" class="node">
<title>Node15</title>
<g id="a_Node000015"><a xlink:href="HierarchyWidget_8cpp.html" target="_top" xlink:title=" ">
<polygon fill="white" stroke="#666666" points="2049,-24.5 1901,-24.5 1901,-5.5 2049,-5.5 2049,-24.5"/>
<text text-anchor="middle" x="1975" y="-12.5" font-family="Helvetica,sans-Serif" font-size="10.00">src/ui/HierarchyWidget.cpp</text>
</a>
</g>
</g>
<!-- Node14&#45;&gt;Node15 -->
<g id="edge15_Node000014_Node000015" class="edge">
<title>Node14&#45;&gt;Node15</title>
<g id="a_edge15_Node000014_Node000015"><a xlink:title=" ">
<path fill="none" stroke="#63b8ff" d="M1975,-61.08C1975,-49.13 1975,-34.22 1975,-24.91"/>
<polygon fill="#63b8ff" stroke="#63b8ff" points="1971.5,-61.37 1975,-71.37 1978.5,-61.37 1971.5,-61.37"/>
</a>
</g>
</g>
<!-- Node16 -->
<g id="Node000016" class="node">
<title>Node16</title>
<g id="a_Node000016"><a xlink:href="MainWindow_8cpp.html" target="_top" xlink:title=" ">
<polygon fill="white" stroke="#666666" points="438,-24.5 310,-24.5 310,-5.5 438,-5.5 438,-24.5"/>
<text text-anchor="middle" x="374" y="-12.5" font-family="Helvetica,sans-Serif" font-size="10.00">src/ui/MainWindow.cpp</text>
</a>
</g>
</g>
<!-- Node14&#45;&gt;Node16 -->
<g id="edge16_Node000014_Node000016" class="edge">
<title>Node14&#45;&gt;Node16</title>
<g id="a_edge16_Node000014_Node000016"><a xlink:title=" ">
<path fill="none" stroke="#63b8ff" d="M1924.31,-69.69C1915.57,-68.23 1906.55,-66.91 1898,-66 1608.28,-35.08 690.01,-20.37 438.33,-16.85"/>
<polygon fill="#63b8ff" stroke="#63b8ff" points="1923.95,-73.18 1934.4,-71.46 1925.16,-66.29 1923.95,-73.18"/>
</a>
</g>
</g>
<!-- Node26&#45;&gt;Node10 -->
<g id="edge27_Node000026_Node000010" class="edge">
<title>Node26&#45;&gt;Node10</title>
<g id="a_edge27_Node000026_Node000010"><a xlink:title=" ">
<path fill="none" stroke="#63b8ff" d="M618.05,-246.23C631.02,-244.7 644.39,-243.22 657,-242 1566.6,-153.83 1800.4,-202.82 2708,-96 2720.33,-94.55 2733.6,-92.57 2745.9,-90.55"/>
<polygon fill="#63b8ff" stroke="#63b8ff" points="617.26,-242.8 607.75,-247.47 618.09,-249.75 617.26,-242.8"/>
</a>
</g>
</g>
<!-- Node26&#45;&gt;Node11 -->
<g id="edge28_Node000026_Node000011" class="edge">
<title>Node26&#45;&gt;Node11</title>
<g id="a_edge28_Node000026_Node000011"><a xlink:title=" ">
<path fill="none" stroke="#63b8ff" d="M606.53,-245.82C657.41,-237.06 730.36,-223.15 793,-206 864.31,-186.48 907.23,-211.31 950,-151 965.82,-128.7 932.77,-103.44 912.05,-90.55"/>
<polygon fill="#63b8ff" stroke="#63b8ff" points="605.93,-242.37 596.66,-247.5 607.11,-249.27 605.93,-242.37"/>
</a>
</g>
</g>
<!-- Node26&#45;&gt;Node16 -->
<g id="edge44_Node000026_Node000016" class="edge">
<title>Node26&#45;&gt;Node16</title>
<g id="a_edge44_Node000026_Node000016"><a xlink:title=" ">
<path fill="none" stroke="#63b8ff" d="M490.02,-245.48C423.24,-232.12 316.09,-210.25 308,-206 276.56,-189.46 270.84,-179.77 250,-151 226.83,-119 200.9,-98.05 224,-66 243.58,-38.83 278.57,-26.2 309.83,-20.43"/>
<polygon fill="#63b8ff" stroke="#63b8ff" points="489.48,-248.94 499.97,-247.47 490.85,-242.08 489.48,-248.94"/>
</a>
</g>
</g>
<!-- Node26&#45;&gt;Node25 -->
<g id="edge45_Node000026_Node000025" class="edge">
<title>Node26&#45;&gt;Node25</title>
<g id="a_edge45_Node000026_Node000025"><a xlink:title=" ">
<path fill="none" stroke="#63b8ff" d="M518.85,-242.56C476.46,-218.98 389.83,-170.78 354.51,-151.13"/>
<polygon fill="#63b8ff" stroke="#63b8ff" points="517.23,-245.67 527.67,-247.47 520.63,-239.55 517.23,-245.67"/>
</a>
</g>
</g>
<!-- Node27 -->
<g id="Node000027" class="node">
<title>Node27</title>
<g id="a_Node000027"><a xlink:href="SceneManager_8h.html" target="_top" xlink:title=" ">
<polygon fill="white" stroke="#666666" points="784,-206 602,-206 602,-187 784,-187 784,-206"/>
<text text-anchor="middle" x="693" y="-194" font-family="Helvetica,sans-Serif" font-size="10.00">src/graphics/core/SceneManager.h</text>
</a>
</g>
</g>
<!-- Node26&#45;&gt;Node27 -->
<g id="edge29_Node000026_Node000027" class="edge">
<title>Node26&#45;&gt;Node27</title>
<g id="a_edge29_Node000026_Node000027"><a xlink:title=" ">
<path fill="none" stroke="#63b8ff" d="M574.46,-243.73C603.45,-232.42 645.71,-215.94 671.16,-206.02"/>
<polygon fill="#63b8ff" stroke="#63b8ff" points="572.86,-240.6 564.81,-247.49 575.4,-247.12 572.86,-240.6"/>
</a>
</g>
</g>
<!-- Node30 -->
<g id="Node000030" class="node">
<title>Node30</title>
<g id="a_Node000030"><a xlink:href="main_8cpp.html" target="_top" xlink:title=" ">
<polygon fill="white" stroke="#666666" points="312.5,-90.5 233.5,-90.5 233.5,-71.5 312.5,-71.5 312.5,-90.5"/>
<text text-anchor="middle" x="273" y="-78.5" font-family="Helvetica,sans-Serif" font-size="10.00">src/main.cpp</text>
</a>
</g>
</g>
<!-- Node26&#45;&gt;Node30 -->
<g id="edge43_Node000026_Node000030" class="edge">
<title>Node26&#45;&gt;Node30</title>
<g id="a_edge43_Node000026_Node000030"><a xlink:title=" ">
<path fill="none" stroke="#63b8ff" d="M494.62,-245.13C421.05,-227.51 286.62,-190.65 259,-151 246.15,-132.54 259,-104.97 267.25,-90.92"/>
<polygon fill="#63b8ff" stroke="#63b8ff" points="494.05,-248.59 504.58,-247.49 495.66,-241.78 494.05,-248.59"/>
</a>
</g>
</g>
<!-- Node27&#45;&gt;Node3 -->
<g id="edge33_Node000027_Node000003" class="edge">
<title>Node27&#45;&gt;Node3</title>
<g id="a_edge33_Node000027_Node000003"><a xlink:title=" ">
<path fill="none" stroke="#63b8ff" d="M794.25,-188.72C951.2,-178.2 1250.43,-158.15 1397.73,-148.28"/>
<polygon fill="#63b8ff" stroke="#63b8ff" points="793.87,-185.23 784.12,-189.39 794.34,-192.22 793.87,-185.23"/>
</a>
</g>
</g>
<!-- Node27&#45;&gt;Node4 -->
<g id="edge30_Node000027_Node000004" class="edge">
<title>Node27&#45;&gt;Node4</title>
<g id="a_edge30_Node000027_Node000004"><a xlink:title=" ">
<path fill="none" stroke="#63b8ff" d="M674.09,-180.35C646.84,-158.04 598.81,-116.76 590,-96 584.79,-83.73 580.87,-75.72 590,-66 614.75,-39.65 1128.47,-23.04 1317.76,-17.8"/>
<polygon fill="#63b8ff" stroke="#63b8ff" points="672.16,-183.3 682.13,-186.88 676.57,-177.86 672.16,-183.3"/>
</a>
</g>
</g>
<!-- Node27&#45;&gt;Node11 -->
<g id="edge31_Node000027_Node000011" class="edge">
<title>Node27&#45;&gt;Node11</title>
<g id="a_edge31_Node000027_Node000011"><a xlink:title=" ">
<path fill="none" stroke="#63b8ff" d="M703.67,-178.37C713.37,-164.11 728.9,-144.22 747,-132 778.39,-110.8 819.53,-97.93 850.78,-90.56"/>
<polygon fill="#63b8ff" stroke="#63b8ff" points="700.71,-176.51 698.17,-186.79 706.57,-180.33 700.71,-176.51"/>
</a>
</g>
</g>
<!-- Node27&#45;&gt;Node12 -->
<g id="edge32_Node000027_Node000012" class="edge">
<title>Node27&#45;&gt;Node12</title>
<g id="a_edge32_Node000027_Node000012"><a xlink:title=" ">
<path fill="none" stroke="#63b8ff" d="M692.5,-176.65C691.84,-151.74 690.71,-108.88 690.23,-90.63"/>
<polygon fill="#63b8ff" stroke="#63b8ff" points="689.01,-177.07 692.77,-186.97 696.01,-176.88 689.01,-177.07"/>
</a>
</g>
</g>
<!-- Node27&#45;&gt;Node18 -->
<g id="edge41_Node000027_Node000018" class="edge">
<title>Node27&#45;&gt;Node18</title>
<g id="a_edge41_Node000027_Node000018"><a xlink:title=" ">
<path fill="none" stroke="#63b8ff" d="M754.85,-185.27C806.96,-176.54 883.44,-163.45 950,-151 1046.72,-132.9 1158.39,-110.08 1227.35,-95.76"/>
<polygon fill="#63b8ff" stroke="#63b8ff" points="754.05,-181.86 744.76,-186.96 755.2,-188.76 754.05,-181.86"/>
</a>
</g>
</g>
<!-- Node27&#45;&gt;Node19 -->
<g id="edge42_Node000027_Node000019" class="edge">
<title>Node27&#45;&gt;Node19</title>
<g id="a_edge42_Node000027_Node000019"><a xlink:title=" ">
<path fill="none" stroke="#63b8ff" d="M671.64,-181.4C650.77,-167.9 617.86,-147.37 588,-132 561.87,-118.55 531.32,-105.48 508.12,-96.08"/>
<polygon fill="#63b8ff" stroke="#63b8ff" points="669.78,-184.36 680.07,-186.89 673.6,-178.5 669.78,-184.36"/>
</a>
</g>
</g>
<!-- Node27&#45;&gt;Node25 -->
<g id="edge40_Node000027_Node000025" class="edge">
<title>Node27&#45;&gt;Node25</title>
<g id="a_edge40_Node000027_Node000025"><a xlink:title=" ">
<path fill="none" stroke="#63b8ff" d="M626.17,-185.49C559.7,-175.54 458.83,-160.44 396.03,-151.04"/>
<polygon fill="#63b8ff" stroke="#63b8ff" points="625.72,-188.97 636.12,-186.98 626.75,-182.04 625.72,-188.97"/>
</a>
</g>
</g>
<!-- Node28 -->
<g id="Node000028" class="node">
<title>Node28</title>
<g id="a_Node000028"><a xlink:href="SceneSerializer_8h.html" target="_top" xlink:title=" ">
<polygon fill="white" stroke="#666666" points="940.5,-151 755.5,-151 755.5,-132 940.5,-132 940.5,-151"/>
<text text-anchor="middle" x="848" y="-139" font-family="Helvetica,sans-Serif" font-size="10.00">src/graphics/core/SceneSerializer.h</text>
</a>
</g>
</g>
<!-- Node27&#45;&gt;Node28 -->
<g id="edge34_Node000027_Node000028" class="edge">
<title>Node27&#45;&gt;Node28</title>
<g id="a_edge34_Node000027_Node000028"><a xlink:title=" ">
<path fill="none" stroke="#63b8ff" d="M727.6,-183.67C756.5,-173.79 797.03,-159.93 822.9,-151.08"/>
<polygon fill="#63b8ff" stroke="#63b8ff" points="726.23,-180.44 717.9,-186.98 728.5,-187.06 726.23,-180.44"/>
</a>
</g>
</g>
<!-- Node29 -->
<g id="Node000029" class="node">
<title>Node29</title>
<g id="a_Node000029"><a xlink:href="MainWindow_8h.html" target="_top" xlink:title=" ">
<polygon fill="white" stroke="#666666" points="545.5,-151 428.5,-151 428.5,-132 545.5,-132 545.5,-151"/>
<text text-anchor="middle" x="487" y="-139" font-family="Helvetica,sans-Serif" font-size="10.00">src/ui/MainWindow.h</text>
</a>
</g>
</g>
<!-- Node27&#45;&gt;Node29 -->
<g id="edge37_Node000027_Node000029" class="edge">
<title>Node27&#45;&gt;Node29</title>
<g id="a_edge37_Node000027_Node000029"><a xlink:title=" ">
<path fill="none" stroke="#63b8ff" d="M650,-184.44C611.44,-174.52 555.64,-160.16 520.36,-151.08"/>
<polygon fill="#63b8ff" stroke="#63b8ff" points="649.35,-187.88 659.9,-186.98 651.09,-181.1 649.35,-187.88"/>
</a>
</g>
</g>
<!-- Node28&#45;&gt;Node11 -->
<g id="edge35_Node000028_Node000011" class="edge">
<title>Node28&#45;&gt;Node11</title>
<g id="a_edge35_Node000028_Node000011"><a xlink:title=" ">
<path fill="none" stroke="#63b8ff" d="M861.86,-123.95C870.93,-113.12 882.42,-99.41 889.74,-90.67"/>
<polygon fill="#63b8ff" stroke="#63b8ff" points="858.97,-121.95 855.23,-131.87 864.33,-126.45 858.97,-121.95"/>
</a>
</g>
</g>
<!-- Node28&#45;&gt;Node13 -->
<g id="edge36_Node000028_Node000013" class="edge">
<title>Node28&#45;&gt;Node13</title>
<g id="a_edge36_Node000028_Node000013"><a xlink:title=" ">
<path fill="none" stroke="#63b8ff" d="M896.01,-129.82C946.8,-118.52 1025.94,-100.92 1072.71,-90.52"/>
<polygon fill="#63b8ff" stroke="#63b8ff" points="895.24,-126.41 886.24,-131.99 896.76,-133.24 895.24,-126.41"/>
</a>
</g>
</g>
<!-- Node29&#45;&gt;Node16 -->
<g id="edge39_Node000029_Node000016" class="edge">
<title>Node29&#45;&gt;Node16</title>
<g id="a_edge39_Node000029_Node000016"><a xlink:title=" ">
<path fill="none" stroke="#63b8ff" d="M442.76,-128.41C425.27,-121.55 406.42,-111.21 394,-96 376.62,-74.71 374.06,-40.35 373.87,-24.51"/>
<polygon fill="#63b8ff" stroke="#63b8ff" points="441.69,-131.75 452.29,-131.87 444.08,-125.17 441.69,-131.75"/>
</a>
</g>
</g>
<!-- Node29&#45;&gt;Node30 -->
<g id="edge38_Node000029_Node000030" class="edge">
<title>Node29&#45;&gt;Node30</title>
<g id="a_edge38_Node000029_Node000030"><a xlink:title=" ">
<path fill="none" stroke="#63b8ff" d="M446.12,-129.32C404.73,-118.01 341.65,-100.77 304.15,-90.52"/>
<polygon fill="#63b8ff" stroke="#63b8ff" points="445.31,-132.73 455.88,-131.99 447.16,-125.98 445.31,-132.73"/>
</a>
</g>
</g>
</g>
</svg>

<g id="navigator" transform="translate(0 0)" fill="#404254">
  <rect fill="#f2f5e9" fill-opacity="0.5" stroke="#606060" stroke-width=".5" x="0" y="0" width="60" height="60"/>
  <use id="zoomplus" xlink:href="#zoomPlus" x="17" y="9" onmousedown="handleZoom(evt,'in')"/>
  <use id="zoomminus" xlink:href="#zoomMin" x="42" y="9" onmousedown="handleZoom(evt,'out')"/>
  <use id="reset" xlink:href="#resetDef" x="30" y="36" onmousedown="handleReset()"/>
   <use id="arrowup" xlink:href="#arrowUp" x="0" y="0" onmousedown="handlePan(0,-1)"/>
  <use id="arrowright" xlink:href="#arrowRight" x="0" y="0" onmousedown="handlePan(1,0)"/>
  <use id="arrowdown" xlink:href="#arrowDown" x="0" y="0" onmousedown="handlePan(0,1)"/>
  <use id="arrowleft" xlink:href="#arrowLeft" x="0" y="0" onmousedown="handlePan(-1,0)"/>
</g>
<svg viewBox="0 0 15 15" width="100%" height="30px" preserveAspectRatio="xMaxYMin meet">
 <g id="arrow_out" transform="scale(0.3 0.3)">
  <a xlink:href="ProblemRouter_8h__dep__incl_org.svg" target="_base">
   <rect id="button" ry="5" rx="5" y="6" x="6" height="38" width="38"
        fill="#f2f5e9" fill-opacity="0.5" stroke="#606060" stroke-width="1.0"/>
   <path id="arrow"
     d="M 11.500037,31.436501 C 11.940474,20.09759 22.043105,11.32322 32.158766,21.979434 L 37.068811,17.246167 C 37.068811,17.246167 37.088388,32 37.088388,32 L 22.160133,31.978069 C 22.160133,31.978069 26.997745,27.140456 26.997745,27.140456 C 18.528582,18.264221 13.291696,25.230495 11.500037,31.436501 z"
     style="fill:#404040;"/>
  </a>
 </g>
</svg>

<style type='text/css'>
<![CDATA[
[data-mouse-over-selected='false'] { opacity: 0.7; }
[data-mouse-over-selected='true']  { opacity: 1.0; }
]]>
</style>
<script type="application/ecmascript"><![CDATA[
document.addEventListener('DOMContentLoaded', (event) => {
  highlightEdges();
  highlightAdjacentNodes();
});
]]></script>
</svg>
