<?xml version="1.0" encoding="UTF-8" standalone="no"?>
<!DOCTYPE svg PUBLIC "-//W3C//DTD SVG 1.1//EN"
 "http://www.w3.org/Graphics/SVG/1.1/DTD/svg11.dtd">
<!-- Generated by graphviz version 2.43.0 (0)
 -->
<!-- Title: src/ui/RawInputFilter.cpp Pages: 1 -->
<svg width="555pt" height="137pt"
 viewBox="0.00 0.00 554.50 137.00" xmlns="http://www.w3.org/2000/svg" xmlns:xlink="http://www.w3.org/1999/xlink">
<g id="graph0" class="graph" transform="scale(1 1) rotate(0) translate(4 133)">
<title>src/ui/RawInputFilter.cpp</title>
<!-- Node1 -->
<g id="Node000001" class="node">
<title>Node1</title>
<g id="a_Node000001"><a xlink:title=" ">
<polygon fill="#999999" stroke="#666666" points="423.5,-129 287.5,-129 287.5,-110 423.5,-110 423.5,-129"/>
<text text-anchor="middle" x="355.5" y="-117" font-family="Helvetica,sans-Serif" font-size="10.00">src/ui/RawInputFilter.cpp</text>
</a>
</g>
</g>
<!-- Node2 -->
<g id="Node000002" class="node">
<title>Node2</title>
<g id="a_Node000002"><a xlink:href="RawInputFilter_8h.html" target="_top" xlink:title=" ">
<polygon fill="white" stroke="#666666" points="250,-74 155,-74 155,-55 250,-55 250,-74"/>
<text text-anchor="middle" x="202.5" y="-62" font-family="Helvetica,sans-Serif" font-size="10.00">RawInputFilter.h</text>
</a>
</g>
</g>
<!-- Node1&#45;&gt;Node2 -->
<g id="edge1_Node000001_Node000002" class="edge">
<title>Node1&#45;&gt;Node2</title>
<g id="a_edge1_Node000001_Node000002"><a xlink:title=" ">
<path fill="none" stroke="#63b8ff" d="M330.92,-109.98C305.45,-101.16 265.46,-87.31 236.87,-77.41"/>
<polygon fill="#63b8ff" stroke="#63b8ff" points="237.87,-74.05 227.27,-74.08 235.58,-80.66 237.87,-74.05"/>
</a>
</g>
</g>
<!-- Node4 -->
<g id="Node000004" class="node">
<title>Node4</title>
<g id="a_Node000004"><a xlink:title=" ">
<polygon fill="#e0e0e0" stroke="#999999" points="313,-19 250,-19 250,0 313,0 313,-19"/>
<text text-anchor="middle" x="281.5" y="-7" font-family="Helvetica,sans-Serif" font-size="10.00">QWindow</text>
</a>
</g>
</g>
<!-- Node1&#45;&gt;Node4 -->
<g id="edge6_Node000001_Node000004" class="edge">
<title>Node1&#45;&gt;Node4</title>
<g id="a_edge6_Node000001_Node000004"><a xlink:title=" ">
<path fill="none" stroke="#63b8ff" d="M339.96,-109.9C327.28,-102.11 309.83,-89.5 299.5,-74 290.56,-60.59 286.01,-42.75 283.73,-29.4"/>
<polygon fill="#63b8ff" stroke="#63b8ff" points="287.18,-28.83 282.29,-19.43 280.25,-29.83 287.18,-28.83"/>
</a>
</g>
</g>
<!-- Node6 -->
<g id="Node000006" class="node">
<title>Node6</title>
<g id="a_Node000006"><a xlink:title=" ">
<polygon fill="#e0e0e0" stroke="#999999" points="403,-74 308,-74 308,-55 403,-55 403,-74"/>
<text text-anchor="middle" x="355.5" y="-62" font-family="Helvetica,sans-Serif" font-size="10.00">QGuiApplication</text>
</a>
</g>
</g>
<!-- Node1&#45;&gt;Node6 -->
<g id="edge5_Node000001_Node000006" class="edge">
<title>Node1&#45;&gt;Node6</title>
<g id="a_edge5_Node000001_Node000006"><a xlink:title=" ">
<path fill="none" stroke="#63b8ff" d="M355.5,-109.75C355.5,-102.8 355.5,-92.85 355.5,-84.13"/>
<polygon fill="#63b8ff" stroke="#63b8ff" points="359,-84.09 355.5,-74.09 352,-84.09 359,-84.09"/>
</a>
</g>
</g>
<!-- Node7 -->
<g id="Node000007" class="node">
<title>Node7</title>
<g id="a_Node000007"><a xlink:title=" ">
<polygon fill="#e0e0e0" stroke="#999999" points="468,-74 421,-74 421,-55 468,-55 468,-74"/>
<text text-anchor="middle" x="444.5" y="-62" font-family="Helvetica,sans-Serif" font-size="10.00">vector</text>
</a>
</g>
</g>
<!-- Node1&#45;&gt;Node7 -->
<g id="edge7_Node000001_Node000007" class="edge">
<title>Node1&#45;&gt;Node7</title>
<g id="a_edge7_Node000001_Node000007"><a xlink:title=" ">
<path fill="none" stroke="#63b8ff" d="M369.8,-109.98C383.6,-101.77 404.74,-89.18 421.01,-79.49"/>
<polygon fill="#63b8ff" stroke="#63b8ff" points="423.14,-82.29 429.94,-74.17 419.56,-76.28 423.14,-82.29"/>
</a>
</g>
</g>
<!-- Node8 -->
<g id="Node000008" class="node">
<title>Node8</title>
<g id="a_Node000008"><a xlink:title=" ">
<polygon fill="#e0e0e0" stroke="#999999" points="546.5,-74 486.5,-74 486.5,-55 546.5,-55 546.5,-74"/>
<text text-anchor="middle" x="516.5" y="-62" font-family="Helvetica,sans-Serif" font-size="10.00">iostream</text>
</a>
</g>
</g>
<!-- Node1&#45;&gt;Node8 -->
<g id="edge8_Node000001_Node000008" class="edge">
<title>Node1&#45;&gt;Node8</title>
<g id="a_edge8_Node000001_Node000008"><a xlink:title=" ">
<path fill="none" stroke="#63b8ff" d="M381.37,-109.98C408.28,-101.13 450.62,-87.19 480.73,-77.28"/>
<polygon fill="#63b8ff" stroke="#63b8ff" points="482.03,-80.53 490.43,-74.08 479.84,-73.88 482.03,-80.53"/>
</a>
</g>
</g>
<!-- Node3 -->
<g id="Node000003" class="node">
<title>Node3</title>
<g id="a_Node000003"><a xlink:title=" ">
<polygon fill="#e0e0e0" stroke="#999999" points="149,-19 0,-19 0,0 149,0 149,-19"/>
<text text-anchor="middle" x="74.5" y="-7" font-family="Helvetica,sans-Serif" font-size="10.00">QAbstractNativeEventFilter</text>
</a>
</g>
</g>
<!-- Node2&#45;&gt;Node3 -->
<g id="edge2_Node000002_Node000003" class="edge">
<title>Node2&#45;&gt;Node3</title>
<g id="a_edge2_Node000002_Node000003"><a xlink:title=" ">
<path fill="none" stroke="#63b8ff" d="M181.93,-54.98C161.07,-46.34 128.53,-32.87 104.73,-23.02"/>
<polygon fill="#63b8ff" stroke="#63b8ff" points="106.02,-19.76 95.44,-19.17 103.34,-26.23 106.02,-19.76"/>
</a>
</g>
</g>
<!-- Node2&#45;&gt;Node4 -->
<g id="edge3_Node000002_Node000004" class="edge">
<title>Node2&#45;&gt;Node4</title>
<g id="a_edge3_Node000002_Node000004"><a xlink:title=" ">
<path fill="none" stroke="#63b8ff" d="M215.19,-54.98C227.33,-46.84 245.86,-34.41 260.25,-24.76"/>
<polygon fill="#63b8ff" stroke="#63b8ff" points="262.22,-27.65 268.58,-19.17 258.32,-21.84 262.22,-27.65"/>
</a>
</g>
</g>
<!-- Node5 -->
<g id="Node000005" class="node">
<title>Node5</title>
<g id="a_Node000005"><a xlink:title=" ">
<polygon fill="#e0e0e0" stroke="#999999" points="232,-19 167,-19 167,0 232,0 232,-19"/>
<text text-anchor="middle" x="199.5" y="-7" font-family="Helvetica,sans-Serif" font-size="10.00">functional</text>
</a>
</g>
</g>
<!-- Node2&#45;&gt;Node5 -->
<g id="edge4_Node000002_Node000005" class="edge">
<title>Node2&#45;&gt;Node5</title>
<g id="a_edge4_Node000002_Node000005"><a xlink:title=" ">
<path fill="none" stroke="#63b8ff" d="M202,-54.75C201.61,-47.8 201.05,-37.85 200.55,-29.13"/>
<polygon fill="#63b8ff" stroke="#63b8ff" points="204.05,-28.88 199.99,-19.09 197.06,-29.27 204.05,-28.88"/>
</a>
</g>
</g>
</g>
</svg>
