<?xml version="1.0" encoding="UTF-8" standalone="no"?>
<!DOCTYPE svg PUBLIC "-//W3C//DTD SVG 1.1//EN"
 "http://www.w3.org/Graphics/SVG/1.1/DTD/svg11.dtd">
<!-- Generated by graphviz version 2.43.0 (0)
 -->
<!-- Title: src/graphics/core/ResourceManager.h Pages: 1 -->
<svg width="3171pt" height="291pt"
 viewBox="0.00 0.00 3170.87 291.00" xmlns="http://www.w3.org/2000/svg" xmlns:xlink="http://www.w3.org/1999/xlink">
<g id="graph0" class="graph" transform="scale(1 1) rotate(0) translate(4 287)">
<title>src/graphics/core/ResourceManager.h</title>
<!-- Node1 -->
<g id="Node000001" class="node">
<title>Node1</title>
<g id="a_Node000001"><a xlink:title=" ">
<polygon fill="#999999" stroke="#666666" points="803.5,-283 656.5,-283 656.5,-253 803.5,-253 803.5,-283"/>
<text text-anchor="start" x="664.5" y="-271" font-family="Helvetica,sans-Serif" font-size="10.00">src/graphics/core/Resource</text>
<text text-anchor="middle" x="730" y="-260" font-family="Helvetica,sans-Serif" font-size="10.00">Manager.h</text>
</a>
</g>
</g>
<!-- Node2 -->
<g id="Node000002" class="node">
<title>Node2</title>
<g id="a_Node000002"><a xlink:href="Gizmo_8cpp.html" target="_top" xlink:title=" ">
<polygon fill="white" stroke="#666666" points="566,-30 428,-30 428,0 566,0 566,-30"/>
<text text-anchor="start" x="436" y="-18" font-family="Helvetica,sans-Serif" font-size="10.00">src/graphics/components</text>
<text text-anchor="middle" x="497" y="-7" font-family="Helvetica,sans-Serif" font-size="10.00">/Gizmo.cpp</text>
</a>
</g>
</g>
<!-- Node1&#45;&gt;Node2 -->
<g id="edge1_Node000001_Node000002" class="edge">
<title>Node1&#45;&gt;Node2</title>
<g id="a_edge1_Node000001_Node000002"><a xlink:title=" ">
<path fill="none" stroke="#63b8ff" d="M646.4,-260.45C473.92,-244.93 88.7,-199.2 17,-96 9.39,-85.05 8.07,-75.9 17,-66 43.96,-36.09 301.13,-22.9 427.54,-18.19"/>
<polygon fill="#63b8ff" stroke="#63b8ff" points="646.18,-263.95 656.45,-261.34 646.8,-256.97 646.18,-263.95"/>
</a>
</g>
</g>
<!-- Node3 -->
<g id="Node000003" class="node">
<title>Node3</title>
<g id="a_Node000003"><a xlink:href="RotateHandle_8cpp.html" target="_top" xlink:title=" ">
<polygon fill="white" stroke="#666666" points="174,-96 36,-96 36,-66 174,-66 174,-96"/>
<text text-anchor="start" x="44" y="-84" font-family="Helvetica,sans-Serif" font-size="10.00">src/graphics/components</text>
<text text-anchor="middle" x="105" y="-73" font-family="Helvetica,sans-Serif" font-size="10.00">/RotateHandle.cpp</text>
</a>
</g>
</g>
<!-- Node1&#45;&gt;Node3 -->
<g id="edge2_Node000001_Node000003" class="edge">
<title>Node1&#45;&gt;Node3</title>
<g id="a_edge2_Node000001_Node000003"><a xlink:title=" ">
<path fill="none" stroke="#63b8ff" d="M646.19,-258.15C585.62,-250.51 502.26,-237.43 431,-217 316.76,-184.25 188.45,-123.61 133,-96.16"/>
<polygon fill="#63b8ff" stroke="#63b8ff" points="646.12,-261.67 656.47,-259.42 646.97,-254.72 646.12,-261.67"/>
</a>
</g>
</g>
<!-- Node4 -->
<g id="Node000004" class="node">
<title>Node4</title>
<g id="a_Node000004"><a xlink:href="ScaleHandle_8cpp.html" target="_top" xlink:title=" ">
<polygon fill="white" stroke="#666666" points="138,-30 0,-30 0,0 138,0 138,-30"/>
<text text-anchor="start" x="8" y="-18" font-family="Helvetica,sans-Serif" font-size="10.00">src/graphics/components</text>
<text text-anchor="middle" x="69" y="-7" font-family="Helvetica,sans-Serif" font-size="10.00">/ScaleHandle.cpp</text>
</a>
</g>
</g>
<!-- Node1&#45;&gt;Node4 -->
<g id="edge3_Node000001_Node000004" class="edge">
<title>Node1&#45;&gt;Node4</title>
<g id="a_edge3_Node000001_Node000004"><a xlink:title=" ">
<path fill="none" stroke="#63b8ff" d="M646.31,-267.86C540.18,-266.98 352.41,-258.8 198,-217 101,-190.74 42.77,-189.91 7,-96 2.25,-83.54 1.25,-78.03 7,-66 14.34,-50.66 28.94,-38.51 42.13,-30.04"/>
<polygon fill="#63b8ff" stroke="#63b8ff" points="646.3,-271.36 656.32,-267.92 646.34,-264.36 646.3,-271.36"/>
</a>
</g>
</g>
<!-- Node5 -->
<g id="Node000005" class="node">
<title>Node5</title>
<g id="a_Node000005"><a xlink:href="ResourceManager_8cpp.html" target="_top" xlink:title=" ">
<polygon fill="white" stroke="#666666" points="587.5,-217 440.5,-217 440.5,-187 587.5,-187 587.5,-217"/>
<text text-anchor="start" x="448.5" y="-205" font-family="Helvetica,sans-Serif" font-size="10.00">src/graphics/core/Resource</text>
<text text-anchor="middle" x="514" y="-194" font-family="Helvetica,sans-Serif" font-size="10.00">Manager.cpp</text>
</a>
</g>
</g>
<!-- Node1&#45;&gt;Node5 -->
<g id="edge4_Node000001_Node000005" class="edge">
<title>Node1&#45;&gt;Node5</title>
<g id="a_edge4_Node000001_Node000005"><a xlink:title=" ">
<path fill="none" stroke="#63b8ff" d="M672.59,-249.99C637.83,-239.69 594.05,-226.72 561.29,-217.01"/>
<polygon fill="#63b8ff" stroke="#63b8ff" points="672.02,-253.47 682.6,-252.95 674,-246.76 672.02,-253.47"/>
</a>
</g>
</g>
<!-- Node6 -->
<g id="Node000006" class="node">
<title>Node6</title>
<g id="a_Node000006"><a xlink:href="Scene_8cpp.html" target="_top" xlink:title=" ">
<polygon fill="white" stroke="#666666" points="344,-90.5 192,-90.5 192,-71.5 344,-71.5 344,-90.5"/>
<text text-anchor="middle" x="268" y="-78.5" font-family="Helvetica,sans-Serif" font-size="10.00">src/graphics/core/Scene.cpp</text>
</a>
</g>
</g>
<!-- Node1&#45;&gt;Node6 -->
<g id="edge5_Node000001_Node000006" class="edge">
<title>Node1&#45;&gt;Node6</title>
<g id="a_edge5_Node000001_Node000006"><a xlink:title=" ">
<path fill="none" stroke="#63b8ff" d="M701.06,-247.07C674.6,-229.51 633.94,-204.13 596,-187 493.55,-140.75 364.68,-105.8 303.45,-90.5"/>
<polygon fill="#63b8ff" stroke="#63b8ff" points="699.2,-250.04 709.46,-252.7 703.1,-244.23 699.2,-250.04"/>
</a>
</g>
</g>
<!-- Node7 -->
<g id="Node000007" class="node">
<title>Node7</title>
<g id="a_Node000007"><a xlink:href="SceneManager_8cpp.html" target="_top" xlink:title=" ">
<polygon fill="white" stroke="#666666" points="1144,-24.5 950,-24.5 950,-5.5 1144,-5.5 1144,-24.5"/>
<text text-anchor="middle" x="1047" y="-12.5" font-family="Helvetica,sans-Serif" font-size="10.00">src/graphics/core/SceneManager.cpp</text>
</a>
</g>
</g>
<!-- Node1&#45;&gt;Node7 -->
<g id="edge6_Node000001_Node000007" class="edge">
<title>Node1&#45;&gt;Node7</title>
<g id="a_edge6_Node000001_Node000007"><a xlink:title=" ">
<path fill="none" stroke="#63b8ff" d="M735.75,-243.21C747.29,-200.74 777.44,-112 837,-66 869.11,-41.2 911.61,-28.43 949.98,-21.96"/>
<polygon fill="#63b8ff" stroke="#63b8ff" points="732.34,-242.4 733.21,-252.96 739.12,-244.16 732.34,-242.4"/>
</a>
</g>
</g>
<!-- Node8 -->
<g id="Node000008" class="node">
<title>Node8</title>
<g id="a_Node000008"><a xlink:href="SceneManager_8h.html" target="_top" xlink:title=" ">
<polygon fill="white" stroke="#666666" points="2395,-211.5 2213,-211.5 2213,-192.5 2395,-192.5 2395,-211.5"/>
<text text-anchor="middle" x="2304" y="-199.5" font-family="Helvetica,sans-Serif" font-size="10.00">src/graphics/core/SceneManager.h</text>
</a>
</g>
</g>
<!-- Node1&#45;&gt;Node8 -->
<g id="edge7_Node000001_Node000008" class="edge">
<title>Node1&#45;&gt;Node8</title>
<g id="a_edge7_Node000001_Node000008"><a xlink:title=" ">
<path fill="none" stroke="#63b8ff" d="M813.68,-263.6C1083.96,-252.61 1932.24,-218.12 2212.86,-206.71"/>
<polygon fill="#63b8ff" stroke="#63b8ff" points="813.39,-260.11 803.54,-264.01 813.68,-267.1 813.39,-260.11"/>
</a>
</g>
</g>
<!-- Node9 -->
<g id="Node000009" class="node">
<title>Node9</title>
<g id="a_Node000009"><a xlink:href="SceneObject_8cpp.html" target="_top" xlink:title=" ">
<polygon fill="white" stroke="#666666" points="545.5,-90.5 362.5,-90.5 362.5,-71.5 545.5,-71.5 545.5,-90.5"/>
<text text-anchor="middle" x="454" y="-78.5" font-family="Helvetica,sans-Serif" font-size="10.00">src/graphics/core/SceneObject.cpp</text>
</a>
</g>
</g>
<!-- Node1&#45;&gt;Node9 -->
<g id="edge50_Node000001_Node000009" class="edge">
<title>Node1&#45;&gt;Node9</title>
<g id="a_edge50_Node000001_Node000009"><a xlink:title=" ">
<path fill="none" stroke="#63b8ff" d="M718.92,-243.75C703.32,-213.49 672,-161.04 630,-132 598,-109.87 556.32,-97.47 521.56,-90.55"/>
<polygon fill="#63b8ff" stroke="#63b8ff" points="715.82,-245.37 723.43,-252.74 722.08,-242.24 715.82,-245.37"/>
</a>
</g>
</g>
<!-- Node14 -->
<g id="Node000014" class="node">
<title>Node14</title>
<g id="a_Node000014"><a xlink:href="SceneSerializer_8cpp.html" target="_top" xlink:title=" ">
<polygon fill="white" stroke="#666666" points="2744.5,-90.5 2547.5,-90.5 2547.5,-71.5 2744.5,-71.5 2744.5,-90.5"/>
<text text-anchor="middle" x="2646" y="-78.5" font-family="Helvetica,sans-Serif" font-size="10.00">src/graphics/core/SceneSerializer.cpp</text>
</a>
</g>
</g>
<!-- Node1&#45;&gt;Node14 -->
<g id="edge51_Node000001_Node000014" class="edge">
<title>Node1&#45;&gt;Node14</title>
<g id="a_edge51_Node000001_Node000014"><a xlink:title=" ">
<path fill="none" stroke="#63b8ff" d="M814.13,-267.52C1111.74,-268.89 2113.87,-269.41 2430,-217 2528.19,-200.72 2583.74,-230.22 2644,-151 2657.5,-133.26 2652.44,-104.87 2648.66,-90.68"/>
<polygon fill="#63b8ff" stroke="#63b8ff" points="813.86,-264.02 803.84,-267.47 813.82,-271.02 813.86,-264.02"/>
</a>
</g>
</g>
<!-- Node15 -->
<g id="Node000015" class="node">
<title>Node15</title>
<g id="a_Node000015"><a xlink:href="Colliders_8cpp.html" target="_top" xlink:title=" ">
<polygon fill="white" stroke="#666666" points="2529,-96 2421,-96 2421,-66 2529,-66 2529,-96"/>
<text text-anchor="start" x="2429" y="-84" font-family="Helvetica,sans-Serif" font-size="10.00">src/graphics/debug</text>
<text text-anchor="middle" x="2475" y="-73" font-family="Helvetica,sans-Serif" font-size="10.00">/Colliders.cpp</text>
</a>
</g>
</g>
<!-- Node1&#45;&gt;Node15 -->
<g id="edge52_Node000001_Node000015" class="edge">
<title>Node1&#45;&gt;Node15</title>
<g id="a_edge52_Node000001_Node000015"><a xlink:title=" ">
<path fill="none" stroke="#63b8ff" d="M814.18,-266.97C1144.55,-266.55 2337.66,-261.91 2404,-217 2438.12,-193.9 2421.11,-168.08 2441,-132 2447.89,-119.5 2457.06,-106.17 2464.14,-96.42"/>
<polygon fill="#63b8ff" stroke="#63b8ff" points="813.72,-263.47 803.73,-266.99 813.73,-270.47 813.72,-263.47"/>
</a>
</g>
</g>
<!-- Node17 -->
<g id="Node000017" class="node">
<title>Node17</title>
<g id="a_Node000017"><a xlink:href="Forces_8cpp.html" target="_top" xlink:title=" ">
<polygon fill="white" stroke="#666666" points="2957,-30 2849,-30 2849,0 2957,0 2957,-30"/>
<text text-anchor="start" x="2857" y="-18" font-family="Helvetica,sans-Serif" font-size="10.00">src/graphics/debug</text>
<text text-anchor="middle" x="2903" y="-7" font-family="Helvetica,sans-Serif" font-size="10.00">/Forces.cpp</text>
</a>
</g>
</g>
<!-- Node1&#45;&gt;Node17 -->
<g id="edge53_Node000001_Node000017" class="edge">
<title>Node1&#45;&gt;Node17</title>
<g id="a_edge53_Node000001_Node000017"><a xlink:title=" ">
<path fill="none" stroke="#63b8ff" d="M813.88,-266.72C1148.66,-265.34 2390.03,-257.55 2781,-217 2941.93,-200.31 3035.48,-275.34 3139,-151 3168.18,-115.95 3018.82,-56.89 2943.85,-30.04"/>
<polygon fill="#63b8ff" stroke="#63b8ff" points="813.75,-263.22 803.76,-266.76 813.78,-270.22 813.75,-263.22"/>
</a>
</g>
</g>
<!-- Node19 -->
<g id="Node000019" class="node">
<title>Node19</title>
<g id="a_Node000019"><a xlink:href="PathTraces_8cpp.html" target="_top" xlink:title=" ">
<polygon fill="white" stroke="#666666" points="3083,-30 2975,-30 2975,0 3083,0 3083,-30"/>
<text text-anchor="start" x="2983" y="-18" font-family="Helvetica,sans-Serif" font-size="10.00">src/graphics/debug</text>
<text text-anchor="middle" x="3029" y="-7" font-family="Helvetica,sans-Serif" font-size="10.00">/PathTraces.cpp</text>
</a>
</g>
</g>
<!-- Node1&#45;&gt;Node19 -->
<g id="edge54_Node000001_Node000019" class="edge">
<title>Node1&#45;&gt;Node19</title>
<g id="a_edge54_Node000001_Node000019"><a xlink:title=" ">
<path fill="none" stroke="#63b8ff" d="M813.61,-266.59C1192.78,-264.54 2741.42,-253.96 2955,-217 3046.82,-201.11 3099.46,-226.55 3154,-151 3188.68,-102.96 3107.47,-53.66 3060.11,-30.15"/>
<polygon fill="#63b8ff" stroke="#63b8ff" points="813.52,-263.09 803.54,-266.65 813.56,-270.09 813.52,-263.09"/>
</a>
</g>
</g>
<!-- Node31 -->
<g id="Node000031" class="node">
<title>Node31</title>
<g id="a_Node000031"><a xlink:href="OpenGLWindow_8cpp.html" target="_top" xlink:title=" ">
<polygon fill="white" stroke="#666666" points="3130,-151 2988,-151 2988,-132 3130,-132 3130,-151"/>
<text text-anchor="middle" x="3059" y="-139" font-family="Helvetica,sans-Serif" font-size="10.00">src/ui/OpenGLWindow.cpp</text>
</a>
</g>
</g>
<!-- Node1&#45;&gt;Node31 -->
<g id="edge55_Node000001_Node000031" class="edge">
<title>Node1&#45;&gt;Node31</title>
<g id="a_edge55_Node000001_Node000031"><a xlink:title=" ">
<path fill="none" stroke="#63b8ff" d="M813.9,-266.71C1137.89,-265.3 2307.71,-257.47 2677,-217 2807.14,-202.74 2959.1,-167.39 3025.31,-151.04"/>
<polygon fill="#63b8ff" stroke="#63b8ff" points="813.63,-263.21 803.64,-266.75 813.66,-270.21 813.63,-263.21"/>
</a>
</g>
</g>
<!-- Node8&#45;&gt;Node2 -->
<g id="edge8_Node000008_Node000002" class="edge">
<title>Node8&#45;&gt;Node2</title>
<g id="a_edge8_Node000008_Node000002"><a xlink:title=" ">
<path fill="none" stroke="#63b8ff" d="M2202.53,-200.25C1770.33,-196.58 101.52,-177.17 27,-96 17.98,-86.18 18.08,-75.91 27,-66 53.27,-36.79 303.24,-23.3 427.53,-18.36"/>
<polygon fill="#63b8ff" stroke="#63b8ff" points="2202.79,-203.76 2212.82,-200.34 2202.85,-196.76 2202.79,-203.76"/>
</a>
</g>
</g>
<!-- Node8&#45;&gt;Node7 -->
<g id="edge9_Node000008_Node000007" class="edge">
<title>Node8&#45;&gt;Node7</title>
<g id="a_edge9_Node000008_Node000007"><a xlink:title=" ">
<path fill="none" stroke="#63b8ff" d="M2202.87,-201.61C1887.86,-202.43 939.92,-196.49 850,-96 813.02,-54.67 887.3,-34.3 954.99,-24.52"/>
<polygon fill="#63b8ff" stroke="#63b8ff" points="2202.91,-205.11 2212.9,-201.58 2202.89,-198.11 2202.91,-205.11"/>
</a>
</g>
</g>
<!-- Node8&#45;&gt;Node9 -->
<g id="edge10_Node000008_Node000009" class="edge">
<title>Node8&#45;&gt;Node9</title>
<g id="a_edge10_Node000008_Node000009"><a xlink:title=" ">
<path fill="none" stroke="#63b8ff" d="M2202.48,-200.29C1904.46,-197.81 1035.43,-187.55 754,-151 740.83,-149.29 567.29,-108.65 490.32,-90.55"/>
<polygon fill="#63b8ff" stroke="#63b8ff" points="2202.81,-203.8 2212.83,-200.38 2202.86,-196.8 2202.81,-203.8"/>
</a>
</g>
</g>
<!-- Node10 -->
<g id="Node000010" class="node">
<title>Node10</title>
<g id="a_Node000010"><a xlink:href="SceneObject_8h.html" target="_top" xlink:title=" ">
<polygon fill="white" stroke="#666666" points="1525,-151 1353,-151 1353,-132 1525,-132 1525,-151"/>
<text text-anchor="middle" x="1439" y="-139" font-family="Helvetica,sans-Serif" font-size="10.00">src/graphics/core/SceneObject.h</text>
</a>
</g>
</g>
<!-- Node8&#45;&gt;Node10 -->
<g id="edge11_Node000008_Node000010" class="edge">
<title>Node8&#45;&gt;Node10</title>
<g id="a_edge11_Node000008_Node000010"><a xlink:title=" ">
<path fill="none" stroke="#63b8ff" d="M2202.6,-194.14C2030.88,-182.53 1685.84,-159.19 1525.09,-148.32"/>
<polygon fill="#63b8ff" stroke="#63b8ff" points="2202.44,-197.64 2212.66,-194.82 2202.92,-190.66 2202.44,-197.64"/>
</a>
</g>
</g>
<!-- Node8&#45;&gt;Node15 -->
<g id="edge41_Node000008_Node000015" class="edge">
<title>Node8&#45;&gt;Node15</title>
<g id="a_edge41_Node000008_Node000015"><a xlink:title=" ">
<path fill="none" stroke="#63b8ff" d="M2324.75,-186.56C2357.85,-163.52 2422.18,-118.76 2454.88,-96"/>
<polygon fill="#63b8ff" stroke="#63b8ff" points="2322.51,-183.86 2316.3,-192.44 2326.51,-189.6 2322.51,-183.86"/>
</a>
</g>
</g>
<!-- Node8&#45;&gt;Node17 -->
<g id="edge42_Node000008_Node000017" class="edge">
<title>Node8&#45;&gt;Node17</title>
<g id="a_edge42_Node000008_Node000017"><a xlink:title=" ">
<path fill="none" stroke="#63b8ff" d="M2405.65,-196.23C2559.45,-188.41 2837.85,-171.64 2879,-151 2908.26,-136.32 2916.35,-126.59 2928,-96 2936.65,-73.29 2923.37,-46.17 2913.1,-30.05"/>
<polygon fill="#63b8ff" stroke="#63b8ff" points="2405.06,-192.76 2395.25,-196.76 2405.41,-199.75 2405.06,-192.76"/>
</a>
</g>
</g>
<!-- Node8&#45;&gt;Node19 -->
<g id="edge43_Node000008_Node000019" class="edge">
<title>Node8&#45;&gt;Node19</title>
<g id="a_edge43_Node000008_Node000019"><a xlink:title=" ">
<path fill="none" stroke="#63b8ff" d="M2405.62,-196.65C2565.78,-189.18 2863.29,-172.62 2907,-151 2962.5,-123.55 3004.53,-59 3021.18,-30.25"/>
<polygon fill="#63b8ff" stroke="#63b8ff" points="2405.1,-193.17 2395.28,-197.13 2405.43,-200.16 2405.1,-193.17"/>
</a>
</g>
</g>
<!-- Node24 -->
<g id="Node000024" class="node">
<title>Node24</title>
<g id="a_Node000024"><a xlink:href="GlobalsInspectorWidget_8cpp.html" target="_top" xlink:title=" ">
<polygon fill="white" stroke="#666666" points="2245.5,-96 2114.5,-96 2114.5,-66 2245.5,-66 2245.5,-96"/>
<text text-anchor="start" x="2122.5" y="-84" font-family="Helvetica,sans-Serif" font-size="10.00">src/ui/inspector/Globals</text>
<text text-anchor="middle" x="2180" y="-73" font-family="Helvetica,sans-Serif" font-size="10.00">InspectorWidget.cpp</text>
</a>
</g>
</g>
<!-- Node8&#45;&gt;Node24 -->
<g id="edge48_Node000008_Node000024" class="edge">
<title>Node8&#45;&gt;Node24</title>
<g id="a_edge48_Node000008_Node000024"><a xlink:title=" ">
<path fill="none" stroke="#63b8ff" d="M2287.72,-185.38C2263.46,-162.09 2218.17,-118.63 2194.8,-96.2"/>
<polygon fill="#63b8ff" stroke="#63b8ff" points="2285.44,-188.04 2295.08,-192.44 2290.29,-182.99 2285.44,-188.04"/>
</a>
</g>
</g>
<!-- Node25 -->
<g id="Node000025" class="node">
<title>Node25</title>
<g id="a_Node000025"><a xlink:href="InspectorWidget_8cpp.html" target="_top" xlink:title=" ">
<polygon fill="white" stroke="#666666" points="2402.5,-96 2263.5,-96 2263.5,-66 2402.5,-66 2402.5,-96"/>
<text text-anchor="start" x="2271.5" y="-84" font-family="Helvetica,sans-Serif" font-size="10.00">src/ui/inspector/Inspector</text>
<text text-anchor="middle" x="2333" y="-73" font-family="Helvetica,sans-Serif" font-size="10.00">Widget.cpp</text>
</a>
</g>
</g>
<!-- Node8&#45;&gt;Node25 -->
<g id="edge49_Node000008_Node000025" class="edge">
<title>Node8&#45;&gt;Node25</title>
<g id="a_edge49_Node000008_Node000025"><a xlink:title=" ">
<path fill="none" stroke="#63b8ff" d="M2308.49,-182.56C2314.3,-158.73 2324.29,-117.75 2329.54,-96.2"/>
<polygon fill="#63b8ff" stroke="#63b8ff" points="2305.05,-181.9 2306.09,-192.44 2311.85,-183.55 2305.05,-181.9"/>
</a>
</g>
</g>
<!-- Node28 -->
<g id="Node000028" class="node">
<title>Node28</title>
<g id="a_Node000028"><a xlink:href="SceneSerializer_8h.html" target="_top" xlink:title=" ">
<polygon fill="white" stroke="#666666" points="2635.5,-151 2450.5,-151 2450.5,-132 2635.5,-132 2635.5,-151"/>
<text text-anchor="middle" x="2543" y="-139" font-family="Helvetica,sans-Serif" font-size="10.00">src/graphics/core/SceneSerializer.h</text>
</a>
</g>
</g>
<!-- Node8&#45;&gt;Node28 -->
<g id="edge38_Node000008_Node000028" class="edge">
<title>Node8&#45;&gt;Node28</title>
<g id="a_edge38_Node000008_Node000028"><a xlink:title=" ">
<path fill="none" stroke="#63b8ff" d="M2348.49,-190.11C2394.68,-178.8 2465.97,-161.35 2508.21,-151.02"/>
<polygon fill="#63b8ff" stroke="#63b8ff" points="2347.63,-186.72 2338.75,-192.49 2349.3,-193.52 2347.63,-186.72"/>
</a>
</g>
</g>
<!-- Node29 -->
<g id="Node000029" class="node">
<title>Node29</title>
<g id="a_Node000029"><a xlink:href="MainWindow_8h.html" target="_top" xlink:title=" ">
<polygon fill="white" stroke="#666666" points="2869.5,-151 2752.5,-151 2752.5,-132 2869.5,-132 2869.5,-151"/>
<text text-anchor="middle" x="2811" y="-139" font-family="Helvetica,sans-Serif" font-size="10.00">src/ui/MainWindow.h</text>
</a>
</g>
</g>
<!-- Node8&#45;&gt;Node29 -->
<g id="edge44_Node000008_Node000029" class="edge">
<title>Node8&#45;&gt;Node29</title>
<g id="a_edge44_Node000008_Node000029"><a xlink:title=" ">
<path fill="none" stroke="#63b8ff" d="M2387.76,-191.34C2490.6,-179.47 2662.37,-159.65 2752.2,-149.28"/>
<polygon fill="#63b8ff" stroke="#63b8ff" points="2387.26,-187.87 2377.72,-192.49 2388.06,-194.82 2387.26,-187.87"/>
</a>
</g>
</g>
<!-- Node8&#45;&gt;Node31 -->
<g id="edge47_Node000008_Node000031" class="edge">
<title>Node8&#45;&gt;Node31</title>
<g id="a_edge47_Node000008_Node000031"><a xlink:title=" ">
<path fill="none" stroke="#63b8ff" d="M2405.13,-194.25C2536.36,-185.31 2772.41,-168.6 2974,-151 2978.43,-150.61 2982.99,-150.2 2987.59,-149.77"/>
<polygon fill="#63b8ff" stroke="#63b8ff" points="2404.83,-190.76 2395.09,-194.93 2405.3,-197.75 2404.83,-190.76"/>
</a>
</g>
</g>
<!-- Node10&#45;&gt;Node2 -->
<g id="edge12_Node000010_Node000002" class="edge">
<title>Node10&#45;&gt;Node2</title>
<g id="a_edge12_Node000010_Node000002"><a xlink:title=" ">
<path fill="none" stroke="#63b8ff" d="M1342.71,-137.58C1225.67,-133.03 1022.44,-121.91 850,-96 821.26,-91.68 649.71,-51.83 556.76,-30.05"/>
<polygon fill="#63b8ff" stroke="#63b8ff" points="1342.59,-141.08 1352.72,-137.96 1342.86,-134.08 1342.59,-141.08"/>
</a>
</g>
</g>
<!-- Node10&#45;&gt;Node3 -->
<g id="edge13_Node000010_Node000003" class="edge">
<title>Node10&#45;&gt;Node3</title>
<g id="a_edge13_Node000010_Node000003"><a xlink:title=" ">
<path fill="none" stroke="#63b8ff" d="M1342.36,-138.86C1088.57,-134.25 407.29,-119.98 183,-96 180.13,-95.69 177.2,-95.34 174.25,-94.96"/>
<polygon fill="#63b8ff" stroke="#63b8ff" points="1342.61,-142.36 1352.67,-139.04 1342.73,-135.36 1342.61,-142.36"/>
</a>
</g>
</g>
<!-- Node10&#45;&gt;Node6 -->
<g id="edge19_Node000010_Node000006" class="edge">
<title>Node10&#45;&gt;Node6</title>
<g id="a_edge19_Node000010_Node000006"><a xlink:title=" ">
<path fill="none" stroke="#63b8ff" d="M1342.64,-140.5C1152.76,-139.62 717.04,-133.3 353,-96 340.06,-94.67 326.09,-92.63 313.3,-90.51"/>
<polygon fill="#63b8ff" stroke="#63b8ff" points="1342.85,-144 1352.87,-140.54 1342.88,-137 1342.85,-144"/>
</a>
</g>
</g>
<!-- Node10&#45;&gt;Node7 -->
<g id="edge20_Node000010_Node000007" class="edge">
<title>Node10&#45;&gt;Node7</title>
<g id="a_edge20_Node000010_Node000007"><a xlink:title=" ">
<path fill="none" stroke="#63b8ff" d="M1342.71,-140.04C1187.19,-138.28 894.84,-130.39 863,-96 825.73,-55.74 903.97,-34.74 969.69,-24.54"/>
<polygon fill="#63b8ff" stroke="#63b8ff" points="1342.71,-143.54 1352.75,-140.15 1342.79,-136.54 1342.71,-143.54"/>
</a>
</g>
</g>
<!-- Node10&#45;&gt;Node9 -->
<g id="edge21_Node000010_Node000009" class="edge">
<title>Node10&#45;&gt;Node9</title>
<g id="a_edge21_Node000010_Node000009"><a xlink:title=" ">
<path fill="none" stroke="#63b8ff" d="M1342.4,-138.4C1179.64,-134.24 840.55,-122.93 555,-96 540.02,-94.59 523.85,-92.57 508.94,-90.5"/>
<polygon fill="#63b8ff" stroke="#63b8ff" points="1342.78,-141.91 1352.86,-138.66 1342.95,-134.91 1342.78,-141.91"/>
</a>
</g>
</g>
<!-- Node11 -->
<g id="Node000011" class="node">
<title>Node11</title>
<g id="a_Node000011"><a xlink:href="ScaleHandle_8h.html" target="_top" xlink:title=" ">
<polygon fill="white" stroke="#666666" points="702,-96 564,-96 564,-66 702,-66 702,-96"/>
<text text-anchor="start" x="572" y="-84" font-family="Helvetica,sans-Serif" font-size="10.00">src/graphics/components</text>
<text text-anchor="middle" x="633" y="-73" font-family="Helvetica,sans-Serif" font-size="10.00">/ScaleHandle.h</text>
</a>
</g>
</g>
<!-- Node10&#45;&gt;Node11 -->
<g id="edge14_Node000010_Node000011" class="edge">
<title>Node10&#45;&gt;Node11</title>
<g id="a_edge14_Node000010_Node000011"><a xlink:title=" ">
<path fill="none" stroke="#63b8ff" d="M1342.84,-134.46C1216.44,-126.4 987.49,-111.33 792,-96 762.58,-93.69 730.12,-90.88 702.24,-88.39"/>
<polygon fill="#63b8ff" stroke="#63b8ff" points="1342.68,-137.96 1352.88,-135.1 1343.13,-130.97 1342.68,-137.96"/>
</a>
</g>
</g>
<!-- Node12 -->
<g id="Node000012" class="node">
<title>Node12</title>
<g id="a_Node000012"><a xlink:href="TranslateHandle_8cpp.html" target="_top" xlink:title=" ">
<polygon fill="white" stroke="#666666" points="1664,-96 1526,-96 1526,-66 1664,-66 1664,-96"/>
<text text-anchor="start" x="1534" y="-84" font-family="Helvetica,sans-Serif" font-size="10.00">src/graphics/components</text>
<text text-anchor="middle" x="1595" y="-73" font-family="Helvetica,sans-Serif" font-size="10.00">/TranslateHandle.cpp</text>
</a>
</g>
</g>
<!-- Node10&#45;&gt;Node12 -->
<g id="edge17_Node000010_Node000012" class="edge">
<title>Node10&#45;&gt;Node12</title>
<g id="a_edge17_Node000010_Node000012"><a xlink:title=" ">
<path fill="none" stroke="#63b8ff" d="M1471.11,-128.46C1496.2,-119.05 1531.12,-105.95 1557.5,-96.06"/>
<polygon fill="#63b8ff" stroke="#63b8ff" points="1469.82,-125.21 1461.68,-131.99 1472.28,-131.76 1469.82,-125.21"/>
</a>
</g>
</g>
<!-- Node13 -->
<g id="Node000013" class="node">
<title>Node13</title>
<g id="a_Node000013"><a xlink:href="Camera_8cpp.html" target="_top" xlink:title=" ">
<polygon fill="white" stroke="#666666" points="1843.5,-90.5 1682.5,-90.5 1682.5,-71.5 1843.5,-71.5 1843.5,-90.5"/>
<text text-anchor="middle" x="1763" y="-78.5" font-family="Helvetica,sans-Serif" font-size="10.00">src/graphics/core/Camera.cpp</text>
</a>
</g>
</g>
<!-- Node10&#45;&gt;Node13 -->
<g id="edge18_Node000010_Node000013" class="edge">
<title>Node10&#45;&gt;Node13</title>
<g id="a_edge18_Node000010_Node000013"><a xlink:title=" ">
<path fill="none" stroke="#63b8ff" d="M1496.2,-130.17C1558.68,-118.89 1657.62,-101.03 1715.83,-90.52"/>
<polygon fill="#63b8ff" stroke="#63b8ff" points="1495.33,-126.77 1486.11,-131.99 1496.58,-133.66 1495.33,-126.77"/>
</a>
</g>
</g>
<!-- Node10&#45;&gt;Node14 -->
<g id="edge22_Node000010_Node000014" class="edge">
<title>Node10&#45;&gt;Node14</title>
<g id="a_edge22_Node000010_Node000014"><a xlink:title=" ">
<path fill="none" stroke="#63b8ff" d="M1535.03,-139.46C1726.27,-136.77 2168.12,-127.4 2538,-96 2554.2,-94.62 2571.71,-92.59 2587.81,-90.5"/>
<polygon fill="#63b8ff" stroke="#63b8ff" points="1534.96,-135.97 1525.01,-139.6 1535.06,-142.96 1534.96,-135.97"/>
</a>
</g>
</g>
<!-- Node10&#45;&gt;Node15 -->
<g id="edge23_Node000010_Node000015" class="edge">
<title>Node10&#45;&gt;Node15</title>
<g id="a_edge23_Node000010_Node000015"><a xlink:title=" ">
<path fill="none" stroke="#63b8ff" d="M1535.39,-138.17C1746.43,-132.72 2243.84,-117.95 2411,-96 2414.27,-95.57 2417.62,-95.06 2420.99,-94.49"/>
<polygon fill="#63b8ff" stroke="#63b8ff" points="1535.16,-134.67 1525.25,-138.43 1535.34,-141.67 1535.16,-134.67"/>
</a>
</g>
</g>
<!-- Node16 -->
<g id="Node000016" class="node">
<title>Node16</title>
<g id="a_Node000016"><a xlink:href="Forces_8h.html" target="_top" xlink:title=" ">
<polygon fill="white" stroke="#666666" points="1970,-96 1862,-96 1862,-66 1970,-66 1970,-96"/>
<text text-anchor="start" x="1870" y="-84" font-family="Helvetica,sans-Serif" font-size="10.00">src/graphics/debug</text>
<text text-anchor="middle" x="1916" y="-73" font-family="Helvetica,sans-Serif" font-size="10.00">/Forces.h</text>
</a>
</g>
</g>
<!-- Node10&#45;&gt;Node16 -->
<g id="edge24_Node000010_Node000016" class="edge">
<title>Node10&#45;&gt;Node16</title>
<g id="a_edge24_Node000010_Node000016"><a xlink:title=" ">
<path fill="none" stroke="#63b8ff" d="M1535.22,-133.09C1619.17,-125.93 1744.1,-113.56 1852,-96 1855.26,-95.47 1858.59,-94.88 1861.96,-94.25"/>
<polygon fill="#63b8ff" stroke="#63b8ff" points="1534.86,-129.61 1525.19,-133.94 1535.45,-136.59 1534.86,-129.61"/>
</a>
</g>
</g>
<!-- Node18 -->
<g id="Node000018" class="node">
<title>Node18</title>
<g id="a_Node000018"><a xlink:href="PathTraces_8h.html" target="_top" xlink:title=" ">
<polygon fill="white" stroke="#666666" points="2096,-96 1988,-96 1988,-66 2096,-66 2096,-96"/>
<text text-anchor="start" x="1996" y="-84" font-family="Helvetica,sans-Serif" font-size="10.00">src/graphics/debug</text>
<text text-anchor="middle" x="2042" y="-73" font-family="Helvetica,sans-Serif" font-size="10.00">/PathTraces.h</text>
</a>
</g>
</g>
<!-- Node10&#45;&gt;Node18 -->
<g id="edge27_Node000010_Node000018" class="edge">
<title>Node10&#45;&gt;Node18</title>
<g id="a_edge27_Node000010_Node000018"><a xlink:title=" ">
<path fill="none" stroke="#63b8ff" d="M1535.73,-136.51C1644.14,-131.12 1824.93,-119.36 1979,-96 1981.88,-95.56 1984.83,-95.07 1987.79,-94.54"/>
<polygon fill="#63b8ff" stroke="#63b8ff" points="1535.28,-133.03 1525.46,-137.01 1535.62,-140.02 1535.28,-133.03"/>
</a>
</g>
</g>
<!-- Node20 -->
<g id="Node000020" class="node">
<title>Node20</title>
<g id="a_Node000020"><a xlink:href="HierarchyWidget_8h.html" target="_top" xlink:title=" ">
<polygon fill="white" stroke="#666666" points="1507.5,-90.5 1370.5,-90.5 1370.5,-71.5 1507.5,-71.5 1507.5,-90.5"/>
<text text-anchor="middle" x="1439" y="-78.5" font-family="Helvetica,sans-Serif" font-size="10.00">src/ui/HierarchyWidget.h</text>
</a>
</g>
</g>
<!-- Node10&#45;&gt;Node20 -->
<g id="edge30_Node000010_Node000020" class="edge">
<title>Node10&#45;&gt;Node20</title>
<g id="a_edge30_Node000010_Node000020"><a xlink:title=" ">
<path fill="none" stroke="#63b8ff" d="M1439,-121.66C1439,-111.24 1439,-98.8 1439,-90.67"/>
<polygon fill="#63b8ff" stroke="#63b8ff" points="1435.5,-121.87 1439,-131.87 1442.5,-121.87 1435.5,-121.87"/>
</a>
</g>
</g>
<!-- Node23 -->
<g id="Node000023" class="node">
<title>Node23</title>
<g id="a_Node000023"><a xlink:href="ForcesInspectorWidget_8cpp.html" target="_top" xlink:title=" ">
<polygon fill="white" stroke="#666666" points="1042,-96 872,-96 872,-66 1042,-66 1042,-96"/>
<text text-anchor="start" x="880" y="-84" font-family="Helvetica,sans-Serif" font-size="10.00">src/ui/inspector/ForcesInspector</text>
<text text-anchor="middle" x="957" y="-73" font-family="Helvetica,sans-Serif" font-size="10.00">Widget.cpp</text>
</a>
</g>
</g>
<!-- Node10&#45;&gt;Node23 -->
<g id="edge33_Node000010_Node000023" class="edge">
<title>Node10&#45;&gt;Node23</title>
<g id="a_edge33_Node000010_Node000023"><a xlink:title=" ">
<path fill="none" stroke="#63b8ff" d="M1347.16,-130.85C1268.47,-122.37 1152.16,-109.33 1051,-96 1048.06,-95.61 1045.06,-95.21 1042.04,-94.8"/>
<polygon fill="#63b8ff" stroke="#63b8ff" points="1347.21,-134.37 1357.53,-131.96 1347.96,-127.41 1347.21,-134.37"/>
</a>
</g>
</g>
<!-- Node10&#45;&gt;Node24 -->
<g id="edge34_Node000010_Node000024" class="edge">
<title>Node10&#45;&gt;Node24</title>
<g id="a_edge34_Node000010_Node000024"><a xlink:title=" ">
<path fill="none" stroke="#63b8ff" d="M1535.57,-137.62C1665.44,-132.92 1903.37,-121.46 2105,-96 2108.02,-95.62 2111.11,-95.19 2114.22,-94.73"/>
<polygon fill="#63b8ff" stroke="#63b8ff" points="1535.13,-134.13 1525.26,-137.98 1535.38,-141.12 1535.13,-134.13"/>
</a>
</g>
</g>
<!-- Node10&#45;&gt;Node25 -->
<g id="edge35_Node000010_Node000025" class="edge">
<title>Node10&#45;&gt;Node25</title>
<g id="a_edge35_Node000010_Node000025"><a xlink:title=" ">
<path fill="none" stroke="#63b8ff" d="M1535.53,-139C1688.43,-135.78 1995.47,-125.85 2254,-96 2257.04,-95.65 2260.15,-95.25 2263.28,-94.83"/>
<polygon fill="#63b8ff" stroke="#63b8ff" points="1535.17,-135.51 1525.24,-139.21 1535.31,-142.51 1535.17,-135.51"/>
</a>
</g>
</g>
<!-- Node26 -->
<g id="Node000026" class="node">
<title>Node26</title>
<g id="a_Node000026"><a xlink:href="PhysicsInspectorWidget_8cpp.html" target="_top" xlink:title=" ">
<polygon fill="white" stroke="#666666" points="1191.5,-96 1060.5,-96 1060.5,-66 1191.5,-66 1191.5,-96"/>
<text text-anchor="start" x="1068.5" y="-84" font-family="Helvetica,sans-Serif" font-size="10.00">src/ui/inspector/Physics</text>
<text text-anchor="middle" x="1126" y="-73" font-family="Helvetica,sans-Serif" font-size="10.00">InspectorWidget.cpp</text>
</a>
</g>
</g>
<!-- Node10&#45;&gt;Node26 -->
<g id="edge36_Node000010_Node000026" class="edge">
<title>Node10&#45;&gt;Node26</title>
<g id="a_edge36_Node000010_Node000026"><a xlink:title=" ">
<path fill="none" stroke="#63b8ff" d="M1382.76,-130.08C1334.32,-121.09 1262.54,-107.74 1200,-96 1197.3,-95.49 1194.55,-94.98 1191.77,-94.45"/>
<polygon fill="#63b8ff" stroke="#63b8ff" points="1382.26,-133.54 1392.73,-131.93 1383.53,-126.66 1382.26,-133.54"/>
</a>
</g>
</g>
<!-- Node27 -->
<g id="Node000027" class="node">
<title>Node27</title>
<g id="a_Node000027"><a xlink:href="TransformInspectorWidget_8cpp.html" target="_top" xlink:title=" ">
<polygon fill="white" stroke="#666666" points="1352.5,-96 1209.5,-96 1209.5,-66 1352.5,-66 1352.5,-96"/>
<text text-anchor="start" x="1217.5" y="-84" font-family="Helvetica,sans-Serif" font-size="10.00">src/ui/inspector/Transform</text>
<text text-anchor="middle" x="1281" y="-73" font-family="Helvetica,sans-Serif" font-size="10.00">InspectorWidget.cpp</text>
</a>
</g>
</g>
<!-- Node10&#45;&gt;Node27 -->
<g id="edge37_Node000010_Node000027" class="edge">
<title>Node10&#45;&gt;Node27</title>
<g id="a_edge37_Node000010_Node000027"><a xlink:title=" ">
<path fill="none" stroke="#63b8ff" d="M1406.48,-128.46C1381.06,-119.05 1345.7,-105.95 1318.99,-96.06"/>
<polygon fill="#63b8ff" stroke="#63b8ff" points="1405.43,-131.8 1416.03,-131.99 1407.86,-125.24 1405.43,-131.8"/>
</a>
</g>
</g>
<!-- Node11&#45;&gt;Node2 -->
<g id="edge15_Node000011_Node000002" class="edge">
<title>Node11&#45;&gt;Node2</title>
<g id="a_edge15_Node000011_Node000002"><a xlink:title=" ">
<path fill="none" stroke="#63b8ff" d="M594,-61.65C572.61,-51.58 546.51,-39.3 526.78,-30.01"/>
<polygon fill="#63b8ff" stroke="#63b8ff" points="592.62,-64.86 603.15,-65.95 595.6,-58.53 592.62,-64.86"/>
</a>
</g>
</g>
<!-- Node11&#45;&gt;Node4 -->
<g id="edge16_Node000011_Node000004" class="edge">
<title>Node11&#45;&gt;Node4</title>
<g id="a_edge16_Node000011_Node000004"><a xlink:title=" ">
<path fill="none" stroke="#63b8ff" d="M553.53,-66.01C399.02,-44.67 230.52,-29.29 138.26,-21.55"/>
<polygon fill="#63b8ff" stroke="#63b8ff" points="553.3,-69.51 563.68,-67.42 554.26,-62.58 553.3,-69.51"/>
</a>
</g>
</g>
<!-- Node16&#45;&gt;Node7 -->
<g id="edge25_Node000016_Node000007" class="edge">
<title>Node16&#45;&gt;Node7</title>
<g id="a_edge25_Node000016_Node000007"><a xlink:title=" ">
<path fill="none" stroke="#63b8ff" d="M1852.31,-66.04C1852.2,-66.03 1852.1,-66.01 1852,-66 1718,-47.29 1327.58,-28.34 1144.23,-20.17"/>
<polygon fill="#63b8ff" stroke="#63b8ff" points="1851.56,-69.47 1861.98,-67.57 1852.65,-62.55 1851.56,-69.47"/>
</a>
</g>
</g>
<!-- Node16&#45;&gt;Node17 -->
<g id="edge26_Node000016_Node000017" class="edge">
<title>Node16&#45;&gt;Node17</title>
<g id="a_edge26_Node000016_Node000017"><a xlink:title=" ">
<path fill="none" stroke="#63b8ff" d="M1980.58,-65.95C2315.22,-20.88 2707.33,-16.04 2848.81,-15.83"/>
<polygon fill="#63b8ff" stroke="#63b8ff" points="1979.63,-62.55 1970.19,-67.36 1980.57,-69.48 1979.63,-62.55"/>
</a>
</g>
</g>
<!-- Node18&#45;&gt;Node7 -->
<g id="edge28_Node000018_Node000007" class="edge">
<title>Node18&#45;&gt;Node7</title>
<g id="a_edge28_Node000018_Node000007"><a xlink:title=" ">
<path fill="none" stroke="#63b8ff" d="M1977.78,-66.12C1864.14,-53.34 1359.34,-29.95 1144.33,-20.31"/>
<polygon fill="#63b8ff" stroke="#63b8ff" points="1977.45,-69.61 1987.81,-67.36 1978.31,-62.66 1977.45,-69.61"/>
</a>
</g>
</g>
<!-- Node18&#45;&gt;Node19 -->
<g id="edge29_Node000018_Node000019" class="edge">
<title>Node18&#45;&gt;Node19</title>
<g id="a_edge29_Node000018_Node000019"><a xlink:title=" ">
<path fill="none" stroke="#63b8ff" d="M2106.37,-66C2486.56,-17.37 2589.58,-79.3 2966,-30 2968.89,-29.62 2971.84,-29.18 2974.81,-28.68"/>
<polygon fill="#63b8ff" stroke="#63b8ff" points="2105.65,-62.56 2096.19,-67.32 2106.55,-69.51 2105.65,-62.56"/>
</a>
</g>
</g>
<!-- Node21 -->
<g id="Node000021" class="node">
<title>Node21</title>
<g id="a_Node000021"><a xlink:href="HierarchyWidget_8cpp.html" target="_top" xlink:title=" ">
<polygon fill="white" stroke="#666666" points="1513,-24.5 1365,-24.5 1365,-5.5 1513,-5.5 1513,-24.5"/>
<text text-anchor="middle" x="1439" y="-12.5" font-family="Helvetica,sans-Serif" font-size="10.00">src/ui/HierarchyWidget.cpp</text>
</a>
</g>
</g>
<!-- Node20&#45;&gt;Node21 -->
<g id="edge31_Node000020_Node000021" class="edge">
<title>Node20&#45;&gt;Node21</title>
<g id="a_edge31_Node000020_Node000021"><a xlink:title=" ">
<path fill="none" stroke="#63b8ff" d="M1439,-61.08C1439,-49.13 1439,-34.22 1439,-24.91"/>
<polygon fill="#63b8ff" stroke="#63b8ff" points="1435.5,-61.37 1439,-71.37 1442.5,-61.37 1435.5,-61.37"/>
</a>
</g>
</g>
<!-- Node22 -->
<g id="Node000022" class="node">
<title>Node22</title>
<g id="a_Node000022"><a xlink:href="MainWindow_8cpp.html" target="_top" xlink:title=" ">
<polygon fill="white" stroke="#666666" points="2267,-24.5 2139,-24.5 2139,-5.5 2267,-5.5 2267,-24.5"/>
<text text-anchor="middle" x="2203" y="-12.5" font-family="Helvetica,sans-Serif" font-size="10.00">src/ui/MainWindow.cpp</text>
</a>
</g>
</g>
<!-- Node20&#45;&gt;Node22 -->
<g id="edge32_Node000020_Node000022" class="edge">
<title>Node20&#45;&gt;Node22</title>
<g id="a_edge32_Node000020_Node000022"><a xlink:title=" ">
<path fill="none" stroke="#63b8ff" d="M1491.87,-69.74C1500.25,-68.33 1508.85,-67.03 1517,-66 1744.78,-37.34 2017.32,-23.53 2138.94,-18.43"/>
<polygon fill="#63b8ff" stroke="#63b8ff" points="1491.04,-66.33 1481.79,-71.49 1492.24,-73.23 1491.04,-66.33"/>
</a>
</g>
</g>
<!-- Node28&#45;&gt;Node7 -->
<g id="edge39_Node000028_Node000007" class="edge">
<title>Node28&#45;&gt;Node7</title>
<g id="a_edge39_Node000028_Node000007"><a xlink:title=" ">
<path fill="none" stroke="#63b8ff" d="M2645.57,-133.73C2716.98,-125.39 2792.84,-106.88 2753,-66 2725.91,-38.2 1394.79,-31.38 1356,-30 1285.03,-27.48 1204.92,-23.83 1144.05,-20.88"/>
<polygon fill="#63b8ff" stroke="#63b8ff" points="2645.09,-130.26 2635.53,-134.84 2645.86,-137.22 2645.09,-130.26"/>
</a>
</g>
</g>
<!-- Node28&#45;&gt;Node14 -->
<g id="edge40_Node000028_Node000014" class="edge">
<title>Node28&#45;&gt;Node14</title>
<g id="a_edge40_Node000028_Node000014"><a xlink:title=" ">
<path fill="none" stroke="#63b8ff" d="M2566.9,-126.92C2586.59,-115.74 2613.9,-100.23 2630.74,-90.67"/>
<polygon fill="#63b8ff" stroke="#63b8ff" points="2565.16,-123.89 2558.2,-131.87 2568.62,-129.97 2565.16,-123.89"/>
</a>
</g>
</g>
<!-- Node29&#45;&gt;Node22 -->
<g id="edge46_Node000029_Node000022" class="edge">
<title>Node29&#45;&gt;Node22</title>
<g id="a_edge46_Node000029_Node000022"><a xlink:title=" ">
<path fill="none" stroke="#63b8ff" d="M2810.51,-121.82C2808.97,-104.46 2803.75,-79.33 2787,-66 2747.02,-34.17 2410.21,-21.51 2267.01,-17.53"/>
<polygon fill="#63b8ff" stroke="#63b8ff" points="2807.02,-122.12 2811.08,-131.91 2814.01,-121.73 2807.02,-122.12"/>
</a>
</g>
</g>
<!-- Node30 -->
<g id="Node000030" class="node">
<title>Node30</title>
<g id="a_Node000030"><a xlink:href="main_8cpp.html" target="_top" xlink:title=" ">
<polygon fill="white" stroke="#666666" points="2918.5,-90.5 2839.5,-90.5 2839.5,-71.5 2918.5,-71.5 2918.5,-90.5"/>
<text text-anchor="middle" x="2879" y="-78.5" font-family="Helvetica,sans-Serif" font-size="10.00">src/main.cpp</text>
</a>
</g>
</g>
<!-- Node29&#45;&gt;Node30 -->
<g id="edge45_Node000029_Node000030" class="edge">
<title>Node29&#45;&gt;Node30</title>
<g id="a_edge45_Node000029_Node000030"><a xlink:title=" ">
<path fill="none" stroke="#63b8ff" d="M2828.76,-125.22C2841.55,-114.21 2858.36,-99.75 2868.93,-90.67"/>
<polygon fill="#63b8ff" stroke="#63b8ff" points="2826.33,-122.69 2821.03,-131.87 2830.9,-128 2826.33,-122.69"/>
</a>
</g>
</g>
</g>
</svg>
