<?xml version="1.0" encoding="UTF-8" standalone="no"?>
<!DOCTYPE svg PUBLIC "-//W3C//DTD SVG 1.1//EN"
 "http://www.w3.org/Graphics/SVG/1.1/DTD/svg11.dtd">
<!-- Generated by graphviz version 2.43.0 (0)
 -->
<!-- Title: src/graphics/core/ResourceManager.cpp Pages: 1 -->
<!--zoomable 335 -->

<svg id="main" version="1.1" xmlns="http://www.w3.org/2000/svg" xmlns:xlink="http://www.w3.org/1999/xlink" xml:space="preserve" onload="init(evt)">
<style type="text/css"><![CDATA[
.node, .edge {opacity: 0.7;}
.node.selected, .edge.selected {opacity: 1;}
.edge:hover path { stroke: red; }
.edge:hover polygon { stroke: red; fill: red; }
]]></style>

<defs>
  <circle id="rim" cx="0" cy="0" r="7"/>
  <circle id="rim2" cx="0" cy="0" r="3.5"/>
  <g id="zoomPlus">
    <use xlink:href="#rim" fill="#404040"><set attributeName="fill" to="#808080" begin="zoomplus.mouseover" end="zoomplus.mouseout"/></use>
    <path d="M-4,0h8M0,-4v8" fill="none" stroke="white" stroke-width="1.5" pointer-events="none"/>
  </g>
  <g id="zoomMin">
    <use xlink:href="#rim" fill="#404040"><set attributeName="fill" to="#808080" begin="zoomminus.mouseover" end="zoomminus.mouseout"/></use>
    <path d="M-4,0h8" fill="none" stroke="white" stroke-width="1.5" pointer-events="none"/>
  </g>
  <g id="arrowUp" transform="translate(30 24)">
    <use xlink:href="#rim"/>
    <path pointer-events="none" fill="none" stroke="white" stroke-width="1.5" d="M0,-3.0v7 M-2.5,-0.5L0,-3.0L2.5,-0.5"/>
  </g>
  <g id="arrowRight" transform="rotate(90) translate(36 -43)">
    <use xlink:href="#rim"/>
    <path pointer-events="none" fill="none" stroke="white" stroke-width="1.5" d="M0,-3.0v7 M-2.5,-0.5L0,-3.0L2.5,-0.5"/>
  </g>
  <g id="arrowDown" transform="rotate(180) translate(-30 -48)">
    <use xlink:href="#rim"/>
    <path pointer-events="none" fill="none" stroke="white" stroke-width="1.5" d="M0,-3.0v7 M-2.5,-0.5L0,-3.0L2.5,-0.5"/>
  </g>
  <g id="arrowLeft" transform="rotate(270) translate(-36 17)">
    <use xlink:href="#rim"/>
    <path pointer-events="none" fill="none" stroke="white" stroke-width="1.5" d="M0,-3.0v7 M-2.5,-0.5L0,-3.0L2.5,-0.5"/>
  </g>
  <g id="resetDef">
    <use xlink:href="#rim2" fill="#404040"><set attributeName="fill" to="#808080" begin="reset.mouseover" end="reset.mouseout"/></use>
  </g>
</defs>
<script type="application/ecmascript">
var viewWidth = 832;
var viewHeight = 335;
var sectionId = 'dynsection-0';
</script>
<script type="application/ecmascript" xlink:href="svg.min.js"/>
<svg id="graph" class="graph">
<g id="viewport">
<title>src/graphics/core/ResourceManager.cpp</title>
<!-- Node1 -->
<g id="Node000001" class="node">
<title>Node1</title>
<g id="a_Node000001"><a xlink:title=" ">
<polygon fill="#999999" stroke="#666666" points="405,-327 258,-327 258,-297 405,-297 405,-327"/>
<text text-anchor="start" x="266" y="-315" font-family="Helvetica,sans-Serif" font-size="10.00">src/graphics/core/Resource</text>
<text text-anchor="middle" x="331.5" y="-304" font-family="Helvetica,sans-Serif" font-size="10.00">Manager.cpp</text>
</a>
</g>
</g>
<!-- Node2 -->
<g id="Node000002" class="node">
<title>Node2</title>
<g id="a_Node000002"><a xlink:href="ResourceManager_8h.html" target="_top" xlink:title=" ">
<polygon fill="white" stroke="#666666" points="247,-261 134,-261 134,-242 247,-242 247,-261"/>
<text text-anchor="middle" x="190.5" y="-249" font-family="Helvetica,sans-Serif" font-size="10.00">ResourceManager.h</text>
</a>
</g>
</g>
<!-- Node1&#45;&gt;Node2 -->
<g id="edge1_Node000001_Node000002" class="edge">
<title>Node1&#45;&gt;Node2</title>
<g id="a_edge1_Node000001_Node000002"><a xlink:title=" ">
<path fill="none" stroke="#63b8ff" d="M297.73,-296.99C274.31,-287.27 243.38,-274.44 220.77,-265.06"/>
<polygon fill="#63b8ff" stroke="#63b8ff" points="221.9,-261.74 211.32,-261.14 219.22,-268.2 221.9,-261.74"/>
</a>
</g>
</g>
<!-- Node3 -->
<g id="Node000003" class="node">
<title>Node3</title>
<g id="a_Node000003"><a xlink:title=" ">
<polygon fill="#e0e0e0" stroke="#999999" points="93,-200.5 0,-200.5 0,-181.5 93,-181.5 93,-200.5"/>
<text text-anchor="middle" x="46.5" y="-188.5" font-family="Helvetica,sans-Serif" font-size="10.00">unordered_map</text>
</a>
</g>
</g>
<!-- Node1&#45;&gt;Node3 -->
<g id="edge25_Node000001_Node000003" class="edge">
<title>Node1&#45;&gt;Node3</title>
<g id="a_edge25_Node000001_Node000003"><a xlink:title=" ">
<path fill="none" stroke="#63b8ff" d="M257.53,-302.08C216.6,-294.99 165.81,-282.54 124.5,-261 99.07,-247.74 75.21,-224.42 60.73,-208.6"/>
<polygon fill="#63b8ff" stroke="#63b8ff" points="62.97,-205.84 53.71,-200.69 57.73,-210.49 62.97,-205.84"/>
</a>
</g>
</g>
<!-- Node12 -->
<g id="Node000012" class="node">
<title>Node12</title>
<g id="a_Node000012"><a xlink:href="MathUtils_8h.html" target="_top" xlink:title=" ">
<polygon fill="white" stroke="#666666" points="699,-200.5 558,-200.5 558,-181.5 699,-181.5 699,-200.5"/>
<text text-anchor="middle" x="628.5" y="-188.5" font-family="Helvetica,sans-Serif" font-size="10.00">graphics/utils/MathUtils.h</text>
</a>
</g>
</g>
<!-- Node1&#45;&gt;Node12 -->
<g id="edge16_Node000001_Node000012" class="edge">
<title>Node1&#45;&gt;Node12</title>
<g id="a_edge16_Node000001_Node000012"><a xlink:title=" ">
<path fill="none" stroke="#63b8ff" d="M314.67,-296.94C298.99,-282.17 280.04,-258.79 294.5,-242 310.86,-223.01 454.42,-207.08 547.93,-198.59"/>
<polygon fill="#63b8ff" stroke="#63b8ff" points="548.29,-202.07 557.94,-197.7 547.67,-195.1 548.29,-202.07"/>
</a>
</g>
</g>
<!-- Node16 -->
<g id="Node000016" class="node">
<title>Node16</title>
<g id="a_Node000016"><a xlink:title=" ">
<polygon fill="#e0e0e0" stroke="#999999" points="359,-261 304,-261 304,-242 359,-242 359,-261"/>
<text text-anchor="middle" x="331.5" y="-249" font-family="Helvetica,sans-Serif" font-size="10.00">fstream</text>
</a>
</g>
</g>
<!-- Node1&#45;&gt;Node16 -->
<g id="edge23_Node000001_Node000016" class="edge">
<title>Node1&#45;&gt;Node16</title>
<g id="a_edge23_Node000001_Node000016"><a xlink:title=" ">
<path fill="none" stroke="#63b8ff" d="M331.5,-296.84C331.5,-289.21 331.5,-279.7 331.5,-271.45"/>
<polygon fill="#63b8ff" stroke="#63b8ff" points="335,-271.27 331.5,-261.27 328,-271.27 335,-271.27"/>
</a>
</g>
</g>
<!-- Node17 -->
<g id="Node000017" class="node">
<title>Node17</title>
<g id="a_Node000017"><a xlink:title=" ">
<polygon fill="#e0e0e0" stroke="#999999" points="433.5,-261 377.5,-261 377.5,-242 433.5,-242 433.5,-261"/>
<text text-anchor="middle" x="405.5" y="-249" font-family="Helvetica,sans-Serif" font-size="10.00">sstream</text>
</a>
</g>
</g>
<!-- Node1&#45;&gt;Node17 -->
<g id="edge24_Node000001_Node000017" class="edge">
<title>Node1&#45;&gt;Node17</title>
<g id="a_edge24_Node000001_Node000017"><a xlink:title=" ">
<path fill="none" stroke="#63b8ff" d="M349.41,-296.84C360.59,-288 374.98,-276.63 386.38,-267.62"/>
<polygon fill="#63b8ff" stroke="#63b8ff" points="388.74,-270.21 394.41,-261.27 384.4,-264.72 388.74,-270.21"/>
</a>
</g>
</g>
<!-- Node18 -->
<g id="Node000018" class="node">
<title>Node18</title>
<g id="a_Node000018"><a xlink:title=" ">
<polygon fill="#e0e0e0" stroke="#999999" points="611.5,-261 451.5,-261 451.5,-242 611.5,-242 611.5,-261"/>
<text text-anchor="middle" x="531.5" y="-249" font-family="Helvetica,sans-Serif" font-size="10.00">glm/ext/scalar_constants.hpp</text>
</a>
</g>
</g>
<!-- Node1&#45;&gt;Node18 -->
<g id="edge26_Node000001_Node000018" class="edge">
<title>Node1&#45;&gt;Node18</title>
<g id="a_edge26_Node000001_Node000018"><a xlink:title=" ">
<path fill="none" stroke="#63b8ff" d="M379.4,-296.99C413.92,-286.89 459.92,-273.44 492.27,-263.98"/>
<polygon fill="#63b8ff" stroke="#63b8ff" points="493.64,-267.22 502.26,-261.05 491.68,-260.5 493.64,-267.22"/>
</a>
</g>
</g>
<!-- Node19 -->
<g id="Node000019" class="node">
<title>Node19</title>
<g id="a_Node000019"><a xlink:title=" ">
<polygon fill="#e0e0e0" stroke="#999999" points="755,-261 630,-261 630,-242 755,-242 755,-261"/>
<text text-anchor="middle" x="692.5" y="-249" font-family="Helvetica,sans-Serif" font-size="10.00">glm/gtc/constants.hpp</text>
</a>
</g>
</g>
<!-- Node1&#45;&gt;Node19 -->
<g id="edge27_Node000001_Node000019" class="edge">
<title>Node1&#45;&gt;Node19</title>
<g id="a_edge27_Node000001_Node000019"><a xlink:title=" ">
<path fill="none" stroke="#63b8ff" d="M405.42,-299.02C471.57,-288.3 567.46,-272.76 629.9,-262.65"/>
<polygon fill="#63b8ff" stroke="#63b8ff" points="630.69,-266.06 640,-261.01 629.57,-259.15 630.69,-266.06"/>
</a>
</g>
</g>
<!-- Node2&#45;&gt;Node3 -->
<g id="edge2_Node000002_Node000003" class="edge">
<title>Node2&#45;&gt;Node3</title>
<g id="a_edge2_Node000002_Node000003"><a xlink:title=" ">
<path fill="none" stroke="#63b8ff" d="M169.56,-241.99C145.14,-232.07 104.57,-215.59 76.73,-204.28"/>
<polygon fill="#63b8ff" stroke="#63b8ff" points="78.05,-201.04 67.46,-200.52 75.41,-207.52 78.05,-201.04"/>
</a>
</g>
</g>
<!-- Node4 -->
<g id="Node000004" class="node">
<title>Node4</title>
<g id="a_Node000004"><a xlink:title=" ">
<polygon fill="#e0e0e0" stroke="#999999" points="143.5,-134.5 99.5,-134.5 99.5,-115.5 143.5,-115.5 143.5,-134.5"/>
<text text-anchor="middle" x="121.5" y="-122.5" font-family="Helvetica,sans-Serif" font-size="10.00">string</text>
</a>
</g>
</g>
<!-- Node2&#45;&gt;Node4 -->
<g id="edge3_Node000002_Node000004" class="edge">
<title>Node2&#45;&gt;Node4</title>
<g id="a_edge3_Node000002_Node000004"><a xlink:title=" ">
<path fill="none" stroke="#63b8ff" d="M176.93,-241.94C165.49,-234.01 149.56,-221.16 140.5,-206 129.2,-187.08 124.62,-161.89 122.76,-144.87"/>
<polygon fill="#63b8ff" stroke="#63b8ff" points="126.22,-144.22 121.86,-134.57 119.25,-144.83 126.22,-144.22"/>
</a>
</g>
</g>
<!-- Node5 -->
<g id="Node000005" class="node">
<title>Node5</title>
<g id="a_Node000005"><a xlink:href="Shader_8h.html" target="_top" xlink:title=" ">
<polygon fill="white" stroke="#666666" points="271,-206 150,-206 150,-176 271,-176 271,-206"/>
<text text-anchor="start" x="158" y="-194" font-family="Helvetica,sans-Serif" font-size="10.00">graphics/components</text>
<text text-anchor="middle" x="210.5" y="-183" font-family="Helvetica,sans-Serif" font-size="10.00">/Shader.h</text>
</a>
</g>
</g>
<!-- Node2&#45;&gt;Node5 -->
<g id="edge4_Node000002_Node000005" class="edge">
<title>Node2&#45;&gt;Node5</title>
<g id="a_edge4_Node000002_Node000005"><a xlink:title=" ">
<path fill="none" stroke="#63b8ff" d="M193.45,-241.87C195.81,-234.96 199.24,-224.93 202.41,-215.67"/>
<polygon fill="#63b8ff" stroke="#63b8ff" points="205.75,-216.71 205.67,-206.11 199.13,-214.44 205.75,-216.71"/>
</a>
</g>
</g>
<!-- Node8 -->
<g id="Node000008" class="node">
<title>Node8</title>
<g id="a_Node000008"><a xlink:href="Mesh_8h.html" target="_top" xlink:title=" ">
<polygon fill="white" stroke="#666666" points="410,-206 289,-206 289,-176 410,-176 410,-206"/>
<text text-anchor="start" x="297" y="-194" font-family="Helvetica,sans-Serif" font-size="10.00">graphics/components</text>
<text text-anchor="middle" x="349.5" y="-183" font-family="Helvetica,sans-Serif" font-size="10.00">/Mesh.h</text>
</a>
</g>
</g>
<!-- Node2&#45;&gt;Node8 -->
<g id="edge8_Node000002_Node000008" class="edge">
<title>Node2&#45;&gt;Node8</title>
<g id="a_edge8_Node000002_Node000008"><a xlink:title=" ">
<path fill="none" stroke="#63b8ff" d="M213.62,-241.99C236.6,-233.54 272.54,-220.32 301.68,-209.59"/>
<polygon fill="#63b8ff" stroke="#63b8ff" points="303.1,-212.8 311.27,-206.06 300.68,-206.23 303.1,-212.8"/>
</a>
</g>
</g>
<!-- Node5&#45;&gt;Node4 -->
<g id="edge5_Node000005_Node000004" class="edge">
<title>Node5&#45;&gt;Node4</title>
<g id="a_edge5_Node000005_Node000004"><a xlink:title=" ">
<path fill="none" stroke="#63b8ff" d="M190.75,-175.8C176.24,-165.37 156.6,-151.24 141.94,-140.69"/>
<polygon fill="#63b8ff" stroke="#63b8ff" points="143.7,-137.66 133.54,-134.66 139.62,-143.34 143.7,-137.66"/>
</a>
</g>
</g>
<!-- Node6 -->
<g id="Node000006" class="node">
<title>Node6</title>
<g id="a_Node000006"><a xlink:title=" ">
<polygon fill="#e0e0e0" stroke="#999999" points="484.5,-19 406.5,-19 406.5,0 484.5,0 484.5,-19"/>
<text text-anchor="middle" x="445.5" y="-7" font-family="Helvetica,sans-Serif" font-size="10.00">glm/glm.hpp</text>
</a>
</g>
</g>
<!-- Node5&#45;&gt;Node6 -->
<g id="edge6_Node000005_Node000006" class="edge">
<title>Node5&#45;&gt;Node6</title>
<g id="a_edge6_Node000005_Node000006"><a xlink:title=" ">
<path fill="none" stroke="#63b8ff" d="M200.6,-175.78C190.09,-158.78 176.77,-130.1 190.5,-110 236.62,-42.49 335.93,-20.78 396.1,-13.8"/>
<polygon fill="#63b8ff" stroke="#63b8ff" points="396.55,-17.27 406.13,-12.73 395.81,-10.31 396.55,-17.27"/>
</a>
</g>
</g>
<!-- Node7 -->
<g id="Node000007" class="node">
<title>Node7</title>
<g id="a_Node000007"><a xlink:title=" ">
<polygon fill="#e0e0e0" stroke="#999999" points="319.5,-140 199.5,-140 199.5,-110 319.5,-110 319.5,-140"/>
<text text-anchor="start" x="207.5" y="-128" font-family="Helvetica,sans-Serif" font-size="10.00">QOpenGLFunctions_4</text>
<text text-anchor="middle" x="259.5" y="-117" font-family="Helvetica,sans-Serif" font-size="10.00">_5_Core</text>
</a>
</g>
</g>
<!-- Node5&#45;&gt;Node7 -->
<g id="edge7_Node000005_Node000007" class="edge">
<title>Node5&#45;&gt;Node7</title>
<g id="a_edge7_Node000005_Node000007"><a xlink:title=" ">
<path fill="none" stroke="#63b8ff" d="M221.37,-175.8C227.59,-167.68 235.52,-157.31 242.54,-148.15"/>
<polygon fill="#63b8ff" stroke="#63b8ff" points="245.36,-150.23 248.66,-140.16 239.8,-145.98 245.36,-150.23"/>
</a>
</g>
</g>
<!-- Node8&#45;&gt;Node6 -->
<g id="edge11_Node000008_Node000006" class="edge">
<title>Node8&#45;&gt;Node6</title>
<g id="a_edge11_Node000008_Node000006"><a xlink:title=" ">
<path fill="none" stroke="#63b8ff" d="M350.54,-175.79C352.19,-159.29 356.33,-131.58 366.5,-110 382.14,-76.8 410.82,-44.73 428.98,-26.34"/>
<polygon fill="#63b8ff" stroke="#63b8ff" points="431.64,-28.64 436.28,-19.12 426.71,-23.66 431.64,-28.64"/>
</a>
</g>
</g>
<!-- Node8&#45;&gt;Node7 -->
<g id="edge9_Node000008_Node000007" class="edge">
<title>Node8&#45;&gt;Node7</title>
<g id="a_edge9_Node000008_Node000007"><a xlink:title=" ">
<path fill="none" stroke="#63b8ff" d="M329.53,-175.8C317.29,-167.1 301.44,-155.82 287.91,-146.2"/>
<polygon fill="#63b8ff" stroke="#63b8ff" points="289.6,-143.11 279.42,-140.16 285.54,-148.81 289.6,-143.11"/>
</a>
</g>
</g>
<!-- Node9 -->
<g id="Node000009" class="node">
<title>Node9</title>
<g id="a_Node000009"><a xlink:title=" ">
<polygon fill="#e0e0e0" stroke="#999999" points="581,-134.5 534,-134.5 534,-115.5 581,-115.5 581,-134.5"/>
<text text-anchor="middle" x="557.5" y="-122.5" font-family="Helvetica,sans-Serif" font-size="10.00">vector</text>
</a>
</g>
</g>
<!-- Node8&#45;&gt;Node9 -->
<g id="edge10_Node000008_Node000009" class="edge">
<title>Node8&#45;&gt;Node9</title>
<g id="a_edge10_Node000008_Node000009"><a xlink:title=" ">
<path fill="none" stroke="#63b8ff" d="M405.22,-175.96C439.88,-166.76 485.18,-153.9 524.5,-140 525.93,-139.49 527.39,-138.96 528.85,-138.4"/>
<polygon fill="#63b8ff" stroke="#63b8ff" points="530.48,-141.52 538.46,-134.55 527.88,-135.02 530.48,-141.52"/>
</a>
</g>
</g>
<!-- Node10 -->
<g id="Node000010" class="node">
<title>Node10</title>
<g id="a_Node000010"><a xlink:href="AABB_8h.html" target="_top" xlink:title=" ">
<polygon fill="white" stroke="#666666" points="515.5,-134.5 375.5,-134.5 375.5,-115.5 515.5,-115.5 515.5,-134.5"/>
<text text-anchor="middle" x="445.5" y="-122.5" font-family="Helvetica,sans-Serif" font-size="10.00">physics/bounding/AABB.h</text>
</a>
</g>
</g>
<!-- Node8&#45;&gt;Node10 -->
<g id="edge12_Node000008_Node000010" class="edge">
<title>Node8&#45;&gt;Node10</title>
<g id="a_edge12_Node000008_Node000010"><a xlink:title=" ">
<path fill="none" stroke="#63b8ff" d="M370.81,-175.8C386.6,-165.27 408.04,-150.97 423.9,-140.4"/>
<polygon fill="#63b8ff" stroke="#63b8ff" points="426.13,-143.12 432.51,-134.66 422.25,-137.29 426.13,-143.12"/>
</a>
</g>
</g>
<!-- Node10&#45;&gt;Node6 -->
<g id="edge13_Node000010_Node000006" class="edge">
<title>Node10&#45;&gt;Node6</title>
<g id="a_edge13_Node000010_Node000006"><a xlink:title=" ">
<path fill="none" stroke="#63b8ff" d="M442.47,-115.1C438.37,-101.98 431.86,-76.67 434.5,-55 435.56,-46.31 437.74,-36.87 439.88,-28.93"/>
<polygon fill="#63b8ff" stroke="#63b8ff" points="443.27,-29.83 442.67,-19.25 436.54,-27.89 443.27,-29.83"/>
</a>
</g>
</g>
<!-- Node11 -->
<g id="Node000011" class="node">
<title>Node11</title>
<g id="a_Node000011"><a xlink:href="ICollider_8h.html" target="_top" xlink:title=" ">
<polygon fill="white" stroke="#666666" points="509,-74 444,-74 444,-55 509,-55 509,-74"/>
<text text-anchor="middle" x="476.5" y="-62" font-family="Helvetica,sans-Serif" font-size="10.00">ICollider.h</text>
</a>
</g>
</g>
<!-- Node10&#45;&gt;Node11 -->
<g id="edge14_Node000010_Node000011" class="edge">
<title>Node10&#45;&gt;Node11</title>
<g id="a_edge14_Node000010_Node000011"><a xlink:title=" ">
<path fill="none" stroke="#63b8ff" d="M450.07,-115.37C454.56,-106.9 461.53,-93.74 467.19,-83.07"/>
<polygon fill="#63b8ff" stroke="#63b8ff" points="470.32,-84.64 471.91,-74.17 464.13,-81.36 470.32,-84.64"/>
</a>
</g>
</g>
<!-- Node11&#45;&gt;Node6 -->
<g id="edge15_Node000011_Node000006" class="edge">
<title>Node11&#45;&gt;Node6</title>
<g id="a_edge15_Node000011_Node000006"><a xlink:title=" ">
<path fill="none" stroke="#63b8ff" d="M471.38,-54.75C467.14,-47.49 460.97,-36.95 455.72,-27.98"/>
<polygon fill="#63b8ff" stroke="#63b8ff" points="458.59,-25.95 450.52,-19.09 452.55,-29.49 458.59,-25.95"/>
</a>
</g>
</g>
<!-- Node12&#45;&gt;Node6 -->
<g id="edge17_Node000012_Node000006" class="edge">
<title>Node12&#45;&gt;Node6</title>
<g id="a_edge17_Node000012_Node000006"><a xlink:title=" ">
<path fill="none" stroke="#63b8ff" d="M625.91,-181.3C620.95,-165.74 608.97,-132.64 590.5,-110 558.14,-70.34 505.98,-39.95 473.83,-23.7"/>
<polygon fill="#63b8ff" stroke="#63b8ff" points="475.05,-20.4 464.53,-19.12 471.95,-26.68 475.05,-20.4"/>
</a>
</g>
</g>
<!-- Node12&#45;&gt;Node9 -->
<g id="edge20_Node000012_Node000009" class="edge">
<title>Node12&#45;&gt;Node9</title>
<g id="a_edge20_Node000012_Node000009"><a xlink:title=" ">
<path fill="none" stroke="#63b8ff" d="M618.92,-181.37C607.66,-171.21 588.74,-154.16 574.87,-141.65"/>
<polygon fill="#63b8ff" stroke="#63b8ff" points="577.15,-139 567.38,-134.91 572.46,-144.2 577.15,-139"/>
</a>
</g>
</g>
<!-- Node13 -->
<g id="Node000013" class="node">
<title>Node13</title>
<g id="a_Node000013"><a xlink:href="IPickable_8h.html" target="_top" xlink:title=" ">
<polygon fill="white" stroke="#666666" points="739.5,-74 637.5,-74 637.5,-55 739.5,-55 739.5,-74"/>
<text text-anchor="middle" x="688.5" y="-62" font-family="Helvetica,sans-Serif" font-size="10.00">../core/IPickable.h</text>
</a>
</g>
</g>
<!-- Node12&#45;&gt;Node13 -->
<g id="edge18_Node000012_Node000013" class="edge">
<title>Node12&#45;&gt;Node13</title>
<g id="a_edge18_Node000012_Node000013"><a xlink:title=" ">
<path fill="none" stroke="#63b8ff" d="M632.62,-181.44C642.34,-161.27 666.85,-110.42 679.94,-83.26"/>
<polygon fill="#63b8ff" stroke="#63b8ff" points="683.16,-84.65 684.35,-74.12 676.85,-81.61 683.16,-84.65"/>
</a>
</g>
</g>
<!-- Node14 -->
<g id="Node000014" class="node">
<title>Node14</title>
<g id="a_Node000014"><a xlink:title=" ">
<polygon fill="#e0e0e0" stroke="#999999" points="741,-134.5 676,-134.5 676,-115.5 741,-115.5 741,-134.5"/>
<text text-anchor="middle" x="708.5" y="-122.5" font-family="Helvetica,sans-Serif" font-size="10.00">functional</text>
</a>
</g>
</g>
<!-- Node12&#45;&gt;Node14 -->
<g id="edge21_Node000012_Node000014" class="edge">
<title>Node12&#45;&gt;Node14</title>
<g id="a_edge21_Node000012_Node000014"><a xlink:title=" ">
<path fill="none" stroke="#63b8ff" d="M639.29,-181.37C652.17,-171.06 673.94,-153.65 689.63,-141.09"/>
<polygon fill="#63b8ff" stroke="#63b8ff" points="692,-143.68 697.63,-134.7 687.63,-138.21 692,-143.68"/>
</a>
</g>
</g>
<!-- Node15 -->
<g id="Node000015" class="node">
<title>Node15</title>
<g id="a_Node000015"><a xlink:title=" ">
<polygon fill="#e0e0e0" stroke="#999999" points="823.5,-134.5 759.5,-134.5 759.5,-115.5 823.5,-115.5 823.5,-134.5"/>
<text text-anchor="middle" x="791.5" y="-122.5" font-family="Helvetica,sans-Serif" font-size="10.00">algorithm</text>
</a>
</g>
</g>
<!-- Node12&#45;&gt;Node15 -->
<g id="edge22_Node000012_Node000015" class="edge">
<title>Node12&#45;&gt;Node15</title>
<g id="a_edge22_Node000012_Node000015"><a xlink:title=" ">
<path fill="none" stroke="#63b8ff" d="M650.48,-181.37C678.75,-170.27 728.04,-150.92 760.21,-138.28"/>
<polygon fill="#63b8ff" stroke="#63b8ff" points="761.58,-141.51 769.61,-134.6 759.02,-134.99 761.58,-141.51"/>
</a>
</g>
</g>
<!-- Node13&#45;&gt;Node6 -->
<g id="edge19_Node000013_Node000006" class="edge">
<title>Node13&#45;&gt;Node6</title>
<g id="a_edge19_Node000013_Node000006"><a xlink:title=" ">
<path fill="none" stroke="#63b8ff" d="M649.46,-54.98C607.42,-45.82 540.46,-31.21 494.82,-21.26"/>
<polygon fill="#63b8ff" stroke="#63b8ff" points="495.36,-17.79 484.85,-19.08 493.87,-24.63 495.36,-17.79"/>
</a>
</g>
</g>
</g>
</svg>

<g id="navigator" transform="translate(0 0)" fill="#404254">
  <rect fill="#f2f5e9" fill-opacity="0.5" stroke="#606060" stroke-width=".5" x="0" y="0" width="60" height="60"/>
  <use id="zoomplus" xlink:href="#zoomPlus" x="17" y="9" onmousedown="handleZoom(evt,'in')"/>
  <use id="zoomminus" xlink:href="#zoomMin" x="42" y="9" onmousedown="handleZoom(evt,'out')"/>
  <use id="reset" xlink:href="#resetDef" x="30" y="36" onmousedown="handleReset()"/>
   <use id="arrowup" xlink:href="#arrowUp" x="0" y="0" onmousedown="handlePan(0,-1)"/>
  <use id="arrowright" xlink:href="#arrowRight" x="0" y="0" onmousedown="handlePan(1,0)"/>
  <use id="arrowdown" xlink:href="#arrowDown" x="0" y="0" onmousedown="handlePan(0,1)"/>
  <use id="arrowleft" xlink:href="#arrowLeft" x="0" y="0" onmousedown="handlePan(-1,0)"/>
</g>
<svg viewBox="0 0 15 15" width="100%" height="30px" preserveAspectRatio="xMaxYMin meet">
 <g id="arrow_out" transform="scale(0.3 0.3)">
  <a xlink:href="ResourceManager_8cpp__incl_org.svg" target="_base">
   <rect id="button" ry="5" rx="5" y="6" x="6" height="38" width="38"
        fill="#f2f5e9" fill-opacity="0.5" stroke="#606060" stroke-width="1.0"/>
   <path id="arrow"
     d="M 11.500037,31.436501 C 11.940474,20.09759 22.043105,11.32322 32.158766,21.979434 L 37.068811,17.246167 C 37.068811,17.246167 37.088388,32 37.088388,32 L 22.160133,31.978069 C 22.160133,31.978069 26.997745,27.140456 26.997745,27.140456 C 18.528582,18.264221 13.291696,25.230495 11.500037,31.436501 z"
     style="fill:#404040;"/>
  </a>
 </g>
</svg>

<style type='text/css'>
<![CDATA[
[data-mouse-over-selected='false'] { opacity: 0.7; }
[data-mouse-over-selected='true']  { opacity: 1.0; }
]]>
</style>
<script type="application/ecmascript"><![CDATA[
document.addEventListener('DOMContentLoaded', (event) => {
  highlightEdges();
  highlightAdjacentNodes();
});
]]></script>
</svg>
