<?xml version="1.0" encoding="UTF-8" standalone="no"?>
<!DOCTYPE svg PUBLIC "-//W3C//DTD SVG 1.1//EN"
 "http://www.w3.org/Graphics/SVG/1.1/DTD/svg11.dtd">
<!-- Generated by graphviz version 2.43.0 (0)
 -->
<!-- Title: src/graphics/core/ResourceManager.h Pages: 1 -->
<!--zoomable 291 -->

<svg id="main" version="1.1" xmlns="http://www.w3.org/2000/svg" xmlns:xlink="http://www.w3.org/1999/xlink" xml:space="preserve" onload="init(evt)">
<style type="text/css"><![CDATA[
.node, .edge {opacity: 0.7;}
.node.selected, .edge.selected {opacity: 1;}
.edge:hover path { stroke: red; }
.edge:hover polygon { stroke: red; fill: red; }
]]></style>

<defs>
  <circle id="rim" cx="0" cy="0" r="7"/>
  <circle id="rim2" cx="0" cy="0" r="3.5"/>
  <g id="zoomPlus">
    <use xlink:href="#rim" fill="#404040"><set attributeName="fill" to="#808080" begin="zoomplus.mouseover" end="zoomplus.mouseout"/></use>
    <path d="M-4,0h8M0,-4v8" fill="none" stroke="white" stroke-width="1.5" pointer-events="none"/>
  </g>
  <g id="zoomMin">
    <use xlink:href="#rim" fill="#404040"><set attributeName="fill" to="#808080" begin="zoomminus.mouseover" end="zoomminus.mouseout"/></use>
    <path d="M-4,0h8" fill="none" stroke="white" stroke-width="1.5" pointer-events="none"/>
  </g>
  <g id="arrowUp" transform="translate(30 24)">
    <use xlink:href="#rim"/>
    <path pointer-events="none" fill="none" stroke="white" stroke-width="1.5" d="M0,-3.0v7 M-2.5,-0.5L0,-3.0L2.5,-0.5"/>
  </g>
  <g id="arrowRight" transform="rotate(90) translate(36 -43)">
    <use xlink:href="#rim"/>
    <path pointer-events="none" fill="none" stroke="white" stroke-width="1.5" d="M0,-3.0v7 M-2.5,-0.5L0,-3.0L2.5,-0.5"/>
  </g>
  <g id="arrowDown" transform="rotate(180) translate(-30 -48)">
    <use xlink:href="#rim"/>
    <path pointer-events="none" fill="none" stroke="white" stroke-width="1.5" d="M0,-3.0v7 M-2.5,-0.5L0,-3.0L2.5,-0.5"/>
  </g>
  <g id="arrowLeft" transform="rotate(270) translate(-36 17)">
    <use xlink:href="#rim"/>
    <path pointer-events="none" fill="none" stroke="white" stroke-width="1.5" d="M0,-3.0v7 M-2.5,-0.5L0,-3.0L2.5,-0.5"/>
  </g>
  <g id="resetDef">
    <use xlink:href="#rim2" fill="#404040"><set attributeName="fill" to="#808080" begin="reset.mouseover" end="reset.mouseout"/></use>
  </g>
</defs>
<script type="application/ecmascript">
var viewWidth = 3827;
var viewHeight = 291;
var sectionId = 'dynsection-1';
</script>
<script type="application/ecmascript" xlink:href="svg.min.js"/>
<svg id="graph" class="graph">
<g id="viewport">
<title>src/graphics/core/ResourceManager.h</title>
<!-- Node1 -->
<g id="Node000001" class="node">
<title>Node1</title>
<g id="a_Node000001"><a xlink:title=" ">
<polygon fill="#999999" stroke="#666666" points="2250.5,-283 2103.5,-283 2103.5,-253 2250.5,-253 2250.5,-283"/>
<text text-anchor="start" x="2111.5" y="-271" font-family="Helvetica,sans-Serif" font-size="10.00">src/graphics/core/Resource</text>
<text text-anchor="middle" x="2177" y="-260" font-family="Helvetica,sans-Serif" font-size="10.00">Manager.h</text>
</a>
</g>
</g>
<!-- Node2 -->
<g id="Node000002" class="node">
<title>Node2</title>
<g id="a_Node000002"><a xlink:href="Gizmo_8cpp.html" target="_top" xlink:title=" ">
<polygon fill="white" stroke="#666666" points="2721,-30 2583,-30 2583,0 2721,0 2721,-30"/>
<text text-anchor="start" x="2591" y="-18" font-family="Helvetica,sans-Serif" font-size="10.00">src/graphics/components</text>
<text text-anchor="middle" x="2652" y="-7" font-family="Helvetica,sans-Serif" font-size="10.00">/Gizmo.cpp</text>
</a>
</g>
</g>
<!-- Node1&#45;&gt;Node2 -->
<g id="edge1_Node000001_Node000002" class="edge">
<title>Node1&#45;&gt;Node2</title>
<g id="a_edge1_Node000001_Node000002"><a xlink:title=" ">
<path fill="none" stroke="#63b8ff" d="M2261.03,-266.24C2543.08,-262.81 3443.16,-244.56 3529,-151 3547.79,-130.52 3550.24,-97.77 3510,-66 3441.91,-12.24 2816.22,-39.68 2730,-30 2727.13,-29.68 2724.2,-29.31 2721.25,-28.92"/>
<polygon fill="#63b8ff" stroke="#63b8ff" points="2260.82,-262.74 2250.86,-266.36 2260.9,-269.74 2260.82,-262.74"/>
</a>
</g>
</g>
<!-- Node3 -->
<g id="Node000003" class="node">
<title>Node3</title>
<g id="a_Node000003"><a xlink:href="RotateHandle_8cpp.html" target="_top" xlink:title=" ">
<polygon fill="white" stroke="#666666" points="296,-96 158,-96 158,-66 296,-66 296,-96"/>
<text text-anchor="start" x="166" y="-84" font-family="Helvetica,sans-Serif" font-size="10.00">src/graphics/components</text>
<text text-anchor="middle" x="227" y="-73" font-family="Helvetica,sans-Serif" font-size="10.00">/RotateHandle.cpp</text>
</a>
</g>
</g>
<!-- Node1&#45;&gt;Node3 -->
<g id="edge2_Node000001_Node000003" class="edge">
<title>Node1&#45;&gt;Node3</title>
<g id="a_edge2_Node000001_Node000003"><a xlink:title=" ">
<path fill="none" stroke="#63b8ff" d="M2092.94,-267.25C1816.11,-267.59 934.81,-264.8 655,-217 503.7,-191.15 331.81,-125.14 260.61,-96.09"/>
<polygon fill="#63b8ff" stroke="#63b8ff" points="2093.32,-270.75 2103.31,-267.23 2093.31,-263.75 2093.32,-270.75"/>
</a>
</g>
</g>
<!-- Node4 -->
<g id="Node000004" class="node">
<title>Node4</title>
<g id="a_Node000004"><a xlink:href="ScaleHandle_8cpp.html" target="_top" xlink:title=" ">
<polygon fill="white" stroke="#666666" points="1060,-30 922,-30 922,0 1060,0 1060,-30"/>
<text text-anchor="start" x="930" y="-18" font-family="Helvetica,sans-Serif" font-size="10.00">src/graphics/components</text>
<text text-anchor="middle" x="991" y="-7" font-family="Helvetica,sans-Serif" font-size="10.00">/ScaleHandle.cpp</text>
</a>
</g>
</g>
<!-- Node1&#45;&gt;Node4 -->
<g id="edge3_Node000001_Node000004" class="edge">
<title>Node1&#45;&gt;Node4</title>
<g id="a_edge3_Node000001_Node000004"><a xlink:title=" ">
<path fill="none" stroke="#63b8ff" d="M2093.36,-266.27C1735.62,-262.97 348.29,-248.19 261,-217 189.08,-191.3 161.28,-169.04 139,-96 135.11,-83.25 129.85,-75.7 139,-66 165.72,-37.67 723.24,-22.15 921.65,-17.51"/>
<polygon fill="#63b8ff" stroke="#63b8ff" points="2093.36,-269.77 2103.39,-266.36 2093.43,-262.77 2093.36,-269.77"/>
</a>
</g>
</g>
<!-- Node5 -->
<g id="Node000005" class="node">
<title>Node5</title>
<g id="a_Node000005"><a xlink:href="ResourceManager_8cpp.html" target="_top" xlink:title=" ">
<polygon fill="white" stroke="#666666" points="3818.5,-217 3671.5,-217 3671.5,-187 3818.5,-187 3818.5,-217"/>
<text text-anchor="start" x="3679.5" y="-205" font-family="Helvetica,sans-Serif" font-size="10.00">src/graphics/core/Resource</text>
<text text-anchor="middle" x="3745" y="-194" font-family="Helvetica,sans-Serif" font-size="10.00">Manager.cpp</text>
</a>
</g>
</g>
<!-- Node1&#45;&gt;Node5 -->
<g id="edge4_Node000001_Node000005" class="edge">
<title>Node1&#45;&gt;Node5</title>
<g id="a_edge4_Node000001_Node000005"><a xlink:title=" ">
<path fill="none" stroke="#63b8ff" d="M2260.86,-265.54C2531.97,-260.59 3383.02,-243.32 3657,-217 3661.62,-216.56 3666.37,-216.02 3671.14,-215.43"/>
<polygon fill="#63b8ff" stroke="#63b8ff" points="2260.63,-262.04 2250.7,-265.72 2260.76,-269.04 2260.63,-262.04"/>
</a>
</g>
</g>
<!-- Node6 -->
<g id="Node000006" class="node">
<title>Node6</title>
<g id="a_Node000006"><a xlink:href="Scene_8cpp.html" target="_top" xlink:title=" ">
<polygon fill="white" stroke="#666666" points="466,-90.5 314,-90.5 314,-71.5 466,-71.5 466,-90.5"/>
<text text-anchor="middle" x="390" y="-78.5" font-family="Helvetica,sans-Serif" font-size="10.00">src/graphics/core/Scene.cpp</text>
</a>
</g>
</g>
<!-- Node1&#45;&gt;Node6 -->
<g id="edge5_Node000001_Node000006" class="edge">
<title>Node1&#45;&gt;Node6</title>
<g id="a_edge5_Node000001_Node000006"><a xlink:title=" ">
<path fill="none" stroke="#63b8ff" d="M2092.89,-267.06C1830.67,-266.78 1030.31,-262.14 775,-217 627.83,-190.98 461.72,-116.14 407.86,-90.64"/>
<polygon fill="#63b8ff" stroke="#63b8ff" points="2093.11,-270.56 2103.11,-267.07 2093.12,-263.56 2093.11,-270.56"/>
</a>
</g>
</g>
<!-- Node7 -->
<g id="Node000007" class="node">
<title>Node7</title>
<g id="a_Node000007"><a xlink:href="SceneManager_8cpp.html" target="_top" xlink:title=" ">
<polygon fill="white" stroke="#666666" points="1694,-24.5 1500,-24.5 1500,-5.5 1694,-5.5 1694,-24.5"/>
<text text-anchor="middle" x="1597" y="-12.5" font-family="Helvetica,sans-Serif" font-size="10.00">src/graphics/core/SceneManager.cpp</text>
</a>
</g>
</g>
<!-- Node1&#45;&gt;Node7 -->
<g id="edge6_Node000001_Node000007" class="edge">
<title>Node1&#45;&gt;Node7</title>
<g id="a_edge6_Node000001_Node000007"><a xlink:title=" ">
<path fill="none" stroke="#63b8ff" d="M2092.83,-265.85C1777.74,-261.35 677.94,-243.85 523,-217 350.86,-187.17 251.78,-237.27 149,-96 141.16,-85.22 139.74,-75.59 149,-66 160.76,-53.83 1177.04,-26.76 1499.79,-18.47"/>
<polygon fill="#63b8ff" stroke="#63b8ff" points="2093.22,-269.35 2103.26,-266 2093.32,-262.35 2093.22,-269.35"/>
</a>
</g>
</g>
<!-- Node8 -->
<g id="Node000008" class="node">
<title>Node8</title>
<g id="a_Node000008"><a xlink:href="SceneManager_8h.html" target="_top" xlink:title=" ">
<polygon fill="white" stroke="#666666" points="2487,-211.5 2305,-211.5 2305,-192.5 2487,-192.5 2487,-211.5"/>
<text text-anchor="middle" x="2396" y="-199.5" font-family="Helvetica,sans-Serif" font-size="10.00">src/graphics/core/SceneManager.h</text>
</a>
</g>
</g>
<!-- Node1&#45;&gt;Node8 -->
<g id="edge7_Node000001_Node000008" class="edge">
<title>Node1&#45;&gt;Node8</title>
<g id="a_edge7_Node000001_Node000008"><a xlink:title=" ">
<path fill="none" stroke="#63b8ff" d="M2234.73,-250.13C2277.24,-237.71 2333.27,-221.33 2366.85,-211.52"/>
<polygon fill="#63b8ff" stroke="#63b8ff" points="2233.68,-246.79 2225.06,-252.95 2235.64,-253.51 2233.68,-246.79"/>
</a>
</g>
</g>
<!-- Node9 -->
<g id="Node000009" class="node">
<title>Node9</title>
<g id="a_Node000009"><a xlink:href="SceneObject_8cpp.html" target="_top" xlink:title=" ">
<polygon fill="white" stroke="#666666" points="3095.5,-90.5 2912.5,-90.5 2912.5,-71.5 3095.5,-71.5 3095.5,-90.5"/>
<text text-anchor="middle" x="3004" y="-78.5" font-family="Helvetica,sans-Serif" font-size="10.00">src/graphics/core/SceneObject.cpp</text>
</a>
</g>
</g>
<!-- Node1&#45;&gt;Node9 -->
<g id="edge55_Node000001_Node000009" class="edge">
<title>Node1&#45;&gt;Node9</title>
<g id="a_edge55_Node000001_Node000009"><a xlink:title=" ">
<path fill="none" stroke="#63b8ff" d="M2260.63,-256C2325.19,-247 2416.61,-233.15 2496,-217 2614.09,-192.98 2642.54,-182 2759,-151 2837.14,-130.2 2928.76,-103.88 2974.66,-90.56"/>
<polygon fill="#63b8ff" stroke="#63b8ff" points="2259.93,-252.56 2250.5,-257.4 2260.89,-259.5 2259.93,-252.56"/>
</a>
</g>
</g>
<!-- Node14 -->
<g id="Node000014" class="node">
<title>Node14</title>
<g id="a_Node000014"><a xlink:href="SceneSerializer_8cpp.html" target="_top" xlink:title=" ">
<polygon fill="white" stroke="#666666" points="845.5,-90.5 648.5,-90.5 648.5,-71.5 845.5,-71.5 845.5,-90.5"/>
<text text-anchor="middle" x="747" y="-78.5" font-family="Helvetica,sans-Serif" font-size="10.00">src/graphics/core/SceneSerializer.cpp</text>
</a>
</g>
</g>
<!-- Node1&#45;&gt;Node14 -->
<g id="edge56_Node000001_Node000014" class="edge">
<title>Node1&#45;&gt;Node14</title>
<g id="a_edge56_Node000001_Node000014"><a xlink:title=" ">
<path fill="none" stroke="#63b8ff" d="M2093.51,-256.25C1884.64,-229.36 1322.59,-156.94 854,-96 840.44,-94.24 825.91,-92.34 812.07,-90.53"/>
<polygon fill="#63b8ff" stroke="#63b8ff" points="2093.12,-259.73 2103.49,-257.54 2094.02,-252.79 2093.12,-259.73"/>
</a>
</g>
</g>
<!-- Node15 -->
<g id="Node000015" class="node">
<title>Node15</title>
<g id="a_Node000015"><a xlink:href="Colliders_8cpp.html" target="_top" xlink:title=" ">
<polygon fill="white" stroke="#666666" points="592,-96 484,-96 484,-66 592,-66 592,-96"/>
<text text-anchor="start" x="492" y="-84" font-family="Helvetica,sans-Serif" font-size="10.00">src/graphics/debug</text>
<text text-anchor="middle" x="538" y="-73" font-family="Helvetica,sans-Serif" font-size="10.00">/Colliders.cpp</text>
</a>
</g>
</g>
<!-- Node1&#45;&gt;Node15 -->
<g id="edge57_Node000001_Node000015" class="edge">
<title>Node1&#45;&gt;Node15</title>
<g id="a_edge57_Node000001_Node000015"><a xlink:title=" ">
<path fill="none" stroke="#63b8ff" d="M2093.1,-264.48C1786.06,-254.78 734.49,-216.98 600,-151 575.42,-138.94 556.15,-112.47 545.97,-96.05"/>
<polygon fill="#63b8ff" stroke="#63b8ff" points="2093.17,-267.99 2103.27,-264.8 2093.39,-260.99 2093.17,-267.99"/>
</a>
</g>
</g>
<!-- Node17 -->
<g id="Node000017" class="node">
<title>Node17</title>
<g id="a_Node000017"><a xlink:href="Forces_8cpp.html" target="_top" xlink:title=" ">
<polygon fill="white" stroke="#666666" points="108,-30 0,-30 0,0 108,0 108,-30"/>
<text text-anchor="start" x="8" y="-18" font-family="Helvetica,sans-Serif" font-size="10.00">src/graphics/debug</text>
<text text-anchor="middle" x="54" y="-7" font-family="Helvetica,sans-Serif" font-size="10.00">/Forces.cpp</text>
</a>
</g>
</g>
<!-- Node1&#45;&gt;Node17 -->
<g id="edge58_Node000001_Node000017" class="edge">
<title>Node1&#45;&gt;Node17</title>
<g id="a_edge58_Node000001_Node000017"><a xlink:title=" ">
<path fill="none" stroke="#63b8ff" d="M2093.23,-266.9C1726.85,-266.18 279.75,-260.6 194,-217 114.96,-176.82 71.8,-68.76 58.51,-30.04"/>
<polygon fill="#63b8ff" stroke="#63b8ff" points="2093.23,-270.39 2103.24,-266.91 2093.25,-263.39 2093.23,-270.39"/>
</a>
</g>
</g>
<!-- Node18 -->
<g id="Node000018" class="node">
<title>Node18</title>
<g id="a_Node000018"><a xlink:href="PathTraces_8cpp.html" target="_top" xlink:title=" ">
<polygon fill="white" stroke="#666666" points="3505,-30 3397,-30 3397,0 3505,0 3505,-30"/>
<text text-anchor="start" x="3405" y="-18" font-family="Helvetica,sans-Serif" font-size="10.00">src/graphics/debug</text>
<text text-anchor="middle" x="3451" y="-7" font-family="Helvetica,sans-Serif" font-size="10.00">/PathTraces.cpp</text>
</a>
</g>
</g>
<!-- Node1&#45;&gt;Node18 -->
<g id="edge59_Node000001_Node000018" class="edge">
<title>Node1&#45;&gt;Node18</title>
<g id="a_edge59_Node000001_Node000018"><a xlink:title=" ">
<path fill="none" stroke="#63b8ff" d="M2261.1,-267.07C2497.45,-266.72 3164.26,-261.66 3378,-217 3457.34,-200.42 3502.22,-217.88 3548,-151 3560.09,-133.34 3561.17,-102.05 3536,-66 3524.73,-49.86 3506.43,-38.13 3489.7,-30.1"/>
<polygon fill="#63b8ff" stroke="#63b8ff" points="2260.84,-263.57 2250.85,-267.09 2260.85,-270.57 2260.84,-263.57"/>
</a>
</g>
</g>
<!-- Node20 -->
<g id="Node000020" class="node">
<title>Node20</title>
<g id="a_Node000020"><a xlink:href="AstronomyPresets_8cpp.html" target="_top" xlink:title=" ">
<polygon fill="white" stroke="#666666" points="3242.5,-96 3113.5,-96 3113.5,-66 3242.5,-66 3242.5,-96"/>
<text text-anchor="start" x="3121.5" y="-84" font-family="Helvetica,sans-Serif" font-size="10.00">src/graphics/presets</text>
<text text-anchor="middle" x="3178" y="-73" font-family="Helvetica,sans-Serif" font-size="10.00">/AstronomyPresets.cpp</text>
</a>
</g>
</g>
<!-- Node1&#45;&gt;Node20 -->
<g id="edge60_Node000001_Node000020" class="edge">
<title>Node1&#45;&gt;Node20</title>
<g id="a_edge60_Node000001_Node000020"><a xlink:title=" ">
<path fill="none" stroke="#63b8ff" d="M2260.94,-258.76C2341.53,-250.3 2466.53,-235.73 2574,-217 2778.29,-181.39 3017.85,-122.74 3123.38,-96.03"/>
<polygon fill="#63b8ff" stroke="#63b8ff" points="2260.43,-255.29 2250.85,-259.81 2261.16,-262.26 2260.43,-255.29"/>
</a>
</g>
</g>
<!-- Node24 -->
<g id="Node000024" class="node">
<title>Node24</title>
<g id="a_Node000024"><a xlink:href="OpenGLWindow_8cpp.html" target="_top" xlink:title=" ">
<polygon fill="white" stroke="#666666" points="3403,-90.5 3261,-90.5 3261,-71.5 3403,-71.5 3403,-90.5"/>
<text text-anchor="middle" x="3332" y="-78.5" font-family="Helvetica,sans-Serif" font-size="10.00">src/ui/OpenGLWindow.cpp</text>
</a>
</g>
</g>
<!-- Node1&#45;&gt;Node24 -->
<g id="edge61_Node000001_Node000024" class="edge">
<title>Node1&#45;&gt;Node24</title>
<g id="a_edge61_Node000001_Node000024"><a xlink:title=" ">
<path fill="none" stroke="#63b8ff" d="M2260.95,-260.9C2358.44,-253.24 2523.91,-238.45 2665,-217 2907.95,-180.06 3196.43,-114.03 3296.07,-90.56"/>
<polygon fill="#63b8ff" stroke="#63b8ff" points="2260.56,-257.42 2250.86,-261.69 2261.11,-264.4 2260.56,-257.42"/>
</a>
</g>
</g>
<!-- Node8&#45;&gt;Node2 -->
<g id="edge8_Node000008_Node000002" class="edge">
<title>Node8&#45;&gt;Node2</title>
<g id="a_edge8_Node000008_Node000002"><a xlink:title=" ">
<path fill="none" stroke="#63b8ff" d="M2492.07,-191.12C2547.13,-183.44 2608.98,-170.72 2628,-151 2660.06,-117.76 2657.31,-57.37 2654.1,-30.07"/>
<polygon fill="#63b8ff" stroke="#63b8ff" points="2491.32,-187.69 2481.88,-192.49 2492.26,-194.63 2491.32,-187.69"/>
</a>
</g>
</g>
<!-- Node8&#45;&gt;Node7 -->
<g id="edge9_Node000008_Node000007" class="edge">
<title>Node8&#45;&gt;Node7</title>
<g id="a_edge9_Node000008_Node000007"><a xlink:title=" ">
<path fill="none" stroke="#63b8ff" d="M2441.37,-189.73C2515.53,-169.33 2649.27,-123.06 2595,-66 2564.27,-33.69 1939.03,-21.03 1694.15,-17.29"/>
<polygon fill="#63b8ff" stroke="#63b8ff" points="2440.07,-186.45 2431.33,-192.43 2441.89,-193.21 2440.07,-186.45"/>
</a>
</g>
</g>
<!-- Node8&#45;&gt;Node9 -->
<g id="edge10_Node000008_Node000009" class="edge">
<title>Node8&#45;&gt;Node9</title>
<g id="a_edge10_Node000008_Node000009"><a xlink:title=" ">
<path fill="none" stroke="#63b8ff" d="M2465.98,-190.97C2528.55,-181.68 2622.67,-166.94 2704,-151 2801.02,-131.99 2914.49,-104.42 2969.96,-90.59"/>
<polygon fill="#63b8ff" stroke="#63b8ff" points="2465.21,-187.54 2455.83,-192.47 2466.23,-194.47 2465.21,-187.54"/>
</a>
</g>
</g>
<!-- Node10 -->
<g id="Node000010" class="node">
<title>Node10</title>
<g id="a_Node000010"><a xlink:href="SceneObject_8h.html" target="_top" xlink:title=" ">
<polygon fill="white" stroke="#666666" points="2128,-151 1956,-151 1956,-132 2128,-132 2128,-151"/>
<text text-anchor="middle" x="2042" y="-139" font-family="Helvetica,sans-Serif" font-size="10.00">src/graphics/core/SceneObject.h</text>
</a>
</g>
</g>
<!-- Node8&#45;&gt;Node10 -->
<g id="edge11_Node000008_Node000010" class="edge">
<title>Node8&#45;&gt;Node10</title>
<g id="a_edge11_Node000008_Node000010"><a xlink:title=" ">
<path fill="none" stroke="#63b8ff" d="M2334.35,-190.81C2266.13,-179.54 2157.4,-161.57 2093.54,-151.02"/>
<polygon fill="#63b8ff" stroke="#63b8ff" points="2334.09,-194.32 2344.53,-192.49 2335.23,-187.41 2334.09,-194.32"/>
</a>
</g>
</g>
<!-- Node8&#45;&gt;Node15 -->
<g id="edge45_Node000008_Node000015" class="edge">
<title>Node8&#45;&gt;Node15</title>
<g id="a_edge45_Node000008_Node000015"><a xlink:title=" ">
<path fill="none" stroke="#63b8ff" d="M2294.68,-201.28C1945.1,-201.8 802.17,-199.73 645,-151 608.9,-139.81 573.28,-112.78 553.61,-96.07"/>
<polygon fill="#63b8ff" stroke="#63b8ff" points="2294.8,-204.78 2304.79,-201.26 2294.79,-197.78 2294.8,-204.78"/>
</a>
</g>
</g>
<!-- Node8&#45;&gt;Node17 -->
<g id="edge46_Node000008_Node000017" class="edge">
<title>Node8&#45;&gt;Node17</title>
<g id="a_edge46_Node000008_Node000017"><a xlink:title=" ">
<path fill="none" stroke="#63b8ff" d="M2294.42,-201.49C2020.49,-202.11 1243.78,-199.11 600,-151 398.63,-135.95 334.14,-176.61 149,-96 114.21,-80.85 82.35,-48.72 65.84,-30.12"/>
<polygon fill="#63b8ff" stroke="#63b8ff" points="2294.74,-204.99 2304.73,-201.47 2294.73,-197.99 2294.74,-204.99"/>
</a>
</g>
</g>
<!-- Node8&#45;&gt;Node18 -->
<g id="edge47_Node000008_Node000018" class="edge">
<title>Node8&#45;&gt;Node18</title>
<g id="a_edge47_Node000008_Node000018"><a xlink:title=" ">
<path fill="none" stroke="#63b8ff" d="M2497.5,-200.28C2768.97,-197.86 3493.64,-187.96 3529,-151 3539.37,-140.16 3557.67,-122.08 3526,-66 3517,-50.06 3500.56,-38.24 3485.36,-30.11"/>
<polygon fill="#63b8ff" stroke="#63b8ff" points="2497.22,-196.78 2487.26,-200.37 2497.29,-203.78 2497.22,-196.78"/>
</a>
</g>
</g>
<!-- Node8&#45;&gt;Node20 -->
<g id="edge48_Node000008_Node000020" class="edge">
<title>Node8&#45;&gt;Node20</title>
<g id="a_edge48_Node000008_Node000020"><a xlink:title=" ">
<path fill="none" stroke="#63b8ff" d="M2471.92,-191.1C2601.9,-173.86 2875.29,-136.27 3105,-96 3107.67,-95.53 3110.39,-95.05 3113.14,-94.55"/>
<polygon fill="#63b8ff" stroke="#63b8ff" points="2471.13,-187.68 2461.68,-192.46 2472.05,-194.62 2471.13,-187.68"/>
</a>
</g>
</g>
<!-- Node8&#45;&gt;Node24 -->
<g id="edge52_Node000008_Node000024" class="edge">
<title>Node8&#45;&gt;Node24</title>
<g id="a_edge52_Node000008_Node000024"><a xlink:title=" ">
<path fill="none" stroke="#63b8ff" d="M2489.6,-191.41C2647.3,-174.82 2975.78,-138.45 3252,-96 3262.73,-94.35 3274.24,-92.43 3285.1,-90.54"/>
<polygon fill="#63b8ff" stroke="#63b8ff" points="2489.05,-187.94 2479.47,-192.47 2489.78,-194.91 2489.05,-187.94"/>
</a>
</g>
</g>
<!-- Node26 -->
<g id="Node000026" class="node">
<title>Node26</title>
<g id="a_Node000026"><a xlink:href="GlobalsInspectorWidget_8cpp.html" target="_top" xlink:title=" ">
<polygon fill="white" stroke="#666666" points="994.5,-96 863.5,-96 863.5,-66 994.5,-66 994.5,-96"/>
<text text-anchor="start" x="871.5" y="-84" font-family="Helvetica,sans-Serif" font-size="10.00">src/ui/inspector/Globals</text>
<text text-anchor="middle" x="929" y="-73" font-family="Helvetica,sans-Serif" font-size="10.00">InspectorWidget.cpp</text>
</a>
</g>
</g>
<!-- Node8&#45;&gt;Node26 -->
<g id="edge53_Node000008_Node000026" class="edge">
<title>Node8&#45;&gt;Node26</title>
<g id="a_edge53_Node000008_Node000026"><a xlink:title=" ">
<path fill="none" stroke="#63b8ff" d="M2294.52,-196.45C2134.74,-188.97 1814.8,-172.7 1544,-151 1423.54,-141.35 1122.59,-113.36 1003,-96 1000.28,-95.61 997.51,-95.18 994.72,-94.74"/>
<polygon fill="#63b8ff" stroke="#63b8ff" points="2294.66,-199.96 2304.81,-196.93 2294.99,-192.97 2294.66,-199.96"/>
</a>
</g>
</g>
<!-- Node27 -->
<g id="Node000027" class="node">
<title>Node27</title>
<g id="a_Node000027"><a xlink:href="InspectorWidget_8cpp.html" target="_top" xlink:title=" ">
<polygon fill="white" stroke="#666666" points="1151.5,-96 1012.5,-96 1012.5,-66 1151.5,-66 1151.5,-96"/>
<text text-anchor="start" x="1020.5" y="-84" font-family="Helvetica,sans-Serif" font-size="10.00">src/ui/inspector/Inspector</text>
<text text-anchor="middle" x="1082" y="-73" font-family="Helvetica,sans-Serif" font-size="10.00">Widget.cpp</text>
</a>
</g>
</g>
<!-- Node8&#45;&gt;Node27 -->
<g id="edge54_Node000008_Node000027" class="edge">
<title>Node8&#45;&gt;Node27</title>
<g id="a_edge54_Node000008_Node000027"><a xlink:title=" ">
<path fill="none" stroke="#63b8ff" d="M2294.65,-193.57C2040.29,-174.75 1379.73,-124.62 1161,-96 1157.96,-95.6 1154.86,-95.17 1151.73,-94.71"/>
<polygon fill="#63b8ff" stroke="#63b8ff" points="2294.76,-197.09 2304.99,-194.34 2295.27,-190.11 2294.76,-197.09"/>
</a>
</g>
</g>
<!-- Node31 -->
<g id="Node000031" class="node">
<title>Node31</title>
<g id="a_Node000031"><a xlink:href="SceneSerializer_8h.html" target="_top" xlink:title=" ">
<polygon fill="white" stroke="#666666" points="839.5,-151 654.5,-151 654.5,-132 839.5,-132 839.5,-151"/>
<text text-anchor="middle" x="747" y="-139" font-family="Helvetica,sans-Serif" font-size="10.00">src/graphics/core/SceneSerializer.h</text>
</a>
</g>
</g>
<!-- Node8&#45;&gt;Node31 -->
<g id="edge42_Node000008_Node000031" class="edge">
<title>Node8&#45;&gt;Node31</title>
<g id="a_edge42_Node000008_Node000031"><a xlink:title=" ">
<path fill="none" stroke="#63b8ff" d="M2294.63,-197.4C1996.55,-186.83 1125.89,-155.94 839.5,-145.78"/>
<polygon fill="#63b8ff" stroke="#63b8ff" points="2294.88,-200.91 2304.99,-197.77 2295.12,-193.92 2294.88,-200.91"/>
</a>
</g>
</g>
<!-- Node32 -->
<g id="Node000032" class="node">
<title>Node32</title>
<g id="a_Node000032"><a xlink:href="MainWindow_8h.html" target="_top" xlink:title=" ">
<polygon fill="white" stroke="#666666" points="3519.5,-151 3402.5,-151 3402.5,-132 3519.5,-132 3519.5,-151"/>
<text text-anchor="middle" x="3461" y="-139" font-family="Helvetica,sans-Serif" font-size="10.00">src/ui/MainWindow.h</text>
</a>
</g>
</g>
<!-- Node8&#45;&gt;Node32 -->
<g id="edge49_Node000008_Node000032" class="edge">
<title>Node8&#45;&gt;Node32</title>
<g id="a_edge49_Node000008_Node000032"><a xlink:title=" ">
<path fill="none" stroke="#63b8ff" d="M2497.48,-195.43C2716.7,-183.38 3228.74,-155.26 3402.28,-145.73"/>
<polygon fill="#63b8ff" stroke="#63b8ff" points="2497.05,-191.94 2487.26,-195.99 2497.44,-198.93 2497.05,-191.94"/>
</a>
</g>
</g>
<!-- Node10&#45;&gt;Node2 -->
<g id="edge12_Node000010_Node000002" class="edge">
<title>Node10&#45;&gt;Node2</title>
<g id="a_edge12_Node000010_Node000002"><a xlink:title=" ">
<path fill="none" stroke="#63b8ff" d="M2138.25,-137.16C2286.15,-131.36 2556.36,-117.92 2595,-96 2621.11,-81.19 2638.26,-48.93 2646.43,-30.22"/>
<polygon fill="#63b8ff" stroke="#63b8ff" points="2138.11,-133.66 2128.25,-137.54 2138.38,-140.65 2138.11,-133.66"/>
</a>
</g>
</g>
<!-- Node10&#45;&gt;Node3 -->
<g id="edge13_Node000010_Node000003" class="edge">
<title>Node10&#45;&gt;Node3</title>
<g id="a_edge13_Node000010_Node000003"><a xlink:title=" ">
<path fill="none" stroke="#63b8ff" d="M1945.71,-139.96C1629.83,-137.89 627.02,-128.83 305,-96 302.13,-95.71 299.2,-95.37 296.25,-94.99"/>
<polygon fill="#63b8ff" stroke="#63b8ff" points="1945.73,-143.46 1955.75,-140.03 1945.77,-136.46 1945.73,-143.46"/>
</a>
</g>
</g>
<!-- Node10&#45;&gt;Node6 -->
<g id="edge19_Node000010_Node000006" class="edge">
<title>Node10&#45;&gt;Node6</title>
<g id="a_edge19_Node000010_Node000006"><a xlink:title=" ">
<path fill="none" stroke="#63b8ff" d="M1945.47,-139.47C1650.3,-136.03 762.48,-123.63 475,-96 461.9,-94.74 447.76,-92.69 434.85,-90.55"/>
<polygon fill="#63b8ff" stroke="#63b8ff" points="1945.67,-142.97 1955.71,-139.58 1945.75,-135.97 1945.67,-142.97"/>
</a>
</g>
</g>
<!-- Node10&#45;&gt;Node7 -->
<g id="edge20_Node000010_Node000007" class="edge">
<title>Node10&#45;&gt;Node7</title>
<g id="a_edge20_Node000010_Node000007"><a xlink:title=" ">
<path fill="none" stroke="#63b8ff" d="M2138.27,-136.08C2247.12,-130.06 2411.8,-117.52 2431,-96 2439.88,-86.05 2440.14,-75.71 2431,-66 2406.08,-39.54 1908.61,-23.86 1694.09,-18.3"/>
<polygon fill="#63b8ff" stroke="#63b8ff" points="2138.04,-132.58 2128.24,-136.62 2138.42,-139.57 2138.04,-132.58"/>
</a>
</g>
</g>
<!-- Node10&#45;&gt;Node9 -->
<g id="edge21_Node000010_Node000009" class="edge">
<title>Node10&#45;&gt;Node9</title>
<g id="a_edge21_Node000010_Node000009"><a xlink:title=" ">
<path fill="none" stroke="#63b8ff" d="M2138.33,-137.98C2296.97,-133.28 2623.04,-121.26 2898,-96 2913.53,-94.57 2930.28,-92.58 2945.78,-90.54"/>
<polygon fill="#63b8ff" stroke="#63b8ff" points="2138.02,-134.49 2128.12,-138.28 2138.22,-141.49 2138.02,-134.49"/>
</a>
</g>
</g>
<!-- Node11 -->
<g id="Node000011" class="node">
<title>Node11</title>
<g id="a_Node000011"><a xlink:href="ScaleHandle_8h.html" target="_top" xlink:title=" ">
<polygon fill="white" stroke="#666666" points="1434,-96 1296,-96 1296,-66 1434,-66 1434,-96"/>
<text text-anchor="start" x="1304" y="-84" font-family="Helvetica,sans-Serif" font-size="10.00">src/graphics/components</text>
<text text-anchor="middle" x="1365" y="-73" font-family="Helvetica,sans-Serif" font-size="10.00">/ScaleHandle.h</text>
</a>
</g>
</g>
<!-- Node10&#45;&gt;Node11 -->
<g id="edge14_Node000010_Node000011" class="edge">
<title>Node10&#45;&gt;Node11</title>
<g id="a_edge14_Node000010_Node000011"><a xlink:title=" ">
<path fill="none" stroke="#63b8ff" d="M1945.78,-136.42C1827.19,-130.69 1619.67,-118.36 1443,-96 1440.13,-95.64 1437.21,-95.24 1434.27,-94.82"/>
<polygon fill="#63b8ff" stroke="#63b8ff" points="1945.76,-139.92 1955.92,-136.91 1946.1,-132.93 1945.76,-139.92"/>
</a>
</g>
</g>
<!-- Node12 -->
<g id="Node000012" class="node">
<title>Node12</title>
<g id="a_Node000012"><a xlink:href="TranslateHandle_8cpp.html" target="_top" xlink:title=" ">
<polygon fill="white" stroke="#666666" points="1590,-96 1452,-96 1452,-66 1590,-66 1590,-96"/>
<text text-anchor="start" x="1460" y="-84" font-family="Helvetica,sans-Serif" font-size="10.00">src/graphics/components</text>
<text text-anchor="middle" x="1521" y="-73" font-family="Helvetica,sans-Serif" font-size="10.00">/TranslateHandle.cpp</text>
</a>
</g>
</g>
<!-- Node10&#45;&gt;Node12 -->
<g id="edge17_Node000010_Node000012" class="edge">
<title>Node10&#45;&gt;Node12</title>
<g id="a_edge17_Node000010_Node000012"><a xlink:title=" ">
<path fill="none" stroke="#63b8ff" d="M1945.64,-132.9C1855.94,-125.32 1718.61,-112.46 1600,-96 1596.83,-95.56 1593.59,-95.09 1590.32,-94.59"/>
<polygon fill="#63b8ff" stroke="#63b8ff" points="1945.54,-136.4 1955.8,-133.75 1946.13,-129.42 1945.54,-136.4"/>
</a>
</g>
</g>
<!-- Node13 -->
<g id="Node000013" class="node">
<title>Node13</title>
<g id="a_Node000013"><a xlink:href="Camera_8cpp.html" target="_top" xlink:title=" ">
<polygon fill="white" stroke="#666666" points="1769.5,-90.5 1608.5,-90.5 1608.5,-71.5 1769.5,-71.5 1769.5,-90.5"/>
<text text-anchor="middle" x="1689" y="-78.5" font-family="Helvetica,sans-Serif" font-size="10.00">src/graphics/core/Camera.cpp</text>
</a>
</g>
</g>
<!-- Node10&#45;&gt;Node13 -->
<g id="edge18_Node000010_Node000013" class="edge">
<title>Node10&#45;&gt;Node13</title>
<g id="a_edge18_Node000010_Node000013"><a xlink:title=" ">
<path fill="none" stroke="#63b8ff" d="M1980.52,-130.31C1912.5,-119.04 1804.08,-101.07 1740.39,-90.52"/>
<polygon fill="#63b8ff" stroke="#63b8ff" points="1980.23,-133.81 1990.67,-131.99 1981.38,-126.91 1980.23,-133.81"/>
</a>
</g>
</g>
<!-- Node10&#45;&gt;Node14 -->
<g id="edge22_Node000010_Node000014" class="edge">
<title>Node10&#45;&gt;Node14</title>
<g id="a_edge22_Node000010_Node000014"><a xlink:title=" ">
<path fill="none" stroke="#63b8ff" d="M1945.74,-139.91C1743.29,-138.02 1258.77,-129.99 854,-96 837.85,-94.64 820.4,-92.61 804.37,-90.5"/>
<polygon fill="#63b8ff" stroke="#63b8ff" points="1945.71,-143.41 1955.75,-140 1945.78,-136.41 1945.71,-143.41"/>
</a>
</g>
</g>
<!-- Node10&#45;&gt;Node15 -->
<g id="edge23_Node000010_Node000015" class="edge">
<title>Node10&#45;&gt;Node15</title>
<g id="a_edge23_Node000010_Node000015"><a xlink:title=" ">
<path fill="none" stroke="#63b8ff" d="M1945.35,-140.96C1717.43,-141.27 1128.66,-137.58 639,-96 623.74,-94.7 607.26,-92.69 592.13,-90.58"/>
<polygon fill="#63b8ff" stroke="#63b8ff" points="1945.61,-144.46 1955.6,-140.94 1945.6,-137.46 1945.61,-144.46"/>
</a>
</g>
</g>
<!-- Node16 -->
<g id="Node000016" class="node">
<title>Node16</title>
<g id="a_Node000016"><a xlink:href="Forces_8h.html" target="_top" xlink:title=" ">
<polygon fill="white" stroke="#666666" points="1278,-96 1170,-96 1170,-66 1278,-66 1278,-96"/>
<text text-anchor="start" x="1178" y="-84" font-family="Helvetica,sans-Serif" font-size="10.00">src/graphics/debug</text>
<text text-anchor="middle" x="1224" y="-73" font-family="Helvetica,sans-Serif" font-size="10.00">/Forces.h</text>
</a>
</g>
</g>
<!-- Node10&#45;&gt;Node16 -->
<g id="edge24_Node000010_Node000016" class="edge">
<title>Node10&#45;&gt;Node16</title>
<g id="a_edge24_Node000010_Node000016"><a xlink:title=" ">
<path fill="none" stroke="#63b8ff" d="M1945.57,-136.74C1771.52,-129.63 1411.39,-113.37 1287,-96 1284.11,-95.6 1281.17,-95.13 1278.2,-94.62"/>
<polygon fill="#63b8ff" stroke="#63b8ff" points="1945.62,-140.24 1955.75,-137.15 1945.9,-133.25 1945.62,-140.24"/>
</a>
</g>
</g>
<!-- Node10&#45;&gt;Node18 -->
<g id="edge27_Node000010_Node000018" class="edge">
<title>Node10&#45;&gt;Node18</title>
<g id="a_edge27_Node000010_Node000018"><a xlink:title=" ">
<path fill="none" stroke="#63b8ff" d="M2138.13,-138.5C2340.73,-133.82 2798.45,-120.66 2865,-96 2885.51,-88.4 2883.64,-73.98 2904,-66 2915.4,-61.53 3260.98,-32.02 3396.87,-20.55"/>
<polygon fill="#63b8ff" stroke="#63b8ff" points="2138.01,-135 2128.1,-138.73 2138.17,-142 2138.01,-135"/>
</a>
</g>
</g>
<!-- Node19 -->
<g id="Node000019" class="node">
<title>Node19</title>
<g id="a_Node000019"><a xlink:href="PathTraces_8h.html" target="_top" xlink:title=" ">
<polygon fill="white" stroke="#666666" points="2586,-96 2478,-96 2478,-66 2586,-66 2586,-96"/>
<text text-anchor="start" x="2486" y="-84" font-family="Helvetica,sans-Serif" font-size="10.00">src/graphics/debug</text>
<text text-anchor="middle" x="2532" y="-73" font-family="Helvetica,sans-Serif" font-size="10.00">/PathTraces.h</text>
</a>
</g>
</g>
<!-- Node10&#45;&gt;Node19 -->
<g id="edge28_Node000010_Node000019" class="edge">
<title>Node10&#45;&gt;Node19</title>
<g id="a_edge28_Node000010_Node000019"><a xlink:title=" ">
<path fill="none" stroke="#63b8ff" d="M2138.38,-133.04C2224.14,-125.76 2352.84,-113.26 2464,-96 2468.53,-95.3 2473.21,-94.49 2477.9,-93.64"/>
<polygon fill="#63b8ff" stroke="#63b8ff" points="2138.07,-129.56 2128.4,-133.88 2138.65,-136.53 2138.07,-129.56"/>
</a>
</g>
</g>
<!-- Node10&#45;&gt;Node20 -->
<g id="edge31_Node000010_Node000020" class="edge">
<title>Node10&#45;&gt;Node20</title>
<g id="a_edge31_Node000010_Node000020"><a xlink:title=" ">
<path fill="none" stroke="#63b8ff" d="M2138.19,-141.21C2325.13,-141.56 2750.31,-137.21 3105,-96 3107.69,-95.69 3110.43,-95.33 3113.2,-94.94"/>
<polygon fill="#63b8ff" stroke="#63b8ff" points="2138.12,-137.71 2128.11,-141.19 2138.1,-144.71 2138.12,-137.71"/>
</a>
</g>
</g>
<!-- Node21 -->
<g id="Node000021" class="node">
<title>Node21</title>
<g id="a_Node000021"><a xlink:href="HierarchyWidget_8h.html" target="_top" xlink:title=" ">
<polygon fill="white" stroke="#666666" points="2855.5,-90.5 2718.5,-90.5 2718.5,-71.5 2855.5,-71.5 2855.5,-90.5"/>
<text text-anchor="middle" x="2787" y="-78.5" font-family="Helvetica,sans-Serif" font-size="10.00">src/ui/HierarchyWidget.h</text>
</a>
</g>
</g>
<!-- Node10&#45;&gt;Node21 -->
<g id="edge32_Node000010_Node000021" class="edge">
<title>Node10&#45;&gt;Node21</title>
<g id="a_edge32_Node000010_Node000021"><a xlink:title=" ">
<path fill="none" stroke="#63b8ff" d="M2138.26,-134.95C2260.93,-127.58 2479.44,-113.44 2666,-96 2682.95,-94.42 2701.2,-92.44 2718.27,-90.48"/>
<polygon fill="#63b8ff" stroke="#63b8ff" points="2137.92,-131.47 2128.15,-135.56 2138.34,-138.45 2137.92,-131.47"/>
</a>
</g>
</g>
<!-- Node10&#45;&gt;Node24 -->
<g id="edge35_Node000010_Node000024" class="edge">
<title>Node10&#45;&gt;Node24</title>
<g id="a_edge35_Node000010_Node000024"><a xlink:title=" ">
<path fill="none" stroke="#63b8ff" d="M2138.17,-138.66C2385.05,-133.66 3036.78,-118.68 3252,-96 3264.2,-94.71 3277.35,-92.69 3289.39,-90.57"/>
<polygon fill="#63b8ff" stroke="#63b8ff" points="2138.07,-135.16 2128.14,-138.86 2138.21,-142.16 2138.07,-135.16"/>
</a>
</g>
</g>
<!-- Node25 -->
<g id="Node000025" class="node">
<title>Node25</title>
<g id="a_Node000025"><a xlink:href="ForcesInspectorWidget_8cpp.html" target="_top" xlink:title=" ">
<polygon fill="white" stroke="#666666" points="1958,-96 1788,-96 1788,-66 1958,-66 1958,-96"/>
<text text-anchor="start" x="1796" y="-84" font-family="Helvetica,sans-Serif" font-size="10.00">src/ui/inspector/ForcesInspector</text>
<text text-anchor="middle" x="1873" y="-73" font-family="Helvetica,sans-Serif" font-size="10.00">Widget.cpp</text>
</a>
</g>
</g>
<!-- Node10&#45;&gt;Node25 -->
<g id="edge36_Node000010_Node000025" class="edge">
<title>Node10&#45;&gt;Node25</title>
<g id="a_edge36_Node000010_Node000025"><a xlink:title=" ">
<path fill="none" stroke="#63b8ff" d="M2007.93,-128.71C1980.7,-119.28 1942.45,-106.04 1913.63,-96.06"/>
<polygon fill="#63b8ff" stroke="#63b8ff" points="2006.83,-132.03 2017.43,-131.99 2009.12,-125.41 2006.83,-132.03"/>
</a>
</g>
</g>
<!-- Node10&#45;&gt;Node26 -->
<g id="edge37_Node000010_Node000026" class="edge">
<title>Node10&#45;&gt;Node26</title>
<g id="a_edge37_Node000010_Node000026"><a xlink:title=" ">
<path fill="none" stroke="#63b8ff" d="M1945.62,-141C1761.71,-140.93 1348.24,-135.84 1003,-96 1000.27,-95.69 997.49,-95.33 994.69,-94.94"/>
<polygon fill="#63b8ff" stroke="#63b8ff" points="1945.81,-144.5 1955.8,-141 1945.8,-137.5 1945.81,-144.5"/>
</a>
</g>
</g>
<!-- Node10&#45;&gt;Node27 -->
<g id="edge38_Node000010_Node000027" class="edge">
<title>Node10&#45;&gt;Node27</title>
<g id="a_edge38_Node000010_Node000027"><a xlink:title=" ">
<path fill="none" stroke="#63b8ff" d="M1945.82,-137.16C1749.93,-130.11 1310.57,-112.96 1161,-96 1157.96,-95.65 1154.85,-95.27 1151.72,-94.84"/>
<polygon fill="#63b8ff" stroke="#63b8ff" points="1945.7,-140.66 1955.82,-137.52 1945.95,-133.66 1945.7,-140.66"/>
</a>
</g>
</g>
<!-- Node28 -->
<g id="Node000028" class="node">
<title>Node28</title>
<g id="a_Node000028"><a xlink:href="PhysicsInspectorWidget_8cpp.html" target="_top" xlink:title=" ">
<polygon fill="white" stroke="#666666" points="2107.5,-96 1976.5,-96 1976.5,-66 2107.5,-66 2107.5,-96"/>
<text text-anchor="start" x="1984.5" y="-84" font-family="Helvetica,sans-Serif" font-size="10.00">src/ui/inspector/Physics</text>
<text text-anchor="middle" x="2042" y="-73" font-family="Helvetica,sans-Serif" font-size="10.00">InspectorWidget.cpp</text>
</a>
</g>
</g>
<!-- Node10&#45;&gt;Node28 -->
<g id="edge39_Node000010_Node000028" class="edge">
<title>Node10&#45;&gt;Node28</title>
<g id="a_edge39_Node000010_Node000028"><a xlink:title=" ">
<path fill="none" stroke="#63b8ff" d="M2042,-121.65C2042,-113.36 2042,-103.78 2042,-96.11"/>
<polygon fill="#63b8ff" stroke="#63b8ff" points="2038.5,-121.87 2042,-131.87 2045.5,-121.87 2038.5,-121.87"/>
</a>
</g>
</g>
<!-- Node29 -->
<g id="Node000029" class="node">
<title>Node29</title>
<g id="a_Node000029"><a xlink:href="ThermalInspectorWidget_8cpp.html" target="_top" xlink:title=" ">
<polygon fill="white" stroke="#666666" points="2260,-96 2126,-96 2126,-66 2260,-66 2260,-96"/>
<text text-anchor="start" x="2134" y="-84" font-family="Helvetica,sans-Serif" font-size="10.00">src/ui/inspector/Thermal</text>
<text text-anchor="middle" x="2193" y="-73" font-family="Helvetica,sans-Serif" font-size="10.00">InspectorWidget.cpp</text>
</a>
</g>
</g>
<!-- Node10&#45;&gt;Node29 -->
<g id="edge40_Node000010_Node000029" class="edge">
<title>Node10&#45;&gt;Node29</title>
<g id="a_edge40_Node000010_Node000029"><a xlink:title=" ">
<path fill="none" stroke="#63b8ff" d="M2073.41,-128.33C2097.67,-118.93 2131.28,-105.91 2156.7,-96.06"/>
<polygon fill="#63b8ff" stroke="#63b8ff" points="2072.02,-125.12 2063.96,-131.99 2074.55,-131.64 2072.02,-125.12"/>
</a>
</g>
</g>
<!-- Node30 -->
<g id="Node000030" class="node">
<title>Node30</title>
<g id="a_Node000030"><a xlink:href="TransformInspectorWidget_8cpp.html" target="_top" xlink:title=" ">
<polygon fill="white" stroke="#666666" points="2421.5,-96 2278.5,-96 2278.5,-66 2421.5,-66 2421.5,-96"/>
<text text-anchor="start" x="2286.5" y="-84" font-family="Helvetica,sans-Serif" font-size="10.00">src/ui/inspector/Transform</text>
<text text-anchor="middle" x="2350" y="-73" font-family="Helvetica,sans-Serif" font-size="10.00">InspectorWidget.cpp</text>
</a>
</g>
</g>
<!-- Node10&#45;&gt;Node30 -->
<g id="edge41_Node000010_Node000030" class="edge">
<title>Node10&#45;&gt;Node30</title>
<g id="a_edge41_Node000010_Node000030"><a xlink:title=" ">
<path fill="none" stroke="#63b8ff" d="M2096.88,-130.08C2147.5,-120.46 2222.96,-106.13 2278.32,-95.61"/>
<polygon fill="#63b8ff" stroke="#63b8ff" points="2095.96,-126.69 2086.79,-131.99 2097.26,-133.57 2095.96,-126.69"/>
</a>
</g>
</g>
<!-- Node11&#45;&gt;Node2 -->
<g id="edge15_Node000011_Node000002" class="edge">
<title>Node11&#45;&gt;Node2</title>
<g id="a_edge15_Node000011_Node000002"><a xlink:title=" ">
<path fill="none" stroke="#63b8ff" d="M1444.27,-65.97C1882.63,-18.5 2399.08,-15.13 2582.91,-15.57"/>
<polygon fill="#63b8ff" stroke="#63b8ff" points="1443.81,-62.5 1434.25,-67.07 1444.57,-69.46 1443.81,-62.5"/>
</a>
</g>
</g>
<!-- Node11&#45;&gt;Node4 -->
<g id="edge16_Node000011_Node000004" class="edge">
<title>Node11&#45;&gt;Node4</title>
<g id="a_edge16_Node000011_Node000004"><a xlink:title=" ">
<path fill="none" stroke="#63b8ff" d="M1285.81,-65.8C1202.59,-51.34 1117.84,-37.09 1060.11,-27.47"/>
<polygon fill="#63b8ff" stroke="#63b8ff" points="1285.23,-69.25 1295.68,-67.52 1286.43,-62.36 1285.23,-69.25"/>
</a>
</g>
</g>
<!-- Node16&#45;&gt;Node7 -->
<g id="edge25_Node000016_Node000007" class="edge">
<title>Node16&#45;&gt;Node7</title>
<g id="a_edge25_Node000016_Node000007"><a xlink:title=" ">
<path fill="none" stroke="#63b8ff" d="M1288.36,-65.8C1380.94,-48.27 1477.35,-33.4 1537.68,-24.51"/>
<polygon fill="#63b8ff" stroke="#63b8ff" points="1287.42,-62.42 1278.25,-67.73 1288.73,-69.3 1287.42,-62.42"/>
</a>
</g>
</g>
<!-- Node16&#45;&gt;Node17 -->
<g id="edge26_Node000016_Node000017" class="edge">
<title>Node16&#45;&gt;Node17</title>
<g id="a_edge26_Node000016_Node000017"><a xlink:title=" ">
<path fill="none" stroke="#63b8ff" d="M1159.71,-66.03C934.18,-38.01 298.13,-21.6 108.17,-17.2"/>
<polygon fill="#63b8ff" stroke="#63b8ff" points="1159.45,-69.53 1169.81,-67.33 1160.34,-62.58 1159.45,-69.53"/>
</a>
</g>
</g>
<!-- Node19&#45;&gt;Node7 -->
<g id="edge29_Node000019_Node000007" class="edge">
<title>Node19&#45;&gt;Node7</title>
<g id="a_edge29_Node000019_Node000007"><a xlink:title=" ">
<path fill="none" stroke="#63b8ff" d="M2467.86,-66.53C2466.57,-66.35 2465.28,-66.17 2464,-66 2186.32,-29.6 1855.15,-19.7 1694.3,-17.01"/>
<polygon fill="#63b8ff" stroke="#63b8ff" points="2467.5,-70.02 2477.93,-68.13 2468.6,-63.11 2467.5,-70.02"/>
</a>
</g>
</g>
<!-- Node19&#45;&gt;Node18 -->
<g id="edge30_Node000019_Node000018" class="edge">
<title>Node19&#45;&gt;Node18</title>
<g id="a_edge30_Node000019_Node000018"><a xlink:title=" ">
<path fill="none" stroke="#63b8ff" d="M2596.34,-74.71C2630.16,-71.99 2672.31,-68.69 2710,-66 2960.1,-48.17 3022.9,-47.83 3273,-30 3314.59,-27.04 3361.61,-23.32 3396.88,-20.46"/>
<polygon fill="#63b8ff" stroke="#63b8ff" points="2595.81,-71.24 2586.12,-75.54 2596.37,-78.22 2595.81,-71.24"/>
</a>
</g>
</g>
<!-- Node22 -->
<g id="Node000022" class="node">
<title>Node22</title>
<g id="a_Node000022"><a xlink:href="HierarchyWidget_8cpp.html" target="_top" xlink:title=" ">
<polygon fill="white" stroke="#666666" points="2887,-24.5 2739,-24.5 2739,-5.5 2887,-5.5 2887,-24.5"/>
<text text-anchor="middle" x="2813" y="-12.5" font-family="Helvetica,sans-Serif" font-size="10.00">src/ui/HierarchyWidget.cpp</text>
</a>
</g>
</g>
<!-- Node21&#45;&gt;Node22 -->
<g id="edge33_Node000021_Node000022" class="edge">
<title>Node21&#45;&gt;Node22</title>
<g id="a_edge33_Node000021_Node000022"><a xlink:title=" ">
<path fill="none" stroke="#63b8ff" d="M2794.39,-61.82C2799.29,-49.74 2805.52,-34.41 2809.38,-24.91"/>
<polygon fill="#63b8ff" stroke="#63b8ff" points="2791.03,-60.79 2790.51,-71.37 2797.51,-63.42 2791.03,-60.79"/>
</a>
</g>
</g>
<!-- Node23 -->
<g id="Node000023" class="node">
<title>Node23</title>
<g id="a_Node000023"><a xlink:href="MainWindow_8cpp.html" target="_top" xlink:title=" ">
<polygon fill="white" stroke="#666666" points="3264,-24.5 3136,-24.5 3136,-5.5 3264,-5.5 3264,-24.5"/>
<text text-anchor="middle" x="3200" y="-12.5" font-family="Helvetica,sans-Serif" font-size="10.00">src/ui/MainWindow.cpp</text>
</a>
</g>
</g>
<!-- Node21&#45;&gt;Node23 -->
<g id="edge34_Node000021_Node000023" class="edge">
<title>Node21&#45;&gt;Node23</title>
<g id="a_edge34_Node000021_Node000023"><a xlink:title=" ">
<path fill="none" stroke="#63b8ff" d="M2846.49,-69.84C2854.39,-68.53 2862.39,-67.22 2870,-66 2965.12,-50.77 3075.87,-34.24 3141.83,-24.51"/>
<polygon fill="#63b8ff" stroke="#63b8ff" points="2845.86,-66.4 2836.57,-71.5 2847.01,-73.3 2845.86,-66.4"/>
</a>
</g>
</g>
<!-- Node31&#45;&gt;Node7 -->
<g id="edge43_Node000031_Node000007" class="edge">
<title>Node31&#45;&gt;Node7</title>
<g id="a_edge43_Node000031_Node000007"><a xlink:title=" ">
<path fill="none" stroke="#63b8ff" d="M684.78,-128.64C667.01,-122.06 649.61,-111.85 639,-96 631.58,-84.92 629.82,-75.67 639,-66 653.69,-50.52 1259.17,-27.77 1499.83,-19.32"/>
<polygon fill="#63b8ff" stroke="#63b8ff" points="684.05,-132.09 694.64,-131.93 686.26,-125.45 684.05,-132.09"/>
</a>
</g>
</g>
<!-- Node31&#45;&gt;Node14 -->
<g id="edge44_Node000031_Node000014" class="edge">
<title>Node31&#45;&gt;Node14</title>
<g id="a_edge44_Node000031_Node000014"><a xlink:title=" ">
<path fill="none" stroke="#63b8ff" d="M747,-121.66C747,-111.24 747,-98.8 747,-90.67"/>
<polygon fill="#63b8ff" stroke="#63b8ff" points="743.5,-121.87 747,-131.87 750.5,-121.87 743.5,-121.87"/>
</a>
</g>
</g>
<!-- Node32&#45;&gt;Node23 -->
<g id="edge51_Node000032_Node000023" class="edge">
<title>Node32&#45;&gt;Node23</title>
<g id="a_edge51_Node000032_Node000023"><a xlink:title=" ">
<path fill="none" stroke="#63b8ff" d="M3481.95,-125.93C3501.83,-110.35 3526.42,-85.28 3510,-66 3494.25,-47.5 3350.14,-30.52 3264.06,-21.92"/>
<polygon fill="#63b8ff" stroke="#63b8ff" points="3479.77,-123.2 3473.85,-131.98 3483.96,-128.8 3479.77,-123.2"/>
</a>
</g>
</g>
<!-- Node33 -->
<g id="Node000033" class="node">
<title>Node33</title>
<g id="a_Node000033"><a xlink:href="main_8cpp.html" target="_top" xlink:title=" ">
<polygon fill="white" stroke="#666666" points="3500.5,-90.5 3421.5,-90.5 3421.5,-71.5 3500.5,-71.5 3500.5,-90.5"/>
<text text-anchor="middle" x="3461" y="-78.5" font-family="Helvetica,sans-Serif" font-size="10.00">src/main.cpp</text>
</a>
</g>
</g>
<!-- Node32&#45;&gt;Node33 -->
<g id="edge50_Node000032_Node000033" class="edge">
<title>Node32&#45;&gt;Node33</title>
<g id="a_edge50_Node000032_Node000033"><a xlink:title=" ">
<path fill="none" stroke="#63b8ff" d="M3461,-121.66C3461,-111.24 3461,-98.8 3461,-90.67"/>
<polygon fill="#63b8ff" stroke="#63b8ff" points="3457.5,-121.87 3461,-131.87 3464.5,-121.87 3457.5,-121.87"/>
</a>
</g>
</g>
</g>
</svg>

<g id="navigator" transform="translate(0 0)" fill="#404254">
  <rect fill="#f2f5e9" fill-opacity="0.5" stroke="#606060" stroke-width=".5" x="0" y="0" width="60" height="60"/>
  <use id="zoomplus" xlink:href="#zoomPlus" x="17" y="9" onmousedown="handleZoom(evt,'in')"/>
  <use id="zoomminus" xlink:href="#zoomMin" x="42" y="9" onmousedown="handleZoom(evt,'out')"/>
  <use id="reset" xlink:href="#resetDef" x="30" y="36" onmousedown="handleReset()"/>
   <use id="arrowup" xlink:href="#arrowUp" x="0" y="0" onmousedown="handlePan(0,-1)"/>
  <use id="arrowright" xlink:href="#arrowRight" x="0" y="0" onmousedown="handlePan(1,0)"/>
  <use id="arrowdown" xlink:href="#arrowDown" x="0" y="0" onmousedown="handlePan(0,1)"/>
  <use id="arrowleft" xlink:href="#arrowLeft" x="0" y="0" onmousedown="handlePan(-1,0)"/>
</g>
<svg viewBox="0 0 15 15" width="100%" height="30px" preserveAspectRatio="xMaxYMin meet">
 <g id="arrow_out" transform="scale(0.3 0.3)">
  <a xlink:href="ResourceManager_8h__dep__incl_org.svg" target="_base">
   <rect id="button" ry="5" rx="5" y="6" x="6" height="38" width="38"
        fill="#f2f5e9" fill-opacity="0.5" stroke="#606060" stroke-width="1.0"/>
   <path id="arrow"
     d="M 11.500037,31.436501 C 11.940474,20.09759 22.043105,11.32322 32.158766,21.979434 L 37.068811,17.246167 C 37.068811,17.246167 37.088388,32 37.088388,32 L 22.160133,31.978069 C 22.160133,31.978069 26.997745,27.140456 26.997745,27.140456 C 18.528582,18.264221 13.291696,25.230495 11.500037,31.436501 z"
     style="fill:#404040;"/>
  </a>
 </g>
</svg>

<style type='text/css'>
<![CDATA[
[data-mouse-over-selected='false'] { opacity: 0.7; }
[data-mouse-over-selected='true']  { opacity: 1.0; }
]]>
</style>
<script type="application/ecmascript"><![CDATA[
document.addEventListener('DOMContentLoaded', (event) => {
  highlightEdges();
  highlightAdjacentNodes();
});
]]></script>
</svg>
