<?xml version="1.0" encoding="UTF-8" standalone="no"?>
<!DOCTYPE svg PUBLIC "-//W3C//DTD SVG 1.1//EN"
 "http://www.w3.org/Graphics/SVG/1.1/DTD/svg11.dtd">
<!-- Generated by graphviz version 2.43.0 (0)
 -->
<!-- Title: src/graphics/core/ResourceManager.h Pages: 1 -->
<!--zoomable 291 -->

<svg id="main" version="1.1" xmlns="http://www.w3.org/2000/svg" xmlns:xlink="http://www.w3.org/1999/xlink" xml:space="preserve" onload="init(evt)">
<style type="text/css"><![CDATA[
.node, .edge {opacity: 0.7;}
.node.selected, .edge.selected {opacity: 1;}
.edge:hover path { stroke: red; }
.edge:hover polygon { stroke: red; fill: red; }
]]></style>

<defs>
  <circle id="rim" cx="0" cy="0" r="7"/>
  <circle id="rim2" cx="0" cy="0" r="3.5"/>
  <g id="zoomPlus">
    <use xlink:href="#rim" fill="#404040"><set attributeName="fill" to="#808080" begin="zoomplus.mouseover" end="zoomplus.mouseout"/></use>
    <path d="M-4,0h8M0,-4v8" fill="none" stroke="white" stroke-width="1.5" pointer-events="none"/>
  </g>
  <g id="zoomMin">
    <use xlink:href="#rim" fill="#404040"><set attributeName="fill" to="#808080" begin="zoomminus.mouseover" end="zoomminus.mouseout"/></use>
    <path d="M-4,0h8" fill="none" stroke="white" stroke-width="1.5" pointer-events="none"/>
  </g>
  <g id="arrowUp" transform="translate(30 24)">
    <use xlink:href="#rim"/>
    <path pointer-events="none" fill="none" stroke="white" stroke-width="1.5" d="M0,-3.0v7 M-2.5,-0.5L0,-3.0L2.5,-0.5"/>
  </g>
  <g id="arrowRight" transform="rotate(90) translate(36 -43)">
    <use xlink:href="#rim"/>
    <path pointer-events="none" fill="none" stroke="white" stroke-width="1.5" d="M0,-3.0v7 M-2.5,-0.5L0,-3.0L2.5,-0.5"/>
  </g>
  <g id="arrowDown" transform="rotate(180) translate(-30 -48)">
    <use xlink:href="#rim"/>
    <path pointer-events="none" fill="none" stroke="white" stroke-width="1.5" d="M0,-3.0v7 M-2.5,-0.5L0,-3.0L2.5,-0.5"/>
  </g>
  <g id="arrowLeft" transform="rotate(270) translate(-36 17)">
    <use xlink:href="#rim"/>
    <path pointer-events="none" fill="none" stroke="white" stroke-width="1.5" d="M0,-3.0v7 M-2.5,-0.5L0,-3.0L2.5,-0.5"/>
  </g>
  <g id="resetDef">
    <use xlink:href="#rim2" fill="#404040"><set attributeName="fill" to="#808080" begin="reset.mouseover" end="reset.mouseout"/></use>
  </g>
</defs>
<script type="application/ecmascript">
var viewWidth = 2673;
var viewHeight = 291;
var sectionId = 'dynsection-1';
</script>
<script type="application/ecmascript" xlink:href="svg.min.js"/>
<svg id="graph" class="graph">
<g id="viewport">
<title>src/graphics/core/ResourceManager.h</title>
<!-- Node1 -->
<g id="Node000001" class="node">
<title>Node1</title>
<g id="a_Node000001"><a xlink:title=" ">
<polygon fill="#999999" stroke="#666666" points="459.53,-283 312.53,-283 312.53,-253 459.53,-253 459.53,-283"/>
<text text-anchor="start" x="320.53" y="-271" font-family="Helvetica,sans-Serif" font-size="10.00">src/graphics/core/Resource</text>
<text text-anchor="middle" x="386.03" y="-260" font-family="Helvetica,sans-Serif" font-size="10.00">Manager.h</text>
</a>
</g>
</g>
<!-- Node2 -->
<g id="Node000002" class="node">
<title>Node2</title>
<g id="a_Node000002"><a xlink:href="Gizmo_8cpp.html" target="_top" xlink:title=" ">
<polygon fill="white" stroke="#666666" points="432.03,-30 294.03,-30 294.03,0 432.03,0 432.03,-30"/>
<text text-anchor="start" x="302.03" y="-18" font-family="Helvetica,sans-Serif" font-size="10.00">src/graphics/components</text>
<text text-anchor="middle" x="363.03" y="-7" font-family="Helvetica,sans-Serif" font-size="10.00">/Gizmo.cpp</text>
</a>
</g>
</g>
<!-- Node1&#45;&gt;Node2 -->
<g id="edge1_Node000001_Node000002" class="edge">
<title>Node1&#45;&gt;Node2</title>
<g id="a_edge1_Node000001_Node000002"><a xlink:title=" ">
<path fill="none" stroke="#63b8ff" d="M302.41,-265.16C247.9,-260.71 176.96,-248.57 122.03,-217 51.16,-176.27 -36.47,-127.8 17.03,-66 52.09,-25.51 203.28,-17.08 293.8,-15.76"/>
<polygon fill="#63b8ff" stroke="#63b8ff" points="302.15,-268.65 312.39,-265.9 302.67,-261.67 302.15,-268.65"/>
</a>
</g>
</g>
<!-- Node3 -->
<g id="Node000003" class="node">
<title>Node3</title>
<g id="a_Node000003"><a xlink:href="RotateHandle_8cpp.html" target="_top" xlink:title=" ">
<polygon fill="white" stroke="#666666" points="164.03,-96 26.03,-96 26.03,-66 164.03,-66 164.03,-96"/>
<text text-anchor="start" x="34.03" y="-84" font-family="Helvetica,sans-Serif" font-size="10.00">src/graphics/components</text>
<text text-anchor="middle" x="95.03" y="-73" font-family="Helvetica,sans-Serif" font-size="10.00">/RotateHandle.cpp</text>
</a>
</g>
</g>
<!-- Node1&#45;&gt;Node3 -->
<g id="edge2_Node000001_Node000003" class="edge">
<title>Node1&#45;&gt;Node3</title>
<g id="a_edge2_Node000001_Node000003"><a xlink:title=" ">
<path fill="none" stroke="#63b8ff" d="M302.27,-257.76C243.75,-249.77 172.12,-236.41 149.03,-217 111.55,-185.49 99.87,-124.21 96.4,-96.37"/>
<polygon fill="#63b8ff" stroke="#63b8ff" points="301.91,-261.24 312.29,-259.09 302.83,-254.3 301.91,-261.24"/>
</a>
</g>
</g>
<!-- Node4 -->
<g id="Node000004" class="node">
<title>Node4</title>
<g id="a_Node000004"><a xlink:href="ScaleHandle_8cpp.html" target="_top" xlink:title=" ">
<polygon fill="white" stroke="#666666" points="607.03,-30 469.03,-30 469.03,0 607.03,0 607.03,-30"/>
<text text-anchor="start" x="477.03" y="-18" font-family="Helvetica,sans-Serif" font-size="10.00">src/graphics/components</text>
<text text-anchor="middle" x="538.03" y="-7" font-family="Helvetica,sans-Serif" font-size="10.00">/ScaleHandle.cpp</text>
</a>
</g>
</g>
<!-- Node1&#45;&gt;Node4 -->
<g id="edge3_Node000001_Node000004" class="edge">
<title>Node1&#45;&gt;Node4</title>
<g id="a_edge3_Node000001_Node000004"><a xlink:title=" ">
<path fill="none" stroke="#63b8ff" d="M380.84,-242.89C373.5,-201.97 365.07,-118.27 405.03,-66 420.46,-45.81 445.01,-33.78 468.83,-26.6"/>
<polygon fill="#63b8ff" stroke="#63b8ff" points="377.42,-243.63 382.74,-252.78 384.29,-242.3 377.42,-243.63"/>
</a>
</g>
</g>
<!-- Node5 -->
<g id="Node000005" class="node">
<title>Node5</title>
<g id="a_Node000005"><a xlink:href="TranslateHandle_8cpp.html" target="_top" xlink:title=" ">
<polygon fill="white" stroke="#666666" points="358.03,-96 220.03,-96 220.03,-66 358.03,-66 358.03,-96"/>
<text text-anchor="start" x="228.03" y="-84" font-family="Helvetica,sans-Serif" font-size="10.00">src/graphics/components</text>
<text text-anchor="middle" x="289.03" y="-73" font-family="Helvetica,sans-Serif" font-size="10.00">/TranslateHandle.cpp</text>
</a>
</g>
</g>
<!-- Node1&#45;&gt;Node5 -->
<g id="edge4_Node000001_Node000005" class="edge">
<title>Node1&#45;&gt;Node5</title>
<g id="a_edge4_Node000001_Node000005"><a xlink:title=" ">
<path fill="none" stroke="#63b8ff" d="M302.51,-258.57C248.4,-251.18 184.94,-238.23 168.03,-217 144.49,-187.45 147.03,-163.4 168.03,-132 180.04,-114.05 199.79,-102.54 219.9,-95.16"/>
<polygon fill="#63b8ff" stroke="#63b8ff" points="302.13,-262.05 312.5,-259.88 303.04,-255.11 302.13,-262.05"/>
</a>
</g>
</g>
<!-- Node6 -->
<g id="Node000006" class="node">
<title>Node6</title>
<g id="a_Node000006"><a xlink:href="ResourceManager_8cpp.html" target="_top" xlink:title=" ">
<polygon fill="white" stroke="#666666" points="357.53,-217 210.53,-217 210.53,-187 357.53,-187 357.53,-217"/>
<text text-anchor="start" x="218.53" y="-205" font-family="Helvetica,sans-Serif" font-size="10.00">src/graphics/core/Resource</text>
<text text-anchor="middle" x="284.03" y="-194" font-family="Helvetica,sans-Serif" font-size="10.00">Manager.cpp</text>
</a>
</g>
</g>
<!-- Node1&#45;&gt;Node6 -->
<g id="edge5_Node000001_Node000006" class="edge">
<title>Node1&#45;&gt;Node6</title>
<g id="a_edge5_Node000001_Node000006"><a xlink:title=" ">
<path fill="none" stroke="#63b8ff" d="M354.83,-247.42C339.17,-237.6 320.57,-225.93 306.36,-217.01"/>
<polygon fill="#63b8ff" stroke="#63b8ff" points="353.32,-250.6 363.65,-252.95 357.04,-244.68 353.32,-250.6"/>
</a>
</g>
</g>
<!-- Node7 -->
<g id="Node000007" class="node">
<title>Node7</title>
<g id="a_Node000007"><a xlink:href="Scene_8cpp.html" target="_top" xlink:title=" ">
<polygon fill="white" stroke="#666666" points="566.03,-90.5 414.03,-90.5 414.03,-71.5 566.03,-71.5 566.03,-90.5"/>
<text text-anchor="middle" x="490.03" y="-78.5" font-family="Helvetica,sans-Serif" font-size="10.00">src/graphics/core/Scene.cpp</text>
</a>
</g>
</g>
<!-- Node1&#45;&gt;Node7 -->
<g id="edge6_Node000001_Node000007" class="edge">
<title>Node1&#45;&gt;Node7</title>
<g id="a_edge6_Node000001_Node000007"><a xlink:title=" ">
<path fill="none" stroke="#63b8ff" d="M302.51,-259.45C240.24,-250.25 170.78,-230.18 201.03,-187 230.44,-145.03 378.3,-106.95 450.39,-90.54"/>
<polygon fill="#63b8ff" stroke="#63b8ff" points="302.04,-262.92 312.42,-260.83 303,-255.98 302.04,-262.92"/>
</a>
</g>
</g>
<!-- Node8 -->
<g id="Node000008" class="node">
<title>Node8</title>
<g id="a_Node000008"><a xlink:href="SceneManager_8cpp.html" target="_top" xlink:title=" ">
<polygon fill="white" stroke="#666666" points="2112.03,-90.5 1918.03,-90.5 1918.03,-71.5 2112.03,-71.5 2112.03,-90.5"/>
<text text-anchor="middle" x="2015.03" y="-78.5" font-family="Helvetica,sans-Serif" font-size="10.00">src/graphics/core/SceneManager.cpp</text>
</a>
</g>
</g>
<!-- Node1&#45;&gt;Node8 -->
<g id="edge7_Node000001_Node000008" class="edge">
<title>Node1&#45;&gt;Node8</title>
<g id="a_edge7_Node000001_Node000008"><a xlink:title=" ">
<path fill="none" stroke="#63b8ff" d="M469.7,-258.14C699.53,-233.69 1359.9,-162.65 1908.03,-96 1922.07,-94.29 1937.14,-92.37 1951.4,-90.52"/>
<polygon fill="#63b8ff" stroke="#63b8ff" points="469.31,-254.66 459.74,-259.2 470.05,-261.62 469.31,-254.66"/>
</a>
</g>
</g>
<!-- Node9 -->
<g id="Node000009" class="node">
<title>Node9</title>
<g id="a_Node000009"><a xlink:href="SceneManager_8h.html" target="_top" xlink:title=" ">
<polygon fill="white" stroke="#666666" points="1925.03,-211.5 1743.03,-211.5 1743.03,-192.5 1925.03,-192.5 1925.03,-211.5"/>
<text text-anchor="middle" x="1834.03" y="-199.5" font-family="Helvetica,sans-Serif" font-size="10.00">src/graphics/core/SceneManager.h</text>
</a>
</g>
</g>
<!-- Node1&#45;&gt;Node9 -->
<g id="edge8_Node000001_Node000009" class="edge">
<title>Node1&#45;&gt;Node9</title>
<g id="a_edge8_Node000001_Node000009"><a xlink:title=" ">
<path fill="none" stroke="#63b8ff" d="M469.8,-266.65C681.29,-265.17 1253.84,-257.43 1729.03,-217 1744.88,-215.65 1762.01,-213.62 1777.74,-211.51"/>
<polygon fill="#63b8ff" stroke="#63b8ff" points="469.68,-263.15 459.7,-266.72 469.72,-270.15 469.68,-263.15"/>
</a>
</g>
</g>
<!-- Node10 -->
<g id="Node000010" class="node">
<title>Node10</title>
<g id="a_Node000010"><a xlink:href="SceneObject_8cpp.html" target="_top" xlink:title=" ">
<polygon fill="white" stroke="#666666" points="2528.53,-90.5 2345.53,-90.5 2345.53,-71.5 2528.53,-71.5 2528.53,-90.5"/>
<text text-anchor="middle" x="2437.03" y="-78.5" font-family="Helvetica,sans-Serif" font-size="10.00">src/graphics/core/SceneObject.cpp</text>
</a>
</g>
</g>
<!-- Node1&#45;&gt;Node10 -->
<g id="edge41_Node000001_Node000010" class="edge">
<title>Node1&#45;&gt;Node10</title>
<g id="a_edge41_Node000001_Node000010"><a xlink:title=" ">
<path fill="none" stroke="#63b8ff" d="M469.87,-266.43C794.79,-263.99 1961.02,-252.79 2123.03,-217 2245.29,-189.99 2379.33,-115.79 2422.67,-90.54"/>
<polygon fill="#63b8ff" stroke="#63b8ff" points="469.56,-262.94 459.59,-266.51 469.61,-269.94 469.56,-262.94"/>
</a>
</g>
</g>
<!-- Node14 -->
<g id="Node000014" class="node">
<title>Node14</title>
<g id="a_Node000014"><a xlink:href="SceneSerializer_8cpp.html" target="_top" xlink:title=" ">
<polygon fill="white" stroke="#666666" points="2327.53,-90.5 2130.53,-90.5 2130.53,-71.5 2327.53,-71.5 2327.53,-90.5"/>
<text text-anchor="middle" x="2229.03" y="-78.5" font-family="Helvetica,sans-Serif" font-size="10.00">src/graphics/core/SceneSerializer.cpp</text>
</a>
</g>
</g>
<!-- Node1&#45;&gt;Node14 -->
<g id="edge42_Node000001_Node000014" class="edge">
<title>Node1&#45;&gt;Node14</title>
<g id="a_edge42_Node000001_Node000014"><a xlink:title=" ">
<path fill="none" stroke="#63b8ff" d="M470.37,-266.93C758.68,-266.3 1703.76,-260.85 2004.03,-217 2117.32,-200.46 2183.21,-241.74 2253.03,-151 2267.26,-132.5 2248.64,-104.95 2237.04,-90.91"/>
<polygon fill="#63b8ff" stroke="#63b8ff" points="469.98,-263.43 459.99,-266.95 469.99,-270.43 469.98,-263.43"/>
</a>
</g>
</g>
<!-- Node26 -->
<g id="Node000026" class="node">
<title>Node26</title>
<g id="a_Node000026"><a xlink:href="OpenGLWindow_8cpp.html" target="_top" xlink:title=" ">
<polygon fill="white" stroke="#666666" points="2244.03,-151 2102.03,-151 2102.03,-132 2244.03,-132 2244.03,-151"/>
<text text-anchor="middle" x="2173.03" y="-139" font-family="Helvetica,sans-Serif" font-size="10.00">src/ui/OpenGLWindow.cpp</text>
</a>
</g>
</g>
<!-- Node1&#45;&gt;Node26 -->
<g id="edge43_Node000001_Node000026" class="edge">
<title>Node1&#45;&gt;Node26</title>
<g id="a_edge43_Node000001_Node000026"><a xlink:title=" ">
<path fill="none" stroke="#63b8ff" d="M469.66,-267.26C749.07,-267.68 1648.72,-265.16 1934.03,-217 2017.17,-202.97 2111.56,-167.42 2152.4,-151.02"/>
<polygon fill="#63b8ff" stroke="#63b8ff" points="469.59,-263.76 459.59,-267.25 469.58,-270.76 469.59,-263.76"/>
</a>
</g>
</g>
<!-- Node9&#45;&gt;Node2 -->
<g id="edge9_Node000009_Node000002" class="edge">
<title>Node9&#45;&gt;Node2</title>
<g id="a_edge9_Node000009_Node000002"><a xlink:title=" ">
<path fill="none" stroke="#63b8ff" d="M1732.83,-198.23C1385.92,-188.24 263.24,-151.7 211.03,-96 179.83,-62.71 240.22,-40.64 293.86,-28.26"/>
<polygon fill="#63b8ff" stroke="#63b8ff" points="1732.77,-201.73 1742.87,-198.51 1732.97,-194.73 1732.77,-201.73"/>
</a>
</g>
</g>
<!-- Node9&#45;&gt;Node8 -->
<g id="edge10_Node000009_Node000008" class="edge">
<title>Node9&#45;&gt;Node8</title>
<g id="a_edge10_Node000009_Node000008"><a xlink:title=" ">
<path fill="none" stroke="#63b8ff" d="M1834.48,-181.64C1835.87,-166.26 1840.21,-145.22 1853.03,-132 1874.55,-109.81 1905.67,-97.42 1934.89,-90.51"/>
<polygon fill="#63b8ff" stroke="#63b8ff" points="1830.96,-181.89 1833.91,-192.07 1837.95,-182.27 1830.96,-181.89"/>
</a>
</g>
</g>
<!-- Node9&#45;&gt;Node10 -->
<g id="edge11_Node000009_Node000010" class="edge">
<title>Node9&#45;&gt;Node10</title>
<g id="a_edge11_Node000009_Node000010"><a xlink:title=" ">
<path fill="none" stroke="#63b8ff" d="M1898.52,-190.66C1943.23,-182.46 2003.72,-169.33 2055.03,-151 2072.81,-144.65 2075.02,-137.65 2093.03,-132 2099.75,-129.89 2279.73,-104.25 2376.61,-90.53"/>
<polygon fill="#63b8ff" stroke="#63b8ff" points="1897.88,-187.22 1888.65,-192.43 1899.12,-194.1 1897.88,-187.22"/>
</a>
</g>
</g>
<!-- Node11 -->
<g id="Node000011" class="node">
<title>Node11</title>
<g id="a_Node000011"><a xlink:href="SceneObject_8h.html" target="_top" xlink:title=" ">
<polygon fill="white" stroke="#666666" points="1375.03,-151 1203.03,-151 1203.03,-132 1375.03,-132 1375.03,-151"/>
<text text-anchor="middle" x="1289.03" y="-139" font-family="Helvetica,sans-Serif" font-size="10.00">src/graphics/core/SceneObject.h</text>
</a>
</g>
</g>
<!-- Node9&#45;&gt;Node11 -->
<g id="edge12_Node000009_Node000011" class="edge">
<title>Node9&#45;&gt;Node11</title>
<g id="a_edge12_Node000009_Node000011"><a xlink:title=" ">
<path fill="none" stroke="#63b8ff" d="M1744.56,-191.4C1639.95,-180.17 1468.42,-161.76 1368.38,-151.02"/>
<polygon fill="#63b8ff" stroke="#63b8ff" points="1744.47,-194.91 1754.79,-192.49 1745.22,-187.95 1744.47,-194.91"/>
</a>
</g>
</g>
<!-- Node19 -->
<g id="Node000019" class="node">
<title>Node19</title>
<g id="a_Node000019"><a xlink:href="GlobalsInspectorWidget_8cpp.html" target="_top" xlink:title=" ">
<polygon fill="white" stroke="#666666" points="1742.53,-96 1611.53,-96 1611.53,-66 1742.53,-66 1742.53,-96"/>
<text text-anchor="start" x="1619.53" y="-84" font-family="Helvetica,sans-Serif" font-size="10.00">src/ui/inspector/Globals</text>
<text text-anchor="middle" x="1677.03" y="-73" font-family="Helvetica,sans-Serif" font-size="10.00">InspectorWidget.cpp</text>
</a>
</g>
</g>
<!-- Node9&#45;&gt;Node19 -->
<g id="edge39_Node000009_Node000019" class="edge">
<title>Node9&#45;&gt;Node19</title>
<g id="a_edge39_Node000009_Node000019"><a xlink:title=" ">
<path fill="none" stroke="#63b8ff" d="M1814.59,-186.26C1784.09,-163.14 1725.4,-118.66 1695.51,-96"/>
<polygon fill="#63b8ff" stroke="#63b8ff" points="1812.66,-189.19 1822.74,-192.44 1816.89,-183.61 1812.66,-189.19"/>
</a>
</g>
</g>
<!-- Node20 -->
<g id="Node000020" class="node">
<title>Node20</title>
<g id="a_Node000020"><a xlink:href="InspectorWidget_8cpp.html" target="_top" xlink:title=" ">
<polygon fill="white" stroke="#666666" points="1899.53,-96 1760.53,-96 1760.53,-66 1899.53,-66 1899.53,-96"/>
<text text-anchor="start" x="1768.53" y="-84" font-family="Helvetica,sans-Serif" font-size="10.00">src/ui/inspector/Inspector</text>
<text text-anchor="middle" x="1830.03" y="-73" font-family="Helvetica,sans-Serif" font-size="10.00">Widget.cpp</text>
</a>
</g>
</g>
<!-- Node9&#45;&gt;Node20 -->
<g id="edge40_Node000009_Node000020" class="edge">
<title>Node9&#45;&gt;Node20</title>
<g id="a_edge40_Node000009_Node000020"><a xlink:title=" ">
<path fill="none" stroke="#63b8ff" d="M1827.57,-182.57C1824.64,-173.24 1821.5,-161.66 1820.03,-151 1817.43,-132.05 1821.85,-110.21 1825.61,-96.26"/>
<polygon fill="#63b8ff" stroke="#63b8ff" points="1824.33,-183.92 1830.81,-192.3 1830.97,-181.71 1824.33,-183.92"/>
</a>
</g>
</g>
<!-- Node23 -->
<g id="Node000023" class="node">
<title>Node23</title>
<g id="a_Node000023"><a xlink:href="SceneSerializer_8h.html" target="_top" xlink:title=" ">
<polygon fill="white" stroke="#666666" points="2046.53,-151 1861.53,-151 1861.53,-132 2046.53,-132 2046.53,-151"/>
<text text-anchor="middle" x="1954.03" y="-139" font-family="Helvetica,sans-Serif" font-size="10.00">src/graphics/core/SceneSerializer.h</text>
</a>
</g>
</g>
<!-- Node9&#45;&gt;Node23 -->
<g id="edge32_Node000009_Node000023" class="edge">
<title>Node9&#45;&gt;Node23</title>
<g id="a_edge32_Node000009_Node000023"><a xlink:title=" ">
<path fill="none" stroke="#63b8ff" d="M1860.74,-187.98C1883.86,-176.71 1916.65,-160.73 1936.56,-151.02"/>
<polygon fill="#63b8ff" stroke="#63b8ff" points="1858.94,-184.97 1851.48,-192.49 1862,-191.26 1858.94,-184.97"/>
</a>
</g>
</g>
<!-- Node24 -->
<g id="Node000024" class="node">
<title>Node24</title>
<g id="a_Node000024"><a xlink:href="MainWindow_8h.html" target="_top" xlink:title=" ">
<polygon fill="white" stroke="#666666" points="2615.53,-151 2498.53,-151 2498.53,-132 2615.53,-132 2615.53,-151"/>
<text text-anchor="middle" x="2557.03" y="-139" font-family="Helvetica,sans-Serif" font-size="10.00">src/ui/MainWindow.h</text>
</a>
</g>
</g>
<!-- Node9&#45;&gt;Node24 -->
<g id="edge35_Node000009_Node000024" class="edge">
<title>Node9&#45;&gt;Node24</title>
<g id="a_edge35_Node000009_Node000024"><a xlink:title=" ">
<path fill="none" stroke="#63b8ff" d="M1935.59,-192.78C2088.98,-180.37 2374.88,-157.24 2498.06,-147.27"/>
<polygon fill="#63b8ff" stroke="#63b8ff" points="1934.92,-189.33 1925.23,-193.62 1935.48,-196.3 1934.92,-189.33"/>
</a>
</g>
</g>
<!-- Node9&#45;&gt;Node26 -->
<g id="edge38_Node000009_Node000026" class="edge">
<title>Node9&#45;&gt;Node26</title>
<g id="a_edge38_Node000009_Node000026"><a xlink:title=" ">
<path fill="none" stroke="#63b8ff" d="M1893.47,-190.74C1958.83,-179.46 2062.64,-161.55 2123.68,-151.02"/>
<polygon fill="#63b8ff" stroke="#63b8ff" points="1892.59,-187.34 1883.33,-192.49 1893.78,-194.24 1892.59,-187.34"/>
</a>
</g>
</g>
<!-- Node11&#45;&gt;Node2 -->
<g id="edge13_Node000011_Node000002" class="edge">
<title>Node11&#45;&gt;Node2</title>
<g id="a_edge13_Node000011_Node000002"><a xlink:title=" ">
<path fill="none" stroke="#63b8ff" d="M1192.49,-141.15C1031.6,-141.06 716.09,-135.62 613.03,-96 592.95,-88.28 594.41,-75.36 575.03,-66 550.05,-53.93 484.04,-39.27 432.26,-28.95"/>
<polygon fill="#63b8ff" stroke="#63b8ff" points="1192.86,-144.65 1202.86,-141.14 1192.86,-137.65 1192.86,-144.65"/>
</a>
</g>
</g>
<!-- Node11&#45;&gt;Node3 -->
<g id="edge14_Node000011_Node000003" class="edge">
<title>Node11&#45;&gt;Node3</title>
<g id="a_edge14_Node000011_Node000003"><a xlink:title=" ">
<path fill="none" stroke="#63b8ff" d="M1192.79,-139.07C1004.15,-135.71 572.65,-125.24 211.03,-96 195.87,-94.77 179.63,-93.06 164.26,-91.26"/>
<polygon fill="#63b8ff" stroke="#63b8ff" points="1192.89,-142.57 1202.95,-139.25 1193.02,-135.57 1192.89,-142.57"/>
</a>
</g>
</g>
<!-- Node11&#45;&gt;Node5 -->
<g id="edge18_Node000011_Node000005" class="edge">
<title>Node11&#45;&gt;Node5</title>
<g id="a_edge18_Node000011_Node000005"><a xlink:title=" ">
<path fill="none" stroke="#63b8ff" d="M1192.48,-137.85C1029.8,-132.88 690.81,-120.41 405.03,-96 389.87,-94.71 373.64,-92.97 358.26,-91.16"/>
<polygon fill="#63b8ff" stroke="#63b8ff" points="1192.84,-141.36 1202.94,-138.16 1193.05,-134.36 1192.84,-141.36"/>
</a>
</g>
</g>
<!-- Node11&#45;&gt;Node7 -->
<g id="edge20_Node000011_Node000007" class="edge">
<title>Node11&#45;&gt;Node7</title>
<g id="a_edge20_Node000011_Node000007"><a xlink:title=" ">
<path fill="none" stroke="#63b8ff" d="M1192.85,-137.26C1056.28,-132.02 798.48,-119.79 580.03,-96 566.83,-94.56 552.6,-92.56 539.44,-90.52"/>
<polygon fill="#63b8ff" stroke="#63b8ff" points="1192.74,-140.76 1202.87,-137.64 1193.01,-133.76 1192.74,-140.76"/>
</a>
</g>
</g>
<!-- Node11&#45;&gt;Node8 -->
<g id="edge21_Node000011_Node000008" class="edge">
<title>Node11&#45;&gt;Node8</title>
<g id="a_edge21_Node000011_Node000008"><a xlink:title=" ">
<path fill="none" stroke="#63b8ff" d="M1385.08,-135.34C1506.9,-128.39 1723.36,-114.7 1908.03,-96 1923.22,-94.46 1939.59,-92.48 1954.84,-90.5"/>
<polygon fill="#63b8ff" stroke="#63b8ff" points="1384.82,-131.85 1375.03,-135.91 1385.22,-138.83 1384.82,-131.85"/>
</a>
</g>
</g>
<!-- Node11&#45;&gt;Node10 -->
<g id="edge22_Node000011_Node000010" class="edge">
<title>Node11&#45;&gt;Node10</title>
<g id="a_edge22_Node000011_Node000010"><a xlink:title=" ">
<path fill="none" stroke="#63b8ff" d="M1385.38,-139.52C1570.26,-136.95 1987.5,-127.81 2337.03,-96 2352.05,-94.63 2368.26,-92.61 2383.17,-90.51"/>
<polygon fill="#63b8ff" stroke="#63b8ff" points="1385.1,-136.02 1375.14,-139.66 1385.19,-143.02 1385.1,-136.02"/>
</a>
</g>
</g>
<!-- Node12 -->
<g id="Node000012" class="node">
<title>Node12</title>
<g id="a_Node000012"><a xlink:href="ScaleHandle_8h.html" target="_top" xlink:title=" ">
<polygon fill="white" stroke="#666666" points="760.03,-96 622.03,-96 622.03,-66 760.03,-66 760.03,-96"/>
<text text-anchor="start" x="630.03" y="-84" font-family="Helvetica,sans-Serif" font-size="10.00">src/graphics/components</text>
<text text-anchor="middle" x="691.03" y="-73" font-family="Helvetica,sans-Serif" font-size="10.00">/ScaleHandle.h</text>
</a>
</g>
</g>
<!-- Node11&#45;&gt;Node12 -->
<g id="edge15_Node000011_Node000012" class="edge">
<title>Node11&#45;&gt;Node12</title>
<g id="a_edge15_Node000011_Node000012"><a xlink:title=" ">
<path fill="none" stroke="#63b8ff" d="M1192.51,-134.91C1087.89,-128.23 916.16,-115.46 769.03,-96 766.17,-95.62 763.25,-95.21 760.3,-94.78"/>
<polygon fill="#63b8ff" stroke="#63b8ff" points="1192.54,-138.42 1202.74,-135.56 1192.98,-131.43 1192.54,-138.42"/>
</a>
</g>
</g>
<!-- Node13 -->
<g id="Node000013" class="node">
<title>Node13</title>
<g id="a_Node000013"><a xlink:href="Camera_8cpp.html" target="_top" xlink:title=" ">
<polygon fill="white" stroke="#666666" points="939.53,-90.5 778.53,-90.5 778.53,-71.5 939.53,-71.5 939.53,-90.5"/>
<text text-anchor="middle" x="859.03" y="-78.5" font-family="Helvetica,sans-Serif" font-size="10.00">src/graphics/core/Camera.cpp</text>
</a>
</g>
</g>
<!-- Node11&#45;&gt;Node13 -->
<g id="edge19_Node000011_Node000013" class="edge">
<title>Node11&#45;&gt;Node13</title>
<g id="a_edge19_Node000011_Node000013"><a xlink:title=" ">
<path fill="none" stroke="#63b8ff" d="M1210.34,-130.75C1141.38,-122.07 1038.48,-108.81 949.03,-96 937.14,-94.3 924.37,-92.37 912.3,-90.5"/>
<polygon fill="#63b8ff" stroke="#63b8ff" points="1209.91,-134.22 1220.26,-131.99 1210.78,-127.28 1209.91,-134.22"/>
</a>
</g>
</g>
<!-- Node11&#45;&gt;Node14 -->
<g id="edge23_Node000011_Node000014" class="edge">
<title>Node11&#45;&gt;Node14</title>
<g id="a_edge23_Node000011_Node000014"><a xlink:title=" ">
<path fill="none" stroke="#63b8ff" d="M1385.57,-137.7C1540.8,-132.67 1855.42,-120.28 2121.03,-96 2136.85,-94.55 2153.91,-92.55 2169.7,-90.51"/>
<polygon fill="#63b8ff" stroke="#63b8ff" points="1385.01,-134.22 1375.12,-138.04 1385.23,-141.21 1385.01,-134.22"/>
</a>
</g>
</g>
<!-- Node15 -->
<g id="Node000015" class="node">
<title>Node15</title>
<g id="a_Node000015"><a xlink:href="HierarchyWidget_8h.html" target="_top" xlink:title=" ">
<polygon fill="white" stroke="#666666" points="1593.53,-90.5 1456.53,-90.5 1456.53,-71.5 1593.53,-71.5 1593.53,-90.5"/>
<text text-anchor="middle" x="1525.03" y="-78.5" font-family="Helvetica,sans-Serif" font-size="10.00">src/ui/HierarchyWidget.h</text>
</a>
</g>
</g>
<!-- Node11&#45;&gt;Node15 -->
<g id="edge24_Node000011_Node000015" class="edge">
<title>Node11&#45;&gt;Node15</title>
<g id="a_edge24_Node000011_Node000015"><a xlink:title=" ">
<path fill="none" stroke="#63b8ff" d="M1333.25,-129.54C1378.87,-118.23 1449.06,-100.83 1490.67,-90.52"/>
<polygon fill="#63b8ff" stroke="#63b8ff" points="1332.21,-126.19 1323.35,-131.99 1333.9,-132.98 1332.21,-126.19"/>
</a>
</g>
</g>
<!-- Node18 -->
<g id="Node000018" class="node">
<title>Node18</title>
<g id="a_Node000018"><a xlink:href="ForcesInspectorWidget_8cpp.html" target="_top" xlink:title=" ">
<polygon fill="white" stroke="#666666" points="1128.03,-96 958.03,-96 958.03,-66 1128.03,-66 1128.03,-96"/>
<text text-anchor="start" x="966.03" y="-84" font-family="Helvetica,sans-Serif" font-size="10.00">src/ui/inspector/ForcesInspector</text>
<text text-anchor="middle" x="1043.03" y="-73" font-family="Helvetica,sans-Serif" font-size="10.00">Widget.cpp</text>
</a>
</g>
</g>
<!-- Node11&#45;&gt;Node18 -->
<g id="edge27_Node000011_Node000018" class="edge">
<title>Node11&#45;&gt;Node18</title>
<g id="a_edge27_Node000011_Node000018"><a xlink:title=" ">
<path fill="none" stroke="#63b8ff" d="M1243.3,-129.62C1203.48,-120.16 1145.51,-106.37 1102.17,-96.06"/>
<polygon fill="#63b8ff" stroke="#63b8ff" points="1242.72,-133.09 1253.26,-131.99 1244.34,-126.27 1242.72,-133.09"/>
</a>
</g>
</g>
<!-- Node11&#45;&gt;Node19 -->
<g id="edge28_Node000011_Node000019" class="edge">
<title>Node11&#45;&gt;Node19</title>
<g id="a_edge28_Node000011_Node000019"><a xlink:title=" ">
<path fill="none" stroke="#63b8ff" d="M1364.73,-130.67C1428.21,-122.21 1521.19,-109.29 1602.03,-96 1605.04,-95.51 1608.11,-94.99 1611.21,-94.45"/>
<polygon fill="#63b8ff" stroke="#63b8ff" points="1364.26,-127.2 1354.8,-131.99 1365.18,-134.14 1364.26,-127.2"/>
</a>
</g>
</g>
<!-- Node11&#45;&gt;Node20 -->
<g id="edge29_Node000011_Node000020" class="edge">
<title>Node11&#45;&gt;Node20</title>
<g id="a_edge29_Node000011_Node000020"><a xlink:title=" ">
<path fill="none" stroke="#63b8ff" d="M1385.29,-133.47C1478.93,-126.1 1625.09,-113.2 1751.03,-96 1754.07,-95.59 1757.17,-95.14 1760.29,-94.67"/>
<polygon fill="#63b8ff" stroke="#63b8ff" points="1384.97,-129.98 1375.27,-134.25 1385.51,-136.96 1384.97,-129.98"/>
</a>
</g>
</g>
<!-- Node21 -->
<g id="Node000021" class="node">
<title>Node21</title>
<g id="a_Node000021"><a xlink:href="PhysicsInspectorWidget_8cpp.html" target="_top" xlink:title=" ">
<polygon fill="white" stroke="#666666" points="1277.53,-96 1146.53,-96 1146.53,-66 1277.53,-66 1277.53,-96"/>
<text text-anchor="start" x="1154.53" y="-84" font-family="Helvetica,sans-Serif" font-size="10.00">src/ui/inspector/Physics</text>
<text text-anchor="middle" x="1212.03" y="-73" font-family="Helvetica,sans-Serif" font-size="10.00">InspectorWidget.cpp</text>
</a>
</g>
</g>
<!-- Node11&#45;&gt;Node21 -->
<g id="edge30_Node000011_Node000021" class="edge">
<title>Node11&#45;&gt;Node21</title>
<g id="a_edge30_Node000011_Node000021"><a xlink:title=" ">
<path fill="none" stroke="#63b8ff" d="M1269.64,-125.77C1257.68,-116.68 1242.42,-105.09 1230.61,-96.11"/>
<polygon fill="#63b8ff" stroke="#63b8ff" points="1267.59,-128.61 1277.67,-131.87 1271.83,-123.03 1267.59,-128.61"/>
</a>
</g>
</g>
<!-- Node22 -->
<g id="Node000022" class="node">
<title>Node22</title>
<g id="a_Node000022"><a xlink:href="TransformInspectorWidget_8cpp.html" target="_top" xlink:title=" ">
<polygon fill="white" stroke="#666666" points="1438.53,-96 1295.53,-96 1295.53,-66 1438.53,-66 1438.53,-96"/>
<text text-anchor="start" x="1303.53" y="-84" font-family="Helvetica,sans-Serif" font-size="10.00">src/ui/inspector/Transform</text>
<text text-anchor="middle" x="1367.03" y="-73" font-family="Helvetica,sans-Serif" font-size="10.00">InspectorWidget.cpp</text>
</a>
</g>
</g>
<!-- Node11&#45;&gt;Node22 -->
<g id="edge31_Node000011_Node000022" class="edge">
<title>Node11&#45;&gt;Node22</title>
<g id="a_edge31_Node000011_Node000022"><a xlink:title=" ">
<path fill="none" stroke="#63b8ff" d="M1308.68,-125.77C1320.79,-116.68 1336.25,-105.09 1348.21,-96.11"/>
<polygon fill="#63b8ff" stroke="#63b8ff" points="1306.44,-123.07 1300.54,-131.87 1310.64,-128.67 1306.44,-123.07"/>
</a>
</g>
</g>
<!-- Node12&#45;&gt;Node2 -->
<g id="edge16_Node000012_Node000002" class="edge">
<title>Node12&#45;&gt;Node2</title>
<g id="a_edge16_Node000012_Node000002"><a xlink:title=" ">
<path fill="none" stroke="#63b8ff" d="M611.84,-64.55C556.97,-53.84 484.62,-39.73 432.1,-29.48"/>
<polygon fill="#63b8ff" stroke="#63b8ff" points="611.39,-68.03 621.87,-66.51 612.73,-61.16 611.39,-68.03"/>
</a>
</g>
</g>
<!-- Node12&#45;&gt;Node4 -->
<g id="edge17_Node000012_Node000004" class="edge">
<title>Node12&#45;&gt;Node4</title>
<g id="a_edge17_Node000012_Node000004"><a xlink:title=" ">
<path fill="none" stroke="#63b8ff" d="M648.13,-62.05C623.89,-51.91 594.03,-39.43 571.53,-30.01"/>
<polygon fill="#63b8ff" stroke="#63b8ff" points="646.88,-65.32 657.46,-65.95 649.58,-58.87 646.88,-65.32"/>
</a>
</g>
</g>
<!-- Node16 -->
<g id="Node000016" class="node">
<title>Node16</title>
<g id="a_Node000016"><a xlink:href="HierarchyWidget_8cpp.html" target="_top" xlink:title=" ">
<polygon fill="white" stroke="#666666" points="1599.03,-24.5 1451.03,-24.5 1451.03,-5.5 1599.03,-5.5 1599.03,-24.5"/>
<text text-anchor="middle" x="1525.03" y="-12.5" font-family="Helvetica,sans-Serif" font-size="10.00">src/ui/HierarchyWidget.cpp</text>
</a>
</g>
</g>
<!-- Node15&#45;&gt;Node16 -->
<g id="edge25_Node000015_Node000016" class="edge">
<title>Node15&#45;&gt;Node16</title>
<g id="a_edge25_Node000015_Node000016"><a xlink:title=" ">
<path fill="none" stroke="#63b8ff" d="M1525.03,-61.08C1525.03,-49.13 1525.03,-34.22 1525.03,-24.91"/>
<polygon fill="#63b8ff" stroke="#63b8ff" points="1521.53,-61.37 1525.03,-71.37 1528.53,-61.37 1521.53,-61.37"/>
</a>
</g>
</g>
<!-- Node17 -->
<g id="Node000017" class="node">
<title>Node17</title>
<g id="a_Node000017"><a xlink:href="MainWindow_8cpp.html" target="_top" xlink:title=" ">
<polygon fill="white" stroke="#666666" points="2183.03,-24.5 2055.03,-24.5 2055.03,-5.5 2183.03,-5.5 2183.03,-24.5"/>
<text text-anchor="middle" x="2119.03" y="-12.5" font-family="Helvetica,sans-Serif" font-size="10.00">src/ui/MainWindow.cpp</text>
</a>
</g>
</g>
<!-- Node15&#45;&gt;Node17 -->
<g id="edge26_Node000015_Node000017" class="edge">
<title>Node15&#45;&gt;Node17</title>
<g id="a_edge26_Node000015_Node000017"><a xlink:title=" ">
<path fill="none" stroke="#63b8ff" d="M1578.39,-69.7C1586.3,-68.35 1594.37,-67.07 1602.03,-66 1764.37,-43.43 1956.79,-27.71 2054.75,-20.48"/>
<polygon fill="#63b8ff" stroke="#63b8ff" points="1577.75,-66.26 1568.5,-71.44 1578.96,-73.16 1577.75,-66.26"/>
</a>
</g>
</g>
<!-- Node23&#45;&gt;Node8 -->
<g id="edge33_Node000023_Node000008" class="edge">
<title>Node23&#45;&gt;Node8</title>
<g id="a_edge33_Node000023_Node000008"><a xlink:title=" ">
<path fill="none" stroke="#63b8ff" d="M1970.29,-124.91C1981.73,-113.94 1996.61,-99.67 2006,-90.67"/>
<polygon fill="#63b8ff" stroke="#63b8ff" points="1967.83,-122.42 1963.03,-131.87 1972.67,-127.47 1967.83,-122.42"/>
</a>
</g>
</g>
<!-- Node23&#45;&gt;Node14 -->
<g id="edge34_Node000023_Node000014" class="edge">
<title>Node23&#45;&gt;Node14</title>
<g id="a_edge34_Node000023_Node000014"><a xlink:title=" ">
<path fill="none" stroke="#63b8ff" d="M2003.9,-129.89C2057,-118.6 2139.99,-100.94 2189,-90.52"/>
<polygon fill="#63b8ff" stroke="#63b8ff" points="2003.07,-126.49 1994.02,-131.99 2004.53,-133.34 2003.07,-126.49"/>
</a>
</g>
</g>
<!-- Node24&#45;&gt;Node17 -->
<g id="edge37_Node000024_Node000017" class="edge">
<title>Node24&#45;&gt;Node17</title>
<g id="a_edge37_Node000024_Node000017"><a xlink:title=" ">
<path fill="none" stroke="#63b8ff" d="M2557.76,-121.29C2557.28,-104.13 2553.61,-79.66 2538.03,-66 2486.6,-20.9 2287.23,-14.99 2183.14,-15.1"/>
<polygon fill="#63b8ff" stroke="#63b8ff" points="2554.26,-121.76 2557.69,-131.78 2561.26,-121.81 2554.26,-121.76"/>
</a>
</g>
</g>
<!-- Node25 -->
<g id="Node000025" class="node">
<title>Node25</title>
<g id="a_Node000025"><a xlink:href="main_8cpp.html" target="_top" xlink:title=" ">
<polygon fill="white" stroke="#666666" points="2664.53,-90.5 2585.53,-90.5 2585.53,-71.5 2664.53,-71.5 2664.53,-90.5"/>
<text text-anchor="middle" x="2625.03" y="-78.5" font-family="Helvetica,sans-Serif" font-size="10.00">src/main.cpp</text>
</a>
</g>
</g>
<!-- Node24&#45;&gt;Node25 -->
<g id="edge36_Node000024_Node000025" class="edge">
<title>Node24&#45;&gt;Node25</title>
<g id="a_edge36_Node000024_Node000025"><a xlink:title=" ">
<path fill="none" stroke="#63b8ff" d="M2574.79,-125.22C2587.59,-114.21 2604.4,-99.75 2614.96,-90.67"/>
<polygon fill="#63b8ff" stroke="#63b8ff" points="2572.36,-122.69 2567.07,-131.87 2576.93,-128 2572.36,-122.69"/>
</a>
</g>
</g>
</g>
</svg>

<g id="navigator" transform="translate(0 0)" fill="#404254">
  <rect fill="#f2f5e9" fill-opacity="0.5" stroke="#606060" stroke-width=".5" x="0" y="0" width="60" height="60"/>
  <use id="zoomplus" xlink:href="#zoomPlus" x="17" y="9" onmousedown="handleZoom(evt,'in')"/>
  <use id="zoomminus" xlink:href="#zoomMin" x="42" y="9" onmousedown="handleZoom(evt,'out')"/>
  <use id="reset" xlink:href="#resetDef" x="30" y="36" onmousedown="handleReset()"/>
   <use id="arrowup" xlink:href="#arrowUp" x="0" y="0" onmousedown="handlePan(0,-1)"/>
  <use id="arrowright" xlink:href="#arrowRight" x="0" y="0" onmousedown="handlePan(1,0)"/>
  <use id="arrowdown" xlink:href="#arrowDown" x="0" y="0" onmousedown="handlePan(0,1)"/>
  <use id="arrowleft" xlink:href="#arrowLeft" x="0" y="0" onmousedown="handlePan(-1,0)"/>
</g>
<svg viewBox="0 0 15 15" width="100%" height="30px" preserveAspectRatio="xMaxYMin meet">
 <g id="arrow_out" transform="scale(0.3 0.3)">
  <a xlink:href="ResourceManager_8h__dep__incl_org.svg" target="_base">
   <rect id="button" ry="5" rx="5" y="6" x="6" height="38" width="38"
        fill="#f2f5e9" fill-opacity="0.5" stroke="#606060" stroke-width="1.0"/>
   <path id="arrow"
     d="M 11.500037,31.436501 C 11.940474,20.09759 22.043105,11.32322 32.158766,21.979434 L 37.068811,17.246167 C 37.068811,17.246167 37.088388,32 37.088388,32 L 22.160133,31.978069 C 22.160133,31.978069 26.997745,27.140456 26.997745,27.140456 C 18.528582,18.264221 13.291696,25.230495 11.500037,31.436501 z"
     style="fill:#404040;"/>
  </a>
 </g>
</svg>

<style type='text/css'>
<![CDATA[
[data-mouse-over-selected='false'] { opacity: 0.7; }
[data-mouse-over-selected='true']  { opacity: 1.0; }
]]>
</style>
<script type="application/ecmascript"><![CDATA[
document.addEventListener('DOMContentLoaded', (event) => {
  highlightEdges();
  highlightAdjacentNodes();
});
]]></script>
</svg>
