<?xml version="1.0" encoding="UTF-8" standalone="no"?>
<!DOCTYPE svg PUBLIC "-//W3C//DTD SVG 1.1//EN"
 "http://www.w3.org/Graphics/SVG/1.1/DTD/svg11.dtd">
<!-- Generated by graphviz version 2.43.0 (0)
 -->
<!-- Title: src/physics/RigidBody.cpp Pages: 1 -->
<!--zoomable 247 -->

<svg id="main" version="1.1" xmlns="http://www.w3.org/2000/svg" xmlns:xlink="http://www.w3.org/1999/xlink" xml:space="preserve" onload="init(evt)">
<style type="text/css"><![CDATA[
.node, .edge {opacity: 0.7;}
.node.selected, .edge.selected {opacity: 1;}
.edge:hover path { stroke: red; }
.edge:hover polygon { stroke: red; fill: red; }
]]></style>

<defs>
  <circle id="rim" cx="0" cy="0" r="7"/>
  <circle id="rim2" cx="0" cy="0" r="3.5"/>
  <g id="zoomPlus">
    <use xlink:href="#rim" fill="#404040"><set attributeName="fill" to="#808080" begin="zoomplus.mouseover" end="zoomplus.mouseout"/></use>
    <path d="M-4,0h8M0,-4v8" fill="none" stroke="white" stroke-width="1.5" pointer-events="none"/>
  </g>
  <g id="zoomMin">
    <use xlink:href="#rim" fill="#404040"><set attributeName="fill" to="#808080" begin="zoomminus.mouseover" end="zoomminus.mouseout"/></use>
    <path d="M-4,0h8" fill="none" stroke="white" stroke-width="1.5" pointer-events="none"/>
  </g>
  <g id="arrowUp" transform="translate(30 24)">
    <use xlink:href="#rim"/>
    <path pointer-events="none" fill="none" stroke="white" stroke-width="1.5" d="M0,-3.0v7 M-2.5,-0.5L0,-3.0L2.5,-0.5"/>
  </g>
  <g id="arrowRight" transform="rotate(90) translate(36 -43)">
    <use xlink:href="#rim"/>
    <path pointer-events="none" fill="none" stroke="white" stroke-width="1.5" d="M0,-3.0v7 M-2.5,-0.5L0,-3.0L2.5,-0.5"/>
  </g>
  <g id="arrowDown" transform="rotate(180) translate(-30 -48)">
    <use xlink:href="#rim"/>
    <path pointer-events="none" fill="none" stroke="white" stroke-width="1.5" d="M0,-3.0v7 M-2.5,-0.5L0,-3.0L2.5,-0.5"/>
  </g>
  <g id="arrowLeft" transform="rotate(270) translate(-36 17)">
    <use xlink:href="#rim"/>
    <path pointer-events="none" fill="none" stroke="white" stroke-width="1.5" d="M0,-3.0v7 M-2.5,-0.5L0,-3.0L2.5,-0.5"/>
  </g>
  <g id="resetDef">
    <use xlink:href="#rim2" fill="#404040"><set attributeName="fill" to="#808080" begin="reset.mouseover" end="reset.mouseout"/></use>
  </g>
</defs>
<script type="application/ecmascript">
var viewWidth = 879;
var viewHeight = 247;
var sectionId = 'dynsection-0';
</script>
<script type="application/ecmascript" xlink:href="svg.min.js"/>
<svg id="graph" class="graph">
<g id="viewport">
<title>src/physics/RigidBody.cpp</title>
<!-- Node1 -->
<g id="Node000001" class="node">
<title>Node1</title>
<g id="a_Node000001"><a xlink:title=" ">
<polygon fill="#999999" stroke="#666666" points="618.83,-239 476.83,-239 476.83,-220 618.83,-220 618.83,-239"/>
<text text-anchor="middle" x="547.83" y="-227" font-family="Helvetica,sans-Serif" font-size="10.00">src/physics/RigidBody.cpp</text>
</a>
</g>
</g>
<!-- Node2 -->
<g id="Node000002" class="node">
<title>Node2</title>
<g id="a_Node000002"><a xlink:href="RigidBody_8h.html" target="_top" xlink:title=" ">
<polygon fill="white" stroke="#666666" points="524.83,-184 450.83,-184 450.83,-165 524.83,-165 524.83,-184"/>
<text text-anchor="middle" x="487.83" y="-172" font-family="Helvetica,sans-Serif" font-size="10.00">RigidBody.h</text>
</a>
</g>
</g>
<!-- Node1&#45;&gt;Node2 -->
<g id="edge1_Node000001_Node000002" class="edge">
<title>Node1&#45;&gt;Node2</title>
<g id="a_edge1_Node000001_Node000002"><a xlink:title=" ">
<path fill="none" stroke="#63b8ff" d="M538.19,-219.98C529.32,-212.15 515.96,-200.34 505.22,-190.86"/>
<polygon fill="#63b8ff" stroke="#63b8ff" points="507.46,-188.17 497.65,-184.17 502.83,-193.41 507.46,-188.17"/>
</a>
</g>
</g>
<!-- Node17 -->
<g id="Node000017" class="node">
<title>Node17</title>
<g id="a_Node000017"><a xlink:title=" ">
<polygon fill="#e0e0e0" stroke="#999999" points="779.83,-184 719.83,-184 719.83,-165 779.83,-165 779.83,-184"/>
<text text-anchor="middle" x="749.83" y="-172" font-family="Helvetica,sans-Serif" font-size="10.00">iostream</text>
</a>
</g>
</g>
<!-- Node1&#45;&gt;Node17 -->
<g id="edge20_Node000001_Node000017" class="edge">
<title>Node1&#45;&gt;Node17</title>
<g id="a_edge20_Node000001_Node000017"><a xlink:title=" ">
<path fill="none" stroke="#63b8ff" d="M580.29,-219.98C615.61,-210.72 672.1,-195.89 710.06,-185.93"/>
<polygon fill="#63b8ff" stroke="#63b8ff" points="710.98,-189.31 719.77,-183.39 709.21,-182.54 710.98,-189.31"/>
</a>
</g>
</g>
<!-- Node18 -->
<g id="Node000018" class="node">
<title>Node18</title>
<g id="a_Node000018"><a xlink:href="PointMass_8h.html" target="_top" xlink:title=" ">
<polygon fill="white" stroke="#666666" points="277.83,-184 201.83,-184 201.83,-165 277.83,-165 277.83,-184"/>
<text text-anchor="middle" x="239.83" y="-172" font-family="Helvetica,sans-Serif" font-size="10.00">PointMass.h</text>
</a>
</g>
</g>
<!-- Node1&#45;&gt;Node18 -->
<g id="edge21_Node000001_Node000018" class="edge">
<title>Node1&#45;&gt;Node18</title>
<g id="a_edge21_Node000001_Node000018"><a xlink:title=" ">
<path fill="none" stroke="#63b8ff" d="M498.35,-219.98C440.44,-210.02 345.19,-193.63 287.9,-183.77"/>
<polygon fill="#63b8ff" stroke="#63b8ff" points="288.46,-180.32 278.01,-182.07 287.27,-187.21 288.46,-180.32"/>
</a>
</g>
</g>
<!-- Node20 -->
<g id="Node000020" class="node">
<title>Node20</title>
<g id="a_Node000020"><a xlink:href="BoxCollider_8h.html" target="_top" xlink:title=" ">
<polygon fill="white" stroke="#666666" points="701.33,-184 572.33,-184 572.33,-165 701.33,-165 701.33,-184"/>
<text text-anchor="middle" x="636.83" y="-172" font-family="Helvetica,sans-Serif" font-size="10.00">bounding/BoxCollider.h</text>
</a>
</g>
</g>
<!-- Node1&#45;&gt;Node20 -->
<g id="edge27_Node000001_Node000020" class="edge">
<title>Node1&#45;&gt;Node20</title>
<g id="a_edge27_Node000001_Node000020"><a xlink:title=" ">
<path fill="none" stroke="#63b8ff" d="M562.13,-219.98C575.93,-211.77 597.07,-199.18 613.35,-189.49"/>
<polygon fill="#63b8ff" stroke="#63b8ff" points="615.47,-192.29 622.27,-184.17 611.89,-186.28 615.47,-192.29"/>
</a>
</g>
</g>
<!-- Node3 -->
<g id="Node000003" class="node">
<title>Node3</title>
<g id="a_Node000003"><a xlink:title=" ">
<polygon fill="#e0e0e0" stroke="#999999" points="132.83,-74 84.83,-74 84.83,-55 132.83,-55 132.83,-74"/>
<text text-anchor="middle" x="108.83" y="-62" font-family="Helvetica,sans-Serif" font-size="10.00">mutex</text>
</a>
</g>
</g>
<!-- Node2&#45;&gt;Node3 -->
<g id="edge2_Node000002_Node000003" class="edge">
<title>Node2&#45;&gt;Node3</title>
<g id="a_edge2_Node000002_Node000003"><a xlink:title=" ">
<path fill="none" stroke="#63b8ff" d="M450.8,-172.67C395.48,-170.33 288.76,-161.57 204.83,-129 175.05,-117.44 145.04,-95.56 126.69,-80.76"/>
<polygon fill="#63b8ff" stroke="#63b8ff" points="128.61,-77.8 118.67,-74.13 124.15,-83.2 128.61,-77.8"/>
</a>
</g>
</g>
<!-- Node4 -->
<g id="Node000004" class="node">
<title>Node4</title>
<g id="a_Node000004"><a xlink:title=" ">
<polygon fill="#e0e0e0" stroke="#999999" points="198.33,-74 151.33,-74 151.33,-55 198.33,-55 198.33,-74"/>
<text text-anchor="middle" x="174.83" y="-62" font-family="Helvetica,sans-Serif" font-size="10.00">vector</text>
</a>
</g>
</g>
<!-- Node2&#45;&gt;Node4 -->
<g id="edge3_Node000002_Node000004" class="edge">
<title>Node2&#45;&gt;Node4</title>
<g id="a_edge3_Node000002_Node000004"><a xlink:title=" ">
<path fill="none" stroke="#63b8ff" d="M450.58,-174.46C398.4,-174.22 302.08,-167.9 231.83,-129 212.06,-118.05 195.61,-97.6 185.54,-82.86"/>
<polygon fill="#63b8ff" stroke="#63b8ff" points="188.27,-80.63 179.88,-74.15 182.4,-84.44 188.27,-80.63"/>
</a>
</g>
</g>
<!-- Node5 -->
<g id="Node000005" class="node">
<title>Node5</title>
<g id="a_Node000005"><a xlink:title=" ">
<polygon fill="#e0e0e0" stroke="#999999" points="584.83,-74 506.83,-74 506.83,-55 584.83,-55 584.83,-74"/>
<text text-anchor="middle" x="545.83" y="-62" font-family="Helvetica,sans-Serif" font-size="10.00">glm/glm.hpp</text>
</a>
</g>
</g>
<!-- Node2&#45;&gt;Node5 -->
<g id="edge4_Node000002_Node000005" class="edge">
<title>Node2&#45;&gt;Node5</title>
<g id="a_edge4_Node000002_Node000005"><a xlink:title=" ">
<path fill="none" stroke="#63b8ff" d="M515.12,-164.88C531.84,-158.03 551.87,-146.62 561.83,-129 569.86,-114.81 563.87,-96.58 557.05,-83.3"/>
<polygon fill="#63b8ff" stroke="#63b8ff" points="559.88,-81.21 551.89,-74.26 553.8,-84.68 559.88,-81.21"/>
</a>
</g>
</g>
<!-- Node6 -->
<g id="Node000006" class="node">
<title>Node6</title>
<g id="a_Node000006"><a xlink:title=" ">
<polygon fill="#e0e0e0" stroke="#999999" points="552.83,-129 422.83,-129 422.83,-110 552.83,-110 552.83,-129"/>
<text text-anchor="middle" x="487.83" y="-117" font-family="Helvetica,sans-Serif" font-size="10.00">glm/gtc/quaternion.hpp</text>
</a>
</g>
</g>
<!-- Node2&#45;&gt;Node6 -->
<g id="edge5_Node000002_Node000006" class="edge">
<title>Node2&#45;&gt;Node6</title>
<g id="a_edge5_Node000002_Node000006"><a xlink:title=" ">
<path fill="none" stroke="#63b8ff" d="M487.83,-164.75C487.83,-157.8 487.83,-147.85 487.83,-139.13"/>
<polygon fill="#63b8ff" stroke="#63b8ff" points="491.33,-139.09 487.83,-129.09 484.33,-139.09 491.33,-139.09"/>
</a>
</g>
</g>
<!-- Node7 -->
<g id="Node000007" class="node">
<title>Node7</title>
<g id="a_Node000007"><a xlink:href="ICollider_8h.html" target="_top" xlink:title="Abstract interface for collision detection shapes.">
<polygon fill="white" stroke="#666666" points="722.33,-129 609.33,-129 609.33,-110 722.33,-110 722.33,-129"/>
<text text-anchor="middle" x="665.83" y="-117" font-family="Helvetica,sans-Serif" font-size="10.00">bounding/ICollider.h</text>
</a>
</g>
</g>
<!-- Node2&#45;&gt;Node7 -->
<g id="edge6_Node000002_Node000007" class="edge">
<title>Node2&#45;&gt;Node7</title>
<g id="a_edge6_Node000002_Node000007"><a xlink:title=" ">
<path fill="none" stroke="#63b8ff" d="M516.43,-164.98C546.44,-156.05 593.81,-141.94 627.15,-132.02"/>
<polygon fill="#63b8ff" stroke="#63b8ff" points="628.42,-135.29 637.01,-129.08 626.43,-128.58 628.42,-135.29"/>
</a>
</g>
</g>
<!-- Node12 -->
<g id="Node000012" class="node">
<title>Node12</title>
<g id="a_Node000012"><a xlink:href="PhysicsBody_8h.html" target="_top" xlink:title=" ">
<polygon fill="white" stroke="#666666" points="366.33,-129 241.33,-129 241.33,-110 366.33,-110 366.33,-129"/>
<text text-anchor="middle" x="303.83" y="-117" font-family="Helvetica,sans-Serif" font-size="10.00">physics/PhysicsBody.h</text>
</a>
</g>
</g>
<!-- Node2&#45;&gt;Node12 -->
<g id="edge12_Node000002_Node000012" class="edge">
<title>Node2&#45;&gt;Node12</title>
<g id="a_edge12_Node000002_Node000012"><a xlink:title=" ">
<path fill="none" stroke="#63b8ff" d="M458.27,-164.98C427.11,-156.01 377.86,-141.82 343.38,-131.89"/>
<polygon fill="#63b8ff" stroke="#63b8ff" points="344.2,-128.49 333.63,-129.08 342.27,-135.21 344.2,-128.49"/>
</a>
</g>
</g>
<!-- Node7&#45;&gt;Node5 -->
<g id="edge7_Node000007_Node000005" class="edge">
<title>Node7&#45;&gt;Node5</title>
<g id="a_edge7_Node000007_Node000005"><a xlink:title=" ">
<path fill="none" stroke="#63b8ff" d="M646.55,-109.98C627.16,-101.42 597.03,-88.11 574.77,-78.28"/>
<polygon fill="#63b8ff" stroke="#63b8ff" points="576.02,-75.01 565.46,-74.17 573.2,-81.41 576.02,-75.01"/>
</a>
</g>
</g>
<!-- Node8 -->
<g id="Node000008" class="node">
<title>Node8</title>
<g id="a_Node000008"><a xlink:title=" ">
<polygon fill="#e0e0e0" stroke="#999999" points="660.83,-74 602.83,-74 602.83,-55 660.83,-55 660.83,-74"/>
<text text-anchor="middle" x="631.83" y="-62" font-family="Helvetica,sans-Serif" font-size="10.00">memory</text>
</a>
</g>
</g>
<!-- Node7&#45;&gt;Node8 -->
<g id="edge8_Node000007_Node000008" class="edge">
<title>Node7&#45;&gt;Node8</title>
<g id="a_edge8_Node000007_Node000008"><a xlink:title=" ">
<path fill="none" stroke="#63b8ff" d="M660.22,-109.75C655.51,-102.42 648.66,-91.73 642.86,-82.7"/>
<polygon fill="#63b8ff" stroke="#63b8ff" points="645.69,-80.62 637.34,-74.09 639.8,-84.4 645.69,-80.62"/>
</a>
</g>
</g>
<!-- Node9 -->
<g id="Node000009" class="node">
<title>Node9</title>
<g id="a_Node000009"><a xlink:title=" ">
<polygon fill="#e0e0e0" stroke="#999999" points="734.83,-74 678.83,-74 678.83,-55 734.83,-55 734.83,-74"/>
<text text-anchor="middle" x="706.83" y="-62" font-family="Helvetica,sans-Serif" font-size="10.00">optional</text>
</a>
</g>
</g>
<!-- Node7&#45;&gt;Node9 -->
<g id="edge9_Node000007_Node000009" class="edge">
<title>Node7&#45;&gt;Node9</title>
<g id="a_edge9_Node000007_Node000009"><a xlink:title=" ">
<path fill="none" stroke="#63b8ff" d="M672.6,-109.75C678.39,-102.26 686.89,-91.28 693.97,-82.13"/>
<polygon fill="#63b8ff" stroke="#63b8ff" points="696.84,-84.14 700.19,-74.09 691.3,-79.86 696.84,-84.14"/>
</a>
</g>
</g>
<!-- Node10 -->
<g id="Node000010" class="node">
<title>Node10</title>
<g id="a_Node000010"><a xlink:href="Ray_8h.html" target="_top" xlink:title=" ">
<polygon fill="white" stroke="#666666" points="824.33,-74 753.33,-74 753.33,-55 824.33,-55 824.33,-74"/>
<text text-anchor="middle" x="788.83" y="-62" font-family="Helvetica,sans-Serif" font-size="10.00">math/Ray.h</text>
</a>
</g>
</g>
<!-- Node7&#45;&gt;Node10 -->
<g id="edge10_Node000007_Node000010" class="edge">
<title>Node7&#45;&gt;Node10</title>
<g id="a_edge10_Node000007_Node000010"><a xlink:title=" ">
<path fill="none" stroke="#63b8ff" d="M685.59,-109.98C705.56,-101.38 736.64,-87.99 759.48,-78.15"/>
<polygon fill="#63b8ff" stroke="#63b8ff" points="760.91,-81.34 768.71,-74.17 758.14,-74.91 760.91,-81.34"/>
</a>
</g>
</g>
<!-- Node11 -->
<g id="Node000011" class="node">
<title>Node11</title>
<g id="a_Node000011"><a xlink:title=" ">
<polygon fill="#e0e0e0" stroke="#999999" points="830.33,-19 747.33,-19 747.33,0 830.33,0 830.33,-19"/>
<text text-anchor="middle" x="788.83" y="-7" font-family="Helvetica,sans-Serif" font-size="10.00">glm/vec3.hpp</text>
</a>
</g>
</g>
<!-- Node10&#45;&gt;Node11 -->
<g id="edge11_Node000010_Node000011" class="edge">
<title>Node10&#45;&gt;Node11</title>
<g id="a_edge11_Node000010_Node000011"><a xlink:title=" ">
<path fill="none" stroke="#63b8ff" d="M788.83,-54.75C788.83,-47.8 788.83,-37.85 788.83,-29.13"/>
<polygon fill="#63b8ff" stroke="#63b8ff" points="792.33,-29.09 788.83,-19.09 785.33,-29.09 792.33,-29.09"/>
</a>
</g>
</g>
<!-- Node12&#45;&gt;Node3 -->
<g id="edge18_Node000012_Node000003" class="edge">
<title>Node12&#45;&gt;Node3</title>
<g id="a_edge18_Node000012_Node000003"><a xlink:title=" ">
<path fill="none" stroke="#63b8ff" d="M272.5,-109.98C236.98,-100.33 179.26,-84.64 142.71,-74.71"/>
<polygon fill="#63b8ff" stroke="#63b8ff" points="143.57,-71.31 133,-72.07 141.73,-78.07 143.57,-71.31"/>
</a>
</g>
</g>
<!-- Node12&#45;&gt;Node4 -->
<g id="edge16_Node000012_Node000004" class="edge">
<title>Node12&#45;&gt;Node4</title>
<g id="a_edge16_Node000012_Node000004"><a xlink:title=" ">
<path fill="none" stroke="#63b8ff" d="M283.11,-109.98C262.07,-101.34 229.28,-87.87 205.3,-78.02"/>
<polygon fill="#63b8ff" stroke="#63b8ff" points="206.52,-74.73 195.94,-74.17 203.85,-81.21 206.52,-74.73"/>
</a>
</g>
</g>
<!-- Node12&#45;&gt;Node5 -->
<g id="edge15_Node000012_Node000005" class="edge">
<title>Node12&#45;&gt;Node5</title>
<g id="a_edge15_Node000012_Node000005"><a xlink:title=" ">
<path fill="none" stroke="#63b8ff" d="M342.71,-109.98C384.57,-100.82 451.26,-86.21 496.72,-76.26"/>
<polygon fill="#63b8ff" stroke="#63b8ff" points="497.63,-79.64 506.65,-74.08 496.13,-72.8 497.63,-79.64"/>
</a>
</g>
</g>
<!-- Node13 -->
<g id="Node000013" class="node">
<title>Node13</title>
<g id="a_Node000013"><a xlink:title=" ">
<polygon fill="#e0e0e0" stroke="#999999" points="370.83,-74 320.83,-74 320.83,-55 370.83,-55 370.83,-74"/>
<text text-anchor="middle" x="345.83" y="-62" font-family="Helvetica,sans-Serif" font-size="10.00">atomic</text>
</a>
</g>
</g>
<!-- Node12&#45;&gt;Node13 -->
<g id="edge13_Node000012_Node000013" class="edge">
<title>Node12&#45;&gt;Node13</title>
<g id="a_edge13_Node000012_Node000013"><a xlink:title=" ">
<path fill="none" stroke="#63b8ff" d="M310.77,-109.75C316.7,-102.26 325.4,-91.28 332.66,-82.13"/>
<polygon fill="#63b8ff" stroke="#63b8ff" points="335.56,-84.1 339.03,-74.09 330.07,-79.75 335.56,-84.1"/>
</a>
</g>
</g>
<!-- Node14 -->
<g id="Node000014" class="node">
<title>Node14</title>
<g id="a_Node000014"><a xlink:title=" ">
<polygon fill="#e0e0e0" stroke="#999999" points="432.83,-74 388.83,-74 388.83,-55 432.83,-55 432.83,-74"/>
<text text-anchor="middle" x="410.83" y="-62" font-family="Helvetica,sans-Serif" font-size="10.00">string</text>
</a>
</g>
</g>
<!-- Node12&#45;&gt;Node14 -->
<g id="edge14_Node000012_Node000014" class="edge">
<title>Node12&#45;&gt;Node14</title>
<g id="a_edge14_Node000012_Node000014"><a xlink:title=" ">
<path fill="none" stroke="#63b8ff" d="M321.02,-109.98C338.08,-101.54 364.46,-88.47 384.23,-78.68"/>
<polygon fill="#63b8ff" stroke="#63b8ff" points="385.92,-81.75 393.33,-74.17 382.81,-75.47 385.92,-81.75"/>
</a>
</g>
</g>
<!-- Node15 -->
<g id="Node000015" class="node">
<title>Node15</title>
<g id="a_Node000015"><a xlink:title=" ">
<polygon fill="#e0e0e0" stroke="#999999" points="488.83,-74 450.83,-74 450.83,-55 488.83,-55 488.83,-74"/>
<text text-anchor="middle" x="469.83" y="-62" font-family="Helvetica,sans-Serif" font-size="10.00">map</text>
</a>
</g>
</g>
<!-- Node12&#45;&gt;Node15 -->
<g id="edge17_Node000012_Node000015" class="edge">
<title>Node12&#45;&gt;Node15</title>
<g id="a_edge17_Node000012_Node000015"><a xlink:title=" ">
<path fill="none" stroke="#63b8ff" d="M330.5,-109.98C360.64,-100.36 409.54,-84.75 440.66,-74.81"/>
<polygon fill="#63b8ff" stroke="#63b8ff" points="442.03,-78.05 450.49,-71.68 439.9,-71.38 442.03,-78.05"/>
</a>
</g>
</g>
<!-- Node16 -->
<g id="Node000016" class="node">
<title>Node16</title>
<g id="a_Node000016"><a xlink:title=" ">
<polygon fill="#e0e0e0" stroke="#999999" points="302.83,-74 216.83,-74 216.83,-55 302.83,-55 302.83,-74"/>
<text text-anchor="middle" x="259.83" y="-62" font-family="Helvetica,sans-Serif" font-size="10.00">unordered_set</text>
</a>
</g>
</g>
<!-- Node12&#45;&gt;Node16 -->
<g id="edge19_Node000012_Node000016" class="edge">
<title>Node12&#45;&gt;Node16</title>
<g id="a_edge19_Node000012_Node000016"><a xlink:title=" ">
<path fill="none" stroke="#63b8ff" d="M296.57,-109.75C290.29,-102.18 281.04,-91.05 273.4,-81.84"/>
<polygon fill="#63b8ff" stroke="#63b8ff" points="276.04,-79.55 266.96,-74.09 270.66,-84.02 276.04,-79.55"/>
</a>
</g>
</g>
<!-- Node18&#45;&gt;Node3 -->
<g id="edge25_Node000018_Node000003" class="edge">
<title>Node18&#45;&gt;Node3</title>
<g id="a_edge25_Node000018_Node000003"><a xlink:title=" ">
<path fill="none" stroke="#63b8ff" d="M201.45,-171.93C141.56,-168.58 30.22,-158.47 5.83,-129 -17.1,-101.3 36.7,-82.25 74.87,-72.67"/>
<polygon fill="#63b8ff" stroke="#63b8ff" points="75.74,-76.06 84.66,-70.33 74.12,-69.25 75.74,-76.06"/>
</a>
</g>
</g>
<!-- Node18&#45;&gt;Node4 -->
<g id="edge23_Node000018_Node000004" class="edge">
<title>Node18&#45;&gt;Node4</title>
<g id="a_edge23_Node000018_Node000004"><a xlink:title=" ">
<path fill="none" stroke="#63b8ff" d="M229.89,-164.82C220.78,-156.42 207.44,-142.95 198.83,-129 190.13,-114.9 183.74,-97.13 179.76,-83.97"/>
<polygon fill="#63b8ff" stroke="#63b8ff" points="183.08,-82.85 176.98,-74.19 176.35,-84.77 183.08,-82.85"/>
</a>
</g>
</g>
<!-- Node18&#45;&gt;Node5 -->
<g id="edge24_Node000018_Node000005" class="edge">
<title>Node18&#45;&gt;Node5</title>
<g id="a_edge24_Node000018_Node000005"><a xlink:title=" ">
<path fill="none" stroke="#63b8ff" d="M269.48,-164.99C297.11,-156.76 339.28,-143.44 374.83,-129 392.7,-121.74 395.99,-117.32 413.83,-110 444.78,-97.3 480.83,-85.34 507.42,-77.02"/>
<polygon fill="#63b8ff" stroke="#63b8ff" points="508.6,-80.31 517.12,-74.01 506.53,-73.63 508.6,-80.31"/>
</a>
</g>
</g>
<!-- Node18&#45;&gt;Node12 -->
<g id="edge26_Node000018_Node000012" class="edge">
<title>Node18&#45;&gt;Node12</title>
<g id="a_edge26_Node000018_Node000012"><a xlink:title=" ">
<path fill="none" stroke="#63b8ff" d="M250.11,-164.98C259.67,-157.07 274.11,-145.11 285.62,-135.58"/>
<polygon fill="#63b8ff" stroke="#63b8ff" points="287.89,-138.24 293.36,-129.17 283.43,-132.85 287.89,-138.24"/>
</a>
</g>
</g>
<!-- Node19 -->
<g id="Node000019" class="node">
<title>Node19</title>
<g id="a_Node000019"><a xlink:title=" ">
<polygon fill="#e0e0e0" stroke="#999999" points="108.33,-129 15.33,-129 15.33,-110 108.33,-110 108.33,-129"/>
<text text-anchor="middle" x="61.83" y="-117" font-family="Helvetica,sans-Serif" font-size="10.00">unordered_map</text>
</a>
</g>
</g>
<!-- Node18&#45;&gt;Node19 -->
<g id="edge22_Node000018_Node000019" class="edge">
<title>Node18&#45;&gt;Node19</title>
<g id="a_edge22_Node000018_Node000019"><a xlink:title=" ">
<path fill="none" stroke="#63b8ff" d="M211.23,-164.98C181.22,-156.05 133.85,-141.94 100.52,-132.02"/>
<polygon fill="#63b8ff" stroke="#63b8ff" points="101.24,-128.58 90.65,-129.08 99.24,-135.29 101.24,-128.58"/>
</a>
</g>
</g>
<!-- Node20&#45;&gt;Node7 -->
<g id="edge28_Node000020_Node000007" class="edge">
<title>Node20&#45;&gt;Node7</title>
<g id="a_edge28_Node000020_Node000007"><a xlink:title=" ">
<path fill="none" stroke="#63b8ff" d="M641.62,-164.75C645.59,-157.49 651.36,-146.95 656.27,-137.98"/>
<polygon fill="#63b8ff" stroke="#63b8ff" points="659.4,-139.54 661.13,-129.09 653.26,-136.18 659.4,-139.54"/>
</a>
</g>
</g>
<!-- Node21 -->
<g id="Node000021" class="node">
<title>Node21</title>
<g id="a_Node000021"><a xlink:title=" ">
<polygon fill="#e0e0e0" stroke="#999999" points="871.33,-129 740.33,-129 740.33,-110 871.33,-110 871.33,-129"/>
<text text-anchor="middle" x="805.83" y="-117" font-family="Helvetica,sans-Serif" font-size="10.00">glm/gtx/quaternion.hpp</text>
</a>
</g>
</g>
<!-- Node20&#45;&gt;Node21 -->
<g id="edge29_Node000020_Node000021" class="edge">
<title>Node20&#45;&gt;Node21</title>
<g id="a_edge29_Node000020_Node000021"><a xlink:title=" ">
<path fill="none" stroke="#63b8ff" d="M663.98,-164.98C692.36,-156.09 737.06,-142.07 768.69,-132.15"/>
<polygon fill="#63b8ff" stroke="#63b8ff" points="769.97,-135.41 778.47,-129.08 767.88,-128.73 769.97,-135.41"/>
</a>
</g>
</g>
</g>
</svg>

<g id="navigator" transform="translate(0 0)" fill="#404254">
  <rect fill="#f2f5e9" fill-opacity="0.5" stroke="#606060" stroke-width=".5" x="0" y="0" width="60" height="60"/>
  <use id="zoomplus" xlink:href="#zoomPlus" x="17" y="9" onmousedown="handleZoom(evt,'in')"/>
  <use id="zoomminus" xlink:href="#zoomMin" x="42" y="9" onmousedown="handleZoom(evt,'out')"/>
  <use id="reset" xlink:href="#resetDef" x="30" y="36" onmousedown="handleReset()"/>
   <use id="arrowup" xlink:href="#arrowUp" x="0" y="0" onmousedown="handlePan(0,-1)"/>
  <use id="arrowright" xlink:href="#arrowRight" x="0" y="0" onmousedown="handlePan(1,0)"/>
  <use id="arrowdown" xlink:href="#arrowDown" x="0" y="0" onmousedown="handlePan(0,1)"/>
  <use id="arrowleft" xlink:href="#arrowLeft" x="0" y="0" onmousedown="handlePan(-1,0)"/>
</g>
<svg viewBox="0 0 15 15" width="100%" height="30px" preserveAspectRatio="xMaxYMin meet">
 <g id="arrow_out" transform="scale(0.3 0.3)">
  <a xlink:href="RigidBody_8cpp__incl_org.svg" target="_base">
   <rect id="button" ry="5" rx="5" y="6" x="6" height="38" width="38"
        fill="#f2f5e9" fill-opacity="0.5" stroke="#606060" stroke-width="1.0"/>
   <path id="arrow"
     d="M 11.500037,31.436501 C 11.940474,20.09759 22.043105,11.32322 32.158766,21.979434 L 37.068811,17.246167 C 37.068811,17.246167 37.088388,32 37.088388,32 L 22.160133,31.978069 C 22.160133,31.978069 26.997745,27.140456 26.997745,27.140456 C 18.528582,18.264221 13.291696,25.230495 11.500037,31.436501 z"
     style="fill:#404040;"/>
  </a>
 </g>
</svg>

<style type='text/css'>
<![CDATA[
[data-mouse-over-selected='false'] { opacity: 0.7; }
[data-mouse-over-selected='true']  { opacity: 1.0; }
]]>
</style>
<script type="application/ecmascript"><![CDATA[
document.addEventListener('DOMContentLoaded', (event) => {
  highlightEdges();
  highlightAdjacentNodes();
});
]]></script>
</svg>
