<?xml version="1.0" encoding="UTF-8" standalone="no"?>
<!DOCTYPE svg PUBLIC "-//W3C//DTD SVG 1.1//EN"
 "http://www.w3.org/Graphics/SVG/1.1/DTD/svg11.dtd">
<!-- Generated by graphviz version 2.43.0 (0)
 -->
<!-- Title: src/physics/RigidBody.h Pages: 1 -->
<svg width="3596pt" height="335pt"
 viewBox="0.00 0.00 3595.50 335.00" xmlns="http://www.w3.org/2000/svg" xmlns:xlink="http://www.w3.org/1999/xlink">
<g id="graph0" class="graph" transform="scale(1 1) rotate(0) translate(4 331)">
<title>src/physics/RigidBody.h</title>
<!-- Node1 -->
<g id="Node000001" class="node">
<title>Node1</title>
<g id="a_Node000001"><a xlink:title=" ">
<polygon fill="#999999" stroke="#666666" points="3228.5,-327 3097.5,-327 3097.5,-308 3228.5,-308 3228.5,-327"/>
<text text-anchor="middle" x="3163" y="-315" font-family="Helvetica,sans-Serif" font-size="10.00">src/physics/RigidBody.h</text>
</a>
</g>
</g>
<!-- Node2 -->
<g id="Node000002" class="node">
<title>Node2</title>
<g id="a_Node000002"><a xlink:href="PhysicsSystem_8h.html" target="_top" xlink:title=" ">
<polygon fill="white" stroke="#666666" points="3073,-272 2917,-272 2917,-253 3073,-253 3073,-272"/>
<text text-anchor="middle" x="2995" y="-260" font-family="Helvetica,sans-Serif" font-size="10.00">src/physics/PhysicsSystem.h</text>
</a>
</g>
</g>
<!-- Node1&#45;&gt;Node2 -->
<g id="edge1_Node000001_Node000002" class="edge">
<title>Node1&#45;&gt;Node2</title>
<g id="a_edge1_Node000001_Node000002"><a xlink:title=" ">
<path fill="none" stroke="#63b8ff" d="M3126.32,-304.93C3094.94,-295.03 3050.49,-281.01 3022.2,-272.08"/>
<polygon fill="#63b8ff" stroke="#63b8ff" points="3125.42,-308.31 3136.01,-307.98 3127.52,-301.64 3125.42,-308.31"/>
</a>
</g>
</g>
<!-- Node36 -->
<g id="Node000036" class="node">
<title>Node36</title>
<g id="a_Node000036"><a xlink:href="PointMass_8cpp.html" target="_top" xlink:title=" ">
<polygon fill="white" stroke="#666666" points="3235,-272 3091,-272 3091,-253 3235,-253 3235,-272"/>
<text text-anchor="middle" x="3163" y="-260" font-family="Helvetica,sans-Serif" font-size="10.00">src/physics/PointMass.cpp</text>
</a>
</g>
</g>
<!-- Node1&#45;&gt;Node36 -->
<g id="edge53_Node000001_Node000036" class="edge">
<title>Node1&#45;&gt;Node36</title>
<g id="a_edge53_Node000001_Node000036"><a xlink:title=" ">
<path fill="none" stroke="#63b8ff" d="M3163,-297.66C3163,-288.93 3163,-278.99 3163,-272.09"/>
<polygon fill="#63b8ff" stroke="#63b8ff" points="3159.5,-297.75 3163,-307.75 3166.5,-297.75 3159.5,-297.75"/>
</a>
</g>
</g>
<!-- Node37 -->
<g id="Node000037" class="node">
<title>Node37</title>
<g id="a_Node000037"><a xlink:href="RigidBody_8cpp.html" target="_top" xlink:title=" ">
<polygon fill="white" stroke="#666666" points="3395,-272 3253,-272 3253,-253 3395,-253 3395,-272"/>
<text text-anchor="middle" x="3324" y="-260" font-family="Helvetica,sans-Serif" font-size="10.00">src/physics/RigidBody.cpp</text>
</a>
</g>
</g>
<!-- Node1&#45;&gt;Node37 -->
<g id="edge54_Node000001_Node000037" class="edge">
<title>Node1&#45;&gt;Node37</title>
<g id="a_edge54_Node000001_Node000037"><a xlink:title=" ">
<path fill="none" stroke="#63b8ff" d="M3198.55,-304.8C3228.59,-294.91 3270.94,-280.97 3297.93,-272.08"/>
<polygon fill="#63b8ff" stroke="#63b8ff" points="3197.27,-301.53 3188.87,-307.98 3199.46,-308.18 3197.27,-301.53"/>
</a>
</g>
</g>
<!-- Node3 -->
<g id="Node000003" class="node">
<title>Node3</title>
<g id="a_Node000003"><a xlink:href="SceneManager_8h.html" target="_top" xlink:title=" ">
<polygon fill="white" stroke="#666666" points="2600,-211.5 2418,-211.5 2418,-192.5 2600,-192.5 2600,-211.5"/>
<text text-anchor="middle" x="2509" y="-199.5" font-family="Helvetica,sans-Serif" font-size="10.00">src/graphics/core/SceneManager.h</text>
</a>
</g>
</g>
<!-- Node2&#45;&gt;Node3 -->
<g id="edge2_Node000002_Node000003" class="edge">
<title>Node2&#45;&gt;Node3</title>
<g id="a_edge2_Node000002_Node000003"><a xlink:title=" ">
<path fill="none" stroke="#63b8ff" d="M2914.37,-251.79C2821.01,-240.56 2668.7,-222.22 2579.75,-211.52"/>
<polygon fill="#63b8ff" stroke="#63b8ff" points="2913.98,-255.27 2924.33,-252.99 2914.82,-248.32 2913.98,-255.27"/>
</a>
</g>
</g>
<!-- Node7 -->
<g id="Node000007" class="node">
<title>Node7</title>
<g id="a_Node000007"><a xlink:href="SceneObject_8h.html" target="_top" xlink:title=" ">
<polygon fill="white" stroke="#666666" points="1657,-151 1485,-151 1485,-132 1657,-132 1657,-151"/>
<text text-anchor="middle" x="1571" y="-139" font-family="Helvetica,sans-Serif" font-size="10.00">src/graphics/core/SceneObject.h</text>
</a>
</g>
</g>
<!-- Node2&#45;&gt;Node7 -->
<g id="edge45_Node000002_Node000007" class="edge">
<title>Node2&#45;&gt;Node7</title>
<g id="a_edge45_Node000002_Node000007"><a xlink:title=" ">
<path fill="none" stroke="#63b8ff" d="M2906.64,-255.15C2791.9,-246.81 2585.44,-231.54 2409,-217 2134.24,-194.36 1809.09,-164.6 1657.22,-150.53"/>
<polygon fill="#63b8ff" stroke="#63b8ff" points="2906.55,-258.65 2916.78,-255.88 2907.06,-251.67 2906.55,-258.65"/>
</a>
</g>
</g>
<!-- Node24 -->
<g id="Node000024" class="node">
<title>Node24</title>
<g id="a_Node000024"><a xlink:href="GlobalsInspectorWidget_8cpp.html" target="_top" xlink:title=" ">
<polygon fill="white" stroke="#666666" points="2668.5,-96 2537.5,-96 2537.5,-66 2668.5,-66 2668.5,-96"/>
<text text-anchor="start" x="2545.5" y="-84" font-family="Helvetica,sans-Serif" font-size="10.00">src/ui/inspector/Globals</text>
<text text-anchor="middle" x="2603" y="-73" font-family="Helvetica,sans-Serif" font-size="10.00">InspectorWidget.cpp</text>
</a>
</g>
</g>
<!-- Node2&#45;&gt;Node24 -->
<g id="edge50_Node000002_Node000024" class="edge">
<title>Node2&#45;&gt;Node24</title>
<g id="a_edge50_Node000002_Node000024"><a xlink:title=" ">
<path fill="none" stroke="#63b8ff" d="M2992.54,-242.82C2987.68,-214 2973.99,-159.19 2938,-132 2891.46,-96.85 2735.57,-105.35 2678,-96 2674.99,-95.51 2671.92,-95 2668.82,-94.47"/>
<polygon fill="#63b8ff" stroke="#63b8ff" points="2989.09,-243.43 2994.04,-252.8 2996.01,-242.39 2989.09,-243.43"/>
</a>
</g>
</g>
<!-- Node25 -->
<g id="Node000025" class="node">
<title>Node25</title>
<g id="a_Node000025"><a xlink:href="InspectorWidget_8cpp.html" target="_top" xlink:title=" ">
<polygon fill="white" stroke="#666666" points="2961.5,-96 2822.5,-96 2822.5,-66 2961.5,-66 2961.5,-96"/>
<text text-anchor="start" x="2830.5" y="-84" font-family="Helvetica,sans-Serif" font-size="10.00">src/ui/inspector/Inspector</text>
<text text-anchor="middle" x="2892" y="-73" font-family="Helvetica,sans-Serif" font-size="10.00">Widget.cpp</text>
</a>
</g>
</g>
<!-- Node2&#45;&gt;Node25 -->
<g id="edge51_Node000002_Node000025" class="edge">
<title>Node2&#45;&gt;Node25</title>
<g id="a_edge51_Node000002_Node000025"><a xlink:title=" ">
<path fill="none" stroke="#63b8ff" d="M2996.02,-242.41C2996.52,-215.47 2993.88,-165.82 2971,-132 2960.27,-116.14 2942.64,-104.27 2926.76,-96.1"/>
<polygon fill="#63b8ff" stroke="#63b8ff" points="2992.51,-242.63 2995.65,-252.75 2999.51,-242.88 2992.51,-242.63"/>
</a>
</g>
</g>
<!-- Node31 -->
<g id="Node000031" class="node">
<title>Node31</title>
<g id="a_Node000031"><a xlink:href="OpenGLWindow_8cpp.html" target="_top" xlink:title=" ">
<polygon fill="white" stroke="#666666" points="2929,-151 2787,-151 2787,-132 2929,-132 2929,-151"/>
<text text-anchor="middle" x="2858" y="-139" font-family="Helvetica,sans-Serif" font-size="10.00">src/ui/OpenGLWindow.cpp</text>
</a>
</g>
</g>
<!-- Node2&#45;&gt;Node31 -->
<g id="edge49_Node000002_Node000031" class="edge">
<title>Node2&#45;&gt;Node31</title>
<g id="a_edge49_Node000002_Node000031"><a xlink:title=" ">
<path fill="none" stroke="#63b8ff" d="M2976.91,-246.11C2966.89,-237.56 2954.23,-226.72 2943,-217 2915.71,-193.36 2883.74,-165.22 2867.91,-151.26"/>
<polygon fill="#63b8ff" stroke="#63b8ff" points="2974.73,-248.85 2984.61,-252.67 2979.27,-243.52 2974.73,-248.85"/>
</a>
</g>
</g>
<!-- Node32 -->
<g id="Node000032" class="node">
<title>Node32</title>
<g id="a_Node000032"><a xlink:href="PhysicsSystem_8cpp.html" target="_top" xlink:title=" ">
<polygon fill="white" stroke="#666666" points="3189.5,-211.5 3022.5,-211.5 3022.5,-192.5 3189.5,-192.5 3189.5,-211.5"/>
<text text-anchor="middle" x="3106" y="-199.5" font-family="Helvetica,sans-Serif" font-size="10.00">src/physics/PhysicsSystem.cpp</text>
</a>
</g>
</g>
<!-- Node2&#45;&gt;Node32 -->
<g id="edge46_Node000002_Node000032" class="edge">
<title>Node2&#45;&gt;Node32</title>
<g id="a_edge46_Node000002_Node000032"><a xlink:title=" ">
<path fill="none" stroke="#63b8ff" d="M3020.47,-248.08C3041.71,-236.88 3071.33,-221.27 3089.55,-211.67"/>
<polygon fill="#63b8ff" stroke="#63b8ff" points="3018.59,-245.11 3011.38,-252.87 3021.86,-251.3 3018.59,-245.11"/>
</a>
</g>
</g>
<!-- Node33 -->
<g id="Node000033" class="node">
<title>Node33</title>
<g id="a_Node000033"><a xlink:href="ProblemRouter_8cpp.html" target="_top" xlink:title=" ">
<polygon fill="white" stroke="#666666" points="3319,-217 3207,-217 3207,-187 3319,-187 3319,-217"/>
<text text-anchor="start" x="3215" y="-205" font-family="Helvetica,sans-Serif" font-size="10.00">src/physics/solver</text>
<text text-anchor="middle" x="3263" y="-194" font-family="Helvetica,sans-Serif" font-size="10.00">/ProblemRouter.cpp</text>
</a>
</g>
</g>
<!-- Node2&#45;&gt;Node33 -->
<g id="edge47_Node000002_Node000033" class="edge">
<title>Node2&#45;&gt;Node33</title>
<g id="a_edge47_Node000002_Node000033"><a xlink:title=" ">
<path fill="none" stroke="#63b8ff" d="M3043.92,-250.84C3085.25,-241.83 3146,-228.58 3199,-217 3201.56,-216.44 3204.17,-215.87 3206.81,-215.29"/>
<polygon fill="#63b8ff" stroke="#63b8ff" points="3043.13,-247.43 3034.11,-252.98 3044.63,-254.27 3043.13,-247.43"/>
</a>
</g>
</g>
<!-- Node34 -->
<g id="Node000034" class="node">
<title>Node34</title>
<g id="a_Node000034"><a xlink:href="Octree_8cpp.html" target="_top" xlink:title=" ">
<polygon fill="white" stroke="#666666" points="3444.5,-217 3337.5,-217 3337.5,-187 3444.5,-187 3444.5,-217"/>
<text text-anchor="start" x="3345.5" y="-205" font-family="Helvetica,sans-Serif" font-size="10.00">src/physics/spatial</text>
<text text-anchor="middle" x="3391" y="-194" font-family="Helvetica,sans-Serif" font-size="10.00">/Octree.cpp</text>
</a>
</g>
</g>
<!-- Node2&#45;&gt;Node34 -->
<g id="edge48_Node000002_Node000034" class="edge">
<title>Node2&#45;&gt;Node34</title>
<g id="a_edge48_Node000002_Node000034"><a xlink:title=" ">
<path fill="none" stroke="#63b8ff" d="M3083.15,-251.81C3150.46,-243.91 3245.38,-231.67 3328,-217 3331.09,-216.45 3334.26,-215.86 3337.45,-215.23"/>
<polygon fill="#63b8ff" stroke="#63b8ff" points="3082.53,-248.36 3073.01,-252.99 3083.34,-255.31 3082.53,-248.36"/>
</a>
</g>
</g>
<!-- Node35 -->
<g id="Node000035" class="node">
<title>Node35</title>
<g id="a_Node000035"><a xlink:href="PhysicsTests_8cpp.html" target="_top" xlink:title=" ">
<polygon fill="white" stroke="#666666" points="3587.5,-211.5 3462.5,-211.5 3462.5,-192.5 3587.5,-192.5 3587.5,-211.5"/>
<text text-anchor="middle" x="3525" y="-199.5" font-family="Helvetica,sans-Serif" font-size="10.00">tests/PhysicsTests.cpp</text>
</a>
</g>
</g>
<!-- Node2&#45;&gt;Node35 -->
<g id="edge52_Node000002_Node000035" class="edge">
<title>Node2&#45;&gt;Node35</title>
<g id="a_edge52_Node000002_Node000035"><a xlink:title=" ">
<path fill="none" stroke="#63b8ff" d="M3083.3,-252.88C3249.03,-237.08 3292.86,-240.63 3454,-217 3464.19,-215.51 3475.14,-213.53 3485.31,-211.54"/>
<polygon fill="#63b8ff" stroke="#63b8ff" points="3082.87,-249.41 3073.25,-253.85 3083.54,-256.38 3082.87,-249.41"/>
</a>
</g>
</g>
<!-- Node4 -->
<g id="Node000004" class="node">
<title>Node4</title>
<g id="a_Node000004"><a xlink:href="Gizmo_8cpp.html" target="_top" xlink:title=" ">
<polygon fill="white" stroke="#666666" points="138,-30 0,-30 0,0 138,0 138,-30"/>
<text text-anchor="start" x="8" y="-18" font-family="Helvetica,sans-Serif" font-size="10.00">src/graphics/components</text>
<text text-anchor="middle" x="69" y="-7" font-family="Helvetica,sans-Serif" font-size="10.00">/Gizmo.cpp</text>
</a>
</g>
</g>
<!-- Node3&#45;&gt;Node4 -->
<g id="edge3_Node000003_Node000004" class="edge">
<title>Node3&#45;&gt;Node4</title>
<g id="a_edge3_Node000003_Node000004"><a xlink:title=" ">
<path fill="none" stroke="#63b8ff" d="M2407.79,-200.06C2051.24,-196.49 854.38,-182.41 472,-151 296.66,-136.6 204.23,-220.57 80,-96 62.77,-78.73 63.88,-47.98 66.36,-30.05"/>
<polygon fill="#63b8ff" stroke="#63b8ff" points="2407.8,-203.56 2417.84,-200.16 2407.87,-196.56 2407.8,-203.56"/>
</a>
</g>
</g>
<!-- Node5 -->
<g id="Node000005" class="node">
<title>Node5</title>
<g id="a_Node000005"><a xlink:href="SceneManager_8cpp.html" target="_top" xlink:title=" ">
<polygon fill="white" stroke="#666666" points="1942,-24.5 1748,-24.5 1748,-5.5 1942,-5.5 1942,-24.5"/>
<text text-anchor="middle" x="1845" y="-12.5" font-family="Helvetica,sans-Serif" font-size="10.00">src/graphics/core/SceneManager.cpp</text>
</a>
</g>
</g>
<!-- Node3&#45;&gt;Node5 -->
<g id="edge4_Node000003_Node000005" class="edge">
<title>Node3&#45;&gt;Node5</title>
<g id="a_edge4_Node000003_Node000005"><a xlink:title=" ">
<path fill="none" stroke="#63b8ff" d="M2509.52,-181.82C2509.17,-151.69 2503.58,-93.87 2468,-66 2427.61,-34.36 2106.88,-22.18 1942.06,-17.98"/>
<polygon fill="#63b8ff" stroke="#63b8ff" points="2506.01,-182.19 2509.44,-192.21 2513.01,-182.24 2506.01,-182.19"/>
</a>
</g>
</g>
<!-- Node6 -->
<g id="Node000006" class="node">
<title>Node6</title>
<g id="a_Node000006"><a xlink:href="SceneObject_8cpp.html" target="_top" xlink:title=" ">
<polygon fill="white" stroke="#666666" points="2100.5,-90.5 1917.5,-90.5 1917.5,-71.5 2100.5,-71.5 2100.5,-90.5"/>
<text text-anchor="middle" x="2009" y="-78.5" font-family="Helvetica,sans-Serif" font-size="10.00">src/graphics/core/SceneObject.cpp</text>
</a>
</g>
</g>
<!-- Node3&#45;&gt;Node6 -->
<g id="edge5_Node000003_Node000006" class="edge">
<title>Node3&#45;&gt;Node6</title>
<g id="a_edge5_Node000003_Node000006"><a xlink:title=" ">
<path fill="none" stroke="#63b8ff" d="M2446.52,-190.77C2393.21,-181.64 2314.69,-167.23 2247,-151 2169.4,-132.39 2079.29,-104.52 2035.55,-90.58"/>
<polygon fill="#63b8ff" stroke="#63b8ff" points="2446.05,-194.24 2456.5,-192.47 2447.23,-187.34 2446.05,-194.24"/>
</a>
</g>
</g>
<!-- Node3&#45;&gt;Node7 -->
<g id="edge6_Node000003_Node000007" class="edge">
<title>Node3&#45;&gt;Node7</title>
<g id="a_edge6_Node000003_Node000007"><a xlink:title=" ">
<path fill="none" stroke="#63b8ff" d="M2407.75,-194.69C2222.27,-183.12 1831.07,-158.72 1657.31,-147.88"/>
<polygon fill="#63b8ff" stroke="#63b8ff" points="2407.58,-198.18 2417.78,-195.31 2408.02,-191.2 2407.58,-198.18"/>
</a>
</g>
</g>
<!-- Node15 -->
<g id="Node000015" class="node">
<title>Node15</title>
<g id="a_Node000015"><a xlink:href="Colliders_8cpp.html" target="_top" xlink:title=" ">
<polygon fill="white" stroke="#666666" points="2227,-96 2119,-96 2119,-66 2227,-66 2227,-96"/>
<text text-anchor="start" x="2127" y="-84" font-family="Helvetica,sans-Serif" font-size="10.00">src/graphics/debug</text>
<text text-anchor="middle" x="2173" y="-73" font-family="Helvetica,sans-Serif" font-size="10.00">/Colliders.cpp</text>
</a>
</g>
</g>
<!-- Node3&#45;&gt;Node15 -->
<g id="edge36_Node000003_Node000015" class="edge">
<title>Node3&#45;&gt;Node15</title>
<g id="a_edge36_Node000003_Node000015"><a xlink:title=" ">
<path fill="none" stroke="#63b8ff" d="M2436.52,-190.76C2392.25,-183.03 2335.11,-170.38 2287,-151 2251.38,-136.65 2214.02,-111.9 2192.15,-96.27"/>
<polygon fill="#63b8ff" stroke="#63b8ff" points="2436.17,-194.25 2446.62,-192.47 2437.34,-187.35 2436.17,-194.25"/>
</a>
</g>
</g>
<!-- Node17 -->
<g id="Node000017" class="node">
<title>Node17</title>
<g id="a_Node000017"><a xlink:href="Forces_8cpp.html" target="_top" xlink:title=" ">
<polygon fill="white" stroke="#666666" points="2821,-30 2713,-30 2713,0 2821,0 2821,-30"/>
<text text-anchor="start" x="2721" y="-18" font-family="Helvetica,sans-Serif" font-size="10.00">src/graphics/debug</text>
<text text-anchor="middle" x="2767" y="-7" font-family="Helvetica,sans-Serif" font-size="10.00">/Forces.cpp</text>
</a>
</g>
</g>
<!-- Node3&#45;&gt;Node17 -->
<g id="edge37_Node000003_Node000017" class="edge">
<title>Node3&#45;&gt;Node17</title>
<g id="a_edge37_Node000003_Node000017"><a xlink:title=" ">
<path fill="none" stroke="#63b8ff" d="M2573.69,-190.7C2619.9,-182.41 2683.15,-169.14 2737,-151 2756.03,-144.59 2758.87,-138.11 2778,-132 2861.12,-105.45 2915.24,-163.12 2971,-96 3014.88,-43.18 2895.47,-25.07 2821.21,-18.99"/>
<polygon fill="#63b8ff" stroke="#63b8ff" points="2573.04,-187.26 2563.8,-192.44 2574.26,-194.15 2573.04,-187.26"/>
</a>
</g>
</g>
<!-- Node19 -->
<g id="Node000019" class="node">
<title>Node19</title>
<g id="a_Node000019"><a xlink:href="PathTraces_8cpp.html" target="_top" xlink:title=" ">
<polygon fill="white" stroke="#666666" points="666,-30 558,-30 558,0 666,0 666,-30"/>
<text text-anchor="start" x="566" y="-18" font-family="Helvetica,sans-Serif" font-size="10.00">src/graphics/debug</text>
<text text-anchor="middle" x="612" y="-7" font-family="Helvetica,sans-Serif" font-size="10.00">/PathTraces.cpp</text>
</a>
</g>
</g>
<!-- Node3&#45;&gt;Node19 -->
<g id="edge38_Node000003_Node000019" class="edge">
<title>Node3&#45;&gt;Node19</title>
<g id="a_edge38_Node000003_Node000019"><a xlink:title=" ">
<path fill="none" stroke="#63b8ff" d="M2407.87,-200.03C1984.69,-195.49 374.58,-173.16 301,-96 291.8,-86.35 292.35,-76.15 301,-66 333.36,-28.02 477.64,-18.78 557.82,-16.61"/>
<polygon fill="#63b8ff" stroke="#63b8ff" points="2407.91,-203.53 2417.94,-200.14 2407.98,-196.53 2407.91,-203.53"/>
</a>
</g>
</g>
<!-- Node3&#45;&gt;Node24 -->
<g id="edge43_Node000003_Node000024" class="edge">
<title>Node3&#45;&gt;Node24</title>
<g id="a_edge43_Node000003_Node000024"><a xlink:title=" ">
<path fill="none" stroke="#63b8ff" d="M2522.07,-184.46C2540.62,-160.96 2574.3,-118.34 2591.78,-96.2"/>
<polygon fill="#63b8ff" stroke="#63b8ff" points="2519.21,-182.43 2515.76,-192.44 2524.71,-186.76 2519.21,-182.43"/>
</a>
</g>
</g>
<!-- Node3&#45;&gt;Node25 -->
<g id="edge44_Node000003_Node000025" class="edge">
<title>Node3&#45;&gt;Node25</title>
<g id="a_edge44_Node000003_Node000025"><a xlink:title=" ">
<path fill="none" stroke="#63b8ff" d="M2559.74,-190.23C2599.06,-181.32 2654.63,-167.48 2702,-151 2721.73,-144.14 2725.54,-139.59 2745,-132 2778.9,-118.77 2817.93,-105.59 2847.25,-96.09"/>
<polygon fill="#63b8ff" stroke="#63b8ff" points="2558.86,-186.84 2549.86,-192.44 2560.39,-193.67 2558.86,-186.84"/>
</a>
</g>
</g>
<!-- Node28 -->
<g id="Node000028" class="node">
<title>Node28</title>
<g id="a_Node000028"><a xlink:href="SceneSerializer_8h.html" target="_top" xlink:title=" ">
<polygon fill="white" stroke="#666666" points="2481.5,-151 2296.5,-151 2296.5,-132 2481.5,-132 2481.5,-151"/>
<text text-anchor="middle" x="2389" y="-139" font-family="Helvetica,sans-Serif" font-size="10.00">src/graphics/core/SceneSerializer.h</text>
</a>
</g>
</g>
<!-- Node3&#45;&gt;Node28 -->
<g id="edge33_Node000003_Node000028" class="edge">
<title>Node3&#45;&gt;Node28</title>
<g id="a_edge33_Node000003_Node000028"><a xlink:title=" ">
<path fill="none" stroke="#63b8ff" d="M2482.3,-187.98C2459.17,-176.71 2426.39,-160.73 2406.47,-151.02"/>
<polygon fill="#63b8ff" stroke="#63b8ff" points="2481.03,-191.26 2491.55,-192.49 2484.1,-184.97 2481.03,-191.26"/>
</a>
</g>
</g>
<!-- Node29 -->
<g id="Node000029" class="node">
<title>Node29</title>
<g id="a_Node000029"><a xlink:href="MainWindow_8h.html" target="_top" xlink:title=" ">
<polygon fill="white" stroke="#666666" points="2692.5,-151 2575.5,-151 2575.5,-132 2692.5,-132 2692.5,-151"/>
<text text-anchor="middle" x="2634" y="-139" font-family="Helvetica,sans-Serif" font-size="10.00">src/ui/MainWindow.h</text>
</a>
</g>
</g>
<!-- Node3&#45;&gt;Node29 -->
<g id="edge39_Node000003_Node000029" class="edge">
<title>Node3&#45;&gt;Node29</title>
<g id="a_edge39_Node000003_Node000029"><a xlink:title=" ">
<path fill="none" stroke="#63b8ff" d="M2536.49,-188.13C2560.6,-176.85 2594.96,-160.77 2615.8,-151.02"/>
<polygon fill="#63b8ff" stroke="#63b8ff" points="2534.75,-185.08 2527.18,-192.49 2537.72,-191.42 2534.75,-185.08"/>
</a>
</g>
</g>
<!-- Node3&#45;&gt;Node31 -->
<g id="edge42_Node000003_Node000031" class="edge">
<title>Node3&#45;&gt;Node31</title>
<g id="a_edge42_Node000003_Node000031"><a xlink:title=" ">
<path fill="none" stroke="#63b8ff" d="M2569.78,-190.81C2637.04,-179.54 2744.23,-161.57 2807.19,-151.02"/>
<polygon fill="#63b8ff" stroke="#63b8ff" points="2569.03,-187.39 2559.75,-192.49 2570.19,-194.29 2569.03,-187.39"/>
</a>
</g>
</g>
<!-- Node7&#45;&gt;Node4 -->
<g id="edge7_Node000007_Node000004" class="edge">
<title>Node7&#45;&gt;Node4</title>
<g id="a_edge7_Node000007_Node000004"><a xlink:title=" ">
<path fill="none" stroke="#63b8ff" d="M1474.68,-140.32C1157.74,-139.36 164.2,-133.38 107,-96 84.35,-81.2 74.88,-48.93 71.18,-30.22"/>
<polygon fill="#63b8ff" stroke="#63b8ff" points="1474.75,-143.82 1484.76,-140.35 1474.77,-136.82 1474.75,-143.82"/>
</a>
</g>
</g>
<!-- Node7&#45;&gt;Node5 -->
<g id="edge15_Node000007_Node000005" class="edge">
<title>Node7&#45;&gt;Node5</title>
<g id="a_edge15_Node000007_Node000005"><a xlink:title=" ">
<path fill="none" stroke="#63b8ff" d="M1638.44,-129.96C1671.43,-123.13 1711.02,-112.37 1744,-96 1744.64,-95.68 1808.4,-45.07 1834.27,-24.52"/>
<polygon fill="#63b8ff" stroke="#63b8ff" points="1637.56,-126.57 1628.43,-131.95 1638.92,-133.43 1637.56,-126.57"/>
</a>
</g>
</g>
<!-- Node7&#45;&gt;Node6 -->
<g id="edge16_Node000007_Node000006" class="edge">
<title>Node7&#45;&gt;Node6</title>
<g id="a_edge16_Node000007_Node000006"><a xlink:title=" ">
<path fill="none" stroke="#63b8ff" d="M1646.81,-130.63C1715.12,-121.71 1818.3,-108.14 1908,-96 1920.98,-94.24 1934.9,-92.33 1948.12,-90.5"/>
<polygon fill="#63b8ff" stroke="#63b8ff" points="1646.03,-127.2 1636.57,-131.97 1646.94,-134.14 1646.03,-127.2"/>
</a>
</g>
</g>
<!-- Node8 -->
<g id="Node000008" class="node">
<title>Node8</title>
<g id="a_Node000008"><a xlink:href="RotateHandle_8cpp.html" target="_top" xlink:title=" ">
<polygon fill="white" stroke="#666666" points="1229,-96 1091,-96 1091,-66 1229,-66 1229,-96"/>
<text text-anchor="start" x="1099" y="-84" font-family="Helvetica,sans-Serif" font-size="10.00">src/graphics/components</text>
<text text-anchor="middle" x="1160" y="-73" font-family="Helvetica,sans-Serif" font-size="10.00">/RotateHandle.cpp</text>
</a>
</g>
</g>
<!-- Node7&#45;&gt;Node8 -->
<g id="edge8_Node000007_Node000008" class="edge">
<title>Node7&#45;&gt;Node8</title>
<g id="a_edge8_Node000007_Node000008"><a xlink:title=" ">
<path fill="none" stroke="#63b8ff" d="M1490.24,-130.73C1422.71,-122.32 1323.92,-109.44 1238,-96 1235.15,-95.55 1232.23,-95.09 1229.3,-94.6"/>
<polygon fill="#63b8ff" stroke="#63b8ff" points="1490.03,-134.24 1500.38,-131.99 1490.89,-127.29 1490.03,-134.24"/>
</a>
</g>
</g>
<!-- Node9 -->
<g id="Node000009" class="node">
<title>Node9</title>
<g id="a_Node000009"><a xlink:href="ScaleHandle_8h.html" target="_top" xlink:title=" ">
<polygon fill="white" stroke="#666666" points="254,-96 116,-96 116,-66 254,-66 254,-96"/>
<text text-anchor="start" x="124" y="-84" font-family="Helvetica,sans-Serif" font-size="10.00">src/graphics/components</text>
<text text-anchor="middle" x="185" y="-73" font-family="Helvetica,sans-Serif" font-size="10.00">/ScaleHandle.h</text>
</a>
</g>
</g>
<!-- Node7&#45;&gt;Node9 -->
<g id="edge9_Node000007_Node000009" class="edge">
<title>Node7&#45;&gt;Node9</title>
<g id="a_edge9_Node000007_Node000009"><a xlink:title=" ">
<path fill="none" stroke="#63b8ff" d="M1474.44,-139.92C1261.99,-138.02 738.16,-129.98 301,-96 285.83,-94.82 269.6,-93.13 254.22,-91.33"/>
<polygon fill="#63b8ff" stroke="#63b8ff" points="1474.59,-143.42 1484.62,-140 1474.65,-136.42 1474.59,-143.42"/>
</a>
</g>
</g>
<!-- Node11 -->
<g id="Node000011" class="node">
<title>Node11</title>
<g id="a_Node000011"><a xlink:href="TranslateHandle_8cpp.html" target="_top" xlink:title=" ">
<polygon fill="white" stroke="#666666" points="1385,-96 1247,-96 1247,-66 1385,-66 1385,-96"/>
<text text-anchor="start" x="1255" y="-84" font-family="Helvetica,sans-Serif" font-size="10.00">src/graphics/components</text>
<text text-anchor="middle" x="1316" y="-73" font-family="Helvetica,sans-Serif" font-size="10.00">/TranslateHandle.cpp</text>
</a>
</g>
</g>
<!-- Node7&#45;&gt;Node11 -->
<g id="edge12_Node000007_Node000011" class="edge">
<title>Node7&#45;&gt;Node11</title>
<g id="a_edge12_Node000007_Node000011"><a xlink:title=" ">
<path fill="none" stroke="#63b8ff" d="M1524.12,-129.74C1482.83,-120.27 1422.42,-106.41 1377.31,-96.06"/>
<polygon fill="#63b8ff" stroke="#63b8ff" points="1523.39,-133.17 1533.92,-131.99 1524.96,-126.35 1523.39,-133.17"/>
</a>
</g>
</g>
<!-- Node12 -->
<g id="Node000012" class="node">
<title>Node12</title>
<g id="a_Node000012"><a xlink:href="Camera_8cpp.html" target="_top" xlink:title=" ">
<polygon fill="white" stroke="#666666" points="1564.5,-90.5 1403.5,-90.5 1403.5,-71.5 1564.5,-71.5 1564.5,-90.5"/>
<text text-anchor="middle" x="1484" y="-78.5" font-family="Helvetica,sans-Serif" font-size="10.00">src/graphics/core/Camera.cpp</text>
</a>
</g>
</g>
<!-- Node7&#45;&gt;Node12 -->
<g id="edge13_Node000007_Node000012" class="edge">
<title>Node7&#45;&gt;Node12</title>
<g id="a_edge13_Node000007_Node000012"><a xlink:title=" ">
<path fill="none" stroke="#63b8ff" d="M1549.67,-126.16C1533.14,-115.05 1510.79,-100.01 1496.89,-90.67"/>
<polygon fill="#63b8ff" stroke="#63b8ff" points="1547.91,-129.19 1558.16,-131.87 1551.82,-123.38 1547.91,-129.19"/>
</a>
</g>
</g>
<!-- Node13 -->
<g id="Node000013" class="node">
<title>Node13</title>
<g id="a_Node000013"><a xlink:href="Scene_8cpp.html" target="_top" xlink:title=" ">
<polygon fill="white" stroke="#666666" points="1735,-90.5 1583,-90.5 1583,-71.5 1735,-71.5 1735,-90.5"/>
<text text-anchor="middle" x="1659" y="-78.5" font-family="Helvetica,sans-Serif" font-size="10.00">src/graphics/core/Scene.cpp</text>
</a>
</g>
</g>
<!-- Node7&#45;&gt;Node13 -->
<g id="edge14_Node000007_Node000013" class="edge">
<title>Node7&#45;&gt;Node13</title>
<g id="a_edge14_Node000007_Node000013"><a xlink:title=" ">
<path fill="none" stroke="#63b8ff" d="M1592.57,-126.16C1609.29,-115.05 1631.9,-100.01 1645.96,-90.67"/>
<polygon fill="#63b8ff" stroke="#63b8ff" points="1590.37,-123.42 1583.98,-131.87 1594.25,-129.25 1590.37,-123.42"/>
</a>
</g>
</g>
<!-- Node14 -->
<g id="Node000014" class="node">
<title>Node14</title>
<g id="a_Node000014"><a xlink:href="SceneSerializer_8cpp.html" target="_top" xlink:title=" ">
<polygon fill="white" stroke="#666666" points="2442.5,-90.5 2245.5,-90.5 2245.5,-71.5 2442.5,-71.5 2442.5,-90.5"/>
<text text-anchor="middle" x="2344" y="-78.5" font-family="Helvetica,sans-Serif" font-size="10.00">src/graphics/core/SceneSerializer.cpp</text>
</a>
</g>
</g>
<!-- Node7&#45;&gt;Node14 -->
<g id="edge17_Node000007_Node000014" class="edge">
<title>Node7&#45;&gt;Node14</title>
<g id="a_edge17_Node000007_Node000014"><a xlink:title=" ">
<path fill="none" stroke="#63b8ff" d="M1667.51,-135.92C1797.03,-129.35 2034.18,-115.81 2236,-96 2251.43,-94.49 2268.06,-92.5 2283.53,-90.51"/>
<polygon fill="#63b8ff" stroke="#63b8ff" points="1667.03,-132.44 1657.22,-136.44 1667.39,-139.44 1667.03,-132.44"/>
</a>
</g>
</g>
<!-- Node7&#45;&gt;Node15 -->
<g id="edge18_Node000007_Node000015" class="edge">
<title>Node7&#45;&gt;Node15</title>
<g id="a_edge18_Node000007_Node000015"><a xlink:title=" ">
<path fill="none" stroke="#63b8ff" d="M1667.35,-136.39C1775.35,-130.89 1955.46,-119.04 2109,-96 2112.26,-95.51 2115.61,-94.95 2118.97,-94.35"/>
<polygon fill="#63b8ff" stroke="#63b8ff" points="1666.94,-132.91 1657.13,-136.91 1667.29,-139.9 1666.94,-132.91"/>
</a>
</g>
</g>
<!-- Node16 -->
<g id="Node000016" class="node">
<title>Node16</title>
<g id="a_Node000016"><a xlink:href="Forces_8h.html" target="_top" xlink:title=" ">
<polygon fill="white" stroke="#666666" points="1899,-96 1791,-96 1791,-66 1899,-66 1899,-96"/>
<text text-anchor="start" x="1799" y="-84" font-family="Helvetica,sans-Serif" font-size="10.00">src/graphics/debug</text>
<text text-anchor="middle" x="1845" y="-73" font-family="Helvetica,sans-Serif" font-size="10.00">/Forces.h</text>
</a>
</g>
</g>
<!-- Node7&#45;&gt;Node16 -->
<g id="edge19_Node000007_Node000016" class="edge">
<title>Node7&#45;&gt;Node16</title>
<g id="a_edge19_Node000007_Node000016"><a xlink:title=" ">
<path fill="none" stroke="#63b8ff" d="M1620.71,-129.89C1668.79,-119.62 1741.45,-104.11 1790.95,-93.54"/>
<polygon fill="#63b8ff" stroke="#63b8ff" points="1619.89,-126.48 1610.84,-131.99 1621.35,-133.33 1619.89,-126.48"/>
</a>
</g>
</g>
<!-- Node18 -->
<g id="Node000018" class="node">
<title>Node18</title>
<g id="a_Node000018"><a xlink:href="PathTraces_8h.html" target="_top" xlink:title=" ">
<polygon fill="white" stroke="#666666" points="917,-96 809,-96 809,-66 917,-66 917,-96"/>
<text text-anchor="start" x="817" y="-84" font-family="Helvetica,sans-Serif" font-size="10.00">src/graphics/debug</text>
<text text-anchor="middle" x="863" y="-73" font-family="Helvetica,sans-Serif" font-size="10.00">/PathTraces.h</text>
</a>
</g>
</g>
<!-- Node7&#45;&gt;Node18 -->
<g id="edge22_Node000007_Node000018" class="edge">
<title>Node7&#45;&gt;Node18</title>
<g id="a_edge22_Node000007_Node000018"><a xlink:title=" ">
<path fill="none" stroke="#63b8ff" d="M1474.7,-138.35C1348.22,-134.5 1119.47,-124.01 926,-96 923.12,-95.58 920.17,-95.11 917.2,-94.59"/>
<polygon fill="#63b8ff" stroke="#63b8ff" points="1474.65,-141.85 1484.75,-138.65 1474.86,-134.85 1474.65,-141.85"/>
</a>
</g>
</g>
<!-- Node20 -->
<g id="Node000020" class="node">
<title>Node20</title>
<g id="a_Node000020"><a xlink:href="HierarchyWidget_8h.html" target="_top" xlink:title=" ">
<polygon fill="white" stroke="#666666" points="1072.5,-90.5 935.5,-90.5 935.5,-71.5 1072.5,-71.5 1072.5,-90.5"/>
<text text-anchor="middle" x="1004" y="-78.5" font-family="Helvetica,sans-Serif" font-size="10.00">src/ui/HierarchyWidget.h</text>
</a>
</g>
</g>
<!-- Node7&#45;&gt;Node20 -->
<g id="edge25_Node000007_Node000020" class="edge">
<title>Node7&#45;&gt;Node20</title>
<g id="a_edge25_Node000007_Node000020"><a xlink:title=" ">
<path fill="none" stroke="#63b8ff" d="M1474.35,-134.19C1375.51,-127.16 1217.65,-114.31 1082,-96 1070.82,-94.49 1058.8,-92.51 1047.62,-90.52"/>
<polygon fill="#63b8ff" stroke="#63b8ff" points="1474.4,-137.7 1484.62,-134.92 1474.89,-130.72 1474.4,-137.7"/>
</a>
</g>
</g>
<!-- Node23 -->
<g id="Node000023" class="node">
<title>Node23</title>
<g id="a_Node000023"><a xlink:href="ForcesInspectorWidget_8cpp.html" target="_top" xlink:title=" ">
<polygon fill="white" stroke="#666666" points="480,-96 310,-96 310,-66 480,-66 480,-96"/>
<text text-anchor="start" x="318" y="-84" font-family="Helvetica,sans-Serif" font-size="10.00">src/ui/inspector/ForcesInspector</text>
<text text-anchor="middle" x="395" y="-73" font-family="Helvetica,sans-Serif" font-size="10.00">Widget.cpp</text>
</a>
</g>
</g>
<!-- Node7&#45;&gt;Node23 -->
<g id="edge28_Node000007_Node000023" class="edge">
<title>Node7&#45;&gt;Node23</title>
<g id="a_edge28_Node000007_Node000023"><a xlink:title=" ">
<path fill="none" stroke="#63b8ff" d="M1474.68,-139.98C1285.4,-138.21 851.75,-130.37 489,-96 486.04,-95.72 483.04,-95.41 480,-95.08"/>
<polygon fill="#63b8ff" stroke="#63b8ff" points="1474.85,-143.48 1484.88,-140.08 1474.91,-136.48 1474.85,-143.48"/>
</a>
</g>
</g>
<!-- Node7&#45;&gt;Node24 -->
<g id="edge29_Node000007_Node000024" class="edge">
<title>Node7&#45;&gt;Node24</title>
<g id="a_edge29_Node000007_Node000024"><a xlink:title=" ">
<path fill="none" stroke="#63b8ff" d="M1667.68,-136.92C1829.77,-130.62 2166.57,-116.28 2451,-96 2479.28,-93.98 2510.48,-91.21 2537.21,-88.66"/>
<polygon fill="#63b8ff" stroke="#63b8ff" points="1667.12,-133.44 1657.26,-137.32 1667.39,-140.43 1667.12,-133.44"/>
</a>
</g>
</g>
<!-- Node7&#45;&gt;Node25 -->
<g id="edge30_Node000007_Node000025" class="edge">
<title>Node7&#45;&gt;Node25</title>
<g id="a_edge30_Node000007_Node000025"><a xlink:title=" ">
<path fill="none" stroke="#63b8ff" d="M1667.38,-139.62C1871.8,-137.17 2363.83,-128.14 2775,-96 2790.4,-94.8 2806.89,-93.08 2822.49,-91.27"/>
<polygon fill="#63b8ff" stroke="#63b8ff" points="1667.23,-136.12 1657.28,-139.74 1667.32,-143.12 1667.23,-136.12"/>
</a>
</g>
</g>
<!-- Node26 -->
<g id="Node000026" class="node">
<title>Node26</title>
<g id="a_Node000026"><a xlink:href="PhysicsInspectorWidget_8cpp.html" target="_top" xlink:title=" ">
<polygon fill="white" stroke="#666666" points="629.5,-96 498.5,-96 498.5,-66 629.5,-66 629.5,-96"/>
<text text-anchor="start" x="506.5" y="-84" font-family="Helvetica,sans-Serif" font-size="10.00">src/ui/inspector/Physics</text>
<text text-anchor="middle" x="564" y="-73" font-family="Helvetica,sans-Serif" font-size="10.00">InspectorWidget.cpp</text>
</a>
</g>
</g>
<!-- Node7&#45;&gt;Node26 -->
<g id="edge31_Node000007_Node000026" class="edge">
<title>Node7&#45;&gt;Node26</title>
<g id="a_edge31_Node000007_Node000026"><a xlink:title=" ">
<path fill="none" stroke="#63b8ff" d="M1474.65,-140.32C1304.98,-139.02 942.01,-131.83 638,-96 635.27,-95.68 632.5,-95.32 629.69,-94.92"/>
<polygon fill="#63b8ff" stroke="#63b8ff" points="1474.78,-143.82 1484.81,-140.39 1474.83,-136.82 1474.78,-143.82"/>
</a>
</g>
</g>
<!-- Node27 -->
<g id="Node000027" class="node">
<title>Node27</title>
<g id="a_Node000027"><a xlink:href="TransformInspectorWidget_8cpp.html" target="_top" xlink:title=" ">
<polygon fill="white" stroke="#666666" points="790.5,-96 647.5,-96 647.5,-66 790.5,-66 790.5,-96"/>
<text text-anchor="start" x="655.5" y="-84" font-family="Helvetica,sans-Serif" font-size="10.00">src/ui/inspector/Transform</text>
<text text-anchor="middle" x="719" y="-73" font-family="Helvetica,sans-Serif" font-size="10.00">InspectorWidget.cpp</text>
</a>
</g>
</g>
<!-- Node7&#45;&gt;Node27 -->
<g id="edge32_Node000007_Node000027" class="edge">
<title>Node7&#45;&gt;Node27</title>
<g id="a_edge32_Node000007_Node000027"><a xlink:title=" ">
<path fill="none" stroke="#63b8ff" d="M1474.58,-138.45C1328.32,-134.54 1041.78,-123.78 800,-96 797.02,-95.66 793.99,-95.28 790.93,-94.87"/>
<polygon fill="#63b8ff" stroke="#63b8ff" points="1474.78,-141.95 1484.87,-138.72 1474.97,-134.96 1474.78,-141.95"/>
</a>
</g>
</g>
<!-- Node9&#45;&gt;Node4 -->
<g id="edge10_Node000009_Node000004" class="edge">
<title>Node9&#45;&gt;Node4</title>
<g id="a_edge10_Node000009_Node000004"><a xlink:title=" ">
<path fill="none" stroke="#63b8ff" d="M150.51,-60.97C132.5,-51.03 110.85,-39.09 94.4,-30.01"/>
<polygon fill="#63b8ff" stroke="#63b8ff" points="149.1,-64.19 159.54,-65.95 152.48,-58.06 149.1,-64.19"/>
</a>
</g>
</g>
<!-- Node10 -->
<g id="Node000010" class="node">
<title>Node10</title>
<g id="a_Node000010"><a xlink:href="ScaleHandle_8cpp.html" target="_top" xlink:title=" ">
<polygon fill="white" stroke="#666666" points="294,-30 156,-30 156,0 294,0 294,-30"/>
<text text-anchor="start" x="164" y="-18" font-family="Helvetica,sans-Serif" font-size="10.00">src/graphics/components</text>
<text text-anchor="middle" x="225" y="-7" font-family="Helvetica,sans-Serif" font-size="10.00">/ScaleHandle.cpp</text>
</a>
</g>
</g>
<!-- Node9&#45;&gt;Node10 -->
<g id="edge11_Node000009_Node000010" class="edge">
<title>Node9&#45;&gt;Node10</title>
<g id="a_edge11_Node000009_Node000010"><a xlink:title=" ">
<path fill="none" stroke="#63b8ff" d="M199.22,-57.24C204.87,-48.21 211.18,-38.11 216.15,-30.16"/>
<polygon fill="#63b8ff" stroke="#63b8ff" points="196.21,-55.46 193.88,-65.8 202.15,-59.17 196.21,-55.46"/>
</a>
</g>
</g>
<!-- Node16&#45;&gt;Node5 -->
<g id="edge20_Node000016_Node000005" class="edge">
<title>Node16&#45;&gt;Node5</title>
<g id="a_edge20_Node000016_Node000005"><a xlink:title=" ">
<path fill="none" stroke="#63b8ff" d="M1845,-55.6C1845,-44.8 1845,-32.78 1845,-24.84"/>
<polygon fill="#63b8ff" stroke="#63b8ff" points="1841.5,-55.8 1845,-65.8 1848.5,-55.8 1841.5,-55.8"/>
</a>
</g>
</g>
<!-- Node16&#45;&gt;Node17 -->
<g id="edge21_Node000016_Node000017" class="edge">
<title>Node16&#45;&gt;Node17</title>
<g id="a_edge21_Node000016_Node000017"><a xlink:title=" ">
<path fill="none" stroke="#63b8ff" d="M1909.13,-66.13C2022.37,-53.19 2542.47,-27.03 2712.85,-18.64"/>
<polygon fill="#63b8ff" stroke="#63b8ff" points="1908.68,-62.66 1899.2,-67.38 1909.55,-69.6 1908.68,-62.66"/>
</a>
</g>
</g>
<!-- Node18&#45;&gt;Node5 -->
<g id="edge23_Node000018_Node000005" class="edge">
<title>Node18&#45;&gt;Node5</title>
<g id="a_edge23_Node000018_Node000005"><a xlink:title=" ">
<path fill="none" stroke="#63b8ff" d="M927.54,-65.95C1231.58,-24.95 1581.61,-17.3 1747.92,-16.06"/>
<polygon fill="#63b8ff" stroke="#63b8ff" points="926.63,-62.54 917.19,-67.36 927.58,-69.48 926.63,-62.54"/>
</a>
</g>
</g>
<!-- Node18&#45;&gt;Node19 -->
<g id="edge24_Node000018_Node000019" class="edge">
<title>Node18&#45;&gt;Node19</title>
<g id="a_edge24_Node000018_Node000019"><a xlink:title=" ">
<path fill="none" stroke="#63b8ff" d="M798.93,-63.66C757.82,-53.18 705.04,-39.72 666.06,-29.78"/>
<polygon fill="#63b8ff" stroke="#63b8ff" points="798.29,-67.11 808.85,-66.19 800.02,-60.33 798.29,-67.11"/>
</a>
</g>
</g>
<!-- Node21 -->
<g id="Node000021" class="node">
<title>Node21</title>
<g id="a_Node000021"><a xlink:href="HierarchyWidget_8cpp.html" target="_top" xlink:title=" ">
<polygon fill="white" stroke="#666666" points="1078,-24.5 930,-24.5 930,-5.5 1078,-5.5 1078,-24.5"/>
<text text-anchor="middle" x="1004" y="-12.5" font-family="Helvetica,sans-Serif" font-size="10.00">src/ui/HierarchyWidget.cpp</text>
</a>
</g>
</g>
<!-- Node20&#45;&gt;Node21 -->
<g id="edge26_Node000020_Node000021" class="edge">
<title>Node20&#45;&gt;Node21</title>
<g id="a_edge26_Node000020_Node000021"><a xlink:title=" ">
<path fill="none" stroke="#63b8ff" d="M1004,-61.08C1004,-49.13 1004,-34.22 1004,-24.91"/>
<polygon fill="#63b8ff" stroke="#63b8ff" points="1000.5,-61.37 1004,-71.37 1007.5,-61.37 1000.5,-61.37"/>
</a>
</g>
</g>
<!-- Node22 -->
<g id="Node000022" class="node">
<title>Node22</title>
<g id="a_Node000022"><a xlink:href="MainWindow_8cpp.html" target="_top" xlink:title=" ">
<polygon fill="white" stroke="#666666" points="2473,-24.5 2345,-24.5 2345,-5.5 2473,-5.5 2473,-24.5"/>
<text text-anchor="middle" x="2409" y="-12.5" font-family="Helvetica,sans-Serif" font-size="10.00">src/ui/MainWindow.cpp</text>
</a>
</g>
</g>
<!-- Node20&#45;&gt;Node22 -->
<g id="edge27_Node000020_Node000022" class="edge">
<title>Node20&#45;&gt;Node22</title>
<g id="a_edge27_Node000020_Node000022"><a xlink:title=" ">
<path fill="none" stroke="#63b8ff" d="M1055.66,-69.68C1064.42,-68.23 1073.45,-66.92 1082,-66 1207.99,-52.39 2096.47,-25.27 2344.71,-17.89"/>
<polygon fill="#63b8ff" stroke="#63b8ff" points="1054.8,-66.28 1045.54,-71.43 1055.99,-73.18 1054.8,-66.28"/>
</a>
</g>
</g>
<!-- Node28&#45;&gt;Node5 -->
<g id="edge34_Node000028_Node000005" class="edge">
<title>Node28&#45;&gt;Node5</title>
<g id="a_edge34_Node000028_Node000005"><a xlink:title=" ">
<path fill="none" stroke="#63b8ff" d="M2418.35,-127.22C2430.81,-119.93 2444.04,-109.56 2451,-96 2457.09,-84.14 2460.03,-75.81 2451,-66 2417.3,-29.41 2104.67,-19.59 1942.15,-16.96"/>
<polygon fill="#63b8ff" stroke="#63b8ff" points="2416.65,-124.16 2409.52,-132 2419.98,-130.32 2416.65,-124.16"/>
</a>
</g>
</g>
<!-- Node28&#45;&gt;Node14 -->
<g id="edge35_Node000028_Node000014" class="edge">
<title>Node28&#45;&gt;Node14</title>
<g id="a_edge35_Node000028_Node000014"><a xlink:title=" ">
<path fill="none" stroke="#63b8ff" d="M2376.02,-123.63C2367.73,-112.85 2357.32,-99.32 2350.67,-90.67"/>
<polygon fill="#63b8ff" stroke="#63b8ff" points="2373.49,-126.08 2382.36,-131.87 2379.04,-121.81 2373.49,-126.08"/>
</a>
</g>
</g>
<!-- Node29&#45;&gt;Node22 -->
<g id="edge41_Node000029_Node000022" class="edge">
<title>Node29&#45;&gt;Node22</title>
<g id="a_edge41_Node000029_Node000022"><a xlink:title=" ">
<path fill="none" stroke="#63b8ff" d="M2696,-129.89C2745.81,-118.74 2803.16,-98.27 2775,-66 2736.57,-21.97 2567.36,-15.29 2473.06,-15.1"/>
<polygon fill="#63b8ff" stroke="#63b8ff" points="2695.21,-126.48 2686.17,-132 2696.68,-133.33 2695.21,-126.48"/>
</a>
</g>
</g>
<!-- Node30 -->
<g id="Node000030" class="node">
<title>Node30</title>
<g id="a_Node000030"><a xlink:href="main_8cpp.html" target="_top" xlink:title=" ">
<polygon fill="white" stroke="#666666" points="2765.5,-90.5 2686.5,-90.5 2686.5,-71.5 2765.5,-71.5 2765.5,-90.5"/>
<text text-anchor="middle" x="2726" y="-78.5" font-family="Helvetica,sans-Serif" font-size="10.00">src/main.cpp</text>
</a>
</g>
</g>
<!-- Node29&#45;&gt;Node30 -->
<g id="edge40_Node000029_Node000030" class="edge">
<title>Node29&#45;&gt;Node30</title>
<g id="a_edge40_Node000029_Node000030"><a xlink:title=" ">
<path fill="none" stroke="#63b8ff" d="M2656.07,-126.47C2673.59,-115.32 2697.53,-100.1 2712.37,-90.67"/>
<polygon fill="#63b8ff" stroke="#63b8ff" points="2654.14,-123.55 2647.57,-131.87 2657.89,-129.46 2654.14,-123.55"/>
</a>
</g>
</g>
</g>
</svg>
