<?xml version="1.0" encoding="UTF-8" standalone="no"?>
<!DOCTYPE svg PUBLIC "-//W3C//DTD SVG 1.1//EN"
 "http://www.w3.org/Graphics/SVG/1.1/DTD/svg11.dtd">
<!-- Generated by graphviz version 2.43.0 (0)
 -->
<!-- Title: src/physics/RigidBody.cpp Pages: 1 -->
<!--zoomable 247 -->

<svg id="main" version="1.1" xmlns="http://www.w3.org/2000/svg" xmlns:xlink="http://www.w3.org/1999/xlink" xml:space="preserve" onload="init(evt)">
<style type="text/css"><![CDATA[
.node, .edge {opacity: 0.7;}
.node.selected, .edge.selected {opacity: 1;}
.edge:hover path { stroke: red; }
.edge:hover polygon { stroke: red; fill: red; }
]]></style>

<defs>
  <circle id="rim" cx="0" cy="0" r="7"/>
  <circle id="rim2" cx="0" cy="0" r="3.5"/>
  <g id="zoomPlus">
    <use xlink:href="#rim" fill="#404040"><set attributeName="fill" to="#808080" begin="zoomplus.mouseover" end="zoomplus.mouseout"/></use>
    <path d="M-4,0h8M0,-4v8" fill="none" stroke="white" stroke-width="1.5" pointer-events="none"/>
  </g>
  <g id="zoomMin">
    <use xlink:href="#rim" fill="#404040"><set attributeName="fill" to="#808080" begin="zoomminus.mouseover" end="zoomminus.mouseout"/></use>
    <path d="M-4,0h8" fill="none" stroke="white" stroke-width="1.5" pointer-events="none"/>
  </g>
  <g id="arrowUp" transform="translate(30 24)">
    <use xlink:href="#rim"/>
    <path pointer-events="none" fill="none" stroke="white" stroke-width="1.5" d="M0,-3.0v7 M-2.5,-0.5L0,-3.0L2.5,-0.5"/>
  </g>
  <g id="arrowRight" transform="rotate(90) translate(36 -43)">
    <use xlink:href="#rim"/>
    <path pointer-events="none" fill="none" stroke="white" stroke-width="1.5" d="M0,-3.0v7 M-2.5,-0.5L0,-3.0L2.5,-0.5"/>
  </g>
  <g id="arrowDown" transform="rotate(180) translate(-30 -48)">
    <use xlink:href="#rim"/>
    <path pointer-events="none" fill="none" stroke="white" stroke-width="1.5" d="M0,-3.0v7 M-2.5,-0.5L0,-3.0L2.5,-0.5"/>
  </g>
  <g id="arrowLeft" transform="rotate(270) translate(-36 17)">
    <use xlink:href="#rim"/>
    <path pointer-events="none" fill="none" stroke="white" stroke-width="1.5" d="M0,-3.0v7 M-2.5,-0.5L0,-3.0L2.5,-0.5"/>
  </g>
  <g id="resetDef">
    <use xlink:href="#rim2" fill="#404040"><set attributeName="fill" to="#808080" begin="reset.mouseover" end="reset.mouseout"/></use>
  </g>
</defs>
<script type="application/ecmascript">
var viewWidth = 878;
var viewHeight = 247;
var sectionId = 'dynsection-0';
</script>
<script type="application/ecmascript" xlink:href="svg.min.js"/>
<svg id="graph" class="graph">
<g id="viewport">
<title>src/physics/RigidBody.cpp</title>
<!-- Node1 -->
<g id="Node000001" class="node">
<title>Node1</title>
<g id="a_Node000001"><a xlink:title=" ">
<polygon fill="#999999" stroke="#666666" points="617.93,-239 475.93,-239 475.93,-220 617.93,-220 617.93,-239"/>
<text text-anchor="middle" x="546.93" y="-227" font-family="Helvetica,sans-Serif" font-size="10.00">src/physics/RigidBody.cpp</text>
</a>
</g>
</g>
<!-- Node2 -->
<g id="Node000002" class="node">
<title>Node2</title>
<g id="a_Node000002"><a xlink:href="RigidBody_8h.html" target="_top" xlink:title=" ">
<polygon fill="white" stroke="#666666" points="523.93,-184 449.93,-184 449.93,-165 523.93,-165 523.93,-184"/>
<text text-anchor="middle" x="486.93" y="-172" font-family="Helvetica,sans-Serif" font-size="10.00">RigidBody.h</text>
</a>
</g>
</g>
<!-- Node1&#45;&gt;Node2 -->
<g id="edge1_Node000001_Node000002" class="edge">
<title>Node1&#45;&gt;Node2</title>
<g id="a_edge1_Node000001_Node000002"><a xlink:title=" ">
<path fill="none" stroke="#63b8ff" d="M537.29,-219.98C528.42,-212.15 515.06,-200.34 504.33,-190.86"/>
<polygon fill="#63b8ff" stroke="#63b8ff" points="506.56,-188.17 496.75,-184.17 501.93,-193.41 506.56,-188.17"/>
</a>
</g>
</g>
<!-- Node18 -->
<g id="Node000018" class="node">
<title>Node18</title>
<g id="a_Node000018"><a xlink:title=" ">
<polygon fill="#e0e0e0" stroke="#999999" points="778.93,-184 718.93,-184 718.93,-165 778.93,-165 778.93,-184"/>
<text text-anchor="middle" x="748.93" y="-172" font-family="Helvetica,sans-Serif" font-size="10.00">iostream</text>
</a>
</g>
</g>
<!-- Node1&#45;&gt;Node18 -->
<g id="edge21_Node000001_Node000018" class="edge">
<title>Node1&#45;&gt;Node18</title>
<g id="a_edge21_Node000001_Node000018"><a xlink:title=" ">
<path fill="none" stroke="#63b8ff" d="M579.39,-219.98C614.71,-210.72 671.2,-195.89 709.16,-185.93"/>
<polygon fill="#63b8ff" stroke="#63b8ff" points="710.08,-189.31 718.87,-183.39 708.31,-182.54 710.08,-189.31"/>
</a>
</g>
</g>
<!-- Node19 -->
<g id="Node000019" class="node">
<title>Node19</title>
<g id="a_Node000019"><a xlink:href="PointMass_8h.html" target="_top" xlink:title=" ">
<polygon fill="white" stroke="#666666" points="276.93,-184 200.93,-184 200.93,-165 276.93,-165 276.93,-184"/>
<text text-anchor="middle" x="238.93" y="-172" font-family="Helvetica,sans-Serif" font-size="10.00">PointMass.h</text>
</a>
</g>
</g>
<!-- Node1&#45;&gt;Node19 -->
<g id="edge22_Node000001_Node000019" class="edge">
<title>Node1&#45;&gt;Node19</title>
<g id="a_edge22_Node000001_Node000019"><a xlink:title=" ">
<path fill="none" stroke="#63b8ff" d="M497.45,-219.98C439.54,-210.02 344.29,-193.63 287,-183.77"/>
<polygon fill="#63b8ff" stroke="#63b8ff" points="287.56,-180.32 277.11,-182.07 286.37,-187.21 287.56,-180.32"/>
</a>
</g>
</g>
<!-- Node21 -->
<g id="Node000021" class="node">
<title>Node21</title>
<g id="a_Node000021"><a xlink:href="BoxCollider_8h.html" target="_top" xlink:title=" ">
<polygon fill="white" stroke="#666666" points="700.43,-184 571.43,-184 571.43,-165 700.43,-165 700.43,-184"/>
<text text-anchor="middle" x="635.93" y="-172" font-family="Helvetica,sans-Serif" font-size="10.00">bounding/BoxCollider.h</text>
</a>
</g>
</g>
<!-- Node1&#45;&gt;Node21 -->
<g id="edge28_Node000001_Node000021" class="edge">
<title>Node1&#45;&gt;Node21</title>
<g id="a_edge28_Node000001_Node000021"><a xlink:title=" ">
<path fill="none" stroke="#63b8ff" d="M561.23,-219.98C575.04,-211.77 596.17,-199.18 612.45,-189.49"/>
<polygon fill="#63b8ff" stroke="#63b8ff" points="614.57,-192.29 621.37,-184.17 610.99,-186.28 614.57,-192.29"/>
</a>
</g>
</g>
<!-- Node3 -->
<g id="Node000003" class="node">
<title>Node3</title>
<g id="a_Node000003"><a xlink:title=" ">
<polygon fill="#e0e0e0" stroke="#999999" points="102.93,-74 54.93,-74 54.93,-55 102.93,-55 102.93,-74"/>
<text text-anchor="middle" x="78.93" y="-62" font-family="Helvetica,sans-Serif" font-size="10.00">mutex</text>
</a>
</g>
</g>
<!-- Node2&#45;&gt;Node3 -->
<g id="edge2_Node000002_Node000003" class="edge">
<title>Node2&#45;&gt;Node3</title>
<g id="a_edge2_Node000002_Node000003"><a xlink:title=" ">
<path fill="none" stroke="#63b8ff" d="M449.64,-171.7C393.84,-168.12 285.86,-157.81 198.93,-129 162.36,-116.88 123.56,-94.34 100.3,-79.64"/>
<polygon fill="#63b8ff" stroke="#63b8ff" points="101.91,-76.52 91.61,-74.05 98.13,-82.41 101.91,-76.52"/>
</a>
</g>
</g>
<!-- Node4 -->
<g id="Node000004" class="node">
<title>Node4</title>
<g id="a_Node000004"><a xlink:title=" ">
<polygon fill="#e0e0e0" stroke="#999999" points="168.43,-74 121.43,-74 121.43,-55 168.43,-55 168.43,-74"/>
<text text-anchor="middle" x="144.93" y="-62" font-family="Helvetica,sans-Serif" font-size="10.00">vector</text>
</a>
</g>
</g>
<!-- Node2&#45;&gt;Node4 -->
<g id="edge3_Node000002_Node000004" class="edge">
<title>Node2&#45;&gt;Node4</title>
<g id="a_edge3_Node000002_Node000004"><a xlink:title=" ">
<path fill="none" stroke="#63b8ff" d="M449.82,-172.37C398.62,-169.65 304.35,-160.39 230.93,-129 216.54,-122.84 183.75,-97.21 163.08,-80.45"/>
<polygon fill="#63b8ff" stroke="#63b8ff" points="165.26,-77.72 155.3,-74.11 160.83,-83.14 165.26,-77.72"/>
</a>
</g>
</g>
<!-- Node5 -->
<g id="Node000005" class="node">
<title>Node5</title>
<g id="a_Node000005"><a xlink:title=" ">
<polygon fill="#e0e0e0" stroke="#999999" points="617.93,-74 539.93,-74 539.93,-55 617.93,-55 617.93,-74"/>
<text text-anchor="middle" x="578.93" y="-62" font-family="Helvetica,sans-Serif" font-size="10.00">glm/glm.hpp</text>
</a>
</g>
</g>
<!-- Node2&#45;&gt;Node5 -->
<g id="edge4_Node000002_Node000005" class="edge">
<title>Node2&#45;&gt;Node5</title>
<g id="a_edge4_Node000002_Node000005"><a xlink:title=" ">
<path fill="none" stroke="#63b8ff" d="M510.2,-164.95C526.65,-157.75 548,-145.91 560.93,-129 570.83,-116.06 575.29,-97.9 577.29,-84.32"/>
<polygon fill="#63b8ff" stroke="#63b8ff" points="580.79,-84.53 578.47,-74.2 573.84,-83.73 580.79,-84.53"/>
</a>
</g>
</g>
<!-- Node6 -->
<g id="Node000006" class="node">
<title>Node6</title>
<g id="a_Node000006"><a xlink:title=" ">
<polygon fill="#e0e0e0" stroke="#999999" points="551.93,-129 421.93,-129 421.93,-110 551.93,-110 551.93,-129"/>
<text text-anchor="middle" x="486.93" y="-117" font-family="Helvetica,sans-Serif" font-size="10.00">glm/gtc/quaternion.hpp</text>
</a>
</g>
</g>
<!-- Node2&#45;&gt;Node6 -->
<g id="edge5_Node000002_Node000006" class="edge">
<title>Node2&#45;&gt;Node6</title>
<g id="a_edge5_Node000002_Node000006"><a xlink:title=" ">
<path fill="none" stroke="#63b8ff" d="M486.93,-164.75C486.93,-157.8 486.93,-147.85 486.93,-139.13"/>
<polygon fill="#63b8ff" stroke="#63b8ff" points="490.43,-139.09 486.93,-129.09 483.43,-139.09 490.43,-139.09"/>
</a>
</g>
</g>
<!-- Node7 -->
<g id="Node000007" class="node">
<title>Node7</title>
<g id="a_Node000007"><a xlink:href="ICollider_8h.html" target="_top" xlink:title="Abstract interface for collision detection shapes.">
<polygon fill="white" stroke="#666666" points="721.43,-129 608.43,-129 608.43,-110 721.43,-110 721.43,-129"/>
<text text-anchor="middle" x="664.93" y="-117" font-family="Helvetica,sans-Serif" font-size="10.00">bounding/ICollider.h</text>
</a>
</g>
</g>
<!-- Node2&#45;&gt;Node7 -->
<g id="edge6_Node000002_Node000007" class="edge">
<title>Node2&#45;&gt;Node7</title>
<g id="a_edge6_Node000002_Node000007"><a xlink:title=" ">
<path fill="none" stroke="#63b8ff" d="M515.53,-164.98C545.55,-156.05 592.91,-141.94 626.25,-132.02"/>
<polygon fill="#63b8ff" stroke="#63b8ff" points="627.53,-135.29 636.11,-129.08 625.53,-128.58 627.53,-135.29"/>
</a>
</g>
</g>
<!-- Node12 -->
<g id="Node000012" class="node">
<title>Node12</title>
<g id="a_Node000012"><a xlink:href="PhysicsBody_8h.html" target="_top" xlink:title=" ">
<polygon fill="white" stroke="#666666" points="365.43,-129 240.43,-129 240.43,-110 365.43,-110 365.43,-129"/>
<text text-anchor="middle" x="302.93" y="-117" font-family="Helvetica,sans-Serif" font-size="10.00">physics/PhysicsBody.h</text>
</a>
</g>
</g>
<!-- Node2&#45;&gt;Node12 -->
<g id="edge12_Node000002_Node000012" class="edge">
<title>Node2&#45;&gt;Node12</title>
<g id="a_edge12_Node000002_Node000012"><a xlink:title=" ">
<path fill="none" stroke="#63b8ff" d="M457.37,-164.98C426.21,-156.01 376.96,-141.82 342.48,-131.89"/>
<polygon fill="#63b8ff" stroke="#63b8ff" points="343.31,-128.49 332.73,-129.08 341.37,-135.21 343.31,-128.49"/>
</a>
</g>
</g>
<!-- Node7&#45;&gt;Node5 -->
<g id="edge7_Node000007_Node000005" class="edge">
<title>Node7&#45;&gt;Node5</title>
<g id="a_edge7_Node000007_Node000005"><a xlink:title=" ">
<path fill="none" stroke="#63b8ff" d="M651.12,-109.98C637.78,-101.77 617.35,-89.18 601.63,-79.49"/>
<polygon fill="#63b8ff" stroke="#63b8ff" points="603.35,-76.44 593,-74.17 599.68,-82.4 603.35,-76.44"/>
</a>
</g>
</g>
<!-- Node8 -->
<g id="Node000008" class="node">
<title>Node8</title>
<g id="a_Node000008"><a xlink:title=" ">
<polygon fill="#e0e0e0" stroke="#999999" points="693.93,-74 635.93,-74 635.93,-55 693.93,-55 693.93,-74"/>
<text text-anchor="middle" x="664.93" y="-62" font-family="Helvetica,sans-Serif" font-size="10.00">memory</text>
</a>
</g>
</g>
<!-- Node7&#45;&gt;Node8 -->
<g id="edge8_Node000007_Node000008" class="edge">
<title>Node7&#45;&gt;Node8</title>
<g id="a_edge8_Node000007_Node000008"><a xlink:title=" ">
<path fill="none" stroke="#63b8ff" d="M664.93,-109.75C664.93,-102.8 664.93,-92.85 664.93,-84.13"/>
<polygon fill="#63b8ff" stroke="#63b8ff" points="668.43,-84.09 664.93,-74.09 661.43,-84.09 668.43,-84.09"/>
</a>
</g>
</g>
<!-- Node9 -->
<g id="Node000009" class="node">
<title>Node9</title>
<g id="a_Node000009"><a xlink:title=" ">
<polygon fill="#e0e0e0" stroke="#999999" points="767.93,-74 711.93,-74 711.93,-55 767.93,-55 767.93,-74"/>
<text text-anchor="middle" x="739.93" y="-62" font-family="Helvetica,sans-Serif" font-size="10.00">optional</text>
</a>
</g>
</g>
<!-- Node7&#45;&gt;Node9 -->
<g id="edge9_Node000007_Node000009" class="edge">
<title>Node7&#45;&gt;Node9</title>
<g id="a_edge9_Node000007_Node000009"><a xlink:title=" ">
<path fill="none" stroke="#63b8ff" d="M676.98,-109.98C688.4,-101.92 705.77,-89.65 719.37,-80.03"/>
<polygon fill="#63b8ff" stroke="#63b8ff" points="721.52,-82.8 727.67,-74.17 717.48,-77.08 721.52,-82.8"/>
</a>
</g>
</g>
<!-- Node10 -->
<g id="Node000010" class="node">
<title>Node10</title>
<g id="a_Node000010"><a xlink:href="Ray_8h.html" target="_top" xlink:title=" ">
<polygon fill="white" stroke="#666666" points="857.43,-74 786.43,-74 786.43,-55 857.43,-55 857.43,-74"/>
<text text-anchor="middle" x="821.93" y="-62" font-family="Helvetica,sans-Serif" font-size="10.00">math/Ray.h</text>
</a>
</g>
</g>
<!-- Node7&#45;&gt;Node10 -->
<g id="edge10_Node000007_Node000010" class="edge">
<title>Node7&#45;&gt;Node10</title>
<g id="a_edge10_Node000007_Node000010"><a xlink:title=" ">
<path fill="none" stroke="#63b8ff" d="M690.16,-109.98C716.29,-101.16 757.33,-87.31 786.67,-77.41"/>
<polygon fill="#63b8ff" stroke="#63b8ff" points="788.16,-80.6 796.51,-74.08 785.92,-73.96 788.16,-80.6"/>
</a>
</g>
</g>
<!-- Node11 -->
<g id="Node000011" class="node">
<title>Node11</title>
<g id="a_Node000011"><a xlink:title=" ">
<polygon fill="#e0e0e0" stroke="#999999" points="863.43,-19 780.43,-19 780.43,0 863.43,0 863.43,-19"/>
<text text-anchor="middle" x="821.93" y="-7" font-family="Helvetica,sans-Serif" font-size="10.00">glm/vec3.hpp</text>
</a>
</g>
</g>
<!-- Node10&#45;&gt;Node11 -->
<g id="edge11_Node000010_Node000011" class="edge">
<title>Node10&#45;&gt;Node11</title>
<g id="a_edge11_Node000010_Node000011"><a xlink:title=" ">
<path fill="none" stroke="#63b8ff" d="M821.93,-54.75C821.93,-47.8 821.93,-37.85 821.93,-29.13"/>
<polygon fill="#63b8ff" stroke="#63b8ff" points="825.43,-29.09 821.93,-19.09 818.43,-29.09 825.43,-29.09"/>
</a>
</g>
</g>
<!-- Node12&#45;&gt;Node3 -->
<g id="edge19_Node000012_Node000003" class="edge">
<title>Node12&#45;&gt;Node3</title>
<g id="a_edge19_Node000012_Node000003"><a xlink:title=" ">
<path fill="none" stroke="#63b8ff" d="M265.18,-109.98C228.64,-101.67 171.44,-88.5 112.86,-74.19"/>
<polygon fill="#63b8ff" stroke="#63b8ff" points="113.61,-70.77 103.07,-71.79 111.95,-77.57 113.61,-70.77"/>
</a>
</g>
</g>
<!-- Node12&#45;&gt;Node4 -->
<g id="edge17_Node000012_Node000004" class="edge">
<title>Node12&#45;&gt;Node4</title>
<g id="a_edge17_Node000012_Node000004"><a xlink:title=" ">
<path fill="none" stroke="#63b8ff" d="M277.55,-109.98C250.51,-100.91 207.61,-86.52 177.96,-76.58"/>
<polygon fill="#63b8ff" stroke="#63b8ff" points="179.05,-73.25 168.45,-73.39 176.82,-79.89 179.05,-73.25"/>
</a>
</g>
</g>
<!-- Node12&#45;&gt;Node5 -->
<g id="edge16_Node000012_Node000005" class="edge">
<title>Node12&#45;&gt;Node5</title>
<g id="a_edge16_Node000012_Node000005"><a xlink:title=" ">
<path fill="none" stroke="#63b8ff" d="M347.28,-109.98C397.14,-100.41 477.87,-84.91 529.66,-74.96"/>
<polygon fill="#63b8ff" stroke="#63b8ff" points="530.46,-78.37 539.62,-73.05 529.14,-71.5 530.46,-78.37"/>
</a>
</g>
</g>
<!-- Node13 -->
<g id="Node000013" class="node">
<title>Node13</title>
<g id="a_Node000013"><a xlink:title=" ">
<polygon fill="#e0e0e0" stroke="#999999" points="459.93,-74 409.93,-74 409.93,-55 459.93,-55 459.93,-74"/>
<text text-anchor="middle" x="434.93" y="-62" font-family="Helvetica,sans-Serif" font-size="10.00">atomic</text>
</a>
</g>
</g>
<!-- Node12&#45;&gt;Node13 -->
<g id="edge13_Node000012_Node000013" class="edge">
<title>Node12&#45;&gt;Node13</title>
<g id="a_edge13_Node000012_Node000013"><a xlink:title=" ">
<path fill="none" stroke="#63b8ff" d="M324.14,-109.98C345.66,-101.34 379.22,-87.87 403.76,-78.02"/>
<polygon fill="#63b8ff" stroke="#63b8ff" points="405.36,-81.14 413.34,-74.17 402.76,-74.65 405.36,-81.14"/>
</a>
</g>
</g>
<!-- Node14 -->
<g id="Node000014" class="node">
<title>Node14</title>
<g id="a_Node000014"><a xlink:title=" ">
<polygon fill="#e0e0e0" stroke="#999999" points="521.93,-74 477.93,-74 477.93,-55 521.93,-55 521.93,-74"/>
<text text-anchor="middle" x="499.93" y="-62" font-family="Helvetica,sans-Serif" font-size="10.00">string</text>
</a>
</g>
</g>
<!-- Node12&#45;&gt;Node14 -->
<g id="edge14_Node000012_Node000014" class="edge">
<title>Node12&#45;&gt;Node14</title>
<g id="a_edge14_Node000012_Node000014"><a xlink:title=" ">
<path fill="none" stroke="#63b8ff" d="M335.08,-109.94C366.57,-101.54 416.18,-88.28 468.19,-74.19"/>
<polygon fill="#63b8ff" stroke="#63b8ff" points="469.19,-77.55 477.92,-71.55 467.36,-70.79 469.19,-77.55"/>
</a>
</g>
</g>
<!-- Node15 -->
<g id="Node000015" class="node">
<title>Node15</title>
<g id="a_Node000015"><a xlink:title=" ">
<polygon fill="#e0e0e0" stroke="#999999" points="231.43,-74 186.43,-74 186.43,-55 231.43,-55 231.43,-74"/>
<text text-anchor="middle" x="208.93" y="-62" font-family="Helvetica,sans-Serif" font-size="10.00">utility</text>
</a>
</g>
</g>
<!-- Node12&#45;&gt;Node15 -->
<g id="edge15_Node000012_Node000015" class="edge">
<title>Node12&#45;&gt;Node15</title>
<g id="a_edge15_Node000012_Node000015"><a xlink:title=" ">
<path fill="none" stroke="#63b8ff" d="M287.83,-109.98C273.12,-101.69 250.51,-88.94 233.26,-79.22"/>
<polygon fill="#63b8ff" stroke="#63b8ff" points="234.74,-76.03 224.31,-74.17 231.3,-82.13 234.74,-76.03"/>
</a>
</g>
</g>
<!-- Node16 -->
<g id="Node000016" class="node">
<title>Node16</title>
<g id="a_Node000016"><a xlink:title=" ">
<polygon fill="#e0e0e0" stroke="#999999" points="287.93,-74 249.93,-74 249.93,-55 287.93,-55 287.93,-74"/>
<text text-anchor="middle" x="268.93" y="-62" font-family="Helvetica,sans-Serif" font-size="10.00">map</text>
</a>
</g>
</g>
<!-- Node12&#45;&gt;Node16 -->
<g id="edge18_Node000012_Node000016" class="edge">
<title>Node12&#45;&gt;Node16</title>
<g id="a_edge18_Node000012_Node000016"><a xlink:title=" ">
<path fill="none" stroke="#63b8ff" d="M297.32,-109.75C292.62,-102.42 285.76,-91.73 279.97,-82.7"/>
<polygon fill="#63b8ff" stroke="#63b8ff" points="282.79,-80.62 274.44,-74.09 276.9,-84.4 282.79,-80.62"/>
</a>
</g>
</g>
<!-- Node17 -->
<g id="Node000017" class="node">
<title>Node17</title>
<g id="a_Node000017"><a xlink:title=" ">
<polygon fill="#e0e0e0" stroke="#999999" points="391.93,-74 305.93,-74 305.93,-55 391.93,-55 391.93,-74"/>
<text text-anchor="middle" x="348.93" y="-62" font-family="Helvetica,sans-Serif" font-size="10.00">unordered_set</text>
</a>
</g>
</g>
<!-- Node12&#45;&gt;Node17 -->
<g id="edge20_Node000012_Node000017" class="edge">
<title>Node12&#45;&gt;Node17</title>
<g id="a_edge20_Node000012_Node000017"><a xlink:title=" ">
<path fill="none" stroke="#63b8ff" d="M310.53,-109.75C317.09,-102.18 326.76,-91.05 334.75,-81.84"/>
<polygon fill="#63b8ff" stroke="#63b8ff" points="337.57,-83.94 341.48,-74.09 332.28,-79.35 337.57,-83.94"/>
</a>
</g>
</g>
<!-- Node19&#45;&gt;Node3 -->
<g id="edge26_Node000019_Node000003" class="edge">
<title>Node19&#45;&gt;Node3</title>
<g id="a_edge26_Node000019_Node000003"><a xlink:title=" ">
<path fill="none" stroke="#63b8ff" d="M200.55,-171.93C140.67,-168.58 29.33,-158.47 4.93,-129 -11.77,-108.82 18.76,-89.83 45.53,-77.97"/>
<polygon fill="#63b8ff" stroke="#63b8ff" points="46.9,-81.19 54.75,-74.08 44.18,-74.74 46.9,-81.19"/>
</a>
</g>
</g>
<!-- Node19&#45;&gt;Node4 -->
<g id="edge24_Node000019_Node000004" class="edge">
<title>Node19&#45;&gt;Node4</title>
<g id="a_edge24_Node000019_Node000004"><a xlink:title=" ">
<path fill="none" stroke="#63b8ff" d="M230.64,-164.75C222.26,-155.86 209.02,-141.64 197.93,-129 184.24,-113.39 169.1,-95.15 158.52,-82.23"/>
<polygon fill="#63b8ff" stroke="#63b8ff" points="161.04,-79.78 152,-74.24 155.61,-84.2 161.04,-79.78"/>
</a>
</g>
</g>
<!-- Node19&#45;&gt;Node5 -->
<g id="edge25_Node000019_Node000005" class="edge">
<title>Node19&#45;&gt;Node5</title>
<g id="a_edge25_Node000019_Node000005"><a xlink:title=" ">
<path fill="none" stroke="#63b8ff" d="M268.58,-164.99C296.21,-156.76 338.38,-143.44 373.93,-129 391.8,-121.74 394.87,-116.75 412.93,-110 451.31,-95.66 496.27,-83.9 529.71,-76.08"/>
<polygon fill="#63b8ff" stroke="#63b8ff" points="530.74,-79.44 539.7,-73.78 529.17,-72.61 530.74,-79.44"/>
</a>
</g>
</g>
<!-- Node19&#45;&gt;Node12 -->
<g id="edge27_Node000019_Node000012" class="edge">
<title>Node19&#45;&gt;Node12</title>
<g id="a_edge27_Node000019_Node000012"><a xlink:title=" ">
<path fill="none" stroke="#63b8ff" d="M249.22,-164.98C258.77,-157.07 273.21,-145.11 284.72,-135.58"/>
<polygon fill="#63b8ff" stroke="#63b8ff" points="286.99,-138.24 292.46,-129.17 282.53,-132.85 286.99,-138.24"/>
</a>
</g>
</g>
<!-- Node20 -->
<g id="Node000020" class="node">
<title>Node20</title>
<g id="a_Node000020"><a xlink:title=" ">
<polygon fill="#e0e0e0" stroke="#999999" points="107.43,-129 14.43,-129 14.43,-110 107.43,-110 107.43,-129"/>
<text text-anchor="middle" x="60.93" y="-117" font-family="Helvetica,sans-Serif" font-size="10.00">unordered_map</text>
</a>
</g>
</g>
<!-- Node19&#45;&gt;Node20 -->
<g id="edge23_Node000019_Node000020" class="edge">
<title>Node19&#45;&gt;Node20</title>
<g id="a_edge23_Node000019_Node000020"><a xlink:title=" ">
<path fill="none" stroke="#63b8ff" d="M210.34,-164.98C180.32,-156.05 132.96,-141.94 99.62,-132.02"/>
<polygon fill="#63b8ff" stroke="#63b8ff" points="100.34,-128.58 89.76,-129.08 98.34,-135.29 100.34,-128.58"/>
</a>
</g>
</g>
<!-- Node21&#45;&gt;Node7 -->
<g id="edge29_Node000021_Node000007" class="edge">
<title>Node21&#45;&gt;Node7</title>
<g id="a_edge29_Node000021_Node000007"><a xlink:title=" ">
<path fill="none" stroke="#63b8ff" d="M640.72,-164.75C644.69,-157.49 650.46,-146.95 655.37,-137.98"/>
<polygon fill="#63b8ff" stroke="#63b8ff" points="658.5,-139.54 660.23,-129.09 652.36,-136.18 658.5,-139.54"/>
</a>
</g>
</g>
<!-- Node22 -->
<g id="Node000022" class="node">
<title>Node22</title>
<g id="a_Node000022"><a xlink:title=" ">
<polygon fill="#e0e0e0" stroke="#999999" points="870.43,-129 739.43,-129 739.43,-110 870.43,-110 870.43,-129"/>
<text text-anchor="middle" x="804.93" y="-117" font-family="Helvetica,sans-Serif" font-size="10.00">glm/gtx/quaternion.hpp</text>
</a>
</g>
</g>
<!-- Node21&#45;&gt;Node22 -->
<g id="edge30_Node000021_Node000022" class="edge">
<title>Node21&#45;&gt;Node22</title>
<g id="a_edge30_Node000021_Node000022"><a xlink:title=" ">
<path fill="none" stroke="#63b8ff" d="M663.09,-164.98C691.46,-156.09 736.17,-142.07 767.8,-132.15"/>
<polygon fill="#63b8ff" stroke="#63b8ff" points="769.07,-135.41 777.57,-129.08 766.98,-128.73 769.07,-135.41"/>
</a>
</g>
</g>
</g>
</svg>

<g id="navigator" transform="translate(0 0)" fill="#404254">
  <rect fill="#f2f5e9" fill-opacity="0.5" stroke="#606060" stroke-width=".5" x="0" y="0" width="60" height="60"/>
  <use id="zoomplus" xlink:href="#zoomPlus" x="17" y="9" onmousedown="handleZoom(evt,'in')"/>
  <use id="zoomminus" xlink:href="#zoomMin" x="42" y="9" onmousedown="handleZoom(evt,'out')"/>
  <use id="reset" xlink:href="#resetDef" x="30" y="36" onmousedown="handleReset()"/>
   <use id="arrowup" xlink:href="#arrowUp" x="0" y="0" onmousedown="handlePan(0,-1)"/>
  <use id="arrowright" xlink:href="#arrowRight" x="0" y="0" onmousedown="handlePan(1,0)"/>
  <use id="arrowdown" xlink:href="#arrowDown" x="0" y="0" onmousedown="handlePan(0,1)"/>
  <use id="arrowleft" xlink:href="#arrowLeft" x="0" y="0" onmousedown="handlePan(-1,0)"/>
</g>
<svg viewBox="0 0 15 15" width="100%" height="30px" preserveAspectRatio="xMaxYMin meet">
 <g id="arrow_out" transform="scale(0.3 0.3)">
  <a xlink:href="RigidBody_8cpp__incl_org.svg" target="_base">
   <rect id="button" ry="5" rx="5" y="6" x="6" height="38" width="38"
        fill="#f2f5e9" fill-opacity="0.5" stroke="#606060" stroke-width="1.0"/>
   <path id="arrow"
     d="M 11.500037,31.436501 C 11.940474,20.09759 22.043105,11.32322 32.158766,21.979434 L 37.068811,17.246167 C 37.068811,17.246167 37.088388,32 37.088388,32 L 22.160133,31.978069 C 22.160133,31.978069 26.997745,27.140456 26.997745,27.140456 C 18.528582,18.264221 13.291696,25.230495 11.500037,31.436501 z"
     style="fill:#404040;"/>
  </a>
 </g>
</svg>

<style type='text/css'>
<![CDATA[
[data-mouse-over-selected='false'] { opacity: 0.7; }
[data-mouse-over-selected='true']  { opacity: 1.0; }
]]>
</style>
<script type="application/ecmascript"><![CDATA[
document.addEventListener('DOMContentLoaded', (event) => {
  highlightEdges();
  highlightAdjacentNodes();
});
]]></script>
</svg>
