<?xml version="1.0" encoding="UTF-8" standalone="no"?>
<!DOCTYPE svg PUBLIC "-//W3C//DTD SVG 1.1//EN"
 "http://www.w3.org/Graphics/SVG/1.1/DTD/svg11.dtd">
<!-- Generated by graphviz version 2.43.0 (0)
 -->
<!-- Title: src/graphics/components/RotateHandle.h Pages: 1 -->
<!--zoomable 445 -->

<svg id="main" version="1.1" xmlns="http://www.w3.org/2000/svg" xmlns:xlink="http://www.w3.org/1999/xlink" xml:space="preserve" onload="init(evt)">
<style type="text/css"><![CDATA[
.node, .edge {opacity: 0.7;}
.node.selected, .edge.selected {opacity: 1;}
.edge:hover path { stroke: red; }
.edge:hover polygon { stroke: red; fill: red; }
]]></style>

<defs>
  <circle id="rim" cx="0" cy="0" r="7"/>
  <circle id="rim2" cx="0" cy="0" r="3.5"/>
  <g id="zoomPlus">
    <use xlink:href="#rim" fill="#404040"><set attributeName="fill" to="#808080" begin="zoomplus.mouseover" end="zoomplus.mouseout"/></use>
    <path d="M-4,0h8M0,-4v8" fill="none" stroke="white" stroke-width="1.5" pointer-events="none"/>
  </g>
  <g id="zoomMin">
    <use xlink:href="#rim" fill="#404040"><set attributeName="fill" to="#808080" begin="zoomminus.mouseover" end="zoomminus.mouseout"/></use>
    <path d="M-4,0h8" fill="none" stroke="white" stroke-width="1.5" pointer-events="none"/>
  </g>
  <g id="arrowUp" transform="translate(30 24)">
    <use xlink:href="#rim"/>
    <path pointer-events="none" fill="none" stroke="white" stroke-width="1.5" d="M0,-3.0v7 M-2.5,-0.5L0,-3.0L2.5,-0.5"/>
  </g>
  <g id="arrowRight" transform="rotate(90) translate(36 -43)">
    <use xlink:href="#rim"/>
    <path pointer-events="none" fill="none" stroke="white" stroke-width="1.5" d="M0,-3.0v7 M-2.5,-0.5L0,-3.0L2.5,-0.5"/>
  </g>
  <g id="arrowDown" transform="rotate(180) translate(-30 -48)">
    <use xlink:href="#rim"/>
    <path pointer-events="none" fill="none" stroke="white" stroke-width="1.5" d="M0,-3.0v7 M-2.5,-0.5L0,-3.0L2.5,-0.5"/>
  </g>
  <g id="arrowLeft" transform="rotate(270) translate(-36 17)">
    <use xlink:href="#rim"/>
    <path pointer-events="none" fill="none" stroke="white" stroke-width="1.5" d="M0,-3.0v7 M-2.5,-0.5L0,-3.0L2.5,-0.5"/>
  </g>
  <g id="resetDef">
    <use xlink:href="#rim2" fill="#404040"><set attributeName="fill" to="#808080" begin="reset.mouseover" end="reset.mouseout"/></use>
  </g>
</defs>
<script type="application/ecmascript">
var viewWidth = 678;
var viewHeight = 445;
var sectionId = 'dynsection-0';
</script>
<script type="application/ecmascript" xlink:href="svg.min.js"/>
<svg id="graph" class="graph">
<g id="viewport">
<title>src/graphics/components/RotateHandle.h</title>
<!-- Node1 -->
<g id="Node000001" class="node">
<title>Node1</title>
<g id="a_Node000001"><a xlink:title=" ">
<polygon fill="#999999" stroke="#666666" points="641,-437 503,-437 503,-407 641,-407 641,-437"/>
<text text-anchor="start" x="511" y="-425" font-family="Helvetica,sans-Serif" font-size="10.00">src/graphics/components</text>
<text text-anchor="middle" x="572" y="-414" font-family="Helvetica,sans-Serif" font-size="10.00">/RotateHandle.h</text>
</a>
</g>
</g>
<!-- Node2 -->
<g id="Node000002" class="node">
<title>Node2</title>
<g id="a_Node000002"><a xlink:title=" ">
<polygon fill="#e0e0e0" stroke="#999999" points="368,-74 290,-74 290,-55 368,-55 368,-74"/>
<text text-anchor="middle" x="329" y="-62" font-family="Helvetica,sans-Serif" font-size="10.00">glm/glm.hpp</text>
</a>
</g>
</g>
<!-- Node1&#45;&gt;Node2 -->
<g id="edge1_Node000001_Node000002" class="edge">
<title>Node1&#45;&gt;Node2</title>
<g id="a_edge1_Node000001_Node000002"><a xlink:title=" ">
<path fill="none" stroke="#63b8ff" d="M605.24,-406.8C621.14,-398.48 639.23,-386.52 651,-371 668.8,-347.52 670,-336.96 670,-307.5 670,-307.5 670,-307.5 670,-179 670,-118.26 472.75,-84.26 378.29,-71.46"/>
<polygon fill="#63b8ff" stroke="#63b8ff" points="378.49,-67.95 368.12,-70.11 377.57,-74.89 378.49,-67.95"/>
</a>
</g>
</g>
<!-- Node3 -->
<g id="Node000003" class="node">
<title>Node3</title>
<g id="a_Node000003"><a xlink:title=" ">
<polygon fill="#e0e0e0" stroke="#999999" points="641.5,-371 502.5,-371 502.5,-352 641.5,-352 641.5,-371"/>
<text text-anchor="middle" x="572" y="-359" font-family="Helvetica,sans-Serif" font-size="10.00">glm/detail/type_quat.hpp</text>
</a>
</g>
</g>
<!-- Node1&#45;&gt;Node3 -->
<g id="edge2_Node000001_Node000003" class="edge">
<title>Node1&#45;&gt;Node3</title>
<g id="a_edge2_Node000001_Node000003"><a xlink:title=" ">
<path fill="none" stroke="#63b8ff" d="M572,-406.84C572,-399.21 572,-389.7 572,-381.45"/>
<polygon fill="#63b8ff" stroke="#63b8ff" points="575.5,-381.27 572,-371.27 568.5,-381.27 575.5,-381.27"/>
</a>
</g>
</g>
<!-- Node4 -->
<g id="Node000004" class="node">
<title>Node4</title>
<g id="a_Node000004"><a xlink:href="IHandle_8h.html" target="_top" xlink:title="Interface for interactive manipulation handles on gizmos.">
<polygon fill="white" stroke="#666666" points="484.5,-371 421.5,-371 421.5,-352 484.5,-352 484.5,-371"/>
<text text-anchor="middle" x="453" y="-359" font-family="Helvetica,sans-Serif" font-size="10.00">IHandle.h</text>
</a>
</g>
</g>
<!-- Node1&#45;&gt;Node4 -->
<g id="edge3_Node000001_Node000004" class="edge">
<title>Node1&#45;&gt;Node4</title>
<g id="a_edge3_Node000001_Node000004"><a xlink:title=" ">
<path fill="none" stroke="#63b8ff" d="M543.5,-406.99C524.09,-397.45 498.57,-384.9 479.58,-375.57"/>
<polygon fill="#63b8ff" stroke="#63b8ff" points="481.09,-372.41 470.57,-371.14 478,-378.69 481.09,-372.41"/>
</a>
</g>
</g>
<!-- Node5 -->
<g id="Node000005" class="node">
<title>Node5</title>
<g id="a_Node000005"><a xlink:href="IDrawable_8h.html" target="_top" xlink:title="Core interfaces for the rendering system supporting both instanced and custom drawing.">
<polygon fill="white" stroke="#666666" points="389,-316 281,-316 281,-297 389,-297 389,-316"/>
<text text-anchor="middle" x="335" y="-304" font-family="Helvetica,sans-Serif" font-size="10.00">../core/IDrawable.h</text>
</a>
</g>
</g>
<!-- Node4&#45;&gt;Node5 -->
<g id="edge4_Node000004_Node000005" class="edge">
<title>Node4&#45;&gt;Node5</title>
<g id="a_edge4_Node000004_Node000005"><a xlink:title=" ">
<path fill="none" stroke="#63b8ff" d="M434.04,-351.98C414.97,-343.42 385.34,-330.11 363.45,-320.28"/>
<polygon fill="#63b8ff" stroke="#63b8ff" points="364.86,-317.07 354.3,-316.17 361.99,-323.46 364.86,-317.07"/>
</a>
</g>
</g>
<!-- Node18 -->
<g id="Node000018" class="node">
<title>Node18</title>
<g id="a_Node000018"><a xlink:title=" ">
<polygon fill="#e0e0e0" stroke="#999999" points="537,-316 407,-316 407,-297 537,-297 537,-316"/>
<text text-anchor="middle" x="472" y="-304" font-family="Helvetica,sans-Serif" font-size="10.00">glm/gtc/quaternion.hpp</text>
</a>
</g>
</g>
<!-- Node4&#45;&gt;Node18 -->
<g id="edge23_Node000004_Node000018" class="edge">
<title>Node4&#45;&gt;Node18</title>
<g id="a_edge23_Node000004_Node000018"><a xlink:title=" ">
<path fill="none" stroke="#63b8ff" d="M456.14,-351.75C458.68,-344.65 462.36,-334.4 465.53,-325.56"/>
<polygon fill="#63b8ff" stroke="#63b8ff" points="468.84,-326.68 468.92,-316.09 462.25,-324.32 468.84,-326.68"/>
</a>
</g>
</g>
<!-- Node19 -->
<g id="Node000019" class="node">
<title>Node19</title>
<g id="a_Node000019"><a xlink:href="Axis_8h.html" target="_top" xlink:title=" ">
<polygon fill="white" stroke="#666666" points="602.5,-316 555.5,-316 555.5,-297 602.5,-297 602.5,-316"/>
<text text-anchor="middle" x="579" y="-304" font-family="Helvetica,sans-Serif" font-size="10.00">Axis.h</text>
</a>
</g>
</g>
<!-- Node4&#45;&gt;Node19 -->
<g id="edge24_Node000004_Node000019" class="edge">
<title>Node4&#45;&gt;Node19</title>
<g id="a_edge24_Node000004_Node000019"><a xlink:title=" ">
<path fill="none" stroke="#63b8ff" d="M473.24,-351.98C493.7,-343.38 525.53,-329.99 548.93,-320.15"/>
<polygon fill="#63b8ff" stroke="#63b8ff" points="550.53,-323.27 558.39,-316.17 547.81,-316.82 550.53,-323.27"/>
</a>
</g>
</g>
<!-- Node6 -->
<g id="Node000006" class="node">
<title>Node6</title>
<g id="a_Node000006"><a xlink:href="Shader_8h.html" target="_top" xlink:title=" ">
<polygon fill="white" stroke="#666666" points="571.5,-261 450.5,-261 450.5,-231 571.5,-231 571.5,-261"/>
<text text-anchor="start" x="458.5" y="-249" font-family="Helvetica,sans-Serif" font-size="10.00">graphics/components</text>
<text text-anchor="middle" x="511" y="-238" font-family="Helvetica,sans-Serif" font-size="10.00">/Shader.h</text>
</a>
</g>
</g>
<!-- Node5&#45;&gt;Node6 -->
<g id="edge5_Node000005_Node000006" class="edge">
<title>Node5&#45;&gt;Node6</title>
<g id="a_edge5_Node000005_Node000006"><a xlink:title=" ">
<path fill="none" stroke="#63b8ff" d="M360.59,-296.99C386.25,-288.46 426.5,-275.09 458.91,-264.32"/>
<polygon fill="#63b8ff" stroke="#63b8ff" points="460.3,-267.54 468.69,-261.06 458.09,-260.9 460.3,-267.54"/>
</a>
</g>
</g>
<!-- Node9 -->
<g id="Node000009" class="node">
<title>Node9</title>
<g id="a_Node000009"><a xlink:href="Mesh_8h.html" target="_top" xlink:title=" ">
<polygon fill="white" stroke="#666666" points="395.5,-261 274.5,-261 274.5,-231 395.5,-231 395.5,-261"/>
<text text-anchor="start" x="282.5" y="-249" font-family="Helvetica,sans-Serif" font-size="10.00">graphics/components</text>
<text text-anchor="middle" x="335" y="-238" font-family="Helvetica,sans-Serif" font-size="10.00">/Mesh.h</text>
</a>
</g>
</g>
<!-- Node5&#45;&gt;Node9 -->
<g id="edge9_Node000005_Node000009" class="edge">
<title>Node5&#45;&gt;Node9</title>
<g id="a_edge9_Node000005_Node000009"><a xlink:title=" ">
<path fill="none" stroke="#63b8ff" d="M335,-296.87C335,-290.11 335,-280.35 335,-271.26"/>
<polygon fill="#63b8ff" stroke="#63b8ff" points="338.5,-271.11 335,-261.11 331.5,-271.11 338.5,-271.11"/>
</a>
</g>
</g>
<!-- Node6&#45;&gt;Node2 -->
<g id="edge7_Node000006_Node000002" class="edge">
<title>Node6&#45;&gt;Node2</title>
<g id="a_edge7_Node000006_Node000002"><a xlink:title=" ">
<path fill="none" stroke="#63b8ff" d="M521.37,-230.71C532.18,-213.9 545.9,-185.64 533,-165 499.27,-111.03 426.9,-85.55 378.07,-74.1"/>
<polygon fill="#63b8ff" stroke="#63b8ff" points="378.56,-70.62 368.03,-71.86 377.03,-77.45 378.56,-70.62"/>
</a>
</g>
</g>
<!-- Node7 -->
<g id="Node000007" class="node">
<title>Node7</title>
<g id="a_Node000007"><a xlink:title=" ">
<polygon fill="#e0e0e0" stroke="#999999" points="624,-189.5 580,-189.5 580,-170.5 624,-170.5 624,-189.5"/>
<text text-anchor="middle" x="602" y="-177.5" font-family="Helvetica,sans-Serif" font-size="10.00">string</text>
</a>
</g>
</g>
<!-- Node6&#45;&gt;Node7 -->
<g id="edge6_Node000006_Node000007" class="edge">
<title>Node6&#45;&gt;Node7</title>
<g id="a_edge6_Node000006_Node000007"><a xlink:title=" ">
<path fill="none" stroke="#63b8ff" d="M531.2,-230.8C546.03,-220.37 566.11,-206.24 581.11,-195.69"/>
<polygon fill="#63b8ff" stroke="#63b8ff" points="583.52,-198.27 589.69,-189.66 579.5,-192.55 583.52,-198.27"/>
</a>
</g>
</g>
<!-- Node8 -->
<g id="Node000008" class="node">
<title>Node8</title>
<g id="a_Node000008"><a xlink:title=" ">
<polygon fill="#e0e0e0" stroke="#999999" points="524,-195 404,-195 404,-165 524,-165 524,-195"/>
<text text-anchor="start" x="412" y="-183" font-family="Helvetica,sans-Serif" font-size="10.00">QOpenGLFunctions_4</text>
<text text-anchor="middle" x="464" y="-172" font-family="Helvetica,sans-Serif" font-size="10.00">_5_Core</text>
</a>
</g>
</g>
<!-- Node6&#45;&gt;Node8 -->
<g id="edge8_Node000006_Node000008" class="edge">
<title>Node6&#45;&gt;Node8</title>
<g id="a_edge8_Node000006_Node000008"><a xlink:title=" ">
<path fill="none" stroke="#63b8ff" d="M500.57,-230.8C494.67,-222.76 487.15,-212.53 480.47,-203.43"/>
<polygon fill="#63b8ff" stroke="#63b8ff" points="483.14,-201.15 474.4,-195.16 477.5,-205.3 483.14,-201.15"/>
</a>
</g>
</g>
<!-- Node9&#45;&gt;Node2 -->
<g id="edge12_Node000009_Node000002" class="edge">
<title>Node9&#45;&gt;Node2</title>
<g id="a_edge12_Node000009_Node000002"><a xlink:title=" ">
<path fill="none" stroke="#63b8ff" d="M342.01,-230.93C353.44,-206.08 373.5,-152.98 360,-110 356.77,-99.71 350.22,-89.72 343.97,-81.82"/>
<polygon fill="#63b8ff" stroke="#63b8ff" points="346.61,-79.52 337.48,-74.15 341.27,-84.04 346.61,-79.52"/>
</a>
</g>
</g>
<!-- Node9&#45;&gt;Node8 -->
<g id="edge10_Node000009_Node000008" class="edge">
<title>Node9&#45;&gt;Node8</title>
<g id="a_edge10_Node000009_Node000008"><a xlink:title=" ">
<path fill="none" stroke="#63b8ff" d="M363.31,-230.95C381.88,-221.74 406.36,-209.6 426.54,-199.59"/>
<polygon fill="#63b8ff" stroke="#63b8ff" points="428.35,-202.59 435.76,-195.01 425.24,-196.32 428.35,-202.59"/>
</a>
</g>
</g>
<!-- Node10 -->
<g id="Node000010" class="node">
<title>Node10</title>
<g id="a_Node000010"><a xlink:title=" ">
<polygon fill="#e0e0e0" stroke="#999999" points="306.5,-189.5 259.5,-189.5 259.5,-170.5 306.5,-170.5 306.5,-189.5"/>
<text text-anchor="middle" x="283" y="-177.5" font-family="Helvetica,sans-Serif" font-size="10.00">vector</text>
</a>
</g>
</g>
<!-- Node9&#45;&gt;Node10 -->
<g id="edge11_Node000009_Node000010" class="edge">
<title>Node9&#45;&gt;Node10</title>
<g id="a_edge11_Node000009_Node000010"><a xlink:title=" ">
<path fill="none" stroke="#63b8ff" d="M323.46,-230.8C315.51,-221.01 304.92,-207.98 296.57,-197.7"/>
<polygon fill="#63b8ff" stroke="#63b8ff" points="299.21,-195.4 290.19,-189.84 293.78,-199.81 299.21,-195.4"/>
</a>
</g>
</g>
<!-- Node11 -->
<g id="Node000011" class="node">
<title>Node11</title>
<g id="a_Node000011"><a xlink:href="AABB_8h.html" target="_top" xlink:title=" ">
<polygon fill="white" stroke="#666666" points="235,-189.5 95,-189.5 95,-170.5 235,-170.5 235,-189.5"/>
<text text-anchor="middle" x="165" y="-177.5" font-family="Helvetica,sans-Serif" font-size="10.00">physics/bounding/AABB.h</text>
</a>
</g>
</g>
<!-- Node9&#45;&gt;Node11 -->
<g id="edge13_Node000009_Node000011" class="edge">
<title>Node9&#45;&gt;Node11</title>
<g id="a_edge13_Node000009_Node000011"><a xlink:title=" ">
<path fill="none" stroke="#63b8ff" d="M297.69,-230.95C267.62,-219.63 225.76,-203.88 197.15,-193.1"/>
<polygon fill="#63b8ff" stroke="#63b8ff" points="198.22,-189.77 187.62,-189.52 195.75,-196.32 198.22,-189.77"/>
</a>
</g>
</g>
<!-- Node17 -->
<g id="Node000017" class="node">
<title>Node17</title>
<g id="a_Node000017"><a xlink:href="InstanceData_8h.html" target="_top" xlink:title=" ">
<polygon fill="white" stroke="#666666" points="351,-129 193,-129 193,-110 351,-110 351,-129"/>
<text text-anchor="middle" x="272" y="-117" font-family="Helvetica,sans-Serif" font-size="10.00">graphics/core/InstanceData.h</text>
</a>
</g>
</g>
<!-- Node9&#45;&gt;Node17 -->
<g id="edge21_Node000009_Node000017" class="edge">
<title>Node9&#45;&gt;Node17</title>
<g id="a_edge21_Node000009_Node000017"><a xlink:title=" ">
<path fill="none" stroke="#63b8ff" d="M333.71,-230.89C331.7,-214.24 326.74,-186.16 315,-165 308.92,-154.04 299.44,-143.82 290.94,-135.95"/>
<polygon fill="#63b8ff" stroke="#63b8ff" points="293.04,-133.14 283.22,-129.17 288.42,-138.4 293.04,-133.14"/>
</a>
</g>
</g>
<!-- Node11&#45;&gt;Node2 -->
<g id="edge14_Node000011_Node000002" class="edge">
<title>Node11&#45;&gt;Node2</title>
<g id="a_edge14_Node000011_Node000002"><a xlink:title=" ">
<path fill="none" stroke="#63b8ff" d="M164.87,-170.06C165.16,-155.49 167.9,-126.58 184,-110 208.89,-84.38 248.12,-73.41 279.5,-68.77"/>
<polygon fill="#63b8ff" stroke="#63b8ff" points="280.35,-72.19 289.81,-67.42 279.44,-65.25 280.35,-72.19"/>
</a>
</g>
</g>
<!-- Node12 -->
<g id="Node000012" class="node">
<title>Node12</title>
<g id="a_Node000012"><a xlink:href="ICollider_8h.html" target="_top" xlink:title="Abstract interface for collision detection shapes.">
<polygon fill="white" stroke="#666666" points="136.5,-129 71.5,-129 71.5,-110 136.5,-110 136.5,-129"/>
<text text-anchor="middle" x="104" y="-117" font-family="Helvetica,sans-Serif" font-size="10.00">ICollider.h</text>
</a>
</g>
</g>
<!-- Node11&#45;&gt;Node12 -->
<g id="edge15_Node000011_Node000012" class="edge">
<title>Node11&#45;&gt;Node12</title>
<g id="a_edge15_Node000011_Node000012"><a xlink:title=" ">
<path fill="none" stroke="#63b8ff" d="M156,-170.37C146.63,-161.38 131.75,-147.11 120.3,-136.14"/>
<polygon fill="#63b8ff" stroke="#63b8ff" points="122.68,-133.56 113.04,-129.17 117.83,-138.62 122.68,-133.56"/>
</a>
</g>
</g>
<!-- Node12&#45;&gt;Node2 -->
<g id="edge16_Node000012_Node000002" class="edge">
<title>Node12&#45;&gt;Node2</title>
<g id="a_edge16_Node000012_Node000002"><a xlink:title=" ">
<path fill="none" stroke="#63b8ff" d="M136.72,-110.79C175.27,-101.71 239.59,-86.56 283.12,-76.31"/>
<polygon fill="#63b8ff" stroke="#63b8ff" points="283.96,-79.71 292.89,-74.01 282.35,-72.89 283.96,-79.71"/>
</a>
</g>
</g>
<!-- Node13 -->
<g id="Node000013" class="node">
<title>Node13</title>
<g id="a_Node000013"><a xlink:title=" ">
<polygon fill="#e0e0e0" stroke="#999999" points="58,-74 0,-74 0,-55 58,-55 58,-74"/>
<text text-anchor="middle" x="29" y="-62" font-family="Helvetica,sans-Serif" font-size="10.00">memory</text>
</a>
</g>
</g>
<!-- Node12&#45;&gt;Node13 -->
<g id="edge17_Node000012_Node000013" class="edge">
<title>Node12&#45;&gt;Node13</title>
<g id="a_edge17_Node000012_Node000013"><a xlink:title=" ">
<path fill="none" stroke="#63b8ff" d="M91.95,-109.98C80.54,-101.92 63.17,-89.65 49.57,-80.03"/>
<polygon fill="#63b8ff" stroke="#63b8ff" points="51.46,-77.08 41.27,-74.17 47.42,-82.8 51.46,-77.08"/>
</a>
</g>
</g>
<!-- Node14 -->
<g id="Node000014" class="node">
<title>Node14</title>
<g id="a_Node000014"><a xlink:title=" ">
<polygon fill="#e0e0e0" stroke="#999999" points="132,-74 76,-74 76,-55 132,-55 132,-74"/>
<text text-anchor="middle" x="104" y="-62" font-family="Helvetica,sans-Serif" font-size="10.00">optional</text>
</a>
</g>
</g>
<!-- Node12&#45;&gt;Node14 -->
<g id="edge18_Node000012_Node000014" class="edge">
<title>Node12&#45;&gt;Node14</title>
<g id="a_edge18_Node000012_Node000014"><a xlink:title=" ">
<path fill="none" stroke="#63b8ff" d="M104,-109.75C104,-102.8 104,-92.85 104,-84.13"/>
<polygon fill="#63b8ff" stroke="#63b8ff" points="107.5,-84.09 104,-74.09 100.5,-84.09 107.5,-84.09"/>
</a>
</g>
</g>
<!-- Node15 -->
<g id="Node000015" class="node">
<title>Node15</title>
<g id="a_Node000015"><a xlink:href="Ray_8h.html" target="_top" xlink:title=" ">
<polygon fill="white" stroke="#666666" points="221.5,-74 150.5,-74 150.5,-55 221.5,-55 221.5,-74"/>
<text text-anchor="middle" x="186" y="-62" font-family="Helvetica,sans-Serif" font-size="10.00">math/Ray.h</text>
</a>
</g>
</g>
<!-- Node12&#45;&gt;Node15 -->
<g id="edge19_Node000012_Node000015" class="edge">
<title>Node12&#45;&gt;Node15</title>
<g id="a_edge19_Node000012_Node000015"><a xlink:title=" ">
<path fill="none" stroke="#63b8ff" d="M117.17,-109.98C129.77,-101.84 149,-89.41 163.94,-79.76"/>
<polygon fill="#63b8ff" stroke="#63b8ff" points="166.09,-82.54 172.59,-74.17 162.29,-76.66 166.09,-82.54"/>
</a>
</g>
</g>
<!-- Node16 -->
<g id="Node000016" class="node">
<title>Node16</title>
<g id="a_Node000016"><a xlink:title=" ">
<polygon fill="#e0e0e0" stroke="#999999" points="227.5,-19 144.5,-19 144.5,0 227.5,0 227.5,-19"/>
<text text-anchor="middle" x="186" y="-7" font-family="Helvetica,sans-Serif" font-size="10.00">glm/vec3.hpp</text>
</a>
</g>
</g>
<!-- Node15&#45;&gt;Node16 -->
<g id="edge20_Node000015_Node000016" class="edge">
<title>Node15&#45;&gt;Node16</title>
<g id="a_edge20_Node000015_Node000016"><a xlink:title=" ">
<path fill="none" stroke="#63b8ff" d="M186,-54.75C186,-47.8 186,-37.85 186,-29.13"/>
<polygon fill="#63b8ff" stroke="#63b8ff" points="189.5,-29.09 186,-19.09 182.5,-29.09 189.5,-29.09"/>
</a>
</g>
</g>
<!-- Node17&#45;&gt;Node2 -->
<g id="edge22_Node000017_Node000002" class="edge">
<title>Node17&#45;&gt;Node2</title>
<g id="a_edge22_Node000017_Node000002"><a xlink:title=" ">
<path fill="none" stroke="#63b8ff" d="M281.16,-109.98C289.5,-102.23 302.03,-90.58 312.18,-81.14"/>
<polygon fill="#63b8ff" stroke="#63b8ff" points="314.74,-83.54 319.68,-74.17 309.97,-78.42 314.74,-83.54"/>
</a>
</g>
</g>
</g>
</svg>

<g id="navigator" transform="translate(0 0)" fill="#404254">
  <rect fill="#f2f5e9" fill-opacity="0.5" stroke="#606060" stroke-width=".5" x="0" y="0" width="60" height="60"/>
  <use id="zoomplus" xlink:href="#zoomPlus" x="17" y="9" onmousedown="handleZoom(evt,'in')"/>
  <use id="zoomminus" xlink:href="#zoomMin" x="42" y="9" onmousedown="handleZoom(evt,'out')"/>
  <use id="reset" xlink:href="#resetDef" x="30" y="36" onmousedown="handleReset()"/>
   <use id="arrowup" xlink:href="#arrowUp" x="0" y="0" onmousedown="handlePan(0,-1)"/>
  <use id="arrowright" xlink:href="#arrowRight" x="0" y="0" onmousedown="handlePan(1,0)"/>
  <use id="arrowdown" xlink:href="#arrowDown" x="0" y="0" onmousedown="handlePan(0,1)"/>
  <use id="arrowleft" xlink:href="#arrowLeft" x="0" y="0" onmousedown="handlePan(-1,0)"/>
</g>
<svg viewBox="0 0 15 15" width="100%" height="30px" preserveAspectRatio="xMaxYMin meet">
 <g id="arrow_out" transform="scale(0.3 0.3)">
  <a xlink:href="RotateHandle_8h__incl_org.svg" target="_base">
   <rect id="button" ry="5" rx="5" y="6" x="6" height="38" width="38"
        fill="#f2f5e9" fill-opacity="0.5" stroke="#606060" stroke-width="1.0"/>
   <path id="arrow"
     d="M 11.500037,31.436501 C 11.940474,20.09759 22.043105,11.32322 32.158766,21.979434 L 37.068811,17.246167 C 37.068811,17.246167 37.088388,32 37.088388,32 L 22.160133,31.978069 C 22.160133,31.978069 26.997745,27.140456 26.997745,27.140456 C 18.528582,18.264221 13.291696,25.230495 11.500037,31.436501 z"
     style="fill:#404040;"/>
  </a>
 </g>
</svg>

<style type='text/css'>
<![CDATA[
[data-mouse-over-selected='false'] { opacity: 0.7; }
[data-mouse-over-selected='true']  { opacity: 1.0; }
]]>
</style>
<script type="application/ecmascript"><![CDATA[
document.addEventListener('DOMContentLoaded', (event) => {
  highlightEdges();
  highlightAdjacentNodes();
});
]]></script>
</svg>
