<?xml version="1.0" encoding="UTF-8" standalone="no"?>
<!DOCTYPE svg PUBLIC "-//W3C//DTD SVG 1.1//EN"
 "http://www.w3.org/Graphics/SVG/1.1/DTD/svg11.dtd">
<!-- Generated by graphviz version 2.43.0 (0)
 -->
<!-- Title: src/graphics/components/RotateHandle.h Pages: 1 -->
<svg width="685pt" height="390pt"
 viewBox="0.00 0.00 685.00 390.00" xmlns="http://www.w3.org/2000/svg" xmlns:xlink="http://www.w3.org/1999/xlink">
<g id="graph0" class="graph" transform="scale(1 1) rotate(0) translate(4 386)">
<title>src/graphics/components/RotateHandle.h</title>
<!-- Node1 -->
<g id="Node000001" class="node">
<title>Node1</title>
<g id="a_Node000001"><a xlink:title=" ">
<polygon fill="#999999" stroke="#666666" points="482.5,-382 344.5,-382 344.5,-352 482.5,-352 482.5,-382"/>
<text text-anchor="start" x="352.5" y="-370" font-family="Helvetica,sans-Serif" font-size="10.00">src/graphics/components</text>
<text text-anchor="middle" x="413.5" y="-359" font-family="Helvetica,sans-Serif" font-size="10.00">/RotateHandle.h</text>
</a>
</g>
</g>
<!-- Node2 -->
<g id="Node000002" class="node">
<title>Node2</title>
<g id="a_Node000002"><a xlink:href="Mesh_8h.html" target="_top" xlink:title=" ">
<polygon fill="white" stroke="#666666" points="234,-206 113,-206 113,-176 234,-176 234,-206"/>
<text text-anchor="start" x="121" y="-194" font-family="Helvetica,sans-Serif" font-size="10.00">graphics/components</text>
<text text-anchor="middle" x="173.5" y="-183" font-family="Helvetica,sans-Serif" font-size="10.00">/Mesh.h</text>
</a>
</g>
</g>
<!-- Node1&#45;&gt;Node2 -->
<g id="edge1_Node000001_Node000002" class="edge">
<title>Node1&#45;&gt;Node2</title>
<g id="a_edge1_Node000001_Node000002"><a xlink:title=" ">
<path fill="none" stroke="#63b8ff" d="M366.58,-351.99C342.87,-343.65 314.37,-331.63 291.5,-316 249.44,-287.25 210.79,-241.39 189.85,-214.24"/>
<polygon fill="#63b8ff" stroke="#63b8ff" points="192.52,-211.97 183.69,-206.12 186.95,-216.2 192.52,-211.97"/>
</a>
</g>
</g>
<!-- Node5 -->
<g id="Node000005" class="node">
<title>Node5</title>
<g id="a_Node000005"><a xlink:title=" ">
<polygon fill="#e0e0e0" stroke="#999999" points="273.5,-19 195.5,-19 195.5,0 273.5,0 273.5,-19"/>
<text text-anchor="middle" x="234.5" y="-7" font-family="Helvetica,sans-Serif" font-size="10.00">glm/glm.hpp</text>
</a>
</g>
</g>
<!-- Node1&#45;&gt;Node5 -->
<g id="edge9_Node000001_Node000005" class="edge">
<title>Node1&#45;&gt;Node5</title>
<g id="a_edge9_Node000001_Node000005"><a xlink:title=" ">
<path fill="none" stroke="#63b8ff" d="M437.72,-351.7C466.16,-332.87 509.5,-296.89 509.5,-252.5 509.5,-252.5 509.5,-252.5 509.5,-124 509.5,-27.49 362.98,-11.4 283.84,-9.75"/>
<polygon fill="#63b8ff" stroke="#63b8ff" points="283.66,-6.24 273.61,-9.6 283.56,-13.24 283.66,-6.24"/>
</a>
</g>
</g>
<!-- Node8 -->
<g id="Node000008" class="node">
<title>Node8</title>
<g id="a_Node000008"><a xlink:title=" ">
<polygon fill="#e0e0e0" stroke="#999999" points="677,-316 538,-316 538,-297 677,-297 677,-316"/>
<text text-anchor="middle" x="607.5" y="-304" font-family="Helvetica,sans-Serif" font-size="10.00">glm/detail/type_quat.hpp</text>
</a>
</g>
</g>
<!-- Node1&#45;&gt;Node8 -->
<g id="edge10_Node000001_Node000008" class="edge">
<title>Node1&#45;&gt;Node8</title>
<g id="a_edge10_Node000001_Node000008"><a xlink:title=" ">
<path fill="none" stroke="#63b8ff" d="M459.97,-351.99C493.45,-341.89 538.07,-328.44 569.44,-318.98"/>
<polygon fill="#63b8ff" stroke="#63b8ff" points="570.57,-322.29 579.13,-316.05 568.55,-315.59 570.57,-322.29"/>
</a>
</g>
</g>
<!-- Node9 -->
<g id="Node000009" class="node">
<title>Node9</title>
<g id="a_Node000009"><a xlink:href="Shader_8h.html" target="_top" xlink:title=" ">
<polygon fill="white" stroke="#666666" points="474,-206 353,-206 353,-176 474,-176 474,-206"/>
<text text-anchor="start" x="361" y="-194" font-family="Helvetica,sans-Serif" font-size="10.00">graphics/components</text>
<text text-anchor="middle" x="413.5" y="-183" font-family="Helvetica,sans-Serif" font-size="10.00">/Shader.h</text>
</a>
</g>
</g>
<!-- Node1&#45;&gt;Node9 -->
<g id="edge11_Node000001_Node000009" class="edge">
<title>Node1&#45;&gt;Node9</title>
<g id="a_edge11_Node000001_Node000009"><a xlink:title=" ">
<path fill="none" stroke="#63b8ff" d="M413.5,-351.76C413.5,-322.19 413.5,-253.82 413.5,-216.83"/>
<polygon fill="#63b8ff" stroke="#63b8ff" points="417,-216.44 413.5,-206.44 410,-216.44 417,-216.44"/>
</a>
</g>
</g>
<!-- Node11 -->
<g id="Node000011" class="node">
<title>Node11</title>
<g id="a_Node000011"><a xlink:href="IHandle_8h.html" target="_top" xlink:title=" ">
<polygon fill="white" stroke="#666666" points="364,-316 301,-316 301,-297 364,-297 364,-316"/>
<text text-anchor="middle" x="332.5" y="-304" font-family="Helvetica,sans-Serif" font-size="10.00">IHandle.h</text>
</a>
</g>
</g>
<!-- Node1&#45;&gt;Node11 -->
<g id="edge15_Node000001_Node000011" class="edge">
<title>Node1&#45;&gt;Node11</title>
<g id="a_edge15_Node000001_Node000011"><a xlink:title=" ">
<path fill="none" stroke="#63b8ff" d="M393.89,-351.84C381.53,-342.91 365.6,-331.41 353.07,-322.35"/>
<polygon fill="#63b8ff" stroke="#63b8ff" points="354.79,-319.28 344.64,-316.27 350.7,-324.96 354.79,-319.28"/>
</a>
</g>
</g>
<!-- Node3 -->
<g id="Node000003" class="node">
<title>Node3</title>
<g id="a_Node000003"><a xlink:title=" ">
<polygon fill="#e0e0e0" stroke="#999999" points="381.5,-140 261.5,-140 261.5,-110 381.5,-110 381.5,-140"/>
<text text-anchor="start" x="269.5" y="-128" font-family="Helvetica,sans-Serif" font-size="10.00">QOpenGLFunctions_4</text>
<text text-anchor="middle" x="321.5" y="-117" font-family="Helvetica,sans-Serif" font-size="10.00">_5_Core</text>
</a>
</g>
</g>
<!-- Node2&#45;&gt;Node3 -->
<g id="edge2_Node000002_Node000003" class="edge">
<title>Node2&#45;&gt;Node3</title>
<g id="a_edge2_Node000002_Node000003"><a xlink:title=" ">
<path fill="none" stroke="#63b8ff" d="M205.98,-175.95C227.67,-166.58 256.39,-154.16 279.77,-144.05"/>
<polygon fill="#63b8ff" stroke="#63b8ff" points="281.31,-147.19 289.1,-140.01 278.53,-140.77 281.31,-147.19"/>
</a>
</g>
</g>
<!-- Node4 -->
<g id="Node000004" class="node">
<title>Node4</title>
<g id="a_Node000004"><a xlink:title=" ">
<polygon fill="#e0e0e0" stroke="#999999" points="47,-134.5 0,-134.5 0,-115.5 47,-115.5 47,-134.5"/>
<text text-anchor="middle" x="23.5" y="-122.5" font-family="Helvetica,sans-Serif" font-size="10.00">vector</text>
</a>
</g>
</g>
<!-- Node2&#45;&gt;Node4 -->
<g id="edge3_Node000002_Node000004" class="edge">
<title>Node2&#45;&gt;Node4</title>
<g id="a_edge3_Node000002_Node000004"><a xlink:title=" ">
<path fill="none" stroke="#63b8ff" d="M140.58,-175.95C114.39,-164.78 78.08,-149.29 52.87,-138.53"/>
<polygon fill="#63b8ff" stroke="#63b8ff" points="54.03,-135.22 43.46,-134.52 51.29,-141.66 54.03,-135.22"/>
</a>
</g>
</g>
<!-- Node2&#45;&gt;Node5 -->
<g id="edge4_Node000002_Node000005" class="edge">
<title>Node2&#45;&gt;Node5</title>
<g id="a_edge4_Node000002_Node000005"><a xlink:title=" ">
<path fill="none" stroke="#63b8ff" d="M135.78,-175.88C120.07,-167.9 103.42,-156.21 94.5,-140 88.07,-128.32 88.38,-121.85 94.5,-110 116.84,-66.71 167.69,-38.15 201.55,-23.15"/>
<polygon fill="#63b8ff" stroke="#63b8ff" points="203.22,-26.25 211.04,-19.1 200.47,-19.81 203.22,-26.25"/>
</a>
</g>
</g>
<!-- Node6 -->
<g id="Node000006" class="node">
<title>Node6</title>
<g id="a_Node000006"><a xlink:href="AABB_8h.html" target="_top" xlink:title=" ">
<polygon fill="white" stroke="#666666" points="243.5,-134.5 103.5,-134.5 103.5,-115.5 243.5,-115.5 243.5,-134.5"/>
<text text-anchor="middle" x="173.5" y="-122.5" font-family="Helvetica,sans-Serif" font-size="10.00">physics/bounding/AABB.h</text>
</a>
</g>
</g>
<!-- Node2&#45;&gt;Node6 -->
<g id="edge5_Node000002_Node000006" class="edge">
<title>Node2&#45;&gt;Node6</title>
<g id="a_edge5_Node000002_Node000006"><a xlink:title=" ">
<path fill="none" stroke="#63b8ff" d="M173.5,-175.8C173.5,-166.7 173.5,-154.79 173.5,-144.9"/>
<polygon fill="#63b8ff" stroke="#63b8ff" points="177,-144.84 173.5,-134.84 170,-144.84 177,-144.84"/>
</a>
</g>
</g>
<!-- Node6&#45;&gt;Node5 -->
<g id="edge6_Node000006_Node000005" class="edge">
<title>Node6&#45;&gt;Node5</title>
<g id="a_edge6_Node000006_Node000005"><a xlink:title=" ">
<path fill="none" stroke="#63b8ff" d="M174.5,-115.42C176.38,-101.85 181.29,-74.92 192.5,-55 198.58,-44.2 207.85,-33.99 216.13,-26.09"/>
<polygon fill="#63b8ff" stroke="#63b8ff" points="218.58,-28.59 223.63,-19.27 213.88,-23.41 218.58,-28.59"/>
</a>
</g>
</g>
<!-- Node7 -->
<g id="Node000007" class="node">
<title>Node7</title>
<g id="a_Node000007"><a xlink:href="ICollider_8h.html" target="_top" xlink:title=" ">
<polygon fill="white" stroke="#666666" points="267,-74 202,-74 202,-55 267,-55 267,-74"/>
<text text-anchor="middle" x="234.5" y="-62" font-family="Helvetica,sans-Serif" font-size="10.00">ICollider.h</text>
</a>
</g>
</g>
<!-- Node6&#45;&gt;Node7 -->
<g id="edge7_Node000006_Node000007" class="edge">
<title>Node6&#45;&gt;Node7</title>
<g id="a_edge7_Node000006_Node000007"><a xlink:title=" ">
<path fill="none" stroke="#63b8ff" d="M182.5,-115.37C191.87,-106.38 206.75,-92.11 218.2,-81.14"/>
<polygon fill="#63b8ff" stroke="#63b8ff" points="220.67,-83.62 225.46,-74.17 215.82,-78.56 220.67,-83.62"/>
</a>
</g>
</g>
<!-- Node7&#45;&gt;Node5 -->
<g id="edge8_Node000007_Node000005" class="edge">
<title>Node7&#45;&gt;Node5</title>
<g id="a_edge8_Node000007_Node000005"><a xlink:title=" ">
<path fill="none" stroke="#63b8ff" d="M234.5,-54.75C234.5,-47.8 234.5,-37.85 234.5,-29.13"/>
<polygon fill="#63b8ff" stroke="#63b8ff" points="238,-29.09 234.5,-19.09 231,-29.09 238,-29.09"/>
</a>
</g>
</g>
<!-- Node9&#45;&gt;Node3 -->
<g id="edge14_Node000009_Node000003" class="edge">
<title>Node9&#45;&gt;Node3</title>
<g id="a_edge14_Node000009_Node000003"><a xlink:title=" ">
<path fill="none" stroke="#63b8ff" d="M393.08,-175.8C380.46,-167.01 364.06,-155.61 350.15,-145.93"/>
<polygon fill="#63b8ff" stroke="#63b8ff" points="352.07,-143 341.86,-140.16 348.07,-148.75 352.07,-143"/>
</a>
</g>
</g>
<!-- Node9&#45;&gt;Node5 -->
<g id="edge13_Node000009_Node000005" class="edge">
<title>Node9&#45;&gt;Node5</title>
<g id="a_edge13_Node000009_Node000005"><a xlink:title=" ">
<path fill="none" stroke="#63b8ff" d="M412.47,-175.95C410.58,-158.84 405.29,-129.8 390.5,-110 358.61,-67.3 302.54,-38.16 267.02,-22.93"/>
<polygon fill="#63b8ff" stroke="#63b8ff" points="268.16,-19.62 257.58,-19.01 265.47,-26.08 268.16,-19.62"/>
</a>
</g>
</g>
<!-- Node10 -->
<g id="Node000010" class="node">
<title>Node10</title>
<g id="a_Node000010"><a xlink:title=" ">
<polygon fill="#e0e0e0" stroke="#999999" points="481.5,-134.5 437.5,-134.5 437.5,-115.5 481.5,-115.5 481.5,-134.5"/>
<text text-anchor="middle" x="459.5" y="-122.5" font-family="Helvetica,sans-Serif" font-size="10.00">string</text>
</a>
</g>
</g>
<!-- Node9&#45;&gt;Node10 -->
<g id="edge12_Node000009_Node000010" class="edge">
<title>Node9&#45;&gt;Node10</title>
<g id="a_edge12_Node000009_Node000010"><a xlink:title=" ">
<path fill="none" stroke="#63b8ff" d="M423.71,-175.8C430.67,-166.11 439.92,-153.24 447.27,-143.01"/>
<polygon fill="#63b8ff" stroke="#63b8ff" points="450.15,-145.01 453.14,-134.84 444.46,-140.92 450.15,-145.01"/>
</a>
</g>
</g>
<!-- Node12 -->
<g id="Node000012" class="node">
<title>Node12</title>
<g id="a_Node000012"><a xlink:href="IDrawable_8h.html" target="_top" xlink:title=" ">
<polygon fill="white" stroke="#666666" points="366.5,-261 258.5,-261 258.5,-242 366.5,-242 366.5,-261"/>
<text text-anchor="middle" x="312.5" y="-249" font-family="Helvetica,sans-Serif" font-size="10.00">../core/IDrawable.h</text>
</a>
</g>
</g>
<!-- Node11&#45;&gt;Node12 -->
<g id="edge16_Node000011_Node000012" class="edge">
<title>Node11&#45;&gt;Node12</title>
<g id="a_edge16_Node000011_Node000012"><a xlink:title=" ">
<path fill="none" stroke="#63b8ff" d="M329.2,-296.75C326.52,-289.65 322.65,-279.4 319.31,-270.56"/>
<polygon fill="#63b8ff" stroke="#63b8ff" points="322.55,-269.21 315.74,-261.09 316,-271.68 322.55,-269.21"/>
</a>
</g>
</g>
<!-- Node12&#45;&gt;Node2 -->
<g id="edge19_Node000012_Node000002" class="edge">
<title>Node12&#45;&gt;Node2</title>
<g id="a_edge19_Node000012_Node000002"><a xlink:title=" ">
<path fill="none" stroke="#63b8ff" d="M292.29,-241.99C272.46,-233.65 241.6,-220.66 216.31,-210.02"/>
<polygon fill="#63b8ff" stroke="#63b8ff" points="217.49,-206.72 206.92,-206.06 214.78,-213.17 217.49,-206.72"/>
</a>
</g>
</g>
<!-- Node12&#45;&gt;Node9 -->
<g id="edge18_Node000012_Node000009" class="edge">
<title>Node12&#45;&gt;Node9</title>
<g id="a_edge18_Node000012_Node000009"><a xlink:title=" ">
<path fill="none" stroke="#63b8ff" d="M327.4,-241.87C341.23,-233.86 362.31,-221.65 380.15,-211.31"/>
<polygon fill="#63b8ff" stroke="#63b8ff" points="382.23,-214.16 389.13,-206.11 378.72,-208.1 382.23,-214.16"/>
</a>
</g>
</g>
<!-- Node13 -->
<g id="Node000013" class="node">
<title>Node13</title>
<g id="a_Node000013"><a xlink:title=" ">
<polygon fill="#e0e0e0" stroke="#999999" points="335,-200.5 252,-200.5 252,-181.5 335,-181.5 335,-200.5"/>
<text text-anchor="middle" x="293.5" y="-188.5" font-family="Helvetica,sans-Serif" font-size="10.00">glm/vec3.hpp</text>
</a>
</g>
</g>
<!-- Node12&#45;&gt;Node13 -->
<g id="edge17_Node000012_Node000013" class="edge">
<title>Node12&#45;&gt;Node13</title>
<g id="a_edge17_Node000012_Node000013"><a xlink:title=" ">
<path fill="none" stroke="#63b8ff" d="M309.7,-241.87C307,-233.57 302.85,-220.78 299.42,-210.22"/>
<polygon fill="#63b8ff" stroke="#63b8ff" points="302.73,-209.1 296.32,-200.67 296.08,-211.26 302.73,-209.1"/>
</a>
</g>
</g>
</g>
</svg>
