<?xml version="1.0" encoding="UTF-8" standalone="no"?>
<!DOCTYPE svg PUBLIC "-//W3C//DTD SVG 1.1//EN"
 "http://www.w3.org/Graphics/SVG/1.1/DTD/svg11.dtd">
<!-- Generated by graphviz version 2.43.0 (0)
 -->
<!-- Title: src/graphics/core/SceneManager.h Pages: 1 -->
<!--zoomable 214 -->

<svg id="main" version="1.1" xmlns="http://www.w3.org/2000/svg" xmlns:xlink="http://www.w3.org/1999/xlink" xml:space="preserve" onload="init(evt)">
<style type="text/css"><![CDATA[
.node, .edge {opacity: 0.7;}
.node.selected, .edge.selected {opacity: 1;}
.edge:hover path { stroke: red; }
.edge:hover polygon { stroke: red; fill: red; }
]]></style>

<defs>
  <circle id="rim" cx="0" cy="0" r="7"/>
  <circle id="rim2" cx="0" cy="0" r="3.5"/>
  <g id="zoomPlus">
    <use xlink:href="#rim" fill="#404040"><set attributeName="fill" to="#808080" begin="zoomplus.mouseover" end="zoomplus.mouseout"/></use>
    <path d="M-4,0h8M0,-4v8" fill="none" stroke="white" stroke-width="1.5" pointer-events="none"/>
  </g>
  <g id="zoomMin">
    <use xlink:href="#rim" fill="#404040"><set attributeName="fill" to="#808080" begin="zoomminus.mouseover" end="zoomminus.mouseout"/></use>
    <path d="M-4,0h8" fill="none" stroke="white" stroke-width="1.5" pointer-events="none"/>
  </g>
  <g id="arrowUp" transform="translate(30 24)">
    <use xlink:href="#rim"/>
    <path pointer-events="none" fill="none" stroke="white" stroke-width="1.5" d="M0,-3.0v7 M-2.5,-0.5L0,-3.0L2.5,-0.5"/>
  </g>
  <g id="arrowRight" transform="rotate(90) translate(36 -43)">
    <use xlink:href="#rim"/>
    <path pointer-events="none" fill="none" stroke="white" stroke-width="1.5" d="M0,-3.0v7 M-2.5,-0.5L0,-3.0L2.5,-0.5"/>
  </g>
  <g id="arrowDown" transform="rotate(180) translate(-30 -48)">
    <use xlink:href="#rim"/>
    <path pointer-events="none" fill="none" stroke="white" stroke-width="1.5" d="M0,-3.0v7 M-2.5,-0.5L0,-3.0L2.5,-0.5"/>
  </g>
  <g id="arrowLeft" transform="rotate(270) translate(-36 17)">
    <use xlink:href="#rim"/>
    <path pointer-events="none" fill="none" stroke="white" stroke-width="1.5" d="M0,-3.0v7 M-2.5,-0.5L0,-3.0L2.5,-0.5"/>
  </g>
  <g id="resetDef">
    <use xlink:href="#rim2" fill="#404040"><set attributeName="fill" to="#808080" begin="reset.mouseover" end="reset.mouseout"/></use>
  </g>
</defs>
<script type="application/ecmascript">
var viewWidth = 3414;
var viewHeight = 214;
var sectionId = 'dynsection-1';
</script>
<script type="application/ecmascript" xlink:href="svg.min.js"/>
<svg id="graph" class="graph">
<g id="viewport">
<title>src/graphics/core/SceneManager.h</title>
<!-- Node1 -->
<g id="Node000001" class="node">
<title>Node1</title>
<g id="a_Node000001"><a xlink:title=" ">
<polygon fill="#999999" stroke="#666666" points="2654.3,-206 2472.3,-206 2472.3,-187 2654.3,-187 2654.3,-206"/>
<text text-anchor="middle" x="2563.3" y="-194" font-family="Helvetica,sans-Serif" font-size="10.00">src/graphics/core/SceneManager.h</text>
</a>
</g>
</g>
<!-- Node2 -->
<g id="Node000002" class="node">
<title>Node2</title>
<g id="a_Node000002"><a xlink:href="Gizmo_8cpp.html" target="_top" xlink:title=" ">
<polygon fill="white" stroke="#666666" points="432.3,-30 294.3,-30 294.3,0 432.3,0 432.3,-30"/>
<text text-anchor="start" x="302.3" y="-18" font-family="Helvetica,sans-Serif" font-size="10.00">src/graphics/components</text>
<text text-anchor="middle" x="363.3" y="-7" font-family="Helvetica,sans-Serif" font-size="10.00">/Gizmo.cpp</text>
</a>
</g>
</g>
<!-- Node1&#45;&gt;Node2 -->
<g id="edge1_Node000001_Node000002" class="edge">
<title>Node1&#45;&gt;Node2</title>
<g id="a_edge1_Node000001_Node000002"><a xlink:title=" ">
<path fill="none" stroke="#63b8ff" d="M2462.02,-195.28C2037.24,-194.13 410.93,-187.39 184.3,-151 102.55,-137.87 55.45,-162.63 6.3,-96 -1.61,-85.27 -2.45,-76.06 6.3,-66 42.85,-23.97 201.17,-16.22 294.25,-15.39"/>
<polygon fill="#63b8ff" stroke="#63b8ff" points="2462.12,-198.78 2472.13,-195.31 2462.14,-191.78 2462.12,-198.78"/>
</a>
</g>
</g>
<!-- Node3 -->
<g id="Node000003" class="node">
<title>Node3</title>
<g id="a_Node000003"><a xlink:href="SceneManager_8cpp.html" target="_top" xlink:title=" ">
<polygon fill="white" stroke="#666666" points="1519.3,-24.5 1325.3,-24.5 1325.3,-5.5 1519.3,-5.5 1519.3,-24.5"/>
<text text-anchor="middle" x="1422.3" y="-12.5" font-family="Helvetica,sans-Serif" font-size="10.00">src/graphics/core/SceneManager.cpp</text>
</a>
</g>
</g>
<!-- Node1&#45;&gt;Node3 -->
<g id="edge2_Node000001_Node000003" class="edge">
<title>Node1&#45;&gt;Node3</title>
<g id="a_edge2_Node000001_Node000003"><a xlink:title=" ">
<path fill="none" stroke="#63b8ff" d="M2462.24,-195.53C1999.26,-195.17 99.81,-188.08 16.3,-96 7.34,-86.12 7.04,-75.59 16.3,-66 39.04,-42.44 1010.77,-23.26 1325.23,-17.66"/>
<polygon fill="#63b8ff" stroke="#63b8ff" points="2462.25,-199.03 2472.25,-195.54 2462.25,-192.03 2462.25,-199.03"/>
</a>
</g>
</g>
<!-- Node4 -->
<g id="Node000004" class="node">
<title>Node4</title>
<g id="a_Node000004"><a xlink:href="SceneObject_8cpp.html" target="_top" xlink:title=" ">
<polygon fill="white" stroke="#666666" points="208.8,-90.5 25.8,-90.5 25.8,-71.5 208.8,-71.5 208.8,-90.5"/>
<text text-anchor="middle" x="117.3" y="-78.5" font-family="Helvetica,sans-Serif" font-size="10.00">src/graphics/core/SceneObject.cpp</text>
</a>
</g>
</g>
<!-- Node1&#45;&gt;Node4 -->
<g id="edge3_Node000001_Node000004" class="edge">
<title>Node1&#45;&gt;Node4</title>
<g id="a_edge3_Node000001_Node000004"><a xlink:title=" ">
<path fill="none" stroke="#63b8ff" d="M2461.76,-194.81C2199.72,-192.6 1479.35,-183.78 880.3,-151 585.51,-134.87 511.74,-128.5 218.3,-96 204.14,-94.43 188.89,-92.46 174.65,-90.51"/>
<polygon fill="#63b8ff" stroke="#63b8ff" points="2461.98,-198.31 2472.01,-194.9 2462.04,-191.31 2461.98,-198.31"/>
</a>
</g>
</g>
<!-- Node5 -->
<g id="Node000005" class="node">
<title>Node5</title>
<g id="a_Node000005"><a xlink:href="SceneObject_8h.html" target="_top" xlink:title=" ">
<polygon fill="white" stroke="#666666" points="1631.3,-151 1459.3,-151 1459.3,-132 1631.3,-132 1631.3,-151"/>
<text text-anchor="middle" x="1545.3" y="-139" font-family="Helvetica,sans-Serif" font-size="10.00">src/graphics/core/SceneObject.h</text>
</a>
</g>
</g>
<!-- Node1&#45;&gt;Node5 -->
<g id="edge4_Node000001_Node000005" class="edge">
<title>Node1&#45;&gt;Node5</title>
<g id="a_edge4_Node000001_Node000005"><a xlink:title=" ">
<path fill="none" stroke="#63b8ff" d="M2461.84,-190.22C2261.63,-179.79 1818.89,-156.74 1631.63,-146.99"/>
<polygon fill="#63b8ff" stroke="#63b8ff" points="2461.9,-193.73 2472.06,-190.75 2462.26,-186.73 2461.9,-193.73"/>
</a>
</g>
</g>
<!-- Node13 -->
<g id="Node000013" class="node">
<title>Node13</title>
<g id="a_Node000013"><a xlink:href="Colliders_8cpp.html" target="_top" xlink:title=" ">
<polygon fill="white" stroke="#666666" points="335.3,-96 227.3,-96 227.3,-66 335.3,-66 335.3,-96"/>
<text text-anchor="start" x="235.3" y="-84" font-family="Helvetica,sans-Serif" font-size="10.00">src/graphics/debug</text>
<text text-anchor="middle" x="281.3" y="-73" font-family="Helvetica,sans-Serif" font-size="10.00">/Colliders.cpp</text>
</a>
</g>
</g>
<!-- Node1&#45;&gt;Node13 -->
<g id="edge38_Node000001_Node000013" class="edge">
<title>Node1&#45;&gt;Node13</title>
<g id="a_edge38_Node000001_Node000013"><a xlink:title=" ">
<path fill="none" stroke="#63b8ff" d="M2462.18,-192.73C2087.25,-182.16 776.78,-142.67 361.3,-96 352.89,-95.06 344.03,-93.78 335.39,-92.39"/>
<polygon fill="#63b8ff" stroke="#63b8ff" points="2462.11,-196.22 2472.2,-193.01 2462.3,-189.23 2462.11,-196.22"/>
</a>
</g>
</g>
<!-- Node15 -->
<g id="Node000015" class="node">
<title>Node15</title>
<g id="a_Node000015"><a xlink:href="Forces_8cpp.html" target="_top" xlink:title=" ">
<polygon fill="white" stroke="#666666" points="2886.3,-30 2778.3,-30 2778.3,0 2886.3,0 2886.3,-30"/>
<text text-anchor="start" x="2786.3" y="-18" font-family="Helvetica,sans-Serif" font-size="10.00">src/graphics/debug</text>
<text text-anchor="middle" x="2832.3" y="-7" font-family="Helvetica,sans-Serif" font-size="10.00">/Forces.cpp</text>
</a>
</g>
</g>
<!-- Node1&#45;&gt;Node15 -->
<g id="edge39_Node000001_Node000015" class="edge">
<title>Node1&#45;&gt;Node15</title>
<g id="a_edge39_Node000001_Node000015"><a xlink:title=" ">
<path fill="none" stroke="#63b8ff" d="M2664.61,-196.25C2843.03,-196.49 3198.13,-191.78 3236.3,-151 3262.12,-123.42 3261.32,-94.31 3236.3,-66 3213.51,-40.22 2991.59,-24.73 2886.7,-18.79"/>
<polygon fill="#63b8ff" stroke="#63b8ff" points="2664.43,-192.75 2654.42,-196.23 2664.42,-199.75 2664.43,-192.75"/>
</a>
</g>
</g>
<!-- Node16 -->
<g id="Node000016" class="node">
<title>Node16</title>
<g id="a_Node000016"><a xlink:href="PathTraces_8cpp.html" target="_top" xlink:title=" ">
<polygon fill="white" stroke="#666666" points="1645.3,-30 1537.3,-30 1537.3,0 1645.3,0 1645.3,-30"/>
<text text-anchor="start" x="1545.3" y="-18" font-family="Helvetica,sans-Serif" font-size="10.00">src/graphics/debug</text>
<text text-anchor="middle" x="1591.3" y="-7" font-family="Helvetica,sans-Serif" font-size="10.00">/PathTraces.cpp</text>
</a>
</g>
</g>
<!-- Node1&#45;&gt;Node16 -->
<g id="edge40_Node000001_Node000016" class="edge">
<title>Node1&#45;&gt;Node16</title>
<g id="a_edge40_Node000001_Node000016"><a xlink:title=" ">
<path fill="none" stroke="#63b8ff" d="M2664.68,-193.65C2824.32,-189.88 3120.23,-179.17 3159.3,-151 3191.05,-128.11 3209.54,-94.1 3182.3,-66 3175.46,-58.94 1922.93,-24.91 1645.35,-17.45"/>
<polygon fill="#63b8ff" stroke="#63b8ff" points="2664.28,-190.16 2654.37,-193.88 2664.44,-197.15 2664.28,-190.16"/>
</a>
</g>
</g>
<!-- Node18 -->
<g id="Node000018" class="node">
<title>Node18</title>
<g id="a_Node000018"><a xlink:href="AstronomyPresets_8cpp.html" target="_top" xlink:title=" ">
<polygon fill="white" stroke="#666666" points="2473.8,-96 2344.8,-96 2344.8,-66 2473.8,-66 2473.8,-96"/>
<text text-anchor="start" x="2352.8" y="-84" font-family="Helvetica,sans-Serif" font-size="10.00">src/graphics/presets</text>
<text text-anchor="middle" x="2409.3" y="-73" font-family="Helvetica,sans-Serif" font-size="10.00">/AstronomyPresets.cpp</text>
</a>
</g>
</g>
<!-- Node1&#45;&gt;Node18 -->
<g id="edge41_Node000001_Node000018" class="edge">
<title>Node1&#45;&gt;Node18</title>
<g id="a_edge41_Node000001_Node000018"><a xlink:title=" ">
<path fill="none" stroke="#63b8ff" d="M2543.38,-180.82C2513.62,-158.88 2457.91,-117.82 2428.54,-96.18"/>
<polygon fill="#63b8ff" stroke="#63b8ff" points="2541.6,-183.85 2551.73,-186.97 2545.75,-178.22 2541.6,-183.85"/>
</a>
</g>
</g>
<!-- Node22 -->
<g id="Node000022" class="node">
<title>Node22</title>
<g id="a_Node000022"><a xlink:href="OpenGLWindow_8cpp.html" target="_top" xlink:title=" ">
<polygon fill="white" stroke="#666666" points="2634.3,-90.5 2492.3,-90.5 2492.3,-71.5 2634.3,-71.5 2634.3,-90.5"/>
<text text-anchor="middle" x="2563.3" y="-78.5" font-family="Helvetica,sans-Serif" font-size="10.00">src/ui/OpenGLWindow.cpp</text>
</a>
</g>
</g>
<!-- Node1&#45;&gt;Node22 -->
<g id="edge45_Node000001_Node000022" class="edge">
<title>Node1&#45;&gt;Node22</title>
<g id="a_edge45_Node000001_Node000022"><a xlink:title=" ">
<path fill="none" stroke="#63b8ff" d="M2563.3,-176.65C2563.3,-151.74 2563.3,-108.88 2563.3,-90.63"/>
<polygon fill="#63b8ff" stroke="#63b8ff" points="2559.8,-176.97 2563.3,-186.97 2566.8,-176.97 2559.8,-176.97"/>
</a>
</g>
</g>
<!-- Node24 -->
<g id="Node000024" class="node">
<title>Node24</title>
<g id="a_Node000024"><a xlink:href="GlobalsInspectorWidget_8cpp.html" target="_top" xlink:title=" ">
<polygon fill="white" stroke="#666666" points="2783.8,-96 2652.8,-96 2652.8,-66 2783.8,-66 2783.8,-96"/>
<text text-anchor="start" x="2660.8" y="-84" font-family="Helvetica,sans-Serif" font-size="10.00">src/ui/inspector/Globals</text>
<text text-anchor="middle" x="2718.3" y="-73" font-family="Helvetica,sans-Serif" font-size="10.00">InspectorWidget.cpp</text>
</a>
</g>
</g>
<!-- Node1&#45;&gt;Node24 -->
<g id="edge46_Node000001_Node000024" class="edge">
<title>Node1&#45;&gt;Node24</title>
<g id="a_edge46_Node000001_Node000024"><a xlink:title=" ">
<path fill="none" stroke="#63b8ff" d="M2583.35,-180.82C2613.31,-158.88 2669.38,-117.82 2698.94,-96.18"/>
<polygon fill="#63b8ff" stroke="#63b8ff" points="2580.95,-178.24 2574.95,-186.97 2585.09,-183.88 2580.95,-178.24"/>
</a>
</g>
</g>
<!-- Node25 -->
<g id="Node000025" class="node">
<title>Node25</title>
<g id="a_Node000025"><a xlink:href="InspectorWidget_8cpp.html" target="_top" xlink:title=" ">
<polygon fill="white" stroke="#666666" points="2940.8,-96 2801.8,-96 2801.8,-66 2940.8,-66 2940.8,-96"/>
<text text-anchor="start" x="2809.8" y="-84" font-family="Helvetica,sans-Serif" font-size="10.00">src/ui/inspector/Inspector</text>
<text text-anchor="middle" x="2871.3" y="-73" font-family="Helvetica,sans-Serif" font-size="10.00">Widget.cpp</text>
</a>
</g>
</g>
<!-- Node1&#45;&gt;Node25 -->
<g id="edge47_Node000001_Node000025" class="edge">
<title>Node1&#45;&gt;Node25</title>
<g id="a_edge47_Node000001_Node000025"><a xlink:title=" ">
<path fill="none" stroke="#63b8ff" d="M2596.11,-183.41C2653.56,-162.24 2772.03,-118.58 2833.08,-96.09"/>
<polygon fill="#63b8ff" stroke="#63b8ff" points="2594.62,-180.23 2586.45,-186.97 2597.04,-186.8 2594.62,-180.23"/>
</a>
</g>
</g>
<!-- Node29 -->
<g id="Node000029" class="node">
<title>Node29</title>
<g id="a_Node000029"><a xlink:href="SceneSerializer_8h.html" target="_top" xlink:title=" ">
<polygon fill="white" stroke="#666666" points="3149.8,-151 2964.8,-151 2964.8,-132 3149.8,-132 3149.8,-151"/>
<text text-anchor="middle" x="3057.3" y="-139" font-family="Helvetica,sans-Serif" font-size="10.00">src/graphics/core/SceneSerializer.h</text>
</a>
</g>
</g>
<!-- Node1&#45;&gt;Node29 -->
<g id="edge35_Node000001_Node000029" class="edge">
<title>Node1&#45;&gt;Node29</title>
<g id="a_edge35_Node000001_Node000029"><a xlink:title=" ">
<path fill="none" stroke="#63b8ff" d="M2652.87,-185.89C2745.55,-175.95 2888.91,-160.57 2977.72,-151.04"/>
<polygon fill="#63b8ff" stroke="#63b8ff" points="2652.24,-182.44 2642.67,-186.98 2652.99,-189.4 2652.24,-182.44"/>
</a>
</g>
</g>
<!-- Node30 -->
<g id="Node000030" class="node">
<title>Node30</title>
<g id="a_Node000030"><a xlink:href="MainWindow_8h.html" target="_top" xlink:title=" ">
<polygon fill="white" stroke="#666666" points="3405.8,-151 3288.8,-151 3288.8,-132 3405.8,-132 3405.8,-151"/>
<text text-anchor="middle" x="3347.3" y="-139" font-family="Helvetica,sans-Serif" font-size="10.00">src/ui/MainWindow.h</text>
</a>
</g>
</g>
<!-- Node1&#45;&gt;Node30 -->
<g id="edge42_Node000001_Node000030" class="edge">
<title>Node1&#45;&gt;Node30</title>
<g id="a_edge42_Node000001_Node000030"><a xlink:title=" ">
<path fill="none" stroke="#63b8ff" d="M2664.47,-190.87C2802.47,-184.17 3057.38,-170.4 3274.3,-151 3279,-150.58 3283.87,-150.1 3288.76,-149.6"/>
<polygon fill="#63b8ff" stroke="#63b8ff" points="2664.15,-187.38 2654.33,-191.36 2664.49,-194.37 2664.15,-187.38"/>
</a>
</g>
</g>
<!-- Node5&#45;&gt;Node2 -->
<g id="edge5_Node000005_Node000002" class="edge">
<title>Node5&#45;&gt;Node2</title>
<g id="a_edge5_Node000005_Node000002"><a xlink:title=" ">
<path fill="none" stroke="#63b8ff" d="M1448.87,-139.96C1177.31,-138.02 423.22,-129.63 382.3,-96 363,-80.14 361.21,-48.58 362.01,-30.19"/>
<polygon fill="#63b8ff" stroke="#63b8ff" points="1449.08,-143.46 1459.1,-140.03 1449.13,-136.46 1449.08,-143.46"/>
</a>
</g>
</g>
<!-- Node5&#45;&gt;Node3 -->
<g id="edge13_Node000005_Node000003" class="edge">
<title>Node5&#45;&gt;Node3</title>
<g id="a_edge13_Node000005_Node000003"><a xlink:title=" ">
<path fill="none" stroke="#63b8ff" d="M1449.7,-129.66C1430.43,-122.92 1412.41,-112.38 1400.3,-96 1383.95,-73.88 1404.24,-40.23 1415.6,-24.57"/>
<polygon fill="#63b8ff" stroke="#63b8ff" points="1448.64,-133 1459.23,-132.67 1450.75,-126.32 1448.64,-133"/>
</a>
</g>
</g>
<!-- Node5&#45;&gt;Node4 -->
<g id="edge14_Node000005_Node000004" class="edge">
<title>Node5&#45;&gt;Node4</title>
<g id="a_edge14_Node000005_Node000004"><a xlink:title=" ">
<path fill="none" stroke="#63b8ff" d="M1448.77,-140.7C1229.61,-140.41 677.81,-135.44 218.3,-96 202.96,-94.68 186.38,-92.64 171.17,-90.53"/>
<polygon fill="#63b8ff" stroke="#63b8ff" points="1448.95,-144.2 1458.95,-140.71 1448.96,-137.2 1448.95,-144.2"/>
</a>
</g>
</g>
<!-- Node6 -->
<g id="Node000006" class="node">
<title>Node6</title>
<g id="a_Node000006"><a xlink:href="RotateHandle_8cpp.html" target="_top" xlink:title=" ">
<polygon fill="white" stroke="#666666" points="847.3,-96 709.3,-96 709.3,-66 847.3,-66 847.3,-96"/>
<text text-anchor="start" x="717.3" y="-84" font-family="Helvetica,sans-Serif" font-size="10.00">src/graphics/components</text>
<text text-anchor="middle" x="778.3" y="-73" font-family="Helvetica,sans-Serif" font-size="10.00">/RotateHandle.cpp</text>
</a>
</g>
</g>
<!-- Node5&#45;&gt;Node6 -->
<g id="edge6_Node000005_Node000006" class="edge">
<title>Node5&#45;&gt;Node6</title>
<g id="a_edge6_Node000005_Node000006"><a xlink:title=" ">
<path fill="none" stroke="#63b8ff" d="M1448.88,-137.71C1315.36,-133.07 1066.79,-121.6 856.3,-96 853.43,-95.65 850.51,-95.27 847.56,-94.85"/>
<polygon fill="#63b8ff" stroke="#63b8ff" points="1448.97,-141.22 1459.08,-138.06 1449.21,-134.22 1448.97,-141.22"/>
</a>
</g>
</g>
<!-- Node7 -->
<g id="Node000007" class="node">
<title>Node7</title>
<g id="a_Node000007"><a xlink:href="ScaleHandle_8h.html" target="_top" xlink:title=" ">
<polygon fill="white" stroke="#666666" points="691.3,-96 553.3,-96 553.3,-66 691.3,-66 691.3,-96"/>
<text text-anchor="start" x="561.3" y="-84" font-family="Helvetica,sans-Serif" font-size="10.00">src/graphics/components</text>
<text text-anchor="middle" x="622.3" y="-73" font-family="Helvetica,sans-Serif" font-size="10.00">/ScaleHandle.h</text>
</a>
</g>
</g>
<!-- Node5&#45;&gt;Node7 -->
<g id="edge7_Node000005_Node000007" class="edge">
<title>Node5&#45;&gt;Node7</title>
<g id="a_edge7_Node000005_Node000007"><a xlink:title=" ">
<path fill="none" stroke="#63b8ff" d="M1449.13,-139.34C1291.98,-136.57 970.55,-127.24 700.3,-96 697.43,-95.67 694.51,-95.3 691.56,-94.89"/>
<polygon fill="#63b8ff" stroke="#63b8ff" points="1449.18,-142.84 1459.24,-139.51 1449.3,-135.84 1449.18,-142.84"/>
</a>
</g>
</g>
<!-- Node9 -->
<g id="Node000009" class="node">
<title>Node9</title>
<g id="a_Node000009"><a xlink:href="TranslateHandle_8cpp.html" target="_top" xlink:title=" ">
<polygon fill="white" stroke="#666666" points="1003.3,-96 865.3,-96 865.3,-66 1003.3,-66 1003.3,-96"/>
<text text-anchor="start" x="873.3" y="-84" font-family="Helvetica,sans-Serif" font-size="10.00">src/graphics/components</text>
<text text-anchor="middle" x="934.3" y="-73" font-family="Helvetica,sans-Serif" font-size="10.00">/TranslateHandle.cpp</text>
</a>
</g>
</g>
<!-- Node5&#45;&gt;Node9 -->
<g id="edge10_Node000005_Node000009" class="edge">
<title>Node5&#45;&gt;Node9</title>
<g id="a_edge10_Node000005_Node000009"><a xlink:title=" ">
<path fill="none" stroke="#63b8ff" d="M1449.06,-135.2C1342.09,-128.68 1164.37,-115.95 1012.3,-96 1009.44,-95.62 1006.52,-95.22 1003.57,-94.78"/>
<polygon fill="#63b8ff" stroke="#63b8ff" points="1448.99,-138.71 1459.18,-135.82 1449.41,-131.72 1448.99,-138.71"/>
</a>
</g>
</g>
<!-- Node10 -->
<g id="Node000010" class="node">
<title>Node10</title>
<g id="a_Node000010"><a xlink:href="Camera_8cpp.html" target="_top" xlink:title=" ">
<polygon fill="white" stroke="#666666" points="1182.8,-90.5 1021.8,-90.5 1021.8,-71.5 1182.8,-71.5 1182.8,-90.5"/>
<text text-anchor="middle" x="1102.3" y="-78.5" font-family="Helvetica,sans-Serif" font-size="10.00">src/graphics/core/Camera.cpp</text>
</a>
</g>
</g>
<!-- Node5&#45;&gt;Node10 -->
<g id="edge11_Node000005_Node000010" class="edge">
<title>Node5&#45;&gt;Node10</title>
<g id="a_edge11_Node000005_Node000010"><a xlink:title=" ">
<path fill="none" stroke="#63b8ff" d="M1462.58,-130.76C1390.98,-122.16 1284.71,-109.01 1192.3,-96 1180.4,-94.32 1167.63,-92.41 1155.56,-90.55"/>
<polygon fill="#63b8ff" stroke="#63b8ff" points="1462.54,-134.28 1472.88,-131.99 1463.37,-127.33 1462.54,-134.28"/>
</a>
</g>
</g>
<!-- Node11 -->
<g id="Node000011" class="node">
<title>Node11</title>
<g id="a_Node000011"><a xlink:href="Scene_8cpp.html" target="_top" xlink:title=" ">
<polygon fill="white" stroke="#666666" points="1353.3,-90.5 1201.3,-90.5 1201.3,-71.5 1353.3,-71.5 1353.3,-90.5"/>
<text text-anchor="middle" x="1277.3" y="-78.5" font-family="Helvetica,sans-Serif" font-size="10.00">src/graphics/core/Scene.cpp</text>
</a>
</g>
</g>
<!-- Node5&#45;&gt;Node11 -->
<g id="edge12_Node000005_Node000011" class="edge">
<title>Node5&#45;&gt;Node11</title>
<g id="a_edge12_Node000005_Node000011"><a xlink:title=" ">
<path fill="none" stroke="#63b8ff" d="M1496.38,-129.82C1444.62,-118.52 1363.98,-100.92 1316.32,-90.52"/>
<polygon fill="#63b8ff" stroke="#63b8ff" points="1495.82,-133.28 1506.33,-131.99 1497.31,-126.44 1495.82,-133.28"/>
</a>
</g>
</g>
<!-- Node12 -->
<g id="Node000012" class="node">
<title>Node12</title>
<g id="a_Node000012"><a xlink:href="SceneSerializer_8cpp.html" target="_top" xlink:title=" ">
<polygon fill="white" stroke="#666666" points="3155.8,-90.5 2958.8,-90.5 2958.8,-71.5 3155.8,-71.5 3155.8,-90.5"/>
<text text-anchor="middle" x="3057.3" y="-78.5" font-family="Helvetica,sans-Serif" font-size="10.00">src/graphics/core/SceneSerializer.cpp</text>
</a>
</g>
</g>
<!-- Node5&#45;&gt;Node12 -->
<g id="edge15_Node000005_Node000012" class="edge">
<title>Node5&#45;&gt;Node12</title>
<g id="a_edge15_Node000005_Node000012"><a xlink:title=" ">
<path fill="none" stroke="#63b8ff" d="M1641.65,-140.71C1869.55,-140.5 2459.49,-135.78 2950.3,-96 2966.55,-94.68 2984.11,-92.64 3000.22,-90.53"/>
<polygon fill="#63b8ff" stroke="#63b8ff" points="1641.4,-137.21 1631.4,-140.72 1641.4,-144.21 1641.4,-137.21"/>
</a>
</g>
</g>
<!-- Node5&#45;&gt;Node13 -->
<g id="edge16_Node000005_Node000013" class="edge">
<title>Node5&#45;&gt;Node13</title>
<g id="a_edge16_Node000005_Node000013"><a xlink:title=" ">
<path fill="none" stroke="#63b8ff" d="M1448.96,-138.98C1203.9,-134.77 561.31,-121.59 349.3,-96 344.75,-95.45 340.06,-94.76 335.36,-93.97"/>
<polygon fill="#63b8ff" stroke="#63b8ff" points="1449.21,-142.48 1459.27,-139.15 1449.33,-135.48 1449.21,-142.48"/>
</a>
</g>
</g>
<!-- Node14 -->
<g id="Node000014" class="node">
<title>Node14</title>
<g id="a_Node000014"><a xlink:href="Forces_8h.html" target="_top" xlink:title=" ">
<polygon fill="white" stroke="#666666" points="2171.3,-96 2063.3,-96 2063.3,-66 2171.3,-66 2171.3,-96"/>
<text text-anchor="start" x="2071.3" y="-84" font-family="Helvetica,sans-Serif" font-size="10.00">src/graphics/debug</text>
<text text-anchor="middle" x="2117.3" y="-73" font-family="Helvetica,sans-Serif" font-size="10.00">/Forces.h</text>
</a>
</g>
</g>
<!-- Node5&#45;&gt;Node14 -->
<g id="edge17_Node000005_Node000014" class="edge">
<title>Node5&#45;&gt;Node14</title>
<g id="a_edge17_Node000005_Node000014"><a xlink:title=" ">
<path fill="none" stroke="#63b8ff" d="M1641.77,-135.85C1744.47,-130.02 1911.55,-118 2054.3,-96 2057.18,-95.56 2060.12,-95.06 2063.09,-94.52"/>
<polygon fill="#63b8ff" stroke="#63b8ff" points="1641.51,-132.36 1631.72,-136.41 1641.9,-139.35 1641.51,-132.36"/>
</a>
</g>
</g>
<!-- Node5&#45;&gt;Node16 -->
<g id="edge20_Node000005_Node000016" class="edge">
<title>Node5&#45;&gt;Node16</title>
<g id="a_edge20_Node000005_Node000016"><a xlink:title=" ">
<path fill="none" stroke="#63b8ff" d="M1548.84,-121.31C1551.98,-106.02 1557.18,-84.23 1564.3,-66 1569.18,-53.5 1576.5,-40.17 1582.28,-30.42"/>
<polygon fill="#63b8ff" stroke="#63b8ff" points="1545.32,-121.08 1546.84,-131.56 1552.19,-122.42 1545.32,-121.08"/>
</a>
</g>
</g>
<!-- Node17 -->
<g id="Node000017" class="node">
<title>Node17</title>
<g id="a_Node000017"><a xlink:href="PathTraces_8h.html" target="_top" xlink:title=" ">
<polygon fill="white" stroke="#666666" points="1517.3,-96 1409.3,-96 1409.3,-66 1517.3,-66 1517.3,-96"/>
<text text-anchor="start" x="1417.3" y="-84" font-family="Helvetica,sans-Serif" font-size="10.00">src/graphics/debug</text>
<text text-anchor="middle" x="1463.3" y="-73" font-family="Helvetica,sans-Serif" font-size="10.00">/PathTraces.h</text>
</a>
</g>
</g>
<!-- Node5&#45;&gt;Node17 -->
<g id="edge21_Node000005_Node000017" class="edge">
<title>Node5&#45;&gt;Node17</title>
<g id="a_edge21_Node000005_Node000017"><a xlink:title=" ">
<path fill="none" stroke="#63b8ff" d="M1525.02,-126.03C1512.23,-116.9 1495.78,-105.17 1483.09,-96.11"/>
<polygon fill="#63b8ff" stroke="#63b8ff" points="1523.03,-128.91 1533.2,-131.87 1527.09,-123.21 1523.03,-128.91"/>
</a>
</g>
</g>
<!-- Node5&#45;&gt;Node18 -->
<g id="edge24_Node000005_Node000018" class="edge">
<title>Node5&#45;&gt;Node18</title>
<g id="a_edge24_Node000005_Node000018"><a xlink:title=" ">
<path fill="none" stroke="#63b8ff" d="M1641.6,-139.13C1790.74,-136.09 2086.38,-126.43 2335.3,-96 2338.29,-95.64 2341.33,-95.22 2344.4,-94.77"/>
<polygon fill="#63b8ff" stroke="#63b8ff" points="1641.48,-135.63 1631.55,-139.33 1641.62,-142.63 1641.48,-135.63"/>
</a>
</g>
</g>
<!-- Node19 -->
<g id="Node000019" class="node">
<title>Node19</title>
<g id="a_Node000019"><a xlink:href="HierarchyWidget_8h.html" target="_top" xlink:title=" ">
<polygon fill="white" stroke="#666666" points="2326.8,-90.5 2189.8,-90.5 2189.8,-71.5 2326.8,-71.5 2326.8,-90.5"/>
<text text-anchor="middle" x="2258.3" y="-78.5" font-family="Helvetica,sans-Serif" font-size="10.00">src/ui/HierarchyWidget.h</text>
</a>
</g>
</g>
<!-- Node5&#45;&gt;Node19 -->
<g id="edge25_Node000005_Node000019" class="edge">
<title>Node5&#45;&gt;Node19</title>
<g id="a_edge25_Node000005_Node000019"><a xlink:title=" ">
<path fill="none" stroke="#63b8ff" d="M1641.62,-136.98C1766.31,-131.68 1990.16,-119.66 2180.3,-96 2191.77,-94.57 2204.11,-92.58 2215.52,-90.53"/>
<polygon fill="#63b8ff" stroke="#63b8ff" points="1641.19,-133.49 1631.35,-137.41 1641.48,-140.49 1641.19,-133.49"/>
</a>
</g>
</g>
<!-- Node5&#45;&gt;Node22 -->
<g id="edge28_Node000005_Node000022" class="edge">
<title>Node5&#45;&gt;Node22</title>
<g id="a_edge28_Node000005_Node000022"><a xlink:title=" ">
<path fill="none" stroke="#63b8ff" d="M1641.67,-139.85C1811.85,-137.82 2176.51,-129.56 2482.3,-96 2494.5,-94.66 2507.65,-92.64 2519.72,-90.55"/>
<polygon fill="#63b8ff" stroke="#63b8ff" points="1641.45,-136.35 1631.49,-139.96 1641.53,-143.35 1641.45,-136.35"/>
</a>
</g>
</g>
<!-- Node23 -->
<g id="Node000023" class="node">
<title>Node23</title>
<g id="a_Node000023"><a xlink:href="ForcesInspectorWidget_8cpp.html" target="_top" xlink:title=" ">
<polygon fill="white" stroke="#666666" points="1743.3,-96 1573.3,-96 1573.3,-66 1743.3,-66 1743.3,-96"/>
<text text-anchor="start" x="1581.3" y="-84" font-family="Helvetica,sans-Serif" font-size="10.00">src/ui/inspector/ForcesInspector</text>
<text text-anchor="middle" x="1658.3" y="-73" font-family="Helvetica,sans-Serif" font-size="10.00">Widget.cpp</text>
</a>
</g>
</g>
<!-- Node5&#45;&gt;Node23 -->
<g id="edge29_Node000005_Node000023" class="edge">
<title>Node5&#45;&gt;Node23</title>
<g id="a_edge29_Node000005_Node000023"><a xlink:title=" ">
<path fill="none" stroke="#63b8ff" d="M1571.24,-127.07C1589.13,-117.81 1612.87,-105.52 1631.04,-96.11"/>
<polygon fill="#63b8ff" stroke="#63b8ff" points="1569.25,-124.16 1561.98,-131.87 1572.46,-130.38 1569.25,-124.16"/>
</a>
</g>
</g>
<!-- Node5&#45;&gt;Node24 -->
<g id="edge30_Node000005_Node000024" class="edge">
<title>Node5&#45;&gt;Node24</title>
<g id="a_edge30_Node000005_Node000024"><a xlink:title=" ">
<path fill="none" stroke="#63b8ff" d="M1641.43,-141.24C1832.8,-141.7 2274.77,-137.64 2643.3,-96 2646.33,-95.66 2649.42,-95.26 2652.53,-94.83"/>
<polygon fill="#63b8ff" stroke="#63b8ff" points="1641.41,-137.74 1631.4,-141.22 1641.38,-144.74 1641.41,-137.74"/>
</a>
</g>
</g>
<!-- Node5&#45;&gt;Node25 -->
<g id="edge31_Node000005_Node000025" class="edge">
<title>Node5&#45;&gt;Node25</title>
<g id="a_edge31_Node000005_Node000025"><a xlink:title=" ">
<path fill="none" stroke="#63b8ff" d="M1641.77,-138.83C1894.3,-134.19 2570.58,-119.84 2793.3,-96 2796.04,-95.71 2798.82,-95.37 2801.63,-95.01"/>
<polygon fill="#63b8ff" stroke="#63b8ff" points="1641.45,-135.34 1631.52,-139.02 1641.58,-142.34 1641.45,-135.34"/>
</a>
</g>
</g>
<!-- Node26 -->
<g id="Node000026" class="node">
<title>Node26</title>
<g id="a_Node000026"><a xlink:href="PhysicsInspectorWidget_8cpp.html" target="_top" xlink:title=" ">
<polygon fill="white" stroke="#666666" points="1892.8,-96 1761.8,-96 1761.8,-66 1892.8,-66 1892.8,-96"/>
<text text-anchor="start" x="1769.8" y="-84" font-family="Helvetica,sans-Serif" font-size="10.00">src/ui/inspector/Physics</text>
<text text-anchor="middle" x="1827.3" y="-73" font-family="Helvetica,sans-Serif" font-size="10.00">InspectorWidget.cpp</text>
</a>
</g>
</g>
<!-- Node5&#45;&gt;Node26 -->
<g id="edge32_Node000005_Node000026" class="edge">
<title>Node5&#45;&gt;Node26</title>
<g id="a_edge32_Node000005_Node000026"><a xlink:title=" ">
<path fill="none" stroke="#63b8ff" d="M1596.13,-129.96C1642.47,-120.34 1711.2,-106.08 1761.68,-95.61"/>
<polygon fill="#63b8ff" stroke="#63b8ff" points="1595.39,-126.54 1586.31,-131.99 1596.81,-133.39 1595.39,-126.54"/>
</a>
</g>
</g>
<!-- Node27 -->
<g id="Node000027" class="node">
<title>Node27</title>
<g id="a_Node000027"><a xlink:href="ThermalInspectorWidget_8cpp.html" target="_top" xlink:title=" ">
<polygon fill="white" stroke="#666666" points="2045.3,-96 1911.3,-96 1911.3,-66 2045.3,-66 2045.3,-96"/>
<text text-anchor="start" x="1919.3" y="-84" font-family="Helvetica,sans-Serif" font-size="10.00">src/ui/inspector/Thermal</text>
<text text-anchor="middle" x="1978.3" y="-73" font-family="Helvetica,sans-Serif" font-size="10.00">InspectorWidget.cpp</text>
</a>
</g>
</g>
<!-- Node5&#45;&gt;Node27 -->
<g id="edge33_Node000005_Node000027" class="edge">
<title>Node5&#45;&gt;Node27</title>
<g id="a_edge33_Node000005_Node000027"><a xlink:title=" ">
<path fill="none" stroke="#63b8ff" d="M1633.57,-130.85C1705.72,-122.62 1810.31,-109.95 1901.3,-96 1904.52,-95.51 1907.82,-94.98 1911.15,-94.44"/>
<polygon fill="#63b8ff" stroke="#63b8ff" points="1633.15,-127.37 1623.6,-131.98 1633.94,-134.33 1633.15,-127.37"/>
</a>
</g>
</g>
<!-- Node28 -->
<g id="Node000028" class="node">
<title>Node28</title>
<g id="a_Node000028"><a xlink:href="TransformInspectorWidget_8cpp.html" target="_top" xlink:title=" ">
<polygon fill="white" stroke="#666666" points="534.8,-96 391.8,-96 391.8,-66 534.8,-66 534.8,-96"/>
<text text-anchor="start" x="399.8" y="-84" font-family="Helvetica,sans-Serif" font-size="10.00">src/ui/inspector/Transform</text>
<text text-anchor="middle" x="463.3" y="-73" font-family="Helvetica,sans-Serif" font-size="10.00">InspectorWidget.cpp</text>
</a>
</g>
</g>
<!-- Node5&#45;&gt;Node28 -->
<g id="edge34_Node000005_Node000028" class="edge">
<title>Node5&#45;&gt;Node28</title>
<g id="a_edge34_Node000005_Node000028"><a xlink:title=" ">
<path fill="none" stroke="#63b8ff" d="M1448.82,-140.27C1269.94,-138.93 874.91,-131.77 544.3,-96 541.32,-95.68 538.29,-95.31 535.22,-94.92"/>
<polygon fill="#63b8ff" stroke="#63b8ff" points="1448.97,-143.77 1458.99,-140.34 1449.02,-136.77 1448.97,-143.77"/>
</a>
</g>
</g>
<!-- Node7&#45;&gt;Node2 -->
<g id="edge8_Node000007_Node000002" class="edge">
<title>Node7&#45;&gt;Node2</title>
<g id="a_edge8_Node000007_Node000002"><a xlink:title=" ">
<path fill="none" stroke="#63b8ff" d="M555.6,-63.52C513.59,-53.14 459.96,-39.88 420.01,-30.01"/>
<polygon fill="#63b8ff" stroke="#63b8ff" points="554.92,-66.95 565.46,-65.95 556.59,-60.16 554.92,-66.95"/>
</a>
</g>
</g>
<!-- Node8 -->
<g id="Node000008" class="node">
<title>Node8</title>
<g id="a_Node000008"><a xlink:href="ScaleHandle_8cpp.html" target="_top" xlink:title=" ">
<polygon fill="white" stroke="#666666" points="691.3,-30 553.3,-30 553.3,0 691.3,0 691.3,-30"/>
<text text-anchor="start" x="561.3" y="-18" font-family="Helvetica,sans-Serif" font-size="10.00">src/graphics/components</text>
<text text-anchor="middle" x="622.3" y="-7" font-family="Helvetica,sans-Serif" font-size="10.00">/ScaleHandle.cpp</text>
</a>
</g>
</g>
<!-- Node7&#45;&gt;Node8 -->
<g id="edge9_Node000007_Node000008" class="edge">
<title>Node7&#45;&gt;Node8</title>
<g id="a_edge9_Node000007_Node000008"><a xlink:title=" ">
<path fill="none" stroke="#63b8ff" d="M622.3,-55.54C622.3,-46.96 622.3,-37.61 622.3,-30.16"/>
<polygon fill="#63b8ff" stroke="#63b8ff" points="618.8,-55.8 622.3,-65.8 625.8,-55.8 618.8,-55.8"/>
</a>
</g>
</g>
<!-- Node14&#45;&gt;Node3 -->
<g id="edge18_Node000014_Node000003" class="edge">
<title>Node14&#45;&gt;Node3</title>
<g id="a_edge18_Node000014_Node000003"><a xlink:title=" ">
<path fill="none" stroke="#63b8ff" d="M2052.98,-65.96C1820.63,-33.07 1758.16,-53.02 1528.3,-30 1513.16,-28.48 1496.84,-26.5 1481.65,-24.51"/>
<polygon fill="#63b8ff" stroke="#63b8ff" points="2052.71,-69.46 2063.1,-67.41 2053.7,-62.53 2052.71,-69.46"/>
</a>
</g>
</g>
<!-- Node14&#45;&gt;Node15 -->
<g id="edge19_Node000014_Node000015" class="edge">
<title>Node14&#45;&gt;Node15</title>
<g id="a_edge19_Node000014_Node000015"><a xlink:title=" ">
<path fill="none" stroke="#63b8ff" d="M2181.59,-65.95C2408.13,-32.93 2667.3,-21.3 2777.91,-17.56"/>
<polygon fill="#63b8ff" stroke="#63b8ff" points="2180.89,-62.52 2171.51,-67.44 2181.91,-69.44 2180.89,-62.52"/>
</a>
</g>
</g>
<!-- Node17&#45;&gt;Node3 -->
<g id="edge22_Node000017_Node000003" class="edge">
<title>Node17&#45;&gt;Node3</title>
<g id="a_edge22_Node000017_Node000003"><a xlink:title=" ">
<path fill="none" stroke="#63b8ff" d="M1448.75,-57.28C1441.56,-46.07 1433.32,-33.19 1427.97,-24.84"/>
<polygon fill="#63b8ff" stroke="#63b8ff" points="1445.86,-59.26 1454.2,-65.8 1451.76,-55.49 1445.86,-59.26"/>
</a>
</g>
</g>
<!-- Node17&#45;&gt;Node16 -->
<g id="edge23_Node000017_Node000016" class="edge">
<title>Node17&#45;&gt;Node16</title>
<g id="a_edge23_Node000017_Node000016"><a xlink:title=" ">
<path fill="none" stroke="#63b8ff" d="M1500.55,-61.38C1520.58,-51.36 1544.87,-39.22 1563.28,-30.01"/>
<polygon fill="#63b8ff" stroke="#63b8ff" points="1498.77,-58.35 1491.39,-65.95 1501.9,-64.61 1498.77,-58.35"/>
</a>
</g>
</g>
<!-- Node20 -->
<g id="Node000020" class="node">
<title>Node20</title>
<g id="a_Node000020"><a xlink:href="HierarchyWidget_8cpp.html" target="_top" xlink:title=" ">
<polygon fill="white" stroke="#666666" points="2332.3,-24.5 2184.3,-24.5 2184.3,-5.5 2332.3,-5.5 2332.3,-24.5"/>
<text text-anchor="middle" x="2258.3" y="-12.5" font-family="Helvetica,sans-Serif" font-size="10.00">src/ui/HierarchyWidget.cpp</text>
</a>
</g>
</g>
<!-- Node19&#45;&gt;Node20 -->
<g id="edge26_Node000019_Node000020" class="edge">
<title>Node19&#45;&gt;Node20</title>
<g id="a_edge26_Node000019_Node000020"><a xlink:title=" ">
<path fill="none" stroke="#63b8ff" d="M2258.3,-61.08C2258.3,-49.13 2258.3,-34.22 2258.3,-24.91"/>
<polygon fill="#63b8ff" stroke="#63b8ff" points="2254.8,-61.37 2258.3,-71.37 2261.8,-61.37 2254.8,-61.37"/>
</a>
</g>
</g>
<!-- Node21 -->
<g id="Node000021" class="node">
<title>Node21</title>
<g id="a_Node000021"><a xlink:href="MainWindow_8cpp.html" target="_top" xlink:title=" ">
<polygon fill="white" stroke="#666666" points="3246.3,-24.5 3118.3,-24.5 3118.3,-5.5 3246.3,-5.5 3246.3,-24.5"/>
<text text-anchor="middle" x="3182.3" y="-12.5" font-family="Helvetica,sans-Serif" font-size="10.00">src/ui/MainWindow.cpp</text>
</a>
</g>
</g>
<!-- Node19&#45;&gt;Node21 -->
<g id="edge27_Node000019_Node000021" class="edge">
<title>Node19&#45;&gt;Node21</title>
<g id="a_edge27_Node000019_Node000021"><a xlink:title=" ">
<path fill="none" stroke="#63b8ff" d="M2310.18,-69.68C2318.56,-68.27 2327.15,-66.98 2335.3,-66 2412.18,-56.78 2934.09,-28.98 3118.18,-19.34"/>
<polygon fill="#63b8ff" stroke="#63b8ff" points="2309.37,-66.27 2300.12,-71.45 2310.58,-73.17 2309.37,-66.27"/>
</a>
</g>
</g>
<!-- Node29&#45;&gt;Node3 -->
<g id="edge36_Node000029_Node000003" class="edge">
<title>Node29&#45;&gt;Node3</title>
<g id="a_edge36_Node000029_Node000003"><a xlink:title=" ">
<path fill="none" stroke="#63b8ff" d="M3119.53,-128.64C3137.29,-122.06 3154.69,-111.85 3165.3,-96 3172.72,-84.92 3174.63,-75.53 3165.3,-66 3133.5,-33.49 1573.65,-33.48 1528.3,-30 1511.92,-28.74 1494.2,-26.68 1478.02,-24.52"/>
<polygon fill="#63b8ff" stroke="#63b8ff" points="3118.04,-125.45 3109.66,-131.93 3120.25,-132.09 3118.04,-125.45"/>
</a>
</g>
</g>
<!-- Node29&#45;&gt;Node12 -->
<g id="edge37_Node000029_Node000012" class="edge">
<title>Node29&#45;&gt;Node12</title>
<g id="a_edge37_Node000029_Node000012"><a xlink:title=" ">
<path fill="none" stroke="#63b8ff" d="M3057.3,-121.66C3057.3,-111.24 3057.3,-98.8 3057.3,-90.67"/>
<polygon fill="#63b8ff" stroke="#63b8ff" points="3053.8,-121.87 3057.3,-131.87 3060.8,-121.87 3053.8,-121.87"/>
</a>
</g>
</g>
<!-- Node30&#45;&gt;Node21 -->
<g id="edge44_Node000030_Node000021" class="edge">
<title>Node30&#45;&gt;Node21</title>
<g id="a_edge44_Node000030_Node000021"><a xlink:title=" ">
<path fill="none" stroke="#63b8ff" d="M3362.54,-124.39C3375.82,-108.35 3390.99,-83.64 3377.3,-66 3361.21,-45.26 3296.83,-31.64 3246.4,-23.93"/>
<polygon fill="#63b8ff" stroke="#63b8ff" points="3359.91,-122.09 3355.93,-131.91 3365.16,-126.71 3359.91,-122.09"/>
</a>
</g>
</g>
<!-- Node31 -->
<g id="Node000031" class="node">
<title>Node31</title>
<g id="a_Node000031"><a xlink:href="main_8cpp.html" target="_top" xlink:title=" ">
<polygon fill="white" stroke="#666666" points="3367.8,-90.5 3288.8,-90.5 3288.8,-71.5 3367.8,-71.5 3367.8,-90.5"/>
<text text-anchor="middle" x="3328.3" y="-78.5" font-family="Helvetica,sans-Serif" font-size="10.00">src/main.cpp</text>
</a>
</g>
</g>
<!-- Node30&#45;&gt;Node31 -->
<g id="edge43_Node000030_Node000031" class="edge">
<title>Node30&#45;&gt;Node31</title>
<g id="a_edge43_Node000030_Node000031"><a xlink:title=" ">
<path fill="none" stroke="#63b8ff" d="M3341.4,-122.32C3337.97,-111.78 3333.81,-98.98 3331.12,-90.67"/>
<polygon fill="#63b8ff" stroke="#63b8ff" points="3338.08,-123.44 3344.5,-131.87 3344.74,-121.28 3338.08,-123.44"/>
</a>
</g>
</g>
</g>
</svg>

<g id="navigator" transform="translate(0 0)" fill="#404254">
  <rect fill="#f2f5e9" fill-opacity="0.5" stroke="#606060" stroke-width=".5" x="0" y="0" width="60" height="60"/>
  <use id="zoomplus" xlink:href="#zoomPlus" x="17" y="9" onmousedown="handleZoom(evt,'in')"/>
  <use id="zoomminus" xlink:href="#zoomMin" x="42" y="9" onmousedown="handleZoom(evt,'out')"/>
  <use id="reset" xlink:href="#resetDef" x="30" y="36" onmousedown="handleReset()"/>
   <use id="arrowup" xlink:href="#arrowUp" x="0" y="0" onmousedown="handlePan(0,-1)"/>
  <use id="arrowright" xlink:href="#arrowRight" x="0" y="0" onmousedown="handlePan(1,0)"/>
  <use id="arrowdown" xlink:href="#arrowDown" x="0" y="0" onmousedown="handlePan(0,1)"/>
  <use id="arrowleft" xlink:href="#arrowLeft" x="0" y="0" onmousedown="handlePan(-1,0)"/>
</g>
<svg viewBox="0 0 15 15" width="100%" height="30px" preserveAspectRatio="xMaxYMin meet">
 <g id="arrow_out" transform="scale(0.3 0.3)">
  <a xlink:href="SceneManager_8h__dep__incl_org.svg" target="_base">
   <rect id="button" ry="5" rx="5" y="6" x="6" height="38" width="38"
        fill="#f2f5e9" fill-opacity="0.5" stroke="#606060" stroke-width="1.0"/>
   <path id="arrow"
     d="M 11.500037,31.436501 C 11.940474,20.09759 22.043105,11.32322 32.158766,21.979434 L 37.068811,17.246167 C 37.068811,17.246167 37.088388,32 37.088388,32 L 22.160133,31.978069 C 22.160133,31.978069 26.997745,27.140456 26.997745,27.140456 C 18.528582,18.264221 13.291696,25.230495 11.500037,31.436501 z"
     style="fill:#404040;"/>
  </a>
 </g>
</svg>

<style type='text/css'>
<![CDATA[
[data-mouse-over-selected='false'] { opacity: 0.7; }
[data-mouse-over-selected='true']  { opacity: 1.0; }
]]>
</style>
<script type="application/ecmascript"><![CDATA[
document.addEventListener('DOMContentLoaded', (event) => {
  highlightEdges();
  highlightAdjacentNodes();
});
]]></script>
</svg>
