<?xml version="1.0" encoding="UTF-8" standalone="no"?>
<!DOCTYPE svg PUBLIC "-//W3C//DTD SVG 1.1//EN"
 "http://www.w3.org/Graphics/SVG/1.1/DTD/svg11.dtd">
<!-- Generated by graphviz version 2.43.0 (0)
 -->
<!-- Title: src/graphics/core/SceneObjectOptions.h Pages: 1 -->
<svg width="3578pt" height="280pt"
 viewBox="0.00 0.00 3577.79 280.00" xmlns="http://www.w3.org/2000/svg" xmlns:xlink="http://www.w3.org/1999/xlink">
<g id="graph0" class="graph" transform="scale(1 1) rotate(0) translate(4 276)">
<title>src/graphics/core/SceneObjectOptions.h</title>
<!-- Node1 -->
<g id="Node000001" class="node">
<title>Node1</title>
<g id="a_Node000001"><a xlink:title=" ">
<polygon fill="#999999" stroke="#666666" points="2112.79,-272 1949.79,-272 1949.79,-242 2112.79,-242 2112.79,-272"/>
<text text-anchor="start" x="1957.79" y="-260" font-family="Helvetica,sans-Serif" font-size="10.00">src/graphics/core/SceneObject</text>
<text text-anchor="middle" x="2031.29" y="-249" font-family="Helvetica,sans-Serif" font-size="10.00">Options.h</text>
</a>
</g>
</g>
<!-- Node2 -->
<g id="Node000002" class="node">
<title>Node2</title>
<g id="a_Node000002"><a xlink:href="SceneManager_8h.html" target="_top" xlink:title=" ">
<polygon fill="white" stroke="#666666" points="2572.29,-206 2390.29,-206 2390.29,-187 2572.29,-187 2572.29,-206"/>
<text text-anchor="middle" x="2481.29" y="-194" font-family="Helvetica,sans-Serif" font-size="10.00">src/graphics/core/SceneManager.h</text>
</a>
</g>
</g>
<!-- Node1&#45;&gt;Node2 -->
<g id="edge1_Node000001_Node000002" class="edge">
<title>Node1&#45;&gt;Node2</title>
<g id="a_edge1_Node000001_Node000002"><a xlink:title=" ">
<path fill="none" stroke="#63b8ff" d="M2123.17,-244.05C2210.21,-232.74 2338.73,-216.03 2415.82,-206.01"/>
<polygon fill="#63b8ff" stroke="#63b8ff" points="2122.5,-240.61 2113.04,-245.37 2123.41,-247.55 2122.5,-240.61"/>
</a>
</g>
</g>
<!-- Node6 -->
<g id="Node000006" class="node">
<title>Node6</title>
<g id="a_Node000006"><a xlink:href="SceneObject_8h.html" target="_top" xlink:title=" ">
<polygon fill="white" stroke="#666666" points="1643.29,-151 1471.29,-151 1471.29,-132 1643.29,-132 1643.29,-151"/>
<text text-anchor="middle" x="1557.29" y="-139" font-family="Helvetica,sans-Serif" font-size="10.00">src/graphics/core/SceneObject.h</text>
</a>
</g>
</g>
<!-- Node1&#45;&gt;Node6 -->
<g id="edge49_Node000001_Node000006" class="edge">
<title>Node1&#45;&gt;Node6</title>
<g id="a_edge49_Node000001_Node000006"><a xlink:title=" ">
<path fill="none" stroke="#63b8ff" d="M1962.77,-239.59C1860.54,-215.11 1671.7,-169.9 1593.08,-151.07"/>
<polygon fill="#63b8ff" stroke="#63b8ff" points="1962.15,-243.04 1972.69,-241.97 1963.78,-236.24 1962.15,-243.04"/>
</a>
</g>
</g>
<!-- Node3 -->
<g id="Node000003" class="node">
<title>Node3</title>
<g id="a_Node000003"><a xlink:href="Gizmo_8cpp.html" target="_top" xlink:title=" ">
<polygon fill="white" stroke="#666666" points="432.29,-30 294.29,-30 294.29,0 432.29,0 432.29,-30"/>
<text text-anchor="start" x="302.29" y="-18" font-family="Helvetica,sans-Serif" font-size="10.00">src/graphics/components</text>
<text text-anchor="middle" x="363.29" y="-7" font-family="Helvetica,sans-Serif" font-size="10.00">/Gizmo.cpp</text>
</a>
</g>
</g>
<!-- Node2&#45;&gt;Node3 -->
<g id="edge2_Node000002_Node000003" class="edge">
<title>Node2&#45;&gt;Node3</title>
<g id="a_edge2_Node000002_Node000003"><a xlink:title=" ">
<path fill="none" stroke="#63b8ff" d="M2379.8,-195.27C1963.31,-194.09 396.89,-187.27 178.29,-151 99.11,-137.86 53.61,-160.82 6.29,-96 -1.58,-85.23 -2.46,-76.06 6.29,-66 42.84,-23.97 201.15,-16.22 294.24,-15.39"/>
<polygon fill="#63b8ff" stroke="#63b8ff" points="2380,-198.77 2390.01,-195.3 2380.02,-191.77 2380,-198.77"/>
</a>
</g>
</g>
<!-- Node4 -->
<g id="Node000004" class="node">
<title>Node4</title>
<g id="a_Node000004"><a xlink:href="SceneManager_8cpp.html" target="_top" xlink:title=" ">
<polygon fill="white" stroke="#666666" points="1311.29,-24.5 1117.29,-24.5 1117.29,-5.5 1311.29,-5.5 1311.29,-24.5"/>
<text text-anchor="middle" x="1214.29" y="-12.5" font-family="Helvetica,sans-Serif" font-size="10.00">src/graphics/core/SceneManager.cpp</text>
</a>
</g>
</g>
<!-- Node2&#45;&gt;Node4 -->
<g id="edge3_Node000002_Node000004" class="edge">
<title>Node2&#45;&gt;Node4</title>
<g id="a_edge3_Node000002_Node000004"><a xlink:title=" ">
<path fill="none" stroke="#63b8ff" d="M2379.77,-195.39C1925.35,-194.42 96.78,-184.97 16.29,-96 7.34,-86.11 7.06,-75.62 16.29,-66 25.79,-56.09 833.47,-28.55 1117.13,-19.17"/>
<polygon fill="#63b8ff" stroke="#63b8ff" points="2379.92,-198.89 2389.92,-195.42 2379.93,-191.89 2379.92,-198.89"/>
</a>
</g>
</g>
<!-- Node5 -->
<g id="Node000005" class="node">
<title>Node5</title>
<g id="a_Node000005"><a xlink:href="SceneObject_8cpp.html" target="_top" xlink:title=" ">
<polygon fill="white" stroke="#666666" points="208.79,-90.5 25.79,-90.5 25.79,-71.5 208.79,-71.5 208.79,-90.5"/>
<text text-anchor="middle" x="117.29" y="-78.5" font-family="Helvetica,sans-Serif" font-size="10.00">src/graphics/core/SceneObject.cpp</text>
</a>
</g>
</g>
<!-- Node2&#45;&gt;Node5 -->
<g id="edge4_Node000002_Node000005" class="edge">
<title>Node2&#45;&gt;Node5</title>
<g id="a_edge4_Node000002_Node000005"><a xlink:title=" ">
<path fill="none" stroke="#63b8ff" d="M2380.1,-194.94C2122.27,-193.04 1419.66,-184.91 835.29,-151 560.44,-135.05 491.83,-127.13 218.29,-96 204.3,-94.41 189.26,-92.46 175.17,-90.52"/>
<polygon fill="#63b8ff" stroke="#63b8ff" points="2380.17,-198.44 2390.2,-195.01 2380.22,-191.44 2380.17,-198.44"/>
</a>
</g>
</g>
<!-- Node2&#45;&gt;Node6 -->
<g id="edge5_Node000002_Node000006" class="edge">
<title>Node2&#45;&gt;Node6</title>
<g id="a_edge5_Node000002_Node000006"><a xlink:title=" ">
<path fill="none" stroke="#63b8ff" d="M2380,-189.69C2197.03,-179.2 1814.54,-157.26 1643.35,-147.44"/>
<polygon fill="#63b8ff" stroke="#63b8ff" points="2379.98,-193.19 2390.16,-190.27 2380.38,-186.21 2379.98,-193.19"/>
</a>
</g>
</g>
<!-- Node14 -->
<g id="Node000014" class="node">
<title>Node14</title>
<g id="a_Node000014"><a xlink:href="Colliders_8cpp.html" target="_top" xlink:title=" ">
<polygon fill="white" stroke="#666666" points="335.29,-96 227.29,-96 227.29,-66 335.29,-66 335.29,-96"/>
<text text-anchor="start" x="235.29" y="-84" font-family="Helvetica,sans-Serif" font-size="10.00">src/graphics/debug</text>
<text text-anchor="middle" x="281.29" y="-73" font-family="Helvetica,sans-Serif" font-size="10.00">/Colliders.cpp</text>
</a>
</g>
</g>
<!-- Node2&#45;&gt;Node14 -->
<g id="edge39_Node000002_Node000014" class="edge">
<title>Node2&#45;&gt;Node14</title>
<g id="a_edge39_Node000002_Node000014"><a xlink:title=" ">
<path fill="none" stroke="#63b8ff" d="M2380.04,-194.22C2076.27,-189.64 1146.28,-170.11 379.29,-96 365,-94.62 349.61,-92.65 335.35,-90.62"/>
<polygon fill="#63b8ff" stroke="#63b8ff" points="2380.09,-197.73 2390.14,-194.37 2380.2,-190.73 2380.09,-197.73"/>
</a>
</g>
</g>
<!-- Node16 -->
<g id="Node000016" class="node">
<title>Node16</title>
<g id="a_Node000016"><a xlink:href="Forces_8cpp.html" target="_top" xlink:title=" ">
<polygon fill="white" stroke="#666666" points="1437.29,-30 1329.29,-30 1329.29,0 1437.29,0 1437.29,-30"/>
<text text-anchor="start" x="1337.29" y="-18" font-family="Helvetica,sans-Serif" font-size="10.00">src/graphics/debug</text>
<text text-anchor="middle" x="1383.29" y="-7" font-family="Helvetica,sans-Serif" font-size="10.00">/Forces.cpp</text>
</a>
</g>
</g>
<!-- Node2&#45;&gt;Node16 -->
<g id="edge40_Node000002_Node000016" class="edge">
<title>Node2&#45;&gt;Node16</title>
<g id="a_edge40_Node000002_Node000016"><a xlink:title=" ">
<path fill="none" stroke="#63b8ff" d="M2582.4,-191.79C2792.32,-182.32 3249.16,-151.65 3165.29,-66 3131.87,-31.88 1493.7,-35.71 1446.29,-30 1443.39,-29.65 1440.44,-29.23 1437.46,-28.75"/>
<polygon fill="#63b8ff" stroke="#63b8ff" points="2582.12,-188.3 2572.29,-192.24 2582.43,-195.29 2582.12,-188.3"/>
</a>
</g>
</g>
<!-- Node17 -->
<g id="Node000017" class="node">
<title>Node17</title>
<g id="a_Node000017"><a xlink:href="PathTraces_8cpp.html" target="_top" xlink:title=" ">
<polygon fill="white" stroke="#666666" points="1563.29,-30 1455.29,-30 1455.29,0 1563.29,0 1563.29,-30"/>
<text text-anchor="start" x="1463.29" y="-18" font-family="Helvetica,sans-Serif" font-size="10.00">src/graphics/debug</text>
<text text-anchor="middle" x="1509.29" y="-7" font-family="Helvetica,sans-Serif" font-size="10.00">/PathTraces.cpp</text>
</a>
</g>
</g>
<!-- Node2&#45;&gt;Node17 -->
<g id="edge41_Node000002_Node000017" class="edge">
<title>Node2&#45;&gt;Node17</title>
<g id="a_edge41_Node000002_Node000017"><a xlink:title=" ">
<path fill="none" stroke="#63b8ff" d="M2582.62,-192.84C2775.36,-187.27 3177.54,-173.07 3198.29,-151 3224.16,-123.47 3224.7,-93.01 3198.29,-66 3166.7,-33.7 1617.14,-35.43 1572.29,-30 1569.39,-29.65 1566.44,-29.23 1563.46,-28.75"/>
<polygon fill="#63b8ff" stroke="#63b8ff" points="2582.37,-189.34 2572.48,-193.13 2582.57,-196.34 2582.37,-189.34"/>
</a>
</g>
</g>
<!-- Node19 -->
<g id="Node000019" class="node">
<title>Node19</title>
<g id="a_Node000019"><a xlink:href="AstronomyPresets_8cpp.html" target="_top" xlink:title=" ">
<polygon fill="white" stroke="#666666" points="2473.79,-96 2344.79,-96 2344.79,-66 2473.79,-66 2473.79,-96"/>
<text text-anchor="start" x="2352.79" y="-84" font-family="Helvetica,sans-Serif" font-size="10.00">src/graphics/presets</text>
<text text-anchor="middle" x="2409.29" y="-73" font-family="Helvetica,sans-Serif" font-size="10.00">/AstronomyPresets.cpp</text>
</a>
</g>
</g>
<!-- Node2&#45;&gt;Node19 -->
<g id="edge42_Node000002_Node000019" class="edge">
<title>Node2&#45;&gt;Node19</title>
<g id="a_edge42_Node000002_Node000019"><a xlink:title=" ">
<path fill="none" stroke="#63b8ff" d="M2470.49,-178.48C2456.27,-156.07 2431.54,-117.08 2418.28,-96.18"/>
<polygon fill="#63b8ff" stroke="#63b8ff" points="2467.56,-180.4 2475.87,-186.97 2473.47,-176.65 2467.56,-180.4"/>
</a>
</g>
</g>
<!-- Node23 -->
<g id="Node000023" class="node">
<title>Node23</title>
<g id="a_Node000023"><a xlink:href="OpenGLWindow_8cpp.html" target="_top" xlink:title=" ">
<polygon fill="white" stroke="#666666" points="2634.29,-90.5 2492.29,-90.5 2492.29,-71.5 2634.29,-71.5 2634.29,-90.5"/>
<text text-anchor="middle" x="2563.29" y="-78.5" font-family="Helvetica,sans-Serif" font-size="10.00">src/ui/OpenGLWindow.cpp</text>
</a>
</g>
</g>
<!-- Node2&#45;&gt;Node23 -->
<g id="edge46_Node000002_Node000023" class="edge">
<title>Node2&#45;&gt;Node23</title>
<g id="a_edge46_Node000002_Node000023"><a xlink:title=" ">
<path fill="none" stroke="#63b8ff" d="M2493.46,-178.64C2511.2,-154.09 2543.51,-109.37 2557.05,-90.63"/>
<polygon fill="#63b8ff" stroke="#63b8ff" points="2490.47,-176.81 2487.45,-186.97 2496.14,-180.91 2490.47,-176.81"/>
</a>
</g>
</g>
<!-- Node25 -->
<g id="Node000025" class="node">
<title>Node25</title>
<g id="a_Node000025"><a xlink:href="GlobalsInspectorWidget_8cpp.html" target="_top" xlink:title=" ">
<polygon fill="white" stroke="#666666" points="2783.79,-96 2652.79,-96 2652.79,-66 2783.79,-66 2783.79,-96"/>
<text text-anchor="start" x="2660.79" y="-84" font-family="Helvetica,sans-Serif" font-size="10.00">src/ui/inspector/Globals</text>
<text text-anchor="middle" x="2718.29" y="-73" font-family="Helvetica,sans-Serif" font-size="10.00">InspectorWidget.cpp</text>
</a>
</g>
</g>
<!-- Node2&#45;&gt;Node25 -->
<g id="edge47_Node000002_Node000025" class="edge">
<title>Node2&#45;&gt;Node25</title>
<g id="a_edge47_Node000002_Node000025"><a xlink:title=" ">
<path fill="none" stroke="#63b8ff" d="M2508.19,-182.62C2552.91,-161.2 2642.22,-118.43 2688.67,-96.18"/>
<polygon fill="#63b8ff" stroke="#63b8ff" points="2506.61,-179.49 2499.1,-186.97 2509.63,-185.81 2506.61,-179.49"/>
</a>
</g>
</g>
<!-- Node26 -->
<g id="Node000026" class="node">
<title>Node26</title>
<g id="a_Node000026"><a xlink:href="InspectorWidget_8cpp.html" target="_top" xlink:title=" ">
<polygon fill="white" stroke="#666666" points="2940.79,-96 2801.79,-96 2801.79,-66 2940.79,-66 2940.79,-96"/>
<text text-anchor="start" x="2809.79" y="-84" font-family="Helvetica,sans-Serif" font-size="10.00">src/ui/inspector/Inspector</text>
<text text-anchor="middle" x="2871.29" y="-73" font-family="Helvetica,sans-Serif" font-size="10.00">Widget.cpp</text>
</a>
</g>
</g>
<!-- Node2&#45;&gt;Node26 -->
<g id="edge48_Node000002_Node000026" class="edge">
<title>Node2&#45;&gt;Node26</title>
<g id="a_edge48_Node000002_Node000026"><a xlink:title=" ">
<path fill="none" stroke="#63b8ff" d="M2520.6,-184.06C2592.46,-163.15 2744.78,-118.82 2822.88,-96.09"/>
<polygon fill="#63b8ff" stroke="#63b8ff" points="2519.22,-180.81 2510.6,-186.97 2521.18,-187.54 2519.22,-180.81"/>
</a>
</g>
</g>
<!-- Node30 -->
<g id="Node000030" class="node">
<title>Node30</title>
<g id="a_Node000030"><a xlink:href="SceneSerializer_8h.html" target="_top" xlink:title=" ">
<polygon fill="white" stroke="#666666" points="3434.79,-151 3249.79,-151 3249.79,-132 3434.79,-132 3434.79,-151"/>
<text text-anchor="middle" x="3342.29" y="-139" font-family="Helvetica,sans-Serif" font-size="10.00">src/graphics/core/SceneSerializer.h</text>
</a>
</g>
</g>
<!-- Node2&#45;&gt;Node30 -->
<g id="edge36_Node000002_Node000030" class="edge">
<title>Node2&#45;&gt;Node30</title>
<g id="a_edge36_Node000002_Node000030"><a xlink:title=" ">
<path fill="none" stroke="#63b8ff" d="M2582.77,-190.2C2727.76,-182.48 3002.52,-167.26 3236.29,-151 3240.61,-150.7 3245.04,-150.38 3249.51,-150.05"/>
<polygon fill="#63b8ff" stroke="#63b8ff" points="2582.36,-186.72 2572.56,-190.74 2582.73,-193.71 2582.36,-186.72"/>
</a>
</g>
</g>
<!-- Node31 -->
<g id="Node000031" class="node">
<title>Node31</title>
<g id="a_Node000031"><a xlink:href="MainWindow_8h.html" target="_top" xlink:title=" ">
<polygon fill="white" stroke="#666666" points="3569.79,-151 3452.79,-151 3452.79,-132 3569.79,-132 3569.79,-151"/>
<text text-anchor="middle" x="3511.29" y="-139" font-family="Helvetica,sans-Serif" font-size="10.00">src/ui/MainWindow.h</text>
</a>
</g>
</g>
<!-- Node2&#45;&gt;Node31 -->
<g id="edge43_Node000002_Node000031" class="edge">
<title>Node2&#45;&gt;Node31</title>
<g id="a_edge43_Node000002_Node000031"><a xlink:title=" ">
<path fill="none" stroke="#63b8ff" d="M2582.4,-193.49C2758.01,-189.4 3130.64,-178.1 3444.29,-151 3446.97,-150.77 3449.72,-150.51 3452.49,-150.23"/>
<polygon fill="#63b8ff" stroke="#63b8ff" points="2582.31,-189.99 2572.39,-193.72 2582.47,-196.99 2582.31,-189.99"/>
</a>
</g>
</g>
<!-- Node6&#45;&gt;Node3 -->
<g id="edge6_Node000006_Node000003" class="edge">
<title>Node6&#45;&gt;Node3</title>
<g id="a_edge6_Node000006_Node000003"><a xlink:title=" ">
<path fill="none" stroke="#63b8ff" d="M1460.73,-139.26C1192.49,-135.5 455,-122.75 410.29,-96 385.96,-81.44 372.86,-49.09 367.06,-30.29"/>
<polygon fill="#63b8ff" stroke="#63b8ff" points="1460.79,-142.77 1470.84,-139.4 1460.89,-135.77 1460.79,-142.77"/>
</a>
</g>
</g>
<!-- Node6&#45;&gt;Node4 -->
<g id="edge14_Node000006_Node000004" class="edge">
<title>Node6&#45;&gt;Node4</title>
<g id="a_edge14_Node000006_Node000004"><a xlink:title=" ">
<path fill="none" stroke="#63b8ff" d="M1460.84,-138.49C1189.54,-132.61 438.23,-114.66 420.29,-96 411.04,-86.39 411.16,-75.72 420.29,-66 443.8,-40.95 910.54,-24.63 1117.22,-18.61"/>
<polygon fill="#63b8ff" stroke="#63b8ff" points="1460.99,-141.99 1471.07,-138.71 1461.15,-134.99 1460.99,-141.99"/>
</a>
</g>
</g>
<!-- Node6&#45;&gt;Node5 -->
<g id="edge15_Node000006_Node000005" class="edge">
<title>Node6&#45;&gt;Node5</title>
<g id="a_edge15_Node000006_Node000005"><a xlink:title=" ">
<path fill="none" stroke="#63b8ff" d="M1460.69,-140.75C1240.11,-140.55 682.52,-135.78 218.29,-96 202.94,-94.69 186.36,-92.65 171.16,-90.53"/>
<polygon fill="#63b8ff" stroke="#63b8ff" points="1460.94,-144.25 1470.94,-140.75 1460.94,-137.25 1460.94,-144.25"/>
</a>
</g>
</g>
<!-- Node7 -->
<g id="Node000007" class="node">
<title>Node7</title>
<g id="a_Node000007"><a xlink:href="RotateHandle_8cpp.html" target="_top" xlink:title=" ">
<polygon fill="white" stroke="#666666" points="567.29,-96 429.29,-96 429.29,-66 567.29,-66 567.29,-96"/>
<text text-anchor="start" x="437.29" y="-84" font-family="Helvetica,sans-Serif" font-size="10.00">src/graphics/components</text>
<text text-anchor="middle" x="498.29" y="-73" font-family="Helvetica,sans-Serif" font-size="10.00">/RotateHandle.cpp</text>
</a>
</g>
</g>
<!-- Node6&#45;&gt;Node7 -->
<g id="edge7_Node000006_Node000007" class="edge">
<title>Node6&#45;&gt;Node7</title>
<g id="a_edge7_Node000006_Node000007"><a xlink:title=" ">
<path fill="none" stroke="#63b8ff" d="M1461.02,-140.35C1284.88,-139.13 899.13,-132.14 576.29,-96 573.41,-95.68 570.49,-95.32 567.54,-94.92"/>
<polygon fill="#63b8ff" stroke="#63b8ff" points="1461.01,-143.85 1471.04,-140.41 1461.06,-136.85 1461.01,-143.85"/>
</a>
</g>
</g>
<!-- Node8 -->
<g id="Node000008" class="node">
<title>Node8</title>
<g id="a_Node000008"><a xlink:href="ScaleHandle_8h.html" target="_top" xlink:title=" ">
<polygon fill="white" stroke="#666666" points="723.29,-96 585.29,-96 585.29,-66 723.29,-66 723.29,-96"/>
<text text-anchor="start" x="593.29" y="-84" font-family="Helvetica,sans-Serif" font-size="10.00">src/graphics/components</text>
<text text-anchor="middle" x="654.29" y="-73" font-family="Helvetica,sans-Serif" font-size="10.00">/ScaleHandle.h</text>
</a>
</g>
</g>
<!-- Node6&#45;&gt;Node8 -->
<g id="edge8_Node000006_Node000008" class="edge">
<title>Node6&#45;&gt;Node8</title>
<g id="a_edge8_Node000006_Node000008"><a xlink:title=" ">
<path fill="none" stroke="#63b8ff" d="M1460.79,-139.16C1306.43,-136.15 994.65,-126.5 732.29,-96 729.42,-95.67 726.49,-95.29 723.54,-94.89"/>
<polygon fill="#63b8ff" stroke="#63b8ff" points="1461.11,-142.67 1471.18,-139.36 1461.25,-135.67 1461.11,-142.67"/>
</a>
</g>
</g>
<!-- Node10 -->
<g id="Node000010" class="node">
<title>Node10</title>
<g id="a_Node000010"><a xlink:href="TranslateHandle_8cpp.html" target="_top" xlink:title=" ">
<polygon fill="white" stroke="#666666" points="879.29,-96 741.29,-96 741.29,-66 879.29,-66 879.29,-96"/>
<text text-anchor="start" x="749.29" y="-84" font-family="Helvetica,sans-Serif" font-size="10.00">src/graphics/components</text>
<text text-anchor="middle" x="810.29" y="-73" font-family="Helvetica,sans-Serif" font-size="10.00">/TranslateHandle.cpp</text>
</a>
</g>
</g>
<!-- Node6&#45;&gt;Node10 -->
<g id="edge11_Node000006_Node000010" class="edge">
<title>Node6&#45;&gt;Node10</title>
<g id="a_edge11_Node000006_Node000010"><a xlink:title=" ">
<path fill="none" stroke="#63b8ff" d="M1460.85,-137.45C1330.54,-132.57 1091.19,-120.88 888.29,-96 885.42,-95.65 882.5,-95.26 879.55,-94.84"/>
<polygon fill="#63b8ff" stroke="#63b8ff" points="1461.07,-140.96 1471.19,-137.83 1461.33,-133.97 1461.07,-140.96"/>
</a>
</g>
</g>
<!-- Node11 -->
<g id="Node000011" class="node">
<title>Node11</title>
<g id="a_Node000011"><a xlink:href="Camera_8cpp.html" target="_top" xlink:title=" ">
<polygon fill="white" stroke="#666666" points="1058.79,-90.5 897.79,-90.5 897.79,-71.5 1058.79,-71.5 1058.79,-90.5"/>
<text text-anchor="middle" x="978.29" y="-78.5" font-family="Helvetica,sans-Serif" font-size="10.00">src/graphics/core/Camera.cpp</text>
</a>
</g>
</g>
<!-- Node6&#45;&gt;Node11 -->
<g id="edge12_Node000006_Node000011" class="edge">
<title>Node6&#45;&gt;Node11</title>
<g id="a_edge12_Node000006_Node000011"><a xlink:title=" ">
<path fill="none" stroke="#63b8ff" d="M1460.72,-133.53C1361.95,-125.98 1204.14,-112.73 1068.29,-96 1055.73,-94.45 1042.23,-92.51 1029.61,-90.56"/>
<polygon fill="#63b8ff" stroke="#63b8ff" points="1460.75,-137.05 1470.98,-134.31 1461.28,-130.07 1460.75,-137.05"/>
</a>
</g>
</g>
<!-- Node12 -->
<g id="Node000012" class="node">
<title>Node12</title>
<g id="a_Node000012"><a xlink:href="Scene_8cpp.html" target="_top" xlink:title=" ">
<polygon fill="white" stroke="#666666" points="1229.29,-90.5 1077.29,-90.5 1077.29,-71.5 1229.29,-71.5 1229.29,-90.5"/>
<text text-anchor="middle" x="1153.29" y="-78.5" font-family="Helvetica,sans-Serif" font-size="10.00">src/graphics/core/Scene.cpp</text>
</a>
</g>
</g>
<!-- Node6&#45;&gt;Node12 -->
<g id="edge13_Node000006_Node000012" class="edge">
<title>Node6&#45;&gt;Node12</title>
<g id="a_edge13_Node000006_Node000012"><a xlink:title=" ">
<path fill="none" stroke="#63b8ff" d="M1482.65,-130.62C1417.95,-121.92 1321.85,-108.71 1238.29,-96 1227.2,-94.31 1215.31,-92.41 1204.04,-90.57"/>
<polygon fill="#63b8ff" stroke="#63b8ff" points="1482.38,-134.11 1492.76,-131.97 1483.31,-127.17 1482.38,-134.11"/>
</a>
</g>
</g>
<!-- Node13 -->
<g id="Node000013" class="node">
<title>Node13</title>
<g id="a_Node000013"><a xlink:href="SceneSerializer_8cpp.html" target="_top" xlink:title=" ">
<polygon fill="white" stroke="#666666" points="3155.79,-90.5 2958.79,-90.5 2958.79,-71.5 3155.79,-71.5 3155.79,-90.5"/>
<text text-anchor="middle" x="3057.29" y="-78.5" font-family="Helvetica,sans-Serif" font-size="10.00">src/graphics/core/SceneSerializer.cpp</text>
</a>
</g>
</g>
<!-- Node6&#45;&gt;Node13 -->
<g id="edge16_Node000006_Node000013" class="edge">
<title>Node6&#45;&gt;Node13</title>
<g id="a_edge16_Node000006_Node000013"><a xlink:title=" ">
<path fill="none" stroke="#63b8ff" d="M1653.64,-140.67C1880.19,-140.37 2464.26,-135.46 2950.29,-96 2966.53,-94.68 2984.09,-92.64 3000.2,-90.52"/>
<polygon fill="#63b8ff" stroke="#63b8ff" points="1653.44,-137.17 1643.45,-140.68 1653.45,-144.17 1653.44,-137.17"/>
</a>
</g>
</g>
<!-- Node6&#45;&gt;Node14 -->
<g id="edge17_Node000006_Node000014" class="edge">
<title>Node6&#45;&gt;Node14</title>
<g id="a_edge17_Node000006_Node000014"><a xlink:title=" ">
<path fill="none" stroke="#63b8ff" d="M1461.23,-139.02C1214.67,-134.9 563.78,-121.85 349.29,-96 344.74,-95.45 340.04,-94.76 335.34,-93.97"/>
<polygon fill="#63b8ff" stroke="#63b8ff" points="1461.19,-142.52 1471.25,-139.19 1461.3,-135.52 1461.19,-142.52"/>
</a>
</g>
</g>
<!-- Node15 -->
<g id="Node000015" class="node">
<title>Node15</title>
<g id="a_Node000015"><a xlink:href="Forces_8h.html" target="_top" xlink:title=" ">
<polygon fill="white" stroke="#666666" points="1355.29,-96 1247.29,-96 1247.29,-66 1355.29,-66 1355.29,-96"/>
<text text-anchor="start" x="1255.29" y="-84" font-family="Helvetica,sans-Serif" font-size="10.00">src/graphics/debug</text>
<text text-anchor="middle" x="1301.29" y="-73" font-family="Helvetica,sans-Serif" font-size="10.00">/Forces.h</text>
</a>
</g>
</g>
<!-- Node6&#45;&gt;Node15 -->
<g id="edge18_Node000006_Node000015" class="edge">
<title>Node6&#45;&gt;Node15</title>
<g id="a_edge18_Node000006_Node000015"><a xlink:title=" ">
<path fill="none" stroke="#63b8ff" d="M1510.25,-129.75C1466.54,-119.76 1401.44,-104.89 1355.55,-94.4"/>
<polygon fill="#63b8ff" stroke="#63b8ff" points="1509.53,-133.18 1520.06,-131.99 1511.09,-126.35 1509.53,-133.18"/>
</a>
</g>
</g>
<!-- Node6&#45;&gt;Node17 -->
<g id="edge21_Node000006_Node000017" class="edge">
<title>Node6&#45;&gt;Node17</title>
<g id="a_edge21_Node000006_Node000017"><a xlink:title=" ">
<path fill="none" stroke="#63b8ff" d="M1544.36,-123.7C1538.72,-115.68 1532.46,-105.73 1528.29,-96 1518.83,-73.96 1513.6,-46.4 1511.12,-30.05"/>
<polygon fill="#63b8ff" stroke="#63b8ff" points="1541.58,-125.82 1550.32,-131.82 1547.22,-121.68 1541.58,-125.82"/>
</a>
</g>
</g>
<!-- Node18 -->
<g id="Node000018" class="node">
<title>Node18</title>
<g id="a_Node000018"><a xlink:href="PathTraces_8h.html" target="_top" xlink:title=" ">
<polygon fill="white" stroke="#666666" points="1481.29,-96 1373.29,-96 1373.29,-66 1481.29,-66 1481.29,-96"/>
<text text-anchor="start" x="1381.29" y="-84" font-family="Helvetica,sans-Serif" font-size="10.00">src/graphics/debug</text>
<text text-anchor="middle" x="1427.29" y="-73" font-family="Helvetica,sans-Serif" font-size="10.00">/PathTraces.h</text>
</a>
</g>
</g>
<!-- Node6&#45;&gt;Node18 -->
<g id="edge22_Node000006_Node000018" class="edge">
<title>Node6&#45;&gt;Node18</title>
<g id="a_edge22_Node000006_Node000018"><a xlink:title=" ">
<path fill="none" stroke="#63b8ff" d="M1529.12,-127.83C1508.33,-118.47 1480.03,-105.74 1458.54,-96.06"/>
<polygon fill="#63b8ff" stroke="#63b8ff" points="1527.83,-131.08 1538.38,-131.99 1530.7,-124.7 1527.83,-131.08"/>
</a>
</g>
</g>
<!-- Node6&#45;&gt;Node19 -->
<g id="edge25_Node000006_Node000019" class="edge">
<title>Node6&#45;&gt;Node19</title>
<g id="a_edge25_Node000006_Node000019"><a xlink:title=" ">
<path fill="none" stroke="#63b8ff" d="M1653.88,-139.09C1801.47,-136.01 2091.77,-126.3 2336.29,-96 2338.97,-95.67 2341.71,-95.29 2344.48,-94.89"/>
<polygon fill="#63b8ff" stroke="#63b8ff" points="1653.42,-135.6 1643.5,-139.3 1653.57,-142.59 1653.42,-135.6"/>
</a>
</g>
</g>
<!-- Node20 -->
<g id="Node000020" class="node">
<title>Node20</title>
<g id="a_Node000020"><a xlink:href="HierarchyWidget_8h.html" target="_top" xlink:title=" ">
<polygon fill="white" stroke="#666666" points="1674.79,-90.5 1537.79,-90.5 1537.79,-71.5 1674.79,-71.5 1674.79,-90.5"/>
<text text-anchor="middle" x="1606.29" y="-78.5" font-family="Helvetica,sans-Serif" font-size="10.00">src/ui/HierarchyWidget.h</text>
</a>
</g>
</g>
<!-- Node6&#45;&gt;Node20 -->
<g id="edge26_Node000006_Node000020" class="edge">
<title>Node6&#45;&gt;Node20</title>
<g id="a_edge26_Node000006_Node000020"><a xlink:title=" ">
<path fill="none" stroke="#63b8ff" d="M1571.15,-123.95C1580.22,-113.12 1591.7,-99.41 1599.03,-90.67"/>
<polygon fill="#63b8ff" stroke="#63b8ff" points="1568.25,-121.95 1564.52,-131.87 1573.62,-126.45 1568.25,-121.95"/>
</a>
</g>
</g>
<!-- Node6&#45;&gt;Node23 -->
<g id="edge29_Node000006_Node000023" class="edge">
<title>Node6&#45;&gt;Node23</title>
<g id="a_edge29_Node000006_Node000023"><a xlink:title=" ">
<path fill="none" stroke="#63b8ff" d="M1653.52,-139.84C1822.12,-137.79 2181.71,-129.5 2483.29,-96 2495.34,-94.66 2508.32,-92.64 2520.25,-90.55"/>
<polygon fill="#63b8ff" stroke="#63b8ff" points="1653.38,-136.34 1643.42,-139.95 1653.46,-143.34 1653.38,-136.34"/>
</a>
</g>
</g>
<!-- Node24 -->
<g id="Node000024" class="node">
<title>Node24</title>
<g id="a_Node000024"><a xlink:href="ForcesInspectorWidget_8cpp.html" target="_top" xlink:title=" ">
<polygon fill="white" stroke="#666666" points="1863.29,-96 1693.29,-96 1693.29,-66 1863.29,-66 1863.29,-96"/>
<text text-anchor="start" x="1701.29" y="-84" font-family="Helvetica,sans-Serif" font-size="10.00">src/ui/inspector/ForcesInspector</text>
<text text-anchor="middle" x="1778.29" y="-73" font-family="Helvetica,sans-Serif" font-size="10.00">Widget.cpp</text>
</a>
</g>
</g>
<!-- Node6&#45;&gt;Node24 -->
<g id="edge30_Node000006_Node000024" class="edge">
<title>Node6&#45;&gt;Node24</title>
<g id="a_edge30_Node000006_Node000024"><a xlink:title=" ">
<path fill="none" stroke="#63b8ff" d="M1599.52,-129.32C1635.25,-119.86 1686.63,-106.26 1725.15,-96.06"/>
<polygon fill="#63b8ff" stroke="#63b8ff" points="1598.19,-126.05 1589.42,-131.99 1599.98,-132.82 1598.19,-126.05"/>
</a>
</g>
</g>
<!-- Node6&#45;&gt;Node25 -->
<g id="edge31_Node000006_Node000025" class="edge">
<title>Node6&#45;&gt;Node25</title>
<g id="a_edge31_Node000006_Node000025"><a xlink:title=" ">
<path fill="none" stroke="#63b8ff" d="M1653.72,-141.18C1843.73,-141.5 2279.66,-137.17 2643.29,-96 2646.31,-95.66 2649.4,-95.26 2652.52,-94.83"/>
<polygon fill="#63b8ff" stroke="#63b8ff" points="1653.49,-137.68 1643.48,-141.16 1653.48,-144.68 1653.49,-137.68"/>
</a>
</g>
</g>
<!-- Node6&#45;&gt;Node26 -->
<g id="edge32_Node000006_Node000026" class="edge">
<title>Node6&#45;&gt;Node26</title>
<g id="a_edge32_Node000006_Node000026"><a xlink:title=" ">
<path fill="none" stroke="#63b8ff" d="M1653.73,-138.8C1904.53,-134.08 2572.97,-119.62 2793.29,-96 2796.02,-95.71 2798.81,-95.37 2801.61,-95.01"/>
<polygon fill="#63b8ff" stroke="#63b8ff" points="1653.47,-135.3 1643.54,-138.99 1653.6,-142.3 1653.47,-135.3"/>
</a>
</g>
</g>
<!-- Node27 -->
<g id="Node000027" class="node">
<title>Node27</title>
<g id="a_Node000027"><a xlink:href="PhysicsInspectorWidget_8cpp.html" target="_top" xlink:title=" ">
<polygon fill="white" stroke="#666666" points="2012.79,-96 1881.79,-96 1881.79,-66 2012.79,-66 2012.79,-96"/>
<text text-anchor="start" x="1889.79" y="-84" font-family="Helvetica,sans-Serif" font-size="10.00">src/ui/inspector/Physics</text>
<text text-anchor="middle" x="1947.29" y="-73" font-family="Helvetica,sans-Serif" font-size="10.00">InspectorWidget.cpp</text>
</a>
</g>
</g>
<!-- Node6&#45;&gt;Node27 -->
<g id="edge33_Node000006_Node000027" class="edge">
<title>Node6&#45;&gt;Node27</title>
<g id="a_edge33_Node000006_Node000027"><a xlink:title=" ">
<path fill="none" stroke="#63b8ff" d="M1633.78,-130.66C1697.65,-122.21 1791.06,-109.31 1872.29,-96 1875.29,-95.51 1878.36,-94.99 1881.46,-94.46"/>
<polygon fill="#63b8ff" stroke="#63b8ff" points="1633.24,-127.2 1623.78,-131.97 1634.16,-134.14 1633.24,-127.2"/>
</a>
</g>
</g>
<!-- Node28 -->
<g id="Node000028" class="node">
<title>Node28</title>
<g id="a_Node000028"><a xlink:href="ThermalInspectorWidget_8cpp.html" target="_top" xlink:title=" ">
<polygon fill="white" stroke="#666666" points="2165.29,-96 2031.29,-96 2031.29,-66 2165.29,-66 2165.29,-96"/>
<text text-anchor="start" x="2039.29" y="-84" font-family="Helvetica,sans-Serif" font-size="10.00">src/ui/inspector/Thermal</text>
<text text-anchor="middle" x="2098.29" y="-73" font-family="Helvetica,sans-Serif" font-size="10.00">InspectorWidget.cpp</text>
</a>
</g>
</g>
<!-- Node6&#45;&gt;Node28 -->
<g id="edge34_Node000006_Node000028" class="edge">
<title>Node6&#45;&gt;Node28</title>
<g id="a_edge34_Node000006_Node000028"><a xlink:title=" ">
<path fill="none" stroke="#63b8ff" d="M1653.55,-133.65C1747.58,-126.39 1894.64,-113.55 2021.29,-96 2024.52,-95.55 2027.82,-95.07 2031.15,-94.55"/>
<polygon fill="#63b8ff" stroke="#63b8ff" points="1653.19,-130.16 1643.48,-134.42 1653.72,-137.14 1653.19,-130.16"/>
</a>
</g>
</g>
<!-- Node29 -->
<g id="Node000029" class="node">
<title>Node29</title>
<g id="a_Node000029"><a xlink:href="TransformInspectorWidget_8cpp.html" target="_top" xlink:title=" ">
<polygon fill="white" stroke="#666666" points="2326.79,-96 2183.79,-96 2183.79,-66 2326.79,-66 2326.79,-96"/>
<text text-anchor="start" x="2191.79" y="-84" font-family="Helvetica,sans-Serif" font-size="10.00">src/ui/inspector/Transform</text>
<text text-anchor="middle" x="2255.29" y="-73" font-family="Helvetica,sans-Serif" font-size="10.00">InspectorWidget.cpp</text>
</a>
</g>
</g>
<!-- Node6&#45;&gt;Node29 -->
<g id="edge35_Node000006_Node000029" class="edge">
<title>Node6&#45;&gt;Node29</title>
<g id="a_edge35_Node000006_Node000029"><a xlink:title=" ">
<path fill="none" stroke="#63b8ff" d="M1653.42,-136.52C1775.03,-130.81 1990.76,-118.42 2174.29,-96 2177.26,-95.64 2180.29,-95.24 2183.35,-94.81"/>
<polygon fill="#63b8ff" stroke="#63b8ff" points="1653.21,-133.03 1643.39,-136.99 1653.54,-140.02 1653.21,-133.03"/>
</a>
</g>
</g>
<!-- Node8&#45;&gt;Node3 -->
<g id="edge9_Node000008_Node000003" class="edge">
<title>Node8&#45;&gt;Node3</title>
<g id="a_edge9_Node000008_Node000003"><a xlink:title=" ">
<path fill="none" stroke="#63b8ff" d="M580.53,-63.78C533.16,-53.36 472.26,-39.97 427,-30.01"/>
<polygon fill="#63b8ff" stroke="#63b8ff" points="579.91,-67.23 590.42,-65.95 581.41,-60.39 579.91,-67.23"/>
</a>
</g>
</g>
<!-- Node9 -->
<g id="Node000009" class="node">
<title>Node9</title>
<g id="a_Node000009"><a xlink:href="ScaleHandle_8cpp.html" target="_top" xlink:title=" ">
<polygon fill="white" stroke="#666666" points="723.29,-30 585.29,-30 585.29,0 723.29,0 723.29,-30"/>
<text text-anchor="start" x="593.29" y="-18" font-family="Helvetica,sans-Serif" font-size="10.00">src/graphics/components</text>
<text text-anchor="middle" x="654.29" y="-7" font-family="Helvetica,sans-Serif" font-size="10.00">/ScaleHandle.cpp</text>
</a>
</g>
</g>
<!-- Node8&#45;&gt;Node9 -->
<g id="edge10_Node000008_Node000009" class="edge">
<title>Node8&#45;&gt;Node9</title>
<g id="a_edge10_Node000008_Node000009"><a xlink:title=" ">
<path fill="none" stroke="#63b8ff" d="M654.29,-55.54C654.29,-46.96 654.29,-37.61 654.29,-30.16"/>
<polygon fill="#63b8ff" stroke="#63b8ff" points="650.79,-55.8 654.29,-65.8 657.79,-55.8 650.79,-55.8"/>
</a>
</g>
</g>
<!-- Node15&#45;&gt;Node4 -->
<g id="edge19_Node000015_Node000004" class="edge">
<title>Node15&#45;&gt;Node4</title>
<g id="a_edge19_Node000015_Node000004"><a xlink:title=" ">
<path fill="none" stroke="#63b8ff" d="M1273.48,-59.55C1257.46,-47.76 1238.16,-33.57 1226.05,-24.66"/>
<polygon fill="#63b8ff" stroke="#63b8ff" points="1271.85,-62.69 1281.98,-65.8 1276,-57.05 1271.85,-62.69"/>
</a>
</g>
</g>
<!-- Node15&#45;&gt;Node16 -->
<g id="edge20_Node000015_Node000016" class="edge">
<title>Node15&#45;&gt;Node16</title>
<g id="a_edge20_Node000015_Node000016"><a xlink:title=" ">
<path fill="none" stroke="#63b8ff" d="M1327.58,-59.48C1339.83,-49.91 1354.11,-38.77 1365.14,-30.16"/>
<polygon fill="#63b8ff" stroke="#63b8ff" points="1325.21,-56.88 1319.48,-65.8 1329.52,-62.4 1325.21,-56.88"/>
</a>
</g>
</g>
<!-- Node18&#45;&gt;Node4 -->
<g id="edge23_Node000018_Node000004" class="edge">
<title>Node18&#45;&gt;Node4</title>
<g id="a_edge23_Node000018_Node000004"><a xlink:title=" ">
<path fill="none" stroke="#63b8ff" d="M1370.87,-63.05C1329.56,-50.64 1275.23,-34.31 1242.63,-24.52"/>
<polygon fill="#63b8ff" stroke="#63b8ff" points="1369.96,-66.43 1380.54,-65.95 1371.97,-59.73 1369.96,-66.43"/>
</a>
</g>
</g>
<!-- Node18&#45;&gt;Node17 -->
<g id="edge24_Node000018_Node000017" class="edge">
<title>Node18&#45;&gt;Node17</title>
<g id="a_edge24_Node000018_Node000017"><a xlink:title=" ">
<path fill="none" stroke="#63b8ff" d="M1453.58,-59.48C1465.83,-49.91 1480.11,-38.77 1491.14,-30.16"/>
<polygon fill="#63b8ff" stroke="#63b8ff" points="1451.21,-56.88 1445.48,-65.8 1455.52,-62.4 1451.21,-56.88"/>
</a>
</g>
</g>
<!-- Node21 -->
<g id="Node000021" class="node">
<title>Node21</title>
<g id="a_Node000021"><a xlink:href="HierarchyWidget_8cpp.html" target="_top" xlink:title=" ">
<polygon fill="white" stroke="#666666" points="1729.29,-24.5 1581.29,-24.5 1581.29,-5.5 1729.29,-5.5 1729.29,-24.5"/>
<text text-anchor="middle" x="1655.29" y="-12.5" font-family="Helvetica,sans-Serif" font-size="10.00">src/ui/HierarchyWidget.cpp</text>
</a>
</g>
</g>
<!-- Node20&#45;&gt;Node21 -->
<g id="edge27_Node000020_Node000021" class="edge">
<title>Node20&#45;&gt;Node21</title>
<g id="a_edge27_Node000020_Node000021"><a xlink:title=" ">
<path fill="none" stroke="#63b8ff" d="M1619.1,-63.27C1628.5,-50.99 1640.89,-34.8 1648.47,-24.91"/>
<polygon fill="#63b8ff" stroke="#63b8ff" points="1616.19,-61.3 1612.89,-71.37 1621.75,-65.56 1616.19,-61.3"/>
</a>
</g>
</g>
<!-- Node22 -->
<g id="Node000022" class="node">
<title>Node22</title>
<g id="a_Node000022"><a xlink:href="MainWindow_8cpp.html" target="_top" xlink:title=" ">
<polygon fill="white" stroke="#666666" points="2675.29,-24.5 2547.29,-24.5 2547.29,-5.5 2675.29,-5.5 2675.29,-24.5"/>
<text text-anchor="middle" x="2611.29" y="-12.5" font-family="Helvetica,sans-Serif" font-size="10.00">src/ui/MainWindow.cpp</text>
</a>
</g>
</g>
<!-- Node20&#45;&gt;Node22 -->
<g id="edge28_Node000020_Node000022" class="edge">
<title>Node20&#45;&gt;Node22</title>
<g id="a_edge28_Node000020_Node000022"><a xlink:title=" ">
<path fill="none" stroke="#63b8ff" d="M1658.26,-69.75C1666.92,-68.31 1675.84,-66.98 1684.29,-66 2007.07,-28.47 2396.43,-19.04 2547.27,-16.73"/>
<polygon fill="#63b8ff" stroke="#63b8ff" points="1657.5,-66.33 1648.24,-71.49 1658.69,-73.23 1657.5,-66.33"/>
</a>
</g>
</g>
<!-- Node30&#45;&gt;Node4 -->
<g id="edge37_Node000030_Node000004" class="edge">
<title>Node30&#45;&gt;Node4</title>
<g id="a_edge37_Node000030_Node000004"><a xlink:title=" ">
<path fill="none" stroke="#63b8ff" d="M3318.37,-126.96C3285.22,-109.02 3222.87,-78.21 3165.29,-66 2964.71,-23.47 1524.74,-45.45 1320.29,-30 1303.81,-28.76 1285.98,-26.68 1269.73,-24.51"/>
<polygon fill="#63b8ff" stroke="#63b8ff" points="3316.85,-130.12 3327.3,-131.87 3320.22,-123.98 3316.85,-130.12"/>
</a>
</g>
</g>
<!-- Node30&#45;&gt;Node13 -->
<g id="edge38_Node000030_Node000013" class="edge">
<title>Node30&#45;&gt;Node13</title>
<g id="a_edge38_Node000030_Node000013"><a xlink:title=" ">
<path fill="none" stroke="#63b8ff" d="M3290.95,-129.96C3235.93,-118.67 3149.67,-100.96 3098.78,-90.52"/>
<polygon fill="#63b8ff" stroke="#63b8ff" points="3290.34,-133.41 3300.84,-131.99 3291.75,-126.55 3290.34,-133.41"/>
</a>
</g>
</g>
<!-- Node31&#45;&gt;Node22 -->
<g id="edge45_Node000031_Node000022" class="edge">
<title>Node31&#45;&gt;Node22</title>
<g id="a_edge45_Node000031_Node000022"><a xlink:title=" ">
<path fill="none" stroke="#63b8ff" d="M3484.89,-127.61C3447.95,-110.24 3378.27,-79.89 3315.29,-66 3194.28,-39.31 2825.06,-23.59 2675.35,-18.16"/>
<polygon fill="#63b8ff" stroke="#63b8ff" points="3483.45,-130.8 3493.98,-131.93 3486.46,-124.48 3483.45,-130.8"/>
</a>
</g>
</g>
<!-- Node32 -->
<g id="Node000032" class="node">
<title>Node32</title>
<g id="a_Node000032"><a xlink:href="main_8cpp.html" target="_top" xlink:title=" ">
<polygon fill="white" stroke="#666666" points="3550.79,-90.5 3471.79,-90.5 3471.79,-71.5 3550.79,-71.5 3550.79,-90.5"/>
<text text-anchor="middle" x="3511.29" y="-78.5" font-family="Helvetica,sans-Serif" font-size="10.00">src/main.cpp</text>
</a>
</g>
</g>
<!-- Node31&#45;&gt;Node32 -->
<g id="edge44_Node000031_Node000032" class="edge">
<title>Node31&#45;&gt;Node32</title>
<g id="a_edge44_Node000031_Node000032"><a xlink:title=" ">
<path fill="none" stroke="#63b8ff" d="M3511.29,-121.66C3511.29,-111.24 3511.29,-98.8 3511.29,-90.67"/>
<polygon fill="#63b8ff" stroke="#63b8ff" points="3507.79,-121.87 3511.29,-131.87 3514.79,-121.87 3507.79,-121.87"/>
</a>
</g>
</g>
</g>
</svg>
