<?xml version="1.0" encoding="UTF-8" standalone="no"?>
<!DOCTYPE svg PUBLIC "-//W3C//DTD SVG 1.1//EN"
 "http://www.w3.org/Graphics/SVG/1.1/DTD/svg11.dtd">
<!-- Generated by graphviz version 2.43.0 (0)
 -->
<!-- Title: src/graphics/core/Scene.h Pages: 1 -->
<!--zoomable 500 -->

<svg id="main" version="1.1" xmlns="http://www.w3.org/2000/svg" xmlns:xlink="http://www.w3.org/1999/xlink" xml:space="preserve" onload="init(evt)">
<style type="text/css"><![CDATA[
.node, .edge {opacity: 0.7;}
.node.selected, .edge.selected {opacity: 1;}
.edge:hover path { stroke: red; }
.edge:hover polygon { stroke: red; fill: red; }
]]></style>

<defs>
  <circle id="rim" cx="0" cy="0" r="7"/>
  <circle id="rim2" cx="0" cy="0" r="3.5"/>
  <g id="zoomPlus">
    <use xlink:href="#rim" fill="#404040"><set attributeName="fill" to="#808080" begin="zoomplus.mouseover" end="zoomplus.mouseout"/></use>
    <path d="M-4,0h8M0,-4v8" fill="none" stroke="white" stroke-width="1.5" pointer-events="none"/>
  </g>
  <g id="zoomMin">
    <use xlink:href="#rim" fill="#404040"><set attributeName="fill" to="#808080" begin="zoomminus.mouseover" end="zoomminus.mouseout"/></use>
    <path d="M-4,0h8" fill="none" stroke="white" stroke-width="1.5" pointer-events="none"/>
  </g>
  <g id="arrowUp" transform="translate(30 24)">
    <use xlink:href="#rim"/>
    <path pointer-events="none" fill="none" stroke="white" stroke-width="1.5" d="M0,-3.0v7 M-2.5,-0.5L0,-3.0L2.5,-0.5"/>
  </g>
  <g id="arrowRight" transform="rotate(90) translate(36 -43)">
    <use xlink:href="#rim"/>
    <path pointer-events="none" fill="none" stroke="white" stroke-width="1.5" d="M0,-3.0v7 M-2.5,-0.5L0,-3.0L2.5,-0.5"/>
  </g>
  <g id="arrowDown" transform="rotate(180) translate(-30 -48)">
    <use xlink:href="#rim"/>
    <path pointer-events="none" fill="none" stroke="white" stroke-width="1.5" d="M0,-3.0v7 M-2.5,-0.5L0,-3.0L2.5,-0.5"/>
  </g>
  <g id="arrowLeft" transform="rotate(270) translate(-36 17)">
    <use xlink:href="#rim"/>
    <path pointer-events="none" fill="none" stroke="white" stroke-width="1.5" d="M0,-3.0v7 M-2.5,-0.5L0,-3.0L2.5,-0.5"/>
  </g>
  <g id="resetDef">
    <use xlink:href="#rim2" fill="#404040"><set attributeName="fill" to="#808080" begin="reset.mouseover" end="reset.mouseout"/></use>
  </g>
</defs>
<script type="application/ecmascript">
var viewWidth = 844;
var viewHeight = 500;
var sectionId = 'dynsection-0';
</script>
<script type="application/ecmascript" xlink:href="svg.min.js"/>
<svg id="graph" class="graph">
<g id="viewport">
<title>src/graphics/core/Scene.h</title>
<!-- Node1 -->
<g id="Node000001" class="node">
<title>Node1</title>
<g id="a_Node000001"><a xlink:title=" ">
<polygon fill="#999999" stroke="#666666" points="688,-492 548,-492 548,-473 688,-473 688,-492"/>
<text text-anchor="middle" x="618" y="-480" font-family="Helvetica,sans-Serif" font-size="10.00">src/graphics/core/Scene.h</text>
</a>
</g>
</g>
<!-- Node2 -->
<g id="Node000002" class="node">
<title>Node2</title>
<g id="a_Node000002"><a xlink:href="Camera_8h.html" target="_top" xlink:title=" ">
<polygon fill="white" stroke="#666666" points="132,-371 0,-371 0,-352 132,-352 132,-371"/>
<text text-anchor="middle" x="66" y="-359" font-family="Helvetica,sans-Serif" font-size="10.00">graphics/core/Camera.h</text>
</a>
</g>
</g>
<!-- Node1&#45;&gt;Node2 -->
<g id="edge1_Node000001_Node000002" class="edge">
<title>Node1&#45;&gt;Node2</title>
<g id="a_edge1_Node000001_Node000002"><a xlink:title=" ">
<path fill="none" stroke="#63b8ff" d="M547.78,-480.7C467.35,-478.18 332.32,-468.99 221,-437 171.29,-422.71 117.87,-393.64 88.53,-376.34"/>
<polygon fill="#63b8ff" stroke="#63b8ff" points="90.27,-373.3 79.89,-371.17 86.67,-379.31 90.27,-373.3"/>
</a>
</g>
</g>
<!-- Node4 -->
<g id="Node000004" class="node">
<title>Node4</title>
<g id="a_Node000004"><a xlink:href="Gizmo_8h.html" target="_top" xlink:title="Interactive 3D manipulation gizmo for scene objects.">
<polygon fill="white" stroke="#666666" points="351.5,-437 230.5,-437 230.5,-407 351.5,-407 351.5,-437"/>
<text text-anchor="start" x="238.5" y="-425" font-family="Helvetica,sans-Serif" font-size="10.00">graphics/components</text>
<text text-anchor="middle" x="291" y="-414" font-family="Helvetica,sans-Serif" font-size="10.00">/Gizmo.h</text>
</a>
</g>
</g>
<!-- Node1&#45;&gt;Node4 -->
<g id="edge3_Node000001_Node000004" class="edge">
<title>Node1&#45;&gt;Node4</title>
<g id="a_edge3_Node000001_Node000004"><a xlink:title=" ">
<path fill="none" stroke="#63b8ff" d="M570.45,-472.99C515.55,-463.17 424.72,-446.92 361.58,-435.63"/>
<polygon fill="#63b8ff" stroke="#63b8ff" points="362.15,-432.17 351.69,-433.86 360.92,-439.06 362.15,-432.17"/>
</a>
</g>
</g>
<!-- Node11 -->
<g id="Node000011" class="node">
<title>Node11</title>
<g id="a_Node000011"><a xlink:title=" ">
<polygon fill="#e0e0e0" stroke="#999999" points="655.5,-189.5 608.5,-189.5 608.5,-170.5 655.5,-170.5 655.5,-189.5"/>
<text text-anchor="middle" x="632" y="-177.5" font-family="Helvetica,sans-Serif" font-size="10.00">vector</text>
</a>
</g>
</g>
<!-- Node1&#45;&gt;Node11 -->
<g id="edge38_Node000001_Node000011" class="edge">
<title>Node1&#45;&gt;Node11</title>
<g id="a_edge38_Node000001_Node000011"><a xlink:title=" ">
<path fill="none" stroke="#63b8ff" d="M618,-472.84C618,-453.21 618,-403.82 618,-362.5 618,-362.5 618,-362.5 618,-305.5 618,-267.76 624.43,-223.98 628.58,-199.69"/>
<polygon fill="#63b8ff" stroke="#63b8ff" points="632.05,-200.17 630.34,-189.72 625.15,-198.96 632.05,-200.17"/>
</a>
</g>
</g>
<!-- Node22 -->
<g id="Node000022" class="node">
<title>Node22</title>
<g id="a_Node000022"><a xlink:href="MathUtils_8h.html" target="_top" xlink:title="Mathematical utility functions for 3D graphics and physics.">
<polygon fill="white" stroke="#666666" points="747.5,-255.5 646.5,-255.5 646.5,-236.5 747.5,-236.5 747.5,-255.5"/>
<text text-anchor="middle" x="697" y="-243.5" font-family="Helvetica,sans-Serif" font-size="10.00">math/MathUtils.h</text>
</a>
</g>
</g>
<!-- Node1&#45;&gt;Node22 -->
<g id="edge31_Node000001_Node000022" class="edge">
<title>Node1&#45;&gt;Node22</title>
<g id="a_edge31_Node000001_Node000022"><a xlink:title=" ">
<path fill="none" stroke="#63b8ff" d="M620.91,-472.88C632.37,-438.84 674.64,-313.37 690.73,-265.62"/>
<polygon fill="#63b8ff" stroke="#63b8ff" points="694.11,-266.55 693.98,-255.95 687.47,-264.31 694.11,-266.55"/>
</a>
</g>
</g>
<!-- Node23 -->
<g id="Node000023" class="node">
<title>Node23</title>
<g id="a_Node000023"><a xlink:href="UniformBuffer_8h.html" target="_top" xlink:title=" ">
<polygon fill="white" stroke="#666666" points="552,-371 390,-371 390,-352 552,-352 552,-371"/>
<text text-anchor="middle" x="471" y="-359" font-family="Helvetica,sans-Serif" font-size="10.00">graphics/core/UniformBuffer.h</text>
</a>
</g>
</g>
<!-- Node1&#45;&gt;Node23 -->
<g id="edge36_Node000001_Node000023" class="edge">
<title>Node1&#45;&gt;Node23</title>
<g id="a_edge36_Node000001_Node000023"><a xlink:title=" ">
<path fill="none" stroke="#63b8ff" d="M607.43,-472.94C582.76,-452.97 521.11,-403.06 489.83,-377.75"/>
<polygon fill="#63b8ff" stroke="#63b8ff" points="491.85,-374.87 481.87,-371.3 487.44,-380.31 491.85,-374.87"/>
</a>
</g>
</g>
<!-- Node24 -->
<g id="Node000024" class="node">
<title>Node24</title>
<g id="a_Node000024"><a xlink:title=" ">
<polygon fill="#e0e0e0" stroke="#999999" points="731.5,-431.5 684.5,-431.5 684.5,-412.5 731.5,-412.5 731.5,-431.5"/>
<text text-anchor="middle" x="708" y="-419.5" font-family="Helvetica,sans-Serif" font-size="10.00">deque</text>
</a>
</g>
</g>
<!-- Node1&#45;&gt;Node24 -->
<g id="edge39_Node000001_Node000024" class="edge">
<title>Node1&#45;&gt;Node24</title>
<g id="a_edge39_Node000001_Node000024"><a xlink:title=" ">
<path fill="none" stroke="#63b8ff" d="M631.28,-472.87C645.64,-463.54 668.76,-448.51 685.87,-437.38"/>
<polygon fill="#63b8ff" stroke="#63b8ff" points="688.19,-440.05 694.67,-431.67 684.37,-434.18 688.19,-440.05"/>
</a>
</g>
</g>
<!-- Node25 -->
<g id="Node000025" class="node">
<title>Node25</title>
<g id="a_Node000025"><a xlink:title=" ">
<polygon fill="#e0e0e0" stroke="#999999" points="836,-431.5 750,-431.5 750,-412.5 836,-412.5 836,-431.5"/>
<text text-anchor="middle" x="793" y="-419.5" font-family="Helvetica,sans-Serif" font-size="10.00">unordered_set</text>
</a>
</g>
</g>
<!-- Node1&#45;&gt;Node25 -->
<g id="edge40_Node000001_Node000025" class="edge">
<title>Node1&#45;&gt;Node25</title>
<g id="a_edge40_Node000001_Node000025"><a xlink:title=" ">
<path fill="none" stroke="#63b8ff" d="M643.45,-472.99C673.64,-462.9 724.16,-446.01 758.02,-434.69"/>
<polygon fill="#63b8ff" stroke="#63b8ff" points="759.15,-438.01 767.52,-431.52 756.93,-431.37 759.15,-438.01"/>
</a>
</g>
</g>
<!-- Node3 -->
<g id="Node000003" class="node">
<title>Node3</title>
<g id="a_Node000003"><a xlink:title=" ">
<polygon fill="#e0e0e0" stroke="#999999" points="423,-74 345,-74 345,-55 423,-55 423,-74"/>
<text text-anchor="middle" x="384" y="-62" font-family="Helvetica,sans-Serif" font-size="10.00">glm/glm.hpp</text>
</a>
</g>
</g>
<!-- Node2&#45;&gt;Node3 -->
<g id="edge2_Node000002_Node000003" class="edge">
<title>Node2&#45;&gt;Node3</title>
<g id="a_edge2_Node000002_Node000003"><a xlink:title=" ">
<path fill="none" stroke="#63b8ff" d="M66.25,-351.96C66.79,-333.05 68,-286.22 68,-247 68,-247 68,-247 68,-179 68,-131.03 107.62,-130.48 151,-110 210.28,-82.01 285.92,-71.62 334.66,-67.77"/>
<polygon fill="#63b8ff" stroke="#63b8ff" points="334.92,-71.26 344.64,-67.04 334.41,-64.28 334.92,-71.26"/>
</a>
</g>
</g>
<!-- Node4&#45;&gt;Node2 -->
<g id="edge8_Node000004_Node000002" class="edge">
<title>Node4&#45;&gt;Node2</title>
<g id="a_edge8_Node000004_Node000002"><a xlink:title=" ">
<path fill="none" stroke="#63b8ff" d="M237.11,-406.99C197.77,-396.76 145.18,-383.09 108.73,-373.61"/>
<polygon fill="#63b8ff" stroke="#63b8ff" points="109.46,-370.18 98.9,-371.05 107.7,-376.96 109.46,-370.18"/>
</a>
</g>
</g>
<!-- Node5 -->
<g id="Node000005" class="node">
<title>Node5</title>
<g id="a_Node000005"><a xlink:href="Shader_8h.html" target="_top" xlink:title=" ">
<polygon fill="white" stroke="#666666" points="218.5,-261 97.5,-261 97.5,-231 218.5,-231 218.5,-261"/>
<text text-anchor="start" x="105.5" y="-249" font-family="Helvetica,sans-Serif" font-size="10.00">graphics/components</text>
<text text-anchor="middle" x="158" y="-238" font-family="Helvetica,sans-Serif" font-size="10.00">/Shader.h</text>
</a>
</g>
</g>
<!-- Node4&#45;&gt;Node5 -->
<g id="edge4_Node000004_Node000005" class="edge">
<title>Node4&#45;&gt;Node5</title>
<g id="a_edge4_Node000004_Node000005"><a xlink:title=" ">
<path fill="none" stroke="#63b8ff" d="M257.45,-406.88C223.54,-390.56 173.08,-360.16 151,-316 144.05,-302.1 145.89,-284.67 149.42,-270.81"/>
<polygon fill="#63b8ff" stroke="#63b8ff" points="152.84,-271.6 152.33,-261.02 146.13,-269.61 152.84,-271.6"/>
</a>
</g>
</g>
<!-- Node8 -->
<g id="Node000008" class="node">
<title>Node8</title>
<g id="a_Node000008"><a xlink:href="IHandle_8h.html" target="_top" xlink:title="Interface for interactive manipulation handles on gizmos.">
<polygon fill="white" stroke="#666666" points="322.5,-371 259.5,-371 259.5,-352 322.5,-352 322.5,-371"/>
<text text-anchor="middle" x="291" y="-359" font-family="Helvetica,sans-Serif" font-size="10.00">IHandle.h</text>
</a>
</g>
</g>
<!-- Node4&#45;&gt;Node8 -->
<g id="edge9_Node000004_Node000008" class="edge">
<title>Node4&#45;&gt;Node8</title>
<g id="a_edge9_Node000004_Node000008"><a xlink:title=" ">
<path fill="none" stroke="#63b8ff" d="M291,-406.84C291,-399.21 291,-389.7 291,-381.45"/>
<polygon fill="#63b8ff" stroke="#63b8ff" points="294.5,-381.27 291,-371.27 287.5,-381.27 294.5,-381.27"/>
</a>
</g>
</g>
<!-- Node21 -->
<g id="Node000021" class="node">
<title>Node21</title>
<g id="a_Node000021"><a xlink:href="IPickable_8h.html" target="_top" xlink:title="Interface for objects that support mouse&#45;based selection and interaction.">
<polygon fill="white" stroke="#666666" points="733,-129 631,-129 631,-110 733,-110 733,-129"/>
<text text-anchor="middle" x="682" y="-117" font-family="Helvetica,sans-Serif" font-size="10.00">../core/IPickable.h</text>
</a>
</g>
</g>
<!-- Node4&#45;&gt;Node21 -->
<g id="edge28_Node000004_Node000021" class="edge">
<title>Node4&#45;&gt;Node21</title>
<g id="a_edge28_Node000004_Node000021"><a xlink:title=" ">
<path fill="none" stroke="#63b8ff" d="M351.73,-417.03C421.68,-411.24 530.85,-398.07 561,-371 582.92,-351.32 580,-336.96 580,-307.5 580,-307.5 580,-307.5 580,-245 580,-208.35 577.55,-193.97 600,-165 611.26,-150.47 628.64,-140.08 644.51,-133.02"/>
<polygon fill="#63b8ff" stroke="#63b8ff" points="646.23,-136.09 654.13,-129.04 643.55,-129.63 646.23,-136.09"/>
</a>
</g>
</g>
<!-- Node5&#45;&gt;Node3 -->
<g id="edge6_Node000005_Node000003" class="edge">
<title>Node5&#45;&gt;Node3</title>
<g id="a_edge6_Node000005_Node000003"><a xlink:title=" ">
<path fill="none" stroke="#63b8ff" d="M145.67,-230.94C133.1,-214.82 116.8,-187.69 127,-165 142.11,-131.4 156.24,-126.85 189,-110 235.12,-86.28 293.79,-75.09 334.68,-69.89"/>
<polygon fill="#63b8ff" stroke="#63b8ff" points="335.16,-73.35 344.67,-68.69 334.32,-66.4 335.16,-73.35"/>
</a>
</g>
</g>
<!-- Node6 -->
<g id="Node000006" class="node">
<title>Node6</title>
<g id="a_Node000006"><a xlink:title=" ">
<polygon fill="#e0e0e0" stroke="#999999" points="180,-189.5 136,-189.5 136,-170.5 180,-170.5 180,-189.5"/>
<text text-anchor="middle" x="158" y="-177.5" font-family="Helvetica,sans-Serif" font-size="10.00">string</text>
</a>
</g>
</g>
<!-- Node5&#45;&gt;Node6 -->
<g id="edge5_Node000005_Node000006" class="edge">
<title>Node5&#45;&gt;Node6</title>
<g id="a_edge5_Node000005_Node000006"><a xlink:title=" ">
<path fill="none" stroke="#63b8ff" d="M158,-230.8C158,-221.7 158,-209.79 158,-199.9"/>
<polygon fill="#63b8ff" stroke="#63b8ff" points="161.5,-199.84 158,-189.84 154.5,-199.84 161.5,-199.84"/>
</a>
</g>
</g>
<!-- Node7 -->
<g id="Node000007" class="node">
<title>Node7</title>
<g id="a_Node000007"><a xlink:title=" ">
<polygon fill="#e0e0e0" stroke="#999999" points="318,-195 198,-195 198,-165 318,-165 318,-195"/>
<text text-anchor="start" x="206" y="-183" font-family="Helvetica,sans-Serif" font-size="10.00">QOpenGLFunctions_4</text>
<text text-anchor="middle" x="258" y="-172" font-family="Helvetica,sans-Serif" font-size="10.00">_5_Core</text>
</a>
</g>
</g>
<!-- Node5&#45;&gt;Node7 -->
<g id="edge7_Node000005_Node000007" class="edge">
<title>Node5&#45;&gt;Node7</title>
<g id="a_edge7_Node000005_Node000007"><a xlink:title=" ">
<path fill="none" stroke="#63b8ff" d="M180.19,-230.8C194.05,-221.93 212.07,-210.39 227.29,-200.66"/>
<polygon fill="#63b8ff" stroke="#63b8ff" points="229.33,-203.5 235.87,-195.16 225.56,-197.61 229.33,-203.5"/>
</a>
</g>
</g>
<!-- Node9 -->
<g id="Node000009" class="node">
<title>Node9</title>
<g id="a_Node000009"><a xlink:href="IDrawable_8h.html" target="_top" xlink:title="Core interfaces for the rendering system supporting both instanced and custom drawing.">
<polygon fill="white" stroke="#666666" points="482,-316 374,-316 374,-297 482,-297 482,-316"/>
<text text-anchor="middle" x="428" y="-304" font-family="Helvetica,sans-Serif" font-size="10.00">../core/IDrawable.h</text>
</a>
</g>
</g>
<!-- Node8&#45;&gt;Node9 -->
<g id="edge10_Node000008_Node000009" class="edge">
<title>Node8&#45;&gt;Node9</title>
<g id="a_edge10_Node000008_Node000009"><a xlink:title=" ">
<path fill="none" stroke="#63b8ff" d="M313.01,-351.98C335.45,-343.3 370.48,-329.75 395.99,-319.88"/>
<polygon fill="#63b8ff" stroke="#63b8ff" points="397.52,-323.04 405.59,-316.17 395,-316.51 397.52,-323.04"/>
</a>
</g>
</g>
<!-- Node19 -->
<g id="Node000019" class="node">
<title>Node19</title>
<g id="a_Node000019"><a xlink:title=" ">
<polygon fill="#e0e0e0" stroke="#999999" points="356,-316 226,-316 226,-297 356,-297 356,-316"/>
<text text-anchor="middle" x="291" y="-304" font-family="Helvetica,sans-Serif" font-size="10.00">glm/gtc/quaternion.hpp</text>
</a>
</g>
</g>
<!-- Node8&#45;&gt;Node19 -->
<g id="edge26_Node000008_Node000019" class="edge">
<title>Node8&#45;&gt;Node19</title>
<g id="a_edge26_Node000008_Node000019"><a xlink:title=" ">
<path fill="none" stroke="#63b8ff" d="M291,-351.75C291,-344.8 291,-334.85 291,-326.13"/>
<polygon fill="#63b8ff" stroke="#63b8ff" points="294.5,-326.09 291,-316.09 287.5,-326.09 294.5,-326.09"/>
</a>
</g>
</g>
<!-- Node20 -->
<g id="Node000020" class="node">
<title>Node20</title>
<g id="a_Node000020"><a xlink:href="Axis_8h.html" target="_top" xlink:title=" ">
<polygon fill="white" stroke="#666666" points="207.5,-316 160.5,-316 160.5,-297 207.5,-297 207.5,-316"/>
<text text-anchor="middle" x="184" y="-304" font-family="Helvetica,sans-Serif" font-size="10.00">Axis.h</text>
</a>
</g>
</g>
<!-- Node8&#45;&gt;Node20 -->
<g id="edge27_Node000008_Node000020" class="edge">
<title>Node8&#45;&gt;Node20</title>
<g id="a_edge27_Node000008_Node000020"><a xlink:title=" ">
<path fill="none" stroke="#63b8ff" d="M273.81,-351.98C256.75,-343.54 230.37,-330.47 210.6,-320.68"/>
<polygon fill="#63b8ff" stroke="#63b8ff" points="212.02,-317.47 201.5,-316.17 208.91,-323.75 212.02,-317.47"/>
</a>
</g>
</g>
<!-- Node9&#45;&gt;Node5 -->
<g id="edge11_Node000009_Node000005" class="edge">
<title>Node9&#45;&gt;Node5</title>
<g id="a_edge11_Node000009_Node000005"><a xlink:title=" ">
<path fill="none" stroke="#63b8ff" d="M388.74,-296.99C346.85,-287.92 279.62,-273.35 228.52,-262.28"/>
<polygon fill="#63b8ff" stroke="#63b8ff" points="229.03,-258.81 218.52,-260.11 227.55,-265.65 229.03,-258.81"/>
</a>
</g>
</g>
<!-- Node10 -->
<g id="Node000010" class="node">
<title>Node10</title>
<g id="a_Node000010"><a xlink:href="Mesh_8h.html" target="_top" xlink:title=" ">
<polygon fill="white" stroke="#666666" points="542.5,-261 421.5,-261 421.5,-231 542.5,-231 542.5,-261"/>
<text text-anchor="start" x="429.5" y="-249" font-family="Helvetica,sans-Serif" font-size="10.00">graphics/components</text>
<text text-anchor="middle" x="482" y="-238" font-family="Helvetica,sans-Serif" font-size="10.00">/Mesh.h</text>
</a>
</g>
</g>
<!-- Node9&#45;&gt;Node10 -->
<g id="edge12_Node000009_Node000010" class="edge">
<title>Node9&#45;&gt;Node10</title>
<g id="a_edge12_Node000009_Node000010"><a xlink:title=" ">
<path fill="none" stroke="#63b8ff" d="M435.97,-296.87C442.82,-289.44 453,-278.42 462.05,-268.62"/>
<polygon fill="#63b8ff" stroke="#63b8ff" points="464.76,-270.84 468.97,-261.11 459.62,-266.09 464.76,-270.84"/>
</a>
</g>
</g>
<!-- Node10&#45;&gt;Node3 -->
<g id="edge15_Node000010_Node000003" class="edge">
<title>Node10&#45;&gt;Node3</title>
<g id="a_edge15_Node000010_Node000003"><a xlink:title=" ">
<path fill="none" stroke="#63b8ff" d="M446.57,-230.87C430.74,-222.74 413.35,-210.93 403,-195 380.89,-160.97 380.38,-111.4 382.1,-84.53"/>
<polygon fill="#63b8ff" stroke="#63b8ff" points="385.61,-84.47 382.94,-74.22 378.64,-83.9 385.61,-84.47"/>
</a>
</g>
</g>
<!-- Node10&#45;&gt;Node7 -->
<g id="edge13_Node000010_Node000007" class="edge">
<title>Node10&#45;&gt;Node7</title>
<g id="a_edge13_Node000010_Node000007"><a xlink:title=" ">
<path fill="none" stroke="#63b8ff" d="M432.84,-230.95C398.7,-221.2 353.05,-208.16 316.95,-197.84"/>
<polygon fill="#63b8ff" stroke="#63b8ff" points="317.62,-194.39 307.04,-195.01 315.7,-201.12 317.62,-194.39"/>
</a>
</g>
</g>
<!-- Node10&#45;&gt;Node11 -->
<g id="edge14_Node000010_Node000011" class="edge">
<title>Node10&#45;&gt;Node11</title>
<g id="a_edge14_Node000010_Node000011"><a xlink:title=" ">
<path fill="none" stroke="#63b8ff" d="M514.92,-230.95C541.11,-219.78 577.42,-204.29 602.63,-193.53"/>
<polygon fill="#63b8ff" stroke="#63b8ff" points="604.21,-196.66 612.04,-189.52 601.47,-190.22 604.21,-196.66"/>
</a>
</g>
</g>
<!-- Node12 -->
<g id="Node000012" class="node">
<title>Node12</title>
<g id="a_Node000012"><a xlink:href="AABB_8h.html" target="_top" xlink:title=" ">
<polygon fill="white" stroke="#666666" points="552,-189.5 412,-189.5 412,-170.5 552,-170.5 552,-189.5"/>
<text text-anchor="middle" x="482" y="-177.5" font-family="Helvetica,sans-Serif" font-size="10.00">physics/bounding/AABB.h</text>
</a>
</g>
</g>
<!-- Node10&#45;&gt;Node12 -->
<g id="edge16_Node000010_Node000012" class="edge">
<title>Node10&#45;&gt;Node12</title>
<g id="a_edge16_Node000010_Node000012"><a xlink:title=" ">
<path fill="none" stroke="#63b8ff" d="M482,-230.8C482,-221.7 482,-209.79 482,-199.9"/>
<polygon fill="#63b8ff" stroke="#63b8ff" points="485.5,-199.84 482,-189.84 478.5,-199.84 485.5,-199.84"/>
</a>
</g>
</g>
<!-- Node18 -->
<g id="Node000018" class="node">
<title>Node18</title>
<g id="a_Node000018"><a xlink:href="InstanceData_8h.html" target="_top" xlink:title=" ">
<polygon fill="white" stroke="#666666" points="356,-129 198,-129 198,-110 356,-110 356,-129"/>
<text text-anchor="middle" x="277" y="-117" font-family="Helvetica,sans-Serif" font-size="10.00">graphics/core/InstanceData.h</text>
</a>
</g>
</g>
<!-- Node10&#45;&gt;Node18 -->
<g id="edge24_Node000010_Node000018" class="edge">
<title>Node10&#45;&gt;Node18</title>
<g id="a_edge24_Node000010_Node000018"><a xlink:title=" ">
<path fill="none" stroke="#63b8ff" d="M444.23,-230.96C421.93,-221.98 393.54,-209.36 370,-195 341.46,-177.6 311.91,-152.49 293.98,-136.33"/>
<polygon fill="#63b8ff" stroke="#63b8ff" points="295.91,-133.35 286.17,-129.19 291.19,-138.52 295.91,-133.35"/>
</a>
</g>
</g>
<!-- Node12&#45;&gt;Node3 -->
<g id="edge17_Node000012_Node000003" class="edge">
<title>Node12&#45;&gt;Node3</title>
<g id="a_edge17_Node000012_Node000003"><a xlink:title=" ">
<path fill="none" stroke="#63b8ff" d="M474.63,-170.47C458.39,-151.65 419.25,-106.32 398.11,-81.84"/>
<polygon fill="#63b8ff" stroke="#63b8ff" points="400.64,-79.41 391.45,-74.13 395.34,-83.99 400.64,-79.41"/>
</a>
</g>
</g>
<!-- Node13 -->
<g id="Node000013" class="node">
<title>Node13</title>
<g id="a_Node000013"><a xlink:href="ICollider_8h.html" target="_top" xlink:title="Abstract interface for collision detection shapes.">
<polygon fill="white" stroke="#666666" points="612.5,-129 547.5,-129 547.5,-110 612.5,-110 612.5,-129"/>
<text text-anchor="middle" x="580" y="-117" font-family="Helvetica,sans-Serif" font-size="10.00">ICollider.h</text>
</a>
</g>
</g>
<!-- Node12&#45;&gt;Node13 -->
<g id="edge18_Node000012_Node000013" class="edge">
<title>Node12&#45;&gt;Node13</title>
<g id="a_edge18_Node000012_Node000013"><a xlink:title=" ">
<path fill="none" stroke="#63b8ff" d="M496.46,-170.37C512.31,-160.91 537.97,-145.59 556.68,-134.42"/>
<polygon fill="#63b8ff" stroke="#63b8ff" points="558.69,-137.3 565.48,-129.17 555.1,-131.29 558.69,-137.3"/>
</a>
</g>
</g>
<!-- Node13&#45;&gt;Node3 -->
<g id="edge19_Node000013_Node000003" class="edge">
<title>Node13&#45;&gt;Node3</title>
<g id="a_edge19_Node000013_Node000003"><a xlink:title=" ">
<path fill="none" stroke="#63b8ff" d="M548.51,-109.98C515.18,-100.97 462.4,-86.7 425.65,-76.76"/>
<polygon fill="#63b8ff" stroke="#63b8ff" points="426.3,-73.31 415.74,-74.08 424.48,-80.07 426.3,-73.31"/>
</a>
</g>
</g>
<!-- Node14 -->
<g id="Node000014" class="node">
<title>Node14</title>
<g id="a_Node000014"><a xlink:title=" ">
<polygon fill="#e0e0e0" stroke="#999999" points="577,-74 519,-74 519,-55 577,-55 577,-74"/>
<text text-anchor="middle" x="548" y="-62" font-family="Helvetica,sans-Serif" font-size="10.00">memory</text>
</a>
</g>
</g>
<!-- Node13&#45;&gt;Node14 -->
<g id="edge20_Node000013_Node000014" class="edge">
<title>Node13&#45;&gt;Node14</title>
<g id="a_edge20_Node000013_Node000014"><a xlink:title=" ">
<path fill="none" stroke="#63b8ff" d="M574.72,-109.75C570.29,-102.42 563.84,-91.73 558.38,-82.7"/>
<polygon fill="#63b8ff" stroke="#63b8ff" points="561.35,-80.84 553.19,-74.09 555.36,-84.46 561.35,-80.84"/>
</a>
</g>
</g>
<!-- Node15 -->
<g id="Node000015" class="node">
<title>Node15</title>
<g id="a_Node000015"><a xlink:title=" ">
<polygon fill="#e0e0e0" stroke="#999999" points="741,-74 685,-74 685,-55 741,-55 741,-74"/>
<text text-anchor="middle" x="713" y="-62" font-family="Helvetica,sans-Serif" font-size="10.00">optional</text>
</a>
</g>
</g>
<!-- Node13&#45;&gt;Node15 -->
<g id="edge21_Node000013_Node000015" class="edge">
<title>Node13&#45;&gt;Node15</title>
<g id="a_edge21_Node000013_Node000015"><a xlink:title=" ">
<path fill="none" stroke="#63b8ff" d="M601.37,-109.98C623.15,-101.3 657.16,-87.75 681.92,-77.88"/>
<polygon fill="#63b8ff" stroke="#63b8ff" points="683.25,-81.12 691.24,-74.17 680.66,-74.62 683.25,-81.12"/>
</a>
</g>
</g>
<!-- Node16 -->
<g id="Node000016" class="node">
<title>Node16</title>
<g id="a_Node000016"><a xlink:href="Ray_8h.html" target="_top" xlink:title=" ">
<polygon fill="white" stroke="#666666" points="666.5,-74 595.5,-74 595.5,-55 666.5,-55 666.5,-74"/>
<text text-anchor="middle" x="631" y="-62" font-family="Helvetica,sans-Serif" font-size="10.00">math/Ray.h</text>
</a>
</g>
</g>
<!-- Node13&#45;&gt;Node16 -->
<g id="edge22_Node000013_Node000016" class="edge">
<title>Node13&#45;&gt;Node16</title>
<g id="a_edge22_Node000013_Node000016"><a xlink:title=" ">
<path fill="none" stroke="#63b8ff" d="M588.42,-109.75C595.77,-102.11 606.63,-90.82 615.54,-81.56"/>
<polygon fill="#63b8ff" stroke="#63b8ff" points="618.32,-83.72 622.74,-74.09 613.28,-78.87 618.32,-83.72"/>
</a>
</g>
</g>
<!-- Node17 -->
<g id="Node000017" class="node">
<title>Node17</title>
<g id="a_Node000017"><a xlink:title=" ">
<polygon fill="#e0e0e0" stroke="#999999" points="672.5,-19 589.5,-19 589.5,0 672.5,0 672.5,-19"/>
<text text-anchor="middle" x="631" y="-7" font-family="Helvetica,sans-Serif" font-size="10.00">glm/vec3.hpp</text>
</a>
</g>
</g>
<!-- Node16&#45;&gt;Node17 -->
<g id="edge23_Node000016_Node000017" class="edge">
<title>Node16&#45;&gt;Node17</title>
<g id="a_edge23_Node000016_Node000017"><a xlink:title=" ">
<path fill="none" stroke="#63b8ff" d="M631,-54.75C631,-47.8 631,-37.85 631,-29.13"/>
<polygon fill="#63b8ff" stroke="#63b8ff" points="634.5,-29.09 631,-19.09 627.5,-29.09 634.5,-29.09"/>
</a>
</g>
</g>
<!-- Node18&#45;&gt;Node3 -->
<g id="edge25_Node000018_Node000003" class="edge">
<title>Node18&#45;&gt;Node3</title>
<g id="a_edge25_Node000018_Node000003"><a xlink:title=" ">
<path fill="none" stroke="#63b8ff" d="M294.19,-109.98C311.25,-101.54 337.63,-88.47 357.4,-78.68"/>
<polygon fill="#63b8ff" stroke="#63b8ff" points="359.09,-81.75 366.5,-74.17 355.98,-75.47 359.09,-81.75"/>
</a>
</g>
</g>
<!-- Node21&#45;&gt;Node15 -->
<g id="edge30_Node000021_Node000015" class="edge">
<title>Node21&#45;&gt;Node15</title>
<g id="a_edge30_Node000021_Node000015"><a xlink:title=" ">
<path fill="none" stroke="#63b8ff" d="M687.12,-109.75C691.36,-102.49 697.53,-91.95 702.78,-82.98"/>
<polygon fill="#63b8ff" stroke="#63b8ff" points="705.95,-84.49 707.98,-74.09 699.91,-80.95 705.95,-84.49"/>
</a>
</g>
</g>
<!-- Node21&#45;&gt;Node16 -->
<g id="edge29_Node000021_Node000016" class="edge">
<title>Node21&#45;&gt;Node16</title>
<g id="a_edge29_Node000021_Node000016"><a xlink:title=" ">
<path fill="none" stroke="#63b8ff" d="M673.58,-109.75C666.23,-102.11 655.37,-90.82 646.46,-81.56"/>
<polygon fill="#63b8ff" stroke="#63b8ff" points="648.72,-78.87 639.26,-74.09 643.68,-83.72 648.72,-78.87"/>
</a>
</g>
</g>
<!-- Node22&#45;&gt;Node3 -->
<g id="edge32_Node000022_Node000003" class="edge">
<title>Node22&#45;&gt;Node3</title>
<g id="a_edge32_Node000022_Node000003"><a xlink:title=" ">
<path fill="none" stroke="#63b8ff" d="M696,-236.1C693.67,-219.61 686.34,-184.22 665,-165 621.41,-125.73 593.43,-148.21 538,-129 493.13,-113.45 442.45,-91.72 411.88,-78.13"/>
<polygon fill="#63b8ff" stroke="#63b8ff" points="413.26,-74.91 402.7,-74.03 410.4,-81.3 413.26,-74.91"/>
</a>
</g>
</g>
<!-- Node22&#45;&gt;Node11 -->
<g id="edge33_Node000022_Node000011" class="edge">
<title>Node22&#45;&gt;Node11</title>
<g id="a_edge33_Node000022_Node000011"><a xlink:title=" ">
<path fill="none" stroke="#63b8ff" d="M688.23,-236.37C678.02,-226.31 660.92,-209.48 648.26,-197.01"/>
<polygon fill="#63b8ff" stroke="#63b8ff" points="650.63,-194.43 641.04,-189.91 645.71,-199.42 650.63,-194.43"/>
</a>
</g>
</g>
<!-- Node22&#45;&gt;Node15 -->
<g id="edge34_Node000022_Node000015" class="edge">
<title>Node22&#45;&gt;Node15</title>
<g id="a_edge34_Node000022_Node000015"><a xlink:title=" ">
<path fill="none" stroke="#63b8ff" d="M701.67,-236.31C711.52,-217.44 734.13,-171.04 742,-129 743.55,-120.7 744.4,-118.09 742,-110 739.02,-99.98 733,-90.11 727.21,-82.22"/>
<polygon fill="#63b8ff" stroke="#63b8ff" points="729.87,-79.95 720.94,-74.25 724.37,-84.28 729.87,-79.95"/>
</a>
</g>
</g>
<!-- Node22&#45;&gt;Node21 -->
<g id="edge35_Node000022_Node000021" class="edge">
<title>Node22&#45;&gt;Node21</title>
<g id="a_edge35_Node000022_Node000021"><a xlink:title=" ">
<path fill="none" stroke="#63b8ff" d="M698.18,-236.04C699.9,-221.15 702.44,-190.45 698,-165 696.43,-156 693.2,-146.42 690.06,-138.46"/>
<polygon fill="#63b8ff" stroke="#63b8ff" points="693.23,-136.97 686.11,-129.12 686.78,-139.69 693.23,-136.97"/>
</a>
</g>
</g>
<!-- Node23&#45;&gt;Node7 -->
<g id="edge37_Node000023_Node000007" class="edge">
<title>Node23&#45;&gt;Node7</title>
<g id="a_edge37_Node000023_Node000007"><a xlink:title=" ">
<path fill="none" stroke="#63b8ff" d="M478.22,-351.66C487.79,-338.78 502.26,-314.5 491,-297 470.13,-264.55 446.69,-277.9 412,-261 370.76,-240.91 324.11,-216.42 293.06,-199.87"/>
<polygon fill="#63b8ff" stroke="#63b8ff" points="294.42,-196.63 283.95,-195 291.12,-202.8 294.42,-196.63"/>
</a>
</g>
</g>
</g>
</svg>

<g id="navigator" transform="translate(0 0)" fill="#404254">
  <rect fill="#f2f5e9" fill-opacity="0.5" stroke="#606060" stroke-width=".5" x="0" y="0" width="60" height="60"/>
  <use id="zoomplus" xlink:href="#zoomPlus" x="17" y="9" onmousedown="handleZoom(evt,'in')"/>
  <use id="zoomminus" xlink:href="#zoomMin" x="42" y="9" onmousedown="handleZoom(evt,'out')"/>
  <use id="reset" xlink:href="#resetDef" x="30" y="36" onmousedown="handleReset()"/>
   <use id="arrowup" xlink:href="#arrowUp" x="0" y="0" onmousedown="handlePan(0,-1)"/>
  <use id="arrowright" xlink:href="#arrowRight" x="0" y="0" onmousedown="handlePan(1,0)"/>
  <use id="arrowdown" xlink:href="#arrowDown" x="0" y="0" onmousedown="handlePan(0,1)"/>
  <use id="arrowleft" xlink:href="#arrowLeft" x="0" y="0" onmousedown="handlePan(-1,0)"/>
</g>
<svg viewBox="0 0 15 15" width="100%" height="30px" preserveAspectRatio="xMaxYMin meet">
 <g id="arrow_out" transform="scale(0.3 0.3)">
  <a xlink:href="Scene_8h__incl_org.svg" target="_base">
   <rect id="button" ry="5" rx="5" y="6" x="6" height="38" width="38"
        fill="#f2f5e9" fill-opacity="0.5" stroke="#606060" stroke-width="1.0"/>
   <path id="arrow"
     d="M 11.500037,31.436501 C 11.940474,20.09759 22.043105,11.32322 32.158766,21.979434 L 37.068811,17.246167 C 37.068811,17.246167 37.088388,32 37.088388,32 L 22.160133,31.978069 C 22.160133,31.978069 26.997745,27.140456 26.997745,27.140456 C 18.528582,18.264221 13.291696,25.230495 11.500037,31.436501 z"
     style="fill:#404040;"/>
  </a>
 </g>
</svg>

<style type='text/css'>
<![CDATA[
[data-mouse-over-selected='false'] { opacity: 0.7; }
[data-mouse-over-selected='true']  { opacity: 1.0; }
]]>
</style>
<script type="application/ecmascript"><![CDATA[
document.addEventListener('DOMContentLoaded', (event) => {
  highlightEdges();
  highlightAdjacentNodes();
});
]]></script>
</svg>
