<?xml version="1.0" encoding="UTF-8" standalone="no"?>
<!DOCTYPE svg PUBLIC "-//W3C//DTD SVG 1.1//EN"
 "http://www.w3.org/Graphics/SVG/1.1/DTD/svg11.dtd">
<!-- Generated by graphviz version 2.43.0 (0)
 -->
<!-- Title: src/graphics/core/SceneManager.h Pages: 1 -->
<!--zoomable 214 -->

<svg id="main" version="1.1" xmlns="http://www.w3.org/2000/svg" xmlns:xlink="http://www.w3.org/1999/xlink" xml:space="preserve" onload="init(evt)">
<style type="text/css"><![CDATA[
.node, .edge {opacity: 0.7;}
.node.selected, .edge.selected {opacity: 1;}
.edge:hover path { stroke: red; }
.edge:hover polygon { stroke: red; fill: red; }
]]></style>

<defs>
  <circle id="rim" cx="0" cy="0" r="7"/>
  <circle id="rim2" cx="0" cy="0" r="3.5"/>
  <g id="zoomPlus">
    <use xlink:href="#rim" fill="#404040"><set attributeName="fill" to="#808080" begin="zoomplus.mouseover" end="zoomplus.mouseout"/></use>
    <path d="M-4,0h8M0,-4v8" fill="none" stroke="white" stroke-width="1.5" pointer-events="none"/>
  </g>
  <g id="zoomMin">
    <use xlink:href="#rim" fill="#404040"><set attributeName="fill" to="#808080" begin="zoomminus.mouseover" end="zoomminus.mouseout"/></use>
    <path d="M-4,0h8" fill="none" stroke="white" stroke-width="1.5" pointer-events="none"/>
  </g>
  <g id="arrowUp" transform="translate(30 24)">
    <use xlink:href="#rim"/>
    <path pointer-events="none" fill="none" stroke="white" stroke-width="1.5" d="M0,-3.0v7 M-2.5,-0.5L0,-3.0L2.5,-0.5"/>
  </g>
  <g id="arrowRight" transform="rotate(90) translate(36 -43)">
    <use xlink:href="#rim"/>
    <path pointer-events="none" fill="none" stroke="white" stroke-width="1.5" d="M0,-3.0v7 M-2.5,-0.5L0,-3.0L2.5,-0.5"/>
  </g>
  <g id="arrowDown" transform="rotate(180) translate(-30 -48)">
    <use xlink:href="#rim"/>
    <path pointer-events="none" fill="none" stroke="white" stroke-width="1.5" d="M0,-3.0v7 M-2.5,-0.5L0,-3.0L2.5,-0.5"/>
  </g>
  <g id="arrowLeft" transform="rotate(270) translate(-36 17)">
    <use xlink:href="#rim"/>
    <path pointer-events="none" fill="none" stroke="white" stroke-width="1.5" d="M0,-3.0v7 M-2.5,-0.5L0,-3.0L2.5,-0.5"/>
  </g>
  <g id="resetDef">
    <use xlink:href="#rim2" fill="#404040"><set attributeName="fill" to="#808080" begin="reset.mouseover" end="reset.mouseout"/></use>
  </g>
</defs>
<script type="application/ecmascript">
var viewWidth = 3018;
var viewHeight = 214;
var sectionId = 'dynsection-1';
</script>
<script type="application/ecmascript" xlink:href="svg.min.js"/>
<svg id="graph" class="graph">
<g id="viewport">
<title>src/graphics/core/SceneManager.h</title>
<!-- Node1 -->
<g id="Node000001" class="node">
<title>Node1</title>
<g id="a_Node000001"><a xlink:title=" ">
<polygon fill="#999999" stroke="#666666" points="2425.63,-206 2243.63,-206 2243.63,-187 2425.63,-187 2425.63,-206"/>
<text text-anchor="middle" x="2334.63" y="-194" font-family="Helvetica,sans-Serif" font-size="10.00">src/graphics/core/SceneManager.h</text>
</a>
</g>
</g>
<!-- Node2 -->
<g id="Node000002" class="node">
<title>Node2</title>
<g id="a_Node000002"><a xlink:href="Gizmo_8cpp.html" target="_top" xlink:title=" ">
<polygon fill="white" stroke="#666666" points="422.63,-30 284.63,-30 284.63,0 422.63,0 422.63,-30"/>
<text text-anchor="start" x="292.63" y="-18" font-family="Helvetica,sans-Serif" font-size="10.00">src/graphics/components</text>
<text text-anchor="middle" x="353.63" y="-7" font-family="Helvetica,sans-Serif" font-size="10.00">/Gizmo.cpp</text>
</a>
</g>
</g>
<!-- Node1&#45;&gt;Node2 -->
<g id="edge1_Node000001_Node000002" class="edge">
<title>Node1&#45;&gt;Node2</title>
<g id="a_edge1_Node000001_Node000002"><a xlink:title=" ">
<path fill="none" stroke="#63b8ff" d="M2233.37,-195.15C1795.31,-193.15 82.04,-179.96 6.63,-96 -2.28,-86.08 -2.1,-76.08 6.63,-66 41.84,-25.34 193.84,-16.99 284.58,-15.72"/>
<polygon fill="#63b8ff" stroke="#63b8ff" points="2233.46,-198.65 2243.48,-195.2 2233.49,-191.65 2233.46,-198.65"/>
</a>
</g>
</g>
<!-- Node3 -->
<g id="Node000003" class="node">
<title>Node3</title>
<g id="a_Node000003"><a xlink:href="SceneManager_8cpp.html" target="_top" xlink:title=" ">
<polygon fill="white" stroke="#666666" points="2014.63,-24.5 1820.63,-24.5 1820.63,-5.5 2014.63,-5.5 2014.63,-24.5"/>
<text text-anchor="middle" x="1917.63" y="-12.5" font-family="Helvetica,sans-Serif" font-size="10.00">src/graphics/core/SceneManager.cpp</text>
</a>
</g>
</g>
<!-- Node1&#45;&gt;Node3 -->
<g id="edge2_Node000001_Node000003" class="edge">
<title>Node1&#45;&gt;Node3</title>
<g id="a_edge2_Node000001_Node000003"><a xlink:title=" ">
<path fill="none" stroke="#63b8ff" d="M2429.77,-184.44C2453.75,-177.84 2477.95,-167.42 2496.63,-151 2526.01,-125.15 2546.13,-94.8 2519.63,-66 2515.4,-61.41 2184.11,-35.96 2014.86,-23.24"/>
<polygon fill="#63b8ff" stroke="#63b8ff" points="2428.72,-181.09 2419.89,-186.95 2430.45,-187.88 2428.72,-181.09"/>
</a>
</g>
</g>
<!-- Node4 -->
<g id="Node000004" class="node">
<title>Node4</title>
<g id="a_Node000004"><a xlink:href="SceneObject_8cpp.html" target="_top" xlink:title=" ">
<polygon fill="white" stroke="#666666" points="199.13,-90.5 16.13,-90.5 16.13,-71.5 199.13,-71.5 199.13,-90.5"/>
<text text-anchor="middle" x="107.63" y="-78.5" font-family="Helvetica,sans-Serif" font-size="10.00">src/graphics/core/SceneObject.cpp</text>
</a>
</g>
</g>
<!-- Node1&#45;&gt;Node4 -->
<g id="edge3_Node000001_Node000004" class="edge">
<title>Node1&#45;&gt;Node4</title>
<g id="a_edge3_Node000001_Node000004"><a xlink:title=" ">
<path fill="none" stroke="#63b8ff" d="M2233.01,-195.45C1978.74,-194.72 1294.56,-189.07 725.63,-151 520.42,-137.27 278.41,-105.76 167.99,-90.54"/>
<polygon fill="#63b8ff" stroke="#63b8ff" points="2233.33,-198.95 2243.34,-195.48 2233.35,-191.95 2233.33,-198.95"/>
</a>
</g>
</g>
<!-- Node5 -->
<g id="Node000005" class="node">
<title>Node5</title>
<g id="a_Node000005"><a xlink:href="SceneObject_8h.html" target="_top" xlink:title=" ">
<polygon fill="white" stroke="#666666" points="1391.63,-151 1219.63,-151 1219.63,-132 1391.63,-132 1391.63,-151"/>
<text text-anchor="middle" x="1305.63" y="-139" font-family="Helvetica,sans-Serif" font-size="10.00">src/graphics/core/SceneObject.h</text>
</a>
</g>
</g>
<!-- Node1&#45;&gt;Node5 -->
<g id="edge4_Node000001_Node000005" class="edge">
<title>Node1&#45;&gt;Node5</title>
<g id="a_edge4_Node000001_Node000005"><a xlink:title=" ">
<path fill="none" stroke="#63b8ff" d="M2233.28,-190.28C2031.03,-179.86 1580.57,-156.66 1391.64,-146.93"/>
<polygon fill="#63b8ff" stroke="#63b8ff" points="2233.14,-193.78 2243.31,-190.8 2233.5,-186.79 2233.14,-193.78"/>
</a>
</g>
</g>
<!-- Node13 -->
<g id="Node000013" class="node">
<title>Node13</title>
<g id="a_Node000013"><a xlink:href="Colliders_8cpp.html" target="_top" xlink:title=" ">
<polygon fill="white" stroke="#666666" points="325.63,-96 217.63,-96 217.63,-66 325.63,-66 325.63,-96"/>
<text text-anchor="start" x="225.63" y="-84" font-family="Helvetica,sans-Serif" font-size="10.00">src/graphics/debug</text>
<text text-anchor="middle" x="271.63" y="-73" font-family="Helvetica,sans-Serif" font-size="10.00">/Colliders.cpp</text>
</a>
</g>
</g>
<!-- Node1&#45;&gt;Node13 -->
<g id="edge34_Node000001_Node000013" class="edge">
<title>Node1&#45;&gt;Node13</title>
<g id="a_edge34_Node000001_Node000013"><a xlink:title=" ">
<path fill="none" stroke="#63b8ff" d="M2233.16,-195.3C1940.3,-193.68 1068.76,-181.45 351.63,-96 343.23,-95 334.37,-93.7 325.73,-92.29"/>
<polygon fill="#63b8ff" stroke="#63b8ff" points="2233.31,-198.8 2243.33,-195.35 2233.35,-191.8 2233.31,-198.8"/>
</a>
</g>
</g>
<!-- Node15 -->
<g id="Node000015" class="node">
<title>Node15</title>
<g id="a_Node000015"><a xlink:href="Forces_8cpp.html" target="_top" xlink:title=" ">
<polygon fill="white" stroke="#666666" points="2234.63,-30 2126.63,-30 2126.63,0 2234.63,0 2234.63,-30"/>
<text text-anchor="start" x="2134.63" y="-18" font-family="Helvetica,sans-Serif" font-size="10.00">src/graphics/debug</text>
<text text-anchor="middle" x="2180.63" y="-7" font-family="Helvetica,sans-Serif" font-size="10.00">/Forces.cpp</text>
</a>
</g>
</g>
<!-- Node1&#45;&gt;Node15 -->
<g id="edge35_Node000001_Node000015" class="edge">
<title>Node1&#45;&gt;Node15</title>
<g id="a_edge35_Node000001_Node000015"><a xlink:title=" ">
<path fill="none" stroke="#63b8ff" d="M2435.9,-189.38C2492.77,-183.6 2555.81,-172.44 2573.63,-151 2597.77,-121.94 2598.6,-94.35 2573.63,-66 2551.58,-40.97 2337.25,-25.16 2234.73,-18.97"/>
<polygon fill="#63b8ff" stroke="#63b8ff" points="2435.36,-185.92 2425.74,-190.37 2436.03,-192.89 2435.36,-185.92"/>
</a>
</g>
</g>
<!-- Node17 -->
<g id="Node000017" class="node">
<title>Node17</title>
<g id="a_Node000017"><a xlink:href="PathTraces_8cpp.html" target="_top" xlink:title=" ">
<polygon fill="white" stroke="#666666" points="2547.63,-30 2439.63,-30 2439.63,0 2547.63,0 2547.63,-30"/>
<text text-anchor="start" x="2447.63" y="-18" font-family="Helvetica,sans-Serif" font-size="10.00">src/graphics/debug</text>
<text text-anchor="middle" x="2493.63" y="-7" font-family="Helvetica,sans-Serif" font-size="10.00">/PathTraces.cpp</text>
</a>
</g>
</g>
<!-- Node1&#45;&gt;Node17 -->
<g id="edge36_Node000001_Node000017" class="edge">
<title>Node1&#45;&gt;Node17</title>
<g id="a_edge36_Node000001_Node000017"><a xlink:title=" ">
<path fill="none" stroke="#63b8ff" d="M2435.95,-190.94C2499.39,-185.76 2572.92,-174.68 2593.63,-151 2618.5,-122.55 2615.62,-98.07 2595.63,-66 2584.88,-48.76 2566.27,-37.3 2547.86,-29.76"/>
<polygon fill="#63b8ff" stroke="#63b8ff" points="2435.56,-187.46 2425.86,-191.73 2436.1,-194.44 2435.56,-187.46"/>
</a>
</g>
</g>
<!-- Node22 -->
<g id="Node000022" class="node">
<title>Node22</title>
<g id="a_Node000022"><a xlink:href="GlobalsInspectorWidget_8cpp.html" target="_top" xlink:title=" ">
<polygon fill="white" stroke="#666666" points="2121.13,-96 1990.13,-96 1990.13,-66 2121.13,-66 2121.13,-96"/>
<text text-anchor="start" x="1998.13" y="-84" font-family="Helvetica,sans-Serif" font-size="10.00">src/ui/inspector/Globals</text>
<text text-anchor="middle" x="2055.63" y="-73" font-family="Helvetica,sans-Serif" font-size="10.00">InspectorWidget.cpp</text>
</a>
</g>
</g>
<!-- Node1&#45;&gt;Node22 -->
<g id="edge41_Node000001_Node000022" class="edge">
<title>Node1&#45;&gt;Node22</title>
<g id="a_edge41_Node000001_Node000022"><a xlink:title=" ">
<path fill="none" stroke="#63b8ff" d="M2304.27,-183.15C2252.07,-161.92 2145.63,-118.61 2090.49,-96.18"/>
<polygon fill="#63b8ff" stroke="#63b8ff" points="2303.07,-186.44 2313.66,-186.97 2305.71,-179.96 2303.07,-186.44"/>
</a>
</g>
</g>
<!-- Node23 -->
<g id="Node000023" class="node">
<title>Node23</title>
<g id="a_Node000023"><a xlink:href="InspectorWidget_8cpp.html" target="_top" xlink:title=" ">
<polygon fill="white" stroke="#666666" points="2278.13,-96 2139.13,-96 2139.13,-66 2278.13,-66 2278.13,-96"/>
<text text-anchor="start" x="2147.13" y="-84" font-family="Helvetica,sans-Serif" font-size="10.00">src/ui/inspector/Inspector</text>
<text text-anchor="middle" x="2208.63" y="-73" font-family="Helvetica,sans-Serif" font-size="10.00">Widget.cpp</text>
</a>
</g>
</g>
<!-- Node1&#45;&gt;Node23 -->
<g id="edge42_Node000001_Node000023" class="edge">
<title>Node1&#45;&gt;Node23</title>
<g id="a_edge42_Node000001_Node000023"><a xlink:title=" ">
<path fill="none" stroke="#63b8ff" d="M2317.69,-180.25C2293.19,-158.18 2248.19,-117.64 2224.37,-96.18"/>
<polygon fill="#63b8ff" stroke="#63b8ff" points="2315.38,-182.88 2325.16,-186.97 2320.07,-177.68 2315.38,-182.88"/>
</a>
</g>
</g>
<!-- Node26 -->
<g id="Node000026" class="node">
<title>Node26</title>
<g id="a_Node000026"><a xlink:href="SceneSerializer_8h.html" target="_top" xlink:title=" ">
<polygon fill="white" stroke="#666666" points="2487.13,-151 2302.13,-151 2302.13,-132 2487.13,-132 2487.13,-151"/>
<text text-anchor="middle" x="2394.63" y="-139" font-family="Helvetica,sans-Serif" font-size="10.00">src/graphics/core/SceneSerializer.h</text>
</a>
</g>
</g>
<!-- Node1&#45;&gt;Node26 -->
<g id="edge31_Node000001_Node000026" class="edge">
<title>Node1&#45;&gt;Node26</title>
<g id="a_edge31_Node000001_Node000026"><a xlink:title=" ">
<path fill="none" stroke="#63b8ff" d="M2351.81,-180.32C2362.51,-170.87 2375.88,-159.06 2384.81,-151.17"/>
<polygon fill="#63b8ff" stroke="#63b8ff" points="2349.44,-177.74 2344.27,-186.98 2354.08,-182.99 2349.44,-177.74"/>
</a>
</g>
</g>
<!-- Node27 -->
<g id="Node000027" class="node">
<title>Node27</title>
<g id="a_Node000027"><a xlink:href="MainWindow_8h.html" target="_top" xlink:title=" ">
<polygon fill="white" stroke="#666666" points="2849.13,-151 2732.13,-151 2732.13,-132 2849.13,-132 2849.13,-151"/>
<text text-anchor="middle" x="2790.63" y="-139" font-family="Helvetica,sans-Serif" font-size="10.00">src/ui/MainWindow.h</text>
</a>
</g>
</g>
<!-- Node1&#45;&gt;Node27 -->
<g id="edge37_Node000001_Node000027" class="edge">
<title>Node1&#45;&gt;Node27</title>
<g id="a_edge37_Node000001_Node000027"><a xlink:title=" ">
<path fill="none" stroke="#63b8ff" d="M2417.89,-185.82C2508.86,-175.25 2652.22,-158.59 2732.04,-149.31"/>
<polygon fill="#63b8ff" stroke="#63b8ff" points="2417.42,-182.35 2407.89,-186.98 2418.23,-189.31 2417.42,-182.35"/>
</a>
</g>
</g>
<!-- Node29 -->
<g id="Node000029" class="node">
<title>Node29</title>
<g id="a_Node000029"><a xlink:href="OpenGLWindow_8cpp.html" target="_top" xlink:title=" ">
<polygon fill="white" stroke="#666666" points="3009.63,-151 2867.63,-151 2867.63,-132 3009.63,-132 3009.63,-151"/>
<text text-anchor="middle" x="2938.63" y="-139" font-family="Helvetica,sans-Serif" font-size="10.00">src/ui/OpenGLWindow.cpp</text>
</a>
</g>
</g>
<!-- Node1&#45;&gt;Node29 -->
<g id="edge40_Node000001_Node000029" class="edge">
<title>Node1&#45;&gt;Node29</title>
<g id="a_edge40_Node000001_Node000029"><a xlink:title=" ">
<path fill="none" stroke="#63b8ff" d="M2436.04,-187.53C2541.64,-179.07 2711.81,-165.03 2858.63,-151 2861.55,-150.72 2864.52,-150.43 2867.53,-150.13"/>
<polygon fill="#63b8ff" stroke="#63b8ff" points="2435.71,-184.04 2426.02,-188.33 2436.27,-191.02 2435.71,-184.04"/>
</a>
</g>
</g>
<!-- Node5&#45;&gt;Node2 -->
<g id="edge5_Node000005_Node000002" class="edge">
<title>Node5&#45;&gt;Node2</title>
<g id="a_edge5_Node000005_Node000002"><a xlink:title=" ">
<path fill="none" stroke="#63b8ff" d="M1209.34,-137.42C974.19,-129.71 388.57,-109.23 372.63,-96 353.4,-80.05 351.58,-48.52 352.35,-30.17"/>
<polygon fill="#63b8ff" stroke="#63b8ff" points="1209.49,-140.93 1219.59,-137.76 1209.71,-133.93 1209.49,-140.93"/>
</a>
</g>
</g>
<!-- Node5&#45;&gt;Node3 -->
<g id="edge13_Node000005_Node000003" class="edge">
<title>Node5&#45;&gt;Node3</title>
<g id="a_edge13_Node000005_Node000003"><a xlink:title=" ">
<path fill="none" stroke="#63b8ff" d="M1209.17,-136.99C1091.63,-131.71 905.94,-119.69 884.63,-96 875.71,-86.09 875.43,-75.65 884.63,-66 916.6,-32.45 1569.13,-20.49 1820.28,-17.12"/>
<polygon fill="#63b8ff" stroke="#63b8ff" points="1209.12,-140.49 1219.27,-137.44 1209.43,-133.5 1209.12,-140.49"/>
</a>
</g>
</g>
<!-- Node5&#45;&gt;Node4 -->
<g id="edge14_Node000005_Node000004" class="edge">
<title>Node5&#45;&gt;Node4</title>
<g id="a_edge14_Node000005_Node000004"><a xlink:title=" ">
<path fill="none" stroke="#63b8ff" d="M1209.38,-139.74C1018.25,-137.52 577.46,-128.96 208.63,-96 193.46,-94.64 177.09,-92.62 162.03,-90.53"/>
<polygon fill="#63b8ff" stroke="#63b8ff" points="1209.36,-143.24 1219.4,-139.85 1209.44,-136.24 1209.36,-143.24"/>
</a>
</g>
</g>
<!-- Node6 -->
<g id="Node000006" class="node">
<title>Node6</title>
<g id="a_Node000006"><a xlink:href="RotateHandle_8cpp.html" target="_top" xlink:title=" ">
<polygon fill="white" stroke="#666666" points="837.63,-96 699.63,-96 699.63,-66 837.63,-66 837.63,-96"/>
<text text-anchor="start" x="707.63" y="-84" font-family="Helvetica,sans-Serif" font-size="10.00">src/graphics/components</text>
<text text-anchor="middle" x="768.63" y="-73" font-family="Helvetica,sans-Serif" font-size="10.00">/RotateHandle.cpp</text>
</a>
</g>
</g>
<!-- Node5&#45;&gt;Node6 -->
<g id="edge6_Node000005_Node000006" class="edge">
<title>Node5&#45;&gt;Node6</title>
<g id="a_edge6_Node000005_Node000006"><a xlink:title=" ">
<path fill="none" stroke="#63b8ff" d="M1209.09,-132.99C1117.03,-125.37 974.59,-112.38 851.63,-96 847.14,-95.4 842.52,-94.74 837.86,-94.05"/>
<polygon fill="#63b8ff" stroke="#63b8ff" points="1208.98,-136.49 1219.23,-133.83 1209.55,-129.52 1208.98,-136.49"/>
</a>
</g>
</g>
<!-- Node7 -->
<g id="Node000007" class="node">
<title>Node7</title>
<g id="a_Node000007"><a xlink:href="ScaleHandle_8h.html" target="_top" xlink:title=" ">
<polygon fill="white" stroke="#666666" points="681.63,-96 543.63,-96 543.63,-66 681.63,-66 681.63,-96"/>
<text text-anchor="start" x="551.63" y="-84" font-family="Helvetica,sans-Serif" font-size="10.00">src/graphics/components</text>
<text text-anchor="middle" x="612.63" y="-73" font-family="Helvetica,sans-Serif" font-size="10.00">/ScaleHandle.h</text>
</a>
</g>
</g>
<!-- Node5&#45;&gt;Node7 -->
<g id="edge7_Node000005_Node000007" class="edge">
<title>Node5&#45;&gt;Node7</title>
<g id="a_edge7_Node000005_Node000007"><a xlink:title=" ">
<path fill="none" stroke="#63b8ff" d="M1209.53,-136.68C1088.23,-131.15 873.36,-118.95 690.63,-96 687.76,-95.64 684.84,-95.24 681.89,-94.82"/>
<polygon fill="#63b8ff" stroke="#63b8ff" points="1209.38,-140.18 1219.53,-137.14 1209.7,-133.19 1209.38,-140.18"/>
</a>
</g>
</g>
<!-- Node9 -->
<g id="Node000009" class="node">
<title>Node9</title>
<g id="a_Node000009"><a xlink:href="TranslateHandle_8cpp.html" target="_top" xlink:title=" ">
<polygon fill="white" stroke="#666666" points="1031.63,-96 893.63,-96 893.63,-66 1031.63,-66 1031.63,-96"/>
<text text-anchor="start" x="901.63" y="-84" font-family="Helvetica,sans-Serif" font-size="10.00">src/graphics/components</text>
<text text-anchor="middle" x="962.63" y="-73" font-family="Helvetica,sans-Serif" font-size="10.00">/TranslateHandle.cpp</text>
</a>
</g>
</g>
<!-- Node5&#45;&gt;Node9 -->
<g id="edge10_Node000005_Node000009" class="edge">
<title>Node5&#45;&gt;Node9</title>
<g id="a_edge10_Node000005_Node000009"><a xlink:title=" ">
<path fill="none" stroke="#63b8ff" d="M1243.75,-130.31C1190.02,-121.42 1110.15,-108.08 1040.63,-96 1037.78,-95.51 1034.87,-95 1031.94,-94.48"/>
<polygon fill="#63b8ff" stroke="#63b8ff" points="1243.37,-133.8 1253.8,-131.97 1244.51,-126.89 1243.37,-133.8"/>
</a>
</g>
</g>
<!-- Node10 -->
<g id="Node000010" class="node">
<title>Node10</title>
<g id="a_Node000010"><a xlink:href="Camera_8cpp.html" target="_top" xlink:title=" ">
<polygon fill="white" stroke="#666666" points="1211.13,-90.5 1050.13,-90.5 1050.13,-71.5 1211.13,-71.5 1211.13,-90.5"/>
<text text-anchor="middle" x="1130.63" y="-78.5" font-family="Helvetica,sans-Serif" font-size="10.00">src/graphics/core/Camera.cpp</text>
</a>
</g>
</g>
<!-- Node5&#45;&gt;Node10 -->
<g id="edge11_Node000005_Node000010" class="edge">
<title>Node5&#45;&gt;Node10</title>
<g id="a_edge11_Node000005_Node000010"><a xlink:title=" ">
<path fill="none" stroke="#63b8ff" d="M1270.68,-128.82C1236.83,-117.5 1186.31,-100.62 1156.1,-90.52"/>
<polygon fill="#63b8ff" stroke="#63b8ff" points="1269.59,-132.14 1280.18,-131.99 1271.8,-125.5 1269.59,-132.14"/>
</a>
</g>
</g>
<!-- Node11 -->
<g id="Node000011" class="node">
<title>Node11</title>
<g id="a_Node000011"><a xlink:href="Scene_8cpp.html" target="_top" xlink:title=" ">
<polygon fill="white" stroke="#666666" points="1381.63,-90.5 1229.63,-90.5 1229.63,-71.5 1381.63,-71.5 1381.63,-90.5"/>
<text text-anchor="middle" x="1305.63" y="-78.5" font-family="Helvetica,sans-Serif" font-size="10.00">src/graphics/core/Scene.cpp</text>
</a>
</g>
</g>
<!-- Node5&#45;&gt;Node11 -->
<g id="edge12_Node000005_Node000011" class="edge">
<title>Node5&#45;&gt;Node11</title>
<g id="a_edge12_Node000005_Node000011"><a xlink:title=" ">
<path fill="none" stroke="#63b8ff" d="M1305.63,-121.66C1305.63,-111.24 1305.63,-98.8 1305.63,-90.67"/>
<polygon fill="#63b8ff" stroke="#63b8ff" points="1302.13,-121.87 1305.63,-131.87 1309.13,-121.87 1302.13,-121.87"/>
</a>
</g>
</g>
<!-- Node12 -->
<g id="Node000012" class="node">
<title>Node12</title>
<g id="a_Node000012"><a xlink:href="SceneSerializer_8cpp.html" target="_top" xlink:title=" ">
<polygon fill="white" stroke="#666666" points="2493.13,-90.5 2296.13,-90.5 2296.13,-71.5 2493.13,-71.5 2493.13,-90.5"/>
<text text-anchor="middle" x="2394.63" y="-78.5" font-family="Helvetica,sans-Serif" font-size="10.00">src/graphics/core/SceneSerializer.cpp</text>
</a>
</g>
</g>
<!-- Node5&#45;&gt;Node12 -->
<g id="edge15_Node000005_Node000012" class="edge">
<title>Node5&#45;&gt;Node12</title>
<g id="a_edge15_Node000005_Node000012"><a xlink:title=" ">
<path fill="none" stroke="#63b8ff" d="M1401.84,-138.85C1577.92,-135.22 1963.68,-124.48 2287.63,-96 2303.49,-94.61 2320.61,-92.59 2336.41,-90.53"/>
<polygon fill="#63b8ff" stroke="#63b8ff" points="1401.75,-135.35 1391.83,-139.05 1401.9,-142.35 1401.75,-135.35"/>
</a>
</g>
</g>
<!-- Node5&#45;&gt;Node13 -->
<g id="edge16_Node000005_Node000013" class="edge">
<title>Node5&#45;&gt;Node13</title>
<g id="a_edge16_Node000005_Node000013"><a xlink:title=" ">
<path fill="none" stroke="#63b8ff" d="M1209.46,-137.99C999.55,-132.2 505.78,-116.8 339.63,-96 335.08,-95.43 330.39,-94.72 325.69,-93.93"/>
<polygon fill="#63b8ff" stroke="#63b8ff" points="1209.45,-141.49 1219.55,-138.27 1209.65,-134.5 1209.45,-141.49"/>
</a>
</g>
</g>
<!-- Node14 -->
<g id="Node000014" class="node">
<title>Node14</title>
<g id="a_Node000014"><a xlink:href="Forces_8h.html" target="_top" xlink:title=" ">
<polygon fill="white" stroke="#666666" points="1845.63,-96 1737.63,-96 1737.63,-66 1845.63,-66 1845.63,-96"/>
<text text-anchor="start" x="1745.63" y="-84" font-family="Helvetica,sans-Serif" font-size="10.00">src/graphics/debug</text>
<text text-anchor="middle" x="1791.63" y="-73" font-family="Helvetica,sans-Serif" font-size="10.00">/Forces.h</text>
</a>
</g>
</g>
<!-- Node5&#45;&gt;Node14 -->
<g id="edge17_Node000005_Node000014" class="edge">
<title>Node5&#45;&gt;Node14</title>
<g id="a_edge17_Node000005_Node000014"><a xlink:title=" ">
<path fill="none" stroke="#63b8ff" d="M1401.65,-133.41C1487.45,-126.36 1616.39,-113.97 1727.63,-96 1730.88,-95.47 1734.22,-94.89 1737.58,-94.26"/>
<polygon fill="#63b8ff" stroke="#63b8ff" points="1401.35,-129.92 1391.67,-134.22 1401.92,-136.9 1401.35,-129.92"/>
</a>
</g>
</g>
<!-- Node16 -->
<g id="Node000016" class="node">
<title>Node16</title>
<g id="a_Node000016"><a xlink:href="PathTraces_8h.html" target="_top" xlink:title=" ">
<polygon fill="white" stroke="#666666" points="1971.63,-96 1863.63,-96 1863.63,-66 1971.63,-66 1971.63,-96"/>
<text text-anchor="start" x="1871.63" y="-84" font-family="Helvetica,sans-Serif" font-size="10.00">src/graphics/debug</text>
<text text-anchor="middle" x="1917.63" y="-73" font-family="Helvetica,sans-Serif" font-size="10.00">/PathTraces.h</text>
</a>
</g>
</g>
<!-- Node5&#45;&gt;Node16 -->
<g id="edge20_Node000005_Node000016" class="edge">
<title>Node5&#45;&gt;Node16</title>
<g id="a_edge20_Node000005_Node000016"><a xlink:title=" ">
<path fill="none" stroke="#63b8ff" d="M1401.71,-136.72C1511.66,-131.48 1696.92,-119.8 1854.63,-96 1857.51,-95.57 1860.45,-95.07 1863.42,-94.54"/>
<polygon fill="#63b8ff" stroke="#63b8ff" points="1401.46,-133.23 1391.63,-137.2 1401.78,-140.23 1401.46,-133.23"/>
</a>
</g>
</g>
<!-- Node18 -->
<g id="Node000018" class="node">
<title>Node18</title>
<g id="a_Node000018"><a xlink:href="HierarchyWidget_8h.html" target="_top" xlink:title=" ">
<polygon fill="white" stroke="#666666" points="2801.13,-90.5 2664.13,-90.5 2664.13,-71.5 2801.13,-71.5 2801.13,-90.5"/>
<text text-anchor="middle" x="2732.63" y="-78.5" font-family="Helvetica,sans-Serif" font-size="10.00">src/ui/HierarchyWidget.h</text>
</a>
</g>
</g>
<!-- Node5&#45;&gt;Node18 -->
<g id="edge23_Node000005_Node000018" class="edge">
<title>Node5&#45;&gt;Node18</title>
<g id="a_edge23_Node000005_Node000018"><a xlink:title=" ">
<path fill="none" stroke="#63b8ff" d="M1401.71,-137.7C1604.94,-131.6 2093.34,-116.06 2502.63,-96 2556.87,-93.34 2618.26,-89.57 2663.96,-86.61"/>
<polygon fill="#63b8ff" stroke="#63b8ff" points="1401.55,-134.2 1391.66,-138 1401.76,-141.2 1401.55,-134.2"/>
</a>
</g>
</g>
<!-- Node21 -->
<g id="Node000021" class="node">
<title>Node21</title>
<g id="a_Node000021"><a xlink:href="ForcesInspectorWidget_8cpp.html" target="_top" xlink:title=" ">
<polygon fill="white" stroke="#666666" points="1569.63,-96 1399.63,-96 1399.63,-66 1569.63,-66 1569.63,-96"/>
<text text-anchor="start" x="1407.63" y="-84" font-family="Helvetica,sans-Serif" font-size="10.00">src/ui/inspector/ForcesInspector</text>
<text text-anchor="middle" x="1484.63" y="-73" font-family="Helvetica,sans-Serif" font-size="10.00">Widget.cpp</text>
</a>
</g>
</g>
<!-- Node5&#45;&gt;Node21 -->
<g id="edge26_Node000005_Node000021" class="edge">
<title>Node5&#45;&gt;Node21</title>
<g id="a_edge26_Node000005_Node000021"><a xlink:title=" ">
<path fill="none" stroke="#63b8ff" d="M1341.33,-128.83C1370.2,-119.4 1410.93,-106.09 1441.59,-96.06"/>
<polygon fill="#63b8ff" stroke="#63b8ff" points="1340.07,-125.56 1331.65,-131.99 1342.25,-132.21 1340.07,-125.56"/>
</a>
</g>
</g>
<!-- Node5&#45;&gt;Node22 -->
<g id="edge27_Node000005_Node000022" class="edge">
<title>Node5&#45;&gt;Node22</title>
<g id="a_edge27_Node000005_Node000022"><a xlink:title=" ">
<path fill="none" stroke="#63b8ff" d="M1401.74,-137.75C1532.97,-133.18 1775.36,-121.83 1980.63,-96 1983.65,-95.62 1986.73,-95.19 1989.85,-94.74"/>
<polygon fill="#63b8ff" stroke="#63b8ff" points="1401.59,-134.26 1391.71,-138.1 1401.83,-141.25 1401.59,-134.26"/>
</a>
</g>
</g>
<!-- Node5&#45;&gt;Node23 -->
<g id="edge28_Node000005_Node000023" class="edge">
<title>Node5&#45;&gt;Node23</title>
<g id="a_edge28_Node000005_Node000023"><a xlink:title=" ">
<path fill="none" stroke="#63b8ff" d="M1402.3,-139.08C1556.57,-135.96 1867.72,-126.17 2129.63,-96 2132.67,-95.65 2135.77,-95.26 2138.91,-94.83"/>
<polygon fill="#63b8ff" stroke="#63b8ff" points="1401.85,-135.59 1391.92,-139.28 1401.99,-142.59 1401.85,-135.59"/>
</a>
</g>
</g>
<!-- Node24 -->
<g id="Node000024" class="node">
<title>Node24</title>
<g id="a_Node000024"><a xlink:href="PhysicsInspectorWidget_8cpp.html" target="_top" xlink:title=" ">
<polygon fill="white" stroke="#666666" points="1719.13,-96 1588.13,-96 1588.13,-66 1719.13,-66 1719.13,-96"/>
<text text-anchor="start" x="1596.13" y="-84" font-family="Helvetica,sans-Serif" font-size="10.00">src/ui/inspector/Physics</text>
<text text-anchor="middle" x="1653.63" y="-73" font-family="Helvetica,sans-Serif" font-size="10.00">InspectorWidget.cpp</text>
</a>
</g>
</g>
<!-- Node5&#45;&gt;Node24 -->
<g id="edge29_Node000005_Node000024" class="edge">
<title>Node5&#45;&gt;Node24</title>
<g id="a_edge29_Node000005_Node000024"><a xlink:title=" ">
<path fill="none" stroke="#63b8ff" d="M1370.35,-130.38C1425.71,-121.62 1507.49,-108.44 1578.63,-96 1581.63,-95.48 1584.69,-94.93 1587.79,-94.38"/>
<polygon fill="#63b8ff" stroke="#63b8ff" points="1369.66,-126.94 1360.33,-131.96 1370.76,-133.86 1369.66,-126.94"/>
</a>
</g>
</g>
<!-- Node25 -->
<g id="Node000025" class="node">
<title>Node25</title>
<g id="a_Node000025"><a xlink:href="TransformInspectorWidget_8cpp.html" target="_top" xlink:title=" ">
<polygon fill="white" stroke="#666666" points="525.13,-96 382.13,-96 382.13,-66 525.13,-66 525.13,-96"/>
<text text-anchor="start" x="390.13" y="-84" font-family="Helvetica,sans-Serif" font-size="10.00">src/ui/inspector/Transform</text>
<text text-anchor="middle" x="453.63" y="-73" font-family="Helvetica,sans-Serif" font-size="10.00">InspectorWidget.cpp</text>
</a>
</g>
</g>
<!-- Node5&#45;&gt;Node25 -->
<g id="edge30_Node000005_Node000025" class="edge">
<title>Node5&#45;&gt;Node25</title>
<g id="a_edge30_Node000005_Node000025"><a xlink:title=" ">
<path fill="none" stroke="#63b8ff" d="M1209.21,-138.45C1062.95,-134.54 776.41,-123.78 534.63,-96 531.65,-95.66 528.61,-95.28 525.55,-94.87"/>
<polygon fill="#63b8ff" stroke="#63b8ff" points="1209.41,-141.95 1219.5,-138.72 1209.59,-134.96 1209.41,-141.95"/>
</a>
</g>
</g>
<!-- Node7&#45;&gt;Node2 -->
<g id="edge8_Node000007_Node000002" class="edge">
<title>Node7&#45;&gt;Node2</title>
<g id="a_edge8_Node000007_Node000002"><a xlink:title=" ">
<path fill="none" stroke="#63b8ff" d="M545.92,-63.52C503.92,-53.14 450.28,-39.88 410.33,-30.01"/>
<polygon fill="#63b8ff" stroke="#63b8ff" points="545.24,-66.95 555.79,-65.95 546.92,-60.16 545.24,-66.95"/>
</a>
</g>
</g>
<!-- Node8 -->
<g id="Node000008" class="node">
<title>Node8</title>
<g id="a_Node000008"><a xlink:href="ScaleHandle_8cpp.html" target="_top" xlink:title=" ">
<polygon fill="white" stroke="#666666" points="681.63,-30 543.63,-30 543.63,0 681.63,0 681.63,-30"/>
<text text-anchor="start" x="551.63" y="-18" font-family="Helvetica,sans-Serif" font-size="10.00">src/graphics/components</text>
<text text-anchor="middle" x="612.63" y="-7" font-family="Helvetica,sans-Serif" font-size="10.00">/ScaleHandle.cpp</text>
</a>
</g>
</g>
<!-- Node7&#45;&gt;Node8 -->
<g id="edge9_Node000007_Node000008" class="edge">
<title>Node7&#45;&gt;Node8</title>
<g id="a_edge9_Node000007_Node000008"><a xlink:title=" ">
<path fill="none" stroke="#63b8ff" d="M612.63,-55.54C612.63,-46.96 612.63,-37.61 612.63,-30.16"/>
<polygon fill="#63b8ff" stroke="#63b8ff" points="609.13,-55.8 612.63,-65.8 616.13,-55.8 609.13,-55.8"/>
</a>
</g>
</g>
<!-- Node14&#45;&gt;Node3 -->
<g id="edge18_Node000014_Node000003" class="edge">
<title>Node14&#45;&gt;Node3</title>
<g id="a_edge18_Node000014_Node000003"><a xlink:title=" ">
<path fill="none" stroke="#63b8ff" d="M1828.45,-61.3C1852.39,-49.14 1882.47,-33.86 1900.86,-24.52"/>
<polygon fill="#63b8ff" stroke="#63b8ff" points="1826.61,-58.31 1819.28,-65.95 1829.78,-64.55 1826.61,-58.31"/>
</a>
</g>
</g>
<!-- Node14&#45;&gt;Node15 -->
<g id="edge19_Node000014_Node000015" class="edge">
<title>Node14&#45;&gt;Node15</title>
<g id="a_edge19_Node000014_Node000015"><a xlink:title=" ">
<path fill="none" stroke="#63b8ff" d="M1855.95,-65.82C1957.03,-47.1 2063.76,-31.75 2126.5,-23.18"/>
<polygon fill="#63b8ff" stroke="#63b8ff" points="1855.06,-62.43 1845.88,-67.7 1856.35,-69.31 1855.06,-62.43"/>
</a>
</g>
</g>
<!-- Node16&#45;&gt;Node3 -->
<g id="edge21_Node000016_Node000003" class="edge">
<title>Node16&#45;&gt;Node3</title>
<g id="a_edge21_Node000016_Node000003"><a xlink:title=" ">
<path fill="none" stroke="#63b8ff" d="M1917.63,-55.6C1917.63,-44.8 1917.63,-32.78 1917.63,-24.84"/>
<polygon fill="#63b8ff" stroke="#63b8ff" points="1914.13,-55.8 1917.63,-65.8 1921.13,-55.8 1914.13,-55.8"/>
</a>
</g>
</g>
<!-- Node16&#45;&gt;Node17 -->
<g id="edge22_Node000016_Node000017" class="edge">
<title>Node16&#45;&gt;Node17</title>
<g id="a_edge22_Node000016_Node000017"><a xlink:title=" ">
<path fill="none" stroke="#63b8ff" d="M1981.86,-65.93C2154.3,-38.99 2347.34,-24.87 2439.43,-19.11"/>
<polygon fill="#63b8ff" stroke="#63b8ff" points="1981.17,-62.5 1971.84,-67.51 1982.27,-69.41 1981.17,-62.5"/>
</a>
</g>
</g>
<!-- Node19 -->
<g id="Node000019" class="node">
<title>Node19</title>
<g id="a_Node000019"><a xlink:href="HierarchyWidget_8cpp.html" target="_top" xlink:title=" ">
<polygon fill="white" stroke="#666666" points="2806.63,-24.5 2658.63,-24.5 2658.63,-5.5 2806.63,-5.5 2806.63,-24.5"/>
<text text-anchor="middle" x="2732.63" y="-12.5" font-family="Helvetica,sans-Serif" font-size="10.00">src/ui/HierarchyWidget.cpp</text>
</a>
</g>
</g>
<!-- Node18&#45;&gt;Node19 -->
<g id="edge24_Node000018_Node000019" class="edge">
<title>Node18&#45;&gt;Node19</title>
<g id="a_edge24_Node000018_Node000019"><a xlink:title=" ">
<path fill="none" stroke="#63b8ff" d="M2732.63,-61.08C2732.63,-49.13 2732.63,-34.22 2732.63,-24.91"/>
<polygon fill="#63b8ff" stroke="#63b8ff" points="2729.13,-61.37 2732.63,-71.37 2736.13,-61.37 2729.13,-61.37"/>
</a>
</g>
</g>
<!-- Node20 -->
<g id="Node000020" class="node">
<title>Node20</title>
<g id="a_Node000020"><a xlink:href="MainWindow_8cpp.html" target="_top" xlink:title=" ">
<polygon fill="white" stroke="#666666" points="2971.63,-24.5 2843.63,-24.5 2843.63,-5.5 2971.63,-5.5 2971.63,-24.5"/>
<text text-anchor="middle" x="2907.63" y="-12.5" font-family="Helvetica,sans-Serif" font-size="10.00">src/ui/MainWindow.cpp</text>
</a>
</g>
</g>
<!-- Node18&#45;&gt;Node20 -->
<g id="edge25_Node000018_Node000020" class="edge">
<title>Node18&#45;&gt;Node20</title>
<g id="a_edge25_Node000018_Node000020"><a xlink:title=" ">
<path fill="none" stroke="#63b8ff" d="M2765.88,-67.84C2800.45,-55.2 2853.68,-35.73 2884.12,-24.6"/>
<polygon fill="#63b8ff" stroke="#63b8ff" points="2764.42,-64.65 2756.23,-71.37 2766.82,-71.22 2764.42,-64.65"/>
</a>
</g>
</g>
<!-- Node26&#45;&gt;Node3 -->
<g id="edge32_Node000026_Node000003" class="edge">
<title>Node26&#45;&gt;Node3</title>
<g id="a_edge32_Node000026_Node000003"><a xlink:title=" ">
<path fill="none" stroke="#63b8ff" d="M2456.85,-128.64C2474.61,-122.06 2492.01,-111.85 2502.63,-96 2510.04,-84.92 2511.64,-75.82 2502.63,-66 2498.54,-61.55 2179.96,-36.29 2014.72,-23.47"/>
<polygon fill="#63b8ff" stroke="#63b8ff" points="2455.36,-125.45 2446.99,-131.93 2457.58,-132.09 2455.36,-125.45"/>
</a>
</g>
</g>
<!-- Node26&#45;&gt;Node12 -->
<g id="edge33_Node000026_Node000012" class="edge">
<title>Node26&#45;&gt;Node12</title>
<g id="a_edge33_Node000026_Node000012"><a xlink:title=" ">
<path fill="none" stroke="#63b8ff" d="M2394.63,-121.66C2394.63,-111.24 2394.63,-98.8 2394.63,-90.67"/>
<polygon fill="#63b8ff" stroke="#63b8ff" points="2391.13,-121.87 2394.63,-131.87 2398.13,-121.87 2391.13,-121.87"/>
</a>
</g>
</g>
<!-- Node27&#45;&gt;Node20 -->
<g id="edge39_Node000027_Node000020" class="edge">
<title>Node27&#45;&gt;Node20</title>
<g id="a_edge39_Node000027_Node000020"><a xlink:title=" ">
<path fill="none" stroke="#63b8ff" d="M2858.94,-129.46C2877.82,-122.92 2896.23,-112.53 2907.63,-96 2922.69,-74.16 2915.27,-40.38 2910.54,-24.63"/>
<polygon fill="#63b8ff" stroke="#63b8ff" points="2857.87,-126.13 2849.37,-132.45 2859.95,-132.81 2857.87,-126.13"/>
</a>
</g>
</g>
<!-- Node28 -->
<g id="Node000028" class="node">
<title>Node28</title>
<g id="a_Node000028"><a xlink:href="main_8cpp.html" target="_top" xlink:title=" ">
<polygon fill="white" stroke="#666666" points="2898.13,-90.5 2819.13,-90.5 2819.13,-71.5 2898.13,-71.5 2898.13,-90.5"/>
<text text-anchor="middle" x="2858.63" y="-78.5" font-family="Helvetica,sans-Serif" font-size="10.00">src/main.cpp</text>
</a>
</g>
</g>
<!-- Node27&#45;&gt;Node28 -->
<g id="edge38_Node000027_Node000028" class="edge">
<title>Node27&#45;&gt;Node28</title>
<g id="a_edge38_Node000027_Node000028"><a xlink:title=" ">
<path fill="none" stroke="#63b8ff" d="M2808.38,-125.22C2821.18,-114.21 2837.99,-99.75 2848.55,-90.67"/>
<polygon fill="#63b8ff" stroke="#63b8ff" points="2805.96,-122.69 2800.66,-131.87 2810.52,-128 2805.96,-122.69"/>
</a>
</g>
</g>
</g>
</svg>

<g id="navigator" transform="translate(0 0)" fill="#404254">
  <rect fill="#f2f5e9" fill-opacity="0.5" stroke="#606060" stroke-width=".5" x="0" y="0" width="60" height="60"/>
  <use id="zoomplus" xlink:href="#zoomPlus" x="17" y="9" onmousedown="handleZoom(evt,'in')"/>
  <use id="zoomminus" xlink:href="#zoomMin" x="42" y="9" onmousedown="handleZoom(evt,'out')"/>
  <use id="reset" xlink:href="#resetDef" x="30" y="36" onmousedown="handleReset()"/>
   <use id="arrowup" xlink:href="#arrowUp" x="0" y="0" onmousedown="handlePan(0,-1)"/>
  <use id="arrowright" xlink:href="#arrowRight" x="0" y="0" onmousedown="handlePan(1,0)"/>
  <use id="arrowdown" xlink:href="#arrowDown" x="0" y="0" onmousedown="handlePan(0,1)"/>
  <use id="arrowleft" xlink:href="#arrowLeft" x="0" y="0" onmousedown="handlePan(-1,0)"/>
</g>
<svg viewBox="0 0 15 15" width="100%" height="30px" preserveAspectRatio="xMaxYMin meet">
 <g id="arrow_out" transform="scale(0.3 0.3)">
  <a xlink:href="SceneManager_8h__dep__incl_org.svg" target="_base">
   <rect id="button" ry="5" rx="5" y="6" x="6" height="38" width="38"
        fill="#f2f5e9" fill-opacity="0.5" stroke="#606060" stroke-width="1.0"/>
   <path id="arrow"
     d="M 11.500037,31.436501 C 11.940474,20.09759 22.043105,11.32322 32.158766,21.979434 L 37.068811,17.246167 C 37.068811,17.246167 37.088388,32 37.088388,32 L 22.160133,31.978069 C 22.160133,31.978069 26.997745,27.140456 26.997745,27.140456 C 18.528582,18.264221 13.291696,25.230495 11.500037,31.436501 z"
     style="fill:#404040;"/>
  </a>
 </g>
</svg>

<style type='text/css'>
<![CDATA[
[data-mouse-over-selected='false'] { opacity: 0.7; }
[data-mouse-over-selected='true']  { opacity: 1.0; }
]]>
</style>
<script type="application/ecmascript"><![CDATA[
document.addEventListener('DOMContentLoaded', (event) => {
  highlightEdges();
  highlightAdjacentNodes();
});
]]></script>
</svg>
