<?xml version="1.0" encoding="UTF-8" standalone="no"?>
<!DOCTYPE svg PUBLIC "-//W3C//DTD SVG 1.1//EN"
 "http://www.w3.org/Graphics/SVG/1.1/DTD/svg11.dtd">
<!-- Generated by graphviz version 2.43.0 (0)
 -->
<!-- Title: src/graphics/core/Scene.h Pages: 1 -->
<!--zoomable 500 -->

<svg id="main" version="1.1" xmlns="http://www.w3.org/2000/svg" xmlns:xlink="http://www.w3.org/1999/xlink" xml:space="preserve" onload="init(evt)">
<style type="text/css"><![CDATA[
.node, .edge {opacity: 0.7;}
.node.selected, .edge.selected {opacity: 1;}
.edge:hover path { stroke: red; }
.edge:hover polygon { stroke: red; fill: red; }
]]></style>

<defs>
  <circle id="rim" cx="0" cy="0" r="7"/>
  <circle id="rim2" cx="0" cy="0" r="3.5"/>
  <g id="zoomPlus">
    <use xlink:href="#rim" fill="#404040"><set attributeName="fill" to="#808080" begin="zoomplus.mouseover" end="zoomplus.mouseout"/></use>
    <path d="M-4,0h8M0,-4v8" fill="none" stroke="white" stroke-width="1.5" pointer-events="none"/>
  </g>
  <g id="zoomMin">
    <use xlink:href="#rim" fill="#404040"><set attributeName="fill" to="#808080" begin="zoomminus.mouseover" end="zoomminus.mouseout"/></use>
    <path d="M-4,0h8" fill="none" stroke="white" stroke-width="1.5" pointer-events="none"/>
  </g>
  <g id="arrowUp" transform="translate(30 24)">
    <use xlink:href="#rim"/>
    <path pointer-events="none" fill="none" stroke="white" stroke-width="1.5" d="M0,-3.0v7 M-2.5,-0.5L0,-3.0L2.5,-0.5"/>
  </g>
  <g id="arrowRight" transform="rotate(90) translate(36 -43)">
    <use xlink:href="#rim"/>
    <path pointer-events="none" fill="none" stroke="white" stroke-width="1.5" d="M0,-3.0v7 M-2.5,-0.5L0,-3.0L2.5,-0.5"/>
  </g>
  <g id="arrowDown" transform="rotate(180) translate(-30 -48)">
    <use xlink:href="#rim"/>
    <path pointer-events="none" fill="none" stroke="white" stroke-width="1.5" d="M0,-3.0v7 M-2.5,-0.5L0,-3.0L2.5,-0.5"/>
  </g>
  <g id="arrowLeft" transform="rotate(270) translate(-36 17)">
    <use xlink:href="#rim"/>
    <path pointer-events="none" fill="none" stroke="white" stroke-width="1.5" d="M0,-3.0v7 M-2.5,-0.5L0,-3.0L2.5,-0.5"/>
  </g>
  <g id="resetDef">
    <use xlink:href="#rim2" fill="#404040"><set attributeName="fill" to="#808080" begin="reset.mouseover" end="reset.mouseout"/></use>
  </g>
</defs>
<script type="application/ecmascript">
var viewWidth = 829;
var viewHeight = 500;
var sectionId = 'dynsection-0';
</script>
<script type="application/ecmascript" xlink:href="svg.min.js"/>
<svg id="graph" class="graph">
<g id="viewport">
<title>src/graphics/core/Scene.h</title>
<!-- Node1 -->
<g id="Node000001" class="node">
<title>Node1</title>
<g id="a_Node000001"><a xlink:title=" ">
<polygon fill="#999999" stroke="#666666" points="618,-492 478,-492 478,-473 618,-473 618,-492"/>
<text text-anchor="middle" x="548" y="-480" font-family="Helvetica,sans-Serif" font-size="10.00">src/graphics/core/Scene.h</text>
</a>
</g>
</g>
<!-- Node2 -->
<g id="Node000002" class="node">
<title>Node2</title>
<g id="a_Node000002"><a xlink:href="Camera_8h.html" target="_top" xlink:title=" ">
<polygon fill="white" stroke="#666666" points="132,-371 0,-371 0,-352 132,-352 132,-371"/>
<text text-anchor="middle" x="66" y="-359" font-family="Helvetica,sans-Serif" font-size="10.00">graphics/core/Camera.h</text>
</a>
</g>
</g>
<!-- Node1&#45;&gt;Node2 -->
<g id="edge1_Node000001_Node000002" class="edge">
<title>Node1&#45;&gt;Node2</title>
<g id="a_edge1_Node000001_Node000002"><a xlink:title=" ">
<path fill="none" stroke="#63b8ff" d="M477.93,-475.5C417.56,-469.25 328.49,-457.44 253,-437 194.11,-421.05 128.57,-392.21 92.84,-375.47"/>
<polygon fill="#63b8ff" stroke="#63b8ff" points="94.12,-372.21 83.58,-371.1 91.13,-378.54 94.12,-372.21"/>
</a>
</g>
</g>
<!-- Node4 -->
<g id="Node000004" class="node">
<title>Node4</title>
<g id="a_Node000004"><a xlink:href="Gizmo_8h.html" target="_top" xlink:title=" ">
<polygon fill="white" stroke="#666666" points="383.5,-437 262.5,-437 262.5,-407 383.5,-407 383.5,-437"/>
<text text-anchor="start" x="270.5" y="-425" font-family="Helvetica,sans-Serif" font-size="10.00">graphics/components</text>
<text text-anchor="middle" x="323" y="-414" font-family="Helvetica,sans-Serif" font-size="10.00">/Gizmo.h</text>
</a>
</g>
</g>
<!-- Node1&#45;&gt;Node4 -->
<g id="edge3_Node000001_Node000004" class="edge">
<title>Node1&#45;&gt;Node4</title>
<g id="a_edge3_Node000001_Node000004"><a xlink:title=" ">
<path fill="none" stroke="#63b8ff" d="M515.28,-472.99C481.77,-464.28 428.8,-450.51 386.93,-439.62"/>
<polygon fill="#63b8ff" stroke="#63b8ff" points="387.65,-436.19 377.09,-437.06 385.89,-442.97 387.65,-436.19"/>
</a>
</g>
</g>
<!-- Node11 -->
<g id="Node000011" class="node">
<title>Node11</title>
<g id="a_Node000011"><a xlink:title=" ">
<polygon fill="#e0e0e0" stroke="#999999" points="554.5,-189.5 507.5,-189.5 507.5,-170.5 554.5,-170.5 554.5,-189.5"/>
<text text-anchor="middle" x="531" y="-177.5" font-family="Helvetica,sans-Serif" font-size="10.00">vector</text>
</a>
</g>
</g>
<!-- Node1&#45;&gt;Node11 -->
<g id="edge34_Node000001_Node000011" class="edge">
<title>Node1&#45;&gt;Node11</title>
<g id="a_edge34_Node000001_Node000011"><a xlink:title=" ">
<path fill="none" stroke="#63b8ff" d="M543.19,-472.85C532.96,-453.63 510,-405.66 510,-362.5 510,-362.5 510,-362.5 510,-305.5 510,-267.46 519.65,-223.79 525.86,-199.6"/>
<polygon fill="#63b8ff" stroke="#63b8ff" points="529.32,-200.23 528.51,-189.67 522.55,-198.43 529.32,-200.23"/>
</a>
</g>
</g>
<!-- Node20 -->
<g id="Node000020" class="node">
<title>Node20</title>
<g id="a_Node000020"><a xlink:href="MathUtils_8h.html" target="_top" xlink:title="Mathematical utility functions for 3D graphics and physics.">
<polygon fill="white" stroke="#666666" points="715.5,-255.5 614.5,-255.5 614.5,-236.5 715.5,-236.5 715.5,-255.5"/>
<text text-anchor="middle" x="665" y="-243.5" font-family="Helvetica,sans-Serif" font-size="10.00">math/MathUtils.h</text>
</a>
</g>
</g>
<!-- Node1&#45;&gt;Node20 -->
<g id="edge27_Node000001_Node000020" class="edge">
<title>Node1&#45;&gt;Node20</title>
<g id="a_edge27_Node000001_Node000020"><a xlink:title=" ">
<path fill="none" stroke="#63b8ff" d="M547.55,-472.81C546.77,-451.2 546.91,-393.77 567,-352 585.3,-313.94 622.28,-280.28 645.21,-261.86"/>
<polygon fill="#63b8ff" stroke="#63b8ff" points="647.53,-264.49 653.25,-255.57 643.22,-258.98 647.53,-264.49"/>
</a>
</g>
</g>
<!-- Node21 -->
<g id="Node000021" class="node">
<title>Node21</title>
<g id="a_Node000021"><a xlink:href="UniformBuffer_8h.html" target="_top" xlink:title=" ">
<polygon fill="white" stroke="#666666" points="738,-371 576,-371 576,-352 738,-352 738,-371"/>
<text text-anchor="middle" x="657" y="-359" font-family="Helvetica,sans-Serif" font-size="10.00">graphics/core/UniformBuffer.h</text>
</a>
</g>
</g>
<!-- Node1&#45;&gt;Node21 -->
<g id="edge32_Node000001_Node000021" class="edge">
<title>Node1&#45;&gt;Node21</title>
<g id="a_edge32_Node000001_Node000021"><a xlink:title=" ">
<path fill="none" stroke="#63b8ff" d="M553.78,-472.77C563.52,-458.36 584.18,-429 605,-407 615.08,-396.35 627.53,-385.62 637.72,-377.37"/>
<polygon fill="#63b8ff" stroke="#63b8ff" points="639.99,-380.04 645.65,-371.08 635.64,-374.56 639.99,-380.04"/>
</a>
</g>
</g>
<!-- Node22 -->
<g id="Node000022" class="node">
<title>Node22</title>
<g id="a_Node000022"><a xlink:title=" ">
<polygon fill="#e0e0e0" stroke="#999999" points="661.5,-431.5 614.5,-431.5 614.5,-412.5 661.5,-412.5 661.5,-431.5"/>
<text text-anchor="middle" x="638" y="-419.5" font-family="Helvetica,sans-Serif" font-size="10.00">deque</text>
</a>
</g>
</g>
<!-- Node1&#45;&gt;Node22 -->
<g id="edge35_Node000001_Node000022" class="edge">
<title>Node1&#45;&gt;Node22</title>
<g id="a_edge35_Node000001_Node000022"><a xlink:title=" ">
<path fill="none" stroke="#63b8ff" d="M561.28,-472.87C575.64,-463.54 598.76,-448.51 615.87,-437.38"/>
<polygon fill="#63b8ff" stroke="#63b8ff" points="618.19,-440.05 624.67,-431.67 614.37,-434.18 618.19,-440.05"/>
</a>
</g>
</g>
<!-- Node23 -->
<g id="Node000023" class="node">
<title>Node23</title>
<g id="a_Node000023"><a xlink:title=" ">
<polygon fill="#e0e0e0" stroke="#999999" points="766,-431.5 680,-431.5 680,-412.5 766,-412.5 766,-431.5"/>
<text text-anchor="middle" x="723" y="-419.5" font-family="Helvetica,sans-Serif" font-size="10.00">unordered_set</text>
</a>
</g>
</g>
<!-- Node1&#45;&gt;Node23 -->
<g id="edge36_Node000001_Node000023" class="edge">
<title>Node1&#45;&gt;Node23</title>
<g id="a_edge36_Node000001_Node000023"><a xlink:title=" ">
<path fill="none" stroke="#63b8ff" d="M573.45,-472.99C603.64,-462.9 654.16,-446.01 688.02,-434.69"/>
<polygon fill="#63b8ff" stroke="#63b8ff" points="689.15,-438.01 697.52,-431.52 686.93,-431.37 689.15,-438.01"/>
</a>
</g>
</g>
<!-- Node3 -->
<g id="Node000003" class="node">
<title>Node3</title>
<g id="a_Node000003"><a xlink:title=" ">
<polygon fill="#e0e0e0" stroke="#999999" points="458,-74 380,-74 380,-55 458,-55 458,-74"/>
<text text-anchor="middle" x="419" y="-62" font-family="Helvetica,sans-Serif" font-size="10.00">glm/glm.hpp</text>
</a>
</g>
</g>
<!-- Node2&#45;&gt;Node3 -->
<g id="edge2_Node000002_Node000003" class="edge">
<title>Node2&#45;&gt;Node3</title>
<g id="a_edge2_Node000002_Node000003"><a xlink:title=" ">
<path fill="none" stroke="#63b8ff" d="M63.25,-351.77C57.56,-332.88 45,-286.68 45,-247 45,-247 45,-247 45,-179 45,-111.92 268.07,-80.76 369.66,-70.04"/>
<polygon fill="#63b8ff" stroke="#63b8ff" points="370.09,-73.51 379.68,-69.01 369.38,-66.55 370.09,-73.51"/>
</a>
</g>
</g>
<!-- Node4&#45;&gt;Node2 -->
<g id="edge8_Node000004_Node000002" class="edge">
<title>Node4&#45;&gt;Node2</title>
<g id="a_edge8_Node000004_Node000002"><a xlink:title=" ">
<path fill="none" stroke="#63b8ff" d="M262.42,-407.21C216.9,-396.85 155.43,-382.86 113.46,-373.3"/>
<polygon fill="#63b8ff" stroke="#63b8ff" points="114.02,-369.84 103.49,-371.03 112.47,-376.67 114.02,-369.84"/>
</a>
</g>
</g>
<!-- Node5 -->
<g id="Node000005" class="node">
<title>Node5</title>
<g id="a_Node000005"><a xlink:href="Shader_8h.html" target="_top" xlink:title=" ">
<polygon fill="white" stroke="#666666" points="220.5,-261 99.5,-261 99.5,-231 220.5,-231 220.5,-261"/>
<text text-anchor="start" x="107.5" y="-249" font-family="Helvetica,sans-Serif" font-size="10.00">graphics/components</text>
<text text-anchor="middle" x="160" y="-238" font-family="Helvetica,sans-Serif" font-size="10.00">/Shader.h</text>
</a>
</g>
</g>
<!-- Node4&#45;&gt;Node5 -->
<g id="edge4_Node000004_Node000005" class="edge">
<title>Node4&#45;&gt;Node5</title>
<g id="a_edge4_Node000004_Node000005"><a xlink:title=" ">
<path fill="none" stroke="#63b8ff" d="M292.95,-406.86C260.08,-389.86 208.2,-358.25 179,-316 169.82,-302.72 165.07,-285.16 162.61,-271.07"/>
<polygon fill="#63b8ff" stroke="#63b8ff" points="166.06,-270.49 161.14,-261.11 159.14,-271.51 166.06,-270.49"/>
</a>
</g>
</g>
<!-- Node8 -->
<g id="Node000008" class="node">
<title>Node8</title>
<g id="a_Node000008"><a xlink:href="IHandle_8h.html" target="_top" xlink:title=" ">
<polygon fill="white" stroke="#666666" points="354.5,-371 291.5,-371 291.5,-352 354.5,-352 354.5,-371"/>
<text text-anchor="middle" x="323" y="-359" font-family="Helvetica,sans-Serif" font-size="10.00">IHandle.h</text>
</a>
</g>
</g>
<!-- Node4&#45;&gt;Node8 -->
<g id="edge9_Node000004_Node000008" class="edge">
<title>Node4&#45;&gt;Node8</title>
<g id="a_edge9_Node000004_Node000008"><a xlink:title=" ">
<path fill="none" stroke="#63b8ff" d="M323,-406.84C323,-399.21 323,-389.7 323,-381.45"/>
<polygon fill="#63b8ff" stroke="#63b8ff" points="326.5,-381.27 323,-371.27 319.5,-381.27 326.5,-381.27"/>
</a>
</g>
</g>
<!-- Node19 -->
<g id="Node000019" class="node">
<title>Node19</title>
<g id="a_Node000019"><a xlink:href="IPickable_8h.html" target="_top" xlink:title=" ">
<polygon fill="white" stroke="#666666" points="675,-189.5 573,-189.5 573,-170.5 675,-170.5 675,-189.5"/>
<text text-anchor="middle" x="624" y="-177.5" font-family="Helvetica,sans-Serif" font-size="10.00">../core/IPickable.h</text>
</a>
</g>
</g>
<!-- Node4&#45;&gt;Node19 -->
<g id="edge25_Node000004_Node000019" class="edge">
<title>Node4&#45;&gt;Node19</title>
<g id="a_edge25_Node000004_Node000019"><a xlink:title=" ">
<path fill="none" stroke="#63b8ff" d="M340.93,-406.71C394.16,-364.26 550.95,-239.25 605.24,-195.96"/>
<polygon fill="#63b8ff" stroke="#63b8ff" points="607.68,-198.49 613.32,-189.52 603.32,-193.01 607.68,-198.49"/>
</a>
</g>
</g>
<!-- Node5&#45;&gt;Node3 -->
<g id="edge6_Node000005_Node000003" class="edge">
<title>Node5&#45;&gt;Node3</title>
<g id="a_edge6_Node000005_Node000003"><a xlink:title=" ">
<path fill="none" stroke="#63b8ff" d="M137.29,-230.8C114.54,-214.78 85.15,-187.95 102,-165 134,-121.41 289.15,-88.3 369.91,-73.7"/>
<polygon fill="#63b8ff" stroke="#63b8ff" points="370.61,-77.13 379.85,-71.93 369.39,-70.24 370.61,-77.13"/>
</a>
</g>
</g>
<!-- Node6 -->
<g id="Node000006" class="node">
<title>Node6</title>
<g id="a_Node000006"><a xlink:title=" ">
<polygon fill="#e0e0e0" stroke="#999999" points="155,-189.5 111,-189.5 111,-170.5 155,-170.5 155,-189.5"/>
<text text-anchor="middle" x="133" y="-177.5" font-family="Helvetica,sans-Serif" font-size="10.00">string</text>
</a>
</g>
</g>
<!-- Node5&#45;&gt;Node6 -->
<g id="edge5_Node000005_Node000006" class="edge">
<title>Node5&#45;&gt;Node6</title>
<g id="a_edge5_Node000005_Node000006"><a xlink:title=" ">
<path fill="none" stroke="#63b8ff" d="M154.01,-230.8C150.09,-221.5 144.93,-209.27 140.7,-199.26"/>
<polygon fill="#63b8ff" stroke="#63b8ff" points="143.84,-197.7 136.73,-189.84 137.39,-200.42 143.84,-197.7"/>
</a>
</g>
</g>
<!-- Node7 -->
<g id="Node000007" class="node">
<title>Node7</title>
<g id="a_Node000007"><a xlink:title=" ">
<polygon fill="#e0e0e0" stroke="#999999" points="293,-195 173,-195 173,-165 293,-165 293,-195"/>
<text text-anchor="start" x="181" y="-183" font-family="Helvetica,sans-Serif" font-size="10.00">QOpenGLFunctions_4</text>
<text text-anchor="middle" x="233" y="-172" font-family="Helvetica,sans-Serif" font-size="10.00">_5_Core</text>
</a>
</g>
</g>
<!-- Node5&#45;&gt;Node7 -->
<g id="edge7_Node000005_Node000007" class="edge">
<title>Node5&#45;&gt;Node7</title>
<g id="a_edge7_Node000005_Node000007"><a xlink:title=" ">
<path fill="none" stroke="#63b8ff" d="M176.2,-230.8C185.84,-222.34 198.25,-211.46 209.01,-202.03"/>
<polygon fill="#63b8ff" stroke="#63b8ff" points="211.63,-204.39 216.84,-195.16 207.02,-199.12 211.63,-204.39"/>
</a>
</g>
</g>
<!-- Node9 -->
<g id="Node000009" class="node">
<title>Node9</title>
<g id="a_Node000009"><a xlink:href="IDrawable_8h.html" target="_top" xlink:title=" ">
<polygon fill="white" stroke="#666666" points="296,-316 188,-316 188,-297 296,-297 296,-316"/>
<text text-anchor="middle" x="242" y="-304" font-family="Helvetica,sans-Serif" font-size="10.00">../core/IDrawable.h</text>
</a>
</g>
</g>
<!-- Node8&#45;&gt;Node9 -->
<g id="edge10_Node000008_Node000009" class="edge">
<title>Node8&#45;&gt;Node9</title>
<g id="a_edge10_Node000008_Node000009"><a xlink:title=" ">
<path fill="none" stroke="#63b8ff" d="M309.99,-351.98C297.54,-343.84 278.54,-331.41 263.79,-321.76"/>
<polygon fill="#63b8ff" stroke="#63b8ff" points="265.54,-318.72 255.25,-316.17 261.7,-324.57 265.54,-318.72"/>
</a>
</g>
</g>
<!-- Node18 -->
<g id="Node000018" class="node">
<title>Node18</title>
<g id="a_Node000018"><a xlink:title=" ">
<polygon fill="#e0e0e0" stroke="#999999" points="444,-316 314,-316 314,-297 444,-297 444,-316"/>
<text text-anchor="middle" x="379" y="-304" font-family="Helvetica,sans-Serif" font-size="10.00">glm/gtc/quaternion.hpp</text>
</a>
</g>
</g>
<!-- Node8&#45;&gt;Node18 -->
<g id="edge24_Node000008_Node000018" class="edge">
<title>Node8&#45;&gt;Node18</title>
<g id="a_edge24_Node000008_Node000018"><a xlink:title=" ">
<path fill="none" stroke="#63b8ff" d="M332,-351.98C340.19,-344.23 352.51,-332.58 362.47,-323.14"/>
<polygon fill="#63b8ff" stroke="#63b8ff" points="364.98,-325.59 369.84,-316.17 360.17,-320.5 364.98,-325.59"/>
</a>
</g>
</g>
<!-- Node9&#45;&gt;Node5 -->
<g id="edge11_Node000009_Node000005" class="edge">
<title>Node9&#45;&gt;Node5</title>
<g id="a_edge11_Node000009_Node000005"><a xlink:title=" ">
<path fill="none" stroke="#63b8ff" d="M229.9,-296.87C218.98,-289.08 202.49,-277.32 188.28,-267.17"/>
<polygon fill="#63b8ff" stroke="#63b8ff" points="189.96,-264.07 179.78,-261.11 185.89,-269.77 189.96,-264.07"/>
</a>
</g>
</g>
<!-- Node10 -->
<g id="Node000010" class="node">
<title>Node10</title>
<g id="a_Node000010"><a xlink:href="Mesh_8h.html" target="_top" xlink:title=" ">
<polygon fill="white" stroke="#666666" points="381.5,-261 260.5,-261 260.5,-231 381.5,-231 381.5,-261"/>
<text text-anchor="start" x="268.5" y="-249" font-family="Helvetica,sans-Serif" font-size="10.00">graphics/components</text>
<text text-anchor="middle" x="321" y="-238" font-family="Helvetica,sans-Serif" font-size="10.00">/Mesh.h</text>
</a>
</g>
</g>
<!-- Node9&#45;&gt;Node10 -->
<g id="edge12_Node000009_Node000010" class="edge">
<title>Node9&#45;&gt;Node10</title>
<g id="a_edge12_Node000009_Node000010"><a xlink:title=" ">
<path fill="none" stroke="#63b8ff" d="M253.66,-296.87C264.18,-289.08 280.06,-277.32 293.76,-267.17"/>
<polygon fill="#63b8ff" stroke="#63b8ff" points="295.99,-269.88 301.94,-261.11 291.82,-264.25 295.99,-269.88"/>
</a>
</g>
</g>
<!-- Node10&#45;&gt;Node3 -->
<g id="edge15_Node000010_Node000003" class="edge">
<title>Node10&#45;&gt;Node3</title>
<g id="a_edge15_Node000010_Node000003"><a xlink:title=" ">
<path fill="none" stroke="#63b8ff" d="M322.48,-230.79C324.61,-214.28 329.52,-186.57 340,-165 356.03,-131.99 384.59,-99.86 402.63,-81.41"/>
<polygon fill="#63b8ff" stroke="#63b8ff" points="405.28,-83.71 409.87,-74.16 400.32,-78.76 405.28,-83.71"/>
</a>
</g>
</g>
<!-- Node10&#45;&gt;Node7 -->
<g id="edge13_Node000010_Node000007" class="edge">
<title>Node10&#45;&gt;Node7</title>
<g id="a_edge13_Node000010_Node000007"><a xlink:title=" ">
<path fill="none" stroke="#63b8ff" d="M301.47,-230.8C289.51,-222.1 274.01,-210.82 260.78,-201.2"/>
<polygon fill="#63b8ff" stroke="#63b8ff" points="262.62,-198.22 252.48,-195.16 258.5,-203.88 262.62,-198.22"/>
</a>
</g>
</g>
<!-- Node10&#45;&gt;Node11 -->
<g id="edge14_Node000010_Node000011" class="edge">
<title>Node10&#45;&gt;Node11</title>
<g id="a_edge14_Node000010_Node000011"><a xlink:title=" ">
<path fill="none" stroke="#63b8ff" d="M377.77,-230.91C412.77,-221.75 458.39,-208.93 498,-195 499.43,-194.5 500.89,-193.96 502.35,-193.41"/>
<polygon fill="#63b8ff" stroke="#63b8ff" points="503.98,-196.52 511.97,-189.56 501.38,-190.03 503.98,-196.52"/>
</a>
</g>
</g>
<!-- Node12 -->
<g id="Node000012" class="node">
<title>Node12</title>
<g id="a_Node000012"><a xlink:href="AABB_8h.html" target="_top" xlink:title=" ">
<polygon fill="white" stroke="#666666" points="489,-189.5 349,-189.5 349,-170.5 489,-170.5 489,-189.5"/>
<text text-anchor="middle" x="419" y="-177.5" font-family="Helvetica,sans-Serif" font-size="10.00">physics/bounding/AABB.h</text>
</a>
</g>
</g>
<!-- Node10&#45;&gt;Node12 -->
<g id="edge16_Node000010_Node000012" class="edge">
<title>Node10&#45;&gt;Node12</title>
<g id="a_edge16_Node000010_Node000012"><a xlink:title=" ">
<path fill="none" stroke="#63b8ff" d="M342.75,-230.8C358.87,-220.27 380.76,-205.97 396.95,-195.4"/>
<polygon fill="#63b8ff" stroke="#63b8ff" points="399.28,-198.06 405.74,-189.66 395.46,-192.2 399.28,-198.06"/>
</a>
</g>
</g>
<!-- Node12&#45;&gt;Node3 -->
<g id="edge17_Node000012_Node000003" class="edge">
<title>Node12&#45;&gt;Node3</title>
<g id="a_edge17_Node000012_Node000003"><a xlink:title=" ">
<path fill="none" stroke="#63b8ff" d="M419,-170.47C419,-152.23 419,-109.07 419,-84.14"/>
<polygon fill="#63b8ff" stroke="#63b8ff" points="422.5,-84.13 419,-74.13 415.5,-84.13 422.5,-84.13"/>
</a>
</g>
</g>
<!-- Node13 -->
<g id="Node000013" class="node">
<title>Node13</title>
<g id="a_Node000013"><a xlink:href="ICollider_8h.html" target="_top" xlink:title="Abstract interface for collision detection shapes.">
<polygon fill="white" stroke="#666666" points="749.5,-129 684.5,-129 684.5,-110 749.5,-110 749.5,-129"/>
<text text-anchor="middle" x="717" y="-117" font-family="Helvetica,sans-Serif" font-size="10.00">ICollider.h</text>
</a>
</g>
</g>
<!-- Node12&#45;&gt;Node13 -->
<g id="edge18_Node000012_Node000013" class="edge">
<title>Node12&#45;&gt;Node13</title>
<g id="a_edge18_Node000012_Node000013"><a xlink:title=" ">
<path fill="none" stroke="#63b8ff" d="M462.33,-170.49C519.02,-159.37 617.73,-139.99 674.17,-128.91"/>
<polygon fill="#63b8ff" stroke="#63b8ff" points="675.06,-132.3 684.19,-126.94 673.71,-125.43 675.06,-132.3"/>
</a>
</g>
</g>
<!-- Node13&#45;&gt;Node3 -->
<g id="edge19_Node000013_Node000003" class="edge">
<title>Node13&#45;&gt;Node3</title>
<g id="a_edge19_Node000013_Node000003"><a xlink:title=" ">
<path fill="none" stroke="#63b8ff" d="M684.39,-112.59C679.56,-111.72 674.65,-110.83 670,-110 599.9,-97.45 518.76,-83.09 468.15,-74.16"/>
<polygon fill="#63b8ff" stroke="#63b8ff" points="468.59,-70.69 458.14,-72.4 467.38,-77.58 468.59,-70.69"/>
</a>
</g>
</g>
<!-- Node14 -->
<g id="Node000014" class="node">
<title>Node14</title>
<g id="a_Node000014"><a xlink:title=" ">
<polygon fill="#e0e0e0" stroke="#999999" points="657,-74 599,-74 599,-55 657,-55 657,-74"/>
<text text-anchor="middle" x="628" y="-62" font-family="Helvetica,sans-Serif" font-size="10.00">memory</text>
</a>
</g>
</g>
<!-- Node13&#45;&gt;Node14 -->
<g id="edge20_Node000013_Node000014" class="edge">
<title>Node13&#45;&gt;Node14</title>
<g id="a_edge20_Node000013_Node000014"><a xlink:title=" ">
<path fill="none" stroke="#63b8ff" d="M702.7,-109.98C688.9,-101.77 667.76,-89.18 651.49,-79.49"/>
<polygon fill="#63b8ff" stroke="#63b8ff" points="652.94,-76.28 642.56,-74.17 649.36,-82.29 652.94,-76.28"/>
</a>
</g>
</g>
<!-- Node15 -->
<g id="Node000015" class="node">
<title>Node15</title>
<g id="a_Node000015"><a xlink:title=" ">
<polygon fill="#e0e0e0" stroke="#999999" points="821,-74 765,-74 765,-55 821,-55 821,-74"/>
<text text-anchor="middle" x="793" y="-62" font-family="Helvetica,sans-Serif" font-size="10.00">optional</text>
</a>
</g>
</g>
<!-- Node13&#45;&gt;Node15 -->
<g id="edge21_Node000013_Node000015" class="edge">
<title>Node13&#45;&gt;Node15</title>
<g id="a_edge21_Node000013_Node000015"><a xlink:title=" ">
<path fill="none" stroke="#63b8ff" d="M729.21,-109.98C740.78,-101.92 758.38,-89.65 772.16,-80.03"/>
<polygon fill="#63b8ff" stroke="#63b8ff" points="774.37,-82.76 780.57,-74.17 770.36,-77.02 774.37,-82.76"/>
</a>
</g>
</g>
<!-- Node16 -->
<g id="Node000016" class="node">
<title>Node16</title>
<g id="a_Node000016"><a xlink:href="Ray_8h.html" target="_top" xlink:title=" ">
<polygon fill="white" stroke="#666666" points="746.5,-74 675.5,-74 675.5,-55 746.5,-55 746.5,-74"/>
<text text-anchor="middle" x="711" y="-62" font-family="Helvetica,sans-Serif" font-size="10.00">math/Ray.h</text>
</a>
</g>
</g>
<!-- Node13&#45;&gt;Node16 -->
<g id="edge22_Node000013_Node000016" class="edge">
<title>Node13&#45;&gt;Node16</title>
<g id="a_edge22_Node000013_Node000016"><a xlink:title=" ">
<path fill="none" stroke="#63b8ff" d="M716.01,-109.75C715.22,-102.8 714.1,-92.85 713.11,-84.13"/>
<polygon fill="#63b8ff" stroke="#63b8ff" points="716.58,-83.63 711.97,-74.09 709.62,-84.42 716.58,-83.63"/>
</a>
</g>
</g>
<!-- Node17 -->
<g id="Node000017" class="node">
<title>Node17</title>
<g id="a_Node000017"><a xlink:title=" ">
<polygon fill="#e0e0e0" stroke="#999999" points="752.5,-19 669.5,-19 669.5,0 752.5,0 752.5,-19"/>
<text text-anchor="middle" x="711" y="-7" font-family="Helvetica,sans-Serif" font-size="10.00">glm/vec3.hpp</text>
</a>
</g>
</g>
<!-- Node16&#45;&gt;Node17 -->
<g id="edge23_Node000016_Node000017" class="edge">
<title>Node16&#45;&gt;Node17</title>
<g id="a_edge23_Node000016_Node000017"><a xlink:title=" ">
<path fill="none" stroke="#63b8ff" d="M711,-54.75C711,-47.8 711,-37.85 711,-29.13"/>
<polygon fill="#63b8ff" stroke="#63b8ff" points="714.5,-29.09 711,-19.09 707.5,-29.09 714.5,-29.09"/>
</a>
</g>
</g>
<!-- Node19&#45;&gt;Node3 -->
<g id="edge26_Node000019_Node000003" class="edge">
<title>Node19&#45;&gt;Node3</title>
<g id="a_edge26_Node000019_Node000003"><a xlink:title=" ">
<path fill="none" stroke="#63b8ff" d="M608.59,-170.47C573.27,-150.91 486.23,-102.72 443.48,-79.06"/>
<polygon fill="#63b8ff" stroke="#63b8ff" points="445.03,-75.91 434.59,-74.13 441.64,-82.04 445.03,-75.91"/>
</a>
</g>
</g>
<!-- Node20&#45;&gt;Node3 -->
<g id="edge28_Node000020_Node000003" class="edge">
<title>Node20&#45;&gt;Node3</title>
<g id="a_edge28_Node000020_Node000003"><a xlink:title=" ">
<path fill="none" stroke="#63b8ff" d="M671.06,-236.48C681.31,-220.91 699.53,-187.41 684,-165 635.36,-94.78 530.6,-74.04 468.35,-67.97"/>
<polygon fill="#63b8ff" stroke="#63b8ff" points="468.64,-64.48 458.37,-67.08 468.02,-71.45 468.64,-64.48"/>
</a>
</g>
</g>
<!-- Node20&#45;&gt;Node11 -->
<g id="edge29_Node000020_Node000011" class="edge">
<title>Node20&#45;&gt;Node11</title>
<g id="a_edge29_Node000020_Node000011"><a xlink:title=" ">
<path fill="none" stroke="#63b8ff" d="M646.93,-236.37C624.15,-225.49 584.78,-206.69 558.32,-194.05"/>
<polygon fill="#63b8ff" stroke="#63b8ff" points="559.75,-190.85 549.21,-189.7 556.73,-197.17 559.75,-190.85"/>
</a>
</g>
</g>
<!-- Node20&#45;&gt;Node15 -->
<g id="edge30_Node000020_Node000015" class="edge">
<title>Node20&#45;&gt;Node15</title>
<g id="a_edge30_Node000020_Node000015"><a xlink:title=" ">
<path fill="none" stroke="#63b8ff" d="M675.28,-236.43C686.31,-226.94 703.99,-210.89 717,-195 746.73,-158.67 772.25,-109.37 784.76,-83.32"/>
<polygon fill="#63b8ff" stroke="#63b8ff" points="787.93,-84.8 789.04,-74.26 781.6,-81.81 787.93,-84.8"/>
</a>
</g>
</g>
<!-- Node20&#45;&gt;Node19 -->
<g id="edge31_Node000020_Node000019" class="edge">
<title>Node20&#45;&gt;Node19</title>
<g id="a_edge31_Node000020_Node000019"><a xlink:title=" ">
<path fill="none" stroke="#63b8ff" d="M659.47,-236.37C653.27,-226.69 643.05,-210.74 635.17,-198.44"/>
<polygon fill="#63b8ff" stroke="#63b8ff" points="638.05,-196.44 629.7,-189.91 632.15,-200.21 638.05,-196.44"/>
</a>
</g>
</g>
<!-- Node21&#45;&gt;Node7 -->
<g id="edge33_Node000021_Node000007" class="edge">
<title>Node21&#45;&gt;Node7</title>
<g id="a_edge33_Node000021_Node000007"><a xlink:title=" ">
<path fill="none" stroke="#63b8ff" d="M641.41,-351.95C600.84,-329.94 488.32,-270.27 390,-231 358.61,-218.47 322.76,-206.85 293.24,-197.98"/>
<polygon fill="#63b8ff" stroke="#63b8ff" points="294.08,-194.57 283.49,-195.08 292.08,-201.28 294.08,-194.57"/>
</a>
</g>
</g>
</g>
</svg>

<g id="navigator" transform="translate(0 0)" fill="#404254">
  <rect fill="#f2f5e9" fill-opacity="0.5" stroke="#606060" stroke-width=".5" x="0" y="0" width="60" height="60"/>
  <use id="zoomplus" xlink:href="#zoomPlus" x="17" y="9" onmousedown="handleZoom(evt,'in')"/>
  <use id="zoomminus" xlink:href="#zoomMin" x="42" y="9" onmousedown="handleZoom(evt,'out')"/>
  <use id="reset" xlink:href="#resetDef" x="30" y="36" onmousedown="handleReset()"/>
   <use id="arrowup" xlink:href="#arrowUp" x="0" y="0" onmousedown="handlePan(0,-1)"/>
  <use id="arrowright" xlink:href="#arrowRight" x="0" y="0" onmousedown="handlePan(1,0)"/>
  <use id="arrowdown" xlink:href="#arrowDown" x="0" y="0" onmousedown="handlePan(0,1)"/>
  <use id="arrowleft" xlink:href="#arrowLeft" x="0" y="0" onmousedown="handlePan(-1,0)"/>
</g>
<svg viewBox="0 0 15 15" width="100%" height="30px" preserveAspectRatio="xMaxYMin meet">
 <g id="arrow_out" transform="scale(0.3 0.3)">
  <a xlink:href="Scene_8h__incl_org.svg" target="_base">
   <rect id="button" ry="5" rx="5" y="6" x="6" height="38" width="38"
        fill="#f2f5e9" fill-opacity="0.5" stroke="#606060" stroke-width="1.0"/>
   <path id="arrow"
     d="M 11.500037,31.436501 C 11.940474,20.09759 22.043105,11.32322 32.158766,21.979434 L 37.068811,17.246167 C 37.068811,17.246167 37.088388,32 37.088388,32 L 22.160133,31.978069 C 22.160133,31.978069 26.997745,27.140456 26.997745,27.140456 C 18.528582,18.264221 13.291696,25.230495 11.500037,31.436501 z"
     style="fill:#404040;"/>
  </a>
 </g>
</svg>

<style type='text/css'>
<![CDATA[
[data-mouse-over-selected='false'] { opacity: 0.7; }
[data-mouse-over-selected='true']  { opacity: 1.0; }
]]>
</style>
<script type="application/ecmascript"><![CDATA[
document.addEventListener('DOMContentLoaded', (event) => {
  highlightEdges();
  highlightAdjacentNodes();
});
]]></script>
</svg>
