<?xml version="1.0" encoding="UTF-8" standalone="no"?>
<!DOCTYPE svg PUBLIC "-//W3C//DTD SVG 1.1//EN"
 "http://www.w3.org/Graphics/SVG/1.1/DTD/svg11.dtd">
<!-- Generated by graphviz version 2.43.0 (0)
 -->
<!-- Title: src/graphics/core/Scene.h Pages: 1 -->
<!--zoomable 269 -->

<svg id="main" version="1.1" xmlns="http://www.w3.org/2000/svg" xmlns:xlink="http://www.w3.org/1999/xlink" xml:space="preserve" onload="init(evt)">
<style type="text/css"><![CDATA[
.node, .edge {opacity: 0.7;}
.node.selected, .edge.selected {opacity: 1;}
.edge:hover path { stroke: red; }
.edge:hover polygon { stroke: red; fill: red; }
]]></style>

<defs>
  <circle id="rim" cx="0" cy="0" r="7"/>
  <circle id="rim2" cx="0" cy="0" r="3.5"/>
  <g id="zoomPlus">
    <use xlink:href="#rim" fill="#404040"><set attributeName="fill" to="#808080" begin="zoomplus.mouseover" end="zoomplus.mouseout"/></use>
    <path d="M-4,0h8M0,-4v8" fill="none" stroke="white" stroke-width="1.5" pointer-events="none"/>
  </g>
  <g id="zoomMin">
    <use xlink:href="#rim" fill="#404040"><set attributeName="fill" to="#808080" begin="zoomminus.mouseover" end="zoomminus.mouseout"/></use>
    <path d="M-4,0h8" fill="none" stroke="white" stroke-width="1.5" pointer-events="none"/>
  </g>
  <g id="arrowUp" transform="translate(30 24)">
    <use xlink:href="#rim"/>
    <path pointer-events="none" fill="none" stroke="white" stroke-width="1.5" d="M0,-3.0v7 M-2.5,-0.5L0,-3.0L2.5,-0.5"/>
  </g>
  <g id="arrowRight" transform="rotate(90) translate(36 -43)">
    <use xlink:href="#rim"/>
    <path pointer-events="none" fill="none" stroke="white" stroke-width="1.5" d="M0,-3.0v7 M-2.5,-0.5L0,-3.0L2.5,-0.5"/>
  </g>
  <g id="arrowDown" transform="rotate(180) translate(-30 -48)">
    <use xlink:href="#rim"/>
    <path pointer-events="none" fill="none" stroke="white" stroke-width="1.5" d="M0,-3.0v7 M-2.5,-0.5L0,-3.0L2.5,-0.5"/>
  </g>
  <g id="arrowLeft" transform="rotate(270) translate(-36 17)">
    <use xlink:href="#rim"/>
    <path pointer-events="none" fill="none" stroke="white" stroke-width="1.5" d="M0,-3.0v7 M-2.5,-0.5L0,-3.0L2.5,-0.5"/>
  </g>
  <g id="resetDef">
    <use xlink:href="#rim2" fill="#404040"><set attributeName="fill" to="#808080" begin="reset.mouseover" end="reset.mouseout"/></use>
  </g>
</defs>
<script type="application/ecmascript">
var viewWidth = 3434;
var viewHeight = 269;
var sectionId = 'dynsection-1';
</script>
<script type="application/ecmascript" xlink:href="svg.min.js"/>
<svg id="graph" class="graph">
<g id="viewport">
<title>src/graphics/core/Scene.h</title>
<!-- Node1 -->
<g id="Node000001" class="node">
<title>Node1</title>
<g id="a_Node000001"><a xlink:title=" ">
<polygon fill="#999999" stroke="#666666" points="1270.5,-261 1130.5,-261 1130.5,-242 1270.5,-242 1270.5,-261"/>
<text text-anchor="middle" x="1200.5" y="-249" font-family="Helvetica,sans-Serif" font-size="10.00">src/graphics/core/Scene.h</text>
</a>
</g>
</g>
<!-- Node2 -->
<g id="Node000002" class="node">
<title>Node2</title>
<g id="a_Node000002"><a xlink:href="Scene_8cpp.html" target="_top" xlink:title=" ">
<polygon fill="white" stroke="#666666" points="353.5,-90.5 201.5,-90.5 201.5,-71.5 353.5,-71.5 353.5,-90.5"/>
<text text-anchor="middle" x="277.5" y="-78.5" font-family="Helvetica,sans-Serif" font-size="10.00">src/graphics/core/Scene.cpp</text>
</a>
</g>
</g>
<!-- Node1&#45;&gt;Node2 -->
<g id="edge1_Node000001_Node000002" class="edge">
<title>Node1&#45;&gt;Node2</title>
<g id="a_edge1_Node000001_Node000002"><a xlink:title=" ">
<path fill="none" stroke="#63b8ff" d="M1120.5,-245.64C983.71,-236.03 696.82,-210.16 461.5,-151 399.13,-135.32 328.85,-105.32 296.12,-90.59"/>
<polygon fill="#63b8ff" stroke="#63b8ff" points="1120.27,-249.13 1130.49,-246.33 1120.75,-242.15 1120.27,-249.13"/>
</a>
</g>
</g>
<!-- Node3 -->
<g id="Node000003" class="node">
<title>Node3</title>
<g id="a_Node000003"><a xlink:href="SceneManager_8h.html" target="_top" xlink:title=" ">
<polygon fill="white" stroke="#666666" points="2303.5,-206 2121.5,-206 2121.5,-187 2303.5,-187 2303.5,-206"/>
<text text-anchor="middle" x="2212.5" y="-194" font-family="Helvetica,sans-Serif" font-size="10.00">src/graphics/core/SceneManager.h</text>
</a>
</g>
</g>
<!-- Node1&#45;&gt;Node3 -->
<g id="edge2_Node000001_Node000003" class="edge">
<title>Node1&#45;&gt;Node3</title>
<g id="a_edge2_Node000001_Node000003"><a xlink:title=" ">
<path fill="none" stroke="#63b8ff" d="M1281.11,-246.28C1467.13,-236.54 1925.37,-212.54 2121.28,-202.28"/>
<polygon fill="#63b8ff" stroke="#63b8ff" points="1280.66,-242.8 1270.86,-246.82 1281.03,-249.79 1280.66,-242.8"/>
</a>
</g>
</g>
<!-- Node6 -->
<g id="Node000006" class="node">
<title>Node6</title>
<g id="a_Node000006"><a xlink:href="SceneObject_8cpp.html" target="_top" xlink:title=" ">
<polygon fill="white" stroke="#666666" points="183,-90.5 0,-90.5 0,-71.5 183,-71.5 183,-90.5"/>
<text text-anchor="middle" x="91.5" y="-78.5" font-family="Helvetica,sans-Serif" font-size="10.00">src/graphics/core/SceneObject.cpp</text>
</a>
</g>
</g>
<!-- Node1&#45;&gt;Node6 -->
<g id="edge50_Node000001_Node000006" class="edge">
<title>Node1&#45;&gt;Node6</title>
<g id="a_edge50_Node000001_Node000006"><a xlink:title=" ">
<path fill="none" stroke="#63b8ff" d="M1120.28,-246.96C1009.53,-241.46 803.72,-229.02 629.5,-206 497.71,-188.59 464.92,-181.34 335.5,-151 255.99,-132.36 163.6,-104.51 118.73,-90.58"/>
<polygon fill="#63b8ff" stroke="#63b8ff" points="1120.21,-250.46 1130.37,-247.46 1120.55,-243.47 1120.21,-250.46"/>
</a>
</g>
</g>
<!-- Node23 -->
<g id="Node000023" class="node">
<title>Node23</title>
<g id="a_Node000023"><a xlink:href="OpenGLWindow_8cpp.html" target="_top" xlink:title=" ">
<polygon fill="white" stroke="#666666" points="3282.5,-90.5 3140.5,-90.5 3140.5,-71.5 3282.5,-71.5 3282.5,-90.5"/>
<text text-anchor="middle" x="3211.5" y="-78.5" font-family="Helvetica,sans-Serif" font-size="10.00">src/ui/OpenGLWindow.cpp</text>
</a>
</g>
</g>
<!-- Node1&#45;&gt;Node23 -->
<g id="edge51_Node000001_Node000023" class="edge">
<title>Node1&#45;&gt;Node23</title>
<g id="a_edge51_Node000001_Node000023"><a xlink:title=" ">
<path fill="none" stroke="#63b8ff" d="M1280.99,-250.34C1628.27,-249.14 2988.44,-238.8 3156.5,-151 3182.3,-137.52 3200.1,-106.04 3207.56,-90.71"/>
<polygon fill="#63b8ff" stroke="#63b8ff" points="1280.75,-246.84 1270.76,-250.38 1280.78,-253.84 1280.75,-246.84"/>
</a>
</g>
</g>
<!-- Node4 -->
<g id="Node000004" class="node">
<title>Node4</title>
<g id="a_Node000004"><a xlink:href="Gizmo_8cpp.html" target="_top" xlink:title=" ">
<polygon fill="white" stroke="#666666" points="1099.5,-30 961.5,-30 961.5,0 1099.5,0 1099.5,-30"/>
<text text-anchor="start" x="969.5" y="-18" font-family="Helvetica,sans-Serif" font-size="10.00">src/graphics/components</text>
<text text-anchor="middle" x="1030.5" y="-7" font-family="Helvetica,sans-Serif" font-size="10.00">/Gizmo.cpp</text>
</a>
</g>
</g>
<!-- Node3&#45;&gt;Node4 -->
<g id="edge3_Node000003_Node000004" class="edge">
<title>Node3&#45;&gt;Node4</title>
<g id="a_edge3_Node000003_Node000004"><a xlink:title=" ">
<path fill="none" stroke="#63b8ff" d="M2111.21,-193.42C1755.14,-185.61 579.45,-155.39 526.5,-96 517.63,-86.05 517.55,-75.88 526.5,-66 555.15,-34.37 830.16,-21.96 961.42,-17.81"/>
<polygon fill="#63b8ff" stroke="#63b8ff" points="2111.18,-196.92 2121.25,-193.64 2111.33,-189.92 2111.18,-196.92"/>
</a>
</g>
</g>
<!-- Node5 -->
<g id="Node000005" class="node">
<title>Node5</title>
<g id="a_Node000005"><a xlink:href="SceneManager_8cpp.html" target="_top" xlink:title=" ">
<polygon fill="white" stroke="#666666" points="2572.5,-24.5 2378.5,-24.5 2378.5,-5.5 2572.5,-5.5 2572.5,-24.5"/>
<text text-anchor="middle" x="2475.5" y="-12.5" font-family="Helvetica,sans-Serif" font-size="10.00">src/graphics/core/SceneManager.cpp</text>
</a>
</g>
</g>
<!-- Node3&#45;&gt;Node5 -->
<g id="edge4_Node000003_Node000005" class="edge">
<title>Node3&#45;&gt;Node5</title>
<g id="a_edge4_Node000003_Node000005"><a xlink:title=" ">
<path fill="none" stroke="#63b8ff" d="M2313.61,-196.07C2523.25,-196.41 2990.69,-192.45 3049.5,-151 3071.16,-135.74 3067.29,-121.98 3072.5,-96 3075.12,-82.93 3081.53,-75.81 3072.5,-66 3039.43,-30.04 2733.36,-19.93 2572.81,-17.1"/>
<polygon fill="#63b8ff" stroke="#63b8ff" points="2313.53,-192.57 2303.53,-196.05 2313.52,-199.57 2313.53,-192.57"/>
</a>
</g>
</g>
<!-- Node3&#45;&gt;Node6 -->
<g id="edge5_Node000003_Node000006" class="edge">
<title>Node3&#45;&gt;Node6</title>
<g id="a_edge5_Node000003_Node000006"><a xlink:title=" ">
<path fill="none" stroke="#63b8ff" d="M2110.97,-195.04C1787.67,-193.24 784.51,-185.01 461.5,-151 337.38,-137.93 192.51,-105.96 126.94,-90.56"/>
<polygon fill="#63b8ff" stroke="#63b8ff" points="2111.24,-198.54 2121.26,-195.1 2111.28,-191.54 2111.24,-198.54"/>
</a>
</g>
</g>
<!-- Node7 -->
<g id="Node000007" class="node">
<title>Node7</title>
<g id="a_Node000007"><a xlink:href="SceneObject_8h.html" target="_top" xlink:title=" ">
<polygon fill="white" stroke="#666666" points="1804.5,-151 1632.5,-151 1632.5,-132 1804.5,-132 1804.5,-151"/>
<text text-anchor="middle" x="1718.5" y="-139" font-family="Helvetica,sans-Serif" font-size="10.00">src/graphics/core/SceneObject.h</text>
</a>
</g>
</g>
<!-- Node3&#45;&gt;Node7 -->
<g id="edge6_Node000003_Node000007" class="edge">
<title>Node3&#45;&gt;Node7</title>
<g id="a_edge6_Node000003_Node000007"><a xlink:title=" ">
<path fill="none" stroke="#63b8ff" d="M2122.93,-185.89C2030.26,-175.95 1886.89,-160.57 1798.08,-151.04"/>
<polygon fill="#63b8ff" stroke="#63b8ff" points="2122.81,-189.4 2133.13,-186.98 2123.56,-182.44 2122.81,-189.4"/>
</a>
</g>
</g>
<!-- Node14 -->
<g id="Node000014" class="node">
<title>Node14</title>
<g id="a_Node000014"><a xlink:href="Colliders_8cpp.html" target="_top" xlink:title=" ">
<polygon fill="white" stroke="#666666" points="479.5,-96 371.5,-96 371.5,-66 479.5,-66 479.5,-96"/>
<text text-anchor="start" x="379.5" y="-84" font-family="Helvetica,sans-Serif" font-size="10.00">src/graphics/debug</text>
<text text-anchor="middle" x="425.5" y="-73" font-family="Helvetica,sans-Serif" font-size="10.00">/Colliders.cpp</text>
</a>
</g>
</g>
<!-- Node3&#45;&gt;Node14 -->
<g id="edge40_Node000003_Node000014" class="edge">
<title>Node3&#45;&gt;Node14</title>
<g id="a_edge40_Node000003_Node000014"><a xlink:title=" ">
<path fill="none" stroke="#63b8ff" d="M2111.25,-194.97C1753.72,-192.81 567.87,-183.26 493.5,-151 467.27,-139.62 445.89,-112.93 434.49,-96.28"/>
<polygon fill="#63b8ff" stroke="#63b8ff" points="2111.31,-198.47 2121.33,-195.03 2111.35,-191.47 2111.31,-198.47"/>
</a>
</g>
</g>
<!-- Node16 -->
<g id="Node000016" class="node">
<title>Node16</title>
<g id="a_Node000016"><a xlink:href="Forces_8cpp.html" target="_top" xlink:title=" ">
<polygon fill="white" stroke="#666666" points="3339.5,-30 3231.5,-30 3231.5,0 3339.5,0 3339.5,-30"/>
<text text-anchor="start" x="3239.5" y="-18" font-family="Helvetica,sans-Serif" font-size="10.00">src/graphics/debug</text>
<text text-anchor="middle" x="3285.5" y="-7" font-family="Helvetica,sans-Serif" font-size="10.00">/Forces.cpp</text>
</a>
</g>
</g>
<!-- Node3&#45;&gt;Node16 -->
<g id="edge41_Node000003_Node000016" class="edge">
<title>Node3&#45;&gt;Node16</title>
<g id="a_edge41_Node000003_Node000016"><a xlink:title=" ">
<path fill="none" stroke="#63b8ff" d="M2314.16,-195.5C2596.29,-195.02 3370.81,-190.12 3408.5,-151 3420.16,-138.9 3441.67,-117.67 3405.5,-66 3390.29,-44.27 3363.77,-31.96 3339.51,-24.99"/>
<polygon fill="#63b8ff" stroke="#63b8ff" points="2313.92,-192.01 2303.93,-195.52 2313.93,-199.01 2313.92,-192.01"/>
</a>
</g>
</g>
<!-- Node17 -->
<g id="Node000017" class="node">
<title>Node17</title>
<g id="a_Node000017"><a xlink:href="PathTraces_8cpp.html" target="_top" xlink:title=" ">
<polygon fill="white" stroke="#666666" points="2122.5,-30 2014.5,-30 2014.5,0 2122.5,0 2122.5,-30"/>
<text text-anchor="start" x="2022.5" y="-18" font-family="Helvetica,sans-Serif" font-size="10.00">src/graphics/debug</text>
<text text-anchor="middle" x="2068.5" y="-7" font-family="Helvetica,sans-Serif" font-size="10.00">/PathTraces.cpp</text>
</a>
</g>
</g>
<!-- Node3&#45;&gt;Node17 -->
<g id="edge42_Node000003_Node000017" class="edge">
<title>Node3&#45;&gt;Node17</title>
<g id="a_edge42_Node000003_Node000017"><a xlink:title=" ">
<path fill="none" stroke="#63b8ff" d="M2186.28,-181.73C2157.53,-165.24 2112.22,-134.92 2087.5,-96 2074.49,-75.51 2070.38,-46.96 2069.09,-30.08"/>
<polygon fill="#63b8ff" stroke="#63b8ff" points="2184.9,-184.97 2195.34,-186.78 2188.31,-178.85 2184.9,-184.97"/>
</a>
</g>
</g>
<!-- Node19 -->
<g id="Node000019" class="node">
<title>Node19</title>
<g id="a_Node000019"><a xlink:href="AstronomyPresets_8cpp.html" target="_top" xlink:title=" ">
<polygon fill="white" stroke="#666666" points="665,-96 536,-96 536,-66 665,-66 665,-96"/>
<text text-anchor="start" x="544" y="-84" font-family="Helvetica,sans-Serif" font-size="10.00">src/graphics/presets</text>
<text text-anchor="middle" x="600.5" y="-73" font-family="Helvetica,sans-Serif" font-size="10.00">/AstronomyPresets.cpp</text>
</a>
</g>
</g>
<!-- Node3&#45;&gt;Node19 -->
<g id="edge43_Node000003_Node000019" class="edge">
<title>Node3&#45;&gt;Node19</title>
<g id="a_edge43_Node000003_Node000019"><a xlink:title=" ">
<path fill="none" stroke="#63b8ff" d="M2111.47,-193.33C1864.85,-187.09 1212.8,-164.87 673.5,-96 670.81,-95.66 668.07,-95.28 665.31,-94.86"/>
<polygon fill="#63b8ff" stroke="#63b8ff" points="2111.4,-196.83 2121.49,-193.58 2111.58,-189.83 2111.4,-196.83"/>
</a>
</g>
</g>
<!-- Node3&#45;&gt;Node23 -->
<g id="edge47_Node000003_Node000023" class="edge">
<title>Node3&#45;&gt;Node23</title>
<g id="a_edge47_Node000003_Node000023"><a xlink:title=" ">
<path fill="none" stroke="#63b8ff" d="M2313.76,-194.12C2535.92,-190.58 3052.29,-179.38 3126.5,-151 3160.23,-138.1 3190.71,-106.34 3204.19,-90.82"/>
<polygon fill="#63b8ff" stroke="#63b8ff" points="2313.67,-190.62 2303.72,-194.28 2313.78,-197.62 2313.67,-190.62"/>
</a>
</g>
</g>
<!-- Node25 -->
<g id="Node000025" class="node">
<title>Node25</title>
<g id="a_Node000025"><a xlink:href="GlobalsInspectorWidget_8cpp.html" target="_top" xlink:title=" ">
<polygon fill="white" stroke="#666666" points="2674,-96 2543,-96 2543,-66 2674,-66 2674,-96"/>
<text text-anchor="start" x="2551" y="-84" font-family="Helvetica,sans-Serif" font-size="10.00">src/ui/inspector/Globals</text>
<text text-anchor="middle" x="2608.5" y="-73" font-family="Helvetica,sans-Serif" font-size="10.00">InspectorWidget.cpp</text>
</a>
</g>
</g>
<!-- Node3&#45;&gt;Node25 -->
<g id="edge48_Node000003_Node000025" class="edge">
<title>Node3&#45;&gt;Node25</title>
<g id="a_edge48_Node000003_Node000025"><a xlink:title=" ">
<path fill="none" stroke="#63b8ff" d="M2251.97,-184.19C2324.75,-163.33 2479.89,-118.86 2559.35,-96.09"/>
<polygon fill="#63b8ff" stroke="#63b8ff" points="2250.91,-180.85 2242.26,-186.97 2252.84,-187.58 2250.91,-180.85"/>
</a>
</g>
</g>
<!-- Node26 -->
<g id="Node000026" class="node">
<title>Node26</title>
<g id="a_Node000026"><a xlink:href="InspectorWidget_8cpp.html" target="_top" xlink:title=" ">
<polygon fill="white" stroke="#666666" points="2831,-96 2692,-96 2692,-66 2831,-66 2831,-96"/>
<text text-anchor="start" x="2700" y="-84" font-family="Helvetica,sans-Serif" font-size="10.00">src/ui/inspector/Inspector</text>
<text text-anchor="middle" x="2761.5" y="-73" font-family="Helvetica,sans-Serif" font-size="10.00">Widget.cpp</text>
</a>
</g>
</g>
<!-- Node3&#45;&gt;Node26 -->
<g id="edge49_Node000003_Node000026" class="edge">
<title>Node3&#45;&gt;Node26</title>
<g id="a_edge49_Node000003_Node000026"><a xlink:title=" ">
<path fill="none" stroke="#63b8ff" d="M2263.56,-184.94C2362.82,-164.42 2581.84,-119.14 2693.37,-96.09"/>
<polygon fill="#63b8ff" stroke="#63b8ff" points="2262.85,-181.52 2253.76,-186.97 2264.27,-188.37 2262.85,-181.52"/>
</a>
</g>
</g>
<!-- Node30 -->
<g id="Node000030" class="node">
<title>Node30</title>
<g id="a_Node000030"><a xlink:href="SceneSerializer_8h.html" target="_top" xlink:title=" ">
<polygon fill="white" stroke="#666666" points="3040,-151 2855,-151 2855,-132 3040,-132 3040,-151"/>
<text text-anchor="middle" x="2947.5" y="-139" font-family="Helvetica,sans-Serif" font-size="10.00">src/graphics/core/SceneSerializer.h</text>
</a>
</g>
</g>
<!-- Node3&#45;&gt;Node30 -->
<g id="edge37_Node000003_Node000030" class="edge">
<title>Node3&#45;&gt;Node30</title>
<g id="a_edge37_Node000003_Node000030"><a xlink:title=" ">
<path fill="none" stroke="#63b8ff" d="M2313.84,-188.19C2457.07,-177.86 2716.63,-159.15 2854.93,-149.18"/>
<polygon fill="#63b8ff" stroke="#63b8ff" points="2313.45,-184.71 2303.73,-188.92 2313.96,-191.69 2313.45,-184.71"/>
</a>
</g>
</g>
<!-- Node31 -->
<g id="Node000031" class="node">
<title>Node31</title>
<g id="a_Node000031"><a xlink:href="MainWindow_8h.html" target="_top" xlink:title=" ">
<polygon fill="white" stroke="#666666" points="3399,-151 3282,-151 3282,-132 3399,-132 3399,-151"/>
<text text-anchor="middle" x="3340.5" y="-139" font-family="Helvetica,sans-Serif" font-size="10.00">src/ui/MainWindow.h</text>
</a>
</g>
</g>
<!-- Node3&#45;&gt;Node31 -->
<g id="edge44_Node000003_Node000031" class="edge">
<title>Node3&#45;&gt;Node31</title>
<g id="a_edge44_Node000003_Node000031"><a xlink:title=" ">
<path fill="none" stroke="#63b8ff" d="M2313.79,-191C2489.29,-183.15 2861.27,-166.35 3175.5,-151 3210.74,-149.28 3250.21,-147.25 3281.7,-145.6"/>
<polygon fill="#63b8ff" stroke="#63b8ff" points="2313.62,-187.5 2303.79,-191.44 2313.94,-194.49 2313.62,-187.5"/>
</a>
</g>
</g>
<!-- Node7&#45;&gt;Node2 -->
<g id="edge14_Node000007_Node000002" class="edge">
<title>Node7&#45;&gt;Node2</title>
<g id="a_edge14_Node000007_Node000002"><a xlink:title=" ">
<path fill="none" stroke="#63b8ff" d="M1622.22,-138.97C1354.92,-134.48 607.24,-120.07 362.5,-96 349.4,-94.71 335.27,-92.66 322.35,-90.51"/>
<polygon fill="#63b8ff" stroke="#63b8ff" points="1622.24,-142.48 1632.3,-139.14 1622.36,-135.48 1622.24,-142.48"/>
</a>
</g>
</g>
<!-- Node7&#45;&gt;Node4 -->
<g id="edge7_Node000007_Node000004" class="edge">
<title>Node7&#45;&gt;Node4</title>
<g id="a_edge7_Node000007_Node000004"><a xlink:title=" ">
<path fill="none" stroke="#63b8ff" d="M1622.29,-138.62C1455.18,-134.66 1124.69,-123.42 1079.5,-96 1054.99,-81.13 1041.02,-48.89 1034.69,-30.2"/>
<polygon fill="#63b8ff" stroke="#63b8ff" points="1622.25,-142.12 1632.33,-138.86 1622.41,-135.12 1622.25,-142.12"/>
</a>
</g>
</g>
<!-- Node7&#45;&gt;Node5 -->
<g id="edge15_Node000007_Node000005" class="edge">
<title>Node7&#45;&gt;Node5</title>
<g id="a_edge15_Node000007_Node000005"><a xlink:title=" ">
<path fill="none" stroke="#63b8ff" d="M1814.83,-140.85C1970.78,-140.26 2270.99,-134.01 2369.5,-96 2389.57,-88.25 2390.39,-79.04 2407.5,-66 2426.85,-51.26 2449.7,-34.61 2463.37,-24.73"/>
<polygon fill="#63b8ff" stroke="#63b8ff" points="1814.76,-137.35 1804.77,-140.88 1814.78,-144.35 1814.76,-137.35"/>
</a>
</g>
</g>
<!-- Node7&#45;&gt;Node6 -->
<g id="edge16_Node000007_Node000006" class="edge">
<title>Node7&#45;&gt;Node6</title>
<g id="a_edge16_Node000007_Node000006"><a xlink:title=" ">
<path fill="none" stroke="#63b8ff" d="M1622,-139.06C1332.13,-134.51 471.96,-119.37 192.5,-96 177.06,-94.71 160.38,-92.66 145.11,-90.53"/>
<polygon fill="#63b8ff" stroke="#63b8ff" points="1622.01,-142.56 1632.06,-139.22 1622.12,-135.56 1622.01,-142.56"/>
</a>
</g>
</g>
<!-- Node8 -->
<g id="Node000008" class="node">
<title>Node8</title>
<g id="a_Node000008"><a xlink:href="RotateHandle_8cpp.html" target="_top" xlink:title=" ">
<polygon fill="white" stroke="#666666" points="1884.5,-96 1746.5,-96 1746.5,-66 1884.5,-66 1884.5,-96"/>
<text text-anchor="start" x="1754.5" y="-84" font-family="Helvetica,sans-Serif" font-size="10.00">src/graphics/components</text>
<text text-anchor="middle" x="1815.5" y="-73" font-family="Helvetica,sans-Serif" font-size="10.00">/RotateHandle.cpp</text>
</a>
</g>
</g>
<!-- Node7&#45;&gt;Node8 -->
<g id="edge8_Node000007_Node000008" class="edge">
<title>Node7&#45;&gt;Node8</title>
<g id="a_edge8_Node000007_Node000008"><a xlink:title=" ">
<path fill="none" stroke="#63b8ff" d="M1741.62,-126.55C1756.88,-117.36 1776.79,-105.35 1792.1,-96.11"/>
<polygon fill="#63b8ff" stroke="#63b8ff" points="1739.57,-123.71 1732.81,-131.87 1743.18,-129.7 1739.57,-123.71"/>
</a>
</g>
</g>
<!-- Node9 -->
<g id="Node000009" class="node">
<title>Node9</title>
<g id="a_Node000009"><a xlink:href="ScaleHandle_8h.html" target="_top" xlink:title=" ">
<polygon fill="white" stroke="#666666" points="1226.5,-96 1088.5,-96 1088.5,-66 1226.5,-66 1226.5,-96"/>
<text text-anchor="start" x="1096.5" y="-84" font-family="Helvetica,sans-Serif" font-size="10.00">src/graphics/components</text>
<text text-anchor="middle" x="1157.5" y="-73" font-family="Helvetica,sans-Serif" font-size="10.00">/ScaleHandle.h</text>
</a>
</g>
</g>
<!-- Node7&#45;&gt;Node9 -->
<g id="edge9_Node000007_Node000009" class="edge">
<title>Node7&#45;&gt;Node9</title>
<g id="a_edge9_Node000007_Node000009"><a xlink:title=" ">
<path fill="none" stroke="#63b8ff" d="M1622.37,-133.99C1524.89,-126.84 1369.83,-113.94 1236.5,-96 1233.32,-95.57 1230.08,-95.11 1226.81,-94.62"/>
<polygon fill="#63b8ff" stroke="#63b8ff" points="1622.27,-137.5 1632.49,-134.73 1622.77,-130.51 1622.27,-137.5"/>
</a>
</g>
</g>
<!-- Node11 -->
<g id="Node000011" class="node">
<title>Node11</title>
<g id="a_Node000011"><a xlink:href="TranslateHandle_8cpp.html" target="_top" xlink:title=" ">
<polygon fill="white" stroke="#666666" points="2040.5,-96 1902.5,-96 1902.5,-66 2040.5,-66 2040.5,-96"/>
<text text-anchor="start" x="1910.5" y="-84" font-family="Helvetica,sans-Serif" font-size="10.00">src/graphics/components</text>
<text text-anchor="middle" x="1971.5" y="-73" font-family="Helvetica,sans-Serif" font-size="10.00">/TranslateHandle.cpp</text>
</a>
</g>
</g>
<!-- Node7&#45;&gt;Node11 -->
<g id="edge12_Node000007_Node000011" class="edge">
<title>Node7&#45;&gt;Node11</title>
<g id="a_edge12_Node000007_Node000011"><a xlink:title=" ">
<path fill="none" stroke="#63b8ff" d="M1765.28,-129.68C1806.23,-120.21 1866.01,-106.39 1910.68,-96.06"/>
<polygon fill="#63b8ff" stroke="#63b8ff" points="1764.24,-126.33 1755.29,-131.99 1765.82,-133.15 1764.24,-126.33"/>
</a>
</g>
</g>
<!-- Node12 -->
<g id="Node000012" class="node">
<title>Node12</title>
<g id="a_Node000012"><a xlink:href="Camera_8cpp.html" target="_top" xlink:title=" ">
<polygon fill="white" stroke="#666666" points="844,-90.5 683,-90.5 683,-71.5 844,-71.5 844,-90.5"/>
<text text-anchor="middle" x="763.5" y="-78.5" font-family="Helvetica,sans-Serif" font-size="10.00">src/graphics/core/Camera.cpp</text>
</a>
</g>
</g>
<!-- Node7&#45;&gt;Node12 -->
<g id="edge13_Node000007_Node000012" class="edge">
<title>Node7&#45;&gt;Node12</title>
<g id="a_edge13_Node000007_Node000012"><a xlink:title=" ">
<path fill="none" stroke="#63b8ff" d="M1622.04,-138.77C1461.98,-135.19 1131.59,-124.71 853.5,-96 840.13,-94.62 825.72,-92.61 812.43,-90.55"/>
<polygon fill="#63b8ff" stroke="#63b8ff" points="1622.26,-142.28 1632.33,-139 1622.41,-135.28 1622.26,-142.28"/>
</a>
</g>
</g>
<!-- Node13 -->
<g id="Node000013" class="node">
<title>Node13</title>
<g id="a_Node000013"><a xlink:href="SceneSerializer_8cpp.html" target="_top" xlink:title=" ">
<polygon fill="white" stroke="#666666" points="3046,-90.5 2849,-90.5 2849,-71.5 3046,-71.5 3046,-90.5"/>
<text text-anchor="middle" x="2947.5" y="-78.5" font-family="Helvetica,sans-Serif" font-size="10.00">src/graphics/core/SceneSerializer.cpp</text>
</a>
</g>
</g>
<!-- Node7&#45;&gt;Node13 -->
<g id="edge17_Node000007_Node000013" class="edge">
<title>Node7&#45;&gt;Node13</title>
<g id="a_edge17_Node000007_Node000013"><a xlink:title=" ">
<path fill="none" stroke="#63b8ff" d="M1814.71,-139.61C2008.94,-137.18 2461.71,-128.23 2840.5,-96 2856.55,-94.63 2873.9,-92.61 2889.85,-90.51"/>
<polygon fill="#63b8ff" stroke="#63b8ff" points="1814.49,-136.12 1804.53,-139.74 1814.57,-143.12 1814.49,-136.12"/>
</a>
</g>
</g>
<!-- Node7&#45;&gt;Node14 -->
<g id="edge18_Node000007_Node000014" class="edge">
<title>Node7&#45;&gt;Node14</title>
<g id="a_edge18_Node000007_Node000014"><a xlink:title=" ">
<path fill="none" stroke="#63b8ff" d="M1622.27,-140.18C1419.33,-138.78 932.75,-131.65 526.5,-96 511.25,-94.66 494.77,-92.63 479.64,-90.52"/>
<polygon fill="#63b8ff" stroke="#63b8ff" points="1622.28,-143.68 1632.3,-140.25 1622.33,-136.68 1622.28,-143.68"/>
</a>
</g>
</g>
<!-- Node15 -->
<g id="Node000015" class="node">
<title>Node15</title>
<g id="a_Node000015"><a xlink:href="Forces_8h.html" target="_top" xlink:title=" ">
<polygon fill="white" stroke="#666666" points="2524.5,-96 2416.5,-96 2416.5,-66 2524.5,-66 2524.5,-96"/>
<text text-anchor="start" x="2424.5" y="-84" font-family="Helvetica,sans-Serif" font-size="10.00">src/graphics/debug</text>
<text text-anchor="middle" x="2470.5" y="-73" font-family="Helvetica,sans-Serif" font-size="10.00">/Forces.h</text>
</a>
</g>
</g>
<!-- Node7&#45;&gt;Node15 -->
<g id="edge19_Node000007_Node000015" class="edge">
<title>Node7&#45;&gt;Node15</title>
<g id="a_edge19_Node000007_Node000015"><a xlink:title=" ">
<path fill="none" stroke="#63b8ff" d="M1814.87,-138.42C1947.67,-134.6 2194.17,-124.09 2402.5,-96 2407.04,-95.39 2411.73,-94.65 2416.42,-93.83"/>
<polygon fill="#63b8ff" stroke="#63b8ff" points="1814.62,-134.92 1804.72,-138.7 1814.82,-141.92 1814.62,-134.92"/>
</a>
</g>
</g>
<!-- Node7&#45;&gt;Node17 -->
<g id="edge22_Node000007_Node000017" class="edge">
<title>Node7&#45;&gt;Node17</title>
<g id="a_edge22_Node000007_Node000017"><a xlink:title=" ">
<path fill="none" stroke="#63b8ff" d="M1717.87,-121.41C1718.42,-104.32 1722.14,-79.9 1737.5,-66 1777.2,-30.08 1931.21,-19.96 2014.43,-17.12"/>
<polygon fill="#63b8ff" stroke="#63b8ff" points="1714.37,-121.85 1717.9,-131.84 1721.37,-121.83 1714.37,-121.85"/>
</a>
</g>
</g>
<!-- Node18 -->
<g id="Node000018" class="node">
<title>Node18</title>
<g id="a_Node000018"><a xlink:href="PathTraces_8h.html" target="_top" xlink:title=" ">
<polygon fill="white" stroke="#666666" points="2204.5,-96 2096.5,-96 2096.5,-66 2204.5,-66 2204.5,-96"/>
<text text-anchor="start" x="2104.5" y="-84" font-family="Helvetica,sans-Serif" font-size="10.00">src/graphics/debug</text>
<text text-anchor="middle" x="2150.5" y="-73" font-family="Helvetica,sans-Serif" font-size="10.00">/PathTraces.h</text>
</a>
</g>
</g>
<!-- Node7&#45;&gt;Node18 -->
<g id="edge23_Node000007_Node000018" class="edge">
<title>Node7&#45;&gt;Node18</title>
<g id="a_edge23_Node000007_Node000018"><a xlink:title=" ">
<path fill="none" stroke="#63b8ff" d="M1792.64,-130.62C1859.73,-121.66 1961.25,-108.05 2049.5,-96 2064.67,-93.93 2081.12,-91.66 2096.25,-89.56"/>
<polygon fill="#63b8ff" stroke="#63b8ff" points="1792.03,-127.17 1782.58,-131.96 1792.96,-134.11 1792.03,-127.17"/>
</a>
</g>
</g>
<!-- Node7&#45;&gt;Node19 -->
<g id="edge26_Node000007_Node000019" class="edge">
<title>Node7&#45;&gt;Node19</title>
<g id="a_edge26_Node000007_Node000019"><a xlink:title=" ">
<path fill="none" stroke="#63b8ff" d="M1622.26,-141.11C1437.62,-141.25 1021.12,-136.51 673.5,-96 670.81,-95.69 668.07,-95.33 665.3,-94.94"/>
<polygon fill="#63b8ff" stroke="#63b8ff" points="1622.49,-144.61 1632.48,-141.1 1622.48,-137.61 1622.49,-144.61"/>
</a>
</g>
</g>
<!-- Node20 -->
<g id="Node000020" class="node">
<title>Node20</title>
<g id="a_Node000020"><a xlink:href="HierarchyWidget_8h.html" target="_top" xlink:title=" ">
<polygon fill="white" stroke="#666666" points="2360,-90.5 2223,-90.5 2223,-71.5 2360,-71.5 2360,-90.5"/>
<text text-anchor="middle" x="2291.5" y="-78.5" font-family="Helvetica,sans-Serif" font-size="10.00">src/ui/HierarchyWidget.h</text>
</a>
</g>
</g>
<!-- Node7&#45;&gt;Node20 -->
<g id="edge27_Node000007_Node000020" class="edge">
<title>Node7&#45;&gt;Node20</title>
<g id="a_edge27_Node000007_Node000020"><a xlink:title=" ">
<path fill="none" stroke="#63b8ff" d="M1814.68,-134.37C1914.63,-127.41 2075.43,-114.56 2213.5,-96 2224.68,-94.5 2236.7,-92.52 2247.88,-90.53"/>
<polygon fill="#63b8ff" stroke="#63b8ff" points="1814.34,-130.88 1804.6,-135.07 1814.82,-137.87 1814.34,-130.88"/>
</a>
</g>
</g>
<!-- Node7&#45;&gt;Node23 -->
<g id="edge30_Node000007_Node000023" class="edge">
<title>Node7&#45;&gt;Node23</title>
<g id="a_edge30_Node000007_Node000023"><a xlink:title=" ">
<path fill="none" stroke="#63b8ff" d="M1814.83,-139.15C2034.85,-135.66 2591.14,-124.54 3055.5,-96 3083.18,-94.3 3113.57,-91.73 3140.12,-89.26"/>
<polygon fill="#63b8ff" stroke="#63b8ff" points="1814.55,-135.65 1804.61,-139.31 1814.66,-142.65 1814.55,-135.65"/>
</a>
</g>
</g>
<!-- Node24 -->
<g id="Node000024" class="node">
<title>Node24</title>
<g id="a_Node000024"><a xlink:href="ForcesInspectorWidget_8cpp.html" target="_top" xlink:title=" ">
<polygon fill="white" stroke="#666666" points="1032.5,-96 862.5,-96 862.5,-66 1032.5,-66 1032.5,-96"/>
<text text-anchor="start" x="870.5" y="-84" font-family="Helvetica,sans-Serif" font-size="10.00">src/ui/inspector/ForcesInspector</text>
<text text-anchor="middle" x="947.5" y="-73" font-family="Helvetica,sans-Serif" font-size="10.00">Widget.cpp</text>
</a>
</g>
</g>
<!-- Node7&#45;&gt;Node24 -->
<g id="edge31_Node000007_Node000024" class="edge">
<title>Node7&#45;&gt;Node24</title>
<g id="a_edge31_Node000007_Node000024"><a xlink:title=" ">
<path fill="none" stroke="#63b8ff" d="M1622.03,-136.37C1491.34,-130.26 1250.88,-117.19 1046.5,-96 1041.92,-95.53 1037.24,-95 1032.51,-94.44"/>
<polygon fill="#63b8ff" stroke="#63b8ff" points="1622.25,-139.88 1632.4,-136.85 1622.58,-132.89 1622.25,-139.88"/>
</a>
</g>
</g>
<!-- Node7&#45;&gt;Node25 -->
<g id="edge32_Node000007_Node000025" class="edge">
<title>Node7&#45;&gt;Node25</title>
<g id="a_edge32_Node000007_Node000025"><a xlink:title=" ">
<path fill="none" stroke="#63b8ff" d="M1815.07,-139.28C1968.01,-136.44 2275.11,-127.04 2533.5,-96 2536.52,-95.64 2539.61,-95.23 2542.72,-94.78"/>
<polygon fill="#63b8ff" stroke="#63b8ff" points="1814.71,-135.79 1804.77,-139.47 1814.83,-142.79 1814.71,-135.79"/>
</a>
</g>
</g>
<!-- Node7&#45;&gt;Node26 -->
<g id="edge33_Node000007_Node000026" class="edge">
<title>Node7&#45;&gt;Node26</title>
<g id="a_edge33_Node000007_Node000026"><a xlink:title=" ">
<path fill="none" stroke="#63b8ff" d="M1814.8,-140.24C1988.79,-138.85 2366.89,-131.56 2683.5,-96 2686.23,-95.69 2689.02,-95.35 2691.83,-94.97"/>
<polygon fill="#63b8ff" stroke="#63b8ff" points="1814.62,-136.74 1804.65,-140.32 1814.67,-143.74 1814.62,-136.74"/>
</a>
</g>
</g>
<!-- Node27 -->
<g id="Node000027" class="node">
<title>Node27</title>
<g id="a_Node000027"><a xlink:href="PhysicsInspectorWidget_8cpp.html" target="_top" xlink:title=" ">
<polygon fill="white" stroke="#666666" points="1376,-96 1245,-96 1245,-66 1376,-66 1376,-96"/>
<text text-anchor="start" x="1253" y="-84" font-family="Helvetica,sans-Serif" font-size="10.00">src/ui/inspector/Physics</text>
<text text-anchor="middle" x="1310.5" y="-73" font-family="Helvetica,sans-Serif" font-size="10.00">InspectorWidget.cpp</text>
</a>
</g>
</g>
<!-- Node7&#45;&gt;Node27 -->
<g id="edge34_Node000007_Node000027" class="edge">
<title>Node7&#45;&gt;Node27</title>
<g id="a_edge34_Node000007_Node000027"><a xlink:title=" ">
<path fill="none" stroke="#63b8ff" d="M1636.42,-130.73C1568.91,-122.41 1470.82,-109.65 1385.5,-96 1382.49,-95.52 1379.42,-95.01 1376.32,-94.48"/>
<polygon fill="#63b8ff" stroke="#63b8ff" points="1636.21,-134.23 1646.56,-131.98 1637.07,-127.28 1636.21,-134.23"/>
</a>
</g>
</g>
<!-- Node28 -->
<g id="Node000028" class="node">
<title>Node28</title>
<g id="a_Node000028"><a xlink:href="ThermalInspectorWidget_8cpp.html" target="_top" xlink:title=" ">
<polygon fill="white" stroke="#666666" points="1528.5,-96 1394.5,-96 1394.5,-66 1528.5,-66 1528.5,-96"/>
<text text-anchor="start" x="1402.5" y="-84" font-family="Helvetica,sans-Serif" font-size="10.00">src/ui/inspector/Thermal</text>
<text text-anchor="middle" x="1461.5" y="-73" font-family="Helvetica,sans-Serif" font-size="10.00">InspectorWidget.cpp</text>
</a>
</g>
</g>
<!-- Node7&#45;&gt;Node28 -->
<g id="edge35_Node000007_Node000028" class="edge">
<title>Node7&#45;&gt;Node28</title>
<g id="a_edge35_Node000007_Node000028"><a xlink:title=" ">
<path fill="none" stroke="#63b8ff" d="M1671.25,-129.74C1629.64,-120.27 1568.75,-106.41 1523.29,-96.06"/>
<polygon fill="#63b8ff" stroke="#63b8ff" points="1670.6,-133.19 1681.13,-131.99 1672.16,-126.36 1670.6,-133.19"/>
</a>
</g>
</g>
<!-- Node29 -->
<g id="Node000029" class="node">
<title>Node29</title>
<g id="a_Node000029"><a xlink:href="TransformInspectorWidget_8cpp.html" target="_top" xlink:title=" ">
<polygon fill="white" stroke="#666666" points="1690,-96 1547,-96 1547,-66 1690,-66 1690,-96"/>
<text text-anchor="start" x="1555" y="-84" font-family="Helvetica,sans-Serif" font-size="10.00">src/ui/inspector/Transform</text>
<text text-anchor="middle" x="1618.5" y="-73" font-family="Helvetica,sans-Serif" font-size="10.00">InspectorWidget.cpp</text>
</a>
</g>
</g>
<!-- Node7&#45;&gt;Node29 -->
<g id="edge36_Node000007_Node000029" class="edge">
<title>Node7&#45;&gt;Node29</title>
<g id="a_edge36_Node000007_Node000029"><a xlink:title=" ">
<path fill="none" stroke="#63b8ff" d="M1695.1,-126.81C1679.33,-117.58 1658.56,-105.43 1642.63,-96.11"/>
<polygon fill="#63b8ff" stroke="#63b8ff" points="1693.35,-129.84 1703.74,-131.87 1696.88,-123.8 1693.35,-129.84"/>
</a>
</g>
</g>
<!-- Node9&#45;&gt;Node4 -->
<g id="edge10_Node000009_Node000004" class="edge">
<title>Node9&#45;&gt;Node4</title>
<g id="a_edge10_Node000009_Node000004"><a xlink:title=" ">
<path fill="none" stroke="#63b8ff" d="M1120.55,-61.38C1100.67,-51.36 1076.57,-39.22 1058.31,-30.01"/>
<polygon fill="#63b8ff" stroke="#63b8ff" points="1119.12,-64.58 1129.63,-65.95 1122.27,-58.33 1119.12,-64.58"/>
</a>
</g>
</g>
<!-- Node10 -->
<g id="Node000010" class="node">
<title>Node10</title>
<g id="a_Node000010"><a xlink:href="ScaleHandle_8cpp.html" target="_top" xlink:title=" ">
<polygon fill="white" stroke="#666666" points="1255.5,-30 1117.5,-30 1117.5,0 1255.5,0 1255.5,-30"/>
<text text-anchor="start" x="1125.5" y="-18" font-family="Helvetica,sans-Serif" font-size="10.00">src/graphics/components</text>
<text text-anchor="middle" x="1186.5" y="-7" font-family="Helvetica,sans-Serif" font-size="10.00">/ScaleHandle.cpp</text>
</a>
</g>
</g>
<!-- Node9&#45;&gt;Node10 -->
<g id="edge11_Node000009_Node000010" class="edge">
<title>Node9&#45;&gt;Node10</title>
<g id="a_edge11_Node000009_Node000010"><a xlink:title=" ">
<path fill="none" stroke="#63b8ff" d="M1168.07,-56.68C1172.09,-47.79 1176.56,-37.95 1180.08,-30.16"/>
<polygon fill="#63b8ff" stroke="#63b8ff" points="1164.88,-55.24 1163.94,-65.8 1171.25,-58.13 1164.88,-55.24"/>
</a>
</g>
</g>
<!-- Node15&#45;&gt;Node5 -->
<g id="edge20_Node000015_Node000005" class="edge">
<title>Node15&#45;&gt;Node5</title>
<g id="a_edge20_Node000015_Node000005"><a xlink:title=" ">
<path fill="none" stroke="#63b8ff" d="M2472.41,-55.6C2473.25,-44.8 2474.19,-32.78 2474.81,-24.84"/>
<polygon fill="#63b8ff" stroke="#63b8ff" points="2468.9,-55.55 2471.61,-65.8 2475.88,-56.1 2468.9,-55.55"/>
</a>
</g>
</g>
<!-- Node15&#45;&gt;Node16 -->
<g id="edge21_Node000015_Node000016" class="edge">
<title>Node15&#45;&gt;Node16</title>
<g id="a_edge21_Node000015_Node000016"><a xlink:title=" ">
<path fill="none" stroke="#63b8ff" d="M2534.19,-66.04C2534.3,-66.03 2534.4,-66.01 2534.5,-66 2568.91,-61.12 3064.8,-29.82 3231.38,-19.38"/>
<polygon fill="#63b8ff" stroke="#63b8ff" points="2533.84,-62.56 2524.52,-67.59 2534.95,-69.47 2533.84,-62.56"/>
</a>
</g>
</g>
<!-- Node18&#45;&gt;Node5 -->
<g id="edge24_Node000018_Node000005" class="edge">
<title>Node18&#45;&gt;Node5</title>
<g id="a_edge24_Node000018_Node000005"><a xlink:title=" ">
<path fill="none" stroke="#63b8ff" d="M2214.2,-66.06C2214.3,-66.04 2214.4,-66.02 2214.5,-66 2289.3,-50.66 2376.47,-34.25 2428.75,-24.58"/>
<polygon fill="#63b8ff" stroke="#63b8ff" points="2213.68,-62.6 2204.6,-68.06 2215.1,-69.45 2213.68,-62.6"/>
</a>
</g>
</g>
<!-- Node18&#45;&gt;Node17 -->
<g id="edge25_Node000018_Node000017" class="edge">
<title>Node18&#45;&gt;Node17</title>
<g id="a_edge25_Node000018_Node000017"><a xlink:title=" ">
<path fill="none" stroke="#63b8ff" d="M2124.21,-59.48C2111.95,-49.91 2097.68,-38.77 2086.65,-30.16"/>
<polygon fill="#63b8ff" stroke="#63b8ff" points="2122.26,-62.4 2132.3,-65.8 2126.57,-56.88 2122.26,-62.4"/>
</a>
</g>
</g>
<!-- Node21 -->
<g id="Node000021" class="node">
<title>Node21</title>
<g id="a_Node000021"><a xlink:href="HierarchyWidget_8cpp.html" target="_top" xlink:title=" ">
<polygon fill="white" stroke="#666666" points="2360.5,-24.5 2212.5,-24.5 2212.5,-5.5 2360.5,-5.5 2360.5,-24.5"/>
<text text-anchor="middle" x="2286.5" y="-12.5" font-family="Helvetica,sans-Serif" font-size="10.00">src/ui/HierarchyWidget.cpp</text>
</a>
</g>
</g>
<!-- Node20&#45;&gt;Node21 -->
<g id="edge28_Node000020_Node000021" class="edge">
<title>Node20&#45;&gt;Node21</title>
<g id="a_edge28_Node000020_Node000021"><a xlink:title=" ">
<path fill="none" stroke="#63b8ff" d="M2290.02,-61.08C2289.09,-49.13 2287.92,-34.22 2287.2,-24.91"/>
<polygon fill="#63b8ff" stroke="#63b8ff" points="2286.56,-61.67 2290.83,-71.37 2293.54,-61.13 2286.56,-61.67"/>
</a>
</g>
</g>
<!-- Node22 -->
<g id="Node000022" class="node">
<title>Node22</title>
<g id="a_Node000022"><a xlink:href="MainWindow_8cpp.html" target="_top" xlink:title=" ">
<polygon fill="white" stroke="#666666" points="3048.5,-24.5 2920.5,-24.5 2920.5,-5.5 3048.5,-5.5 3048.5,-24.5"/>
<text text-anchor="middle" x="2984.5" y="-12.5" font-family="Helvetica,sans-Serif" font-size="10.00">src/ui/MainWindow.cpp</text>
</a>
</g>
</g>
<!-- Node20&#45;&gt;Node22 -->
<g id="edge29_Node000020_Node000022" class="edge">
<title>Node20&#45;&gt;Node22</title>
<g id="a_edge29_Node000020_Node000022"><a xlink:title=" ">
<path fill="none" stroke="#63b8ff" d="M2369.11,-70.27C2381.93,-68.76 2395.08,-67.29 2407.5,-66 2593.52,-46.72 2813.83,-29.06 2920.4,-20.85"/>
<polygon fill="#63b8ff" stroke="#63b8ff" points="2368.45,-66.82 2358.93,-71.47 2369.27,-73.77 2368.45,-66.82"/>
</a>
</g>
</g>
<!-- Node30&#45;&gt;Node5 -->
<g id="edge38_Node000030_Node000005" class="edge">
<title>Node30&#45;&gt;Node5</title>
<g id="a_edge38_Node000030_Node000005"><a xlink:title=" ">
<path fill="none" stroke="#63b8ff" d="M3009.72,-128.64C3027.49,-122.06 3044.89,-111.85 3055.5,-96 3062.92,-84.92 3064.51,-75.82 3055.5,-66 3023.58,-31.21 2729.2,-20.57 2572.54,-17.36"/>
<polygon fill="#63b8ff" stroke="#63b8ff" points="3008.24,-125.45 2999.86,-131.93 3010.45,-132.09 3008.24,-125.45"/>
</a>
</g>
</g>
<!-- Node30&#45;&gt;Node13 -->
<g id="edge39_Node000030_Node000013" class="edge">
<title>Node30&#45;&gt;Node13</title>
<g id="a_edge39_Node000030_Node000013"><a xlink:title=" ">
<path fill="none" stroke="#63b8ff" d="M2947.5,-121.66C2947.5,-111.24 2947.5,-98.8 2947.5,-90.67"/>
<polygon fill="#63b8ff" stroke="#63b8ff" points="2944,-121.87 2947.5,-131.87 2951,-121.87 2944,-121.87"/>
</a>
</g>
</g>
<!-- Node31&#45;&gt;Node22 -->
<g id="edge46_Node000031_Node000022" class="edge">
<title>Node31&#45;&gt;Node22</title>
<g id="a_edge46_Node000031_Node000022"><a xlink:title=" ">
<path fill="none" stroke="#63b8ff" d="M3361.59,-125.81C3381.59,-110.13 3406.28,-84.98 3389.5,-66 3367.33,-40.92 3157.14,-25.62 3048.65,-19.33"/>
<polygon fill="#63b8ff" stroke="#63b8ff" points="3359.35,-123.12 3353.44,-131.91 3363.54,-128.72 3359.35,-123.12"/>
</a>
</g>
</g>
<!-- Node32 -->
<g id="Node000032" class="node">
<title>Node32</title>
<g id="a_Node000032"><a xlink:href="main_8cpp.html" target="_top" xlink:title=" ">
<polygon fill="white" stroke="#666666" points="3380,-90.5 3301,-90.5 3301,-71.5 3380,-71.5 3380,-90.5"/>
<text text-anchor="middle" x="3340.5" y="-78.5" font-family="Helvetica,sans-Serif" font-size="10.00">src/main.cpp</text>
</a>
</g>
</g>
<!-- Node31&#45;&gt;Node32 -->
<g id="edge45_Node000031_Node000032" class="edge">
<title>Node31&#45;&gt;Node32</title>
<g id="a_edge45_Node000031_Node000032"><a xlink:title=" ">
<path fill="none" stroke="#63b8ff" d="M3340.5,-121.66C3340.5,-111.24 3340.5,-98.8 3340.5,-90.67"/>
<polygon fill="#63b8ff" stroke="#63b8ff" points="3337,-121.87 3340.5,-131.87 3344,-121.87 3337,-121.87"/>
</a>
</g>
</g>
</g>
</svg>

<g id="navigator" transform="translate(0 0)" fill="#404254">
  <rect fill="#f2f5e9" fill-opacity="0.5" stroke="#606060" stroke-width=".5" x="0" y="0" width="60" height="60"/>
  <use id="zoomplus" xlink:href="#zoomPlus" x="17" y="9" onmousedown="handleZoom(evt,'in')"/>
  <use id="zoomminus" xlink:href="#zoomMin" x="42" y="9" onmousedown="handleZoom(evt,'out')"/>
  <use id="reset" xlink:href="#resetDef" x="30" y="36" onmousedown="handleReset()"/>
   <use id="arrowup" xlink:href="#arrowUp" x="0" y="0" onmousedown="handlePan(0,-1)"/>
  <use id="arrowright" xlink:href="#arrowRight" x="0" y="0" onmousedown="handlePan(1,0)"/>
  <use id="arrowdown" xlink:href="#arrowDown" x="0" y="0" onmousedown="handlePan(0,1)"/>
  <use id="arrowleft" xlink:href="#arrowLeft" x="0" y="0" onmousedown="handlePan(-1,0)"/>
</g>
<svg viewBox="0 0 15 15" width="100%" height="30px" preserveAspectRatio="xMaxYMin meet">
 <g id="arrow_out" transform="scale(0.3 0.3)">
  <a xlink:href="Scene_8h__dep__incl_org.svg" target="_base">
   <rect id="button" ry="5" rx="5" y="6" x="6" height="38" width="38"
        fill="#f2f5e9" fill-opacity="0.5" stroke="#606060" stroke-width="1.0"/>
   <path id="arrow"
     d="M 11.500037,31.436501 C 11.940474,20.09759 22.043105,11.32322 32.158766,21.979434 L 37.068811,17.246167 C 37.068811,17.246167 37.088388,32 37.088388,32 L 22.160133,31.978069 C 22.160133,31.978069 26.997745,27.140456 26.997745,27.140456 C 18.528582,18.264221 13.291696,25.230495 11.500037,31.436501 z"
     style="fill:#404040;"/>
  </a>
 </g>
</svg>

<style type='text/css'>
<![CDATA[
[data-mouse-over-selected='false'] { opacity: 0.7; }
[data-mouse-over-selected='true']  { opacity: 1.0; }
]]>
</style>
<script type="application/ecmascript"><![CDATA[
document.addEventListener('DOMContentLoaded', (event) => {
  highlightEdges();
  highlightAdjacentNodes();
});
]]></script>
</svg>
