<?xml version="1.0" encoding="UTF-8" standalone="no"?>
<!DOCTYPE svg PUBLIC "-//W3C//DTD SVG 1.1//EN"
 "http://www.w3.org/Graphics/SVG/1.1/DTD/svg11.dtd">
<!-- Generated by graphviz version 2.43.0 (0)
 -->
<!-- Title: src/graphics/core/Scene.h Pages: 1 -->
<!--zoomable 269 -->

<svg id="main" version="1.1" xmlns="http://www.w3.org/2000/svg" xmlns:xlink="http://www.w3.org/1999/xlink" xml:space="preserve" onload="init(evt)">
<style type="text/css"><![CDATA[
.node, .edge {opacity: 0.7;}
.node.selected, .edge.selected {opacity: 1;}
.edge:hover path { stroke: red; }
.edge:hover polygon { stroke: red; fill: red; }
]]></style>

<defs>
  <circle id="rim" cx="0" cy="0" r="7"/>
  <circle id="rim2" cx="0" cy="0" r="3.5"/>
  <g id="zoomPlus">
    <use xlink:href="#rim" fill="#404040"><set attributeName="fill" to="#808080" begin="zoomplus.mouseover" end="zoomplus.mouseout"/></use>
    <path d="M-4,0h8M0,-4v8" fill="none" stroke="white" stroke-width="1.5" pointer-events="none"/>
  </g>
  <g id="zoomMin">
    <use xlink:href="#rim" fill="#404040"><set attributeName="fill" to="#808080" begin="zoomminus.mouseover" end="zoomminus.mouseout"/></use>
    <path d="M-4,0h8" fill="none" stroke="white" stroke-width="1.5" pointer-events="none"/>
  </g>
  <g id="arrowUp" transform="translate(30 24)">
    <use xlink:href="#rim"/>
    <path pointer-events="none" fill="none" stroke="white" stroke-width="1.5" d="M0,-3.0v7 M-2.5,-0.5L0,-3.0L2.5,-0.5"/>
  </g>
  <g id="arrowRight" transform="rotate(90) translate(36 -43)">
    <use xlink:href="#rim"/>
    <path pointer-events="none" fill="none" stroke="white" stroke-width="1.5" d="M0,-3.0v7 M-2.5,-0.5L0,-3.0L2.5,-0.5"/>
  </g>
  <g id="arrowDown" transform="rotate(180) translate(-30 -48)">
    <use xlink:href="#rim"/>
    <path pointer-events="none" fill="none" stroke="white" stroke-width="1.5" d="M0,-3.0v7 M-2.5,-0.5L0,-3.0L2.5,-0.5"/>
  </g>
  <g id="arrowLeft" transform="rotate(270) translate(-36 17)">
    <use xlink:href="#rim"/>
    <path pointer-events="none" fill="none" stroke="white" stroke-width="1.5" d="M0,-3.0v7 M-2.5,-0.5L0,-3.0L2.5,-0.5"/>
  </g>
  <g id="resetDef">
    <use xlink:href="#rim2" fill="#404040"><set attributeName="fill" to="#808080" begin="reset.mouseover" end="reset.mouseout"/></use>
  </g>
</defs>
<script type="application/ecmascript">
var viewWidth = 3003;
var viewHeight = 269;
var sectionId = 'dynsection-1';
</script>
<script type="application/ecmascript" xlink:href="svg.min.js"/>
<svg id="graph" class="graph">
<g id="viewport">
<title>src/graphics/core/Scene.h</title>
<!-- Node1 -->
<g id="Node000001" class="node">
<title>Node1</title>
<g id="a_Node000001"><a xlink:title=" ">
<polygon fill="#999999" stroke="#666666" points="1227.5,-261 1087.5,-261 1087.5,-242 1227.5,-242 1227.5,-261"/>
<text text-anchor="middle" x="1157.5" y="-249" font-family="Helvetica,sans-Serif" font-size="10.00">src/graphics/core/Scene.h</text>
</a>
</g>
</g>
<!-- Node2 -->
<g id="Node000002" class="node">
<title>Node2</title>
<g id="a_Node000002"><a xlink:href="Scene_8cpp.html" target="_top" xlink:title=" ">
<polygon fill="white" stroke="#666666" points="391.5,-90.5 239.5,-90.5 239.5,-71.5 391.5,-71.5 391.5,-90.5"/>
<text text-anchor="middle" x="315.5" y="-78.5" font-family="Helvetica,sans-Serif" font-size="10.00">src/graphics/core/Scene.cpp</text>
</a>
</g>
</g>
<!-- Node1&#45;&gt;Node2 -->
<g id="edge1_Node000001_Node000002" class="edge">
<title>Node1&#45;&gt;Node2</title>
<g id="a_edge1_Node000001_Node000002"><a xlink:title=" ">
<path fill="none" stroke="#63b8ff" d="M1093.39,-240.39C989.36,-223.7 777.49,-188.45 599.5,-151 507.64,-131.67 400.23,-104.24 347.72,-90.52"/>
<polygon fill="#63b8ff" stroke="#63b8ff" points="1092.99,-243.87 1103.42,-242 1094.1,-236.96 1092.99,-243.87"/>
</a>
</g>
</g>
<!-- Node3 -->
<g id="Node000003" class="node">
<title>Node3</title>
<g id="a_Node000003"><a xlink:href="SceneManager_8h.html" target="_top" xlink:title=" ">
<polygon fill="white" stroke="#666666" points="2233.5,-206 2051.5,-206 2051.5,-187 2233.5,-187 2233.5,-206"/>
<text text-anchor="middle" x="2142.5" y="-194" font-family="Helvetica,sans-Serif" font-size="10.00">src/graphics/core/SceneManager.h</text>
</a>
</g>
</g>
<!-- Node1&#45;&gt;Node3 -->
<g id="edge2_Node000001_Node000003" class="edge">
<title>Node1&#45;&gt;Node3</title>
<g id="a_edge2_Node000001_Node000003"><a xlink:title=" ">
<path fill="none" stroke="#63b8ff" d="M1237.55,-246.19C1418.8,-236.44 1859.65,-212.72 2051.17,-202.41"/>
<polygon fill="#63b8ff" stroke="#63b8ff" points="1237.35,-242.7 1227.55,-246.73 1237.72,-249.69 1237.35,-242.7"/>
</a>
</g>
</g>
<!-- Node6 -->
<g id="Node000006" class="node">
<title>Node6</title>
<g id="a_Node000006"><a xlink:href="SceneObject_8cpp.html" target="_top" xlink:title=" ">
<polygon fill="white" stroke="#666666" points="183,-90.5 0,-90.5 0,-71.5 183,-71.5 183,-90.5"/>
<text text-anchor="middle" x="91.5" y="-78.5" font-family="Helvetica,sans-Serif" font-size="10.00">src/graphics/core/SceneObject.cpp</text>
</a>
</g>
</g>
<!-- Node1&#45;&gt;Node6 -->
<g id="edge45_Node000001_Node000006" class="edge">
<title>Node1&#45;&gt;Node6</title>
<g id="a_edge45_Node000001_Node000006"><a xlink:title=" ">
<path fill="none" stroke="#63b8ff" d="M1077.17,-249.94C868.58,-247.32 314.76,-232.67 153.5,-151 126.2,-137.18 105.27,-105.86 96.29,-90.64"/>
<polygon fill="#63b8ff" stroke="#63b8ff" points="1077.39,-253.44 1087.44,-250.06 1077.48,-246.44 1077.39,-253.44"/>
</a>
</g>
</g>
<!-- Node30 -->
<g id="Node000030" class="node">
<title>Node30</title>
<g id="a_Node000030"><a xlink:href="OpenGLWindow_8cpp.html" target="_top" xlink:title=" ">
<polygon fill="white" stroke="#666666" points="2964.5,-151 2822.5,-151 2822.5,-132 2964.5,-132 2964.5,-151"/>
<text text-anchor="middle" x="2893.5" y="-139" font-family="Helvetica,sans-Serif" font-size="10.00">src/ui/OpenGLWindow.cpp</text>
</a>
</g>
</g>
<!-- Node1&#45;&gt;Node30 -->
<g id="edge46_Node000001_Node000030" class="edge">
<title>Node1&#45;&gt;Node30</title>
<g id="a_edge46_Node000001_Node000030"><a xlink:title=" ">
<path fill="none" stroke="#63b8ff" d="M1237.88,-248.72C1417.94,-244.39 1867.27,-231.75 2242.5,-206 2453.79,-191.5 2702.73,-164.43 2822.33,-150.79"/>
<polygon fill="#63b8ff" stroke="#63b8ff" points="1237.62,-245.22 1227.71,-248.96 1237.79,-252.22 1237.62,-245.22"/>
</a>
</g>
</g>
<!-- Node4 -->
<g id="Node000004" class="node">
<title>Node4</title>
<g id="a_Node000004"><a xlink:href="Gizmo_8cpp.html" target="_top" xlink:title=" ">
<polygon fill="white" stroke="#666666" points="458.5,-30 320.5,-30 320.5,0 458.5,0 458.5,-30"/>
<text text-anchor="start" x="328.5" y="-18" font-family="Helvetica,sans-Serif" font-size="10.00">src/graphics/components</text>
<text text-anchor="middle" x="389.5" y="-7" font-family="Helvetica,sans-Serif" font-size="10.00">/Gizmo.cpp</text>
</a>
</g>
</g>
<!-- Node3&#45;&gt;Node4 -->
<g id="edge3_Node000003_Node000004" class="edge">
<title>Node3&#45;&gt;Node4</title>
<g id="a_edge3_Node000003_Node000004"><a xlink:title=" ">
<path fill="none" stroke="#63b8ff" d="M2041.34,-194.13C1655.11,-188.39 292,-163.41 230.5,-96 198.12,-60.5 263.74,-38.61 320.25,-26.89"/>
<polygon fill="#63b8ff" stroke="#63b8ff" points="2041.33,-197.63 2051.38,-194.27 2041.43,-190.63 2041.33,-197.63"/>
</a>
</g>
</g>
<!-- Node5 -->
<g id="Node000005" class="node">
<title>Node5</title>
<g id="a_Node000005"><a xlink:href="SceneManager_8cpp.html" target="_top" xlink:title=" ">
<polygon fill="white" stroke="#666666" points="1948.5,-24.5 1754.5,-24.5 1754.5,-5.5 1948.5,-5.5 1948.5,-24.5"/>
<text text-anchor="middle" x="1851.5" y="-12.5" font-family="Helvetica,sans-Serif" font-size="10.00">src/graphics/core/SceneManager.cpp</text>
</a>
</g>
</g>
<!-- Node3&#45;&gt;Node5 -->
<g id="edge4_Node000003_Node000005" class="edge">
<title>Node3&#45;&gt;Node5</title>
<g id="a_edge4_Node000003_Node000005"><a xlink:title=" ">
<path fill="none" stroke="#63b8ff" d="M2242.57,-186.03C2363.35,-174.41 2551.21,-155.69 2557.5,-151 2588.87,-127.6 2607.21,-94.6 2580.5,-66 2559.26,-43.25 2142.17,-26 1948.63,-19.18"/>
<polygon fill="#63b8ff" stroke="#63b8ff" points="2242.17,-182.55 2232.55,-186.99 2242.84,-189.52 2242.17,-182.55"/>
</a>
</g>
</g>
<!-- Node3&#45;&gt;Node6 -->
<g id="edge5_Node000003_Node000006" class="edge">
<title>Node3&#45;&gt;Node6</title>
<g id="a_edge5_Node000003_Node000006"><a xlink:title=" ">
<path fill="none" stroke="#63b8ff" d="M2041.17,-194.72C1654.09,-191.54 286.08,-178.4 197.5,-151 157.43,-138.61 118.15,-106.3 100.78,-90.69"/>
<polygon fill="#63b8ff" stroke="#63b8ff" points="2041.2,-198.22 2051.23,-194.8 2041.26,-191.22 2041.2,-198.22"/>
</a>
</g>
</g>
<!-- Node7 -->
<g id="Node000007" class="node">
<title>Node7</title>
<g id="a_Node000007"><a xlink:href="SceneObject_8h.html" target="_top" xlink:title=" ">
<polygon fill="white" stroke="#666666" points="1537.5,-151 1365.5,-151 1365.5,-132 1537.5,-132 1537.5,-151"/>
<text text-anchor="middle" x="1451.5" y="-139" font-family="Helvetica,sans-Serif" font-size="10.00">src/graphics/core/SceneObject.h</text>
</a>
</g>
</g>
<!-- Node3&#45;&gt;Node7 -->
<g id="edge6_Node000003_Node000007" class="edge">
<title>Node3&#45;&gt;Node7</title>
<g id="a_edge6_Node000003_Node000007"><a xlink:title=" ">
<path fill="none" stroke="#63b8ff" d="M2041.43,-187.75C1905.34,-177.31 1665.52,-158.92 1537.58,-149.1"/>
<polygon fill="#63b8ff" stroke="#63b8ff" points="2041.21,-191.24 2051.45,-188.52 2041.75,-184.26 2041.21,-191.24"/>
</a>
</g>
</g>
<!-- Node14 -->
<g id="Node000014" class="node">
<title>Node14</title>
<g id="a_Node000014"><a xlink:href="Colliders_8cpp.html" target="_top" xlink:title=" ">
<polygon fill="white" stroke="#666666" points="2338.5,-96 2230.5,-96 2230.5,-66 2338.5,-66 2338.5,-96"/>
<text text-anchor="start" x="2238.5" y="-84" font-family="Helvetica,sans-Serif" font-size="10.00">src/graphics/debug</text>
<text text-anchor="middle" x="2284.5" y="-73" font-family="Helvetica,sans-Serif" font-size="10.00">/Colliders.cpp</text>
</a>
</g>
</g>
<!-- Node3&#45;&gt;Node14 -->
<g id="edge36_Node000003_Node000014" class="edge">
<title>Node3&#45;&gt;Node14</title>
<g id="a_edge36_Node000003_Node000014"><a xlink:title=" ">
<path fill="none" stroke="#63b8ff" d="M2161.23,-180.53C2188.76,-158.53 2239.8,-117.73 2266.76,-96.18"/>
<polygon fill="#63b8ff" stroke="#63b8ff" points="2158.8,-177.99 2153.17,-186.97 2163.17,-183.46 2158.8,-177.99"/>
</a>
</g>
</g>
<!-- Node16 -->
<g id="Node000016" class="node">
<title>Node16</title>
<g id="a_Node000016"><a xlink:href="Forces_8cpp.html" target="_top" xlink:title=" ">
<polygon fill="white" stroke="#666666" points="2369.5,-30 2261.5,-30 2261.5,0 2369.5,0 2369.5,-30"/>
<text text-anchor="start" x="2269.5" y="-18" font-family="Helvetica,sans-Serif" font-size="10.00">src/graphics/debug</text>
<text text-anchor="middle" x="2315.5" y="-7" font-family="Helvetica,sans-Serif" font-size="10.00">/Forces.cpp</text>
</a>
</g>
</g>
<!-- Node3&#45;&gt;Node16 -->
<g id="edge37_Node000003_Node000016" class="edge">
<title>Node3&#45;&gt;Node16</title>
<g id="a_edge37_Node000003_Node000016"><a xlink:title=" ">
<path fill="none" stroke="#63b8ff" d="M2243.68,-186.45C2387.57,-173.57 2634.09,-151.45 2634.5,-151 2659.98,-123.11 2659.06,-94.71 2634.5,-66 2601.07,-26.92 2451.66,-18.17 2369.72,-16.36"/>
<polygon fill="#63b8ff" stroke="#63b8ff" points="2243.15,-182.99 2233.51,-187.36 2243.78,-189.96 2243.15,-182.99"/>
</a>
</g>
</g>
<!-- Node18 -->
<g id="Node000018" class="node">
<title>Node18</title>
<g id="a_Node000018"><a xlink:href="PathTraces_8cpp.html" target="_top" xlink:title=" ">
<polygon fill="white" stroke="#666666" points="1082.5,-30 974.5,-30 974.5,0 1082.5,0 1082.5,-30"/>
<text text-anchor="start" x="982.5" y="-18" font-family="Helvetica,sans-Serif" font-size="10.00">src/graphics/debug</text>
<text text-anchor="middle" x="1028.5" y="-7" font-family="Helvetica,sans-Serif" font-size="10.00">/PathTraces.cpp</text>
</a>
</g>
</g>
<!-- Node3&#45;&gt;Node18 -->
<g id="edge38_Node000003_Node000018" class="edge">
<title>Node3&#45;&gt;Node18</title>
<g id="a_edge38_Node000003_Node000018"><a xlink:title=" ">
<path fill="none" stroke="#63b8ff" d="M2041.37,-192.61C1710.77,-182.69 680.45,-147.73 632.5,-96 623.44,-86.22 623.68,-76 632.5,-66 654.76,-40.76 871.24,-25.03 974.38,-18.92"/>
<polygon fill="#63b8ff" stroke="#63b8ff" points="2041.32,-196.11 2051.42,-192.91 2041.52,-189.12 2041.32,-196.11"/>
</a>
</g>
</g>
<!-- Node23 -->
<g id="Node000023" class="node">
<title>Node23</title>
<g id="a_Node000023"><a xlink:href="GlobalsInspectorWidget_8cpp.html" target="_top" xlink:title=" ">
<polygon fill="white" stroke="#666666" points="2055,-96 1924,-96 1924,-66 2055,-66 2055,-96"/>
<text text-anchor="start" x="1932" y="-84" font-family="Helvetica,sans-Serif" font-size="10.00">src/ui/inspector/Globals</text>
<text text-anchor="middle" x="1989.5" y="-73" font-family="Helvetica,sans-Serif" font-size="10.00">InspectorWidget.cpp</text>
</a>
</g>
</g>
<!-- Node3&#45;&gt;Node23 -->
<g id="edge43_Node000003_Node000023" class="edge">
<title>Node3&#45;&gt;Node23</title>
<g id="a_edge43_Node000003_Node000023"><a xlink:title=" ">
<path fill="none" stroke="#63b8ff" d="M2122.71,-180.82C2093.14,-158.88 2037.79,-117.82 2008.62,-96.18"/>
<polygon fill="#63b8ff" stroke="#63b8ff" points="2120.88,-183.82 2131,-186.97 2125.05,-178.2 2120.88,-183.82"/>
</a>
</g>
</g>
<!-- Node24 -->
<g id="Node000024" class="node">
<title>Node24</title>
<g id="a_Node000024"><a xlink:href="InspectorWidget_8cpp.html" target="_top" xlink:title=" ">
<polygon fill="white" stroke="#666666" points="2212,-96 2073,-96 2073,-66 2212,-66 2212,-96"/>
<text text-anchor="start" x="2081" y="-84" font-family="Helvetica,sans-Serif" font-size="10.00">src/ui/inspector/Inspector</text>
<text text-anchor="middle" x="2142.5" y="-73" font-family="Helvetica,sans-Serif" font-size="10.00">Widget.cpp</text>
</a>
</g>
</g>
<!-- Node3&#45;&gt;Node24 -->
<g id="edge44_Node000003_Node000024" class="edge">
<title>Node3&#45;&gt;Node24</title>
<g id="a_edge44_Node000003_Node000024"><a xlink:title=" ">
<path fill="none" stroke="#63b8ff" d="M2142.5,-176.96C2142.5,-154.34 2142.5,-116.61 2142.5,-96.18"/>
<polygon fill="#63b8ff" stroke="#63b8ff" points="2139,-176.97 2142.5,-186.97 2146,-176.97 2139,-176.97"/>
</a>
</g>
</g>
<!-- Node27 -->
<g id="Node000027" class="node">
<title>Node27</title>
<g id="a_Node000027"><a xlink:href="SceneSerializer_8h.html" target="_top" xlink:title=" ">
<polygon fill="white" stroke="#666666" points="2548,-151 2363,-151 2363,-132 2548,-132 2548,-151"/>
<text text-anchor="middle" x="2455.5" y="-139" font-family="Helvetica,sans-Serif" font-size="10.00">src/graphics/core/SceneSerializer.h</text>
</a>
</g>
</g>
<!-- Node3&#45;&gt;Node27 -->
<g id="edge33_Node000003_Node000027" class="edge">
<title>Node3&#45;&gt;Node27</title>
<g id="a_edge33_Node000003_Node000027"><a xlink:title=" ">
<path fill="none" stroke="#63b8ff" d="M2202.68,-185.31C2261.46,-175.36 2349.89,-160.38 2405.08,-151.04"/>
<polygon fill="#63b8ff" stroke="#63b8ff" points="2202.06,-181.86 2192.79,-186.98 2203.23,-188.77 2202.06,-181.86"/>
</a>
</g>
</g>
<!-- Node28 -->
<g id="Node000028" class="node">
<title>Node28</title>
<g id="a_Node000028"><a xlink:href="MainWindow_8h.html" target="_top" xlink:title=" ">
<polygon fill="white" stroke="#666666" points="2804,-151 2687,-151 2687,-132 2804,-132 2804,-151"/>
<text text-anchor="middle" x="2745.5" y="-139" font-family="Helvetica,sans-Serif" font-size="10.00">src/ui/MainWindow.h</text>
</a>
</g>
</g>
<!-- Node3&#45;&gt;Node28 -->
<g id="edge39_Node000003_Node000028" class="edge">
<title>Node3&#45;&gt;Node28</title>
<g id="a_edge39_Node000003_Node000028"><a xlink:title=" ">
<path fill="none" stroke="#63b8ff" d="M2243.67,-187.98C2350.39,-179.82 2523.41,-165.93 2672.5,-151 2677.2,-150.53 2682.06,-150.02 2686.95,-149.49"/>
<polygon fill="#63b8ff" stroke="#63b8ff" points="2243.26,-184.5 2233.55,-188.75 2243.79,-191.48 2243.26,-184.5"/>
</a>
</g>
</g>
<!-- Node3&#45;&gt;Node30 -->
<g id="edge42_Node000003_Node000030" class="edge">
<title>Node3&#45;&gt;Node30</title>
<g id="a_edge42_Node000003_Node000030"><a xlink:title=" ">
<path fill="none" stroke="#63b8ff" d="M2243.81,-190.03C2375.27,-182.66 2611.71,-168.4 2813.5,-151 2816.42,-150.75 2819.4,-150.48 2822.41,-150.2"/>
<polygon fill="#63b8ff" stroke="#63b8ff" points="2243.54,-186.54 2233.75,-190.6 2243.93,-193.53 2243.54,-186.54"/>
</a>
</g>
</g>
<!-- Node7&#45;&gt;Node2 -->
<g id="edge14_Node000007_Node000002" class="edge">
<title>Node7&#45;&gt;Node2</title>
<g id="a_edge14_Node000007_Node000002"><a xlink:title=" ">
<path fill="none" stroke="#63b8ff" d="M1354.94,-139.99C1170.15,-138.23 753.89,-130.4 405.5,-96 391.97,-94.66 377.37,-92.65 363.95,-90.55"/>
<polygon fill="#63b8ff" stroke="#63b8ff" points="1355.14,-143.5 1365.17,-140.09 1355.2,-136.5 1355.14,-143.5"/>
</a>
</g>
</g>
<!-- Node7&#45;&gt;Node4 -->
<g id="edge7_Node000007_Node000004" class="edge">
<title>Node7&#45;&gt;Node4</title>
<g id="a_edge7_Node000007_Node000004"><a xlink:title=" ">
<path fill="none" stroke="#63b8ff" d="M1354.84,-138.7C1109.19,-133.79 477.54,-119.01 438.5,-96 413.8,-81.45 399.91,-49.09 393.63,-30.29"/>
<polygon fill="#63b8ff" stroke="#63b8ff" points="1355.12,-142.2 1365.18,-138.9 1355.25,-135.21 1355.12,-142.2"/>
</a>
</g>
</g>
<!-- Node7&#45;&gt;Node5 -->
<g id="edge15_Node000007_Node000005" class="edge">
<title>Node7&#45;&gt;Node5</title>
<g id="a_edge15_Node000007_Node000005"><a xlink:title=" ">
<path fill="none" stroke="#63b8ff" d="M1451.09,-121.31C1451.84,-104.17 1455.87,-79.7 1471.5,-66 1512.35,-30.2 1655.63,-19.73 1754.09,-16.84"/>
<polygon fill="#63b8ff" stroke="#63b8ff" points="1447.59,-121.76 1450.99,-131.79 1454.59,-121.82 1447.59,-121.76"/>
</a>
</g>
</g>
<!-- Node7&#45;&gt;Node6 -->
<g id="edge16_Node000007_Node000006" class="edge">
<title>Node7&#45;&gt;Node6</title>
<g id="a_edge16_Node000007_Node000006"><a xlink:title=" ">
<path fill="none" stroke="#63b8ff" d="M1354.96,-139.08C1148.45,-135.58 648.54,-124.64 230.5,-96 209.93,-94.59 187.7,-92.57 167.17,-90.51"/>
<polygon fill="#63b8ff" stroke="#63b8ff" points="1355.11,-142.58 1365.17,-139.25 1355.23,-135.58 1355.11,-142.58"/>
</a>
</g>
</g>
<!-- Node8 -->
<g id="Node000008" class="node">
<title>Node8</title>
<g id="a_Node000008"><a xlink:href="RotateHandle_8cpp.html" target="_top" xlink:title=" ">
<polygon fill="white" stroke="#666666" points="1779.5,-96 1641.5,-96 1641.5,-66 1779.5,-66 1779.5,-96"/>
<text text-anchor="start" x="1649.5" y="-84" font-family="Helvetica,sans-Serif" font-size="10.00">src/graphics/components</text>
<text text-anchor="middle" x="1710.5" y="-73" font-family="Helvetica,sans-Serif" font-size="10.00">/RotateHandle.cpp</text>
</a>
</g>
</g>
<!-- Node7&#45;&gt;Node8 -->
<g id="edge8_Node000007_Node000008" class="edge">
<title>Node7&#45;&gt;Node8</title>
<g id="a_edge8_Node000007_Node000008"><a xlink:title=" ">
<path fill="none" stroke="#63b8ff" d="M1499.14,-129.74C1541.15,-120.25 1602.64,-106.36 1648.48,-96.01"/>
<polygon fill="#63b8ff" stroke="#63b8ff" points="1498.14,-126.38 1489.16,-131.99 1499.69,-133.2 1498.14,-126.38"/>
</a>
</g>
</g>
<!-- Node9 -->
<g id="Node000009" class="node">
<title>Node9</title>
<g id="a_Node000009"><a xlink:href="ScaleHandle_8h.html" target="_top" xlink:title=" ">
<polygon fill="white" stroke="#666666" points="585.5,-96 447.5,-96 447.5,-66 585.5,-66 585.5,-96"/>
<text text-anchor="start" x="455.5" y="-84" font-family="Helvetica,sans-Serif" font-size="10.00">src/graphics/components</text>
<text text-anchor="middle" x="516.5" y="-73" font-family="Helvetica,sans-Serif" font-size="10.00">/ScaleHandle.h</text>
</a>
</g>
</g>
<!-- Node7&#45;&gt;Node9 -->
<g id="edge9_Node000007_Node000009" class="edge">
<title>Node7&#45;&gt;Node9</title>
<g id="a_edge9_Node000007_Node000009"><a xlink:title=" ">
<path fill="none" stroke="#63b8ff" d="M1354.97,-137.31C1201.67,-131.79 893.2,-118.79 632.5,-96 617.34,-94.68 601.11,-92.92 585.74,-91.11"/>
<polygon fill="#63b8ff" stroke="#63b8ff" points="1355.17,-140.82 1365.29,-137.68 1355.42,-133.83 1355.17,-140.82"/>
</a>
</g>
</g>
<!-- Node11 -->
<g id="Node000011" class="node">
<title>Node11</title>
<g id="a_Node000011"><a xlink:href="TranslateHandle_8cpp.html" target="_top" xlink:title=" ">
<polygon fill="white" stroke="#666666" points="779.5,-96 641.5,-96 641.5,-66 779.5,-66 779.5,-96"/>
<text text-anchor="start" x="649.5" y="-84" font-family="Helvetica,sans-Serif" font-size="10.00">src/graphics/components</text>
<text text-anchor="middle" x="710.5" y="-73" font-family="Helvetica,sans-Serif" font-size="10.00">/TranslateHandle.cpp</text>
</a>
</g>
</g>
<!-- Node7&#45;&gt;Node11 -->
<g id="edge12_Node000007_Node000011" class="edge">
<title>Node7&#45;&gt;Node11</title>
<g id="a_edge12_Node000007_Node000011"><a xlink:title=" ">
<path fill="none" stroke="#63b8ff" d="M1355.01,-137.29C1225.84,-132.24 989.75,-120.4 789.5,-96 786.32,-95.61 783.07,-95.18 779.8,-94.72"/>
<polygon fill="#63b8ff" stroke="#63b8ff" points="1355.14,-140.8 1365.26,-137.68 1355.4,-133.8 1355.14,-140.8"/>
</a>
</g>
</g>
<!-- Node12 -->
<g id="Node000012" class="node">
<title>Node12</title>
<g id="a_Node000012"><a xlink:href="Camera_8cpp.html" target="_top" xlink:title=" ">
<polygon fill="white" stroke="#666666" points="959,-90.5 798,-90.5 798,-71.5 959,-71.5 959,-90.5"/>
<text text-anchor="middle" x="878.5" y="-78.5" font-family="Helvetica,sans-Serif" font-size="10.00">src/graphics/core/Camera.cpp</text>
</a>
</g>
</g>
<!-- Node7&#45;&gt;Node12 -->
<g id="edge13_Node000007_Node000012" class="edge">
<title>Node7&#45;&gt;Node12</title>
<g id="a_edge13_Node000007_Node000012"><a xlink:title=" ">
<path fill="none" stroke="#63b8ff" d="M1355.24,-133.41C1257.62,-125.8 1102.29,-112.55 968.5,-96 955.95,-94.45 942.45,-92.5 929.82,-90.55"/>
<polygon fill="#63b8ff" stroke="#63b8ff" points="1355.15,-136.91 1365.39,-134.2 1355.69,-129.94 1355.15,-136.91"/>
</a>
</g>
</g>
<!-- Node13 -->
<g id="Node000013" class="node">
<title>Node13</title>
<g id="a_Node000013"><a xlink:href="SceneSerializer_8cpp.html" target="_top" xlink:title=" ">
<polygon fill="white" stroke="#666666" points="2554,-90.5 2357,-90.5 2357,-71.5 2554,-71.5 2554,-90.5"/>
<text text-anchor="middle" x="2455.5" y="-78.5" font-family="Helvetica,sans-Serif" font-size="10.00">src/graphics/core/SceneSerializer.cpp</text>
</a>
</g>
</g>
<!-- Node7&#45;&gt;Node13 -->
<g id="edge17_Node000007_Node000013" class="edge">
<title>Node7&#45;&gt;Node13</title>
<g id="a_edge17_Node000007_Node000013"><a xlink:title=" ">
<path fill="none" stroke="#63b8ff" d="M1547.6,-138.23C1711.82,-133.78 2056.9,-122.01 2347.5,-96 2363.41,-94.58 2380.59,-92.57 2396.46,-90.51"/>
<polygon fill="#63b8ff" stroke="#63b8ff" points="1547.43,-134.73 1537.53,-138.5 1547.62,-141.73 1547.43,-134.73"/>
</a>
</g>
</g>
<!-- Node7&#45;&gt;Node14 -->
<g id="edge18_Node000007_Node000014" class="edge">
<title>Node7&#45;&gt;Node14</title>
<g id="a_edge18_Node000007_Node000014"><a xlink:title=" ">
<path fill="none" stroke="#63b8ff" d="M1547.97,-139.89C1694.29,-137.86 1980.76,-129.48 2221.5,-96 2224.39,-95.6 2227.33,-95.13 2230.3,-94.62"/>
<polygon fill="#63b8ff" stroke="#63b8ff" points="1547.64,-136.4 1537.69,-140.03 1547.73,-143.4 1547.64,-136.4"/>
</a>
</g>
</g>
<!-- Node15 -->
<g id="Node000015" class="node">
<title>Node15</title>
<g id="a_Node000015"><a xlink:href="Forces_8h.html" target="_top" xlink:title=" ">
<polygon fill="white" stroke="#666666" points="1905.5,-96 1797.5,-96 1797.5,-66 1905.5,-66 1905.5,-96"/>
<text text-anchor="start" x="1805.5" y="-84" font-family="Helvetica,sans-Serif" font-size="10.00">src/graphics/debug</text>
<text text-anchor="middle" x="1851.5" y="-73" font-family="Helvetica,sans-Serif" font-size="10.00">/Forces.h</text>
</a>
</g>
</g>
<!-- Node7&#45;&gt;Node15 -->
<g id="edge19_Node000007_Node000015" class="edge">
<title>Node7&#45;&gt;Node15</title>
<g id="a_edge19_Node000007_Node000015"><a xlink:title=" ">
<path fill="none" stroke="#63b8ff" d="M1541.39,-130.79C1609.46,-122.92 1705.17,-110.73 1788.5,-96 1791.37,-95.49 1794.3,-94.94 1797.26,-94.37"/>
<polygon fill="#63b8ff" stroke="#63b8ff" points="1540.66,-127.35 1531.13,-131.97 1541.46,-134.31 1540.66,-127.35"/>
</a>
</g>
</g>
<!-- Node17 -->
<g id="Node000017" class="node">
<title>Node17</title>
<g id="a_Node000017"><a xlink:href="PathTraces_8h.html" target="_top" xlink:title=" ">
<polygon fill="white" stroke="#666666" points="1423.5,-96 1315.5,-96 1315.5,-66 1423.5,-66 1423.5,-96"/>
<text text-anchor="start" x="1323.5" y="-84" font-family="Helvetica,sans-Serif" font-size="10.00">src/graphics/debug</text>
<text text-anchor="middle" x="1369.5" y="-73" font-family="Helvetica,sans-Serif" font-size="10.00">/PathTraces.h</text>
</a>
</g>
</g>
<!-- Node7&#45;&gt;Node17 -->
<g id="edge22_Node000007_Node000017" class="edge">
<title>Node7&#45;&gt;Node17</title>
<g id="a_edge22_Node000007_Node000017"><a xlink:title=" ">
<path fill="none" stroke="#63b8ff" d="M1431.22,-126.03C1418.42,-116.9 1401.98,-105.17 1389.28,-96.11"/>
<polygon fill="#63b8ff" stroke="#63b8ff" points="1429.23,-128.91 1439.4,-131.87 1433.29,-123.21 1429.23,-128.91"/>
</a>
</g>
</g>
<!-- Node19 -->
<g id="Node000019" class="node">
<title>Node19</title>
<g id="a_Node000019"><a xlink:href="HierarchyWidget_8h.html" target="_top" xlink:title=" ">
<polygon fill="white" stroke="#666666" points="2824,-90.5 2687,-90.5 2687,-71.5 2824,-71.5 2824,-90.5"/>
<text text-anchor="middle" x="2755.5" y="-78.5" font-family="Helvetica,sans-Serif" font-size="10.00">src/ui/HierarchyWidget.h</text>
</a>
</g>
</g>
<!-- Node7&#45;&gt;Node19 -->
<g id="edge25_Node000007_Node000019" class="edge">
<title>Node7&#45;&gt;Node19</title>
<g id="a_edge25_Node000007_Node000019"><a xlink:title=" ">
<path fill="none" stroke="#63b8ff" d="M1547.81,-137.71C1740.68,-131.89 2188.03,-117.2 2563.5,-96 2604.38,-93.69 2650.1,-90.39 2686.67,-87.57"/>
<polygon fill="#63b8ff" stroke="#63b8ff" points="1547.59,-134.21 1537.7,-138.01 1547.8,-141.21 1547.59,-134.21"/>
</a>
</g>
</g>
<!-- Node22 -->
<g id="Node000022" class="node">
<title>Node22</title>
<g id="a_Node000022"><a xlink:href="ForcesInspectorWidget_8cpp.html" target="_top" xlink:title=" ">
<polygon fill="white" stroke="#666666" points="1147.5,-96 977.5,-96 977.5,-66 1147.5,-66 1147.5,-96"/>
<text text-anchor="start" x="985.5" y="-84" font-family="Helvetica,sans-Serif" font-size="10.00">src/ui/inspector/ForcesInspector</text>
<text text-anchor="middle" x="1062.5" y="-73" font-family="Helvetica,sans-Serif" font-size="10.00">Widget.cpp</text>
</a>
</g>
</g>
<!-- Node7&#45;&gt;Node22 -->
<g id="edge28_Node000007_Node000022" class="edge">
<title>Node7&#45;&gt;Node22</title>
<g id="a_edge28_Node000007_Node000022"><a xlink:title=" ">
<path fill="none" stroke="#63b8ff" d="M1384.73,-130.46C1319.24,-120.61 1219.11,-105.55 1147.86,-94.84"/>
<polygon fill="#63b8ff" stroke="#63b8ff" points="1384.53,-133.97 1394.94,-131.99 1385.57,-127.05 1384.53,-133.97"/>
</a>
</g>
</g>
<!-- Node7&#45;&gt;Node23 -->
<g id="edge29_Node000007_Node000023" class="edge">
<title>Node7&#45;&gt;Node23</title>
<g id="a_edge29_Node000007_Node000023"><a xlink:title=" ">
<path fill="none" stroke="#63b8ff" d="M1547.57,-133.77C1641.42,-126.6 1788.17,-113.83 1914.5,-96 1917.52,-95.57 1920.6,-95.11 1923.7,-94.62"/>
<polygon fill="#63b8ff" stroke="#63b8ff" points="1547.24,-130.28 1537.53,-134.53 1547.76,-137.26 1547.24,-130.28"/>
</a>
</g>
</g>
<!-- Node7&#45;&gt;Node24 -->
<g id="edge30_Node000007_Node000024" class="edge">
<title>Node7&#45;&gt;Node24</title>
<g id="a_edge30_Node000007_Node000024"><a xlink:title=" ">
<path fill="none" stroke="#63b8ff" d="M1547.91,-136.64C1668.92,-131.07 1882.67,-118.85 2064.5,-96 2067.23,-95.66 2070.01,-95.28 2072.81,-94.88"/>
<polygon fill="#63b8ff" stroke="#63b8ff" points="1547.4,-133.16 1537.57,-137.11 1547.72,-140.15 1547.4,-133.16"/>
</a>
</g>
</g>
<!-- Node25 -->
<g id="Node000025" class="node">
<title>Node25</title>
<g id="a_Node000025"><a xlink:href="PhysicsInspectorWidget_8cpp.html" target="_top" xlink:title=" ">
<polygon fill="white" stroke="#666666" points="1297,-96 1166,-96 1166,-66 1297,-66 1297,-96"/>
<text text-anchor="start" x="1174" y="-84" font-family="Helvetica,sans-Serif" font-size="10.00">src/ui/inspector/Physics</text>
<text text-anchor="middle" x="1231.5" y="-73" font-family="Helvetica,sans-Serif" font-size="10.00">InspectorWidget.cpp</text>
</a>
</g>
</g>
<!-- Node7&#45;&gt;Node25 -->
<g id="edge31_Node000007_Node000025" class="edge">
<title>Node7&#45;&gt;Node25</title>
<g id="a_edge31_Node000007_Node000025"><a xlink:title=" ">
<path fill="none" stroke="#63b8ff" d="M1409.46,-129.32C1373.89,-119.86 1322.74,-106.26 1284.39,-96.06"/>
<polygon fill="#63b8ff" stroke="#63b8ff" points="1408.95,-132.81 1419.51,-131.99 1410.75,-126.04 1408.95,-132.81"/>
</a>
</g>
</g>
<!-- Node26 -->
<g id="Node000026" class="node">
<title>Node26</title>
<g id="a_Node000026"><a xlink:href="TransformInspectorWidget_8cpp.html" target="_top" xlink:title=" ">
<polygon fill="white" stroke="#666666" points="1623,-96 1480,-96 1480,-66 1623,-66 1623,-96"/>
<text text-anchor="start" x="1488" y="-84" font-family="Helvetica,sans-Serif" font-size="10.00">src/ui/inspector/Transform</text>
<text text-anchor="middle" x="1551.5" y="-73" font-family="Helvetica,sans-Serif" font-size="10.00">InspectorWidget.cpp</text>
</a>
</g>
</g>
<!-- Node7&#45;&gt;Node26 -->
<g id="edge32_Node000007_Node000026" class="edge">
<title>Node7&#45;&gt;Node26</title>
<g id="a_edge32_Node000007_Node000026"><a xlink:title=" ">
<path fill="none" stroke="#63b8ff" d="M1474.9,-126.81C1490.67,-117.58 1511.44,-105.43 1527.37,-96.11"/>
<polygon fill="#63b8ff" stroke="#63b8ff" points="1473.12,-123.8 1466.26,-131.87 1476.65,-129.84 1473.12,-123.8"/>
</a>
</g>
</g>
<!-- Node9&#45;&gt;Node4 -->
<g id="edge10_Node000009_Node000004" class="edge">
<title>Node9&#45;&gt;Node4</title>
<g id="a_edge10_Node000009_Node000004"><a xlink:title=" ">
<path fill="none" stroke="#63b8ff" d="M479.55,-61.38C459.67,-51.36 435.57,-39.22 417.31,-30.01"/>
<polygon fill="#63b8ff" stroke="#63b8ff" points="478.12,-64.58 488.63,-65.95 481.27,-58.33 478.12,-64.58"/>
</a>
</g>
</g>
<!-- Node10 -->
<g id="Node000010" class="node">
<title>Node10</title>
<g id="a_Node000010"><a xlink:href="ScaleHandle_8cpp.html" target="_top" xlink:title=" ">
<polygon fill="white" stroke="#666666" points="614.5,-30 476.5,-30 476.5,0 614.5,0 614.5,-30"/>
<text text-anchor="start" x="484.5" y="-18" font-family="Helvetica,sans-Serif" font-size="10.00">src/graphics/components</text>
<text text-anchor="middle" x="545.5" y="-7" font-family="Helvetica,sans-Serif" font-size="10.00">/ScaleHandle.cpp</text>
</a>
</g>
</g>
<!-- Node9&#45;&gt;Node10 -->
<g id="edge11_Node000009_Node000010" class="edge">
<title>Node9&#45;&gt;Node10</title>
<g id="a_edge11_Node000009_Node000010"><a xlink:title=" ">
<path fill="none" stroke="#63b8ff" d="M527.07,-56.68C531.09,-47.79 535.56,-37.95 539.08,-30.16"/>
<polygon fill="#63b8ff" stroke="#63b8ff" points="523.88,-55.24 522.94,-65.8 530.25,-58.13 523.88,-55.24"/>
</a>
</g>
</g>
<!-- Node15&#45;&gt;Node5 -->
<g id="edge20_Node000015_Node000005" class="edge">
<title>Node15&#45;&gt;Node5</title>
<g id="a_edge20_Node000015_Node000005"><a xlink:title=" ">
<path fill="none" stroke="#63b8ff" d="M1851.5,-55.6C1851.5,-44.8 1851.5,-32.78 1851.5,-24.84"/>
<polygon fill="#63b8ff" stroke="#63b8ff" points="1848,-55.8 1851.5,-65.8 1855,-55.8 1848,-55.8"/>
</a>
</g>
</g>
<!-- Node15&#45;&gt;Node16 -->
<g id="edge21_Node000015_Node000016" class="edge">
<title>Node15&#45;&gt;Node16</title>
<g id="a_edge21_Node000015_Node000016"><a xlink:title=" ">
<path fill="none" stroke="#63b8ff" d="M1915.19,-66.05C1915.3,-66.03 1915.4,-66.02 1915.5,-66 2038.45,-44.91 2184.11,-28.95 2261.25,-21.2"/>
<polygon fill="#63b8ff" stroke="#63b8ff" points="1914.76,-62.57 1905.55,-67.81 1916.02,-69.46 1914.76,-62.57"/>
</a>
</g>
</g>
<!-- Node17&#45;&gt;Node5 -->
<g id="edge23_Node000017_Node000005" class="edge">
<title>Node17&#45;&gt;Node5</title>
<g id="a_edge23_Node000017_Node000005"><a xlink:title=" ">
<path fill="none" stroke="#63b8ff" d="M1433.65,-66.64C1434.94,-66.42 1436.23,-66.21 1437.5,-66 1549.33,-47.77 1679.15,-33.14 1763.17,-24.53"/>
<polygon fill="#63b8ff" stroke="#63b8ff" points="1432.84,-63.23 1423.62,-68.44 1434.08,-70.12 1432.84,-63.23"/>
</a>
</g>
</g>
<!-- Node17&#45;&gt;Node18 -->
<g id="edge24_Node000017_Node000018" class="edge">
<title>Node17&#45;&gt;Node18</title>
<g id="a_edge24_Node000017_Node000018"><a xlink:title=" ">
<path fill="none" stroke="#63b8ff" d="M1305.36,-65.82C1222.16,-49.23 1136.68,-34.27 1082.7,-25.08"/>
<polygon fill="#63b8ff" stroke="#63b8ff" points="1304.74,-69.26 1315.23,-67.79 1306.12,-62.4 1304.74,-69.26"/>
</a>
</g>
</g>
<!-- Node20 -->
<g id="Node000020" class="node">
<title>Node20</title>
<g id="a_Node000020"><a xlink:href="HierarchyWidget_8cpp.html" target="_top" xlink:title=" ">
<polygon fill="white" stroke="#666666" points="2829.5,-24.5 2681.5,-24.5 2681.5,-5.5 2829.5,-5.5 2829.5,-24.5"/>
<text text-anchor="middle" x="2755.5" y="-12.5" font-family="Helvetica,sans-Serif" font-size="10.00">src/ui/HierarchyWidget.cpp</text>
</a>
</g>
</g>
<!-- Node19&#45;&gt;Node20 -->
<g id="edge26_Node000019_Node000020" class="edge">
<title>Node19&#45;&gt;Node20</title>
<g id="a_edge26_Node000019_Node000020"><a xlink:title=" ">
<path fill="none" stroke="#63b8ff" d="M2755.5,-61.08C2755.5,-49.13 2755.5,-34.22 2755.5,-24.91"/>
<polygon fill="#63b8ff" stroke="#63b8ff" points="2752,-61.37 2755.5,-71.37 2759,-61.37 2752,-61.37"/>
</a>
</g>
</g>
<!-- Node21 -->
<g id="Node000021" class="node">
<title>Node21</title>
<g id="a_Node000021"><a xlink:href="MainWindow_8cpp.html" target="_top" xlink:title=" ">
<polygon fill="white" stroke="#666666" points="2994.5,-24.5 2866.5,-24.5 2866.5,-5.5 2994.5,-5.5 2994.5,-24.5"/>
<text text-anchor="middle" x="2930.5" y="-12.5" font-family="Helvetica,sans-Serif" font-size="10.00">src/ui/MainWindow.cpp</text>
</a>
</g>
</g>
<!-- Node19&#45;&gt;Node21 -->
<g id="edge27_Node000019_Node000021" class="edge">
<title>Node19&#45;&gt;Node21</title>
<g id="a_edge27_Node000019_Node000021"><a xlink:title=" ">
<path fill="none" stroke="#63b8ff" d="M2788.75,-67.84C2823.33,-55.2 2876.56,-35.73 2906.99,-24.6"/>
<polygon fill="#63b8ff" stroke="#63b8ff" points="2787.29,-64.65 2779.1,-71.37 2789.7,-71.22 2787.29,-64.65"/>
</a>
</g>
</g>
<!-- Node27&#45;&gt;Node5 -->
<g id="edge34_Node000027_Node000005" class="edge">
<title>Node27&#45;&gt;Node5</title>
<g id="a_edge34_Node000027_Node000005"><a xlink:title=" ">
<path fill="none" stroke="#63b8ff" d="M2517.72,-128.64C2535.49,-122.06 2552.89,-111.85 2563.5,-96 2570.92,-84.92 2572.59,-75.75 2563.5,-66 2542.85,-43.85 2138.51,-26.37 1948.54,-19.35"/>
<polygon fill="#63b8ff" stroke="#63b8ff" points="2516.24,-125.45 2507.86,-131.93 2518.45,-132.09 2516.24,-125.45"/>
</a>
</g>
</g>
<!-- Node27&#45;&gt;Node13 -->
<g id="edge35_Node000027_Node000013" class="edge">
<title>Node27&#45;&gt;Node13</title>
<g id="a_edge35_Node000027_Node000013"><a xlink:title=" ">
<path fill="none" stroke="#63b8ff" d="M2455.5,-121.66C2455.5,-111.24 2455.5,-98.8 2455.5,-90.67"/>
<polygon fill="#63b8ff" stroke="#63b8ff" points="2452,-121.87 2455.5,-131.87 2459,-121.87 2452,-121.87"/>
</a>
</g>
</g>
<!-- Node28&#45;&gt;Node21 -->
<g id="edge41_Node000028_Node000021" class="edge">
<title>Node28&#45;&gt;Node21</title>
<g id="a_edge41_Node000028_Node000021"><a xlink:title=" ">
<path fill="none" stroke="#63b8ff" d="M2804.39,-130.08C2855.49,-120.45 2922.52,-106.13 2930.5,-96 2947,-75.05 2938.75,-40.53 2933.59,-24.57"/>
<polygon fill="#63b8ff" stroke="#63b8ff" points="2803.59,-126.67 2794.4,-131.95 2804.88,-133.55 2803.59,-126.67"/>
</a>
</g>
</g>
<!-- Node29 -->
<g id="Node000029" class="node">
<title>Node29</title>
<g id="a_Node000029"><a xlink:href="main_8cpp.html" target="_top" xlink:title=" ">
<polygon fill="white" stroke="#666666" points="2921,-90.5 2842,-90.5 2842,-71.5 2921,-71.5 2921,-90.5"/>
<text text-anchor="middle" x="2881.5" y="-78.5" font-family="Helvetica,sans-Serif" font-size="10.00">src/main.cpp</text>
</a>
</g>
</g>
<!-- Node28&#45;&gt;Node29 -->
<g id="edge40_Node000028_Node000029" class="edge">
<title>Node28&#45;&gt;Node29</title>
<g id="a_edge40_Node000028_Node000029"><a xlink:title=" ">
<path fill="none" stroke="#63b8ff" d="M2774.72,-127.93C2800.98,-116.64 2838.83,-100.36 2861.7,-90.52"/>
<polygon fill="#63b8ff" stroke="#63b8ff" points="2773.08,-124.83 2765.28,-131.99 2775.84,-131.26 2773.08,-124.83"/>
</a>
</g>
</g>
</g>
</svg>

<g id="navigator" transform="translate(0 0)" fill="#404254">
  <rect fill="#f2f5e9" fill-opacity="0.5" stroke="#606060" stroke-width=".5" x="0" y="0" width="60" height="60"/>
  <use id="zoomplus" xlink:href="#zoomPlus" x="17" y="9" onmousedown="handleZoom(evt,'in')"/>
  <use id="zoomminus" xlink:href="#zoomMin" x="42" y="9" onmousedown="handleZoom(evt,'out')"/>
  <use id="reset" xlink:href="#resetDef" x="30" y="36" onmousedown="handleReset()"/>
   <use id="arrowup" xlink:href="#arrowUp" x="0" y="0" onmousedown="handlePan(0,-1)"/>
  <use id="arrowright" xlink:href="#arrowRight" x="0" y="0" onmousedown="handlePan(1,0)"/>
  <use id="arrowdown" xlink:href="#arrowDown" x="0" y="0" onmousedown="handlePan(0,1)"/>
  <use id="arrowleft" xlink:href="#arrowLeft" x="0" y="0" onmousedown="handlePan(-1,0)"/>
</g>
<svg viewBox="0 0 15 15" width="100%" height="30px" preserveAspectRatio="xMaxYMin meet">
 <g id="arrow_out" transform="scale(0.3 0.3)">
  <a xlink:href="Scene_8h__dep__incl_org.svg" target="_base">
   <rect id="button" ry="5" rx="5" y="6" x="6" height="38" width="38"
        fill="#f2f5e9" fill-opacity="0.5" stroke="#606060" stroke-width="1.0"/>
   <path id="arrow"
     d="M 11.500037,31.436501 C 11.940474,20.09759 22.043105,11.32322 32.158766,21.979434 L 37.068811,17.246167 C 37.068811,17.246167 37.088388,32 37.088388,32 L 22.160133,31.978069 C 22.160133,31.978069 26.997745,27.140456 26.997745,27.140456 C 18.528582,18.264221 13.291696,25.230495 11.500037,31.436501 z"
     style="fill:#404040;"/>
  </a>
 </g>
</svg>

<style type='text/css'>
<![CDATA[
[data-mouse-over-selected='false'] { opacity: 0.7; }
[data-mouse-over-selected='true']  { opacity: 1.0; }
]]>
</style>
<script type="application/ecmascript"><![CDATA[
document.addEventListener('DOMContentLoaded', (event) => {
  highlightEdges();
  highlightAdjacentNodes();
});
]]></script>
</svg>
