<?xml version="1.0" encoding="UTF-8" standalone="no"?>
<!DOCTYPE svg PUBLIC "-//W3C//DTD SVG 1.1//EN"
 "http://www.w3.org/Graphics/SVG/1.1/DTD/svg11.dtd">
<!-- Generated by graphviz version 2.43.0 (0)
 -->
<!-- Title: src/graphics/components/Shader.h Pages: 1 -->
<!--zoomable 566 -->

<svg id="main" version="1.1" xmlns="http://www.w3.org/2000/svg" xmlns:xlink="http://www.w3.org/1999/xlink" xml:space="preserve" onload="init(evt)">
<style type="text/css"><![CDATA[
.node, .edge {opacity: 0.7;}
.node.selected, .edge.selected {opacity: 1;}
.edge:hover path { stroke: red; }
.edge:hover polygon { stroke: red; fill: red; }
]]></style>

<defs>
  <circle id="rim" cx="0" cy="0" r="7"/>
  <circle id="rim2" cx="0" cy="0" r="3.5"/>
  <g id="zoomPlus">
    <use xlink:href="#rim" fill="#404040"><set attributeName="fill" to="#808080" begin="zoomplus.mouseover" end="zoomplus.mouseout"/></use>
    <path d="M-4,0h8M0,-4v8" fill="none" stroke="white" stroke-width="1.5" pointer-events="none"/>
  </g>
  <g id="zoomMin">
    <use xlink:href="#rim" fill="#404040"><set attributeName="fill" to="#808080" begin="zoomminus.mouseover" end="zoomminus.mouseout"/></use>
    <path d="M-4,0h8" fill="none" stroke="white" stroke-width="1.5" pointer-events="none"/>
  </g>
  <g id="arrowUp" transform="translate(30 24)">
    <use xlink:href="#rim"/>
    <path pointer-events="none" fill="none" stroke="white" stroke-width="1.5" d="M0,-3.0v7 M-2.5,-0.5L0,-3.0L2.5,-0.5"/>
  </g>
  <g id="arrowRight" transform="rotate(90) translate(36 -43)">
    <use xlink:href="#rim"/>
    <path pointer-events="none" fill="none" stroke="white" stroke-width="1.5" d="M0,-3.0v7 M-2.5,-0.5L0,-3.0L2.5,-0.5"/>
  </g>
  <g id="arrowDown" transform="rotate(180) translate(-30 -48)">
    <use xlink:href="#rim"/>
    <path pointer-events="none" fill="none" stroke="white" stroke-width="1.5" d="M0,-3.0v7 M-2.5,-0.5L0,-3.0L2.5,-0.5"/>
  </g>
  <g id="arrowLeft" transform="rotate(270) translate(-36 17)">
    <use xlink:href="#rim"/>
    <path pointer-events="none" fill="none" stroke="white" stroke-width="1.5" d="M0,-3.0v7 M-2.5,-0.5L0,-3.0L2.5,-0.5"/>
  </g>
  <g id="resetDef">
    <use xlink:href="#rim2" fill="#404040"><set attributeName="fill" to="#808080" begin="reset.mouseover" end="reset.mouseout"/></use>
  </g>
</defs>
<script type="application/ecmascript">
var viewWidth = 2803;
var viewHeight = 566;
var sectionId = 'dynsection-1';
</script>
<script type="application/ecmascript" xlink:href="svg.min.js"/>
<svg id="graph" class="graph">
<g id="viewport">
<title>src/graphics/components/Shader.h</title>
<!-- Node1 -->
<g id="Node000001" class="node">
<title>Node1</title>
<g id="a_Node000001"><a xlink:title=" ">
<polygon fill="#999999" stroke="#666666" points="1792.32,-558 1654.32,-558 1654.32,-528 1792.32,-528 1792.32,-558"/>
<text text-anchor="start" x="1662.32" y="-546" font-family="Helvetica,sans-Serif" font-size="10.00">src/graphics/components</text>
<text text-anchor="middle" x="1723.32" y="-535" font-family="Helvetica,sans-Serif" font-size="10.00">/Shader.h</text>
</a>
</g>
</g>
<!-- Node2 -->
<g id="Node000002" class="node">
<title>Node2</title>
<g id="a_Node000002"><a xlink:href="Gizmo_8h.html" target="_top" xlink:title="Interactive 3D manipulation gizmo for scene objects.">
<polygon fill="white" stroke="#666666" points="1972.32,-360 1834.32,-360 1834.32,-330 1972.32,-330 1972.32,-360"/>
<text text-anchor="start" x="1842.32" y="-348" font-family="Helvetica,sans-Serif" font-size="10.00">src/graphics/components</text>
<text text-anchor="middle" x="1903.32" y="-337" font-family="Helvetica,sans-Serif" font-size="10.00">/Gizmo.h</text>
</a>
</g>
</g>
<!-- Node1&#45;&gt;Node2 -->
<g id="edge1_Node000001_Node000002" class="edge">
<title>Node1&#45;&gt;Node2</title>
<g id="a_edge1_Node000001_Node000002"><a xlink:title=" ">
<path fill="none" stroke="#63b8ff" d="M1767.16,-523.36C1782.9,-515.26 1800.03,-504.7 1813.32,-492 1855.3,-451.88 1885.54,-388.17 1897.58,-360.09"/>
<polygon fill="#63b8ff" stroke="#63b8ff" points="1765.5,-520.27 1758.09,-527.84 1768.6,-526.55 1765.5,-520.27"/>
</a>
</g>
</g>
<!-- Node9 -->
<g id="Node000009" class="node">
<title>Node9</title>
<g id="a_Node000009"><a xlink:href="SceneObject_8h.html" target="_top" xlink:title=" ">
<polygon fill="white" stroke="#666666" points="1555.32,-156.5 1383.32,-156.5 1383.32,-137.5 1555.32,-137.5 1555.32,-156.5"/>
<text text-anchor="middle" x="1469.32" y="-144.5" font-family="Helvetica,sans-Serif" font-size="10.00">src/graphics/core/SceneObject.h</text>
</a>
</g>
</g>
<!-- Node1&#45;&gt;Node9 -->
<g id="edge64_Node000001_Node000009" class="edge">
<title>Node1&#45;&gt;Node9</title>
<g id="a_edge64_Node000001_Node000009"><a xlink:title=" ">
<path fill="none" stroke="#63b8ff" d="M1674.22,-523.48C1659.5,-515.77 1644.56,-505.42 1634.32,-492 1612.08,-462.87 1614.32,-448.65 1614.32,-412 1614.32,-412 1614.32,-412 1614.32,-278 1614.32,-213.59 1534.03,-173.05 1492.94,-156.53"/>
<polygon fill="#63b8ff" stroke="#63b8ff" points="1672.8,-526.68 1683.32,-527.95 1675.88,-520.4 1672.8,-526.68"/>
</a>
</g>
</g>
<!-- Node28 -->
<g id="Node000028" class="node">
<title>Node28</title>
<g id="a_Node000028"><a xlink:href="Shader_8cpp.html" target="_top" xlink:title=" ">
<polygon fill="white" stroke="#666666" points="1998.32,-492 1860.32,-492 1860.32,-462 1998.32,-462 1998.32,-492"/>
<text text-anchor="start" x="1868.32" y="-480" font-family="Helvetica,sans-Serif" font-size="10.00">src/graphics/components</text>
<text text-anchor="middle" x="1929.32" y="-469" font-family="Helvetica,sans-Serif" font-size="10.00">/Shader.cpp</text>
</a>
</g>
</g>
<!-- Node1&#45;&gt;Node28 -->
<g id="edge41_Node000001_Node000028" class="edge">
<title>Node1&#45;&gt;Node28</title>
<g id="a_edge41_Node000001_Node000028"><a xlink:title=" ">
<path fill="none" stroke="#63b8ff" d="M1778.5,-524.86C1811.58,-514.58 1853.12,-501.68 1884.22,-492.01"/>
<polygon fill="#63b8ff" stroke="#63b8ff" points="1777.04,-521.65 1768.53,-527.95 1779.12,-528.33 1777.04,-521.65"/>
</a>
</g>
</g>
<!-- Node29 -->
<g id="Node000029" class="node">
<title>Node29</title>
<g id="a_Node000029"><a xlink:href="IDrawable_8h.html" target="_top" xlink:title=" ">
<polygon fill="white" stroke="#666666" points="1803.82,-486.5 1642.82,-486.5 1642.82,-467.5 1803.82,-467.5 1803.82,-486.5"/>
<text text-anchor="middle" x="1723.32" y="-474.5" font-family="Helvetica,sans-Serif" font-size="10.00">src/graphics/core/IDrawable.h</text>
</a>
</g>
</g>
<!-- Node1&#45;&gt;Node29 -->
<g id="edge42_Node000001_Node000029" class="edge">
<title>Node1&#45;&gt;Node29</title>
<g id="a_edge42_Node000001_Node000029"><a xlink:title=" ">
<path fill="none" stroke="#63b8ff" d="M1723.32,-517.6C1723.32,-506.8 1723.32,-494.78 1723.32,-486.84"/>
<polygon fill="#63b8ff" stroke="#63b8ff" points="1719.82,-517.8 1723.32,-527.8 1726.82,-517.8 1719.82,-517.8"/>
</a>
</g>
</g>
<!-- Node33 -->
<g id="Node000033" class="node">
<title>Node33</title>
<g id="a_Node000033"><a xlink:href="ResourceManager_8h.html" target="_top" xlink:title=" ">
<polygon fill="white" stroke="#666666" points="849.82,-294 702.82,-294 702.82,-264 849.82,-264 849.82,-294"/>
<text text-anchor="start" x="710.82" y="-282" font-family="Helvetica,sans-Serif" font-size="10.00">src/graphics/core/Resource</text>
<text text-anchor="middle" x="776.32" y="-271" font-family="Helvetica,sans-Serif" font-size="10.00">Manager.h</text>
</a>
</g>
</g>
<!-- Node1&#45;&gt;Node33 -->
<g id="edge53_Node000001_Node000033" class="edge">
<title>Node1&#45;&gt;Node33</title>
<g id="a_edge53_Node000001_Node000033"><a xlink:title=" ">
<path fill="none" stroke="#63b8ff" d="M1662.63,-525.21C1488.35,-476.99 988.54,-338.71 827.2,-294.08"/>
<polygon fill="#63b8ff" stroke="#63b8ff" points="1661.83,-528.62 1672.41,-527.91 1663.7,-521.87 1661.83,-528.62"/>
</a>
</g>
</g>
<!-- Node3 -->
<g id="Node000003" class="node">
<title>Node3</title>
<g id="a_Node000003"><a xlink:href="Gizmo_8cpp.html" target="_top" xlink:title=" ">
<polygon fill="white" stroke="#666666" points="2348.32,-30 2210.32,-30 2210.32,0 2348.32,0 2348.32,-30"/>
<text text-anchor="start" x="2218.32" y="-18" font-family="Helvetica,sans-Serif" font-size="10.00">src/graphics/components</text>
<text text-anchor="middle" x="2279.32" y="-7" font-family="Helvetica,sans-Serif" font-size="10.00">/Gizmo.cpp</text>
</a>
</g>
</g>
<!-- Node2&#45;&gt;Node3 -->
<g id="edge2_Node000002_Node000003" class="edge">
<title>Node2&#45;&gt;Node3</title>
<g id="a_edge2_Node000002_Node000003"><a xlink:title=" ">
<path fill="none" stroke="#63b8ff" d="M1982.9,-338.68C2118.89,-324.79 2392.96,-274.87 2513.32,-96 2555.09,-33.93 2431.58,-19.3 2348.44,-16.28"/>
<polygon fill="#63b8ff" stroke="#63b8ff" points="1982.17,-335.23 1972.56,-339.69 1982.85,-342.2 1982.17,-335.23"/>
</a>
</g>
</g>
<!-- Node4 -->
<g id="Node000004" class="node">
<title>Node4</title>
<g id="a_Node000004"><a xlink:href="Scene_8h.html" target="_top" xlink:title=" ">
<polygon fill="white" stroke="#666666" points="1874.32,-288.5 1734.32,-288.5 1734.32,-269.5 1874.32,-269.5 1874.32,-288.5"/>
<text text-anchor="middle" x="1804.32" y="-276.5" font-family="Helvetica,sans-Serif" font-size="10.00">src/graphics/core/Scene.h</text>
</a>
</g>
</g>
<!-- Node2&#45;&gt;Node4 -->
<g id="edge3_Node000002_Node000004" class="edge">
<title>Node2&#45;&gt;Node4</title>
<g id="a_edge3_Node000002_Node000004"><a xlink:title=" ">
<path fill="none" stroke="#63b8ff" d="M1872.94,-324.36C1854.47,-312.42 1831.81,-297.77 1817.71,-288.66"/>
<polygon fill="#63b8ff" stroke="#63b8ff" points="1871.05,-327.31 1881.35,-329.8 1874.85,-321.43 1871.05,-327.31"/>
</a>
</g>
</g>
<!-- Node27 -->
<g id="Node000027" class="node">
<title>Node27</title>
<g id="a_Node000027"><a xlink:href="OpenGLWindow_8cpp.html" target="_top" xlink:title=" ">
<polygon fill="white" stroke="#666666" points="1837.32,-156.5 1695.32,-156.5 1695.32,-137.5 1837.32,-137.5 1837.32,-156.5"/>
<text text-anchor="middle" x="1766.32" y="-144.5" font-family="Helvetica,sans-Serif" font-size="10.00">src/ui/OpenGLWindow.cpp</text>
</a>
</g>
</g>
<!-- Node2&#45;&gt;Node27 -->
<g id="edge40_Node000002_Node000027" class="edge">
<title>Node2&#45;&gt;Node27</title>
<g id="a_edge40_Node000002_Node000027"><a xlink:title=" ">
<path fill="none" stroke="#63b8ff" d="M1900.75,-319.85C1898.19,-303.28 1893.14,-281.25 1883.32,-264 1855.88,-215.77 1802.84,-174.02 1778.75,-156.63"/>
<polygon fill="#63b8ff" stroke="#63b8ff" points="1897.3,-320.41 1902.11,-329.85 1904.23,-319.47 1897.3,-320.41"/>
</a>
</g>
</g>
<!-- Node5 -->
<g id="Node000005" class="node">
<title>Node5</title>
<g id="a_Node000005"><a xlink:href="Scene_8cpp.html" target="_top" xlink:title=" ">
<polygon fill="white" stroke="#666666" points="2192.32,-90.5 2040.32,-90.5 2040.32,-71.5 2192.32,-71.5 2192.32,-90.5"/>
<text text-anchor="middle" x="2116.32" y="-78.5" font-family="Helvetica,sans-Serif" font-size="10.00">src/graphics/core/Scene.cpp</text>
</a>
</g>
</g>
<!-- Node4&#45;&gt;Node5 -->
<g id="edge4_Node000004_Node000005" class="edge">
<title>Node4&#45;&gt;Node5</title>
<g id="a_edge4_Node000004_Node000005"><a xlink:title=" ">
<path fill="none" stroke="#63b8ff" d="M1826.97,-263.77C1887.88,-225.51 2053.89,-121.22 2102.67,-90.57"/>
<polygon fill="#63b8ff" stroke="#63b8ff" points="1824.73,-261.04 1818.13,-269.33 1828.46,-266.97 1824.73,-261.04"/>
</a>
</g>
</g>
<!-- Node6 -->
<g id="Node000006" class="node">
<title>Node6</title>
<g id="a_Node000006"><a xlink:href="SceneManager_8h.html" target="_top" xlink:title=" ">
<polygon fill="white" stroke="#666666" points="986.32,-222.5 804.32,-222.5 804.32,-203.5 986.32,-203.5 986.32,-222.5"/>
<text text-anchor="middle" x="895.32" y="-210.5" font-family="Helvetica,sans-Serif" font-size="10.00">src/graphics/core/SceneManager.h</text>
</a>
</g>
</g>
<!-- Node4&#45;&gt;Node6 -->
<g id="edge5_Node000004_Node000006" class="edge">
<title>Node4&#45;&gt;Node6</title>
<g id="a_edge5_Node000004_Node000006"><a xlink:title=" ">
<path fill="none" stroke="#63b8ff" d="M1724.06,-272.35C1555.24,-260.46 1164.34,-232.94 986.44,-220.42"/>
<polygon fill="#63b8ff" stroke="#63b8ff" points="1723.9,-275.85 1734.13,-273.06 1724.4,-268.86 1723.9,-275.85"/>
</a>
</g>
</g>
<!-- Node8 -->
<g id="Node000008" class="node">
<title>Node8</title>
<g id="a_Node000008"><a xlink:href="SceneObject_8cpp.html" target="_top" xlink:title=" ">
<polygon fill="white" stroke="#666666" points="806.82,-90.5 623.82,-90.5 623.82,-71.5 806.82,-71.5 806.82,-90.5"/>
<text text-anchor="middle" x="715.32" y="-78.5" font-family="Helvetica,sans-Serif" font-size="10.00">src/graphics/core/SceneObject.cpp</text>
</a>
</g>
</g>
<!-- Node4&#45;&gt;Node8 -->
<g id="edge38_Node000004_Node000008" class="edge">
<title>Node4&#45;&gt;Node8</title>
<g id="a_edge38_Node000004_Node000008"><a xlink:title=" ">
<path fill="none" stroke="#63b8ff" d="M1746.95,-267.67C1555.22,-233.17 938.92,-122.24 762.76,-90.54"/>
<polygon fill="#63b8ff" stroke="#63b8ff" points="1746.37,-271.13 1756.83,-269.45 1747.61,-264.24 1746.37,-271.13"/>
</a>
</g>
</g>
<!-- Node4&#45;&gt;Node27 -->
<g id="edge39_Node000004_Node000027" class="edge">
<title>Node4&#45;&gt;Node27</title>
<g id="a_edge39_Node000004_Node000027"><a xlink:title=" ">
<path fill="none" stroke="#63b8ff" d="M1798.95,-259.61C1790.64,-231.19 1775,-177.69 1768.87,-156.73"/>
<polygon fill="#63b8ff" stroke="#63b8ff" points="1795.66,-260.85 1801.83,-269.47 1802.38,-258.89 1795.66,-260.85"/>
</a>
</g>
</g>
<!-- Node6&#45;&gt;Node3 -->
<g id="edge6_Node000006_Node000003" class="edge">
<title>Node6&#45;&gt;Node3</title>
<g id="a_edge6_Node000006_Node000003"><a xlink:title=" ">
<path fill="none" stroke="#63b8ff" d="M996.76,-208.06C1171.06,-200.74 1513.61,-183.81 1564.32,-162 1582.53,-154.17 1579.18,-139.98 1597.32,-132 1759.1,-60.87 1829.17,-161.46 1993.32,-96 2013.31,-88.03 2011.79,-75.04 2031.32,-66 2088.22,-39.66 2158.77,-27.15 2210.06,-21.23"/>
<polygon fill="#63b8ff" stroke="#63b8ff" points="996.4,-204.57 986.55,-208.48 996.69,-211.56 996.4,-204.57"/>
</a>
</g>
</g>
<!-- Node7 -->
<g id="Node000007" class="node">
<title>Node7</title>
<g id="a_Node000007"><a xlink:href="SceneManager_8cpp.html" target="_top" xlink:title=" ">
<polygon fill="white" stroke="#666666" points="605.32,-90.5 411.32,-90.5 411.32,-71.5 605.32,-71.5 605.32,-90.5"/>
<text text-anchor="middle" x="508.32" y="-78.5" font-family="Helvetica,sans-Serif" font-size="10.00">src/graphics/core/SceneManager.cpp</text>
</a>
</g>
</g>
<!-- Node6&#45;&gt;Node7 -->
<g id="edge7_Node000006_Node000007" class="edge">
<title>Node6&#45;&gt;Node7</title>
<g id="a_edge7_Node000006_Node000007"><a xlink:title=" ">
<path fill="none" stroke="#63b8ff" d="M860.21,-200.21C783.21,-174.34 601.02,-113.14 533.81,-90.56"/>
<polygon fill="#63b8ff" stroke="#63b8ff" points="859.33,-203.6 869.93,-203.47 861.56,-196.97 859.33,-203.6"/>
</a>
</g>
</g>
<!-- Node6&#45;&gt;Node8 -->
<g id="edge8_Node000006_Node000008" class="edge">
<title>Node6&#45;&gt;Node8</title>
<g id="a_edge8_Node000006_Node000008"><a xlink:title=" ">
<path fill="none" stroke="#63b8ff" d="M875.35,-197.58C837.83,-170.48 757.84,-112.71 727.41,-90.73"/>
<polygon fill="#63b8ff" stroke="#63b8ff" points="873.35,-200.45 883.51,-203.47 877.45,-194.78 873.35,-200.45"/>
</a>
</g>
</g>
<!-- Node6&#45;&gt;Node9 -->
<g id="edge9_Node000006_Node000009" class="edge">
<title>Node6&#45;&gt;Node9</title>
<g id="a_edge9_Node000006_Node000009"><a xlink:title=" ">
<path fill="none" stroke="#63b8ff" d="M982.07,-202.33C1093.83,-189.87 1286.35,-168.4 1392.87,-156.52"/>
<polygon fill="#63b8ff" stroke="#63b8ff" points="981.39,-198.88 971.84,-203.47 982.17,-205.84 981.39,-198.88"/>
</a>
</g>
</g>
<!-- Node20 -->
<g id="Node000020" class="node">
<title>Node20</title>
<g id="a_Node000020"><a xlink:href="GlobalsInspectorWidget_8cpp.html" target="_top" xlink:title=" ">
<polygon fill="white" stroke="#666666" points="955.82,-96 824.82,-96 824.82,-66 955.82,-66 955.82,-96"/>
<text text-anchor="start" x="832.82" y="-84" font-family="Helvetica,sans-Serif" font-size="10.00">src/ui/inspector/Globals</text>
<text text-anchor="middle" x="890.32" y="-73" font-family="Helvetica,sans-Serif" font-size="10.00">InspectorWidget.cpp</text>
</a>
</g>
</g>
<!-- Node6&#45;&gt;Node20 -->
<g id="edge36_Node000006_Node000020" class="edge">
<title>Node6&#45;&gt;Node20</title>
<g id="a_edge36_Node000006_Node000020"><a xlink:title=" ">
<path fill="none" stroke="#63b8ff" d="M894.6,-193.32C893.59,-167 891.77,-119.61 890.86,-96.07"/>
<polygon fill="#63b8ff" stroke="#63b8ff" points="891.11,-193.61 894.99,-203.47 898.11,-193.34 891.11,-193.61"/>
</a>
</g>
</g>
<!-- Node21 -->
<g id="Node000021" class="node">
<title>Node21</title>
<g id="a_Node000021"><a xlink:href="InspectorWidget_8cpp.html" target="_top" xlink:title=" ">
<polygon fill="white" stroke="#666666" points="1112.82,-96 973.82,-96 973.82,-66 1112.82,-66 1112.82,-96"/>
<text text-anchor="start" x="981.82" y="-84" font-family="Helvetica,sans-Serif" font-size="10.00">src/ui/inspector/Inspector</text>
<text text-anchor="middle" x="1043.32" y="-73" font-family="Helvetica,sans-Serif" font-size="10.00">Widget.cpp</text>
</a>
</g>
</g>
<!-- Node6&#45;&gt;Node21 -->
<g id="edge37_Node000006_Node000021" class="edge">
<title>Node6&#45;&gt;Node21</title>
<g id="a_edge37_Node000006_Node000021"><a xlink:title=" ">
<path fill="none" stroke="#63b8ff" d="M912.71,-196.73C941.65,-171.3 999.3,-120.67 1027.31,-96.07"/>
<polygon fill="#63b8ff" stroke="#63b8ff" points="910.23,-194.24 905.03,-203.47 914.85,-199.5 910.23,-194.24"/>
</a>
</g>
</g>
<!-- Node24 -->
<g id="Node000024" class="node">
<title>Node24</title>
<g id="a_Node000024"><a xlink:href="SceneSerializer_8h.html" target="_top" xlink:title=" ">
<polygon fill="white" stroke="#666666" points="506.82,-156.5 321.82,-156.5 321.82,-137.5 506.82,-137.5 506.82,-156.5"/>
<text text-anchor="middle" x="414.32" y="-144.5" font-family="Helvetica,sans-Serif" font-size="10.00">src/graphics/core/SceneSerializer.h</text>
</a>
</g>
</g>
<!-- Node6&#45;&gt;Node24 -->
<g id="edge29_Node000006_Node000024" class="edge">
<title>Node6&#45;&gt;Node24</title>
<g id="a_edge29_Node000006_Node000024"><a xlink:title=" ">
<path fill="none" stroke="#63b8ff" d="M821.5,-202.15C811.03,-200.76 800.4,-199.34 790.32,-198 680.82,-183.42 553.38,-166.48 478.52,-156.53"/>
<polygon fill="#63b8ff" stroke="#63b8ff" points="821.09,-205.63 831.47,-203.48 822.02,-198.69 821.09,-205.63"/>
</a>
</g>
</g>
<!-- Node25 -->
<g id="Node000025" class="node">
<title>Node25</title>
<g id="a_Node000025"><a xlink:href="MainWindow_8h.html" target="_top" xlink:title=" ">
<polygon fill="white" stroke="#666666" points="196.82,-156.5 79.82,-156.5 79.82,-137.5 196.82,-137.5 196.82,-156.5"/>
<text text-anchor="middle" x="138.32" y="-144.5" font-family="Helvetica,sans-Serif" font-size="10.00">src/ui/MainWindow.h</text>
</a>
</g>
</g>
<!-- Node6&#45;&gt;Node25 -->
<g id="edge32_Node000006_Node000025" class="edge">
<title>Node6&#45;&gt;Node25</title>
<g id="a_edge32_Node000006_Node000025"><a xlink:title=" ">
<path fill="none" stroke="#63b8ff" d="M825.72,-202.15C813.92,-200.64 801.78,-199.19 790.32,-198 578.42,-175.91 524.72,-178.54 312.32,-162 273.95,-159.01 230.83,-155.54 197.11,-152.81"/>
<polygon fill="#63b8ff" stroke="#63b8ff" points="825.61,-205.66 835.97,-203.48 826.51,-198.72 825.61,-205.66"/>
</a>
</g>
</g>
<!-- Node6&#45;&gt;Node27 -->
<g id="edge35_Node000006_Node000027" class="edge">
<title>Node6&#45;&gt;Node27</title>
<g id="a_edge35_Node000006_Node000027"><a xlink:title=" ">
<path fill="none" stroke="#63b8ff" d="M996.52,-205.16C1132.99,-195.85 1383.54,-178.47 1597.32,-162 1629.46,-159.52 1665.03,-156.6 1695.21,-154.07"/>
<polygon fill="#63b8ff" stroke="#63b8ff" points="996.24,-201.67 986.5,-205.84 996.71,-208.66 996.24,-201.67"/>
</a>
</g>
</g>
<!-- Node9&#45;&gt;Node3 -->
<g id="edge10_Node000009_Node000003" class="edge">
<title>Node9&#45;&gt;Node3</title>
<g id="a_edge10_Node000009_Node000003"><a xlink:title=" ">
<path fill="none" stroke="#63b8ff" d="M1400.58,-136C1310.72,-122.77 1164.22,-100.58 1160.32,-96 1151.68,-85.85 1151.1,-75.64 1160.32,-66 1178.54,-46.95 1968.99,-24.29 2210.17,-17.81"/>
<polygon fill="#63b8ff" stroke="#63b8ff" points="1400.3,-139.5 1410.7,-137.49 1401.32,-132.57 1400.3,-139.5"/>
</a>
</g>
</g>
<!-- Node9&#45;&gt;Node5 -->
<g id="edge17_Node000009_Node000005" class="edge">
<title>Node9&#45;&gt;Node5</title>
<g id="a_edge17_Node000009_Node000005"><a xlink:title=" ">
<path fill="none" stroke="#63b8ff" d="M1562.45,-136.45C1577.45,-134.94 1592.81,-133.41 1607.32,-132 1778.81,-115.3 1821.94,-113.74 1993.32,-96 2009.57,-94.32 2027.01,-92.4 2043.5,-90.54"/>
<polygon fill="#63b8ff" stroke="#63b8ff" points="1561.73,-133 1552.13,-137.49 1562.43,-139.97 1561.73,-133"/>
</a>
</g>
</g>
<!-- Node9&#45;&gt;Node7 -->
<g id="edge18_Node000009_Node000007" class="edge">
<title>Node9&#45;&gt;Node7</title>
<g id="a_edge18_Node000009_Node000007"><a xlink:title=" ">
<path fill="none" stroke="#63b8ff" d="M1373.11,-142.66C1214.66,-136.65 888.98,-122.13 614.32,-96 598.89,-94.53 582.25,-92.53 566.83,-90.5"/>
<polygon fill="#63b8ff" stroke="#63b8ff" points="1373.18,-146.17 1383.3,-143.05 1373.44,-139.17 1373.18,-146.17"/>
</a>
</g>
</g>
<!-- Node9&#45;&gt;Node8 -->
<g id="edge19_Node000009_Node000008" class="edge">
<title>Node9&#45;&gt;Node8</title>
<g id="a_edge19_Node000009_Node000008"><a xlink:title=" ">
<path fill="none" stroke="#63b8ff" d="M1403.88,-136.13C1392.38,-134.6 1380.52,-133.15 1369.32,-132 1123.86,-106.88 1060.78,-121.12 815.32,-96 800.85,-94.52 785.25,-92.53 770.77,-90.51"/>
<polygon fill="#63b8ff" stroke="#63b8ff" points="1403.49,-139.61 1413.87,-137.49 1404.43,-132.67 1403.49,-139.61"/>
</a>
</g>
</g>
<!-- Node10 -->
<g id="Node000010" class="node">
<title>Node10</title>
<g id="a_Node000010"><a xlink:href="RotateHandle_8cpp.html" target="_top" xlink:title=" ">
<polygon fill="white" stroke="#666666" points="2504.32,-96 2366.32,-96 2366.32,-66 2504.32,-66 2504.32,-96"/>
<text text-anchor="start" x="2374.32" y="-84" font-family="Helvetica,sans-Serif" font-size="10.00">src/graphics/components</text>
<text text-anchor="middle" x="2435.32" y="-73" font-family="Helvetica,sans-Serif" font-size="10.00">/RotateHandle.cpp</text>
</a>
</g>
</g>
<!-- Node9&#45;&gt;Node10 -->
<g id="edge11_Node000009_Node000010" class="edge">
<title>Node9&#45;&gt;Node10</title>
<g id="a_edge11_Node000009_Node000010"><a xlink:title=" ">
<path fill="none" stroke="#63b8ff" d="M1565.83,-137.82C1591.64,-135.77 1619.53,-133.68 1645.32,-132 1961.5,-111.44 2042.53,-132.06 2357.32,-96 2360.19,-95.67 2363.11,-95.3 2366.07,-94.9"/>
<polygon fill="#63b8ff" stroke="#63b8ff" points="1565.36,-134.34 1555.67,-138.63 1565.92,-141.32 1565.36,-134.34"/>
</a>
</g>
</g>
<!-- Node11 -->
<g id="Node000011" class="node">
<title>Node11</title>
<g id="a_Node000011"><a xlink:href="ScaleHandle_8h.html" target="_top" xlink:title=" ">
<polygon fill="white" stroke="#666666" points="2348.32,-96 2210.32,-96 2210.32,-66 2348.32,-66 2348.32,-96"/>
<text text-anchor="start" x="2218.32" y="-84" font-family="Helvetica,sans-Serif" font-size="10.00">src/graphics/components</text>
<text text-anchor="middle" x="2279.32" y="-73" font-family="Helvetica,sans-Serif" font-size="10.00">/ScaleHandle.h</text>
</a>
</g>
</g>
<!-- Node9&#45;&gt;Node11 -->
<g id="edge12_Node000009_Node000011" class="edge">
<title>Node9&#45;&gt;Node11</title>
<g id="a_edge12_Node000009_Node000011"><a xlink:title=" ">
<path fill="none" stroke="#63b8ff" d="M1565.85,-138.06C1591.66,-136.01 1619.54,-133.86 1645.32,-132 1892.31,-114.18 1955.51,-125.92 2201.32,-96 2204.19,-95.65 2207.11,-95.26 2210.06,-94.85"/>
<polygon fill="#63b8ff" stroke="#63b8ff" points="1565.38,-134.59 1555.69,-138.88 1565.93,-141.57 1565.38,-134.59"/>
</a>
</g>
</g>
<!-- Node13 -->
<g id="Node000013" class="node">
<title>Node13</title>
<g id="a_Node000013"><a xlink:href="TranslateHandle_8cpp.html" target="_top" xlink:title=" ">
<polygon fill="white" stroke="#666666" points="2736.32,-96 2598.32,-96 2598.32,-66 2736.32,-66 2736.32,-96"/>
<text text-anchor="start" x="2606.32" y="-84" font-family="Helvetica,sans-Serif" font-size="10.00">src/graphics/components</text>
<text text-anchor="middle" x="2667.32" y="-73" font-family="Helvetica,sans-Serif" font-size="10.00">/TranslateHandle.cpp</text>
</a>
</g>
</g>
<!-- Node9&#45;&gt;Node13 -->
<g id="edge15_Node000009_Node000013" class="edge">
<title>Node9&#45;&gt;Node13</title>
<g id="a_edge15_Node000009_Node000013"><a xlink:title=" ">
<path fill="none" stroke="#63b8ff" d="M1565.8,-139.34C1603.4,-136.86 1646.87,-134.13 1686.32,-132 2053.69,-112.16 2146.24,-120.66 2513.32,-96 2541.04,-94.14 2571.52,-91.49 2598,-89"/>
<polygon fill="#63b8ff" stroke="#63b8ff" points="1565.11,-135.88 1555.36,-140.03 1565.57,-142.86 1565.11,-135.88"/>
</a>
</g>
</g>
<!-- Node14 -->
<g id="Node000014" class="node">
<title>Node14</title>
<g id="a_Node000014"><a xlink:href="Camera_8cpp.html" target="_top" xlink:title=" ">
<polygon fill="white" stroke="#666666" points="1795.82,-90.5 1634.82,-90.5 1634.82,-71.5 1795.82,-71.5 1795.82,-90.5"/>
<text text-anchor="middle" x="1715.32" y="-78.5" font-family="Helvetica,sans-Serif" font-size="10.00">src/graphics/core/Camera.cpp</text>
</a>
</g>
</g>
<!-- Node9&#45;&gt;Node14 -->
<g id="edge16_Node000009_Node000014" class="edge">
<title>Node9&#45;&gt;Node14</title>
<g id="a_edge16_Node000009_Node000014"><a xlink:title=" ">
<path fill="none" stroke="#63b8ff" d="M1512.13,-134.86C1560.65,-122.24 1638.69,-101.94 1682.59,-90.51"/>
<polygon fill="#63b8ff" stroke="#63b8ff" points="1511.04,-131.53 1502.24,-137.44 1512.8,-138.3 1511.04,-131.53"/>
</a>
</g>
</g>
<!-- Node15 -->
<g id="Node000015" class="node">
<title>Node15</title>
<g id="a_Node000015"><a xlink:href="SceneSerializer_8cpp.html" target="_top" xlink:title=" ">
<polygon fill="white" stroke="#666666" points="392.82,-90.5 195.82,-90.5 195.82,-71.5 392.82,-71.5 392.82,-90.5"/>
<text text-anchor="middle" x="294.32" y="-78.5" font-family="Helvetica,sans-Serif" font-size="10.00">src/graphics/core/SceneSerializer.cpp</text>
</a>
</g>
</g>
<!-- Node9&#45;&gt;Node15 -->
<g id="edge20_Node000009_Node000015" class="edge">
<title>Node9&#45;&gt;Node15</title>
<g id="a_edge20_Node000009_Node000015"><a xlink:title=" ">
<path fill="none" stroke="#63b8ff" d="M1372.97,-144.13C1185.66,-139.92 759.44,-127.46 402.32,-96 386.31,-94.59 369.03,-92.57 353.08,-90.51"/>
<polygon fill="#63b8ff" stroke="#63b8ff" points="1372.99,-147.63 1383.06,-144.36 1373.14,-140.64 1372.99,-147.63"/>
</a>
</g>
</g>
<!-- Node16 -->
<g id="Node000016" class="node">
<title>Node16</title>
<g id="a_Node000016"><a xlink:href="HierarchyWidget_8h.html" target="_top" xlink:title=" ">
<polygon fill="white" stroke="#666666" points="1616.82,-90.5 1479.82,-90.5 1479.82,-71.5 1616.82,-71.5 1616.82,-90.5"/>
<text text-anchor="middle" x="1548.32" y="-78.5" font-family="Helvetica,sans-Serif" font-size="10.00">src/ui/HierarchyWidget.h</text>
</a>
</g>
</g>
<!-- Node9&#45;&gt;Node16 -->
<g id="edge21_Node000009_Node000016" class="edge">
<title>Node9&#45;&gt;Node16</title>
<g id="a_edge21_Node000009_Node000016"><a xlink:title=" ">
<path fill="none" stroke="#63b8ff" d="M1487.85,-130.99C1503.32,-118.46 1524.82,-101.04 1537.58,-90.7"/>
<polygon fill="#63b8ff" stroke="#63b8ff" points="1485.54,-128.35 1479.97,-137.37 1489.95,-133.79 1485.54,-128.35"/>
</a>
</g>
</g>
<!-- Node19 -->
<g id="Node000019" class="node">
<title>Node19</title>
<g id="a_Node000019"><a xlink:href="ForcesInspectorWidget_8cpp.html" target="_top" xlink:title=" ">
<polygon fill="white" stroke="#666666" points="1984.32,-96 1814.32,-96 1814.32,-66 1984.32,-66 1984.32,-96"/>
<text text-anchor="start" x="1822.32" y="-84" font-family="Helvetica,sans-Serif" font-size="10.00">src/ui/inspector/ForcesInspector</text>
<text text-anchor="middle" x="1899.32" y="-73" font-family="Helvetica,sans-Serif" font-size="10.00">Widget.cpp</text>
</a>
</g>
</g>
<!-- Node9&#45;&gt;Node19 -->
<g id="edge24_Node000009_Node000019" class="edge">
<title>Node9&#45;&gt;Node19</title>
<g id="a_edge24_Node000009_Node000019"><a xlink:title=" ">
<path fill="none" stroke="#63b8ff" d="M1536.82,-135.96C1604.67,-125.86 1712.24,-109.86 1805.32,-96 1808.26,-95.56 1811.25,-95.12 1814.27,-94.67"/>
<polygon fill="#63b8ff" stroke="#63b8ff" points="1536.07,-132.53 1526.69,-137.46 1537.1,-139.45 1536.07,-132.53"/>
</a>
</g>
</g>
<!-- Node9&#45;&gt;Node20 -->
<g id="edge25_Node000009_Node000020" class="edge">
<title>Node9&#45;&gt;Node20</title>
<g id="a_edge25_Node000009_Node000020"><a xlink:title=" ">
<path fill="none" stroke="#63b8ff" d="M1402.07,-136.11C1391.13,-134.64 1379.92,-133.21 1369.32,-132 1189.78,-111.47 1143.32,-120.83 964.32,-96 961.6,-95.62 958.83,-95.21 956.03,-94.78"/>
<polygon fill="#63b8ff" stroke="#63b8ff" points="1401.63,-139.58 1412.01,-137.47 1402.57,-132.65 1401.63,-139.58"/>
</a>
</g>
</g>
<!-- Node9&#45;&gt;Node21 -->
<g id="edge26_Node000009_Node000021" class="edge">
<title>Node9&#45;&gt;Node21</title>
<g id="a_edge26_Node000009_Node000021"><a xlink:title=" ">
<path fill="none" stroke="#63b8ff" d="M1398.49,-136.07C1329.28,-126.26 1220.98,-110.65 1127.32,-96 1122.65,-95.27 1117.83,-94.5 1112.97,-93.72"/>
<polygon fill="#63b8ff" stroke="#63b8ff" points="1398.02,-139.53 1408.41,-137.47 1399,-132.6 1398.02,-139.53"/>
</a>
</g>
</g>
<!-- Node22 -->
<g id="Node000022" class="node">
<title>Node22</title>
<g id="a_Node000022"><a xlink:href="PhysicsInspectorWidget_8cpp.html" target="_top" xlink:title=" ">
<polygon fill="white" stroke="#666666" points="1300.82,-96 1169.82,-96 1169.82,-66 1300.82,-66 1300.82,-96"/>
<text text-anchor="start" x="1177.82" y="-84" font-family="Helvetica,sans-Serif" font-size="10.00">src/ui/inspector/Physics</text>
<text text-anchor="middle" x="1235.32" y="-73" font-family="Helvetica,sans-Serif" font-size="10.00">InspectorWidget.cpp</text>
</a>
</g>
</g>
<!-- Node9&#45;&gt;Node22 -->
<g id="edge27_Node000009_Node000022" class="edge">
<title>Node9&#45;&gt;Node22</title>
<g id="a_edge27_Node000009_Node000022"><a xlink:title=" ">
<path fill="none" stroke="#63b8ff" d="M1427.97,-134.69C1388.64,-123.93 1329.34,-107.72 1286.93,-96.12"/>
<polygon fill="#63b8ff" stroke="#63b8ff" points="1427.19,-138.11 1437.76,-137.37 1429.04,-131.35 1427.19,-138.11"/>
</a>
</g>
</g>
<!-- Node23 -->
<g id="Node000023" class="node">
<title>Node23</title>
<g id="a_Node000023"><a xlink:href="TransformInspectorWidget_8cpp.html" target="_top" xlink:title=" ">
<polygon fill="white" stroke="#666666" points="1461.82,-96 1318.82,-96 1318.82,-66 1461.82,-66 1461.82,-96"/>
<text text-anchor="start" x="1326.82" y="-84" font-family="Helvetica,sans-Serif" font-size="10.00">src/ui/inspector/Transform</text>
<text text-anchor="middle" x="1390.32" y="-73" font-family="Helvetica,sans-Serif" font-size="10.00">InspectorWidget.cpp</text>
</a>
</g>
</g>
<!-- Node9&#45;&gt;Node23 -->
<g id="edge28_Node000009_Node000023" class="edge">
<title>Node9&#45;&gt;Node23</title>
<g id="a_edge28_Node000009_Node000023"><a xlink:title=" ">
<path fill="none" stroke="#63b8ff" d="M1450.83,-131.02C1437.81,-120.48 1420.51,-106.46 1407.74,-96.12"/>
<polygon fill="#63b8ff" stroke="#63b8ff" points="1448.69,-133.79 1458.67,-137.37 1453.1,-128.35 1448.69,-133.79"/>
</a>
</g>
</g>
<!-- Node11&#45;&gt;Node3 -->
<g id="edge13_Node000011_Node000003" class="edge">
<title>Node11&#45;&gt;Node3</title>
<g id="a_edge13_Node000011_Node000003"><a xlink:title=" ">
<path fill="none" stroke="#63b8ff" d="M2279.32,-55.54C2279.32,-46.96 2279.32,-37.61 2279.32,-30.16"/>
<polygon fill="#63b8ff" stroke="#63b8ff" points="2275.82,-55.8 2279.32,-65.8 2282.82,-55.8 2275.82,-55.8"/>
</a>
</g>
</g>
<!-- Node12 -->
<g id="Node000012" class="node">
<title>Node12</title>
<g id="a_Node000012"><a xlink:href="ScaleHandle_8cpp.html" target="_top" xlink:title=" ">
<polygon fill="white" stroke="#666666" points="1165.32,-30 1027.32,-30 1027.32,0 1165.32,0 1165.32,-30"/>
<text text-anchor="start" x="1035.32" y="-18" font-family="Helvetica,sans-Serif" font-size="10.00">src/graphics/components</text>
<text text-anchor="middle" x="1096.32" y="-7" font-family="Helvetica,sans-Serif" font-size="10.00">/ScaleHandle.cpp</text>
</a>
</g>
</g>
<!-- Node11&#45;&gt;Node12 -->
<g id="edge14_Node000011_Node000012" class="edge">
<title>Node11&#45;&gt;Node12</title>
<g id="a_edge14_Node000011_Node000012"><a xlink:title=" ">
<path fill="none" stroke="#63b8ff" d="M2200.05,-66.06C2061.95,-53.11 1385.58,-26.93 1165.56,-18.6"/>
<polygon fill="#63b8ff" stroke="#63b8ff" points="2199.76,-69.55 2210.07,-67.08 2200.47,-62.58 2199.76,-69.55"/>
</a>
</g>
</g>
<!-- Node17 -->
<g id="Node000017" class="node">
<title>Node17</title>
<g id="a_Node000017"><a xlink:href="HierarchyWidget_8cpp.html" target="_top" xlink:title=" ">
<polygon fill="white" stroke="#666666" points="1622.32,-24.5 1474.32,-24.5 1474.32,-5.5 1622.32,-5.5 1622.32,-24.5"/>
<text text-anchor="middle" x="1548.32" y="-12.5" font-family="Helvetica,sans-Serif" font-size="10.00">src/ui/HierarchyWidget.cpp</text>
</a>
</g>
</g>
<!-- Node16&#45;&gt;Node17 -->
<g id="edge22_Node000016_Node000017" class="edge">
<title>Node16&#45;&gt;Node17</title>
<g id="a_edge22_Node000016_Node000017"><a xlink:title=" ">
<path fill="none" stroke="#63b8ff" d="M1548.32,-61.08C1548.32,-49.13 1548.32,-34.22 1548.32,-24.91"/>
<polygon fill="#63b8ff" stroke="#63b8ff" points="1544.82,-61.37 1548.32,-71.37 1551.82,-61.37 1544.82,-61.37"/>
</a>
</g>
</g>
<!-- Node18 -->
<g id="Node000018" class="node">
<title>Node18</title>
<g id="a_Node000018"><a xlink:href="MainWindow_8cpp.html" target="_top" xlink:title=" ">
<polygon fill="white" stroke="#666666" points="426.32,-24.5 298.32,-24.5 298.32,-5.5 426.32,-5.5 426.32,-24.5"/>
<text text-anchor="middle" x="362.32" y="-12.5" font-family="Helvetica,sans-Serif" font-size="10.00">src/ui/MainWindow.cpp</text>
</a>
</g>
</g>
<!-- Node16&#45;&gt;Node18 -->
<g id="edge23_Node000016_Node000018" class="edge">
<title>Node16&#45;&gt;Node18</title>
<g id="a_edge23_Node000016_Node000018"><a xlink:title=" ">
<path fill="none" stroke="#63b8ff" d="M1496.66,-69.74C1487.9,-68.28 1478.87,-66.96 1470.32,-66 1075.39,-21.84 597.14,-16.39 426.56,-15.93"/>
<polygon fill="#63b8ff" stroke="#63b8ff" points="1496.32,-73.23 1506.78,-71.49 1497.52,-66.33 1496.32,-73.23"/>
</a>
</g>
</g>
<!-- Node24&#45;&gt;Node7 -->
<g id="edge30_Node000024_Node000007" class="edge">
<title>Node24&#45;&gt;Node7</title>
<g id="a_edge30_Node000024_Node000007"><a xlink:title=" ">
<path fill="none" stroke="#63b8ff" d="M435.36,-131.68C453.82,-119.11 480.08,-101.23 495.54,-90.7"/>
<polygon fill="#63b8ff" stroke="#63b8ff" points="433.29,-128.85 427,-137.37 437.23,-134.63 433.29,-128.85"/>
</a>
</g>
</g>
<!-- Node24&#45;&gt;Node15 -->
<g id="edge31_Node000024_Node000015" class="edge">
<title>Node24&#45;&gt;Node15</title>
<g id="a_edge31_Node000024_Node000015"><a xlink:title=" ">
<path fill="none" stroke="#63b8ff" d="M389.06,-132.53C365.42,-119.92 330.82,-101.47 310.63,-90.7"/>
<polygon fill="#63b8ff" stroke="#63b8ff" points="387.67,-135.75 398.14,-137.37 390.96,-129.57 387.67,-135.75"/>
</a>
</g>
</g>
<!-- Node25&#45;&gt;Node18 -->
<g id="edge34_Node000025_Node000018" class="edge">
<title>Node25&#45;&gt;Node18</title>
<g id="a_edge34_Node000025_Node000018"><a xlink:title=" ">
<path fill="none" stroke="#63b8ff" d="M118.03,-131.02C97.79,-114.28 72,-86.78 89.32,-66 115.39,-34.72 226.01,-22.95 298.19,-18.56"/>
<polygon fill="#63b8ff" stroke="#63b8ff" points="115.94,-133.83 125.96,-137.29 120.28,-128.34 115.94,-133.83"/>
</a>
</g>
</g>
<!-- Node26 -->
<g id="Node000026" class="node">
<title>Node26</title>
<g id="a_Node000026"><a xlink:href="main_8cpp.html" target="_top" xlink:title=" ">
<polygon fill="white" stroke="#666666" points="177.82,-90.5 98.82,-90.5 98.82,-71.5 177.82,-71.5 177.82,-90.5"/>
<text text-anchor="middle" x="138.32" y="-78.5" font-family="Helvetica,sans-Serif" font-size="10.00">src/main.cpp</text>
</a>
</g>
</g>
<!-- Node25&#45;&gt;Node26 -->
<g id="edge33_Node000025_Node000026" class="edge">
<title>Node25&#45;&gt;Node26</title>
<g id="a_edge33_Node000025_Node000026"><a xlink:title=" ">
<path fill="none" stroke="#63b8ff" d="M138.32,-127.08C138.32,-115.13 138.32,-100.22 138.32,-90.91"/>
<polygon fill="#63b8ff" stroke="#63b8ff" points="134.82,-127.37 138.32,-137.37 141.82,-127.37 134.82,-127.37"/>
</a>
</g>
</g>
<!-- Node29&#45;&gt;Node9 -->
<g id="edge52_Node000029_Node000009" class="edge">
<title>Node29&#45;&gt;Node9</title>
<g id="a_edge52_Node000029_Node000009"><a xlink:title=" ">
<path fill="none" stroke="#63b8ff" d="M1715.66,-457.84C1705.91,-433.04 1690.32,-386.97 1690.32,-346 1690.32,-346 1690.32,-346 1690.32,-278 1690.32,-202.33 1592.86,-169.83 1527.39,-156.54"/>
<polygon fill="#63b8ff" stroke="#63b8ff" points="1712.53,-459.42 1719.53,-467.37 1719.01,-456.78 1712.53,-459.42"/>
</a>
</g>
</g>
<!-- Node30 -->
<g id="Node000030" class="node">
<title>Node30</title>
<g id="a_Node000030"><a xlink:href="IHandle_8h.html" target="_top" xlink:title="Interface for interactive manipulation handles on gizmos.">
<polygon fill="white" stroke="#666666" points="2348.32,-426 2210.32,-426 2210.32,-396 2348.32,-396 2348.32,-426"/>
<text text-anchor="start" x="2218.32" y="-414" font-family="Helvetica,sans-Serif" font-size="10.00">src/graphics/components</text>
<text text-anchor="middle" x="2279.32" y="-403" font-family="Helvetica,sans-Serif" font-size="10.00">/IHandle.h</text>
</a>
</g>
</g>
<!-- Node29&#45;&gt;Node30 -->
<g id="edge43_Node000029_Node000030" class="edge">
<title>Node29&#45;&gt;Node30</title>
<g id="a_edge43_Node000029_Node000030"><a xlink:title=" ">
<path fill="none" stroke="#63b8ff" d="M1807.5,-466.31C1917.48,-453.65 2108.03,-431.72 2210.08,-419.97"/>
<polygon fill="#63b8ff" stroke="#63b8ff" points="1806.97,-462.85 1797.44,-467.47 1807.77,-469.8 1806.97,-462.85"/>
</a>
</g>
</g>
<!-- Node30&#45;&gt;Node2 -->
<g id="edge44_Node000030_Node000002" class="edge">
<title>Node30&#45;&gt;Node2</title>
<g id="a_edge44_Node000030_Node000002"><a xlink:title=" ">
<path fill="none" stroke="#63b8ff" d="M2199.78,-396.46C2132.44,-385 2036.89,-368.74 1972.64,-357.8"/>
<polygon fill="#63b8ff" stroke="#63b8ff" points="2199.47,-399.96 2209.92,-398.19 2200.65,-393.06 2199.47,-399.96"/>
</a>
</g>
</g>
<!-- Node30&#45;&gt;Node11 -->
<g id="edge48_Node000030_Node000011" class="edge">
<title>Node30&#45;&gt;Node11</title>
<g id="a_edge48_Node000030_Node000011"><a xlink:title=" ">
<path fill="none" stroke="#63b8ff" d="M2279.32,-385.86C2279.32,-359.76 2279.32,-316.93 2279.32,-280 2279.32,-280 2279.32,-280 2279.32,-212 2279.32,-169.8 2279.32,-119.88 2279.32,-96.04"/>
<polygon fill="#63b8ff" stroke="#63b8ff" points="2275.82,-385.96 2279.32,-395.96 2282.82,-385.96 2275.82,-385.96"/>
</a>
</g>
</g>
<!-- Node31 -->
<g id="Node000031" class="node">
<title>Node31</title>
<g id="a_Node000031"><a xlink:href="RotateHandle_8h.html" target="_top" xlink:title=" ">
<polygon fill="white" stroke="#666666" points="2639.32,-162 2501.32,-162 2501.32,-132 2639.32,-132 2639.32,-162"/>
<text text-anchor="start" x="2509.32" y="-150" font-family="Helvetica,sans-Serif" font-size="10.00">src/graphics/components</text>
<text text-anchor="middle" x="2570.32" y="-139" font-family="Helvetica,sans-Serif" font-size="10.00">/RotateHandle.h</text>
</a>
</g>
</g>
<!-- Node30&#45;&gt;Node31 -->
<g id="edge45_Node000030_Node000031" class="edge">
<title>Node30&#45;&gt;Node31</title>
<g id="a_edge45_Node000030_Node000031"><a xlink:title=" ">
<path fill="none" stroke="#63b8ff" d="M2327.23,-392.16C2372.77,-373.31 2441,-339.94 2487.32,-294 2527.69,-253.96 2554.72,-190.21 2565.3,-162.1"/>
<polygon fill="#63b8ff" stroke="#63b8ff" points="2325.82,-388.96 2317.87,-395.96 2328.45,-395.44 2325.82,-388.96"/>
</a>
</g>
</g>
<!-- Node32 -->
<g id="Node000032" class="node">
<title>Node32</title>
<g id="a_Node000032"><a xlink:href="TranslateHandle_8h.html" target="_top" xlink:title=" ">
<polygon fill="white" stroke="#666666" points="2795.32,-162 2657.32,-162 2657.32,-132 2795.32,-132 2795.32,-162"/>
<text text-anchor="start" x="2665.32" y="-150" font-family="Helvetica,sans-Serif" font-size="10.00">src/graphics/components</text>
<text text-anchor="middle" x="2726.32" y="-139" font-family="Helvetica,sans-Serif" font-size="10.00">/TranslateHandle.h</text>
</a>
</g>
</g>
<!-- Node30&#45;&gt;Node32 -->
<g id="edge49_Node000030_Node000032" class="edge">
<title>Node30&#45;&gt;Node32</title>
<g id="a_edge49_Node000030_Node000032"><a xlink:title=" ">
<path fill="none" stroke="#63b8ff" d="M2346.92,-393.03C2374.49,-384.84 2406.2,-373.78 2433.32,-360 2548.91,-301.26 2668.67,-199.34 2710.66,-162.13"/>
<polygon fill="#63b8ff" stroke="#63b8ff" points="2345.6,-389.77 2336.97,-395.91 2347.55,-396.49 2345.6,-389.77"/>
</a>
</g>
</g>
<!-- Node31&#45;&gt;Node3 -->
<g id="edge46_Node000031_Node000003" class="edge">
<title>Node31&#45;&gt;Node3</title>
<g id="a_edge46_Node000031_Node000003"><a xlink:title=" ">
<path fill="none" stroke="#63b8ff" d="M2569.51,-121.77C2567.56,-103.78 2561.93,-80.03 2546.32,-66 2517.78,-40.34 2417.62,-27.1 2348.43,-20.86"/>
<polygon fill="#63b8ff" stroke="#63b8ff" points="2566.02,-122.13 2570.29,-131.83 2573,-121.59 2566.02,-122.13"/>
</a>
</g>
</g>
<!-- Node31&#45;&gt;Node10 -->
<g id="edge47_Node000031_Node000010" class="edge">
<title>Node31&#45;&gt;Node10</title>
<g id="a_edge47_Node000031_Node000010"><a xlink:title=" ">
<path fill="none" stroke="#63b8ff" d="M2531.61,-127.65C2510.38,-117.58 2484.47,-105.3 2464.88,-96.01"/>
<polygon fill="#63b8ff" stroke="#63b8ff" points="2530.16,-130.83 2540.69,-131.95 2533.16,-124.51 2530.16,-130.83"/>
</a>
</g>
</g>
<!-- Node32&#45;&gt;Node3 -->
<g id="edge50_Node000032_Node000003" class="edge">
<title>Node32&#45;&gt;Node3</title>
<g id="a_edge50_Node000032_Node000003"><a xlink:title=" ">
<path fill="none" stroke="#63b8ff" d="M2741.72,-122.65C2751.21,-105.06 2759.17,-81.41 2745.32,-66 2719.32,-37.06 2472.09,-23.46 2348.68,-18.42"/>
<polygon fill="#63b8ff" stroke="#63b8ff" points="2738.44,-121.31 2736.41,-131.71 2744.49,-124.85 2738.44,-121.31"/>
</a>
</g>
</g>
<!-- Node32&#45;&gt;Node13 -->
<g id="edge51_Node000032_Node000013" class="edge">
<title>Node32&#45;&gt;Node13</title>
<g id="a_edge51_Node000032_Node000013"><a xlink:title=" ">
<path fill="none" stroke="#63b8ff" d="M2706.38,-124.37C2697.8,-115.06 2688.01,-104.44 2680.38,-96.16"/>
<polygon fill="#63b8ff" stroke="#63b8ff" points="2703.87,-126.82 2713.23,-131.8 2709.02,-122.07 2703.87,-126.82"/>
</a>
</g>
</g>
<!-- Node33&#45;&gt;Node3 -->
<g id="edge54_Node000033_Node000003" class="edge">
<title>Node33&#45;&gt;Node3</title>
<g id="a_edge54_Node000033_Node000003"><a xlink:title=" ">
<path fill="none" stroke="#63b8ff" d="M777.35,-253.6C776.67,-235.31 772.41,-211.25 756.32,-198 697.41,-149.47 122.86,-217.37 70.32,-162 50.45,-141.06 72.85,-78.7 89.32,-66 92.01,-63.93 1838.48,-25.64 2210.25,-17.51"/>
<polygon fill="#63b8ff" stroke="#63b8ff" points="773.85,-253.84 777.39,-263.83 780.85,-253.81 773.85,-253.84"/>
</a>
</g>
</g>
<!-- Node33&#45;&gt;Node5 -->
<g id="edge58_Node000033_Node000005" class="edge">
<title>Node33&#45;&gt;Node5</title>
<g id="a_edge58_Node000033_Node000005"><a xlink:title=" ">
<path fill="none" stroke="#63b8ff" d="M860.04,-277.53C1011.7,-274.24 1340,-255.78 1597.32,-162 1620.96,-153.39 1621.49,-140.07 1645.32,-132 1806.43,-77.46 1857.54,-117.08 2026.32,-96 2038.87,-94.43 2052.37,-92.48 2064.99,-90.53"/>
<polygon fill="#63b8ff" stroke="#63b8ff" points="859.8,-274.04 849.87,-277.74 859.94,-281.04 859.8,-274.04"/>
</a>
</g>
</g>
<!-- Node33&#45;&gt;Node6 -->
<g id="edge60_Node000033_Node000006" class="edge">
<title>Node33&#45;&gt;Node6</title>
<g id="a_edge60_Node000033_Node000006"><a xlink:title=" ">
<path fill="none" stroke="#63b8ff" d="M811.4,-259.14C833.96,-247 862.19,-231.82 879.48,-222.52"/>
<polygon fill="#63b8ff" stroke="#63b8ff" points="809.58,-256.14 802.44,-263.95 812.9,-262.3 809.58,-256.14"/>
</a>
</g>
</g>
<!-- Node33&#45;&gt;Node7 -->
<g id="edge59_Node000033_Node000007" class="edge">
<title>Node33&#45;&gt;Node7</title>
<g id="a_edge59_Node000033_Node000007"><a xlink:title=" ">
<path fill="none" stroke="#63b8ff" d="M692.58,-272.95C654.23,-266.87 610.32,-254.17 578.32,-228 532.63,-190.63 514.79,-116.32 509.86,-90.83"/>
<polygon fill="#63b8ff" stroke="#63b8ff" points="692.31,-276.44 702.71,-274.42 693.32,-269.52 692.31,-276.44"/>
</a>
</g>
</g>
<!-- Node33&#45;&gt;Node8 -->
<g id="edge61_Node000033_Node000008" class="edge">
<title>Node33&#45;&gt;Node8</title>
<g id="a_edge61_Node000033_Node000008"><a xlink:title=" ">
<path fill="none" stroke="#63b8ff" d="M692.62,-265.5C649.87,-257.23 604.17,-244.79 591.32,-228 549.88,-173.87 654.32,-112.81 697.58,-90.63"/>
<polygon fill="#63b8ff" stroke="#63b8ff" points="692.07,-268.96 702.54,-267.36 693.36,-262.08 692.07,-268.96"/>
</a>
</g>
</g>
<!-- Node33&#45;&gt;Node10 -->
<g id="edge55_Node000033_Node000010" class="edge">
<title>Node33&#45;&gt;Node10</title>
<g id="a_edge55_Node000033_Node000010"><a xlink:title=" ">
<path fill="none" stroke="#63b8ff" d="M860.34,-278.01C986.12,-276.6 1230.33,-268.28 1433.32,-228 1525.96,-209.62 1549.23,-200.84 1635.32,-162 1659.29,-151.19 1661.14,-139.59 1686.32,-132 1829.3,-88.92 2208.99,-113.22 2357.32,-96 2360.19,-95.67 2363.11,-95.29 2366.06,-94.89"/>
<polygon fill="#63b8ff" stroke="#63b8ff" points="859.98,-274.52 850.01,-278.12 860.05,-281.52 859.98,-274.52"/>
</a>
</g>
</g>
<!-- Node33&#45;&gt;Node12 -->
<g id="edge56_Node000033_Node000012" class="edge">
<title>Node33&#45;&gt;Node12</title>
<g id="a_edge56_Node000033_Node000012"><a xlink:title=" ">
<path fill="none" stroke="#63b8ff" d="M692.34,-277.4C516.19,-274.25 116.94,-256.59 27.32,-162 -2.15,-130.89 -11.27,-97 18.32,-66 35.8,-47.7 792.1,-24.66 1027.28,-17.93"/>
<polygon fill="#63b8ff" stroke="#63b8ff" points="692.54,-280.9 702.6,-277.57 692.66,-273.91 692.54,-280.9"/>
</a>
</g>
</g>
<!-- Node33&#45;&gt;Node15 -->
<g id="edge62_Node000033_Node000015" class="edge">
<title>Node33&#45;&gt;Node15</title>
<g id="a_edge62_Node000033_Node000015"><a xlink:title=" ">
<path fill="none" stroke="#63b8ff" d="M692.5,-267.85C573.43,-251.7 363.96,-216.3 312.32,-162 293.48,-142.19 292.78,-107.1 293.6,-90.79"/>
<polygon fill="#63b8ff" stroke="#63b8ff" points="692.3,-271.35 702.68,-269.21 693.23,-264.42 692.3,-271.35"/>
</a>
</g>
</g>
<!-- Node33&#45;&gt;Node27 -->
<g id="edge63_Node000033_Node000027" class="edge">
<title>Node33&#45;&gt;Node27</title>
<g id="a_edge63_Node000033_Node000027"><a xlink:title=" ">
<path fill="none" stroke="#63b8ff" d="M860.4,-276.19C1067.79,-271.31 1592.36,-256.3 1666.32,-228 1707.02,-212.43 1744.02,-173.81 1759.12,-156.56"/>
<polygon fill="#63b8ff" stroke="#63b8ff" points="860.08,-272.69 850.17,-276.43 860.25,-279.69 860.08,-272.69"/>
</a>
</g>
</g>
<!-- Node34 -->
<g id="Node000034" class="node">
<title>Node34</title>
<g id="a_Node000034"><a xlink:href="ResourceManager_8cpp.html" target="_top" xlink:title=" ">
<polygon fill="white" stroke="#666666" points="747.82,-228 600.82,-228 600.82,-198 747.82,-198 747.82,-228"/>
<text text-anchor="start" x="608.82" y="-216" font-family="Helvetica,sans-Serif" font-size="10.00">src/graphics/core/Resource</text>
<text text-anchor="middle" x="674.32" y="-205" font-family="Helvetica,sans-Serif" font-size="10.00">Manager.cpp</text>
</a>
</g>
</g>
<!-- Node33&#45;&gt;Node34 -->
<g id="edge57_Node000033_Node000034" class="edge">
<title>Node33&#45;&gt;Node34</title>
<g id="a_edge57_Node000033_Node000034"><a xlink:title=" ">
<path fill="none" stroke="#63b8ff" d="M745.11,-258.42C729.46,-248.6 710.86,-236.93 696.65,-228.01"/>
<polygon fill="#63b8ff" stroke="#63b8ff" points="743.6,-261.6 753.94,-263.95 747.33,-255.68 743.6,-261.6"/>
</a>
</g>
</g>
</g>
</svg>

<g id="navigator" transform="translate(0 0)" fill="#404254">
  <rect fill="#f2f5e9" fill-opacity="0.5" stroke="#606060" stroke-width=".5" x="0" y="0" width="60" height="60"/>
  <use id="zoomplus" xlink:href="#zoomPlus" x="17" y="9" onmousedown="handleZoom(evt,'in')"/>
  <use id="zoomminus" xlink:href="#zoomMin" x="42" y="9" onmousedown="handleZoom(evt,'out')"/>
  <use id="reset" xlink:href="#resetDef" x="30" y="36" onmousedown="handleReset()"/>
   <use id="arrowup" xlink:href="#arrowUp" x="0" y="0" onmousedown="handlePan(0,-1)"/>
  <use id="arrowright" xlink:href="#arrowRight" x="0" y="0" onmousedown="handlePan(1,0)"/>
  <use id="arrowdown" xlink:href="#arrowDown" x="0" y="0" onmousedown="handlePan(0,1)"/>
  <use id="arrowleft" xlink:href="#arrowLeft" x="0" y="0" onmousedown="handlePan(-1,0)"/>
</g>
<svg viewBox="0 0 15 15" width="100%" height="30px" preserveAspectRatio="xMaxYMin meet">
 <g id="arrow_out" transform="scale(0.3 0.3)">
  <a xlink:href="Shader_8h__dep__incl_org.svg" target="_base">
   <rect id="button" ry="5" rx="5" y="6" x="6" height="38" width="38"
        fill="#f2f5e9" fill-opacity="0.5" stroke="#606060" stroke-width="1.0"/>
   <path id="arrow"
     d="M 11.500037,31.436501 C 11.940474,20.09759 22.043105,11.32322 32.158766,21.979434 L 37.068811,17.246167 C 37.068811,17.246167 37.088388,32 37.088388,32 L 22.160133,31.978069 C 22.160133,31.978069 26.997745,27.140456 26.997745,27.140456 C 18.528582,18.264221 13.291696,25.230495 11.500037,31.436501 z"
     style="fill:#404040;"/>
  </a>
 </g>
</svg>

<style type='text/css'>
<![CDATA[
[data-mouse-over-selected='false'] { opacity: 0.7; }
[data-mouse-over-selected='true']  { opacity: 1.0; }
]]>
</style>
<script type="application/ecmascript"><![CDATA[
document.addEventListener('DOMContentLoaded', (event) => {
  highlightEdges();
  highlightAdjacentNodes();
});
]]></script>
</svg>
