<?xml version="1.0" encoding="UTF-8" standalone="no"?>
<!DOCTYPE svg PUBLIC "-//W3C//DTD SVG 1.1//EN"
 "http://www.w3.org/Graphics/SVG/1.1/DTD/svg11.dtd">
<!-- Generated by graphviz version 2.43.0 (0)
 -->
<!-- Title: src/ui/SnapshotTableModel.cpp Pages: 1 -->
<svg width="884pt" height="137pt"
 viewBox="0.00 0.00 884.00 137.00" xmlns="http://www.w3.org/2000/svg" xmlns:xlink="http://www.w3.org/1999/xlink">
<g id="graph0" class="graph" transform="scale(1 1) rotate(0) translate(4 133)">
<title>src/ui/SnapshotTableModel.cpp</title>
<!-- Node1 -->
<g id="Node000001" class="node">
<title>Node1</title>
<g id="a_Node000001"><a xlink:title=" ">
<polygon fill="#999999" stroke="#666666" points="377.5,-129 210.5,-129 210.5,-110 377.5,-110 377.5,-129"/>
<text text-anchor="middle" x="294" y="-117" font-family="Helvetica,sans-Serif" font-size="10.00">src/ui/SnapshotTableModel.cpp</text>
</a>
</g>
</g>
<!-- Node2 -->
<g id="Node000002" class="node">
<title>Node2</title>
<g id="a_Node000002"><a xlink:href="SnapshotTableModel_8h.html" target="_top" xlink:title=" ">
<polygon fill="white" stroke="#666666" points="285,-74 159,-74 159,-55 285,-55 285,-74"/>
<text text-anchor="middle" x="222" y="-62" font-family="Helvetica,sans-Serif" font-size="10.00">SnapshotTableModel.h</text>
</a>
</g>
</g>
<!-- Node1&#45;&gt;Node2 -->
<g id="edge1_Node000001_Node000002" class="edge">
<title>Node1&#45;&gt;Node2</title>
<g id="a_edge1_Node000001_Node000002"><a xlink:title=" ">
<path fill="none" stroke="#63b8ff" d="M282.43,-109.98C271.58,-102 255.12,-89.88 242.12,-80.31"/>
<polygon fill="#63b8ff" stroke="#63b8ff" points="243.91,-77.28 233.78,-74.17 239.76,-82.92 243.91,-77.28"/>
</a>
</g>
</g>
<!-- Node6 -->
<g id="Node000006" class="node">
<title>Node6</title>
<g id="a_Node000006"><a xlink:href="PhysicsBody_8h.html" target="_top" xlink:title=" ">
<polygon fill="white" stroke="#666666" points="466.5,-74 341.5,-74 341.5,-55 466.5,-55 466.5,-74"/>
<text text-anchor="middle" x="404" y="-62" font-family="Helvetica,sans-Serif" font-size="10.00">physics/PhysicsBody.h</text>
</a>
</g>
</g>
<!-- Node1&#45;&gt;Node6 -->
<g id="edge5_Node000001_Node000006" class="edge">
<title>Node1&#45;&gt;Node6</title>
<g id="a_edge5_Node000001_Node000006"><a xlink:title=" ">
<path fill="none" stroke="#63b8ff" d="M311.67,-109.98C329.29,-101.5 356.58,-88.35 376.93,-78.54"/>
<polygon fill="#63b8ff" stroke="#63b8ff" points="378.52,-81.66 386.01,-74.17 375.48,-75.36 378.52,-81.66"/>
</a>
</g>
</g>
<!-- Node3 -->
<g id="Node000003" class="node">
<title>Node3</title>
<g id="a_Node000003"><a xlink:title=" ">
<polygon fill="#e0e0e0" stroke="#999999" points="120,-19 0,-19 0,0 120,0 120,-19"/>
<text text-anchor="middle" x="60" y="-7" font-family="Helvetica,sans-Serif" font-size="10.00">QAbstractTableModel</text>
</a>
</g>
</g>
<!-- Node2&#45;&gt;Node3 -->
<g id="edge2_Node000002_Node000003" class="edge">
<title>Node2&#45;&gt;Node3</title>
<g id="a_edge2_Node000002_Node000003"><a xlink:title=" ">
<path fill="none" stroke="#63b8ff" d="M195.97,-54.98C168.89,-46.13 126.29,-32.19 95.99,-22.28"/>
<polygon fill="#63b8ff" stroke="#63b8ff" points="96.82,-18.87 86.23,-19.08 94.65,-25.52 96.82,-18.87"/>
</a>
</g>
</g>
<!-- Node4 -->
<g id="Node000004" class="node">
<title>Node4</title>
<g id="a_Node000004"><a xlink:title=" ">
<polygon fill="#e0e0e0" stroke="#999999" points="185.5,-19 138.5,-19 138.5,0 185.5,0 185.5,-19"/>
<text text-anchor="middle" x="162" y="-7" font-family="Helvetica,sans-Serif" font-size="10.00">vector</text>
</a>
</g>
</g>
<!-- Node2&#45;&gt;Node4 -->
<g id="edge3_Node000002_Node000004" class="edge">
<title>Node2&#45;&gt;Node4</title>
<g id="a_edge3_Node000002_Node000004"><a xlink:title=" ">
<path fill="none" stroke="#63b8ff" d="M212.36,-54.98C203.49,-47.15 190.13,-35.34 179.39,-25.86"/>
<polygon fill="#63b8ff" stroke="#63b8ff" points="181.63,-23.17 171.82,-19.17 176.99,-28.41 181.63,-23.17"/>
</a>
</g>
</g>
<!-- Node5 -->
<g id="Node000005" class="node">
<title>Node5</title>
<g id="a_Node000005"><a xlink:title=" ">
<polygon fill="#e0e0e0" stroke="#999999" points="282,-19 204,-19 204,0 282,0 282,-19"/>
<text text-anchor="middle" x="243" y="-7" font-family="Helvetica,sans-Serif" font-size="10.00">glm/glm.hpp</text>
</a>
</g>
</g>
<!-- Node2&#45;&gt;Node5 -->
<g id="edge4_Node000002_Node000005" class="edge">
<title>Node2&#45;&gt;Node5</title>
<g id="a_edge4_Node000002_Node000005"><a xlink:title=" ">
<path fill="none" stroke="#63b8ff" d="M225.47,-54.75C228.28,-47.65 232.34,-37.4 235.85,-28.56"/>
<polygon fill="#63b8ff" stroke="#63b8ff" points="239.17,-29.68 239.6,-19.09 232.66,-27.1 239.17,-29.68"/>
</a>
</g>
</g>
<!-- Node6&#45;&gt;Node4 -->
<g id="edge10_Node000006_Node000004" class="edge">
<title>Node6&#45;&gt;Node4</title>
<g id="a_edge10_Node000006_Node000004"><a xlink:title=" ">
<path fill="none" stroke="#63b8ff" d="M361.45,-54.99C321.2,-46.82 258.88,-33.85 195.53,-19.04"/>
<polygon fill="#63b8ff" stroke="#63b8ff" points="196.3,-15.63 185.76,-16.75 194.7,-22.44 196.3,-15.63"/>
</a>
</g>
</g>
<!-- Node6&#45;&gt;Node5 -->
<g id="edge9_Node000006_Node000005" class="edge">
<title>Node6&#45;&gt;Node5</title>
<g id="a_edge9_Node000006_Node000005"><a xlink:title=" ">
<path fill="none" stroke="#63b8ff" d="M378.13,-54.98C351.22,-46.13 308.88,-32.19 278.77,-22.28"/>
<polygon fill="#63b8ff" stroke="#63b8ff" points="279.66,-18.88 269.07,-19.08 277.47,-25.53 279.66,-18.88"/>
</a>
</g>
</g>
<!-- Node7 -->
<g id="Node000007" class="node">
<title>Node7</title>
<g id="a_Node000007"><a xlink:title=" ">
<polygon fill="#e0e0e0" stroke="#999999" points="814,-19 764,-19 764,0 814,0 814,-19"/>
<text text-anchor="middle" x="789" y="-7" font-family="Helvetica,sans-Serif" font-size="10.00">atomic</text>
</a>
</g>
</g>
<!-- Node6&#45;&gt;Node7 -->
<g id="edge6_Node000006_Node000007" class="edge">
<title>Node6&#45;&gt;Node7</title>
<g id="a_edge6_Node000006_Node000007"><a xlink:title=" ">
<path fill="none" stroke="#63b8ff" d="M466.8,-57.81C535.17,-51.11 647.86,-38.57 753.91,-19"/>
<polygon fill="#63b8ff" stroke="#63b8ff" points="754.64,-22.43 763.82,-17.15 753.35,-15.55 754.64,-22.43"/>
</a>
</g>
</g>
<!-- Node8 -->
<g id="Node000008" class="node">
<title>Node8</title>
<g id="a_Node000008"><a xlink:title=" ">
<polygon fill="#e0e0e0" stroke="#999999" points="876,-19 832,-19 832,0 876,0 876,-19"/>
<text text-anchor="middle" x="854" y="-7" font-family="Helvetica,sans-Serif" font-size="10.00">string</text>
</a>
</g>
</g>
<!-- Node6&#45;&gt;Node8 -->
<g id="edge7_Node000006_Node000008" class="edge">
<title>Node6&#45;&gt;Node8</title>
<g id="a_edge7_Node000006_Node000008"><a xlink:title=" ">
<path fill="none" stroke="#63b8ff" d="M466.58,-60.02C546.87,-54.86 690.52,-43.25 821.91,-18.91"/>
<polygon fill="#63b8ff" stroke="#63b8ff" points="822.57,-22.35 831.75,-17.06 821.28,-15.47 822.57,-22.35"/>
</a>
</g>
</g>
<!-- Node9 -->
<g id="Node000009" class="node">
<title>Node9</title>
<g id="a_Node000009"><a xlink:title=" ">
<polygon fill="#e0e0e0" stroke="#999999" points="345.5,-19 300.5,-19 300.5,0 345.5,0 345.5,-19"/>
<text text-anchor="middle" x="323" y="-7" font-family="Helvetica,sans-Serif" font-size="10.00">utility</text>
</a>
</g>
</g>
<!-- Node6&#45;&gt;Node9 -->
<g id="edge8_Node000006_Node000009" class="edge">
<title>Node6&#45;&gt;Node9</title>
<g id="a_edge8_Node000006_Node000009"><a xlink:title=" ">
<path fill="none" stroke="#63b8ff" d="M390.99,-54.98C378.54,-46.84 359.54,-34.41 344.79,-24.76"/>
<polygon fill="#63b8ff" stroke="#63b8ff" points="346.54,-21.72 336.25,-19.17 342.7,-27.57 346.54,-21.72"/>
</a>
</g>
</g>
<!-- Node10 -->
<g id="Node000010" class="node">
<title>Node10</title>
<g id="a_Node000010"><a xlink:title=" ">
<polygon fill="#e0e0e0" stroke="#999999" points="402,-19 364,-19 364,0 402,0 402,-19"/>
<text text-anchor="middle" x="383" y="-7" font-family="Helvetica,sans-Serif" font-size="10.00">map</text>
</a>
</g>
</g>
<!-- Node6&#45;&gt;Node10 -->
<g id="edge11_Node000006_Node000010" class="edge">
<title>Node6&#45;&gt;Node10</title>
<g id="a_edge11_Node000006_Node000010"><a xlink:title=" ">
<path fill="none" stroke="#63b8ff" d="M400.53,-54.75C397.72,-47.65 393.66,-37.4 390.15,-28.56"/>
<polygon fill="#63b8ff" stroke="#63b8ff" points="393.34,-27.1 386.4,-19.09 386.83,-29.68 393.34,-27.1"/>
</a>
</g>
</g>
<!-- Node11 -->
<g id="Node000011" class="node">
<title>Node11</title>
<g id="a_Node000011"><a xlink:title=" ">
<polygon fill="#e0e0e0" stroke="#999999" points="468,-19 420,-19 420,0 468,0 468,-19"/>
<text text-anchor="middle" x="444" y="-7" font-family="Helvetica,sans-Serif" font-size="10.00">mutex</text>
</a>
</g>
</g>
<!-- Node6&#45;&gt;Node11 -->
<g id="edge12_Node000006_Node000011" class="edge">
<title>Node6&#45;&gt;Node11</title>
<g id="a_edge12_Node000006_Node000011"><a xlink:title=" ">
<path fill="none" stroke="#63b8ff" d="M410.61,-54.75C416.26,-47.26 424.54,-36.28 431.45,-27.13"/>
<polygon fill="#63b8ff" stroke="#63b8ff" points="434.29,-29.18 437.52,-19.09 428.7,-24.96 434.29,-29.18"/>
</a>
</g>
</g>
<!-- Node12 -->
<g id="Node000012" class="node">
<title>Node12</title>
<g id="a_Node000012"><a xlink:title=" ">
<polygon fill="#e0e0e0" stroke="#999999" points="572,-19 486,-19 486,0 572,0 572,-19"/>
<text text-anchor="middle" x="529" y="-7" font-family="Helvetica,sans-Serif" font-size="10.00">unordered_set</text>
</a>
</g>
</g>
<!-- Node6&#45;&gt;Node12 -->
<g id="edge13_Node000006_Node000012" class="edge">
<title>Node6&#45;&gt;Node12</title>
<g id="a_edge13_Node000006_Node000012"><a xlink:title=" ">
<path fill="none" stroke="#63b8ff" d="M424.08,-54.98C444.37,-46.38 475.96,-32.99 499.17,-23.15"/>
<polygon fill="#63b8ff" stroke="#63b8ff" points="500.71,-26.3 508.55,-19.17 497.98,-19.85 500.71,-26.3"/>
</a>
</g>
</g>
<!-- Node13 -->
<g id="Node000013" class="node">
<title>Node13</title>
<g id="a_Node000013"><a xlink:href="ThermalProperties_8h.html" target="_top" xlink:title=" ">
<polygon fill="white" stroke="#666666" points="745.5,-19 590.5,-19 590.5,0 745.5,0 745.5,-19"/>
<text text-anchor="middle" x="668" y="-7" font-family="Helvetica,sans-Serif" font-size="10.00">physics/ThermalProperties.h</text>
</a>
</g>
</g>
<!-- Node6&#45;&gt;Node13 -->
<g id="edge14_Node000006_Node000013" class="edge">
<title>Node6&#45;&gt;Node13</title>
<g id="a_edge14_Node000006_Node000013"><a xlink:title=" ">
<path fill="none" stroke="#63b8ff" d="M446.42,-54.98C492.37,-45.76 565.75,-31.03 615.35,-21.07"/>
<polygon fill="#63b8ff" stroke="#63b8ff" points="616.14,-24.48 625.25,-19.08 614.76,-17.62 616.14,-24.48"/>
</a>
</g>
</g>
</g>
</svg>
