<?xml version="1.0" encoding="UTF-8" standalone="no"?>
<!DOCTYPE svg PUBLIC "-//W3C//DTD SVG 1.1//EN"
 "http://www.w3.org/Graphics/SVG/1.1/DTD/svg11.dtd">
<!-- Generated by graphviz version 2.43.0 (0)
 -->
<!-- Title: BVHNode Pages: 1 -->
<svg width="373pt" height="171pt"
 viewBox="0.00 0.00 372.50 171.00" xmlns="http://www.w3.org/2000/svg" xmlns:xlink="http://www.w3.org/1999/xlink">
<g id="graph0" class="graph" transform="scale(1 1) rotate(0) translate(4 167)">
<title>BVHNode</title>
<!-- Node1 -->
<g id="Node000001" class="node">
<title>Node1</title>
<g id="a_Node000001"><a xlink:title=" ">
<polygon fill="#999999" stroke="#666666" points="222.5,-19 159.5,-19 159.5,0 222.5,0 222.5,-19"/>
<text text-anchor="middle" x="191" y="-7" font-family="Helvetica,sans-Serif" font-size="10.00">BVHNode</text>
</a>
</g>
</g>
<!-- Node2 -->
<g id="Node000002" class="node">
<title>Node2</title>
<g id="a_Node000002"><a xlink:href="classPhysics_1_1Bounding_1_1AABB.html" target="_top" xlink:title=" ">
<polygon fill="white" stroke="#666666" points="138,-96 0,-96 0,-77 138,-77 138,-96"/>
<text text-anchor="middle" x="69" y="-84" font-family="Helvetica,sans-Serif" font-size="10.00">Physics::Bounding::AABB</text>
</a>
</g>
</g>
<!-- Node2&#45;&gt;Node1 -->
<g id="edge1_Node000001_Node000002" class="edge">
<title>Node2&#45;&gt;Node1</title>
<g id="a_edge1_Node000001_Node000002"><a xlink:title=" ">
<path fill="none" stroke="#9a32cd" stroke-dasharray="5,2" d="M91.84,-71.46C116.92,-56.04 156.4,-31.77 177.17,-19"/>
<polygon fill="#9a32cd" stroke="#9a32cd" points="89.68,-68.68 82.99,-76.9 93.35,-74.64 89.68,-68.68"/>
</a>
</g>
<text text-anchor="middle" x="164.5" y="-45.5" font-family="Helvetica,sans-Serif" font-size="10.00" fill="grey"> bounds</text>
</g>
<!-- Node3 -->
<g id="Node000003" class="node">
<title>Node3</title>
<g id="a_Node000003"><a xlink:href="classPhysics_1_1Bounding_1_1ICollider.html" target="_top" xlink:title="Abstract base class for collision volumes in the physics engine.">
<polygon fill="white" stroke="#666666" points="124.5,-163 13.5,-163 13.5,-133 124.5,-133 124.5,-163"/>
<text text-anchor="start" x="21.5" y="-151" font-family="Helvetica,sans-Serif" font-size="10.00">Physics::Bounding::</text>
<text text-anchor="middle" x="69" y="-140" font-family="Helvetica,sans-Serif" font-size="10.00">ICollider</text>
</a>
</g>
</g>
<!-- Node3&#45;&gt;Node2 -->
<g id="edge2_Node000002_Node000003" class="edge">
<title>Node3&#45;&gt;Node2</title>
<g id="a_edge2_Node000002_Node000003"><a xlink:title=" ">
<path fill="none" stroke="#63b8ff" d="M69,-122.79C69,-113.36 69,-103.15 69,-96.16"/>
<polygon fill="#63b8ff" stroke="#63b8ff" points="65.5,-122.9 69,-132.9 72.5,-122.9 65.5,-122.9"/>
</a>
</g>
</g>
<!-- Node4 -->
<g id="Node000004" class="node">
<title>Node4</title>
<g id="a_Node000004"><a xlink:href="structNodeIndex.html" target="_top" xlink:title=" ">
<polygon fill="white" stroke="#666666" points="225.5,-96 156.5,-96 156.5,-77 225.5,-77 225.5,-96"/>
<text text-anchor="middle" x="191" y="-84" font-family="Helvetica,sans-Serif" font-size="10.00">NodeIndex</text>
</a>
</g>
</g>
<!-- Node4&#45;&gt;Node1 -->
<g id="edge3_Node000001_Node000004" class="edge">
<title>Node4&#45;&gt;Node1</title>
<g id="a_edge3_Node000001_Node000004"><a xlink:title=" ">
<path fill="none" stroke="#9a32cd" stroke-dasharray="5,2" d="M191,-66.52C191,-51.24 191,-30.48 191,-19"/>
<polygon fill="#9a32cd" stroke="#9a32cd" points="187.5,-66.9 191,-76.9 194.5,-66.9 187.5,-66.9"/>
</a>
</g>
<text text-anchor="middle" x="202.5" y="-51" font-family="Helvetica,sans-Serif" font-size="10.00" fill="grey"> left</text>
<text text-anchor="middle" x="202.5" y="-40" font-family="Helvetica,sans-Serif" font-size="10.00" fill="grey">right</text>
</g>
<!-- Node5 -->
<g id="Node000005" class="node">
<title>Node5</title>
<g id="a_Node000005"><a xlink:href="classPhysics_1_1PhysicsBody.html" target="_top" xlink:title=" ">
<polygon fill="white" stroke="#666666" points="364.5,-96 243.5,-96 243.5,-77 364.5,-77 364.5,-96"/>
<text text-anchor="middle" x="304" y="-84" font-family="Helvetica,sans-Serif" font-size="10.00">Physics::PhysicsBody</text>
</a>
</g>
</g>
<!-- Node5&#45;&gt;Node1 -->
<g id="edge4_Node000001_Node000005" class="edge">
<title>Node5&#45;&gt;Node1</title>
<g id="a_edge4_Node000001_Node000005"><a xlink:title=" ">
<path fill="none" stroke="#9a32cd" stroke-dasharray="5,2" d="M282.54,-71.26C259.29,-55.83 222.96,-31.72 203.81,-19"/>
<polygon fill="#9a32cd" stroke="#9a32cd" points="280.77,-74.28 291.04,-76.9 284.64,-68.45 280.77,-74.28"/>
</a>
</g>
<text text-anchor="middle" x="274" y="-45.5" font-family="Helvetica,sans-Serif" font-size="10.00" fill="grey"> body</text>
</g>
</g>
</svg>
