<?xml version="1.0" encoding="UTF-8" standalone="no"?>
<!DOCTYPE svg PUBLIC "-//W3C//DTD SVG 1.1//EN"
 "http://www.w3.org/Graphics/SVG/1.1/DTD/svg11.dtd">
<!-- Generated by graphviz version 2.43.0 (0)
 -->
<!-- Title: BatchKey Pages: 1 -->
<svg width="120pt" height="93pt"
 viewBox="0.00 0.00 119.50 93.00" xmlns="http://www.w3.org/2000/svg" xmlns:xlink="http://www.w3.org/1999/xlink">
<g id="graph0" class="graph" transform="scale(1 1) rotate(0) translate(4 89)">
<title>BatchKey</title>
<!-- Node1 -->
<g id="Node000001" class="node">
<title>Node1</title>
<g id="a_Node000001"><a xlink:title=" ">
<polygon fill="#999999" stroke="#666666" points="84.5,-19 22.5,-19 22.5,0 84.5,0 84.5,-19"/>
<text text-anchor="middle" x="53.5" y="-7" font-family="Helvetica,sans-Serif" font-size="10.00">BatchKey</text>
</a>
</g>
</g>
<!-- Node2 -->
<g id="Node000002" class="node">
<title>Node2</title>
<g id="a_Node000002"><a xlink:href="classMesh.html" target="_top" xlink:title=" ">
<polygon fill="white" stroke="#666666" points="43,-85 0,-85 0,-66 43,-66 43,-85"/>
<text text-anchor="middle" x="21.5" y="-73" font-family="Helvetica,sans-Serif" font-size="10.00">Mesh</text>
</a>
</g>
</g>
<!-- Node2&#45;&gt;Node1 -->
<g id="edge1_Node000001_Node000002" class="edge">
<title>Node2&#45;&gt;Node1</title>
<g id="a_edge1_Node000001_Node000002"><a xlink:title=" ">
<path fill="none" stroke="#9a32cd" stroke-dasharray="5,2" d="M26.15,-55.74C28.03,-49.59 30.47,-42.84 33.5,-37 36.79,-30.65 41.58,-24.24 45.65,-19.31"/>
<polygon fill="#9a32cd" stroke="#9a32cd" points="22.65,-55.27 23.39,-65.84 29.4,-57.11 22.65,-55.27"/>
</a>
</g>
<text text-anchor="middle" x="49" y="-40" font-family="Helvetica,sans-Serif" font-size="10.00" fill="grey"> mesh</text>
</g>
<!-- Node3 -->
<g id="Node000003" class="node">
<title>Node3</title>
<g id="a_Node000003"><a xlink:href="classShader.html" target="_top" xlink:title=" ">
<polygon fill="white" stroke="#666666" points="111.5,-85 61.5,-85 61.5,-66 111.5,-66 111.5,-85"/>
<text text-anchor="middle" x="86.5" y="-73" font-family="Helvetica,sans-Serif" font-size="10.00">Shader</text>
</a>
</g>
</g>
<!-- Node3&#45;&gt;Node1 -->
<g id="edge2_Node000001_Node000003" class="edge">
<title>Node3&#45;&gt;Node1</title>
<g id="a_edge2_Node000001_Node000003"><a xlink:title=" ">
<path fill="none" stroke="#9a32cd" stroke-dasharray="5,2" d="M77.31,-56.68C71.06,-44.55 63.04,-29.01 58.09,-19.41"/>
<polygon fill="#9a32cd" stroke="#9a32cd" points="74.36,-58.58 82.05,-65.87 80.58,-55.38 74.36,-58.58"/>
</a>
</g>
<text text-anchor="middle" x="90" y="-40" font-family="Helvetica,sans-Serif" font-size="10.00" fill="grey"> shader</text>
</g>
</g>
</svg>
