<?xml version="1.0" encoding="UTF-8" standalone="no"?>
<!DOCTYPE svg PUBLIC "-//W3C//DTD SVG 1.1//EN"
 "http://www.w3.org/Graphics/SVG/1.1/DTD/svg11.dtd">
<!-- Generated by graphviz version 2.43.0 (0)
 -->
<!-- Title: src/ui/inspector/ThermalInspectorWidget.h Pages: 1 -->
<svg width="588pt" height="148pt"
 viewBox="0.00 0.00 587.50 148.00" xmlns="http://www.w3.org/2000/svg" xmlns:xlink="http://www.w3.org/1999/xlink">
<g id="graph0" class="graph" transform="scale(1 1) rotate(0) translate(4 144)">
<title>src/ui/inspector/ThermalInspectorWidget.h</title>
<!-- Node1 -->
<g id="Node000001" class="node">
<title>Node1</title>
<g id="a_Node000001"><a xlink:title=" ">
<polygon fill="#999999" stroke="#666666" points="196.5,-140 62.5,-140 62.5,-110 196.5,-110 196.5,-140"/>
<text text-anchor="start" x="70.5" y="-128" font-family="Helvetica,sans-Serif" font-size="10.00">src/ui/inspector/Thermal</text>
<text text-anchor="middle" x="129.5" y="-117" font-family="Helvetica,sans-Serif" font-size="10.00">InspectorWidget.h</text>
</a>
</g>
</g>
<!-- Node2 -->
<g id="Node000002" class="node">
<title>Node2</title>
<g id="a_Node000002"><a xlink:title=" ">
<polygon fill="#e0e0e0" stroke="#999999" points="65,-19 0,-19 0,0 65,0 65,-19"/>
<text text-anchor="middle" x="32.5" y="-7" font-family="Helvetica,sans-Serif" font-size="10.00">functional</text>
</a>
</g>
</g>
<!-- Node1&#45;&gt;Node2 -->
<g id="edge1_Node000001_Node000002" class="edge">
<title>Node1&#45;&gt;Node2</title>
<g id="a_edge1_Node000001_Node000002"><a xlink:title=" ">
<path fill="none" stroke="#63b8ff" d="M117.21,-109.63C99.21,-88.56 65.75,-49.4 46.71,-27.13"/>
<polygon fill="#63b8ff" stroke="#63b8ff" points="49.12,-24.56 39.96,-19.23 43.8,-29.11 49.12,-24.56"/>
</a>
</g>
</g>
<!-- Node3 -->
<g id="Node000003" class="node">
<title>Node3</title>
<g id="a_Node000003"><a xlink:title=" ">
<polygon fill="#e0e0e0" stroke="#999999" points="130,-19 83,-19 83,0 130,0 130,-19"/>
<text text-anchor="middle" x="106.5" y="-7" font-family="Helvetica,sans-Serif" font-size="10.00">vector</text>
</a>
</g>
</g>
<!-- Node1&#45;&gt;Node3 -->
<g id="edge2_Node000001_Node000003" class="edge">
<title>Node1&#45;&gt;Node3</title>
<g id="a_edge2_Node000001_Node000003"><a xlink:title=" ">
<path fill="none" stroke="#63b8ff" d="M121.34,-109.65C116.29,-99.92 110.25,-86.6 107.5,-74 104.29,-59.32 104.22,-42.27 104.85,-29.54"/>
<polygon fill="#63b8ff" stroke="#63b8ff" points="108.36,-29.47 105.56,-19.25 101.38,-28.99 108.36,-29.47"/>
</a>
</g>
</g>
<!-- Node4 -->
<g id="Node000004" class="node">
<title>Node4</title>
<g id="a_Node000004"><a xlink:href="IInspectorSection_8h.html" target="_top" xlink:title="Interface for inspector panel sections in the editor UI.">
<polygon fill="white" stroke="#666666" points="226.5,-74 116.5,-74 116.5,-55 226.5,-55 226.5,-74"/>
<text text-anchor="middle" x="171.5" y="-62" font-family="Helvetica,sans-Serif" font-size="10.00">IInspectorSection.h</text>
</a>
</g>
</g>
<!-- Node1&#45;&gt;Node4 -->
<g id="edge3_Node000001_Node000004" class="edge">
<title>Node1&#45;&gt;Node4</title>
<g id="a_edge3_Node000001_Node000004"><a xlink:title=" ">
<path fill="none" stroke="#63b8ff" d="M139.67,-109.84C145.58,-101.61 153.06,-91.18 159.29,-82.51"/>
<polygon fill="#63b8ff" stroke="#63b8ff" points="162.22,-84.43 165.21,-74.27 156.53,-80.35 162.22,-84.43"/>
</a>
</g>
</g>
<!-- Node6 -->
<g id="Node000006" class="node">
<title>Node6</title>
<g id="a_Node000006"><a xlink:href="InspectorRow_8h.html" target="_top" xlink:title=" ">
<polygon fill="white" stroke="#666666" points="336,-74 245,-74 245,-55 336,-55 336,-74"/>
<text text-anchor="middle" x="290.5" y="-62" font-family="Helvetica,sans-Serif" font-size="10.00">InspectorRow.h</text>
</a>
</g>
</g>
<!-- Node1&#45;&gt;Node6 -->
<g id="edge5_Node000001_Node000006" class="edge">
<title>Node1&#45;&gt;Node6</title>
<g id="a_edge5_Node000001_Node000006"><a xlink:title=" ">
<path fill="none" stroke="#63b8ff" d="M168.06,-109.99C195.29,-100.1 231.38,-86.98 257.32,-77.56"/>
<polygon fill="#63b8ff" stroke="#63b8ff" points="258.52,-80.84 266.72,-74.14 256.13,-74.26 258.52,-80.84"/>
</a>
</g>
</g>
<!-- Node5 -->
<g id="Node000005" class="node">
<title>Node5</title>
<g id="a_Node000005"><a xlink:title=" ">
<polygon fill="#e0e0e0" stroke="#999999" points="207,-19 148,-19 148,0 207,0 207,-19"/>
<text text-anchor="middle" x="177.5" y="-7" font-family="Helvetica,sans-Serif" font-size="10.00">QWidget</text>
</a>
</g>
</g>
<!-- Node4&#45;&gt;Node5 -->
<g id="edge4_Node000004_Node000005" class="edge">
<title>Node4&#45;&gt;Node5</title>
<g id="a_edge4_Node000004_Node000005"><a xlink:title=" ">
<path fill="none" stroke="#63b8ff" d="M172.49,-54.75C173.28,-47.8 174.4,-37.85 175.39,-29.13"/>
<polygon fill="#63b8ff" stroke="#63b8ff" points="178.88,-29.42 176.53,-19.09 171.92,-28.63 178.88,-29.42"/>
</a>
</g>
</g>
<!-- Node6&#45;&gt;Node2 -->
<g id="edge8_Node000006_Node000002" class="edge">
<title>Node6&#45;&gt;Node2</title>
<g id="a_edge8_Node000006_Node000002"><a xlink:title=" ">
<path fill="none" stroke="#63b8ff" d="M248.89,-55C207.34,-46.5 141.36,-32.98 75.34,-19.38"/>
<polygon fill="#63b8ff" stroke="#63b8ff" points="75.67,-15.87 65.17,-17.28 74.26,-22.73 75.67,-15.87"/>
</a>
</g>
</g>
<!-- Node6&#45;&gt;Node3 -->
<g id="edge7_Node000006_Node000003" class="edge">
<title>Node6&#45;&gt;Node3</title>
<g id="a_edge7_Node000006_Node000003"><a xlink:title=" ">
<path fill="none" stroke="#63b8ff" d="M260.94,-54.98C227.84,-45.45 174.32,-30.03 139.78,-20.09"/>
<polygon fill="#63b8ff" stroke="#63b8ff" points="140.72,-16.71 130.14,-17.31 138.78,-23.44 140.72,-16.71"/>
</a>
</g>
</g>
<!-- Node6&#45;&gt;Node5 -->
<g id="edge9_Node000006_Node000005" class="edge">
<title>Node6&#45;&gt;Node5</title>
<g id="a_edge9_Node000006_Node000005"><a xlink:title=" ">
<path fill="none" stroke="#63b8ff" d="M272.34,-54.98C254.25,-46.5 226.22,-33.35 205.31,-23.54"/>
<polygon fill="#63b8ff" stroke="#63b8ff" points="206.53,-20.25 195.99,-19.17 203.55,-26.59 206.53,-20.25"/>
</a>
</g>
</g>
<!-- Node7 -->
<g id="Node000007" class="node">
<title>Node7</title>
<g id="a_Node000007"><a xlink:title=" ">
<polygon fill="#e0e0e0" stroke="#999999" points="579.5,-19 493.5,-19 493.5,0 579.5,0 579.5,-19"/>
<text text-anchor="middle" x="536.5" y="-7" font-family="Helvetica,sans-Serif" font-size="10.00">qpushbutton.h</text>
</a>
</g>
</g>
<!-- Node6&#45;&gt;Node7 -->
<g id="edge6_Node000006_Node000007" class="edge">
<title>Node6&#45;&gt;Node7</title>
<g id="a_edge6_Node000006_Node000007"><a xlink:title=" ">
<path fill="none" stroke="#63b8ff" d="M330.02,-54.98C372.67,-45.8 440.65,-31.15 486.86,-21.19"/>
<polygon fill="#63b8ff" stroke="#63b8ff" points="487.63,-24.61 496.67,-19.08 486.15,-17.77 487.63,-24.61"/>
</a>
</g>
</g>
<!-- Node8 -->
<g id="Node000008" class="node">
<title>Node8</title>
<g id="a_Node000008"><a xlink:title=" ">
<polygon fill="#e0e0e0" stroke="#999999" points="278,-19 225,-19 225,0 278,0 278,-19"/>
<text text-anchor="middle" x="251.5" y="-7" font-family="Helvetica,sans-Serif" font-size="10.00">QString</text>
</a>
</g>
</g>
<!-- Node6&#45;&gt;Node8 -->
<g id="edge10_Node000006_Node000008" class="edge">
<title>Node6&#45;&gt;Node8</title>
<g id="a_edge10_Node000006_Node000008"><a xlink:title=" ">
<path fill="none" stroke="#63b8ff" d="M284.06,-54.75C278.61,-47.34 270.64,-36.5 263.94,-27.41"/>
<polygon fill="#63b8ff" stroke="#63b8ff" points="266.57,-25.07 257.82,-19.09 260.93,-29.22 266.57,-25.07"/>
</a>
</g>
</g>
<!-- Node9 -->
<g id="Node000009" class="node">
<title>Node9</title>
<g id="a_Node000009"><a xlink:title=" ">
<polygon fill="#e0e0e0" stroke="#999999" points="379,-19 296,-19 296,0 379,0 379,-19"/>
<text text-anchor="middle" x="337.5" y="-7" font-family="Helvetica,sans-Serif" font-size="10.00">QHBoxLayout</text>
</a>
</g>
</g>
<!-- Node6&#45;&gt;Node9 -->
<g id="edge11_Node000006_Node000009" class="edge">
<title>Node6&#45;&gt;Node9</title>
<g id="a_edge11_Node000006_Node000009"><a xlink:title=" ">
<path fill="none" stroke="#63b8ff" d="M298.26,-54.75C304.97,-47.18 314.84,-36.05 323.01,-26.84"/>
<polygon fill="#63b8ff" stroke="#63b8ff" points="325.87,-28.89 329.88,-19.09 320.63,-24.25 325.87,-28.89"/>
</a>
</g>
</g>
<!-- Node10 -->
<g id="Node000010" class="node">
<title>Node10</title>
<g id="a_Node000010"><a xlink:title=" ">
<polygon fill="#e0e0e0" stroke="#999999" points="475.5,-19 397.5,-19 397.5,0 475.5,0 475.5,-19"/>
<text text-anchor="middle" x="436.5" y="-7" font-family="Helvetica,sans-Serif" font-size="10.00">glm/glm.hpp</text>
</a>
</g>
</g>
<!-- Node6&#45;&gt;Node10 -->
<g id="edge12_Node000006_Node000010" class="edge">
<title>Node6&#45;&gt;Node10</title>
<g id="a_edge12_Node000006_Node000010"><a xlink:title=" ">
<path fill="none" stroke="#63b8ff" d="M313.96,-54.98C338.08,-46.23 375.87,-32.51 403.1,-22.62"/>
<polygon fill="#63b8ff" stroke="#63b8ff" points="404.41,-25.87 412.62,-19.17 402.02,-19.29 404.41,-25.87"/>
</a>
</g>
</g>
</g>
</svg>
