<?xml version="1.0" encoding="UTF-8" standalone="no"?>
<!DOCTYPE svg PUBLIC "-//W3C//DTD SVG 1.1//EN"
 "http://www.w3.org/Graphics/SVG/1.1/DTD/svg11.dtd">
<!-- Generated by graphviz version 2.43.0 (0)
 -->
<!-- Title: src/physics/utils/ThermalUtils.h Pages: 1 -->
<svg width="1096pt" height="104pt"
 viewBox="0.00 0.00 1095.50 104.00" xmlns="http://www.w3.org/2000/svg" xmlns:xlink="http://www.w3.org/1999/xlink">
<g id="graph0" class="graph" transform="scale(1 1) rotate(0) translate(4 100)">
<title>src/physics/utils/ThermalUtils.h</title>
<!-- Node1 -->
<g id="Node000001" class="node">
<title>Node1</title>
<g id="a_Node000001"><a xlink:title=" ">
<polygon fill="#999999" stroke="#666666" points="660,-96 522,-96 522,-66 660,-66 660,-96"/>
<text text-anchor="start" x="530" y="-84" font-family="Helvetica,sans-Serif" font-size="10.00">src/physics/utils/Thermal</text>
<text text-anchor="middle" x="591" y="-73" font-family="Helvetica,sans-Serif" font-size="10.00">Utils.h</text>
</a>
</g>
</g>
<!-- Node2 -->
<g id="Node000002" class="node">
<title>Node2</title>
<g id="a_Node000002"><a xlink:href="PhysicsBody_8cpp.html" target="_top" xlink:title=" ">
<polygon fill="white" stroke="#666666" points="154,-24.5 0,-24.5 0,-5.5 154,-5.5 154,-24.5"/>
<text text-anchor="middle" x="77" y="-12.5" font-family="Helvetica,sans-Serif" font-size="10.00">src/physics/PhysicsBody.cpp</text>
</a>
</g>
</g>
<!-- Node1&#45;&gt;Node2 -->
<g id="edge1_Node000001_Node000002" class="edge">
<title>Node1&#45;&gt;Node2</title>
<g id="a_edge1_Node000001_Node000002"><a xlink:title=" ">
<path fill="none" stroke="#63b8ff" d="M511.99,-71.85C426,-62.72 284.51,-46.98 163,-30 151.31,-28.37 138.77,-26.43 126.97,-24.52"/>
<polygon fill="#63b8ff" stroke="#63b8ff" points="511.63,-75.33 521.94,-72.9 512.36,-68.37 511.63,-75.33"/>
</a>
</g>
</g>
<!-- Node3 -->
<g id="Node000003" class="node">
<title>Node3</title>
<g id="a_Node000003"><a xlink:href="PhysicsSystem_8cpp.html" target="_top" xlink:title=" ">
<polygon fill="white" stroke="#666666" points="339.5,-24.5 172.5,-24.5 172.5,-5.5 339.5,-5.5 339.5,-24.5"/>
<text text-anchor="middle" x="256" y="-12.5" font-family="Helvetica,sans-Serif" font-size="10.00">src/physics/PhysicsSystem.cpp</text>
</a>
</g>
</g>
<!-- Node1&#45;&gt;Node3 -->
<g id="edge2_Node000001_Node000003" class="edge">
<title>Node1&#45;&gt;Node3</title>
<g id="a_edge2_Node000001_Node000003"><a xlink:title=" ">
<path fill="none" stroke="#63b8ff" d="M512.07,-64.92C446.23,-52.34 354.78,-34.87 300.85,-24.57"/>
<polygon fill="#63b8ff" stroke="#63b8ff" points="511.51,-68.38 521.99,-66.82 512.83,-61.5 511.51,-68.38"/>
</a>
</g>
</g>
<!-- Node4 -->
<g id="Node000004" class="node">
<title>Node4</title>
<g id="a_Node000004"><a xlink:href="PointMass_8cpp.html" target="_top" xlink:title=" ">
<polygon fill="white" stroke="#666666" points="502,-24.5 358,-24.5 358,-5.5 502,-5.5 502,-24.5"/>
<text text-anchor="middle" x="430" y="-12.5" font-family="Helvetica,sans-Serif" font-size="10.00">src/physics/PointMass.cpp</text>
</a>
</g>
</g>
<!-- Node1&#45;&gt;Node4 -->
<g id="edge3_Node000001_Node000004" class="edge">
<title>Node1&#45;&gt;Node4</title>
<g id="a_edge3_Node000001_Node000004"><a xlink:title=" ">
<path fill="none" stroke="#63b8ff" d="M546.37,-62.26C515.41,-49.95 475.55,-34.11 451.43,-24.52"/>
<polygon fill="#63b8ff" stroke="#63b8ff" points="545.08,-65.51 555.67,-65.95 547.67,-59.01 545.08,-65.51"/>
</a>
</g>
</g>
<!-- Node5 -->
<g id="Node000005" class="node">
<title>Node5</title>
<g id="a_Node000005"><a xlink:href="RigidBody_8cpp.html" target="_top" xlink:title=" ">
<polygon fill="white" stroke="#666666" points="662,-24.5 520,-24.5 520,-5.5 662,-5.5 662,-24.5"/>
<text text-anchor="middle" x="591" y="-12.5" font-family="Helvetica,sans-Serif" font-size="10.00">src/physics/RigidBody.cpp</text>
</a>
</g>
</g>
<!-- Node1&#45;&gt;Node5 -->
<g id="edge4_Node000001_Node000005" class="edge">
<title>Node1&#45;&gt;Node5</title>
<g id="a_edge4_Node000001_Node000005"><a xlink:title=" ">
<path fill="none" stroke="#63b8ff" d="M591,-55.6C591,-44.8 591,-32.78 591,-24.84"/>
<polygon fill="#63b8ff" stroke="#63b8ff" points="587.5,-55.8 591,-65.8 594.5,-55.8 587.5,-55.8"/>
</a>
</g>
</g>
<!-- Node6 -->
<g id="Node000006" class="node">
<title>Node6</title>
<g id="a_Node000006"><a xlink:href="Octree_8cpp.html" target="_top" xlink:title=" ">
<polygon fill="white" stroke="#666666" points="787.5,-30 680.5,-30 680.5,0 787.5,0 787.5,-30"/>
<text text-anchor="start" x="688.5" y="-18" font-family="Helvetica,sans-Serif" font-size="10.00">src/physics/spatial</text>
<text text-anchor="middle" x="734" y="-7" font-family="Helvetica,sans-Serif" font-size="10.00">/Octree.cpp</text>
</a>
</g>
</g>
<!-- Node1&#45;&gt;Node6 -->
<g id="edge5_Node000001_Node000006" class="edge">
<title>Node1&#45;&gt;Node6</title>
<g id="a_edge5_Node000001_Node000006"><a xlink:title=" ">
<path fill="none" stroke="#63b8ff" d="M631.7,-61.78C654.25,-51.69 681.84,-39.34 702.69,-30.01"/>
<polygon fill="#63b8ff" stroke="#63b8ff" points="630.08,-58.68 622.38,-65.95 632.94,-65.06 630.08,-58.68"/>
</a>
</g>
</g>
<!-- Node7 -->
<g id="Node000007" class="node">
<title>Node7</title>
<g id="a_Node000007"><a xlink:href="ThermalUtils_8cpp.html" target="_top" xlink:title=" ">
<polygon fill="white" stroke="#666666" points="944,-30 806,-30 806,0 944,0 944,-30"/>
<text text-anchor="start" x="814" y="-18" font-family="Helvetica,sans-Serif" font-size="10.00">src/physics/utils/Thermal</text>
<text text-anchor="middle" x="875" y="-7" font-family="Helvetica,sans-Serif" font-size="10.00">Utils.cpp</text>
</a>
</g>
</g>
<!-- Node1&#45;&gt;Node7 -->
<g id="edge6_Node000001_Node000007" class="edge">
<title>Node1&#45;&gt;Node7</title>
<g id="a_edge6_Node000001_Node000007"><a xlink:title=" ">
<path fill="none" stroke="#63b8ff" d="M663.27,-63.71C709.46,-53.31 768.74,-39.95 812.82,-30.01"/>
<polygon fill="#63b8ff" stroke="#63b8ff" points="662.31,-60.34 653.33,-65.95 663.85,-67.17 662.31,-60.34"/>
</a>
</g>
</g>
<!-- Node8 -->
<g id="Node000008" class="node">
<title>Node8</title>
<g id="a_Node000008"><a xlink:href="PhysicsTests_8cpp.html" target="_top" xlink:title=" ">
<polygon fill="white" stroke="#666666" points="1087.5,-24.5 962.5,-24.5 962.5,-5.5 1087.5,-5.5 1087.5,-24.5"/>
<text text-anchor="middle" x="1025" y="-12.5" font-family="Helvetica,sans-Serif" font-size="10.00">tests/PhysicsTests.cpp</text>
</a>
</g>
</g>
<!-- Node1&#45;&gt;Node8 -->
<g id="edge7_Node000001_Node000008" class="edge">
<title>Node1&#45;&gt;Node8</title>
<g id="a_edge7_Node000001_Node000008"><a xlink:title=" ">
<path fill="none" stroke="#63b8ff" d="M670.34,-70.31C743.8,-61.04 856.02,-46.11 953,-30 962.8,-28.37 973.31,-26.44 983.19,-24.53"/>
<polygon fill="#63b8ff" stroke="#63b8ff" points="669.72,-66.86 660.23,-71.58 670.59,-73.81 669.72,-66.86"/>
</a>
</g>
</g>
</g>
</svg>
