<?xml version="1.0" encoding="UTF-8" standalone="no"?>
<!DOCTYPE svg PUBLIC "-//W3C//DTD SVG 1.1//EN"
 "http://www.w3.org/Graphics/SVG/1.1/DTD/svg11.dtd">
<!-- Generated by graphviz version 2.43.0 (0)
 -->
<!-- Title: src/physics/solver/VectorRootSolver.h Pages: 1 -->
<svg width="2659pt" height="467pt"
 viewBox="0.00 0.00 2658.61 467.00" xmlns="http://www.w3.org/2000/svg" xmlns:xlink="http://www.w3.org/1999/xlink">
<g id="graph0" class="graph" transform="scale(1 1) rotate(0) translate(4 463)">
<title>src/physics/solver/VectorRootSolver.h</title>
<!-- Node1 -->
<g id="Node000001" class="node">
<title>Node1</title>
<g id="a_Node000001"><a xlink:title=" ">
<polygon fill="#999999" stroke="#666666" points="1488.11,-459 1376.11,-459 1376.11,-429 1488.11,-429 1488.11,-459"/>
<text text-anchor="start" x="1384.11" y="-447" font-family="Helvetica,sans-Serif" font-size="10.00">src/physics/solver</text>
<text text-anchor="middle" x="1432.11" y="-436" font-family="Helvetica,sans-Serif" font-size="10.00">/VectorRootSolver.h</text>
</a>
</g>
</g>
<!-- Node2 -->
<g id="Node000002" class="node">
<title>Node2</title>
<g id="a_Node000002"><a xlink:href="PhysicsSystem_8h.html" target="_top" xlink:title=" ">
<polygon fill="white" stroke="#666666" points="1370.11,-327 1214.11,-327 1214.11,-308 1370.11,-308 1370.11,-327"/>
<text text-anchor="middle" x="1292.11" y="-315" font-family="Helvetica,sans-Serif" font-size="10.00">src/physics/PhysicsSystem.h</text>
</a>
</g>
</g>
<!-- Node1&#45;&gt;Node2 -->
<g id="edge1_Node000001_Node000002" class="edge">
<title>Node1&#45;&gt;Node2</title>
<g id="a_edge1_Node000001_Node000002"><a xlink:title=" ">
<path fill="none" stroke="#63b8ff" d="M1406.24,-422.46C1395.26,-413.57 1382.41,-402.94 1371.11,-393 1345.06,-370.09 1315.64,-341.63 1301.16,-327.43"/>
<polygon fill="#63b8ff" stroke="#63b8ff" points="1404.23,-425.34 1414.22,-428.88 1408.62,-419.88 1404.23,-425.34"/>
</a>
</g>
</g>
<!-- Node31 -->
<g id="Node000031" class="node">
<title>Node31</title>
<g id="a_Node000031"><a xlink:href="ProblemRouter_8h.html" target="_top" xlink:title=" ">
<polygon fill="white" stroke="#666666" points="1484.11,-393 1380.11,-393 1380.11,-363 1484.11,-363 1484.11,-393"/>
<text text-anchor="start" x="1388.11" y="-381" font-family="Helvetica,sans-Serif" font-size="10.00">src/physics/solver</text>
<text text-anchor="middle" x="1432.11" y="-370" font-family="Helvetica,sans-Serif" font-size="10.00">/ProblemRouter.h</text>
</a>
</g>
</g>
<!-- Node1&#45;&gt;Node31 -->
<g id="edge47_Node000001_Node000031" class="edge">
<title>Node1&#45;&gt;Node31</title>
<g id="a_edge47_Node000001_Node000031"><a xlink:title=" ">
<path fill="none" stroke="#63b8ff" d="M1432.11,-418.54C1432.11,-409.96 1432.11,-400.61 1432.11,-393.16"/>
<polygon fill="#63b8ff" stroke="#63b8ff" points="1428.61,-418.8 1432.11,-428.8 1435.61,-418.8 1428.61,-418.8"/>
</a>
</g>
</g>
<!-- Node33 -->
<g id="Node000033" class="node">
<title>Node33</title>
<g id="a_Node000033"><a xlink:href="VectorRootSolver_8cpp.html" target="_top" xlink:title=" ">
<polygon fill="white" stroke="#666666" points="1625.61,-393 1502.61,-393 1502.61,-363 1625.61,-363 1625.61,-393"/>
<text text-anchor="start" x="1510.61" y="-381" font-family="Helvetica,sans-Serif" font-size="10.00">src/physics/solver</text>
<text text-anchor="middle" x="1564.11" y="-370" font-family="Helvetica,sans-Serif" font-size="10.00">/VectorRootSolver.cpp</text>
</a>
</g>
</g>
<!-- Node1&#45;&gt;Node33 -->
<g id="edge51_Node000001_Node000033" class="edge">
<title>Node1&#45;&gt;Node33</title>
<g id="a_edge51_Node000001_Node000033"><a xlink:title=" ">
<path fill="none" stroke="#63b8ff" d="M1470.23,-424.51C1490.94,-414.47 1516.13,-402.26 1535.21,-393.01"/>
<polygon fill="#63b8ff" stroke="#63b8ff" points="1468.54,-421.44 1461.07,-428.95 1471.6,-427.74 1468.54,-421.44"/>
</a>
</g>
</g>
<!-- Node3 -->
<g id="Node000003" class="node">
<title>Node3</title>
<g id="a_Node000003"><a xlink:href="SceneObject_8h.html" target="_top" xlink:title=" ">
<polygon fill="white" stroke="#666666" points="1272.11,-151 1100.11,-151 1100.11,-132 1272.11,-132 1272.11,-151"/>
<text text-anchor="middle" x="1186.11" y="-139" font-family="Helvetica,sans-Serif" font-size="10.00">src/graphics/core/SceneObject.h</text>
</a>
</g>
</g>
<!-- Node2&#45;&gt;Node3 -->
<g id="edge2_Node000002_Node000003" class="edge">
<title>Node2&#45;&gt;Node3</title>
<g id="a_edge2_Node000002_Node000003"><a xlink:title=" ">
<path fill="none" stroke="#63b8ff" d="M1281.44,-298.99C1259.06,-262.26 1207.91,-178.3 1191.37,-151.14"/>
<polygon fill="#63b8ff" stroke="#63b8ff" points="1278.51,-300.91 1286.7,-307.63 1284.49,-297.27 1278.51,-300.91"/>
</a>
</g>
</g>
<!-- Node19 -->
<g id="Node000019" class="node">
<title>Node19</title>
<g id="a_Node000019"><a xlink:href="InspectorWidget_8cpp.html" target="_top" xlink:title=" ">
<polygon fill="white" stroke="#666666" points="2650.61,-96 2511.61,-96 2511.61,-66 2650.61,-66 2650.61,-96"/>
<text text-anchor="start" x="2519.61" y="-84" font-family="Helvetica,sans-Serif" font-size="10.00">src/ui/inspector/Inspector</text>
<text text-anchor="middle" x="2581.11" y="-73" font-family="Helvetica,sans-Serif" font-size="10.00">Widget.cpp</text>
</a>
</g>
</g>
<!-- Node2&#45;&gt;Node19 -->
<g id="edge45_Node000002_Node000019" class="edge">
<title>Node2&#45;&gt;Node19</title>
<g id="a_edge45_Node000002_Node000019"><a xlink:title=" ">
<path fill="none" stroke="#63b8ff" d="M1348.53,-305.69C1378.79,-298.58 1416.12,-287.65 1447.11,-272 1466.63,-262.14 1465.96,-250.5 1486.11,-242 1906.43,-64.68 2051.67,-168.26 2502.11,-96 2505.13,-95.51 2508.22,-95.01 2511.34,-94.49"/>
<polygon fill="#63b8ff" stroke="#63b8ff" points="1347.54,-302.32 1338.56,-307.95 1349.09,-309.15 1347.54,-302.32"/>
</a>
</g>
</g>
<!-- Node22 -->
<g id="Node000022" class="node">
<title>Node22</title>
<g id="a_Node000022"><a xlink:href="PhysicsSystem_8cpp.html" target="_top" xlink:title=" ">
<polygon fill="white" stroke="#666666" points="490.61,-266.5 323.61,-266.5 323.61,-247.5 490.61,-247.5 490.61,-266.5"/>
<text text-anchor="middle" x="407.11" y="-254.5" font-family="Helvetica,sans-Serif" font-size="10.00">src/physics/PhysicsSystem.cpp</text>
</a>
</g>
</g>
<!-- Node2&#45;&gt;Node22 -->
<g id="edge22_Node000002_Node000022" class="edge">
<title>Node2&#45;&gt;Node22</title>
<g id="a_edge22_Node000002_Node000022"><a xlink:title=" ">
<path fill="none" stroke="#63b8ff" d="M1203.67,-314.28C1056.95,-309.98 754.09,-298.49 499.11,-272 485.61,-270.6 471.06,-268.61 457.61,-266.57"/>
<polygon fill="#63b8ff" stroke="#63b8ff" points="1203.87,-317.78 1213.96,-314.58 1204.07,-310.79 1203.87,-317.78"/>
</a>
</g>
</g>
<!-- Node23 -->
<g id="Node000023" class="node">
<title>Node23</title>
<g id="a_Node000023"><a xlink:href="ProblemRouter_8cpp.html" target="_top" xlink:title=" ">
<polygon fill="white" stroke="#666666" points="1607.11,-272 1495.11,-272 1495.11,-242 1607.11,-242 1607.11,-272"/>
<text text-anchor="start" x="1503.11" y="-260" font-family="Helvetica,sans-Serif" font-size="10.00">src/physics/solver</text>
<text text-anchor="middle" x="1551.11" y="-249" font-family="Helvetica,sans-Serif" font-size="10.00">/ProblemRouter.cpp</text>
</a>
</g>
</g>
<!-- Node2&#45;&gt;Node23 -->
<g id="edge23_Node000002_Node000023" class="edge">
<title>Node2&#45;&gt;Node23</title>
<g id="a_edge23_Node000002_Node000023"><a xlink:title=" ">
<path fill="none" stroke="#63b8ff" d="M1339.59,-305.77C1383.36,-295.89 1448.38,-281.2 1494.76,-270.73"/>
<polygon fill="#63b8ff" stroke="#63b8ff" points="1338.75,-302.38 1329.77,-307.99 1340.29,-309.2 1338.75,-302.38"/>
</a>
</g>
</g>
<!-- Node24 -->
<g id="Node000024" class="node">
<title>Node24</title>
<g id="a_Node000024"><a xlink:href="OpenGLWindow_8cpp.html" target="_top" xlink:title=" ">
<polygon fill="white" stroke="#666666" points="157.11,-151 15.11,-151 15.11,-132 157.11,-132 157.11,-151"/>
<text text-anchor="middle" x="86.11" y="-139" font-family="Helvetica,sans-Serif" font-size="10.00">src/ui/OpenGLWindow.cpp</text>
</a>
</g>
</g>
<!-- Node2&#45;&gt;Node24 -->
<g id="edge24_Node000002_Node000024" class="edge">
<title>Node2&#45;&gt;Node24</title>
<g id="a_edge24_Node000002_Node000024"><a xlink:title=" ">
<path fill="none" stroke="#63b8ff" d="M1203.79,-315.95C996.33,-314.09 482.75,-306.07 314.11,-272 230.99,-255.21 203.45,-256.19 135.11,-206 114.45,-190.83 98.18,-164.67 90.65,-151.14"/>
<polygon fill="#63b8ff" stroke="#63b8ff" points="1204,-319.45 1214.03,-316.04 1204.06,-312.45 1204,-319.45"/>
</a>
</g>
</g>
<!-- Node25 -->
<g id="Node000025" class="node">
<title>Node25</title>
<g id="a_Node000025"><a xlink:href="OpenGLWindow_8h.html" target="_top" xlink:title=" ">
<polygon fill="white" stroke="#666666" points="639.61,-266.5 508.61,-266.5 508.61,-247.5 639.61,-247.5 639.61,-266.5"/>
<text text-anchor="middle" x="574.11" y="-254.5" font-family="Helvetica,sans-Serif" font-size="10.00">src/ui/OpenGLWindow.h</text>
</a>
</g>
</g>
<!-- Node2&#45;&gt;Node25 -->
<g id="edge25_Node000002_Node000025" class="edge">
<title>Node2&#45;&gt;Node25</title>
<g id="a_edge25_Node000002_Node000025"><a xlink:title=" ">
<path fill="none" stroke="#63b8ff" d="M1203.64,-309.29C1057.59,-297.39 769.35,-273.91 639.84,-263.36"/>
<polygon fill="#63b8ff" stroke="#63b8ff" points="1203.65,-312.8 1213.9,-310.13 1204.22,-305.83 1203.65,-312.8"/>
</a>
</g>
</g>
<!-- Node30 -->
<g id="Node000030" class="node">
<title>Node30</title>
<g id="a_Node000030"><a xlink:href="PhysicsTests_8cpp.html" target="_top" xlink:title=" ">
<polygon fill="white" stroke="#666666" points="1438.61,-266.5 1313.61,-266.5 1313.61,-247.5 1438.61,-247.5 1438.61,-266.5"/>
<text text-anchor="middle" x="1376.11" y="-254.5" font-family="Helvetica,sans-Serif" font-size="10.00">tests/PhysicsTests.cpp</text>
</a>
</g>
</g>
<!-- Node2&#45;&gt;Node30 -->
<g id="edge46_Node000002_Node000030" class="edge">
<title>Node2&#45;&gt;Node30</title>
<g id="a_edge46_Node000002_Node000030"><a xlink:title=" ">
<path fill="none" stroke="#63b8ff" d="M1313.14,-301.85C1329.05,-290.77 1350.36,-275.93 1363.66,-266.67"/>
<polygon fill="#63b8ff" stroke="#63b8ff" points="1310.71,-299.28 1304.5,-307.87 1314.71,-305.03 1310.71,-299.28"/>
</a>
</g>
</g>
<!-- Node4 -->
<g id="Node000004" class="node">
<title>Node4</title>
<g id="a_Node000004"><a xlink:href="Gizmo_8cpp.html" target="_top" xlink:title=" ">
<polygon fill="white" stroke="#666666" points="1080.11,-30 942.11,-30 942.11,0 1080.11,0 1080.11,-30"/>
<text text-anchor="start" x="950.11" y="-18" font-family="Helvetica,sans-Serif" font-size="10.00">src/graphics/components</text>
<text text-anchor="middle" x="1011.11" y="-7" font-family="Helvetica,sans-Serif" font-size="10.00">/Gizmo.cpp</text>
</a>
</g>
</g>
<!-- Node3&#45;&gt;Node4 -->
<g id="edge3_Node000003_Node000004" class="edge">
<title>Node3&#45;&gt;Node4</title>
<g id="a_edge3_Node000003_Node000004"><a xlink:title=" ">
<path fill="none" stroke="#63b8ff" d="M1089.89,-129.88C1067.75,-123.22 1046.04,-112.67 1030.11,-96 1013.04,-78.15 1010.36,-47.89 1010.42,-30.15"/>
<polygon fill="#63b8ff" stroke="#63b8ff" points="1089.17,-133.31 1099.74,-132.58 1091.02,-126.56 1089.17,-133.31"/>
</a>
</g>
</g>
<!-- Node5 -->
<g id="Node000005" class="node">
<title>Node5</title>
<g id="a_Node000005"><a xlink:href="RotateHandle_8cpp.html" target="_top" xlink:title=" ">
<polygon fill="white" stroke="#666666" points="1177.11,-96 1039.11,-96 1039.11,-66 1177.11,-66 1177.11,-96"/>
<text text-anchor="start" x="1047.11" y="-84" font-family="Helvetica,sans-Serif" font-size="10.00">src/graphics/components</text>
<text text-anchor="middle" x="1108.11" y="-73" font-family="Helvetica,sans-Serif" font-size="10.00">/RotateHandle.cpp</text>
</a>
</g>
</g>
<!-- Node3&#45;&gt;Node5 -->
<g id="edge4_Node000003_Node000005" class="edge">
<title>Node3&#45;&gt;Node5</title>
<g id="a_edge4_Node000003_Node000005"><a xlink:title=" ">
<path fill="none" stroke="#63b8ff" d="M1166.46,-125.77C1154.34,-116.68 1138.89,-105.09 1126.93,-96.11"/>
<polygon fill="#63b8ff" stroke="#63b8ff" points="1164.5,-128.67 1174.6,-131.87 1168.7,-123.07 1164.5,-128.67"/>
</a>
</g>
</g>
<!-- Node6 -->
<g id="Node000006" class="node">
<title>Node6</title>
<g id="a_Node000006"><a xlink:href="ScaleHandle_8h.html" target="_top" xlink:title=" ">
<polygon fill="white" stroke="#666666" points="2323.11,-96 2185.11,-96 2185.11,-66 2323.11,-66 2323.11,-96"/>
<text text-anchor="start" x="2193.11" y="-84" font-family="Helvetica,sans-Serif" font-size="10.00">src/graphics/components</text>
<text text-anchor="middle" x="2254.11" y="-73" font-family="Helvetica,sans-Serif" font-size="10.00">/ScaleHandle.h</text>
</a>
</g>
</g>
<!-- Node3&#45;&gt;Node6 -->
<g id="edge5_Node000003_Node000006" class="edge">
<title>Node3&#45;&gt;Node6</title>
<g id="a_edge5_Node000003_Node000006"><a xlink:title=" ">
<path fill="none" stroke="#63b8ff" d="M1282.27,-132.25C1283.55,-132.16 1284.83,-132.08 1286.11,-132 1681.21,-107.23 1782.58,-139.07 2176.11,-96 2178.98,-95.69 2181.9,-95.33 2184.85,-94.94"/>
<polygon fill="#63b8ff" stroke="#63b8ff" points="1282.01,-128.76 1272.27,-132.93 1282.49,-135.74 1282.01,-128.76"/>
</a>
</g>
</g>
<!-- Node8 -->
<g id="Node000008" class="node">
<title>Node8</title>
<g id="a_Node000008"><a xlink:href="TranslateHandle_8cpp.html" target="_top" xlink:title=" ">
<polygon fill="white" stroke="#666666" points="1333.11,-96 1195.11,-96 1195.11,-66 1333.11,-66 1333.11,-96"/>
<text text-anchor="start" x="1203.11" y="-84" font-family="Helvetica,sans-Serif" font-size="10.00">src/graphics/components</text>
<text text-anchor="middle" x="1264.11" y="-73" font-family="Helvetica,sans-Serif" font-size="10.00">/TranslateHandle.cpp</text>
</a>
</g>
</g>
<!-- Node3&#45;&gt;Node8 -->
<g id="edge8_Node000003_Node000008" class="edge">
<title>Node3&#45;&gt;Node8</title>
<g id="a_edge8_Node000003_Node000008"><a xlink:title=" ">
<path fill="none" stroke="#63b8ff" d="M1205.75,-125.77C1217.87,-116.68 1233.33,-105.09 1245.29,-96.11"/>
<polygon fill="#63b8ff" stroke="#63b8ff" points="1203.52,-123.07 1197.62,-131.87 1207.72,-128.67 1203.52,-123.07"/>
</a>
</g>
</g>
<!-- Node9 -->
<g id="Node000009" class="node">
<title>Node9</title>
<g id="a_Node000009"><a xlink:href="Camera_8cpp.html" target="_top" xlink:title=" ">
<polygon fill="white" stroke="#666666" points="1512.61,-90.5 1351.61,-90.5 1351.61,-71.5 1512.61,-71.5 1512.61,-90.5"/>
<text text-anchor="middle" x="1432.11" y="-78.5" font-family="Helvetica,sans-Serif" font-size="10.00">src/graphics/core/Camera.cpp</text>
</a>
</g>
</g>
<!-- Node3&#45;&gt;Node9 -->
<g id="edge9_Node000003_Node000009" class="edge">
<title>Node3&#45;&gt;Node9</title>
<g id="a_edge9_Node000003_Node000009"><a xlink:title=" ">
<path fill="none" stroke="#63b8ff" d="M1231.9,-129.61C1279.45,-118.3 1352.82,-100.85 1396.29,-90.52"/>
<polygon fill="#63b8ff" stroke="#63b8ff" points="1230.8,-126.27 1221.88,-131.99 1232.41,-133.09 1230.8,-126.27"/>
</a>
</g>
</g>
<!-- Node10 -->
<g id="Node000010" class="node">
<title>Node10</title>
<g id="a_Node000010"><a xlink:href="Scene_8cpp.html" target="_top" xlink:title=" ">
<polygon fill="white" stroke="#666666" points="2493.11,-90.5 2341.11,-90.5 2341.11,-71.5 2493.11,-71.5 2493.11,-90.5"/>
<text text-anchor="middle" x="2417.11" y="-78.5" font-family="Helvetica,sans-Serif" font-size="10.00">src/graphics/core/Scene.cpp</text>
</a>
</g>
</g>
<!-- Node3&#45;&gt;Node10 -->
<g id="edge10_Node000003_Node000010" class="edge">
<title>Node3&#45;&gt;Node10</title>
<g id="a_edge10_Node000003_Node000010"><a xlink:title=" ">
<path fill="none" stroke="#63b8ff" d="M1282.27,-132.24C1283.55,-132.15 1284.83,-132.08 1286.11,-132 1750.44,-104.29 1869.21,-141.89 2332.11,-96 2345.05,-94.72 2359.02,-92.69 2371.81,-90.57"/>
<polygon fill="#63b8ff" stroke="#63b8ff" points="1282.02,-128.74 1272.27,-132.9 1282.48,-135.73 1282.02,-128.74"/>
</a>
</g>
</g>
<!-- Node11 -->
<g id="Node000011" class="node">
<title>Node11</title>
<g id="a_Node000011"><a xlink:href="SceneManager_8cpp.html" target="_top" xlink:title=" ">
<polygon fill="white" stroke="#666666" points="618.11,-90.5 424.11,-90.5 424.11,-71.5 618.11,-71.5 618.11,-90.5"/>
<text text-anchor="middle" x="521.11" y="-78.5" font-family="Helvetica,sans-Serif" font-size="10.00">src/graphics/core/SceneManager.cpp</text>
</a>
</g>
</g>
<!-- Node3&#45;&gt;Node11 -->
<g id="edge11_Node000003_Node000011" class="edge">
<title>Node3&#45;&gt;Node11</title>
<g id="a_edge11_Node000003_Node000011"><a xlink:title=" ">
<path fill="none" stroke="#63b8ff" d="M1089.57,-134.34C978.04,-126.87 789.06,-113.13 627.11,-96 612.25,-94.43 596.25,-92.46 581.3,-90.5"/>
<polygon fill="#63b8ff" stroke="#63b8ff" points="1089.58,-137.85 1099.79,-135.02 1090.05,-130.87 1089.58,-137.85"/>
</a>
</g>
</g>
<!-- Node12 -->
<g id="Node000012" class="node">
<title>Node12</title>
<g id="a_Node000012"><a xlink:href="SceneObject_8cpp.html" target="_top" xlink:title=" ">
<polygon fill="white" stroke="#666666" points="405.61,-90.5 222.61,-90.5 222.61,-71.5 405.61,-71.5 405.61,-90.5"/>
<text text-anchor="middle" x="314.11" y="-78.5" font-family="Helvetica,sans-Serif" font-size="10.00">src/graphics/core/SceneObject.cpp</text>
</a>
</g>
</g>
<!-- Node3&#45;&gt;Node12 -->
<g id="edge12_Node000003_Node000012" class="edge">
<title>Node3&#45;&gt;Node12</title>
<g id="a_edge12_Node000003_Node000012"><a xlink:title=" ">
<path fill="none" stroke="#63b8ff" d="M1089.8,-137.42C943.68,-132.19 657.32,-119.74 415.11,-96 400.31,-94.55 384.35,-92.54 369.58,-90.5"/>
<polygon fill="#63b8ff" stroke="#63b8ff" points="1089.96,-140.93 1100.08,-137.78 1090.21,-133.93 1089.96,-140.93"/>
</a>
</g>
</g>
<!-- Node13 -->
<g id="Node000013" class="node">
<title>Node13</title>
<g id="a_Node000013"><a xlink:href="SceneSerializer_8cpp.html" target="_top" xlink:title=" ">
<polygon fill="white" stroke="#666666" points="833.61,-90.5 636.61,-90.5 636.61,-71.5 833.61,-71.5 833.61,-90.5"/>
<text text-anchor="middle" x="735.11" y="-78.5" font-family="Helvetica,sans-Serif" font-size="10.00">src/graphics/core/SceneSerializer.cpp</text>
</a>
</g>
</g>
<!-- Node3&#45;&gt;Node13 -->
<g id="edge13_Node000003_Node000013" class="edge">
<title>Node3&#45;&gt;Node13</title>
<g id="a_edge13_Node000003_Node000013"><a xlink:title=" ">
<path fill="none" stroke="#63b8ff" d="M1110.14,-130.71C1040.43,-121.71 934.31,-108 842.11,-96 828.54,-94.24 814.02,-92.34 800.18,-90.53"/>
<polygon fill="#63b8ff" stroke="#63b8ff" points="1109.79,-134.19 1120.16,-132 1110.69,-127.25 1109.79,-134.19"/>
</a>
</g>
</g>
<!-- Node14 -->
<g id="Node000014" class="node">
<title>Node14</title>
<g id="a_Node000014"><a xlink:href="HierarchyWidget_8h.html" target="_top" xlink:title=" ">
<polygon fill="white" stroke="#666666" points="1667.61,-90.5 1530.61,-90.5 1530.61,-71.5 1667.61,-71.5 1667.61,-90.5"/>
<text text-anchor="middle" x="1599.11" y="-78.5" font-family="Helvetica,sans-Serif" font-size="10.00">src/ui/HierarchyWidget.h</text>
</a>
</g>
</g>
<!-- Node3&#45;&gt;Node14 -->
<g id="edge14_Node000003_Node000014" class="edge">
<title>Node3&#45;&gt;Node14</title>
<g id="a_edge14_Node000003_Node000014"><a xlink:title=" ">
<path fill="none" stroke="#63b8ff" d="M1268.26,-130.74C1336.39,-122.38 1435.71,-109.57 1522.11,-96 1532.58,-94.36 1543.81,-92.41 1554.38,-90.51"/>
<polygon fill="#63b8ff" stroke="#63b8ff" points="1267.52,-127.31 1258.02,-131.99 1268.37,-134.25 1267.52,-127.31"/>
</a>
</g>
</g>
<!-- Node17 -->
<g id="Node000017" class="node">
<title>Node17</title>
<g id="a_Node000017"><a xlink:href="ForcesInspectorWidget_8cpp.html" target="_top" xlink:title=" ">
<polygon fill="white" stroke="#666666" points="1856.11,-96 1686.11,-96 1686.11,-66 1856.11,-66 1856.11,-96"/>
<text text-anchor="start" x="1694.11" y="-84" font-family="Helvetica,sans-Serif" font-size="10.00">src/ui/inspector/ForcesInspector</text>
<text text-anchor="middle" x="1771.11" y="-73" font-family="Helvetica,sans-Serif" font-size="10.00">Widget.cpp</text>
</a>
</g>
</g>
<!-- Node3&#45;&gt;Node17 -->
<g id="edge17_Node000003_Node000017" class="edge">
<title>Node3&#45;&gt;Node17</title>
<g id="a_edge17_Node000003_Node000017"><a xlink:title=" ">
<path fill="none" stroke="#63b8ff" d="M1282.41,-132.07C1414.27,-120.49 1639.08,-100.55 1677.11,-96 1680.05,-95.65 1683.05,-95.27 1686.08,-94.89"/>
<polygon fill="#63b8ff" stroke="#63b8ff" points="1281.95,-128.6 1272.29,-132.96 1282.56,-135.57 1281.95,-128.6"/>
</a>
</g>
</g>
<!-- Node18 -->
<g id="Node000018" class="node">
<title>Node18</title>
<g id="a_Node000018"><a xlink:href="GlobalsInspectorWidget_8cpp.html" target="_top" xlink:title=" ">
<polygon fill="white" stroke="#666666" points="982.61,-96 851.61,-96 851.61,-66 982.61,-66 982.61,-96"/>
<text text-anchor="start" x="859.61" y="-84" font-family="Helvetica,sans-Serif" font-size="10.00">src/ui/inspector/Globals</text>
<text text-anchor="middle" x="917.11" y="-73" font-family="Helvetica,sans-Serif" font-size="10.00">InspectorWidget.cpp</text>
</a>
</g>
</g>
<!-- Node3&#45;&gt;Node18 -->
<g id="edge18_Node000003_Node000018" class="edge">
<title>Node3&#45;&gt;Node18</title>
<g id="a_edge18_Node000003_Node000018"><a xlink:title=" ">
<path fill="none" stroke="#63b8ff" d="M1137.18,-129.86C1093.54,-120.37 1029.33,-106.41 981.52,-96.01"/>
<polygon fill="#63b8ff" stroke="#63b8ff" points="1136.48,-133.29 1146.99,-131.99 1137.96,-126.45 1136.48,-133.29"/>
</a>
</g>
</g>
<!-- Node3&#45;&gt;Node19 -->
<g id="edge19_Node000003_Node000019" class="edge">
<title>Node3&#45;&gt;Node19</title>
<g id="a_edge19_Node000003_Node000019"><a xlink:title=" ">
<path fill="none" stroke="#63b8ff" d="M1282.26,-132.23C1283.55,-132.15 1284.83,-132.07 1286.11,-132 1825.9,-101.09 1964.26,-151.32 2502.11,-96 2505.15,-95.69 2508.26,-95.32 2511.4,-94.92"/>
<polygon fill="#63b8ff" stroke="#63b8ff" points="1282.02,-128.73 1272.27,-132.87 1282.47,-135.72 1282.02,-128.73"/>
</a>
</g>
</g>
<!-- Node20 -->
<g id="Node000020" class="node">
<title>Node20</title>
<g id="a_Node000020"><a xlink:href="PhysicsInspectorWidget_8cpp.html" target="_top" xlink:title=" ">
<polygon fill="white" stroke="#666666" points="2005.61,-96 1874.61,-96 1874.61,-66 2005.61,-66 2005.61,-96"/>
<text text-anchor="start" x="1882.61" y="-84" font-family="Helvetica,sans-Serif" font-size="10.00">src/ui/inspector/Physics</text>
<text text-anchor="middle" x="1940.11" y="-73" font-family="Helvetica,sans-Serif" font-size="10.00">InspectorWidget.cpp</text>
</a>
</g>
</g>
<!-- Node3&#45;&gt;Node20 -->
<g id="edge20_Node000003_Node000020" class="edge">
<title>Node3&#45;&gt;Node20</title>
<g id="a_edge20_Node000003_Node000020"><a xlink:title=" ">
<path fill="none" stroke="#63b8ff" d="M1282.27,-132.29C1283.56,-132.19 1284.84,-132.09 1286.11,-132 1543.24,-113.08 1609.23,-127.71 1865.11,-96 1868.13,-95.63 1871.21,-95.2 1874.33,-94.75"/>
<polygon fill="#63b8ff" stroke="#63b8ff" points="1281.98,-128.8 1272.28,-133.05 1282.52,-135.78 1281.98,-128.8"/>
</a>
</g>
</g>
<!-- Node21 -->
<g id="Node000021" class="node">
<title>Node21</title>
<g id="a_Node000021"><a xlink:href="TransformInspectorWidget_8cpp.html" target="_top" xlink:title=" ">
<polygon fill="white" stroke="#666666" points="2166.61,-96 2023.61,-96 2023.61,-66 2166.61,-66 2166.61,-96"/>
<text text-anchor="start" x="2031.61" y="-84" font-family="Helvetica,sans-Serif" font-size="10.00">src/ui/inspector/Transform</text>
<text text-anchor="middle" x="2095.11" y="-73" font-family="Helvetica,sans-Serif" font-size="10.00">InspectorWidget.cpp</text>
</a>
</g>
</g>
<!-- Node3&#45;&gt;Node21 -->
<g id="edge21_Node000003_Node000021" class="edge">
<title>Node3&#45;&gt;Node21</title>
<g id="a_edge21_Node000003_Node000021"><a xlink:title=" ">
<path fill="none" stroke="#63b8ff" d="M1282.27,-132.26C1283.55,-132.17 1284.83,-132.09 1286.11,-132 1609.77,-110.26 1692.72,-132.03 2015.11,-96 2017.77,-95.7 2020.48,-95.37 2023.21,-95.02"/>
<polygon fill="#63b8ff" stroke="#63b8ff" points="1282,-128.77 1272.28,-132.98 1282.5,-135.75 1282,-128.77"/>
</a>
</g>
</g>
<!-- Node6&#45;&gt;Node4 -->
<g id="edge6_Node000006_Node000004" class="edge">
<title>Node6&#45;&gt;Node4</title>
<g id="a_edge6_Node000006_Node000004"><a xlink:title=" ">
<path fill="none" stroke="#63b8ff" d="M2174.77,-65.98C1942.31,-41.72 1293.66,-23.31 1080.15,-17.74"/>
<polygon fill="#63b8ff" stroke="#63b8ff" points="2174.54,-69.48 2184.85,-67.07 2175.29,-62.52 2174.54,-69.48"/>
</a>
</g>
</g>
<!-- Node7 -->
<g id="Node000007" class="node">
<title>Node7</title>
<g id="a_Node000007"><a xlink:href="ScaleHandle_8cpp.html" target="_top" xlink:title=" ">
<polygon fill="white" stroke="#666666" points="2323.11,-30 2185.11,-30 2185.11,0 2323.11,0 2323.11,-30"/>
<text text-anchor="start" x="2193.11" y="-18" font-family="Helvetica,sans-Serif" font-size="10.00">src/graphics/components</text>
<text text-anchor="middle" x="2254.11" y="-7" font-family="Helvetica,sans-Serif" font-size="10.00">/ScaleHandle.cpp</text>
</a>
</g>
</g>
<!-- Node6&#45;&gt;Node7 -->
<g id="edge7_Node000006_Node000007" class="edge">
<title>Node6&#45;&gt;Node7</title>
<g id="a_edge7_Node000006_Node000007"><a xlink:title=" ">
<path fill="none" stroke="#63b8ff" d="M2254.11,-55.54C2254.11,-46.96 2254.11,-37.61 2254.11,-30.16"/>
<polygon fill="#63b8ff" stroke="#63b8ff" points="2250.61,-55.8 2254.11,-65.8 2257.61,-55.8 2250.61,-55.8"/>
</a>
</g>
</g>
<!-- Node15 -->
<g id="Node000015" class="node">
<title>Node15</title>
<g id="a_Node000015"><a xlink:href="HierarchyWidget_8cpp.html" target="_top" xlink:title=" ">
<polygon fill="white" stroke="#666666" points="1673.11,-24.5 1525.11,-24.5 1525.11,-5.5 1673.11,-5.5 1673.11,-24.5"/>
<text text-anchor="middle" x="1599.11" y="-12.5" font-family="Helvetica,sans-Serif" font-size="10.00">src/ui/HierarchyWidget.cpp</text>
</a>
</g>
</g>
<!-- Node14&#45;&gt;Node15 -->
<g id="edge15_Node000014_Node000015" class="edge">
<title>Node14&#45;&gt;Node15</title>
<g id="a_edge15_Node000014_Node000015"><a xlink:title=" ">
<path fill="none" stroke="#63b8ff" d="M1599.11,-61.08C1599.11,-49.13 1599.11,-34.22 1599.11,-24.91"/>
<polygon fill="#63b8ff" stroke="#63b8ff" points="1595.61,-61.37 1599.11,-71.37 1602.61,-61.37 1595.61,-61.37"/>
</a>
</g>
</g>
<!-- Node16 -->
<g id="Node000016" class="node">
<title>Node16</title>
<g id="a_Node000016"><a xlink:href="MainWindow_8cpp.html" target="_top" xlink:title=" ">
<polygon fill="white" stroke="#666666" points="220.11,-24.5 92.11,-24.5 92.11,-5.5 220.11,-5.5 220.11,-24.5"/>
<text text-anchor="middle" x="156.11" y="-12.5" font-family="Helvetica,sans-Serif" font-size="10.00">src/ui/MainWindow.cpp</text>
</a>
</g>
</g>
<!-- Node14&#45;&gt;Node16 -->
<g id="edge16_Node000014_Node000016" class="edge">
<title>Node14&#45;&gt;Node16</title>
<g id="a_edge16_Node000014_Node000016"><a xlink:title=" ">
<path fill="none" stroke="#63b8ff" d="M1548.41,-69.72C1539.67,-68.25 1530.65,-66.93 1522.11,-66 1264.95,-38.06 455.2,-21.45 220.47,-17.13"/>
<polygon fill="#63b8ff" stroke="#63b8ff" points="1548.05,-73.21 1558.5,-71.49 1549.26,-66.32 1548.05,-73.21"/>
</a>
</g>
</g>
<!-- Node25&#45;&gt;Node10 -->
<g id="edge26_Node000025_Node000010" class="edge">
<title>Node25&#45;&gt;Node10</title>
<g id="a_edge26_Node000025_Node000010"><a xlink:title=" ">
<path fill="none" stroke="#63b8ff" d="M639.36,-245.94C814.75,-219.02 1293.78,-146.46 1453.11,-132 1842.5,-96.65 1943.15,-135.85 2332.11,-96 2345.05,-94.67 2359.01,-92.63 2371.81,-90.51"/>
<polygon fill="#63b8ff" stroke="#63b8ff" points="638.6,-242.51 629.25,-247.49 639.66,-249.43 638.6,-242.51"/>
</a>
</g>
</g>
<!-- Node25&#45;&gt;Node11 -->
<g id="edge27_Node000025_Node000011" class="edge">
<title>Node25&#45;&gt;Node11</title>
<g id="a_edge27_Node000025_Node000011"><a xlink:title=" ">
<path fill="none" stroke="#63b8ff" d="M596.01,-241.58C628.63,-218.31 683.33,-171.11 656.11,-132 640.61,-109.74 614,-97.37 588.48,-90.5"/>
<polygon fill="#63b8ff" stroke="#63b8ff" points="593.72,-238.92 587.49,-247.49 597.7,-244.67 593.72,-238.92"/>
</a>
</g>
</g>
<!-- Node25&#45;&gt;Node16 -->
<g id="edge43_Node000025_Node000016" class="edge">
<title>Node25&#45;&gt;Node16</title>
<g id="a_edge43_Node000025_Node000016"><a xlink:title=" ">
<path fill="none" stroke="#63b8ff" d="M521.88,-245.66C514.26,-244.32 506.49,-243.05 499.11,-242 388.81,-226.28 67.52,-243.95 6.11,-151 -12.27,-123.19 15.53,-88.21 39.11,-66 61.54,-44.87 94.26,-31.92 119.4,-24.51"/>
<polygon fill="#63b8ff" stroke="#63b8ff" points="521.31,-249.11 531.77,-247.44 522.55,-242.22 521.31,-249.11"/>
</a>
</g>
</g>
<!-- Node25&#45;&gt;Node24 -->
<g id="edge44_Node000025_Node000024" class="edge">
<title>Node25&#45;&gt;Node24</title>
<g id="a_edge44_Node000025_Node000024"><a xlink:title=" ">
<path fill="none" stroke="#63b8ff" d="M521.33,-245.63C513.88,-244.32 506.31,-243.07 499.11,-242 354.03,-220.53 307.54,-259.78 171.11,-206 139.23,-193.44 108.8,-165.61 94.55,-151.33"/>
<polygon fill="#63b8ff" stroke="#63b8ff" points="520.9,-249.11 531.36,-247.45 522.15,-242.22 520.9,-249.11"/>
</a>
</g>
</g>
<!-- Node26 -->
<g id="Node000026" class="node">
<title>Node26</title>
<g id="a_Node000026"><a xlink:href="SceneManager_8h.html" target="_top" xlink:title=" ">
<polygon fill="white" stroke="#666666" points="586.11,-206 404.11,-206 404.11,-187 586.11,-187 586.11,-206"/>
<text text-anchor="middle" x="495.11" y="-194" font-family="Helvetica,sans-Serif" font-size="10.00">src/graphics/core/SceneManager.h</text>
</a>
</g>
</g>
<!-- Node25&#45;&gt;Node26 -->
<g id="edge28_Node000025_Node000026" class="edge">
<title>Node25&#45;&gt;Node26</title>
<g id="a_edge28_Node000025_Node000026"><a xlink:title=" ">
<path fill="none" stroke="#63b8ff" d="M554.32,-241.35C539.36,-230.27 519.32,-215.43 506.81,-206.17"/>
<polygon fill="#63b8ff" stroke="#63b8ff" points="552.33,-244.23 562.45,-247.37 556.5,-238.6 552.33,-244.23"/>
</a>
</g>
</g>
<!-- Node29 -->
<g id="Node000029" class="node">
<title>Node29</title>
<g id="a_Node000029"><a xlink:href="main_8cpp.html" target="_top" xlink:title=" ">
<polygon fill="white" stroke="#666666" points="127.61,-90.5 48.61,-90.5 48.61,-71.5 127.61,-71.5 127.61,-90.5"/>
<text text-anchor="middle" x="88.11" y="-78.5" font-family="Helvetica,sans-Serif" font-size="10.00">src/main.cpp</text>
</a>
</g>
</g>
<!-- Node25&#45;&gt;Node29 -->
<g id="edge42_Node000025_Node000029" class="edge">
<title>Node25&#45;&gt;Node29</title>
<g id="a_edge42_Node000025_Node000029"><a xlink:title=" ">
<path fill="none" stroke="#63b8ff" d="M520.15,-245.38C446.72,-229.88 312.09,-197.74 204.11,-151 183.25,-141.97 127.39,-107 101.55,-90.59"/>
<polygon fill="#63b8ff" stroke="#63b8ff" points="519.59,-248.84 530.1,-247.46 521.02,-241.99 519.59,-248.84"/>
</a>
</g>
</g>
<!-- Node26&#45;&gt;Node3 -->
<g id="edge32_Node000026_Node000003" class="edge">
<title>Node26&#45;&gt;Node3</title>
<g id="a_edge32_Node000026_Node000003"><a xlink:title=" ">
<path fill="none" stroke="#63b8ff" d="M596.17,-187.75C732.26,-177.31 972.09,-158.92 1100.03,-149.1"/>
<polygon fill="#63b8ff" stroke="#63b8ff" points="595.86,-184.26 586.15,-188.52 596.39,-191.24 595.86,-184.26"/>
</a>
</g>
</g>
<!-- Node26&#45;&gt;Node4 -->
<g id="edge29_Node000026_Node000004" class="edge">
<title>Node26&#45;&gt;Node4</title>
<g id="a_edge29_Node000026_Node000004"><a xlink:title=" ">
<path fill="none" stroke="#63b8ff" d="M466.32,-182.69C435.29,-169.13 384.25,-147.59 339.11,-132 284.05,-112.99 248.18,-142.5 213.11,-96 205.08,-85.36 203.98,-75.72 213.11,-66 237.89,-39.61 752.25,-23.03 941.78,-17.79"/>
<polygon fill="#63b8ff" stroke="#63b8ff" points="465.1,-185.97 475.66,-186.79 467.92,-179.56 465.1,-185.97"/>
</a>
</g>
</g>
<!-- Node26&#45;&gt;Node11 -->
<g id="edge30_Node000026_Node000011" class="edge">
<title>Node26&#45;&gt;Node11</title>
<g id="a_edge30_Node000026_Node000011"><a xlink:title=" ">
<path fill="none" stroke="#63b8ff" d="M474.42,-180.58C459.8,-168.08 444.24,-149.51 453.11,-132 463.03,-112.39 484.67,-98.59 500.89,-90.53"/>
<polygon fill="#63b8ff" stroke="#63b8ff" points="472.29,-183.35 482.29,-186.85 476.65,-177.88 472.29,-183.35"/>
</a>
</g>
</g>
<!-- Node26&#45;&gt;Node12 -->
<g id="edge31_Node000026_Node000012" class="edge">
<title>Node26&#45;&gt;Node12</title>
<g id="a_edge31_Node000026_Node000012"><a xlink:title=" ">
<path fill="none" stroke="#63b8ff" d="M472.72,-181.46C434.78,-157.67 358.94,-110.12 327.87,-90.63"/>
<polygon fill="#63b8ff" stroke="#63b8ff" points="471.17,-184.62 481.5,-186.97 474.89,-178.69 471.17,-184.62"/>
</a>
</g>
</g>
<!-- Node26&#45;&gt;Node18 -->
<g id="edge40_Node000026_Node000018" class="edge">
<title>Node26&#45;&gt;Node18</title>
<g id="a_edge40_Node000026_Node000018"><a xlink:title=" ">
<path fill="none" stroke="#63b8ff" d="M536.69,-184.31C614.05,-163.51 779.87,-118.91 864.73,-96.09"/>
<polygon fill="#63b8ff" stroke="#63b8ff" points="535.57,-180.99 526.82,-186.97 537.39,-187.75 535.57,-180.99"/>
</a>
</g>
</g>
<!-- Node26&#45;&gt;Node19 -->
<g id="edge41_Node000026_Node000019" class="edge">
<title>Node26&#45;&gt;Node19</title>
<g id="a_edge41_Node000026_Node000019"><a xlink:title=" ">
<path fill="none" stroke="#63b8ff" d="M596.39,-191.5C746.2,-185.19 1035.62,-171.49 1281.11,-151 1357.75,-144.6 1376.4,-137.55 1453.11,-132 1918.39,-98.37 2038.17,-144.82 2502.11,-96 2505.15,-95.68 2508.26,-95.31 2511.39,-94.9"/>
<polygon fill="#63b8ff" stroke="#63b8ff" points="596.13,-188.01 586.29,-191.92 596.42,-195 596.13,-188.01"/>
</a>
</g>
</g>
<!-- Node26&#45;&gt;Node24 -->
<g id="edge39_Node000026_Node000024" class="edge">
<title>Node26&#45;&gt;Node24</title>
<g id="a_edge39_Node000026_Node000024"><a xlink:title=" ">
<path fill="none" stroke="#63b8ff" d="M419.31,-185.68C342.54,-175.73 225,-160.5 151.99,-151.04"/>
<polygon fill="#63b8ff" stroke="#63b8ff" points="419.03,-189.17 429.39,-186.98 419.93,-182.23 419.03,-189.17"/>
</a>
</g>
</g>
<!-- Node27 -->
<g id="Node000027" class="node">
<title>Node27</title>
<g id="a_Node000027"><a xlink:href="SceneSerializer_8h.html" target="_top" xlink:title=" ">
<polygon fill="white" stroke="#666666" points="647.61,-151 462.61,-151 462.61,-132 647.61,-132 647.61,-151"/>
<text text-anchor="middle" x="555.11" y="-139" font-family="Helvetica,sans-Serif" font-size="10.00">src/graphics/core/SceneSerializer.h</text>
</a>
</g>
</g>
<!-- Node26&#45;&gt;Node27 -->
<g id="edge33_Node000026_Node000027" class="edge">
<title>Node26&#45;&gt;Node27</title>
<g id="a_edge33_Node000026_Node000027"><a xlink:title=" ">
<path fill="none" stroke="#63b8ff" d="M512.29,-180.32C522.99,-170.87 536.36,-159.06 545.29,-151.17"/>
<polygon fill="#63b8ff" stroke="#63b8ff" points="509.92,-177.74 504.75,-186.98 514.56,-182.99 509.92,-177.74"/>
</a>
</g>
</g>
<!-- Node28 -->
<g id="Node000028" class="node">
<title>Node28</title>
<g id="a_Node000028"><a xlink:href="MainWindow_8h.html" target="_top" xlink:title=" ">
<polygon fill="white" stroke="#666666" points="330.61,-151 213.61,-151 213.61,-132 330.61,-132 330.61,-151"/>
<text text-anchor="middle" x="272.11" y="-139" font-family="Helvetica,sans-Serif" font-size="10.00">src/ui/MainWindow.h</text>
</a>
</g>
</g>
<!-- Node26&#45;&gt;Node28 -->
<g id="edge36_Node000026_Node000028" class="edge">
<title>Node26&#45;&gt;Node28</title>
<g id="a_edge36_Node000026_Node000028"><a xlink:title=" ">
<path fill="none" stroke="#63b8ff" d="M449.36,-184.63C407.59,-174.7 346.66,-160.22 308.22,-151.08"/>
<polygon fill="#63b8ff" stroke="#63b8ff" points="448.74,-188.08 459.28,-186.98 450.36,-181.27 448.74,-188.08"/>
</a>
</g>
</g>
<!-- Node27&#45;&gt;Node11 -->
<g id="edge34_Node000027_Node000011" class="edge">
<title>Node27&#45;&gt;Node11</title>
<g id="a_edge34_Node000027_Node000011"><a xlink:title=" ">
<path fill="none" stroke="#63b8ff" d="M544.92,-122.98C538.72,-112.31 531.07,-99.15 526.14,-90.67"/>
<polygon fill="#63b8ff" stroke="#63b8ff" points="542.04,-124.98 550.09,-131.87 548.09,-121.46 542.04,-124.98"/>
</a>
</g>
</g>
<!-- Node27&#45;&gt;Node13 -->
<g id="edge35_Node000027_Node000013" class="edge">
<title>Node27&#45;&gt;Node13</title>
<g id="a_edge35_Node000027_Node000013"><a xlink:title=" ">
<path fill="none" stroke="#63b8ff" d="M591.05,-128.82C625.87,-117.5 677.83,-100.62 708.9,-90.52"/>
<polygon fill="#63b8ff" stroke="#63b8ff" points="589.71,-125.57 581.28,-131.99 591.87,-132.23 589.71,-125.57"/>
</a>
</g>
</g>
<!-- Node28&#45;&gt;Node16 -->
<g id="edge38_Node000028_Node000016" class="edge">
<title>Node28&#45;&gt;Node16</title>
<g id="a_edge38_Node000028_Node000016"><a xlink:title=" ">
<path fill="none" stroke="#63b8ff" d="M229.86,-128.5C212.29,-121.57 193.02,-111.15 180.11,-96 162.05,-74.81 157.58,-40.41 156.47,-24.53"/>
<polygon fill="#63b8ff" stroke="#63b8ff" points="228.81,-131.84 239.4,-131.99 231.22,-125.26 228.81,-131.84"/>
</a>
</g>
</g>
<!-- Node28&#45;&gt;Node29 -->
<g id="edge37_Node000028_Node000029" class="edge">
<title>Node28&#45;&gt;Node29</title>
<g id="a_edge37_Node000028_Node000029"><a xlink:title=" ">
<path fill="none" stroke="#63b8ff" d="M235.82,-128.96C200.23,-117.65 146.8,-100.66 114.89,-90.52"/>
<polygon fill="#63b8ff" stroke="#63b8ff" points="234.76,-132.3 245.35,-131.99 236.88,-125.63 234.76,-132.3"/>
</a>
</g>
</g>
<!-- Node31&#45;&gt;Node2 -->
<g id="edge48_Node000031_Node000002" class="edge">
<title>Node31&#45;&gt;Node2</title>
<g id="a_edge48_Node000031_Node000002"><a xlink:title=" ">
<path fill="none" stroke="#63b8ff" d="M1389.16,-359.05C1363.78,-348.45 1332.81,-335.51 1312.78,-327.14"/>
<polygon fill="#63b8ff" stroke="#63b8ff" points="1388,-362.36 1398.57,-362.99 1390.69,-355.9 1388,-362.36"/>
</a>
</g>
</g>
<!-- Node31&#45;&gt;Node23 -->
<g id="edge49_Node000031_Node000023" class="edge">
<title>Node31&#45;&gt;Node23</title>
<g id="a_edge49_Node000031_Node000023"><a xlink:title=" ">
<path fill="none" stroke="#63b8ff" d="M1481.63,-358.57C1497.22,-350.79 1513.4,-340.38 1525.11,-327 1538.93,-311.2 1545.71,-287.33 1548.8,-272.21"/>
<polygon fill="#63b8ff" stroke="#63b8ff" points="1480.11,-355.42 1472.56,-362.85 1483.1,-361.75 1480.11,-355.42"/>
</a>
</g>
</g>
<!-- Node32 -->
<g id="Node000032" class="node">
<title>Node32</title>
<g id="a_Node000032"><a xlink:href="SolverDialog_8cpp.html" target="_top" xlink:title=" ">
<polygon fill="white" stroke="#666666" points="1516.11,-327 1388.11,-327 1388.11,-308 1516.11,-308 1516.11,-327"/>
<text text-anchor="middle" x="1452.11" y="-315" font-family="Helvetica,sans-Serif" font-size="10.00">src/ui/SolverDialog.cpp</text>
</a>
</g>
</g>
<!-- Node31&#45;&gt;Node32 -->
<g id="edge50_Node000031_Node000032" class="edge">
<title>Node31&#45;&gt;Node32</title>
<g id="a_edge50_Node000031_Node000032"><a xlink:title=" ">
<path fill="none" stroke="#63b8ff" d="M1440.2,-353.34C1443.34,-344.14 1446.75,-334.17 1449.11,-327.27"/>
<polygon fill="#63b8ff" stroke="#63b8ff" points="1436.87,-352.24 1436.95,-362.84 1443.49,-354.51 1436.87,-352.24"/>
</a>
</g>
</g>
</g>
</svg>
